<svg version="1.1" xmlns="http://www.w3.org/2000/svg" xmlns:xlink="http://www.w3.org/1999/xlink" width="480.66668" height="360" viewBox="0,0,480.66668,360"><defs><linearGradient x1="1.50003" y1="310.59638" x2="121.50003" y2="310.59638" gradientUnits="userSpaceOnUse" id="color-1"><stop offset="0" stop-color="#ffad50"/><stop offset="1" stop-color="#ba693f"/></linearGradient><linearGradient x1="47.50001" y1="50.42069" x2="1.50002" y2="50.42069" gradientUnits="userSpaceOnUse" id="color-2"><stop offset="0" stop-color="#ffad50"/><stop offset="1" stop-color="#ba693f"/></linearGradient><linearGradient x1="343.50001" y1="147.21108" x2="475.50001" y2="147.21108" gradientUnits="userSpaceOnUse" id="color-3"><stop offset="0" stop-color="#f5ab66"/><stop offset="1" stop-color="#ba693f"/></linearGradient><linearGradient x1="478.50004" y1="181.50004" x2="386.50001" y2="181.50004" gradientUnits="userSpaceOnUse" id="color-4"><stop offset="0" stop-color="#f5ab66"/><stop offset="1" stop-color="#ba693f"/></linearGradient><linearGradient x1="405.50001" y1="113.94762" x2="477.50001" y2="113.94762" gradientUnits="userSpaceOnUse" id="color-5"><stop offset="0" stop-color="#aa5e38"/><stop offset="1" stop-color="#e09c4f"/></linearGradient><linearGradient x1="477.50001" y1="279.31592" x2="343.50001" y2="279.31592" gradientUnits="userSpaceOnUse" id="color-6"><stop offset="0" stop-color="#e09846"/><stop offset="1" stop-color="#ba693f"/></linearGradient><linearGradient x1="1.50002" y1="181.00004" x2="50.50002" y2="181.00004" gradientUnits="userSpaceOnUse" id="color-7"><stop offset="0" stop-color="#aa5e38"/><stop offset="1" stop-color="#e09c4f"/></linearGradient><linearGradient x1="0.50002" y1="113.95611" x2="146.50001" y2="113.95611" gradientUnits="userSpaceOnUse" id="color-8"><stop offset="0" stop-color="#ba693f"/><stop offset="1" stop-color="#ffad50"/></linearGradient><linearGradient x1="2.50003" y1="278.31592" x2="33.50002" y2="278.31592" gradientUnits="userSpaceOnUse" id="color-9"><stop offset="0" stop-color="#aa5e38"/><stop offset="1" stop-color="#e09c4f"/></linearGradient><linearGradient x1="213.50004" y1="181.05576" x2="388.50001" y2="181.05576" gradientUnits="userSpaceOnUse" id="color-10"><stop offset="0" stop-color="#f5ab66"/><stop offset="1" stop-color="#ba693f"/></linearGradient><linearGradient x1="113.16671" y1="113.89159" x2="406.16673" y2="113.89159" gradientUnits="userSpaceOnUse" id="color-11"><stop offset="0" stop-color="#ffad50"/><stop offset="1" stop-color="#ba693f"/></linearGradient><linearGradient x1="1.16673" y1="82.36092" x2="250.16674" y2="82.36092" gradientUnits="userSpaceOnUse" id="color-12"><stop offset="0" stop-color="#ffad50"/><stop offset="1" stop-color="#ba693f"/></linearGradient><linearGradient x1="171.16674" y1="50.83024" x2="478.16673" y2="50.83024" gradientUnits="userSpaceOnUse" id="color-13"><stop offset="0" stop-color="#e09846"/><stop offset="1" stop-color="#aa5e38"/></linearGradient><linearGradient x1="1.16672" y1="17.76534" x2="326.1667" y2="17.76534" gradientUnits="userSpaceOnUse" id="color-14"><stop offset="0" stop-color="#f5ab66"/><stop offset="1" stop-color="#ba693f"/></linearGradient><linearGradient x1="0.16673" y1="146.47361" x2="348.16673" y2="146.47361" gradientUnits="userSpaceOnUse" id="color-15"><stop offset="0" stop-color="#ffad50"/><stop offset="1" stop-color="#ba693f"/></linearGradient><linearGradient x1="3.50002" y1="214.62055" x2="321.50001" y2="214.62055" gradientUnits="userSpaceOnUse" id="color-16"><stop offset="0" stop-color="#e09846"/><stop offset="1" stop-color="#aa5e38"/></linearGradient><linearGradient x1="287.50003" y1="246.15122" x2="2.50001" y2="246.15122" gradientUnits="userSpaceOnUse" id="color-17"><stop offset="0" stop-color="#f5ab66"/><stop offset="1" stop-color="#ba693f"/></linearGradient><linearGradient x1="49.50002" y1="180.03852" x2="214.50004" y2="180.03852" gradientUnits="userSpaceOnUse" id="color-18"><stop offset="0" stop-color="#ffad50"/><stop offset="1" stop-color="#ba693f"/></linearGradient><linearGradient x1="250.16674" y1="83.37803" x2="478.16673" y2="83.37803" gradientUnits="userSpaceOnUse" id="color-19"><stop offset="0" stop-color="#ffad50"/><stop offset="1" stop-color="#ba693f"/></linearGradient><linearGradient x1="34.50002" y1="278.64766" x2="353.50001" y2="278.64766" gradientUnits="userSpaceOnUse" id="color-20"><stop offset="0" stop-color="#f5ab66"/><stop offset="1" stop-color="#ba693f"/></linearGradient><linearGradient x1="117.50003" y1="311.17833" x2="433.50001" y2="311.17833" gradientUnits="userSpaceOnUse" id="color-21"><stop offset="0" stop-color="#e09c4f"/><stop offset="1" stop-color="#aa5e38"/></linearGradient><linearGradient x1="477.50001" y1="246.1341" x2="283.50001" y2="246.1341" gradientUnits="userSpaceOnUse" id="color-22"><stop offset="0" stop-color="#ffad50"/><stop offset="1" stop-color="#ba693f"/></linearGradient><linearGradient x1="45.50003" y1="50.81313" x2="175.50002" y2="50.81313" gradientUnits="userSpaceOnUse" id="color-23"><stop offset="0" stop-color="#f5ab66"/><stop offset="1" stop-color="#ba693f"/></linearGradient><linearGradient x1="322.1667" y1="18.28245" x2="476.16673" y2="18.28245" gradientUnits="userSpaceOnUse" id="color-24"><stop offset="0" stop-color="#ffad50"/><stop offset="1" stop-color="#ba693f"/></linearGradient><linearGradient x1="317.50001" y1="214.60343" x2="478.50001" y2="214.60343" gradientUnits="userSpaceOnUse" id="color-25"><stop offset="0" stop-color="#f5ab66"/><stop offset="1" stop-color="#ba693f"/></linearGradient><linearGradient x1="2.50001" y1="342.72612" x2="235.50003" y2="342.72612" gradientUnits="userSpaceOnUse" id="color-26"><stop offset="0" stop-color="#e09c4f"/><stop offset="1" stop-color="#aa5e38"/></linearGradient><linearGradient x1="478.50001" y1="342.72612" x2="236.50002" y2="342.72612" gradientUnits="userSpaceOnUse" id="color-27"><stop offset="0" stop-color="#ffad50"/><stop offset="1" stop-color="#ba693f"/></linearGradient><linearGradient x1="477.50001" y1="309.59638" x2="433.50001" y2="309.59638" gradientUnits="userSpaceOnUse" id="color-28"><stop offset="0" stop-color="#ba693f"/><stop offset="1" stop-color="#ffad50"/></linearGradient></defs><g transform="translate(0.3333,0)"><g data-paper-data="{&quot;isPaintingLayer&quot;:true}" fill-rule="nonzero" stroke-width="0" stroke-linecap="butt" stroke-linejoin="miter" stroke-miterlimit="10" stroke-dasharray="" stroke-dashoffset="0" style="mix-blend-mode: normal"><path d="M-0.33329,360v-360h480.66667v360z" fill="#d48149" stroke="#000000"/><path d="M1.50003,326.22811v-31.26346h120v31.26346z" data-paper-data="{&quot;index&quot;:null}" fill="url(#color-1)" stroke="none"/><path d="M1.50002,66.05242v-31.26346h46v31.26346z" data-paper-data="{&quot;index&quot;:null}" fill="url(#color-2)" stroke="none"/><path d="M343.50001,162.84281v-31.26346h132v31.26346z" data-paper-data="{&quot;index&quot;:null}" fill="url(#color-3)" stroke="none"/><path d="M386.50001,197.13177v-31.26346h92v31.26346z" data-paper-data="{&quot;index&quot;:null}" fill="url(#color-4)" stroke="none"/><path d="M405.50001,129.57935v-31.26346h72v31.26346z" data-paper-data="{&quot;index&quot;:null}" fill="url(#color-5)" stroke="none"/><path d="M343.50001,294.94765v-31.26346h134v31.26346z" data-paper-data="{&quot;index&quot;:null}" fill="url(#color-6)" stroke="none"/><path d="M1.50002,198.13177v-34.26346h49v34.26346z" data-paper-data="{&quot;index&quot;:null}" fill="url(#color-7)" stroke="none"/><path d="M0.50002,129.58785v-31.26346h146v31.26346z" data-paper-data="{&quot;index&quot;:null}" fill="url(#color-8)" stroke="none"/><path d="M2.50003,293.94765v-31.26346h31v31.26346z" data-paper-data="{&quot;index&quot;:null}" fill="url(#color-9)" stroke="none"/><path d="M213.50004,196.8211v-31.53067h175v31.53067z" data-paper-data="{&quot;index&quot;:null}" fill="url(#color-10)" stroke="none"/><path d="M113.16671,129.65692v-31.53067h293v31.53067z" fill="url(#color-11)" stroke="none"/><path d="M1.16673,98.12625v-31.53067h249v31.53067z" fill="url(#color-12)" stroke="none"/><path d="M171.16674,66.59558v-31.53067h307v31.53067z" fill="url(#color-13)" stroke="none"/><path d="M1.16672,34.03067v-32.53067h325v32.53067z" fill="url(#color-14)" stroke="none"/><path d="M0.16673,162.23895v-31.53067h348v31.53067z" fill="url(#color-15)" stroke="none"/><path d="M3.50002,230.38589v-31.53067h318v31.53067z" fill="url(#color-16)" stroke="none"/><path d="M2.50001,261.91656v-31.53067h285v31.53067z" data-paper-data="{&quot;index&quot;:null}" fill="url(#color-17)" stroke="none"/><path d="M49.50002,196.80386v-33.53067h165v33.53067z" data-paper-data="{&quot;index&quot;:null}" fill="url(#color-18)" stroke="none"/><path d="M250.16674,99.14337v-31.53067h228v31.53067z" fill="url(#color-19)" stroke="none"/><path d="M34.50002,294.41299v-31.53067h319v31.53067z" data-paper-data="{&quot;index&quot;:null}" fill="url(#color-20)" stroke="none"/><path d="M117.50003,326.94366v-31.53067h316v31.53067z" data-paper-data="{&quot;index&quot;:null}" fill="url(#color-21)" stroke="none"/><path d="M283.50001,261.89944v-31.53067h194v31.53067z" data-paper-data="{&quot;index&quot;:null}" fill="url(#color-22)" stroke="none"/><path d="M45.50003,66.57846v-31.53067h130v31.53067z" data-paper-data="{&quot;index&quot;:null}" fill="url(#color-23)" stroke="none"/><path d="M322.1667,34.04779v-31.53067h154v31.53067z" fill="url(#color-24)" stroke="none"/><path d="M317.50001,230.36877v-31.53067h161v31.53067z" data-paper-data="{&quot;index&quot;:null}" fill="url(#color-25)" stroke="none"/><path d="M2.50001,358.49145v-31.53067h233v31.53067z" data-paper-data="{&quot;index&quot;:null}" fill="url(#color-26)" stroke="none"/><path d="M236.50002,358.49146v-31.53067h242v31.53067z" data-paper-data="{&quot;index&quot;:null}" fill="url(#color-27)" stroke="none"/><path d="M433.50001,325.22811v-31.26346h44v31.26346z" data-paper-data="{&quot;index&quot;:null}" fill="url(#color-28)" stroke="none"/><path d="M-0.3333,360v-360h480.66667v360z" fill-opacity="0.35686" fill="#8f857d" stroke="#000000"/></g></g></svg>