<svg version="1.1" xmlns="http://www.w3.org/2000/svg" xmlns:xlink="http://www.w3.org/1999/xlink" width="72.68683" height="72.68683" viewBox="0,0,72.68683,72.68683"><defs><radialGradient cx="288.08117" cy="191.01774" r="36.34341" gradientUnits="userSpaceOnUse" id="color-1"><stop offset="0" stop-color="#000000" stop-opacity="0.63137"/><stop offset="1" stop-color="#000000" stop-opacity="0"/></radialGradient><linearGradient x1="288.08117" y1="154.6743" x2="288.08117" y2="227.36115" gradientUnits="userSpaceOnUse" id="color-2"><stop offset="0" stop-color="#ff5454"/><stop offset="1" stop-color="#eb0000"/></linearGradient><linearGradient x1="267.79167" y1="191.12944" x2="318.29167" y2="191.12944" gradientUnits="userSpaceOnUse" id="color-3"><stop offset="0" stop-color="#ff4d4d"/><stop offset="1" stop-color="#ffbaba"/></linearGradient><linearGradient x1="256.61061" y1="202.24908" x2="277.4968" y2="202.34016" gradientUnits="userSpaceOnUse" id="color-4"><stop offset="0" stop-color="#ff4d4d"/><stop offset="1" stop-color="#ff5454"/></linearGradient><linearGradient x1="256.91418" y1="178.95158" x2="277.80034" y2="179.04265" gradientUnits="userSpaceOnUse" id="color-5"><stop offset="0" stop-color="#ff4d4d"/><stop offset="1" stop-color="#ff5454"/></linearGradient><linearGradient x1="259.36055" y1="209.78509" x2="304.8271" y2="209.98335" gradientUnits="userSpaceOnUse" id="color-6"><stop offset="0" stop-color="#ff4d4d"/><stop offset="1" stop-color="#ffbaba"/></linearGradient><linearGradient x1="287.9169" y1="183.13568" x2="291.0569" y2="183.14838" gradientUnits="userSpaceOnUse" id="color-7"><stop offset="0" stop-color="#eb0000"/><stop offset="1" stop-color="#ff5454"/></linearGradient><linearGradient x1="287.58241" y1="198.96261" x2="290.82924" y2="198.97574" gradientUnits="userSpaceOnUse" id="color-8"><stop offset="0" stop-color="#eb0000"/><stop offset="1" stop-color="#ff5454"/></linearGradient><linearGradient x1="259.67663" y1="171.96216" x2="305.14327" y2="172.1316" gradientUnits="userSpaceOnUse" id="color-9"><stop offset="0" stop-color="#eb4747"/><stop offset="1" stop-color="#ffbaba"/></linearGradient></defs><g transform="translate(-251.73773,-154.67432)"><g data-paper-data="{&quot;isPaintingLayer&quot;:true}" fill-rule="nonzero" stroke-linejoin="miter" stroke-miterlimit="10" stroke-dasharray="" stroke-dashoffset="0" style="mix-blend-mode: normal"><path d="" fill="#000000" stroke="none" stroke-width="0.5" stroke-linecap="butt"/><path d="M251.73773,191.01774c0,-20.07191 16.27151,-36.34341 36.34341,-36.34341c20.07195,0 36.34341,16.27152 36.34341,36.34341c0,20.07191 -16.27151,36.34342 -36.34341,36.34342c-20.07195,0 -36.34341,-16.27152 -36.34341,-36.34342z" fill="url(#color-1)" stroke="url(#color-2)" stroke-width="0" stroke-linecap="butt"/><path d="M270.79167,213.62944l-7,-23.25l7,-21.5l36.1795,4.3873l10.25204,11.89842l2.06846,11.71428l-19,13.25z" fill="url(#color-3)" stroke="#000000" stroke-width="0" stroke-linecap="butt"/><path d="M277.38143,214.03625c-0.45249,1.99507 -2.44756,1.5426 -2.44756,1.5426l-2.15494,-0.51615c-3.70152,-1.53025 -5.8249,-3.78598 -6.729,-7.83756c-1.03281,-4.62837 0.75203,-10.38121 -4.07162,-13.19907c-1.0412,-0.60825 -2.28006,-0.8775 -3.48122,-0.98371c0,0 -2.03469,-0.21243 -1.82225,-2.24713c0.21244,-2.03468 2.24712,-1.82224 2.24712,-1.82224c3.46017,0.40124 7.69344,2.02451 9.36795,5.44093c2.32064,4.73472 0.25068,11.10231 3.21285,15.4536c0.41695,0.6125 2.41058,1.24453 2.81228,1.403l1.52382,0.31818c0,0 1.99507,0.45249 1.5426,2.44757z" fill="url(#color-4)" stroke="none" stroke-width="0.5" stroke-linecap="butt"/><path d="M276.22315,169.78002l-1.52652,0.30488c-0.40307,0.15496 -2.40212,0.76958 -2.8244,1.37842c-3,4.3253 -0.98566,10.71068 -3.34751,15.42499c-1.70422,3.40168 -5.95149,4.98799 -9.41503,5.35905c0,0 -2.03646,0.19467 -2.23113,-1.84178c-0.19468,-2.03646 1.84177,-2.23114 1.84177,-2.23114c1.20205,-0.09574 2.4432,-0.35417 3.48967,-0.95332c4.84801,-2.77569 3.11341,-8.54387 4.18655,-13.16305c0.9394,-4.04357 3.08238,-6.28068 6.79711,-7.77858l2.15936,-0.49734c0,0 1.99894,-0.43508 2.43401,1.56386c0.43507,1.99894 -1.56387,2.43402 -1.56387,2.43402z" data-paper-data="{&quot;index&quot;:null}" fill="url(#color-5)" stroke="none" stroke-width="0.5" stroke-linecap="butt"/><path d="M307.26532,204.43522c1.86613,-1.2129 0.46747,-0.28252 1.99721,-1.7241c0.07461,-0.0703 0.90702,-1.09656 1.21913,-1.71997c0.5485,-1.09557 -0.13218,-0.86181 1.57822,-1.78799c2.50188,-1.35477 2.60514,-0.63202 4.24143,-2.12899c0.19835,-0.18145 0.72823,-0.47154 0.85861,-2.4102c0.08778,-1.30513 0.21251,-0.77068 0.10193,-2.38897c-0.00571,-0.08342 -0.27805,-1.06741 -0.14417,-1.4625c0.15859,-0.46804 1.09705,0.10749 1.38029,-0.02554c0.29757,-0.13978 1.47654,-0.73774 1.79977,-0.3639c0.23726,0.27442 0.19089,1.5191 0.19635,1.71522c0.03598,1.29152 -0.13498,3.25414 -0.1476,3.40072c-0.16291,1.89283 -0.72265,2.46081 -1.1123,3.3369c-0.27077,0.6088 -2.12441,1.61188 -2.3041,1.68633c-2.25975,0.93625 -3.02978,0.81431 -3.50495,1.72527c-0.0446,0.08553 -0.26565,0.67197 -0.28134,1.23702c-0.00894,0.32231 -0.01974,0.57884 -0.10132,0.96078c-0.22968,1.07543 -0.72806,2.30296 -0.81031,2.35339c-0.05463,0.03351 -1.13774,2.67845 -2.79793,3.64517c-0.34919,0.20333 -0.73993,0.82825 -1.87529,1.31698c-0.51502,0.22171 -0.0214,0.09695 -1.65071,0.63841c-0.73475,0.24418 -3.45171,0.58159 -4.40515,1.24325c-0.14457,0.10032 -0.32295,0.08618 -0.45109,0.12573c-2.20483,0.68059 -4.55241,2.00862 -5.51352,3.10189c-0.4386,0.49891 -1.06879,0.16164 -1.34979,-0.00586c-0.33276,-0.19837 -0.6322,-0.47161 -0.77393,-0.75528c-0.3236,-0.64769 -0.16979,-1.35108 -0.16979,-1.35108l2.1896,-2.35105c-0.29838,0.05799 4.81291,-2.23806 4.51333,-2.18583c-1.09242,0.19046 -1.70163,0.42562 -2.80502,0.53109c-5.02445,0.98263 -9.20544,3.88873 -14.16733,5.01861c-4.15361,0.94581 -10.00611,0.10578 -13.93732,-1.59199c-3.34431,-1.44431 -6.23229,-4.76718 -8.92076,-7.14037c0,0 -1.53369,-1.35383 -0.17986,-2.88752c1.35383,-1.53369 2.88752,-0.17985 2.88752,-0.17985c2.29126,2.02255 4.92658,5.2352 7.79532,6.43457c2.60886,1.09072 6.72398,1.83953 9.56097,1.7288c3.36759,-0.13146 6.50691,-2.14503 9.47691,-3.45821c2.20526,-0.97507 4.5455,-1.51368 6.8967,-1.97307c1.33967,-0.12807 2.67512,-0.31929 3.99559,-0.5791l2.01744,-0.22299c0,0 1.96794,-0.78922 3.06047,-0.77015c1.13175,0.01976 1.63682,-0.73556 1.63682,-0.73556z" fill="url(#color-6)" stroke="none" stroke-width="0.5" stroke-linecap="butt"/><path d="M295.18764,190.8444l-19.63419,0.03402" fill="none" stroke="#000000" stroke-width="3.5" stroke-linecap="round"/><path d="M293.713,190.98298c0.312,-0.74486 1.16066,-0.4701 1.16066,-0.4701c0.29116,0.09466 0.70252,0.14511 0.9851,0.31763c-0.01778,-0.08349 -0.05164,-0.14724 -0.13366,-0.14347l-1.69694,-0.54381c0.10744,-0.0856 0.21488,-0.1712 0.32234,-0.25681c-0.4152,0.28744 -0.81039,0.61737 -1.19208,0.93537c0.16041,0.13575 0.32328,0.2729 0.48914,0.40742c0.00765,-0.07563 0.02834,-0.1576 0.06546,-0.24623zM298.38846,188.49398c0.28202,0.32111 0.50297,0.70022 0.59913,1.09671c0.08326,0.3433 -0.05227,0.70032 -0.07838,1.05047l0.0037,0.00375c0,0 -0.00069,0.16851 -0.08984,0.34991c0.02659,0.34443 0.15308,0.69593 0.06856,1.03251c-0.09936,0.39568 -0.32336,0.77301 -0.60797,1.09183c-2.19752,2.46158 -5.34859,-0.37354 -7.07889,-1.73528c0,0 -0.67367,-0.53018 -0.07056,-1.1211c0.10779,-0.10563 0.21786,-0.17543 0.32591,-0.21885c1.77084,-1.38715 4.81766,-3.95308 6.92834,-1.54993z" fill="#000000" stroke="none" stroke-width="0.5" stroke-linecap="butt"/><path d="M284.9824,176.68588c3.10253,0.01254 7.77763,2.0538 7.76508,5.15633c-0.01254,3.10252 0.61873,4.9303 -2.48379,4.91776c-3.10253,-0.01254 -8.66183,-2.74728 -8.64929,-5.84978c0.01254,-3.10253 0.26547,-4.23683 3.368,-4.2243z" fill="#000000" stroke="none" stroke-width="NaN" stroke-linecap="butt"/><path d="M289.49314,181.59862c0.86709,0.0035 1.56722,0.69735 1.56378,1.54975c-0.00345,0.85239 -0.70916,1.54054 -1.57625,1.53704c-0.86709,-0.0035 -1.56721,-0.69734 -1.56376,-1.54973c0.00345,-0.85239 0.70914,-1.54055 1.57623,-1.53705z" fill="#000000" stroke="url(#color-7)" stroke-width="1.5" stroke-linecap="butt"/><path d="M281.36976,200.93885c0.01254,-3.10252 5.59381,-5.7922 8.69632,-5.77964c3.10253,0.01254 2.45649,1.83517 2.44394,4.93769c-0.01254,3.10252 -4.70401,5.10591 -7.80653,5.09336c-3.10253,-0.01254 -3.34627,-1.14889 -3.33371,-4.25141z" fill="#000000" stroke="none" stroke-width="NaN" stroke-linecap="butt"/><path d="M287.58241,198.96261c0.00356,-0.88139 0.73327,-1.59295 1.62986,-1.58933c0.8966,0.00363 1.62054,0.72109 1.61698,1.60246c-0.00356,0.88139 -0.73329,1.59296 -1.62988,1.58933c-0.8966,-0.00363 -1.62051,-0.72109 -1.61696,-1.60246z" fill="#000000" stroke="url(#color-8)" stroke-width="1.5" stroke-linecap="butt"/><path d="M311.35296,192.23283l0.0119,-0.19275c-0.28028,-1.83889 -1.76482,2.24104 -1.66252,-0.27249c0.00088,-0.00036 -2.93992,1.21486 -2.93904,1.2145c0.08965,-1.27939 0.13184,-0.14155 0.02855,-1.15092c-0.04127,-0.03233 0.07783,-0.88867 0.11359,-1.68418c-0.01842,-0.74947 -0.12653,-0.87069 -0.10393,-1.00138c0.04838,-0.27969 3.56006,-0.51378 3.56006,-0.51378c0,0 -3.65872,-0.44729 -3.69491,-0.49471c-0.14901,-0.1952 -0.42104,-1.12106 -0.60244,-1.33304c-0.20172,-0.23573 -0.45387,-0.59064 -0.45387,-0.59064c0,0 -0.6491,-0.64731 -0.83146,-0.85605c-0.36117,-0.41341 3.02608,-0.61295 3.02608,-0.61295c0,0 -3.80094,-0.41092 -4.04074,-0.66804c-0.14559,-0.15613 -0.74284,-0.7175 -0.92138,-0.90526c-0.28803,-0.30292 1.9023,-0.40105 1.9023,-0.40105c0,0 -2.71722,-0.53862 -2.87095,-0.70872c-0.28625,-0.31668 -0.56446,-0.63508 -0.81385,-0.93989c-0.19131,-0.07743 -1.92391,-1.70776 -2.11876,-1.78665c-2.13668,-0.86496 -4.65071,-2.96726 -6.91609,-3.22289c-2.32911,-0.26281 -5.06339,0.14718 -7.44831,0.13752c0,0 -0.81829,-0.00331 -0.81499,-0.82161c0.0033,-0.81829 0.82161,-0.81499 0.82161,-0.81499c2.46351,0.00996 5.19201,-0.36481 7.60956,-0.12891c2.59554,0.25328 5.3218,1.39802 7.71964,2.36842c3.61253,1.23702 6.35571,4.02606 9.34081,6.36768c0.43392,0.34038 2.56088,1.57553 2.71128,1.67643c0.08558,0.0574 -3.14143,0.57313 -3.14143,0.57313c0,0 4.34876,0.51153 4.40708,0.55251c0.66399,0.46656 0.62853,0.48083 0.77028,0.56452c0.39999,0.23616 1.14643,0.4255 1.24514,0.87939c0.03017,0.13875 -3.27408,0.2597 -3.27408,0.2597c0,0 3.29374,0.49325 3.22466,0.6278c-0.26153,0.50933 -0.98337,0.55652 -1.53323,0.7739c-0.66458,0.98232 -0.89443,1.44905 -0.68327,2.65008l0.00927,0.46188c0,0 -0.0033,0.81829 -0.8216,0.81499c-0.81829,-0.0033 -0.81499,-0.82161 -0.81499,-0.82161z" data-paper-data="{&quot;index&quot;:null}" fill="#000000" stroke="none" stroke-width="0.5" stroke-linecap="butt"/><path d="M311.36127,190.17456c0,0 0.0033,-0.81829 0.8216,-0.81499c0.81829,0.0033 0.81499,0.8216 0.81499,0.8216l-0.01301,0.4618c-0.22086,1.19929 0.00522,1.66786 0.66183,2.65551c0.54807,0.22182 1.26952,0.27484 1.52693,0.78627c0.06799,0.13512 -3.22963,0.60171 -3.22963,0.60171c0,0 3.30316,0.14765 3.27186,0.28616c-0.10238,0.45309 -0.85033,0.63637 -1.25222,0.86928c-0.14242,0.08255 -0.10708,0.09711 -0.77483,0.55829c-0.05865,0.04051 -4.41141,0.51685 -4.41141,0.51685c0,0 3.22271,0.54181 3.13669,0.59852c-0.15121,0.09968 -2.28808,1.3176 -2.72474,1.65444c-3.00394,2.31741 -5.76958,5.08417 -9.392,6.29194c-2.40561,0.95099 -5.14104,2.07363 -7.73855,2.3059c-2.41938,0.21634 -5.14475,-0.18047 -7.60826,-0.19044c0,0 -0.81828,-0.00331 -0.81498,-0.82161c0.0033,-0.81829 0.8216,-0.81498 0.8216,-0.81498c2.38493,0.00965 5.11581,0.44171 7.44698,0.19776c2.26737,-0.2373 4.79834,-2.3192 6.94192,-3.16685c0.19549,-0.07729 1.94121,-1.69357 2.13314,-1.76945c0.25186,-0.30279 0.53262,-0.61891 0.82142,-0.93327c0.15512,-0.16886 2.87659,-0.68548 2.87659,-0.68548c0,0 -2.18948,-0.11583 -1.899,-0.41642c0.18004,-0.18632 0.78181,-0.74284 0.92867,-0.89778c0.24187,-0.25518 4.046,-0.63533 4.046,-0.63533c0,0 -3.38552,-0.22695 -3.02101,-0.63741c0.18403,-0.20724 0.83836,-0.84929 0.83836,-0.84929c0,0 0.25501,-0.35286 0.45863,-0.58696c0.18309,-0.21051 0.46261,-1.13415 0.6132,-1.32811c0.03659,-0.04713 3.69879,-0.46482 3.69879,-0.46482c0,0 -3.50969,-0.26249 -3.55581,-0.54257c-0.02155,-0.13087 0.08756,-0.25123 0.11204,-1.00051c-0.02932,-0.79576 -0.1415,-1.65304 -0.09997,-1.68504c0.11145,-1.00849 0.06007,0.12896 -0.01923,-1.15111c-0.00088,-0.00036 2.93002,1.23859 2.92912,1.23822c-0.08196,-2.51429 1.36953,1.57752 1.66467,-0.25904z" data-paper-data="{&quot;index&quot;:null}" fill="#000000" stroke="none" stroke-width="0.5" stroke-linecap="butt"/><path d="M305.9057,176.9505c-1.09265,0.01023 -3.05414,-0.79487 -3.05414,-0.79487l-2.01558,-0.23931c-1.31833,-0.27047 -2.65217,-0.47249 -3.99078,-0.6114c-2.3474,-0.47839 -4.68323,-1.0359 -6.88053,-2.02878c-2.95929,-1.33717 -6.08224,-3.37607 -9.44864,-3.53475c-2.836,-0.13368 -6.95704,0.58186 -9.57465,1.65143c-2.87833,1.17613 -5.53957,4.36735 -7.8471,6.37131c0,0 -1.54458,1.34139 -2.88596,-0.2032c-1.34138,-1.54458 0.2032,-2.88596 0.2032,-2.88596c2.70758,-2.35136 5.62233,-5.65077 8.97822,-7.06799c3.94481,-1.66593 9.80392,-2.4586 13.94974,-1.47924c4.95259,1.16997 9.10996,4.10979 14.1263,5.13303c1.10251,0.11441 1.7098,0.35447 2.80064,0.55376c0.29914,0.05466 -4.79343,-2.28265 -4.49552,-2.22226l-2.1705,-2.36868c0,0 -0.14811,-0.70461 0.18071,-1.34966c0.14401,-0.28251 0.44565,-0.55334 0.78001,-0.74901c0.28235,-0.16522 0.91524,-0.49737 1.34979,0.00506c0.95224,1.10098 3.28901,2.44796 5.48826,3.14636c0.12783,0.04058 0.30631,0.02788 0.45006,0.12938c0.94807,0.66935 3.66221,1.02873 4.39496,1.27884c1.62489,0.55463 1.13227,0.42587 1.64549,0.65174c1.13137,0.49789 1.51704,1.12595 1.86459,1.33211c1.65232,0.98011 2.714,3.63373 2.76837,3.66769c0.08183,0.0511 0.57028,1.28262 0.79125,2.35986c0.07847,0.38259 0.0872,0.63921 0.09355,0.96156c0.01112,0.56516 0.2274,1.15336 0.27132,1.23925c0.46778,0.91477 1.23878,0.79907 3.49088,1.75356c0.17908,0.07591 2.02455,1.09394 2.29039,1.70491c0.38254,0.87921 0.93768,1.4517 1.08527,3.34579c0.01144,0.14667 0.16651,2.11062 0.12009,3.40181c-0.00705,0.19606 0.02927,1.44108 -0.21021,1.71356c-0.32624,0.37122 -1.50033,-0.23626 -1.79676,-0.37843c-0.28213,-0.13533 -1.22523,0.43262 -1.38003,-0.0367c-0.13067,-0.39614 0.14961,-1.37793 0.15599,-1.4613c0.12367,-1.61735 -0.00536,-1.08395 -0.08259,-2.38973c-0.11471,-1.93966 -0.64222,-2.234 -0.83909,-2.41705c-1.62412,-1.51014 -1.73324,-0.78826 -4.22407,-2.16324c-1.70284,-0.93998 -1.02408,-0.70073 -1.56372,-1.8007c-0.30705,-0.6259 -1.13114,-1.65887 -1.20516,-1.72977c-1.51803,-1.4539 -0.12692,-0.51224 -1.98319,-1.74019c0,0 -0.49895,-0.75937 -1.63083,-0.74876z" data-paper-data="{&quot;index&quot;:null}" fill="url(#color-9)" stroke="none" stroke-width="0.5" stroke-linecap="butt"/></g></g></svg>