<svg version="1.1" xmlns="http://www.w3.org/2000/svg" xmlns:xlink="http://www.w3.org/1999/xlink" width="161.35433" height="153.70002" viewBox="0,0,161.35433,153.70002"><defs><linearGradient x1="104.09657" y1="188.50637" x2="104.09657" y2="254.14518" gradientUnits="userSpaceOnUse" id="color-1"><stop offset="0" stop-color="#dcd0e8"/><stop offset="1" stop-color="#ffffff"/></linearGradient><linearGradient x1="153.12231" y1="152.49911" x2="202.01161" y2="200.90876" gradientUnits="userSpaceOnUse" id="color-2"><stop offset="0" stop-color="#ffffff"/><stop offset="1" stop-color="#dcd0e8"/></linearGradient><linearGradient x1="163.01231" y1="132.53351" x2="213.58626" y2="130.63805" gradientUnits="userSpaceOnUse" id="color-3"><stop offset="0" stop-color="#dcd0e8"/><stop offset="1" stop-color="#ffffff"/></linearGradient><linearGradient x1="164.1165" y1="227.8964" x2="200.37542" y2="121.68599" gradientUnits="userSpaceOnUse" id="color-4"><stop offset="0" stop-color="#f6f3f9"/><stop offset="1" stop-color="#e7def0"/></linearGradient><linearGradient x1="139.63066" y1="147.19215" x2="166.55924" y2="141.74491" gradientUnits="userSpaceOnUse" id="color-5"><stop offset="0" stop-color="#636363"/><stop offset="1" stop-color="#000000"/></linearGradient><linearGradient x1="181.01161" y1="189.71926" x2="213.07638" y2="146.87434" gradientUnits="userSpaceOnUse" id="color-6"><stop offset="0" stop-color="#ffffff"/><stop offset="1" stop-color="#dcd0e8"/></linearGradient><linearGradient x1="85.06612" y1="132.47051" x2="90.78432" y2="166.10679" gradientUnits="userSpaceOnUse" id="color-7"><stop offset="0" stop-color="#000000"/><stop offset="1" stop-color="#636363"/></linearGradient><linearGradient x1="80.7705" y1="150.18664" x2="132.12309" y2="186.61614" gradientUnits="userSpaceOnUse" id="color-8"><stop offset="0" stop-color="#ffffff"/><stop offset="1" stop-color="#e9e0f2"/></linearGradient><linearGradient x1="84.80224" y1="171.99454" x2="85.56467" y2="176.47938" gradientUnits="userSpaceOnUse" id="color-9"><stop offset="0" stop-color="#ffffff"/><stop offset="1" stop-color="#000000"/></linearGradient><linearGradient x1="106.7408" y1="152.19066" x2="109.86362" y2="170.56005" gradientUnits="userSpaceOnUse" id="color-10"><stop offset="0" stop-color="#000000"/><stop offset="1" stop-color="#636363"/></linearGradient><linearGradient x1="131.15" y1="129.85193" x2="136.72649" y2="162.65466" gradientUnits="userSpaceOnUse" id="color-11"><stop offset="0" stop-color="#ffffff"/><stop offset="1" stop-color="#dcd0e8"/></linearGradient><linearGradient x1="138.11319" y1="134.60404" x2="140.31576" y2="147.56022" gradientUnits="userSpaceOnUse" id="color-12"><stop offset="0" stop-color="#000000"/><stop offset="1" stop-color="#000000" stop-opacity="0"/></linearGradient><linearGradient x1="137.82418" y1="147.9838" x2="138.71368" y2="153.2161" gradientUnits="userSpaceOnUse" id="color-13"><stop offset="0" stop-color="#000000"/><stop offset="1" stop-color="#000000" stop-opacity="0"/></linearGradient><linearGradient x1="145.59042" y1="146.91989" x2="147.07293" y2="155.64039" gradientUnits="userSpaceOnUse" id="color-14"><stop offset="0" stop-color="#000000"/><stop offset="1" stop-color="#000000" stop-opacity="0"/></linearGradient><linearGradient x1="146.77143" y1="139.54108" x2="147.87271" y2="146.01918" gradientUnits="userSpaceOnUse" id="color-15"><stop offset="0" stop-color="#000000"/><stop offset="1" stop-color="#000000" stop-opacity="0"/></linearGradient><linearGradient x1="100.1899" y1="218.79073" x2="146.82398" y2="218.79073" gradientUnits="userSpaceOnUse" id="color-16"><stop offset="0" stop-color="#ffffff"/><stop offset="1" stop-color="#eae2f1"/></linearGradient></defs><g transform="translate(-70.37858,-94.12556)"><g data-paper-data="{&quot;isPaintingLayer&quot;:true}" fill-rule="nonzero" stroke-linejoin="miter" stroke-miterlimit="10" stroke-dasharray="" stroke-dashoffset="0" style="mix-blend-mode: normal"><path d="M78.73916,243.90318l-4.82029,-9.18704l9.17942,-7.03344l28.56732,-34.31074l21.19376,-4.86559l-20.83199,48.74587l-15.34364,9.08405z" fill="url(#color-1)" stroke="none" stroke-width="0" stroke-linecap="butt"/><path d="M202.01112,214.27814l-7.33902,-0.41938l-2.59419,-6.09043l-7.21727,-16.1293l-17.23606,7.1678l-12.21181,-6.38419l-10.8642,-15.87069l5.62851,-17.92598l19.21028,-11.7655l21.40144,5.28004l11.49485,12.14704l1.04545,9.85l6.64876,2.98011l-3.79202,24.6838z" fill="url(#color-2)" stroke="none" stroke-width="0" stroke-linecap="butt"/><path d="M185.58907,124.58051l7.94877,-14.24636l5.21145,-16.20859l5.84955,20.7966l-2.85386,17.5688l-13.44143,17.25335l-10.81623,1.1621l-8.01922,-9.3405z" data-paper-data="{&quot;index&quot;:null}" fill="url(#color-3)" stroke="none" stroke-width="0" stroke-linecap="butt"/><path d="M179.13159,185.32418l-49.435,15.56238l-29.39228,-7.43369l7.72124,-37.5356l40.24577,-9.83887l27.47139,-8.84003l28.76671,7.09498z" fill="url(#color-4)" stroke="none" stroke-width="0" stroke-linecap="butt"/><path d="M156.77267,155.9495l-21.27425,-6.68556l16.65526,-6.15721l13.72453,-2.66673z" fill="url(#color-5)" stroke="none" stroke-width="0" stroke-linecap="butt"/><path d="M228.53645,200.51444l-7.32695,0.59417l-3.40733,-5.67568l-11.33405,-13.23761l-16.08621,9.47064l-12.97394,-4.64365l-12.94409,-14.22533l1.33329,-19.85883l19.18501,-12.96721l21.92432,2.28586l13.05652,10.45034l2.39047,9.61255l6.9955,2.03717l2.38392,24.71248z" fill="url(#color-6)" stroke="none" stroke-width="0" stroke-linecap="butt"/><g><path d="M80.69611,167.82178l-10.31753,-10.89535l2.9798,-22.4656l18.37957,-2.26691l12.91463,4.63761l0.07478,23.05953z" fill="url(#color-7)" stroke="none" stroke-width="0" stroke-linecap="butt"/><path d="M81.35642,198.47253l-8.45876,-12.75966l1.14845,-12.14612l9.72393,-4.45529l-3.72996,-13.1747l5.66432,-12.70518l19.76132,-12.02867l22.64612,2.39678l16.42616,13.63342l-2.75267,25.76267l-8.70883,10.01895l-15.16899,12.39198l-16.40407,4.18085z" fill="url(#color-8)" stroke="none" stroke-width="0" stroke-linecap="butt"/><path d="M92.02657,170.38186l3.8308,8.9622l-9.2724,4.26808l-9.41442,-1.09129l0.65402,-9.72463z" data-paper-data="{&quot;index&quot;:null}" fill="#000000" stroke="none" stroke-width="0" stroke-linecap="butt"/><path d="M79.39804,177.52772l-0.01496,-4.61191l10.83835,-1.84253l0.01496,4.61191z" fill="url(#color-9)" stroke="none" stroke-width="0" stroke-linecap="butt"/><path d="M105.70308,171.26735l-7.59256,-9.37457l7.76858,-9.55563l11.51704,2.06349l0.47718,12.27898z" data-paper-data="{&quot;index&quot;:null}" fill="url(#color-10)" stroke="none" stroke-width="0" stroke-linecap="butt"/><path d="M93.19736,163.02838l-2.6889,4.00583l-4.98332,0.4605l-1.77943,-5.72443l4.89599,-2.92527z" data-paper-data="{&quot;index&quot;:null}" fill="#000000" stroke="none" stroke-width="0" stroke-linecap="butt"/><path d="M122.13565,161.28975l-7.5495,-21.78882l10.65663,-8.64475l20.63008,-4.10842l8.44975,20.26619l-6.885,13.8198z" data-paper-data="{&quot;index&quot;:null}" fill="url(#color-11)" stroke="none" stroke-width="0" stroke-linecap="butt"/><path d="M87.88807,188.26143l-1.6843,-6.89171" fill="none" stroke="#000000" stroke-width="1.5" stroke-linecap="round"/><path d="M134.48298,142.65558l3.75479,-8.07271l5.62348,4.42753l-3.91924,8.61339z" data-paper-data="{&quot;index&quot;:null}" fill="url(#color-12)" stroke="none" stroke-width="0" stroke-linecap="butt"/><path d="M135.59922,153.74557l1.35293,-5.61353l4.87602,4.5546z" fill="url(#color-13)" stroke="none" stroke-width="0" stroke-linecap="butt"/><path d="M142.87711,155.84098l-0.51825,-6.06449l4.49954,0.56139l2.84313,-4.11687l0.4625,6.1005l-2.4682,3.21302z" fill="url(#color-14)" stroke="none" stroke-width="0" stroke-linecap="butt"/><path d="M144.63365,146.56981l3.6327,-7.28288l2.54888,4.4375z" fill="url(#color-15)" stroke="none" stroke-width="0" stroke-linecap="butt"/></g><path d="M141.02601,247.17432l-31.60876,0.65126l-10.04907,-8.89757l13.88826,-13.88908l17.30934,-39.82224l16.2582,-4.33314l1.29897,48.73985z" fill="url(#color-16)" stroke="none" stroke-width="0" stroke-linecap="butt"/></g></g></svg>