<svg version="1.1" xmlns="http://www.w3.org/2000/svg" xmlns:xlink="http://www.w3.org/1999/xlink" width="79.49276" height="81.42784" viewBox="0,0,79.49276,81.42784"><defs><linearGradient x1="227.68879" y1="171.90642" x2="232.76345" y2="171.90642" gradientUnits="userSpaceOnUse" id="color-1"><stop offset="0" stop-color="#ff0000"/><stop offset="1" stop-color="#ff2929" stop-opacity="0.60784"/></linearGradient><linearGradient x1="221.81669" y1="186.65918" x2="233.4884" y2="186.65918" gradientUnits="userSpaceOnUse" id="color-2"><stop offset="0" stop-color="#ff0000"/><stop offset="1" stop-color="#ff2929" stop-opacity="0.60784"/></linearGradient><linearGradient x1="237.40313" y1="190.68265" x2="240.8829" y2="190.68265" gradientUnits="userSpaceOnUse" id="color-3"><stop offset="0" stop-color="#ff0000"/><stop offset="1" stop-color="#ff2929" stop-opacity="0.60784"/></linearGradient><linearGradient x1="238.92553" y1="163.60573" x2="242.62278" y2="163.60573" gradientUnits="userSpaceOnUse" id="color-4"><stop offset="0" stop-color="#ff0000"/><stop offset="1" stop-color="#ff2929" stop-opacity="0.60784"/></linearGradient><linearGradient x1="240.44793" y1="178.39476" x2="246.03005" y2="178.39476" gradientUnits="userSpaceOnUse" id="color-5"><stop offset="0" stop-color="#ff0000"/><stop offset="1" stop-color="#ff2929" stop-opacity="0.60784"/></linearGradient><linearGradient x1="252.04714" y1="193.72749" x2="254.94694" y2="193.72749" gradientUnits="userSpaceOnUse" id="color-6"><stop offset="0" stop-color="#ff0000"/><stop offset="1" stop-color="#ff2929" stop-opacity="0.60784"/></linearGradient><linearGradient x1="252.04714" y1="169.51412" x2="258.71669" y2="169.51412" gradientUnits="userSpaceOnUse" id="color-7"><stop offset="0" stop-color="#ff0000"/><stop offset="1" stop-color="#ff2929" stop-opacity="0.60784"/></linearGradient><linearGradient x1="223.33908" y1="165.5631" x2="225.87641" y2="165.5631" gradientUnits="userSpaceOnUse" id="color-8"><stop offset="0" stop-color="#ff0000"/><stop offset="1" stop-color="#ff2929" stop-opacity="0.60784"/></linearGradient><linearGradient x1="229.28368" y1="197.09847" x2="233.70588" y2="197.09847" gradientUnits="userSpaceOnUse" id="color-9"><stop offset="0" stop-color="#ff0000"/><stop offset="1" stop-color="#ff2929" stop-opacity="0.60784"/></linearGradient><radialGradient cx="250.11667" cy="179.7334" r="23.93534" gradientUnits="userSpaceOnUse" id="color-10"><stop offset="0" stop-color="#ff8585" stop-opacity="0.52549"/><stop offset="1" stop-color="#ff0000" stop-opacity="0.79608"/></radialGradient><linearGradient x1="216.06467" y1="180.00006" x2="263.93535" y2="180.00006" gradientUnits="userSpaceOnUse" id="color-11"><stop offset="0" stop-color="#9f0000"/><stop offset="1" stop-color="#ff0000"/></linearGradient><linearGradient x1="222.51667" y1="208.53337" x2="230.31667" y2="208.53337" gradientUnits="userSpaceOnUse" id="color-12"><stop offset="0" stop-color="#8a0000"/><stop offset="1" stop-color="#ff0000"/></linearGradient><linearGradient x1="245.01667" y1="193.7334" x2="245.01667" y2="219.53338" gradientUnits="userSpaceOnUse" id="color-13"><stop offset="0" stop-color="#ff0000"/><stop offset="1" stop-color="#8a0000"/></linearGradient><linearGradient x1="255.91667" y1="201.93335" x2="255.91667" y2="209.13337" gradientUnits="userSpaceOnUse" id="color-14"><stop offset="0" stop-color="#ff0000"/><stop offset="1" stop-color="#8a0000"/></linearGradient><linearGradient x1="256.31667" y1="144.33334" x2="256.31667" y2="158.13333" gradientUnits="userSpaceOnUse" id="color-15"><stop offset="0" stop-color="#8a0000"/><stop offset="1" stop-color="#ff0000"/></linearGradient><linearGradient x1="245.51667" y1="149.53337" x2="245.51667" y2="155.73335" gradientUnits="userSpaceOnUse" id="color-16"><stop offset="0" stop-color="#8a0000"/><stop offset="1" stop-color="#ff0000"/></linearGradient><linearGradient x1="229.11667" y1="154.43335" x2="233.31667" y2="154.43335" gradientUnits="userSpaceOnUse" id="color-17"><stop offset="0" stop-color="#8a0000"/><stop offset="1" stop-color="#ff0000"/></linearGradient><linearGradient x1="208.91667" y1="156.33335" x2="222.51667" y2="156.33335" gradientUnits="userSpaceOnUse" id="color-18"><stop offset="0" stop-color="#8a0000"/><stop offset="1" stop-color="#ff0000"/></linearGradient><linearGradient x1="212.71667" y1="166.13339" x2="218.71667" y2="166.13339" gradientUnits="userSpaceOnUse" id="color-19"><stop offset="0" stop-color="#8a0000"/><stop offset="1" stop-color="#ff0000"/></linearGradient><linearGradient x1="205.51667" y1="177.83335" x2="215.31667" y2="177.83335" gradientUnits="userSpaceOnUse" id="color-20"><stop offset="0" stop-color="#8a0000"/><stop offset="1" stop-color="#ff0000"/></linearGradient><linearGradient x1="202.31667" y1="190.8334" x2="223.11667" y2="190.8334" gradientUnits="userSpaceOnUse" id="color-21"><stop offset="0" stop-color="#8a0000"/><stop offset="1" stop-color="#ff0000"/></linearGradient><linearGradient x1="219.11667" y1="196.7334" x2="226.71667" y2="196.7334" gradientUnits="userSpaceOnUse" id="color-22"><stop offset="0" stop-color="#8a0000"/><stop offset="1" stop-color="#ff0000" stop-opacity="0.5098"/></linearGradient></defs><g transform="translate(-200.25362,-139.73053)"><g data-paper-data="{&quot;isPaintingLayer&quot;:true}" fill-rule="nonzero" stroke-linejoin="miter" stroke-miterlimit="10" stroke-dasharray="" stroke-dashoffset="0" style="mix-blend-mode: normal"><path d="M279.74638,219.86959h-79.49276v-80.13905h79.49276z" fill="none" stroke="none" stroke-width="NaN" stroke-linecap="butt"/><g data-paper-data="{&quot;index&quot;:null}" fill="none" stroke-width="3" stroke-linecap="round"><path d="M232.76345,169.36913l-5.07466,5.07466" stroke="url(#color-1)"/><path d="M231.45853,182.85321l-9.64184,9.64184" stroke="url(#color-2)"/><path d="M240.8829,188.94277l-3.47976,3.47976" stroke="url(#color-3)"/><path d="M242.62278,165.45434l-3.69725,-3.69725" stroke="url(#color-4)"/><path d="M246.03005,181.18582l-5.58212,-5.58212" stroke="url(#color-5)"/><path d="M254.94695,192.27755l-2.89981,2.8998" data-paper-data="{&quot;index&quot;:null}" stroke="url(#color-6)"/><path d="M258.71669,172.84889l-6.66955,-6.66955" stroke="url(#color-7)"/><path d="M225.65893,166.61431l-2.10236,-2.10236" stroke="url(#color-8)"/><path d="M229.28368,194.88742l4.4222,4.4222" stroke="url(#color-9)"/></g><path d="M216.06467,180.00006c0,-13.21912 10.71622,-23.93534 23.93534,-23.93534c13.21912,0 23.93534,10.71622 23.93534,23.93534c0,13.21912 -10.71622,23.93534 -23.93534,23.93534c-13.21912,0 -23.93534,-10.71622 -23.93534,-23.93534z" fill="url(#color-10)" stroke="url(#color-11)" stroke-width="4" stroke-linecap="butt"/><path d="M246.16394,190.67261c0,-2.44128 1.97905,-4.42033 4.42033,-4.42033c2.44128,0 4.42033,1.97905 4.42033,4.42033c0,2.44128 -1.97905,4.42033 -4.42033,4.42033c-2.44128,0 -4.42033,-1.97905 -4.42033,-4.42033z" fill="#000000" stroke="#000000" stroke-width="0" stroke-linecap="butt"/><path d="M246.21316,169.32742c0,-2.44128 1.97905,-4.42033 4.42033,-4.42033c2.44128,0 4.42033,1.97905 4.42033,4.42033c0,2.44128 -1.97905,4.42033 -4.42033,4.42033c-2.44128,0 -4.42033,-1.97905 -4.42033,-4.42033z" fill="#000000" stroke="#000000" stroke-width="0" stroke-linecap="butt"/><path d="M258.36436,188.50078v-17.65348" fill="none" stroke="#000000" stroke-width="2" stroke-linecap="round"/><g fill="none" stroke-width="3.25" stroke-linecap="round"><path d="M222.51667,216.53337l7.8,-16" stroke="url(#color-12)"/><path d="M243.70204,202.83439l3.81463,16.69899" stroke="url(#color-13)"/><path d="M253.51667,201.93335l4.8,7.2" stroke="url(#color-14)"/><path d="M259.51667,144.33334l-6.4,13.8" stroke="url(#color-15)"/><path d="M243.86463,159.31193l2.45204,-9.77856" stroke="url(#color-16)"/><path d="M233.31667,160.93335l-4.2,-13" stroke="url(#color-17)"/><path d="M208.91667,150.33335l16.66734,14.04489" stroke="url(#color-18)"/><path d="M221.4432,169.43744l-8.72653,-4.90408" stroke="url(#color-19)"/><path d="M205.51667,177.73338l12.52652,0.37041" stroke="url(#color-20)"/><path d="M223.11667,186.53337l-20.8,8.6" stroke="url(#color-21)"/><path d="M225.183,194.8895l-6.06633,6.24389" stroke="url(#color-22)"/></g><path d="M258.11667,197.93335c0,0 -1.4,-13.18435 -1.4,-18.2c0,-4.91566 1.8,-18 1.8,-18c0,0 5.99824,-0.74962 6,18.6c0.00149,16.42976 -6.4,17.6 -6.4,17.6z" fill="#ffffff" stroke="#dbc7c7" stroke-width="2" stroke-linecap="butt"/><path d="M251.11667,203.33334l7.4,-6" fill="none" stroke="#dbc7c7" stroke-width="1.5" stroke-linecap="round"/><path d="M257.71667,161.53338l-6.8,-4.4" fill="none" stroke="#dbc7c7" stroke-width="1.5" stroke-linecap="round"/></g></g></svg>