<svg version="1.1" xmlns="http://www.w3.org/2000/svg" xmlns:xlink="http://www.w3.org/1999/xlink" width="37.6" height="43.6" viewBox="0,0,37.6,43.6"><g transform="translate(-221.20002,-158.2)"><g data-paper-data="{&quot;isPaintingLayer&quot;:true}" fill-rule="nonzero" stroke="none" stroke-linecap="butt" stroke-linejoin="miter" stroke-miterlimit="10" stroke-dasharray="" stroke-dashoffset="0" style="mix-blend-mode: normal"><path d="M221.20003,201.8v-43.6h37.6v43.6z" fill="none" stroke-width="0"/><path d="M227.60606,191.69239v-23.30346c0,-0.94895 0.30502,-1.72166 0.91506,-2.31814c0.61004,-0.59648 1.37598,-0.89472 2.29781,-0.89472h6.91377c2.3317,0 4.40583,0.35924 6.22239,1.07773c1.83011,0.71849 3.36877,1.742 4.61596,3.07053c1.26075,1.31497 2.20969,2.91463 2.84684,4.79897c0.65071,1.87078 0.97606,3.96525 0.97606,6.28339c0,2.16902 -0.33891,4.14148 -1.01673,5.91737c-0.66426,1.77589 -1.62677,3.30099 -2.88751,4.57529c-1.26075,1.26075 -2.77906,2.23003 -4.55495,2.90785c-1.77589,0.67782 -3.70768,1.01673 -5.79536,1.01673h-7.23912c-0.51514,0 -1.02351,-0.10167 -1.5251,-0.30502c-0.48803,-0.20335 -0.90828,-0.53548 -1.26075,-0.9964c-0.33891,-0.47447 -0.50836,-1.08451 -0.50836,-1.83011zM233.84879,170.91041v18.15881h4.20926c1.74878,0 3.20609,-0.38636 4.37194,-1.15907c1.16585,-0.78627 2.03346,-1.84367 2.60283,-3.1722c0.56937,-1.34209 0.85405,-2.88074 0.85405,-4.61596c0,-1.78945 -0.29146,-3.38232 -0.87439,-4.77863c-0.58292,-1.39631 -1.4912,-2.48082 -2.72484,-3.25354c-1.23363,-0.78627 -2.77906,-1.17941 -4.63629,-1.17941z" fill="#ff0000" stroke-width="0.40889"/></g></g></svg>