<svg version="1.1" xmlns="http://www.w3.org/2000/svg" xmlns:xlink="http://www.w3.org/1999/xlink" width="73.15624" height="72.89324" viewBox="0,0,73.15624,72.89324"><defs><linearGradient x1="222.76622" y1="211.70441" x2="269.55745" y2="163.79042" gradientUnits="userSpaceOnUse" id="color-1"><stop offset="0" stop-color="#929292"/><stop offset="1" stop-color="#000000"/></linearGradient><linearGradient x1="259.71353" y1="198.28693" x2="238.36787" y2="178.59701" gradientUnits="userSpaceOnUse" id="color-2"><stop offset="0" stop-color="#c40000"/><stop offset="1" stop-color="#ff4141"/></linearGradient><linearGradient x1="204.71773" y1="198.75526" x2="257.21566" y2="144.99763" gradientUnits="userSpaceOnUse" id="color-3"><stop offset="0" stop-color="#929292"/><stop offset="1" stop-color="#000000"/></linearGradient><linearGradient x1="233.42377" y1="174.4507" x2="219.75263" y2="161.32994" gradientUnits="userSpaceOnUse" id="color-4"><stop offset="0" stop-color="#da0000"/><stop offset="1" stop-color="#ff4343"/></linearGradient><linearGradient x1="233.80056" y1="176.87827" x2="224.73149" y2="168.02172" gradientUnits="userSpaceOnUse" id="color-5"><stop offset="0" stop-color="#000000" stop-opacity="0.38824"/><stop offset="1" stop-color="#000000" stop-opacity="0"/></linearGradient><linearGradient x1="228.6277" y1="164.02673" x2="223.38433" y2="158.43615" gradientUnits="userSpaceOnUse" id="color-6"><stop offset="0" stop-color="#ffffff" stop-opacity="0"/><stop offset="1" stop-color="#ffffff" stop-opacity="0.80784"/></linearGradient></defs><g transform="translate(-202.30043,-142.43194)"><g data-paper-data="{&quot;isPaintingLayer&quot;:true}" fill-rule="nonzero" stroke="none" stroke-width="0" stroke-linecap="butt" stroke-linejoin="miter" stroke-miterlimit="10" stroke-dasharray="" stroke-dashoffset="0" style="mix-blend-mode: normal"><g><path d="M206.39976,195.72148l46.37511,-48.32039l22.6296,33.03913c0,0 1.42429,9.30888 -10.60461,21.79498c-10.59368,10.99629 -22.87594,13.08997 -22.87594,13.08997z" data-paper-data="{&quot;index&quot;:null}" fill="url(#color-1)"/><path d="M274.79743,170.92795l-6.01788,17.53059l-20.90089,21.96809l-15.49005,3.92776l-10.60751,-17.77583l4.5464,-4.65549l9.87271,12.93776l12.1276,-5.57226l11.39597,-11.6415l5.45264,-12.86695l-13.12754,-8.35175l4.73617,-4.84981z" fill="url(#color-2)"/><path d="M256.99342,144.78105c6.62667,6.35423 0.34609,23.63633 -14.02806,38.60072c-14.37416,14.96437 -31.39871,21.94429 -38.02539,15.59008c-6.62667,-6.35423 -0.34608,-23.63635 14.02807,-38.60072c14.37416,-14.96437 31.3987,-21.94427 38.02539,-15.59006z" data-paper-data="{&quot;index&quot;:null}" fill="url(#color-3)"/><path d="M247.06111,146.55864c3.77518,3.62319 -2.33046,16.1109 -13.63733,27.89206c-11.30687,11.78117 -23.53329,18.3945 -27.30848,14.7713c-3.77518,-3.62319 2.33047,-16.11089 13.63734,-27.89206c11.30687,-11.78117 23.53329,-18.3945 27.30848,-14.7713z" data-paper-data="{&quot;index&quot;:null}" fill="url(#color-4)"/><path d="M251.57304,150.61347l-13.46642,20.13611l-14.06265,13.05994c0,0 -7.72735,5.61384 -11.68675,6.49005c-5.90227,1.30615 -7.55088,-1.82078 -7.55088,-1.82078l42.2725,-43.34067z" fill="url(#color-5)"/><path d="M223.13571,157.92304c7.1252,-6.6827 14.41717,-11.01437 15.86509,-9.47057c1.44792,1.5438 -3.24788,8.89156 -10.37308,15.57426c-7.1252,6.6827 -15.52627,11.3406 -16.97419,9.79679c-1.44792,-1.5438 4.35699,-9.21778 11.4822,-15.90048z" fill="url(#color-6)"/></g></g></g></svg>