<svg version="1.1" xmlns="http://www.w3.org/2000/svg" xmlns:xlink="http://www.w3.org/1999/xlink" width="73.56697" height="73.56697" viewBox="0,0,73.56697,73.56697"><defs><radialGradient cx="240.00003" cy="180.00001" r="36.7832" gradientUnits="userSpaceOnUse" id="color-1"><stop offset="0" stop-color="#000000"/><stop offset="1" stop-color="#000000" stop-opacity="0"/></radialGradient><linearGradient x1="215.56121" y1="206.95245" x2="260.71178" y2="206.95245" gradientUnits="userSpaceOnUse" id="color-2"><stop offset="0" stop-color="#590000"/><stop offset="1" stop-color="#ff0000"/></linearGradient><linearGradient x1="215.56121" y1="153.34544" x2="260.71178" y2="153.34544" gradientUnits="userSpaceOnUse" id="color-3"><stop offset="0" stop-color="#590000"/><stop offset="1" stop-color="#ff0000"/></linearGradient><linearGradient x1="215.51396" y1="180.19103" x2="264.5669" y2="180.19103" gradientUnits="userSpaceOnUse" id="color-4"><stop offset="0" stop-color="#ca0000"/><stop offset="1" stop-color="#ff5e5e"/></linearGradient></defs><g transform="translate(-203.21652,-143.21652)"><g data-paper-data="{&quot;isPaintingLayer&quot;:true}" fill-rule="nonzero" stroke-linejoin="miter" stroke-miterlimit="10" stroke-dasharray="" stroke-dashoffset="0" style="mix-blend-mode: normal"><path d="M203.23123,178.96999c0.56886,-20.30684 17.49197,-36.30762 37.79879,-35.73876c20.30684,0.56886 36.30762,17.49197 35.73876,37.79879c-0.56887,20.30684 -17.49197,36.30762 -37.79879,35.73876c-20.30684,-0.56886 -36.30762,-17.49197 -35.73876,-37.79879z" fill="url(#color-1)" stroke="#000000" stroke-width="0" stroke-linecap="butt"/><path d="M252.73903,199.90774c0,0 1.54156,3.95435 2.86885,5.84948c1.33029,1.89941 5.10388,5.53411 5.10388,5.53411c0,0 -12.04718,5.2144 -19.271,5.22122c-3.29656,0.00312 -9.80651,-0.07242 -14.64393,-1.14374c-6.58559,-1.45847 -11.23564,-4.03485 -11.23564,-4.03485c0,0 4.37417,-3.45245 6.67782,-5.5744c2.68336,-2.47171 8.45764,-8.36727 8.45764,-8.36727z" fill="url(#color-2)" stroke="none" stroke-width="0" stroke-linecap="butt"/><path d="M230.69667,162.90561c0,0 -5.77429,-5.89556 -8.45764,-8.36728c-2.30365,-2.12195 -6.67782,-5.5744 -6.67782,-5.5744c0,0 4.65004,-2.57637 11.23564,-4.03484c4.83742,-1.07132 11.34738,-1.14684 14.64394,-1.14372c7.22383,0.00681 19.271,5.2212 19.271,5.2212c0,0 -3.7736,3.63471 -5.10388,5.53411c-1.3273,1.89513 -2.86886,5.84947 -2.86886,5.84947z" fill="url(#color-3)" stroke="none" stroke-width="0.5" stroke-linecap="butt"/><path d="M240.78148,202.54308c0,0 -2.99287,5.51345 -4.46945,7.69911c-1.45057,2.14714 -4.22811,5.30133 -4.22811,5.30133" fill="none" stroke="#ffffff" stroke-width="1.5" stroke-linecap="round"/><path d="M232.08392,144.75439c0,0 2.77754,3.1542 4.22811,5.30133c1.47657,2.18565 4.46945,7.69911 4.46945,7.69911" fill="none" stroke="#ffffff" stroke-width="1.5" stroke-linecap="round"/><path d="M253.23093,214.02946c0,0 -2.77754,-3.01927 -4.22811,-5.07456c-1.47658,-2.09215 -4.46945,-7.36976 -4.46945,-7.36976" data-paper-data="{&quot;index&quot;:null}" fill="none" stroke="#ffffff" stroke-width="1.5" stroke-linecap="round"/><path d="M244.53336,158.71277c0,0 2.99287,-5.27761 4.46945,-7.36976c1.45057,-2.0553 4.22811,-5.07456 4.22811,-5.07456" data-paper-data="{&quot;index&quot;:null}" fill="none" stroke="#ffffff" stroke-width="1.5" stroke-linecap="round"/><path d="M240.04043,204.71751c-13.54559,0 -24.52647,-10.98088 -24.52647,-24.52647c0,-13.54559 10.98088,-24.52648 24.52647,-24.52648c13.54559,0 24.52647,10.98089 24.52647,24.52648c0,13.54559 -10.98088,24.52647 -24.52647,24.52647z" fill="url(#color-4)" stroke="#ff56c0" stroke-width="0" stroke-linecap="butt"/><g><path d="M245.39491,191.43594c0,-2.53966 2.05879,-4.59846 4.59846,-4.59846c2.53966,0 4.59846,2.05879 4.59846,4.59846c0,2.53966 -2.0588,4.59846 -4.59846,4.59846c-2.53966,0 -4.59846,-2.0588 -4.59846,-4.59846z" fill="#ffffff" stroke="#000000" stroke-width="0" stroke-linecap="butt"/><path d="M245.44613,169.23061c0,-2.53966 2.0588,-4.59846 4.59846,-4.59846c2.53966,0 4.59846,2.0588 4.59846,4.59846c0,2.53966 -2.0588,4.59846 -4.59846,4.59846c-2.53966,0 -4.59846,-2.05879 -4.59846,-4.59846z" fill="#ffffff" stroke="#000000" stroke-width="0" stroke-linecap="butt"/><path d="M256.91665,191.7773v-23.17622" fill="none" stroke="#ffffff" stroke-width="2" stroke-linecap="round"/></g></g></g></svg>