<svg version="1.1" xmlns="http://www.w3.org/2000/svg" xmlns:xlink="http://www.w3.org/1999/xlink" width="81.5493" height="65.16798" viewBox="0,0,81.5493,65.16798"><defs><radialGradient cx="240.00001" cy="180" r="32.58399" gradientUnits="userSpaceOnUse" id="color-1"><stop offset="0" stop-color="#ffffff"/><stop offset="1" stop-color="#ffffff" stop-opacity="0"/></radialGradient><linearGradient x1="191.03469" y1="179.494" x2="231.17147" y2="179.494" gradientUnits="userSpaceOnUse" id="color-2"><stop offset="0" stop-color="#ffffff" stop-opacity="0"/><stop offset="1" stop-color="#ffffff"/></linearGradient><radialGradient cx="242.58385" cy="180.00002" r="11.15284" gradientUnits="userSpaceOnUse" id="color-3"><stop offset="0" stop-color="#737373"/><stop offset="1" stop-color="#737373" stop-opacity="0"/></radialGradient><radialGradient cx="240.00006" cy="180" r="18.77912" gradientUnits="userSpaceOnUse" id="color-4"><stop offset="0" stop-color="#737373"/><stop offset="1" stop-color="#737373" stop-opacity="0"/></radialGradient><radialGradient cx="240.00007" cy="180" r="23.16423" gradientUnits="userSpaceOnUse" id="color-5"><stop offset="0" stop-color="#737373"/><stop offset="1" stop-color="#737373" stop-opacity="0"/></radialGradient><linearGradient x1="224.28015" y1="179.99998" x2="255.71989" y2="179.99998" gradientUnits="userSpaceOnUse" id="color-6"><stop offset="0" stop-color="#ff0000"/><stop offset="1" stop-color="#ff8e8e"/></linearGradient></defs><g transform="translate(-191.03469,-147.41601)"><g data-paper-data="{&quot;isPaintingLayer&quot;:true}" fill-rule="nonzero" stroke-width="0" stroke-linecap="butt" stroke-linejoin="miter" stroke-miterlimit="10" stroke-dasharray="" stroke-dashoffset="0" style="mix-blend-mode: normal"><path d="M207.41602,180c0,-17.99564 14.58835,-32.58399 32.58399,-32.58399c17.99564,0 32.58399,14.58834 32.58399,32.58399c0,17.99564 -14.58834,32.58399 -32.58399,32.58399c-17.99564,0 -32.58399,-14.58835 -32.58399,-32.58399z" fill="url(#color-1)" stroke="#f83535"/><path d="M191.03469,180.68534l40.10028,-9.07967l0.03647,17.27922z" fill="url(#color-2)" stroke="none"/><path d="M231.43098,180.00002c0,-6.15954 4.9933,-11.15284 11.15284,-11.15284c6.15954,0 11.15284,4.9933 11.15284,11.15284c0,6.15954 -4.9933,11.15284 -11.15284,11.15284c-6.15954,0 -11.15284,-4.9933 -11.15284,-11.15284z" fill="url(#color-3)" stroke="none"/><path d="M221.22089,180c0,-10.37142 8.4077,-18.77911 18.77912,-18.77911c10.37142,0 18.77911,8.4077 18.77911,18.77911c0,10.37142 -8.4077,18.77912 -18.77911,18.77912c-10.37142,0 -18.77912,-8.4077 -18.77912,-18.77912z" fill="url(#color-4)" stroke="none"/><path d="M216.83577,180c0,-12.79325 10.37098,-23.16421 23.16423,-23.16421c12.79325,0 23.16421,10.37098 23.16421,23.16421c0,12.79325 -10.37098,23.16423 -23.16421,23.16423c-12.79325,0 -23.16423,-10.37097 -23.16423,-23.16423z" fill="url(#color-5)" stroke="none"/><path d="M224.28015,179.99998c0,-8.68183 7.03802,-15.71983 15.71983,-15.71983c8.68183,0 15.71987,7.03802 15.71987,15.71983c0,8.68183 -7.03802,15.71987 -15.71987,15.71987c-8.68183,0 -15.71983,-7.03802 -15.71983,-15.71987z" fill="url(#color-6)" stroke="#000000"/></g></g></svg>