<svg version="1.1" xmlns="http://www.w3.org/2000/svg" xmlns:xlink="http://www.w3.org/1999/xlink" width="258.45158" height="151.59582" viewBox="0,0,258.45158,151.59582"><defs><linearGradient x1="111.77427" y1="164.00007" x2="370.22584" y2="164.00007" gradientUnits="userSpaceOnUse" id="color-1"><stop offset="0" stop-color="#ff0000" stop-opacity="0.70196"/><stop offset="1" stop-color="#00b3ff" stop-opacity="0.70196"/></linearGradient><linearGradient x1="276.71774" y1="98.1482" x2="283.78227" y2="123.41701" gradientUnits="userSpaceOnUse" id="color-2"><stop offset="0" stop-color="#ffffff"/><stop offset="1" stop-color="#ffffff" stop-opacity="0.50196"/></linearGradient><linearGradient x1="161.46675" y1="154.80193" x2="153.3983" y2="195.00019" gradientUnits="userSpaceOnUse" id="color-3"><stop offset="0" stop-color="#ffffff" stop-opacity="0.50196"/><stop offset="1" stop-color="#ffffff"/></linearGradient><linearGradient x1="174.75217" y1="192.20183" x2="171.60351" y2="207.88896" gradientUnits="userSpaceOnUse" id="color-4"><stop offset="0" stop-color="#ffffff"/><stop offset="1" stop-color="#ffffff" stop-opacity="0.50196"/></linearGradient></defs><g transform="translate(-111.77428,-88.20216)"><g data-paper-data="{&quot;isPaintingLayer&quot;:true}" fill-rule="nonzero" stroke-linecap="butt" stroke-linejoin="miter" stroke-miterlimit="10" stroke-dasharray="" stroke-dashoffset="0" style="mix-blend-mode: normal"><path d="M370.22584,164.00007c0,41.86203 -57.85636,75.79791 -129.22578,75.79791c-71.36943,0 -129.22578,-33.93588 -129.22578,-75.79791c0,-41.86203 57.85636,-75.79791 129.22579,-75.79791c71.36943,0 129.22579,33.93588 129.22579,75.79791z" fill="url(#color-1)" stroke="#000000" stroke-width="0"/><text transform="translate(138.17338,143.42812) rotate(4.37445) scale(0.79392,0.79392)" font-size="40" xml:space="preserve" data-paper-data="{&quot;index&quot;:null}" fill="#ffffff" fill-rule="nonzero" stroke="none" stroke-width="1" stroke-linecap="butt" stroke-linejoin="miter" stroke-miterlimit="10" stroke-dasharray="" stroke-dashoffset="0" font-family="Sans Serif" font-weight="normal" text-anchor="start" style="mix-blend-mode: normal"><tspan x="0" dy="0">Balloon Battle</tspan></text><text transform="translate(186.73448,197.05399) rotate(3.20859) scale(1.20775,1.20775)" font-size="40" xml:space="preserve" data-paper-data="{&quot;index&quot;:null}" fill="#ffffff" fill-rule="nonzero" stroke="none" stroke-width="1" stroke-linecap="butt" stroke-linejoin="miter" stroke-miterlimit="10" stroke-dasharray="" stroke-dashoffset="0" font-family="Sans Serif" font-weight="normal" text-anchor="start" style="mix-blend-mode: normal"><tspan x="0" dy="0">Offline</tspan></text><path d="M278.35459,98.91739c22.40376,-3.14778 41.4142,-0.38733 42.46101,6.16565c1.04681,6.55298 -16.26642,14.417 -38.67019,17.56478c-22.40376,3.14778 -41.4142,0.38733 -42.46101,-6.16565c-1.04681,-6.55298 16.26642,-14.417 38.67019,-17.56478z" data-paper-data="{&quot;index&quot;:null}" fill="url(#color-2)" stroke="#8f8f8f" stroke-width="0"/><g fill="#000000" stroke="none" stroke-width="0.40889"><path d="M273.83645,118.4086l-1.78835,-12.70162c-0.08471,-0.60161 0.00117,-1.10838 0.25761,-1.52028c0.25645,-0.4119 0.67796,-0.65915 1.26453,-0.74173l5.73039,-0.80682c0.52641,-0.07412 0.95099,0.02715 1.2737,0.30383c0.32918,0.26809 0.52447,0.62023 0.58589,1.0564c0.04023,0.28577 0.01337,0.55798 -0.08059,0.81662c-0.09502,0.25113 -0.25602,0.46936 -0.48302,0.65471c-0.21947,0.18429 -0.50217,0.30078 -0.8481,0.34949l-4.07219,0.57335l0.47488,3.37281l3.79018,-0.53364c0.54146,-0.07624 0.98053,0.01916 1.31723,0.28619c0.3367,0.26703 0.53681,0.62616 0.60035,1.07737c0.0593,0.42113 -0.0387,0.81456 -0.29397,1.18028c-0.25634,0.3582 -0.64772,0.57435 -1.17413,0.64848l-3.79018,0.53364l0.49394,3.50817l4.27524,-0.60194c0.53394,-0.07518 0.96226,0.02556 1.28498,0.30224c0.32918,0.26809 0.525,0.62398 0.58747,1.06767c0.03494,0.24817 0.00649,0.50909 -0.08536,0.78278c-0.09184,0.27369 -0.25126,0.5032 -0.47825,0.68855c-0.22699,0.18534 -0.51345,0.30237 -0.85938,0.35108l-5.956,0.83859c-0.51137,0.07201 -0.9585,-0.0261 -1.34138,-0.2943c-0.38393,-0.27572 -0.61244,-0.67302 -0.6855,-1.19192z"/><path d="M256.91809,121.03442l-1.8487,-13.13028c-0.07941,-0.56401 0.02033,-1.02671 0.29923,-1.38809c0.2789,-0.36138 0.67028,-0.57754 1.17414,-0.64848c0.24064,-0.03388 0.51819,0.00373 0.83266,0.11284c0.31446,0.10911 0.55744,0.25512 0.72891,0.43806l8.7076,8.73639l0.04506,-0.00635l-1.22929,-8.73095c-0.07941,-0.56401 0.02033,-1.02671 0.29923,-1.38809c0.2789,-0.36138 0.67028,-0.57754 1.17414,-0.64848c0.51889,-0.07306 0.9585,0.0261 1.31882,0.29747c0.36678,0.2628 0.5904,0.67997 0.67087,1.2515l1.8487,13.13028c0.08047,0.57154 -0.01874,1.03799 -0.29764,1.39936c-0.27244,0.3528 -0.66811,0.56572 -1.187,0.63878c-0.21057,0.02965 -0.47256,-0.00632 -0.78595,-0.1079c-0.30695,-0.11017 -0.56549,-0.25783 -0.77561,-0.44299l-8.68044,-8.62518l-0.04506,0.00635l1.21341,8.61815c0.08047,0.57154 -0.01874,1.03799 -0.29764,1.39936c-0.27244,0.3528 -0.66811,0.56572 -1.187,0.63878c-0.50386,0.07094 -0.9397,-0.02875 -1.30755,-0.29906c-0.36783,-0.27032 -0.59146,-0.68748 -0.67087,-1.2515z"/><path d="M287.95799,116.59688l-4.71011,-12.20971c-0.10262,-0.23864 -0.17298,-0.49333 -0.21111,-0.76406c-0.05611,-0.39857 0.04829,-0.77372 0.3132,-1.12546c0.26491,-0.35174 0.63802,-0.56149 1.11931,-0.62926c1.00018,-0.14082 1.69466,0.32509 2.08344,1.39773l3.34453,9.5375l0.04513,-0.00636l1.57592,-10.5409c0.07606,-0.44019 0.25885,-0.80336 0.54833,-1.08955c0.28948,-0.28616 0.6448,-0.4589 1.06593,-0.5182c0.42113,-0.0593 0.81032,0.00861 1.16758,0.20373c0.36477,0.19406 0.64073,0.49266 0.82786,0.89579l4.42521,9.69596l0.04513,-0.00636l0.58101,-10.09021c0.02905,-0.55628 0.17062,-0.99418 0.42474,-1.31374c0.25305,-0.32706 0.65031,-0.52871 1.19176,-0.60494c0.48881,-0.06882 0.90533,0.02975 1.24954,0.29573c0.34422,0.26597 0.54439,0.59825 0.6005,0.99681c0.036,0.25569 0.04245,0.51937 0.01935,0.79106l-1.15565,13.0356c-0.04726,0.53583 -0.24636,1.00101 -0.59728,1.39555c-0.3434,0.39347 -0.82343,0.63362 -1.44009,0.72045c-0.54898,0.07729 -1.0525,-0.01287 -1.51058,-0.27048c-0.45808,-0.25762 -0.79674,-0.62024 -1.01597,-1.08788l-3.92972,-8.5463l-0.04512,0.00635l-1.42842,9.30072c-0.07406,0.50893 -0.29566,0.95044 -0.6648,1.32452c-0.36914,0.37408 -0.83195,0.6003 -1.38845,0.67866c-0.60913,0.08576 -1.13681,-0.0125 -1.58304,-0.2948c-0.4387,-0.28336 -0.75474,-0.676 -0.94812,-1.17795z"/></g><path d="M137.3334,170.86683c2.22804,-11.10045 13.03291,-18.29295 24.13335,-16.06491c11.10045,2.22804 18.29295,13.03291 16.06491,24.13335c-2.22804,11.10045 -13.03291,18.29295 -24.13335,16.06491c-11.10045,-2.22804 -18.29295,-13.03291 -16.06491,-24.13335z" fill="url(#color-3)" stroke="#8f8f8f" stroke-width="0"/><path d="M163.75995,206.31463l3.14866,-15.68713l15.68713,3.14866z" fill="url(#color-4)" stroke="#8f8f8f" stroke-width="0"/><text transform="translate(176.19038,221.38181) rotate(3.40385) scale(0.44421,0.44421)" font-size="40" xml:space="preserve" fill="#ffffff" fill-rule="nonzero" stroke="none" stroke-width="1" stroke-linecap="butt" stroke-linejoin="miter" stroke-miterlimit="10" stroke-dasharray="" stroke-dashoffset="0" font-family="Sans Serif" font-weight="normal" text-anchor="start" style="mix-blend-mode: normal"><tspan x="0" dy="0">Play with Bots</tspan></text></g></g></svg>