<svg version="1.1" xmlns="http://www.w3.org/2000/svg" xmlns:xlink="http://www.w3.org/1999/xlink" width="94.67751" height="151.24987" viewBox="0,0,94.67751,151.24987"><defs><linearGradient x1="290.77916" y1="140.11616" x2="304.51704" y2="167.70243" gradientUnits="userSpaceOnUse" id="color-1"><stop offset="0" stop-color="#ffffff"/><stop offset="1" stop-color="#dcd0e8"/></linearGradient><linearGradient x1="260.5626" y1="165.13238" x2="291.90616" y2="204.94396" gradientUnits="userSpaceOnUse" id="color-2"><stop offset="0" stop-color="#ffffff"/><stop offset="1" stop-color="#dcd0e8"/></linearGradient><linearGradient x1="307.75328" y1="169.72464" x2="277.39161" y2="222.79828" gradientUnits="userSpaceOnUse" id="color-3"><stop offset="0" stop-color="#ffffff"/><stop offset="1" stop-color="#dcd0e8"/></linearGradient><linearGradient x1="248.02366" y1="96.48112" x2="241.39043" y2="133.76754" gradientUnits="userSpaceOnUse" id="color-4"><stop offset="0" stop-color="#000000"/><stop offset="1" stop-color="#636363"/></linearGradient><linearGradient x1="252.44665" y1="146.57062" x2="281.94426" y2="220.88574" gradientUnits="userSpaceOnUse" id="color-5"><stop offset="0" stop-color="#f6f3f9"/><stop offset="1" stop-color="#f5ebff"/></linearGradient><linearGradient x1="314.07949" y1="116.83748" x2="275.00071" y2="116.83748" gradientUnits="userSpaceOnUse" id="color-6"><stop offset="0" stop-color="#ffffff"/><stop offset="1" stop-color="#e9e0f2"/></linearGradient><linearGradient x1="231.35104" y1="117.45578" x2="274.6803" y2="160.22559" gradientUnits="userSpaceOnUse" id="color-7"><stop offset="0" stop-color="#ffffff"/><stop offset="1" stop-color="#e9e0f2"/></linearGradient><linearGradient x1="245.52679" y1="228.12791" x2="301.12188" y2="199.39068" gradientUnits="userSpaceOnUse" id="color-8"><stop offset="0" stop-color="#ffffff"/><stop offset="1" stop-color="#eae2f1"/></linearGradient><linearGradient x1="271.30422" y1="193.69588" x2="306.68638" y2="189.54161" gradientUnits="userSpaceOnUse" id="color-9"><stop offset="0" stop-color="#ffffff"/><stop offset="1" stop-color="#dcd0e8"/></linearGradient><linearGradient x1="263.63145" y1="126.17624" x2="263.63145" y2="144.80918" gradientUnits="userSpaceOnUse" id="color-10"><stop offset="0" stop-color="#000000"/><stop offset="1" stop-color="#636363"/></linearGradient><linearGradient x1="252.96522" y1="144.17657" x2="252.96522" y2="148.47426" gradientUnits="userSpaceOnUse" id="color-11"><stop offset="0" stop-color="#ffffff"/><stop offset="1" stop-color="#000000"/></linearGradient><linearGradient x1="301.11508" y1="103.04571" x2="305.83736" y2="115.31005" gradientUnits="userSpaceOnUse" id="color-12"><stop offset="0" stop-color="#000000"/><stop offset="1" stop-color="#000000" stop-opacity="0"/></linearGradient><linearGradient x1="304.57733" y1="115.79521" x2="306.48441" y2="120.74813" gradientUnits="userSpaceOnUse" id="color-13"><stop offset="0" stop-color="#000000"/><stop offset="1" stop-color="#000000" stop-opacity="0"/></linearGradient><linearGradient x1="308.57423" y1="114.52707" x2="311.75268" y2="122.78192" gradientUnits="userSpaceOnUse" id="color-14"><stop offset="0" stop-color="#000000"/><stop offset="1" stop-color="#000000" stop-opacity="0"/></linearGradient><linearGradient x1="307.22848" y1="107.46228" x2="309.58962" y2="113.59446" gradientUnits="userSpaceOnUse" id="color-15"><stop offset="0" stop-color="#000000"/><stop offset="1" stop-color="#000000" stop-opacity="0"/></linearGradient></defs><g transform="translate(-221.72199,-97.95)"><g data-paper-data="{&quot;isPaintingLayer&quot;:true}" fill-rule="nonzero" stroke-linejoin="miter" stroke-miterlimit="10" stroke-dasharray="" stroke-dashoffset="0" style="mix-blend-mode: normal"><path d="M283.04922,170.41042l-10.07225,-9.36514l19.23155,-7.3827l11.94141,-12.48285l11.36098,-13.59136l-1.92238,17.01237l-6.69885,16.12826l-10.2889,8.71289z" data-paper-data="{&quot;index&quot;:null}" fill="url(#color-1)" stroke="none" stroke-width="0" stroke-linecap="butt"/><path d="M263.13724,226.27139l-2.97831,-8.80885l8.87731,-17.20535l-10.44198,-11.97313l-0.3738,-10.67316l7.15122,-16.26469l15.53504,-10.25115l10.74869,2.18374l5.33958,4.61445l5.47077,11.59455l-4.15533,14.12346l-8.8528,6.90884l3.12682,12.12418l-18.29654,23.3127z" data-paper-data="{&quot;index&quot;:null}" fill="url(#color-2)" stroke="none" stroke-width="0" stroke-linecap="butt"/><path d="M295.79318,233.32521l-4.37971,-4.86011l4.3044,-17.08079l-24.40959,-22.1768l1.98938,-17.68082l13.08096,-10.28472l12.29039,3.28587l7.33811,5.59015l9.91651,13.42727l0.47587,15.51321l-4.81558,7.42438l2.52315,6.19093l-6.83011,16.31159z" data-paper-data="{&quot;index&quot;:null}" fill="url(#color-3)" stroke="none" stroke-width="0" stroke-linecap="butt"/><path d="M226.91329,131.19207l-5.1913,-16.14641l11.87813,-17.09566l23.70069,0.18152l11.62694,10.12585l-15.97523,22.80085z" data-paper-data="{&quot;index&quot;:null}" fill="url(#color-4)" stroke="none" stroke-width="0" stroke-linecap="butt"/><path d="M246.08766,181.74589l-0.57879,-24.5474l6.07441,-7.68175l26.72931,-6.01083l13.13696,10.68181l16.09941,15.49274l-0.62358,19.34954l-43.74458,7.13356z" data-paper-data="{&quot;index&quot;:null}" fill="url(#color-5)" stroke="none" stroke-width="0" stroke-linecap="butt"/><path d="M290.00416,135.27458l-15.00344,-17.51127l6.75115,-11.94643l17.13231,-7.4165l15.1953,12.19615l-0.69752,14.98911z" data-paper-data="{&quot;index&quot;:null}" fill="url(#color-6)" stroke="none" stroke-width="0" stroke-linecap="butt"/><path d="M232.89994,158.94l1.32429,-11.73661l-4.84941,-11.82045l0.14653,-12.77775l8.01663,-10.64383l21.71602,-7.46744l21.75379,3.29926l14.22967,20.62293l-2.41427,19.4038l4.83452,8.56503l-48.92152,14.51128l-10.93925,-4.61543z" data-paper-data="{&quot;index&quot;:null}" fill="url(#color-7)" stroke="none" stroke-width="0" stroke-linecap="butt"/><path d="M238.79075,231.91858l7.02735,-50.13364l20.73088,-4.15068l0.73297,64.0429l-13.35324,7.52271l-13.32544,-1.58603l-5.24362,-5.00141z" data-paper-data="{&quot;index&quot;:null}" fill="url(#color-8)" stroke="none" stroke-width="0" stroke-linecap="butt"/><path d="M265.81754,165.2168l22.43431,6.52221l14.90837,60.7838l4.53511,5.74855l-2.79913,8.67931l-26.74757,-0.05795l-3.814,-11.73312z" data-paper-data="{&quot;index&quot;:null}" fill="url(#color-9)" stroke="none" stroke-width="0" stroke-linecap="butt"/><path d="M259.41122,144.80918l-5.91402,-10.51446l9.26019,-8.11848l11.0083,3.96452l-1.58749,12.18528z" data-paper-data="{&quot;index&quot;:null}" fill="url(#color-10)" stroke="none" stroke-width="0" stroke-linecap="butt"/><path d="M245.11474,135.92813l-3.32223,3.49852l-4.99002,-0.3812l-0.79486,-5.94169l5.31701,-2.06334z" data-paper-data="{&quot;index&quot;:null}" fill="#000000" stroke="none" stroke-width="0" stroke-linecap="butt"/><path d="M261.40381,143.81842l2.5965,8.95352l-11.25149,2.50699l-10.38599,-2.50699l2.5965,-8.95352z" data-paper-data="{&quot;index&quot;:null}" fill="#000000" stroke="none" stroke-width="0" stroke-linecap="butt"/><path d="M245.82484,148.47426l0.8655,-4.29769h12.54974l-0.8655,4.29769z" fill="url(#color-11)" stroke="none" stroke-width="0" stroke-linecap="butt"/><path d="M251.4612,153.00434l0.50546,7.07651" fill="none" stroke="#000000" stroke-width="1.5" stroke-linecap="round"/><path d="M301.29161,110.83151l-0.11353,-7.81006l4.30112,4.03111l0.16915,8.33028z" data-paper-data="{&quot;index&quot;:null}" fill="url(#color-12)" stroke="none" stroke-width="0" stroke-linecap="butt"/><path d="M304.90938,121.35458l-0.77305,-5.38956l3.92311,4.17665z" fill="url(#color-13)" stroke="none" stroke-width="0" stroke-linecap="butt"/><path d="M309.49202,123.11074l-1.92751,-5.7575l2.6345,0.38675l0.45427,-4.01343l1.90649,5.79361l-0.49207,3.14047z" fill="url(#color-14)" stroke="none" stroke-width="0" stroke-linecap="butt"/><path d="M307.95159,114.22517l0.03291,-7.05397l2.60747,4.1416z" fill="url(#color-15)" stroke="none" stroke-width="0" stroke-linecap="butt"/></g></g></svg>