<svg version="1.1" xmlns="http://www.w3.org/2000/svg" xmlns:xlink="http://www.w3.org/1999/xlink" width="84.04023" height="69.68562" viewBox="0,0,84.04023,69.68562"><defs><linearGradient x1="212.66278" y1="179.00001" x2="267.33725" y2="179.00001" gradientUnits="userSpaceOnUse" id="color-1"><stop offset="0" stop-color="#ffe600" stop-opacity="0.90196"/><stop offset="1" stop-color="#fff066" stop-opacity="0.90196"/></linearGradient></defs><g transform="translate(-200.05832,-144.71174)"><g data-paper-data="{&quot;isPaintingLayer&quot;:true}" fill-rule="nonzero" stroke-width="0" stroke-linecap="butt" stroke-linejoin="miter" stroke-miterlimit="10" stroke-dasharray="" stroke-dashoffset="0" style="mix-blend-mode: normal"><path d="M222.12048,203.99534l4.50366,-18.01465l-13.96136,-13.51099l18.67287,-1.94004l8.79946,-16.52498l9.00733,16.66355l18.19481,2.16175l-13.10077,13.18288l4.36366,17.08172l-18.01465,-9.90806z" fill="url(#color-1)" stroke="#696969"/><path d="M284.09855,190.18258c0,11.02959 -8.94125,19.97084 -19.97084,19.97084c-11.02959,0 -19.97084,-8.94125 -19.97084,-19.97084c0,-11.02959 8.94125,-19.97084 19.97084,-19.97084c11.02959,0 19.97084,8.94125 19.97084,19.97084z" data-paper-data="{&quot;index&quot;:null}" fill-opacity="0.50196" fill="#ffe600" stroke="none"/><path d="M262.91742,200.77315c0,5.18058 -4.19969,9.38027 -9.38027,9.38027c-5.18058,0 -9.38027,-4.19969 -9.38027,-9.38027c0,-5.18058 4.19969,-9.38027 9.38027,-9.38027c5.18058,0 9.38027,4.19969 9.38027,9.38027z" data-paper-data="{&quot;index&quot;:null}" fill-opacity="0.50196" fill="#ffe600" stroke="none"/><path d="M250.08036,157.46174c0,7.04163 -5.70837,12.75 -12.75,12.75c-7.04163,0 -12.75,-5.70837 -12.75,-12.75c0,-7.04163 5.70837,-12.75 12.75,-12.75c7.04163,0 12.75,5.70837 12.75,12.75z" data-paper-data="{&quot;index&quot;:null}" fill-opacity="0.50196" fill="#ffe600" stroke="none"/><path d="M213.59546,185.87767c0,3.73818 -3.03039,6.76857 -6.76857,6.76857c-3.73818,0 -6.76857,-3.03039 -6.76857,-6.76857c0,-3.73818 3.03039,-6.76857 6.76857,-6.76857c3.73818,0 6.76857,3.03039 6.76857,6.76857z" data-paper-data="{&quot;index&quot;:null}" fill-opacity="0.50196" fill="#ffe600" stroke="none"/><path d="M244.15688,179.1091c0,10.50976 -8.51984,19.0296 -19.0296,19.0296c-10.50976,0 -19.0296,-8.51984 -19.0296,-19.0296c0,-10.50976 8.51984,-19.0296 19.0296,-19.0296c10.50976,0 19.0296,8.51984 19.0296,19.0296z" data-paper-data="{&quot;index&quot;:null}" fill-opacity="0.50196" fill="#ffe600" stroke="none"/><path d="M237.48931,207.62879c0,3.73818 -3.03039,6.76857 -6.76857,6.76857c-3.73818,0 -6.76857,-3.03039 -6.76857,-6.76857c0,-3.73818 3.03039,-6.76857 6.76857,-6.76857c3.73818,0 6.76857,3.03039 6.76857,6.76857z" data-paper-data="{&quot;index&quot;:null}" fill-opacity="0.50196" fill="#ffe600" stroke="none"/><path d="M268.85454,167.33584c0,1.96575 -1.59356,3.55931 -3.55931,3.55931c-1.96575,0 -3.55931,-1.59356 -3.55931,-3.55931c0,-1.96575 1.59356,-3.55931 3.55931,-3.55931c1.96575,0 3.55931,1.59356 3.55931,3.55931z" data-paper-data="{&quot;index&quot;:null}" fill-opacity="0.50196" fill="#ffe600" stroke="none"/></g></g></svg>