<svg version="1.1" xmlns="http://www.w3.org/2000/svg" xmlns:xlink="http://www.w3.org/1999/xlink" width="224.13135" height="224.13135" viewBox="0,0,224.13135,224.13135"><defs><radialGradient cx="230.7953" cy="183.48436" r="49.81448" gradientUnits="userSpaceOnUse" id="color-1"><stop offset="0" stop-color="#ff0000"/><stop offset="1" stop-color="#ff0000" stop-opacity="0"/></radialGradient><linearGradient x1="230.82564" y1="199.52424" x2="149.54782" y2="202.69732" gradientUnits="userSpaceOnUse" id="color-2"><stop offset="0" stop-color="#000000"/><stop offset="1" stop-color="#ff2e54"/></linearGradient><linearGradient x1="229.95977" y1="162.81307" x2="148.68371" y2="159.59524" gradientUnits="userSpaceOnUse" id="color-3"><stop offset="0" stop-color="#000000"/><stop offset="1" stop-color="#ff2e54"/></linearGradient><linearGradient x1="191.52535" y1="153.96885" x2="207.37916" y2="151.35256" gradientUnits="userSpaceOnUse" id="color-4"><stop offset="0" stop-color="#ff0000"/><stop offset="1" stop-color="#930000"/></linearGradient><linearGradient x1="203.76604" y1="155.78896" x2="216.63126" y2="153.66587" gradientUnits="userSpaceOnUse" id="color-5"><stop offset="0" stop-color="#8e0000"/><stop offset="1" stop-color="#ff0000"/></linearGradient><linearGradient x1="201.85804" y1="162.40653" x2="209.14464" y2="161.20404" gradientUnits="userSpaceOnUse" id="color-6"><stop offset="0" stop-color="#d60000"/><stop offset="1" stop-color="#600000"/></linearGradient><linearGradient x1="183.50675" y1="162.50477" x2="192.75175" y2="160.9791" gradientUnits="userSpaceOnUse" id="color-7"><stop offset="0" stop-color="#ff0000"/><stop offset="1" stop-color="#930000"/></linearGradient><radialGradient cx="189.09433" cy="161.25372" r="11.86467" gradientUnits="userSpaceOnUse" id="color-8"><stop offset="0" stop-color="#ff6060"/><stop offset="1" stop-color="#ff6060" stop-opacity="0"/></radialGradient><radialGradient cx="176.90412" cy="166.84632" r="7.42946" gradientUnits="userSpaceOnUse" id="color-9"><stop offset="0" stop-color="#ff6060"/><stop offset="1" stop-color="#ff6060" stop-opacity="0"/></radialGradient><linearGradient x1="193.85281" y1="208.68433" x2="209.61102" y2="211.82555" gradientUnits="userSpaceOnUse" id="color-10"><stop offset="0" stop-color="#ff0000"/><stop offset="1" stop-color="#930000"/></linearGradient><linearGradient x1="206.14717" y1="207.27164" x2="218.93484" y2="209.82071" gradientUnits="userSpaceOnUse" id="color-11"><stop offset="0" stop-color="#8e0000"/><stop offset="1" stop-color="#ff0000"/></linearGradient><linearGradient x1="204.45994" y1="200.59436" x2="211.70261" y2="202.03811" gradientUnits="userSpaceOnUse" id="color-12"><stop offset="0" stop-color="#d60000"/><stop offset="1" stop-color="#600000"/></linearGradient><linearGradient x1="186.12206" y1="199.8869" x2="195.31131" y2="201.71867" gradientUnits="userSpaceOnUse" id="color-13"><stop offset="0" stop-color="#ff0000"/><stop offset="1" stop-color="#930000"/></linearGradient><radialGradient cx="177.64733" cy="195.00813" r="7.99924" gradientUnits="userSpaceOnUse" id="color-14"><stop offset="0" stop-color="#ff6060"/><stop offset="1" stop-color="#ff6060" stop-opacity="0"/></radialGradient><radialGradient cx="191.76355" cy="200.59778" r="12.66022" gradientUnits="userSpaceOnUse" id="color-15"><stop offset="0" stop-color="#ff6060"/><stop offset="1" stop-color="#ff6060" stop-opacity="0"/></radialGradient><linearGradient x1="253.0802" y1="181.3726" x2="208.17638" y2="181.3726" gradientUnits="userSpaceOnUse" id="color-16"><stop offset="0" stop-color="#000000"/><stop offset="1" stop-color="#ff365a"/></linearGradient><linearGradient x1="328.46748" y1="182.29992" x2="238.44826" y2="182.29992" gradientUnits="userSpaceOnUse" id="color-17"><stop offset="0" stop-color="#ff4949"/><stop offset="1" stop-color="#cc0025"/></linearGradient><linearGradient x1="325.37377" y1="182.85162" x2="243.28934" y2="182.85162" gradientUnits="userSpaceOnUse" id="color-18"><stop offset="0" stop-color="#ffffff" stop-opacity="0.78431"/><stop offset="1" stop-color="#e30000"/></linearGradient><radialGradient cx="289.6648" cy="182.85884" r="24.82637" gradientUnits="userSpaceOnUse" id="color-19"><stop offset="0" stop-color="#ff5656"/><stop offset="1" stop-color="#ff5656" stop-opacity="0"/></radialGradient><radialGradient cx="280.08822" cy="171.11889" r="19.97309" gradientUnits="userSpaceOnUse" id="color-20"><stop offset="0" stop-color="#ff5656"/><stop offset="1" stop-color="#ff5656" stop-opacity="0"/></radialGradient><radialGradient cx="281.38239" cy="194.35836" r="18.10645" gradientUnits="userSpaceOnUse" id="color-21"><stop offset="0" stop-color="#ff6d6d"/><stop offset="1" stop-color="#ff6d6d" stop-opacity="0"/></radialGradient><radialGradient cx="291.62643" cy="158.68963" r="10.26655" gradientUnits="userSpaceOnUse" id="color-22"><stop offset="0" stop-color="#ff4e4e"/><stop offset="1" stop-color="#ff4e4e" stop-opacity="0"/></radialGradient><radialGradient cx="293.95865" cy="207.42845" r="10.26655" gradientUnits="userSpaceOnUse" id="color-23"><stop offset="0" stop-color="#ff4e4e"/><stop offset="1" stop-color="#ff4e4e" stop-opacity="0"/></radialGradient><radialGradient cx="305.12179" cy="168.15701" r="12.35415" gradientUnits="userSpaceOnUse" id="color-24"><stop offset="0" stop-color="#ff7e7e"/><stop offset="1" stop-color="#ff7e7e" stop-opacity="0"/></radialGradient><radialGradient cx="309.55117" cy="182.50095" r="8.32927" gradientUnits="userSpaceOnUse" id="color-25"><stop offset="0" stop-color="#ff8989"/><stop offset="1" stop-color="#ff8989" stop-opacity="0"/></radialGradient><radialGradient cx="300.71662" cy="192.96443" r="8.32927" gradientUnits="userSpaceOnUse" id="color-26"><stop offset="0" stop-color="#ff6060"/><stop offset="1" stop-color="#ff6060" stop-opacity="0"/></radialGradient><radialGradient cx="301.11006" cy="166.82852" r="7.73597" gradientUnits="userSpaceOnUse" id="color-27"><stop offset="0" stop-color="#ff7e7e"/><stop offset="1" stop-color="#ff7e7e" stop-opacity="0"/></radialGradient><radialGradient cx="301.90649" cy="191.44271" r="13.18253" gradientUnits="userSpaceOnUse" id="color-28"><stop offset="0" stop-color="#ff6060"/><stop offset="1" stop-color="#ff6060" stop-opacity="0"/></radialGradient><radialGradient cx="306.77423" cy="170.28547" r="5.13004" gradientUnits="userSpaceOnUse" id="color-29"><stop offset="0" stop-color="#ffb5b5"/><stop offset="1" stop-color="#ffb5b5" stop-opacity="0"/></radialGradient><radialGradient cx="301.86171" cy="174.18325" r="12.35414" gradientUnits="userSpaceOnUse" id="color-30"><stop offset="0" stop-color="#ff6060"/><stop offset="1" stop-color="#ff6060" stop-opacity="0"/></radialGradient><radialGradient cx="297.60547" cy="188.85659" r="7.73597" gradientUnits="userSpaceOnUse" id="color-31"><stop offset="0" stop-color="#ff6060"/><stop offset="1" stop-color="#ff6060" stop-opacity="0"/></radialGradient></defs><g transform="translate(-127.93433,-67.93433)"><g data-paper-data="{&quot;isPaintingLayer&quot;:true}" fill-rule="nonzero" stroke-width="0" stroke-linecap="butt" stroke-linejoin="miter" stroke-miterlimit="10" stroke-dasharray="" stroke-dashoffset="0" style="mix-blend-mode: normal"><path d="M180.98082,183.48436c0,-27.51178 22.3027,-49.81448 49.81448,-49.81448c27.51178,0 49.81449,22.3027 49.81449,49.81448c0,27.51178 -22.30271,49.81448 -49.81449,49.81448c-27.51178,0 -49.81448,-22.3027 -49.81448,-49.81448z" fill="url(#color-1)" stroke="none"/><path d="M157.31055,206.07661c-2.60037,-1.3113 1.12691,-18.73365 12.54033,-18.73823c19.648,-0.00787 16.41758,5.70546 24.8699,8.46313c11.23517,3.66562 26.64752,-15.63649 26.64752,-15.63649l9.99775,20.38445c0,0 -18.58814,34.20175 -45.44069,13.63652c-10.11986,-7.75038 -9.1599,-15.11728 -14.78676,-16.1363c-5.62685,-1.01899 -8.74467,10.59029 -13.82806,8.02689z" data-paper-data="{&quot;index&quot;:null}" fill="url(#color-2)" stroke="#000000"/><path d="M170.27194,164.25472c5.62741,-1.0159 4.67152,-8.38334 14.79565,-16.12814c26.86387,-20.55044 45.43316,13.66154 45.43316,13.66154l-10.00898,20.37896c0,0 -15.40174,-19.31058 -26.63891,-15.65116c-8.45383,2.75302 -5.22656,8.46812 -24.87455,8.44944c-11.41341,-0.01086 -15.1311,-17.43526 -12.52998,-18.74512c5.08478,-2.5606 8.19622,9.05039 13.82364,8.03449z" data-paper-data="{&quot;index&quot;:null}" fill="url(#color-3)" stroke="#000000"/><g data-paper-data="{&quot;index&quot;:null}" stroke="none"><path d="M207.37913,151.35257c0.44101,2.67235 -2.75049,5.4244 -7.12838,6.14688c-4.37791,0.72247 -8.28441,-0.85823 -8.72541,-3.53058c-0.441,-2.67235 2.75046,-5.42439 7.12838,-6.14687c4.37791,-0.72247 8.28442,0.85822 8.72542,3.53057z" fill="url(#color-4)"/><path d="M209.55065,150.80081c3.55263,-0.58628 6.72273,0.69643 7.0806,2.86504c0.35788,2.16861 -2.23199,4.40186 -5.78463,4.98814c-3.55263,0.58628 -6.72271,-0.69642 -7.08059,-2.86503c-0.35788,-2.16861 2.23197,-4.40186 5.78461,-4.98814z" fill="url(#color-5)"/><path d="M209.14465,161.20405c0.2027,1.22824 -1.26417,2.49311 -3.27631,2.82517c-2.01214,0.33205 -3.80761,-0.39442 -4.0103,-1.6227c-0.20271,-1.22826 1.26413,-2.49313 3.27627,-2.82518c2.01216,-0.33206 3.80764,0.39444 4.01033,1.62269z" fill="url(#color-6)"/><path d="M192.75172,160.9791c0.25717,1.55836 -1.60388,3.16318 -4.15684,3.58449c-2.55293,0.4213 -4.83096,-0.50046 -5.08813,-2.05883c-0.25716,-1.55834 1.60388,-3.16318 4.15684,-3.58449c2.55292,-0.42131 4.83096,0.50046 5.08813,2.05883z" fill="url(#color-7)"/><path d="M187.16247,149.54739c6.46523,-1.06693 12.57125,3.30925 13.63819,9.77449c1.06694,6.46525 -3.30924,12.57124 -9.77448,13.63818c-6.46523,1.06693 -12.57123,-3.30923 -13.63816,-9.77448c-1.06694,-6.46525 3.30921,-12.57126 9.77446,-13.6382z" fill="url(#color-8)"/><path d="M175.69442,159.516c4.04843,-0.6681 7.87193,2.0722 8.54002,6.12062c0.66809,4.04842 -2.07222,7.87192 -6.12064,8.54001c-4.04843,0.6681 -7.87191,-2.07219 -8.54001,-6.1206c-0.66809,-4.04842 2.07221,-7.87192 6.12062,-8.54001z" fill="url(#color-9)"/></g><g data-paper-data="{&quot;index&quot;:null}" stroke="none"><path d="M209.61102,211.82554c-0.52948,2.65627 -4.48633,4.10638 -8.83784,3.23894c-4.3515,-0.86742 -7.44985,-3.72391 -6.92034,-6.38016c0.52949,-2.65624 4.48631,-4.10636 8.83782,-3.23894c4.35149,0.86743 7.44986,3.7239 6.92037,6.38016z" data-paper-data="{&quot;index&quot;:null}" fill="url(#color-10)"/><path d="M218.93484,209.82072c-0.42967,2.15553 -3.64061,3.33229 -7.17183,2.62838c-3.5312,-0.7039 -6.04549,-3.02192 -5.61581,-5.17744c0.42967,-2.15553 3.64059,-3.3323 7.17181,-2.62838c3.53121,0.70389 6.0455,3.02192 5.61583,5.17745z" data-paper-data="{&quot;index&quot;:null}" fill="url(#color-11)"/><path d="M211.70261,202.0381c-0.24335,1.22086 -2.06198,1.88735 -4.06199,1.48867c-2.00001,-0.39868 -3.42404,-1.71156 -3.18068,-2.9324c0.24336,-1.22084 2.06196,-1.88734 4.06197,-1.48864c2.00002,0.39868 3.42407,1.71154 3.18071,2.9324z" data-paper-data="{&quot;index&quot;:null}" fill="url(#color-12)"/><path d="M195.3113,201.71866c-0.30875,1.54897 -2.61614,2.3946 -5.15368,1.88877c-2.53754,-0.50582 -4.3443,-2.17157 -4.03552,-3.72053c0.30876,-1.54897 2.61613,-2.39458 5.15367,-1.88875c2.53755,0.50582 4.34431,2.17155 4.03554,3.72051z" data-paper-data="{&quot;index&quot;:null}" fill="url(#color-13)"/><path d="M179.21111,187.16324c4.33263,0.86366 7.14477,5.07605 6.28112,9.40869c-0.86366,4.33263 -5.07606,7.14477 -9.40869,6.2811c-4.33261,-0.86367 -7.14476,-5.07606 -6.28109,-9.40869c0.86366,-4.33262 5.07605,-7.14476 9.40868,-6.2811z" fill="url(#color-14)"/><path d="M194.23854,188.18179c6.85715,1.3669 11.30789,8.03379 9.94099,14.89094c-1.36688,6.85714 -8.03377,11.30786 -14.89094,9.94097c-6.85714,-1.36688 -11.30785,-8.03378 -9.94097,-14.89093c1.36688,-6.85714 8.03377,-11.30786 14.89091,-9.94096z" fill="url(#color-15)"/></g><path d="M219.25987,141.28288c0,0 7.39728,17.82729 11.66324,18.27015c7.66206,0.79543 22.1571,-2.89987 22.1571,-2.89987v49.43885c0,0 -15.51014,-4.24113 -22.96262,-0.95828c-6.24283,2.75 -9.73118,18.21286 -9.73118,18.21286c0,0 -8.69173,-6.65888 -7.35932,-21.88524c0.6328,-7.23143 9.80539,-10.88762 9.80539,-10.88762l-19.64542,-9.41657l18.54318,-8.78684c0,0 -7.55552,-3.44515 -8.92065,-13.72698c-1.13992,-8.58559 6.45027,-17.36046 6.45027,-17.36046z" fill="url(#color-16)" stroke="#ff0000"/><path d="M328.46706,183.34908c-0.06486,16.31488 -8.07301,25.47208 -17.98532,34.35909c-14.97469,13.42576 -38.71384,11.42963 -49.12818,3.52082c-11.36476,-8.63057 -14.79946,-18.64188 -14.79946,-18.64188l-8.10584,-20.98135c0,0 3.55953,-12.99332 7.8482,-20.3884c4.28867,-7.39508 6.0695,-11.1297 14.3114,-17.4325c7.74444,-5.92238 29.77383,-12.73525 49.77854,3.11566c15.60706,12.36639 18.11912,26.77384 18.08066,36.44856z" fill="url(#color-17)" stroke="#000000"/><g><path d="M241.18052,160.07815c5.40533,0 9.78722,5.65367 9.78722,12.62782c0,6.97415 -4.38189,12.62782 -9.78722,12.62782c-5.40533,0 -9.78722,-5.65366 -9.78722,-12.62782c0,-1.81521 -0.30594,-5.65074 0.22854,-7.21064c1.51902,-4.43332 5.56024,-5.41718 9.55868,-5.41718z" fill="#000000" stroke="none"/><path d="M241.18052,178.19475c5.40533,0 9.78722,5.65366 9.78722,12.62782c0,6.97415 -4.38189,12.62783 -9.78722,12.62783c-3.78568,0 -7.06935,-0.06059 -8.69729,-4.11831c-0.6965,-1.73605 -1.08993,-6.41979 -1.08993,-8.50952c0,-6.97415 4.38189,-12.62782 9.78722,-12.62782z" fill="#000000" stroke="none"/><path d="M242.5324,163.77895c4.67858,0 8.47133,4.28418 8.47133,9.56897c0,5.2848 -3.79274,9.56897 -8.47133,9.56897c-4.6786,0 -8.47134,-4.28418 -8.47134,-9.56897c0,-5.2848 3.79274,-9.56897 8.47134,-9.56897z" fill="#ffffff" stroke="#000000"/><path d="M242.5324,180.61163c4.67858,0 8.47133,4.28418 8.47133,9.56897c0,5.2848 -3.79274,9.56897 -8.47133,9.56897c-4.6786,0 -8.47134,-4.28418 -8.47134,-9.56897c0,-5.2848 3.79274,-9.56897 8.47134,-9.56897z" fill="#ffffff" stroke="#000000"/><path d="M244.81649,172.03487c2.16392,0 3.91815,1.75421 3.91815,3.91815c0,2.16394 -1.75422,3.91815 -3.91815,3.91815c-2.16392,0 -3.91815,-1.75421 -3.91815,-3.91815c0,-2.16394 1.75422,-3.91815 3.91815,-3.91815z" fill="#000000" stroke="none"/><path d="M244.55166,183.27705c2.16392,0 3.91815,1.75421 3.91815,3.91815c0,2.16394 -1.75422,3.91815 -3.91815,3.91815c-2.16392,0 -3.91815,-1.75421 -3.91815,-3.91815c0,-2.16394 1.75422,-3.91815 3.91815,-3.91815z" fill="#000000" stroke="none"/></g><path d="M252.52116,166.79956c0,0 8.87992,-0.35991 13.83809,0.75808c5.76098,1.29902 18.68209,6.31936 18.68209,6.31936l26.51236,3.1305l-33.16286,-20.57892l34.14217,10.58615l-14.00014,-18.54612c0,0 11.89297,7.16005 16.84151,13.48337c3.42521,4.3768 7.26935,12.77021 6.86657,20.55896c-0.40279,7.78875 -3.50884,14.99021 -8.15664,21.06497c-4.06425,5.31204 -15.60442,12.63714 -15.60442,12.63714l13.8989,-19.80405l-32.32653,11.81742l32.26226,-22.12489l-27.34707,4.01802c0,0 -12.75492,4.61183 -18.28425,5.65221c-5.35193,1.00702 -14.37687,1.00409 -14.37687,1.00409c0,0 -8.96014,-9.72778 -9.01673,-14.8815c-0.0549,-5.00241 9.23157,-15.09485 9.23157,-15.09485z" fill="url(#color-18)" stroke="#ff0000"/><path d="M127.93433,292.06568v-224.13135h224.13135v224.13135z" data-paper-data="{&quot;index&quot;:null}" fill="none" stroke="none"/><g data-paper-data="{&quot;index&quot;:null}" stroke="none"><path d="M289.6648,158.57213c13.71124,0 24.82638,10.87353 24.82638,24.28671c0,13.41318 -11.11514,24.2867 -24.82638,24.2867c-13.71124,0 -24.82638,-10.87352 -24.82638,-24.2867c0,-13.41318 11.11514,-24.28671 24.82637,-24.28671z" fill="url(#color-19)"/><path d="M280.08822,151.57995c11.03085,0 19.97309,8.74787 19.97309,19.53893c0,10.79106 -8.94226,19.53892 -19.9731,19.53892c-11.03085,0 -19.9731,-8.74786 -19.9731,-19.53892c0,-10.79106 8.94226,-19.53893 19.9731,-19.53893z" fill="url(#color-20)"/><path d="M281.38239,176.64549c9.99993,0 18.10645,7.93031 18.10645,17.71286c0,9.78254 -8.10653,17.71286 -18.10645,17.71286c-9.99993,0 -18.10647,-7.93031 -18.10647,-17.71286c0,-9.78254 8.10653,-17.71286 18.10645,-17.71286z" fill="url(#color-21)"/><path d="M291.62643,148.64625c5.67006,0 10.26653,4.49658 10.26653,10.04338c0,5.54682 -4.59648,10.04338 -10.26655,10.04338c-5.67006,0 -10.26655,-4.49656 -10.26655,-10.04338c0,-5.54682 4.59649,-10.04338 10.26655,-10.04338z" fill="url(#color-22)"/><path d="M293.95865,197.38508c5.67006,0 10.26655,4.49656 10.26655,10.04338c0,5.54681 -4.59649,10.04338 -10.26655,10.04338c-5.67006,0 -10.26655,-4.49656 -10.26655,-10.04336c0,-5.54681 4.59649,-10.04338 10.26655,-10.04338z" fill="url(#color-23)"/><path d="M305.12179,156.07139c6.82302,0 12.35414,5.4109 12.35414,12.0856c0,6.67471 -5.53112,12.0856 -12.35412,12.0856c-6.82302,0 -12.35414,-5.4109 -12.35414,-12.0856c0,-6.67471 5.53114,-12.0856 12.35414,-12.0856z" fill="url(#color-24)"/><path d="M309.55117,174.35276c4.60014,0 8.32926,3.64807 8.32926,8.1482c0,4.50014 -3.72913,8.14821 -8.32926,8.14821c-4.60014,0 -8.32927,-3.64807 -8.32927,-8.14821c0,-4.50014 3.72913,-8.1482 8.32927,-8.1482z" fill="url(#color-25)"/><path d="M300.71662,184.81623c4.60014,0 8.32926,3.64807 8.32926,8.1482c0,4.50014 -3.72913,8.14821 -8.32926,8.14821c-4.60014,0 -8.32927,-3.64807 -8.32927,-8.14821c0,-4.50014 3.72913,-8.1482 8.32927,-8.1482z" fill="url(#color-26)"/><path d="M301.11006,159.26071c4.27246,0 7.73597,3.38822 7.73597,7.56781c0,4.17959 -3.4635,7.56781 -7.73597,7.56781c-4.27246,0 -7.73598,-3.38822 -7.73598,-7.56781c0,-4.17959 3.46351,-7.56781 7.73598,-7.56781z" fill="url(#color-27)"/><path d="M301.90649,178.54671c7.28052,0 13.18253,5.77372 13.18253,12.89597c0,7.12226 -5.90201,12.89597 -13.18253,12.89597c-7.28053,0 -13.18255,-5.77372 -13.18255,-12.89597c0,-7.12226 5.90201,-12.89597 13.18255,-12.89597z" fill="url(#color-28)"/><path d="M306.77423,165.26694c2.83325,0 5.13004,2.24687 5.13004,5.01853c0,2.77167 -2.29679,5.01853 -5.13004,5.01853c-2.83325,0 -5.13007,-2.24687 -5.13007,-5.01853c0,-2.77167 2.2968,-5.01853 5.13007,-5.01853z" fill="url(#color-29)"/><path d="M301.86171,162.09766c6.82302,0 12.35414,5.4109 12.35414,12.0856c0,6.67471 -5.53112,12.0856 -12.35412,12.0856c-6.82302,0 -12.35415,-5.4109 -12.35415,-12.0856c0,-6.67471 5.53116,-12.0856 12.35415,-12.0856z" fill="url(#color-30)"/><path d="M297.60547,181.28879c4.27246,0 7.73597,3.38822 7.73597,7.56781c0,4.17959 -3.4635,7.56781 -7.73597,7.56781c-4.27246,0 -7.73598,-3.38822 -7.73598,-7.56781c0,-4.17959 3.46351,-7.56781 7.73598,-7.56781z" fill="url(#color-31)"/></g></g></g></svg>