<svg version="1.1" xmlns="http://www.w3.org/2000/svg" xmlns:xlink="http://www.w3.org/1999/xlink" width="122.08798" height="156.84435" viewBox="0,0,122.08798,156.84435"><defs><radialGradient cx="272.01905" cy="164.58321" r="17.48859" gradientUnits="userSpaceOnUse" id="color-1"><stop offset="0" stop-color="#000000" stop-opacity="0.63137"/><stop offset="1" stop-color="#000000" stop-opacity="0"/></radialGradient><linearGradient x1="262.79006" y1="179.4384" x2="281.24807" y2="149.72802" gradientUnits="userSpaceOnUse" id="color-2"><stop offset="0" stop-color="#ff5454"/><stop offset="1" stop-color="#eb0000"/></linearGradient><linearGradient x1="273.37193" y1="177.52503" x2="254.93753" y2="166.0724" gradientUnits="userSpaceOnUse" id="color-3"><stop offset="0" stop-color="#eb0000"/><stop offset="1" stop-color="#ff5454"/></linearGradient><radialGradient cx="281.03883" cy="128.92374" r="20.90193" gradientUnits="userSpaceOnUse" id="color-4"><stop offset="0" stop-color="#000000" stop-opacity="0.63137"/><stop offset="1" stop-color="#000000" stop-opacity="0"/></radialGradient><linearGradient x1="270.00856" y1="146.67828" x2="292.06909" y2="111.16918" gradientUnits="userSpaceOnUse" id="color-5"><stop offset="0" stop-color="#ff5454"/><stop offset="1" stop-color="#eb0000"/></linearGradient><radialGradient cx="298.45007" cy="61.70602" r="35.01038" gradientUnits="userSpaceOnUse" id="color-6"><stop offset="0" stop-color="#000000" stop-opacity="0.63137"/><stop offset="1" stop-color="#000000" stop-opacity="0"/></radialGradient><linearGradient x1="279.97455" y1="91.44464" x2="316.92557" y2="31.96746" gradientUnits="userSpaceOnUse" id="color-7"><stop offset="0" stop-color="#ff5454"/><stop offset="1" stop-color="#eb0000"/></linearGradient><linearGradient x1="282.14646" y1="85.8299" x2="369.22953" y2="70.01717" gradientUnits="userSpaceOnUse" id="color-8"><stop offset="0" stop-color="#ff0000"/><stop offset="1" stop-color="#ff0000" stop-opacity="0.5"/></linearGradient><linearGradient x1="279.62583" y1="93.45785" x2="375.18354" y2="76.10629" gradientUnits="userSpaceOnUse" id="color-9"><stop offset="0" stop-color="#ffffff"/><stop offset="1" stop-color="#808080"/></linearGradient><linearGradient x1="283.98196" y1="148.00757" x2="268.95975" y2="143.90881" gradientUnits="userSpaceOnUse" id="color-10"><stop offset="0" stop-color="#000000"/><stop offset="1" stop-color="#929292"/></linearGradient><linearGradient x1="283.98196" y1="148.00757" x2="268.95975" y2="143.90881" gradientUnits="userSpaceOnUse" id="color-11"><stop offset="0" stop-color="#929292" stop-opacity="0"/><stop offset="1" stop-color="#929292"/></linearGradient><linearGradient x1="277.74346" y1="98.41054" x2="314.12233" y2="81.3216" gradientUnits="userSpaceOnUse" id="color-12"><stop offset="0" stop-color="#ffffff"/><stop offset="1" stop-color="#9d9d9d"/></linearGradient><linearGradient x1="311.79284" y1="86.49659" x2="254.35256" y2="59.51402" gradientUnits="userSpaceOnUse" id="color-13"><stop offset="0" stop-color="#f20000"/><stop offset="1" stop-color="#ff7979"/></linearGradient><linearGradient x1="280.84213" y1="114.24714" x2="287.66211" y2="116.03869" gradientUnits="userSpaceOnUse" id="color-14"><stop offset="0" stop-color="#c6c6c6"/><stop offset="1" stop-color="#6b6b6b"/></linearGradient><linearGradient x1="277.05148" y1="122.36708" x2="287.90128" y2="117.27036" gradientUnits="userSpaceOnUse" id="color-15"><stop offset="0" stop-color="#ff5454"/><stop offset="1" stop-color="#ce0000"/></linearGradient><linearGradient x1="293.20183" y1="59.50676" x2="270.85276" y2="49.00832" gradientUnits="userSpaceOnUse" id="color-16"><stop offset="0" stop-color="#ffadad" stop-opacity="0"/><stop offset="1" stop-color="#ffadad"/></linearGradient><linearGradient x1="293.20183" y1="59.50676" x2="270.85276" y2="49.00832" gradientUnits="userSpaceOnUse" id="color-17"><stop offset="0" stop-color="#ab0000"/><stop offset="1" stop-color="#ff5454"/></linearGradient><linearGradient x1="285.88216" y1="66.70493" x2="263.53313" y2="56.20647" gradientUnits="userSpaceOnUse" id="color-18"><stop offset="0" stop-color="#ff6b6b" stop-opacity="0"/><stop offset="1" stop-color="#ff6b6b"/></linearGradient><linearGradient x1="285.88216" y1="66.70493" x2="263.53313" y2="56.20647" gradientUnits="userSpaceOnUse" id="color-19"><stop offset="0" stop-color="#ab0000"/><stop offset="1" stop-color="#ff5454"/></linearGradient><linearGradient x1="298.88308" y1="37.01276" x2="298.88308" y2="51.92504" gradientUnits="userSpaceOnUse" id="color-20"><stop offset="0" stop-color="#ffffff" stop-opacity="0.5207"/><stop offset="1" stop-color="#ffffff" stop-opacity="0"/></linearGradient><linearGradient x1="282.75629" y1="51.99817" x2="263.73242" y2="53.23018" gradientUnits="userSpaceOnUse" id="color-21"><stop offset="0" stop-color="#ab0000"/><stop offset="1" stop-color="#ff5454"/></linearGradient><linearGradient x1="285.99534" y1="133.43574" x2="274.50077" y2="126.29457" gradientUnits="userSpaceOnUse" id="color-22"><stop offset="0" stop-color="#000000"/><stop offset="1" stop-color="#929292"/></linearGradient><linearGradient x1="291.24654" y1="112.69831" x2="279.75195" y2="105.55713" gradientUnits="userSpaceOnUse" id="color-23"><stop offset="0" stop-color="#000000"/><stop offset="1" stop-color="#929292"/></linearGradient><linearGradient x1="291.6537" y1="150.18355" x2="273.21932" y2="138.73093" gradientUnits="userSpaceOnUse" id="color-24"><stop offset="0" stop-color="#eb0000"/><stop offset="1" stop-color="#ff5454"/></linearGradient></defs><g transform="translate(-253.30212,-26.69086)"><g data-paper-data="{&quot;isPaintingLayer&quot;:true}" fill-rule="nonzero" stroke-linejoin="miter" stroke-miterlimit="10" stroke-dasharray="" stroke-dashoffset="0" style="mix-blend-mode: normal"><path d="M286.87424,173.81219c-5.09703,8.20431 -15.8799,10.72323 -24.08417,5.62619c-8.2043,-5.09702 -10.72323,-15.8799 -5.62619,-24.08417c5.09703,-8.20431 15.87991,-10.72323 24.08419,-5.6262c8.2043,5.09702 10.72323,15.8799 5.62619,24.08419z" fill="url(#color-1)" stroke="url(#color-2)" stroke-width="0" stroke-linecap="butt"/><path d="M273.37193,177.52503c-3.16255,5.09051 -9.853,6.65345 -14.9435,3.49089c-5.09051,-3.16255 -6.65345,-9.853 -3.49089,-14.9435c3.16255,-5.09051 9.853,-6.65345 14.9435,-3.49089c5.09051,3.16255 6.65345,9.853 3.49089,14.9435z" fill="url(#color-3)" stroke="#000000" stroke-width="0" stroke-linecap="butt"/><path d="M298.79336,139.95397c-6.09185,9.80558 -18.97927,12.81613 -28.78482,6.72429c-9.80556,-6.09185 -12.81613,-18.97927 -6.72429,-28.78482c6.09185,-9.80558 18.97927,-12.81613 28.78482,-6.72429c9.80556,6.09185 12.81613,18.97927 6.72429,28.78482z" fill="url(#color-4)" stroke="url(#color-5)" stroke-width="0" stroke-linecap="butt"/><path d="M328.18862,80.1815c-10.20374,16.42417 -31.78991,21.46681 -48.21406,11.26307c-16.42414,-10.20373 -21.46681,-31.78991 -11.26307,-48.21406c10.20374,-16.42417 31.78991,-21.46681 48.21406,-11.26307c16.42414,10.20373 21.46681,31.78991 11.26307,48.21406z" fill="url(#color-6)" stroke="url(#color-7)" stroke-width="0" stroke-linecap="butt"/><path d="M307.22687,76.22036l-26.56002,-25.91457c0,0 -2.26641,-9.14928 8.82315,-12.12831c15.7756,-4.23787 46.12407,1.08395 64.54305,21.17551c18.41898,20.09157 25.62297,51.98888 18.86114,53.0307c-8.4454,1.30122 -12.10282,-26.10905 -44.63742,-32.9281c-32.53459,-6.81906 -21.0299,-3.23523 -21.0299,-3.23523z" fill="url(#color-8)" stroke="url(#color-9)" stroke-width="0" stroke-linecap="butt"/><path d="M281.29758,139.58483l-5.43994,38.19889c0,0 -2.61678,7.39887 -9.73932,5.41291c-6.98638,-1.94799 -5.28289,-9.51168 -5.28289,-9.51168l13.76935,-35.72538z" fill="url(#color-10)" stroke="url(#color-11)" stroke-width="0" stroke-linecap="butt"/><path d="M284.74653,102.26223c0,0 -0.96107,-7.60851 -0.91995,-10.85605c0.0309,-2.43965 0.5066,-6.60846 0.5066,-6.60846l8.45479,-20.77485l21.82477,11.77891c0,0 -5.19555,10.6908 -11.205,14.33515c-6.6006,4.00285 -13.44563,13.83026 -13.44563,13.83026z" fill="url(#color-12)" stroke="#ffffff" stroke-width="0" stroke-linecap="butt"/><path d="M280.03019,77.41803c-7.90379,-4.67056 2.06031,-16.92797 -2.11033,-30.27686c-4.20997,-13.47478 1.62237,-11.57384 11.38137,-11.98196c7.8861,-0.3298 14.67514,6.26144 21.76419,9.59153c29.11833,28.07244 3.98752,38.95799 0.72741,41.74584c-6.48197,5.543 0.01179,-15.4288 -17.5115,-15.64292c-3.23704,-0.03955 -8.10986,6.28329 -10.12685,5.09139z" data-paper-data="{&quot;index&quot;:null}" fill="url(#color-13)" stroke="#ffffff" stroke-width="0" stroke-linecap="butt"/><path d="M275.78312,117.77856l8.70185,-17.39867l6.81996,1.79155l-1.26504,19.1099l-9.41304,20.61351l-6.67609,-1.8346z" fill="url(#color-14)" stroke="#ffffff" stroke-width="0" stroke-linecap="butt"/><path d="M275.11562,117.6932l15.43187,4.84462" fill="none" stroke="url(#color-15)" stroke-width="7.5" stroke-linecap="round"/><path d="M286.09637,43.04738c-5.87143,-4.79516 11.43004,-10.4776 17.60156,-7.57854c6.17152,2.89907 11.70598,8.72862 9.44641,13.53878c-1.88948,4.02233 -13.60128,-5.67125 -19.4804,-5.51097c-1.15149,0.0314 2.36915,9.63454 1.35836,9.15973c-6.17152,-2.89907 -2.71831,-4.53921 -8.92595,-9.60898z" data-paper-data="{&quot;index&quot;:null}" fill="url(#color-16)" stroke="url(#color-17)" stroke-width="0" stroke-linecap="butt"/><path d="M279.23751,45.84836c-1.09032,-2.26809 10.96922,-6.08043 17.14074,-3.18137c6.17152,2.89907 11.70598,2.83679 9.44641,7.64695c-1.8895,4.02235 -13.60128,0.22058 -19.4804,0.38086c-1.15148,0.0314 2.36916,9.63454 1.35837,9.15973c-6.17151,-2.89907 -6.59357,-10.11294 -8.46511,-14.00614z" data-paper-data="{&quot;index&quot;:null}" fill="url(#color-18)" stroke="url(#color-19)" stroke-width="0" stroke-linecap="butt"/><path d="M277.82337,43.31768c-0.06792,-1.04833 1.43723,-2.36672 3.59293,-3.52377c2.57674,-1.38302 6.083,-2.53552 8.94334,-2.72077c5.25329,-0.34021 16.13759,6.72027 18.26503,7.61075c3.30902,1.38505 13.02604,6.25229 11.06027,6.65126c-4.96385,1.00749 -12.8047,-1.43508 -16.56775,-1.19138c-4.02654,0.26076 -15.09258,3.25905 -20.59326,0.85157c-1.67589,-0.73349 -4.66577,-7.14017 -4.70058,-7.67762z" data-paper-data="{&quot;index&quot;:null}" fill="url(#color-20)" stroke="url(#color-21)" stroke-width="0" stroke-linecap="butt"/><path d="M273.42473,128.02664l13.45104,3.99196" fill="none" stroke="url(#color-22)" stroke-width="3.5" stroke-linecap="round"/><path d="M292.12693,111.28116l-13.45104,-3.99196" fill="none" stroke="url(#color-23)" stroke-width="3.5" stroke-linecap="round"/><path d="M291.6537,150.18355c-3.16255,5.09051 -9.853,6.65345 -14.94352,3.49089c-5.09051,-3.16255 -6.65345,-9.853 -3.4909,-14.94354c3.16255,-5.09051 9.853,-6.65345 14.94353,-3.4909c5.09051,3.16255 6.65345,9.853 3.49089,14.9435z" fill="url(#color-24)" stroke="#000000" stroke-width="0" stroke-linecap="butt"/></g></g></svg>