<svg version="1.1" xmlns="http://www.w3.org/2000/svg" xmlns:xlink="http://www.w3.org/1999/xlink" width="218.33333" height="52.17922" viewBox="0,0,218.33333,52.17922"><defs><radialGradient cx="240" cy="204.67378" r="109.16667" gradientUnits="userSpaceOnUse" id="color-1"><stop offset="0" stop-color="#000000" stop-opacity="0.43529"/><stop offset="1" stop-color="#000000" stop-opacity="0"/></radialGradient><radialGradient cx="239.90238" cy="179.59199" r="62.98814" gradientUnits="userSpaceOnUse" id="color-2"><stop offset="0" stop-color="#000000" stop-opacity="0"/><stop offset="1" stop-color="#000000" stop-opacity="0.43529"/></radialGradient></defs><g transform="translate(-130.83333,-160.00169)"><g data-paper-data="{&quot;isPaintingLayer&quot;:true}" fill-rule="nonzero" stroke-linecap="butt" stroke-linejoin="miter" stroke-miterlimit="10" stroke-dasharray="" stroke-dashoffset="0" style="mix-blend-mode: normal"><path d="M349.16667,204.67378c0,4.14607 -48.87558,7.50712 -109.16667,7.50712c-60.29109,0 -109.16667,-3.36105 -109.16667,-7.50712c0,-4.14607 48.87558,-7.50712 109.16667,-7.50712c60.29109,0 109.16667,3.36105 109.16667,7.50712z" fill="url(#color-1)" stroke="#ffffff" stroke-width="0"/><path d="M302.88984,177.80089c0.15979,7.59458 -27.91113,14.55312 -62.69815,15.54231c-34.78702,0.9892 -63.11698,-4.3655 -63.27677,-11.96009c-0.1598,-7.59458 27.91113,-14.55313 62.69816,-15.54233c34.78702,-0.9892 63.11698,4.36551 63.27677,11.96009z" fill="url(#color-2)" stroke="none" stroke-width="0"/><path d="M185.89398,169.71558c0.7107,-0.10541 1.56337,-0.12812 2.55802,-0.06811c1.0048,0.0585 1.89791,0.27364 2.67938,0.64541c0.77995,0.36162 1.22414,0.90793 1.33255,1.63893c0.09487,0.63962 -0.01672,1.21648 -0.33476,1.73059c-0.31955,0.50394 -0.78898,0.80185 -1.4083,0.89369c-0.28427,0.04216 -0.60144,0.03733 -0.95155,-0.01451c-0.34146,-0.06349 -0.69964,-0.13489 -1.07457,-0.21417c-0.36476,-0.08079 -0.73009,-0.13037 -1.09598,-0.14873c-0.35725,-0.03003 -0.74399,-0.01419 -1.16026,0.04757c-0.70055,0.10391 -1.27755,0.37626 -1.73096,0.81704c-0.44328,0.43929 -0.61899,0.96857 -0.52713,1.5879c0.09938,0.67009 0.74267,1.12461 1.92986,1.36358c1.19583,0.22731 2.51802,0.46701 3.96656,0.7191c1.45869,0.25059 2.73674,0.78736 3.83415,1.61033c1.09592,0.81281 1.7794,2.13297 2.05043,3.96048c0.21081,1.42139 0.03787,2.73887 -0.51885,3.95244c-0.55672,1.21356 -1.39984,2.2102 -2.52934,2.98992c-1.12948,0.7797 -2.41506,1.27648 -3.85676,1.4903c-1.77674,0.26352 -3.52589,0.25835 -5.24744,-0.0155c-1.7129,-0.2855 -2.66496,-1.07298 -2.85621,-2.36238c-0.09335,-0.62947 0.01692,-1.1802 0.33083,-1.65217c0.32256,-0.48365 0.79858,-0.77213 1.42804,-0.86549c0.30459,-0.04517 0.64716,-0.0441 1.02772,0.00321c0.38055,0.04731 0.87017,0.13035 1.46884,0.24909c0.59715,0.10859 1.11724,0.18708 1.56022,0.23552c0.44149,0.03828 0.89574,0.02279 1.36276,-0.04647c0.67009,-0.09938 1.22716,-0.29615 1.67122,-0.59028c0.44253,-0.30429 0.75552,-0.67754 0.93896,-1.11981c0.19357,-0.44375 0.25198,-0.92452 0.17519,-1.44233c-0.11746,-0.79192 -0.47345,-1.2683 -1.06798,-1.42915c-0.5844,-0.16236 -1.91825,-0.4107 -4.00155,-0.74503c-2.0833,-0.33433 -3.65296,-0.84343 -4.70898,-1.52727c-1.04589,-0.68534 -1.68927,-1.84025 -1.93019,-3.46469c-0.21081,-1.42139 -0.04501,-2.71706 0.49741,-3.887c0.55109,-1.1816 1.37764,-2.14985 2.47969,-2.90473c1.10204,-0.75489 2.33838,-1.23397 3.70901,-1.43725z" fill="#ffffff" stroke="none" stroke-width="0.40889"/><path d="M238.41481,175.5963l0.60177,9.34216c0.04733,0.73474 -0.01696,1.33509 -0.19282,1.80109c-0.17587,0.46602 -0.66535,0.72487 -1.46842,0.77661c-0.51259,0.03301 -0.91841,-0.07382 -1.21738,-0.32049c-0.29099,-0.25578 -0.5219,-0.64412 -0.69271,-1.16501c-0.92363,1.24336 -2.086,1.91019 -3.48712,2.00044c-1.1619,0.07484 -2.24136,-0.16875 -3.23838,-0.73078c-0.99702,-0.56203 -1.80442,-1.37649 -2.42219,-2.44336c-0.60976,-1.07597 -0.95951,-2.31023 -1.0492,-3.7028c-0.08641,-1.3413 0.112,-2.58942 0.59524,-3.74437c0.48268,-1.16349 1.18181,-2.09644 2.0974,-2.79882c0.91504,-0.71093 1.94068,-1.103 3.07695,-1.17619c0.7091,-0.04567 1.39338,0.0561 2.05285,0.3053c0.65947,0.2492 1.21266,0.6468 1.65962,1.19278c0.02154,-0.46464 0.19383,-0.85321 0.51685,-1.1657c0.33101,-0.32158 0.7272,-0.49723 1.18853,-0.52694c0.80307,-0.05172 1.32198,0.14647 1.55675,0.5946c0.2342,0.4396 0.37498,1.02675 0.4223,1.76149zM229.02875,180.91064c0.04128,0.64074 0.19197,1.24873 0.45206,1.82392c0.26807,0.56609 0.63609,1.01849 1.104,1.35726c0.47592,0.32966 1.03424,0.47384 1.67499,0.43256c0.92269,-0.05944 1.61583,-0.48584 2.07944,-1.27921c0.46309,-0.80192 0.66215,-1.70694 0.59721,-2.71507c-0.04073,-0.6322 -0.19113,-1.2359 -0.45123,-1.81106c-0.2521,-0.58428 -0.61665,-1.04979 -1.09367,-1.39652c-0.46847,-0.34729 -1.01028,-0.50113 -1.62539,-0.46151c-0.6322,0.04072 -1.16687,0.26389 -1.604,0.66953c-0.42914,0.39653 -0.73551,0.90096 -0.91911,1.51331c-0.18362,0.61235 -0.25504,1.23463 -0.21432,1.86683z" fill="#ffffff" stroke="none" stroke-width="0.40889"/><path d="M218.25256,189.77988l-2.78806,-17.41312c-0.1076,-0.67203 -0.01046,-1.24467 0.29145,-1.71791c0.30965,-0.48391 0.76827,-0.77452 1.37587,-0.87178c0.39585,-0.06338 0.76117,-0.02273 1.09592,0.12195c0.34248,0.13399 0.62917,0.36191 0.86011,0.68372c0.22945,0.31262 0.37956,0.68987 0.45031,1.13177l2.78806,17.41313c0.07075,0.4419 0.04667,0.85175 -0.07224,1.22959c-0.12039,0.36863 -0.32159,0.67467 -0.60363,0.91808c-0.28352,0.23424 -0.61862,0.38233 -1.00528,0.44424c-0.6076,0.09728 -1.13328,-0.03099 -1.57706,-0.38484c-0.43604,-0.36452 -0.70785,-0.88279 -0.81545,-1.55483z" fill="#ffffff" stroke="none" stroke-width="0.40889"/><path d="M286.60813,182.07832l-0.59133,-10.24898c-0.0366,-0.6346 0.10766,-1.15749 0.43281,-1.56874c0.33333,-0.42045 0.78686,-0.64721 1.36059,-0.68032c0.4955,-0.02859 0.90265,0.07438 1.22146,0.30894c0.3275,0.23404 0.5388,0.57073 0.63393,1.01006c0.68689,-1.09498 1.89096,-1.69211 3.61215,-1.79141c1.00838,-0.05818 1.92448,0.09829 2.7483,0.46939c0.82331,0.36243 1.48357,0.92178 1.98075,1.67807c0.49667,0.7476 0.77585,1.65601 0.83754,2.72525l0.42506,7.36726c0.02406,0.41728 -0.03694,0.79583 -0.18306,1.13568c-0.14662,0.33117 -0.36242,0.59655 -0.64743,0.79614c-0.28553,0.19092 -0.61085,0.29691 -0.97596,0.31799c-0.57373,0.03309 -1.0501,-0.13566 -1.42907,-0.50628c-0.37079,-0.37981 -0.57447,-0.88701 -0.61109,-1.5216l-0.38669,-6.70225c-0.04966,-0.86061 -0.32198,-1.49902 -0.81698,-1.91529c-0.48681,-0.42544 -1.10401,-0.61661 -1.85161,-0.57348c-0.50417,0.02908 -0.93641,0.17177 -1.29667,0.42804c-0.36075,0.24758 -0.62547,0.57248 -0.79414,0.97471c-0.16868,0.40223 -0.23821,0.85978 -0.20863,1.37265l0.38669,6.70225c0.02406,0.41728 -0.03694,0.79583 -0.18306,1.13568c-0.1466,0.33117 -0.36242,0.59655 -0.64743,0.79614c-0.28553,0.19092 -0.61085,0.29691 -0.97596,0.31799c-0.57373,0.03309 -1.05009,-0.13566 -1.42905,-0.50628c-0.3708,-0.37981 -0.5745,-0.88702 -0.61111,-1.52161z" fill="#ffffff" stroke="none" stroke-width="0.40889"/><path d="M200.809,194.329l-1.0407,-15.00377c-0.04147,-0.59801 0.08884,-1.09271 0.39095,-1.48408c0.30974,-0.40013 0.73494,-0.61895 1.27561,-0.65645c0.96667,-0.06705 1.60782,0.39472 1.92347,1.38529c0.29838,-0.56397 0.74919,-1.00682 1.35246,-1.32852c0.60272,-0.32991 1.26042,-0.51959 1.97312,-0.56901c1.237,-0.0858 2.31736,0.18087 3.24108,0.80002c0.9319,0.61857 1.66121,1.4611 2.18792,2.52758c0.52671,1.06648 0.83268,2.21416 0.9179,3.44296c0.07955,1.14689 -0.09388,2.26606 -0.5203,3.3575c-0.41878,1.08267 -1.0645,1.97942 -1.93711,2.69024c-0.87262,0.71081 -1.88647,1.10628 -3.04156,1.18639c-0.57345,0.03977 -1.15838,-0.02666 -1.75478,-0.19932c-0.59698,-0.18084 -1.14724,-0.45958 -1.6508,-0.83623l0.30769,4.436c0.02614,0.37684 -0.02782,0.72632 -0.16188,1.04841c-0.13405,0.3221 -0.33467,0.57471 -0.60182,0.75787c-0.26659,0.19135 -0.57193,0.29896 -0.916,0.32284c-0.54068,0.0375 -0.99173,-0.1164 -1.35319,-0.46175c-0.3527,-0.33772 -0.55006,-0.8097 -0.59211,-1.41591zM203.72144,183.80472c0.06762,0.97485 0.3698,1.83054 0.90655,2.56707c0.54494,0.73596 1.27616,1.07212 2.19367,1.00849c0.58983,-0.04091 1.08933,-0.25664 1.49851,-0.64721c0.40918,-0.39057 0.70123,-0.86767 0.87615,-1.43132c0.17435,-0.57183 0.24051,-1.16086 0.19846,-1.76708c-0.04206,-0.60621 -0.18918,-1.18457 -0.44138,-1.73504c-0.2522,-0.55048 -0.6079,-0.99087 -1.06707,-1.32121c-0.45155,-0.3391 -0.97635,-0.48793 -1.57438,-0.44644c-0.6144,0.04261 -1.12677,0.25103 -1.53707,0.6252c-0.4027,0.36543 -0.69178,0.82585 -0.86728,1.3813c-0.1673,0.55488 -0.22935,1.14362 -0.18616,1.76623z" fill="#ffffff" stroke="none" stroke-width="0.40889"/><path d="M245.87749,187.4848l-1.00743,-9.44214l-0.9178,0.09793c-0.5377,0.05738 -0.98608,-0.05887 -1.34519,-0.34872c-0.36935,-0.29815 -0.58321,-0.72069 -0.64158,-1.26766c-0.0544,-0.50988 0.0716,-0.95462 0.37802,-1.33424c0.30641,-0.37962 0.71457,-0.59663 1.22444,-0.65102l0.91779,-0.09792l-0.26113,-2.44745c-0.0722,-0.67675 0.05484,-1.24351 0.38116,-1.70025c0.3346,-0.46699 0.80782,-0.73314 1.41968,-0.79843c0.39865,-0.04253 0.7613,0.01722 1.08801,0.17925c0.33499,0.1518 0.60934,0.39443 0.82307,0.72791c0.21273,0.32422 0.34285,0.70883 0.39033,1.15381l0.26113,2.44745l1.16809,-0.12463c0.56551,-0.06034 1.04949,0.03805 1.45199,0.29514c0.4015,0.24783 0.63487,0.67766 0.70017,1.28953c0.06528,0.61187 -0.07166,1.08591 -0.41083,1.42213c-0.32989,0.33524 -0.78224,0.53353 -1.35703,0.59485l-1.16809,0.12463l1.00744,9.44215c0.04748,0.44498 0.00194,0.85303 -0.13661,1.2241c-0.13954,0.3618 -0.35653,0.65688 -0.65095,0.88519c-0.29543,0.21903 -0.63782,0.34933 -1.02717,0.39087c-0.61186,0.06528 -1.1301,-0.09038 -1.5547,-0.46701c-0.41634,-0.3869 -0.6606,-0.9187 -0.73281,-1.59547z" fill="#ffffff" stroke="none" stroke-width="0.40889"/><path d="M260.5773,171.98678c0.92123,-0.05935 1.79005,0.0754 2.60646,0.40418c0.82396,0.3202 1.5396,0.78531 2.14691,1.39537c0.6154,0.60952 1.10318,1.31652 1.46335,2.121c0.36826,0.80397 0.58205,1.66657 0.6414,2.58782c0.05986,0.92931 -0.04072,1.82434 -0.30174,2.68507c-0.25345,0.85213 -0.6387,1.61131 -1.15569,2.27753c-0.50944,0.65763 -1.15623,1.19833 -1.94038,1.62212c-0.7766,0.41518 -1.6336,0.65296 -2.57099,0.71335c-1.2364,0.07964 -2.36329,-0.15613 -3.38064,-0.70731c-1.01788,-0.55924 -1.83138,-1.34671 -2.44047,-2.36236c-0.60154,-1.02425 -0.94238,-2.15863 -1.02254,-3.4031c-0.05726,-0.88891 0.04086,-1.75944 0.29431,-2.61156c0.26103,-0.86073 0.65734,-1.63684 1.18894,-2.32836c0.53158,-0.69152 1.18138,-1.24865 1.94937,-1.67138c0.768,-0.42275 1.60857,-0.66352 2.52171,-0.72235zM260.7881,175.25961c-0.598,0.03852 -1.10373,0.24962 -1.5172,0.63329c-0.40592,0.37507 -0.69571,0.85221 -0.86938,1.43141c-0.17367,0.5792 -0.24124,1.16781 -0.20272,1.7658c0.03904,0.60608 0.18157,1.18115 0.42759,1.72519c0.25359,0.53546 0.60167,0.96339 1.04426,1.28381c0.45017,0.31183 0.97828,0.44821 1.58436,0.40917c0.61415,-0.03955 1.12042,-0.24257 1.51876,-0.60905c0.40592,-0.37507 0.69623,-0.84413 0.87093,-1.40717c0.18226,-0.57163 0.2539,-1.1605 0.21486,-1.76658c-0.03852,-0.598 -0.18079,-1.16904 -0.42681,-1.71309c-0.24655,-0.55214 -0.59541,-0.99219 -1.04661,-1.32017c-0.4512,-0.32798 -0.98387,-0.4722 -1.59803,-0.43264z" fill="#ffffff" stroke="none" stroke-width="0.40889"/><path d="M276.03871,172.12729c0.92123,-0.05935 1.79005,0.0754 2.60646,0.40418c0.82396,0.3202 1.53961,0.78531 2.14692,1.39536c0.6154,0.60952 1.10318,1.31653 1.46335,2.121c0.36826,0.80397 0.58205,1.66657 0.6414,2.58781c0.05986,0.92931 -0.04072,1.82435 -0.30174,2.68507c-0.25345,0.85213 -0.63869,1.61131 -1.15569,2.27753c-0.50944,0.65763 -1.15623,1.19833 -1.94038,1.62212c-0.7766,0.41518 -1.63361,0.65297 -2.57099,0.71335c-1.2364,0.07964 -2.36328,-0.15613 -3.38064,-0.70731c-1.01788,-0.55924 -1.83138,-1.34671 -2.44047,-2.36235c-0.60154,-1.02425 -0.94238,-2.15863 -1.02254,-3.4031c-0.05726,-0.88891 0.04085,-1.75943 0.29431,-2.61156c0.26103,-0.86073 0.65734,-1.63684 1.18892,-2.32836c0.53158,-0.69152 1.18138,-1.24865 1.94938,-1.67138c0.768,-0.42275 1.60858,-0.66351 2.52171,-0.72235zM276.24952,175.40012c-0.598,0.03852 -1.10373,0.24963 -1.5172,0.63329c-0.40592,0.37507 -0.6957,0.85221 -0.86937,1.43141c-0.17367,0.5792 -0.24125,1.16781 -0.20272,1.76581c0.03904,0.60608 0.18157,1.18115 0.42759,1.72519c0.25359,0.53546 0.60167,0.96339 1.04427,1.28381c0.45017,0.31183 0.97828,0.44821 1.58436,0.40916c0.61415,-0.03955 1.12042,-0.24257 1.51876,-0.60904c0.40592,-0.37507 0.69623,-0.84413 0.87093,-1.40717c0.18226,-0.57163 0.2539,-1.1605 0.21486,-1.76658c-0.03852,-0.598 -0.18079,-1.16904 -0.42682,-1.71309c-0.24655,-0.55214 -0.59541,-0.99219 -1.04661,-1.32018c-0.4512,-0.32798 -0.98387,-0.47219 -1.59803,-0.43263z" fill="#ffffff" stroke="none" stroke-width="0.40889"/><text transform="translate(220.97318,169.29062) rotate(-1.9909) scale(0.19184,0.19184)" font-size="40" xml:space="preserve" fill-opacity="0.70196" fill="#fcfcfc" fill-rule="nonzero" stroke="none" stroke-width="1" stroke-linecap="butt" stroke-linejoin="miter" stroke-miterlimit="10" stroke-dasharray="" stroke-dashoffset="0" font-family="Sans Serif" font-weight="normal" text-anchor="start" style="mix-blend-mode: normal"><tspan x="0" dy="0">Scratch</tspan></text><text transform="translate(252.50154,194.34672) rotate(-4.38915) scale(0.14421,0.14421)" font-size="40" xml:space="preserve" fill-opacity="0.70196" fill="#fcfcfc" fill-rule="nonzero" stroke="none" stroke-width="1" stroke-linecap="butt" stroke-linejoin="miter" stroke-miterlimit="10" stroke-dasharray="" stroke-dashoffset="0" font-family="Sans Serif" font-weight="normal" text-anchor="start" style="mix-blend-mode: normal"><tspan x="0" dy="0">Credit to Nintendo</tspan></text></g></g></svg>