<svg version="1.1" xmlns="http://www.w3.org/2000/svg" xmlns:xlink="http://www.w3.org/1999/xlink" width="240.48108" height="231" viewBox="0,0,240.48108,231"><defs><radialGradient cx="442" cy="312" r="115.5" gradientUnits="userSpaceOnUse" id="color-1"><stop offset="0" stop-color="#ff00ff"/><stop offset="1" stop-color="#ff00ff" stop-opacity="0"/></radialGradient><linearGradient x1="491.51633" y1="365.72268" x2="551.42818" y2="365.72268" gradientUnits="userSpaceOnUse" id="color-2"><stop offset="0" stop-color="#dcd0e8"/><stop offset="1" stop-color="#ffffff"/></linearGradient><linearGradient x1="396.07286" y1="346.08164" x2="430.38808" y2="346.08164" gradientUnits="userSpaceOnUse" id="color-3"><stop offset="0" stop-color="#ffffff"/><stop offset="1" stop-color="#dcd0e8"/></linearGradient><linearGradient x1="408.62648" y1="286.56687" x2="494.78688" y2="372.72727" gradientUnits="userSpaceOnUse" id="color-4"><stop offset="0" stop-color="#f6f3f9"/><stop offset="1" stop-color="#e7def0"/></linearGradient><linearGradient x1="413.08542" y1="352.39275" x2="449.04701" y2="352.39275" gradientUnits="userSpaceOnUse" id="color-5"><stop offset="0" stop-color="#ffffff"/><stop offset="1" stop-color="#eae2f1"/></linearGradient><linearGradient x1="479.42069" y1="289.44803" x2="479.42069" y2="321.82678" gradientUnits="userSpaceOnUse" id="color-6"><stop offset="0" stop-color="#636363"/><stop offset="1" stop-color="#000000"/></linearGradient><linearGradient x1="451.51838" y1="351.29517" x2="506.94461" y2="351.29517" gradientUnits="userSpaceOnUse" id="color-7"><stop offset="0" stop-color="#ffffff"/><stop offset="1" stop-color="#dcd0e8"/></linearGradient><linearGradient x1="395.32646" y1="224.78876" x2="395.32646" y2="261.83225" gradientUnits="userSpaceOnUse" id="color-8"><stop offset="0" stop-color="#000000"/><stop offset="1" stop-color="#636363"/></linearGradient><linearGradient x1="388.60433" y1="239.67153" x2="436.94137" y2="288.00857" gradientUnits="userSpaceOnUse" id="color-9"><stop offset="0" stop-color="#ffffff"/><stop offset="1" stop-color="#e9e0f2"/></linearGradient><linearGradient x1="389.68447" y1="265.03017" x2="389.68447" y2="269.9693" gradientUnits="userSpaceOnUse" id="color-10"><stop offset="0" stop-color="#ffffff"/><stop offset="1" stop-color="#000000"/></linearGradient><linearGradient x1="415.12111" y1="246.72545" x2="415.12111" y2="266.95558" gradientUnits="userSpaceOnUse" id="color-11"><stop offset="0" stop-color="#000000"/><stop offset="1" stop-color="#636363"/></linearGradient><linearGradient x1="447.87792" y1="228.35588" x2="447.87792" y2="264.48139" gradientUnits="userSpaceOnUse" id="color-12"><stop offset="0" stop-color="#ffffff"/><stop offset="1" stop-color="#dcd0e8"/></linearGradient><linearGradient x1="455.56577" y1="233.42675" x2="455.56577" y2="247.69535" gradientUnits="userSpaceOnUse" id="color-13"><stop offset="0" stop-color="#000000"/><stop offset="1" stop-color="#000000" stop-opacity="0"/></linearGradient><linearGradient x1="451.35592" y1="247.87859" x2="451.35592" y2="253.64091" gradientUnits="userSpaceOnUse" id="color-14"><stop offset="0" stop-color="#000000"/><stop offset="1" stop-color="#000000" stop-opacity="0"/></linearGradient><linearGradient x1="459.86219" y1="248.51946" x2="459.86219" y2="258.12332" gradientUnits="userSpaceOnUse" id="color-15"><stop offset="0" stop-color="#000000"/><stop offset="1" stop-color="#000000" stop-opacity="0"/></linearGradient><linearGradient x1="461.73602" y1="240.28665" x2="461.73602" y2="247.42095" gradientUnits="userSpaceOnUse" id="color-16"><stop offset="0" stop-color="#000000"/><stop offset="1" stop-color="#000000" stop-opacity="0"/></linearGradient></defs><g transform="translate(-326.5,-196.5)"><g data-paper-data="{&quot;isPaintingLayer&quot;:true}" fill-rule="nonzero" stroke-linejoin="miter" stroke-miterlimit="10" stroke-dasharray="" stroke-dashoffset="0" style="mix-blend-mode: normal"><path d="M326.5,312c0,-63.78889 51.71111,-115.5 115.5,-115.5c63.78889,0 115.5,51.71111 115.5,115.5c0,63.78889 -51.71111,115.5 -115.5,115.5c-63.78889,0 -115.5,-51.71111 -115.5,-115.5z" fill="url(#color-1)" stroke="none" stroke-width="0" stroke-linecap="butt"/><path d="M498.65608,354.70262l-4.96678,-33.83623l30.11114,27.31733l21.06422,10.7522l22.11642,9.62792l-21.54954,3.53162l-22.86171,-2.83072z" fill="url(#color-2)" stroke="none" stroke-width="0" stroke-linecap="butt"/><path d="M401.83518,386.51567l-2.19516,-9.60387l5.2218,-7.64428l-4.80191,-61.47287l23.17818,-4.42102l7.15,43.98206l-0.56449,35.86722l-14.00156,5.29233z" fill="url(#color-3)" stroke="none" stroke-width="0" stroke-linecap="butt"/><path d="M425.91344,360.92823l-25.52855,-53.23411l1.71067,-9.01232l9.27488,-14.85889l38.68986,-12.89661l12.91691,18.40445l13.02515,11.42271l15.11758,15.45104l-0.17461,60.36432l-38.31912,-0.12618z" fill="url(#color-4)" stroke="none" stroke-width="0" stroke-linecap="butt"/><path d="M415.96658,391.04321l-2.74397,-10.70145l6.31938,-5.99792l0.6408,-66.82203l12.31115,-18.20569l12.97022,39.85074l2.34806,30.39946l-4.68044,29.14451l-11.8064,3.92036z" fill="url(#color-5)" stroke="none" stroke-width="0" stroke-linecap="butt"/><path d="M465.70089,305.36301l-2.46957,-15.91497l15.64058,12.62222l16.73816,19.75652l-16.23891,-3.69058z" fill="url(#color-6)" stroke="none" stroke-width="0" stroke-linecap="butt"/><path d="M460.21624,387.35507l-5.03961,-6.0834l2.59183,-6.76639l15.78657,-5.68584l-17.83591,-7.95393l-4.20074,-14.53978l3.76305,-20.85188l17.29461,-11.95847l22.65835,8.37997l11.71024,20.89149l-0.563,18.45403l-6.48738,8.47188l2.65198,7.53109l-24.47715,12.23179z" fill="url(#color-7)" stroke="none" stroke-width="0" stroke-linecap="butt"/><g><path d="M381.83428,259.26695l-6.67887,-10.97406l7.09413,-17.27407l20.26852,-5.49529l13.71241,2.36653l-5.58183,26.16155z" fill="url(#color-8)" stroke="none" stroke-width="0" stroke-linecap="butt"/><path d="M383.37702,291.09507l-8.19804,-14.64693l4.17235,-11.87558l9.01999,-4.0988l-1.59508,-14.78042l8.37475,-12.56844l23.34053,-9.27919l23.80342,6.68618l15.10116,17.58165l-7.63418,27.07451l-11.14469,9.13922l-18.4912,10.5037l-18.31906,1.49009z" fill="url(#color-9)" stroke="none" stroke-width="0" stroke-linecap="butt"/><path d="M397.71056,264.61858l2.46957,10.28986l-10.70145,2.88116l-9.87826,-2.88116l2.46957,-10.28986z" data-paper-data="{&quot;index&quot;:null}" fill="#000000" stroke="none" stroke-width="0" stroke-linecap="butt"/><path d="M382.89316,269.9693l0.82319,-4.93913h11.93623l-0.82319,4.93913z" fill="url(#color-10)" stroke="none" stroke-width="0" stroke-linecap="butt"/><path d="M410.53913,266.95558l-6.42096,-11.41575l6.93894,-5.3329l15.06694,4.48759l-1.72357,9.56506z" data-paper-data="{&quot;index&quot;:null}" fill="url(#color-11)" stroke="none" stroke-width="0" stroke-linecap="butt"/><path d="M400.66827,256.41103l-3.60701,3.79841l-5.41776,-0.41387l-1.59594,-2.41981l6.68896,-4.07257z" data-paper-data="{&quot;index&quot;:null}" fill="#000000" stroke="none" stroke-width="0" stroke-linecap="butt"/><path d="M436.17353,257.80014l-7.78067,-22.13035l12.97946,-7.31391l20.6304,4.12056l7.55543,18.46557l-9.88413,13.53937z" data-paper-data="{&quot;index&quot;:null}" fill="url(#color-12)" stroke="none" stroke-width="0" stroke-linecap="butt"/><path d="M389.47867,275.32003l0.54879,7.6831" fill="none" stroke="#000000" stroke-width="1.5" stroke-linecap="round"/><path d="M450.21505,241.38424l5.48793,-7.95749l5.21352,5.76232l-5.76232,8.50629z" data-paper-data="{&quot;index&quot;:null}" fill="url(#color-13)" stroke="none" stroke-width="0" stroke-linecap="butt"/><path d="M447.92596,253.64091l2.46957,-5.76232l4.39034,5.76232z" fill="url(#color-14)" stroke="none" stroke-width="0" stroke-linecap="butt"/><path d="M455.33466,257.57453l0.5488,-6.58551l4.71398,1.41964l3.79231,-3.8892l-0.61502,6.61389l-3.22652,2.98998z" fill="url(#color-15)" stroke="none" stroke-width="0" stroke-linecap="butt"/><path d="M458.16886,247.42095l5.21352,-7.13429l1.92077,5.21353z" fill="url(#color-16)" stroke="none" stroke-width="0" stroke-linecap="butt"/></g></g></g></svg>