<svg version="1.1" xmlns="http://www.w3.org/2000/svg" xmlns:xlink="http://www.w3.org/1999/xlink" width="143.38011" height="158.20318" viewBox="0,0,143.38011,158.20318"><defs><linearGradient x1="295.7839" y1="138.43375" x2="270.01927" y2="202.22907" gradientUnits="userSpaceOnUse" id="color-1"><stop offset="0" stop-color="#ffffff"/><stop offset="1" stop-color="#dcd0e8"/></linearGradient><linearGradient x1="297.24811" y1="126.56502" x2="249.26925" y2="142.66921" gradientUnits="userSpaceOnUse" id="color-2"><stop offset="0" stop-color="#dcd0e8"/><stop offset="1" stop-color="#ffffff"/></linearGradient><linearGradient x1="367.40466" y1="139.40742" x2="308.55047" y2="125.94424" gradientUnits="userSpaceOnUse" id="color-3"><stop offset="0" stop-color="#ffffff"/><stop offset="1" stop-color="#dcd0e8"/></linearGradient><linearGradient x1="343.76594" y1="168.29432" x2="232.2399" y2="155.75235" gradientUnits="userSpaceOnUse" id="color-4"><stop offset="0" stop-color="#f6f3f9"/><stop offset="1" stop-color="#e7def0"/></linearGradient><linearGradient x1="286.96315" y1="112.84226" x2="271.6971" y2="135.68452" gradientUnits="userSpaceOnUse" id="color-5"><stop offset="0" stop-color="#636363"/><stop offset="1" stop-color="#000000"/></linearGradient><linearGradient x1="287.05916" y1="179.7929" x2="237.4002" y2="159.84736" gradientUnits="userSpaceOnUse" id="color-6"><stop offset="0" stop-color="#ffffff"/><stop offset="1" stop-color="#dcd0e8"/></linearGradient><linearGradient x1="333.90838" y1="112.69867" x2="298.45034" y2="99.47129" gradientUnits="userSpaceOnUse" id="color-7"><stop offset="0" stop-color="#ffffff"/><stop offset="1" stop-color="#eae2f1"/></linearGradient><linearGradient x1="339.30245" y1="60.0394" x2="339.9535" y2="95.29073" gradientUnits="userSpaceOnUse" id="color-8"><stop offset="0" stop-color="#ffffff"/><stop offset="1" stop-color="#dcd0e8"/></linearGradient><linearGradient x1="357.50528" y1="80.36773" x2="308.35249" y2="108.61018" gradientUnits="userSpaceOnUse" id="color-9"><stop offset="0" stop-color="#ffffff"/><stop offset="1" stop-color="#e9e0f2"/></linearGradient><linearGradient x1="316.47254" y1="66.81795" x2="279.89812" y2="75.94382" gradientUnits="userSpaceOnUse" id="color-10"><stop offset="0" stop-color="#000000"/><stop offset="1" stop-color="#636363"/></linearGradient><linearGradient x1="340.15392" y1="86.08054" x2="335.90373" y2="103.13083" gradientUnits="userSpaceOnUse" id="color-11"><stop offset="0" stop-color="#000000"/><stop offset="1" stop-color="#636363"/></linearGradient><linearGradient x1="334.65439" y1="101.5731" x2="333.61672" y2="105.73589" gradientUnits="userSpaceOnUse" id="color-12"><stop offset="0" stop-color="#ffffff"/><stop offset="1" stop-color="#000000"/></linearGradient></defs><g transform="translate(-232.58096,-55.52605)"><g data-paper-data="{&quot;isPaintingLayer&quot;:true}" fill-rule="nonzero" stroke-linejoin="miter" stroke-miterlimit="10" stroke-dasharray="" stroke-dashoffset="0" style="mix-blend-mode: normal"><path d="M268.06976,206.347l-14.7744,-22.82062l4.92866,-5.36613l-2.93436,-9.46071l5.75532,-15.70219l17.5698,-13.31174l22.29688,3.21115l12.25765,14.23976l-3.70376,18.87305l-8.69244,10.69243l-18.66563,0.2313l4.64871,16.19314l0.02532,6.61986l-6.57516,3.28701z" data-paper-data="{&quot;index&quot;:null}" fill="url(#color-1)" stroke="none" stroke-width="0" stroke-linecap="butt"/><path d="M294.40195,137.29632l-4.19973,11.57215l-10.52872,2.73634l-18.67248,-11.38808l-8.87998,-15.42574l-1.87944,-21.52169l10.60454,13.31997l12.47151,10.51681z" data-paper-data="{&quot;index&quot;:null}" fill="url(#color-2)" stroke="none" stroke-width="0" stroke-linecap="butt"/><path d="M343.97388,169.41344l-22.01588,-8.91714l-15.40665,-25.81285l24.63064,-24.68084l8.3566,9.92077l1.65955,10.88833l26.59765,10.47537l8.16528,10.46187l-2.81661,6.79236z" data-paper-data="{&quot;index&quot;:null}" fill="url(#color-3)" stroke="none" stroke-width="0" stroke-linecap="butt"/><path d="M253.78275,188.24146l-10.09924,-33.61776l32.85425,-35.58001l26.07521,-32.19641l37.24044,9.03818l-18.04024,41.21337l-19.3108,30.05033z" data-paper-data="{&quot;index&quot;:null}" fill="url(#color-4)" stroke="none" stroke-width="0" stroke-linecap="butt"/><path d="M270.74861,134.55894l7.67923,-11.68348l12.0212,-13.06901l-5.30301,16.26379z" data-paper-data="{&quot;index&quot;:null}" fill="url(#color-5)" stroke="none" stroke-width="0" stroke-linecap="butt"/><path d="M249.63107,206.27121l-17.05011,-23.03129l4.91843,-5.37552l-2.95238,-9.45511l5.72539,-15.71312l17.54443,-13.34519l23.12965,1.11046l11.45805,16.27463l-3.6678,18.88006l-8.67206,10.70895l-18.66516,0.26684l4.80945,17.21798l0.03793,6.61981l-6.56889,3.29952z" data-paper-data="{&quot;index&quot;:null}" fill="url(#color-6)" stroke="none" stroke-width="0" stroke-linecap="butt"/><path d="M275.55506,164.17252l-4.9024,-47.84664l6.15531,-11.81013l21.34206,-9.8809l10.99818,2.86941l2.07787,9.30444l-12.64541,7.16722l22.14474,34.31335l-3.40987,20.37855l-23.23656,9.62315z" data-paper-data="{&quot;index&quot;:null}" fill="url(#color-7)" stroke="none" stroke-width="0" stroke-linecap="butt"/><path d="M331.27669,91.43328l-10.85598,-23.90576l12.53356,-7.37084l22.00179,3.94066l8.04709,17.9068l-7.61155,14.06758z" data-paper-data="{&quot;index&quot;:null}" fill="url(#color-8)" stroke="none" stroke-width="0" stroke-linecap="butt"/><path d="M329.35106,128.46509l-21.64988,-8.35994l-19.52097,-20.15979l6.32711,-6.5323l2.10248,-17.84764l17.60361,-15.1379l20.63919,2.02104l18.21218,11.61008l4.97057,11.31674l-2.70523,11.42377l-4.04084,7.09358l1.29422,4.41953l-5.83495,16.02236z" data-paper-data="{&quot;index&quot;:null}" fill="url(#color-9)" stroke="none" stroke-width="0" stroke-linecap="butt"/><path d="M278.07748,66.26927l12.78146,-10.74322l21.40313,1.43166l5.39414,16.14982l-5.86234,12.5607l-25.97414,2.34206z" data-paper-data="{&quot;index&quot;:null}" fill="url(#color-10)" stroke="none" stroke-width="0" stroke-linecap="butt"/><path d="M332.04195,102.16819l-3.01333,-10.97038l10.32548,-5.31665l9.16897,6.13879l-4.23213,10.78818z" data-paper-data="{&quot;index&quot;:null}" fill="url(#color-11)" stroke="none" stroke-width="0" stroke-linecap="butt"/><path d="M322.36495,92.10054l-3.83806,2.44356l-4.47922,-1.48706l0.62796,-5.61832l5.33604,-0.67527z" data-paper-data="{&quot;index&quot;:null}" fill="#000000" stroke="none" stroke-width="0" stroke-linecap="butt"/><path d="M341.50538,102.91243l-0.08043,9.1913l-9.62467,0.17999l-7.72025,-4.50365l4.24321,-8.15362z" data-paper-data="{&quot;index&quot;:null}" fill="#000000" stroke="none" stroke-width="0" stroke-linecap="butt"/><path d="M327.89288,104.3091l1.73147,-3.98983l10.06005,2.50771l-1.73147,3.98983z" fill="url(#color-12)" stroke="none" stroke-width="0" stroke-linecap="butt"/><path d="M331.16747,116.79308l1.15164,-6.59074" fill="none" stroke="#000000" stroke-width="1.5" stroke-linecap="round"/></g></g></svg>