<svg version="1.1" xmlns="http://www.w3.org/2000/svg" xmlns:xlink="http://www.w3.org/1999/xlink" width="177.00672" height="97.89384" viewBox="0,0,177.00672,97.89384"><defs><linearGradient x1="134.47322" y1="205.50213" x2="187.98808" y2="205.50213" gradientUnits="userSpaceOnUse" id="color-1"><stop offset="0" stop-color="#ffffff"/><stop offset="1" stop-color="#dcd0e8"/></linearGradient><linearGradient x1="178.96592" y1="165.8487" x2="209.17361" y2="213.57864" gradientUnits="userSpaceOnUse" id="color-2"><stop offset="0" stop-color="#ffffff"/><stop offset="1" stop-color="#dcd0e8"/></linearGradient><linearGradient x1="59.08791" y1="207.08034" x2="90.69391" y2="207.08034" gradientUnits="userSpaceOnUse" id="color-3"><stop offset="0" stop-color="#ffffff"/><stop offset="1" stop-color="#dcd0e8"/></linearGradient><linearGradient x1="143.87808" y1="168.53659" x2="126.67195" y2="225.55169" gradientUnits="userSpaceOnUse" id="color-4"><stop offset="0" stop-color="#f6f3f9"/><stop offset="1" stop-color="#e7def0"/></linearGradient><linearGradient x1="145.68626" y1="159.90108" x2="158.98343" y2="183.94289" gradientUnits="userSpaceOnUse" id="color-5"><stop offset="0" stop-color="#636363"/><stop offset="1" stop-color="#000000"/></linearGradient><linearGradient x1="154.76809" y1="207.10718" x2="210.08645" y2="207.10718" gradientUnits="userSpaceOnUse" id="color-6"><stop offset="0" stop-color="#ffffff"/><stop offset="1" stop-color="#dcd0e8"/></linearGradient><linearGradient x1="91.65466" y1="153.02731" x2="91.65466" y2="190.63062" gradientUnits="userSpaceOnUse" id="color-7"><stop offset="0" stop-color="#636363"/><stop offset="1" stop-color="#000000"/></linearGradient><linearGradient x1="80.45637" y1="165.43742" x2="124.97714" y2="209.95818" gradientUnits="userSpaceOnUse" id="color-8"><stop offset="0" stop-color="#ffffff"/><stop offset="1" stop-color="#e9e0f2"/></linearGradient><linearGradient x1="80.77615" y1="187.61256" x2="80.77615" y2="192.16173" gradientUnits="userSpaceOnUse" id="color-9"><stop offset="0" stop-color="#ffffff"/><stop offset="1" stop-color="#000000"/></linearGradient><linearGradient x1="106.40287" y1="171.57981" x2="106.40287" y2="190.43679" gradientUnits="userSpaceOnUse" id="color-10"><stop offset="0" stop-color="#000000"/><stop offset="1" stop-color="#636363"/></linearGradient><linearGradient x1="89.03688" y1="213.28408" x2="126.88177" y2="213.28408" gradientUnits="userSpaceOnUse" id="color-11"><stop offset="0" stop-color="#ffffff"/><stop offset="1" stop-color="#eae2f1"/></linearGradient><linearGradient x1="130.01167" y1="156.77465" x2="138.22858" y2="188.61095" gradientUnits="userSpaceOnUse" id="color-12"><stop offset="0" stop-color="#ffffff"/><stop offset="1" stop-color="#dcd0e8"/></linearGradient><linearGradient x1="138.39722" y1="161.88996" x2="138.39722" y2="175.03205" gradientUnits="userSpaceOnUse" id="color-13"><stop offset="0" stop-color="#000000"/><stop offset="1" stop-color="#000000" stop-opacity="0"/></linearGradient><linearGradient x1="135.8699" y1="175.03205" x2="135.8699" y2="180.33943" gradientUnits="userSpaceOnUse" id="color-14"><stop offset="0" stop-color="#000000"/><stop offset="1" stop-color="#000000" stop-opacity="0"/></linearGradient><linearGradient x1="143.7046" y1="175.28476" x2="143.7046" y2="184.13038" gradientUnits="userSpaceOnUse" id="color-15"><stop offset="0" stop-color="#000000"/><stop offset="1" stop-color="#000000" stop-opacity="0"/></linearGradient><linearGradient x1="146.10556" y1="168.20828" x2="146.10556" y2="174.77929" gradientUnits="userSpaceOnUse" id="color-16"><stop offset="0" stop-color="#000000"/><stop offset="1" stop-color="#000000" stop-opacity="0"/></linearGradient></defs><g transform="translate(-62.37345,-152.26378)"><g data-paper-data="{&quot;isPaintingLayer&quot;:true}" fill-rule="nonzero" stroke-linejoin="miter" stroke-miterlimit="10" stroke-dasharray="" stroke-dashoffset="0" style="mix-blend-mode: normal"><path d="M142.87112,234.32663l-4.86582,-4.91242l2.50246,-5.46394l15.24217,-4.59139l-17.22083,-6.4229l-4.05588,-11.74107l3.63328,-16.83817l16.6982,-7.67915l21.87697,4.78946l11.30641,16.87016l-0.54358,14.90187l-6.26367,6.84115l2.56053,6.08146l-24.94661,7.68014z" fill="url(#color-1)" stroke="none" stroke-width="0" stroke-linecap="butt"/><path d="M161.79447,205.56228l-7.5357,-15.58044l7.57125,-13.28807l29.78468,-7.63615l24.24618,6.18686l23.51929,19.21679l-23.81689,-2.38449l-22.82489,2.24535z" data-paper-data="{&quot;index&quot;:null}" fill="url(#color-2)" stroke="none" stroke-width="0" stroke-linecap="butt"/><path d="M64.3953,244.32208l-2.02185,-8.84563l4.80953,-7.04076l23.39556,-6.48475l15.75864,-16.85792l15.98492,-0.46001l-5.30367,21.6868l-18.56952,15.7885l-21.17106,4.05546z" fill="url(#color-3)" stroke="none" stroke-width="0" stroke-linecap="butt"/><path d="M130.93999,229.32746l-29.66473,-3.53486l-20.61252,-41.96504l39.4268,-13.62029l33.74961,2.88367l24.18789,1.90581l5.75883,13.69525l6.86834,19.02741l-26.81134,19.00017z" fill="url(#color-4)" stroke="none" stroke-width="0" stroke-linecap="butt"/><path d="M142.49245,178.8837l-6.87609,-5.72899l13.3888,-0.93427l21.01535,2.30104l-12.58781,6.70692z" fill="url(#color-5)" stroke="none" stroke-width="0" stroke-linecap="butt"/><path d="M163.44902,238.62712l-5.0298,-5.31749l2.58679,-5.91449l15.75586,-4.96999l-17.8012,-6.95252l-4.19257,-12.70923l3.75573,-18.22663l17.26095,-10.4529l22.61425,7.32493l11.68745,18.26126l-0.5619,16.13066l-6.47476,7.40526l2.64682,6.58293l-24.42953,10.69181z" fill="url(#color-6)" stroke="none" stroke-width="0" stroke-linecap="butt"/><path d="M73.65599,178.84948l3.37419,-13.94016l18.96986,-11.882l11.87022,0.34828l1.78307,22.88054l-17.9195,14.3745z" fill="url(#color-7)" stroke="none" stroke-width="0" stroke-linecap="butt"/><path d="M72.94145,213.13853l-6.20064,-13.99685l3.16785,-11.78184l10.33309,-2.76257l-1.46915,-13.61349l7.71355,-11.57615l21.29738,-7.14385l22.1245,4.75556l13.90891,16.19356l-7.03146,24.93694l-10.2648,8.41767l-17.0313,9.67442l-16.87274,1.37244z" fill="url(#color-8)" stroke="none" stroke-width="0" stroke-linecap="butt"/><path d="M88.16857,187.23345l2.27459,9.47746l-9.85656,2.65369l-9.09836,-2.65369l2.27459,-9.47746z" data-paper-data="{&quot;index&quot;:null}" fill="#000000" stroke="none" stroke-width="0" stroke-linecap="butt"/><path d="M74.52103,192.16173l0.7582,-4.54918h10.99385l-0.7582,4.54918z" fill="url(#color-9)" stroke="none" stroke-width="0" stroke-linecap="butt"/><path d="M116.66346,178.80669l-3.20467,11.63011l-12.29183,-0.7562l-5.02468,-10.56658l6.7017,-7.33381z" data-paper-data="{&quot;index&quot;:null}" fill="url(#color-10)" stroke="none" stroke-width="0" stroke-linecap="butt"/><path d="M90.48779,178.44055l-1.78647,4.48167l-4.77509,1.49806l-2.94332,-5.22229l6.37575,-3.88935z" data-paper-data="{&quot;index&quot;:null}" fill="#000000" stroke="none" stroke-width="0" stroke-linecap="butt"/><path d="M80.5866,197.09004l0.50546,7.07651" fill="none" stroke="#000000" stroke-width="1.5" stroke-linecap="round"/><path d="M89.20548,248.50884l-0.88326,-7.79753l10.08646,-9.65796l27.04885,-7.67595l-0.69106,-8.82137l14.41401,-0.52847l12.46386,21.74702l-23.82894,10.90801l-11.27932,3.47503z" fill="url(#color-11)" stroke="none" stroke-width="0" stroke-linecap="butt"/><g stroke="none" stroke-width="0" stroke-linecap="butt"><path d="M124.74493,188.22222l-8.97741,-20.89623l7.5302,-10.38282l20.89626,4.24121l8.6549,10.92647l-4.98989,14.01455z" data-paper-data="{&quot;index&quot;:null}" fill="url(#color-12)"/><path d="M133.46895,169.21921l5.05465,-7.32924l4.80191,5.30738l-5.30738,7.8347z" data-paper-data="{&quot;index&quot;:null}" fill="url(#color-13)"/><path d="M132.71074,180.33943l2.27459,-5.30738l4.04371,5.30738z" fill="url(#color-14)"/><path d="M139.53451,183.62493l0.50547,-6.06557l4.34181,1.30756l3.4929,-3.58215l-0.56646,6.09172l-2.97178,2.75391z" fill="url(#color-15)"/><path d="M142.82003,174.77929l4.80191,-6.57103l1.76912,4.80192z" fill="url(#color-16)"/></g></g></g></svg>