<svg version="1.1" xmlns="http://www.w3.org/2000/svg" xmlns:xlink="http://www.w3.org/1999/xlink" width="80.13905" height="79.49276" viewBox="0,0,80.13905,79.49276"><defs><radialGradient cx="240.00009" cy="180.00001" r="32.79887" gradientUnits="userSpaceOnUse" id="color-1"><stop offset="0" stop-color="#000000"/><stop offset="1" stop-color="#000000" stop-opacity="0"/></radialGradient><linearGradient x1="216.06475" y1="180" x2="263.93543" y2="180" gradientUnits="userSpaceOnUse" id="color-2"><stop offset="0" stop-color="#eb0000"/><stop offset="1" stop-color="#ff7979"/></linearGradient><linearGradient x1="240.41074" y1="156.36207" x2="240.41074" y2="168.57486" gradientUnits="userSpaceOnUse" id="color-3"><stop offset="0" stop-color="#ffffff" stop-opacity="0.59677"/><stop offset="1" stop-color="#ffffff" stop-opacity="0"/></linearGradient><linearGradient x1="213.68665" y1="191.53187" x2="241.78686" y2="191.53187" gradientUnits="userSpaceOnUse" id="color-4"><stop offset="0" stop-color="#9b0000"/><stop offset="1" stop-color="#f64040"/></linearGradient><linearGradient x1="219.29214" y1="152.94869" x2="219.29214" y2="188.18314" gradientUnits="userSpaceOnUse" id="color-5"><stop offset="0" stop-color="#ffffff" stop-opacity="0.75686"/><stop offset="1" stop-color="#ffffff" stop-opacity="0"/></linearGradient></defs><g transform="translate(-199.93054,-140.25362)"><g data-paper-data="{&quot;isPaintingLayer&quot;:true}" fill-rule="nonzero" stroke-linejoin="miter" stroke-miterlimit="10" stroke-dasharray="" stroke-dashoffset="0" style="mix-blend-mode: normal"><path d="M199.93054,219.74638v-79.49276h80.13905v79.49276z" fill="none" stroke="none" stroke-width="NaN" stroke-linecap="butt"/><path d="M272.79895,180c0,18.11431 -14.68455,32.79887 -32.79887,32.79887c-18.11431,0 -32.79887,-14.68455 -32.79887,-32.79887c0,-18.11431 14.68455,-32.79887 32.79887,-32.79887c18.11431,0 32.79887,14.68455 32.79887,32.79887z" data-paper-data="{&quot;index&quot;:null}" fill="url(#color-1)" stroke="#000000" stroke-width="0" stroke-linecap="butt"/><path d="M216.06475,180c0,-13.21912 10.71622,-23.93534 23.93534,-23.93534c13.21912,0 23.93534,10.71622 23.93534,23.93534c0,13.21912 -10.71622,23.93534 -23.93534,23.93534c-13.21912,0 -23.93534,-10.71622 -23.93534,-23.93534z" fill="url(#color-2)" stroke="#000000" stroke-width="0" stroke-linecap="butt"/><path d="M218.2057,171.27052c-0.67177,-1.88707 6.12027,-15.39095 22.33149,-15.1289c14.4679,0.23387 22.1191,13.05562 21.66236,15.94213c-0.45674,2.88651 -14.51822,1.61944 -22.56759,1.42227c-8.0201,-0.19645 -20.75449,-0.34843 -21.42626,-2.23549z" data-paper-data="{&quot;index&quot;:null}" fill="url(#color-3)" stroke="#000000" stroke-width="0" stroke-linecap="butt"/><path d="M220.23852,211.04186l-3.48113,-20.36969l-9.44257,9.57665l6.08064,-23.42223l-2.03835,-19.21879l7.6587,5.24477l10.83379,-10.037l-3.71222,14.13013l4.23351,9.83444l-5.79636,-3.8856l8.33019,12.43755l-4.74631,0.63404l11.72303,9.33592l-4.50083,2.34492l20.82036,9.75499l-19.12097,-1.27677l0.44247,11.20032l-12.96359,-17.96474z" fill="url(#color-4)" stroke="#000000" stroke-width="0" stroke-linecap="butt"/><path d="M209.90114,192.98784l3.38034,-15.86754l-1.92437,-19.36691l7.69591,4.88921l11.2317,-10.4219l-4.22506,14.7877l5.00249,10.51869l-14.73551,-10.45001l3.76629,20.81486z" fill="url(#color-5)" stroke="#000000" stroke-width="0" stroke-linecap="butt"/><g><path d="M258.94674,170.84725c0,0 0.72798,4.29316 0.72798,8.30888c0,4.47938 -0.72798,9.3446 -0.72798,9.3446" fill="none" stroke="#000000" stroke-width="1.5" stroke-linecap="round"/><path d="M255.66331,195.6657l-12.59684,2.89417l2.62486,-17.40401l11.77152,1.06079z" fill="#000000" stroke="none" stroke-width="0" stroke-linecap="butt"/><path d="M257.46286,177.78335l-11.77152,1.21233l-2.62486,-17.55555l12.59684,2.89417z" data-paper-data="{&quot;index&quot;:null}" fill="#000000" stroke="none" stroke-width="0" stroke-linecap="butt"/><path d="M249.0309,175.77772l-1.10989,-6.17056h6.53639l0.8187,5.29698z" fill="#ffffff" stroke="#000000" stroke-width="0" stroke-linecap="butt"/><path d="M247.92101,190.39283l0.9643,-6.17055l6.3908,0.87358l-0.8187,5.29697z" fill="#ffffff" stroke="#000000" stroke-width="0" stroke-linecap="butt"/></g></g></g></svg>