<svg version="1.1" xmlns="http://www.w3.org/2000/svg" xmlns:xlink="http://www.w3.org/1999/xlink" width="37.6" height="43.6" viewBox="0,0,37.6,43.6"><g transform="translate(-221.20009,-158.2)"><g data-paper-data="{&quot;isPaintingLayer&quot;:true}" fill-rule="nonzero" stroke="none" stroke-linecap="butt" stroke-linejoin="miter" stroke-miterlimit="10" stroke-dasharray="" stroke-dashoffset="0" style="mix-blend-mode: normal"><path d="M221.20009,201.8v-43.6h37.6v43.6z" fill="none" stroke-width="0"/><path d="M230.29826,189.99255l6.08005,-6.91375l-5.08365,-5.71404c-0.61004,-0.73204 -0.91506,-1.45053 -0.91506,-2.15547c0,-0.78626 0.3118,-1.47086 0.93539,-2.0538c0.63715,-0.58292 1.35564,-0.87438 2.15547,-0.87438c0.79983,0 1.53187,0.39313 2.19614,1.17939l4.20926,5.24635l4.20926,-5.24635c0.66426,-0.78626 1.39631,-1.17939 2.19614,-1.17939c0.79983,0 1.51154,0.29824 2.13513,0.89472c0.63715,0.58292 0.95573,1.26074 0.95573,2.03345c0,0.70493 -0.30502,1.42342 -0.91506,2.15547l-5.08365,5.71404l6.08005,6.91375c0.24401,0.24401 0.44058,0.54904 0.5897,0.91507c0.16267,0.36601 0.24401,0.73881 0.24401,1.11838c0,0.86762 -0.27791,1.57256 -0.83372,2.1148c-0.54226,0.5287 -1.24719,0.79305 -2.1148,0.79305c-0.61004,0 -1.08451,-0.10167 -1.42342,-0.30501c-0.32535,-0.20334 -0.6846,-0.54226 -1.07773,-1.01674l-4.96165,-6.08004l-4.96165,6.08004c-0.39314,0.47448 -0.75916,0.8134 -1.09807,1.01674c-0.32535,0.20334 -0.79305,0.30501 -1.40309,0.30501c-0.86761,0 -1.57932,-0.26435 -2.13513,-0.79305c-0.54226,-0.54225 -0.81339,-1.24718 -0.81339,-2.1148c0,-0.32534 0.07456,-0.6778 0.22369,-1.05738c0.14912,-0.37959 0.35247,-0.70495 0.61004,-0.97608z" fill="#ff0000" stroke-width="0.40889"/></g></g></svg>