<svg version="1.1" xmlns="http://www.w3.org/2000/svg" xmlns:xlink="http://www.w3.org/1999/xlink" width="37.6" height="43.6" viewBox="0,0,37.6,43.6"><g transform="translate(-221.20008,-158.2)"><g data-paper-data="{&quot;isPaintingLayer&quot;:true}" fill-rule="nonzero" stroke="none" stroke-linecap="butt" stroke-linejoin="miter" stroke-miterlimit="10" stroke-dasharray="" stroke-dashoffset="0" style="mix-blend-mode: normal"><path d="M221.20009,201.8v-43.6h37.6v43.6z" fill="none" stroke-width="0"/><path d="M224.5608,191.55108v-15.983c0,-0.98962 0.27113,-1.78945 0.8134,-2.39947c0.55581,-0.62361 1.28107,-0.93541 2.17579,-0.93541c0.77272,0 1.39632,0.19657 1.8708,0.58971c0.48803,0.39314 0.78627,0.94895 0.89472,1.66743c1.51831,-1.66743 3.37553,-2.50115 5.57168,-2.50115c2.52149,0 4.58884,1.00995 6.20205,3.02985c0.79982,-0.90828 1.79622,-1.64032 2.98918,-2.19613c1.19296,-0.55581 2.30459,-0.83372 3.33489,-0.83372c1.64032,0 3.0773,0.3118 4.31094,0.93539c1.23362,0.61005 2.18934,1.5251 2.86717,2.74518c0.69137,1.22007 1.03706,2.68417 1.03706,4.39229v11.48904c0,0.65072 -0.12878,1.23364 -0.38634,1.74878c-0.25758,0.50159 -0.61683,0.89472 -1.07775,1.17939c-0.46092,0.27114 -0.97606,0.40671 -1.54541,0.40671c-0.89473,0 -1.62,-0.30502 -2.17581,-0.91507c-0.54226,-0.62359 -0.8134,-1.4302 -0.8134,-2.41982v-10.45198c0,-0.81339 -0.14233,-1.5251 -0.427,-2.13515c-0.27114,-0.61003 -0.67106,-1.09128 -1.19976,-1.44374c-0.5287,-0.35247 -1.15229,-0.5287 -1.87077,-0.5287c-1.08451,0 -1.94534,0.37958 -2.5825,1.13873c-0.63715,0.74561 -0.95573,1.73523 -0.95573,2.96886v10.45198c0,0.65072 -0.12878,1.23364 -0.38634,1.74878c-0.25758,0.50159 -0.61683,0.89472 -1.07775,1.17939c-0.46092,0.27114 -0.97607,0.40671 -1.54544,0.40671c-0.89471,0 -1.61998,-0.30502 -2.17579,-0.91507c-0.54226,-0.62359 -0.8134,-1.4302 -0.8134,-2.41982v-10.45198c0,-0.81339 -0.14234,-1.5251 -0.42703,-2.13515c-0.27112,-0.61003 -0.67104,-1.09128 -1.19974,-1.44374c-0.5287,-0.35247 -1.15229,-0.5287 -1.87077,-0.5287c-0.79982,0 -1.46409,0.17623 -1.99279,0.5287c-0.5287,0.3389 -0.92184,0.81338 -1.17942,1.42342c-0.24401,0.61003 -0.36602,1.32852 -0.36602,2.15547v10.45198c0,0.65072 -0.12879,1.23364 -0.38637,1.74878c-0.25756,0.50159 -0.6168,0.89472 -1.07772,1.17939c-0.46092,0.27114 -0.97607,0.40671 -1.54544,0.40671c-0.89471,0 -1.61998,-0.30502 -2.17579,-0.91507c-0.54226,-0.62359 -0.8134,-1.4302 -0.8134,-2.41982z" fill="#ff0000" stroke-width="0.40889"/></g></g></svg>