<svg version="1.1" xmlns="http://www.w3.org/2000/svg" xmlns:xlink="http://www.w3.org/1999/xlink" width="73.56697" height="73.56697" viewBox="0,0,73.56697,73.56697"><defs><radialGradient cx="240.00004" cy="179.86097" r="36.7832" gradientUnits="userSpaceOnUse" id="color-1"><stop offset="0" stop-color="#000000"/><stop offset="1" stop-color="#000000" stop-opacity="0"/></radialGradient><linearGradient x1="240.61944" y1="152.03555" x2="240.61944" y2="207.8544" gradientUnits="userSpaceOnUse" id="color-2"><stop offset="0" stop-color="#ff9292"/><stop offset="1" stop-color="#ff0000"/></linearGradient><linearGradient x1="243.13658" y1="184.87252" x2="267.04858" y2="184.87252" gradientUnits="userSpaceOnUse" id="color-3"><stop offset="0" stop-color="#000000" stop-opacity="0.34118"/><stop offset="1" stop-color="#000000" stop-opacity="0.10588"/></linearGradient><linearGradient x1="241.00036" y1="194.37398" x2="265.46501" y2="194.37398" gradientUnits="userSpaceOnUse" id="color-4"><stop offset="0" stop-color="#000000" stop-opacity="0.34118"/><stop offset="1" stop-color="#000000" stop-opacity="0.10588"/></linearGradient><linearGradient x1="239.22422" y1="203.96083" x2="255.69343" y2="203.96083" gradientUnits="userSpaceOnUse" id="color-5"><stop offset="0" stop-color="#000000" stop-opacity="0.34118"/><stop offset="1" stop-color="#000000" stop-opacity="0.10588"/></linearGradient><linearGradient x1="243.45329" y1="175.52941" x2="267.3653" y2="175.52941" gradientUnits="userSpaceOnUse" id="color-6"><stop offset="0" stop-color="#000000" stop-opacity="0.34118"/><stop offset="1" stop-color="#000000" stop-opacity="0.10588"/></linearGradient><linearGradient x1="242.41626" y1="165.94879" x2="264.52108" y2="165.94879" gradientUnits="userSpaceOnUse" id="color-7"><stop offset="0" stop-color="#000000" stop-opacity="0.34118"/><stop offset="1" stop-color="#000000" stop-opacity="0.10588"/></linearGradient><linearGradient x1="241.27666" y1="157.55583" x2="256.7957" y2="157.55583" gradientUnits="userSpaceOnUse" id="color-8"><stop offset="0" stop-color="#000000" stop-opacity="0.34118"/><stop offset="1" stop-color="#000000" stop-opacity="0.10588"/></linearGradient><linearGradient x1="224.93924" y1="146.35338" x2="224.93924" y2="213.67136" gradientUnits="userSpaceOnUse" id="color-9"><stop offset="0" stop-color="#ea5e5e"/><stop offset="1" stop-color="#661717"/></linearGradient></defs><g transform="translate(-203.21653,-143.07748)"><g data-paper-data="{&quot;isPaintingLayer&quot;:true}" fill-rule="nonzero" stroke-linejoin="miter" stroke-miterlimit="10" stroke-dasharray="" stroke-dashoffset="0" style="mix-blend-mode: normal"><path d="M203.23124,178.83095c0.56886,-20.30684 17.49197,-36.30762 37.79879,-35.73876c20.30684,0.56886 36.30762,17.49197 35.73876,37.79879c-0.56887,20.30684 -17.49197,36.30762 -37.79879,35.73876c-20.30684,-0.56886 -36.30762,-17.49197 -35.73876,-37.79879z" fill="url(#color-1)" stroke="#000000" stroke-width="0" stroke-linecap="butt"/><path d="M238.57788,152.03555c19.04202,3.10503 30.01077,6.42379 30.01077,29.38947c0,20.32639 -11.88317,24.10061 -31.2357,26.42938c-18.13493,2.18226 -24.70274,-6.05712 -24.70274,-29.17804c0,-23.12092 7.9,-29.58045 25.92766,-26.64081z" fill="url(#color-2)" stroke="none" stroke-width="0" stroke-linecap="butt"/><g fill="none" stroke-width="1.5" stroke-linecap="round"><path d="M243.13657,184.79334l24.3807,0.15836" stroke="url(#color-3)"/><path d="M241.00036,194.45316l24.93334,-1.25195" stroke="url(#color-4)"/><path d="M259.44291,201.61313l-20.21869,2.6644" stroke="url(#color-5)"/><path d="M267.3653,175.45024l-23.91201,0.15836" stroke="url(#color-6)"/><path d="M265.14598,167.20074l-22.72972,-1.41031" stroke="url(#color-7)"/><path d="M241.27666,157.39747l18.95608,2.34768" stroke="url(#color-8)"/></g><path d="M242.97879,179.07031c-0.37936,17.26098 -1.55389,37.51093 -8.33749,37.39466c-5.84965,-0.10027 -13.87501,-6.08743 -18.98301,-12.65206c-5.108,-6.56463 -10.226,-16.13742 -10.05199,-24.05525c0.17402,-7.91783 6.18309,-15.97258 10.42408,-22.34905c4.24099,-6.37647 15.17855,-13.48375 20.7114,-13.22749c6.15631,0.28514 6.23701,34.88918 6.23701,34.88918z" fill="url(#color-9)" stroke="none" stroke-width="0" stroke-linecap="butt"/><path d="M221.05555,165.34982c1.0495,0 1.90029,1.02804 1.90029,2.29619c0,1.26815 -0.85079,2.29618 -1.90029,2.29618c-1.0495,0 -1.9003,-1.02803 -1.9003,-2.29618c0,-1.26815 0.8508,-2.29619 1.9003,-2.29619z" fill="#ffffff" stroke="none" stroke-width="0" stroke-linecap="butt"/><path d="M232.14058,190.84541c0.69967,0 1.26686,0.92169 1.26686,2.05865c0,1.13696 -0.56719,2.05866 -1.26686,2.05866c-0.69967,0 -1.26686,-0.92169 -1.26686,-2.05866c0,-1.13696 0.56719,-2.05865 1.26686,-2.05865z" fill="#ffffff" stroke="none" stroke-width="0" stroke-linecap="butt"/><path d="M212.65022,177.86008c1.00577,0 1.82111,0.92169 1.82111,2.05865c0,1.13696 -0.81533,2.05865 -1.82111,2.05865c-1.00577,0 -1.82112,-0.92169 -1.82112,-2.05865c0,-1.13696 0.81533,-2.05865 1.82112,-2.05865z" fill="#000000" stroke="none" stroke-width="0" stroke-linecap="butt"/><path d="M220.38463,152.73183c0.90966,-0.42909 1.68664,-1.69215 1.89185,-1.2571c0.20521,0.43505 -0.36584,2.84726 -1.2755,3.27633c-0.90966,0.42909 -1.81343,0.42424 -2.01865,-0.01082c-0.20521,-0.43505 0.49264,-1.57933 1.4023,-2.00842z" fill="#000000" stroke="none" stroke-width="0" stroke-linecap="butt"/><path d="M223.95196,202.24577c0.96205,0 1.74193,0.92169 1.74193,2.05865c0,1.13696 -0.77989,2.05865 -1.74193,2.05865c-0.96205,0 -1.74193,-0.92169 -1.74193,-2.05865c0,-1.13696 0.77988,-2.05865 1.74193,-2.05865z" fill="#000000" stroke="none" stroke-width="0" stroke-linecap="butt"/><path d="M238.28332,153.94669c0.91831,0 1.66275,0.99259 1.66275,2.217c0,1.22441 -0.74444,2.21701 -1.66275,2.21701c-0.91831,0 -1.66276,-0.99259 -1.66276,-2.21701c0,-1.22441 0.74445,-2.217 1.66276,-2.217z" fill="#ffffff" stroke="none" stroke-width="0" stroke-linecap="butt"/><path d="M239.8669,174.69155c0.83085,0 1.50441,0.88624 1.50441,1.97947c0,1.09323 -0.67355,1.97947 -1.50441,1.97947c-0.83085,0 -1.5044,-0.88623 -1.5044,-1.97947c0,-1.09323 0.67355,-1.97947 1.5044,-1.97947z" fill="#000000" stroke="none" stroke-width="0" stroke-linecap="butt"/><path d="M234.00766,210.16366c0.65593,0 1.18767,0.67354 1.18767,1.5044c0,0.83085 -0.53174,1.5044 -1.18767,1.5044c-0.65593,0 -1.18768,-0.67355 -1.18768,-1.5044c0,-0.83085 0.53175,-1.5044 1.18768,-1.5044z" fill="#ffffff" stroke="none" stroke-width="0" stroke-linecap="butt"/><path d="M211.75841,195.75312c0.26237,0 0.47508,0.38995 0.47508,0.87097c0,0.48102 -0.2127,0.87097 -0.47508,0.87097c-0.26237,0 -0.47507,-0.38994 -0.47507,-0.87097c0,-0.48102 0.2127,-0.87097 0.47507,-0.87097z" fill="#ffffff" stroke="none" stroke-width="0" stroke-linecap="butt"/><path d="M257.0317,161.38647c2.31764,0 4.19648,2.05607 4.19648,4.59237c0,2.53629 -1.87883,4.59237 -4.19648,4.59237c-2.31764,0 -4.19648,-2.05607 -4.19648,-4.59237c0,-2.53629 1.87883,-4.59237 4.19648,-4.59237z" fill="#000000" stroke="none" stroke-width="NaN" stroke-linecap="butt"/><path d="M256.71499,188.5802c2.49257,0 4.5132,2.27858 4.5132,5.08935c0,2.81078 -2.02063,5.08934 -4.5132,5.08934c-2.49256,0 -4.5132,-2.27858 -4.5132,-5.08934c0,-2.81078 2.02063,-5.08935 4.5132,-5.08935z" fill="#000000" stroke="none" stroke-width="0" stroke-linecap="butt"/><path d="M261.38654,185.14012v-10.76831" fill="none" stroke="#000000" stroke-width="1.5" stroke-linecap="round"/></g></g></svg>