<svg version="1.1" xmlns="http://www.w3.org/2000/svg" xmlns:xlink="http://www.w3.org/1999/xlink" width="67.99818" height="67.99819" viewBox="0,0,67.99818,67.99819"><defs><radialGradient cx="240" cy="180.00004" r="33.99909" gradientUnits="userSpaceOnUse" id="color-1"><stop offset="0" stop-color="#000000"/><stop offset="1" stop-color="#000000" stop-opacity="0"/></radialGradient><radialGradient cx="238.41402" cy="180.00001" r="27.02554" gradientUnits="userSpaceOnUse" id="color-2"><stop offset="0" stop-color="#000000"/><stop offset="1" stop-color="#000000" stop-opacity="0"/></radialGradient><linearGradient x1="262.71912" y1="180.00001" x2="213.7565" y2="180.00001" gradientUnits="userSpaceOnUse" id="color-3"><stop offset="0" stop-color="#ff0000"/><stop offset="1" stop-color="#990e0e"/></linearGradient><linearGradient x1="213.5196" y1="179.6114" x2="261.5208" y2="179.6114" gradientUnits="userSpaceOnUse" id="color-4"><stop offset="0" stop-color="#590000"/><stop offset="1" stop-color="#ffffff"/></linearGradient></defs><g transform="translate(-206.00091,-146.00094)"><g data-paper-data="{&quot;isPaintingLayer&quot;:true}" fill-rule="nonzero" stroke-linejoin="miter" stroke-miterlimit="10" stroke-dasharray="" stroke-dashoffset="0" style="mix-blend-mode: normal"><path d="M240,213.99914c-18.77718,0 -33.99909,-15.22192 -33.99909,-33.9991c0,-18.77718 15.22191,-33.99909 33.99909,-33.99909c18.77718,0 33.99909,15.22191 33.99909,33.99909c0,18.77718 -15.22191,33.9991 -33.99909,33.9991z" fill="url(#color-1)" stroke="none" stroke-width="0" stroke-linecap="butt"/><path d="M238.41402,207.02556c-14.25679,0 -25.81419,-12.09975 -25.81419,-27.02554c0,-14.9258 11.55741,-27.02554 25.81419,-27.02554c14.25679,0 25.81419,12.09975 25.81419,27.02554c0,14.9258 -11.55741,27.02554 -25.81419,27.02554z" fill="url(#color-2)" stroke="#000000" stroke-width="0" stroke-linecap="butt"/><path d="M254.24757,160.15203c0,0 5.64639,7.66355 5.94371,19.16496c0.37079,14.34307 -6.09814,21.31636 -6.09814,21.31636" fill="none" stroke="#000000" stroke-width="1.25" stroke-linecap="round"/><path d="M257.55874,158.01513c0,0 9.32505,8.52781 9.81607,21.32625c0.61234,15.96058 -10.07111,23.72026 -10.07111,23.72026" fill="none" stroke="#000000" stroke-width="1.25" stroke-linecap="round"/><path d="M258.43273,156.25005l-6.06106,4.35769" fill="none" stroke="#000000" stroke-width="1.25" stroke-linecap="round"/><path d="M252.02531,199.82696l7.10011,4.56521" fill="none" stroke="#000000" stroke-width="1.25" stroke-linecap="round"/><path d="M266.57186,175.1319h-6.06106" fill="none" stroke="#000000" stroke-width="1.25" stroke-linecap="round"/><path d="M266.2255,187.37494h-5.54153" fill="none" stroke="#000000" stroke-width="1.25" stroke-linecap="round"/><path d="M258.25955,165.37898h4.32933" fill="none" stroke="#000000" stroke-width="1.25" stroke-linecap="round"/><path d="M257.30685,196.98283h4.32933" fill="none" stroke="#000000" stroke-width="1.25" stroke-linecap="round"/><path d="M233.37369,207.01008c-13.51453,-0.49995 -20.00934,-12.99809 -19.60609,-27.91534c0.40326,-14.91724 7.98703,-26.60477 21.50156,-26.10481c13.51452,0.49995 27.84211,12.99809 27.43886,27.91534c-0.40325,14.91724 -15.8198,26.60477 -29.33433,26.10481z" data-paper-data="{&quot;index&quot;:null}" fill="url(#color-3)" stroke="#000000" stroke-width="0" stroke-linecap="butt"/><path d="M213.73717,182.86417c0,0 -0.21758,-1.6255 -0.21758,-3.29732c0,-1.65697 0.32637,-3.09943 0.32637,-3.09943c0,0 8.0007,-1.54348 16.71656,-2.43558c6.10746,-0.62512 12.78757,-0.65354 16.36382,-0.79227c6.68471,-0.25931 14.59445,3.33664 14.59445,3.33664v6.94069c0,0 -7.87514,2.87196 -13.31714,2.67372c-3.57639,-0.13028 -10.69551,0.16676 -16.98487,-0.46813c-9.19449,-0.92816 -17.48161,-2.85832 -17.48161,-2.85832z" fill="url(#color-4)" stroke="#000000" stroke-width="0" stroke-linecap="butt"/><path d="M260.30925,189.90173v-20.6698h2.71971v20.6698z" fill="#ffffff" stroke="#000000" stroke-width="0" stroke-linecap="butt"/></g></g></svg>