<svg version="1.1" xmlns="http://www.w3.org/2000/svg" xmlns:xlink="http://www.w3.org/1999/xlink" width="481.50001" height="360" viewBox="0,0,481.50001,360"><defs><radialGradient cx="240.00006" cy="180" r="240.33333" gradientUnits="userSpaceOnUse" id="color-1"><stop offset="0" stop-color="#c3cfd9"/><stop offset="1" stop-color="#eff4ff"/></radialGradient><radialGradient cx="302.66668" cy="75.37093" r="47.5" gradientUnits="userSpaceOnUse" id="color-2"><stop offset="0" stop-color="#ffffff" stop-opacity="0.28235"/><stop offset="1" stop-color="#ffffff" stop-opacity="0"/></radialGradient><radialGradient cx="241.6667" cy="81.37093" r="47.5" gradientUnits="userSpaceOnUse" id="color-3"><stop offset="0" stop-color="#ffffff" stop-opacity="0.28235"/><stop offset="1" stop-color="#ffffff" stop-opacity="0"/></radialGradient><radialGradient cx="349.66671" cy="122.37093" r="65.5" gradientUnits="userSpaceOnUse" id="color-4"><stop offset="0" stop-color="#ffffff" stop-opacity="0.28235"/><stop offset="1" stop-color="#ffffff" stop-opacity="0"/></radialGradient><radialGradient cx="236.66672" cy="131.37093" r="65.5" gradientUnits="userSpaceOnUse" id="color-5"><stop offset="0" stop-color="#ffffff" stop-opacity="0.28235"/><stop offset="1" stop-color="#ffffff" stop-opacity="0"/></radialGradient><radialGradient cx="326.66668" cy="250.37093" r="65.5" gradientUnits="userSpaceOnUse" id="color-6"><stop offset="0" stop-color="#ffffff" stop-opacity="0.28235"/><stop offset="1" stop-color="#ffffff" stop-opacity="0"/></radialGradient><radialGradient cx="125.66671" cy="256.37093" r="65.5" gradientUnits="userSpaceOnUse" id="color-7"><stop offset="0" stop-color="#ffffff" stop-opacity="0.28235"/><stop offset="1" stop-color="#ffffff" stop-opacity="0"/></radialGradient><radialGradient cx="197.6667" cy="278.37093" r="45.5" gradientUnits="userSpaceOnUse" id="color-8"><stop offset="0" stop-color="#ffffff" stop-opacity="0.28235"/><stop offset="1" stop-color="#ffffff" stop-opacity="0"/></radialGradient><radialGradient cx="169.66672" cy="118.37093" r="45.5" gradientUnits="userSpaceOnUse" id="color-9"><stop offset="0" stop-color="#ffffff" stop-opacity="0.28235"/><stop offset="1" stop-color="#ffffff" stop-opacity="0"/></radialGradient><radialGradient cx="165.1667" cy="131.87093" r="22" gradientUnits="userSpaceOnUse" id="color-10"><stop offset="0" stop-color="#000000" stop-opacity="0.02745"/><stop offset="1" stop-color="#000000" stop-opacity="0"/></radialGradient><radialGradient cx="24.16671" cy="221.87093" r="22" gradientUnits="userSpaceOnUse" id="color-11"><stop offset="0" stop-color="#000000" stop-opacity="0.02745"/><stop offset="1" stop-color="#000000" stop-opacity="0"/></radialGradient><radialGradient cx="342.16671" cy="284.87093" r="22" gradientUnits="userSpaceOnUse" id="color-12"><stop offset="0" stop-color="#000000" stop-opacity="0.02745"/><stop offset="1" stop-color="#000000" stop-opacity="0"/></radialGradient><radialGradient cx="459.16671" cy="135.87093" r="22" gradientUnits="userSpaceOnUse" id="color-13"><stop offset="0" stop-color="#000000" stop-opacity="0.02745"/><stop offset="1" stop-color="#000000" stop-opacity="0"/></radialGradient><radialGradient cx="228.1667" cy="322.87093" r="22" gradientUnits="userSpaceOnUse" id="color-14"><stop offset="0" stop-color="#ffffff" stop-opacity="0.26275"/><stop offset="1" stop-color="#ffffff" stop-opacity="0"/></radialGradient><radialGradient cx="200.1667" cy="313.87093" r="22" gradientUnits="userSpaceOnUse" id="color-15"><stop offset="0" stop-color="#ffffff" stop-opacity="0.26275"/><stop offset="1" stop-color="#ffffff" stop-opacity="0"/></radialGradient><radialGradient cx="362.16671" cy="105.87093" r="22" gradientUnits="userSpaceOnUse" id="color-16"><stop offset="0" stop-color="#ffffff" stop-opacity="0.26275"/><stop offset="1" stop-color="#ffffff" stop-opacity="0"/></radialGradient><radialGradient cx="73.1667" cy="77.87093" r="22" gradientUnits="userSpaceOnUse" id="color-17"><stop offset="0" stop-color="#ffffff" stop-opacity="0.26275"/><stop offset="1" stop-color="#ffffff" stop-opacity="0"/></radialGradient><radialGradient cx="399.16671" cy="247.87093" r="22" gradientUnits="userSpaceOnUse" id="color-18"><stop offset="0" stop-color="#ffffff" stop-opacity="0.26275"/><stop offset="1" stop-color="#ffffff" stop-opacity="0"/></radialGradient><radialGradient cx="258.1667" cy="333.87093" r="22" gradientUnits="userSpaceOnUse" id="color-19"><stop offset="0" stop-color="#000000" stop-opacity="0.02745"/><stop offset="1" stop-color="#000000" stop-opacity="0"/></radialGradient><radialGradient cx="241.66672" cy="136.37093" r="65.5" gradientUnits="userSpaceOnUse" id="color-20"><stop offset="0" stop-color="#ffffff" stop-opacity="0.28235"/><stop offset="1" stop-color="#ffffff" stop-opacity="0"/></radialGradient><radialGradient cx="126.66671" cy="84.37093" r="65.5" gradientUnits="userSpaceOnUse" id="color-21"><stop offset="0" stop-color="#000000" stop-opacity="0.10196"/><stop offset="1" stop-color="#000000" stop-opacity="0"/></radialGradient><radialGradient cx="161.6667" cy="174.37093" r="65.5" gradientUnits="userSpaceOnUse" id="color-22"><stop offset="0" stop-color="#000000" stop-opacity="0.07843"/><stop offset="1" stop-color="#000000" stop-opacity="0"/></radialGradient><radialGradient cx="78.6667" cy="289.37093" r="65.5" gradientUnits="userSpaceOnUse" id="color-23"><stop offset="0" stop-color="#000000" stop-opacity="0.10196"/><stop offset="1" stop-color="#000000" stop-opacity="0"/></radialGradient><radialGradient cx="398.66671" cy="69.37093" r="65.5" gradientUnits="userSpaceOnUse" id="color-24"><stop offset="0" stop-color="#000000" stop-opacity="0.10196"/><stop offset="1" stop-color="#000000" stop-opacity="0"/></radialGradient><radialGradient cx="360.66671" cy="232.37093" r="65.5" gradientUnits="userSpaceOnUse" id="color-25"><stop offset="0" stop-color="#000000" stop-opacity="0.10196"/><stop offset="1" stop-color="#000000" stop-opacity="0"/></radialGradient><radialGradient cx="431.1667" cy="311.87093" r="47" gradientUnits="userSpaceOnUse" id="color-26"><stop offset="0" stop-color="#000000" stop-opacity="0.10196"/><stop offset="1" stop-color="#000000" stop-opacity="0"/></radialGradient></defs><g transform="translate(0.33331,0)"><g data-paper-data="{&quot;isPaintingLayer&quot;:true}" fill-rule="nonzero" stroke-linejoin="miter" stroke-miterlimit="10" stroke-dasharray="" stroke-dashoffset="0" style="mix-blend-mode: normal"><path d="M-0.3333,360v-360h480.66667v360z" fill="url(#color-1)" stroke="#000000" stroke-width="0" stroke-linecap="butt"/><path d="M255.16672,75.37093c0,-26.23353 21.26647,-47.5 47.5,-47.5c26.23353,0 47.5,21.26647 47.5,47.5c0,26.23353 -21.26647,47.5 -47.5,47.5c-26.23353,0 -47.5,-21.26647 -47.5,-47.5z" fill="url(#color-2)" stroke="none" stroke-width="0" stroke-linecap="butt"/><path d="M194.1667,81.37093c0,-26.23353 21.26647,-47.5 47.5,-47.5c26.23353,0 47.5,21.26647 47.5,47.5c0,26.23353 -21.26647,47.5 -47.5,47.5c-26.23353,0 -47.5,-21.26647 -47.5,-47.5z" fill="url(#color-3)" stroke="none" stroke-width="0" stroke-linecap="butt"/><path d="M284.16668,122.37093c0,-36.17466 29.32534,-65.5 65.5,-65.5c36.17466,0 65.5,29.32534 65.5,65.5c0,36.17466 -29.32534,65.5 -65.5,65.5c-36.17466,0 -65.5,-29.32534 -65.5,-65.5z" fill="url(#color-4)" stroke="none" stroke-width="0" stroke-linecap="butt"/><path d="M171.16672,131.37093c0,-36.17465 29.32535,-65.5 65.5,-65.5c36.17465,0 65.5,29.32535 65.5,65.5c0,36.17466 -29.32534,65.5 -65.5,65.5c-36.17465,0 -65.5,-29.32534 -65.5,-65.5z" fill="url(#color-5)" stroke="none" stroke-width="0" stroke-linecap="butt"/><path d="M261.16668,250.37093c0,-36.17465 29.32534,-65.5 65.5,-65.5c36.17465,0 65.5,29.32535 65.5,65.5c0,36.17465 -29.32535,65.5 -65.5,65.5c-36.17466,0 -65.5,-29.32535 -65.5,-65.5z" fill="url(#color-6)" stroke="none" stroke-width="0" stroke-linecap="butt"/><path d="M60.16671,256.37093c0,-36.17465 29.32534,-65.5 65.5,-65.5c36.17465,0 65.5,29.32535 65.5,65.5c0,36.17465 -29.32535,65.5 -65.5,65.5c-36.17466,0 -65.5,-29.32535 -65.5,-65.5z" fill="url(#color-7)" stroke="none" stroke-width="0" stroke-linecap="butt"/><path d="M152.1667,278.37093c0,-25.12896 20.37104,-45.5 45.5,-45.5c25.12896,0 45.5,20.37104 45.5,45.5c0,25.12896 -20.37104,45.5 -45.5,45.5c-25.12896,0 -45.5,-20.37104 -45.5,-45.5z" fill="url(#color-8)" stroke="none" stroke-width="0" stroke-linecap="butt"/><path d="M124.16672,118.37093c0,-25.12895 20.37104,-45.5 45.5,-45.5c25.12895,0 45.5,20.37105 45.5,45.5c0,25.12896 -20.37105,45.5 -45.5,45.5c-25.12896,0 -45.5,-20.37104 -45.5,-45.5z" fill="url(#color-9)" stroke="none" stroke-width="0" stroke-linecap="butt"/><path d="M143.1667,131.87093c0,-12.15026 9.84974,-22 22,-22c12.15026,0 22,9.84973 22,22c0,12.15026 -9.84974,22 -22,22c-12.15026,0 -22,-9.84974 -22,-22z" fill="url(#color-10)" stroke="none" stroke-width="0" stroke-linecap="butt"/><path d="M2.16671,221.87093c0,-12.15026 9.84974,-22 22,-22c12.15027,0 22,9.84974 22,22c0,12.15026 -9.84973,22 -22,22c-12.15026,0 -22,-9.84974 -22,-22z" fill="url(#color-11)" stroke="none" stroke-width="0" stroke-linecap="butt"/><path d="M320.16668,284.87093c0,-12.15026 9.84974,-22 22,-22c12.15026,0 22,9.84974 22,22c0,12.15026 -9.84974,22 -22,22c-12.15026,0 -22,-9.84974 -22,-22z" fill="url(#color-12)" stroke="none" stroke-width="0" stroke-linecap="butt"/><path d="M437.16671,135.87093c0,-12.15026 9.84974,-22 22,-22c12.15026,0 22,9.84974 22,22c0,12.15026 -9.84974,22 -22,22c-12.15026,0 -22,-9.84974 -22,-22z" fill="url(#color-13)" stroke="none" stroke-width="0" stroke-linecap="butt"/><path d="M206.1667,322.87093c0,-12.15026 9.84974,-22 22,-22c12.15026,0 22,9.84974 22,22c0,12.15026 -9.84974,22 -22,22c-12.15026,0 -22,-9.84974 -22,-22z" fill="url(#color-14)" stroke="none" stroke-width="0" stroke-linecap="butt"/><path d="M178.1667,313.87093c0,-12.15026 9.84974,-22 22,-22c12.15026,0 22,9.84974 22,22c0,12.15026 -9.84974,22 -22,22c-12.15026,0 -22,-9.84974 -22,-22z" fill="url(#color-15)" stroke="none" stroke-width="0" stroke-linecap="butt"/><path d="M340.16671,105.87093c0,-12.15027 9.84974,-22 22,-22c12.15026,0 22,9.84973 22,22c0,12.15027 -9.84974,22 -22,22c-12.15026,0 -22,-9.84973 -22,-22z" fill="url(#color-16)" stroke="none" stroke-width="0" stroke-linecap="butt"/><path d="M51.16671,77.87093c0,-12.15027 9.84974,-22 22,-22c12.15027,0 22,9.84973 22,22c0,12.15027 -9.84973,22 -22,22c-12.15026,0 -22,-9.84973 -22,-22z" fill="url(#color-17)" stroke="none" stroke-width="0" stroke-linecap="butt"/><path d="M377.16671,247.87093c0,-12.15026 9.84974,-22 22,-22c12.15026,0 22,9.84974 22,22c0,12.15026 -9.84974,22 -22,22c-12.15026,0 -22,-9.84974 -22,-22z" fill="url(#color-18)" stroke="none" stroke-width="0" stroke-linecap="butt"/><path d="M236.16669,333.87093c0,-12.15026 9.84974,-22 22,-22c12.15026,0 22,9.84974 22,22c0,12.15026 -9.84974,22 -22,22c-12.15026,0 -22,-9.84974 -22,-22z" fill="url(#color-19)" stroke="none" stroke-width="0" stroke-linecap="butt"/><path d="M176.16672,136.37093c0,-36.17465 29.32535,-65.5 65.5,-65.5c36.17465,0 65.5,29.32535 65.5,65.5c0,36.17466 -29.32534,65.5 -65.5,65.5c-36.17465,0 -65.5,-29.32534 -65.5,-65.5z" fill="url(#color-20)" stroke="none" stroke-width="0" stroke-linecap="butt"/><g stroke="none" stroke-width="0" stroke-linecap="butt"><path d="M61.16671,84.37093c0,-36.17466 29.32534,-65.5 65.5,-65.5c36.17466,0 65.5,29.32534 65.5,65.5c0,36.17466 -29.32534,65.5 -65.5,65.5c-36.17466,0 -65.5,-29.32534 -65.5,-65.5z" fill="url(#color-21)"/><path d="M96.16671,174.37093c0,-36.17466 29.32534,-65.5 65.5,-65.5c36.17466,0 65.5,29.32534 65.5,65.5c0,36.17466 -29.32534,65.5 -65.5,65.5c-36.17466,0 -65.5,-29.32534 -65.5,-65.5z" fill="url(#color-22)"/><path d="M13.1667,289.37093c0,-36.17466 29.32534,-65.5 65.5,-65.5c36.17466,0 65.5,29.32534 65.5,65.5c0,36.17466 -29.32534,65.5 -65.5,65.5c-36.17466,0 -65.5,-29.32534 -65.5,-65.5z" fill="url(#color-23)"/><path d="M333.1667,69.37093c0,-36.17466 29.32534,-65.5 65.5,-65.5c36.17466,0 65.5,29.32534 65.5,65.5c0,36.17466 -29.32534,65.5 -65.5,65.5c-36.17466,0 -65.5,-29.32534 -65.5,-65.5z" fill="url(#color-24)"/><path d="M295.16668,232.37093c0,-36.17466 29.32534,-65.5 65.5,-65.5c36.17466,0 65.5,29.32534 65.5,65.5c0,36.17466 -29.32534,65.5 -65.5,65.5c-36.17466,0 -65.5,-29.32534 -65.5,-65.5z" fill="url(#color-25)"/><path d="M384.1667,311.87093c0,-25.95739 21.04261,-47 47,-47c25.95739,0 47,21.04261 47,47c0,25.95739 -21.04261,47 -47,47c-25.95739,0 -47,-21.04261 -47,-47z" fill="url(#color-26)"/></g><g><path d="M76.4998,343.50021l327.00041,-327.00041" fill="none" stroke-opacity="0.10196" stroke="#808080" stroke-width="22.5" stroke-linecap="round"/><path d="M17.0452,343.49963l327.00041,-327.00041" fill="none" stroke-opacity="0.05098" stroke="#000000" stroke-width="22.5" stroke-linecap="round"/><path d="M135.95442,343.49963l327.00041,-327.00041" fill="none" stroke-opacity="0.2" stroke="#ffffff" stroke-width="22.5" stroke-linecap="round"/><path d="M255.1114,343.37577l208.58662,-208.58662" fill="none" stroke-opacity="0.2" stroke="#ffffff" stroke-width="22.5" stroke-linecap="round"/><path d="M463.94576,75.0868l-268.5367,268.5367" fill="none" stroke-opacity="0.05098" stroke="#000000" stroke-width="22.5" stroke-linecap="round"/><path d="M463.39971,194.54208l-148.83443,148.83443" fill="none" stroke-opacity="0.05098" stroke="#000000" stroke-width="22.5" stroke-linecap="round"/><path d="M375.01155,343.37577l88.68647,-87.69556" fill="none" stroke-opacity="0.2" stroke="#ffffff" stroke-width="22.5" stroke-linecap="round"/><path d="M16.30206,225.20972l208.58662,-208.58662" data-paper-data="{&quot;index&quot;:null}" fill="none" stroke-opacity="0.05098" stroke="#000000" stroke-width="22.5" stroke-linecap="round"/><path d="M284.59102,16.37537l-268.5367,268.5367" data-paper-data="{&quot;index&quot;:null}" fill="none" stroke-opacity="0.2" stroke="#ffffff" stroke-width="22.5" stroke-linecap="round"/><path d="M165.4348,16.62235l-148.83443,148.83443" data-paper-data="{&quot;index&quot;:null}" fill="none" stroke-opacity="0.2" stroke="#ffffff" stroke-width="22.5" stroke-linecap="round"/><path d="M104.98853,16.62309l-88.68647,87.69556" data-paper-data="{&quot;index&quot;:null}" fill="none" stroke-opacity="0.05098" stroke="#000000" stroke-width="22.5" stroke-linecap="round"/><path d="M430.50002,332.5c0,-12.15026 9.84974,-22 22,-22c12.15026,0 22,9.84974 22,22c0,12.15026 -9.84974,22 -22,22c-12.15026,0 -22,-9.84974 -22,-22z" fill-opacity="0.05098" fill="#000000" stroke="none" stroke-width="0" stroke-linecap="butt"/><path d="M49.50006,27.5c0,12.15026 -9.84974,22 -22,22c-12.15026,0 -22,-9.84974 -22,-22c0,-12.15026 9.84974,-22 22,-22c12.15026,0 22,9.84974 22,22z" data-paper-data="{&quot;index&quot;:null}" fill-opacity="0.14902" fill="#ffffff" stroke="none" stroke-width="0" stroke-linecap="butt"/></g></g></g></svg>