<svg version="1.1" xmlns="http://www.w3.org/2000/svg" xmlns:xlink="http://www.w3.org/1999/xlink" width="95.1518" height="94.38444" viewBox="0,0,95.1518,94.38444"><defs><radialGradient cx="214.51725" cy="162.0677" r="13.07334" gradientUnits="userSpaceOnUse" id="color-1"><stop offset="0" stop-color="#000000" stop-opacity="0.52549"/><stop offset="1" stop-color="#000000" stop-opacity="0"/></radialGradient><radialGradient cx="217.34868" cy="196.42221" r="13.07334" gradientUnits="userSpaceOnUse" id="color-2"><stop offset="0" stop-color="#000000" stop-opacity="0.52549"/><stop offset="1" stop-color="#000000" stop-opacity="0"/></radialGradient><radialGradient cx="241.51012" cy="180" r="32.79887" gradientUnits="userSpaceOnUse" id="color-3"><stop offset="0" stop-color="#000000"/><stop offset="1" stop-color="#000000" stop-opacity="0"/></radialGradient><linearGradient x1="253.238" y1="180.26932" x2="275.75109" y2="180.26932" gradientUnits="userSpaceOnUse" id="color-4"><stop offset="0" stop-color="#ff0000"/><stop offset="1" stop-color="#ffa6a6"/></linearGradient><linearGradient x1="213.35428" y1="150.54187" x2="213.35428" y2="175.43889" gradientUnits="userSpaceOnUse" id="color-5"><stop offset="0" stop-color="#ffe5e5"/><stop offset="1" stop-color="#ff0000"/></linearGradient><linearGradient x1="213.35427" y1="184.56112" x2="213.35427" y2="209.45814" gradientUnits="userSpaceOnUse" id="color-6"><stop offset="0" stop-color="#ff0000"/><stop offset="1" stop-color="#ffe5e5"/></linearGradient><linearGradient x1="216.07696" y1="180" x2="265.02591" y2="180" gradientUnits="userSpaceOnUse" id="color-7"><stop offset="0" stop-color="#8e0000"/><stop offset="1" stop-color="#e20000"/></linearGradient></defs><g transform="translate(-192.4241,-132.80778)"><g data-paper-data="{&quot;isPaintingLayer&quot;:true}" fill-rule="nonzero" stroke-linejoin="miter" stroke-miterlimit="10" stroke-dasharray="" stroke-dashoffset="0" style="mix-blend-mode: normal"><path d="M214.51725,148.99436c7.2202,0 13.07334,5.85314 13.07334,13.07334c0,7.2202 -5.85314,13.07333 -13.07334,13.07333c-7.2202,0 -13.07334,-5.85313 -13.07334,-13.07333c0,-7.2202 5.85313,-13.07334 13.07334,-13.07334z" data-paper-data="{&quot;index&quot;:null}" fill="url(#color-1)" stroke="#000000" stroke-width="0" stroke-linecap="butt"/><path d="M204.27534,196.42221c0,-7.2202 5.85313,-13.07334 13.07333,-13.07334c7.2202,0 13.07334,5.85313 13.07334,13.07334c0,7.2202 -5.85314,13.07334 -13.07334,13.07334c-7.2202,0 -13.07333,-5.85314 -13.07333,-13.07334z" fill="url(#color-2)" stroke="#000000" stroke-width="0" stroke-linecap="butt"/><path d="M192.4241,227.19222v-94.38444h95.1518v94.38444z" fill="none" stroke="none" stroke-width="NaN" stroke-linecap="butt"/><path d="M208.71124,180c0,-18.11432 14.68456,-32.79887 32.79887,-32.79887c18.11432,0 32.79887,14.68456 32.79887,32.79887c0,18.11432 -14.68456,32.79887 -32.79887,32.79887c-18.11432,0 -32.79887,-14.68456 -32.79887,-32.79887z" fill="url(#color-3)" stroke="#000000" stroke-width="0" stroke-linecap="butt"/><path d="M273.10843,180.26932c0,9.15838 -3.90717,16.5827 -10.12399,16.5827c-6.21681,0 -9.97913,1.19646 -9.74645,-16.58269c0.22421,-17.13133 3.52964,-16.58269 9.74645,-16.58269c6.21681,0 10.12399,7.42431 10.12399,16.58269z" fill="url(#color-4)" stroke="#000000" stroke-width="0" stroke-linecap="butt"/><path d="M199.48317,150.54187l27.74221,7.21316l-8.90778,17.68386z" fill="url(#color-5)" stroke="none" stroke-width="0" stroke-linecap="butt"/><path d="M218.31759,184.56112l8.90778,17.68386l-27.74221,7.21316z" data-paper-data="{&quot;index&quot;:null}" fill="url(#color-6)" stroke="none" stroke-width="0" stroke-linecap="butt"/><path d="M216.07696,180c0,-14.5787 10.9576,-26.39705 24.47448,-26.39705c8.09581,0 16.19495,10.62217 16.19495,10.62217c0,0 11.61613,-4.9883 11.65577,15.5422c0.04149,21.48281 -12.29845,16.45952 -12.29845,16.45952c0,0 -7.76847,10.17021 -15.55227,10.17021c-13.51689,0 -24.47448,-11.81837 -24.47448,-26.39705z" fill="url(#color-7)" stroke="#000000" stroke-width="0" stroke-linecap="butt"/><path d="M269.25547,174.9714h-2.6994" fill="none" stroke="#000000" stroke-width="1.5" stroke-linecap="round"/><path d="M269.41426,185.6102h-2.85819" fill="none" stroke="#000000" stroke-width="1.5" stroke-linecap="round"/><path d="M246.16392,190.6726c0,-2.44128 1.97905,-4.42033 4.42033,-4.42033c2.44128,0 4.42033,1.97905 4.42033,4.42033c0,2.44128 -1.97905,4.42033 -4.42033,4.42033c-2.44128,0 -4.42033,-1.97905 -4.42033,-4.42033z" fill="#000000" stroke="#000000" stroke-width="0" stroke-linecap="butt"/><path d="M246.21315,169.32741c0,-2.44128 1.97905,-4.42033 4.42033,-4.42033c2.44128,0 4.42033,1.97905 4.42033,4.42033c0,2.44128 -1.97905,4.42033 -4.42033,4.42033c-2.44128,0 -4.42033,-1.97905 -4.42033,-4.42033z" fill="#000000" stroke="#000000" stroke-width="0" stroke-linecap="butt"/></g></g></svg>