<svg version="1.1" xmlns="http://www.w3.org/2000/svg" xmlns:xlink="http://www.w3.org/1999/xlink" width="224.13135" height="224.13135" viewBox="0,0,224.13135,224.13135"><defs><radialGradient cx="230.7953" cy="176.51565" r="49.81448" gradientUnits="userSpaceOnUse" id="color-1"><stop offset="0" stop-color="#ff0000"/><stop offset="1" stop-color="#ff0000" stop-opacity="0"/></radialGradient><linearGradient x1="233.63978" y1="187.48084" x2="152.43304" y2="182.83141" gradientUnits="userSpaceOnUse" id="color-2"><stop offset="0" stop-color="#000000"/><stop offset="1" stop-color="#ff2e54"/></linearGradient><linearGradient x1="194.70539" y1="196.25821" x2="210.24657" y2="200.14384" gradientUnits="userSpaceOnUse" id="color-3"><stop offset="0" stop-color="#ff0000"/><stop offset="1" stop-color="#930000"/></linearGradient><linearGradient x1="207.05875" y1="195.73217" x2="219.67031" y2="198.88532" gradientUnits="userSpaceOnUse" id="color-4"><stop offset="0" stop-color="#8e0000"/><stop offset="1" stop-color="#ff0000"/></linearGradient><linearGradient x1="205.76947" y1="189.47722" x2="212.9124" y2="191.2631" gradientUnits="userSpaceOnUse" id="color-5"><stop offset="0" stop-color="#d60000"/><stop offset="1" stop-color="#600000"/></linearGradient><linearGradient x1="187.50989" y1="187.67007" x2="196.57259" y2="189.93595" gradientUnits="userSpaceOnUse" id="color-6"><stop offset="0" stop-color="#ff0000"/><stop offset="1" stop-color="#930000"/></linearGradient><radialGradient cx="192.95696" cy="189.34159" r="11.86467" gradientUnits="userSpaceOnUse" id="color-7"><stop offset="0" stop-color="#ff6060"/><stop offset="1" stop-color="#ff6060" stop-opacity="0"/></radialGradient><radialGradient cx="181.33727" cy="183.06579" r="7.42946" gradientUnits="userSpaceOnUse" id="color-8"><stop offset="0" stop-color="#ff6060"/><stop offset="1" stop-color="#ff6060" stop-opacity="0"/></radialGradient><linearGradient x1="235.04679" y1="166.84781" x2="154.3851" y2="156.36719" gradientUnits="userSpaceOnUse" id="color-9"><stop offset="0" stop-color="#000000"/><stop offset="1" stop-color="#ff2e54"/></linearGradient><linearGradient x1="199.15223" y1="157.73171" x2="215.15007" y2="157.53544" gradientUnits="userSpaceOnUse" id="color-10"><stop offset="0" stop-color="#ff0000"/><stop offset="1" stop-color="#930000"/></linearGradient><linearGradient x1="211.06052" y1="161.0787" x2="224.04267" y2="160.91942" gradientUnits="userSpaceOnUse" id="color-11"><stop offset="0" stop-color="#8e0000"/><stop offset="1" stop-color="#ff0000"/></linearGradient><linearGradient x1="208.40718" y1="166.84434" x2="215.75999" y2="166.75414" gradientUnits="userSpaceOnUse" id="color-12"><stop offset="0" stop-color="#d60000"/><stop offset="1" stop-color="#600000"/></linearGradient><linearGradient x1="190.22766" y1="164.40201" x2="199.55665" y2="164.28754" gradientUnits="userSpaceOnUse" id="color-13"><stop offset="0" stop-color="#ff0000"/><stop offset="1" stop-color="#930000"/></linearGradient><radialGradient cx="181.15101" cy="167.39706" r="7.99924" gradientUnits="userSpaceOnUse" id="color-14"><stop offset="0" stop-color="#ff6060"/><stop offset="1" stop-color="#ff6060" stop-opacity="0"/></radialGradient><radialGradient cx="195.89358" cy="164.70652" r="12.66022" gradientUnits="userSpaceOnUse" id="color-15"><stop offset="0" stop-color="#ff6060"/><stop offset="1" stop-color="#ff6060" stop-opacity="0"/></radialGradient><linearGradient x1="253.0802" y1="178.57877" x2="209.67919" y2="178.57877" gradientUnits="userSpaceOnUse" id="color-16"><stop offset="0" stop-color="#000000"/><stop offset="1" stop-color="#ff365a"/></linearGradient><linearGradient x1="324.45823" y1="180.39647" x2="238.25566" y2="180.39647" gradientUnits="userSpaceOnUse" id="color-17"><stop offset="0" stop-color="#ff4949"/><stop offset="1" stop-color="#cc0025"/></linearGradient><linearGradient x1="321.68828" y1="185.42124" x2="243.08409" y2="185.42124" gradientUnits="userSpaceOnUse" id="color-18"><stop offset="0" stop-color="#ffffff" stop-opacity="0.78431"/><stop offset="1" stop-color="#e30000"/></linearGradient><radialGradient cx="287.49331" cy="185.41542" r="23.77378" gradientUnits="userSpaceOnUse" id="color-19"><stop offset="0" stop-color="#ff5656"/><stop offset="1" stop-color="#ff5656" stop-opacity="0"/></radialGradient><radialGradient cx="278.32276" cy="194.87582" r="19.12627" gradientUnits="userSpaceOnUse" id="color-20"><stop offset="0" stop-color="#ff5656"/><stop offset="1" stop-color="#ff5656" stop-opacity="0"/></radialGradient><radialGradient cx="279.56206" cy="176.14878" r="17.33877" gradientUnits="userSpaceOnUse" id="color-21"><stop offset="0" stop-color="#ff6d6d"/><stop offset="1" stop-color="#ff6d6d" stop-opacity="0"/></radialGradient><radialGradient cx="289.37177" cy="204.89168" r="9.83127" gradientUnits="userSpaceOnUse" id="color-22"><stop offset="0" stop-color="#ff4e4e"/><stop offset="1" stop-color="#ff4e4e" stop-opacity="0"/></radialGradient><radialGradient cx="291.60511" cy="165.61651" r="9.83127" gradientUnits="userSpaceOnUse" id="color-23"><stop offset="0" stop-color="#ff4e4e"/><stop offset="1" stop-color="#ff4e4e" stop-opacity="0"/></radialGradient><radialGradient cx="302.29495" cy="197.26259" r="11.83036" gradientUnits="userSpaceOnUse" id="color-24"><stop offset="0" stop-color="#ff7e7e"/><stop offset="1" stop-color="#ff7e7e" stop-opacity="0"/></radialGradient><radialGradient cx="306.53653" cy="185.70383" r="7.97612" gradientUnits="userSpaceOnUse" id="color-25"><stop offset="0" stop-color="#ff8989"/><stop offset="1" stop-color="#ff8989" stop-opacity="0"/></radialGradient><radialGradient cx="298.07655" cy="177.27205" r="7.97612" gradientUnits="userSpaceOnUse" id="color-26"><stop offset="0" stop-color="#ff6060"/><stop offset="1" stop-color="#ff6060" stop-opacity="0"/></radialGradient><radialGradient cx="298.45331" cy="198.33312" r="7.40798" gradientUnits="userSpaceOnUse" id="color-27"><stop offset="0" stop-color="#ff7e7e"/><stop offset="1" stop-color="#ff7e7e" stop-opacity="0"/></radialGradient><radialGradient cx="299.21597" cy="178.49829" r="12.62361" gradientUnits="userSpaceOnUse" id="color-28"><stop offset="0" stop-color="#ff6060"/><stop offset="1" stop-color="#ff6060" stop-opacity="0"/></radialGradient><radialGradient cx="303.87733" cy="195.54741" r="4.91254" gradientUnits="userSpaceOnUse" id="color-29"><stop offset="0" stop-color="#ffb5b5"/><stop offset="1" stop-color="#ffb5b5" stop-opacity="0"/></radialGradient><radialGradient cx="299.17309" cy="192.40647" r="11.83035" gradientUnits="userSpaceOnUse" id="color-30"><stop offset="0" stop-color="#ff6060"/><stop offset="1" stop-color="#ff6060" stop-opacity="0"/></radialGradient><radialGradient cx="295.09731" cy="180.58226" r="7.40798" gradientUnits="userSpaceOnUse" id="color-31"><stop offset="0" stop-color="#ff6060"/><stop offset="1" stop-color="#ff6060" stop-opacity="0"/></radialGradient><radialGradient cx="233.42861" cy="176.52711" r="49.81448" gradientUnits="userSpaceOnUse" id="color-32"><stop offset="0" stop-color="#ff002e"/><stop offset="1" stop-color="#ff002e" stop-opacity="0"/></radialGradient><linearGradient x1="253.89041" y1="174.48013" x2="285.94538" y2="228.06055" gradientUnits="userSpaceOnUse" id="color-33"><stop offset="0" stop-color="#ffffff" stop-opacity="0"/><stop offset="1" stop-color="#ffffff" stop-opacity="0.50196"/></linearGradient><linearGradient x1="284.13496" y1="152.71199" x2="284.13496" y2="226.64827" gradientUnits="userSpaceOnUse" id="color-34"><stop offset="0" stop-color="#ff002e" stop-opacity="0"/><stop offset="1" stop-color="#ff002e"/></linearGradient><linearGradient x1="200.93346" y1="131.32942" x2="200.93346" y2="207.28214" gradientUnits="userSpaceOnUse" id="color-35"><stop offset="0" stop-color="#ff002e" stop-opacity="0"/><stop offset="1" stop-color="#ff002e"/></linearGradient><linearGradient x1="281.62258" y1="123.86155" x2="281.62258" y2="175.46412" gradientUnits="userSpaceOnUse" id="color-36"><stop offset="0" stop-color="#ff002e"/><stop offset="1" stop-color="#ff002e" stop-opacity="0"/></linearGradient><linearGradient x1="248.11056" y1="145.26455" x2="233.02973" y2="224.74036" gradientUnits="userSpaceOnUse" id="color-37"><stop offset="0" stop-color="#ff002e" stop-opacity="0"/><stop offset="1" stop-color="#ff002e"/></linearGradient><linearGradient x1="184.91933" y1="129.79295" x2="184.91933" y2="225.16908" gradientUnits="userSpaceOnUse" id="color-38"><stop offset="0" stop-color="#ffffff" stop-opacity="0"/><stop offset="1" stop-color="#ffffff" stop-opacity="0.50196"/></linearGradient><linearGradient x1="238.4681" y1="194.12907" x2="219.8541" y2="139.88014" gradientUnits="userSpaceOnUse" id="color-39"><stop offset="0" stop-color="#ffffff" stop-opacity="0"/><stop offset="1" stop-color="#ffffff" stop-opacity="0.50196"/></linearGradient></defs><g transform="translate(-127.93433,-67.93433)"><g data-paper-data="{&quot;isPaintingLayer&quot;:true}" fill-rule="nonzero" stroke-width="0" stroke-linecap="butt" stroke-linejoin="miter" stroke-miterlimit="10" stroke-dasharray="" stroke-dashoffset="0" style="mix-blend-mode: normal"><path d="M230.7953,126.70117c27.51178,0 49.81449,22.3027 49.81449,49.81448c0,27.51178 -22.30271,49.81448 -49.81449,49.81448c-27.51178,0 -49.81448,-22.3027 -49.81448,-49.81448c0,-27.51178 22.3027,-49.81448 49.81448,-49.81448z" data-paper-data="{&quot;index&quot;:null}" fill="url(#color-1)" stroke="none"/><path d="M174.35365,180.57274c-5.50841,-1.45933 -9.67635,8.91112 -14.50215,6.08417c-2.46862,-1.44611 2.83882,-17.09787 14.20183,-16.04001c19.56123,1.8211 15.82158,6.76692 23.98352,10.08576c10.84917,4.41152 27.96195,-11.87902 27.96195,-11.87902l8.08501,19.64897c0,0 -21.63995,29.67709 -46.48814,8.29372c-9.36448,-8.0587 -7.73362,-14.73426 -13.24203,-16.19359z" data-paper-data="{&quot;index&quot;:null}" fill="url(#color-2)" stroke="#000000"/><g data-paper-data="{&quot;index&quot;:null}" stroke="none"><path d="M210.24655,200.14385c-0.68541,2.41256 -4.72006,3.49851 -9.01164,2.42552c-4.29159,-1.07299 -7.21496,-3.89858 -6.52955,-6.31116c0.68541,-2.41257 4.72005,-3.49853 9.01163,-2.42554c4.29159,1.07298 7.21498,3.89858 6.52956,6.31116z" fill="url(#color-3)"/><path d="M212.35742,200.85363c-3.4826,-0.87072 -5.85488,-3.16367 -5.29867,-5.12146c0.55621,-1.9578 3.83029,-2.83902 7.31287,-1.9683c3.4826,0.87072 5.8549,3.16367 5.29869,5.12146c-0.55621,1.9578 -3.8303,2.83902 -7.31288,1.9683z" fill="url(#color-4)"/><path d="M212.91242,191.26309c-0.31503,1.10887 -2.16941,1.60798 -4.14189,1.11481c-1.97246,-0.49315 -3.31608,-1.79182 -3.00105,-2.90068c0.31502,-1.10886 2.16938,-1.60796 4.14185,-1.1148c1.97246,0.49316 3.31611,1.79184 3.00108,2.90068z" fill="url(#color-5)"/><path d="M191.31753,191.35037c-2.50261,-0.6257 -4.20732,-2.27343 -3.80764,-3.68028c0.39969,-1.40687 2.75244,-2.04012 5.25503,-1.41442c2.50261,0.6257 4.20733,2.27341 3.80764,3.68028c-0.39969,1.40687 -2.75245,2.04012 -5.25503,1.41442z" fill="url(#color-6)"/><path d="M189.9545,199.90993c-6.33777,-1.58458 -10.13125,-7.60071 -8.47304,-13.43747c1.65821,-5.83676 8.14018,-9.2838 14.47793,-7.69923c6.33777,1.58459 10.13127,7.60071 8.47306,13.43747c-1.65821,5.83676 -8.14021,9.28381 -14.47796,7.69924z" fill="url(#color-7)"/><path d="M179.45718,189.68352c-3.9686,-0.99223 -6.34404,-4.75946 -5.3057,-8.41432c1.03834,-3.65487 5.09726,-5.81336 9.06586,-4.82112c3.9686,0.99223 6.34405,4.75947 5.30571,8.41433c-1.03834,3.65486 -5.09727,5.81335 -9.06587,4.82112z" fill="url(#color-8)"/></g><path d="M175.50977,162.63096c5.68267,-0.40728 5.31265,-7.23437 16.00331,-13.37903c28.36715,-16.30455 44.15321,16.70861 44.15321,16.70861l-11.57345,17.71083c0,0 -13.80895,-19.09026 -25.2852,-16.78539c-8.63368,1.73397 -5.87192,7.26043 -25.43133,5.42119c-11.36195,-1.06839 -13.68757,-17.34993 -10.99459,-18.30674c5.26439,-1.87043 7.44538,9.03781 13.12805,8.63053z" data-paper-data="{&quot;index&quot;:null}" fill="url(#color-9)" stroke="#000000"/><g data-paper-data="{&quot;index&quot;:null}" stroke="none"><path d="M207.38278,162.15203c-4.41768,0.0542 -8.1026,-1.92484 -8.23053,-4.42031c-0.12792,-2.49548 3.3496,-4.5624 7.76727,-4.6166c4.41768,-0.0542 8.10263,1.92484 8.23055,4.42033c0.12792,2.49547 -3.34962,4.56237 -7.76729,4.61658z" data-paper-data="{&quot;index&quot;:null}" fill="url(#color-10)"/><path d="M224.04267,160.91943c0.10381,2.02506 -2.71819,3.70235 -6.3031,3.74632c-3.58492,0.04398 -6.5752,-1.562 -6.67901,-3.58707c-0.10381,-2.02507 2.71817,-3.70235 6.30308,-3.74633c3.58492,-0.04398 6.57522,1.56199 6.67903,3.58706z" data-paper-data="{&quot;index&quot;:null}" fill="url(#color-11)"/><path d="M215.76,166.75414c0.0588,1.14696 -1.53953,2.09692 -3.56996,2.12184c-2.03043,0.02492 -3.72406,-0.88468 -3.78285,-2.03162c-0.0588,-1.14697 1.53951,-2.09693 3.56993,-2.12185c2.03042,-0.02491 3.72408,0.88468 3.78287,2.03164z" data-paper-data="{&quot;index&quot;:null}" fill="url(#color-12)"/><path d="M199.55667,164.28756c0.0746,1.45521 -1.95328,2.66049 -4.52941,2.6921c-2.57614,0.03161 -4.72495,-1.12244 -4.79955,-2.57766c-0.07461,-1.45522 1.95327,-2.66053 4.52939,-2.69214c2.57613,-0.03161 4.72495,1.12247 4.79954,2.57768z" data-paper-data="{&quot;index&quot;:null}" fill="url(#color-13)"/><path d="M173.18681,167.49477c-0.20866,-4.07042 3.18789,-7.41385 7.58638,-7.46782c4.39852,-0.05397 8.13334,3.20199 8.34201,7.27239c0.20867,4.07041 -3.18788,7.41384 -7.58639,7.4678c-4.39851,0.05396 -8.13333,-3.20198 -8.342,-7.27237z" fill="url(#color-14)"/><path d="M196.49155,176.37102c-6.96142,0.08541 -12.87246,-5.06771 -13.2027,-11.50983c-0.33024,-6.44213 5.04538,-11.73374 12.0068,-11.81914c6.96144,-0.08541 12.87248,5.06772 13.20272,11.50984c0.33023,6.44213 -5.0454,11.73373 -12.00683,11.81914z" fill="url(#color-15)"/></g><path d="M214.15734,200.13446c1.31944,-9.75095 8.6221,-13.01822 8.6221,-13.01822l-17.92259,-8.33315l18.98794,-8.93037c0,0 -8.86561,-3.46741 -9.47723,-10.32546c-1.28782,-14.44019 7.11302,-20.75525 7.11302,-20.75525c0,0 3.3716,14.66447 9.4055,17.27248c7.20306,3.11335 22.19412,-0.9088 22.19412,-0.9088v46.88619c0,0 -14.00993,-3.5045 -21.41556,-2.75014c-4.12319,0.41999 -11.2729,17.32681 -11.2729,17.32681c0,0 -7.33617,-8.3218 -6.2344,-16.46409z" data-paper-data="{&quot;index&quot;:null}" fill="url(#color-16)" stroke="#ff0000"/><path d="M307.14375,210.97378c-19.15655,13.69171 -40.25193,7.80688 -47.66802,2.69125c-7.89246,-5.44424 -9.59778,-8.67013 -13.70462,-15.05786c-4.10684,-6.38772 -7.51545,-17.6111 -7.51545,-17.6111l7.76217,-18.12328c0,0 3.28908,-8.64757 14.17199,-16.10249c9.97279,-6.83148 32.70544,-8.5557 47.04523,3.04121c9.49204,7.67643 17.16066,15.58624 17.22277,29.67871c0.03683,8.35684 -2.36872,20.80171 -17.31407,31.48356z" data-paper-data="{&quot;index&quot;:null}" fill="url(#color-17)" stroke="#000000"/><g data-paper-data="{&quot;index&quot;:null}"><path d="M241.89614,199.92187c-3.99844,0 -8.03966,-0.66056 -9.55868,-3.63708c-0.53448,-1.04731 -0.22854,-3.62247 -0.22854,-4.8412c0,-4.68242 4.38189,-8.47827 9.78722,-8.47827c5.40533,0 9.78722,3.79585 9.78722,8.47827c0,4.68242 -4.38189,8.47827 -9.78722,8.47827z" fill="#000000" stroke="none"/><path d="M232.10892,179.28017c0,-1.40304 0.39343,-4.54768 1.08993,-5.71326c1.62794,-2.72434 4.91161,-2.76502 8.69729,-2.76502c5.40533,0 9.78722,3.79586 9.78722,8.47828c0,4.68242 -4.38189,8.47827 -9.78722,8.47827c-5.40533,0 -9.78722,-3.79585 -9.78722,-8.47827z" fill="#000000" stroke="none"/><path d="M234.77668,191.01259c0,-3.54819 3.79274,-6.42457 8.47134,-6.42457c4.67859,0 8.47133,2.87637 8.47133,6.42457c0,3.54819 -3.79275,6.42457 -8.47133,6.42457c-4.6786,0 -8.47134,-2.87637 -8.47134,-6.42457z" fill="#ffffff" stroke="#000000"/><path d="M234.77668,179.71118c0,-3.54819 3.79274,-6.42457 8.47134,-6.42457c4.67859,0 8.47133,2.87637 8.47133,6.42457c0,3.54819 -3.79275,6.42457 -8.47133,6.42457c-4.6786,0 -8.47134,-2.87637 -8.47134,-6.42457z" fill="#ffffff" stroke="#000000"/><path d="M241.61396,189.26353c0,-1.45286 1.75423,-2.63063 3.91815,-2.63063c2.16393,0 3.91815,1.17777 3.91815,2.63063c0,1.45286 -1.75423,2.63063 -3.91815,2.63063c-2.16393,0 -3.91815,-1.17777 -3.91815,-2.63063z" fill="#000000" stroke="none"/><path d="M241.34913,181.71557c0,-1.45286 1.75423,-2.63063 3.91815,-2.63063c2.16393,0 3.91815,1.17777 3.91815,2.63063c0,1.45286 -1.75423,2.63063 -3.91815,2.63063c-2.16393,0 -3.91815,-1.17777 -3.91815,-2.63063z" fill="#000000" stroke="none"/></g><path d="M251.9245,198.3565c0,0 -8.89274,-8.13279 -8.84017,-12.16388c0.05419,-4.15302 8.63444,-11.99195 8.63444,-11.99195c0,0 8.6423,-0.00236 13.76732,0.80912c5.2949,0.83837 17.50903,4.55472 17.50903,4.55472l26.1876,3.23784l-30.8944,-17.82888l30.95594,9.52282l-13.30961,-15.95868c0,0 11.05089,5.90278 14.94282,10.18338c4.45074,4.89522 7.4251,10.69836 7.81081,16.97477c0.3857,6.2764 -3.29545,13.04006 -6.57544,16.56701c-4.73873,5.09553 -16.12746,10.8653 -16.12746,10.8653l13.40656,-14.94501l-32.6946,8.53063l31.75681,-16.58309l-25.38828,2.52265c0,0 -12.37328,4.04554 -17.89,5.09233c-4.74795,0.90091 -13.25138,0.61088 -13.25138,0.61088z" data-paper-data="{&quot;index&quot;:null}" fill="url(#color-18)" stroke="#ff0000"/><g data-paper-data="{&quot;index&quot;:null}" stroke="none"><path d="M287.4933,204.98637c-13.1299,0 -23.77378,-8.76221 -23.77378,-19.57094c0,-10.80874 10.64388,-19.57094 23.77379,-19.57094c13.12991,0 23.77379,8.76221 23.77379,19.57094c0,10.80873 -10.64388,19.57094 -23.77379,19.57094z" fill="url(#color-19)"/><path d="M278.32275,210.62087c-10.56316,0 -19.12628,-7.04929 -19.12628,-15.74504c0,-8.69575 8.56312,-15.74503 19.12628,-15.74503c10.56316,0 19.12628,7.04928 19.12628,15.74503c0,8.69575 -8.56311,15.74504 -19.12627,15.74504z" fill="url(#color-20)"/><path d="M279.56204,190.42232c-9.57594,0 -17.33877,-6.39048 -17.33877,-14.27354c0,-7.88306 7.76284,-14.27354 17.33879,-14.27354c9.57594,0 17.33877,6.39048 17.33877,14.27354c0,7.88306 -7.76282,14.27354 -17.33877,14.27354z" fill="url(#color-21)"/><path d="M289.37175,212.98493c-5.42966,0 -9.83127,-3.62346 -9.83127,-8.09325c0,-4.46979 4.40161,-8.09325 9.83127,-8.09325c5.42967,0 9.83127,3.62346 9.83127,8.09325c0,4.46978 -4.40159,8.09325 -9.83125,8.09325z" fill="url(#color-22)"/><path d="M291.60511,173.70974c-5.42966,0 -9.83127,-3.62347 -9.83127,-8.09325c0,-4.46977 4.40161,-8.09323 9.83127,-8.09323c5.42966,0 9.83127,3.62347 9.83127,8.09325c0,4.46979 -4.40161,8.09325 -9.83127,8.09325z" fill="url(#color-23)"/><path d="M302.29497,207.00154c-6.53372,0 -11.83035,-4.36026 -11.83035,-9.73893c0,-5.37867 5.29661,-9.73893 11.83035,-9.73893c6.53372,0 11.83033,4.36026 11.83033,9.73893c0,5.37867 -5.29661,9.73893 -11.83035,9.73893z" fill="url(#color-24)"/><path d="M298.56041,185.70382c0,-3.62634 3.57102,-6.56606 7.97612,-6.56606c4.40509,0 7.97611,2.93972 7.97611,6.56606c0,3.62633 -3.57101,6.56605 -7.97611,6.56605c-4.4051,0 -7.97612,-2.93971 -7.97612,-6.56605z" fill="url(#color-25)"/><path d="M290.10043,177.27205c0,-3.62634 3.57102,-6.56606 7.97612,-6.56606c4.40509,0 7.97611,2.93972 7.97611,6.56606c0,3.62633 -3.57101,6.56605 -7.97611,6.56605c-4.4051,0 -7.97612,-2.93971 -7.97612,-6.56605z" fill="url(#color-26)"/><path d="M291.04532,198.33313c0,-3.36804 3.31667,-6.09836 7.40799,-6.09836c4.09133,0 7.40798,2.73032 7.40798,6.09836c0,3.36804 -3.31666,6.09836 -7.40798,6.09836c-4.09133,0 -7.40799,-2.73032 -7.40799,-6.09836z" fill="url(#color-27)"/><path d="M286.59234,178.49831c0,-5.73932 5.65178,-10.39195 12.62363,-10.39195c6.97183,0 12.62361,4.65263 12.62361,10.39195c0,5.73932 -5.65177,10.39195 -12.62361,10.39195c-6.97185,0 -12.62363,-4.65263 -12.62363,-10.39195z" fill="url(#color-28)"/><path d="M298.96477,195.54741c0,-2.23348 2.19943,-4.04408 4.91256,-4.04408c2.71313,0 4.91254,1.81059 4.91254,4.04408c0,2.23348 -2.19941,4.04408 -4.91254,4.04408c-2.71314,0 -4.91256,-1.81059 -4.91256,-4.04408z" fill="url(#color-29)"/><path d="M299.17311,202.14539c-6.53371,0 -11.83036,-4.36026 -11.83036,-9.73893c0,-5.37867 5.29662,-9.73893 11.83036,-9.73893c6.53372,0 11.83033,4.36026 11.83033,9.73893c0,5.37867 -5.29661,9.73893 -11.83035,9.73893z" fill="url(#color-30)"/><path d="M287.68932,180.58226c0,-3.36804 3.31667,-6.09836 7.40799,-6.09836c4.09133,0 7.40798,2.73032 7.40798,6.09836c0,3.36804 -3.31666,6.09836 -7.40798,6.09836c-4.09133,0 -7.40799,-2.73032 -7.40799,-6.09836z" fill="url(#color-31)"/></g><path d="M352.06568,67.93433v224.13135h-224.13135v-224.13135z" data-paper-data="{&quot;index&quot;:null}" fill="none" stroke="none"/><g><path d="M233.42861,126.71263c27.51178,0 49.81449,22.3027 49.81449,49.81448c0,27.51178 -22.30271,49.81448 -49.81449,49.81448c-27.51178,0 -49.81448,-22.3027 -49.81448,-49.81448c0,-27.51178 22.3027,-49.81448 49.81448,-49.81448z" data-paper-data="{&quot;index&quot;:null}" fill="url(#color-32)" stroke="none"/><path d="M289.59007,225.88008c0,0 -20.60625,-6.42981 -27.34536,-19.29732c-10.14331,-19.36742 -0.33389,-36.90092 -0.33389,-36.90092c0,0 1.90149,18.30589 7.59516,28.9478c5.69367,10.64192 20.08409,27.25044 20.08409,27.25044z" data-paper-data="{&quot;index&quot;:null}" fill="url(#color-33)" stroke="#000000"/><path d="M297.78189,226.64827c0,0 -20.38936,-13.57815 -25.16545,-30.62494c-7.18868,-25.65779 6.13734,-43.31134 6.13734,-43.31134c0,0 -1.23184,21.99549 2.84366,36.1291c4.0755,14.1336 16.18445,37.80717 16.18445,37.80717z" data-paper-data="{&quot;index&quot;:null}" fill="url(#color-34)" stroke="#000000"/><path d="M200.96467,171.13484c-1.91171,14.58471 2.60203,36.1473 2.60203,36.1473c0,0 -15.82078,-15.45746 -12.55784,-41.90275c2.16788,-17.56997 20.29249,-34.04997 20.29249,-34.04997c0,0 -8.42499,25.22071 -10.3367,39.80541z" data-paper-data="{&quot;index&quot;:null}" fill="url(#color-35)" stroke="#000000"/><path d="M272.09794,123.86155c0,0 14.23042,9.47664 17.5638,21.37415c5.01721,17.90743 -4.28345,30.22842 -4.28345,30.22842c0,0 0.85973,-15.35138 -1.98468,-25.21569c-2.84443,-9.86431 -11.29566,-26.38687 -11.29566,-26.38687z" data-paper-data="{&quot;index&quot;:null}" fill="url(#color-36)" stroke="#000000"/><path d="M239.25874,188.68657c-0.49273,15.84959 6.65269,38.49815 6.65269,38.49815c0,0 -18.62258,-14.89157 -17.94732,-43.60864c0.44862,-19.07934 18.13089,-38.69398 18.13089,-38.69398c0,0 -6.34351,27.95489 -6.83623,43.80448z" data-paper-data="{&quot;index&quot;:null}" fill="url(#color-37)" stroke="#000000"/><path d="M187.77576,225.16908c0,0 -10.20903,-20.11119 -9.56548,-42.1609c0.96864,-33.18793 13.4473,-53.21523 13.4473,-53.21523c0,0 -5.6106,27.31475 -6.06943,45.61408c-0.45883,18.29933 2.1876,49.76204 2.1876,49.76204z" data-paper-data="{&quot;index&quot;:null}" fill="url(#color-38)" stroke="#000000"/><path d="M220.48889,197.58979c0,0 -13.85605,-19.87451 -9.6985,-34.28295c6.25769,-21.68673 29.47711,-27.35595 29.47711,-27.35595c0,0 -13.01864,14.84708 -16.34601,26.85174c-3.32737,12.00467 -3.43259,34.78715 -3.43259,34.78715z" data-paper-data="{&quot;index&quot;:null}" fill="url(#color-39)" stroke="#000000"/></g></g></g></svg>