<svg version="1.1" xmlns="http://www.w3.org/2000/svg" xmlns:xlink="http://www.w3.org/1999/xlink" width="65.59774" height="65.59774" viewBox="0,0,65.59774,65.59774"><defs><radialGradient cx="240.00001" cy="180" r="32.79887" gradientUnits="userSpaceOnUse" id="color-1"><stop offset="0" stop-color="#000000"/><stop offset="1" stop-color="#000000" stop-opacity="0"/></radialGradient><linearGradient x1="240.24531" y1="154.65332" x2="240.24532" y2="205.34668" gradientUnits="userSpaceOnUse" id="color-2"><stop offset="0" stop-color="#ffbbbb"/><stop offset="1" stop-color="#ff3737"/></linearGradient><linearGradient x1="221.91645" y1="154.65332" x2="221.91645" y2="205.34668" gradientUnits="userSpaceOnUse" id="color-3"><stop offset="0" stop-color="#ed3939"/><stop offset="1" stop-color="#9b0000"/></linearGradient><linearGradient x1="240.6727" y1="187.9404" x2="246.59228" y2="187.9404" gradientUnits="userSpaceOnUse" id="color-4"><stop offset="0" stop-color="#5f0000"/><stop offset="1" stop-color="#cc0000"/></linearGradient><linearGradient x1="240.66228" y1="170.58071" x2="246.58186" y2="170.58071" gradientUnits="userSpaceOnUse" id="color-5"><stop offset="0" stop-color="#5f0000"/><stop offset="1" stop-color="#cc0000"/></linearGradient></defs><g transform="translate(-207.20113,-147.20113)"><g data-paper-data="{&quot;isPaintingLayer&quot;:true}" fill-rule="nonzero" stroke-width="0" stroke-linecap="butt" stroke-linejoin="miter" stroke-miterlimit="10" stroke-dasharray="" stroke-dashoffset="0" style="mix-blend-mode: normal"><path d="M207.20113,180c0,-18.11432 14.68456,-32.79887 32.79887,-32.79887c18.11432,0 32.79887,14.68456 32.79887,32.79887c0,18.11432 -14.68456,32.79887 -32.79887,32.79887c-18.11432,0 -32.79887,-14.68456 -32.79887,-32.79887z" fill="url(#color-1)" stroke="#000000"/><path d="M262.68296,205.34668h-44.87536c0,0 0,-16.21691 0,-24.52434c0,-8.58147 0,-26.16902 0,-26.16902h44.87536z" fill="url(#color-2)" stroke="#000000"/><path d="M229.07704,205.34668h-14.32115c0,0 0,-16.21691 0,-24.52434c0,-8.58147 0,-26.16902 0,-26.16902h14.32115z" fill="url(#color-3)" stroke="#000000"/><path d="M234.29648,162.03683h-6.37163c0,0 0,-2.362 0,-3.57199c0,-1.24989 0,-3.81152 0,-3.81152h6.37165z" fill="#e73535" stroke="#000000"/><path d="M235.08249,205.34668h-6.37165c0,0 0,-2.36198 0,-3.57197c0,-1.24989 0,-3.81152 0,-3.81152h6.37163z" fill="#a00303" stroke="#000000"/><path d="M246.59115,197.63677h-5.9173v-12.4918h5.9173z" fill="#ffffff" stroke="#000000"/><path d="M246.59115,173.37615h-5.9173v-12.4918h5.9173z" fill="#ffffff" stroke="#000000"/><path d="M246.59228,191.39087h-5.91956v-6.90096h5.91956z" fill="url(#color-4)" stroke="#000000"/><path d="M246.58186,174.03121h-5.91956v-6.90096h5.91956z" fill="url(#color-5)" stroke="#000000"/><path d="M252.95244,184.20521h-6.37165v-9.69501h6.37165z" fill="#ff3939" stroke="none"/><path d="M258.15687,191.10618h-5.0613v-6.90097h5.0613z" fill="#f81111" stroke="none"/><path d="M258.09361,174.5102h-5.06131v-6.90096h5.06131z" fill="#f81111" stroke="none"/><path d="M260.69874,191.10621h-3.31084v-23.49697h3.31084z" fill="#f81111" stroke="none"/></g></g></svg>