<svg version="1.1" xmlns="http://www.w3.org/2000/svg" xmlns:xlink="http://www.w3.org/1999/xlink" width="80.66667" height="80.66668" viewBox="0,0,80.66667,80.66668"><g transform="translate(-199.66667,-139.66666)"><g data-paper-data="{&quot;isPaintingLayer&quot;:true}" fill-rule="nonzero" stroke="none" stroke-width="0" stroke-linecap="butt" stroke-linejoin="miter" stroke-miterlimit="10" stroke-dasharray="" stroke-dashoffset="0" style="mix-blend-mode: normal"><path d="M199.66668,180.00001c0,-22.27549 18.05785,-40.33334 40.33334,-40.33334c22.27549,0 40.33333,18.05785 40.33333,40.33334c0,22.27549 -18.05785,40.33334 -40.33333,40.33334c-22.27549,0 -40.33334,-18.05785 -40.33334,-40.33334z" fill="#00bcff"/><path d="M213.50078,185.02645c0,-7.28952 5.90933,-13.19884 13.19884,-13.19884c7.28952,0 13.19884,5.90933 13.19884,13.19884c0,7.28952 -5.90933,13.19884 -13.19884,13.19884c-7.28952,0 -13.19884,-5.90933 -13.19884,-13.19884z" fill="#000000"/><path d="M225.8874,198.2253v-23.96098h27.00687v23.96098z" fill="#000000"/><path d="M240.10154,185.02645c0,-7.28952 5.90933,-13.19884 13.19884,-13.19884c7.28952,0 13.19884,5.90933 13.19884,13.19884c0,7.28952 -5.90933,13.19884 -13.19884,13.19884c-7.28952,0 -13.19884,-5.90933 -13.19884,-13.19884z" fill="#000000"/><path d="M226.122,171.11c0,-7.8067 6.32858,-14.13528 14.13528,-14.13528c7.8067,0 14.13528,6.32858 14.13528,14.13528c0,7.8067 -6.32858,14.13528 -14.13528,14.13528c-7.8067,0 -14.13528,-6.32858 -14.13528,-14.13528z" fill="#000000"/></g></g></svg>