<svg version="1.1" xmlns="http://www.w3.org/2000/svg" xmlns:xlink="http://www.w3.org/1999/xlink" width="37.6" height="43.6" viewBox="0,0,37.6,43.6"><g transform="translate(-221.20009,-158.2)"><g data-paper-data="{&quot;isPaintingLayer&quot;:true}" fill-rule="nonzero" stroke="none" stroke-linecap="butt" stroke-linejoin="miter" stroke-miterlimit="10" stroke-dasharray="" stroke-dashoffset="0" style="mix-blend-mode: normal"><path d="M221.20009,201.8v-43.6h37.6v43.6z" fill="none" stroke-width="0"/><path d="M237.1086,191.599v-13.80721h-1.34208c-0.78627,0 -1.41664,-0.23723 -1.89112,-0.7117c-0.48803,-0.48805 -0.73205,-1.13198 -0.73205,-1.93181c0,-0.74559 0.25079,-1.36918 0.75238,-1.87077c0.50159,-0.50159 1.12518,-0.75239 1.87078,-0.75239h1.34208v-3.57889c0,-0.98962 0.27113,-1.78945 0.81339,-2.39947c0.55581,-0.62359 1.28108,-0.93539 2.1758,-0.93539c0.58293,0 1.09807,0.14233 1.54543,0.427c0.46092,0.27114 0.82016,0.66428 1.07773,1.17942c0.25757,0.50159 0.38636,1.07774 0.38636,1.72844v3.57889h1.70811c0.82694,0 1.51154,0.21691 2.0538,0.65072c0.54226,0.42025 0.81338,1.07773 0.81338,1.97244c0,0.89473 -0.27113,1.55899 -0.81338,1.99279c-0.5287,0.43381 -1.2133,0.65072 -2.0538,0.65072h-1.70811v13.80721c0,0.6507 -0.12879,1.23362 -0.38636,1.74876c-0.25757,0.50159 -0.61682,0.89473 -1.07773,1.17942c-0.46092,0.27112 -0.97606,0.40669 -1.54543,0.40669c-0.89472,0 -1.61999,-0.30501 -2.1758,-0.91504c-0.54226,-0.62361 -0.81339,-1.43021 -0.81339,-2.41982z" fill="#ff0000" stroke-width="0.40889"/></g></g></svg>