<svg version="1.1" xmlns="http://www.w3.org/2000/svg" xmlns:xlink="http://www.w3.org/1999/xlink" width="61.57749" height="89.06878" viewBox="0,0,61.57749,89.06878"><defs><radialGradient cx="239.99999" cy="179.96012" r="30.78848" gradientUnits="userSpaceOnUse" id="color-1"><stop offset="0" stop-color="#000000"/><stop offset="1" stop-color="#000000" stop-opacity="0"/></radialGradient><linearGradient x1="230.47121" y1="146.6998" x2="248.76276" y2="146.6998" gradientUnits="userSpaceOnUse" id="color-2"><stop offset="0" stop-color="#ff9d9d"/><stop offset="1" stop-color="#ff3737"/></linearGradient><linearGradient x1="217.51928" y1="151.12067" x2="240.72932" y2="151.12067" gradientUnits="userSpaceOnUse" id="color-3"><stop offset="0" stop-color="#ff9d9d"/><stop offset="1" stop-color="#ff3737"/></linearGradient><linearGradient x1="230.08983" y1="213.17868" x2="248.76275" y2="213.17868" gradientUnits="userSpaceOnUse" id="color-4"><stop offset="0" stop-color="#ff9d9d"/><stop offset="1" stop-color="#ff3737"/></linearGradient><linearGradient x1="217.20407" y1="209.40629" x2="240.16271" y2="209.40629" gradientUnits="userSpaceOnUse" id="color-5"><stop offset="0" stop-color="#ff9d9d"/><stop offset="1" stop-color="#ff3737"/></linearGradient><linearGradient x1="240" y1="151.29403" x2="240" y2="208.70597" gradientUnits="userSpaceOnUse" id="color-6"><stop offset="0" stop-color="#ffcdcd"/><stop offset="1" stop-color="#ff3737"/></linearGradient><linearGradient x1="252.04406" y1="176.63974" x2="264.55204" y2="176.63974" gradientUnits="userSpaceOnUse" id="color-7"><stop offset="0" stop-color="#de0000"/><stop offset="1" stop-color="#ff5a5a"/></linearGradient></defs><g transform="translate(-209.21124,-135.32659)"><g data-paper-data="{&quot;isPaintingLayer&quot;:true}" fill-rule="nonzero" stroke-linejoin="miter" stroke-miterlimit="10" stroke-dasharray="" stroke-dashoffset="0" style="mix-blend-mode: normal"><path d="M209.22587,180.89988c-0.51902,-16.99609 12.83828,-31.19488 29.83435,-31.7139c16.99609,-0.51902 31.19488,12.83828 31.71389,29.83435c0.51902,16.99609 -12.83828,31.19488 -29.83436,31.7139c-16.99609,0.51902 -31.19487,-12.83828 -31.71389,-29.83436z" fill="url(#color-1)" stroke="#000000" stroke-width="0" stroke-linecap="butt"/><g data-paper-data="{&quot;index&quot;:null}" stroke="none" stroke-width="0" stroke-linecap="butt"><path d="M244.69795,135.9079c4.19923,1.97704 5.32855,8.41148 2.52243,14.37168c-2.80614,5.9602 -8.48511,9.18917 -12.68435,7.21213c-4.19923,-1.97704 -5.32857,-8.41147 -2.52243,-14.37168c2.80614,-5.96021 8.48511,-9.18918 12.68435,-7.21213z" fill="url(#color-2)"/><path d="M240.39622,155.02265c-1.51831,4.38601 -7.79574,6.19461 -14.02105,4.0396c-6.2253,-2.15501 -10.04108,-7.45756 -8.52278,-11.84356c1.5183,-4.38601 7.79572,-6.1946 14.02103,-4.0396c6.22531,2.15501 10.04111,7.45756 8.52281,11.84356z" data-paper-data="{&quot;index&quot;:null}" fill="url(#color-3)"/></g><g stroke="none" stroke-width="0" stroke-linecap="butt"><path d="M232.05551,217.21572c-3.16459,-5.77788 -2.42998,-12.26922 1.64079,-14.49881c4.07077,-2.2296 9.93619,0.64683 13.10079,6.42472c3.16459,5.77788 2.42998,12.26923 -1.64079,14.49882c-4.07077,2.2296 -9.93619,-0.64683 -13.10079,-6.42472z" fill="url(#color-4)"/><path d="M239.69622,204.82377c1.78311,4.28519 -1.70202,9.8107 -7.78424,12.34154c-6.08221,2.53086 -12.45831,1.10866 -14.24141,-3.17652c-1.78311,-4.28518 1.70202,-9.81069 7.78423,-12.34153c6.08221,-2.53086 12.45831,-1.10866 14.24142,3.17653z" data-paper-data="{&quot;index&quot;:null}" fill="url(#color-5)"/></g><path d="M217.03638,180.70126c-0.48399,-15.84904 9.40481,-29.01121 22.08727,-29.3985c12.68247,-0.3873 23.35598,12.14695 23.83997,27.99598c0.48399,15.84904 -9.40481,29.01119 -22.08727,29.39849c-12.68247,0.3873 -23.35598,-12.14694 -23.83997,-27.99597z" fill="url(#color-6)" stroke="#000000" stroke-width="0" stroke-linecap="butt"/><path d="M243.40055,190.74711c-0.06996,-2.29057 1.73023,-4.20416 4.0208,-4.27411c2.29057,-0.06996 4.20416,1.73023 4.27411,4.0208c0.06996,2.29057 -1.73023,4.20416 -4.0208,4.27411c-2.29057,0.06996 -4.20416,-1.73023 -4.27411,-4.0208z" fill="#000000" stroke="#000000" stroke-width="0" stroke-linecap="butt"/><path d="M242.67737,168.37025c-0.06996,-2.29057 1.73023,-4.20415 4.0208,-4.27411c2.29057,-0.06996 4.20416,1.73023 4.27412,4.0208c0.06996,2.29057 -1.73023,4.20416 -4.0208,4.27412c-2.29057,0.06996 -4.20416,-1.73024 -4.27411,-4.02081z" fill="#000000" stroke="#000000" stroke-width="0" stroke-linecap="butt"/><path d="M264.55204,176.66719c0,3.55486 -2.85863,6.43665 -6.38491,6.43665c-1.90062,0 -3.99425,0.89208 -5.16389,-0.43645c-1.00042,-1.13632 -0.83404,-4.36136 -0.83404,-6.00017c0,-2.0379 -0.6084,-5.19958 0.85774,-6.37896c1.09136,-0.8779 3.63542,-0.05768 5.14019,-0.05768c3.52629,0 6.38491,2.88178 6.38491,6.43664z" fill="url(#color-7)" stroke="#000000" stroke-width="0" stroke-linecap="butt"/><path d="M252.39107,186.40236v-16.51981" fill="none" stroke="#000000" stroke-width="1.5" stroke-linecap="round"/></g></g></svg>