<svg version="1.1" xmlns="http://www.w3.org/2000/svg" xmlns:xlink="http://www.w3.org/1999/xlink" width="465.58402" height="300.07293" viewBox="0,0,465.58402,300.07293"><g transform="translate(-12.06581,-2.29124)"><g data-paper-data="{&quot;isPaintingLayer&quot;:true}" fill-rule="nonzero" stroke-linejoin="miter" stroke-miterlimit="10" stroke-dasharray="" stroke-dashoffset="0" style="mix-blend-mode: normal"><text transform="translate(300.28948,188.07545) scale(0.56875,0.56875)" font-size="40" xml:space="preserve" fill-opacity="0.65323" fill="#000000" fill-rule="nonzero" stroke="none" stroke-width="1" stroke-linecap="butt" stroke-linejoin="miter" stroke-miterlimit="10" stroke-dasharray="" stroke-dashoffset="0" font-family="Sans Serif" font-weight="normal" text-anchor="start" style="mix-blend-mode: normal"><tspan x="0" dy="0">移動</tspan></text><text transform="translate(368.66076,174.063) scale(0.5,0.5)" font-size="40" xml:space="preserve" fill-opacity="0.65323" fill="#000000" fill-rule="nonzero" stroke="none" stroke-width="1" stroke-linecap="butt" stroke-linejoin="miter" stroke-miterlimit="10" stroke-dasharray="" stroke-dashoffset="0" font-family="Sans Serif" font-weight="normal" text-anchor="start" style="mix-blend-mode: normal"><tspan x="0" dy="0">移動し</tspan><tspan x="0" dy="46.15px">打つ</tspan></text><text transform="translate(208.32115,164.95529) scale(0.40625,0.40625)" font-size="40" xml:space="preserve" fill-opacity="0.65323" fill="#000000" fill-rule="nonzero" stroke="none" stroke-width="1" stroke-linecap="butt" stroke-linejoin="miter" stroke-miterlimit="10" stroke-dasharray="" stroke-dashoffset="0" font-family="Sans Serif" font-weight="normal" text-anchor="start" style="mix-blend-mode: normal"><tspan x="0" dy="0">ジャンプ</tspan></text><text transform="translate(216.72976,209.20716) scale(0.59016,0.59016)" font-size="40" xml:space="preserve" fill-opacity="0.65323" fill="#000000" fill-rule="nonzero" stroke="none" stroke-width="1" stroke-linecap="butt" stroke-linejoin="miter" stroke-miterlimit="10" stroke-dasharray="" stroke-dashoffset="0" font-family="Sans Serif" font-weight="normal" text-anchor="start" style="mix-blend-mode: normal"><tspan x="0" dy="0">イカ</tspan></text><g><path d="M221,20.66665h-44" fill="none" stroke-opacity="0.64516" stroke="#000000" stroke-width="35" stroke-linecap="round"/><path d="M259,20.66665h44" fill="none" stroke-opacity="0.64516" stroke="#000000" stroke-width="35" stroke-linecap="round"/><g fill="#ffffff" stroke="none" stroke-width="0.40889" stroke-linecap="butt"><path d="M205.79823,17.94393c0,0.26284 -0.09019,0.49735 -0.27058,0.70351c-0.17523,0.20615 -0.39427,0.30924 -0.65712,0.30924c-0.11854,0 -0.34532,-0.07473 -0.68033,-0.2242c-0.32985,-0.14946 -0.58496,-0.26027 -0.76535,-0.33243c-0.18039,-0.07215 -0.3814,-0.10822 -0.60302,-0.10822c-0.22163,0 -0.40717,0.05412 -0.55663,0.16236c-0.14431,0.10822 -0.21646,0.26542 -0.21646,0.47159c0,0.22161 0.22678,0.43293 0.68032,0.63393c0.45354,0.19587 0.93286,0.39945 1.43795,0.61075c0.51024,0.20615 0.94316,0.48447 1.29878,0.83493c0.36078,0.35046 0.54115,0.82205 0.54115,1.41476c0,0.51024 -0.134,0.96895 -0.402,1.3761c-0.268,0.40202 -0.65197,0.72156 -1.1519,0.95862c-0.49476,0.23194 -1.05913,0.3479 -1.69307,0.3479c-0.44839,0 -0.92256,-0.07731 -1.42249,-0.23193c-0.49476,-0.15461 -0.91224,-0.36851 -1.2524,-0.64166c-0.34015,-0.27317 -0.51024,-0.56951 -0.51024,-0.88905c0,-0.20615 0.09018,-0.42518 0.27058,-0.65712c0.18554,-0.23708 0.42261,-0.35563 0.71124,-0.35563c0.20615,0 0.38654,0.03351 0.54115,0.10051c0.15463,0.06182 0.3479,0.15975 0.57981,0.29378c0.23709,0.134 0.44066,0.23193 0.61075,0.29378c0.17523,0.06182 0.38654,0.09273 0.63393,0.09273c0.335,0 0.56694,-0.05154 0.69578,-0.15461c0.134,-0.10824 0.201,-0.27317 0.201,-0.49478c0,-0.22161 -0.21903,-0.42776 -0.65712,-0.61847c-0.43809,-0.19069 -0.91999,-0.39427 -1.44568,-0.61074c-0.52569,-0.21646 -0.96635,-0.50251 -1.32198,-0.85812c-0.35563,-0.35561 -0.53344,-0.82721 -0.53344,-1.41477c0,-0.52056 0.13143,-0.98181 0.39429,-1.38382c0.26285,-0.402 0.62878,-0.71383 1.09778,-0.93545c0.469,-0.22676 1.00244,-0.34017 1.60029,-0.34017c0.41747,0 0.84524,0.06185 1.28334,0.18555c0.43809,0.12369 0.80659,0.31182 1.10551,0.56435c0.30409,0.25254 0.45612,0.55147 0.45612,0.89678z"/><path d="M194.59497,24.05134l-2.29607,-5.8832c-0.09276,-0.24739 -0.13915,-0.46902 -0.13915,-0.66487c0,-0.35046 0.11597,-0.62363 0.3479,-0.81947c0.23193,-0.19584 0.51281,-0.29378 0.84266,-0.29378c0.49478,0 0.83236,0.27057 1.01275,0.81174l1.45341,4.49165h0.03093l1.46114,-4.49165c0.17008,-0.54117 0.50766,-0.81174 1.01274,-0.81174c0.32985,0 0.60817,0.09793 0.83495,0.29378c0.23193,0.19069 0.3479,0.46385 0.3479,0.81947c0,0.19584 -0.04639,0.41748 -0.13915,0.66487l-2.29607,5.8832c-0.12369,0.32985 -0.27317,0.57208 -0.44839,0.72669c-0.17008,0.14946 -0.43293,0.2242 -0.78856,0.2242c-0.35563,0 -0.61847,-0.07473 -0.78856,-0.2242c-0.16493,-0.14946 -0.31439,-0.39169 -0.44839,-0.72669z"/></g><path d="M270.84575,16.80051c0,-0.67286 0.23449,-1.24378 0.70345,-1.71274c0.47916,-0.47916 1.05518,-0.71875 1.72805,-0.71875c0.67287,0 1.24888,0.23449 1.72805,0.70345c0.47916,0.46897 0.71875,1.04498 0.71875,1.72804c0,0.67287 -0.23959,1.24889 -0.71875,1.72806c-0.47916,0.47916 -1.05518,0.71873 -1.72805,0.71873c-0.67287,0 -1.24888,-0.23958 -1.72805,-0.71873c-0.46897,-0.48937 -0.70345,-1.06539 -0.70345,-1.72806zM270.84575,26.86296c0,-0.66268 0.23449,-1.2336 0.70345,-1.71276c0.47916,-0.48935 1.05518,-0.73403 1.72805,-0.73403c0.67287,0 1.24888,0.23958 1.72805,0.71873c0.47916,0.47916 0.71875,1.05519 0.71875,1.72806c0,0.67286 -0.23959,1.24888 -0.71875,1.72804c-0.47916,0.47916 -1.05518,0.71875 -1.72805,0.71875c-0.67287,0 -1.24888,-0.23959 -1.72805,-0.71875c-0.46897,-0.48935 -0.70345,-1.06536 -0.70345,-1.72804z" fill="#ffffff" stroke="none" stroke-width="0.40889" stroke-linecap="butt"/></g><path d="M118.18037,179.83172c0,-67.12051 54.41193,-121.53245 121.53245,-121.53245c67.12051,0 121.53245,54.41193 121.53245,121.53245c0,67.12051 -54.41193,121.53245 -121.53245,121.53245c-67.12051,0 -121.53245,-54.41193 -121.53245,-121.53245z" fill="none" stroke-opacity="0.66129" stroke="#000000" stroke-width="2" stroke-linecap="butt"/><path d="M191.42449,179.83172c0,-26.6689 21.61942,-48.28833 48.28833,-48.28833c26.6689,0 48.28833,21.61942 48.28833,48.28833c0,26.6689 -21.61942,48.28833 -48.28833,48.28833c-26.6689,0 -48.28833,-21.61942 -48.28833,-48.28833z" fill="none" stroke-opacity="0.66129" stroke="#000000" stroke-width="2" stroke-linecap="butt"/><path d="M191.95567,179.83172h95.5143" fill="none" stroke-opacity="0.66129" stroke="#000000" stroke-width="2" stroke-linecap="round"/><text transform="translate(12.5,103.46667) scale(0.86837,0.86837)" font-size="40" xml:space="preserve" fill="#010101" fill-rule="nonzero" stroke="none" stroke-width="1" stroke-linecap="butt" stroke-linejoin="miter" stroke-miterlimit="10" stroke-dasharray="" stroke-dashoffset="0" font-family="Sans Serif" font-weight="normal" text-anchor="start" style="mix-blend-mode: normal"><tspan x="0" dy="0">ごめんなさい</tspan><tspan x="0" dy="46.15px">現在モバイルは編集中</tspan></text><path d="M465.14983,14.79124h-49.98148" fill="none" stroke-opacity="0.64516" stroke="#000000" stroke-width="25" stroke-linecap="round"/><path d="M465.53872,22.02321v-8.34638c0,-0.33266 0.09114,-0.60154 0.27343,-0.80661c0.18684,-0.20963 0.43065,-0.31444 0.73142,-0.31444c0.53774,0 0.87497,0.28026 1.01168,0.84079c0.18684,-0.30077 0.45343,-0.52862 0.79978,-0.68357c0.34634,-0.1595 0.71775,-0.23925 1.11422,-0.23925c0.68813,0 1.276,0.18912 1.76361,0.56736c0.49217,0.37824 0.86358,0.87269 1.11422,1.48335c0.25064,0.61066 0.37596,1.25778 0.37596,1.94134c0,0.638 -0.13899,1.25093 -0.41698,1.8388c-0.27343,0.58331 -0.66534,1.05497 -1.17574,1.41499c-0.5104,0.36001 -1.08687,0.54002 -1.72943,0.54002c-0.319,0 -0.64028,-0.05924 -0.96383,-0.17773c-0.32355,-0.12304 -0.61749,-0.29849 -0.8818,-0.52635v2.46768c0,0.20963 -0.04329,0.40103 -0.12988,0.5742c-0.08658,0.17317 -0.20735,0.30532 -0.36229,0.39646c-0.15494,0.0957 -0.32811,0.14355 -0.51951,0.14355c-0.30077,0 -0.54458,-0.10253 -0.73142,-0.3076c-0.18229,-0.20051 -0.27343,-0.46939 -0.27343,-0.80662zM467.55525,16.30857c0,0.5423 0.13443,1.02763 0.40331,1.456c0.27343,0.42837 0.66534,0.64256 1.17574,0.64256c0.32811,0 0.61294,-0.10026 0.85446,-0.30077c0.24153,-0.20051 0.42154,-0.45343 0.54002,-0.75876c0.11849,-0.30989 0.17773,-0.63344 0.17773,-0.97067c0,-0.33723 -0.05924,-0.66307 -0.17773,-0.97751c-0.11849,-0.31444 -0.29849,-0.57192 -0.54002,-0.77243c-0.23697,-0.20507 -0.52179,-0.30761 -0.85446,-0.30761c-0.34178,0 -0.63344,0.0957 -0.87497,0.2871c-0.23697,0.18684 -0.4147,0.43065 -0.53318,0.73141c-0.11393,0.30077 -0.17089,0.62433 -0.17089,0.97068z" fill="#ffffff" stroke="none" stroke-width="0.40889" stroke-linecap="butt"/></g></g></svg>