<svg version="1.1" xmlns="http://www.w3.org/2000/svg" xmlns:xlink="http://www.w3.org/1999/xlink" width="828.70517" height="139.97897" viewBox="0,0,828.70517,139.97897"><defs><radialGradient cx="208.73683" cy="237.06648" r="66.8027" gradientUnits="userSpaceOnUse" id="color-1"><stop offset="0" stop-color="#ff0000"/><stop offset="1" stop-color="#ff0000" stop-opacity="0"/></radialGradient><radialGradient cx="189.70464" cy="245.35341" r="27.77918" gradientUnits="userSpaceOnUse" id="color-2"><stop offset="0" stop-color="#000000" stop-opacity="0.30588"/><stop offset="1" stop-color="#000000" stop-opacity="0"/></radialGradient><linearGradient x1="213.94806" y1="231.79094" x2="165.46125" y2="258.91588" gradientUnits="userSpaceOnUse" id="color-3"><stop offset="0" stop-color="#ff5454"/><stop offset="1" stop-color="#eb0000"/></linearGradient><radialGradient cx="228.52376" cy="223.12194" r="27.77919" gradientUnits="userSpaceOnUse" id="color-4"><stop offset="0" stop-color="#000000" stop-opacity="0.30588"/><stop offset="1" stop-color="#000000" stop-opacity="0"/></radialGradient><linearGradient x1="252.7672" y1="209.55946" x2="204.28037" y2="236.68439" gradientUnits="userSpaceOnUse" id="color-5"><stop offset="0" stop-color="#ff5454"/><stop offset="1" stop-color="#eb0000"/></linearGradient><radialGradient cx="261.52127" cy="189.42642" r="25.51541" gradientUnits="userSpaceOnUse" id="color-6"><stop offset="0" stop-color="#000000" stop-opacity="0.63137"/><stop offset="1" stop-color="#000000" stop-opacity="0"/></radialGradient><linearGradient x1="283.78909" y1="176.96918" x2="239.2535" y2="201.88367" gradientUnits="userSpaceOnUse" id="color-7"><stop offset="0" stop-color="#ff5454"/><stop offset="1" stop-color="#eb0000"/></linearGradient><linearGradient x1="269.18431" y1="174.36551" x2="280.47918" y2="194.55556" gradientUnits="userSpaceOnUse" id="color-8"><stop offset="0" stop-color="#eb0000"/><stop offset="1" stop-color="#ff5454"/></linearGradient><linearGradient x1="251.06637" y1="211.33833" x2="165.24344" y2="259.3502" gradientUnits="userSpaceOnUse" id="color-9"><stop offset="0" stop-color="#333333"/><stop offset="1" stop-color="#cacaca"/></linearGradient><linearGradient x1="167.66117" y1="272.99543" x2="260.9484" y2="220.80784" gradientUnits="userSpaceOnUse" id="color-10"><stop offset="0" stop-color="#ff4c4c"/><stop offset="1" stop-color="#ec0000"/></linearGradient><linearGradient x1="165.51114" y1="267.72769" x2="257.82491" y2="216.08468" gradientUnits="userSpaceOnUse" id="color-11"><stop offset="0" stop-color="#e8e8e8"/><stop offset="1" stop-color="#9e9e9e"/></linearGradient><linearGradient x1="246.89191" y1="199.92174" x2="282.29224" y2="180.11778" gradientUnits="userSpaceOnUse" id="color-12"><stop offset="0" stop-color="#000000"/><stop offset="1" stop-color="#929292"/></linearGradient><linearGradient x1="245.45448" y1="188.14929" x2="256.74939" y2="208.33936" gradientUnits="userSpaceOnUse" id="color-13"><stop offset="0" stop-color="#eb0000"/><stop offset="1" stop-color="#ff5454"/></linearGradient><linearGradient x1="897.05626" y1="179.74691" x2="964.37303" y2="179.74691" gradientUnits="userSpaceOnUse" id="color-14"><stop offset="0" stop-color="#ff0000" stop-opacity="0.12157"/><stop offset="1" stop-color="#ff0000"/></linearGradient><linearGradient x1="626.78599" y1="179.74691" x2="694.10276" y2="179.74691" gradientUnits="userSpaceOnUse" id="color-15"><stop offset="0" stop-color="#ff0000" stop-opacity="0.12157"/><stop offset="1" stop-color="#ff0000"/></linearGradient><linearGradient x1="761.92113" y1="179.74691" x2="829.2379" y2="179.74691" gradientUnits="userSpaceOnUse" id="color-16"><stop offset="0" stop-color="#ff0000" stop-opacity="0.12157"/><stop offset="1" stop-color="#ff0000"/></linearGradient><linearGradient x1="491.65086" y1="179.74691" x2="558.96763" y2="179.74691" gradientUnits="userSpaceOnUse" id="color-17"><stop offset="0" stop-color="#ff0000" stop-opacity="0.12157"/><stop offset="1" stop-color="#ff0000"/></linearGradient><linearGradient x1="356.51573" y1="179.74691" x2="423.8325" y2="179.74691" gradientUnits="userSpaceOnUse" id="color-18"><stop offset="0" stop-color="#ff0000" stop-opacity="0.12157"/><stop offset="1" stop-color="#ff0000"/></linearGradient></defs><g transform="translate(-141.91786,-163.90647)"><g data-paper-data="{&quot;isPaintingLayer&quot;:true}" fill-rule="nonzero" stroke-linejoin="miter" stroke-miterlimit="10" stroke-dasharray="" stroke-dashoffset="0" style="mix-blend-mode: normal"><path d="M236.53559,176.32253c33.54795,15.35284 48.29803,54.99476 32.94518,88.54273c-15.35284,33.54796 -54.99476,48.29803 -88.54273,32.94519c-33.54795,-15.35284 -48.29804,-54.99477 -32.9452,-88.54272c15.35284,-33.54796 54.99478,-48.29804 88.54273,-32.94519z" fill="url(#color-1)" stroke="none" stroke-width="0" stroke-linecap="butt"/><path d="M176.14221,221.11003c13.38926,-7.49034 30.31554,-2.7083 37.80589,10.68095c7.49033,13.38925 2.7083,30.31554 -10.68095,37.80588c-13.38926,7.49033 -30.31554,2.7083 -37.80588,-10.68095c-7.49033,-13.38925 -2.70831,-30.31554 10.68094,-37.80588z" fill="url(#color-2)" stroke="url(#color-3)" stroke-width="0" stroke-linecap="butt"/><path d="M214.96134,198.87854c13.38926,-7.49033 30.31554,-2.7083 37.80589,10.68095c7.49033,13.38925 2.7083,30.31553 -10.68095,37.80586c-13.38926,7.49033 -30.31554,2.70832 -37.80588,-10.68094c-7.49033,-13.38925 -2.70831,-30.31554 10.68094,-37.80589z" fill="url(#color-4)" stroke="url(#color-5)" stroke-width="0" stroke-linecap="butt"/><path d="M249.06404,167.15869c12.29816,-6.87995 27.84508,-2.4876 34.72502,9.81054c6.87995,12.29816 2.48762,27.84507 -9.81054,34.72502c-12.29816,6.87995 -27.84508,2.4876 -34.72502,-9.81054c-6.87995,-12.29816 -2.48762,-27.84507 9.81054,-34.72502z" fill="url(#color-6)" stroke="url(#color-7)" stroke-width="0" stroke-linecap="butt"/><path d="M269.18431,174.36551c5.57533,-3.11899 12.62347,-1.12774 15.74247,4.44758c3.11899,5.57533 1.12774,12.62347 -4.44758,15.74247c-5.57533,3.11899 -12.62347,1.12774 -15.74247,-4.44758c-3.11899,-5.57533 -1.12774,-12.62347 4.44758,-15.74247z" fill="url(#color-8)" stroke="#000000" stroke-width="0" stroke-linecap="butt"/><g><path d="M167.93317,264.1582l-2.13999,-8.90318l80.64004,-45.42801l7.32287,6.31938z" data-paper-data="{&quot;index&quot;:null}" fill="url(#color-9)" stroke="none" stroke-width="0" stroke-linecap="butt"/><path d="M259.13501,217.56633l2.04771,3.6604l-1.10313,4.32318l-87.92282,49.18659l-4.26129,-1.32218l-2.04772,-3.6604z" data-paper-data="{&quot;index&quot;:null}" fill="url(#color-10)" stroke="none" stroke-width="0" stroke-linecap="butt"/><path d="M256.81624,214.28168l2.0173,3.60599l-92.31376,51.64299l-2.0173,-3.60599z" data-paper-data="{&quot;index&quot;:null}" fill="url(#color-11)" stroke="none" stroke-width="0" stroke-linecap="butt"/><path d="M170.3608,252.69973c0,0 8.73809,-14.35744 33.22745,-28.05748c22.76674,-12.73637 38.65228,-12.15411 38.65228,-12.15411" data-paper-data="{&quot;index&quot;:null}" fill="none" stroke="#808080" stroke-width="2" stroke-linecap="round"/><path d="M215.89049,247.65603l-41.13121,23.00998" data-paper-data="{&quot;index&quot;:null}" fill="none" stroke-opacity="0.34902" stroke="#ffffff" stroke-width="4.5" stroke-linecap="round"/><path d="M202.83109,256.15091l-24.71561,13.82661" data-paper-data="{&quot;index&quot;:null}" fill="none" stroke-opacity="0.34902" stroke="#ffffff" stroke-width="2.5" stroke-linecap="round"/><path d="M242.48698,212.29311l-4.67822,-7.79778l47.62094,-26.62261c0,0 3.64821,6.85197 -7.71345,18.07525c-11.36167,11.22328 -28.39146,17.58992 -28.39146,17.58992" fill="none" stroke="#808080" stroke-width="2" stroke-linecap="round"/><path d="M248.83299,203.88603l-3.42045,-6.6087l33.51749,-23.16956c0,0 5.7921,2.32031 6.83939,4.11222c1.33721,2.28791 0.52881,8.49451 0.52881,8.49451z" fill="url(#color-12)" stroke="none" stroke-width="0" stroke-linecap="butt"/></g><path d="M245.45448,188.14929c5.57532,-3.119 12.62349,-1.12774 15.74248,4.44758c3.11899,5.57533 1.12775,12.62348 -4.44758,15.74248c-5.57532,3.119 -12.62347,1.12774 -15.74248,-4.44759c-3.119,-5.57531 -1.12774,-12.62348 4.44758,-15.74248z" fill="url(#color-13)" stroke="#000000" stroke-width="0" stroke-linecap="butt"/><g fill="none" stroke-width="12.5" stroke-linecap="round"><path d="M964.37303,179.74691h-67.31677" stroke="url(#color-14)"/><path d="M694.10276,179.74691h-67.31677" stroke="url(#color-15)"/><path d="M761.92113,179.74691h67.31677" stroke="url(#color-16)"/><path d="M491.65086,179.74691h67.31677" stroke="url(#color-17)"/></g><path d="M356.51573,179.74691h67.31677" fill="none" stroke="url(#color-18)" stroke-width="12.5" stroke-linecap="round"/></g></g></svg>