<svg version="1.1" xmlns="http://www.w3.org/2000/svg" xmlns:xlink="http://www.w3.org/1999/xlink" width="52.04382" height="39.01729" viewBox="0,0,52.04382,39.01729"><defs><linearGradient x1="240.00001" y1="160.49137" x2="240.00001" y2="199.50866" gradientUnits="userSpaceOnUse" id="color-1"><stop offset="0" stop-color="#000000" stop-opacity="0.43529"/><stop offset="1" stop-color="#000000" stop-opacity="0.74902"/></linearGradient></defs><g transform="translate(-213.9781,-160.49138)"><g data-paper-data="{&quot;isPaintingLayer&quot;:true}" fill-rule="nonzero" stroke-linejoin="miter" stroke-miterlimit="10" stroke-dasharray="" stroke-dashoffset="0" style="mix-blend-mode: normal"><path d="M216.05211,197.30502c-1.86317,-1.863 -2.07401,-4.547 -2.07401,-4.547v-25.51243c0,0 0.24294,-2.78353 2.10641,-4.6478c1.86347,-1.86427 4.64492,-2.10641 4.64492,-2.10641h38.54115c0,0 2.57884,0.12232 4.45049,1.97679c1.87164,1.85448 2.30085,4.71262 2.30085,4.71262v25.65824c0,0 -0.33463,2.78401 -2.20364,4.59563c-1.86901,1.81161 -4.67731,2.07401 -4.67731,2.07401h-38.41152c0,0 -2.81415,-0.34065 -4.67732,-2.20364z" fill="url(#color-1)" stroke="none" stroke-width="0" stroke-linecap="butt"/><path d="M228.58521,172.39081h23.59419" fill="none" stroke="#ffffff" stroke-width="2.5" stroke-linecap="round"/><path d="M234.65231,178.26853l-7.16122,-6.07869l7.05892,-5.99186" fill="none" stroke="#ffffff" stroke-width="2.5" stroke-linecap="round"/><text transform="translate(218.87894,192.68704) scale(0.37988,0.37988)" font-size="40" xml:space="preserve" fill="#ffffff" fill-rule="nonzero" stroke="none" stroke-width="1" stroke-linecap="butt" stroke-linejoin="miter" stroke-miterlimit="10" stroke-dasharray="" stroke-dashoffset="0" font-family="Sans Serif" font-weight="normal" text-anchor="start" style="mix-blend-mode: normal"><tspan x="0" dy="0">Leave</tspan></text></g></g></svg>