<svg version="1.1" xmlns="http://www.w3.org/2000/svg" xmlns:xlink="http://www.w3.org/1999/xlink" width="311.45508" height="108.34897" viewBox="0,0,311.45508,108.34897"><defs><radialGradient cx="-51.63757" cy="197.43244" r="23.72303" gradientUnits="userSpaceOnUse" id="color-1"><stop offset="0" stop-color="#000000" stop-opacity="0.30196"/><stop offset="1" stop-color="#000000" stop-opacity="0"/></radialGradient><linearGradient x1="-2.8063" y1="163.41921" x2="236.09448" y2="163.41921" gradientUnits="userSpaceOnUse" id="color-2"><stop offset="0" stop-color="#000000"/><stop offset="1" stop-color="#000000" stop-opacity="0.64706"/></linearGradient></defs><g transform="translate(75.3606,-112.8065)"><g data-paper-data="{&quot;isPaintingLayer&quot;:true}" fill-rule="nonzero" stroke-linejoin="miter" stroke-miterlimit="10" stroke-dasharray="" stroke-dashoffset="0" style="mix-blend-mode: normal"><path d="M-75.3606,197.43244c0,-13.10187 10.62116,-23.72303 23.72303,-23.72303c13.10187,0 23.72303,10.62116 23.72303,23.72303c0,13.10187 -10.62116,23.72303 -23.72303,23.72303c-13.10187,0 -23.72303,-10.62116 -23.72303,-23.72303z" fill="url(#color-1)" stroke="none" stroke-width="0" stroke-linecap="butt"/><path d="M-0.43436,211.66274c-2.66144,-2.62498 -2.36183,-7.87277 -2.36183,-7.87277v-81.77746c0,0 0.03701,-4.60457 2.62425,-7.08549c2.58725,-2.48092 6.95427,-2.09941 6.95427,-2.09941h192.79281c0,0 3.31291,-0.26945 5.96755,2.0994c2.65464,2.36885 3.14911,6.03579 3.14911,6.03579l0.49644,64.86835l26.90624,-13.91259l-27.0825,42.106h-201.44235c0,0 -5.34255,0.26316 -8.00399,-2.36182z" fill="url(#color-2)" stroke="none" stroke-width="0" stroke-linecap="butt"/><text transform="translate(2.40078,129.22568) scale(0.37525,0.37525)" font-size="40" xml:space="preserve" fill="#ffffff" fill-rule="nonzero" stroke="none" stroke-width="1" stroke-linecap="butt" stroke-linejoin="miter" stroke-miterlimit="10" stroke-dasharray="" stroke-dashoffset="0" font-family="Sans Serif" font-weight="normal" text-anchor="start" style="mix-blend-mode: normal"><tspan x="0" dy="0">よし...</tspan><tspan x="0" dy="48px">好きなものを選んだあとで、</tspan><tspan x="0" dy="48px">左下のやってみようを</tspan><tspan x="0" dy="48px">クリックして, まずはオフライン</tspan><tspan x="0" dy="48px">対戦してみよう!</tspan></text><text transform="translate(47.29272,165.2029) scale(0.37525,0.37525)" font-size="40" xml:space="preserve" fill="#ff6f00" fill-rule="nonzero" stroke="#ff6f00" stroke-width="1" stroke-linecap="butt" stroke-linejoin="miter" stroke-miterlimit="10" stroke-dasharray="" stroke-dashoffset="0" font-family="Sans Serif" font-weight="normal" text-anchor="start" style="mix-blend-mode: normal"><tspan x="0" dy="0">やってみよう</tspan></text><text transform="translate(165.41266,204.81513) scale(0.21975,0.21975)" font-size="40" xml:space="preserve" fill="#ffffff" fill-rule="nonzero" stroke="none" stroke-width="1" stroke-linecap="butt" stroke-linejoin="miter" stroke-miterlimit="10" stroke-dasharray="" stroke-dashoffset="0" font-family="Sans Serif" font-weight="normal" text-anchor="start" style="mix-blend-mode: normal"><tspan x="0" dy="0">(クリック)</tspan></text><g data-paper-data="{&quot;index&quot;:null}" fill="none" stroke="#ffffff" stroke-width="6" stroke-linecap="round"><path d="M-54.44255,185.19083l-12.17714,14.79313"/><path d="M-50.02983,209.5702l-16.58986,-9.58623" data-paper-data="{&quot;index&quot;:null}"/><path d="M-17.79976,191.14744l-48.81993,8.83652"/></g></g></g></svg>