<svg version="1.1" xmlns="http://www.w3.org/2000/svg" xmlns:xlink="http://www.w3.org/1999/xlink" width="149.33823" height="169.02713" viewBox="0,0,149.33823,169.02713"><defs><linearGradient x1="325.98714" y1="212.48675" x2="475.32537" y2="212.48675" gradientUnits="userSpaceOnUse" id="color-1"><stop offset="0" stop-color="#ffffff"/><stop offset="1" stop-color="#ffffff" stop-opacity="0.46275"/></linearGradient></defs><g transform="translate(-325.98714,-127.97318)"><g data-paper-data="{&quot;isPaintingLayer&quot;:true}" fill-rule="nonzero" stroke-linecap="butt" stroke-linejoin="miter" stroke-miterlimit="10" stroke-dasharray="" stroke-dashoffset="0" style="mix-blend-mode: normal"><path d="M464.94943,275.50031h-123.05359l-15.9087,21.5l0.78728,-160.87083c0,0 0.49447,-3.66694 3.14911,-6.03579c2.65464,-2.36885 5.96755,-2.0994 5.96755,-2.0994h129.84565c0,0 4.36702,-0.38151 6.95427,2.09941c2.58724,2.48092 2.62425,7.08549 2.62425,7.08549v128.08653c0,0 0.29961,5.24779 -2.36183,7.87277c-2.66144,2.62498 -8.00399,2.36182 -8.00399,2.36182z" data-paper-data="{&quot;index&quot;:null}" fill="url(#color-1)" stroke-opacity="0.50196" stroke="#ffffff" stroke-width="0"/><text transform="translate(329.19901,139.2381) scale(0.25041,0.25041)" font-size="40" xml:space="preserve" data-paper-data="{&quot;index&quot;:null}" fill="#000000" fill-rule="nonzero" stroke="#000000" stroke-width="1" stroke-linecap="butt" stroke-linejoin="miter" stroke-miterlimit="10" stroke-dasharray="" stroke-dashoffset="0" font-family="Sans Serif" font-weight="normal" text-anchor="start" style="mix-blend-mode: normal"><tspan x="0" dy="0">Splatmeetでは、みんなが同じ</tspan><tspan x="0" dy="46.15px">時間にあつまってオンライン</tspan><tspan x="0" dy="46.15px">を遊ぶために、6時間おきに</tspan><tspan x="0" dy="46.15px">集合する時間を決めています。</tspan><tspan x="0" dy="46.15px"> </tspan><tspan x="0" dy="46.15px">この時間に参加しょう！</tspan></text><text transform="translate(329.19901,231.52382) scale(0.25041,0.25041)" font-size="40" xml:space="preserve" data-paper-data="{&quot;index&quot;:null}" fill="#000000" fill-rule="nonzero" stroke="#000000" stroke-width="1" stroke-linecap="butt" stroke-linejoin="miter" stroke-miterlimit="10" stroke-dasharray="" stroke-dashoffset="0" font-family="Sans Serif" font-weight="normal" text-anchor="start" style="mix-blend-mode: normal"><tspan x="0" dy="0">になっています。</tspan><tspan x="0" dy="46.15px"> </tspan><tspan x="0" dy="46.15px">また、毎月1時間ずれるように</tspan><tspan x="0" dy="46.15px">なっています。</tspan></text></g></g></svg>