<svg version="1.1" xmlns="http://www.w3.org/2000/svg" xmlns:xlink="http://www.w3.org/1999/xlink" width="88.42581" height="88.42581" viewBox="0,0,88.42581,88.42581"><defs><radialGradient cx="240" cy="180" r="41.5" gradientUnits="userSpaceOnUse" id="color-1"><stop offset="0" stop-color="#65ca00"/><stop offset="1" stop-color="#65ca00" stop-opacity="0"/></radialGradient><linearGradient x1="221.26111" y1="177.74556" x2="221.26111" y2="198.99556" gradientUnits="userSpaceOnUse" id="color-2"><stop offset="0" stop-color="#bfff80"/><stop offset="1" stop-color="#72e500"/></linearGradient><linearGradient x1="249.63611" y1="156.99556" x2="249.63611" y2="197.74556" gradientUnits="userSpaceOnUse" id="color-3"><stop offset="0" stop-color="#bfff80"/><stop offset="1" stop-color="#72e500"/></linearGradient></defs><g transform="translate(-195.78712,-135.78712)"><g data-paper-data="{&quot;isPaintingLayer&quot;:true}" fill-rule="nonzero" stroke-linecap="butt" stroke-linejoin="miter" stroke-miterlimit="10" stroke-dasharray="" stroke-dashoffset="0" style="mix-blend-mode: normal"><path d="M195.78712,224.21294v-88.42581h88.42581v88.42581z" fill="none" stroke="none" stroke-width="0"/><g><path d="M198.5,180c0,-22.91981 18.58019,-41.5 41.5,-41.5c22.91981,0 41.5,18.58019 41.5,41.5c0,22.91982 -18.58019,41.5 -41.5,41.5c-22.91981,0 -41.5,-18.58018 -41.5,-41.5z" fill="url(#color-1)" stroke="#000000" stroke-width="0"/><path d="M212.38611,198.99556v-26h16.25l3.75,26z" fill="url(#color-2)" stroke="#77bf00" stroke-width="2"/><path d="M233.63611,193.24556l-2.25,-17.75l7.24441,-14.50835l-1.55165,-9.54717l3.78669,-3.10559l4.95542,1.99008l3.50498,8.93436l0.08648,9.41046l14.97367,-0.92379l3.22778,9.0521l-2.0899,6.19645l1.93203,7.25205l-2.31991,7.4994l-22.81,1.42z" fill="url(#color-3)" stroke="#77bf00" stroke-width="2"/></g></g></g></svg>