<svg version="1.1" xmlns="http://www.w3.org/2000/svg" xmlns:xlink="http://www.w3.org/1999/xlink" width="37.6" height="43.6" viewBox="0,0,37.6,43.6"><g transform="translate(-221.2,-158.2)"><g data-paper-data="{&quot;isPaintingLayer&quot;:true}" fill-rule="nonzero" stroke="none" stroke-linecap="butt" stroke-linejoin="miter" stroke-miterlimit="10" stroke-dasharray="" stroke-dashoffset="0" style="mix-blend-mode: normal"><path d="M221.2,201.8v-43.6h37.6v43.6z" fill="none" stroke-width="0"/><path d="M229.21249,191.65174v-23.36447c0,-0.97606 0.30502,-1.73522 0.91506,-2.27748c0.6236,-0.55581 1.41665,-0.83372 2.37915,-0.83372h7.9915c1.43698,0 2.75195,0.30502 3.94491,0.91506c1.19296,0.61004 2.13513,1.47765 2.82651,2.60283c0.70493,1.11163 1.0574,2.37915 1.0574,3.80257c0,2.88751 -1.28786,4.92775 -3.86357,6.12072v0.08135c0.86761,0.122 1.68777,0.39313 2.46049,0.81338c0.77272,0.40669 1.45054,0.92861 2.03346,1.56576c0.59648,0.63715 1.05062,1.34886 1.36242,2.13513c0.3118,0.78627 0.4677,1.6471 0.4677,2.5825c0,2.87396 -0.88117,5.09721 -2.6435,6.66975c-1.74878,1.57254 -4.08726,2.35881 -7.01544,2.35881h-8.58121c-0.97606,0 -1.77589,-0.29146 -2.39948,-0.87438c-0.6236,-0.58293 -0.93539,-1.34886 -0.93539,-2.29781zM235.45523,170.66642v6.24272h3.25354c1.03029,0 1.85045,-0.28468 2.46049,-0.85405c0.61004,-0.58292 0.91506,-1.38953 0.91506,-2.41982c0,-0.94895 -0.31858,-1.68099 -0.95573,-2.19614c-0.62359,-0.51514 -1.4302,-0.77271 -2.41982,-0.77271zM235.45523,182.41982v6.91377h4.92097c1.16585,0 2.10802,-0.31858 2.82651,-0.95573c0.73205,-0.65071 1.09807,-1.54543 1.09807,-2.68417c0,-1.00317 -0.37958,-1.79622 -1.13874,-2.37915c-0.7456,-0.59648 -1.84367,-0.89472 -3.2942,-0.89472z" fill="#ff0000" stroke-width="0.40889"/></g></g></svg>