<svg version="1.1" xmlns="http://www.w3.org/2000/svg" xmlns:xlink="http://www.w3.org/1999/xlink" width="53.6" height="89.6" viewBox="0,0,53.6,89.6"><defs><radialGradient cx="240" cy="180" r="26.8" gradientUnits="userSpaceOnUse" id="color-1"><stop offset="0" stop-color="#ffffff" stop-opacity="0.61569"/><stop offset="1" stop-color="#ffffff" stop-opacity="0"/></radialGradient><radialGradient cx="240" cy="162" r="26.8" gradientUnits="userSpaceOnUse" id="color-2"><stop offset="0" stop-color="#ffffff" stop-opacity="0.61569"/><stop offset="1" stop-color="#ffffff" stop-opacity="0"/></radialGradient><radialGradient cx="240" cy="198" r="26.8" gradientUnits="userSpaceOnUse" id="color-3"><stop offset="0" stop-color="#ffffff" stop-opacity="0.61569"/><stop offset="1" stop-color="#ffffff" stop-opacity="0"/></radialGradient><linearGradient x1="240.00002" y1="189.7649" x2="240.00002" y2="206.72009" gradientUnits="userSpaceOnUse" id="color-4"><stop offset="0" stop-color="#ff0000"/><stop offset="1" stop-color="#ff0000" stop-opacity="0.6549"/></linearGradient><linearGradient x1="240.00002" y1="152.66668" x2="240.00002" y2="207.33334" gradientUnits="userSpaceOnUse" id="color-5"><stop offset="0" stop-color="#ff0000" stop-opacity="0.20392"/><stop offset="1" stop-color="#bf0000"/></linearGradient></defs><g transform="translate(-213.2,-135.2)"><g data-paper-data="{&quot;isPaintingLayer&quot;:true}" fill-rule="nonzero" stroke-linecap="butt" stroke-linejoin="miter" stroke-miterlimit="10" stroke-dasharray="" stroke-dashoffset="0" style="mix-blend-mode: normal"><g stroke="none" stroke-width="0"><path d="M213.2,180c0,-14.80123 11.99877,-26.8 26.8,-26.8c14.80123,0 26.8,11.99877 26.8,26.8c0,14.80123 -11.99877,26.8 -26.8,26.8c-14.80123,0 -26.8,-11.99877 -26.8,-26.8z" fill="url(#color-1)"/><path d="M213.2,162c0,-14.80123 11.99877,-26.8 26.8,-26.8c14.80123,0 26.8,11.99877 26.8,26.8c0,14.80123 -11.99877,26.8 -26.8,26.8c-14.80123,0 -26.8,-11.99877 -26.8,-26.8z" fill="url(#color-2)"/><path d="M213.2,198c0,-14.80123 11.99877,-26.8 26.8,-26.8c14.80123,0 26.8,11.99877 26.8,26.8c0,14.80123 -11.99877,26.8 -26.8,26.8c-14.80123,0 -26.8,-11.99877 -26.8,-26.8z" fill="url(#color-3)"/></g><path d="M230.82906,206.7312v-53.46239h18.34188v53.46239z" fill-opacity="0.47843" fill="#ffffff" stroke="#000000" stroke-width="0"/><path d="M230.82908,206.72009v-16.95519h18.34188v16.95519z" fill="url(#color-4)" stroke="#000000" stroke-width="0"/><path d="M230.33335,204.43334v-49.26667l2.5641,-2.5h14.2l2.56923,2.5v49.66667l-2.76923,2.5h-13.8z" fill="none" stroke="url(#color-5)" stroke-width="1.5"/></g></g></svg>