<svg version="1.1" xmlns="http://www.w3.org/2000/svg" xmlns:xlink="http://www.w3.org/1999/xlink" width="175.36237" height="179.74819" viewBox="0,0,175.36237,179.74819"><defs><linearGradient x1="401.72043" y1="170.99807" x2="377.24745" y2="236.33015" gradientUnits="userSpaceOnUse" id="color-1"><stop offset="0" stop-color="#dcd0e8"/><stop offset="1" stop-color="#ffffff"/></linearGradient><linearGradient x1="349.6427" y1="146.39347" x2="294.44708" y2="167.99322" gradientUnits="userSpaceOnUse" id="color-2"><stop offset="0" stop-color="#ffffff"/><stop offset="1" stop-color="#dcd0e8"/></linearGradient><linearGradient x1="336.03647" y1="123.69223" x2="288.51025" y2="106.29752" gradientUnits="userSpaceOnUse" id="color-3"><stop offset="0" stop-color="#dcd0e8"/><stop offset="1" stop-color="#ffffff"/></linearGradient><linearGradient x1="330.5748" y1="216.14474" x2="297.29288" y2="108.96417" gradientUnits="userSpaceOnUse" id="color-4"><stop offset="0" stop-color="#f6f3f9"/><stop offset="1" stop-color="#e7def0"/></linearGradient><linearGradient x1="358.9646" y1="136.53591" x2="332.19846" y2="130.33957" gradientUnits="userSpaceOnUse" id="color-5"><stop offset="0" stop-color="#636363"/><stop offset="1" stop-color="#000000"/></linearGradient><linearGradient x1="306.3207" y1="168.95977" x2="290.71197" y2="118.18263" gradientUnits="userSpaceOnUse" id="color-6"><stop offset="0" stop-color="#ffffff"/><stop offset="1" stop-color="#dcd0e8"/></linearGradient><linearGradient x1="419.65783" y1="112.74763" x2="419.65783" y2="148.81058" gradientUnits="userSpaceOnUse" id="color-7"><stop offset="0" stop-color="#ffffff"/><stop offset="1" stop-color="#e9e0f2"/></linearGradient><linearGradient x1="428.11964" y1="131.18806" x2="375.27234" y2="165.4132" gradientUnits="userSpaceOnUse" id="color-8"><stop offset="0" stop-color="#ffffff"/><stop offset="1" stop-color="#e9e0f2"/></linearGradient><linearGradient x1="420.82826" y1="152.80595" x2="419.87684" y2="157.25453" gradientUnits="userSpaceOnUse" id="color-9"><stop offset="0" stop-color="#ffffff"/><stop offset="1" stop-color="#000000"/></linearGradient><linearGradient x1="418.87015" y1="138.07372" x2="416.05721" y2="151.2264" gradientUnits="userSpaceOnUse" id="color-10"><stop offset="0" stop-color="#000000"/><stop offset="1" stop-color="#636363"/></linearGradient><linearGradient x1="371.76702" y1="105.01688" x2="371.76702" y2="140.53185" gradientUnits="userSpaceOnUse" id="color-11"><stop offset="0" stop-color="#636363"/><stop offset="1" stop-color="#000000"/></linearGradient><linearGradient x1="392.13409" y1="219.17888" x2="344.95573" y2="203.25002" gradientUnits="userSpaceOnUse" id="color-12"><stop offset="0" stop-color="#ffffff"/><stop offset="1" stop-color="#eae2f1"/></linearGradient></defs><g transform="translate(-261.51717,-76.13762)"><g data-paper-data="{&quot;isPaintingLayer&quot;:true}" fill-rule="nonzero" stroke-linejoin="miter" stroke-miterlimit="10" stroke-dasharray="" stroke-dashoffset="0" style="mix-blend-mode: normal"><path d="M383.07503,238.51311l-10.20523,-15.74459l-0.05299,-62.59756l16.94315,12.24261l21.16654,61.99538l-3.29274,6.98625z" data-paper-data="{&quot;index&quot;:null}" fill="url(#color-1)" stroke="none" stroke-width="0" stroke-linecap="butt"/><path d="M290.9528,166.9353l6.41096,-23.79291l6.15161,0.28956l4.49442,-8.35601l13.2652,-5.7636l18.1798,4.79416l10.11309,19.08436l-2.48052,18.55809l-14.18797,9.37894l-11.64107,0.28365l-10.34779,-14.08844l-11.52553,11.23327l-4.25289,4.3l-5.71118,-2.88996z" data-paper-data="{&quot;index&quot;:null}" fill="url(#color-2)" stroke="none" stroke-width="0" stroke-linecap="butt"/><path d="M327.11051,130.2944l-10.50822,6.41327l-9.93113,-4.44006l-7.46765,-20.55686l2.70147,-17.59288l11.97607,-17.98025l-0.03937,17.02575l3.16956,16.00299z" data-paper-data="{&quot;index&quot;:null}" fill="url(#color-3)" stroke="none" stroke-width="0" stroke-linecap="butt"/><path d="M276.18412,141.73697l26.73621,-22.74473l45.77592,15.80836l39.95563,10.95774l7.49007,28.40242l-30.40716,15.94483l-48.98163,-16.93537z" data-paper-data="{&quot;index&quot;:null}" fill="url(#color-4)" stroke="none" stroke-width="0" stroke-linecap="butt"/><path d="M332.91563,129.05419l13.64479,3.04855l16.47702,6.61943l-21.45247,6.08948z" data-paper-data="{&quot;index&quot;:null}" fill="url(#color-5)" stroke="none" stroke-width="0" stroke-linecap="butt"/><path d="M262.05348,152.32894l9.29689,-22.69576l6.72563,0.2757l4.89874,-8.36613l14.49179,-5.7935l19.88315,4.75319l13.0336,18.36118l-4.62322,19.264l-15.49422,9.4109l-12.72587,0.30989l-11.3373,-14.06508l-13.79496,8.98203l-4.64182,4.30958l-6.24872,-2.87709z" data-paper-data="{&quot;index&quot;:null}" fill="url(#color-6)" stroke="none" stroke-width="0" stroke-linecap="butt"/><path d="M402.43611,139.87065l1.04993,-23.03574l13.09921,-4.08728l18.26725,3.04218l2.02704,22.57151l-10.76908,10.44926z" fill="url(#color-7)" stroke="none" stroke-width="0" stroke-linecap="butt"/><path d="M405.31602,179.66795l-16.21258,-4.87085l-14.63136,-13.02241l-8.27733,-10.37829l-1.66066,-25.85604l16.98803,-12.92654l22.72723,-1.43691l19.23493,12.85363l5.12194,12.93337l-4.28379,13.00518l9.52681,4.86254l0.63374,12.18382l-8.99082,12.39052z" fill="url(#color-8)" stroke="none" stroke-width="0" stroke-linecap="butt"/><path d="M427.76578,153.902l0.24217,9.74358l-9.45215,0.69217l-9.0836,-4.6564l4.2064,-8.79217z" data-paper-data="{&quot;index&quot;:null}" fill="#000000" stroke="none" stroke-width="0" stroke-linecap="butt"/><path d="M415.2429,156.26347l0.20999,-4.60715l10.75073,2.29926l-0.20999,4.60715z" fill="url(#color-9)" stroke="none" stroke-width="0" stroke-linecap="butt"/><path d="M410.39907,148.18332l0.71899,-8.84104l8.36908,-1.1366l5.31099,7.12868l-5.76194,6.52916z" data-paper-data="{&quot;index&quot;:null}" fill="url(#color-10)" stroke="none" stroke-width="0" stroke-linecap="butt"/><path d="M398.33007,139.17055l4.7679,3.12971l-2.01993,5.64406l-4.95939,-0.67083l-2.51708,-4.11596z" data-paper-data="{&quot;index&quot;:null}" fill="#000000" stroke="none" stroke-width="0" stroke-linecap="butt"/><path d="M359.42742,139.00622l-5.66318,-14.09862l8.36674,-19.89072l18.38835,4.97722l9.25045,9.0877l-7.61542,21.45005z" data-paper-data="{&quot;index&quot;:null}" fill="url(#color-11)" stroke="none" stroke-width="0" stroke-linecap="butt"/><path d="M419.0315,162.11347l-1.97426,6.81431" fill="none" stroke="#000000" stroke-width="1.5" stroke-linecap="round"/><path d="M349.24324,224.10719l9.11867,-60.56377l14.9155,10.09216l-0.40867,28.80937l10.45407,42.8313l-13.47936,10.60956l-18.10753,-10.0591z" data-paper-data="{&quot;index&quot;:null}" fill="url(#color-12)" stroke="none" stroke-width="0" stroke-linecap="butt"/></g></g></svg>