<svg version="1.1" xmlns="http://www.w3.org/2000/svg" xmlns:xlink="http://www.w3.org/1999/xlink" width="74.68999" height="65.59776" viewBox="0,0,74.68999,65.59776"><defs><radialGradient cx="241.14323" cy="179.99999" r="32.79887" gradientUnits="userSpaceOnUse" id="color-1"><stop offset="0" stop-color="#000000"/><stop offset="1" stop-color="#000000" stop-opacity="0"/></radialGradient><linearGradient x1="208.51318" y1="178.62823" x2="211.81421" y2="179.61088" gradientUnits="userSpaceOnUse" id="color-2"><stop offset="0" stop-color="#ffffff" stop-opacity="0"/><stop offset="1" stop-color="#ffffff" stop-opacity="0.70196"/></linearGradient><linearGradient x1="205.13785" y1="174.15411" x2="207.59957" y2="174.88695" gradientUnits="userSpaceOnUse" id="color-3"><stop offset="0" stop-color="#ffffff" stop-opacity="0"/><stop offset="1" stop-color="#ffffff" stop-opacity="0.70196"/></linearGradient><linearGradient x1="204.76452" y1="179.191" x2="207.0584" y2="179.87382" gradientUnits="userSpaceOnUse" id="color-4"><stop offset="0" stop-color="#ffffff" stop-opacity="0"/><stop offset="1" stop-color="#ffffff" stop-opacity="0.70196"/></linearGradient><linearGradient x1="201.4233" y1="176.50487" x2="202.93391" y2="176.95459" gradientUnits="userSpaceOnUse" id="color-5"><stop offset="0" stop-color="#ffffff" stop-opacity="0"/><stop offset="1" stop-color="#ffffff" stop-opacity="0.70196"/></linearGradient><linearGradient x1="212.76432" y1="171.62866" x2="215.35574" y2="173.89736" gradientUnits="userSpaceOnUse" id="color-6"><stop offset="0" stop-color="#ffffff" stop-opacity="0"/><stop offset="1" stop-color="#ffffff" stop-opacity="0.70196"/></linearGradient><linearGradient x1="211.55994" y1="166.15514" x2="213.4926" y2="167.84704" gradientUnits="userSpaceOnUse" id="color-7"><stop offset="0" stop-color="#ffffff" stop-opacity="0"/><stop offset="1" stop-color="#ffffff" stop-opacity="0.70196"/></linearGradient><linearGradient x1="209.12204" y1="170.57841" x2="210.92284" y2="172.15492" gradientUnits="userSpaceOnUse" id="color-8"><stop offset="0" stop-color="#ffffff" stop-opacity="0"/><stop offset="1" stop-color="#ffffff" stop-opacity="0.70196"/></linearGradient><linearGradient x1="207.20378" y1="166.74455" x2="208.38969" y2="167.78274" gradientUnits="userSpaceOnUse" id="color-9"><stop offset="0" stop-color="#ffffff" stop-opacity="0"/><stop offset="1" stop-color="#ffffff" stop-opacity="0.70196"/></linearGradient><linearGradient x1="213.87393" y1="178.71725" x2="247.99501" y2="178.71725" gradientUnits="userSpaceOnUse" id="color-10"><stop offset="0" stop-color="#8b0000" stop-opacity="0"/><stop offset="1" stop-color="#8b0000" stop-opacity="0.58871"/></linearGradient><linearGradient x1="216.80314" y1="183.44248" x2="230.2438" y2="183.44248" gradientUnits="userSpaceOnUse" id="color-11"><stop offset="0" stop-color="#ffffff" stop-opacity="0.59677"/><stop offset="1" stop-color="#ffffff" stop-opacity="0"/></linearGradient><linearGradient x1="247.72415" y1="192.91476" x2="258.52118" y2="192.91476" gradientUnits="userSpaceOnUse" id="color-12"><stop offset="0" stop-color="#000000"/><stop offset="1" stop-color="#ffffff"/></linearGradient><linearGradient x1="247.68392" y1="165.11233" x2="258.48095" y2="165.11233" gradientUnits="userSpaceOnUse" id="color-13"><stop offset="0" stop-color="#000000"/><stop offset="1" stop-color="#ffffff"/></linearGradient><linearGradient x1="247.72415" y1="183.22587" x2="258.52118" y2="183.22587" gradientUnits="userSpaceOnUse" id="color-14"><stop offset="0" stop-color="#000000"/><stop offset="1" stop-color="#ffffff"/></linearGradient><linearGradient x1="247.72415" y1="173.49828" x2="258.52118" y2="173.49828" gradientUnits="userSpaceOnUse" id="color-15"><stop offset="0" stop-color="#000000"/><stop offset="1" stop-color="#ffffff"/></linearGradient></defs><g transform="translate(-199.2521,-147.20112)"><g data-paper-data="{&quot;isPaintingLayer&quot;:true}" fill-rule="nonzero" stroke-width="0" stroke-linecap="butt" stroke-linejoin="miter" stroke-miterlimit="10" stroke-dasharray="" stroke-dashoffset="0" style="mix-blend-mode: normal"><path d="M208.34465,179.85885c0.07795,-18.11415 14.82557,-32.73537 32.93971,-32.65742c18.11415,0.07795 32.73537,14.82557 32.65742,32.93971c-0.07795,18.11415 -14.82557,32.73538 -32.93971,32.65743c-18.11415,-0.07795 -32.73537,-14.82557 -32.65742,-32.93971z" fill="url(#color-1)" stroke="#000000"/><g><g data-paper-data="{&quot;index&quot;:null}"><g><path d="M220.05977,178.58164c-0.32349,3.84908 -3.70605,6.70714 -7.55509,6.38365c-3.84908,-0.32349 -13.56821,-6.78786 -13.24469,-10.63693c0.32349,-3.84908 10.56708,-3.62532 14.41615,-3.30184c3.8491,0.32348 6.70715,3.70603 6.38366,7.55509z" fill="#e72929" stroke="#001026"/><path d="M208.51318,178.62823c0.27136,-0.91155 1.23027,-1.43055 2.14183,-1.15918c0.91155,0.27136 1.43053,1.23028 1.15917,2.14184c-0.27136,0.91154 -1.23028,1.43053 -2.14184,1.15917c-0.91154,-0.27136 -1.43052,-1.23027 -1.15916,-2.14183z" fill="url(#color-2)" stroke="none"/><path d="M206.0023,175.75145c-0.6798,-0.20238 -1.06684,-0.91751 -0.86446,-1.59731c0.20238,-0.67978 0.91751,-1.06683 1.59731,-0.86445c0.67977,0.20237 1.06684,0.9175 0.86446,1.59728c-0.20237,0.67977 -0.91751,1.06683 -1.59731,0.86445z" fill="url(#color-3)" stroke="none"/><path d="M204.76452,179.191c0.18857,-0.63342 0.85497,-0.99409 1.48839,-0.80552c0.63342,0.18857 0.99409,0.85495 0.80553,1.48839c-0.18857,0.63342 -0.85495,0.99409 -1.48839,0.80552c-0.63342,-0.18857 -0.99409,-0.85497 -0.80553,-1.48839z" fill="url(#color-4)" stroke="none"/><path d="M201.4233,176.50487c0.12419,-0.41716 0.56303,-0.65464 0.98018,-0.53045c0.41715,0.12417 0.65464,0.56303 0.53045,0.98018c-0.12419,0.41716 -0.56304,0.65464 -0.98018,0.53045c-0.41715,-0.12417 -0.65464,-0.56303 -0.53045,-0.98018z" fill="url(#color-5)" stroke="none"/></g><g><g stroke="#001026"><path d="M209.06578,160.18259c0.28903,-0.85721 1.97449,-1.06286 3.76458,-0.45932c1.79008,0.60355 3.00694,1.78776 2.7179,2.64497c-0.28903,0.85723 -1.97449,1.06286 -3.76458,0.45932c-1.79008,-0.60355 -3.00694,-1.78777 -2.71791,-2.64498z" fill="#d4d2cb"/><path d="M222.15307,176.9024c-2.26935,3.12571 -5.61425,2.53488 -8.73996,0.26553c-3.12571,-2.26934 -9.12335,-11.54644 -6.854,-14.67216c2.26934,-3.1257 11.85371,0.30296 14.97943,2.57232c3.12571,2.26934 2.8839,8.7086 0.61452,11.83431z" fill="#d4d2cb"/><path d="M220.55762,167.04035c3.3643,1.89774 4.55321,6.16348 2.65545,9.5278c-1.89774,3.3643 -6.16348,4.55322 -9.5278,2.65547c-3.36431,-1.89774 -9.50642,-11.82366 -7.60868,-15.18798c1.89774,-3.3643 11.11671,1.10697 14.48102,3.00471z" fill="#e72929"/><path d="M221.69431,162.73165c1.79008,0.60355 3.00693,1.78776 2.7179,2.64497c-0.28903,0.85723 -1.97445,1.06286 -3.76454,0.45932c-1.79008,-0.60355 -3.00694,-1.78774 -2.71791,-2.64496c0.28903,-0.85723 1.97449,-1.06288 3.76456,-0.45933z" fill="#d4d2cb"/></g><path d="M212.92571,174.05872c-0.71559,-0.62646 -0.78786,-1.71444 -0.1614,-2.43005c0.62648,-0.71559 1.71445,-0.78785 2.43006,-0.16139c0.71559,0.62648 0.78785,1.71445 0.16139,2.43005c-0.62646,0.71559 -1.71443,0.78785 -2.43002,0.1614z" fill="url(#color-6)" stroke="none"/><path d="M211.55994,166.15514c0.4672,-0.53367 1.27855,-0.58756 1.81222,-0.12036c0.53367,0.4672 0.58757,1.27855 0.12036,1.81223c-0.4672,0.53367 -1.27855,0.58756 -1.81223,0.12036c-0.53367,-0.4672 -0.58756,-1.27856 -0.12036,-1.81225z" fill="url(#color-7)" stroke="none"/><path d="M209.12204,170.57841c0.43534,-0.49729 1.19138,-0.54752 1.68869,-0.11218c0.49729,0.43534 0.5475,1.19137 0.11215,1.68868c-0.43533,0.49728 -1.19141,0.54752 -1.6887,0.11218c-0.49729,-0.43534 -0.54749,-1.19141 -0.11214,-1.68868z" fill="url(#color-8)" stroke="none"/><path d="M207.20378,166.74455c0.28668,-0.32748 0.78455,-0.36056 1.11203,-0.07387c0.3275,0.28669 0.36055,0.78459 0.07387,1.11206c-0.28668,0.32748 -0.78458,0.36055 -1.11205,0.07387c-0.32748,-0.28671 -0.36055,-0.78459 -0.07386,-1.11206z" fill="url(#color-9)" stroke="none"/></g></g><path d="M241.01166,202.77383c-12.96863,0 -23.48175,-10.51315 -23.48175,-23.48176c0,-12.96863 10.51314,-23.48176 23.48176,-23.48176c12.96863,0 23.48176,10.51315 23.48176,23.48176c0,12.96862 -10.51315,23.48176 -23.48176,23.48176z" fill="#000000" stroke="#001026"/><g><path d="M242.43367,153.07933c2.09347,0 5.07434,1.27624 5.03942,2.84301c-0.00879,0.39471 -1.69056,9.80847 -1.70541,14.86544c-0.01413,4.80994 1.64492,5.15765 1.40205,9.86212c-0.23607,4.57244 -1.43802,4.61044 -1.40482,8.13441c0.09716,10.30539 2.07906,10.85089 2.20934,11.69869c0.31982,2.08135 -3.12797,3.87223 -5.54056,3.87223c-15.7731,0 -28.55975,-11.47857 -28.55975,-25.63801c0,-14.15946 12.78664,-25.63799 28.55975,-25.63799z" data-paper-data="{&quot;index&quot;:null}" fill="#e72929" stroke="#001026"/><path d="M242.43368,153.07933c2.09347,0 5.07436,1.27621 5.03942,2.84301c-0.002,0.08913 0.51733,0.55778 0.38317,1.41267c-0.45991,2.93097 -2.07708,9.53771 -2.08859,13.45276c-0.01413,4.80994 1.64492,5.15765 1.40205,9.86212c-0.23607,4.57246 -1.43805,4.61044 -1.40482,8.13441c0.09716,10.30539 2.07906,10.85089 2.20934,11.69869c0.31982,2.08135 -3.12797,3.87223 -5.54056,3.87223c-15.7731,0 -28.55975,-11.47856 -28.55975,-25.63801c0,-14.15949 12.78665,-25.63801 28.55975,-25.63801z" data-paper-data="{&quot;index&quot;:null}" fill="url(#color-10)" stroke="#001026"/><path d="M224.26866,168.60224c3.48422,1.07436 1.93893,8.6813 2.93185,15.3652c1.22365,8.23704 9.67649,13.86183 4.726,14.3309c-4.95048,0.4691 -13.61209,-5.69518 -14.8357,-13.93224c-1.22365,-8.23704 4.9403,-16.4538 7.17788,-15.76387z" fill="url(#color-11)" stroke="#000000"/></g><path d="M251.09642,158.05501c3.28255,0.05571 12.52061,6.71961 13.66832,19.61899c1.14765,12.89937 -9.63431,22.47336 -12.91683,22.41766c0,0 6.13658,-15.36751 5.84789,-21.83306c-0.33406,-7.48214 -7.73606,-20.45698 -7.73606,-20.45698c0,0 1.05951,0.25991 1.13673,0.25343z" fill="#630b0b" stroke="#001026"/><g><path d="M248.34714,181.92752h-6.01875v-5.18755h6.01875z" fill="#2b2b2b" stroke="none"/><path d="M245.26989,183.36093l-8.05436,2.91975c0,0 1.8532,-5.58492 1.8532,-6.97209c0,-1.29065 -1.8532,-7.03405 -1.8532,-7.03405l8.05436,3.03204z" fill="#000000" stroke="none"/><g stroke="#001026"><path d="M258.72112,194.27106c0.0062,4.81815 -11.3832,4.11924 -11.49957,0c-0.02237,-0.79197 -0.04472,-4.26689 -0.04472,-4.26689l0.03671,-21.07802c0,0 0.00234,-3.40186 0.008,-4.80265c0.01369,-3.39257 11.38521,-3.31546 11.49957,0c0.12043,3.49186 -0.00064,4.80294 -0.00064,4.80294l-0.00301,21.54874c0,0 0.00213,2.62855 0.00364,3.79585z" fill="#000000"/><path d="M253.12266,189.04584c2.98149,0 5.39852,1.73218 5.39852,3.86892c0,2.13674 -2.417,3.86892 -5.39852,3.86892c-2.98149,0 -5.39851,-1.73218 -5.39851,-3.86892c0,-2.13674 2.41699,-3.86892 5.39851,-3.86892z" fill="url(#color-12)"/><path d="M247.68392,165.11236c0,-2.13674 2.41699,-3.86893 5.39851,-3.86893c2.98149,0 5.39852,1.73219 5.39852,3.86893c0,2.13674 -2.417,3.86889 -5.39852,3.86889c-2.98149,0 -5.39851,-1.73215 -5.39851,-3.86889z" data-paper-data="{&quot;index&quot;:null}" fill="url(#color-13)"/><path d="M253.12266,179.35696c2.98149,0 5.39852,1.73218 5.39852,3.86892c0,2.13674 -2.417,3.86892 -5.39852,3.86892c-2.98149,0 -5.39851,-1.73218 -5.39851,-3.86892c0,-2.13674 2.41699,-3.86892 5.39851,-3.86892z" fill="url(#color-14)"/><path d="M253.12266,169.62938c2.98149,0 5.39852,1.73218 5.39852,3.86892c0,2.13674 -2.417,3.86889 -5.39852,3.86889c-2.98149,0 -5.39851,-1.73215 -5.39851,-3.86889c0,-2.13674 2.41699,-3.86892 5.39851,-3.86892z" fill="url(#color-15)"/><path d="M253.12266,190.71256c1.69706,0 3.07281,0.98593 3.07281,2.20216c0,1.21621 -1.37575,2.20217 -3.07281,2.20217c-1.69706,0 -3.07278,-0.98596 -3.07278,-2.20217c0,-1.21621 1.37571,-2.20216 3.07278,-2.20216z" fill="#ff0000"/><path d="M250.04984,173.49827c0,-1.21621 1.37574,-2.20213 3.0728,-2.20213c1.69706,0 3.0728,0.98593 3.0728,2.20213c0,1.21621 -1.37574,2.20214 -3.0728,2.20214c-1.69706,0 -3.0728,-0.98592 -3.0728,-2.20214z" data-paper-data="{&quot;index&quot;:null}" fill="#ff0000"/><path d="M253.12266,181.02373c1.69706,0 3.07281,0.98593 3.07281,2.20213c0,1.21621 -1.37575,2.20214 -3.07281,2.20214c-1.69706,0 -3.07278,-0.98595 -3.07278,-2.20214c0,-1.21621 1.37571,-2.20213 3.07278,-2.20213z" fill="#ff0000"/><path d="M253.08243,162.91019c1.69706,0 3.07282,0.98596 3.07282,2.20217c0,1.21621 -1.37575,2.20213 -3.07282,2.20213c-1.69706,0 -3.07277,-0.98593 -3.07277,-2.20213c0,-1.21621 1.3757,-2.20217 3.07277,-2.20217z" fill="#ff0000"/></g></g></g></g></g></svg>