<svg version="1.1" xmlns="http://www.w3.org/2000/svg" xmlns:xlink="http://www.w3.org/1999/xlink" width="143.21534" height="88.41508" viewBox="0,0,143.21534,88.41508"><defs><radialGradient cx="246.27573" cy="192.88781" r="20.78815" gradientUnits="userSpaceOnUse" id="color-1"><stop offset="0" stop-color="#000000" stop-opacity="0.63137"/><stop offset="1" stop-color="#000000" stop-opacity="0"/></radialGradient><linearGradient x1="246.27573" y1="172.09965" x2="246.27573" y2="213.67597" gradientUnits="userSpaceOnUse" id="color-2"><stop offset="0" stop-color="#ff5454"/><stop offset="1" stop-color="#eb0000"/></linearGradient><radialGradient cx="280.27573" cy="191.22114" r="20.78815" gradientUnits="userSpaceOnUse" id="color-3"><stop offset="0" stop-color="#000000" stop-opacity="0.63137"/><stop offset="1" stop-color="#000000" stop-opacity="0"/></radialGradient><linearGradient x1="280.27573" y1="170.43298" x2="280.27573" y2="212.0093" gradientUnits="userSpaceOnUse" id="color-4"><stop offset="0" stop-color="#ff5454"/><stop offset="1" stop-color="#eb0000"/></linearGradient><radialGradient cx="311.4145" cy="191.01774" r="26.67675" gradientUnits="userSpaceOnUse" id="color-5"><stop offset="0" stop-color="#000000" stop-opacity="0.63137"/><stop offset="1" stop-color="#000000" stop-opacity="0"/></radialGradient><linearGradient x1="311.4145" y1="164.34097" x2="311.4145" y2="217.69449" gradientUnits="userSpaceOnUse" id="color-6"><stop offset="0" stop-color="#ff5454"/><stop offset="1" stop-color="#eb0000"/></linearGradient><linearGradient x1="271.04262" y1="181.18576" x2="292.74493" y2="181.18576" gradientUnits="userSpaceOnUse" id="color-7"><stop offset="0" stop-color="#eb0000"/><stop offset="1" stop-color="#ff5454"/></linearGradient><linearGradient x1="228.99065" y1="192.23172" x2="279.56212" y2="192.23172" gradientUnits="userSpaceOnUse" id="color-8"><stop offset="0" stop-color="#3c3c3c"/><stop offset="1" stop-color="#bebebe"/></linearGradient><linearGradient x1="229.16214" y1="192.21052" x2="322.04277" y2="192.28891" gradientUnits="userSpaceOnUse" id="color-9"><stop offset="0" stop-color="#000000"/><stop offset="1" stop-color="#ff0000"/></linearGradient><linearGradient x1="300.2386" y1="191.73733" x2="322.6786" y2="191.75154" gradientUnits="userSpaceOnUse" id="color-10"><stop offset="0" stop-color="#ff0000"/><stop offset="1" stop-color="#360000"/></linearGradient><linearGradient x1="323.43697" y1="191.70457" x2="331.85515" y2="191.71167" gradientUnits="userSpaceOnUse" id="color-11"><stop offset="0" stop-color="#ffffff"/><stop offset="1" stop-color="#000000"/></linearGradient><linearGradient x1="297.40668" y1="192.01996" x2="309.52551" y2="192.03019" gradientUnits="userSpaceOnUse" id="color-12"><stop offset="0" stop-color="#ffffff"/><stop offset="1" stop-color="#ffffff" stop-opacity="0"/></linearGradient><linearGradient x1="310.53118" y1="201.11904" x2="317.22842" y2="201.12469" gradientUnits="userSpaceOnUse" id="color-13"><stop offset="0" stop-color="#ffffff"/><stop offset="1" stop-color="#ffffff" stop-opacity="0"/></linearGradient><linearGradient x1="309.76669" y1="177.94937" x2="319.33417" y2="177.95744" gradientUnits="userSpaceOnUse" id="color-14"><stop offset="0" stop-color="#ffffff"/><stop offset="1" stop-color="#ffffff" stop-opacity="0"/></linearGradient><linearGradient x1="302.18482" y1="208.97841" x2="308.88208" y2="208.98407" gradientUnits="userSpaceOnUse" id="color-15"><stop offset="0" stop-color="#ffffff"/><stop offset="1" stop-color="#ffffff" stop-opacity="0"/></linearGradient><linearGradient x1="317.08532" y1="209.29032" x2="321.23123" y2="209.29382" gradientUnits="userSpaceOnUse" id="color-16"><stop offset="0" stop-color="#ffffff"/><stop offset="1" stop-color="#ffffff" stop-opacity="0"/></linearGradient><linearGradient x1="317.09167" y1="188.04975" x2="321.23758" y2="188.05325" gradientUnits="userSpaceOnUse" id="color-17"><stop offset="0" stop-color="#ffffff"/><stop offset="1" stop-color="#ffffff" stop-opacity="0"/></linearGradient><linearGradient x1="300.3517" y1="174.22479" x2="307.68677" y2="174.23098" gradientUnits="userSpaceOnUse" id="color-18"><stop offset="0" stop-color="#ffffff"/><stop offset="1" stop-color="#ffffff" stop-opacity="0"/></linearGradient><linearGradient x1="285.22493" y1="191.95661" x2="292.88112" y2="191.96306" gradientUnits="userSpaceOnUse" id="color-19"><stop offset="0" stop-color="#636363"/><stop offset="1" stop-color="#bababa"/></linearGradient><linearGradient x1="267.26637" y1="191.66085" x2="274.92257" y2="191.6673" gradientUnits="userSpaceOnUse" id="color-20"><stop offset="0" stop-color="#636363"/><stop offset="1" stop-color="#bababa"/></linearGradient><linearGradient x1="240.84198" y1="182.54452" x2="240.82483" y2="202.87288" gradientUnits="userSpaceOnUse" id="color-21"><stop offset="0" stop-color="#ff5454"/><stop offset="1" stop-color="#eb0000"/></linearGradient><linearGradient x1="255.84796" y1="180.96145" x2="255.82972" y2="202.56812" gradientUnits="userSpaceOnUse" id="color-22"><stop offset="0" stop-color="#ff5454"/><stop offset="1" stop-color="#eb0000"/></linearGradient><linearGradient x1="265.61281" y1="181.25106" x2="265.59458" y2="202.85772" gradientUnits="userSpaceOnUse" id="color-23"><stop offset="0" stop-color="#ff5454"/><stop offset="1" stop-color="#eb0000"/></linearGradient><linearGradient x1="277.39205" y1="188.79839" x2="277.21646" y2="195.8699" gradientUnits="userSpaceOnUse" id="color-24"><stop offset="0" stop-color="#ff5454"/><stop offset="1" stop-color="#eb0000"/></linearGradient><linearGradient x1="283.60192" y1="189.09088" x2="283.42698" y2="196.13654" gradientUnits="userSpaceOnUse" id="color-25"><stop offset="0" stop-color="#ff5454"/><stop offset="1" stop-color="#eb0000"/></linearGradient><linearGradient x1="239.31315" y1="189.36626" x2="239.30841" y2="194.97837" gradientUnits="userSpaceOnUse" id="color-26"><stop offset="0" stop-color="#ffffff"/><stop offset="1" stop-color="#8f8f8f"/></linearGradient><linearGradient x1="240.74701" y1="205.69515" x2="262.44932" y2="205.69515" gradientUnits="userSpaceOnUse" id="color-27"><stop offset="0" stop-color="#eb0000"/><stop offset="1" stop-color="#ff5454"/></linearGradient></defs><g transform="translate(-197.36297,-144.95092)"><g data-paper-data="{&quot;isPaintingLayer&quot;:true}" fill-rule="nonzero" stroke-miterlimit="10" stroke-dasharray="" stroke-dashoffset="0" style="mix-blend-mode: normal"><path d="M225.48759,192.88781c0,-11.48098 9.30718,-20.78815 20.78815,-20.78815c11.48097,0 20.78815,9.30718 20.78815,20.78815c0,11.48098 -9.30718,20.78815 -20.78815,20.78815c-11.48097,0 -20.78815,-9.30718 -20.78815,-20.78815z" fill="url(#color-1)" stroke="url(#color-2)" stroke-width="0" stroke-linecap="butt" stroke-linejoin="miter"/><path d="M197.36297,233.366v-88.41508h143.21534v88.41508z" fill="none" stroke="none" stroke-width="0" stroke-linecap="butt" stroke-linejoin="miter"/><path d="M259.48759,191.22114c0,-11.48098 9.30718,-20.78815 20.78815,-20.78815c11.48097,0 20.78815,9.30718 20.78815,20.78815c0,11.48098 -9.30718,20.78815 -20.78815,20.78815c-11.48097,0 -20.78815,-9.30718 -20.78815,-20.78815z" fill="url(#color-3)" stroke="url(#color-4)" stroke-width="0" stroke-linecap="butt" stroke-linejoin="miter"/><path d="M284.73773,191.01774c0,-14.73316 11.94359,-26.67675 26.67675,-26.67675c14.73318,0 26.67675,11.9436 26.67675,26.67675c0,14.73316 -11.94359,26.67675 -26.67675,26.67675c-14.73318,0 -26.67675,-11.9436 -26.67675,-26.67675z" fill="url(#color-5)" stroke="url(#color-6)" stroke-width="0" stroke-linecap="butt" stroke-linejoin="miter"/><path d="M271.04262,181.18576c0,-5.99293 4.85823,-10.85115 10.85115,-10.85115c5.99293,0 10.85115,4.85823 10.85115,10.85115c0,5.99293 -4.85823,10.85115 -10.85115,10.85115c-5.99293,0 -10.85115,-4.85823 -10.85115,-10.85115z" fill="url(#color-7)" stroke="#000000" stroke-width="0" stroke-linecap="butt" stroke-linejoin="miter"/><path d="M279.56212,192.25305l-50.57147,-0.04268" fill="none" stroke="url(#color-8)" stroke-width="21.5" stroke-linecap="round" stroke-linejoin="miter"/><path d="M322.04277,192.28891l-92.88063,-0.07839" fill="none" stroke="url(#color-9)" stroke-width="10" stroke-linecap="round" stroke-linejoin="miter"/><path d="M301.31122,175.26467c0,0 6.70154,-0.15644 10.07465,0.13047c3.40315,0.28947 10.25493,4.14142 10.25493,4.14142l-0.03483,24.0654c0,0 -5.92579,4.12892 -9.12305,4.39682c-3.54359,0.29693 -11.20654,0.21255 -11.20654,0.21255z" fill="#9e0000" stroke="url(#color-10)" stroke-width="16" stroke-linecap="round" stroke-linejoin="round"/><path d="M327.87524,171.73036l-0.17783,39.96249" fill="none" stroke="url(#color-11)" stroke-width="5" stroke-linecap="round" stroke-linejoin="miter"/><path d="M297.40668,192.01996c0.00283,-3.34653 2.718,-6.05712 6.06452,-6.0543c3.34653,0.00283 6.05712,2.71799 6.0543,6.06452c-0.00283,3.34653 -2.71799,6.05713 -6.06453,6.0543c-3.34651,-0.00283 -6.05712,-2.71799 -6.05429,-6.06453z" fill="url(#color-12)" stroke="none" stroke-width="0" stroke-linecap="butt" stroke-linejoin="miter"/><path d="M310.53118,201.11904c0.00156,-1.8494 1.50206,-3.34735 3.35145,-3.3458c1.8494,0.00156 3.34735,1.50206 3.34579,3.35145c-0.00156,1.8494 -1.50206,3.34735 -3.35145,3.34579c-1.8494,-0.00156 -3.34735,-1.50204 -3.34579,-3.35145z" fill="url(#color-13)" stroke="none" stroke-width="0" stroke-linecap="butt" stroke-linejoin="miter"/><path d="M309.76669,177.94937c0.00223,-2.64199 2.14578,-4.78194 4.78778,-4.77971c2.64199,0.00223 4.78194,2.1458 4.77971,4.78779c-0.00223,2.64199 -2.1458,4.78192 -4.78779,4.77971c-2.64199,-0.00223 -4.78192,-2.14578 -4.77971,-4.78778z" fill="url(#color-14)" stroke="none" stroke-width="0" stroke-linecap="butt" stroke-linejoin="miter"/><path d="M302.18482,208.97841c0.00156,-1.8494 1.50206,-3.34735 3.35145,-3.34579c1.8494,0.00156 3.34735,1.50206 3.3458,3.35145c-0.00156,1.8494 -1.50206,3.34735 -3.35145,3.34579c-1.8494,-0.00156 -3.34735,-1.50206 -3.3458,-3.35145z" fill="url(#color-15)" stroke="none" stroke-width="0" stroke-linecap="butt" stroke-linejoin="miter"/><path d="M317.08532,209.29032c0.00097,-1.14487 0.92984,-2.07217 2.07471,-2.07121c1.14487,0.00097 2.07218,0.92984 2.07121,2.07471c-0.00097,1.14487 -0.92984,2.07217 -2.07471,2.07121c-1.14487,-0.00097 -2.07218,-0.92984 -2.07121,-2.07471z" fill="url(#color-16)" stroke="none" stroke-width="0" stroke-linecap="butt" stroke-linejoin="miter"/><path d="M317.09167,188.04975c0.00097,-1.14487 0.92984,-2.07218 2.07471,-2.07121c1.14487,0.00097 2.07218,0.92984 2.07121,2.07471c-0.00097,1.14487 -0.92984,2.07217 -2.07471,2.07121c-1.14487,-0.00097 -2.07218,-0.92984 -2.07121,-2.07471z" fill="url(#color-17)" stroke="none" stroke-width="0" stroke-linecap="butt" stroke-linejoin="miter"/><path d="M300.3517,174.22479c0.0017,-2.02554 1.6451,-3.66615 3.67063,-3.66445c2.02554,0.0017 3.66615,1.64509 3.66443,3.67063c-0.0017,2.02554 -1.64509,3.66615 -3.67063,3.66443c-2.02553,-0.0017 -3.66615,-1.64509 -3.66445,-3.67063z" fill="url(#color-18)" stroke="none" stroke-width="0" stroke-linecap="butt" stroke-linejoin="miter"/><path d="M289.06968,177.83599l-0.03331,28.92114" fill="none" stroke="url(#color-19)" stroke-width="5" stroke-linecap="round" stroke-linejoin="miter"/><path d="M271.11112,171.9281l-0.03331,39.47193" fill="none" stroke="url(#color-20)" stroke-width="5" stroke-linecap="round" stroke-linejoin="miter"/><path d="M239.64627,202.87643l0.07328,-20.33285" fill="none" stroke="url(#color-21)" stroke-width="7.5" stroke-linecap="round" stroke-linejoin="miter"/><path d="M253.04189,180.95908l-0.01824,21.61141" fill="none" stroke="url(#color-22)" stroke-width="2.5" stroke-linecap="round" stroke-linejoin="miter"/><path d="M263.18136,202.85986l-0.094,-21.61093" fill="none" stroke="url(#color-23)" stroke-width="2.5" stroke-linecap="round" stroke-linejoin="miter"/><path d="M277.44752,188.82763l0.16245,7.01302" fill="none" stroke="url(#color-24)" stroke-width="2.5" stroke-linecap="round" stroke-linejoin="miter"/><path d="M282.57885,189.12121l0.07531,6.98499" fill="none" stroke="url(#color-25)" stroke-width="2.5" stroke-linecap="round" stroke-linejoin="miter"/><path d="M231.3135,192.16556l15.99456,0.0135" fill="none" stroke="url(#color-26)" stroke-width="5" stroke-linecap="round" stroke-linejoin="miter"/><path d="M240.74701,205.69515c0,-5.99292 4.85823,-10.85116 10.85115,-10.85116c5.99293,0 10.85116,4.85823 10.85116,10.85116c0,5.99292 -4.85823,10.85115 -10.85116,10.85115c-5.99292,0 -10.85115,-4.85823 -10.85115,-10.85115z" fill="url(#color-27)" stroke="#000000" stroke-width="0" stroke-linecap="butt" stroke-linejoin="miter"/></g></g></svg>