<svg version="1.1" xmlns="http://www.w3.org/2000/svg" xmlns:xlink="http://www.w3.org/1999/xlink" width="61.54975" height="61.54974" viewBox="0,0,61.54975,61.54974"><defs><radialGradient cx="262.18379" cy="183.20204" r="30.76811" gradientUnits="userSpaceOnUse" id="color-1"><stop offset="0" stop-color="#000000" stop-opacity="0.63137"/><stop offset="1" stop-color="#000000" stop-opacity="0"/></radialGradient><linearGradient x1="255.32585" y1="213.1961" x2="269.04175" y2="153.20794" gradientUnits="userSpaceOnUse" id="color-2"><stop offset="0" stop-color="#ff5454"/><stop offset="1" stop-color="#eb0000"/></linearGradient><linearGradient x1="260.33054" y1="159.10363" x2="255.03251" y2="207.62938" gradientUnits="userSpaceOnUse" id="color-3"><stop offset="0" stop-color="#929292"/><stop offset="1" stop-color="#000000"/></linearGradient><linearGradient x1="245.16842" y1="183.41385" x2="266.26703" y2="185.11122" gradientUnits="userSpaceOnUse" id="color-4"><stop offset="0" stop-color="#c40000"/><stop offset="1" stop-color="#ff4141"/></linearGradient><linearGradient x1="276.50675" y1="158.41664" x2="270.56257" y2="212.86063" gradientUnits="userSpaceOnUse" id="color-5"><stop offset="0" stop-color="#929292"/><stop offset="1" stop-color="#000000"/></linearGradient><linearGradient x1="270.96763" y1="185.2667" x2="284.70989" y2="186.64642" gradientUnits="userSpaceOnUse" id="color-6"><stop offset="0" stop-color="#da0000"/><stop offset="1" stop-color="#ff4343"/></linearGradient><linearGradient x1="269.65993" y1="184.04353" x2="278.8448" y2="185.04634" gradientUnits="userSpaceOnUse" id="color-7"><stop offset="0" stop-color="#000000" stop-opacity="0.38824"/><stop offset="1" stop-color="#000000" stop-opacity="0"/></linearGradient><linearGradient x1="278.40602" y1="189.09001" x2="283.92771" y2="189.93944" gradientUnits="userSpaceOnUse" id="color-8"><stop offset="0" stop-color="#ffffff" stop-opacity="0"/><stop offset="1" stop-color="#ffffff" stop-opacity="0.80784"/></linearGradient><linearGradient x1="241.88409" y1="169.22013" x2="257.89631" y2="177.52655" gradientUnits="userSpaceOnUse" id="color-9"><stop offset="0" stop-color="#eb0000"/><stop offset="1" stop-color="#ff5454"/></linearGradient><linearGradient x1="240.6003" y1="190.39586" x2="256.61255" y2="198.70227" gradientUnits="userSpaceOnUse" id="color-10"><stop offset="0" stop-color="#eb0000"/><stop offset="1" stop-color="#ff5454"/></linearGradient></defs><g transform="translate(-231.40892,-152.42717)"><g data-paper-data="{&quot;isPaintingLayer&quot;:true}" fill-rule="nonzero" stroke-width="0" stroke-linecap="butt" stroke-linejoin="miter" stroke-miterlimit="10" stroke-dasharray="" stroke-dashoffset="0" style="mix-blend-mode: normal"><path d="M269.04174,153.20796c16.56527,3.78754 26.92368,20.28677 23.13613,36.85204c-3.78755,16.56527 -20.28678,26.92367 -36.85204,23.13613c-16.56527,-3.78754 -26.92367,-20.28678 -23.13613,-36.85204c3.78754,-16.56527 20.28678,-26.92367 36.85204,-23.13613z" data-paper-data="{&quot;index&quot;:null}" fill="url(#color-1)" stroke="url(#color-2)"/><g stroke="none"><path d="M276.90594,160.91331l-4.87656,48.57178l-27.83755,-8.77797c0,0 -5.00275,-4.69971 -3.71654,-17.27121c1.13276,-11.07152 7.23719,-17.79523 7.23719,-17.79523z" data-paper-data="{&quot;index&quot;:null}" fill="url(#color-3)"/><path d="M248.81718,205.89099l-4.4303,-12.7625l2.11218,-22.00017l7.11994,-9.2182l14.07792,5.42767l-0.51477,4.71492l-11.48097,-2.98267l-4.45157,8.64969l-1.30288,11.8024l2.6576,9.833l11.28607,-1.11166l-0.53626,4.91173z" fill="url(#color-4)"/><path d="M270.78744,212.88495c-6.6586,-0.66552 -10.82649,-13.4036 -9.30926,-28.45133c1.51724,-15.04773 8.14508,-26.70683 14.80366,-26.04131c6.6586,0.66552 10.82648,13.40362 9.30926,28.45134c-1.51724,15.04773 -8.14507,26.70681 -14.80367,26.0413z" data-paper-data="{&quot;index&quot;:null}" fill="url(#color-5)"/><path d="M275.68593,207.39922c-3.79482,-0.381 -5.90728,-10.29006 -4.7183,-22.13251c1.18897,-11.84244 5.22913,-21.1338 9.02396,-20.7528c3.79482,0.381 5.90727,10.29006 4.7183,22.13251c-1.18897,11.84244 -5.22914,21.1338 -9.02396,20.75279z" data-paper-data="{&quot;index&quot;:null}" fill="url(#color-6)"/><path d="M271.2744,207.10188l-1.32893,-17.60637l2.19486,-13.81515c0,0 1.90865,-6.69499 3.78601,-8.97795c2.79859,-3.40321 5.15034,-2.35069 5.15034,-2.35069l-4.76218,43.8704z" fill="url(#color-7)"/><path d="M284.30105,190.122c-1.08261,7.03742 -3.31801,12.8011 -4.84279,12.56653c-1.52477,-0.23457 -2.13486,-6.56112 -1.05225,-13.59852c1.08261,-7.03742 3.80757,-13.48695 5.33234,-13.25237c1.52477,0.23457 1.64528,7.24697 0.56268,14.28439z" fill="url(#color-8)"/></g><path d="M241.88409,169.22013c2.29376,-4.42166 7.73766,-6.14666 12.15931,-3.8529c4.42166,2.29376 6.14666,7.73766 3.8529,12.15931c-2.29376,4.42166 -7.73766,6.14666 -12.15931,3.85291c-4.42166,-2.29376 -6.14665,-7.73767 -3.8529,-12.15931z" fill="url(#color-9)" stroke="#000000"/><path d="M240.6003,190.39586c2.29375,-4.42165 7.73766,-6.14667 12.15931,-3.85291c4.42166,2.29376 6.14667,7.73766 3.85291,12.15932c-2.29375,4.42165 -7.73766,6.14666 -12.15932,3.8529c-4.42166,-2.29376 -6.14666,-7.73766 -3.85291,-12.15931z" fill="url(#color-10)" stroke="#000000"/></g></g></svg>