<svg version="1.1" xmlns="http://www.w3.org/2000/svg" xmlns:xlink="http://www.w3.org/1999/xlink" width="69.4084" height="69.4084" viewBox="0,0,69.4084,69.4084"><defs><radialGradient cx="240" cy="179.99999" r="34.7042" gradientUnits="userSpaceOnUse" id="color-1"><stop offset="0" stop-color="#000000"/><stop offset="1" stop-color="#000000" stop-opacity="0"/></radialGradient><linearGradient x1="242.27011" y1="156.18012" x2="242.27011" y2="201.6906" gradientUnits="userSpaceOnUse" id="color-2"><stop offset="0" stop-color="#ff8e8e"/><stop offset="1" stop-color="#ff0000"/></linearGradient><linearGradient x1="249.55681" y1="162.19328" x2="249.55681" y2="193.90539" gradientUnits="userSpaceOnUse" id="color-3"><stop offset="0" stop-color="#ff7b7b"/><stop offset="1" stop-color="#ff0000"/></linearGradient><linearGradient x1="228.14597" y1="153.43246" x2="228.14597" y2="206.04785" gradientUnits="userSpaceOnUse" id="color-4"><stop offset="0" stop-color="#ff0000"/><stop offset="1" stop-color="#9d0000"/></linearGradient><linearGradient x1="238.69239" y1="179.64627" x2="245.32911" y2="179.64627" gradientUnits="userSpaceOnUse" id="color-5"><stop offset="0" stop-color="#ff0000"/><stop offset="1" stop-color="#800000"/></linearGradient><linearGradient x1="238.40403" y1="202.46868" x2="258.33814" y2="202.46868" gradientUnits="userSpaceOnUse" id="color-6"><stop offset="0" stop-color="#000000"/><stop offset="1" stop-color="#590000"/></linearGradient><linearGradient x1="238.54808" y1="157.33115" x2="258.48218" y2="157.33115" gradientUnits="userSpaceOnUse" id="color-7"><stop offset="0" stop-color="#000000"/><stop offset="1" stop-color="#a10000"/></linearGradient><linearGradient x1="214.6903" y1="179.59013" x2="242.24423" y2="179.59013" gradientUnits="userSpaceOnUse" id="color-8"><stop offset="0" stop-color="#9a0000"/><stop offset="1" stop-color="#000000"/></linearGradient></defs><g transform="translate(-205.2958,-145.2958)"><g data-paper-data="{&quot;isPaintingLayer&quot;:true}" fill-rule="nonzero" stroke-linejoin="miter" stroke-miterlimit="10" stroke-dasharray="" stroke-dashoffset="0" style="mix-blend-mode: normal"><path d="M240,214.7042c-19.1666,0 -34.7042,-15.5376 -34.7042,-34.7042c0,-19.1666 15.5376,-34.7042 34.7042,-34.7042c19.1666,0 34.7042,15.5376 34.7042,34.7042c0,19.1666 -15.5376,34.7042 -34.7042,34.7042z" fill="url(#color-1)" stroke="#000000" stroke-width="0" stroke-linecap="butt"/><path d="M242.27011,156.18012c12.72446,0 23.03968,10.18787 23.03968,22.75524c0,12.56737 -10.31522,22.75524 -23.03968,22.75524c-12.72446,0 -23.03968,-10.18787 -23.03968,-22.75524c0,-12.56737 10.31522,-22.75524 23.03968,-22.75524z" fill="url(#color-2)" stroke="none" stroke-width="0" stroke-linecap="butt"/><path d="M254.26894,183.71066c2.20067,0 3.98466,1.7029 3.98466,3.80354c0,2.10064 -1.78399,3.80355 -3.98466,3.80355c-2.20067,0 -3.98467,-1.70291 -3.98467,-3.80355c0,-2.10064 1.78399,-3.80354 3.98467,-3.80354z" fill="#000000" stroke="none" stroke-width="NaN" stroke-linecap="butt"/><path d="M254.26894,165.30152c2.20067,0 3.98467,1.7029 3.98467,3.80354c0,2.10064 -1.784,3.80354 -3.98467,3.80354c-2.20067,0 -3.98466,-1.7029 -3.98466,-3.80354c0,-2.10064 1.78399,-3.80354 3.98466,-3.80354z" fill="#000000" stroke="none" stroke-width="NaN" stroke-linecap="butt"/><path d="M252.94588,193.90539h-6.77816v-31.71209h6.77816z" fill="url(#color-3)" stroke="none" stroke-width="0" stroke-linecap="butt"/><path d="M252.28479,163.02573c-0.52438,2.38012 -1.70194,2.09554 -2.82467,4.25873c-1.10955,2.13778 -3.0792,7.77128 -2.72962,10.86348c0.32849,2.90563 3.61191,11.25982 3.61191,11.25982c0,0 6.72218,3.90814 5.39055,7.13345c-1.83114,4.43514 -9.61894,5.06197 -12.90875,5.06197c-12.72446,0 -23.03968,-10.18787 -23.03968,-22.75524c0,-12.33091 9.9307,-22.37101 22.32404,-22.74447c12.39334,-0.37346 10.17622,6.92226 10.17622,6.92226z" fill="#460000" stroke="none" stroke-width="0" stroke-linecap="butt"/><path d="M262.70405,172.15755l-1.46276,12.50976" fill="none" stroke="#000000" stroke-width="1" stroke-linecap="round"/><g fill="none" stroke="#ffffff" stroke-width="1" stroke-linecap="round"><path d="M253.67248,180.38685l6.40159,0.41691l-0.37657,11.67338h-6.40159"/><path d="M253.2959,163.90007h6.4016l0.37656,11.67338l-6.4016,0.41691" data-paper-data="{&quot;index&quot;:null}"/><path d="M258.71846,176.53993v3.29735"/></g><path d="M237.47567,153.43246c4.64917,0 4.10652,8.33988 4.10652,23.90016c0,15.56027 -0.02176,28.71523 -4.67093,28.71523c-2.33167,0 -11.1056,-1.91463 -14.91103,-6.19293c-5.05411,-5.68214 -7.30993,-13.05834 -7.30993,-20.81477c0,-8.91613 3.41759,-14.91836 7.60967,-19.94187c3.85156,-4.61545 15.1757,-5.66582 15.1757,-5.66582z" fill="url(#color-4)" stroke="none" stroke-width="0" stroke-linecap="butt"/><path d="M239.14767,157.8956c0.15823,0 3.84577,-0.27149 5.47796,5.84489c0.9616,3.60344 0.25858,12.35997 0.25858,16.799c0,5.34928 1.0906,13.90803 -0.14316,17.47619c-1.52786,4.41874 -5.45426,3.24056 -5.59337,3.24056c-0.25145,0 2.10815,-9.70662 2.10815,-21.68033c0,-11.97372 -2.35959,-21.68033 -2.10815,-21.68033z" fill="url(#color-5)" stroke="none" stroke-width="0" stroke-linecap="butt"/><path d="M238.40403,202.90666c0,-1.97088 4.96919,-3.5686 11.09899,-3.5686c6.1298,0 8.82228,-1.97089 8.82228,0c0,1.12223 0.26541,3.79026 -1.61799,5.44086c-1.42429,1.24823 -4.5648,1.69634 -7.20428,1.69634c-6.1298,0 -11.09899,-1.59772 -11.09899,-3.5686z" data-paper-data="{&quot;index&quot;:null}" fill="url(#color-6)" stroke="#590000" stroke-width="0" stroke-linecap="butt"/><path d="M249.64707,153.55791c2.63948,0 5.78,0.42202 7.20428,1.59755c1.88341,1.55447 1.61799,4.06712 1.61799,5.12399c0,1.85611 -2.69247,0 -8.82228,0c-6.1298,0 -11.09899,-1.50466 -11.09899,-3.36077c0,-1.85611 4.96919,-3.36077 11.09899,-3.36077z" data-paper-data="{&quot;index&quot;:null}" fill="url(#color-7)" stroke="#590000" stroke-width="0" stroke-linecap="butt"/><path d="M242.24423,202.06586c0,0 -16.82749,0.55525 -21.69635,-5.40811c-3.27279,-4.0085 -5.80832,-13.28009 -5.85523,-16.44355c-0.05087,-3.43064 0.70309,-11.70149 4.30374,-16.33493c4.46356,-5.74385 21.86369,-6.77857 21.86369,-6.77857" fill="none" stroke="url(#color-8)" stroke-width="1.5" stroke-linecap="round"/><path d="M253.1987,192.2468v-27.95357" fill="none" stroke="#ffffff" stroke-width="1" stroke-linecap="round"/></g></g></svg>