<svg version="1.1" xmlns="http://www.w3.org/2000/svg" xmlns:xlink="http://www.w3.org/1999/xlink" width="75.66667" height="75.66667" viewBox="0,0,75.66667,75.66667"><defs><radialGradient cx="240" cy="180" r="37.83333" gradientUnits="userSpaceOnUse" id="color-1"><stop offset="0" stop-color="#ffffff"/><stop offset="1" stop-color="#ffffff" stop-opacity="0"/></radialGradient></defs><g transform="translate(-202.16667,-142.16667)"><g data-paper-data="{&quot;isPaintingLayer&quot;:true}" fill-rule="nonzero" stroke-linecap="butt" stroke-linejoin="miter" stroke-miterlimit="10" stroke-dasharray="" stroke-dashoffset="0" style="mix-blend-mode: normal"><path d="M202.16667,180c0,-20.89477 16.93856,-37.83333 37.83333,-37.83333c20.89477,0 37.83333,16.93856 37.83333,37.83333c0,20.89477 -16.93856,37.83333 -37.83333,37.83333c-20.89477,0 -37.83333,-16.93856 -37.83333,-37.83333z" fill="url(#color-1)" stroke="none" stroke-width="0"/><path d="M230.16994,180c0,-5.42898 4.40106,-9.83006 9.83006,-9.83006c5.42898,0 9.83006,4.40106 9.83006,9.83006c0,5.42898 -4.40106,9.83006 -9.83006,9.83006c-5.42898,0 -9.83006,-4.40106 -9.83006,-9.83006z" fill="#000000" stroke="#ffffff" stroke-width="5"/><path d="M220.6174,199.3826v-38.7652h38.7652v38.7652z" fill="none" stroke="none" stroke-width="0"/></g></g></svg>