<svg version="1.1" xmlns="http://www.w3.org/2000/svg" xmlns:xlink="http://www.w3.org/1999/xlink" width="86.25374" height="85.55709" viewBox="0,0,86.25374,85.55709"><defs><radialGradient cx="239.99997" cy="180.00286" r="32.79887" gradientUnits="userSpaceOnUse" id="color-1"><stop offset="0" stop-color="#000000"/><stop offset="1" stop-color="#000000" stop-opacity="0"/></radialGradient><linearGradient x1="216.06477" y1="179.92234" x2="263.9352" y2="180.08338" gradientUnits="userSpaceOnUse" id="color-2"><stop offset="0" stop-color="#eb0000"/><stop offset="1" stop-color="#ff5454"/></linearGradient><linearGradient x1="216.85449" y1="208.88616" x2="216.85449" y2="151.2195" gradientUnits="userSpaceOnUse" id="color-3"><stop offset="0" stop-color="#800000"/><stop offset="1" stop-color="#ff3838"/></linearGradient><linearGradient x1="236.83399" y1="205.00591" x2="236.83399" y2="154.91252" gradientUnits="userSpaceOnUse" id="color-4"><stop offset="0" stop-color="#800000"/><stop offset="1" stop-color="#ff3737"/></linearGradient><linearGradient x1="236.21915" y1="205.00591" x2="236.21915" y2="181.85467" gradientUnits="userSpaceOnUse" id="color-5"><stop offset="0" stop-color="#000000"/><stop offset="1" stop-color="#000000" stop-opacity="0"/></linearGradient><linearGradient x1="237.36214" y1="178.50591" x2="237.36214" y2="155.35467" gradientUnits="userSpaceOnUse" id="color-6"><stop offset="0" stop-color="#ffffff" stop-opacity="0"/><stop offset="1" stop-color="#ffffff"/></linearGradient><linearGradient x1="223.83474" y1="147.14697" x2="223.66561" y2="213.12363" gradientUnits="userSpaceOnUse" id="color-7"><stop offset="0" stop-color="#ff3737"/><stop offset="1" stop-color="#800000"/></linearGradient><linearGradient x1="214.82251" y1="213.2195" x2="214.82251" y2="145.55283" gradientUnits="userSpaceOnUse" id="color-8"><stop offset="0" stop-color="#800000"/><stop offset="1" stop-color="#ff3737"/></linearGradient><linearGradient x1="214.98538" y1="213.21954" x2="214.98538" y2="188.65883" gradientUnits="userSpaceOnUse" id="color-9"><stop offset="0" stop-color="#000000"/><stop offset="1" stop-color="#000000" stop-opacity="0"/></linearGradient><linearGradient x1="214.83298" y1="170.08621" x2="214.83298" y2="145.52548" gradientUnits="userSpaceOnUse" id="color-10"><stop offset="0" stop-color="#ffffff" stop-opacity="0"/><stop offset="1" stop-color="#ffffff"/></linearGradient></defs><g transform="translate(-196.87313,-137.22146)"><g data-paper-data="{&quot;isPaintingLayer&quot;:true}" fill-rule="nonzero" stroke-linejoin="miter" stroke-miterlimit="10" stroke-dasharray="" stroke-dashoffset="0" style="mix-blend-mode: normal"><g><path d="M281.14685,222.77856l-84.27372,-0.28352l0.28688,-85.27357l85.96686,0.28922l-0.26823,79.72829" fill="none" stroke="none" stroke-width="NaN" stroke-linecap="butt"/><path d="M207.20131,179.89253c0.06094,-18.11422 14.79483,-32.74928 32.90903,-32.68834c18.11422,0.06094 32.74928,14.79483 32.68834,32.90903c-0.06094,18.11422 -14.79483,32.74928 -32.90903,32.68834c-18.11422,-0.06094 -32.74928,-14.79482 -32.68834,-32.90903z" fill="url(#color-1)" stroke="#000000" stroke-width="0" stroke-linecap="butt"/><path d="M216.06477,179.92234c0.04448,-13.21904 10.79669,-23.89916 24.01573,-23.85468c13.21904,0.04448 23.89916,10.79668 23.85468,24.01573c-0.04448,13.21904 -10.79669,23.89916 -24.01573,23.85468c-13.21904,-0.04448 -23.89916,-10.79668 -23.85468,-24.01573z" fill="url(#color-2)" stroke="#000000" stroke-width="0" stroke-linecap="butt"/><path d="M246.1279,190.69612c0.00822,-2.44126 1.99391,-4.41365 4.43518,-4.40543c2.44126,0.00822 4.41365,1.99391 4.40543,4.43517c-0.00822,2.44126 -1.99391,4.41365 -4.43517,4.40544c-2.44126,-0.00822 -4.41365,-1.99392 -4.40544,-4.43518z" fill="#000000" stroke="#000000" stroke-width="0" stroke-linecap="butt"/><path d="M246.24894,169.35124c0.00822,-2.44126 1.99391,-4.41365 4.43518,-4.40544c2.44126,0.00822 4.41365,1.99391 4.40543,4.43517c-0.00822,2.44126 -1.99391,4.41365 -4.43517,4.40544c-2.44126,-0.00822 -4.41365,-1.99391 -4.40544,-4.43517z" fill="#000000" stroke="#000000" stroke-width="0" stroke-linecap="butt"/><path d="M257.20219,191.06152l0.07495,-22.27836" fill="none" stroke="#000000" stroke-width="2" stroke-linecap="round"/></g><path d="M215.40985,146.05283c6.17225,0 30.65422,19.07579 30.65422,35c0,15.92421 -24.83131,31.83333 -31.00356,31.83333c-6.17225,0 -9.38188,-16.90912 -9.38188,-32.83332z" fill="url(#color-3)" stroke="none" stroke-width="0" stroke-linecap="butt"/><path d="M246.86684,180.01634c0,0 -6.4253,24.60701 -11.17331,24.98957c-0.23166,-0.00663 -0.46332,-0.01401 -0.69499,-0.02166c-4.56572,-0.66979 -8.19741,-11.74138 -8.19741,-25.30124c0,-12.1609 2.92099,-22.32047 6.81707,-24.77049c1.15098,0.06173 2.51852,0.12108 4.00504,0.15645c4.38823,2.74381 9.24361,24.94736 9.24361,24.94736z" fill="url(#color-4)" stroke="none" stroke-width="0" stroke-linecap="butt"/><path d="M235.31254,205.00591c-0.23166,-0.00663 -0.46332,-0.01401 -0.695,-0.02166c-4.30134,-0.631 -7.77368,-10.49402 -8.16139,-22.97218c6.50809,-0.01021 13.01788,-0.19449 19.52603,-0.15068c-1.60375,5.7254 -6.71769,22.8261 -10.66962,23.14452z" fill="url(#color-5)" stroke="none" stroke-width="0" stroke-linecap="butt"/><path d="M246.55366,178.24918c-6.50814,0.04381 -12.44643,0.10953 -18.95453,0.09932c0.38772,-12.47816 3.86005,-22.59118 8.16139,-23.22218c0.23167,-0.00765 1.10632,0.23497 1.33798,0.22834c1.17126,0.09437 2.24633,2.0576 3.28817,4.33632c2.47341,5.40986 5.03854,14.52968 6.16698,18.5582z" data-paper-data="{&quot;index&quot;:null}" fill="url(#color-6)" stroke="none" stroke-width="0" stroke-linecap="butt"/><path d="M208.97036,180.91285c-0.05173,-22.65149 14.38163,-25.77904 19.30124,-26.18724c0.45126,0.14612 0.91835,0.23946 1.39726,0.27477c0.14371,0.0106 0.28849,0.01596 0.43422,0.01596c0.28297,0.0156 1.73204,0.36262 4.65867,0.4816c1.48421,9.65017 3.91816,24.28085 3.91816,24.28085c0,0 -3.25084,15.55801 -4.77295,25.22362c-2.07959,-0.0617 -2.49313,0.15546 -4.56588,0.34725c-0.20169,0 -0.40155,0.01028 -0.5993,0.03047c-4.25596,-0.60193 -19.72511,-4.18469 -19.77143,-24.46729z" data-paper-data="{&quot;index&quot;:null}" fill="url(#color-7)" stroke="none" stroke-width="0" stroke-linecap="butt"/><path d="M214.82251,145.55283c6.17225,0 11.17585,15.1477 11.17585,33.83334c0,18.68563 -5.0036,33.83333 -11.17585,33.83333c-6.17225,0 -11.17584,-15.14769 -11.17584,-33.83333c0,-18.68563 5.00359,-33.83334 11.17584,-33.83334z" fill="url(#color-8)" stroke="none" stroke-width="0" stroke-linecap="butt"/><path d="M214.96471,213.21954c-5.05845,0 -9.33195,-10.17403 -10.70957,-24.13148c9.23022,-0.14735 16.63171,-0.38318 17.23682,-0.39003c1.40212,-0.01586 2.81058,-0.02753 4.22367,-0.03921c-1.33167,14.1776 -5.64076,24.56072 -10.75091,24.56072z" fill="url(#color-9)" stroke="none" stroke-width="0" stroke-linecap="butt"/><path d="M225.56321,170.08621c-1.41308,-0.01168 -2.82155,-0.02335 -4.22367,-0.03921c-0.60511,-0.00685 -8.0066,-0.24268 -17.23682,-0.39003c1.37762,-13.95745 5.65113,-24.13148 10.70958,-24.13148c5.11015,0 9.41924,10.38312 10.75091,24.56072z" data-paper-data="{&quot;index&quot;:null}" fill="url(#color-10)" stroke="none" stroke-width="0" stroke-linecap="butt"/><path d="M229.02256,179.95921c0,-2.15707 1.74865,-3.90572 3.90572,-3.90572c2.15707,0 3.90571,1.74865 3.90571,3.90572c0,2.15707 -1.74864,3.90571 -3.90571,3.90571c-2.15707,0 -3.90572,-1.74864 -3.90572,-3.90571z" fill="#ffffff" stroke="#ffffff" stroke-width="0" stroke-linecap="butt"/></g></g></svg>