<svg version="1.1" xmlns="http://www.w3.org/2000/svg" xmlns:xlink="http://www.w3.org/1999/xlink" width="535.2693" height="381.43834" viewBox="0,0,535.2693,381.43834"><defs><linearGradient x1="-34.55945" y1="142.56411" x2="139.61476" y2="142.56411" gradientUnits="userSpaceOnUse" id="color-1"><stop offset="0" stop-color="#77de52" stop-opacity="0"/><stop offset="1" stop-color="#77de52"/></linearGradient><linearGradient x1="-17.16002" y1="192.38232" x2="334.83997" y2="192.38232" gradientUnits="userSpaceOnUse" id="color-2"><stop offset="0" stop-color="#80ef58"/><stop offset="1" stop-color="#80ef58" stop-opacity="0"/></linearGradient><linearGradient x1="299.52465" y1="-22.60104" x2="299.52465" y2="193.61518" gradientUnits="userSpaceOnUse" id="color-3"><stop offset="0" stop-color="#ff2146" stop-opacity="0"/><stop offset="1" stop-color="#ff2146" stop-opacity="0.60784"/></linearGradient><linearGradient x1="63.56823" y1="191.36221" x2="129.52944" y2="167.92891" gradientUnits="userSpaceOnUse" id="color-4"><stop offset="0" stop-color="#80ef58" stop-opacity="0"/><stop offset="1" stop-color="#80ef58"/></linearGradient><linearGradient x1="83.97399" y1="150.94896" x2="147.12544" y2="120.7514" gradientUnits="userSpaceOnUse" id="color-5"><stop offset="0" stop-color="#80ef58" stop-opacity="0"/><stop offset="1" stop-color="#80ef58"/></linearGradient><linearGradient x1="43.82008" y1="166.89765" x2="105.99804" y2="134.74328" gradientUnits="userSpaceOnUse" id="color-6"><stop offset="0" stop-color="#80ef58"/><stop offset="1" stop-color="#80ef58" stop-opacity="0"/></linearGradient><linearGradient x1="192.74909" y1="37.40504" x2="322.74908" y2="37.40504" gradientUnits="userSpaceOnUse" id="color-7"><stop offset="0" stop-color="#80ef58"/><stop offset="1" stop-color="#80ef58" stop-opacity="0"/></linearGradient><linearGradient x1="404.86968" y1="323.98555" x2="485.47697" y2="333.42642" gradientUnits="userSpaceOnUse" id="color-8"><stop offset="0" stop-color="#80ef58" stop-opacity="0"/><stop offset="1" stop-color="#80ef58"/></linearGradient><linearGradient x1="51.48107" y1="274.82129" x2="162.5922" y2="274.82129" gradientUnits="userSpaceOnUse" id="color-9"><stop offset="0" stop-color="#ff3557"/><stop offset="1" stop-color="#ff3557" stop-opacity="0"/></linearGradient><linearGradient x1="207.98108" y1="308.82129" x2="319.0922" y2="308.82129" gradientUnits="userSpaceOnUse" id="color-10"><stop offset="0" stop-color="#ff3557"/><stop offset="1" stop-color="#ff3557" stop-opacity="0"/></linearGradient><linearGradient x1="436.3263" y1="330.98555" x2="502.02033" y2="340.42642" gradientUnits="userSpaceOnUse" id="color-11"><stop offset="0" stop-color="#80ef58"/><stop offset="1" stop-color="#80ef58" stop-opacity="0"/></linearGradient><radialGradient cx="9.38992" cy="147.7183" r="48.89658" gradientUnits="userSpaceOnUse" id="color-12"><stop offset="0" stop-color="#33ff00"/><stop offset="1" stop-color="#33ff00" stop-opacity="0"/></radialGradient></defs><g transform="translate(33.05794,8.52985)"><g data-paper-data="{&quot;isPaintingLayer&quot;:true}" fill-rule="nonzero" stroke="none" stroke-linecap="butt" stroke-linejoin="miter" stroke-miterlimit="10" stroke-dasharray="" stroke-dashoffset="0" style="mix-blend-mode: normal"><path d="M-1.52641,321.2428l-31.53153,-217.71772l143.19588,-88.28556l68.51583,88.28556z" fill="url(#color-1)" stroke-width="0"/><path d="M36.84,209.88232c0,0 -35.98401,14.19328 -38.77046,-20.73433c-0.35394,-4.43649 2.05572,-11.83022 23.70163,-21.58226c38.92648,-17.53739 77.5302,-35.88527 148.27665,-54.92101c91.1396,-24.52292 162.79217,-23.7624 162.79217,-23.7624c0,0 -37.72674,3.64307 -78.9324,13.34295c-27.34673,6.43747 -56.22576,17.2213 -76.62605,25.30321c-34.62153,13.71588 -83.77308,48.5371 -113.80653,68.33942c-16.04613,10.57988 -26.63501,14.01442 -26.63501,14.01442z" fill="url(#color-2)" stroke-width="0"/><path d="" fill="#77de52" stroke-width="NaN"/><path d="M141.11622,219.1407c0,0 -5.65543,-80.67535 26.62706,-136.67647c57.73737,-100.15823 108.29999,-95.25398 137.0366,-87.04725c64.38266,18.38669 110.19069,50.494 110.19069,50.494c0,0 -40.87967,-11.89395 -68.70117,-7.7849c-76.65568,11.32154 -47.473,77.43806 -47.473,77.43806c0,0 -85.10519,48.10758 -118.34386,62.23402c-20.98433,8.91834 -39.33632,41.34256 -39.33632,41.34256z" fill="url(#color-3)" stroke-width="0"/><path d="M108.52944,175.42891c1.24796,3.51283 8.49372,4.10627 -9.72097,10.5772c-18.21469,6.47092 -67.99228,18.86893 -69.24024,15.3561c-1.24797,-3.51283 77.71325,-29.44613 78.96121,-25.9333z" fill="url(#color-4)" stroke-width="0"/><path d="M147.12544,120.7514c1.6082,3.3632 -94.31216,47.05885 -95.92037,43.69566c-1.6082,-3.36319 43.99395,-26.34763 61.43273,-34.68646c17.43879,-8.33884 32.87943,-12.37239 34.48763,-9.0092z" fill="url(#color-5)" stroke-width="0"/><path d="M124.1371,151.69158c-12.70235,6.79706 -56.61419,50.18121 -79.78893,55.91406c-26.76955,6.62213 -32.22127,-24.95906 -32.85965,-26.19351c-1.71241,-3.31135 43.14998,-27.7082 60.31995,-36.58737c9.07767,-4.69438 30.44643,-15.11483 46.80148,-14.46338c14.5797,0.58074 11.17509,18.30798 5.52715,21.33021z" fill="url(#color-6)" stroke-width="0"/><path d="M109.74909,-6.09496l91,-2c0,0 39.52795,21.34881 59.39504,35.81105c37.8981,27.58793 62.60496,55.18895 62.60496,55.18895c0,0 -42.99743,-28.96606 -70.62295,-40.50912c-39.22451,-16.38958 -142.37705,-48.49088 -142.37705,-48.49088z" fill="url(#color-7)" stroke-width="0"/><path d="M485.47697,333.42642c-2.38671,20.37805 -22.36609,34.78431 -44.62519,32.1773c-22.2591,-2.60702 -38.36885,-21.24009 -35.98215,-41.61815c2.38671,-20.37805 22.36609,-34.78432 44.62518,-32.1773c22.2591,2.60702 38.36886,21.2401 35.98215,41.61815z" fill="url(#color-8)" stroke-width="0"/><path d="M162.5922,274.82129c0,29.02397 -24.87307,52.55255 -55.55556,52.55255c-30.68249,0 -55.55556,-23.52858 -55.55556,-52.55255c0,-29.02397 24.87307,-52.55255 55.55556,-52.55255c30.68249,0 55.55556,23.52858 55.55556,52.55255z" fill="url(#color-9)" stroke-width="0"/><path d="M319.0922,308.82129c0,29.02397 -24.87307,52.55255 -55.55556,52.55255c-30.68249,0 -55.55556,-23.52858 -55.55556,-52.55255c0,-29.02397 24.87307,-52.55255 55.55556,-52.55255c30.68249,0 55.55556,23.52858 55.55556,52.55255z" fill="url(#color-10)" stroke-width="0"/><path d="M502.02033,340.42642c-1.94514,20.37805 -18.22811,34.78431 -36.36903,32.1773c-18.14092,-2.60702 -31.27018,-21.24009 -29.32505,-41.61815c1.94514,-20.37805 18.22811,-34.78432 36.36902,-32.1773c18.14092,2.60702 31.27019,21.2401 29.32505,41.61815z" fill="url(#color-11)" stroke-width="0"/><path d="M17.69227,189.37532c-7.62559,-14.10524 -12.72365,-29.97044 -16.41068,-45.52617c-1.45776,-6.15039 -2.4607,-24.09171 -2.86006,-27.68123c-0.32135,-2.88832 -1.2901,-5.6943 -1.45862,-8.59556c-0.16913,-2.91179 -0.06832,-5.83144 0.01581,-8.7506c4.85417,25.64722 13.03372,62.8245 24.92991,97.79315c-1.48344,-2.38969 -2.89867,-4.80224 -4.21635,-7.2396z" fill="url(#color-12)" stroke-width="0"/></g></g></svg>