<svg version="1.1" xmlns="http://www.w3.org/2000/svg" xmlns:xlink="http://www.w3.org/1999/xlink" width="91.35579" height="90.25956" viewBox="0,0,91.35579,90.25956"><defs><radialGradient cx="240.59784" cy="185.17384" r="42.62978" gradientUnits="userSpaceOnUse" id="color-1"><stop offset="0" stop-color="#ff0000" stop-opacity="0.50196"/><stop offset="1" stop-color="#ff0000" stop-opacity="0"/></radialGradient><linearGradient x1="224.42984" y1="169.26078" x2="213.05993" y2="157.89087" gradientUnits="userSpaceOnUse" id="color-2"><stop offset="0" stop-color="#363636"/><stop offset="1" stop-color="#808080"/></linearGradient><linearGradient x1="247.34024" y1="191.94736" x2="226.3744" y2="170.98152" gradientUnits="userSpaceOnUse" id="color-3"><stop offset="0" stop-color="#808080"/><stop offset="1" stop-color="#363636"/></linearGradient><linearGradient x1="211.2091" y1="207.11266" x2="235.97666" y2="182.34509" gradientUnits="userSpaceOnUse" id="color-4"><stop offset="0" stop-color="#ffffff"/><stop offset="1" stop-color="#ffffff" stop-opacity="0"/></linearGradient><linearGradient x1="227.01014" y1="171.84108" x2="221.15067" y2="165.98162" gradientUnits="userSpaceOnUse" id="color-5"><stop offset="0" stop-color="#000000"/><stop offset="1" stop-color="#5c5c5c"/></linearGradient><linearGradient x1="228.34347" y1="195.3982" x2="252.24452" y2="171.49713" gradientUnits="userSpaceOnUse" id="color-6"><stop offset="0" stop-color="#5c5c5c"/><stop offset="1" stop-color="#000000"/></linearGradient><linearGradient x1="198.01288" y1="194.97888" x2="222.89234" y2="170.09941" gradientUnits="userSpaceOnUse" id="color-7"><stop offset="0" stop-color="#ffffff" stop-opacity="0.50196"/><stop offset="1" stop-color="#ffffff" stop-opacity="0"/></linearGradient><linearGradient x1="255.73336" y1="199.30634" x2="249.87389" y2="193.44687" gradientUnits="userSpaceOnUse" id="color-8"><stop offset="0" stop-color="#000000"/><stop offset="1" stop-color="#5c5c5c"/></linearGradient><linearGradient x1="235.61163" y1="200.43" x2="247.3525" y2="212.17088" gradientUnits="userSpaceOnUse" id="color-9"><stop offset="0" stop-color="#000000"/><stop offset="1" stop-color="#5c5c5c"/></linearGradient><linearGradient x1="256.57746" y1="179.46416" x2="268.31835" y2="191.20503" gradientUnits="userSpaceOnUse" id="color-10"><stop offset="0" stop-color="#000000"/><stop offset="1" stop-color="#5c5c5c"/></linearGradient><radialGradient cx="274.18878" cy="185.47437" r="10.1799" gradientUnits="userSpaceOnUse" id="color-11"><stop offset="0" stop-color="#ff0000"/><stop offset="1" stop-color="#ff0000" stop-opacity="0"/></radialGradient><radialGradient cx="241.48206" cy="217.92348" r="10.1799" gradientUnits="userSpaceOnUse" id="color-12"><stop offset="0" stop-color="#ff0000"/><stop offset="1" stop-color="#ff0000" stop-opacity="0"/></radialGradient></defs><g transform="translate(-193.01288,-137.84381)"><g data-paper-data="{&quot;isPaintingLayer&quot;:true}" fill-rule="nonzero" stroke-linejoin="miter" stroke-miterlimit="10" stroke-dasharray="" stroke-dashoffset="0" style="mix-blend-mode: normal"><path d="M197.96808,185.17384c0,-23.54379 19.08603,-42.62978 42.62977,-42.62978c23.5438,0 42.62978,19.08603 42.62978,42.62978c0,23.54379 -19.08603,42.62978 -42.62978,42.62978c-23.54379,0 -42.62977,-19.08603 -42.62977,-42.62978z" fill="url(#color-1)" stroke="#ff0000" stroke-width="0" stroke-linecap="butt"/><g><path d="M230.04777,163.64285l-11.23586,11.23586l-10.3274,-12.41242c0,0 2.37968,-3.51217 3.94562,-5.07811c1.52169,-1.52169 5.32107,-4.18858 5.32107,-4.18858z" fill="url(#color-2)" stroke="none" stroke-width="0" stroke-linecap="butt"/><path d="M253.69988,185.58772l-10.90224,10.90224c0,0 -12.11604,-4.15841 -19.55722,-4.01251c-6.74762,0.13231 -22.51424,4.15228 -22.51424,4.15228l51.29644,-51.29644c0,0 -3.29287,14.42057 -2.91785,21.07724c0.37037,6.57408 4.59512,19.17718 4.59512,19.17718z" fill="url(#color-3)" stroke="#000000" stroke-width="0" stroke-linecap="butt"/><path d="M247.29822,191.98939l-4.50058,4.50058c0,0 -12.11604,-4.15841 -19.55722,-4.01251c-6.74762,0.13231 -22.51424,4.15228 -22.51424,4.15228l25.6062,-25.6062z" fill="url(#color-4)" stroke="#000000" stroke-width="0" stroke-linecap="butt"/><path d="M198.01288,194.97888l52.13507,-52.13507" fill="none" stroke="url(#color-5)" stroke-width="10" stroke-linecap="round"/><path d="M228.34347,195.3982l23.90107,-23.90107" fill="none" stroke="url(#color-6)" stroke-width="3.5" stroke-linecap="round"/><path d="M198.01288,194.97888l28.79309,-28.79309" fill="none" stroke="url(#color-7)" stroke-width="10" stroke-linecap="round"/><path d="M211.15147,165.90624l10.06361,-10.06361" fill="none" stroke="#ff0000" stroke-width="4" stroke-linecap="round"/><path d="M241.06275,208.11748l23.48175,-23.48175" fill="none" stroke="url(#color-8)" stroke-width="9" stroke-linecap="round"/><path d="M262.86723,187.01186l0.00001,10.06361h-9.36474v9.64429l-10.06361,0.00001" fill="none" stroke="#ff0000" stroke-width="3" stroke-linecap="round"/><path d="M241.48206,218.04131l0.00001,-23.48175" data-paper-data="{&quot;index&quot;:null}" fill="none" stroke="url(#color-9)" stroke-width="7.5" stroke-linecap="round"/><path d="M274.18878,185.3346l-23.48175,0.00001" data-paper-data="{&quot;index&quot;:null}" fill="none" stroke="url(#color-10)" stroke-width="7.5" stroke-linecap="round"/><path d="M281.38705,192.67264c-3.9755,3.9755 -10.42105,3.9755 -14.39654,0c-3.9755,-3.9755 -3.9755,-10.42105 0,-14.39654c3.9755,-3.9755 10.42105,-3.97551 14.39654,-0.00001c3.9755,3.9755 3.97549,10.42105 -0.00001,14.39654z" fill="url(#color-11)" stroke="none" stroke-width="0" stroke-linecap="butt"/><path d="M248.68033,225.12175c-3.9755,3.9755 -10.42105,3.9755 -14.39654,0c-3.9755,-3.9755 -3.9755,-10.42105 0,-14.39654c3.9755,-3.9755 10.42105,-3.97551 14.39654,-0.00001c3.9755,3.9755 3.97549,10.42105 -0.00001,14.39654z" fill="url(#color-12)" stroke="none" stroke-width="0" stroke-linecap="butt"/></g></g></g></svg>