<svg version="1.1" xmlns="http://www.w3.org/2000/svg" xmlns:xlink="http://www.w3.org/1999/xlink" width="80.13905" height="79.49276" viewBox="0,0,80.13905,79.49276"><defs><radialGradient cx="237.50012" cy="179.99995" r="32.79887" gradientUnits="userSpaceOnUse" id="color-1"><stop offset="0" stop-color="#000000"/><stop offset="1" stop-color="#000000" stop-opacity="0"/></radialGradient><linearGradient x1="230.95613" y1="180.00001" x2="264.49494" y2="180.00001" gradientUnits="userSpaceOnUse" id="color-2"><stop offset="0" stop-color="#ff3939"/><stop offset="1" stop-color="#ffcccc"/></linearGradient><linearGradient x1="206.50473" y1="162.41826" x2="229.56752" y2="162.41826" gradientUnits="userSpaceOnUse" id="color-3"><stop offset="0" stop-color="#ff0000"/><stop offset="1" stop-color="#8e0000"/></linearGradient><linearGradient x1="219.99558" y1="218.12826" x2="219.99558" y2="141.87176" gradientUnits="userSpaceOnUse" id="color-4"><stop offset="0" stop-color="#c80000"/><stop offset="1" stop-color="#ff1f1f"/></linearGradient><linearGradient x1="240.19074" y1="190.58126" x2="252.20562" y2="190.58126" gradientUnits="userSpaceOnUse" id="color-5"><stop offset="0" stop-color="#ffcbcb"/><stop offset="1" stop-color="#ff5a5a"/></linearGradient><linearGradient x1="240.19074" y1="169.12199" x2="264.49492" y2="169.12199" gradientUnits="userSpaceOnUse" id="color-6"><stop offset="0" stop-color="#de0000"/><stop offset="1" stop-color="#ff8080"/></linearGradient><linearGradient x1="216.34106" y1="180.00002" x2="229.42213" y2="180.00002" gradientUnits="userSpaceOnUse" id="color-7"><stop offset="0" stop-color="#ffb5b5"/><stop offset="1" stop-color="#f20000"/></linearGradient></defs><g transform="translate(-200.09197,-140.25362)"><g data-paper-data="{&quot;isPaintingLayer&quot;:true}" fill-rule="nonzero" stroke-linejoin="miter" stroke-miterlimit="10" stroke-dasharray="" stroke-dashoffset="0" style="mix-blend-mode: normal"><path d="M200.09197,219.74638v-79.49276h80.13905v79.49276z" fill="none" stroke="none" stroke-width="NaN" stroke-linecap="butt"/><path d="M237.50012,212.79883c-18.11432,0 -32.79887,-14.68456 -32.79887,-32.79887c0,-18.11432 14.68456,-32.79887 32.79887,-32.79887c18.11432,0 32.79887,14.68456 32.79887,32.79887c0,18.11432 -14.68456,32.79887 -32.79887,32.79887z" fill="url(#color-1)" stroke="#000000" stroke-width="0" stroke-linecap="butt"/><path d="M264.49494,202.45503h-33.53882c0,0 0,-14.36681 0,-21.72649c0,-7.60245 0,-23.18354 0,-23.18354h33.53882z" fill="url(#color-2)" stroke="#000000" stroke-width="0" stroke-linecap="butt"/><path d="M229.56752,167.72327h-23.06279v-10.61004h23.06279z" fill="url(#color-3)" stroke="#000000" stroke-width="0" stroke-linecap="butt"/><path d="M238.24007,218.12826l-35.47676,-38.0234l35.47676,-38.23309z" fill="url(#color-4)" stroke="#000000" stroke-width="0" stroke-linecap="butt"/><path d="M252.20562,196.49404h-12.01488v-11.82557h12.01488z" fill="url(#color-5)" stroke="#000000" stroke-width="0" stroke-linecap="butt"/><path d="M264.49492,175.22249h-24.30418v-12.20099h24.30418z" fill="url(#color-6)" stroke="#000000" stroke-width="0" stroke-linecap="butt"/><path d="M246.00868,190.51732c0,-2.44128 1.97905,-4.42033 4.42033,-4.42033c2.44128,0 4.42033,1.97905 4.42033,4.42033c0,2.44128 -1.97905,4.42033 -4.42033,4.42033c-2.44128,0 -4.42033,-1.97905 -4.42033,-4.42033z" fill="#000000" stroke="#000000" stroke-width="0" stroke-linecap="butt"/><path d="M246.05791,169.17214c0,-2.44128 1.97905,-4.42033 4.42033,-4.42033c2.44128,0 4.42033,1.97905 4.42033,4.42033c0,2.44128 -1.97905,4.42033 -4.42033,4.42033c-2.44128,0 -4.42033,-1.97905 -4.42033,-4.42033z" fill="#000000" stroke="#000000" stroke-width="0" stroke-linecap="butt"/><path d="M257.08408,190.84546v-22.27848" fill="none" stroke="#000000" stroke-width="2" stroke-linecap="round"/><path d="M216.34106,180.00002c0,-3.61224 2.9283,-6.54053 6.54054,-6.54053c3.61224,0 6.54054,2.92829 6.54054,6.54053c0,3.61224 -2.9283,6.54054 -6.54054,6.54054c-3.61224,0 -6.54054,-2.92829 -6.54054,-6.54054z" fill="url(#color-7)" stroke="#000000" stroke-width="0" stroke-linecap="butt"/></g></g></svg>