<svg version="1.1" xmlns="http://www.w3.org/2000/svg" xmlns:xlink="http://www.w3.org/1999/xlink" width="182.60814" height="160.9309" viewBox="0,0,182.60814,160.9309"><defs><linearGradient x1="106.44939" y1="194.13196" x2="106.44939" y2="253.45443" gradientUnits="userSpaceOnUse" id="color-1"><stop offset="0" stop-color="#dcd0e8"/><stop offset="1" stop-color="#ffffff"/></linearGradient><linearGradient x1="154.58262" y1="168.38122" x2="224.56699" y2="164.53749" gradientUnits="userSpaceOnUse" id="color-2"><stop offset="0" stop-color="#ffffff"/><stop offset="1" stop-color="#dcd0e8"/></linearGradient><linearGradient x1="161.63957" y1="135.30517" x2="206.70328" y2="111.60193" gradientUnits="userSpaceOnUse" id="color-3"><stop offset="0" stop-color="#dcd0e8"/><stop offset="1" stop-color="#ffffff"/></linearGradient><linearGradient x1="182.14593" y1="224.21633" x2="197.38503" y2="117.45505" gradientUnits="userSpaceOnUse" id="color-4"><stop offset="0" stop-color="#f6f3f9"/><stop offset="1" stop-color="#e7def0"/></linearGradient><linearGradient x1="141.72359" y1="152.9844" x2="167.55703" y2="142.74397" gradientUnits="userSpaceOnUse" id="color-5"><stop offset="0" stop-color="#636363"/><stop offset="1" stop-color="#000000"/></linearGradient><linearGradient x1="198.58502" y1="179.83507" x2="205.72247" y2="128.91178" gradientUnits="userSpaceOnUse" id="color-6"><stop offset="0" stop-color="#ffffff"/><stop offset="1" stop-color="#dcd0e8"/></linearGradient><linearGradient x1="82.33172" y1="144.87106" x2="88.15714" y2="177.13643" gradientUnits="userSpaceOnUse" id="color-7"><stop offset="0" stop-color="#000000"/><stop offset="1" stop-color="#636363"/></linearGradient><linearGradient x1="77.95555" y1="161.86514" x2="130.27106" y2="196.80988" gradientUnits="userSpaceOnUse" id="color-8"><stop offset="0" stop-color="#ffffff"/><stop offset="1" stop-color="#e9e0f2"/></linearGradient><linearGradient x1="82.06289" y1="182.78421" x2="82.83962" y2="187.08627" gradientUnits="userSpaceOnUse" id="color-9"><stop offset="0" stop-color="#ffffff"/><stop offset="1" stop-color="#000000"/></linearGradient><linearGradient x1="104.41282" y1="163.78748" x2="107.5942" y2="181.40819" gradientUnits="userSpaceOnUse" id="color-10"><stop offset="0" stop-color="#000000"/><stop offset="1" stop-color="#636363"/></linearGradient><linearGradient x1="129.27972" y1="142.35921" x2="134.96077" y2="173.825" gradientUnits="userSpaceOnUse" id="color-11"><stop offset="0" stop-color="#ffffff"/><stop offset="1" stop-color="#dcd0e8"/></linearGradient><linearGradient x1="136.37348" y1="146.91763" x2="138.61735" y2="159.34576" gradientUnits="userSpaceOnUse" id="color-12"><stop offset="0" stop-color="#000000"/><stop offset="1" stop-color="#000000" stop-opacity="0"/></linearGradient><linearGradient x1="136.07905" y1="159.75208" x2="136.98523" y2="164.77112" gradientUnits="userSpaceOnUse" id="color-13"><stop offset="0" stop-color="#000000"/><stop offset="1" stop-color="#000000" stop-opacity="0"/></linearGradient><linearGradient x1="143.99091" y1="158.73153" x2="145.50122" y2="167.09661" gradientUnits="userSpaceOnUse" id="color-14"><stop offset="0" stop-color="#000000"/><stop offset="1" stop-color="#000000" stop-opacity="0"/></linearGradient><linearGradient x1="145.19407" y1="151.65346" x2="146.316" y2="157.86753" gradientUnits="userSpaceOnUse" id="color-15"><stop offset="0" stop-color="#000000"/><stop offset="1" stop-color="#000000" stop-opacity="0"/></linearGradient><linearGradient x1="103.71583" y1="220.53065" x2="152.70172" y2="220.53065" gradientUnits="userSpaceOnUse" id="color-16"><stop offset="0" stop-color="#ffffff"/><stop offset="1" stop-color="#eae2f1"/></linearGradient></defs><g transform="translate(-67.36878,-86.89469)"><g data-paper-data="{&quot;isPaintingLayer&quot;:true}" fill-rule="nonzero" stroke-linejoin="miter" stroke-miterlimit="10" stroke-dasharray="" stroke-dashoffset="0" style="mix-blend-mode: normal"><path d="M72.62004,243.29128l-4.02946,-5.5828l41.9657,-38.27241l26.25666,-5.30411l-21.99137,44.05512l-16.19757,8.2099z" fill="url(#color-1)" stroke="none" stroke-width="0" stroke-linecap="butt"/><path d="M234.65855,173.11041l-5.33674,4.96777l-6.37191,-2.05418l-17.11215,-5.19245l-6.37952,16.89467l-13.17248,4.62002l-19.41158,-2.42439l-9.68135,-15.51047l4.25937,-21.25145l18.62509,-11.88516l17.03216,-0.41323l8.15043,5.56994l6.79756,-2.83328l16.03875,18.53324z" fill="url(#color-2)" stroke="none" stroke-width="0" stroke-linecap="butt"/><path d="M178.47867,118.65367l0.64942,-15.63915l-2.74201,-16.11983l14.90516,15.20852l5.51084,16.25212l-4.25168,20.60599l-9.28874,5.71573l-11.59213,-4.47615z" data-paper-data="{&quot;index&quot;:null}" fill="url(#color-3)" stroke="none" stroke-width="0" stroke-linecap="butt"/><path d="M188.73533,181.3318l-46.32503,24.02955l-30.84171,-1.4032l0.29613,-36.76225l38.27344,-16.90112l25.70522,-13.53384l30.14961,1.20361z" fill="url(#color-4)" stroke="none" stroke-width="0" stroke-linecap="butt"/><path d="M160.58502,157.96068l-22.58131,-2.24276l15.42678,-8.95533l13.18803,-5.11619z" fill="url(#color-5)" stroke="none" stroke-width="0" stroke-linecap="butt"/><path d="M249.97692,162.55513l-6.21366,3.95996l-5.85569,-3.12676l-20.45468,-1.86889l-9.57253,15.51057l-13.84101,2.25755l-18.58937,-5.75468l-8.71175,-17.20709l10.58328,-19.8943l20.61819,-8.45718l16.80807,2.55041l4.90448,7.92626l9.2401,-2.63934l17.7492,16.81848z" fill="url(#color-6)" stroke="none" stroke-width="0" stroke-linecap="butt"/><g><path d="M77.87977,178.78152l-10.51099,-10.45129l3.03567,-21.54997l18.72421,-2.17452l13.15679,4.4486l0.07618,22.1197z" fill="url(#color-7)" stroke="none" stroke-width="0" stroke-linecap="butt"/><path d="M78.55246,208.18304l-8.61737,-12.23962l1.16998,-11.65108l9.90626,-4.27371l-3.7999,-12.63774l5.77053,-12.18736l20.13187,-11.53842l23.07076,2.29909l16.73417,13.07776l-2.80429,24.71266l-8.87213,9.61061l-15.45342,11.88692l-16.71166,4.01045z" fill="url(#color-8)" stroke="none" stroke-width="0" stroke-linecap="butt"/><path d="M89.42268,181.23726l3.90263,8.59693l-9.44627,4.09413l-9.59095,-1.04681l0.66628,-9.32828z" data-paper-data="{&quot;index&quot;:null}" fill="#000000" stroke="none" stroke-width="0" stroke-linecap="butt"/><path d="M76.55736,188.09188l-0.01524,-4.42394l11.04158,-1.76743l0.01524,4.42394z" fill="url(#color-9)" stroke="none" stroke-width="0" stroke-linecap="butt"/><path d="M103.35564,182.08666l-7.73493,-8.99249l7.91425,-9.16617l11.733,1.97939l0.48613,11.77853z" data-paper-data="{&quot;index&quot;:null}" fill="url(#color-10)" stroke="none" stroke-width="0" stroke-linecap="butt"/><path d="M90.61543,174.18349l-2.73932,3.84256l-5.07676,0.44173l-1.8128,-5.49112l4.98779,-2.80605z" data-paper-data="{&quot;index&quot;:null}" fill="#000000" stroke="none" stroke-width="0" stroke-linecap="butt"/><path d="M120.09634,172.51572l-7.69106,-20.90078l10.85645,-8.29242l21.01692,-3.94097l8.60819,19.4402l-7.0141,13.25655z" data-paper-data="{&quot;index&quot;:null}" fill="url(#color-11)" stroke="none" stroke-width="0" stroke-linecap="butt"/><path d="M83.4907,191.77729l1.71588,6.61083" fill="none" stroke="#000000" stroke-width="1.5" stroke-linecap="round"/><path d="M132.6752,154.64102l3.8252,-7.74369l5.72893,4.24708l-3.99273,8.26233z" data-paper-data="{&quot;index&quot;:null}" fill="url(#color-12)" stroke="none" stroke-width="0" stroke-linecap="butt"/><path d="M133.81237,165.27902l1.3783,-5.38474l4.96745,4.36897z" fill="url(#color-13)" stroke="none" stroke-width="0" stroke-linecap="butt"/><path d="M141.22672,167.28902l-0.52797,-5.81732l4.58391,0.53851l2.89644,-3.94908l0.47117,5.85186l-2.51448,3.08207z" fill="url(#color-14)" stroke="none" stroke-width="0" stroke-linecap="butt"/><path d="M143.0162,158.39572l3.70082,-6.98605l2.59667,4.25664z" fill="url(#color-15)" stroke="none" stroke-width="0" stroke-linecap="butt"/></g><path d="M146.61135,247.21335l-37.41829,0.61224l-11.60972,-8.36438l18.45284,-13.05678l19.58742,-37.43588l17.07812,-4.07347l1.36447,45.8191z" fill="url(#color-16)" stroke="none" stroke-width="0" stroke-linecap="butt"/></g></g></svg>