<svg version="1.1" xmlns="http://www.w3.org/2000/svg" xmlns:xlink="http://www.w3.org/1999/xlink" width="41.879" height="74.53971" viewBox="0,0,41.879,74.53971"><defs><radialGradient cx="261.60509" cy="196.76415" r="20.42682" gradientUnits="userSpaceOnUse" id="color-1"><stop offset="0" stop-color="#000000" stop-opacity="0.42745"/><stop offset="1" stop-color="#000000" stop-opacity="0"/></radialGradient><linearGradient x1="261.60508" y1="176.33732" x2="261.60508" y2="217.19098" gradientUnits="userSpaceOnUse" id="color-2"><stop offset="0" stop-color="#ff5454"/><stop offset="1" stop-color="#eb0000"/></linearGradient><radialGradient cx="260.57973" cy="163.07808" r="20.42682" gradientUnits="userSpaceOnUse" id="color-3"><stop offset="0" stop-color="#000000" stop-opacity="0.42745"/><stop offset="1" stop-color="#000000" stop-opacity="0"/></radialGradient><linearGradient x1="260.57972" y1="142.65125" x2="260.57972" y2="183.50491" gradientUnits="userSpaceOnUse" id="color-4"><stop offset="0" stop-color="#ff5454"/><stop offset="1" stop-color="#eb0000"/></linearGradient><linearGradient x1="250.95387" y1="162.21122" x2="272.65617" y2="162.21122" gradientUnits="userSpaceOnUse" id="color-5"><stop offset="0" stop-color="#eb0000"/><stop offset="1" stop-color="#ff5454"/></linearGradient><linearGradient x1="251.44165" y1="197.65482" x2="273.14396" y2="197.65482" gradientUnits="userSpaceOnUse" id="color-6"><stop offset="0" stop-color="#eb0000"/><stop offset="1" stop-color="#ff5454"/></linearGradient></defs><g transform="translate(-240.15291,-142.65126)"><g data-paper-data="{&quot;isPaintingLayer&quot;:true}" fill-rule="nonzero" stroke-width="0" stroke-linecap="butt" stroke-linejoin="miter" stroke-miterlimit="10" stroke-dasharray="" stroke-dashoffset="0" style="mix-blend-mode: normal"><path d="M241.17827,196.76415c0,-11.28143 9.14541,-20.42682 20.42682,-20.42682c11.28141,0 20.42682,9.14541 20.42682,20.42682c0,11.28143 -9.14541,20.42682 -20.42682,20.42682c-11.28141,0 -20.42682,-9.1454 -20.42682,-20.42682z" fill="url(#color-1)" stroke="url(#color-2)"/><path d="M240.15291,163.07808c0,-11.28142 9.14541,-20.42682 20.42682,-20.42682c11.28141,0 20.42682,9.14541 20.42682,20.42682c0,11.28142 -9.14541,20.42682 -20.42682,20.42682c-11.28141,0 -20.42682,-9.14541 -20.42682,-20.42682z" fill="url(#color-3)" stroke="url(#color-4)"/><path d="M250.95387,162.21122c0,-5.99293 4.85823,-10.85115 10.85115,-10.85115c5.99293,0 10.85115,4.85823 10.85115,10.85115c0,5.99293 -4.85823,10.85115 -10.85115,10.85115c-5.99293,0 -10.85115,-4.85823 -10.85115,-10.85115z" fill="url(#color-5)" stroke="#000000"/><path d="M251.44165,197.65483c0,-5.99292 4.85823,-10.85116 10.85115,-10.85116c5.99293,0 10.85116,4.85823 10.85116,10.85116c0,5.99292 -4.85823,10.85115 -10.85116,10.85115c-5.99292,0 -10.85115,-4.85823 -10.85115,-10.85115z" fill="url(#color-6)" stroke="#000000"/></g></g></svg>