<svg version="1.1" xmlns="http://www.w3.org/2000/svg" xmlns:xlink="http://www.w3.org/1999/xlink" width="531.62334" height="228.43577" viewBox="0,0,531.62334,228.43577"><defs><linearGradient x1="43.71808" y1="108.27775" x2="61.11538" y2="139.22261" gradientUnits="userSpaceOnUse" id="color-1"><stop offset="0" stop-color="#02ff00" stop-opacity="0.67059"/><stop offset="1" stop-color="#02ff00" stop-opacity="0.27451"/></linearGradient><linearGradient x1="23.16952" y1="175.00001" x2="61.66952" y2="175.00001" gradientUnits="userSpaceOnUse" id="color-2"><stop offset="0" stop-color="#14ff12" stop-opacity="0.63137"/><stop offset="1" stop-color="#14ff12" stop-opacity="0"/></linearGradient><linearGradient x1="29.78083" y1="172.43415" x2="29.78083" y2="204.37379" gradientUnits="userSpaceOnUse" id="color-3"><stop offset="0" stop-color="#02ff00"/><stop offset="1" stop-color="#aaffa6"/></linearGradient><linearGradient x1="16.01171" y1="215.06039" x2="31.88538" y2="213.14292" gradientUnits="userSpaceOnUse" id="color-4"><stop offset="0" stop-color="#aaffa6"/><stop offset="1" stop-color="#02ff00"/></linearGradient><linearGradient x1="11.31249" y1="164.73764" x2="30.12435" y2="167.51431" gradientUnits="userSpaceOnUse" id="color-5"><stop offset="0" stop-color="#aaffa6"/><stop offset="1" stop-color="#02ff00"/></linearGradient><linearGradient x1="18.67134" y1="139.51218" x2="14.32457" y2="164.07889" gradientUnits="userSpaceOnUse" id="color-6"><stop offset="0" stop-color="#aaffa6"/><stop offset="1" stop-color="#02ff00"/></linearGradient><linearGradient x1="8.35038" y1="118.55402" x2="9.11507" y2="157.54647" gradientUnits="userSpaceOnUse" id="color-7"><stop offset="0" stop-color="#d2d2d2"/><stop offset="1" stop-color="#424242"/></linearGradient><linearGradient x1="19.0347" y1="122.50926" x2="19.0347" y2="139.19491" gradientUnits="userSpaceOnUse" id="color-8"><stop offset="0" stop-color="#aaffa6"/><stop offset="1" stop-color="#02ff00"/></linearGradient><linearGradient x1="0.83256" y1="138.24427" x2="0.83256" y2="148.38986" gradientUnits="userSpaceOnUse" id="color-9"><stop offset="0" stop-color="#aaffa6"/><stop offset="1" stop-color="#02ff00"/></linearGradient><linearGradient x1="15.85172" y1="150.07349" x2="15.85172" y2="172.57349" gradientUnits="userSpaceOnUse" id="color-10"><stop offset="0" stop-color="#000000"/><stop offset="1" stop-color="#24ab22"/></linearGradient><linearGradient x1="32.3815" y1="125.03795" x2="54.6777" y2="119.14925" gradientUnits="userSpaceOnUse" id="color-11"><stop offset="0" stop-color="#ffffff"/><stop offset="1" stop-color="#02ff00"/></linearGradient><radialGradient cx="47.33339" cy="140.66685" r="8.58333" gradientUnits="userSpaceOnUse" id="color-12"><stop offset="0" stop-color="#02ff00" stop-opacity="0.67059"/><stop offset="1" stop-color="#02ff00" stop-opacity="0.27451"/></radialGradient><radialGradient cx="56.4433" cy="149.44471" r="7.58334" gradientUnits="userSpaceOnUse" id="color-13"><stop offset="0" stop-color="#02ff00" stop-opacity="0.67059"/><stop offset="1" stop-color="#02ff00" stop-opacity="0.27451"/></radialGradient><radialGradient cx="53.86598" cy="159.43182" r="4.41667" gradientUnits="userSpaceOnUse" id="color-14"><stop offset="0" stop-color="#02ff00" stop-opacity="0.67059"/><stop offset="1" stop-color="#02ff00" stop-opacity="0.27451"/></radialGradient><radialGradient cx="53.86598" cy="170.38543" r="2.41667" gradientUnits="userSpaceOnUse" id="color-15"><stop offset="0" stop-color="#02ff00" stop-opacity="0.67059"/><stop offset="1" stop-color="#02ff00" stop-opacity="0.27451"/></radialGradient><radialGradient cx="58.5834" cy="128.91685" r="3.25" gradientUnits="userSpaceOnUse" id="color-16"><stop offset="0" stop-color="#02ff00" stop-opacity="0.67059"/><stop offset="1" stop-color="#02ff00" stop-opacity="0.27451"/></radialGradient><linearGradient x1="234.48169" y1="36.47932" x2="227.35639" y2="127.73884" gradientUnits="userSpaceOnUse" id="color-17"><stop offset="0" stop-color="#ff1284" stop-opacity="0.63137"/><stop offset="1" stop-color="#ff1284" stop-opacity="0"/></linearGradient><linearGradient x1="211.24373" y1="49.24106" x2="279.8083" y2="54.5944" gradientUnits="userSpaceOnUse" id="color-18"><stop offset="0" stop-color="#ffa6d3"/><stop offset="1" stop-color="#ff0079"/></linearGradient><linearGradient x1="245.73095" y1="51.41866" x2="214.81209" y2="36.54487" gradientUnits="userSpaceOnUse" id="color-19"><stop offset="0" stop-color="#292929"/><stop offset="1" stop-color="#ffffff"/></linearGradient><linearGradient x1="265.29299" y1="28.01173" x2="264.42291" y2="39.15547" gradientUnits="userSpaceOnUse" id="color-20"><stop offset="0" stop-color="#ffffff"/><stop offset="1" stop-color="#ffffff" stop-opacity="0"/></linearGradient><linearGradient x1="253.6018" y1="60.75796" x2="232.00136" y2="50.36688" gradientUnits="userSpaceOnUse" id="color-21"><stop offset="0" stop-color="#292929"/><stop offset="1" stop-color="#ffffff"/></linearGradient><linearGradient x1="336.01207" y1="43.95303" x2="417.35395" y2="43.95303" gradientUnits="userSpaceOnUse" id="color-22"><stop offset="0" stop-color="#ffffff" stop-opacity="0.63137"/><stop offset="1" stop-color="#ffffff" stop-opacity="0"/></linearGradient><linearGradient x1="327.66918" y1="33.28787" x2="349.34998" y2="33.28787" gradientUnits="userSpaceOnUse" id="color-23"><stop offset="0" stop-color="#8effa5"/><stop offset="1" stop-color="#00ff34"/></linearGradient><linearGradient x1="388.77686" y1="79.12642" x2="512.04205" y2="53.37186" gradientUnits="userSpaceOnUse" id="color-24"><stop offset="0" stop-color="#ffffff" stop-opacity="0.63137"/><stop offset="1" stop-color="#ffffff" stop-opacity="0"/></linearGradient><linearGradient x1="372.75727" y1="65.60602" x2="405.61226" y2="58.74142" gradientUnits="userSpaceOnUse" id="color-25"><stop offset="0" stop-color="#8effa5"/><stop offset="1" stop-color="#00ff34"/></linearGradient><radialGradient cx="467.949" cy="93.57331" r="38.84384" gradientUnits="userSpaceOnUse" id="color-26"><stop offset="0" stop-color="#555555"/><stop offset="1" stop-color="#979797"/></radialGradient><linearGradient x1="467.42053" y1="105.17697" x2="467.42053" y2="134.40915" gradientUnits="userSpaceOnUse" id="color-27"><stop offset="0" stop-color="#ffa6d3"/><stop offset="1" stop-color="#ff0079"/></linearGradient></defs><g transform="translate(12.3305,-27.4485)"><g data-paper-data="{&quot;isPaintingLayer&quot;:true}" fill-rule="nonzero" stroke-linejoin="miter" stroke-miterlimit="10" stroke-dasharray="" stroke-dashoffset="0" style="mix-blend-mode: normal"><path d="M67.88916,115.05153c4.80413,8.54519 1.7714,19.36695 -6.77378,24.17107c-8.54519,4.80413 -19.36694,1.77141 -24.17107,-6.77378c-4.80413,-8.54518 -1.7714,-19.36695 6.77378,-24.17107c8.54518,-4.80413 19.36695,-1.7714 24.17107,6.77378z" fill="url(#color-1)" stroke="none" stroke-width="0" stroke-linecap="butt"/><path d="M23.16952,246.00001l-3.5,-100.5l27.5,-38.25c0,0 4.19535,51.80219 -6.5,91.25c-10.69535,39.44781 -17.5,47.5 -17.5,47.5z" fill="url(#color-2)" stroke="none" stroke-width="0" stroke-linecap="butt"/><path d="M33.21155,195.81097l-5.6145,-2.02545l-8.76738,-14.66834l0.53856,-6.68302l7.45312,0.67428l8.12185,7.14036l5.40601,-0.76426l4.50382,14.1846l-8.83369,9.7478z" fill="url(#color-3)" stroke="none" stroke-width="0" stroke-linecap="butt"/><path d="M19.10715,238.82437l-4.54776,-63.7784l7.32297,-2.70181l12.01857,57.48432l1.20284,15.62948l-9.29716,10.42631l-9.24533,-13.34381z" fill="url(#color-4)" stroke="none" stroke-width="0" stroke-linecap="butt"/><path d="M18.36241,185.54817l-10.374,-24.8873l18.50294,-1.32307l1.79507,23.0775z" fill="url(#color-5)" stroke="none" stroke-width="0" stroke-linecap="butt"/><path d="M28.92539,150.7526c0.57599,6.86345 -4.52101,12.89433 -11.38447,13.47032c-6.86345,0.57599 -12.89433,-4.52101 -13.47032,-11.38447c-0.57599,-6.86345 4.52102,-12.89433 11.38447,-13.47032c6.86346,-0.57599 12.89433,4.52101 13.47032,11.38446z" data-paper-data="{&quot;index&quot;:null}" fill="url(#color-6)" stroke="none" stroke-width="0" stroke-linecap="butt"/><path d="M18.05948,152.1361l-3.56233,-9.80634l4.38193,-2.34672l6.59225,0.5062l-0.48617,11.46311z" data-paper-data="{&quot;index&quot;:null}" fill="#000000" stroke="none" stroke-width="0" stroke-linecap="butt"/><path d="M5.45102,152.5443l-0.6833,-10.32484l6.28224,-1.16194l4.00924,5.34158l-2.95024,6.67494z" data-paper-data="{&quot;index&quot;:null}" fill="#000000" stroke="none" stroke-width="0" stroke-linecap="butt"/><path d="M10.26794,142.60771l0.39418,4.33705l-3.85677,1.44396l-1.18638,-2.52986l1.61727,-3.6005z" data-paper-data="{&quot;index&quot;:null}" fill="#ffffff" stroke="none" stroke-width="0" stroke-linecap="butt"/><path d="M18.32872,145.82994l0.1785,-3.62509l3.87044,0.22514l1.90033,3.13872l-2.7991,2.02888z" data-paper-data="{&quot;index&quot;:null}" fill="#ffffff" stroke="none" stroke-width="0" stroke-linecap="butt"/><path d="M-9.8305,151.22663l43.34274,-33.1661" fill="none" stroke="url(#color-7)" stroke-width="5" stroke-linecap="round"/><path d="M20.46517,139.06993c-4.5386,0.79006 -8.85834,-2.24874 -9.6484,-6.78735c-0.79006,-4.53861 2.24875,-8.85834 6.78736,-9.64841c4.53861,-0.79006 8.85834,2.24874 9.6484,6.78735c0.79006,4.53861 -2.24874,8.85834 -6.78735,9.6484z" data-paper-data="{&quot;index&quot;:null}" fill="url(#color-8)" stroke="none" stroke-width="0" stroke-linecap="butt"/><path d="M1.70239,148.31391c-2.75966,0.48039 -5.38626,-1.36734 -5.86665,-4.127c-0.48039,-2.75966 1.36734,-5.38626 4.127,-5.86665c2.75966,-0.48039 5.38626,1.36734 5.86665,4.12701c0.48039,2.75967 -1.36734,5.38626 -4.127,5.86665z" data-paper-data="{&quot;index&quot;:null}" fill="url(#color-9)" stroke="none" stroke-width="0" stroke-linecap="butt"/><path d="M24.35172,161.32349c0,6.21321 -3.80558,11.25 -8.5,11.25c-4.69442,0 -8.5,-5.03679 -8.5,-11.25c0,-6.21321 3.80558,-11.25 8.5,-11.25c4.69442,0 8.5,5.03679 8.5,11.25z" fill="url(#color-10)" stroke="none" stroke-width="0" stroke-linecap="butt"/><path d="M42.46963,129.19413l-12.05583,-11.60654c0,0 1.49029,-12.45704 9.69353,-12.71063c14.64768,-0.4528 19.50962,13.59215 16.86626,24.21923c-0.65952,2.65145 -5.59248,5.36799 -6.51958,7.26957c-4.64293,9.52317 -7.98438,-7.17162 -7.98438,-7.17162z" fill="url(#color-11)" stroke="none" stroke-width="0" stroke-linecap="butt"/><path d="M47.33339,132.08352c4.74045,0 8.58333,3.84289 8.58333,8.58333c0,4.74045 -3.84289,8.58333 -8.58333,8.58333c-4.74044,0 -8.58333,-3.84289 -8.58333,-8.58333c0,-4.74044 3.84289,-8.58333 8.58333,-8.58333z" fill="url(#color-12)" stroke="none" stroke-width="0" stroke-linecap="butt"/><path d="M54.91673,145.49932c4.18816,0 7.58333,3.39518 7.58333,7.58334c0,4.18816 -3.39517,7.58333 -7.58333,7.58333c-4.18816,0 -7.58334,-3.39517 -7.58334,-7.58333c0,-4.18816 3.39518,-7.58334 7.58334,-7.58334z" fill="url(#color-13)" stroke="none" stroke-width="0" stroke-linecap="butt"/><path d="M53.50006,156.41598c2.43926,0 4.41667,1.97741 4.41667,4.41667c0,2.43926 -1.97741,4.41666 -4.41667,4.41666c-2.43926,0 -4.41667,-1.97741 -4.41667,-4.41666c0,-2.43926 1.97741,-4.41667 4.41667,-4.41667z" fill="url(#color-14)" stroke="none" stroke-width="0" stroke-linecap="butt"/><path d="M54.16673,170.41685c1.33469,0 2.41667,1.08198 2.41667,2.41667c0,1.33469 -1.08198,2.41666 -2.41667,2.41666c-1.33469,0 -2.41667,-1.08198 -2.41667,-2.41666c0,-1.33469 1.08198,-2.41667 2.41667,-2.41667z" fill="url(#color-15)" stroke="none" stroke-width="0" stroke-linecap="butt"/><path d="M58.5834,125.66684c1.79492,0 3.25,1.45509 3.25,3.25001c0,1.79493 -1.45507,3.24999 -3.25,3.24999c-1.79492,0 -3.25,-1.45507 -3.25,-3.24999c0,-1.79492 1.45508,-3.25001 3.25,-3.25001z" fill="url(#color-16)" stroke="none" stroke-width="0" stroke-linecap="butt"/><path d="M264.69093,52.44032c0,0 -19.60486,1.39102 -37.32027,22.42381c-10.4725,12.43358 -25.87113,50.85588 -25.87113,50.85588c0,0 -8.6038,-23.06985 8.44879,-60.69502c10.6899,-23.58642 46.10182,-28.22188 46.10182,-28.22188l8.64079,15.63723z" data-paper-data="{&quot;index&quot;:null}" fill="url(#color-17)" stroke="none" stroke-width="0" stroke-linecap="butt"/><path d="M279.90468,47.88496c-2.25865,7.31098 -8.87733,8.10834 -12.08328,9.12993c-3.20595,1.02159 -8.91918,-2.62184 -8.91918,-2.62184l-11.45412,3.42854l-8.44972,9.55616l-8.6582,8.93899l-1.69132,-10.69618l6.8311,-12.14893l11.27812,-5.80847l-3.40216,-2.49823l-13.30435,1.45796l-7.81347,-1.74192l-10.39766,6.79707l-0.42365,-4.65341l4.28871,-7.37217l11.49335,-4.6629l11.75566,3.56189l9.62163,-1.48706c0,0 0.7952,-5.74225 7.44771,-7.96337c6.65251,-2.22111 10.88908,-1.02986 14.85186,0.9305c8.63294,4.27064 11.28765,10.54245 9.02899,17.85343z" data-paper-data="{&quot;index&quot;:null}" fill="url(#color-18)" stroke="none" stroke-width="0" stroke-linecap="butt"/><path d="M221.97446,45.31913l-9.75084,6.13623l11.01387,-8.67338l8.15275,2.62761l12.69544,-2.08908l2.6385,4.23497l-3.95105,-2.04691l-12.24694,1.41464z" data-paper-data="{&quot;index&quot;:null}" fill="url(#color-19)" stroke="none" stroke-width="0" stroke-linecap="butt"/><path d="M249.20308,46.52993l9.43174,-3.8689l12.28139,6.04588l-11.52424,2.72446z" data-paper-data="{&quot;index&quot;:null}" fill="#000000" stroke="none" stroke-width="0" stroke-linecap="butt"/><path d="M248.67787,36.89483c0,0 1.02156,-5.58278 6.83809,-7.53302c4.76671,-1.59824 8.3904,-2.61746 15.64329,0.60967c7.93957,3.53266 9.08875,10.41958 9.08875,10.41958z" data-paper-data="{&quot;index&quot;:null}" fill="url(#color-20)" stroke="none" stroke-width="0" stroke-linecap="butt"/><path d="M247.61024,39.70023l4.8939,-6.18966l4.74578,8.75984l-6.82994,2.77782z" data-paper-data="{&quot;index&quot;:null}" fill="#000000" stroke="none" stroke-width="0" stroke-linecap="butt"/><path d="M252.51442,46.88261l4.7413,-2.54234l8.12278,3.49411l-6.15262,2.41463z" data-paper-data="{&quot;index&quot;:null}" fill="#ffffff" stroke="none" stroke-width="0" stroke-linecap="butt"/><path d="M248.26309,40.28991l4.06204,-2.8691l2.2116,4.92245l-3.00742,1.58497z" data-paper-data="{&quot;index&quot;:null}" fill="#ffffff" stroke="none" stroke-width="0" stroke-linecap="butt"/><path d="M260.97797,50.11963l-3.24129,-2.51979l2.30616,-3.16667l6.12401,3.6217z" data-paper-data="{&quot;index&quot;:null}" fill="#000000" stroke="none" stroke-width="0" stroke-linecap="butt"/><path d="M251.27797,40.2566l3.22814,-2.20299l0.99445,3.81269l-2.15304,1.83119z" data-paper-data="{&quot;index&quot;:null}" fill="#000000" stroke="none" stroke-width="0" stroke-linecap="butt"/><path d="M236.34505,73.97032l-6.26632,2.71574l0.72252,-1.76363l9.58985,-8.82087l5.89876,-9.16188l12.52802,-2.53287l-11.85423,3.93964l-7.43661,9.26874z" data-paper-data="{&quot;index&quot;:null}" fill="url(#color-21)" stroke="none" stroke-width="0" stroke-linecap="butt"/><path d="M336.01207,36.78328l8.88033,-7.30851c0,0 24.41996,3.69757 36.59171,8.26562c22.15958,8.31647 35.86983,20.6909 35.86983,20.6909c0,0 -19.55749,-9.61892 -41.19479,-15.63992c-13.15333,-3.66017 -40.14708,-6.00809 -40.14708,-6.00809z" fill="url(#color-22)" stroke="none" stroke-width="0" stroke-linecap="butt"/><path d="M349.34457,33.92073c-0.18724,3.20571 -5.19003,5.52112 -11.17403,5.1716c-5.984,-0.34953 -10.68319,-3.23161 -10.49595,-6.43733c0.18724,-3.20571 5.19003,-5.52112 11.17402,-5.1716c5.984,0.34952 10.6832,3.23161 10.49596,6.43733z" fill="url(#color-23)" stroke="none" stroke-width="0" stroke-linecap="butt"/><path d="M386.50678,68.26142l11.14319,-13.88699c0,0 38.17664,-2.12859 58.06801,0.93998c36.21371,5.58656 60.90818,19.99776 60.90818,19.99776c0,0 -32.6829,-8.38417 -67.37835,-10.65753c-21.09139,-1.38198 -62.74102,3.60678 -62.74102,3.60678z" fill="url(#color-24)" stroke="none" stroke-width="0" stroke-linecap="butt"/><path d="M405.80444,59.70217c0.73125,4.91721 -6.11685,10.00996 -15.29564,11.37495c-9.17879,1.36499 -17.21247,-1.51464 -17.94372,-6.43186c-0.73125,-4.91721 6.11684,-10.00996 15.29563,-11.37495c9.17879,-1.36499 17.21248,1.51464 17.94373,6.43186z" fill="url(#color-25)" stroke="none" stroke-width="0" stroke-linecap="butt"/><g><path d="M516.79284,86.02606l-42.40958,28.0945l-45.27809,-5.4016l14.13947,3.70698" fill="none" stroke="url(#color-26)" stroke-width="5" stroke-linecap="round"/><path d="M438.58444,117.88662c0,0 -4.41848,-2.11426 -4.59242,-6.72764c-0.15432,-4.09331 4.38059,-5.982 4.38059,-5.982l55.92242,7.62578c0,0 7.41396,2.70687 7.41396,11.6505c0,6.61856 -7.41396,9.95588 -7.41396,9.95588z" fill="url(#color-27)" stroke="none" stroke-width="0" stroke-linecap="butt"/><path d="M499.37888,123.65279c0,3.27569 -1.61225,5.93117 -3.60106,5.93117c-1.98881,0 -3.60106,-2.65547 -3.60106,-5.93117c0,-3.27569 1.61225,-5.93117 3.60106,-5.93117c1.98881,0 3.60106,2.65547 3.60106,5.93117z" fill="#292929" stroke="#515151" stroke-width="2.5" stroke-linecap="butt"/></g></g></g></svg>