<svg version="1.1" xmlns="http://www.w3.org/2000/svg" xmlns:xlink="http://www.w3.org/1999/xlink" width="54.50748" height="54.50748" viewBox="0,0,54.50748,54.50748"><defs><radialGradient cx="240" cy="180" r="27.25374" gradientUnits="userSpaceOnUse" id="color-1"><stop offset="0" stop-color="#ff0000"/><stop offset="1" stop-color="#ff0000" stop-opacity="0"/></radialGradient><linearGradient x1="240" y1="152.74626" x2="240" y2="207.25373" gradientUnits="userSpaceOnUse" id="color-2"><stop offset="0" stop-color="#000000"/><stop offset="1" stop-color="#ff0000"/></linearGradient></defs><g transform="translate(-212.74626,-152.74626)"><g data-paper-data="{&quot;isPaintingLayer&quot;:true}" fill-rule="nonzero" stroke-linecap="butt" stroke-linejoin="miter" stroke-miterlimit="10" stroke-dasharray="" stroke-dashoffset="0" style="mix-blend-mode: normal"><path d="M212.74626,180c0,-15.05183 12.20191,-27.25374 27.25374,-27.25374c15.05183,0 27.25374,12.20191 27.25374,27.25374c0,15.05183 -12.20191,27.25374 -27.25374,27.25374c-15.05183,0 -27.25374,-12.20191 -27.25374,-27.25374z" fill="url(#color-1)" stroke="url(#color-2)" stroke-width="0"/><path d="M236.14168,180c0,-2.13089 1.72743,-3.85832 3.85832,-3.85832c2.13089,0 3.85833,1.72743 3.85833,3.85832c0,2.13089 -1.72744,3.85832 -3.85833,3.85832c-2.13089,0 -3.85832,-1.72743 -3.85832,-3.85832z" fill="#cd0000" stroke="#700000" stroke-width="1"/><g fill-opacity="0.90941" fill="#ffffff" stroke="none" stroke-width="0.40889"><path d="M246.56159,177.54959v-8.3663c0,-0.39627 0.10155,-0.71577 0.30464,-0.95848c0.20309,-0.24271 0.49782,-0.36407 0.88418,-0.36407h3.77449c0.34674,0 0.61174,0.10402 0.79502,0.31206c0.18823,0.20309 0.28234,0.44829 0.28234,0.73558c0,0.18823 -0.0421,0.3616 -0.12632,0.52011c-0.08421,0.15355 -0.20804,0.27987 -0.37151,0.37894c-0.15851,0.09907 -0.35169,0.1486 -0.57955,0.1486h-2.68227v2.2216h2.49652c0.35664,0 0.63156,0.10155 0.82474,0.30464c0.19319,0.20309 0.28977,0.45323 0.28977,0.75044c0,0.27739 -0.09907,0.52258 -0.2972,0.73558c-0.19814,0.20804 -0.47058,0.31206 -0.81731,0.31206h-2.49652v2.31076h2.81601c0.35169,0 0.61918,0.10402 0.80245,0.31206c0.18823,0.20309 0.28234,0.45076 0.28234,0.74301c0,0.16346 -0.0421,0.3294 -0.12632,0.49782c-0.08421,0.16842 -0.20804,0.30216 -0.37151,0.40123c-0.16346,0.09907 -0.35912,0.14861 -0.58698,0.14861h-3.9231c-0.33684,0 -0.6167,-0.10403 -0.8396,-0.31207c-0.2229,-0.21299 -0.33436,-0.49038 -0.33436,-0.83217z"/><path d="M226.97837,182.39455v6.69453c0,0.80245 -0.1486,1.44392 -0.44581,1.9244c-0.29225,0.48048 -0.66376,0.81979 -1.11451,1.01793c-0.45077,0.19319 -0.93619,0.28977 -1.4563,0.28977c-0.66871,0 -1.30274,-0.14117 -1.90211,-0.42351c-0.59936,-0.28729 -0.89905,-0.72567 -0.89905,-1.31513c0,-0.1387 0.03715,-0.27987 0.11145,-0.42351c0.0743,-0.1486 0.17584,-0.26996 0.30464,-0.36407c0.13374,-0.09412 0.27987,-0.14117 0.43838,-0.14117c0.13374,0 0.27739,0.02725 0.43094,0.08174c0.15355,0.05449 0.32693,0.12879 0.52011,0.2229c0.19814,0.09412 0.35664,0.16099 0.47552,0.20061c0.11888,0.03963 0.25262,0.05945 0.40123,0.05945c0.37151,0 0.60432,-0.11888 0.69843,-0.35664c0.09906,-0.24271 0.1486,-0.54983 0.1486,-0.92134v-6.54592c0,-0.36655 0.1065,-0.65385 0.31949,-0.86189c0.21795,-0.213 0.49286,-0.31949 0.82474,-0.31949c0.34178,0 0.61671,0.10402 0.82475,0.31206c0.21299,0.20309 0.31949,0.49286 0.31949,0.86932z"/><path d="M238.29183,190.87231l1.41915,-8.49262c0.04956,-0.29225 0.21302,-0.55973 0.49039,-0.80245c0.28234,-0.24271 0.61422,-0.36407 0.99563,-0.36407c0.36655,0 0.68852,0.10897 0.96591,0.32693c0.28235,0.213 0.4681,0.4681 0.55726,0.7653l1.79809,6.02582h0.02968l1.79809,-6.02582c0.08916,-0.29225 0.27244,-0.54735 0.54983,-0.7653c0.28235,-0.21795 0.60432,-0.32693 0.96592,-0.32693c0.38141,0 0.71329,0.12136 0.99563,0.36407c0.28235,0.24271 0.44828,0.5102 0.49782,0.80245l1.41915,8.49262c0.00993,0.05944 0.01489,0.14612 0.01489,0.26006c0,0.33188 -0.1065,0.59689 -0.3195,0.79502c-0.20804,0.19813 -0.4681,0.2972 -0.78015,0.2972c-0.37151,0 -0.6489,-0.08421 -0.83217,-0.25262c-0.17832,-0.16842 -0.2972,-0.43838 -0.35664,-0.80988l-0.89161,-6.19671h-0.03712l-1.82037,6.38247c-0.17832,0.5845 -0.58451,0.87675 -1.21854,0.87675c-0.64394,0 -1.05012,-0.29225 -1.21853,-0.87675l-1.82781,-6.38247h-0.02977l-0.89904,6.19671c-0.05452,0.36655 -0.1734,0.63651 -0.35664,0.80988c-0.17833,0.16841 -0.45324,0.25262 -0.82475,0.25262c-0.31206,0 -0.57459,-0.09907 -0.78759,-0.2972c-0.20804,-0.20309 -0.31205,-0.4681 -0.31205,-0.79502c0,-0.11393 0.00496,-0.20061 0.01489,-0.26006z"/><path d="M251.90967,191.0432v-8.55206c0,-0.36655 0.10403,-0.65632 0.31207,-0.86932c0.20804,-0.21299 0.5003,-0.31949 0.87675,-0.31949h2.6897c0.72815,0 1.3919,0.15355 1.99127,0.46067c0.60432,0.30216 1.07242,0.73063 1.40429,1.28541c0.33684,0.54983 0.50525,1.17891 0.50525,1.88725c0,0.54983 -0.10155,1.05012 -0.30464,1.50088c-0.19814,0.44581 -0.47058,0.82474 -0.81732,1.13681c-0.34178,0.31206 -0.74548,0.55231 -1.21111,0.72072c-0.46562,0.16842 -0.95601,0.25262 -1.47116,0.25262h-1.69406v2.49652c0,0.37646 -0.1065,0.66871 -0.3195,0.87675c-0.20804,0.20309 -0.48047,0.30463 -0.81731,0.30463c-0.33188,0 -0.6068,-0.10402 -0.82474,-0.31206c-0.213,-0.213 -0.3195,-0.50277 -0.3195,-0.86932zM254.19071,183.30846v3.22467h1.55289c0.46562,0 0.84208,-0.15108 1.12937,-0.45323c0.29225,-0.30216 0.43838,-0.68852 0.43838,-1.15909c0,-0.30216 -0.06439,-0.5746 -0.19319,-0.81731c-0.12879,-0.24767 -0.31206,-0.44086 -0.54983,-0.57955c-0.23776,-0.14365 -0.51267,-0.21547 -0.82474,-0.21547z"/><path d="M253.85093,177.48333v-8.55206c0,-0.37151 0.09907,-0.66128 0.29721,-0.86932c0.20309,-0.21299 0.49534,-0.31949 0.87675,-0.31949h2.67484c1.21358,0 2.1473,0.28234 2.80114,0.84703c0.65881,0.55973 0.98821,1.42411 0.98821,2.59311c0,0.41113 -0.07183,0.78264 -0.21548,1.11451c-0.14365,0.33188 -0.34674,0.61918 -0.60927,0.86189c-0.25758,0.23777 -0.55478,0.43094 -0.89161,0.57955c-0.33188,0.14365 -0.69843,0.25015 -1.09965,0.31949l2.59311,2.764c0.19813,0.21795 0.2972,0.44333 0.2972,0.67614c0,0.30711 -0.11145,0.57955 -0.33435,0.81731c-0.21795,0.23281 -0.48544,0.34921 -0.80246,0.34921c-0.36655,0 -0.66128,-0.13126 -0.88418,-0.3938l-3.3807,-4.09399h-0.02968v3.3064c0,0.37646 -0.1065,0.66871 -0.3195,0.87675c-0.20804,0.20309 -0.48047,0.30463 -0.81731,0.30463c-0.33188,0 -0.6068,-0.10402 -0.82474,-0.31206c-0.213,-0.213 -0.3195,-0.50277 -0.3195,-0.86932zM256.13198,169.83774v2.69713h1.56775c0.42103,0 0.76283,-0.12136 1.02536,-0.36407c0.26253,-0.24271 0.39379,-0.57212 0.39379,-0.98821c0,-0.43094 -0.13126,-0.76283 -0.39379,-0.99564c-0.25758,-0.23281 -0.59936,-0.34922 -1.02536,-0.34922z"/><path d="M222.25569,167.56701c0.34674,0 0.75539,0.04954 1.22597,0.1486c0.47552,0.09907 0.88666,0.26501 1.2334,0.49782c0.34673,0.22786 0.5201,0.52011 0.5201,0.87675c0,0.31206 -0.09412,0.57955 -0.28234,0.80245c-0.18823,0.21795 -0.43342,0.32693 -0.73558,0.32693c-0.1387,0 -0.28977,-0.02477 -0.45323,-0.07429c-0.15851,-0.05449 -0.32445,-0.11393 -0.49782,-0.17832c-0.16842,-0.06439 -0.33931,-0.11393 -0.51267,-0.1486c-0.16842,-0.03963 -0.35417,-0.05945 -0.55726,-0.05945c-0.34178,0 -0.63652,0.08916 -0.88418,0.26749c-0.24271,0.17832 -0.36407,0.41856 -0.36407,0.72072c0,0.32693 0.27491,0.58945 0.82474,0.78759c0.55478,0.19319 1.169,0.40123 1.84266,0.62413c0.67862,0.2229 1.25073,0.56964 1.71635,1.04022c0.46562,0.46562 0.69843,1.14424 0.69843,2.03585c0,0.69348 -0.17584,1.31018 -0.52753,1.85009c-0.35169,0.53993 -0.82475,0.95601 -1.41916,1.24825c-0.59441,0.29225 -1.2433,0.43838 -1.94668,0.43838c-0.86685,0 -1.7015,-0.12632 -2.50395,-0.37893c-0.7975,-0.25758 -1.19625,-0.7009 -1.19625,-1.32999c0,-0.30711 0.09164,-0.56221 0.27491,-0.7653c0.18823,-0.20804 0.4359,-0.31206 0.74301,-0.31206c0.14861,0 0.31207,0.02477 0.49039,0.07429c0.17832,0.04954 0.40618,0.12384 0.68357,0.2229c0.27739,0.09412 0.52011,0.16842 0.72815,0.2229c0.20804,0.04954 0.426,0.07429 0.65385,0.07429c0.32693,0 0.6068,-0.05449 0.83961,-0.16346c0.2328,-0.11393 0.40865,-0.26996 0.52753,-0.4681c0.12383,-0.19814 0.18575,-0.42351 0.18575,-0.67614c0,-0.38636 -0.13622,-0.63899 -0.40865,-0.75787c-0.26748,-0.11888 -0.88666,-0.33188 -1.85754,-0.63899c-0.97086,-0.30711 -1.68415,-0.66128 -2.13987,-1.06251c-0.45077,-0.40123 -0.67614,-0.99812 -0.67614,-1.79066c0,-0.69348 0.17089,-1.30027 0.51267,-1.82038c0.34674,-0.52506 0.80988,-0.92877 1.38944,-1.21111c0.57955,-0.28235 1.20368,-0.42351 1.87239,-0.42351z"/><path d="M228.30661,187.93777v-5.43142c0,-0.37151 0.1065,-0.66128 0.31949,-0.86933c0.213,-0.20804 0.48544,-0.31205 0.81731,-0.31205c0.34178,0 0.6167,0.10402 0.82474,0.31205c0.213,0.2031 0.31949,0.49287 0.31949,0.86933v5.31253c0,0.47057 0.09412,0.89656 0.28234,1.27798c0.18823,0.37646 0.46067,0.67614 0.81731,0.89904c0.3616,0.22291 0.77521,0.33436 1.24083,0.33436c0.67862,0 1.23587,-0.24767 1.67177,-0.74301c0.44086,-0.49535 0.66128,-1.0848 0.66128,-1.76837v-5.31253c0,-0.37151 0.1065,-0.66128 0.31949,-0.86933c0.213,-0.20804 0.48544,-0.31205 0.81731,-0.31205c0.34178,0 0.6167,0.10402 0.82474,0.31205c0.213,0.2031 0.31949,0.49287 0.31949,0.86933v5.43142c0,0.62412 -0.11888,1.21111 -0.35664,1.76093c-0.23777,0.54487 -0.56964,1.02288 -0.99564,1.43401c-0.42599,0.41113 -0.91886,0.73063 -1.4786,0.95848c-0.55974,0.22786 -1.15415,0.34179 -1.78322,0.34179c-0.83712,0 -1.60986,-0.19319 -2.3182,-0.57955c-0.70834,-0.39133 -1.27055,-0.92877 -1.68664,-1.61234c-0.41113,-0.68852 -0.6167,-1.45631 -0.6167,-2.30334z"/><path d="M237.61717,177.46084v-8.55206c0,-0.36655 0.10403,-0.65632 0.31207,-0.86932c0.20804,-0.21299 0.5003,-0.31949 0.87675,-0.31949h2.6897c0.72815,0 1.3919,0.15355 1.99127,0.46067c0.60432,0.30216 1.07242,0.73063 1.40429,1.28541c0.33684,0.54983 0.50525,1.17891 0.50525,1.88725c0,0.54983 -0.10155,1.05012 -0.30464,1.50088c-0.19814,0.44581 -0.47058,0.82474 -0.81732,1.13681c-0.34178,0.31206 -0.74548,0.55231 -1.21111,0.72072c-0.46562,0.16842 -0.95601,0.25262 -1.47116,0.25262h-1.69406v2.49652c0,0.37646 -0.1065,0.66871 -0.3195,0.87675c-0.20804,0.20309 -0.48047,0.30463 -0.81731,0.30463c-0.33188,0 -0.6068,-0.10402 -0.82474,-0.31206c-0.213,-0.213 -0.3195,-0.50277 -0.3195,-0.86932zM239.89822,169.7261v3.22467h1.55289c0.46562,0 0.84208,-0.15108 1.12937,-0.45323c0.29225,-0.30216 0.43838,-0.68852 0.43838,-1.15909c0,-0.30216 -0.06439,-0.5746 -0.19319,-0.81731c-0.12879,-0.24767 -0.31206,-0.44086 -0.54983,-0.57955c-0.23776,-0.14365 -0.51267,-0.21547 -0.82474,-0.21547z"/><path d="M226.99687,174.3641v-5.43142c0,-0.37151 0.1065,-0.66128 0.31949,-0.86933c0.213,-0.20804 0.48544,-0.31205 0.81731,-0.31205c0.34178,0 0.6167,0.10402 0.82474,0.31205c0.213,0.2031 0.31949,0.49287 0.31949,0.86933v5.31253c0,0.47057 0.09412,0.89656 0.28234,1.27798c0.18823,0.37646 0.46067,0.67614 0.81731,0.89904c0.3616,0.22291 0.77521,0.33436 1.24083,0.33436c0.67862,0 1.23587,-0.24767 1.67177,-0.74301c0.44086,-0.49535 0.66128,-1.0848 0.66128,-1.76837v-5.31253c0,-0.37151 0.1065,-0.66128 0.31949,-0.86933c0.213,-0.20804 0.48544,-0.31205 0.81731,-0.31205c0.34178,0 0.6167,0.10402 0.82474,0.31205c0.213,0.2031 0.31949,0.49287 0.31949,0.86933v5.43142c0,0.62412 -0.11888,1.21111 -0.35664,1.76093c-0.23777,0.54487 -0.56964,1.02288 -0.99564,1.43401c-0.42599,0.41113 -0.91886,0.73063 -1.4786,0.95848c-0.55974,0.22786 -1.15415,0.34179 -1.78322,0.34179c-0.83712,0 -1.60986,-0.19319 -2.3182,-0.57955c-0.70834,-0.39133 -1.27055,-0.92877 -1.68664,-1.61234c-0.41113,-0.68852 -0.6167,-1.45631 -0.6167,-2.30334z"/></g></g></g></svg>