<svg version="1.1" xmlns="http://www.w3.org/2000/svg" xmlns:xlink="http://www.w3.org/1999/xlink" width="65.76437" height="69.14044" viewBox="0,0,65.76437,69.14044"><defs><radialGradient cx="240.00007" cy="180" r="32.79887" gradientUnits="userSpaceOnUse" id="color-1"><stop offset="0" stop-color="#000000"/><stop offset="1" stop-color="#000000" stop-opacity="0"/></radialGradient><linearGradient x1="224.87334" y1="206.25001" x2="254.31579" y2="206.25001" gradientUnits="userSpaceOnUse" id="color-2"><stop offset="0" stop-color="#cc0000"/><stop offset="1" stop-color="#e24b4b"/></linearGradient><linearGradient x1="224.87334" y1="153.75" x2="254.31579" y2="153.75" gradientUnits="userSpaceOnUse" id="color-3"><stop offset="0" stop-color="#cc0000"/><stop offset="1" stop-color="#e24b4b"/></linearGradient><linearGradient x1="215.3759" y1="180.00001" x2="263.24662" y2="180.00001" gradientUnits="userSpaceOnUse" id="color-4"><stop offset="0" stop-color="#a70000"/><stop offset="1" stop-color="#ff5454"/></linearGradient><linearGradient x1="218.90912" y1="185.43173" x2="246.51022" y2="187.37666" gradientUnits="userSpaceOnUse" id="color-5"><stop offset="0" stop-color="#ffffff"/><stop offset="1" stop-color="#ff7979"/></linearGradient><linearGradient x1="218.90912" y1="175.19021" x2="246.51022" y2="173.24528" gradientUnits="userSpaceOnUse" id="color-6"><stop offset="0" stop-color="#ffffff"/><stop offset="1" stop-color="#ff7979"/></linearGradient><linearGradient x1="227.64516" y1="182.94079" x2="229.46227" y2="163.05667" gradientUnits="userSpaceOnUse" id="color-7"><stop offset="0" stop-color="#ff0000"/><stop offset="1" stop-color="#ff7979"/></linearGradient><linearGradient x1="255.49212" y1="179.71457" x2="270.1876" y2="179.71457" gradientUnits="userSpaceOnUse" id="color-8"><stop offset="0" stop-color="#ff0000"/><stop offset="1" stop-color="#ff7979"/></linearGradient></defs><g transform="translate(-207.03456,-145.42977)"><g data-paper-data="{&quot;isPaintingLayer&quot;:true}" fill-rule="nonzero" stroke-width="0" stroke-linejoin="miter" stroke-miterlimit="10" stroke-dasharray="" stroke-dashoffset="0" style="mix-blend-mode: normal"><path d="M240.00007,212.79887c-18.11432,0 -32.79887,-14.68456 -32.79887,-32.79887c0,-18.11432 14.68456,-32.79887 32.79887,-32.79887c18.11432,0 32.79887,14.68456 32.79887,32.79887c0,18.11432 -14.68456,32.79887 -32.79887,32.79887z" fill="url(#color-1)" stroke="#000000" stroke-linecap="butt"/><path d="M254.31579,198.62426c0,0 -2.85483,5.23239 -4.39623,8.05753c-1.71006,3.13422 -11.21765,7.88843 -11.21765,7.88843c0,0 4.62089,-10.57995 2.99132,-10.09363c-0.56662,0.1691 -5.09388,3.55954 -9.74743,5.3667c-3.13327,1.21678 -7.07233,1.10853 -7.07233,1.10853c0,0 6.64754,-8.43472 9.57407,-13.02203" data-paper-data="{&quot;index&quot;:null}" fill="url(#color-2)" stroke="#000000" stroke-linecap="round"/><path d="M234.44753,162.0702c-2.92653,-4.58731 -9.57407,-13.02203 -9.57407,-13.02203c0,0 3.93905,-0.10825 7.07233,1.10853c4.65355,1.80716 9.1808,5.1976 9.74742,5.3667c1.62958,0.48632 -2.99132,-10.09363 -2.99132,-10.09363c0,0 9.50759,4.75421 11.21765,7.88843c1.5414,2.82514 4.39623,8.05753 4.39623,8.05753" data-paper-data="{&quot;index&quot;:null}" fill="url(#color-3)" stroke="#000000" stroke-linecap="round"/><path d="M207.03457,166.60778l17.58129,-5.50218c0,0 3.15888,-5.04094 14.69539,-5.04094c13.21912,0 23.93534,10.71622 23.93534,23.93534c0,13.21912 -10.73169,23.29596 -23.93534,23.93534c-9.17365,0.44423 -14.38204,-4.80098 -14.38204,-4.80098l-17.6607,-4.63141c0,0 16.16122,-11.74581 16.16122,-14.50295c0,-2.75714 -16.39516,-13.39222 -16.39516,-13.39222z" fill="url(#color-4)" stroke="#000000" stroke-linecap="butt"/><path d="M223.63987,196.85231l-9.99458,-3.38789l9.90742,-7.70545z" fill="url(#color-5)" stroke="#000000" stroke-linecap="butt"/><path d="M223.55274,174.863l-9.90742,-7.70545l9.99458,-3.38789z" data-paper-data="{&quot;index&quot;:null}" fill="url(#color-6)" stroke="#000000" stroke-linecap="butt"/><path d="M245.47513,190.6726c0,-2.44128 1.97905,-4.42033 4.42033,-4.42033c2.44128,0 4.42033,1.97905 4.42033,4.42033c0,2.44128 -1.97905,4.42033 -4.42033,4.42033c-2.44128,0 -4.42033,-1.97905 -4.42033,-4.42033z" fill="#000000" stroke="#000000" stroke-linecap="butt"/><path d="M245.52436,169.32741c0,-2.44128 1.97905,-4.42033 4.42033,-4.42033c2.44128,0 4.42033,1.97905 4.42033,4.42033c0,2.44128 -1.97905,4.42033 -4.42033,4.42033c-2.44128,0 -4.42033,-1.97905 -4.42033,-4.42033z" fill="#000000" stroke="#000000" stroke-linecap="butt"/><path d="M223.91351,177.78155c0.13038,-1.42672 0.15374,-7.6231 -1.8811,-15.29156c4.56899,-1.06973 6.02614,12.88724 7.86597,10.53086c2.6412,-1.11377 0.08868,-7.0714 0.99417,-7.16493c1.36596,-0.1411 7.33534,14.8788 7.33534,14.8788c0,0 -15.59363,11.04538 -14.31438,-2.95317z" fill="url(#color-7)" stroke="#02001f" stroke-linecap="butt"/><path d="M255.9375,189.24959c-0.1279,-0.30083 -0.44538,-15.49325 -0.44538,-15.81438c0,-6.21523 14.69548,-3.96523 14.69548,2.25c0,0.39828 -0.1038,9.4134 -0.29792,9.77908c0,0 -3.72926,3.6548 -6.11591,4.08849c-2.25681,0.41009 -7.83627,-0.30319 -7.83627,-0.30319z" fill="url(#color-8)" stroke="none" stroke-linecap="butt"/><path d="M263.58736,173.65229l3.86959,6.3477l-3.86959,6.3477z" fill="#000000" stroke="none" stroke-linecap="butt"/></g></g></svg>