<svg version="1.1" xmlns="http://www.w3.org/2000/svg" xmlns:xlink="http://www.w3.org/1999/xlink" width="83.69014" height="83.69014" viewBox="0,0,83.69014,83.69014"><defs><radialGradient cx="240.7628" cy="180.88902" r="21.55912" gradientUnits="userSpaceOnUse" id="color-1"><stop offset="0" stop-color="#ff0000"/><stop offset="1" stop-color="#800000"/></radialGradient><linearGradient x1="262.93583" y1="184.48621" x2="262.93583" y2="199.53489" gradientUnits="userSpaceOnUse" id="color-2"><stop offset="0" stop-color="#ffffff"/><stop offset="1" stop-color="#000000"/></linearGradient><linearGradient x1="218.08469" y1="184.98621" x2="218.08469" y2="200.03489" gradientUnits="userSpaceOnUse" id="color-3"><stop offset="0" stop-color="#ffffff"/><stop offset="1" stop-color="#000000"/></linearGradient><linearGradient x1="239.83469" y1="147.23621" x2="239.83469" y2="162.28489" gradientUnits="userSpaceOnUse" id="color-4"><stop offset="0" stop-color="#ffffff"/><stop offset="1" stop-color="#000000"/></linearGradient></defs><g transform="translate(-198.15493,-138.15493)"><g data-paper-data="{&quot;isPaintingLayer&quot;:true}" fill-rule="nonzero" stroke-linejoin="miter" stroke-miterlimit="10" stroke-dasharray="" stroke-dashoffset="0" style="mix-blend-mode: normal"><path d="M198.15493,221.84506v-83.69013h83.69014v83.69014z" fill="none" stroke="#000000" stroke-width="0" stroke-linecap="butt"/><path d="M203.71248,192.37675c0,-7.88401 6.39126,-14.27527 14.27527,-14.27527c7.88401,0 14.27527,6.39126 14.27527,14.27527c0,7.88401 -6.39126,14.27527 -14.27527,14.27527c-7.88401,0 -14.27527,-6.39126 -14.27527,-14.27527zM218.08285,200.14069c4.14213,0 7.5,-3.35787 7.5,-7.5c0,-4.14213 -3.35787,-7.5 -7.5,-7.5c-4.14213,0 -7.5,3.35787 -7.5,7.5c0,4.14213 3.35787,7.5 7.5,7.5z" fill="#ff0000" stroke="none" stroke-width="0" stroke-linecap="butt"/><path d="M225.73627,154.87357c0,-7.88401 6.39126,-14.27527 14.27527,-14.27527c7.88401,0 14.27527,6.39126 14.27527,14.27527c0,7.88401 -6.39126,14.27527 -14.27527,14.27527c-7.88401,0 -14.27527,-6.39126 -14.27527,-14.27527zM239.65922,162.43654c4.14213,0 7.5,-3.35787 7.5,-7.5c0,-4.14213 -3.35787,-7.5 -7.5,-7.5c-4.14213,0 -7.5,3.35787 -7.5,7.5c0,4.14213 3.35787,7.5 7.5,7.5z" fill="#ff0000" stroke="none" stroke-width="0" stroke-linecap="butt"/><path d="M247.84644,192.14184c0,-7.88401 6.39126,-14.27527 14.27527,-14.27527c7.88401,0 14.27527,6.39126 14.27527,14.27527c0,7.88401 -6.39126,14.27527 -14.27527,14.27527c-7.88401,0 -14.27527,-6.39126 -14.27527,-14.27527zM262.97913,199.92275c4.14213,0 7.5,-3.35787 7.5,-7.5c0,-4.14213 -3.35787,-7.5 -7.5,-7.5c-4.14213,0 -7.5,3.35787 -7.5,7.5c0,4.14213 3.35787,7.5 7.5,7.5z" fill="#ff0000" stroke="none" stroke-width="0" stroke-linecap="butt"/><path d="M229.14885,179.99999c0,-5.99292 4.85823,-10.85115 10.85115,-10.85115c5.99292,0 10.85115,4.85823 10.85115,10.85115c0,5.99292 -4.85823,10.85115 -10.85115,10.85115c-5.99292,0 -10.85115,-4.85823 -10.85115,-10.85115z" fill="#ff0000" stroke="none" stroke-width="0" stroke-linecap="butt"/><g fill="none" stroke="#000000" stroke-width="1" stroke-linecap="round"><path d="M230.95536,185.46431h18.08927"/><path d="M240,169.74094l8.94413,15.72337"/><path d="M231.05588,185.46431l8.94413,-15.72337" data-paper-data="{&quot;index&quot;:null}"/></g><path d="M219.29541,178.47439c0,0 7.40944,-1.17877 9.37155,-6.53829c2.00943,-5.48878 -2.15157,-12.6062 -2.15157,-12.6062l7.09985,0.04824c1.36538,1.85484 3.56413,3.0584 6.04398,3.0584c2.44324,0 4.61361,-1.16827 5.98296,-2.97667l7.87029,0.05348c0,0 -4.63106,8.88543 -1.95197,13.12878c4.02842,6.38053 10.66969,5.61432 10.66969,5.61432l-3.05202,7.6994c-2.21362,1.30388 -3.69904,3.71192 -3.69904,6.46689c0,0.73172 0.10478,1.43897 0.30017,2.10755l-3.1386,7.91783c0,0 -6.24934,-8.11207 -12.47445,-8.31594c-6.22511,-0.20387 -12.05266,8.11656 -12.05266,8.11656l-2.8096,-7.57485c0.18169,-0.64659 0.27886,-1.32855 0.27886,-2.03321c0,-2.60783 -1.33098,-4.90478 -3.35069,-6.24863z" fill="url(#color-1)" stroke="#000000" stroke-width="0" stroke-linecap="butt"/><path d="M227.46827,180c0,-6.92108 5.61064,-12.53173 12.53173,-12.53173c6.92108,0 12.53173,5.61064 12.53173,12.53173c0,6.92108 -5.61064,12.53173 -12.53173,12.53173c-6.92108,0 -12.53173,-5.61064 -12.53173,-12.53173z" fill="#ff0000" stroke="#000000" stroke-width="0" stroke-linecap="butt"/><path d="M232.69891,180c0,-4.03228 3.26881,-7.30109 7.30109,-7.30109c4.03228,0 7.30109,3.26881 7.30109,7.30109c0,4.03228 -3.26881,7.30109 -7.30109,7.30109c-4.03228,0 -7.30109,-3.26881 -7.30109,-7.30109z" fill="#000000" stroke="#000000" stroke-width="0" stroke-linecap="butt"/><path d="M262.93583,184.48621c4.15558,0 7.52434,3.36876 7.52434,7.52434c0,4.15558 -3.36876,7.52434 -7.52434,7.52434c-4.15558,0 -7.52434,-3.36876 -7.52434,-7.52434c0,-4.15558 3.36876,-7.52434 7.52434,-7.52434z" fill="#ffffff" stroke="url(#color-2)" stroke-width="0" stroke-linecap="butt"/><path d="M218.08469,184.98621c4.15558,0 7.52434,3.36876 7.52434,7.52434c0,4.15558 -3.36876,7.52434 -7.52434,7.52434c-4.15558,0 -7.52434,-3.36876 -7.52434,-7.52434c0,-4.15558 3.36876,-7.52434 7.52434,-7.52434z" fill="#ffffff" stroke="url(#color-3)" stroke-width="0" stroke-linecap="butt"/><path d="M239.83469,147.23621c4.15558,0 7.52434,3.36876 7.52434,7.52434c0,4.15558 -3.36876,7.52434 -7.52434,7.52434c-4.15558,0 -7.52434,-3.36876 -7.52434,-7.52434c0,-4.15558 3.36876,-7.52434 7.52434,-7.52434z" fill="#ffffff" stroke="url(#color-4)" stroke-width="0" stroke-linecap="butt"/></g></g></svg>