<svg version="1.1" xmlns="http://www.w3.org/2000/svg" xmlns:xlink="http://www.w3.org/1999/xlink" width="96.4982" height="79.5739" viewBox="0,0,96.4982,79.5739"><defs><radialGradient cx="240.89075" cy="180.29694" r="39.78695" gradientUnits="userSpaceOnUse" id="color-1"><stop offset="0" stop-color="#000000" stop-opacity="0.5098"/><stop offset="1" stop-color="#000000" stop-opacity="0"/></radialGradient><linearGradient x1="208.53871" y1="183.64597" x2="274.4544" y2="183.64597" gradientUnits="userSpaceOnUse" id="color-2"><stop offset="0" stop-color="#b18a53"/><stop offset="1" stop-color="#ffdfb3"/></linearGradient><linearGradient x1="241.19964" y1="155.4388" x2="241.19964" y2="179.19221" gradientUnits="userSpaceOnUse" id="color-3"><stop offset="0" stop-color="#8d6a3a"/><stop offset="1" stop-color="#43341b"/></linearGradient><linearGradient x1="228.87755" y1="142.37443" x2="228.87755" y2="166.12784" gradientUnits="userSpaceOnUse" id="color-4"><stop offset="0" stop-color="#a38965"/><stop offset="1" stop-color="#f1d3a8"/></linearGradient><linearGradient x1="239.71505" y1="155.4388" x2="286.92493" y2="155.4388" gradientUnits="userSpaceOnUse" id="color-5"><stop offset="0" stop-color="#debb8a"/><stop offset="1" stop-color="#f1d3a8"/></linearGradient><linearGradient x1="191.31749" y1="173.55077" x2="233.18287" y2="173.55077" gradientUnits="userSpaceOnUse" id="color-6"><stop offset="0" stop-color="#ffdfb3"/><stop offset="1" stop-color="#debb8a"/></linearGradient><linearGradient x1="232.58903" y1="177.55916" x2="287.81569" y2="177.55916" gradientUnits="userSpaceOnUse" id="color-7"><stop offset="0" stop-color="#debb8a"/><stop offset="1" stop-color="#ffdfb3"/></linearGradient></defs><g transform="translate(-191.31749,-140.50999)"><g data-paper-data="{&quot;isPaintingLayer&quot;:true}" fill-rule="nonzero" stroke-width="0" stroke-linecap="butt" stroke-linejoin="miter" stroke-miterlimit="10" stroke-dasharray="" stroke-dashoffset="0" style="mix-blend-mode: normal"><path d="M269.02439,208.43056c-15.53776,15.53776 -40.72946,15.53778 -56.26724,0c-15.53776,-15.53776 -15.53778,-40.72946 0,-56.26724c15.53776,-15.53776 40.72946,-15.53778 56.26724,0c15.53776,15.53776 15.53778,40.72946 0,56.26724z" data-paper-data="{&quot;index&quot;:null}" fill="url(#color-1)" stroke="none"/><g stroke="#221a0e"><path d="M208.53871,202.05486v-36.81778l24.05032,14.84588l41.86538,-14.84588v36.81778l-42.75613,14.84588z" fill="url(#color-2)"/><path d="M208.83562,165.23708l30.58251,-9.79828l34.14552,10.39211l-40.97462,15.1428z" fill="url(#color-3)"/><path d="M248.62257,142.37443l-8.90753,13.65821l-30.58251,10.0952l9.79828,-16.03355z" fill="url(#color-4)"/><path d="M239.71505,156.03264l14.84588,-11.57979l32.36401,8.31369l-13.36129,13.65821z" fill="url(#color-5)"/><path d="M191.31749,165.534l17.51814,0.29692l24.34724,15.73663l-18.35614,-1.3254z" fill="url(#color-6)"/><path d="M249.81024,189.28741l-17.22122,-8.90753l40.38079,-14.54896l14.84588,9.79828z" fill="url(#color-7)"/></g></g></g></svg>