<svg version="1.1" xmlns="http://www.w3.org/2000/svg" xmlns:xlink="http://www.w3.org/1999/xlink" width="90.31423" height="97.08701" viewBox="0,0,90.31423,97.08701"><defs><linearGradient x1="220.10002" y1="179.00001" x2="259.90002" y2="179.00001" gradientUnits="userSpaceOnUse" id="color-1"><stop offset="0" stop-color="#ffe600" stop-opacity="0.90196"/><stop offset="1" stop-color="#fff066" stop-opacity="0.90196"/></linearGradient></defs><g transform="translate(-192.34777,-130.15532)"><g data-paper-data="{&quot;isPaintingLayer&quot;:true}" fill-rule="nonzero" stroke-width="0" stroke-linecap="butt" stroke-linejoin="miter" stroke-miterlimit="10" stroke-dasharray="" stroke-dashoffset="0" style="mix-blend-mode: normal"><path d="M226.9847,197.19523l3.27842,-13.11367l-10.1631,-9.83526l13.59282,-1.41224l6.40552,-12.02927l6.55684,12.13015l13.24482,1.57364l-9.53664,9.59641l3.17651,12.43455l-13.11367,-7.21252z" fill="url(#color-1)" stroke="#696969"/><path d="M282.662,193.05402c0,8.24974 -6.68774,14.93747 -14.93748,14.93747c-8.24974,0 -14.93747,-6.68773 -14.93747,-14.93747c0,-8.24974 6.68773,-14.93747 14.93747,-14.93747c8.24974,0 14.93748,6.68773 14.93748,14.93747z" data-paper-data="{&quot;index&quot;:null}" fill-opacity="0.21961" fill="#ffe600" stroke="none"/><path d="M259.39119,220.22622c0,3.87489 -3.14122,7.01611 -7.01611,7.01611c-3.87489,0 -7.0161,-3.14122 -7.0161,-7.01611c0,-3.87489 3.14121,-7.01611 7.0161,-7.01611c3.87489,0 7.01611,3.14122 7.01611,7.01611z" data-paper-data="{&quot;index&quot;:null}" fill-opacity="0.21961" fill="#ffe600" stroke="none"/><path d="M241.40397,139.69186c0,5.26689 -4.26966,9.53655 -9.53654,9.53655c-5.26689,0 -9.53654,-4.26966 -9.53654,-9.53655c0,-5.26689 4.26966,-9.53654 9.53654,-9.53654c5.26689,0 9.53654,4.26966 9.53654,9.53654z" data-paper-data="{&quot;index&quot;:null}" fill-opacity="0.21961" fill="#ffe600" stroke="none"/><path d="M202.47307,193.05402c0,2.79602 -2.26662,5.06265 -5.06265,5.06265c-2.79602,0 -5.06265,-2.26663 -5.06265,-5.06265c0,-2.79602 2.26662,-5.06265 5.06265,-5.06265c2.79602,0 5.06265,2.26662 5.06265,5.06265z" data-paper-data="{&quot;index&quot;:null}" fill-opacity="0.21961" fill="#ffe600" stroke="none"/><path d="M222.87631,167.89365c0,7.86093 -6.37253,14.23345 -14.23346,14.23345c-7.86093,0 -14.23346,-6.37253 -14.23346,-14.23345c0,-7.86093 6.37254,-14.23346 14.23346,-14.23346c7.86093,0 14.23346,6.37253 14.23346,14.23346z" data-paper-data="{&quot;index&quot;:null}" fill-opacity="0.21961" fill="#ffe600" stroke="none"/><path d="M231.86743,211.23322c0,2.79603 -2.26662,5.06265 -5.06265,5.06265c-2.79603,0 -5.06265,-2.26662 -5.06265,-5.06265c0,-2.79603 2.26663,-5.06265 5.06265,-5.06265c2.79603,0 5.06265,2.26662 5.06265,5.06265z" data-paper-data="{&quot;index&quot;:null}" fill-opacity="0.21961" fill="#ffe600" stroke="none"/><path d="M262.73956,163.53524c0,1.47031 -1.19193,2.66223 -2.66224,2.66223c-1.47031,0 -2.66223,-1.19192 -2.66223,-2.66223c0,-1.47031 1.19192,-2.66224 2.66223,-2.66224c1.47031,0 2.66224,1.19192 2.66224,2.66224z" data-paper-data="{&quot;index&quot;:null}" fill-opacity="0.21961" fill="#ffe600" stroke="none"/></g></g></svg>