<svg version="1.1" xmlns="http://www.w3.org/2000/svg" xmlns:xlink="http://www.w3.org/1999/xlink" width="80.13905" height="79.49276" viewBox="0,0,80.13905,79.49276"><defs><radialGradient cx="240.00007" cy="179.99999" r="32.79887" gradientUnits="userSpaceOnUse" id="color-1"><stop offset="0" stop-color="#000000"/><stop offset="1" stop-color="#000000" stop-opacity="0"/></radialGradient><linearGradient x1="239.70882" y1="155.62787" x2="239.70882" y2="204.37213" gradientUnits="userSpaceOnUse" id="color-2"><stop offset="0" stop-color="#c20000"/><stop offset="1" stop-color="#000000"/></linearGradient><radialGradient cx="226.60977" cy="181.08371" r="5.96404" gradientUnits="userSpaceOnUse" id="color-3"><stop offset="0" stop-color="#ffffff"/><stop offset="1" stop-color="#ff0000"/></radialGradient><radialGradient cx="225.80972" cy="184.06572" r="7.63687" gradientUnits="userSpaceOnUse" id="color-4"><stop offset="0" stop-color="#ffffff"/><stop offset="1" stop-color="#ff0000"/></radialGradient><radialGradient cx="239.55607" cy="161.37333" r="4.43666" gradientUnits="userSpaceOnUse" id="color-5"><stop offset="0" stop-color="#ffffff"/><stop offset="1" stop-color="#ff0000"/></radialGradient><radialGradient cx="238.10143" cy="197.44843" r="3.41841" gradientUnits="userSpaceOnUse" id="color-6"><stop offset="0" stop-color="#ffffff"/><stop offset="1" stop-color="#ff0000"/></radialGradient></defs><g transform="translate(-199.93051,-140.25362)"><g data-paper-data="{&quot;isPaintingLayer&quot;:true}" fill-rule="nonzero" stroke-linejoin="miter" stroke-miterlimit="10" stroke-dasharray="" stroke-dashoffset="0" style="mix-blend-mode: normal"><path d="M199.93052,219.74638v-79.49276h80.13905v79.49276z" fill="none" stroke="none" stroke-width="NaN" stroke-linecap="butt"/><path d="M240.00007,212.79887c-18.11432,0 -32.79887,-14.68456 -32.79887,-32.79887c0,-18.11432 14.68456,-32.79887 32.79887,-32.79887c18.11432,0 32.79887,14.68456 32.79887,32.79887c0,18.11432 -14.68456,32.79887 -32.79887,32.79887z" fill="url(#color-1)" stroke="#000000" stroke-width="0" stroke-linecap="butt"/><path d="M215.33669,180c0,-13.46035 10.91178,-24.37213 24.37213,-24.37213c13.46035,0 24.37213,10.91178 24.37213,24.37213c0,13.46035 -10.91178,24.37213 -24.37213,24.37213c-13.46035,0 -24.37213,-10.91178 -24.37213,-24.37213z" fill="url(#color-2)" stroke="#000000" stroke-width="0" stroke-linecap="butt"/><path d="M240.71252,176.21552c0,-0.84355 0.68383,-1.52737 1.52737,-1.52737c0.84355,0 1.52737,0.68383 1.52737,1.52737c0,0.84355 -0.68383,1.52737 -1.52737,1.52737c-0.84355,0 -1.52737,-0.68383 -1.52737,-1.52737z" fill="#ffffff" stroke="none" stroke-width="0" stroke-linecap="butt"/><path d="M221.3173,193.69545c0,-0.84355 0.68383,-1.52737 1.52737,-1.52737c0.84355,0 1.52737,0.68383 1.52737,1.52737c0,0.84355 -0.68383,1.52737 -1.52737,1.52737c-0.84355,0 -1.52737,-0.68383 -1.52737,-1.52737z" fill="#ffffff" stroke="none" stroke-width="0" stroke-linecap="butt"/><path d="M240.76101,200.14436c0,-0.84355 0.68383,-1.52737 1.52737,-1.52737c0.84355,0 1.52737,0.68383 1.52737,1.52737c0,0.84355 -0.68383,1.52737 -1.52737,1.52737c-0.84355,0 -1.52737,-0.68383 -1.52737,-1.52737z" fill="#ffffff" stroke="none" stroke-width="0" stroke-linecap="butt"/><path d="M230.23911,162.46915c0,-0.84355 0.68383,-1.52737 1.52737,-1.52737c0.84355,0 1.52737,0.68383 1.52737,1.52737c0,0.84355 -0.68383,1.52737 -1.52737,1.52737c-0.84355,0 -1.52737,-0.68383 -1.52737,-1.52737z" fill="#ffffff" stroke="none" stroke-width="0" stroke-linecap="butt"/><path d="M232.17862,170.84546c0,-0.44855 0.36364,-0.81218 0.81219,-0.81218c0.44855,0 0.81217,0.36363 0.81217,0.81218c0,0.44855 -0.36362,0.81218 -0.81217,0.81218c-0.44855,0 -0.81219,-0.36363 -0.81219,-0.81218z" fill="#ffffff" stroke="none" stroke-width="0" stroke-linecap="butt"/><path d="M235.5243,190.62858c0,-0.60923 0.49388,-1.1031 1.1031,-1.1031c0.60923,0 1.10311,0.49388 1.10311,1.1031c0,0.60923 -0.49388,1.10311 -1.10311,1.10311c-0.60923,0 -1.1031,-0.49388 -1.1031,-1.10311z" fill="#ffffff" stroke="none" stroke-width="0" stroke-linecap="butt"/><path d="M218.65046,170.84546c0,-0.60923 0.49388,-1.1031 1.10311,-1.1031c0.60923,0 1.10311,0.49387 1.10311,1.1031c0,0.60923 -0.49388,1.10311 -1.10311,1.10311c-0.60923,0 -1.10311,-0.49388 -1.10311,-1.10311z" fill="#ffffff" stroke="none" stroke-width="0" stroke-linecap="butt"/><path d="M247.74328,160.66298c0,-0.60923 0.49388,-1.1031 1.1031,-1.1031c0.60923,0 1.10311,0.49387 1.10311,1.1031c0,0.60923 -0.49388,1.10311 -1.10311,1.10311c-0.60923,0 -1.1031,-0.49388 -1.1031,-1.10311z" fill="#ffffff" stroke="none" stroke-width="0" stroke-linecap="butt"/><path d="M232.57379,182.82929l-6.54588,1.16371l-4.12878,-5.14148l-3.63723,1.65676l-0.6709,-4.22488" fill="none" stroke="url(#color-3)" stroke-width="1.5" stroke-linecap="round"/><path d="M225.59152,192.42991l-2.00608,-2.89457l3.00802,-6.21656l1.03456,-8.05364" fill="none" stroke="url(#color-4)" stroke-width="1.5" stroke-linecap="round"/><path d="M242.17443,165.80998l-5.2367,-4.50939l1.74557,-4.36393" fill="none" stroke="url(#color-5)" stroke-width="1.5" stroke-linecap="round"/><path d="M239.55607,194.03001l-2.90928,6.83682" fill="none" stroke="url(#color-6)" stroke-width="1.5" stroke-linecap="round"/><path d="M252.54359,182.48259c0,-0.44855 0.36364,-0.81218 0.81219,-0.81218c0.44855,0 0.81217,0.36363 0.81217,0.81218c0,0.44855 -0.36362,0.81218 -0.81217,0.81218c-0.44855,0 -0.81219,-0.36363 -0.81219,-0.81218z" fill="#ffffff" stroke="none" stroke-width="0" stroke-linecap="butt"/><path d="M246.16392,190.67259c0,-2.44128 1.97905,-4.42033 4.42033,-4.42033c2.44128,0 4.42033,1.97905 4.42033,4.42033c0,2.44128 -1.97905,4.42033 -4.42033,4.42033c-2.44128,0 -4.42033,-1.97905 -4.42033,-4.42033z" fill="#ffffff" stroke="#000000" stroke-width="0" stroke-linecap="butt"/><path d="M246.21314,169.32741c0,-2.44128 1.97905,-4.42033 4.42033,-4.42033c2.44128,0 4.42033,1.97905 4.42033,4.42033c0,2.44128 -1.97905,4.42033 -4.42033,4.42033c-2.44128,0 -4.42033,-1.97905 -4.42033,-4.42033z" fill="#ffffff" stroke="#000000" stroke-width="0" stroke-linecap="butt"/><path d="M258.36434,170.84725v17.65348" fill="none" stroke="#ffffff" stroke-width="2" stroke-linecap="round"/></g></g></svg>