<svg version="1.1" xmlns="http://www.w3.org/2000/svg" xmlns:xlink="http://www.w3.org/1999/xlink" width="654.62463" height="557.79397" viewBox="0,0,654.62463,557.79397"><defs><radialGradient cx="456.18618" cy="284.83484" r="77.26776" gradientUnits="userSpaceOnUse" id="color-1"><stop offset="0" stop-color="#ffffff" stop-opacity="0.69328"/><stop offset="1" stop-color="#ffffff" stop-opacity="0"/></radialGradient><radialGradient cx="311.54654" cy="348.90391" r="77.26776" gradientUnits="userSpaceOnUse" id="color-2"><stop offset="0" stop-color="#ffffff" stop-opacity="0.69328"/><stop offset="1" stop-color="#ffffff" stop-opacity="0"/></radialGradient><radialGradient cx="169.9099" cy="355.91592" r="77.26776" gradientUnits="userSpaceOnUse" id="color-3"><stop offset="0" stop-color="#ffffff" stop-opacity="0.69328"/><stop offset="1" stop-color="#ffffff" stop-opacity="0"/></radialGradient><radialGradient cx="29.77477" cy="313.37838" r="77.26776" gradientUnits="userSpaceOnUse" id="color-4"><stop offset="0" stop-color="#ffffff" stop-opacity="0.69328"/><stop offset="1" stop-color="#ffffff" stop-opacity="0"/></radialGradient><radialGradient cx="8.25825" cy="173.24325" r="77.26776" gradientUnits="userSpaceOnUse" id="color-5"><stop offset="0" stop-color="#ffffff" stop-opacity="0.69328"/><stop offset="1" stop-color="#ffffff" stop-opacity="0"/></radialGradient><radialGradient cx="36.29129" cy="42.11712" r="77.26776" gradientUnits="userSpaceOnUse" id="color-6"><stop offset="0" stop-color="#ffffff" stop-opacity="0.69328"/><stop offset="1" stop-color="#ffffff" stop-opacity="0"/></radialGradient><radialGradient cx="196.45646" cy="-19.93994" r="77.26776" gradientUnits="userSpaceOnUse" id="color-7"><stop offset="0" stop-color="#ffffff" stop-opacity="0.69328"/><stop offset="1" stop-color="#ffffff" stop-opacity="0"/></radialGradient><radialGradient cx="350.61562" cy="-6.92191" r="77.26776" gradientUnits="userSpaceOnUse" id="color-8"><stop offset="0" stop-color="#ffffff" stop-opacity="0.69328"/><stop offset="1" stop-color="#ffffff" stop-opacity="0"/></radialGradient><radialGradient cx="465.73574" cy="112.70271" r="77.26776" gradientUnits="userSpaceOnUse" id="color-9"><stop offset="0" stop-color="#ffffff" stop-opacity="0.69328"/><stop offset="1" stop-color="#ffffff" stop-opacity="0"/></radialGradient><radialGradient cx="452.29802" cy="366.84724" r="83.72301" gradientUnits="userSpaceOnUse" id="color-10"><stop offset="0" stop-color="#ff0000"/><stop offset="1" stop-color="#ff0000" stop-opacity="0"/></radialGradient><radialGradient cx="24.86559" cy="371.84724" r="83.72301" gradientUnits="userSpaceOnUse" id="color-11"><stop offset="0" stop-color="#ff0000"/><stop offset="1" stop-color="#ff0000" stop-opacity="0"/></radialGradient><radialGradient cx="11.84757" cy="13.48387" r="83.72301" gradientUnits="userSpaceOnUse" id="color-12"><stop offset="0" stop-color="#ff0000"/><stop offset="1" stop-color="#ff0000" stop-opacity="0"/></radialGradient><radialGradient cx="458.28901" cy="-1.03565" r="83.72301" gradientUnits="userSpaceOnUse" id="color-13"><stop offset="0" stop-color="#ff0000"/><stop offset="1" stop-color="#ff0000" stop-opacity="0"/></radialGradient><radialGradient cx="35.04506" cy="36.60662" r="114.11412" gradientUnits="userSpaceOnUse" id="color-14"><stop offset="0" stop-color="#ff0000"/><stop offset="1" stop-color="#ff0000" stop-opacity="0"/></radialGradient><radialGradient cx="-0.49548" cy="181.24625" r="90.09009" gradientUnits="userSpaceOnUse" id="color-15"><stop offset="0" stop-color="#ff0000"/><stop offset="1" stop-color="#ff0000" stop-opacity="0"/></radialGradient><radialGradient cx="25.52554" cy="324.38439" r="114.11412" gradientUnits="userSpaceOnUse" id="color-16"><stop offset="0" stop-color="#ff0000"/><stop offset="1" stop-color="#ff0000" stop-opacity="0"/></radialGradient><radialGradient cx="175.81011" cy="364.98461" r="83.72301" gradientUnits="userSpaceOnUse" id="color-17"><stop offset="0" stop-color="#ff0000"/><stop offset="1" stop-color="#ff0000" stop-opacity="0"/></radialGradient><radialGradient cx="301.65236" cy="376.86225" r="83.72301" gradientUnits="userSpaceOnUse" id="color-18"><stop offset="0" stop-color="#ff0000"/><stop offset="1" stop-color="#ff0000" stop-opacity="0"/></radialGradient><radialGradient cx="445.93094" cy="319.86487" r="114.11411" gradientUnits="userSpaceOnUse" id="color-19"><stop offset="0" stop-color="#ff0000"/><stop offset="1" stop-color="#ff0000" stop-opacity="0"/></radialGradient><radialGradient cx="470.45046" cy="177.71772" r="78.07808" gradientUnits="userSpaceOnUse" id="color-20"><stop offset="0" stop-color="#ff0000"/><stop offset="1" stop-color="#ff0000" stop-opacity="0"/></radialGradient><radialGradient cx="449.92494" cy="34.06908" r="114.11412" gradientUnits="userSpaceOnUse" id="color-21"><stop offset="0" stop-color="#ff0000"/><stop offset="1" stop-color="#ff0000" stop-opacity="0"/></radialGradient><radialGradient cx="303.27328" cy="-4.47447" r="75.55556" gradientUnits="userSpaceOnUse" id="color-22"><stop offset="0" stop-color="#ff0000"/><stop offset="1" stop-color="#ff0000" stop-opacity="0"/></radialGradient><radialGradient cx="185.15016" cy="0.52553" r="75.55555" gradientUnits="userSpaceOnUse" id="color-23"><stop offset="0" stop-color="#ff0000"/><stop offset="1" stop-color="#ff0000" stop-opacity="0"/></radialGradient></defs><g transform="translate(90.58557,97.20871)"><g data-paper-data="{&quot;isPaintingLayer&quot;:true}" fill-rule="nonzero" stroke="none" stroke-width="0" stroke-linecap="butt" stroke-linejoin="miter" stroke-miterlimit="10" stroke-dasharray="" stroke-dashoffset="0" style="mix-blend-mode: normal"><g data-paper-data="{&quot;index&quot;:null}"><path d="M533.40149,281.98823c1.57214,42.64483 -31.72387,78.48978 -74.3687,80.06192c-42.64483,1.57214 -78.48978,-31.72387 -80.06192,-74.3687c-1.57214,-42.64483 31.72387,-78.48978 74.3687,-80.06192c42.64483,-1.57214 78.48978,31.72387 80.06192,74.3687z" data-paper-data="{&quot;index&quot;:null}" fill="url(#color-1)"/><path d="M388.76185,346.0573c1.57214,42.64483 -31.72387,78.48978 -74.3687,80.06192c-42.64483,1.57214 -78.48978,-31.72387 -80.06192,-74.3687c-1.57214,-42.64483 31.72387,-78.48978 74.3687,-80.06192c42.64483,-1.57214 78.48978,31.72387 80.06192,74.3687z" data-paper-data="{&quot;index&quot;:null}" fill="url(#color-2)"/><path d="M247.12521,353.06931c1.57214,42.64483 -31.72387,78.48978 -74.3687,80.06192c-42.64483,1.57214 -78.48978,-31.72387 -80.06192,-74.3687c-1.57214,-42.64483 31.72387,-78.48978 74.3687,-80.06192c42.64483,-1.57214 78.48978,31.72387 80.06192,74.3687z" data-paper-data="{&quot;index&quot;:null}" fill="url(#color-3)"/><path d="M106.99008,310.53177c1.57214,42.64483 -31.72387,78.48978 -74.3687,80.06192c-42.64483,1.57214 -78.48978,-31.72387 -80.06192,-74.3687c-1.57214,-42.64483 31.72387,-78.48978 74.3687,-80.06192c42.64483,-1.57214 78.48978,31.72387 80.06192,74.3687z" data-paper-data="{&quot;index&quot;:null}" fill="url(#color-4)"/><path d="M85.47356,170.39664c1.57214,42.64483 -31.72387,78.48978 -74.3687,80.06192c-42.64483,1.57214 -78.48978,-31.72387 -80.06192,-74.3687c-1.57214,-42.64483 31.72387,-78.48978 74.3687,-80.06192c42.64483,-1.57214 78.48978,31.72387 80.06192,74.3687z" data-paper-data="{&quot;index&quot;:null}" fill="url(#color-5)"/><path d="M113.5066,39.27051c1.57214,42.64483 -31.72387,78.48978 -74.3687,80.06192c-42.64483,1.57214 -78.48978,-31.72387 -80.06192,-74.3687c-1.57214,-42.64483 31.72387,-78.48978 74.3687,-80.06192c42.64483,-1.57214 78.48978,31.72387 80.06192,74.3687z" data-paper-data="{&quot;index&quot;:null}" fill="url(#color-6)"/><path d="M273.67177,-22.78655c1.57214,42.64483 -31.72387,78.48978 -74.3687,80.06192c-42.64483,1.57214 -78.48978,-31.72387 -80.06192,-74.3687c-1.57214,-42.64483 31.72387,-78.48978 74.3687,-80.06192c42.64483,-1.57214 78.48978,31.72387 80.06192,74.3687z" data-paper-data="{&quot;index&quot;:null}" fill="url(#color-7)"/><path d="M427.83093,-9.76852c1.57214,42.64483 -31.72387,78.48978 -74.3687,80.06192c-42.64483,1.57214 -78.48978,-31.72387 -80.06192,-74.3687c-1.57214,-42.64483 31.72387,-78.48978 74.3687,-80.06192c42.64483,-1.57214 78.48978,31.72387 80.06192,74.3687z" data-paper-data="{&quot;index&quot;:null}" fill="url(#color-8)"/><path d="M542.95105,109.8561c1.57214,42.64483 -31.72387,78.48978 -74.3687,80.06192c-42.64483,1.57214 -78.48978,-31.72387 -80.06192,-74.3687c-1.57214,-42.64483 31.72387,-78.48978 74.3687,-80.06192c42.64483,-1.57214 78.48978,31.72387 80.06192,74.3687z" data-paper-data="{&quot;index&quot;:null}" fill="url(#color-9)"/></g><path d="M368.57501,366.84724c0,-46.23894 37.48407,-83.72301 83.72301,-83.72301c46.23894,0 83.72301,37.48407 83.72301,83.72301c0,46.23894 -37.48407,83.72301 -83.72301,83.72301c-46.23894,0 -83.72301,-37.48407 -83.72301,-83.72301z" fill="url(#color-10)"/><path d="M-58.85742,371.84724c0,-46.23894 37.48407,-83.72301 83.72301,-83.72301c46.23894,0 83.72301,37.48407 83.72301,83.72301c0,46.23894 -37.48407,83.72301 -83.72301,83.72301c-46.23894,0 -83.72301,-37.48407 -83.72301,-83.72301z" fill="url(#color-11)"/><path d="M-71.87544,13.48387c0,-46.23894 37.48407,-83.72301 83.72301,-83.72301c46.23894,0 83.72301,37.48407 83.72301,83.72301c0,46.23894 -37.48407,83.72301 -83.72301,83.72301c-46.23894,0 -83.72301,-37.48407 -83.72301,-83.72301z" fill="url(#color-12)"/><path d="M374.566,-1.03565c0,-46.23894 37.48407,-83.72301 83.72301,-83.72301c46.23894,0 83.72301,37.48407 83.72301,83.72301c0,46.23894 -37.48407,83.72301 -83.72301,83.72301c-46.23894,0 -83.72301,-37.48407 -83.72301,-83.72301z" fill="url(#color-13)"/><path d="M-79.06906,36.60662c0,-63.02348 51.09063,-114.11411 114.11412,-114.11411c63.02349,0 114.11412,51.09063 114.11412,114.11412c0,63.02349 -51.09063,114.11411 -114.11411,114.11411c-63.02348,0 -114.11411,-51.09062 -114.11411,-114.11411z" fill="url(#color-14)"/><path d="M-90.58557,181.24625c0,-49.75538 40.33471,-90.09009 90.09009,-90.09009c49.75539,0 90.09009,40.33471 90.09009,90.09009c0,49.75538 -40.3347,90.09009 -90.09009,90.09009c-49.75538,0 -90.09009,-40.3347 -90.09009,-90.09009z" fill="url(#color-15)"/><path d="M-88.58858,324.38439c0,-63.02348 51.09063,-114.11411 114.11412,-114.11411c63.02348,0 114.11412,51.09063 114.11412,114.11411c0,63.02348 -51.09063,114.11411 -114.11411,114.11411c-63.02348,0 -114.11411,-51.09063 -114.11411,-114.11411z" fill="url(#color-16)"/><path d="M92.0871,364.98461c0,-46.23894 37.48407,-83.72301 83.72301,-83.72301c46.23894,0 83.72301,37.48407 83.72301,83.72301c0,46.23894 -37.48407,83.72301 -83.72301,83.72301c-46.23894,0 -83.72301,-37.48407 -83.72301,-83.72301z" fill="url(#color-17)"/><path d="M217.92936,376.86225c0,-46.23894 37.48407,-83.72301 83.72301,-83.72301c46.23894,0 83.72301,37.48407 83.72301,83.72301c0,46.23894 -37.48407,83.72301 -83.72301,83.72301c-46.23894,0 -83.72301,-37.48407 -83.72301,-83.72301z" fill="url(#color-18)"/><path d="M331.81683,319.86487c0,-63.02348 51.09063,-114.11411 114.11412,-114.11411c63.02349,0 114.11411,51.09063 114.11411,114.11412c0,63.02348 -51.09063,114.11411 -114.11411,114.11411c-63.02348,0 -114.11412,-51.09062 -114.11412,-114.11411z" fill="url(#color-19)"/><path d="M392.37239,177.71772c0,-43.12133 34.95675,-78.07808 78.07808,-78.07808c43.12133,0 78.07808,34.95675 78.07808,78.07808c0,43.12133 -34.95675,78.07807 -78.07808,78.07807c-43.12133,0 -78.07808,-34.95674 -78.07808,-78.07807z" fill="url(#color-20)"/><path d="M335.81083,34.06908c0,-63.02348 51.09063,-114.11411 114.11411,-114.11411c63.02348,0 114.11412,51.09063 114.11412,114.11412c0,63.02349 -51.09063,114.11411 -114.11412,114.11411c-63.02348,0 -114.11411,-51.09063 -114.11411,-114.11411z" fill="url(#color-21)"/><path d="M227.71773,-4.47447c0,-41.72818 33.82737,-75.55556 75.55556,-75.55556c41.72818,0 75.55556,33.82737 75.55556,75.55556c0,41.72818 -33.82737,75.55555 -75.55556,75.55555c-41.72818,0 -75.55556,-33.82737 -75.55556,-75.55555z" fill="url(#color-22)"/><path d="M109.5946,0.52553c0,-41.72818 33.82738,-75.55555 75.55556,-75.55555c41.72818,0 75.55555,33.82737 75.55555,75.55556c0,41.72818 -33.82737,75.55555 -75.55555,75.55555c-41.72818,0 -75.55556,-33.82737 -75.55556,-75.55555z" fill="url(#color-23)"/><path d="M-26.51651,38.10811c0,-31.51174 25.54532,-57.05706 57.05706,-57.05706c31.51174,0 57.05706,25.54532 57.05706,57.05706c0,31.51174 -25.54531,57.05706 -57.05705,57.05706c-31.51174,0 -57.05706,-25.54531 -57.05706,-57.05705z" fill-opacity="0.57255" fill="#ff0000"/><path d="M-35.03002,109.17418c0,-20.73141 16.80613,-37.53754 37.53754,-37.53754c20.73141,0 37.53754,16.80613 37.53754,37.53754c0,20.73141 -16.80613,37.53754 -37.53753,37.53754c-20.73141,0 -37.53754,-16.80613 -37.53754,-37.53754z" fill-opacity="0.57255" fill="#ff0000"/><path d="M112.61262,-5.94594c0,-10.78033 8.73918,-19.51951 19.51951,-19.51951c10.78034,0 19.51951,8.73918 19.51951,19.51953c0,10.78034 -8.73918,19.51951 -19.51951,19.51951c-10.78033,0 -19.51951,-8.73918 -19.51951,-19.51951z" fill-opacity="0.57255" fill="#ff0000"/><path d="M81.57659,75.63063c0,-8.29256 6.72245,-15.01501 15.01501,-15.01501c8.29256,0 15.01501,6.72245 15.01501,15.01501c0,8.29256 -6.72245,15.01501 -15.01501,15.01501c-8.29256,0 -15.01501,-6.72245 -15.01501,-15.01501z" fill-opacity="0.57255" fill="#ff0000"/><path d="M-16.51651,336.3964c0,-20.73141 16.80613,-37.53754 37.53754,-37.53754c20.73141,0 37.53754,16.80613 37.53754,37.53754c0,20.73141 -16.80612,37.53753 -37.53753,37.53753c-20.73141,0 -37.53754,-16.80613 -37.53754,-37.53753z" fill-opacity="0.57255" fill="#ff0000"/><path d="M398.90391,337.40241c0,-31.51174 25.54532,-57.05706 57.05706,-57.05706c31.51174,0 57.05705,25.54532 57.05705,57.05706c0,31.51174 -25.54532,57.05705 -57.05705,57.05705c-31.51174,0 -57.05706,-25.54532 -57.05706,-57.05705z" fill-opacity="0.57255" fill="#ff0000"/><path d="M446.44145,267.07208c0,-13.68273 11.09204,-24.77477 24.77477,-24.77477c13.68273,0 24.77477,11.09204 24.77477,24.77477c0,13.68273 -11.09204,24.77477 -24.77477,24.77477c-13.68273,0 -24.77477,-11.09204 -24.77477,-24.77477z" fill-opacity="0.57255" fill="#ff0000"/><path d="M-20.03002,260.06007c0,-13.68273 11.09205,-24.77478 24.77478,-24.77478c13.68273,0 24.77477,11.09205 24.77477,24.77478c0,13.68273 -11.09204,24.77477 -24.77477,24.77477c-13.68273,0 -24.77477,-11.09204 -24.77477,-24.77477z" fill-opacity="0.57255" fill="#ff0000"/><path d="M70.06007,348.64865c0,-12.02422 9.74755,-21.77177 21.77177,-21.77177c12.02422,0 21.77177,9.74755 21.77177,21.77177c0,12.02422 -9.74755,21.77177 -21.77176,21.77177c-12.02422,0 -21.77177,-9.74755 -21.77177,-21.77177z" fill-opacity="0.57255" fill="#ff0000"/><path d="M-47.00299,392.44445l163.12913,-114.0961l-137.1021,128.60661z" fill-opacity="0.57255" fill="#c80000"/><path d="M218.95647,416.35204l16.51652,-110.97666v110.97665z" data-paper-data="{&quot;index&quot;:null}" fill-opacity="0.57255" fill="#c80000"/><path d="M144.65467,375.94595l15.01502,-42.04204l3.003,42.04204z" fill-opacity="0.57255" fill="#ff2929"/><path d="M380.36037,311.35135c0,-9.12183 7.39469,-16.51652 16.51652,-16.51652c9.12183,0 16.51651,7.39469 16.51651,16.51652c0,9.12183 -7.39469,16.51651 -16.51651,16.51651c-9.12183,0 -16.51652,-7.39468 -16.51652,-16.51651z" fill-opacity="0.57255" fill="#ff0000"/><path d="M31.00602,227.01201c0,-6.21943 5.04184,-11.26126 11.26126,-11.26126c6.21943,0 11.26125,5.04183 11.26125,11.26126c0,6.21943 -5.04183,11.26126 -11.26125,11.26126c-6.21943,0 -11.26126,-5.04183 -11.26126,-11.26126z" fill-opacity="0.57255" fill="#ff0000"/><path d="M296.68559,374.45294l-2.63619,-42.06664l20.49294,39.66136z" data-paper-data="{&quot;index&quot;:null}" fill-opacity="0.57255" fill="#ff2929"/><path d="M362.36638,118.17117l173.05356,-41.02403l-9.29054,22.52253z" fill-opacity="0.57255" fill="#c80000"/><path d="M436.93695,102.91292c0,-23.6338 19.15898,-42.79279 42.79279,-42.79279c23.6338,0 42.79279,19.15899 42.79279,42.7928c0,23.6338 -19.159,42.79279 -42.79279,42.79279c-23.6338,0 -42.79279,-19.159 -42.79279,-42.79279z" fill-opacity="0.57255" fill="#ff0000"/><path d="M368.85887,8.55856c0,-11.60959 9.41143,-21.02102 21.02102,-21.02102c11.60959,0 21.02102,9.41143 21.02102,21.02102c0,11.60959 -9.41143,21.02102 -21.02102,21.02102c-11.60959,0 -21.02102,-9.41144 -21.02102,-21.02102z" fill-opacity="0.57255" fill="#ff0000"/><path d="M300.36475,46.0568l31.62289,-130.72138l18.0694,8.92507z" fill-opacity="0.57255" fill="#ff3333"/><path d="M138.57025,84.21306l-182.17745,-143.16945l28.97059,-11.20353z" fill-opacity="0.57255" fill="#c80000"/><path d="M-9.50448,158.72373l42.04204,15.01502l-42.04204,3.003z" fill-opacity="0.57255" fill="#ff2929"/><path d="M474.68791,3.57831l-40.34544,19.11099l27.60477,-31.85165z" fill-opacity="0.57255" fill="#ff2929"/><path d="M169.15916,374.17418c0,-23.6338 19.15899,-42.7928 42.79279,-42.7928c23.6338,0 42.79279,19.15899 42.79279,42.7928c0,23.6338 -19.159,42.79279 -42.79279,42.79279c-23.6338,0 -42.79279,-19.159 -42.79279,-42.79279z" fill-opacity="0.57255" fill="#ff0000"/><path d="M405.3904,188.48349c0,-13.68273 11.09204,-24.77478 24.77477,-24.77478c13.68273,0 24.77477,11.09205 24.77477,24.77478c0,13.68273 -11.09205,24.77478 -24.77477,24.77478c-13.68273,0 -24.77477,-11.09205 -24.77477,-24.77478z" fill-opacity="0.57255" fill="#ff0000"/><path d="M204.68469,-1.71171c0,-17.82901 14.45326,-32.28228 32.28228,-32.28228c17.82901,0 32.28228,14.45327 32.28228,32.28229c0,17.82901 -14.45328,32.28229 -32.28228,32.28229c-17.82901,0 -32.28227,-14.45328 -32.28227,-32.28228z" fill-opacity="0.57255" fill="#ff0000"/><path d="M390.87088,212.25225c0,-4.97554 4.03347,-9.00901 9.00901,-9.00901c4.97554,0 9.00901,4.03346 9.00901,9.00901c0,4.97554 -4.03347,9.00901 -9.00901,9.00901c-4.97554,0 -9.00901,-4.03346 -9.00901,-9.00901z" fill-opacity="0.57255" fill="#ff0000"/><path d="M154.12913,51.33633c0,-4.56091 3.69735,-8.25826 8.25826,-8.25826c4.56091,0 8.25826,3.69734 8.25826,8.25826c0,4.56091 -3.69735,8.25826 -8.25826,8.25826c-4.56091,0 -8.25826,-3.69734 -8.25826,-8.25826z" fill-opacity="0.57255" fill="#ff0000"/></g></g></svg>