<svg version="1.1" xmlns="http://www.w3.org/2000/svg" xmlns:xlink="http://www.w3.org/1999/xlink" width="392.55795" height="184.82626" viewBox="0,0,392.55795,184.82626"><defs><radialGradient cx="107.89911" cy="278.18989" r="11.66304" gradientUnits="userSpaceOnUse" id="color-1"><stop offset="0" stop-color="#ffffff" stop-opacity="0"/><stop offset="1" stop-color="#ffffff"/></radialGradient><radialGradient cx="129.82313" cy="372.15062" r="11.663" gradientUnits="userSpaceOnUse" id="color-2"><stop offset="0" stop-color="#ffffff" stop-opacity="0"/><stop offset="1" stop-color="#ffffff"/></radialGradient><radialGradient cx="92.46984" cy="332.28211" r="53.60989" gradientUnits="userSpaceOnUse" id="color-3"><stop offset="0" stop-color="#ffd000"/><stop offset="1" stop-color="#ffd000" stop-opacity="0"/></radialGradient><radialGradient cx="91.57548" cy="331.45151" r="32.21901" gradientUnits="userSpaceOnUse" id="color-4"><stop offset="0" stop-color="#ffd000"/><stop offset="1" stop-color="#ffd000" stop-opacity="0"/></radialGradient><radialGradient cx="37.22139" cy="345.15774" r="11.663" gradientUnits="userSpaceOnUse" id="color-5"><stop offset="0" stop-color="#ffffff" stop-opacity="0"/><stop offset="1" stop-color="#ffffff"/></radialGradient><radialGradient cx="308.24879" cy="345.97659" r="56.67807" gradientUnits="userSpaceOnUse" id="color-6"><stop offset="0" stop-color="#ffe159" stop-opacity="0.55686"/><stop offset="1" stop-color="#ffe159" stop-opacity="0"/></radialGradient><radialGradient cx="307.42818" cy="344.31558" r="70.36386" gradientUnits="userSpaceOnUse" id="color-7"><stop offset="0" stop-color="#ffe159" stop-opacity="0.55686"/><stop offset="1" stop-color="#ffe159" stop-opacity="0"/></radialGradient><radialGradient cx="240.12709" cy="331.93755" r="11.31132" gradientUnits="userSpaceOnUse" id="color-8"><stop offset="0" stop-color="#ffd000"/><stop offset="1" stop-color="#ffd000" stop-opacity="0.50196"/></radialGradient><radialGradient cx="324.01445" cy="293.48787" r="16.7326" gradientUnits="userSpaceOnUse" id="color-9"><stop offset="0" stop-color="#ffd000"/><stop offset="1" stop-color="#ffd000" stop-opacity="0.50196"/></radialGradient><radialGradient cx="264.79314" cy="351.96752" r="12.9058" gradientUnits="userSpaceOnUse" id="color-10"><stop offset="0" stop-color="#ffd000"/><stop offset="1" stop-color="#ffd000" stop-opacity="0.50196"/></radialGradient><radialGradient cx="296.11368" cy="397.87442" r="12.90584" gradientUnits="userSpaceOnUse" id="color-11"><stop offset="0" stop-color="#ffd000"/><stop offset="1" stop-color="#ffd000" stop-opacity="0.50196"/></radialGradient><radialGradient cx="325.00874" cy="383.66303" r="6.11149" gradientUnits="userSpaceOnUse" id="color-12"><stop offset="0" stop-color="#ffd000"/><stop offset="1" stop-color="#ffd000" stop-opacity="0.50196"/></radialGradient><radialGradient cx="361.44872" cy="370.88624" r="7.16564" gradientUnits="userSpaceOnUse" id="color-13"><stop offset="0" stop-color="#ffd000"/><stop offset="1" stop-color="#ffd000" stop-opacity="0.50196"/></radialGradient><radialGradient cx="367.55567" cy="322.78747" r="7.16564" gradientUnits="userSpaceOnUse" id="color-14"><stop offset="0" stop-color="#ffd000"/><stop offset="1" stop-color="#ffd000" stop-opacity="0.50196"/></radialGradient><radialGradient cx="267.81166" cy="307.33646" r="4.93335" gradientUnits="userSpaceOnUse" id="color-15"><stop offset="0" stop-color="#ffd000"/><stop offset="1" stop-color="#ffd000" stop-opacity="0.50196"/></radialGradient><radialGradient cx="252.54247" cy="384.27673" r="4.93335" gradientUnits="userSpaceOnUse" id="color-16"><stop offset="0" stop-color="#ffd000"/><stop offset="1" stop-color="#ffd000" stop-opacity="0.50196"/></radialGradient><radialGradient cx="307.42818" cy="344.31558" r="31.23464" gradientUnits="userSpaceOnUse" id="color-17"><stop offset="0" stop-color="#ffeb91" stop-opacity="0.46667"/><stop offset="1" stop-color="#ffeb91" stop-opacity="0"/></radialGradient><radialGradient cx="296.69857" cy="398.43879" r="20.18836" gradientUnits="userSpaceOnUse" id="color-18"><stop offset="0" stop-color="#ffe159" stop-opacity="0.38824"/><stop offset="1" stop-color="#ffe159" stop-opacity="0"/></radialGradient><radialGradient cx="264.75059" cy="351.85064" r="20.18833" gradientUnits="userSpaceOnUse" id="color-19"><stop offset="0" stop-color="#ffe159" stop-opacity="0.38824"/><stop offset="1" stop-color="#ffe159" stop-opacity="0"/></radialGradient><radialGradient cx="239.16835" cy="332.2436" r="20.18834" gradientUnits="userSpaceOnUse" id="color-20"><stop offset="0" stop-color="#ffe159" stop-opacity="0.38824"/><stop offset="1" stop-color="#ffe159" stop-opacity="0"/></radialGradient><radialGradient cx="325.37424" cy="291.62297" r="29.18532" gradientUnits="userSpaceOnUse" id="color-21"><stop offset="0" stop-color="#ffe159" stop-opacity="0.38824"/><stop offset="1" stop-color="#ffe159" stop-opacity="0"/></radialGradient><radialGradient cx="367.47236" cy="322.75086" r="15.17079" gradientUnits="userSpaceOnUse" id="color-22"><stop offset="0" stop-color="#ffe159" stop-opacity="0.38824"/><stop offset="1" stop-color="#ffe159" stop-opacity="0"/></radialGradient><radialGradient cx="361.29628" cy="370.30996" r="15.17079" gradientUnits="userSpaceOnUse" id="color-23"><stop offset="0" stop-color="#ffe159" stop-opacity="0.38824"/><stop offset="1" stop-color="#ffe159" stop-opacity="0"/></radialGradient><radialGradient cx="324.78259" cy="383.58027" r="15.17079" gradientUnits="userSpaceOnUse" id="color-24"><stop offset="0" stop-color="#ffe159" stop-opacity="0.38824"/><stop offset="1" stop-color="#ffe159" stop-opacity="0"/></radialGradient><radialGradient cx="252.36319" cy="384.53888" r="9.80719" gradientUnits="userSpaceOnUse" id="color-25"><stop offset="0" stop-color="#ffe159" stop-opacity="0.38824"/><stop offset="1" stop-color="#ffe159" stop-opacity="0"/></radialGradient><radialGradient cx="268.05897" cy="307.37352" r="9.80722" gradientUnits="userSpaceOnUse" id="color-26"><stop offset="0" stop-color="#ffe159" stop-opacity="0.38824"/><stop offset="1" stop-color="#ffe159" stop-opacity="0"/></radialGradient><radialGradient cx="307.42824" cy="344.31561" r="42.40397" gradientUnits="userSpaceOnUse" id="color-27"><stop offset="0" stop-color="#ffd000"/><stop offset="1" stop-color="#ffd000" stop-opacity="0.50196"/></radialGradient><radialGradient cx="352.9562" cy="297.96117" r="64.15641" gradientUnits="userSpaceOnUse" id="color-28"><stop offset="0" stop-color="#ffd000" stop-opacity="0.50196"/><stop offset="1" stop-color="#ffd000" stop-opacity="0"/></radialGradient><linearGradient x1="323.92567" y1="262.01341" x2="378.5991" y2="332.07088" gradientUnits="userSpaceOnUse" id="color-29"><stop offset="0" stop-color="#ffdb3d"/><stop offset="1" stop-color="#a68700"/></linearGradient><linearGradient x1="322.24203" y1="250.06845" x2="337.01888" y2="269.00318" gradientUnits="userSpaceOnUse" id="color-30"><stop offset="0" stop-color="#ffd000"/><stop offset="1" stop-color="#b59400"/></linearGradient><linearGradient x1="354.65247" y1="300.48636" x2="358.10403" y2="304.90915" gradientUnits="userSpaceOnUse" id="color-31"><stop offset="0" stop-color="#ffffff" stop-opacity="0.42353"/><stop offset="1" stop-color="#ffffff" stop-opacity="0"/></linearGradient><linearGradient x1="339.85384" y1="285.22821" x2="343.86955" y2="290.37387" gradientUnits="userSpaceOnUse" id="color-32"><stop offset="0" stop-color="#ffffff" stop-opacity="0.56078"/><stop offset="1" stop-color="#ffffff" stop-opacity="0"/></linearGradient><linearGradient x1="331.38263" y1="272.66357" x2="333.97131" y2="275.98068" gradientUnits="userSpaceOnUse" id="color-33"><stop offset="0" stop-color="#ffffff" stop-opacity="0.56078"/><stop offset="1" stop-color="#ffffff" stop-opacity="0"/></linearGradient><linearGradient x1="366.63989" y1="313.56716" x2="369.22857" y2="316.88419" gradientUnits="userSpaceOnUse" id="color-34"><stop offset="0" stop-color="#ffffff" stop-opacity="0.42353"/><stop offset="1" stop-color="#ffffff" stop-opacity="0"/></linearGradient><linearGradient x1="371.08035" y1="295.32016" x2="375.6417" y2="301.16503" gradientUnits="userSpaceOnUse" id="color-35"><stop offset="0" stop-color="#ffffff" stop-opacity="0.6"/><stop offset="1" stop-color="#ffffff" stop-opacity="0"/></linearGradient><linearGradient x1="333.90589" y1="301.25861" x2="339.73469" y2="308.72749" gradientUnits="userSpaceOnUse" id="color-36"><stop offset="0" stop-color="#ffffff" stop-opacity="0.6"/><stop offset="1" stop-color="#ffffff" stop-opacity="0"/></linearGradient><linearGradient x1="336.40598" y1="259.72298" x2="338.99851" y2="263.04498" gradientUnits="userSpaceOnUse" id="color-37"><stop offset="0" stop-color="#ffffff" stop-opacity="0.6"/><stop offset="1" stop-color="#ffffff" stop-opacity="0"/></linearGradient><linearGradient x1="342.9403" y1="267.52599" x2="348.76481" y2="274.9894" gradientUnits="userSpaceOnUse" id="color-38"><stop offset="0" stop-color="#ffffff"/><stop offset="1" stop-color="#ffffff" stop-opacity="0.40392"/></linearGradient><linearGradient x1="324.10513" y1="239.97145" x2="334.02841" y2="252.68691" gradientUnits="userSpaceOnUse" id="color-39"><stop offset="0" stop-color="#ffffff"/><stop offset="1" stop-color="#ffffff" stop-opacity="0"/></linearGradient></defs><g transform="translate(-24.55753,-233.80186)"><g data-paper-data="{&quot;isPaintingLayer&quot;:true}" fill-rule="nonzero" stroke-linejoin="miter" stroke-miterlimit="10" stroke-dasharray="" stroke-dashoffset="0" style="mix-blend-mode: normal"><g stroke-linecap="butt"><path d="M91.77436,292.34153l4.59429,-15.19529l22.01763,6.65701l-4.59428,15.1953z" fill="#cca600" stroke="none" stroke-width="1"/><path d="M96.73522,274.8145c1.86417,-6.16562 8.37362,-9.65267 14.53928,-7.7885c6.16562,1.86417 9.6527,8.37363 7.78854,14.53927c-1.86417,6.16562 -8.37366,9.65267 -14.53931,7.7885c-6.16562,-1.86417 -9.65266,-8.37366 -7.78849,-14.53928z" data-paper-data="{&quot;index&quot;:null}" fill="url(#color-1)" stroke="#616161" stroke-width="3"/><path d="M138.7874,364.68957c4.12064,4.95083 3.44767,12.30471 -1.50316,16.42535c-4.95083,4.12064 -12.3047,3.44768 -16.42534,-1.50311c-4.12064,-4.95083 -3.44767,-12.30472 1.50312,-16.42537c4.95083,-4.12064 12.30473,-3.44767 16.42538,1.50313z" data-paper-data="{&quot;index&quot;:null}" fill="url(#color-2)" stroke="#616161" stroke-width="3"/><g><path d="M41.15419,316.76689c8.56883,-28.34089 38.49008,-44.36926 66.83091,-35.80045c28.34089,8.56883 44.36926,38.49009 35.80045,66.83092c-8.56884,28.34089 -38.49008,44.36926 -66.83091,35.80044c-28.3409,-8.56883 -44.36926,-38.49008 -35.80045,-66.83091z" fill="url(#color-3)" stroke="#ff0000" stroke-width="0"/><path d="M39.02544,343.66862l68.69842,-65.1894l21.543,92.47379z" data-paper-data="{&quot;index&quot;:null}" fill="none" stroke="#ffd000" stroke-width="3"/><path d="M56.2511,337.68552c4.58151,-15.15303 38.463,-42.21553 45.75654,-40.01033c7.29357,2.2052 20.50544,43.50627 15.92392,58.65934c-2.76088,9.13143 -65.00153,-7.66478 -61.68047,-18.64902z" data-paper-data="{&quot;index&quot;:null}" fill="url(#color-4)" stroke="none" stroke-width="1"/><path d="M36.49938,333.02519l15.06904,-4.9928l7.23449,21.83475l-15.06905,4.99284z" fill="#cca600" stroke="none" stroke-width="1"/><path d="M26.05753,341.78238c1.86416,-6.16562 8.37363,-9.65267 14.53928,-7.7885c6.16562,1.86417 9.65267,8.37363 7.78849,14.53928c-1.86416,6.16562 -8.37365,9.65266 -14.53928,7.7885c-6.16562,-1.86417 -9.65266,-8.37365 -7.78849,-14.53928z" data-paper-data="{&quot;index&quot;:null}" fill="url(#color-5)" stroke="#616161" stroke-width="3"/><path d="M126.88735,350.89849l10.15539,12.20134l-17.6795,14.71493l-10.15539,-12.20132z" fill="#cca600" stroke="none" stroke-width="1"/></g></g><g stroke-width="0" stroke-linecap="butt"><path d="M263.3439,380.55915c-19.09942,-24.80029 -14.47795,-60.38803 10.32236,-79.48744c24.80029,-19.09942 60.38801,-14.47795 79.48744,10.32234c19.09942,24.80029 14.47796,60.38803 -10.32233,79.48746c-24.80029,19.09942 -60.38803,14.47795 -79.48744,-10.32234z" fill="url(#color-6)" stroke="none"/><path d="M251.6803,387.24862c-23.71127,-30.7887 -17.97386,-74.96966 12.81484,-98.68093c30.78872,-23.71126 74.96964,-17.97386 98.68091,12.81484c23.71128,30.7887 17.97388,74.96965 -12.81482,98.68093c-30.7887,23.71128 -74.96965,17.97387 -98.68093,-12.81483z" fill="url(#color-7)" stroke="none"/><path d="M231.16535,338.83923c-3.81171,-4.94944 -2.88939,-12.05172 2.06003,-15.8634c4.94946,-3.81171 12.05176,-2.88938 15.86344,2.06002c3.81171,4.94944 2.8894,12.05176 -2.06006,15.86347c-4.94945,3.81173 -12.0517,2.88936 -15.86341,-2.06009z" fill="url(#color-8)" stroke="#000000"/><path d="M310.75753,303.69739c-5.63858,-7.32161 -4.27422,-17.82785 3.04738,-23.46642c7.32159,-5.63856 17.82788,-4.27423 23.46645,3.04736c5.63858,7.32161 4.27421,17.82792 -3.04737,23.46648c-7.32161,5.63858 -17.82787,4.27419 -23.46645,-3.04742z" fill="url(#color-9)" stroke="#000000"/><path d="M254.56813,359.84208c-4.34904,-5.64715 -3.29668,-13.75058 2.35044,-18.0996c5.64715,-4.34904 13.75061,-3.29668 18.09962,2.35044c4.34904,5.64715 3.2967,13.75059 -2.35044,18.09962c-5.64715,4.34904 -13.75059,3.29665 -18.0996,-2.35046z" fill="url(#color-10)" stroke="#000000"/><path d="M285.88866,405.74897c-4.34904,-5.64715 -3.29667,-13.75058 2.35045,-18.09958c5.64713,-4.34902 13.7506,-3.2967 18.09961,2.35042c4.34904,5.64715 3.29669,13.7506 -2.35044,18.09963c-5.64713,4.34902 -13.75061,3.29666 -18.09962,-2.35046z" fill="url(#color-11)" stroke="#000000"/><path d="M320.16672,387.392c-2.05948,-2.67419 -1.56112,-6.51152 1.11304,-8.57097c2.67419,-2.05948 6.51151,-1.56115 8.57099,1.11301c2.05948,2.67419 1.56114,6.51154 -1.11304,8.571c-2.67419,2.05948 -6.51153,1.56113 -8.57099,-1.11304z" fill="url(#color-12)" stroke="#000000"/><path d="M355.77152,375.25839c-2.41468,-3.13543 -1.83038,-7.63468 1.30503,-10.04935c3.13543,-2.41468 7.63469,-1.8304 10.04936,1.305c2.41468,3.13543 1.83044,7.63469 -1.305,10.04938c-3.13543,2.41468 -7.63469,1.83039 -10.04937,-1.30505z" fill="url(#color-13)" stroke="#000000"/><path d="M361.87845,327.15961c-2.41468,-3.13543 -1.8304,-7.6347 1.30502,-10.04937c3.13545,-2.4147 7.6347,-1.83041 10.04938,1.30502c2.41468,3.13543 1.83043,7.63469 -1.30501,10.04938c-3.13545,2.4147 -7.6347,1.83039 -10.04938,-1.30505z" fill="url(#color-14)" stroke="#000000"/><path d="M263.90307,310.34659c-1.66244,-2.15866 -1.26015,-5.25628 0.89849,-6.9187c2.15866,-1.66244 5.25628,-1.26018 6.9187,0.89846c1.66244,2.15866 1.26022,5.25626 -0.89848,6.91872c-2.15866,1.66244 -5.25628,1.26019 -6.91872,-0.89847z" fill="url(#color-15)" stroke="#000000"/><path d="M248.63383,387.28683c-1.66244,-2.15866 -1.26017,-5.25626 0.89849,-6.91869c2.15866,-1.66244 5.25629,-1.26018 6.91869,0.89846c1.66244,2.15866 1.26018,5.25629 -0.89847,6.91874c-2.15866,1.66244 -5.25626,1.26019 -6.91873,-0.8985z" fill="url(#color-16)" stroke="#000000"/><path d="M282.68158,363.3736c-10.52547,-13.66717 -7.9786,-33.27912 5.68851,-43.80455c13.66717,-10.52549 33.27916,-7.97865 43.8046,5.68847c10.52549,13.66717 7.97865,33.27916 -5.68851,43.80465c-13.66717,10.52549 -33.27911,7.9786 -43.8046,-5.68857z" fill="url(#color-17)" stroke="#000000"/><path d="M280.70375,410.75685c-6.80307,-8.83369 -5.15696,-21.50982 3.67674,-28.31289c8.83369,-6.80307 21.50982,-5.15695 28.31291,3.67676c6.80307,8.83369 5.15695,21.50982 -3.67674,28.31289c-8.83369,6.80307 -21.50982,5.15696 -28.31289,-3.67675z" fill="url(#color-18)" stroke="none"/><path d="M248.75572,364.16873c-6.80308,-8.83369 -5.15696,-21.50983 3.67676,-28.31293c8.83371,-6.80309 21.50982,-5.15696 28.31291,3.67677c6.80307,8.83369 5.157,21.50982 -3.67672,28.31292c-8.83371,6.80307 -21.50986,5.15697 -28.31294,-3.67676z" fill="url(#color-19)" stroke="none"/><path d="M223.1735,344.56171c-6.80308,-8.83369 -5.15695,-21.50981 3.67677,-28.3129c8.83371,-6.80309 21.50981,-5.15695 28.3129,3.67676c6.80307,8.83369 5.15699,21.50983 -3.67673,28.31293c-8.83371,6.80307 -21.50982,5.15695 -28.31293,-3.67676z" fill="url(#color-20)" stroke="none"/><path d="M302.25127,309.43062c-9.8349,-12.77047 -7.45516,-31.09572 5.31531,-40.93062c12.77046,-9.8349 31.09571,-7.45514 40.9306,5.31534c9.8349,12.77047 7.45517,31.09572 -5.31529,40.9306c-12.77046,9.8349 -31.09572,7.45516 -40.93062,-5.31531z" fill="url(#color-21)" stroke="none"/><path d="M355.45285,332.00747c-5.11227,-6.63822 -3.87525,-16.16383 2.76297,-21.2761c6.63822,-5.11228 16.16383,-3.87524 21.27609,2.76294c5.11227,6.63822 3.87527,16.16382 -2.76295,21.2761c-6.63822,5.11227 -16.16386,3.87527 -21.27612,-2.76292z" fill="url(#color-22)" stroke="none"/><path d="M349.27675,379.56654c-5.11226,-6.63819 -3.87525,-16.16387 2.76294,-21.27613c6.63822,-5.11227 16.16384,-3.87526 21.27611,2.76296c5.11226,6.63819 3.87527,16.16382 -2.76295,21.27609c-6.63822,5.11227 -16.16387,3.87528 -21.27613,-2.76293z" fill="url(#color-23)" stroke="none"/><path d="M312.76304,392.83685c-5.11226,-6.63819 -3.87525,-16.16386 2.76295,-21.27612c6.63822,-5.11227 16.16384,-3.87526 21.27612,2.76295c5.11226,6.63819 3.87527,16.16384 -2.76295,21.27611c-6.63819,5.11226 -16.16386,3.87527 -21.27612,-2.76292z" fill="url(#color-24)" stroke="none"/><path d="M244.5931,390.52285c-3.30484,-4.29129 -2.50519,-10.44917 1.78611,-13.75402c4.29129,-3.30484 10.44916,-2.50516 13.754,1.78614c3.30485,4.29129 2.5052,10.44916 -1.78609,13.754c-4.29129,3.30485 -10.44918,2.50518 -13.75402,-1.78611z" fill="url(#color-25)" stroke="none"/><path d="M260.28893,313.35748c-3.30484,-4.29129 -2.50517,-10.44918 1.78613,-13.75401c4.29129,-3.30484 10.44917,-2.50518 13.75402,1.78611c3.30485,4.29129 2.50518,10.44916 -1.78612,13.75402c-4.29129,3.30485 -10.44918,2.50518 -13.75402,-1.78611z" fill="url(#color-26)" stroke="none"/><path d="M273.83241,370.18868c-14.28934,-18.55449 -10.8317,-45.17957 7.7227,-59.46885c18.55447,-14.28934 45.17964,-10.83175 59.46893,7.72265c14.28934,18.55449 10.83176,45.17965 -7.72272,59.46896c-18.55447,14.28934 -45.17957,10.8317 -59.46891,-7.72277z" fill="url(#color-27)" stroke="#000000"/></g><path d="M302.37873,337.43223c-21.79928,-27.93319 -16.82674,-68.2493 11.10639,-90.04854c27.93319,-21.79929 68.2493,-16.82673 90.04854,11.1064c21.79928,27.93319 16.82674,68.2493 -11.1064,90.04855c-27.93319,21.79928 -68.24929,16.82672 -90.04853,-11.10641z" fill="url(#color-28)" stroke="#ff0000" stroke-width="0" stroke-linecap="butt"/><path d="M320.54751,321.01227c-15.09765,-19.34584 -4.00253,-53.23893 3.37816,-58.99887c8.48639,-6.62284 42.95392,-8.28724 58.05158,11.0586c15.09765,19.34584 10.00787,39.6568 -6.95548,52.89514c-16.96336,13.23834 -39.37659,14.39096 -54.47424,-4.95488z" fill="url(#color-29)" stroke="#000000" stroke-width="0" stroke-linecap="butt"/><path d="M324.36305,272.93746c0,0 -5.4106,0.26095 -6.39748,-1.3236c-0.92178,-1.48003 2.43101,-10.31923 2.43101,-10.31923l-6.84949,-5.72341c0,0 4.15599,-12.36425 7.41813,-13.95497c3.91906,-1.91104 26.46932,-0.3738 27.59337,3.34624c2.19715,7.27146 -13.71103,5.12586 -14.59143,12.67079c-0.22133,1.89685 -0.53024,4.54423 -0.53024,4.54423z" fill="url(#color-30)" stroke="#000000" stroke-width="0" stroke-linecap="butt"/><path d="M330.32014,326.30008c0,0 7.91615,-11.43748 24.47779,-25.41378c8.56615,-7.22893 27.78669,-21.60072 27.78669,-21.60072" fill="none" stroke="url(#color-31)" stroke-width="4" stroke-linecap="round"/><path d="M316.91827,311.40684c0,0 13.1942,-17.20284 21.28961,-24.58652c8.74351,-7.97484 29.37706,-21.62576 29.37706,-21.62576" fill="none" stroke="url(#color-32)" stroke-width="3.5" stroke-linecap="round"/><path d="M316.14407,289.3275c0,0 9.05626,-10.87156 14.56192,-15.52807c5.8193,-4.92175 19.46519,-13.25084 19.46519,-13.25084" fill="none" stroke="url(#color-33)" stroke-width="3" stroke-linecap="round"/><path d="M348.47541,333.036c0,0 10.68832,-12.7742 17.24575,-18.55582c6.61605,-5.83332 22.27622,-16.29042 22.27622,-16.29042" fill="none" stroke="url(#color-34)" stroke-width="3" stroke-linecap="round"/><path d="M368.28129,301.9876c-1.21401,-1.6467 0.07611,-4.65829 2.88158,-6.72662c2.80546,-2.06832 6.06391,-2.41013 7.27792,-0.76344c1.21401,1.6467 -0.07611,4.65829 -2.88158,6.72662c-2.80546,2.06832 -6.0639,2.41013 -7.27792,0.76344z" fill="url(#color-35)" stroke="none" stroke-width="0" stroke-linecap="butt"/><path d="M339.83365,308.64358c-3.43493,2.83537 -7.5686,3.49947 -9.23282,1.48333c-1.66423,-2.01614 -0.22881,-5.94908 3.2061,-8.78444c3.43493,-2.83537 7.5686,-3.49947 9.23283,-1.48334c1.66423,2.01614 0.22881,5.94909 -3.2061,8.78444z" data-paper-data="{&quot;index&quot;:null}" fill="url(#color-36)" stroke="none" stroke-width="0" stroke-linecap="butt"/><path d="M339.04184,263.01082c-2.37663,1.83151 -4.90303,2.58787 -5.64284,1.68936c-0.73983,-0.89849 0.58705,-3.11157 2.96367,-4.94307c2.37663,-1.83151 4.90302,-2.58786 5.64284,-1.68937c0.73983,0.89849 -0.58702,3.11157 -2.96367,4.94307z" data-paper-data="{&quot;index&quot;:null}" fill="url(#color-37)" stroke="none" stroke-width="0" stroke-linecap="butt"/><path d="M352.62491,265.97247c1.60839,2.06097 -0.11983,6.09799 -3.86012,9.01693c-3.74028,2.91894 -8.07623,3.61446 -9.68462,1.55349c-1.60839,-2.06097 0.11984,-6.09796 3.86011,-9.01691c3.74028,-2.91894 8.07624,-3.61447 9.68462,-1.55351z" fill="url(#color-38)" stroke-opacity="0.56078" stroke="#ffffff" stroke-width="0" stroke-linecap="butt"/><path d="M345.22354,243.95015c0,0 -6.2494,0.42934 -14.17137,3.49827c-7.58414,2.93808 -14.25916,6.23542 -14.25916,6.23542l6.16584,-11.50764z" fill="url(#color-39)" stroke="none" stroke-width="0" stroke-linecap="butt"/></g></g></svg>