<svg version="1.1" xmlns="http://www.w3.org/2000/svg" xmlns:xlink="http://www.w3.org/1999/xlink" width="139.38888" height="449.92039" viewBox="0,0,139.38888,449.92039"><defs><radialGradient cx="240.00004" cy="153.84145" r="69.69444" gradientUnits="userSpaceOnUse" id="color-1"><stop offset="0" stop-color="#000000" stop-opacity="0.30196"/><stop offset="1" stop-color="#000000" stop-opacity="0"/></radialGradient><radialGradient cx="240.00004" cy="248.4499" r="69.69444" gradientUnits="userSpaceOnUse" id="color-2"><stop offset="0" stop-color="#000000" stop-opacity="0.30196"/><stop offset="1" stop-color="#000000" stop-opacity="0"/></radialGradient><radialGradient cx="240.00004" cy="333.88541" r="69.69444" gradientUnits="userSpaceOnUse" id="color-3"><stop offset="0" stop-color="#000000" stop-opacity="0.30196"/><stop offset="1" stop-color="#000000" stop-opacity="0"/></radialGradient><radialGradient cx="240.00004" cy="64.76431" r="69.69444" gradientUnits="userSpaceOnUse" id="color-4"><stop offset="0" stop-color="#000000" stop-opacity="0.30196"/><stop offset="1" stop-color="#000000" stop-opacity="0"/></radialGradient><radialGradient cx="240.00004" cy="112.43104" r="69.69444" gradientUnits="userSpaceOnUse" id="color-5"><stop offset="0" stop-color="#000000" stop-opacity="0.30196"/><stop offset="1" stop-color="#000000" stop-opacity="0"/></radialGradient><radialGradient cx="240.00004" cy="207.03949" r="69.69444" gradientUnits="userSpaceOnUse" id="color-6"><stop offset="0" stop-color="#000000" stop-opacity="0.30196"/><stop offset="1" stop-color="#000000" stop-opacity="0"/></radialGradient><radialGradient cx="240.00004" cy="292.475" r="69.69444" gradientUnits="userSpaceOnUse" id="color-7"><stop offset="0" stop-color="#000000" stop-opacity="0.30196"/><stop offset="1" stop-color="#000000" stop-opacity="0"/></radialGradient><radialGradient cx="240.00004" cy="23.3539" r="69.69444" gradientUnits="userSpaceOnUse" id="color-8"><stop offset="0" stop-color="#000000" stop-opacity="0.30196"/><stop offset="1" stop-color="#000000" stop-opacity="0"/></radialGradient><linearGradient x1="199.87692" y1="180.00001" x2="280.12316" y2="180.00001" gradientUnits="userSpaceOnUse" id="color-9"><stop offset="0" stop-color="#bbbab2"/><stop offset="1" stop-color="#f4f3e8"/></linearGradient></defs><g transform="translate(-170.30561,46.34053)"><g data-paper-data="{&quot;isPaintingLayer&quot;:true}" fill-rule="nonzero" stroke-linejoin="miter" stroke-miterlimit="10" stroke-dasharray="" stroke-dashoffset="0" style="mix-blend-mode: normal"><g stroke="none" stroke-width="0" stroke-linecap="butt"><path d="M240.00004,223.53588c-38.49117,0 -69.69443,-31.20326 -69.69443,-69.69443c0,-38.49117 31.20326,-69.69443 69.69444,-69.69443c38.49118,0 69.69444,31.20326 69.69444,69.69444c0,38.49118 -31.20326,69.69444 -69.69443,69.69444z" fill="url(#color-1)"/><path d="M240.00004,318.14432c-38.49117,0 -69.69443,-31.20325 -69.69443,-69.69443c0,-38.49117 31.20326,-69.69443 69.69444,-69.69443c38.49118,0 69.69444,31.20326 69.69444,69.69444c0,38.49118 -31.20326,69.69443 -69.69443,69.69443z" fill="url(#color-2)"/><path d="M240.00004,403.57985c-38.49117,0 -69.69443,-31.20326 -69.69443,-69.69443c0,-38.49117 31.20326,-69.69444 69.69444,-69.69444c38.49118,0 69.69444,31.20326 69.69444,69.69444c0,38.49118 -31.20326,69.69444 -69.69443,69.69444z" fill="url(#color-3)"/><path d="M240.00004,134.45874c-38.49117,0 -69.69443,-31.20326 -69.69443,-69.69443c0,-38.49117 31.20326,-69.69443 69.69444,-69.69443c38.49118,0 69.69444,31.20326 69.69444,69.69444c0,38.49118 -31.20326,69.69444 -69.69443,69.69444z" fill="url(#color-4)"/></g><g stroke="none" stroke-width="0" stroke-linecap="butt"><path d="M240.00004,182.12547c-38.49117,0 -69.69443,-31.20326 -69.69443,-69.69443c0,-38.49117 31.20326,-69.69443 69.69444,-69.69443c38.49118,0 69.69444,31.20326 69.69444,69.69444c0,38.49118 -31.20326,69.69444 -69.69443,69.69444z" fill="url(#color-5)"/><path d="M240.00004,276.73391c-38.49117,0 -69.69443,-31.20325 -69.69443,-69.69443c0,-38.49117 31.20326,-69.69443 69.69444,-69.69443c38.49118,0 69.69444,31.20326 69.69444,69.69444c0,38.49118 -31.20326,69.69443 -69.69443,69.69443z" fill="url(#color-6)"/><path d="M240.00004,362.16944c-38.49117,0 -69.69443,-31.20326 -69.69443,-69.69443c0,-38.49117 31.20326,-69.69444 69.69444,-69.69444c38.49118,0 69.69444,31.20326 69.69444,69.69444c0,38.49118 -31.20326,69.69444 -69.69443,69.69444z" fill="url(#color-7)"/><path d="M240.00004,93.04833c-38.49117,0 -69.69443,-31.20326 -69.69443,-69.69443c0,-38.49117 31.20326,-69.69443 69.69444,-69.69443c38.49118,0 69.69444,31.20326 69.69444,69.69444c0,38.49118 -31.20326,69.69444 -69.69443,69.69444z" fill="url(#color-8)"/></g><path d="M199.87692,360.00001l1.09047,-67.91186l-4.2913,-61.01096l6.34719,-15.99087l-5.49329,-49.95961l7.34693,-80.0642l-5,-85.06249l7.74347,3.85871l6.66439,-4.70537l25.29954,-1.48668l40.53884,2.33333l0.51027,14.14715l-3.72637,9.91795l5.00542,39.99594l-3.87365,60.00092l4.21278,26.00209l-3.42303,60.95549l-3.61516,37.08579l10.90974,43.95718l-6,67.9375l-38.87217,-2.00001l-21.28087,2.50705z" fill="url(#color-9)" stroke="#000000" stroke-width="0" stroke-linecap="butt"/><g><path d="" fill="none" stroke="#eae9df" stroke-width="2.5" stroke-linecap="round"/><path d="" fill="none" stroke="#bdbcb3" stroke-width="2.5" stroke-linecap="round"/><path d="M252.50006,61.50001l-38.5,38.5" fill="none" stroke-opacity="0.32549" stroke="#ffffff" stroke-width="2.5" stroke-linecap="round"/><path d="M249.00006,271.00001l-34,-34" fill="none" stroke-opacity="0.0902" stroke="#000000" stroke-width="2.5" stroke-linecap="round"/><path d="" fill="none" stroke="#bdbcb3" stroke-width="2.5" stroke-linecap="round"/><path d="" fill="none" stroke="#c4c3ba" stroke-width="2.5" stroke-linecap="round"/><path d="" fill="none" stroke="#c4c3ba" stroke-width="2.5" stroke-linecap="round"/><path d="" fill="none" stroke="#dad9cf" stroke-width="2.5" stroke-linecap="round"/><path d="M258.00005,39.00001l-25.5,-25.5" fill="none" stroke-opacity="0.0902" stroke="#000000" stroke-width="2.5" stroke-linecap="round"/><path d="" data-paper-data="{&quot;index&quot;:null}" fill="none" stroke="#e9e9dd" stroke-width="2.5" stroke-linecap="round"/><path d="" fill="none" stroke="#bdbcb3" stroke-width="2.5" stroke-linecap="round"/><path d="" fill="none" stroke="#9b9a93" stroke-width="2.5" stroke-linecap="round"/><path d="M246.50006,217.50001l19,-19" fill="none" stroke-opacity="0.4549" stroke="#ffffff" stroke-width="2.5" stroke-linecap="round"/><path d="" fill="none" stroke="#bdbcb3" stroke-width="2.5" stroke-linecap="round"/><path d="" fill="none" stroke="#bdbcb3" stroke-width="2.5" stroke-linecap="round"/><g stroke="none" stroke-width="0" stroke-linecap="butt"><path d="" fill-opacity="0.12157" fill="#000000"/><path d="" fill-opacity="0.12157" fill="#000000"/><path d="" fill-opacity="0.12157" fill="#000000"/><path d="" fill-opacity="0.12157" fill="#000000"/><path d="M221.66672,173.25001c0,-2.8995 2.3505,-5.25 5.25,-5.25c2.8995,0 5.25,2.3505 5.25,5.25c0,2.8995 -2.3505,5.25 -5.25,5.25c-2.8995,0 -5.25,-2.3505 -5.25,-5.25z" fill-opacity="0.12157" fill="#000000"/><path d="" fill-opacity="0.12157" fill="#000000"/><path d="M210.66672,274.50001c0,-4.41828 3.58172,-8 8,-8c4.41828,0 8,3.58172 8,8c0,4.41828 -3.58172,8 -8,8c-4.41828,0 -8,-3.58172 -8,-8z" fill-opacity="0.12157" fill="#000000"/><path d="" fill-opacity="0.12157" fill="#000000"/><path d="" fill-opacity="0.12157" fill="#000000"/><path d="M221.66672,118.50001c0,-9.66499 7.83501,-17.5 17.5,-17.5c9.66498,0 17.5,7.83501 17.5,17.5c0,9.66499 -7.83501,17.5 -17.5,17.5c-9.66499,0 -17.5,-7.83501 -17.5,-17.5z" fill-opacity="0.08235" fill="#000000"/><path d="" fill-opacity="0.12157" fill="#000000"/><path d="M253.66672,90.00001c0,-3.31371 2.68629,-6 6,-6c3.31371,0 6,2.68629 6,6c0,3.31371 -2.68629,6 -6,6c-3.31371,0 -6,-2.68629 -6,-6z" fill-opacity="0.12157" fill="#000000"/><path d="M249.66672,344.50001c0,-2.48528 2.01472,-4.5 4.5,-4.5c2.48528,0 4.5,2.01472 4.5,4.5c0,2.48528 -2.01472,4.5 -4.5,4.5c-2.48528,0 -4.5,-2.01472 -4.5,-4.5z" fill-opacity="0.12157" fill="#000000"/></g><g data-paper-data="{&quot;index&quot;:null}" stroke="none" stroke-width="0" stroke-linecap="butt"><path d="" fill-opacity="0.23529" fill="#ffffff"/><path d="" fill-opacity="0.23529" fill="#ffffff"/><path d="" fill-opacity="0.23529" fill="#ffffff"/><path d="" fill-opacity="0.23529" fill="#ffffff"/><path d="" fill-opacity="0.23529" fill="#ffffff"/><path d="" fill-opacity="0.23529" fill="#ffffff"/><path d="" fill-opacity="0.23529" fill="#ffffff"/><path d="M229.66672,195.50001c4.41828,0 8,3.58172 8,8c0,4.41828 -3.58172,8 -8,8c-4.41828,0 -8,-3.58172 -8,-8c0,-4.41828 3.58172,-8 8,-8z" fill-opacity="0.23529" fill="#ffffff"/><path d="M232.16672,300.00001c9.66499,0 17.5,7.83501 17.5,17.5c0,9.66499 -7.83502,17.5 -17.5,17.5c-9.66499,0 -17.5,-7.83501 -17.5,-17.5c0,-9.66499 7.83501,-17.5 17.5,-17.5z" fill-opacity="0.23529" fill="#ffffff"/><path d="" fill-opacity="0.23529" fill="#ffffff"/><path d="M224.49793,27.0555c3.31371,0 6,2.68629 6,6c0,3.31371 -2.68629,6 -6,6c-3.31371,0 -6,-2.68629 -6,-6c0,-3.31371 2.68629,-6 6,-6z" fill-opacity="0.23529" fill="#ffffff"/><path d="M249.16672,144c2.48528,0 4.5,2.01472 4.5,4.5c0,2.48528 -2.01472,4.5 -4.5,4.5c-2.48528,0 -4.5,-2.01472 -4.5,-4.5c0,-2.48528 2.01472,-4.5 4.5,-4.5z" fill-opacity="0.30588" fill="#ffffff"/></g></g><g data-paper-data="{&quot;index&quot;:null}" stroke="none" stroke-width="0" stroke-linecap="butt"><path d="M217.17802,344.61117c-1.80872,0 -3.27497,-1.46624 -3.27497,-3.27496c0,-1.80871 1.46625,-3.27496 3.27497,-3.27496c1.80871,0 3.27496,1.46624 3.27496,3.27496c0,1.80871 -1.46624,3.27496 -3.27496,3.27496z" data-paper-data="{&quot;index&quot;:null}" fill-opacity="0.23529" fill="#ffffff"/><path d="M246.85548,262.48053c-1.80872,0 -3.27497,-1.46624 -3.27497,-3.27496c0,-1.80871 1.46625,-3.27496 3.27497,-3.27496c1.80871,0 3.27496,1.46624 3.27496,3.27496c0,1.80871 -1.46624,3.27496 -3.27496,3.27496z" data-paper-data="{&quot;index&quot;:null}" fill-opacity="0.23529" fill="#ffffff"/><path d="M270.0674,230.57914c-1.80872,0 -3.27497,-1.46625 -3.27497,-3.27497c0,-1.80872 1.46625,-3.27497 3.27497,-3.27497c1.80872,0 3.27497,1.46625 3.27497,3.27497c0,1.80872 -1.46625,3.27497 -3.27497,3.27497z" data-paper-data="{&quot;index&quot;:null}" fill-opacity="0.23529" fill="#ffffff"/><path d="M261.49216,109.7091c-1.80872,0 -3.27497,-1.46625 -3.27497,-3.27497c0,-1.80872 1.46625,-3.27497 3.27497,-3.27497c1.80872,0 3.27497,1.46625 3.27497,3.27497c0,1.80872 -1.46625,3.27497 -3.27497,3.27497z" data-paper-data="{&quot;index&quot;:null}" fill-opacity="0.23529" fill="#ffffff"/><path d="M216.57424,71.73304c-1.80872,0 -3.27497,-1.46625 -3.27497,-3.27497c0,-1.80872 1.46625,-3.27497 3.27497,-3.27497c1.80872,0 3.27497,1.46625 3.27497,3.27497c0,1.80872 -1.46625,3.27497 -3.27497,3.27497z" data-paper-data="{&quot;index&quot;:null}" fill-opacity="0.23529" fill="#ffffff"/><path d="M272.10912,14.56477c-1.80872,0 -3.27497,-1.46625 -3.27497,-3.27497c0,-1.80872 1.46625,-3.27497 3.27497,-3.27497c1.80872,0 3.27497,1.46625 3.27497,3.27497c0,1.80872 -1.46625,3.27497 -3.27497,3.27497z" data-paper-data="{&quot;index&quot;:null}" fill-opacity="0.08235" fill="#000000"/><path d="M253.75366,55.7788c-1.69596,0 -3.07079,-1.37484 -3.07079,-3.0708c0,-1.69595 1.37484,-3.07079 3.07079,-3.07079c1.69596,0 3.0708,1.37483 3.0708,3.07079c0,1.69596 -1.37485,3.0708 -3.0708,3.0708z" data-paper-data="{&quot;index&quot;:null}" fill-opacity="0.08235" fill="#000000"/><path d="M274.45887,184.15106c-1.69596,0 -3.07079,-1.37484 -3.07079,-3.0708c0,-1.69595 1.37484,-3.07079 3.07079,-3.07079c1.69596,0 3.0708,1.37483 3.0708,3.07079c0,1.69596 -1.37485,3.0708 -3.0708,3.0708z" data-paper-data="{&quot;index&quot;:null}" fill-opacity="0.08235" fill="#000000"/><path d="M212.28662,155.85205c-1.69596,0 -3.0708,-1.37484 -3.0708,-3.0708c0,-1.69595 1.37485,-3.07079 3.0708,-3.07079c1.69596,0 3.07079,1.37483 3.07079,3.07079c0,1.69596 -1.37484,3.0708 -3.07079,3.0708z" data-paper-data="{&quot;index&quot;:null}" fill-opacity="0.08235" fill="#000000"/><path d="M273.94667,301.63111c-1.69596,0 -3.0708,-1.37484 -3.0708,-3.07079c0,-1.69596 1.37485,-3.0708 3.0708,-3.0708c1.69596,0 3.07079,1.37485 3.07079,3.0708c0,1.69595 -1.37484,3.07079 -3.07079,3.07079z" data-paper-data="{&quot;index&quot;:null}" fill-opacity="0.08235" fill="#000000"/></g></g></g></svg>