<svg version="1.1" xmlns="http://www.w3.org/2000/svg" xmlns:xlink="http://www.w3.org/1999/xlink" width="71.45251" height="71.45252" viewBox="0,0,71.45251,71.45252"><defs><radialGradient cx="239.85999" cy="180.14128" r="35.72626" gradientUnits="userSpaceOnUse" id="color-1"><stop offset="0" stop-color="#000000"/><stop offset="1" stop-color="#000000" stop-opacity="0"/></radialGradient><linearGradient x1="218.39643" y1="179.99853" x2="263.83376" y2="179.99853" gradientUnits="userSpaceOnUse" id="color-2"><stop offset="0" stop-color="#ff0000"/><stop offset="1" stop-color="#ff8f8f"/></linearGradient><linearGradient x1="244.49732" y1="170.99389" x2="257.47813" y2="170.99389" gradientUnits="userSpaceOnUse" id="color-3"><stop offset="0" stop-color="#482828"/><stop offset="1" stop-color="#000000"/></linearGradient><linearGradient x1="244.49732" y1="188.14952" x2="257.47813" y2="188.14952" gradientUnits="userSpaceOnUse" id="color-4"><stop offset="0" stop-color="#482828"/><stop offset="1" stop-color="#000000"/></linearGradient><linearGradient x1="214.62752" y1="180" x2="267.60192" y2="180" gradientUnits="userSpaceOnUse" id="color-5"><stop offset="0" stop-color="#ff5454"/><stop offset="1" stop-color="#ff5454" stop-opacity="0"/></linearGradient></defs><g transform="translate(-204.13373,-144.41502)"><g data-paper-data="{&quot;isPaintingLayer&quot;:true}" fill-rule="nonzero" stroke-linecap="butt" stroke-linejoin="miter" stroke-miterlimit="10" stroke-dasharray="" stroke-dashoffset="0" style="mix-blend-mode: normal"><path d="M239.86,215.86754c-19.73107,0 -35.72626,-15.99519 -35.72626,-35.72626c0,-19.73107 15.99519,-35.72626 35.72626,-35.72626c19.73107,0 35.72625,15.99519 35.72625,35.72626c0,19.73107 -15.99518,35.72626 -35.72625,35.72626z" fill="url(#color-1)" stroke="none" stroke-width="0.5"/><path d="M241.1151,202.71721c-8.43313,0.14447 -22.5742,-5.00941 -22.71867,-22.71868c-0.10236,-12.54676 10.1715,-22.71867 22.71867,-22.71867c12.54717,0 22.71867,10.1715 22.71867,22.71867c0,12.54717 -10.1715,22.71867 -22.71867,22.71867z" fill="url(#color-2)" stroke="none" stroke-width="0.5"/><path d="M236.6943,169.90855h13.1231v3.35058h-10.32351z" data-paper-data="{&quot;index&quot;:null}" fill="#ffffff" stroke="none" stroke-width="0"/><path d="M260.55664,173.22907h-13.12311v-3.35058h10.32351z" fill="#ffffff" stroke="none" stroke-width="0"/><path d="M263.69375,173.22907h-2.09411l-2.93176,-3.49019h2.23372z" fill="#ffffff" stroke="none" stroke-width="0"/><path d="M238.68159,173.35841h-2.09411l-2.93176,-3.49019h2.23372z" fill="#ffffff" stroke="none" stroke-width="0"/><path d="M234.70322,173.37152h-0.61137l-2.93176,-3.49019h0.68037z" fill="#ffffff" stroke="none" stroke-width="0"/><path d="M254.11884,199.692l-4.09707,-3.40746v-35.8595l4.09707,3.56972z" fill="#ffffff" stroke="none" stroke-width="0"/><path d="M250.98773,167.00858c0.1417,0 1.30939,3.95836 1.34464,3.96154c0.11978,0.0108 1.16465,-3.65381 1.29441,-3.61831c2.26936,0.62092 3.85136,2.01806 3.85136,3.6421c0,2.20103 -2.90586,3.98532 -6.49041,3.98532c-0.09211,0 -4.99253,-6.53987 -4.77126,-6.68713c1.1859,-0.78922 2.88457,-1.28352 4.77126,-1.28352z" fill="url(#color-3)" stroke="none" stroke-width="0"/><path d="M250.98773,184.16421c3.58455,0 6.49041,1.78429 6.49041,3.98531c0,1.72366 -1.78206,3.19173 -4.27656,3.74747c-0.29902,0.06662 -0.91332,-4.11962 -1.05692,-4.10792c-0.07413,0.00604 -1.101,4.34579 -1.15693,4.34579c-1.82131,0 -3.46741,-0.46064 -4.64614,-1.20255c-0.06503,-0.04093 4.55126,-6.76809 4.64614,-6.76809z" fill="url(#color-4)" stroke="none" stroke-width="0"/><path d="M250.00154,159.5676c0,-0.78397 0,-1.41423 0,-1.41423l4.09707,3.56972c0,0 0,0.59244 0,1.33684c0,0.01385 -4.09707,-3.48825 -4.09707,-3.49233z" fill="#ffffff" stroke="none" stroke-width="0"/><path d="M248.86661,198.33089c0,-0.78397 0,-1.41424 0,-1.41424l4.09707,3.56972c0,0 0,0.59245 0,1.33684c0,0.01385 -4.09707,-3.48825 -4.09707,-3.49233z" fill="#ffffff" stroke="none" stroke-width="0"/><path d="M214.62752,180c0,-14.62848 11.85872,-26.4872 26.4872,-26.4872c14.62848,0 26.4872,11.85872 26.4872,26.4872c0,14.62848 -11.85872,26.4872 -26.4872,26.4872c-14.62848,0 -26.4872,-11.85872 -26.4872,-26.4872z" fill="none" stroke="url(#color-5)" stroke-width="2"/></g></g></svg>