<svg version="1.1" xmlns="http://www.w3.org/2000/svg" xmlns:xlink="http://www.w3.org/1999/xlink" width="291.45156" height="286.53812" viewBox="0,0,291.45156,286.53812"><defs><linearGradient x1="16.86475" y1="248.20166" x2="131.49662" y2="248.20166" gradientUnits="userSpaceOnUse" id="color-1"><stop offset="0" stop-color="#3633ff" stop-opacity="0.70196"/><stop offset="1" stop-color="#635fff" stop-opacity="0.51373"/></linearGradient><linearGradient x1="13.15664" y1="177.19058" x2="291.11816" y2="177.19058" gradientUnits="userSpaceOnUse" id="color-2"><stop offset="0" stop-color="#3633ff" stop-opacity="0.70196"/><stop offset="1" stop-color="#a7a6ff" stop-opacity="0.22745"/></linearGradient><linearGradient x1="75.36609" y1="213.68574" x2="76.0094" y2="276.53245" gradientUnits="userSpaceOnUse" id="color-3"><stop offset="0" stop-color="#7a77ff"/><stop offset="1" stop-color="#322eff"/></linearGradient><linearGradient x1="76.21778" y1="213.67516" x2="76.79279" y2="269.85638" gradientUnits="userSpaceOnUse" id="color-4"><stop offset="0" stop-color="#000000"/><stop offset="1" stop-color="#ff0000"/></linearGradient><linearGradient x1="45.60925" y1="246.74215" x2="49.94509" y2="262.95492" gradientUnits="userSpaceOnUse" id="color-5"><stop offset="0" stop-color="#ffffff"/><stop offset="1" stop-color="#322eff"/></linearGradient><linearGradient x1="62.79225" y1="245.97485" x2="63.1069" y2="276.72496" gradientUnits="userSpaceOnUse" id="color-6"><stop offset="0" stop-color="#ffffff" stop-opacity="0"/><stop offset="1" stop-color="#ffffff"/></linearGradient><linearGradient x1="82.17028" y1="240.62857" x2="82.4946" y2="272.31872" gradientUnits="userSpaceOnUse" id="color-7"><stop offset="0" stop-color="#000000" stop-opacity="0"/><stop offset="1" stop-color="#000000"/></linearGradient><linearGradient x1="97.49263" y1="248.47554" x2="97.72384" y2="271.06804" gradientUnits="userSpaceOnUse" id="color-8"><stop offset="0" stop-color="#ffffff" stop-opacity="0"/><stop offset="1" stop-color="#ffffff"/></linearGradient><linearGradient x1="40.73611" y1="240.58194" x2="69.50199" y2="240.22462" gradientUnits="userSpaceOnUse" id="color-9"><stop offset="0" stop-color="#ffffff"/><stop offset="1" stop-color="#ffffff" stop-opacity="0"/></linearGradient><linearGradient x1="51.38243" y1="231.72487" x2="72.71594" y2="231.45983" gradientUnits="userSpaceOnUse" id="color-10"><stop offset="0" stop-color="#000000"/><stop offset="1" stop-color="#000000" stop-opacity="0"/></linearGradient><linearGradient x1="60.11466" y1="224.14555" x2="76.7685" y2="223.93861" gradientUnits="userSpaceOnUse" id="color-11"><stop offset="0" stop-color="#ffffff"/><stop offset="1" stop-color="#ffffff" stop-opacity="0"/></linearGradient><linearGradient x1="90.7203" y1="271.44922" x2="139.88607" y2="271.44922" gradientUnits="userSpaceOnUse" id="color-12"><stop offset="0" stop-color="#3633ff" stop-opacity="0.51765"/><stop offset="1" stop-color="#635fff" stop-opacity="0.51373"/></linearGradient><linearGradient x1="100.71553" y1="109.15025" x2="243.55236" y2="109.15025" gradientUnits="userSpaceOnUse" id="color-13"><stop offset="0" stop-color="#6260ff" stop-opacity="0.52157"/><stop offset="1" stop-color="#8d8dff" stop-opacity="0.33333"/></linearGradient><linearGradient x1="235.54414" y1="149.65575" x2="275.15692" y2="149.65575" gradientUnits="userSpaceOnUse" id="color-14"><stop offset="0" stop-color="#908dff" stop-opacity="0.32549"/><stop offset="1" stop-color="#a1a1ff" stop-opacity="0.2549"/></linearGradient><linearGradient x1="16.86476" y1="248.20166" x2="131.49662" y2="248.20166" gradientUnits="userSpaceOnUse" id="color-15"><stop offset="0" stop-color="#3633ff" stop-opacity="0.70196"/><stop offset="1" stop-color="#635fff" stop-opacity="0.51373"/></linearGradient><linearGradient x1="13.15665" y1="177.19058" x2="291.11817" y2="177.19058" gradientUnits="userSpaceOnUse" id="color-16"><stop offset="0" stop-color="#3633ff" stop-opacity="0.70196"/><stop offset="1" stop-color="#a7a6ff" stop-opacity="0.22745"/></linearGradient><linearGradient x1="75.3661" y1="213.68574" x2="76.00941" y2="276.53245" gradientUnits="userSpaceOnUse" id="color-17"><stop offset="0" stop-color="#7a77ff"/><stop offset="1" stop-color="#322eff"/></linearGradient><linearGradient x1="76.21779" y1="213.67516" x2="76.7928" y2="269.85638" gradientUnits="userSpaceOnUse" id="color-18"><stop offset="0" stop-color="#000000"/><stop offset="1" stop-color="#ff0000"/></linearGradient><linearGradient x1="45.60926" y1="246.74215" x2="49.9451" y2="262.95492" gradientUnits="userSpaceOnUse" id="color-19"><stop offset="0" stop-color="#ffffff"/><stop offset="1" stop-color="#322eff"/></linearGradient><linearGradient x1="62.79226" y1="245.97485" x2="63.10691" y2="276.72496" gradientUnits="userSpaceOnUse" id="color-20"><stop offset="0" stop-color="#ffffff" stop-opacity="0"/><stop offset="1" stop-color="#ffffff"/></linearGradient><linearGradient x1="82.17029" y1="240.62857" x2="82.49461" y2="272.31872" gradientUnits="userSpaceOnUse" id="color-21"><stop offset="0" stop-color="#000000" stop-opacity="0"/><stop offset="1" stop-color="#000000"/></linearGradient><linearGradient x1="97.49264" y1="248.47554" x2="97.72385" y2="271.06804" gradientUnits="userSpaceOnUse" id="color-22"><stop offset="0" stop-color="#ffffff" stop-opacity="0"/><stop offset="1" stop-color="#ffffff"/></linearGradient><linearGradient x1="40.73611" y1="240.58194" x2="69.502" y2="240.22462" gradientUnits="userSpaceOnUse" id="color-23"><stop offset="0" stop-color="#ffffff"/><stop offset="1" stop-color="#ffffff" stop-opacity="0"/></linearGradient><linearGradient x1="51.38244" y1="231.72487" x2="72.71595" y2="231.45983" gradientUnits="userSpaceOnUse" id="color-24"><stop offset="0" stop-color="#000000"/><stop offset="1" stop-color="#000000" stop-opacity="0"/></linearGradient><linearGradient x1="60.11467" y1="224.14555" x2="76.76851" y2="223.93861" gradientUnits="userSpaceOnUse" id="color-25"><stop offset="0" stop-color="#ffffff"/><stop offset="1" stop-color="#ffffff" stop-opacity="0"/></linearGradient><linearGradient x1="90.72031" y1="271.44922" x2="139.88608" y2="271.44922" gradientUnits="userSpaceOnUse" id="color-26"><stop offset="0" stop-color="#3633ff" stop-opacity="0.51765"/><stop offset="1" stop-color="#635fff" stop-opacity="0.51373"/></linearGradient><linearGradient x1="100.71554" y1="109.15025" x2="243.55236" y2="109.15025" gradientUnits="userSpaceOnUse" id="color-27"><stop offset="0" stop-color="#6260ff" stop-opacity="0.52157"/><stop offset="1" stop-color="#8d8dff" stop-opacity="0.33333"/></linearGradient><linearGradient x1="235.54414" y1="149.65575" x2="275.15693" y2="149.65575" gradientUnits="userSpaceOnUse" id="color-28"><stop offset="0" stop-color="#908dff" stop-opacity="0.32549"/><stop offset="1" stop-color="#a1a1ff" stop-opacity="0.2549"/></linearGradient><linearGradient x1="17.19809" y1="248.20166" x2="131.82995" y2="248.20166" gradientUnits="userSpaceOnUse" id="color-29"><stop offset="0" stop-color="#3633ff" stop-opacity="0.70196"/><stop offset="1" stop-color="#635fff" stop-opacity="0.51373"/></linearGradient><linearGradient x1="13.48998" y1="177.19058" x2="291.4515" y2="177.19058" gradientUnits="userSpaceOnUse" id="color-30"><stop offset="0" stop-color="#3633ff" stop-opacity="0.70196"/><stop offset="1" stop-color="#a7a6ff" stop-opacity="0.22745"/></linearGradient><linearGradient x1="75.69943" y1="213.68574" x2="76.34274" y2="276.53245" gradientUnits="userSpaceOnUse" id="color-31"><stop offset="0" stop-color="#7a77ff"/><stop offset="1" stop-color="#322eff"/></linearGradient><linearGradient x1="76.55112" y1="213.67516" x2="77.12613" y2="269.85638" gradientUnits="userSpaceOnUse" id="color-32"><stop offset="0" stop-color="#000000"/><stop offset="1" stop-color="#ff0000"/></linearGradient><linearGradient x1="45.94259" y1="246.74215" x2="50.27843" y2="262.95492" gradientUnits="userSpaceOnUse" id="color-33"><stop offset="0" stop-color="#ffffff"/><stop offset="1" stop-color="#322eff"/></linearGradient><linearGradient x1="63.12559" y1="245.97485" x2="63.44024" y2="276.72496" gradientUnits="userSpaceOnUse" id="color-34"><stop offset="0" stop-color="#ffffff" stop-opacity="0"/><stop offset="1" stop-color="#ffffff"/></linearGradient><linearGradient x1="82.50362" y1="240.62857" x2="82.82794" y2="272.31872" gradientUnits="userSpaceOnUse" id="color-35"><stop offset="0" stop-color="#000000" stop-opacity="0"/><stop offset="1" stop-color="#000000"/></linearGradient><linearGradient x1="97.82597" y1="248.47554" x2="98.05718" y2="271.06804" gradientUnits="userSpaceOnUse" id="color-36"><stop offset="0" stop-color="#ffffff" stop-opacity="0"/><stop offset="1" stop-color="#ffffff"/></linearGradient><linearGradient x1="41.06944" y1="240.58194" x2="69.83533" y2="240.22462" gradientUnits="userSpaceOnUse" id="color-37"><stop offset="0" stop-color="#ffffff"/><stop offset="1" stop-color="#ffffff" stop-opacity="0"/></linearGradient><linearGradient x1="51.71577" y1="231.72487" x2="73.04928" y2="231.45983" gradientUnits="userSpaceOnUse" id="color-38"><stop offset="0" stop-color="#000000"/><stop offset="1" stop-color="#000000" stop-opacity="0"/></linearGradient><linearGradient x1="60.448" y1="224.14555" x2="77.10184" y2="223.93861" gradientUnits="userSpaceOnUse" id="color-39"><stop offset="0" stop-color="#ffffff"/><stop offset="1" stop-color="#ffffff" stop-opacity="0"/></linearGradient><linearGradient x1="91.05364" y1="271.44922" x2="140.21941" y2="271.44922" gradientUnits="userSpaceOnUse" id="color-40"><stop offset="0" stop-color="#3633ff" stop-opacity="0.51765"/><stop offset="1" stop-color="#635fff" stop-opacity="0.51373"/></linearGradient><linearGradient x1="101.04887" y1="109.15024" x2="243.88569" y2="109.15024" gradientUnits="userSpaceOnUse" id="color-41"><stop offset="0" stop-color="#6260ff" stop-opacity="0.52157"/><stop offset="1" stop-color="#8d8dff" stop-opacity="0.33333"/></linearGradient><linearGradient x1="235.87747" y1="149.65574" x2="275.49026" y2="149.65574" gradientUnits="userSpaceOnUse" id="color-42"><stop offset="0" stop-color="#908dff" stop-opacity="0.32549"/><stop offset="1" stop-color="#a1a1ff" stop-opacity="0.2549"/></linearGradient><linearGradient x1="215.05076" y1="34.48433" x2="212.0326" y2="57.36053" gradientTransform="translate(-342.45058,-46.73196) rotate(-7.51579) scale(1.99999,1.99999)" gradientUnits="userSpaceOnUse" id="color-43"><stop offset="0" stop-color="#000000"/><stop offset="1" stop-color="#000000" stop-opacity="0"/></linearGradient><linearGradient x1="243.68351" y1="19.94164" x2="241.16061" y2="39.064" gradientTransform="translate(-491.29727,-5.65601) rotate(-7.51547) scale(2.39263,2.39263)" gradientUnits="userSpaceOnUse" id="color-44"><stop offset="0" stop-color="#000000"/><stop offset="1" stop-color="#000000" stop-opacity="0"/></linearGradient></defs><g transform="translate(0,-11.0939)"><g data-paper-data="{&quot;isPaintingLayer&quot;:true}" fill-rule="nonzero" stroke-linecap="butt" stroke-linejoin="miter" stroke-miterlimit="10" stroke-dasharray="" stroke-dashoffset="0" style="mix-blend-mode: normal"><path d="M131.26053,237.45445c2.77993,18.22558 -19.29885,37.88085 -50.09925,44.29065c-31.4158,6.53786 -60.00864,-3.18012 -63.86391,-21.70559c-2.71143,-13.02908 7.5354,-26.94473 24.78343,-36.32963c7.27622,-3.95907 15.79836,-7.11183 25.11925,-9.05158c30.47077,-6.34116 58.28591,2.61013 63.44949,20.0579c0.16014,0.54112 0.29847,1.09045 0.41446,1.64771z" fill="none" stroke="url(#color-1)" stroke-width="7"/><path d="M13.15664,253.21377c0,0 0.12706,-1.09812 0.19987,-1.65277c2.51799,-19.18642 12.41269,-42.75459 29.33765,-64.92575c32.01066,-41.93295 96.38692,-86.3976 172.53345,-85.45311c55.63968,0.69014 90.44805,32.68793 69.95351,71.4961c-12.62183,23.9006 -35.75354,37.90314 -35.75354,37.90314c0,0 20.9019,-15.4045 27.64247,-36.84656c2.56113,-8.14716 2.25602,-16.77466 -0.03267,-22.1146c-5.06228,-11.81132 -15.21204,-18.72485 -29.82352,-21.78705c-18.69952,-3.91889 -36.20219,-0.53744 -49.08813,3.32913c-5.25878,1.57794 -11.15059,3.73922 -18.97106,7.16996c-16.03877,7.036 -27.42255,16.84283 -27.42255,16.84283c0,0 -19.97807,14.16507 -27.17646,35.83492c-2.20131,6.62679 -2.35593,12.81973 -1.13491,18.36511c1.51823,6.89534 6.55831,14.33734 6.55831,14.33734c0,0 -3.532,-5.43469 -12.76121,-10.09506c-3.17361,-1.6026 -7.23597,-3.08991 -11.71003,-4.32279c-11.71051,-3.22701 -27.66802,-2.36103 -38.70511,-0.09737c-20.6324,4.23155 -35.83344,13.79964 -43.8778,23.00402c-8.87971,10.1601 -9.76819,19.0126 -9.76819,19.0126z" fill="url(#color-2)" stroke="none" stroke-width="0"/><path d="M45.73652,274.61481c0,0 -1.37797,-0.41645 -2.04519,-0.64197c-9.03042,-3.05224 -15.35943,-8.2053 -17.12878,-14.95405c-1.7305,-6.60052 1.19043,-13.62167 7.4452,-19.93081c3.24518,-3.27341 7.38783,-6.35512 12.24388,-9.08701c0.66425,-0.37369 2.03231,-1.10103 2.03231,-1.10103c0,0 -12.83663,7.20063 -15.64684,23.26451c-3.02597,17.297 13.09949,22.45037 13.09949,22.45037z" fill-opacity="0.51765" fill="#3633ff" stroke-opacity="0.70196" stroke="#ffaaaa" stroke-width="0"/><path d="M102.90195,222.26746c0,0 1.37802,0.41641 2.04521,0.64197c9.03044,3.05224 15.35942,8.20531 17.12877,14.95406c1.38035,5.26498 -0.19878,10.7975 -4.06874,16.02288c-0.98172,1.32554 -2.11085,2.63131 -3.37647,3.90794c-4.82504,4.86699 -13.23295,5.80633 -13.23295,5.80633c0,0 11.79334,-2.81894 14.6036,-18.88282c3.02597,-17.297 -13.09944,-22.45033 -13.09944,-22.45033z" data-paper-data="{&quot;index&quot;:null}" fill-opacity="0.5451" fill="#5c58ff" stroke-opacity="0.70196" stroke="#ffaaaa" stroke-width="0"/><g><path d="M121.00385,258.66468c-0.79879,3.8267 -17.2289,9.09649 -17.2289,9.09649l-53.96486,11.33085c0,0 -19.95211,-4.19975 -20.38476,-14.72273c-0.19348,-4.70568 4.83169,-12.84042 4.83169,-12.84042l34.417,-31.46519l7.43746,-4.95332l4.22401,-0.44089l-0.20855,5.00179l-14.9798,22.87989l43.80631,7.64047c0,0 13.3318,2.33438 12.0504,8.47304z" fill="url(#color-3)" stroke="url(#color-4)" stroke-width="0"/><path d="M34.79949,260.63212c-1.57052,-4.27699 2.96655,-10.33363 10.13395,-13.52783c7.16739,-3.19424 14.25085,-2.31644 15.82138,1.96055c1.57051,4.27699 -2.96658,10.33362 -10.13395,13.52783c-7.16739,3.19424 -14.25083,2.31642 -15.8214,-1.96055z" fill="url(#color-5)" stroke="none" stroke-width="3"/><path d="M37.92715,256.30698c-1.09064,-2.9701 2.06018,-7.17613 7.03747,-9.39433c4.97734,-2.2182 9.89643,-1.60861 10.98709,1.36145c1.09064,2.97008 -2.06014,7.1761 -7.0375,9.3943c-4.97734,2.2182 -9.89638,1.60863 -10.98704,-1.36145z" fill="#000000" stroke="none" stroke-width="0"/><path d="M60.84395,264.96359c3.4739,-6.84868 6.84342,-9.97219 12.82009,-14.23819c5.14466,-3.67212 9.25047,-5.00042 9.25047,-5.00042l5.18753,1.14872c0,0 -2.12161,0.59888 -5.30376,2.39307c-1.36381,0.76895 -2.92242,1.75743 -4.59234,3.01246c-5.60595,4.21318 -9.95252,7.14775 -11.2121,14.49394c-0.83697,4.88148 0.75895,8.77032 0.75895,8.77032l-9.29797,2.01502c0,0 -1.09392,-5.72834 2.3891,-12.59492z" fill="url(#color-6)" stroke="none" stroke-width="0"/><path d="M75.52022,273.79591c0,0 -1.02661,-2.59566 -0.80678,-6.3863c0.31497,-5.4314 3.80812,-10.43514 8.70651,-14.57945c4.51714,-3.82174 8.86753,-5.50311 8.86753,-5.50311l5.08603,0.95222c0,0 -9.08607,4.23133 -12.34431,8.81826c-1.47445,2.07574 -2.95651,3.81003 -3.12992,6.74091c-0.42401,5.41633 1.7447,8.18695 1.7447,8.18695z" fill="url(#color-7)" stroke="none" stroke-width="0"/><path d="M90.89975,270.50486c0,0 -2.31526,-4.50062 0.04065,-9.72769c3.33748,-7.40493 11.27541,-11.75368 11.27541,-11.75368l3.85694,0.64328c0,0 -4.88897,2.08082 -8.89696,9.92992c-2.39238,4.68513 0.58404,9.47569 0.58404,9.47569z" fill="url(#color-8)" stroke="none" stroke-width="0"/><path d="M49.23682,237.71163c0,0 2.91216,-1.74736 6.1735,-2.13845c5.57666,-0.66872 13.91002,0.36234 13.91002,0.36234l-1.7613,2.75153c0,0 -8.50175,-0.07719 -13.83004,1.01298c-5.3283,1.09018 -12.94221,5.84042 -12.94221,5.84042z" fill="url(#color-9)" stroke="none" stroke-width="0"/><path d="M58.04278,229.66604c0,0 2.20106,-1.13763 4.5168,-0.96654c6.33355,0.46803 10.15202,2.34111 10.15202,2.34111l-1.62681,2.44653c0,0 -5.28396,-1.20013 -10.4796,-1.00966c-3.15336,0.11559 -7.78461,1.9053 -7.78461,1.9053z" fill="url(#color-10)" stroke="none" stroke-width="0"/><path d="M63.15111,224.94184c0,0 2.74817,-0.96528 5.28233,-0.71442c3.45103,0.3417 7.39419,1.9218 7.39419,1.9218l-1.4892,2.44491c0,0 -4.61164,-1.65124 -7.05359,-1.85575c-2.27665,-0.19074 -7.0195,0.79646 -7.0195,0.79646z" fill="url(#color-11)" stroke="none" stroke-width="0"/></g><path d="M4.113,247.71304c4.15586,0 4.85518,4.44612 5.01626,8.59884c0.12624,3.25518 0.6464,8.17009 3.56451,13.28299c5.41817,9.4933 16.03996,14.84064 16.03996,14.84064c0,0 -12.25037,-2.1743 -21.65461,-12.72c-0.28648,-0.32124 -0.57027,-0.65024 -0.85106,-0.98719c-3.95484,-4.74637 -6.6958,-12.81341 -6.16153,-18.00539c0.31672,-3.0778 2.86702,-5.00992 4.04642,-5.00992z" fill-opacity="0.51765" fill="#3633ff" stroke="none" stroke-width="0"/><path d="M98.75156,285.10468c5.56399,-2.01406 15.65582,-6.3528 25.61095,-14.64102c11.32139,-9.42576 15.51476,-25.19727 15.51476,-25.19727c0,0 0.76264,13.92636 -11.91977,30.07353c-3.85925,4.91358 -9.15341,9.99624 -14.15094,14.3001c0,0 -5.12447,4.32162 -10.63367,6.61296c-3.02141,1.25664 -11.04388,3.25649 -12.32005,-2.53842c-1.33815,-6.07614 7.89872,-8.60989 7.89872,-8.60989z" fill="url(#color-12)" stroke="none" stroke-width="0"/><path d="M188.96857,94.18454c31.04179,-3.34589 54.58383,6.5033 54.58383,6.5033c0,0 -19.28332,-4.93401 -38.3419,-2.84988c-27.23108,2.97781 -58.63868,11.33508 -69.94972,14.98102c-8.902,2.86941 -18.21769,7.37293 -25.33437,11.17584c-3.28953,1.75781 -9.11709,0.73668 -9.20983,-3.70694c-0.26361,-12.63287 54.01484,-19.51569 54.01484,-19.51569z" fill="url(#color-13)" stroke="none" stroke-width="0"/><path d="M243.43808,132.24668c2.81636,0.52508 5.81772,1.20668 8.55041,2.07543c7.27853,2.31397 11.89113,6.27258 14.41374,8.64366c2.33074,2.19074 6.02868,5.99152 7.84044,12.25456c1.49206,5.1579 0.70908,7.33574 0.70908,11.90534c0,0 0.12076,-5.89511 -2.88383,-11.48723c-1.62902,-3.03199 -4.83974,-5.97485 -7.97226,-7.8408c-7.16282,-4.26663 -16.31306,-6.1951 -20.35293,-6.88233c-0.40359,-0.06862 -8.58616,-0.80884 -8.18418,-5.76009c0.29597,-3.6455 7.87958,-2.90856 7.87958,-2.90856z" fill="url(#color-14)" stroke="none" stroke-width="0"/><g><path d="M131.26054,237.45445c2.77993,18.22558 -19.29885,37.88085 -50.09925,44.29065c-31.4158,6.53786 -60.00864,-3.18012 -63.86391,-21.70559c-2.71143,-13.02908 7.5354,-26.94473 24.78343,-36.32963c7.27622,-3.95907 15.79836,-7.11183 25.11925,-9.05158c30.47077,-6.34116 58.28591,2.61013 63.44949,20.0579c0.16014,0.54112 0.29847,1.09045 0.41446,1.64771z" fill="none" stroke="url(#color-15)" stroke-width="7"/><path d="M13.15665,253.21377c0,0 0.12706,-1.09812 0.19987,-1.65277c2.51799,-19.18642 12.41269,-42.75459 29.33765,-64.92575c32.01066,-41.93295 96.38692,-86.3976 172.53345,-85.45311c55.63968,0.69014 90.44805,32.68793 69.95351,71.4961c-12.62183,23.9006 -35.75354,37.90314 -35.75354,37.90314c0,0 20.9019,-15.4045 27.64247,-36.84656c2.56113,-8.14716 2.25602,-16.77466 -0.03267,-22.1146c-5.06228,-11.81132 -15.21204,-18.72485 -29.82352,-21.78705c-18.69952,-3.91889 -36.20219,-0.53744 -49.08813,3.32913c-5.25878,1.57794 -11.15059,3.73922 -18.97106,7.16996c-16.03877,7.036 -27.42255,16.84283 -27.42255,16.84283c0,0 -19.97807,14.16507 -27.17646,35.83492c-2.20131,6.62679 -2.35593,12.81973 -1.13491,18.36511c1.51823,6.89534 6.55831,14.33734 6.55831,14.33734c0,0 -3.532,-5.43469 -12.76121,-10.09506c-3.17361,-1.6026 -7.23597,-3.08991 -11.71003,-4.32279c-11.71051,-3.22701 -27.66802,-2.36103 -38.70511,-0.09737c-20.6324,4.23155 -35.83344,13.79964 -43.8778,23.00402c-8.87971,10.1601 -9.76819,19.0126 -9.76819,19.0126z" fill="url(#color-16)" stroke="none" stroke-width="0"/><path d="M45.73653,274.61481c0,0 -1.37797,-0.41645 -2.04519,-0.64197c-9.03042,-3.05224 -15.35943,-8.2053 -17.12878,-14.95405c-1.7305,-6.60052 1.19043,-13.62167 7.4452,-19.93081c3.24518,-3.27341 7.38783,-6.35512 12.24388,-9.08701c0.66425,-0.37369 2.03231,-1.10103 2.03231,-1.10103c0,0 -12.83663,7.20063 -15.64684,23.26451c-3.02597,17.297 13.09949,22.45037 13.09949,22.45037z" fill-opacity="0.51765" fill="#3633ff" stroke-opacity="0.70196" stroke="#ffaaaa" stroke-width="0"/><path d="M102.90196,222.26746c0,0 1.37802,0.41641 2.04521,0.64197c9.03044,3.05224 15.35942,8.20531 17.12877,14.95406c1.38035,5.26498 -0.19878,10.7975 -4.06874,16.02288c-0.98172,1.32554 -2.11085,2.63131 -3.37647,3.90794c-4.82504,4.86699 -13.23295,5.80633 -13.23295,5.80633c0,0 11.79334,-2.81894 14.6036,-18.88282c3.02597,-17.297 -13.09944,-22.45033 -13.09944,-22.45033z" data-paper-data="{&quot;index&quot;:null}" fill-opacity="0.5451" fill="#5c58ff" stroke-opacity="0.70196" stroke="#ffaaaa" stroke-width="0"/><g><path d="M121.00386,258.66468c-0.79879,3.8267 -17.2289,9.09649 -17.2289,9.09649l-53.96486,11.33085c0,0 -19.95211,-4.19975 -20.38476,-14.72273c-0.19348,-4.70568 4.83169,-12.84042 4.83169,-12.84042l34.417,-31.46519l7.43746,-4.95332l4.22401,-0.44089l-0.20855,5.00179l-14.9798,22.87989l43.80631,7.64047c0,0 13.3318,2.33438 12.0504,8.47304z" fill="url(#color-17)" stroke="url(#color-18)" stroke-width="0"/><path d="M34.7995,260.63212c-1.57052,-4.27699 2.96655,-10.33363 10.13395,-13.52783c7.16739,-3.19424 14.25085,-2.31644 15.82138,1.96055c1.57051,4.27699 -2.96658,10.33362 -10.13395,13.52783c-7.16739,3.19424 -14.25083,2.31642 -15.8214,-1.96055z" fill="url(#color-19)" stroke="none" stroke-width="3"/><path d="M37.92715,256.30698c-1.09064,-2.9701 2.06018,-7.17613 7.03747,-9.39433c4.97734,-2.2182 9.89643,-1.60861 10.98709,1.36145c1.09064,2.97008 -2.06014,7.1761 -7.0375,9.3943c-4.97734,2.2182 -9.89638,1.60863 -10.98704,-1.36145z" fill="#000000" stroke="none" stroke-width="0"/><path d="M60.84396,264.96359c3.4739,-6.84868 6.84342,-9.97219 12.82009,-14.23819c5.14466,-3.67212 9.25047,-5.00042 9.25047,-5.00042l5.18753,1.14872c0,0 -2.12161,0.59888 -5.30376,2.39307c-1.36381,0.76895 -2.92242,1.75743 -4.59234,3.01246c-5.60595,4.21318 -9.95252,7.14775 -11.2121,14.49394c-0.83697,4.88148 0.75895,8.77032 0.75895,8.77032l-9.29797,2.01502c0,0 -1.09392,-5.72834 2.3891,-12.59492z" fill="url(#color-20)" stroke="none" stroke-width="0"/><path d="M75.52023,273.79591c0,0 -1.02661,-2.59566 -0.80678,-6.3863c0.31497,-5.4314 3.80812,-10.43514 8.70651,-14.57945c4.51714,-3.82174 8.86753,-5.50311 8.86753,-5.50311l5.08603,0.95222c0,0 -9.08607,4.23133 -12.34431,8.81826c-1.47445,2.07574 -2.95651,3.81003 -3.12992,6.74091c-0.42401,5.41633 1.7447,8.18695 1.7447,8.18695z" fill="url(#color-21)" stroke="none" stroke-width="0"/><path d="M90.89976,270.50486c0,0 -2.31526,-4.50062 0.04065,-9.72769c3.33748,-7.40493 11.27541,-11.75368 11.27541,-11.75368l3.85694,0.64328c0,0 -4.88897,2.08082 -8.89696,9.92992c-2.39238,4.68513 0.58404,9.47569 0.58404,9.47569z" fill="url(#color-22)" stroke="none" stroke-width="0"/><path d="M49.23683,237.71163c0,0 2.91216,-1.74736 6.1735,-2.13845c5.57666,-0.66872 13.91002,0.36234 13.91002,0.36234l-1.7613,2.75153c0,0 -8.50175,-0.07719 -13.83004,1.01298c-5.3283,1.09018 -12.94221,5.84042 -12.94221,5.84042z" fill="url(#color-23)" stroke="none" stroke-width="0"/><path d="M58.04279,229.66604c0,0 2.20106,-1.13763 4.5168,-0.96654c6.33355,0.46803 10.15202,2.34111 10.15202,2.34111l-1.62681,2.44653c0,0 -5.28396,-1.20013 -10.4796,-1.00966c-3.15336,0.11559 -7.78461,1.9053 -7.78461,1.9053z" fill="url(#color-24)" stroke="none" stroke-width="0"/><path d="M63.15112,224.94184c0,0 2.74817,-0.96528 5.28233,-0.71442c3.45103,0.3417 7.39419,1.9218 7.39419,1.9218l-1.4892,2.44491c0,0 -4.61164,-1.65124 -7.05359,-1.85575c-2.27665,-0.19074 -7.0195,0.79646 -7.0195,0.79646z" fill="url(#color-25)" stroke="none" stroke-width="0"/></g><path d="M4.11301,247.71304c4.15586,0 4.85518,4.44612 5.01626,8.59884c0.12624,3.25518 0.6464,8.17009 3.56451,13.28299c5.41817,9.4933 16.03996,14.84064 16.03996,14.84064c0,0 -12.25037,-2.1743 -21.65461,-12.72c-0.28648,-0.32124 -0.57027,-0.65024 -0.85106,-0.98719c-3.95484,-4.74637 -6.6958,-12.81341 -6.16153,-18.00539c0.31672,-3.0778 2.86702,-5.00992 4.04642,-5.00992z" fill-opacity="0.51765" fill="#3633ff" stroke="none" stroke-width="0"/><path d="M98.75157,285.10468c5.56399,-2.01406 15.65582,-6.3528 25.61095,-14.64102c11.32139,-9.42576 15.51476,-25.19727 15.51476,-25.19727c0,0 0.76264,13.92636 -11.91977,30.07353c-3.85925,4.91358 -9.15341,9.99624 -14.15094,14.3001c0,0 -5.12447,4.32162 -10.63367,6.61296c-3.02141,1.25664 -11.04388,3.25649 -12.32005,-2.53842c-1.33815,-6.07614 7.89872,-8.60989 7.89872,-8.60989z" fill="url(#color-26)" stroke="none" stroke-width="0"/><path d="M188.96858,94.18454c31.04179,-3.34589 54.58383,6.5033 54.58383,6.5033c0,0 -19.28332,-4.93401 -38.3419,-2.84988c-27.23108,2.97781 -58.63868,11.33508 -69.94972,14.98102c-8.902,2.86941 -18.21769,7.37293 -25.33437,11.17584c-3.28953,1.75781 -9.11709,0.73668 -9.20983,-3.70694c-0.26361,-12.63287 54.01484,-19.51569 54.01484,-19.51569z" fill="url(#color-27)" stroke="none" stroke-width="0"/><path d="M243.43809,132.24668c2.81636,0.52508 5.81772,1.20668 8.55041,2.07543c7.27853,2.31397 11.89113,6.27258 14.41374,8.64366c2.33074,2.19074 6.02868,5.99152 7.84044,12.25456c1.49206,5.1579 0.70908,7.33574 0.70908,11.90534c0,0 0.12076,-5.89511 -2.88383,-11.48723c-1.62902,-3.03199 -4.83974,-5.97485 -7.97226,-7.8408c-7.16282,-4.26663 -16.31306,-6.1951 -20.35293,-6.88233c-0.40359,-0.06862 -8.58616,-0.80884 -8.18418,-5.76009c0.29597,-3.6455 7.87958,-2.90856 7.87958,-2.90856z" fill="url(#color-28)" stroke="none" stroke-width="0"/></g><g><path d="M131.59387,237.45445c2.77993,18.22558 -19.29885,37.88085 -50.09925,44.29065c-31.4158,6.53786 -60.00864,-3.18012 -63.86391,-21.70559c-2.71143,-13.02908 7.5354,-26.94473 24.78343,-36.32963c7.27622,-3.95907 15.79836,-7.11183 25.11925,-9.05158c30.47077,-6.34116 58.28591,2.61013 63.44949,20.0579c0.16014,0.54112 0.29847,1.09045 0.41446,1.64771z" fill="none" stroke="url(#color-29)" stroke-width="7"/><path d="M13.48998,253.21377c0,0 0.12706,-1.09812 0.19987,-1.65277c2.51799,-19.18642 12.41269,-42.75459 29.33765,-64.92575c32.01066,-41.93295 96.38692,-86.3976 172.53345,-85.45311c55.63968,0.69014 90.44805,32.68793 69.95351,71.4961c-12.62183,23.9006 -35.75354,37.90314 -35.75354,37.90314c0,0 20.9019,-15.4045 27.64247,-36.84656c2.56113,-8.14716 2.25602,-16.77466 -0.03267,-22.1146c-5.06228,-11.81132 -15.21204,-18.72485 -29.82352,-21.78705c-18.69952,-3.91889 -36.20219,-0.53744 -49.08813,3.32913c-5.25878,1.57794 -11.15059,3.73922 -18.97106,7.16996c-16.03877,7.036 -27.42255,16.84283 -27.42255,16.84283c0,0 -19.97807,14.16507 -27.17646,35.83492c-2.20131,6.62679 -2.35593,12.81973 -1.13491,18.36511c1.51823,6.89534 6.55831,14.33734 6.55831,14.33734c0,0 -3.532,-5.43469 -12.76121,-10.09506c-3.17361,-1.6026 -7.23597,-3.08991 -11.71003,-4.32279c-11.71051,-3.22701 -27.66802,-2.36103 -38.70511,-0.09737c-20.6324,4.23155 -35.83344,13.79964 -43.8778,23.00402c-8.87971,10.1601 -9.76819,19.0126 -9.76819,19.0126z" fill="url(#color-30)" stroke="none" stroke-width="0"/><path d="M46.06986,274.61481c0,0 -1.37797,-0.41645 -2.04519,-0.64197c-9.03042,-3.05224 -15.35943,-8.2053 -17.12878,-14.95405c-1.7305,-6.60052 1.19043,-13.62167 7.4452,-19.93081c3.24518,-3.27341 7.38783,-6.35512 12.24388,-9.08701c0.66425,-0.37369 2.03231,-1.10103 2.03231,-1.10103c0,0 -12.83663,7.20063 -15.64684,23.26451c-3.02597,17.297 13.09949,22.45037 13.09949,22.45037z" fill-opacity="0.51765" fill="#3633ff" stroke-opacity="0.70196" stroke="#ffaaaa" stroke-width="0"/><path d="M103.23529,222.26746c0,0 1.37802,0.41641 2.04521,0.64197c9.03044,3.05224 15.35942,8.20531 17.12877,14.95406c1.38035,5.26498 -0.19878,10.7975 -4.06874,16.02288c-0.98172,1.32554 -2.11085,2.63131 -3.37647,3.90794c-4.82504,4.86699 -13.23295,5.80633 -13.23295,5.80633c0,0 11.79334,-2.81894 14.6036,-18.88282c3.02597,-17.297 -13.09944,-22.45033 -13.09944,-22.45033z" data-paper-data="{&quot;index&quot;:null}" fill-opacity="0.5451" fill="#5c58ff" stroke-opacity="0.70196" stroke="#ffaaaa" stroke-width="0"/><g><path d="M121.33719,258.66468c-0.79879,3.8267 -17.2289,9.09649 -17.2289,9.09649l-53.96486,11.33085c0,0 -19.95211,-4.19975 -20.38476,-14.72273c-0.19348,-4.70568 4.83169,-12.84042 4.83169,-12.84042l34.417,-31.46519l7.43746,-4.95332l4.22401,-0.44089l-0.20855,5.00179l-14.9798,22.87989l43.80631,7.64047c0,0 13.3318,2.33438 12.0504,8.47304z" fill="url(#color-31)" stroke="url(#color-32)" stroke-width="0"/><path d="M35.13283,260.63212c-1.57052,-4.27699 2.96655,-10.33363 10.13395,-13.52783c7.16739,-3.19424 14.25085,-2.31644 15.82138,1.96055c1.57051,4.27699 -2.96658,10.33362 -10.13395,13.52783c-7.16739,3.19424 -14.25083,2.31642 -15.8214,-1.96055z" fill="url(#color-33)" stroke="none" stroke-width="3"/><path d="M38.26048,256.30698c-1.09064,-2.9701 2.06018,-7.17613 7.03747,-9.39433c4.97734,-2.2182 9.89643,-1.60861 10.98709,1.36145c1.09064,2.97008 -2.06014,7.1761 -7.0375,9.3943c-4.97734,2.2182 -9.89638,1.60863 -10.98704,-1.36145z" fill="#000000" stroke="none" stroke-width="0"/><path d="M61.17729,264.96359c3.4739,-6.84868 6.84342,-9.97219 12.82009,-14.23819c5.14466,-3.67212 9.25047,-5.00042 9.25047,-5.00042l5.18753,1.14872c0,0 -2.12161,0.59888 -5.30376,2.39307c-1.36381,0.76895 -2.92242,1.75743 -4.59234,3.01246c-5.60595,4.21318 -9.95252,7.14775 -11.2121,14.49394c-0.83697,4.88148 0.75895,8.77032 0.75895,8.77032l-9.29797,2.01502c0,0 -1.09392,-5.72834 2.3891,-12.59492z" fill="url(#color-34)" stroke="none" stroke-width="0"/><path d="M75.85356,273.79591c0,0 -1.02661,-2.59566 -0.80678,-6.3863c0.31497,-5.4314 3.80812,-10.43514 8.70651,-14.57945c4.51714,-3.82174 8.86753,-5.50311 8.86753,-5.50311l5.08603,0.95222c0,0 -9.08607,4.23133 -12.34431,8.81826c-1.47445,2.07574 -2.95651,3.81003 -3.12992,6.74091c-0.42401,5.41633 1.7447,8.18695 1.7447,8.18695z" fill="url(#color-35)" stroke="none" stroke-width="0"/><path d="M91.23309,270.50486c0,0 -2.31526,-4.50062 0.04065,-9.72769c3.33748,-7.40493 11.27541,-11.75368 11.27541,-11.75368l3.85694,0.64328c0,0 -4.88897,2.08082 -8.89696,9.92992c-2.39238,4.68513 0.58404,9.47569 0.58404,9.47569z" fill="url(#color-36)" stroke="none" stroke-width="0"/><path d="M49.57016,237.71163c0,0 2.91216,-1.74736 6.1735,-2.13845c5.57666,-0.66872 13.91002,0.36234 13.91002,0.36234l-1.7613,2.75153c0,0 -8.50175,-0.07719 -13.83004,1.01298c-5.3283,1.09018 -12.94221,5.84042 -12.94221,5.84042z" fill="url(#color-37)" stroke="none" stroke-width="0"/><path d="M58.37612,229.66604c0,0 2.20106,-1.13763 4.5168,-0.96654c6.33355,0.46803 10.15202,2.34111 10.15202,2.34111l-1.62681,2.44653c0,0 -5.28396,-1.20013 -10.4796,-1.00966c-3.15336,0.11559 -7.78461,1.9053 -7.78461,1.9053z" fill="url(#color-38)" stroke="none" stroke-width="0"/><path d="M63.48445,224.94184c0,0 2.74817,-0.96528 5.28233,-0.71442c3.45103,0.3417 7.39419,1.9218 7.39419,1.9218l-1.4892,2.44491c0,0 -4.61164,-1.65124 -7.05359,-1.85575c-2.27665,-0.19074 -7.0195,0.79646 -7.0195,0.79646z" fill="url(#color-39)" stroke="none" stroke-width="0"/></g><path d="M4.44634,247.71304c4.15586,0 4.85518,4.44612 5.01626,8.59884c0.12624,3.25518 0.6464,8.17009 3.56451,13.28299c5.41817,9.4933 16.03996,14.84064 16.03996,14.84064c0,0 -12.25037,-2.1743 -21.65461,-12.72c-0.28648,-0.32124 -0.57027,-0.65024 -0.85106,-0.98719c-3.95484,-4.74637 -6.6958,-12.81341 -6.16153,-18.00539c0.31672,-3.0778 2.86702,-5.00992 4.04642,-5.00992z" fill-opacity="0.51765" fill="#3633ff" stroke="none" stroke-width="0"/><path d="M99.0849,285.10468c5.56399,-2.01406 15.65582,-6.3528 25.61095,-14.64102c11.32139,-9.42576 15.51476,-25.19727 15.51476,-25.19727c0,0 0.76264,13.92636 -11.91977,30.07353c-3.85925,4.91358 -9.15341,9.99624 -14.15094,14.3001c0,0 -5.12447,4.32162 -10.63367,6.61296c-3.02141,1.25664 -11.04388,3.25649 -12.32005,-2.53842c-1.33815,-6.07614 7.89872,-8.60989 7.89872,-8.60989z" fill="url(#color-40)" stroke="none" stroke-width="0"/><path d="M189.30191,94.18454c31.04179,-3.34589 54.58383,6.5033 54.58383,6.5033c0,0 -19.28332,-4.93401 -38.3419,-2.84988c-27.23108,2.97781 -58.63868,11.33508 -69.94972,14.98102c-8.902,2.86941 -18.21769,7.37293 -25.33437,11.17584c-3.28953,1.75781 -9.11709,0.73668 -9.20983,-3.70694c-0.26361,-12.63287 54.01484,-19.51569 54.01484,-19.51569z" fill="url(#color-41)" stroke="none" stroke-width="0"/><path d="M243.77142,132.24667c2.81636,0.52508 5.81772,1.20668 8.55041,2.07543c7.27853,2.31397 11.89113,6.27258 14.41374,8.64366c2.33074,2.19074 6.02868,5.99152 7.84044,12.25456c1.49206,5.1579 0.70908,7.33574 0.70908,11.90534c0,0 0.12076,-5.89511 -2.88383,-11.48723c-1.62902,-3.03199 -4.83974,-5.97485 -7.97226,-7.8408c-7.16282,-4.26663 -16.31306,-6.1951 -20.35293,-6.88233c-0.40359,-0.06862 -8.58616,-0.80884 -8.18418,-5.76009c0.29597,-3.6455 7.87958,-2.90856 7.87958,-2.90856z" fill="url(#color-42)" stroke="none" stroke-width="0"/></g><text transform="translate(166.69854,45.56156) rotate(7.51579) scale(0.5,0.5)" font-size="40" xml:space="preserve" fill="url(#color-43)" fill-rule="nonzero" stroke="none" stroke-width="1" stroke-linecap="butt" stroke-linejoin="miter" stroke-miterlimit="10" stroke-dasharray="" stroke-dashoffset="0" font-family="Sans Serif" font-weight="normal" text-anchor="start" style="mix-blend-mode: normal"><tspan x="0" dy="0">@urukazu</tspan></text><text transform="translate(203.26473,29.20056) rotate(7.51547) scale(0.41795,0.41795)" font-size="40" xml:space="preserve" fill="url(#color-44)" fill-rule="nonzero" stroke="none" stroke-width="1" stroke-linecap="butt" stroke-linejoin="miter" stroke-miterlimit="10" stroke-dasharray="" stroke-dashoffset="0" font-family="Sans Serif" font-weight="normal" text-anchor="start" style="mix-blend-mode: normal"><tspan x="0" dy="0">Art by</tspan></text></g></g></svg>