<svg version="1.1" xmlns="http://www.w3.org/2000/svg" xmlns:xlink="http://www.w3.org/1999/xlink" width="135.38819" height="86.09816" viewBox="0,0,135.38819,86.09816"><defs><radialGradient cx="312.83633" cy="180.67822" r="11.79732" gradientUnits="userSpaceOnUse" id="color-1"><stop offset="0" stop-color="#000000" stop-opacity="0.63137"/><stop offset="1" stop-color="#000000" stop-opacity="0"/></radialGradient><linearGradient x1="312.83633" y1="168.88089" x2="312.83633" y2="192.47555" gradientUnits="userSpaceOnUse" id="color-2"><stop offset="0" stop-color="#ff5454"/><stop offset="1" stop-color="#eb0000"/></linearGradient><radialGradient cx="336.66966" cy="178.84491" r="35.15615" gradientUnits="userSpaceOnUse" id="color-3"><stop offset="0" stop-color="#ffffff" stop-opacity="0.50196"/><stop offset="1" stop-color="#ffffff" stop-opacity="0"/></radialGradient><linearGradient x1="336.66966" y1="143.68871" x2="336.66966" y2="214.0011" gradientUnits="userSpaceOnUse" id="color-4"><stop offset="0" stop-color="#ff5454"/><stop offset="1" stop-color="#eb0000"/></linearGradient><radialGradient cx="336.66966" cy="178.8449" r="25.48949" gradientUnits="userSpaceOnUse" id="color-5"><stop offset="0" stop-color="#ffffff" stop-opacity="0.50196"/><stop offset="1" stop-color="#ffffff" stop-opacity="0"/></radialGradient><linearGradient x1="336.66966" y1="153.35537" x2="336.66966" y2="204.33442" gradientUnits="userSpaceOnUse" id="color-6"><stop offset="0" stop-color="#ff5454"/><stop offset="1" stop-color="#eb0000"/></linearGradient><radialGradient cx="349.5121" cy="163.55711" r="8.25383" gradientUnits="userSpaceOnUse" id="color-7"><stop offset="0" stop-color="#ff0000" stop-opacity="0.90196"/><stop offset="1" stop-color="#ff0000" stop-opacity="0.4"/></radialGradient><radialGradient cx="333.156" cy="171.84886" r="9.95603" gradientUnits="userSpaceOnUse" id="color-8"><stop offset="0" stop-color="#ff0000" stop-opacity="0.90196"/><stop offset="1" stop-color="#ff0000" stop-opacity="0.4"/></radialGradient><radialGradient cx="351.39992" cy="190.31098" r="5.2128" gradientUnits="userSpaceOnUse" id="color-9"><stop offset="0" stop-color="#ff0000" stop-opacity="0.90196"/><stop offset="1" stop-color="#ff0000" stop-opacity="0.4"/></radialGradient><radialGradient cx="342.19906" cy="193.00038" r="6.30707" gradientUnits="userSpaceOnUse" id="color-10"><stop offset="0" stop-color="#ff0000" stop-opacity="0.90196"/><stop offset="1" stop-color="#ff0000" stop-opacity="0.4"/></radialGradient><radialGradient cx="331.03067" cy="185.04505" r="3.61275" gradientUnits="userSpaceOnUse" id="color-11"><stop offset="0" stop-color="#ff0000" stop-opacity="0.90196"/><stop offset="1" stop-color="#ff0000" stop-opacity="0.4"/></radialGradient><radialGradient cx="287.60907" cy="183.38307" r="20.78815" gradientUnits="userSpaceOnUse" id="color-12"><stop offset="0" stop-color="#000000" stop-opacity="0.63137"/><stop offset="1" stop-color="#000000" stop-opacity="0"/></radialGradient><linearGradient x1="287.60907" y1="162.59491" x2="287.60907" y2="204.17123" gradientUnits="userSpaceOnUse" id="color-13"><stop offset="0" stop-color="#ff5454"/><stop offset="1" stop-color="#eb0000"/></linearGradient><radialGradient cx="270.4145" cy="175.84633" r="20.34342" gradientUnits="userSpaceOnUse" id="color-14"><stop offset="0" stop-color="#000000" stop-opacity="0.63137"/><stop offset="1" stop-color="#000000" stop-opacity="0"/></radialGradient><linearGradient x1="270.4145" y1="155.5029" x2="270.4145" y2="196.18975" gradientUnits="userSpaceOnUse" id="color-15"><stop offset="0" stop-color="#ff5454"/><stop offset="1" stop-color="#eb0000"/></linearGradient><linearGradient x1="257.02603" y1="171.67628" x2="278.72835" y2="171.67628" gradientUnits="userSpaceOnUse" id="color-16"><stop offset="0" stop-color="#eb0000"/><stop offset="1" stop-color="#ff5454"/></linearGradient><linearGradient x1="316.94588" y1="173.69911" x2="316.94588" y2="187.69911" gradientUnits="userSpaceOnUse" id="color-17"><stop offset="0" stop-color="#ff5454"/><stop offset="1" stop-color="#eb0000"/></linearGradient><linearGradient x1="304.45838" y1="176.17245" x2="304.45838" y2="184.97245" gradientUnits="userSpaceOnUse" id="color-18"><stop offset="0" stop-color="#ffffff"/><stop offset="1" stop-color="#b3b3b3"/></linearGradient><linearGradient x1="286.80697" y1="172.35325" x2="286.80697" y2="188.85325" gradientUnits="userSpaceOnUse" id="color-19"><stop offset="0" stop-color="#ffffff"/><stop offset="1" stop-color="#808080"/></linearGradient><linearGradient x1="294.97366" y1="171.38103" x2="294.97366" y2="189.49214" gradientUnits="userSpaceOnUse" id="color-20"><stop offset="0" stop-color="#ff5454"/><stop offset="1" stop-color="#eb0000"/></linearGradient><linearGradient x1="275.11253" y1="180.43659" x2="282.61253" y2="180.43659" gradientUnits="userSpaceOnUse" id="color-21"><stop offset="0" stop-color="#929292"/><stop offset="1" stop-color="#ffffff"/></linearGradient><linearGradient x1="275.58034" y1="189.27374" x2="297.28265" y2="189.27374" gradientUnits="userSpaceOnUse" id="color-22"><stop offset="0" stop-color="#eb0000"/><stop offset="1" stop-color="#ff5454"/></linearGradient></defs><g transform="translate(-238.30932,-136.95092)"><g data-paper-data="{&quot;isPaintingLayer&quot;:true}" fill-rule="nonzero" stroke-linejoin="miter" stroke-miterlimit="10" stroke-dasharray="" stroke-dashoffset="0" style="mix-blend-mode: normal"><path d="M301.039,180.67822c0,-6.51548 5.28184,-11.79734 11.79732,-11.79734c6.51548,0 11.79732,5.28184 11.79732,11.79734c0,6.51548 -5.28184,11.79732 -11.79732,11.79732c-6.51548,0 -11.79732,-5.28183 -11.79732,-11.79732z" fill="url(#color-1)" stroke="url(#color-2)" stroke-width="0" stroke-linecap="butt"/><path d="M301.51347,178.84491c0,-19.41621 15.73995,-35.15622 35.15617,-35.15622c19.41622,0 35.15615,15.73995 35.15615,35.15622c0,19.41621 -15.73995,35.15615 -35.15615,35.15615c-19.41622,0 -35.15617,-15.73991 -35.15617,-35.15615z" fill="url(#color-3)" stroke="url(#color-4)" stroke-width="0" stroke-linecap="butt"/><path d="M311.18014,178.8449c0,-14.07746 11.41204,-25.48954 25.48951,-25.48954c14.07747,0 25.48949,11.41204 25.48949,25.48954c0,14.07746 -11.41204,25.48949 -25.48949,25.48949c-14.07747,0 -25.48951,-11.41201 -25.48951,-25.48949z" fill="url(#color-5)" stroke="url(#color-6)" stroke-width="0" stroke-linecap="butt"/><path d="M348.67883,171.7688c-4.53518,-0.46022 -7.83861,-4.50975 -7.3784,-9.04495c0.46022,-4.53521 4.50978,-7.83861 9.04497,-7.3784c4.53515,0.46022 7.83857,4.50978 7.37836,9.04497c-0.46022,4.53517 -4.50974,7.83857 -9.04494,7.37836z" data-paper-data="{&quot;index&quot;:null}" fill="url(#color-7)" stroke="#000000" stroke-width="0" stroke-linecap="butt"/><path d="M332.15089,181.75401c-5.47049,-0.55512 -9.45517,-5.43979 -8.90005,-10.91027c0.55513,-5.47049 5.43983,-9.45517 10.91032,-8.90005c5.47044,0.55513 9.45511,5.43983 8.89999,10.91032c-0.55512,5.47045 -5.43979,9.45513 -10.91027,8.90002z" data-paper-data="{&quot;index&quot;:null}" fill="url(#color-8)" stroke="#000000" stroke-width="0" stroke-linecap="butt"/><path d="M351.92618,195.49716c-2.86425,0.29064 -5.4218,-1.79567 -5.71244,-4.65991c-0.29064,-2.86425 1.79566,-5.4218 4.65991,-5.71244c2.86425,-0.29064 5.42181,1.79562 5.71247,4.6599c0.29064,2.86425 -1.79567,5.4218 -4.65992,5.71244z" data-paper-data="{&quot;index&quot;:null}" fill="url(#color-9)" stroke="#000000" stroke-width="0" stroke-linecap="butt"/><path d="M342.8358,199.27525c-3.46553,0.35166 -6.5599,-2.17261 -6.91157,-5.63811c-0.35166,-3.46553 2.1726,-6.55994 5.63809,-6.91159c3.46553,-0.35166 6.55995,2.1726 6.91162,5.63811c0.35166,3.46553 -2.1726,6.5599 -5.63813,6.91159z" data-paper-data="{&quot;index&quot;:null}" fill="url(#color-10)" stroke="#000000" stroke-width="0" stroke-linecap="butt"/><path d="M331.39538,188.63933c-1.98508,0.20144 -3.75757,-1.24448 -3.959,-3.22956c-0.20144,-1.98508 1.24448,-3.75757 3.22953,-3.95902c1.98508,-0.20144 3.75757,1.24448 3.95902,3.22953c0.20144,1.98508 -1.24448,3.75757 -3.22956,3.95903z" data-paper-data="{&quot;index&quot;:null}" fill="url(#color-11)" stroke="#000000" stroke-width="0" stroke-linecap="butt"/><path d="M238.30932,223.04908v-86.09816h135.38819v86.09816z" fill="none" stroke="none" stroke-width="0" stroke-linecap="butt"/><path d="M266.82093,183.38307c0,-11.48098 9.30718,-20.78815 20.78815,-20.78815c11.48097,0 20.78815,9.30718 20.78815,20.78815c0,11.48098 -9.30718,20.78815 -20.78815,20.78815c-11.48097,0 -20.78815,-9.30718 -20.78815,-20.78815z" fill="url(#color-12)" stroke="url(#color-13)" stroke-width="0" stroke-linecap="butt"/><path d="M250.07109,175.84633c0,-11.23536 9.10806,-20.34342 20.34342,-20.34342c11.23537,0 20.34342,9.10807 20.34342,20.34342c0,11.23536 -9.10806,20.34342 -20.34342,20.34342c-11.23537,0 -20.34342,-9.10807 -20.34342,-20.34342z" fill="url(#color-14)" stroke="url(#color-15)" stroke-width="0" stroke-linecap="butt"/><path d="M257.02603,171.67628c0,-5.99293 4.85823,-10.85115 10.85115,-10.85115c5.99293,0 10.85115,4.85823 10.85115,10.85115c0,5.99293 -4.85823,10.85115 -10.85115,10.85115c-5.99293,0 -10.85115,-4.85823 -10.85115,-10.85115z" fill="url(#color-16)" stroke="#000000" stroke-width="0" stroke-linecap="butt"/><g><path d="M312.38338,182.19911v-3.25l9.125,-5.25v14z" fill="url(#color-17)" stroke="#000000" stroke-width="0" stroke-linecap="butt"/><path d="M294.80836,184.97245v-8.8h19.3v8.8z" fill="url(#color-18)" stroke="none" stroke-width="0" stroke-linecap="butt"/><path d="M300.08475,180.60325h-26.55556" fill="none" stroke="url(#color-19)" stroke-width="16.5" stroke-linecap="round"/><path d="M294.97366,189.49214v-18.11111" fill="none" stroke="url(#color-20)" stroke-width="7.5" stroke-linecap="round"/><path d="M278.86253,186.82547v-12.77777" fill="none" stroke="url(#color-21)" stroke-width="7.5" stroke-linecap="round"/></g><path d="M275.58034,189.27374c0,-5.99292 4.85823,-10.85116 10.85115,-10.85116c5.99293,0 10.85116,4.85823 10.85116,10.85116c0,5.99292 -4.85823,10.85115 -10.85116,10.85115c-5.99292,0 -10.85115,-4.85823 -10.85115,-10.85115z" fill="url(#color-22)" stroke="#000000" stroke-width="0" stroke-linecap="butt"/></g></g></svg>