<svg version="1.1" xmlns="http://www.w3.org/2000/svg" xmlns:xlink="http://www.w3.org/1999/xlink" width="37.6" height="43.6" viewBox="0,0,37.6,43.6"><g transform="translate(-221.20006,-158.2)"><g data-paper-data="{&quot;isPaintingLayer&quot;:true}" fill-rule="nonzero" stroke="none" stroke-linecap="butt" stroke-linejoin="miter" stroke-miterlimit="10" stroke-dasharray="" stroke-dashoffset="0" style="mix-blend-mode: normal"><path d="M221.20006,201.8v-43.6h37.6v43.6z" fill="none" stroke-width="0"/><path d="M226.89433,191.83475l-5.287,-22.75442c-0.122,-0.44736 -0.183,-0.91506 -0.183,-1.40311c0,-0.71848 0.27791,-1.35563 0.83372,-1.91144c0.55581,-0.55581 1.26752,-0.83372 2.13513,-0.83372c1.803,0 2.91463,0.99639 3.33488,2.98918l3.53822,17.69109h0.08135l5.40901,-18.24014c0.24401,-0.75915 0.65748,-1.35563 1.24041,-1.78945c0.58292,-0.43379 1.25397,-0.65069 2.01313,-0.65069c0.75916,0 1.4302,0.2169 2.01313,0.65069c0.59648,0.43381 1.00995,1.03029 1.24041,1.78945l5.40901,18.24014h0.08135l3.53822,-17.69109c0.18979,-0.97606 0.54903,-1.71488 1.07773,-2.21648c0.5287,-0.51514 1.28108,-0.77271 2.25714,-0.77271c0.88117,0 1.59288,0.27791 2.13513,0.83372c0.54226,0.55581 0.81338,1.19296 0.81338,1.91144c0,0.46092 -0.05423,0.92862 -0.16268,1.40311l-5.287,22.75442c-0.2169,0.93539 -0.6846,1.7081 -1.40309,2.31815c-0.70493,0.61005 -1.61321,0.91507 -2.72484,0.91507c-0.98962,0 -1.85723,-0.28469 -2.60283,-0.85406c-0.7456,-0.56937 -1.25397,-1.29464 -1.5251,-2.17581l-4.8193,-16.08467h-0.08133l-4.83964,16.08467c-0.25757,0.88117 -0.75916,1.60644 -1.50476,2.17581c-0.7456,0.56937 -1.61999,0.85406 -2.62316,0.85406c-1.09807,0 -2.00635,-0.30502 -2.72484,-0.91507c-0.70493,-0.61005 -1.16585,-1.38276 -1.38275,-2.31815z" fill="#ff0000" stroke-width="0.40889"/></g></g></svg>