<svg version="1.1" xmlns="http://www.w3.org/2000/svg" xmlns:xlink="http://www.w3.org/1999/xlink" width="65.59774" height="65.59774" viewBox="0,0,65.59774,65.59774"><defs><radialGradient cx="240" cy="180" r="32.79887" gradientUnits="userSpaceOnUse" id="color-1"><stop offset="0" stop-color="#000000"/><stop offset="1" stop-color="#000000" stop-opacity="0"/></radialGradient><linearGradient x1="248.30628" y1="203.98988" x2="248.30628" y2="156.01005" gradientUnits="userSpaceOnUse" id="color-2"><stop offset="0" stop-color="#c40000"/><stop offset="1" stop-color="#ff6a6a"/></linearGradient><linearGradient x1="255.85504" y1="179.97794" x2="268.92362" y2="179.97794" gradientUnits="userSpaceOnUse" id="color-3"><stop offset="0" stop-color="#b40000"/><stop offset="1" stop-color="#951414"/></linearGradient><linearGradient x1="214.18248" y1="180.00156" x2="265.7534" y2="180.00156" gradientUnits="userSpaceOnUse" id="color-4"><stop offset="0" stop-color="#000000"/><stop offset="1" stop-color="#a50000"/></linearGradient><linearGradient x1="214.39314" y1="179.99998" x2="265.96409" y2="179.99998" gradientUnits="userSpaceOnUse" id="color-5"><stop offset="0" stop-color="#000000"/><stop offset="1" stop-color="#a50000"/></linearGradient><linearGradient x1="243.58232" y1="180.13693" x2="256.25562" y2="180.13693" gradientUnits="userSpaceOnUse" id="color-6"><stop offset="0" stop-color="#000000"/><stop offset="1" stop-color="#b9b9b9"/></linearGradient><linearGradient x1="211.03692" y1="180.03643" x2="255.38342" y2="180.03643" gradientUnits="userSpaceOnUse" id="color-7"><stop offset="0" stop-color="#510000"/><stop offset="1" stop-color="#ff0000"/></linearGradient><linearGradient x1="224.93641" y1="160.75224" x2="224.93641" y2="199.43686" gradientUnits="userSpaceOnUse" id="color-8"><stop offset="0" stop-color="#d90000"/><stop offset="1" stop-color="#ff0000"/></linearGradient><linearGradient x1="242.52838" y1="186.5557" x2="242.52838" y2="183.79108" gradientUnits="userSpaceOnUse" id="color-9"><stop offset="0" stop-color="#ff7d7d"/><stop offset="1" stop-color="#ff4949"/></linearGradient><linearGradient x1="242.56787" y1="176.40762" x2="242.56787" y2="173.64299" gradientUnits="userSpaceOnUse" id="color-10"><stop offset="0" stop-color="#d90000"/><stop offset="1" stop-color="#ff0000"/></linearGradient><linearGradient x1="214.63426" y1="180.14981" x2="221.54044" y2="180.14981" gradientUnits="userSpaceOnUse" id="color-11"><stop offset="0" stop-color="#000000"/><stop offset="1" stop-color="#ff5c5c"/></linearGradient><linearGradient x1="218.01493" y1="180.07271" x2="225.24933" y2="180.07271" gradientUnits="userSpaceOnUse" id="color-12"><stop offset="0" stop-color="#000000"/><stop offset="1" stop-color="#ff5c5c"/></linearGradient><linearGradient x1="222.98649" y1="180.06279" x2="230.22088" y2="180.06279" gradientUnits="userSpaceOnUse" id="color-13"><stop offset="0" stop-color="#000000"/><stop offset="1" stop-color="#ff5c5c"/></linearGradient><linearGradient x1="228.55293" y1="180.10577" x2="235.78731" y2="180.10577" gradientUnits="userSpaceOnUse" id="color-14"><stop offset="0" stop-color="#000000"/><stop offset="1" stop-color="#ff5c5c"/></linearGradient><linearGradient x1="229.77276" y1="183.99382" x2="229.77276" y2="186.75844" gradientUnits="userSpaceOnUse" id="color-15"><stop offset="0" stop-color="#ff7d7d"/><stop offset="1" stop-color="#ff4949"/></linearGradient><linearGradient x1="229.77276" y1="176.2178" x2="229.77276" y2="173.45316" gradientUnits="userSpaceOnUse" id="color-16"><stop offset="0" stop-color="#ff7d7d"/><stop offset="1" stop-color="#ff4949"/></linearGradient><linearGradient x1="211.03692" y1="180.03643" x2="255.38342" y2="180.03643" gradientUnits="userSpaceOnUse" id="color-17"><stop offset="0" stop-color="#f30000"/><stop offset="1" stop-color="#ff7979"/></linearGradient><linearGradient x1="211.03695" y1="180.03643" x2="255.38343" y2="180.03643" gradientUnits="userSpaceOnUse" id="color-18"><stop offset="0" stop-color="#bd0000"/><stop offset="1" stop-color="#d83131"/></linearGradient><linearGradient x1="211.03692" y1="180.08918" x2="255.38342" y2="180.08918" gradientUnits="userSpaceOnUse" id="color-19"><stop offset="0" stop-color="#f30000"/><stop offset="1" stop-color="#ff7979"/></linearGradient><linearGradient x1="210.97372" y1="180.18715" x2="255.32021" y2="180.18715" gradientUnits="userSpaceOnUse" id="color-20"><stop offset="0" stop-color="#bd0000"/><stop offset="1" stop-color="#d83131"/></linearGradient></defs><g transform="translate(-207.20113,-147.20113)"><g data-paper-data="{&quot;isPaintingLayer&quot;:true}" fill-rule="nonzero" stroke-width="0" stroke-linecap="butt" stroke-linejoin="miter" stroke-miterlimit="10" stroke-dasharray="" stroke-dashoffset="0" style="mix-blend-mode: normal"><path d="M207.20113,180c0,-18.11432 14.68456,-32.79887 32.79887,-32.79887c18.11432,0 32.79887,14.68456 32.79887,32.79887c0,18.11432 -14.68456,32.79887 -32.79887,32.79887c-18.11432,0 -32.79887,-14.68456 -32.79887,-32.79887z" fill="url(#color-1)" stroke="#000000"/><path d="M237.08514,156.01007c3.00112,0 9.84083,0.34678 9.84083,0.34678l2.56538,2.70673c0,0 5.01587,1.766 5.89402,2.49864c5.60531,4.67641 13.54115,12.73742 13.54115,12.73742l0.00025,11.38498c0,0 -7.06958,7.10372 -13.09819,12.12997c-1.13897,0.94959 -6.22548,3.07697 -6.22548,3.07697l-2.50742,2.81638c0,0 -7.33794,0.28198 -10.01051,0.28198c-12.53243,0 -12.53243,-47.97983 0,-47.97983z" fill="url(#color-2)" stroke="none"/><path d="M268.92362,185.58092l-7.53951,0.59693l-6.04099,-0.94624c0,0 0.07438,-3.92537 0.07438,-5.26882c0,-1.27057 -0.02276,-4.85083 -0.02276,-4.85083l5.98303,-1.27152l7.54586,0.53453z" fill="url(#color-3)" stroke="none"/><path d="M265.36841,183.46857l-5.07591,0.37062l-4.06703,-0.58749c0,0 0.05007,-2.4372 0.05007,-3.27133c0,-0.78889 -0.01532,-3.0118 -0.01532,-3.0118l4.02802,-0.78947l5.08019,0.33189z" fill="#8b0e0e" stroke="none"/><path d="M232.45229,158.69209c0,0 2.09439,-2.68045 4.42217,-2.68045c2.67256,0 10.01051,0.28198 10.01051,0.28198l2.50742,2.81638z" data-paper-data="{&quot;index&quot;:null}" fill="url(#color-4)" stroke="none"/><path d="M249.60308,200.89153l-2.50742,2.81637c0,0 -7.33794,0.28198 -10.01051,0.28198c-2.32777,0 -4.42217,-2.68045 -4.42217,-2.68045z" fill="url(#color-5)" stroke="none"/><path d="M250.91734,193.118c-1.12446,-0.07727 -7.33502,-0.14627 -7.33502,-0.14627v-25.74544c0,0 5.12858,-0.16458 8.05414,0c0.67702,0.03809 1.97309,1.11107 2.74332,1.95854c0.76947,0.84663 1.87584,3.12381 1.87584,3.12381l-0.84402,2.56968l-0.08259,10.55598l0.90293,2.40193c0,0 -0.77607,2.39805 -1.46257,3.2447c-0.7012,0.8648 -2.85572,2.10555 -3.85206,2.03708z" fill="url(#color-6)" stroke="none"/><path d="M213.93929,169.03002c3.56548,-5.47012 9.16337,-8.27778 9.16337,-8.27778c0,0 1.972,-2.19457 4.39931,-3.30931c2.13091,-0.97864 4.85765,-0.36907 6.66417,-0.36907c8.40992,0 14.56508,9.34331 14.56508,9.34331l0.52638,7.32692l-2.09819,2.6364l0.01032,7.4709l2.11736,2.76894l-0.49694,7.3225c0,0 -6.41482,9.08123 -14.86892,9.08123c-1.73529,0 -4.11261,0.24787 -6.17815,-0.56904c-2.43851,-0.96441 -4.44248,-3.01817 -4.44248,-3.01817c0,0 -6.02416,-3.36816 -9.4491,-7.80462c-0.29627,-0.38375 -0.63903,-2.35795 -0.36921,-4.16038c0.24783,-1.65562 1.09904,-3.16629 1.09904,-3.16629l0.1474,-8.50509c0,0 -0.82807,-1.44492 -1.06811,-3.00415c-0.25641,-1.66558 0.08008,-3.46159 0.27871,-3.76631z" fill="url(#color-7)" stroke="none"/><path d="M213.93929,169.03002c3.56548,-5.47012 9.16337,-8.27778 9.16337,-8.27778c0,0 5.65296,0.03062 7.78202,0.97068c2.14739,0.94816 5.04781,4.69426 5.04781,4.69426l0.52638,7.32692l-0.67611,2.6364l0.01032,7.4709l0.69528,2.76894l-0.49694,7.3225c0,0 -3.26487,3.59294 -5.34354,4.49283c-2.14925,0.93043 -7.34726,1.00119 -7.34726,1.00119c0,0 -6.02416,-3.36816 -9.4491,-7.80462c-0.29627,-0.38375 -0.63903,-2.35795 -0.36921,-4.16038c0.24783,-1.65562 1.09904,-3.20484 1.09904,-3.20484l0.03802,-7.77266c0,0 -0.71869,-2.13879 -0.95873,-3.69804c-0.25641,-1.66558 0.08008,-3.46159 0.27871,-3.76631z" fill="url(#color-8)" stroke="none"/><path d="M249.26351,186.5557h-12.75922l-0.71104,-2.54744l11.36084,-0.21716z" fill="url(#color-9)" stroke="none"/><path d="M247.19359,176.40762l-11.36084,-0.21716l0.71104,-2.54744h12.75922z" data-paper-data="{&quot;index&quot;:null}" fill="url(#color-10)" stroke="none"/><path d="M221.54044,184.03942l-6.90621,0.73243v-9.16701l6.90621,0.65532z" fill="url(#color-11)" stroke="none"/><path d="M225.24933,183.96232l-7.23438,0.73243c0,0 0.21878,-3.12979 0.21878,-4.66467c0,-1.52065 -0.21878,-4.50235 -0.21878,-4.50235l7.23438,0.65532z" fill="url(#color-12)" stroke="none"/><path d="M230.22088,183.9524l-7.23438,0.73243c0,0 0.21878,-3.12979 0.21878,-4.66467c0,-1.52065 -0.21878,-4.50235 -0.21878,-4.50235l7.23438,0.65532z" fill="url(#color-13)" stroke="none"/><path d="M235.78731,183.99537l-7.23438,0.73244c0,0 0.21878,-3.12979 0.21878,-4.66467c0,-1.52065 -0.21878,-4.50235 -0.21878,-4.50235l7.23438,0.65533z" fill="url(#color-14)" stroke="none"/><path d="M235.79686,183.99382l0.71104,2.54744l-7.91338,-1.81245z" data-paper-data="{&quot;index&quot;:null}" fill="url(#color-15)" stroke="none"/><path d="M228.5945,175.48279l7.91338,-1.81245l-0.71104,2.54744z" data-paper-data="{&quot;index&quot;:null}" fill="url(#color-16)" stroke="none"/><path d="M249.28707,186.62034l-0.49694,7.3225c0,0 -6.41482,9.08123 -14.86892,9.08123c-0.54304,0 8.18478,-4.17592 11.37447,-9.19346c1.54219,-2.42594 0.95254,-7.23697 0.95254,-7.23697z" fill="url(#color-17)" stroke="none"/><path d="M249.40557,186.62034l-0.49694,7.3225l-3.61296,-0.11224c0,0 0.68594,-2.12447 0.83624,-3.26638c0.16571,-1.25898 0.11631,-3.97061 0.11631,-3.97061z" fill="url(#color-18)" stroke="none"/><path d="M246.24822,173.53199c0,0 0.58965,-4.81104 -0.95254,-7.23698c-3.18969,-5.01755 -11.91752,-9.19346 -11.37447,-9.19346c8.4541,0 14.86892,9.08123 14.86892,9.08123l0.49694,7.3225z" data-paper-data="{&quot;index&quot;:null}" fill="url(#color-19)" stroke="none"/><path d="M249.25758,173.74411l-2.09819,2.63639l0.01032,7.47091l2.11736,2.76894l-4.89776,-2.78955l-0.00229,-7.45004z" fill="#a82020" stroke="none"/><path d="M249.31341,186.60846h-3.03443l-1.93938,-2.76549l2.8145,-0.05189z" fill="#d32828" stroke="none"/><path d="M247.14305,176.40762l-2.87175,-0.04882l1.8729,-2.8213l3.13386,0.02639z" data-paper-data="{&quot;index&quot;:null}" fill="#d32828" stroke="none"/><path d="M246.18501,173.62997c0,0 0.0494,-2.71163 -0.11631,-3.97061c-0.1503,-1.1419 -0.83624,-3.26638 -0.83624,-3.26638l3.61296,-0.11224l0.49694,7.3225z" data-paper-data="{&quot;index&quot;:null}" fill="url(#color-20)" stroke="none"/></g></g></svg>