<svg version="1.1" xmlns="http://www.w3.org/2000/svg" xmlns:xlink="http://www.w3.org/1999/xlink" width="450" height="292.33333" viewBox="0,0,450,292.33333"><defs><linearGradient x1="54.41667" y1="-8.91666" x2="425.58334" y2="362.25" gradientUnits="userSpaceOnUse" id="color-1"><stop offset="0" stop-color="#ff00da"/><stop offset="1" stop-color="#bf00ff"/></linearGradient><linearGradient x1="370.69364" y1="253.49091" x2="443.47388" y2="253.49091" gradientUnits="userSpaceOnUse" id="color-2"><stop offset="0" stop-color="#dcd0e8"/><stop offset="1" stop-color="#ffffff"/></linearGradient><linearGradient x1="254.75" y1="229.6312" x2="296.43574" y2="229.6312" gradientUnits="userSpaceOnUse" id="color-3"><stop offset="0" stop-color="#ffffff"/><stop offset="1" stop-color="#dcd0e8"/></linearGradient><linearGradient x1="270" y1="157.33334" x2="374.66667" y2="262.00001" gradientUnits="userSpaceOnUse" id="color-4"><stop offset="0" stop-color="#f6f3f9"/><stop offset="1" stop-color="#e7def0"/></linearGradient><linearGradient x1="275.41667" y1="237.29787" x2="319.1024" y2="237.29787" gradientUnits="userSpaceOnUse" id="color-5"><stop offset="0" stop-color="#ffffff"/><stop offset="1" stop-color="#eae2f1"/></linearGradient><linearGradient x1="356" y1="160.83334" x2="356" y2="200.16667" gradientUnits="userSpaceOnUse" id="color-6"><stop offset="0" stop-color="#636363"/><stop offset="1" stop-color="#000000"/></linearGradient><linearGradient x1="322.10459" y1="235.96454" x2="389.43574" y2="235.96454" gradientUnits="userSpaceOnUse" id="color-7"><stop offset="0" stop-color="#ffffff"/><stop offset="1" stop-color="#dcd0e8"/></linearGradient><linearGradient x1="255.99644" y1="76.91666" x2="255.99644" y2="121.91667" gradientUnits="userSpaceOnUse" id="color-8"><stop offset="0" stop-color="#000000"/><stop offset="1" stop-color="#636363"/></linearGradient><linearGradient x1="246.49491" y1="99.00276" x2="305.21419" y2="157.72204" gradientUnits="userSpaceOnUse" id="color-9"><stop offset="0" stop-color="#ffffff"/><stop offset="1" stop-color="#e9e0f2"/></linearGradient><linearGradient x1="246.91667" y1="128.25" x2="246.91667" y2="134.25" gradientUnits="userSpaceOnUse" id="color-10"><stop offset="0" stop-color="#ffffff"/><stop offset="1" stop-color="#000000"/></linearGradient><linearGradient x1="279.82016" y1="107.34918" x2="279.82016" y2="131.92452" gradientUnits="userSpaceOnUse" id="color-11"><stop offset="0" stop-color="#000000"/><stop offset="1" stop-color="#636363"/></linearGradient><linearGradient x1="316.49644" y1="83.69849" x2="316.49644" y2="127.58334" gradientUnits="userSpaceOnUse" id="color-12"><stop offset="0" stop-color="#ffffff"/><stop offset="1" stop-color="#dcd0e8"/></linearGradient><linearGradient x1="324.5" y1="91.41667" x2="324.5" y2="108.75" gradientUnits="userSpaceOnUse" id="color-13"><stop offset="0" stop-color="#000000"/><stop offset="1" stop-color="#000000" stop-opacity="0"/></linearGradient><linearGradient x1="321.16667" y1="108.75" x2="321.16667" y2="115.75" gradientUnits="userSpaceOnUse" id="color-14"><stop offset="0" stop-color="#000000"/><stop offset="1" stop-color="#000000" stop-opacity="0"/></linearGradient><linearGradient x1="331.5" y1="109.08334" x2="331.5" y2="120.75" gradientUnits="userSpaceOnUse" id="color-15"><stop offset="0" stop-color="#000000"/><stop offset="1" stop-color="#000000" stop-opacity="0"/></linearGradient><linearGradient x1="334.66667" y1="99.75" x2="334.66667" y2="108.41667" gradientUnits="userSpaceOnUse" id="color-16"><stop offset="0" stop-color="#000000"/><stop offset="1" stop-color="#000000" stop-opacity="0"/></linearGradient></defs><g transform="translate(-15,-30.5)"><g data-paper-data="{&quot;isPaintingLayer&quot;:true}" fill-rule="nonzero" stroke-linejoin="miter" stroke-miterlimit="10" stroke-dasharray="" stroke-dashoffset="0" style="mix-blend-mode: normal"><path d="M15,322.83333v-292.33333h450v292.33333z" fill="url(#color-1)" stroke="none" stroke-width="0" stroke-linecap="butt"/><g stroke="none" stroke-width="0.5" stroke-linecap="butt"><path d="M92.69975,259.47038c-0.40772,-0.25478 -0.77757,0.1146 -0.77757,0.1146l-0.46013,0.48452c-1.55692,0.4955 -4.08638,0.42317 -5.62457,-0.08956c-1.93551,-0.0129 -4.15319,0.31349 -5.97585,-0.4505c-1.51473,-0.63492 -2.45461,-2.21342 -3.47922,-3.39571c-2.61189,-3.01383 -4.48802,-5.12226 -2.48097,-9.13634c0.47282,-1.66323 3.46752,-3.51943 5.16773,-3.72494c0.37621,-0.04547 2.22782,0.12286 2.53544,-0.18476c0.43112,-0.43112 0.14942,-2.87464 0.14942,-3.41724c0,-3.51065 -0.41824,-6.84519 -1.18194,-10.28734c-1.7963,-8.07805 -2.21465,-16.34372 -3.82634,-24.43414c-1.38995,-6.94974 -3.61622,-14.05616 -4.52241,-21.05522c0.81805,0.08302 1.71509,0.14808 2.5156,0.20551c8.82856,0.63062 17.94867,1.40995 26.02896,-2.64528c1.56381,-1.11589 3.01792,-2.50864 4.84844,-3.10456l0.73418,-0.59574c0,0 0.48267,-0.44141 0.04483,-0.92199c-0.43783,-0.48058 -0.8446,0.00266 -0.8446,0.00266l-0.26699,0.31786c-1.94472,0.66118 -3.43787,1.99843 -5.1006,3.19273c-7.82055,3.89449 -16.90348,3.0711 -25.43815,2.46149c-8.45131,-0.60097 -18.06302,-2.66804 -25.77549,-6.19363c-2.11741,-0.96546 -4.70683,-2.3181 -6.27976,-4.08253c-3.78143,-4.2418 -2.75614,-12.07012 -2.01719,-17.24838c0.21544,-1.11602 0.5069,-2.36263 0.90843,-3.61162c1.61631,2.23678 4.45299,4.18411 6.45394,4.98054c0.25519,0.10157 0.78108,0.27925 1.38341,0.42652c0.43013,1.50666 1.23044,2.86755 2.42241,3.83245c1.69762,1.37421 5.16271,3.21683 7.25766,1.2533c1.05817,-0.99179 1.30717,-2.93088 1.93743,-4.24198c0.01074,-0.62761 0.01793,-1.25648 0.01793,-1.88418c0,-0.16097 -0.01961,-0.43681 -0.05481,-0.68837c0.25343,0.16142 0.61821,0.29021 0.8478,0.40262c1.04386,0.51111 4.72196,1.12821 5.83436,0.40332c3.0429,-1.98287 1.35026,-6.9599 0.12126,-9.25276c-2.17576,-1.15206 -3.8613,-2.54848 -6.30845,-3.15538c-1.4221,-0.35269 -3.36432,-0.17435 -4.97162,-0.09259c-0.84446,-2.79833 -0.66434,-5.48975 -0.66434,-8.4289c-0.00862,-8.63765 3.1052,-16.9994 8.10662,-23.88022c4.35463,-5.23412 9.03717,-9.99957 15.61995,-12.34506c1.93565,-0.68969 3.91877,-1.72901 5.98238,-1.71245c4.5933,0 9.31308,-0.25364 13.87007,0.44493c2.88636,0.44247 5.69496,1.42748 8.52046,2.13401c0,0 0.02998,0.00748 0.07846,0.01266c0.04834,0.00674 0.0793,0.00674 0.0793,0.00674l0.00891,-0.0019c0.08823,0.00029 0.20024,-0.01317 0.30654,-0.06533l0.57816,-0.12321c0.26241,-0.26638 0.52528,-0.53278 0.7877,-0.79915c6.24448,-3.04685 13.71115,-1.21694 20.43416,-1.17675c1.67769,-0.02535 2.9902,0.92107 4.47916,1.66555c2.69952,1.34976 4.24324,2.86275 5.80907,5.39576c1.69146,2.73623 3.83022,4.46921 4.83515,7.74364c0.08797,0.34734 0.13575,0.7765 0.2161,1.12986c-1.00797,-1.01662 -2.36819,-1.63998 -3.96404,-1.65774l-0.72385,0.28546c0,0 -0.49603,0.24803 -0.34273,0.74409c-1.18266,0.52789 -1.80142,2.11009 -1.25193,3.42959c0.72395,1.73842 5.23655,4.74339 7.3167,3.48688c0.26085,2.92873 0.26801,5.93128 -0.01607,8.86905c-0.28507,-0.12839 -0.67607,-0.12711 -1.08759,-0.13169l-0.21659,0.00007c0,0 -0.5033,0.00011 -0.62411,0.44319c-2.62528,0.12679 -4.33165,1.42863 -4.31705,4.24917c0.00432,0.83359 1.09894,1.78821 0.63661,2.48184c-1.05319,1.58005 -3.44875,0.29057 -4.28787,2.51321c-0.94444,2.93708 3.3611,5.07182 5.85508,3.84342c0.35951,-0.17708 0.67769,-0.46693 0.9519,-0.82858c-0.18333,0.40795 -0.38959,0.8209 -0.62647,1.25189c-0.55077,1.00204 -1.22446,2.36606 -2.07222,3.16134c-4.61633,4.33057 -9.57711,-0.14125 -14.20337,-1.98283c-4.63773,-2.7938 -8.60819,-5.65077 -12.69205,-9.18694c-1.54649,-1.33908 -3.42957,-2.53522 -4.33445,-4.38847c0,0 -0.29004,-0.58155 -0.87153,-0.2908c-0.58149,0.29074 -0.29949,0.78599 -0.29949,0.78599c1.17749,2.30952 3.48349,3.6341 5.3441,5.38592c3.76509,3.54495 7.87684,6.13085 12.30335,8.777c2.96561,1.19152 5.5708,3.29957 8.78836,3.94116c1.19495,0.23828 2.29223,0.19476 3.29031,-0.07012c1.22936,1.8257 2.71396,3.46088 4.04019,5.21555c0.41948,1.5175 1.4651,3.07154 2.29267,4.26661c3.11581,4.49938 6.98501,8.56903 10.61406,12.65355c0.3992,0.48728 0.7999,0.97534 1.20103,1.46109c-0.34197,0.16332 -0.34187,0.58746 -0.34187,0.58746c0,3.12935 -0.42456,6.62375 0.30591,9.68869c1.01448,4.25661 3.29309,7.53567 5.89298,10.94846c4.0485,5.39803 9.24757,12.68757 16.69788,12.68757l0.49678,-0.0306c0,0 0.25197,0.03037 0.41848,-0.05717c1.2471,3.17613 2.29262,6.47278 3.23268,9.91056c1.10641,4.04612 2.13032,8.08366 2.92409,12.15268c-0.11801,0.09474 -0.21392,0.24872 -0.21392,0.49823c0,0.39181 0.23605,0.54759 0.42369,0.60945c0.78455,4.26158 1.29707,8.57064 1.36877,12.97527c0.00613,2.37951 0.24705,5.09807 -0.40249,7.41841c-1.27285,4.54693 -5.25769,7.00224 -9.54953,8.24591l0.21969,0.38452c-0.10021,0.10092 -0.20055,0.20198 -0.30075,0.3029c-0.82234,1.51985 -4.22249,1.20821 -5.85583,1.20821c-4.79665,0 -9.04684,2.59031 -13.66495,3.76443c-7.57615,-0.0574 -17.18912,1.1233 -22.30484,-5.81721c-1.03542,-1.39663 -1.59318,-2.41563 -1.51144,-4.1796c0.05517,-1.19053 0.10669,-2.53129 0.49522,-3.6737c1.7116,-5.03274 7.41539,-1.97774 11.51439,-1.62523l0.00008,0.33312l1.15523,0.00027c0.35906,0 0.64967,-0.29084 0.64967,-0.6499c0,-0.17953 -0.0331,-0.26498 -0.15074,-0.38264l-0.57802,-0.57781l-0.01388,0.01387l-0.03197,-0.05553c-4.04133,-2.74705 -6.97383,-6.85775 -9.29088,-11.10628c-1.08523,-1.98986 -2.28463,-4.14515 -2.44849,-6.44241c-0.69351,-9.01555 0.88852,-18.22665 10.6185,-21.32858c6.85021,-1.36446 15.30526,-0.89165 21.06333,3.4321c0,0 0.51991,0.39042 0.90998,-0.12969c0.39007,-0.5201 -0.05383,-0.86882 -0.05383,-0.86882c-6.08765,-4.5605 -14.93135,-5.09285 -22.17701,-3.63813c-5.86969,1.86141 -9.0624,5.79459 -10.58345,10.60277c-0.07505,-0.17329 -0.23703,-0.35979 -0.5854,-0.35979c-0.65012,0 -0.65093,0.65058 -0.65093,0.65058l-0.00013,0.28902c0,3.52065 -0.57946,7.0268 -0.58218,10.54848c0.00992,8.23898 -2.4048,16.65903 -3.57307,24.77249c-0.53129,3.77606 -2.52404,8.41822 -5.70334,10.67646c-2.71909,1.93137 -6.45747,1.90023 -9.59339,1.90023c-6.99919,0 -18.24821,1.02831 -19.73327,-7.78307c0.02483,-3.79146 0.58749,-6.12391 4.02612,-8.13438c1.32317,-0.77363 5.23289,-0.26471 6.03652,-1.72032c0.2089,-0.37837 -0.19213,-0.76075 -0.24289,-1.18996c-0.25384,-2.14666 -0.88078,-4.38839 -0.85723,-6.5276c0,-8.8612 -0.66228,-17.46502 -1.86038,-26.25106c-1.03129,-7.55998 -2.50183,-14.93248 -2.50183,-22.59787c0,0 -0.00123,-0.65196 -0.65135,-0.65196c-0.65012,0 -0.57726,0.60317 -0.57726,0.60317c0,7.72558 1.43438,15.1222 2.47295,22.74134c1.19023,8.72839 1.83306,17.26834 1.83306,26.07109c0.0124,1.43321 0.24072,3.03025 0.53432,4.44574c0.07473,0.36025 0.73427,2.63309 0.6754,2.86145c-0.14252,0.55285 -1.14469,0.07631 -1.7021,0.1998c-1.09029,0.24155 -2.84601,0.42373 -3.81884,0.9693c-3.88937,2.18119 -4.63945,4.98431 -4.64097,9.20247c0.04013,0.24323 0.08622,0.47987 0.13842,0.71018c-0.04408,0.01508 -0.09213,0.11207 -0.09213,0.11207l-0.49295,0.25361c-0.11458,0.03819 -0.22932,0.07635 -0.34391,0.11454z" data-paper-data="{&quot;noHover&quot;:false,&quot;origItem&quot;:[&quot;Path&quot;,{&quot;applyMatrix&quot;:true,&quot;segments&quot;:[[[498.19233,627.74364],[-0.26437,0.08812],[0,0]],[499.32918,627.15836],[[499.49135,627.09332],[-0.10169,0.0348],[-0.12044,-0.5314]],[[499.17158,625.45464],[0.09258,0.56119],[0.0035,-9.73239]],[[509.92762,604.02803],[-8.97379,5.03258],[2.24454,-1.25875]],[[518.73359,601.79057],[-2.51557,0.55731],[1.28608,-0.28493]],[[522.65836,601.32918],[-0.32884,1.27556],[0.13584,-0.5269]],[[521.06825,594.92452],[0.17241,0.83117],[-0.67743,-3.26589]],[[519.83333,584.66667],[0.02859,3.30677],[0,-20.31026]],[[515.58576,524.50849],[2.74618,20.13868],[-2.39626,-17.57936]],[[509.83333,472],[0,17.82494],[0,0]],[[511.33333,470.5],[-1.5,0],[1.5,0]],[[512.83333,472],[0,0],[0,17.68607]],[[518.55825,524.10315],[-2.37947,-17.44285],[2.76432,20.27169]],[[522.83333,584.66667],[0,-20.44513],[-0.05433,4.93572]],[[524.8083,599.7271],[-0.58568,-4.9529],[0.11711,0.99031]],[[525.34164,602.67082],[0.48198,-0.873],[-1.85418,3.35847]],[[511.40571,606.63863],[3.0529,-1.78496],[-7.93383,4.63871]],[[502.16175,625.21203],[0.0573,-8.7479],[3.42642,20.33016]],[[547.66667,643.16667],[-16.14897,0],[7.23538,0]],[[569.7896,638.78314],[-6.27366,4.45617],[7.33548,-5.21037]],[[582.93934,614.15135],[-1.22582,8.71235],[2.69551,-18.71989]],[[591.16667,557],[0.02289,19.00951],[0.00628,-8.12547]],[[592.5,532.66667],[0,8.12306],[0,0]],[592.5,532],[[594,530.5],[-1.5,0],[0.80378,0]],[[595.35001,531.33054],[-0.17316,-0.39982],[3.50946,-11.09373]],[[619.74161,506.89097],[-13.54292,4.29476],[16.71764,-3.35642]],[[670.9,515.3],[-14.0458,-10.52228],[0,0]],[[671.2,517.4],[0.9,-1.2],[-0.9,1.2]],[[669.1,517.7],[0,0],[-13.28538,-9.97602]],[[620.49142,509.79576],[15.80524,-3.14817],[-22.4496,7.15697]],[[595.95576,559.03395],[-1.6001,-20.80124],[0.37807,5.3004]],[[601.52329,573.71576],[-2.50391,-4.59115],[5.34604,9.80247]],[[622.9549,599.34321],[-9.32442,-6.33817],[0,0]],[623.02867,599.47133],[623.06066,599.43934],[[624.39399,600.77267],[0,0],[0.27145,0.27145]],[[624.83333,601.83333],[0,-0.41421],[0,0.82843]],[[623.33333,603.33333],[0.82843,0],[0,0]],[620.66667,603.33333],[[620.66667,602.56463],[0,0],[-9.45748,-0.81333]],[[594.08548,606.32014],[3.9491,-11.61185],[-0.89643,2.63584]],[[592.94091,614.7969],[0.12729,-2.74687],[-0.1886,4.06994]],[[596.37343,624.24799],[-2.38898,-3.22239],[11.80332,16.01358]],[[647.81673,637.67791],[-17.48016,-0.13244],[10.65517,-2.70901]],[[679.33333,629],[-11.06713,0],[3.76854,0]],[[692.83999,626.21568],[-1.89736,3.50671],[0.2312,-0.23286]],[[693.53358,625.51709],[-0.2312,0.23286],[0,0]],[[693.02664,624.62996],[0,0],[9.90238,-2.86948]],[[715.05074,605.61317],[-2.9368,10.49096],[1.49868,-5.35365]],[[715.97546,588.50143],[0.01414,5.49016],[-0.16543,-10.16263]],[[712.81107,558.57257],[1.81016,9.83257],[-0.43294,-0.14272]],[[711.83333,557.16667],[0,0.90399],[0,-0.57568]],[[712.32656,556.01765],[-0.27229,0.2186],[-1.83144,-9.38829]],[[705.57439,527.98794],[2.55278,9.33547],[-2.16896,-7.93187]],[[698.11155,505.13136],[2.87738,7.32817],[-0.38417,0.20197]],[697.33333,505.33333],[[696,505.33333],[0,0],[-17.18981,0]],[[657.47005,476.07117],[9.34095,12.45469],[-5.99863,-7.87422]],[[643.87049,450.83181],[2.34068,9.82112],[-1.68538,-7.07161]],[[643.16667,428.5],[0,7.22023],[0,0]],[[643.95569,427.14573],[-0.78902,0.37683],[-0.9255,-1.12076]],[[641.18553,423.77843],[0.92105,1.12427],[-8.37319,-9.42406]],[[616.71331,394.61883],[7.18898,10.38126],[-1.90944,-2.75733]],[[611.43141,384.78382],[0.96784,3.50128],[-3.05995,-4.04847]],[[602.12174,372.76077],[2.83647,4.21235],[-2.30284,0.61113]],[[594.53561,372.92635],[2.75705,0.54977],[-7.42375,-1.48033]],[[574.28091,363.84377],[6.84243,2.74917],[-10.21313,-6.10534]],[[545.92562,343.59812],[8.68707,8.17915],[-4.29292,-4.04192]],[[533.60581,331.17082],[2.71678,5.32869],[0,0]],[[534.27663,329.15836],[-1.34164,0.67082],[1.34164,-0.67082]],[[536.28909,329.82918],[0,0],[2.08779,4.27594]],[[546.29825,339.95422],[-3.56816,-3.08963],[9.42253,8.15886]],[[575.61399,361.15623],[-10.70045,-6.44602],[10.67401,4.24902]],[[608.41298,365.74603],[-10.65107,9.99177],[1.956,-1.83492]],[[613.07402,358.61191],[-1.27077,2.31199],[0.54656,-0.9944]],[[614.51986,355.72375],[-0.42301,0.94123],[-0.63266,0.83443]],[[612.32403,357.63582],[0.82947,-0.40856],[-5.75426,2.83426]],[[598.82698,348.77566],[-2.17908,6.77661],[1.93609,-5.12823]],[[608.81823,342.80275],[-2.42998,3.64561],[1.06673,-1.60039]],[[607.25,337.25],[0.00996,1.92329],[-0.0337,-6.50773]],[[617.30959,327.27231],[-6.05722,0.29254],[0.27874,-1.02231]],[618.75,326.25],[[619.25,326.25],[0,0],[0.9495,0.01057]],[[621.65512,326.72452],[-0.65774,-0.29622],[0.65543,-6.77819]],[[621.69799,306.26464],[0.60185,6.75737],[-4.79943,2.89909]],[[604.82698,298.22434],[1.67034,4.011],[-1.26782,-3.04443]],[[607.78837,290.12513],[-2.72869,1.21798],[-0.35371,-1.14451]],[608.57918,288.40836],[[610.25,287.75],[0,0],[3.68204,0.04098]],[[619.40135,291.57712],[-2.32565,-2.34559],[-0.18539,-0.81531]],[[618.81873,289.15174],[0.20297,0.80139],[-2.31863,-7.55499]],[[607.67147,271.2886],[3.90263,6.3132],[-3.61279,-5.84432]],[[594.27663,258.84164],[6.2285,3.11425],[-3.43543,-1.71772]],[[583.94745,255],[3.87088,-0.05849],[-15.51176,-0.09272]],[[536.82452,257.71686],[14.40766,-7.02989],[-0.60547,0.6146]],[[535.00811,259.56066],[0.60547,-0.6146],[0,0]],[[533.67487,259.84491],[0,0],[-0.24526,0.12037]],[[532.96799,259.99562],[0.20356,0.00067],[0,0]],[532.94745,260],[[532.76457,259.98444],[0.11155,0.01556],[-0.11183,-0.01196]],[[532.58365,259.95521],[0,0],[-6.51918,-1.63015]],[[512.93447,255.03031],[6.65959,1.02091],[-10.51418,-1.61181]],[[480.94745,254],[10.59794,0],[-4.76131,-0.03819]],[[467.15105,257.94865],[4.46606,-1.59129],[-15.1882,5.41165]],[[431.13131,286.42112],[10.04728,-12.07649],[-11.53959,15.87585]],[[412.44745,341.5],[-0.01987,-19.92932],[0,6.78138]],[[413.98556,360.94043],[-1.94838,-6.45647],[3.70846,-0.18865]],[[425.29208,361.04013],[-3.28117,-0.81373],[5.64621,1.40025]],[[440.00811,368.43934],[-5.02004,-2.65809],[2.83562,5.29023]],[[439.73605,389.77598],[7.02076,-4.575],[-2.56661,1.6725]],[[426.27663,388.84164],[2.40845,1.17925],[-0.52972,-0.25937]],[[424.32054,387.91265],[0.58474,0.37244],[0.08123,0.58041]],[[424.44745,389.5],[0,-0.3714],[0,1.44827]],[[424.40732,393.84463],[0.02478,-1.44806],[-1.45419,3.02507]],[[419.94015,403.62452],[2.44148,-2.28831],[-4.8336,4.53036]],[[403.00578,400.66758],[3.91685,3.17066],[-2.7502,-2.22626]],[[397.41805,391.82121],[0.99242,3.47627],[-1.38971,-0.33981]],[[394.22612,390.83723],[0.58879,0.23436],[-4.61671,-1.83757]],[[379.52105,379.41963],[3.72925,5.16085],[-0.92644,2.88177]],[[377.42678,387.74817],[0.49707,-2.57496],[-1.70498,11.94761]],[[382.08606,427.52349],[-8.72475,-9.78695],[3.62916,4.071]],[[396.57564,436.93797],[-4.88542,-2.22756],[17.7947,8.13447]],[[456.0467,451.21755],[-19.49939,-1.3866],[19.69171,1.40655]],[[514.53965,445.53205],[-18.04406,8.98562],[3.83638,-2.75555]],[[526.31916,438.12829],[-4.48697,1.52552],[0,0]],[526.93725,437.39118],[[529.05627,437.4898],[-1.0102,-1.10882],[1.0102,1.10882]],[528.95765,439.60882],[[527.26784,440.97434],[0,0],[-4.22349,1.37497]],[[516.08838,448.10138],[3.60812,-2.57463],[-18.64333,9.35649]],[[455.83296,454.20993],[20.3698,1.45499],[-1.84699,-0.1325]],[[450.22846,453.72391],[1.88745,0.19153],[2.09083,16.14869]],[[460.64757,502.25598],[-3.20698,-16.03488],[3.7186,18.66673]],[[469.44841,558.60317],[-4.14455,-18.63818],[1.76205,7.94196]],[[472.16667,582.33333],[0,-8.1],[0,1.25189]],[[471.72733,590.39399],[0.9947,-0.9947],[-0.70976,0.70976]],[[465.87472,590.81883],[0.86801,-0.10492],[-3.92281,0.47417]],[[454.05249,599.24069],[1.09092,-3.83749],[-4.63078,9.26155]],[[459.76953,620.31663],[-6.02633,-6.9537],[2.36407,2.72786]],[[467.79208,628.14912],[-3.49488,-1.46492],[4.20535,1.76272]],[[481.57361,629.18604],[-4.46573,-0.02975],[3.54902,1.18301]],[[494.54474,629.39069],[-3.59222,1.14326],[0,0]],[495.60601,628.27267],[[497.39922,628.00801],[-0.94071,-0.58784],[0.26437,-0.08812]]],&quot;closed&quot;:true}]}" fill="#ffffff"/><path d="M64.63283,136.45946c-0.07482,-0.70326 -0.51486,-1.38218 -1.23875,-1.40422c-0.72793,-0.02216 0.57479,0.93933 1.23875,1.40422zM61.1536,138.57611c-2.60661,-2.78432 0.11929,-8.07861 4.06416,-5.51566c2.47379,1.6072 3.71747,5.97698 0.26505,7.42326c-1.35607,0.56808 -3.59965,0.15467 -4.27579,-1.25763c-0.02681,-0.05601 -0.04334,-0.31371 -0.05341,-0.64997zM63.10382,137.53309c-0.09032,-0.04032 -0.18276,-0.07813 -0.27533,-0.11546c-0.01207,0.10907 -0.0233,0.21804 -0.03139,0.32672c0.09881,0.07071 0.20025,0.13217 0.30291,0.18267c-0.03794,-0.14232 -0.02796,-0.27654 0.00381,-0.39392z" fill="#000000"/><path d="M85.48461,131.98758c0.02392,-0.02952 0.04007,-0.04566 0.04007,-0.04566l0.45499,-0.43407c4.31958,-2.84801 9.78371,-2.26379 13.49801,1.45051c0.82255,0.82809 2.1758,2.26166 2.55585,3.3473c0.88386,2.52481 0.27014,8.99943 -2.38049,10.39122c-3.24997,1.70649 -8.70554,0.91984 -12.08014,0.07619c-2.47837,-0.6277 -5.21373,-1.79973 -6.57832,-4.09303c-1.15403,-1.93943 -0.77002,-8.11113 0.84271,-9.75854c0.79586,-0.81296 2.25901,-1.01265 3.64731,-0.93391z" fill="#000000"/><path d="M62.64497,167.4685c-0.36062,0.54094 -0.90155,0.18032 -0.90155,0.18032l-0.913,-0.6117c-1.40619,-1.34393 -3.07132,-2.03589 -4.61638,-3.17306c-0.07814,-0.05751 -0.6484,-0.8181 -0.95833,-0.73489c-0.62317,0.1673 -0.9846,0.87111 -1.58148,1.11621c-1.93743,0.79557 -3.81118,1.93278 -5.81174,2.61244c0,0 -0.61676,0.20559 -0.82234,-0.41117c-0.20559,-0.61676 0.41117,-0.82234 0.41117,-0.82234c1.97508,-0.64313 3.82477,-1.8227 5.74597,-2.58853c0.64455,-0.25693 1.16831,-1.10666 1.88584,-1.19533c1.21164,-0.14973 1.21365,0.46994 1.9311,0.99877c1.54674,1.1401 3.22044,1.82922 4.62979,3.18368l0.82065,0.54407c0,0 0.54094,0.36062 0.18032,0.90155z" fill="#000000"/><path d="M182.86876,209.61857c0.17573,0 0.33518,0.06972 0.45219,0.18301c0.06588,-0.00209 0.10929,0.00411 0.10929,0.00411c7.77756,1.11107 15.33394,3.57596 22.36505,7.03432c7.9519,3.92165 15.22511,10.33726 16.55106,19.39242c0.66454,4.54048 1.83046,11.2549 -0.2617,15.58132c-1.62919,3.36907 -5.69783,5.68624 -8.73706,7.52259c-5.87849,3.55087 -12.27787,5.52736 -18.99595,6.8706c-2.16654,0.43319 -4.26585,1.16674 -6.47984,1.21581c-0.74786,0.01129 -1.49459,0.14422 -2.2199,0.32684l-0.05183,-0.00716l0.0012,0.01364l-1.2873,0.11349c-0.02138,0.00212 -0.04307,0.00322 -0.06501,0.00322c-0.35906,0 -0.65012,-0.29106 -0.65012,-0.65012c0,-0.20061 0.09086,-0.38 0.23368,-0.49926l0.98912,-0.83691l0.08817,0.1042c2.37068,-2.45942 5.47115,-4.23593 7.93134,-6.64254c3.39199,-3.31811 6.25683,-6.90034 8.03407,-11.2742c0.60073,-2.36552 1.23626,-4.71933 0.88945,-7.19553c-0.58449,-4.17335 -4.83082,-7.62082 -8.33048,-9.4851l-0.02334,-0.02176c-0.10015,0.02606 -0.17629,0.02605 -0.17629,0.02605c-2.25504,-0.01949 -3.6317,-1.91288 -5.8325,-2.01827c0.76913,4.2433 1.27193,8.53035 1.34319,12.91422c0.0065,2.50433 0.23451,5.32117 -0.44472,7.76404c-1.24006,4.45994 -4.80522,7.12743 -8.88815,8.63297c-0.11961,0.44554 -0.62497,0.44554 -0.62497,0.44554l0.17077,-0.19042c-0.17828,0.17678 -0.35654,0.35357 -0.53482,0.53035c-1.90691,2.5327 -5.71059,1.19591 -8.48902,1.67427c-4.06798,0.70037 -7.80652,2.7588 -11.87136,3.75978c-8.09162,0.04916 -18.06143,0.99062 -23.50044,-6.33796c-0.41794,-0.56616 -0.78047,-1.26495 -1.0678,-2.04219c-0.04377,0.00568 -0.07132,0.00568 -0.07132,0.00568c-0.57789,0 -1.73366,0 -2.31154,0c0,0 -0.43062,0 -0.59093,-0.35046c-0.97186,3.45155 -2.90247,6.97955 -5.67462,8.96826c-2.93242,2.10368 -6.94569,2.14531 -10.34865,2.14531c-7.26919,0 -17.74103,0.69855 -20.51344,-7.0047l-0.51827,0.25342c-0.28895,0.09631 -0.57788,0.19263 -0.86683,0.28894c0,0 -0.06722,0.02241 -0.16468,0.03023l-0.277,0.26721c-1.83997,0.62912 -4.65282,0.709 -6.51373,0.0887c-2.03751,0.01626 -4.33037,0.31036 -6.24413,-0.52419c-1.73277,-0.75562 -2.77519,-2.3453 -3.95379,-3.72208c-2.89633,-3.38336 -4.96273,-6.03429 -2.72312,-10.5135c0.6912,-1.87695 3.14956,-3.47989 5.01342,-4.12263c0.92394,-0.31862 2.23789,0.5576 2.92897,-0.13348c0.6084,-0.6084 -0.19042,-1.71378 -0.19042,-2.57419c0,-3.41506 -0.40137,-6.65237 -1.14718,-10.00293c-1.79581,-8.08659 -2.19443,-16.35412 -3.82011,-24.44873c-1.41275,-7.06375 -3.67373,-14.26557 -4.5628,-21.37811c0,0 -0.00264,-0.02116 -0.00315,-0.0563c-7.60517,-0.89165 -15.73766,-2.87054 -22.46931,-5.94778c-2.28851,-1.04866 -5.03221,-2.50346 -6.7264,-4.41644c-4.06511,-4.5901 -3.11793,-12.68429 -2.31474,-18.30077c0.30492,-1.58244 0.74745,-3.23289 1.36064,-4.79376c-0.30858,-0.67093 -0.49117,-1.35502 -0.50278,-2.03331c0,0 0,-0.65012 0.65012,-0.65012c0.20257,0 0.34202,0.06311 0.43803,0.15002c0.61457,-2.321 2.44967,-3.6571 4.75465,-4.19891c1.47851,-0.758 3.23283,-1.06338 5.30592,-0.71145c1.16399,0.19761 2.62669,0.0348 3.70012,0.4737c-0.6686,-2.66495 -0.54617,-5.22308 -0.54617,-8.06567c0.00062,-0.67121 0.01917,-1.34061 0.05513,-2.00773c-0.14297,0.05737 -0.27184,0.05737 -0.27184,0.05737h-0.86683c-1.18386,-0.02026 -1.8461,-0.4129 -2.89123,-0.93546c-8.17966,-4.08983 -7.30783,-13.22785 -7.29107,-21.0136c1.43926,-7.58773 4.93226,-19.22528 14.51644,-19.22528c5.02904,0 9.7972,2.77054 14.51484,4.36974c1.83866,0.62328 3.45852,1.72774 5.42221,1.69806c0,0 0.17066,0 0.3371,0.08744c0.73374,-0.32365 1.49026,-0.62549 2.27197,-0.90467c1.76113,-0.62898 3.30794,-1.33709 5.19238,-1.34982c4.66062,0 9.43693,-0.24725 14.06065,0.46157c2.92444,0.44831 5.76324,1.4401 8.62595,2.15618c0.25701,-0.25379 0.51403,-0.50758 0.77104,-0.76137c6.56098,-3.34489 14.11318,-1.37333 21.18401,-1.42296c4.60368,0.05523 9.25447,4.10525 11.38838,7.67637c0.41147,0.68861 1.22498,1.05488 1.70803,1.69531c1.38723,1.83916 2.5693,4.13825 3.26897,6.3784c1.46112,5.77723 1.92359,12.42208 1.05615,18.64991c-0.00705,0.35595 -0.06643,0.73637 -0.17233,1.12682c-0.36653,2.19701 -0.90408,4.33133 -1.62759,6.34503c-0.87823,3.75537 -2.9809,8.29106 -6.49009,9.99917c0.93141,1.34272 2.00424,2.5729 3.01381,3.85517c0.06576,-0.02057 0.1418,-0.03247 0.22974,-0.03247c0.65012,0 0.65012,0.65012 0.65012,0.65012c-0.00484,0.19928 0.01315,0.40557 0.05044,0.61683c0.02548,0.03575 0.05087,0.07156 0.07617,0.10745l0.55908,0.36008c0,0 0.54094,0.36062 0.18031,0.90155c-0.07724,0.11587 -0.16276,0.19037 -0.24946,0.23591c0.63189,1.27806 1.61424,2.55696 2.28829,3.45716c3.03345,4.05123 6.50963,7.80428 9.86688,11.58439c5.73097,6.99265 11.68623,13.80885 17.01791,21.11572c4.26386,5.84367 7.14286,11.97911 9.36686,18.62984c0.11803,-0.12067 0.28267,-0.19557 0.4648,-0.19557zM182.86876,210.91882c-0.03595,0 -0.07121,-0.00291 -0.10557,-0.00853c0.50692,1.57823 0.9798,3.18565 1.42813,4.82519c1.12374,4.10948 2.16355,8.20614 2.96584,12.33931h0.00963c2.18357,0.01888 3.6173,1.74549 5.56607,1.99332c0.02934,-0.04683 0.06693,-0.09416 0.11426,-0.14149c0.4597,-0.4597 0.91941,0 0.91941,0l0.27974,0.31953c3.87697,2.07158 8.3605,5.8424 9.00608,10.45195c0.37463,2.67485 -0.28645,5.22537 -0.94181,7.78158c-2.35571,5.83556 -6.61368,10.27719 -11.32643,14.38772c-1.02984,0.89824 -2.56066,2.42537 -4.04973,3.3468c0.36924,-0.05093 0.74076,-0.08289 1.11231,-0.09142c2.12448,-0.03425 4.16935,-0.77457 6.24994,-1.19081c6.57076,-1.31452 12.83004,-3.23414 18.57854,-6.70848c2.80786,-1.69656 6.73002,-3.85549 8.23891,-6.97577c1.96381,-4.06105 0.76896,-10.57277 0.14573,-14.82688c-1.2598,-8.60349 -8.27439,-14.70428 -15.83841,-18.41407c-6.90892,-3.39826 -14.33221,-5.82206 -21.97506,-6.9139c0,0 -0.20846,-0.02978 -0.37116,-0.17409c-0.00215,0.00002 -0.00429,0.00003 -0.00644,0.00003zM93.05481,259.31396l0.49272,-0.25367c0,0 0.02621,-0.01311 0.07029,-0.02819c-0.0522,-0.23032 -0.09847,-0.467 -0.1386,-0.71023c0.00152,-4.21816 0.77245,-7.10541 4.66182,-9.2866c0.97282,-0.54556 2.72635,-0.7282 3.81664,-0.96975c0.55741,-0.1235 1.55852,0.35287 1.70105,-0.19998c0.05887,-0.22837 -0.61445,-2.41562 -0.68917,-2.77587c-0.2936,-1.41549 -0.52284,-3.0127 -0.53523,-4.4459c0,-8.80275 -0.65073,-17.34501 -1.84095,-26.0734c-1.03857,-7.61914 -2.49319,-15.03234 -2.49319,-22.75792c0,0 0,-0.65012 0.65012,-0.65012c0.65012,0 0.65012,0.65012 0.65012,0.65012c0,7.66539 1.44997,15.02226 2.48126,22.58224c1.1981,8.78604 1.85288,17.38787 1.85288,26.24908c-0.02355,2.13921 0.60213,4.38074 0.85598,6.5274c0.05076,0.42922 0.44005,0.89748 0.23116,1.27585c-0.80363,1.45561 -4.71685,0.94608 -6.04002,1.7197c-3.43863,2.01048 -3.98163,4.25851 -4.00646,8.04997c1.48506,8.81138 12.72329,7.78179 19.72247,7.78179c3.13592,0 6.8693,0.03148 9.58838,-1.89988c3.1793,-2.25825 5.16799,-6.89971 5.69928,-10.67577c1.16828,-8.11346 3.57576,-16.53121 3.56584,-24.7702c0.00272,-3.52169 0.57789,-7.02576 0.57789,-10.54641v-0.28894c0,0 0,-0.65012 0.65012,-0.65012c0.34837,0 0.51006,0.18668 0.58511,0.35997c1.52105,-4.80818 4.70197,-8.73105 10.57166,-10.59246c7.24566,-1.45472 16.08511,-0.91592 22.17276,3.64459c0,0 0.5201,0.39007 0.13002,0.91017c-0.39007,0.5201 -0.91017,0.13002 -0.91017,0.13002c-5.75807,-4.32375 -14.21743,-4.79027 -21.06764,-3.42581c-9.72997,3.10194 -11.32761,12.32498 -10.6341,21.34053c0.16386,2.29727 1.32782,4.37343 2.41304,6.36331c2.31705,4.24852 5.24742,8.36025 9.28876,11.10729l0.03198,0.05553l0.01386,-0.01386l0.57789,0.57788c0.11765,0.11765 0.19042,0.28018 0.19042,0.4597c0,0.35906 -0.29106,0.65012 -0.65012,0.65012h-1.15577v-0.33317c-4.099,-0.3525 -9.80906,-3.40505 -11.52066,1.6277c-0.38853,1.14241 -0.4409,2.48342 -0.49607,3.67395c-0.08174,1.76397 0.45228,2.69961 1.4877,4.09623c5.11573,6.94051 14.7201,5.76332 22.29625,5.82072c4.6181,-1.17413 8.86309,-3.76112 13.65974,-3.76112c1.63334,0 5.03163,0.3131 5.85398,-1.20676c0.10021,-0.10092 0.20041,-0.20186 0.30062,-0.30277l-0.21971,-0.3845c4.29183,-1.24367 8.2727,-3.69522 9.54556,-8.24215c0.64955,-2.32035 0.40692,-5.03696 0.40079,-7.41647c-0.0717,-4.40463 -0.58695,-8.71001 -1.3715,-12.97159c-0.18764,-0.06186 -0.42377,-0.21754 -0.42377,-0.60934c0,-0.24951 0.09576,-0.40326 0.21377,-0.498c-0.79377,-4.06901 -1.82007,-8.10235 -2.92648,-12.14848c-0.94006,-3.43779 -1.9874,-6.73024 -3.2345,-9.90636c-0.16651,0.08754 -0.33729,0.08754 -0.33729,0.08754h-0.57789c-7.4503,0 -12.65092,-7.2846 -16.69942,-12.68263c-2.5999,-3.4128 -4.87976,-6.68248 -5.89424,-10.93909c-0.73047,-3.06494 -0.30505,-6.54957 -0.30505,-9.67893c0,0 0,-0.42364 0.34197,-0.58696c-0.40112,-0.48575 -0.80143,-0.97216 -1.20063,-1.45944c-3.62906,-4.08452 -7.4908,-8.1388 -10.6066,-12.63818c-0.82758,-1.19507 -1.86977,-2.74513 -2.28925,-4.26264c-1.32622,-1.75467 -2.80558,-3.38527 -4.03494,-5.21096c-0.99808,0.26488 -2.09299,0.31005 -3.28794,0.07176c-3.21756,-0.64159 -5.81307,-2.74499 -8.77867,-3.93652c-4.42651,-2.64614 -8.52448,-5.22979 -12.28958,-8.77475c-1.86061,-1.75183 -4.16208,-3.07664 -5.33957,-5.38617c0,0 -0.29074,-0.58149 0.29074,-0.87223c0.58149,-0.29074 0.87223,0.29074 0.87223,0.29074c0.90488,1.85325 2.79162,3.04925 4.33811,4.38833c4.08386,3.53616 8.06812,6.39545 12.70585,9.18925c4.62626,1.84159 9.59922,6.31986 14.21555,1.98928c0.84776,-0.79528 1.4694,-2.08998 2.02016,-3.09203c0.23689,-0.43099 0.4433,-0.84383 0.62665,-1.25177c-0.2742,0.36165 -0.5922,0.65165 -0.95171,0.82872c-2.49398,1.22841 -6.79425,-0.90304 -5.84981,-3.84012c0.83913,-2.22264 3.27716,-1.00868 4.33034,-2.58875c0.46234,-0.69364 -0.67537,-1.57306 -0.67969,-2.40664c-0.01461,-2.82054 1.73468,-4.19768 4.35996,-4.32447c0.12081,-0.44309 0.6243,-0.44309 0.6243,-0.44309h0.21671c0.41153,0.00458 0.75734,0.07728 1.04241,0.20566c0.28408,-2.93776 0.27943,-5.93887 0.01858,-8.8676c-2.08014,1.25651 -6.58818,-1.74636 -7.31213,-3.48478c-0.54949,-1.31949 0.10086,-2.98242 1.2835,-3.51031c-0.1533,-0.49605 0.34274,-0.74407 0.34274,-0.74407l0.72416,-0.28534c1.59585,0.01776 2.95835,0.64211 3.96632,1.65873c-0.08035,-0.35337 -0.16454,-0.70386 -0.25252,-1.05119c-1.00492,-3.27443 -3.13992,-5.00591 -4.83138,-7.74214c-1.56584,-2.53301 -3.10599,-4.04492 -5.80551,-5.39469c-1.48896,-0.74448 -2.79912,-1.69037 -4.47681,-1.66502c-6.72302,-0.04019 -14.17926,-1.86932 -20.42374,1.17753c-0.26241,0.26638 -0.52484,0.53275 -0.78726,0.79913l-0.57784,0.1232c-0.1063,0.05217 -0.21815,0.06561 -0.30637,0.06532l-0.0089,0.0019c0,0 -0.03091,0 -0.07926,-0.00674c-0.04847,-0.00518 -0.07841,-0.01266 -0.07841,-0.01266c-2.8255,-0.70653 -5.62988,-1.69205 -8.51623,-2.13452c-4.55699,-0.69858 -9.27033,-0.44655 -13.86362,-0.44655c-2.06361,-0.01655 -4.0439,1.02171 -5.97955,1.7114c-6.58278,2.34549 -11.25683,7.10625 -15.61146,12.34037c-5.00142,6.88082 -8.10646,15.23431 -8.09785,23.87196c0,2.93915 -0.17781,5.62743 0.66664,8.42575c1.6073,-0.08176 3.4783,-0.30947 4.9004,0.04321c2.44714,0.60689 4.20237,2.05487 6.37813,3.20693c1.229,2.29286 2.92498,7.26473 -0.11791,9.2476c-1.11241,0.72489 -4.78964,0.10615 -5.8335,-0.40496c-0.22959,-0.11241 -0.59437,-0.24122 -0.8478,-0.40263c0.03521,0.25155 0.05501,0.52701 0.05501,0.68798c0,0.6277 -0.00665,1.25541 -0.01739,1.88302c-0.63026,1.31111 -0.87796,3.24696 -1.93614,4.23875c-2.09495,1.96352 -5.64198,0.09263 -7.3396,-1.28158c-1.19198,-0.96489 -1.99168,-2.32748 -2.42181,-3.83414c-0.60232,-0.14727 -1.12824,-0.3249 -1.38343,-0.42647c-2.00095,-0.79643 -4.75707,-2.71177 -6.37338,-4.94855c-0.40153,1.249 -0.69225,2.49368 -0.90768,3.60971c-0.73896,5.17826 -1.76204,12.99738 2.0194,17.23918c1.57293,1.76443 4.16258,3.11491 6.27999,4.08037c7.71247,3.5256 17.32428,5.588 25.77559,6.18897c8.53467,0.60961 17.53112,1.43032 25.35167,-2.46418c1.66274,-1.1943 3.16069,-2.54771 5.1054,-3.20889l0.26788,-0.31947c0,0 0.48058,-0.43783 0.91841,0.04274c0.43783,0.48058 -0.04274,0.91841 -0.04274,0.91841l-0.73238,0.59184c-1.83052,0.59594 -3.28153,1.97308 -4.84534,3.08896c-8.08028,4.05524 -17.28699,3.27814 -26.11555,2.64753c-0.80052,-0.05743 -1.61103,-0.12763 -2.42907,-0.21065c0.90619,6.99907 3.12584,14.08474 4.51578,21.03449c1.61169,8.09043 2.01811,16.34361 3.81441,24.42166c0.76369,3.44216 1.17813,6.77433 1.17813,10.28499c0,0.54259 0.2407,3.06249 -0.19042,3.4936c-0.30762,0.30762 -2.1604,0.13866 -2.5366,0.18413c-1.70021,0.20551 -4.65111,1.98693 -5.12393,3.65015c-2.00705,4.01409 -0.13405,6.12078 2.47785,9.13461c1.02463,1.18229 1.96236,2.7598 3.47709,3.39472c1.82266,0.76399 4.0376,0.43652 5.9731,0.44942c1.5382,0.51273 4.06496,0.5842 5.62187,0.08869l0.45997,-0.48457c0,0 0.36949,-0.36949 0.7772,-0.11471c0.11458,-0.03819 0.22916,-0.07638 0.34375,-0.11458zM131.11189,255.2354c0.57789,0 1.15577,0 1.73366,0h0.25853c-0.77663,-3.24987 -0.28571,-7.23456 2.59953,-8.87284c1.84502,-1.04763 6.0116,-0.69894 8.82439,0.31666c-4.27104,-3.51628 -8.62999,-9.34567 -9.99807,-14.7171c-0.50412,7.23869 -2.45113,14.539 -3.4574,21.64462c-0.08214,0.56711 -0.19329,1.14848 -0.33289,1.73595c0.17662,-0.1073 0.37225,-0.1073 0.37225,-0.1073zM143.7543,135.33436c-0.39122,-0.35433 0.77282,0.69631 0.89337,1.43874c0.04409,0.27153 0.05882,0.5839 0.04516,0.91949c0.36996,-1.06544 0.68805,-2.16385 0.95637,-3.28647c-0.60689,0.44068 -1.28024,0.76645 -1.89491,0.92824zM50.44793,155.89823c0.27816,0.05143 0.56656,0.09512 0.86671,0.13129c0.42796,0.05158 -0.6811,-0.54513 -0.93453,-0.89382c-0.06475,-0.08909 -0.12296,-0.18342 -0.17484,-0.28181c0.00719,0.06176 0.01844,0.1237 0.03473,0.18572c0.07249,0.27608 0.14076,0.56464 0.20793,0.85861z" fill="#000000"/><path d="M182.85021,210.88336c0.16269,0.1443 0.37138,0.17394 0.37138,0.17394c7.64284,1.09183 15.09684,3.50827 22.00576,6.90652c7.56402,3.70978 14.61572,9.84856 15.87553,18.45206c0.62323,4.25411 1.8108,10.79525 -0.15302,14.8563c-1.50889,3.12029 -5.44671,5.29312 -8.25457,6.98969c-5.74849,3.47434 -12.04088,5.39692 -18.61163,6.71144c-2.0806,0.41623 -4.13268,1.15354 -6.25717,1.1878c-0.37155,0.00854 -0.70152,-0.03557 -1.07075,0.01536c1.48906,-0.92143 3.0172,-2.44995 4.04705,-3.34819c4.71274,-4.11053 8.95323,-8.55637 11.30893,-14.39192c0.65535,-2.55621 1.3283,-5.02207 0.95368,-7.69692c-0.6456,-4.60955 -5.11149,-8.39108 -8.98845,-10.46266l-0.27981,-0.31946c0,0 -0.45819,-0.46129 -0.91789,-0.00159c-0.04733,0.04733 -0.08451,0.09421 -0.11385,0.14103c-1.94877,-0.24783 -3.37936,-1.97848 -5.56291,-1.99736l-0.08101,-0.04919c-0.80228,-4.13317 -1.83341,-8.23914 -2.95715,-12.34862c-0.44833,-1.63954 -0.91928,-3.24842 -1.4262,-4.82665c0.03436,0.00562 0.06971,0.00847 0.10566,0.00847c0.00215,0 0.0043,-0.00002 0.00644,-0.00003z" data-paper-data="{&quot;noHover&quot;:false,&quot;origItem&quot;:[&quot;Path&quot;,{&quot;applyMatrix&quot;:true,&quot;segments&quot;:[[[705.41667,516.08333],[0.00496,0],[-0.08294,0]],[[705.17308,516.06366],[0.07928,0.01295],[1.1696,3.64138]],[[708.46815,527.19664],[-1.03442,-3.78285],[2.59275,9.48164]],[[715.31111,555.66667],[-1.85108,-9.53631],[0,0]],[[715.33333,555.66667],[0,0],[5.03806,0.04356]],[[728.17572,560.26579],[-4.49632,-0.57183],[0.0677,-0.10804]],[[728.43934,559.93934],[-0.1092,0.1092],[1.06066,-1.06066]],[730.56066,559.93934],[[731.20609,560.67658],[0,0],[8.94518,4.77969]],[[751.9855,584.79195],[-1.48955,-10.63544],[0.86436,6.17158]],[[749.81251,602.7461],[1.51207,-5.89785],[-5.43524,13.46415]],[[723.67947,635.94234],[10.87353,-9.48406],[-2.37611,2.07248]],[[714.33569,643.66428],[3.43566,-2.12598],[0.85193,-0.1175]],[[716.90208,643.45334],[-0.85727,0.0197],[4.90175,-0.07903]],[[731.32234,640.70583],[-4.80049,0.96036],[15.16046,-3.03294]],[[774.1879,625.2276],[-13.26329,8.01622],[6.47849,-3.91441]],[[793.19723,609.13267],[-3.4814,7.19932],[4.53103,-9.3699]],[[793.53346,574.92316],[1.43797,9.81534],[-2.90671,-19.85052]],[[756.99009,532.43709],[17.45217,8.55943],[-15.94071,-7.84067]],[[706.28787,516.48492],[17.63404,2.51915],[0,0]],[[705.43152,516.08326],[0.37537,0.33295],[-0.00495,0.00005]]],&quot;closed&quot;:true}]}" fill="#ffffff"/><path d="M92.69975,259.47038c-0.40772,-0.25478 -0.77757,0.1146 -0.77757,0.1146l-0.46013,0.48452c-1.55692,0.4955 -4.08638,0.42317 -5.62457,-0.08956c-1.93551,-0.0129 -4.15319,0.31349 -5.97585,-0.4505c-1.51473,-0.63492 -2.45461,-2.21342 -3.47922,-3.39571c-2.61189,-3.01383 -4.48802,-5.12226 -2.48097,-9.13634c0.47282,-1.66323 3.46752,-3.51943 5.16773,-3.72494c0.37621,-0.04547 2.22782,0.12286 2.53544,-0.18476c0.43112,-0.43112 0.14942,-2.87464 0.14942,-3.41724c0,-3.51065 -0.41824,-6.84519 -1.18194,-10.28734c-1.7963,-8.07805 -2.21465,-16.34372 -3.82634,-24.43414c-1.38995,-6.94974 -3.61622,-14.05616 -4.52241,-21.05522c0.81805,0.08302 1.71509,0.14808 2.5156,0.20551c8.82856,0.63062 17.94867,1.40995 26.02896,-2.64528c1.56381,-1.11589 3.01792,-2.50864 4.84844,-3.10456l0.73418,-0.59574c0,0 0.48267,-0.44141 0.04483,-0.92199c-0.43783,-0.48058 -0.8446,0.00266 -0.8446,0.00266l-0.26699,0.31786c-1.94472,0.66118 -3.43787,1.99843 -5.1006,3.19273c-7.82055,3.89449 -16.90348,3.0711 -25.43815,2.46149c-8.45131,-0.60097 -18.06302,-2.66804 -25.77549,-6.19363c-2.11741,-0.96546 -4.70683,-2.3181 -6.27976,-4.08253c-3.78143,-4.2418 -2.75614,-12.07012 -2.01719,-17.24838c0.21544,-1.11602 0.5069,-2.36263 0.90843,-3.61162c1.61631,2.23678 4.45299,4.18411 6.45394,4.98054c0.25519,0.10157 0.78108,0.27925 1.38341,0.42652c0.43013,1.50666 1.23044,2.86755 2.42241,3.83245c1.69762,1.37421 5.16271,3.21683 7.25766,1.2533c1.05817,-0.99179 1.30717,-2.93088 1.93743,-4.24198c0.01074,-0.62761 0.01793,-1.25648 0.01793,-1.88418c0,-0.16097 -0.01961,-0.43681 -0.05481,-0.68837c0.25343,0.16142 0.61821,0.29021 0.8478,0.40262c1.04386,0.51111 4.72196,1.12821 5.83436,0.40332c3.0429,-1.98287 1.35026,-6.9599 0.12126,-9.25276c-2.17576,-1.15206 -3.8613,-2.54848 -6.30845,-3.15538c-1.4221,-0.35269 -3.36432,-0.17435 -4.97162,-0.09259c-0.84446,-2.79833 -0.66434,-5.48975 -0.66434,-8.4289c-0.00862,-8.63765 3.1052,-16.9994 8.10662,-23.88022c4.35463,-5.23412 9.03717,-9.99957 15.61995,-12.34506c1.93565,-0.68969 3.91877,-1.72901 5.98238,-1.71245c4.5933,0 9.31308,-0.25364 13.87007,0.44493c2.88636,0.44247 5.69496,1.42748 8.52046,2.13401c0,0 0.02998,0.00748 0.07846,0.01266c0.04834,0.00674 0.0793,0.00674 0.0793,0.00674l0.00891,-0.0019c0.08823,0.00029 0.20024,-0.01317 0.30654,-0.06533l0.57816,-0.12321c0.26241,-0.26638 0.52528,-0.53278 0.7877,-0.79915c6.24448,-3.04685 13.71115,-1.21694 20.43416,-1.17675c1.67769,-0.02535 2.9902,0.92107 4.47916,1.66555c2.69952,1.34976 4.24324,2.86275 5.80907,5.39576c1.69146,2.73623 3.83022,4.46921 4.83515,7.74364c0.08797,0.34734 0.13575,0.7765 0.2161,1.12986c-1.00797,-1.01662 -2.36819,-1.63998 -3.96404,-1.65774l-0.72385,0.28546c0,0 -0.49603,0.24803 -0.34273,0.74409c-1.18266,0.52789 -1.80142,2.11009 -1.25193,3.42959c0.72395,1.73842 5.23655,4.74339 7.3167,3.48688c0.26085,2.92873 0.26801,5.93128 -0.01607,8.86905c-0.28507,-0.12839 -0.67607,-0.12711 -1.08759,-0.13169l-0.21659,0.00007c0,0 -0.5033,0.00011 -0.62411,0.44319c-2.62528,0.12679 -4.33165,1.42863 -4.31705,4.24917c0.00432,0.83359 1.09894,1.78821 0.63661,2.48184c-1.05319,1.58005 -3.44875,0.29057 -4.28787,2.51321c-0.94444,2.93708 3.3611,5.07182 5.85508,3.84342c0.35951,-0.17708 0.67769,-0.46693 0.9519,-0.82858c-0.18333,0.40795 -0.38959,0.8209 -0.62647,1.25189c-0.55077,1.00204 -1.22446,2.36606 -2.07222,3.16134c-4.61633,4.33057 -9.57711,-0.14125 -14.20337,-1.98283c-4.63773,-2.7938 -8.60819,-5.65077 -12.69205,-9.18694c-1.54649,-1.33908 -3.42957,-2.53522 -4.33445,-4.38847c0,0 -0.29004,-0.58155 -0.87153,-0.2908c-0.58149,0.29074 -0.29949,0.78599 -0.29949,0.78599c1.17749,2.30952 3.48349,3.6341 5.3441,5.38592c3.76509,3.54495 7.87684,6.13085 12.30335,8.777c2.96561,1.19152 5.5708,3.29957 8.78836,3.94116c1.19495,0.23828 2.29223,0.19476 3.29031,-0.07012c1.22936,1.8257 2.71396,3.46088 4.04019,5.21555c0.41948,1.5175 1.4651,3.07154 2.29267,4.26661c3.11581,4.49938 6.98501,8.56903 10.61406,12.65355c0.3992,0.48728 0.7999,0.97534 1.20103,1.46109c-0.34197,0.16332 -0.34187,0.58746 -0.34187,0.58746c0,3.12935 -0.42456,6.62375 0.30591,9.68869c1.01448,4.25661 3.29309,7.53567 5.89298,10.94846c4.0485,5.39803 9.24757,12.68757 16.69788,12.68757l0.49678,-0.0306c0,0 0.25197,0.03037 0.41848,-0.05717c1.2471,3.17613 2.29262,6.47278 3.23268,9.91056c1.10641,4.04612 2.13032,8.08366 2.92409,12.15268c-0.11801,0.09474 -0.21392,0.24872 -0.21392,0.49823c0,0.39181 0.23605,0.54759 0.42369,0.60945c0.78455,4.26158 1.29707,8.57064 1.36877,12.97527c0.00613,2.37951 0.24705,5.09807 -0.40249,7.41841c-1.27285,4.54693 -5.25769,7.00224 -9.54953,8.24591l0.21969,0.38452c-0.10021,0.10092 -0.20055,0.20198 -0.30075,0.3029c-0.82234,1.51985 -4.22249,1.20821 -5.85583,1.20821c-4.79665,0 -9.04684,2.59031 -13.66495,3.76443c-7.57615,-0.0574 -17.18912,1.1233 -22.30484,-5.81721c-1.03542,-1.39663 -1.59318,-2.41563 -1.51144,-4.1796c0.05517,-1.19053 0.10669,-2.53129 0.49522,-3.6737c1.7116,-5.03274 7.41539,-1.97774 11.51439,-1.62523l0.00008,0.33312l1.15523,0.00027c0.35906,0 0.64967,-0.29084 0.64967,-0.6499c0,-0.17953 -0.0331,-0.26498 -0.15074,-0.38264l-0.57802,-0.57781l-0.01388,0.01387l-0.03197,-0.05553c-4.04133,-2.74705 -6.97383,-6.85775 -9.29088,-11.10628c-1.08523,-1.98986 -2.28463,-4.14515 -2.44849,-6.44241c-0.69351,-9.01555 0.88852,-18.22665 10.6185,-21.32858c6.85021,-1.36446 15.30526,-0.89165 21.06333,3.4321c0,0 0.51991,0.39042 0.90998,-0.12969c0.39007,-0.5201 -0.05383,-0.86882 -0.05383,-0.86882c-6.08765,-4.5605 -14.93135,-5.09285 -22.17701,-3.63813c-5.86969,1.86141 -9.0624,5.79459 -10.58345,10.60277c-0.07505,-0.17329 -0.23703,-0.35979 -0.5854,-0.35979c-0.65012,0 -0.65093,0.65058 -0.65093,0.65058l-0.00013,0.28902c0,3.52065 -0.57946,7.0268 -0.58218,10.54848c0.00992,8.23898 -2.4048,16.65903 -3.57307,24.77249c-0.53129,3.77606 -2.52404,8.41822 -5.70334,10.67646c-2.71909,1.93137 -6.45747,1.90023 -9.59339,1.90023c-6.99919,0 -18.24821,1.02831 -19.73327,-7.78307c0.02483,-3.79146 0.58749,-6.12391 4.02612,-8.13438c1.32317,-0.77363 5.23289,-0.26471 6.03652,-1.72032c0.2089,-0.37837 -0.19213,-0.76075 -0.24289,-1.18996c-0.25384,-2.14666 -0.88078,-4.38839 -0.85723,-6.5276c0,-8.8612 -0.66228,-17.46502 -1.86038,-26.25106c-1.03129,-7.55998 -2.50183,-14.93248 -2.50183,-22.59787c0,0 -0.00123,-0.65196 -0.65135,-0.65196c-0.65012,0 -0.57726,0.60317 -0.57726,0.60317c0,7.72558 1.43438,15.1222 2.47295,22.74134c1.19023,8.72839 1.83306,17.26834 1.83306,26.07109c0.0124,1.43321 0.24072,3.03025 0.53432,4.44574c0.07473,0.36025 0.73427,2.63309 0.6754,2.86145c-0.14252,0.55285 -1.14469,0.07631 -1.7021,0.1998c-1.09029,0.24155 -2.84601,0.42373 -3.81884,0.9693c-3.88937,2.18119 -4.63945,4.98431 -4.64097,9.20247c0.04013,0.24323 0.08622,0.47987 0.13842,0.71018c-0.04408,0.01508 -0.09213,0.11207 -0.09213,0.11207l-0.49295,0.25361c-0.11458,0.03819 -0.22932,0.07635 -0.34391,0.11454z" data-paper-data="{&quot;noHover&quot;:true,&quot;origItem&quot;:[&quot;Path&quot;,{&quot;applyMatrix&quot;:true,&quot;segments&quot;:[[[498.19233,627.74364],[-0.26437,0.08812],[0,0]],[499.32918,627.15836],[[499.49135,627.09332],[-0.10169,0.0348],[-0.12044,-0.5314]],[[499.17158,625.45464],[0.09258,0.56119],[0.0035,-9.73239]],[[509.92762,604.02803],[-8.97379,5.03258],[2.24454,-1.25875]],[[518.73359,601.79057],[-2.51557,0.55731],[1.28608,-0.28493]],[[522.65836,601.32918],[-0.32884,1.27556],[0.13584,-0.5269]],[[521.06825,594.92452],[0.17241,0.83117],[-0.67743,-3.26589]],[[519.83333,584.66667],[0.02859,3.30677],[0,-20.31026]],[[515.58576,524.50849],[2.74618,20.13868],[-2.39626,-17.57936]],[[509.83333,472],[0,17.82494],[0,0]],[[511.33333,470.5],[-1.5,0],[1.5,0]],[[512.83333,472],[0,0],[0,17.68607]],[[518.55825,524.10315],[-2.37947,-17.44285],[2.76432,20.27169]],[[522.83333,584.66667],[0,-20.44513],[-0.05433,4.93572]],[[524.8083,599.7271],[-0.58568,-4.9529],[0.11711,0.99031]],[[525.34164,602.67082],[0.48198,-0.873],[-1.85418,3.35847]],[[511.40571,606.63863],[3.0529,-1.78496],[-7.93383,4.63871]],[[502.16175,625.21203],[0.0573,-8.7479],[3.42642,20.33016]],[[547.66667,643.16667],[-16.14897,0],[7.23538,0]],[[569.7896,638.78314],[-6.27366,4.45617],[7.33548,-5.21037]],[[582.93934,614.15135],[-1.22582,8.71235],[2.69551,-18.71989]],[[591.16667,557],[0.02289,19.00951],[0.00628,-8.12547]],[[592.5,532.66667],[0,8.12306],[0,0]],[592.5,532],[[594,530.5],[-1.5,0],[0.80378,0]],[[595.35001,531.33054],[-0.17316,-0.39982],[3.50946,-11.09373]],[[619.74161,506.89097],[-13.54292,4.29476],[16.71764,-3.35642]],[[670.9,515.3],[-14.0458,-10.52228],[0,0]],[[671.2,517.4],[0.9,-1.2],[-0.9,1.2]],[[669.1,517.7],[0,0],[-13.28538,-9.97602]],[[620.49142,509.79576],[15.80524,-3.14817],[-22.4496,7.15697]],[[595.95576,559.03395],[-1.6001,-20.80124],[0.37807,5.3004]],[[601.52329,573.71576],[-2.50391,-4.59115],[5.34604,9.80247]],[[622.9549,599.34321],[-9.32442,-6.33817],[0,0]],[623.02867,599.47133],[623.06066,599.43934],[[624.39399,600.77267],[0,0],[0.27145,0.27145]],[[624.83333,601.83333],[0,-0.41421],[0,0.82843]],[[623.33333,603.33333],[0.82843,0],[0,0]],[620.66667,603.33333],[[620.66667,602.56463],[0,0],[-9.45748,-0.81333]],[[594.08548,606.32014],[3.9491,-11.61185],[-0.89643,2.63584]],[[592.94091,614.7969],[0.12729,-2.74687],[-0.1886,4.06994]],[[596.37343,624.24799],[-2.38898,-3.22239],[11.80332,16.01358]],[[647.81673,637.67791],[-17.48016,-0.13244],[10.65517,-2.70901]],[[679.33333,629],[-11.06713,0],[3.76854,0]],[[692.83999,626.21568],[-1.89736,3.50671],[0.2312,-0.23286]],[[693.53358,625.51709],[-0.2312,0.23286],[0,0]],[[693.02664,624.62996],[0,0],[9.90238,-2.86948]],[[715.05074,605.61317],[-2.9368,10.49096],[1.49868,-5.35365]],[[715.97546,588.50143],[0.01414,5.49016],[-0.16543,-10.16263]],[[712.81107,558.57257],[1.81016,9.83257],[-0.43294,-0.14272]],[[711.83333,557.16667],[0,0.90399],[0,-0.57568]],[[712.32656,556.01765],[-0.27229,0.2186],[-1.83144,-9.38829]],[[705.57439,527.98794],[2.55278,9.33547],[-2.16896,-7.93187]],[[698.11155,505.13136],[2.87738,7.32817],[-0.38417,0.20197]],[697.33333,505.33333],[[696,505.33333],[0,0],[-17.18981,0]],[[657.47005,476.07117],[9.34095,12.45469],[-5.99863,-7.87422]],[[643.87049,450.83181],[2.34068,9.82112],[-1.68538,-7.07161]],[[643.16667,428.5],[0,7.22023],[0,0]],[[643.95569,427.14573],[-0.78902,0.37683],[-0.9255,-1.12076]],[[641.18553,423.77843],[0.92105,1.12427],[-8.37319,-9.42406]],[[616.71331,394.61883],[7.18898,10.38126],[-1.90944,-2.75733]],[[611.43141,384.78382],[0.96784,3.50128],[-3.05995,-4.04847]],[[602.12174,372.76077],[2.83647,4.21235],[-2.30284,0.61113]],[[594.53561,372.92635],[2.75705,0.54977],[-7.42375,-1.48033]],[[574.28091,363.84377],[6.84243,2.74917],[-10.21313,-6.10534]],[[545.92562,343.59812],[8.68707,8.17915],[-4.29292,-4.04192]],[[533.60581,331.17082],[2.71678,5.32869],[0,0]],[[534.27663,329.15836],[-1.34164,0.67082],[1.34164,-0.67082]],[[536.28909,329.82918],[0,0],[2.08779,4.27594]],[[546.29825,339.95422],[-3.56816,-3.08963],[9.42253,8.15886]],[[575.61399,361.15623],[-10.70045,-6.44602],[10.67401,4.24902]],[[608.41298,365.74603],[-10.65107,9.99177],[1.956,-1.83492]],[[613.07402,358.61191],[-1.27077,2.31199],[0.54656,-0.9944]],[[614.51986,355.72375],[-0.42301,0.94123],[-0.63266,0.83443]],[[612.32403,357.63582],[0.82947,-0.40856],[-5.75426,2.83426]],[[598.82698,348.77566],[-2.17908,6.77661],[1.93609,-5.12823]],[[608.81823,342.80275],[-2.42998,3.64561],[1.06673,-1.60039]],[[607.25,337.25],[0.00996,1.92329],[-0.0337,-6.50773]],[[617.30959,327.27231],[-6.05722,0.29254],[0.27874,-1.02231]],[618.75,326.25],[[619.25,326.25],[0,0],[0.9495,0.01057]],[[621.65512,326.72452],[-0.65774,-0.29622],[0.65543,-6.77819]],[[621.69799,306.26464],[0.60185,6.75737],[-4.79943,2.89909]],[[604.82698,298.22434],[1.67034,4.011],[-1.26782,-3.04443]],[[607.78837,290.12513],[-2.72869,1.21798],[-0.35371,-1.14451]],[608.57918,288.40836],[[610.25,287.75],[0,0],[3.68204,0.04098]],[[619.40135,291.57712],[-2.32565,-2.34559],[-0.18539,-0.81531]],[[618.81873,289.15174],[0.20297,0.80139],[-2.31863,-7.55499]],[[607.67147,271.2886],[3.90263,6.3132],[-3.61279,-5.84432]],[[594.27663,258.84164],[6.2285,3.11425],[-3.43543,-1.71772]],[[583.94745,255],[3.87088,-0.05849],[-15.51176,-0.09272]],[[536.82452,257.71686],[14.40766,-7.02989],[-0.60547,0.6146]],[[535.00811,259.56066],[0.60547,-0.6146],[0,0]],[[533.67487,259.84491],[0,0],[-0.24526,0.12037]],[[532.96799,259.99562],[0.20356,0.00067],[0,0]],[532.94745,260],[[532.76457,259.98444],[0.11155,0.01556],[-0.11183,-0.01196]],[[532.58365,259.95521],[0,0],[-6.51918,-1.63015]],[[512.93447,255.03031],[6.65959,1.02091],[-10.51418,-1.61181]],[[480.94745,254],[10.59794,0],[-4.76131,-0.03819]],[[467.15105,257.94865],[4.46606,-1.59129],[-15.1882,5.41165]],[[431.13131,286.42112],[10.04728,-12.07649],[-11.53959,15.87585]],[[412.44745,341.5],[-0.01987,-19.92932],[0,6.78138]],[[413.98556,360.94043],[-1.94838,-6.45647],[3.70846,-0.18865]],[[425.29208,361.04013],[-3.28117,-0.81373],[5.64621,1.40025]],[[440.00811,368.43934],[-5.02004,-2.65809],[2.83562,5.29023]],[[439.73605,389.77598],[7.02076,-4.575],[-2.56661,1.6725]],[[426.27663,388.84164],[2.40845,1.17925],[-0.52972,-0.25937]],[[424.32054,387.91265],[0.58474,0.37244],[0.08123,0.58041]],[[424.44745,389.5],[0,-0.3714],[0,1.44827]],[[424.40732,393.84463],[0.02478,-1.44806],[-1.45419,3.02507]],[[419.94015,403.62452],[2.44148,-2.28831],[-4.8336,4.53036]],[[403.00578,400.66758],[3.91685,3.17066],[-2.7502,-2.22626]],[[397.41805,391.82121],[0.99242,3.47627],[-1.38971,-0.33981]],[[394.22612,390.83723],[0.58879,0.23436],[-4.61671,-1.83757]],[[379.52105,379.41963],[3.72925,5.16085],[-0.92644,2.88177]],[[377.42678,387.74817],[0.49707,-2.57496],[-1.70498,11.94761]],[[382.08606,427.52349],[-8.72475,-9.78695],[3.62916,4.071]],[[396.57564,436.93797],[-4.88542,-2.22756],[17.7947,8.13447]],[[456.0467,451.21755],[-19.49939,-1.3866],[19.69171,1.40655]],[[514.53965,445.53205],[-18.04406,8.98562],[3.83638,-2.75555]],[[526.31916,438.12829],[-4.48697,1.52552],[0,0]],[526.93725,437.39118],[[529.05627,437.4898],[-1.0102,-1.10882],[1.0102,1.10882]],[528.95765,439.60882],[[527.26784,440.97434],[0,0],[-4.22349,1.37497]],[[516.08838,448.10138],[3.60812,-2.57463],[-18.64333,9.35649]],[[455.83296,454.20993],[20.3698,1.45499],[-1.84699,-0.1325]],[[450.22846,453.72391],[1.88745,0.19153],[2.09083,16.14869]],[[460.64757,502.25598],[-3.20698,-16.03488],[3.7186,18.66673]],[[469.44841,558.60317],[-4.14455,-18.63818],[1.76205,7.94196]],[[472.16667,582.33333],[0,-8.1],[0,1.25189]],[[471.72733,590.39399],[0.9947,-0.9947],[-0.70976,0.70976]],[[465.87472,590.81883],[0.86801,-0.10492],[-3.92281,0.47417]],[[454.05249,599.24069],[1.09092,-3.83749],[-4.63078,9.26155]],[[459.76953,620.31663],[-6.02633,-6.9537],[2.36407,2.72786]],[[467.79208,628.14912],[-3.49488,-1.46492],[4.20535,1.76272]],[[481.57361,629.18604],[-4.46573,-0.02975],[3.54902,1.18301]],[[494.54474,629.39069],[-3.59222,1.14326],[0,0]],[495.60601,628.27267],[[497.39922,628.00801],[-0.94071,-0.58784],[0.26437,-0.08812]]],&quot;closed&quot;:true}]}" fill="none"/><path d="M130.71763,255.38004c0.13959,-0.58748 0.24892,-1.16998 0.33105,-1.7371c1.00627,-7.10562 2.966,-14.48401 3.47012,-21.7227c1.36807,5.37142 5.77783,11.26012 10.04887,14.77641c-2.81278,-1.0156 -7.04419,-1.34642 -8.88921,-0.29879c-2.88524,1.63828 -3.33523,5.5473 -2.5586,8.79717l-0.29086,0.08042c-0.57789,0 -1.16048,-0.00228 -1.73836,-0.00228c0,0 -0.19637,-0.00043 -0.373,0.10687z" data-paper-data="{&quot;noHover&quot;:false,&quot;origItem&quot;:[&quot;Path&quot;,{&quot;applyMatrix&quot;:true,&quot;segments&quot;:[[[586,618.33333],[0,0],[1.33333,0]],[[590,618.33333],[-1.33333,0],[0,0]],[[590.59649,618.33333],[0,0],[-1.79187,-7.49831]],[[596.59429,597.86137],[-6.657,3.77995],[4.25693,-2.41716]],[[616.95446,598.59199],[-6.48983,-2.34327],[-9.85442,-8.11299]],[[593.8863,564.63579],[3.1565,12.39327],[-1.16314,16.70156]],[[585.90919,614.57562],[2.32172,-16.39455],[-0.18951,1.30848]],[[585.14113,618.58091],[0.32208,-1.35546],[0.40753,-0.24758]]],&quot;closed&quot;:true}]}" fill="#ffffff"/><path d="M119.74246,110.4698c1.75583,-2.43984 3.40372,-3.49781 6.64617,-4.14509c1.75411,-0.00407 5.25046,-0.6374 6.81407,0.26303c1.55046,0.89286 2.11999,2.85492 2.25046,4.47337c0.3288,4.07878 -0.56497,9.51603 -3.32084,12.69669c-2.64239,2.94547 -4.20185,0.70352 -6.34863,-1.36632c-2.6475,-2.55261 -6.85607,-7.37041 -6.91574,-11.30238c0,0 0,-0.65012 0.65012,-0.65012c0.08556,0 0.15987,0.01126 0.2244,0.03082z" fill="#000000"/><path d="M129.86012,129.07771l0.42395,-0.6308c0.53122,-0.5328 1.11363,-1.01582 1.71799,-1.46393c0.86764,-0.28921 0.93492,-0.41093 1.92281,-0.28257c6.3081,0.81959 -1.18327,11.44083 -4.15293,5.70003c-0.51499,-0.99555 -0.50205,-1.59302 -0.50205,-2.67452c0,0 0,-0.60955 0.59024,-0.6482z" fill="#000000"/><path d="M55.75432,145.9124c-0.53369,-0.07037 -1.03269,-0.11323 -1.53364,-0.2224c-0.16977,0 -0.33955,0 -0.50932,0h-0.75806c0.81832,0.11324 1.61018,0.21671 2.27501,0.21671c0.17524,0.00073 0.35057,0.0027 0.52601,0.0057zM56.7495,144.42878c1.98841,0.10295 4.01582,0.43738 5.40779,1.48358l0.24865,-0.24865l0.65012,0.65012l-0.22334,0.22334c0.13173,0.15095 0.2535,0.31242 0.36427,0.48516l-0.60063,0.19273v0.2086h-0.65012c-2.24886,0 -4.50495,-0.22744 -6.71792,-0.21671c-1.97641,0 -3.85547,0.09592 -5.77702,-0.44925c-0.92995,-0.26384 -2.36614,-0.23693 -1.46831,-1.88124c0.32702,-0.59893 1.5427,-0.48411 2.04436,-0.4867c1.36056,-0.00705 2.72127,-0.00524 4.08195,-0.00293c0.4206,-0.00193 0.85995,-0.00323 1.30958,0.00212c0.3699,0.00049 0.73979,0.00081 1.10969,0.00081c0,0 0.09966,0 0.22095,0.03902zM58.22331,146.00192c0.15375,0.00724 0.30759,0.01456 0.46149,0.02184c-0.12718,-0.03749 -0.2513,-0.0703 -0.37143,-0.096c-0.02828,0.02874 -0.05873,0.05325 -0.09005,0.07417z" fill="#ffffff"/></g><g><path d="M379.36693,240.10387l-6.03359,-41.10387l36.57867,33.18478l25.58857,13.06165l26.86678,11.69589l-26.17813,4.29017l-27.77215,-3.43873z" fill="url(#color-2)" stroke="none" stroke-width="0" stroke-linecap="butt"/><path d="M261.75,278.75l-2.66666,-11.66667l6.34338,-9.28619l-5.8333,-74.67654l28.15659,-5.3706l8.68574,53.42891l-0.68574,43.57109l-17.00894,6.42906z" fill="url(#color-3)" stroke="none" stroke-width="0" stroke-linecap="butt"/><path d="M291,247.66667l-31.01179,-64.66819l2.0781,-10.94806l11.26702,-18.05041l47,-15.66666l15.69132,22.35752l15.8228,13.87618l18.36466,18.76975l-0.21211,73.32989l-46.54963,-0.15328z" fill="url(#color-4)" stroke="none" stroke-width="0" stroke-linecap="butt"/><path d="M278.91667,284.25l-3.33334,-13l7.67671,-7.2862l0.77844,-81.17464l14.95544,-22.11606l15.75608,48.41023l2.8524,36.92892l-5.68574,35.40442l-14.34228,4.76241z" fill="url(#color-5)" stroke="none" stroke-width="0" stroke-linecap="butt"/><path d="M339.33334,180.16667l-3,-19.33333l19,15.33333l20.33333,24l-19.72684,-4.48328z" fill="url(#color-6)" stroke="none" stroke-width="0" stroke-linecap="butt"/><path d="M332.67065,279.76969l-6.12206,-7.39004l3.14853,-8.21973l19.17734,-6.90709l-21.66686,-9.66234l-5.10301,-17.66276l4.57131,-25.33062l21.00929,-14.52701l27.5251,10.17989l14.22546,25.37874l-0.68393,22.41774l-7.8808,10.29154l3.2216,9.14868l-29.73456,14.85904z" fill="url(#color-7)" stroke="none" stroke-width="0" stroke-linecap="butt"/><g><path d="M242.5,121.91667l-11.00713,-16.44747l8.84046,-28.55253l24.39937,1.11515l15.7673,8.88485l-5,30z" fill="url(#color-8)" stroke="none" stroke-width="0" stroke-linecap="butt"/><path d="M236.58334,161.91667l-8.17814,-18.46071l4.17814,-15.53929l13.62851,-3.64361l-1.93769,-17.95509l10.17355,-15.268l28.35381,-11.27226l28.91612,8.1223l18.34472,21.35799l-9.27392,32.8898l-13.53844,11.10222l-22.4629,12.75977l-22.25378,1.81014z" fill="url(#color-9)" stroke="none" stroke-width="0" stroke-linecap="butt"/><path d="M256.66667,127.75l3,12.5l-13,3.5l-12,-3.5l3,-12.5z" data-paper-data="{&quot;index&quot;:null}" fill="#000000" stroke="none" stroke-width="0" stroke-linecap="butt"/><path d="M238.66667,134.25l1,-6h14.5l-1,6z" fill="url(#color-10)" stroke="none" stroke-width="0" stroke-linecap="butt"/><path d="M274.25402,131.92452l-7.80011,-13.86772l12.21344,-10.70762l14.51906,5.22888l-2.09377,16.0714z" data-paper-data="{&quot;index&quot;:null}" fill="url(#color-11)" stroke="none" stroke-width="0" stroke-linecap="butt"/><path d="M259.81448,118.44733l-4.38175,4.61427l-6.58143,-0.50277l-1.04835,-7.83661l7.01271,-2.72138z" data-paper-data="{&quot;index&quot;:null}" fill="#000000" stroke="none" stroke-width="0" stroke-linecap="butt"/><path d="M297.82621,122.58334l-5,-30l15.7673,-8.88485l27.7327,-0.78182l6.50713,28.2192l-12.00713,16.44747z" data-paper-data="{&quot;index&quot;:null}" fill="url(#color-12)" stroke="none" stroke-width="0" stroke-linecap="butt"/><path d="M246.66667,140.75l0.66666,9.33334" fill="none" stroke="#000000" stroke-width="1.5" stroke-linecap="round"/><path d="M318,101.08334l6.66667,-9.66667l6.33333,7l-7,10.33334z" data-paper-data="{&quot;index&quot;:null}" fill="url(#color-13)" stroke="none" stroke-width="0" stroke-linecap="butt"/><path d="M317,115.75l3,-7l5.33333,7z" fill="url(#color-14)" stroke="none" stroke-width="0" stroke-linecap="butt"/><path d="M326,120.08334l0.66667,-8l5.72649,1.72456l4.60685,-4.72456l-0.74712,8.03448l-3.91954,3.63219z" fill="url(#color-15)" stroke="none" stroke-width="0" stroke-linecap="butt"/><path d="M330.33333,108.41667l6.33333,-8.66666l2.33333,6.33334z" fill="url(#color-16)" stroke="none" stroke-width="0" stroke-linecap="butt"/></g></g></g></g></svg>