<svg version="1.1" xmlns="http://www.w3.org/2000/svg" xmlns:xlink="http://www.w3.org/1999/xlink" width="80.75" height="80.75" viewBox="0,0,80.75,80.75"><g transform="translate(-199.625,-139.625)"><g data-paper-data="{&quot;isPaintingLayer&quot;:true}" fill-rule="nonzero" stroke-linejoin="miter" stroke-miterlimit="10" stroke-dasharray="" stroke-dashoffset="0" style="mix-blend-mode: normal"><path d="M199.625,180c0,-22.2985 18.0765,-40.375 40.375,-40.375c22.2985,0 40.375,18.0765 40.375,40.375c0,22.2985 -18.0765,40.375 -40.375,40.375c-22.2985,0 -40.375,-18.0765 -40.375,-40.375z" fill="#d100ff" stroke="none" stroke-width="NaN" stroke-linecap="butt"/><path d="M212.16719,190.575v-18.8h9.84063v18.8z" fill="#000000" stroke="none" stroke-width="0" stroke-linecap="butt"/><path d="M221.12656,189.9875l0.29375,-18.06562l14.07021,-11.68049l0.32354,40.17424z" fill="#000000" stroke="none" stroke-width="0" stroke-linecap="butt"/><path d="M243.01094,168.54375c0,0 4.99909,2.99042 5.2875,10.28125c0.31361,7.92774 -5.2875,11.01563 -5.2875,11.01563" fill="none" stroke="#000000" stroke-width="4" stroke-linecap="round"/><path d="M252.55781,163.10938c0,0 5.23121,5.49526 5.72812,16.30312c0.46828,10.18522 -5.72812,16.59687 -5.72812,16.59687" fill="none" stroke="#000000" stroke-width="4" stroke-linecap="round"/><path d="M258.72656,156.94063c0,0 8.86692,6.28533 9.10625,22.17813c0.23489,15.5985 -9.10625,23.94062 -9.10625,23.94062" fill="none" stroke="#000000" stroke-width="4" stroke-linecap="round"/></g></g></svg>