<svg version="1.1" xmlns="http://www.w3.org/2000/svg" xmlns:xlink="http://www.w3.org/1999/xlink" width="165.66666" height="165.66666" viewBox="0,0,165.66666,165.66666"><defs><radialGradient cx="240" cy="180" r="82.83333" gradientUnits="userSpaceOnUse" id="color-1"><stop offset="0" stop-color="#ffffff" stop-opacity="0.53333"/><stop offset="1" stop-color="#ffffff" stop-opacity="0"/></radialGradient><linearGradient x1="291.80927" y1="217.85718" x2="224.5026" y2="193.52203" gradientUnits="userSpaceOnUse" id="color-2"><stop offset="0" stop-color="#ff0000"/><stop offset="1" stop-color="#ff0000" stop-opacity="0"/></linearGradient><linearGradient x1="188.74202" y1="138.9203" x2="254.89501" y2="168.88793" gradientUnits="userSpaceOnUse" id="color-3"><stop offset="0" stop-color="#ffffff"/><stop offset="1" stop-color="#ffffff" stop-opacity="0"/></linearGradient><linearGradient x1="208.50651" y1="187.8083" x2="228.8081" y2="187.8083" gradientUnits="userSpaceOnUse" id="color-4"><stop offset="0" stop-color="#ff0000" stop-opacity="0.67843"/><stop offset="1" stop-color="#ff0000" stop-opacity="0.34118"/></linearGradient><linearGradient x1="264.31633" y1="170.92865" x2="244.01474" y2="170.92865" gradientUnits="userSpaceOnUse" id="color-5"><stop offset="0" stop-color="#ffffff" stop-opacity="0.67843"/><stop offset="1" stop-color="#ffffff" stop-opacity="0.34118"/></linearGradient></defs><g transform="translate(-157.16667,-97.16667)"><g data-paper-data="{&quot;isPaintingLayer&quot;:true}" fill-rule="nonzero" stroke="none" stroke-width="0" stroke-linecap="butt" stroke-linejoin="miter" stroke-miterlimit="10" stroke-dasharray="" stroke-dashoffset="0" style="mix-blend-mode: normal"><path d="M157.16667,180c0,-45.74759 37.08575,-82.83333 82.83333,-82.83333c45.74759,0 82.83333,37.08575 82.83333,82.83333c0,45.74759 -37.08575,82.83333 -82.83333,82.83333c-45.74759,0 -82.83333,-37.08575 -82.83333,-82.83333z" fill="url(#color-1)"/><path d="M214.25939,235.70945l4.11568,-4.35535c0,0 -18.39563,-1.54189 -12.64858,-2.34258c4.96678,-0.69199 36.12005,-1.91346 45.15651,-14.00413c12.59828,-16.85633 -4.82534,-31.35793 -4.82534,-31.35793c0,0 15.79062,6.23619 20.31539,1.298c4.52477,-4.93817 9.50434,-16.47246 -3.7615,-27.74112c-11.28586,-9.58674 -21.08436,8.21586 -22.57192,4.90257c-1.85722,-4.13665 -2.46206,-12.13463 5.59263,-16.83979c39.41463,-23.02412 68.4164,38.19196 43.42763,75.93303c-24.98876,37.74107 -74.80051,14.50733 -74.80051,14.50733z" data-paper-data="{&quot;index&quot;:null}" fill="url(#color-2)"/><path d="M267.34894,127.8384l-4.34899,3.97519c0,0 18.34598,3.11253 12.54776,3.4147c-5.01101,0.26113 -36.2795,-1.20076 -45.95966,10.03978c-13.4957,15.67109 3.90446,27.61908 3.90446,27.61908c0,0 -16.20513,-7.79364 -24.28331,-1.17423c-8.59408,7.04215 -18.48083,15.23628 -1.30547,31.1135c15.60539,14.4259 25.01064,-12.59795 28.25164,-4.18436c1.64519,4.27088 3.37853,12.40425 -4.93419,16.38878c-40.67729,19.49779 -66.54403,-43.835 -39.55127,-79.19882c26.99276,-35.36382 75.67907,-7.99361 75.67907,-7.99361z" data-paper-data="{&quot;index&quot;:null}" fill="url(#color-3)"/><path d="M208.50651,187.8083c0,-5.60613 4.54467,-10.15079 10.15079,-10.15079c5.60613,0 10.15079,4.54467 10.15079,10.15079c0,5.60613 -4.54467,10.15079 -10.15079,10.15079c-5.60613,0 -10.15079,-4.54467 -10.15079,-10.15079z" fill="url(#color-4)"/><path d="M254.16554,181.07944c-5.60612,0 -10.15079,-4.54466 -10.15079,-10.15079c0,-5.60612 4.54466,-10.15079 10.15079,-10.15079c5.60612,0 10.15079,4.54466 10.15079,10.15079c0,5.60612 -4.54466,10.15079 -10.15079,10.15079z" data-paper-data="{&quot;index&quot;:null}" fill="url(#color-5)"/></g></g></svg>