<svg version="1.1" xmlns="http://www.w3.org/2000/svg" xmlns:xlink="http://www.w3.org/1999/xlink" width="86.79511" height="74.73296" viewBox="0,0,86.79511,74.73296"><defs><linearGradient x1="220.36237" y1="197.59554" x2="211.58088" y2="190.87417" gradientUnits="userSpaceOnUse" id="color-1"><stop offset="0" stop-color="#000000"/><stop offset="1" stop-color="#929292"/></linearGradient><linearGradient x1="220.36237" y1="197.59554" x2="211.58088" y2="190.87417" gradientUnits="userSpaceOnUse" id="color-2"><stop offset="0" stop-color="#929292" stop-opacity="0"/><stop offset="1" stop-color="#929292"/></linearGradient><linearGradient x1="237.21686" y1="172.14293" x2="259.79608" y2="155.75035" gradientUnits="userSpaceOnUse" id="color-3"><stop offset="0" stop-color="#ffffff"/><stop offset="1" stop-color="#a6a6a6"/></linearGradient><linearGradient x1="237.15003" y1="158.39404" x2="282.15851" y2="156.04097" gradientUnits="userSpaceOnUse" id="color-4"><stop offset="0" stop-color="#f20000"/><stop offset="1" stop-color="#ff7979"/></linearGradient><linearGradient x1="227.34453" y1="174.55037" x2="231.34984" y2="177.55629" gradientUnits="userSpaceOnUse" id="color-5"><stop offset="0" stop-color="#c6c6c6"/><stop offset="1" stop-color="#6b6b6b"/></linearGradient><linearGradient x1="222.67549" y1="178.87491" x2="231.17709" y2="178.43044" gradientUnits="userSpaceOnUse" id="color-6"><stop offset="0" stop-color="#ff5454"/><stop offset="1" stop-color="#ce0000"/></linearGradient><linearGradient x1="264.6036" y1="153.17484" x2="282.11563" y2="152.25929" gradientUnits="userSpaceOnUse" id="color-7"><stop offset="0" stop-color="#ffadad" stop-opacity="0"/><stop offset="1" stop-color="#ffadad"/></linearGradient><linearGradient x1="264.6036" y1="153.17484" x2="282.11563" y2="152.25929" gradientUnits="userSpaceOnUse" id="color-8"><stop offset="0" stop-color="#ab0000"/><stop offset="1" stop-color="#ff5454"/></linearGradient><linearGradient x1="261.22421" y1="155.28472" x2="278.73624" y2="154.36918" gradientUnits="userSpaceOnUse" id="color-9"><stop offset="0" stop-color="#ff6b6b" stop-opacity="0"/><stop offset="1" stop-color="#ff6b6b"/></linearGradient><linearGradient x1="261.22421" y1="155.28472" x2="278.73624" y2="154.36918" gradientUnits="userSpaceOnUse" id="color-10"><stop offset="0" stop-color="#ab0000"/><stop offset="1" stop-color="#ff5454"/></linearGradient><linearGradient x1="276.27098" y1="147.64006" x2="273.68255" y2="152.97677" gradientUnits="userSpaceOnUse" id="color-11"><stop offset="0" stop-color="#ffffff" stop-opacity="0.5207"/><stop offset="1" stop-color="#ffffff" stop-opacity="0"/></linearGradient><linearGradient x1="268.88598" y1="147.35425" x2="281.06755" y2="153.26255" gradientUnits="userSpaceOnUse" id="color-12"><stop offset="0" stop-color="#ab0000"/><stop offset="1" stop-color="#ff5454"/></linearGradient><linearGradient x1="225.59154" y1="188.5514" x2="219.94543" y2="180.77442" gradientUnits="userSpaceOnUse" id="color-13"><stop offset="0" stop-color="#000000"/><stop offset="1" stop-color="#929292"/></linearGradient><linearGradient x1="234.60242" y1="176.31991" x2="228.95633" y2="168.54294" gradientUnits="userSpaceOnUse" id="color-14"><stop offset="0" stop-color="#000000"/><stop offset="1" stop-color="#929292"/></linearGradient><linearGradient x1="237.55369" y1="161.11892" x2="252.0854" y2="150.56886" gradientUnits="userSpaceOnUse" id="color-15"><stop offset="0" stop-color="#e6e6e6"/><stop offset="1" stop-color="#e6e6e6" stop-opacity="0"/></linearGradient></defs><g transform="translate(-197.09795,-142.43698)"><g data-paper-data="{&quot;isPaintingLayer&quot;:true}" fill-rule="nonzero" stroke-linejoin="miter" stroke-miterlimit="10" stroke-dasharray="" stroke-dashoffset="0" style="mix-blend-mode: normal"><path d="M220.85403,191.33665l-13.81439,23.66504c0,0 -3.70379,4.16488 -7.85597,0.95003c-4.07282,-3.15339 -0.92551,-7.67142 -0.92551,-7.67142l18.62967,-19.80612z" fill="url(#color-1)" stroke="url(#color-2)" stroke-width="0" stroke-linecap="butt"/><path d="M233.40082,166.88666c0,0 1.13019,-4.43382 2.02751,-6.55866c0.67409,-1.59625 2.10414,-4.21053 2.10414,-4.21053l19.60222,-0.03755l10.17129,10.01458c0,0 -13.73032,-2.14028 -18.65927,-1.35386c-5.41381,0.86378 -11.95206,4.93383 -11.95206,4.93383z" fill="url(#color-3)" stroke="#ffffff" stroke-width="0" stroke-linecap="butt"/><path d="M266.62931,170.22108c-1.64595,0.24338 -3.15632,-5.2209 -5.29588,-6.06235c-11.58219,-4.5551 -21.40574,-0.38207 -24.18341,-5.76468c-1.39703,-2.70719 9.3042,-15.27954 21.73296,-15.92932c12.42875,-0.64978 30.74438,10.29246 23.27553,13.57624c-12.46499,5.4804 -9.07937,13.22641 -15.52919,14.1801z" fill="url(#color-4)" stroke="#ffffff" stroke-width="0" stroke-linecap="butt"/><path d="M223.07094,175.51723l10.38562,-9.11092l4.00528,3.00591l-5.9531,12.22929l-11.71487,11.03467l-3.89912,-2.99566z" fill="url(#color-5)" stroke="#ffffff" stroke-width="0" stroke-linecap="butt"/><path d="M231.50586,182.60389l-8.85105,-7.32171" fill="none" stroke="url(#color-6)" stroke-width="6" stroke-linecap="round"/><path d="M282.16191,155.61391c-5.44128,1.67077 -3.60968,3.67487 -8.4455,3.92769c-0.79203,0.04141 4.09692,-5.33097 3.34801,-5.6602c-3.82366,-1.68091 -12.54513,-2.31911 -12.70991,-5.47088c-0.19705,-3.76909 3.4262,-2.245 8.26201,-2.49781c4.83581,-0.25282 14.69195,8.12092 9.54538,9.7012z" fill="url(#color-7)" stroke="url(#color-8)" stroke-width="0" stroke-linecap="butt"/><path d="M279.65781,154.70837c-2.27419,2.05898 -4.48497,6.69032 -9.32078,6.94314c-0.79203,0.04141 4.09693,-5.33097 3.34802,-5.6602c-3.82366,-1.68091 -12.54513,-2.3191 -12.70991,-5.47088c-0.19705,-3.76909 3.4262,-2.245 8.26201,-2.49781c4.83581,-0.25282 11.74556,5.48625 10.42066,6.68575z" fill="url(#color-9)" stroke="url(#color-10)" stroke-width="0" stroke-linecap="butt"/><path d="M282.93085,154.3272c-0.16691,0.34414 -3.8502,3.7565 -5.14897,3.78979c-4.26288,0.10928 -10.73737,-4.82815 -13.31567,-6.07869c-2.40961,-1.16871 -6.64207,-5.53844 -9.63674,-7.53127c-1.18594,-0.7892 6.50914,-1.38632 9.0566,-1.41048c1.63781,-0.01554 9.10944,2.13266 12.47329,3.7642c1.83157,0.88835 3.82873,2.58596 5.15278,4.18608c1.1077,1.33866 1.74431,2.6091 1.41872,3.28038z" fill="url(#color-11)" stroke="url(#color-12)" stroke-width="0" stroke-linecap="butt"/><path d="M226.55033,187.85531l-7.77678,-6.23009" fill="none" stroke="url(#color-13)" stroke-width="3" stroke-linecap="round"/><path d="M235.5612,175.62383l-7.77678,-6.23009" fill="none" stroke="url(#color-14)" stroke-width="3" stroke-linecap="round"/><path d="M254.54149,157.06035l-13.33599,2.72135l12.18389,0.78322l-13.1322,1.12322l-3.96195,-3.16604c0,0 0.72865,-1.7216 1.15465,-2.46233c0.37968,-0.66018 1.27841,-1.76827 1.27841,-1.76827l10.19802,-8.07394l-9.0704,9.09261l11.61602,-5.9317l-10.99073,7.48371l13.34733,-3.5469l-12.73184,5.18481z" fill="url(#color-15)" stroke="#000000" stroke-width="0" stroke-linecap="butt"/></g></g></svg>