<svg version="1.1" xmlns="http://www.w3.org/2000/svg" xmlns:xlink="http://www.w3.org/1999/xlink" width="89.67331" height="59.1958" viewBox="0,0,89.67331,59.1958"><defs><radialGradient cx="275.33549" cy="180" r="29.04878" gradientUnits="userSpaceOnUse" id="color-1"><stop offset="0" stop-color="#ffffff"/><stop offset="1" stop-color="#ffffff" stop-opacity="0"/></radialGradient><radialGradient cx="240" cy="180" r="21.51054" gradientUnits="userSpaceOnUse" id="color-2"><stop offset="0" stop-color="#ffffff"/><stop offset="1" stop-color="#ffffff" stop-opacity="0"/></radialGradient><radialGradient cx="271.80195" cy="176.70205" r="20.33275" gradientUnits="userSpaceOnUse" id="color-3"><stop offset="0" stop-color="#ff0000"/><stop offset="1" stop-color="#ff0000" stop-opacity="0.50196"/></radialGradient><radialGradient cx="279.99744" cy="154.5227" r="4.66973" gradientUnits="userSpaceOnUse" id="color-4"><stop offset="0" stop-color="#ff0000"/><stop offset="1" stop-color="#ff0000" stop-opacity="0.50196"/></radialGradient><radialGradient cx="257.65048" cy="163.02836" r="6.90783" gradientUnits="userSpaceOnUse" id="color-5"><stop offset="0" stop-color="#ff0000"/><stop offset="1" stop-color="#ff0000" stop-opacity="0.50196"/></radialGradient><radialGradient cx="239.91054" cy="171.76325" r="5.32799" gradientUnits="userSpaceOnUse" id="color-6"><stop offset="0" stop-color="#ff0000"/><stop offset="1" stop-color="#ff0000" stop-opacity="0.50196"/></radialGradient><radialGradient cx="222.808" cy="187.36542" r="5.328" gradientUnits="userSpaceOnUse" id="color-7"><stop offset="0" stop-color="#ff0000"/><stop offset="1" stop-color="#ff0000" stop-opacity="0.50196"/></radialGradient><radialGradient cx="232.5496" cy="195.36073" r="2.52305" gradientUnits="userSpaceOnUse" id="color-8"><stop offset="0" stop-color="#ff0000"/><stop offset="1" stop-color="#ff0000" stop-opacity="0.50196"/></radialGradient><radialGradient cx="252.24727" cy="201.88022" r="2.95824" gradientUnits="userSpaceOnUse" id="color-9"><stop offset="0" stop-color="#ff0000"/><stop offset="1" stop-color="#ff0000" stop-opacity="0.50196"/></radialGradient><radialGradient cx="281.81492" cy="198.23389" r="2.95824" gradientUnits="userSpaceOnUse" id="color-10"><stop offset="0" stop-color="#ff0000"/><stop offset="1" stop-color="#ff0000" stop-opacity="0.50196"/></radialGradient><radialGradient cx="216.74763" cy="183.50876" r="2.03667" gradientUnits="userSpaceOnUse" id="color-11"><stop offset="0" stop-color="#ff0000"/><stop offset="1" stop-color="#ff0000" stop-opacity="0.50196"/></radialGradient><radialGradient cx="222.20663" cy="172.68272" r="3.13667" gradientUnits="userSpaceOnUse" id="color-12"><stop offset="0" stop-color="#ff0000"/><stop offset="1" stop-color="#ff0000" stop-opacity="0.50196"/></radialGradient><radialGradient cx="252.42046" cy="175.93059" r="12.44116" gradientUnits="userSpaceOnUse" id="color-13"><stop offset="0" stop-color="#ff0000"/><stop offset="1" stop-color="#ff0000" stop-opacity="0.50196"/></radialGradient><radialGradient cx="237.16145" cy="183.05072" r="12.44116" gradientUnits="userSpaceOnUse" id="color-14"><stop offset="0" stop-color="#ff0000"/><stop offset="1" stop-color="#ff0000" stop-opacity="0.50196"/></radialGradient><radialGradient cx="256.76679" cy="184.98831" r="12.44116" gradientUnits="userSpaceOnUse" id="color-15"><stop offset="0" stop-color="#ff0000"/><stop offset="1" stop-color="#ff0000" stop-opacity="0.50196"/></radialGradient><radialGradient cx="300.96998" cy="170.07828" r="2.95824" gradientUnits="userSpaceOnUse" id="color-16"><stop offset="0" stop-color="#ff0000"/><stop offset="1" stop-color="#ff0000" stop-opacity="0.50196"/></radialGradient><radialGradient cx="293.7776" cy="181.18271" r="2.03667" gradientUnits="userSpaceOnUse" id="color-17"><stop offset="0" stop-color="#ff0000"/><stop offset="1" stop-color="#ff0000" stop-opacity="0.50196"/></radialGradient></defs><g transform="translate(-214.71096,-149.85298)"><g data-paper-data="{&quot;isPaintingLayer&quot;:true}" fill-rule="nonzero" stroke-width="0" stroke-linecap="butt" stroke-linejoin="miter" stroke-miterlimit="10" stroke-dasharray="" stroke-dashoffset="0" style="mix-blend-mode: normal"><path d="M246.28671,180c0,-16.0432 13.00558,-29.04878 29.04878,-29.04878c16.0432,0 29.04878,13.00558 29.04878,29.04878c0,16.0432 -13.00558,29.04878 -29.04878,29.04878c-16.0432,0 -29.04878,-13.00558 -29.04878,-29.04878z" fill="url(#color-1)" stroke="none"/><path d="M218.48946,180c0,-11.87994 9.6306,-21.51055 21.51055,-21.51055c11.87994,0 21.51054,9.6306 21.51054,21.51055c0,11.87994 -9.6306,21.51055 -21.51054,21.51055c-11.87994,0 -21.51055,-9.6306 -21.51055,-21.51055z" fill="url(#color-2)" stroke="none"/><path d="M251.4692,176.70203c0,-11.22948 9.10329,-20.33273 20.33272,-20.33273c11.22948,0 20.33278,9.10329 20.33278,20.33273c0,11.22948 -9.1033,20.33277 -20.33278,20.33277c-11.22948,0 -20.33272,-9.10329 -20.33272,-20.33277z" fill="url(#color-3)" stroke="#000000"/><path d="M275.32771,154.5227c0,-2.57903 2.09071,-4.66972 4.66972,-4.66972c2.57903,0 4.66974,2.09071 4.66974,4.66972c0,2.57903 -2.09071,4.66974 -4.66974,4.66974c-2.57903,0 -4.66972,-2.09071 -4.66972,-4.66974z" fill="url(#color-4)" stroke="#000000"/><path d="M250.74265,163.02835c0,-3.8151 3.09274,-6.90783 6.90783,-6.90783c3.81509,0 6.90784,3.09274 6.90784,6.90783c0,3.8151 -3.09275,6.90785 -6.90784,6.90785c-3.8151,0 -6.90783,-3.09275 -6.90783,-6.90785z" fill="url(#color-5)" stroke="#000000"/><path d="M234.58255,171.76324c0,-2.94258 2.38542,-5.32799 5.32799,-5.32799c2.94258,0 5.328,2.38542 5.328,5.32799c0,2.94258 -2.38542,5.328 -5.328,5.328c-2.94258,0 -5.32799,-2.38543 -5.32799,-5.328z" fill="url(#color-6)" stroke="#000000"/><path d="M217.48001,187.36541c0,-2.94258 2.38542,-5.32799 5.32799,-5.32799c2.94258,0 5.328,2.38542 5.328,5.32799c0,2.94258 -2.38542,5.328 -5.328,5.328c-2.94258,0 -5.32799,-2.38543 -5.32799,-5.328z" fill="url(#color-7)" stroke="#000000"/><path d="M230.02655,195.36072c0,-1.39345 1.12961,-2.52304 2.52305,-2.52304c1.39345,0 2.52305,1.1296 2.52305,2.52304c0,1.39345 -1.1296,2.52305 -2.52305,2.52305c-1.39345,0 -2.52305,-1.12961 -2.52305,-2.52305z" fill="url(#color-8)" stroke="#000000"/><path d="M249.28903,201.88021c0,-1.63379 1.32446,-2.95823 2.95824,-2.95823c1.63379,0 2.95824,1.32445 2.95824,2.95823c0,1.63379 -1.32444,2.95825 -2.95824,2.95825c-1.63379,0 -2.95824,-1.32445 -2.95824,-2.95825z" fill="url(#color-9)" stroke="#000000"/><path d="M278.85668,198.23388c0,-1.63379 1.32446,-2.95824 2.95824,-2.95824c1.6338,0 2.95824,1.32445 2.95824,2.95824c0,1.63379 -1.32444,2.95825 -2.95824,2.95825c-1.6338,0 -2.95824,-1.32445 -2.95824,-2.95825z" fill="url(#color-10)" stroke="#000000"/><path d="M214.71096,183.50876c0,-1.12482 0.91186,-2.03666 2.03667,-2.03666c1.12482,0 2.03667,0.91185 2.03667,2.03666c0,1.12482 -0.91184,2.03667 -2.03667,2.03667c-1.12482,0 -2.03667,-0.91185 -2.03667,-2.03667z" fill="url(#color-11)" stroke="#000000"/><path d="M219.06996,172.6827c0,-1.73233 1.40434,-3.13665 3.13667,-3.13665c1.73233,0 3.13667,1.40434 3.13667,3.13665c0,1.73233 -1.40434,3.13667 -3.13667,3.13667c-1.73233,0 -3.13667,-1.40432 -3.13667,-3.13667z" fill="url(#color-12)" stroke="#000000"/><path d="M239.97931,175.93058c0,-6.87107 5.5701,-12.44114 12.44114,-12.44114c6.87107,0 12.44118,5.5701 12.44118,12.44114c0,6.87107 -5.57011,12.44117 -12.44118,12.44117c-6.87107,0 -12.44114,-5.5701 -12.44114,-12.44117z" fill="url(#color-13)" stroke="#000000"/><path d="M224.7203,183.05071c0,-6.87107 5.5701,-12.44114 12.44114,-12.44114c6.87107,0 12.44117,5.5701 12.44117,12.44114c0,6.87107 -5.5701,12.44117 -12.44117,12.44117c-6.87107,0 -12.44114,-5.5701 -12.44114,-12.44117z" fill="url(#color-14)" stroke="#000000"/><path d="M244.32563,184.9883c0,-6.87107 5.5701,-12.44114 12.44114,-12.44114c6.87107,0 12.44117,5.5701 12.44117,12.44114c0,6.87107 -5.57011,12.44117 -12.44117,12.44117c-6.87107,0 -12.44114,-5.5701 -12.44114,-12.44117z" fill="url(#color-15)" stroke="#000000"/><path d="M298.01174,170.07827c0,-1.63379 1.32446,-2.95823 2.95824,-2.95823c1.63379,0 2.95824,1.32445 2.95824,2.95823c0,1.63379 -1.32444,2.95825 -2.95824,2.95825c-1.63379,0 -2.95824,-1.32445 -2.95824,-2.95825z" fill="url(#color-16)" stroke="#000000"/><path d="M291.74093,181.1827c0,-1.12482 0.91185,-2.03666 2.03667,-2.03666c1.12482,0 2.03667,0.91185 2.03667,2.03666c0,1.12482 -0.91185,2.03667 -2.03667,2.03667c-1.12482,0 -2.03667,-0.91184 -2.03667,-2.03667z" fill="url(#color-17)" stroke="#000000"/></g></g></svg>