<svg version="1.1" xmlns="http://www.w3.org/2000/svg" xmlns:xlink="http://www.w3.org/1999/xlink" width="115.19735" height="167.67487" viewBox="0,0,115.19735,167.67487"><defs><linearGradient x1="381.41292" y1="154.08522" x2="326.2173" y2="175.68497" gradientUnits="userSpaceOnUse" id="color-1"><stop offset="0" stop-color="#ffffff"/><stop offset="1" stop-color="#dcd0e8"/></linearGradient><linearGradient x1="380.18035" y1="127.70533" x2="332.65413" y2="110.31062" gradientUnits="userSpaceOnUse" id="color-2"><stop offset="0" stop-color="#dcd0e8"/><stop offset="1" stop-color="#ffffff"/></linearGradient><linearGradient x1="342.19709" y1="225.44169" x2="332.96521" y2="127.73649" gradientUnits="userSpaceOnUse" id="color-3"><stop offset="0" stop-color="#f6f3f9"/><stop offset="1" stop-color="#e7def0"/></linearGradient><linearGradient x1="343.77611" y1="185.34652" x2="328.16738" y2="134.56938" gradientUnits="userSpaceOnUse" id="color-4"><stop offset="0" stop-color="#ffffff"/><stop offset="1" stop-color="#dcd0e8"/></linearGradient><linearGradient x1="370.2208" y1="191.85062" x2="370.2208" y2="253.69362" gradientUnits="userSpaceOnUse" id="color-5"><stop offset="0" stop-color="#dcd0e8"/><stop offset="1" stop-color="#ffffff"/></linearGradient><linearGradient x1="372.90404" y1="219.37095" x2="324.81978" y2="219.37095" gradientUnits="userSpaceOnUse" id="color-6"><stop offset="0" stop-color="#ffffff"/><stop offset="1" stop-color="#eae2f1"/></linearGradient><linearGradient x1="390.46923" y1="132.27485" x2="391.12028" y2="167.52618" gradientUnits="userSpaceOnUse" id="color-7"><stop offset="0" stop-color="#ffffff"/><stop offset="1" stop-color="#dcd0e8"/></linearGradient><linearGradient x1="408.67206" y1="152.60316" x2="359.51927" y2="180.84563" gradientUnits="userSpaceOnUse" id="color-8"><stop offset="0" stop-color="#ffffff"/><stop offset="1" stop-color="#e9e0f2"/></linearGradient><linearGradient x1="362.90302" y1="146.41071" x2="334.98166" y2="155.53657" gradientUnits="userSpaceOnUse" id="color-9"><stop offset="0" stop-color="#000000"/><stop offset="1" stop-color="#636363"/></linearGradient><linearGradient x1="391.3207" y1="158.31599" x2="387.07051" y2="175.36627" gradientUnits="userSpaceOnUse" id="color-10"><stop offset="0" stop-color="#000000"/><stop offset="1" stop-color="#636363"/></linearGradient><linearGradient x1="385.82117" y1="173.80854" x2="384.7835" y2="177.97134" gradientUnits="userSpaceOnUse" id="color-11"><stop offset="0" stop-color="#ffffff"/><stop offset="1" stop-color="#000000"/></linearGradient></defs><g transform="translate(-298.97258,-80.15072)"><g data-paper-data="{&quot;isPaintingLayer&quot;:true}" fill-rule="nonzero" stroke-linejoin="miter" stroke-miterlimit="10" stroke-dasharray="" stroke-dashoffset="0" style="mix-blend-mode: normal"><path d="M322.72302,174.62705l6.41096,-23.79291l6.15161,0.28956l4.49442,-8.35601l13.2652,-5.7636l18.1798,4.79416l10.11309,19.08436l-2.48052,18.55809l-14.18797,9.37894l-11.64107,0.28365l-10.34779,-14.08844l-11.52553,11.23327l-4.25289,4.3l-5.71118,-2.88996z" data-paper-data="{&quot;index&quot;:null}" fill="url(#color-1)" stroke="none" stroke-width="0" stroke-linecap="butt"/><path d="M371.25439,134.3075l-10.50822,6.41327l-9.93113,-4.44006l-7.46765,-20.55686l2.70147,-17.59288l11.97607,-17.98025l-0.03937,17.02575l3.16956,16.00299z" data-paper-data="{&quot;index&quot;:null}" fill="url(#color-2)" stroke="none" stroke-width="0" stroke-linecap="butt"/><path d="M314.29843,152.6193l42.32571,-15.34016l34.41583,36.75491l1.53319,25.67931l-45.98911,6.88601l-11.09163,-15.05838z" data-paper-data="{&quot;index&quot;:null}" fill="url(#color-3)" stroke="none" stroke-width="0" stroke-linecap="butt"/><path d="M299.50889,168.71569l9.29689,-22.69576l6.72563,0.2757l4.89874,-8.36613l14.49179,-5.7935l19.88315,4.75319l13.0336,18.36118l-4.62322,19.264l-15.49422,9.4109l-12.72587,0.30989l-11.3373,-14.06508l-13.79496,8.98203l-4.64182,4.30958l-6.24872,-2.87709z" data-paper-data="{&quot;index&quot;:null}" fill="url(#color-4)" stroke="none" stroke-width="0" stroke-linecap="butt"/><path d="M384.92505,246.33631l-16.23386,-8.55873l0.15091,-55.95966l16.0751,-1.49342l22.46557,56.95414l-3.95529,5.82001z" data-paper-data="{&quot;index&quot;:null}" fill="url(#color-5)" stroke="none" stroke-width="0" stroke-linecap="butt"/><path d="M329.50003,238.01331l19.39822,-58.46744l15.76051,-1.43865l5.51554,48.39033l5.40511,12.60827l-8.0518,8.71977l-28.36899,-0.63825z" data-paper-data="{&quot;index&quot;:null}" fill="url(#color-6)" stroke="none" stroke-width="0" stroke-linecap="butt"/><path d="M382.44347,163.66873l-10.85598,-23.90576l12.53356,-7.37084l22.00179,3.94066l8.04709,17.9068l-7.61155,14.06758z" data-paper-data="{&quot;index&quot;:null}" fill="url(#color-7)" stroke="none" stroke-width="0" stroke-linecap="butt"/><path d="M380.51784,200.70054l-21.64988,-8.35994l-10.49154,-10.46151l-2.70232,-16.23058l2.10248,-17.84764l17.60361,-15.1379l20.63919,2.02104l18.21218,11.61008l4.97057,11.31674l-2.70523,11.42377l-4.04084,7.09358l1.29422,4.41953l-5.83495,16.02236z" data-paper-data="{&quot;index&quot;:null}" fill="url(#color-8)" stroke="none" stroke-width="0" stroke-linecap="butt"/><path d="M333.59177,145.86202l9.75752,-10.74322l16.33941,1.43166l4.11795,16.14982l-4.47538,12.5607l-19.82897,2.34206z" data-paper-data="{&quot;index&quot;:null}" fill="url(#color-9)" stroke="none" stroke-width="0" stroke-linecap="butt"/><path d="M383.20873,174.40364l-3.01333,-10.97038l10.32548,-5.31665l9.16897,6.13879l-4.23213,10.78818z" data-paper-data="{&quot;index&quot;:null}" fill="url(#color-10)" stroke="none" stroke-width="0" stroke-linecap="butt"/><path d="M373.53173,164.33598l-3.83806,2.44356l-4.47922,-1.48706l0.62796,-5.61832l5.33604,-0.67527z" data-paper-data="{&quot;index&quot;:null}" fill="#000000" stroke="none" stroke-width="0" stroke-linecap="butt"/><path d="M392.67216,175.14788l-0.08043,9.1913l-9.62467,0.17999l-7.72025,-4.50365l4.24321,-8.15362z" data-paper-data="{&quot;index&quot;:null}" fill="#000000" stroke="none" stroke-width="0" stroke-linecap="butt"/><path d="M379.05966,176.54455l1.73147,-3.98983l10.06005,2.50771l-1.73147,3.98983z" fill="url(#color-11)" stroke="none" stroke-width="0" stroke-linecap="butt"/><path d="M383.48589,182.43778l-1.15164,6.59074" fill="none" stroke="#000000" stroke-width="1.5" stroke-linecap="round"/></g></g></svg>