<svg version="1.1" xmlns="http://www.w3.org/2000/svg" xmlns:xlink="http://www.w3.org/1999/xlink" width="88.42581" height="88.42581" viewBox="0,0,88.42581,88.42581"><defs><radialGradient cx="240.00002" cy="179.99999" r="40.77889" gradientUnits="userSpaceOnUse" id="color-1"><stop offset="0" stop-color="#ffde1e"/><stop offset="1" stop-color="#ffde1e" stop-opacity="0"/></radialGradient><radialGradient cx="240.00002" cy="179.99999" r="40.77889" gradientUnits="userSpaceOnUse" id="color-2"><stop offset="0" stop-color="#ffde1e"/><stop offset="1" stop-color="#ffde1e" stop-opacity="0"/></radialGradient><linearGradient x1="237.09313" y1="160.15534" x2="237.09313" y2="201.655" gradientUnits="userSpaceOnUse" id="color-3"><stop offset="0" stop-color="#ffe6aa"/><stop offset="1" stop-color="#785a00"/></linearGradient><linearGradient x1="238.69765" y1="164.63107" x2="238.69765" y2="187.99614" gradientUnits="userSpaceOnUse" id="color-4"><stop offset="0" stop-color="#ffffff" stop-opacity="0.60484"/><stop offset="1" stop-color="#ffda00" stop-opacity="0.49194"/></linearGradient><linearGradient x1="240.1984" y1="163.39517" x2="240.1984" y2="173.12414" gradientUnits="userSpaceOnUse" id="color-5"><stop offset="0" stop-color="#ffffff"/><stop offset="1" stop-color="#ffff00"/></linearGradient></defs><g transform="translate(-195.78711,-135.7871)"><g data-paper-data="{&quot;isPaintingLayer&quot;:true}" fill-rule="nonzero" stroke-width="0" stroke-linecap="butt" stroke-linejoin="miter" stroke-miterlimit="10" stroke-dasharray="" stroke-dashoffset="0" style="mix-blend-mode: normal"><path d="M199.2211,179.99999c0,-22.52157 18.25734,-40.77889 40.7789,-40.77889c22.52157,0 40.7789,18.25732 40.7789,40.7789c0,22.52157 -18.25734,40.7789 -40.7789,40.7789c-22.52157,0 -40.7789,-18.25734 -40.7789,-40.7789z" fill="url(#color-1)" stroke="#cecc3b"/><path d="M195.78711,224.21291v-88.42581h88.42581v88.42581z" fill="none" stroke="none"/><path d="M199.2211,179.99999c0,-22.52157 18.25734,-40.77889 40.7789,-40.77889c22.52157,0 40.7789,18.25732 40.7789,40.7789c0,22.52157 -18.25734,40.7789 -40.7789,40.7789c-22.52157,0 -40.7789,-18.25734 -40.7789,-40.7789z" fill="url(#color-2)" stroke="#cecc3b"/><path d="M272.02456,181.48979c0,13.73778 -14.60497,20.16519 -33.87906,20.16519c-19.27409,0 -33.03866,-5.59033 -31.75271,-19.25958c1.01977,-10.83977 4.04499,-12.9202 15.84078,-14.00696c4.54354,-0.4186 13.94757,3.26777 13.94757,3.26777c0,0 6.77643,-13.12239 20.99712,-11.25308c14.4124,1.89451 14.84629,14.44966 14.84629,21.08664z" fill="url(#color-3)" stroke="#6effff"/><path d="M256.53842,169.79313c-0.18112,2.8296 -6.89261,3.70028 -6.89261,3.70028c0,0 4.5509,3.81216 2.87475,6.85632c-1.08699,1.97415 -3.38797,-0.42499 -3.34822,0.01848c0.21913,2.44428 2.10194,4.94999 -0.0548,5.31681c-4.17332,0.7098 -0.98223,-3.88251 -2.1632,-6.57297c-1.15332,-2.62748 -4.24109,-4.69923 -4.24109,-4.69923c0,0 6.34153,18.57486 -1.11761,18.65481c-9.18285,0.09845 -2.50358,-17.6731 -2.50358,-17.6731c0,0 -4.79444,4.65622 -9.85733,4.3263c-0.32321,-0.02106 1.29338,5.49192 -2.62806,5.44287c-3.60828,-0.04509 -1.4533,-5.60692 -1.76611,-5.74709c-4.87157,-2.18288 2.79637,-7.08225 2.79637,-7.08225c0,0 -7.49702,1.94476 -11.67039,-0.00549c-5.84534,-2.73156 12.978,-7.6978 22.73115,-7.6978c9.75317,0 18.0219,2.33246 17.84078,5.16206z" fill="url(#color-4)" stroke="none"/><path d="M226.74343,166.08617l11.33321,-1.86301l9.98772,1.60424l-0.04261,4.26959l-9.53114,3.75166l-12.07329,-3.04105z" fill="url(#color-5)" stroke="#cecc3b"/></g></g></svg>