<svg version="1.1" xmlns="http://www.w3.org/2000/svg" xmlns:xlink="http://www.w3.org/1999/xlink" width="481.91667" height="360.62092" viewBox="0,0,481.91667,360.62092"><defs><radialGradient cx="240.00008" cy="180" r="240.33333" gradientUnits="userSpaceOnUse" id="color-1"><stop offset="0" stop-color="#acabad"/><stop offset="1" stop-color="#575352"/></radialGradient></defs><g transform="translate(1.5833,0)"><g data-paper-data="{&quot;isPaintingLayer&quot;:true}" fill-rule="nonzero" stroke-linecap="butt" stroke-linejoin="miter" stroke-miterlimit="10" stroke-dasharray="" stroke-dashoffset="0" style="mix-blend-mode: normal"><path d="M-0.33329,360v-360h480.66667v360z" fill="url(#color-1)" stroke="#000000" stroke-width="0"/><path d="M123.6667,212.87093c0,-69.03559 55.96441,-125 125,-125c69.0356,0 125,55.96441 125,125c0,69.0356 -55.9644,125 -125,125c-69.03559,0 -125,-55.9644 -125,-125z" fill="none" stroke-opacity="0.09804" stroke="#000000" stroke-width="10"/><path d="M94.6667,165.87093c0,-52.46705 42.53295,-95 95,-95c52.46705,0 95,42.53295 95,95c0,52.46705 -42.53295,95 -95,95c-52.46705,0 -95,-42.53295 -95,-95z" fill="none" stroke-opacity="0.25098" stroke="#000000" stroke-width="5"/><path d="M153.6667,159.87093c0,-69.03559 55.96441,-125 125,-125c69.0356,0 125,55.96441 125,125c0,69.0356 -55.9644,125 -125,125c-69.03559,0 -125,-55.9644 -125,-125z" fill="none" stroke-opacity="0.09804" stroke="#000000" stroke-width="5"/><path d="M322.6667,76.37093c0,-36.72693 29.77306,-66.5 66.5,-66.5c36.72694,0 66.5,29.77307 66.5,66.5c0,36.72693 -29.77306,66.5 -66.5,66.5c-36.72694,0 -66.5,-29.77307 -66.5,-66.5z" fill="none" stroke-opacity="0.09804" stroke="#000000" stroke-width="5"/><path d="M260.6667,248.37093c0,-56.60919 45.89081,-102.5 102.5,-102.5c56.60919,0 102.5,45.89081 102.5,102.5c0,56.60919 -45.89081,102.5 -102.5,102.5c-56.60919,0 -102.5,-45.89081 -102.5,-102.5z" fill="none" stroke-opacity="0.09804" stroke="#000000" stroke-width="10"/><path d="M61.6667,95.87093c0,-49.15334 39.84666,-89 89,-89c49.15335,0 89,39.84666 89,89c0,49.15335 -39.84665,89 -89,89c-49.15334,0 -89,-39.84665 -89,-89z" fill="none" stroke-opacity="0.09804" stroke="#000000" stroke-width="10"/><path d="M9.6667,212.87093c0,-72.90159 59.09841,-132 132,-132c72.90159,0 132,59.09841 132,132c0,72.90159 -59.09841,132 -132,132c-72.90159,0 -132,-59.09841 -132,-132z" fill="none" stroke-opacity="0.25098" stroke="#000000" stroke-width="10"/><path d="M316.1667,159.37093c0,-38.38379 31.11621,-69.5 69.5,-69.5c38.38379,0 69.5,31.11621 69.5,69.5c0,38.38379 -31.11621,69.5 -69.5,69.5c-38.38379,0 -69.5,-31.11621 -69.5,-69.5z" fill="none" stroke-opacity="0.25098" stroke="#000000" stroke-width="7.5"/><path d="M238.16671,45.87093c0,-23.19596 18.80404,-42 42,-42c23.19596,0 42,18.80404 42,42c0,23.19596 -18.80404,42 -42,42c-23.19596,0 -42,-18.80404 -42,-42z" fill="none" stroke-opacity="0.25098" stroke="#000000" stroke-width="7.5"/><path d="M26.16671,94.37093c0,-24.02438 19.47561,-43.5 43.5,-43.5c24.02438,0 43.5,19.47562 43.5,43.5c0,24.02438 -19.47562,43.5 -43.5,43.5c-24.02438,0 -43.5,-19.47562 -43.5,-43.5z" fill="none" stroke-opacity="0.25098" stroke="#ffffff" stroke-width="7.5"/><path d="M162.16671,269.37093c0,-43.90663 35.59337,-79.5 79.5,-79.5c43.90664,0 79.5,35.59337 79.5,79.5c0,43.90663 -35.59336,79.5 -79.5,79.5c-43.90663,0 -79.5,-35.59337 -79.5,-79.5z" fill="none" stroke-opacity="0.25098" stroke="#ffffff" stroke-width="7.5"/><path d="M369.16671,241.37093c0,-27.89038 22.60962,-50.5 50.5,-50.5c27.89038,0 50.5,22.60962 50.5,50.5c0,27.89038 -22.60962,50.5 -50.5,50.5c-27.89038,0 -50.5,-22.60962 -50.5,-50.5z" fill="none" stroke-opacity="0.25098" stroke="#ffffff" stroke-width="7.5"/><path d="M162.16671,123.87093c0,-62.96046 51.03954,-114 114,-114c62.96046,0 114,51.03954 114,114c0,62.96046 -51.03954,114 -114,114c-62.96046,0 -114,-51.03954 -114,-114z" fill="none" stroke-opacity="0.1451" stroke="#ffffff" stroke-width="7.5"/><path d="M32.16671,173.87093c0,-62.96046 51.03954,-114 114,-114c62.96046,0 114,51.03954 114,114c0,62.96046 -51.03954,114 -114,114c-62.96046,0 -114,-51.03954 -114,-114z" fill="none" stroke-opacity="0.1451" stroke="#ffffff" stroke-width="5"/><path d="M2.1667,316.87093c0,-22.09139 17.90861,-40 40,-40c22.09139,0 40,17.90861 40,40c0,22.09139 -17.90861,40 -40,40c-22.09139,0 -40,-17.90861 -40,-40z" fill="none" stroke-opacity="0.07451" stroke="#ffffff" stroke-width="7.5"/><path d="M417.16671,33.87093c0,-16.01626 12.98374,-29 29,-29c16.01626,0 29,12.98374 29,29c0,16.01626 -12.98374,29 -29,29c-16.01626,0 -29,-12.98374 -29,-29z" fill="none" stroke-opacity="0.25098" stroke="#000000" stroke-width="5"/></g></g></svg>