<svg version="1.1" xmlns="http://www.w3.org/2000/svg" xmlns:xlink="http://www.w3.org/1999/xlink" width="153.28069" height="221.93292" viewBox="0,0,153.28069,221.93292"><defs><radialGradient cx="281.81394" cy="157.33276" r="17.48859" gradientUnits="userSpaceOnUse" id="color-1"><stop offset="0" stop-color="#000000" stop-opacity="0.63137"/><stop offset="1" stop-color="#000000" stop-opacity="0"/></radialGradient><linearGradient x1="269.89833" y1="170.13391" x2="293.72954" y2="144.5316" gradientUnits="userSpaceOnUse" id="color-2"><stop offset="0" stop-color="#ff5454"/><stop offset="1" stop-color="#eb0000"/></linearGradient><linearGradient x1="280.6506" y1="170.293" x2="264.76514" y2="155.50643" gradientUnits="userSpaceOnUse" id="color-3"><stop offset="0" stop-color="#eb0000"/><stop offset="1" stop-color="#ff5454"/></linearGradient><radialGradient cx="297.52842" cy="124.07603" r="20.90193" gradientUnits="userSpaceOnUse" id="color-4"><stop offset="0" stop-color="#000000" stop-opacity="0.63137"/><stop offset="1" stop-color="#000000" stop-opacity="0"/></radialGradient><linearGradient x1="283.28718" y1="139.37566" x2="311.76964" y2="108.77642" gradientUnits="userSpaceOnUse" id="color-5"><stop offset="0" stop-color="#ff5454"/><stop offset="1" stop-color="#eb0000"/></linearGradient><radialGradient cx="338.75141" cy="74.7705" r="35.01038" gradientUnits="userSpaceOnUse" id="color-6"><stop offset="0" stop-color="#000000" stop-opacity="0.63137"/><stop offset="1" stop-color="#000000" stop-opacity="0"/></radialGradient><linearGradient x1="314.89756" y1="100.39712" x2="362.60521" y2="49.14391" gradientUnits="userSpaceOnUse" id="color-7"><stop offset="0" stop-color="#ff5454"/><stop offset="1" stop-color="#eb0000"/></linearGradient><linearGradient x1="311.76827" y1="124.05106" x2="423.90542" y2="186.21459" gradientUnits="userSpaceOnUse" id="color-8"><stop offset="0" stop-color="#ff0000"/><stop offset="1" stop-color="#ff0000" stop-opacity="0.5"/></linearGradient><linearGradient x1="303.62873" y1="134.89372" x2="426.67871" y2="203.10684" gradientUnits="userSpaceOnUse" id="color-9"><stop offset="0" stop-color="#ffffff"/><stop offset="1" stop-color="#808080"/></linearGradient><linearGradient x1="296.74347" y1="143.36952" x2="282.79102" y2="136.45609" gradientUnits="userSpaceOnUse" id="color-10"><stop offset="0" stop-color="#000000"/><stop offset="1" stop-color="#929292"/></linearGradient><linearGradient x1="296.74347" y1="143.36952" x2="282.79102" y2="136.45609" gradientUnits="userSpaceOnUse" id="color-11"><stop offset="0" stop-color="#929292" stop-opacity="0"/><stop offset="1" stop-color="#929292"/></linearGradient><linearGradient x1="300.16751" y1="93.4991" x2="339.15528" y2="83.73146" gradientUnits="userSpaceOnUse" id="color-12"><stop offset="0" stop-color="#ffffff"/><stop offset="1" stop-color="#9d9d9d"/></linearGradient><linearGradient x1="309.34117" y1="84.65846" x2="370.90082" y2="69.23585" gradientUnits="userSpaceOnUse" id="color-13"><stop offset="0" stop-color="#f20000"/><stop offset="1" stop-color="#ff7979"/></linearGradient><linearGradient x1="300.16017" y1="109.63599" x2="306.5078" y2="112.70669" gradientUnits="userSpaceOnUse" id="color-14"><stop offset="0" stop-color="#c6c6c6"/><stop offset="1" stop-color="#6b6b6b"/></linearGradient><linearGradient x1="294.87755" y1="116.87453" x2="306.50547" y2="113.96137" gradientUnits="userSpaceOnUse" id="color-15"><stop offset="0" stop-color="#ff5454"/><stop offset="1" stop-color="#ce0000"/></linearGradient><linearGradient x1="345.86711" y1="70.02232" x2="369.81893" y2="64.02167" gradientUnits="userSpaceOnUse" id="color-16"><stop offset="0" stop-color="#ffadad" stop-opacity="0"/><stop offset="1" stop-color="#ffadad"/></linearGradient><linearGradient x1="345.86711" y1="70.02232" x2="369.81893" y2="64.02167" gradientUnits="userSpaceOnUse" id="color-17"><stop offset="0" stop-color="#ab0000"/><stop offset="1" stop-color="#ff5454"/></linearGradient><linearGradient x1="341.76779" y1="73.85177" x2="365.71958" y2="67.8511" gradientUnits="userSpaceOnUse" id="color-18"><stop offset="0" stop-color="#ff6b6b" stop-opacity="0"/><stop offset="1" stop-color="#ff6b6b"/></linearGradient><linearGradient x1="341.76779" y1="73.85177" x2="365.71958" y2="67.8511" gradientUnits="userSpaceOnUse" id="color-19"><stop offset="0" stop-color="#ab0000"/><stop offset="1" stop-color="#ff5454"/></linearGradient><linearGradient x1="360.49326" y1="59.21897" x2="358.35952" y2="67.29354" gradientUnits="userSpaceOnUse" id="color-20"><stop offset="0" stop-color="#ffffff" stop-opacity="0.5207"/><stop offset="1" stop-color="#ffffff" stop-opacity="0"/></linearGradient><linearGradient x1="350.21086" y1="60.821" x2="368.64191" y2="65.69149" gradientUnits="userSpaceOnUse" id="color-21"><stop offset="0" stop-color="#ab0000"/><stop offset="1" stop-color="#ff5454"/></linearGradient><linearGradient x1="301.52383" y1="129.45764" x2="291.61862" y2="120.23767" gradientUnits="userSpaceOnUse" id="color-22"><stop offset="0" stop-color="#000000"/><stop offset="1" stop-color="#929292"/></linearGradient><linearGradient x1="310.66814" y1="110.11863" x2="300.76294" y2="100.89864" gradientUnits="userSpaceOnUse" id="color-23"><stop offset="0" stop-color="#000000"/><stop offset="1" stop-color="#929292"/></linearGradient><linearGradient x1="303.85297" y1="146.98141" x2="287.9675" y2="132.19485" gradientUnits="userSpaceOnUse" id="color-24"><stop offset="0" stop-color="#eb0000"/><stop offset="1" stop-color="#ff5454"/></linearGradient><linearGradient x1="409.43724" y1="120.54769" x2="384.5066" y2="131.74637" gradientUnits="userSpaceOnUse" id="color-25"><stop offset="0" stop-color="#ffdada" stop-opacity="0.81062"/><stop offset="1" stop-color="#ffdada" stop-opacity="0"/></linearGradient></defs><g transform="translate(-261.8567,-39.75998)"><g data-paper-data="{&quot;isPaintingLayer&quot;:true}" fill-rule="nonzero" stroke-linejoin="miter" stroke-miterlimit="10" stroke-dasharray="" stroke-dashoffset="0" style="mix-blend-mode: normal"><path d="M294.61509,169.24835c-6.58081,7.06989 -17.64688,7.46635 -24.71674,0.88554c-7.06989,-6.5808 -7.46635,-17.64688 -0.88554,-24.71674c6.58081,-7.06989 17.64689,-7.46635 24.71676,-0.88555c7.06989,6.5808 7.46635,17.64688 0.88554,24.71676z" fill="url(#color-1)" stroke="url(#color-2)" stroke-width="0" stroke-linecap="butt"/><path d="M280.6506,170.293c-4.08319,4.38664 -10.94936,4.63265 -15.33599,0.54946c-4.38664,-4.08319 -4.63265,-10.94936 -0.54946,-15.33599c4.08319,-4.38664 10.94936,-4.63265 15.33599,-0.54946c4.38664,4.08319 4.63265,10.94936 0.54946,15.33599z" fill="url(#color-3)" stroke="#000000" stroke-width="0" stroke-linecap="butt"/><path d="M312.828,138.31725c-7.86522,8.44975 -21.09112,8.92359 -29.54085,1.05838c-8.44973,-7.86522 -8.92359,-21.09112 -1.05838,-29.54085c7.86522,-8.44975 21.09112,-8.92359 29.54085,-1.05838c8.44973,7.86522 8.92359,21.09112 1.05838,29.54085z" fill="url(#color-4)" stroke="url(#color-5)" stroke-width="0" stroke-linecap="butt"/><path d="M364.37796,98.62431c-13.1741,14.15318 -35.32723,14.94687 -49.4804,1.77277c-14.15316,-13.17409 -14.94687,-35.32723 -1.77277,-49.4804c13.1741,-14.15318 35.32723,-14.94687 49.4804,-1.77277c14.15316,13.17409 14.94687,35.32723 1.77277,49.4804z" fill="url(#color-6)" stroke="url(#color-7)" stroke-width="0" stroke-linecap="butt"/><path d="M321.12924,90.58321l13.16242,-30.69524c0,0 21.3434,-1.26646 36.28233,4.94768c21.25159,8.83998 36.32161,42.37446 42.92456,86.8637c8.79655,59.26919 -20.27986,114.81555 -28.86016,109.66074c-10.71662,-6.43828 25.52705,-47.92383 -5.67006,-118.82755c-23.03552,-52.35435 -57.83909,-51.94933 -57.83909,-51.94933z" fill="url(#color-8)" stroke="url(#color-9)" stroke-width="0" stroke-linecap="butt"/><g><path d="M295.73037,134.5876l-12.69033,36.43767c0,0 -3.99191,6.75688 -10.59904,3.43719c-6.48083,-3.25623 -3.35341,-10.35063 -3.35341,-10.35063l20.38794,-32.40725z" fill="url(#color-10)" stroke="url(#color-11)" stroke-width="0" stroke-linecap="butt"/><path d="M306.29828,98.62665c0,0 0.5213,-7.65123 1.1867,-10.83014c0.49988,-2.38809 1.76905,-6.3874 1.76905,-6.3874l27.07758,-5.35262l16.76351,11.08841c0,0 -19.5523,0.75529 -26.15081,3.17487c-7.24761,2.6576 -15.85613,10.98381 -15.85613,10.98381z" fill="url(#color-12)" stroke="#ffffff" stroke-width="0" stroke-linecap="butt"/><path d="M353.27599,93.03024c-2.20868,0.78141 -5.77344,-6.36108 -8.95757,-6.9453c-17.23687,-3.16257 -29.6833,5.26045 -34.97722,-1.42649c-2.66258,-3.3632 8.7254,-23.63034 25.72463,-27.88917c16.99923,-4.25884 45.26801,5.90913 35.83501,12.46657c-15.74303,10.94394 -8.9699,20.7324 -17.62485,23.7944z" fill="url(#color-13)" stroke="#ffffff" stroke-width="0" stroke-linecap="butt"/><path d="M294.51606,112.12768l11.88786,-15.39853l6.34763,3.07068l-4.91945,18.50912l-13.20451,18.41638l-6.19816,-3.08524z" fill="url(#color-14)" stroke="#ffffff" stroke-width="0" stroke-linecap="butt"/><path d="M293.87745,111.91544l14.2109,7.7242" fill="none" stroke="url(#color-15)" stroke-width="7.5" stroke-linecap="round"/><path d="M370.79,68.6448c-7.06735,3.7802 -3.99438,6.05431 -10.60849,7.71135c-1.08328,0.27139 4.21984,-8.47459 3.09593,-8.72703c-5.73835,-1.28883 -17.96289,0.18768 -19.04287,-4.12311c-1.29152,-5.15512 4.12748,-4.02879 10.74159,-5.68583c6.61411,-1.65703 22.4984,7.24916 15.81383,10.8246z" fill="url(#color-16)" stroke="url(#color-17)" stroke-width="0" stroke-linecap="butt"/><path d="M367.08478,68.07061c-2.58587,3.4602 -4.38848,10.45796 -11.00259,12.115c-1.08328,0.27139 4.21984,-8.47459 3.09594,-8.72703c-5.73835,-1.28883 -17.96288,0.1877 -19.04287,-4.12311c-1.29152,-5.15512 4.12748,-4.02879 10.74159,-5.68583c6.61411,-1.65703 17.71442,4.40512 16.20794,6.42095z" fill="url(#color-18)" stroke="url(#color-19)" stroke-width="0" stroke-linecap="butt"/><path d="M371.50465,66.65882c-0.1376,0.5207 -4.30467,6.23214 -6.0904,6.62936c-5.8612,1.30376 -16.14326,-3.76834 -20.04433,-4.79921c-3.64579,-0.96341 -10.67616,-5.8573 -15.35329,-7.80134c-1.85223,-0.76986 8.61991,-3.67587 12.13364,-4.39814c2.25905,-0.46436 13.16478,0.48373 18.25437,1.82867c2.77121,0.73231 5.99009,2.53811 8.25246,4.39122c1.8927,1.55032 3.11596,3.13376 2.84754,4.14941z" fill="url(#color-20)" stroke="url(#color-21)" stroke-width="0" stroke-linecap="butt"/><path d="M290.22932,121.73024l12.43122,6.50623" fill="none" stroke="url(#color-22)" stroke-width="3.5" stroke-linecap="round"/><path d="M299.37362,102.3912l12.43122,6.50623" fill="none" stroke="url(#color-23)" stroke-width="3.5" stroke-linecap="round"/></g><path d="M303.85297,146.98141c-4.08319,4.38664 -10.94936,4.63265 -15.33601,0.54946c-4.38664,-4.08319 -4.63265,-10.94936 -0.54946,-15.33603c4.08319,-4.38664 10.94936,-4.63265 15.33602,-0.54946c4.38664,4.08319 4.63265,10.94936 0.54946,15.33599z" fill="url(#color-24)" stroke="#000000" stroke-width="0" stroke-linecap="butt"/><path d="M411.79013,192.48535c0,0 -7.60152,-55.85969 -14.31925,-76.95788c-6.71774,-21.09819 -33.51866,-48.36329 -27.14525,-50.39261c4.15629,-1.32338 15.25517,8.05248 24.34007,23.45645c4.84623,8.21706 9.12233,21.10014 11.45923,28.43958c3.28603,10.32034 6.48067,28.89134 7.08089,44.87267c0.62682,16.6898 -1.41569,30.58178 -1.41569,30.58178z" fill="url(#color-25)" stroke="#ffffff" stroke-width="0" stroke-linecap="butt"/></g></g></svg>