<svg version="1.1" xmlns="http://www.w3.org/2000/svg" xmlns:xlink="http://www.w3.org/1999/xlink" width="97.0749" height="87.16036" viewBox="0,0,97.0749,87.16036"><defs><radialGradient cx="240" cy="179.99999" r="43.58018" gradientUnits="userSpaceOnUse" id="color-1"><stop offset="0" stop-color="#000000" stop-opacity="0.75294"/><stop offset="1" stop-color="#000000" stop-opacity="0"/></radialGradient><linearGradient x1="278.72522" y1="181.52898" x2="198.05167" y2="181.52898" gradientUnits="userSpaceOnUse" id="color-2"><stop offset="0" stop-color="#ff2929"/><stop offset="1" stop-color="#d50000"/></linearGradient><radialGradient cx="223.22844" cy="198.33558" r="5.58408" gradientUnits="userSpaceOnUse" id="color-3"><stop offset="0" stop-color="#ff6060"/><stop offset="1" stop-color="#ff6060" stop-opacity="0"/></radialGradient><radialGradient cx="212.63773" cy="200.43895" r="8.83779" gradientUnits="userSpaceOnUse" id="color-4"><stop offset="0" stop-color="#ff6060"/><stop offset="1" stop-color="#ff6060" stop-opacity="0"/></radialGradient><radialGradient cx="209.90146" cy="160.57778" r="8.28244" gradientUnits="userSpaceOnUse" id="color-5"><stop offset="0" stop-color="#ff6060"/><stop offset="1" stop-color="#ff6060" stop-opacity="0"/></radialGradient><radialGradient cx="221.85968" cy="161.45186" r="5.18633" gradientUnits="userSpaceOnUse" id="color-6"><stop offset="0" stop-color="#ff6060"/><stop offset="1" stop-color="#ff6060" stop-opacity="0"/></radialGradient><linearGradient x1="216.8252" y1="156.12171" x2="205.72949" y2="157.76554" gradientUnits="userSpaceOnUse" id="color-7"><stop offset="0" stop-color="#ff0000"/><stop offset="1" stop-color="#930000"/></linearGradient><linearGradient x1="205.70649" y1="156.94364" x2="216.8482" y2="156.94364" gradientUnits="userSpaceOnUse" id="color-8"><stop offset="0" stop-color="#000000" stop-opacity="0.5451"/><stop offset="1" stop-color="#ffffff" stop-opacity="0.58824"/></linearGradient><linearGradient x1="208.59354" y1="163.0899" x2="199.58944" y2="164.42387" gradientUnits="userSpaceOnUse" id="color-9"><stop offset="0" stop-color="#8e0000"/><stop offset="1" stop-color="#ff0000"/></linearGradient><linearGradient x1="199.57077" y1="163.75688" x2="208.61219" y2="163.75688" gradientUnits="userSpaceOnUse" id="color-10"><stop offset="0" stop-color="#000000" stop-opacity="0.5451"/><stop offset="1" stop-color="#ffffff" stop-opacity="0.58824"/></linearGradient><linearGradient x1="210.88751" y1="168.94312" x2="205.78776" y2="169.69866" gradientUnits="userSpaceOnUse" id="color-11"><stop offset="0" stop-color="#ff0000"/><stop offset="1" stop-color="#930000"/></linearGradient><linearGradient x1="205.77719" y1="169.3209" x2="210.89808" y2="169.3209" gradientUnits="userSpaceOnUse" id="color-12"><stop offset="0" stop-color="#000000" stop-opacity="0.5451"/><stop offset="1" stop-color="#ffffff" stop-opacity="0.58824"/></linearGradient><linearGradient x1="221.38563" y1="162.15342" x2="214.91527" y2="163.112" gradientUnits="userSpaceOnUse" id="color-13"><stop offset="0" stop-color="#ff0000"/><stop offset="1" stop-color="#930000"/></linearGradient><linearGradient x1="214.90187" y1="162.6327" x2="221.39904" y2="162.6327" gradientUnits="userSpaceOnUse" id="color-14"><stop offset="0" stop-color="#000000" stop-opacity="0.5451"/><stop offset="1" stop-color="#ffffff" stop-opacity="0.58824"/></linearGradient><linearGradient x1="217.3041" y1="206.85976" x2="206.19963" y2="205.276" gradientUnits="userSpaceOnUse" id="color-15"><stop offset="0" stop-color="#ff0000"/><stop offset="1" stop-color="#930000"/></linearGradient><linearGradient x1="206.1783" y1="206.06787" x2="217.32543" y2="206.06787" gradientUnits="userSpaceOnUse" id="color-16"><stop offset="0" stop-color="#000000" stop-opacity="0.5451"/><stop offset="1" stop-color="#ffffff" stop-opacity="0.58824"/></linearGradient><linearGradient x1="206.87345" y1="198.96539" x2="197.86225" y2="197.68021" gradientUnits="userSpaceOnUse" id="color-17"><stop offset="0" stop-color="#8e0000"/><stop offset="1" stop-color="#ff0000"/></linearGradient><linearGradient x1="197.84495" y1="198.32281" x2="206.89075" y2="198.32281" gradientUnits="userSpaceOnUse" id="color-18"><stop offset="0" stop-color="#000000" stop-opacity="0.5451"/><stop offset="1" stop-color="#ffffff" stop-opacity="0.58824"/></linearGradient><linearGradient x1="211.30483" y1="195.00608" x2="206.20107" y2="194.27816" gradientUnits="userSpaceOnUse" id="color-19"><stop offset="0" stop-color="#ff0000"/><stop offset="1" stop-color="#930000"/></linearGradient><linearGradient x1="206.19126" y1="194.64212" x2="211.31462" y2="194.64212" gradientUnits="userSpaceOnUse" id="color-20"><stop offset="0" stop-color="#000000" stop-opacity="0.5451"/><stop offset="1" stop-color="#ffffff" stop-opacity="0.58824"/></linearGradient><linearGradient x1="221.60021" y1="200.55219" x2="215.12475" y2="199.62865" gradientUnits="userSpaceOnUse" id="color-21"><stop offset="0" stop-color="#ff0000"/><stop offset="1" stop-color="#930000"/></linearGradient><linearGradient x1="215.11231" y1="200.09042" x2="221.61263" y2="200.09042" gradientUnits="userSpaceOnUse" id="color-22"><stop offset="0" stop-color="#000000" stop-opacity="0.5451"/><stop offset="1" stop-color="#ffffff" stop-opacity="0.58824"/></linearGradient><linearGradient x1="273.87877" y1="181.00497" x2="202.14762" y2="181.00497" gradientUnits="userSpaceOnUse" id="color-23"><stop offset="0" stop-color="#ff2929"/><stop offset="1" stop-color="#d50000"/></linearGradient><linearGradient x1="246.97441" y1="180.40715" x2="229.68573" y2="180.33598" gradientUnits="userSpaceOnUse" id="color-24"><stop offset="0" stop-color="#1a1a1a" stop-opacity="0"/><stop offset="1" stop-color="#1a1a1a"/></linearGradient><radialGradient cx="262.75838" cy="180.18567" r="14.79909" gradientUnits="userSpaceOnUse" id="color-25"><stop offset="0" stop-color="#ff5656"/><stop offset="1" stop-color="#ff5656" stop-opacity="0"/></radialGradient><radialGradient cx="259.34426" cy="171.35996" r="11.90603" gradientUnits="userSpaceOnUse" id="color-26"><stop offset="0" stop-color="#ff5656"/><stop offset="1" stop-color="#ff5656" stop-opacity="0"/></radialGradient><radialGradient cx="264.38676" cy="177.44456" r="10.79332" gradientUnits="userSpaceOnUse" id="color-27"><stop offset="0" stop-color="#ff6d6d"/><stop offset="1" stop-color="#ff6d6d" stop-opacity="0"/></radialGradient><radialGradient cx="257.5948" cy="162.35997" r="6.11993" gradientUnits="userSpaceOnUse" id="color-28"><stop offset="0" stop-color="#ff4e4e"/><stop offset="1" stop-color="#ff4e4e" stop-opacity="0"/></radialGradient><radialGradient cx="258.00364" cy="197.18028" r="6.11993" gradientUnits="userSpaceOnUse" id="color-29"><stop offset="0" stop-color="#ff4e4e"/><stop offset="1" stop-color="#ff4e4e" stop-opacity="0"/></radialGradient><radialGradient cx="262.32133" cy="167.33184" r="7.36435" gradientUnits="userSpaceOnUse" id="color-30"><stop offset="0" stop-color="#ff7e7e"/><stop offset="1" stop-color="#ff7e7e" stop-opacity="0"/></radialGradient><radialGradient cx="267.48155" cy="191.01692" r="4.9651" gradientUnits="userSpaceOnUse" id="color-31"><stop offset="0" stop-color="#ff8989"/><stop offset="1" stop-color="#ff8989" stop-opacity="0"/></radialGradient><radialGradient cx="270.15208" cy="186.34354" r="4.9651" gradientUnits="userSpaceOnUse" id="color-32"><stop offset="0" stop-color="#ff6060"/><stop offset="1" stop-color="#ff6060" stop-opacity="0"/></radialGradient><linearGradient x1="245.52407" y1="175.44046" x2="237.75311" y2="175.44046" gradientUnits="userSpaceOnUse" id="color-33"><stop offset="0" stop-color="#000000"/><stop offset="1" stop-color="#737373"/></linearGradient><linearGradient x1="245.48129" y1="185.13428" x2="237.71032" y2="185.13428" gradientUnits="userSpaceOnUse" id="color-34"><stop offset="0" stop-color="#000000"/><stop offset="1" stop-color="#737373"/></linearGradient><radialGradient cx="269.6844" cy="173.75314" r="4.61144" gradientUnits="userSpaceOnUse" id="color-35"><stop offset="0" stop-color="#ff7e7e"/><stop offset="1" stop-color="#ff7e7e" stop-opacity="0"/></radialGradient><radialGradient cx="262.43884" cy="193.15164" r="7.85815" gradientUnits="userSpaceOnUse" id="color-36"><stop offset="0" stop-color="#ff6060"/><stop offset="1" stop-color="#ff6060" stop-opacity="0"/></radialGradient><radialGradient cx="266.4303" cy="168.17414" r="3.05804" gradientUnits="userSpaceOnUse" id="color-37"><stop offset="0" stop-color="#ffb5b5"/><stop offset="1" stop-color="#ffb5b5" stop-opacity="0"/></radialGradient><radialGradient cx="246.51263" cy="198.71671" r="4.9651" gradientUnits="userSpaceOnUse" id="color-38"><stop offset="0" stop-color="#dc0000"/><stop offset="1" stop-color="#dc0000" stop-opacity="0"/></radialGradient><radialGradient cx="245.86933" cy="163.84511" r="4.9651" gradientUnits="userSpaceOnUse" id="color-39"><stop offset="0" stop-color="#dc0000"/><stop offset="1" stop-color="#dc0000" stop-opacity="0"/></radialGradient><radialGradient cx="265.51295" cy="179.64763" r="7.36435" gradientUnits="userSpaceOnUse" id="color-40"><stop offset="0" stop-color="#ff6060"/><stop offset="1" stop-color="#ff6060" stop-opacity="0"/></radialGradient><radialGradient cx="214.83604" cy="168.61735" r="7.36435" gradientUnits="userSpaceOnUse" id="color-41"><stop offset="0" stop-color="#ff6060"/><stop offset="1" stop-color="#ff6060" stop-opacity="0"/></radialGradient></defs><g transform="translate(-186.50528,-136.41982)"><g data-paper-data="{&quot;isPaintingLayer&quot;:true}" fill-rule="nonzero" stroke-linecap="butt" stroke-linejoin="miter" stroke-miterlimit="10" stroke-dasharray="" stroke-dashoffset="0" style="mix-blend-mode: normal"><path d="M196.41982,180c0,-24.06867 19.51151,-43.58018 43.58018,-43.58018c24.06867,0 43.58018,19.51152 43.58018,43.58018c0,24.06867 -19.51151,43.58018 -43.58018,43.58018c-24.06867,0 -43.58018,-19.51152 -43.58018,-43.58018z" data-paper-data="{&quot;index&quot;:null}" fill="url(#color-1)" stroke="none" stroke-width="0"/><g><path d="M216.32206,150.54382c14.41969,1.49847 12.81498,13.55331 19.50033,13.26734c1.03259,-0.02674 -0.21334,0.68093 -0.21334,0.68093l0.29851,32.74209c0,0 0.56606,0.47161 -0.16565,0.46574c-5.80622,-0.04652 -9.2308,13.14639 -18.54514,13.5991c-14.38203,0.69902 -14.23203,-9.14739 -18.94076,-10.51746c-4.52296,-1.31602 -10.4015,-2.81528 -10.4015,-2.81528c0,0 -0.46615,-10.42782 13.03169,-10.66821c8.89368,-0.15839 9.52181,3.64367 14.16334,3.56917c7.64314,-0.12268 7.58515,-3.51785 7.58515,-3.51785l-2.80689,-6.41032l3.28772,-4.60927c0,0 0.16109,-4.01656 -8.44674,-4.54018c-6.1094,-0.37164 -6.85669,3.75309 -13.50862,3.70577c-16.21169,-0.11532 -14.61138,-11.39591 -14.61138,-11.39591c0,0 7.31305,0.52639 11.81511,-3.05409c4.50206,-3.58048 9.58116,-11.37209 17.95817,-10.50157z" data-paper-data="{&quot;index&quot;:null}" fill="url(#color-2)" stroke="none" stroke-width="0"/><path d="M224.01687,192.80744c3.05311,0.43544 5.17514,3.26346 4.7397,6.31657c-0.43544,3.05311 -3.26346,5.17514 -6.31657,4.73971c-3.05311,-0.43544 -5.17514,-3.26346 -4.73971,-6.31658c0.43544,-3.05311 3.26346,-5.17514 6.31658,-4.7397z" data-paper-data="{&quot;index&quot;:null}" fill="url(#color-3)" stroke="none" stroke-width="0"/><path d="M213.88557,191.68967c4.83209,0.68916 8.19059,5.16501 7.50142,9.99709c-0.68916,4.83209 -5.16501,8.19059 -9.99709,7.50142c-4.83211,-0.68917 -8.1906,-5.16501 -7.50143,-9.9971c0.68916,-4.83209 5.16501,-8.19059 9.9971,-7.50142z" data-paper-data="{&quot;index&quot;:null}" fill="url(#color-4)" stroke="none" stroke-width="0"/><path d="M208.68765,152.38478c4.52489,-0.67037 8.73644,2.45433 9.40681,6.97921c0.67037,4.52489 -2.45432,8.73644 -6.97919,9.40681c-4.52489,0.67037 -8.73645,-2.45433 -9.40682,-6.9792c-0.67037,-4.52489 2.45434,-8.73645 6.9792,-9.40682z" data-paper-data="{&quot;index&quot;:null}" fill="url(#color-5)" stroke="none" stroke-width="0"/><path d="M221.09962,156.32151c2.83341,-0.41977 5.47062,1.53686 5.89039,4.37027c0.41977,2.83341 -1.53685,5.47062 -4.37027,5.89039c-2.83341,0.41977 -5.47063,-1.53686 -5.8904,-4.37026c-0.41977,-2.83341 1.53686,-5.47062 4.37028,-5.89039z" data-paper-data="{&quot;index&quot;:null}" fill="url(#color-6)" stroke="none" stroke-width="0"/><path d="M210.77564,153.55712c3.06401,-0.45394 5.77248,0.69427 6.04957,2.56459c0.27709,1.87032 -1.98214,3.75451 -5.04614,4.20845c-3.06401,0.45394 -5.7725,-0.69428 -6.04958,-2.5646c-0.27709,-1.87032 1.98215,-3.7545 5.04615,-4.20844z" data-paper-data="{&quot;index&quot;:null}" fill="url(#color-7)" stroke="url(#color-8)" stroke-width="1.5"/><path d="M203.68434,161.00874c2.48642,-0.36836 4.68433,0.56339 4.90919,2.08115c0.22486,1.51776 -1.60849,3.04675 -4.0949,3.41512c-2.48642,0.36836 -4.68434,-0.56339 -4.9092,-2.08115c-0.22486,-1.51776 1.6085,-3.04675 4.09491,-3.41513z" data-paper-data="{&quot;index&quot;:null}" fill="url(#color-9)" stroke="url(#color-10)" stroke-width="1.5"/><path d="M208.10704,167.7644c1.40825,-0.20863 2.65311,0.31909 2.78047,1.17873c0.12735,0.85963 -0.91102,1.72562 -2.31928,1.93426c-1.40825,0.20863 -2.65311,-0.31909 -2.78047,-1.17873c-0.12735,-0.85963 0.91102,-1.72562 2.31928,-1.93426z" data-paper-data="{&quot;index&quot;:null}" fill="url(#color-11)" stroke="url(#color-12)" stroke-width="1.5"/><path d="M217.85789,160.65789c1.78675,-0.26471 3.36615,0.40486 3.52774,1.49552c0.16158,1.09066 -1.15586,2.1894 -2.9426,2.4541c-1.78675,0.26471 -3.36616,-0.40485 -3.52775,-1.49552c-0.16158,-1.09066 1.15587,-2.1894 2.94261,-2.45411z" data-paper-data="{&quot;index&quot;:null}" fill="url(#color-13)" stroke="url(#color-14)" stroke-width="1.5"/><path d="M206.19963,205.276c0.26696,-1.8718 2.96919,-3.03465 6.03561,-2.59732c3.06642,0.43733 5.33581,2.30926 5.06886,4.18105c-0.26696,1.8718 -2.96918,3.03466 -6.0356,2.59733c-3.06642,-0.43733 -5.33582,-2.30926 -5.06887,-4.18106z" data-paper-data="{&quot;index&quot;:null}" fill="url(#color-15)" stroke="url(#color-16)" stroke-width="1.5"/><path d="M197.86225,197.68021c0.21664,-1.51895 2.40948,-2.4626 4.89785,-2.10771c2.48838,0.35489 4.32997,1.87394 4.11334,3.3929c-0.21664,1.51895 -2.40947,2.4626 -4.89784,2.10771c-2.48838,-0.35489 -4.32998,-1.87394 -4.11334,-3.3929z" data-paper-data="{&quot;index&quot;:null}" fill="url(#color-17)" stroke="url(#color-18)" stroke-width="1.5"/><path d="M206.20107,194.27816c0.1227,-0.86031 1.36468,-1.39477 2.77404,-1.19376c1.40936,0.201 2.45241,1.06136 2.32971,1.92167c-0.1227,0.86031 -1.36468,1.39477 -2.77404,1.19376c-1.40936,-0.201 -2.45241,-1.06136 -2.32971,-1.92167z" data-paper-data="{&quot;index&quot;:null}" fill="url(#color-19)" stroke="url(#color-20)" stroke-width="1.5"/><path d="M215.12475,199.62865c0.15567,-1.09152 1.73146,-1.76963 3.5196,-1.5146c1.78815,0.25503 3.11151,1.34662 2.95584,2.43814c-0.15567,1.09152 -1.73145,1.76964 -3.51959,1.51461c-1.78815,-0.25503 -3.11152,-1.34663 -2.95585,-2.43815z" data-paper-data="{&quot;index&quot;:null}" fill="url(#color-21)" stroke="url(#color-22)" stroke-width="1.5"/></g><g stroke-width="0"><path d="M235.73158,163.31419c4.21216,-0.10909 4.57773,-3.77842 11.03546,-7.20576c9.05088,-4.80361 19.76592,-0.22621 23.45716,2.8925c3.69125,3.11871 10.20337,9.42988 9.95733,21.44775c-0.23193,11.32841 -5.75391,17.90448 -10.44903,21.81197c-4.75482,3.95716 -15.63534,6.14929 -23.28724,2.4614c-9.24959,-4.45791 -6.69869,-7.14512 -11.86131,-7.1865c-5.16262,-0.04136 -7.35005,-9.20321 -7.35005,-9.20321l0.42754,-15.17846c0,0 2.12584,-9.58543 8.07014,-9.8397z" data-paper-data="{&quot;index&quot;:null}" fill="url(#color-23)" stroke="none"/><path d="M230.88026,190.9695c-1.78841,-2.58595 3.63515,-10.20348 3.63515,-10.20348c0,0 -5.61343,-7.25114 -4.64811,-9.78603c1.23241,-3.23626 3.42208,-5.29152 7.06414,-5.27652c4.19036,0.01725 7.86041,1.07865 9.91009,5.20097c1.12724,2.26708 -2.85914,9.69548 -2.85914,9.69548c0,0 4.29363,7.44187 2.86451,9.85395c-2.16719,3.65781 -5.64214,4.5919 -9.55605,4.57579c-3.9139,-0.01611 -6.41061,-4.06016 -6.41061,-4.06016z" data-paper-data="{&quot;index&quot;:null}" fill="url(#color-24)" stroke="none"/><path d="M232.77427,186.60311c0,-3.56141 2.88711,-6.44854 6.44853,-6.44854c3.5614,0 6.44853,2.88711 6.44853,6.44854c0,3.56141 -2.8871,6.44852 -6.44853,6.44852c-3.5614,0 -6.44853,-2.88709 -6.44853,-6.44852z" data-paper-data="{&quot;index&quot;:null}" fill="#ffffff" stroke="#000000"/><path d="M232.77427,174.1077c0,-3.5614 2.88711,-6.44852 6.44853,-6.44852c3.5614,0 6.44853,2.88709 6.44853,6.44852c0,3.5614 -2.8871,6.44853 -6.44853,6.44853c-3.5614,0 -6.44853,-2.8871 -6.44853,-6.44853z" data-paper-data="{&quot;index&quot;:null}" fill="#ffffff" stroke="#000000"/><path d="M262.75838,165.3866c8.17332,0 14.7991,6.62579 14.7991,14.7991c0,8.17331 -6.62578,14.79909 -14.7991,14.79909c-8.17332,0 -14.7991,-6.62578 -14.7991,-14.79909c0,-8.17331 6.62578,-14.7991 14.79909,-14.7991z" data-paper-data="{&quot;index&quot;:null}" fill="url(#color-25)" stroke="none"/><path d="M259.34426,159.4539c6.57553,0 11.90603,5.33051 11.90603,11.90604c0,6.57553 -5.33051,11.90603 -11.90604,11.90603c-6.57553,0 -11.90604,-5.3305 -11.90604,-11.90603c0,-6.57553 5.33051,-11.90604 11.90604,-11.90604z" data-paper-data="{&quot;index&quot;:null}" fill="url(#color-26)" stroke="none"/><path d="M264.38676,166.65124c5.961,0 10.79332,4.83233 10.79332,10.79332c0,5.96099 -4.83233,10.79332 -10.79332,10.79332c-5.961,0 -10.79333,-4.83233 -10.79333,-10.79332c0,-5.96099 4.83233,-10.79332 10.79332,-10.79332z" data-paper-data="{&quot;index&quot;:null}" fill="url(#color-27)" stroke="none"/><path d="M257.5948,156.24007c3.37994,0 6.11992,2.73998 6.11992,6.11993c0,3.37995 -2.73997,6.11993 -6.11993,6.11993c-3.37994,0 -6.11993,-2.73997 -6.11993,-6.11993c0,-3.37995 2.73998,-6.11993 6.11993,-6.11993z" data-paper-data="{&quot;index&quot;:null}" fill="url(#color-28)" stroke="none"/><path d="M258.00364,191.06037c3.37994,0 6.11993,2.73997 6.11993,6.11993c0,3.37994 -2.73998,6.11993 -6.11993,6.11993c-3.37994,0 -6.11993,-2.73997 -6.11993,-6.11992c0,-3.37994 2.73998,-6.11993 6.11993,-6.11993z" data-paper-data="{&quot;index&quot;:null}" fill="url(#color-29)" stroke="none"/><path d="M262.32133,159.96749c4.06723,0 7.36435,3.29713 7.36435,7.36435c0,4.06723 -3.29712,7.36435 -7.36434,7.36435c-4.06723,0 -7.36435,-3.29713 -7.36435,-7.36435c0,-4.06723 3.29714,-7.36435 7.36435,-7.36435z" data-paper-data="{&quot;index&quot;:null}" fill="url(#color-30)" stroke="none"/><path d="M267.48155,186.0518c2.74215,0 4.9651,2.22295 4.9651,4.9651c0,2.74215 -2.22295,4.9651 -4.9651,4.9651c-2.74215,0 -4.9651,-2.22295 -4.9651,-4.9651c0,-2.74215 2.22295,-4.9651 4.9651,-4.9651z" data-paper-data="{&quot;index&quot;:null}" fill="url(#color-31)" stroke="none"/><path d="M270.15208,181.37844c2.74215,0 4.9651,2.22295 4.9651,4.9651c0,2.74215 -2.22295,4.9651 -4.9651,4.9651c-2.74215,0 -4.9651,-2.22295 -4.9651,-4.9651c0,-2.74215 2.22295,-4.9651 4.9651,-4.9651z" data-paper-data="{&quot;index&quot;:null}" fill="url(#color-32)" stroke="none"/><path d="M241.63859,171.55498c2.14589,0 3.88548,1.73959 3.88548,3.88548c0,2.14589 -1.73959,3.88548 -3.88548,3.88548c-2.14589,0 -3.88548,-1.73959 -3.88548,-3.88548c0,-2.14589 1.73959,-3.88548 3.88548,-3.88548z" data-paper-data="{&quot;index&quot;:null}" fill="url(#color-33)" stroke="none"/><path d="M241.5958,181.24882c2.14589,0 3.88549,1.73959 3.88549,3.88549c0,2.14589 -1.73959,3.88549 -3.88549,3.88549c-2.14589,0 -3.88549,-1.73959 -3.88549,-3.88549c0,-2.14589 1.73959,-3.88549 3.88549,-3.88549z" data-paper-data="{&quot;index&quot;:null}" fill="url(#color-34)" stroke="none"/><path d="M269.6844,169.14168c2.54683,0 4.61144,2.06461 4.61144,4.61144c0,2.54683 -2.0646,4.61144 -4.61144,4.61144c-2.54683,0 -4.61145,-2.06461 -4.61145,-4.61144c0,-2.54683 2.06461,-4.61144 4.61145,-4.61144z" data-paper-data="{&quot;index&quot;:null}" fill="url(#color-35)" stroke="none"/><path d="M262.43884,185.29346c4.33994,0 7.85815,3.51821 7.85815,7.85815c0,4.33994 -3.51821,7.85815 -7.85815,7.85815c-4.33995,0 -7.85816,-3.51821 -7.85816,-7.85815c0,-4.33994 3.51821,-7.85815 7.85816,-7.85815z" data-paper-data="{&quot;index&quot;:null}" fill="url(#color-36)" stroke="none"/><path d="M266.4303,165.11606c1.68892,0 3.05804,1.36913 3.05804,3.05804c0,1.68892 -1.36912,3.05804 -3.05804,3.05804c-1.68892,0 -3.05805,-1.36913 -3.05805,-3.05804c0,-1.68892 1.36913,-3.05804 3.05805,-3.05804z" data-paper-data="{&quot;index&quot;:null}" fill="url(#color-37)" stroke="none"/><path d="M246.51263,193.75164c2.74215,0 4.9651,2.22295 4.9651,4.9651c0,2.74215 -2.22295,4.9651 -4.9651,4.9651c-2.74215,0 -4.9651,-2.22295 -4.9651,-4.9651c0,-2.74215 2.22296,-4.9651 4.9651,-4.9651z" data-paper-data="{&quot;index&quot;:null}" fill="url(#color-38)" stroke="none"/><path d="M245.86933,158.88001c2.74215,0 4.9651,2.22295 4.9651,4.9651c0,2.74215 -2.22295,4.9651 -4.9651,4.9651c-2.74215,0 -4.9651,-2.22295 -4.9651,-4.9651c0,-2.74215 2.22296,-4.9651 4.9651,-4.9651z" data-paper-data="{&quot;index&quot;:null}" fill="url(#color-39)" stroke="none"/><path d="M265.51295,172.28333c4.06723,0 7.36435,3.29713 7.36435,7.36435c0,4.06723 -3.29712,7.36435 -7.36434,7.36435c-4.06723,0 -7.36435,-3.29713 -7.36435,-7.36435c0,-4.06723 3.29715,-7.36435 7.36435,-7.36435z" data-paper-data="{&quot;index&quot;:null}" fill="url(#color-40)" stroke="none"/><path d="" data-paper-data="{&quot;index&quot;:null}" fill="url(#color-41)" stroke="none"/></g><path d="M234.84029,181.27107l-0.52192,-1.89212l8.23741,-0.26173l2.95118,-10.38271l1.79025,5.2129l-1.92989,6.20447l1.83421,6.47033l-1.0279,3.94563l-3.70728,-9.42011z" fill="#000000" stroke="none" stroke-width="0"/></g></g></svg>