<svg version="1.1" xmlns="http://www.w3.org/2000/svg" xmlns:xlink="http://www.w3.org/1999/xlink" width="727.01923" height="473.8899" viewBox="0,0,727.01923,473.8899"><defs><linearGradient x1="231.23091" y1="-42.07862" x2="231.23091" y2="219.97333" gradientUnits="userSpaceOnUse" id="color-1"><stop offset="0" stop-color="#00a0ff"/><stop offset="1" stop-color="#acfeff"/></linearGradient><radialGradient cx="255.07957" cy="25.66308" r="81.79267" gradientUnits="userSpaceOnUse" id="color-2"><stop offset="0" stop-color="#d6e9ff"/><stop offset="1" stop-color="#d6e9ff" stop-opacity="0"/></radialGradient><radialGradient cx="260.61699" cy="20.29141" r="42.12966" gradientUnits="userSpaceOnUse" id="color-3"><stop offset="0" stop-color="#f8ffe3"/><stop offset="1" stop-color="#f8ffe3" stop-opacity="0"/></radialGradient><linearGradient x1="171.78911" y1="117.77248" x2="171.78911" y2="417.76032" gradientUnits="userSpaceOnUse" id="color-4"><stop offset="0" stop-color="#a3a3a3"/><stop offset="1" stop-color="#1a1a1a"/></linearGradient><radialGradient cx="-41.90228" cy="78.71429" r="0.62098" gradientUnits="userSpaceOnUse" id="color-5"><stop offset="0" stop-color="#daf010"/><stop offset="1" stop-color="#daf010" stop-opacity="0"/></radialGradient><linearGradient x1="393.22175" y1="29.17089" x2="393.22175" y2="73.0093" gradientUnits="userSpaceOnUse" id="color-6"><stop offset="0" stop-color="#ffffff" stop-opacity="0"/><stop offset="1" stop-color="#ffffff"/></linearGradient><linearGradient x1="62.45495" y1="-1.43332" x2="62.45495" y2="37.85586" gradientUnits="userSpaceOnUse" id="color-7"><stop offset="0" stop-color="#ffffff" stop-opacity="0"/><stop offset="1" stop-color="#ffffff"/></linearGradient><linearGradient x1="310.70028" y1="99.75631" x2="310.70028" y2="163.84802" gradientUnits="userSpaceOnUse" id="color-8"><stop offset="0" stop-color="#8a8a8a"/><stop offset="1" stop-color="#000000"/></linearGradient><linearGradient x1="278.35579" y1="95.89649" x2="278.35579" y2="156.17987" gradientUnits="userSpaceOnUse" id="color-9"><stop offset="0" stop-color="#000000"/><stop offset="1" stop-color="#8a8a8a"/></linearGradient><linearGradient x1="342.18351" y1="102.74144" x2="342.18351" y2="172.21146" gradientUnits="userSpaceOnUse" id="color-10"><stop offset="0" stop-color="#8a8a8a"/><stop offset="1" stop-color="#000000"/></linearGradient><linearGradient x1="246.9382" y1="91.31046" x2="246.9382" y2="147.23975" gradientUnits="userSpaceOnUse" id="color-11"><stop offset="0" stop-color="#8a8a8a"/><stop offset="1" stop-color="#000000"/></linearGradient><linearGradient x1="278.35579" y1="95.89649" x2="278.35579" y2="156.17987" gradientUnits="userSpaceOnUse" id="color-12"><stop offset="0" stop-color="#8a8a8a"/><stop offset="1" stop-color="#000000"/></linearGradient></defs><g transform="translate(160.04764,56.12958)"><g data-paper-data="{&quot;isPaintingLayer&quot;:true}" fill-rule="nonzero" stroke="none" stroke-width="0" stroke-linecap="butt" stroke-linejoin="miter" stroke-miterlimit="10" stroke-dasharray="" stroke-dashoffset="0" style="mix-blend-mode: normal"><path d="M-104.5098,195.69607v-237.77468h671.48139v237.77468c0,0 -58.08854,24.27727 -111.85654,24.27727c-116.52897,0 -559.62484,-24.27727 -559.62484,-24.27727z" fill="url(#color-1)"/><path d="M173.28691,25.66308c0,-45.17284 36.61982,-81.79266 81.79266,-81.79266c45.17284,0 81.79267,36.61983 81.79267,81.79267c0,45.17284 -36.61982,81.79267 -81.79266,81.79267c-45.17284,0 -81.79266,-36.61983 -81.79266,-81.79266z" fill="url(#color-2)"/><path d="M242.48733,20.29139c0,-10.01273 8.11692,-18.12965 18.12966,-18.12965c10.01274,0 18.12966,8.11692 18.12966,18.12966c0,10.01273 -8.11692,18.12966 -18.12966,18.12966c-10.01274,0 -18.12966,-8.11693 -18.12966,-18.12966z" fill="#f8ffe3"/><path d="M218.48733,20.29138c0,-23.26756 18.86208,-42.12963 42.12966,-42.12963c23.26758,0 42.12966,18.86208 42.12966,42.12966c0,23.26756 -18.86208,42.12966 -42.12966,42.12966c-23.26758,0 -42.12966,-18.8621 -42.12966,-42.12966z" fill="url(#color-3)"/><path d="M-160.04764,417.76032l15.46912,-267.84915l243.83742,-32.08377c0,0 72.69896,-1.27313 134.503,8.43984c27.94959,4.39249 58.38703,13.9647 78.12531,18.08875c70.62045,14.7552 191.73863,57.95851 191.73863,57.95851l-17.96065,208.43911z" fill="url(#color-4)"/><path d="M-140.113,68.77868c0,-0.34296 0.27802,-0.62098 0.62098,-0.62098c0.34296,0 0.62098,0.27802 0.62098,0.62098c0,0.34296 -0.27802,0.62099 -0.62098,0.62099c-0.34296,0 -0.62098,-0.27802 -0.62098,-0.62099z" fill="url(#color-5)"/><path d="M464.13656,49.02227c0,0 48.66812,5.29655 59.81518,8.59448c12.3705,3.65989 9.1032,9.64909 9.1032,9.64909c0,0 -109.76077,5.7435 -139.83321,5.7435c-47.363,0 -147.09183,1.52148 -152.6558,-9.32609c-0.24609,-0.4798 2.00061,-7.26673 12.00737,-11.57707c8.2283,-3.54428 24.54891,-4.74434 24.54891,-5.15178c0,-9.45792 -10.21729,-19.83707 23.20691,-21.59475c8.26576,-0.43467 46.30305,4.70551 56.31715,4.64945c1.32211,-0.0074 35.26994,-0.83821 36.57547,-0.83821c51.18047,0 70.91483,19.85137 70.91483,19.85137z" fill="url(#color-6)"/><path d="M-36.03141,37.85586c0,0 -3.72559,-11.98145 -0.08801,-14.58942c5.52961,-3.96447 19.23813,0.44962 19.23813,-3.19409c0,-2.99118 -11.08839,-6.57766 -15.14214,-10.62938c-5.34144,-5.33875 -4.00798,-10.8763 -4.00798,-10.8763c0,0 91.43066,-5.79001 124.93175,-5.79001c14.60596,0 72.04096,5.79001 72.04096,5.79001c0,0 13.67863,15.1987 13.67863,22.3328c0,5.57268 -13.67863,16.95639 -13.67863,16.95639c0,0 -71.7694,10.33927 -96.66254,10.33927c-36.33404,0 -100.31015,-10.33927 -100.31015,-10.33927z" fill="url(#color-7)"/><g data-paper-data="{&quot;index&quot;:null}"><path d="M312.65252,99.71898c0,1.39561 -0.86894,2.52697 -1.94084,2.52697c-1.0719,0 -1.94083,-0.97613 -1.94083,-2.37174c0,-1.39561 1.71122,-1.09369 1.71122,-1.09369c0,0 2.17045,-0.45714 2.17045,0.93846z" fill="#404040"/><path d="M311.19713,163.84802c-0.25946,0 -1.1104,-0.0221 -1.54233,-0.28534c-0.64227,-0.39144 -0.7895,-0.43257 -0.7895,-0.43257l-0.14115,-63.00249c0,0 1.28798,0.27021 1.88977,0.21368c0.70057,-0.06582 2.06248,-0.58499 2.06248,-0.58499l-0.2823,63.3738c0,0 -0.71303,0.71791 -1.19698,0.71791z" fill="url(#color-8)"/><path d="M280.04961,155.50463c0,0 -0.71301,0.67524 -1.19696,0.67524c-0.25946,0 -1.11041,-0.02078 -1.54234,-0.26838c-0.64227,-0.36818 -0.7895,-0.40687 -0.7895,-0.40687l-0.14115,-59.25888c0,0 1.28798,0.25415 1.88977,0.20098c0.70057,-0.06191 2.06248,-0.55022 2.06248,-0.55022l-0.28231,59.60814z" fill="url(#color-9)"/><path d="M336.38539,103.35038c0.18727,-0.73385 1.72136,-1.15821 3.69763,-0.91437c1.97627,0.24384 1.24976,1.36263 1.24976,1.36263c0,0 0.26815,1.56583 -1.70812,1.32199c-1.97627,-0.24384 -3.42654,-1.0364 -3.23927,-1.77025z" fill="#404040"/><path d="M246.17426,93.12576c0,0 -0.83161,-0.60612 -0.74706,-0.93745c0.04533,-0.17763 0.22343,-0.75658 0.64952,-1.00903c0.63358,-0.37538 0.71408,-0.46942 0.71408,-0.46942l92.97278,11.65378c0,0 -0.58493,0.83738 -0.61477,1.25867c-0.03473,0.49044 0.41882,1.50816 0.41882,1.50816l-93.39336,-12.00471z" fill="#000000"/><path d="M346.86887,102.79725c0,1.39561 -2.08546,2.52697 -4.65802,2.52697c-2.57256,0 -4.65802,-0.97613 -4.65802,-2.37174c0,-1.39561 4.43218,-1.46624 4.43218,-1.46624c0,0 4.88387,-0.0846 4.88387,1.31101z" fill="#404040"/><path d="M346.2487,170.61847c0,0 -1.54865,1.4583 -2.71013,1.4583c-0.62271,0 -2.01454,0.2945 -3.05118,0.01255c-1.54144,-0.41925 -2.70783,-1.47086 -2.70783,-1.47086l-0.33876,-67.47933c0,0 3.09118,1.08484 4.53544,1.02429c1.68137,-0.07049 4.94997,-1.42199 4.94997,-1.42199l-0.67753,67.87703z" fill="url(#color-10)"/><path d="M246.96205,93.89324c-2.24246,0 -4.06032,-0.97613 -4.06032,-2.37174c0,-1.39561 3.86345,-1.46624 3.86345,-1.46624c0,0 4.25718,-0.0846 4.25718,1.311c0,1.39561 -1.81786,2.52697 -4.06032,2.52697z" fill="#404040"/><path d="M250.48176,145.95727c0,0 -1.34993,1.17405 -2.36237,1.17405c-0.5428,0 -1.75604,0.2371 -2.65967,0.01011c-1.34365,-0.33753 -2.36037,-1.18417 -2.36037,-1.18417l-0.2953,-54.32661c0,0 2.69454,0.87339 3.95347,0.82464c1.46562,-0.05675 4.31481,-1.14482 4.31481,-1.14482l-0.59059,54.6468z" fill="url(#color-11)"/><path d="M280.04961,155.50463c0,0 -0.71301,0.67524 -1.19696,0.67524c-0.25946,0 -1.11041,-0.02078 -1.54234,-0.26838c-0.64227,-0.36818 -0.7895,-0.40687 -0.7895,-0.40687l-0.14115,-59.25888c0,0 1.28798,0.25415 1.88977,0.20098c0.70057,-0.06191 2.06248,-0.55022 2.06248,-0.55022l-0.28231,59.60814z" fill="url(#color-12)"/></g></g></g></svg>