<svg version="1.1" xmlns="http://www.w3.org/2000/svg" xmlns:xlink="http://www.w3.org/1999/xlink" width="79.49276" height="80.13905" viewBox="0,0,79.49276,80.13905"><defs><radialGradient cx="240.00012" cy="179.99999" r="32.79887" gradientUnits="userSpaceOnUse" id="color-1"><stop offset="0" stop-color="#000000"/><stop offset="1" stop-color="#000000" stop-opacity="0"/></radialGradient><linearGradient x1="238.40141" y1="152.43303" x2="238.40141" y2="207.56695" gradientUnits="userSpaceOnUse" id="color-2"><stop offset="0" stop-color="#b70000"/><stop offset="1" stop-color="#000000"/></linearGradient><linearGradient x1="243.82183" y1="163.27989" x2="243.82183" y2="196.72008" gradientUnits="userSpaceOnUse" id="color-3"><stop offset="0" stop-color="#ffffff"/><stop offset="1" stop-color="#ffcbcb"/></linearGradient><linearGradient x1="238.77718" y1="152.85748" x2="238.77718" y2="166.89845" gradientUnits="userSpaceOnUse" id="color-4"><stop offset="0" stop-color="#ffffff" stop-opacity="0.59677"/><stop offset="1" stop-color="#ffffff" stop-opacity="0"/></linearGradient></defs><g transform="translate(-200.4089,-139.93051)"><g data-paper-data="{&quot;isPaintingLayer&quot;:true}" fill-rule="nonzero" stroke-linecap="butt" stroke-linejoin="miter" stroke-miterlimit="10" stroke-dasharray="" stroke-dashoffset="0" style="mix-blend-mode: normal"><path d="M279.90166,220.06956h-79.49276v-80.13905h79.49276z" fill="none" stroke="none" stroke-width="NaN"/><path d="M240.00012,212.79887c-18.11432,0 -32.79887,-14.68456 -32.79887,-32.79887c0,-18.11432 14.68456,-32.79887 32.79887,-32.79887c18.11432,0 32.79887,14.68456 32.79887,32.79887c0,18.11432 -14.68456,32.79887 -32.79887,32.79887z" fill="url(#color-1)" stroke="#000000" stroke-width="0"/><path d="M210.83446,180c0,-15.22481 12.34215,-27.56696 27.56696,-27.56696c15.22481,0 27.56696,12.34215 27.56696,27.56696c0,15.22481 -12.34215,27.56696 -27.56696,27.56696c-15.22481,0 -27.56696,-12.34215 -27.56696,-27.56696z" fill="url(#color-2)" stroke="#000000" stroke-width="0"/><path d="M227.10174,179.99998c0,-9.23425 7.48584,-16.7201 16.7201,-16.7201c9.23425,0 16.7201,7.48584 16.7201,16.7201c0,9.23425 -7.48584,16.7201 -16.7201,16.7201c-9.23425,0 -16.7201,-7.48584 -16.7201,-16.7201z" fill="url(#color-3)" stroke="none" stroke-width="0"/><path d="M245.00686,180c0,0.88736 0.29579,1.58601 0.88737,2.096c0.59157,0.50997 1.34123,0.76495 2.24898,0.76495c0.85676,0 1.59621,-0.24989 2.21838,-0.74966c0.61198,-0.49977 0.91795,-1.20354 0.91795,-2.11129c0,-0.85677 -0.30598,-1.54524 -0.91795,-2.0654c-0.62218,-0.52017 -1.36164,-0.78025 -2.21838,-0.78025c-0.98937,0 -1.75942,0.25498 -2.3102,0.76495c-0.55077,0.50999 -0.82616,1.20356 -0.82616,2.08071zM255.60924,180c0,1.43812 -0.30088,2.74876 -0.90266,3.93191c-0.61198,1.17295 -1.46364,2.10111 -2.55499,2.78447c-1.10155,0.68337 -2.33058,1.02505 -3.68711,1.02505c-0.80577,0 -1.55544,-0.13769 -2.249,-0.41307c-0.69355,-0.28559 -1.31062,-0.68338 -1.85121,-1.19333c-0.54057,-0.52019 -0.98424,-1.10155 -1.33102,-1.74412c-1.14235,1.59112 -2.63658,2.38667 -4.4827,2.38667c-0.88736,0 -1.70331,-0.17339 -2.44787,-0.52016c-0.75476,-0.35698 -1.39223,-0.83637 -1.91241,-1.43813c-0.53037,-0.61198 -0.93836,-1.32593 -1.22394,-2.1419c-0.28558,-0.82616 -0.42837,-1.71862 -0.42837,-2.67737c0,-0.91798 0.13769,-1.78492 0.4131,-2.60088c0.27538,-0.81595 0.68336,-1.54013 1.22394,-2.1725c0.53037,-0.64255 1.16784,-1.13723 1.91239,-1.48402c0.74456,-0.35698 1.56563,-0.53548 2.46318,-0.53548c0.90776,0 1.76452,0.21419 2.57028,0.64257c0.79557,0.41818 1.43304,1.00975 1.91241,1.77471c0.54057,-1.08115 1.28003,-1.91241 2.21838,-2.49378c0.93835,-0.58138 2.0093,-0.87206 3.21285,-0.87206c1.38712,0 2.62636,0.35189 3.71773,1.05567c1.09133,0.69355 1.9379,1.63191 2.53968,2.81506c0.59157,1.17294 0.88734,2.46317 0.88734,3.87071zM236.68405,180c0,0.71398 0.21929,1.26984 0.65787,1.66762c0.43857,0.39776 1.00974,0.59666 1.7135,0.59666c0.71398,0 1.29024,-0.19888 1.72882,-0.59666c0.43857,-0.39778 0.65786,-0.95366 0.65786,-1.66762c0,-0.70377 -0.21929,-1.25966 -0.65786,-1.66762c-0.4386,-0.40799 -1.01487,-0.61198 -1.72882,-0.61198c-0.70376,0 -1.27494,0.20399 -1.7135,0.61198c-0.4386,0.39778 -0.65787,0.95366 -0.65787,1.66762z" fill="#4c0000" stroke="none" stroke-width="0.40889"/><path d="M213.24819,169.99763c-0.77233,-2.16955 7.03644,-17.69488 25.67437,-17.3936c16.63365,0.26888 25.43019,15.00996 24.90508,18.32857c-0.52511,3.3186 -16.69151,1.86186 -25.94582,1.63517c-9.22066,-0.22586 -23.86131,-0.40059 -24.63364,-2.57013z" data-paper-data="{&quot;index&quot;:null}" fill="url(#color-4)" stroke="#000000" stroke-width="0"/></g></g></svg>