<svg version="1.1" xmlns="http://www.w3.org/2000/svg" xmlns:xlink="http://www.w3.org/1999/xlink" width="85.03463" height="85.03462" viewBox="0,0,85.03463,85.03462"><defs><radialGradient cx="301.78061" cy="170.45204" r="42.51709" gradientUnits="userSpaceOnUse" id="color-1"><stop offset="0" stop-color="#000000" stop-opacity="0.63137"/><stop offset="1" stop-color="#000000" stop-opacity="0"/></radialGradient><linearGradient x1="300.8202" y1="212.95825" x2="302.74101" y2="127.94577" gradientUnits="userSpaceOnUse" id="color-2"><stop offset="0" stop-color="#ff5454"/><stop offset="1" stop-color="#eb0000"/></linearGradient><linearGradient x1="292.58461" y1="138.34416" x2="298.87838" y2="205.50394" gradientUnits="userSpaceOnUse" id="color-3"><stop offset="0" stop-color="#929292"/><stop offset="1" stop-color="#000000"/></linearGradient><linearGradient x1="278.80558" y1="175.46047" x2="307.83791" y2="171.90342" gradientUnits="userSpaceOnUse" id="color-4"><stop offset="0" stop-color="#c40000"/><stop offset="1" stop-color="#ff4141"/></linearGradient><linearGradient x1="314.2918" y1="132.92531" x2="321.35317" y2="208.27599" gradientUnits="userSpaceOnUse" id="color-5"><stop offset="0" stop-color="#929292"/><stop offset="1" stop-color="#000000"/></linearGradient><linearGradient x1="314.2443" y1="170.8095" x2="333.23014" y2="168.8638" gradientUnits="userSpaceOnUse" id="color-6"><stop offset="0" stop-color="#da0000"/><stop offset="1" stop-color="#ff4343"/></linearGradient><linearGradient x1="312.13462" y1="169.51657" x2="324.84652" y2="168.32528" gradientUnits="userSpaceOnUse" id="color-7"><stop offset="0" stop-color="#000000" stop-opacity="0.38824"/><stop offset="1" stop-color="#000000" stop-opacity="0"/></linearGradient><linearGradient x1="325.37463" y1="173.921" x2="333.08508" y2="173.53864" gradientUnits="userSpaceOnUse" id="color-8"><stop offset="0" stop-color="#ffffff" stop-opacity="0"/><stop offset="1" stop-color="#ffffff" stop-opacity="0.80784"/></linearGradient><linearGradient x1="273.00246" y1="157.04044" x2="296.98332" y2="163.84153" gradientUnits="userSpaceOnUse" id="color-9"><stop offset="0" stop-color="#eb0000"/><stop offset="1" stop-color="#ff5454"/></linearGradient><linearGradient x1="277.1408" y1="186.06237" x2="301.12166" y2="192.86349" gradientUnits="userSpaceOnUse" id="color-10"><stop offset="0" stop-color="#eb0000"/><stop offset="1" stop-color="#ff5454"/></linearGradient></defs><g transform="translate(-259.26329,-127.93477)"><g data-paper-data="{&quot;isPaintingLayer&quot;:true}" fill-rule="nonzero" stroke-width="0" stroke-linecap="butt" stroke-linejoin="miter" stroke-miterlimit="10" stroke-dasharray="" stroke-dashoffset="0" style="mix-blend-mode: normal"><path d="M302.741,127.94584c23.47554,0.53041 42.07627,19.99108 41.54584,43.46665c-0.53042,23.47555 -19.9911,42.07624 -43.46665,41.54584c-23.47554,-0.53041 -42.07626,-19.99109 -41.54584,-43.46665c0.53041,-23.47554 19.9911,-42.07624 43.46665,-41.54584z" data-paper-data="{&quot;index&quot;:null}" fill="url(#color-1)" stroke="url(#color-2)"/><g stroke="none"><path d="M315.52503,136.19432l6.87707,67.10515l-40.11973,-4.15795c0,0 -8.0764,-4.97377 -9.82381,-22.34882c-1.5389,-15.30192 4.85891,-26.09781 4.85891,-26.09781z" data-paper-data="{&quot;index&quot;:null}" fill="url(#color-3)"/><path d="M289.98226,204.8754l-9.53887,-16.04729l-3.24571,-30.36791l7.08028,-14.4545l20.5635,3.4409l0.61154,6.52548l-16.36955,-0.85174l-3.62586,12.94443l1.5114,16.33852l6.32623,12.57352l14.96954,-4.63671l0.63705,6.79785z" fill="url(#color-4)"/><path d="M321.66433,208.24651c-9.19848,0.94681 -18.37533,-15.14022 -20.49716,-35.93147c-2.12179,-20.79122 3.61497,-38.4134 12.81342,-39.36023c9.19848,-0.94681 18.37533,15.14025 20.49715,35.93146c2.12179,20.79122 -3.61499,38.41338 -12.81342,39.36022z" data-paper-data="{&quot;index&quot;:null}" fill="url(#color-5)"/><path d="M326.77317,199.4611c-5.24277,0.53728 -10.85216,-12.29047 -12.52891,-28.6516c-1.67672,-16.36114 1.21415,-30.06003 6.45697,-30.59734c5.24277,-0.53728 10.85214,12.29046 12.52889,28.6516c1.67672,16.36114 -1.21416,30.06002 -6.45694,30.59731z" data-paper-data="{&quot;index&quot;:null}" fill="url(#color-6)"/><path d="M320.71874,200.2828l-6.68469,-23.46508l-0.86247,-19.31072c0,0 0.72591,-9.5927 2.6338,-13.20413c2.8441,-5.38354 6.31974,-4.61135 6.31974,-4.61135l5.72729,60.70911z" fill="url(#color-7)"/><path d="M333.64115,173.68217c0.48732,9.827 -0.93935,18.24967 -3.06854,18.35524c-2.12918,0.10558 -4.71066,-8.28941 -5.19798,-18.11641c-0.48732,-9.827 1.41176,-19.31395 3.54096,-19.41953c2.12918,-0.10558 4.23824,9.3537 4.72558,19.18071z" fill="url(#color-8)"/></g><path d="M273.00246,157.04044c1.87808,-6.62215 8.76886,-10.46795 15.39097,-8.58985c6.62214,1.87807 10.46795,8.76886 8.58985,15.39097c-1.87808,6.62215 -8.76886,10.46795 -15.39097,8.58987c-6.62214,-1.87807 -10.46794,-8.76886 -8.58985,-15.39097z" fill="url(#color-9)" stroke="#000000"/><path d="M277.1408,186.06237c1.87809,-6.62213 8.76885,-10.46796 15.39097,-8.58987c6.62214,1.87807 10.46796,8.76885 8.58988,15.39098c-1.87809,6.62213 -8.76886,10.46795 -15.39098,8.58987c-6.62214,-1.87807 -10.46795,-8.76886 -8.58987,-15.39097z" fill="url(#color-10)" stroke="#000000"/></g></g></svg>