<svg version="1.1" xmlns="http://www.w3.org/2000/svg" xmlns:xlink="http://www.w3.org/1999/xlink" width="571.41955" height="497.23577" viewBox="0,0,571.41955,497.23577"><defs><linearGradient x1="237.35145" y1="-22.519" x2="237.35145" y2="303.30683" gradientUnits="userSpaceOnUse" id="color-1"><stop offset="0" stop-color="#3debff"/><stop offset="1" stop-color="#ffffff"/></linearGradient><radialGradient cx="7.30198" cy="41.97062" r="33.01887" gradientUnits="userSpaceOnUse" id="color-2"><stop offset="0" stop-color="#ffffff"/><stop offset="1" stop-color="#ffffff" stop-opacity="0"/></radialGradient><radialGradient cx="355.50106" cy="41.45604" r="38.16467" gradientUnits="userSpaceOnUse" id="color-3"><stop offset="0" stop-color="#ffffff" stop-opacity="0.64706"/><stop offset="1" stop-color="#ffffff" stop-opacity="0"/></radialGradient><radialGradient cx="322.05331" cy="53.4629" r="33.01887" gradientUnits="userSpaceOnUse" id="color-4"><stop offset="0" stop-color="#ffffff"/><stop offset="1" stop-color="#ffffff" stop-opacity="0"/></radialGradient><radialGradient cx="248.72574" cy="124.38666" r="24.01372" gradientUnits="userSpaceOnUse" id="color-5"><stop offset="0" stop-color="#ffffff" stop-opacity="0.64706"/><stop offset="1" stop-color="#ffffff" stop-opacity="0"/></radialGradient><radialGradient cx="117.5228" cy="63.7545" r="38.16467" gradientUnits="userSpaceOnUse" id="color-6"><stop offset="0" stop-color="#ffffff"/><stop offset="1" stop-color="#ffffff" stop-opacity="0"/></radialGradient><radialGradient cx="191.26443" cy="46.68761" r="52.10121" gradientUnits="userSpaceOnUse" id="color-7"><stop offset="0" stop-color="#ffffff" stop-opacity="0.66275"/><stop offset="1" stop-color="#ffffff" stop-opacity="0"/></radialGradient><radialGradient cx="144.16301" cy="86.70648" r="33.01887" gradientUnits="userSpaceOnUse" id="color-8"><stop offset="0" stop-color="#ffffff" stop-opacity="0.64706"/><stop offset="1" stop-color="#ffffff" stop-opacity="0"/></radialGradient><radialGradient cx="253.163" cy="71.70648" r="33.01887" gradientUnits="userSpaceOnUse" id="color-9"><stop offset="0" stop-color="#ffffff" stop-opacity="0.64706"/><stop offset="1" stop-color="#ffffff" stop-opacity="0"/></radialGradient><radialGradient cx="229.85781" cy="135.36685" r="18.86793" gradientUnits="userSpaceOnUse" id="color-10"><stop offset="0" stop-color="#ffffff"/><stop offset="1" stop-color="#ffffff" stop-opacity="0"/></radialGradient><radialGradient cx="224.2832" cy="13.66874" r="33.01887" gradientUnits="userSpaceOnUse" id="color-11"><stop offset="0" stop-color="#ffffff"/><stop offset="1" stop-color="#ffffff" stop-opacity="0"/></radialGradient><radialGradient cx="156.76422" cy="200.11813" r="33.01887" gradientUnits="userSpaceOnUse" id="color-12"><stop offset="0" stop-color="#ffffff" stop-opacity="0.59677"/><stop offset="1" stop-color="#ffffff" stop-opacity="0"/></radialGradient><linearGradient x1="241.11248" y1="298.62346" x2="232.17236" y2="436.42692" gradientUnits="userSpaceOnUse" id="color-13"><stop offset="0" stop-color="#00bbe0"/><stop offset="1" stop-color="#0088e2"/></linearGradient><radialGradient cx="461.67165" cy="30.70361" r="75.32752" gradientUnits="userSpaceOnUse" id="color-14"><stop offset="0" stop-color="#fff93d"/><stop offset="1" stop-color="#fff93d" stop-opacity="0"/></radialGradient><linearGradient x1="325.44477" y1="69.11277" x2="460.723" y2="19.45371" gradientUnits="userSpaceOnUse" id="color-15"><stop offset="0" stop-color="#faffd6" stop-opacity="0"/><stop offset="1" stop-color="#faffd6" stop-opacity="0.40392"/></linearGradient><linearGradient x1="313.97505" y1="-4.50929" x2="457.02083" y2="12.92985" gradientUnits="userSpaceOnUse" id="color-16"><stop offset="0" stop-color="#faffd6" stop-opacity="0"/><stop offset="1" stop-color="#faffd6" stop-opacity="0.40392"/></linearGradient><linearGradient x1="351.28948" y1="126.8399" x2="460.04686" y2="32.29877" gradientUnits="userSpaceOnUse" id="color-17"><stop offset="0" stop-color="#faffd6" stop-opacity="0"/><stop offset="1" stop-color="#faffd6" stop-opacity="0.40392"/></linearGradient><linearGradient x1="423.56727" y1="175.74014" x2="466.43591" y2="38.15936" gradientUnits="userSpaceOnUse" id="color-18"><stop offset="0" stop-color="#faffd6" stop-opacity="0"/><stop offset="1" stop-color="#faffd6" stop-opacity="0.40392"/></linearGradient><linearGradient x1="245.47338" y1="136.29286" x2="243.33697" y2="169.22363" gradientUnits="userSpaceOnUse" id="color-19"><stop offset="0" stop-color="#00bbe0" stop-opacity="0"/><stop offset="1" stop-color="#00bbe0"/></linearGradient></defs><g transform="translate(34.42039,44.6239)"><g data-paper-data="{&quot;isPaintingLayer&quot;:true}" fill-rule="nonzero" stroke-width="0" stroke-linecap="butt" stroke-linejoin="miter" stroke-miterlimit="10" stroke-dasharray="" stroke-dashoffset="0" style="mix-blend-mode: normal"><path d="M-34.42039,303.30683v-325.82583h543.54354v325.82583z" fill="url(#color-1)" stroke="#000000"/><path d="M-25.71682,41.97062c0,-18.23582 14.78304,-33.01887 33.01887,-33.01887c18.23582,0 33.01888,14.78305 33.01888,33.01887c0,18.23581 -14.78305,33.01887 -33.01888,33.01887c-18.23582,0 -33.01887,-14.78305 -33.01887,-33.01887z" fill="url(#color-2)" stroke="#000000"/><path d="M355.50105,79.62071c-21.07777,0 -38.16467,-17.08691 -38.16467,-38.16467c0,-21.07777 17.08691,-38.16467 38.16467,-38.16467c21.07777,0 38.16467,17.08691 38.16467,38.16467c0,21.07777 -17.08691,38.16467 -38.16467,38.16467z" data-paper-data="{&quot;index&quot;:null}" fill="url(#color-3)" stroke="#000000"/><path d="M322.05331,86.48178c-18.23582,0 -33.01888,-14.78306 -33.01888,-33.01887c0,-18.23582 14.78306,-33.01887 33.01888,-33.01887c18.23582,0 33.01887,14.78306 33.01887,33.01887c0,18.23582 -14.78305,33.01888 -33.01887,33.01888z" data-paper-data="{&quot;index&quot;:null}" fill="url(#color-4)" stroke="#000000"/><path d="M224.71201,124.38666c0,-13.26241 10.75131,-24.01372 24.01372,-24.01372c13.26241,0 24.01372,10.75131 24.01372,24.01372c0,13.26241 -10.75131,24.01372 -24.01372,24.01372c-13.26241,0 -24.01372,-10.75131 -24.01372,-24.01372z" fill="url(#color-5)" stroke="#000000"/><path d="M79.35806,63.7545c0,-21.07776 17.0869,-38.16467 38.16467,-38.16467c21.07776,0 38.16467,17.0869 38.16467,38.16467c0,21.07776 -17.0869,38.16467 -38.16467,38.16467c-21.07776,0 -38.16467,-17.0869 -38.16467,-38.16467z" fill="url(#color-6)" stroke="#000000"/><path d="M139.16312,46.68761c0,-28.7747 23.3265,-52.10121 52.10121,-52.10121c28.7747,0 52.10121,23.3265 52.10121,52.10121c0,28.7747 -23.3265,52.10121 -52.10121,52.10121c-28.7747,0 -52.10121,-23.3265 -52.10121,-52.10121z" fill="url(#color-7)" stroke="#000000"/><path d="M111.14425,86.70648c0,-18.23582 14.78305,-33.01887 33.01887,-33.01887c18.23582,0 33.01888,14.78304 33.01888,33.01887c0,18.23582 -14.78305,33.01888 -33.01888,33.01888c-18.23582,0 -33.01887,-14.78305 -33.01887,-33.01888z" fill="url(#color-8)" stroke="#000000"/><path d="M220.14425,71.70648c0,-18.23582 14.78305,-33.01887 33.01887,-33.01887c18.23582,0 33.01888,14.78304 33.01888,33.01887c0,18.23582 -14.78305,33.01888 -33.01888,33.01888c-18.23582,0 -33.01887,-14.78305 -33.01887,-33.01888z" fill="url(#color-9)" stroke="#000000"/><path d="M210.98991,135.36685c0,-10.42047 8.44745,-18.86792 18.86792,-18.86792c10.42047,0 18.86793,8.44746 18.86793,18.86793c0,10.42047 -8.44746,18.86792 -18.86793,18.86792c-10.42047,0 -18.86792,-8.44745 -18.86792,-18.86792z" fill="url(#color-10)" stroke="#000000"/><path d="M191.26433,13.66874c0,-18.23582 14.78304,-33.01887 33.01887,-33.01887c18.23581,0 33.01888,14.78305 33.01888,33.01887c0,18.23582 -14.78305,33.01887 -33.01888,33.01887c-18.23582,0 -33.01887,-14.78305 -33.01887,-33.01887z" fill="url(#color-11)" stroke="#000000"/><path d="M123.74539,200.11813c0,-18.23582 14.78304,-33.01887 33.01887,-33.01887c18.23582,0 33.01888,14.78305 33.01888,33.01887c0,18.23581 -14.78305,33.01888 -33.01888,33.01888c-18.23582,0 -33.01887,-14.78305 -33.01887,-33.01888z" fill="url(#color-12)" stroke="#000000"/><path d="M-13.02411,420.51958l3.28176,-103.57465l-11.23415,-165.37126l521.40938,33.52811l-18.78505,267.51009z" fill="url(#color-13)" stroke="#000000"/><g stroke="#000000"><path d="M386.34413,30.70361c0,-5.89233 0.67654,-11.62664 1.95619,-17.1295c7.75518,-33.34954 37.66141,-58.19801 73.37132,-58.19801c41.60224,0 75.32752,33.72527 75.32752,75.32751c0,41.60223 -33.72528,75.32751 -75.32752,75.32751c-41.60224,0 -75.32751,-33.72527 -75.32751,-75.32751z" fill="url(#color-14)"/><path d="M307.82767,80.77766l151.32553,-56.09599l3.86583,13.69905z" fill="url(#color-15)"/><path d="M292.97791,-2.15351l160.26338,19.02173l-2.80117,13.95572z" fill="url(#color-16)"/><path d="M312.13936,163.78359l148.30062,-126.04048l8.48695,11.42718z" fill="url(#color-17)"/><path d="M409.665,227.74297l59.96575,-185.15772l13.22487,5.26419z" fill="url(#color-18)"/></g><path d="M-7.13648,152.97394l2.13641,-32.93077l500.9469,32.49938l-2.13641,32.93078z" fill="url(#color-19)" stroke="#ffffff"/></g></g></svg>