<svg version="1.1" xmlns="http://www.w3.org/2000/svg" xmlns:xlink="http://www.w3.org/1999/xlink" width="37.6" height="43.6" viewBox="0,0,37.6,43.6"><g transform="translate(-221.20006,-158.2)"><g data-paper-data="{&quot;isPaintingLayer&quot;:true}" fill-rule="nonzero" stroke="none" stroke-linecap="butt" stroke-linejoin="miter" stroke-miterlimit="10" stroke-dasharray="" stroke-dashoffset="0" style="mix-blend-mode: normal"><path d="M221.20006,201.8v-43.6h37.6v43.6z" fill="none" stroke-width="0"/><path d="M236.3601,189.3336h12.07876c0.89472,0 1.61321,0.23723 2.15547,0.7117c0.55581,0.47448 0.83372,1.15231 0.83372,2.03348c0,0.78626 -0.30502,1.44374 -0.91506,1.97244c-0.59648,0.51514 -1.28786,0.77271 -2.07413,0.77271h-16.36936c-1.08451,0 -1.93857,-0.27112 -2.56216,-0.81337c-0.6236,-0.55581 -0.93539,-1.28108 -0.93539,-2.17581c0,-0.85404 0.27791,-1.66065 0.83372,-2.41982l13.40051,-18.7485h-10.94002c-0.85405,0 -1.55899,-0.23724 -2.1148,-0.71172c-0.54226,-0.47447 -0.81338,-1.12517 -0.81338,-1.95213c0,-0.78626 0.28468,-1.45052 0.85405,-1.99279c0.58292,-0.55581 1.2743,-0.83372 2.07413,-0.83372h15.23062c1.13874,0 2.00635,0.29824 2.60283,0.89472c0.59648,0.59648 0.89472,1.29464 0.89472,2.09446c0,1.00318 -0.30502,1.89113 -0.91506,2.66385z" fill="#ff0000" stroke-width="0.40889"/></g></g></svg>