<svg version="1.1" xmlns="http://www.w3.org/2000/svg" xmlns:xlink="http://www.w3.org/1999/xlink" width="141.46687" height="129.42387" viewBox="0,0,141.46687,129.42387"><g transform="translate(-167.04427,-111.59171)"><g data-paper-data="{&quot;isPaintingLayer&quot;:true}" fill-opacity="0.74902" fill="#ff0000" fill-rule="nonzero" stroke="none" stroke-width="0" stroke-linecap="butt" stroke-linejoin="miter" stroke-miterlimit="10" stroke-dasharray="" stroke-dashoffset="0" style="mix-blend-mode: normal"><path d="M291.16073,137.66985l-6.51937,-2.04185l2.04184,-6.51937l6.51937,2.04184z"/><path d="M302.27162,195.12554l-3.78408,0.49166l-0.49167,-3.78408l3.78408,-0.49167z"/><path d="M303.27676,146.78528l-3.81557,-0.04905l0.04905,-3.81557l3.81558,0.04905z"/><path d="M261.29381,130.02405l5.10005,6.84629l-5.10005,6.8463l-5.10005,-6.8463z" data-paper-data="{&quot;index&quot;:null}"/><path d="M293.06031,216.67099l-4.31188,1.98453l-1.47835,-5.78826l4.31188,-1.98453z"/><path d="M220.4247,124.95278l-3.86109,-8.17795l6.09204,-5.18312l3.86109,8.17795z"/><path d="M263.08373,115.45714l2.71266,1.1405l-0.8496,3.64147l-2.71266,-1.1405z" data-paper-data="{&quot;index&quot;:null}"/><path d="M301.71009,180.3547l-9.37279,-6.37571l6.80105,-7.74921l9.37279,6.37571z"/><path d="M189.20723,139.60667l-4.11793,-5.27234l5.84504,-3.2543l4.11793,5.27234z"/><path d="M170.77556,168.55461l-3.73129,-0.79863l0.69635,-3.19076l3.73129,0.79862z"/><path d="M270.92129,162.44531l-0.12001,-6.10438l5.38687,-0.46728l0.12001,6.10438z"/><path d="M224.46182,161.03686l-2.77744,-0.60542l0.68408,-3.19324l2.77744,0.60542z"/><path d="M190.23765,223.4609l-13.19596,-1.18925l1.18925,-13.19596l13.19596,1.18925z"/><path d="M268.47646,207.7793l-3.44467,2.64468l-2.64468,-3.44467l3.44467,-2.64468z"/><path d="M250.49336,241.01558l-4.30908,-5.7845l4.30908,-5.7845l4.30908,5.7845z"/><path d="M214.75953,217.84247l-3.08724,-1.29799l0.96691,-4.14431l3.08724,1.29799z"/><path d="M237.51438,195.36621l-8.05954,-14.19519l12.94821,-9.93998l8.05954,14.19519z"/><path d="M204.06904,186.23445l-3.24051,-5.70748l5.20611,-3.99659l3.24051,5.70748z"/><path d="M272.40589,184.91139l-3.16098,-0.68902l0.77855,-3.63419l3.16098,0.68901z"/></g></g></svg>