<svg version="1.1" xmlns="http://www.w3.org/2000/svg" xmlns:xlink="http://www.w3.org/1999/xlink" width="79.49276" height="80.13905" viewBox="0,0,79.49276,80.13905"><defs><radialGradient cx="237.65544" cy="180.15528" r="32.79887" gradientUnits="userSpaceOnUse" id="color-1"><stop offset="0" stop-color="#000000"/><stop offset="1" stop-color="#000000" stop-opacity="0"/></radialGradient><linearGradient x1="248.07006" y1="180.00004" x2="261.81159" y2="180.00004" gradientUnits="userSpaceOnUse" id="color-2"><stop offset="0" stop-color="#ffffff"/><stop offset="1" stop-color="#ffb9b9"/></linearGradient><linearGradient x1="237.65529" y1="200.40604" x2="237.65529" y2="155.84372" gradientUnits="userSpaceOnUse" id="color-3"><stop offset="0" stop-color="#b12020"/><stop offset="1" stop-color="#ff0000"/></linearGradient></defs><g transform="translate(-200.4089,-139.9305)"><g data-paper-data="{&quot;isPaintingLayer&quot;:true}" fill-rule="nonzero" stroke-linejoin="miter" stroke-miterlimit="10" stroke-dasharray="" stroke-dashoffset="0" style="mix-blend-mode: normal"><path d="M279.90166,220.06955h-79.49276v-80.13905h79.49276z" fill="none" stroke="none" stroke-width="NaN" stroke-linecap="butt"/><path d="M237.65544,212.95416c-18.11432,0 -32.79887,-14.68456 -32.79887,-32.79887c0,-18.11432 14.68456,-32.79887 32.79887,-32.79887c18.11432,0 32.79887,14.68456 32.79887,32.79887c0,18.11432 -14.68456,32.79887 -32.79887,32.79887z" fill="url(#color-1)" stroke="#000000" stroke-width="0" stroke-linecap="butt"/><path d="M261.81159,198.3949l-13.74154,2.89358v-42.57687h13.74154z" fill="url(#color-2)" stroke-opacity="0.2" stroke="#ffffff" stroke-width="0" stroke-linecap="butt"/><path d="M261.8116,200.40604l-6.17696,3.75029l-35.02076,-2.5777l-7.1149,-3.4226v-38.06232l35.51749,-4.25v46.10656l10.02975,-2.98403l0.1181,-43.12253h2.64727z" fill="url(#color-3)" stroke="none" stroke-width="0" stroke-linecap="butt"/><path d="M245.00869,190.51733c0,-2.44128 1.97905,-4.42033 4.42033,-4.42033c2.44128,0 4.42033,1.97905 4.42033,4.42033c0,2.44128 -1.97905,4.42033 -4.42033,4.42033c-2.44128,0 -4.42033,-1.97905 -4.42033,-4.42033z" fill="#000000" stroke="#000000" stroke-width="0" stroke-linecap="butt"/><path d="M245.05792,169.17215c0,-2.44128 1.97905,-4.42033 4.42033,-4.42033c2.44128,0 4.42033,1.97905 4.42033,4.42033c0,2.44128 -1.97905,4.42033 -4.42033,4.42033c-2.44128,0 -4.42033,-1.97905 -4.42033,-4.42033z" fill="#000000" stroke="#000000" stroke-width="0" stroke-linecap="butt"/><path d="M256.08408,190.84547v-22.27848" fill="none" stroke="#000000" stroke-width="2" stroke-linecap="round"/></g></g></svg>