<svg version="1.1" xmlns="http://www.w3.org/2000/svg" xmlns:xlink="http://www.w3.org/1999/xlink" width="80.13905" height="79.49276" viewBox="0,0,80.13905,79.49276"><defs><radialGradient cx="240" cy="179.99999" r="32.79887" gradientUnits="userSpaceOnUse" id="color-1"><stop offset="0" stop-color="#000000"/><stop offset="1" stop-color="#000000" stop-opacity="0"/></radialGradient><linearGradient x1="208.96092" y1="160.84653" x2="234.66458" y2="160.84653" gradientUnits="userSpaceOnUse" id="color-2"><stop offset="0" stop-color="#8b0000"/><stop offset="1" stop-color="#ff0000"/></linearGradient><linearGradient x1="209.06678" y1="199.15347" x2="234.77042" y2="199.15347" gradientUnits="userSpaceOnUse" id="color-3"><stop offset="0" stop-color="#8b0000"/><stop offset="1" stop-color="#ff0000"/></linearGradient><linearGradient x1="216.71562" y1="179.71481" x2="264.72409" y2="179.71481" gradientUnits="userSpaceOnUse" id="color-4"><stop offset="0" stop-color="#8b0000"/><stop offset="1" stop-color="#ff0000"/></linearGradient><radialGradient cx="251.30361" cy="171.67001" r="6.20123" gradientUnits="userSpaceOnUse" id="color-5"><stop offset="0" stop-color="#5f0000"/><stop offset="1" stop-color="#780000"/></radialGradient><linearGradient x1="261.95755" y1="179.57748" x2="267.69659" y2="179.57748" gradientUnits="userSpaceOnUse" id="color-6"><stop offset="0" stop-color="#a30303"/><stop offset="1" stop-color="#ff0000"/></linearGradient><radialGradient cx="251.77565" cy="187.67212" r="6.20123" gradientUnits="userSpaceOnUse" id="color-7"><stop offset="0" stop-color="#5f0000"/><stop offset="1" stop-color="#780000"/></radialGradient><linearGradient x1="243.2675" y1="192.02687" x2="253.87283" y2="192.02687" gradientUnits="userSpaceOnUse" id="color-8"><stop offset="0" stop-color="#ff9191"/><stop offset="1" stop-color="#ffffff"/></linearGradient><linearGradient x1="242.48788" y1="167.31525" x2="253.09321" y2="167.31525" gradientUnits="userSpaceOnUse" id="color-9"><stop offset="0" stop-color="#ff9191"/><stop offset="1" stop-color="#ffffff"/></linearGradient><radialGradient cx="245.07312" cy="180.24748" r="17.95007" gradientUnits="userSpaceOnUse" id="color-10"><stop offset="0" stop-color="#ff0000"/><stop offset="1" stop-color="#6f0000"/></radialGradient><linearGradient x1="216.59213" y1="179.78864" x2="252.27984" y2="179.78864" gradientUnits="userSpaceOnUse" id="color-11"><stop offset="0" stop-color="#ffffff" stop-opacity="0"/><stop offset="1" stop-color="#ffffff"/></linearGradient></defs><g transform="translate(-199.93055,-140.25362)"><g data-paper-data="{&quot;isPaintingLayer&quot;:true}" fill-rule="nonzero" stroke-linecap="butt" stroke-linejoin="miter" stroke-miterlimit="10" stroke-dasharray="" stroke-dashoffset="0" style="mix-blend-mode: normal"><path d="M240,212.79887c-18.11432,0 -32.79887,-14.68456 -32.79887,-32.79887c0,-18.11432 14.68456,-32.79887 32.79887,-32.79887c18.11432,0 32.79887,14.68456 32.79887,32.79887c0,18.11432 -14.68456,32.79887 -32.79887,32.79887z" data-paper-data="{&quot;index&quot;:null}" fill="url(#color-1)" stroke="#000000" stroke-width="0"/><path d="M208.96092,164.45779c0,0 6.90807,-10.19649 13.59532,-10.19649c6.68724,0 12.10834,2.94831 12.10834,6.58523c0,3.63692 -5.42109,6.58523 -12.10834,6.58523c-6.68724,0 -13.59532,-2.97397 -13.59532,-2.97397z" data-paper-data="{&quot;index&quot;:null}" fill="url(#color-2)" stroke="none" stroke-width="0"/><path d="M222.6621,192.56823c6.68724,0 12.10833,2.94831 12.10833,6.58524c0,3.63692 -5.42108,6.58523 -12.10833,6.58523c-6.68724,0 -13.59532,-10.19649 -13.59532,-10.19649c0,0 6.90807,-2.97397 13.59532,-2.97397z" data-paper-data="{&quot;index&quot;:null}" fill="url(#color-3)" stroke="none" stroke-width="0"/><path d="M240.61364,203.61283c-13.19852,0 -23.89802,-10.69951 -23.89802,-23.89802c0,-13.19851 10.6995,-23.89802 23.89802,-23.89802c13.19852,0 24.11045,10.69951 24.11045,23.89802c0,13.19851 -10.91193,23.89802 -24.11044,23.89802z" data-paper-data="{&quot;index&quot;:null}" fill="url(#color-4)" stroke="none" stroke-width="0"/><path d="M255.9069,167.91643c2.49373,0 5.86877,2.07001 7.77358,3.40489c3.06874,2.15057 4.01612,4.44773 4.01612,8.50686c0,4.50202 -0.3477,6.27445 -3.99507,8.29982c-1.68244,0.93426 -5.73924,3.61194 -7.79463,3.61194c-6.51127,0 -11.78968,-5.33307 -11.78968,-11.91176c0,-6.57869 5.27842,-11.91175 11.78968,-11.91175z" data-paper-data="{&quot;index&quot;:null}" fill="#8b0000" stroke="none" stroke-width="0"/><path d="M251.30361,166.78419c5.10343,0 9.24057,2.18746 9.24057,4.88582c0,2.69836 -4.13714,4.88582 -9.24057,4.88582c-5.10342,0 -9.24058,-2.18745 -9.24058,-4.88582c0,-2.69836 4.13714,-4.88582 9.24058,-4.88582z" data-paper-data="{&quot;index&quot;:null}" fill="url(#color-5)" stroke="none" stroke-width="0"/><path d="M263.68047,171.28643c3.06874,2.12853 4.01612,4.40215 4.01612,8.41968c0,3.82612 -0.25637,5.66032 -2.63801,7.3715c-0.392,0.28165 -0.84158,0.55996 -1.35706,0.84327c-0.64293,0.35336 -1.95509,-0.9301 -1.71498,-4.3281c0.0757,-1.07134 1.83619,-2.54418 1.84574,-3.99533c0.00904,-1.37283 -1.73649,-2.78334 -1.8048,-3.81152c-0.24813,-3.73394 0.91015,-5.01475 1.65299,-4.49949z" data-paper-data="{&quot;index&quot;:null}" fill="url(#color-6)" stroke="none" stroke-width="0"/><path d="M251.77565,182.7863c5.10343,0 9.24057,2.18746 9.24057,4.88582c0,2.69836 -4.13714,4.88582 -9.24057,4.88582c-5.10342,0 -9.24058,-2.18745 -9.24058,-4.88582c0,-2.69836 4.13714,-4.88582 9.24058,-4.88582z" data-paper-data="{&quot;index&quot;:null}" fill="url(#color-7)" stroke="none" stroke-width="0"/><path d="M251.55214,184.06086c3.63692,0 1.91184,3.2305 1.91184,6.69144c0,3.46095 -9.34678,9.24057 -9.34678,9.24057c0,0 -0.84972,-5.77962 -0.84972,-9.24057c0,-3.46095 4.64772,-6.69144 8.28465,-6.69144z" data-paper-data="{&quot;index&quot;:null}" fill="url(#color-8)" stroke="none" stroke-width="0"/><path d="M242.48789,168.58981c0,-3.46095 0.84971,-9.24058 0.84971,-9.24058c0,0 9.34678,5.77963 9.34678,9.24058c0,3.46095 1.72508,6.69145 -1.91184,6.69145c-3.63692,0 -8.28465,-3.2305 -8.28465,-6.69145z" data-paper-data="{&quot;index&quot;:null}" fill="url(#color-9)" stroke="none" stroke-width="0"/><path d="M263.02319,179.70354c0,1.87713 -8.03652,3.39883 -17.95007,3.39883c-0.85765,0 -4.96701,3.41263 -5.71585,5.91393c-1.10712,3.69805 2.24977,8.87351 1.78411,12.08758c-0.11899,0.82122 -0.84551,2.11199 -2.08238,2.18987c-1.39384,0.08775 -6.25574,-4.40494 -8.53402,-6.54211c-1.00877,-0.94628 -3.06431,0.55768 -3.3132,0.52837c-5.09232,-0.59979 -0.08873,-15.8134 -0.08873,-17.03254c0,-0.89442 -4.61001,-17.00803 -1.62715,-17.61489c2.98286,-0.60687 3.35921,1.16271 4.3357,0.17069c2.80822,-2.85292 7.62647,-9.11324 10.50374,-6.02924c1.40061,1.50125 -2.60994,6.76668 -1.96917,11.81886c0.54615,4.30609 5.74967,7.7118 6.70694,7.7118c0,0 17.95008,1.52173 17.95008,3.39886z" data-paper-data="{&quot;index&quot;:null}" fill="url(#color-10)" stroke="none" stroke-width="0"/><path d="M234.43598,178.51409c9.85489,0 17.84385,0.57064 17.84385,1.27456c0,0.70391 -7.98896,1.27456 -17.84385,1.27456c-9.85489,0 -17.84385,-0.57064 -17.84385,-1.27456c0,-0.70391 7.98896,-1.27456 17.84385,-1.27456z" data-paper-data="{&quot;index&quot;:null}" fill="url(#color-11)" stroke="none" stroke-width="0"/><path d="M199.93056,219.74638v-79.49276h80.13905v79.49276z" fill="none" stroke="none" stroke-width="NaN"/></g></g></svg>