<svg version="1.1" xmlns="http://www.w3.org/2000/svg" xmlns:xlink="http://www.w3.org/1999/xlink" width="119.32509" height="144.24577" viewBox="0,0,119.32509,144.24577"><defs><linearGradient x1="376.91235" y1="153.70698" x2="406.35742" y2="205.14717" gradientUnits="userSpaceOnUse" id="color-1"><stop offset="0" stop-color="#ffffff"/><stop offset="1" stop-color="#dcd0e8"/></linearGradient><linearGradient x1="379.31812" y1="136.01836" x2="429.36392" y2="143.55063" gradientUnits="userSpaceOnUse" id="color-2"><stop offset="0" stop-color="#dcd0e8"/><stop offset="1" stop-color="#ffffff"/></linearGradient><linearGradient x1="388.33544" y1="226.77938" x2="397.56732" y2="129.07418" gradientUnits="userSpaceOnUse" id="color-3"><stop offset="0" stop-color="#f6f3f9"/><stop offset="1" stop-color="#e7def0"/></linearGradient><linearGradient x1="385.78193" y1="199.14996" x2="424.595" y2="162.88018" gradientUnits="userSpaceOnUse" id="color-4"><stop offset="0" stop-color="#ffffff"/><stop offset="1" stop-color="#dcd0e8"/></linearGradient><linearGradient x1="360.31173" y1="193.18831" x2="360.31173" y2="255.03131" gradientUnits="userSpaceOnUse" id="color-5"><stop offset="0" stop-color="#e9e2f0"/><stop offset="1" stop-color="#ffffff"/></linearGradient><linearGradient x1="377.99281" y1="179.44491" x2="377.99281" y2="249.16328" gradientUnits="userSpaceOnUse" id="color-6"><stop offset="0" stop-color="#eae2f1"/><stop offset="1" stop-color="#ffffff"/></linearGradient><linearGradient x1="337.65382" y1="133.72982" x2="337.65382" y2="169.64486" gradientUnits="userSpaceOnUse" id="color-7"><stop offset="0" stop-color="#636363"/><stop offset="1" stop-color="#000000"/></linearGradient><linearGradient x1="321.86047" y1="153.94085" x2="371.01326" y2="182.18332" gradientUnits="userSpaceOnUse" id="color-8"><stop offset="0" stop-color="#ffffff"/><stop offset="1" stop-color="#e9e0f2"/></linearGradient><linearGradient x1="356.94893" y1="176.18189" x2="352.69874" y2="159.13161" gradientUnits="userSpaceOnUse" id="color-9"><stop offset="0" stop-color="#000000"/><stop offset="1" stop-color="#636363"/></linearGradient><linearGradient x1="344.71136" y1="175.14623" x2="345.74903" y2="179.30903" gradientUnits="userSpaceOnUse" id="color-10"><stop offset="0" stop-color="#ffffff"/><stop offset="1" stop-color="#000000"/></linearGradient><linearGradient x1="378.57975" y1="130.7063" x2="381.13483" y2="163.88141" gradientUnits="userSpaceOnUse" id="color-11"><stop offset="0" stop-color="#ffffff"/><stop offset="1" stop-color="#dcd0e8"/></linearGradient><linearGradient x1="385.07947" y1="136.07493" x2="386.08865" y2="149.17819" gradientUnits="userSpaceOnUse" id="color-12"><stop offset="0" stop-color="#000000"/><stop offset="1" stop-color="#000000" stop-opacity="0"/></linearGradient><linearGradient x1="383.5688" y1="149.37228" x2="383.97636" y2="154.66397" gradientUnits="userSpaceOnUse" id="color-13"><stop offset="0" stop-color="#000000"/><stop offset="1" stop-color="#000000" stop-opacity="0"/></linearGradient><linearGradient x1="391.39977" y1="149.02263" x2="392.07905" y2="157.84213" gradientUnits="userSpaceOnUse" id="color-14"><stop offset="0" stop-color="#000000"/><stop offset="1" stop-color="#000000" stop-opacity="0"/></linearGradient><linearGradient x1="393.25024" y1="141.78264" x2="393.75483" y2="148.33428" gradientUnits="userSpaceOnUse" id="color-15"><stop offset="0" stop-color="#000000"/><stop offset="1" stop-color="#000000" stop-opacity="0"/></linearGradient></defs><g transform="translate(-316.3626,-104.91751)"><g data-paper-data="{&quot;isPaintingLayer&quot;:true}" fill-rule="nonzero" stroke-linejoin="miter" stroke-miterlimit="10" stroke-dasharray="" stroke-dashoffset="0" style="mix-blend-mode: normal"><path d="M402.76319,217.62519l-6.26086,-1.33083l-0.61577,-6.01647l-1.93214,-15.97783l-16.89548,4.48371l-8.88926,-7.52171l-5.16885,-16.20327l9.70677,-16.01045l19.8459,-8.52219l17.16681,7.66744l6.7175,12.80859l-1.73985,9.32714l4.97305,3.63249l-9.92843,22.55281z" data-paper-data="{&quot;index&quot;:null}" fill="url(#color-1)" stroke="none" stroke-width="0" stroke-linecap="butt"/><path d="M402.97929,132.3977l10.45686,-12.52181l8.1317,-14.95838l1.88452,21.52125l-6.06782,16.73287l-16.41251,14.45613l-10.84385,-0.86738l-6.14453,-10.66759z" data-paper-data="{&quot;index&quot;:null}" fill="url(#color-2)" stroke="none" stroke-width="0" stroke-linecap="butt"/><path d="M395.04011,192.87868l-11.09163,15.05838l-45.98911,-6.88601l1.53319,-25.67931l34.41583,-36.75491l42.32571,15.34016z" data-paper-data="{&quot;index&quot;:null}" fill="url(#color-3)" stroke="none" stroke-width="0" stroke-linecap="butt"/><path d="M427.01072,217.32191l-6.8517,-0.61512l-1.88069,-6.0483l-7.49345,-14.65694l-16.83415,6.55534l-10.88298,-6.60337l-8.75375,-15.87475l5.57935,-19.00912l20.44384,-9.437l19.61081,5.77482l9.68499,12.23837l0.08428,9.69446l5.97042,3.10873l-3.23408,24.31194z" data-paper-data="{&quot;index&quot;:null}" fill="url(#color-4)" stroke="none" stroke-width="0" stroke-linecap="butt"/><path d="M327.10505,244.43634l-3.95529,-5.82001l22.46557,-56.95414l16.0751,1.49342l0.15091,55.95966l-16.23386,8.55873z" data-paper-data="{&quot;index&quot;:null}" fill="url(#color-5)" stroke="none" stroke-width="0" stroke-linecap="butt"/><path d="M391.37391,248.52503l-28.36899,0.63825l-8.0518,-8.71977l5.40511,-12.60827l5.51554,-48.39033l15.76051,1.43865l19.39822,58.46744z" data-paper-data="{&quot;index&quot;:null}" fill="url(#color-6)" stroke="none" stroke-width="0" stroke-linecap="butt"/><path d="M323.97415,169.64486l-7.61155,-14.06758l8.04709,-17.9068l22.00179,-3.94066l12.53356,7.37084l-10.85598,23.90576z" data-paper-data="{&quot;index&quot;:null}" fill="url(#color-7)" stroke="none" stroke-width="0" stroke-linecap="butt"/><path d="M332.6172,197.90776l-5.83495,-16.02236l1.29422,-4.41953l-4.04084,-7.09358l-2.70523,-11.42377l4.97057,-11.31674l18.21218,-11.61008l20.63919,-2.02104l17.60361,15.1379l2.10248,17.84764l-2.70232,16.23058l-10.49154,10.46151l-21.64988,8.35994z" data-paper-data="{&quot;index&quot;:null}" fill="url(#color-8)" stroke="none" stroke-width="0" stroke-linecap="butt"/><path d="M361.08595,159.4543l4.23213,10.78818l-9.16897,6.13879l-10.32548,-5.31665l3.01333,-10.97038z" data-paper-data="{&quot;index&quot;:null}" fill="url(#color-9)" stroke="none" stroke-width="0" stroke-linecap="butt"/><path d="M336.80668,175.49899l-5.33604,-0.67527l-0.62796,-5.61832l4.47922,-1.48706l3.83806,2.44356z" data-paper-data="{&quot;index&quot;:null}" fill="#000000" stroke="none" stroke-width="0" stroke-linecap="butt"/><path d="M351.04251,173.19959l4.24321,8.15362l-7.72025,4.50365l-9.62467,-0.17999l-0.08043,-9.1913z" data-paper-data="{&quot;index&quot;:null}" fill="#000000" stroke="none" stroke-width="0" stroke-linecap="butt"/><path d="M341.41282,180.38995l-1.73147,-3.98983l10.06005,-2.50771l1.73147,3.98983z" data-paper-data="{&quot;index&quot;:null}" fill="url(#color-10)" stroke="none" stroke-width="0" stroke-linecap="butt"/><path d="M348.19828,190.36621l-1.15164,-6.59074" data-paper-data="{&quot;index&quot;:null}" fill="none" stroke="#000000" stroke-width="1.5" stroke-linecap="round"/><path d="M366.72981,161.18865l-5.52647,-22.38763l11.40213,-7.63458l20.91923,-2.2057l6.56212,20.95365l-8.11927,13.13269z" data-paper-data="{&quot;index&quot;:null}" fill="url(#color-11)" stroke="none" stroke-width="0" stroke-linecap="butt"/><path d="M380.72857,143.76098l4.4769,-7.69575l5.19528,4.92297l-4.69007,8.21913z" data-paper-data="{&quot;index&quot;:null}" fill="url(#color-12)" stroke="none" stroke-width="0" stroke-linecap="butt"/><path d="M380.82654,154.90658l1.86033,-5.46638l4.43934,4.98119z" fill="url(#color-13)" stroke="none" stroke-width="0" stroke-linecap="butt"/><path d="M387.88246,157.65839l0.0382,-6.08647l4.4294,0.97028l3.2075,-3.83979l-0.097,6.11724l-2.75153,2.97399z" fill="url(#color-14)" stroke="none" stroke-width="0" stroke-linecap="butt"/><path d="M390.479,148.58657l4.28313,-6.92038l2.13264,4.65189z" fill="url(#color-15)" stroke="none" stroke-width="0" stroke-linecap="butt"/></g></g></svg>