<svg version="1.1" xmlns="http://www.w3.org/2000/svg" xmlns:xlink="http://www.w3.org/1999/xlink" width="88.42581" height="88.42581" viewBox="0,0,88.42581,88.42581"><defs><radialGradient cx="240.00002" cy="179.99999" r="40.77889" gradientUnits="userSpaceOnUse" id="color-1"><stop offset="0" stop-color="#ffde1e"/><stop offset="1" stop-color="#ffde1e" stop-opacity="0"/></radialGradient><radialGradient cx="240.00002" cy="179.99999" r="40.77889" gradientUnits="userSpaceOnUse" id="color-2"><stop offset="0" stop-color="#ffde1e"/><stop offset="1" stop-color="#ffde1e" stop-opacity="0"/></radialGradient><linearGradient x1="199.55296" y1="185.06091" x2="280.00621" y2="185.06091" gradientUnits="userSpaceOnUse" id="color-3"><stop offset="0" stop-color="#ffe261"/><stop offset="1" stop-color="#ffa200"/></linearGradient><linearGradient x1="201.53674" y1="180.52671" x2="278.68369" y2="180.52671" gradientUnits="userSpaceOnUse" id="color-4"><stop offset="0" stop-color="#ffda24"/><stop offset="1" stop-color="#dd8100"/></linearGradient><linearGradient x1="240.22042" y1="158.97252" x2="240.22042" y2="190.61907" gradientUnits="userSpaceOnUse" id="color-5"><stop offset="0" stop-color="#ffa200"/><stop offset="1" stop-color="#ffe261"/></linearGradient><linearGradient x1="233.73683" y1="192.6711" x2="246.70401" y2="156.92049" gradientUnits="userSpaceOnUse" id="color-6"><stop offset="0" stop-color="#ffda24"/><stop offset="1" stop-color="#dd8100"/></linearGradient><linearGradient x1="205.28388" y1="166.75047" x2="252.2333" y2="166.75047" gradientUnits="userSpaceOnUse" id="color-7"><stop offset="0" stop-color="#feac1a"/><stop offset="1" stop-color="#dd8100"/></linearGradient><linearGradient x1="214.98235" y1="173.47328" x2="268.76479" y2="173.47328" gradientUnits="userSpaceOnUse" id="color-8"><stop offset="0" stop-color="#feac1a"/><stop offset="1" stop-color="#dd8100"/></linearGradient><linearGradient x1="231.95468" y1="178.32251" x2="276.25907" y2="178.32251" gradientUnits="userSpaceOnUse" id="color-9"><stop offset="0" stop-color="#feac1a"/><stop offset="1" stop-color="#dd8100"/></linearGradient><linearGradient x1="249.25764" y1="160.3583" x2="249.25764" y2="181.07776" gradientUnits="userSpaceOnUse" id="color-10"><stop offset="0" stop-color="#dd8100"/><stop offset="1" stop-color="#ffad1b"/></linearGradient><linearGradient x1="236.6937" y1="163.88501" x2="236.6937" y2="187.69036" gradientUnits="userSpaceOnUse" id="color-11"><stop offset="0" stop-color="#dd8100"/><stop offset="1" stop-color="#ffad1b"/></linearGradient><linearGradient x1="223.90935" y1="170.71803" x2="223.90935" y2="189.89456" gradientUnits="userSpaceOnUse" id="color-12"><stop offset="0" stop-color="#dd8100"/><stop offset="1" stop-color="#ffad1b"/></linearGradient><linearGradient x1="244.46666" y1="165.67554" x2="244.46666" y2="204.98587" gradientUnits="userSpaceOnUse" id="color-13"><stop offset="0" stop-color="#8f2a00" stop-opacity="0.75686"/><stop offset="1" stop-color="#ff8200" stop-opacity="0.44167"/></linearGradient><linearGradient x1="243.18241" y1="163.4683" x2="243.18241" y2="173.20386" gradientUnits="userSpaceOnUse" id="color-14"><stop offset="0" stop-color="#ffffff"/><stop offset="1" stop-color="#ffff00"/></linearGradient></defs><g transform="translate(-195.78711,-135.7871)"><g data-paper-data="{&quot;isPaintingLayer&quot;:true}" fill-rule="nonzero" stroke-linejoin="miter" stroke-miterlimit="10" stroke-dasharray="" stroke-dashoffset="0" style="mix-blend-mode: normal"><path d="M199.2211,179.99999c0,-22.52157 18.25734,-40.77889 40.7789,-40.77889c22.52157,0 40.7789,18.25732 40.7789,40.7789c0,22.52157 -18.25734,40.7789 -40.7789,40.7789c-22.52157,0 -40.7789,-18.25734 -40.7789,-40.7789z" fill="url(#color-1)" stroke="#cecc3b" stroke-width="0" stroke-linecap="butt"/><path d="M195.78711,224.21291v-88.42581h88.42581v88.42581z" fill="none" stroke="none" stroke-width="0" stroke-linecap="butt"/><path d="M199.2211,179.99999c0,-22.52157 18.25734,-40.77889 40.7789,-40.77889c22.52157,0 40.7789,18.25732 40.7789,40.7789c0,22.52157 -18.25734,40.7789 -40.7789,40.7789c-22.52157,0 -40.7789,-18.25734 -40.7789,-40.7789z" fill="url(#color-2)" stroke="#cecc3b" stroke-width="0" stroke-linecap="butt"/><g><g><path d="M199.9938,184.60448l1.54294,-12.78436l77.14695,3.3063l1.32252,13.88646c0,0 -9.33996,10.58221 -41.21851,9.91889c-29.09664,-0.60543 -38.79389,-14.32729 -38.79389,-14.32729z" fill="url(#color-3)" stroke="url(#color-4)" stroke-width="2" stroke-linecap="butt"/><path d="M278.65302,176.33129c-0.34747,8.69708 -17.83602,15.05999 -39.06176,14.21196c-21.22574,-0.84803 -38.15092,-8.58587 -37.80345,-17.28295c0.34747,-8.69708 17.83602,-15.05999 39.06176,-14.21196c21.22574,0.84803 38.15092,8.58587 37.80345,17.28295z" fill="url(#color-5)" stroke="url(#color-6)" stroke-width="2.5" stroke-linecap="butt"/><path d="M203.07968,174.68559l49.59447,-14.32729" fill="none" stroke="url(#color-7)" stroke-width="2" stroke-linecap="round"/><path d="M266.11974,164.10543l-56.42748,17.85401" fill="none" stroke="url(#color-8)" stroke-width="2" stroke-linecap="round"/><path d="M275.59781,170.05677l-51.79867,17.63359" fill="none" stroke="url(#color-9)" stroke-width="2" stroke-linecap="round"/><path d="M276.03865,180.63693l-54.44371,-20.27863" fill="none" stroke="url(#color-10)" stroke-width="2" stroke-linecap="round"/><path d="M210.13311,164.54627l54.44371,23.14409" fill="none" stroke="url(#color-11)" stroke-width="2" stroke-linecap="round"/><path d="M203.3001,170.71803l41.21851,19.17652" fill="none" stroke="url(#color-12)" stroke-width="2" stroke-linecap="round"/></g><path d="M271.23628,179.1776c-0.21848,2.9307 -8.31426,3.83249 -8.31426,3.83249c0,0 5.48956,3.94837 3.46769,7.1013c-1.31119,2.04469 -4.08676,-0.44017 -4.03881,0.01914c0.26433,2.53161 2.53548,5.12686 -0.06611,5.50678c-5.0341,0.73516 -1.18482,-4.02123 -2.60937,-6.80783c-1.3912,-2.72136 -5.11584,-4.86714 -5.11584,-4.86714c0,0 4.19772,9.67561 2.71636,15.18257c-0.24088,0.89548 8.45002,0.11449 6.4205,3.54124c-0.92192,1.55662 -7.18051,2.22941 -11.89613,2.2977c-4.83724,0.07005 -8.97764,-1.70596 -9.60985,-1.70014c-2.10315,-4.38295 6.68388,-2.64481 5.65983,-4.35111c-2.91844,-4.86278 2.34121,-13.95347 2.34121,-13.95347c0,0 -5.78333,4.8226 -11.89048,4.48089c-0.38987,-0.02182 1.56015,5.68815 -3.17011,5.63735c-4.35252,-0.0467 -1.75306,-5.80726 -2.13039,-5.95244c-5.87636,-2.26087 3.37314,-7.33531 3.37314,-7.33531c0,0 -23.37063,-2.61457 -13.63665,-8.60206c-15.42693,-7.01714 8.38096,-7.53202 20.14576,-7.53202c11.76483,0 28.57206,10.57134 28.35358,13.50205z" fill="url(#color-13)" stroke="none" stroke-width="0" stroke-linecap="butt"/><path d="M229.71832,166.16113l10.45921,-3.40224l10.87617,3.14329l-0.04264,3.3908l-9.5376,4.63588l-11.86105,-3.92479z" fill="url(#color-14)" stroke="#cecc3b" stroke-width="0" stroke-linecap="butt"/></g></g></g></svg>