<svg version="1.1" xmlns="http://www.w3.org/2000/svg" xmlns:xlink="http://www.w3.org/1999/xlink" width="143.42772" height="161.93778" viewBox="0,0,143.42772,161.93778"><defs><linearGradient x1="238.11319" y1="202.49238" x2="188.72431" y2="189.57482" gradientUnits="userSpaceOnUse" id="color-1"><stop offset="0" stop-color="#ffffff"/><stop offset="1" stop-color="#dcd0e8"/></linearGradient><linearGradient x1="169.54358" y1="186.5404" x2="150.07307" y2="142.18254" gradientUnits="userSpaceOnUse" id="color-2"><stop offset="0" stop-color="#dcd0e8"/><stop offset="1" stop-color="#ffffff"/></linearGradient><linearGradient x1="268.99732" y1="171.18269" x2="238.83701" y2="180.63217" gradientUnits="userSpaceOnUse" id="color-3"><stop offset="0" stop-color="#ffffff"/><stop offset="1" stop-color="#dcd0e8"/></linearGradient><linearGradient x1="258.4575" y1="140.67516" x2="179.09962" y2="220.03309" gradientUnits="userSpaceOnUse" id="color-4"><stop offset="0" stop-color="#f6f3f9"/><stop offset="1" stop-color="#e7def0"/></linearGradient><linearGradient x1="155.94386" y1="204.08718" x2="209.6808" y2="204.08718" gradientUnits="userSpaceOnUse" id="color-5"><stop offset="0" stop-color="#ffffff"/><stop offset="1" stop-color="#dcd0e8"/></linearGradient><linearGradient x1="233.14465" y1="95.5264" x2="270.30171" y2="95.5264" gradientUnits="userSpaceOnUse" id="color-6"><stop offset="0" stop-color="#ffffff"/><stop offset="1" stop-color="#e9e0f2"/></linearGradient><linearGradient x1="277.18347" y1="96.87697" x2="232.66265" y2="141.39773" gradientUnits="userSpaceOnUse" id="color-7"><stop offset="0" stop-color="#ffffff"/><stop offset="1" stop-color="#e9e0f2"/></linearGradient><linearGradient x1="225.47573" y1="80.0213" x2="225.47573" y2="121.71754" gradientUnits="userSpaceOnUse" id="color-8"><stop offset="0" stop-color="#000000"/><stop offset="1" stop-color="#636363"/></linearGradient><linearGradient x1="277.29984" y1="198.10585" x2="217.71223" y2="177.56938" gradientUnits="userSpaceOnUse" id="color-9"><stop offset="0" stop-color="#ffffff"/><stop offset="1" stop-color="#eae2f1"/></linearGradient><linearGradient x1="202.90612" y1="137.42839" x2="202.90612" y2="157.08483" gradientUnits="userSpaceOnUse" id="color-10"><stop offset="0" stop-color="#636363"/><stop offset="1" stop-color="#000000"/></linearGradient></defs><g transform="translate(-143.28351,-78.88972)"><g data-paper-data="{&quot;isPaintingLayer&quot;:true}" fill-rule="nonzero" stroke="none" stroke-width="0" stroke-linecap="butt" stroke-linejoin="miter" stroke-miterlimit="10" stroke-dasharray="" stroke-dashoffset="0" style="mix-blend-mode: normal"><path d="M198.11205,232.07909l-11.74791,-17.47036l4.18561,-6.35l-3.73059,-9.35047l3.96411,-17.20564l14.03715,-12.78876l9.42559,-4.61403l14.44183,-0.94678l12.32084,14.37141l-10.92571,19.56788l-17.82477,19.30012l10.52138,8.67326l0.67209,6.86459l-5.96282,4.45407z" data-paper-data="{&quot;index&quot;:null}" fill="url(#color-1)"/><path d="M157.28849,165.42774l-9.15845,-15.4249l-4.84653,-17.82831l13.06728,11.26751l13.41193,9.8921l26.46836,7.8033l-22.27788,14.27118z" data-paper-data="{&quot;index&quot;:null}" fill="url(#color-2)"/><path d="M274.77373,214.51551l-7.61556,5.8206l-12.70427,-11.39073l-3.94136,-28.15185l-17.15189,-39.66717l24.78801,7.22733l17.3688,46.01565z" data-paper-data="{&quot;index&quot;:null}" fill="url(#color-3)"/><path d="M209.34793,213.00365l-26.71006,10.56769l-0.16082,-53.25123l13.92403,-16.57841l11.9968,-10.52087l11.89711,-16.9514l35.63525,11.87841l4.8541,10.33256l-0.43631,11.31866l-22.36769,39.78164z" data-paper-data="{&quot;index&quot;:null}" fill="url(#color-4)"/><path d="M168.11069,236.79195l-12.16682,-17.18124l4.03087,-6.44933l-3.95555,-9.25755l3.547,-17.29644l13.72388,-13.12437l9.3113,-4.84054l14.41472,-1.29563l12.66467,14.06935l-1.20477,20.20505l-6.95804,12.64569l-19.63962,6.70094l10.72799,8.41637l0.83784,6.84633l-5.8534,4.59692z" data-paper-data="{&quot;index&quot;:null}" fill="url(#color-5)"/><path d="M236.93561,108.37208l-3.79098,-22.7459l11.95472,-6.73646l18.49952,2.5077l6.70281,18.29523l-8.34557,12.47042z" data-paper-data="{&quot;index&quot;:null}" fill="url(#color-6)"/><path d="M262.34061,148.38329l-14.19018,-0.7018l-17.0313,-9.67442l-10.2648,-8.41767l-7.03146,-24.93694l13.90891,-16.19356l21.92411,-6.1583l21.49777,8.54659l7.71355,11.57615l-1.46915,13.61349l7.57081,2.26034l1.74236,10.35635l-4.60075,13.65854z" data-paper-data="{&quot;index&quot;:null}" fill="url(#color-7)"/><path d="M284.90716,117.58436l0.57828,6.2228l-8.26415,-7.72949z" data-paper-data="{&quot;index&quot;:null}" fill="#000000"/><path d="M207.91633,121.71754l-10.40303,-15.98436l10.19819,-20.72268l28.98204,-4.98919l16.74465,8.19402l-13.76406,27.66736z" data-paper-data="{&quot;index&quot;:null}" fill="url(#color-8)"/><path d="M263.03572,223.88254l-13.99015,0.97076l-5.12486,-9.64787l-1.84768,-14.91171l0.22019,-55.04439l18.20279,6.62498l5.82419,51.27484z" data-paper-data="{&quot;index&quot;:null}" fill="url(#color-9)"/><path d="M201.61589,147.95231l10.39038,-10.52392l1.45512,11.09631l-8.40977,7.10583l-12.70077,1.4543z" fill="url(#color-10)"/></g></g></svg>