<svg version="1.1" xmlns="http://www.w3.org/2000/svg" xmlns:xlink="http://www.w3.org/1999/xlink" width="154.49035" height="169.15503" viewBox="0,0,154.49035,169.15503"><defs><linearGradient x1="325.98714" y1="212.48678" x2="480.47749" y2="212.48678" gradientUnits="userSpaceOnUse" id="color-1"><stop offset="0" stop-color="#ffffff"/><stop offset="1" stop-color="#ffffff" stop-opacity="0.46275"/></linearGradient></defs><g transform="translate(-325.98714,-127.84529)"><g data-paper-data="{&quot;isPaintingLayer&quot;:true}" fill-rule="nonzero" stroke-linecap="butt" stroke-linejoin="miter" stroke-miterlimit="10" stroke-dasharray="" stroke-dashoffset="0" style="mix-blend-mode: normal"><path d="M469.74358,275.50032h-127.2989l-16.45754,21.5l0.81444,-160.87083c0,0 0.51153,-3.66694 3.25775,-6.03579c2.74622,-2.36885 6.17343,-2.0994 6.17343,-2.0994h134.32528c0,0 4.51768,-0.38151 7.19419,2.09941c2.6765,2.48092 2.71479,7.08549 2.71479,7.08549v128.08653c0,0 0.30995,5.24779 -2.44331,7.87277c-2.75326,2.62498 -8.28012,2.36182 -8.28012,2.36182z" data-paper-data="{&quot;index&quot;:null}" fill="url(#color-1)" stroke="none" stroke-width="0"/><text transform="translate(328.69901,138.73813) scale(0.25041,0.25041)" font-size="40" xml:space="preserve" data-paper-data="{&quot;index&quot;:null}" fill="#000000" fill-rule="nonzero" stroke="#000000" stroke-width="1" stroke-linecap="butt" stroke-linejoin="miter" stroke-miterlimit="10" stroke-dasharray="" stroke-dashoffset="0" font-family="Sans Serif" font-weight="normal" text-anchor="start" style="mix-blend-mode: normal"><tspan x="0" dy="0">Splatmeets are fixed times,</tspan><tspan x="0" dy="46.150000000000006px">every 6 hours, for people to</tspan><tspan x="0" dy="46.150000000000006px">play Online Turf War at the</tspan><tspan x="0" dy="46.150000000000006px">exact same time.</tspan><tspan x="0" dy="46.150000000000006px"> </tspan><tspan x="0" dy="46.150000000000006px">JOIN ONLINE AT THESE TIMES!</tspan></text><text transform="translate(328.69901,254.27139) scale(0.25041,0.25041)" font-size="40" xml:space="preserve" data-paper-data="{&quot;index&quot;:null}" fill="#000000" fill-rule="nonzero" stroke="#000000" stroke-width="1" stroke-linecap="butt" stroke-linejoin="miter" stroke-miterlimit="10" stroke-dasharray="" stroke-dashoffset="0" font-family="Sans Serif" font-weight="normal" text-anchor="start" style="mix-blend-mode: normal"><tspan x="0" dy="0">The times shift by 1 hour</tspan><tspan x="0" dy="46.150000000000006px">each month.</tspan></text></g></g></svg>