<svg version="1.1" xmlns="http://www.w3.org/2000/svg" xmlns:xlink="http://www.w3.org/1999/xlink" width="80.75" height="80.75" viewBox="0,0,80.75,80.75"><g transform="translate(-199.625,-139.625)"><g data-paper-data="{&quot;isPaintingLayer&quot;:true}" fill-rule="nonzero" stroke-linejoin="miter" stroke-miterlimit="10" stroke-dasharray="" stroke-dashoffset="0" style="mix-blend-mode: normal"><path d="M199.625,180c0,-22.2985 18.0765,-40.375 40.375,-40.375c22.2985,0 40.375,18.0765 40.375,40.375c0,22.2985 -18.0765,40.375 -40.375,40.375c-22.2985,0 -40.375,-18.0765 -40.375,-40.375z" fill="#2df9e8" stroke="none" stroke-width="NaN" stroke-linecap="butt"/><path d="M223.98259,187.44356v-25.41341c0,0 6.97302,-4.43455 11.76862,-4.43455c3.29291,0 8.59765,5.92288 14.02487,6.95951c6.13748,1.17228 12.24134,-2.52496 12.24134,-2.52496v25.41341c0,0 -7.18099,1.94183 -13.88782,0.55053c-4.94097,-1.02497 -9.23466,-5.49677 -12.20783,-5.49677c-4.88954,0 -11.93919,4.94625 -11.93919,4.94625z" fill="#000000" stroke="#d100ff" stroke-width="0" stroke-linecap="butt"/><path d="M225.97453,159.45837v41.44603" fill="#00e05e" stroke="#000000" stroke-width="7.5" stroke-linecap="round"/></g></g></svg>