<svg version="1.1" xmlns="http://www.w3.org/2000/svg" xmlns:xlink="http://www.w3.org/1999/xlink" width="1356.68311" height="547.41881" viewBox="0,0,1356.68311,547.41881"><defs><radialGradient cx="240.06227" cy="180.00006" r="44.48787" gradientUnits="userSpaceOnUse" id="color-1"><stop offset="0" stop-color="#000000" stop-opacity="0.49412"/><stop offset="1" stop-color="#000000" stop-opacity="0"/></radialGradient><linearGradient x1="240.06227" y1="135.51218" x2="240.06227" y2="224.48794" gradientUnits="userSpaceOnUse" id="color-2"><stop offset="0" stop-color="#5c5c5c"/><stop offset="1" stop-color="#000000"/></linearGradient><radialGradient cx="240.00002" cy="180.00003" r="30.73787" gradientUnits="userSpaceOnUse" id="color-3"><stop offset="0" stop-color="#ff0000" stop-opacity="0.49412"/><stop offset="1" stop-color="#ff0000" stop-opacity="0"/></radialGradient><linearGradient x1="240.00002" y1="149.26215" x2="240.00002" y2="210.73791" gradientUnits="userSpaceOnUse" id="color-4"><stop offset="0" stop-color="#5c5c5c"/><stop offset="1" stop-color="#000000"/></linearGradient><linearGradient x1="264.16716" y1="180.00006" x2="283.57149" y2="180.00006" gradientUnits="userSpaceOnUse" id="color-5"><stop offset="0" stop-color="#363636"/><stop offset="1" stop-color="#808080"/></linearGradient><linearGradient x1="225.25836" y1="180.19105" x2="261.03949" y2="180.19105" gradientUnits="userSpaceOnUse" id="color-6"><stop offset="0" stop-color="#808080"/><stop offset="1" stop-color="#363636"/></linearGradient><linearGradient x1="243.14893" y1="136.41879" x2="243.14893" y2="178.68809" gradientUnits="userSpaceOnUse" id="color-7"><stop offset="0" stop-color="#ffffff" stop-opacity="0.74902"/><stop offset="1" stop-color="#ffffff" stop-opacity="0"/></linearGradient><linearGradient x1="259.76351" y1="180.00006" x2="269.76351" y2="180.00006" gradientUnits="userSpaceOnUse" id="color-8"><stop offset="0" stop-color="#000000"/><stop offset="1" stop-color="#5c5c5c"/></linearGradient><linearGradient x1="238.52402" y1="161.036" x2="238.52402" y2="201.82655" gradientUnits="userSpaceOnUse" id="color-9"><stop offset="0" stop-color="#5c5c5c"/><stop offset="1" stop-color="#000000"/></linearGradient><linearGradient x1="264.76351" y1="135.51218" x2="264.76351" y2="177.97245" gradientUnits="userSpaceOnUse" id="color-10"><stop offset="0" stop-color="#ffffff" stop-opacity="0.50196"/><stop offset="1" stop-color="#ffffff" stop-opacity="0"/></linearGradient><linearGradient x1="211.81679" y1="181.0735" x2="221.81679" y2="181.0735" gradientUnits="userSpaceOnUse" id="color-11"><stop offset="0" stop-color="#000000"/><stop offset="1" stop-color="#5c5c5c"/></linearGradient><linearGradient x1="228.02822" y1="162.94439" x2="207.99078" y2="162.94439" gradientUnits="userSpaceOnUse" id="color-12"><stop offset="0" stop-color="#000000"/><stop offset="1" stop-color="#5c5c5c"/></linearGradient><linearGradient x1="228.02822" y1="198.72552" x2="207.99078" y2="198.72552" gradientUnits="userSpaceOnUse" id="color-13"><stop offset="0" stop-color="#000000"/><stop offset="1" stop-color="#5c5c5c"/></linearGradient><radialGradient cx="207.87151" cy="208.62497" r="12.28485" gradientUnits="userSpaceOnUse" id="color-14"><stop offset="0" stop-color="#ff0000"/><stop offset="1" stop-color="#ff0000" stop-opacity="0"/></radialGradient><radialGradient cx="208.09134" cy="153.02615" r="12.28485" gradientUnits="userSpaceOnUse" id="color-15"><stop offset="0" stop-color="#ff0000"/><stop offset="1" stop-color="#ff0000" stop-opacity="0"/></radialGradient><linearGradient x1="360.98971" y1="-80.1112" x2="360.98971" y2="445.53688" gradientUnits="userSpaceOnUse" id="color-16"><stop offset="0" stop-color="#ffffff" stop-opacity="0.4"/><stop offset="1" stop-color="#ff0000"/></linearGradient><linearGradient x1="360.98971" y1="437.34986" x2="360.98971" y2="-88.29822" gradientUnits="userSpaceOnUse" id="color-17"><stop offset="0" stop-color="#ffffff" stop-opacity="0.37255"/><stop offset="1" stop-color="#ff0000"/></linearGradient><linearGradient x1="1522.3287" y1="-77.40516" x2="1522.3287" y2="448.24292" gradientUnits="userSpaceOnUse" id="color-18"><stop offset="0" stop-color="#ffffff" stop-opacity="0.4"/><stop offset="1" stop-color="#ff0000" stop-opacity="0.98431"/></linearGradient><linearGradient x1="1521.82791" y1="439.14173" x2="1521.82791" y2="-86.50635" gradientUnits="userSpaceOnUse" id="color-19"><stop offset="0" stop-color="#ffffff" stop-opacity="0.4"/><stop offset="1" stop-color="#ff0000" stop-opacity="0.98431"/></linearGradient><linearGradient x1="1387.11459" y1="-77.40516" x2="1387.11459" y2="448.24292" gradientUnits="userSpaceOnUse" id="color-20"><stop offset="0" stop-color="#ffffff" stop-opacity="0.4"/><stop offset="1" stop-color="#ff0000" stop-opacity="0.98431"/></linearGradient><linearGradient x1="1386.6138" y1="439.14173" x2="1386.6138" y2="-86.50635" gradientUnits="userSpaceOnUse" id="color-21"><stop offset="0" stop-color="#ffffff" stop-opacity="0.4"/><stop offset="1" stop-color="#ff0000" stop-opacity="0.98431"/></linearGradient><linearGradient x1="1251.90047" y1="-77.40516" x2="1251.90047" y2="448.24292" gradientUnits="userSpaceOnUse" id="color-22"><stop offset="0" stop-color="#ffffff" stop-opacity="0.4"/><stop offset="1" stop-color="#ff0000" stop-opacity="0.98431"/></linearGradient><linearGradient x1="1251.39969" y1="439.14173" x2="1251.39969" y2="-86.50635" gradientUnits="userSpaceOnUse" id="color-23"><stop offset="0" stop-color="#ffffff" stop-opacity="0.4"/><stop offset="1" stop-color="#ff0000" stop-opacity="0.98431"/></linearGradient><linearGradient x1="1116.68637" y1="-77.40516" x2="1116.68637" y2="448.24292" gradientUnits="userSpaceOnUse" id="color-24"><stop offset="0" stop-color="#ffffff" stop-opacity="0.4"/><stop offset="1" stop-color="#ff0000" stop-opacity="0.98431"/></linearGradient><linearGradient x1="1116.18557" y1="439.14173" x2="1116.18557" y2="-86.50635" gradientUnits="userSpaceOnUse" id="color-25"><stop offset="0" stop-color="#ffffff" stop-opacity="0.4"/><stop offset="1" stop-color="#ff0000" stop-opacity="0.98431"/></linearGradient><linearGradient x1="981.47225" y1="-77.40516" x2="981.47225" y2="448.24292" gradientUnits="userSpaceOnUse" id="color-26"><stop offset="0" stop-color="#ffffff" stop-opacity="0.4"/><stop offset="1" stop-color="#ff0000" stop-opacity="0.98431"/></linearGradient><linearGradient x1="980.97146" y1="439.14173" x2="980.97146" y2="-86.50635" gradientUnits="userSpaceOnUse" id="color-27"><stop offset="0" stop-color="#ffffff" stop-opacity="0.4"/><stop offset="1" stop-color="#ff0000" stop-opacity="0.98431"/></linearGradient><linearGradient x1="846.25814" y1="-77.40516" x2="846.25814" y2="448.24292" gradientUnits="userSpaceOnUse" id="color-28"><stop offset="0" stop-color="#ffffff" stop-opacity="0.4"/><stop offset="1" stop-color="#ff0000" stop-opacity="0.98431"/></linearGradient><linearGradient x1="845.75735" y1="439.14173" x2="845.75735" y2="-86.50635" gradientUnits="userSpaceOnUse" id="color-29"><stop offset="0" stop-color="#ffffff" stop-opacity="0.4"/><stop offset="1" stop-color="#ff0000" stop-opacity="0.98431"/></linearGradient><linearGradient x1="711.04403" y1="-77.40516" x2="711.04403" y2="448.24292" gradientUnits="userSpaceOnUse" id="color-30"><stop offset="0" stop-color="#ffffff" stop-opacity="0.4"/><stop offset="1" stop-color="#ff0000" stop-opacity="0.98431"/></linearGradient><linearGradient x1="710.54324" y1="439.14173" x2="710.54324" y2="-86.50635" gradientUnits="userSpaceOnUse" id="color-31"><stop offset="0" stop-color="#ffffff" stop-opacity="0.4"/><stop offset="1" stop-color="#ff0000" stop-opacity="0.98431"/></linearGradient><linearGradient x1="575.82992" y1="-77.40516" x2="575.82992" y2="448.24292" gradientUnits="userSpaceOnUse" id="color-32"><stop offset="0" stop-color="#ffffff" stop-opacity="0.4"/><stop offset="1" stop-color="#ff0000" stop-opacity="0.98431"/></linearGradient><linearGradient x1="575.32913" y1="439.14173" x2="575.32913" y2="-86.50635" gradientUnits="userSpaceOnUse" id="color-33"><stop offset="0" stop-color="#ffffff" stop-opacity="0.4"/><stop offset="1" stop-color="#ff0000" stop-opacity="0.98431"/></linearGradient></defs><g transform="translate(-195.57439,95.09009)"><g data-paper-data="{&quot;isPaintingLayer&quot;:true}" fill-rule="nonzero" stroke-linejoin="miter" stroke-miterlimit="10" stroke-dasharray="" stroke-dashoffset="0" style="mix-blend-mode: normal"><path d="M195.57439,180.00006c0,-24.56998 19.9179,-44.48788 44.48788,-44.48788c24.56998,0 44.48787,19.9179 44.48787,44.48788c0,24.56998 -19.9179,44.48788 -44.48787,44.48788c-24.56998,0 -44.48788,-19.9179 -44.48788,-44.48787z" fill="url(#color-1)" stroke="url(#color-2)" stroke-width="0" stroke-linecap="butt"/><path d="M209.26214,180.00003c0,-16.97607 13.76182,-30.73788 30.73788,-30.73788c16.97607,0 30.73787,13.76181 30.73787,30.73788c0,16.97607 -13.76182,30.73788 -30.73787,30.73788c-16.97607,0 -30.73788,-13.76182 -30.73788,-30.73788z" fill="url(#color-3)" stroke="url(#color-4)" stroke-width="0" stroke-linecap="butt"/><path d="M264.16716,189.58784v-19.17555l19.40433,1.77918c0,0 0.96638,5.02763 0.96638,7.70012c0,2.59697 -0.96638,8.11476 -0.96638,8.11476z" fill="url(#color-5)" stroke="none" stroke-width="0" stroke-linecap="butt"/><path d="M225.25836,191.04466v-18.60619c0,0 13.8873,-6.7904 20.11251,-13.26461c5.64497,-5.87078 15.66863,-22.75506 15.66863,-22.75506v87.54451c0,0 -9.49549,-15.11523 -15.49576,-20.47548c-5.92584,-5.29375 -20.28537,-12.44316 -20.28537,-12.44316z" fill="url(#color-6)" stroke="#000000" stroke-width="0" stroke-linecap="butt"/><path d="M225.25836,180.11933v-7.68087c0,0 13.8873,-6.7904 20.11251,-13.26461c5.64497,-5.87078 15.66863,-22.75506 15.66863,-22.75506v43.70054z" fill="url(#color-7)" stroke="#000000" stroke-width="0" stroke-linecap="butt"/><path d="M264.76351,135.51219v88.97575" fill="none" stroke="url(#color-8)" stroke-width="10" stroke-linecap="round"/><path d="M238.52402,161.03601v40.79049" fill="none" stroke="url(#color-9)" stroke-width="5" stroke-linecap="round"/><path d="M264.76351,135.51219v49.13942" fill="none" stroke="url(#color-10)" stroke-width="10" stroke-linecap="round"/><path d="M278.36034,188.70681v-17.17495" fill="none" stroke="#ff0000" stroke-width="4" stroke-linecap="round"/><path d="M216.81679,201.11091v-40.07487" fill="none" stroke="url(#color-11)" stroke-width="15" stroke-linecap="round"/><path d="M216.22045,197.65208l-8.58748,-8.58747l7.99112,-7.99112l-8.22966,-8.22966l8.58747,-8.58748" fill="none" stroke="#ff0000" stroke-width="3.5" stroke-linecap="round"/><path d="M228.02822,172.9631l-20.03743,-20.03744" data-paper-data="{&quot;index&quot;:null}" fill="none" stroke="url(#color-12)" stroke-width="10" stroke-linecap="round"/><path d="M228.02821,188.7068l-20.03743,20.03744" data-paper-data="{&quot;index&quot;:null}" fill="none" stroke="url(#color-13)" stroke-width="10" stroke-linecap="round"/><path d="M195.58666,208.62497c0,-6.78474 5.50011,-12.28485 12.28485,-12.28485c6.78474,0 12.28485,5.50011 12.28485,12.28485c0,6.78474 -5.50011,12.28486 -12.28485,12.28486c-6.78474,0 -12.28485,-5.50012 -12.28485,-12.28486z" fill="url(#color-14)" stroke="none" stroke-width="0" stroke-linecap="butt"/><path d="M195.80648,153.02615c0,-6.78474 5.50011,-12.28485 12.28485,-12.28485c6.78474,0 12.28485,5.50011 12.28485,12.28485c0,6.78474 -5.50011,12.28486 -12.28485,12.28486c-6.78474,0 -12.28485,-5.50012 -12.28485,-12.28486z" fill="url(#color-15)" stroke="none" stroke-width="0" stroke-linecap="butt"/><path d="M274.35252,193.22581c0,0 9.45993,142.45927 18.85316,144.03979c8.16143,1.37325 13.59518,-363.41349 24.97095,-363.44074c6.78301,-0.01623 17.48486,446.54206 29.53202,445.935c11.84857,-0.59705 15.18952,-494.1323 27.42799,-498.04271c11.34666,-3.62547 17.13027,518.91228 33.40058,520.73411c13.4969,1.51127 16.27668,-530.7171 26.05857,-530.74944c13.7622,-0.04552 25.05015,533.83512 25.05015,533.83512" fill="none" stroke="url(#color-16)" stroke-width="10" stroke-linecap="round"/><path d="M459.64593,-88.29822c0,0 -11.28795,533.88062 -25.05015,533.8351c-9.7819,-0.03236 -12.56167,-532.26073 -26.05856,-530.74944c-16.27031,1.82181 -22.05392,524.35956 -33.40058,520.73412c-12.23847,-3.91043 -15.57942,-497.44566 -27.42799,-498.04271c-12.04714,-0.60704 -22.74901,445.95122 -29.53201,445.93499c-11.37577,-0.02723 -16.80953,-364.81397 -24.97095,-363.44072c-9.39322,1.58051 -18.85315,135.81226 -18.85315,135.81226" data-paper-data="{&quot;index&quot;:null}" fill="none" stroke="url(#color-17)" stroke-width="10" stroke-linecap="round"/><g fill="none" stroke-width="10" stroke-linecap="round"><g><g><path d="M1415.6598,443.67209c0,0 15.56349,-529.97236 28.5557,-530.17842c13.87595,-0.22006 22.79632,533.94272 36.19668,533.3866c12.83188,-0.53253 22.68844,-536.24415 30.9653,-536.39275c9.83371,-0.17655 35.7956,533.07035 35.88002,533.60859" data-paper-data="{&quot;index&quot;:null}" stroke="url(#color-18)"/><path d="M1542.0058,-90.09009c-3.84934,102.9505 -18.319,533.7687 -26.31846,533.96809c-11.71206,0.29192 -24.32854,-531.65417 -37.22812,-532.93956c-13.48642,-1.34388 -21.5469,536.35991 -30.73818,536.39032c-13.7622,0.04552 -34.06442,-532.92094 -34.06442,-532.92094" data-paper-data="{&quot;index&quot;:null}" stroke="url(#color-19)"/></g><g><path d="M1280.44568,443.67209c0,0 15.56349,-529.97236 28.5557,-530.17842c13.87595,-0.22006 22.79633,533.94272 36.19669,533.3866c12.83188,-0.53253 22.68844,-536.24415 30.96529,-536.39275c9.83371,-0.17655 35.7956,533.07035 35.88003,533.60859" data-paper-data="{&quot;index&quot;:null}" stroke="url(#color-20)"/><path d="M1406.79169,-90.09009c-3.84934,102.9505 -18.319,533.7687 -26.31846,533.96809c-11.71206,0.29192 -24.32854,-531.65417 -37.22812,-532.93956c-13.48642,-1.34388 -21.5469,536.35991 -30.73818,536.39032c-13.7622,0.04552 -34.06442,-532.92094 -34.06442,-532.92094" data-paper-data="{&quot;index&quot;:null}" stroke="url(#color-21)"/></g><g><path d="M1145.23158,443.67209c0,0 15.56348,-529.97236 28.5557,-530.17842c13.87595,-0.22006 22.79633,533.94272 36.19669,533.3866c12.83188,-0.53253 22.68844,-536.24415 30.96529,-536.39275c9.83371,-0.17655 35.7956,533.07035 35.88002,533.60859" data-paper-data="{&quot;index&quot;:null}" stroke="url(#color-22)"/><path d="M1271.57758,-90.09009c-3.84934,102.9505 -18.319,533.7687 -26.31847,533.96809c-11.71206,0.29192 -24.32854,-531.65417 -37.22812,-532.93956c-13.48642,-1.34388 -21.5469,536.35991 -30.73817,536.39032c-13.7622,0.04552 -34.06442,-532.92094 -34.06442,-532.92094" data-paper-data="{&quot;index&quot;:null}" stroke="url(#color-23)"/></g><g><path d="M1010.01747,443.67209c0,0 15.56348,-529.97236 28.55569,-530.17842c13.87595,-0.22006 22.79633,533.94272 36.19669,533.3866c12.83188,-0.53253 22.68844,-536.24415 30.9653,-536.39275c9.83371,-0.17655 35.7956,533.07035 35.88002,533.60859" data-paper-data="{&quot;index&quot;:null}" stroke="url(#color-24)"/><path d="M1136.36346,-90.09009c-3.84934,102.9505 -18.319,533.7687 -26.31847,533.96809c-11.71206,0.29192 -24.32854,-531.65417 -37.22812,-532.93956c-13.48642,-1.34388 -21.5469,536.35991 -30.73817,536.39032c-13.7622,0.04552 -34.06442,-532.92094 -34.06442,-532.92094" data-paper-data="{&quot;index&quot;:null}" stroke="url(#color-25)"/></g><g><path d="M874.80335,443.67209c0,0 15.56349,-529.97236 28.5557,-530.17842c13.87595,-0.22006 22.79633,533.94272 36.19669,533.3866c12.83188,-0.53253 22.68844,-536.24415 30.96529,-536.39275c9.83371,-0.17655 35.7956,533.07035 35.88003,533.60859" data-paper-data="{&quot;index&quot;:null}" stroke="url(#color-26)"/><path d="M1001.14935,-90.09009c-3.84933,102.9505 -18.319,533.7687 -26.31847,533.96809c-11.71207,0.29192 -24.32853,-531.65417 -37.22812,-532.93956c-13.48641,-1.34388 -21.5469,536.35991 -30.73817,536.39032c-13.7622,0.04552 -34.06442,-532.92094 -34.06442,-532.92094" data-paper-data="{&quot;index&quot;:null}" stroke="url(#color-27)"/></g></g><g><g><path d="M739.58924,443.67209c0,0 15.56348,-529.97236 28.5557,-530.17842c13.87595,-0.22006 22.79633,533.94272 36.19669,533.3866c12.83188,-0.53253 22.68844,-536.24415 30.96529,-536.39275c9.83371,-0.17655 35.7956,533.07035 35.88003,533.60859" data-paper-data="{&quot;index&quot;:null}" stroke="url(#color-28)"/><path d="M865.93524,-90.09009c-3.84933,102.9505 -18.319,533.7687 -26.31847,533.96809c-11.71207,0.29192 -24.32854,-531.65417 -37.22812,-532.93956c-13.48641,-1.34388 -21.54689,536.35991 -30.73817,536.39032c-13.7622,0.04552 -34.06443,-532.92094 -34.06443,-532.92094" data-paper-data="{&quot;index&quot;:null}" stroke="url(#color-29)"/></g><g><path d="M604.37513,443.67209c0,0 15.56349,-529.97236 28.5557,-530.17842c13.87595,-0.22006 22.79633,533.94272 36.19669,533.3866c12.83188,-0.53253 22.68844,-536.24415 30.96529,-536.39275c9.83371,-0.17655 35.79561,533.07035 35.88003,533.60859" data-paper-data="{&quot;index&quot;:null}" stroke="url(#color-30)"/><path d="M730.72113,-90.09009c-3.84933,102.9505 -18.319,533.7687 -26.31847,533.96809c-11.71207,0.29192 -24.32853,-531.65417 -37.22812,-532.93956c-13.48641,-1.34388 -21.5469,536.35991 -30.73817,536.39032c-13.7622,0.04552 -34.06442,-532.92094 -34.06442,-532.92094" data-paper-data="{&quot;index&quot;:null}" stroke="url(#color-31)"/></g><g><path d="M469.16102,443.67209c0,0 15.56349,-529.97236 28.5557,-530.17842c13.87595,-0.22006 22.79633,533.94272 36.19669,533.3866c12.83188,-0.53253 22.68844,-536.24415 30.96529,-536.39275c9.83371,-0.17655 35.7956,533.07035 35.88003,533.60859" data-paper-data="{&quot;index&quot;:null}" stroke="url(#color-32)"/><path d="M595.50702,-90.09009c-3.84933,102.9505 -18.319,533.7687 -26.31847,533.96809c-11.71207,0.29192 -24.32853,-531.65417 -37.22812,-532.93956c-13.48641,-1.34388 -21.5469,536.35991 -30.73817,536.39032c-13.7622,0.04552 -34.06442,-532.92094 -34.06442,-532.92094" data-paper-data="{&quot;index&quot;:null}" stroke="url(#color-33)"/></g></g></g></g></g></svg>