<svg version="1.1" xmlns="http://www.w3.org/2000/svg" xmlns:xlink="http://www.w3.org/1999/xlink" width="88.82776" height="150.01739" viewBox="0,0,88.82776,150.01739"><defs><radialGradient cx="279.55605" cy="176.86483" r="17.48859" gradientUnits="userSpaceOnUse" id="color-1"><stop offset="0" stop-color="#000000" stop-opacity="0.63137"/><stop offset="1" stop-color="#000000" stop-opacity="0"/></radialGradient><linearGradient x1="275.65959" y1="193.91384" x2="283.45248" y2="159.8158" gradientUnits="userSpaceOnUse" id="color-2"><stop offset="0" stop-color="#ff5454"/><stop offset="1" stop-color="#eb0000"/></linearGradient><linearGradient x1="269.48765" y1="185.10794" x2="290.64446" y2="189.9432" gradientUnits="userSpaceOnUse" id="color-3"><stop offset="0" stop-color="#eb0000"/><stop offset="1" stop-color="#ff5454"/></linearGradient><radialGradient cx="298.24113" cy="145.18168" r="20.90193" gradientUnits="userSpaceOnUse" id="color-4"><stop offset="0" stop-color="#000000" stop-opacity="0.63137"/><stop offset="1" stop-color="#000000" stop-opacity="0"/></radialGradient><linearGradient x1="293.58419" y1="165.55825" x2="302.89805" y2="124.80512" gradientUnits="userSpaceOnUse" id="color-5"><stop offset="0" stop-color="#ff5454"/><stop offset="1" stop-color="#eb0000"/></linearGradient><radialGradient cx="315.87329" cy="83.37976" r="35.01038" gradientUnits="userSpaceOnUse" id="color-6"><stop offset="0" stop-color="#000000" stop-opacity="0.63137"/><stop offset="1" stop-color="#000000" stop-opacity="0"/></radialGradient><linearGradient x1="308.07301" y1="117.51018" x2="323.67358" y2="49.24938" gradientUnits="userSpaceOnUse" id="color-7"><stop offset="0" stop-color="#ff5454"/><stop offset="1" stop-color="#eb0000"/></linearGradient><linearGradient x1="282.72071" y1="156.66959" x2="296.27824" y2="164.32858" gradientUnits="userSpaceOnUse" id="color-8"><stop offset="0" stop-color="#000000"/><stop offset="1" stop-color="#929292"/></linearGradient><linearGradient x1="282.72071" y1="156.66959" x2="296.27824" y2="164.32858" gradientUnits="userSpaceOnUse" id="color-9"><stop offset="0" stop-color="#929292" stop-opacity="0"/><stop offset="1" stop-color="#929292"/></linearGradient><linearGradient x1="322.05461" y1="125.82113" x2="308.23308" y2="88.07966" gradientUnits="userSpaceOnUse" id="color-10"><stop offset="0" stop-color="#ffffff"/><stop offset="1" stop-color="#9d9d9d"/></linearGradient><linearGradient x1="324.21489" y1="113.26538" x2="302.39143" y2="53.67359" gradientUnits="userSpaceOnUse" id="color-11"><stop offset="0" stop-color="#f20000"/><stop offset="1" stop-color="#ff7979"/></linearGradient><linearGradient x1="308.70881" y1="134.89242" x2="302.60253" y2="131.36612" gradientUnits="userSpaceOnUse" id="color-12"><stop offset="0" stop-color="#c6c6c6"/><stop offset="1" stop-color="#6b6b6b"/></linearGradient><linearGradient x1="305.68804" y1="143.3291" x2="301.56584" y2="132.07288" gradientUnits="userSpaceOnUse" id="color-13"><stop offset="0" stop-color="#ff5454"/><stop offset="1" stop-color="#ce0000"/></linearGradient><linearGradient x1="315.80401" y1="74.82558" x2="307.31285" y2="51.63943" gradientUnits="userSpaceOnUse" id="color-14"><stop offset="0" stop-color="#ffadad" stop-opacity="0"/><stop offset="1" stop-color="#ffadad"/></linearGradient><linearGradient x1="315.80401" y1="74.82558" x2="307.31285" y2="51.63943" gradientUnits="userSpaceOnUse" id="color-15"><stop offset="0" stop-color="#ab0000"/><stop offset="1" stop-color="#ff5454"/></linearGradient><linearGradient x1="314.93882" y1="80.36823" x2="306.44768" y2="57.18206" gradientUnits="userSpaceOnUse" id="color-16"><stop offset="0" stop-color="#ff6b6b" stop-opacity="0"/><stop offset="1" stop-color="#ff6b6b"/></linearGradient><linearGradient x1="314.93882" y1="80.36823" x2="306.44768" y2="57.18206" gradientUnits="userSpaceOnUse" id="color-17"><stop offset="0" stop-color="#ab0000"/><stop offset="1" stop-color="#ff5454"/></linearGradient><linearGradient x1="316.52499" y1="56.65647" x2="311.04364" y2="62.95775" gradientUnits="userSpaceOnUse" id="color-18"><stop offset="0" stop-color="#ffffff" stop-opacity="0.5207"/><stop offset="1" stop-color="#ffffff" stop-opacity="0"/></linearGradient><linearGradient x1="320.97601" y1="66.063" x2="306.59265" y2="53.55124" gradientUnits="userSpaceOnUse" id="color-19"><stop offset="0" stop-color="#ab0000"/><stop offset="1" stop-color="#ff5454"/></linearGradient><linearGradient x1="291.54443" y1="144.89953" x2="304.73652" y2="147.91452" gradientUnits="userSpaceOnUse" id="color-20"><stop offset="0" stop-color="#000000"/><stop offset="1" stop-color="#929292"/></linearGradient><linearGradient x1="302.40644" y1="126.47042" x2="315.59852" y2="129.48536" gradientUnits="userSpaceOnUse" id="color-21"><stop offset="0" stop-color="#000000"/><stop offset="1" stop-color="#929292"/></linearGradient><linearGradient x1="275.73873" y1="152.81701" x2="296.89553" y2="157.65227" gradientUnits="userSpaceOnUse" id="color-22"><stop offset="0" stop-color="#eb0000"/><stop offset="1" stop-color="#ff5454"/></linearGradient></defs><g transform="translate(-262.06361,-48.36172)"><g data-paper-data="{&quot;isPaintingLayer&quot;:true}" fill-rule="nonzero" stroke-linejoin="miter" stroke-miterlimit="10" stroke-dasharray="" stroke-dashoffset="0" style="mix-blend-mode: normal"><path d="M283.4525,159.8158c9.4159,2.15195 15.30451,11.52955 13.15256,20.94546c-2.15195,9.41589 -11.52955,15.30451 -20.94545,13.15256c-9.4159,-2.15195 -15.30452,-11.52954 -13.15257,-20.94545c2.15195,-9.4159 11.52956,-15.30452 20.94546,-13.15257z" data-paper-data="{&quot;index&quot;:null}" fill="url(#color-1)" stroke="url(#color-2)" stroke-width="0" stroke-linecap="butt"/><path d="M282.48369,176.94718c5.84228,1.33522 9.49599,7.15374 8.16077,12.99603c-1.33522,5.84228 -7.15374,9.49599 -12.99603,8.16077c-5.84228,-1.33522 -9.49599,-7.15374 -8.16077,-12.99603c1.33522,-5.84228 7.15374,-9.49599 12.99603,-8.16077z" data-paper-data="{&quot;index&quot;:null}" fill="url(#color-3)" stroke="#000000" stroke-width="0" stroke-linecap="butt"/><path d="M302.89807,124.80514c11.25365,2.57195 18.29157,13.77982 15.71962,25.03348c-2.57195,11.25365 -13.77983,18.29157 -25.03348,15.71962c-11.25365,-2.57195 -18.29157,-13.77982 -15.71962,-25.03348c2.57195,-11.25365 13.77983,-18.29157 25.03348,-15.71962z" data-paper-data="{&quot;index&quot;:null}" fill="url(#color-4)" stroke="url(#color-5)" stroke-width="0" stroke-linecap="butt"/><path d="M323.67358,49.24941c18.84968,4.30797 30.63807,23.08096 26.33009,41.93065c-4.30797,18.84968 -23.08098,30.63806 -41.93065,26.33009c-18.84968,-4.30797 -30.63807,-23.08096 -26.33009,-41.93065c4.30797,-18.84968 23.08098,-30.63806 41.93065,-26.33009z" data-paper-data="{&quot;index&quot;:null}" fill="url(#color-6)" stroke="url(#color-7)" stroke-width="0" stroke-linecap="butt"/><g data-paper-data="{&quot;index&quot;:null}"><path d="M296.45398,156.12926l-15.3569,35.07226c0,0 -4.11225,6.57274 -10.44685,3.04045c-6.45805,-3.60111 -3.11068,-10.69942 -3.11068,-10.69942l23.01553,-30.96826z" fill="url(#color-8)" stroke="url(#color-9)" stroke-width="0" stroke-linecap="butt"/><path d="M309.46309,121.17085c0,0 2.05218,-11.79918 0.1793,-19.28804c-1.70514,-6.81815 -12.06423,-23.41792 -12.06423,-23.41792l18.59061,7.63917l10.78324,25.40803c0,0 -2.5956,3.29668 -4.29044,5.05178c-2.25609,2.3363 -8.29304,7.06581 -8.29304,7.06581z" fill="url(#color-10)" stroke="#ffffff" stroke-width="0" stroke-linecap="butt"/><path d="M292.60764,81.62147c-2.32893,-8.8803 9.57394,-8.77583 9.78378,-27.94791c0.12573,-11.48764 24.41821,6.18684 30.44459,22.64266c6.02639,16.45582 -4.34302,37.26252 -8.62113,36.94914c-8.50603,-0.62309 -8.52979,-15.65174 -20.82934,-28.13502c-2.27207,-2.30601 -10.18358,-1.24265 -10.7779,-3.50885z" fill="url(#color-11)" stroke="#ffffff" stroke-width="0" stroke-linecap="butt"/><path d="M295.44039,158.08201l-6.03435,-3.39449l7.81781,-21.26979l12.54885,-14.46771l6.10627,3.52632l-6.06083,18.4852z" fill="url(#color-12)" stroke="#ffffff" stroke-width="0" stroke-linecap="butt"/><path d="M310.35249,141.3706l-14.37346,-7.41733" fill="none" stroke="url(#color-13)" stroke-width="7.5" stroke-linecap="round"/><path d="M302.94266,53.43324c-0.79727,-7.53868 15.4941,0.59903 17.83887,7.00171c2.34476,6.40267 6.32081,10.25303 1.33048,12.08057c-4.17299,1.52821 -9.81888,-9.41452 -14.10876,-13.43778c-0.84022,-0.788 -5.09656,8.51248 -5.48059,7.46383c-2.34477,-6.40268 1.2629,-5.13797 0.41999,-13.10834z" fill="url(#color-14)" stroke="url(#color-15)" stroke-width="0" stroke-linecap="butt"/><path d="M319.91634,65.97755c2.34476,6.40267 6.32081,10.25303 1.33048,12.08057c-4.173,1.52821 -9.81888,-9.41452 -14.10876,-13.43778c-0.84022,-0.78799 -5.09656,8.51249 -5.48059,7.46384c-2.34476,-6.40267 2.43177,-11.8251 3.84171,-15.90822c0.82139,-2.37874 12.07239,3.39891 14.41716,9.80159z" fill="url(#color-16)" stroke="url(#color-17)" stroke-width="0" stroke-linecap="butt"/><path d="M304.18418,51.72632c0.68947,-0.79262 2.68662,-0.67016 5.03245,0.02473c2.80401,0.83061 6.10621,2.47912 8.26883,4.36033c3.97185,3.45503 10.88273,11.94465 11.76764,14.0744c1.37639,3.31263 4.85523,13.60866 3.17779,12.50882c-4.23577,-2.77725 -12.2339,-5.84417 -15.07903,-8.31909c-3.04433,-2.6482 -13.01661,-8.30511 -15.23068,-13.88645c-0.67457,-1.70046 1.70953,-8.35639 2.063,-8.76273z" fill="url(#color-18)" stroke="url(#color-19)" stroke-width="0" stroke-linecap="butt"/><path d="M304.2822,149.90236l-12.36606,-6.62924" fill="none" stroke="url(#color-20)" stroke-width="3.5" stroke-linecap="round"/><path d="M315.14421,131.47321l-12.36606,-6.62924" fill="none" stroke="url(#color-21)" stroke-width="3.5" stroke-linecap="round"/></g><path d="M288.73476,144.65623c5.84229,1.33522 9.496,7.15375 8.16078,12.99603c-1.33522,5.84229 -7.15375,9.496 -12.99604,8.16078c-5.84228,-1.33522 -9.49599,-7.15376 -8.16077,-12.99604c1.33522,-5.84228 7.15375,-9.49599 12.99603,-8.16077z" data-paper-data="{&quot;index&quot;:null}" fill="url(#color-22)" stroke="#000000" stroke-width="0" stroke-linecap="butt"/></g></g></svg>