<svg version="1.1" xmlns="http://www.w3.org/2000/svg" xmlns:xlink="http://www.w3.org/1999/xlink" width="480.66668" height="360.5" viewBox="0,0,480.66668,360.5"><defs><radialGradient cx="240.00009" cy="180" r="240.33333" gradientUnits="userSpaceOnUse" id="color-1"><stop offset="0" stop-color="#000120"/><stop offset="1" stop-color="#919c8a"/></radialGradient><radialGradient cx="90.83361" cy="92.5" r="90" gradientUnits="userSpaceOnUse" id="color-2"><stop offset="0" stop-color="#fffffc" stop-opacity="0.30196"/><stop offset="1" stop-color="#fffffc" stop-opacity="0"/></radialGradient><radialGradient cx="163.83345" cy="90.5" r="90" gradientUnits="userSpaceOnUse" id="color-3"><stop offset="0" stop-color="#fffffc" stop-opacity="0.21176"/><stop offset="1" stop-color="#fffffc" stop-opacity="0"/></radialGradient><radialGradient cx="106.83361" cy="173.5" r="90" gradientUnits="userSpaceOnUse" id="color-4"><stop offset="0" stop-color="#fffffc" stop-opacity="0.21176"/><stop offset="1" stop-color="#fffffc" stop-opacity="0"/></radialGradient><radialGradient cx="348.83361" cy="168.5" r="90" gradientUnits="userSpaceOnUse" id="color-5"><stop offset="0" stop-color="#fffffc" stop-opacity="0.21176"/><stop offset="1" stop-color="#fffffc" stop-opacity="0"/></radialGradient><radialGradient cx="176.83346" cy="226.5" r="90" gradientUnits="userSpaceOnUse" id="color-6"><stop offset="0" stop-color="#000000" stop-opacity="0.21176"/><stop offset="1" stop-color="#000000" stop-opacity="0"/></radialGradient><radialGradient cx="239.83346" cy="285.5" r="74" gradientUnits="userSpaceOnUse" id="color-7"><stop offset="0" stop-color="#000000" stop-opacity="0.21176"/><stop offset="1" stop-color="#000000" stop-opacity="0"/></radialGradient><radialGradient cx="334.83351" cy="246.5" r="74" gradientUnits="userSpaceOnUse" id="color-8"><stop offset="0" stop-color="#000000" stop-opacity="0.14902"/><stop offset="1" stop-color="#000000" stop-opacity="0"/></radialGradient><radialGradient cx="74.33352" cy="74" r="70.5" gradientUnits="userSpaceOnUse" id="color-9"><stop offset="0" stop-color="#fffffc" stop-opacity="0.58824"/><stop offset="1" stop-color="#fffffc" stop-opacity="0"/></radialGradient><radialGradient cx="194.33354" cy="140" r="70.5" gradientUnits="userSpaceOnUse" id="color-10"><stop offset="0" stop-color="#fffffc" stop-opacity="0.38824"/><stop offset="1" stop-color="#fffffc" stop-opacity="0"/></radialGradient><radialGradient cx="113.83354" cy="144.5" r="90" gradientUnits="userSpaceOnUse" id="color-11"><stop offset="0" stop-color="#000000" stop-opacity="0.21176"/><stop offset="1" stop-color="#000000" stop-opacity="0"/></radialGradient><radialGradient cx="85.3335" cy="199" r="54.5" gradientUnits="userSpaceOnUse" id="color-12"><stop offset="0" stop-color="#fffffc" stop-opacity="0.38824"/><stop offset="1" stop-color="#fffffc" stop-opacity="0"/></radialGradient><radialGradient cx="96.3335" cy="265" r="70.5" gradientUnits="userSpaceOnUse" id="color-13"><stop offset="0" stop-color="#fffffc" stop-opacity="0.38824"/><stop offset="1" stop-color="#fffffc" stop-opacity="0"/></radialGradient><radialGradient cx="292.33351" cy="247" r="54.5" gradientUnits="userSpaceOnUse" id="color-14"><stop offset="0" stop-color="#fffffc" stop-opacity="0.38824"/><stop offset="1" stop-color="#fffffc" stop-opacity="0"/></radialGradient><radialGradient cx="226.83348" cy="98.5" r="90" gradientUnits="userSpaceOnUse" id="color-15"><stop offset="0" stop-color="#000000" stop-opacity="0.21176"/><stop offset="1" stop-color="#000000" stop-opacity="0"/></radialGradient><radialGradient cx="356.83355" cy="288.5" r="72" gradientUnits="userSpaceOnUse" id="color-16"><stop offset="0" stop-color="#000000" stop-opacity="0.39608"/><stop offset="1" stop-color="#000000" stop-opacity="0"/></radialGradient><radialGradient cx="354.33358" cy="93" r="70.5" gradientUnits="userSpaceOnUse" id="color-17"><stop offset="0" stop-color="#fffffc" stop-opacity="0.58824"/><stop offset="1" stop-color="#fffffc" stop-opacity="0"/></radialGradient><radialGradient cx="240.00003" cy="180" r="240.33334" gradientUnits="userSpaceOnUse" id="color-18"><stop offset="0" stop-color="#506e6c" stop-opacity="0.33333"/><stop offset="1" stop-color="#3d3b42" stop-opacity="0.50196"/></radialGradient></defs><g transform="translate(0.33331,0)"><g data-paper-data="{&quot;isPaintingLayer&quot;:true}" fill-rule="nonzero" stroke-linejoin="miter" stroke-miterlimit="10" stroke-dasharray="" stroke-dashoffset="0" style="mix-blend-mode: normal"><g stroke-width="0" stroke-linecap="butt"><path d="M-0.33329,360v-360h480.66667v360z" fill="url(#color-1)" stroke="#000000"/><path d="M0.83345,92.5c0,-49.70562 40.29438,-90 90,-90c49.70563,0 90,40.29438 90,90c0,49.70563 -40.29437,90 -90,90c-49.70562,0 -90,-40.29437 -90,-90z" fill="url(#color-2)" stroke="none"/><path d="M73.83352,90.5c0,-49.70563 40.29437,-90 90,-90c49.70563,0 90,40.29437 90,90c0,49.70563 -40.29437,90 -90,90c-49.70563,0 -90,-40.29437 -90,-90z" fill="url(#color-3)" stroke="none"/><path d="M16.83342,173.5c0,-49.70562 40.29438,-90 90,-90c49.70563,0 90,40.29438 90,90c0,49.70563 -40.29437,90 -90,90c-49.70562,0 -90,-40.29437 -90,-90z" fill="url(#color-4)" stroke="none"/><path d="M258.83342,168.5c0,-49.70563 40.29438,-90 90,-90c49.70563,0 90,40.29438 90,90c0,49.70562 -40.29437,90 -90,90c-49.70562,0 -90,-40.29438 -90,-90z" fill="url(#color-5)" stroke="none"/><path d="M86.83361,226.5c0,-49.70562 40.29438,-90 90,-90c49.70563,0 90,40.29438 90,90c0,49.70563 -40.29438,90 -90,90c-49.70562,0 -90,-40.29437 -90,-90z" fill="url(#color-6)" stroke="none"/><path d="M165.83346,285.5c0,-40.86907 33.13093,-74 74,-74c40.86907,0 74,33.13093 74,74c0,40.86907 -33.13093,74 -74,74c-40.86907,0 -74,-33.13093 -74,-74z" fill="url(#color-7)" stroke="none"/><path d="M260.83351,246.5c0,-40.86907 33.13093,-74 74,-74c40.86907,0 74,33.13093 74,74c0,40.86907 -33.13093,74 -74,74c-40.86907,0 -74,-33.13093 -74,-74z" fill="url(#color-8)" stroke="none"/><path d="M3.83345,74c0,-38.93607 31.56393,-70.5 70.5,-70.5c38.93607,0 70.5,31.56393 70.5,70.5c0,38.93607 -31.56393,70.5 -70.5,70.5c-38.93607,0 -70.5,-31.56393 -70.5,-70.5z" fill="url(#color-9)" stroke="none"/><path d="M123.83356,140c0,-38.93608 31.56392,-70.5 70.5,-70.5c38.93608,0 70.5,31.56392 70.5,70.5c0,38.93608 -31.56392,70.5 -70.5,70.5c-38.93608,0 -70.5,-31.56392 -70.5,-70.5z" fill="url(#color-10)" stroke="none"/><path d="M23.83358,144.5c0,-49.70562 40.29438,-90 90,-90c49.70563,0 90,40.29438 90,90c0,49.70563 -40.29438,90 -90,90c-49.70562,0 -90,-40.29437 -90,-90z" fill="url(#color-11)" stroke="none"/><path d="M85.33355,253.5c-30.09952,0 -54.5,-24.40048 -54.5,-54.5c0,-30.09952 24.40048,-54.5 54.5,-54.5c30.09952,0 54.5,24.40048 54.5,54.5c0,30.09952 -24.40048,54.5 -54.5,54.5z" data-paper-data="{&quot;index&quot;:null}" fill="url(#color-12)" stroke="none"/><path d="M96.33354,335.5c-38.93608,0 -70.5,-31.56392 -70.5,-70.5c0,-38.93608 31.56392,-70.5 70.5,-70.5c38.93608,0 70.5,31.56392 70.5,70.5c0,38.93608 -31.56392,70.5 -70.5,70.5z" data-paper-data="{&quot;index&quot;:null}" fill="url(#color-13)" stroke="none"/><path d="M237.83348,247c0,-30.09952 24.40048,-54.5 54.5,-54.5c30.09952,0 54.5,24.40048 54.5,54.5c0,30.09952 -24.40048,54.5 -54.5,54.5c-30.09953,0 -54.5,-24.40048 -54.5,-54.5z" fill="url(#color-14)" stroke="none"/><path d="M136.83354,98.5c0,-49.70562 40.29438,-90 90,-90c49.70563,0 90,40.29438 90,90c0,49.70563 -40.29438,90 -90,90c-49.70562,0 -90,-40.29437 -90,-90z" fill="url(#color-15)" stroke="none"/><path d="M284.83351,288.5c0,-39.7645 32.2355,-72 72,-72c39.7645,0 72,32.2355 72,72c0,39.7645 -32.2355,72 -72,72c-39.7645,0 -72,-32.2355 -72,-72z" fill="url(#color-16)" stroke="none"/><path d="M283.83342,93c0,-38.93607 31.56393,-70.5 70.5,-70.5c38.93607,0 70.5,31.56393 70.5,70.5c0,38.93607 -31.56393,70.5 -70.5,70.5c-38.93607,0 -70.5,-31.56393 -70.5,-70.5z" fill="url(#color-17)" stroke="none"/></g><g fill="none" stroke-opacity="0.47843" stroke="#ffffff" stroke-linecap="round"><path d="M61.16673,164.5l195,-29" stroke-width="1.5"/><path d="M347.16673,141.5l-203,11l-60,-42" stroke-width="1.5"/><path d="M176.16672,182.5l-77,-18" stroke-width="1"/><path d="M179.16672,252.5l-28,-74" stroke-width="1"/><path d="M256.16668,276.5l-128,-62" stroke-width="1"/><path d="M231.16671,226.5v33" stroke-width="1"/><path d="M249.16671,239.5l-10,12" stroke-width="1"/><path d="M210.16669,315.5l82,-67" stroke-width="1"/><path d="M303.16668,292.5h63" stroke-width="1"/><path d="M363.16671,254.5l-41,-33" stroke-width="1"/><path d="M274.1667,182.5l64,-108" stroke-width="1"/><path d="M349.16671,93.5l-30,27" stroke-width="1"/><path d="M331.16668,100.5l38,-50" stroke-width="1"/><path d="M248.16671,59.5l-85,-17" stroke-width="1"/><path d="M98.16671,82.5l23,35" stroke-width="0.5"/><path d="M91.16671,98.5l64,17" stroke-width="0.5"/><path d="M87.16671,217.5l34,55" stroke-width="0.5"/><path d="M71.1667,336.5l33,-33" stroke-width="0.5"/><path d="M127.16671,318.5l50,-5" stroke-width="0.5"/><path d="M126.16671,309.5l45,-18" stroke-width="0.5"/><path d="M128.16671,296.5l-46,36" stroke-width="0.5"/><path d="M321.1667,330.5l-111,11" stroke-width="0.5"/><path d="M337.16671,282.5l51,17" stroke-width="0.5"/><path d="M413.16671,193.5l-34,-43" stroke-width="0.5"/><path d="M339.16671,176.5l58,-58" stroke-width="0.5"/><path d="M206.16671,39.5l54,37" stroke-width="0.5"/><path d="M88.16671,63.5l35,-7" stroke-width="0.5"/><path d="M44.16671,95.5l-21,74" stroke-width="0.5"/><path d="M47.16671,217.5l-16,11" stroke-width="0.5"/><path d="M35.16671,262.5l49,15" stroke-width="0.5"/><path d="M309.1667,144.5l-86,29" stroke-width="0.5"/><path d="M207.16671,203.5l66,-47" stroke-width="0.5"/></g><path d="M427.50004,30.87591l-54,54" fill="none" stroke-opacity="0.46275" stroke="#000000" stroke-width="1" stroke-linecap="round"/><path d="M312.00003,163.37591l87.5,-87.5" fill="none" stroke-opacity="0.46275" stroke="#000000" stroke-width="1" stroke-linecap="round"/><path d="M242.50004,192.87591l119,22" fill="none" stroke-opacity="0.46275" stroke="#000000" stroke-width="1" stroke-linecap="round"/><path d="M59.50004,76.87591l93,6" fill="none" stroke-opacity="0.46275" stroke="#000000" stroke-width="1" stroke-linecap="round"/><path d="M101.50003,253.87591l-32,-33" fill="none" stroke-opacity="0.46275" stroke="#000000" stroke-width="1" stroke-linecap="round"/><path d="M185.50004,333.87591l100,-31" fill="none" stroke-opacity="0.46275" stroke="#000000" stroke-width="1" stroke-linecap="round"/><path d="M359.50004,307.87591h61" fill="none" stroke-opacity="0.46275" stroke="#000000" stroke-width="1" stroke-linecap="round"/><path d="M413.50004,295.87591l-14,-37" fill="none" stroke-opacity="0.46275" stroke="#000000" stroke-width="1" stroke-linecap="round"/><path d="M427.50004,172.87591l-5,85" fill="none" stroke-opacity="0.46275" stroke="#000000" stroke-width="1" stroke-linecap="round"/><path d="M181.50004,223.87591l104,-5" fill="none" stroke-opacity="0.46275" stroke="#000000" stroke-width="1" stroke-linecap="round"/><path d="M200.50004,96.8759l-48,45" fill="none" stroke-opacity="0.46275" stroke="#000000" stroke-width="1" stroke-linecap="round"/><path d="M140.50004,352.8759l-34,-19" fill="none" stroke-opacity="0.46275" stroke="#000000" stroke-width="1" stroke-linecap="round"/><path d="M173.50004,272.8759l-42,-12" fill="none" stroke-opacity="0.46275" stroke="#000000" stroke-width="1" stroke-linecap="round"/><path d="M222.83337,204.8759l-12,-82" fill="none" stroke-opacity="0.46275" stroke="#ffffff" stroke-width="1" stroke-linecap="round"/><path d="M241.83337,225.8759l-17,-64" fill="none" stroke-opacity="0.46275" stroke="#ffffff" stroke-width="1" stroke-linecap="round"/><path d="M74.83337,289.8759l70,-31" fill="none" stroke-opacity="0.46275" stroke="#ffffff" stroke-width="1" stroke-linecap="round"/><path d="M63.83337,247.8759l30,39" fill="none" stroke-opacity="0.46275" stroke="#ffffff" stroke-width="1" stroke-linecap="round"/><path d="M339.83338,289.8759l16,41" fill="none" stroke-opacity="0.46275" stroke="#ffffff" stroke-width="1" stroke-linecap="round"/><path d="M410.83338,156.8759l-21,36" fill="none" stroke-opacity="0.46275" stroke="#ffffff" stroke-width="1" stroke-linecap="round"/><path d="M383.83338,223.8759l29,-52" fill="none" stroke-opacity="0.46275" stroke="#ffffff" stroke-width="1" stroke-linecap="round"/><path d="M174.83337,63.8759l-73,-7" fill="none" stroke-opacity="0.46275" stroke="#ffffff" stroke-width="1" stroke-linecap="round"/><path d="M74.83337,49.8759h51" fill="none" stroke-opacity="0.46275" stroke="#ffffff" stroke-width="1" stroke-linecap="round"/><path d="M192.83337,350.8759l-41,-49" fill="none" stroke-opacity="0.46275" stroke="#ffffff" stroke-width="1" stroke-linecap="round"/><path d="M264.83338,38.8759l7,-29" fill="none" stroke-opacity="0.46275" stroke="#ffffff" stroke-width="1" stroke-linecap="round"/><path d="M43.83337,314.8759l-28,9" fill="none" stroke-opacity="0.46275" stroke="#ffffff" stroke-width="1" stroke-linecap="round"/><path d="M429.83338,337.8759l5,-80" fill="none" stroke-opacity="0.46275" stroke="#ffffff" stroke-width="1" stroke-linecap="round"/><path d="M447.83338,270.8759l1,-47" fill="none" stroke-opacity="0.46275" stroke="#ffffff" stroke-width="1" stroke-linecap="round"/><path d="M42.16671,40.8759l-24,-24" fill="none" stroke-opacity="0.46275" stroke="#ffffff" stroke-width="1" stroke-linecap="round"/><path d="M-0.3333,360v-360h480.66667v360z" fill="url(#color-18)" stroke="#000000" stroke-width="0" stroke-linecap="butt"/></g></g></svg>