<svg version="1.1" xmlns="http://www.w3.org/2000/svg" xmlns:xlink="http://www.w3.org/1999/xlink" width="597.12839" height="324.99545" viewBox="0,0,597.12839,324.99545"><defs><radialGradient cx="298.96116" cy="313.80868" r="76.29167" gradientUnits="userSpaceOnUse" id="color-1"><stop offset="0" stop-color="#86ff81"/><stop offset="1" stop-color="#26ff26"/></radialGradient><radialGradient cx="254.66947" cy="303.50001" r="56.82292" gradientUnits="userSpaceOnUse" id="color-2"><stop offset="0" stop-color="#86ff81"/><stop offset="1" stop-color="#26ff26"/></radialGradient><radialGradient cx="281.66947" cy="274.50001" r="33.75" gradientUnits="userSpaceOnUse" id="color-3"><stop offset="0" stop-color="#86ff81"/><stop offset="1" stop-color="#26ff26"/></radialGradient><radialGradient cx="403.66948" cy="312.50001" r="52.75" gradientUnits="userSpaceOnUse" id="color-4"><stop offset="0" stop-color="#86ff81"/><stop offset="1" stop-color="#26ff26"/></radialGradient><radialGradient cx="197.66948" cy="236.84531" r="26.79167" gradientUnits="userSpaceOnUse" id="color-5"><stop offset="0" stop-color="#86ff81"/><stop offset="1" stop-color="#26ff26"/></radialGradient><radialGradient cx="190.2171" cy="271.71943" r="57.26041" gradientUnits="userSpaceOnUse" id="color-6"><stop offset="0" stop-color="#86ff81"/><stop offset="1" stop-color="#26ff26"/></radialGradient><radialGradient cx="214.66948" cy="373.50001" r="56.82292" gradientUnits="userSpaceOnUse" id="color-7"><stop offset="0" stop-color="#86ff81"/><stop offset="1" stop-color="#26ff26"/></radialGradient><radialGradient cx="460.14499" cy="217.61968" r="67.10784" gradientUnits="userSpaceOnUse" id="color-8"><stop offset="0" stop-color="#86ff81"/><stop offset="1" stop-color="#26ff26"/></radialGradient><radialGradient cx="437.97472" cy="175.66806" r="25.70582" gradientUnits="userSpaceOnUse" id="color-9"><stop offset="0" stop-color="#86ff81"/><stop offset="1" stop-color="#26ff26"/></radialGradient><radialGradient cx="418.99579" cy="246.20192" r="20.40598" gradientUnits="userSpaceOnUse" id="color-10"><stop offset="0" stop-color="#86ff81"/><stop offset="1" stop-color="#26ff26"/></radialGradient><radialGradient cx="510.19004" cy="260.1572" r="67.10784" gradientUnits="userSpaceOnUse" id="color-11"><stop offset="0" stop-color="#86ff81"/><stop offset="1" stop-color="#26ff26"/></radialGradient><radialGradient cx="205.80037" cy="370.57142" r="28.125" gradientUnits="userSpaceOnUse" id="color-12"><stop offset="0" stop-color="#ffffff" stop-opacity="0.56452"/><stop offset="1" stop-color="#ffffff" stop-opacity="0"/></radialGradient><radialGradient cx="185.80037" cy="353.57142" r="28.125" gradientUnits="userSpaceOnUse" id="color-13"><stop offset="0" stop-color="#000000" stop-opacity="0.25806"/><stop offset="1" stop-color="#000000" stop-opacity="0"/></radialGradient><radialGradient cx="154.42537" cy="378.19642" r="16" gradientUnits="userSpaceOnUse" id="color-14"><stop offset="0" stop-color="#000000" stop-opacity="0.13965"/><stop offset="1" stop-color="#000000" stop-opacity="0"/></radialGradient><radialGradient cx="187.17537" cy="409.19642" r="16" gradientUnits="userSpaceOnUse" id="color-15"><stop offset="0" stop-color="#000000" stop-opacity="0.13965"/><stop offset="1" stop-color="#000000" stop-opacity="0"/></radialGradient><radialGradient cx="53.67537" cy="399.44642" r="16" gradientUnits="userSpaceOnUse" id="color-16"><stop offset="0" stop-color="#000000" stop-opacity="0.13965"/><stop offset="1" stop-color="#000000" stop-opacity="0"/></radialGradient><radialGradient cx="78.92537" cy="344.94642" r="16" gradientUnits="userSpaceOnUse" id="color-17"><stop offset="0" stop-color="#000000" stop-opacity="0.13965"/><stop offset="1" stop-color="#000000" stop-opacity="0"/></radialGradient><radialGradient cx="261.92537" cy="338.69642" r="16" gradientUnits="userSpaceOnUse" id="color-18"><stop offset="0" stop-color="#000000" stop-opacity="0.13965"/><stop offset="1" stop-color="#000000" stop-opacity="0"/></radialGradient><radialGradient cx="135.30037" cy="355.82141" r="28.125" gradientUnits="userSpaceOnUse" id="color-19"><stop offset="0" stop-color="#ffffff" stop-opacity="0.35484"/><stop offset="1" stop-color="#ffffff" stop-opacity="0"/></radialGradient><radialGradient cx="158.80037" cy="336.82142" r="28.125" gradientUnits="userSpaceOnUse" id="color-20"><stop offset="0" stop-color="#ffffff" stop-opacity="0.35484"/><stop offset="1" stop-color="#ffffff" stop-opacity="0"/></radialGradient><radialGradient cx="144.55037" cy="396.32142" r="28.125" gradientUnits="userSpaceOnUse" id="color-21"><stop offset="0" stop-color="#ffffff" stop-opacity="0.35484"/><stop offset="1" stop-color="#ffffff" stop-opacity="0"/></radialGradient><radialGradient cx="78.55037" cy="379.32142" r="28.125" gradientUnits="userSpaceOnUse" id="color-22"><stop offset="0" stop-color="#ffffff" stop-opacity="0.35484"/><stop offset="1" stop-color="#ffffff" stop-opacity="0"/></radialGradient><radialGradient cx="216.80037" cy="338.57142" r="28.125" gradientUnits="userSpaceOnUse" id="color-23"><stop offset="0" stop-color="#ffffff" stop-opacity="0.35484"/><stop offset="1" stop-color="#ffffff" stop-opacity="0"/></radialGradient></defs><g transform="translate(19.83051,-100.20096)"><g data-paper-data="{&quot;isPaintingLayer&quot;:true}" fill-rule="nonzero" stroke-linejoin="miter" stroke-miterlimit="10" stroke-dasharray="" stroke-dashoffset="0" style="mix-blend-mode: normal"><path d="M206.16949,343.95475c0,19.88225 -24.06469,36 -53.75,36c-29.6853,0 -53.75,-16.11775 -53.75,-36c0,-19.88225 24.0647,-36 53.75,-36c29.68531,0 53.75,16.11775 53.75,36z" fill="#ff278c" stroke="none" stroke-width="0" stroke-linecap="butt"/><path d="M-5.33051,299.45475l49.5,-4.5l12.96296,-28.92381c0,0 41.48582,-4.11721 54.03704,18.42381c12.55122,22.54102 -29,23 -29,23c0,0 7.28533,16.86559 -35.13974,15.93039c-10.42393,-0.22978 -39.5498,2.27355 -40.26876,-5.1334c-0.41157,-4.24011 -8.62458,-8.24547 -11.04722,-11.46061c-3.32473,-4.41233 -1.04427,-7.33637 -1.04427,-7.33637z" fill="#ff278c" stroke="none" stroke-width="0" stroke-linecap="butt"/><path d="M22.66949,325.39376c0,7.42217 -9.17816,13.43902 -20.5,13.43902c-11.32183,0 -20.5,-6.01686 -20.5,-13.43902c0,-7.42217 9.17817,-13.43902 20.5,-13.43902c11.32184,0 20.5,6.01686 20.5,13.43902z" fill="#ff278c" stroke="none" stroke-width="0" stroke-linecap="butt"/><path d="M20.66947,336.26084c0,-4.21016 5.26066,-7.62317 11.75,-7.62317c6.48935,0 11.75,3.41301 11.75,7.62317c0,4.21016 -5.26065,7.62317 -11.75,7.62317c-6.48934,0 -11.75,-3.41301 -11.75,-7.62317z" fill="#ff278c" stroke="none" stroke-width="0" stroke-linecap="butt"/><path d="M92.66949,333.27182c0,9.21373 -11.6406,16.68293 -26,16.68293c-14.35941,0 -26,-7.4692 -26,-16.68293c0,-9.21372 11.6406,-16.68293 26,-16.68293c14.3594,0 26,7.46921 26,16.68293z" fill="#ff278c" stroke="none" stroke-width="0" stroke-linecap="butt"/><path d="M77.66948,302.95475c0,-5.79899 8.73045,-10.5 19.5,-10.5c10.76955,0 19.5,4.70101 19.5,10.5c0,5.79899 -8.73045,10.5 -19.5,10.5c-10.76955,0 -19.5,-4.70101 -19.5,-10.5z" fill="#ff278c" stroke="none" stroke-width="0" stroke-linecap="butt"/><path d="M108.16949,267.20475c0,5.10863 -6.49187,9.25 -14.5,9.25c-8.00813,0 -14.5,-4.14137 -14.5,-9.25c0,-5.10863 6.49187,-9.25 14.5,-9.25c8.00813,0 14.5,4.14137 14.5,9.25z" fill="#ff278c" stroke="none" stroke-width="0" stroke-linecap="butt"/><path d="M77.91948,256.3513c2.8995,0 5.25,1.70209 5.25,3.80172c0,2.09964 -2.3505,3.80173 -5.25,3.80173c-2.8995,0 -5.25,-1.7021 -5.25,-3.80173c0,-2.09963 2.3505,-3.80172 5.25,-3.80172z" fill="#ff278c" stroke="none" stroke-width="0" stroke-linecap="butt"/><path d="M136.1695,381.45475c0,20.71068 -29.88499,37.5 -66.75,37.5c-36.865,0 -66.75,-16.78932 -66.75,-37.5c0,-20.71068 29.885,-37.5 66.75,-37.5c36.86501,0 66.75,16.78932 66.75,37.5z" fill="#ff278c" stroke="none" stroke-width="0" stroke-linecap="butt"/><path d="M321.1695,348.95475c0,19.88225 -29.88499,36 -66.75,36c-36.865,0 -66.75,-16.11775 -66.75,-36c0,-19.88225 29.885,-36 66.75,-36c36.86501,0 66.75,16.11775 66.75,36z" fill="#26ff26" stroke="none" stroke-width="0" stroke-linecap="butt"/><path d="M375.25283,313.80868c0,22.72434 -34.15693,41.14607 -76.29167,41.14607c-42.13472,0 -76.29167,-18.42172 -76.29167,-41.14607c0,-22.72434 34.15695,-41.14607 76.29167,-41.14607c42.13473,0 76.29167,18.42172 76.29167,41.14607z" fill="url(#color-1)" stroke="none" stroke-width="0" stroke-linecap="butt"/><path d="M233.1695,383.95475c0,19.88225 -29.88499,36 -66.75,36c-36.865,0 -66.75,-16.11775 -66.75,-36c0,-19.88225 29.885,-36 66.75,-36c36.86502,0 66.75,16.11775 66.75,36z" fill="#ff278c" stroke="none" stroke-width="0" stroke-linecap="butt"/><path d="M309.31532,309.30868c0,16.92535 -25.44048,30.64607 -56.82292,30.64607c-31.38242,0 -56.82292,-13.72071 -56.82292,-30.64607c0,-16.92535 25.44049,-30.64607 56.82292,-30.64607c31.38244,0 56.82292,13.72071 56.82292,30.64607z" fill="url(#color-2)" stroke="none" stroke-width="0" stroke-linecap="butt"/><path d="M257.1695,248.80868c0,3.94666 -5.93223,7.14607 -13.25,7.14607c-7.31777,0 -13.25,-3.1994 -13.25,-7.14607c0,-3.94666 5.93223,-7.14607 13.25,-7.14607c7.31778,0 13.25,3.1994 13.25,7.14607z" fill="#26ff26" stroke="none" stroke-width="0" stroke-linecap="butt"/><path d="M315.16949,272.86487c0,10.05283 -15.11038,18.20224 -33.75,18.20224c-18.6396,0 -33.75,-8.14942 -33.75,-18.20224c0,-10.05283 15.1104,-18.20225 33.75,-18.20225c18.63962,0 33.75,8.14943 33.75,18.20225z" fill="url(#color-3)" stroke="none" stroke-width="0" stroke-linecap="butt"/><path d="M454.16949,317.11206c0,15.71219 -23.61697,28.44943 -52.75,28.44943c-29.13301,0 -52.75,-12.73723 -52.75,-28.44943c0,-15.71219 23.61699,-28.44945 52.75,-28.44945c29.13303,0 52.75,12.73726 52.75,28.44945z" fill="url(#color-4)" stroke="none" stroke-width="0" stroke-linecap="butt"/><path d="M223.25283,237.36204c0,6.73757 -11.99503,12.19943 -26.79167,12.19943c-14.79662,0 -26.79167,-5.46186 -26.79167,-12.19943c0,-6.73757 11.99504,-12.19944 26.79167,-12.19944c14.79663,0 26.79167,5.46188 26.79167,12.19944z" fill="url(#color-5)" stroke="none" stroke-width="0" stroke-linecap="butt"/><path d="M256.25282,272.54465c0,17.05567 -25.63635,30.88201 -57.26041,30.88201c-31.62405,0 -57.26041,-13.82633 -57.26041,-30.88201c0,-17.05567 25.63637,-30.88204 57.26041,-30.88204c31.62407,0 57.26041,13.82637 57.26041,30.88204z" fill="url(#color-6)" stroke="none" stroke-width="0" stroke-linecap="butt"/><path d="M260.7945,346.95475c0,14.91169 -22.41374,27 -50.0625,27c-27.64875,0 -50.0625,-12.08831 -50.0625,-27c0,-14.91169 22.41375,-27 50.0625,-27c27.64876,0 50.0625,12.08831 50.0625,27z" fill="#ff278c" stroke="none" stroke-width="0" stroke-linecap="butt"/><path d="M269.31532,379.30868c0,16.92535 -25.44048,30.64607 -56.82292,30.64607c-31.38242,0 -56.82292,-13.72071 -56.82292,-30.64607c0,-16.92535 25.44049,-30.64607 56.82292,-30.64607c31.38244,0 56.82292,13.72071 56.82292,30.64607z" fill="url(#color-7)" stroke="none" stroke-width="0" stroke-linecap="butt"/><path d="M178.62783,368.45475c0,5.79899 -8.71645,10.5 -19.46875,10.5c-10.75229,0 -19.46875,-4.70101 -19.46875,-10.5c0,-5.79899 8.71646,-10.5 19.46875,-10.5c10.7523,0 19.46875,4.70101 19.46875,10.5z" fill="#ff278c" stroke="none" stroke-width="0" stroke-linecap="butt"/><path d="M277.94032,358.95475c0,8.28428 -12.45208,15 -27.8125,15c-15.36042,0 -27.8125,-6.71572 -27.8125,-15c0,-8.28428 12.45207,-15 27.8125,-15c15.36043,0 27.8125,6.71572 27.8125,15z" fill="#ff278c" stroke="none" stroke-width="0" stroke-linecap="butt"/><path d="M527.25285,217.61968c0,15.64957 -30.0452,28.33606 -67.10784,28.33606c-37.06263,0 -67.10784,-12.68648 -67.10784,-28.33606c0,-15.64957 30.04521,-28.33606 67.10784,-28.33606c37.06264,0 67.10784,12.68648 67.10784,28.33606z" fill="url(#color-8)" stroke="none" stroke-width="0" stroke-linecap="butt"/><path d="M463.49013,174.42265c0,7.65678 -11.50888,13.86381 -25.70582,13.86381c-14.19692,0 -25.70582,-6.20704 -25.70582,-13.86381c0,-7.65678 11.50889,-13.86381 25.70582,-13.86381c14.19694,0 25.70582,6.20704 25.70582,13.86381z" fill="url(#color-9)" stroke="none" stroke-width="0" stroke-linecap="butt"/><path d="M438.48145,246.66809c0,6.07816 -9.13606,11.00546 -20.40598,11.00546c-11.2699,0 -20.40598,-4.92731 -20.40598,-11.00546c0,-6.07816 9.13607,-11.00547 20.40598,-11.00547c11.26991,0 20.40598,4.92732 20.40598,11.00547z" fill="url(#color-10)" stroke="none" stroke-width="0" stroke-linecap="butt"/><path d="M234.6695,163.07443c0,6.96966 -17.90861,12.61968 -40,12.61968c-22.09138,0 -40,-5.65002 -40,-12.61968c0,-6.96966 17.90862,-12.61968 40,-12.61968c22.09139,0 40,5.65002 40,12.61968z" fill="#ff278c" stroke="none" stroke-width="0" stroke-linecap="butt"/><path d="M244.27224,174.65687c0,4.58279 -11.77552,8.29787 -26.30137,8.29787c-14.52584,0 -26.30137,-3.71508 -26.30137,-8.29787c0,-4.58279 11.77553,-8.29787 26.30137,-8.29787c14.52585,0 26.30137,3.71508 26.30137,8.29787z" fill="#ff278c" stroke="none" stroke-width="0" stroke-linecap="butt"/><path d="M216.16951,186.56736c0,11.1079 -28.54184,20.11262 -63.75,20.11262c-35.20814,0 -63.75,-9.00472 -63.75,-20.11262c0,-11.1079 28.54186,-20.11261 63.75,-20.11261c35.20816,0 63.75,9.00472 63.75,20.11261z" fill="#ff278c" stroke="none" stroke-width="0" stroke-linecap="butt"/><path d="M577.29788,260.1572c0,17.30808 -30.0452,31.33906 -67.10784,31.33906c-37.06263,0 -67.10784,-14.03097 -67.10784,-31.33906c0,-17.30808 30.04521,-31.33906 67.10784,-31.33906c37.06264,0 67.10784,14.03097 67.10784,31.33906z" fill="url(#color-11)" stroke="none" stroke-width="0" stroke-linecap="butt"/><path d="M493.85879,100.45097l-501.5015,45.04505" fill="none" stroke-opacity="0.0902" stroke="#000000" stroke-width="0.5" stroke-linecap="round"/><path d="M287.06399,135.54506c0.12072,5.38343 -12.98569,10.04365 -29.274,10.40892c-16.2883,0.36526 -29.59045,-3.70275 -29.71117,-9.08618c-0.12072,-5.38343 12.98569,-10.04365 29.274,-10.40892c16.2883,-0.36526 29.59045,3.70275 29.71117,9.08618z" fill="#26ff26" stroke="none" stroke-width="0" stroke-linecap="butt"/><path d="M284.23622,132.10759c12.42329,-0.27859 22.59974,4.19539 22.72975,9.99293c0.13001,5.79753 -9.83566,10.7232 -22.25894,11.0018c-12.42329,0.27859 -22.59974,-4.19539 -22.72975,-9.99293c-0.13001,-5.79753 9.83566,-10.7232 22.25894,-11.0018z" fill="#26ff26" stroke="none" stroke-width="0" stroke-linecap="butt"/><path d="M382.35731,136.40885c0.17954,8.00612 -19.48134,14.94051 -43.9138,15.48841c-24.43246,0.5479 -44.38442,-5.49818 -44.56396,-13.5043c-0.17954,-8.00612 19.48134,-14.94051 43.9138,-15.48841c24.43246,-0.5479 44.38442,5.49818 44.56396,13.5043z" fill="#26ff26" stroke="none" stroke-width="0" stroke-linecap="butt"/><path d="M300.16949,162.75c-8.97463,0 -16.25,-3.24594 -16.25,-7.25c0,-4.00406 7.27537,-7.25 16.25,-7.25c8.97463,0 16.25,3.24594 16.25,7.25c0,4.00406 -7.27537,7.25 -16.25,7.25z" fill="#26ff26" stroke="none" stroke-width="0" stroke-linecap="butt"/><path d="M389.8957,115.73465c15.73616,-0.35288 28.58819,3.61327 28.70582,8.85866c0.11763,5.24539 -12.54369,9.78368 -28.27985,10.13656c-15.73616,0.35288 -28.58819,-3.61327 -28.70582,-8.85866c-0.11763,-5.24539 12.54369,-9.78368 28.27985,-10.13656z" fill="#26ff26" stroke="none" stroke-width="0" stroke-linecap="butt"/><path d="M376.91949,156.25c-9.94113,0 -18,-4.14137 -18,-9.25c0,-5.10863 8.05887,-9.25 18,-9.25c9.94113,0 18,4.14137 18,9.25c0,5.10863 -8.05887,9.25 -18,9.25z" fill="#26ff26" stroke="none" stroke-width="0" stroke-linecap="butt"/><path d="M419.90726,127.06467c19.46315,-0.43646 35.38166,5.47615 35.55501,13.2062c0.17335,7.73005 -15.46412,14.3503 -34.92727,14.78676c-19.46315,0.43646 -35.38166,-5.47615 -35.55501,-13.2062c-0.17335,-7.73005 15.46412,-14.3503 34.92727,-14.78676z" fill="#26ff26" stroke="none" stroke-width="0" stroke-linecap="butt"/><path d="M418.84358,113.085c6.90182,-0.15477 12.53952,1.62207 12.59214,3.96869c0.05262,2.34662 -5.49975,4.3744 -12.40158,4.52917c-6.90182,0.15477 -12.53952,-1.62207 -12.59214,-3.96869c-0.05262,-2.34662 5.49975,-4.3744 12.40158,-4.52917z" fill="#26ff26" stroke="none" stroke-width="0" stroke-linecap="butt"/><path d="M316.91949,195.75001c-34.24165,0 -62,-8.50659 -62,-19c0,-10.49341 27.75835,-19 62,-19c34.24165,0 62,8.50659 62,19c0,10.49341 -27.75835,19 -62,19z" fill="#26ff26" stroke="none" stroke-width="0" stroke-linecap="butt"/><path d="M64.66948,157.75c0,5.24671 -16.56546,9.5 -37,9.5c-20.43454,0 -37,-4.25329 -37,-9.5c0,-5.24671 16.56546,-9.5 37,-9.5c20.43454,0 37,4.25329 37,9.5z" fill="#26ff26" stroke="none" stroke-width="0" stroke-linecap="butt"/><path d="M61.66949,141.75c14.3594,0 26,3.46979 26,7.75c0,4.28021 -11.6406,7.75 -26,7.75c-14.3594,0 -26,-3.46979 -26,-7.75c0,-4.28021 11.6406,-7.75 26,-7.75z" fill="#26ff26" stroke="none" stroke-width="0" stroke-linecap="butt"/><path d="M1.91949,191.25001c-12.01219,0 -21.75,-3.58172 -21.75,-8c0,-4.41828 9.73781,-8 21.75,-8c12.01219,0 21.75,3.58172 21.75,8c0,4.41828 -9.73781,8 -21.75,8z" fill="#26ff26" stroke="none" stroke-width="0" stroke-linecap="butt"/><path d="M45.41949,157.25c20.02032,0 36.25,5.26065 36.25,11.75c0,6.48935 -16.22968,11.75 -36.25,11.75c-20.02032,0 -36.25,-5.26065 -36.25,-11.75c0,-6.48935 16.22968,-11.75 36.25,-11.75z" fill="#ff278c" stroke="none" stroke-width="0" stroke-linecap="butt"/><path d="M129.20673,135.25c15.76067,0 28.53723,3.4698 28.53723,7.75c0,4.2802 -12.77655,7.75 -28.53723,7.75c-15.76067,0 -28.53723,-3.4698 -28.53723,-7.75c0,-4.2802 12.77655,-7.75 28.53723,-7.75z" fill="#ff278c" stroke="none" stroke-width="0" stroke-linecap="butt"/><path d="M243.16949,147.75c0,2.20914 -6.37994,4 -14.25,4c-7.87006,0 -14.25,-1.79086 -14.25,-4c0,-2.20914 6.37994,-4 14.25,-4c7.87006,0 14.25,1.79086 14.25,4z" fill="#ff278c" stroke="none" stroke-width="0" stroke-linecap="butt"/><path d="M501.25955,119.56334c0.15626,6.96791 -17.62118,13.01801 -39.70702,13.51328c-22.08583,0.49527 -40.11662,-4.75183 -40.27287,-11.71973c-0.15626,-6.96791 17.62119,-13.01801 39.70702,-13.51328c22.08584,-0.49527 40.11662,4.75183 40.27287,11.71973z" fill="#ff278c" stroke="none" stroke-width="0" stroke-linecap="butt"/><path d="M489.91126,118.49307c33.36539,-0.74822 60.65428,9.38769 60.95145,22.6392c0.29716,13.25151 -26.50993,24.60052 -59.87532,25.34874c-33.36539,0.74822 -60.65428,-9.38769 -60.95145,-22.6392c-0.29716,-13.25151 26.50993,-24.60052 59.87532,-25.34874z" fill="#26ff26" stroke="none" stroke-width="0" stroke-linecap="butt"/><path d="M531.48194,110.57443c0,5.03666 -12.94175,9.11968 -28.90622,9.11968c-15.96446,0 -28.90622,-4.08302 -28.90622,-9.11968c0,-5.03666 12.94176,-9.11968 28.90622,-9.11968c15.96446,0 28.90622,4.08302 28.90622,9.11968z" fill="#ff278c" stroke="none" stroke-width="0" stroke-linecap="butt"/><path d="M177.67537,370.57142c0,-15.53301 12.59199,-28.125 28.125,-28.125c15.53301,0 28.125,12.59199 28.125,28.125c0,15.53301 -12.59199,28.125 -28.125,28.125c-15.53301,0 -28.125,-12.59199 -28.125,-28.125z" fill="url(#color-12)" stroke="none" stroke-width="0" stroke-linecap="butt"/><path d="M157.67537,353.57142c0,-15.53301 12.59199,-28.125 28.125,-28.125c15.53301,0 28.125,12.59199 28.125,28.125c0,15.53301 -12.59199,28.125 -28.125,28.125c-15.53301,0 -28.125,-12.59199 -28.125,-28.125z" fill="url(#color-13)" stroke="none" stroke-width="0" stroke-linecap="butt"/><g stroke="none" stroke-width="0" stroke-linecap="butt"><path d="M138.42537,378.19642c0,-8.83656 7.16344,-16 16,-16c8.83656,0 16,7.16344 16,16c0,8.83656 -7.16344,16 -16,16c-8.83656,0 -16,-7.16344 -16,-16z" fill="url(#color-14)"/><path d="M171.17537,409.19642c0,-8.83655 7.16344,-16 16,-16c8.83656,0 16,7.16345 16,16c0,8.83655 -7.16344,16 -16,16c-8.83656,0 -16,-7.16345 -16,-16z" fill="url(#color-15)"/><path d="M37.67537,399.44642c0,-8.83655 7.16344,-16 16,-16c8.83656,0 16,7.16345 16,16c0,8.83655 -7.16344,16 -16,16c-8.83656,0 -16,-7.16345 -16,-16z" fill="url(#color-16)"/><path d="M62.92537,344.94642c0,-8.83655 7.16344,-16 16,-16c8.83656,0 16,7.16345 16,16c0,8.83655 -7.16344,16 -16,16c-8.83656,0 -16,-7.16345 -16,-16z" fill="url(#color-17)"/><path d="M245.92537,338.69642c0,-8.83655 7.16344,-16 16,-16c8.83656,0 16,7.16345 16,16c0,8.83655 -7.16344,16 -16,16c-8.83656,0 -16,-7.16345 -16,-16z" fill="url(#color-18)"/></g><g stroke="none" stroke-width="0" stroke-linecap="butt"><path d="M107.17537,355.82141c0,-15.53301 12.59199,-28.125 28.125,-28.125c15.53301,0 28.125,12.59199 28.125,28.125c0,15.53301 -12.59199,28.125 -28.125,28.125c-15.53301,0 -28.125,-12.59199 -28.125,-28.125z" fill="url(#color-19)"/><path d="M130.67537,336.82142c0,-15.53301 12.59199,-28.125 28.125,-28.125c15.53301,0 28.125,12.59199 28.125,28.125c0,15.53301 -12.59199,28.125 -28.125,28.125c-15.53301,0 -28.125,-12.59199 -28.125,-28.125z" fill="url(#color-20)"/><path d="M116.42537,396.32142c0,-15.53301 12.59199,-28.125 28.125,-28.125c15.53301,0 28.125,12.59199 28.125,28.125c0,15.53301 -12.59199,28.125 -28.125,28.125c-15.53301,0 -28.125,-12.59199 -28.125,-28.125z" fill="url(#color-21)"/><path d="M50.42537,379.32142c0,-15.53301 12.59199,-28.125 28.125,-28.125c15.53301,0 28.125,12.59199 28.125,28.125c0,15.53301 -12.59199,28.125 -28.125,28.125c-15.53301,0 -28.125,-12.59199 -28.125,-28.125z" fill="url(#color-22)"/><path d="M188.67537,338.57142c0,-15.53301 12.59199,-28.125 28.125,-28.125c15.53301,0 28.125,12.59199 28.125,28.125c0,15.53301 -12.59199,28.125 -28.125,28.125c-15.53301,0 -28.125,-12.59199 -28.125,-28.125z" fill="url(#color-23)"/></g><path d="M403.94032,362.95475c0,8.28428 -12.45208,15 -27.8125,15c-15.36042,0 -27.8125,-6.71572 -27.8125,-15c0,-8.28428 12.45207,-15 27.8125,-15c15.36043,0 27.8125,6.71572 27.8125,15z" fill="#ff278c" stroke="none" stroke-width="0" stroke-linecap="butt"/></g></g></svg>