<svg version="1.1" xmlns="http://www.w3.org/2000/svg" xmlns:xlink="http://www.w3.org/1999/xlink" width="288.09099" height="60.1013" viewBox="0,0,288.09099,60.1013"><defs><radialGradient cx="240" cy="149.00328" r="143.00763" gradientUnits="userSpaceOnUse" id="color-1"><stop offset="0" stop-color="#000000" stop-opacity="0.74902"/><stop offset="1" stop-color="#000000" stop-opacity="0"/></radialGradient></defs><g transform="translate(-95.95451,-118.95263)"><g data-paper-data="{&quot;isPaintingLayer&quot;:true}" fill-rule="nonzero" stroke="none" stroke-linecap="butt" stroke-linejoin="miter" stroke-miterlimit="10" stroke-dasharray="" stroke-dashoffset="0" style="mix-blend-mode: normal"><path d="M98.93202,179.05393l-2.97751,-37.40673l285.11347,-22.69457l2.97751,37.40673z" fill="url(#color-1)" stroke-width="0"/><g fill="#ff0000" stroke-width="0.40889"><path d="M370.14982,157.0929v-22.8012c0,-1.23458 0.39546,-2.21839 1.18636,-2.9514c0.7909,-0.73303 1.81329,-1.09954 3.06716,-1.09954c1.21529,0 2.22803,0.37615 3.03823,1.12845c0.81019,0.75232 1.21529,1.72649 1.21529,2.92249v22.8012c0,1.21528 -0.4051,2.18944 -1.21529,2.92249c-0.81019,0.73303 -1.82294,1.09954 -3.03823,1.09954c-1.25387,0 -2.27626,-0.36651 -3.06716,-1.09954c-0.7909,-0.73305 -1.18636,-1.70721 -1.18636,-2.92249zM374.40334,173.8755c-1.27316,0 -2.36307,-0.45333 -3.26972,-1.35997c-0.90664,-0.90664 -1.35998,-1.99656 -1.35998,-3.26974c0,-1.27315 0.45333,-2.36306 1.35998,-3.2697c0.90664,-0.90664 1.99656,-1.35997 3.26972,-1.35997c1.27316,0 2.36306,0.45333 3.26971,1.35997c0.90664,0.90664 1.35998,1.99656 1.35998,3.2697c0,1.27317 -0.45333,2.36308 -1.35998,3.26974c-0.90664,0.90664 -1.99655,1.35997 -3.26971,1.35997z"/><path d="M218.00927,167.7115v-31.41602c0,-1.48803 0.38131,-2.68775 1.14392,-3.59918c0.76261,-0.91141 1.86934,-1.36712 3.32017,-1.36712h14.17348c1.30203,0 2.29715,0.3906 2.98535,1.17182c0.70681,0.76261 1.06021,1.68334 1.06021,2.76216c0,0.70681 -0.1581,1.35783 -0.47431,1.95303c-0.31621,0.57661 -0.78122,1.05092 -1.39503,1.42293c-0.5952,0.37201 -1.32062,0.55801 -2.17624,0.55801h-10.07211v8.34227h9.37459c1.33922,0 2.37154,0.38131 3.09696,1.14392c0.72541,0.76261 1.08812,1.70193 1.08812,2.81796c0,1.04162 -0.37201,1.96234 -1.11602,2.76216c-0.74402,0.78122 -1.76704,1.17182 -3.06906,1.17182h-9.37459v8.67707h10.57431c1.32063,0 2.32504,0.3906 3.01326,1.17182c0.70681,0.76261 1.06021,1.69263 1.06021,2.79005c0,0.61381 -0.1581,1.23692 -0.47431,1.86934c-0.31621,0.63242 -0.78122,1.13462 -1.39503,1.50663c-0.61381,0.37201 -1.34853,0.55802 -2.20415,0.55802h-14.73148c-1.26483,0 -2.31574,-0.39062 -3.15276,-1.17183c-0.83702,-0.79981 -1.25553,-1.84143 -1.25553,-3.12487z"/><path d="M163.76767,167.90682v-32.47624c0,-1.37642 0.3999,-2.45525 1.19973,-3.23646c0.81841,-0.79982 1.85073,-1.19973 3.09696,-1.19973c1.26483,0 2.28785,0.3906 3.06906,1.17182c0.79981,0.76261 1.19973,1.85073 1.19973,3.26437v32.47624c0,1.41363 -0.3999,2.51104 -1.19973,3.29226c-0.78122,0.76261 -1.80423,1.14391 -3.06906,1.14391c-1.24623,0 -2.27855,-0.3906 -3.09696,-1.17182c-0.79982,-0.79982 -1.19973,-1.88794 -1.19973,-3.26437z"/><path d="M265.54561,164.80986c1.74845,0 3.30158,-0.3441 4.65941,-1.03232c1.35783,-0.68822 2.49245,-1.64613 3.40388,-2.87375c0.91141,-1.24623 1.58102,-2.65055 2.00884,-4.21299c0.44642,-1.58102 0.66963,-3.25506 0.66963,-5.0221c0,-2.38085 -0.40921,-4.56639 -1.22762,-6.55662c-0.81841,-1.99023 -2.04605,-3.58057 -3.68287,-4.771c-1.61825,-1.20903 -3.56199,-1.81354 -5.83124,-1.81354c-2.26923,0 -4.22225,0.60451 -5.85909,1.81354c-1.61825,1.19042 -2.83658,2.78075 -3.65499,4.771c-0.81841,1.99023 -1.22762,4.17578 -1.22762,6.55662c0,3.73868 0.92072,6.86353 2.76216,9.37459c1.86002,2.51104 4.51988,3.76657 7.97955,3.76657zM265.54561,172.70571c-3.79447,0 -7.18903,-0.92072 -10.18367,-2.76215c-2.97608,-1.86004 -5.30114,-4.39899 -6.97516,-7.61685c-1.65542,-3.21787 -2.48313,-6.77053 -2.48313,-10.65801c0,-2.95746 0.47431,-5.71961 1.42292,-8.28646c0.94861,-2.56684 2.29714,-4.80819 4.04558,-6.72403c1.76702,-1.91584 3.85027,-3.39456 6.24971,-4.43618c2.39944,-1.06023 5.04069,-1.59033 7.92374,-1.59033c2.82728,0 5.44992,0.54871 7.86795,1.64613c2.43666,1.07882 4.52921,2.57615 6.27763,4.49199c1.74845,1.91584 3.10627,4.15719 4.07349,6.72403c0.96721,2.56684 1.45083,5.29181 1.45083,8.17486c0,2.92026 -0.46501,5.66382 -1.39504,8.23066c-0.93,2.54825 -2.28782,4.78959 -4.07346,6.72403c-1.76705,1.93444 -3.8596,3.43177 -6.27763,4.49199c-2.41806,1.06021 -5.05931,1.59033 -7.92378,1.59033z"/><path d="M182.45121,167.90682v-32.11354c0,-1.37642 0.39062,-2.46454 1.17183,-3.26437c0.78122,-0.79981 1.87865,-1.19973 3.29229,-1.19973h10.1c2.73425,0 5.22669,0.57661 7.47734,1.72984c2.26924,1.13462 4.02699,2.74355 5.2732,4.8268c1.26483,2.06464 1.89725,4.42688 1.89725,7.08674c0,2.06464 -0.38131,3.94328 -1.14392,5.63591c-0.74402,1.67404 -1.76705,3.09696 -3.06908,4.26879c-1.28342,1.17182 -2.79934,2.07394 -4.54779,2.70636c-1.74845,0.63242 -3.58988,0.94862 -5.52429,0.94862h-6.36132v9.37459c0,1.41363 -0.39992,2.51104 -1.19974,3.29226c-0.7812,0.76261 -1.80421,1.14391 -3.06904,1.14391c-1.24623,0 -2.27855,-0.3906 -3.09696,-1.17182c-0.79984,-0.79982 -1.19974,-1.88794 -1.19974,-3.26437zM191.01672,138.86233v12.10884h5.83121c1.74845,0 3.16206,-0.56731 4.24087,-1.70193c1.09741,-1.13462 1.64613,-2.58545 1.64613,-4.35249c0,-1.13462 -0.2418,-2.15764 -0.72541,-3.06906c-0.48361,-0.93002 -1.17182,-1.65543 -2.06463,-2.17624c-0.89281,-0.53942 -1.92513,-0.80911 -3.09696,-0.80911z"/><path d="M343.60849,168.42987v-28.70966h-6.22182c-1.26483,0 -2.23205,-0.38131 -2.90166,-1.14392c-0.66961,-0.78122 -1.00443,-1.71125 -1.00443,-2.79008c0,-0.66961 0.16741,-1.31132 0.50221,-1.92513c0.31621,-0.61381 0.77191,-1.09741 1.36713,-1.45083c0.61381,-0.372 1.29273,-0.55801 2.03674,-0.55801h21.00911c0.74402,0 1.41363,0.186 2.00884,0.55801c0.61381,0.35342 1.07882,0.83703 1.39503,1.45083c0.3348,0.61381 0.50221,1.25551 0.50221,1.92513c0,1.07883 -0.32551,2.00885 -0.97652,2.79008c-0.65101,0.76261 -1.62754,1.14392 -2.92955,1.14392h-6.22182v28.70966c0,1.41363 -0.3999,2.51107 -1.19973,3.29229c-0.78122,0.76261 -1.80423,1.14392 -3.06906,1.14392c-1.28342,0 -2.32504,-0.38131 -3.12487,-1.14392c-0.78122,-0.78122 -1.17182,-1.87865 -1.17182,-3.29229z"/><path d="M291.83051,156.34895v-20.39533c0,-1.39503 0.3999,-2.48315 1.19973,-3.26438c0.79982,-0.7812 1.82284,-1.17179 3.06906,-1.17179c1.28342,0 2.31574,0.3906 3.09696,1.17179c0.79982,0.76264 1.19973,1.85076 1.19973,3.26438v19.94891c0,1.76702 0.3534,3.36665 1.06021,4.79888c0.70681,1.41363 1.72984,2.53895 3.06906,3.37596c1.35783,0.83703 2.91096,1.25554 4.65939,1.25554c2.54825,0 4.6408,-0.93002 6.27763,-2.79004c1.65543,-1.86005 2.48315,-4.07349 2.48315,-6.64033v-19.94891c0,-1.39503 0.3999,-2.48315 1.19973,-3.26438c0.79982,-0.7812 1.82284,-1.17179 3.06906,-1.17179c1.28342,0 2.31574,0.3906 3.09696,1.17179c0.79982,0.76264 1.19973,1.85076 1.19973,3.26438v20.39533c0,2.34364 -0.4464,4.54777 -1.33922,6.61241c-0.89282,2.04603 -2.13905,3.84096 -3.73868,5.38479c-1.59963,1.54383 -3.45036,2.74355 -5.55221,3.59916c-2.10185,0.85564 -4.33388,1.28345 -6.69614,1.28345c-3.14346,0 -6.04512,-0.72541 -8.70497,-2.17624c-2.65986,-1.46945 -4.771,-3.48757 -6.33343,-6.05442c-1.54383,-2.58546 -2.31574,-5.46852 -2.31574,-8.64917z"/><path d="M112.58842,168.42987l-7.25414,-31.2207c-0.16739,-0.61381 -0.25109,-1.25553 -0.25109,-1.92517c0,-0.98581 0.38131,-1.86002 1.14392,-2.62263c0.76261,-0.76261 1.73913,-1.14392 2.92955,-1.14392c2.47385,0 3.99908,1.36712 4.5757,4.10137l4.85469,24.27345h0.11162l7.42155,-25.02678c0.3348,-1.04161 0.90211,-1.86002 1.70193,-2.45525c0.79981,-0.59519 1.72054,-0.89279 2.76216,-0.89279c1.04162,0 1.96234,0.2976 2.76216,0.89279c0.81841,0.59522 1.38572,1.41363 1.70193,2.45525l7.42155,25.02678h0.11162l4.85469,-24.27345c0.26041,-1.33922 0.75331,-2.35294 1.47872,-3.04117c0.72541,-0.70681 1.75773,-1.06021 3.09696,-1.06021c1.20903,0 2.18555,0.38131 2.92955,1.14392c0.74402,0.76261 1.11602,1.63683 1.11602,2.62263c0,0.63242 -0.07441,1.27413 -0.22321,1.92517l-7.25414,31.2207c-0.2976,1.28342 -0.93932,2.34364 -1.92514,3.18067c-0.96721,0.83703 -2.21344,1.25554 -3.73868,1.25554c-1.35783,0 -2.54825,-0.39062 -3.57127,-1.17183c-1.02302,-0.78122 -1.72054,-1.77634 -2.09255,-2.98537l-6.61243,-22.06932h-0.11159l-6.64033,22.06932c-0.3534,1.20903 -1.04162,2.20415 -2.06464,2.98537c-1.02302,0.78122 -2.22274,1.17183 -3.59916,1.17183c-1.50663,0 -2.75286,-0.41851 -3.73868,-1.25554c-0.96721,-0.83703 -1.59963,-1.89725 -1.89723,-3.18067z"/></g><g fill="#ffffff" stroke-width="0.40889"><path d="M366.03361,152.97668v-22.8012c0,-1.23458 0.39546,-2.21838 1.18636,-2.9514c0.7909,-0.73303 1.81329,-1.09954 3.06717,-1.09954c1.21529,0 2.22803,0.37615 3.03823,1.12845c0.8102,0.75232 1.21529,1.72649 1.21529,2.92249v22.8012c0,1.21528 -0.40509,2.18944 -1.21529,2.92249c-0.8102,0.73303 -1.82294,1.09954 -3.03823,1.09954c-1.25388,0 -2.27627,-0.36651 -3.06717,-1.09954c-0.7909,-0.73305 -1.18636,-1.70721 -1.18636,-2.92249zM370.28712,169.75928c-1.27316,0 -2.36307,-0.45333 -3.26971,-1.35997c-0.90665,-0.90665 -1.35997,-1.99657 -1.35997,-3.26974c0,-1.27315 0.45333,-2.36306 1.35997,-3.26969c0.90665,-0.90665 1.99655,-1.35997 3.26971,-1.35997c1.27316,0 2.36307,0.45333 3.26971,1.35997c0.90665,0.90665 1.35997,1.99655 1.35997,3.26969c0,1.27317 -0.45333,2.36308 -1.35997,3.26974c-0.90665,0.90665 -1.99655,1.35997 -3.26971,1.35997z"/><path d="M213.89305,163.59528v-31.41602c0,-1.48803 0.38131,-2.68775 1.14392,-3.59918c0.76261,-0.91141 1.86934,-1.36712 3.32017,-1.36712h14.17348c1.30203,0 2.29715,0.3906 2.98535,1.17182c0.70681,0.76261 1.06021,1.68334 1.06021,2.76216c0,0.70681 -0.1581,1.35783 -0.47431,1.95303c-0.31621,0.57661 -0.78122,1.05092 -1.39503,1.42293c-0.5952,0.37201 -1.32062,0.55801 -2.17624,0.55801h-10.07211v8.34227h9.37459c1.33922,0 2.37154,0.38131 3.09696,1.14392c0.72541,0.76261 1.08812,1.70193 1.08812,2.81796c0,1.04162 -0.37201,1.96234 -1.11602,2.76216c-0.74402,0.78122 -1.76704,1.17182 -3.06906,1.17182h-9.37459v8.67707h10.57431c1.32063,0 2.32504,0.3906 3.01326,1.17182c0.70681,0.76261 1.06021,1.69263 1.06021,2.79005c0,0.61381 -0.1581,1.23692 -0.47431,1.86934c-0.31621,0.63242 -0.78122,1.13462 -1.39503,1.50663c-0.61381,0.37201 -1.34853,0.55802 -2.20415,0.55802h-14.73148c-1.26483,0 -2.31574,-0.39062 -3.15276,-1.17183c-0.83702,-0.79981 -1.25553,-1.84143 -1.25553,-3.12487z"/><path d="M159.65145,163.79057v-32.47624c0,-1.37642 0.3999,-2.45525 1.19973,-3.23646c0.81841,-0.79982 1.85073,-1.19973 3.09696,-1.19973c1.26483,0 2.28785,0.3906 3.06906,1.17182c0.79981,0.76261 1.19973,1.85073 1.19973,3.26437v32.47624c0,1.41363 -0.3999,2.51104 -1.19973,3.29226c-0.78122,0.76261 -1.80423,1.14391 -3.06906,1.14391c-1.24623,0 -2.27855,-0.3906 -3.09696,-1.17182c-0.79982,-0.79982 -1.19973,-1.88794 -1.19973,-3.26437z"/><path d="M261.42939,160.69364c1.74845,0 3.30158,-0.3441 4.65941,-1.03232c1.35783,-0.68822 2.49245,-1.64613 3.40388,-2.87375c0.91141,-1.24623 1.58102,-2.65055 2.00884,-4.21299c0.44642,-1.58102 0.66963,-3.25506 0.66963,-5.0221c0,-2.38085 -0.40921,-4.56639 -1.22762,-6.55662c-0.81841,-1.99023 -2.04605,-3.58057 -3.68287,-4.771c-1.61825,-1.20903 -3.56199,-1.81354 -5.83124,-1.81354c-2.26923,0 -4.22225,0.60451 -5.85909,1.81354c-1.61825,1.19042 -2.83658,2.78075 -3.65499,4.771c-0.81841,1.99023 -1.22762,4.17578 -1.22762,6.55662c0,3.73868 0.92072,6.86353 2.76216,9.37459c1.86002,2.51104 4.51988,3.76657 7.97955,3.76657zM261.42939,168.58949c-3.79447,0 -7.18903,-0.92072 -10.18367,-2.76215c-2.97608,-1.86004 -5.30114,-4.39899 -6.97516,-7.61685c-1.65542,-3.21787 -2.48313,-6.77053 -2.48313,-10.65801c0,-2.95746 0.47431,-5.71961 1.42292,-8.28646c0.94861,-2.56684 2.29714,-4.80819 4.04558,-6.72403c1.76702,-1.91584 3.85027,-3.39456 6.24971,-4.43618c2.39944,-1.06023 5.04069,-1.59033 7.92374,-1.59033c2.82728,0 5.44992,0.54871 7.86795,1.64613c2.43666,1.07882 4.52921,2.57615 6.27763,4.49199c1.74845,1.91584 3.10627,4.15719 4.07349,6.72403c0.96721,2.56684 1.45083,5.29181 1.45083,8.17486c0,2.92026 -0.46501,5.66382 -1.39504,8.23066c-0.93,2.54825 -2.28782,4.78959 -4.07346,6.72403c-1.76705,1.93444 -3.8596,3.43177 -6.27763,4.49199c-2.41806,1.06021 -5.05931,1.59033 -7.92378,1.59033z"/><path d="M178.335,163.79057v-32.11354c0,-1.37642 0.39062,-2.46454 1.17183,-3.26437c0.78122,-0.79981 1.87865,-1.19973 3.29229,-1.19973h10.1c2.73425,0 5.22669,0.57661 7.47734,1.72984c2.26924,1.13462 4.02699,2.74355 5.2732,4.8268c1.26483,2.06464 1.89725,4.42688 1.89725,7.08674c0,2.06464 -0.38131,3.94328 -1.14392,5.63591c-0.74402,1.67404 -1.76705,3.09696 -3.06908,4.26879c-1.28342,1.17182 -2.79934,2.07394 -4.54779,2.70636c-1.74845,0.63242 -3.58988,0.94862 -5.52429,0.94862h-6.36132v9.37459c0,1.41363 -0.39992,2.51104 -1.19974,3.29226c-0.7812,0.76261 -1.80421,1.14391 -3.06904,1.14391c-1.24623,0 -2.27855,-0.3906 -3.09696,-1.17182c-0.79984,-0.79982 -1.19974,-1.88794 -1.19974,-3.26437zM186.9005,134.74611v12.10884h5.83121c1.74845,0 3.16206,-0.56731 4.24087,-1.70193c1.09741,-1.13462 1.64613,-2.58545 1.64613,-4.35249c0,-1.13462 -0.2418,-2.15764 -0.72541,-3.06906c-0.48361,-0.93002 -1.17182,-1.65543 -2.06463,-2.17624c-0.89281,-0.53942 -1.92513,-0.80911 -3.09696,-0.80911z"/><path d="M339.49227,164.31365v-28.70966h-6.22182c-1.26483,0 -2.23205,-0.38131 -2.90166,-1.14392c-0.66961,-0.78122 -1.00443,-1.71125 -1.00443,-2.79008c0,-0.66961 0.16741,-1.31132 0.50221,-1.92513c0.31621,-0.61381 0.77191,-1.09741 1.36713,-1.45083c0.61381,-0.372 1.29273,-0.55801 2.03674,-0.55801h21.00911c0.74402,0 1.41363,0.186 2.00884,0.55801c0.61381,0.35342 1.07882,0.83703 1.39503,1.45083c0.3348,0.61381 0.50221,1.25551 0.50221,1.92513c0,1.07883 -0.32551,2.00885 -0.97652,2.79008c-0.65101,0.76261 -1.62754,1.14392 -2.92955,1.14392h-6.22182v28.70966c0,1.41363 -0.3999,2.51107 -1.19973,3.29229c-0.78122,0.76261 -1.80423,1.14392 -3.06906,1.14392c-1.28342,0 -2.32504,-0.38131 -3.12487,-1.14392c-0.78122,-0.78122 -1.17182,-1.87865 -1.17182,-3.29229z"/><path d="M287.7143,152.23274v-20.39533c0,-1.39503 0.3999,-2.48315 1.19973,-3.26438c0.79982,-0.7812 1.82284,-1.17179 3.06906,-1.17179c1.28342,0 2.31574,0.3906 3.09696,1.17179c0.79982,0.76264 1.19973,1.85076 1.19973,3.26438v19.94891c0,1.76702 0.3534,3.36665 1.06021,4.79888c0.70681,1.41363 1.72984,2.53895 3.06906,3.37596c1.35783,0.83703 2.91096,1.25554 4.65939,1.25554c2.54825,0 4.6408,-0.93002 6.27763,-2.79004c1.65543,-1.86005 2.48315,-4.07349 2.48315,-6.64033v-19.94891c0,-1.39503 0.3999,-2.48315 1.19973,-3.26438c0.79982,-0.7812 1.82284,-1.17179 3.06906,-1.17179c1.28342,0 2.31574,0.3906 3.09696,1.17179c0.79982,0.76264 1.19973,1.85076 1.19973,3.26438v20.39533c0,2.34364 -0.4464,4.54777 -1.33922,6.61241c-0.89282,2.04603 -2.13905,3.84096 -3.73868,5.38479c-1.59963,1.54383 -3.45036,2.74355 -5.55221,3.59916c-2.10185,0.85564 -4.33388,1.28345 -6.69614,1.28345c-3.14346,0 -6.04512,-0.72541 -8.70497,-2.17624c-2.65986,-1.46945 -4.771,-3.48757 -6.33343,-6.05442c-1.54383,-2.58546 -2.31574,-5.46852 -2.31574,-8.64917z"/><path d="M108.47221,164.31365l-7.25414,-31.2207c-0.16739,-0.61381 -0.25109,-1.25553 -0.25109,-1.92517c0,-0.98581 0.38131,-1.86002 1.14392,-2.62263c0.76261,-0.76261 1.73913,-1.14392 2.92955,-1.14392c2.47385,0 3.99908,1.36712 4.5757,4.10137l4.85469,24.27345h0.11162l7.42155,-25.02678c0.3348,-1.04161 0.90211,-1.86002 1.70193,-2.45525c0.79981,-0.59519 1.72054,-0.89279 2.76216,-0.89279c1.04162,0 1.96234,0.2976 2.76216,0.89279c0.81841,0.59522 1.38572,1.41363 1.70193,2.45525l7.42155,25.02678h0.11162l4.85469,-24.27345c0.26041,-1.33922 0.75331,-2.35294 1.47872,-3.04117c0.72541,-0.70681 1.75773,-1.06021 3.09696,-1.06021c1.20903,0 2.18555,0.38131 2.92955,1.14392c0.74402,0.76261 1.11602,1.63683 1.11602,2.62263c0,0.63242 -0.07441,1.27413 -0.22321,1.92517l-7.25414,31.2207c-0.2976,1.28342 -0.93932,2.34364 -1.92514,3.18067c-0.96721,0.83703 -2.21344,1.25554 -3.73868,1.25554c-1.35783,0 -2.54825,-0.39062 -3.57127,-1.17183c-1.02302,-0.78122 -1.72054,-1.77634 -2.09255,-2.98537l-6.61243,-22.06932h-0.11159l-6.64033,22.06932c-0.3534,1.20903 -1.04162,2.20415 -2.06464,2.98537c-1.02302,0.78122 -2.22274,1.17183 -3.59916,1.17183c-1.50663,0 -2.75286,-0.41851 -3.73868,-1.25554c-0.96721,-0.83703 -1.59963,-1.89725 -1.89723,-3.18067z"/></g></g></g></svg>