<svg version="1.1" xmlns="http://www.w3.org/2000/svg" xmlns:xlink="http://www.w3.org/1999/xlink" width="62.02974" height="62.02975" viewBox="0,0,62.02974,62.02975"><defs><radialGradient cx="224.15758" cy="167.27029" r="17.69286" gradientUnits="userSpaceOnUse" id="color-1"><stop offset="0" stop-color="#333333" stop-opacity="0.30196"/><stop offset="1" stop-color="#333333" stop-opacity="0"/></radialGradient><radialGradient cx="224.15757" cy="190.16431" r="17.69286" gradientUnits="userSpaceOnUse" id="color-2"><stop offset="0" stop-color="#333333" stop-opacity="0.30196"/><stop offset="1" stop-color="#333333" stop-opacity="0"/></radialGradient><radialGradient cx="250.80159" cy="193.9143" r="17.69286" gradientUnits="userSpaceOnUse" id="color-3"><stop offset="0" stop-color="#333333" stop-opacity="0.30196"/><stop offset="1" stop-color="#333333" stop-opacity="0"/></radialGradient><radialGradient cx="250.80158" cy="167.2703" r="17.69286" gradientUnits="userSpaceOnUse" id="color-4"><stop offset="0" stop-color="#333333" stop-opacity="0.30196"/><stop offset="1" stop-color="#333333" stop-opacity="0"/></radialGradient><linearGradient x1="243.85285" y1="195.15569" x2="262.12503" y2="195.15569" gradientUnits="userSpaceOnUse" id="color-5"><stop offset="0" stop-color="#ff0000"/><stop offset="1" stop-color="#ff8080"/></linearGradient><linearGradient x1="234.43125" y1="157.37352" x2="234.43125" y2="188.49335" gradientUnits="userSpaceOnUse" id="color-6"><stop offset="0" stop-color="#ff8080"/><stop offset="1" stop-color="#ff0000"/></linearGradient><linearGradient x1="243.85285" y1="164.09431" x2="262.12503" y2="164.09431" gradientUnits="userSpaceOnUse" id="color-7"><stop offset="0" stop-color="#ff8080"/><stop offset="1" stop-color="#ff0000"/></linearGradient></defs><g transform="translate(-206.46471,-149.57744)"><g data-paper-data="{&quot;isPaintingLayer&quot;:true}" fill-rule="nonzero" stroke-linejoin="miter" stroke-miterlimit="10" stroke-dasharray="" stroke-dashoffset="0" style="mix-blend-mode: normal"><path d="M211.64683,179.78104c-6.90949,-6.90949 -6.90949,-18.11199 0,-25.02148c6.90949,-6.90949 18.112,-6.9095 25.02149,-0.00001c6.90949,6.90949 6.90949,18.11201 0,25.0215c-6.90949,6.90949 -18.112,6.90948 -25.02149,-0.00001z" fill="url(#color-1)" stroke="#000000" stroke-width="0" stroke-linecap="butt"/><path d="M236.66832,202.67506c-6.90949,6.90949 -18.11199,6.90949 -25.02149,0c-6.90949,-6.90949 -6.9095,-18.112 0,-25.02149c6.90949,-6.90949 18.11201,-6.90949 25.0215,0c6.90949,6.90949 6.90948,18.112 -0.00001,25.02149z" fill="url(#color-2)" stroke="#000000" stroke-width="0" stroke-linecap="butt"/><path d="M238.29084,206.42506c-6.90949,-6.90949 -6.90949,-18.11199 0,-25.02148c6.90949,-6.90949 18.112,-6.9095 25.02149,-0.00001c6.90949,6.90949 6.90949,18.11201 0,25.0215c-6.90949,6.90949 -18.112,6.90949 -25.02149,-0.00001z" fill="url(#color-3)" stroke="#000000" stroke-width="0" stroke-linecap="butt"/><path d="M263.31233,179.78105c-6.90949,6.90949 -18.11199,6.90949 -25.02149,0c-6.90949,-6.90949 -6.9095,-18.112 -0.00001,-25.02149c6.90949,-6.90949 18.112,-6.90949 25.0215,0c6.90949,6.90949 6.90949,18.112 0,25.02149z" fill="url(#color-4)" stroke="#000000" stroke-width="0" stroke-linecap="butt"/><path d="M252.98894,184.79511c5.04573,0 9.13609,4.63859 9.13609,10.36058c0,5.72199 -4.09037,10.36058 -9.13609,10.36058c-5.04573,0 -9.13609,-4.63859 -9.13609,-10.36058c0,-5.72199 4.09037,-10.36058 9.13609,-10.36058z" fill="url(#color-5)" stroke="none" stroke-width="0" stroke-linecap="butt"/><path d="M250.41941,188.49335h-36.54438l4.56805,-31.11982h31.11982" fill="none" stroke="url(#color-6)" stroke-width="7.5" stroke-linecap="round"/><path d="M252.98894,153.73373c5.04573,0 9.13609,4.63859 9.13609,10.36058c0,5.72199 -4.09037,10.36058 -9.13609,10.36058c-5.04573,0 -9.13609,-4.63859 -9.13609,-10.36058c0,-5.72199 4.09037,-10.36058 9.13609,-10.36058z" fill="url(#color-7)" stroke="none" stroke-width="0" stroke-linecap="butt"/><path d="M248.04911,192.8081c-0.0317,-2.31081 1.75842,-4.21314 3.99835,-4.24895c2.23994,-0.03581 4.08144,1.80845 4.11315,4.11927c0.0317,2.31081 -1.75842,4.21314 -3.99836,4.24895c-2.23993,0.03581 -4.08143,-1.80846 -4.11314,-4.11927z" fill="#000000" stroke="#910000" stroke-width="0" stroke-linecap="butt"/><path d="M247.93797,166.92808c-0.0317,-2.31081 1.75843,-4.21315 3.99835,-4.24896c2.23993,-0.03581 4.08144,1.80844 4.11314,4.11927c0.0317,2.31081 -1.75842,4.21315 -3.99836,4.24896c-2.23993,0.03581 -4.08143,-1.80846 -4.11314,-4.11927z" fill="#000000" stroke="#910000" stroke-width="0" stroke-linecap="butt"/></g></g></svg>