<svg version="1.1" xmlns="http://www.w3.org/2000/svg" xmlns:xlink="http://www.w3.org/1999/xlink" width="449.26533" height="326.3855" viewBox="0,0,449.26533,326.3855"><g transform="translate(-13.13371,-11.22138)"><g data-paper-data="{&quot;isPaintingLayer&quot;:true}" fill-rule="nonzero" stroke-linecap="butt" stroke-linejoin="miter" stroke-miterlimit="10" stroke-dasharray="" stroke-dashoffset="0" style="mix-blend-mode: normal"><path d="M70.50001,131.16357v-25.04544h25.04544v25.04544z" fill="#d4d4d4" stroke="#000000" stroke-width="1.5"/><path d="M99.99799,130.607v-25.04544h25.04544v25.04544z" fill="#d4d4d4" stroke="#000000" stroke-width="1.5"/><path d="M130.05253,131.16357v-25.04544h25.04545v25.04544z" fill="#d4d4d4" stroke="#000000" stroke-width="1.5"/><path d="M70.50001,159.5484v-25.04544h25.04544v25.04544z" fill="#ff0000" stroke="#000000" stroke-width="1.5"/><path d="M99.99799,158.99184v-25.04544h25.04544v25.04544z" fill="#d4d4d4" stroke="#000000" stroke-width="1.5"/><path d="M130.05253,159.5484v-25.04544h25.04545v25.04544z" fill="#d4d4d4" stroke="#000000" stroke-width="1.5"/><text transform="translate(48.57085,127.88812) scale(0.625,0.625)" font-size="40" xml:space="preserve" fill="#000000" fill-rule="nonzero" stroke="none" stroke-width="1" stroke-linecap="butt" stroke-linejoin="miter" stroke-miterlimit="10" stroke-dasharray="" stroke-dashoffset="0" font-family="Sans Serif" font-weight="normal" text-anchor="start" style="mix-blend-mode: normal"><tspan x="0" dy="0">0</tspan><tspan x="0" dy="46.15px">1</tspan><tspan x="0" dy="46.15px">2</tspan><tspan x="0" dy="46.15px">3</tspan><tspan x="0" dy="46.15px">4</tspan><tspan x="0" dy="46.15px">5</tspan><tspan x="0" dy="46.15px">6</tspan><tspan x="0" dy="46.15px">7</tspan></text><path d="M71.50001,188.16357v-25.04544h25.04544v25.04544z" fill="#d4d4d4" stroke="#000000" stroke-width="1.5"/><path d="M100.99799,187.607v-25.04544h25.04544v25.04544z" fill="#ff0000" stroke="#000000" stroke-width="1.5"/><path d="M131.05253,188.16357v-25.04544h25.04545v25.04545z" fill="#d4d4d4" stroke="#000000" stroke-width="1.5"/><path d="M71.50001,216.5484v-25.04544h25.04544v25.04544z" fill="#d4d4d4" stroke="#000000" stroke-width="1.5"/><path d="M100.99799,215.99184v-25.04544h25.04544v25.04544z" fill="#d4d4d4" stroke="#000000" stroke-width="1.5"/><path d="M131.05253,216.5484v-25.04544h25.04545v25.04544z" fill="#ff0000" stroke="#000000" stroke-width="1.5"/><path d="M71.50001,245.16357v-25.04544h25.04544v25.04544z" fill="#ff0000" stroke="#000000" stroke-width="1.5"/><path d="M100.99799,244.607v-25.04544h25.04544v25.04544z" fill="#ff0000" stroke="#000000" stroke-width="1.5"/><path d="M131.05253,245.16357v-25.04544h25.04545v25.04545z" fill="#d4d4d4" stroke="#000000" stroke-width="1.5"/><path d="M71.50001,274.5484v-25.04544h25.04544v25.04544z" fill="#ff0000" stroke="#000000" stroke-width="1.5"/><path d="M100.99799,273.99184v-25.04544h25.04544v25.04544z" fill="#d4d4d4" stroke="#000000" stroke-width="1.5"/><path d="M131.05253,274.5484v-25.04544h25.04545v25.04544z" fill="#ff0000" stroke="#000000" stroke-width="1.5"/><path d="M72.50001,305.16357v-25.04544h25.04544v25.04544z" fill="#d4d4d4" stroke="#000000" stroke-width="1.5"/><path d="M101.99799,304.607v-25.04544h25.04544v25.04544z" fill="#ff0000" stroke="#000000" stroke-width="1.5"/><path d="M132.05253,305.16357v-25.04544h25.04545v25.04545z" fill="#ff0000" stroke="#000000" stroke-width="1.5"/><path d="M72.50001,333.5484v-25.04544h25.04544v25.04544z" fill="#ff0000" stroke="#000000" stroke-width="1.5"/><path d="M101.99799,332.99184v-25.04544h25.04544v25.04544z" fill="#ff0000" stroke="#000000" stroke-width="1.5"/><path d="M132.05253,333.5484v-25.04544h25.04545v25.04544z" fill="#ff0000" stroke="#000000" stroke-width="1.5"/><text transform="translate(191.50003,204.56156) scale(0.5,0.5)" font-size="40" xml:space="preserve" fill="#000000" fill-rule="nonzero" stroke="none" stroke-width="1" stroke-linecap="butt" stroke-linejoin="miter" stroke-miterlimit="10" stroke-dasharray="" stroke-dashoffset="0" font-family="Sans Serif" font-weight="normal" text-anchor="start" style="mix-blend-mode: normal"><tspan x="0" dy="0">1000 tile map</tspan></text><text transform="translate(181.00003,260.06156) scale(0.5,0.5)" font-size="40" xml:space="preserve" fill="#000000" fill-rule="nonzero" stroke="none" stroke-width="1" stroke-linecap="butt" stroke-linejoin="miter" stroke-miterlimit="10" stroke-dasharray="" stroke-dashoffset="0" font-family="Sans Serif" font-weight="normal" text-anchor="start" style="mix-blend-mode: normal"><tspan x="0" dy="0">25x50 tile map = 1250</tspan><tspan x="0" dy="46.15px">1250/3 = 416 max</tspan></text><text transform="translate(13.4922,26.81548) scale(0.35849,0.35849)" font-size="40" xml:space="preserve" fill="#000000" fill-rule="nonzero" stroke="none" stroke-width="1" stroke-linecap="butt" stroke-linejoin="miter" stroke-miterlimit="10" stroke-dasharray="" stroke-dashoffset="0" font-family="Sans Serif" font-weight="normal" text-anchor="start" style="mix-blend-mode: normal"><tspan x="0" dy="0">Trying to create a system where we can store more data using</tspan><tspan x="0" dy="48px">fewer numbers. By using all the numbers 0-9 we would be able to</tspan><tspan x="0" dy="48px">store multiple tiles by using a set of combinations like here.</tspan><tspan x="0" dy="48px">So 4 would represent two colored tiles followed by a blank one.</tspan></text></g></g></svg>