<svg version="1.1" xmlns="http://www.w3.org/2000/svg" xmlns:xlink="http://www.w3.org/1999/xlink" width="483.25" height="360" viewBox="0,0,483.25,360"><defs><radialGradient cx="240.00013" cy="180" r="240.33333" gradientUnits="userSpaceOnUse" id="color-1"><stop offset="0" stop-color="#bbb1a4"/><stop offset="1" stop-color="#7d7694"/></radialGradient><radialGradient cx="233.33341" cy="34.5" r="24" gradientUnits="userSpaceOnUse" id="color-2"><stop offset="0" stop-color="#68de4b" stop-opacity="0.6"/><stop offset="1" stop-color="#d8ff96" stop-opacity="0.5098"/></radialGradient><radialGradient cx="116.73946" cy="291.75225" r="16.49249" gradientUnits="userSpaceOnUse" id="color-3"><stop offset="0" stop-color="#68de4b" stop-opacity="0.6"/><stop offset="1" stop-color="#d8ff96" stop-opacity="0.5098"/></radialGradient><radialGradient cx="376.4842" cy="206.66216" r="16.4925" gradientUnits="userSpaceOnUse" id="color-4"><stop offset="0" stop-color="#68de4b" stop-opacity="0.6"/><stop offset="1" stop-color="#d8ff96" stop-opacity="0.5098"/></radialGradient><radialGradient cx="36.64937" cy="97.54805" r="16.4925" gradientUnits="userSpaceOnUse" id="color-5"><stop offset="0" stop-color="#68de4b" stop-opacity="0.6"/><stop offset="1" stop-color="#d8ff96" stop-opacity="0.5098"/></radialGradient><radialGradient cx="418.54267" cy="324.69051" r="16.4925" gradientUnits="userSpaceOnUse" id="color-6"><stop offset="0" stop-color="#68de4b" stop-opacity="0.6"/><stop offset="1" stop-color="#d8ff96" stop-opacity="0.5098"/></radialGradient><radialGradient cx="231.87989" cy="190.75522" r="16.4925" gradientUnits="userSpaceOnUse" id="color-7"><stop offset="0" stop-color="#68de4b" stop-opacity="0.6"/><stop offset="1" stop-color="#d8ff96" stop-opacity="0.5098"/></radialGradient><radialGradient cx="324.93766" cy="84.03454" r="16.4925" gradientUnits="userSpaceOnUse" id="color-8"><stop offset="0" stop-color="#68de4b" stop-opacity="0.6"/><stop offset="1" stop-color="#d8ff96" stop-opacity="0.5098"/></radialGradient><radialGradient cx="298.89392" cy="108.66216" r="11.4925" gradientUnits="userSpaceOnUse" id="color-9"><stop offset="0" stop-color="#68de4b" stop-opacity="0.6"/><stop offset="1" stop-color="#d8ff96" stop-opacity="0.5098"/></radialGradient><radialGradient cx="87.94172" cy="272.76781" r="11.49249" gradientUnits="userSpaceOnUse" id="color-10"><stop offset="0" stop-color="#68de4b" stop-opacity="0.6"/><stop offset="1" stop-color="#d8ff96" stop-opacity="0.5098"/></radialGradient><radialGradient cx="356.77587" cy="194.66216" r="10.4925" gradientUnits="userSpaceOnUse" id="color-11"><stop offset="0" stop-color="#68de4b" stop-opacity="0.6"/><stop offset="1" stop-color="#d8ff96" stop-opacity="0.5098"/></radialGradient><radialGradient cx="347.9043" cy="213.53372" r="10.4925" gradientUnits="userSpaceOnUse" id="color-12"><stop offset="0" stop-color="#68de4b" stop-opacity="0.6"/><stop offset="1" stop-color="#d8ff96" stop-opacity="0.5098"/></radialGradient></defs><g transform="translate(2.75,0)"><g data-paper-data="{&quot;isPaintingLayer&quot;:true}" fill-rule="nonzero" stroke-linejoin="miter" stroke-miterlimit="10" stroke-dasharray="" stroke-dashoffset="0" style="mix-blend-mode: normal"><path d="M-0.33325,360v-360h480.66667v360z" fill="url(#color-1)" stroke="#000000" stroke-width="0" stroke-linecap="butt"/><path d="M2,330h476" fill="none" stroke-opacity="0.20392" stroke="#000000" stroke-width="5" stroke-linecap="round"/><path d="M2,270h476" fill="none" stroke-opacity="0.20392" stroke="#000000" stroke-width="5" stroke-linecap="round"/><path d="M2,210h476" fill="none" stroke-opacity="0.20392" stroke="#000000" stroke-width="5" stroke-linecap="round"/><path d="M2,150h476" fill="none" stroke-opacity="0.20392" stroke="#000000" stroke-width="5" stroke-linecap="round"/><path d="M2,90h476" fill="none" stroke-opacity="0.20392" stroke="#000000" stroke-width="5" stroke-linecap="round"/><path d="M2,30h476" fill="none" stroke-opacity="0.20392" stroke="#000000" stroke-width="5" stroke-linecap="round"/><path d="M240,209v-58" fill="none" stroke-opacity="0.20392" stroke="#000000" stroke-width="5" stroke-linecap="round"/><path d="M240,89v-58" fill="none" stroke-opacity="0.20392" stroke="#000000" stroke-width="5" stroke-linecap="round"/><path d="M240,329v-58" fill="none" stroke-opacity="0.20392" stroke="#000000" stroke-width="5" stroke-linecap="round"/><path d="M300,269v-58" fill="none" stroke-opacity="0.20392" stroke="#000000" stroke-width="5" stroke-linecap="round"/><path d="M300,149v-58" fill="none" stroke-opacity="0.20392" stroke="#000000" stroke-width="5" stroke-linecap="round"/><path d="M300.5,357v-26" fill="none" stroke-opacity="0.20392" stroke="#000000" stroke-width="5" stroke-linecap="round"/><path d="M300.5,29v-26" fill="none" stroke-opacity="0.20392" stroke="#000000" stroke-width="5" stroke-linecap="round"/><path d="M360,209v-58" fill="none" stroke-opacity="0.20392" stroke="#000000" stroke-width="5" stroke-linecap="round"/><path d="M360,89v-58" fill="none" stroke-opacity="0.20392" stroke="#000000" stroke-width="5" stroke-linecap="round"/><path d="M360,329v-58" fill="none" stroke-opacity="0.20392" stroke="#000000" stroke-width="5" stroke-linecap="round"/><path d="M420,211v58" fill="none" stroke-opacity="0.20392" stroke="#000000" stroke-width="5" stroke-linecap="round"/><path d="M420,91v58" fill="none" stroke-opacity="0.20392" stroke="#000000" stroke-width="5" stroke-linecap="round"/><path d="M420.5,357v-26" fill="none" stroke-opacity="0.20392" stroke="#000000" stroke-width="5" stroke-linecap="round"/><path d="M420.5,29v-26" fill="none" stroke-opacity="0.20392" stroke="#000000" stroke-width="5" stroke-linecap="round"/><path d="M-0.25,209v-58" fill="none" stroke-opacity="0.20392" stroke="#000000" stroke-width="5" stroke-linecap="round"/><path d="M-0.25,89v-58" fill="none" stroke-opacity="0.20392" stroke="#000000" stroke-width="5" stroke-linecap="round"/><path d="M-0.25,329v-58" fill="none" stroke-opacity="0.20392" stroke="#000000" stroke-width="5" stroke-linecap="round"/><path d="M59.75,211v58" fill="none" stroke-opacity="0.20392" stroke="#000000" stroke-width="5" stroke-linecap="round"/><path d="M59.75,91v58" fill="none" stroke-opacity="0.20392" stroke="#000000" stroke-width="5" stroke-linecap="round"/><path d="M60.25,357v-26" fill="none" stroke-opacity="0.20392" stroke="#000000" stroke-width="5" stroke-linecap="round"/><path d="M60.25,29v-26" fill="none" stroke-opacity="0.20392" stroke="#000000" stroke-width="5" stroke-linecap="round"/><path d="M119.75,209v-58" fill="none" stroke-opacity="0.20392" stroke="#000000" stroke-width="5" stroke-linecap="round"/><path d="M119.75,89v-58" fill="none" stroke-opacity="0.20392" stroke="#000000" stroke-width="5" stroke-linecap="round"/><path d="M119.75,329v-58" fill="none" stroke-opacity="0.20392" stroke="#000000" stroke-width="5" stroke-linecap="round"/><path d="M179.75,269v-58" fill="none" stroke-opacity="0.20392" stroke="#000000" stroke-width="5" stroke-linecap="round"/><path d="M179.75,149v-58" fill="none" stroke-opacity="0.20392" stroke="#000000" stroke-width="5" stroke-linecap="round"/><path d="M180.25,357v-26" fill="none" stroke-opacity="0.20392" stroke="#000000" stroke-width="5" stroke-linecap="round"/><path d="M180.25,29v-26" fill="none" stroke-opacity="0.20392" stroke="#000000" stroke-width="5" stroke-linecap="round"/><g stroke="none" stroke-width="0" stroke-linecap="butt"><path d="M225.16675,44.16667l-19.2542,5.11577l19.33901,-16.54163l-15.70471,-2.9399l11.75646,-2.75549l-11.4699,-16.54543l20,13.66666l7.52395,-10.63969l1.5394,13.56919l21.26999,-5.26283l-12.85792,13.10382l9.52459,23.56284l-18.66667,-21.33333l-0.10807,12.07254l-6.13847,-4.53543l-7.42013,13.79623z" fill="url(#color-2)"/><path d="M122.35148,285.10944l13.23124,-3.5155l-13.28952,11.3672l10.79208,2.02026l-8.07889,1.89354l7.88196,11.3698l-13.74374,-9.39156l-5.17036,7.31146l-1.05786,-9.32457l-14.61646,3.61655l8.8358,-9.00478l-6.54518,-16.19208l12.82749,14.65999l0.07426,-8.29609l4.21828,3.11669l5.09902,-9.48059z" data-paper-data="{&quot;index&quot;:null}" fill="url(#color-3)"/><path d="M382.09623,200.01935l13.23124,-3.5155l-13.28952,11.3672l10.79208,2.02026l-8.07889,1.89354l7.88197,11.3698l-13.74374,-9.39155l-5.17036,7.31146l-1.05786,-9.32458l-14.61647,3.61655l8.8358,-9.00478l-6.54517,-16.19209l12.82749,14.65999l0.07427,-8.29609l4.21828,3.11669l5.09902,-9.48059z" data-paper-data="{&quot;index&quot;:null}" fill="url(#color-4)"/><path d="M42.26139,90.90524l13.23124,-3.5155l-13.28952,11.3672l10.79208,2.02026l-8.07889,1.89354l7.88196,11.3698l-13.74374,-9.39156l-5.17036,7.31146l-1.05786,-9.32457l-14.61647,3.61655l8.8358,-9.00478l-6.54518,-16.19209l12.82749,14.66l0.07427,-8.2961l4.21828,3.11669l5.09902,-9.48059z" data-paper-data="{&quot;index&quot;:null}" fill="url(#color-5)"/><path d="M426.32273,320.80561l13.54366,1.99842l-16.69952,5.19138l9.11572,6.11998l-8.16969,-1.45262l2.74824,13.55894l-8.91469,-14.05774l-7.63852,4.67365l2.71249,-8.98382l-14.85611,-2.45291l11.67477,-4.78092l0.38513,-17.46067l5.99136,18.53546l3.34614,-7.59171l2.6436,4.5298l8.43004,-6.69447z" data-paper-data="{&quot;index&quot;:null}" fill="url(#color-6)"/><path d="M232.75574,182.10336l8.92904,-10.3777l-4.53986,16.88829l10.04518,-4.43225l-5.59498,6.12782l12.92807,4.92572l-16.64606,0.01902l-0.13359,8.95389l-6.14237,-7.09494l-10.01474,11.24391l2.20063,-12.42235l-14.55046,-9.65956l18.86753,4.84524l-4.62713,-6.88625l5.24142,0.18738l-1.15111,-10.70311z" data-paper-data="{&quot;index&quot;:null}" fill="url(#color-7)"/><path d="M330.54968,77.39173l13.23124,-3.5155l-13.28952,11.3672l10.79208,2.02026l-8.07889,1.89354l7.88196,11.3698l-13.74374,-9.39155l-5.17036,7.31146l-1.05786,-9.32458l-14.61647,3.61655l8.8358,-9.00478l-6.54518,-16.19209l12.82749,14.65999l0.07427,-8.29609l4.21828,3.11669l5.09902,-9.48059z" data-paper-data="{&quot;index&quot;:null}" fill="url(#color-8)"/><path d="M302.80456,104.03324l9.21995,-2.44971l-9.26056,7.92103l7.52026,1.40778l-5.62963,1.31948l5.49241,7.92284l-9.57708,-6.54433l-3.60287,5.09486l-0.73715,-6.49766l-10.18522,2.52013l6.15707,-6.27482l-4.56088,-11.28316l8.9386,10.21555l0.05175,-5.78098l2.93943,2.17181l3.55316,-6.60638z" data-paper-data="{&quot;index&quot;:null}" fill="url(#color-9)"/><path d="M87.04725,266.77448l4.24771,-8.54198l-0.16535,12.18496l6.02261,-4.71851l-2.72603,5.09927l9.57677,1.1061l-11.23838,2.87182l1.44761,6.06982l-5.36671,-3.7365l-4.83215,9.31343l-0.64739,-8.76719l-11.48546,-4.02439l13.57405,0.03165l-4.30757,-3.8558l3.57189,-0.77368l-2.61565,-7.03047z" data-paper-data="{&quot;index&quot;:null}" fill="url(#color-10)"/><path d="M360.34623,190.43601l8.41769,-2.23655l-8.45477,7.23179l6.8659,1.28529l-5.13977,1.20467l5.01449,7.23345l-8.74374,-5.97489l-3.28937,4.65154l-0.67301,-5.93228l-9.29897,2.30084l5.62132,-5.72882l-4.16403,-10.30138l8.16083,9.32666l0.04725,-5.27796l2.68366,1.98283l3.24399,-6.03153z" data-paper-data="{&quot;index&quot;:null}" fill="url(#color-11)"/><path d="M352.13044,217.10408l2.23656,8.41769l-7.23179,-8.45476l-1.28528,6.8659l-1.20467,-5.13978l-7.23345,5.0145l5.97489,-8.74374l-4.65153,-3.28938l5.93228,-0.67301l-2.30084,-9.29897l5.72882,5.62132l10.30138,-4.16402l-9.32666,8.16082l5.27796,0.04725l-1.98284,2.68366l6.03153,3.24398z" data-paper-data="{&quot;index&quot;:null}" fill="url(#color-12)"/></g></g></g></svg>