<svg version="1.1" xmlns="http://www.w3.org/2000/svg" xmlns:xlink="http://www.w3.org/1999/xlink" width="48.52636" height="65.50358" viewBox="0,0,48.52636,65.50358"><defs><radialGradient cx="240.00004" cy="180" r="30.98449" gradientUnits="userSpaceOnUse" id="color-1"><stop offset="0" stop-color="#800000"/><stop offset="1" stop-color="#ff0000"/></radialGradient></defs><g transform="translate(-222.45816,-149.01551)"><g data-paper-data="{&quot;isPaintingLayer&quot;:true}" fill-rule="nonzero" stroke="#000000" stroke-width="0" stroke-linecap="butt" stroke-linejoin="miter" stroke-miterlimit="10" stroke-dasharray="" stroke-dashoffset="0" style="mix-blend-mode: normal"><path d="M243.52346,199.30104c0,0 -6.54964,-17.41389 -3.9919,-35.38132c0.38716,-1.06561 0.30586,-2.21567 0.30586,-3.41505c0,-0.47136 -0.03261,-0.93511 -0.0957,-1.38909c0.06309,-0.45399 0.0957,-0.91773 0.0957,-1.38909c0,-0.37061 -0.02016,-0.7365 -0.05944,-1.09665c0.03929,-0.36015 0.05944,-0.72604 0.05944,-1.09665c0,-0.63946 -0.06002,-1.26491 -0.17474,-1.87101c0.0189,-0.25117 0.02852,-0.50494 0.02852,-0.76095c0,-0.17163 -0.00432,-0.34226 -0.01287,-0.51177c0.00855,-0.16951 0.01287,-0.34014 0.01287,-0.51177c0,-0.12237 -0.00219,-0.24424 -0.00655,-0.36555c0.00436,-0.12131 0.00655,-0.24318 0.00655,-0.36555c0,-0.09782 -0.0014,-0.1953 -0.00419,-0.29244c0.00279,-0.09714 0.00419,-0.19462 0.00419,-0.29244c0,-0.6263 -0.31747,-1.5462 0.30883,-1.5462c17.11227,0 30.98449,13.87223 30.98449,30.98449c0,17.11227 -13.14417,30.22321 -30.25339,30.39961c-1.17429,-0.29244 2.79233,-11.09857 2.79233,-11.09857z" fill="url(#color-1)"/><path d="M264.43954,204.43952l-24.43951,10.07957v-34.51909z" data-paper-data="{&quot;index&quot;:null}" fill="#1a1a1a"/><path d="M222.45816,180c0,-9.68811 7.85377,-17.54188 17.54188,-17.54188c9.68811,0 17.54188,7.85377 17.54188,17.54188c0,9.68811 -7.85377,17.54188 -17.54188,17.54188c-9.68811,0 -17.54188,-7.85377 -17.54188,-17.54188z" fill="#1a1a1a"/></g></g></svg>