<svg version="1.1" xmlns="http://www.w3.org/2000/svg" xmlns:xlink="http://www.w3.org/1999/xlink" width="91.29773" height="94.1054" viewBox="0,0,91.29773,94.1054"><defs><radialGradient cx="246.67239" cy="184.84031" r="30.47739" gradientUnits="userSpaceOnUse" id="color-1"><stop offset="0" stop-color="#ff0000" stop-opacity="0.6"/><stop offset="1" stop-color="#ff0000" stop-opacity="0"/></radialGradient><linearGradient x1="255.81687" y1="195.43086" x2="273.82536" y2="177.42237" gradientUnits="userSpaceOnUse" id="color-2"><stop offset="0" stop-color="#000000"/><stop offset="1" stop-color="#ff2e54"/></linearGradient><linearGradient x1="237.31694" y1="213.99761" x2="254.64675" y2="196.66781" gradientUnits="userSpaceOnUse" id="color-3"><stop offset="0" stop-color="#ff2e54"/><stop offset="1" stop-color="#000000"/></linearGradient><radialGradient cx="252.4839" cy="215.73268" r="17.77132" gradientUnits="userSpaceOnUse" id="color-4"><stop offset="0" stop-color="#ff0000" stop-opacity="0.6"/><stop offset="1" stop-color="#ff0000" stop-opacity="0"/></radialGradient><radialGradient cx="272.70435" cy="194.64699" r="17.77132" gradientUnits="userSpaceOnUse" id="color-5"><stop offset="0" stop-color="#ff0000" stop-opacity="0.6"/><stop offset="1" stop-color="#ff0000" stop-opacity="0"/></radialGradient><linearGradient x1="250.9153" y1="217.98328" x2="256.32152" y2="226.19411" gradientUnits="userSpaceOnUse" id="color-6"><stop offset="0" stop-color="#ff0000"/><stop offset="1" stop-color="#930000"/></linearGradient><linearGradient x1="256.81518" y1="222.72854" x2="261.20228" y2="229.39157" gradientUnits="userSpaceOnUse" id="color-7"><stop offset="0" stop-color="#8e0000"/><stop offset="1" stop-color="#ff0000"/></linearGradient><linearGradient x1="258.99695" y1="219.12369" x2="261.48172" y2="222.8975" gradientUnits="userSpaceOnUse" id="color-8"><stop offset="0" stop-color="#d60000"/><stop offset="1" stop-color="#600000"/></linearGradient><linearGradient x1="251.42225" y1="210.83591" x2="254.57484" y2="215.62399" gradientUnits="userSpaceOnUse" id="color-9"><stop offset="0" stop-color="#ff0000"/><stop offset="1" stop-color="#930000"/></linearGradient><radialGradient cx="253.17981" cy="213.86635" r="7.25902" gradientUnits="userSpaceOnUse" id="color-10"><stop offset="0" stop-color="#ff6060"/><stop offset="1" stop-color="#ff6060" stop-opacity="0"/></radialGradient><radialGradient cx="250.63213" cy="206.06624" r="4.54548" gradientUnits="userSpaceOnUse" id="color-11"><stop offset="0" stop-color="#ff6060"/><stop offset="1" stop-color="#ff6060" stop-opacity="0"/></radialGradient><linearGradient x1="278.00257" y1="191.60156" x2="286.38555" y2="196.73681" gradientUnits="userSpaceOnUse" id="color-12"><stop offset="0" stop-color="#ff0000"/><stop offset="1" stop-color="#930000"/></linearGradient><linearGradient x1="282.93794" y1="197.34335" x2="289.74067" y2="201.51057" gradientUnits="userSpaceOnUse" id="color-13"><stop offset="0" stop-color="#8e0000"/><stop offset="1" stop-color="#ff0000"/></linearGradient><linearGradient x1="279.40625" y1="199.64166" x2="283.25918" y2="202.00189" gradientUnits="userSpaceOnUse" id="color-14"><stop offset="0" stop-color="#d60000"/><stop offset="1" stop-color="#600000"/></linearGradient><linearGradient x1="270.87557" y1="192.34162" x2="275.76404" y2="195.33618" gradientUnits="userSpaceOnUse" id="color-15"><stop offset="0" stop-color="#ff0000"/><stop offset="1" stop-color="#930000"/></linearGradient><radialGradient cx="265.04228" cy="191.01247" r="4.89408" gradientUnits="userSpaceOnUse" id="color-16"><stop offset="0" stop-color="#ff6060"/><stop offset="1" stop-color="#ff6060" stop-opacity="0"/></radialGradient><radialGradient cx="273.70486" cy="194.36587" r="7.74575" gradientUnits="userSpaceOnUse" id="color-17"><stop offset="0" stop-color="#ff6060"/><stop offset="1" stop-color="#ff6060" stop-opacity="0"/></radialGradient><linearGradient x1="232.98139" y1="172.76018" x2="251.75756" y2="191.53635" gradientUnits="userSpaceOnUse" id="color-18"><stop offset="0" stop-color="#000000"/><stop offset="1" stop-color="#ff365a"/></linearGradient><linearGradient x1="202.3749" y1="141.22304" x2="239.77679" y2="178.62492" gradientUnits="userSpaceOnUse" id="color-19"><stop offset="0" stop-color="#ff4949"/><stop offset="1" stop-color="#cc0025"/></linearGradient><linearGradient x1="202.95107" y1="141.8864" x2="237.19063" y2="176.12596" gradientUnits="userSpaceOnUse" id="color-20"><stop offset="0" stop-color="#ffffff"/><stop offset="1" stop-color="#e30000"/></linearGradient><radialGradient cx="220.7343" cy="159.11268" r="14.54522" gradientUnits="userSpaceOnUse" id="color-21"><stop offset="0" stop-color="#ff5656"/><stop offset="1" stop-color="#ff5656" stop-opacity="0"/></radialGradient><radialGradient cx="216.48533" cy="167.61911" r="11.70179" gradientUnits="userSpaceOnUse" id="color-22"><stop offset="0" stop-color="#ff5656"/><stop offset="1" stop-color="#ff5656" stop-opacity="0"/></radialGradient><radialGradient cx="210.86531" cy="151.83367" r="10.60817" gradientUnits="userSpaceOnUse" id="color-23"><stop offset="0" stop-color="#ff6d6d"/><stop offset="1" stop-color="#ff6d6d" stop-opacity="0"/></radialGradient><radialGradient cx="217.14908" cy="176.43062" r="6.01495" gradientUnits="userSpaceOnUse" id="color-24"><stop offset="0" stop-color="#ff4e4e"/><stop offset="1" stop-color="#ff4e4e" stop-opacity="0"/></radialGradient><radialGradient cx="235.84959" cy="150.60628" r="6.01495" gradientUnits="userSpaceOnUse" id="color-25"><stop offset="0" stop-color="#ff4e4e"/><stop offset="1" stop-color="#ff4e4e" stop-opacity="0"/></radialGradient><radialGradient cx="212.43102" cy="176.24001" r="7.23803" gradientUnits="userSpaceOnUse" id="color-26"><stop offset="0" stop-color="#ff7e7e"/><stop offset="1" stop-color="#ff7e7e" stop-opacity="0"/></radialGradient><radialGradient cx="225.53917" cy="148.86266" r="4.87993" gradientUnits="userSpaceOnUse" id="color-27"><stop offset="0" stop-color="#ff8989"/><stop offset="1" stop-color="#ff8989" stop-opacity="0"/></radialGradient><radialGradient cx="220.43532" cy="150.25461" r="4.87993" gradientUnits="userSpaceOnUse" id="color-28"><stop offset="0" stop-color="#ff6060"/><stop offset="1" stop-color="#ff6060" stop-opacity="0"/></radialGradient><radialGradient cx="209.2042" cy="161.15974" r="4.53233" gradientUnits="userSpaceOnUse" id="color-29"><stop offset="0" stop-color="#ff7e7e"/><stop offset="1" stop-color="#ff7e7e" stop-opacity="0"/></radialGradient><radialGradient cx="234.8723" cy="150.83871" r="7.72334" gradientUnits="userSpaceOnUse" id="color-30"><stop offset="0" stop-color="#ff6060"/><stop offset="1" stop-color="#ff6060" stop-opacity="0"/></radialGradient><radialGradient cx="208.32162" cy="157.34925" r="3.00558" gradientUnits="userSpaceOnUse" id="color-31"><stop offset="0" stop-color="#ffb5b5"/><stop offset="1" stop-color="#ffb5b5" stop-opacity="0"/></radialGradient><radialGradient cx="244.90341" cy="152.39097" r="4.87992" gradientUnits="userSpaceOnUse" id="color-32"><stop offset="0" stop-color="#dc0000"/><stop offset="1" stop-color="#dc0000" stop-opacity="0"/></radialGradient><radialGradient cx="215.33681" cy="184.49647" r="4.87992" gradientUnits="userSpaceOnUse" id="color-33"><stop offset="0" stop-color="#dc0000"/><stop offset="1" stop-color="#dc0000" stop-opacity="0"/></radialGradient><radialGradient cx="212.22372" cy="152.32599" r="7.23802" gradientUnits="userSpaceOnUse" id="color-34"><stop offset="0" stop-color="#ff6060"/><stop offset="1" stop-color="#ff6060" stop-opacity="0"/></radialGradient><radialGradient cx="213.71161" cy="151.3363" r="4.53233" gradientUnits="userSpaceOnUse" id="color-35"><stop offset="0" stop-color="#ff6060"/><stop offset="1" stop-color="#ff6060" stop-opacity="0"/></radialGradient></defs><g transform="translate(-200.25714,-139.3986)"><g data-paper-data="{&quot;isPaintingLayer&quot;:true}" fill-rule="nonzero" stroke-width="0" stroke-linecap="butt" stroke-linejoin="miter" stroke-miterlimit="10" stroke-dasharray="" stroke-dashoffset="0" style="mix-blend-mode: normal"><path d="M268.22315,206.39107c-11.90216,11.90216 -31.19938,11.90216 -43.10153,0c-11.90216,-11.90216 -11.90217,-31.19938 0,-43.10153c11.90216,-11.90216 31.19938,-11.90216 43.10153,0c11.90216,11.90216 11.90216,31.19938 0,43.10153z" fill="url(#color-1)" stroke="none"/><path d="M269.70653,204.03669c-3.39064,-1.64556 -6.36183,-8.48921 -11.70744,-13.46797c-9.85805,-9.18156 -24.21069,-17.16633 -24.21069,-17.16633l4.45156,-2.8547c0,0 13.4964,8.48118 25.17133,12.40166c5.30753,1.78229 15.5016,1.6446 19.65678,4.26577c8.45013,5.33051 8.48681,16.5347 8.48681,16.5347c0,0 -11.55998,5.28002 -21.84835,0.28687z" fill="url(#color-2)" stroke="#ff0000"/><path d="M263.24519,231.3279c0,0 -11.20419,-0.03668 -16.5347,-8.48681c-2.62117,-4.15518 -2.48349,-14.34925 -4.26578,-19.65678c-3.92048,-11.67493 -12.40166,-25.17133 -12.40166,-25.17133l2.99044,-2.95842c0,0 9.19758,13.60777 18.51234,23.72023c4.64125,5.03871 10.53793,8.25478 12.09439,11.46185c4.99316,10.28835 -0.39502,21.09125 -0.39502,21.09125z" data-paper-data="{&quot;index&quot;:null}" fill="url(#color-3)" stroke="#ff0000"/><path d="M265.05013,228.2989c-6.94013,6.94013 -18.19231,6.94013 -25.13245,0c-6.94013,-6.94013 -6.94012,-18.19232 0,-25.13245c6.94013,-6.94013 18.19232,-6.94012 25.13245,0c6.94013,6.94013 6.94012,18.19231 0,25.13245z" fill="url(#color-4)" stroke="#000000"/><path d="M285.27058,207.21321c-6.94013,6.94013 -18.19231,6.94013 -25.13245,0c-6.94013,-6.94013 -6.94012,-18.19232 0,-25.13245c6.94013,-6.94013 18.19232,-6.94012 25.13245,0c6.94013,6.94013 6.94012,18.19231 0,25.13245z" fill="url(#color-5)" stroke="#000000"/><g stroke="none"><path d="M251.11238,223.73871c-1.49289,-2.26737 -1.58113,-4.84415 -0.19709,-5.75545c1.38404,-0.91128 3.71625,0.18802 5.20914,2.45539c1.49289,2.26737 1.58113,4.84416 0.19709,5.75545c-1.38404,0.91128 -3.71625,-0.18803 -5.20914,-2.4554z" fill="url(#color-6)"/><path d="M256.9751,227.39904c-1.21147,-1.83995 -1.28307,-3.93099 -0.15993,-4.6705c1.12314,-0.7395 3.0157,0.15259 4.22717,1.99253c1.21147,1.83995 1.28308,3.931 0.15994,4.6705c-1.12314,0.7395 -3.0157,-0.15259 -4.22718,-1.99253z" fill="url(#color-7)"/><path d="M259.08752,221.76897c-0.68614,-1.04211 -0.72671,-2.22643 -0.09058,-2.64527c0.63613,-0.41884 1.70803,0.08642 2.39418,1.12853c0.68614,1.04211 0.72672,2.22645 0.09059,2.64528c-0.63613,0.41884 -1.70804,-0.08641 -2.3942,-1.12854z" fill="url(#color-8)"/><path d="M251.53718,214.19214c-0.87056,-1.3222 -0.92201,-2.82482 -0.11492,-3.35623c0.8071,-0.53141 2.16709,0.10964 3.03765,1.43183c0.87056,1.3222 0.92202,2.82482 0.11492,3.35623c-0.8071,0.53141 -2.16709,-0.10965 -3.03765,-1.43183z" fill="url(#color-9)"/><path d="M247.11698,217.85825c-2.20468,-3.34842 -1.2775,-7.85006 2.07092,-10.05474c3.34842,-2.20468 7.85006,-1.27751 10.05473,2.07089c2.20468,3.34842 1.27751,7.85006 -2.0709,10.05474c-3.34842,2.20468 -7.85007,1.2775 -10.05475,-2.0709z" fill="url(#color-10)"/><path d="M246.83569,208.56591c-1.38053,-2.09671 -0.79995,-4.91559 1.29677,-6.29612c2.09671,-1.38053 4.91558,-0.79995 6.29611,1.29678c1.38053,2.09671 0.79995,4.91559 -1.29676,6.29613c-2.09671,1.38053 -4.91559,0.79994 -6.29612,-1.29678z" fill="url(#color-11)"/></g><g stroke="none"><path d="M286.38555,196.73681c-0.86561,1.41306 -3.44392,1.40899 -5.75881,-0.00907c-2.3149,-1.41807 -3.48977,-3.71313 -2.62416,-5.12618c0.86561,-1.41306 3.44392,-1.40901 5.75881,0.00905c2.3149,1.41807 3.48979,3.71314 2.62416,5.1262z" data-paper-data="{&quot;index&quot;:null}" fill="url(#color-12)"/><path d="M289.74067,201.51057c-0.70244,1.14669 -2.79472,1.14339 -4.67324,-0.00735c-1.87853,-1.15074 -2.83192,-3.01318 -2.12947,-4.15987c0.70244,-1.14669 2.79471,-1.1434 4.67323,0.00734c1.87853,1.15074 2.83193,3.01318 2.1295,4.15987z" data-paper-data="{&quot;index&quot;:null}" fill="url(#color-13)"/><path d="M283.25918,202.00189c-0.39785,0.64947 -1.58287,0.64759 -2.64684,-0.00417c-1.06395,-0.65175 -1.60394,-1.7066 -1.2061,-2.35606c0.39785,-0.64947 1.58286,-0.6476 2.64682,0.00416c1.06395,0.65175 1.60396,1.70661 1.20611,2.35607z" data-paper-data="{&quot;index&quot;:null}" fill="url(#color-14)"/><path d="M275.76404,195.33618c-0.50478,0.82402 -2.00828,0.82164 -3.35819,-0.00528c-1.34992,-0.82693 -2.03502,-2.16527 -1.53024,-2.98928c0.50478,-0.82402 2.00828,-0.82165 3.35819,0.00527c1.34992,0.82693 2.03502,2.16529 1.53024,2.98929z" data-paper-data="{&quot;index&quot;:null}" fill="url(#color-15)"/><path d="M262.48581,195.18576c-2.30486,-1.41191 -3.02873,-4.42492 -1.61682,-6.72977c1.41191,-2.30486 4.42493,-3.02873 6.72977,-1.61682c2.30486,1.41191 3.02873,4.42492 1.61682,6.72978c-1.41191,2.30486 -4.42492,3.02872 -6.72978,1.61681z" fill="url(#color-16)"/><path d="M269.65877,200.97087c-3.64783,-2.23459 -4.79349,-7.00323 -2.5589,-10.65107c2.23459,-3.64783 7.00324,-4.7935 10.65107,-2.55891c3.64784,2.23459 4.7935,7.00324 2.55891,10.65107c-2.23459,3.64783 -7.00324,4.79349 -10.65108,2.5589z" fill="url(#color-17)"/></g><path d="M237.99924,202.94765c0,0 -3.81676,-9.2914 -5.40895,-11.26676c-2.8597,-3.54795 -10.30305,-8.22657 -10.30305,-8.22657l21.38826,-21.38826c0,0 6.73588,8.86289 10.16046,12.28747c2.61039,2.61039 9.78516,5.05847 9.78516,5.05847c0,0 -4.1023,2.53086 -5.95814,2.37866c-1.91801,-0.1573 -6.53899,-1.8774 -6.53899,-1.8774l6.08757,10.34158l-10.79796,-2.76261l2.53849,11.28285l-9.02491,-6.6338c0,0 0.79878,3.41112 0.49251,5.12777c-0.33399,1.87199 -2.42044,5.67858 -2.42044,5.67858z" fill="url(#color-18)" stroke="#ff0000"/><path d="M203.78788,169.93445c-0.81159,-13.51289 -4.95027,-24.92102 -1.03191,-29.09064c3.54175,-3.76888 22.77429,0.9841 32.60065,1.3365c15.11988,0.54226 18.07026,-0.37714 17.95016,5.23417c-0.34872,4.6886 -7.04808,14.29179 -10.63216,19.86601c-2.78125,4.32559 -3.25594,11.70256 -3.25594,11.70256c0,0 -6.19156,-0.72359 -11.23657,2.7871c-8.03611,5.59212 -14.69041,11.8246 -20.55767,10.64667c-5.86727,-1.17793 -2.93232,-7.42693 -3.83654,-22.48238z" fill="url(#color-19)" stroke="#000000"/><g><path d="M228.60743,186.81105c-2.33846,-2.33846 -1.78826,-6.68005 1.22891,-9.6972c3.01716,-3.01716 7.35875,-3.56736 9.6972,-1.22891c2.33846,2.33846 1.78826,6.68004 -1.22891,9.6972c-0.7853,0.7853 -2.31227,2.57699 -3.21834,3.0206c-2.57511,1.26079 -4.74906,-0.06189 -6.47887,-1.7917z" fill="#000000" stroke="none"/><path d="M236.44504,178.97343c-2.33846,-2.33846 -1.78826,-6.68004 1.22891,-9.6972c3.01716,-3.01716 7.35876,-3.56736 9.69722,-1.22891c1.63776,1.63776 3.03213,3.08456 1.98096,5.54429c-0.44973,1.05237 -2.30581,3.24885 -3.20987,4.15292c-3.01716,3.01716 -7.35875,3.56736 -9.6972,1.22891z" fill="#000000" stroke="none"/><path d="M229.62362,184.62515c-2.02405,-2.02405 -1.81145,-5.5183 0.47486,-7.8046c2.28631,-2.28631 5.78055,-2.49892 7.8046,-0.47486c2.02405,2.02405 1.81145,5.5183 -0.47485,7.80461c-2.28631,2.28631 -5.78055,2.49892 -7.80461,0.47485z" fill="#ffffff" stroke="#000000"/><path d="M236.90579,177.34299c-2.02405,-2.02405 -1.81145,-5.5183 0.47486,-7.8046c2.28631,-2.28631 5.78055,-2.49892 7.8046,-0.47486c2.02405,2.02405 1.81145,5.5183 -0.47485,7.80461c-2.28631,2.28631 -5.78055,2.49892 -7.80461,0.47485z" fill="#ffffff" stroke="#000000"/><path d="M232.20716,180.06534c-0.93615,-0.93615 -0.93616,-2.45398 0,-3.39014c0.93616,-0.93616 2.45399,-0.93616 3.39014,0c0.93615,0.93615 0.93616,2.45398 0,3.39014c-0.93616,0.93616 -2.45399,0.93616 -3.39014,0z" fill="#000000" stroke="none"/><path d="M237.18533,175.31631c-0.93615,-0.93615 -0.93616,-2.45398 0,-3.39014c0.93616,-0.93616 2.45399,-0.93616 3.39014,0c0.93615,0.93615 0.93616,2.45398 0,3.39014c-0.93616,0.93616 -2.45399,0.93616 -3.39014,0z" fill="#000000" stroke="none"/></g><path d="M227.3184,179.42314c0,0 -3.83118,-3.52634 -5.41178,-6.05385c-1.83653,-2.93676 -4.95528,-10.52388 -4.95528,-10.52388l-2.07281,14.68845c0,0 -5.11001,-12.53064 -6.97798,-18.68094c-1.64816,-5.42656 -1.83861,-14.20959 -1.83861,-14.20959c0,0 10.05177,-0.15817 16.15029,1.68919c5.7307,1.73594 17.5915,6.96897 17.5915,6.96897l-15.83515,2.58791c0,0 5.72295,2.2495 8.45421,4.0996c2.64364,1.79074 7.6791,6.82868 7.6791,6.82868c0,0 -0.40756,7.83154 -2.56664,10.03751c-2.0957,2.14118 -10.21686,2.56798 -10.21686,2.56798z" fill="url(#color-20)" stroke="#ff0000"/><g stroke="none"><path d="M210.44927,169.39771c-5.68027,-5.68027 -5.68026,-14.8898 0,-20.57006c5.68026,-5.68026 14.88979,-5.68026 20.57005,0c5.68027,5.68027 5.68027,14.88979 0,20.57005c-5.68026,5.68026 -14.88979,5.68027 -20.57005,0z" fill="url(#color-21)"/><path d="M208.21091,175.89354c-4.56984,-4.56984 -4.56983,-11.97899 0,-16.54884c4.56984,-4.56984 11.97899,-4.56983 16.54884,0c4.56984,4.56984 4.56984,11.97899 0,16.54884c-4.56984,4.56984 -11.979,4.56984 -16.54884,0z" fill="url(#color-22)"/><path d="M203.3642,159.33478c-4.14275,-4.14275 -4.14275,-10.85947 0,-15.00222c4.14275,-4.14275 10.85947,-4.14275 15.00222,0c4.14275,4.14275 4.14276,10.85948 0.00001,15.00223c-4.14275,4.14275 -10.85947,4.14275 -15.00222,0z" fill="url(#color-23)"/><path d="M212.89586,180.68383c-2.34898,-2.34898 -2.34897,-6.15742 0.00001,-8.50641c2.34898,-2.34898 6.15744,-2.34898 8.50642,0c2.34898,2.34898 2.34898,6.15744 0,8.50642c-2.34898,2.34898 -6.15744,2.34898 -8.50642,0z" fill="url(#color-24)"/><path d="M231.59638,154.85949c-2.34898,-2.34898 -2.34898,-6.15744 0,-8.50642c2.34898,-2.34898 6.15744,-2.34898 8.50642,0c2.34898,2.34898 2.34898,6.15744 0.00001,8.50641c-2.34898,2.34898 -6.15744,2.34898 -8.50642,0z" fill="url(#color-25)"/><path d="M207.31296,181.35807c-2.82663,-2.82663 -2.82663,-7.40947 0,-10.23611c2.82663,-2.82663 7.40947,-2.82664 10.2361,-0.00001c2.82663,2.82663 2.82663,7.40947 0,10.23611c-2.82663,2.82663 -7.40948,2.82663 -10.23611,0z" fill="url(#color-26)"/><path d="M222.08855,152.31329c-1.90573,-1.90573 -1.90573,-4.99553 0,-6.90126c1.90573,-1.90573 4.99553,-1.90573 6.90126,0c1.90573,1.90573 1.90573,4.99553 0,6.90126c-1.90573,1.90573 -4.99553,1.90573 -6.90126,0z" fill="url(#color-27)"/><path d="M216.9847,153.70524c-1.90573,-1.90573 -1.90573,-4.99553 0,-6.90126c1.90573,-1.90573 4.99553,-1.90573 6.90126,0c1.90573,1.90573 1.90573,4.99553 0,6.90126c-1.90573,1.90573 -4.99553,1.90573 -6.90126,0z" fill="url(#color-28)"/><path d="M205.99935,164.36459c-1.76998,-1.76998 -1.76998,-4.6397 0,-6.40969c1.76998,-1.76998 4.63969,-1.76999 6.40969,0c1.76998,1.76998 1.76999,4.6397 0,6.4097c-1.76998,1.76998 -4.6397,1.76998 -6.4097,0z" fill="url(#color-29)"/><path d="M229.41106,156.29997c-3.01616,-3.01616 -3.01615,-7.90631 0,-10.92247c3.01616,-3.01616 7.90631,-3.01615 10.92247,0c3.01616,3.01616 3.01616,7.90631 0.00001,10.92248c-3.01616,3.01616 -7.90631,3.01615 -10.92248,-0.00001z" fill="url(#color-30)"/><path d="M206.19636,159.47451c-1.17375,-1.17375 -1.17375,-3.07678 0,-4.25053c1.17375,-1.17375 3.07678,-1.17375 4.25053,0c1.17375,1.17375 1.17376,3.07679 0.00001,4.25054c-1.17375,1.17375 -3.07678,1.17375 -4.25054,-0.00001z" fill="url(#color-31)"/><path d="M241.45278,155.8416c-1.90573,-1.90573 -1.90573,-4.99553 0,-6.90126c1.90572,-1.90572 4.99553,-1.90573 6.90126,0c1.90573,1.90573 1.90573,4.99553 0,6.90126c-1.90573,1.90573 -4.99554,1.90572 -6.90126,0z" fill="url(#color-32)"/><path d="M211.88619,187.94709c-1.90573,-1.90573 -1.90573,-4.99553 0,-6.90126c1.90572,-1.90572 4.99553,-1.90573 6.90126,0c1.90573,1.90573 1.90573,4.99553 0,6.90126c-1.90572,1.90572 -4.99554,1.90572 -6.90126,0z" fill="url(#color-33)"/><path d="M207.10567,157.44405c-2.82663,-2.82663 -2.82663,-7.40947 0,-10.23611c2.82663,-2.82663 7.40947,-2.82664 10.2361,-0.00001c2.82663,2.82663 2.82663,7.40948 0,10.23611c-2.82663,2.82663 -7.40949,2.82662 -10.23611,0z" fill="url(#color-34)"/><path d="M210.50676,154.54115c-1.76998,-1.76998 -1.76998,-4.6397 0,-6.40969c1.76998,-1.76998 4.63969,-1.76999 6.40969,0c1.76998,1.76998 1.76999,4.6397 0,6.4097c-1.76998,1.76998 -4.6397,1.76998 -6.4097,0z" fill="url(#color-35)"/></g></g></g></svg>