<svg version="1.1" xmlns="http://www.w3.org/2000/svg" xmlns:xlink="http://www.w3.org/1999/xlink" width="90.31423" height="97.08701" viewBox="0,0,90.31423,97.08701"><defs><linearGradient x1="222.22272" y1="180" x2="257.77735" y2="180" gradientUnits="userSpaceOnUse" id="color-1"><stop offset="0" stop-color="#ff0000" stop-opacity="0.90196"/><stop offset="1" stop-color="#ff4d4d" stop-opacity="0.90196"/></linearGradient></defs><g transform="translate(-192.34777,-130.15532)"><g data-paper-data="{&quot;isPaintingLayer&quot;:true}" fill-rule="nonzero" stroke="none" stroke-width="0" stroke-linecap="butt" stroke-linejoin="miter" stroke-miterlimit="10" stroke-dasharray="" stroke-dashoffset="0" style="mix-blend-mode: normal"><path d="M240.28205,195.65638c0,0 -24.31929,-16.7731 -16.51546,-27.12098c6.60311,-8.75573 16.23999,1.80317 16.23999,1.80317c0,0 6.53327,-9.53112 13.89852,-4.55785c13.77341,9.30028 -13.62305,29.87567 -13.62305,29.87567z" fill="url(#color-1)"/><path d="M192.34778,164.34363c0,-8.24974 6.68774,-14.93747 14.93748,-14.93747c8.24974,0 14.93747,6.68773 14.93747,14.93747c0,8.24974 -6.68773,14.93747 -14.93747,14.93747c-8.24974,0 -14.93748,-6.68773 -14.93748,-14.93747z" fill-opacity="0.21961" fill="#ff0000"/><path d="M215.61859,137.17143c0,-3.87489 3.14122,-7.01611 7.01611,-7.01611c3.87489,0 7.0161,3.14122 7.0161,7.01611c0,3.87489 -3.14121,7.01611 -7.0161,7.01611c-3.87489,0 -7.01611,-3.14122 -7.01611,-7.01611z" fill-opacity="0.21961" fill="#ff0000"/><path d="M233.60581,217.70579c0,-5.26689 4.26966,-9.53655 9.53654,-9.53655c5.26689,0 9.53654,4.26966 9.53654,9.53655c0,5.26689 -4.26966,9.53654 -9.53654,9.53654c-5.26689,0 -9.53654,-4.26966 -9.53654,-9.53654z" fill-opacity="0.21961" fill="#ff0000"/><path d="M272.53671,164.34363c0,-2.79602 2.26662,-5.06265 5.06265,-5.06265c2.79602,0 5.06265,2.26663 5.06265,5.06265c0,2.79602 -2.26662,5.06265 -5.06265,5.06265c-2.79602,0 -5.06265,-2.26662 -5.06265,-5.06265z" fill-opacity="0.21961" fill="#ff0000"/><path d="M252.13347,189.504c0,-7.86093 6.37253,-14.23345 14.23346,-14.23345c7.86093,0 14.23346,6.37253 14.23346,14.23345c0,7.86093 -6.37254,14.23346 -14.23346,14.23346c-7.86093,0 -14.23346,-6.37253 -14.23346,-14.23346z" fill-opacity="0.21961" fill="#ff0000"/><path d="M243.14235,146.16443c0,-2.79603 2.26662,-5.06265 5.06265,-5.06265c2.79603,0 5.06265,2.26662 5.06265,5.06265c0,2.79603 -2.26663,5.06265 -5.06265,5.06265c-2.79603,0 -5.06265,-2.26662 -5.06265,-5.06265z" fill-opacity="0.21961" fill="#ff0000"/><path d="M212.27022,193.86241c0,-1.47031 1.19193,-2.66223 2.66224,-2.66223c1.47031,0 2.66223,1.19192 2.66223,2.66223c0,1.47031 -1.19192,2.66224 -2.66223,2.66224c-1.47031,0 -2.66224,-1.19192 -2.66224,-2.66224z" fill-opacity="0.21961" fill="#ff0000"/></g></g></svg>