<svg version="1.1" xmlns="http://www.w3.org/2000/svg" xmlns:xlink="http://www.w3.org/1999/xlink" width="600.04592" height="480.50167" viewBox="0,0,600.04592,480.50167"><g transform="translate(55.76958,53.28947)"><g data-paper-data="{&quot;isPaintingLayer&quot;:true}" fill-rule="nonzero" stroke-linecap="butt" stroke-linejoin="miter" stroke-miterlimit="10" stroke-dasharray="" stroke-dashoffset="0" style="mix-blend-mode: normal"><path d="M544.27634,-53.28947l-48.12308,480.50167l-515.8378,-33.40818l-2.3127,-33.35932l234.35623,-194.36356l6.81426,5.73141c0,0 -5.78146,-1.20547 -7.57442,2.16787c-2.19848,4.1363 3.41865,8.33578 3.41865,8.33578c0,0 -7.11716,-1.25048 -8.3657,4.0102c-1.55015,5.64761 15.63043,10.34636 15.63043,10.34636c0,0 -4.32479,6.99894 -1.55315,11.74062c2.94137,4.86871 37.43291,0.80522 42.71568,-7.33464c5.15643,-7.94511 -0.66231,-33.85221 -8.47223,-41.832c-3.86405,-3.94811 -11.76048,6.17475 -11.76048,6.17475c0,0 -9.16982,-13.99887 -15.82132,-10.65587c-3.85016,1.93506 -0.71388,8.47644 -0.71388,8.47644c0,0 -6.08181,-3.23895 -8.46825,0.24696c-2.85925,4.17655 1.33988,9.05195 1.33988,9.05195c0,0 -6.42694,-4.69843 -8.43796,-3.13007c-14.00083,10.91899 -229.79185,196.28648 -229.79185,196.28648l-37.08823,-381.59199z" fill="#000000" stroke="none" stroke-width="0"/><path d="M250.59853,172.60905c3.70877,2.47975 4.70506,7.49651 2.22533,11.20525c-2.47975,3.70877 -7.49649,4.70508 -11.20525,2.22534c-3.70877,-2.47975 -4.70509,-7.49652 -2.22534,-11.20528c2.47975,-3.70877 7.49651,-4.70506 11.20527,-2.22531z" fill="none" stroke="#000000" stroke-width="2"/><path d="M241.49209,186.22883c3.70877,2.47975 4.70506,7.49651 2.22533,11.20525c-2.47975,3.70877 -7.49649,4.70508 -11.20525,2.22534c-3.70877,-2.47975 -4.70509,-7.49652 -2.22534,-11.20528c2.47975,-3.70877 7.49651,-4.70506 11.20527,-2.22531z" fill="none" stroke="#000000" stroke-width="2"/><path d="M248.4484,175.82485c1.93274,1.29226 2.45194,3.9066 1.15968,5.83935c-1.29226,1.93274 -3.90665,2.45196 -5.83936,1.1597c-1.93274,-1.29226 -2.45195,-3.90665 -1.15969,-5.83938c1.29226,-1.93274 3.90663,-2.45193 5.83937,-1.15969z" fill="#000000" stroke="none" stroke-width="0"/><path d="M239.2155,189.63377c1.93274,1.29226 2.45194,3.9066 1.15968,5.83935c-1.29226,1.93274 -3.9066,2.45194 -5.83935,1.15968c-1.93274,-1.29226 -2.45196,-3.90665 -1.1597,-5.83936c1.29226,-1.93274 3.90663,-2.45193 5.83937,-1.15969z" fill="#000000" stroke="none" stroke-width="0"/></g></g></svg>