<svg version="1.1" xmlns="http://www.w3.org/2000/svg" xmlns:xlink="http://www.w3.org/1999/xlink" width="480.66671" height="365.62093" viewBox="0,0,480.66671,365.62093"><defs><linearGradient x1="-0.33327" y1="180" x2="240.00001" y2="180" gradientUnits="userSpaceOnUse" id="color-1"><stop offset="0" stop-color="#acabad"/><stop offset="1" stop-color="#fff3f0"/></linearGradient><linearGradient x1="240.00011" y1="180" x2="480.3334" y2="180" gradientUnits="userSpaceOnUse" id="color-2"><stop offset="0" stop-color="#fff3f0"/><stop offset="1" stop-color="#acabad"/></linearGradient></defs><g transform="translate(0.33332,0)"><g data-paper-data="{&quot;isPaintingLayer&quot;:true}" fill-rule="nonzero" stroke-linecap="butt" stroke-linejoin="miter" stroke-miterlimit="10" stroke-dasharray="" stroke-dashoffset="0" style="mix-blend-mode: normal"><path d="M-0.33327,360v-360h240.33329v360z" fill="url(#color-1)" stroke="#000000" stroke-width="0"/><path d="M240.00011,360v-360h240.33329v360z" data-paper-data="{&quot;index&quot;:null}" fill="url(#color-2)" stroke="#000000" stroke-width="0"/><path d="M54.66672,239.87093c0,-52.46705 42.53295,-95 95,-95c52.46706,0 95,42.53295 95,95c0,52.46706 -42.53294,95 -95,95c-52.46705,0 -95,-42.53294 -95,-95z" fill="none" stroke-opacity="0.09804" stroke="#000000" stroke-width="10"/><path d="M216.66673,153.37093c0,-53.29548 43.20452,-96.5 96.5,-96.5c53.29548,0 96.5,43.20452 96.5,96.5c0,53.29548 -43.20452,96.5 -96.5,96.5c-53.29548,0 -96.5,-43.20452 -96.5,-96.5z" fill="none" stroke-opacity="0.09804" stroke="#000000" stroke-width="5"/><path d="M334.6667,88.87093c0,-36.72693 29.77306,-66.5 66.5,-66.5c36.72694,0 66.5,29.77307 66.5,66.5c0,36.72693 -29.77306,66.5 -66.5,66.5c-36.72694,0 -66.5,-29.77307 -66.5,-66.5z" fill="none" stroke-opacity="0.09804" stroke="#000000" stroke-width="5"/><path d="M60.66672,94.87093c0,-49.15334 39.84666,-89 89,-89c49.15335,0 89,39.84666 89,89c0,49.15335 -39.84665,89 -89,89c-49.15334,0 -89,-39.84665 -89,-89z" fill="none" stroke-opacity="0.09804" stroke="#000000" stroke-width="10"/><path d="M315.1667,158.37093c0,-38.38379 31.11621,-69.5 69.5,-69.5c38.38379,0 69.5,31.11621 69.5,69.5c0,38.38379 -31.11621,69.5 -69.5,69.5c-38.38379,0 -69.5,-31.11621 -69.5,-69.5z" fill="none" stroke-opacity="0.25098" stroke="#000000" stroke-width="7.5"/><path d="M131.66673,85.37543c24.02438,0 43.5,19.47562 43.5,43.5c0,24.02438 -19.47562,43.5 -43.5,43.5c-24.02439,0 -43.5,-19.47562 -43.5,-43.5c0,-24.02438 19.47562,-43.5 43.5,-43.5z" data-paper-data="{&quot;index&quot;:null}" fill="none" stroke-opacity="0.25098" stroke="#ffffff" stroke-width="7.5"/><path d="M170.64655,185.2571c0,-31.63939 25.64879,-57.28818 57.28818,-57.28818c31.63939,0 57.28818,25.64879 57.28818,57.28818c0,31.63939 -25.64879,57.28818 -57.28818,57.28818c-31.63939,0 -57.28818,-25.64879 -57.28818,-57.28818z" fill="none" stroke-opacity="0.25098" stroke="#000000" stroke-width="5"/><path d="M302.20275,268.63894c0,-44.86319 36.3688,-81.23199 81.23199,-81.23199c44.86319,0 81.23199,36.3688 81.23199,81.23199c0,44.86319 -36.3688,81.23199 -81.23199,81.23199c-44.86319,0 -81.23199,-36.3688 -81.23199,-81.23199z" fill="none" stroke-opacity="0.09804" stroke="#000000" stroke-width="10"/><path d="M284.37134,108.15623c0,-18.38297 14.90234,-33.2853 33.2853,-33.2853c18.38297,0 33.2853,14.90234 33.2853,33.2853c0,18.38297 -14.90234,33.2853 -33.2853,33.2853c-18.38297,0 -33.2853,-14.90234 -33.2853,-33.2853z" fill="none" stroke-opacity="0.25098" stroke="#000000" stroke-width="7.5"/><path d="M407.66673,348.28592c-27.89038,0 -50.5,-22.60963 -50.5,-50.5c0,-27.89038 22.60962,-50.5 50.5,-50.5c27.89038,0 50.5,22.60963 50.5,50.5c0,27.89038 -22.60963,50.5 -50.5,50.5z" data-paper-data="{&quot;index&quot;:null}" fill="none" stroke-opacity="0.54902" stroke="#ffffff" stroke-width="7.5"/><path d="M194.16674,258.37093c0,-27.89038 22.60962,-50.5 50.5,-50.5c27.89038,0 50.5,22.60962 50.5,50.5c0,27.89038 -22.60962,50.5 -50.5,50.5c-27.89038,0 -50.5,-22.60962 -50.5,-50.5z" fill="none" stroke-opacity="0.25098" stroke="#ffffff" stroke-width="7.5"/><path d="M161.16673,122.87093c0,-62.96046 51.03954,-114 114,-114c62.96046,0 114,51.03954 114,114c0,62.96046 -51.03954,114 -114,114c-62.96046,0 -114,-51.03954 -114,-114z" fill="none" stroke-opacity="0.54902" stroke="#ffffff" stroke-width="7.5"/><path d="M31.16673,172.87093c0,-62.96046 51.03954,-114 114,-114c62.96046,0 114,51.03954 114,114c0,62.96046 -51.03954,114 -114,114c-62.96046,0 -114,-51.03954 -114,-114z" fill="none" stroke-opacity="0.1451" stroke="#ffffff" stroke-width="5"/><path d="M7.16672,321.87093c0,-22.09139 17.90861,-40 40,-40c22.09139,0 40,17.90861 40,40c0,22.09139 -17.90861,40 -40,40c-22.09139,0 -40,-17.90861 -40,-40z" fill="none" stroke-opacity="0.07451" stroke="#ffffff" stroke-width="7.5"/><path d="M283.14079,350.87093c-16.01626,0 -29,-12.98374 -29,-29c0,-16.01626 12.98374,-29 29,-29c16.01626,0 29,12.98374 29,29c0,16.01626 -12.98374,29 -29,29z" data-paper-data="{&quot;index&quot;:null}" fill="none" stroke-opacity="0.21961" stroke="#000000" stroke-width="5"/><path d="M79.66671,15.87093c34.5178,0 62.5,27.9822 62.5,62.5c0,34.5178 -27.9822,62.5 -62.5,62.5c-34.5178,0 -62.5,-27.9822 -62.5,-62.5c0,-34.5178 27.9822,-62.5 62.5,-62.5z" data-paper-data="{&quot;index&quot;:null}" fill="none" stroke-opacity="0.19608" stroke="#000000" stroke-width="10"/><path d="M20.66673,171.87093c0,-40.86907 33.13093,-74 74,-74c40.86907,0 74,33.13093 74,74c0,40.86907 -33.13093,74 -74,74c-40.86907,0 -74,-33.13093 -74,-74z" fill="none" stroke-opacity="0.09804" stroke="#000000" stroke-width="5"/><path d="M28.16673,221.37093c0,-16.2924 13.2076,-29.5 29.5,-29.5c16.2924,0 29.5,13.2076 29.5,29.5c0,16.2924 -13.2076,29.5 -29.5,29.5c-16.2924,0 -29.5,-13.2076 -29.5,-29.5z" fill="none" stroke-opacity="0.54902" stroke="#ffffff" stroke-width="7.5"/><path d="M207.16674,36.37093c0,-16.29239 13.2076,-29.5 29.5,-29.5c16.2924,0 29.5,13.20761 29.5,29.5c0,16.2924 -13.2076,29.5 -29.5,29.5c-16.29239,0 -29.5,-13.2076 -29.5,-29.5z" fill="none" stroke-opacity="0.25098" stroke="#ffffff" stroke-width="7.5"/><path d="M7.64655,280.25709c0,-41.58051 33.70767,-75.28818 75.28819,-75.28818c41.58052,0 75.28818,33.70766 75.28818,75.28818c0,41.58052 -33.70767,75.28819 -75.28818,75.28819c-41.58051,0 -75.28818,-33.70767 -75.28818,-75.28819z" fill="none" stroke-opacity="0.1451" stroke="#000000" stroke-width="5"/><path d="M109.1408,327.28159c0,-14.36179 11.64254,-26.00432 26.00432,-26.00432c14.36179,0 26.00432,11.64254 26.00432,26.00432c0,14.36179 -11.64253,26.00432 -26.00432,26.00432c-14.36179,0 -26.00432,-11.64253 -26.00432,-26.00432z" fill="none" stroke-opacity="0.25098" stroke="#ffffff" stroke-width="4.5"/><path d="M130.37134,291.65623c0,-13.68854 11.09676,-24.7853 24.7853,-24.7853c13.68854,0 24.7853,11.09676 24.7853,24.7853c0,13.68854 -11.09676,24.7853 -24.7853,24.7853c-13.68854,0 -24.7853,-11.09676 -24.7853,-24.7853z" fill="none" stroke-opacity="0.25098" stroke="#000000" stroke-width="7.5"/><path d="M443.38143,57.85652c-13.68854,0 -24.7853,-11.09676 -24.7853,-24.7853c0,-13.68854 11.09676,-24.7853 24.7853,-24.7853c13.68854,0 24.7853,11.09676 24.7853,24.7853c0,13.68854 -11.09676,24.7853 -24.7853,24.7853z" data-paper-data="{&quot;index&quot;:null}" fill="none" stroke-opacity="0.54902" stroke="#ffffff" stroke-width="3.5"/><path d="M-0.33331,360v-360h480.66667v360z" fill-opacity="0.24314" fill="#ffffff" stroke="#000000" stroke-width="0"/></g></g></svg>