<svg version="1.1" xmlns="http://www.w3.org/2000/svg" xmlns:xlink="http://www.w3.org/1999/xlink" width="662.63363" height="290.9152" viewBox="0,0,662.63363,290.9152"><defs><linearGradient x1="244.81062" y1="193.20462" x2="247.20142" y2="232.86148" gradientUnits="userSpaceOnUse" id="color-1"><stop offset="0" stop-color="#ff6666"/><stop offset="1" stop-color="#e60000"/></linearGradient><linearGradient x1="270.73033" y1="111.50117" x2="267.31773" y2="150.39076" gradientUnits="userSpaceOnUse" id="color-2"><stop offset="0" stop-color="#ff6666"/><stop offset="1" stop-color="#e60000"/></linearGradient><linearGradient x1="226.42702" y1="286.98175" x2="225.67787" y2="317.68359" gradientUnits="userSpaceOnUse" id="color-3"><stop offset="0" stop-color="#ff6666"/><stop offset="1" stop-color="#e60000"/></linearGradient><linearGradient x1="240.61105" y1="35.50316" x2="241.22256" y2="66.03404" gradientUnits="userSpaceOnUse" id="color-4"><stop offset="0" stop-color="#ff6666"/><stop offset="1" stop-color="#e60000"/></linearGradient></defs><g transform="translate(70.72262,-30.18748)"><g data-paper-data="{&quot;isPaintingLayer&quot;:true}" fill-rule="nonzero" stroke-linecap="butt" stroke-linejoin="miter" stroke-miterlimit="10" stroke-dasharray="" stroke-dashoffset="0" style="mix-blend-mode: normal"><g><path d="M86.48244,202.74976l155.33524,-9.36471l168.56356,-10.1622l179.13897,-10.79976l2.3908,39.65686l-177.49614,10.70072l-168.56356,10.1622l-156.15141,9.41391z" fill="url(#color-1)" stroke="#ffffff" stroke-width="0"/><g fill="#000000" stroke="none" stroke-width="0.40889"><path d="M489.16078,205.1008c0.91498,-0.05516 1.7169,-0.28424 2.40576,-0.68723c0.68886,-0.403 1.25241,-0.94008 1.69064,-1.61127c0.43763,-0.68092 0.74375,-1.43695 0.91833,-2.26809c0.18374,-0.84145 0.24774,-1.72454 0.19199,-2.64927c-0.07511,-1.24593 -0.35821,-2.37675 -0.84928,-3.39244c-0.49107,-1.0157 -1.18368,-1.80921 -2.07782,-2.38054c-0.885,-0.58165 -1.92127,-0.83668 -3.10879,-0.76509c-1.18752,0.07159 -2.19049,0.44956 -3.00892,1.1339c-0.8093,0.67402 -1.3967,1.54469 -1.7622,2.61204c-0.36549,1.06734 -0.51069,2.22397 -0.43557,3.4699c0.11795,1.9565 0.69835,3.56274 1.74124,4.81872c1.0526,1.25538 2.48415,1.8285 4.29464,1.71935zM489.40992,209.23281c-1.9857,0.11971 -3.79117,-0.25501 -5.41641,-1.12418c-1.61611,-0.87949 -2.91295,-2.13481 -3.89051,-3.76595c-0.96783,-1.63173 -1.51306,-3.46478 -1.6357,-5.49915c-0.09331,-1.54768 0.06777,-3.00811 0.4832,-4.38131c0.41543,-1.37319 1.05043,-2.58867 1.90498,-3.64641c0.86426,-1.05833 1.9078,-1.89789 3.1306,-2.51869c1.22221,-0.63053 2.58769,-0.99127 4.09643,-1.08223c1.47955,-0.0892 2.86933,0.1152 4.16935,0.61321c1.30917,0.48769 2.45148,1.20524 3.42689,2.15267c0.97543,0.94742 1.75671,2.07751 2.34385,3.39026c0.58714,1.31275 0.92619,2.7235 1.01715,4.23225c0.09213,1.52821 -0.06465,2.97863 -0.47037,4.35123c-0.40629,1.36288 -1.04615,2.57864 -1.91956,3.64729c-0.8637,1.06807 -1.91152,1.91767 -3.14345,2.54878c-1.23196,0.63111 -2.59743,0.99186 -4.09645,1.08223z"/><path d="M502.37832,205.93053l-1.01315,-16.80546c-0.04342,-0.7203 0.12666,-1.30206 0.51025,-1.74525c0.38359,-0.4432 0.94528,-0.6871 1.68505,-0.7317l5.28547,-0.31865c1.43087,-0.08626 2.75339,0.13684 3.96758,0.66934c1.22332,0.52218 2.19394,1.3087 2.91182,2.35957c0.72704,1.04055 1.13252,2.25679 1.21644,3.64873c0.06514,1.08045 -0.07514,2.07561 -0.42083,2.98545c-0.33654,0.89952 -0.82701,1.67643 -1.47142,2.33074c-0.63466,0.65372 -1.39951,1.17365 -2.29454,1.55975c-0.89503,0.38611 -1.84871,0.60969 -2.86101,0.67072l-3.32897,0.20069l0.29576,4.90585c0.0446,0.73978 -0.13007,1.32668 -0.52397,1.76073c-0.38476,0.42373 -0.90808,0.65554 -1.56998,0.69544c-0.65216,0.03932 -1.20472,-0.13252 -1.65765,-0.51552c-0.44379,-0.39333 -0.6874,-0.95014 -0.73083,-1.67044zM505.94445,190.46091l0.38202,6.33673l3.05155,-0.18397c0.91498,-0.05516 1.63685,-0.39664 2.16561,-1.02444c0.53849,-0.62839 0.77988,-1.40493 0.72413,-2.32965c-0.0358,-0.59377 -0.19461,-1.1215 -0.47645,-1.58319c-0.28242,-0.47143 -0.66546,-0.82934 -1.14911,-1.07373c-0.48424,-0.25411 -1.03297,-0.36269 -1.64621,-0.32572z"/><path d="M454.78124,189.22251c0.68137,-0.04108 1.49028,0.00785 2.42674,0.14677c0.94618,0.13834 1.77376,0.41572 2.48271,0.83213c0.70835,0.40668 1.08366,0.96044 1.12591,1.66126c0.03697,0.61323 -0.11628,1.15001 -0.45976,1.61034c-0.34406,0.45059 -0.81298,0.69378 -1.40675,0.72957c-0.27255,0.01643 -0.57236,-0.01434 -0.89944,-0.09231c-0.31795,-0.08829 -0.65107,-0.18544 -0.99939,-0.29143c-0.33858,-0.10658 -0.68025,-0.18368 -1.02505,-0.23127c-0.33565,-0.05791 -0.70301,-0.07485 -1.1021,-0.05079c-0.67164,0.04049 -1.24024,0.25062 -1.7058,0.63038c-0.45582,0.37917 -0.66584,0.86563 -0.63004,1.45941c0.03873,0.64244 0.61006,1.12576 1.71398,1.44998c1.11307,0.3139 2.34471,0.64995 3.69492,1.00817c1.35994,0.35763 2.52527,0.97122 3.496,1.84077c0.97015,0.85981 1.50803,2.16578 1.61366,3.91786c0.08216,1.36274 -0.19034,2.59543 -0.81746,3.69809c-0.62714,1.10265 -1.50743,1.97633 -2.64088,2.62105c-1.13343,0.64472 -2.39125,1.00873 -3.77345,1.09206c-1.70343,0.10269 -3.35854,-0.04664 -4.96535,-0.448c-1.59767,-0.41168 -2.43376,-1.23561 -2.50828,-2.47182c-0.03638,-0.6035 0.11347,-1.11565 0.44956,-1.53645c0.34524,-0.43113 0.8196,-0.66487 1.4231,-0.70126c0.29202,-0.0176 0.61617,0.0117 0.97246,0.08791c0.35629,0.07621 0.81285,0.19522 1.36967,0.35704c0.55623,0.15208 1.04199,0.26934 1.45728,0.35176c0.41469,0.07269 0.84592,0.09553 1.29367,0.06853c0.64244,-0.03873 1.18594,-0.17895 1.63053,-0.42068c0.44399,-0.25146 0.77104,-0.57891 0.98118,-0.98235c0.21987,-0.40403 0.31484,-0.85425 0.28492,-1.35068c-0.04577,-0.75924 -0.34337,-1.23953 -0.8928,-1.44086c-0.5397,-0.20192 -1.78167,-0.54713 -3.7259,-1.03561c-1.94422,-0.48848 -3.38784,-1.09994 -4.33087,-1.8344c-0.93331,-0.73504 -1.44692,-1.88127 -1.54081,-3.43868c-0.08216,-1.36274 0.18177,-2.57537 0.79179,-3.63793c0.61916,-1.07287 1.48146,-1.92104 2.58687,-2.54452c1.1054,-0.62349 2.31516,-0.97484 3.62921,-1.05406z"/><path d="M469.29681,207.80144l-0.90576,-15.02417l-3.25596,0.19629c-0.6619,0.0399 -1.18009,-0.12913 -1.55457,-0.50708c-0.37507,-0.3877 -0.57962,-0.86383 -0.61365,-1.4284c-0.02113,-0.35042 0.04623,-0.69151 0.20207,-1.02329c0.14611,-0.33119 0.36933,-0.59865 0.66967,-0.80237c0.30948,-0.21404 0.65889,-0.33279 1.04825,-0.35627l10.99436,-0.66282c0.38936,-0.02347 0.74564,0.05274 1.06885,0.22863c0.33236,0.16558 0.59097,0.404 0.77582,0.71523c0.19457,0.31065 0.30241,0.64118 0.32354,0.9916c0.03404,0.56458 -0.10697,1.06154 -0.423,1.49089c-0.31662,0.41963 -0.81563,0.64997 -1.49699,0.69105l-3.25596,0.19629l0.90576,15.02417c0.0446,0.73978 -0.13005,1.32669 -0.52396,1.76075c-0.38476,0.42373 -0.9081,0.65555 -1.57,0.69545c-0.67163,0.04049 -1.22876,-0.1262 -1.67138,-0.50004c-0.43347,-0.38418 -0.6725,-0.94616 -0.7171,-1.68593z"/><path d="M520.20071,199.22755l-0.69363,-11.5054c-0.03756,-0.62297 0.13206,-1.13142 0.50885,-1.52536c0.37679,-0.39394 0.88154,-0.60999 1.51423,-0.64813c0.61323,-0.03697 1.1357,0.12203 1.5674,0.477c0.43171,0.35498 0.66575,0.83421 0.70214,1.43771l0.69363,11.5054c0.03697,0.61322 -0.1378,1.1171 -0.52433,1.51165c-0.38652,0.39453 -0.88639,0.61028 -1.49963,0.64725c-0.6327,0.03814 -1.15974,-0.1157 -1.58113,-0.46152c-0.42139,-0.34584 -0.65057,-0.82536 -0.68754,-1.43859zM522.85754,207.5666c-0.64244,0.03873 -1.20619,-0.15687 -1.69126,-0.58677c-0.48507,-0.42991 -0.74698,-0.96608 -0.78571,-1.60852c-0.03873,-0.64243 0.15687,-1.20618 0.58677,-1.69124c0.42991,-0.48507 0.96608,-0.74698 1.60851,-0.78571c0.64244,-0.03873 1.20619,0.15687 1.69126,0.58677c0.48507,0.42991 0.74697,0.96607 0.7857,1.6085c0.03873,0.64244 -0.15687,1.20619 -0.58676,1.69126c-0.42991,0.48507 -0.96607,0.74698 -1.60851,0.78571z"/></g><g fill="#000000" stroke="none" stroke-width="0.40889"><path d="M329.00809,214.75594c0.91498,-0.05516 1.7169,-0.28424 2.40576,-0.68723c0.68886,-0.403 1.25241,-0.94008 1.69064,-1.61127c0.43764,-0.68092 0.74375,-1.43695 0.91833,-2.26809c0.18373,-0.84145 0.24774,-1.72454 0.19199,-2.64927c-0.07511,-1.24593 -0.35821,-2.37675 -0.84929,-3.39244c-0.49108,-1.0157 -1.18369,-1.80921 -2.07783,-2.38054c-0.885,-0.58165 -1.92126,-0.83668 -3.10878,-0.76509c-1.18752,0.07159 -2.1905,0.44956 -3.00893,1.1339c-0.8093,0.67402 -1.3967,1.54469 -1.76219,2.61204c-0.3655,1.06734 -0.51069,2.22397 -0.43557,3.4699c0.11795,1.9565 0.69836,3.56274 1.74124,4.81872c1.0526,1.25538 2.48415,1.8285 4.29465,1.71935zM329.25721,218.88795c-1.9857,0.11971 -3.79117,-0.25501 -5.4164,-1.12418c-1.61611,-0.87949 -2.91294,-2.13481 -3.8905,-3.76595c-0.96783,-1.63173 -1.51307,-3.46478 -1.63572,-5.49915c-0.09331,-1.54768 0.06777,-3.00811 0.48321,-4.38131c0.41544,-1.37319 1.05042,-2.58867 1.90498,-3.64641c0.86426,-1.05833 1.90781,-1.89789 3.1306,-2.51869c1.22221,-0.63053 2.5877,-0.99128 4.09644,-1.08223c1.47955,-0.0892 2.86933,0.1152 4.16935,0.61321c1.30918,0.48769 2.45148,1.20524 3.42689,2.15267c0.97543,0.94742 1.75671,2.07751 2.34385,3.39026c0.58714,1.31275 0.92619,2.7235 1.01715,4.23225c0.09213,1.52821 -0.06465,2.97863 -0.47037,4.35123c-0.40629,1.36288 -1.04615,2.57864 -1.91956,3.64729c-0.86369,1.06807 -1.91151,1.91766 -3.14345,2.54878c-1.23196,0.63111 -2.59743,0.99186 -4.09646,1.08223z"/><path d="M342.22563,215.58566l-1.01315,-16.80546c-0.04342,-0.7203 0.12666,-1.30206 0.51025,-1.74525c0.38359,-0.4432 0.94527,-0.6871 1.68505,-0.7317l5.28547,-0.31865c1.43087,-0.08626 2.75339,0.13684 3.96758,0.66934c1.22332,0.52218 2.19394,1.3087 2.91182,2.35957c0.72704,1.04055 1.13251,2.2568 1.21643,3.64873c0.06514,1.08045 -0.07513,2.07561 -0.42082,2.98545c-0.33654,0.89952 -0.82702,1.67643 -1.47142,2.33074c-0.63466,0.65372 -1.39951,1.17365 -2.29454,1.55975c-0.89503,0.38611 -1.8487,0.60969 -2.86101,0.67072l-3.32897,0.20069l0.29576,4.90585c0.0446,0.73978 -0.13007,1.32668 -0.52397,1.76073c-0.38476,0.42373 -0.90808,0.65554 -1.56998,0.69544c-0.65216,0.03932 -1.20472,-0.13252 -1.65766,-0.51552c-0.4438,-0.39333 -0.6874,-0.95014 -0.73083,-1.67044zM345.79173,200.11604l0.38202,6.33673l3.05155,-0.18397c0.91498,-0.05516 1.63685,-0.39664 2.16561,-1.02444c0.53849,-0.62839 0.77987,-1.40493 0.72412,-2.32965c-0.0358,-0.59377 -0.19461,-1.1215 -0.47645,-1.58319c-0.28242,-0.47143 -0.66545,-0.82934 -1.1491,-1.07373c-0.48424,-0.25411 -1.03298,-0.36269 -1.64622,-0.32572z"/><path d="M294.62854,198.87765c0.68138,-0.04108 1.49028,0.00785 2.42674,0.14677c0.94618,0.13834 1.77376,0.41572 2.48271,0.83213c0.70835,0.40668 1.08365,0.96044 1.1259,1.66127c0.03697,0.61323 -0.11628,1.15001 -0.45976,1.61034c-0.34406,0.45059 -0.81297,0.69377 -1.40674,0.72957c-0.27255,0.01643 -0.57236,-0.01434 -0.89945,-0.09231c-0.31794,-0.08829 -0.65106,-0.18544 -0.99938,-0.29143c-0.33857,-0.10658 -0.68025,-0.18368 -1.02505,-0.23127c-0.33564,-0.05791 -0.70301,-0.07485 -1.1021,-0.05079c-0.67163,0.04049 -1.24025,0.25062 -1.70581,0.63038c-0.45583,0.37917 -0.66584,0.86563 -0.63004,1.45941c0.03873,0.64244 0.61007,1.12576 1.71399,1.44997c1.11307,0.3139 2.3447,0.64995 3.69492,1.00817c1.35994,0.35763 2.52527,0.97122 3.496,1.84077c0.97015,0.85981 1.50804,2.16578 1.61367,3.91786c0.08216,1.36274 -0.19034,2.59543 -0.81747,3.69809c-0.62714,1.10265 -1.50743,1.97633 -2.64088,2.62105c-1.13343,0.64472 -2.39124,1.00873 -3.77344,1.09206c-1.70343,0.10269 -3.35854,-0.04664 -4.96536,-0.448c-1.59767,-0.41168 -2.43377,-1.23561 -2.50829,-2.47182c-0.03638,-0.6035 0.11348,-1.11565 0.44957,-1.53645c0.34524,-0.43113 0.8196,-0.66487 1.4231,-0.70126c0.29202,-0.0176 0.61618,0.0117 0.97247,0.08791c0.35629,0.07621 0.81285,0.19522 1.36966,0.35704c0.55624,0.15208 1.04199,0.26934 1.45728,0.35176c0.4147,0.07269 0.84592,0.09553 1.29367,0.06853c0.64244,-0.03873 1.18595,-0.17895 1.63054,-0.42068c0.44399,-0.25146 0.77104,-0.57891 0.98118,-0.98235c0.21987,-0.40403 0.31484,-0.85425 0.28492,-1.35068c-0.04577,-0.75924 -0.34338,-1.23952 -0.8928,-1.44086c-0.53971,-0.20192 -1.78168,-0.54713 -3.7259,-1.03561c-1.94422,-0.48848 -3.38784,-1.09994 -4.33088,-1.8344c-0.93331,-0.73504 -1.44692,-1.88127 -1.54081,-3.43868c-0.08216,-1.36274 0.18178,-2.57537 0.7918,-3.63793c0.61917,-1.07287 1.48146,-1.92104 2.58687,-2.54452c1.10541,-0.62349 2.31515,-0.97484 3.62921,-1.05406z"/><path d="M309.1441,217.45657l-0.90576,-15.02417l-3.25596,0.19629c-0.6619,0.0399 -1.18009,-0.12913 -1.55457,-0.50708c-0.37507,-0.3877 -0.57963,-0.86383 -0.61366,-1.4284c-0.02113,-0.35042 0.04624,-0.69151 0.20208,-1.02329c0.14611,-0.33119 0.36933,-0.59865 0.66967,-0.80237c0.30948,-0.21404 0.65889,-0.33279 1.04825,-0.35627l10.99436,-0.66282c0.38936,-0.02347 0.74564,0.05274 1.06885,0.22863c0.33236,0.16558 0.59096,0.404 0.77581,0.71523c0.19456,0.31065 0.30242,0.64118 0.32355,0.9916c0.03404,0.56458 -0.10697,1.06154 -0.42301,1.4909c-0.31662,0.41963 -0.81562,0.64997 -1.49698,0.69105l-3.25596,0.19629l0.90576,15.02417c0.0446,0.73978 -0.13006,1.32669 -0.52396,1.76075c-0.38477,0.42373 -0.90809,0.65555 -1.56999,0.69545c-0.67163,0.04049 -1.22877,-0.1262 -1.67138,-0.50004c-0.43348,-0.38418 -0.6725,-0.94616 -0.7171,-1.68593z"/><path d="M360.04805,208.88269l-0.69363,-11.5054c-0.03756,-0.62297 0.13205,-1.13142 0.50884,-1.52536c0.37679,-0.39394 0.88154,-0.60999 1.51423,-0.64813c0.61323,-0.03697 1.1357,0.12203 1.5674,0.477c0.43171,0.35498 0.66575,0.83421 0.70214,1.43771l0.69363,11.5054c0.03697,0.61322 -0.1378,1.1171 -0.52433,1.51165c-0.38652,0.39453 -0.8864,0.61028 -1.49963,0.64725c-0.6327,0.03814 -1.15974,-0.1157 -1.58113,-0.46152c-0.42139,-0.34584 -0.65056,-0.82536 -0.68753,-1.43859zM362.70489,217.22173c-0.64244,0.03873 -1.20619,-0.15687 -1.69126,-0.58677c-0.48507,-0.42991 -0.74697,-0.96608 -0.7857,-1.60852c-0.03873,-0.64243 0.15687,-1.20618 0.58676,-1.69124c0.42991,-0.48507 0.96608,-0.74698 1.60851,-0.78571c0.64244,-0.03873 1.20619,0.15687 1.69126,0.58677c0.48507,0.42991 0.74698,0.96607 0.78571,1.6085c0.03873,0.64244 -0.15687,1.20619 -0.58677,1.69127c-0.42991,0.48507 -0.96608,0.74698 -1.60851,0.78571z"/></g><g fill="#000000" stroke="none" stroke-width="0.40889"><path d="M168.85543,224.41107c0.91498,-0.05516 1.71691,-0.28424 2.40577,-0.68723c0.68886,-0.403 1.25241,-0.94008 1.69064,-1.61127c0.43763,-0.68092 0.74375,-1.43695 0.91833,-2.26809c0.18373,-0.84145 0.24774,-1.72454 0.19199,-2.64927c-0.07511,-1.24593 -0.35821,-2.37675 -0.84929,-3.39244c-0.49108,-1.0157 -1.18369,-1.80921 -2.07783,-2.38054c-0.885,-0.58165 -1.92126,-0.83668 -3.10878,-0.76509c-1.18752,0.07159 -2.1905,0.44956 -3.00893,1.1339c-0.8093,0.67402 -1.3967,1.54469 -1.76219,2.61204c-0.3655,1.06734 -0.5107,2.22397 -0.43558,3.46991c0.11795,1.9565 0.69836,3.56274 1.74124,4.81872c1.0526,1.25538 2.48415,1.8285 4.29465,1.71935zM169.10454,228.54308c-1.9857,0.11971 -3.79116,-0.25501 -5.4164,-1.12418c-1.61611,-0.87949 -2.91295,-2.13481 -3.89051,-3.76595c-0.96783,-1.63173 -1.51307,-3.46478 -1.63572,-5.49915c-0.09331,-1.54768 0.06777,-3.00811 0.48321,-4.38131c0.41543,-1.37319 1.05042,-2.58867 1.90497,-3.64641c0.86426,-1.05833 1.90781,-1.89789 3.1306,-2.51869c1.22221,-0.63053 2.5877,-0.99128 4.09644,-1.08223c1.47955,-0.0892 2.86933,0.1152 4.16935,0.61321c1.30917,0.48769 2.45148,1.20524 3.42689,2.15267c0.97543,0.94742 1.75671,2.07751 2.34385,3.39026c0.58714,1.31275 0.92619,2.7235 1.01715,4.23225c0.09213,1.52821 -0.06466,2.97863 -0.47037,4.35123c-0.40629,1.36288 -1.04613,2.57864 -1.91956,3.64729c-0.8637,1.06807 -1.91151,1.91766 -3.14345,2.54878c-1.23196,0.63111 -2.59743,0.99186 -4.09646,1.08223z"/><path d="M182.07294,225.24079l-1.01315,-16.80546c-0.04342,-0.7203 0.12666,-1.30206 0.51025,-1.74525c0.38359,-0.4432 0.94527,-0.6871 1.68505,-0.7317l5.28547,-0.31865c1.43087,-0.08626 2.75339,0.13684 3.96758,0.66934c1.22332,0.52218 2.19394,1.3087 2.91182,2.35957c0.72704,1.04055 1.13251,2.2568 1.21643,3.64873c0.06514,1.08045 -0.07513,2.07561 -0.42082,2.98545c-0.33654,0.89952 -0.82702,1.67643 -1.47142,2.33074c-0.63466,0.65372 -1.39951,1.17365 -2.29454,1.55975c-0.89503,0.38611 -1.8487,0.60969 -2.86101,0.67072l-3.32897,0.20069l0.29576,4.90585c0.0446,0.73978 -0.13007,1.32668 -0.52397,1.76073c-0.38476,0.42373 -0.90808,0.65554 -1.56998,0.69544c-0.65216,0.03932 -1.20472,-0.13252 -1.65766,-0.51552c-0.44379,-0.39333 -0.6874,-0.95014 -0.73083,-1.67044zM185.63906,209.77118l0.38202,6.33673l3.05155,-0.18397c0.91498,-0.05516 1.63685,-0.39664 2.16561,-1.02444c0.53849,-0.62839 0.77987,-1.40493 0.72412,-2.32965c-0.0358,-0.59377 -0.19461,-1.1215 -0.47645,-1.58319c-0.28242,-0.47143 -0.66545,-0.82934 -1.1491,-1.07373c-0.48424,-0.25411 -1.03298,-0.36269 -1.64621,-0.32572z"/><path d="M134.47583,208.53278c0.68137,-0.04108 1.49028,0.00785 2.42674,0.14677c0.94618,0.13834 1.77376,0.41572 2.48271,0.83213c0.70835,0.40668 1.08365,0.96044 1.1259,1.66127c0.03697,0.61323 -0.11628,1.15001 -0.45976,1.61034c-0.34406,0.45059 -0.81297,0.69377 -1.40674,0.72957c-0.27255,0.01643 -0.57237,-0.01434 -0.89945,-0.09231c-0.31794,-0.08829 -0.65106,-0.18544 -0.99938,-0.29143c-0.33857,-0.10658 -0.68025,-0.18368 -1.02505,-0.23127c-0.33565,-0.05791 -0.70301,-0.07485 -1.1021,-0.05079c-0.67163,0.04049 -1.24025,0.25062 -1.7058,0.63038c-0.45583,0.37917 -0.66585,0.86564 -0.63005,1.45941c0.03873,0.64244 0.61007,1.12576 1.71399,1.44997c1.11307,0.3139 2.34471,0.64995 3.69492,1.00817c1.35994,0.35763 2.52528,0.97122 3.496,1.84077c0.97015,0.85981 1.50803,2.16578 1.61366,3.91786c0.08216,1.36274 -0.19034,2.59543 -0.81746,3.69809c-0.62714,1.10265 -1.50743,1.97633 -2.64088,2.62105c-1.13343,0.64472 -2.39124,1.00873 -3.77344,1.09206c-1.70343,0.10269 -3.35854,-0.04664 -4.96535,-0.448c-1.59767,-0.41168 -2.43377,-1.23561 -2.50829,-2.47182c-0.03638,-0.6035 0.11348,-1.11565 0.44957,-1.53645c0.34524,-0.43113 0.8196,-0.66487 1.4231,-0.70126c0.29202,-0.0176 0.61618,0.0117 0.97247,0.08791c0.35629,0.07621 0.81283,0.19522 1.36966,0.35704c0.55623,0.15208 1.04199,0.26934 1.45728,0.35176c0.4147,0.07269 0.84592,0.09553 1.29368,0.06853c0.64244,-0.03873 1.18595,-0.17895 1.63053,-0.42068c0.44399,-0.25146 0.77105,-0.57891 0.98118,-0.98235c0.21987,-0.40403 0.31484,-0.85425 0.28492,-1.35068c-0.04577,-0.75924 -0.34338,-1.23952 -0.8928,-1.44086c-0.53971,-0.20192 -1.78168,-0.54713 -3.72591,-1.03561c-1.94422,-0.48848 -3.38784,-1.09994 -4.33088,-1.8344c-0.93331,-0.73504 -1.44692,-1.88127 -1.54081,-3.43868c-0.08216,-1.36274 0.18178,-2.57537 0.7918,-3.63793c0.61917,-1.07287 1.48146,-1.92104 2.58687,-2.54452c1.10541,-0.62349 2.31515,-0.97484 3.62921,-1.05406z"/><path d="M148.9914,227.11171l-0.90576,-15.02417l-3.25596,0.19629c-0.6619,0.0399 -1.18009,-0.12913 -1.55457,-0.50708c-0.37507,-0.3877 -0.57962,-0.86383 -0.61365,-1.4284c-0.02113,-0.35042 0.04624,-0.69151 0.20208,-1.02329c0.14611,-0.33119 0.36933,-0.59865 0.66966,-0.80237c0.30948,-0.21404 0.65889,-0.33279 1.04825,-0.35627l10.99436,-0.66282c0.38936,-0.02347 0.74564,0.05274 1.06885,0.22863c0.33236,0.16558 0.59096,0.404 0.77581,0.71523c0.19457,0.31065 0.30242,0.64118 0.32355,0.9916c0.03404,0.56458 -0.10697,1.06154 -0.42301,1.4909c-0.31662,0.41963 -0.81562,0.64997 -1.49698,0.69105l-3.25596,0.19629l0.90576,15.02417c0.0446,0.73978 -0.13006,1.32669 -0.52396,1.76075c-0.38477,0.42373 -0.90809,0.65555 -1.56999,0.69545c-0.67163,0.04049 -1.22877,-0.1262 -1.67138,-0.50004c-0.43348,-0.38418 -0.6725,-0.94616 -0.7171,-1.68593z"/><path d="M199.89532,218.53782l-0.69363,-11.5054c-0.03756,-0.62297 0.13205,-1.13142 0.50884,-1.52536c0.37679,-0.39394 0.88154,-0.60999 1.51423,-0.64813c0.61323,-0.03697 1.1357,0.12203 1.5674,0.477c0.43171,0.35498 0.66575,0.83421 0.70214,1.43771l0.69363,11.5054c0.03697,0.61322 -0.1378,1.1171 -0.52433,1.51165c-0.38652,0.39453 -0.8864,0.61028 -1.49963,0.64725c-0.6327,0.03814 -1.15974,-0.1157 -1.58113,-0.46152c-0.42139,-0.34584 -0.65056,-0.82536 -0.68753,-1.43859zM202.55217,226.87687c-0.64244,0.03873 -1.20619,-0.15687 -1.69126,-0.58677c-0.48507,-0.42991 -0.74697,-0.96608 -0.7857,-1.60852c-0.03873,-0.64243 0.15687,-1.20618 0.58676,-1.69124c0.42991,-0.48507 0.96608,-0.74698 1.60851,-0.78571c0.64244,-0.03873 1.20619,0.15687 1.69126,0.58677c0.48507,0.42991 0.74698,0.96607 0.78571,1.6085c0.03873,0.64244 -0.15687,1.20619 -0.58677,1.69127c-0.42991,0.48507 -0.96608,0.74698 -1.60851,0.78571z"/></g><g fill="#000000" stroke="none" stroke-width="0.40889"><path d=""/><path d=""/><path d=""/><path d=""/><path d=""/></g></g><g><path d="M-70.72262,120.72735l3.41261,-38.8896l182.16581,15.98525l161.89414,14.20639l163.77775,14.37168l-5.06534,38.74457l-160.88775,-14.11808l-158.82998,-13.93751z" fill="url(#color-2)" stroke="#ffffff" stroke-width="0"/><g fill="#000000" stroke="none" stroke-width="0.40889"><path d=""/><path d=""/><path d=""/><path d=""/><path d=""/></g><g fill="#000000" stroke="none" stroke-width="0.40889"><path d="M349.44723,144.6266c0.89728,0.07874 1.70982,-0.02792 2.43764,-0.31995c0.72782,-0.29204 1.35324,-0.73253 1.87625,-1.3215c0.52385,-0.59851 0.93072,-1.28903 1.22063,-2.0716c0.30029,-0.79126 0.49023,-1.6403 0.56981,-2.54714c0.10722,-1.22182 -0.00437,-2.36186 -0.33475,-3.42008c-0.33038,-1.05822 -0.88877,-1.92965 -1.67517,-2.61427c-0.77602,-0.69334 -1.74631,-1.0911 -2.91085,-1.19329c-1.16454,-0.10219 -2.19404,0.12009 -3.08849,0.66684c-0.88408,0.53804 -1.58093,1.29931 -2.09056,2.28383c-0.50963,0.98451 -0.81804,2.08768 -0.92526,3.3095c-0.16837,1.91865 0.16342,3.56375 0.99535,4.93533c0.84146,1.3724 2.14994,2.13651 3.9254,2.29231zM349.09166,148.67865c-1.94728,-0.17088 -3.64787,-0.79623 -5.10176,-1.8761c-1.44353,-1.08857 -2.52239,-2.49624 -3.23657,-4.223c-0.70463,-1.72592 -0.96942,-3.58639 -0.79436,-5.5814c0.13318,-1.51774 0.50098,-2.91388 1.10339,-4.18844c0.60241,-1.27456 1.39539,-2.36407 2.37895,-3.26851c0.99309,-0.90361 2.12878,-1.56866 3.40706,-1.99516c1.27911,-0.43604 2.65846,-0.58915 4.138,-0.45931c1.45092,0.12732 2.77214,0.52702 3.96363,1.19909c1.20189,0.66337 2.20834,1.52602 3.01932,2.58794c0.811,1.06192 1.4069,2.2733 1.78767,3.63414c0.38077,1.36084 0.50625,2.78103 0.37641,4.26059c-0.13151,1.49864 -0.49369,2.88567 -1.08657,4.16106c-0.59202,1.26585 -1.38978,2.35494 -2.39326,3.26726c-0.99394,0.91316 -2.13524,1.58735 -3.42389,2.02254c-1.28867,0.4352 -2.668,0.5883 -4.13802,0.45931z"/><path d="M362.17373,147.34492l1.44617,-16.48032c0.06199,-0.70636 0.31144,-1.24719 0.74837,-1.62246c0.43693,-0.37527 1.01812,-0.53109 1.74359,-0.46742l5.18321,0.45484c1.40319,0.12313 2.65632,0.53127 3.75939,1.22445c1.11345,0.68447 1.94306,1.58932 2.48879,2.71453c0.55612,1.11651 0.77428,2.35726 0.6545,3.72227c-0.09298,1.05955 -0.37326,2.00648 -0.84085,2.84078c-0.45721,0.82559 -1.0463,1.50975 -1.76725,2.05248c-0.71141,0.54357 -1.53,0.93826 -2.45576,1.18407c-0.92576,0.24581 -1.885,0.32517 -2.87772,0.23805l-3.26457,-0.28647l-0.42217,4.81093c-0.06366,0.72546 -0.31832,1.27063 -0.76395,1.63552c-0.43525,0.35619 -0.97742,0.50578 -1.62651,0.44882c-0.63954,-0.05612 -1.15173,-0.30306 -1.53656,-0.74083c-0.37445,-0.44648 -0.53068,-1.02291 -0.46869,-1.72927zM367.87742,132.82534l-0.5453,6.21413l2.99251,0.2626c0.89728,0.07874 1.64828,-0.14873 2.25301,-0.68244c0.61427,-0.53287 0.9612,-1.25269 1.04078,-2.15952c0.05109,-0.58228 -0.02693,-1.11817 -0.23407,-1.60768c-0.2063,-0.49906 -0.52681,-0.90231 -0.96154,-1.2098c-0.43389,-0.31702 -0.95153,-0.50193 -1.5529,-0.5547z"/><path d="M318.32937,124.22103c0.66819,0.05864 1.44732,0.22319 2.33739,0.49367c0.89962,0.27132 1.66384,0.66062 2.29266,1.16789c0.62964,0.49772 0.91431,1.09023 0.854,1.7775c-0.05277,0.60137 -0.27937,1.10092 -0.67979,1.49864c-0.39958,0.38818 -0.8905,0.55671 -1.47278,0.50561c-0.26727,-0.02345 -0.55422,-0.09673 -0.86085,-0.21982c-0.29624,-0.1318 -0.60596,-0.27441 -0.92917,-0.42781c-0.31366,-0.15256 -0.63459,-0.27692 -0.96283,-0.37305c-0.31784,-0.10483 -0.67245,-0.17444 -1.06382,-0.20878c-0.65864,-0.0578 -1.24169,0.06418 -1.74912,0.36594c-0.49789,0.3026 -0.77236,0.74502 -0.82346,1.32731c-0.05529,0.63001 0.4301,1.1824 1.45615,1.6572c1.03642,0.4661 2.18488,0.97087 3.44539,1.51434c1.27004,0.5443 2.31391,1.30923 3.13161,2.29479c0.81855,0.97601 1.15244,2.32312 1.00166,4.04131c-0.11727,1.33637 -0.56042,2.49505 -1.32945,3.47604c-0.76904,0.98099 -1.75099,1.70282 -2.94588,2.16549c-1.19488,0.46267 -2.47004,0.63453 -3.8255,0.51558c-1.67047,-0.14659 -3.25753,-0.53114 -4.76119,-1.15366c-1.49328,-0.63122 -2.18673,-1.55297 -2.08035,-2.76526c0.05193,-0.59182 0.27167,-1.06792 0.6592,-1.42829c0.39791,-0.36909 0.89277,-0.52765 1.48459,-0.47572c0.28637,0.02513 0.59719,0.10049 0.93245,0.2261c0.33526,0.12561 0.76179,0.30732 1.27957,0.54514c0.51863,0.22827 0.97379,0.4125 1.36549,0.55268c0.39254,0.13063 0.80836,0.21521 1.24744,0.25374c0.63001,0.05529 1.17855,-0.00239 1.64562,-0.17302c0.4679,-0.18018 0.83314,-0.45113 1.09574,-0.81285c0.27214,-0.36088 0.42957,-0.78473 0.47229,-1.27155c0.06534,-0.74455 -0.15445,-1.25441 -0.65933,-1.52956c-0.49535,-0.27432 -1.65253,-0.78949 -3.47152,-1.54549c-1.81899,-0.756 -3.13365,-1.55912 -3.94398,-2.40937c-0.80079,-0.84941 -1.13418,-2.03776 -1.00016,-3.56503c0.11727,-1.33637 0.5492,-2.47679 1.29579,-3.42128c0.75698,-0.9532 1.71776,-1.65283 2.88232,-2.09892c1.16457,-0.4461 2.39117,-0.6126 3.67981,-0.49952z"/><path d="M329.75012,144.37813l1.29288,-14.73349l-3.19297,-0.28019c-0.64909,-0.05696 -1.12829,-0.29621 -1.43758,-0.71772c-0.30846,-0.43108 -0.4384,-0.92343 -0.38982,-1.47707c0.03015,-0.34364 0.14497,-0.66541 0.34442,-0.96534c0.18992,-0.30076 0.44555,-0.52842 0.76694,-0.68298c0.33175,-0.16327 0.68854,-0.22815 1.07036,-0.19464l10.78165,0.9461c0.38182,0.03351 0.71709,0.15911 1.00578,0.37682c0.29909,0.20901 0.51594,0.47814 0.65057,0.80737c0.14417,0.33008 0.20119,0.66693 0.17103,1.01057c-0.04858,0.55365 -0.25752,1.01627 -0.62679,1.38786c-0.36843,0.36205 -0.88674,0.51375 -1.55492,0.45512l-3.19297,-0.28019l-1.29288,14.73349c-0.06366,0.72546 -0.31831,1.27064 -0.76394,1.63554c-0.43526,0.35618 -0.97743,0.50579 -1.62652,0.44883c-0.65864,-0.0578 -1.17602,-0.30039 -1.55214,-0.72777c-0.36574,-0.4361 -0.51677,-1.01688 -0.45311,-1.74234z"/><path d="M380.46549,143.40805l0.99008,-11.28281c0.05361,-0.61091 0.29201,-1.08056 0.7152,-1.40894c0.4232,-0.32838 0.94503,-0.46535 1.56548,-0.41091c0.60137,0.05277 1.08617,0.28288 1.45442,0.69033c0.36824,0.40746 0.5264,0.9071 0.47446,1.49893l-0.99008,11.2828c-0.05277,0.60136 -0.29552,1.06582 -0.72827,1.39338c-0.43274,0.32754 -0.9498,0.46493 -1.55116,0.41216c-0.62045,-0.05444 -1.11046,-0.2802 -1.46999,-0.67727c-0.35953,-0.39709 -0.51291,-0.8963 -0.46014,-1.49767zM381.84153,151.89736c-0.63001,-0.05529 -1.14964,-0.32694 -1.55891,-0.81494c-0.40927,-0.488 -0.58626,-1.04702 -0.53098,-1.67703c0.05528,-0.63 0.32694,-1.14963 0.81493,-1.5589c0.488,-0.40927 1.04702,-0.58627 1.67702,-0.53099c0.63001,0.05529 1.14964,0.32694 1.55891,0.81495c0.40927,0.488 0.58627,1.04701 0.53099,1.67701c-0.05529,0.63001 -0.32694,1.14964 -0.81495,1.55892c-0.488,0.40927 -1.04702,0.58627 -1.67702,0.53099z"/></g><g fill="#000000" stroke="none" stroke-width="0.40889"><path d="M192.39306,130.84492c0.89728,0.07874 1.70983,-0.02791 2.43765,-0.31994c0.72782,-0.29204 1.35323,-0.73254 1.87625,-1.3215c0.52384,-0.59851 0.93073,-1.28903 1.22063,-2.07159c0.30029,-0.79126 0.49023,-1.64031 0.56981,-2.54714c0.10722,-1.22182 -0.00436,-2.36185 -0.33474,-3.42007c-0.33038,-1.05822 -0.88877,-1.92965 -1.67517,-2.61427c-0.77602,-0.69334 -1.74631,-1.0911 -2.91085,-1.19329c-1.16454,-0.10219 -2.19404,0.12009 -3.08849,0.66684c-0.88408,0.53804 -1.58093,1.2993 -2.09056,2.28382c-0.50963,0.98451 -0.81806,2.08769 -0.92527,3.30951c-0.16837,1.91865 0.16342,3.56375 0.99535,4.93533c0.84146,1.3724 2.14994,2.1365 3.9254,2.2923zM192.03749,134.89699c-1.94728,-0.17088 -3.64786,-0.79624 -5.10176,-1.8761c-1.44353,-1.08857 -2.5224,-2.49624 -3.23657,-4.223c-0.70463,-1.72592 -0.96943,-3.58639 -0.79436,-5.58141c0.13318,-1.51774 0.50099,-2.91388 1.1034,-4.18844c0.6024,-1.27456 1.39539,-2.36407 2.37894,-3.26851c0.99309,-0.90361 2.12878,-1.56865 3.40706,-1.99516c1.27911,-0.43604 2.65846,-0.58915 4.138,-0.45932c1.45092,0.12732 2.77214,0.52702 3.96363,1.1991c1.20188,0.66337 2.20834,1.52601 3.01932,2.58794c0.811,1.06192 1.4069,2.2733 1.78767,3.63414c0.38077,1.36084 0.50625,2.78103 0.37641,4.26059c-0.13151,1.49864 -0.4937,2.88567 -1.08657,4.16107c-0.59202,1.26585 -1.38977,2.35493 -2.39326,3.26726c-0.99395,0.91316 -2.13524,1.58735 -3.4239,2.02254c-1.28867,0.4352 -2.668,0.58831 -4.13802,0.45931z"/><path d="M205.11956,133.56325l1.44617,-16.48032c0.06199,-0.70636 0.31144,-1.24719 0.74837,-1.62246c0.43693,-0.37527 1.01812,-0.53108 1.74359,-0.46742l5.18322,0.45483c1.40319,0.12313 2.65632,0.53128 3.75939,1.22446c1.11345,0.68447 1.94306,1.58932 2.48879,2.71453c0.55612,1.11651 0.77428,2.35727 0.6545,3.72227c-0.09298,1.05955 -0.37326,2.00648 -0.84085,2.84078c-0.45721,0.82559 -1.0463,1.50975 -1.76725,2.05248c-0.71141,0.54357 -1.53,0.93826 -2.45576,1.18407c-0.92576,0.24581 -1.885,0.32517 -2.87772,0.23806l-3.26457,-0.28647l-0.42217,4.81093c-0.06366,0.72546 -0.31832,1.27063 -0.76395,1.63552c-0.43525,0.35619 -0.97742,0.50579 -1.62651,0.44883c-0.63954,-0.05612 -1.15173,-0.30306 -1.53656,-0.74083c-0.37444,-0.44648 -0.53068,-1.02291 -0.46869,-1.72927zM210.82327,119.04366l-0.54529,6.21413l2.99251,0.2626c0.89728,0.07874 1.64829,-0.14873 2.25301,-0.68244c0.61427,-0.53287 0.9612,-1.25269 1.04078,-2.15951c0.05109,-0.58228 -0.02693,-1.11817 -0.23407,-1.60768c-0.2063,-0.49906 -0.52681,-0.90231 -0.96153,-1.2098c-0.43389,-0.31702 -0.95153,-0.50193 -1.55289,-0.5547z"/><path d="M161.27523,110.43936c0.66818,0.05864 1.44732,0.22319 2.3374,0.49368c0.89962,0.27132 1.66384,0.66062 2.29266,1.16789c0.62964,0.49772 0.91431,1.09023 0.85399,1.7775c-0.05277,0.60137 -0.27937,1.10091 -0.67978,1.49863c-0.39958,0.38818 -0.8905,0.55671 -1.47278,0.50561c-0.26727,-0.02345 -0.55423,-0.09673 -0.86085,-0.21982c-0.29624,-0.1318 -0.60597,-0.27441 -0.92917,-0.42781c-0.31366,-0.15256 -0.63459,-0.27692 -0.96282,-0.37305c-0.31785,-0.10484 -0.67246,-0.17444 -1.06383,-0.20879c-0.65864,-0.0578 -1.24169,0.06418 -1.7491,0.36594c-0.49789,0.3026 -0.77238,0.74502 -0.82347,1.32731c-0.05529,0.63001 0.43011,1.18241 1.45615,1.65721c1.03642,0.4661 2.18489,0.97087 3.44539,1.51433c1.27004,0.5443 2.31392,1.30923 3.13161,2.29479c0.81855,0.97601 1.15243,2.32312 1.00165,4.04131c-0.11727,1.33637 -0.56042,2.49506 -1.32944,3.47605c-0.76904,0.98099 -1.751,1.70281 -2.94589,2.16548c-1.19488,0.46267 -2.47003,0.63453 -3.82549,0.51559c-1.67047,-0.14659 -3.25753,-0.53114 -4.76118,-1.15366c-1.49328,-0.63122 -2.18673,-1.55297 -2.08035,-2.76526c0.05193,-0.59182 0.27167,-1.06792 0.65919,-1.42829c0.39791,-0.36909 0.89278,-0.52766 1.48459,-0.47573c0.28637,0.02513 0.59719,0.1005 0.93245,0.22611c0.33526,0.12561 0.76178,0.30732 1.27958,0.54514c0.51862,0.22827 0.97379,0.4125 1.36549,0.55268c0.39254,0.13063 0.80836,0.21521 1.24745,0.25374c0.63001,0.05529 1.17855,-0.00239 1.64561,-0.17302c0.4679,-0.18018 0.83315,-0.45112 1.09574,-0.81284c0.27214,-0.36088 0.42957,-0.78474 0.47229,-1.27155c0.06534,-0.74455 -0.15445,-1.25441 -0.65933,-1.52956c-0.49535,-0.27432 -1.65253,-0.78949 -3.47153,-1.54549c-1.81899,-0.756 -3.13365,-1.55912 -3.94398,-2.40937c-0.80079,-0.84941 -1.13418,-2.03777 -1.00016,-3.56504c0.11727,-1.33637 0.5492,-2.47679 1.29579,-3.42128c0.75698,-0.9532 1.71776,-1.65283 2.88232,-2.09892c1.16457,-0.4461 2.39117,-0.6126 3.67981,-0.49952z"/><path d="M172.69597,130.59647l1.29288,-14.73349l-3.19297,-0.28019c-0.64909,-0.05696 -1.12829,-0.2962 -1.43759,-0.71771c-0.30846,-0.43108 -0.43839,-0.92343 -0.38981,-1.47707c0.03015,-0.34364 0.14497,-0.66541 0.34442,-0.96534c0.18992,-0.30076 0.44556,-0.52842 0.76693,-0.68298c0.33175,-0.16327 0.68854,-0.22815 1.07036,-0.19464l10.78165,0.9461c0.38182,0.03351 0.71709,0.15912 1.00578,0.37683c0.29909,0.20901 0.51594,0.47814 0.65057,0.80737c0.14418,0.33008 0.20119,0.66693 0.17104,1.01057c-0.04858,0.55365 -0.25752,1.01627 -0.62679,1.38786c-0.36843,0.36205 -0.88674,0.51376 -1.55493,0.45512l-3.19297,-0.28019l-1.29288,14.73349c-0.06366,0.72546 -0.31831,1.27064 -0.76394,1.63554c-0.43526,0.35618 -0.97743,0.50579 -1.62653,0.44883c-0.65864,-0.0578 -1.17602,-0.30039 -1.55213,-0.72776c-0.36574,-0.4361 -0.51677,-1.01688 -0.45311,-1.74234z"/><path d="M223.41132,129.62639l0.99008,-11.2828c0.05361,-0.61091 0.292,-1.08056 0.7152,-1.40894c0.4232,-0.32838 0.94503,-0.46535 1.56548,-0.41091c0.60137,0.05277 1.08617,0.28288 1.45441,0.69033c0.36824,0.40746 0.5264,0.9071 0.47447,1.49892l-0.99008,11.28281c-0.05277,0.60136 -0.29552,1.06581 -0.72827,1.39338c-0.43274,0.32754 -0.9498,0.46493 -1.55116,0.41216c-0.62045,-0.05444 -1.11046,-0.2802 -1.46999,-0.67727c-0.35953,-0.39709 -0.51292,-0.8963 -0.46015,-1.49767zM224.78738,138.11568c-0.63001,-0.05529 -1.14964,-0.32694 -1.55891,-0.81494c-0.40927,-0.488 -0.58626,-1.04702 -0.53097,-1.67703c0.05528,-0.63 0.32694,-1.14963 0.81493,-1.5589c0.488,-0.40927 1.04702,-0.58626 1.67702,-0.53098c0.63001,0.05529 1.14964,0.32694 1.55891,0.81494c0.40927,0.488 0.58626,1.04701 0.53098,1.67701c-0.05529,0.63001 -0.32694,1.14964 -0.81494,1.55892c-0.488,0.40927 -1.04702,0.58626 -1.67702,0.53098z"/></g><g fill="#000000" stroke="none" stroke-width="0.40889"><path d="M35.33892,117.06326c0.89728,0.07874 1.70983,-0.02792 2.43765,-0.31995c0.72782,-0.29204 1.35324,-0.73253 1.87625,-1.3215c0.52384,-0.59851 0.93072,-1.28903 1.22063,-2.0716c0.30029,-0.79126 0.49023,-1.6403 0.56981,-2.54714c0.10722,-1.22182 -0.00436,-2.36186 -0.33474,-3.42008c-0.33038,-1.05822 -0.88877,-1.92965 -1.67517,-2.61427c-0.77602,-0.69334 -1.74631,-1.0911 -2.91085,-1.19329c-1.16454,-0.10219 -2.19405,0.12009 -3.0885,0.66684c-0.88408,0.53804 -1.58093,1.29931 -2.09055,2.28383c-0.50963,0.98451 -0.81806,2.08768 -0.92527,3.3095c-0.16837,1.91865 0.16342,3.56375 0.99535,4.93533c0.84146,1.3724 2.14994,2.13651 3.9254,2.29231zM34.98335,121.11532c-1.94728,-0.17088 -3.64786,-0.79623 -5.10176,-1.8761c-1.44353,-1.08857 -2.5224,-2.49624 -3.23657,-4.223c-0.70463,-1.72592 -0.96943,-3.58639 -0.79436,-5.5814c0.13318,-1.51774 0.50098,-2.91388 1.10339,-4.18844c0.6024,-1.27456 1.39539,-2.36408 2.37895,-3.26852c0.99309,-0.90361 2.12878,-1.56865 3.40706,-1.99516c1.27911,-0.43604 2.65846,-0.58915 4.138,-0.45931c1.45092,0.12732 2.77213,0.52701 3.96362,1.19909c1.20188,0.66337 2.20834,1.52602 3.01932,2.58794c0.811,1.06192 1.40689,2.2733 1.78766,3.63414c0.38077,1.36084 0.50625,2.78103 0.37641,4.26058c-0.13151,1.49864 -0.4937,2.88567 -1.08657,4.16107c-0.59202,1.26585 -1.38977,2.35494 -2.39326,3.26726c-0.99395,0.91316 -2.13524,1.58734 -3.4239,2.02254c-1.28867,0.4352 -2.668,0.58831 -4.13802,0.45931z"/><path d="M48.06543,119.78158l1.44617,-16.48032c0.06199,-0.70636 0.31144,-1.24719 0.74837,-1.62246c0.43693,-0.37527 1.01812,-0.53109 1.74359,-0.46742l5.18321,0.45484c1.40319,0.12313 2.65632,0.53127 3.7594,1.22445c1.11345,0.68447 1.94306,1.58932 2.48878,2.71453c0.55612,1.11651 0.77429,2.35726 0.65451,3.72227c-0.09298,1.05955 -0.37326,2.00648 -0.84085,2.84078c-0.45721,0.82559 -1.0463,1.50975 -1.76726,2.05248c-0.71141,0.54357 -1.52999,0.93826 -2.45575,1.18407c-0.92576,0.24581 -1.885,0.32517 -2.87773,0.23805l-3.26456,-0.28647l-0.42217,4.81093c-0.06366,0.72546 -0.31832,1.27063 -0.76395,1.63552c-0.43525,0.35619 -0.97742,0.50578 -1.62651,0.44882c-0.63954,-0.05612 -1.15174,-0.30306 -1.53656,-0.74083c-0.37444,-0.44648 -0.53067,-1.02291 -0.46869,-1.72927zM53.76911,105.262l-0.5453,6.21413l2.99251,0.2626c0.89728,0.07874 1.64828,-0.14873 2.25301,-0.68244c0.61427,-0.53287 0.9612,-1.25269 1.04078,-2.15952c0.05109,-0.58228 -0.02693,-1.11817 -0.23407,-1.60768c-0.2063,-0.49906 -0.52681,-0.90231 -0.96154,-1.2098c-0.43389,-0.31702 -0.95152,-0.50193 -1.55288,-0.5547z"/><path d="M4.22109,96.6577c0.66818,0.05864 1.44732,0.22319 2.33739,0.49367c0.89962,0.27132 1.66384,0.66062 2.29266,1.16789c0.62964,0.49772 0.91431,1.09023 0.854,1.7775c-0.05277,0.60137 -0.27937,1.10092 -0.67978,1.49864c-0.39958,0.38818 -0.8905,0.55671 -1.47279,0.50561c-0.26727,-0.02345 -0.55422,-0.09673 -0.86085,-0.21982c-0.29624,-0.1318 -0.60597,-0.27441 -0.92917,-0.42781c-0.31366,-0.15256 -0.63459,-0.27692 -0.96283,-0.37305c-0.31785,-0.10484 -0.67245,-0.17444 -1.06382,-0.20878c-0.65864,-0.0578 -1.24169,0.06418 -1.74911,0.36594c-0.49789,0.3026 -0.77237,0.74502 -0.82347,1.32731c-0.05529,0.63001 0.43011,1.1824 1.45615,1.6572c1.03642,0.4661 2.18488,0.97087 3.44538,1.51434c1.27004,0.5443 2.31392,1.30923 3.13161,2.29479c0.81855,0.97601 1.15243,2.32312 1.00166,4.04131c-0.11727,1.33637 -0.56043,2.49505 -1.32944,3.47604c-0.76904,0.98099 -1.75099,1.70282 -2.94588,2.16549c-1.19488,0.46267 -2.47004,0.63453 -3.8255,0.51558c-1.67047,-0.14659 -3.25753,-0.53114 -4.76118,-1.15365c-1.49328,-0.63122 -2.18673,-1.55297 -2.08035,-2.76526c0.05193,-0.59182 0.27167,-1.06792 0.6592,-1.4283c0.39791,-0.36909 0.89277,-0.52765 1.48459,-0.47572c0.28637,0.02513 0.59719,0.10049 0.93245,0.2261c0.33526,0.12561 0.76178,0.30732 1.27957,0.54514c0.51862,0.22827 0.97379,0.4125 1.36549,0.55268c0.39254,0.13063 0.80836,0.21521 1.24746,0.25374c0.63001,0.05529 1.17855,-0.00238 1.64561,-0.17302c0.4679,-0.18018 0.83315,-0.45113 1.09574,-0.81285c0.27214,-0.36088 0.42957,-0.78473 0.47229,-1.27155c0.06534,-0.74455 -0.15444,-1.25441 -0.65932,-1.52956c-0.49535,-0.27432 -1.65254,-0.78949 -3.47153,-1.54549c-1.81899,-0.756 -3.13364,-1.55912 -3.94398,-2.40937c-0.80079,-0.84941 -1.13418,-2.03776 -1.00016,-3.56503c0.11727,-1.33637 0.5492,-2.47679 1.29579,-3.42128c0.75698,-0.9532 1.71776,-1.65283 2.88232,-2.09892c1.16457,-0.4461 2.39117,-0.6126 3.67981,-0.49952z"/><path d="M15.64183,116.8148l1.29288,-14.73349l-3.19297,-0.28019c-0.64909,-0.05696 -1.12828,-0.29621 -1.43758,-0.71772c-0.30846,-0.43108 -0.4384,-0.92343 -0.38982,-1.47707c0.03015,-0.34364 0.14497,-0.66541 0.34442,-0.96533c0.18992,-0.30076 0.44555,-0.52843 0.76693,-0.68299c0.33175,-0.16327 0.68854,-0.22815 1.07036,-0.19464l10.78165,0.9461c0.38182,0.03351 0.71709,0.15911 1.00578,0.37682c0.29909,0.20901 0.51594,0.47814 0.65057,0.80737c0.14418,0.33008 0.20119,0.66693 0.17103,1.01057c-0.04858,0.55365 -0.25751,1.01627 -0.62679,1.38786c-0.36843,0.36205 -0.88674,0.51375 -1.55493,0.45512l-3.19297,-0.28019l-1.29288,14.73349c-0.06366,0.72546 -0.31831,1.27064 -0.76394,1.63554c-0.43526,0.35618 -0.97743,0.50579 -1.62652,0.44883c-0.65864,-0.0578 -1.17602,-0.30039 -1.55214,-0.72777c-0.36574,-0.4361 -0.51677,-1.01688 -0.45311,-1.74234z"/><path d="M66.35716,115.84473l0.99008,-11.28281c0.05361,-0.61091 0.292,-1.08056 0.7152,-1.40894c0.4232,-0.32838 0.94503,-0.46535 1.56548,-0.41091c0.60137,0.05277 1.08617,0.28288 1.45442,0.69033c0.36824,0.40746 0.5264,0.9071 0.47447,1.49893l-0.99008,11.2828c-0.05277,0.60136 -0.29552,1.06582 -0.72827,1.39338c-0.43274,0.32754 -0.9498,0.46493 -1.55116,0.41216c-0.62045,-0.05444 -1.11046,-0.2802 -1.47,-0.67727c-0.35953,-0.39709 -0.51291,-0.8963 -0.46014,-1.49767zM67.73323,124.33403c-0.63001,-0.05529 -1.14964,-0.32694 -1.55891,-0.81494c-0.40927,-0.488 -0.58626,-1.04702 -0.53098,-1.67703c0.05528,-0.63 0.32694,-1.14963 0.81494,-1.5589c0.488,-0.40927 1.04702,-0.58627 1.67702,-0.53099c0.63001,0.05529 1.14964,0.32694 1.55891,0.81495c0.40927,0.488 0.58627,1.04701 0.53099,1.67701c-0.05529,0.63001 -0.32694,1.14964 -0.81494,1.55892c-0.488,0.40927 -1.04702,0.58627 -1.67702,0.53099z"/></g></g><g><path d="M-41.19201,311.17148l0.74918,-30.70184l146.87002,3.58391l121.97617,2.97645l138.40597,3.37737l-1.01697,30.69531l-139.35659,-3.40056l-122.02495,-2.97764z" fill="url(#color-3)" stroke="#ffffff" stroke-width="0"/><g fill="#000000" stroke="none" stroke-width="0.40889"><path d=""/><path d=""/><path d=""/><path d=""/><path d=""/></g><g fill="#000000" stroke="none" stroke-width="0.40889"><path d="M289.87215,309.08205c0.70837,0.01729 1.34101,-0.10677 1.89793,-0.37217c0.55692,-0.26541 1.02608,-0.64228 1.40747,-1.13063c0.38158,-0.49589 0.66674,-1.05822 0.85551,-1.687c0.19649,-0.63613 0.30348,-1.31214 0.32095,-2.02806c0.02354,-0.96458 -0.12064,-1.85409 -0.43255,-2.66851c-0.3119,-0.81442 -0.79355,-1.47087 -1.44493,-1.96934c-0.64367,-0.50583 -1.42519,-0.76996 -2.34455,-0.7924c-0.91936,-0.02243 -1.7166,0.20317 -2.3917,0.67682c-0.66739,0.46629 -1.17672,1.09855 -1.52796,1.8968c-0.35125,0.79824 -0.53864,1.67965 -0.56218,2.64424c-0.03696,1.5147 0.30517,2.78982 1.02639,3.82536c0.72875,1.03572 1.79396,1.57068 3.19563,1.60489zM289.79409,312.28101c-1.5373,-0.03751 -2.90348,-0.44409 -4.09854,-1.21974c-1.18735,-0.783 -2.10423,-1.83463 -2.75063,-3.15488c-0.63887,-1.32006 -0.93909,-2.76759 -0.90066,-4.34257c0.02924,-1.1982 0.24871,-2.31257 0.65841,-3.34313c0.4097,-1.03056 0.9782,-1.9253 1.70552,-2.6842c0.73484,-0.75872 1.59347,-1.33721 2.57589,-1.7355c0.9826,-0.40582 2.05793,-0.59448 3.22598,-0.56598c1.14545,0.02795 2.20257,0.27618 3.17138,0.7447c0.97654,0.46117 1.80952,1.08848 2.49893,1.88196c0.68943,0.79347 1.21739,1.71496 1.58387,2.76447c0.36648,1.0495 0.53548,2.15828 0.50697,3.32633c-0.02887,1.18312 -0.24439,2.29006 -0.64656,3.32081c-0.40198,1.02321 -0.97425,1.91785 -1.71681,2.68392c-0.73503,0.76626 -1.59761,1.35221 -2.58775,1.75784c-0.99014,0.40563 -2.06547,0.5943 -3.22599,0.56598z"/><path d="M299.99872,310.58462l0.31748,-13.01058c0.01361,-0.55765 0.18262,-0.99463 0.50703,-1.31095c0.32441,-0.31631 0.77298,-0.46749 1.34571,-0.45351l4.09195,0.09985c1.10776,0.02703 2.11186,0.28528 3.01229,0.77475c0.90815,0.48212 1.60438,1.15135 2.08868,2.00768c0.49202,0.84898 0.72488,1.81228 0.69859,2.8899c-0.02041,0.83647 -0.19346,1.59383 -0.51917,2.27205c-0.31798,0.67087 -0.74653,1.23724 -1.28562,1.69913c-0.53156,0.46207 -1.15464,0.81257 -1.86927,1.0515c-0.71462,0.23893 -1.46379,0.34884 -2.24751,0.32972l-2.57725,-0.06289l-0.09268,3.79805c-0.01398,0.57272 -0.18685,1.01338 -0.51861,1.32197c-0.32404,0.30125 -0.74227,0.4456 -1.25471,0.4331c-0.50489,-0.01232 -0.91928,-0.18077 -1.24313,-0.50537c-0.31615,-0.33195 -0.4674,-0.77675 -0.45379,-1.3344zM303.75613,298.90214l-0.11971,4.90582l2.36247,0.05765c0.70837,0.01729 1.28669,-0.19858 1.73498,-0.6476c0.45582,-0.44884 0.69248,-1.0312 0.70995,-1.7471c0.01122,-0.45969 -0.07664,-0.87655 -0.26356,-1.25058c-0.18674,-0.38157 -0.45838,-0.68227 -0.81495,-0.9021c-0.35638,-0.22736 -0.77196,-0.34684 -1.24672,-0.35843z"/><path d="M264.42861,294.60589c0.52751,0.01287 1.14738,0.1034 1.8596,0.27158c0.71976,0.16837 1.33908,0.43608 1.85794,0.80314c0.51904,0.35952 0.77194,0.81057 0.7587,1.35314c-0.01158,0.47476 -0.16469,0.8782 -0.45933,1.21032c-0.29445,0.32459 -0.67151,0.48127 -1.1312,0.47005c-0.211,-0.00515 -0.43992,-0.04844 -0.68677,-0.12986c-0.23912,-0.08878 -0.48936,-0.18537 -0.75073,-0.28976c-0.25382,-0.10421 -0.51197,-0.18592 -0.77443,-0.2451c-0.25474,-0.06653 -0.53661,-0.10358 -0.84558,-0.11112c-0.51997,-0.01269 -0.97168,0.11202 -1.35508,0.37411c-0.37588,0.26228 -0.56941,0.62326 -0.58063,1.08295c-0.01214,0.49737 0.39636,0.90697 1.22548,1.22881c0.83684,0.3145 1.76354,0.6538 2.78015,1.01792c1.02413,0.36431 1.88164,0.91305 2.57254,1.64624c0.69108,0.72565 1.02008,1.7667 0.98698,3.12315c-0.02574,1.05502 -0.31616,1.98669 -0.87124,2.79504c-0.55509,0.80835 -1.29021,1.42379 -2.20536,1.84634c-0.91514,0.42255 -1.90775,0.62076 -2.97783,0.59465c-1.31877,-0.03218 -2.58387,-0.25533 -3.7953,-0.66945c-1.20371,-0.42147 -1.79389,-1.11072 -1.77053,-2.06778c0.0114,-0.46722 0.16029,-0.85191 0.44665,-1.15408c0.29408,-0.30952 0.67473,-0.45858 1.14195,-0.44717c0.22608,0.00552 0.47385,0.04926 0.7433,0.13124c0.26945,0.08198 0.61334,0.20347 1.03166,0.36449c0.41851,0.15348 0.785,0.27553 1.09949,0.36614c0.31467,0.08308 0.64533,0.12884 0.99197,0.1373c0.49737,0.01214 0.92517,-0.06036 1.2834,-0.21751c0.35841,-0.16468 0.63171,-0.39553 0.81993,-0.69255c0.19575,-0.29684 0.29831,-0.63742 0.30769,-1.02174c0.01434,-0.58779 -0.18351,-0.97717 -0.59355,-1.16815c-0.40252,-0.19079 -1.3366,-0.53782 -2.80221,-1.04108c-1.46562,-0.50327 -2.53762,-1.06855 -3.21602,-1.69587c-0.67086,-0.62714 -0.99159,-1.54357 -0.96216,-2.7493c0.02574,-1.05502 0.30826,-1.9718 0.84754,-2.75038c0.547,-0.78593 1.26659,-1.3829 2.15876,-1.79092c0.89217,-0.40803 1.84692,-0.59963 2.86425,-0.5748z"/><path d="M274.39552,309.86456l0.28383,-11.63153l-2.52073,-0.06151c-0.51244,-0.0125 -0.90053,-0.17655 -1.16428,-0.49214c-0.26357,-0.32313 -0.39003,-0.70323 -0.37936,-1.14031c0.00662,-0.27129 0.08079,-0.52962 0.2225,-0.77499c0.13418,-0.24555 0.32358,-0.43698 0.56823,-0.57428c0.25236,-0.14465 0.52925,-0.21329 0.83069,-0.20593l8.5117,0.2077c0.30143,0.00736 0.57089,0.08933 0.80835,0.24593c0.24519,0.14925 0.4288,0.34979 0.55084,0.60158c0.12957,0.25199 0.19106,0.51363 0.18444,0.78492c-0.01067,0.43709 -0.15174,0.81066 -0.42322,1.12073c-0.27129,0.30253 -0.67069,0.44736 -1.1982,0.43449l-2.52073,-0.06151l-0.28383,11.63153c-0.01398,0.57272 -0.18685,1.01338 -0.51861,1.32199c-0.32405,0.30125 -0.74228,0.44561 -1.25472,0.43311c-0.51997,-0.01269 -0.93821,-0.17747 -1.25471,-0.49434c-0.30879,-0.32423 -0.45618,-0.77271 -0.44221,-1.34543z"/><path d="M314.16432,306.58594l0.21736,-8.90734c0.01177,-0.48229 0.17563,-0.86285 0.49158,-1.14167c0.31596,-0.27882 0.71885,-0.41225 1.20868,-0.4003c0.47476,0.01158 0.8668,0.16819 1.17613,0.4698c0.30933,0.30162 0.4583,0.68604 0.4469,1.15327l-0.21736,8.90734c-0.01158,0.47475 -0.17912,0.85145 -0.50262,1.1301c-0.32349,0.27864 -0.72262,0.41216 -1.19737,0.40058c-0.48983,-0.01195 -0.88573,-0.16488 -1.18771,-0.45878c-0.30198,-0.29391 -0.44717,-0.67823 -0.43559,-1.15299zM315.66598,313.18267c-0.49737,-0.01214 -0.91882,-0.19962 -1.26436,-0.56245c-0.34554,-0.36282 -0.51224,-0.79292 -0.5001,-1.29029c0.01214,-0.49736 0.19962,-0.91881 0.56244,-1.26435c0.36282,-0.34554 0.79292,-0.51225 1.29028,-0.50011c0.49737,0.01214 0.91882,0.19962 1.26436,0.56245c0.34554,0.36282 0.51225,0.79292 0.50011,1.29028c-0.01214,0.49737 -0.19962,0.91882 -0.56245,1.26436c-0.36282,0.34554 -0.79292,0.51225 -1.29028,0.50011z"/></g><g fill="#000000" stroke="none" stroke-width="0.40889"><path d="M165.88394,306.05652c0.70837,0.01729 1.34102,-0.10677 1.89794,-0.37217c0.55692,-0.26541 1.02608,-0.64228 1.40747,-1.13063c0.38157,-0.49589 0.66674,-1.05822 0.85551,-1.687c0.19649,-0.63613 0.30348,-1.31214 0.32095,-2.02806c0.02354,-0.96458 -0.12064,-1.85409 -0.43255,-2.66851c-0.3119,-0.81442 -0.79355,-1.47087 -1.44493,-1.96934c-0.64367,-0.50583 -1.42519,-0.76996 -2.34455,-0.7924c-0.91936,-0.02243 -1.7166,0.20317 -2.3917,0.67682c-0.66739,0.46629 -1.17672,1.09855 -1.52796,1.8968c-0.35125,0.79824 -0.53865,1.67965 -0.56219,2.64424c-0.03696,1.5147 0.30517,2.78982 1.02639,3.82536c0.72875,1.03572 1.79396,1.57068 3.19563,1.60489zM165.80587,309.25547c-1.5373,-0.03751 -2.90348,-0.44409 -4.09854,-1.21974c-1.18735,-0.783 -2.10424,-1.83463 -2.75064,-3.15488c-0.63887,-1.32006 -0.93909,-2.76759 -0.90066,-4.34257c0.02924,-1.1982 0.24871,-2.31257 0.65841,-3.34313c0.40969,-1.03056 0.9782,-1.9253 1.70551,-2.6842c0.73484,-0.75872 1.59347,-1.33721 2.57589,-1.7355c0.9826,-0.40582 2.05793,-0.59448 3.22598,-0.56598c1.14545,0.02795 2.20257,0.27618 3.17138,0.7447c0.97653,0.46117 1.80952,1.08848 2.49893,1.88196c0.68943,0.79347 1.21739,1.71496 1.58387,2.76447c0.36648,1.0495 0.53548,2.15828 0.50697,3.32633c-0.02887,1.18312 -0.24439,2.29006 -0.64656,3.32081c-0.40198,1.02321 -0.97424,1.91785 -1.71681,2.68392c-0.73504,0.76626 -1.59761,1.35221 -2.58775,1.75784c-0.99014,0.40563 -2.06547,0.5943 -3.22599,0.56598z"/><path d="M176.01053,307.55906l0.31748,-13.01058c0.01361,-0.55765 0.18262,-0.99463 0.50703,-1.31095c0.32441,-0.31631 0.77298,-0.46749 1.34571,-0.45351l4.09195,0.09985c1.10776,0.02703 2.11186,0.28528 3.01229,0.77475c0.90815,0.48212 1.60438,1.15135 2.08868,2.00768c0.49202,0.84898 0.72488,1.81228 0.69859,2.8899c-0.02041,0.83647 -0.19346,1.59383 -0.51917,2.27205c-0.31798,0.67087 -0.74653,1.23724 -1.28562,1.69913c-0.53156,0.46207 -1.15464,0.81257 -1.86927,1.0515c-0.71462,0.23893 -1.46379,0.34884 -2.24751,0.32972l-2.57725,-0.06289l-0.09268,3.79805c-0.01398,0.57272 -0.18685,1.01338 -0.51861,1.32197c-0.32404,0.30125 -0.74227,0.4456 -1.25471,0.4331c-0.50489,-0.01232 -0.91928,-0.18077 -1.24313,-0.50537c-0.31614,-0.33195 -0.4674,-0.77675 -0.45379,-1.3344zM179.76794,295.87658l-0.11971,4.90582l2.36247,0.05765c0.70837,0.01729 1.28669,-0.19858 1.73498,-0.6476c0.45582,-0.44884 0.69248,-1.0312 0.70995,-1.7471c0.01122,-0.45969 -0.07664,-0.87655 -0.26356,-1.25058c-0.18674,-0.38157 -0.45838,-0.68227 -0.81495,-0.9021c-0.35638,-0.22736 -0.77196,-0.34684 -1.24671,-0.35843z"/><path d="M140.44042,291.58034c0.5275,0.01287 1.14738,0.1034 1.8596,0.27158c0.71976,0.16837 1.33908,0.43608 1.85794,0.80314c0.51904,0.35952 0.77194,0.81057 0.7587,1.35314c-0.01158,0.47476 -0.16469,0.8782 -0.45933,1.21032c-0.29445,0.32459 -0.67151,0.48127 -1.1312,0.47005c-0.211,-0.00515 -0.43993,-0.04844 -0.68677,-0.12986c-0.23912,-0.08878 -0.48936,-0.18537 -0.75073,-0.28976c-0.25382,-0.10421 -0.51197,-0.18592 -0.77443,-0.2451c-0.25475,-0.06653 -0.53661,-0.10358 -0.84558,-0.11112c-0.51997,-0.01269 -0.97168,0.11202 -1.35507,0.37411c-0.37588,0.26228 -0.56942,0.62326 -0.58064,1.08295c-0.01214,0.49737 0.39636,0.90697 1.22548,1.22881c0.83684,0.3145 1.76355,0.6538 2.78015,1.01792c1.02413,0.36431 1.88165,0.91305 2.57254,1.64624c0.69108,0.72565 1.02007,1.7667 0.98697,3.12315c-0.02574,1.05502 -0.31616,1.98669 -0.87124,2.79504c-0.55509,0.80835 -1.29021,1.42379 -2.20536,1.84634c-0.91514,0.42255 -1.90775,0.62076 -2.97783,0.59465c-1.31877,-0.03218 -2.58387,-0.25533 -3.79529,-0.66945c-1.20371,-0.42147 -1.79389,-1.11072 -1.77053,-2.06778c0.0114,-0.46722 0.16029,-0.85191 0.44665,-1.15408c0.29408,-0.30952 0.67473,-0.45858 1.14195,-0.44717c0.22608,0.00552 0.47385,0.04926 0.7433,0.13124c0.26945,0.08198 0.61333,0.20347 1.03166,0.36449c0.4185,0.15348 0.785,0.27553 1.09949,0.36614c0.31467,0.08308 0.64533,0.12884 0.99198,0.1373c0.49737,0.01214 0.92517,-0.06036 1.2834,-0.21751c0.35841,-0.16468 0.63172,-0.39553 0.81993,-0.69255c0.19575,-0.29684 0.29831,-0.63742 0.30769,-1.02174c0.01434,-0.58779 -0.18351,-0.97717 -0.59355,-1.16815c-0.40252,-0.19079 -1.3366,-0.53782 -2.80222,-1.04108c-1.46562,-0.50327 -2.53762,-1.06855 -3.21602,-1.69587c-0.67086,-0.62714 -0.99159,-1.54357 -0.96216,-2.7493c0.02574,-1.05502 0.30826,-1.9718 0.84754,-2.75038c0.547,-0.78593 1.26659,-1.3829 2.15876,-1.79092c0.89217,-0.40803 1.84692,-0.59963 2.86425,-0.5748z"/><path d="M150.40729,306.83901l0.28383,-11.63153l-2.52073,-0.06151c-0.51244,-0.0125 -0.90053,-0.17655 -1.16428,-0.49214c-0.26357,-0.32313 -0.39002,-0.70323 -0.37935,-1.14031c0.00662,-0.27129 0.08079,-0.52962 0.2225,-0.77499c0.13418,-0.24555 0.32358,-0.43698 0.56822,-0.57428c0.25236,-0.14465 0.52925,-0.21329 0.83069,-0.20593l8.5117,0.2077c0.30143,0.00736 0.57089,0.08933 0.80835,0.24593c0.24519,0.14925 0.4288,0.34979 0.55084,0.60158c0.12958,0.25199 0.19106,0.51363 0.18444,0.78492c-0.01067,0.43709 -0.15174,0.81066 -0.42322,1.12073c-0.27129,0.30253 -0.67069,0.44736 -1.1982,0.43449l-2.52073,-0.06151l-0.28383,11.63153c-0.01398,0.57272 -0.18685,1.01338 -0.51861,1.32199c-0.32405,0.30125 -0.74228,0.44561 -1.25472,0.43311c-0.51997,-0.01269 -0.93821,-0.17747 -1.25471,-0.49434c-0.30879,-0.32423 -0.45618,-0.77271 -0.44221,-1.34543z"/><path d="M190.17612,303.56041l0.21736,-8.90734c0.01177,-0.48229 0.17563,-0.86285 0.49158,-1.14167c0.31596,-0.27882 0.71885,-0.41225 1.20868,-0.4003c0.47476,0.01158 0.8668,0.16819 1.17613,0.4698c0.30933,0.30162 0.4583,0.68604 0.4469,1.15327l-0.21736,8.90734c-0.01158,0.47475 -0.17912,0.85145 -0.50262,1.1301c-0.32349,0.27864 -0.72262,0.41216 -1.19737,0.40058c-0.48983,-0.01195 -0.88573,-0.16488 -1.18771,-0.45878c-0.30198,-0.29391 -0.44717,-0.67823 -0.43559,-1.15299zM191.67778,310.15711c-0.49737,-0.01214 -0.91882,-0.19962 -1.26436,-0.56245c-0.34554,-0.36282 -0.51224,-0.79292 -0.5001,-1.29029c0.01214,-0.49736 0.19962,-0.91881 0.56244,-1.26435c0.36282,-0.34554 0.79292,-0.51225 1.29028,-0.50011c0.49737,0.01214 0.91882,0.19962 1.26436,0.56245c0.34554,0.36282 0.51225,0.79292 0.50011,1.29028c-0.01214,0.49737 -0.19962,0.91882 -0.56245,1.26436c-0.36282,0.34554 -0.79292,0.51225 -1.29028,0.50011z"/></g><g fill="#000000" stroke="none" stroke-width="0.40889"><path d="M41.89573,303.03096c0.70837,0.01729 1.34102,-0.10677 1.89794,-0.37217c0.55692,-0.26541 1.02608,-0.64228 1.40747,-1.13063c0.38157,-0.49589 0.66674,-1.05822 0.85551,-1.687c0.19649,-0.63613 0.30348,-1.31214 0.32095,-2.02806c0.02354,-0.96458 -0.12064,-1.85409 -0.43255,-2.66851c-0.3119,-0.81442 -0.79355,-1.47087 -1.44493,-1.96934c-0.64367,-0.50583 -1.42519,-0.76996 -2.34455,-0.7924c-0.91936,-0.02243 -1.7166,0.20317 -2.3917,0.67682c-0.66739,0.46629 -1.17672,1.09855 -1.52796,1.8968c-0.35125,0.79824 -0.53865,1.67965 -0.56219,2.64424c-0.03696,1.5147 0.30517,2.78982 1.02639,3.82536c0.72875,1.03572 1.79396,1.57068 3.19563,1.60489zM41.81767,306.22992c-1.5373,-0.03751 -2.90348,-0.44409 -4.09854,-1.21974c-1.18735,-0.783 -2.10424,-1.83463 -2.75064,-3.15488c-0.63887,-1.32006 -0.93909,-2.76759 -0.90066,-4.34257c0.02924,-1.1982 0.24871,-2.31257 0.65841,-3.34313c0.40969,-1.03056 0.9782,-1.9253 1.70551,-2.6842c0.73484,-0.75872 1.59347,-1.33721 2.57589,-1.7355c0.9826,-0.40582 2.05793,-0.59448 3.22598,-0.56598c1.14545,0.02795 2.20257,0.27618 3.17138,0.7447c0.97653,0.46117 1.80952,1.08848 2.49893,1.88196c0.68943,0.79347 1.21739,1.71496 1.58387,2.76447c0.36648,1.0495 0.53548,2.15828 0.50697,3.32633c-0.02887,1.18312 -0.24439,2.29006 -0.64656,3.32081c-0.40198,1.02321 -0.97424,1.91785 -1.71681,2.68392c-0.73504,0.76626 -1.59761,1.35221 -2.58775,1.75784c-0.99014,0.40563 -2.06547,0.5943 -3.22599,0.56598z"/><path d="M52.0223,304.53353l0.31748,-13.01058c0.01361,-0.55765 0.18262,-0.99463 0.50703,-1.31095c0.32441,-0.31631 0.77298,-0.46749 1.34571,-0.45351l4.09195,0.09985c1.10776,0.02703 2.11186,0.28528 3.01229,0.77475c0.90815,0.48212 1.60438,1.15135 2.08868,2.00768c0.49202,0.84898 0.72488,1.81228 0.69859,2.8899c-0.02041,0.83647 -0.19346,1.59383 -0.51917,2.27205c-0.31798,0.67087 -0.74653,1.23724 -1.28562,1.69913c-0.53156,0.46207 -1.15464,0.81257 -1.86927,1.0515c-0.71462,0.23893 -1.46379,0.34884 -2.24751,0.32972l-2.57725,-0.06289l-0.09268,3.79805c-0.01398,0.57272 -0.18685,1.01338 -0.51861,1.32197c-0.32404,0.30125 -0.74227,0.4456 -1.25471,0.4331c-0.50489,-0.01232 -0.91928,-0.18077 -1.24313,-0.50537c-0.31614,-0.33195 -0.4674,-0.77675 -0.45379,-1.3344zM55.7797,292.85105l-0.11971,4.90582l2.36247,0.05765c0.70837,0.01729 1.28669,-0.19858 1.73498,-0.6476c0.45582,-0.44884 0.69248,-1.0312 0.70995,-1.7471c0.01122,-0.45969 -0.07664,-0.87655 -0.26356,-1.25058c-0.18674,-0.38157 -0.45838,-0.68227 -0.81495,-0.9021c-0.35638,-0.22736 -0.77196,-0.34684 -1.24671,-0.35843z"/><path d="M16.4522,288.55481c0.5275,0.01287 1.14738,0.1034 1.8596,0.27158c0.71976,0.16837 1.33908,0.43608 1.85794,0.80314c0.51904,0.35952 0.77194,0.81057 0.7587,1.35314c-0.01158,0.47476 -0.16469,0.8782 -0.45933,1.21032c-0.29445,0.32459 -0.67151,0.48127 -1.1312,0.47005c-0.211,-0.00515 -0.43993,-0.04844 -0.68677,-0.12986c-0.23912,-0.08878 -0.48936,-0.18537 -0.75073,-0.28976c-0.25382,-0.10421 -0.51197,-0.18592 -0.77443,-0.2451c-0.25475,-0.06653 -0.53661,-0.10358 -0.84558,-0.11112c-0.51997,-0.01269 -0.97168,0.11202 -1.35507,0.37411c-0.37588,0.26228 -0.56942,0.62326 -0.58064,1.08295c-0.01214,0.49737 0.39636,0.90697 1.22548,1.22881c0.83684,0.3145 1.76355,0.6538 2.78015,1.01792c1.02413,0.36431 1.88165,0.91305 2.57254,1.64624c0.69108,0.72565 1.02007,1.7667 0.98697,3.12315c-0.02574,1.05502 -0.31616,1.98669 -0.87124,2.79504c-0.55509,0.80835 -1.29021,1.42379 -2.20536,1.84634c-0.91514,0.42255 -1.90775,0.62076 -2.97783,0.59465c-1.31877,-0.03218 -2.58387,-0.25533 -3.79529,-0.66945c-1.20371,-0.42147 -1.79389,-1.11072 -1.77053,-2.06778c0.0114,-0.46722 0.16029,-0.85191 0.44665,-1.15408c0.29408,-0.30952 0.67473,-0.45858 1.14195,-0.44717c0.22608,0.00552 0.47385,0.04926 0.7433,0.13124c0.26945,0.08198 0.61333,0.20347 1.03166,0.36449c0.4185,0.15348 0.785,0.27553 1.09949,0.36614c0.31467,0.08308 0.64533,0.12884 0.99198,0.1373c0.49737,0.01214 0.92517,-0.06036 1.2834,-0.21751c0.35841,-0.16468 0.63172,-0.39553 0.81993,-0.69255c0.19575,-0.29684 0.29831,-0.63742 0.30769,-1.02174c0.01434,-0.58779 -0.18351,-0.97717 -0.59355,-1.16815c-0.40252,-0.19079 -1.3366,-0.53782 -2.80222,-1.04108c-1.46562,-0.50327 -2.53762,-1.06855 -3.21602,-1.69587c-0.67086,-0.62714 -0.99159,-1.54357 -0.96216,-2.7493c0.02574,-1.05502 0.30826,-1.9718 0.84754,-2.75038c0.547,-0.78593 1.26659,-1.3829 2.15876,-1.79092c0.89217,-0.40803 1.84692,-0.59963 2.86425,-0.5748z"/><path d="M26.41909,303.81348l0.28383,-11.63153l-2.52073,-0.06151c-0.51244,-0.0125 -0.90053,-0.17655 -1.16428,-0.49214c-0.26357,-0.32313 -0.39002,-0.70323 -0.37935,-1.14031c0.00662,-0.27129 0.08079,-0.52962 0.2225,-0.77499c0.13418,-0.24555 0.32358,-0.43698 0.56822,-0.57428c0.25236,-0.14465 0.52925,-0.21329 0.83069,-0.20593l8.5117,0.2077c0.30143,0.00736 0.57089,0.08933 0.80835,0.24593c0.24519,0.14925 0.4288,0.34979 0.55084,0.60158c0.12958,0.25199 0.19106,0.51363 0.18444,0.78492c-0.01067,0.43709 -0.15174,0.81066 -0.42322,1.12073c-0.27129,0.30253 -0.67069,0.44736 -1.1982,0.43449l-2.52073,-0.06151l-0.28383,11.63153c-0.01398,0.57272 -0.18685,1.01338 -0.51861,1.32199c-0.32405,0.30125 -0.74228,0.44561 -1.25472,0.43311c-0.51997,-0.01269 -0.93821,-0.17747 -1.25471,-0.49434c-0.30879,-0.32423 -0.45618,-0.77271 -0.44221,-1.34543z"/><path d="M66.18788,300.53488l0.21736,-8.90734c0.01177,-0.48229 0.17563,-0.86285 0.49158,-1.14167c0.31596,-0.27882 0.71885,-0.41225 1.20868,-0.4003c0.47476,0.01158 0.8668,0.16819 1.17613,0.4698c0.30933,0.30162 0.4583,0.68604 0.4469,1.15327l-0.21736,8.90734c-0.01158,0.47475 -0.17912,0.85145 -0.50262,1.1301c-0.32349,0.27864 -0.72262,0.41216 -1.19737,0.40058c-0.48983,-0.01195 -0.88573,-0.16488 -1.18771,-0.45878c-0.30198,-0.29391 -0.44717,-0.67823 -0.43559,-1.15299zM67.68955,307.13158c-0.49737,-0.01214 -0.91882,-0.19962 -1.26436,-0.56245c-0.34554,-0.36282 -0.51224,-0.79292 -0.5001,-1.29029c0.01214,-0.49736 0.19962,-0.91881 0.56244,-1.26435c0.36282,-0.34554 0.79292,-0.51225 1.29028,-0.50011c0.49737,0.01214 0.91882,0.19962 1.26436,0.56245c0.34554,0.36282 0.51225,0.79292 0.50011,1.29028c-0.01214,0.49737 -0.19962,0.91882 -0.56245,1.26436c-0.36282,0.34554 -0.79292,0.51225 -1.29028,0.50011z"/></g></g><g><path d="M112.568,38.06787l129.83801,-2.60067l120.99152,-2.42348l142.59733,-2.85624l0.61154,30.53088l-143.17797,2.86787l-120.99152,2.42347l-128.85843,2.58105z" fill="url(#color-4)" stroke="#ffffff" stroke-width="0"/><g fill="#000000" stroke="none" stroke-width="0.40889"><path d="M427.90822,52.18529c0.70443,-0.01411 1.32739,-0.16528 1.86888,-0.45351c0.5415,-0.28824 0.9909,-0.68331 1.34819,-1.18527c0.35714,-0.50944 0.61558,-1.08063 0.77533,-1.71357c0.1671,-0.64058 0.24352,-1.31682 0.22926,-2.02875c-0.01921,-0.95921 -0.20172,-1.83644 -0.5475,-2.63167c-0.34578,-0.79523 -0.85322,-1.42606 -1.52228,-1.89245c-0.66173,-0.47405 -1.44973,-0.70191 -2.36397,-0.6836c-0.91424,0.01831 -1.69621,0.27762 -2.34591,0.77794c-0.64237,0.49266 -1.12038,1.14321 -1.43406,1.95167c-0.31366,0.80844 -0.46089,1.69228 -0.44168,2.65149c0.03017,1.50626 0.42633,2.7578 1.18849,3.75461c0.76964,0.99666 1.8514,1.48103 3.24525,1.45311zM427.97196,55.36642c-1.52874,0.03062 -2.9038,-0.31292 -4.12517,-1.03065c-1.21403,-0.72537 -2.17127,-1.72951 -2.87168,-3.01244c-0.69291,-1.28308 -1.05506,-2.70773 -1.08643,-4.27394c-0.02387,-1.19152 0.14494,-2.30818 0.5064,-3.34999c0.36146,-1.0418 0.88669,-1.9557 1.57565,-2.74168c0.69645,-0.78612 1.52382,-1.39869 2.48213,-1.83771c0.95815,-0.44652 2.018,-0.6814 3.17954,-0.70467c1.13907,-0.02282 2.20013,0.17708 3.18318,0.59971c0.9904,0.41498 1.84556,1.00134 2.56543,1.7591c0.71989,0.75775 1.28503,1.64981 1.69542,2.67615c0.41039,1.02635 0.62722,2.12029 0.65049,3.28184c0.02356,1.17653 -0.14164,2.28563 -0.49562,3.32729c-0.35412,1.03416 -0.88308,1.94813 -1.58688,2.7419c-0.69631,0.79362 -1.52729,1.41377 -2.49292,1.86043c-0.96565,0.44666 -2.0255,0.68155 -3.17955,0.70467z"/><path d="M438.03385,53.23069l-0.25915,-12.93813c-0.01111,-0.55454 0.13748,-0.99609 0.44577,-1.32463c0.30829,-0.32854 0.74721,-0.49851 1.31674,-0.50992l4.06916,-0.0815c1.10159,-0.02206 2.11042,0.19012 3.02649,0.63658c0.9234,0.43882 1.64456,1.07285 2.16346,1.9021c0.52624,0.82161 0.8001,1.76823 0.82157,2.83984c0.01666,0.83181 -0.1218,1.59178 -0.41539,2.27988c-0.28625,0.68045 -0.68693,1.26198 -1.20205,1.7446c-0.50762,0.48247 -1.11109,0.85816 -1.81041,1.12706c-0.69932,0.2689 -1.43866,0.41116 -2.21801,0.42677l-2.5629,0.05134l0.07565,3.7769c0.01141,0.56954 -0.14087,1.01489 -0.4568,1.33609c-0.30859,0.31355 -0.71766,0.47542 -1.22724,0.48563c-0.50208,0.01006 -0.92115,-0.13898 -1.25718,-0.44711c-0.3287,-0.31579 -0.4986,-0.75095 -0.5097,-1.30549zM441.25041,41.45992l0.09772,4.8785l2.34932,-0.04706c0.70443,-0.01411 1.26937,-0.25408 1.69486,-0.71991c0.43297,-0.46598 0.64235,-1.05492 0.62809,-1.76684c-0.00916,-0.45713 -0.11483,-0.86734 -0.31703,-1.23063c-0.20235,-0.37079 -0.48547,-0.6575 -0.84938,-0.86012c-0.36405,-0.21012 -0.78214,-0.31045 -1.25425,-0.30099z"/><path d="M401.99454,38.92886c0.52457,-0.01051 1.14432,0.05205 1.85924,0.18766c0.72241,0.13546 1.34943,0.37406 1.88106,0.71576c0.53146,0.33421 0.80261,0.77109 0.81341,1.31064c0.00946,0.47211 -0.12482,0.87964 -0.40283,1.22256c-0.27816,0.33544 -0.6458,0.50773 -1.10293,0.51688c-0.20983,0.0042 -0.43914,-0.02869 -0.68793,-0.09867c-0.24146,-0.07762 -0.4943,-0.16253 -0.75854,-0.25468c-0.25675,-0.09231 -0.51677,-0.16208 -0.78011,-0.20928c-0.25599,-0.05484 -0.53762,-0.0792 -0.84487,-0.07304c-0.51708,0.01036 -0.96026,0.15418 -1.32954,0.43146c-0.36179,0.27713 -0.53811,0.64426 -0.52895,1.10139c0.00991,0.4946 0.43377,0.88344 1.27159,1.16653c0.84516,0.27545 1.7807,0.57158 2.80662,0.88839c1.03341,0.31666 1.90946,0.82389 2.62814,1.5217c0.71853,0.69031 1.0913,1.70992 1.11832,3.05881c0.02102,1.04914 -0.22633,1.98745 -0.74202,2.81494c-0.51571,0.82749 -1.21876,1.4713 -2.10917,1.93145c-0.8904,0.46015 -1.86766,0.70088 -2.93179,0.72219c-1.31143,0.02627 -2.57797,-0.13953 -3.79963,-0.4974c-1.21432,-0.36551 -1.83101,-1.02412 -1.85007,-1.97585c-0.00931,-0.46462 0.1216,-0.85333 0.39272,-1.16613c0.27846,-0.32045 0.65,-0.48532 1.11462,-0.49463c0.22482,-0.0045 0.47287,0.02801 0.74415,0.09754c0.27128,0.06953 0.61825,0.17504 1.0409,0.31651c0.4225,0.13398 0.79195,0.23904 1.10835,0.31516c0.31624,0.06863 0.64674,0.09949 0.99144,0.09258c0.4946,-0.00991 0.91634,-0.10082 1.26526,-0.27274c0.34876,-0.17941 0.61005,-0.4208 0.7839,-0.72416c0.18134,-0.30351 0.26819,-0.64636 0.26053,-1.02854c-0.01171,-0.58452 -0.22544,-0.96257 -0.64119,-1.13417c-0.40826,-0.17174 -1.35145,-0.47522 -2.82956,-0.91042c-1.4781,-0.4352 -2.56794,-0.94939 -3.26953,-1.54259c-0.6941,-0.59334 -1.05316,-1.48953 -1.07717,-2.68854c-0.02102,-1.04914 0.21913,-1.97231 0.72045,-2.76953c0.50866,-0.80486 1.19711,-1.42964 2.06533,-1.87435c0.86822,-0.44471 1.80818,-0.6772 2.81983,-0.69746z"/><path d="M412.569,53.646l-0.23169,-11.56676l-2.50669,0.05021c-0.50958,0.01021 -0.90234,-0.13561 -1.17827,-0.43745c-0.27608,-0.30934 -0.41848,-0.68133 -0.42719,-1.11598c-0.0054,-0.26978 0.05686,-0.52967 0.18679,-0.77966c0.12244,-0.24985 0.30214,-0.44836 0.5391,-0.59555c0.24429,-0.15483 0.51632,-0.23524 0.81607,-0.24125l8.4643,-0.16954c0.29976,-0.006 0.57104,0.06353 0.81384,0.2086c0.25015,0.13743 0.4414,0.32853 0.57375,0.57326c0.13984,0.24459 0.21246,0.50178 0.21786,0.77156c0.00871,0.43466 -0.11493,0.81197 -0.37091,1.13196c-0.25613,0.3125 -0.64649,0.474 -1.17106,0.48451l-2.50669,0.05021l0.23168,11.56676c0.01141,0.56954 -0.14085,1.0149 -0.45678,1.3361c-0.30859,0.31355 -0.71768,0.47543 -1.22726,0.48563c-0.51707,0.01036 -0.93981,-0.13487 -1.2682,-0.43565c-0.32104,-0.30844 -0.48727,-0.74743 -0.49868,-1.31697z"/><path d="M451.9287,48.63307l-0.17742,-8.85774c-0.00961,-0.47961 0.13637,-0.86487 0.43791,-1.15579c0.30154,-0.29092 0.69587,-0.44126 1.18297,-0.45101c0.47211,-0.00946 0.86847,0.12879 1.18906,0.41474c0.32059,0.28596 0.48555,0.66124 0.49485,1.12587l0.17742,8.85774c0.00946,0.47211 -0.14033,0.8537 -0.44937,1.14478c-0.30904,0.29107 -0.69961,0.44132 -1.17172,0.45078c-0.4871,0.00976 -0.88713,-0.12467 -1.20008,-0.40328c-0.31295,-0.27863 -0.47416,-0.65398 -0.48361,-1.12609zM453.71172,55.11963c-0.4946,0.00991 -0.92153,-0.15773 -1.28079,-0.50288c-0.35926,-0.34515 -0.54385,-0.76503 -0.55376,-1.25963c-0.00991,-0.49459 0.15773,-0.92152 0.50288,-1.28078c0.34515,-0.35926 0.76503,-0.54385 1.25963,-0.55376c0.4946,-0.00991 0.92153,0.15773 1.28079,0.50288c0.35926,0.34515 0.54385,0.76503 0.55376,1.25962c0.00991,0.4946 -0.15773,0.92153 -0.50287,1.2808c-0.34515,0.35926 -0.76503,0.54385 -1.25963,0.55376z"/></g><g fill="#000000" stroke="none" stroke-width="0.40889"><path d="M304.61042,54.65496c0.70443,-0.01411 1.32738,-0.16528 1.86888,-0.45351c0.5415,-0.28824 0.9909,-0.68331 1.34819,-1.18527c0.35714,-0.50944 0.61558,-1.08063 0.77533,-1.71357c0.16709,-0.64058 0.24352,-1.31682 0.22926,-2.02875c-0.01921,-0.95921 -0.20171,-1.83644 -0.54751,-2.63167c-0.34579,-0.79523 -0.85323,-1.42605 -1.52229,-1.89245c-0.66173,-0.47405 -1.44971,-0.70191 -2.36396,-0.6836c-0.91424,0.01831 -1.69622,0.27763 -2.34592,0.77794c-0.64237,0.49266 -1.12038,1.14321 -1.43405,1.95167c-0.31367,0.80844 -0.46089,1.69228 -0.44168,2.65149c0.03017,1.50626 0.42634,2.7578 1.18849,3.75461c0.76964,0.99666 1.8514,1.48103 3.24526,1.45311zM304.67413,57.83609c-1.52874,0.03062 -2.9038,-0.31292 -4.12516,-1.03065c-1.21403,-0.72537 -2.17126,-1.72952 -2.87167,-3.01245c-0.69291,-1.28308 -1.05507,-2.70772 -1.08644,-4.27394c-0.02387,-1.19152 0.14494,-2.30819 0.50641,-3.34999c0.36147,-1.0418 0.88668,-1.9557 1.57565,-2.74167c0.69645,-0.78612 1.52383,-1.39869 2.48213,-1.83771c0.95815,-0.44652 2.018,-0.6814 3.17954,-0.70467c1.13907,-0.02282 2.20013,0.17708 3.18319,0.59971c0.99041,0.41498 1.84555,1.00134 2.56542,1.7591c0.71989,0.75775 1.28503,1.64981 1.69542,2.67615c0.41039,1.02635 0.62722,2.12029 0.65049,3.28184c0.02356,1.17653 -0.14164,2.28563 -0.49562,3.32729c-0.35412,1.03416 -0.88308,1.94813 -1.58688,2.7419c-0.69631,0.79362 -1.52728,1.41377 -2.49292,1.86043c-0.96565,0.44666 -2.0255,0.68155 -3.17956,0.70467z"/><path d="M314.73605,55.70036l-0.25915,-12.93813c-0.01111,-0.55454 0.13749,-0.99609 0.44577,-1.32462c0.30829,-0.32854 0.74719,-0.49851 1.31674,-0.50992l4.06916,-0.08151c1.10159,-0.02206 2.11042,0.19013 3.02649,0.63659c0.9234,0.43882 1.64456,1.07285 2.16346,1.9021c0.52624,0.82161 0.80009,1.76822 0.82156,2.83984c0.01666,0.83181 -0.1218,1.59178 -0.41539,2.27988c-0.28625,0.68045 -0.68693,1.26198 -1.20204,1.7446c-0.50762,0.48247 -1.11109,0.85816 -1.81041,1.12706c-0.69932,0.2689 -1.43866,0.41116 -2.21801,0.42677l-2.5629,0.05133l0.07565,3.7769c0.01141,0.56954 -0.14086,1.01489 -0.45679,1.33609c-0.30859,0.31355 -0.71766,0.47542 -1.22725,0.48563c-0.50208,0.01006 -0.92115,-0.13898 -1.25719,-0.44711c-0.3287,-0.31578 -0.4986,-0.75095 -0.5097,-1.30549zM317.95259,43.92959l0.09772,4.8785l2.34932,-0.04706c0.70443,-0.01411 1.26937,-0.25407 1.69486,-0.71991c0.43297,-0.46598 0.64234,-1.05493 0.62808,-1.76684c-0.00916,-0.45713 -0.11483,-0.86734 -0.31703,-1.23063c-0.20235,-0.37079 -0.48546,-0.65749 -0.84937,-0.86012c-0.36405,-0.21012 -0.78214,-0.31045 -1.25426,-0.30099z"/><path d="M278.69674,41.39853c0.52458,-0.01051 1.14432,0.05205 1.85924,0.18766c0.72241,0.13546 1.34944,0.37406 1.88106,0.71576c0.53146,0.33421 0.8026,0.77109 0.81341,1.31064c0.00946,0.47211 -0.12482,0.87964 -0.40283,1.22256c-0.27816,0.33544 -0.6458,0.50773 -1.10293,0.51688c-0.20983,0.0042 -0.43913,-0.02869 -0.68794,-0.09867c-0.24145,-0.07762 -0.4943,-0.16253 -0.75854,-0.25468c-0.25674,-0.09231 -0.51677,-0.16208 -0.78011,-0.20928c-0.25599,-0.05484 -0.53761,-0.0792 -0.84486,-0.07304c-0.51707,0.01036 -0.96027,0.15418 -1.32956,0.43146c-0.3618,0.27713 -0.5381,0.64426 -0.52895,1.10139c0.00991,0.4946 0.43378,0.88344 1.2716,1.16653c0.84516,0.27545 1.78069,0.57158 2.80662,0.88839c1.03341,0.31666 1.90945,0.82389 2.62813,1.5217c0.71853,0.69031 1.09132,1.70992 1.11834,3.05881c0.02102,1.04914 -0.22633,1.98745 -0.74203,2.81494c-0.51571,0.82749 -1.21876,1.4713 -2.10917,1.93145c-0.8904,0.46015 -1.86766,0.70088 -2.93178,0.72219c-1.31143,0.02627 -2.57797,-0.13953 -3.79964,-0.4974c-1.21432,-0.36551 -1.83101,-1.02412 -1.85007,-1.97585c-0.00931,-0.46462 0.12161,-0.85333 0.39272,-1.16613c0.27846,-0.32045 0.65,-0.48532 1.11461,-0.49463c0.22482,-0.0045 0.47287,0.02801 0.74415,0.09754c0.27128,0.06953 0.61825,0.17504 1.0409,0.31651c0.42251,0.13398 0.79195,0.23904 1.10835,0.31516c0.31625,0.06863 0.64673,0.09949 0.99144,0.09258c0.4946,-0.00991 0.91635,-0.10081 1.26527,-0.27274c0.34876,-0.17941 0.61004,-0.4208 0.7839,-0.72416c0.18134,-0.30351 0.26819,-0.64636 0.26053,-1.02854c-0.01171,-0.58452 -0.22545,-0.96258 -0.64119,-1.13417c-0.40827,-0.17174 -1.35146,-0.47522 -2.82956,-0.91042c-1.4781,-0.4352 -2.56795,-0.94939 -3.26954,-1.54259c-0.6941,-0.59334 -1.05316,-1.48953 -1.07717,-2.68854c-0.02102,-1.04914 0.21914,-1.97231 0.72045,-2.76953c0.50866,-0.80486 1.19711,-1.42964 2.06533,-1.87435c0.86823,-0.44471 1.80817,-0.6772 2.81984,-0.69746z"/><path d="M289.27119,56.11567l-0.23168,-11.56676l-2.50669,0.05021c-0.50958,0.01021 -0.90234,-0.13561 -1.17827,-0.43745c-0.27608,-0.30934 -0.41849,-0.68133 -0.42719,-1.11598c-0.0054,-0.26978 0.05687,-0.52967 0.1868,-0.77966c0.12244,-0.24985 0.30214,-0.44836 0.5391,-0.59555c0.24429,-0.15483 0.51631,-0.23524 0.81607,-0.24125l8.4643,-0.16954c0.29976,-0.006 0.57104,0.06353 0.81384,0.2086c0.25015,0.13743 0.44139,0.32853 0.57374,0.57326c0.13983,0.2446 0.21247,0.50178 0.21787,0.77156c0.00871,0.43466 -0.11493,0.81197 -0.37092,1.13196c-0.25613,0.3125 -0.64648,0.474 -1.17104,0.48451l-2.50669,0.05021l0.23169,11.56676c0.01141,0.56954 -0.14086,1.0149 -0.45678,1.3361c-0.30859,0.31355 -0.71767,0.47543 -1.22726,0.48563c-0.51707,0.01036 -0.93981,-0.13487 -1.2682,-0.43565c-0.32105,-0.30844 -0.48727,-0.74743 -0.49868,-1.31696z"/><path d="M328.63091,51.10274l-0.17742,-8.85774c-0.00961,-0.47961 0.13636,-0.86487 0.4379,-1.15579c0.30154,-0.29092 0.69587,-0.44126 1.18297,-0.45101c0.47211,-0.00946 0.86846,0.12879 1.18906,0.41474c0.32059,0.28596 0.48555,0.66125 0.49486,1.12587l0.17742,8.85774c0.00946,0.47211 -0.14033,0.8537 -0.44937,1.14478c-0.30904,0.29107 -0.69961,0.44133 -1.17172,0.45079c-0.4871,0.00976 -0.88713,-0.12467 -1.20008,-0.40328c-0.31295,-0.27863 -0.47415,-0.65398 -0.48361,-1.1261zM330.41389,57.5893c-0.4946,0.00991 -0.92153,-0.15773 -1.28079,-0.50288c-0.35926,-0.34515 -0.54385,-0.76503 -0.55375,-1.25963c-0.00991,-0.49459 0.15773,-0.92152 0.50287,-1.28078c0.34515,-0.35926 0.76503,-0.54385 1.25963,-0.55376c0.4946,-0.00991 0.92152,0.15773 1.28079,0.50288c0.35926,0.34515 0.54385,0.76502 0.55376,1.25961c0.00991,0.4946 -0.15773,0.92153 -0.50288,1.2808c-0.34515,0.35926 -0.76503,0.54385 -1.25962,0.55376z"/></g><g fill="#000000" stroke="none" stroke-width="0.40889"><path d="M181.31264,57.12463c0.70443,-0.01411 1.32739,-0.16528 1.86889,-0.45351c0.5415,-0.28824 0.9909,-0.68331 1.34819,-1.18527c0.35714,-0.50944 0.61558,-1.08063 0.77533,-1.71357c0.16709,-0.64058 0.24352,-1.31682 0.22926,-2.02875c-0.01921,-0.95921 -0.20172,-1.83644 -0.54751,-2.63167c-0.34579,-0.79523 -0.85322,-1.42605 -1.52229,-1.89245c-0.66173,-0.47405 -1.44972,-0.70191 -2.36396,-0.6836c-0.91424,0.01831 -1.69622,0.27763 -2.34592,0.77794c-0.64237,0.49266 -1.12039,1.14321 -1.43405,1.95167c-0.31367,0.80844 -0.4609,1.69228 -0.44169,2.65149c0.03017,1.50626 0.42634,2.7578 1.18849,3.75461c0.76964,0.99666 1.8514,1.48103 3.24526,1.45311zM181.37637,60.30576c-1.52874,0.03062 -2.90379,-0.31292 -4.12516,-1.03065c-1.21403,-0.72537 -2.17127,-1.72951 -2.87168,-3.01244c-0.69291,-1.28308 -1.05507,-2.70773 -1.08644,-4.27394c-0.02387,-1.19152 0.14494,-2.30818 0.50641,-3.34999c0.36146,-1.0418 0.88668,-1.9557 1.57564,-2.74167c0.69645,-0.78612 1.52383,-1.39869 2.48213,-1.83772c0.95815,-0.44652 2.018,-0.6814 3.17954,-0.70467c1.13907,-0.02282 2.20013,0.17708 3.18318,0.59971c0.9904,0.41498 1.84555,1.00135 2.56542,1.75911c0.71989,0.75775 1.28503,1.6498 1.69542,2.67615c0.41039,1.02635 0.62723,2.12029 0.65049,3.28184c0.02356,1.17653 -0.14165,2.28563 -0.49563,3.32729c-0.35412,1.03416 -0.88307,1.94813 -1.58688,2.7419c-0.69631,0.79362 -1.52729,1.41377 -2.49293,1.86042c-0.96565,0.44666 -2.02549,0.68155 -3.17956,0.70467z"/><path d="M191.43827,58.17003l-0.25915,-12.93813c-0.01111,-0.55454 0.13748,-0.99609 0.44577,-1.32462c0.30829,-0.32854 0.7472,-0.49851 1.31674,-0.50992l4.06916,-0.08151c1.10159,-0.02206 2.11042,0.19013 3.02649,0.63659c0.9234,0.43882 1.64456,1.07285 2.16346,1.9021c0.52624,0.82161 0.80009,1.76823 0.82156,2.83985c0.01666,0.83181 -0.1218,1.59178 -0.41539,2.27987c-0.28625,0.68045 -0.68694,1.26198 -1.20205,1.7446c-0.50762,0.48247 -1.11109,0.85816 -1.81041,1.12706c-0.69932,0.2689 -1.43866,0.41116 -2.21801,0.42677l-2.5629,0.05134l0.07565,3.7769c0.01141,0.56954 -0.14086,1.01489 -0.45679,1.33609c-0.30859,0.31355 -0.71766,0.47542 -1.22724,0.48563c-0.50208,0.01006 -0.92115,-0.13898 -1.25719,-0.44711c-0.3287,-0.31579 -0.4986,-0.75095 -0.5097,-1.30549zM194.65479,46.39926l0.09772,4.8785l2.34932,-0.04706c0.70443,-0.01411 1.26937,-0.25407 1.69486,-0.71991c0.43297,-0.46598 0.64234,-1.05493 0.62808,-1.76684c-0.00916,-0.45713 -0.11483,-0.86734 -0.31703,-1.23063c-0.20235,-0.37079 -0.48546,-0.65749 -0.84937,-0.86012c-0.36405,-0.21012 -0.78215,-0.31045 -1.25425,-0.30099z"/><path d="M155.39896,43.8682c0.52457,-0.01051 1.14432,0.05205 1.85924,0.18766c0.72241,0.13546 1.34944,0.37406 1.88106,0.71576c0.53146,0.33421 0.8026,0.77109 0.81341,1.31064c0.00946,0.47211 -0.12482,0.87964 -0.40283,1.22256c-0.27816,0.33544 -0.6458,0.50773 -1.10293,0.51688c-0.20983,0.0042 -0.43914,-0.02869 -0.68794,-0.09867c-0.24145,-0.07762 -0.49429,-0.16253 -0.75853,-0.25468c-0.25674,-0.09231 -0.51677,-0.16208 -0.78011,-0.20928c-0.25599,-0.05484 -0.53761,-0.0792 -0.84486,-0.07304c-0.51707,0.01036 -0.96027,0.15418 -1.32954,0.43146c-0.3618,0.27713 -0.53812,0.64426 -0.52896,1.10139c0.00991,0.4946 0.43378,0.88343 1.2716,1.16653c0.84516,0.27545 1.7807,0.57158 2.80662,0.88839c1.03341,0.31666 1.90946,0.82389 2.62813,1.5217c0.71853,0.69031 1.09131,1.70992 1.11833,3.05881c0.02102,1.04914 -0.22633,1.98745 -0.74202,2.81494c-0.51571,0.82749 -1.21876,1.4713 -2.10917,1.93145c-0.8904,0.46015 -1.86766,0.70088 -2.93178,0.72219c-1.31143,0.02627 -2.57797,-0.13953 -3.79962,-0.4974c-1.21432,-0.36551 -1.83101,-1.02412 -1.85008,-1.97585c-0.00931,-0.46462 0.12161,-0.85333 0.39272,-1.16613c0.27846,-0.32045 0.65,-0.48532 1.11462,-0.49463c0.22482,-0.0045 0.47287,0.02801 0.74415,0.09754c0.27128,0.06953 0.61824,0.17504 1.04089,0.31651c0.4225,0.13398 0.79195,0.23904 1.10835,0.31516c0.31625,0.06863 0.64674,0.09949 0.99145,0.09258c0.4946,-0.00991 0.91635,-0.10082 1.26526,-0.27274c0.34876,-0.17941 0.61005,-0.4208 0.7839,-0.72416c0.18134,-0.30351 0.26818,-0.64636 0.26053,-1.02854c-0.01171,-0.58452 -0.22544,-0.96258 -0.64119,-1.13417c-0.40827,-0.17174 -1.35146,-0.47522 -2.82957,-0.91042c-1.4781,-0.4352 -2.56794,-0.94939 -3.26953,-1.54259c-0.6941,-0.59334 -1.05316,-1.48953 -1.07718,-2.68854c-0.02102,-1.04914 0.21914,-1.97231 0.72045,-2.76953c0.50866,-0.80486 1.19711,-1.42964 2.06533,-1.87435c0.86823,-0.44471 1.80817,-0.6772 2.81984,-0.69746z"/><path d="M165.97338,58.58534l-0.23169,-11.56676l-2.50669,0.05021c-0.50958,0.01021 -0.90234,-0.13562 -1.17827,-0.43745c-0.27608,-0.30934 -0.41848,-0.68133 -0.42718,-1.11598c-0.0054,-0.26978 0.05687,-0.52967 0.1868,-0.77966c0.12244,-0.24985 0.30214,-0.44837 0.53909,-0.59555c0.24429,-0.15483 0.51632,-0.23524 0.81607,-0.24125l8.4643,-0.16954c0.29976,-0.006 0.57104,0.06353 0.81384,0.2086c0.25015,0.13743 0.44139,0.32853 0.57374,0.57326c0.13984,0.24459 0.21246,0.50178 0.21787,0.77156c0.00871,0.43466 -0.11493,0.81197 -0.37091,1.13197c-0.25613,0.3125 -0.64648,0.474 -1.17105,0.48451l-2.50669,0.05021l0.23168,11.56676c0.01141,0.56954 -0.14086,1.0149 -0.45678,1.3361c-0.30859,0.31355 -0.71767,0.47543 -1.22725,0.48563c-0.51707,0.01036 -0.93981,-0.13486 -1.2682,-0.43565c-0.32105,-0.30844 -0.48727,-0.74743 -0.49868,-1.31697z"/><path d="M205.33313,53.57242l-0.17742,-8.85774c-0.00961,-0.47961 0.13636,-0.86487 0.4379,-1.15579c0.30154,-0.29092 0.69587,-0.44126 1.18297,-0.45101c0.47211,-0.00946 0.86847,0.12879 1.18906,0.41474c0.32059,0.28596 0.48555,0.66124 0.49485,1.12587l0.17742,8.85774c0.00946,0.47211 -0.14033,0.8537 -0.44937,1.14478c-0.30904,0.29107 -0.69962,0.44133 -1.17172,0.45079c-0.4871,0.00976 -0.88713,-0.12467 -1.20008,-0.40328c-0.31295,-0.27863 -0.47415,-0.65398 -0.48361,-1.12609zM207.11609,60.05897c-0.4946,0.00991 -0.92153,-0.15773 -1.28079,-0.50288c-0.35926,-0.34515 -0.54385,-0.76503 -0.55375,-1.25963c-0.00991,-0.49459 0.15772,-0.92151 0.50287,-1.28078c0.34515,-0.35926 0.76503,-0.54386 1.25963,-0.55377c0.4946,-0.00991 0.92153,0.15773 1.28079,0.50288c0.35926,0.34515 0.54385,0.76502 0.55376,1.25961c0.00991,0.4946 -0.15773,0.92153 -0.50288,1.2808c-0.34515,0.35926 -0.76503,0.54385 -1.25963,0.55376z"/></g><g fill="#000000" stroke="none" stroke-width="0.40889"><path d=""/><path d=""/><path d=""/><path d=""/><path d=""/></g></g></g></g></svg>