<svg version="1.1" xmlns="http://www.w3.org/2000/svg" xmlns:xlink="http://www.w3.org/1999/xlink" width="103.5815" height="87.16036" viewBox="0,0,103.5815,87.16036"><defs><radialGradient cx="235.76581" cy="180.66667" r="43.58018" gradientUnits="userSpaceOnUse" id="color-1"><stop offset="0" stop-color="#000000" stop-opacity="0.75294"/><stop offset="1" stop-color="#000000" stop-opacity="0"/></radialGradient><radialGradient cx="249.94111" cy="179.13256" r="41.84969" gradientUnits="userSpaceOnUse" id="color-2"><stop offset="0" stop-color="#ff0000"/><stop offset="1" stop-color="#ff0000" stop-opacity="0"/></radialGradient><linearGradient x1="279.05012" y1="180.2327" x2="195.72488" y2="180.2327" gradientUnits="userSpaceOnUse" id="color-3"><stop offset="0" stop-color="#ff2929"/><stop offset="1" stop-color="#d50000"/></linearGradient><linearGradient x1="210.47994" y1="156.78536" x2="198.89441" y2="156.78536" gradientUnits="userSpaceOnUse" id="color-4"><stop offset="0" stop-color="#ff0000"/><stop offset="1" stop-color="#930000"/></linearGradient><linearGradient x1="201.98561" y1="159.51723" x2="192.58404" y2="159.51723" gradientUnits="userSpaceOnUse" id="color-5"><stop offset="0" stop-color="#8e0000"/><stop offset="1" stop-color="#ff0000"/></linearGradient><linearGradient x1="204.11986" y1="164.00097" x2="198.795" y2="164.00097" gradientUnits="userSpaceOnUse" id="color-6"><stop offset="0" stop-color="#d60000"/><stop offset="1" stop-color="#600000"/></linearGradient><linearGradient x1="208.87487" y1="168.41858" x2="203.55001" y2="168.41858" gradientUnits="userSpaceOnUse" id="color-7"><stop offset="0" stop-color="#ff0000"/><stop offset="1" stop-color="#930000"/></linearGradient><linearGradient x1="217.18648" y1="161.91642" x2="210.43048" y2="161.91642" gradientUnits="userSpaceOnUse" id="color-8"><stop offset="0" stop-color="#ff0000"/><stop offset="1" stop-color="#930000"/></linearGradient><linearGradient x1="211.01263" y1="202.9567" x2="199.42709" y2="202.9567" gradientUnits="userSpaceOnUse" id="color-9"><stop offset="0" stop-color="#ff0000"/><stop offset="1" stop-color="#930000"/></linearGradient><linearGradient x1="202.51831" y1="200.22483" x2="193.11672" y2="200.22483" gradientUnits="userSpaceOnUse" id="color-10"><stop offset="0" stop-color="#8e0000"/><stop offset="1" stop-color="#ff0000"/></linearGradient><linearGradient x1="204.65255" y1="195.74109" x2="199.32769" y2="195.74109" gradientUnits="userSpaceOnUse" id="color-11"><stop offset="0" stop-color="#d60000"/><stop offset="1" stop-color="#600000"/></linearGradient><linearGradient x1="209.40755" y1="191.32348" x2="204.08269" y2="191.32348" gradientUnits="userSpaceOnUse" id="color-12"><stop offset="0" stop-color="#ff0000"/><stop offset="1" stop-color="#930000"/></linearGradient><linearGradient x1="217.71916" y1="197.82564" x2="210.96316" y2="197.82564" gradientUnits="userSpaceOnUse" id="color-13"><stop offset="0" stop-color="#ff0000"/><stop offset="1" stop-color="#930000"/></linearGradient><radialGradient cx="211.26384" cy="198.25612" r="23.05454" gradientUnits="userSpaceOnUse" id="color-14"><stop offset="0" stop-color="#ff0000"/><stop offset="1" stop-color="#ff0000" stop-opacity="0"/></radialGradient><radialGradient cx="211.84767" cy="161.90222" r="23.05454" gradientUnits="userSpaceOnUse" id="color-15"><stop offset="0" stop-color="#ff0000"/><stop offset="1" stop-color="#ff0000" stop-opacity="0"/></radialGradient><radialGradient cx="266.1323" cy="179.28102" r="17.19111" gradientUnits="userSpaceOnUse" id="color-16"><stop offset="0" stop-color="#ff5656"/><stop offset="1" stop-color="#ff5656" stop-opacity="0"/></radialGradient><radialGradient cx="262.16634" cy="169.02875" r="13.83044" gradientUnits="userSpaceOnUse" id="color-17"><stop offset="0" stop-color="#ff5656"/><stop offset="1" stop-color="#ff5656" stop-opacity="0"/></radialGradient><radialGradient cx="268.02387" cy="176.09685" r="12.53788" gradientUnits="userSpaceOnUse" id="color-18"><stop offset="0" stop-color="#ff6d6d"/><stop offset="1" stop-color="#ff6d6d" stop-opacity="0"/></radialGradient><radialGradient cx="260.1341" cy="158.57409" r="7.10911" gradientUnits="userSpaceOnUse" id="color-19"><stop offset="0" stop-color="#ff4e4e"/><stop offset="1" stop-color="#ff4e4e" stop-opacity="0"/></radialGradient><radialGradient cx="260.60902" cy="199.0225" r="7.10911" gradientUnits="userSpaceOnUse" id="color-20"><stop offset="0" stop-color="#ff4e4e"/><stop offset="1" stop-color="#ff4e4e" stop-opacity="0"/></radialGradient><radialGradient cx="265.6246" cy="164.34955" r="8.55468" gradientUnits="userSpaceOnUse" id="color-21"><stop offset="0" stop-color="#ff7e7e"/><stop offset="1" stop-color="#ff7e7e" stop-opacity="0"/></radialGradient><radialGradient cx="270.683" cy="191.86293" r="5.76763" gradientUnits="userSpaceOnUse" id="color-22"><stop offset="0" stop-color="#ff8989"/><stop offset="1" stop-color="#ff8989" stop-opacity="0"/></radialGradient><radialGradient cx="273.78517" cy="186.43416" r="5.76763" gradientUnits="userSpaceOnUse" id="color-23"><stop offset="0" stop-color="#ff6060"/><stop offset="1" stop-color="#ff6060" stop-opacity="0"/></radialGradient><radialGradient cx="273.2419" cy="171.80875" r="5.3568" gradientUnits="userSpaceOnUse" id="color-24"><stop offset="0" stop-color="#ff7e7e"/><stop offset="1" stop-color="#ff7e7e" stop-opacity="0"/></radialGradient><radialGradient cx="265.76113" cy="194.34271" r="9.12829" gradientUnits="userSpaceOnUse" id="color-25"><stop offset="0" stop-color="#ff6060"/><stop offset="1" stop-color="#ff6060" stop-opacity="0"/></radialGradient><radialGradient cx="269.46182" cy="165.32798" r="3.55232" gradientUnits="userSpaceOnUse" id="color-26"><stop offset="0" stop-color="#ffb5b5"/><stop offset="1" stop-color="#ffb5b5" stop-opacity="0"/></radialGradient><radialGradient cx="252.59406" cy="203.8073" r="5.76762" gradientUnits="userSpaceOnUse" id="color-27"><stop offset="0" stop-color="#dc0000"/><stop offset="1" stop-color="#dc0000" stop-opacity="0"/></radialGradient><radialGradient cx="251.51344" cy="155.29925" r="5.76762" gradientUnits="userSpaceOnUse" id="color-28"><stop offset="0" stop-color="#dc0000"/><stop offset="1" stop-color="#dc0000" stop-opacity="0"/></radialGradient><radialGradient cx="269.33214" cy="178.65602" r="8.55467" gradientUnits="userSpaceOnUse" id="color-29"><stop offset="0" stop-color="#ff6060"/><stop offset="1" stop-color="#ff6060" stop-opacity="0"/></radialGradient><radialGradient cx="278.50041" cy="179.91091" r="5.3568" gradientUnits="userSpaceOnUse" id="color-30"><stop offset="0" stop-color="#ff6060"/><stop offset="1" stop-color="#ff6060" stop-opacity="0"/></radialGradient><radialGradient cx="224.39941" cy="195.57037" r="5.76763" gradientUnits="userSpaceOnUse" id="color-31"><stop offset="0" stop-color="#ff6060"/><stop offset="1" stop-color="#ff6060" stop-opacity="0"/></radialGradient><radialGradient cx="213.62981" cy="197.53312" r="9.12829" gradientUnits="userSpaceOnUse" id="color-32"><stop offset="0" stop-color="#ff6060"/><stop offset="1" stop-color="#ff6060" stop-opacity="0"/></radialGradient><radialGradient cx="213.06461" cy="161.6824" r="8.55468" gradientUnits="userSpaceOnUse" id="color-33"><stop offset="0" stop-color="#ff6060"/><stop offset="1" stop-color="#ff6060" stop-opacity="0"/></radialGradient><radialGradient cx="222.39329" cy="164.22985" r="5.3568" gradientUnits="userSpaceOnUse" id="color-34"><stop offset="0" stop-color="#ff6060"/><stop offset="1" stop-color="#ff6060" stop-opacity="0"/></radialGradient><linearGradient x1="248.00431" y1="179.53829" x2="227.92115" y2="179.45559" gradientUnits="userSpaceOnUse" id="color-35"><stop offset="0" stop-color="#1a1a1a" stop-opacity="0"/><stop offset="1" stop-color="#1a1a1a"/></linearGradient><linearGradient x1="246.31951" y1="173.79576" x2="237.2925" y2="173.79576" gradientUnits="userSpaceOnUse" id="color-36"><stop offset="0" stop-color="#000000"/><stop offset="1" stop-color="#737373"/></linearGradient><linearGradient x1="246.26982" y1="185.05643" x2="237.2428" y2="185.05643" gradientUnits="userSpaceOnUse" id="color-37"><stop offset="0" stop-color="#000000"/><stop offset="1" stop-color="#737373"/></linearGradient></defs><g transform="translate(-188.2093,-137.08649)"><g data-paper-data="{&quot;isPaintingLayer&quot;:true}" fill-rule="nonzero" stroke-width="0" stroke-linecap="butt" stroke-linejoin="miter" stroke-miterlimit="10" stroke-dasharray="" stroke-dashoffset="0" style="mix-blend-mode: normal"><path d="M192.18563,180.66667c0,-24.06867 19.51151,-43.58018 43.58018,-43.58018c24.06867,0 43.58018,19.51152 43.58018,43.58018c0,24.06867 -19.51151,43.58018 -43.58018,43.58018c-24.06867,0 -43.58018,-19.51152 -43.58018,-43.58018z" fill="url(#color-1)" stroke="none"/><path d="M249.94111,220.98229c-23.11295,0 -41.84969,-18.73675 -41.84969,-41.84969c0,-23.11295 18.73675,-41.84969 41.84969,-41.84969c23.11295,0 41.84969,18.73675 41.84969,41.84969c0,23.11295 -18.73675,41.84969 -41.84969,41.84969z" fill="url(#color-2)" stroke="#000000"/><path d="M190.84389,159.1399c0,0 9.4634,-7.49144 16.75191,-7.41083c10.08996,0.1116 20.61105,7.85902 29.6413,8.95344c5.15317,0.62454 8.91258,-0.63481 8.91258,-0.63481c0,0 -1.10194,-13.03331 3.61186,-16.21334c2.95839,-1.99578 11.4394,4.78088 15.72727,8.40368c4.77985,4.03847 20.77694,21.38853 20.88282,27.34847c0.08387,4.72113 -15.40007,22.64743 -20.84441,27.3375c-5.16434,4.44887 -12.538,9.72469 -15.68096,7.17099c-4.27131,-3.47049 -3.70702,-15.49004 -3.70702,-15.49004c0,0 -5.43904,-1.47641 -10.23526,-0.66978c-6.656,1.11941 -16.79995,8.8241 -26.40472,9.5461c-8.9021,0.66918 -18.30674,-6.38951 -18.30674,-6.38951c0,0 9.94456,-11.58715 16.33893,-12.71386c5.98984,-1.05544 17.08447,4.86652 17.08447,4.86652c0,0 -4.95348,-5.56663 -4.94651,-7.64609c0.00599,-1.78852 4.98586,-5.59936 4.98586,-5.59936c0,0 -4.90095,-3.47118 -4.9385,-5.12558c-0.05654,-2.49153 4.39579,-7.76078 4.39579,-7.76078c0,0 -11.18228,7.37584 -18.97438,3.06058c-7.33653,-4.06297 -14.2943,-11.0333 -14.2943,-11.0333z" fill="url(#color-3)" stroke="none"/><path d="M204.68719,153.24935c3.19926,0 5.79276,1.58312 5.79276,3.53601c0,1.95289 -2.5935,3.53602 -5.79276,3.53602c-3.19926,0 -5.79277,-1.58313 -5.79277,-3.53602c0,-1.95289 2.59351,-3.53601 5.79277,-3.53601z" fill="url(#color-4)" stroke="none"/><path d="M197.28483,156.64778c2.59618,0 4.70078,1.28469 4.70078,2.86945c0,1.58476 -2.10461,2.86945 -4.70078,2.86945c-2.59618,0 -4.70079,-1.28469 -4.70079,-2.86945c0,-1.58476 2.10462,-2.86945 4.70079,-2.86945z" fill="url(#color-5)" stroke="none"/><path d="M201.45744,162.37577c1.47042,0 2.66242,0.72762 2.66242,1.6252c0,0.89758 -1.192,1.62519 -2.66242,1.62519c-1.47042,0 -2.66244,-0.72762 -2.66244,-1.62519c0,-0.89758 1.19201,-1.6252 2.66244,-1.6252z" fill="url(#color-6)" stroke="none"/><path d="M206.21244,166.79338c1.47042,0 2.66243,0.72762 2.66243,1.6252c0,0.89758 -1.19201,1.6252 -2.66243,1.6252c-1.47042,0 -2.66243,-0.72762 -2.66243,-1.6252c0,-0.89758 1.19201,-1.6252 2.66243,-1.6252z" fill="url(#color-7)" stroke="none"/><path d="M213.80849,159.85443c1.86562,0 3.37798,0.92319 3.37798,2.06199c0,1.13881 -1.51237,2.06199 -3.37798,2.06199c-1.86562,0 -3.37799,-0.92318 -3.37799,-2.06199c0,-1.13881 1.51238,-2.06199 3.37799,-2.06199z" fill="url(#color-8)" stroke="none"/><path d="M199.42709,202.9567c0,-1.95289 2.59351,-3.53601 5.79277,-3.53601c3.19926,0 5.79276,1.58312 5.79276,3.53601c0,1.95289 -2.5935,3.53602 -5.79276,3.53602c-3.19926,0 -5.79277,-1.58312 -5.79277,-3.53602z" data-paper-data="{&quot;index&quot;:null}" fill="url(#color-9)" stroke="none"/><path d="M193.11672,200.22483c0,-1.58476 2.10462,-2.86945 4.70079,-2.86945c2.59618,0 4.70078,1.28469 4.70078,2.86945c0,1.58476 -2.10461,2.86945 -4.70078,2.86945c-2.59618,0 -4.70079,-1.28469 -4.70079,-2.86945z" data-paper-data="{&quot;index&quot;:null}" fill="url(#color-10)" stroke="none"/><path d="M199.32769,195.74109c0,-0.89758 1.19201,-1.62519 2.66244,-1.62519c1.47042,0 2.66242,0.72762 2.66242,1.62519c0,0.89758 -1.192,1.6252 -2.66242,1.6252c-1.47042,0 -2.66244,-0.72762 -2.66244,-1.6252z" data-paper-data="{&quot;index&quot;:null}" fill="url(#color-11)" stroke="none"/><path d="M204.08269,191.32348c0,-0.89758 1.19201,-1.6252 2.66243,-1.6252c1.47042,0 2.66243,0.72762 2.66243,1.6252c0,0.89758 -1.19201,1.6252 -2.66243,1.6252c-1.47042,0 -2.66243,-0.72762 -2.66243,-1.6252z" data-paper-data="{&quot;index&quot;:null}" fill="url(#color-12)" stroke="none"/><path d="M210.96316,197.82564c0,-1.13881 1.51238,-2.06199 3.37799,-2.06199c1.86562,0 3.37798,0.92318 3.37798,2.06199c0,1.13881 -1.51237,2.062 -3.37798,2.062c-1.86562,0 -3.37799,-0.92319 -3.37799,-2.062z" data-paper-data="{&quot;index&quot;:null}" fill="url(#color-13)" stroke="none"/><path d="M211.26384,221.31066c-12.73267,0 -23.05454,-10.32187 -23.05454,-23.05453c0,-12.73267 10.32188,-23.05454 23.05454,-23.05454c12.73267,0 23.05454,10.32188 23.05454,23.05454c0,12.73267 -10.32188,23.05453 -23.05454,23.05453z" fill="url(#color-14)" stroke="#000000"/><path d="M211.84767,184.95676c-12.73267,0 -23.05454,-10.32187 -23.05454,-23.05453c0,-12.73267 10.32188,-23.05454 23.05454,-23.05454c12.73267,0 23.05454,10.32188 23.05454,23.05454c0,12.73267 -10.32188,23.05453 -23.05454,23.05453z" fill="url(#color-15)" stroke="#000000"/><path d="M266.1323,162.0899c9.4944,0 17.19112,7.69673 17.19112,17.19112c0,9.49439 -7.69672,17.19111 -17.19112,17.19111c-9.4944,0 -17.19112,-7.69672 -17.19112,-17.19111c0,-9.49439 7.69672,-17.19112 17.19111,-17.19112z" fill="url(#color-16)" stroke="none"/><path d="M262.16634,155.1983c7.63835,0 13.83044,6.1921 13.83044,13.83045c0,7.63835 -6.1921,13.83044 -13.83045,13.83044c-7.63835,0 -13.83045,-6.19209 -13.83045,-13.83044c0,-7.63835 6.1921,-13.83045 13.83045,-13.83045z" fill="url(#color-17)" stroke="none"/><path d="M268.02387,163.55897c6.92449,0 12.53788,5.6134 12.53788,12.53788c0,6.92448 -5.6134,12.53788 -12.53788,12.53788c-6.92449,0 -12.53789,-5.6134 -12.53789,-12.53788c0,-6.92448 5.6134,-12.53788 12.53788,-12.53788z" fill="url(#color-18)" stroke="none"/><path d="M260.1341,151.46498c3.92625,0 7.1091,3.18286 7.1091,7.10911c0,3.92626 -3.18285,7.10911 -7.10911,7.10911c-3.92625,0 -7.10911,-3.18285 -7.10911,-7.10911c0,-3.92626 3.18286,-7.10911 7.10911,-7.10911z" fill="url(#color-19)" stroke="none"/><path d="M260.60902,191.91339c3.92625,0 7.10911,3.18285 7.10911,7.10911c0,3.92625 -3.18286,7.10911 -7.10911,7.10911c-3.92625,0 -7.10911,-3.18285 -7.10911,-7.1091c0,-3.92625 3.18286,-7.10911 7.10911,-7.10911z" fill="url(#color-20)" stroke="none"/><path d="M265.6246,155.79486c4.72463,0 8.55467,3.83005 8.55467,8.55468c0,4.72463 -3.83004,8.55468 -8.55466,8.55468c-4.72463,0 -8.55467,-3.83005 -8.55467,-8.55468c0,-4.72463 3.83006,-8.55468 8.55467,-8.55468z" fill="url(#color-21)" stroke="none"/><path d="M270.683,186.09531c3.18538,0 5.76762,2.58225 5.76762,5.76762c0,3.18538 -2.58225,5.76763 -5.76762,5.76763c-3.18538,0 -5.76763,-2.58225 -5.76763,-5.76763c0,-3.18538 2.58225,-5.76762 5.76763,-5.76762z" fill="url(#color-22)" stroke="none"/><path d="M273.78517,180.66654c3.18538,0 5.76762,2.58225 5.76762,5.76762c0,3.18538 -2.58225,5.76763 -5.76762,5.76763c-3.18538,0 -5.76763,-2.58225 -5.76763,-5.76763c0,-3.18538 2.58225,-5.76762 5.76763,-5.76762z" fill="url(#color-23)" stroke="none"/><path d="M273.2419,166.45195c2.95848,0 5.3568,2.39832 5.3568,5.3568c0,2.95848 -2.39831,5.3568 -5.3568,5.3568c-2.95848,0 -5.35681,-2.39832 -5.35681,-5.3568c0,-2.95848 2.39832,-5.3568 5.35681,-5.3568z" fill="url(#color-24)" stroke="none"/><path d="M265.76113,185.2144c5.04142,0 9.12829,4.08687 9.12829,9.12829c0,5.04142 -4.08687,9.12829 -9.12829,9.12829c-5.04143,0 -9.1283,-4.08687 -9.1283,-9.12829c0,-5.04142 4.08687,-9.12829 9.1283,-9.12829z" fill="url(#color-25)" stroke="none"/><path d="M269.46182,161.77566c1.9619,0 3.55232,1.59043 3.55232,3.55232c0,1.9619 -1.59042,3.55232 -3.55232,3.55232c-1.9619,0 -3.55233,-1.59043 -3.55233,-3.55232c0,-1.9619 1.59043,-3.55232 3.55233,-3.55232z" fill="url(#color-26)" stroke="none"/><path d="M252.59406,198.03968c3.18538,0 5.76762,2.58225 5.76762,5.76763c0,3.18537 -2.58225,5.76762 -5.76762,5.76762c-3.18538,0 -5.76763,-2.58225 -5.76763,-5.76762c0,-3.18538 2.58226,-5.76763 5.76763,-5.76763z" fill="url(#color-27)" stroke="none"/><path d="M251.51344,149.53163c3.18538,0 5.76762,2.58225 5.76762,5.76762c0,3.18537 -2.58225,5.76762 -5.76762,5.76762c-3.18538,0 -5.76763,-2.58225 -5.76763,-5.76762c0,-3.18537 2.58226,-5.76762 5.76763,-5.76762z" fill="url(#color-28)" stroke="none"/><path d="M269.33214,170.10135c4.72463,0 8.55467,3.83005 8.55467,8.55468c0,4.72463 -3.83004,8.55468 -8.55466,8.55468c-4.72463,0 -8.55468,-3.83005 -8.55468,-8.55468c0,-4.72463 3.83007,-8.55468 8.55468,-8.55468z" fill="url(#color-29)" stroke="none"/><path d="M278.50041,174.55411c2.95848,0 5.3568,2.39832 5.3568,5.3568c0,2.95848 -2.39831,5.3568 -5.3568,5.3568c-2.95848,0 -5.35681,-2.39832 -5.35681,-5.3568c0,-2.95848 2.39832,-5.3568 5.35681,-5.3568z" fill="url(#color-30)" stroke="none"/><path d="M224.39941,189.80275c3.18538,0 5.76762,2.58225 5.76762,5.76762c0,3.18538 -2.58225,5.76763 -5.76762,5.76763c-3.18538,0 -5.76763,-2.58225 -5.76763,-5.76763c0,-3.18538 2.58225,-5.76762 5.76763,-5.76762z" fill="url(#color-31)" stroke="none"/><path d="M213.62981,188.40481c5.04142,0 9.12829,4.08687 9.12829,9.12829c0,5.04142 -4.08687,9.12829 -9.12829,9.12829c-5.04144,0 -9.1283,-4.08687 -9.1283,-9.12829c0,-5.04142 4.08687,-9.12829 9.1283,-9.12829z" fill="url(#color-32)" stroke="none"/><path d="M213.06461,153.12773c4.72463,0 8.55467,3.83005 8.55467,8.55468c0,4.72463 -3.83004,8.55468 -8.55466,8.55468c-4.72463,0 -8.55468,-3.83005 -8.55468,-8.55468c0,-4.72463 3.83006,-8.55468 8.55468,-8.55468z" fill="url(#color-33)" stroke="none"/><path d="M222.39329,158.87306c2.95848,0 5.3568,2.39832 5.3568,5.3568c0,2.95848 -2.39831,5.3568 -5.3568,5.3568c-2.95848,0 -5.35681,-2.39832 -5.35681,-5.3568c0,-2.95848 2.39832,-5.3568 5.35681,-5.3568z" fill="url(#color-34)" stroke="none"/><path d="M229.30879,191.80783c-2.07748,-3.00392 4.22271,-11.8527 4.22271,-11.8527c0,0 -6.52075,-8.42316 -5.3994,-11.36778c1.43161,-3.75935 3.97519,-6.1468 8.20594,-6.12938c4.86767,0.02004 9.13091,1.25299 11.5119,6.04162c1.30944,2.63352 -3.32128,11.2626 -3.32128,11.2626c0,0 4.98763,8.64472 3.32751,11.44667c-2.51748,4.24903 -6.5541,5.33411 -11.10063,5.31539c-4.54651,-0.01872 -7.44677,-4.71642 -7.44677,-4.71642z" fill="url(#color-35)" stroke="none"/><path d="M231.50896,186.73572c0,-4.13706 3.35376,-7.49084 7.49083,-7.49084c4.13705,0 7.49083,3.35376 7.49083,7.49084c0,4.13706 -3.35375,7.49082 -7.49083,7.49082c-4.13705,0 -7.49083,-3.35374 -7.49083,-7.49082z" fill="#ffffff" stroke="#000000"/><path d="M231.50896,172.22061c0,-4.13705 3.35376,-7.49082 7.49083,-7.49082c4.13705,0 7.49083,3.35374 7.49083,7.49082c0,4.13705 -3.35375,7.49083 -7.49083,7.49083c-4.13705,0 -7.49083,-3.35375 -7.49083,-7.49083z" fill="#ffffff" stroke="#000000"/><path d="M241.806,169.28226c2.49274,0 4.5135,2.02077 4.5135,4.5135c0,2.49274 -2.02077,4.5135 -4.5135,4.5135c-2.49274,0 -4.5135,-2.02077 -4.5135,-4.5135c0,-2.49274 2.02077,-4.5135 4.5135,-4.5135z" fill="url(#color-36)" stroke="none"/><path d="M241.7563,180.54292c2.49274,0 4.51351,2.02077 4.51351,4.51351c0,2.49274 -2.02077,4.51351 -4.51351,4.51351c-2.49274,0 -4.51351,-2.02077 -4.51351,-4.51351c0,-2.49274 2.02077,-4.51351 4.51351,-4.51351z" fill="url(#color-37)" stroke="none"/></g></g></svg>