<svg version="1.1" xmlns="http://www.w3.org/2000/svg" xmlns:xlink="http://www.w3.org/1999/xlink" width="88.42581" height="88.42581" viewBox="0,0,88.42581,88.42581"><defs><linearGradient x1="235.84569" y1="154.10446" x2="235.84569" y2="213.63534" gradientUnits="userSpaceOnUse" id="color-1"><stop offset="0" stop-color="#fff387"/><stop offset="1" stop-color="#f9ca3a"/></linearGradient><linearGradient x1="221.61545" y1="146.36469" x2="221.61545" y2="177.14615" gradientUnits="userSpaceOnUse" id="color-2"><stop offset="0" stop-color="#ff00e8"/><stop offset="1" stop-color="#0080ff"/></linearGradient><linearGradient x1="239.85268" y1="189.38425" x2="272.352" y2="189.38425" gradientUnits="userSpaceOnUse" id="color-3"><stop offset="0" stop-color="#4159ff"/><stop offset="1" stop-color="#ff00f3"/></linearGradient></defs><g transform="translate(-195.78712,-135.7871)"><g data-paper-data="{&quot;isPaintingLayer&quot;:true}" fill-rule="nonzero" stroke-linejoin="miter" stroke-miterlimit="10" stroke-dasharray="" stroke-dashoffset="0" style="mix-blend-mode: normal"><path d="M195.78712,224.21291v-88.42581h88.42581v88.42581z" fill="none" stroke="none" stroke-width="0" stroke-linecap="butt"/><g><path d="M206.08028,183.86987c0,-16.439 13.32645,-29.76541 29.76543,-29.76541c16.43902,0 29.76543,13.32643 29.76543,29.76541c0,16.43902 -13.32641,29.76543 -29.76543,29.76543c-16.43898,0 -29.76543,-13.32643 -29.76543,-29.76543z" fill="url(#color-1)" stroke="none" stroke-width="0" stroke-linecap="butt"/><path d="M215.69194,184.17233c0,0 1.72609,-3.58085 7.19836,-4.42911c6.44732,-0.99938 8.17922,2.04547 8.17922,2.04547" fill="none" stroke="#000000" stroke-width="2" stroke-linecap="round"/><path d="M239.55261,180.7153c0,0 0.72882,-3.42626 7.17614,-4.42566c5.47231,-0.84825 8.20144,2.04201 8.20144,2.04201" data-paper-data="{&quot;index&quot;:null}" fill="none" stroke="#000000" stroke-width="2" stroke-linecap="round"/><path d="M206.69271,177.14615l-1.16557,-30.78142l32.17662,8.0675z" fill="url(#color-2)" stroke="none" stroke-width="0" stroke-linecap="butt"/><path d="M263.84931,184.56398c0,0 5.72789,-0.62197 7.63123,2.69767c1.82473,3.18251 -1.56075,6.04861 -5.8721,6.19349c-8.22441,0.27637 -25.75574,0.23943 -25.75574,0.23943" fill="none" stroke="url(#color-3)" stroke-width="5" stroke-linecap="round"/><path d="M238.33091,189.31953l-1.14132,8.36972" fill="none" stroke="#000000" stroke-width="2" stroke-linecap="round"/><path d="M251.26597,151.65576c0,-1.89102 1.53295,-3.42399 3.42397,-3.42399c1.89102,0 3.42397,1.53297 3.42397,3.42399c0,1.89102 -1.53295,3.42397 -3.42397,3.42397c-1.89102,0 -3.42397,-1.53295 -3.42397,-3.42397z" fill="#ff0000" stroke="none" stroke-width="0" stroke-linecap="butt"/><path d="M261.15743,166.39783c0,-1.20815 0.97939,-2.18754 2.18752,-2.18754c1.20814,0 2.18754,0.97939 2.18754,2.18754c0,1.20815 -0.97942,2.18756 -2.18754,2.18756c-1.20814,0 -2.18752,-0.9794 -2.18752,-2.18756z" fill="#00ff60" stroke="none" stroke-width="0" stroke-linecap="butt"/><path d="M270.09783,156.31614c0,-1.20815 0.97937,-2.18754 2.18752,-2.18754c1.20815,0 2.18754,0.97939 2.18754,2.18754c0,1.20815 -0.97939,2.18756 -2.18754,2.18756c-1.20815,0 -2.18752,-0.9794 -2.18752,-2.18756z" fill="#ffaf00" stroke="none" stroke-width="0" stroke-linecap="butt"/><path d="M268.57606,178.19158c0,-1.20815 0.97939,-2.18754 2.18754,-2.18754c1.20815,0 2.18754,0.97939 2.18754,2.18754c0,1.20815 -0.97939,2.18756 -2.18754,2.18756c-1.20815,0 -2.18754,-0.9794 -2.18754,-2.18756z" fill="#8e00ff" stroke="none" stroke-width="0" stroke-linecap="butt"/><path d="M254.68992,201.96922c0,-1.20815 0.97939,-2.18754 2.18754,-2.18754c1.20815,0 2.18754,0.97939 2.18754,2.18754c0,1.20815 -0.97939,2.18754 -2.18754,2.18754c-1.20815,0 -2.18754,-0.97939 -2.18754,-2.18754z" fill="#ff0000" stroke="none" stroke-width="0" stroke-linecap="butt"/><path d="M266.48362,207.67583c0,-1.20815 0.97937,-2.18754 2.18752,-2.18754c1.20815,0 2.18754,0.97939 2.18754,2.18754c0,1.20815 -0.97939,2.18754 -2.18754,2.18754c-1.20815,0 -2.18752,-0.97939 -2.18752,-2.18754z" fill="#0050ff" stroke="none" stroke-width="0" stroke-linecap="butt"/></g></g></g></svg>