<svg version="1.1" xmlns="http://www.w3.org/2000/svg" xmlns:xlink="http://www.w3.org/1999/xlink" width="481.92337" height="360" viewBox="0,0,481.92337,360"><defs><radialGradient cx="240.00011" cy="180" r="240.33333" gradientUnits="userSpaceOnUse" id="color-1"><stop offset="0" stop-color="#acabad"/><stop offset="1" stop-color="#575352"/></radialGradient><linearGradient x1="376.05174" y1="158.53308" x2="434.52439" y2="206.6187" gradientUnits="userSpaceOnUse" id="color-2"><stop offset="0" stop-color="#8a694a"/><stop offset="1" stop-color="#573b34"/></linearGradient><linearGradient x1="39.39967" y1="242.60677" x2="78.83468" y2="322.39323" gradientUnits="userSpaceOnUse" id="color-3"><stop offset="0" stop-color="#8a4300"/><stop offset="1" stop-color="#573128"/></linearGradient><linearGradient x1="94.55218" y1="263.32016" x2="94.55218" y2="357.67984" gradientUnits="userSpaceOnUse" id="color-4"><stop offset="0" stop-color="#575352"/><stop offset="1" stop-color="#5f1c1c"/></linearGradient><linearGradient x1="117.41005" y1="311.5" x2="213.69431" y2="311.5" gradientUnits="userSpaceOnUse" id="color-5"><stop offset="0" stop-color="#575352"/><stop offset="1" stop-color="#ababab"/></linearGradient><linearGradient x1="274.03396" y1="268.08235" x2="276.87474" y2="356.91765" gradientUnits="userSpaceOnUse" id="color-6"><stop offset="0" stop-color="#ab8138"/><stop offset="1" stop-color="#1b1a19"/></linearGradient><linearGradient x1="408.26971" y1="240.60677" x2="368.8347" y2="320.39323" gradientUnits="userSpaceOnUse" id="color-7"><stop offset="0" stop-color="#575352"/><stop offset="1" stop-color="#8a4300"/></linearGradient><linearGradient x1="62.0704" y1="142.91765" x2="59.22962" y2="54.08235" gradientUnits="userSpaceOnUse" id="color-8"><stop offset="0" stop-color="#ab8138"/><stop offset="1" stop-color="#1b1a19"/></linearGradient><linearGradient x1="54.8462" y1="5.08235" x2="60.25815" y2="93.91765" gradientUnits="userSpaceOnUse" id="color-9"><stop offset="0" stop-color="#8a5000"/><stop offset="1" stop-color="#573737"/></linearGradient><linearGradient x1="238.05172" y1="244.46692" x2="296.52437" y2="196.3813" gradientUnits="userSpaceOnUse" id="color-10"><stop offset="0" stop-color="#8a694a"/><stop offset="1" stop-color="#573b34"/></linearGradient><linearGradient x1="126.8034" y1="129.14244" x2="164.30098" y2="209.85756" gradientUnits="userSpaceOnUse" id="color-11"><stop offset="0" stop-color="#000000"/><stop offset="1" stop-color="#575352"/></linearGradient><linearGradient x1="167.8034" y1="148.14244" x2="205.30098" y2="228.85756" gradientUnits="userSpaceOnUse" id="color-12"><stop offset="0" stop-color="#5f1c1c"/><stop offset="1" stop-color="#575352"/></linearGradient><linearGradient x1="358.2697" y1="181.60677" x2="318.83468" y2="261.39323" gradientUnits="userSpaceOnUse" id="color-13"><stop offset="0" stop-color="#000000"/><stop offset="1" stop-color="#575352"/></linearGradient><linearGradient x1="171.26969" y1="197.60677" x2="131.83468" y2="277.39323" gradientUnits="userSpaceOnUse" id="color-14"><stop offset="0" stop-color="#8a4300"/><stop offset="1" stop-color="#575352"/></linearGradient><linearGradient x1="355.84623" y1="37.08235" x2="361.25816" y2="125.91765" gradientUnits="userSpaceOnUse" id="color-15"><stop offset="0" stop-color="#8a4300"/><stop offset="1" stop-color="#575352"/></linearGradient><linearGradient x1="144.84621" y1="46.08235" x2="150.25815" y2="134.91765" gradientUnits="userSpaceOnUse" id="color-16"><stop offset="0" stop-color="#ababab"/><stop offset="1" stop-color="#575352"/></linearGradient><linearGradient x1="58.25815" y1="204.08235" x2="52.8462" y2="292.91765" gradientUnits="userSpaceOnUse" id="color-17"><stop offset="0" stop-color="#ababab"/><stop offset="1" stop-color="#575352"/></linearGradient><linearGradient x1="249.58461" y1="232.14944" x2="305.21504" y2="301.6207" gradientUnits="userSpaceOnUse" id="color-18"><stop offset="0" stop-color="#ababab"/><stop offset="1" stop-color="#575352"/></linearGradient><linearGradient x1="74.26969" y1="20.60677" x2="34.83468" y2="100.39323" gradientUnits="userSpaceOnUse" id="color-19"><stop offset="0" stop-color="#b55800"/><stop offset="1" stop-color="#3c3938"/></linearGradient><linearGradient x1="207.84621" y1="9.08235" x2="213.25816" y2="97.91765" gradientUnits="userSpaceOnUse" id="color-20"><stop offset="0" stop-color="#8a5000"/><stop offset="1" stop-color="#573737"/></linearGradient><linearGradient x1="350.25816" y1="199.91765" x2="344.84623" y2="111.08235" gradientUnits="userSpaceOnUse" id="color-21"><stop offset="0" stop-color="#ab9c83"/><stop offset="1" stop-color="#575352"/></linearGradient><linearGradient x1="148.25814" y1="255.08235" x2="142.8462" y2="343.91765" gradientUnits="userSpaceOnUse" id="color-22"><stop offset="0" stop-color="#ab8138"/><stop offset="1" stop-color="#575352"/></linearGradient><linearGradient x1="396.07042" y1="7.08235" x2="393.22964" y2="95.91765" gradientUnits="userSpaceOnUse" id="color-23"><stop offset="0" stop-color="#ab8138"/><stop offset="1" stop-color="#1b1a19"/></linearGradient><linearGradient x1="421.80342" y1="295.85755" x2="384.30584" y2="215.14243" gradientUnits="userSpaceOnUse" id="color-24"><stop offset="0" stop-color="#5f1c1c"/><stop offset="1" stop-color="#575352"/></linearGradient><linearGradient x1="209.07041" y1="165.91765" x2="206.22963" y2="77.08235" gradientUnits="userSpaceOnUse" id="color-25"><stop offset="0" stop-color="#ab8138"/><stop offset="1" stop-color="#1b1a19"/></linearGradient><linearGradient x1="56.26969" y1="110.60677" x2="16.83468" y2="190.39323" gradientUnits="userSpaceOnUse" id="color-26"><stop offset="0" stop-color="#a9927d"/><stop offset="1" stop-color="#573b34"/></linearGradient><linearGradient x1="233.05172" y1="273.53308" x2="291.52437" y2="321.6187" gradientUnits="userSpaceOnUse" id="color-27"><stop offset="0" stop-color="#8a694a"/><stop offset="1" stop-color="#573b34"/></linearGradient><linearGradient x1="296.99492" y1="104.60949" x2="252.10943" y2="36.39051" gradientUnits="userSpaceOnUse" id="color-28"><stop offset="0" stop-color="#000000"/><stop offset="1" stop-color="#575352"/></linearGradient><linearGradient x1="118.55218" y1="0.32016" x2="118.55218" y2="94.67984" gradientUnits="userSpaceOnUse" id="color-29"><stop offset="0" stop-color="#575352"/><stop offset="1" stop-color="#5f1c1c"/></linearGradient><linearGradient x1="42.8034" y1="284.64088" x2="80.30097" y2="340.35912" gradientUnits="userSpaceOnUse" id="color-30"><stop offset="0" stop-color="#000000"/><stop offset="1" stop-color="#575352"/></linearGradient><linearGradient x1="411.41283" y1="66.63134" x2="415.66131" y2="136.36866" gradientUnits="userSpaceOnUse" id="color-31"><stop offset="0" stop-color="#ababab"/><stop offset="1" stop-color="#575352"/></linearGradient><linearGradient x1="106.07041" y1="153.08235" x2="103.22963" y2="241.91765" gradientUnits="userSpaceOnUse" id="color-32"><stop offset="0" stop-color="#ab8138"/><stop offset="1" stop-color="#1b1a19"/></linearGradient><linearGradient x1="173.25815" y1="222.08235" x2="167.8462" y2="310.91765" gradientUnits="userSpaceOnUse" id="color-33"><stop offset="0" stop-color="#848484"/><stop offset="1" stop-color="#403d3c"/></linearGradient><linearGradient x1="245.25815" y1="169.65483" x2="239.8462" y2="27.34517" gradientUnits="userSpaceOnUse" id="color-34"><stop offset="0" stop-color="#848484"/><stop offset="1" stop-color="#403d3c"/></linearGradient><linearGradient x1="365.25816" y1="254.91765" x2="359.84622" y2="166.08235" gradientUnits="userSpaceOnUse" id="color-35"><stop offset="0" stop-color="#848484"/><stop offset="1" stop-color="#403d3c"/></linearGradient><linearGradient x1="47.41003" y1="136.5" x2="143.6943" y2="136.5" gradientUnits="userSpaceOnUse" id="color-36"><stop offset="0" stop-color="#403d3c"/><stop offset="1" stop-color="#848484"/></linearGradient><radialGradient cx="240.00001" cy="180" r="240.33334" gradientUnits="userSpaceOnUse" id="color-37"><stop offset="0" stop-color="#ffa8a8" stop-opacity="0.2"/><stop offset="1" stop-color="#222222" stop-opacity="0.40392"/></radialGradient></defs><g transform="translate(1.58996,0)"><g data-paper-data="{&quot;isPaintingLayer&quot;:true}" fill-rule="nonzero" stroke-width="0" stroke-linecap="butt" stroke-linejoin="miter" stroke-miterlimit="10" stroke-dasharray="" stroke-dashoffset="0" style="mix-blend-mode: normal"><path d="M-0.33326,360v-360h480.66667v360z" fill="url(#color-1)" stroke="#000000"/><path d="M324.90623,226.67984l5.28601,-58.93385l91.71898,-18.42583l25.85193,57.72849z" data-paper-data="{&quot;index&quot;:null}" fill="url(#color-2)" stroke="none"/><path d="M4.90622,355.67984l3.56498,-97.78647l61.85693,-30.57321l17.43501,95.78647z" data-paper-data="{&quot;index&quot;:null}" fill="url(#color-3)" stroke="none"/><path d="M152.19815,289.46085l-44.8855,68.21899l-70.40643,-26.14069l44.8855,-68.21899z" data-paper-data="{&quot;index&quot;:null}" fill="url(#color-4)" stroke="none"/><path d="M144.822,358.01554l-27.41195,-67.8353l90.87231,-25.19578l5.41195,88.83531z" fill="url(#color-5)" stroke="none"/><path d="M258.79886,359.01554l-14.3888,-67.8353l74.47018,-18.19578l12.81408,39.83531z" data-paper-data="{&quot;index&quot;:null}" fill="url(#color-6)" stroke="none"/><path d="M359.90624,321.10663l17.43501,-95.78647l61.85693,30.57321l3.56498,97.78647z" fill="url(#color-7)" stroke="none"/><path d="M77.30549,51.98446l14.3888,67.8353l-74.47018,18.19578l-12.81408,-39.83531z" data-paper-data="{&quot;index&quot;:null}" fill="url(#color-8)" stroke="none"/><path d="M25.82199,96.01554l-27.41195,-67.8353l90.87231,-25.19578l5.41195,88.83531z" fill="url(#color-9)" stroke="none"/><path d="M309.76313,195.95135l-25.85193,57.72849l-91.71897,-18.42583l-5.28601,-58.93385z" data-paper-data="{&quot;index&quot;:null}" fill="url(#color-10)" stroke="none"/><path d="M133.01253,224.39314l-44.49758,-60.71513l69.5769,-49.07116l37.49758,80.71513z" fill="url(#color-11)" stroke="none"/><path d="M174.01253,243.39314l-24.49758,-80.71513l132.5769,-64.07116l-45.50242,115.71513z" fill="url(#color-12)" stroke="none"/><path d="M287.90621,246.10663l39.43502,-79.78647l61.85692,30.57321l-39.43502,79.78647z" fill="url(#color-13)" stroke="none"/><path d="M122.90622,278.10663l17.43501,-95.78647l61.85693,30.57321l3.56498,97.78647z" fill="url(#color-14)" stroke="none"/><path d="M326.82201,128.01554l-27.41195,-67.8353l90.87231,-25.19578l5.41195,88.83531z" fill="url(#color-15)" stroke="none"/><path d="M115.822,137.01554l-27.41195,-67.8353l90.87231,-25.19578l5.41195,88.83531z" fill="url(#color-16)" stroke="none"/><path d="M18.41004,290.81977l5.41195,-88.83531l90.87231,25.19578l-27.41195,67.8353z" data-paper-data="{&quot;index&quot;:null}" fill="url(#color-17)" stroke="none"/><path d="M278.2852,323.18531l-55.63043,-69.47126l84.2632,-42.33577l25.22697,68.67782z" data-paper-data="{&quot;index&quot;:null}" fill="url(#color-18)" stroke="none"/><path d="M25.90622,101.10663l17.43501,-70.78647l61.85693,5.57321l3.56498,97.78647z" fill="url(#color-19)" stroke="none"/><path d="M178.822,100.01554l-27.41195,-67.8353l90.87231,-25.19578l5.41195,88.83531z" fill="url(#color-20)" stroke="none"/><path d="M379.28238,108.98446l27.41195,67.8353l-141.87231,18.19578l-24.41195,-39.83531z" data-paper-data="{&quot;index&quot;:null}" fill="url(#color-21)" stroke="none"/><path d="M38.41004,299.81977l24.41195,-39.83531l141.87231,18.19578l-27.41195,67.8353z" data-paper-data="{&quot;index&quot;:null}" fill="url(#color-22)" stroke="none"/><path d="M338.41007,51.81977l12.81408,-39.83531l74.47018,18.19578l-14.3888,67.8353z" data-paper-data="{&quot;index&quot;:null}" fill="url(#color-23)" stroke="none"/><path d="M415.59429,200.60685l24.49758,80.71513l-132.5769,64.07116l45.50242,-115.71513z" data-paper-data="{&quot;index&quot;:null}" fill="url(#color-24)" stroke="none"/><path d="M224.3055,74.98446l14.3888,67.8353l-74.47018,18.19578l-12.81408,-39.83531z" data-paper-data="{&quot;index&quot;:null}" fill="url(#color-25)" stroke="none"/><path d="M7.90622,191.10663l17.43501,-95.78647l61.85693,30.57321l3.56498,97.78647z" fill="url(#color-26)" stroke="none"/><path d="M181.90621,341.67984l5.28601,-58.93385l91.71898,-18.42583l25.85193,57.72849z" data-paper-data="{&quot;index&quot;:null}" fill="url(#color-27)" stroke="none"/><path d="M287.31264,23.32016l44.88551,68.21899l-70.40643,26.14069l-44.88551,-68.21899z" data-paper-data="{&quot;index&quot;:null}" fill="url(#color-28)" stroke="none"/><path d="M176.19815,26.46085l-44.88551,68.21899l-70.40643,-26.14069l44.8855,-68.21899z" data-paper-data="{&quot;index&quot;:null}" fill="url(#color-29)" stroke="none"/><path d="M49.01253,350.39314l-44.49758,-41.9121l69.5769,-33.87419l37.49758,55.71825z" fill="url(#color-30)" stroke="none"/><path d="M388.62831,138.01554l-21.51888,-53.25194l71.33641,-19.77914l4.24848,69.73732z" data-paper-data="{&quot;index&quot;:null}" fill="url(#color-31)" stroke="none"/><path d="M48.41004,197.81977l12.81408,-39.83531l74.47018,18.19578l-14.3888,67.8353z" data-paper-data="{&quot;index&quot;:null}" fill="url(#color-32)" stroke="none"/><path d="M133.41004,308.81977l5.41195,-88.83531l90.87231,25.19578l-27.41195,67.8353z" data-paper-data="{&quot;index&quot;:null}" fill="url(#color-33)" stroke="none"/><path d="M274.28234,23.98446l27.41195,108.66872l-90.87231,40.36236l-5.41195,-142.30967z" data-paper-data="{&quot;index&quot;:null}" fill="url(#color-34)" stroke="none"/><path d="M394.28237,163.98446l27.41195,67.8353l-90.87231,25.19578l-5.41195,-88.83531z" data-paper-data="{&quot;index&quot;:null}" fill="url(#color-35)" stroke="none"/><path d="M143.6943,94.18023l-5.41195,88.83531l-90.87231,-25.19578l27.41195,-67.8353z" data-paper-data="{&quot;index&quot;:null}" fill="url(#color-36)" stroke="none"/><path d="M-0.33333,360v-360h480.66667v360z" fill="url(#color-37)" stroke="#000000"/></g></g></svg>