<svg version="1.1" xmlns="http://www.w3.org/2000/svg" xmlns:xlink="http://www.w3.org/1999/xlink" width="573.8373" height="428.71466" viewBox="0,0,573.8373,428.71466"><defs><radialGradient cx="114.54373" cy="231.673" r="30.73361" gradientUnits="userSpaceOnUse" id="color-1"><stop offset="0" stop-color="#ff0077" stop-opacity="0.8549"/><stop offset="1" stop-color="#ff0077" stop-opacity="0.43529"/></radialGradient><radialGradient cx="165.87452" cy="215.51331" r="10.625" gradientUnits="userSpaceOnUse" id="color-2"><stop offset="0" stop-color="#ff0077" stop-opacity="0.8549"/><stop offset="1" stop-color="#ff0077" stop-opacity="0.43529"/></radialGradient><radialGradient cx="70.63788" cy="218.13683" r="8.63058" gradientUnits="userSpaceOnUse" id="color-3"><stop offset="0" stop-color="#ff0077" stop-opacity="0.77255"/><stop offset="1" stop-color="#ff0077" stop-opacity="0.30588"/></radialGradient><radialGradient cx="53.5798" cy="230.94815" r="17.05809" gradientUnits="userSpaceOnUse" id="color-4"><stop offset="0" stop-color="#ff0077" stop-opacity="0.77255"/><stop offset="1" stop-color="#ff0077" stop-opacity="0.30588"/></radialGradient><radialGradient cx="161.59696" cy="245.45627" r="10.625" gradientUnits="userSpaceOnUse" id="color-5"><stop offset="0" stop-color="#ff0077" stop-opacity="0.8549"/><stop offset="1" stop-color="#ff0077" stop-opacity="0.43529"/></radialGradient><radialGradient cx="144.01142" cy="307.71862" r="42.97165" gradientUnits="userSpaceOnUse" id="color-6"><stop offset="0" stop-color="#ff0077" stop-opacity="0.8549"/><stop offset="1" stop-color="#ff0077" stop-opacity="0.43529"/></radialGradient><radialGradient cx="386.54519" cy="233.59769" r="165.91592" gradientUnits="userSpaceOnUse" id="color-7"><stop offset="0" stop-color="#000000" stop-opacity="0.53333"/><stop offset="1" stop-color="#000000" stop-opacity="0"/></radialGradient><linearGradient x1="308.2908" y1="310.99933" x2="583.07877" y2="310.99933" gradientUnits="userSpaceOnUse" id="color-8"><stop offset="0" stop-color="#aaffa6"/><stop offset="1" stop-color="#00c100"/></linearGradient><linearGradient x1="368.30529" y1="55.49549" x2="368.30529" y2="206.51141" gradientUnits="userSpaceOnUse" id="color-9"><stop offset="0" stop-color="#2bff2b"/><stop offset="1" stop-color="#baffb6"/></linearGradient><linearGradient x1="334.30251" y1="54.02429" x2="406.13422" y2="331.88966" gradientUnits="userSpaceOnUse" id="color-10"><stop offset="0" stop-color="#00ff5e"/><stop offset="1" stop-color="#03b300"/></linearGradient><linearGradient x1="428.09303" y1="185.79756" x2="455.84057" y2="182.04608" gradientUnits="userSpaceOnUse" id="color-11"><stop offset="0" stop-color="#003d17" stop-opacity="0"/><stop offset="1" stop-color="#003d17" stop-opacity="0.36471"/></linearGradient><linearGradient x1="255.89592" y1="162.10484" x2="303.01" y2="155.73496" gradientUnits="userSpaceOnUse" id="color-12"><stop offset="0" stop-color="#ffffff" stop-opacity="0.67843"/><stop offset="1" stop-color="#ffffff" stop-opacity="0"/></linearGradient><linearGradient x1="365.25055" y1="45.57413" x2="368.93504" y2="72.82613" gradientUnits="userSpaceOnUse" id="color-13"><stop offset="0" stop-color="#ffffff" stop-opacity="0.67843"/><stop offset="1" stop-color="#ffffff" stop-opacity="0"/></linearGradient><radialGradient cx="267.58556" cy="253.53612" r="36.00425" gradientUnits="userSpaceOnUse" id="color-14"><stop offset="0" stop-color="#ff0077" stop-opacity="0.8549"/><stop offset="1" stop-color="#ff0077" stop-opacity="0.43529"/></radialGradient><linearGradient x1="328.17539" y1="107.50297" x2="359.01627" y2="107.50297" gradientUnits="userSpaceOnUse" id="color-15"><stop offset="0" stop-color="#8eff8e"/><stop offset="1" stop-color="#ffffff"/></linearGradient><linearGradient x1="314.04724" y1="181.76403" x2="416.05935" y2="137.04638" gradientUnits="userSpaceOnUse" id="color-16"><stop offset="0" stop-color="#000000"/><stop offset="1" stop-color="#36ff33"/></linearGradient><linearGradient x1="308.04152" y1="222.34549" x2="427.49835" y2="313.34799" gradientUnits="userSpaceOnUse" id="color-17"><stop offset="0" stop-color="#003d17" stop-opacity="0"/><stop offset="1" stop-color="#003d17"/></linearGradient><linearGradient x1="404.62778" y1="223.02723" x2="447.73558" y2="217.19903" gradientUnits="userSpaceOnUse" id="color-18"><stop offset="0" stop-color="#aaffa6"/><stop offset="1" stop-color="#02ff00"/></linearGradient><radialGradient cx="474.19205" cy="214.08745" r="35.00413" gradientUnits="userSpaceOnUse" id="color-19"><stop offset="0" stop-color="#ff0077" stop-opacity="0.8549"/><stop offset="1" stop-color="#ff0077" stop-opacity="0.43529"/></radialGradient><radialGradient cx="420.00954" cy="43.93536" r="35.00413" gradientUnits="userSpaceOnUse" id="color-20"><stop offset="0" stop-color="#ff0077" stop-opacity="0.8549"/><stop offset="1" stop-color="#ff0077" stop-opacity="0.43529"/></radialGradient><radialGradient cx="441.87265" cy="38.70722" r="21.00248" gradientUnits="userSpaceOnUse" id="color-21"><stop offset="0" stop-color="#ff0077" stop-opacity="0.8549"/><stop offset="1" stop-color="#ff0077" stop-opacity="0.43529"/></radialGradient><radialGradient cx="395.76999" cy="35.38023" r="8.50101" gradientUnits="userSpaceOnUse" id="color-22"><stop offset="0" stop-color="#ff0077" stop-opacity="0.8549"/><stop offset="1" stop-color="#ff0077" stop-opacity="0.43529"/></radialGradient><linearGradient x1="354.35119" y1="240.42018" x2="364.06488" y2="312.26644" gradientUnits="userSpaceOnUse" id="color-23"><stop offset="0" stop-color="#00e25c"/><stop offset="1" stop-color="#029200"/></linearGradient><linearGradient x1="253.39106" y1="307.47076" x2="364.01259" y2="302.78604" gradientUnits="userSpaceOnUse" id="color-24"><stop offset="0" stop-color="#aaffa6"/><stop offset="1" stop-color="#02ff00"/></linearGradient><linearGradient x1="128.45192" y1="288.48717" x2="599.21642" y2="331.94966" gradientUnits="userSpaceOnUse" id="color-25"><stop offset="0" stop-color="#00ff74"/><stop offset="1" stop-color="#00661c"/></linearGradient><radialGradient cx="466.53563" cy="337.53762" r="71.36079" gradientUnits="userSpaceOnUse" id="color-26"><stop offset="0" stop-color="#ffffff" stop-opacity="0"/><stop offset="1" stop-color="#ffffff" stop-opacity="0.6549"/></radialGradient><radialGradient cx="473.14254" cy="344.4813" r="72.99315" gradientUnits="userSpaceOnUse" id="color-27"><stop offset="0" stop-color="#000000" stop-opacity="0"/><stop offset="1" stop-color="#000000" stop-opacity="0.39608"/></radialGradient><linearGradient x1="255.06619" y1="285.62161" x2="251.58734" y2="323.30274" gradientUnits="userSpaceOnUse" id="color-28"><stop offset="0" stop-color="#ffffff" stop-opacity="0.6549"/><stop offset="1" stop-color="#ffffff" stop-opacity="0"/></linearGradient><linearGradient x1="250.69623" y1="297.0329" x2="247.33483" y2="333.44196" gradientUnits="userSpaceOnUse" id="color-29"><stop offset="0" stop-color="#000000" stop-opacity="0"/><stop offset="1" stop-color="#000000" stop-opacity="0.39608"/></linearGradient><linearGradient x1="254.47631" y1="295.03255" x2="334.86016" y2="299.35582" gradientUnits="userSpaceOnUse" id="color-30"><stop offset="0" stop-color="#aaffa6"/><stop offset="1" stop-color="#02ff00"/></linearGradient><linearGradient x1="332.65243" y1="228.30988" x2="337.00961" y2="331.19681" gradientUnits="userSpaceOnUse" id="color-31"><stop offset="0" stop-color="#ffffff"/><stop offset="1" stop-color="#ffffff" stop-opacity="0.54902"/></linearGradient><linearGradient x1="384.14287" y1="212.22409" x2="398.3751" y2="317.49163" gradientUnits="userSpaceOnUse" id="color-32"><stop offset="0" stop-color="#ffffff"/><stop offset="1" stop-color="#03ff05"/></linearGradient><linearGradient x1="326.3791" y1="297.69585" x2="410.49461" y2="301.58081" gradientUnits="userSpaceOnUse" id="color-33"><stop offset="0" stop-color="#cdffcd"/><stop offset="1" stop-color="#00e212"/></linearGradient><radialGradient cx="360.46819" cy="315.50155" r="92" gradientUnits="userSpaceOnUse" id="color-34"><stop offset="0" stop-color="#ffffff" stop-opacity="0.57255"/><stop offset="1" stop-color="#ffffff" stop-opacity="0"/></radialGradient><linearGradient x1="594.53689" y1="316.77198" x2="588.67563" y2="353.81109" gradientUnits="userSpaceOnUse" id="color-35"><stop offset="0" stop-color="#4affb6"/><stop offset="1" stop-color="#03c400"/></linearGradient><linearGradient x1="267.46671" y1="89.60559" x2="327.46671" y2="89.60559" gradientUnits="userSpaceOnUse" id="color-36"><stop offset="0" stop-color="#ffffff"/><stop offset="1" stop-color="#ffffff" stop-opacity="0"/></linearGradient><linearGradient x1="263.80001" y1="130.20559" x2="278.13336" y2="130.20559" gradientUnits="userSpaceOnUse" id="color-37"><stop offset="0" stop-color="#ffffff"/><stop offset="1" stop-color="#ffffff" stop-opacity="0"/></linearGradient><linearGradient x1="359.86668" y1="39.23892" x2="359.86668" y2="61.23892" gradientUnits="userSpaceOnUse" id="color-38"><stop offset="0" stop-color="#ffffff"/><stop offset="1" stop-color="#ffffff" stop-opacity="0"/></linearGradient><linearGradient x1="268.76669" y1="98.05814" x2="328.87586" y2="98.05814" gradientUnits="userSpaceOnUse" id="color-39"><stop offset="0" stop-color="#000000" stop-opacity="0"/><stop offset="1" stop-color="#000000" stop-opacity="0.46774"/></linearGradient><linearGradient x1="280.55001" y1="179.91357" x2="334.21671" y2="179.91357" gradientUnits="userSpaceOnUse" id="color-40"><stop offset="0" stop-color="#000000" stop-opacity="0"/><stop offset="1" stop-color="#000000" stop-opacity="0.64516"/></linearGradient><linearGradient x1="284.21254" y1="132.16635" x2="323.71254" y2="132.16635" gradientUnits="userSpaceOnUse" id="color-41"><stop offset="0" stop-color="#00a336" stop-opacity="0.79216"/><stop offset="1" stop-color="#00a336" stop-opacity="0"/></linearGradient><linearGradient x1="328.31908" y1="297.27504" x2="385.21534" y2="297.27504" gradientUnits="userSpaceOnUse" id="color-42"><stop offset="0" stop-color="#ffffff"/><stop offset="1" stop-color="#ffffff" stop-opacity="0"/></linearGradient><linearGradient x1="327.44079" y1="314.44167" x2="375.71617" y2="314.44167" gradientUnits="userSpaceOnUse" id="color-43"><stop offset="0" stop-color="#ffffff"/><stop offset="1" stop-color="#ffffff" stop-opacity="0"/></linearGradient><linearGradient x1="328.43057" y1="326.94167" x2="369.14381" y2="326.94167" gradientUnits="userSpaceOnUse" id="color-44"><stop offset="0" stop-color="#ffffff"/><stop offset="1" stop-color="#ffffff" stop-opacity="0"/></linearGradient><linearGradient x1="327.90909" y1="321.44167" x2="374.19716" y2="321.44167" gradientUnits="userSpaceOnUse" id="color-45"><stop offset="0" stop-color="#ffffff"/><stop offset="1" stop-color="#ffffff" stop-opacity="0"/></linearGradient><linearGradient x1="358.81903" y1="130.94386" x2="358.81903" y2="202.32423" gradientUnits="userSpaceOnUse" id="color-46"><stop offset="0" stop-color="#000000" stop-opacity="0.75"/><stop offset="1" stop-color="#000000" stop-opacity="0"/></linearGradient><linearGradient x1="374.24265" y1="295.30393" x2="374.24265" y2="346.30393" gradientUnits="userSpaceOnUse" id="color-47"><stop offset="0" stop-color="#009e3b" stop-opacity="0"/><stop offset="1" stop-color="#009e3b" stop-opacity="0.37097"/></linearGradient><linearGradient x1="359.61765" y1="315.42678" x2="359.61765" y2="350.05393" gradientUnits="userSpaceOnUse" id="color-48"><stop offset="0" stop-color="#009e3b" stop-opacity="0"/><stop offset="1" stop-color="#009e3b" stop-opacity="0.37097"/></linearGradient><linearGradient x1="329.70106" y1="337.70393" x2="346.70109" y2="337.70393" gradientUnits="userSpaceOnUse" id="color-49"><stop offset="0" stop-color="#ffffff"/><stop offset="1" stop-color="#ffffff" stop-opacity="0"/></linearGradient><linearGradient x1="390.63631" y1="267.56023" x2="390.63631" y2="335.30393" gradientUnits="userSpaceOnUse" id="color-50"><stop offset="0" stop-color="#009e3b" stop-opacity="0"/><stop offset="1" stop-color="#009e3b" stop-opacity="0.37097"/></linearGradient><linearGradient x1="141.24551" y1="248.8558" x2="129.14863" y2="275.21232" gradientUnits="userSpaceOnUse" id="color-51"><stop offset="0" stop-color="#37ffa5"/><stop offset="1" stop-color="#00b843"/></linearGradient><linearGradient x1="138.83692" y1="252.36252" x2="133.477" y2="266.37219" gradientUnits="userSpaceOnUse" id="color-52"><stop offset="0" stop-color="#ffffff"/><stop offset="1" stop-color="#ffffff" stop-opacity="0"/></linearGradient></defs><g transform="translate(-36.52171,-18.53466)"><g data-paper-data="{&quot;isPaintingLayer&quot;:true}" fill-rule="nonzero" stroke-linejoin="miter" stroke-miterlimit="10" stroke-dasharray="" stroke-dashoffset="0" style="mix-blend-mode: normal"><path d="M127.68663,216.4465c16.97371,0 30.73361,13.75991 30.73361,30.73361c0,16.97371 -13.75991,30.73361 -30.73361,30.73361c-16.97371,0 -30.73361,-13.7599 -30.73361,-30.73361c0,-16.97371 13.75991,-30.73361 30.73361,-30.73361z" fill="url(#color-1)" stroke="none" stroke-width="0" stroke-linecap="butt"/><path d="M169.04526,205.8215c5.86803,0 10.625,4.75698 10.625,10.625c0,5.86803 -4.75698,10.625 -10.625,10.625c-5.86803,0 -10.625,-4.75697 -10.625,-10.625c0,-5.86803 4.75698,-10.625 10.625,-10.625z" fill="url(#color-2)" stroke="none" stroke-width="0" stroke-linecap="butt"/><path d="M70.63788,209.50626c4.76654,0 8.63058,3.86405 8.63058,8.63058c0,4.76654 -3.86405,8.63058 -8.63058,8.63058c-4.76654,0 -8.63058,-3.86404 -8.63058,-8.63058c0,-4.76654 3.86405,-8.63058 8.63058,-8.63058z" fill="url(#color-3)" stroke="none" stroke-width="0" stroke-linecap="butt"/><path d="M53.5798,213.89008c9.42092,0 17.05809,7.63717 17.05809,17.05809c0,9.42092 -7.63717,17.05809 -17.05809,17.05809c-9.42092,0 -17.05809,-7.63716 -17.05809,-17.05809c0,-9.42092 7.63717,-17.05809 17.05809,-17.05809z" fill="url(#color-4)" stroke="none" stroke-width="0" stroke-linecap="butt"/><path d="M160.17237,237.9578c5.86803,0 10.625,4.75698 10.625,10.625c0,5.86803 -4.75698,10.625 -10.625,10.625c-5.86803,0 -10.625,-4.75697 -10.625,-10.625c0,-5.86803 4.75698,-10.625 10.625,-10.625z" fill="url(#color-5)" stroke="none" stroke-width="0" stroke-linecap="butt"/><path d="M148.12389,252.18011c23.73259,0 42.97165,19.23906 42.97165,42.97165c0,23.73259 -19.23906,42.97165 -42.97165,42.97165c-23.73259,0 -42.97165,-19.23906 -42.97165,-42.97165c0,-23.73259 19.23906,-42.97165 42.97165,-42.97165z" fill="url(#color-6)" stroke="none" stroke-width="0" stroke-linecap="butt"/><path d="M222.12516,255.82738c-12.27712,-90.80665 51.38365,-174.37256 142.1903,-186.64968c90.80665,-12.27712 174.37256,51.38365 186.64968,142.1903c12.27712,90.80665 -51.38365,174.37256 -142.1903,186.64968c-53.10125,7.17933 -103.72647,-11.60901 -139.06807,-46.60813c-25.09486,-24.8517 -42.48382,-57.87677 -47.58161,-95.58216z" fill="url(#color-7)" stroke="none" stroke-width="0" stroke-linecap="butt"/><path d="M402.16439,398.72898l-43.76388,-80.76645l-50.10968,-143.2132l80.45918,20.40391l48.57134,47.96968l69.51936,49.09551l72.04259,18.16201l4.19547,77.49034l-83.7435,-16.60515l33.66849,58.58413l-89.8762,17.39957z" fill="url(#color-8)" stroke="none" stroke-width="0" stroke-linecap="butt"/><path d="M293.38932,121.63038c5.1766,-41.37492 42.91406,-70.71946 84.28899,-65.54285c41.37492,5.17659 70.71947,42.91406 65.54287,84.28898c-5.1766,41.37492 -42.91406,70.71947 -84.28898,65.54286c-41.37492,-5.1766 -70.71946,-42.91406 -65.54286,-84.28898z" fill="url(#color-9)" stroke="none" stroke-width="0" stroke-linecap="butt"/><path d="M447.12959,321.29186c0,0 -75.62958,15.0814 -114.34659,-22.28724c-17.27443,-16.67283 -45.90597,-58.91699 -45.90597,-58.91699c0,0 10.27091,21.7744 -5.43208,7.72466c-13.3208,-11.91835 -21.37802,-72.8115 -21.9578,-83.0424c-2.20248,-38.86509 9.31352,-75.2016 23.93281,-94.9057c14.61929,-19.7041 27.23999,-25.07065 32.99972,-26.65686c6.64123,-1.82896 -0.89725,9.98171 -0.89725,9.98171c0,0 21.84475,-12.06028 39.17018,-14.22028c13.10897,-1.63433 30.39173,-0.94483 49.38389,4.58052c18.99215,5.52536 27.54638,14.87729 40.89611,28.00311c13.34973,13.12583 -16.25229,-1.19246 -12.42372,3.55327c19.39738,24.04416 9.89856,56.57527 21.1155,85.36313c16.07326,41.25141 51.87386,88.68627 51.87386,88.68627c0,0 -47.06951,29.27738 -81.988,-44.08926c-10.07866,-21.1761 21.93213,-48.89884 6.27375,-86.19196c-15.65837,-37.29311 -65.55771,-57.63486 -65.55771,-57.63486l16.28546,18.56156c0,0 0.08525,3.61503 -18.44613,3.50425c-8.65565,-0.05175 -13.21226,-4.47684 -13.21226,-4.47684l-27.81658,31.82637l-10.40043,-18.45101c0,0 -13.48093,19.07246 -14.22814,21.67829c-10.83028,37.76914 10.80376,60.41521 29.15575,84.18323c14.51748,18.80189 37.52402,3.07113 78.15915,39.54516c31.76367,28.511 43.36651,83.6819 43.36651,83.6819z" fill="url(#color-10)" stroke="none" stroke-width="0" stroke-linecap="butt"/><path d="M434.68468,230.82034c-12.90119,-13.79616 -9.39019,-39.59892 -9.39019,-39.59892c0,0 6.29504,-14.12023 8.26537,-22.84725c1.65671,-7.33792 2.77971,-26.07367 2.77971,-26.07367c0,0 6.84428,53.71061 14.50978,71.86434c7.91261,18.73893 32.24808,38.86936 32.24808,38.86936c0,0 -35.51156,-8.41771 -48.41275,-22.21386z" fill="url(#color-11)" stroke="none" stroke-width="0" stroke-linecap="butt"/><path d="M286.75883,248.98364c0,0 -6.55717,-4.62835 -12.90781,-24.58881c-8.5702,-26.93665 -11.58859,-61.39945 -11.37455,-72.56706c0.55402,-28.90437 6.31568,-46.90825 19.65549,-73.81505c13.33981,-26.90681 29.46791,-26.20083 29.46791,-26.20083c0,0 -32.67139,47.41607 -28.6743,95.90066c5.13514,62.28906 32.3419,98.68361 32.3419,98.68361l-17.96246,2.0841l-13.08834,-13.80486z" fill="url(#color-12)" stroke="none" stroke-width="0" stroke-linecap="butt"/><path d="M278.57545,85.03294c0,0 8.46026,-14.32736 13.74112,-20.86348c7.05604,-8.73327 12.08648,-13.57889 22.31515,-18.20839c4.71236,-2.13282 -2.58336,10.28342 -2.58336,10.28342c0,0 26.40896,-12.22897 39.93914,-14.8933c13.53018,-2.66433 34.15265,-1.38272 55.28842,5.15648c21.13578,6.5392 24.07083,15.86221 24.07083,15.86221z" fill="url(#color-13)" stroke="none" stroke-width="0" stroke-linecap="butt"/><path d="M249.06576,252.21626c-2.66386,-19.70299 11.14909,-37.8349 30.85208,-40.49876c19.70299,-2.66386 37.8349,11.14909 40.49876,30.85208c2.66386,19.70299 -11.14909,37.8349 -30.85208,40.49876c-19.70299,2.66386 -37.8349,-11.14909 -40.49876,-30.85208z" fill="url(#color-14)" stroke="none" stroke-width="0" stroke-linecap="butt"/><path d="M312.25466,128.57608l15.71672,-7.5776l-6.8926,-36.68678l-15.15358,-15.92799l91.71638,35.67719l-9.3126,6.89601l-12.8287,26.93203c0,0 -11.02544,-5.12374 -22.3395,-6.48316c-7.85236,-0.94348 -40.90612,-2.82971 -40.90612,-2.82971z" fill="#000000" stroke="none" stroke-width="0" stroke-linecap="butt"/><path d="M338.97082,127.14502l-3.68442,-17.05066l14.26092,-1.77198l-17.0683,-9.1755l-4.3036,-14.34733l30.14672,11.19589l0.438,21.58736l-8.17891,1.00363l8.30567,5.2438l0.12937,6.37617z" fill="url(#color-15)" stroke="none" stroke-width="0" stroke-linecap="butt"/><path d="M316.68579,184.9063c-22.09607,-24.59499 -14.34693,-39.5115 -6.75803,-49.06207c1.7643,-2.22036 10.82941,-4.44089 10.82941,-4.44089l7.26551,8.46877l6.94116,-8.92822l19.96494,2.98533l48.59252,16.13632l3.54935,8.97194l4.76792,-5.33063l3.62762,0.32529l-6.19371,26.4769c0,0 -55.20514,46.00639 -92.58668,4.39725z" fill="url(#color-16)" stroke="none" stroke-width="0" stroke-linecap="butt"/><path d="M395.7611,131.61603l-1.40663,-15.93094l-7.10952,-13.55067l57.33886,3.89863l-31.96211,10.89558l11.24937,11.55214z" fill="#000000" stroke="none" stroke-width="0" stroke-linecap="butt"/><path d="M344.50939,305.01626c-10.61002,-7.84801 -30.79752,-28.23053 -44.6282,-49.15482c-7.84568,-11.60856 -6.96702,-13.65856 -6.96702,-13.65856l27.36323,-34.31571c0,0 45.55164,4.1578 71.24581,23.16321c25.69417,19.00542 42.72453,73.43783 42.72453,73.43783c0,0 -62.17047,20.91941 -89.73835,0.52805z" fill="url(#color-17)" stroke="none" stroke-width="0" stroke-linecap="butt"/><path d="M404.62778,223.02723c-1.60941,-11.90389 6.73591,-22.85859 18.6398,-24.468c11.90389,-1.60941 22.85859,6.73591 24.468,18.6398c1.60941,11.90389 -6.73591,22.85859 -18.6398,24.468c-11.90389,1.60941 -22.85859,-6.73591 -24.468,-18.6398z" fill="url(#color-18)" stroke="none" stroke-width="0" stroke-linecap="butt"/><path d="M472.30191,174.27065c19.15569,-2.58986 36.78393,10.83939 39.37379,29.99508c2.58986,19.15569 -10.83939,36.78393 -29.99508,39.37379c-19.15569,2.58986 -36.78393,-10.83939 -39.37379,-29.99508c-2.58986,-19.15569 10.83939,-36.78393 29.99508,-39.37379z" fill="url(#color-19)" stroke="none" stroke-width="0" stroke-linecap="butt"/><path d="M421.29707,35.85634c19.15569,-2.58986 36.78393,10.83939 39.37379,29.99508c2.58986,19.15569 -10.83939,36.78393 -29.99508,39.37379c-19.15569,2.58986 -36.78393,-10.83939 -39.37379,-29.99508c-2.58986,-19.15569 10.83939,-36.78393 29.99508,-39.37379z" fill="url(#color-20)" stroke="none" stroke-width="0" stroke-linecap="butt"/><path d="M446.31187,19.35608c11.49341,-1.55392 22.07036,6.50364 23.62427,17.99705c1.55392,11.49341 -6.50364,22.07036 -17.99705,23.62427c-11.49341,1.55392 -22.07036,-6.50364 -23.62427,-17.99705c-1.55392,-11.49341 6.50364,-22.07036 17.99705,-23.62427z" fill="url(#color-21)" stroke="none" stroke-width="0" stroke-linecap="butt"/><path d="M398.34445,18.61231c4.65209,-0.62897 8.93324,2.63242 9.56221,7.28452c0.62897,4.65209 -2.63242,8.93324 -7.28452,9.56221c-4.65209,0.62897 -8.93324,-2.63242 -9.56221,-7.28452c-0.62897,-4.65209 2.63242,-8.93324 7.28452,-9.56221z" fill="url(#color-22)" stroke="none" stroke-width="0" stroke-linecap="butt"/><path d="M323.33858,283.46333c-2.51586,-18.60838 9.92678,-40.19239 28.53516,-42.70825c2.19507,-0.29677 14.90882,-0.79284 17.04105,-0.67296c15.94344,0.89642 24.54652,17.18724 26.76561,33.60055c2.51586,18.60838 -15.48462,36.40287 -34.09299,38.91873c-18.60838,2.51586 -35.73296,-10.5297 -38.24883,-29.13807z" fill="url(#color-23)" stroke="none" stroke-width="0" stroke-linecap="butt"/><path d="M253.39106,307.47076c-1.29363,-30.54728 22.42112,-56.35946 52.9684,-57.65309c30.54728,-1.29363 56.35946,22.42112 57.6531,52.9684c1.29363,30.54728 -22.42112,56.35946 -52.9684,57.65309c-30.54728,1.29363 -56.35946,-22.42112 -57.65309,-52.9684z" fill="url(#color-24)" stroke="none" stroke-width="0" stroke-linecap="butt"/><g stroke-width="0" stroke-linecap="butt"><path d="M592.08733,343.01514c0,0 -151.5044,21.04525 -262.94116,0.26481c-122.34166,-22.81396 -193.26032,-74.08312 -193.26032,-74.08312l6.01202,-11.16553c0,0 44.39151,29.81928 193.54068,55.00811c165.86917,28.01256 252.84749,16.68997 252.84749,16.68997c0,0 10.20407,2.62394 10.53609,6.06814c0.31013,3.21744 -6.73478,7.21764 -6.73478,7.21764z" data-paper-data="{&quot;index&quot;:null}" fill="url(#color-25)" stroke="none"/><path d="M480.66539,330.5831c19.12399,1.18965 58.05856,1.27829 58.05856,1.27829l-5.02388,12.76241l-3.39864,-9.36068l-24.16994,-2.30387l-5.94378,5.84213l-7.56655,-5.24508l-8.91232,-0.13804l-6.42346,8.33246l-1.75361,-7.63758l-4.4935,3.75203l-2.69218,-6.16172l-13.94777,-1.08912l-4.27696,9.73136l-1.48888,-10.1816l-8.61139,16.26225l-5.15846,-15.20141l-5.61261,6.46521l-2.53636,-8.04881c0,0 -30.24345,-6.4582 -30.45391,-7.12607c-0.18851,-0.59819 29.24975,3.30486 29.24975,3.30486c0,0 36.58884,3.60799 55.15589,4.76299z" data-paper-data="{&quot;index&quot;:null}" fill="url(#color-26)" stroke="#000000"/><path d="M485.5449,351.55209c-8.06034,-0.11773 -21.66284,1.3779 -33.85971,1.31525c-26.04634,-0.13378 -52.45958,-1.74242 -52.45958,-1.74242l4.42405,-11.77605l3.96855,9.13367l19.78499,0.39758l7.16612,-12.57755l3.27154,11.12292l16.39514,0.02958l5.89822,-8.71215l2.22054,7.51511l4.25396,-4.02157l3.06646,5.98426l13.98836,0.22825l3.66967,-9.97625l2.11295,10.07061l13.67841,-1.90667l5.20388,-6.79854l3.02715,7.87738l5.60071,-12.65702l6.28013,11.34893c0,0 22.83352,0.09665 22.98624,0.49407c0,0 -25.08351,5.17051 -60.67777,4.65064z" data-paper-data="{&quot;index&quot;:null}" fill="url(#color-27)" stroke="#000000"/><path d="M298.47042,307.09948c0,0 14.12294,2.2929 13.81448,2.90738c-0.34438,0.68604 -15.7849,1.01782 -15.7849,1.01782l-4.1504,8.26783l-3.44858,-8.80939l-8.16506,15.51072l-3.79254,-20.598l-3.72562,10.94604l-1.49271,-12.07756l-12.62332,-2.73723l-3.84269,6.11667l-3.09743,-5.46283l-3.35925,8.03053l-3.7263,-11.12403l-7.93421,-2.37193l-7.94769,3.71167l-3.8894,-8.20756l-21.97323,-4.27823l-5.22485,9.48818l-5.90568,-12.16768l-16.54429,-8.33357l-0.11253,10.80623l-4.26492,-13.01121l-2.21954,5.58906l-3.80067,-8.62959l-16.57003,-9.30077c0,0 19.91492,8.47589 28.43157,11.76547c6.94914,2.68412 18.9289,6.52763 18.9289,6.52763c0,0 35.25042,11.02153 52.48668,15.11362c17.23627,4.09209 49.93423,11.31073 49.93423,11.31073z" data-paper-data="{&quot;index&quot;:null}" fill="url(#color-28)" stroke="#000000"/><path d="M185.82926,297.55152l21.26176,7.38626l7.81168,-11.20945l2.59585,15.62883l4.22722,-8.11103l3.36399,8.93953l11.9053,5.53879l3.82794,-10.80525l1.37787,12.13383l12.59302,3.21389l3.89924,-5.9715l3.04465,5.57975l3.43411,-7.90361l3.61969,11.26465l14.71407,4.03455l5.06923,-11.70165l4.01546,15.92783l18.92608,7.87047c0,0 -18.3533,-3.79207 -41.74562,-10.10397c-12.996,-3.50668 -34.75246,-11.0104 -53.98871,-18.77553z" data-paper-data="{&quot;index&quot;:null}" fill="url(#color-29)" stroke="#000000"/></g><path d="M334.86016,299.35582c-0.62287,11.58124 -19.12234,20.0019 -41.31972,18.80806c-22.19738,-1.19384 -39.68698,-11.55009 -39.0641,-23.13133c0.62287,-11.58124 19.12234,-20.0019 41.31972,-18.80806c22.19738,1.19384 39.68698,11.55009 39.0641,23.13133z" fill="url(#color-30)" stroke="#000000" stroke-width="0" stroke-linecap="butt"/><path d="M144.28758,260.99758l0.02347,-7.93664l274.05548,-29.94276l168.06179,100.72206l-0.81973,15.06253l-167.76625,-114.77125z" fill="url(#color-31)" stroke="none" stroke-width="0" stroke-linecap="butt"/><g stroke="none" stroke-width="0" stroke-linecap="butt"><path d="M342.56885,293.43996l73.16863,-72.78135l-4.52592,-12.09424l10.78307,10.72779l12.54652,3.10668l-12.61945,4.12036l-38.6799,89.48661z" fill="url(#color-32)"/><path d="M326.3791,297.69585c1.07282,-23.22786 20.77241,-41.18806 44.00028,-40.11525c23.22787,1.07283 40.85204,20.75932 40.11524,44.00027c-0.99195,31.28972 -39.99591,43.61025 -39.99591,43.61025c0,0 -24.05321,7.06979 -30.58626,8.82782c-2.53587,0.6824 -9.73974,2.02384 -9.73974,2.02384c0,0 -4.57067,-41.52282 -3.79361,-58.34694z" fill="url(#color-33)"/></g><path d="M269.29765,327.82786c-6.80763,-50.35209 28.49211,-96.68919 78.8442,-103.49682c50.35209,-6.80763 96.68919,28.49211 103.49682,78.8442c6.80763,50.35209 -28.49211,96.68919 -78.8442,103.49682c-50.35209,6.80763 -96.68919,-28.49211 -103.49682,-78.8442z" fill="url(#color-34)" stroke="none" stroke-width="0" stroke-linecap="butt"/><path d="" fill="none" stroke="#000000" stroke-width="0.5" stroke-linecap="round"/><path d="M573.0867,332.36091c1.61853,-10.22807 11.22213,-17.20747 21.45019,-15.58893c10.22807,1.61854 17.20748,11.22212 15.58893,21.45018c-1.61853,10.22807 -11.22213,17.20747 -21.45019,15.58892c-10.22807,-1.61854 -17.20748,-11.22211 -15.58893,-21.45018z" fill="url(#color-35)" stroke="none" stroke-width="0" stroke-linecap="butt"/><path d="M267.46671,110.77225c0,0 4.40171,-14.54547 6.81351,-20.00655c3.04809,-6.90186 10.01719,-18.1036 10.01719,-18.1036l43.16931,-4.22319l-46.1286,14.43931l14.98899,0.98303l-10.26628,4.58227l21.12784,0.68584l-30.61612,12.15449l19.46679,0.41589z" fill="url(#color-36)" stroke="none" stroke-width="0" stroke-linecap="butt"/><path d="M263.80001,138.03893l2.33333,-15.66666l14.66667,-5l-10.50666,12.21334l7.84,3.12z" fill="url(#color-37)" stroke="#000000" stroke-width="0" stroke-linecap="butt"/><path d="M341.70005,57.23892l-12.33333,-7.66667c0,0 10.82153,-8.65811 27.56477,-9.43086c15.59919,-0.71995 13.43523,0.43086 13.43523,0.43086l25.12365,14.06777l-34.07862,-7.99999l9.42207,10.02435l-20.86147,-11.75156l15.03447,20.95136l-22.97344,-17.29192z" fill="url(#color-38)" stroke="#000000" stroke-width="0" stroke-linecap="butt"/><path d="M268.76669,113.13893l30.63341,-11.35408l-15.6952,-1.69621l25.21148,-10.64361l-17.31825,-2.05246l9.80462,-4.41423l-11.63606,-1.17274l26.27568,-6.82823l8.05766,2.82823l4.77585,22.24644l-6.98456,8.87108l-9.62645,-19.83554c0,0 -8.06467,9.81168 -10.75222,15.61772c-2.68755,5.80604 -3.99893,7.68917 -6.41262,15.93363c-1.88368,6.43409 -2.35849,18.30566 -2.35849,18.30566l-6.80667,-23.7861z" fill="url(#color-39)" stroke="#000000" stroke-width="0" stroke-linecap="butt"/><path d="M280.55001,196.74691l23.66667,-6.33334l-13.24499,-10.04979l10.36212,-1.56001l-21.71256,-14.03431l15.4756,0.26164l-9.02621,-6.89696l5.16854,-2.477l-10.68917,-5.91023l15.16667,1c0,0 6.47409,17.77957 12.67458,26.89481c6.7524,9.9266 22.15875,24.77185 22.15875,24.77185l35.75215,15.43191l-43.28753,-0.28156l9.27685,-6.11286l-21.39865,-3.55839l10.27346,-3.232z" fill="url(#color-40)" stroke="#000000" stroke-width="0" stroke-linecap="butt"/><path d="M295.96254,149.79135c0,0 -4.3707,-8.80241 -2.28901,-22.87139c2.05844,-13.91183 10.28901,-25.87862 10.28901,-25.87862l19.5,14.5l-18.36851,1.08262l3.2945,3.4928l-10.51475,1.55369l20.85688,5.1319l-12.97589,5.31253l5.13018,1.95188l-13.78431,7.29047l5.86188,4.68412z" fill="url(#color-41)" stroke="#000000" stroke-width="0" stroke-linecap="butt"/><path d="M326.50419,303.40004l1.27041,-13.25c0,0 6.20623,-10.41667 24.55642,-10.41667c21.29934,0 30.67317,25.08333 30.67317,25.08333c0,0 -9.74525,-15 -30.0065,-15.66666c-21.37236,-0.70322 -26.4935,14.25 -26.4935,14.25z" fill="url(#color-42)" stroke="#000000" stroke-width="0" stroke-linecap="butt"/><path d="M326.97884,316.81667l-0.30798,-7.58333c0,0 7.22049,-13.66667 22.79028,-13.66667c18.07207,0 25.79305,13.08333 25.79305,13.08333c0,0 -6.57169,-8.66667 -25.1771,-8.66667c-18.14384,0 -23.09826,16.83333 -23.09826,16.83333z" fill="url(#color-43)" stroke="#000000" stroke-width="0" stroke-linecap="butt"/><path d="M328.43057,334.06667l-0.25973,-10.58333c0,0 6.08943,-15.41667 19.22027,-15.41667c15.24115,0 21.36307,13.08333 21.36307,13.08333c0,0 -5.54226,-7.66666 -21.2332,-7.66666c-15.30167,0 -19.0904,20.58333 -19.0904,20.58333z" fill="url(#color-44)" stroke="#000000" stroke-width="0" stroke-linecap="butt"/><path d="M327.46617,322.31667l-0.2953,-6.08333c0,0 6.9419,-12.92057 21.85209,-13.66667c6.66145,-0.33333 9.39792,4.41667 9.39792,4.41667c0,0 -2.63449,-1.41666 -8.80732,-1.75c-17.37161,-0.93807 -22.14739,17.08333 -22.14739,17.08333z" fill="url(#color-45)" stroke="#000000" stroke-width="0" stroke-linecap="butt"/><path d="M316.68579,184.9063c-22.09607,-24.59499 -14.34693,-39.5115 -6.75803,-49.06207c1.7643,-2.22036 10.82941,-4.44089 10.82941,-4.44089l7.26551,8.46877l6.94116,-8.92822l19.96494,2.98533l48.59252,16.13632l3.54935,8.97194l4.76792,-5.33063l3.62762,0.32529l-6.19371,26.4769c0,0 -55.20514,46.00639 -92.58668,4.39725z" fill="url(#color-46)" stroke="none" stroke-width="0" stroke-linecap="butt"/><path d="M367.95109,346.30393c0,0 12.16292,-10.29309 12.18431,-22.92003c0.0362,-21.37143 -17.18431,-28.07997 -17.18431,-28.07997c0,0 20.85638,4.56218 22.5,25.5c1.03864,13.23111 -8,21.75 -8,21.75z" fill="url(#color-47)" stroke="#000000" stroke-width="0" stroke-linecap="butt"/><path d="M355.34591,350.05393c0,0 8.26104,-8.67745 8.2727,-15.56187c0.02458,-14.51042 -11.66752,-19.06528 -11.66752,-19.06528c0,0 14.16073,3.09756 15.27668,17.31357c0.7052,8.98344 -5.43171,14.76746 -5.43171,14.76746z" fill="url(#color-48)" stroke="#000000" stroke-width="0" stroke-linecap="butt"/><path d="M330.45106,356.57893l-2,-19c0,0 4.87646,-10.33839 7.19998,-12.93985c4.8215,-5.39822 14.55002,-6.56015 14.55002,-6.56015z" fill="url(#color-49)" stroke="#000000" stroke-width="0" stroke-linecap="butt"/><path d="M385.69557,337.55393c0,0 14.04837,-16.11964 14.07615,-32.52073c0.04703,-27.75926 -29.57063,-39.22296 -29.57063,-39.22296c0,0 33.34027,7.17581 35.47515,34.37185c1.34909,17.18583 -10.89116,31.25099 -10.89116,31.25099z" fill="url(#color-50)" stroke="#000000" stroke-width="0" stroke-linecap="butt"/><g stroke-width="0" stroke-linecap="butt"><path d="M122.01883,255.98563c3.34046,-7.27817 11.94852,-10.47028 19.22668,-7.12982c7.27817,3.34046 10.4703,11.94854 7.12984,19.22669c-3.34046,7.27817 -11.94853,10.4703 -19.22669,7.12982c-7.27817,-3.34046 -10.47029,-11.94853 -7.12983,-19.2267z" fill="url(#color-51)" stroke="none"/><path d="M126.5128,266.38449l0.16824,-16.5313c0,0 5.99744,-4.12958 13.81871,-1.13725c8.44393,3.23055 8.97443,10.12532 8.97443,10.12532l-5.81892,8.21296l0.10358,-12.34378l-4.16253,5.42724l-0.99171,-2.23777l-3.58553,4.79246l-2.16101,-4.73559z" fill="url(#color-52)" stroke="#000000"/></g></g></g></svg>