<svg version="1.1" xmlns="http://www.w3.org/2000/svg" xmlns:xlink="http://www.w3.org/1999/xlink" width="224.13135" height="224.13135" viewBox="0,0,224.13135,224.13135"><defs><radialGradient cx="229.6026" cy="183.48436" r="49.81448" gradientUnits="userSpaceOnUse" id="color-1"><stop offset="0" stop-color="#ff0000"/><stop offset="1" stop-color="#ff0000" stop-opacity="0"/></radialGradient><linearGradient x1="233.27192" y1="197.81924" x2="151.93219" y2="197.81924" gradientUnits="userSpaceOnUse" id="color-2"><stop offset="0" stop-color="#000000"/><stop offset="1" stop-color="#ff2e54"/></linearGradient><linearGradient x1="233.33101" y1="165.7676" x2="151.99128" y2="165.7676" gradientUnits="userSpaceOnUse" id="color-3"><stop offset="0" stop-color="#000000"/><stop offset="1" stop-color="#ff2e54"/></linearGradient><linearGradient x1="194.5768" y1="158.45079" x2="210.31468" y2="155.20936" gradientUnits="userSpaceOnUse" id="color-4"><stop offset="0" stop-color="#ff0000"/><stop offset="1" stop-color="#930000"/></linearGradient><linearGradient x1="206.8799" y1="159.78522" x2="219.65107" y2="157.15483" gradientUnits="userSpaceOnUse" id="color-5"><stop offset="0" stop-color="#8e0000"/><stop offset="1" stop-color="#ff0000"/></linearGradient><linearGradient x1="205.23519" y1="166.47309" x2="212.46852" y2="164.98329" gradientUnits="userSpaceOnUse" id="color-6"><stop offset="0" stop-color="#d60000"/><stop offset="1" stop-color="#600000"/></linearGradient><linearGradient x1="186.90216" y1="167.29724" x2="196.07957" y2="165.40703" gradientUnits="userSpaceOnUse" id="color-7"><stop offset="0" stop-color="#ff0000"/><stop offset="1" stop-color="#930000"/></linearGradient><radialGradient cx="192.43587" cy="165.82612" r="11.86467" gradientUnits="userSpaceOnUse" id="color-8"><stop offset="0" stop-color="#ff6060"/><stop offset="1" stop-color="#ff6060" stop-opacity="0"/></radialGradient><radialGradient cx="180.47645" cy="171.8966" r="7.42946" gradientUnits="userSpaceOnUse" id="color-9"><stop offset="0" stop-color="#ff6060"/><stop offset="1" stop-color="#ff6060" stop-opacity="0"/></radialGradient><linearGradient x1="195.96991" y1="205.53004" x2="211.59358" y2="209.2836" gradientUnits="userSpaceOnUse" id="color-10"><stop offset="0" stop-color="#ff0000"/><stop offset="1" stop-color="#930000"/></linearGradient><linearGradient x1="208.31001" y1="204.59802" x2="220.98851" y2="207.64401" gradientUnits="userSpaceOnUse" id="color-11"><stop offset="0" stop-color="#8e0000"/><stop offset="1" stop-color="#ff0000"/></linearGradient><linearGradient x1="206.88455" y1="197.86002" x2="214.06539" y2="199.5852" gradientUnits="userSpaceOnUse" id="color-12"><stop offset="0" stop-color="#d60000"/><stop offset="1" stop-color="#600000"/></linearGradient><linearGradient x1="188.58823" y1="196.43772" x2="197.69902" y2="198.62658" gradientUnits="userSpaceOnUse" id="color-13"><stop offset="0" stop-color="#ff0000"/><stop offset="1" stop-color="#930000"/></linearGradient><radialGradient cx="180.31027" cy="191.23207" r="7.99924" gradientUnits="userSpaceOnUse" id="color-14"><stop offset="0" stop-color="#ff6060"/><stop offset="1" stop-color="#ff6060" stop-opacity="0"/></radialGradient><radialGradient cx="194.19769" cy="197.36814" r="12.66022" gradientUnits="userSpaceOnUse" id="color-15"><stop offset="0" stop-color="#ff6060"/><stop offset="1" stop-color="#ff6060" stop-opacity="0"/></radialGradient><linearGradient x1="250.90628" y1="181.41094" x2="209.27147" y2="181.41094" gradientUnits="userSpaceOnUse" id="color-16"><stop offset="0" stop-color="#000000"/><stop offset="1" stop-color="#ff365a"/></linearGradient><linearGradient x1="323.45813" y1="182.29992" x2="237.25556" y2="182.29992" gradientUnits="userSpaceOnUse" id="color-17"><stop offset="0" stop-color="#ff4949"/><stop offset="1" stop-color="#cc0025"/></linearGradient><linearGradient x1="320.49558" y1="182.83997" x2="241.89139" y2="182.83997" gradientUnits="userSpaceOnUse" id="color-18"><stop offset="0" stop-color="#ffffff" stop-opacity="0.78431"/><stop offset="1" stop-color="#e30000"/></linearGradient><radialGradient cx="286.30061" cy="182.84704" r="23.77378" gradientUnits="userSpaceOnUse" id="color-19"><stop offset="0" stop-color="#ff5656"/><stop offset="1" stop-color="#ff5656" stop-opacity="0"/></radialGradient><radialGradient cx="277.13006" cy="171.35503" r="19.12627" gradientUnits="userSpaceOnUse" id="color-20"><stop offset="0" stop-color="#ff5656"/><stop offset="1" stop-color="#ff5656" stop-opacity="0"/></radialGradient><radialGradient cx="278.36936" cy="194.10369" r="17.33877" gradientUnits="userSpaceOnUse" id="color-21"><stop offset="0" stop-color="#ff6d6d"/><stop offset="1" stop-color="#ff6d6d" stop-opacity="0"/></radialGradient><radialGradient cx="288.17907" cy="159.18827" r="9.83127" gradientUnits="userSpaceOnUse" id="color-22"><stop offset="0" stop-color="#ff4e4e"/><stop offset="1" stop-color="#ff4e4e" stop-opacity="0"/></radialGradient><radialGradient cx="290.41241" cy="206.89775" r="9.83127" gradientUnits="userSpaceOnUse" id="color-23"><stop offset="0" stop-color="#ff4e4e"/><stop offset="1" stop-color="#ff4e4e" stop-opacity="0"/></radialGradient><radialGradient cx="301.10225" cy="168.4557" r="11.83036" gradientUnits="userSpaceOnUse" id="color-24"><stop offset="0" stop-color="#ff7e7e"/><stop offset="1" stop-color="#ff7e7e" stop-opacity="0"/></radialGradient><radialGradient cx="305.34383" cy="182.4967" r="7.97612" gradientUnits="userSpaceOnUse" id="color-25"><stop offset="0" stop-color="#ff8989"/><stop offset="1" stop-color="#ff8989" stop-opacity="0"/></radialGradient><radialGradient cx="296.88385" cy="192.7392" r="7.97612" gradientUnits="userSpaceOnUse" id="color-26"><stop offset="0" stop-color="#ff6060"/><stop offset="1" stop-color="#ff6060" stop-opacity="0"/></radialGradient><radialGradient cx="297.26061" cy="167.15527" r="7.40798" gradientUnits="userSpaceOnUse" id="color-27"><stop offset="0" stop-color="#ff7e7e"/><stop offset="1" stop-color="#ff7e7e" stop-opacity="0"/></radialGradient><radialGradient cx="298.02327" cy="191.24962" r="12.62361" gradientUnits="userSpaceOnUse" id="color-28"><stop offset="0" stop-color="#ff6060"/><stop offset="1" stop-color="#ff6060" stop-opacity="0"/></radialGradient><radialGradient cx="302.68463" cy="170.53921" r="4.91254" gradientUnits="userSpaceOnUse" id="color-29"><stop offset="0" stop-color="#ffb5b5"/><stop offset="1" stop-color="#ffb5b5" stop-opacity="0"/></radialGradient><radialGradient cx="297.98039" cy="174.35467" r="11.83035" gradientUnits="userSpaceOnUse" id="color-30"><stop offset="0" stop-color="#ff6060"/><stop offset="1" stop-color="#ff6060" stop-opacity="0"/></radialGradient><radialGradient cx="293.90461" cy="188.71812" r="7.40798" gradientUnits="userSpaceOnUse" id="color-31"><stop offset="0" stop-color="#ff6060"/><stop offset="1" stop-color="#ff6060" stop-opacity="0"/></radialGradient></defs><g transform="translate(-127.93433,-67.93433)"><g data-paper-data="{&quot;isPaintingLayer&quot;:true}" fill-rule="nonzero" stroke-width="0" stroke-linecap="butt" stroke-linejoin="miter" stroke-miterlimit="10" stroke-dasharray="" stroke-dashoffset="0" style="mix-blend-mode: normal"><path d="M179.78812,183.48436c0,-27.51178 22.3027,-49.81448 49.81448,-49.81448c27.51178,0 49.81449,22.3027 49.81449,49.81448c0,27.51178 -22.30271,49.81448 -49.81449,49.81448c-27.51178,0 -49.81448,-22.3027 -49.81448,-49.81448z" fill="url(#color-1)" stroke="none"/><path d="M159.55719,201.49878c-2.54724,-1.41174 1.85686,-18.67544 13.26176,-18.23476c19.63335,0.75861 16.18252,6.34157 24.52082,9.42687c11.08361,4.10111 27.23722,-14.58506 27.23722,-14.58506l9.19494,20.75896c0,0 -19.90821,33.45059 -45.93806,11.85349c-9.80981,-8.13925 -8.5632,-15.46311 -14.14602,-16.70084c-5.58282,-1.23773 -9.15115,10.24109 -14.13066,7.48134z" data-paper-data="{&quot;index&quot;:null}" fill="url(#color-2)" stroke="#000000"/><path d="M173.74693,169.56939c5.58282,-1.23773 4.33621,-8.56159 14.14602,-16.70084c26.02985,-21.5971 45.93806,11.85349 45.93806,11.85349l-9.19494,20.75896c0,0 -16.15362,-18.68616 -27.23722,-14.58506c-8.3383,3.0853 -4.88747,8.66826 -24.52082,9.42687c-11.4049,0.44067 -15.809,-16.82302 -13.26175,-18.23476c4.9795,-2.75975 8.54784,8.71906 14.13066,7.48133z" data-paper-data="{&quot;index&quot;:null}" fill="url(#color-3)" stroke="#000000"/><g data-paper-data="{&quot;index&quot;:null}" stroke="none"><path d="M210.31466,155.20937c0.54639,2.65282 -2.53373,5.52897 -6.87963,6.42407c-4.3459,0.8951 -8.31187,-0.52982 -8.85825,-3.18264c-0.54638,-2.65282 2.53372,-5.52896 6.87962,-6.42406c4.3459,-0.8951 8.31188,0.52981 8.85826,3.18263z" fill="url(#color-4)"/><path d="M212.46266,154.57214c3.52666,-0.72636 6.74502,0.42993 7.18841,2.58268c0.44339,2.15275 -2.0561,4.48672 -5.58277,5.21308c-3.52666,0.72636 -6.74501,-0.42993 -7.1884,-2.58268c-0.44339,-2.15275 2.05608,-4.48672 5.58275,-5.21308z" fill="url(#color-5)"/><path d="M212.46853,164.98329c0.25113,1.21926 -1.16455,2.54117 -3.16198,2.95257c-1.99743,0.4114 -3.82023,-0.24349 -4.07136,-1.46277c-0.25113,-1.21928 1.16452,-2.54118 3.16195,-2.95258c1.99745,-0.41141 3.82026,0.2435 4.07139,1.46278z" fill="url(#color-6)"/><path d="M196.07954,165.40703c0.31862,1.54697 -1.4775,3.22415 -4.01178,3.74612c-2.53426,0.52197 -4.84697,-0.30895 -5.16559,-1.85592c-0.31861,-1.54695 1.4775,-3.22415 4.01178,-3.74612c2.53425,-0.52197 4.84697,0.30895 5.16559,1.85592z" fill="url(#color-7)"/><path d="M190.04241,154.20538c6.41796,-1.32186 12.69233,2.80933 14.0142,9.22731c1.32187,6.41798 -2.80932,12.69232 -9.2273,14.01419c-6.41796,1.32186 -12.6923,-2.80932 -14.01417,-9.2273c-1.32187,-6.41798 2.8093,-12.69233 9.22728,-14.0142z" fill="url(#color-8)"/><path d="M178.97771,164.61988c4.01883,-0.82773 7.94774,1.75916 8.77547,5.77798c0.82773,4.01882 -1.75918,7.94773 -5.778,8.77546c-4.01883,0.82774 -7.94773,-1.75915 -8.77546,-5.77797c-0.82773,-4.01882 1.75917,-7.94773 5.77799,-8.77546z" fill="url(#color-9)"/></g><g data-paper-data="{&quot;index&quot;:null}" stroke="none"><path d="M211.59358,209.28359c-0.63271,2.63358 -4.6431,3.92824 -8.95746,2.89172c-4.31435,-1.03651 -7.2989,-4.0117 -6.66619,-6.64527c0.63271,-2.63356 4.64308,-3.92822 8.95744,-2.8917c4.31435,1.03652 7.29892,4.01169 6.66621,6.64526z" data-paper-data="{&quot;index&quot;:null}" fill="url(#color-10)"/><path d="M220.98851,207.64402c-0.51344,2.13713 -3.76784,3.18773 -7.26891,2.3466c-3.50106,-0.84112 -5.923,-3.25546 -5.40956,-5.39258c0.51344,-2.13713 3.76782,-3.18774 7.26889,-2.34661c3.50106,0.84111 5.92302,3.25546 5.40958,5.39258z" data-paper-data="{&quot;index&quot;:null}" fill="url(#color-11)"/><path d="M214.06539,199.58519c-0.2908,1.21043 -2.13404,1.80547 -4.11697,1.32907c-1.98293,-0.4764 -3.35467,-1.84382 -3.06386,-3.05425c0.2908,-1.21041 2.13401,-1.80546 4.11694,-1.32906c1.98294,0.4764 3.3547,1.84382 3.06389,3.05425z" data-paper-data="{&quot;index&quot;:null}" fill="url(#color-12)"/><path d="M197.69901,198.62658c-0.36895,1.53574 -2.70756,2.29073 -5.22344,1.68629c-2.51587,-0.60443 -4.25627,-2.33939 -3.88731,-3.87513c0.36896,-1.53574 2.70755,-2.29071 5.22343,-1.68627c2.51588,0.60443 4.25629,2.33937 3.88733,3.87511z" data-paper-data="{&quot;index&quot;:null}" fill="url(#color-13)"/><path d="M182.17889,183.45416c4.29564,1.03202 6.94132,5.35091 5.9093,9.64655c-1.03202,4.29564 -5.35092,6.94131 -9.64656,5.90929c-4.29562,-1.03202 -6.9413,-5.35092 -5.90928,-9.64656c1.03202,-4.29563 5.35091,-6.9413 9.64655,-5.90928z" fill="url(#color-14)"/><path d="M197.15514,185.05816c6.79861,1.63336 10.98587,8.4688 9.35252,15.2674c-1.63335,6.7986 -8.46878,10.98586 -15.2674,9.3525c-6.7986,-1.63335 -10.98585,-8.46879 -9.3525,-15.26739c1.63335,-6.7986 8.46878,-10.98585 15.26738,-9.3525z" fill="url(#color-15)"/></g><path d="M219.54807,142.95267c0,0 6.85875,17.10181 10.81415,17.52665c7.10426,0.76306 20.54406,-2.78186 20.54406,-2.78186v47.42694c0,0 -14.381,-4.06854 -21.29093,-0.91928c-5.78835,2.63809 -9.02274,17.47169 -9.02274,17.47169c0,0 -8.05897,-6.3879 -6.82356,-20.99462c0.58673,-6.93715 9.09156,-10.44455 9.09156,-10.44455l-18.21523,-9.03336l17.19323,-8.42926c0,0 -7.00548,-3.30495 -8.27122,-13.16836c-1.05693,-8.2362 5.98069,-16.65398 5.98069,-16.65398z" fill="url(#color-16)" stroke="#ff0000"/><path d="M323.45772,183.32692c-0.06211,15.97032 -7.73073,24.93412 -17.22277,33.63345c-14.33979,13.14222 -37.07244,11.18824 -47.04523,3.44646c-10.88291,-8.4483 -14.17199,-18.24817 -14.17199,-18.24817l-7.76217,-20.53824c0,0 3.40861,-12.71891 7.51545,-19.95781c4.10684,-7.2389 5.81216,-10.89465 13.70462,-17.06434c7.41609,-5.7973 28.51147,-12.46629 47.66802,3.04986c14.94535,12.10522 17.3509,26.20839 17.31407,35.67879z" fill="url(#color-17)" stroke="#000000"/><g><path d="M239.74928,160.07815c5.40533,0 9.78722,5.65367 9.78722,12.62782c0,6.97415 -4.38189,12.62782 -9.78722,12.62782c-5.40533,0 -9.78722,-5.65366 -9.78722,-12.62782c0,-1.81521 -0.30594,-5.65074 0.22854,-7.21064c1.51902,-4.43332 5.56024,-5.41718 9.55868,-5.41718z" fill="#000000" stroke="none"/><path d="M239.74928,178.19475c5.40533,0 9.78722,5.65366 9.78722,12.62782c0,6.97415 -4.38189,12.62783 -9.78722,12.62783c-3.78568,0 -7.06935,-0.06059 -8.69729,-4.11831c-0.6965,-1.73605 -1.08993,-6.41979 -1.08993,-8.50952c0,-6.97415 4.38189,-12.62782 9.78722,-12.62782z" fill="#000000" stroke="none"/><path d="M241.10116,163.77895c4.67858,0 8.47133,4.28418 8.47133,9.56897c0,5.2848 -3.79274,9.56897 -8.47133,9.56897c-4.6786,0 -8.47134,-4.28418 -8.47134,-9.56897c0,-5.2848 3.79274,-9.56897 8.47134,-9.56897z" fill="#ffffff" stroke="#000000"/><path d="M241.10116,180.61163c4.67858,0 8.47133,4.28418 8.47133,9.56897c0,5.2848 -3.79274,9.56897 -8.47133,9.56897c-4.6786,0 -8.47134,-4.28418 -8.47134,-9.56897c0,-5.2848 3.79274,-9.56897 8.47134,-9.56897z" fill="#ffffff" stroke="#000000"/><path d="M243.38525,172.03487c2.16392,0 3.91815,1.75421 3.91815,3.91815c0,2.16394 -1.75422,3.91815 -3.91815,3.91815c-2.16392,0 -3.91815,-1.75421 -3.91815,-3.91815c0,-2.16394 1.75422,-3.91815 3.91815,-3.91815z" fill="#000000" stroke="none"/><path d="M243.12042,183.27705c2.16392,0 3.91815,1.75421 3.91815,3.91815c0,2.16394 -1.75422,3.91815 -3.91815,3.91815c-2.16392,0 -3.91815,-1.75421 -3.91815,-3.91815c0,-2.16394 1.75422,-3.91815 3.91815,-3.91815z" fill="#000000" stroke="none"/></g><path d="M250.73179,167.12692c0,0 8.50343,-0.35231 13.25138,0.74207c5.51672,1.27159 17.89,6.1859 17.89,6.1859l25.38828,3.06439l-31.75681,-20.1443l32.6946,10.36258l-13.40656,-18.15444c0,0 11.38873,7.00883 16.12746,13.19861c3.27999,4.28436 6.96114,12.50051 6.57544,20.12477c-0.38571,7.62426 -3.36007,14.67363 -7.81081,20.62009c-3.89193,5.19985 -14.94282,12.37025 -14.94282,12.37025l13.30961,-19.3858l-30.95594,11.56784l30.8944,-21.65762l-26.1876,3.93316c0,0 -12.21413,4.51443 -17.50903,5.53284c-5.12502,0.98575 -13.76732,0.98288 -13.76732,0.98288c0,0 -8.58025,-9.52233 -8.63444,-14.56721c-0.05257,-4.89676 8.84017,-14.77606 8.84017,-14.77606z" fill="url(#color-18)" stroke="#ff0000"/><g data-paper-data="{&quot;index&quot;:null}" stroke="none"><path d="M286.30061,159.07325c13.12991,0 23.77379,10.64389 23.77379,23.77379c0,13.1299 -10.64388,23.77378 -23.77379,23.77378c-13.12991,0 -23.77379,-10.64388 -23.77379,-23.77378c0,-13.1299 10.64388,-23.77379 23.77378,-23.77379z" fill="url(#color-19)"/><path d="M277.13006,152.22874c10.56316,0 19.12627,8.56312 19.12627,19.12628c0,10.56316 -8.56312,19.12627 -19.12628,19.12627c-10.56316,0 -19.12628,-8.56311 -19.12628,-19.12627c0,-10.56316 8.56312,-19.12628 19.12628,-19.12628z" fill="url(#color-20)"/><path d="M278.36936,176.76491c9.57595,0 17.33877,7.76283 17.33877,17.33877c0,9.57594 -7.76283,17.33877 -17.33877,17.33877c-9.57595,0 -17.33879,-7.76283 -17.33879,-17.33877c0,-9.57594 7.76283,-17.33877 17.33877,-17.33877z" fill="url(#color-21)"/><path d="M288.17907,149.357c5.42966,0 9.83125,4.40161 9.83125,9.83127c0,5.42967 -4.4016,9.83127 -9.83127,9.83127c-5.42966,0 -9.83127,-4.4016 -9.83127,-9.83127c0,-5.42967 4.40161,-9.83127 9.83127,-9.83127z" fill="url(#color-22)"/><path d="M290.41241,197.06649c5.42966,0 9.83127,4.4016 9.83127,9.83127c0,5.42966 -4.40161,9.83127 -9.83127,9.83127c-5.42966,0 -9.83127,-4.4016 -9.83127,-9.83125c0,-5.42966 4.40161,-9.83127 9.83127,-9.83127z" fill="url(#color-23)"/><path d="M301.10225,156.62532c6.53374,0 11.83035,5.29662 11.83035,11.83036c0,6.53374 -5.29661,11.83036 -11.83033,11.83036c-6.53374,0 -11.83035,-5.29662 -11.83035,-11.83036c0,-6.53374 5.29663,-11.83036 11.83035,-11.83036z" fill="url(#color-24)"/><path d="M305.34383,174.5206c4.4051,0 7.97611,3.57102 7.97611,7.97611c0,4.4051 -3.57102,7.97612 -7.97611,7.97612c-4.4051,0 -7.97612,-3.57102 -7.97612,-7.97612c0,-4.4051 3.57102,-7.97611 7.97612,-7.97611z" fill="url(#color-25)"/><path d="M296.88385,184.76309c4.4051,0 7.97611,3.57102 7.97611,7.97611c0,4.4051 -3.57102,7.97612 -7.97611,7.97612c-4.4051,0 -7.97612,-3.57102 -7.97612,-7.97612c0,-4.4051 3.57102,-7.97611 7.97612,-7.97611z" fill="url(#color-26)"/><path d="M297.26061,159.74729c4.09132,0 7.40798,3.31666 7.40798,7.40798c0,4.09132 -3.31665,7.40798 -7.40798,7.40798c-4.09132,0 -7.40799,-3.31666 -7.40799,-7.40798c0,-4.09132 3.31666,-7.40798 7.40799,-7.40798z" fill="url(#color-27)"/><path d="M298.02327,178.62598c6.97184,0 12.62361,5.65178 12.62361,12.62361c0,6.97184 -5.65178,12.62361 -12.62361,12.62361c-6.97185,0 -12.62363,-5.65178 -12.62363,-12.62361c0,-6.97184 5.65178,-12.62361 12.62363,-12.62361z" fill="url(#color-28)"/><path d="M302.68463,165.62667c2.71313,0 4.91254,2.19942 4.91254,4.91254c0,2.71313 -2.19941,4.91254 -4.91254,4.91254c-2.71313,0 -4.91256,-2.19942 -4.91256,-4.91254c0,-2.71313 2.19942,-4.91254 4.91256,-4.91254z" fill="url(#color-29)"/><path d="M297.98039,162.52432c6.53374,0 11.83035,5.29662 11.83035,11.83036c0,6.53374 -5.29661,11.83036 -11.83033,11.83036c-6.53374,0 -11.83036,-5.29662 -11.83036,-11.83036c0,-6.53374 5.29665,-11.83036 11.83036,-11.83036z" fill="url(#color-30)"/><path d="M293.90461,181.31014c4.09132,0 7.40798,3.31666 7.40798,7.40798c0,4.09132 -3.31665,7.40798 -7.40798,7.40798c-4.09132,0 -7.40799,-3.31666 -7.40799,-7.40798c0,-4.09132 3.31666,-7.40798 7.40799,-7.40798z" fill="url(#color-31)"/></g><path d="M127.93433,292.06568v-224.13135h224.13135v224.13135z" data-paper-data="{&quot;index&quot;:null}" fill="none" stroke="none"/></g></g></svg>