<svg version="1.1" xmlns="http://www.w3.org/2000/svg" xmlns:xlink="http://www.w3.org/1999/xlink" width="158.84317" height="227.16388" viewBox="0,0,158.84317,227.16388"><defs><radialGradient cx="324.04901" cy="80.39793" r="26.05926" gradientUnits="userSpaceOnUse" id="color-1"><stop offset="0" stop-color="#000000" stop-opacity="0.30588"/><stop offset="1" stop-color="#000000" stop-opacity="0"/></radialGradient><linearGradient x1="312.89183" y1="103.94797" x2="335.20619" y2="56.84791" gradientUnits="userSpaceOnUse" id="color-2"><stop offset="0" stop-color="#ff5454"/><stop offset="1" stop-color="#eb0000"/></linearGradient><radialGradient cx="306.46388" cy="118.50039" r="26.05927" gradientUnits="userSpaceOnUse" id="color-3"><stop offset="0" stop-color="#000000" stop-opacity="0.30588"/><stop offset="1" stop-color="#000000" stop-opacity="0"/></radialGradient><linearGradient x1="295.3067" y1="142.05042" x2="317.62106" y2="94.95038" gradientUnits="userSpaceOnUse" id="color-4"><stop offset="0" stop-color="#ff5454"/><stop offset="1" stop-color="#eb0000"/></linearGradient><radialGradient cx="299.5626" cy="162.2005" r="23.93565" gradientUnits="userSpaceOnUse" id="color-5"><stop offset="0" stop-color="#000000" stop-opacity="0.63137"/><stop offset="1" stop-color="#000000" stop-opacity="0"/></radialGradient><linearGradient x1="289.31465" y1="183.83138" x2="309.81057" y2="140.56962" gradientUnits="userSpaceOnUse" id="color-6"><stop offset="0" stop-color="#ff5454"/><stop offset="1" stop-color="#eb0000"/></linearGradient><linearGradient x1="301.8945" y1="177.88009" x2="282.28191" y2="168.58835" gradientUnits="userSpaceOnUse" id="color-7"><stop offset="0" stop-color="#eb0000"/><stop offset="1" stop-color="#ff5454"/></linearGradient><linearGradient x1="295.63955" y1="139.76579" x2="335.13652" y2="56.39748" gradientUnits="userSpaceOnUse" id="color-8"><stop offset="0" stop-color="#333333"/><stop offset="1" stop-color="#cacaca"/></linearGradient><linearGradient x1="325.86858" y1="47.28157" x2="282.93643" y2="137.90067" gradientUnits="userSpaceOnUse" id="color-9"><stop offset="0" stop-color="#ff4c4c"/><stop offset="1" stop-color="#ec0000"/></linearGradient><linearGradient x1="330.3765" y1="50.13919" x2="287.89237" y2="139.81266" gradientUnits="userSpaceOnUse" id="color-10"><stop offset="0" stop-color="#e8e8e8"/><stop offset="1" stop-color="#9e9e9e"/></linearGradient><linearGradient x1="331.4145" y1="98.12373" x2="324.44445" y2="112.83579" gradientUnits="userSpaceOnUse" id="color-11"><stop offset="0" stop-color="#929292"/><stop offset="1" stop-color="#000000"/></linearGradient><linearGradient x1="305.27539" y1="146.05433" x2="288.98364" y2="180.44214" gradientUnits="userSpaceOnUse" id="color-12"><stop offset="0" stop-color="#929292"/><stop offset="1" stop-color="#000000"/></linearGradient><linearGradient x1="312.53871" y1="154.44021" x2="292.92611" y2="145.14843" gradientUnits="userSpaceOnUse" id="color-13"><stop offset="0" stop-color="#eb0000"/><stop offset="1" stop-color="#ff5454"/></linearGradient><linearGradient x1="435.44014" y1="173.64933" x2="318.05246" y2="183.93438" gradientUnits="userSpaceOnUse" id="color-14"><stop offset="0" stop-color="#ffffff" stop-opacity="0.81569"/><stop offset="1" stop-color="#ff0000" stop-opacity="0.28235"/></linearGradient></defs><g transform="translate(-275.6213,-47.08883)"><g data-paper-data="{&quot;isPaintingLayer&quot;:true}" fill-rule="nonzero" stroke-linejoin="miter" stroke-miterlimit="10" stroke-dasharray="" stroke-dashoffset="0" style="mix-blend-mode: normal"><path d="M347.59899,91.55508c-6.16193,13.00631 -21.70088,18.55475 -34.70718,12.39283c-13.00629,-6.16193 -18.55475,-21.70088 -12.39284,-34.70717c6.16193,-13.0063 21.70088,-18.55475 34.70717,-12.39284c13.00629,6.16193 18.55476,21.70088 12.39285,34.70718z" data-paper-data="{&quot;index&quot;:null}" fill="url(#color-1)" stroke="url(#color-2)" stroke-width="0" stroke-linecap="butt"/><path d="M330.01387,129.65756c-6.16193,13.0063 -21.70088,18.55475 -34.70718,12.39283c-13.00629,-6.16193 -18.55475,-21.70088 -12.39284,-34.70717c6.16193,-13.0063 21.70088,-18.55476 34.70718,-12.39285c13.00629,6.16193 18.55476,21.70088 12.39284,34.70719z" data-paper-data="{&quot;index&quot;:null}" fill="url(#color-3)" stroke="url(#color-4)" stroke-width="0" stroke-linecap="butt"/><path d="M321.19346,172.44845c-5.65979,11.94641 -19.93243,17.04271 -31.87884,11.38292c-11.9464,-5.65978 -17.04272,-19.93244 -11.38293,-31.87882c5.65979,-11.94641 19.93243,-17.04271 31.87884,-11.38292c11.9464,5.65978 17.04272,19.93244 11.38293,31.87882z" data-paper-data="{&quot;index&quot;:null}" fill="url(#color-5)" stroke="url(#color-6)" stroke-width="0" stroke-linecap="butt"/><path d="M301.8945,177.88009c-2.56584,5.41587 -9.03631,7.72626 -14.45217,5.16041c-5.41587,-2.56584 -7.72626,-9.03631 -5.16041,-14.45217c2.56584,-5.41587 9.03631,-7.72626 14.45217,-5.16041c5.41587,2.56584 7.72626,9.03631 5.16041,14.45217z" data-paper-data="{&quot;index&quot;:null}" fill="url(#color-7)" stroke="#000000" stroke-width="0" stroke-linecap="butt"/><g data-paper-data="{&quot;index&quot;:null}"><path d="M330.46602,54.18478l6.47707,5.64206l-36.9401,78.57488l-9.03395,-0.84869z" data-paper-data="{&quot;index&quot;:null}" fill="url(#color-8)" stroke="none" stroke-width="0" stroke-linecap="butt"/><path d="M286.08524,139.39246l-3.5557,-1.68456l-1.50754,-3.90453l40.46336,-85.40808l3.97633,-1.30646l3.5557,1.68456z" data-paper-data="{&quot;index&quot;:null}" fill="url(#color-9)" stroke="none" stroke-width="0" stroke-linecap="butt"/><path d="M289.64378,140.64241l-3.50286,-1.65953l42.48415,-89.67344l3.50286,1.65953z" data-paper-data="{&quot;index&quot;:null}" fill="url(#color-10)" stroke="none" stroke-width="0" stroke-linecap="butt"/><path d="M334.84101,64.2638c0,0 1.12756,15.72646 -10.14281,39.51538c-10.47758,22.11557 -22.93729,30.30847 -22.93729,30.30847" data-paper-data="{&quot;index&quot;:null}" fill="none" stroke-opacity="0.53333" stroke="#000000" stroke-width="2" stroke-linecap="round"/><path d="M315.31902,119.35148l2.13991,-19.00197l13.36135,-13.11377" data-paper-data="{&quot;index&quot;:null}" fill="none" stroke-opacity="0.53333" stroke="#000000" stroke-width="2" stroke-linecap="round"/><path d="M321.70935,52.92192l-18.92918,39.95479" data-paper-data="{&quot;index&quot;:null}" fill="none" stroke-opacity="0.34902" stroke="#ffffff" stroke-width="4.5" stroke-linecap="round"/><path d="M308.1437,79.28188l11.3745,-24.00871" data-paper-data="{&quot;index&quot;:null}" fill="none" stroke-opacity="0.34902" stroke="#ffffff" stroke-width="2.5" stroke-linecap="round"/><path d="M328.14516,96.57482l3.34285,5.01501l-4.42543,9.34098l-5.88748,0.35605z" fill="url(#color-11)" stroke="none" stroke-width="0" stroke-linecap="butt"/><path d="M329.16466,106.49384c0,0 1.54221,4.96728 -3.18397,14.22805c-5.12217,10.03674 -12.81142,9.31555 -12.81142,9.31555l-11.49073,4.33333l7.81623,3.41688l-21.92559,46.2452c0,0 -6.5146,-3.25396 -3.93243,-18.01125c2.58217,-14.75727 12.138,-28.8842 12.138,-28.8842" fill="none" stroke-opacity="0.51765" stroke="#000000" stroke-width="2" stroke-linecap="round"/><path d="M301.63597,144.07946l6.2082,3.19186l-13.0224,35.9367c0,0 -5.68924,1.37586 -7.4642,0.57558c-2.26628,-1.02178 -5.02323,-6.20576 -5.02323,-6.20576z" fill="url(#color-12)" stroke="none" stroke-width="0" stroke-linecap="butt"/></g><path d="M312.53871,154.44021c-2.56584,5.41586 -9.0363,7.72627 -14.45218,5.16042c-5.41587,-2.56584 -7.72627,-9.0363 -5.16041,-14.45219c2.56584,-5.41586 9.03631,-7.72626 14.45218,-5.16041c5.41586,2.56584 7.72626,9.03631 5.16041,14.45217z" data-paper-data="{&quot;index&quot;:null}" fill="url(#color-13)" stroke="#000000" stroke-width="0" stroke-linecap="butt"/><path d="M434.38828,180.76706c-2.07872,48.93722 -40.70859,100.0239 -66.22177,92.79919c-0.46693,-0.30119 11.24036,-16.89134 11.24036,-16.89134c0,0 -29.52643,21.31888 -36.85694,12.66492c-0.98878,-1.1673 20.62974,-20.52731 20.62974,-20.52731c0,0 -21.60489,12.65649 -23.40259,7.52448c-0.54682,-1.56106 2.13701,-9.64881 2.13701,-9.64881c0,0 -27.67565,10.69753 -20.13573,5.37597c6.51628,-4.59909 33.53627,-28.63168 36.0475,-53.71898c3.50105,-34.97569 -9.65618,-63.38582 -15.02169,-70.00035c-8.89099,-10.96073 12.79291,-1.69529 12.79291,-1.69529c0,0 -6.31157,-8.31645 -4.801,-11.5182c3.44472,-7.30129 25.36989,4.11249 25.36989,4.11249c0,0 -5.75825,-23.77316 0.80324,-37.06142c0,0 59.92054,39.69517 57.41907,98.58465z" data-paper-data="{&quot;index&quot;:null}" fill="url(#color-14)" stroke="none" stroke-width="0" stroke-linecap="butt"/></g></g></svg>