<svg version="1.1" xmlns="http://www.w3.org/2000/svg" xmlns:xlink="http://www.w3.org/1999/xlink" width="37.6" height="43.6" viewBox="0,0,37.6,43.6"><g transform="translate(-221.2,-158.2)"><g data-paper-data="{&quot;isPaintingLayer&quot;:true}" fill-rule="nonzero" stroke="none" stroke-linecap="butt" stroke-linejoin="miter" stroke-miterlimit="10" stroke-dasharray="" stroke-dashoffset="0" style="mix-blend-mode: normal"><path d="M221.2,201.8v-43.6h37.6v43.6z" fill="none" stroke-width="0"/><path d="M240,181.24041c-1.1794,0 -2.10801,0.39314 -2.78584,1.17942c-0.67781,0.78626 -1.01671,1.78266 -1.01671,2.98918c0,1.13873 0.33213,2.12157 0.99639,2.94852c0.66426,0.81339 1.59965,1.22008 2.80616,1.22008c1.13875,0 2.05381,-0.40669 2.74518,-1.22008c0.69137,-0.82695 1.03706,-1.80979 1.03706,-2.94852c0,-1.31498 -0.3389,-2.33849 -1.01671,-3.07054c-0.67783,-0.73204 -1.59967,-1.09807 -2.76552,-1.09807zM240,195.33229c-1.91144,0 -3.65344,-0.39991 -5.22598,-1.19974c-1.55899,-0.81339 -2.79263,-1.94535 -3.70091,-3.39589c-0.90828,-1.46409 -1.36242,-3.09763 -1.36242,-4.90062c0,-1.07097 0.18301,-2.06737 0.54902,-2.98921c0.37959,-0.92182 0.90829,-1.74198 1.5861,-2.46048c0.69139,-0.71848 1.4641,-1.30818 2.31815,-1.7691c-2.11479,-1.51832 -3.17218,-3.50434 -3.17218,-5.95805c0,-1.1794 0.23045,-2.26391 0.69135,-3.25353c0.47448,-1.00317 1.11164,-1.85045 1.91146,-2.54183c0.81339,-0.70493 1.76234,-1.24719 2.84685,-1.62677c1.09807,-0.37958 2.28426,-0.56936 3.55855,-0.56936c1.22009,0 2.37239,0.18302 3.4569,0.54905c1.08451,0.36601 2.04702,0.90827 2.88751,1.62677c0.85404,0.70493 1.51152,1.5522 1.97244,2.54181c0.47448,0.98962 0.71172,2.08091 0.71172,3.27388c0,1.20653 -0.28469,2.34526 -0.85406,3.41621c-0.55581,1.0574 -1.34208,1.90468 -2.35881,2.54183c1.43698,0.71848 2.54183,1.70132 3.31454,2.94852c0.77272,1.24718 1.15907,2.67061 1.15907,4.27027c0,1.84366 -0.4677,3.49077 -1.40311,4.94131c-0.92182,1.45052 -2.16901,2.57571 -3.74157,3.37555c-1.55898,0.78626 -3.27386,1.17939 -5.14465,1.17939zM240,170.17837c-0.94895,0 -1.68777,0.29147 -2.21648,0.8744c-0.52868,0.58292 -0.79303,1.34207 -0.79303,2.27746c0,0.94895 0.26434,1.71489 0.79303,2.29783c0.5287,0.58292 1.26753,0.87438 2.21648,0.87438c0.9354,0 1.67423,-0.29146 2.21648,-0.87438c0.54226,-0.58294 0.8134,-1.34888 0.8134,-2.29783c0,-0.93539 -0.27113,-1.69454 -0.8134,-2.27746c-0.5287,-0.58294 -1.26753,-0.8744 -2.21648,-0.8744z" fill="#ff0000" stroke-width="0.40889"/></g></g></svg>