<svg version="1.1" xmlns="http://www.w3.org/2000/svg" xmlns:xlink="http://www.w3.org/1999/xlink" width="238.90079" height="126.60318" viewBox="0,0,238.90079,126.60318"><defs><radialGradient cx="132.23583" cy="102.52519" r="15.09647" gradientUnits="userSpaceOnUse" id="color-1"><stop offset="0" stop-color="#000000" stop-opacity="0.30196"/><stop offset="1" stop-color="#000000" stop-opacity="0"/></radialGradient><linearGradient x1="-2.8063" y1="163.4192" x2="236.09448" y2="163.4192" gradientUnits="userSpaceOnUse" id="color-2"><stop offset="0" stop-color="#000000"/><stop offset="1" stop-color="#000000" stop-opacity="0.64706"/></linearGradient></defs><g transform="translate(2.80631,-87.42872)"><g data-paper-data="{&quot;isPaintingLayer&quot;:true}" fill-rule="nonzero" stroke-linejoin="miter" stroke-miterlimit="10" stroke-dasharray="" stroke-dashoffset="0" style="mix-blend-mode: normal"><path d="M117.13935,102.52519c0,-8.33755 6.75892,-15.09647 15.09647,-15.09647c8.33755,0 15.09647,6.75892 15.09647,15.09647c0,8.33755 -6.75892,15.09647 -15.09647,15.09647c-8.33755,0 -15.09647,-6.75892 -15.09647,-15.09647z" fill="url(#color-1)" stroke="none" stroke-width="0" stroke-linecap="butt"/><path d="M-0.43436,211.66274c-2.66144,-2.62498 -2.36183,-7.87277 -2.36183,-7.87277v-81.77746c0,0 0.03701,-4.60457 2.62425,-7.08549c2.58725,-2.48092 6.95427,-2.09941 6.95427,-2.09941h192.79281c0,0 3.31291,-0.26945 5.96755,2.0994c2.65464,2.36885 3.14911,6.03579 3.14911,6.03579l0.49644,64.86835l26.90624,-13.91259l-27.0825,42.106h-201.44235c0,0 -5.34255,0.26316 -8.00399,-2.36182z" fill="url(#color-2)" stroke="none" stroke-width="0" stroke-linecap="butt"/><text transform="translate(2.40078,129.22568) scale(0.37525,0.37525)" font-size="40" xml:space="preserve" fill="#ffffff" fill-rule="nonzero" stroke="none" stroke-width="1" stroke-linecap="butt" stroke-linejoin="miter" stroke-miterlimit="10" stroke-dasharray="" stroke-dashoffset="0" font-family="Sans Serif" font-weight="normal" text-anchor="start" style="mix-blend-mode: normal"><tspan x="0" dy="0">それか、　　　　　  対戦で</tspan><tspan x="0" dy="48px">ボット(CPU)とも遊べる</tspan><tspan x="0" dy="48px"> </tspan><tspan x="0" dy="48px">オフラインモードなら</tspan><tspan x="0" dy="48px">いつでもできるよね！</tspan></text><text transform="translate(60.66479,129.22569) scale(0.37525,0.37525)" font-size="40" xml:space="preserve" fill="#ff00e8" fill-rule="nonzero" stroke="#ff00e8" stroke-width="1" stroke-linecap="butt" stroke-linejoin="miter" stroke-miterlimit="10" stroke-dasharray="" stroke-dashoffset="0" font-family="Sans Serif" font-weight="normal" text-anchor="start" style="mix-blend-mode: normal"><tspan x="0" dy="0">オフライン</tspan></text><g data-paper-data="{&quot;index&quot;:null}" fill="none" stroke="#ffffff" stroke-width="3.5" stroke-linecap="round"><path d="M140.85066,93.77138l-1.5233,11.46371"/><path d="M129.97799,94.25241l10.87266,-0.48104" data-paper-data="{&quot;index&quot;:null}"/><path d="M123.62099,110.32051l17.22966,-16.54914"/></g></g></g></svg>