<svg version="1.1" xmlns="http://www.w3.org/2000/svg" xmlns:xlink="http://www.w3.org/1999/xlink" width="85.96734" height="85.27405" viewBox="0,0,85.96734,85.27405"><defs><radialGradient cx="240.00001" cy="180.00001" r="32.79887" gradientUnits="userSpaceOnUse" id="color-1"><stop offset="0" stop-color="#000000"/><stop offset="1" stop-color="#000000" stop-opacity="0"/></radialGradient><linearGradient x1="216.06466" y1="180.00001" x2="263.93534" y2="180.00001" gradientUnits="userSpaceOnUse" id="color-2"><stop offset="0" stop-color="#eb0000"/><stop offset="1" stop-color="#ff5454"/></linearGradient><linearGradient x1="225.80935" y1="147.0115" x2="225.80935" y2="212.98852" gradientUnits="userSpaceOnUse" id="color-3"><stop offset="0" stop-color="#ff3737"/><stop offset="1" stop-color="#800000"/></linearGradient><linearGradient x1="230.86791" y1="204.22611" x2="230.86791" y2="192.01332" gradientUnits="userSpaceOnUse" id="color-4"><stop offset="0" stop-color="#000000" stop-opacity="0.41176"/><stop offset="1" stop-color="#000000" stop-opacity="0"/></linearGradient><linearGradient x1="206.41489" y1="179.77184" x2="228.66099" y2="179.77184" gradientUnits="userSpaceOnUse" id="color-5"><stop offset="0" stop-color="#ffffff" stop-opacity="0.51765"/><stop offset="1" stop-color="#ffffff" stop-opacity="0"/></linearGradient><linearGradient x1="230.86791" y1="155.30577" x2="230.86791" y2="167.51856" gradientUnits="userSpaceOnUse" id="color-6"><stop offset="0" stop-color="#ffffff" stop-opacity="0.59677"/><stop offset="1" stop-color="#ffffff" stop-opacity="0"/></linearGradient></defs><g transform="translate(-197.01633,-137.36298)"><g data-paper-data="{&quot;isPaintingLayer&quot;:true}" fill-rule="nonzero" stroke-linejoin="miter" stroke-miterlimit="10" stroke-dasharray="" stroke-dashoffset="0" style="mix-blend-mode: normal"><path d="M197.01633,222.63704v-85.27405h85.96734v85.27405z" fill="none" stroke="none" stroke-width="NaN" stroke-linecap="butt"/><path d="M207.20113,180.00001c0,-18.11432 14.68456,-32.79887 32.79887,-32.79887c18.11432,0 32.79887,14.68456 32.79887,32.79887c0,18.11432 -14.68456,32.79887 -32.79887,32.79887c-18.11432,0 -32.79887,-14.68456 -32.79887,-32.79887z" fill="url(#color-1)" stroke="#000000" stroke-width="0" stroke-linecap="butt"/><path d="M216.06466,180.00001c0,-13.21912 10.71622,-23.93534 23.93534,-23.93534c13.21912,0 23.93534,10.71622 23.93534,23.93534c0,13.21912 -10.71622,23.93534 -23.93534,23.93534c-13.21912,0 -23.93534,-10.71622 -23.93534,-23.93534z" fill="url(#color-2)" stroke="#000000" stroke-width="0" stroke-linecap="butt"/><path d="M246.16385,190.6726c0,-2.44128 1.97905,-4.42033 4.42033,-4.42033c2.44128,0 4.42033,1.97905 4.42033,4.42033c0,2.44128 -1.97905,4.42033 -4.42033,4.42033c-2.44128,0 -4.42033,-1.97905 -4.42033,-4.42033z" fill="#000000" stroke="#000000" stroke-width="0" stroke-linecap="butt"/><path d="M246.21308,169.32742c0,-2.44128 1.97905,-4.42033 4.42033,-4.42033c2.44128,0 4.42033,1.97905 4.42033,4.42033c0,2.44128 -1.97905,4.42033 -4.42033,4.42033c-2.44128,0 -4.42033,-1.97905 -4.42033,-4.42033z" fill="#000000" stroke="#000000" stroke-width="0" stroke-linecap="butt"/><path d="M257.2393,191.00074v-22.27848" fill="none" stroke="#000000" stroke-width="2" stroke-linecap="round"/><path d="M206.41571,180.8428c-0.17368,-27.30279 27.36682,-26.33243 27.36682,-26.33243c0,0 -1.81006,-3.53755 -0.42251,-5.94323c0.91364,-1.58404 4.89753,-2.22162 5.73842,-0.64659c2.11794,3.96703 5.77032,21.17077 6.08567,32.15777c0.29298,10.20786 -2.74136,23.34006 -5.14106,30.5992c-1.53377,3.34511 -6.32397,2.79641 -7.32552,0.03067c-0.80783,-2.23077 1.13548,-5.37406 1.13548,-5.37406c0,0 -27.28769,-0.97315 -27.4373,-24.49132z" data-paper-data="{&quot;index&quot;:null}" fill="url(#color-3)" stroke="none" stroke-width="0" stroke-linecap="butt"/><path d="M208.66287,189.31765c0.67177,-1.88706 13.40616,-2.03904 21.42626,-2.23549c1.92791,-0.04722 6.71927,0.08678 6.71927,0.08678c0,0 -0.42775,6.66069 -0.93745,9.44372c-0.5696,3.11015 -2.15006,8.51552 -2.15006,8.51552c0,0 -9.56914,0.03666 -16.56078,-4.5697c-6.70705,-4.41887 -8.84006,-10.27782 -8.49724,-11.24082z" data-paper-data="{&quot;index&quot;:null}" fill="url(#color-4)" stroke="#000000" stroke-width="0" stroke-linecap="butt"/><path d="M206.41571,180.8428c-0.12567,-19.75537 14.25836,-24.7084 22.22043,-25.93714c-0.24765,16.57511 -0.05942,33.15457 0.02485,49.73238c-7.92411,-1.60261 -22.13742,-6.83985 -22.24528,-23.79523z" data-paper-data="{&quot;index&quot;:null}" fill="url(#color-5)" stroke="none" stroke-width="0" stroke-linecap="butt"/><path d="M208.66287,170.21422c-0.34282,-0.96301 1.79019,-6.82196 8.49724,-11.24082c6.99164,-4.60637 16.56078,-4.5697 16.56078,-4.5697c0,0 1.58046,5.40537 2.15006,8.51552c0.5097,2.78304 0.93746,9.44372 0.93746,9.44372c0,0 -4.79136,0.13401 -6.71927,0.08678c-8.0201,-0.19645 -20.75449,-0.34843 -21.42626,-2.23549z" data-paper-data="{&quot;index&quot;:null}" fill="url(#color-6)" stroke="#000000" stroke-width="0" stroke-linecap="butt"/></g></g></svg>