<svg version="1.1" xmlns="http://www.w3.org/2000/svg" xmlns:xlink="http://www.w3.org/1999/xlink" width="480.6667" height="360" viewBox="0,0,480.6667,360"><defs><radialGradient cx="242.419" cy="86.9856" r="31.57552" gradientUnits="userSpaceOnUse" id="color-1"><stop offset="0" stop-color="#ffffff" stop-opacity="0.32742"/><stop offset="1" stop-color="#ffffff" stop-opacity="0"/></radialGradient><radialGradient cx="403.94535" cy="115.17635" r="31.57551" gradientUnits="userSpaceOnUse" id="color-2"><stop offset="0" stop-color="#ffffff" stop-opacity="0.32742"/><stop offset="1" stop-color="#ffffff" stop-opacity="0"/></radialGradient><radialGradient cx="356.7224" cy="238.03758" r="31.57551" gradientUnits="userSpaceOnUse" id="color-3"><stop offset="0" stop-color="#ffffff" stop-opacity="0.32742"/><stop offset="1" stop-color="#ffffff" stop-opacity="0"/></radialGradient><radialGradient cx="148.11349" cy="253.95623" r="31.57553" gradientUnits="userSpaceOnUse" id="color-4"><stop offset="0" stop-color="#ffffff" stop-opacity="0.32742"/><stop offset="1" stop-color="#ffffff" stop-opacity="0"/></radialGradient><radialGradient cx="99.13624" cy="115.59707" r="31.57551" gradientUnits="userSpaceOnUse" id="color-5"><stop offset="0" stop-color="#ffffff" stop-opacity="0.32742"/><stop offset="1" stop-color="#ffffff" stop-opacity="0"/></radialGradient><radialGradient cx="287.11589" cy="178.99126" r="31.57551" gradientUnits="userSpaceOnUse" id="color-6"><stop offset="0" stop-color="#ffffff" stop-opacity="0.32742"/><stop offset="1" stop-color="#ffffff" stop-opacity="0"/></radialGradient><radialGradient cx="172.9529" cy="278.78093" r="31.57554" gradientUnits="userSpaceOnUse" id="color-7"><stop offset="0" stop-color="#ffffff" stop-opacity="0.32742"/><stop offset="1" stop-color="#ffffff" stop-opacity="0"/></radialGradient><radialGradient cx="299.00035" cy="277.12374" r="34.85563" gradientUnits="userSpaceOnUse" id="color-8"><stop offset="0" stop-color="#296d7f" stop-opacity="0.60862"/><stop offset="1" stop-color="#296d7f" stop-opacity="0"/></radialGradient><radialGradient cx="282.32304" cy="119.27314" r="47.60886" gradientUnits="userSpaceOnUse" id="color-9"><stop offset="0" stop-color="#3788ad" stop-opacity="0.60784"/><stop offset="1" stop-color="#3788ad" stop-opacity="0"/></radialGradient><radialGradient cx="80.23308" cy="258.4954" r="47.60888" gradientUnits="userSpaceOnUse" id="color-10"><stop offset="0" stop-color="#1a82bd" stop-opacity="0.60784"/><stop offset="1" stop-color="#1a82bd" stop-opacity="0"/></radialGradient><radialGradient cx="144.86814" cy="199.58042" r="79.64543" gradientUnits="userSpaceOnUse" id="color-11"><stop offset="0" stop-color="#60cdec" stop-opacity="0.6129"/><stop offset="1" stop-color="#60cdec" stop-opacity="0"/></radialGradient><radialGradient cx="251.7992" cy="273.11332" r="72.7783" gradientUnits="userSpaceOnUse" id="color-12"><stop offset="0" stop-color="#60cdec" stop-opacity="0.6129"/><stop offset="1" stop-color="#60cdec" stop-opacity="0"/></radialGradient><radialGradient cx="236.10288" cy="167.22599" r="72.7783" gradientUnits="userSpaceOnUse" id="color-13"><stop offset="0" stop-color="#60cdec" stop-opacity="0.6129"/><stop offset="1" stop-color="#60cdec" stop-opacity="0"/></radialGradient><radialGradient cx="396.99012" cy="280.95681" r="72.77829" gradientUnits="userSpaceOnUse" id="color-14"><stop offset="0" stop-color="#60cdec" stop-opacity="0.6129"/><stop offset="1" stop-color="#60cdec" stop-opacity="0"/></radialGradient><radialGradient cx="344.00357" cy="140.90649" r="63.76625" gradientUnits="userSpaceOnUse" id="color-15"><stop offset="0" stop-color="#78c7db"/><stop offset="1" stop-color="#78c7db" stop-opacity="0"/></radialGradient><radialGradient cx="151.06053" cy="99.11743" r="31.57553" gradientUnits="userSpaceOnUse" id="color-16"><stop offset="0" stop-color="#ffffff" stop-opacity="0.32742"/><stop offset="1" stop-color="#ffffff" stop-opacity="0"/></radialGradient><radialGradient cx="62.43853" cy="157.81311" r="31.57551" gradientUnits="userSpaceOnUse" id="color-17"><stop offset="0" stop-color="#ffffff" stop-opacity="0.32742"/><stop offset="1" stop-color="#ffffff" stop-opacity="0"/></radialGradient><radialGradient cx="337.14789" cy="264.28933" r="79.64544" gradientUnits="userSpaceOnUse" id="color-18"><stop offset="0" stop-color="#60cdec" stop-opacity="0.6129"/><stop offset="1" stop-color="#60cdec" stop-opacity="0"/></radialGradient><radialGradient cx="116.41856" cy="273.11332" r="72.77833" gradientUnits="userSpaceOnUse" id="color-19"><stop offset="0" stop-color="#61b4ed" stop-opacity="0.61176"/><stop offset="1" stop-color="#61b4ed" stop-opacity="0"/></radialGradient><radialGradient cx="347.93909" cy="169.18687" r="72.7783" gradientUnits="userSpaceOnUse" id="color-20"><stop offset="0" stop-color="#60cdec" stop-opacity="0.6129"/><stop offset="1" stop-color="#60cdec" stop-opacity="0"/></radialGradient><radialGradient cx="252.7992" cy="85.63441" r="72.7783" gradientUnits="userSpaceOnUse" id="color-21"><stop offset="0" stop-color="#60cdec" stop-opacity="0.6129"/><stop offset="1" stop-color="#60cdec" stop-opacity="0"/></radialGradient><radialGradient cx="240.02701" cy="277.03506" r="72.7783" gradientUnits="userSpaceOnUse" id="color-22"><stop offset="0" stop-color="#60cdec" stop-opacity="0.6129"/><stop offset="1" stop-color="#60cdec" stop-opacity="0"/></radialGradient><radialGradient cx="396.99012" cy="280.95681" r="72.77829" gradientUnits="userSpaceOnUse" id="color-23"><stop offset="0" stop-color="#61c3ed" stop-opacity="0.61176"/><stop offset="1" stop-color="#61c3ed" stop-opacity="0"/></radialGradient><radialGradient cx="396.99012" cy="92.71266" r="72.77829" gradientUnits="userSpaceOnUse" id="color-24"><stop offset="0" stop-color="#60cdec" stop-opacity="0.6129"/><stop offset="1" stop-color="#60cdec" stop-opacity="0"/></radialGradient><radialGradient cx="406.78877" cy="203.65454" r="38.25973" gradientUnits="userSpaceOnUse" id="color-25"><stop offset="0" stop-color="#7fc4e8"/><stop offset="1" stop-color="#7fc4e8" stop-opacity="0"/></radialGradient><radialGradient cx="419.78877" cy="217.65454" r="38.25973" gradientUnits="userSpaceOnUse" id="color-26"><stop offset="0" stop-color="#7fc4e8"/><stop offset="1" stop-color="#7fc4e8" stop-opacity="0"/></radialGradient><radialGradient cx="281.78877" cy="277.65454" r="38.25973" gradientUnits="userSpaceOnUse" id="color-27"><stop offset="0" stop-color="#7fc4e8"/><stop offset="1" stop-color="#7fc4e8" stop-opacity="0"/></radialGradient><radialGradient cx="144.78876" cy="137.65454" r="38.25973" gradientUnits="userSpaceOnUse" id="color-28"><stop offset="0" stop-color="#7fc4e8"/><stop offset="1" stop-color="#7fc4e8" stop-opacity="0"/></radialGradient><radialGradient cx="315.78877" cy="74.65454" r="38.25973" gradientUnits="userSpaceOnUse" id="color-29"><stop offset="0" stop-color="#7fc4e8"/><stop offset="1" stop-color="#7fc4e8" stop-opacity="0"/></radialGradient><radialGradient cx="284.78877" cy="279.65454" r="38.25973" gradientUnits="userSpaceOnUse" id="color-30"><stop offset="0" stop-color="#7fc4e8"/><stop offset="1" stop-color="#7fc4e8" stop-opacity="0"/></radialGradient><radialGradient cx="114.78876" cy="125.65454" r="38.25973" gradientUnits="userSpaceOnUse" id="color-31"><stop offset="0" stop-color="#7fc4e8"/><stop offset="1" stop-color="#7fc4e8" stop-opacity="0"/></radialGradient><radialGradient cx="288.08543" cy="292.8744" r="41.20281" gradientUnits="userSpaceOnUse" id="color-32"><stop offset="0" stop-color="#37b4f6"/><stop offset="1" stop-color="#37b4f6" stop-opacity="0"/></radialGradient><radialGradient cx="86.98798" cy="84.86914" r="72.77829" gradientUnits="userSpaceOnUse" id="color-33"><stop offset="0" stop-color="#60cdec" stop-opacity="0.6129"/><stop offset="1" stop-color="#60cdec" stop-opacity="0"/></radialGradient><radialGradient cx="352.41267" cy="88.98202" r="79.64543" gradientUnits="userSpaceOnUse" id="color-34"><stop offset="0" stop-color="#61c3ed" stop-opacity="0.61176"/><stop offset="1" stop-color="#61c3ed" stop-opacity="0"/></radialGradient><radialGradient cx="204.16022" cy="182.67807" r="106.12883" gradientUnits="userSpaceOnUse" id="color-35"><stop offset="0" stop-color="#5bb8e6"/><stop offset="1" stop-color="#5bb8e6" stop-opacity="0"/></radialGradient><radialGradient cx="143.16606" cy="317.1217" r="204.42979" gradientUnits="userSpaceOnUse" id="color-36"><stop offset="0" stop-color="#adeaff"/><stop offset="1" stop-color="#43d2f2"/></radialGradient><radialGradient cx="194.56939" cy="80.37354" r="138.51043" gradientUnits="userSpaceOnUse" id="color-37"><stop offset="0" stop-color="#ffffff"/><stop offset="1" stop-color="#53c0df"/></radialGradient><radialGradient cx="346.96222" cy="223.8788" r="145.68249" gradientUnits="userSpaceOnUse" id="color-38"><stop offset="0" stop-color="#ffffff"/><stop offset="1" stop-color="#53c0df"/></radialGradient><radialGradient cx="151.52713" cy="257.44044" r="42.0212" gradientUnits="userSpaceOnUse" id="color-39"><stop offset="0" stop-color="#ffffff"/><stop offset="1" stop-color="#53c0df"/></radialGradient><radialGradient cx="293.08646" cy="127.41751" r="55.80757" gradientUnits="userSpaceOnUse" id="color-40"><stop offset="0" stop-color="#adeaff"/><stop offset="1" stop-color="#43d2f2"/></radialGradient><radialGradient cx="194.45455" cy="153.58362" r="62.50175" gradientUnits="userSpaceOnUse" id="color-41"><stop offset="0" stop-color="#adeaff"/><stop offset="1" stop-color="#43d2f2"/></radialGradient><radialGradient cx="64.27926" cy="155.59812" r="67.23809" gradientUnits="userSpaceOnUse" id="color-42"><stop offset="0" stop-color="#ffffff"/><stop offset="1" stop-color="#53c0df"/></radialGradient><radialGradient cx="352.26564" cy="51.53591" r="43.03233" gradientUnits="userSpaceOnUse" id="color-43"><stop offset="0" stop-color="#adeaff"/><stop offset="1" stop-color="#43d2f2"/></radialGradient><radialGradient cx="166.83766" cy="44.99425" r="32.94666" gradientUnits="userSpaceOnUse" id="color-44"><stop offset="0" stop-color="#adeaff"/><stop offset="1" stop-color="#43d2f2"/></radialGradient><radialGradient cx="80.04162" cy="52.84418" r="51.77334" gradientUnits="userSpaceOnUse" id="color-45"><stop offset="0" stop-color="#adeaff"/><stop offset="1" stop-color="#43d2f2"/></radialGradient><radialGradient cx="68.93248" cy="24.82313" r="29.75089" gradientUnits="userSpaceOnUse" id="color-46"><stop offset="0" stop-color="#ffffff"/><stop offset="1" stop-color="#53c0df"/></radialGradient><radialGradient cx="456.15791" cy="306.6553" r="63.87618" gradientUnits="userSpaceOnUse" id="color-47"><stop offset="0" stop-color="#adeaff"/><stop offset="1" stop-color="#43d2f2"/></radialGradient><radialGradient cx="464.45586" cy="250.49669" r="24.87807" gradientUnits="userSpaceOnUse" id="color-48"><stop offset="0" stop-color="#ffffff"/><stop offset="1" stop-color="#53c0df"/></radialGradient><radialGradient cx="441.18981" cy="33.23777" r="16.80958" gradientUnits="userSpaceOnUse" id="color-49"><stop offset="0" stop-color="#ffffff"/><stop offset="1" stop-color="#53c0df"/></radialGradient><radialGradient cx="414.07498" cy="182.36635" r="34.29139" gradientUnits="userSpaceOnUse" id="color-50"><stop offset="0" stop-color="#adeaff"/><stop offset="1" stop-color="#43d2f2"/></radialGradient><radialGradient cx="321.36947" cy="339.60881" r="59.16953" gradientUnits="userSpaceOnUse" id="color-51"><stop offset="0" stop-color="#ffffff"/><stop offset="1" stop-color="#53c0df"/></radialGradient><radialGradient cx="264.36757" cy="266.69885" r="27.56764" gradientUnits="userSpaceOnUse" id="color-52"><stop offset="0" stop-color="#ffffff"/><stop offset="1" stop-color="#53c0df"/></radialGradient><radialGradient cx="419.087" cy="106.99148" r="32.33076" gradientUnits="userSpaceOnUse" id="color-53"><stop offset="0" stop-color="#ffffff"/><stop offset="1" stop-color="#53c0df"/></radialGradient><radialGradient cx="80.56555" cy="117.40719" r="35.45958" gradientUnits="userSpaceOnUse" id="color-54"><stop offset="0" stop-color="#ffffff"/><stop offset="1" stop-color="#53c0df"/></radialGradient><radialGradient cx="353.94202" cy="127.82287" r="18.77276" gradientUnits="userSpaceOnUse" id="color-55"><stop offset="0" stop-color="#ffffff"/><stop offset="1" stop-color="#53c0df"/></radialGradient><radialGradient cx="463.29254" cy="186.84514" r="11.47219" gradientUnits="userSpaceOnUse" id="color-56"><stop offset="0" stop-color="#ffffff"/><stop offset="1" stop-color="#53c0df"/></radialGradient><radialGradient cx="217.83548" cy="47.96921" r="24.42935" gradientUnits="userSpaceOnUse" id="color-57"><stop offset="0" stop-color="#ffffff"/><stop offset="1" stop-color="#53c0df"/></radialGradient><radialGradient cx="36.36004" cy="255.12592" r="23.2661" gradientUnits="userSpaceOnUse" id="color-58"><stop offset="0" stop-color="#ffffff"/><stop offset="1" stop-color="#53c0df"/></radialGradient><radialGradient cx="232.95833" cy="170.64301" r="30.82756" gradientUnits="userSpaceOnUse" id="color-59"><stop offset="0" stop-color="#ffffff"/><stop offset="1" stop-color="#53c0df"/></radialGradient><radialGradient cx="190.84326" cy="183.34015" r="177.079" gradientUnits="userSpaceOnUse" id="color-60"><stop offset="0" stop-color="#adeaff"/><stop offset="1" stop-color="#43d2f2"/></radialGradient><radialGradient cx="463.97505" cy="58.94276" r="13.84971" gradientUnits="userSpaceOnUse" id="color-61"><stop offset="0" stop-color="#adeaff"/><stop offset="1" stop-color="#43d2f2"/></radialGradient><radialGradient cx="240.00004" cy="180.00002" r="240.00002" gradientUnits="userSpaceOnUse" id="color-62"><stop offset="0" stop-color="#006eff" stop-opacity="0.27451"/><stop offset="1" stop-color="#00ffff" stop-opacity="0.11373"/></radialGradient><radialGradient cx="336.83394" cy="42.87829" r="204.42979" gradientUnits="userSpaceOnUse" id="color-63"><stop offset="0" stop-color="#adeaff"/><stop offset="1" stop-color="#43d2f2"/></radialGradient><radialGradient cx="285.43061" cy="279.62645" r="138.51043" gradientUnits="userSpaceOnUse" id="color-64"><stop offset="0" stop-color="#ffffff"/><stop offset="1" stop-color="#53c0df"/></radialGradient><radialGradient cx="133.03777" cy="136.12119" r="145.68249" gradientUnits="userSpaceOnUse" id="color-65"><stop offset="0" stop-color="#ffffff"/><stop offset="1" stop-color="#53c0df"/></radialGradient><radialGradient cx="328.47286" cy="102.55955" r="42.0212" gradientUnits="userSpaceOnUse" id="color-66"><stop offset="0" stop-color="#ffffff"/><stop offset="1" stop-color="#53c0df"/></radialGradient><radialGradient cx="186.91354" cy="232.58248" r="55.80757" gradientUnits="userSpaceOnUse" id="color-67"><stop offset="0" stop-color="#adeaff"/><stop offset="1" stop-color="#43d2f2"/></radialGradient><radialGradient cx="285.54544" cy="206.41637" r="62.50175" gradientUnits="userSpaceOnUse" id="color-68"><stop offset="0" stop-color="#adeaff"/><stop offset="1" stop-color="#43d2f2"/></radialGradient><radialGradient cx="415.72072" cy="204.40187" r="67.23809" gradientUnits="userSpaceOnUse" id="color-69"><stop offset="0" stop-color="#ffffff"/><stop offset="1" stop-color="#53c0df"/></radialGradient><radialGradient cx="127.73436" cy="308.46408" r="43.03233" gradientUnits="userSpaceOnUse" id="color-70"><stop offset="0" stop-color="#adeaff"/><stop offset="1" stop-color="#43d2f2"/></radialGradient><radialGradient cx="313.16233" cy="315.00574" r="32.94666" gradientUnits="userSpaceOnUse" id="color-71"><stop offset="0" stop-color="#adeaff"/><stop offset="1" stop-color="#43d2f2"/></radialGradient><radialGradient cx="399.95837" cy="307.15581" r="51.77334" gradientUnits="userSpaceOnUse" id="color-72"><stop offset="0" stop-color="#adeaff"/><stop offset="1" stop-color="#43d2f2"/></radialGradient><radialGradient cx="411.06751" cy="335.17686" r="29.75089" gradientUnits="userSpaceOnUse" id="color-73"><stop offset="0" stop-color="#ffffff"/><stop offset="1" stop-color="#53c0df"/></radialGradient><radialGradient cx="23.84208" cy="53.34469" r="63.87618" gradientUnits="userSpaceOnUse" id="color-74"><stop offset="0" stop-color="#adeaff"/><stop offset="1" stop-color="#43d2f2"/></radialGradient><radialGradient cx="15.54413" cy="109.5033" r="24.87807" gradientUnits="userSpaceOnUse" id="color-75"><stop offset="0" stop-color="#ffffff"/><stop offset="1" stop-color="#53c0df"/></radialGradient><radialGradient cx="38.81018" cy="326.76222" r="16.80958" gradientUnits="userSpaceOnUse" id="color-76"><stop offset="0" stop-color="#ffffff"/><stop offset="1" stop-color="#53c0df"/></radialGradient><radialGradient cx="65.92501" cy="177.63364" r="34.29139" gradientUnits="userSpaceOnUse" id="color-77"><stop offset="0" stop-color="#adeaff"/><stop offset="1" stop-color="#43d2f2"/></radialGradient><radialGradient cx="158.63052" cy="20.39118" r="59.16953" gradientUnits="userSpaceOnUse" id="color-78"><stop offset="0" stop-color="#ffffff"/><stop offset="1" stop-color="#53c0df"/></radialGradient><radialGradient cx="215.63243" cy="93.30114" r="27.56764" gradientUnits="userSpaceOnUse" id="color-79"><stop offset="0" stop-color="#ffffff"/><stop offset="1" stop-color="#53c0df"/></radialGradient><radialGradient cx="60.91299" cy="253.00851" r="32.33076" gradientUnits="userSpaceOnUse" id="color-80"><stop offset="0" stop-color="#ffffff"/><stop offset="1" stop-color="#53c0df"/></radialGradient><radialGradient cx="399.43444" cy="242.5928" r="35.45958" gradientUnits="userSpaceOnUse" id="color-81"><stop offset="0" stop-color="#ffffff"/><stop offset="1" stop-color="#53c0df"/></radialGradient><radialGradient cx="126.05797" cy="232.17712" r="18.77276" gradientUnits="userSpaceOnUse" id="color-82"><stop offset="0" stop-color="#ffffff"/><stop offset="1" stop-color="#53c0df"/></radialGradient><radialGradient cx="16.70745" cy="173.15485" r="11.47219" gradientUnits="userSpaceOnUse" id="color-83"><stop offset="0" stop-color="#ffffff"/><stop offset="1" stop-color="#53c0df"/></radialGradient><radialGradient cx="262.1645" cy="312.03078" r="24.42935" gradientUnits="userSpaceOnUse" id="color-84"><stop offset="0" stop-color="#ffffff"/><stop offset="1" stop-color="#53c0df"/></radialGradient><radialGradient cx="443.63995" cy="104.87407" r="23.2661" gradientUnits="userSpaceOnUse" id="color-85"><stop offset="0" stop-color="#ffffff"/><stop offset="1" stop-color="#53c0df"/></radialGradient><radialGradient cx="247.04166" cy="189.35698" r="30.82756" gradientUnits="userSpaceOnUse" id="color-86"><stop offset="0" stop-color="#ffffff"/><stop offset="1" stop-color="#53c0df"/></radialGradient><radialGradient cx="289.15673" cy="176.65984" r="177.079" gradientUnits="userSpaceOnUse" id="color-87"><stop offset="0" stop-color="#adeaff"/><stop offset="1" stop-color="#43d2f2"/></radialGradient><radialGradient cx="16.02494" cy="301.05723" r="13.84971" gradientUnits="userSpaceOnUse" id="color-88"><stop offset="0" stop-color="#adeaff"/><stop offset="1" stop-color="#43d2f2"/></radialGradient><radialGradient cx="93.39538" cy="292.9568" r="60.77119" gradientUnits="userSpaceOnUse" id="color-89"><stop offset="0" stop-color="#60cdec" stop-opacity="0.6129"/><stop offset="1" stop-color="#60cdec" stop-opacity="0"/></radialGradient><linearGradient x1="240.00013" y1="0" x2="240.00013" y2="27" gradientUnits="userSpaceOnUse" id="color-90"><stop offset="0" stop-color="#727172"/><stop offset="1" stop-color="#414041"/></linearGradient><linearGradient x1="240.00007" y1="333" x2="240.00007" y2="360" gradientUnits="userSpaceOnUse" id="color-91"><stop offset="0" stop-color="#414041"/><stop offset="1" stop-color="#727172"/></linearGradient><linearGradient x1="-0.33321" y1="180" x2="25.33346" y2="180" gradientUnits="userSpaceOnUse" id="color-92"><stop offset="0" stop-color="#727172"/><stop offset="1" stop-color="#414041"/></linearGradient><linearGradient x1="454.66675" y1="180" x2="480.33342" y2="180" gradientUnits="userSpaceOnUse" id="color-93"><stop offset="0" stop-color="#414041"/><stop offset="1" stop-color="#727172"/></linearGradient><linearGradient x1="315.33484" y1="333.16517" x2="315.33484" y2="281.63965" gradientUnits="userSpaceOnUse" id="color-94"><stop offset="0" stop-color="#000000" stop-opacity="0.26263"/><stop offset="1" stop-color="#000000" stop-opacity="0"/></linearGradient><linearGradient x1="24.42724" y1="163.34745" x2="76.20275" y2="163.34745" gradientUnits="userSpaceOnUse" id="color-95"><stop offset="0" stop-color="#000000" stop-opacity="0.26263"/><stop offset="1" stop-color="#000000" stop-opacity="0"/></linearGradient><linearGradient x1="24.50632" y1="307.27752" x2="76.24612" y2="307.27752" gradientUnits="userSpaceOnUse" id="color-96"><stop offset="0" stop-color="#000000" stop-opacity="0.26263"/><stop offset="1" stop-color="#000000" stop-opacity="0"/></linearGradient><linearGradient x1="50.37623" y1="281.40761" x2="50.37623" y2="333.14742" gradientUnits="userSpaceOnUse" id="color-97"><stop offset="0" stop-color="#000000" stop-opacity="0"/><stop offset="1" stop-color="#000000" stop-opacity="0.26263"/></linearGradient><linearGradient x1="50.37623" y1="27.07428" x2="50.37623" y2="78.81408" gradientUnits="userSpaceOnUse" id="color-98"><stop offset="0" stop-color="#000000" stop-opacity="0.26263"/><stop offset="1" stop-color="#000000" stop-opacity="0"/></linearGradient><linearGradient x1="76.24612" y1="52.94418" x2="24.50632" y2="52.94418" gradientUnits="userSpaceOnUse" id="color-99"><stop offset="0" stop-color="#000000" stop-opacity="0"/><stop offset="1" stop-color="#000000" stop-opacity="0.26263"/></linearGradient><linearGradient x1="150.22303" y1="27.07428" x2="150.22303" y2="78.5998" gradientUnits="userSpaceOnUse" id="color-100"><stop offset="0" stop-color="#000000" stop-opacity="0.26263"/><stop offset="1" stop-color="#000000" stop-opacity="0"/></linearGradient><linearGradient x1="403.02185" y1="180.05868" x2="454.79737" y2="180.05868" gradientUnits="userSpaceOnUse" id="color-101"><stop offset="0" stop-color="#000000" stop-opacity="0"/><stop offset="1" stop-color="#000000" stop-opacity="0.26263"/></linearGradient><linearGradient x1="402.97849" y1="52.96194" x2="454.71829" y2="52.96194" gradientUnits="userSpaceOnUse" id="color-102"><stop offset="0" stop-color="#000000" stop-opacity="0"/><stop offset="1" stop-color="#000000" stop-opacity="0.26263"/></linearGradient><linearGradient x1="415.18172" y1="78.83184" x2="415.18172" y2="27.09204" gradientUnits="userSpaceOnUse" id="color-103"><stop offset="0" stop-color="#000000" stop-opacity="0"/><stop offset="1" stop-color="#000000" stop-opacity="0.26263"/></linearGradient><linearGradient x1="415.18172" y1="333.16517" x2="415.18172" y2="281.42536" gradientUnits="userSpaceOnUse" id="color-104"><stop offset="0" stop-color="#000000" stop-opacity="0.26263"/><stop offset="1" stop-color="#000000" stop-opacity="0"/></linearGradient><linearGradient x1="402.97849" y1="307.29526" x2="454.71829" y2="307.29526" gradientUnits="userSpaceOnUse" id="color-105"><stop offset="0" stop-color="#000000" stop-opacity="0"/><stop offset="1" stop-color="#000000" stop-opacity="0.26263"/></linearGradient></defs><g transform="translate(0.33325,0)"><g data-paper-data="{&quot;isPaintingLayer&quot;:true}" fill-rule="nonzero" stroke-linejoin="miter" stroke-miterlimit="10" stroke-dasharray="" stroke-dashoffset="0" style="mix-blend-mode: normal"><g><path d="M0,360v-360h480v360z" fill="#00a2ff" stroke="none" stroke-width="1.5" stroke-linecap="butt"/><g stroke-width="0" stroke-linecap="butt"><path d="M210.84349,86.9856c0,-17.42835 14.13685,-31.55681 31.57553,-31.55681c17.43868,0 31.57554,14.12846 31.57554,31.55681c0,17.42835 -14.13685,31.55683 -31.57554,31.55683c-17.43868,0 -31.57553,-14.12848 -31.57553,-31.55683z" fill="url(#color-1)" stroke="none"/><path d="M372.36977,115.17635c0,-17.42835 14.13684,-31.55681 31.57551,-31.55681c17.43869,0 31.57551,14.12846 31.57551,31.55681c0,17.42835 -14.13683,31.55683 -31.57551,31.55683c-17.43869,0 -31.57551,-14.12847 -31.57551,-31.55681z" fill="url(#color-2)" stroke="none"/><path d="M325.14678,238.03758c0,-17.42835 14.13686,-31.55681 31.57554,-31.55681c17.43869,0 31.57551,14.12846 31.57551,31.55681c0,17.42835 -14.13683,31.5568 -31.57551,31.5568c-17.43869,0 -31.57554,-14.12845 -31.57554,-31.5568z" fill="url(#color-3)" stroke="none"/><path d="M116.53793,253.95623c0,-17.42835 14.13683,-31.5568 31.57554,-31.5568c17.43868,0 31.57553,14.12846 31.57553,31.5568c0,17.42835 -14.13682,31.55681 -31.57552,31.55681c-17.43868,0 -31.57554,-14.12846 -31.57554,-31.55681z" fill="url(#color-4)" stroke="none"/><path d="M67.56075,115.59707c0,-17.42835 14.13683,-31.5568 31.57554,-31.5568c17.43869,0 31.57551,14.12845 31.57551,31.5568c0,17.42835 -14.13683,31.5568 -31.57551,31.5568c-17.43869,0 -31.57552,-14.12846 -31.57552,-31.5568z" fill="url(#color-5)" stroke="none"/><path d="M255.54039,178.99126c0,-17.42835 14.13685,-31.5568 31.57553,-31.5568c17.43869,0 31.57551,14.12846 31.57551,31.5568c0,17.42835 -14.13684,31.55685 -31.57551,31.55685c-17.43869,0 -31.57553,-14.1285 -31.57553,-31.55685z" fill="url(#color-6)" stroke="none"/><path d="M141.37736,278.78093c0,-17.42835 14.13683,-31.55681 31.57554,-31.55681c17.43868,0 31.57554,14.12846 31.57554,31.55681c0,17.42835 -14.13684,31.5568 -31.57554,31.5568c-17.43868,0 -31.57554,-14.12845 -31.57554,-31.5568z" fill="url(#color-7)" stroke="none"/><path d="M264.14471,277.12374c0,-19.23884 15.60539,-34.83499 34.85563,-34.83499c19.25023,0 34.85562,15.59614 34.85562,34.83499c0,19.23885 -15.6054,34.83499 -34.85562,34.83499c-19.25023,0 -34.85563,-15.59614 -34.85563,-34.83498z" fill="url(#color-8)" stroke="none"/><path d="M234.71412,119.27314c0,-26.27809 21.31522,-47.58068 47.60887,-47.58068c26.29366,0 47.60888,21.30259 47.60888,47.58068c0,26.27809 -21.31522,47.58069 -47.60888,47.58069c-26.29366,0 -47.60887,-21.30259 -47.60887,-47.58068z" fill="url(#color-9)" stroke="none"/><path d="M32.62419,258.4954c0,-26.27809 21.31522,-47.58067 47.60887,-47.58067c26.29366,0 47.60886,21.3026 47.60886,47.58067c0,26.27809 -21.31521,47.58068 -47.60886,47.58068c-26.29366,0 -47.60887,-21.30259 -47.60887,-47.58068z" fill="url(#color-10)" stroke="none"/><path d="M65.22258,199.58042c0,-43.96091 35.65851,-79.59826 79.6455,-79.59826c43.987,0 79.64543,35.63732 79.64543,79.59826c0,43.96091 -35.65846,79.59832 -79.64542,79.59832c-43.98695,0 -79.6455,-35.63741 -79.6455,-79.59832z" fill="url(#color-11)" stroke="none"/><path d="M179.02091,273.11332c0,-40.17055 32.58397,-72.73519 72.77835,-72.73519c40.19436,0 72.77829,32.56464 72.77829,72.73519c0,40.17055 -32.58393,72.73527 -72.77829,72.73527c-40.19436,0 -72.77834,-32.56468 -72.77834,-72.73525z" fill="url(#color-12)" stroke="none"/><path d="M163.32455,167.22599c0,-40.17055 32.58397,-72.73519 72.77836,-72.73519c40.19436,0 72.7783,32.56463 72.7783,72.73519c0,40.17055 -32.58393,72.73527 -72.7783,72.73527c-40.19436,0 -72.77834,-32.5647 -72.77834,-72.73527z" fill="url(#color-13)" stroke="none"/><path d="M324.21176,280.95681c0,-40.17055 32.58398,-72.7352 72.77835,-72.7352c40.19436,0 72.77829,32.56465 72.77829,72.7352c0,40.17055 -32.58393,72.73526 -72.77829,72.73526c-40.19436,0 -72.77835,-32.56469 -72.77835,-72.73523z" fill="url(#color-14)" stroke="none"/><path d="M280.23724,140.90649c0,-35.19629 28.54913,-63.7285 63.76627,-63.7285c35.21714,0 63.76626,28.53222 63.76626,63.7285c0,35.19629 -28.54913,63.72849 -63.76626,63.72849c-35.21714,0 -63.76627,-28.53223 -63.76627,-63.72849z" fill="url(#color-15)" stroke="#000000"/></g><g stroke="none" stroke-width="0" stroke-linecap="butt"><path d="M119.48496,99.11743c0,-17.42835 14.13683,-31.55681 31.57554,-31.55681c17.43868,0 31.57554,14.12846 31.57554,31.55681c0,17.42835 -14.13684,31.55681 -31.57554,31.55681c-17.43868,0 -31.57553,-14.12846 -31.57553,-31.55681z" fill="url(#color-16)"/><path d="M30.86301,157.81311c0,-17.42835 14.13683,-31.55681 31.57554,-31.55681c17.43869,0 31.57551,14.12846 31.57551,31.55681c0,17.42835 -14.13682,31.5568 -31.57551,31.5568c-17.43868,0 -31.57553,-14.12846 -31.57553,-31.5568z" fill="url(#color-17)"/><path d="M257.50239,264.28933c0,-43.96091 35.65851,-79.59824 79.6455,-79.59824c43.987,0 79.64544,35.6373 79.64544,79.59824c0,43.96091 -35.65846,79.59834 -79.64543,79.59834c-43.987,0 -79.64549,-35.63742 -79.64549,-79.59834z" fill="url(#color-18)"/><path d="M43.64022,273.11332c0,-13.66674 3.77154,-26.45311 10.33116,-37.37624c12.72104,-21.18315 35.92767,-35.35895 62.44718,-35.35895c40.19436,0 72.77833,32.56464 72.77833,72.73519c0,40.17055 -32.58397,72.73527 -72.77832,72.73527c-40.19436,0 -72.77833,-32.56468 -72.77833,-72.73525z" fill="url(#color-19)"/><path d="M275.16074,169.18687c0,-40.17055 32.58399,-72.73519 72.77834,-72.73519c40.19436,0 72.7783,32.56464 72.7783,72.73519c0,40.17055 -32.58393,72.73528 -72.7783,72.73528c-40.19436,0 -72.77834,-32.56469 -72.77834,-72.73523z" fill="url(#color-20)"/><path d="M180.02091,85.63441c0,-40.17054 32.58397,-72.73521 72.77835,-72.73521c40.19436,0 72.77829,32.56465 72.77829,72.73521c0,40.17056 -32.58393,72.73527 -72.77829,72.73527c-40.19436,0 -72.77834,-32.56468 -72.77834,-72.73523z" fill="url(#color-21)"/><path d="M167.24863,277.03506c0,-40.17055 32.58397,-72.7352 72.77836,-72.7352c40.19436,0 72.7783,32.56465 72.7783,72.7352c0,40.17055 -32.58393,72.73526 -72.7783,72.73526c-40.19436,0 -72.77835,-32.56468 -72.77835,-72.73525z" fill="url(#color-22)"/><path d="M324.21176,280.95681c0,-40.17055 32.58398,-72.7352 72.77835,-72.7352c40.19436,0 72.77829,32.56465 72.77829,72.7352c0,40.17055 -32.58393,72.73526 -72.77829,72.73526c-40.19436,0 -72.77835,-32.56469 -72.77835,-72.73523z" fill="url(#color-23)"/><path d="M324.21176,92.71266c0,-40.17054 32.58398,-72.7352 72.77835,-72.7352c40.19436,0 72.77829,32.56465 72.77829,72.7352c0,40.17056 -32.58393,72.73527 -72.77829,72.73527c-40.19436,0 -72.77835,-32.56469 -72.77835,-72.73523z" fill="url(#color-24)"/><path d="M368.52902,203.65454c0,-21.11777 17.12949,-38.23709 38.25975,-38.23709c21.13029,0 38.25973,17.11934 38.25973,38.23709c0,21.11777 -17.12947,38.23708 -38.25973,38.23708c-21.13029,0 -38.25975,-17.11933 -38.25975,-38.23708z" fill="url(#color-25)"/><path d="M381.52902,217.65454c0,-21.11777 17.12949,-38.23709 38.25975,-38.23709c21.13029,0 38.25973,17.11934 38.25973,38.23709c0,21.11777 -17.12947,38.23708 -38.25973,38.23708c-21.13029,0 -38.25975,-17.11933 -38.25975,-38.23708z" fill="url(#color-26)"/><path d="M243.52902,277.65454c0,-21.11777 17.12949,-38.23709 38.25975,-38.23709c21.13029,0 38.25973,17.11934 38.25973,38.23709c0,21.11777 -17.12947,38.23708 -38.25973,38.23708c-21.13029,0 -38.25975,-17.11933 -38.25975,-38.23708z" fill="url(#color-27)"/><path d="M106.52901,137.65454c0,-21.11777 17.12949,-38.23709 38.25975,-38.23709c21.13029,0 38.25973,17.11934 38.25973,38.23709c0,21.11777 -17.12947,38.23708 -38.25973,38.23708c-21.13029,0 -38.25975,-17.11933 -38.25975,-38.23708z" fill="url(#color-28)"/><path d="M277.52902,74.65454c0,-21.11777 17.12949,-38.23709 38.25975,-38.23709c21.13029,0 38.25973,17.11934 38.25973,38.23709c0,21.11777 -17.12947,38.23708 -38.25973,38.23708c-21.13029,0 -38.25975,-17.11933 -38.25975,-38.23708z" fill="url(#color-29)"/><path d="M246.52902,279.65454c0,-21.11777 17.12949,-38.23709 38.25975,-38.23709c21.13029,0 38.25973,17.11934 38.25973,38.23709c0,21.11777 -17.12947,38.23708 -38.25973,38.23708c-21.13029,0 -38.25975,-17.11933 -38.25975,-38.23708z" fill="url(#color-30)"/><path d="M76.52901,125.65454c0,-21.11777 17.12949,-38.23709 38.25975,-38.23709c21.13029,0 38.25973,17.11934 38.25973,38.23709c0,21.11777 -17.12947,38.23708 -38.25973,38.23708c-21.13029,0 -38.25975,-17.11933 -38.25975,-38.23708z" fill="url(#color-31)"/><path d="M246.88262,292.8744c0,-22.7422 18.44714,-41.17841 41.20282,-41.17841c22.75568,0 41.20281,18.43621 41.20281,41.17841c0,22.7422 -18.44713,41.17842 -41.20281,41.17842c-22.75568,0 -41.20282,-18.43622 -41.20282,-41.17842z" fill="url(#color-32)"/><path d="M14.20963,84.86914c0,-31.46702 22.34773,-54.90453 50.33179,-65.04052c7.74016,-2.80353 13.73789,-7.69465 22.44656,-7.69465c8.79921,0 14.29222,3.52161 22.09998,6.38104c27.85767,10.20231 50.67831,34.97761 50.67831,66.35416c0,40.17055 -32.58393,72.73526 -72.77829,72.73526c-40.19436,0 -72.77834,-32.56469 -72.77834,-72.73525z" fill="url(#color-33)"/><path d="M272.76714,88.98202c0,-43.96091 35.65852,-79.59825 79.64551,-79.59825c43.987,0 79.64543,35.63732 79.64543,79.59825c0,43.96091 -35.65846,79.59833 -79.64542,79.59833c-43.987,0 -79.64551,-35.63742 -79.64551,-79.59833z" fill="url(#color-34)"/><path d="M98.03145,182.67807c0,-57.93512 47.51551,-104.90084 106.12883,-104.90084c58.61332,0 106.12883,46.96571 106.12883,104.90084c0,57.93516 -47.5155,104.90086 -106.12882,104.90086c-58.61332,0 -106.12883,-46.96573 -106.12883,-104.90086z" fill="url(#color-35)"/></g><g fill="none" stroke-width="0.5" stroke-linecap="round"><path d="M478.10857,100.6544l-18.87292,-9.72894l-17.48187,-60.20191l-72.6171,26.75643v25.41858l22.86094,42.81032l-2.6895,30.76986l-36.30858,32.10766l-57.82474,1.33789l-6.7238,29.43204l1.34478,28.09424l41.68763,56.18847l-28.23999,18.72951l-24.20569,-12.0404l-28.23996,1.33786l-42.19841,12.26851l-12.09239,0.60155l-25.99876,-6.01505l-11.48783,-5.41348l-10.27855,-0.6015l-6.04619,3.60905l-22.371,3.609l-11.48782,-5.41354l-9.0693,-6.01501l-8.46473,-1.20299l-15.11549,4.81198l-7.25544,12.63147l-2.41848,31.27805" stroke="url(#color-36)"/><path d="M245.43974,1.91701c0,0 2.08714,5.69292 3.16399,6.48503c1.40983,1.03703 4.88343,3.59211 4.88343,3.59211l16.13713,4.01346l13.4476,17.39169l-4.03426,14.71601l-24.20575,25.41857l-60.51428,9.36474l-45.72184,-1.33783l-24.20575,13.37823l-6.72382,33.44546l20.17139,25.41865l-15.09467,46.82374l-15.72018,21.65405h-7.86006l-19.34788,5.41349l-18.13866,2.40601l-21.16173,-12.63153l-13.90631,-2.40595l-8.46464,-7.8195l-16.64346,-8.36401" stroke="url(#color-37)"/><path d="M110.04603,221.07795l50.18357,9.62399l35.06805,14.43603l13.90627,1.20299l18.7328,-9.59287l17.48193,-38.79684l53.79048,1.33784l75.30665,40.13466l-10.75812,48.16151l21.51623,32.10768l16.13712,8.02691l-16.13712,29.43203" stroke="url(#color-38)"/><path d="M67.11781,323.33296l-12.69705,-10.2255c0,0 -8.76016,-3.00229 -7.86006,-18.045c0.90007,-15.04269 12.09245,-36.69151 12.09245,-36.69151l15.1155,-29.47355" stroke-opacity="0.6371" stroke="#5dd6f2"/><path d="M160.83419,234.3109l-13.90626,12.63148l6.0462,15.03748l4.23234,18.64652l-13.30163,13.83452l-13.30168,9.624l-6.0462,13.8345" stroke="url(#color-39)"/><path d="M50.1885,282.43101l21.16173,1.80448l25.99872,-15.63905l16.32479,11.42854l3.02309,10.82701l18.74329,9.02253" stroke-opacity="0.6371" stroke="#5dd6f2"/><path d="M455.20135,74.87175l-10.75806,72.24234l10.75806,18.7295l-16.13716,49.49938l-21.5162,4.01345l-29.58474,13.37827l-10.75808,10.70253" stroke-opacity="0.6371" stroke="#5dd6f2"/><path d="M243.84411,358.56648l-7.32523,-6.22425l-22.48898,-4.7432l-6.26469,-10.51435l12.10287,-16.24512" stroke="#3dd0fc"/><path d="M250.79761,76.20952l2.6895,37.459l14.79237,14.71601h30.92954l17.48188,-4.01344l16.13718,9.36474l4.03428,20.06727l10.75804,33.44551" stroke="url(#color-40)"/><path d="M254.83184,121.6955l-24.20572,25.41858c0,0 -35.54669,-1.36877 -55.13523,8.02691c-19.58848,9.39567 -20.17142,28.09423 -20.17142,28.09423l-25.49115,5.3513" stroke="url(#color-41)"/><path d="M211.79961,149.78974l-4.03425,10.70254l-5.379,21.40513l-2.68949,18.72951l5.37901,14.71603l16.13718,20.06732l12.10286,30.76985l-2.68952,28.09424l-17.48191,14.71601l-16.13713,13.37826" stroke-opacity="0.6371" stroke="#5dd6f2"/><path d="M127.27116,352.75734l14.60082,-14.3349l39.5676,-16.12786" stroke-opacity="0.6371" stroke="#5dd6f2"/><path d="M51.77299,80.22301l-13.44765,32.10767l13.44765,26.75644l38.99806,48.16154l-22.86088,13.37822l-21.5162,13.37819" stroke="url(#color-42)"/><path d="M51.77299,145.77624l-18.82668,9.36474l-18.82665,-5.35124l-8.06854,5.35124" stroke-opacity="0.6371" stroke="#5dd6f2"/><path d="M283.07185,49.45317l37.6533,-2.67564l37.65333,9.36474l10.75814,13.37822" stroke="url(#color-43)"/><path d="M322.07003,125.70896l-6.7238,-18.72951l4.03426,-29.43203l20.17144,-18.72951l5.34818,-3.31337" stroke-opacity="0.6371" stroke="#5dd6f2"/><path d="M229.28145,74.87175l-26.89517,-17.39165l-32.27425,-9.36474l-6.72381,-21.40513c0,0 20.07996,-11.41504 24.62693,-13.9999c1.74164,-0.99006 2.39997,-11.31198 2.39997,-11.31198" stroke="url(#color-44)"/><path d="M62.53104,81.56084l24.20575,-44.14812l29.58475,-8.02687l18.82667,2.67563l30.9295,2.67563" stroke="url(#color-45)"/><path d="M25.89025,64.17139l5.81648,-34.71898l34.7246,-28.32741c0,0 -11.24658,10.21866 -10.39423,11.02973c3.68017,3.50199 29.35485,27.93366 29.35485,27.93366" stroke="url(#color-46)"/><path d="M478.50001,352.85673l-7.16156,-15.77209l-20.17136,-30.76991l-2.68954,-33.44553l-21.5162,-24.08078v-28.09424" stroke="url(#color-47)"/><path d="M452.5119,274.20703l10.75807,-21.40513l2.68954,-26.75644l10.75805,-1.33782" stroke="url(#color-48)"/><path d="M467.89854,2.44233c0,0 11.57342,13.25238 9.63522,14.25505c-5.29571,2.73956 -34.43525,15.67764 -34.43525,15.67764" stroke="url(#color-49)"/><path d="M439.06424,212.66732l-26.89524,-26.75639l-2.68954,-28.09422l-13.44759,-13.37822" stroke="url(#color-50)"/><path d="M449.82232,294.27436c0,0 -15.17692,18.43278 -26.89517,28.09428c-11.7183,9.66143 -21.78363,12.04035 -21.78363,12.04035" stroke-opacity="0.6371" stroke="#5dd6f2"/><path d="M385.27378,318.35506l-47.06666,20.06733l-57.82474,12.04039l-13.44761,-34.78334" stroke="url(#color-51)"/><path d="M237.34998,280.89615h13.44765l21.51623,-17.39163l20.17136,-2.67564" stroke="url(#color-52)"/><path d="M366.44714,54.80443l-23.53773,-52.71154" stroke-opacity="0.6371" stroke="#5dd6f2"/><path d="M162.3876,164.44685l17.7298,29.05127l-8.34342,39.4268" stroke-opacity="0.6371" stroke="#5dd6f2"/><path d="M179.07446,84.55585l5.21464,4.1502l8.34339,10.37546v29.0513l-17.72978,28.01382" stroke-opacity="0.6371" stroke="#5dd6f2"/><path d="M384.53144,111.53201l15.64393,-10.37546l29.202,4.15019l19.81567,10.37547" stroke="url(#color-53)"/><path d="M270.85213,194.53581l-5.21464,-14.52568v-14.5256l13.55804,-8.30034l16.68687,-29.05134" stroke-opacity="0.6371" stroke="#5dd6f2"/><path d="M362.62994,286.87733l-11.47222,15.56322l-23.98737,-5.18775" stroke-opacity="0.6371" stroke="#5dd6f2"/><path d="M313.61231,275.46438l3.12883,-17.63831l1.04289,-17.63828l12.51515,-14.52561l7.3005,-2.07509" stroke-opacity="0.6371" stroke="#5dd6f2"/><path d="M1.59739,352.77695l21.03777,-38.92341l21.90149,-20.75093" stroke-opacity="0.6371" stroke="#5dd6f2"/><path d="M74.78153,157.1841l12.51514,-7.26281l8.34344,6.22529l14.60102,5.18773h21.90149" stroke-opacity="0.6371" stroke="#5dd6f2"/><path d="M78.95323,82.48079l12.51515,12.4505l-12.51515,37.3517l8.3434,20.75088" stroke="url(#color-54)"/><path d="M131.09973,30.60339l-2.08587,15.56319l7.3005,19.7134l-1.16612,18.35645l-24.20575,-14.716l-40.34285,12.04039l-37.65332,-2.67565l-5.37905,-8.0269l-24.20568,-14.71601" stroke-opacity="0.6371" stroke="#5dd6f2"/><path d="M372.0163,97.00637l-14.60097,14.52562l-3.12876,13.4881l-19.81567,5.18773" stroke="url(#color-55)"/><path d="M453.36475,176.89744l24.98156,19.15915" stroke="url(#color-56)"/><path d="M212.01894,60.69951l16.28625,-25.46056l27.91934,-23.14601" stroke="url(#color-57)"/><path d="M225.97851,35.23887l-18.61285,-6.9438c0,0 -4.67093,-9.95749 -6.1577,-13.12699c-0.84423,-1.79973 21.95349,-13.27123 21.95349,-13.27123" stroke-opacity="0.6371" stroke="#5dd6f2"/><path d="M120.11793,15.56484l22.10275,12.7303" stroke-opacity="0.6371" stroke="#5dd6f2"/><path d="M296.94005,44.49731l18.61285,-20.83133h33.73578" stroke-opacity="0.6371" stroke="#5dd6f2"/><path d="M316.71621,24.82315c0,0 -15.21278,-10.93025 -18.49879,-13.29121c-1.19358,-0.85757 -3.70056,-10.2188 -3.70056,-10.2188" stroke-opacity="0.6371" stroke="#5dd6f2"/><path d="M413.27054,41.0254l-18.61286,-25.46061c0,0 10.21391,-5.08056 12.38441,-6.16021c0.77409,-0.38505 6.36252,-7.45503 6.36252,-7.45503" stroke-opacity="0.6371" stroke="#5dd6f2"/><path d="M431.88334,106.99148l-24.42937,-39.34816l15.12297,-30.08982" stroke-opacity="0.6371" stroke="#5dd6f2"/><path d="M316.71621,83.84549l-52.34866,23.14602l-9.30639,-6.94376" stroke-opacity="0.6371" stroke="#5dd6f2"/><path d="M427.23016,251.65389l-20.93946,41.66283l-25.59267,10.4157" stroke-opacity="0.6371" stroke="#5dd6f2"/><path d="M53.80954,258.59781l-18.61285,-2.31455l-33.48163,-31.31136" stroke="url(#color-58)"/><path d="M241.10151,131.29481l-29.08266,-25.46061l-8.14312,-21.98868" stroke-opacity="0.6371" stroke="#5dd6f2"/><path d="M30.54355,30.445c0,0 -13.29894,-6.38254 -18.53926,-8.89754c-3.85733,-1.85124 -10.04499,-4.82088 -10.04499,-4.82088" stroke-opacity="0.31734" stroke="#5dd6f2"/><path d="M85.2188,194.94628l4.65322,24.30329" stroke-opacity="0.6371" stroke="#5dd6f2"/><path d="M227.14185,273.64268l-34.89909,23.14601l-39.55235,-23.14601" stroke-opacity="0.6371" stroke="#5dd6f2"/><path d="M96.85188,269.01351l-3.48995,-23.14601l15.12298,-17.35951l-8.14314,-1.15727" stroke-opacity="0.6371" stroke="#5dd6f2"/><path d="M202.71245,192.63168l34.8991,-26.61788h26.756" stroke="url(#color-59)"/><path d="M182.98246,137.34464l-17.05632,-10.36951l-23.68932,0.94269l-14.21359,-13.19755l-4.73787,-4.71341" stroke-opacity="0.6371" stroke="#5dd6f2"/><path d="M149.81742,83.6117l-4.73786,3.77075l15.16118,22.62438l-15.16118,15.08292" stroke-opacity="0.6371" stroke="#5dd6f2"/><path d="M265.4213,131.68852l-9.47574,31.10852l-34.11264,-9.42684" stroke-opacity="0.6371" stroke="#5dd6f2"/><path d="M316.59025,184.47874l-16.10872,-22.62438l31.26989,-10.3695" stroke-opacity="0.6371" stroke="#5dd6f2"/><path d="M284.37273,131.68852l32.21747,21.6817" stroke-opacity="0.6371" stroke="#5dd6f2"/><path d="M364.91643,100.57999l-30.32234,-15.08292l18.95146,-16.96829l9.47574,-4.71341" stroke-opacity="0.6371" stroke="#5dd6f2"/><path d="M312.79992,102.46534l18.00388,-16.02559" stroke-opacity="0.6371" stroke="#5dd6f2"/><path d="M315.64268,77.01293l-31.2699,-9.42682l8.52815,-14.14023" stroke-opacity="0.6371" stroke="#5dd6f2"/><path d="M255.94552,84.5544l26.53206,-18.85365" stroke-opacity="0.6371" stroke="#5dd6f2"/><path d="M363.0213,175.05194l33.16505,33.93658l-33.16505,23.56707" stroke-opacity="0.6371" stroke="#5dd6f2"/><path d="M389.55335,202.3897l32.21748,-1.88538" stroke-opacity="0.6371" stroke="#5dd6f2"/><path d="M263.5261,201.447l-9.47573,46.19143l-3.79032,5.65608" stroke-opacity="0.6371" stroke="#5dd6f2"/><path d="M267.3164,268.37748l16.10872,17.91096l-33.16505,27.33779" stroke-opacity="0.6371" stroke="#5dd6f2"/><path d="M327.01347,306.08477l-40.74564,-20.73902" stroke-opacity="0.6371" stroke="#5dd6f2"/><path d="M341.22715,296.65794l-9.47574,-40.53533l32.21749,-2.82806" stroke-opacity="0.6371" stroke="#5dd6f2"/><path d="M346.91257,254.23725l-19.89904,-23.56707" stroke-opacity="0.6371" stroke="#5dd6f2"/><path d="M108.1242,316.45429l-22.74176,35.82191l-9.47574,6.59879" stroke-opacity="0.6371" stroke="#5dd6f2"/><path d="M95.80574,336.2506l35.06021,19.79635" stroke-opacity="0.6371" stroke="#5dd6f2"/><path d="M468.20198,358.87499l-11.37089,-5.65609l-26.53206,-29.22316" stroke-opacity="0.6371" stroke="#5dd6f2"/><path d="M440.72232,340.02133l-27.47961,16.9683" stroke-opacity="0.6371" stroke="#5dd6f2"/><path d="M477.66873,130.91619l-30.19081,19.50559" stroke-opacity="0.6371" stroke="#5dd6f2"/><path d="M450.19806,119.43362l16.10872,14.14025" stroke-opacity="0.6371" stroke="#5dd6f2"/><path d="M406.60963,69.47145l-30.32233,18.85365" stroke-opacity="0.6371" stroke="#5dd6f2"/><path d="M234.15143,41.19101l40.74562,13.19756" stroke-opacity="0.6371" stroke="#5dd6f2"/><path d="M92.96299,30.82149l15.692,-28.58008" stroke-opacity="0.6371" stroke="#5dd6f2"/><path d="M1.99599,129.80315l36.00778,-17.91096" stroke-opacity="0.6371" stroke="#5dd6f2"/><path d="M149.81742,187.3068l-15.16117,35.82193" stroke-opacity="0.6371" stroke="#5dd6f2"/><path d="M283.42519,239.15432l-39.79806,16.0256l-29.37476,-33.93658l-34.11263,-27.33778" stroke-opacity="0.6371" stroke="#5dd6f2"/><path d="M385.76307,46.84709c0,0 -20.74426,-30.59998 -24.82337,-36.61709c-1.33435,-1.96831 24.81648,-8.792 24.81648,-8.792" stroke-opacity="0.6371" stroke="#5dd6f2"/><path d="M398.08154,22.33739l-21.79418,7.54146" stroke-opacity="0.6371" stroke="#5dd6f2"/><path d="M429.35144,97.75192l13.266,-48.07679" stroke-opacity="0.6371" stroke="#5dd6f2"/><path d="M414.19025,163.73971l27.47961,-24.50974" stroke-opacity="0.6371" stroke="#5dd6f2"/><path d="M196.24847,289.11649l-13.26601,-46.19143" stroke-opacity="0.6371" stroke="#5dd6f2"/><path d="M227.5184,261.77872l-36.00777,2.82804" stroke-opacity="0.6371" stroke="#5dd6f2"/><path d="M98.64846,273.09089l43.58834,-29.22316" stroke-opacity="0.6371" stroke="#5dd6f2"/><path d="M117.59989,254.23724l-14.21361,-18.85366" stroke-opacity="0.6371" stroke="#5dd6f2"/><path d="M65.48332,344.73474l-42.64078,-36.76461l10.4233,-46.19143" stroke-opacity="0.6371" stroke="#5dd6f2"/><path d="M12.41933,356.04694l38.85047,-20.73902" stroke-opacity="0.6371" stroke="#5dd6f2"/><path d="M284.37273,349.44817l-76.89194,-13.45289" stroke-opacity="0.6371" stroke="#5dd6f2"/><path d="M348.80767,307.02747l-22.74176,35.82192" stroke-opacity="0.6371" stroke="#5dd6f2"/><path d="M381.02518,351.33352l-31.2699,-13.19754" stroke-opacity="0.6371" stroke="#5dd6f2"/><path d="M23.70794,156.77624l27.47962,51.84753" stroke-opacity="0.6371" stroke="#5dd6f2"/><path d="M38.86907,181.28597l50.22136,-0.94268" stroke-opacity="0.6371" stroke="#5dd6f2"/><path d="M355.35844,128.49573l21.79418,33.93658" stroke-opacity="0.6371" stroke="#5dd6f2"/><path d="M343.98765,163.37504l23.68933,-14.14024" stroke-opacity="0.6371" stroke="#5dd6f2"/><path d="M36.02635,35.17018l41.69322,20.739" stroke-opacity="0.6371" stroke="#5dd6f2"/><path d="M28.44584,70.0494l21.7942,-23.56704" stroke-opacity="0.6371" stroke="#5dd6f2"/><path d="M190.84326,356.98129v-32.88573" stroke="url(#color-60)"/><path d="M108.56094,346.31282v11.91145" stroke-opacity="0.6371" stroke="#5dd6f2"/><path d="M201.18391,15.80586l-12.38218,-2.46512" stroke-opacity="0.6371" stroke="#5dd6f2"/><path d="M13.17862,2.57273l-0.59854,19.66172" stroke-opacity="0.31734" stroke="#5dd6f2"/><path d="M342.76306,336.80539v20.85023" stroke-opacity="0.6371" stroke="#5dd6f2"/><path d="M477.82477,56.73013l-27.69941,4.42525" stroke="url(#color-61)"/></g><path d="M0,360v-360h480v360z" fill="url(#color-62)" stroke="none" stroke-width="0" stroke-linecap="butt"/><g data-paper-data="{&quot;index&quot;:null}" fill="none" stroke-width="1.5" stroke-linecap="round"><path d="M1.89142,259.34559l18.87292,9.72894l17.48187,60.20191l72.6171,-26.75643v-25.41858l-22.86094,-42.81032l2.6895,-30.76986l36.30858,-32.10766l57.82474,-1.33789l6.7238,-29.43204l-1.34478,-28.09424l-41.68763,-56.18847l28.23999,-18.72951l24.20569,12.0404l28.23996,-1.33786l42.19841,-12.26851l12.09239,-0.60155l25.99876,6.01505l11.48783,5.41348l10.27855,0.6015l6.04619,-3.60905l22.371,-3.609l11.48782,5.41354l9.0693,6.01501l8.46473,1.20299l15.11549,-4.81198l7.25544,-12.63147l2.41848,-31.27805" stroke="url(#color-63)"/><path d="M234.56026,358.08298c0,0 -2.08714,-5.69292 -3.16399,-6.48503c-1.40983,-1.03703 -4.88343,-3.59211 -4.88343,-3.59211l-16.13713,-4.01346l-13.4476,-17.39169l4.03426,-14.71601l24.20575,-25.41857l60.51428,-9.36474l45.72184,1.33783l24.20575,-13.37823l6.72382,-33.44546l-20.17139,-25.41865l15.09467,-46.82374l15.72018,-21.65405h7.86006l19.34788,-5.41349l18.13866,-2.40601l21.16173,12.63153l13.90631,2.40595l8.46464,7.8195l16.64346,8.36401" stroke="url(#color-64)"/><path d="M369.95396,138.92204l-50.18357,-9.62399l-35.06805,-14.43603l-13.90627,-1.20299l-18.7328,9.59287l-17.48193,38.79684l-53.79048,-1.33784l-75.30665,-40.13466l10.75812,-48.16151l-21.51623,-32.10768l-16.13712,-8.02691l16.13712,-29.43203" stroke="url(#color-65)"/><path d="M412.88217,36.66703l12.69705,10.2255c0,0 8.76016,3.00229 7.86006,18.045c-0.90007,15.04269 -12.09245,36.69151 -12.09245,36.69151l-15.1155,29.47355" stroke-opacity="0.6371" stroke="#5dd6f2"/><path d="M355.44304,42.08059l-6.0462,13.8345l-13.30168,9.624l-13.30163,13.83452l4.23234,18.64652l11.0462,18.03748l-27.90626,9.63148" stroke="url(#color-66)"/><path d="M429.8115,77.56898l-21.16173,-1.80448l-25.99872,15.63905l-16.32479,-11.42854l-3.02309,-10.82701l-18.74329,-9.02253" stroke-opacity="0.6371" stroke="#5dd6f2"/><path d="M24.79864,285.12824l10.75806,-72.24234l-10.75806,-18.7295l16.13716,-49.49938l21.5162,-4.01345l29.58474,-13.37827l10.75808,-10.70253" stroke-opacity="0.6371" stroke="#5dd6f2"/><path d="M236.15589,1.43351l7.32523,6.22425l22.48898,4.7432l6.26469,10.51435l-12.10287,16.24512" stroke="#3dd0fc"/><path d="M229.20238,283.79047l-2.6895,-37.459l-14.79237,-14.71601h-30.92954l-17.48188,4.01344l-16.13718,-9.36474l-4.03428,-20.06727l-10.75804,-33.44551" stroke="url(#color-67)"/><path d="M225.16816,238.30449l24.20572,-25.41858c0,0 35.54669,1.36877 55.13523,-8.02691c19.58848,-9.39567 20.17142,-28.09423 20.17142,-28.09423l25.49115,-5.3513" stroke="url(#color-68)"/><path d="M268.20039,210.21025l4.03425,-10.70254l5.379,-21.40513l2.68949,-18.72951l-5.37901,-14.71603l-16.13718,-20.06732l-12.10286,-30.76985l2.68952,-28.09424l17.48191,-14.71601l16.13713,-13.37826" stroke-opacity="0.6371" stroke="#5dd6f2"/><path d="M352.72883,7.24265l-14.60082,14.3349l-39.5676,16.12786" stroke-opacity="0.6371" stroke="#5dd6f2"/><path d="M428.227,279.77698l13.44765,-32.10767l-13.44765,-26.75644l-37.64696,-40.84816l4.6489,-13.81338l16.86088,-6.87822l21.5162,-13.37819" stroke="url(#color-69)"/><path d="M428.227,214.22375l18.82668,-9.36474l18.82665,5.35124l8.06854,-5.35124" stroke-opacity="0.6371" stroke="#5dd6f2"/><path d="M196.92814,310.54682l-37.6533,2.67564l-37.65333,-9.36474l-10.75814,-13.37822" stroke="url(#color-70)"/><path d="M157.92996,234.29103l6.7238,18.72951l-4.03426,29.43203l-20.17144,18.72951l-5.34818,3.31337" stroke-opacity="0.6371" stroke="#5dd6f2"/><path d="M250.71854,285.12824l26.89517,17.39165l32.27425,9.36474l6.72381,21.40513c0,0 -20.07996,11.41504 -24.62693,13.9999c-1.74164,0.99006 -2.39997,11.31198 -2.39997,11.31198" stroke="url(#color-71)"/><path d="M417.46894,278.43915l-24.20575,44.14812l-29.58475,8.02687l-18.82667,-2.67563l-30.9295,-2.67563" stroke="url(#color-72)"/><path d="M454.10974,295.8286l-5.81648,34.71898l-34.7246,28.32741c0,0 11.24658,-10.21866 10.39423,-11.02973c-3.68017,-3.50199 -29.35485,-27.93366 -29.35485,-27.93366" stroke="url(#color-73)"/><path d="M1.49998,1.14326l7.16156,21.77209l20.17136,30.76991l2.68954,33.44553l21.5162,24.08078v28.09424" stroke="url(#color-74)"/><path d="M31.48809,86.79296l-14.75807,20.40513l-2.68954,26.75644l-10.75805,1.33782" stroke="url(#color-75)"/><path d="M12.10145,357.55766c0,0 -11.57342,-13.25238 -9.63522,-14.25505c5.29571,-2.73956 34.43525,-15.67764 34.43525,-15.67764" stroke="url(#color-76)"/><path d="M40.93575,147.33267l26.89524,26.75639l2.68954,28.09422l13.44759,13.37822" stroke="url(#color-77)"/><path d="M30.17767,65.72563c0,0 15.17692,-18.43278 26.89517,-28.09428c11.7183,-9.66143 21.78363,-12.04035 21.78363,-12.04035" stroke-opacity="0.6371" stroke="#5dd6f2"/><path d="M94.72621,41.64493l47.06666,-20.06733l57.82474,-12.04039l13.44761,34.78334" stroke="url(#color-78)"/><path d="M242.65001,79.10384h-13.44765l-21.51623,17.39163l-20.17136,2.67564" stroke="url(#color-79)"/><path d="M137.09058,357.9071l-23.53773,-52.71154" stroke-opacity="0.6371" stroke="#5dd6f2"/><path d="M317.61238,195.55314l-17.7298,-29.05127l8.34342,-39.4268" stroke-opacity="0.6371" stroke="#5dd6f2"/><path d="M300.92553,275.44414l-5.21464,-4.1502l-8.34339,-10.37546v-29.0513l17.72978,-28.01382" stroke-opacity="0.6371" stroke="#5dd6f2"/><path d="M95.46855,248.46798l-15.64393,10.37546l-29.202,-4.15019l-19.81567,-10.37547" stroke="url(#color-80)"/><path d="M209.14786,165.46418l5.21464,14.52568v14.5256l-13.55804,8.30034l-16.68687,29.05134" stroke-opacity="0.6371" stroke="#5dd6f2"/><path d="M117.37006,73.12266l11.47222,-15.56322l23.98737,5.18775" stroke-opacity="0.6371" stroke="#5dd6f2"/><path d="M166.38768,84.53561l-3.12883,17.63831l-1.04289,17.63828l-12.51515,14.52561l-7.3005,2.07509" stroke-opacity="0.6371" stroke="#5dd6f2"/><path d="M478.40259,7.22304l-21.03777,38.92341l-21.90149,20.75093" stroke-opacity="0.6371" stroke="#5dd6f2"/><path d="M405.21846,202.81589l-12.51514,7.26281l-8.34344,-6.22529l-14.60102,-5.18773h-21.90149" stroke-opacity="0.6371" stroke="#5dd6f2"/><path d="M401.04675,277.5192l-12.51515,-12.4505l12.51515,-37.3517l-8.3434,-20.75088" stroke="url(#color-81)"/><path d="M348.90026,329.3966l2.08587,-15.56319l-7.3005,-19.7134l1.16612,-18.35645l24.20575,14.716l40.34285,-12.04039l37.65332,2.67565l5.37905,8.0269l24.20568,14.71601" stroke-opacity="0.6371" stroke="#5dd6f2"/><path d="M107.98369,262.99362l14.60097,-14.52562l3.12876,-13.4881l19.81567,-5.18773" stroke="url(#color-82)"/><path d="M26.63524,183.10255l-24.98156,-19.15915" stroke="url(#color-83)"/><path d="M267.98105,299.30048l-16.28625,25.46056l-27.91934,23.14601" stroke="url(#color-84)"/><path d="M254.02149,324.76112l18.61285,6.9438c0,0 4.67093,9.95749 6.1577,13.12699c0.84423,1.79973 -21.95349,13.27123 -21.95349,13.27123" stroke-opacity="0.6371" stroke="#5dd6f2"/><path d="M359.88206,344.43515l-22.10275,-12.7303" stroke-opacity="0.6371" stroke="#5dd6f2"/><path d="M183.05994,315.50268l-18.61285,20.83133h-33.73578" stroke-opacity="0.6371" stroke="#5dd6f2"/><path d="M163.28378,335.17684c0,0 15.21278,10.93025 18.49879,13.29121c1.19358,0.85757 3.70056,10.2188 3.70056,10.2188" stroke-opacity="0.6371" stroke="#5dd6f2"/><path d="M66.72945,318.97459l18.61286,25.46061c0,0 -10.21391,5.08056 -12.38441,6.16021c-0.77409,0.38505 -6.36252,7.45503 -6.36252,7.45503" stroke-opacity="0.6371" stroke="#5dd6f2"/><path d="M48.11665,253.00851l24.42937,39.34816l-15.12297,30.08982" stroke-opacity="0.6371" stroke="#5dd6f2"/><path d="M163.28378,276.1545l52.34866,-23.14602l9.30639,6.94376" stroke-opacity="0.6371" stroke="#5dd6f2"/><path d="M52.76983,108.3461l20.93946,-41.66283l25.59267,-10.4157" stroke-opacity="0.6371" stroke="#5dd6f2"/><path d="M426.19045,101.40218l18.61285,2.31455l33.98163,26.31136" stroke="url(#color-85)"/><path d="M238.89848,228.70518l29.08266,25.46061l8.14312,21.98868" stroke-opacity="0.6371" stroke="#5dd6f2"/><path d="M449.45644,329.55499c0,0 13.29894,6.38254 18.53926,8.89754c3.85733,1.85124 10.04499,4.82088 10.04499,4.82088" stroke-opacity="0.31734" stroke="#5dd6f2"/><path d="M390.12796,140.75042l4.65322,24.30329" stroke-opacity="0.6371" stroke="#5dd6f2"/><path d="M252.85814,86.35731l34.89909,-23.14601l39.55235,23.14601" stroke-opacity="0.6371" stroke="#5dd6f2"/><path d="M383.14811,90.98648l3.48995,23.14601l-15.12298,17.35951l8.14314,1.15727" stroke-opacity="0.6371" stroke="#5dd6f2"/><path d="M277.28754,167.36831l-34.8991,26.61788h-26.756" stroke="url(#color-86)"/><path d="M297.01754,222.65535l17.05632,10.36951l23.68932,-0.94269l14.21359,13.19755l4.73787,4.71341" stroke-opacity="0.6371" stroke="#5dd6f2"/><path d="M330.18257,276.38829l4.73786,-3.77075l-15.16118,-22.62438l15.16118,-15.08292" stroke-opacity="0.6371" stroke="#5dd6f2"/><path d="M214.57868,228.31147l9.47574,-31.10852l34.11264,9.42684" stroke-opacity="0.6371" stroke="#5dd6f2"/><path d="M163.40974,175.52125l16.10872,22.62438l-31.26989,10.3695" stroke-opacity="0.6371" stroke="#5dd6f2"/><path d="M163.40979,206.62977l32.21747,21.6817" stroke-opacity="0.6371" stroke="#5dd6f2"/><path d="M115.08357,259.42l30.32234,15.08292l-18.95146,16.96829l-9.47574,4.71341" stroke-opacity="0.6371" stroke="#5dd6f2"/><path d="M167.20007,257.53465l-18.00388,16.02559" stroke-opacity="0.6371" stroke="#5dd6f2"/><path d="M164.35731,282.98706l31.2699,9.42682l-8.52815,14.14023" stroke-opacity="0.6371" stroke="#5dd6f2"/><path d="M197.52242,294.29924l26.53206,-18.85365" stroke-opacity="0.6371" stroke="#5dd6f2"/><path d="M116.97869,184.94805l-33.16505,-33.93658l33.16505,-23.56707" stroke-opacity="0.6371" stroke="#5dd6f2"/><path d="M58.22916,159.49567l32.21748,-1.88538" stroke-opacity="0.6371" stroke="#5dd6f2"/><path d="M216.47389,158.55299l9.47573,-46.19143l3.79032,-5.65608" stroke-opacity="0.6371" stroke="#5dd6f2"/><path d="M212.6836,91.62251l-16.10872,-17.91096l33.16505,-27.33779" stroke-opacity="0.6371" stroke="#5dd6f2"/><path d="M193.73216,74.65424l-40.74564,-20.73902" stroke-opacity="0.6371" stroke="#5dd6f2"/><path d="M138.77284,63.34205l9.47574,40.53533l-32.21749,2.82806" stroke-opacity="0.6371" stroke="#5dd6f2"/><path d="M152.98647,129.32981l-19.89904,-23.56707" stroke-opacity="0.6371" stroke="#5dd6f2"/><path d="M152.98647,129.32981l-19.89904,-23.56707" stroke-opacity="0.6371" stroke="#5dd6f2"/><path d="M371.87579,43.5457l22.74176,-35.82191l9.47574,-6.59879" stroke-opacity="0.6371" stroke="#5dd6f2"/><path d="M384.19425,23.74939l-35.06021,-19.79635" stroke-opacity="0.6371" stroke="#5dd6f2"/><path d="M11.79801,1.125l11.37089,5.65609l26.53206,29.22316" stroke-opacity="0.6371" stroke="#5dd6f2"/><path d="M66.75728,3.01036l-27.47961,16.9683" stroke-opacity="0.6371" stroke="#5dd6f2"/><path d="M32.52207,209.57821l-30.19081,19.50559" stroke-opacity="0.6371" stroke="#5dd6f2"/><path d="M29.80193,240.56637l-16.10872,-14.14025" stroke-opacity="0.6371" stroke="#5dd6f2"/><path d="M103.71269,271.67489l-30.32233,18.85365" stroke-opacity="0.6371" stroke="#5dd6f2"/><path d="M245.84855,318.80898l-40.74562,-13.19756" stroke-opacity="0.6371" stroke="#5dd6f2"/><path d="M387.037,329.1785l-15.692,28.58008" stroke-opacity="0.6371" stroke="#5dd6f2"/><path d="M478.004,230.19684l-36.00778,17.91096" stroke-opacity="0.6371" stroke="#5dd6f2"/><path d="M345.34374,136.87126l-15.16117,35.82193" stroke-opacity="0.6371" stroke="#5dd6f2"/><path d="M196.57481,120.84567l39.79806,-16.0256l29.37476,33.93658l34.11263,27.33778" stroke-opacity="0.6371" stroke="#5dd6f2"/><path d="M94.23692,313.1529c0,0 20.74426,30.59998 24.82337,36.61709c1.33435,1.96831 -24.81648,8.792 -24.81648,8.792" stroke-opacity="0.6371" stroke="#5dd6f2"/><path d="M103.71264,330.12114l-21.79418,7.54146" stroke-opacity="0.6371" stroke="#5dd6f2"/><path d="M50.64855,262.24807l-13.266,48.07679" stroke-opacity="0.6371" stroke="#5dd6f2"/><path d="M65.80974,196.26028l-27.47961,24.50974" stroke-opacity="0.6371" stroke="#5dd6f2"/><path d="M297.01754,117.07493l-13.26601,-46.19143" stroke-opacity="0.6371" stroke="#5dd6f2"/><path d="M288.48936,95.39323l-36.00777,2.82804" stroke-opacity="0.6371" stroke="#5dd6f2"/><path d="M337.76319,116.13226l43.58834,-29.22316" stroke-opacity="0.6371" stroke="#5dd6f2"/><path d="M362.4001,105.76275l14.21361,18.85366" stroke-opacity="0.6371" stroke="#5dd6f2"/><path d="M414.51667,15.26525l42.64078,36.76461l-10.4233,46.19143" stroke-opacity="0.6371" stroke="#5dd6f2"/><path d="M467.58066,3.95305l-38.85047,20.73902" stroke-opacity="0.6371" stroke="#5dd6f2"/><path d="M195.62727,10.55182l76.89194,13.45289" stroke-opacity="0.6371" stroke="#5dd6f2"/><path d="M131.19231,52.97252l22.74176,-35.82192" stroke-opacity="0.6371" stroke="#5dd6f2"/><path d="M130.24471,21.86401l-31.2699,-13.19754" stroke-opacity="0.6371" stroke="#5dd6f2"/><path d="M464.79205,209.72375l-35.97962,-58.34753" stroke-opacity="0.6371" stroke="#5dd6f2"/><path d="M445.63091,179.21402l-54.72136,0.44268" stroke-opacity="0.6371" stroke="#5dd6f2"/><path d="M102.84736,197.56768l21.79418,33.93658" stroke-opacity="0.6371" stroke="#5dd6f2"/><path d="M136.01234,196.62495l-23.68933,14.14024" stroke-opacity="0.6371" stroke="#5dd6f2"/><path d="M443.97364,324.8298l-41.69322,-20.739" stroke-opacity="0.6371" stroke="#5dd6f2"/><path d="M451.55415,289.95059l-21.7942,23.56704" stroke-opacity="0.6371" stroke="#5dd6f2"/><path d="M289.15673,3.0187v32.88573" stroke="url(#color-87)"/><path d="M371.43905,1.77572v11.91145" stroke-opacity="0.6371" stroke="#5dd6f2"/><path d="M278.81609,344.19413l12.38218,2.46512" stroke-opacity="0.6371" stroke="#5dd6f2"/><path d="M467.41991,337.76554l-0.59854,19.66172" stroke-opacity="0.31734" stroke="#5dd6f2"/><path d="M137.23693,23.1946v-20.85023" stroke-opacity="0.6371" stroke="#5dd6f2"/><path d="M2.17522,303.26986l27.69941,-4.42525" stroke="url(#color-88)"/></g><path d="M32.62419,292.9568c0,-33.54312 27.20821,-60.73521 60.77124,-60.73521c33.56302,0 60.77119,27.19207 60.77119,60.73521c0,33.54314 -27.20817,60.73527 -60.77118,60.73527c-33.56301,0 -60.77123,-27.19209 -60.77123,-60.73523z" fill="url(#color-89)" stroke="none" stroke-width="0" stroke-linecap="butt"/></g><g stroke="#000000" stroke-width="0" stroke-linecap="butt"><path d="M-0.33322,27v-27h480.66667v27z" fill="url(#color-90)"/><path d="M480.33343,333v27h-480.66667v-27z" data-paper-data="{&quot;index&quot;:null}" fill="url(#color-91)"/><path d="M-0.33321,360v-360h25.66667v360z" fill="url(#color-92)"/><path d="M480.33342,0v360h-25.66667v-360z" data-paper-data="{&quot;index&quot;:null}" fill="url(#color-93)"/></g><g stroke="none" stroke-width="0" stroke-linecap="butt"><g><path d="M403.1307,333.16517h-326.02402v-51.52552h326.02402z" fill="url(#color-94)"/><path d="M25.42724,281.37226v-202.38296h51.77552v202.38296z" fill="url(#color-95)"/><path d="M25.50632,333.14742v-51.7398h51.7398z" fill="url(#color-96)"/><path d="M77.24612,281.40761v51.7398h-51.7398z" fill="url(#color-97)"/><path d="M25.50632,27.07428h51.7398v51.7398z" fill="url(#color-98)"/><path d="M77.24612,78.81408h-51.7398v-51.7398z" fill="url(#color-99)"/></g><g data-paper-data="{&quot;index&quot;:null}"><path d="M77.0939,27.07428h326.02402v51.52552h-326.02402z" fill="url(#color-100)"/><path d="M454.79737,78.86718v202.38296h-51.77552v-202.38296z" fill="url(#color-101)"/><path d="M454.71829,27.09204v51.7398h-51.7398z" fill="url(#color-102)"/><path d="M402.97849,78.83184v-51.7398h51.7398z" fill="url(#color-103)"/><path d="M454.71829,333.16517h-51.7398v-51.7398z" fill="url(#color-104)"/><path d="M402.97849,281.42536h51.7398v51.7398z" fill="url(#color-105)"/></g></g></g></g></svg>