<svg version="1.1" xmlns="http://www.w3.org/2000/svg" xmlns:xlink="http://www.w3.org/1999/xlink" width="94.58745" height="106.50843" viewBox="0,0,94.58745,106.50843"><defs><radialGradient cx="240" cy="180.00003" r="26.8" gradientUnits="userSpaceOnUse" id="color-1"><stop offset="0" stop-color="#ffffff" stop-opacity="0.61569"/><stop offset="1" stop-color="#ffffff" stop-opacity="0"/></radialGradient><radialGradient cx="240" cy="162" r="26.8" gradientUnits="userSpaceOnUse" id="color-2"><stop offset="0" stop-color="#ffffff" stop-opacity="0.61569"/><stop offset="1" stop-color="#ffffff" stop-opacity="0"/></radialGradient><radialGradient cx="240" cy="198.00003" r="26.8" gradientUnits="userSpaceOnUse" id="color-3"><stop offset="0" stop-color="#ffffff" stop-opacity="0.61569"/><stop offset="1" stop-color="#ffffff" stop-opacity="0"/></radialGradient><linearGradient x1="240.00002" y1="152.6667" x2="240.00002" y2="207.33336" gradientUnits="userSpaceOnUse" id="color-4"><stop offset="0" stop-color="#ff0000" stop-opacity="0.20392"/><stop offset="1" stop-color="#bf0000"/></linearGradient><linearGradient x1="249.66669" y1="135.93035" x2="291.53656" y2="135.93035" gradientUnits="userSpaceOnUse" id="color-5"><stop offset="0" stop-color="#000000" stop-opacity="0.76078"/><stop offset="1" stop-color="#444444" stop-opacity="0.72549"/></linearGradient><linearGradient x1="300.97011" y1="135.93035" x2="300.97011" y2="149.56505" gradientUnits="userSpaceOnUse" id="color-6"><stop offset="0" stop-color="#000000"/><stop offset="1" stop-color="#444444" stop-opacity="0.72549"/></linearGradient></defs><g transform="translate(-213.2,-118.29161)"><g data-paper-data="{&quot;isPaintingLayer&quot;:true}" fill-rule="nonzero" stroke-linecap="butt" stroke-linejoin="miter" stroke-miterlimit="10" stroke-dasharray="" stroke-dashoffset="0" style="mix-blend-mode: normal"><g stroke="none" stroke-width="0"><path d="M213.2,180.00003c0,-14.80123 11.99877,-26.8 26.8,-26.8c14.80123,0 26.8,11.99877 26.8,26.8c0,14.80123 -11.99877,26.8 -26.8,26.8c-14.80123,0 -26.8,-11.99877 -26.8,-26.8z" fill="url(#color-1)"/><path d="M213.2,162c0,-14.80123 11.99877,-26.8 26.8,-26.8c14.80123,0 26.8,11.99877 26.8,26.8c0,14.80123 -11.99877,26.8 -26.8,26.8c-14.80123,0 -26.8,-11.99877 -26.8,-26.8z" fill="url(#color-2)"/><path d="M213.2,198.00003c0,-14.80123 11.99877,-26.8 26.8,-26.8c14.80123,0 26.8,11.99877 26.8,26.8c0,14.80123 -11.99877,26.8 -26.8,26.8c-14.80123,0 -26.8,-11.99877 -26.8,-26.8z" fill="url(#color-3)"/></g><path d="M230.82906,206.73123v-53.46239h18.34188v53.46239z" fill-opacity="0.47843" fill="#ffffff" stroke="#000000" stroke-width="0"/><path d="M230.33335,204.43336v-49.26667l2.5641,-2.5h14.2l2.56923,2.5v49.66667l-2.76923,2.5h-13.8z" fill="none" stroke="url(#color-4)" stroke-width="1.5"/><path d="M288.85526,148.84155h-31.76549l-7.42308,3.82515l3.09794,-6.83289v-24.26432l2.31147,-2.37548h34.14899l2.31147,2.56039v24.5315z" fill="url(#color-5)" stroke="none" stroke-width="0"/><text transform="translate(255.09787,131.09826) scale(0.28779,0.28779)" font-size="40" xml:space="preserve" fill="#ffffff" fill-rule="nonzero" stroke="#ffffff" stroke-width="3" stroke-linecap="butt" stroke-linejoin="miter" stroke-miterlimit="10" stroke-dasharray="" stroke-dashoffset="0" font-family="Sans Serif" font-weight="normal" text-anchor="start" style="mix-blend-mode: normal"><tspan x="0" dy="0">インク</tspan><tspan x="0" dy="46.150000000000006px"> 不足 !</tspan></text><path d="M294.15276,142.74771c0,-3.76511 3.05224,-6.81734 6.81735,-6.81734c3.76512,0 6.81734,3.05223 6.81734,6.81734c0,3.76512 -3.05222,6.81734 -6.81734,6.81734c-3.76512,0 -6.81735,-3.05223 -6.81735,-6.81734z" fill="url(#color-6)" stroke="none" stroke-width="0"/><text transform="translate(297.80573,146.83131) scale(0.28406,0.28406)" font-size="40" xml:space="preserve" fill="#ffffff" fill-rule="nonzero" stroke="#ffffff" stroke-width="1" stroke-linecap="butt" stroke-linejoin="miter" stroke-miterlimit="10" stroke-dasharray="" stroke-dashoffset="0" font-family="Sans Serif" font-weight="normal" text-anchor="start" style="mix-blend-mode: normal"><tspan x="0" dy="0">E</tspan></text></g></g></svg>