<svg version="1.1" xmlns="http://www.w3.org/2000/svg" xmlns:xlink="http://www.w3.org/1999/xlink" width="355" height="52.61364" viewBox="0,0,355,52.61364"><defs><radialGradient cx="237.12238" cy="120.70417" r="177.5" gradientUnits="userSpaceOnUse" id="color-1"><stop offset="0" stop-color="#1a1a1a"/><stop offset="1" stop-color="#1a1a1a" stop-opacity="0"/></radialGradient></defs><g transform="translate(-59.62238,-94.39734)"><g data-paper-data="{&quot;isPaintingLayer&quot;:true}" fill-rule="nonzero" stroke-linejoin="miter" stroke-miterlimit="10" stroke-dasharray="" stroke-dashoffset="0" style="mix-blend-mode: normal"><path d="M59.62238,147.01098v-52.61364h355v52.61364z" fill="url(#color-1)" stroke="#ffffff" stroke-width="0" stroke-linecap="butt"/><path d="M152.20813,134.63316v-25.67116h-3.01869c-1.14759,0 -2.01243,-0.34095 -2.59453,-1.02286c-0.58211,-0.69854 -0.87318,-1.53013 -0.87318,-2.49476c0,-0.93136 0.3077,-1.74633 0.92308,-2.44486c0.63201,-0.71517 1.48022,-1.07276 2.54464,-1.07276h7.25976c1.06444,0 1.89601,0.34095 2.49476,1.02288c0.61538,0.66527 0.92308,1.5301 0.92308,2.59453v29.08897c0,1.26402 -0.3576,2.24526 -1.07273,2.94379c-0.69854,0.68189 -1.61329,1.02286 -2.74426,1.02286c-1.11432,0 -2.03739,-0.34926 -2.76919,-1.0478c-0.71517,-0.71517 -1.07273,-1.68811 -1.07273,-2.91885z" fill="#ffffff" stroke="none" stroke-width="0.40889" stroke-linecap="butt"/><g fill="none" stroke="#ffffff"><path d="M96.20052,122.62923c0,-9.35872 7.58672,-16.94544 16.94544,-16.94544c9.35872,0 16.94544,7.58672 16.94544,16.94544c0,9.35872 -7.58672,16.94544 -16.94544,16.94544c-9.35872,0 -16.94544,-7.58672 -16.94544,-16.94544z" stroke-width="5" stroke-linecap="butt"/><path d="M120.20656,102.35827h-14.12119" stroke-width="6.5" stroke-linecap="round"/><path d="M122.85429,122.92343h-9.70832v-10.1819" stroke-width="4" stroke-linecap="round"/></g><path d="M334.55685,125.56512h-12.77015c0.20336,1.42342 0.82696,2.50115 1.8708,3.23319c1.04384,0.73204 2.30458,1.09807 3.78224,1.09807c0.90828,0 1.68099,-0.14233 2.31815,-0.427c0.63715,-0.28469 1.43021,-0.68461 2.37916,-1.19976c0.9625,-0.5287 1.66065,-0.79305 2.09446,-0.79305c0.40669,0 0.79982,0.12879 1.17939,0.38637c0.39314,0.24401 0.70494,0.56259 0.93541,0.95573c0.23045,0.39314 0.34568,0.80661 0.34568,1.2404c0,0.62361 -0.29146,1.24043 -0.87438,1.85045c-0.56937,0.61005 -1.33532,1.15908 -2.29783,1.64711c-0.94895,0.47447 -2.02668,0.85404 -3.23319,1.13873c-1.19296,0.29825 -2.32493,0.44737 -3.39589,0.44737c-2.18257,0 -4.13469,-0.49481 -5.85635,-1.48443c-1.72167,-1.00318 -3.0502,-2.37916 -3.9856,-4.12794c-0.93539,-1.76232 -1.40308,-3.74155 -1.40308,-5.9377c0,-1.4912 0.26435,-2.94173 0.79305,-4.3516c0.54226,-1.40987 1.28787,-2.66383 2.23682,-3.76189c0.9625,-1.09807 2.10801,-1.95213 3.43653,-2.56218c1.34209,-0.62359 2.77229,-0.93539 4.29062,-0.93539c1.55898,0 3.00951,0.32535 4.3516,0.97605c1.35563,0.63715 2.50115,1.48443 3.43656,2.54183c0.93539,1.0574 1.66743,2.23681 2.19613,3.53823c0.5287,1.28785 0.79305,2.56893 0.79305,3.84324c0,1.78945 -0.87439,2.68417 -2.62316,2.68417zM321.64436,121.5592h9.53694c-0.16262,-1.3692 -0.66421,-2.47405 -1.50478,-3.31454c-0.8405,-0.8405 -1.93178,-1.26075 -3.27385,-1.26075c-1.28787,0 -2.35883,0.42703 -3.21287,1.28109c-0.85406,0.85404 -1.36921,1.95211 -1.54544,3.2942z" fill="#ffffff" stroke="none" stroke-width="0.40889" stroke-linecap="butt"/><path d="M341.19788,131.54348v-13.80719h-1.34207c-0.78628,0 -1.41665,-0.23724 -1.89112,-0.71172c-0.48803,-0.48803 -0.73204,-1.13196 -0.73204,-1.93178c0,-0.74561 0.25079,-1.36921 0.75236,-1.8708c0.50159,-0.50158 1.12519,-0.75236 1.8708,-0.75236h1.34207v-3.07054c0,-2.16902 0.57615,-3.85002 1.72844,-5.04298c1.16586,-1.19296 2.68418,-1.78945 4.55497,-1.78945c1.19296,0 2.18258,0.21012 2.96884,0.63037c0.79984,0.42025 1.19976,1.11163 1.19976,2.07414c0,1.69454 -0.82017,2.54181 -2.46051,2.54181c-0.66426,0 -1.16585,0.12201 -1.50475,0.36602c-0.3389,0.24401 -0.50836,0.86083 -0.50836,1.85045v2.44016h1.89112c2.0199,0 3.02985,0.87439 3.02985,2.62316c0,1.76234 -1.00995,2.64351 -3.02985,2.64351h-1.89112v13.80719c0,0.98962 -0.27791,1.79623 -0.83374,2.41982c-0.54225,0.61005 -1.26074,0.91507 -2.15547,0.91507c-0.89471,0 -1.61998,-0.30502 -2.17579,-0.91507c-0.54226,-0.62359 -0.8134,-1.4302 -0.8134,-2.41982z" fill="#ffffff" stroke="none" stroke-width="0.40889" stroke-linecap="butt"/><path d="M307.06001,131.54348v-25.64193c0,-0.98962 0.27112,-1.78945 0.81337,-2.3995c0.55583,-0.62359 1.2811,-0.93539 2.17581,-0.93539c0.58292,0 1.09807,0.14234 1.54544,0.42703c0.4609,0.27112 0.82014,0.66425 1.07772,1.17939c0.25758,0.50159 0.38637,1.07775 0.38637,1.72846v25.64193c0,0.65072 -0.12879,1.23364 -0.38637,1.74878c-0.25758,0.50159 -0.61682,0.89472 -1.07772,1.17939c-0.46092,0.27114 -0.97607,0.40671 -1.54544,0.40671c-0.89471,0 -1.61999,-0.30502 -2.17581,-0.91507c-0.54225,-0.62359 -0.81337,-1.4302 -0.81337,-2.41982z" fill="#ffffff" stroke="none" stroke-width="0.40889" stroke-linecap="butt"/><path d="M356.96171,131.92473v-13.80721h-1.34208c-0.78627,0 -1.41664,-0.23723 -1.89112,-0.7117c-0.48803,-0.48805 -0.73205,-1.13198 -0.73205,-1.93181c0,-0.74559 0.25079,-1.36918 0.75238,-1.87077c0.50159,-0.50159 1.12518,-0.75239 1.87078,-0.75239h1.34208v-3.57889c0,-0.98962 0.27113,-1.78945 0.81339,-2.39947c0.55581,-0.62359 1.28108,-0.93539 2.1758,-0.93539c0.58293,0 1.09807,0.14233 1.54543,0.427c0.46092,0.27114 0.82016,0.66428 1.07773,1.17942c0.25757,0.50159 0.38636,1.07774 0.38636,1.72844v3.57889h1.70811c0.82694,0 1.51154,0.21691 2.0538,0.65072c0.54226,0.42025 0.81338,1.07773 0.81338,1.97244c0,0.89473 -0.27113,1.55899 -0.81338,1.99279c-0.5287,0.43381 -1.2133,0.65072 -2.0538,0.65072h-1.70811v13.80721c0,0.6507 -0.12879,1.23362 -0.38636,1.74876c-0.25757,0.50159 -0.61682,0.89473 -1.07773,1.17942c-0.46092,0.27112 -0.97606,0.40669 -1.54543,0.40669c-0.89472,0 -1.61999,-0.30501 -2.1758,-0.91504c-0.54226,-0.62361 -0.81339,-1.43021 -0.81339,-2.41982z" fill="#ffffff" stroke="none" stroke-width="0.40889" stroke-linecap="butt"/><path d="M375.97264,123.33081v-20.08975c0,-1.08777 0.34843,-1.95458 1.04528,-2.60043c0.69685,-0.64586 1.59766,-0.96879 2.70243,-0.96879c1.07077,0 1.96308,0.33142 2.67693,0.99426c0.71385,0.66286 1.07077,1.52118 1.07077,2.57496v20.08975c0,1.07076 -0.35692,1.92908 -1.07077,2.57496c-0.71385,0.64586 -1.60616,0.96879 -2.67693,0.96879c-1.10477,0 -2.00558,-0.32293 -2.70243,-0.96879c-0.69685,-0.64588 -1.04528,-1.50419 -1.04528,-2.57496zM379.72034,138.11768c-1.12176,0 -2.08206,-0.39942 -2.88089,-1.19825c-0.79883,-0.79883 -1.19825,-1.75914 -1.19825,-2.88091c0,-1.12175 0.39942,-2.08205 1.19825,-2.88087c0.79883,-0.79883 1.75913,-1.19825 2.88089,-1.19825c1.12176,0 2.08206,0.39942 2.88089,1.19825c0.79883,0.79883 1.19825,1.75913 1.19825,2.88087c0,1.12177 -0.39942,2.08207 -1.19825,2.88091c-0.79883,0.79883 -1.75913,1.19825 -2.88089,1.19825z" fill="#ffffff" stroke="none" stroke-width="0.40889" stroke-linecap="butt"/><path d="M294.05685,125.56512h-12.77015c0.20336,1.42342 0.82696,2.50115 1.8708,3.23319c1.04384,0.73204 2.30458,1.09807 3.78224,1.09807c0.90828,0 1.68099,-0.14233 2.31815,-0.427c0.63715,-0.28469 1.43021,-0.68461 2.37916,-1.19976c0.9625,-0.5287 1.66065,-0.79305 2.09446,-0.79305c0.40669,0 0.79982,0.12879 1.17939,0.38637c0.39314,0.24401 0.70494,0.56259 0.93541,0.95573c0.23045,0.39314 0.34568,0.80661 0.34568,1.2404c0,0.62361 -0.29146,1.24043 -0.87438,1.85045c-0.56937,0.61005 -1.33532,1.15908 -2.29783,1.64711c-0.94895,0.47447 -2.02668,0.85404 -3.23319,1.13873c-1.19296,0.29825 -2.32493,0.44737 -3.39589,0.44737c-2.18257,0 -4.13469,-0.49481 -5.85635,-1.48443c-1.72167,-1.00318 -3.0502,-2.37916 -3.9856,-4.12794c-0.93539,-1.76232 -1.40308,-3.74155 -1.40308,-5.9377c0,-1.4912 0.26435,-2.94173 0.79305,-4.3516c0.54226,-1.40987 1.28787,-2.66383 2.23682,-3.76189c0.9625,-1.09807 2.10801,-1.95213 3.43653,-2.56218c1.34209,-0.62359 2.77229,-0.93539 4.29062,-0.93539c1.55898,0 3.00951,0.32535 4.3516,0.97605c1.35563,0.63715 2.50115,1.48443 3.43656,2.54183c0.93539,1.0574 1.66743,2.23681 2.19613,3.53823c0.5287,1.28785 0.79305,2.56893 0.79305,3.84324c0,1.78945 -0.87439,2.68417 -2.62316,2.68417zM281.14436,121.5592h9.53694c-0.16262,-1.3692 -0.66421,-2.47405 -1.50478,-3.31454c-0.8405,-0.8405 -1.93178,-1.26075 -3.27385,-1.26075c-1.28787,0 -2.35883,0.42703 -3.21287,1.28109c-0.85406,0.85404 -1.36921,1.95211 -1.54544,3.2942z" fill="#ffffff" stroke="none" stroke-width="0.40889" stroke-linecap="butt"/><path d="M208.19222,131.54348v-15.983c0,-0.98962 0.27112,-1.78945 0.81337,-2.39947c0.55581,-0.62361 1.28108,-0.93541 2.17581,-0.93541c0.58292,0 1.09807,0.14234 1.54544,0.42703c0.4609,0.27114 0.82014,0.66428 1.07772,1.17942c0.25758,0.50159 0.38637,1.07774 0.38637,1.72844v15.983c0,0.65072 -0.12879,1.23364 -0.38637,1.74878c-0.25758,0.50159 -0.61682,0.89472 -1.07772,1.17939c-0.46092,0.27114 -0.97607,0.40671 -1.54544,0.40671c-0.89473,0 -1.62,-0.30502 -2.17581,-0.91507c-0.54225,-0.62359 -0.81337,-1.4302 -0.81337,-2.41982zM211.1814,103.23771c0.59648,0 1.15229,0.1559 1.66743,0.46769c0.51514,0.3118 0.92861,0.72527 1.24043,1.24043c0.3118,0.50158 0.46769,1.03028 0.46769,1.5861c0,0.93539 -0.33213,1.74877 -0.99639,2.44014c-0.65072,0.67783 -1.44377,1.01674 -2.37916,1.01674c-0.88117,0 -1.66744,-0.35247 -2.35881,-1.0574c-0.67783,-0.70493 -1.01674,-1.50476 -1.01674,-2.39947c0,-0.85406 0.33891,-1.61322 1.01674,-2.27748c0.69137,-0.67783 1.47764,-1.01674 2.35881,-1.01674z" fill="#ffffff" stroke="none" stroke-width="0.40889" stroke-linecap="butt"/><path d="M172.91392,131.54348v-15.983c0,-0.98962 0.27113,-1.78945 0.8134,-2.39947c0.55581,-0.62361 1.28107,-0.93541 2.17579,-0.93541c0.77272,0 1.39632,0.19657 1.8708,0.58971c0.48803,0.39314 0.78627,0.94895 0.89472,1.66743c1.51831,-1.66743 3.37553,-2.50115 5.57168,-2.50115c2.52149,0 4.58884,1.00995 6.20205,3.02985c0.79982,-0.90828 1.79622,-1.64032 2.98918,-2.19613c1.19296,-0.55581 2.30459,-0.83372 3.33489,-0.83372c1.64032,0 3.0773,0.3118 4.31094,0.93539c1.23362,0.61005 2.18934,1.5251 2.86717,2.74518c0.69137,1.22007 1.03706,2.68417 1.03706,4.39229v11.48904c0,0.65072 -0.12878,1.23364 -0.38634,1.74878c-0.25758,0.50159 -0.61683,0.89472 -1.07775,1.17939c-0.46092,0.27114 -0.97606,0.40671 -1.54541,0.40671c-0.89473,0 -1.62,-0.30502 -2.17581,-0.91507c-0.54226,-0.62359 -0.8134,-1.4302 -0.8134,-2.41982v-10.45198c0,-0.81339 -0.14233,-1.5251 -0.427,-2.13515c-0.27114,-0.61003 -0.67106,-1.09128 -1.19976,-1.44374c-0.5287,-0.35247 -1.15229,-0.5287 -1.87077,-0.5287c-1.08451,0 -1.94534,0.37958 -2.5825,1.13873c-0.63715,0.74561 -0.95573,1.73523 -0.95573,2.96886v10.45198c0,0.65072 -0.12878,1.23364 -0.38634,1.74878c-0.25758,0.50159 -0.61683,0.89472 -1.07775,1.17939c-0.46092,0.27114 -0.97607,0.40671 -1.54544,0.40671c-0.89471,0 -1.61998,-0.30502 -2.17579,-0.91507c-0.54226,-0.62359 -0.8134,-1.4302 -0.8134,-2.41982v-10.45198c0,-0.81339 -0.14234,-1.5251 -0.42703,-2.13515c-0.27112,-0.61003 -0.67104,-1.09128 -1.19974,-1.44374c-0.5287,-0.35247 -1.15229,-0.5287 -1.87077,-0.5287c-0.79982,0 -1.46409,0.17623 -1.99279,0.5287c-0.5287,0.3389 -0.92184,0.81338 -1.17942,1.42342c-0.24401,0.61003 -0.36602,1.32852 -0.36602,2.15547v10.45198c0,0.65072 -0.12879,1.23364 -0.38637,1.74878c-0.25756,0.50159 -0.6168,0.89472 -1.07772,1.17939c-0.46092,0.27114 -0.97607,0.40671 -1.54544,0.40671c-0.89471,0 -1.61998,-0.30502 -2.17579,-0.91507c-0.54226,-0.62359 -0.8134,-1.4302 -0.8134,-2.41982z" fill="#ffffff" stroke="none" stroke-width="0.40889" stroke-linecap="butt"/><path d="M217.37746,131.54348v-15.983c0,-0.98962 0.27113,-1.78945 0.8134,-2.39947c0.55581,-0.62361 1.28107,-0.93541 2.17579,-0.93541c0.77272,0 1.39632,0.19657 1.8708,0.58971c0.48803,0.39314 0.78627,0.9354 0.89472,1.62677c1.16584,-1.64032 3.09085,-2.46048 5.77502,-2.46048c1.57254,0 2.98241,0.32535 4.22961,0.97605c1.24718,0.63715 2.22324,1.56577 2.92818,2.78584c0.70493,1.20653 1.0574,2.64351 1.0574,4.31096v11.48904c0,0.65072 -0.12879,1.23364 -0.38637,1.74878c-0.25758,0.50159 -0.61682,0.89472 -1.07772,1.17939c-0.46092,0.27114 -0.97607,0.40671 -1.54544,0.40671c-0.89473,0 -1.62,-0.30502 -2.17581,-0.91507c-0.54225,-0.62359 -0.81337,-1.4302 -0.81337,-2.41982v-10.45198c0,-1.34209 -0.36602,-2.35882 -1.09807,-3.05019c-0.7185,-0.70493 -1.66067,-1.0574 -2.82653,-1.0574c-0.78626,0 -1.47086,0.18301 -2.0538,0.54902c-0.58292,0.35247 -1.02349,0.83372 -1.32173,1.44377c-0.29825,0.61005 -0.44737,1.31498 -0.44737,2.1148v10.45198c0,0.65072 -0.12879,1.23364 -0.38637,1.74878c-0.25756,0.50159 -0.6168,0.89472 -1.07772,1.17939c-0.46092,0.27114 -0.97607,0.40671 -1.54544,0.40671c-0.89471,0 -1.61998,-0.30502 -2.17579,-0.91507c-0.54226,-0.62359 -0.8134,-1.4302 -0.8134,-2.41982z" fill="#ffffff" stroke="none" stroke-width="0.40889" stroke-linecap="butt"/><path d="M264.96171,131.92473v-13.80721h-1.34208c-0.78627,0 -1.41664,-0.23723 -1.89112,-0.7117c-0.48803,-0.48805 -0.73205,-1.13198 -0.73205,-1.93181c0,-0.74559 0.25079,-1.36918 0.75238,-1.87077c0.50159,-0.50159 1.12518,-0.75239 1.87078,-0.75239h1.34208v-3.57889c0,-0.98962 0.27113,-1.78945 0.81339,-2.39947c0.55581,-0.62359 1.28108,-0.93539 2.1758,-0.93539c0.58293,0 1.09807,0.14233 1.54543,0.427c0.46092,0.27114 0.82016,0.66428 1.07773,1.17942c0.25757,0.50159 0.38636,1.07774 0.38636,1.72844v3.57889h1.70811c0.82694,0 1.51154,0.21691 2.0538,0.65072c0.54226,0.42025 0.81338,1.07773 0.81338,1.97244c0,0.89473 -0.27113,1.55899 -0.81338,1.99279c-0.5287,0.43381 -1.2133,0.65072 -2.0538,0.65072h-1.70811v13.80721c0,0.6507 -0.12879,1.23362 -0.38636,1.74876c-0.25757,0.50159 -0.61682,0.89473 -1.07773,1.17942c-0.46092,0.27112 -0.97606,0.40669 -1.54543,0.40669c-0.89472,0 -1.61999,-0.30501 -2.1758,-0.91504c-0.54226,-0.62361 -0.81339,-1.43021 -0.81339,-2.41982z" fill="#ffffff" stroke="none" stroke-width="0.40889" stroke-linecap="butt"/><path d="M239.86105,126.75973v-10.81803c0,-0.9896 0.27113,-1.78943 0.81338,-2.39947c0.55581,-0.62359 1.28108,-0.93539 2.1758,-0.93539c0.58293,0 1.09807,0.14234 1.54543,0.42703c0.46092,0.27112 0.82016,0.66425 1.07774,1.17939c0.25757,0.50159 0.38636,1.07774 0.38636,1.72844v10.69601c0,1.1794 0.37958,2.12157 1.13874,2.8265c0.77271,0.70493 1.68099,1.0574 2.72484,1.0574c0.70493,0 1.34886,-0.14912 1.93179,-0.44735c0.58293,-0.3118 1.05062,-0.75916 1.40309,-1.3421c0.36602,-0.58292 0.54903,-1.28107 0.54903,-2.09446v-10.69601c0,-0.9896 0.27113,-1.78943 0.81338,-2.39947c0.55581,-0.62359 1.28108,-0.93539 2.1758,-0.93539c0.58293,0 1.09807,0.14234 1.54543,0.42703c0.46092,0.27112 0.82016,0.66425 1.07773,1.17939c0.25757,0.50159 0.38636,1.07774 0.38636,1.72844v10.81803c0,1.77588 -0.38636,3.32809 -1.15907,4.65661c-0.75916,1.31498 -1.89112,2.33171 -3.39588,3.05019c-1.49121,0.70493 -3.26709,1.0574 -5.32767,1.0574c-3.13153,0 -5.55813,-0.78627 -7.27979,-2.35881c-1.72166,-1.57254 -2.5825,-3.70767 -2.5825,-6.4054z" fill="#ffffff" stroke="none" stroke-width="0.40889" stroke-linecap="butt"/></g></g></svg>