<svg version="1.1" xmlns="http://www.w3.org/2000/svg" xmlns:xlink="http://www.w3.org/1999/xlink" width="80.13905" height="79.49276" viewBox="0,0,80.13905,79.49276"><defs><radialGradient cx="240.00001" cy="179.99999" r="32.79887" gradientUnits="userSpaceOnUse" id="color-1"><stop offset="0" stop-color="#000000"/><stop offset="1" stop-color="#000000" stop-opacity="0"/></radialGradient><linearGradient x1="215.331" y1="147.56216" x2="233.50623" y2="165.7374" gradientUnits="userSpaceOnUse" id="color-2"><stop offset="0" stop-color="#8b0000"/><stop offset="1" stop-color="#ff0000"/></linearGradient><linearGradient x1="215.331" y1="147.56216" x2="233.50623" y2="165.7374" gradientUnits="userSpaceOnUse" id="color-3"><stop offset="0" stop-color="#8b0000"/><stop offset="1" stop-color="#ff0000"/></linearGradient><linearGradient x1="215.331" y1="211.51321" x2="233.50623" y2="193.33797" gradientUnits="userSpaceOnUse" id="color-4"><stop offset="0" stop-color="#8b0000"/><stop offset="1" stop-color="#ff0000"/></linearGradient><linearGradient x1="264.72409" y1="179.71481" x2="216.71563" y2="179.71481" gradientUnits="userSpaceOnUse" id="color-5"><stop offset="0" stop-color="#000000"/><stop offset="1" stop-color="#ff0000"/></linearGradient><linearGradient x1="216.71563" y1="179.71481" x2="264.72409" y2="179.71481" gradientUnits="userSpaceOnUse" id="color-6"><stop offset="0" stop-color="#bf0000"/><stop offset="1" stop-color="#ff4040"/></linearGradient><linearGradient x1="244.11723" y1="180.16152" x2="267.6966" y2="180.16152" gradientUnits="userSpaceOnUse" id="color-7"><stop offset="0" stop-color="#e60000"/><stop offset="1" stop-color="#ff4040"/></linearGradient></defs><g transform="translate(-199.93057,-140.08695)"><g data-paper-data="{&quot;isPaintingLayer&quot;:true}" fill-rule="nonzero" stroke-linecap="butt" stroke-linejoin="miter" stroke-miterlimit="10" stroke-dasharray="" stroke-dashoffset="0" style="mix-blend-mode: normal"><path d="M216.40859,150.48457c0,0 15.95976,-6.19027 20.68836,-1.46167c4.7286,4.7286 5.35956,11.76422 1.40928,15.7145c-3.95028,3.95028 -10.98589,3.31932 -15.71449,-1.40928c-4.7286,-4.7286 -6.38314,-12.84355 -6.38314,-12.84355z" data-paper-data="{&quot;index&quot;:null}" fill="#ffffff" stroke="none" stroke-width="0"/><path d="M222.79173,195.74726c4.7286,-4.7286 11.76422,-5.35956 15.7145,-1.40928c3.95028,3.95028 3.31932,10.9859 -1.40928,15.7145c-4.7286,4.7286 -20.68836,-1.46167 -20.68836,-1.46167c0,0 1.65454,-8.11495 6.38314,-12.84355z" data-paper-data="{&quot;index&quot;:null}" fill="#ffffff" stroke="none" stroke-width="0"/><path d="M199.93057,219.57972v-79.49276h80.13905v79.49276z" fill="none" stroke="none" stroke-width="NaN"/><path d="M240.00001,212.79887c-18.11432,0 -32.79887,-14.68456 -32.79887,-32.79887c0,-18.11432 14.68456,-32.79887 32.79887,-32.79887c18.11432,0 32.79887,14.68456 32.79887,32.79887c0,18.11432 -14.68456,32.79887 -32.79887,32.79887z" data-paper-data="{&quot;index&quot;:null}" fill="url(#color-1)" stroke="#000000" stroke-width="0"/><path d="M211.40859,151.48457c0,0 15.95976,-6.19027 20.68836,-1.46167c4.7286,4.7286 5.35956,11.76422 1.40928,15.7145c-3.95028,3.95028 -10.98589,3.31932 -15.71449,-1.40928c-4.7286,-4.7286 -6.38314,-12.84355 -6.38314,-12.84355z" data-paper-data="{&quot;index&quot;:null}" fill="url(#color-2)" stroke="none" stroke-width="0"/><path d="M211.40859,151.48457c0,0 15.95976,-6.19027 20.68836,-1.46167c4.7286,4.7286 5.35956,11.76422 1.40928,15.7145c-3.95028,3.95028 -10.98589,3.31932 -15.71449,-1.40928c-4.7286,-4.7286 -6.38314,-12.84355 -6.38314,-12.84355z" data-paper-data="{&quot;index&quot;:null}" fill="url(#color-3)" stroke="none" stroke-width="0"/><path d="M218.90859,153.98457c0,0 15.95976,-6.19027 20.68836,-1.46167c4.7286,4.7286 5.35956,11.76422 1.40928,15.7145c-3.95028,3.95028 -10.98589,3.31932 -15.71449,-1.40928c-4.7286,-4.7286 -6.38314,-12.84355 -6.38314,-12.84355z" data-paper-data="{&quot;index&quot;:null}" fill="#000000" stroke="none" stroke-width="0"/><path d="M217.79173,194.74726c4.7286,-4.7286 11.76422,-5.35956 15.7145,-1.40928c3.95028,3.95028 3.31932,10.9859 -1.40928,15.7145c-4.7286,4.7286 -20.68836,-1.46167 -20.68836,-1.46167c0,0 1.65454,-8.11495 6.38314,-12.84355z" data-paper-data="{&quot;index&quot;:null}" fill="url(#color-4)" stroke="none" stroke-width="0"/><path d="M225.29173,192.24726c4.7286,-4.7286 11.76422,-5.35956 15.7145,-1.40928c3.95028,3.95028 3.31932,10.9859 -1.40928,15.7145c-4.7286,4.7286 -20.68836,-1.46167 -20.68836,-1.46167c0,0 1.65454,-8.11495 6.38314,-12.84355z" data-paper-data="{&quot;index&quot;:null}" fill="#000000" stroke="none" stroke-width="0"/><path d="M217.71563,179.71481c0,-17.3813 13.0786,-31.47164 26.27712,-31.47164c13.19852,0 21.73135,14.09034 21.73135,31.47164c0,17.3813 -9.1995,31.47164 -22.39802,31.47164c-13.19852,0 -25.61045,-14.09034 -25.61045,-31.47164z" data-paper-data="{&quot;index&quot;:null}" fill="#ffffff" stroke="none" stroke-width="0"/><path d="M216.71563,179.71481c0,-16.23607 13.0786,-29.39802 26.27712,-29.39802c13.19852,0 21.73135,13.16195 21.73135,29.39802c0,16.23608 -9.1995,29.39802 -22.39802,29.39802c-13.19852,0 -25.61045,-13.16195 -25.61045,-29.39802z" data-paper-data="{&quot;index&quot;:null}" fill="url(#color-5)" stroke="none" stroke-width="0"/><path d="M239.11365,207.11283c-13.19852,0 -22.39802,-12.26651 -22.39802,-27.39802c0,-15.13151 8.53284,-27.39802 21.73136,-27.39802c13.19852,0 26.27711,12.26651 26.27711,27.39802c0,15.13151 -12.41193,27.39802 -25.61045,27.39802z" data-paper-data="{&quot;index&quot;:null}" fill="url(#color-6)" stroke="none" stroke-width="0"/><path d="M258.24024,170.11701c2.49373,0 5.86877,1.74552 7.77358,2.87115c3.06874,1.81346 4.01612,3.75053 4.01612,7.17336c0,3.7963 -0.3477,5.29089 -3.99507,6.99877c-1.68244,0.78781 -5.73924,3.04575 -7.79463,3.04575c-6.51127,0 -11.78968,-4.49708 -11.78968,-10.04452c0,-5.54744 5.27842,-10.04451 11.78968,-10.04451z" data-paper-data="{&quot;index&quot;:null}" fill="#ffffff" stroke="none" stroke-width="0"/><path d="M255.90691,168.24977c2.49373,0 5.86877,2.07001 7.77358,3.40489c3.06874,2.15057 4.01612,4.44773 4.01612,8.50686c0,4.50202 -0.3477,6.27445 -3.99507,8.29982c-1.68244,0.93426 -5.73924,3.61194 -7.79463,3.61194c-6.51127,0 -11.78968,-5.33307 -11.78968,-11.91176c0,-6.57869 5.27842,-11.91175 11.78968,-11.91175z" data-paper-data="{&quot;index&quot;:null}" fill="url(#color-7)" stroke="none" stroke-width="0"/><path d="M257.91667,189.83334c0,4.78647 -7.41667,9.33333 -7.41667,9.33333c0,0 -2.75,-4.54686 -2.75,-9.33333c0,-4.78647 6.58334,-9.16667 6.58334,-9.16667c0,0 3.58333,4.3802 3.58333,9.16667z" fill="#ffffff" stroke="#ff0000" stroke-width="0"/><path d="M254.33334,179.16667c0,0 -6.58334,-4.38019 -6.58334,-9.16666c0,-4.78647 2.75,-9.33334 2.75,-9.33334c0,0 7.41667,4.54686 7.41667,9.33334c0,4.78647 -3.58333,9.16666 -3.58333,9.16666z" data-paper-data="{&quot;index&quot;:null}" fill="#ffffff" stroke="#ff0000" stroke-width="0"/><path d="M259.91667,190.16667l-2.16667,-10.50001l2.16667,-9.33333l3.83333,7l4.5,2.33333l-4.5,3z" fill="#000000" stroke="#ff0000" stroke-width="0"/><path d="M246.91667,170.66667l10.83334,-2.83333v4.5z" data-paper-data="{&quot;index&quot;:null}" fill="#000000" stroke="#ff0000" stroke-width="0"/><path d="M247.41667,190.5l10.83334,-2.83334v4.5z" data-paper-data="{&quot;index&quot;:null}" fill="#000000" stroke="#ff0000" stroke-width="0"/><path d="M247.24449,194.55191c-1.38343,4.06056 -4.80049,6.5702 -7.6322,5.60544c-2.83171,-0.96476 -4.00576,-5.03858 -2.62232,-9.09915c1.38343,-4.06056 4.80048,-6.57022 7.63218,-5.60546c2.83171,0.96476 4.00578,5.0386 2.62233,9.09917z" fill="#ff0000" stroke="none" stroke-width="0"/><path d="M246.63923,162.55585c1.91307,3.83956 1.29332,8.03365 -1.38428,9.36777c-2.67759,1.33412 -6.39905,-0.69694 -8.31212,-4.53651c-1.91307,-3.83956 -1.29332,-8.03365 1.38427,-9.36777c2.67759,-1.33412 6.39905,0.69695 8.31213,4.53651z" fill="#ff0000" stroke="none" stroke-width="0"/><path d="M239.16408,154.59389l4.8729,6.2504l4.71302,-4.84429l-2.5816,8.16983l7.79224,14.78389l-4.65829,-1.09413z" fill="#000000" stroke="#ff0000" stroke-width="0"/><path d="M249.30236,181.26056l4.80721,-0.75479l-7.94117,14.61122l2.5816,8.16983l-4.71302,-4.84429l-4.8729,6.2504z" data-paper-data="{&quot;index&quot;:null}" fill="#000000" stroke="#ff0000" stroke-width="0"/><path d="M223.41667,180.33334l8.83334,-5.5l11.66666,5.5l-11.5,4.33333z" fill="#000000" stroke="#ff0000" stroke-width="0"/><path d="M222.75,192.5l10.16666,-1.5l11.16667,-8l-9.16667,12.16666z" fill="#000000" stroke="#ff0000" stroke-width="0"/><path d="M234.91667,163.5l9.16667,12.16666l-11.16667,-8l-10.16666,-1.5z" data-paper-data="{&quot;index&quot;:null}" fill="#000000" stroke="#ff0000" stroke-width="0"/><path d="M219.41667,174.33334l9.16667,-4.5l-2.66667,4.5z" fill="#000000" stroke="#ff0000" stroke-width="0"/><path d="M225.91667,184.83334l2.66667,4.5l-9.16667,-4.5z" data-paper-data="{&quot;index&quot;:null}" fill="#000000" stroke="#ff0000" stroke-width="0"/></g></g></svg>