<svg version="1.1" xmlns="http://www.w3.org/2000/svg" xmlns:xlink="http://www.w3.org/1999/xlink" width="83.10836" height="101.87894" viewBox="0,0,83.10836,101.87894"><defs><linearGradient x1="240" y1="119.59505" x2="240" y2="221.47399" gradientUnits="userSpaceOnUse" id="color-1"><stop offset="0" stop-color="#000000" stop-opacity="0.28235"/><stop offset="1" stop-color="#000000" stop-opacity="0.73725"/></linearGradient></defs><g transform="translate(-198.44582,-119.59504)"><g data-paper-data="{&quot;isPaintingLayer&quot;:true}" fill-rule="nonzero" stroke-linejoin="miter" stroke-miterlimit="10" stroke-dasharray="" stroke-dashoffset="0" style="mix-blend-mode: normal"><path d="M202.85501,216.78923c-3.96098,-3.96058 -4.40919,-9.66661 -4.40919,-9.66661v-73.16859c0,0 0.51647,-5.91757 4.47809,-9.88089c3.96162,-3.96332 9.87475,-4.47809 9.87475,-4.47809h54.40269c0,0 5.48241,0.26004 9.46139,4.20252c3.97898,3.94248 4.89144,10.01866 4.89144,10.01866v73.47859c0,0 -0.71139,5.91862 -4.68476,9.76998c-3.97338,3.85136 -9.94365,4.40919 -9.94365,4.40919h-54.12711c0,0 -5.98267,-0.7242 -9.94365,-4.68477z" fill="url(#color-1)" stroke="#ff0000" stroke-width="0" stroke-linecap="butt"/><g fill="none" stroke="#ffffff" stroke-width="5"><path d="M225.20219,179.86851c0,-7.93543 6.43294,-14.36836 14.36836,-14.36836c7.93543,0 14.36836,6.43294 14.36836,14.36836c0,7.93543 -6.43294,14.36836 -14.36836,14.36836c-7.93543,0 -14.36836,-6.43294 -14.36836,-14.36836z" stroke-linecap="butt"/><path d="M256.74202,179.86851h7.88199" stroke-linecap="round"/><path d="M214.51708,179.86851h7.88199" stroke-linecap="round"/><path d="M239.57054,154.81506v7.88199" stroke-linecap="round"/><path d="M239.57054,197.04004v7.88199" stroke-linecap="round"/><path d="M251.71261,167.72649l5.57342,-5.57342" stroke-linecap="round"/><path d="M221.85506,197.58404l5.57342,-5.57342" stroke-linecap="round"/><path d="M221.85506,162.15301l5.57342,5.57342" stroke-linecap="round"/><path d="M251.71261,192.01062l5.57342,5.57342" stroke-linecap="round"/></g><text transform="translate(201.228,137.7181) scale(0.38772,0.38772)" font-size="40" xml:space="preserve" fill="#ffffff" fill-rule="nonzero" stroke="#ffffff" stroke-width="1.5" stroke-linecap="butt" stroke-linejoin="miter" stroke-miterlimit="10" stroke-dasharray="" stroke-dashoffset="0" font-family="Sans Serif" font-weight="normal" text-anchor="start" style="mix-blend-mode: normal"><tspan x="0" dy="0">オプション</tspan></text></g></g></svg>