<svg version="1.1" xmlns="http://www.w3.org/2000/svg" xmlns:xlink="http://www.w3.org/1999/xlink" width="79.49276" height="80.13905" viewBox="0,0,79.49276,80.13905"><defs><radialGradient cx="227.79907" cy="169.25934" r="20.59788" gradientUnits="userSpaceOnUse" id="color-1"><stop offset="0" stop-color="#000000" stop-opacity="0.29328"/><stop offset="1" stop-color="#000000" stop-opacity="0"/></radialGradient><radialGradient cx="253.23837" cy="191.00666" r="16.98283" gradientUnits="userSpaceOnUse" id="color-2"><stop offset="0" stop-color="#000000" stop-opacity="0.29328"/><stop offset="1" stop-color="#000000" stop-opacity="0"/></radialGradient><radialGradient cx="248.83217" cy="169.79007" r="20.59788" gradientUnits="userSpaceOnUse" id="color-3"><stop offset="0" stop-color="#000000" stop-opacity="0.29328"/><stop offset="1" stop-color="#000000" stop-opacity="0"/></radialGradient><linearGradient x1="211.30442" y1="180.00005" x2="264.83498" y2="180.00005" gradientUnits="userSpaceOnUse" id="color-4"><stop offset="0" stop-color="#ff6d6d"/><stop offset="1" stop-color="#ff1f1f"/></linearGradient><linearGradient x1="238.37866" y1="153.48449" x2="238.37866" y2="167.08695" gradientUnits="userSpaceOnUse" id="color-5"><stop offset="0" stop-color="#ffffff" stop-opacity="0.59677"/><stop offset="1" stop-color="#ffffff" stop-opacity="0"/></linearGradient><linearGradient x1="208.69922" y1="154.43146" x2="222.42621" y2="168.15844" gradientUnits="userSpaceOnUse" id="color-6"><stop offset="0" stop-color="#ffffff"/><stop offset="1" stop-color="#e70000"/></linearGradient></defs><g transform="translate(-200.25362,-139.93048)"><g data-paper-data="{&quot;isPaintingLayer&quot;:true}" fill-rule="nonzero" stroke-linejoin="miter" stroke-miterlimit="10" stroke-dasharray="" stroke-dashoffset="0" style="mix-blend-mode: normal"><path d="M227.79907,189.85723c-11.3759,0 -20.59788,-9.22199 -20.59788,-20.59788c0,-11.3759 9.22199,-20.59788 20.59788,-20.59788c11.3759,0 20.59788,9.22199 20.59788,20.59788c0,11.3759 -9.22199,20.59788 -20.59788,20.59788z" fill="url(#color-1)" stroke="#000000" stroke-width="0" stroke-linecap="butt"/><path d="M253.23837,207.98948c-9.37936,0 -16.98283,-7.60348 -16.98283,-16.98284c0,-9.37936 7.60348,-16.98283 16.98283,-16.98283c9.37936,0 16.98283,7.60347 16.98283,16.98283c0,9.37936 -7.60348,16.98284 -16.98283,16.98284z" fill="url(#color-2)" stroke="#000000" stroke-width="0" stroke-linecap="butt"/><path d="M248.83217,190.38796c-11.3759,0 -20.59788,-9.22199 -20.59788,-20.59789c0,-11.3759 9.22199,-20.59788 20.59788,-20.59788c11.3759,0 20.59788,9.22198 20.59788,20.59788c0,11.3759 -9.22199,20.59789 -20.59788,20.59789z" fill="url(#color-3)" stroke="#000000" stroke-width="0" stroke-linecap="butt"/><path d="M279.74638,220.06953h-79.49276v-80.13905h79.49276z" fill="none" stroke="none" stroke-width="NaN" stroke-linecap="butt"/><path d="M211.30442,180.00005c0,-14.78205 11.98322,-26.76528 26.76528,-26.76528c14.78206,0 26.76528,11.98323 26.76528,26.76528c0,14.78205 -11.98323,26.76528 -26.76528,26.76528c-0.43406,0 8.58952,-2.36624 8.19029,-13.48924c-0.47849,-13.33137 -8.2673,-12.92119 -8.2673,-12.92119c0,0 -6.42963,-0.03993 -12.97715,-0.01504c-6.79212,0.02582 -13.71111,0.10872 -13.71111,-0.33981z" fill="url(#color-4)" stroke="#ffffff" stroke-width="0" stroke-linecap="butt"/><path d="M213.64695,170.08935c-0.74821,-2.1018 6.81668,-17.14226 24.87255,-16.85039c16.11418,0.26048 24.63599,14.5412 24.12728,17.75616c-0.50871,3.21496 -16.17022,1.80371 -25.13552,1.58411c-8.93269,-0.2188 -23.11611,-0.38808 -23.86432,-2.48986z" data-paper-data="{&quot;index&quot;:null}" fill="url(#color-5)" stroke="#000000" stroke-width="0" stroke-linecap="butt"/><path d="M246.16393,190.6726c0,-2.44128 1.97905,-4.42033 4.42033,-4.42033c2.44128,0 4.42033,1.97905 4.42033,4.42033c0,2.44128 -1.97905,4.42033 -4.42033,4.42033c-2.44128,0 -4.42033,-1.97905 -4.42033,-4.42033z" fill="#000000" stroke="#000000" stroke-width="0" stroke-linecap="butt"/><path d="M246.21315,169.32741c0,-2.44128 1.97905,-4.42033 4.42033,-4.42033c2.44128,0 4.42033,1.97905 4.42033,4.42033c0,2.44128 -1.97905,4.42033 -4.42033,4.42033c-2.44128,0 -4.42033,-1.97905 -4.42033,-4.42033z" fill="#000000" stroke="#000000" stroke-width="0" stroke-linecap="butt"/><path d="M257.94723,170.84727v17.65348" fill="none" stroke="#000000" stroke-width="2" stroke-linecap="round"/><path d="M200.71611,162.86562l10.53265,0.5392l-2.78587,-8.50178l8.64715,2.07844l-0.20219,-10.75866l10.62046,13.40932c0,0 -2.17465,5.24568 -4.88913,8.28835c-2.86868,3.21552 -8.22709,5.19324 -8.22709,5.19324z" fill="url(#color-6)" stroke="#000000" stroke-width="0" stroke-linecap="butt"/></g></g></svg>