<svg version="1.1" xmlns="http://www.w3.org/2000/svg" xmlns:xlink="http://www.w3.org/1999/xlink" width="201.62781" height="114.56971" viewBox="0,0,201.62781,114.56971"><defs><radialGradient cx="240" cy="180" r="98.54449" gradientUnits="userSpaceOnUse" id="color-1"><stop offset="0" stop-color="#000000" stop-opacity="0.84706"/><stop offset="1" stop-color="#e6e6e6" stop-opacity="0.2902"/></radialGradient><radialGradient cx="208.94698" cy="180.98116" r="39.09091" gradientUnits="userSpaceOnUse" id="color-2"><stop offset="0" stop-color="#ff0000"/><stop offset="1" stop-color="#ff0000" stop-opacity="0.70196"/></radialGradient><radialGradient cx="274.4197" cy="185.27817" r="32.0303" gradientUnits="userSpaceOnUse" id="color-3"><stop offset="0" stop-color="#ff0000"/><stop offset="1" stop-color="#ff0000" stop-opacity="0.70196"/></radialGradient><radialGradient cx="181.50759" cy="139.7539" r="17.37273" gradientUnits="userSpaceOnUse" id="color-4"><stop offset="0" stop-color="#ff0000" stop-opacity="0.8"/><stop offset="1" stop-color="#ff0000" stop-opacity="0.45098"/></radialGradient><radialGradient cx="163.68941" cy="155.49329" r="10.24545" gradientUnits="userSpaceOnUse" id="color-5"><stop offset="0" stop-color="#ff0000" stop-opacity="0.8"/><stop offset="1" stop-color="#ff0000" stop-opacity="0.45098"/></radialGradient><radialGradient cx="244.61365" cy="146.45389" r="5.9394" gradientUnits="userSpaceOnUse" id="color-6"><stop offset="0" stop-color="#ff0000"/><stop offset="1" stop-color="#ff0000" stop-opacity="0.70196"/></radialGradient><radialGradient cx="326.31062" cy="197.90846" r="5.9394" gradientUnits="userSpaceOnUse" id="color-7"><stop offset="0" stop-color="#ff0000"/><stop offset="1" stop-color="#ff0000" stop-opacity="0.70196"/></radialGradient><radialGradient cx="178.22879" cy="211.4448" r="9.97878" gradientUnits="userSpaceOnUse" id="color-8"><stop offset="0" stop-color="#ff0000" stop-opacity="0.8"/><stop offset="1" stop-color="#ff0000" stop-opacity="0.45098"/></radialGradient><radialGradient cx="153.22879" cy="194.1115" r="16.31212" gradientUnits="userSpaceOnUse" id="color-9"><stop offset="0" stop-color="#ff0000" stop-opacity="0.8"/><stop offset="1" stop-color="#ff0000" stop-opacity="0.45098"/></radialGradient><radialGradient cx="217.37426" cy="226.59632" r="4.60304" gradientUnits="userSpaceOnUse" id="color-10"><stop offset="0" stop-color="#ff0000"/><stop offset="1" stop-color="#ff0000" stop-opacity="0.70196"/></radialGradient><radialGradient cx="147.37426" cy="212.263" r="4.60304" gradientUnits="userSpaceOnUse" id="color-11"><stop offset="0" stop-color="#ff0000"/><stop offset="1" stop-color="#ff0000" stop-opacity="0.70196"/></radialGradient><radialGradient cx="260.92274" cy="217.05393" r="19.89697" gradientUnits="userSpaceOnUse" id="color-12"><stop offset="0" stop-color="#ff0000" stop-opacity="0.8"/><stop offset="1" stop-color="#ff0000" stop-opacity="0.45098"/></radialGradient><radialGradient cx="292.6985" cy="137.11449" r="5.9394" gradientUnits="userSpaceOnUse" id="color-13"><stop offset="0" stop-color="#ff0000" stop-opacity="0.8"/><stop offset="1" stop-color="#ff0000" stop-opacity="0.45098"/></radialGradient><radialGradient cx="312.84698" cy="215.37816" r="10.54242" gradientUnits="userSpaceOnUse" id="color-14"><stop offset="0" stop-color="#ff0000" stop-opacity="0.8"/><stop offset="1" stop-color="#ff0000" stop-opacity="0.45098"/></radialGradient><radialGradient cx="304.84698" cy="157.71146" r="10.54242" gradientUnits="userSpaceOnUse" id="color-15"><stop offset="0" stop-color="#ff0000" stop-opacity="0.8"/><stop offset="1" stop-color="#ff0000" stop-opacity="0.45098"/></radialGradient><linearGradient x1="266.78211" y1="156.20828" x2="266.78211" y2="209.30003" gradientUnits="userSpaceOnUse" id="color-16"><stop offset="0" stop-color="#000000" stop-opacity="0.17255"/><stop offset="1" stop-color="#000000" stop-opacity="0.50196"/></linearGradient><linearGradient x1="223.07808" y1="156.66996" x2="223.07808" y2="208.87397" gradientUnits="userSpaceOnUse" id="color-17"><stop offset="0" stop-color="#000000" stop-opacity="0.17255"/><stop offset="1" stop-color="#000000" stop-opacity="0.50196"/></linearGradient><linearGradient x1="181.98798" y1="157.09612" x2="181.98798" y2="209.30008" gradientUnits="userSpaceOnUse" id="color-18"><stop offset="0" stop-color="#000000" stop-opacity="0.17255"/><stop offset="1" stop-color="#000000" stop-opacity="0.50196"/></linearGradient><linearGradient x1="308.75534" y1="156.46254" x2="308.75534" y2="209.09264" gradientUnits="userSpaceOnUse" id="color-19"><stop offset="0" stop-color="#000000" stop-opacity="0.17255"/><stop offset="1" stop-color="#000000" stop-opacity="0.50196"/></linearGradient></defs><g transform="translate(-136.91668,-122.38117)"><g data-paper-data="{&quot;isPaintingLayer&quot;:true}" fill-rule="nonzero" stroke="none" stroke-linecap="butt" stroke-linejoin="miter" stroke-miterlimit="10" stroke-dasharray="" stroke-dashoffset="0" style="mix-blend-mode: normal"><path d="M141.45552,206.68376l3.16667,-53.35711c0,0 0.70823,-8.11471 6.14077,-13.54959c5.43254,-5.43487 13.54118,-6.14077 13.54118,-6.14077l151.39173,3.16667c0,0 7.518,0.35658 12.97434,5.76288c5.45635,5.4063 6.70761,13.73853 6.70761,13.73853l3.16667,47.44885c0,0 -0.97551,8.11616 -6.42419,13.39751c-5.44868,5.28135 -13.63566,6.0463 -13.63566,6.0463l-157.34718,3.16667c0,0 -8.204,-0.99308 -13.63566,-6.42419c-5.43166,-5.43111 -6.04628,-13.25575 -6.04628,-13.25575z" data-paper-data="{&quot;index&quot;:null}" fill="url(#color-1)" stroke-width="0"/><g stroke-width="0"><path d="M208.94698,220.0721c-21.58931,0 -39.09091,-17.5016 -39.09091,-39.09091c0,-21.58931 17.5016,-39.09091 39.09091,-39.09091c21.58931,0 39.09091,17.50159 39.09091,39.09091c0,21.58931 -17.50159,39.09092 -39.09091,39.09092z" data-paper-data="{&quot;index&quot;:null}" fill="url(#color-2)"/><path d="M274.41971,217.30843c-17.68984,0 -32.03031,-14.34046 -32.03031,-32.03031c0,-17.68985 14.34046,-32.0303 32.03031,-32.0303c17.68984,0 32.0303,14.34046 32.0303,32.0303c0,17.68985 -14.34046,32.03031 -32.0303,32.03031z" data-paper-data="{&quot;index&quot;:null}" fill="url(#color-3)"/><path d="M164.13485,139.7539c0,-9.59469 7.77804,-17.37273 17.37273,-17.37273c9.59469,0 17.37273,7.77804 17.37273,17.37273c0,9.59469 -7.77804,17.37273 -17.37273,17.37273c-9.59469,0 -17.37273,-7.77804 -17.37273,-17.37273z" fill="url(#color-4)"/><path d="M153.44395,155.49329c0,-5.6584 4.58705,-10.24545 10.24545,-10.24545c5.6584,0 10.24545,4.58705 10.24545,10.24545c0,5.6584 -4.58705,10.24545 -10.24545,10.24545c-5.6584,0 -10.24545,-4.58705 -10.24545,-10.24545z" fill="url(#color-5)"/><path d="M238.67426,146.45389c0,-3.28024 2.65915,-5.9394 5.93939,-5.9394c3.28024,0 5.93939,2.65916 5.93939,5.9394c0,3.28024 -2.65915,5.9394 -5.93939,5.9394c-3.28024,0 -5.93939,-2.65916 -5.93939,-5.9394z" fill="url(#color-6)"/><path d="M320.37122,197.90846c0,-3.28024 2.65915,-5.93939 5.93939,-5.93939c3.28024,0 5.9394,2.65915 5.9394,5.93939c0,3.28024 -2.65916,5.9394 -5.9394,5.9394c-3.28024,0 -5.93939,-2.65916 -5.93939,-5.9394z" fill="url(#color-7)"/><path d="M168.25001,211.4448c0,-5.51114 4.46765,-9.97878 9.97878,-9.97878c5.51114,0 9.97878,4.46765 9.97878,9.97878c0,5.51114 -4.46765,9.97878 -9.97878,9.97878c-5.51114,0 -9.97878,-4.46765 -9.97878,-9.97878z" fill="url(#color-8)"/><path d="M136.91668,194.1115c0,-9.00894 7.30318,-16.31212 16.31212,-16.31212c9.00894,0 16.31212,7.30318 16.31212,16.31212c0,9.00894 -7.30318,16.31212 -16.31212,16.31212c-9.00894,0 -16.31212,-7.30318 -16.31212,-16.31212z" fill="url(#color-9)"/><path d="M212.77122,226.59632c0,-2.54218 2.06085,-4.60303 4.60303,-4.60303c2.54218,0 4.60304,2.06085 4.60304,4.60303c0,2.54218 -2.06086,4.60303 -4.60304,4.60303c-2.54218,0 -4.60303,-2.06085 -4.60303,-4.60303z" fill="url(#color-10)"/><path d="M142.77122,212.263c0,-2.54218 2.06085,-4.60303 4.60303,-4.60303c2.54218,0 4.60304,2.06085 4.60304,4.60303c0,2.54218 -2.06086,4.60303 -4.60304,4.60303c-2.54218,0 -4.60303,-2.06085 -4.60303,-4.60303z" fill="url(#color-11)"/><path d="M241.02577,217.05393c0,-10.9888 8.90817,-19.89696 19.89696,-19.89696c10.98879,0 19.89697,8.90817 19.89697,19.89696c0,10.9888 -8.90818,19.89696 -19.89697,19.89696c-10.98879,0 -19.89696,-8.90817 -19.89696,-19.89696z" fill="url(#color-12)"/><path d="M286.75911,137.11449c0,-3.28024 2.65915,-5.9394 5.93939,-5.9394c3.28024,0 5.9394,2.65916 5.9394,5.9394c0,3.28024 -2.65916,5.9394 -5.9394,5.9394c-3.28024,0 -5.93939,-2.65916 -5.93939,-5.9394z" fill="url(#color-13)"/><path d="M302.30456,215.37816c0,-5.82242 4.72,-10.54242 10.54242,-10.54242c5.82242,0 10.54242,4.72 10.54242,10.54242c0,5.82242 -4.72,10.54242 -10.54242,10.54242c-5.82242,0 -10.54242,-4.72 -10.54242,-10.54242z" fill="url(#color-14)"/><path d="M294.30456,157.71146c0,-5.82242 4.72,-10.54242 10.54242,-10.54242c5.82242,0 10.54242,4.72 10.54242,10.54242c0,5.82242 -4.72,10.54242 -10.54242,10.54242c-5.82242,0 -10.54242,-4.72 -10.54242,-10.54242z" fill="url(#color-15)"/></g><g stroke-width="0.40889"><path d="M244.51551,201.80683l14.63131,-39.56135c0.68659,-1.82299 1.70461,-3.27902 3.05412,-4.36809c1.37317,-1.11274 2.94757,-1.66911 4.72321,-1.66911c1.87035,0 3.46842,0.54454 4.79424,1.63359c1.3495,1.08906 2.34386,2.55693 2.98309,4.4036l14.27618,39.56135c0.3788,1.04171 0.56822,1.94138 0.56822,2.69898c0,0.92333 -0.23674,1.75198 -0.71025,2.4859c-0.44982,0.73393 -1.05355,1.30214 -1.81116,1.70463c-0.7576,0.40247 -1.58625,0.6037 -2.4859,0.6037c-2.69898,0 -4.47462,-1.25479 -5.32693,-3.76435l-2.16628,-6.85398h-20.20683l-2.2018,6.78296c-0.80497,2.55693 -2.54509,3.83538 -5.2204,3.83538c-1.49153,0 -2.77001,-0.48533 -3.8354,-1.45601c-1.04171,-0.99436 -1.56256,-2.2018 -1.56256,-3.62232c0,-0.68657 0.16572,-1.49153 0.49717,-2.41487zM266.85312,167.57241l-6.88949,21.09466h13.81451l-6.78296,-21.09466z" fill="url(#color-16)"/><path d="M208.53555,202.90774v-40.59123c0,-1.75196 0.50902,-3.12514 1.52704,-4.11949c1.04171,-1.01805 2.35568,-1.52705 3.94193,-1.52705c1.60993,0 2.91208,0.49717 3.90644,1.49153c1.01803,0.97068 1.52704,2.35568 1.52704,4.15501v36.50726h12.96222c1.75196,0 3.0541,0.53269 3.90639,1.59808c0.87599,1.04171 1.31399,2.26099 1.31399,3.65784c-0.07115,1.27847 -0.58016,2.40305 -1.52704,3.37373c-0.94702,0.94702 -2.17814,1.42052 -3.69334,1.42052h-18.1826c-1.75198,0 -3.137,-0.53269 -4.15503,-1.59808c-1.01803,-1.08906 -1.52704,-2.54509 -1.52704,-4.36809z" fill="url(#color-17)"/><path d="M163.39694,203.65352v-40.87534c0,-1.75196 0.49719,-3.13696 1.49155,-4.15501c0.99436,-1.01803 2.39122,-1.52705 4.19055,-1.52705h12.85567c3.48026,0 6.65273,0.73393 9.51745,2.2018c2.88838,1.44419 5.12571,3.4921 6.71193,6.14373c1.60993,2.62796 2.41489,5.6347 2.41489,9.02027c0,2.62796 -0.48535,5.01916 -1.45603,7.1736c-0.94702,2.13078 -2.24917,3.94193 -3.90644,5.43348c-1.63359,1.49153 -3.56311,2.63979 -5.7886,3.44476c-2.22549,0.80497 -4.56933,1.20744 -7.03153,1.20744h-8.09694v11.93233c0,1.79933 -0.50903,3.19615 -1.52707,4.19052c-0.99434,0.97068 -2.29647,1.45601 -3.90639,1.45601c-1.58625,0 -2.90022,-0.49717 -3.94193,-1.49153c-1.01806,-1.01805 -1.52707,-2.40305 -1.52707,-4.15501zM174.29946,166.6846v15.41259h7.42219c2.22549,0 4.0248,-0.7221 5.39794,-2.16628c1.39683,-1.44419 2.09525,-3.29086 2.09525,-5.54001c0,-1.44419 -0.30777,-2.74632 -0.92333,-3.90642c-0.61556,-1.18376 -1.49153,-2.1071 -2.62793,-2.77001c-1.1364,-0.68659 -2.45037,-1.02987 -3.94193,-1.02987z" fill="url(#color-18)"/><path d="M303.28632,203.80118v-19.42553l-13.74348,-19.35456c-0.6629,-0.947 -0.99436,-2.03605 -0.99436,-3.26716c0,-1.46787 0.48535,-2.7108 1.45603,-3.72883c0.99436,-1.04171 2.24915,-1.56256 3.76437,-1.56256c2.01241,0 3.51578,0.7221 4.51015,2.16626l10.4763,15.19953l10.4763,-15.19953c0.97068,-1.44418 2.47408,-2.16626 4.51015,-2.16626c1.51522,0 2.75817,0.52085 3.72885,1.56256c0.99436,1.01803 1.49153,2.26098 1.49153,3.72883c0,1.23111 -0.33146,2.32018 -0.99436,3.26716l-13.77901,19.35456v19.42553c0,1.49155 -0.46167,2.74634 -1.385,3.76437c-0.89966,1.01806 -2.24915,1.52707 -4.04846,1.52707c-1.82299,0 -3.19615,-0.50903 -4.11951,-1.52707c-0.89966,-1.01803 -1.34948,-2.27281 -1.34948,-3.76437z" fill="url(#color-19)"/></g><g fill="#ffffff" stroke-width="0.40889"><path d="M239.83597,197.55271l14.63131,-39.56135c0.68659,-1.82299 1.70461,-3.27902 3.05412,-4.36809c1.37317,-1.11274 2.94757,-1.66911 4.72321,-1.66911c1.87035,0 3.46842,0.54454 4.79424,1.63359c1.3495,1.08906 2.34386,2.55693 2.98309,4.4036l14.27618,39.56135c0.3788,1.04171 0.56822,1.94138 0.56822,2.69898c0,0.92333 -0.23674,1.75198 -0.71025,2.4859c-0.44982,0.73393 -1.05355,1.30214 -1.81116,1.70463c-0.7576,0.40247 -1.58625,0.6037 -2.4859,0.6037c-2.69898,0 -4.47462,-1.25479 -5.32693,-3.76435l-2.16628,-6.85398h-20.20683l-2.2018,6.78296c-0.80497,2.55693 -2.54509,3.83538 -5.2204,3.83538c-1.49153,0 -2.77001,-0.48533 -3.8354,-1.45601c-1.04171,-0.99436 -1.56256,-2.2018 -1.56256,-3.62232c0,-0.68657 0.16572,-1.49153 0.49717,-2.41487zM262.17359,163.31829l-6.88949,21.09466h13.81451l-6.78296,-21.09466z"/><path d="M203.85601,198.65362v-40.59123c0,-1.75196 0.50902,-3.12514 1.52704,-4.11949c1.04171,-1.01805 2.35568,-1.52705 3.94193,-1.52705c1.60993,0 2.91208,0.49717 3.90644,1.49153c1.01803,0.97068 1.52704,2.35568 1.52704,4.15501v36.50726h12.96222c1.75196,0 3.0541,0.53269 3.90639,1.59808c0.87599,1.04171 1.31399,2.26099 1.31399,3.65784c-0.07115,1.27847 -0.58016,2.40305 -1.52704,3.37373c-0.94702,0.94702 -2.17814,1.42052 -3.69334,1.42052h-18.1826c-1.75198,0 -3.137,-0.53269 -4.15503,-1.59808c-1.01803,-1.08906 -1.52704,-2.54509 -1.52704,-4.36809z"/><path d="M158.71741,199.39941v-40.87534c0,-1.75196 0.49719,-3.13696 1.49155,-4.15501c0.99436,-1.01803 2.39122,-1.52705 4.19055,-1.52705h12.85567c3.48026,0 6.65273,0.73393 9.51745,2.2018c2.88838,1.44419 5.12571,3.4921 6.71193,6.14373c1.60993,2.62796 2.41489,5.6347 2.41489,9.02027c0,2.62796 -0.48535,5.01916 -1.45603,7.1736c-0.94702,2.13078 -2.24917,3.94193 -3.90644,5.43348c-1.63359,1.49153 -3.56311,2.63979 -5.7886,3.44476c-2.22549,0.80497 -4.56933,1.20744 -7.03153,1.20744h-8.09694v11.93233c0,1.79933 -0.50903,3.19615 -1.52707,4.19052c-0.99434,0.97068 -2.29647,1.45601 -3.90639,1.45601c-1.58625,0 -2.90022,-0.49717 -3.94193,-1.49153c-1.01806,-1.01805 -1.52707,-2.40305 -1.52707,-4.15501zM169.61991,162.43043v15.41259h7.42219c2.22549,0 4.0248,-0.7221 5.39794,-2.16628c1.39683,-1.44419 2.09525,-3.29086 2.09525,-5.54001c0,-1.44419 -0.30777,-2.74632 -0.92333,-3.90642c-0.61556,-1.18376 -1.49153,-2.1071 -2.62793,-2.77001c-1.1364,-0.68659 -2.45037,-1.02987 -3.94193,-1.02987z"/><path d="M298.60679,199.54706v-19.42553l-13.74348,-19.35456c-0.6629,-0.947 -0.99436,-2.03605 -0.99436,-3.26716c0,-1.46787 0.48535,-2.7108 1.45603,-3.72883c0.99436,-1.04171 2.24915,-1.56256 3.76437,-1.56256c2.01241,0 3.51578,0.7221 4.51015,2.16626l10.4763,15.19953l10.4763,-15.19953c0.97068,-1.44418 2.47408,-2.16626 4.51015,-2.16626c1.51522,0 2.75817,0.52085 3.72885,1.56256c0.99436,1.01803 1.49153,2.26098 1.49153,3.72883c0,1.23111 -0.33146,2.32018 -0.99436,3.26716l-13.77901,19.35456v19.42553c0,1.49155 -0.46167,2.74634 -1.385,3.76437c-0.89966,1.01806 -2.24915,1.52707 -4.04846,1.52707c-1.82299,0 -3.19615,-0.50903 -4.11951,-1.52707c-0.89966,-1.01803 -1.34948,-2.27281 -1.34948,-3.76437z"/></g></g></g></svg>