<svg version="1.1" xmlns="http://www.w3.org/2000/svg" xmlns:xlink="http://www.w3.org/1999/xlink" width="173.03516" height="80.12591" viewBox="0,0,173.03516,80.12591"><defs><linearGradient x1="125.85637" y1="207.30567" x2="179.37123" y2="207.30567" gradientUnits="userSpaceOnUse" id="color-1"><stop offset="0" stop-color="#ffffff"/><stop offset="1" stop-color="#dcd0e8"/></linearGradient><linearGradient x1="194.96601" y1="175.02879" x2="189.33045" y2="231.23281" gradientUnits="userSpaceOnUse" id="color-2"><stop offset="0" stop-color="#ffffff"/><stop offset="1" stop-color="#dcd0e8"/></linearGradient><linearGradient x1="42.65578" y1="207.08034" x2="74.26178" y2="207.08034" gradientUnits="userSpaceOnUse" id="color-3"><stop offset="0" stop-color="#ffffff"/><stop offset="1" stop-color="#dcd0e8"/></linearGradient><linearGradient x1="140.61356" y1="169.94455" x2="136.14988" y2="229.33182" gradientUnits="userSpaceOnUse" id="color-4"><stop offset="0" stop-color="#f6f3f9"/><stop offset="1" stop-color="#e7def0"/></linearGradient><linearGradient x1="141.54234" y1="160.5471" x2="157.25955" y2="183.08135" gradientUnits="userSpaceOnUse" id="color-5"><stop offset="0" stop-color="#636363"/><stop offset="1" stop-color="#000000"/></linearGradient><linearGradient x1="148.55594" y1="209.31467" x2="202.67195" y2="209.31467" gradientUnits="userSpaceOnUse" id="color-6"><stop offset="0" stop-color="#ffffff"/><stop offset="1" stop-color="#dcd0e8"/></linearGradient><linearGradient x1="84.24016" y1="182.48493" x2="84.24016" y2="220.08824" gradientUnits="userSpaceOnUse" id="color-7"><stop offset="0" stop-color="#636363"/><stop offset="1" stop-color="#000000"/></linearGradient><linearGradient x1="73.04187" y1="194.89503" x2="117.56264" y2="239.4158" gradientUnits="userSpaceOnUse" id="color-8"><stop offset="0" stop-color="#ffffff"/><stop offset="1" stop-color="#e9e0f2"/></linearGradient><linearGradient x1="73.36165" y1="217.07017" x2="73.36165" y2="221.61934" gradientUnits="userSpaceOnUse" id="color-9"><stop offset="0" stop-color="#ffffff"/><stop offset="1" stop-color="#000000"/></linearGradient><linearGradient x1="99.18877" y1="204.51727" x2="99.18877" y2="216.48775" gradientUnits="userSpaceOnUse" id="color-10"><stop offset="0" stop-color="#000000"/><stop offset="1" stop-color="#636363"/></linearGradient><linearGradient x1="92.24315" y1="215.48838" x2="130.08804" y2="215.48838" gradientUnits="userSpaceOnUse" id="color-11"><stop offset="0" stop-color="#ffffff"/><stop offset="1" stop-color="#eae2f1"/></linearGradient><linearGradient x1="122.59717" y1="186.23226" x2="130.81408" y2="218.06856" gradientUnits="userSpaceOnUse" id="color-12"><stop offset="0" stop-color="#ffffff"/><stop offset="1" stop-color="#dcd0e8"/></linearGradient><linearGradient x1="130.98272" y1="191.34757" x2="130.98272" y2="204.48967" gradientUnits="userSpaceOnUse" id="color-13"><stop offset="0" stop-color="#000000"/><stop offset="1" stop-color="#000000" stop-opacity="0"/></linearGradient><linearGradient x1="128.4554" y1="204.48967" x2="128.4554" y2="209.79705" gradientUnits="userSpaceOnUse" id="color-14"><stop offset="0" stop-color="#000000"/><stop offset="1" stop-color="#000000" stop-opacity="0"/></linearGradient><linearGradient x1="136.2901" y1="204.74237" x2="136.2901" y2="213.58799" gradientUnits="userSpaceOnUse" id="color-15"><stop offset="0" stop-color="#000000"/><stop offset="1" stop-color="#000000" stop-opacity="0"/></linearGradient><linearGradient x1="138.69106" y1="197.66589" x2="138.69106" y2="204.2369" gradientUnits="userSpaceOnUse" id="color-16"><stop offset="0" stop-color="#000000"/><stop offset="1" stop-color="#000000" stop-opacity="0"/></linearGradient></defs><g transform="translate(-45.94132,-172.23601)"><g data-paper-data="{&quot;isPaintingLayer&quot;:true}" fill-rule="nonzero" stroke-linejoin="miter" stroke-miterlimit="10" stroke-dasharray="" stroke-dashoffset="0" style="mix-blend-mode: normal"><path d="M134.25427,236.13017l-4.86582,-4.91242l2.50246,-5.46394l15.24217,-4.59139l-17.22083,-6.4229l-4.05588,-11.74107l3.63328,-16.83817l16.6982,-7.67915l21.87697,4.78946l11.30641,16.87016l-0.54358,14.90187l-6.26367,6.84115l2.56053,6.08146l-24.94661,7.68014z" fill="url(#color-1)" stroke="none" stroke-width="0" stroke-linecap="butt"/><path d="M156.96468,195.71518l3.67033,-16.91347l14.15276,-5.79622l20.74557,6.73603l13.79922,10.89218l8.89348,14.53624l0.75045,18.139l-12.26172,12.08372l0.62183,-16.37454l-19.07745,-13.07924z" data-paper-data="{&quot;index&quot;:null}" fill="url(#color-2)" stroke="none" stroke-width="0" stroke-linecap="butt"/><path d="M47.96317,244.32207l-2.02185,-8.84563l4.80953,-7.04076l23.39556,-6.48475l15.75864,-16.85792l15.98492,-0.46001l-5.30367,21.6868l-18.56952,15.7885l-21.17106,4.05546z" fill="url(#color-3)" stroke="none" stroke-width="0" stroke-linecap="butt"/><path d="M142.26534,229.79151l-30.02708,-3.9454l-30.03477,-27.29638l35.54636,-21.82752l33.57418,-4.4862l22.30421,0.47618l10.30849,8.27656l10.82217,17.09085l-22.95839,26.80628z" fill="url(#color-4)" stroke="none" stroke-width="0" stroke-linecap="butt"/><path d="M140.33305,179.75849l-7.43281,-4.98552l13.21987,-2.31682l21.14066,0.11067l-11.82494,7.97537z" fill="url(#color-5)" stroke="none" stroke-width="0" stroke-linecap="butt"/><path d="M157.04819,240.26383l-4.92048,-5.2212l2.53057,-5.80739l15.4134,-4.87999l-17.41429,-6.82662l-4.10144,-12.47908l3.6741,-17.89657l16.88578,-10.26361l22.12273,7.19229l11.43342,17.93057l-0.54969,15.83856l-6.33403,7.27116l2.58929,6.46372l-23.89855,10.4982z" fill="url(#color-6)" stroke="none" stroke-width="0" stroke-linecap="butt"/><path d="M66.24149,208.3071l3.37419,-13.94016l18.96986,-11.882l11.87022,0.34828l1.78307,22.88054l-17.9195,14.3745z" fill="url(#color-7)" stroke="none" stroke-width="0" stroke-linecap="butt"/><path d="M65.52695,242.59614l-6.20064,-13.99685l3.16785,-11.78184l10.33309,-2.76257l-1.46915,-13.61349l7.71355,-11.57615l21.29738,-7.14385l22.1245,4.75556l13.90891,16.19356l-7.03146,24.93694l-10.2648,8.41767l-17.0313,9.67442l-16.87274,1.37244z" fill="url(#color-8)" stroke="none" stroke-width="0" stroke-linecap="butt"/><path d="M80.75407,216.69106l2.27459,9.47746l-9.85656,2.65369l-9.09836,-2.65369l2.27459,-9.47746z" data-paper-data="{&quot;index&quot;:null}" fill="#000000" stroke="none" stroke-width="0" stroke-linecap="butt"/><path d="M67.10653,221.61934l0.7582,-4.54918h10.99385l-0.7582,4.54918z" fill="url(#color-9)" stroke="none" stroke-width="0" stroke-linecap="butt"/><path d="M109.44936,209.10492l-3.20467,7.38283l-12.29183,-0.48004l-5.02468,-6.7077l6.7017,-4.65553z" data-paper-data="{&quot;index&quot;:null}" fill="url(#color-10)" stroke="none" stroke-width="0" stroke-linecap="butt"/><path d="M83.07329,209.31356l-1.78647,1.91898l-4.77509,0.64144l-2.94332,-2.2361l6.37575,-1.66535z" data-paper-data="{&quot;index&quot;:null}" fill="#000000" stroke="none" stroke-width="0" stroke-linecap="butt"/><path d="M73.1721,226.54766l0.50546,7.07651" fill="none" stroke="#000000" stroke-width="1.5" stroke-linecap="round"/><path d="M92.41175,250.71314l-0.88326,-7.79753l10.08646,-9.65796l27.04885,-7.67595l-0.69106,-8.82137l14.41401,-0.52847l12.46386,21.74702l-23.82894,10.90801l-11.27932,3.47503z" fill="url(#color-11)" stroke="none" stroke-width="0" stroke-linecap="butt"/><g stroke="none" stroke-width="0" stroke-linecap="butt"><path d="M117.33043,217.67984l-8.97741,-20.89623l7.5302,-10.38282l20.89626,4.24121l8.6549,10.92647l-4.98989,14.01455z" data-paper-data="{&quot;index&quot;:null}" fill="url(#color-12)"/><path d="M126.05445,198.67682l5.05465,-7.32924l4.80191,5.30738l-5.30738,7.8347z" data-paper-data="{&quot;index&quot;:null}" fill="url(#color-13)"/><path d="M125.29624,209.79705l2.27459,-5.30738l4.04371,5.30738z" fill="url(#color-14)"/><path d="M132.12001,213.08254l0.50547,-6.06557l4.34181,1.30756l3.4929,-3.58215l-0.56646,6.09172l-2.97178,2.75391z" fill="url(#color-15)"/><path d="M135.40553,204.2369l4.80191,-6.57103l1.76912,4.80192z" fill="url(#color-16)"/></g></g></g></svg>