<svg version="1.1" xmlns="http://www.w3.org/2000/svg" xmlns:xlink="http://www.w3.org/1999/xlink" width="67.56235" height="67.01748" viewBox="0,0,67.56235,67.01748"><defs><radialGradient cx="240.20004" cy="179.99999" r="32.79887" gradientUnits="userSpaceOnUse" id="color-1"><stop offset="0" stop-color="#000000"/><stop offset="1" stop-color="#000000" stop-opacity="0"/></radialGradient><radialGradient cx="239.79999" cy="180" r="25.3" gradientUnits="userSpaceOnUse" id="color-2"><stop offset="0" stop-color="#c20000"/><stop offset="1" stop-color="#920000"/></radialGradient><radialGradient cx="239.69998" cy="180.2" r="35.36591" gradientUnits="userSpaceOnUse" id="color-3"><stop offset="0" stop-color="#a80000"/><stop offset="1" stop-color="#770000"/></radialGradient><linearGradient x1="241.6356" y1="179.67528" x2="259.55155" y2="179.67528" gradientUnits="userSpaceOnUse" id="color-4"><stop offset="0" stop-color="#000000"/><stop offset="1" stop-color="#eb0000"/></linearGradient><linearGradient x1="247.15437" y1="180.29384" x2="259.20891" y2="180.2358" gradientUnits="userSpaceOnUse" id="color-5"><stop offset="0" stop-color="#96000c"/><stop offset="1" stop-color="#ac0505"/></linearGradient><linearGradient x1="247.15437" y1="180.29384" x2="259.20891" y2="180.2358" gradientUnits="userSpaceOnUse" id="color-6"><stop offset="0" stop-color="#d30000"/><stop offset="1" stop-color="#e60000"/></linearGradient><radialGradient cx="173.19998" cy="164.4" r="27" gradientUnits="userSpaceOnUse" id="color-7"><stop offset="0" stop-color="#c20000"/><stop offset="1" stop-color="#920000"/></radialGradient><linearGradient x1="253.30017" y1="180.48849" x2="268.9732" y2="180.48849" gradientUnits="userSpaceOnUse" id="color-8"><stop offset="0" stop-color="#000000"/><stop offset="1" stop-color="#a30000"/></linearGradient><linearGradient x1="212.95326" y1="179.608" x2="256.1732" y2="179.608" gradientUnits="userSpaceOnUse" id="color-9"><stop offset="0" stop-color="#000000"/><stop offset="1" stop-color="#a30000"/></linearGradient></defs><g transform="translate(-206.21884,-146.49126)"><g data-paper-data="{&quot;isPaintingLayer&quot;:true}" fill-rule="nonzero" stroke-linecap="butt" stroke-linejoin="miter" stroke-miterlimit="10" stroke-dasharray="" stroke-dashoffset="0" style="mix-blend-mode: normal"><path d="M206.21884,213.50874v-67.01748h67.56235v67.01748z" fill="none" stroke="none" stroke-width="NaN"/><path d="M240.20004,212.79887c-18.11432,0 -32.79887,-14.68456 -32.79887,-32.79887c0,-18.11432 14.68456,-32.79887 32.79887,-32.79887c18.11432,0 32.79887,14.68456 32.79887,32.79887c0,18.11432 -14.68456,32.79887 -32.79887,32.79887z" fill="url(#color-1)" stroke="#000000" stroke-width="0"/><path d="M265.09999,180c0,14.40216 -11.3272,26.07742 -25.3,26.07742c-13.9728,0 -25.3,-11.67526 -25.3,-26.07742c0,-14.40216 11.3272,-26.07742 25.3,-26.07742c13.9728,0 25.3,11.67526 25.3,26.07742z" fill="url(#color-2)" stroke="none" stroke-width="0"/><path d="M264.39998,180.2c0,13.80712 -11.05857,25 -24.7,25c-13.64143,0 -24.7,-11.19288 -24.7,-25c0,-13.80712 11.05857,-25 24.7,-25c13.64143,0 24.7,11.19288 24.7,25z" fill="url(#color-3)" stroke="none" stroke-width="0"/><path d="M245.9262,156.06466c9.31847,0 13.62535,10.87858 13.62535,24.0977c0,13.21912 -3.49507,23.12353 -12.81354,23.12353c-7.63027,0 -4.93264,-30.36232 -3.11646,-41.83428c0.40183,-2.53818 2.30465,-5.38695 2.30465,-5.38695z" fill="url(#color-4)" stroke="#000000" stroke-width="0"/><path d="M256.54701,189.30569c-0.94521,3.46651 -2.60115,6.45066 -2.60115,6.45066c0,0 -4.34727,-2.12231 -7.06572,-6.06021c-1.90897,-2.7653 -2.47819,-7.13042 -2.48838,-9.24677c-0.00971,-2.017 0.49256,-5.55724 2.17929,-8.25123c2.74793,-4.38891 7.22402,-7.75833 7.22402,-7.75833c0,0 2.43059,4.83187 3.48738,10.03587c0.37203,1.83201 0.73763,4.64254 0.74423,6.01456c0.0116,2.41015 -0.65348,5.7854 -1.47967,8.81544z" data-paper-data="{&quot;index&quot;:null}" fill="#ffd3d3" stroke="#000000" stroke-width="0"/><path d="M253.14449,172.55135c3.32877,-0.01603 5.6439,3.42441 5.66441,7.68444c0.02051,4.26003 -2.26136,7.72646 -5.59013,7.74249c-3.32877,0.01603 -6.0439,-3.42442 -6.06442,-7.68445c-0.02051,-4.26003 2.66136,-7.72646 5.99013,-7.74249z" fill="url(#color-5)" stroke="url(#color-6)" stroke-width="2.5"/><path d="M256.6614,180.52577l-2.82639,2.92732l-3.04677,-3.04758l3.21004,-2.90744z" data-paper-data="{&quot;index&quot;:null}" fill="#ffffff" stroke="#ffffff" stroke-width="2.5"/><path d="" fill="url(#color-7)" stroke="none" stroke-width="0"/><path d="M253.30017,203.08849c0,0 5.2,-15.64876 5.2,-23.61614c0,-7.05462 -4.4,-21.58386 -4.4,-21.58386c0,0 14.79276,13.69731 14.87257,21.35395c0.09862,9.46187 -15.67257,23.84605 -15.67257,23.84605z" data-paper-data="{&quot;index&quot;:null}" fill="url(#color-8)" stroke="none" stroke-width="0"/><path d="M256.1732,160.28849c0,0 -6.92544,3.66995 -10.75934,9.74554c-2.15622,3.41694 -3.04066,7.29893 -3.04066,9.83832c0,1.63772 0.45632,4.16621 1.18138,6.19672c2.80226,7.84771 11.41862,15.41942 11.41862,15.41942c0,0 -1.23793,1.48381 -3.10868,2.08999c-2.63646,0.8543 -6.52978,1.75164 -9.98619,2.08035c-5.40196,0.51372 -11.17539,-0.71286 -15.01607,-2.69694c-3.84068,-1.98408 -13.03342,-11.08608 -13.67599,-19.95932c-0.68576,-9.46958 -0.08825,-11.58888 4.95256,-18.76274c5.04081,-7.17386 9.81424,-7.57461 13.03264,-9.3014c3.2184,-1.72679 9.52689,-1.9509 14.74845,-0.72491c6.26406,1.47076 9.45329,4.27497 9.45329,4.27497z" data-paper-data="{&quot;index&quot;:null}" fill="url(#color-9)" stroke="none" stroke-width="0"/></g></g></svg>