<svg version="1.1" xmlns="http://www.w3.org/2000/svg" xmlns:xlink="http://www.w3.org/1999/xlink" width="202.00213" height="110.18925" viewBox="0,0,202.00213,110.18925"><defs><linearGradient x1="240" y1="140.42903" x2="240" y2="215.62694" gradientUnits="userSpaceOnUse" id="color-1"><stop offset="0" stop-color="#000000" stop-opacity="0.44314"/><stop offset="1" stop-color="#000000" stop-opacity="0.83137"/></linearGradient><radialGradient cx="158.94037" cy="149.36294" r="22.40178" gradientUnits="userSpaceOnUse" id="color-2"><stop offset="0" stop-color="#000000" stop-opacity="0.50196"/><stop offset="1" stop-color="#000000" stop-opacity="0"/></radialGradient></defs><g transform="translate(-136.53778,-126.96037)"><g data-paper-data="{&quot;isPaintingLayer&quot;:true}" fill-rule="nonzero" stroke-linejoin="miter" stroke-miterlimit="10" stroke-dasharray="" stroke-dashoffset="0" style="mix-blend-mode: normal"><path d="M145.08522,232.44191c-3.25662,-3.2563 -3.62514,-7.94767 -3.62514,-7.94767v-72.25958c0,0 0.42463,-4.8653 3.68178,-8.12385c3.25716,-3.25855 8.1188,-3.68178 8.1188,-3.68178h173.47867c0,0 4.50752,0.2138 7.77895,3.45521c3.27143,3.24142 4.02164,8.23712 4.02164,8.23712v72.51445c0,0 -0.58488,4.86616 -3.85171,8.03266c-3.26682,3.1665 -8.17544,3.62514 -8.17544,3.62514h-173.2521c0,0 -4.91882,-0.59542 -8.17545,-3.85171z" fill="url(#color-1)" stroke="none" stroke-width="0" stroke-linecap="butt"/><path d="M315.77776,202.68539c0,-5.573 4.51782,-10.09082 10.09082,-10.09082c5.573,0 10.09082,4.51782 10.09082,10.09082c0,5.573 -4.51782,10.09082 -10.09082,10.09082c-5.573,0 -10.09082,-4.51782 -10.09082,-10.09082z" fill="#ffffff" stroke="none" stroke-width="0" stroke-linecap="butt"/><path d="M324.28273,204.92551v-2.11066c0,-0.33633 0.12012,-0.56284 0.36035,-0.67952c0.2471,-0.11669 0.69669,-0.26084 1.34876,-0.43243c0.53539,-0.15787 0.95065,-0.35692 1.2458,-0.59717c0.29515,-0.2471 0.44272,-0.64521 0.44272,-1.19432c0,-0.45988 -0.17503,-0.84083 -0.52509,-1.14284c-0.35006,-0.30887 -0.75846,-0.46331 -1.22521,-0.46331c-0.39125,0 -0.73101,0.09609 -1.01929,0.28828c-0.28828,0.19219 -0.58,0.45988 -0.87515,0.80308c-0.28828,0.33633 -0.53882,0.58686 -0.7516,0.75159c-0.20592,0.16474 -0.45645,0.24711 -0.7516,0.24711c-0.37751,0 -0.68639,-0.13727 -0.92663,-0.41183c-0.24023,-0.28143 -0.36035,-0.65208 -0.36035,-1.11197c0,-0.52165 0.14757,-1.00213 0.44272,-1.44142c0.29515,-0.43929 0.68296,-0.80994 1.16343,-1.11195c0.48047,-0.30887 0.99527,-0.53881 1.54438,-0.68982c0.54911,-0.15787 1.06048,-0.2368 1.53409,-0.2368c0.9129,0 1.7503,0.18189 2.51219,0.54567c0.76876,0.36379 1.37965,0.89232 1.83266,1.58557c0.45988,0.68639 0.68982,1.4826 0.68982,2.38864c0,1.11882 -0.3226,2.03515 -0.96781,2.749c-0.64521,0.71385 -1.53752,1.21492 -2.67693,1.5032v0.76189c0,0.42556 -0.14414,0.77563 -0.43242,1.05018c-0.28142,0.26768 -0.64177,0.40153 -1.08106,0.40153c-0.45988,0 -0.83053,-0.13384 -1.11196,-0.40153c-0.27456,-0.27456 -0.41184,-0.62462 -0.41184,-1.05018zM325.80651,210.91771c-0.45302,0 -0.84083,-0.1613 -1.16343,-0.48391c-0.3226,-0.3226 -0.48391,-0.71042 -0.48391,-1.16343c0,-0.45302 0.1613,-0.84083 0.48391,-1.16344c0.3226,-0.3226 0.71042,-0.4839 1.16343,-0.4839c0.45988,0 0.8477,0.1613 1.16343,0.4839c0.31574,0.3226 0.47361,0.71042 0.47361,1.16344c0,0.45301 -0.15787,0.84082 -0.47361,1.16343c-0.31574,0.3226 -0.70355,0.48391 -1.16343,0.48391z" fill="#4c4c4c" stroke="none" stroke-width="0.40889" stroke-linecap="butt"/><text transform="translate(179.80524,159.98158) scale(0.31205,0.42045)" font-size="40" xml:space="preserve" fill="#ffffff" fill-rule="nonzero" stroke="#ffffff" stroke-width="1" stroke-linecap="butt" stroke-linejoin="miter" stroke-miterlimit="10" stroke-dasharray="" stroke-dashoffset="0" font-family="Sans Serif" font-weight="normal" text-anchor="start" style="mix-blend-mode: normal"><tspan x="0" dy="0">ナワバリバトル オンライン</tspan></text><path d="M191.39624,166.02698h131" fill="none" stroke="#ffffff" stroke-width="2.5" stroke-linecap="round"/><text transform="translate(210.69076,185.43262) scale(0.46535,0.46535)" font-size="40" xml:space="preserve" fill="#ffffff" fill-rule="nonzero" stroke="#ffffff" stroke-width="0" stroke-linecap="butt" stroke-linejoin="miter" stroke-miterlimit="10" stroke-dasharray="" stroke-dashoffset="0" font-family="Sans Serif" font-weight="normal" text-anchor="start" style="mix-blend-mode: normal"><tspan x="0" dy="0">Splatmeet</tspan></text><text transform="translate(174.89471,225.61642) scale(0.9611,0.9611)" font-size="40" xml:space="preserve" fill="#ffffff" fill-rule="nonzero" stroke="#ffffff" stroke-width="1" stroke-linecap="butt" stroke-linejoin="miter" stroke-miterlimit="10" stroke-dasharray="" stroke-dashoffset="0" font-family="Sans Serif" font-weight="normal" text-anchor="start" style="mix-blend-mode: normal"><tspan x="0" dy="0">開催中!</tspan></text><path d="M136.58493,150.80313c-0.79539,-12.34657 8.56868,-23.00024 20.91526,-23.79562c12.34657,-0.79539 23.00024,8.56869 23.79563,20.91526c0.79539,12.34657 -8.56869,23.00024 -20.91526,23.79563c-12.34657,0.79539 -23.00024,-8.56868 -23.79562,-20.91526z" fill="url(#color-2)" stroke="#ffffff" stroke-width="0" stroke-linecap="butt"/><path d="M174.36186,183.34103l-19.1497,-44.80517" data-paper-data="{&quot;index&quot;:null}" fill="none" stroke="#ffffff" stroke-width="5" stroke-linecap="round"/><path d="M147.65146,157.9627l6.61712,-21.84143l20.23042,10.58377" data-paper-data="{&quot;index&quot;:null}" fill="none" stroke="#ffffff" stroke-width="5" stroke-linecap="round"/></g></g></svg>