<svg version="1.1" xmlns="http://www.w3.org/2000/svg" xmlns:xlink="http://www.w3.org/1999/xlink" width="381.24632" height="276.24632" viewBox="0,0,381.24632,276.24632"><defs><radialGradient cx="240.00004" cy="207.03951" r="69.69444" gradientUnits="userSpaceOnUse" id="color-1"><stop offset="0" stop-color="#000000" stop-opacity="0.30196"/><stop offset="1" stop-color="#000000" stop-opacity="0"/></radialGradient><radialGradient cx="179.99998" cy="180" r="138.12316" gradientUnits="userSpaceOnUse" id="color-2"><stop offset="0" stop-color="#000000" stop-opacity="0.30196"/><stop offset="1" stop-color="#000000" stop-opacity="0"/></radialGradient><radialGradient cx="284.99998" cy="180" r="138.12316" gradientUnits="userSpaceOnUse" id="color-3"><stop offset="0" stop-color="#000000" stop-opacity="0.30196"/><stop offset="1" stop-color="#000000" stop-opacity="0"/></radialGradient><radialGradient cx="237.98679" cy="177.58689" r="140.13637" gradientUnits="userSpaceOnUse" id="color-4"><stop offset="0" stop-color="#fffef2"/><stop offset="1" stop-color="#d8d7cd"/></radialGradient></defs><g transform="translate(-41.87685,-41.87688)"><g data-paper-data="{&quot;isPaintingLayer&quot;:true}" fill-rule="nonzero" stroke-linejoin="miter" stroke-miterlimit="10" stroke-dasharray="" stroke-dashoffset="0" style="mix-blend-mode: normal"><path d="M240.00004,276.73393c-38.49117,0 -69.69443,-31.20325 -69.69443,-69.69443c0,-38.49117 31.20326,-69.69443 69.69444,-69.69443c38.49118,0 69.69444,31.20326 69.69444,69.69444c0,38.49118 -31.20326,69.69443 -69.69443,69.69443z" fill="url(#color-1)" stroke="none" stroke-width="0" stroke-linecap="butt"/><path d="M179.99998,318.12314c-76.2833,0 -138.12313,-61.83983 -138.12313,-138.12313c0,-76.2833 61.83983,-138.12313 138.12316,-138.12313c76.28332,0 138.12316,61.83983 138.12316,138.12316c0,76.28332 -61.83983,138.12316 -138.12313,138.12316z" fill="url(#color-2)" stroke="none" stroke-width="0" stroke-linecap="butt"/><path d="M284.99998,318.12314c-76.2833,0 -138.12313,-61.83983 -138.12313,-138.12313c0,-76.2833 61.83983,-138.12313 138.12316,-138.12313c76.28332,0 138.12316,61.83983 138.12316,138.12316c0,76.28332 -61.83983,138.12316 -138.12313,138.12316z" fill="url(#color-3)" stroke="none" stroke-width="0" stroke-linecap="butt"/><path d="M104.24855,277.23201l-6.39814,-25.84208l4.82568,-32.09835l-3.03499,-26.67503l2.85545,-37.10301l-2.73281,-31.43472l4.48481,-42.14627l28.57698,-4.90666l19.01273,4.44734l10.49163,-5.67569l71.07372,-0.13083l55.06297,9.63093l19.96784,-5.95609l60.87052,2.59099l5.91019,34.75302l-4.87984,29.65651l5.6936,39.06826l-4.94101,31.11899l7.03528,27.8467l-8.81823,32.856l-99.87157,6.15605l-28.52468,-7.24105l-81.29152,7.36007l-15.03657,-6.70414z" fill="url(#color-4)" stroke="#000000" stroke-width="0" stroke-linecap="butt"/><g data-paper-data="{&quot;index&quot;:null}" stroke="none" stroke-width="0" stroke-linecap="butt"><path d="M250.34954,96.23278c1.80872,0 3.27496,1.46625 3.27496,3.27496c0,1.80872 -1.46625,3.27497 -3.27496,3.27497c-1.80872,0 -3.27496,-1.46625 -3.27496,-3.27497c0,-1.80872 1.46625,-3.27496 3.27496,-3.27496z" data-paper-data="{&quot;index&quot;:null}" fill-opacity="0.23529" fill="#ffffff"/><path d="M160.48018,169.55532c1.80872,0 3.27496,1.46625 3.27496,3.27496c0,1.80872 -1.46625,3.27497 -3.27496,3.27497c-1.80872,0 -3.27496,-1.46625 -3.27496,-3.27497c0,-1.80872 1.46625,-3.27496 3.27496,-3.27496z" data-paper-data="{&quot;index&quot;:null}" fill-opacity="0.23529" fill="#ffffff"/><path d="M192.38158,146.3434c1.80872,0 3.27497,1.46625 3.27497,3.27497c0,1.80872 -1.46625,3.27497 -3.27497,3.27497c-1.80872,0 -3.27497,-1.46625 -3.27497,-3.27497c0,-1.80872 1.46625,-3.27497 3.27497,-3.27497z" data-paper-data="{&quot;index&quot;:null}" fill-opacity="0.23529" fill="#ffffff"/><path d="M313.25162,154.91863c1.80872,0 3.27497,1.46625 3.27497,3.27497c0,1.80872 -1.46625,3.27497 -3.27497,3.27497c-1.80872,0 -3.27497,-1.46625 -3.27497,-3.27497c0,-1.80872 1.46625,-3.27497 3.27497,-3.27497z" data-paper-data="{&quot;index&quot;:null}" fill-opacity="0.23529" fill="#ffffff"/><path d="M351.22768,199.83655c1.80872,0 3.27497,1.46625 3.27497,3.27497c0,1.80872 -1.46625,3.27497 -3.27497,3.27497c-1.80872,0 -3.27497,-1.46625 -3.27497,-3.27497c0,-1.80872 1.46625,-3.27497 3.27497,-3.27497z" data-paper-data="{&quot;index&quot;:null}" fill-opacity="0.23529" fill="#ffffff"/><path d="M188.39595,237.30168c1.80872,0 3.27497,1.46625 3.27497,3.27497c0,1.80872 -1.46625,3.27497 -3.27497,3.27497c-1.80872,0 -3.27497,-1.46625 -3.27497,-3.27497c0,-1.80872 1.46625,-3.27497 3.27497,-3.27497z" data-paper-data="{&quot;index&quot;:null}" fill-opacity="0.08235" fill="#000000"/><path d="M366.97775,162.8613c1.69596,0 3.07079,1.37484 3.07079,3.0708c0,1.69595 -1.37484,3.07079 -3.07079,3.07079c-1.69596,0 -3.0708,-1.37483 -3.0708,-3.07079c0,-1.69595 1.37484,-3.0708 3.0708,-3.0708z" data-paper-data="{&quot;index&quot;:null}" fill-opacity="0.08235" fill="#000000"/><path d="M238.60549,142.15609c1.69596,0 3.07079,1.37484 3.07079,3.0708c0,1.69595 -1.37484,3.07079 -3.07079,3.07079c-1.69596,0 -3.0708,-1.37483 -3.0708,-3.07079c0,-1.69595 1.37484,-3.0708 3.0708,-3.0708z" data-paper-data="{&quot;index&quot;:null}" fill-opacity="0.08235" fill="#000000"/><path d="M301.9045,189.32835c1.69596,0 3.07079,1.37483 3.07079,3.07079c0,1.69595 -1.37484,3.0708 -3.07079,3.0708c-1.69596,0 -3.0708,-1.37484 -3.0708,-3.0708c0,-1.69595 1.37484,-3.07079 3.0708,-3.07079z" data-paper-data="{&quot;index&quot;:null}" fill-opacity="0.08235" fill="#000000"/><path d="M121.12543,142.6683c1.69595,0 3.0708,1.37483 3.0708,3.07079c0,1.69595 -1.37484,3.0708 -3.0708,3.0708c-1.69595,0 -3.07079,-1.37484 -3.07079,-3.0708c0,-1.69595 1.37484,-3.07079 3.07079,-3.07079z" data-paper-data="{&quot;index&quot;:null}" fill-opacity="0.08235" fill="#000000"/></g><path d="" fill="none" stroke="#eae9df" stroke-width="2.5" stroke-linecap="round"/><path d="" fill="none" stroke="#bdbcb3" stroke-width="2.5" stroke-linecap="round"/><path d="M224.5647,246.81821l-48.3,-48.3" fill="none" stroke-opacity="0.32549" stroke="#ffffff" stroke-width="2.5" stroke-linecap="round"/><path d="M221.10866,113.90912l42.65455,42.65455" data-paper-data="{&quot;index&quot;:null}" fill="none" stroke-opacity="0.0902" stroke="#000000" stroke-width="2.5" stroke-linecap="round"/><path d="" fill="none" stroke="#bdbcb3" stroke-width="2.5" stroke-linecap="round"/><path d="" fill="none" stroke="#c4c3ba" stroke-width="2.5" stroke-linecap="round"/><path d="" fill="none" stroke="#c4c3ba" stroke-width="2.5" stroke-linecap="round"/><path d="" fill="none" stroke="#dad9cf" stroke-width="2.5" stroke-linecap="round"/><path d="M116.04651,223.60914l31.99091,-31.99091" fill="none" stroke-opacity="0.0902" stroke="#000000" stroke-width="2.5" stroke-linecap="round"/><path d="" data-paper-data="{&quot;index&quot;:null}" fill="none" stroke="#e9e9dd" stroke-width="2.5" stroke-linecap="round"/><path d="" fill="none" stroke="#bdbcb3" stroke-width="2.5" stroke-linecap="round"/><path d="" fill="none" stroke="#9b9a93" stroke-width="2.5" stroke-linecap="round"/><path d="M288.22684,117.04549l23.83636,-23.83636" data-paper-data="{&quot;index&quot;:null}" fill="none" stroke-opacity="0.4549" stroke="#ffffff" stroke-width="2.5" stroke-linecap="round"/><path d="" fill="none" stroke="#bdbcb3" stroke-width="2.5" stroke-linecap="round"/><path d="" fill="none" stroke="#bdbcb3" stroke-width="2.5" stroke-linecap="round"/><path d="" fill-opacity="0.12157" fill="#000000" stroke="none" stroke-width="0" stroke-linecap="butt"/><path d="" fill-opacity="0.12157" fill="#000000" stroke="none" stroke-width="0" stroke-linecap="butt"/><path d="" fill-opacity="0.12157" fill="#000000" stroke="none" stroke-width="0" stroke-linecap="butt"/><path d="" fill-opacity="0.12157" fill="#000000" stroke="none" stroke-width="0" stroke-linecap="butt"/><path d="M337.15412,141.61368c0,-3.63755 2.94881,-6.58636 6.58636,-6.58636c3.63755,0 6.58636,2.94881 6.58636,6.58636c0,3.63755 -2.94881,6.58636 -6.58636,6.58636c-3.63755,0 -6.58636,-2.94881 -6.58636,-6.58636z" data-paper-data="{&quot;index&quot;:null}" fill-opacity="0.12157" fill="#000000" stroke="none" stroke-width="0" stroke-linecap="butt"/><path d="" fill-opacity="0.12157" fill="#000000" stroke="none" stroke-width="0" stroke-linecap="butt"/><path d="M206.68139,151.96368c0,-5.54293 4.49343,-10.03636 10.03636,-10.03636c5.54293,0 10.03636,4.49343 10.03636,10.03636c0,5.54293 -4.49343,10.03636 -10.03636,10.03636c-5.54293,0 -10.03636,-4.49343 -10.03636,-10.03636z" data-paper-data="{&quot;index&quot;:null}" fill-opacity="0.12157" fill="#000000" stroke="none" stroke-width="0" stroke-linecap="butt"/><path d="" fill-opacity="0.12157" fill="#000000" stroke="none" stroke-width="0" stroke-linecap="butt"/><path d="" fill-opacity="0.12157" fill="#000000" stroke="none" stroke-width="0" stroke-linecap="butt"/><path d="M331.64903,260.20004c-12.12517,0 -21.95455,-9.82938 -21.95455,-21.95455c0,-12.12516 9.82938,-21.95455 21.95455,-21.95455c12.12517,0 21.95455,9.82938 21.95455,21.95455c0,12.12517 -9.82938,21.95455 -21.95455,21.95455z" fill-opacity="0.08235" fill="#000000" stroke="none" stroke-width="0" stroke-linecap="butt"/><path d="" fill-opacity="0.12157" fill="#000000" stroke="none" stroke-width="0" stroke-linecap="butt"/><path d="M270.00239,258.05458c-4.1572,0 -7.52727,-3.37007 -7.52727,-7.52727c0,-4.1572 3.37007,-7.52727 7.52727,-7.52727c4.1572,0 7.52727,3.37007 7.52727,7.52727c0,4.1572 -3.37007,7.52727 -7.52727,7.52727z" fill-opacity="0.12157" fill="#000000" stroke="none" stroke-width="0" stroke-linecap="butt"/><path d="M123.25412,107.42731c0,-3.1179 2.52756,-5.64545 5.64545,-5.64545c3.1179,0 5.64545,2.52756 5.64545,5.64545c0,3.1179 -2.52756,5.64545 -5.64545,5.64545c-3.1179,0 -5.64545,-2.52756 -5.64545,-5.64545z" data-paper-data="{&quot;index&quot;:null}" fill-opacity="0.12157" fill="#000000" stroke="none" stroke-width="0" stroke-linecap="butt"/><path d="" fill-opacity="0.23529" fill="#ffffff" stroke="none" stroke-width="0" stroke-linecap="butt"/><path d="" fill-opacity="0.23529" fill="#ffffff" stroke="none" stroke-width="0" stroke-linecap="butt"/><path d="" fill-opacity="0.23529" fill="#ffffff" stroke="none" stroke-width="0" stroke-linecap="butt"/><path d="" fill-opacity="0.23529" fill="#ffffff" stroke="none" stroke-width="0" stroke-linecap="butt"/><path d="" fill-opacity="0.23529" fill="#ffffff" stroke="none" stroke-width="0" stroke-linecap="butt"/><path d="" fill-opacity="0.23529" fill="#ffffff" stroke="none" stroke-width="0" stroke-linecap="butt"/><path d="" fill-opacity="0.23529" fill="#ffffff" stroke="none" stroke-width="0" stroke-linecap="butt"/><path d="M305.79048,148.20004c-5.54293,0 -10.03636,-4.49343 -10.03636,-10.03636c0,-5.54293 4.49343,-10.03636 10.03636,-10.03636c5.54293,0 10.03636,4.49343 10.03636,10.03636c0,5.54293 -4.49343,10.03636 -10.03636,10.03636z" data-paper-data="{&quot;index&quot;:null}" fill-opacity="0.50196" fill="#ffffff" stroke="none" stroke-width="0" stroke-linecap="butt"/><path d="M162.7723,156.98186c-12.12517,0 -21.95455,-9.82938 -21.95455,-21.95455c0,-12.12516 9.82938,-21.95455 21.95455,-21.95455c12.12517,0 21.95455,9.82938 21.95455,21.95455c0,12.12517 -9.82938,21.95455 -21.95455,21.95455z" data-paper-data="{&quot;index&quot;:null}" fill-opacity="0.50196" fill="#ffffff" stroke="none" stroke-width="0" stroke-linecap="butt"/><path d="" fill-opacity="0.23529" fill="#ffffff" stroke="none" stroke-width="0" stroke-linecap="butt"/><path d="M130.21427,239.64816c0,-4.1572 3.37007,-7.52727 7.52727,-7.52727c4.1572,0 7.52727,3.37007 7.52727,7.52727c0,4.1572 -3.37007,7.52727 -7.52727,7.52727c-4.1572,0 -7.52727,-3.37007 -7.52727,-7.52727z" fill-opacity="0.50196" fill="#ffffff" stroke="none" stroke-width="0" stroke-linecap="butt"/><path d="M276.92646,208.70004c0,-3.1179 2.52756,-5.64545 5.64545,-5.64545c3.1179,0 5.64545,2.52756 5.64545,5.64545c0,3.1179 -2.52756,5.64545 -5.64545,5.64545c-3.1179,0 -5.64545,-2.52756 -5.64545,-5.64545z" fill-opacity="0.50196" fill="#ffffff" stroke="none" stroke-width="0" stroke-linecap="butt"/></g></g></svg>