<svg version="1.1" xmlns="http://www.w3.org/2000/svg" xmlns:xlink="http://www.w3.org/1999/xlink" width="85.96734" height="85.27405" viewBox="0,0,85.96734,85.27405"><defs><radialGradient cx="237.00006" cy="180.00002" r="34.99887" gradientUnits="userSpaceOnUse" id="color-1"><stop offset="0" stop-color="#000000"/><stop offset="1" stop-color="#000000" stop-opacity="0"/></radialGradient><linearGradient x1="209.66471" y1="180.00002" x2="264.33538" y2="180.00002" gradientUnits="userSpaceOnUse" id="color-2"><stop offset="0" stop-color="#ff7b7b"/><stop offset="1" stop-color="#ff0000"/></linearGradient><linearGradient x1="213.32517" y1="170.02376" x2="244.09402" y2="175.25128" gradientUnits="userSpaceOnUse" id="color-3"><stop offset="0" stop-color="#490000" stop-opacity="0.26275"/><stop offset="1" stop-color="#730000" stop-opacity="0.41176"/></linearGradient><linearGradient x1="211.53211" y1="172.86729" x2="240.58801" y2="177.80378" gradientUnits="userSpaceOnUse" id="color-4"><stop offset="0" stop-color="#4f0000" stop-opacity="0.18039"/><stop offset="1" stop-color="#730000" stop-opacity="0.64706"/></linearGradient><linearGradient x1="214.84994" y1="169.32742" x2="230.58595" y2="169.32742" gradientUnits="userSpaceOnUse" id="color-5"><stop offset="0" stop-color="#ffffff"/><stop offset="1" stop-color="#ffa2a2"/></linearGradient></defs><g transform="translate(-197.18304,-137.363)"><g data-paper-data="{&quot;isPaintingLayer&quot;:true}" fill-rule="nonzero" stroke-linejoin="miter" stroke-miterlimit="10" stroke-dasharray="" stroke-dashoffset="0" style="mix-blend-mode: normal"><path d="M197.18305,222.63705v-85.27405h85.96734v85.27405z" fill="none" stroke="none" stroke-width="NaN" stroke-linecap="butt"/><path d="M202.00118,180.00002c0,-19.32934 15.66953,-34.99887 34.99887,-34.99887c19.32934,0 34.99887,15.66953 34.99887,34.99887c0,19.32934 -15.66953,34.99887 -34.99887,34.99887c-19.32934,0 -34.99887,-15.66954 -34.99887,-34.99887z" fill="url(#color-1)" stroke="#000000" stroke-width="0" stroke-linecap="butt"/><path d="M209.66471,180.00002c0,-15.09689 12.23845,-27.33534 27.33534,-27.33534c15.09689,0 27.33534,12.23845 27.33534,27.33534c0,15.09689 -12.23845,27.33534 -27.33534,27.33534c-15.09689,0 -27.33534,-12.23845 -27.33534,-27.33534z" fill="url(#color-2)" stroke="#000000" stroke-width="0" stroke-linecap="butt"/><path d="M246.1639,190.67261c0,-2.44128 1.97905,-4.42033 4.42033,-4.42033c2.44128,0 4.42033,1.97905 4.42033,4.42033c0,2.44128 -1.97905,4.42033 -4.42033,4.42033c-2.44128,0 -4.42033,-1.97905 -4.42033,-4.42033z" fill="#000000" stroke="#000000" stroke-width="0" stroke-linecap="butt"/><path d="M246.21313,169.32743c0,-2.44128 1.97905,-4.42033 4.42033,-4.42033c2.44128,0 4.42033,1.97905 4.42033,4.42033c0,2.44128 -1.97905,4.42033 -4.42033,4.42033c-2.44128,0 -4.42033,-1.97905 -4.42033,-4.42033z" fill="#000000" stroke="#000000" stroke-width="0" stroke-linecap="butt"/><g fill="none" stroke-opacity="0.25098" stroke="#4b0000" stroke-width="2.5" stroke-linecap="round"><path d="M216.93338,194.16667h39.6"/><path d="M213.13338,185.56667h47.4"/><path d="M212.33338,176.76667h48.8"/><path d="M256.73338,167.76665h-40.2"/><path d="M226.13338,159.16667h23.8"/><path d="M229.13338,202.16667h18.4"/><path d="M250.63338,199.86667v-39.6"/><path d="M242.03338,203.66667v-47.4"/><path d="M233.23338,155.66667v48.8"/><path d="M224.23338,200.26667v-40.2"/><path d="M215.63338,190.66667v-23.8"/></g><path d="M257.23935,168.72227v22.27848" fill="none" stroke="#000000" stroke-width="2" stroke-linecap="round"/><path d="M218.02208,163.77528c0.83728,-1.51755 -0.67233,-3.79015 0.56021,-4.85368c3.16715,-2.73284 7.4312,-3.77076 11.87742,-3.01536c2.62402,0.44582 5.84354,4.2915 8.25729,5.57415c3.70132,1.96687 6.13029,1.9303 6.47625,5.81328c0.10853,1.2182 -2.62982,4.10616 -2.84429,5.36852c-0.30237,1.77971 -4.37942,3.52531 -4.06983,6.28036c0.25733,2.28991 5.03709,5.58044 3.83177,7.38245c-1.51541,2.26559 -8.32857,3.03147 -9.95227,3.70235c-2.43705,1.00694 -3.77421,-5.00167 -6.56563,-5.47592c-4.4698,-0.7594 -9.08838,-0.59077 -11.16988,-4.24531c-1.60211,-2.81286 -1.30387,-9.0703 -0.71936,-12.51065c0.29454,-1.73363 3.47943,-2.49971 4.31833,-4.0202z" data-paper-data="{&quot;index&quot;:null}" fill="url(#color-3)" stroke="#000000" stroke-width="0" stroke-linecap="butt"/><path d="M215.96753,166.96667c0.79067,-1.43307 -0.6349,-3.57915 0.52902,-4.58346c2.99083,-2.5807 7.0175,-3.56084 11.21619,-2.84749c2.47794,0.421 5.51823,4.05259 7.7976,5.26383c3.49527,1.85737 5.78901,1.82283 6.1157,5.48965c0.10249,1.15038 -2.48342,3.87756 -2.68595,5.06964c-0.28553,1.68063 -4.13562,3.32905 -3.84326,5.93072c0.243,2.16242 4.75667,5.26977 3.61845,6.97146c-1.43105,2.13946 -7.86491,2.8627 -9.39821,3.49623c-2.30138,0.95088 -3.56409,-4.72322 -6.20011,-5.17106c-4.22096,-0.71712 -8.58242,-0.55788 -10.54804,-4.00896c-1.51292,-2.65626 -1.23128,-8.56534 -0.67931,-11.81417c0.27814,-1.63712 3.28573,-2.36055 4.07792,-3.79639z" data-paper-data="{&quot;index&quot;:null}" fill="url(#color-4)" stroke="#000000" stroke-width="0" stroke-linecap="butt"/><path d="M214.84994,168.57952l7.81952,-6.81338l2.82261,0.11683l5.09387,8.20138l-7.3736,6.80436l-2.54711,-0.16664z" fill="url(#color-5)" stroke="#000000" stroke-width="0" stroke-linecap="butt"/></g></g></svg>