<svg version="1.1" xmlns="http://www.w3.org/2000/svg" xmlns:xlink="http://www.w3.org/1999/xlink" width="220.55193" height="219.84542" viewBox="0,0,220.55193,219.84542"><defs><radialGradient cx="263.94556" cy="292.52507" r="26.05926" gradientUnits="userSpaceOnUse" id="color-1"><stop offset="0" stop-color="#000000" stop-opacity="0.30588"/><stop offset="1" stop-color="#000000" stop-opacity="0"/></radialGradient><linearGradient x1="268.48303" y1="266.86385" x2="259.40806" y2="318.18625" gradientUnits="userSpaceOnUse" id="color-2"><stop offset="0" stop-color="#ff5454"/><stop offset="1" stop-color="#eb0000"/></linearGradient><radialGradient cx="271.66727" cy="251.27691" r="26.05927" gradientUnits="userSpaceOnUse" id="color-3"><stop offset="0" stop-color="#000000" stop-opacity="0.30588"/><stop offset="1" stop-color="#000000" stop-opacity="0"/></radialGradient><linearGradient x1="276.20475" y1="225.61572" x2="267.1298" y2="276.93814" gradientUnits="userSpaceOnUse" id="color-4"><stop offset="0" stop-color="#ff5454"/><stop offset="1" stop-color="#eb0000"/></linearGradient><radialGradient cx="291.34094" cy="211.65027" r="23.93565" gradientUnits="userSpaceOnUse" id="color-5"><stop offset="0" stop-color="#000000" stop-opacity="0.63137"/><stop offset="1" stop-color="#000000" stop-opacity="0"/></radialGradient><linearGradient x1="295.50866" y1="188.08021" x2="287.17323" y2="235.22029" gradientUnits="userSpaceOnUse" id="color-6"><stop offset="0" stop-color="#ff5454"/><stop offset="1" stop-color="#eb0000"/></linearGradient><linearGradient x1="302.32016" y1="200.2159" x2="280.94939" y2="196.43702" gradientUnits="userSpaceOnUse" id="color-7"><stop offset="0" stop-color="#eb0000"/><stop offset="1" stop-color="#ff5454"/></linearGradient><linearGradient x1="275.15344" y1="227.67124" x2="259.09047" y2="318.5132" gradientUnits="userSpaceOnUse" id="color-8"><stop offset="0" stop-color="#333333"/><stop offset="1" stop-color="#cacaca"/></linearGradient><linearGradient x1="246.25606" y1="320.58011" x2="263.71606" y2="221.83734" gradientUnits="userSpaceOnUse" id="color-9"><stop offset="0" stop-color="#ff4c4c"/><stop offset="1" stop-color="#ec0000"/></linearGradient><linearGradient x1="251.58607" y1="320.86006" x2="268.86384" y2="223.14769" gradientUnits="userSpaceOnUse" id="color-10"><stop offset="0" stop-color="#e8e8e8"/><stop offset="1" stop-color="#9e9e9e"/></linearGradient><linearGradient x1="280.2136" y1="282.33662" x2="283.04823" y2="266.30566" gradientUnits="userSpaceOnUse" id="color-11"><stop offset="0" stop-color="#929292"/><stop offset="1" stop-color="#000000"/></linearGradient><linearGradient x1="286.6509" y1="228.12261" x2="293.27654" y2="190.65203" gradientUnits="userSpaceOnUse" id="color-12"><stop offset="0" stop-color="#929292"/><stop offset="1" stop-color="#000000"/></linearGradient><linearGradient x1="297.42818" y1="225.49034" x2="276.05737" y2="221.71147" gradientUnits="userSpaceOnUse" id="color-13"><stop offset="0" stop-color="#eb0000"/><stop offset="1" stop-color="#ff5454"/></linearGradient><linearGradient x1="458.81283" y1="187.21559" x2="357.93584" y2="178.37716" gradientUnits="userSpaceOnUse" id="color-14"><stop offset="0" stop-color="#ffffff" stop-opacity="0.69412"/><stop offset="1" stop-color="#ff0000" stop-opacity="0.02353"/></linearGradient></defs><g transform="translate(-237.88187,-101.35208)"><g data-paper-data="{&quot;isPaintingLayer&quot;:true}" fill-rule="nonzero" stroke-linejoin="miter" stroke-miterlimit="10" stroke-dasharray="" stroke-dashoffset="0" style="mix-blend-mode: normal"><path d="M289.60668,297.06257c-2.50598,14.17226 -16.02642,23.62969 -30.19868,21.12369c-14.17226,-2.50599 -23.62967,-16.0264 -21.12369,-30.19868c2.50599,-14.17226 16.02642,-23.62969 30.19868,-21.12369c14.17227,2.50599 23.62968,16.0264 21.1237,30.19868z" data-paper-data="{&quot;index&quot;:null}" fill="url(#color-1)" stroke="url(#color-2)" stroke-width="0" stroke-linecap="butt"/><path d="M297.32845,255.81439c-2.506,14.17229 -16.02644,23.62972 -30.1987,21.12372c-14.17226,-2.50598 -23.62967,-16.0264 -21.12369,-30.19868c2.50599,-14.17226 16.02642,-23.62969 30.19868,-21.12369c14.17227,2.50599 23.62968,16.0264 21.1237,30.19868z" data-paper-data="{&quot;index&quot;:null}" fill="url(#color-3)" stroke="url(#color-4)" stroke-width="0" stroke-linecap="butt"/><path d="M287.17321,235.22025c-13.01736,-2.30177 -21.70409,-14.72038 -19.40231,-27.73774c2.30176,-13.01735 14.72038,-21.70405 27.73773,-19.40228c13.01736,2.30177 21.70409,14.72038 19.40231,27.73774c-2.30176,13.01735 -14.72038,21.70405 -27.73773,19.40228z" data-paper-data="{&quot;index&quot;:null}" fill="url(#color-5)" stroke="url(#color-6)" stroke-width="0" stroke-linecap="butt"/><path d="M289.74535,209.01184c-5.90137,-1.04349 -9.83948,-6.67343 -8.79596,-12.57481c1.04349,-5.90137 6.67343,-9.83948 12.57481,-8.79596c5.90137,1.04349 9.83948,6.67343 8.79596,12.57481c-1.04349,5.90137 -6.67343,9.83948 -12.57481,8.79596z" data-paper-data="{&quot;index&quot;:null}" fill="url(#color-7)" stroke="#000000" stroke-width="0" stroke-linecap="butt"/><g data-paper-data="{&quot;index&quot;:null}"><path d="M270.06422,226.77136l7.85724,4.53833l-15.37252,85.4533l-8.54765,0.8503z" data-paper-data="{&quot;index&quot;:null}" fill="url(#color-8)" stroke="none" stroke-width="0" stroke-linecap="butt"/><path d="M249.68717,321.18679l-3.87446,-0.68508l-2.48574,-3.36737l16.45596,-93.06462l3.48975,-2.31077l3.87446,0.68508z" data-paper-data="{&quot;index&quot;:null}" fill="url(#color-9)" stroke="none" stroke-width="0" stroke-linecap="butt"/><path d="M253.49451,321.1975l-3.81688,-0.67491l17.27778,-97.71235l3.81688,0.67491z" data-paper-data="{&quot;index&quot;:null}" fill="url(#color-10)" stroke="none" stroke-width="0" stroke-linecap="butt"/><path d="M276.85709,235.84494c0,0 5.41572,13.89382 1.15461,37.99197c-4.58352,25.92151 -14.60788,38.09136 -14.60788,38.09136" data-paper-data="{&quot;index&quot;:null}" fill="none" stroke-opacity="0.53333" stroke="#000000" stroke-width="2" stroke-linecap="round"/><path d="M273.42535,290.87018l-3.30187,-18.42809l9.25662,-16.73228" data-paper-data="{&quot;index&quot;:null}" fill="none" stroke-opacity="0.53333" stroke="#000000" stroke-width="2" stroke-linecap="round"/><path d="M246.13033,313.57321l7.69827,-43.5366" data-paper-data="{&quot;index&quot;:null}" fill="none" stroke-opacity="0.34902" stroke="#ffffff" stroke-width="4.5" stroke-linecap="round"/><path d="M250.33091,284.2265l-4.62587,26.16101" data-paper-data="{&quot;index&quot;:null}" fill="none" stroke-opacity="0.34902" stroke="#ffffff" stroke-width="2.5" stroke-linecap="round"/><path d="M279.48582,265.67574l4.59425,3.69894l-1.79978,10.17837l-5.62911,2.15363z" fill="url(#color-11)" stroke="none" stroke-width="0" stroke-linecap="butt"/><path d="M273.74194,229.89258c0,0 0.38755,-17.05091 6.82605,-30.57831c6.43851,-13.5274 13.63414,-12.40884 13.63414,-12.40884l-8.89705,50.40034l-8.35123,-1.73934l6.8602,10.18588c0,0 6.68701,3.86374 5.05253,15.01279c-1.50812,10.28708 -5.64143,13.44431 -5.64143,13.44431" fill="none" stroke-opacity="0.51765" stroke="#000000" stroke-width="2" stroke-linecap="round"/><path d="M286.19667,189.13777c0,0 5.24922,-2.63063 7.68862,-2.15165c1.91057,0.3751 5.75274,4.79078 5.75274,4.79078l-10.18808,36.84063l-6.90985,-0.9918z" fill="url(#color-12)" stroke="none" stroke-width="0" stroke-linecap="butt"/></g><path d="M297.42814,225.49036c-1.04349,5.90137 -6.67344,9.83947 -12.57481,8.79596c-5.90138,-1.04349 -9.83948,-6.67344 -8.79597,-12.57481c1.0435,-5.90141 6.67345,-9.83951 12.57483,-8.79599c5.9014,1.04349 9.83949,6.67345 8.79598,12.57482z" data-paper-data="{&quot;index&quot;:null}" fill="url(#color-13)" stroke="#000000" stroke-width="0" stroke-linecap="butt"/><path d="M458.40891,179.62217c-1.16521,55.53851 -49.84303,80.19546 -49.84303,80.19546c-5.63861,-11.41926 -0.69026,-25.8487 -0.69026,-25.8487c0,0 -17.84137,15.30842 -20.80159,9.03406c-1.2981,-2.75143 3.12574,-15.39816 3.12574,-15.39816c0,0 -18.63404,7.96224 -10.99358,-1.45685c4.61085,-5.68419 24.18307,-27.81244 23.90888,-48.15474c-0.53822,-39.93164 -25.51021,-57.83522 -25.51021,-57.83522l19.111,2.46616c0,0 -18.57786,-16.63701 -17.72815,-17.64013c6.29947,-7.43677 31.67298,10.88359 31.67298,10.88359c0,0 -10.06065,-14.25673 -9.65939,-14.51556c0,0 58.81579,11.15062 57.40761,78.27009z" data-paper-data="{&quot;index&quot;:null}" fill="url(#color-14)" stroke="none" stroke-width="0" stroke-linecap="butt"/></g></g></svg>