<svg version="1.1" xmlns="http://www.w3.org/2000/svg" xmlns:xlink="http://www.w3.org/1999/xlink" width="65.59774" height="65.59774" viewBox="0,0,65.59774,65.59774"><defs><radialGradient cx="240.00004" cy="180.00002" r="32.79887" gradientUnits="userSpaceOnUse" id="color-1"><stop offset="0" stop-color="#000000"/><stop offset="1" stop-color="#000000" stop-opacity="0"/></radialGradient><linearGradient x1="213.77304" y1="168.36666" x2="219.88184" y2="169.71958" gradientUnits="userSpaceOnUse" id="color-2"><stop offset="0" stop-color="#000000"/><stop offset="1" stop-color="#ffffff"/></linearGradient><linearGradient x1="213.24041" y1="168.60471" x2="219.34922" y2="169.95763" gradientUnits="userSpaceOnUse" id="color-3"><stop offset="0" stop-color="#000000"/><stop offset="1" stop-color="#ffffff"/></linearGradient><linearGradient x1="240.00003" y1="153.03411" x2="240.00003" y2="206.96593" gradientUnits="userSpaceOnUse" id="color-4"><stop offset="0" stop-color="#ffc1c1"/><stop offset="1" stop-color="#ff2f2f"/></linearGradient><linearGradient x1="229.76903" y1="192.75331" x2="253.71013" y2="192.75331" gradientUnits="userSpaceOnUse" id="color-5"><stop offset="0" stop-color="#000000"/><stop offset="1" stop-color="#000000" stop-opacity="0"/></linearGradient><linearGradient x1="230.04739" y1="167.52025" x2="253.98849" y2="167.52025" gradientUnits="userSpaceOnUse" id="color-6"><stop offset="0" stop-color="#000000"/><stop offset="1" stop-color="#000000" stop-opacity="0"/></linearGradient><linearGradient x1="237.2862" y1="205.65002" x2="246.65692" y2="205.65002" gradientUnits="userSpaceOnUse" id="color-7"><stop offset="0" stop-color="#000000"/><stop offset="1" stop-color="#000000" stop-opacity="0"/></linearGradient><linearGradient x1="237.00781" y1="154.52717" x2="246.3785" y2="154.52717" gradientUnits="userSpaceOnUse" id="color-8"><stop offset="0" stop-color="#000000"/><stop offset="1" stop-color="#000000" stop-opacity="0"/></linearGradient></defs><g transform="translate(-207.20116,-147.20113)"><g data-paper-data="{&quot;isPaintingLayer&quot;:true}" fill-rule="nonzero" stroke-linejoin="miter" stroke-miterlimit="10" stroke-dasharray="" stroke-dashoffset="0" style="mix-blend-mode: normal"><path d="M240.00004,212.79888c-18.11432,0 -32.79887,-14.68456 -32.79887,-32.79887c0,-18.11432 14.68456,-32.79887 32.79887,-32.79887c18.11432,0 32.79887,14.68456 32.79887,32.79887c0,18.11432 -14.68456,32.79887 -32.79887,32.79887z" fill="url(#color-1)" stroke="#000000" stroke-width="0" stroke-linecap="butt"/><path d="M215.68538,164.23308l3.94328,6.62966l-6.8177,1.84795" fill="none" stroke="url(#color-2)" stroke-width="1.5" stroke-linecap="round"/><path d="M213.31557,168.26534l5.95847,2.03167" fill="none" stroke="url(#color-3)" stroke-width="1.5" stroke-linecap="round"/><path d="M245.55469,153.03411c3.11121,0 5.67632,0.42552 7.79047,1.22108c8.96997,3.37546 9.82191,13.41258 9.82191,25.87635c0,12.93659 -0.40747,22.54714 -10.55141,25.46032c-1.93273,0.55505 -5.26339,1.37404 -7.87384,1.37404c-8.15034,0 -16.47849,-2.45964 -21.4162,-7.36877c-4.94428,-4.91566 -6.49265,-12.28593 -6.49265,-19.99174c0,-9.19419 4.15173,-17.40655 11.18688,-22.10862c4.74957,-3.17448 10.96085,-4.46265 17.53485,-4.46265z" fill="url(#color-4)" stroke="none" stroke-width="0" stroke-linecap="butt"/><path d="M257.60017,174.00749c0,0 0.30136,1.51039 0.61422,3.58752c0.11767,0.78128 0.46961,2.34061 0.46961,2.91551c0,0.98744 -0.04334,2.21197 -0.33345,3.38198c-0.2486,1.00263 -0.75038,2.03721 -0.75038,2.03721" fill="none" stroke="#000000" stroke-width="1.5" stroke-linecap="round"/><path d="M241.73958,204.72386c-6.61115,0 -11.97055,-5.3594 -11.97055,-11.97055c0,-6.61115 5.3594,-11.97055 11.97055,-11.97055c6.61115,0 11.97055,5.3594 11.97055,11.97055c0,6.61115 -5.3594,11.97055 -11.97055,11.97055z" fill="#ffffff" stroke="url(#color-5)" stroke-width="2" stroke-linecap="butt"/><path d="M242.01793,179.49082c-6.61115,0 -11.97055,-5.3594 -11.97055,-11.97055c0,-6.61115 5.3594,-11.97055 11.97055,-11.97055c6.61115,0 11.97055,5.3594 11.97055,11.97055c0,6.61115 -5.3594,11.97055 -11.97055,11.97055z" fill="#ffffff" stroke="url(#color-6)" stroke-width="2" stroke-linecap="butt"/><path d="M246.65692,205.73467l-9.37071,-0.16936" fill="none" stroke="url(#color-7)" stroke-width="2" stroke-linecap="round"/><path d="M237.00781,154.44249l9.37071,0.16936" fill="none" stroke="url(#color-8)" stroke-width="2" stroke-linecap="round"/><path d="M245.29253,192.19656c-1.46061,0 -2.64466,-1.18404 -2.64466,-2.64466c0,-1.46061 1.18404,-2.64467 2.64466,-2.64467c1.46061,0 2.64466,1.18405 2.64466,2.64467c0,1.46061 -1.18404,2.64466 -2.64466,2.64466z" fill="#48361e" stroke="#b60000" stroke-width="5" stroke-linecap="butt"/><path d="M245.29253,172.25281c-1.46061,0 -2.64466,-1.18405 -2.64466,-2.64467c0,-1.46061 1.18404,-2.64466 2.64466,-2.64466c1.46061,0 2.64466,1.18404 2.64466,2.64466c0,1.46061 -1.18404,2.64467 -2.64466,2.64467z" fill="#48361e" stroke="#b60000" stroke-width="5" stroke-linecap="butt"/><path d="M245.01415,192.47493c-1.30686,0 -2.36626,-1.05941 -2.36626,-2.36626c0,-1.30686 1.05942,-2.36627 2.36626,-2.36627c1.30686,0 2.36627,1.05942 2.36627,2.36627c0,1.30686 -1.05942,2.36626 -2.36627,2.36626z" fill="#000000" stroke="none" stroke-width="0" stroke-linecap="butt"/><path d="M245.01415,172.5312c-1.30686,0 -2.36626,-1.05942 -2.36626,-2.36626c0,-1.30686 1.05942,-2.36626 2.36626,-2.36626c1.30686,0 2.36627,1.05941 2.36627,2.36626c0,1.30686 -1.05942,2.36626 -2.36627,2.36626z" fill="#000000" stroke="none" stroke-width="0" stroke-linecap="butt"/><path d="M242.58146,191.46261c0,-0.72158 0.58494,-1.30651 1.30651,-1.30651c0.72158,0 1.30651,0.58494 1.30651,1.30651c0,0.72158 -0.58494,1.30651 -1.30651,1.30651c-0.72158,0 -1.30651,-0.58494 -1.30651,-1.30651z" fill="#ffffff" stroke="#ffffff" stroke-width="0" stroke-linecap="butt"/><path d="M243.88796,173.38217c-0.72158,0 -1.30651,-0.58494 -1.30651,-1.30651c0,-0.72158 0.58494,-1.30651 1.30651,-1.30651c0.72158,0 1.30651,0.58494 1.30651,1.30651c0,0.72158 -0.58494,1.30652 -1.30651,1.30652z" fill="#ffffff" stroke="#ffffff" stroke-width="0" stroke-linecap="butt"/></g></g></svg>