<svg version="1.1" xmlns="http://www.w3.org/2000/svg" xmlns:xlink="http://www.w3.org/1999/xlink" width="73.20265" height="65.59774" viewBox="0,0,73.20265,65.59774"><defs><radialGradient cx="240.00007" cy="180.00001" r="32.79887" gradientUnits="userSpaceOnUse" id="color-1"><stop offset="0" stop-color="#000000"/><stop offset="1" stop-color="#000000" stop-opacity="0"/></radialGradient><linearGradient x1="207.29085" y1="184.71478" x2="206.31383" y2="172.43011" gradientUnits="userSpaceOnUse" id="color-2"><stop offset="0" stop-color="#e86262"/><stop offset="1" stop-color="#e81111"/></linearGradient><linearGradient x1="207.07289" y1="190.92597" x2="206.09588" y2="178.64129" gradientUnits="userSpaceOnUse" id="color-3"><stop offset="0" stop-color="#e81111"/><stop offset="1" stop-color="#e86262"/></linearGradient><linearGradient x1="216.23042" y1="182.46289" x2="265.16195" y2="178.57131" gradientUnits="userSpaceOnUse" id="color-4"><stop offset="0" stop-color="#f71010"/><stop offset="1" stop-color="#f77575"/></linearGradient><linearGradient x1="241.15568" y1="181.00321" x2="253.16232" y2="180.0483" gradientUnits="userSpaceOnUse" id="color-5"><stop offset="0" stop-color="#e63734"/><stop offset="1" stop-color="#e63734" stop-opacity="0"/></linearGradient><radialGradient cx="215.14411" cy="181.59759" r="3.44709" gradientUnits="userSpaceOnUse" id="color-6"><stop offset="0" stop-color="#721919"/><stop offset="1" stop-color="#b12727"/></radialGradient></defs><g transform="translate(-199.59629,-147.20114)"><g data-paper-data="{&quot;isPaintingLayer&quot;:true}" fill-rule="nonzero" stroke-linejoin="miter" stroke-miterlimit="10" stroke-dasharray="" stroke-dashoffset="0" style="mix-blend-mode: normal"><path d="M240.00007,212.79889c-18.11432,0 -32.79887,-14.68456 -32.79887,-32.79887c0,-18.11432 14.68456,-32.79887 32.79887,-32.79887c18.11432,0 32.79887,14.68456 32.79887,32.79887c0,18.11432 -14.68456,32.79887 -32.79887,32.79887z" fill="url(#color-1)" stroke="#000000" stroke-width="0" stroke-linecap="butt"/><g><path d="M199.88487,176.52697c0.74217,-3.64884 4.14926,-4.43046 8.66231,-3.51252c4.51305,0.91795 7.7951,3.86921 7.05293,7.51806c-0.74217,3.64885 -5.17917,4.59554 -9.69222,3.67759c-4.51305,-0.91795 -6.76518,-4.03428 -6.02301,-7.68313z" data-paper-data="{&quot;index&quot;:null}" fill="url(#color-2)" stroke="none" stroke-width="0" stroke-linecap="butt"/><path d="M205.0842,180.11956c4.31122,-1.61976 9.45629,-1.71991 10.76588,1.76576c1.30959,3.48567 -2.35306,6.4909 -6.66428,8.11065c-4.31122,1.61976 -7.89373,0.92804 -9.20332,-2.55764c-1.30958,-3.48567 0.7905,-5.69902 5.10173,-7.31878z" fill="url(#color-3)" stroke="none" stroke-width="0" stroke-linecap="butt"/><path d="M238.76875,156.28214c13.51207,-1.07463 25.3287,8.90457 26.3932,22.28916c1.06449,13.3846 -9.02626,25.10611 -22.53833,26.18074c-13.51207,1.07463 -25.3287,-8.90457 -26.3932,-22.28916c-1.06449,-13.3846 9.02626,-25.10611 22.53833,-26.18074z" fill="url(#color-4)" stroke="none" stroke-width="0" stroke-linecap="butt"/><path d="M243.64695,159.96039c0.39618,-0.03151 3.72206,-1.81523 4.5332,-0.85748c2.73724,3.23199 4.39971,13.62187 5.00224,21.19786c0.73248,9.21002 -2.67335,20.46694 -4.79002,21.81831c-0.10266,0.06554 -3.15489,0.6248 -3.84283,0.35324c-0.25308,-0.0999 -0.08138,-1.47817 -0.11038,-1.47587c-1.73312,0.13784 -2.287,-7.46385 -3.06808,-17.28489c-0.78108,-9.82103 0.54275,-23.61335 2.27587,-23.75119z" fill="url(#color-5)" stroke="none" stroke-width="0" stroke-linecap="butt"/><path d="M242.2571,157.03913c1.73913,-0.13832 1.21768,0.05004 0.9467,6.89507c-0.0821,2.07378 4.48279,6.55789 5.44774,8.85788c1.14811,2.73655 1.0661,8.33567 1.2166,10.22802c0.21613,2.71751 -5.60896,9.50383 -5.35165,12.7542c0.56954,7.19448 1.15001,8.15237 -0.84265,8.31085c-1.66723,0.1326 -4.02119,-1.13454 -9.31552,-6.68556c-3.89219,-4.08089 -5.61008,-11.53245 -5.90434,-15.23229c-0.34177,-4.29726 0.44049,-13.73197 5.09656,-19.30017c4.8056,-5.74703 7.23725,-5.71113 8.70657,-5.82799z" fill="#e73232" stroke="none" stroke-width="0" stroke-linecap="butt"/><path d="M242.39097,159.57065c-1.47915,-0.42159 -1.74558,-1.74189 -1.73705,-2.04055c0.02038,-0.71363 9.86806,-4.15999 14.67727,-4.02265c4.80921,0.13734 10.49233,4.70195 10.47195,5.41558c-0.02038,0.71363 -6.8312,0.19848 -11.64042,0.06114c-2.79651,-0.07986 -9.71659,1.17224 -11.77175,0.58648z" data-paper-data="{&quot;index&quot;:null}" fill="#e73232" stroke="none" stroke-width="0" stroke-linecap="butt"/><path d="M253.94878,201.68794c4.79603,-0.38143 11.5719,-1.24184 11.6285,-0.53017c0.0566,0.71167 -5.38734,5.55904 -10.18337,5.94048c-4.79603,0.38143 -14.80605,-2.56031 -14.86265,-3.27198c-0.02369,-0.29784 0.17535,-1.62998 1.63117,-2.12615c2.02277,-0.6894 8.99751,0.20962 11.78635,-0.01218z" data-paper-data="{&quot;index&quot;:null}" fill="#e73232" stroke="none" stroke-width="0" stroke-linecap="butt"/><path d="M243.17526,155.74552c4.16687,-0.3314 -6.43727,16.82487 -5.80729,24.74605c0.62998,7.92118 11.26605,23.78943 7.09918,24.12082c-2.35178,0.18704 -14.79347,0.59604 -21.46922,-4.97844c-5.15232,-4.30235 -7.01879,-13.96901 -7.29321,-17.41948c-0.28807,-3.62214 1.78089,-14.6281 7.2575,-19.71965c3.88695,-3.61367 9.58384,-5.86258 13.64713,-6.45707c2.73165,-0.39966 5.65677,-0.21992 6.5659,-0.29222z" fill="#e73232" stroke="none" stroke-width="0" stroke-linecap="butt"/><path d="M224.77741,174.9137c3.75431,-0.29858 7.00259,2.0346 7.25524,5.21133c0.25265,3.17673 -2.58601,5.99402 -6.34032,6.2926c-3.75431,0.29858 -7.00259,-2.0346 -7.25524,-5.21133c-0.25265,-3.17673 2.58601,-5.99402 6.34032,-6.2926z" fill="#ffd1d1" stroke="none" stroke-width="0" stroke-linecap="butt"/><path d="M216.05336,178.11466c0.55594,-0.00053 1.00809,1.54236 1.0099,3.44613c0.00181,1.90377 -0.44739,3.44752 -1.00334,3.44805c-0.55594,0.00053 -1.00809,-1.54235 -1.0099,-3.44612c-0.00181,-1.90377 0.44739,-3.44752 1.00334,-3.44805z" fill="url(#color-6)" stroke="none" stroke-width="0" stroke-linecap="butt"/><path d="M256.89284,184.77038c0,0 -0.70082,7.89208 -0.69828,10.03914c0.00122,1.03484 0.7127,2.16386 0.7127,2.16386c0,0 -1.358,-0.78893 -2.20797,-0.82974c-1.13397,-0.05445 -3.99287,0.53199 -3.99287,0.53199l-2.34955,1.61351l3.52491,-13.71091z" fill="#000000" stroke="#000000" stroke-width="1.5" stroke-linecap="round"/><path d="M256.19309,186.66456l-0.18524,2.88601l-3.76744,-0.31855l0.75508,-2.57834z" data-paper-data="{&quot;index&quot;:null}" fill="#ffffff" stroke="#ffffff" stroke-width="1.5" stroke-linecap="round"/><path d="M251.82192,174.72099l-4.12841,-13.54143l2.41868,1.50793c0,0 2.88206,0.4593 4.01251,0.3547c0.84732,-0.0784 2.16907,-0.92667 2.16907,-0.92667c0,0 -0.66079,1.15941 -0.6162,2.19329c0.09251,2.14506 1.14201,9.99839 1.14201,9.99839z" data-paper-data="{&quot;index&quot;:null}" fill="#000000" stroke="#000000" stroke-width="1.5" stroke-linecap="round"/><path d="M253.02122,173.14862l-0.91674,-2.52539l3.73973,-0.55632l0.36751,2.8685z" data-paper-data="{&quot;index&quot;:null}" fill="#ffffff" stroke="#ffffff" stroke-width="1.5" stroke-linecap="round"/><path d="M259.99624,174.62612c0,0 0.83284,3.33362 0.93305,5.06063c0.10082,1.73757 -0.32993,5.33331 -0.32993,5.33331" fill="none" stroke="#000000" stroke-width="0.75" stroke-linecap="round"/><g fill="#ffd1d1" stroke="none" stroke-width="0" stroke-linecap="butt"><path d="M232.18903,156.8014c1.98927,-0.80491 4.13821,-0.13199 4.79978,1.50303c0.66158,1.63502 -0.41474,3.61298 -2.40401,4.41789c-1.98927,0.80491 -4.13821,0.13198 -4.79978,-1.50304c-0.66158,-1.63502 0.41474,-3.61297 2.40401,-4.41789z"/></g><g data-paper-data="{&quot;index&quot;:null}" fill="#ffd1d1" stroke="none" stroke-width="0" stroke-linecap="butt"><path d="M228.93128,200.16639c0.39482,-1.71903 2.41038,-2.72318 4.50187,-2.24281c2.09149,0.48037 3.46691,2.26334 3.0721,3.98237c-0.39482,1.71903 -2.41038,2.72317 -4.50187,2.2428c-2.09149,-0.48037 -3.46691,-2.26333 -3.07209,-3.98236z"/></g></g></g></g></svg>