<svg version="1.1" xmlns="http://www.w3.org/2000/svg" xmlns:xlink="http://www.w3.org/1999/xlink" width="450.57327" height="80.32498" viewBox="0,0,450.57327,80.32498"><g transform="translate(35.61093,-330.12353)"><g data-paper-data="{&quot;isPaintingLayer&quot;:true}" fill-rule="nonzero" stroke="none" stroke-width="0" stroke-linecap="butt" stroke-linejoin="miter" stroke-miterlimit="10" stroke-dasharray="" stroke-dashoffset="0" style="mix-blend-mode: normal"><path d="M414.95693,361.86124c0.57866,15.159 -45.35633,30.06359 -112.84946,39.05678c-28.07616,3.74105 -59.88285,6.45914 -93.62364,7.74711c-114.85132,4.38415 -242.15519,1.71553 -242.97456,-19.7494c-0.2742,-7.18315 -6.98539,-40.49672 15.97069,-48.62953c45.64203,-16.16991 147.61989,-6.43545 224.03668,-9.35246c114.85132,-4.38415 208.62092,9.46256 209.44029,30.92749z" fill="#1c81ab"/><path d="M35.12571,379.08995l-20.97656,-13.85833l249.94765,-26.22209l-20.36717,9.3707z" fill="#153577"/><path d="M53.65209,364.92038c-27.04024,1.03219 -45.7999,5.21895 -45.87439,3.26759c-0.07449,-1.95137 21.78557,-4.37 48.82581,-5.40219c27.04024,-1.03219 181.77134,-18.5648 181.77134,-18.5648c0,0 -47.05652,5.2044 -96.04622,10.88351c-37.10437,4.30131 -77.02289,9.37105 -88.67654,9.8159z" fill="#d0eaf1"/><path d="M95.19567,367.37843c-18.11974,0.69167 -32.79145,1.70436 -32.77017,2.26188c0.02128,0.55752 40.32798,4.25761 50.84035,1.03204c10.68628,-3.27896 9.57513,19.09424 9.56785,18.90339c-0.01098,-0.28762 -18.86573,-22.53215 -27.63802,-22.19729z" fill="#5eb8ce"/><path d="M213.49697,353.11322c0.0082,0.21474 -88.65764,42.4049 -88.65764,42.4049l105.91637,-51.97663c0,0 -55.27863,22.31554 -84.34049,27.44277c-55.35267,9.76556 -114.45548,11.67191 -126.03224,13.0566c-4.64761,0.5559 7.10238,-9.30588 10.76007,-7.6927c8.62141,3.80239 35.97533,3.4453 57.08051,1.49623c34.81312,-3.21499 -38.75885,-4.93269 -38.77389,-5.32652c-0.03547,-0.92921 52.13016,-6.37079 63.09493,-6.78934c3.12021,-0.11911 100.927,-13.28012 100.95237,-12.61532z" fill="#d0eaf1"/></g></g></svg>