<svg version="1.1" xmlns="http://www.w3.org/2000/svg" xmlns:xlink="http://www.w3.org/1999/xlink" width="70.02076" height="155.36735" viewBox="0,0,70.02076,155.36735"><defs><radialGradient cx="271.3264" cy="173.47204" r="17.48859" gradientUnits="userSpaceOnUse" id="color-1"><stop offset="0" stop-color="#000000" stop-opacity="0.63137"/><stop offset="1" stop-color="#000000" stop-opacity="0"/></radialGradient><linearGradient x1="271.3264" y1="155.98347" x2="271.3264" y2="190.96066" gradientUnits="userSpaceOnUse" id="color-2"><stop offset="0" stop-color="#ff5454"/><stop offset="1" stop-color="#eb0000"/></linearGradient><linearGradient x1="263.34763" y1="163.19285" x2="285.04994" y2="163.19285" gradientUnits="userSpaceOnUse" id="color-3"><stop offset="0" stop-color="#eb0000"/><stop offset="1" stop-color="#ff5454"/></linearGradient><radialGradient cx="282.48283" cy="208.52181" r="20.90193" gradientUnits="userSpaceOnUse" id="color-4"><stop offset="0" stop-color="#000000" stop-opacity="0.63137"/><stop offset="1" stop-color="#000000" stop-opacity="0"/></radialGradient><linearGradient x1="282.48283" y1="187.61988" x2="282.48283" y2="229.42376" gradientUnits="userSpaceOnUse" id="color-5"><stop offset="0" stop-color="#ff5454"/><stop offset="1" stop-color="#eb0000"/></linearGradient><radialGradient cx="285.90241" cy="272.69867" r="35.01038" gradientUnits="userSpaceOnUse" id="color-6"><stop offset="0" stop-color="#000000" stop-opacity="0.41223"/><stop offset="1" stop-color="#000000" stop-opacity="0"/></radialGradient><linearGradient x1="285.90241" y1="237.68835" x2="285.90242" y2="307.70914" gradientUnits="userSpaceOnUse" id="color-7"><stop offset="0" stop-color="#ff5454"/><stop offset="1" stop-color="#eb0000"/></linearGradient><linearGradient x1="269.91204" y1="193.86476" x2="284.8352" y2="189.41885" gradientUnits="userSpaceOnUse" id="color-8"><stop offset="0" stop-color="#000000"/><stop offset="1" stop-color="#929292"/></linearGradient><linearGradient x1="269.91204" y1="193.86476" x2="284.8352" y2="189.41885" gradientUnits="userSpaceOnUse" id="color-9"><stop offset="0" stop-color="#929292" stop-opacity="0"/><stop offset="1" stop-color="#929292"/></linearGradient><linearGradient x1="286.29692" y1="233.12523" x2="286.29691" y2="300.50882" gradientUnits="userSpaceOnUse" id="color-10"><stop offset="0" stop-color="#ffffff"/><stop offset="1" stop-color="#bababa"/></linearGradient><linearGradient x1="290.39498" y1="220.88463" x2="283.6565" y2="222.96183" gradientUnits="userSpaceOnUse" id="color-11"><stop offset="0" stop-color="#c6c6c6"/><stop offset="1" stop-color="#6b6b6b"/></linearGradient><linearGradient x1="289.32982" y1="211.98698" x2="282.80334" y2="222.04184" gradientUnits="userSpaceOnUse" id="color-12"><stop offset="0" stop-color="#ff5454"/><stop offset="1" stop-color="#ce0000"/></linearGradient><linearGradient x1="275.89162" y1="207.30484" x2="289.42384" y2="207.30484" gradientUnits="userSpaceOnUse" id="color-13"><stop offset="0" stop-color="#000000"/><stop offset="1" stop-color="#929292"/></linearGradient><linearGradient x1="282.3746" y1="227.69078" x2="295.90681" y2="227.69078" gradientUnits="userSpaceOnUse" id="color-14"><stop offset="0" stop-color="#000000"/><stop offset="1" stop-color="#929292"/></linearGradient><linearGradient x1="262.24719" y1="196.06488" x2="283.94951" y2="196.06487" gradientUnits="userSpaceOnUse" id="color-15"><stop offset="0" stop-color="#eb0000"/><stop offset="1" stop-color="#ff5454"/></linearGradient><linearGradient x1="290.34826" y1="234.48333" x2="296.09873" y2="265.63684" gradientUnits="userSpaceOnUse" id="color-16"><stop offset="0" stop-color="#ffffff"/><stop offset="1" stop-color="#ffffff" stop-opacity="0"/></linearGradient><linearGradient x1="281.29806" y1="297.75269" x2="277.35842" y2="290.38855" gradientUnits="userSpaceOnUse" id="color-17"><stop offset="0" stop-color="#ffffff" stop-opacity="0.77809"/><stop offset="1" stop-color="#ffffff" stop-opacity="0"/></linearGradient><linearGradient x1="287.73297" y1="289.57425" x2="270.92355" y2="298.56698" gradientUnits="userSpaceOnUse" id="color-18"><stop offset="0" stop-color="#ab0000"/><stop offset="1" stop-color="#ff5454"/></linearGradient></defs><g transform="translate(-250.89202,-152.3417)"><g data-paper-data="{&quot;isPaintingLayer&quot;:true}" fill-rule="nonzero" stroke-linejoin="miter" stroke-miterlimit="10" stroke-dasharray="" stroke-dashoffset="0" style="mix-blend-mode: normal"><path d="M253.83782,173.47203c0,-9.65869 7.82992,-17.48859 17.4886,-17.48859c9.65868,0 17.48859,7.82992 17.48859,17.48859c0,9.65869 -7.82991,17.4886 -17.48859,17.4886c-9.65868,0 -17.4886,-7.82992 -17.4886,-17.4886z" fill="url(#color-1)" stroke="url(#color-2)" stroke-width="0" stroke-linecap="butt"/><path d="M263.34763,163.19285c0,-5.99293 4.85823,-10.85115 10.85115,-10.85115c5.99293,0 10.85115,4.85823 10.85115,10.85115c0,5.99293 -4.85823,10.85115 -10.85115,10.85115c-5.99293,0 -10.85115,-4.85823 -10.85115,-10.85115z" fill="url(#color-3)" stroke="#000000" stroke-width="0" stroke-linecap="butt"/><path d="M261.58092,208.52181c0,-11.54382 9.35812,-20.90193 20.90193,-20.90193c11.54381,0 20.90193,9.35812 20.90193,20.90193c0,11.54382 -9.35812,20.90193 -20.90193,20.90193c-11.54381,0 -20.90193,-9.35812 -20.90193,-20.90193z" fill="url(#color-4)" stroke="url(#color-5)" stroke-width="0" stroke-linecap="butt"/><path d="M250.89202,272.69867c0,-19.3357 15.67469,-35.01038 35.01038,-35.01038c19.33568,0 35.01038,15.67469 35.01038,35.01038c0,19.3357 -15.67469,35.01038 -35.01038,35.01038c-19.33568,0 -35.01038,-15.67469 -35.01038,-35.01038z" fill="url(#color-6)" stroke="url(#color-7)" stroke-width="0" stroke-linecap="butt"/><g><path d="M276.63705,199.60258l-15.53732,-35.31769c0,0 -1.68173,-7.66568 5.41631,-9.73743c6.96237,-2.03216 9.50685,5.29158 9.50685,5.29158l7.15683,37.6122z" fill="url(#color-8)" stroke="url(#color-9)" stroke-width="0" stroke-linecap="butt"/><path d="M293.4031,233.12524c0,0 4.83148,5.95566 6.51033,8.73589c1.26121,2.08859 4.81153,9.50128 5.25706,15.28071c1.03149,13.3805 0.33744,12.01672 -2.52524,21.31668c-3.53557,11.48593 -17.5853,19.02133 -17.5853,19.02133c0,0 -7.54365,4.30118 -11.81453,2.80133c-7.60479,-2.86948 -5.371,-8.69351 -5.10183,-16.8172c0.10109,-3.05089 -1.43872,-9.06364 0.19384,-11.64296c0.75718,-1.19629 12.43178,-12.28164 15.61314,-18.54851c3.49432,-6.88335 4.12257,-18.84317 4.12257,-18.84317z" fill="url(#color-10)" stroke="#ffffff" stroke-width="0" stroke-linecap="butt"/><path d="M292.8286,215.21523l1.79,19.37091l-6.73845,2.07721l-9.01003,-16.89993l-2.88241,-22.47696l6.63896,-1.96472z" fill="url(#color-11)" stroke="#ffffff" stroke-width="0" stroke-linecap="butt"/><path d="M277.77591,218.96398l15.66475,-4.0285" fill="none" stroke="url(#color-12)" stroke-width="7.5" stroke-linecap="round"/><path d="M289.42384,205.26576l-13.53222,3.70746" fill="none" stroke="url(#color-13)" stroke-width="3.5" stroke-linecap="round"/><path d="M282.3746,229.35914l13.53222,-3.70746" fill="none" stroke="url(#color-14)" stroke-width="3.5" stroke-linecap="round"/></g><path d="M262.24719,196.06488c0,-5.99292 4.85823,-10.85116 10.85115,-10.85116c5.99293,0 10.85116,4.85823 10.85116,10.85116c0,5.99292 -4.85823,10.85115 -10.85116,10.85115c-5.99292,0 -10.85115,-4.85823 -10.85115,-10.85115z" fill="url(#color-15)" stroke="#000000" stroke-width="0" stroke-linecap="butt"/><path d="M288.99109,263.31659l1.08819,-22.07284l-6.59597,18.14758l4.68981,-23.0633l6.25636,-1.688c0,0 1.84403,2.53188 2.57541,3.79599c0.65185,1.12665 3.17324,4.85244 3.17324,4.85244l3.62402,18.40775l-6.14592,-18.91295l2.47638,22.01146l-5.84563,-22.30212l-0.16039,22.76177l-2.3155,-23.1375z" fill="url(#color-16)" stroke="#000000" stroke-width="0" stroke-linecap="butt"/><path d="M269.74044,297.23793c-0.07105,-2.60811 -3.10847,-4.28076 -1.63025,-6.43068c3.40194,-4.94776 14.38391,-8.24066 17.94174,-10.14402c3.32503,-1.77882 11.80542,-2.98667 16.5535,-4.75039c1.88032,-0.69846 -3.80502,8.56369 -5.88487,11.48639c-1.33717,1.87906 -9.96582,8.61555 -14.60762,11.09881c-2.52739,1.3521 -5.68531,1.65201 -8.6039,1.83701c0,0 -3.69643,-0.44799 -3.7686,-3.09712z" fill="url(#color-17)" stroke="url(#color-18)" stroke-width="0" stroke-linecap="butt"/></g></g></svg>