<svg version="1.1" xmlns="http://www.w3.org/2000/svg" xmlns:xlink="http://www.w3.org/1999/xlink" width="37.6" height="43.6" viewBox="0,0,37.6,43.6"><g transform="translate(-221.20009,-158.2)"><g data-paper-data="{&quot;isPaintingLayer&quot;:true}" fill-rule="nonzero" stroke="none" stroke-linecap="butt" stroke-linejoin="miter" stroke-miterlimit="10" stroke-dasharray="" stroke-dashoffset="0" style="mix-blend-mode: normal"><path d="M221.20009,201.8v-43.6h37.6v43.6z" fill="none" stroke-width="0"/><path d="M230.691,191.55108v-15.983c0,-0.98962 0.27113,-1.78945 0.8134,-2.39947c0.55581,-0.62361 1.28107,-0.93541 2.17579,-0.93541c0.77272,0 1.39632,0.19657 1.8708,0.58971c0.48803,0.39314 0.78627,0.9354 0.89472,1.62677c1.16584,-1.64032 3.09085,-2.46048 5.77502,-2.46048c1.57254,0 2.98241,0.32535 4.22961,0.97605c1.24718,0.63715 2.22324,1.56577 2.92818,2.78584c0.70493,1.20653 1.0574,2.64351 1.0574,4.31096v11.48904c0,0.65072 -0.12879,1.23364 -0.38637,1.74878c-0.25758,0.50159 -0.61682,0.89472 -1.07772,1.17939c-0.46092,0.27114 -0.97607,0.40671 -1.54544,0.40671c-0.89473,0 -1.62,-0.30502 -2.17581,-0.91507c-0.54225,-0.62359 -0.81337,-1.4302 -0.81337,-2.41982v-10.45198c0,-1.34209 -0.36602,-2.35882 -1.09807,-3.05019c-0.7185,-0.70493 -1.66067,-1.0574 -2.82653,-1.0574c-0.78626,0 -1.47086,0.18301 -2.0538,0.54902c-0.58292,0.35247 -1.02349,0.83372 -1.32173,1.44377c-0.29825,0.61005 -0.44737,1.31498 -0.44737,2.1148v10.45198c0,0.65072 -0.12879,1.23364 -0.38637,1.74878c-0.25756,0.50159 -0.6168,0.89472 -1.07772,1.17939c-0.46092,0.27114 -0.97607,0.40671 -1.54544,0.40671c-0.89471,0 -1.61998,-0.30502 -2.17579,-0.91507c-0.54226,-0.62359 -0.8134,-1.4302 -0.8134,-2.41982z" fill="#ff0000" stroke-width="0.40889"/></g></g></svg>