<svg version="1.1" xmlns="http://www.w3.org/2000/svg" xmlns:xlink="http://www.w3.org/1999/xlink" width="107.09774" height="107.09774" viewBox="0,0,107.09774,107.09774"><defs><radialGradient cx="240.00003" cy="180.00003" r="36.7832" gradientUnits="userSpaceOnUse" id="color-1"><stop offset="0" stop-color="#000000"/><stop offset="1" stop-color="#000000" stop-opacity="0"/></radialGradient><radialGradient cx="240.00007" cy="180.00005" r="53.54887" gradientUnits="userSpaceOnUse" id="color-2"><stop offset="0" stop-color="#ff0000"/><stop offset="1" stop-color="#ff0000" stop-opacity="0"/></radialGradient><radialGradient cx="240.00004" cy="180.00001" r="32.79887" gradientUnits="userSpaceOnUse" id="color-3"><stop offset="0" stop-color="#ff0000"/><stop offset="1" stop-color="#ff0000" stop-opacity="0"/></radialGradient></defs><g transform="translate(-186.45112,-126.45107)"><g data-paper-data="{&quot;isPaintingLayer&quot;:true}" fill-rule="nonzero" stroke-linejoin="miter" stroke-miterlimit="10" stroke-dasharray="" stroke-dashoffset="0" style="mix-blend-mode: normal"><path d="M203.23123,178.97001c0.56886,-20.30684 17.49197,-36.30762 37.79879,-35.73876c20.30684,0.56886 36.30762,17.49197 35.73876,37.79879c-0.56887,20.30684 -17.49197,36.30762 -37.79879,35.73876c-20.30684,-0.56886 -36.30762,-17.49197 -35.73876,-37.79879z" fill="url(#color-1)" stroke="#000000" stroke-width="0" stroke-linecap="butt"/><path d="M186.45118,180.08066c-0.04459,-29.5742 23.89392,-53.58495 53.46809,-53.62952c29.5742,-0.04459 53.58494,23.89392 53.62952,53.46809c0.04459,29.5742 -23.89392,53.58494 -53.46807,53.62952c-29.5742,0.04459 -53.58494,-23.89391 -53.62952,-53.46807z" fill="url(#color-2)" stroke="#000000" stroke-width="0" stroke-linecap="butt"/><path d="M207.20116,180.04938c-0.02731,-18.1143 14.63511,-32.82097 32.74939,-32.84827c18.1143,-0.02731 32.82096,14.63511 32.84827,32.74939c0.02731,18.1143 -14.63511,32.82096 -32.74938,32.84827c-18.1143,0.02731 -32.82096,-14.6351 -32.84827,-32.74938z" fill="url(#color-3)" stroke="#000000" stroke-width="0" stroke-linecap="butt"/><path d="M197.08067,222.70179l-0.12855,-85.27395l85.96724,-0.12959l0.12854,85.27396z" fill="none" stroke="none" stroke-width="NaN" stroke-linecap="butt"/><path d="M216.06472,180.03607c-0.01993,-13.21911 10.68013,-23.95147 23.89923,-23.97139c13.21911,-0.01993 23.95146,10.68012 23.97139,23.89923c0.01993,13.21911 -10.68012,23.95147 -23.89923,23.9714c-13.21911,0.01993 -23.95147,-10.68012 -23.97139,-23.89923z" fill="#000000" stroke="#000000" stroke-width="0" stroke-linecap="butt"/><path d="M246.17998,190.24613c-0.00367,-2.44128 1.97238,-4.42331 4.41366,-4.42699c2.44128,-0.00367 4.42332,1.97239 4.42699,4.41367c0.00367,2.44128 -1.97239,4.42332 -4.41367,4.42699c-2.44128,0.00367 -4.42332,-1.97239 -4.42699,-4.41367z" fill="#ffffff" stroke="#000000" stroke-width="0" stroke-linecap="butt"/><path d="M246.197,168.90089c-0.00367,-2.44128 1.97238,-4.42332 4.41366,-4.42699c2.44128,-0.00367 4.42332,1.97239 4.42699,4.41367c0.00367,2.44128 -1.97239,4.42331 -4.41367,4.42699c-2.44128,0.00367 -4.42332,-1.97239 -4.42699,-4.41367z" fill="#ffffff" stroke="#000000" stroke-width="0" stroke-linecap="butt"/><path d="M257.08925,190.5601l-0.03359,-22.27846" fill="none" stroke="#ffffff" stroke-width="2" stroke-linecap="round"/></g></g></svg>