<svg version="1.1" xmlns="http://www.w3.org/2000/svg" xmlns:xlink="http://www.w3.org/1999/xlink" width="192.91032" height="158.5269" viewBox="0,0,192.91032,158.5269"><defs><linearGradient x1="208.91691" y1="212.82192" x2="258.30582" y2="199.90436" gradientUnits="userSpaceOnUse" id="color-1"><stop offset="0" stop-color="#ffffff"/><stop offset="1" stop-color="#dcd0e8"/></linearGradient><linearGradient x1="282.41653" y1="224.80344" x2="334.34095" y2="206.12514" gradientUnits="userSpaceOnUse" id="color-2"><stop offset="0" stop-color="#dcd0e8"/><stop offset="1" stop-color="#ffffff"/></linearGradient><linearGradient x1="176.29395" y1="181.53983" x2="205.13613" y2="194.46527" gradientUnits="userSpaceOnUse" id="color-3"><stop offset="0" stop-color="#ffffff"/><stop offset="1" stop-color="#dcd0e8"/></linearGradient><linearGradient x1="188.57258" y1="151.0047" x2="267.93051" y2="230.36263" gradientUnits="userSpaceOnUse" id="color-4"><stop offset="0" stop-color="#f6f3f9"/><stop offset="1" stop-color="#e7def0"/></linearGradient><linearGradient x1="239.64517" y1="216.57641" x2="289.33195" y2="204.8566" gradientUnits="userSpaceOnUse" id="color-5"><stop offset="0" stop-color="#ffffff"/><stop offset="1" stop-color="#dcd0e8"/></linearGradient><linearGradient x1="182.75113" y1="94.99493" x2="182.75113" y2="128.26828" gradientUnits="userSpaceOnUse" id="color-6"><stop offset="0" stop-color="#000000"/><stop offset="1" stop-color="#636363"/></linearGradient><linearGradient x1="169.84666" y1="107.20651" x2="214.36743" y2="151.72727" gradientUnits="userSpaceOnUse" id="color-7"><stop offset="0" stop-color="#ffffff"/><stop offset="1" stop-color="#e9e0f2"/></linearGradient><linearGradient x1="192.4312" y1="113.53474" x2="192.4312" y2="132.16768" gradientUnits="userSpaceOnUse" id="color-8"><stop offset="0" stop-color="#000000"/><stop offset="1" stop-color="#636363"/></linearGradient><linearGradient x1="223.59223" y1="97.61478" x2="223.59223" y2="130.88813" gradientUnits="userSpaceOnUse" id="color-9"><stop offset="0" stop-color="#ffffff"/><stop offset="1" stop-color="#dcd0e8"/></linearGradient><linearGradient x1="171.52803" y1="205.1551" x2="234.23188" y2="198.77857" gradientUnits="userSpaceOnUse" id="color-10"><stop offset="0" stop-color="#ffffff"/><stop offset="1" stop-color="#eae2f1"/></linearGradient><linearGradient x1="166.61686" y1="129.31796" x2="166.61686" y2="133.86714" gradientUnits="userSpaceOnUse" id="color-11"><stop offset="0" stop-color="#ffffff"/><stop offset="1" stop-color="#000000"/></linearGradient><linearGradient x1="230.476" y1="103.54788" x2="230.476" y2="116.68995" gradientUnits="userSpaceOnUse" id="color-12"><stop offset="0" stop-color="#000000"/><stop offset="1" stop-color="#000000" stop-opacity="0"/></linearGradient><linearGradient x1="227.94868" y1="116.68995" x2="227.94868" y2="121.99733" gradientUnits="userSpaceOnUse" id="color-13"><stop offset="0" stop-color="#000000"/><stop offset="1" stop-color="#000000" stop-opacity="0"/></linearGradient><linearGradient x1="235.78338" y1="116.94269" x2="235.78338" y2="125.78832" gradientUnits="userSpaceOnUse" id="color-14"><stop offset="0" stop-color="#000000"/><stop offset="1" stop-color="#000000" stop-opacity="0"/></linearGradient><linearGradient x1="238.18434" y1="109.86618" x2="238.18434" y2="116.43722" gradientUnits="userSpaceOnUse" id="color-15"><stop offset="0" stop-color="#000000"/><stop offset="1" stop-color="#000000" stop-opacity="0"/></linearGradient><linearGradient x1="249.72287" y1="150.6659" x2="249.72287" y2="177.73156" gradientUnits="userSpaceOnUse" id="color-16"><stop offset="0" stop-color="#636363"/><stop offset="1" stop-color="#000000"/></linearGradient></defs><g transform="translate(-155.79578,-92.63014)"><g data-paper-data="{&quot;isPaintingLayer&quot;:true}" fill-rule="nonzero" stroke="none" stroke-width="0" stroke-linecap="butt" stroke-linejoin="miter" stroke-miterlimit="10" stroke-dasharray="" stroke-dashoffset="0" style="mix-blend-mode: normal"><path d="M229.54128,246.91392l-5.96282,-4.45407l0.67209,-6.86459l10.52138,-8.67326l-17.82477,-19.30012l-10.92571,-19.56788l12.32084,-14.37141l14.44183,0.94678l9.42559,4.61403l14.03715,12.78876l3.96411,17.20564l-3.73059,9.35047l4.18561,6.35l-11.74791,17.47036z" fill="url(#color-1)"/><path d="M285.16877,213.02667l-14.8535,-27.77673l34.61326,14.28785l21.60808,2.75168l22.16949,1.44925l-17.57552,9.77913l-20.6963,4.6741z" fill="url(#color-2)"/><path d="M167.09645,203.80052l22.65166,-43.65796l25.46515,-4.26681l-21.69083,37.37886l-7.21959,27.49434l-13.95385,9.82024l-6.87945,-6.67453z" fill="url(#color-3)"/><path d="M209.0498,209.91024l-22.36769,-39.78164l-0.43631,-11.31866l4.8541,-10.33256l35.63525,-11.87841l11.89711,16.9514l11.9968,10.52087l13.92403,16.57841l-0.16082,53.25123l-26.71006,-10.56769z" fill="url(#color-4)"/><path d="M259.43934,251.15704l-5.8534,-4.59692l0.83784,-6.84633l10.72799,-8.41637l-19.63962,-6.70094l-6.95804,-12.64569l-1.20477,-20.20505l12.66467,-14.06935l14.41472,1.29563l9.3113,4.84054l13.72388,13.12437l3.547,17.29644l-3.95555,9.25755l4.03087,6.44933l-12.16682,17.18124z" fill="url(#color-5)"/><path d="M172.51818,128.26828l-8.34557,-12.47042l6.70281,-18.29523l18.49952,-2.5077l11.95472,6.73646l-3.79098,22.7459z" fill="url(#color-6)"/><path d="M161.32578,151.55443l-5.53,-12.32025l3.50317,-10.10524l10.33309,-2.76257l-1.46915,-13.61349l7.71355,-11.57615l21.49777,-8.54659l21.92411,6.1583l13.90891,16.19356l-7.03146,24.93694l-10.2648,8.41767l-17.0313,9.67442l-14.19018,0.7018z" fill="url(#color-7)"/><path d="M174.8763,128.66725l0.59799,9.47746l-9.85656,2.31837l-9.09836,-2.65369l3.95119,-9.14214z" data-paper-data="{&quot;index&quot;:null}" fill="#000000"/><path d="M188.21097,132.16768l-5.91402,-10.51446l9.26019,-8.11848l11.0083,3.96452l-1.58749,12.18528z" data-paper-data="{&quot;index&quot;:null}" fill="url(#color-8)"/><path d="M178.60424,121.94932l-3.32223,3.49852l-4.99002,-0.3812l-0.79486,-5.94169l5.31701,-2.06334z" data-paper-data="{&quot;index&quot;:null}" fill="#000000"/><path d="M215.47229,127.09715l-9.82675,-22.7459l11.95472,-6.73646l20.69152,4.10172l7.28092,17.03653l-7.42717,13.14106z" data-paper-data="{&quot;index&quot;:null}" fill="url(#color-9)"/><path d="M181.06471,212.57394l17.38707,-48.58724l19.23505,-2.29011l-12.36401,53.63828l-5.20632,14.09494l-7.19393,8.2215l-13.39815,-4.14201z" fill="url(#color-10)"/><path d="M160.36174,133.86714l0.7582,-4.54918h10.99385l-0.7582,4.54918z" fill="url(#color-11)"/><path d="M225.54773,110.87712l5.05465,-7.32924l4.80191,5.30738l-5.30738,7.8347z" data-paper-data="{&quot;index&quot;:null}" fill="url(#color-12)"/><path d="M224.78953,121.99733l2.27459,-5.30738l4.04371,5.30738z" fill="url(#color-13)"/><path d="M231.6133,125.28286l0.50547,-6.06557l4.34181,1.30756l3.4929,-3.58215l-0.56646,6.09172l-2.97178,2.75391z" fill="url(#color-14)"/><path d="M234.89882,116.43722l4.80191,-6.57103l1.76912,4.80192z" fill="url(#color-15)"/><path d="M238.25437,163.96936l-2.06433,-13.30346l13.07409,10.55102l13.99157,16.51464l-13.57424,-3.08499z" fill="url(#color-16)"/></g></g></svg>