<svg version="1.1" xmlns="http://www.w3.org/2000/svg" xmlns:xlink="http://www.w3.org/1999/xlink" width="246.80475" height="147.3698" viewBox="0,0,246.80475,147.3698"><defs><radialGradient cx="215.16088" cy="181.07013" r="7.64661" gradientUnits="userSpaceOnUse" id="color-1"><stop offset="0" stop-color="#ffffff"/><stop offset="1" stop-color="#ffffff" stop-opacity="0"/></radialGradient><radialGradient cx="215.21086" cy="167.68276" r="2.76802" gradientUnits="userSpaceOnUse" id="color-2"><stop offset="0" stop-color="#ffffff" stop-opacity="0"/><stop offset="1" stop-color="#ffffff"/></radialGradient><radialGradient cx="203.75439" cy="187.91724" r="2.768" gradientUnits="userSpaceOnUse" id="color-3"><stop offset="0" stop-color="#ffffff" stop-opacity="0"/><stop offset="1" stop-color="#ffffff"/></radialGradient><radialGradient cx="226.64531" cy="187.6889" r="2.76801" gradientUnits="userSpaceOnUse" id="color-4"><stop offset="0" stop-color="#ffffff" stop-opacity="0"/><stop offset="1" stop-color="#ffffff"/></radialGradient></defs><g transform="translate(-83.11668,-54.1302)"><g data-paper-data="{&quot;isPaintingLayer&quot;:true}" fill-rule="nonzero" stroke-linejoin="miter" stroke-miterlimit="10" stroke-dasharray="" stroke-dashoffset="0" style="mix-blend-mode: normal"><text transform="translate(83.36668,75.83267) scale(0.5,0.5)" font-size="40" xml:space="preserve" fill="#010101" fill-rule="nonzero" stroke="none" stroke-width="1" stroke-linecap="butt" stroke-linejoin="miter" stroke-miterlimit="10" stroke-dasharray="" stroke-dashoffset="0" font-family="Sans Serif" font-weight="normal" text-anchor="start" style="mix-blend-mode: normal"><tspan x="0" dy="0">New Mobile Controls Plan</tspan><tspan x="0" dy="46.150000000000006px">新しい携帯操作の計画</tspan></text><g stroke-linecap="butt"><path d="M193.5,180c0,-11.87412 9.62588,-21.5 21.5,-21.5c11.87412,0 21.5,9.62588 21.5,21.5c0,11.87412 -9.62588,21.5 -21.5,21.5c-11.87412,0 -21.5,-9.62588 -21.5,-21.5z" fill="#808080" stroke="#000000" stroke-width="0"/><g><path d="M204.06194,187.45504l11.129,-19.5281l11.24573,19.5281z" data-paper-data="{&quot;index&quot;:null}" fill="none" stroke="#ffffff" stroke-width="2"/><path d="M207.56424,184.91265c0,-3.75709 5.83824,-12.23222 7.64662,-12.23222c1.80839,0 7.64663,8.47512 7.64663,12.23223c0,2.26407 -15.29325,2.72347 -15.29325,0z" data-paper-data="{&quot;index&quot;:null}" fill="url(#color-1)" stroke="none" stroke-width="2.5"/><path d="M212.51975,172.17163v-3.76756h5.45912v3.76756z" fill="#ffffff" stroke="none" stroke-width="1"/><path d="M212.44286,167.68276c0,-1.52873 1.23927,-2.76801 2.768,-2.76801c1.52873,0 2.76802,1.23928 2.76802,2.76801c0,1.52873 -1.23929,2.768 -2.76802,2.768c-1.52873,0 -2.768,-1.23928 -2.768,-2.768z" data-paper-data="{&quot;index&quot;:null}" fill="url(#color-2)" stroke="#ffffff" stroke-width="1.5"/><path d="M202.75702,185.21061l3.08039,-2.16928l3.14325,4.46342l-3.08039,2.16929z" fill="#ffffff" stroke="none" stroke-width="1"/><path d="M200.98638,187.91724c0,-1.52873 1.23928,-2.768 2.76801,-2.768c1.52873,0 2.768,1.23927 2.768,2.768c0,1.52873 -1.23928,2.76801 -2.768,2.76801c-1.52873,0 -2.76801,-1.23928 -2.76801,-2.76801z" data-paper-data="{&quot;index&quot;:null}" fill="url(#color-3)" stroke="#ffffff" stroke-width="1.5"/><path d="M224.51863,183.06257l3.14513,2.07432l-3.00564,4.55722l-3.14513,-2.07432z" fill="#ffffff" stroke="none" stroke-width="1"/><path d="M228.1693,185.3782c1.27616,0.84168 1.62839,2.55853 0.78671,3.8347c-0.84168,1.27616 -2.55852,1.62839 -3.83468,0.78672c-1.27616,-0.84168 -1.62839,-2.55853 -0.78672,-3.83469c0.84168,-1.27616 2.55853,-1.62839 3.83469,-0.78673z" data-paper-data="{&quot;index&quot;:null}" fill="url(#color-4)" stroke="#ffffff" stroke-width="1.5"/></g></g><g stroke-linecap="butt"><path d="M283.5,180c0,-11.87412 9.62588,-21.5 21.5,-21.5c11.87412,0 21.5,9.62588 21.5,21.5c0,11.87412 -9.62588,21.5 -21.5,21.5c-11.87412,0 -21.5,-9.62588 -21.5,-21.5z" fill="#808080" stroke="#000000" stroke-width="0"/><path d="M288.7069,187l5.68276,-9.25h21.42069l5.48276,9.25z" fill="#ffffff" stroke="none" stroke-width="0"/><path d="M298.36053,171.93948c0,-3.66688 2.9726,-6.63948 6.63948,-6.63948c3.66688,0 6.63948,2.97259 6.63948,6.63948c0,3.66688 -6.7921,10.76053 -6.7921,10.76053c0,0 -6.48685,-7.09364 -6.48685,-10.76053z" fill="#ffffff" stroke="#808080" stroke-width="2.5"/><path d="M302.52,171.6c0,-1.36967 1.11033,-2.48 2.48,-2.48c1.36967,0 2.48,1.11033 2.48,2.48c0,1.36967 -1.11033,2.48 -2.48,2.48c-1.36967,0 -2.48,-1.11033 -2.48,-2.48z" fill="#808080" stroke="none" stroke-width="0"/></g><g><path d="M238.5,180c0,-11.87412 9.62588,-21.5 21.5,-21.5c11.87412,0 21.5,9.62588 21.5,21.5c0,11.87412 -9.62588,21.5 -21.5,21.5c-11.87412,0 -21.5,-9.62588 -21.5,-21.5z" fill="#808080" stroke="#000000" stroke-width="0" stroke-linecap="butt"/><path d="M246.20001,180c0,-7.62153 6.17846,-13.8 13.8,-13.8c7.62153,0 13.8,6.17847 13.8,13.8c0,7.62153 -6.17847,13.8 -13.8,13.8c-7.62153,0 -13.8,-6.17847 -13.8,-13.8z" fill="#ffffff" stroke="none" stroke-width="0" stroke-linecap="butt"/><path d="M269.58115,178.85944c0,0 0.00182,10.61238 -9.63373,10.56683c-9.63555,-0.04554 -9.292,-10.29589 -9.292,-10.29589" fill="none" stroke="#808080" stroke-width="2.5" stroke-linecap="round"/><path d="M252.15372,175.26857c0,-1.06701 0.86498,-1.932 1.932,-1.932c1.06702,0 1.932,0.86498 1.932,1.932c0,1.06701 -0.86498,1.932 -1.932,1.932c-1.06702,0 -1.932,-0.86499 -1.932,-1.932z" fill="#808080" stroke="#808080" stroke-width="1" stroke-linecap="butt"/><path d="M263.98229,175.26857c0,-1.06701 0.86498,-1.932 1.932,-1.932c1.06702,0 1.932,0.86498 1.932,1.932c0,1.06701 -0.86498,1.932 -1.932,1.932c-1.06702,0 -1.932,-0.86499 -1.932,-1.932z" fill="#808080" stroke="#808080" stroke-width="1" stroke-linecap="butt"/></g><g stroke-width="0" stroke-linecap="butt"><path d="M148.5,180c0,-11.87412 9.62588,-21.5 21.5,-21.5c11.87412,0 21.5,9.62588 21.5,21.5c0,11.87412 -9.62588,21.5 -21.5,21.5c-11.87412,0 -21.5,-9.62588 -21.5,-21.5z" fill="#808080" stroke="#000000"/><path d="M154.32048,185.00927c0,0 0.16788,-4.1689 1.85946,-5.81743c2.34176,-2.28216 6.82138,-2.62403 9.18278,-4.40092c1.34754,-1.014 1.87266,-2.2117 1.87266,-2.2117c0,0 -3.7329,-3.22792 -3.502,-5.15721c0.14491,-1.21082 3.89786,-1.34447 5.84779,-1.35954c2.17366,-0.0168 10.4723,0.95086 12.0881,2.51815c1.27995,1.24151 2.51908,9.57646 2.52403,12.07638c0.00469,2.37135 -0.27602,5.46977 -1.67811,5.50799c-1.90546,0.05194 -4.98587,-3.28706 -4.98587,-3.28706c0,0 -1.64053,0.85202 -2.52411,2.1664c-1.22619,1.82405 -1.49307,6.20583 -3.50105,8.59942c-1.86108,2.21848 -5.90097,2.48846 -5.90097,2.48846c0,0 -0.81558,-5.37287 0.34871,-7.13892c1.09063,-1.65432 5.2142,-2.61509 5.2142,-2.61509c0,0 -2.91639,-1.46205 -4.03616,-2.54541c-1.2337,-1.19358 -3.05741,-4.31748 -3.05741,-4.31748c0,0 -0.59261,4.53189 -3.53039,5.16499c-2.76603,0.59608 -6.22165,0.32898 -6.22165,0.32898z" fill="#ffffff" stroke="none"/><path d="M168.30313,175.73246c0.57117,-0.57117 1.57382,-0.49457 2.23948,0.17109c0.66566,0.66566 0.74226,1.66832 0.17109,2.23949c-0.57117,0.57117 -1.57383,0.49456 -2.23949,-0.17109c-0.66566,-0.66566 -0.74225,-1.66831 -0.17108,-2.23948z" fill="#808080" stroke="none"/><path d="M172.09879,179.55089c0.57117,-0.57117 1.57382,-0.49458 2.23949,0.17108c0.66566,0.66566 0.74226,1.66832 0.17109,2.23949c-0.57117,0.57117 -1.57384,0.49457 -2.2395,-0.17109c-0.66566,-0.66566 -0.74225,-1.66832 -0.17108,-2.23949z" fill="#808080" stroke="none"/></g></g></g></svg>