<svg version="1.1" xmlns="http://www.w3.org/2000/svg" xmlns:xlink="http://www.w3.org/1999/xlink" width="213.67746" height="111.45964" viewBox="0,0,213.67746,111.45964"><g transform="translate(-26.15381,-112.38133)"><g data-paper-data="{&quot;isPaintingLayer&quot;:true}" fill-rule="nonzero" stroke-linecap="butt" stroke-linejoin="miter" stroke-miterlimit="10" stroke-dasharray="" stroke-dashoffset="0" style="mix-blend-mode: normal"><path d="M28.52576,221.47181c-2.66144,-2.62498 -2.36183,-7.87277 -2.36183,-7.87277v-91.58653c0,0 0.03701,-4.60457 2.62425,-7.08549c2.58725,-2.48092 6.95427,-2.09941 6.95427,-2.09941h177.84565c0,0 3.31291,-0.26945 5.96755,2.0994c2.65464,2.36885 3.14911,6.03579 3.14911,6.03579l0.49644,64.86835l16.63007,-5.50482l-16.33923,43.5073h-186.96229c0,0 -5.34255,0.26316 -8.00399,-2.36182z" fill-opacity="0.50196" fill="#000000" stroke="none" stroke-width="0"/><text transform="translate(30.4267,129.22567) scale(0.37525,0.37525)" font-size="40" xml:space="preserve" fill="#ffffff" fill-rule="nonzero" stroke="none" stroke-width="1" stroke-linecap="butt" stroke-linejoin="miter" stroke-miterlimit="10" stroke-dasharray="" stroke-dashoffset="0" font-family="Sans Serif" font-weight="normal" text-anchor="start" style="mix-blend-mode: normal"><tspan x="0" dy="0">                                with</tspan><tspan x="0" dy="46.150000000000006px"> </tspan><tspan x="0" dy="46.150000000000006px">You can            in your ink!</tspan></text><text transform="translate(191.76004,128.89233) scale(0.37525,0.37525)" font-size="40" xml:space="preserve" fill="#00e5ff" fill-rule="nonzero" stroke="#00e4ff" stroke-width="2" stroke-linecap="butt" stroke-linejoin="miter" stroke-miterlimit="10" stroke-dasharray="" stroke-dashoffset="0" font-family="Sans Serif" font-weight="normal" text-anchor="start" style="mix-blend-mode: normal"><tspan x="0" dy="0">E!</tspan></text><text transform="translate(30.26004,128.89233) scale(0.37525,0.37525)" font-size="40" xml:space="preserve" fill="#ff7c00" fill-rule="nonzero" stroke="#00e4ff" stroke-width="0" stroke-linecap="butt" stroke-linejoin="miter" stroke-miterlimit="10" stroke-dasharray="" stroke-dashoffset="0" font-family="Sans Serif" font-weight="normal" text-anchor="start" style="mix-blend-mode: normal"><tspan x="0" dy="0">Turn into a Squid</tspan></text><text transform="translate(91.26004,163.89233) scale(0.37525,0.37525)" font-size="40" xml:space="preserve" fill="#ff7c00" fill-rule="nonzero" stroke="#00e4ff" stroke-width="0" stroke-linecap="butt" stroke-linejoin="miter" stroke-miterlimit="10" stroke-dasharray="" stroke-dashoffset="0" font-family="Sans Serif" font-weight="normal" text-anchor="start" style="mix-blend-mode: normal"><tspan x="0" dy="0">swim</tspan></text></g></g></svg>