<svg version="1.1" xmlns="http://www.w3.org/2000/svg" xmlns:xlink="http://www.w3.org/1999/xlink" width="37.6" height="43.6" viewBox="0,0,37.6,43.6"><g transform="translate(-221.20002,-158.2)"><g data-paper-data="{&quot;isPaintingLayer&quot;:true}" fill-rule="nonzero" stroke="none" stroke-linecap="butt" stroke-linejoin="miter" stroke-miterlimit="10" stroke-dasharray="" stroke-dashoffset="0" style="mix-blend-mode: normal"><path d="M221.20003,201.8v-43.6h37.6v43.6z" fill="none" stroke-width="0"/><path d="M231.65266,191.71275v-23.40514c0,-0.88117 0.29146,-1.64033 0.87439,-2.27748c0.59648,-0.65071 1.38953,-0.97606 2.37915,-0.97606h10.65533c0.88117,0 1.56577,0.28468 2.0538,0.85405c0.48803,0.56937 0.73204,1.24041 0.73204,2.01313c0,0.77271 -0.25079,1.44376 -0.75238,2.01313c-0.48803,0.56937 -1.16585,0.85405 -2.03346,0.85405h-7.66615v6.08005h6.4664c0.96251,0 1.70133,0.27791 2.21647,0.83372c0.51514,0.55581 0.77271,1.22685 0.77271,2.01313c0,0.78627 -0.26435,1.47087 -0.79305,2.0538c-0.51514,0.56937 -1.24719,0.85405 -2.19614,0.85405h-6.4664v9.08957c0,1.03029 -0.29146,1.83011 -0.87439,2.39948c-0.56937,0.55581 -1.31497,0.83371 -2.23681,0.83371c-0.90828,0 -1.66066,-0.28468 -2.25714,-0.85405c-0.58293,-0.58293 -0.87439,-1.37598 -0.87439,-2.37915z" fill="#ff0000" stroke-width="0.40889"/></g></g></svg>