<svg version="1.1" xmlns="http://www.w3.org/2000/svg" xmlns:xlink="http://www.w3.org/1999/xlink" width="45.13146" height="45.13146" viewBox="0,0,45.13146,45.13146"><defs><radialGradient cx="239.99999" cy="180.00001" r="22.56573" gradientUnits="userSpaceOnUse" id="color-1"><stop offset="0" stop-color="#000000" stop-opacity="0.5098"/><stop offset="1" stop-color="#000000" stop-opacity="0"/></radialGradient><linearGradient x1="220.91978" y1="198.09218" x2="242.96478" y2="176.04718" gradientUnits="userSpaceOnUse" id="color-2"><stop offset="0" stop-color="#4f00ff"/><stop offset="1" stop-color="#ff0000"/></linearGradient><linearGradient x1="221.52979" y1="184.34349" x2="238.14623" y2="184.94668" gradientUnits="userSpaceOnUse" id="color-3"><stop offset="0" stop-color="#d2d2d2"/><stop offset="1" stop-color="#5f5f5f"/></linearGradient><linearGradient x1="222.62215" y1="177.42922" x2="237.05388" y2="191.86094" gradientUnits="userSpaceOnUse" id="color-4"><stop offset="0" stop-color="#dadada"/><stop offset="1" stop-color="#676767"/></linearGradient><linearGradient x1="224.81691" y1="184.47005" x2="233.07514" y2="185.8071" gradientUnits="userSpaceOnUse" id="color-5"><stop offset="0" stop-color="#757575"/><stop offset="1" stop-color="#313131"/></linearGradient><linearGradient x1="241.8382" y1="181.83822" x2="256.64525" y2="167.03117" gradientUnits="userSpaceOnUse" id="color-6"><stop offset="0" stop-color="#8e8e8e"/><stop offset="1" stop-color="#3a3a3a"/></linearGradient><linearGradient x1="256.64524" y1="181.83822" x2="241.83818" y2="167.03116" gradientUnits="userSpaceOnUse" id="color-7"><stop offset="0" stop-color="#4a4a4a"/><stop offset="1" stop-color="#c8c8c8"/></linearGradient><linearGradient x1="253.15486" y1="170.48029" x2="245.86886" y2="177.76629" gradientUnits="userSpaceOnUse" id="color-8"><stop offset="0" stop-color="#757575"/><stop offset="1" stop-color="#313131"/></linearGradient></defs><g transform="translate(-217.43427,-157.43428)"><g data-paper-data="{&quot;isPaintingLayer&quot;:true}" fill-rule="nonzero" stroke-linecap="butt" stroke-linejoin="miter" stroke-miterlimit="10" stroke-dasharray="" stroke-dashoffset="0" style="mix-blend-mode: normal"><path d="M255.95638,195.95639c-8.81246,8.81246 -23.10029,8.81247 -31.91276,0c-8.81246,-8.81246 -8.81247,-23.10029 0,-31.91276c8.81246,-8.81246 23.10029,-8.81247 31.91276,0c8.81246,8.81246 8.81247,23.10029 0,31.91276z" data-paper-data="{&quot;index&quot;:null}" fill="url(#color-1)" stroke="none" stroke-width="0"/><path d="M246.20385,179.28626c0,0 2.44328,4.92506 2.30798,7.55201c-0.1257,2.44052 -3.0931,7.69164 -3.0931,7.69164l-18.0816,1.58152l4.86593,-23.22426l14.00081,6.39909z" data-paper-data="{&quot;index&quot;:null}" fill="url(#color-2)" stroke="#a000ab" stroke-width="2.5"/><path d="M221.5298,184.34349c0.24093,-6.63695 4.15595,-11.88222 8.74445,-11.71566c4.58849,0.16656 8.11291,5.68191 7.87199,12.31884c-0.24093,6.63694 -4.15596,11.88222 -8.74446,11.71565c-4.5885,-0.16657 -8.11291,-5.68191 -7.87199,-12.31884z" data-paper-data="{&quot;index&quot;:null}" fill="url(#color-3)" stroke="url(#color-4)" stroke-width="2.5"/><path d="M229.30318,177.6152c2.29794,-0.0433 4.0009,3.28993 3.80364,7.44497c-0.19726,4.15505 -2.22001,7.5585 -4.51796,7.60179c-2.29795,0.0433 -4.0009,-3.28993 -3.80364,-7.44499c0.19726,-4.15505 2.22003,-7.55848 4.51797,-7.60179z" data-paper-data="{&quot;index&quot;:null}" fill="none" stroke="url(#color-5)" stroke-width="1.5"/><path d="M241.83819,167.03117c4.08885,-4.08885 10.71819,-4.08885 14.80705,0.00001c4.08885,4.08885 4.08886,10.71818 0,14.80704c-4.08886,4.08886 -10.71818,4.08886 -14.80704,0c-4.08886,-4.08886 -4.08887,-10.71819 -0.00001,-14.80705z" data-paper-data="{&quot;index&quot;:null}" fill="url(#color-6)" stroke="url(#color-7)" stroke-width="2.5"/><path d="M253.15486,177.76629c-2.01197,2.01197 -5.27402,2.01198 -7.286,0c-2.01197,-2.01197 -2.01198,-5.27402 0,-7.286c2.01197,-2.01197 5.27402,-2.01198 7.286,0c2.01197,2.01197 2.01198,5.27402 0,7.286z" data-paper-data="{&quot;index&quot;:null}" fill="none" stroke="url(#color-8)" stroke-width="1.5"/></g></g></svg>