<svg version="1.1" xmlns="http://www.w3.org/2000/svg" xmlns:xlink="http://www.w3.org/1999/xlink" width="79.49276" height="80.13905" viewBox="0,0,79.49276,80.13905"><defs><radialGradient cx="237.65541" cy="180.15526" r="32.79887" gradientUnits="userSpaceOnUse" id="color-1"><stop offset="0" stop-color="#000000"/><stop offset="1" stop-color="#000000" stop-opacity="0"/></radialGradient><linearGradient x1="237.28391" y1="155.00516" x2="237.28391" y2="204.99488" gradientUnits="userSpaceOnUse" id="color-2"><stop offset="0" stop-color="#ff1f1f"/><stop offset="1" stop-color="#c80000"/></linearGradient><linearGradient x1="210.2501" y1="155.00516" x2="210.2501" y2="204.99488" gradientUnits="userSpaceOnUse" id="color-3"><stop offset="0" stop-color="#8e0000"/><stop offset="1" stop-color="#e00000"/></linearGradient><linearGradient x1="249.99" y1="165.57691" x2="261.53035" y2="165.57691" gradientUnits="userSpaceOnUse" id="color-4"><stop offset="0" stop-color="#6d0000"/><stop offset="1" stop-color="#c20000"/></linearGradient></defs><g transform="translate(-200.4089,-139.93051)"><g data-paper-data="{&quot;isPaintingLayer&quot;:true}" fill-rule="nonzero" stroke-linejoin="miter" stroke-miterlimit="10" stroke-dasharray="" stroke-dashoffset="0" style="mix-blend-mode: normal"><path d="M279.90166,220.06956h-79.49276v-80.13905h79.49276z" fill="none" stroke="none" stroke-width="NaN" stroke-linecap="butt"/><path d="M237.65541,212.95414c-18.11432,0 -32.79887,-14.68456 -32.79887,-32.79887c0,-18.11432 14.68456,-32.79887 32.79887,-32.79887c18.11432,0 32.79887,14.68456 32.79887,32.79887c0,18.11432 -14.68456,32.79887 -32.79887,32.79887z" fill="url(#color-1)" stroke="#000000" stroke-width="0" stroke-linecap="butt"/><path d="M261.56255,201.51886l-40.49301,3.47601v-49.98972l40.49301,3.19793z" fill="url(#color-2)" stroke="#000000" stroke-width="0" stroke-linecap="butt"/><path d="M261.56255,186.36346l-40.49301,1.52944v-15.64674l40.49301,1.25136z" fill="#ff6666" stroke="#000000" stroke-width="0" stroke-linecap="butt"/><path d="M207.49497,166.05962l13.57462,-11.05446v49.98972l-13.57462,-9.52384z" fill="url(#color-3)" stroke="#000000" stroke-width="0" stroke-linecap="butt"/><path d="M207.81221,174.5079l13.34788,-2.36369l39.9046,1.3904" fill="none" stroke="#800000" stroke-width="1" stroke-linecap="round"/><path d="M261.06467,186.46538l-39.9046,1.3904l-13.34788,-2.36369" data-paper-data="{&quot;index&quot;:null}" fill="none" stroke="#800000" stroke-width="1" stroke-linecap="round"/><path d="M235.75933,156.71073v46.4395" fill="none" stroke="#800000" stroke-width="1" stroke-linecap="round"/><path d="M249.52433,201.75982v-43.93677" fill="none" stroke="#800000" stroke-width="1" stroke-linecap="round"/><path d="M221.06955,204.99487v-16.54581l14.18212,-0.55616l-0.27808,15.85061z" fill="#900000" stroke="#800000" stroke-width="0" stroke-linecap="butt"/><path d="M236.22499,186.64154v-13.20884l13.0698,0.27808l-0.27808,12.51364z" fill="#ff0000" stroke="#800000" stroke-width="0" stroke-linecap="butt"/><path d="M211.00468,185.78874v-11.67939l5.28353,-1.25136l-0.11242,14.04308z" fill="#ff0000" stroke="#800000" stroke-width="0" stroke-linecap="butt"/><path d="M249.99,202.35311l0.13904,-15.01636l11.40131,-0.55616l-0.13904,14.4602z" fill="#ffffff" stroke="#800000" stroke-width="0" stroke-linecap="butt"/><path d="M216.75934,186.91962l0.13904,-13.765l3.61505,-0.55616l0.27808,15.01636z" fill="#ffffff" stroke="#800000" stroke-width="0" stroke-linecap="butt"/><path d="M236.08595,171.90326l0.13904,-15.57253l12.65268,1.25136l0.27808,15.15541z" fill="#ffbfbf" stroke="#800000" stroke-width="0" stroke-linecap="butt"/><path d="M207.58267,195.54013l0,-9.59379l2.50273,0.13904l0.13904,10.98419z" fill="#ffbfbf" stroke="#800000" stroke-width="0" stroke-linecap="butt"/><path d="M249.99,173.4327v-15.71157l11.26227,0.55616l0.27808,14.59924z" fill="url(#color-4)" stroke="#800000" stroke-width="0" stroke-linecap="butt"/><path d="M216.48126,172.32038v-13.20884l4.44929,-3.75409l-0.41712,16.40677z" fill="#a90000" stroke="#800000" stroke-width="0" stroke-linecap="butt"/><path d="M211.00468,197.31053v-33.19354" fill="none" stroke="#800000" stroke-width="1" stroke-linecap="round"/><path d="M216.28822,159.77885v41.41558" fill="none" stroke="#800000" stroke-width="1" stroke-linecap="round"/></g></g></svg>