<svg version="1.1" xmlns="http://www.w3.org/2000/svg" xmlns:xlink="http://www.w3.org/1999/xlink" width="37.6" height="43.6" viewBox="0,0,37.6,43.6"><g transform="translate(-221.20009,-158.2)"><g data-paper-data="{&quot;isPaintingLayer&quot;:true}" fill-rule="nonzero" stroke="none" stroke-linecap="butt" stroke-linejoin="miter" stroke-miterlimit="10" stroke-dasharray="" stroke-dashoffset="0" style="mix-blend-mode: normal"><path d="M221.20009,201.8v-43.6h37.6v43.6z" fill="none" stroke-width="0"/><path d="M239.85769,172.03708c1.54543,0 2.98241,0.31858 4.31094,0.95573c1.34208,0.62359 2.4876,1.47765 3.43655,2.56218c0.9625,1.08451 1.70133,2.31814 2.21647,3.70088c0.5287,1.38276 0.79305,2.84686 0.79305,4.39229c0,1.55898 -0.26435,3.0434 -0.79305,4.45327c-0.51514,1.39631 -1.24041,2.62316 -2.1758,3.68056c-0.92184,1.04384 -2.06057,1.87755 -3.41622,2.50115c-1.34208,0.61005 -2.7994,0.91507 -4.37194,0.91507c-2.07413,0 -3.93136,-0.51515 -5.57168,-1.54544c-1.64032,-1.04384 -2.91463,-2.44692 -3.82291,-4.20924c-0.89472,-1.7759 -1.34208,-3.70769 -1.34208,-5.79537c0,-1.49121 0.25757,-2.93497 0.77271,-4.33128c0.5287,-1.40987 1.2743,-2.66383 2.23681,-3.76189c0.9625,-1.09807 2.10802,-1.95891 3.43655,-2.5825c1.32853,-0.62361 2.75873,-0.93541 4.2906,-0.93541zM239.85769,177.52743c-1.00317,0 -1.87078,0.29824 -2.60283,0.89472c-0.71849,0.58292 -1.25397,1.34885 -1.60643,2.2978c-0.35247,0.94895 -0.5287,1.92502 -0.5287,2.9282c0,1.01673 0.17623,1.99279 0.5287,2.92818c0.36602,0.92184 0.9015,1.67422 1.60643,2.25714c0.71849,0.56937 1.5861,0.85406 2.60283,0.85406c1.03029,0 1.8979,-0.28469 2.60283,-0.85406c0.71849,-0.58292 1.25397,-1.3353 1.60643,-2.25714c0.36602,-0.93539 0.54904,-1.91144 0.54904,-2.92818c0,-1.00318 -0.17623,-1.97247 -0.5287,-2.90786c-0.35247,-0.94895 -0.88794,-1.72167 -1.60643,-2.31815c-0.71849,-0.59648 -1.59288,-0.89472 -2.62316,-0.89472z" fill="#ff0000" stroke-width="0.40889"/></g></g></svg>