<svg version="1.1" xmlns="http://www.w3.org/2000/svg" xmlns:xlink="http://www.w3.org/1999/xlink" width="481.50001" height="360" viewBox="0,0,481.50001,360"><defs><radialGradient cx="240.00006" cy="180" r="240.33333" gradientUnits="userSpaceOnUse" id="color-1"><stop offset="0" stop-color="#858585"/><stop offset="1" stop-color="#cfcfcf"/></radialGradient><radialGradient cx="302.66668" cy="75.37093" r="47.5" gradientUnits="userSpaceOnUse" id="color-2"><stop offset="0" stop-color="#ffffff" stop-opacity="0.28235"/><stop offset="1" stop-color="#ffffff" stop-opacity="0"/></radialGradient><radialGradient cx="241.6667" cy="81.37093" r="47.5" gradientUnits="userSpaceOnUse" id="color-3"><stop offset="0" stop-color="#ffffff" stop-opacity="0.28235"/><stop offset="1" stop-color="#ffffff" stop-opacity="0"/></radialGradient><radialGradient cx="349.6667" cy="122.37093" r="65.5" gradientUnits="userSpaceOnUse" id="color-4"><stop offset="0" stop-color="#ffffff" stop-opacity="0.28235"/><stop offset="1" stop-color="#ffffff" stop-opacity="0"/></radialGradient><radialGradient cx="236.66671" cy="131.37093" r="65.5" gradientUnits="userSpaceOnUse" id="color-5"><stop offset="0" stop-color="#ffffff" stop-opacity="0.28235"/><stop offset="1" stop-color="#ffffff" stop-opacity="0"/></radialGradient><radialGradient cx="326.66668" cy="250.37093" r="65.5" gradientUnits="userSpaceOnUse" id="color-6"><stop offset="0" stop-color="#ffffff" stop-opacity="0.28235"/><stop offset="1" stop-color="#ffffff" stop-opacity="0"/></radialGradient><radialGradient cx="125.6667" cy="256.37093" r="65.5" gradientUnits="userSpaceOnUse" id="color-7"><stop offset="0" stop-color="#ffffff" stop-opacity="0.28235"/><stop offset="1" stop-color="#ffffff" stop-opacity="0"/></radialGradient><radialGradient cx="197.6667" cy="278.37093" r="45.5" gradientUnits="userSpaceOnUse" id="color-8"><stop offset="0" stop-color="#ffffff" stop-opacity="0.28235"/><stop offset="1" stop-color="#ffffff" stop-opacity="0"/></radialGradient><radialGradient cx="169.66671" cy="118.37093" r="45.5" gradientUnits="userSpaceOnUse" id="color-9"><stop offset="0" stop-color="#ffffff" stop-opacity="0.28235"/><stop offset="1" stop-color="#ffffff" stop-opacity="0"/></radialGradient><radialGradient cx="126.6667" cy="84.37093" r="65.5" gradientUnits="userSpaceOnUse" id="color-10"><stop offset="0" stop-color="#000000" stop-opacity="0.28235"/><stop offset="1" stop-color="#000000" stop-opacity="0"/></radialGradient><radialGradient cx="161.6667" cy="174.37093" r="65.5" gradientUnits="userSpaceOnUse" id="color-11"><stop offset="0" stop-color="#000000" stop-opacity="0.28235"/><stop offset="1" stop-color="#000000" stop-opacity="0"/></radialGradient><radialGradient cx="78.6667" cy="289.37093" r="65.5" gradientUnits="userSpaceOnUse" id="color-12"><stop offset="0" stop-color="#000000" stop-opacity="0.28235"/><stop offset="1" stop-color="#000000" stop-opacity="0"/></radialGradient><radialGradient cx="398.6667" cy="69.37093" r="65.5" gradientUnits="userSpaceOnUse" id="color-13"><stop offset="0" stop-color="#000000" stop-opacity="0.28235"/><stop offset="1" stop-color="#000000" stop-opacity="0"/></radialGradient><radialGradient cx="360.6667" cy="232.37093" r="65.5" gradientUnits="userSpaceOnUse" id="color-14"><stop offset="0" stop-color="#000000" stop-opacity="0.28235"/><stop offset="1" stop-color="#000000" stop-opacity="0"/></radialGradient><radialGradient cx="165.1667" cy="131.87093" r="22" gradientUnits="userSpaceOnUse" id="color-15"><stop offset="0" stop-color="#000000" stop-opacity="0.2"/><stop offset="1" stop-color="#000000" stop-opacity="0"/></radialGradient><radialGradient cx="24.1667" cy="221.87093" r="22" gradientUnits="userSpaceOnUse" id="color-16"><stop offset="0" stop-color="#000000" stop-opacity="0.2"/><stop offset="1" stop-color="#000000" stop-opacity="0"/></radialGradient><radialGradient cx="342.1667" cy="284.87093" r="22" gradientUnits="userSpaceOnUse" id="color-17"><stop offset="0" stop-color="#000000" stop-opacity="0.2"/><stop offset="1" stop-color="#000000" stop-opacity="0"/></radialGradient><radialGradient cx="459.1667" cy="135.87093" r="22" gradientUnits="userSpaceOnUse" id="color-18"><stop offset="0" stop-color="#000000" stop-opacity="0.2"/><stop offset="1" stop-color="#000000" stop-opacity="0"/></radialGradient><radialGradient cx="228.1667" cy="322.87093" r="22" gradientUnits="userSpaceOnUse" id="color-19"><stop offset="0" stop-color="#ffffff" stop-opacity="0.26275"/><stop offset="1" stop-color="#ffffff" stop-opacity="0"/></radialGradient><radialGradient cx="200.1667" cy="313.87093" r="22" gradientUnits="userSpaceOnUse" id="color-20"><stop offset="0" stop-color="#ffffff" stop-opacity="0.26275"/><stop offset="1" stop-color="#ffffff" stop-opacity="0"/></radialGradient><radialGradient cx="362.1667" cy="105.87093" r="22" gradientUnits="userSpaceOnUse" id="color-21"><stop offset="0" stop-color="#ffffff" stop-opacity="0.26275"/><stop offset="1" stop-color="#ffffff" stop-opacity="0"/></radialGradient><radialGradient cx="73.1667" cy="77.87093" r="22" gradientUnits="userSpaceOnUse" id="color-22"><stop offset="0" stop-color="#ffffff" stop-opacity="0.26275"/><stop offset="1" stop-color="#ffffff" stop-opacity="0"/></radialGradient><radialGradient cx="399.1667" cy="247.87093" r="22" gradientUnits="userSpaceOnUse" id="color-23"><stop offset="0" stop-color="#ffffff" stop-opacity="0.26275"/><stop offset="1" stop-color="#ffffff" stop-opacity="0"/></radialGradient><radialGradient cx="258.1667" cy="333.87093" r="22" gradientUnits="userSpaceOnUse" id="color-24"><stop offset="0" stop-color="#000000" stop-opacity="0.2"/><stop offset="1" stop-color="#000000" stop-opacity="0"/></radialGradient><radialGradient cx="241.66671" cy="136.37093" r="65.5" gradientUnits="userSpaceOnUse" id="color-25"><stop offset="0" stop-color="#ffffff" stop-opacity="0.28235"/><stop offset="1" stop-color="#ffffff" stop-opacity="0"/></radialGradient><radialGradient cx="431.16669" cy="311.87093" r="47" gradientUnits="userSpaceOnUse" id="color-26"><stop offset="0" stop-color="#000000" stop-opacity="0.28235"/><stop offset="1" stop-color="#000000" stop-opacity="0"/></radialGradient></defs><g transform="translate(0.33332,0)"><g data-paper-data="{&quot;isPaintingLayer&quot;:true}" fill-rule="nonzero" stroke-width="0" stroke-linecap="butt" stroke-linejoin="miter" stroke-miterlimit="10" stroke-dasharray="" stroke-dashoffset="0" style="mix-blend-mode: normal"><path d="M-0.33331,360v-360h480.66667v360z" fill="url(#color-1)" stroke="#000000"/><path d="M255.16671,75.37093c0,-26.23353 21.26647,-47.5 47.5,-47.5c26.23353,0 47.5,21.26647 47.5,47.5c0,26.23353 -21.26647,47.5 -47.5,47.5c-26.23353,0 -47.5,-21.26647 -47.5,-47.5z" fill="url(#color-2)" stroke="none"/><path d="M194.1667,81.37093c0,-26.23353 21.26647,-47.5 47.5,-47.5c26.23353,0 47.5,21.26647 47.5,47.5c0,26.23353 -21.26647,47.5 -47.5,47.5c-26.23353,0 -47.5,-21.26647 -47.5,-47.5z" fill="url(#color-3)" stroke="none"/><path d="M284.16668,122.37093c0,-36.17466 29.32534,-65.5 65.5,-65.5c36.17466,0 65.5,29.32534 65.5,65.5c0,36.17466 -29.32534,65.5 -65.5,65.5c-36.17466,0 -65.5,-29.32534 -65.5,-65.5z" fill="url(#color-4)" stroke="none"/><path d="M171.16671,131.37093c0,-36.17465 29.32535,-65.5 65.5,-65.5c36.17465,0 65.5,29.32535 65.5,65.5c0,36.17466 -29.32534,65.5 -65.5,65.5c-36.17465,0 -65.5,-29.32534 -65.5,-65.5z" fill="url(#color-5)" stroke="none"/><path d="M261.16668,250.37093c0,-36.17465 29.32534,-65.5 65.5,-65.5c36.17465,0 65.5,29.32535 65.5,65.5c0,36.17465 -29.32535,65.5 -65.5,65.5c-36.17466,0 -65.5,-29.32535 -65.5,-65.5z" fill="url(#color-6)" stroke="none"/><path d="M60.1667,256.37093c0,-36.17465 29.32534,-65.5 65.5,-65.5c36.17465,0 65.5,29.32535 65.5,65.5c0,36.17465 -29.32535,65.5 -65.5,65.5c-36.17466,0 -65.5,-29.32535 -65.5,-65.5z" fill="url(#color-7)" stroke="none"/><path d="M152.1667,278.37093c0,-25.12896 20.37104,-45.5 45.5,-45.5c25.12896,0 45.5,20.37104 45.5,45.5c0,25.12896 -20.37104,45.5 -45.5,45.5c-25.12896,0 -45.5,-20.37104 -45.5,-45.5z" fill="url(#color-8)" stroke="none"/><path d="M124.16671,118.37093c0,-25.12895 20.37104,-45.5 45.5,-45.5c25.12895,0 45.5,20.37105 45.5,45.5c0,25.12896 -20.37105,45.5 -45.5,45.5c-25.12896,0 -45.5,-20.37104 -45.5,-45.5z" fill="url(#color-9)" stroke="none"/><path d="M61.1667,84.37093c0,-36.17466 29.32534,-65.5 65.5,-65.5c36.17466,0 65.5,29.32534 65.5,65.5c0,36.17466 -29.32534,65.5 -65.5,65.5c-36.17466,0 -65.5,-29.32534 -65.5,-65.5z" fill="url(#color-10)" stroke="none"/><path d="M96.1667,174.37093c0,-36.17466 29.32534,-65.5 65.5,-65.5c36.17466,0 65.5,29.32534 65.5,65.5c0,36.17466 -29.32534,65.5 -65.5,65.5c-36.17466,0 -65.5,-29.32534 -65.5,-65.5z" fill="url(#color-11)" stroke="none"/><path d="M13.16669,289.37093c0,-36.17466 29.32534,-65.5 65.5,-65.5c36.17466,0 65.5,29.32534 65.5,65.5c0,36.17466 -29.32534,65.5 -65.5,65.5c-36.17466,0 -65.5,-29.32534 -65.5,-65.5z" fill="url(#color-12)" stroke="none"/><path d="M333.1667,69.37093c0,-36.17466 29.32534,-65.5 65.5,-65.5c36.17466,0 65.5,29.32534 65.5,65.5c0,36.17466 -29.32534,65.5 -65.5,65.5c-36.17466,0 -65.5,-29.32534 -65.5,-65.5z" fill="url(#color-13)" stroke="none"/><path d="M295.16668,232.37093c0,-36.17466 29.32534,-65.5 65.5,-65.5c36.17466,0 65.5,29.32534 65.5,65.5c0,36.17466 -29.32534,65.5 -65.5,65.5c-36.17466,0 -65.5,-29.32534 -65.5,-65.5z" fill="url(#color-14)" stroke="none"/><path d="M143.1667,131.87093c0,-12.15026 9.84974,-22 22,-22c12.15026,0 22,9.84973 22,22c0,12.15026 -9.84974,22 -22,22c-12.15026,0 -22,-9.84974 -22,-22z" fill="url(#color-15)" stroke="none"/><path d="M2.1667,221.87093c0,-12.15026 9.84974,-22 22,-22c12.15027,0 22,9.84974 22,22c0,12.15026 -9.84973,22 -22,22c-12.15026,0 -22,-9.84974 -22,-22z" fill="url(#color-16)" stroke="none"/><path d="M320.16668,284.87093c0,-12.15026 9.84974,-22 22,-22c12.15026,0 22,9.84974 22,22c0,12.15026 -9.84974,22 -22,22c-12.15026,0 -22,-9.84974 -22,-22z" fill="url(#color-17)" stroke="none"/><path d="M437.1667,135.87093c0,-12.15026 9.84974,-22 22,-22c12.15026,0 22,9.84974 22,22c0,12.15026 -9.84974,22 -22,22c-12.15026,0 -22,-9.84974 -22,-22z" fill="url(#color-18)" stroke="none"/><path d="M206.1667,322.87093c0,-12.15026 9.84974,-22 22,-22c12.15026,0 22,9.84974 22,22c0,12.15026 -9.84974,22 -22,22c-12.15026,0 -22,-9.84974 -22,-22z" fill="url(#color-19)" stroke="none"/><path d="M178.1667,313.87093c0,-12.15026 9.84974,-22 22,-22c12.15026,0 22,9.84974 22,22c0,12.15026 -9.84974,22 -22,22c-12.15026,0 -22,-9.84974 -22,-22z" fill="url(#color-20)" stroke="none"/><path d="M340.1667,105.87093c0,-12.15027 9.84974,-22 22,-22c12.15026,0 22,9.84973 22,22c0,12.15027 -9.84974,22 -22,22c-12.15026,0 -22,-9.84973 -22,-22z" fill="url(#color-21)" stroke="none"/><path d="M51.1667,77.87093c0,-12.15027 9.84974,-22 22,-22c12.15027,0 22,9.84973 22,22c0,12.15027 -9.84973,22 -22,22c-12.15026,0 -22,-9.84973 -22,-22z" fill="url(#color-22)" stroke="none"/><path d="M377.1667,247.87093c0,-12.15026 9.84974,-22 22,-22c12.15026,0 22,9.84974 22,22c0,12.15026 -9.84974,22 -22,22c-12.15026,0 -22,-9.84974 -22,-22z" fill="url(#color-23)" stroke="none"/><path d="M236.16668,333.87093c0,-12.15026 9.84974,-22 22,-22c12.15026,0 22,9.84974 22,22c0,12.15026 -9.84974,22 -22,22c-12.15026,0 -22,-9.84974 -22,-22z" fill="url(#color-24)" stroke="none"/><path d="M176.16671,136.37093c0,-36.17465 29.32535,-65.5 65.5,-65.5c36.17465,0 65.5,29.32535 65.5,65.5c0,36.17466 -29.32534,65.5 -65.5,65.5c-36.17465,0 -65.5,-29.32534 -65.5,-65.5z" fill="url(#color-25)" stroke="none"/><path d="M384.16669,311.87093c0,-25.95739 21.04261,-47 47,-47c25.95739,0 47,21.04261 47,47c0,25.95739 -21.04261,47 -47,47c-25.95739,0 -47,-21.04261 -47,-47z" fill="url(#color-26)" stroke="none"/></g></g></svg>