<svg version="1.1" xmlns="http://www.w3.org/2000/svg" xmlns:xlink="http://www.w3.org/1999/xlink" width="95.64633" height="76.60426" viewBox="0,0,95.64633,76.60426"><defs><radialGradient cx="234.79914" cy="181.38862" r="37.58018" gradientUnits="userSpaceOnUse" id="color-1"><stop offset="0" stop-color="#000000" stop-opacity="0.75294"/><stop offset="1" stop-color="#000000" stop-opacity="0"/></radialGradient><linearGradient x1="266.9654" y1="192.92997" x2="201.11114" y2="174.62644" gradientUnits="userSpaceOnUse" id="color-2"><stop offset="0" stop-color="#ff2929"/><stop offset="1" stop-color="#d50000"/></linearGradient><linearGradient x1="208.36159" y1="196.60425" x2="199.20525" y2="194.05933" gradientUnits="userSpaceOnUse" id="color-3"><stop offset="0" stop-color="#ff0000"/><stop offset="1" stop-color="#930000"/></linearGradient><linearGradient x1="195.98761" y1="191.51444" x2="203.52532" y2="191.51444" gradientUnits="userSpaceOnUse" id="color-4"><stop offset="0" stop-color="#ff0000"/><stop offset="1" stop-color="#930000"/></linearGradient><linearGradient x1="204.92006" y1="189.50447" x2="200.7117" y2="188.33479" gradientUnits="userSpaceOnUse" id="color-5"><stop offset="0" stop-color="#d60000"/><stop offset="1" stop-color="#600000"/></linearGradient><linearGradient x1="209.64848" y1="187.05762" x2="205.44012" y2="185.88794" gradientUnits="userSpaceOnUse" id="color-6"><stop offset="0" stop-color="#ff0000"/><stop offset="1" stop-color="#930000"/></linearGradient><linearGradient x1="214.04945" y1="193.81663" x2="208.71" y2="192.33259" gradientUnits="userSpaceOnUse" id="color-7"><stop offset="0" stop-color="#ff0000"/><stop offset="1" stop-color="#930000"/></linearGradient><radialGradient cx="210.74044" cy="193.09616" r="7.01729" gradientUnits="userSpaceOnUse" id="color-8"><stop offset="0" stop-color="#ff6060"/><stop offset="1" stop-color="#ff6060" stop-opacity="0"/></radialGradient><radialGradient cx="218.67267" cy="193.132" r="4.39411" gradientUnits="userSpaceOnUse" id="color-9"><stop offset="0" stop-color="#ff6060"/><stop offset="1" stop-color="#ff6060" stop-opacity="0"/></radialGradient><linearGradient x1="205.12341" y1="194.53241" x2="200.12207" y2="194.53241" gradientUnits="userSpaceOnUse" id="color-10"><stop offset="0" stop-color="#d60000"/><stop offset="1" stop-color="#600000"/></linearGradient><linearGradient x1="208.55536" y1="189.31344" x2="203.55411" y2="189.31344" gradientUnits="userSpaceOnUse" id="color-11"><stop offset="0" stop-color="#ff0000"/><stop offset="1" stop-color="#930000"/></linearGradient><linearGradient x1="267.65263" y1="166.77032" x2="201.79846" y2="185.07385" gradientUnits="userSpaceOnUse" id="color-12"><stop offset="0" stop-color="#ff2929"/><stop offset="1" stop-color="#d50000"/></linearGradient><linearGradient x1="209.04891" y1="163.09605" x2="199.89257" y2="165.64096" gradientUnits="userSpaceOnUse" id="color-13"><stop offset="0" stop-color="#ff0000"/><stop offset="1" stop-color="#930000"/></linearGradient><linearGradient x1="196.67486" y1="168.18585" x2="204.21258" y2="168.18585" gradientUnits="userSpaceOnUse" id="color-14"><stop offset="0" stop-color="#ff0000"/><stop offset="1" stop-color="#930000"/></linearGradient><linearGradient x1="205.60738" y1="170.19582" x2="201.39894" y2="171.3655" gradientUnits="userSpaceOnUse" id="color-15"><stop offset="0" stop-color="#d60000"/><stop offset="1" stop-color="#600000"/></linearGradient><linearGradient x1="210.33572" y1="172.64268" x2="206.12735" y2="173.81236" gradientUnits="userSpaceOnUse" id="color-16"><stop offset="0" stop-color="#ff0000"/><stop offset="1" stop-color="#930000"/></linearGradient><linearGradient x1="214.73669" y1="165.88366" x2="209.39732" y2="167.36771" gradientUnits="userSpaceOnUse" id="color-17"><stop offset="0" stop-color="#ff0000"/><stop offset="1" stop-color="#930000"/></linearGradient><radialGradient cx="211.42767" cy="166.60414" r="7.01729" gradientUnits="userSpaceOnUse" id="color-18"><stop offset="0" stop-color="#ff6060"/><stop offset="1" stop-color="#ff6060" stop-opacity="0"/></radialGradient><radialGradient cx="219.35998" cy="166.56829" r="4.39411" gradientUnits="userSpaceOnUse" id="color-19"><stop offset="0" stop-color="#ff6060"/><stop offset="1" stop-color="#ff6060" stop-opacity="0"/></radialGradient><linearGradient x1="205.81065" y1="165.16788" x2="200.80939" y2="165.16788" gradientUnits="userSpaceOnUse" id="color-20"><stop offset="0" stop-color="#d60000"/><stop offset="1" stop-color="#600000"/></linearGradient><linearGradient x1="209.24268" y1="170.38685" x2="204.24135" y2="170.38685" gradientUnits="userSpaceOnUse" id="color-21"><stop offset="0" stop-color="#ff0000"/><stop offset="1" stop-color="#930000"/></linearGradient><linearGradient x1="243.82094" y1="180.87104" x2="227.10085" y2="180.80588" gradientUnits="userSpaceOnUse" id="color-22"><stop offset="0" stop-color="#1a1a1a" stop-opacity="0"/><stop offset="1" stop-color="#1a1a1a"/></linearGradient><linearGradient x1="242.41827" y1="175.10323" x2="234.90288" y2="175.10323" gradientUnits="userSpaceOnUse" id="color-23"><stop offset="0" stop-color="#000000"/><stop offset="1" stop-color="#737373"/></linearGradient><linearGradient x1="242.3769" y1="183.97491" x2="234.8615" y2="183.97491" gradientUnits="userSpaceOnUse" id="color-24"><stop offset="0" stop-color="#000000"/><stop offset="1" stop-color="#737373"/></linearGradient><linearGradient x1="281.41099" y1="181.07995" x2="189.47074" y2="181.07995" gradientUnits="userSpaceOnUse" id="color-25"><stop offset="0" stop-color="#ff2929"/><stop offset="1" stop-color="#d50000"/></linearGradient><radialGradient cx="267.15763" cy="180.02988" r="18.96849" gradientUnits="userSpaceOnUse" id="color-26"><stop offset="0" stop-color="#ff5656"/><stop offset="1" stop-color="#ff5656" stop-opacity="0"/></radialGradient><radialGradient cx="262.78162" cy="168.71764" r="15.26036" gradientUnits="userSpaceOnUse" id="color-27"><stop offset="0" stop-color="#ff5656"/><stop offset="1" stop-color="#ff5656" stop-opacity="0"/></radialGradient><radialGradient cx="269.24476" cy="176.5165" r="13.83416" gradientUnits="userSpaceOnUse" id="color-28"><stop offset="0" stop-color="#ff6d6d"/><stop offset="1" stop-color="#ff6d6d" stop-opacity="0"/></radialGradient><radialGradient cx="260.53932" cy="157.18207" r="7.84411" gradientUnits="userSpaceOnUse" id="color-29"><stop offset="0" stop-color="#ff4e4e"/><stop offset="1" stop-color="#ff4e4e" stop-opacity="0"/></radialGradient><radialGradient cx="261.06325" cy="201.81242" r="7.84411" gradientUnits="userSpaceOnUse" id="color-30"><stop offset="0" stop-color="#ff4e4e"/><stop offset="1" stop-color="#ff4e4e" stop-opacity="0"/></radialGradient><radialGradient cx="266.59747" cy="163.55465" r="9.43914" gradientUnits="userSpaceOnUse" id="color-31"><stop offset="0" stop-color="#ff7e7e"/><stop offset="1" stop-color="#ff7e7e" stop-opacity="0"/></radialGradient><radialGradient cx="273.21151" cy="193.91262" r="6.36395" gradientUnits="userSpaceOnUse" id="color-32"><stop offset="0" stop-color="#ff8989"/><stop offset="1" stop-color="#ff8989" stop-opacity="0"/></radialGradient><radialGradient cx="276.63435" cy="187.92258" r="6.36395" gradientUnits="userSpaceOnUse" id="color-33"><stop offset="0" stop-color="#ff6060"/><stop offset="1" stop-color="#ff6060" stop-opacity="0"/></radialGradient><radialGradient cx="276.03488" cy="171.78505" r="5.91064" gradientUnits="userSpaceOnUse" id="color-34"><stop offset="0" stop-color="#ff7e7e"/><stop offset="1" stop-color="#ff7e7e" stop-opacity="0"/></radialGradient><radialGradient cx="266.74803" cy="196.64879" r="10.07206" gradientUnits="userSpaceOnUse" id="color-35"><stop offset="0" stop-color="#ff6060"/><stop offset="1" stop-color="#ff6060" stop-opacity="0"/></radialGradient><radialGradient cx="271.86395" cy="164.63425" r="3.91959" gradientUnits="userSpaceOnUse" id="color-36"><stop offset="0" stop-color="#ffb5b5"/><stop offset="1" stop-color="#ffb5b5" stop-opacity="0"/></radialGradient><radialGradient cx="252.21959" cy="207.09192" r="6.36393" gradientUnits="userSpaceOnUse" id="color-37"><stop offset="0" stop-color="#dc0000"/><stop offset="1" stop-color="#dc0000" stop-opacity="0"/></radialGradient><radialGradient cx="251.02725" cy="153.56866" r="6.36393" gradientUnits="userSpaceOnUse" id="color-38"><stop offset="0" stop-color="#dc0000"/><stop offset="1" stop-color="#dc0000" stop-opacity="0"/></radialGradient><radialGradient cx="270.68825" cy="179.34026" r="9.43913" gradientUnits="userSpaceOnUse" id="color-39"><stop offset="0" stop-color="#ff6060"/><stop offset="1" stop-color="#ff6060" stop-opacity="0"/></radialGradient><radialGradient cx="283.53456" cy="180.00295" r="5.91064" gradientUnits="userSpaceOnUse" id="color-40"><stop offset="0" stop-color="#ff6060"/><stop offset="1" stop-color="#ff6060" stop-opacity="0"/></radialGradient><linearGradient x1="244.13023" y1="179.55723" x2="221.87619" y2="179.47132" gradientUnits="userSpaceOnUse" id="color-41"><stop offset="0" stop-color="#1a1a1a" stop-opacity="0"/><stop offset="1" stop-color="#1a1a1a"/></linearGradient><linearGradient x1="242.04658" y1="173.42068" x2="233.36061" y2="173.42068" gradientUnits="userSpaceOnUse" id="color-42"><stop offset="0" stop-color="#000000"/><stop offset="1" stop-color="#737373"/></linearGradient><linearGradient x1="241.99877" y1="185.28993" x2="233.31279" y2="185.28993" gradientUnits="userSpaceOnUse" id="color-43"><stop offset="0" stop-color="#000000"/><stop offset="1" stop-color="#737373"/></linearGradient></defs><g transform="translate(-193.8435,-142.36453)"><g data-paper-data="{&quot;isPaintingLayer&quot;:true}" fill-rule="nonzero" stroke-width="0" stroke-linecap="butt" stroke-linejoin="miter" stroke-miterlimit="10" stroke-dasharray="" stroke-dashoffset="0" style="mix-blend-mode: normal"><path d="M197.21896,181.38862c0,-20.75496 16.82522,-37.58018 37.58018,-37.58018c20.75496,0 37.58018,16.82523 37.58018,37.58018c0,20.75496 -16.82522,37.58018 -37.58018,37.58018c-20.75496,0 -37.58018,-16.82523 -37.58018,-37.58018z" fill="url(#color-1)" stroke="none"/><g data-paper-data="{&quot;index&quot;:null}" stroke="none"><path d="M193.8435,190.19225c0,0 7.03004,-3.98049 13.72079,-5.57999c7.10621,-1.69882 13.10045,6.61909 13.10045,6.61909c0,0 -2.36134,-5.14245 -1.76936,-7.09915c0.39309,-1.29927 5.80448,-4.51716 5.80448,-4.51716c0,0 13.26259,-3.80622 12.17651,2.01042c-1.5663,8.38848 -4.11002,16.33264 -6.55938,15.96123c-7.37725,-1.11866 -18.08621,4.30277 -26.0851,2.17458c-5.77802,-1.53731 -10.38838,-9.56901 -10.38838,-9.56901z" fill="url(#color-2)"/><path d="M204.22997,198.09416c-2.52846,-0.70276 -4.23043,-2.52365 -3.80146,-4.06707c0.42899,-1.54343 2.82647,-2.22492 5.35493,-1.52215c2.52846,0.70276 3.00718,2.55589 2.57821,4.09931c-0.42898,1.54342 -1.60322,2.19267 -4.13168,1.48991z" fill="url(#color-3)"/><path d="M196.0413,190.48185c0.34812,-1.25248 2.29364,-1.8055 4.34548,-1.23521c2.05183,0.57029 3.43296,2.04792 3.08485,3.3004c-0.34812,1.25249 -2.29363,1.8055 -4.34547,1.23522c-2.05183,-0.57029 -3.43297,-2.04793 -3.08485,-3.30041z" fill="url(#color-4)"/><path d="M201.93493,188.30256c0.19716,-0.70937 1.29907,-1.02259 2.46119,-0.69959c1.16212,0.32299 1.94436,1.15989 1.74719,1.86927c-0.19717,0.70938 -1.29907,1.0226 -2.46118,0.6996c-1.16212,-0.32299 -1.94437,-1.1599 -1.7472,-1.86928z" fill="url(#color-5)"/><path d="M207.18726,187.75722c-1.16212,-0.32299 -0.72114,-1.19214 -0.52397,-1.90152c0.19717,-0.70938 0.07585,-0.99036 1.23796,-0.66736c1.16212,0.32299 1.94436,1.1599 1.74719,1.86928c-0.19717,0.70938 -1.29907,1.02259 -2.46119,0.69959z" fill="url(#color-6)"/><path d="M208.71,192.33259c0.25016,-0.90004 1.64821,-1.29744 3.12266,-0.88763c1.47445,0.40981 2.46693,1.47163 2.21677,2.37166c-0.25016,0.90002 -1.64821,1.29745 -3.12266,0.88764c-1.47445,-0.40981 -2.46693,-1.47164 -2.21677,-2.37167z" fill="url(#color-7)"/><path d="M208.86123,199.85715c-3.73399,-1.03782 -4.69645,-4.93839 -3.65862,-8.67239c1.03784,-3.73401 3.68292,-5.88745 7.41692,-4.84961c3.73399,1.03783 5.91967,4.90615 4.88183,8.64015c-1.03784,3.73401 -4.90615,5.91969 -8.64015,4.88185z" fill="url(#color-8)"/><path d="M214.43905,191.9553c0.64987,-2.33817 3.07216,-3.7068 5.41033,-3.05693c2.33818,0.64987 3.7068,3.07214 3.05693,5.41031c-0.64987,2.33818 -3.07215,3.70681 -5.41032,3.05694c-2.33818,-0.64988 -3.70681,-3.07216 -3.05694,-5.41032z" fill="url(#color-9)"/></g><path d="M199.86356,188.3281c0,-0.79777 1.11959,-1.44448 2.50066,-1.44448c1.38107,0 2.75915,4.26588 2.75915,5.06366c0,0.79778 -1.37808,-2.17469 -2.75915,-2.17469c-1.38108,0 -2.50066,-0.64671 -2.50066,-1.44449z" data-paper-data="{&quot;index&quot;:null}" fill="url(#color-10)" stroke="none"/><path d="M203.55411,186.7283c0,-0.79778 1.11958,-1.44449 2.50065,-1.44449c1.38107,0 2.50065,0.64671 2.50065,1.44449c0,0.79778 -1.11958,1.44449 -2.50065,1.44449c-1.38107,0 -2.50065,-0.64671 -2.50065,-1.44449z" data-paper-data="{&quot;index&quot;:null}" fill="url(#color-11)" stroke="none"/><g stroke="none"><path d="M194.53083,169.50804c0,0 4.61037,-8.0317 10.38838,-9.56901c7.99889,-2.1282 18.70784,3.29324 26.0851,2.17458c2.44937,-0.37141 4.99308,7.57275 6.55938,15.96123c1.08608,5.81664 -12.17651,1.49339 -12.17651,1.49339c0,0 -5.41139,-2.70086 -5.80448,-4.00013c-0.59198,-1.9567 1.76936,-7.09915 1.76936,-7.09915c0,0 -5.99424,8.31791 -13.10045,6.61909c-6.69075,-1.5995 -13.72079,-5.57999 -13.72079,-5.57999z" fill="url(#color-12)"/><path d="M204.9172,161.60614c2.52846,-0.70276 3.7027,-0.05351 4.13168,1.48991c0.42898,1.54342 -0.04975,3.39655 -2.57821,4.09931c-2.52846,0.70276 -4.92594,0.02127 -5.35493,-1.52215c-0.42898,-1.54342 1.273,-3.36431 3.80146,-4.06707z" fill="url(#color-13)"/><path d="M199.81342,165.91804c2.05184,-0.57029 3.99735,-0.01727 4.34547,1.23522c0.34812,1.25248 -1.03302,2.73011 -3.08485,3.3004c-2.05184,0.57029 -3.99736,0.01727 -4.34548,-1.23521c-0.34812,-1.25248 1.03303,-2.73012 3.08485,-3.30041z" fill="url(#color-14)"/><path d="M204.36939,169.52846c1.16211,-0.323 2.26401,-0.00978 2.46118,0.6996c0.19717,0.70938 -0.58508,1.54628 -1.74719,1.86927c-1.16211,0.323 -2.26403,0.00978 -2.46119,-0.69959c-0.19717,-0.70938 0.58508,-1.54629 1.7472,-1.86928z" fill="url(#color-15)"/><path d="M207.87458,171.94308c1.16211,-0.323 2.26402,-0.00979 2.46119,0.69959c0.19717,0.70938 -0.58508,1.54629 -1.74719,1.86928c-1.16211,0.323 -1.04079,0.04202 -1.23796,-0.66736c-0.19717,-0.70938 -0.63815,-1.57853 0.52397,-1.90152z" fill="url(#color-16)"/><path d="M211.61402,164.99604c1.47445,-0.40981 2.8725,-0.01238 3.12266,0.88764c0.25016,0.90003 -0.74232,1.96186 -2.21677,2.37166c-1.47445,0.40981 -2.8725,0.0124 -3.12266,-0.88763c-0.25016,-0.90003 0.74232,-1.96186 2.21677,-2.37167z" fill="url(#color-17)"/><path d="M209.54855,159.84314c3.734,-1.03784 7.60232,1.14784 8.64015,4.88185c1.03784,3.734 -1.14784,7.60232 -4.88183,8.64015c-3.734,1.03784 -6.37909,-1.1156 -7.41692,-4.84961c-1.03784,-3.734 -0.07538,-7.63457 3.65862,-8.67239z" fill="url(#color-18)"/><path d="M218.18331,162.33467c2.33817,-0.64987 4.76045,0.71876 5.41032,3.05694c0.64987,2.33817 -0.71876,4.76044 -3.05693,5.41031c-2.33817,0.64988 -4.76046,-0.71876 -5.41032,-3.05693c-0.64987,-2.33817 0.71876,-4.76045 3.05694,-5.41032z" fill="url(#color-19)"/></g><path d="M203.05151,169.9277c1.38107,0 2.75915,-2.97247 2.75915,-2.17469c0,0.79778 -1.37808,5.06366 -2.75915,5.06366c-1.38107,0 -2.50066,-0.64671 -2.50066,-1.44448c0,-0.79778 1.11958,-1.44449 2.50066,-1.44449z" fill="url(#color-20)" stroke="none"/><path d="M206.74197,171.5275c1.38107,0 2.50065,0.64671 2.50065,1.44449c0,0.79778 -1.11958,1.44449 -2.50065,1.44449c-1.38107,0 -2.50065,-0.64671 -2.50065,-1.44449c0,-0.79778 1.11958,-1.44449 2.50065,-1.44449z" fill="url(#color-21)" stroke="none"/><path d="M228.25603,190.53756c-1.7296,-2.36662 3.51561,-9.33811 3.51561,-9.33811c0,0 -5.42883,-6.63616 -4.49525,-8.95607c1.19188,-2.9618 3.30953,-4.84274 6.83182,-4.82901c4.05257,0.01579 4.13279,26.85376 0.34759,26.83901c-3.78518,-0.01475 -6.19979,-3.71582 -6.19979,-3.71582z" fill="url(#color-22)" stroke="none"/><path d="M230.08778,186.54151c0,-3.25937 2.79216,-5.90164 6.23647,-5.90164c3.44429,0 3.44431,11.80325 0,11.80325c-3.44429,0 -6.23647,-2.64224 -6.23647,-5.90162z" fill="#ffffff" stroke="#000000"/><path d="M230.08778,175.10583c0,-3.25936 2.79216,-5.90162 6.23647,-5.90162c3.44429,0 3.44431,11.80324 0,11.80324c-3.44429,0 -6.23647,-2.64225 -6.23647,-5.90163z" fill="#ffffff" stroke="#000000"/><path d="M234.90288,175.10323c0,-1.96389 0,1.96389 0,0z" fill="url(#color-23)" stroke="none"/><path d="M234.8615,183.97491c0,1.96389 0,-1.96389 0,0z" fill="url(#color-24)" stroke="none"/><path d="M233.0841,162.67303c5.68595,0.68911 12.02489,-3.86499 12.02489,-3.86499c0,0 -2.433,-12.4334 2.76815,-15.94221c3.26426,-2.20212 13.83925,3.32776 18.57044,7.32512c5.27403,4.456 22.92505,23.59987 23.04188,30.17601c0.09254,5.20925 -16.99228,24.98893 -22.9995,30.16391c-5.69828,4.90884 -16.26856,8.78271 -19.73647,5.96498c-4.71292,-3.8293 -1.65602,-15.14413 -1.65602,-15.14413c0,0 -6.97508,-5.76731 -12.26718,-4.87728c-7.34416,1.23514 -9.46664,-35.25239 0.49724,-34.04482z" fill="url(#color-25)" stroke="none"/><path d="M267.15763,161.06138c10.47602,0 18.9685,8.49249 18.9685,18.9685c0,10.47601 -8.49248,18.96849 -18.9685,18.96849c-10.47602,0 -18.9685,-8.49248 -18.9685,-18.96849c0,-10.47601 8.49248,-18.9685 18.96849,-18.9685z" fill="url(#color-26)" stroke="none"/><path d="M262.78162,153.45727c8.42807,0 15.26036,6.8323 15.26036,15.26037c0,8.42807 -6.8323,15.26036 -15.26037,15.26036c-8.42807,0 -15.26037,-6.83229 -15.26037,-15.26036c0,-8.42807 6.8323,-15.26037 15.26037,-15.26037z" fill="url(#color-27)" stroke="none"/><path d="M269.24476,162.68234c7.64041,0 13.83416,6.19376 13.83416,13.83416c0,7.6404 -6.19376,13.83416 -13.83416,13.83416c-7.64041,0 -13.83417,-6.19376 -13.83417,-13.83416c0,-7.6404 6.19376,-13.83416 13.83416,-13.83416z" fill="url(#color-28)" stroke="none"/><path d="M260.53932,149.33796c4.33218,0 7.8441,3.51194 7.8441,7.84411c0,4.33219 -3.51192,7.84411 -7.84411,7.84411c-4.33218,0 -7.84411,-3.51192 -7.84411,-7.84411c0,-4.33219 3.51194,-7.84411 7.84411,-7.84411z" fill="url(#color-29)" stroke="none"/><path d="M261.06325,193.9683c4.33218,0 7.84411,3.51192 7.84411,7.84411c0,4.33218 -3.51194,7.84411 -7.84411,7.84411c-4.33218,0 -7.84411,-3.51192 -7.84411,-7.8441c0,-4.33218 3.51194,-7.84411 7.84411,-7.84411z" fill="url(#color-30)" stroke="none"/><path d="M266.59747,154.11551c5.21311,0 9.43913,4.22603 9.43913,9.43914c0,5.21311 -4.22602,9.43914 -9.43912,9.43914c-5.21311,0 -9.43913,-4.22603 -9.43913,-9.43914c0,-5.21311 4.22605,-9.43914 9.43913,-9.43914z" fill="url(#color-31)" stroke="none"/><path d="M273.21151,187.5487c3.51472,0 6.36393,2.84923 6.36393,6.36393c0,3.51472 -2.84923,6.36395 -6.36393,6.36395c-3.51472,0 -6.36395,-2.84923 -6.36395,-6.36395c0,-3.51472 2.84923,-6.36393 6.36395,-6.36393z" fill="url(#color-32)" stroke="none"/><path d="M276.63435,181.55865c3.51472,0 6.36393,2.84923 6.36393,6.36393c0,3.51472 -2.84923,6.36395 -6.36393,6.36395c-3.51472,0 -6.36395,-2.84923 -6.36395,-6.36395c0,-3.51472 2.84923,-6.36393 6.36395,-6.36393z" fill="url(#color-33)" stroke="none"/><path d="M276.03488,165.87443c3.26435,0 5.91064,2.64628 5.91064,5.91064c0,3.26435 -2.64627,5.91064 -5.91064,5.91064c-3.26435,0 -5.91065,-2.64628 -5.91065,-5.91064c0,-3.26435 2.64628,-5.91064 5.91065,-5.91064z" fill="url(#color-34)" stroke="none"/><path d="M266.74803,186.57671c5.56265,0 10.07206,4.50941 10.07206,10.07206c0,5.56265 -4.50941,10.07206 -10.07206,10.07206c-5.56266,0 -10.07207,-4.50941 -10.07207,-10.07206c0,-5.56265 4.50941,-10.07206 10.07207,-10.07206z" fill="url(#color-35)" stroke="none"/><path d="M271.86395,160.71465c2.16474,0 3.91959,1.75486 3.91959,3.91959c0,2.16474 -1.75485,3.91959 -3.91959,3.91959c-2.16474,0 -3.9196,-1.75486 -3.9196,-3.91959c0,-2.16474 1.75486,-3.91959 3.9196,-3.91959z" fill="url(#color-36)" stroke="none"/><path d="M252.21959,200.72799c3.51472,0 6.36393,2.84923 6.36393,6.36395c0,3.51471 -2.84923,6.36393 -6.36393,6.36393c-3.51472,0 -6.36395,-2.84923 -6.36395,-6.36393c0,-3.51472 2.84924,-6.36395 6.36395,-6.36395z" fill="url(#color-37)" stroke="none"/><path d="M251.02725,147.20473c3.51472,0 6.36393,2.84923 6.36393,6.36393c0,3.51471 -2.84923,6.36393 -6.36393,6.36393c-3.51472,0 -6.36395,-2.84923 -6.36395,-6.36393c0,-3.51471 2.84924,-6.36393 6.36395,-6.36393z" fill="url(#color-38)" stroke="none"/><path d="M270.68825,169.90113c5.21311,0 9.43913,4.22603 9.43913,9.43914c0,5.21311 -4.22602,9.43914 -9.43912,9.43914c-5.21311,0 -9.43914,-4.22603 -9.43914,-9.43914c0,-5.21311 4.22606,-9.43914 9.43914,-9.43914z" fill="url(#color-39)" stroke="none"/><path d="M283.53456,174.09231c3.26435,0 5.91064,2.64628 5.91064,5.91064c0,3.26435 -2.64627,5.91064 -5.91064,5.91064c-3.26435,0 -5.91065,-2.64628 -5.91065,-5.91064c0,-3.26435 2.64628,-5.91064 5.91065,-5.91064z" fill="url(#color-40)" stroke="none"/><path d="M224.95068,171.48646c0.14675,-4.97058 3.65943,-9.68005 6.25225,-9.67005c5.39386,0.02081 10.11795,1.30144 12.75632,6.27525c1.45098,2.73535 -3.6803,11.69812 -3.6803,11.69812c0,0 5.52679,8.97901 3.68721,11.88931c-2.78962,4.41334 -7.2626,5.54038 -12.30059,5.52093c-2.15267,-0.00831 -5.16287,-2.46998 -5.56248,-6.06767c-0.53562,-4.82212 3.35319,-11.99422 3.35319,-11.99422c0,0 -4.59202,-4.72457 -4.5056,-7.65167z" fill="url(#color-41)" stroke="none"/><path d="M234.15233,179.25247c4.58426,0 8.30058,3.48345 8.30058,7.7805c0,4.29704 -3.71629,7.78049 -8.30058,7.78049c-2.04871,0 -6.04645,-3.64488 -6.26401,-7.08278c-0.26927,-4.25485 3.72845,-8.47821 6.26401,-8.47821z" fill="#ffffff" stroke="#000000"/><path d="M234.15233,164.17609c4.58426,0 8.30058,3.48343 8.30058,7.78049c0,4.29703 -3.71629,7.7805 -8.30058,7.7805c-2.45914,0 -6.56509,-4.47781 -6.38591,-8.62937c0.15484,-3.58764 4.26079,-6.93163 6.38591,-6.93163z" fill="#ffffff" stroke="#000000"/><path d="M237.70364,169.07772c2.39855,0 4.34295,1.94441 4.34295,4.34295c0,2.39855 -1.94441,4.34295 -4.34295,4.34295c-2.39855,0 -4.34295,-1.94441 -4.34295,-4.34295c0,-2.39855 1.94441,-4.34295 4.34295,-4.34295z" fill="url(#color-42)" stroke="none"/><path d="M237.65574,180.94696c2.39855,0 4.34296,1.94441 4.34296,4.34296c0,2.39855 -1.94441,4.34296 -4.34296,4.34296c-2.39855,0 -4.34296,-1.94441 -4.34296,-4.34296c0,-2.39855 1.94441,-4.34296 4.34296,-4.34296z" fill="url(#color-43)" stroke="none"/><path d="M237.39424,178.64994l4.17706,-12.98718l1.89259,6.52054l-2.04022,7.76084l1.93907,8.09339l-1.08666,4.93537l-4.97638,-11.78311z" fill="#000000" stroke="none"/></g></g></svg>