<svg version="1.1" xmlns="http://www.w3.org/2000/svg" xmlns:xlink="http://www.w3.org/1999/xlink" width="54.5" height="48.71073" viewBox="0,0,54.5,48.71073"><defs><linearGradient x1="238.0553" y1="159.6492" x2="238.0553" y2="201.66371" gradientUnits="userSpaceOnUse" id="color-1"><stop offset="0" stop-color="#ff3131"/><stop offset="1" stop-color="#da0000"/></linearGradient><linearGradient x1="237.375" y1="155.375" x2="237.375" y2="204.62501" gradientUnits="userSpaceOnUse" id="color-2"><stop offset="0" stop-color="#ffffff"/><stop offset="1" stop-color="#ff8a8a"/></linearGradient><linearGradient x1="237.375" y1="155.375" x2="237.375" y2="204.62501" gradientUnits="userSpaceOnUse" id="color-3"><stop offset="0" stop-color="#ffffff"/><stop offset="1" stop-color="#ff8a8a"/></linearGradient></defs><g transform="translate(-210.125,-155.91427)"><g data-paper-data="{&quot;isPaintingLayer&quot;:true}" fill-rule="nonzero" stroke-linejoin="miter" stroke-miterlimit="10" stroke-dasharray="" stroke-dashoffset="0" style="mix-blend-mode: normal"><path d="M225.14459,199.76723v-38.22153c0,0 8.57128,-1.89649 12.83777,-1.89649c4.33942,0 12.98365,1.89649 12.98365,1.89649v38.22153c0,0 -6.44815,1.89649 -10.21186,1.89649c-4.65328,0 -15.60955,-1.89649 -15.60955,-1.89649z" fill="url(#color-1)" stroke="#000000" stroke-width="0" stroke-linecap="butt"/><path d="M237.375,204.62501c-15.04976,0 -27.25,-11.02499 -27.25,-24.625c0,-11.28401 8.39878,-20.79533 19.85541,-23.70755c2.44872,3.3395 7.15998,9.38187 7.15998,9.38187l-9.73277,8.84274c0,0 4.91751,6.5297 6.47979,8.9857c0.26851,0.42212 1.94337,2.45754 1.61639,2.96003c-1.09378,1.68092 -6.56473,8.90793 -6.56473,8.90793c0,0 5.79369,5.36756 9.28143,9.02177c-0.00122,0.07468 -0.00052,0.14845 0.00298,0.2208c-0.28177,0.00779 -0.56462,0.01171 -0.84848,0.01171z" fill="url(#color-2)" stroke="#ff0000" stroke-width="0" stroke-linecap="butt"/><path d="M264.625,180.00001c0,10.23834 -6.91431,19.01731 -16.75345,22.73178c-3.38052,-4.13788 -6.59957,-9.25993 -6.59957,-9.25993l5.24713,-8.4406l-6.12597,-9.33484l6.00021,-8.8511c0,0 -3.46703,-6.67989 -6.16129,-10.93104c13.21284,1.70129 24.39294,11.67554 24.39294,24.08574z" fill="url(#color-3)" stroke="#ff0000" stroke-width="0" stroke-linecap="butt"/><path d="M246.16386,190.67263c0,-2.44128 1.97905,-4.42033 4.42033,-4.42033c2.44128,0 4.42033,1.97905 4.42033,4.42033c0,2.44128 -1.97905,4.42033 -4.42033,4.42033c-2.44128,0 -4.42033,-1.97905 -4.42033,-4.42033z" fill="#000000" stroke="#000000" stroke-width="0" stroke-linecap="butt"/><path d="M246.21309,169.32745c0,-2.44128 1.97905,-4.42033 4.42033,-4.42033c2.44128,0 4.42033,1.97905 4.42033,4.42033c0,2.44128 -1.97905,4.42033 -4.42033,4.42033c-2.44128,0 -4.42033,-1.97905 -4.42033,-4.42033z" fill="#000000" stroke="#000000" stroke-width="0" stroke-linecap="butt"/><path d="M257.23931,168.72229v22.27848" fill="none" stroke="#000000" stroke-width="2" stroke-linecap="round"/></g></g></svg>