<svg version="1.1" xmlns="http://www.w3.org/2000/svg" xmlns:xlink="http://www.w3.org/1999/xlink" width="459.69169" height="459.69171" viewBox="0,0,459.69169,459.69171"><defs><radialGradient cx="330.08993" cy="83.9039" r="147.28755" gradientUnits="userSpaceOnUse" id="color-1"><stop offset="0" stop-color="#ffffff" stop-opacity="0.25098"/><stop offset="1" stop-color="#ffffff" stop-opacity="0"/></radialGradient><radialGradient cx="330.08993" cy="83.9039" r="111.11172" gradientUnits="userSpaceOnUse" id="color-2"><stop offset="0" stop-color="#ffffff" stop-opacity="0.25098"/><stop offset="1" stop-color="#ffffff" stop-opacity="0"/></radialGradient><radialGradient cx="330.08993" cy="83.9039" r="73.21318" gradientUnits="userSpaceOnUse" id="color-3"><stop offset="0" stop-color="#ffffff" stop-opacity="0.25098"/><stop offset="1" stop-color="#ffffff" stop-opacity="0"/></radialGradient><radialGradient cx="330.08993" cy="83.9039" r="120.87744" gradientUnits="userSpaceOnUse" id="color-4"><stop offset="0" stop-color="#ffffff" stop-opacity="0.45882"/><stop offset="1" stop-color="#ffffff" stop-opacity="0"/></radialGradient><linearGradient x1="315.05075" y1="81.42072" x2="222.91096" y2="263.61871" gradientUnits="userSpaceOnUse" id="color-5"><stop offset="0" stop-color="#ffffff" stop-opacity="0.30196"/><stop offset="1" stop-color="#ffffff" stop-opacity="0"/></linearGradient><linearGradient x1="315.05075" y1="81.42072" x2="222.91096" y2="263.61871" gradientUnits="userSpaceOnUse" id="color-6"><stop offset="0" stop-color="#ffffff" stop-opacity="0.50196"/><stop offset="1" stop-color="#ffffff" stop-opacity="0"/></linearGradient><linearGradient x1="315.05075" y1="81.42072" x2="222.91096" y2="263.61871" gradientUnits="userSpaceOnUse" id="color-7"><stop offset="0" stop-color="#ffffff" stop-opacity="0.30196"/><stop offset="1" stop-color="#ffffff" stop-opacity="0"/></linearGradient><linearGradient x1="339.35444" y1="77.09155" x2="218.98356" y2="-32.10978" gradientUnits="userSpaceOnUse" id="color-8"><stop offset="0" stop-color="#ffffff" stop-opacity="0.30196"/><stop offset="1" stop-color="#ffffff" stop-opacity="0"/></linearGradient><linearGradient x1="339.35444" y1="77.09155" x2="218.98356" y2="-32.10978" gradientUnits="userSpaceOnUse" id="color-9"><stop offset="0" stop-color="#ffffff" stop-opacity="0.50196"/><stop offset="1" stop-color="#ffffff" stop-opacity="0"/></linearGradient><linearGradient x1="339.35444" y1="77.09155" x2="218.98356" y2="-32.10978" gradientUnits="userSpaceOnUse" id="color-10"><stop offset="0" stop-color="#ffffff" stop-opacity="0.30196"/><stop offset="1" stop-color="#ffffff" stop-opacity="0"/></linearGradient><linearGradient x1="338.78231" y1="94.31556" x2="422.02261" y2="132.68639" gradientUnits="userSpaceOnUse" id="color-11"><stop offset="0" stop-color="#ffffff" stop-opacity="0.50196"/><stop offset="1" stop-color="#ffffff" stop-opacity="0"/></linearGradient><linearGradient x1="331.50774" y1="87.83042" x2="263.51614" y2="110.80794" gradientUnits="userSpaceOnUse" id="color-12"><stop offset="0" stop-color="#ffffff" stop-opacity="0.50196"/><stop offset="1" stop-color="#ffffff" stop-opacity="0"/></linearGradient><linearGradient x1="338.34613" y1="84.45836" x2="353.55902" y2="-27.37623" gradientUnits="userSpaceOnUse" id="color-13"><stop offset="0" stop-color="#ffffff" stop-opacity="0.50196"/><stop offset="1" stop-color="#ffffff" stop-opacity="0"/></linearGradient><radialGradient cx="330.08993" cy="83.9039" r="49.26521" gradientUnits="userSpaceOnUse" id="color-14"><stop offset="0" stop-color="#ffffff"/><stop offset="1" stop-color="#ffffff" stop-opacity="0"/></radialGradient><radialGradient cx="330.08993" cy="83.9039" r="36.56796" gradientUnits="userSpaceOnUse" id="color-15"><stop offset="0" stop-color="#ffffff"/><stop offset="1" stop-color="#ffffff" stop-opacity="0"/></radialGradient><linearGradient x1="337.22603" y1="94.69049" x2="502.89148" y2="43.79372" gradientUnits="userSpaceOnUse" id="color-16"><stop offset="0" stop-color="#ffffff" stop-opacity="0.50196"/><stop offset="1" stop-color="#ffffff" stop-opacity="0"/></linearGradient><linearGradient x1="337.22603" y1="94.69049" x2="502.89148" y2="43.79372" gradientUnits="userSpaceOnUse" id="color-17"><stop offset="0" stop-color="#ffffff" stop-opacity="0.30196"/><stop offset="1" stop-color="#ffffff" stop-opacity="0"/></linearGradient><linearGradient x1="337.22603" y1="94.69049" x2="502.89148" y2="43.79372" gradientUnits="userSpaceOnUse" id="color-18"><stop offset="0" stop-color="#ffffff" stop-opacity="0.30196"/><stop offset="1" stop-color="#ffffff" stop-opacity="0"/></linearGradient><radialGradient cx="336.72828" cy="83.13817" r="80.63174" gradientUnits="userSpaceOnUse" id="color-19"><stop offset="0" stop-color="#ffffff" stop-opacity="0.25098"/><stop offset="1" stop-color="#ffffff" stop-opacity="0"/></radialGradient><radialGradient cx="336.72828" cy="83.13817" r="53.12946" gradientUnits="userSpaceOnUse" id="color-20"><stop offset="0" stop-color="#ffffff" stop-opacity="0.25098"/><stop offset="1" stop-color="#ffffff" stop-opacity="0"/></radialGradient><linearGradient x1="331.70904" y1="92.99527" x2="437.50299" y2="196.72562" gradientUnits="userSpaceOnUse" id="color-21"><stop offset="0" stop-color="#ffffff" stop-opacity="0.30196"/><stop offset="1" stop-color="#ffffff" stop-opacity="0"/></linearGradient><linearGradient x1="331.70904" y1="92.99527" x2="437.50299" y2="196.72562" gradientUnits="userSpaceOnUse" id="color-22"><stop offset="0" stop-color="#ffffff" stop-opacity="0.50196"/><stop offset="1" stop-color="#ffffff" stop-opacity="0"/></linearGradient><linearGradient x1="331.70904" y1="92.99527" x2="437.50299" y2="196.72562" gradientUnits="userSpaceOnUse" id="color-23"><stop offset="0" stop-color="#ffffff" stop-opacity="0.30196"/><stop offset="1" stop-color="#ffffff" stop-opacity="0"/></linearGradient><linearGradient x1="334.05023" y1="75.23455" x2="232.09221" y2="134.51846" gradientUnits="userSpaceOnUse" id="color-24"><stop offset="0" stop-color="#ffffff" stop-opacity="0.30196"/><stop offset="1" stop-color="#ffffff" stop-opacity="0"/></linearGradient><linearGradient x1="334.05023" y1="75.23455" x2="232.09221" y2="134.51846" gradientUnits="userSpaceOnUse" id="color-25"><stop offset="0" stop-color="#ffffff" stop-opacity="0.50196"/><stop offset="1" stop-color="#ffffff" stop-opacity="0"/></linearGradient><linearGradient x1="334.05023" y1="75.23455" x2="232.09221" y2="134.51846" gradientUnits="userSpaceOnUse" id="color-26"><stop offset="0" stop-color="#ffffff" stop-opacity="0.30196"/><stop offset="1" stop-color="#ffffff" stop-opacity="0"/></linearGradient><linearGradient x1="345.83808" y1="79.41162" x2="390.65271" y2="30.26008" gradientUnits="userSpaceOnUse" id="color-27"><stop offset="0" stop-color="#ffffff" stop-opacity="0.50196"/><stop offset="1" stop-color="#ffffff" stop-opacity="0"/></linearGradient><linearGradient x1="339.75541" y1="83.01954" x2="340.72169" y2="135.09218" gradientUnits="userSpaceOnUse" id="color-28"><stop offset="0" stop-color="#ffffff" stop-opacity="0.50196"/><stop offset="1" stop-color="#ffffff" stop-opacity="0"/></linearGradient><linearGradient x1="338.92433" y1="77.54926" x2="264.91074" y2="42.47492" gradientUnits="userSpaceOnUse" id="color-29"><stop offset="0" stop-color="#ffffff" stop-opacity="0.50196"/><stop offset="1" stop-color="#ffffff" stop-opacity="0"/></linearGradient><radialGradient cx="336.72828" cy="83.13817" r="35.75084" gradientUnits="userSpaceOnUse" id="color-30"><stop offset="0" stop-color="#ffffff"/><stop offset="1" stop-color="#ffffff" stop-opacity="0"/></radialGradient><radialGradient cx="336.72828" cy="83.13817" r="26.5367" gradientUnits="userSpaceOnUse" id="color-31"><stop offset="0" stop-color="#ffffff"/><stop offset="1" stop-color="#ffffff" stop-opacity="0"/></radialGradient><linearGradient x1="345.75573" y1="80.57038" x2="346.92149" y2="-45.19037" gradientUnits="userSpaceOnUse" id="color-32"><stop offset="0" stop-color="#ffffff" stop-opacity="0.50196"/><stop offset="1" stop-color="#ffffff" stop-opacity="0"/></linearGradient><linearGradient x1="345.75573" y1="80.57038" x2="346.92149" y2="-45.19037" gradientUnits="userSpaceOnUse" id="color-33"><stop offset="0" stop-color="#ffffff" stop-opacity="0.30196"/><stop offset="1" stop-color="#ffffff" stop-opacity="0"/></linearGradient><linearGradient x1="345.75573" y1="80.57038" x2="346.92149" y2="-45.19037" gradientUnits="userSpaceOnUse" id="color-34"><stop offset="0" stop-color="#ffffff" stop-opacity="0.30196"/><stop offset="1" stop-color="#ffffff" stop-opacity="0"/></linearGradient><radialGradient cx="332.6962" cy="82.34004" r="64.984" gradientUnits="userSpaceOnUse" id="color-35"><stop offset="0" stop-color="#ffffff" stop-opacity="0.25098"/><stop offset="1" stop-color="#ffffff" stop-opacity="0"/></radialGradient><radialGradient cx="332.6962" cy="82.34004" r="49.02304" gradientUnits="userSpaceOnUse" id="color-36"><stop offset="0" stop-color="#ffffff" stop-opacity="0.25098"/><stop offset="1" stop-color="#ffffff" stop-opacity="0"/></radialGradient><radialGradient cx="332.6962" cy="82.34004" r="32.30202" gradientUnits="userSpaceOnUse" id="color-37"><stop offset="0" stop-color="#ffffff" stop-opacity="0.25098"/><stop offset="1" stop-color="#ffffff" stop-opacity="0"/></radialGradient><radialGradient cx="332.6962" cy="82.34004" r="53.33172" gradientUnits="userSpaceOnUse" id="color-38"><stop offset="0" stop-color="#ffffff" stop-opacity="0.45882"/><stop offset="1" stop-color="#ffffff" stop-opacity="0"/></radialGradient><linearGradient x1="326.80133" y1="85.57717" x2="344.4873" y2="173.90524" gradientUnits="userSpaceOnUse" id="color-39"><stop offset="0" stop-color="#ffffff" stop-opacity="0.30196"/><stop offset="1" stop-color="#ffffff" stop-opacity="0"/></linearGradient><linearGradient x1="326.80133" y1="85.57717" x2="344.4873" y2="173.90524" gradientUnits="userSpaceOnUse" id="color-40"><stop offset="0" stop-color="#ffffff" stop-opacity="0.50196"/><stop offset="1" stop-color="#ffffff" stop-opacity="0"/></linearGradient><linearGradient x1="326.80133" y1="85.57717" x2="344.4873" y2="173.90524" gradientUnits="userSpaceOnUse" id="color-41"><stop offset="0" stop-color="#ffffff" stop-opacity="0.30196"/><stop offset="1" stop-color="#ffffff" stop-opacity="0"/></linearGradient><linearGradient x1="334.05407" y1="77.45145" x2="262.52808" y2="72.36755" gradientUnits="userSpaceOnUse" id="color-42"><stop offset="0" stop-color="#ffffff" stop-opacity="0.30196"/><stop offset="1" stop-color="#ffffff" stop-opacity="0"/></linearGradient><linearGradient x1="334.05407" y1="77.45145" x2="262.52808" y2="72.36755" gradientUnits="userSpaceOnUse" id="color-43"><stop offset="0" stop-color="#ffffff" stop-opacity="0.50196"/><stop offset="1" stop-color="#ffffff" stop-opacity="0"/></linearGradient><linearGradient x1="334.05407" y1="77.45145" x2="262.52808" y2="72.36755" gradientUnits="userSpaceOnUse" id="color-44"><stop offset="0" stop-color="#ffffff" stop-opacity="0.30196"/><stop offset="1" stop-color="#ffffff" stop-opacity="0"/></linearGradient><linearGradient x1="338.54971" y1="83.58356" x2="377.88877" y2="74.21103" gradientUnits="userSpaceOnUse" id="color-45"><stop offset="0" stop-color="#ffffff" stop-opacity="0.50196"/><stop offset="1" stop-color="#ffffff" stop-opacity="0"/></linearGradient><linearGradient x1="334.25824" y1="83.316" x2="316.92959" y2="109.81858" gradientUnits="userSpaceOnUse" id="color-46"><stop offset="0" stop-color="#ffffff" stop-opacity="0.50196"/><stop offset="1" stop-color="#ffffff" stop-opacity="0"/></linearGradient><linearGradient x1="335.71194" y1="80.28231" x2="310.51141" y2="37.33333" gradientUnits="userSpaceOnUse" id="color-47"><stop offset="0" stop-color="#ffffff" stop-opacity="0.50196"/><stop offset="1" stop-color="#ffffff" stop-opacity="0"/></linearGradient><radialGradient cx="332.6962" cy="82.34004" r="21.73605" gradientUnits="userSpaceOnUse" id="color-48"><stop offset="0" stop-color="#ffffff"/><stop offset="1" stop-color="#ffffff" stop-opacity="0"/></radialGradient><radialGradient cx="332.6962" cy="82.34004" r="16.13397" gradientUnits="userSpaceOnUse" id="color-49"><stop offset="0" stop-color="#ffffff"/><stop offset="1" stop-color="#ffffff" stop-opacity="0"/></radialGradient><linearGradient x1="338.11191" y1="84.13778" x2="381.72119" y2="21.32855" gradientUnits="userSpaceOnUse" id="color-50"><stop offset="0" stop-color="#ffffff" stop-opacity="0.50196"/><stop offset="1" stop-color="#ffffff" stop-opacity="0"/></linearGradient><linearGradient x1="338.11191" y1="84.13778" x2="381.72119" y2="21.32855" gradientUnits="userSpaceOnUse" id="color-51"><stop offset="0" stop-color="#ffffff" stop-opacity="0.30196"/><stop offset="1" stop-color="#ffffff" stop-opacity="0"/></linearGradient><linearGradient x1="338.11191" y1="84.13778" x2="381.72119" y2="21.32855" gradientUnits="userSpaceOnUse" id="color-52"><stop offset="0" stop-color="#ffffff" stop-opacity="0.30196"/><stop offset="1" stop-color="#ffffff" stop-opacity="0"/></linearGradient><radialGradient cx="331.1134" cy="85.14072" r="74.04139" gradientUnits="userSpaceOnUse" id="color-53"><stop offset="0" stop-color="#ffffff"/><stop offset="1" stop-color="#ffffff" stop-opacity="0"/></radialGradient><radialGradient cx="331.84398" cy="85.14072" r="74.04139" gradientUnits="userSpaceOnUse" id="color-54"><stop offset="0" stop-color="#ffffff"/><stop offset="1" stop-color="#ffffff" stop-opacity="0"/></radialGradient></defs><g transform="translate(-100.24425,145.94194)"><g data-paper-data="{&quot;isPaintingLayer&quot;:true}" fill-rule="nonzero" stroke="none" stroke-width="0" stroke-linecap="butt" stroke-linejoin="miter" stroke-miterlimit="10" stroke-dasharray="" stroke-dashoffset="0" style="mix-blend-mode: normal"><g><g><path d="M198.65386,17.435c36.70986,-72.59026 125.31513,-101.6771 197.90531,-64.96721c72.59025,36.70986 101.6771,125.31512 64.9672,197.90531c-36.70986,72.59025 -125.31512,101.6771 -197.90531,64.96721c-72.59025,-36.70986 -101.6771,-125.31512 -64.96721,-197.90531z" fill="url(#color-1)"/><path d="M230.93635,33.76064c27.69341,-54.76109 94.53591,-76.70385 149.29712,-49.0104c54.76109,27.69341 76.70385,94.53591 49.01041,149.29712c-27.69341,54.76109 -94.53591,76.70386 -149.29712,49.01041c-54.76109,-27.69341 -76.70385,-94.53591 -49.01041,-149.29712z" fill="url(#color-2)"/><path d="M264.75626,50.86375c18.24758,-36.08278 62.29115,-50.54121 98.37407,-32.2937c36.08278,18.24758 50.54121,62.29115 32.2937,98.37408c-18.24758,36.08278 -62.29115,50.54121 -98.37407,32.2937c-36.08278,-18.24759 -50.54121,-62.29115 -32.2937,-98.37407z" fill="url(#color-3)"/></g><path d="M222.22175,29.35364c30.12741,-59.57416 102.84485,-83.44533 162.41898,-53.31794c59.57417,30.12741 83.44533,102.84485 53.31794,162.41898c-30.12741,59.57417 -102.84485,83.44533 -162.41897,53.31794c-59.57417,-30.12741 -83.44533,-102.84485 -53.31794,-162.41897z" fill="url(#color-4)"/><path d="M206.42753,255.28271l118.09268,-169.07326l7.01418,3.54712z" fill="url(#color-5)"/><path d="M206.42753,255.28271l118.09268,-169.07326l7.01418,3.54712l-66.18714,195.32259z" fill="url(#color-6)"/><path d="M324.52005,86.2094l7.01418,3.54712l-66.18714,195.32259z" fill="url(#color-7)"/><path d="M228.72158,-42.84381l105.03905,126.10163l-4.14377,4.5677z" fill="url(#color-8)"/><path d="M228.72158,-42.84381l105.03905,126.10163l-4.14377,4.5677l-135.70315,-92.30113z" fill="url(#color-9)"/><path d="M333.7604,83.25802l-4.14377,4.56771l-135.70315,-92.30113z" fill="url(#color-10)"/><path d="M418.551,140.21706l-77.7747,-50.22766l1.47717,-3.20465l88.70592,26.51373z" fill="url(#color-11)"/><path d="M258.16431,94.97175l71.26461,-13.29272l0.88459,2.61757l-64.71863,32.66238z" data-paper-data="{&quot;index&quot;:null}" fill="url(#color-12)"/><path d="M363.67651,-25.99994l-31.14271,109.66767l-4.30535,-0.58563l-0.71731,-114.00162z" fill="url(#color-13)"/><path d="M308.33511,72.90223c6.07611,-12.01496 20.7418,-16.82931 32.75666,-10.75323c12.01496,6.07611 16.82931,20.7418 10.75323,32.75666c-6.07611,12.01496 -20.7418,16.82931 -32.75666,10.75323c-12.01496,-6.07611 -16.82931,-20.7418 -10.75323,-32.75666z" fill="#ffffff"/><path d="M286.12674,61.67127c12.27878,-24.28017 41.91576,-34.00924 66.196,-21.73043c24.28017,12.27879 34.00924,41.91576 21.73043,66.196c-12.27878,24.28017 -41.91576,34.00923 -66.196,21.73043c-24.28017,-12.27878 -34.00924,-41.91575 -21.73044,-66.19599z" fill="url(#color-14)"/><path d="M297.45742,67.40126c9.11412,-18.02243 31.11267,-25.24398 49.13509,-16.12985c18.02242,9.11412 25.24398,31.11267 16.12985,49.13509c-9.11412,18.02242 -31.11267,25.24398 -49.13509,16.12985c-18.02242,-9.11412 -25.24399,-31.11266 -16.12986,-49.13509z" fill="url(#color-15)"/><g><path d="M507.49626,58.78166l-172.91543,27.29897l-1.95948,-6.37775l158.41562,-74.49445z" fill="url(#color-16)"/><path d="M507.49626,58.78166l-172.91543,27.29897l-1.95948,-6.37775z" fill="url(#color-17)"/><path d="M334.58085,86.08058l-1.95948,-6.37775l158.41563,-74.49445z" fill="url(#color-18)"/></g><path d="M125.02474,-19.80032c57.2743,-113.25445 195.51503,-158.63536 308.76957,-101.3611c113.25444,57.2743 158.63536,195.51503 101.36111,308.76957c-57.2743,113.25445 -195.51503,158.63535 -308.76956,101.3611c-113.25444,-57.2743 -158.63535,-195.51503 -101.3611,-308.76956z" fill="none"/></g><g><g><path d="M280.27735,140.71205c-31.79721,-31.17703 -32.30006,-82.22772 -1.12297,-114.02501c31.17703,-31.79721 82.22772,-32.30006 114.02501,-1.12297c31.79721,31.17703 32.30006,82.22772 1.12297,114.02501c-31.17703,31.79721 -82.22772,32.30006 -114.02501,1.12297z" fill="url(#color-19)"/><path d="M299.53193,121.0744c-20.95158,-20.54299 -21.28292,-54.18105 -0.73996,-75.13275c20.54299,-20.95158 54.18105,-21.28292 75.13275,-0.73996c20.95158,20.54299 21.28292,54.18105 0.73996,75.13275c-20.54299,20.95158 -54.18105,21.28292 -75.13275,0.73996z" fill="url(#color-20)"/></g><path d="M428.11842,206.29675l-91.01822,-118.79998l3.99334,-4.07282z" fill="url(#color-21)"/><path d="M428.11842,206.29675l-91.01822,-118.79998l3.99334,-4.07282l120.56952,88.66084z" fill="url(#color-22)"/><path d="M337.10012,87.49687l3.99334,-4.07282l120.56952,88.66084z" fill="url(#color-23)"/><path d="M226.80559,125.42635l110.28165,-44.96899l2.24966,3.86893z" fill="url(#color-24)"/><path d="M226.80559,125.42635l110.28165,-44.96899l2.24966,3.86893l-93.63455,73.59911z" fill="url(#color-25)"/><path d="M337.08732,80.4576l2.24966,3.86893l-93.63455,73.59911z" fill="url(#color-26)"/><path d="M395.09934,34.31457l-51.81582,42.76808l-1.89229,-1.72525l37.81326,-55.53505z" fill="url(#color-27)"/><path d="M328.59324,135.31727l6.45103,-52.21035l2.00471,-0.03719l8.38361,51.93502z" data-paper-data="{&quot;index&quot;:null}" fill="url(#color-28)"/><path d="M268.08386,35.77903l69.01758,45.61692l-1.35026,2.84936l-79.00975,-24.53155z" fill="url(#color-29)"/><path d="M324.34265,95.77018c-6.97653,-6.84045 -7.08683,-18.0413 -0.24643,-25.01776c6.84045,-6.97653 18.0413,-7.08683 25.01776,-0.24643c6.97653,6.84045 7.08683,18.0413 0.24643,25.01776c-6.84045,6.97653 -18.0413,7.08683 -25.01776,0.24643z" fill="#ffffff"/><path d="M311.69888,108.66557c-14.09837,-13.82337 -14.3213,-36.45849 -0.49791,-50.55689c13.82337,-14.09837 36.45849,-14.3213 50.55689,-0.49791c14.09837,13.82337 14.3213,36.45849 0.49791,50.55689c-13.82337,14.09837 -36.45849,14.3213 -50.55689,0.49791z" fill="url(#color-30)"/><path d="M318.14969,102.08637c-10.46479,-10.26064 -10.63027,-27.06194 -0.36962,-37.52673c10.26064,-10.46479 27.06194,-10.63027 37.52673,-0.36962c10.46479,10.26064 10.63027,27.06194 0.36962,37.52673c-10.26064,10.46479 -27.06194,10.63027 -37.52673,0.36962z" fill="url(#color-31)"/><g><path d="M358.29923,-45.08498l-19.07944,125.59477l-4.84153,-0.04482l-16.74784,-125.92679z" fill="url(#color-32)"/><path d="M358.29923,-45.08498l-19.07944,125.59477l-4.84153,-0.04482z" fill="url(#color-33)"/><path d="M339.21975,80.50978l-4.84153,-0.04482l-16.74784,-125.92679z" fill="url(#color-34)"/></g><path d="M219.97886,202.20999c-65.7616,-64.47897 -66.80143,-170.05972 -2.32247,-235.82137c64.47897,-65.7616 170.05972,-66.80143 235.82137,-2.32247c65.7616,64.47897 66.80143,170.05972 2.32247,235.82137c-64.47897,65.7616 -170.05972,66.80143 -235.82137,2.32247z" fill="none"/></g><g><g><path d="M268.97706,95.09852c-7.04632,-35.19117 15.76959,-69.43144 50.96075,-76.47773c35.19117,-7.04632 69.43144,15.76959 76.47773,50.96075c7.04632,35.19117 -15.76959,69.43144 -50.96075,76.47773c-35.19117,7.04632 -69.43144,-15.76959 -76.47773,-50.96075z" fill="url(#color-35)"/><path d="M284.62734,91.96485c-5.31564,-26.54773 11.89631,-52.37811 38.44411,-57.69378c26.54773,-5.31564 52.37811,11.89631 57.69378,38.44411c5.31564,26.54773 -11.89631,52.37811 -38.44411,57.69378c-26.54773,5.31564 -52.37811,-11.89631 -57.69378,-38.44411z" fill="url(#color-36)"/><path d="M301.02294,88.68194c-3.50254,-17.49266 7.83869,-34.5127 25.33139,-38.01529c17.49266,-3.50254 34.5127,7.83869 38.01529,25.33139c3.50254,17.49266 -7.83869,34.5127 -25.33139,38.01529c-17.49266,3.50254 -34.5127,-7.83869 -38.01529,-25.33139z" fill="url(#color-37)"/></g><path d="M280.4026,92.8108c-5.78286,-28.88107 12.94195,-56.98166 41.823,-62.76452c28.88107,-5.78286 56.98166,12.94195 62.76452,41.823c5.78286,28.88107 -12.94195,56.98166 -41.823,62.76452c-28.88107,5.78286 -56.98166,-12.94195 -62.76452,-41.823zM340.41351,120.12115c20.75065,-4.15492 34.20417,-24.34487 30.04925,-45.09548c-4.15492,-20.75065 -24.34487,-34.20417 -45.09548,-30.04926c-20.75065,4.15492 -34.20417,24.34487 -30.04926,45.09549c4.15492,20.75065 24.34487,34.20417 45.09549,30.04926z" fill="url(#color-38)"/><path d="M336.49623,175.50525l-5.1042,-90.84731l3.40041,-0.68088z" fill="url(#color-39)"/><path d="M336.49623,175.50525l-5.1042,-90.84731l3.40041,-0.68088l30.26761,85.80886z" fill="url(#color-40)"/><path d="M331.39196,84.65795l3.40041,-0.68088l30.26761,85.80886z" fill="url(#color-41)"/><path d="M262.98145,65.98923l70.81228,15.12623l-0.19289,2.71417z" fill="url(#color-42)"/><path d="M262.98145,65.98923l70.81228,15.12623l-0.19289,2.71417l-72.23986,4.95848z" fill="url(#color-43)"/><path d="M333.79369,81.1156l-0.19289,2.71417l-72.23986,4.95848z" fill="url(#color-44)"/><path d="M378.73661,77.77006l-40.67408,3.76903l-0.36086,-1.51449l38.00397,-14.97613z" fill="url(#color-45)"/><path d="M310.75675,105.78251l21.10373,-24.03428l1.0203,0.66712l-13.55357,28.97091z" data-paper-data="{&quot;index&quot;:null}" fill="url(#color-46)"/><path d="M314.39692,35.05348l19.08285,46.53857l-1.65342,0.97017l-31.31839,-39.35932z" fill="url(#color-47)"/><path d="M322.14964,84.45178c-1.1663,-5.82475 2.61013,-11.4921 8.43483,-12.65837c5.82475,-1.1663 11.4921,2.61013 12.65837,8.43483c1.1663,5.82475 -2.61013,11.4921 -8.43483,12.65837c-5.82475,1.1663 -11.4921,-2.61013 -12.65837,-8.43483z" fill="#ffffff"/><path d="M311.38323,86.60758c-2.35687,-11.77082 5.27466,-23.22362 17.04552,-25.58051c11.77082,-2.35687 23.22362,5.27466 25.58051,17.04552c2.35687,11.77082 -5.27466,23.22362 -17.04552,25.58051c-11.77082,2.35687 -23.22362,-5.27466 -25.58051,-17.04552z" fill="url(#color-48)"/><path d="M316.87624,85.50769c-1.74945,-8.73712 3.91519,-17.23815 12.65229,-18.9876c8.73712,-1.74945 17.23815,3.91519 18.9876,12.65229c1.74945,8.73712 -3.91519,17.23815 -12.65229,18.9876c-8.73712,1.74945 -17.23815,-3.91519 -18.9876,-12.65229z" fill="url(#color-49)"/><g><path d="M387.40365,25.27391l-52.55602,56.59746l-2.41804,-1.67883l34.66261,-69.02102z" fill="url(#color-50)"/><path d="M387.40365,25.27391l-52.55602,56.59746l-2.41804,-1.67883z" fill="url(#color-51)"/><path d="M334.84761,81.87133l-2.41804,-1.67883l34.66261,-69.02102z" fill="url(#color-52)"/></g><path d="M233.28223,102.24565c-10.99357,-54.90484 24.6035,-108.32605 79.50837,-119.31966c54.90484,-10.99357 108.32605,24.6035 119.31966,79.50837c10.99357,54.90484 -24.6035,108.32605 -79.50837,119.31966c-54.90484,10.99357 -108.32605,-24.6035 -119.31966,-79.50837z" fill="none"/></g><path d="M315.05595,158.15533c-39.79798,-9.39534 -64.44412,-49.27444 -55.0488,-89.07244c9.39534,-39.79798 49.27444,-64.44412 89.07244,-55.0488c39.79799,9.39534 64.44412,49.27444 55.0488,89.07244c-9.39534,39.79799 -49.27444,64.44412 -89.07244,55.0488zM383.26357,97.23894c6.75037,-28.5943 -10.95756,-57.24691 -39.55186,-63.99734c-28.59431,-6.75037 -57.24691,10.95756 -63.99734,39.55187c-6.75037,28.5943 10.95756,57.2469 39.55186,63.99734c28.59431,6.75037 57.24691,-10.95756 63.99734,-39.55187z" fill="url(#color-53)"/><path d="M317.69518,155.29235c-39.79798,-9.39534 -64.44412,-49.27444 -55.0488,-89.07244c9.39534,-39.79798 49.27444,-64.44412 89.07244,-55.0488c39.79799,9.39534 64.44412,49.27444 55.0488,89.07244c-9.39534,39.79799 -49.27444,64.44412 -89.07244,55.0488zM383.99415,97.23894c6.75037,-28.5943 -10.95756,-57.24691 -39.55186,-63.99734c-28.59431,-6.75037 -57.24691,10.95756 -63.99734,39.55187c-6.75037,28.5943 10.95756,57.2469 39.55186,63.99734c28.59431,6.75037 57.24691,-10.95756 63.99734,-39.55187z" fill="url(#color-54)"/></g></g></svg>