<svg version="1.1" xmlns="http://www.w3.org/2000/svg" xmlns:xlink="http://www.w3.org/1999/xlink" width="224.13135" height="224.13135" viewBox="0,0,224.13135,224.13135"><defs><radialGradient cx="225.7953" cy="176.76565" r="49.81448" gradientUnits="userSpaceOnUse" id="color-1"><stop offset="0" stop-color="#ff0000"/><stop offset="1" stop-color="#ff0000" stop-opacity="0"/></radialGradient><linearGradient x1="200.394" y1="176.60775" x2="205.58467" y2="135.30609" gradientUnits="userSpaceOnUse" id="color-2"><stop offset="0" stop-color="#000000"/><stop offset="1" stop-color="#ff2e54"/></linearGradient><linearGradient x1="190.70195" y1="212.86418" x2="204.96704" y2="175.43251" gradientUnits="userSpaceOnUse" id="color-3"><stop offset="0" stop-color="#ff2e54"/><stop offset="1" stop-color="#000000"/></linearGradient><radialGradient cx="177.97636" cy="191.40153" r="29.04676" gradientUnits="userSpaceOnUse" id="color-4"><stop offset="0" stop-color="#ff0000"/><stop offset="1" stop-color="#ff0000" stop-opacity="0"/></radialGradient><radialGradient cx="184.47431" cy="154.02273" r="29.04676" gradientUnits="userSpaceOnUse" id="color-5"><stop offset="0" stop-color="#ff0000"/><stop offset="1" stop-color="#ff0000" stop-opacity="0"/></radialGradient><linearGradient x1="175.66793" y1="195.24549" x2="159.80746" y2="192.66996" gradientUnits="userSpaceOnUse" id="color-6"><stop offset="0" stop-color="#ff0000"/><stop offset="1" stop-color="#930000"/></linearGradient><linearGradient x1="164.64659" y1="189.61725" x2="151.77595" y2="187.52721" gradientUnits="userSpaceOnUse" id="color-7"><stop offset="0" stop-color="#8e0000"/><stop offset="1" stop-color="#ff0000"/></linearGradient><linearGradient x1="168.56512" y1="183.95352" x2="161.27545" y2="182.76977" gradientUnits="userSpaceOnUse" id="color-8"><stop offset="0" stop-color="#d60000"/><stop offset="1" stop-color="#600000"/></linearGradient><linearGradient x1="185.98978" y1="189.71203" x2="176.74089" y2="188.21013" gradientUnits="userSpaceOnUse" id="color-9"><stop offset="0" stop-color="#ff0000"/><stop offset="1" stop-color="#930000"/></linearGradient><radialGradient cx="180.29496" cy="189.11608" r="11.86467" gradientUnits="userSpaceOnUse" id="color-10"><stop offset="0" stop-color="#ff6060"/><stop offset="1" stop-color="#ff6060" stop-opacity="0"/></radialGradient><radialGradient cx="193.63213" cy="187.70248" r="7.42946" gradientUnits="userSpaceOnUse" id="color-11"><stop offset="0" stop-color="#ff6060"/><stop offset="1" stop-color="#ff6060" stop-opacity="0"/></radialGradient><linearGradient x1="183.09344" y1="144.13019" x2="168.05977" y2="138.45771" gradientUnits="userSpaceOnUse" id="color-12"><stop offset="0" stop-color="#ff0000"/><stop offset="1" stop-color="#930000"/></linearGradient><linearGradient x1="170.73344" y1="143.51617" x2="158.53372" y2="138.91299" gradientUnits="userSpaceOnUse" id="color-13"><stop offset="0" stop-color="#8e0000"/><stop offset="1" stop-color="#ff0000"/></linearGradient><linearGradient x1="171.30757" y1="150.37933" x2="164.3979" y2="147.77219" gradientUnits="userSpaceOnUse" id="color-14"><stop offset="0" stop-color="#d60000"/><stop offset="1" stop-color="#600000"/></linearGradient><linearGradient x1="189.28373" y1="154.07201" x2="180.51699" y2="150.76415" gradientUnits="userSpaceOnUse" id="color-15"><stop offset="0" stop-color="#ff0000"/><stop offset="1" stop-color="#930000"/></linearGradient><radialGradient cx="196.84796" cy="160.26926" r="7.99924" gradientUnits="userSpaceOnUse" id="color-16"><stop offset="0" stop-color="#ff6060"/><stop offset="1" stop-color="#ff6060" stop-opacity="0"/></radialGradient><radialGradient cx="183.83407" cy="152.44937" r="12.66022" gradientUnits="userSpaceOnUse" id="color-17"><stop offset="0" stop-color="#ff6060"/><stop offset="1" stop-color="#ff6060" stop-opacity="0"/></radialGradient><linearGradient x1="255.5802" y1="178.90609" x2="212.17919" y2="178.90609" gradientUnits="userSpaceOnUse" id="color-18"><stop offset="0" stop-color="#000000"/><stop offset="1" stop-color="#ff365a"/></linearGradient><radialGradient cx="284.17527" cy="181.4634" r="54.58462" gradientUnits="userSpaceOnUse" id="color-19"><stop offset="0" stop-color="#cc0025"/><stop offset="1" stop-color="#ff4949"/></radialGradient><linearGradient x1="325.96995" y1="184.58242" x2="246.82539" y2="184.58242" gradientUnits="userSpaceOnUse" id="color-20"><stop offset="0" stop-color="#ffffff"/><stop offset="1" stop-color="#e30000"/></linearGradient><radialGradient cx="285.5078" cy="184.02069" r="23.77378" gradientUnits="userSpaceOnUse" id="color-21"><stop offset="0" stop-color="#ff5656"/><stop offset="1" stop-color="#ff5656" stop-opacity="0"/></radialGradient><radialGradient cx="280.58725" cy="196.88571" r="19.12627" gradientUnits="userSpaceOnUse" id="color-22"><stop offset="0" stop-color="#ff5656"/><stop offset="1" stop-color="#ff5656" stop-opacity="0"/></radialGradient><radialGradient cx="305.32655" cy="186.63292" r="17.33877" gradientUnits="userSpaceOnUse" id="color-23"><stop offset="0" stop-color="#ff6d6d"/><stop offset="1" stop-color="#ff6d6d" stop-opacity="0"/></radialGradient><radialGradient cx="269.63626" cy="205.1035" r="9.83127" gradientUnits="userSpaceOnUse" id="color-24"><stop offset="0" stop-color="#ff4e4e"/><stop offset="1" stop-color="#ff4e4e" stop-opacity="0"/></radialGradient><radialGradient cx="277.8696" cy="160.19598" r="9.83127" gradientUnits="userSpaceOnUse" id="color-25"><stop offset="0" stop-color="#ff4e4e"/><stop offset="1" stop-color="#ff4e4e" stop-opacity="0"/></radialGradient><radialGradient cx="275.30944" cy="209.66985" r="11.83036" gradientUnits="userSpaceOnUse" id="color-26"><stop offset="0" stop-color="#ff7e7e"/><stop offset="1" stop-color="#ff7e7e" stop-opacity="0"/></radialGradient><radialGradient cx="291.80102" cy="168.8364" r="7.97612" gradientUnits="userSpaceOnUse" id="color-27"><stop offset="0" stop-color="#ff8989"/><stop offset="1" stop-color="#ff8989" stop-opacity="0"/></radialGradient><radialGradient cx="296.09104" cy="175.38803" r="7.97612" gradientUnits="userSpaceOnUse" id="color-28"><stop offset="0" stop-color="#ff6060"/><stop offset="1" stop-color="#ff6060" stop-opacity="0"/></radialGradient><radialGradient cx="296.4678" cy="197.71454" r="7.40798" gradientUnits="userSpaceOnUse" id="color-29"><stop offset="0" stop-color="#ff7e7e"/><stop offset="1" stop-color="#ff7e7e" stop-opacity="0"/></radialGradient><radialGradient cx="278.73046" cy="161.4161" r="12.62361" gradientUnits="userSpaceOnUse" id="color-30"><stop offset="0" stop-color="#ff6060"/><stop offset="1" stop-color="#ff6060" stop-opacity="0"/></radialGradient><radialGradient cx="301.89182" cy="194.76145" r="4.91254" gradientUnits="userSpaceOnUse" id="color-31"><stop offset="0" stop-color="#ffb5b5"/><stop offset="1" stop-color="#ffb5b5" stop-opacity="0"/></radialGradient><radialGradient cx="265.34302" cy="152.86437" r="7.97611" gradientUnits="userSpaceOnUse" id="color-32"><stop offset="0" stop-color="#dc0000"/><stop offset="1" stop-color="#dc0000" stop-opacity="0"/></radialGradient><radialGradient cx="262.40869" cy="215.06652" r="7.97611" gradientUnits="userSpaceOnUse" id="color-33"><stop offset="0" stop-color="#dc0000"/><stop offset="1" stop-color="#dc0000" stop-opacity="0"/></radialGradient><radialGradient cx="303.18758" cy="185.75939" r="11.83035" gradientUnits="userSpaceOnUse" id="color-34"><stop offset="0" stop-color="#ff6060"/><stop offset="1" stop-color="#ff6060" stop-opacity="0"/></radialGradient><radialGradient cx="302.6118" cy="183.26052" r="7.40798" gradientUnits="userSpaceOnUse" id="color-35"><stop offset="0" stop-color="#ff6060"/><stop offset="1" stop-color="#ff6060" stop-opacity="0"/></radialGradient><radialGradient cx="233.42861" cy="176.52711" r="49.81448" gradientUnits="userSpaceOnUse" id="color-36"><stop offset="0" stop-color="#ff002e"/><stop offset="1" stop-color="#ff002e" stop-opacity="0"/></radialGradient><linearGradient x1="253.89041" y1="174.48013" x2="285.94538" y2="228.06055" gradientUnits="userSpaceOnUse" id="color-37"><stop offset="0" stop-color="#ffffff" stop-opacity="0"/><stop offset="1" stop-color="#ffffff" stop-opacity="0.50196"/></linearGradient><linearGradient x1="284.13496" y1="152.71199" x2="284.13496" y2="226.64827" gradientUnits="userSpaceOnUse" id="color-38"><stop offset="0" stop-color="#ff002e" stop-opacity="0"/><stop offset="1" stop-color="#ff002e"/></linearGradient><linearGradient x1="200.93346" y1="131.32942" x2="200.93346" y2="207.28214" gradientUnits="userSpaceOnUse" id="color-39"><stop offset="0" stop-color="#ff002e" stop-opacity="0"/><stop offset="1" stop-color="#ff002e"/></linearGradient><linearGradient x1="281.62258" y1="123.86155" x2="281.62258" y2="175.46412" gradientUnits="userSpaceOnUse" id="color-40"><stop offset="0" stop-color="#ff002e"/><stop offset="1" stop-color="#ff002e" stop-opacity="0"/></linearGradient><linearGradient x1="248.11056" y1="145.26455" x2="233.02973" y2="224.74036" gradientUnits="userSpaceOnUse" id="color-41"><stop offset="0" stop-color="#ff002e" stop-opacity="0"/><stop offset="1" stop-color="#ff002e"/></linearGradient><linearGradient x1="184.91933" y1="129.79295" x2="184.91933" y2="225.16908" gradientUnits="userSpaceOnUse" id="color-42"><stop offset="0" stop-color="#ffffff" stop-opacity="0"/><stop offset="1" stop-color="#ffffff" stop-opacity="0.50196"/></linearGradient><linearGradient x1="238.4681" y1="194.12907" x2="219.8541" y2="139.88014" gradientUnits="userSpaceOnUse" id="color-43"><stop offset="0" stop-color="#ffffff" stop-opacity="0"/><stop offset="1" stop-color="#ffffff" stop-opacity="0.50196"/></linearGradient></defs><g transform="translate(-127.93433,-67.93433)"><g data-paper-data="{&quot;isPaintingLayer&quot;:true}" fill-rule="nonzero" stroke-width="0" stroke-linecap="butt" stroke-linejoin="miter" stroke-miterlimit="10" stroke-dasharray="" stroke-dashoffset="0" style="mix-blend-mode: normal"><path d="M225.7953,126.95117c27.51178,0 49.81449,22.3027 49.81449,49.81448c0,27.51178 -22.30271,49.81448 -49.81449,49.81448c-27.51178,0 -49.81448,-22.3027 -49.81448,-49.81448c0,-27.51178 22.3027,-49.81448 49.81448,-49.81448z" data-paper-data="{&quot;index&quot;:null}" fill="url(#color-1)" stroke="none"/><path d="M175.3593,167.30665c-16.76058,-8.27449 -21.53504,-28.49043 -21.53504,-28.49043c0,0 14.49963,-11.18608 29.85266,-5.6227c7.54953,2.73568 17.59248,16.03268 25.21452,21.09694c16.76613,11.1398 41.24563,20.05824 41.24563,20.05824l0.7782,8.60841c0,0 -24.69718,-10.5214 -46.43292,-14.04109c-11.78637,-1.90858 -23.5994,1.11759 -29.12304,-1.60936z" data-paper-data="{&quot;index&quot;:null}" fill="url(#color-2)" stroke="#ff0000"/><path d="M147.52236,185.77434c0,0 12.51167,-15.25746 31.19477,-14.68665c5.82386,0.17794 14.56216,6.82353 25.17992,10.37833c21.30932,7.13428 47.75376,11.75753 47.75376,11.75753l-2.41384,6.43783c0,0 -25.7995,-3.62913 -45.83378,-1.6732c-9.10777,0.88919 -24.22079,7.90829 -32.17046,6.776c-16.16676,-2.30267 -23.71039,-18.98984 -23.71039,-18.98984z" data-paper-data="{&quot;index&quot;:null}" fill="url(#color-3)" stroke="#ff0000"/><path d="M188.32029,164.25899c14.9904,5.71279 22.5114,22.49606 16.7986,37.48647c-5.71279,14.9904 -22.49606,22.5114 -37.48647,16.7986c-14.9904,-5.7128 -22.51139,-22.49606 -16.79859,-37.48647c5.71279,-14.9904 22.49605,-22.5114 37.48646,-16.7986z" data-paper-data="{&quot;index&quot;:null}" fill="url(#color-4)" stroke="#000000"/><path d="M188.09632,125.20268c15.91686,2.00039 27.19842,16.5252 25.19803,32.44207c-2.00039,15.91686 -16.5252,27.19842 -32.44207,25.19803c-15.91686,-2.00039 -27.19841,-16.5252 -25.19802,-32.44207c2.00039,-15.91686 16.52519,-27.19842 32.44206,-25.19803z" data-paper-data="{&quot;index&quot;:null}" fill="url(#color-5)" stroke="#000000"/><g data-paper-data="{&quot;index&quot;:null}" stroke="none"><path d="M166.95164,198.79848c-4.37975,-0.71121 -7.5783,-3.45505 -7.14416,-6.12853c0.43414,-2.67349 4.33657,-4.26421 8.71632,-3.553c4.37975,0.71122 7.57829,3.45506 7.14415,6.12854c-0.43414,2.67348 -4.33655,4.2642 -8.7163,3.55299z" fill="url(#color-6)"/><path d="M157.57338,192.50049c-3.55413,-0.57715 -6.14973,-2.80374 -5.79743,-4.97326c0.3523,-2.16952 3.51909,-3.46038 7.07323,-2.88323c3.55413,0.57715 6.14972,2.80373 5.79742,4.97325c-0.3523,2.16952 -3.51907,3.46038 -7.07321,2.88323z" fill="url(#color-7)"/><path d="M161.27544,182.76976c0.19953,-1.22875 1.99315,-1.95986 4.00614,-1.63298c2.01299,0.32688 3.48308,1.58796 3.28354,2.81674c-0.19953,1.22877 -1.99312,1.95988 -4.00611,1.633c-2.01302,-0.32688 -3.48311,-1.58798 -3.28357,-2.81676z" fill="url(#color-8)"/><path d="M176.74091,188.21014c0.25316,-1.55902 2.5288,-2.48663 5.08282,-2.07189c2.554,0.41474 4.41919,2.01477 4.16603,3.57379c-0.25316,1.559 -2.5288,2.48663 -5.08282,2.07189c-2.55399,-0.41473 -4.41919,-2.01477 -4.16603,-3.57379z" fill="url(#color-9)"/><path d="M178.39321,200.82734c-6.46795,-1.05032 -10.85982,-7.14507 -9.8095,-13.61304c1.05031,-6.46797 7.14505,-10.85981 13.61302,-9.80949c6.46795,1.05032 10.8598,7.14505 9.80948,13.61302c-1.05032,6.46797 -7.14504,10.85983 -13.61301,9.80951z" fill="url(#color-10)"/><path d="M186.29872,186.51162c0.65769,-4.05012 4.47415,-6.80023 8.52427,-6.14254c4.05013,0.65768 6.80024,4.47412 6.14255,8.52424c-0.65769,4.05013 -4.47414,6.80024 -8.52426,6.14255c-4.05013,-0.65769 -6.80025,-4.47413 -6.14256,-8.52425z" fill="url(#color-11)"/></g><g data-paper-data="{&quot;index&quot;:null}" stroke="none"><path d="M168.05977,138.45772c0.95617,-2.53413 5.09669,-3.3186 9.24813,-1.75219c4.15143,1.5664 6.74169,4.89053 5.78552,7.42465c-0.95617,2.53411 -5.09667,3.31858 -9.24811,1.75217c-4.15142,-1.56641 -6.74171,-4.89052 -5.78554,-7.42464z" data-paper-data="{&quot;index&quot;:null}" fill="url(#color-12)"/><path d="M158.53372,138.91298c0.77593,-2.05643 4.13593,-2.69301 7.50479,-1.42188c3.36885,1.27112 5.47082,3.96862 4.6949,6.02504c-0.77593,2.05642 -4.13591,2.69302 -7.50477,1.42189c-3.36885,-1.27111 -5.47084,-3.96862 -4.69492,-6.02504z" data-paper-data="{&quot;index&quot;:null}" fill="url(#color-13)"/><path d="M164.3979,147.77221c0.43947,-1.16472 2.34252,-1.52528 4.25057,-0.80533c1.90804,0.71994 3.09857,2.24774 2.65909,3.41246c-0.43947,1.1647 -2.34249,1.52527 -4.25054,0.80532c-1.90805,-0.71995 -3.0986,-2.24775 -2.65912,-3.41247z" data-paper-data="{&quot;index&quot;:null}" fill="url(#color-14)"/><path d="M180.517,150.76415c0.55757,-1.47775 2.97207,-1.93523 5.39294,-1.02179c2.42087,0.91343 3.93134,2.85187 3.37376,4.32962c-0.55758,1.47775 -2.97206,1.93521 -5.39293,1.02177c-2.42088,-0.91343 -3.93136,-2.85185 -3.37378,-4.3296z" data-paper-data="{&quot;index&quot;:null}" fill="url(#color-15)"/><path d="M194.02405,167.75346c-4.13342,-1.55962 -6.2199,-6.17471 -4.66029,-10.30813c1.55961,-4.13342 6.17471,-6.21989 10.30813,-4.66028c4.1334,1.55961 6.21988,6.17471 4.66027,10.30813c-1.55961,4.13341 -6.1747,6.21988 -10.30812,4.66027z" fill="url(#color-16)"/><path d="M179.3647,164.29449c-6.54188,-2.46837 -9.8441,-9.7726 -7.37574,-16.31446c2.46836,-6.54187 9.77258,-9.84409 16.31446,-7.37572c6.54187,2.46836 9.84408,9.77259 7.37572,16.31445c-2.46836,6.54186 -9.77258,9.84408 -16.31444,7.37572z" fill="url(#color-17)"/></g><path d="M352.06568,292.06568h-224.13135v-224.13135h224.13135z" data-paper-data="{&quot;index&quot;:null}" fill="none" stroke="none"/><path d="M214.89176,206.28585c0,0 1.98803,-6.41053 3.76558,-8.81021c1.63005,-2.20054 6.49563,-5.04228 6.49563,-5.04228l-18.09751,-2.60108l15.97398,-9.51222l-15.67259,-8.74095l18.98794,-4.62757c0,0 -7.32871,-3.15562 -9.72723,-5.07093c-2.32079,-1.85325 -4.13698,-9.06887 -4.13698,-9.06887c0,0 11.1216,5.14175 17.1555,5.14175c7.91588,0 25.94412,-2.31378 25.94412,-2.31378v46.53278c0,0 -14.00993,-3.00747 -21.41556,-2.2588c-4.12319,0.41683 -19.2729,6.37219 -19.2729,6.37219z" data-paper-data="{&quot;index&quot;:null}" fill="url(#color-18)" stroke="#ff0000"/><path d="M292.58635,209.1148c-18.44535,14.30856 -22.27555,23.59465 -30.41802,18.85316c-8.14246,-4.74148 -8.62998,-17.77156 -11.45462,-31.55133c-1.77329,-8.65083 -9.76545,-14.1796 -9.76545,-14.1796c0,0 7.9773,-7.93896 9.76217,-15.12483c2.3001,-9.26013 5.65618,-25.74396 10.67199,-30.8373c6.34646,-5.79514 8.69376,-1.88234 26.79523,12.85738c11.76407,9.5793 39.48526,24.21988 39.22277,31.6118c-0.2904,8.17792 -18.25858,15.5282 -34.81407,28.37074z" data-paper-data="{&quot;index&quot;:null}" fill="url(#color-19)" stroke="#000000"/><g data-paper-data="{&quot;index&quot;:null}"><path d="M244.39614,199.92185c-3.99844,0 -8.03966,-0.62536 -9.55868,-3.44326c-0.53448,-0.9915 -0.22854,-3.42944 -0.22854,-4.58322c0,-4.43291 4.38189,-8.02649 9.78722,-8.02649c5.40533,0 9.78722,3.59359 9.78722,8.02649c0,4.43291 -4.38189,8.02649 -9.78722,8.02649z" fill="#000000" stroke="none"/><path d="M234.60892,180.38011c0,-1.32827 0.39343,-4.30534 1.08993,-5.40881c1.62794,-2.57917 4.91161,-2.61768 8.69729,-2.61768c5.40533,0 9.78722,3.59359 9.78722,8.02649c0,4.43291 -4.38189,8.02649 -9.78722,8.02649c-5.40533,0 -9.78722,-3.59359 -9.78722,-8.02649z" fill="#000000" stroke="none"/><path d="M237.27668,191.48734c0,-3.35911 3.79274,-6.08222 8.47134,-6.08222c4.67859,0 8.47133,2.7231 8.47133,6.08222c0,3.35911 -3.79275,6.08222 -8.47133,6.08222c-4.6786,0 -8.47134,-2.7231 -8.47134,-6.08222z" fill="#ffffff" stroke="#000000"/><path d="M237.27668,180.78816c0,-3.35911 3.79274,-6.08222 8.47134,-6.08222c4.67859,0 8.47133,2.7231 8.47133,6.08222c0,3.35911 -3.79275,6.08222 -8.47133,6.08222c-4.6786,0 -8.47134,-2.7231 -8.47134,-6.08222z" fill="#ffffff" stroke="#000000"/><path d="M244.11396,189.83149c0,-1.37544 1.75423,-2.49045 3.91815,-2.49045c2.16393,0 3.91815,1.11501 3.91815,2.49045c0,1.37544 -1.75423,2.49045 -3.91815,2.49045c-2.16393,0 -3.91815,-1.11501 -3.91815,-2.49045z" fill="#000000" stroke="none"/><path d="M243.84913,182.68574c0,-1.37544 1.75423,-2.49045 3.91815,-2.49045c2.16393,0 3.91815,1.11501 3.91815,2.49045c0,1.37544 -1.75423,2.49045 -3.91815,2.49045c-2.16393,0 -3.91815,-1.11501 -3.91815,-2.49045z" fill="#000000" stroke="none"/></g><path d="M254.42449,197.86503c0,0 -8.89274,-8.62144 -8.84017,-12.89473c0.05419,-4.40255 8.63444,-12.71247 8.63444,-12.71247c0,0 11.6423,-0.0025 16.76732,0.85774c5.2949,0.88875 14.50903,4.39205 14.50903,4.39205l-15.31046,-18.5814c0,0 19.75615,6.68473 28.3857,10.71382c9.18343,4.2877 20.61793,14.58539 20.61793,14.58539c0,0 -10.37109,8.66643 -18.54767,12.4773c-9.26709,4.31914 -29.65523,11.80354 -29.65523,11.80354l14.58049,-16.90531c0,0 -12.37328,4.50677 -17.89,5.61646c-4.74795,0.95504 -13.25138,0.64759 -13.25138,0.64759z" data-paper-data="{&quot;index&quot;:null}" fill="url(#color-20)" stroke="#ff0000"/><g data-paper-data="{&quot;index&quot;:null}" stroke="none"><path d="M285.50779,204.76754c-13.1299,0 -23.77378,-9.28868 -23.77378,-20.74685c0,-11.45817 10.64388,-20.74684 23.77379,-20.74684c13.12991,0 23.77379,9.28867 23.77379,20.74684c0,11.45817 -10.64388,20.74685 -23.77379,20.74685z" fill="url(#color-21)"/><path d="M280.58724,213.57679c-10.56316,0 -19.12628,-7.47284 -19.12628,-16.69107c0,-9.21823 8.56312,-16.69106 19.12628,-16.69106c10.56316,0 19.12628,7.47283 19.12628,16.69106c0,9.21823 -8.56311,16.69107 -19.12627,16.69107z" fill="url(#color-22)"/><path d="M305.32653,201.76408c-9.57594,0 -17.33877,-6.77444 -17.33877,-15.13115c0,-8.3567 7.76284,-15.13115 17.33879,-15.13115c9.57594,0 17.33877,6.77444 17.33877,15.13115c0,8.3567 -7.76282,15.13115 -17.33877,15.13115z" fill="url(#color-23)"/><path d="M269.63624,213.68303c-5.42966,0 -9.83127,-3.84118 -9.83127,-8.57953c0,-4.73835 4.40161,-8.57953 9.83127,-8.57953c5.42967,0 9.83127,3.84118 9.83127,8.57953c0,4.73834 -4.40159,8.57953 -9.83125,8.57953z" fill="url(#color-24)"/><path d="M277.8696,168.77548c-5.42966,0 -9.83127,-3.84119 -9.83127,-8.57953c0,-4.73833 4.40161,-8.57951 9.83127,-8.57951c5.42966,0 9.83127,3.84119 9.83127,8.57953c0,4.73835 -4.40161,8.57953 -9.83127,8.57953z" fill="url(#color-25)"/><path d="M275.30946,219.99395c-6.53372,0 -11.83035,-4.62224 -11.83035,-10.32409c0,-5.70185 5.29661,-10.32409 11.83035,-10.32409c6.53372,0 11.83033,4.62224 11.83033,10.32409c0,5.70185 -5.29661,10.32409 -11.83035,10.32409z" fill="url(#color-26)"/><path d="M283.8249,168.83639c0,-3.84423 3.57102,-6.96058 7.97612,-6.96058c4.40509,0 7.97611,3.11635 7.97611,6.96058c0,3.84422 -3.57101,6.96057 -7.97611,6.96057c-4.4051,0 -7.97612,-3.11634 -7.97612,-6.96057z" fill="url(#color-27)"/><path d="M288.11492,175.38803c0,-3.84423 3.57102,-6.96058 7.97612,-6.96058c4.40509,0 7.97611,3.11635 7.97611,6.96058c0,3.84422 -3.57101,6.96057 -7.97611,6.96057c-4.4051,0 -7.97612,-3.11634 -7.97612,-6.96057z" fill="url(#color-28)"/><path d="M289.05981,197.71454c0,-3.57041 3.31667,-6.46478 7.40799,-6.46478c4.09133,0 7.40798,2.89438 7.40798,6.46478c0,3.57041 -3.31666,6.46478 -7.40798,6.46478c-4.09133,0 -7.40799,-2.89438 -7.40799,-6.46478z" fill="url(#color-29)"/><path d="M266.10683,161.41612c0,-6.08416 5.65178,-11.01634 12.62363,-11.01634c6.97183,0 12.62361,4.93217 12.62361,11.01634c0,6.08416 -5.65177,11.01634 -12.62361,11.01634c-6.97185,0 -12.62363,-4.93217 -12.62363,-11.01634z" fill="url(#color-30)"/><path d="M296.97926,194.76146c0,-2.36768 2.19943,-4.28706 4.91256,-4.28706c2.71313,0 4.91254,1.91937 4.91254,4.28706c0,2.36768 -2.19941,4.28706 -4.91254,4.28706c-2.71314,0 -4.91256,-1.91937 -4.91256,-4.28706z" fill="url(#color-31)"/><path d="M257.3669,152.86436c0,-3.84422 3.57102,-6.96057 7.97612,-6.96057c4.40509,0 7.97611,3.11636 7.97611,6.96057c0,3.84423 -3.57101,6.96058 -7.97611,6.96058c-4.40508,0 -7.97612,-3.11635 -7.97612,-6.96058z" fill="url(#color-32)"/><path d="M254.43257,215.06651c0,-3.84422 3.57102,-6.96057 7.97612,-6.96057c4.40509,0 7.97611,3.11636 7.97611,6.96057c0,3.84422 -3.57101,6.96057 -7.97611,6.96057c-4.40508,0 -7.97612,-3.11636 -7.97612,-6.96057z" fill="url(#color-33)"/><path d="M303.1876,196.08346c-6.53371,0 -11.83036,-4.62224 -11.83036,-10.32409c0,-5.70185 5.29662,-10.32409 11.83036,-10.32409c6.53372,0 11.83033,4.62224 11.83033,10.32409c0,5.70185 -5.29661,10.32409 -11.83035,10.32409z" fill="url(#color-34)"/><path d="M295.20381,183.26051c0,-3.57041 3.31667,-6.46478 7.40799,-6.46478c4.09133,0 7.40798,2.89438 7.40798,6.46478c0,3.57041 -3.31666,6.46478 -7.40798,6.46478c-4.09133,0 -7.40799,-2.89438 -7.40799,-6.46478z" fill="url(#color-35)"/></g><g><path d="M233.42861,126.71263c27.51178,0 49.81449,22.3027 49.81449,49.81448c0,27.51178 -22.30271,49.81448 -49.81449,49.81448c-27.51178,0 -49.81448,-22.3027 -49.81448,-49.81448c0,-27.51178 22.3027,-49.81448 49.81448,-49.81448z" data-paper-data="{&quot;index&quot;:null}" fill="url(#color-36)" stroke="none"/><path d="M289.59007,225.88008c0,0 -20.60625,-6.42981 -27.34536,-19.29732c-10.14331,-19.36742 -0.33389,-36.90092 -0.33389,-36.90092c0,0 1.90149,18.30589 7.59516,28.9478c5.69367,10.64192 20.08409,27.25044 20.08409,27.25044z" data-paper-data="{&quot;index&quot;:null}" fill="url(#color-37)" stroke="#000000"/><path d="M297.78189,226.64827c0,0 -20.38936,-13.57815 -25.16545,-30.62494c-7.18868,-25.65779 6.13734,-43.31134 6.13734,-43.31134c0,0 -1.23184,21.99549 2.84366,36.1291c4.0755,14.1336 16.18445,37.80717 16.18445,37.80717z" data-paper-data="{&quot;index&quot;:null}" fill="url(#color-38)" stroke="#000000"/><path d="M200.96467,171.13484c-1.91171,14.58471 2.60203,36.1473 2.60203,36.1473c0,0 -15.82078,-15.45746 -12.55784,-41.90275c2.16788,-17.56997 20.29249,-34.04997 20.29249,-34.04997c0,0 -8.42499,25.22071 -10.3367,39.80541z" data-paper-data="{&quot;index&quot;:null}" fill="url(#color-39)" stroke="#000000"/><path d="M272.09794,123.86155c0,0 14.23042,9.47664 17.5638,21.37415c5.01721,17.90743 -4.28345,30.22842 -4.28345,30.22842c0,0 0.85973,-15.35138 -1.98468,-25.21569c-2.84443,-9.86431 -11.29566,-26.38687 -11.29566,-26.38687z" data-paper-data="{&quot;index&quot;:null}" fill="url(#color-40)" stroke="#000000"/><path d="M239.25874,188.68657c-0.49273,15.84959 6.65269,38.49815 6.65269,38.49815c0,0 -18.62258,-14.89157 -17.94732,-43.60864c0.44862,-19.07934 18.13089,-38.69398 18.13089,-38.69398c0,0 -6.34351,27.95489 -6.83623,43.80448z" data-paper-data="{&quot;index&quot;:null}" fill="url(#color-41)" stroke="#000000"/><path d="M187.77576,225.16908c0,0 -10.20903,-20.11119 -9.56548,-42.1609c0.96864,-33.18793 13.4473,-53.21523 13.4473,-53.21523c0,0 -5.6106,27.31475 -6.06943,45.61408c-0.45883,18.29933 2.1876,49.76204 2.1876,49.76204z" data-paper-data="{&quot;index&quot;:null}" fill="url(#color-42)" stroke="#000000"/><path d="M220.48889,197.58979c0,0 -13.85605,-19.87451 -9.6985,-34.28295c6.25769,-21.68673 29.47711,-27.35595 29.47711,-27.35595c0,0 -13.01864,14.84708 -16.34601,26.85174c-3.32737,12.00467 -3.43259,34.78715 -3.43259,34.78715z" data-paper-data="{&quot;index&quot;:null}" fill="url(#color-43)" stroke="#000000"/></g></g></g></svg>