<svg version="1.1" xmlns="http://www.w3.org/2000/svg" xmlns:xlink="http://www.w3.org/1999/xlink" width="56.4303" height="59.45807" viewBox="0,0,56.4303,59.45807"><defs><radialGradient cx="227.15467" cy="168.38393" r="18.11295" gradientUnits="userSpaceOnUse" id="color-1"><stop offset="0" stop-color="#000000" stop-opacity="0.70196"/><stop offset="1" stop-color="#000000" stop-opacity="0"/></radialGradient><radialGradient cx="227.15467" cy="191.61607" r="18.11295" gradientUnits="userSpaceOnUse" id="color-2"><stop offset="0" stop-color="#000000" stop-opacity="0.70196"/><stop offset="1" stop-color="#000000" stop-opacity="0"/></radialGradient><radialGradient cx="258.56239" cy="194.5719" r="10.72047" gradientUnits="userSpaceOnUse" id="color-3"><stop offset="0" stop-color="#ff0000" stop-opacity="0"/><stop offset="1" stop-color="#ff0000"/></radialGradient><radialGradient cx="258.72591" cy="164.29616" r="10.72047" gradientUnits="userSpaceOnUse" id="color-4"><stop offset="0" stop-color="#ff0000" stop-opacity="0"/><stop offset="1" stop-color="#ff0000"/></radialGradient><linearGradient x1="224.16281" y1="154.31647" x2="224.16281" y2="204.98337" gradientUnits="userSpaceOnUse" id="color-5"><stop offset="0" stop-color="#ff3030"/><stop offset="1" stop-color="#c70000"/></linearGradient><linearGradient x1="230.5153" y1="154.24598" x2="230.5153" y2="205.21663" gradientUnits="userSpaceOnUse" id="color-6"><stop offset="0" stop-color="#ffffff"/><stop offset="1" stop-color="#ff6868"/></linearGradient></defs><g transform="translate(-209.04169,-150.27096)"><g data-paper-data="{&quot;isPaintingLayer&quot;:true}" fill-rule="nonzero" stroke-linecap="butt" stroke-linejoin="miter" stroke-miterlimit="10" stroke-dasharray="" stroke-dashoffset="0" style="mix-blend-mode: normal"><path d="M227.00326,186.49625c-10.00316,-0.08362 -18.04454,-8.26057 -17.96092,-18.26372c0.08362,-10.00316 8.26057,-18.04454 18.26372,-17.96092c10.00316,0.08362 18.04454,8.26057 17.96092,18.26372c-0.08362,10.00316 -8.26057,18.04454 -18.26372,17.96092z" fill="url(#color-1)" stroke="#000000" stroke-width="0"/><path d="M227.00326,209.72839c-10.00316,-0.08362 -18.04454,-8.26057 -17.96092,-18.26372c0.08362,-10.00316 8.26057,-18.04454 18.26372,-17.96092c10.00316,0.08362 18.04454,8.26057 17.96092,18.26372c-0.08362,10.00316 -8.26057,18.04454 -18.26372,17.96092z" fill="url(#color-2)" stroke="#000000" stroke-width="0"/><path d="M234.99579,202.99895v-47.21211h18.60979v47.21211z" fill-opacity="0.16078" fill="#ff0000" stroke="none" stroke-width="0"/><g data-paper-data="{&quot;index&quot;:null}"><path d="M252.66217,156.70365l-22.58676,-0.08066l0.01491,-1.89635l22.58262,-0.01888z" fill="#e60000" stroke="none" stroke-width="0"/><g><path d="M263.70624,203.30774l-10.38183,-0.03707l0.09416,-17.4346l10.38183,0.03707z" fill="url(#color-3)" stroke="#e60000" stroke-width="3"/><path d="M258.72691,173.75477c0,0 -3.65366,-0.01247 -3.65826,5.66649c-0.00396,4.87582 3.59692,5.69241 3.59692,5.69241l-6.93034,-0.02475l0.06134,-11.35891l6.93034,0.02475z" fill="#ff4c4c" stroke="#ff4d4d" stroke-width="0"/><path d="M263.86974,173.03199l-10.38183,-0.03707l0.09416,-17.4346l10.38183,0.03707z" fill="url(#color-4)" stroke="#e60000" stroke-width="3"/><path d="M252.31063,204.12853l-22.58676,-0.08066l0.01491,-1.89635l22.58262,-0.01888z" fill="#e60000" stroke="none" stroke-width="0"/></g></g><path d="M238.73475,208.40795l-6.06405,-0.02166l0.31386,-58.11532l6.06405,0.02166z" data-paper-data="{&quot;index&quot;:null}" fill="#ff0000" stroke="none" stroke-width="NaN"/><path d="M233.19443,204.98337l-18.33651,-0.06547l0.05471,-50.60143l18.55508,0.06547z" data-paper-data="{&quot;index&quot;:null}" fill="url(#color-5)" stroke="none" stroke-width="0"/><path d="M232.97859,205.21663l-4.76461,-0.01701l0.05661,-50.95364l4.76461,0.01701z" data-paper-data="{&quot;index&quot;:null}" fill="url(#color-6)" stroke="none" stroke-width="0"/></g></g></svg>