<svg version="1.1" xmlns="http://www.w3.org/2000/svg" xmlns:xlink="http://www.w3.org/1999/xlink" width="345.68724" height="192.51816" viewBox="0,0,345.68724,192.51816"><defs><radialGradient cx="485.42247" cy="122.04181" r="77" gradientUnits="userSpaceOnUse" id="color-1"><stop offset="0" stop-color="#ff0077" stop-opacity="0.82258"/><stop offset="1" stop-color="#ff0077" stop-opacity="0.27451"/></radialGradient><radialGradient cx="517.92246" cy="172.54181" r="65.00141" gradientUnits="userSpaceOnUse" id="color-2"><stop offset="0" stop-color="#ff0077" stop-opacity="0.82258"/><stop offset="1" stop-color="#ff0077" stop-opacity="0.27451"/></radialGradient><radialGradient cx="256.74659" cy="158.50895" r="19.5" gradientUnits="userSpaceOnUse" id="color-3"><stop offset="0" stop-color="#ff0077" stop-opacity="0.67059"/><stop offset="1" stop-color="#ff0077" stop-opacity="0.27451"/></radialGradient></defs><g transform="translate(-237.24431,-45.03273)"><g data-paper-data="{&quot;isPaintingLayer&quot;:true}" fill-rule="nonzero" stroke="none" stroke-width="0" stroke-linecap="butt" stroke-linejoin="miter" stroke-miterlimit="10" stroke-dasharray="" stroke-dashoffset="0" style="mix-blend-mode: normal"><path d="M475.10588,45.73606c42.14251,-5.69769 80.92465,23.84666 86.62234,65.98917c5.69769,42.14251 -23.84666,80.92465 -65.98917,86.62234c-42.14251,5.69769 -80.92465,-23.84666 -86.62234,-65.98917c-5.69769,-42.14251 23.84666,-80.92465 65.98917,-86.62234z" fill="url(#color-1)"/><path d="M509.21346,108.12646c35.57562,-4.80984 68.3145,20.13074 73.12435,55.70636c4.80984,35.57562 -20.13074,68.3145 -55.70636,73.12435c-35.57562,4.80984 -68.3145,-20.13074 -73.12435,-55.70636c-4.80984,-35.57562 20.13074,-68.3145 55.70636,-73.12435z" fill="url(#color-2)"/><path d="M237.42242,161.1216c-1.44292,-10.67245 6.03909,-20.4939 16.71154,-21.93683c10.67245,-1.44292 20.4939,6.03909 21.93683,16.71154c1.44292,10.67245 -6.03909,20.4939 -16.71154,21.93683c-10.67245,1.44292 -20.4939,-6.03909 -21.93683,-16.71154z" fill="url(#color-3)"/></g></g></svg>