<svg version="1.1" xmlns="http://www.w3.org/2000/svg" xmlns:xlink="http://www.w3.org/1999/xlink" width="37.6" height="43.6" viewBox="0,0,37.6,43.6"><g transform="translate(-221.2,-158.2)"><g data-paper-data="{&quot;isPaintingLayer&quot;:true}" fill-rule="nonzero" stroke="none" stroke-linecap="butt" stroke-linejoin="miter" stroke-miterlimit="10" stroke-dasharray="" stroke-dashoffset="0" style="mix-blend-mode: normal"><path d="M221.2,201.8v-43.6h37.6v43.6z" fill="none" stroke-width="0"/><path d="M236.40078,183.49756v-4.1686c0,-0.66426 0.23724,-1.11162 0.71171,-1.34207c0.48803,-0.23047 1.37598,-0.51516 2.66383,-0.85406c1.0574,-0.3118 1.87756,-0.70493 2.46049,-1.17942c0.58293,-0.48803 0.87439,-1.2743 0.87439,-2.35881c0,-0.90828 -0.34569,-1.66066 -1.03707,-2.25714c-0.69138,-0.61003 -1.49798,-0.91504 -2.41982,-0.91504c-0.77272,0 -1.44376,0.18979 -2.01313,0.56936c-0.56937,0.37958 -1.14552,0.90828 -1.72844,1.5861c-0.56937,0.66426 -1.06418,1.15907 -1.48443,1.48441c-0.40669,0.32536 -0.9015,0.48804 -1.48442,0.48804c-0.7456,0 -1.35564,-0.27112 -1.83011,-0.81337c-0.47447,-0.55583 -0.71171,-1.28788 -0.71171,-2.19616c0,-1.03028 0.29146,-1.97923 0.87439,-2.84685c0.58292,-0.86761 1.34886,-1.59965 2.29781,-2.19613c0.94895,-0.61003 1.96568,-1.06417 3.05019,-1.36242c1.08451,-0.3118 2.09447,-0.46769 3.02986,-0.46769c1.803,0 3.45688,0.35924 4.96164,1.07772c1.51832,0.7185 2.72484,1.76235 3.61956,3.13154c0.90828,1.35563 1.36242,2.92818 1.36242,4.71762c0,2.20969 -0.63715,4.01948 -1.91145,5.42935c-1.2743,1.40987 -3.03664,2.39949 -5.287,2.96886v1.50475c0,0.8405 -0.28468,1.53188 -0.85405,2.07414c-0.55581,0.52868 -1.26752,0.79303 -2.13513,0.79303c-0.90828,0 -1.64032,-0.26434 -2.19614,-0.79303c-0.54226,-0.54226 -0.81339,-1.23364 -0.81339,-2.07414zM239.4103,195.3323c-0.89472,0 -1.66066,-0.31858 -2.29781,-0.95573c-0.63715,-0.63715 -0.95573,-1.40309 -0.95573,-2.2978c0,-0.89473 0.31858,-1.66067 0.95573,-2.29783c0.63715,-0.63714 1.40309,-0.95571 2.29781,-0.95571c0.90828,0 1.67422,0.31857 2.29781,0.95571c0.6236,0.63715 0.93539,1.4031 0.93539,2.29783c0,0.89471 -0.3118,1.66065 -0.93539,2.2978c-0.62359,0.63715 -1.38953,0.95573 -2.29781,0.95573z" fill="#ff0000" stroke-width="0.40889"/></g></g></svg>