<svg version="1.1" xmlns="http://www.w3.org/2000/svg" xmlns:xlink="http://www.w3.org/1999/xlink" width="544.46202" height="461.57315" viewBox="0,0,544.46202,461.57315"><g transform="translate(31.36183,35.55446)"><g data-paper-data="{&quot;isPaintingLayer&quot;:true}" fill-rule="nonzero" stroke-linecap="butt" stroke-linejoin="miter" stroke-miterlimit="10" stroke-dasharray="" stroke-dashoffset="0" style="mix-blend-mode: normal"><path d="M-25.54276,82.06556c4.43068,-1.5196 12.17542,-101.08596 16.62469,-102.55021c129.34351,-42.567 212.1152,20.62789 346.8599,0.99222c9.06958,-1.32166 18.24192,-1.82575 27.33318,-2.98893c6.85652,-0.87726 13.64278,-2.25535 20.49949,-3.13102c4.41011,-0.56321 8.90048,-0.44816 13.28516,-1.18361c0.57707,-0.09679 1.20917,-0.14881 1.85951,-0.19353c4.51629,17.61193 93.76934,-16.74569 102.43334,2.3491c35.23917,93.35571 -38.75014,160.48089 -8.03404,255.42092c2.87631,8.89036 5.59267,17.83445 8.64719,26.66518c2.39225,6.91613 -1.03794,111.01398 0.62001,118.14187c-99.65832,44.46159 -174.00565,-34.95204 -276.82373,1.61374c-33.56982,11.93864 -66.80907,23.51848 -101.34761,32.37042c-16.3296,4.18514 -32.66962,8.32985 -48.9871,12.56195c-40.78363,10.57768 -89.18397,0.34614 -99.64965,-40.46639c-28.43411,-110.88281 21.20987,-187.23108 -7.22423,-298.11389c1.30693,-0.54658 2.61225,-1.0448 3.9039,-1.4878zM185.62475,269.53469c0,0 -0.04865,0.32063 -0.11456,0.90154c2.14431,-1.63117 3.37371,-2.81374 3.37371,-2.81374l1.14556,29.64521c1.79702,2.74937 4.22687,5.07945 7.49621,6.59293c19.60199,9.07445 37.51455,-17.85289 37.51455,-17.85289c0,0 -3.95412,33.0867 20.58415,37.50244c26.39638,5.70642 43.67757,-74.5896 43.67757,-74.5896c0,0 33.32133,18.13936 54.45153,4.17625c21.67193,-14.77674 -5.77789,-172.55809 -44.59507,-194.81927c-37.88867,-21.72868 -155.69949,11.62751 -190.46212,49.60905c-17.19935,18.79186 31.41072,52.58467 31.41072,52.58467c0,0 -62.1321,45.76831 -45.05419,75.54694c9.88541,17.23717 39.20938,1.1391 39.20938,1.1391c0,0 -13.37214,28.82352 3.28287,38.92819c14.29629,8.67362 29.32616,0.57523 36.70055,-4.71508z" fill="#000000" stroke="none" stroke-width="0"/><path d="M181.32897,124.64003c10.47783,-17.70482 33.3243,-23.56335 51.02903,-13.08557c17.70482,10.47783 23.56349,33.32427 13.08565,51.02908c-10.47783,17.70482 -33.32436,23.56343 -51.02916,13.0856c-17.70482,-10.47783 -23.56335,-33.3243 -13.08551,-51.0291z" fill="none" stroke="#000000" stroke-width="6"/><path d="M246.34664,163.11795c10.47783,-17.70482 33.3243,-23.56335 51.02903,-13.08557c17.70482,10.47783 23.56349,33.32427 13.08565,51.02908c-10.47783,17.70482 -33.32436,23.56343 -51.02916,13.0856c-17.70482,-10.47783 -23.56335,-33.3243 -13.08552,-51.02911z" fill="none" stroke="#000000" stroke-width="6"/><path d="M196.68037,133.7251c5.46026,-9.22642 17.36611,-12.2795 26.59254,-6.81923c9.22642,5.46026 12.27956,17.36618 6.81932,26.59259c-5.46026,9.22642 -17.36626,12.27951 -26.59268,6.81926c-9.22642,-5.46026 -12.27945,-17.3662 -6.81918,-26.59262z" fill="#000000" stroke="none" stroke-width="0"/><path d="M262.60107,172.73742c5.46026,-9.22642 17.36611,-12.2795 26.59254,-6.81923c9.22642,5.46026 12.2795,17.36612 6.81923,26.59254c-5.46026,9.22642 -17.3662,12.27957 -26.59261,6.81931c-9.22642,-5.46026 -12.27945,-17.3662 -6.81918,-26.59262z" fill="#000000" stroke="none" stroke-width="0"/></g></g></svg>