<svg version="1.1" xmlns="http://www.w3.org/2000/svg" xmlns:xlink="http://www.w3.org/1999/xlink" width="88.42581" height="88.42581" viewBox="0,0,88.42581,88.42581"><defs><radialGradient cx="240.00002" cy="180.00003" r="41.5" gradientUnits="userSpaceOnUse" id="color-1"><stop offset="0" stop-color="#be0000"/><stop offset="1" stop-color="#be0000" stop-opacity="0"/></radialGradient><linearGradient x1="258.7389" y1="182.25447" x2="258.7389" y2="161.00446" gradientUnits="userSpaceOnUse" id="color-2"><stop offset="0" stop-color="#ff8080"/><stop offset="1" stop-color="#ff0000"/></linearGradient><linearGradient x1="230.36391" y1="203.00447" x2="230.36391" y2="162.25446" gradientUnits="userSpaceOnUse" id="color-3"><stop offset="0" stop-color="#ff8080"/><stop offset="1" stop-color="#ff0000"/></linearGradient></defs><g transform="translate(-195.78711,-135.78711)"><g data-paper-data="{&quot;isPaintingLayer&quot;:true}" fill-rule="nonzero" stroke-linecap="butt" stroke-linejoin="miter" stroke-miterlimit="10" stroke-dasharray="" stroke-dashoffset="0" style="mix-blend-mode: normal"><path d="M284.21293,135.78712v88.42581h-88.42581v-88.42581z" data-paper-data="{&quot;index&quot;:null}" fill="none" stroke="none" stroke-width="0"/><g><path d="M240.00002,138.50003c22.91981,0 41.5,18.58018 41.5,41.5c0,22.91981 -18.58019,41.5 -41.5,41.5c-22.91981,0 -41.5,-18.58019 -41.5,-41.5c0,-22.91982 18.58019,-41.5 41.5,-41.5z" data-paper-data="{&quot;index&quot;:null}" fill="url(#color-1)" stroke="#000000" stroke-width="0"/><path d="M267.6139,161.00446v26h-16.25l-3.75,-26z" data-paper-data="{&quot;index&quot;:null}" fill="url(#color-2)" stroke="#ca0000" stroke-width="2"/><path d="M246.36391,166.75446l2.25,17.75l-7.24441,14.50835l1.55165,9.54717l-3.78669,3.10559l-4.95542,-1.99008l-3.50498,-8.93436l-0.08648,-9.41046l-14.97367,0.92379l-3.22778,-9.0521l2.0899,-6.19645l-1.93203,-7.25205l2.31991,-7.4994l22.81,-1.42z" data-paper-data="{&quot;index&quot;:null}" fill="url(#color-3)" stroke="#ca0000" stroke-width="2"/></g></g></g></svg>