<svg version="1.1" xmlns="http://www.w3.org/2000/svg" xmlns:xlink="http://www.w3.org/1999/xlink" width="37.6" height="43.6" viewBox="0,0,37.6,43.6"><g transform="translate(-221.20006,-158.2)"><g data-paper-data="{&quot;isPaintingLayer&quot;:true}" fill-rule="nonzero" stroke="none" stroke-linecap="butt" stroke-linejoin="miter" stroke-miterlimit="10" stroke-dasharray="" stroke-dashoffset="0" style="mix-blend-mode: normal"><path d="M221.20006,201.8v-43.6h37.6v43.6z" fill="none" stroke-width="0"/><path d="M248.03706,185.57272h-12.77015c0.20336,1.42342 0.82696,2.50115 1.8708,3.23319c1.04384,0.73204 2.30458,1.09807 3.78224,1.09807c0.90828,0 1.68099,-0.14233 2.31815,-0.427c0.63715,-0.28469 1.43021,-0.68461 2.37916,-1.19976c0.9625,-0.5287 1.66065,-0.79305 2.09446,-0.79305c0.40669,0 0.79982,0.12879 1.17939,0.38637c0.39314,0.24401 0.70494,0.56259 0.93541,0.95573c0.23045,0.39314 0.34568,0.80661 0.34568,1.2404c0,0.62361 -0.29146,1.24043 -0.87438,1.85045c-0.56937,0.61005 -1.33532,1.15908 -2.29783,1.64711c-0.94895,0.47447 -2.02668,0.85404 -3.23319,1.13873c-1.19296,0.29825 -2.32493,0.44737 -3.39589,0.44737c-2.18257,0 -4.13469,-0.49481 -5.85635,-1.48443c-1.72167,-1.00318 -3.0502,-2.37916 -3.9856,-4.12794c-0.93539,-1.76232 -1.40308,-3.74155 -1.40308,-5.9377c0,-1.4912 0.26435,-2.94173 0.79305,-4.3516c0.54226,-1.40987 1.28787,-2.66383 2.23682,-3.76189c0.9625,-1.09807 2.10801,-1.95213 3.43653,-2.56218c1.34209,-0.62359 2.77229,-0.93539 4.29062,-0.93539c1.55898,0 3.00951,0.32535 4.3516,0.97605c1.35563,0.63715 2.50115,1.48443 3.43656,2.54183c0.93539,1.0574 1.66743,2.23681 2.19613,3.53823c0.5287,1.28785 0.79305,2.56893 0.79305,3.84324c0,1.78945 -0.87439,2.68417 -2.62316,2.68417zM235.12457,181.5668h9.53694c-0.16262,-1.3692 -0.66421,-2.47405 -1.50478,-3.31454c-0.8405,-0.8405 -1.93178,-1.26075 -3.27385,-1.26075c-1.28787,0 -2.35883,0.42703 -3.21287,1.28109c-0.85406,0.85404 -1.36921,1.95211 -1.54544,3.2942z" fill="#ff0000" stroke-width="0.40889"/></g></g></svg>