<svg version="1.1" xmlns="http://www.w3.org/2000/svg" xmlns:xlink="http://www.w3.org/1999/xlink" width="77.9003" height="77.9003" viewBox="0,0,77.9003,77.9003"><defs><radialGradient cx="240.00004" cy="179.86097" r="38.94985" gradientUnits="userSpaceOnUse" id="color-1"><stop offset="0" stop-color="#000000"/><stop offset="1" stop-color="#000000" stop-opacity="0"/></radialGradient><linearGradient x1="241.37422" y1="153.33937" x2="241.37422" y2="141.00552" gradientUnits="userSpaceOnUse" id="color-2"><stop offset="0" stop-color="#ff0000"/><stop offset="1" stop-color="#ff8080"/></linearGradient><linearGradient x1="239.09479" y1="153.06989" x2="239.09479" y2="206.93011" gradientUnits="userSpaceOnUse" id="color-3"><stop offset="0" stop-color="#ea0000"/><stop offset="1" stop-color="#ff5a5a"/></linearGradient><linearGradient x1="222.56704" y1="156.97961" x2="222.56704" y2="203.02039" gradientUnits="userSpaceOnUse" id="color-4"><stop offset="0" stop-color="#ff0000"/><stop offset="1" stop-color="#a90000"/></linearGradient><linearGradient x1="224.67914" y1="157.61179" x2="224.67914" y2="202.57498" gradientUnits="userSpaceOnUse" id="color-5"><stop offset="0" stop-color="#8e0000"/><stop offset="1" stop-color="#460000"/></linearGradient><linearGradient x1="205.08253" y1="179.17118" x2="224.91637" y2="179.17118" gradientUnits="userSpaceOnUse" id="color-6"><stop offset="0" stop-color="#ffffff"/><stop offset="1" stop-color="#ffffff" stop-opacity="0"/></linearGradient><linearGradient x1="249.11212" y1="169.5017" x2="259.67983" y2="169.5017" gradientUnits="userSpaceOnUse" id="color-7"><stop offset="0" stop-color="#3e3e3e"/><stop offset="1" stop-color="#000000"/></linearGradient><linearGradient x1="249.11212" y1="190.49831" x2="259.67983" y2="190.49831" gradientUnits="userSpaceOnUse" id="color-8"><stop offset="0" stop-color="#3e3e3e"/><stop offset="1" stop-color="#000000"/></linearGradient><linearGradient x1="218.35214" y1="168.25313" x2="231.4806" y2="168.25313" gradientUnits="userSpaceOnUse" id="color-9"><stop offset="0" stop-color="#ffffff"/><stop offset="1" stop-color="#ffffff" stop-opacity="0"/></linearGradient><linearGradient x1="216.19503" y1="191.06214" x2="224.91637" y2="191.06214" gradientUnits="userSpaceOnUse" id="color-10"><stop offset="0" stop-color="#ffffff"/><stop offset="1" stop-color="#ffffff" stop-opacity="0"/></linearGradient></defs><g transform="translate(-201.04986,-140.91081)"><g data-paper-data="{&quot;isPaintingLayer&quot;:true}" fill-rule="nonzero" stroke-linejoin="miter" stroke-miterlimit="10" stroke-dasharray="" stroke-dashoffset="0" style="mix-blend-mode: normal"><path d="M201.06543,178.77028c0.60237,-21.50298 18.5223,-38.44626 40.02526,-37.84389c21.50298,0.60237 38.44626,18.5223 37.84389,40.02526c-0.60238,21.50298 -18.5223,38.44626 -40.02526,37.84389c-21.50298,-0.60237 -38.44626,-18.5223 -37.84389,-40.02526z" fill="url(#color-1)" stroke="#000000" stroke-width="0" stroke-linecap="butt"/><path d="M247.24492,153.33937c0,-3.2423 -2.6284,-5.8707 -5.8707,-5.8707c-3.24228,0 -5.8707,2.6284 -5.8707,5.8707h-6.46314c0,-6.81179 5.52205,-12.33384 12.33384,-12.33384c6.81179,0 12.33385,5.52205 12.33385,12.33384z" fill="url(#color-2)" stroke="none" stroke-width="0" stroke-linecap="butt"/><g stroke="none" stroke-width="0" stroke-linecap="butt"><path d="M255.73047,153.06989c7.34526,0 13.29978,12.05702 13.29978,26.93011c0,14.87309 -5.95451,26.93011 -13.29978,26.93011h-33.27136c-7.34526,0 -13.29978,-12.05702 -13.29978,-26.93011c0,-14.87309 5.95451,-26.93011 13.29978,-26.93011z" fill="url(#color-3)"/><g><path d="M211.22495,180c0,-12.71382 5.07803,-23.02039 11.34209,-23.02039c6.26406,0 11.34209,10.30658 11.34209,23.02039c0,12.71382 -5.07802,23.02039 -11.34209,23.02039c-6.26406,0 -11.34209,-10.30658 -11.34209,-23.02039z" fill="url(#color-4)"/><path d="M224.1747,157.61628c0.27703,-0.13514 9.68818,2.68015 9.6908,21.84435c0.00272,19.84923 -8.89596,23.26347 -9.27406,23.10949c-5.18952,-2.1133 -9.09865,-11.41516 -9.09865,-22.57014c0,-10.85436 3.70126,-19.95411 8.6819,-22.38372z" fill="url(#color-5)"/></g></g><path d="M219.10718,193.19583c-7.74559,0 -14.02465,-6.27904 -14.02465,-14.02465c0,-7.74559 6.27904,-14.02464 14.02465,-14.02464c7.74559,0 7.74559,28.04928 0,28.04928z" fill="url(#color-6)" stroke="none" stroke-width="0" stroke-linecap="butt"/><path d="M251.36224,206.66065h-2.25976v-53.32128h2.25976z" fill="#3e3e3e" stroke="none" stroke-width="0" stroke-linecap="butt"/><path d="M249.11212,160.26585c5.83637,0 10.5677,4.13503 10.5677,9.23585c0,5.10081 -4.73133,9.23585 -10.5677,9.23585z" fill="url(#color-7)" stroke="none" stroke-width="0" stroke-linecap="butt"/><path d="M249.11212,181.26246c5.83637,0 10.5677,4.13503 10.5677,9.23585c0,5.10081 -4.73133,9.23585 -10.5677,9.23585z" fill="url(#color-8)" stroke="none" stroke-width="0" stroke-linecap="butt"/><path d="M261.95009,171.46791v17.06416" fill="none" stroke="#000000" stroke-width="2" stroke-linecap="round"/><path d="M227.63537,177.53636c-5.12698,0 -9.28323,-4.15624 -9.28323,-9.28323c0,-5.12698 4.15624,-9.28323 9.28323,-9.28323c5.12698,0 5.12698,18.56645 0,18.56645z" fill="url(#color-9)" stroke="none" stroke-width="0" stroke-linecap="butt"/><path d="M222.36195,197.22906c-3.40589,0 -6.16692,-2.76102 -6.16692,-6.16692c0,-3.40589 2.76102,-6.16692 6.16692,-6.16692c3.40589,0 3.40589,12.33383 0,12.33383z" fill="url(#color-10)" stroke="none" stroke-width="0" stroke-linecap="butt"/><path d="M249.11211,193.16667v-4.5l10.41899,4.5z" fill="#ffffff" stroke="none" stroke-width="0" stroke-linecap="butt"/><path d="M249.11212,170.66667v-4.5l10.41898,4.5z" fill="#ffffff" stroke="none" stroke-width="0" stroke-linecap="butt"/></g></g></svg>