<svg version="1.1" xmlns="http://www.w3.org/2000/svg" xmlns:xlink="http://www.w3.org/1999/xlink" width="65.59779" height="65.59779" viewBox="0,0,65.59779,65.59779"><defs><radialGradient cx="237.50013" cy="179.99996" r="32.79887" gradientUnits="userSpaceOnUse" id="color-1"><stop offset="0" stop-color="#000000"/><stop offset="1" stop-color="#000000" stop-opacity="0"/></radialGradient><linearGradient x1="214.97076" y1="200.49947" x2="214.73079" y2="159.76163" gradientUnits="userSpaceOnUse" id="color-2"><stop offset="0" stop-color="#1a1a1a"/><stop offset="1" stop-color="#6b6b6b"/></linearGradient><linearGradient x1="214.43758" y1="180.23297" x2="262.80835" y2="179.67827" gradientUnits="userSpaceOnUse" id="color-3"><stop offset="0" stop-color="#eb0000"/><stop offset="1" stop-color="#ff6060"/></linearGradient><linearGradient x1="246.68636" y1="179.97044" x2="252.62415" y2="179.90235" gradientUnits="userSpaceOnUse" id="color-4"><stop offset="0" stop-color="#9e0000"/><stop offset="1" stop-color="#ffffff"/></linearGradient><linearGradient x1="223.04229" y1="179.80701" x2="242.1825" y2="179.94853" gradientUnits="userSpaceOnUse" id="color-5"><stop offset="0" stop-color="#330000"/><stop offset="1" stop-color="#ffffff"/></linearGradient><radialGradient cx="256.25214" cy="193.92684" r="6.42787" gradientUnits="userSpaceOnUse" id="color-6"><stop offset="0" stop-color="#ffffff"/><stop offset="1" stop-color="#ffffff" stop-opacity="0"/></radialGradient><radialGradient cx="256.25932" cy="166.2916" r="6.42786" gradientUnits="userSpaceOnUse" id="color-7"><stop offset="0" stop-color="#ffffff"/><stop offset="1" stop-color="#ffffff" stop-opacity="0"/></radialGradient><linearGradient x1="220.31889" y1="170.90663" x2="220.17687" y2="188.23417" gradientUnits="userSpaceOnUse" id="color-8"><stop offset="0" stop-color="#2f2f2f"/><stop offset="1" stop-color="#4f4f4f"/></linearGradient></defs><g transform="translate(-204.70123,-147.20106)"><g data-paper-data="{&quot;isPaintingLayer&quot;:true}" fill-rule="nonzero" stroke-linejoin="miter" stroke-miterlimit="10" stroke-dasharray="" stroke-dashoffset="0" style="mix-blend-mode: normal"><path d="M237.22597,212.79769c-18.11369,-0.15142 -32.67498,-14.95821 -32.52356,-33.07189c0.15142,-18.11369 14.95821,-32.67498 33.07189,-32.52356c18.11369,0.15142 32.67498,14.95821 32.52356,33.07189c-0.15142,18.11369 -14.95821,32.67498 -33.07189,32.52356z" fill="url(#color-1)" stroke="#000000" stroke-width="0" stroke-linecap="butt"/><g><path d="M220.14392,182.0064c0,0 0.06391,15.06143 -2.50791,18.29289c-0.70143,0.88134 -2.93148,-1.51531 -4.42991,-3.85667c-0.572,-0.89378 -1.24223,-3.24972 -1.37874,-3.2489c-0.79663,0.00469 -2.24727,-11.1251 -2.24727,-11.1251l-0.02907,-4.93743c0,0 0.48069,-6.17937 2.48629,-11.23505c1.26478,-3.18827 4.10305,-6.1428 4.76033,-6.14666c1.81424,-0.01068 3.31721,17.31951 3.31721,17.31951z" fill="url(#color-2)" stroke="none" stroke-width="0" stroke-linecap="butt"/><path d="M244.61157,205.8663l-24.84319,-0.79486l-1.3079,-1.06474l-1.53619,-2.14187l-0.86856,-2.92845l-1.40075,-9.16174l-0.17481,-5.82861l-0.06932,-6.04577l0.64677,-9.50914l1.40745,-9.08598l0.8585,-2.06134l1.86102,-2.01972l0.8575,-0.54972l26.86945,-0.79313l5.8348,0.36498l9.41357,1.72761l0.27713,0.73579l0.30109,16.84053l-1.50896,0.23326l0.24785,12.19824l1.18756,-0.01362l0.13068,17.05843l-1.01355,1.34726l-9.05503,1.29155z" fill="url(#color-3)" stroke="none" stroke-width="0" stroke-linecap="round"/><path d="M254.02407,203.41033l-0.37304,-46.95016c0,0 2.51684,0.52078 3.35241,0.72941c0.49863,0.1245 1.19552,0.40615 1.19552,0.40615l0.40211,44.48077c0,0 -0.62072,0.64084 -1.20047,0.78653c-0.91381,0.22962 -3.75207,0.45799 -3.75207,0.45799z" fill="#000000" stroke="none" stroke-width="0" stroke-linecap="round"/><path d="M252.91881,205.59684l-5.93533,0.28402l-0.27037,-51.82452l5.6201,0.47543z" fill="url(#color-4)" stroke="none" stroke-width="0" stroke-linecap="butt"/><path d="M241.05917,200.52389l-20.95291,-0.4498c0,0 -1.20531,-1.94663 -1.97611,-5.12634c-1.02036,-4.20919 -1.6817,-10.29165 -1.73117,-14.05469c-0.06241,-4.74955 1.06875,-13.11826 2.02528,-17.77209c0.41807,-2.03407 1.15212,-3.36195 1.15212,-3.36195l20.94424,-0.61784c0,0 3.88072,0.83771 4.36259,2.33871c1.37724,4.28999 1.1762,18.56193 1.1762,18.56193c0,0 0.37391,13.61253 -0.91775,17.75365c-0.4983,1.59758 -4.08247,2.72843 -4.08247,2.72843z" fill="#000000" stroke="none" stroke-width="0" stroke-linecap="butt"/><path d="M241.99685,200.38281l-18.24524,0.18875l-0.52368,-41.19885l18.24525,-0.18876z" fill="url(#color-5)" stroke="none" stroke-width="0" stroke-linecap="butt"/><path d="M261.27494,202.55914l-1.39854,0.44793l-0.53111,-46.31484l1.40472,0.09187z" fill="#ff6d6d" stroke="none" stroke-width="0" stroke-linecap="butt"/><path d="M257.14702,195.06345l-2.10522,0.02414l-0.03158,-2.75298l2.10523,-0.02414z" fill="#ffffff" stroke="none" stroke-width="0" stroke-linecap="butt"/><path d="M257.48694,168.21135l-2.75299,0.03157l-0.04128,-3.60005l2.75298,-0.03157z" fill="#ffffff" stroke="none" stroke-width="0" stroke-linecap="butt"/><path d="M257.54278,195.67934l-2.75298,0.03157l-0.04128,-3.60005l2.75299,-0.03157z" fill="#ffffff" stroke="none" stroke-width="0" stroke-linecap="butt"/><path d="M256.86723,163.60255l-1.57654,0.01808l-0.02365,-2.06162l1.57653,-0.01808z" fill="#2f2f2f" stroke="none" stroke-width="0" stroke-linecap="butt"/><path d="M256.94446,198.58531l-1.57653,0.01809l-0.02364,-2.06162l1.57653,-0.01809z" fill="#2f2f2f" stroke="none" stroke-width="0" stroke-linecap="butt"/><path d="M262.6798,193.97952c-0.02964,3.61623 -2.93143,6.52418 -6.48132,6.49509c-3.54989,-0.0291 -6.40362,-2.98421 -6.37398,-6.60045c0.02964,-3.61623 2.93142,-6.52418 6.48132,-6.49508c3.54989,0.0291 6.40363,2.98421 6.37399,6.60044z" fill="url(#color-6)" stroke="none" stroke-width="0" stroke-linecap="butt"/><path d="M262.68696,166.34428c-0.02964,3.61623 -2.93142,6.52418 -6.48131,6.49508c-3.54989,-0.0291 -6.40363,-2.98421 -6.37399,-6.60044c0.02964,-3.61623 2.93142,-6.52419 6.48131,-6.49509c3.54989,0.0291 6.40362,2.98422 6.37398,6.60045z" fill="url(#color-7)" stroke="none" stroke-width="0" stroke-linecap="butt"/><path d="M222.79035,188.15949l-4.88731,0.05604l-0.19763,-17.23422l4.88732,-0.05604z" fill="url(#color-8)" stroke="none" stroke-width="0" stroke-linecap="butt"/><text transform="translate(221.0139,186.58003) rotate(-90.97961) scale(0.0582,0.0582)" font-size="40" xml:space="preserve" fill="#ff0000" fill-rule="nonzero" stroke="#ff0000" stroke-width="1" stroke-linecap="butt" stroke-linejoin="miter" stroke-miterlimit="10" stroke-dasharray="" stroke-dashoffset="0" font-family="Pixel" font-weight="normal" text-anchor="start" style="mix-blend-mode: normal"><tspan x="0" dy="0">SPLATOON</tspan></text></g></g></g></svg>