<svg version="1.1" xmlns="http://www.w3.org/2000/svg" xmlns:xlink="http://www.w3.org/1999/xlink" width="86.09578" height="85.40354" viewBox="0,0,86.09578,85.40354"><defs><radialGradient cx="240.00002" cy="180.00003" r="36.7832" gradientUnits="userSpaceOnUse" id="color-1"><stop offset="0" stop-color="#000000"/><stop offset="1" stop-color="#000000" stop-opacity="0"/></radialGradient><radialGradient cx="240.00003" cy="180.00001" r="32.79887" gradientUnits="userSpaceOnUse" id="color-2"><stop offset="0" stop-color="#000000"/><stop offset="1" stop-color="#000000" stop-opacity="0"/></radialGradient><linearGradient x1="246.58978" y1="188.99447" x2="230.23916" y2="206.31849" gradientUnits="userSpaceOnUse" id="color-3"><stop offset="0" stop-color="#ffffff"/><stop offset="1" stop-color="#ff0000" stop-opacity="0.50196"/></linearGradient><linearGradient x1="252.0196" y1="181.99922" x2="242.85534" y2="203.98747" gradientUnits="userSpaceOnUse" id="color-4"><stop offset="0" stop-color="#ffffff"/><stop offset="1" stop-color="#ff0000" stop-opacity="0.50196"/></linearGradient><linearGradient x1="242.78742" y1="192.88702" x2="219.35339" y2="197.16626" gradientUnits="userSpaceOnUse" id="color-5"><stop offset="0" stop-color="#ffffff"/><stop offset="1" stop-color="#ff0000" stop-opacity="0.50196"/></linearGradient><linearGradient x1="245.68444" y1="177.39872" x2="251.44065" y2="200.51429" gradientUnits="userSpaceOnUse" id="color-6"><stop offset="0" stop-color="#ffffff"/><stop offset="1" stop-color="#ff0000" stop-opacity="0.50196"/></linearGradient><linearGradient x1="244.12201" y1="171.99045" x2="261.16964" y2="188.62903" gradientUnits="userSpaceOnUse" id="color-7"><stop offset="0" stop-color="#ffffff"/><stop offset="1" stop-color="#ff0000" stop-opacity="0.50196"/></linearGradient><linearGradient x1="237.26058" y1="191.16992" x2="213.7215" y2="187.51267" gradientUnits="userSpaceOnUse" id="color-8"><stop offset="0" stop-color="#ffffff"/><stop offset="1" stop-color="#ff0000" stop-opacity="0.50196"/></linearGradient><linearGradient x1="234.14718" y1="190.51598" x2="216.74233" y2="174.25138" gradientUnits="userSpaceOnUse" id="color-9"><stop offset="0" stop-color="#ffffff"/><stop offset="1" stop-color="#ff0000" stop-opacity="0.50196"/></linearGradient><linearGradient x1="230.48698" y1="184.3368" x2="222.23732" y2="161.98934" gradientUnits="userSpaceOnUse" id="color-10"><stop offset="0" stop-color="#ffffff"/><stop offset="1" stop-color="#ff0000" stop-opacity="0.50196"/></linearGradient><linearGradient x1="237.04263" y1="170.83731" x2="260.58642" y2="174.46451" gradientUnits="userSpaceOnUse" id="color-11"><stop offset="0" stop-color="#ffffff"/><stop offset="1" stop-color="#ff0000" stop-opacity="0.50196"/></linearGradient><linearGradient x1="232.6146" y1="170.798" x2="255.53297" y2="164.30079" gradientUnits="userSpaceOnUse" id="color-12"><stop offset="0" stop-color="#ffffff"/><stop offset="1" stop-color="#ff0000" stop-opacity="0.50196"/></linearGradient><linearGradient x1="228.93548" y1="175.50878" x2="244.74301" y2="157.68784" gradientUnits="userSpaceOnUse" id="color-13"><stop offset="0" stop-color="#ffffff"/><stop offset="1" stop-color="#ff0000" stop-opacity="0.50196"/></linearGradient><linearGradient x1="230.14285" y1="181.11155" x2="232.7756" y2="157.43591" gradientUnits="userSpaceOnUse" id="color-14"><stop offset="0" stop-color="#ffffff"/><stop offset="1" stop-color="#ff0000" stop-opacity="0.50196"/></linearGradient><radialGradient cx="240.00003" cy="180.00001" r="32.79887" gradientUnits="userSpaceOnUse" id="color-15"><stop offset="0" stop-color="#ffffff"/><stop offset="1" stop-color="#ffffff" stop-opacity="0"/></radialGradient><radialGradient cx="240.00003" cy="180.00001" r="32.79887" gradientUnits="userSpaceOnUse" id="color-16"><stop offset="0" stop-color="#ffffff"/><stop offset="1" stop-color="#ffffff" stop-opacity="0"/></radialGradient><linearGradient x1="216.06742" y1="180.36497" x2="263.93262" y2="179.63499" gradientUnits="userSpaceOnUse" id="color-17"><stop offset="0" stop-color="#ffffff"/><stop offset="1" stop-color="#eb0000"/></linearGradient></defs><g transform="translate(-196.9521,-137.29825)"><g data-paper-data="{&quot;isPaintingLayer&quot;:true}" fill-rule="nonzero" stroke-linejoin="miter" stroke-miterlimit="10" stroke-dasharray="" stroke-dashoffset="0" style="mix-blend-mode: normal"><path d="M203.23122,178.97001c0.56886,-20.30684 17.49197,-36.30762 37.79879,-35.73876c20.30684,0.56886 36.30762,17.49197 35.73876,37.79879c-0.56887,20.30684 -17.49197,36.30762 -37.79879,35.73876c-20.30684,-0.56886 -36.30762,-17.49197 -35.73876,-37.79879z" fill="url(#color-1)" stroke="#000000" stroke-width="0" stroke-linecap="butt"/><path d="M207.20115,180.04938c-0.02731,-18.1143 14.63511,-32.82097 32.74939,-32.84827c18.1143,-0.02731 32.82096,14.63511 32.84827,32.74939c0.02731,18.1143 -14.63511,32.82096 -32.74938,32.84827c-18.1143,0.02731 -32.82096,-14.6351 -32.84827,-32.74938z" fill="url(#color-2)" stroke="#000000" stroke-width="0" stroke-linecap="butt"/><path d="M237.92778,180.81912l17.32402,16.35065l-16.58851,23.46955l-17.08617,-22.49619z" fill="url(#color-3)" stroke="none" stroke-width="0" stroke-linecap="butt"/><path d="M241.02552,177.41708l21.98821,9.16429l-7.21257,27.82044l-23.93993,-14.99651z" fill="url(#color-4)" stroke="none" stroke-width="0" stroke-linecap="butt"/><path d="M240.6478,181.17002l3.58404,20.79227l-26.56934,11.73259l-0.44872,-28.24561z" fill="url(#color-5)" stroke="none" stroke-width="0" stroke-linecap="butt"/><path d="M234.12666,180.27677l23.11561,-5.75622l10.80095,26.6334l-28.16035,2.23844z" fill="url(#color-6)" stroke="none" stroke-width="0" stroke-linecap="butt"/><path d="M235.80273,180.51423l16.63862,-17.04764l23.18832,16.97938l-22.7793,16.70688z" fill="url(#color-7)" stroke="none" stroke-width="0" stroke-linecap="butt"/><path d="M239.08926,179.40039l-3.6573,22.28775l-28.73779,0.88008l8.85596,-26.82514z" fill="url(#color-8)" stroke="none" stroke-width="0" stroke-linecap="butt"/><path d="M242.27945,181.81358l-14.59611,16.84868l-25.21996,-15.91581l22.41124,-17.19747z" fill="url(#color-9)" stroke="none" stroke-width="0" stroke-linecap="butt"/><path d="M241.66069,180.21197l-22.34745,8.24966l-13.64884,-25.29244l27.74666,-5.30469z" fill="url(#color-10)" stroke="none" stroke-width="0" stroke-linecap="butt"/><path d="M235.22903,182.60918l3.62717,-23.54377l28.73824,0.33449l-8.82162,26.83645z" fill="url(#color-11)" stroke="none" stroke-width="0" stroke-linecap="butt"/><path d="M235.8632,182.25716l-6.49721,-22.91837l26.27196,-11.65255l3.14363,28.07371z" fill="url(#color-12)" stroke="none" stroke-width="0" stroke-linecap="butt"/><path d="M237.84596,183.41253l-17.821,-15.80752l15.85535,-23.97094l17.77317,21.95747z" fill="url(#color-13)" stroke="none" stroke-width="0" stroke-linecap="butt"/><path d="M241.98063,182.42787l-23.67561,-2.63273l-0.87571,-28.72683l27.18406,7.68395z" fill="url(#color-14)" stroke="none" stroke-width="0" stroke-linecap="butt"/><path d="M197.08066,222.70179l-0.12855,-85.27395l85.96724,-0.12959l0.12854,85.27396z" fill="none" stroke="none" stroke-width="NaN" stroke-linecap="butt"/><path d="M207.20115,180.04938c-0.02731,-18.1143 14.63511,-32.82097 32.74939,-32.84827c18.1143,-0.02731 32.82096,14.63511 32.84827,32.74939c0.02731,18.1143 -14.63511,32.82096 -32.74938,32.84827c-18.1143,0.02731 -32.82096,-14.6351 -32.84827,-32.74938z" fill="url(#color-15)" stroke="#000000" stroke-width="0" stroke-linecap="butt"/><path d="M207.20115,180.04938c-0.02731,-18.1143 14.63511,-32.82097 32.74939,-32.84827c18.1143,-0.02731 32.82096,14.63511 32.84827,32.74939c0.02731,18.1143 -14.63511,32.82096 -32.74938,32.84827c-18.1143,0.02731 -32.82096,-14.6351 -32.84827,-32.74938z" fill="url(#color-16)" stroke="#000000" stroke-width="0" stroke-linecap="butt"/><path d="M216.06471,180.03607c-0.01993,-13.21911 10.68013,-23.95147 23.89923,-23.97139c13.21911,-0.01993 23.95146,10.68012 23.97139,23.89923c0.01993,13.21911 -10.68012,23.95147 -23.89923,23.9714c-13.21911,0.01993 -23.95147,-10.68012 -23.97139,-23.89923z" fill="url(#color-17)" stroke="#000000" stroke-width="0" stroke-linecap="butt"/><path d="M246.17997,190.24613c-0.00367,-2.44128 1.97238,-4.42331 4.41366,-4.42699c2.44128,-0.00367 4.42332,1.97239 4.42699,4.41367c0.00367,2.44128 -1.97239,4.42332 -4.41367,4.42699c-2.44128,0.00367 -4.42332,-1.97239 -4.42699,-4.41367z" fill="#ffffff" stroke="#000000" stroke-width="0" stroke-linecap="butt"/><path d="M246.19699,168.90089c-0.00367,-2.44128 1.97238,-4.42332 4.41366,-4.42699c2.44128,-0.00367 4.42332,1.97239 4.42699,4.41367c0.00367,2.44128 -1.97239,4.42331 -4.41367,4.42699c-2.44128,0.00367 -4.42332,-1.97239 -4.42699,-4.41367z" fill="#ffffff" stroke="#000000" stroke-width="0" stroke-linecap="butt"/><path d="M257.05565,168.28164l0.03359,22.27846" fill="none" stroke="#ffffff" stroke-width="2" stroke-linecap="round"/></g></g></svg>