<svg version="1.1" xmlns="http://www.w3.org/2000/svg" xmlns:xlink="http://www.w3.org/1999/xlink" width="77" height="77" viewBox="0,0,77,77"><defs><radialGradient cx="240.91113" cy="179.58076" r="34.34898" gradientUnits="userSpaceOnUse" id="color-1"><stop offset="0" stop-color="#00ff23"/><stop offset="1" stop-color="#00ff23" stop-opacity="0"/></radialGradient></defs><g transform="translate(-201.5,-141.5)"><g data-paper-data="{&quot;isPaintingLayer&quot;:true}" fill-rule="nonzero" stroke-linejoin="miter" stroke-miterlimit="10" stroke-dasharray="" stroke-dashoffset="0" style="mix-blend-mode: normal"><path d="M206.56215,179.58076c0,-18.97042 15.37856,-34.34898 34.34898,-34.34898c18.97042,0 34.34898,15.37856 34.34898,34.34898c0,18.97042 -15.37856,34.34898 -34.34898,34.34898c-18.97042,0 -34.34898,-15.37856 -34.34898,-34.34898z" fill="url(#color-1)" stroke="none" stroke-width="0" stroke-linecap="butt"/><path d="M201.5,218.5v-77h77v77z" fill="none" stroke="none" stroke-width="0" stroke-linecap="butt"/><g fill="none"><g stroke="#009daf" stroke-width="6.5"><path d="M231.54608,161.78462l-5.73604,0.28682l-0.46398,-9.2789" stroke-linecap="round"/><path d="M235.36729,157.02706c-0.13046,-2.60888 1.46328,-4.80879 3.55971,-4.91362c2.09643,-0.10483 3.90167,1.92511 4.03212,4.534c0.13046,2.60888 -1.46327,4.80878 -3.55971,4.91361c-2.09643,0.10483 -3.90167,-1.92511 -4.03212,-4.53399z" stroke-linecap="butt"/><path d="M253.78939,160.64748l-5.73605,0.28682l-0.46398,-9.2789" stroke-linecap="round"/></g><g stroke="#8bff00" stroke-width="2.5"><path d="M231.57215,161.80821l-5.73604,0.28682l-0.46398,-9.2789" stroke-linecap="round"/><path d="M235.39337,157.05064c-0.13046,-2.60888 1.46328,-4.80879 3.55971,-4.91362c2.09643,-0.10483 3.90167,1.92511 4.03212,4.534c0.13046,2.60888 -1.46328,4.80878 -3.55971,4.91361c-2.09643,0.10483 -3.90167,-1.92511 -4.03212,-4.534z" stroke-linecap="butt"/><path d="M253.81546,160.67107l-5.73605,0.28682l-0.46398,-9.2789" stroke-linecap="round"/></g></g><g fill="none"><path d="M256.83366,171.56214l-35.14878,1.71957" stroke="#009daf" stroke-width="9" stroke-linecap="round"/><path d="M223.68716,204.11227l34.51355,-1.6885" stroke="#009daf" stroke-width="9" stroke-linecap="round"/><path d="M241.29842,208.3446l-0.53866,-11.01046" stroke="#009daf" stroke-width="9" stroke-linecap="round"/><path d="M230.28122,196.18294l-0.68368,-13.97482l20.96222,-1.02552l0.68368,13.97482z" stroke="#009daf" stroke-width="9" stroke-linecap="butt"/><path d="M231.47336,189.1239l16.61638,-0.81291" stroke="#009daf" stroke-width="9" stroke-linecap="round"/><path d="M232.07504,168.74072l0.40453,8.26882" stroke="#009daf" stroke-width="9" stroke-linecap="round"/><path d="M246.71338,168.04113l0.40453,8.26882" stroke="#009daf" stroke-width="9" stroke-linecap="round"/><path d="M221.79929,173.11284l35.14877,-1.71957" stroke="#8bff00" stroke-width="4" stroke-linecap="round"/><path d="M223.80157,203.94339l34.51355,-1.68849" stroke="#8bff00" stroke-width="4" stroke-linecap="round"/><path d="M241.41283,208.17572l-0.53867,-11.01046" stroke="#8bff00" stroke-width="4" stroke-linecap="round"/><path d="M230.39563,196.01407l-0.68368,-13.97481l20.96222,-1.02553l0.68369,13.97481z" stroke="#8bff00" stroke-width="4" stroke-linecap="butt"/><path d="M231.58778,188.95502l18.73632,-0.81291" stroke="#8bff00" stroke-width="4" stroke-linecap="round"/><path d="M232.18945,168.57184l0.40453,8.26882" stroke="#8bff00" stroke-width="4" stroke-linecap="round"/><path d="M247.23232,176.14107l-0.40453,-8.26882" stroke="#8bff00" stroke-width="4" stroke-linecap="round"/></g></g></g></svg>