<svg version="1.1" xmlns="http://www.w3.org/2000/svg" xmlns:xlink="http://www.w3.org/1999/xlink" width="249.98108" height="244" viewBox="0,0,249.98108,244"><defs><radialGradient cx="201" cy="118.5" r="64" gradientUnits="userSpaceOnUse" id="color-1"><stop offset="0" stop-color="#000000" stop-opacity="0.31765"/><stop offset="1" stop-color="#000000" stop-opacity="0"/></radialGradient><radialGradient cx="236" cy="188.5" r="64" gradientUnits="userSpaceOnUse" id="color-2"><stop offset="0" stop-color="#000000" stop-opacity="0.31765"/><stop offset="1" stop-color="#000000" stop-opacity="0"/></radialGradient><radialGradient cx="283" cy="229.5" r="64" gradientUnits="userSpaceOnUse" id="color-3"><stop offset="0" stop-color="#000000" stop-opacity="0.31765"/><stop offset="1" stop-color="#000000" stop-opacity="0"/></radialGradient><radialGradient cx="224" cy="234.5" r="64" gradientUnits="userSpaceOnUse" id="color-4"><stop offset="0" stop-color="#000000" stop-opacity="0.31765"/><stop offset="1" stop-color="#000000" stop-opacity="0"/></radialGradient><linearGradient x1="295.30736" y1="251.94304" x2="368.0876" y2="251.94304" gradientUnits="userSpaceOnUse" id="color-5"><stop offset="0" stop-color="#dcd0e8"/><stop offset="1" stop-color="#ffffff"/></linearGradient><linearGradient x1="179.36372" y1="228.08333" x2="221.04946" y2="228.08333" gradientUnits="userSpaceOnUse" id="color-6"><stop offset="0" stop-color="#ffffff"/><stop offset="1" stop-color="#dcd0e8"/></linearGradient><linearGradient x1="194.61372" y1="155.78547" x2="299.28039" y2="260.45214" gradientUnits="userSpaceOnUse" id="color-7"><stop offset="0" stop-color="#f6f3f9"/><stop offset="1" stop-color="#e7def0"/></linearGradient><linearGradient x1="200.03039" y1="235.75" x2="243.71612" y2="235.75" gradientUnits="userSpaceOnUse" id="color-8"><stop offset="0" stop-color="#ffffff"/><stop offset="1" stop-color="#eae2f1"/></linearGradient><linearGradient x1="280.61372" y1="159.28547" x2="280.61372" y2="198.6188" gradientUnits="userSpaceOnUse" id="color-9"><stop offset="0" stop-color="#636363"/><stop offset="1" stop-color="#000000"/></linearGradient><linearGradient x1="246.71831" y1="234.41667" x2="314.04946" y2="234.41667" gradientUnits="userSpaceOnUse" id="color-10"><stop offset="0" stop-color="#ffffff"/><stop offset="1" stop-color="#dcd0e8"/></linearGradient><linearGradient x1="180.61016" y1="75.36879" x2="180.61016" y2="120.3688" gradientUnits="userSpaceOnUse" id="color-11"><stop offset="0" stop-color="#000000"/><stop offset="1" stop-color="#636363"/></linearGradient><linearGradient x1="171.10863" y1="97.45489" x2="229.82791" y2="156.17417" gradientUnits="userSpaceOnUse" id="color-12"><stop offset="0" stop-color="#ffffff"/><stop offset="1" stop-color="#e9e0f2"/></linearGradient><linearGradient x1="171.53039" y1="126.70213" x2="171.53039" y2="132.70213" gradientUnits="userSpaceOnUse" id="color-13"><stop offset="0" stop-color="#ffffff"/><stop offset="1" stop-color="#000000"/></linearGradient><linearGradient x1="204.43388" y1="105.80131" x2="204.43388" y2="130.37665" gradientUnits="userSpaceOnUse" id="color-14"><stop offset="0" stop-color="#000000"/><stop offset="1" stop-color="#636363"/></linearGradient><linearGradient x1="241.11016" y1="82.15062" x2="241.11016" y2="126.03547" gradientUnits="userSpaceOnUse" id="color-15"><stop offset="0" stop-color="#ffffff"/><stop offset="1" stop-color="#dcd0e8"/></linearGradient><linearGradient x1="249.11372" y1="89.8688" x2="249.11372" y2="107.20213" gradientUnits="userSpaceOnUse" id="color-16"><stop offset="0" stop-color="#000000"/><stop offset="1" stop-color="#000000" stop-opacity="0"/></linearGradient><linearGradient x1="245.78039" y1="107.20213" x2="245.78039" y2="114.20213" gradientUnits="userSpaceOnUse" id="color-17"><stop offset="0" stop-color="#000000"/><stop offset="1" stop-color="#000000" stop-opacity="0"/></linearGradient><linearGradient x1="256.11372" y1="107.53547" x2="256.11372" y2="119.20213" gradientUnits="userSpaceOnUse" id="color-18"><stop offset="0" stop-color="#000000"/><stop offset="1" stop-color="#000000" stop-opacity="0"/></linearGradient><linearGradient x1="259.28039" y1="98.20213" x2="259.28039" y2="106.8688" gradientUnits="userSpaceOnUse" id="color-19"><stop offset="0" stop-color="#000000"/><stop offset="1" stop-color="#000000" stop-opacity="0"/></linearGradient></defs><g transform="translate(-137,-54.5)"><g data-paper-data="{&quot;isPaintingLayer&quot;:true}" fill-rule="nonzero" stroke-linejoin="miter" stroke-miterlimit="10" stroke-dasharray="" stroke-dashoffset="0" style="mix-blend-mode: normal"><g stroke="none" stroke-width="0" stroke-linecap="butt"><path d="M137,118.5c0,-35.34622 28.65378,-64 64,-64c35.34622,0 64,28.65378 64,64c0,35.34622 -28.65378,64 -64,64c-35.34622,0 -64,-28.65378 -64,-64z" fill="url(#color-1)"/><path d="M172,188.5c0,-35.34623 28.65377,-64 64,-64c35.34623,0 64,28.65377 64,64c0,35.34623 -28.65377,64 -64,64c-35.34623,0 -64,-28.65377 -64,-64z" fill="url(#color-2)"/><path d="M219,229.5c0,-35.34623 28.65377,-64 64,-64c35.34623,0 64,28.65377 64,64c0,35.34623 -28.65377,64 -64,64c-35.34623,0 -64,-28.65377 -64,-64z" fill="url(#color-3)"/><path d="M160,234.5c0,-35.34623 28.65377,-64 64,-64c35.34623,0 64,28.65377 64,64c0,35.34623 -28.65377,64 -64,64c-35.34623,0 -64,-28.65377 -64,-64z" fill="url(#color-4)"/></g><path d="M303.98065,238.556l-6.03359,-41.10387l36.57867,33.18478l25.58857,13.06165l26.86678,11.69589l-26.17813,4.29017l-27.77215,-3.43873z" fill="url(#color-5)" stroke="none" stroke-width="0" stroke-linecap="butt"/><path d="M186.36372,277.20213l-2.66666,-11.66667l6.34338,-9.28619l-5.8333,-74.67654l28.15659,-5.3706l8.68574,53.42891l-0.68574,43.57109l-17.00894,6.42906z" fill="url(#color-6)" stroke="none" stroke-width="0" stroke-linecap="butt"/><path d="M215.61372,246.1188l-31.01179,-64.66819l2.0781,-10.94806l11.26702,-18.05041l47,-15.66666l15.69132,22.35752l15.8228,13.87618l18.36466,18.76975l-0.21211,73.32989l-46.54963,-0.15328z" fill="url(#color-7)" stroke="none" stroke-width="0" stroke-linecap="butt"/><path d="M203.53039,282.70213l-3.33334,-13l7.67671,-7.2862l0.77844,-81.17464l14.95544,-22.11606l15.75608,48.41023l2.8524,36.92892l-5.68574,35.40442l-14.34228,4.76241z" fill="url(#color-8)" stroke="none" stroke-width="0" stroke-linecap="butt"/><path d="M263.94706,178.6188l-3,-19.33333l19,15.33333l20.33333,24l-19.72684,-4.48328z" fill="url(#color-9)" stroke="none" stroke-width="0" stroke-linecap="butt"/><path d="M257.28437,278.22182l-6.12206,-7.39004l3.14853,-8.21973l19.17734,-6.90709l-21.66686,-9.66234l-5.10301,-17.66276l4.57131,-25.33062l21.00929,-14.52701l27.5251,10.17989l14.22546,25.37874l-0.68393,22.41774l-7.8808,10.29154l3.2216,9.14868l-29.73456,14.85904z" fill="url(#color-10)" stroke="none" stroke-width="0" stroke-linecap="butt"/><g><path d="M167.11372,120.3688l-11.00713,-16.44747l8.84046,-28.55253l24.39937,1.11515l15.7673,8.88485l-5,30z" fill="url(#color-11)" stroke="none" stroke-width="0" stroke-linecap="butt"/><path d="M161.19706,160.3688l-8.17814,-18.46071l4.17814,-15.53929l13.62851,-3.64361l-1.93769,-17.95509l10.17355,-15.268l28.35381,-11.27226l28.91612,8.1223l18.34472,21.35799l-9.27392,32.8898l-13.53844,11.10222l-22.4629,12.75977l-22.25378,1.81014z" fill="url(#color-12)" stroke="none" stroke-width="0" stroke-linecap="butt"/><path d="M181.28039,126.20213l3,12.5l-13,3.5l-12,-3.5l3,-12.5z" data-paper-data="{&quot;index&quot;:null}" fill="#000000" stroke="none" stroke-width="0" stroke-linecap="butt"/><path d="M163.28039,132.70213l1,-6h14.5l-1,6z" fill="url(#color-13)" stroke="none" stroke-width="0" stroke-linecap="butt"/><path d="M198.86774,130.37665l-7.80011,-13.86772l12.21344,-10.70762l14.51906,5.22888l-2.09377,16.0714z" data-paper-data="{&quot;index&quot;:null}" fill="url(#color-14)" stroke="none" stroke-width="0" stroke-linecap="butt"/><path d="M184.4282,116.89946l-4.38175,4.61427l-6.58143,-0.50277l-1.04835,-7.83661l7.01271,-2.72138z" data-paper-data="{&quot;index&quot;:null}" fill="#000000" stroke="none" stroke-width="0" stroke-linecap="butt"/><path d="M222.43993,121.03547l-5,-30l15.7673,-8.88485l27.7327,-0.78182l6.50713,28.2192l-12.00713,16.44747z" data-paper-data="{&quot;index&quot;:null}" fill="url(#color-15)" stroke="none" stroke-width="0" stroke-linecap="butt"/><path d="M171.28039,139.20213l0.66666,9.33334" fill="none" stroke="#000000" stroke-width="1.5" stroke-linecap="round"/><path d="M242.61372,99.53547l6.66667,-9.66667l6.33333,7l-7,10.33334z" data-paper-data="{&quot;index&quot;:null}" fill="url(#color-16)" stroke="none" stroke-width="0" stroke-linecap="butt"/><path d="M241.61372,114.20213l3,-7l5.33333,7z" fill="url(#color-17)" stroke="none" stroke-width="0" stroke-linecap="butt"/><path d="M250.61372,118.53547l0.66667,-8l5.72649,1.72456l4.60685,-4.72456l-0.74712,8.03448l-3.91954,3.63219z" fill="url(#color-18)" stroke="none" stroke-width="0" stroke-linecap="butt"/><path d="M254.94705,106.8688l6.33333,-8.66666l2.33333,6.33334z" fill="url(#color-19)" stroke="none" stroke-width="0" stroke-linecap="butt"/></g></g></g></svg>