<svg version="1.1" xmlns="http://www.w3.org/2000/svg" xmlns:xlink="http://www.w3.org/1999/xlink" width="37.6" height="43.6" viewBox="0,0,37.6,43.6"><g transform="translate(-221.2,-158.2)"><g data-paper-data="{&quot;isPaintingLayer&quot;:true}" fill-rule="nonzero" stroke="none" stroke-linecap="butt" stroke-linejoin="miter" stroke-miterlimit="10" stroke-dasharray="" stroke-dashoffset="0" style="mix-blend-mode: normal"><path d="M221.2,201.8v-43.6h37.6v43.6z" fill="none" stroke-width="0"/><path d="M239.70515,164.6677c1.85723,0 3.45689,0.39314 4.79897,1.17942c1.35563,0.78626 2.37237,1.77587 3.05019,2.96884c0.67783,1.19296 1.01674,2.35204 1.01674,3.47722c0,1.32853 -0.28469,2.54183 -0.85406,3.6399c-0.56937,1.09807 -1.42342,2.00635 -2.56215,2.72483c1.54543,0.7185 2.77906,1.73523 3.70088,3.05019c0.92184,1.31498 1.38276,2.78585 1.38276,4.41261c0,1.64032 -0.46769,3.1722 -1.40308,4.59563c-0.92184,1.40987 -2.18937,2.53505 -3.80258,3.37555c-1.61321,0.82693 -3.37555,1.2404 -5.28701,1.2404c-1.93855,0 -3.66699,-0.40669 -5.18531,-1.22008c-1.51832,-0.82693 -2.69773,-1.85044 -3.53823,-3.07051c-0.8405,-1.23364 -1.26075,-2.41305 -1.26075,-3.53823c0,-0.78628 0.33213,-1.45054 0.99639,-1.99279c0.66426,-0.54226 1.39632,-0.8134 2.19616,-0.8134c0.74559,0 1.52508,0.59648 2.33847,1.78945c0.82695,1.17942 1.45055,1.99281 1.8708,2.44016c0.43379,0.43381 1.32174,0.65072 2.66382,0.65072c0.71848,0 1.37596,-0.16268 1.97244,-0.48804c0.59648,-0.33892 1.07096,-0.80662 1.42342,-1.40311c0.35247,-0.59648 0.5287,-1.26075 0.5287,-1.99279c0,-1.28785 -0.30501,-2.16224 -0.91504,-2.62316c-0.61005,-0.47447 -1.51833,-0.79982 -2.72486,-0.97605c-1.19296,-0.17623 -2.06735,-0.42025 -2.62316,-0.73204c-0.54225,-0.32536 -0.81337,-1.03029 -0.81337,-2.1148c0,-0.97606 0.24401,-1.6471 0.73204,-2.01313c0.50159,-0.36601 1.24042,-0.67781 2.21648,-0.93539c0.97606,-0.25758 1.7081,-0.58293 2.19613,-0.97605c0.50159,-0.39314 0.75239,-1.09807 0.75239,-2.1148c0,-0.79982 -0.27113,-1.46409 -0.8134,-1.99279c-0.54225,-0.5287 -1.26751,-0.79305 -2.17579,-0.79305c-0.89473,0 -1.59289,0.17623 -2.09449,0.5287c-0.50158,0.35247 -0.9896,0.87439 -1.46409,1.56576c-0.47447,0.69137 -0.88793,1.19974 -1.2404,1.5251c-0.33892,0.3118 -0.82018,0.46769 -1.44377,0.46769c-0.81339,0 -1.47087,-0.30502 -1.97244,-0.91507c-0.48803,-0.62359 -0.73204,-1.34885 -0.73204,-2.17579c0,-0.79982 0.25079,-1.59966 0.75236,-2.3995c0.50159,-0.81337 1.18619,-1.54541 2.0538,-2.19613c0.86762,-0.66426 1.85046,-1.18618 2.94852,-1.56576c1.11164,-0.39314 2.21648,-0.58971 3.31454,-0.58971z" fill="#ff0000" stroke-width="0.40889"/></g></g></svg>