<svg version="1.1" xmlns="http://www.w3.org/2000/svg" xmlns:xlink="http://www.w3.org/1999/xlink" width="94.07801" height="88.54415" viewBox="0,0,94.07801,88.54415"><defs><radialGradient cx="239.87503" cy="179.99999" r="32.79887" gradientUnits="userSpaceOnUse" id="color-1"><stop offset="0" stop-color="#000000"/><stop offset="1" stop-color="#000000" stop-opacity="0"/></radialGradient><linearGradient x1="215.92168" y1="179.99999" x2="263.79238" y2="179.99997" gradientUnits="userSpaceOnUse" id="color-2"><stop offset="0" stop-color="#ce0000"/><stop offset="1" stop-color="#ff8e8e"/></linearGradient><linearGradient x1="231.37063" y1="180.00001" x2="239.99377" y2="180.00001" gradientUnits="userSpaceOnUse" id="color-3"><stop offset="0" stop-color="#000000"/><stop offset="1" stop-color="#ff0000"/></linearGradient><linearGradient x1="240.52207" y1="179.99999" x2="263.47801" y2="179.99999" gradientUnits="userSpaceOnUse" id="color-4"><stop offset="0" stop-color="#860000"/><stop offset="1" stop-color="#e46b6b"/></linearGradient><linearGradient x1="227.69876" y1="179.99997" x2="245.34863" y2="179.99997" gradientUnits="userSpaceOnUse" id="color-5"><stop offset="0" stop-color="#ff4a4a"/><stop offset="1" stop-color="#ffffff"/></linearGradient></defs><g transform="translate(-192.961,-135.72793)"><g data-paper-data="{&quot;isPaintingLayer&quot;:true}" fill-rule="nonzero" stroke-linejoin="miter" stroke-miterlimit="10" stroke-dasharray="" stroke-dashoffset="0" style="mix-blend-mode: normal"><path d="M192.961,224.27208v-88.54415h94.07801v88.54415z" fill="none" stroke="none" stroke-width="NaN" stroke-linecap="butt"/><path d="M207.07615,179.99999c0,-18.11432 14.68456,-32.79887 32.79887,-32.79887c18.11432,0 32.79887,14.68456 32.79887,32.79887c0,18.11432 -14.68456,32.79887 -32.79887,32.79887c-18.11432,0 -32.79887,-14.68456 -32.79887,-32.79887z" fill="url(#color-1)" stroke="#000000" stroke-width="0" stroke-linecap="butt"/><path d="M215.92168,179.99999c0,-13.21912 10.71622,-23.93534 23.93534,-23.93534c13.21912,0 23.93534,10.71622 23.93534,23.93534c0,13.21912 -10.71622,23.93534 -23.93534,23.93534c-13.21912,0 -23.93534,-10.71622 -23.93534,-23.93534z" fill="url(#color-2)" stroke="#000000" stroke-width="0" stroke-linecap="butt"/><path d="M239.99377,179.85678l-8.62314,30.65104v-61.01562z" data-paper-data="{&quot;index&quot;:null}" fill="url(#color-3)" stroke="#000000" stroke-width="0" stroke-linecap="round"/><path d="M261.57291,168.88983c0,0 1.93301,5.37822 1.90479,11.65639c-0.02872,6.38836 -1.90479,10.56395 -1.90479,10.56395l-9.94067,1.16949l-3.50847,4.09323l-7.60169,0.87711l3.21609,-11.98729v-10.52543l-3.21609,-11.98729l7.60169,0.87712l3.50847,4.09322l9.94067,1.16949z" fill="url(#color-4)" stroke="#000000" stroke-width="0" stroke-linecap="round"/><path d="M238.87539,194.07844l7.19299,-10.89035h6.07197l2.13456,4.49935l-5.96457,6.03608z" fill="#000000" stroke="#000000" stroke-width="0" stroke-linecap="round"/><path d="M248.00673,166.19954l5.96457,6.0361l-2.13453,4.49935h-6.07197l-7.19299,-10.89035z" data-paper-data="{&quot;index&quot;:null}" fill="#000000" stroke="#000000" stroke-width="0" stroke-linecap="round"/><path d="M245.35331,190.74949l3.10464,-5.3525h2.62077l0.92132,2.21139l-2.57443,2.96667z" fill="#ffffff" stroke="#000000" stroke-width="0" stroke-linecap="round"/><path d="M249.20002,169.80297l2.57443,2.96667l-0.92132,2.21139h-2.6208l-3.10462,-5.3525z" data-paper-data="{&quot;index&quot;:null}" fill="#ffffff" stroke="#000000" stroke-width="0" stroke-linecap="round"/><path d="M227.69876,177.55903l14.27011,-3.00423l3.37976,2.6287v5.63294l-3.37976,2.6287l-14.27011,-3.00423z" fill="url(#color-5)" stroke="#000000" stroke-width="0" stroke-linecap="round"/></g></g></svg>