<svg version="1.1" xmlns="http://www.w3.org/2000/svg" xmlns:xlink="http://www.w3.org/1999/xlink" width="80.75" height="80.75" viewBox="0,0,80.75,80.75"><g transform="translate(-199.625,-139.625)"><g data-paper-data="{&quot;isPaintingLayer&quot;:true}" fill-rule="nonzero" stroke-linejoin="miter" stroke-miterlimit="10" stroke-dasharray="" stroke-dashoffset="0" style="mix-blend-mode: normal"><path d="M199.625,180c0,-22.2985 18.0765,-40.375 40.375,-40.375c22.2985,0 40.375,18.0765 40.375,40.375c0,22.2985 -18.0765,40.375 -40.375,40.375c-22.2985,0 -40.375,-18.0765 -40.375,-40.375z" fill="#c9ff00" stroke="none" stroke-width="NaN" stroke-linecap="butt"/><path d="M232.70833,196.64184c0,5.22369 -4.34657,9.45833 -9.70833,9.45833c-5.36176,0 -9.70833,-4.23464 -9.70833,-9.45833c0,-5.22369 4.34657,-9.45833 9.70833,-9.45833c5.36176,0 9.70833,4.23464 9.70833,9.45833z" fill="#000000" stroke="none" stroke-width="0" stroke-linecap="butt"/><path d="M230.25,196.51684v-35.61702l27,-3.5v34.19681" fill="none" stroke="#000000" stroke-width="5" stroke-linecap="round"/><path d="M259.70833,193.64184c0,5.22369 -4.34657,9.45834 -9.70834,9.45834c-5.36176,0 -9.70834,-4.23464 -9.70834,-9.45834c0,-5.22369 4.34657,-9.45833 9.70834,-9.45833c5.36177,0 9.70834,4.23463 9.70834,9.45833z" fill="#000000" stroke="none" stroke-width="0" stroke-linecap="butt"/></g></g></svg>