<svg version="1.1" xmlns="http://www.w3.org/2000/svg" xmlns:xlink="http://www.w3.org/1999/xlink" width="224.13135" height="224.13135" viewBox="0,0,224.13135,224.13135"><defs><radialGradient cx="230.79999" cy="176.83777" r="49.81448" gradientUnits="userSpaceOnUse" id="color-1"><stop offset="0" stop-color="#ff0000"/><stop offset="1" stop-color="#ff0000" stop-opacity="0"/></radialGradient><radialGradient cx="196.72146" cy="178.35592" r="37.44987" gradientUnits="userSpaceOnUse" id="color-2"><stop offset="0" stop-color="#000000"/><stop offset="1" stop-color="#ff2e54"/></radialGradient><radialGradient cx="198.14739" cy="174.98944" r="37.26747" gradientUnits="userSpaceOnUse" id="color-3"><stop offset="0" stop-color="#000000"/><stop offset="1" stop-color="#ff2e54"/></radialGradient><linearGradient x1="253.12978" y1="178.054" x2="209.74717" y2="179.3178" gradientUnits="userSpaceOnUse" id="color-4"><stop offset="0" stop-color="#000000"/><stop offset="1" stop-color="#ff365a"/></linearGradient><linearGradient x1="324.53621" y1="177.98957" x2="238.37019" y2="180.4997" gradientUnits="userSpaceOnUse" id="color-5"><stop offset="0" stop-color="#ff4949"/><stop offset="1" stop-color="#cc0025"/></linearGradient><linearGradient x1="322.00999" y1="190.15299" x2="243.43913" y2="192.0017" gradientUnits="userSpaceOnUse" id="color-6"><stop offset="0" stop-color="#ffffff" stop-opacity="0.78431"/><stop offset="1" stop-color="#e30000"/></linearGradient><radialGradient cx="287.61876" cy="191.73017" r="23.77378" gradientUnits="userSpaceOnUse" id="color-7"><stop offset="0" stop-color="#ff5656"/><stop offset="1" stop-color="#ff5656" stop-opacity="0"/></radialGradient><radialGradient cx="278.62831" cy="196.83138" r="19.12627" gradientUnits="userSpaceOnUse" id="color-8"><stop offset="0" stop-color="#ff5656"/><stop offset="1" stop-color="#ff5656" stop-opacity="0"/></radialGradient><radialGradient cx="279.51827" cy="187.13126" r="17.33877" gradientUnits="userSpaceOnUse" id="color-9"><stop offset="0" stop-color="#ff6d6d"/><stop offset="1" stop-color="#ff6d6d" stop-opacity="0"/></radialGradient><radialGradient cx="289.85918" cy="201.74389" r="9.83127" gradientUnits="userSpaceOnUse" id="color-10"><stop offset="0" stop-color="#ff4e4e"/><stop offset="1" stop-color="#ff4e4e" stop-opacity="0"/></radialGradient><radialGradient cx="291.36004" cy="181.40896" r="9.83127" gradientUnits="userSpaceOnUse" id="color-11"><stop offset="0" stop-color="#ff4e4e"/><stop offset="1" stop-color="#ff4e4e" stop-opacity="0"/></radialGradient><radialGradient cx="302.63479" cy="197.50015" r="11.83036" gradientUnits="userSpaceOnUse" id="color-12"><stop offset="0" stop-color="#ff7e7e"/><stop offset="1" stop-color="#ff7e7e" stop-opacity="0"/></radialGradient><radialGradient cx="306.65928" cy="191.43124" r="7.97612" gradientUnits="userSpaceOnUse" id="color-13"><stop offset="0" stop-color="#ff8989"/><stop offset="1" stop-color="#ff8989" stop-opacity="0"/></radialGradient><radialGradient cx="298.04583" cy="187.27588" r="7.97612" gradientUnits="userSpaceOnUse" id="color-14"><stop offset="0" stop-color="#ff6060"/><stop offset="1" stop-color="#ff6060" stop-opacity="0"/></radialGradient><radialGradient cx="298.81471" cy="198.14334" r="7.40798" gradientUnits="userSpaceOnUse" id="color-15"><stop offset="0" stop-color="#ff7e7e"/><stop offset="1" stop-color="#ff7e7e" stop-opacity="0"/></radialGradient><radialGradient cx="299.20761" cy="187.88234" r="12.62361" gradientUnits="userSpaceOnUse" id="color-16"><stop offset="0" stop-color="#ff6060"/><stop offset="1" stop-color="#ff6060" stop-opacity="0"/></radialGradient><radialGradient cx="304.18455" cy="196.57719" r="4.91254" gradientUnits="userSpaceOnUse" id="color-17"><stop offset="0" stop-color="#ffb5b5"/><stop offset="1" stop-color="#ffb5b5" stop-opacity="0"/></radialGradient><radialGradient cx="299.4238" cy="195.06578" r="11.83035" gradientUnits="userSpaceOnUse" id="color-18"><stop offset="0" stop-color="#ff6060"/><stop offset="1" stop-color="#ff6060" stop-opacity="0"/></radialGradient><radialGradient cx="295.12951" cy="189.0554" r="7.40798" gradientUnits="userSpaceOnUse" id="color-19"><stop offset="0" stop-color="#ff6060"/><stop offset="1" stop-color="#ff6060" stop-opacity="0"/></radialGradient><radialGradient cx="225.7953" cy="176.76565" r="49.81448" gradientUnits="userSpaceOnUse" id="color-20"><stop offset="0" stop-color="#ff0000"/><stop offset="1" stop-color="#ff0000" stop-opacity="0"/></radialGradient><linearGradient x1="274.0047" y1="128.53025" x2="274.0047" y2="201.18226" gradientUnits="userSpaceOnUse" id="color-21"><stop offset="0" stop-color="#ff002e" stop-opacity="0"/><stop offset="1" stop-color="#ff002e"/></linearGradient><linearGradient x1="203.11436" y1="134.92235" x2="203.11436" y2="211.10096" gradientUnits="userSpaceOnUse" id="color-22"><stop offset="0" stop-color="#ffffff" stop-opacity="0.50196"/><stop offset="1" stop-color="#ffffff" stop-opacity="0"/></linearGradient><linearGradient x1="259.14141" y1="146.6787" x2="259.14141" y2="225.80968" gradientUnits="userSpaceOnUse" id="color-23"><stop offset="0" stop-color="#ffffff" stop-opacity="0.50196"/><stop offset="1" stop-color="#ffffff" stop-opacity="0"/></linearGradient><linearGradient x1="288.0153" y1="138.18493" x2="288.0153" y2="216.85382" gradientUnits="userSpaceOnUse" id="color-24"><stop offset="0" stop-color="#ffffff" stop-opacity="0"/><stop offset="1" stop-color="#ffffff" stop-opacity="0.50196"/></linearGradient><linearGradient x1="240.08933" y1="133.06945" x2="240.08933" y2="206.58091" gradientUnits="userSpaceOnUse" id="color-25"><stop offset="0" stop-color="#ff002e" stop-opacity="0"/><stop offset="1" stop-color="#ff002e"/></linearGradient><linearGradient x1="183.29834" y1="138.50109" x2="183.29834" y2="225.95563" gradientUnits="userSpaceOnUse" id="color-26"><stop offset="0" stop-color="#ff002e"/><stop offset="1" stop-color="#ff002e" stop-opacity="0"/></linearGradient><linearGradient x1="222.20348" y1="129.79891" x2="233.58118" y2="234.49553" gradientUnits="userSpaceOnUse" id="color-27"><stop offset="0" stop-color="#ffffff" stop-opacity="0.50196"/><stop offset="1" stop-color="#ffffff" stop-opacity="0"/></linearGradient></defs><g transform="translate(-127.93433,-67.93433)"><g data-paper-data="{&quot;isPaintingLayer&quot;:true}" fill-rule="nonzero" stroke-width="0" stroke-linecap="butt" stroke-linejoin="miter" stroke-miterlimit="10" stroke-dasharray="" stroke-dashoffset="0" style="mix-blend-mode: normal"><path d="M229.34944,127.04441c27.50011,-0.80112 50.4428,20.84269 51.24391,48.34281c0.80112,27.50011 -20.8427,50.44279 -48.34282,51.24391c-27.50011,0.80112 -50.44279,-20.84269 -51.2439,-48.34281c-0.80112,-27.50011 20.84269,-50.44279 48.34281,-51.2439z" data-paper-data="{&quot;index&quot;:null}" fill="url(#color-1)" stroke="none"/><path d="M174.23646,173.47595c-5.54857,-1.29831 -9.41276,9.18911 -14.31884,6.50388c-2.50968,-1.37361 2.33974,-17.17328 13.72874,-16.44675c19.60596,1.25072 16.01192,6.30334 24.26704,9.38311c10.97303,4.09373 27.60419,-12.68821 27.60419,-12.68821l8.65374,19.40521c0,0 -20.76661,30.29464 -46.22692,9.64389c-9.59517,-7.7826 -8.15939,-14.50282 -13.70796,-15.80113z" data-paper-data="{&quot;index&quot;:null}" fill="url(#color-2)" stroke="#000000"/><path d="M175.18689,174.59023c5.6684,-0.57258 5.09974,-7.386 15.60694,-13.83936c27.88035,-17.12366 44.62103,15.41583 44.62103,15.41583l-11.05282,18.04033c0,0 -14.35898,-18.68006 -25.76325,-16.04199c-8.57953,1.98464 -5.65801,7.42834 -25.26269,6.15943c-11.38824,-0.73709 -14.18698,-16.944 -11.523,-17.97883c5.20769,-2.02293 7.70539,8.81718 13.3738,8.24459z" data-paper-data="{&quot;index&quot;:null}" fill="url(#color-3)" stroke="#000000"/><path d="M221.31796,208.6228c0,0 -7.52191,-6.26896 -6.60538,-12.64378c1.0976,-7.63428 8.32302,-10.39208 8.32302,-10.39208l-18.10409,-5.96953l18.77723,-7.50956c0,0 -8.94054,-2.44292 -9.70753,-7.76744c-1.61496,-11.21123 6.63901,-16.37521 6.63901,-16.37521c0,0 3.70295,11.32526 9.79348,13.18116c7.27066,2.21551 22.16409,-1.35422 22.16409,-1.35422l1.06399,36.52374c0,0 -14.08352,-2.32201 -21.46889,-1.51872c-4.11191,0.44723 -10.87492,13.82562 -10.87492,13.82562z" data-paper-data="{&quot;index&quot;:null}" fill="url(#color-4)" stroke="#ff0000"/><path d="M307.94529,203.0797c-18.82772,11.56676 -40.052,7.44928 -47.58477,3.55197c-8.01664,-4.14766 -9.79679,-6.69181 -14.05151,-11.70834c-4.25472,-5.01651 -7.92477,-13.94152 -7.92477,-13.94152l7.33437,-14.7982c0,0 3.08513,-7.04893 13.78881,-13.36002c9.80855,-5.78331 32.49117,-7.83163 47.09652,1.0754c9.66782,5.8959 17.51846,12.03255 17.91064,23.36192c0.23256,6.71832 -1.88047,16.79477 -16.56928,25.8188z" data-paper-data="{&quot;index&quot;:null}" fill="url(#color-5)" stroke="#000000"/><path d="M252.51673,198.47378c0,0 -9.04045,-3.99077 -9.06298,-6.07373c-0.02319,-2.14597 8.40742,-6.39594 8.40742,-6.39594c0,0 8.63859,-0.20448 13.77655,0.09405c5.30827,0.30842 17.58644,1.94035 17.58644,1.94035l26.2368,1.05616l-31.21338,-8.48055l31.12018,4.1897l-13.60121,-7.92832c0,0 11.15615,2.78839 15.12616,4.90744c4.54003,2.42331 7.62122,5.3502 8.12367,8.58238c0.50244,3.23219 -3.05117,6.81163 -6.26408,8.71016c-4.64181,2.74288 -15.91825,5.99034 -15.91825,5.99034l13.12251,-8.03319l-32.52185,5.17432l31.43447,-9.31071l-25.33053,1.89986c0,0 -12.29268,2.38021 -17.78756,3.05054c-4.72916,0.57692 -13.23438,0.62713 -13.23438,0.62713z" data-paper-data="{&quot;index&quot;:null}" fill="url(#color-6)" stroke="#ff0000"/><g data-paper-data="{&quot;index&quot;:null}" stroke="none"><path d="M287.98328,201.83698c-13.12433,0.30881 -23.9269,-3.96582 -24.12822,-9.54765c-0.20132,-5.58184 10.27484,-10.35713 23.39918,-10.66593c13.12434,-0.30881 23.92691,3.96582 24.12823,9.54765c0.20132,5.58183 -10.27484,10.35713 -23.39918,10.66593z" fill="url(#color-7)"/><path d="M278.92156,204.96241c-10.55868,0.24844 -19.24947,-3.19055 -19.41143,-7.68119c-0.16197,-4.49064 8.26622,-8.33242 18.8249,-8.58086c10.55868,-0.24844 19.24947,3.19054 19.41143,7.68118c0.16197,4.49064 -8.26621,8.33243 -18.82489,8.58087z" fill="url(#color-8)"/><path d="M279.78411,194.50237c-9.57188,0.22522 -17.45045,-2.89236 -17.59727,-6.96332c-0.14683,-4.07096 7.49369,-7.55369 17.06558,-7.77892c9.57188,-0.22522 17.45045,2.89236 17.59727,6.96332c0.14683,4.07096 -7.49367,7.55369 -17.06556,7.77892z" fill="url(#color-9)"/><path d="M290.00991,205.9234c-5.42736,0.1277 -9.89459,-1.64 -9.97784,-3.94828c-0.08325,-2.30828 4.249,-4.28303 9.67636,-4.41072c5.42737,-0.1277 9.89459,1.64 9.97784,3.94828c0.08325,2.30827 -4.24898,4.28302 -9.67634,4.41072z" fill="url(#color-10)"/><path d="M291.51079,185.58845c-5.42736,0.1277 -9.89459,-1.64 -9.97784,-3.94828c-0.08325,-2.30827 4.249,-4.28302 9.67636,-4.41071c5.42736,-0.1277 9.89459,1.64 9.97784,3.94828c0.08325,2.30828 -4.249,4.28303 -9.67636,4.41072z" fill="url(#color-11)"/><path d="M302.8162,202.52952c-6.53095,0.15367 -11.90655,-1.97348 -12.00673,-4.75112c-0.10018,-2.77764 5.11297,-5.15393 11.64394,-5.3076c6.53095,-0.15367 11.90653,1.97348 12.00671,4.75112c0.10018,2.77764 -5.11297,5.15393 -11.64394,5.3076z" fill="url(#color-12)"/><path d="M298.68654,191.61882c-0.06754,-1.87271 3.44721,-3.47482 7.85044,-3.57843c4.40322,-0.1036 8.02748,1.33054 8.09503,3.20324c0.06754,1.87271 -3.4472,3.47482 -7.85043,3.57843c-4.40323,0.1036 -8.02749,-1.33054 -8.09504,-3.20324z" fill="url(#color-13)"/><path d="M290.0731,187.46348c-0.06754,-1.87271 3.44721,-3.47482 7.85044,-3.57843c4.40322,-0.1036 8.02748,1.33054 8.09503,3.20324c0.06754,1.87271 -3.4472,3.47482 -7.85043,3.57843c-4.40323,0.1036 -8.02749,-1.33054 -8.09504,-3.20324z" fill="url(#color-14)"/><path d="M291.40987,198.31758c-0.06273,-1.73932 3.20168,-3.22731 7.29126,-3.32354c4.0896,-0.09623 7.45569,1.23576 7.51843,2.97507c0.06273,1.73932 -3.20167,3.22731 -7.29125,3.32354c-4.0896,0.09623 -7.4557,-1.23576 -7.51844,-2.97507z" fill="url(#color-15)"/><path d="M286.58933,188.17925c-0.1069,-2.96389 5.45582,-5.49953 12.42472,-5.66349c6.96887,-0.16397 12.70492,2.10581 12.81182,5.0697c0.1069,2.96389 -5.45581,5.49953 -12.4247,5.66349c-6.96889,0.16397 -12.70494,-2.10581 -12.81184,-5.0697z" fill="url(#color-16)"/><path d="M299.27407,196.69272c-0.0416,-1.15341 2.12317,-2.14017 4.83515,-2.20398c2.71198,-0.06381 4.94418,0.81949 4.98578,1.9729c0.0416,1.15341 -2.12315,2.14017 -4.83513,2.20398c-2.71199,0.06381 -4.9442,-0.81949 -4.9858,-1.9729z" fill="url(#color-17)"/><path d="M299.60522,200.09514c-6.53094,0.15367 -11.90656,-1.97348 -12.00674,-4.75112c-0.10018,-2.77764 5.11298,-5.15393 11.64395,-5.3076c6.53095,-0.15367 11.90653,1.97348 12.00671,4.75112c0.10018,2.77764 -5.11297,5.15393 -11.64394,5.3076z" fill="url(#color-18)"/><path d="M287.72466,189.22964c-0.06273,-1.73932 3.20168,-3.22731 7.29126,-3.32354c4.0896,-0.09623 7.45569,1.23576 7.51843,2.97507c0.06273,1.73932 -3.20167,3.22731 -7.29125,3.32354c-4.0896,0.09623 -7.4557,-1.23576 -7.51844,-2.97507z" fill="url(#color-19)"/></g><path d="M352.06568,67.93433v224.13135h-224.13135v-224.13135z" data-paper-data="{&quot;index&quot;:null}" fill="none" stroke="none"/><g><path d="M225.7953,126.95117c27.51178,0 49.81449,22.3027 49.81449,49.81448c0,27.51178 -22.30271,49.81448 -49.81449,49.81448c-27.51178,0 -49.81448,-22.3027 -49.81448,-49.81448c0,-27.51178 22.3027,-49.81448 49.81448,-49.81448z" data-paper-data="{&quot;index&quot;:null}" fill="url(#color-20)" stroke="none"/><path d="M289.05863,128.53026c0,0 -13.51671,22.89898 -18.43843,36.76062c-4.92172,13.86164 -5.02064,35.89138 -5.02064,35.89138c0,0 -12.23543,-18.4262 -3.51016,-43.60296c5.79698,-16.72719 26.96923,-29.04905 26.96923,-29.04905z" data-paper-data="{&quot;index&quot;:null}" fill="url(#color-21)" stroke="#000000"/><path d="M204.21949,170.12888c-0.54842,14.69923 3.55061,40.97208 3.55061,40.97208c0,0 -15.12103,-19.27296 -14.32711,-36.95836c1.19497,-26.61901 19.37295,-39.22025 19.37295,-39.22025c0,0 -8.04801,20.50728 -8.59644,35.20652z" data-paper-data="{&quot;index&quot;:null}" fill="url(#color-22)" stroke="#000000"/><path d="M260.30619,189.00045c3.35096,16.77774 11.80654,36.80923 11.80654,36.80923c0,0 -21.0527,-8.88438 -24.90756,-29.10988c-5.80211,-30.44223 14.68076,-50.0211 14.68076,-50.0211c0,0 -4.93069,25.54401 -1.57973,42.32175z" data-paper-data="{&quot;index&quot;:null}" fill="url(#color-23)" stroke="#000000"/><path d="M280.69562,216.85381c0,0 5.40105,-26.86939 5.49663,-42.03005c0.09557,-15.16066 -7.27036,-36.63883 -7.27036,-36.63883c0,0 18.15207,13.79225 18.18679,41.25592c0.02307,18.24658 -16.41305,37.41297 -16.41305,37.41297z" data-paper-data="{&quot;index&quot;:null}" fill="url(#color-24)" stroke="#000000"/><path d="M241.35511,167.00347c-0.81095,14.18729 4.12295,39.57743 4.12295,39.57743c0,0 -18.84377,-18.70248 -17.69956,-35.77108c1.72219,-25.69065 24.67174,-37.74037 24.67174,-37.74037c0,0 -10.28418,19.74674 -11.09513,33.93403z" data-paper-data="{&quot;index&quot;:null}" fill="url(#color-25)" stroke="#000000"/><path d="M191.16766,138.5011c0,0 -5.9428,29.06688 -6.854,45.86215c-0.91121,16.79527 4.00335,41.59238 4.00335,41.59238c0,0 -14.25915,-17.7184 -12.78045,-48.17101c0.98244,-20.2324 15.63111,-39.28353 15.63111,-39.28353z" data-paper-data="{&quot;index&quot;:null}" fill="url(#color-26)" stroke="#000000"/><path d="M229.09261,180.84105c4.4862,22.30101 25.35873,50.30371 25.35873,50.30371c0,0 -39.37805,-11.55621 -47.90713,-51.85518c-5.66661,-26.77422 18.94123,-50.0176 18.94123,-50.0176c0,0 -0.87905,29.26808 3.60716,51.56909z" data-paper-data="{&quot;index&quot;:null}" fill="url(#color-27)" stroke="#000000"/></g></g></g></svg>