<svg version="1.1" xmlns="http://www.w3.org/2000/svg" xmlns:xlink="http://www.w3.org/1999/xlink" width="77" height="77" viewBox="0,0,77,77"><defs><linearGradient x1="240.00003" y1="144.75325" x2="240.00003" y2="214.81922" gradientUnits="userSpaceOnUse" id="color-1"><stop offset="0" stop-color="#fff387"/><stop offset="1" stop-color="#f9ca3a"/></linearGradient><linearGradient x1="239.94188" y1="185.43694" x2="239.94188" y2="208.28019" gradientUnits="userSpaceOnUse" id="color-2"><stop offset="0" stop-color="#000000"/><stop offset="1" stop-color="#757575"/></linearGradient><linearGradient x1="239.87996" y1="185.2958" x2="239.87996" y2="192.09421" gradientUnits="userSpaceOnUse" id="color-3"><stop offset="0" stop-color="#bdbdbd"/><stop offset="1" stop-color="#e4e4e4"/></linearGradient><linearGradient x1="225.15487" y1="173.8232" x2="225.15487" y2="213.89846" gradientUnits="userSpaceOnUse" id="color-4"><stop offset="0" stop-color="#b7fffd"/><stop offset="1" stop-color="#00caff"/></linearGradient><linearGradient x1="254.93144" y1="174.27096" x2="254.93144" y2="214.34622" gradientUnits="userSpaceOnUse" id="color-5"><stop offset="0" stop-color="#b7fffd"/><stop offset="1" stop-color="#00caff"/></linearGradient></defs><g transform="translate(-201.5,-141.5)"><g data-paper-data="{&quot;isPaintingLayer&quot;:true}" fill-rule="nonzero" stroke-linejoin="miter" stroke-miterlimit="10" stroke-dasharray="" stroke-dashoffset="0" style="mix-blend-mode: normal"><path d="M201.5,218.5v-77h77v77z" fill="none" stroke="none" stroke-width="0" stroke-linecap="butt"/><g><path d="M204.96702,179.78623c0,-19.3482 15.68482,-35.03298 35.03299,-35.03298c19.3482,0 35.03298,15.6848 35.03298,35.03298c0,19.3482 -15.68478,35.03299 -35.03298,35.03299c-19.34818,0 -35.03299,-15.68478 -35.03299,-35.03299z" fill="url(#color-1)" stroke="none" stroke-width="0" stroke-linecap="butt"/><path d="M228.31301,158.4575c0,0 -1.25812,3.55597 -3.56943,5.42865c-2.80789,2.11751 -6.72295,2.59868 -6.72295,2.59868" data-paper-data="{&quot;index&quot;:null}" fill="none" stroke="#000000" stroke-width="2" stroke-linecap="round"/><path d="M260.85772,166.51714c0,0 -3.65959,-0.48117 -6.28423,-2.59868c-2.16049,-1.87266 -3.3365,-5.42865 -3.3365,-5.42865" data-paper-data="{&quot;index&quot;:null}" fill="none" stroke="#000000" stroke-width="2" stroke-linecap="round"/><path d="M248.8577,196.85858c0,6.308 -3.99174,11.42163 -8.91582,11.42163c-4.92408,0 -8.91582,-5.11361 -8.91582,-11.42163c0,-6.308 3.99174,-11.42165 8.91582,-11.42165c4.92408,0 8.91582,5.11365 8.91582,11.42165z" fill="url(#color-2)" stroke="#000000" stroke-width="0" stroke-linecap="butt"/><path d="M231.93951,192.09421c0,0 0.96375,-6.70142 8.0736,-6.79842c7.20523,-0.09831 7.80731,6.79842 7.80731,6.79842z" fill="url(#color-3)" stroke="#000000" stroke-width="0" stroke-linecap="butt"/><path d="M220.56525,213.89846v-40.07527h9.17925v40.07527z" fill="url(#color-4)" stroke="#000000" stroke-width="0" stroke-linecap="butt"/><path d="M250.34181,214.34622v-40.07527h9.17925v40.07527z" fill="url(#color-5)" stroke="#000000" stroke-width="0" stroke-linecap="butt"/><path d="M216.75397,177.61081c0,0 2.65314,-3.85364 9.17078,-3.85364c7.67893,0 9.14432,3.85364 9.14432,3.85364" fill="none" stroke="#000000" stroke-width="2.5" stroke-linecap="round"/><path d="M245.12907,177.89168c0,0 1.46541,-3.85362 9.14432,-3.85362c6.51764,0 9.17076,3.85362 9.17076,3.85362" data-paper-data="{&quot;index&quot;:null}" fill="none" stroke="#000000" stroke-width="2.5" stroke-linecap="round"/><path d="M271.6108,214.0104c0,1.05099 -14.13333,1.90302 -31.56767,1.90302c-17.43434,0 -31.56767,-0.85201 -31.56767,-1.90302c0,-1.05099 14.13331,-1.903 31.56767,-1.903c17.43436,0 31.56767,0.85201 31.56767,1.903z" fill="#00caff" stroke="#000000" stroke-width="0" stroke-linecap="butt"/></g></g></g></svg>