<svg version="1.1" xmlns="http://www.w3.org/2000/svg" xmlns:xlink="http://www.w3.org/1999/xlink" width="79.49276" height="80.13905" viewBox="0,0,79.49276,80.13905"><defs><radialGradient cx="237.5" cy="180.00002" r="32.79887" gradientUnits="userSpaceOnUse" id="color-1"><stop offset="0" stop-color="#000000" stop-opacity="0.54902"/><stop offset="1" stop-color="#000000" stop-opacity="0"/></radialGradient><radialGradient cx="237.5" cy="180.00002" r="30.37547" gradientUnits="userSpaceOnUse" id="color-2"><stop offset="0" stop-color="#ff0000"/><stop offset="1" stop-color="#ff0000" stop-opacity="0"/></radialGradient><radialGradient cx="237.5" cy="180.00003" r="29.05089" gradientUnits="userSpaceOnUse" id="color-3"><stop offset="0" stop-color="#ff5a5a"/><stop offset="1" stop-color="#ffffff"/></radialGradient><radialGradient cx="237.5" cy="180.00003" r="29.05089" gradientUnits="userSpaceOnUse" id="color-4"><stop offset="0" stop-color="#ff5a5a"/><stop offset="1" stop-color="#ffffff"/></radialGradient><radialGradient cx="233.5002" cy="155.39378" r="4.0853" gradientUnits="userSpaceOnUse" id="color-5"><stop offset="0" stop-color="#ff5a5a"/><stop offset="1" stop-color="#ffffff"/></radialGradient><radialGradient cx="241.49981" cy="155.3938" r="4.0853" gradientUnits="userSpaceOnUse" id="color-6"><stop offset="0" stop-color="#ff5a5a"/><stop offset="1" stop-color="#ffffff"/></radialGradient><radialGradient cx="233.5002" cy="204.60625" r="4.0853" gradientUnits="userSpaceOnUse" id="color-7"><stop offset="0" stop-color="#ff5a5a"/><stop offset="1" stop-color="#ffffff"/></radialGradient><radialGradient cx="241.49979" cy="204.60625" r="4.0853" gradientUnits="userSpaceOnUse" id="color-8"><stop offset="0" stop-color="#ff5a5a"/><stop offset="1" stop-color="#ffffff"/></radialGradient><radialGradient cx="212.89378" cy="183.99984" r="4.0853" gradientUnits="userSpaceOnUse" id="color-9"><stop offset="0" stop-color="#ff5a5a"/><stop offset="1" stop-color="#ffffff"/></radialGradient><radialGradient cx="212.89377" cy="176.00024" r="4.0853" gradientUnits="userSpaceOnUse" id="color-10"><stop offset="0" stop-color="#ff5a5a"/><stop offset="1" stop-color="#ffffff"/></radialGradient><radialGradient cx="262.10624" cy="183.99984" r="4.0853" gradientUnits="userSpaceOnUse" id="color-11"><stop offset="0" stop-color="#ff5a5a"/><stop offset="1" stop-color="#ffffff"/></radialGradient><radialGradient cx="262.10623" cy="176.00024" r="4.0853" gradientUnits="userSpaceOnUse" id="color-12"><stop offset="0" stop-color="#ff5a5a"/><stop offset="1" stop-color="#ffffff"/></radialGradient><radialGradient cx="233.61577" cy="166.46272" r="3.96726" gradientUnits="userSpaceOnUse" id="color-13"><stop offset="0" stop-color="#ff5a5a"/><stop offset="1" stop-color="#ffffff"/></radialGradient><radialGradient cx="241.38424" cy="166.46269" r="3.96726" gradientUnits="userSpaceOnUse" id="color-14"><stop offset="0" stop-color="#ff5a5a"/><stop offset="1" stop-color="#ffffff"/></radialGradient><radialGradient cx="233.61577" cy="193.53733" r="3.96726" gradientUnits="userSpaceOnUse" id="color-15"><stop offset="0" stop-color="#ff5a5a"/><stop offset="1" stop-color="#ffffff"/></radialGradient><radialGradient cx="241.38422" cy="193.53734" r="3.96726" gradientUnits="userSpaceOnUse" id="color-16"><stop offset="0" stop-color="#ff5a5a"/><stop offset="1" stop-color="#ffffff"/></radialGradient><radialGradient cx="223.96268" cy="183.88427" r="3.96726" gradientUnits="userSpaceOnUse" id="color-17"><stop offset="0" stop-color="#ff5a5a"/><stop offset="1" stop-color="#ffffff"/></radialGradient><radialGradient cx="223.96268" cy="176.1158" r="3.96726" gradientUnits="userSpaceOnUse" id="color-18"><stop offset="0" stop-color="#ff5a5a"/><stop offset="1" stop-color="#ffffff"/></radialGradient><radialGradient cx="251.03731" cy="183.88425" r="3.96726" gradientUnits="userSpaceOnUse" id="color-19"><stop offset="0" stop-color="#ff5a5a"/><stop offset="1" stop-color="#ffffff"/></radialGradient><radialGradient cx="251.03732" cy="176.11579" r="3.96726" gradientUnits="userSpaceOnUse" id="color-20"><stop offset="0" stop-color="#ff5a5a"/><stop offset="1" stop-color="#ffffff"/></radialGradient><radialGradient cx="237.50001" cy="180.00001" r="21.70683" gradientUnits="userSpaceOnUse" id="color-21"><stop offset="0" stop-color="#ff5a5a"/><stop offset="1" stop-color="#ffffff"/></radialGradient><radialGradient cx="223.71282" cy="199.13953" r="5.46673" gradientUnits="userSpaceOnUse" id="color-22"><stop offset="0" stop-color="#ff5a5a"/><stop offset="1" stop-color="#ffffff"/></radialGradient><radialGradient cx="218.3605" cy="193.78723" r="5.46673" gradientUnits="userSpaceOnUse" id="color-23"><stop offset="0" stop-color="#ff5a5a"/><stop offset="1" stop-color="#ffffff"/></radialGradient><radialGradient cx="256.63951" cy="166.21284" r="5.46673" gradientUnits="userSpaceOnUse" id="color-24"><stop offset="0" stop-color="#ff5a5a"/><stop offset="1" stop-color="#ffffff"/></radialGradient><radialGradient cx="251.28721" cy="160.86052" r="5.46673" gradientUnits="userSpaceOnUse" id="color-25"><stop offset="0" stop-color="#ff5a5a"/><stop offset="1" stop-color="#ffffff"/></radialGradient><radialGradient cx="237.50001" cy="180.00001" r="21.70683" gradientUnits="userSpaceOnUse" id="color-26"><stop offset="0" stop-color="#ff5a5a"/><stop offset="1" stop-color="#ffffff"/></radialGradient><radialGradient cx="256.63951" cy="193.78721" r="5.46673" gradientUnits="userSpaceOnUse" id="color-27"><stop offset="0" stop-color="#ff5a5a"/><stop offset="1" stop-color="#ffffff"/></radialGradient><radialGradient cx="251.28721" cy="199.13953" r="5.46673" gradientUnits="userSpaceOnUse" id="color-28"><stop offset="0" stop-color="#ff5a5a"/><stop offset="1" stop-color="#ffffff"/></radialGradient><radialGradient cx="223.7128" cy="160.86051" r="5.46673" gradientUnits="userSpaceOnUse" id="color-29"><stop offset="0" stop-color="#ff5a5a"/><stop offset="1" stop-color="#ffffff"/></radialGradient><radialGradient cx="218.3605" cy="166.21283" r="5.46673" gradientUnits="userSpaceOnUse" id="color-30"><stop offset="0" stop-color="#ff5a5a"/><stop offset="1" stop-color="#ffffff"/></radialGradient></defs><g transform="translate(-200.25362,-139.93051)"><g data-paper-data="{&quot;isPaintingLayer&quot;:true}" fill-rule="nonzero" stroke-linejoin="miter" stroke-miterlimit="10" stroke-dasharray="" stroke-dashoffset="0" style="mix-blend-mode: normal"><path d="M279.74638,220.06956h-79.49276v-80.13905h79.49276z" fill="none" stroke="none" stroke-width="NaN" stroke-linecap="butt"/><path d="M237.5,212.7989c-18.11432,0 -32.79887,-14.68456 -32.79887,-32.79887c0,-18.11432 14.68456,-32.79887 32.79887,-32.79887c18.11432,0 32.79887,14.68456 32.79887,32.79887c0,18.11432 -14.68456,32.79887 -32.79887,32.79887z" fill="url(#color-1)" stroke="#000000" stroke-width="0" stroke-linecap="butt"/><path d="M237.5,210.37549c-16.7759,0 -30.37547,-13.59957 -30.37547,-30.37547c0,-16.7759 13.59957,-30.37547 30.37547,-30.37547c16.7759,0 30.37547,13.59957 30.37547,30.37547c0,16.7759 -13.59957,30.37547 -30.37547,30.37547z" fill="url(#color-2)" stroke="#000000" stroke-width="0" stroke-linecap="butt"/><path d="M237.5,209.05092v-58.10178" fill="none" stroke="url(#color-3)" stroke-width="2.5" stroke-linecap="round"/><path d="M208.44911,180.00003h58.10178" fill="none" stroke="url(#color-4)" stroke-width="2.5" stroke-linecap="round"/><g fill="none" stroke-width="3.5" stroke-linecap="round"><path d="M237.5855,159.47907l-8.1706,-8.17059" stroke="url(#color-5)"/><path d="M245.58511,151.30849l-8.1706,8.1706" data-paper-data="{&quot;index&quot;:null}" stroke="url(#color-6)"/></g><g data-paper-data="{&quot;index&quot;:null}" fill="none" stroke-width="3.5" stroke-linecap="round"><path d="M237.5855,200.52095l-8.1706,8.1706" stroke="url(#color-7)"/><path d="M245.58509,208.69156l-8.1706,-8.1706" data-paper-data="{&quot;index&quot;:null}" stroke="url(#color-8)"/></g><g fill="none" stroke-width="3.5" stroke-linecap="round"><path d="M216.97908,179.91454l-8.1706,8.1706" stroke="url(#color-9)"/><path d="M216.97907,180.08554l-8.1706,-8.1706" data-paper-data="{&quot;index&quot;:null}" stroke="url(#color-10)"/></g><g data-paper-data="{&quot;index&quot;:null}" fill="none" stroke-width="3.5" stroke-linecap="round"><path d="M258.02094,179.91454l8.17059,8.1706" stroke="url(#color-11)"/><path d="M258.02093,180.08554l8.1706,-8.1706" data-paper-data="{&quot;index&quot;:null}" stroke="url(#color-12)"/></g><g fill="none" stroke-width="2.5" stroke-linecap="round"><path d="M229.64851,162.49546l7.93452,7.93452" stroke="url(#color-13)"/><path d="M237.41698,170.42996l7.93452,-7.93451" data-paper-data="{&quot;index&quot;:null}" stroke="url(#color-14)"/></g><g data-paper-data="{&quot;index&quot;:null}" fill="none" stroke-width="2.5" stroke-linecap="round"><path d="M229.64851,197.50459l7.93452,-7.93452" stroke="url(#color-15)"/><path d="M237.41696,189.57009l7.93452,7.93451" data-paper-data="{&quot;index&quot;:null}" stroke="url(#color-16)"/></g><g fill="none" stroke-width="2.5" stroke-linecap="round"><path d="M227.92993,179.91701l-7.93451,7.93452" stroke="url(#color-17)"/><path d="M219.99542,172.14854l7.93451,7.93452" data-paper-data="{&quot;index&quot;:null}" stroke="url(#color-18)"/></g><g data-paper-data="{&quot;index&quot;:null}" fill="none" stroke-width="2.5" stroke-linecap="round"><path d="M255.00457,187.85151l-7.93452,-7.93452" stroke="url(#color-19)"/><path d="M255.00458,172.14853l-7.93452,7.93452" data-paper-data="{&quot;index&quot;:null}" stroke="url(#color-20)"/></g><path d="M215.79319,201.70683l43.41365,-43.41365" fill="none" stroke="url(#color-21)" stroke-width="3.5" stroke-linecap="round"/><g fill="none" stroke-width="2.5" stroke-linecap="round"><path d="M223.71282,193.67281v10.93344" stroke="url(#color-22)"/><path d="M212.89379,193.78723h10.93344" data-paper-data="{&quot;index&quot;:null}" stroke="url(#color-23)"/></g><g data-paper-data="{&quot;index&quot;:null}" fill="none" stroke-width="2.5" stroke-linecap="round"><path d="M262.10623,166.21284h-10.93344" stroke="url(#color-24)"/><path d="M251.28721,155.3938v10.93344" data-paper-data="{&quot;index&quot;:null}" stroke="url(#color-25)"/></g><path d="M259.20684,201.70684l-43.41365,-43.41366" fill="none" stroke="url(#color-26)" stroke-width="3.5" stroke-linecap="round"/><g fill="none" stroke-width="2.5" stroke-linecap="round"><path d="M251.17279,193.78721h10.93344" stroke="url(#color-27)"/><path d="M251.28721,204.60626v-10.93344" data-paper-data="{&quot;index&quot;:null}" stroke="url(#color-28)"/></g><g data-paper-data="{&quot;index&quot;:null}" fill="none" stroke-width="2.5" stroke-linecap="round"><path d="M223.7128,166.32723v-10.93345" stroke="url(#color-29)"/><path d="M212.89378,166.21283h10.93344" data-paper-data="{&quot;index&quot;:null}" stroke="url(#color-30)"/></g><path d="M246.16392,190.67264c0,-2.44128 1.97905,-4.42033 4.42033,-4.42033c2.44128,0 4.42033,1.97905 4.42033,4.42033c0,2.44128 -1.97905,4.42033 -4.42033,4.42033c-2.44128,0 -4.42033,-1.97905 -4.42033,-4.42033z" fill="#000000" stroke="#000000" stroke-width="0" stroke-linecap="butt"/><path d="M246.21315,169.32746c0,-2.44128 1.97905,-4.42033 4.42033,-4.42033c2.44128,0 4.42033,1.97905 4.42033,4.42033c0,2.44128 -1.97905,4.42033 -4.42033,4.42033c-2.44128,0 -4.42033,-1.97905 -4.42033,-4.42033z" fill="#000000" stroke="#000000" stroke-width="0" stroke-linecap="butt"/><path d="M257.23932,191.00078v-22.27848" fill="none" stroke="#000000" stroke-width="2" stroke-linecap="round"/></g></g></svg>