<svg version="1.1" xmlns="http://www.w3.org/2000/svg" xmlns:xlink="http://www.w3.org/1999/xlink" width="480.66667" height="360" viewBox="0,0,480.66667,360"><defs><radialGradient cx="240.00011" cy="180" r="240.33333" gradientUnits="userSpaceOnUse" id="color-1"><stop offset="0" stop-color="#fefcff"/><stop offset="1" stop-color="#e3d1b9"/></radialGradient></defs><g transform="translate(0.33326,0)"><g data-paper-data="{&quot;isPaintingLayer&quot;:true}" fill-rule="nonzero" stroke-width="0" stroke-linecap="butt" stroke-linejoin="miter" stroke-miterlimit="10" stroke-dasharray="" stroke-dashoffset="0" style="mix-blend-mode: normal"><path d="M-0.33326,360v-360h480.66667v360z" fill="url(#color-1)" stroke="#000000"/><path d="M183.21824,244.48622l-43.81799,-13.72237l-23.9517,-32.50822l34.39249,22.62733z" fill-opacity="0.20392" fill="#000000" stroke="none"/><path d="M282.74287,272.52831l-40.04583,18.22996l-39.06102,3.49802l40.46015,-17.31983z" fill-opacity="0.10588" fill="#000000" stroke="none"/><path d="M434.10303,85.86846l-43.78311,-4.3634l-35.52842,-16.60515l43.68393,7.35848z" fill-opacity="0.20392" fill="#000000" stroke="none"/><path d="M348.19383,178.67257l20.04176,24.16027l7.4651,29.26297l-19.31959,-24.84845z" fill-opacity="0.20392" fill="#000000" stroke="none"/><path d="M155.15746,67.96517l30.92308,5.39946l24.65654,17.43858l-30.81947,-6.39163z" fill-opacity="0.20392" fill="#000000" stroke="none"/><path d="M238.29145,145.24545l24.07908,-20.13924l29.23255,-7.5833l-26.77017,18.41985z" fill-opacity="0.10588" fill="#000000" stroke="none"/><path d="M40.48173,84.27l14.7126,-27.72959l24.21846,-18.04204l-15.62387,27.32374z" fill-opacity="0.10588" fill="#000000" stroke="none"/><path d="M59.1056,309.82211l-9.62387,-29.32374l24.21846,18.04204l14.7126,27.72959z" data-paper-data="{&quot;index&quot;:null}" fill-opacity="0.10588" fill="#000000" stroke="none"/><path d="M401.50407,287.4169l14.90238,-20.97419l21.59923,-12.09124l-15.59989,20.54756z" fill-opacity="0.10588" fill="#000000" stroke="none"/><path d="M309.8334,215.37093c0,-3.03757 2.46244,-5.5 5.5,-5.5c3.03756,0 5.5,2.46243 5.5,5.5c0,3.03757 -2.46244,5.5 -5.5,5.5c-3.03756,0 -5.5,-2.46243 -5.5,-5.5z" fill-opacity="0.06667" fill="#000000" stroke="none"/><path d="M343.33341,314.37093c0,-3.03756 2.46244,-5.5 5.5,-5.5c3.03756,0 5.5,2.46244 5.5,5.5c0,3.03756 -2.46244,5.5 -5.5,5.5c-3.03756,0 -5.5,-2.46244 -5.5,-5.5z" fill-opacity="0.06667" fill="#000000" stroke="none"/><path d="M46.33341,176.37093c0,-3.03757 2.46243,-5.5 5.5,-5.5c3.03757,0 5.5,2.46243 5.5,5.5c0,3.03757 -2.46243,5.5 -5.5,5.5c-3.03757,0 -5.5,-2.46243 -5.5,-5.5z" fill-opacity="0.06667" fill="#000000" stroke="none"/><path d="M104.33341,253.87093c0,-3.03757 2.46243,-5.5 5.5,-5.5c3.03757,0 5.5,2.46243 5.5,5.5c0,3.03756 -2.46243,5.5 -5.5,5.5c-3.03757,0 -5.5,-2.46244 -5.5,-5.5z" fill-opacity="0.06667" fill="#000000" stroke="none"/><path d="M166.33341,128.37093c0,-3.03757 2.46243,-5.5 5.5,-5.5c3.03757,0 5.5,2.46243 5.5,5.5c0,3.03757 -2.46243,5.5 -5.5,5.5c-3.03757,0 -5.5,-2.46243 -5.5,-5.5z" fill-opacity="0.06667" fill="#000000" stroke="none"/><path d="M116.83341,54.87093c0,-3.03757 2.46243,-5.5 5.5,-5.5c3.03757,0 5.5,2.46243 5.5,5.5c0,3.03757 -2.46243,5.5 -5.5,5.5c-3.03757,0 -5.5,-2.46243 -5.5,-5.5z" fill-opacity="0.06667" fill="#000000" stroke="none"/><path d="M238.83341,7.87093c0,-3.03756 2.46243,-5.5 5.5,-5.5c3.03757,0 5.5,2.46243 5.5,5.5c0,3.03757 -2.46243,5.5 -5.5,5.5c-3.03757,0 -5.5,-2.46243 -5.5,-5.5z" fill-opacity="0.06667" fill="#000000" stroke="none"/><path d="M317.8334,57.87093c0,-3.03757 2.46244,-5.5 5.5,-5.5c3.03756,0 5.5,2.46243 5.5,5.5c0,3.03757 -2.46244,5.5 -5.5,5.5c-3.03756,0 -5.5,-2.46243 -5.5,-5.5z" fill-opacity="0.06667" fill="#000000" stroke="none"/><path d="M420.83341,22.87093c0,-3.03757 2.46244,-5.5 5.5,-5.5c3.03756,0 5.5,2.46243 5.5,5.5c0,3.03757 -2.46244,5.5 -5.5,5.5c-3.03756,0 -5.5,-2.46243 -5.5,-5.5z" fill-opacity="0.06667" fill="#000000" stroke="none"/><path d="M452.83341,138.37093c0,-3.03757 2.46244,-5.5 5.5,-5.5c3.03756,0 5.5,2.46243 5.5,5.5c0,3.03757 -2.46244,5.5 -5.5,5.5c-3.03756,0 -5.5,-2.46243 -5.5,-5.5z" fill-opacity="0.06667" fill="#000000" stroke="none"/><path d="M446.33341,231.37093c0,-3.03757 2.46244,-5.5 5.5,-5.5c3.03756,0 5.5,2.46243 5.5,5.5c0,3.03757 -2.46244,5.5 -5.5,5.5c-3.03756,0 -5.5,-2.46243 -5.5,-5.5z" fill-opacity="0.06667" fill="#000000" stroke="none"/><path d="M459.33341,344.37093c0,-3.03756 2.46244,-5.5 5.5,-5.5c3.03756,0 5.5,2.46244 5.5,5.5c0,3.03756 -2.46244,5.5 -5.5,5.5c-3.03756,0 -5.5,-2.46244 -5.5,-5.5z" fill-opacity="0.06667" fill="#000000" stroke="none"/><path d="M217.83341,190.37093c0,-3.03757 2.46243,-5.5 5.5,-5.5c3.03757,0 5.5,2.46243 5.5,5.5c0,3.03757 -2.46243,5.5 -5.5,5.5c-3.03757,0 -5.5,-2.46243 -5.5,-5.5z" fill-opacity="0.06667" fill="#000000" stroke="none"/><path d="M152.83341,337.87093c0,-3.03756 2.46243,-5.5 5.5,-5.5c3.03757,0 5.5,2.46244 5.5,5.5c0,3.03756 -2.46243,5.5 -5.5,5.5c-3.03757,0 -5.5,-2.46244 -5.5,-5.5z" fill-opacity="0.06667" fill="#000000" stroke="none"/><g stroke="none"><path d="M328.59691,119.75563l40.81799,16.72237l26.95171,29.50822l-39.39249,-19.62733z" data-paper-data="{&quot;index&quot;:null}" fill-opacity="0.38039" fill="#ffffff"/><path d="M219.07228,64.71354l40.04583,-18.22995l39.06103,-3.49802l-40.46015,15.31983z" data-paper-data="{&quot;index&quot;:null}" fill-opacity="0.58039" fill="#ffffff"/><path d="M65.71211,267.37339l43.78311,4.36341l35.52843,16.60515l-43.68394,-5.35848z" data-paper-data="{&quot;index&quot;:null}" fill-opacity="0.38039" fill="#ffffff"/><path d="M151.62131,187.56929l-20.04176,-24.16027l-7.4651,-29.26297l19.31959,24.84846z" data-paper-data="{&quot;index&quot;:null}" fill-opacity="0.38039" fill="#ffffff"/><path d="M332.65769,333.27669l-30.92308,-5.39945l-24.65654,-17.43858l30.81946,6.39162z" data-paper-data="{&quot;index&quot;:null}" fill-opacity="0.38039" fill="#ffffff"/><path d="M261.52369,207.9964l-24.07908,20.13924l-29.23255,7.58329l24.77017,-19.41985z" data-paper-data="{&quot;index&quot;:null}" fill-opacity="0.58039" fill="#ffffff"/><path d="M454.33341,288.97185l-14.7126,27.72959l-24.21846,18.04204l17.62387,-25.32374z" data-paper-data="{&quot;index&quot;:null}" fill-opacity="0.58039" fill="#ffffff"/><path d="M434.70953,45.41975l15.62387,27.32374l-24.21846,-18.04204l-14.7126,-27.72959z" data-paper-data="{&quot;index&quot;:null}" fill-opacity="0.38039" fill="#ffffff"/><path d="M97.31108,92.82495l-14.90238,20.97419l-21.59923,12.09125l15.59989,-20.54755z" data-paper-data="{&quot;index&quot;:null}" fill-opacity="0.58039" fill="#ffffff"/><path d="M189.98174,137.87093c0,3.03757 -2.46243,5.5 -5.5,5.5c-3.03757,0 -5.5,-2.46243 -5.5,-5.5c0,-3.03757 2.46243,-5.5 5.5,-5.5c3.03757,0 5.5,2.46243 5.5,5.5z" data-paper-data="{&quot;index&quot;:null}" fill-opacity="0.38039" fill="#ffffff"/><path d="M156.48174,38.87093c0,3.03757 -2.46243,5.5 -5.5,5.5c-3.03757,0 -5.5,-2.46243 -5.5,-5.5c0,-3.03757 2.46243,-5.5 5.5,-5.5c3.03757,0 5.5,2.46243 5.5,5.5z" data-paper-data="{&quot;index&quot;:null}" fill-opacity="0.38039" fill="#ffffff"/><path d="M429.48174,182.87093c0,3.03757 -2.46244,5.5 -5.5,5.5c-3.03756,0 -5.5,-2.46243 -5.5,-5.5c0,-3.03757 2.46244,-5.5 5.5,-5.5c3.03756,0 5.5,2.46243 5.5,5.5z" data-paper-data="{&quot;index&quot;:null}" fill-opacity="0.38039" fill="#ffffff"/><path d="M395.48174,99.37093c0,3.03757 -2.46244,5.5 -5.5,5.5c-3.03756,0 -5.5,-2.46243 -5.5,-5.5c0,-3.03757 2.46244,-5.5 5.5,-5.5c3.03756,0 5.5,2.46243 5.5,5.5z" data-paper-data="{&quot;index&quot;:null}" fill-opacity="0.38039" fill="#ffffff"/><path d="M333.48174,224.87093c0,3.03757 -2.46244,5.5 -5.5,5.5c-3.03756,0 -5.5,-2.46243 -5.5,-5.5c0,-3.03757 2.46244,-5.5 5.5,-5.5c3.03756,0 5.5,2.46243 5.5,5.5z" data-paper-data="{&quot;index&quot;:null}" fill-opacity="0.38039" fill="#ffffff"/><path d="M382.98174,298.37093c0,3.03756 -2.46244,5.5 -5.5,5.5c-3.03756,0 -5.5,-2.46244 -5.5,-5.5c0,-3.03756 2.46244,-5.5 5.5,-5.5c3.03756,0 5.5,2.46244 5.5,5.5z" data-paper-data="{&quot;index&quot;:null}" fill-opacity="0.38039" fill="#ffffff"/><path d="M260.98174,345.37093c0,3.03756 -2.46243,5.5 -5.5,5.5c-3.03757,0 -5.5,-2.46244 -5.5,-5.5c0,-3.03756 2.46243,-5.5 5.5,-5.5c3.03757,0 5.5,2.46244 5.5,5.5z" data-paper-data="{&quot;index&quot;:null}" fill-opacity="0.38039" fill="#ffffff"/><path d="M181.98174,295.37093c0,3.03756 -2.46243,5.5 -5.5,5.5c-3.03757,0 -5.5,-2.46244 -5.5,-5.5c0,-3.03756 2.46243,-5.5 5.5,-5.5c3.03757,0 5.5,2.46244 5.5,5.5z" data-paper-data="{&quot;index&quot;:null}" fill-opacity="0.38039" fill="#ffffff"/><path d="M78.98174,330.37093c0,3.03756 -2.46243,5.5 -5.5,5.5c-3.03757,0 -5.5,-2.46244 -5.5,-5.5c0,-3.03756 2.46243,-5.5 5.5,-5.5c3.03757,0 5.5,2.46244 5.5,5.5z" data-paper-data="{&quot;index&quot;:null}" fill-opacity="0.38039" fill="#ffffff"/><path d="M107.98174,142.87093c0,3.03757 -2.46243,5.5 -5.5,5.5c-3.03757,0 -5.5,-2.46243 -5.5,-5.5c0,-3.03757 2.46243,-5.5 5.5,-5.5c3.03757,0 5.5,2.46243 5.5,5.5z" data-paper-data="{&quot;index&quot;:null}" fill-opacity="0.38039" fill="#ffffff"/><path d="M43.48174,237.87093c0,3.03757 -2.46243,5.5 -5.5,5.5c-3.03757,0 -5.5,-2.46243 -5.5,-5.5c0,-3.03757 2.46243,-5.5 5.5,-5.5c3.03757,0 5.5,2.46243 5.5,5.5z" data-paper-data="{&quot;index&quot;:null}" fill-opacity="0.38039" fill="#ffffff"/><path d="M40.48173,8.87093c0,3.03757 -2.46243,5.5 -5.5,5.5c-3.03757,0 -5.5,-2.46243 -5.5,-5.5c0,-3.03756 2.46243,-5.5 5.5,-5.5c3.03757,0 5.5,2.46243 5.5,5.5z" data-paper-data="{&quot;index&quot;:null}" fill-opacity="0.38039" fill="#ffffff"/><path d="M281.98174,162.87093c0,3.03757 -2.46244,5.5 -5.5,5.5c-3.03756,0 -5.5,-2.46243 -5.5,-5.5c0,-3.03757 2.46244,-5.5 5.5,-5.5c3.03756,0 5.5,2.46243 5.5,5.5z" data-paper-data="{&quot;index&quot;:null}" fill-opacity="0.38039" fill="#ffffff"/><path d="M346.98174,15.37093c0,3.03757 -2.46244,5.5 -5.5,5.5c-3.03756,0 -5.5,-2.46243 -5.5,-5.5c0,-3.03757 2.46244,-5.5 5.5,-5.5c3.03756,0 5.5,2.46243 5.5,5.5z" data-paper-data="{&quot;index&quot;:null}" fill-opacity="0.38039" fill="#ffffff"/></g></g></g></svg>