<svg version="1.1" xmlns="http://www.w3.org/2000/svg" xmlns:xlink="http://www.w3.org/1999/xlink" width="224.13135" height="224.13135" viewBox="0,0,224.13135,224.13135"><defs><radialGradient cx="230.79937" cy="183.1845" r="49.81448" gradientUnits="userSpaceOnUse" id="color-1"><stop offset="0" stop-color="#ff0000"/><stop offset="1" stop-color="#ff0000" stop-opacity="0"/></radialGradient><radialGradient cx="196.71678" cy="181.69642" r="37.4483" gradientUnits="userSpaceOnUse" id="color-2"><stop offset="0" stop-color="#000000"/><stop offset="1" stop-color="#ff2e54"/></radialGradient><radialGradient cx="198.1553" cy="185.06356" r="37.26027" gradientUnits="userSpaceOnUse" id="color-3"><stop offset="0" stop-color="#000000"/><stop offset="1" stop-color="#ff2e54"/></radialGradient><linearGradient x1="253.12666" y1="181.92332" x2="209.7416" y2="180.74684" gradientUnits="userSpaceOnUse" id="color-4"><stop offset="0" stop-color="#000000"/><stop offset="1" stop-color="#ff365a"/></linearGradient><linearGradient x1="324.53308" y1="181.84405" x2="238.36218" y2="179.50733" gradientUnits="userSpaceOnUse" id="color-5"><stop offset="0" stop-color="#ff4949"/><stop offset="1" stop-color="#cc0025"/></linearGradient><linearGradient x1="321.98994" y1="168.92215" x2="243.41464" y2="167.28612" gradientUnits="userSpaceOnUse" id="color-6"><stop offset="0" stop-color="#ffffff" stop-opacity="0.78431"/><stop offset="1" stop-color="#e30000"/></linearGradient><radialGradient cx="287.59485" cy="167.47596" r="23.77378" gradientUnits="userSpaceOnUse" id="color-7"><stop offset="0" stop-color="#ff5656"/><stop offset="1" stop-color="#ff5656" stop-opacity="0"/></radialGradient><radialGradient cx="278.59171" cy="162.64047" r="19.12627" gradientUnits="userSpaceOnUse" id="color-8"><stop offset="0" stop-color="#ff5656"/><stop offset="1" stop-color="#ff5656" stop-opacity="0"/></radialGradient><radialGradient cx="279.50584" cy="171.86038" r="17.33877" gradientUnits="userSpaceOnUse" id="color-9"><stop offset="0" stop-color="#ff6d6d"/><stop offset="1" stop-color="#ff6d6d" stop-opacity="0"/></radialGradient><radialGradient cx="289.81032" cy="157.95311" r="9.83127" gradientUnits="userSpaceOnUse" id="color-10"><stop offset="0" stop-color="#ff4e4e"/><stop offset="1" stop-color="#ff4e4e" stop-opacity="0"/></radialGradient><radialGradient cx="291.36185" cy="177.2819" r="9.83127" gradientUnits="userSpaceOnUse" id="color-11"><stop offset="0" stop-color="#ff4e4e"/><stop offset="1" stop-color="#ff4e4e" stop-opacity="0"/></radialGradient><radialGradient cx="302.59647" cy="161.96762" r="11.83036" gradientUnits="userSpaceOnUse" id="color-12"><stop offset="0" stop-color="#ff7e7e"/><stop offset="1" stop-color="#ff7e7e" stop-opacity="0"/></radialGradient><radialGradient cx="306.63607" cy="167.73073" r="7.97612" gradientUnits="userSpaceOnUse" id="color-13"><stop offset="0" stop-color="#ff8989"/><stop offset="1" stop-color="#ff8989" stop-opacity="0"/></radialGradient><radialGradient cx="298.033" cy="171.69426" r="7.97612" gradientUnits="userSpaceOnUse" id="color-14"><stop offset="0" stop-color="#ff6060"/><stop offset="1" stop-color="#ff6060" stop-opacity="0"/></radialGradient><radialGradient cx="298.7748" cy="161.36209" r="7.40798" gradientUnits="userSpaceOnUse" id="color-15"><stop offset="0" stop-color="#ff7e7e"/><stop offset="1" stop-color="#ff7e7e" stop-opacity="0"/></radialGradient><radialGradient cx="299.19327" cy="171.11595" r="12.62361" gradientUnits="userSpaceOnUse" id="color-16"><stop offset="0" stop-color="#ff6060"/><stop offset="1" stop-color="#ff6060" stop-opacity="0"/></radialGradient><radialGradient cx="304.14853" cy="162.84263" r="4.91254" gradientUnits="userSpaceOnUse" id="color-17"><stop offset="0" stop-color="#ffb5b5"/><stop offset="1" stop-color="#ffb5b5" stop-opacity="0"/></radialGradient><radialGradient cx="299.39156" cy="164.28677" r="11.83035" gradientUnits="userSpaceOnUse" id="color-18"><stop offset="0" stop-color="#ff6060"/><stop offset="1" stop-color="#ff6060" stop-opacity="0"/></radialGradient><radialGradient cx="295.11225" cy="170.00709" r="7.40798" gradientUnits="userSpaceOnUse" id="color-19"><stop offset="0" stop-color="#ff6060"/><stop offset="1" stop-color="#ff6060" stop-opacity="0"/></radialGradient><radialGradient cx="225.7953" cy="183.23436" r="49.81448" gradientUnits="userSpaceOnUse" id="color-20"><stop offset="0" stop-color="#ff0000"/><stop offset="1" stop-color="#ff0000" stop-opacity="0"/></radialGradient><linearGradient x1="226.70544" y1="136.61937" x2="226.70544" y2="202.61167" gradientUnits="userSpaceOnUse" id="color-21"><stop offset="0" stop-color="#ff002e" stop-opacity="0"/><stop offset="1" stop-color="#ff002e"/></linearGradient><linearGradient x1="296.31324" y1="140.96358" x2="236.52458" y2="183.95656" gradientUnits="userSpaceOnUse" id="color-22"><stop offset="0" stop-color="#ffffff" stop-opacity="0.50196"/><stop offset="1" stop-color="#ffffff" stop-opacity="0"/></linearGradient><linearGradient x1="203.11436" y1="148.89905" x2="203.11436" y2="225.07766" gradientUnits="userSpaceOnUse" id="color-23"><stop offset="0" stop-color="#ffffff" stop-opacity="0.50196"/><stop offset="1" stop-color="#ffffff" stop-opacity="0"/></linearGradient><linearGradient x1="240.40054" y1="143.50417" x2="253.23554" y2="221.5873" gradientUnits="userSpaceOnUse" id="color-24"><stop offset="0" stop-color="#ff002e"/><stop offset="1" stop-color="#ff002e" stop-opacity="0"/></linearGradient><linearGradient x1="288.0153" y1="143.14619" x2="288.0153" y2="221.81508" gradientUnits="userSpaceOnUse" id="color-25"><stop offset="0" stop-color="#ff002e" stop-opacity="0"/><stop offset="1" stop-color="#ff002e"/></linearGradient><linearGradient x1="215.44969" y1="166.61818" x2="244.21446" y2="231.76475" gradientUnits="userSpaceOnUse" id="color-26"><stop offset="0" stop-color="#ffffff" stop-opacity="0"/><stop offset="1" stop-color="#ffffff" stop-opacity="0.50196"/></linearGradient><linearGradient x1="190.341" y1="136.1023" x2="190.341" y2="230.48915" gradientUnits="userSpaceOnUse" id="color-27"><stop offset="0" stop-color="#ff002e" stop-opacity="0"/><stop offset="1" stop-color="#ff002e"/></linearGradient></defs><g transform="translate(-127.93433,-67.93433)"><g data-paper-data="{&quot;isPaintingLayer&quot;:true}" fill-rule="nonzero" stroke-width="0" stroke-linecap="butt" stroke-linejoin="miter" stroke-miterlimit="10" stroke-dasharray="" stroke-dashoffset="0" style="mix-blend-mode: normal"><path d="M181.00319,181.83416c0.74577,-27.50167 23.64484,-49.19161 51.14651,-48.44584c27.50167,0.74577 49.19162,23.64484 48.44585,51.14651c-0.74577,27.50167 -23.64485,49.19161 -51.14652,48.44584c-27.50167,-0.74577 -49.19161,-23.64484 -48.44584,-51.14651z" fill="url(#color-1)" stroke="none"/><path d="M174.24271,186.66015c5.54594,-1.30948 4.09664,-8.02679 13.67613,-15.82868c25.4187,-20.70195 46.24624,9.55084 46.24624,9.55084l-8.61467,19.42259c0,0 -16.6649,-16.74843 -27.62967,-12.63263c-8.24891,3.09637 -4.6447,8.14175 -24.2481,9.43193c-11.38751,0.74945 -16.26872,-15.04043 -13.76181,-16.41909c4.90066,-2.6951 8.78595,7.78452 14.3319,6.47505z" data-paper-data="{&quot;index&quot;:null}" fill="url(#color-2)" stroke="#000000"/><path d="M161.83373,193.81544c-2.66605,-1.02946 0.10006,-17.24197 11.4868,-18.00198c19.60208,-1.30836 16.69153,4.1412 25.27503,6.10857c11.40955,2.61511 25.73091,-16.09381 25.73091,-16.09381l11.0891,18.01805c0,0 -16.67516,32.57311 -44.58991,15.5056c-10.52017,-6.4322 -9.96522,-13.24675 -15.63476,-13.80792c-5.66954,-0.56117 -8.14542,10.28394 -13.35718,8.27149z" data-paper-data="{&quot;index&quot;:null}" fill="url(#color-3)" stroke="#000000"/><path d="M221.25338,151.41863c0,0 6.78992,13.36475 10.90273,13.80371c7.38697,0.78842 21.46579,-1.56192 21.46579,-1.56192l-0.99048,36.5258c0,0 -14.90058,-3.53975 -22.16677,-1.30961c-6.08678,1.86816 -9.76693,13.20085 -9.76693,13.20085c0,0 -8.26435,-5.14736 -6.67195,-16.36181c0.75627,-5.32606 9.69187,-7.78696 9.69187,-7.78696l-18.79231,-7.47175l18.09204,-6.00595c0,0 -7.23095,-2.74326 -8.34392,-10.37531c-0.92936,-6.37296 6.57992,-12.65705 6.57992,-12.65705z" fill="url(#color-4)" stroke="#ff0000"/><path d="M324.5129,182.57276c-0.36937,11.33013 -8.20765,17.48257 -17.86359,23.39791c-14.58739,8.93641 -37.27409,6.93374 -47.09426,1.17018c-10.71636,-6.28954 -13.81567,-13.33224 -13.81567,-13.33224l-7.36414,-14.78341c0,0 3.65208,-8.93237 7.8967,-13.95744c4.24462,-5.02508 6.01965,-7.57281 14.02792,-11.73659c7.52491,-3.91247 28.74086,-8.07265 47.59182,3.4562c14.70694,8.99445 16.84024,19.06663 16.62121,25.7854z" fill="url(#color-5)" stroke="#000000"/><path d="M252.47607,161.11952c0,0 8.50533,0.03459 13.23592,0.57573c5.49654,0.62875 17.79513,2.87246 17.79513,2.87246l25.33521,1.76692l-31.45761,-8.80251l32.53467,4.86864l-13.1425,-7.61635c0,0 11.2845,3.06973 15.93314,5.67004c3.21763,1.79984 6.78015,5.1971 6.28577,8.27051c-0.4944,3.0734 -3.56828,5.86057 -8.10227,8.17127c-3.96472,2.02057 -15.1139,4.68856 -15.1139,4.68856l13.58143,-7.55796l-31.10968,4.03096l31.19218,-8.11015l-26.23412,1.04457c0,0 -12.27408,1.57034 -17.58157,1.87174c-5.13721,0.29173 -13.77629,0.1107 -13.77629,0.1107c0,0 -8.44118,-4.02714 -8.42334,-6.06722c0.01734,-1.98018 9.04783,-5.78791 9.04783,-5.78791z" fill="url(#color-6)" stroke="#ff0000"/><g data-paper-data="{&quot;index&quot;:null}" stroke="none"><path d="M287.93419,157.86752c13.12509,0.27328 23.61313,4.79666 23.42571,10.10326c-0.18741,5.3066 -10.97931,9.3869 -24.1044,9.11362c-13.12509,-0.27328 -23.61313,-4.79665 -23.42571,-10.10326c0.18741,-5.3066 10.97931,-9.3869 24.10439,-9.11362z" fill="url(#color-7)"/><path d="M278.86471,154.91037c10.55928,0.21986 18.99701,3.85896 18.84624,8.12819c-0.15078,4.26922 -8.83298,7.55186 -19.39226,7.33201c-10.55928,-0.21986 -18.99702,-3.85896 -18.84625,-8.12818c0.15078,-4.26922 8.83298,-7.55187 19.39226,-7.33201z" fill="url(#color-8)"/><path d="M279.75333,164.85273c9.57243,0.19931 17.22159,3.49831 17.08491,7.36854c-0.13668,3.87023 -8.00747,6.84609 -17.57989,6.64678c-9.57243,-0.19931 -17.22161,-3.49832 -17.08493,-7.36854c0.13668,-3.87023 8.00747,-6.84609 17.57989,-6.64678z" fill="url(#color-9)"/><path d="M289.95065,153.97969c5.42766,0.11301 9.76481,1.98359 9.68731,4.17804c-0.0775,2.19446 -4.54031,3.8818 -9.96799,3.76879c-5.42766,-0.11301 -9.76483,-1.98358 -9.68733,-4.17804c0.0775,-2.19446 4.54032,-3.8818 9.96799,-3.76879z" fill="url(#color-10)"/><path d="M291.50218,173.30849c5.42766,0.11301 9.76483,1.98358 9.68733,4.17804c-0.0775,2.19446 -4.54032,3.8818 -9.96799,3.76879c-5.42766,-0.11301 -9.76483,-1.98358 -9.68733,-4.17803c0.0775,-2.19446 4.54032,-3.8818 9.96799,-3.76879z" fill="url(#color-11)"/><path d="M302.76534,157.18624c6.53134,0.13599 11.7504,2.38692 11.65714,5.0276c-0.09326,2.64068 -5.46353,4.67112 -11.99485,4.53513c-6.53134,-0.13599 -11.7504,-2.38692 -11.65714,-5.0276c0.09326,-2.64068 5.46355,-4.67112 11.99487,-4.53513z" fill="url(#color-12)"/><path d="M306.74992,164.50711c4.40348,0.09169 7.92221,1.60928 7.85933,3.38965c-0.06288,1.78037 -3.68356,3.14931 -8.08703,3.05763c-4.40348,-0.09169 -7.92222,-1.60928 -7.85934,-3.38965c0.06288,-1.78037 3.68356,-3.14931 8.08704,-3.05763z" fill="url(#color-13)"/><path d="M298.14685,168.47063c4.40348,0.09169 7.92221,1.60928 7.85933,3.38965c-0.06288,1.78037 -3.68356,3.14931 -8.08703,3.05763c-4.40348,-0.09169 -7.92222,-1.60928 -7.85934,-3.38965c0.06288,-1.78037 3.68356,-3.14931 8.08704,-3.05763z" fill="url(#color-14)"/><path d="M298.88054,158.36806c4.08982,0.08515 7.35792,1.49465 7.29952,3.14821c-0.0584,1.65355 -3.42117,2.92498 -7.511,2.83983c-4.08982,-0.08515 -7.35793,-1.49465 -7.29953,-3.14821c0.0584,-1.65355 3.42118,-2.92498 7.51101,-2.83983z" fill="url(#color-15)"/><path d="M299.37345,166.01397c6.96928,0.14511 12.5383,2.54697 12.43878,5.36472c-0.09951,2.81774 -5.82989,4.98434 -12.79916,4.83924c-6.96929,-0.14511 -12.53832,-2.54697 -12.4388,-5.36472c0.09951,-2.81774 5.82989,-4.98434 12.79918,-4.83924z" fill="url(#color-16)"/><path d="M304.21865,160.85717c2.71213,0.05647 4.87934,0.99117 4.84061,2.08771c-0.03873,1.09654 -2.26872,1.93968 -4.98086,1.88321c-2.71213,-0.05647 -4.87936,-0.99117 -4.84063,-2.08771c0.03873,-1.09654 2.26873,-1.93968 4.98088,-1.88321z" fill="url(#color-17)"/><path d="M299.56042,159.50541c6.53134,0.13599 11.7504,2.38692 11.65714,5.0276c-0.09326,2.64068 -5.46353,4.67112 -11.99485,4.53513c-6.53134,-0.13599 -11.75041,-2.38692 -11.65715,-5.0276c0.09326,-2.64068 5.46357,-4.67112 11.99488,-4.53513z" fill="url(#color-18)"/><path d="M295.21799,167.01308c4.08982,0.08515 7.35792,1.49465 7.29952,3.14821c-0.0584,1.65355 -3.42117,2.92498 -7.511,2.83983c-4.08982,-0.08515 -7.35793,-1.49465 -7.29953,-3.14821c0.0584,-1.65355 3.42118,-2.92498 7.51101,-2.83983z" fill="url(#color-19)"/></g><path d="M127.93433,292.06568v-224.13135h224.13135v224.13135z" data-paper-data="{&quot;index&quot;:null}" fill="none" stroke="none"/><g><path d="M175.98082,183.23436c0,-27.51178 22.3027,-49.81448 49.81448,-49.81448c27.51178,0 49.81449,22.3027 49.81449,49.81448c0,27.51178 -22.30271,49.81448 -49.81449,49.81448c-27.51178,0 -49.81448,-22.3027 -49.81448,-49.81448z" fill="url(#color-20)" stroke="none"/><path d="M207.85106,202.61167c0,0 -6.92202,-25.72235 2.0311,-41.25074c13.47569,-23.3724 38.23034,-24.74156 38.23034,-24.74156c0,0 -17.81789,14.08263 -25.143,27.05039c-7.32512,12.96777 -15.11843,38.9419 -15.11843,38.9419z" fill="url(#color-21)" stroke="#000000"/><path d="M247.38407,196.10506c0,0 -5.13286,-24.37764 4.45093,-38.95438c14.42493,-21.94003 38.41501,-22.97004 38.41501,-22.97004c0,0 -18.05792,13.11628 -25.91491,25.29095c-7.85699,12.17467 -16.95102,36.63347 -16.95102,36.63347z" fill="url(#color-22)" stroke="#000000"/><path d="M204.2195,189.87114c0.54843,14.69924 8.59644,35.20652 8.59644,35.20652c0,0 -18.17798,-12.60124 -19.37295,-39.22025c-0.79392,-17.6854 14.32711,-36.95836 14.32711,-36.95836c0,0 -4.09903,26.27285 -3.55061,40.97208z" data-paper-data="{&quot;index&quot;:null}" fill="url(#color-23)" stroke="#000000"/><path d="M247.52035,179.63704c-0.58525,17.09909 8.42337,41.50509 8.42337,41.50509c0,0 -23.38732,-15.9973 -22.59975,-46.97751c0.52325,-20.58293 19.85613,-32.7644 19.85613,-32.7644c0,0 -5.09451,21.13772 -5.67976,38.23682z" data-paper-data="{&quot;index&quot;:null}" fill="url(#color-24)" stroke="#000000"/><path d="M280.69563,143.14619c0,0 16.43612,19.16639 16.41305,37.41297c-0.03472,27.46367 -18.18679,41.25592 -18.18679,41.25592c0,0 7.36593,-21.47817 7.27036,-36.63883c-0.09558,-15.16066 -5.49663,-42.03005 -5.49663,-42.03005z" fill="url(#color-25)" stroke="#000000"/><path d="M232.14344,201.42051c6.32488,12.39892 23.8603,27.6922 23.8603,27.6922c0,0 -26.60326,-5.75473 -38.29847,-28.15254c-7.77018,-14.88087 2.88394,-35.49814 2.88394,-35.49814c0,0 5.22934,23.55957 11.55423,35.95849z" data-paper-data="{&quot;index&quot;:null}" fill="url(#color-26)" stroke="#000000"/><path d="M199.90842,230.48915c0,0 -13.83105,-17.81533 -17.37261,-39.58829c-5.33054,-32.77137 3.13187,-54.79856 3.13187,-54.79856c0,0 -0.33916,27.88296 2.67392,45.93835c3.01308,18.05539 11.56681,48.44849 11.56681,48.44849z" fill="url(#color-27)" stroke="#000000"/></g></g></g></svg>