<svg version="1.1" xmlns="http://www.w3.org/2000/svg" xmlns:xlink="http://www.w3.org/1999/xlink" width="157.63716" height="144.99118" viewBox="0,0,157.63716,144.99118"><defs><linearGradient x1="253.84809" y1="194.97147" x2="304.89835" y2="194.97147" gradientUnits="userSpaceOnUse" id="color-1"><stop offset="0" stop-color="#ffffff"/><stop offset="1" stop-color="#dcd0e8"/></linearGradient><linearGradient x1="273.75244" y1="153.61991" x2="323.10521" y2="142.41189" gradientUnits="userSpaceOnUse" id="color-2"><stop offset="0" stop-color="#dcd0e8"/><stop offset="1" stop-color="#ffffff"/></linearGradient><linearGradient x1="166.4437" y1="205.37181" x2="198.04969" y2="205.37181" gradientUnits="userSpaceOnUse" id="color-3"><stop offset="0" stop-color="#ffffff"/><stop offset="1" stop-color="#dcd0e8"/></linearGradient><linearGradient x1="205.34574" y1="207.85835" x2="311.47336" y2="171.3578" gradientUnits="userSpaceOnUse" id="color-4"><stop offset="0" stop-color="#f6f3f9"/><stop offset="1" stop-color="#e7def0"/></linearGradient><linearGradient x1="208.92373" y1="215.94631" x2="242.04611" y2="215.94631" gradientUnits="userSpaceOnUse" id="color-5"><stop offset="0" stop-color="#ffffff"/><stop offset="1" stop-color="#eae2f1"/></linearGradient><linearGradient x1="256.819" y1="150.21818" x2="277.63541" y2="168.14677" gradientUnits="userSpaceOnUse" id="color-6"><stop offset="0" stop-color="#636363"/><stop offset="1" stop-color="#000000"/></linearGradient><linearGradient x1="279.66037" y1="202.40475" x2="327.36639" y2="202.40475" gradientUnits="userSpaceOnUse" id="color-7"><stop offset="0" stop-color="#ffffff"/><stop offset="1" stop-color="#dcd0e8"/></linearGradient><linearGradient x1="217.34446" y1="161.43106" x2="217.34446" y2="195.54992" gradientUnits="userSpaceOnUse" id="color-8"><stop offset="0" stop-color="#000000"/><stop offset="1" stop-color="#636363"/></linearGradient><linearGradient x1="209.05745" y1="175.83079" x2="253.57822" y2="220.35155" gradientUnits="userSpaceOnUse" id="color-9"><stop offset="0" stop-color="#ffffff"/><stop offset="1" stop-color="#e9e0f2"/></linearGradient><linearGradient x1="214.728" y1="198.34037" x2="214.728" y2="202.88955" gradientUnits="userSpaceOnUse" id="color-10"><stop offset="0" stop-color="#ffffff"/><stop offset="1" stop-color="#000000"/></linearGradient><linearGradient x1="236.36043" y1="181.15575" x2="236.36043" y2="199.11983" gradientUnits="userSpaceOnUse" id="color-11"><stop offset="0" stop-color="#000000"/><stop offset="1" stop-color="#636363"/></linearGradient><linearGradient x1="261.73482" y1="165.2425" x2="267.46275" y2="197.87703" gradientUnits="userSpaceOnUse" id="color-12"><stop offset="0" stop-color="#ffffff"/><stop offset="1" stop-color="#dcd0e8"/></linearGradient><linearGradient x1="267.99612" y1="169.79866" x2="270.2585" y2="182.68842" gradientUnits="userSpaceOnUse" id="color-13"><stop offset="0" stop-color="#000000"/><stop offset="1" stop-color="#000000" stop-opacity="0"/></linearGradient><linearGradient x1="268.07034" y1="183.18128" x2="268.98399" y2="188.38676" gradientUnits="userSpaceOnUse" id="color-14"><stop offset="0" stop-color="#000000"/><stop offset="1" stop-color="#000000" stop-opacity="0"/></linearGradient><linearGradient x1="274.89713" y1="181.90129" x2="276.41989" y2="190.57709" gradientUnits="userSpaceOnUse" id="color-15"><stop offset="0" stop-color="#000000"/><stop offset="1" stop-color="#000000" stop-opacity="0"/></linearGradient><linearGradient x1="275.75768" y1="174.49243" x2="276.88887" y2="180.93731" gradientUnits="userSpaceOnUse" id="color-16"><stop offset="0" stop-color="#000000"/><stop offset="1" stop-color="#000000" stop-opacity="0"/></linearGradient></defs><g transform="translate(-169.72923,-109.26977)"><g data-paper-data="{&quot;isPaintingLayer&quot;:true}" fill-rule="nonzero" stroke-linejoin="miter" stroke-miterlimit="10" stroke-dasharray="" stroke-dashoffset="0" style="mix-blend-mode: normal"><path d="M261.85924,227.84868l-4.64173,-5.6031l2.38721,-6.23217l14.5402,-5.23693l-16.42774,-7.32595l-3.86909,-13.39185l3.46595,-19.20559l15.92917,-8.75882l20.86944,5.46285l10.7857,19.24208l-0.51855,16.99706l-5.9752,7.80301l2.44261,6.9365l-23.79771,8.75995z" fill="url(#color-1)" stroke="none" stroke-width="0" stroke-linecap="butt"/><path d="M294.47084,141.63207l5.1794,-15.46984l2.12663,-16.89246l11.10479,19.15758l-1.07142,17.99358l-10.02185,19.43999l-10.41524,3.14075l-9.60708,-7.69784z" data-paper-data="{&quot;index&quot;:null}" fill="url(#color-2)" stroke="none" stroke-width="0" stroke-linecap="butt"/><path d="M171.75108,242.61353l-2.02185,-8.84563l4.80953,-7.04076l23.39556,-6.48475l57.64054,-26.07595l15.58414,5.95253l-31.25701,24.97164l-34.0973,15.30915l-21.17106,4.05546z" fill="url(#color-3)" stroke="none" stroke-width="0" stroke-linecap="butt"/><path d="M270.11957,219.837l-30.06684,3.63002l-35.86942,-18.98852l29.01724,-29.96638l31.41045,-12.67814l25.41293,-6.01899l8.3517,6.40423l14.72513,13.87037l-15.58747,31.66536z" fill="url(#color-4)" stroke="none" stroke-width="0" stroke-linecap="butt"/><path d="M209.07129,252.54771l-0.77304,-8.10227l8.82781,-10.0354l23.67353,-7.97593l-16.56739,-20.74016l23.36858,-4.73892l23.97562,24.92568l-7.85773,13.43509l-20.85542,11.33431l-9.87182,3.61084z" fill="url(#color-5)" stroke="none" stroke-width="0" stroke-linecap="butt"/><path d="M260.41508,169.12864l-8.43694,-2.9849l12.23042,-5.52518l21.25702,-4.38755l-10.22681,9.90869z" fill="url(#color-6)" stroke="none" stroke-width="0" stroke-linecap="butt"/><path d="M287.14672,235.61767l-4.33766,-5.6031l2.23083,-6.23217l13.58769,-5.23693l-15.35158,-7.32595l-3.61563,-13.39185l3.2389,-19.20559l14.88567,-11.01433l19.50231,7.71836l10.07914,19.24208l-0.48458,16.99706l-5.58377,7.80301l2.2826,6.9365l-21.06778,11.26608z" fill="url(#color-7)" stroke="none" stroke-width="0" stroke-linecap="butt"/><path d="M207.1115,195.54992l-8.34557,-12.47042l6.70281,-21.64843l18.49952,0.8455l11.95472,6.73646l-3.79098,22.7459z" fill="url(#color-8)" stroke="none" stroke-width="0" stroke-linecap="butt"/><path d="M203.54907,223.53191l-5.86622,-13.99685l3.50227,-11.78184l7.6577,-2.76257l-1.46915,-13.61349l7.71355,-11.57615l21.49777,-8.54659l21.92411,6.1583l13.90891,16.19356l-7.03146,24.93694l-10.2648,8.41767l-17.0313,9.67442l-16.87274,1.37244z" fill="url(#color-9)" stroke="none" stroke-width="0" stroke-linecap="butt"/><path d="M222.12042,197.96127l2.27459,9.47746l-9.85656,2.65369l-9.09836,-2.65369l2.27459,-9.47746z" data-paper-data="{&quot;index&quot;:null}" fill="#000000" stroke="none" stroke-width="0" stroke-linecap="butt"/><path d="M208.47288,202.88955l0.7582,-4.54918h10.99385l-0.7582,4.54918z" fill="url(#color-10)" stroke="none" stroke-width="0" stroke-linecap="butt"/><path d="M232.29169,199.11983l-5.70173,-10.13703l8.92779,-7.82706l10.61315,3.82221l-1.53051,11.74788z" data-paper-data="{&quot;index&quot;:null}" fill="url(#color-11)" stroke="none" stroke-width="0" stroke-linecap="butt"/><path d="M221.49727,191.57686l-3.32223,3.49852l-4.99002,-0.3812l-0.79486,-5.94169l5.31701,-2.06334z" data-paper-data="{&quot;index&quot;:null}" fill="#000000" stroke="none" stroke-width="0" stroke-linecap="butt"/><path d="M215.04391,214.89434l-0.50546,-7.07651" fill="none" stroke="#000000" stroke-width="1.5" stroke-linecap="round"/><path d="M254.55414,196.91939l-7.19788,-21.5699l9.19073,-8.93845l18.10299,-4.6819l7.95479,20.02278l-5.73528,14.00635z" data-paper-data="{&quot;index&quot;:null}" fill="url(#color-12)" stroke="none" stroke-width="0" stroke-linecap="butt"/><path d="M264.99094,177.94827l3.1146,-8.17425l5.07115,4.26904l-3.2464,8.71929z" data-paper-data="{&quot;index&quot;:null}" fill="url(#color-13)" stroke="none" stroke-width="0" stroke-linecap="butt"/><path d="M266.24881,189.00284l1.05569,-5.64906l4.41469,4.4169z" fill="url(#color-14)" stroke="none" stroke-width="0" stroke-linecap="butt"/><path d="M272.72242,190.89456l-0.60654,-6.04769l3.98423,0.43574l2.40749,-4.19454l0.55823,6.08523l-2.09888,3.28057z" fill="url(#color-15)" stroke="none" stroke-width="0" stroke-linecap="butt"/><path d="M274.04427,181.57803l3.02631,-7.38131l2.35834,4.36472z" fill="url(#color-16)" stroke="none" stroke-width="0" stroke-linecap="butt"/></g></g></svg>