<svg version="1.1" xmlns="http://www.w3.org/2000/svg" xmlns:xlink="http://www.w3.org/1999/xlink" width="325.205" height="378.63133" viewBox="0,0,325.205,378.63133"><defs><linearGradient x1="263.85838" y1="234.48235" x2="340.52325" y2="234.48235" gradientUnits="userSpaceOnUse" id="color-1"><stop offset="0" stop-color="#ff5c00"/><stop offset="1" stop-color="#de3b00"/></linearGradient><linearGradient x1="406.10511" y1="216.8424" x2="407.46453" y2="252.45514" gradientUnits="userSpaceOnUse" id="color-2"><stop offset="0" stop-color="#d23a00" stop-opacity="0"/><stop offset="1" stop-color="#d23a00"/></linearGradient><linearGradient x1="312.12665" y1="265.856" x2="312.12665" y2="421.123" gradientUnits="userSpaceOnUse" id="color-3"><stop offset="0" stop-color="#60ff19"/><stop offset="1" stop-color="#199a0f"/></linearGradient></defs><g transform="translate(-222.461,-52.55256)"><g data-paper-data="{&quot;isPaintingLayer&quot;:true}" fill-rule="nonzero" stroke="none" stroke-width="0" stroke-linecap="butt" stroke-linejoin="miter" stroke-miterlimit="10" stroke-dasharray="" stroke-dashoffset="0" style="mix-blend-mode: normal"><path d="" fill="#2477db"/><path d="" fill="#f3f3f3"/><path d="" fill="#f3f3f3"/><path d="" fill="#b3d0d7"/><path d="" fill="#88acb5"/><path d="" fill="#88acb5"/><g><g><g><g><path d="M231.91436,408.69675l167.73514,-231.38063l91.47876,58.58l25.58975,-36.88509l-23.69088,-15.51138l12.38085,-19.19217l41.63978,26.07844l-51.64202,78.20144l-91.22898,-55.41793l-149.61464,211.03654c0,0 -13.93255,1.37663 -17.70718,-1.20825c-3.77463,-2.58488 -4.94055,-14.30094 -4.94055,-14.30094z" fill="#323232"/><path d="M246.11369,425.8587l154.12048,-236.71763c0,0 1.22211,0.63979 2.81668,1.47462c8.9788,4.70059 89.30432,46.75268 89.30432,46.75268c0,0 46.85832,-51.83846 54.4213,-45.69339c9.07558,7.37412 -54.28555,72.42693 -54.28555,72.42693l-88.14466,-45.0569l-79.86974,108.23123z" fill="#141414"/><path d="M329.55443,66.69575c5.01498,-7.26677 14.95756,-17.33851 24.13336,-11.50182c22.73039,14.45864 125.57751,68.12084 166.0512,93.86581c10.83547,6.89237 4.37174,31.23178 -0.58282,38.41099c-2.97295,4.30783 -20.75588,18.48508 -29.95003,12.63679c-39.23985,-24.96014 -141.76042,-91.62262 -163.93109,-105.72519c-7.99068,-5.08282 -0.68915,-20.48705 4.27938,-27.68652z" fill="#ff7000"/><path d="M404.6904,109.98668c2.11861,1.99765 2.25689,8.6868 9.61948,14.37623c8.1097,6.26676 27.74747,6.79825 37.54563,17.16519c10.47489,11.08298 25.50947,11.58871 37.18574,16.94431c14.5499,6.67366 29.42879,-4.51118 35.99062,1.63746c7.23851,6.78268 -29.39258,27.76581 -30.69574,29.08143c-5.16868,5.21808 -95.10814,-47.81027 -108.36305,-60.30832c-13.25496,-12.49805 -69.70956,-42.86816 -64.54088,-48.08624c3.1372,-3.16718 14.8484,-25.55363 36.17701,-18.78633c0.43834,0.13908 41.21096,22.92041 41.63695,24.95546c0.24814,1.18549 -24.74545,-12.32596 -34.67151,-17.12582c-9.98781,-4.82971 -4.91322,-0.94949 -6.22194,-0.22069c-4.25577,2.36995 -16.86239,-0.28523 -15.47853,2.63903c3.87139,8.18075 30.12279,0.89585 32.40075,1.88767c9.44128,4.11063 25.76128,32.39507 29.41554,35.84062z" fill="#ff4600"/><path d="M422.78753,144.38189c3.67914,2.29923 6.96512,7.35947 13.45066,9.7927c6.88736,2.58397 17.01766,2.56209 22.1212,5.75406c6.75713,4.22621 6.33397,13.1853 11.37184,16.90928c7.08873,5.23998 19.19502,4.5598 26.7601,4.53556c5.76742,-0.01845 11.48311,2.91702 15.22773,-0.16352c8.4523,-6.95336 14.16547,-28.97282 12.42416,-26.4085c-1.07515,1.58329 -0.24274,26.14523 -6.39766,34.71567c-5.53971,7.71378 -17.94606,11.37977 -22.39139,10.14768c-14.95577,-4.14525 -48.23826,-25.41541 -71.65697,-40.05068c-14.4023,-9.00056 -35.89924,-21.2298 -53.03389,-33.82769c-28.20929,-20.74031 -47.20679,-40.03044 -47.20679,-40.03044c0,0 1.49371,-27.45607 18.94766,-11.26355c1.03928,0.96419 24.54379,17.90907 25.50822,19.06896c5.83565,7.01859 10.64119,28.20546 22.46489,35.65709c5.87424,3.7021 12.80533,6.42269 19.19716,8.99954c4.98463,2.00955 9.64132,3.93172 13.21309,6.16389z" fill="#d23a00"/><path d="M520.48387,158.28355c3.4042,18.52776 -68.03127,-41.28196 -73.11017,-40.19363c-5.07891,1.08832 -20.38957,8.37144 -23.79376,-10.15629c-1.1892,-6.47238 -49.07468,-45.82906 -72.38305,-47.22957c-6.6199,-0.39777 -12.30454,0.3246 -15.5465,5.10455c-7.35118,10.83858 -6.16623,28.35926 -13.68624,23.97549c-6.07417,-3.54093 -2.56514,-15.82136 5.00621,-24.95944c6.03147,-7.27954 15.86856,-12.10458 16.60379,-12.26213c5.07891,-1.08832 173.5055,87.19328 176.90968,105.72105z" fill="#ffb63d"/><g><path d="M286.80637,409.03788l-17.25925,-145.35756l125.82342,-20.23383l77.8584,9.3679c0,0 9.8826,121.61627 12.50928,141.20004c0.71091,5.30028 7.34347,6.8166 7.34347,6.8166l-156.82085,27.09952z" fill="#ff7000"/><path d="M285.68026,410.44216l-15.85498,-144.23146l74.18843,22.5761l12.21197,134.3881z" fill="#ff5c00"/><path d="M342.60944,287.66065l-74.32751,-23.84129l162.65297,-23.00192l5.56316,50.60753z" fill="#ff4600"/><path d="M343.87464,287.52156l-60.60176,-20.44381l-3.02098,-22.50091l62.79686,13.12836l120.50286,-23.0342l2.86965,26.10491z" fill="#000000"/><path d="M341.2138,290.74289l-3.03444,-27.6041l2.07032,-0.22758l3.03444,27.6041z" fill="#424242"/><path d="M268.98112,246.88309l-6.61126,-48.49362l128.29894,-21.01092l76.84196,13.45992l1.77271,49.96548l-128.76025,27.8789z" fill="#ff7000"/><path d="M340.66234,269.94805l-6.64984,-53.72345l134.53788,-25.12626l3.03245,48.85943z" fill="#c51800"/><path d="M268.72614,244.56341l-4.86776,-44.28158l72.36692,17.65443l4.29795,50.74661z" fill="url(#color-1)"/><path d="M361.28645,422.6186l-21.20738,-134.67974l133.98434,-27.53332l11.46294,139.04476z" fill="#de3b00"/><path d="M330.88639,215.96217l57.39797,-11.27913c0,0 -52.12634,11.49417 -52.01921,14.2982c0.31187,8.16438 1.72774,49.97977 1.72774,49.97977l-6.26579,-50.07687l-25.6458,-5.42995z" fill="#9e2b00"/><path d="M355.66938,418.11415l-14.58979,-144.37053l19.65054,143.81421z" fill="#9e2b00"/><path d="M388.69477,182.71745l36.12068,2.43174l-159.83094,13.72837l15.87765,4.65699z" fill="#ffb63d"/><path d="M283.58059,402.99011l-15.0205,-136.64032l2.53038,-0.27816l15.0205,136.64032z" fill="#ffb63d"/><path d="M269.28246,249.62419l-5.00683,-45.54678l0.43071,-7.73021l5.84131,53.13792z" fill="#ffb63d"/><path d="M343.97422,290.43945l-0.53102,-4.83071l132.7753,-27.30728l-11.54039,8.11334z" fill="#d23a00"/><path d="M341.1745,292.68447l-71.27589,-27.03159l4.43362,-1.0878l63.69211,21.57928z" fill="#ff4600"/></g></g><path d="M359.67255,418.59148l-7.61218,-65.94373l121.14888,-96.33358l10.67088,146.07236z" fill="#c51800"/><path d="M467.06316,195.40945l4.29159,45.69068l-20.6802,5.29924z" fill="url(#color-2)"/></g><path d="M274.9343,208.15489c0.04348,1.13894 -1.0016,9.94754 -1.15833,11.05886c-0.43851,3.1097 10.62249,5.84723 6.94895,5.96831c-2.63132,0.08672 -4.94188,6.70367 -8.30356,6.44273c-3.40279,-0.26413 1.4887,5.93967 0.79071,9.01573c-0.70788,3.11966 -3.84089,5.30197 -3.84089,5.30197l-5.93,-46.90188l27.36303,8.46573c0,0 -11.38132,-0.60846 -14.65219,3.27232c-1.33489,1.58381 7.35355,0.29429 6.98262,1.74584c-0.21484,0.84078 -8.21865,-4.84908 -8.20034,-4.36956z" fill="#23d816"/><path d="M356.60982,182.74677c0.0117,0.30669 -36.3867,13.52722 -43.0799,14.24763c-3.85818,0.41527 -20.7914,3.69785 -23.79204,3.48496c-7.13093,-0.50589 -6.89631,-4.50092 -7.93611,-3.23211c-1.10244,1.34524 -1.36684,2.56838 3.26831,4.8834c4.13638,2.0659 13.2877,5.28309 11.63866,5.78078c-4.04677,1.22139 -7.63121,-0.77405 -7.63121,-0.77405l-23.54565,-7.85813c0,0 16.74198,-5.25637 27.80544,-5.67868c5.21304,-0.19899 30.75943,-6.09691 34.35383,-5.43005c2.07546,0.38507 -13.2345,0.76099 -16.75532,3.25342c-1.93009,1.36632 78.01871,-4.47115 91.53664,-7.41156c4.34556,-0.94524 55.89748,7.17163 44.98512,7.03096c-1.54482,-0.01991 -23.94466,-7.65958 -26.93212,-7.86518c-23.26097,-1.60077 -63.92112,-0.57524 -63.91563,-0.4314z" fill="#29ff19"/><path d="M295.76226,223.75921c-7.90247,0.30166 16.71563,4.11449 16.78937,6.04622c0.07374,1.93172 -24.42482,1.25079 -16.52235,0.94913c7.90247,-0.30166 -13.82454,-3.21305 -11.89843,-3.04858c23.00223,1.96392 19.53387,-4.24842 11.6314,-3.94677z" fill="#199a0f"/><path d="M281.2097,242.94309c0.0972,2.54635 17.77789,2.66492 9.3486,2.98669c-8.42929,0.32177 -15.3414,-1.48162 -15.43861,-4.02795c-0.03974,-1.04116 -10.89776,-11.24617 1.07395,-8.59017c3.51441,0.7797 44.71477,19.06414 52.4584,22.30753c11.03674,4.62271 -11.13215,-5.55729 -9.94173,-5.79054c0.6903,-0.13525 -5.18506,2.31988 -9.63214,0.40943c-9.00192,-3.86716 -20.56456,-13.46485 -18.87185,-13.52947c5.58906,-0.21334 38.45902,14.01186 33.93033,15.91789c-1.02778,0.43258 -40.9406,-5.93589 -41.93351,-4.50907c-0.34692,0.49852 45.54059,12.10671 42.44732,11.31903c-7.87772,-2.00599 -43.45375,-16.83435 -43.44074,-16.49342z" fill="#199a0f"/><path d="M291.63456,298.08661c-1.90262,-0.35222 13.85183,-14.22207 13.29779,-7.68486c-0.04754,0.56102 -29.67708,-14.42966 -23.27058,-16.31218c2.97974,-0.87559 28.02776,4.89467 27.32834,3.89726c-0.55729,-0.7947 11.07049,7.04545 12.09745,9.08779c0.13046,0.25944 9.14116,-3.3498 10.71082,4.23596c5.51398,26.64738 -11.20105,18.93659 -11.20105,18.93659c0,0 20.64538,-20.80141 16.49244,-22.20862c-17.90265,-6.06626 -60.0819,-18.44247 -60.09575,-18.29654c-0.6164,6.48419 10.7012,3.27718 12.39409,8.43924c0.51895,1.58235 -1.09245,5.72268 -2.67101,8.91794c-2.27751,4.61008 -7.63762,10.33596 -8.62073,16.51181c-1.78472,11.2114 15.74848,-24.07358 9.04356,-9.15567c-3.27915,7.29583 1.99886,100.67286 1.23103,110.2178c-0.30409,3.78018 -17.13226,-68.41203 -2.43922,-100.13088c3.14958,-6.7992 7.41988,11.47293 7.75529,5.79609c0.03002,-0.50796 8.37142,43.79956 15.51183,54.3121c1.32275,1.94745 -18.90118,19.20937 -18.76863,20.76073c0.19338,2.26316 19.65806,30.63352 13.9022,24.72298c-1.36204,-1.39863 48.29207,16.70013 47.67456,9.13134c-0.0574,-0.70364 4.5491,-21.90008 -3.45391,-17.12499c-25.26822,15.07658 -40.84685,-18.34148 -46.11195,-22.48506c-1.93597,-1.52359 25.38996,23.74315 24.08291,21.97461c-2.59277,-3.5082 -9.55933,-8.00062 -13.13068,-8.99638c-8.94378,-2.4937 -6.72425,11.46418 -8.28444,7.88134c-14.05096,-32.2666 -4.47475,-81.41262 -4.94493,-79.99832c-5.81397,17.48884 0.05153,66.05724 0.10462,65.20532c0.56807,-9.11346 -3.34907,4.70007 -5.14136,-16.47239c-0.13761,-1.62548 -0.96618,-5.43094 -1.07071,-7.58115c-1.05177,-21.63374 0.15154,-64.49554 -0.36865,-63.00164c-10.9653,31.4903 -4.92708,99.3586 -5.87943,99.39496c-4.91709,0.1877 -9.86233,-24.78675 -11.04549,-55.78198c-1.18316,-30.99525 -9.10808,-76.23573 -4.191,-76.42343c3.42673,-0.1308 28.30705,33.94165 19.06261,32.23027z" fill="url(#color-3)"/><path d="M408.1713,280.1479c22.66999,-3.88705 55.96764,-12.13402 49.20915,-11.87603c-7.0633,0.26962 -112.37223,25.94303 -112.37223,25.94303c0,0 105.58849,-31.46598 125.80708,-20.66663c0.24481,0.13074 -11.47397,-1.76081 -15.69263,2.98664c-5.34114,6.01062 -1.30556,57.38914 -0.48131,53.55777c1.00559,-4.67431 -1.47244,-48.2816 -9.8153,-49.68439c-2.45977,-0.41359 -71.4514,2.43583 -90.91423,9.18645c-15.8998,5.51479 36.73441,-6.49677 27.22553,-4.23468c-9.15968,2.17901 -18.82035,3.40063 -23.73344,6.31807c-4.70235,2.79233 -4.81022,7.28855 -6.69668,9.08858c-10.5686,10.08439 -10.96075,-16.00296 1.10839,-10.54114c3.15449,1.42755 102.6569,-19.29526 103.11816,-19.31286c8.19149,-0.31269 39.62775,-7.69375 4.47415,-2.78173c-7.43538,1.03895 -50.89594,6.31544 -80.37958,14.03216c-20.88578,5.46642 -31.16392,14.8757 -32.61629,12.7968c-2.18177,-3.12293 40.83953,-11.22509 61.75923,-14.81204z" fill="#126b0a"/><path d="M471.47784,237.16406c0.06704,1.7561 -136.20396,35.61696 -136.271,33.86086c-0.06704,-1.7561 63.05584,-20.2393 74.99733,-20.69514c2.75227,-0.10506 -58.11665,15.56101 -52.45835,14.33764c9.50874,-2.05588 45.91766,-15.05349 71.77904,-26.19752c3.75435,-1.61781 -7.92985,2.48594 -6.52028,-0.02163c0.45627,-0.81168 3.3216,-7.35705 9.56541,-8.78285c6.15494,-1.40549 22.44716,-3.68553 25.53018,-4.00426c1.49798,-0.15486 -19.01193,6.91386 -29.79154,8.96256c-8.86806,1.68541 -25.86738,6.09971 -25.43983,5.99428c1.02126,-0.25187 26.46147,-3.51262 42.60393,-2.67542c12.21108,0.63333 25.15248,-4.81022 20.83239,-3.14401c-8.19687,3.16144 -125.33396,22.8776 -122.52714,24.5876c1.96239,1.19555 90.0901,-16.51684 90.97121,-16.30461c10.3584,2.495 36.71508,-6.27233 36.72863,-5.91747z" fill="#126b0a"/><path d="M484.46921,393.97462c0.29781,7.8016 -26.03723,7.53146 -56.27074,10.55268c-29.35574,2.93351 -62.63044,9.2709 -62.70368,9.2737c-15.45371,0.58991 -3.8637,-17.79729 -4.58768,-36.76324c-0.01095,-0.28679 14.39669,21.53467 15.25321,26.10152c0.31313,1.66953 -3.90885,-10.53761 -4.66333,-20.74669c-0.60984,-8.25179 1.96124,-14.34999 3.86824,-17.38902c6.35035,-10.11998 19.24676,10.74757 19.24676,10.74757c0,0 -12.52185,-6.74865 -14.16281,-3.68039c-4.29318,8.02736 -7.87586,36.24396 7.6456,33.69734c1.46831,-0.2409 -11.12016,-20.86209 -11.12016,-20.86209c0,0 20.1978,1.84648 21.37808,1.25611c21.31233,-10.66034 5.81911,12.60988 21.49192,15.9188c7.09321,1.49754 -25.87206,-18.53582 -16.51939,-12.08211c0.68783,0.47461 22.19217,1.85955 26.5927,3.73769c14.05649,5.99929 11.51692,18.13791 21.2091,14.78413c1.57879,-0.54631 0.70306,-13.41318 -8.63754,-13.21368c-21.59874,0.46131 -49.32015,-7.0915 -50.21412,-11.27979c-0.78644,-3.68451 14.25119,17.93246 29.60535,12.67858c11.8681,-4.06102 35.98729,8.69376 47.73761,-2.95613c9.20119,-9.12253 7.46232,-43.67459 8.64309,-43.35961c0.62446,0.16659 13.8542,43.82647 3.39215,48.5847c-5.96985,2.71513 -50.20821,-7.23909 -50.71864,-3.8802c-1.78834,11.76824 32.4748,4.45759 26.56801,7.31733c-10.67602,5.16873 -28.39947,-14.60773 -27.24543,-13.01523c7.88692,10.88339 54.17368,3.58339 54.21166,4.57804z" fill="#126b0a"/><path d="M438.45302,339.68675c0.02834,0.74217 -7.52394,1.00677 -7.26431,4.6664c0.14257,2.00981 -15.69528,-0.7176 -19.07021,2.08088c-2.466,2.04479 7.15922,9.50387 7.5392,11.68334c3.30006,18.92874 22.95272,44.72017 22.02795,49.44188c-1.22447,6.25202 -8.15007,-36.35462 -10.89942,-34.53826c-3.31645,2.19102 -4.80329,2.16955 -9.1224,2.33441c-2.56962,0.09808 -2.14431,9.21172 -4.46543,8.52278c-2.12707,-0.63136 -1.19653,-31.80302 -4.63876,-27.46065c-3.45735,4.36146 -11.28776,44.22859 -13.54591,39.69607c-4.6091,-9.25135 4.2213,-44.72632 4.04502,-49.34395c-0.17951,-4.70252 -13.30595,-6.44443 -7.65568,-8.41979c1.7858,-0.62433 19.4584,3.24636 17.37304,-0.86346c-1.49629,-2.94888 -23.52302,-14.24581 -20.77337,-14.56742c11.17741,-1.30741 43.26523,10.52068 47.79734,10.34768c1.19987,-0.0458 25.37009,-13.05448 19.92655,-14.46039c-1.72166,-0.44465 -25.04272,20.58027 -31.39734,23.12313c-10.59807,4.24091 -7.70687,-13.83167 -8.26885,-13.59191c-3.22862,1.37752 -10.58588,-2.26218 -4.44017,2.73467c5.51574,4.48465 22.66164,4.13337 22.8327,8.6146z" fill="#126b0a"/></g><path d="M277.19568,400.86776c0.61672,16.15617 -11.12633,29.72065 -26.22881,30.29715c-15.10248,0.5765 -27.84542,-12.05331 -28.46215,-28.20946c-0.61672,-16.15617 11.12633,-29.72065 26.22881,-30.29715c15.10248,-0.5765 27.84542,12.05331 28.46215,28.20946z" fill="#ff5c00"/><path d="M276.23937,409.18355c0.3888,10.1854 -14.63351,19.02778 -27.27744,19.51043c-12.64395,0.48265 -23.20909,-7.38299 -23.59788,-17.56839c-0.19022,-4.98333 12.2425,-3.50928 22.22794,-9.70577c10.42375,-6.4685 9.55319,-22.71394 16.01093,-22.96044c12.64395,-0.48265 12.24764,20.53877 12.63644,30.72418z" fill="#e23f00"/><path d="M249.5394,377.08561c0.22792,5.97077 11.26335,0.20693 0.02428,0.63594c-4.12131,0.15733 -12.74029,2.0079 -16.998,8.64282c-7.35333,11.45888 -9.55248,29.91152 -9.69683,26.13021c-0.12941,-3.39002 -2.09154,-18.78905 3.91691,-28.45744c4.57407,-7.3603 16.50253,-9.89724 21.36039,-10.08268c11.23907,-0.42903 1.16533,-2.8396 1.39325,3.13116z" fill="#ffb63d"/></g></g></g></svg>