<svg version="1.1" xmlns="http://www.w3.org/2000/svg" xmlns:xlink="http://www.w3.org/1999/xlink" width="59.87817" height="43.05178" viewBox="0,0,59.87817,43.05178"><defs><linearGradient x1="201.64776" y1="179.69319" x2="231.96469" y2="179.69319" gradientUnits="userSpaceOnUse" id="color-1"><stop offset="0" stop-color="#ffffff" stop-opacity="0"/><stop offset="1" stop-color="#ffffff"/></linearGradient><radialGradient cx="240.00004" cy="180" r="21.52589" gradientUnits="userSpaceOnUse" id="color-2"><stop offset="0" stop-color="#ffffff"/><stop offset="1" stop-color="#ffffff" stop-opacity="0"/></radialGradient><radialGradient cx="240.00007" cy="180" r="10.53228" gradientUnits="userSpaceOnUse" id="color-3"><stop offset="0" stop-color="#737373"/><stop offset="1" stop-color="#737373" stop-opacity="0"/></radialGradient><linearGradient x1="229.87745" y1="179.99997" x2="249.60862" y2="179.99997" gradientUnits="userSpaceOnUse" id="color-4"><stop offset="0" stop-color="#ff0000"/><stop offset="1" stop-color="#ff6969"/></linearGradient></defs><g transform="translate(-201.64776,-158.47411)"><g data-paper-data="{&quot;isPaintingLayer&quot;:true}" fill-rule="nonzero" stroke-width="0" stroke-linecap="butt" stroke-linejoin="miter" stroke-miterlimit="10" stroke-dasharray="" stroke-dashoffset="0" style="mix-blend-mode: normal"><path d="M201.64776,180.67699l30.28939,-5.1158l0.02755,9.37249z" fill="url(#color-1)" stroke="none"/><path d="M218.47415,180c0,-11.88842 9.63747,-21.52589 21.52589,-21.52589c11.88842,0 21.52589,9.63747 21.52589,21.52589c0,11.88842 -9.63747,21.52589 -21.52589,21.52589c-11.88842,0 -21.52589,-9.63747 -21.52589,-21.52589z" fill="url(#color-2)" stroke="#f83535"/><path d="M229.46772,180c0,-5.81682 4.71546,-10.53228 10.53228,-10.53228c5.81682,0 10.53228,4.71546 10.53228,10.53228c0,5.81682 -4.71546,10.53228 -10.53228,10.53228c-5.81682,0 -10.53228,-4.71546 -10.53228,-10.53228z" fill="url(#color-3)" stroke="none"/><path d="M239.74302,172.33195c5.4486,0 9.86557,3.4331 9.86557,7.66803c0,4.23495 -4.89202,7.64064 -9.86557,7.66804c-4.97355,0.0274 -11.44877,-3.17935 -11.44877,-7.4143c0,-3.9812 6.00016,-7.92179 11.44877,-7.92179z" fill="url(#color-4)" stroke="#000000"/></g></g></svg>