<svg version="1.1" xmlns="http://www.w3.org/2000/svg" xmlns:xlink="http://www.w3.org/1999/xlink" width="530.70082" height="362.26186" viewBox="0,0,530.70082,362.26186"><defs><linearGradient x1="240" y1="295.48236" x2="240" y2="349.41675" gradientUnits="userSpaceOnUse" id="color-1"><stop offset="0" stop-color="#ffffff"/><stop offset="1" stop-color="#ffffff" stop-opacity="0"/></linearGradient></defs><g transform="translate(26.02102,2.02746)"><g data-paper-data="{&quot;isPaintingLayer&quot;:true}" fill-rule="nonzero" stroke-linejoin="miter" stroke-miterlimit="10" stroke-dasharray="" stroke-dashoffset="0" style="mix-blend-mode: normal"><path d="M-22.72175,301.79727v-7.34985h525.4435v7.34985z" fill="#000000" stroke="#000000" stroke-width="0" stroke-linecap="butt"/><path d="M-26.02102,360.2344v-8.01802h518.01802v8.01802z" fill="#000000" stroke="#000000" stroke-width="0" stroke-linecap="butt"/><path d="M240,295.48235v53.9344" fill="none" stroke="url(#color-1)" stroke-width="2" stroke-linecap="round"/><path d="M-15.51051,6.57239v-7.34985h518.01802v7.34985z" fill="#000000" stroke="#000000" stroke-width="2.5" stroke-linecap="butt"/><path d="M-21.92998,352.5215v-51.02482c0,0 49.80542,0.17079 49.18761,0.17079c-13.9968,0 -25.34345,11.34665 -25.34345,25.34345c0,13.9968 11.34665,25.34345 25.34345,25.34345c0.61781,0 -49.18761,0.16712 -49.18761,0.16712z" data-paper-data="{&quot;index&quot;:null}" fill="#000000" stroke="#000000" stroke-width="0" stroke-linecap="butt"/><path d="M-24.18018,294.52286v-25.64567c0,0 23.84416,-2.86171 23.84416,0.13509c0,13.9968 11.34665,25.34345 25.34345,25.34345c0.61781,0 -49.18761,0.16712 -49.18761,0.16712z" data-paper-data="{&quot;index&quot;:null}" fill="#000000" stroke="#000000" stroke-width="0" stroke-linecap="butt"/><path d="M504.6798,294.52286c0,0 -49.80542,-0.16712 -49.18761,-0.16712c13.9968,0 25.34345,-11.34665 25.34345,-25.34345c0,-2.9968 23.84416,-0.13509 23.84416,-0.13509v25.64567z" data-paper-data="{&quot;index&quot;:null}" fill="#000000" stroke="#000000" stroke-width="0" stroke-linecap="butt"/><path d="M-24.18017,7.5724c0,0 49.80542,0.16712 49.18761,0.16712c-13.9968,0 -25.34345,11.34665 -25.34345,25.34345c0,2.9968 -23.84416,0.13509 -23.84416,0.13509v-25.64567z" data-paper-data="{&quot;index&quot;:null}" fill="#000000" stroke="#000000" stroke-width="0" stroke-linecap="butt"/><path d="M504.6798,7.5724v25.64567c0,0 -23.84416,2.86171 -23.84416,-0.13509c0,-13.9968 -11.34665,-25.34345 -25.34345,-25.34345c-0.61781,0 49.18761,-0.16712 49.18761,-0.16712z" data-paper-data="{&quot;index&quot;:null}" fill="#000000" stroke="#000000" stroke-width="0" stroke-linecap="butt"/><path d="M501.92998,352.52151c0,0 -49.80542,-0.16712 -49.18761,-0.16712c13.9968,0 25.34345,-11.34665 25.34345,-25.34345c0,-13.9968 -11.34665,-25.34345 -25.34345,-25.34345c-0.61781,0 49.18761,-0.17079 49.18761,-0.17079v51.02482z" data-paper-data="{&quot;index&quot;:null}" fill="#000000" stroke="#000000" stroke-width="0" stroke-linecap="butt"/></g></g></svg>