<svg version="1.1" xmlns="http://www.w3.org/2000/svg" xmlns:xlink="http://www.w3.org/1999/xlink" width="640.29531" height="551.80179" viewBox="0,0,640.29531,551.80179"><defs><radialGradient cx="17.80781" cy="51.14114" r="77.26776" gradientUnits="userSpaceOnUse" id="color-1"><stop offset="0" stop-color="#ffffff" stop-opacity="0.28548"/><stop offset="1" stop-color="#ffffff" stop-opacity="0"/></radialGradient><radialGradient cx="162.44745" cy="-12.92793" r="77.26776" gradientUnits="userSpaceOnUse" id="color-2"><stop offset="0" stop-color="#ffffff" stop-opacity="0.28548"/><stop offset="1" stop-color="#ffffff" stop-opacity="0"/></radialGradient><radialGradient cx="304.08409" cy="-19.93994" r="77.26776" gradientUnits="userSpaceOnUse" id="color-3"><stop offset="0" stop-color="#ffffff" stop-opacity="0.28548"/><stop offset="1" stop-color="#ffffff" stop-opacity="0"/></radialGradient><radialGradient cx="444.21922" cy="22.5976" r="77.26776" gradientUnits="userSpaceOnUse" id="color-4"><stop offset="0" stop-color="#ffffff" stop-opacity="0.28548"/><stop offset="1" stop-color="#ffffff" stop-opacity="0"/></radialGradient><radialGradient cx="465.73574" cy="162.73274" r="77.26776" gradientUnits="userSpaceOnUse" id="color-5"><stop offset="0" stop-color="#ffffff" stop-opacity="0.28548"/><stop offset="1" stop-color="#ffffff" stop-opacity="0"/></radialGradient><radialGradient cx="437.7027" cy="293.85886" r="77.26776" gradientUnits="userSpaceOnUse" id="color-6"><stop offset="0" stop-color="#ffffff" stop-opacity="0.28548"/><stop offset="1" stop-color="#ffffff" stop-opacity="0"/></radialGradient><radialGradient cx="277.53754" cy="355.91592" r="77.26776" gradientUnits="userSpaceOnUse" id="color-7"><stop offset="0" stop-color="#ffffff" stop-opacity="0.28548"/><stop offset="1" stop-color="#ffffff" stop-opacity="0"/></radialGradient><radialGradient cx="123.37838" cy="342.8979" r="77.26776" gradientUnits="userSpaceOnUse" id="color-8"><stop offset="0" stop-color="#ffffff" stop-opacity="0.28548"/><stop offset="1" stop-color="#ffffff" stop-opacity="0"/></radialGradient><radialGradient cx="8.25826" cy="223.27327" r="77.26776" gradientUnits="userSpaceOnUse" id="color-9"><stop offset="0" stop-color="#ffffff" stop-opacity="0.28548"/><stop offset="1" stop-color="#ffffff" stop-opacity="0"/></radialGradient><radialGradient cx="-8.74839" cy="192.13465" r="68.86451" gradientUnits="userSpaceOnUse" id="color-10"><stop offset="0" stop-color="#ff0000" stop-opacity="0.51765"/><stop offset="1" stop-color="#ff0000" stop-opacity="0"/></radialGradient><radialGradient cx="469.0973" cy="7.90364" r="83.72301" gradientUnits="userSpaceOnUse" id="color-11"><stop offset="0" stop-color="#ff0000" stop-opacity="0.51765"/><stop offset="1" stop-color="#ff0000" stop-opacity="0"/></radialGradient><radialGradient cx="2.76182" cy="16.73158" r="77.26776" gradientUnits="userSpaceOnUse" id="color-12"><stop offset="0" stop-color="#ff0000"/><stop offset="1" stop-color="#ff0000" stop-opacity="0"/></radialGradient><radialGradient cx="243.91604" cy="0.26527" r="69.73003" gradientUnits="userSpaceOnUse" id="color-13"><stop offset="0" stop-color="#ff0000" stop-opacity="0.51765"/><stop offset="1" stop-color="#ff0000" stop-opacity="0"/></radialGradient><radialGradient cx="316.60105" cy="387.30293" r="67.28927" gradientUnits="userSpaceOnUse" id="color-14"><stop offset="0" stop-color="#ff0000" stop-opacity="0.51765"/><stop offset="1" stop-color="#ff0000" stop-opacity="0"/></radialGradient><radialGradient cx="462.2746" cy="335.44169" r="91.71499" gradientUnits="userSpaceOnUse" id="color-15"><stop offset="0" stop-color="#ff0000" stop-opacity="0.8549"/><stop offset="1" stop-color="#ff0000" stop-opacity="0"/></radialGradient><radialGradient cx="5.91013" cy="344.9445" r="67.14745" gradientUnits="userSpaceOnUse" id="color-16"><stop offset="0" stop-color="#ff0000" stop-opacity="0.51765"/><stop offset="1" stop-color="#ff0000" stop-opacity="0"/></radialGradient><radialGradient cx="187.61991" cy="385.71334" r="67.14745" gradientUnits="userSpaceOnUse" id="color-17"><stop offset="0" stop-color="#ff0000" stop-opacity="0.51765"/><stop offset="1" stop-color="#ff0000" stop-opacity="0"/></radialGradient><radialGradient cx="490.24053" cy="154.69389" r="72.44004" gradientUnits="userSpaceOnUse" id="color-18"><stop offset="0" stop-color="#ff0000" stop-opacity="0.51765"/><stop offset="1" stop-color="#ff0000" stop-opacity="0"/></radialGradient></defs><g transform="translate(77.61378,97.20871)"><g data-paper-data="{&quot;isPaintingLayer&quot;:true}" fill-rule="nonzero" stroke="none" stroke-width="0" stroke-linecap="butt" stroke-linejoin="miter" stroke-miterlimit="10" stroke-dasharray="" stroke-dashoffset="0" style="mix-blend-mode: normal"><g data-paper-data="{&quot;index&quot;:null}"><path d="M-59.4075,53.98775c-1.57214,-42.64483 31.72387,-78.48978 74.3687,-80.06192c42.64483,-1.57214 78.48978,31.72387 80.06192,74.3687c1.57214,42.64483 -31.72387,78.48978 -74.3687,80.06192c-42.64483,1.57214 -78.48978,-31.72387 -80.06192,-74.3687z" data-paper-data="{&quot;index&quot;:null}" fill="url(#color-1)"/><path d="M85.23214,-10.08132c-1.57214,-42.64483 31.72387,-78.48978 74.3687,-80.06192c42.64483,-1.57214 78.48978,31.72387 80.06192,74.3687c1.57214,42.64483 -31.72387,78.48978 -74.3687,80.06192c-42.64483,1.57214 -78.48978,-31.72387 -80.06192,-74.3687z" data-paper-data="{&quot;index&quot;:null}" fill="url(#color-2)"/><path d="M226.86878,-17.09333c-1.57214,-42.64483 31.72387,-78.48978 74.3687,-80.06192c42.64483,-1.57214 78.48978,31.72387 80.06192,74.3687c1.57214,42.64483 -31.72387,78.48978 -74.3687,80.06192c-42.64483,1.57214 -78.48978,-31.72387 -80.06192,-74.3687z" data-paper-data="{&quot;index&quot;:null}" fill="url(#color-3)"/><path d="M367.00391,25.44421c-1.57214,-42.64483 31.72387,-78.48978 74.3687,-80.06192c42.64483,-1.57214 78.48978,31.72387 80.06192,74.3687c1.57214,42.64483 -31.72387,78.48978 -74.3687,80.06192c-42.64483,1.57214 -78.48978,-31.72387 -80.06192,-74.3687z" data-paper-data="{&quot;index&quot;:null}" fill="url(#color-4)"/><path d="M388.52043,165.57935c-1.57214,-42.64483 31.72387,-78.48978 74.3687,-80.06192c42.64483,-1.57214 78.48978,31.72387 80.06192,74.3687c1.57214,42.64483 -31.72387,78.48978 -74.3687,80.06192c-42.64483,1.57214 -78.48978,-31.72387 -80.06192,-74.3687z" data-paper-data="{&quot;index&quot;:null}" fill="url(#color-5)"/><path d="M360.48739,296.70547c-1.57214,-42.64483 31.72387,-78.48978 74.3687,-80.06192c42.64483,-1.57214 78.48978,31.72387 80.06192,74.3687c1.57214,42.64483 -31.72387,78.48978 -74.3687,80.06192c-42.64483,1.57214 -78.48978,-31.72387 -80.06192,-74.3687z" data-paper-data="{&quot;index&quot;:null}" fill="url(#color-6)"/><path d="M200.32223,358.76253c-1.57214,-42.64483 31.72387,-78.48978 74.3687,-80.06192c42.64483,-1.57214 78.48978,31.72387 80.06192,74.3687c1.57214,42.64483 -31.72387,78.48978 -74.3687,80.06192c-42.64483,1.57214 -78.48978,-31.72387 -80.06192,-74.3687z" data-paper-data="{&quot;index&quot;:null}" fill="url(#color-7)"/><path d="M46.16307,345.74451c-1.57214,-42.64483 31.72387,-78.48978 74.3687,-80.06192c42.64483,-1.57214 78.48978,31.72387 80.06192,74.3687c1.57214,42.64483 -31.72387,78.48978 -74.3687,80.06192c-42.64483,1.57214 -78.48978,-31.72387 -80.06192,-74.3687z" data-paper-data="{&quot;index&quot;:null}" fill="url(#color-8)"/><path d="M-68.95705,226.11988c-1.57214,-42.64483 31.72387,-78.48978 74.3687,-80.06192c42.64483,-1.57214 78.48978,31.72387 80.06192,74.3687c1.57214,42.64483 -31.72387,78.48978 -74.3687,80.06192c-42.64483,1.57214 -78.48978,-31.72387 -80.06192,-74.3687z" data-paper-data="{&quot;index&quot;:null}" fill="url(#color-9)"/></g><path d="M-77.56614,194.67167c-1.40117,-38.007 28.27373,-69.95361 66.28073,-71.35478c38.00701,-1.40117 69.95362,28.27373 71.35479,66.28073c1.40116,38.007 -28.27373,69.95362 -66.28074,71.35478c-38.007,1.40116 -69.95361,-28.27373 -71.35478,-66.28073z" data-paper-data="{&quot;index&quot;:null}" fill="url(#color-10)"/><path d="M385.43112,10.98806c-1.70348,-46.20755 34.3742,-85.04712 80.58175,-86.7506c46.20755,-1.70348 85.04712,34.3742 86.7506,80.58175c1.70348,46.20755 -34.3742,85.04712 -80.58175,86.7506c-46.20755,1.70348 -85.04712,-34.3742 -86.7506,-80.58175z" data-paper-data="{&quot;index&quot;:null}" fill="url(#color-11)"/><path d="M359.67369,5.62136c-0.42771,-11.60171 8.63061,-21.35347 20.23232,-21.78118c11.60171,-0.42771 21.35347,8.63061 21.78118,20.23232c0.42771,11.60171 -8.63061,21.35347 -20.23232,21.78118c-11.60171,0.42771 -21.35348,-8.63062 -21.78118,-20.23232z" data-paper-data="{&quot;index&quot;:null}" fill-opacity="0.36471" fill="#ff0000"/><path d="M297.24777,48.99445l26.83988,-111.99117l16.02592,12.40326z" data-paper-data="{&quot;index&quot;:null}" fill-opacity="0.57255" fill="#ff3333"/><path d="M-74.45349,19.57819c-1.57214,-42.64483 31.72387,-78.48978 74.3687,-80.06192c42.64483,-1.57214 78.48978,31.72387 80.06192,74.3687c1.57214,42.64483 -31.72387,78.48978 -74.3687,80.06192c-42.64483,1.57214 -78.48978,-31.72387 -80.06192,-74.3687z" data-paper-data="{&quot;index&quot;:null}" fill="url(#color-12)"/><path d="M174.23333,2.83418c-1.41877,-38.48469 28.62908,-70.83283 67.11378,-72.25161c38.48469,-1.41877 70.83283,28.62908 72.25161,67.11378c1.41877,38.48469 -28.62908,70.83283 -67.11378,72.25161c-38.48469,1.41877 -70.83283,-28.62908 -72.25161,-67.11378z" data-paper-data="{&quot;index&quot;:null}" fill="url(#color-13)"/><path d="M-22.276,-6.90346c-0.85756,-23.26159 17.30451,-42.81402 40.56609,-43.67158c23.26159,-0.85756 42.81402,17.30451 43.67158,40.56609c0.85756,23.26159 -17.3045,42.81402 -40.56607,43.67158c-23.26159,0.85756 -42.81402,-17.3045 -43.67158,-40.56607z" data-paper-data="{&quot;index&quot;:null}" fill-opacity="0.36471" fill="#ff0000"/><path d="M-57.39554,138.86851c-0.70487,-19.11998 14.22351,-35.1912 33.34349,-35.89607c19.11998,-0.70487 35.1912,14.22351 35.89607,33.34349c0.70487,19.11998 -14.22351,35.1912 -33.34348,35.89607c-19.11998,0.70487 -35.1912,-14.22351 -35.89607,-33.34349z" data-paper-data="{&quot;index&quot;:null}" fill-opacity="0.36471" fill="#ff0000"/><path d="M96.53539,4.39499c-0.36653,-9.94239 7.39622,-18.29941 17.3386,-18.66594c9.9424,-0.36654 18.29941,7.39622 18.66594,17.33862c0.36654,9.9424 -7.39622,18.29941 -17.3386,18.66594c-9.94239,0.36653 -18.29941,-7.39622 -18.66594,-17.3386z" data-paper-data="{&quot;index&quot;:null}" fill-opacity="0.36471" fill="#ff0000"/><path d="M180.09326,-3.83938c-0.60619,-16.44318 12.23221,-30.26442 28.6754,-30.87061c16.44318,-0.60619 30.26442,12.23222 30.87061,28.67541c0.60619,16.44318 -12.23223,30.26443 -28.6754,30.87062c-16.44318,0.60619 -30.26441,-12.23223 -30.8706,-28.6754z" data-paper-data="{&quot;index&quot;:null}" fill-opacity="0.36471" fill="#ff0000"/><path d="M63.24884,58.52371c-0.15507,-4.20639 3.12917,-7.74206 7.33556,-7.89713c4.20639,-0.15507 7.74206,3.12916 7.89713,7.33556c0.15507,4.20639 -3.12917,7.74206 -7.33556,7.89713c-4.20639,0.15507 -7.74206,-3.12916 -7.89713,-7.33556z" data-paper-data="{&quot;index&quot;:null}" fill-opacity="0.36471" fill="#ff0000"/><path d="M249.35747,389.78193c-1.36911,-37.13761 27.62699,-68.35347 64.76459,-69.72258c37.13761,-1.36911 68.35347,27.62699 69.72259,64.76459c1.36911,37.13761 -27.62699,68.35347 -64.76459,69.72258c-37.13761,1.36911 -68.35347,-27.62699 -69.72259,-64.76459z" data-paper-data="{&quot;index&quot;:null}" fill="url(#color-14)"/><path d="M370.62186,338.82055c-1.86609,-50.6184 37.65547,-93.16549 88.27388,-95.03158c50.61841,-1.8661 93.16549,37.65547 95.03159,88.27388c1.86609,50.61841 -37.65547,93.16549 -88.27386,95.03158c-50.6184,1.86609 -93.1655,-37.65546 -95.0316,-88.27386z" data-paper-data="{&quot;index&quot;:null}" fill="url(#color-15)"/><path d="M-61.19174,347.41827c-1.36622,-37.05934 27.56876,-68.2094 64.62809,-69.57563c37.05934,-1.36622 68.2094,27.56876 69.57563,64.62809c1.36623,37.05934 -27.56876,68.20941 -64.62809,69.57563c-37.05934,1.36622 -68.2094,-27.56876 -69.57563,-64.62809z" data-paper-data="{&quot;index&quot;:null}" fill="url(#color-16)"/><path d="M120.51806,388.18711c-1.36622,-37.05934 27.56876,-68.20941 64.62809,-69.57563c37.05934,-1.36622 68.20941,27.56876 69.57563,64.62809c1.36622,37.05934 -27.56876,68.20941 -64.62808,69.57563c-37.05934,1.36622 -68.2094,-27.56876 -69.57563,-64.62809z" data-paper-data="{&quot;index&quot;:null}" fill="url(#color-17)"/><path d="M-8.10402,351.92074c-0.70712,-19.18082 14.26878,-35.30318 33.4496,-36.0103c19.18082,-0.70712 35.30318,14.26878 36.0103,33.4496c0.70712,19.18082 -14.26877,35.30317 -33.44959,36.01029c-19.18082,0.70712 -35.30318,-14.26878 -36.0103,-33.44959z" data-paper-data="{&quot;index&quot;:null}" fill-opacity="0.36471" fill="#ff0000"/><path d="M81.41589,359.86106c-0.41013,-11.12488 8.27589,-20.47584 19.40076,-20.88597c11.12488,-0.41013 20.47584,8.27589 20.88597,19.40076c0.41013,11.12488 -8.27589,20.47584 -19.40075,20.88597c-11.12488,0.41013 -20.47584,-8.27589 -20.88597,-19.40076z" data-paper-data="{&quot;index&quot;:null}" fill-opacity="0.36471" fill="#ff0000"/><path d="M-25.39771,404.37404l147.03636,-111.12646l-122.46108,123.66393z" data-paper-data="{&quot;index&quot;:null}" fill-opacity="0.57255" fill="#c80000"/><path d="M181.52959,384.87771c-0.80611,-21.86613 16.26641,-40.24563 38.13254,-41.05174c21.86613,-0.80611 40.24562,16.26641 41.05173,38.13255c0.80611,21.86613 -16.26642,40.24562 -38.13254,41.05173c-21.86613,0.80611 -40.24562,-16.26642 -41.05173,-38.13254z" data-paper-data="{&quot;index&quot;:null}" fill-opacity="0.36471" fill="#ff0000"/><path d="M417.84967,157.36264c-1.47391,-39.98037 29.74174,-73.5857 69.72211,-75.05962c39.98037,-1.47391 73.5857,29.74174 75.05962,69.72211c1.47391,39.98037 -29.74174,73.58569 -69.72211,75.05961c-39.98037,1.47391 -73.5857,-29.74174 -75.05962,-69.7221z" data-paper-data="{&quot;index&quot;:null}" fill="url(#color-18)"/><path d="M410.79971,331.53059c-1.07709,-29.21642 21.73436,-53.77418 50.95078,-54.85127c29.21642,-1.07709 53.77417,21.73436 54.85126,50.95078c1.07709,29.21642 -21.73436,53.77417 -50.95077,54.85126c-29.21642,1.07709 -53.77418,-21.73436 -54.85127,-50.95077z" data-paper-data="{&quot;index&quot;:null}" fill-opacity="0.36471" fill="#ff0000"/><path d="M450.96918,264.69826c-0.46768,-12.68608 9.43728,-23.34931 22.12336,-23.81699c12.68608,-0.46768 23.34931,9.43728 23.81699,22.12336c0.46768,12.68608 -9.43728,23.34931 -22.12336,23.81699c-12.68608,0.46768 -23.34931,-9.43728 -23.81699,-22.12336z" data-paper-data="{&quot;index&quot;:null}" fill-opacity="0.36471" fill="#ff0000"/><path d="M391.21494,308.01091c-0.31179,-8.45739 6.29152,-15.56621 14.74891,-15.878c8.45739,-0.31179 15.5662,6.29152 15.87799,14.74891c0.31179,8.45739 -6.29152,15.5662 -14.7489,15.87799c-8.45739,0.31179 -15.56621,-6.29151 -15.878,-14.7489z" data-paper-data="{&quot;index&quot;:null}" fill-opacity="0.36471" fill="#ff0000"/><path d="M415.59061,241.29647c-0.17007,-4.61313 3.43174,-8.49066 8.04486,-8.66073c4.61313,-0.17007 8.49066,3.43173 8.66073,8.04486c0.17007,4.61313 -3.43174,8.49066 -8.04486,8.66073c-4.61313,0.17007 -8.49066,-3.43173 -8.66073,-8.04486z" data-paper-data="{&quot;index&quot;:null}" fill-opacity="0.57255" fill="#ff0000"/><path d="M559.52779,157.36048l-161.18529,-13.45596l158.67171,-4.54983z" data-paper-data="{&quot;index&quot;:null}" fill-opacity="0.57255" fill="#ff2929"/></g></g></svg>