<svg version="1.1" xmlns="http://www.w3.org/2000/svg" xmlns:xlink="http://www.w3.org/1999/xlink" width="85.27406" height="70.09816" viewBox="0,0,85.27406,70.09816"><defs><radialGradient cx="312.8363" cy="180.67822" r="11.79732" gradientUnits="userSpaceOnUse" id="color-1"><stop offset="0" stop-color="#000000" stop-opacity="0.63137"/><stop offset="1" stop-color="#000000" stop-opacity="0"/></radialGradient><linearGradient x1="312.8363" y1="168.88089" x2="312.8363" y2="192.47555" gradientUnits="userSpaceOnUse" id="color-2"><stop offset="0" stop-color="#ff5454"/><stop offset="1" stop-color="#eb0000"/></linearGradient><radialGradient cx="287.60905" cy="183.38307" r="20.78815" gradientUnits="userSpaceOnUse" id="color-3"><stop offset="0" stop-color="#000000" stop-opacity="0.63137"/><stop offset="1" stop-color="#000000" stop-opacity="0"/></radialGradient><linearGradient x1="287.60905" y1="162.59491" x2="287.60905" y2="204.17123" gradientUnits="userSpaceOnUse" id="color-4"><stop offset="0" stop-color="#ff5454"/><stop offset="1" stop-color="#eb0000"/></linearGradient><radialGradient cx="270.41448" cy="175.84633" r="20.34342" gradientUnits="userSpaceOnUse" id="color-5"><stop offset="0" stop-color="#000000" stop-opacity="0.63137"/><stop offset="1" stop-color="#000000" stop-opacity="0"/></radialGradient><linearGradient x1="270.41448" y1="155.5029" x2="270.41448" y2="196.18975" gradientUnits="userSpaceOnUse" id="color-6"><stop offset="0" stop-color="#ff5454"/><stop offset="1" stop-color="#eb0000"/></linearGradient><linearGradient x1="257.02602" y1="171.67628" x2="278.72832" y2="171.67628" gradientUnits="userSpaceOnUse" id="color-7"><stop offset="0" stop-color="#eb0000"/><stop offset="1" stop-color="#ff5454"/></linearGradient><linearGradient x1="316.94584" y1="173.69911" x2="316.94584" y2="187.69911" gradientUnits="userSpaceOnUse" id="color-8"><stop offset="0" stop-color="#ff5454"/><stop offset="1" stop-color="#eb0000"/></linearGradient><linearGradient x1="304.45834" y1="176.17245" x2="304.45834" y2="184.97245" gradientUnits="userSpaceOnUse" id="color-9"><stop offset="0" stop-color="#ffffff"/><stop offset="1" stop-color="#b3b3b3"/></linearGradient><linearGradient x1="286.80696" y1="172.35325" x2="286.80696" y2="188.85325" gradientUnits="userSpaceOnUse" id="color-10"><stop offset="0" stop-color="#ffffff"/><stop offset="1" stop-color="#808080"/></linearGradient><linearGradient x1="294.97362" y1="171.38103" x2="294.97362" y2="189.49214" gradientUnits="userSpaceOnUse" id="color-11"><stop offset="0" stop-color="#ff5454"/><stop offset="1" stop-color="#eb0000"/></linearGradient><linearGradient x1="275.1125" y1="180.43659" x2="282.6125" y2="180.43659" gradientUnits="userSpaceOnUse" id="color-12"><stop offset="0" stop-color="#929292"/><stop offset="1" stop-color="#ffffff"/></linearGradient><linearGradient x1="275.58033" y1="189.27374" x2="297.28264" y2="189.27374" gradientUnits="userSpaceOnUse" id="color-13"><stop offset="0" stop-color="#eb0000"/><stop offset="1" stop-color="#ff5454"/></linearGradient></defs><g transform="translate(-246.14262,-144.95092)"><g data-paper-data="{&quot;isPaintingLayer&quot;:true}" fill-rule="nonzero" stroke-linejoin="miter" stroke-miterlimit="10" stroke-dasharray="" stroke-dashoffset="0" style="mix-blend-mode: normal"><path d="M246.14262,215.04908v-70.09816h85.27406v70.09816z" fill="none" stroke="none" stroke-width="0" stroke-linecap="butt"/><path d="M301.03898,180.67822c0,-6.51548 5.28184,-11.79734 11.79732,-11.79734c6.51548,0 11.79732,5.28184 11.79732,11.79734c0,6.51548 -5.28184,11.79732 -11.79732,11.79732c-6.51548,0 -11.79732,-5.28183 -11.79732,-11.79732z" fill="url(#color-1)" stroke="url(#color-2)" stroke-width="0" stroke-linecap="butt"/><path d="M266.82091,183.38307c0,-11.48098 9.30718,-20.78815 20.78815,-20.78815c11.48097,0 20.78815,9.30718 20.78815,20.78815c0,11.48098 -9.30718,20.78815 -20.78815,20.78815c-11.48097,0 -20.78815,-9.30718 -20.78815,-20.78815z" fill="url(#color-3)" stroke="url(#color-4)" stroke-width="0" stroke-linecap="butt"/><path d="M250.07105,175.84633c0,-11.23536 9.10806,-20.34342 20.34342,-20.34342c11.23537,0 20.34342,9.10807 20.34342,20.34342c0,11.23536 -9.10806,20.34342 -20.34342,20.34342c-11.23537,0 -20.34342,-9.10807 -20.34342,-20.34342z" fill="url(#color-5)" stroke="url(#color-6)" stroke-width="0" stroke-linecap="butt"/><path d="M257.02602,171.67628c0,-5.99293 4.85823,-10.85115 10.85115,-10.85115c5.99293,0 10.85115,4.85823 10.85115,10.85115c0,5.99293 -4.85823,10.85115 -10.85115,10.85115c-5.99293,0 -10.85115,-4.85823 -10.85115,-10.85115z" fill="url(#color-7)" stroke="#000000" stroke-width="0" stroke-linecap="butt"/><g><path d="M312.38334,182.19911v-3.25l9.125,-5.25v14z" fill="url(#color-8)" stroke="#000000" stroke-width="0" stroke-linecap="butt"/><path d="M294.80834,184.97245v-8.8h19.3v8.8z" fill="url(#color-9)" stroke="none" stroke-width="0" stroke-linecap="butt"/><path d="M300.08474,180.60325h-26.55556" fill="none" stroke="url(#color-10)" stroke-width="16.5" stroke-linecap="round"/><path d="M294.97362,189.49214v-18.11111" fill="none" stroke="url(#color-11)" stroke-width="7.5" stroke-linecap="round"/><path d="M278.8625,186.82547v-12.77777" fill="none" stroke="url(#color-12)" stroke-width="7.5" stroke-linecap="round"/></g><path d="M275.58033,189.27374c0,-5.99292 4.85823,-10.85116 10.85115,-10.85116c5.99293,0 10.85116,4.85823 10.85116,10.85116c0,5.99292 -4.85823,10.85115 -10.85116,10.85115c-5.99292,0 -10.85115,-4.85823 -10.85115,-10.85115z" fill="url(#color-13)" stroke="#000000" stroke-width="0" stroke-linecap="butt"/></g></g></svg>