<svg version="1.1" xmlns="http://www.w3.org/2000/svg" xmlns:xlink="http://www.w3.org/1999/xlink" width="83.73029" height="79.97682" viewBox="0,0,83.73029,79.97682"><defs><radialGradient cx="240.00002" cy="180" r="32.79887" gradientUnits="userSpaceOnUse" id="color-1"><stop offset="0" stop-color="#000000"/><stop offset="1" stop-color="#000000" stop-opacity="0"/></radialGradient><linearGradient x1="242.63646" y1="203.86112" x2="242.63646" y2="155.81908" gradientUnits="userSpaceOnUse" id="color-2"><stop offset="0" stop-color="#ff0000"/><stop offset="1" stop-color="#ff9261"/></linearGradient><linearGradient x1="218.61543" y1="170.10848" x2="246.49966" y2="170.10848" gradientUnits="userSpaceOnUse" id="color-3"><stop offset="0" stop-color="#ffffff"/><stop offset="1" stop-color="#ffffff" stop-opacity="0"/></linearGradient><linearGradient x1="189.06861" y1="179.8151" x2="225.85432" y2="179.8151" gradientUnits="userSpaceOnUse" id="color-4"><stop offset="0" stop-color="#ff0000"/><stop offset="1" stop-color="#000000"/></linearGradient><linearGradient x1="218.03736" y1="209.65579" x2="236.20259" y2="209.65579" gradientUnits="userSpaceOnUse" id="color-5"><stop offset="0" stop-color="#ff2e00" stop-opacity="0"/><stop offset="1" stop-color="#ff2e00"/></linearGradient><linearGradient x1="238.6135" y1="146.73206" x2="254.55442" y2="146.73206" gradientUnits="userSpaceOnUse" id="color-6"><stop offset="0" stop-color="#ff2e00" stop-opacity="0"/><stop offset="1" stop-color="#ff2e00"/></linearGradient><linearGradient x1="253.25814" y1="204.27789" x2="265.12115" y2="204.27789" gradientUnits="userSpaceOnUse" id="color-7"><stop offset="0" stop-color="#ff2e00" stop-opacity="0"/><stop offset="1" stop-color="#ff2e00"/></linearGradient></defs><g transform="translate(-189.0686,-138.76159)"><g data-paper-data="{&quot;isPaintingLayer&quot;:true}" fill-rule="nonzero" stroke-linejoin="miter" stroke-miterlimit="10" stroke-dasharray="" stroke-dashoffset="0" style="mix-blend-mode: normal"><path d="M207.20115,180c0,-18.11432 14.68456,-32.79887 32.79887,-32.79887c18.11432,0 32.79887,14.68456 32.79887,32.79887c0,18.11432 -14.68456,32.79887 -32.79887,32.79887c-18.11432,0 -32.79887,-14.68456 -32.79887,-32.79887z" fill="url(#color-1)" stroke="#000000" stroke-width="0" stroke-linecap="butt"/><path d="M242.63646,203.86112c-13.26645,0 -24.02102,-10.75457 -24.02102,-24.02102c0,-13.26645 10.75457,-24.02102 24.02102,-24.02102c13.26645,0 24.02102,10.75458 24.02102,24.02102c0,13.26645 -10.75457,24.02102 -24.02102,24.02102z" fill="url(#color-2)" stroke="none" stroke-width="NaN" stroke-linecap="butt"/><path d="M218.61543,179.8401c0,-13.26645 10.75457,-24.02102 24.02102,-24.02102c1.3151,0 2.60551,0.10568 3.86321,0.30902c-0.9467,0.30886 -1.81598,0.61751 -2.57324,0.89899c-3.10364,1.15366 -10.7169,5.1832 -10.7169,5.1832l-7.8168,7.90686l-4.53207,6.73867c0,0 -1.47093,6.10622 -1.65081,6.79794c-0.0623,0.23957 -0.11548,0.4886 -0.16257,0.74412c-0.28343,-1.47569 -0.43183,-2.9994 -0.43183,-4.55778z" fill="url(#color-3)" stroke="none" stroke-width="NaN" stroke-linecap="butt"/><path d="M250.96321,202.3415c0,0 -1.46603,-2.20835 -1.46603,-3.66926c0,-3.11646 2.52639,-5.64286 5.64286,-5.64286c2.20416,0 5.04194,3.10622 5.04194,3.10622c0,0 -2.3472,2.49821 -3.84935,3.52979c-1.56796,1.07678 -5.36942,2.6761 -5.36942,2.6761z" fill="#ea0000" stroke="none" stroke-width="0" stroke-linecap="butt"/><path d="M257.24824,160.59647c1.45487,1.09723 3.68889,3.69717 3.68889,3.69717c0,0 -2.97285,2.97721 -5.17484,2.87938c-3.11339,-0.13832 -5.52516,-2.77435 -5.38684,-5.88775c0.06484,-1.45947 1.62744,-3.60058 1.62744,-3.60058c0,0 3.72673,1.76647 5.24535,2.91179z" data-paper-data="{&quot;index&quot;:null}" fill="#ea0000" stroke="none" stroke-width="0" stroke-linecap="butt"/><path d="M207.46145,165.52569c10.15809,0 18.39286,14.28939 18.39286,14.28939c0,0 -8.23477,14.28941 -18.39286,14.28941c-10.15809,0 -18.39285,-14.28941 -18.39285,-14.28941c0,0 8.23476,-14.28939 18.39285,-14.28939z" fill="url(#color-4)" stroke="none" stroke-width="0" stroke-linecap="butt"/><path d="M212.89831,177.81681c6.72397,0 12.17482,2.08387 12.17482,2.08387c0,0 -5.45085,2.08387 -12.17482,2.08387c-6.72397,0 -12.17482,-2.08387 -12.17482,-2.08387c0,0 5.45085,-2.08387 12.17482,-2.08387z" fill="#ff0000" stroke="none" stroke-width="0" stroke-linecap="butt"/><path d="M227.11998,218.73841c-5.01619,0 -9.08262,-4.06643 -9.08262,-9.08262c0,-5.01619 4.06643,-9.08262 9.08262,-9.08262c5.01619,0 9.08262,4.06643 9.08262,9.08262c0,5.01619 -4.06643,9.08262 -9.08262,9.08262z" fill="url(#color-5)" stroke="none" stroke-width="0" stroke-linecap="butt"/><path d="M246.58395,154.70252c-4.40196,0 -7.97046,-3.5685 -7.97046,-7.97046c0,-4.40196 3.5685,-7.97046 7.97046,-7.97046c4.40196,0 7.97046,3.5685 7.97046,7.97046c0,4.40196 -3.5685,7.97046 -7.97046,7.97046z" fill="url(#color-6)" stroke="none" stroke-width="0" stroke-linecap="butt"/><path d="M259.18964,210.2094c-3.27588,0 -5.9315,-2.65563 -5.9315,-5.9315c0,-3.27588 2.65563,-5.9315 5.9315,-5.9315c3.27588,0 5.93151,2.65563 5.93151,5.9315c0,3.27588 -2.65563,5.9315 -5.93151,5.9315z" fill="url(#color-7)" stroke="none" stroke-width="0" stroke-linecap="butt"/><path d="M250.96145,193.72581c-2.83046,0 -5.125,-2.29454 -5.125,-5.125c0,-2.83046 2.29454,-5.125 5.125,-5.125c2.83046,0 5.125,2.29454 5.125,5.125c0,2.83046 -2.29454,5.125 -5.125,5.125z" fill="#000000" stroke="none" stroke-width="0" stroke-linecap="butt"/><path d="M251.53289,175.01152c-2.83046,0 -5.125,-2.29454 -5.125,-5.125c0,-2.83046 2.29454,-5.125 5.125,-5.125c2.83046,0 5.125,2.29454 5.125,5.125c0,2.83046 -2.29454,5.125 -5.125,5.125z" fill="#000000" stroke="none" stroke-width="0" stroke-linecap="butt"/><path d="M257.9048,183.52938v-8.42857" fill="none" stroke="#000000" stroke-width="2.5" stroke-linecap="round"/></g></g></svg>