<svg version="1.1" xmlns="http://www.w3.org/2000/svg" xmlns:xlink="http://www.w3.org/1999/xlink" width="80.13905" height="79.49276" viewBox="0,0,80.13905,79.49276"><defs><radialGradient cx="240.00005" cy="180" r="32.79887" gradientUnits="userSpaceOnUse" id="color-1"><stop offset="0" stop-color="#000000"/><stop offset="1" stop-color="#000000" stop-opacity="0"/></radialGradient><linearGradient x1="213.91859" y1="180" x2="262.86753" y2="180" gradientUnits="userSpaceOnUse" id="color-2"><stop offset="0" stop-color="#7e0000"/><stop offset="1" stop-color="#f50000"/></linearGradient><linearGradient x1="249.21817" y1="180.26873" x2="271.73125" y2="180.26873" gradientUnits="userSpaceOnUse" id="color-3"><stop offset="0" stop-color="#ff0000"/><stop offset="1" stop-color="#ff7b7b"/></linearGradient><linearGradient x1="262.575" y1="179.62163" x2="267.51135" y2="179.62163" gradientUnits="userSpaceOnUse" id="color-4"><stop offset="0" stop-color="#ffffff"/><stop offset="1" stop-color="#1a1a1a"/></linearGradient><linearGradient x1="210.36424" y1="163.11012" x2="229.05573" y2="163.11012" gradientUnits="userSpaceOnUse" id="color-5"><stop offset="0" stop-color="#8f0000"/><stop offset="1" stop-color="#a60000"/></linearGradient><linearGradient x1="210.36424" y1="196.88988" x2="229.0557" y2="196.88988" gradientUnits="userSpaceOnUse" id="color-6"><stop offset="0" stop-color="#8f0000"/><stop offset="1" stop-color="#a60000"/></linearGradient><linearGradient x1="215.78498" y1="163.4575" x2="226.8133" y2="163.4575" gradientUnits="userSpaceOnUse" id="color-7"><stop offset="0" stop-color="#ff0000"/><stop offset="1" stop-color="#ac0000"/></linearGradient><linearGradient x1="215.78498" y1="196.54251" x2="226.8133" y2="196.54251" gradientUnits="userSpaceOnUse" id="color-8"><stop offset="0" stop-color="#ff0000"/><stop offset="1" stop-color="#ac0000"/></linearGradient></defs><g transform="translate(-199.93048,-140.25362)"><g data-paper-data="{&quot;isPaintingLayer&quot;:true}" fill-rule="nonzero" stroke-linecap="butt" stroke-linejoin="miter" stroke-miterlimit="10" stroke-dasharray="" stroke-dashoffset="0" style="mix-blend-mode: normal"><path d="M199.93048,219.74638v-79.49276h80.13905v79.49276z" fill="none" stroke="none" stroke-width="NaN"/><path d="M207.20117,180c0,-18.11432 14.68456,-32.79887 32.79887,-32.79887c18.11432,0 32.79887,14.68456 32.79887,32.79887c0,18.11432 -14.68456,32.79887 -32.79887,32.79887c-18.11432,0 -32.79887,-14.68456 -32.79887,-32.79887z" fill="url(#color-1)" stroke="#000000" stroke-width="0"/><path d="M213.91859,180c0,-16.89182 10.9576,-30.58534 24.47448,-30.58534c13.51689,0 24.47448,13.69353 24.47448,30.58534c0,16.89182 -10.9576,30.58534 -24.47448,30.58534c-13.51689,0 -24.47448,-13.69353 -24.47448,-30.58534z" fill="url(#color-2)" stroke="#000000" stroke-width="0"/><path d="M271.73125,180.26873c0,9.88771 -5.03973,17.90327 -11.25655,17.90327c-6.21681,0 -11.25654,-8.01556 -11.25654,-17.90327c0,-9.88771 5.03973,-17.90327 11.25654,-17.90327c6.21681,0 11.25655,8.01556 11.25655,17.90327z" fill="url(#color-3)" stroke="#000000" stroke-width="0"/><path d="M244.00554,190.6726c0,-2.44128 1.97905,-4.42033 4.42033,-4.42033c2.44128,0 4.42033,1.97905 4.42033,4.42033c0,2.44128 -1.97905,4.42033 -4.42033,4.42033c-2.44128,0 -4.42033,-1.97905 -4.42033,-4.42033z" fill="#000000" stroke="#000000" stroke-width="0"/><path d="M244.05478,169.32741c0,-2.44128 1.97905,-4.42033 4.42033,-4.42033c2.44128,0 4.42033,1.97905 4.42033,4.42033c0,2.44128 -1.97905,4.42033 -4.42033,4.42033c-2.44128,0 -4.42033,-1.97905 -4.42033,-4.42033z" fill="#000000" stroke="#000000" stroke-width="0"/><path d="M272.01848,179.72894c0,4.68208 -2.35421,8.47765 -5.25829,8.47765c-2.90407,0 -5.25829,-3.79557 -5.25829,-8.47765c0,-4.68208 2.35421,-8.47765 5.25829,-8.47765c2.90407,0 5.25829,3.79557 5.25829,8.47765z" fill="#000000" stroke="none" stroke-width="0"/><path d="M267.51135,179.62163c0,2.96334 -1.10504,5.36561 -2.46818,5.36561c-1.36313,0 -2.46818,-2.40226 -2.46818,-5.36561c0,-2.96334 1.10504,-5.36561 2.46818,-5.36561c1.36313,0 2.46818,2.40226 2.46818,5.36561z" fill="url(#color-4)" stroke="none" stroke-width="0"/><path d="M229.05573,163.11012c0,6.28087 -4.18423,11.37252 -9.34573,11.37252c-5.1615,0 -9.34573,-5.09165 -9.34573,-11.37252c0,-6.28087 4.18423,-11.37252 9.34573,-11.37252c5.1615,0 9.34573,5.09165 9.34573,11.37252z" fill="url(#color-5)" stroke="#000000" stroke-width="0"/><path d="M229.0557,196.88988c0,6.28087 -4.18422,11.37251 -9.34573,11.37251c-5.16151,0 -9.34573,-5.09165 -9.34573,-11.37251c0,-6.28087 4.18422,-11.37251 9.34573,-11.37251c5.16151,0 9.34573,5.09165 9.34573,11.37251z" fill="url(#color-6)" stroke="#000000" stroke-width="0"/><path d="M226.8133,163.4575c0,4.00976 -2.46878,7.26032 -5.51417,7.26032c-3.04539,0 -5.51417,-3.25056 -5.51417,-7.26032c0,-4.00976 2.46878,-7.26032 5.51417,-7.26032c3.04539,0 5.51417,3.25056 5.51417,7.26032z" fill="url(#color-7)" stroke="#000000" stroke-width="0"/><path d="M226.8133,196.54251c0,4.00976 -2.46878,7.26032 -5.51417,7.26032c-3.04539,0 -5.51417,-3.25056 -5.51417,-7.26032c0,-4.00976 2.46878,-7.26032 5.51417,-7.26032c3.04539,0 5.51417,3.25056 5.51417,7.26032z" fill="url(#color-8)" stroke="#000000" stroke-width="0"/></g></g></svg>