<svg version="1.1" xmlns="http://www.w3.org/2000/svg" xmlns:xlink="http://www.w3.org/1999/xlink" width="65.59774" height="65.59774" viewBox="0,0,65.59774,65.59774"><defs><radialGradient cx="240.09814" cy="179.9019" r="32.79887" gradientUnits="userSpaceOnUse" id="color-1"><stop offset="0" stop-color="#000000"/><stop offset="1" stop-color="#000000" stop-opacity="0"/></radialGradient><linearGradient x1="241.3901" y1="154.63308" x2="241.3901" y2="205.17073" gradientUnits="userSpaceOnUse" id="color-2"><stop offset="0" stop-color="#ff7979"/><stop offset="1" stop-color="#eb0000"/></linearGradient><linearGradient x1="242.30828" y1="156.27325" x2="242.30828" y2="192.46418" gradientUnits="userSpaceOnUse" id="color-3"><stop offset="0" stop-color="#ffffff" stop-opacity="0.63922"/><stop offset="1" stop-color="#ffffff" stop-opacity="0"/></linearGradient><linearGradient x1="219.90445" y1="163.73941" x2="219.90445" y2="181.11312" gradientUnits="userSpaceOnUse" id="color-4"><stop offset="0" stop-color="#ff9e9e"/><stop offset="1" stop-color="#ff3a3a"/></linearGradient><linearGradient x1="220.28574" y1="178.69069" x2="220.28574" y2="196.0644" gradientUnits="userSpaceOnUse" id="color-5"><stop offset="0" stop-color="#ff6b6b"/><stop offset="1" stop-color="#eb0000"/></linearGradient></defs><g transform="translate(-207.29927,-147.10303)"><g data-paper-data="{&quot;isPaintingLayer&quot;:true}" fill-rule="nonzero" stroke-linejoin="miter" stroke-miterlimit="10" stroke-dasharray="" stroke-dashoffset="0" style="mix-blend-mode: normal"><path d="M240.09814,212.70078c-18.11432,0 -32.79887,-14.68456 -32.79887,-32.79887c0,-18.11432 14.68456,-32.79887 32.79887,-32.79887c18.11432,0 32.79887,14.68456 32.79887,32.79887c0,18.11432 -14.68456,32.79887 -32.79887,32.79887z" fill="url(#color-1)" stroke="#000000" stroke-width="0" stroke-linecap="butt"/><path d="M218.34939,179.90191c0,-13.95558 10.31568,-25.26883 23.04071,-25.26883c12.72503,0 23.0407,11.31324 23.0407,25.26883c0,13.95558 -10.31567,25.26883 -23.0407,25.26883c-12.72503,0 -23.04071,-11.31324 -23.04071,-25.26883z" fill="url(#color-2)" stroke="#000000" stroke-width="0" stroke-linecap="butt"/><path d="M223.43773,174.36872c0,-9.99384 8.44864,-18.09546 18.87055,-18.09546c10.42191,0 18.87055,8.10162 18.87055,18.09546c0,9.99384 -8.44864,18.09546 -18.87055,18.09546c-10.42191,0 -18.87055,-8.10161 -18.87055,-18.09546z" fill="url(#color-3)" stroke="#000000" stroke-width="0" stroke-linecap="butt"/><path d="M220.3529,163.77018c5.99144,0.40022 10.64766,4.60012 10.39999,9.38074c-0.24767,4.78063 -5.30546,8.33166 -11.2969,7.93143c-5.99144,-0.40022 -10.64766,-4.60012 -10.39999,-9.38074c0.24767,-4.78063 5.30546,-8.33165 11.2969,-7.93142z" fill="url(#color-4)" stroke="none" stroke-width="0" stroke-linecap="butt"/><path d="M222.49572,166.5824c4.18437,0.25344 7.42697,3.07529 7.24256,6.30277c-0.1844,3.22747 -3.726,5.63843 -7.91035,5.38498c-4.18436,-0.25344 -7.42697,-3.07529 -7.24257,-6.30278c0.1844,-3.22747 3.72601,-5.63842 7.91036,-5.38497z" fill="#ffffff" stroke="none" stroke-width="0" stroke-linecap="butt"/><path d="M226.47023,169.58542c1.88421,0.12587 3.34578,1.49979 3.26448,3.06875c-0.08129,1.56897 -1.67463,2.73882 -3.55885,2.61296c-1.88421,-0.12587 -3.34578,-1.49979 -3.26448,-3.06875c0.08129,-1.56897 1.67463,-2.73883 3.55885,-2.61297z" fill="#000000" stroke="none" stroke-width="0" stroke-linecap="butt"/><path d="M255.2717,188.75438l3.56677,-3.17044" fill="none" stroke="#000000" stroke-width="1.5" stroke-linecap="round"/><path d="M258.74033,174.31796l-3.56677,-3.17044" data-paper-data="{&quot;index&quot;:null}" fill="none" stroke="#000000" stroke-width="1.5" stroke-linecap="round"/><path d="M220.73419,178.72146c5.99144,0.40022 10.64766,4.60012 10.39999,9.38074c-0.24767,4.78063 -5.30546,8.33165 -11.2969,7.93142c-5.99144,-0.40022 -10.64766,-4.60012 -10.39998,-9.38074c0.24767,-4.78063 5.30546,-8.33166 11.29689,-7.93143z" fill="url(#color-5)" stroke="none" stroke-width="0" stroke-linecap="butt"/><path d="M222.91622,180.90268c4.18436,0.25344 7.42695,3.07529 7.24255,6.30277c-0.1844,3.22747 -3.72599,5.63842 -7.91034,5.38497c-4.18437,-0.25344 -7.42697,-3.07529 -7.24256,-6.30277c0.1844,-3.22747 3.72599,-5.63842 7.91034,-5.38497z" fill="#ffffff" stroke="none" stroke-width="0" stroke-linecap="butt"/><path d="M226.85152,183.9057c1.88421,0.12587 3.34578,1.49979 3.26448,3.06875c-0.08129,1.56897 -1.67464,2.73884 -3.55886,2.61297c-1.88421,-0.12587 -3.34578,-1.49979 -3.26448,-3.06875c0.08129,-1.56897 1.67463,-2.73883 3.55885,-2.61297z" fill="#000000" stroke="none" stroke-width="0" stroke-linecap="butt"/></g></g></svg>