<svg version="1.1" xmlns="http://www.w3.org/2000/svg" xmlns:xlink="http://www.w3.org/1999/xlink" width="37.6" height="43.6" viewBox="0,0,37.6,43.6"><g transform="translate(-221.2,-158.2)"><g data-paper-data="{&quot;isPaintingLayer&quot;:true}" fill-rule="nonzero" stroke="none" stroke-linecap="butt" stroke-linejoin="miter" stroke-miterlimit="10" stroke-dasharray="" stroke-dashoffset="0" style="mix-blend-mode: normal"><path d="M221.2,201.8v-43.6h37.6v43.6z" fill="none" stroke-width="0"/><path d="M234.60807,174.73351c0.53329,0.04194 0.9711,-0.11133 1.31344,-0.4598c0.35323,-0.34762 0.55723,-0.79278 0.61203,-1.33546c0.05587,-0.55333 -0.05521,-1.02862 -0.33321,-1.42587c-0.26605,-0.40703 -0.66573,-0.63152 -1.19901,-0.67345c-0.54417,-0.04279 -0.99341,0.11494 -1.34771,0.47319c-0.34234,0.34846 -0.54145,0.79936 -0.59732,1.35269c-0.0548,0.54268 0.05137,1.01224 0.31851,1.40863c0.27801,0.39725 0.68911,0.61727 1.23328,0.66006zM231.98496,188.6527l13.12816,-19.52841c0.27045,-0.39703 0.51061,-0.657 0.72048,-0.77993c0.22075,-0.12206 0.52703,-0.1677 0.91883,-0.13689c0.3265,0.02567 0.63407,0.1303 0.92268,0.31387c0.28861,0.18359 0.51093,0.42631 0.66694,0.72816c0.16797,0.29207 0.23475,0.60837 0.20037,0.94888c-0.03223,0.31923 -0.15207,0.63692 -0.35952,0.9531l-13.30752,19.67519c-0.35967,0.41146 -0.62812,0.67993 -0.80533,0.80544c-0.16741,0.137 -0.44157,0.19053 -0.8225,0.16058c-0.43535,-0.03423 -0.84099,-0.25384 -1.21696,-0.65879c-0.37704,-0.3943 -0.54192,-0.82556 -0.49464,-1.29376c0.03546,-0.35115 0.18512,-0.74696 0.44898,-1.18741zM234.27123,178.06948c-1.46926,-0.11553 -2.64645,-0.73365 -3.53154,-1.85436c-0.87421,-1.11984 -1.23933,-2.3927 -1.09536,-3.81858c0.09455,-0.9364 0.40577,-1.79142 0.93364,-2.56504c0.52896,-0.78428 1.20941,-1.38502 2.04136,-1.80225c0.84392,-0.42701 1.75019,-0.60243 2.71882,-0.52626c0.94686,0.07445 1.78792,0.3819 2.52317,0.92236c0.74614,0.54132 1.30095,1.23921 1.66444,2.09365c0.37438,0.8553 0.51428,1.75115 0.41973,2.68755c-0.09348,0.92577 -0.4047,1.7808 -0.93364,2.56507c-0.52788,0.77362 -1.21323,1.36861 -2.05608,1.78499c-0.84284,0.41638 -1.73769,0.58734 -2.68456,0.51289zM244.6782,192.49843c-1.46926,-0.11553 -2.64645,-0.73365 -3.53154,-1.85436c-0.87421,-1.11984 -1.23933,-2.3927 -1.09536,-3.81858c0.09455,-0.9364 0.40577,-1.79142 0.93364,-2.56504c0.52896,-0.78428 1.20941,-1.38502 2.04136,-1.80225c0.84392,-0.42702 1.75019,-0.60245 2.71881,-0.52628c0.94686,0.07445 1.78792,0.38191 2.52317,0.92239c0.74614,0.54132 1.30095,1.23921 1.66444,2.09365c0.37438,0.8553 0.51428,1.75115 0.41973,2.68755c-0.09348,0.92575 -0.4047,1.78078 -0.93364,2.56507c-0.52788,0.77362 -1.21323,1.36861 -2.05608,1.78499c-0.84284,0.41638 -1.73769,0.58734 -2.68456,0.51289zM245.01504,189.16247c0.53329,0.04194 0.97111,-0.11133 1.31345,-0.4598c0.35323,-0.34762 0.55723,-0.79278 0.61203,-1.33546c0.05587,-0.55333 -0.05521,-1.02862 -0.33321,-1.42587c-0.26605,-0.40703 -0.66573,-0.63152 -1.19902,-0.67345c-0.54417,-0.04279 -0.99341,0.11494 -1.3477,0.47319c-0.34234,0.34846 -0.54145,0.79936 -0.59732,1.35269c-0.0548,0.54268 0.05137,1.01224 0.31851,1.40863c0.27801,0.39725 0.68911,0.61727 1.23327,0.66006z" fill="#ff0000" stroke-width="0.40889"/></g></g></svg>