<svg version="1.1" xmlns="http://www.w3.org/2000/svg" xmlns:xlink="http://www.w3.org/1999/xlink" width="113" height="113" viewBox="0,0,113,113"><defs><radialGradient cx="239.68259" cy="178.41905" r="47.53042" gradientUnits="userSpaceOnUse" id="color-1"><stop offset="0" stop-color="#ffee38"/><stop offset="1" stop-color="#ffee38" stop-opacity="0"/></radialGradient><linearGradient x1="215.29697" y1="143.07103" x2="215.29697" y2="188.5723" gradientUnits="userSpaceOnUse" id="color-2"><stop offset="0" stop-color="#feffe6"/><stop offset="1" stop-color="#dbbf6c"/></linearGradient><linearGradient x1="220.3474" y1="159.33958" x2="220.3474" y2="184.92231" gradientUnits="userSpaceOnUse" id="color-3"><stop offset="0" stop-color="#000000"/><stop offset="1" stop-color="#757575"/></linearGradient></defs><g transform="translate(-183.5,-123.5)"><g data-paper-data="{&quot;isPaintingLayer&quot;:true}" fill-rule="nonzero" stroke-linejoin="miter" stroke-miterlimit="10" stroke-dasharray="" stroke-dashoffset="0" style="mix-blend-mode: normal"><path d="M192.15215,178.41905c0,-26.2503 21.28008,-47.53042 47.53042,-47.53042c26.25034,0 47.53042,21.28008 47.53042,47.53042c0,26.2503 -21.28008,47.53042 -47.53042,47.53042c-26.2503,0 -47.53041,-21.28008 -47.53041,-47.53042z" fill="url(#color-1)" stroke="none" stroke-width="0" stroke-linecap="butt"/><g><path d="M192.54629,165.82166c0,-12.56483 10.18581,-22.75066 22.75066,-22.75066c12.56483,0 22.75066,10.18581 22.75066,22.75066c0,12.56483 -10.18581,22.75066 -22.75066,22.75066c-12.56483,0 -22.75064,-10.18581 -22.75064,-22.75066z" fill="url(#color-2)" stroke="none" stroke-width="0" stroke-linecap="butt"/><path d="M209.0468,172.13095c0,-7.06448 5.05939,-12.79138 11.30045,-12.79138c6.24105,0 11.30042,5.7269 11.30042,12.79138c0,7.06448 -5.05937,12.79136 -11.30042,12.79136c-6.24105,0 -11.30045,-5.7269 -11.30045,-12.79136z" fill="url(#color-3)" stroke="none" stroke-width="0" stroke-linecap="butt"/><path d="M213.38102,158.7046l-10.78946,-5.6003" fill="none" stroke="#000000" stroke-width="2" stroke-linecap="round"/><path d="M223.71133,157.32721l6.42776,-6.51854" fill="none" stroke="#000000" stroke-width="2" stroke-linecap="round"/></g><text transform="translate(222.68947,202.86733) rotate(2.63239) scale(0.70524,0.7688) skewX(-0.64457)" font-size="40" xml:space="preserve" fill="#000000" fill-rule="nonzero" stroke="#524400" stroke-width="8.5" stroke-linecap="butt" stroke-linejoin="miter" stroke-miterlimit="10" stroke-dasharray="" stroke-dashoffset="0" font-family="Sans Serif" font-weight="normal" text-anchor="start" style="mix-blend-mode: normal"><tspan x="0" dy="0">way!</tspan></text><text transform="translate(222.68947,202.86733) rotate(2.63239) scale(0.70524,0.7688) skewX(-0.64457)" font-size="40" xml:space="preserve" fill="#ffffff" fill-rule="nonzero" stroke="#fbffc7" stroke-width="1" stroke-linecap="butt" stroke-linejoin="miter" stroke-miterlimit="10" stroke-dasharray="" stroke-dashoffset="0" font-family="Sans Serif" font-weight="normal" text-anchor="start" style="mix-blend-mode: normal"><tspan x="0" dy="0">way!</tspan></text><text transform="translate(232.00939,173.22565) rotate(2.93259) scale(0.71568,0.86891) skewX(0.04723)" font-size="40" xml:space="preserve" fill="#000000" fill-rule="nonzero" stroke="#524400" stroke-width="8.5" stroke-linecap="butt" stroke-linejoin="miter" stroke-miterlimit="10" stroke-dasharray="" stroke-dashoffset="0" font-family="Sans Serif" font-weight="normal" text-anchor="start" style="mix-blend-mode: normal"><tspan x="0" dy="0">This</tspan></text><text transform="translate(231.88353,173.22565) rotate(2.93259) scale(0.71568,0.86891) skewX(0.04723)" font-size="40" xml:space="preserve" fill="#ffffff" fill-rule="nonzero" stroke="#fbffc7" stroke-width="1" stroke-linecap="butt" stroke-linejoin="miter" stroke-miterlimit="10" stroke-dasharray="" stroke-dashoffset="0" font-family="Sans Serif" font-weight="normal" text-anchor="start" style="mix-blend-mode: normal"><tspan x="0" dy="0">This</tspan></text><path d="M183.5,236.5v-113h113v113z" fill="none" stroke="none" stroke-width="0" stroke-linecap="butt"/></g></g></svg>