<svg version="1.1" xmlns="http://www.w3.org/2000/svg" xmlns:xlink="http://www.w3.org/1999/xlink" width="100.92423" height="114.01071" viewBox="0,0,100.92423,114.01071"><defs><linearGradient x1="240" y1="220.82959" x2="240" y2="209.70612" gradientUnits="userSpaceOnUse" id="color-1"><stop offset="0" stop-color="#ff0000"/><stop offset="1" stop-color="#ff0000" stop-opacity="0.78431"/></linearGradient><linearGradient x1="234.43827" y1="214.09696" x2="245.56174" y2="214.09696" gradientUnits="userSpaceOnUse" id="color-2"><stop offset="0" stop-color="#d16400"/><stop offset="1" stop-color="#ff0000"/></linearGradient><radialGradient cx="240.00001" cy="181.9474" r="30.90241" gradientUnits="userSpaceOnUse" id="color-3"><stop offset="0" stop-color="#ffffff"/><stop offset="1" stop-color="#ff0000" stop-opacity="0.90196"/></radialGradient><linearGradient x1="261.62251" y1="160.3249" x2="218.3775" y2="203.56991" gradientUnits="userSpaceOnUse" id="color-4"><stop offset="0" stop-color="#d16400"/><stop offset="1" stop-color="#ff0f00"/></linearGradient><radialGradient cx="241.03499" cy="182.58702" r="42.7461" gradientUnits="userSpaceOnUse" id="color-5"><stop offset="0" stop-color="#ffffff" stop-opacity="0.51765"/><stop offset="1" stop-color="#ffffff"/></radialGradient></defs><g transform="translate(-183.8899,-126.27848)"><g data-paper-data="{&quot;isPaintingLayer&quot;:true}" fill-rule="nonzero" stroke-linecap="butt" stroke-linejoin="miter" stroke-miterlimit="10" stroke-dasharray="" stroke-dashoffset="0" style="mix-blend-mode: normal"><path d="M240,209.70612c3.07167,0 5.56173,2.49007 5.56173,5.56173c0,3.07167 -2.49007,3.21995 -5.56173,3.21995c-3.07167,0 -5.56173,-0.14828 -5.56173,-3.21995c0,-3.07167 2.49007,-5.56173 5.56173,-5.56173z" data-paper-data="{&quot;index&quot;:null}" fill="url(#color-1)" stroke="url(#color-2)" stroke-width="5"/><path d="M218.3775,203.56991c-12.19319,-12.19319 -12.397,-31.75844 -0.45521,-43.70023c11.94178,-11.94178 31.50704,-11.73797 43.70023,0.45521c12.19319,12.19319 12.397,31.75844 0.45521,43.70023c-11.94178,11.94178 -31.50704,11.73797 -43.70023,-0.45521z" data-paper-data="{&quot;index&quot;:null}" fill="url(#color-3)" stroke="url(#color-4)" stroke-width="3"/><path d="M183.8899,191.88933c0,0 30.26867,-5.85977 33.02863,-14.7167c2.94195,-9.44099 -14.1947,-27.44513 -14.1947,-27.44513c0,0 24.88264,18.13031 30.40937,18.13031c4.20548,0 8.61167,-41.57933 8.61167,-41.57933c0,0 7.84556,39.02391 11.4395,40.43877c4.15,1.63378 31.62976,-15.94573 31.62976,-15.94573c0,0 -22.74781,22.11294 -20.07752,27.96341c2.81946,6.17732 19.04447,10.07982 19.04447,10.07982c0,0 -24.77339,1.9207 -24.77339,6.29752c0,8.71497 14.88468,31.09935 14.88468,31.09935c0,0 -23.72334,-24.65358 -31.03779,-22.60022c-7.49922,2.10523 -33.98058,36.67779 -33.98058,36.67779c0,0 16.98409,-30.55589 14.08751,-40.46655c-2.89658,-9.91066 -39.07161,-7.93331 -39.07161,-7.93331z" fill="url(#color-5)" stroke="none" stroke-width="0"/></g></g></svg>