<svg version="1.1" xmlns="http://www.w3.org/2000/svg" xmlns:xlink="http://www.w3.org/1999/xlink" width="216.79941" height="148.21016" viewBox="0,0,216.79941,148.21016"><defs><radialGradient cx="392.45604" cy="188.07999" r="26.05926" gradientUnits="userSpaceOnUse" id="color-1"><stop offset="0" stop-color="#000000" stop-opacity="0.30588"/><stop offset="1" stop-color="#000000" stop-opacity="0"/></radialGradient><linearGradient x1="366.93355" y1="182.81796" x2="417.97852" y2="193.34201" gradientUnits="userSpaceOnUse" id="color-2"><stop offset="0" stop-color="#ff5454"/><stop offset="1" stop-color="#eb0000"/></linearGradient><radialGradient cx="351.27277" cy="180.01959" r="26.05927" gradientUnits="userSpaceOnUse" id="color-3"><stop offset="0" stop-color="#000000" stop-opacity="0.30588"/><stop offset="1" stop-color="#000000" stop-opacity="0"/></radialGradient><linearGradient x1="325.75027" y1="174.75754" x2="376.79521" y2="185.2816" gradientUnits="userSpaceOnUse" id="color-4"><stop offset="0" stop-color="#ff5454"/><stop offset="1" stop-color="#eb0000"/></linearGradient><radialGradient cx="307.18147" cy="183.66479" r="23.93565" gradientUnits="userSpaceOnUse" id="color-5"><stop offset="0" stop-color="#000000" stop-opacity="0.63137"/><stop offset="1" stop-color="#000000" stop-opacity="0"/></radialGradient><linearGradient x1="283.73886" y1="178.83156" x2="330.62411" y2="188.49801" gradientUnits="userSpaceOnUse" id="color-6"><stop offset="0" stop-color="#ff5454"/><stop offset="1" stop-color="#eb0000"/></linearGradient><linearGradient x1="292.50028" y1="189.64397" x2="296.88253" y2="168.38872" gradientUnits="userSpaceOnUse" id="color-7"><stop offset="0" stop-color="#eb0000"/><stop offset="1" stop-color="#ff5454"/></linearGradient><linearGradient x1="328.04873" y1="174.53981" x2="418.39963" y2="193.16767" gradientUnits="userSpaceOnUse" id="color-8"><stop offset="0" stop-color="#333333"/><stop offset="1" stop-color="#cacaca"/></linearGradient><linearGradient x1="425.06107" y1="182.00436" x2="326.85211" y2="161.75639" gradientUnits="userSpaceOnUse" id="color-9"><stop offset="0" stop-color="#ff4c4c"/><stop offset="1" stop-color="#ec0000"/></linearGradient><linearGradient x1="423.35246" y1="187.06082" x2="326.1683" y2="167.02416" gradientUnits="userSpaceOnUse" id="color-10"><stop offset="0" stop-color="#e8e8e8"/><stop offset="1" stop-color="#9e9e9e"/></linearGradient><linearGradient x1="376.97904" y1="199.43419" x2="361.03478" y2="196.14691" gradientUnits="userSpaceOnUse" id="color-11"><stop offset="0" stop-color="#929292"/><stop offset="1" stop-color="#000000"/></linearGradient><linearGradient x1="324.2213" y1="185.39089" x2="286.95331" y2="177.70728" gradientUnits="userSpaceOnUse" id="color-12"><stop offset="0" stop-color="#929292"/><stop offset="1" stop-color="#000000"/></linearGradient><linearGradient x1="317.79431" y1="194.43372" x2="322.17653" y2="173.17845" gradientUnits="userSpaceOnUse" id="color-13"><stop offset="0" stop-color="#eb0000"/><stop offset="1" stop-color="#ff5454"/></linearGradient><linearGradient x1="346.34651" y1="150.95407" x2="278.29964" y2="303.3298" gradientUnits="userSpaceOnUse" id="color-14"><stop offset="0" stop-color="#ff0000" stop-opacity="0.28235"/><stop offset="1" stop-color="#ffffff"/></linearGradient></defs><g transform="translate(-208.35262,-153.95509)"><g data-paper-data="{&quot;isPaintingLayer&quot;:true}" fill-rule="nonzero" stroke-linejoin="miter" stroke-miterlimit="10" stroke-dasharray="" stroke-dashoffset="0" style="mix-blend-mode: normal"><path d="M387.19401,213.60243c-14.09566,-2.90614 -23.16656,-16.68883 -20.26045,-30.78451c2.90613,-14.09565 16.68883,-23.16656 30.7845,-20.26044c14.09565,2.90613 23.16656,16.68883 20.26044,30.7845c-2.90613,14.09565 -16.68883,23.16657 -30.78449,20.26045z" fill="url(#color-1)" stroke="url(#color-2)" stroke-width="0" stroke-linecap="butt"/><path d="M346.01073,205.54202c-14.09565,-2.90613 -23.16656,-16.68883 -20.26045,-30.78451c2.90613,-14.09565 16.68883,-23.16656 30.7845,-20.26044c14.09565,2.90613 23.16657,16.68883 20.26045,30.78449c-2.90613,14.09565 -16.68883,23.16657 -30.78451,20.26045z" fill="url(#color-3)" stroke="url(#color-4)" stroke-width="0" stroke-linecap="butt"/><path d="M302.3483,207.10738c-12.94699,-2.6693 -21.27869,-15.32884 -18.60939,-28.27582c2.66931,-12.94697 15.32883,-21.27872 28.27581,-18.6094c12.94699,2.6693 21.27869,15.32884 18.60939,28.27582c-2.66931,12.94697 -15.32883,21.27872 -28.27581,18.6094z" fill="url(#color-5)" stroke="url(#color-6)" stroke-width="0" stroke-linecap="butt"/><path d="M292.50028,189.64397c-5.86948,-1.21011 -9.64662,-6.94927 -8.4365,-12.81876c1.21011,-5.86948 6.94927,-9.64662 12.81876,-8.4365c5.86948,1.21011 9.64662,6.94927 8.4365,12.81876c-1.21011,5.86948 -6.94927,9.64662 -12.81876,8.4365z" fill="url(#color-7)" stroke="#000000" stroke-width="0" stroke-linecap="butt"/><g><path d="M419.44322,188.106l-3.94747,7.62907l-85.0883,-17.279l-1.3151,-8.97792z" data-paper-data="{&quot;index&quot;:null}" fill="url(#color-8)" stroke="none" stroke-width="0" stroke-linecap="butt"/><path d="M326.14855,165.16893l0.79449,-3.85351l3.43639,-2.38944l92.56154,19.08363l2.21106,3.55377l-0.79449,3.85351z" data-paper-data="{&quot;index&quot;:null}" fill="url(#color-9)" stroke="none" stroke-width="0" stroke-linecap="butt"/><path d="M325.77695,168.92227l0.78268,-3.79624l97.18415,20.03668l-0.78268,3.79624z" data-paper-data="{&quot;index&quot;:null}" fill="url(#color-10)" stroke="none" stroke-width="0" stroke-linecap="butt"/><path d="M410.68714,194.74366c0,0 -15.01196,4.82019 -40.79335,-0.49522c-23.96789,-4.94153 -34.87871,-15.10626 -34.87871,-15.10626" data-paper-data="{&quot;index&quot;:null}" fill="none" stroke-opacity="0.53333" stroke="#000000" stroke-width="2" stroke-linecap="round"/><path d="M352.5432,188.82434l18.96814,-2.42148l15.90522,9.87525" data-paper-data="{&quot;index&quot;:null}" fill="none" stroke-opacity="0.53333" stroke="#000000" stroke-width="2" stroke-linecap="round"/><path d="M418.59617,179.29935l-43.30125,-8.92752" data-paper-data="{&quot;index&quot;:null}" fill="none" stroke-opacity="0.34902" stroke="#ffffff" stroke-width="4.5" stroke-linecap="round"/><path d="M389.77325,172.3629l26.01957,5.36452" data-paper-data="{&quot;index&quot;:null}" fill="none" stroke-opacity="0.34902" stroke="#ffffff" stroke-width="2.5" stroke-linecap="round"/><path d="M377.70955,195.89102l-4.08059,4.43552l-10.12335,-2.08715l-1.74035,-5.63563z" fill="url(#color-11)" stroke="none" stroke-width="0" stroke-linecap="butt"/><path d="M368.31423,199.23077c0,0 -4.46068,2.67479 -14.57733,0.27647c-10.96432,-2.59927 -12.08481,-10.24055 -12.08481,-10.24055l-6.93156,-10.13747l-1.46843,8.40312l-50.12237,-10.34881c0,0 1.61845,-7.09993 16.56741,-8.08642c14.94897,-0.98648 30.93719,4.95159 30.93719,4.95159" fill="none" stroke-opacity="0.51765" stroke="#000000" stroke-width="2" stroke-linecap="round"/><path d="M325.27798,181.3873l-1.63067,6.78753l-37.99851,-4.14047c0,0 -2.68418,-5.2015 -2.32707,-7.1155c0.45596,-2.44379 4.83946,-6.35012 4.83946,-6.35012z" fill="url(#color-12)" stroke="none" stroke-width="0" stroke-linecap="butt"/></g><path d="M317.79431,194.43372c-5.86947,-1.2101 -9.64662,-6.94928 -8.43652,-12.81875c1.21011,-5.86948 6.94928,-9.64662 12.81876,-8.43651c5.86947,1.2101 9.64662,6.94927 8.43649,12.81877c-1.2101,5.86947 -6.94927,9.64662 -12.81876,8.4365z" fill="url(#color-13)" stroke="#000000" stroke-width="0" stroke-linecap="butt"/><path d="M418.4547,183.15563c0,0 -10.00124,74.75355 -61.46114,104.288c-56.36591,32.35018 -112.22209,2.58053 -123.8281,-6.21841c-9.50114,-7.20314 -22.49036,-18.52622 -24.80859,-30.69365c-0.34112,-1.79038 19.94942,7.24014 27.9576,9.46994c9.81707,2.73347 17.83922,2.96645 17.83922,2.96645c0,0 -7.03631,-5.80365 -9.13855,-9.14217c-1.8019,-2.86156 -2.71338,-9.67951 -2.71338,-9.67951l19.0229,2.60978l-5.1048,-6.41485c0,0 19.75843,4.63059 42.83776,-10.47406c23.07934,-15.10463 26.58884,-38.47026 31.60431,-44.4834c5.91762,-7.09472 -1.38017,23.29622 -1.38017,23.29622c0,0 4.50521,-0.85854 13.19539,-8.03906c8.12573,-6.71412 12.75884,-12.58793 12.75884,-12.58793l2.00201,27.26506c0,0 14.87655,-15.72625 29.29833,-25.28379c5.91139,-3.91757 15.49204,13.68309 15.49204,13.68309l16.42632,-20.56172z" data-paper-data="{&quot;index&quot;:null}" fill="url(#color-14)" stroke="none" stroke-width="0" stroke-linecap="butt"/></g></g></svg>