<svg version="1.1" xmlns="http://www.w3.org/2000/svg" xmlns:xlink="http://www.w3.org/1999/xlink" width="224.13135" height="224.13135" viewBox="0,0,224.13135,224.13135"><defs><radialGradient cx="229.8505" cy="178.67398" r="49.81448" gradientUnits="userSpaceOnUse" id="color-1"><stop offset="0" stop-color="#ff002e"/><stop offset="1" stop-color="#ff002e" stop-opacity="0"/></radialGradient><radialGradient cx="184.47431" cy="154.02273" r="29.04676" gradientUnits="userSpaceOnUse" id="color-2"><stop offset="0" stop-color="#ff0000"/><stop offset="1" stop-color="#ff0000" stop-opacity="0"/></radialGradient><linearGradient x1="208.64957" y1="189.5715" x2="196.08995" y2="139.81705" gradientUnits="userSpaceOnUse" id="color-3"><stop offset="0" stop-color="#d40027"/><stop offset="1" stop-color="#ff6666"/></linearGradient><radialGradient cx="177.97636" cy="191.40153" r="29.04676" gradientUnits="userSpaceOnUse" id="color-4"><stop offset="0" stop-color="#ff0000"/><stop offset="1" stop-color="#ff0000" stop-opacity="0"/></radialGradient><linearGradient x1="201.24853" y1="174.97315" x2="201.24853" y2="209.70454" gradientUnits="userSpaceOnUse" id="color-5"><stop offset="0" stop-color="#ff6666"/><stop offset="1" stop-color="#d40027"/></linearGradient><linearGradient x1="255.81874" y1="178.68475" x2="212.41773" y2="178.68475" gradientUnits="userSpaceOnUse" id="color-6"><stop offset="0" stop-color="#000000"/><stop offset="1" stop-color="#ff365a"/></linearGradient><radialGradient cx="284.17527" cy="181.46339" r="54.58462" gradientUnits="userSpaceOnUse" id="color-7"><stop offset="0" stop-color="#cc0025"/><stop offset="1" stop-color="#ff4949"/></radialGradient><linearGradient x1="325.73141" y1="186.07863" x2="246.58685" y2="186.07863" gradientUnits="userSpaceOnUse" id="color-8"><stop offset="0" stop-color="#ffffff"/><stop offset="1" stop-color="#e30000"/></linearGradient><radialGradient cx="285.31769" cy="188.27745" r="23.77378" gradientUnits="userSpaceOnUse" id="color-9"><stop offset="0" stop-color="#ff5656"/><stop offset="1" stop-color="#ff5656" stop-opacity="0"/></radialGradient><radialGradient cx="281.36081" cy="194.26495" r="19.12627" gradientUnits="userSpaceOnUse" id="color-10"><stop offset="0" stop-color="#ff5656"/><stop offset="1" stop-color="#ff5656" stop-opacity="0"/></radialGradient><radialGradient cx="305.02679" cy="185.94085" r="17.33877" gradientUnits="userSpaceOnUse" id="color-11"><stop offset="0" stop-color="#ff6d6d"/><stop offset="1" stop-color="#ff6d6d" stop-opacity="0"/></radialGradient><radialGradient cx="271.13991" cy="199.42193" r="9.83127" gradientUnits="userSpaceOnUse" id="color-12"><stop offset="0" stop-color="#ff4e4e"/><stop offset="1" stop-color="#ff4e4e" stop-opacity="0"/></radialGradient><radialGradient cx="276.14054" cy="180.04751" r="9.83127" gradientUnits="userSpaceOnUse" id="color-13"><stop offset="0" stop-color="#ff4e4e"/><stop offset="1" stop-color="#ff4e4e" stop-opacity="0"/></radialGradient><radialGradient cx="277.04631" cy="200.28106" r="11.83036" gradientUnits="userSpaceOnUse" id="color-14"><stop offset="0" stop-color="#ff7e7e"/><stop offset="1" stop-color="#ff7e7e" stop-opacity="0"/></radialGradient><radialGradient cx="290.46639" cy="181.12767" r="7.97612" gradientUnits="userSpaceOnUse" id="color-15"><stop offset="0" stop-color="#ff8989"/><stop offset="1" stop-color="#ff8989" stop-opacity="0"/></radialGradient><radialGradient cx="295.1475" cy="183.01721" r="7.97612" gradientUnits="userSpaceOnUse" id="color-16"><stop offset="0" stop-color="#ff6060"/><stop offset="1" stop-color="#ff6060" stop-opacity="0"/></radialGradient><radialGradient cx="297.06589" cy="191.88674" r="7.40798" gradientUnits="userSpaceOnUse" id="color-17"><stop offset="0" stop-color="#ff7e7e"/><stop offset="1" stop-color="#ff7e7e" stop-opacity="0"/></radialGradient><radialGradient cx="277.07332" cy="180.38884" r="12.62361" gradientUnits="userSpaceOnUse" id="color-18"><stop offset="0" stop-color="#ff6060"/><stop offset="1" stop-color="#ff6060" stop-opacity="0"/></radialGradient><radialGradient cx="302.20572" cy="189.77953" r="4.91254" gradientUnits="userSpaceOnUse" id="color-19"><stop offset="0" stop-color="#ffb5b5"/><stop offset="1" stop-color="#ffb5b5" stop-opacity="0"/></radialGradient><radialGradient cx="263.28962" cy="179.25135" r="7.97611" gradientUnits="userSpaceOnUse" id="color-20"><stop offset="0" stop-color="#dc0000"/><stop offset="1" stop-color="#dc0000" stop-opacity="0"/></radialGradient><radialGradient cx="264.70875" cy="204.64188" r="7.97611" gradientUnits="userSpaceOnUse" id="color-21"><stop offset="0" stop-color="#dc0000"/><stop offset="1" stop-color="#dc0000" stop-opacity="0"/></radialGradient><radialGradient cx="302.85866" cy="185.9563" r="11.83035" gradientUnits="userSpaceOnUse" id="color-22"><stop offset="0" stop-color="#ff6060"/><stop offset="1" stop-color="#ff6060" stop-opacity="0"/></radialGradient><radialGradient cx="302.11816" cy="185.05464" r="7.40798" gradientUnits="userSpaceOnUse" id="color-23"><stop offset="0" stop-color="#ff6060"/><stop offset="1" stop-color="#ff6060" stop-opacity="0"/></radialGradient><radialGradient cx="225.7953" cy="176.76565" r="49.81448" gradientUnits="userSpaceOnUse" id="color-24"><stop offset="0" stop-color="#ff0000"/><stop offset="1" stop-color="#ff0000" stop-opacity="0"/></radialGradient><linearGradient x1="274.0047" y1="128.53025" x2="274.0047" y2="201.18226" gradientUnits="userSpaceOnUse" id="color-25"><stop offset="0" stop-color="#ff002e" stop-opacity="0"/><stop offset="1" stop-color="#ff002e"/></linearGradient><linearGradient x1="203.11436" y1="134.92235" x2="203.11436" y2="211.10096" gradientUnits="userSpaceOnUse" id="color-26"><stop offset="0" stop-color="#ffffff" stop-opacity="0.50196"/><stop offset="1" stop-color="#ffffff" stop-opacity="0"/></linearGradient><linearGradient x1="259.14141" y1="146.6787" x2="259.14141" y2="225.80968" gradientUnits="userSpaceOnUse" id="color-27"><stop offset="0" stop-color="#ffffff" stop-opacity="0.50196"/><stop offset="1" stop-color="#ffffff" stop-opacity="0"/></linearGradient><linearGradient x1="288.0153" y1="138.18493" x2="288.0153" y2="216.85382" gradientUnits="userSpaceOnUse" id="color-28"><stop offset="0" stop-color="#ffffff" stop-opacity="0"/><stop offset="1" stop-color="#ffffff" stop-opacity="0.50196"/></linearGradient><linearGradient x1="240.08933" y1="133.06945" x2="240.08933" y2="206.58091" gradientUnits="userSpaceOnUse" id="color-29"><stop offset="0" stop-color="#ff002e" stop-opacity="0"/><stop offset="1" stop-color="#ff002e"/></linearGradient><linearGradient x1="183.29834" y1="138.50109" x2="183.29834" y2="225.95563" gradientUnits="userSpaceOnUse" id="color-30"><stop offset="0" stop-color="#ff002e"/><stop offset="1" stop-color="#ff002e" stop-opacity="0"/></linearGradient><linearGradient x1="222.20348" y1="129.79891" x2="233.58118" y2="234.49553" gradientUnits="userSpaceOnUse" id="color-31"><stop offset="0" stop-color="#ffffff" stop-opacity="0.50196"/><stop offset="1" stop-color="#ffffff" stop-opacity="0"/></linearGradient></defs><g transform="translate(-127.93433,-67.93433)"><g data-paper-data="{&quot;isPaintingLayer&quot;:true}" fill-rule="nonzero" stroke-width="0" stroke-linecap="butt" stroke-linejoin="miter" stroke-miterlimit="10" stroke-dasharray="" stroke-dashoffset="0" style="mix-blend-mode: normal"><path d="M229.8505,128.8595c27.51178,0 49.81449,22.3027 49.81449,49.81448c0,27.51178 -22.30271,49.81448 -49.81449,49.81448c-27.51178,0 -49.81448,-22.3027 -49.81448,-49.81448c0,-27.51178 22.3027,-49.81448 49.81448,-49.81448z" data-paper-data="{&quot;index&quot;:null}" fill="url(#color-1)" stroke="none"/><path d="M352.06568,292.06568h-224.13135v-224.13135h224.13135z" data-paper-data="{&quot;index&quot;:null}" fill="none" stroke="none"/><path d="M188.09632,125.20268c15.91686,2.00039 27.19842,16.5252 25.19803,32.44207c-2.00039,15.91686 -16.5252,27.19842 -32.44207,25.19803c-15.91686,-2.00039 -27.19841,-16.5252 -25.19802,-32.44207c2.00039,-15.91686 16.52519,-27.19842 32.44206,-25.19803z" data-paper-data="{&quot;index&quot;:null}" fill="url(#color-2)" stroke="#000000"/><path d="M178.63011,181.00796c-18.27603,-3.9206 -27.85321,-22.3531 -27.85321,-22.3531c0,0 11.32078,-14.3947 27.56851,-12.75825c7.98948,0.8047 20.98147,11.23922 29.61119,14.28392c18.9827,6.6974 44.90049,9.35312 44.90049,9.35312l2.86148,8.15612c0,0 -26.52118,-4.15665 -48.45729,-2.24937c-11.89502,1.03424 -22.60809,6.85966 -28.63116,5.56758z" data-paper-data="{&quot;index&quot;:null}" fill="url(#color-3)" stroke="#ff0000"/><path d="M188.32029,164.25899c14.9904,5.71279 22.5114,22.49606 16.7986,37.48647c-5.71279,14.9904 -22.49606,22.5114 -37.48647,16.7986c-14.9904,-5.7128 -22.51139,-22.49606 -16.79859,-37.48647c5.71279,-14.9904 22.49605,-22.5114 37.48646,-16.7986z" data-paper-data="{&quot;index&quot;:null}" fill="url(#color-4)" stroke="#000000"/><path d="M149.59792,196.17294c0,0 8.94616,-17.58687 27.31652,-21.03851c5.72637,-1.07593 15.68717,3.53972 26.8204,4.73328c22.34384,2.39539 49.16434,1.23631 49.16434,1.23631l-0.97614,6.80584c0,0 -25.97726,1.99165 -45.12512,8.20111c-8.7048,2.82288 -21.95955,12.92153 -29.96701,13.52151c-16.28428,1.22015 -27.23303,-13.45953 -27.23303,-13.45953z" data-paper-data="{&quot;index&quot;:null}" fill="url(#color-5)" stroke="#ff0000"/><path d="M215.1303,205.33168c0,0 1.98803,-6.23895 3.76558,-8.5744c1.63005,-2.14164 6.49563,-4.90732 6.49563,-4.90732l-18.09751,-2.53146l15.97398,-9.25762l-15.67259,-8.507l18.98794,-4.50371c0,0 -7.32871,-3.07116 -9.72723,-4.93521c-2.32079,-1.80365 -4.13698,-8.82614 -4.13698,-8.82614c0,0 11.1216,5.00413 17.1555,5.00413c7.91588,0 25.94412,-2.25185 25.94412,-2.25185v45.28732c0,0 -14.00993,-2.92697 -21.41556,-2.19834c-4.12319,0.40568 -19.2729,6.20164 -19.2729,6.20164z" data-paper-data="{&quot;index&quot;:null}" fill="url(#color-6)" stroke="#ff0000"/><path d="M292.58635,200.27483c-18.44535,9.73422 -22.27555,16.05161 -30.41802,12.82595c-8.14246,-3.22566 -8.62998,-12.09012 -11.45462,-21.4646c-1.77329,-5.88521 -9.76545,-9.64648 -9.76545,-9.64648c0,0 7.9773,-5.40094 9.76217,-10.28954c2.3001,-6.29972 5.65618,-17.51379 10.67199,-20.97883c6.34646,-3.94248 8.69376,-1.28058 26.79523,8.74696c11.76407,6.51687 39.48526,16.47697 39.22277,21.50575c-0.2904,5.5635 -18.25858,10.56395 -34.81407,19.30082z" data-paper-data="{&quot;index&quot;:null}" fill="url(#color-7)" stroke="#000000"/><path d="M254.18595,191.4727c0,0 -8.89274,-3.50117 -8.84017,-5.23655c0.05419,-1.78788 8.63444,-5.16254 8.63444,-5.16254c0,0 11.6423,-0.00101 16.76732,0.34833c5.2949,0.36092 14.50903,1.78361 14.50903,1.78361l-15.31046,-7.54591c0,0 19.75615,2.71468 28.3857,4.35089c9.18343,1.74124 20.61793,5.92313 20.61793,5.92313c0,0 -10.37109,3.51944 -18.54767,5.06703c-9.26709,1.754 -29.65523,4.79342 -29.65523,4.79342l14.58049,-6.86525c0,0 -12.37328,1.8302 -17.89,2.28085c-4.74795,0.38784 -13.25138,0.26298 -13.25138,0.26298z" data-paper-data="{&quot;index&quot;:null}" fill="url(#color-8)" stroke="#ff0000"/><g data-paper-data="{&quot;index&quot;:null}" stroke="none"><path d="M286.75537,196.57918c-12.93733,2.24049 -24.06877,0.33995 -24.86279,-4.24497c-0.79401,-4.58492 9.05008,-10.11799 21.98742,-12.35848c12.93734,-2.24049 24.06878,-0.33996 24.8628,4.24496c0.79401,4.58493 -9.05008,10.118 -21.98742,12.35849z" fill="url(#color-9)"/><path d="M282.51743,200.94378c-10.40823,1.8025 -19.3636,0.2735 -20.0024,-3.41513c-0.63879,-3.68862 7.2809,-8.14003 17.68913,-9.94253c10.40823,-1.8025 19.3636,-0.27351 20.0024,3.41512c0.6388,3.68862 -7.28088,8.14004 -17.68911,9.94254z" fill="url(#color-10)"/><path d="M306.07531,191.9955c-9.43549,1.63404 -17.55392,0.24794 -18.13301,-3.09595c-0.57909,-3.34389 6.60045,-7.37929 16.03595,-9.01333c9.43549,-1.63404 17.55392,-0.24794 18.13301,3.09595c0.57909,3.34388 -6.60043,7.37928 -16.03593,9.01332z" fill="url(#color-11)"/><path d="M271.73442,202.85499c-5.35002,0.92652 -9.95326,0.14058 -10.28161,-1.75544c-0.32836,-1.89603 3.74251,-4.18414 9.09254,-5.11066c5.35003,-0.92652 9.95326,-0.14058 10.28161,1.75544c0.32836,1.89601 -3.74249,4.18413 -9.09252,5.11065z" fill="url(#color-12)"/><path d="M276.73506,183.48055c-5.35002,0.92652 -9.95326,0.14058 -10.28161,-1.75544c-0.32835,-1.89602 3.74252,-4.18413 9.09255,-5.11065c5.35002,-0.92652 9.95326,-0.14058 10.28161,1.75544c0.32836,1.89603 -3.74251,4.18414 -9.09254,5.11066z" fill="url(#color-13)"/><path d="M277.76176,204.41218c-6.4379,1.11491 -11.97715,0.16917 -12.37227,-2.11239c-0.39512,-2.28156 4.5035,-5.03493 10.94141,-6.14985c6.4379,-1.11492 11.97713,-0.16917 12.37225,2.11239c0.39512,2.28156 -4.5035,5.03493 -10.94141,6.14985z" fill="url(#color-14)"/><path d="M282.60725,182.48871c-0.26639,-1.53825 3.0363,-3.39459 7.37679,-4.14628c4.34048,-0.75168 8.07508,-0.11405 8.34147,1.42419c0.26639,1.53825 -3.03629,3.39459 -7.37678,4.14628c-4.34049,0.75168 -8.07509,0.11405 -8.34148,-1.42419z" fill="url(#color-15)"/><path d="M287.28836,184.37825c-0.26639,-1.53825 3.0363,-3.39459 7.37679,-4.14628c4.34048,-0.75168 8.07508,-0.11405 8.34147,1.42419c0.26639,1.53825 -3.03629,3.39459 -7.37678,4.14628c-4.34049,0.75168 -8.07509,0.11405 -8.34148,-1.42419z" fill="url(#color-16)"/><path d="M289.76655,193.15084c-0.24742,-1.42868 2.82004,-3.1528 6.85135,-3.85094c4.03132,-0.69814 7.4999,-0.10592 7.74732,1.32275c0.24742,1.42868 -2.82003,3.1528 -6.85134,3.85094c-4.03132,0.69814 -7.49991,0.10592 -7.74733,-1.32275z" fill="url(#color-17)"/><path d="M264.63484,182.54294c-0.42161,-2.43454 4.80549,-5.37254 11.67509,-6.56222c6.86957,-1.18968 12.78025,-0.18051 13.20186,2.25403c0.42161,2.43454 -4.80548,5.37255 -11.67507,6.56222c-6.86959,1.18968 -12.78027,0.18051 -13.20188,-2.25403z" fill="url(#color-18)"/><path d="M297.36521,190.61781c-0.16407,-0.94741 1.87009,-2.09075 4.54343,-2.55372c2.67334,-0.46297 4.9735,-0.07025 5.13757,0.87717c0.16407,0.94741 -1.87007,2.09074 -4.54341,2.55371c-2.67335,0.46297 -4.97352,0.07026 -5.13759,-0.87716z" fill="url(#color-19)"/><path d="M255.43049,180.61239c-0.26639,-1.53825 3.0363,-3.39459 7.37679,-4.14628c4.34048,-0.75168 8.07508,-0.11404 8.34147,1.42419c0.26639,1.53825 -3.03629,3.39459 -7.37678,4.14628c-4.34047,0.75168 -8.07509,0.11405 -8.34148,-1.42419z" fill="url(#color-20)"/><path d="M256.84961,206.00292c-0.26639,-1.53825 3.0363,-3.39459 7.37679,-4.14628c4.34048,-0.75168 8.07508,-0.11404 8.34147,1.42419c0.26639,1.53825 -3.03629,3.39459 -7.37678,4.14628c-4.34047,0.75168 -8.07509,0.11404 -8.34148,-1.42419z" fill="url(#color-21)"/><path d="M303.5741,190.08742c-6.43789,1.11491 -11.97716,0.16917 -12.37228,-2.11239c-0.39512,-2.28156 4.50351,-5.03493 10.94142,-6.14985c6.4379,-1.11492 11.97713,-0.16917 12.37225,2.11239c0.39512,2.28156 -4.5035,5.03493 -10.94141,6.14985z" fill="url(#color-22)"/><path d="M294.81882,186.31874c-0.24742,-1.42868 2.82004,-3.1528 6.85135,-3.85094c4.03132,-0.69814 7.4999,-0.10592 7.74732,1.32275c0.24742,1.42867 -2.82003,3.1528 -6.85134,3.85094c-4.03132,0.69814 -7.49991,0.10592 -7.74733,-1.32275z" fill="url(#color-23)"/></g><g><path d="M225.7953,126.95117c27.51178,0 49.81449,22.3027 49.81449,49.81448c0,27.51178 -22.30271,49.81448 -49.81449,49.81448c-27.51178,0 -49.81448,-22.3027 -49.81448,-49.81448c0,-27.51178 22.3027,-49.81448 49.81448,-49.81448z" data-paper-data="{&quot;index&quot;:null}" fill="url(#color-24)" stroke="none"/><path d="M289.05863,128.53026c0,0 -13.51671,22.89898 -18.43843,36.76062c-4.92172,13.86164 -5.02064,35.89138 -5.02064,35.89138c0,0 -12.23543,-18.4262 -3.51016,-43.60296c5.79698,-16.72719 26.96923,-29.04905 26.96923,-29.04905z" data-paper-data="{&quot;index&quot;:null}" fill="url(#color-25)" stroke="#000000"/><path d="M204.21949,170.12888c-0.54842,14.69923 3.55061,40.97208 3.55061,40.97208c0,0 -15.12103,-19.27296 -14.32711,-36.95836c1.19497,-26.61901 19.37295,-39.22025 19.37295,-39.22025c0,0 -8.04801,20.50728 -8.59644,35.20652z" data-paper-data="{&quot;index&quot;:null}" fill="url(#color-26)" stroke="#000000"/><path d="M260.30619,189.00045c3.35096,16.77774 11.80654,36.80923 11.80654,36.80923c0,0 -21.0527,-8.88438 -24.90756,-29.10988c-5.80211,-30.44223 14.68076,-50.0211 14.68076,-50.0211c0,0 -4.93069,25.54401 -1.57973,42.32175z" data-paper-data="{&quot;index&quot;:null}" fill="url(#color-27)" stroke="#000000"/><path d="M280.69562,216.85381c0,0 5.40105,-26.86939 5.49663,-42.03005c0.09557,-15.16066 -7.27036,-36.63883 -7.27036,-36.63883c0,0 18.15207,13.79225 18.18679,41.25592c0.02307,18.24658 -16.41305,37.41297 -16.41305,37.41297z" data-paper-data="{&quot;index&quot;:null}" fill="url(#color-28)" stroke="#000000"/><path d="M241.35511,167.00347c-0.81095,14.18729 4.12295,39.57743 4.12295,39.57743c0,0 -18.84377,-18.70248 -17.69956,-35.77108c1.72219,-25.69065 24.67174,-37.74037 24.67174,-37.74037c0,0 -10.28418,19.74674 -11.09513,33.93403z" data-paper-data="{&quot;index&quot;:null}" fill="url(#color-29)" stroke="#000000"/><path d="M191.16766,138.5011c0,0 -5.9428,29.06688 -6.854,45.86215c-0.91121,16.79527 4.00335,41.59238 4.00335,41.59238c0,0 -14.25915,-17.7184 -12.78045,-48.17101c0.98244,-20.2324 15.63111,-39.28353 15.63111,-39.28353z" data-paper-data="{&quot;index&quot;:null}" fill="url(#color-30)" stroke="#000000"/><path d="M229.09261,180.84105c4.4862,22.30101 25.35873,50.30371 25.35873,50.30371c0,0 -39.37805,-11.55621 -47.90713,-51.85518c-5.66661,-26.77422 18.94123,-50.0176 18.94123,-50.0176c0,0 -0.87905,29.26808 3.60716,51.56909z" data-paper-data="{&quot;index&quot;:null}" fill="url(#color-31)" stroke="#000000"/></g></g></g></svg>