<svg version="1.1" xmlns="http://www.w3.org/2000/svg" xmlns:xlink="http://www.w3.org/1999/xlink" width="85.96734" height="85.27405" viewBox="0,0,85.96734,85.27405"><defs><radialGradient cx="240.00002" cy="180.00003" r="32.79887" gradientUnits="userSpaceOnUse" id="color-1"><stop offset="0" stop-color="#000000"/><stop offset="1" stop-color="#000000" stop-opacity="0"/></radialGradient><linearGradient x1="216.06467" y1="180.00003" x2="263.93535" y2="180.00003" gradientUnits="userSpaceOnUse" id="color-2"><stop offset="0" stop-color="#eb0000"/><stop offset="1" stop-color="#ff5454"/></linearGradient><linearGradient x1="219.81826" y1="178.61949" x2="241.02022" y2="178.61949" gradientUnits="userSpaceOnUse" id="color-3"><stop offset="0" stop-color="#ff6666"/><stop offset="1" stop-color="#ffffff"/></linearGradient><linearGradient x1="216.72232" y1="160.76388" x2="242.71253" y2="160.76388" gradientUnits="userSpaceOnUse" id="color-4"><stop offset="0" stop-color="#ffffff"/><stop offset="1" stop-color="#ff7979"/></linearGradient><linearGradient x1="217.86134" y1="197.41439" x2="242.21253" y2="197.41439" gradientUnits="userSpaceOnUse" id="color-5"><stop offset="0" stop-color="#ffffff"/><stop offset="1" stop-color="#ff7979"/></linearGradient><linearGradient x1="209.32477" y1="177.80871" x2="242.34302" y2="177.80871" gradientUnits="userSpaceOnUse" id="color-6"><stop offset="0" stop-color="#ffffff"/><stop offset="1" stop-color="#ff7979"/></linearGradient></defs><g transform="translate(-197.01633,-137.36298)"><g data-paper-data="{&quot;isPaintingLayer&quot;:true}" fill-rule="nonzero" stroke-linejoin="miter" stroke-miterlimit="10" stroke-dasharray="" stroke-dashoffset="0" style="mix-blend-mode: normal"><path d="M197.01633,222.63704v-85.27405h85.96734v85.27405z" fill="none" stroke="none" stroke-width="NaN" stroke-linecap="butt"/><path d="M207.20114,180.00003c0,-18.11432 14.68456,-32.79887 32.79887,-32.79887c18.11432,0 32.79887,14.68456 32.79887,32.79887c0,18.11432 -14.68456,32.79887 -32.79887,32.79887c-18.11432,0 -32.79887,-14.68456 -32.79887,-32.79887z" fill="url(#color-1)" stroke="#000000" stroke-width="0" stroke-linecap="butt"/><path d="M216.06467,180.00003c0,-13.21912 10.71622,-23.93534 23.93534,-23.93534c13.21912,0 23.93534,10.71622 23.93534,23.93534c0,13.21912 -10.71622,23.93534 -23.93534,23.93534c-13.21912,0 -23.93534,-10.71622 -23.93534,-23.93534z" fill="url(#color-2)" stroke="#000000" stroke-width="0" stroke-linecap="butt"/><path d="M246.16386,190.67262c0,-2.44128 1.97905,-4.42033 4.42033,-4.42033c2.44128,0 4.42033,1.97905 4.42033,4.42033c0,2.44128 -1.97905,4.42033 -4.42033,4.42033c-2.44128,0 -4.42033,-1.97905 -4.42033,-4.42033z" fill="#000000" stroke="#000000" stroke-width="0" stroke-linecap="butt"/><path d="M246.21309,169.32744c0,-2.44128 1.97905,-4.42033 4.42033,-4.42033c2.44128,0 4.42033,1.97905 4.42033,4.42033c0,2.44128 -1.97905,4.42033 -4.42033,4.42033c-2.44128,0 -4.42033,-1.97905 -4.42033,-4.42033z" fill="#000000" stroke="#000000" stroke-width="0" stroke-linecap="butt"/><path d="M257.23931,168.72228v22.27848" fill="none" stroke="#000000" stroke-width="2" stroke-linecap="round"/><path d="M224.41868,199.61949l-0.40004,-42l17.00158,-3c0,0 2.14537,13.02053 2.00019,25.25c-0.14069,11.85145 -2.00019,26 -2.00019,26z" fill="url(#color-3)" stroke="none" stroke-width="NaN" stroke-linecap="butt"/><path d="M208.47232,160.76388c0,-8.22594 5.81811,-14.89439 12.9951,-14.89439c7.177,0 12.9951,6.66845 12.9951,14.89439c0,8.22594 -5.81811,14.89439 -12.9951,14.89439c-7.177,0 -12.9951,-6.66844 -12.9951,-14.89438z" fill="url(#color-4)" stroke="none" stroke-width="0" stroke-linecap="butt"/><path d="M209.61134,197.41439c0,-7.70719 5.4512,-13.95511 12.17559,-13.95511c6.72439,0 12.17559,6.24792 12.17559,13.95511c0,7.70719 -5.4512,13.9551 -12.17559,13.9551c-6.72439,0 -12.17559,-6.24791 -12.17559,-13.9551z" fill="url(#color-5)" stroke="none" stroke-width="0" stroke-linecap="butt"/><path d="M197.57477,177.80871c0,-9.48383 7.39139,-17.172 16.50913,-17.172c9.11774,0 16.50912,7.68816 16.50912,17.172c0,9.48383 -7.39138,17.172 -16.50912,17.172c-9.11774,0 -16.50913,-7.68817 -16.50913,-17.172z" fill="url(#color-6)" stroke="none" stroke-width="0" stroke-linecap="butt"/></g></g></svg>