<svg version="1.1" xmlns="http://www.w3.org/2000/svg" xmlns:xlink="http://www.w3.org/1999/xlink" width="238.17943" height="307.30693" viewBox="0,0,238.17943,307.30693"><defs><linearGradient x1="49.49429" y1="124.08551" x2="169.53698" y2="-13.82488" gradientUnits="userSpaceOnUse" id="color-1"><stop offset="0" stop-color="#5c6be0"/><stop offset="1" stop-color="#505dc3"/></linearGradient><linearGradient x1="118.819" y1="164.28286" x2="152.32397" y2="-10.5459" gradientUnits="userSpaceOnUse" id="color-2"><stop offset="0" stop-color="#5c6be0"/><stop offset="1" stop-color="#505dc3"/></linearGradient><linearGradient x1="100.85554" y1="40.37956" x2="100.85554" y2="190.80247" gradientUnits="userSpaceOnUse" id="color-3"><stop offset="0" stop-color="#6478dc" stop-opacity="0"/><stop offset="1" stop-color="#6478dc"/></linearGradient><linearGradient x1="-46" y1="138.1339" x2="172.40882" y2="138.1339" gradientUnits="userSpaceOnUse" id="color-4"><stop offset="0" stop-color="#6e81fc" stop-opacity="0"/><stop offset="1" stop-color="#6e81fc"/></linearGradient><radialGradient cx="65.5051" cy="209.10705" r="10.09566" gradientUnits="userSpaceOnUse" id="color-5"><stop offset="0" stop-color="#bbc8ff"/><stop offset="1" stop-color="#7485ff"/></radialGradient><linearGradient x1="-35.64271" y1="218.56977" x2="69.838" y2="287.84511" gradientUnits="userSpaceOnUse" id="color-6"><stop offset="0" stop-color="#8193fa"/><stop offset="1" stop-color="#b4bdff"/></linearGradient><radialGradient cx="93.65706" cy="81.30745" r="84.90903" gradientUnits="userSpaceOnUse" id="color-7"><stop offset="0" stop-color="#ffffff"/><stop offset="1" stop-color="#ffffff" stop-opacity="0"/></radialGradient><radialGradient cx="94.61413" cy="80.29682" r="84.90905" gradientUnits="userSpaceOnUse" id="color-8"><stop offset="0" stop-color="#ffffff"/><stop offset="1" stop-color="#ffffff" stop-opacity="0"/></radialGradient><radialGradient cx="94.19751" cy="78.86831" r="58.11744" gradientUnits="userSpaceOnUse" id="color-9"><stop offset="0" stop-color="#9eabff"/><stop offset="1" stop-color="#9eabff" stop-opacity="0"/></radialGradient><radialGradient cx="94.66843" cy="79.23926" r="30.11537" gradientUnits="userSpaceOnUse" id="color-10"><stop offset="0" stop-color="#ffffff"/><stop offset="1" stop-color="#ffffff" stop-opacity="0"/></radialGradient></defs><g transform="translate(46.00001,0)"><g data-paper-data="{&quot;isPaintingLayer&quot;:true}" fill-rule="nonzero" stroke-linejoin="miter" stroke-miterlimit="10" stroke-dasharray="" stroke-dashoffset="0" style="mix-blend-mode: normal"><path d="M49.40232,127.26809c-2.06016,-1.1623 0.01088,-14.13763 7.14622,-21.9459c0.8112,-0.88774 16.18214,-36.15114 17.02887,-37.07436c1.43026,-1.55942 -11.61901,31.17499 -9.98999,29.40263c22.21462,-24.16939 -54.84676,-59.47421 -51.47224,-58.52502c24.11722,6.78371 88.04345,39.0441 83.31324,46.08104c-12.71157,18.91048 19.54036,-4.24719 10.2492,6.42689c-9.95514,11.4369 -26.47465,24.64119 -39.44022,31.34185c-8.38047,4.33105 -16.09777,4.70885 -16.83512,4.29284z" data-paper-data="{&quot;index&quot;:null}" fill="url(#color-1)" stroke="none" stroke-width="0" stroke-linecap="butt"/><path d="M117.1588,166.04467c-0.46521,-0.40563 -2.82046,-7.15432 -3.29526,-16.55723c-0.73455,-14.54746 0.80881,-35.55147 3.58737,-50.05002c2.59324,-13.53151 -4.90773,26.08873 0.92814,5.2972c2.09363,-7.45904 -55.34693,-63.103 -55.34693,-63.103c0,0 46.16905,14.72948 54.06027,27.804c14.09377,23.35117 8.53166,49.80032 5.22166,68.90244c-0.40201,2.32003 18.54635,-26.07164 18.19163,-24.03292c-0.21001,1.20695 -13.85236,32.90675 -14.05528,34.06478c-1.78482,10.18594 -7.99185,18.80803 -9.29163,17.67472z" fill="url(#color-2)" stroke="none" stroke-width="0" stroke-linecap="butt"/><path d="M158.61109,73.62529c0,0 -6.92447,16.45143 -4.55727,17.70064c1.26718,0.66871 -37.9364,-43.13534 -40.65334,-48.31057c-0.42934,-0.8178 25.51826,45.29149 28.00063,42.19193c0.27781,-0.34686 27.2204,15.7916 16.87655,32.42003c-2.81797,4.5301 16.40927,-14.0677 14.10513,-9.68221c-3.85472,7.33674 -15.9317,22.38499 -23.81936,33.23306c-2.84578,3.91387 -9.39548,7.25267 -14.92031,7.60166c-2.25869,0.14267 -3.18763,-36.17683 -1.01751,-46.87938c0.65959,-3.2529 1.72484,21.13941 2.97499,17.65264c7.70057,-21.47757 23.01047,-45.92778 23.01047,-45.92778z" fill="#5d6de5" stroke="none" stroke-width="0" stroke-linecap="butt"/><path d="M41.72505,58.36224c0,0 12.75441,18.01909 16.29953,18.01909c2.19762,0 -14.08449,-23.74078 -9.77357,-28.63646c4.47031,-5.07668 25.67208,19.7376 27.68023,24.48854c0.49304,1.16644 -5.05688,-10.92937 -4.06508,-16.09466c0.11098,-0.57805 9.20234,22.56824 7.36467,48.44082c-0.50064,7.04849 10.52559,-26.62237 10.53749,-20.06091c0.0199,10.97704 -4.82475,36.06996 -7.35844,53.65315c-0.91412,6.34383 -6.5225,14.30364 -12.77849,18.12767c-2.55761,1.56337 -26.09707,-40.4068 -30.17089,-54.28519c-1.23818,-4.21815 15.08803,23.69632 14.39704,18.83916c-4.2562,-29.91887 -12.13249,-62.49122 -12.13249,-62.49122z" fill="#5d6de5" stroke="none" stroke-width="0" stroke-linecap="butt"/><path d="M26.46818,98.53236c2.77925,-1.60009 11.87608,-25.01386 10.8514,-31.8175c-0.17684,-1.17418 29.85703,72.17251 29.85703,72.17251l-25.40595,14.62694c0,0 7.13918,-5.68008 -2.19511,-13.16534c-8.04179,-6.44878 -38.36586,-22.62352 -38.36586,-22.62352c0,0 16.3956,-4.71846 13.56243,-9.63949c-5.98029,-10.38735 -15.51843,-28.42064 -15.51843,-28.42064c0,0 23.16665,21.19753 27.21449,18.86706z" data-paper-data="{&quot;index&quot;:null}" fill="#6e7ef4" stroke="none" stroke-width="0" stroke-linecap="butt"/><path d="M14.85467,111.26553c1.92966,-8.13175 6.33397,-15.30864 12.23797,-21.30593c2.87134,-2.91671 -16.47478,-43.36646 -12.68351,-45.6993c2.95651,-1.81919 34.72665,14.77647 34.73575,30.68594c0.00642,11.22608 6.72814,19.07812 8.61807,16.94823c3.24935,-3.66191 8.28607,-1.50367 12.9961,-9.90915c2.33675,-4.17014 2.24082,-11.05266 -0.07973,-15.08614c-5.99799,-10.42544 -14.18475,-20.17184 -10.98217,-20.15636c3.02608,0.01462 20.2604,3.44417 21.73977,9.14299c-0.38357,0.65638 8.70939,30.03127 7.20923,34.20074c0,0 -5.77273,2.55834 -1.00143,4.27396c4.77131,1.71562 6.48694,-3.0557 6.48694,-3.0557c1.6278,-4.52987 2.87188,-8.63343 4.05686,-13.00611c0.85979,-0.83755 -7.38714,-15.30474 -6.54204,-17.97775c1.1227,2.37459 15.39549,10.31014 17.16316,10.72961c7.04815,1.67253 12.65243,5.85885 18.91196,8.70274c-3.56471,-0.33803 -4.95131,3.33469 -4.95131,3.33469l-0.73974,1.98198c-0.85597,2.77075 -1.81402,7.03145 -4.55474,8.36923c0,0 -4.28597,2.70911 -1.57687,6.99508c2.7091,4.28598 6.99506,1.57688 6.99506,1.57688c1.12404,-0.77624 2.46737,-1.3053 3.37213,-2.32874c2.67203,-3.02253 4.23577,-7.80326 5.43768,-11.56895l0.55361,-1.44368c0,0 -12.8834,-14.06344 -14.8035,-16.19254c4.4452,2.22574 22.65168,15.767 26.54376,18.42819c1.35788,0.92844 -13.03203,-36.61426 -10.51802,-34.17772c3.18194,3.08388 28.6761,50.35113 31.09586,53.78118c2.26139,3.20555 4.18715,6.9494 5.7394,10.33914c2.67469,5.8409 7.67511,-37.29711 7.93752,-31.20046c0.17907,4.16055 -3.85896,57.10845 -4.84028,61.24378c-4.7902,20.18623 -14.87937,35.55892 -39.19234,40.53877c-7.42682,1.52119 -33.33845,-1.99528 -57.6378,-9.12273c-20.60687,-6.04438 -40.11479,-15.16669 -45.57259,-20.98187c-13.33377,-14.20687 -20.11586,-31.36762 -16.15476,-48.05996zM131.82206,136.42357c1.32546,-0.91361 2.82329,-1.61751 3.97639,-2.74086c2.93098,-2.8554 4.48002,-7.18046 6.15332,-10.81429l0.7626,-2.48085c0,0 1.46606,-4.85379 -3.38774,-6.31987c-0.00395,-0.00119 -0.00788,-0.00238 -0.01183,-0.00356l2.32462,-3.45041c0,0 2.82568,-4.21003 -1.38435,-7.03571c-4.21003,-2.82568 -7.03569,1.38437 -7.03569,1.38437l-2.7356,4.08958c-1.47316,2.81419 -3.25051,8.17752 -6.12432,10.18189c0,0 -3.96972,3.15438 -0.81534,7.12411c0.40443,0.50897 0.82227,0.90084 1.24343,1.19725c-0.42738,0.39879 -3.5605,3.53606 -0.45412,7.11038c0.25219,0.29019 0.50726,0.53923 0.76332,0.75173c2.79101,3.61142 6.72531,1.00624 6.72531,1.00624zM66.6712,109.6002l-0.23166,1.54631c-0.4512,-0.25063 -0.98725,-0.45642 -1.62338,-0.59874c-4.94806,-1.10702 -6.05507,3.84105 -6.05507,3.84105l-1.27374,5.69666c-0.56781,2.18447 -1.13562,4.36894 -1.70343,6.55341c0,0 -1.27502,4.90745 3.63243,6.18248c0.62918,0.16347 1.19865,0.22531 1.71338,0.2089c0.28711,1.13223 1.05779,2.29659 2.79443,3.11253c4.58911,2.15613 6.74523,-2.43299 6.74523,-2.43299c2.69377,-5.80137 3.85576,-11.9158 5.34446,-18.09543l0.68443,-4.49991c0,0 0.75713,-5.01354 -4.25641,-5.77066c-5.01354,-0.75713 -5.77066,4.25641 -5.77066,4.25641z" data-paper-data="{&quot;index&quot;:null}" fill="#7485ff" stroke="none" stroke-width="0" stroke-linecap="butt"/><path d="M15.29134,112.2883c1.92966,-8.13175 6.33397,-15.30865 12.23798,-21.30594c2.87134,-2.91671 -19.05659,-47.05474 -15.26531,-49.38757c2.95651,-1.81919 37.30845,18.46476 37.31754,34.37422c0.00642,11.22608 6.72814,19.07814 8.61807,16.94824c3.24935,-3.66191 16.76914,-5.19195 21.47917,-13.59745c8.37662,-14.94887 8.47037,-38.2146 12.91196,-38.19313c3.02608,0.01462 4.76959,4.55067 6.24897,10.24948c-0.38357,0.65638 -0.53989,1.18428 -0.53989,1.18428l-2.15559,7.27957c-0.59847,2.02694 -1.06175,3.96966 -1.63328,5.81406c-2.98463,0.52575 -3.81091,3.80857 -3.81091,3.80857l-0.32705,1.29942c-0.33541,1.33363 -0.65987,2.60721 -0.9825,3.84192c-0.35118,0.65085 -0.68292,1.53046 -0.67135,2.51862c-1.07194,3.93413 -2.19327,7.60429 -3.69343,11.77377c0,0 -1.71562,4.77131 3.0557,6.48694c4.77131,1.71562 6.48694,-3.0557 6.48694,-3.0557c1.6278,-4.52987 2.87188,-8.63343 4.05686,-13.00611c0.85979,-0.83755 1.73673,-1.66246 2.34581,-2.68507c1.09058,-1.83106 2.06956,-4.50544 2.91466,-7.17843c1.1227,2.37459 2.48649,4.04005 4.25415,4.45952c7.04815,1.67253 13.75893,4.0147 20.01846,6.85859c-3.56471,-0.33803 -4.95131,3.33469 -4.95131,3.33469l-0.73972,1.98199c-0.85597,2.77075 -1.81402,7.03145 -4.55474,8.36923c0,0 -4.28597,2.70911 -1.57687,6.99508c2.7091,4.28598 6.99506,1.57688 6.99506,1.57688c1.12404,-0.77624 2.46737,-1.3053 3.37213,-2.32874c2.67203,-3.02253 4.23577,-7.80326 5.43768,-11.56894l0.5536,-1.44368c0,0 1.13209,-2.99859 -0.78801,-5.12768c4.4452,2.22574 8.63619,4.70214 12.52827,7.36333c1.35788,0.92844 6.75063,0.52601 11.0006,-4.26016c9.73119,-10.95894 -19.46192,-33.82683 -16.94791,-31.39029c3.18194,3.08388 24.1054,51.82386 26.52515,55.25389c2.26139,3.20555 4.18715,6.9494 5.7394,10.33914c2.67469,5.8409 16.527,-27.70756 16.7894,-21.61091c0.17907,4.16055 -12.71084,47.51891 -13.69216,51.65424c-4.7902,20.18623 -14.87938,35.55892 -39.19235,40.53877c-7.42682,1.52119 -33.33845,-1.99529 -57.6378,-9.12273c-20.60687,-6.04438 -40.11479,-15.16669 -45.57259,-20.98186c-13.33377,-14.20687 -20.11585,-31.36762 -16.15476,-48.05996zM132.25874,137.44635c1.32546,-0.91361 2.82329,-1.61751 3.97638,-2.74086c2.93098,-2.8554 4.48002,-7.18046 6.15332,-10.81429l0.7626,-2.48085c0,0 1.46606,-4.85381 -3.38774,-6.31988c-0.00395,-0.00119 -0.00789,-0.00238 -0.01183,-0.00356l2.32462,-3.45041c0,0 2.82568,-4.21003 -1.38435,-7.03571c-4.21003,-2.82568 -7.03571,1.38435 -7.03571,1.38435l-2.7356,4.08958c-1.47316,2.81419 -3.2505,8.17752 -6.1243,10.1819c0,0 -3.96972,3.15438 -0.81535,7.12411c0.40443,0.50897 0.82227,0.90084 1.24343,1.19725c-0.42738,0.39879 -3.5605,3.53605 -0.45411,7.11036c0.25219,0.29019 0.50726,0.53923 0.76332,0.75173c2.79101,3.61142 6.72531,1.00624 6.72531,1.00624zM67.10788,110.62298l-0.23166,1.54631c-0.4512,-0.25063 -0.98725,-0.45642 -1.6234,-0.59874c-4.94806,-1.10702 -6.05507,3.84105 -6.05507,3.84105l-1.27374,5.69664c-0.56781,2.18447 -1.13562,4.36894 -1.70343,6.55342c0,0 -1.27503,4.90745 3.63242,6.18248c0.62918,0.16347 1.19866,0.22531 1.71339,0.2089c0.28711,1.13223 1.05779,2.29659 2.79443,3.11253c4.58911,2.15613 6.74523,-2.43299 6.74523,-2.43299c2.69377,-5.80137 3.85575,-11.9158 5.34446,-18.09545l0.68444,-4.49991c0,0 0.75713,-5.01354 -4.25641,-5.77066c-5.01354,-0.75713 -5.77066,4.25642 -5.77066,4.25642z" data-paper-data="{&quot;index&quot;:null}" fill="url(#color-3)" stroke="none" stroke-width="0" stroke-linecap="butt"/><path d="M21.45715,165.60712c0,0 7.73022,-21.78306 -6.89784,-34.87053c-15.91176,-14.23597 -72.49515,13.7191 -58.2941,3.5823c13.62997,-9.72918 51.39597,-69.83982 94.22567,-62.08085c20.5093,3.71544 67.358,31.76701 82.4225,41.97973c41.27954,27.98475 39.48391,90.50118 39.48391,90.50118z" fill="url(#color-4)" stroke="none" stroke-width="0" stroke-linecap="butt"/><path d="M188.92941,195.24453l-31.54269,-8.95382" data-paper-data="{&quot;index&quot;:null}" fill="none" stroke="#8f8f8f" stroke-width="6.5" stroke-linecap="round"/><path d="M146.97061,187.85946c1.84971,-11.78105 9.92597,-20.29884 18.03889,-19.02506c8.1129,1.27378 13.19024,11.85679 11.34054,23.63783c-1.84971,11.78105 -9.926,20.29884 -18.0389,19.02505c-8.11289,-1.27379 -13.19024,-11.8568 -11.34052,-23.63783z" data-paper-data="{&quot;index&quot;:null}" fill="#7485ff" stroke="none" stroke-width="0" stroke-linecap="butt"/><path d="M-11.86072,160.03611l10.3507,-41.55035l169.62655,51.27611l-10.3507,41.55034z" data-paper-data="{&quot;index&quot;:null}" fill="#7485ff" stroke="none" stroke-width="0" stroke-linecap="butt"/><path d="M157.56537,211.47277c-5.43149,-0.85276 -9.50239,-5.87812 -11.04499,-12.642c6.26336,0.72754 12.70009,0.89145 18.88289,1.93919c2.31945,0.39304 4.62695,0.88222 6.93156,1.38842c-3.52603,6.36618 -9.13894,10.19843 -14.76945,9.3144z" data-paper-data="{&quot;index&quot;:null}" fill="#5966c6" stroke="none" stroke-width="0" stroke-linecap="butt"/><path d="M-12.1495,159.97295l3.19722,-12.83444c1.30137,0.53233 2.61748,1.0308 3.95322,1.48411c0.86201,0.29252 1.73091,0.57048 2.60527,0.83648c11.32746,4.63823 22.36061,10.03198 34.13493,13.52077c10.69384,3.16864 21.89127,4.54993 32.67085,7.50347c10.63958,5.30337 21.65214,10.36537 32.87938,14.19155c10.43078,3.55476 21.56683,5.09277 31.92534,8.83354c5.48016,1.97906 10.89316,3.73412 16.59169,5.14076c4.77105,0.61428 9.659,0.84634 14.47289,1.34311l-2.80419,11.25679z" data-paper-data="{&quot;index&quot;:null}" fill="#5966c6" stroke="none" stroke-width="0" stroke-linecap="butt"/><path d="M165.27838,168.87222c5.65759,0.88828 9.83895,6.30367 11.22441,13.49549c-3.5378,-0.71124 -6.67246,-1.82098 -10.27297,-2.73509c-4.79085,-1.21633 -9.62185,-2.31676 -14.41826,-3.54784c3.52072,-5.08695 8.48686,-7.99442 13.46683,-7.21252z" data-paper-data="{&quot;index&quot;:null}" fill="#b4bdff" stroke="none" stroke-width="0" stroke-linecap="butt"/><path d="M-1.24114,118.52359l169.62655,51.27611l-2.43204,9.76285c-9.31476,-2.35566 -18.77579,-4.29133 -27.83404,-7.61766c-10.72439,-2.68243 -20.52068,-7.63671 -30.91424,-11.17966c-12.2852,-4.18777 -25.35488,-6.84712 -37.7979,-10.61035c-8.48916,-2.56745 -16.59264,-6.26314 -25.06396,-8.8776c-9.26166,-2.07757 -18.59532,-4.07258 -27.60806,-7.0832c-5.6114,-1.87442 -10.81596,-4.8939 -16.54282,-6.35991c-1.14287,-0.29256 -2.3459,-0.52965 -3.56933,-0.73659z" data-paper-data="{&quot;index&quot;:null}" fill="#b4bdff" stroke="none" stroke-width="0" stroke-linecap="butt"/><path d="M-17.30907,138.53209c1.90588,-12.1389 10.2275,-20.91544 18.58684,-19.60298c8.35935,1.31249 13.59089,12.21697 11.68501,24.35587c-1.90588,12.1389 -10.2275,20.91544 -18.58683,19.60297c-8.35934,-1.31248 -13.59089,-12.21697 -11.68501,-24.35586z" data-paper-data="{&quot;index&quot;:null}" fill="#e0e3fa" stroke="none" stroke-width="0" stroke-linecap="butt"/><path d="M-13.41851,139.24936c1.30847,-8.33374 7.0215,-14.35913 12.76046,-13.45806c5.73896,0.90106 9.3306,8.38732 8.02214,16.72109c-1.30847,8.33374 -7.02152,14.35913 -12.76048,13.45809c-5.73896,-0.90106 -9.33058,-8.38734 -8.02214,-16.72111z" data-paper-data="{&quot;index&quot;:null}" fill="#555555" stroke="none" stroke-width="0" stroke-linecap="butt"/><path d="M-9.50281,137.82826c1.3186,-4.23365 4.94891,-6.64882 8.10856,-5.39441c3.15965,1.25439 4.6521,5.70331 3.33351,9.93696c-1.3186,4.23365 -4.94891,6.64883 -8.10855,5.39444c-3.15965,-1.25439 -4.6521,-5.70331 -3.33352,-9.93697z" data-paper-data="{&quot;index&quot;:null}" fill="#616ea7" stroke="none" stroke-width="0" stroke-linecap="butt"/><path d="M188.55354,196.66149l-9.80162,39.2074" data-paper-data="{&quot;index&quot;:null}" fill="none" stroke="#8f8f8f" stroke-width="6.5" stroke-linecap="round"/><path d="M88.62501,210.54253l89.79706,25.49013" data-paper-data="{&quot;index&quot;:null}" fill="none" stroke="#8f8f8f" stroke-width="6.5" stroke-linecap="round"/><path d="M84.67126,211.2417l-23.58409,81.51624" data-paper-data="{&quot;index&quot;:null}" fill="none" stroke="#8f8f8f" stroke-width="10.5" stroke-linecap="round"/><path d="M54.70986,228.29761c2.74149,-4.85512 8.8998,-6.56857 13.75492,-3.82706c4.85513,2.7415 6.56857,8.8998 3.82708,13.75493c-2.74149,4.85512 -8.8998,6.56858 -13.75493,3.82708c-4.85513,-2.7415 -6.56857,-8.8998 -3.82706,-13.75494z" data-paper-data="{&quot;index&quot;:null}" fill="#7485ff" stroke="none" stroke-width="0" stroke-linecap="butt"/><path d="M53.26589,233.7317l6.04207,-22.34649l18.97302,5.12994l-6.04207,22.3465z" data-paper-data="{&quot;index&quot;:null}" fill="#7485ff" stroke="none" stroke-width="0" stroke-linecap="butt"/><path d="M59.82853,209.76758c2.7415,-4.85513 8.8998,-6.56859 13.75493,-3.82709c4.85513,2.7415 6.56858,8.89981 3.82708,13.75494c-2.74149,4.85512 -8.8998,6.56857 -13.75493,3.82705c-4.85513,-2.7415 -6.56855,-8.89978 -3.82706,-13.7549z" data-paper-data="{&quot;index&quot;:null}" fill="url(#color-5)" stroke="none" stroke-width="0" stroke-linecap="butt"/><path d="M71.83176,228.4831l-12.23788,-10.21799" data-paper-data="{&quot;index&quot;:null}" fill="none" stroke="#ffffff" stroke-width="6.5" stroke-linecap="round"/><path d="M56.30547,282.92913c2.51215,1.77809 2.23207,9.54615 0.92444,14.04225c-0.02653,-0.01673 -0.05325,-0.03312 -0.08021,-0.04918c-0.84308,-0.50198 -2.19614,-0.54398 -2.55839,-1.45587c-0.32783,-0.82524 -1.89122,-4.26907 -2.41849,-4.64534c-0.03764,-0.10872 -0.07772,-0.21629 -0.12019,-0.32267c1.13308,-2.5949 3.12695,-5.11851 3.57913,-8.02431c0.31609,0.20942 0.54808,0.36618 0.6737,0.45511z" fill="#bfb286" stroke="none" stroke-width="0" stroke-linecap="butt"/><path d="M81.82151,260.64643c-1.29293,17.8629 -18.13424,37.67223 -37.61614,44.24535c-19.48188,6.57315 -34.22696,-2.57901 -32.93406,-20.44191c0.3668,-5.06779 -33.18095,-40.4555 -39.39205,-60.55064c-3.21673,-10.40735 4.78984,-26.46926 10.17935,-30.97996c1.67424,-1.40126 57.78615,50.33622 66.82878,47.28527c19.48188,-6.57315 34.22699,2.579 32.93406,20.44191z" data-paper-data="{&quot;index&quot;:null}" fill="url(#color-6)" stroke="none" stroke-width="NaN" stroke-linecap="butt"/><path d="M10.96512,294.41045c1.98671,-1.03824 -10.02487,-7.74969 -7.53807,-7.77461c1.10633,-0.01107 16.55911,6.52361 17.72976,6.52361c0.86692,0 1.61515,-0.26553 2.52993,-0.22326c2.24691,0.10387 -3.79207,-5.3833 -1.65815,-4.87374c1.74989,0.41784 11.99074,7.03147 13.15145,7.85299c1.75514,1.24227 2.11007,5.84939 1.74112,9.78074c-1.65671,0.55012 -3.27306,0.66855 -4.93026,1.19132c-2.0304,0.22161 -4.07636,0.33457 -6.20287,0.24236c-0.05071,-0.0022 -0.85749,0.08581 -1.82613,0.17707c-1.60613,-1.61023 -4.78372,-2.00491 -5.7846,-3.54583c-0.47545,-0.732 -3.06882,-1.68225 -4.18176,-2.52356c-2.22401,-1.68122 -3.66279,-3.22677 -6.36137,-3.8219c-0.1798,-0.04971 -0.36657,-0.08832 -0.55882,-0.11751c1.0885,-1.15792 2.40203,-2.11014 3.88977,-2.88764z" fill="#e6ce80" stroke="none" stroke-width="0" stroke-linecap="butt"/><path d="M96.19657,80.54286c13.51956,44.90284 23.34236,81.64612 21.93983,82.0684c-1.40253,0.42228 -13.49929,-35.63635 -27.01886,-80.53919c-13.51956,-44.90284 -23.34236,-81.64612 -21.93983,-82.0684c1.40253,-0.42228 13.49929,35.63635 27.01886,80.53919z" fill="url(#color-7)" stroke="none" stroke-width="0" stroke-linecap="butt"/><path d="M95.37875,82.83633c-44.90284,13.51956 -81.64612,23.34236 -82.0684,21.93983c-0.42228,-1.40254 35.63635,-13.49929 80.53919,-27.01886c44.90284,-13.51956 81.64612,-23.34236 82.0684,-21.93983c0.42228,1.40253 -35.63635,13.49929 -80.53919,27.01886z" fill="url(#color-8)" stroke="none" stroke-width="0" stroke-linecap="butt"/><path d="M38.54775,95.62362c-9.25369,-30.73452 8.15994,-63.15138 38.89446,-72.40507c30.73452,-9.25369 63.15138,8.15996 72.40507,38.89446c9.25369,30.73452 -8.15996,63.15137 -38.89446,72.40506c-30.73452,9.25369 -63.15137,-8.15994 -72.40506,-38.89446z" fill="url(#color-9)" stroke="none" stroke-width="0" stroke-linecap="butt"/><path d="M65.83177,88.01036c-4.79509,-16.08898 4.22832,-33.05864 20.15438,-37.90279c15.92605,-4.84415 32.72386,4.27158 37.51895,20.36058c3.38638,11.36234 -0.11914,23.16392 -8.08065,30.82366c-3.31192,3.18638 -7.39495,5.65603 -12.07373,7.07915c-15.92605,4.84415 -32.72386,-4.2716 -37.51895,-20.36059z" fill="url(#color-10)" stroke="none" stroke-width="0" stroke-linecap="butt"/></g></g></svg>