<svg version="1.1" xmlns="http://www.w3.org/2000/svg" xmlns:xlink="http://www.w3.org/1999/xlink" width="37.6" height="43.6" viewBox="0,0,37.6,43.6"><g transform="translate(-221.20004,-158.2)"><g data-paper-data="{&quot;isPaintingLayer&quot;:true}" fill-rule="nonzero" stroke="none" stroke-linecap="butt" stroke-linejoin="miter" stroke-miterlimit="10" stroke-dasharray="" stroke-dashoffset="0" style="mix-blend-mode: normal"><path d="M221.20005,201.8v-43.6h37.6v43.6z" fill="none" stroke-width="0"/><path d="M236.87865,191.71273v-20.92431h-4.53462c-0.92184,0 -1.62677,-0.27791 -2.1148,-0.83372c-0.48803,-0.56937 -0.73205,-1.2472 -0.73205,-2.03348c0,-0.48803 0.12201,-0.95572 0.36602,-1.40308c0.23046,-0.44736 0.56259,-0.79982 0.9964,-1.0574c0.44736,-0.27112 0.94217,-0.40669 1.48443,-0.40669h15.31196c0.54226,0 1.03029,0.13556 1.46409,0.40669c0.44736,0.25758 0.78627,0.61005 1.01673,1.0574c0.24401,0.44736 0.36602,0.91505 0.36602,1.40308c0,0.78628 -0.23724,1.4641 -0.71171,2.03348c-0.47447,0.55581 -1.18619,0.83372 -2.13513,0.83372h-4.53462v20.92431c0,1.03029 -0.29146,1.83013 -0.87439,2.3995c-0.56937,0.55581 -1.31497,0.83372 -2.23681,0.83372c-0.93539,0 -1.69455,-0.27791 -2.27748,-0.83372c-0.56937,-0.56937 -0.85405,-1.36921 -0.85405,-2.3995z" fill="#ff0000" stroke-width="0.40889"/></g></g></svg>