<svg version="1.1" xmlns="http://www.w3.org/2000/svg" xmlns:xlink="http://www.w3.org/1999/xlink" width="85.96734" height="85.27405" viewBox="0,0,85.96734,85.27405"><defs><radialGradient cx="240.00001" cy="180" r="32.79887" gradientUnits="userSpaceOnUse" id="color-1"><stop offset="0" stop-color="#000000"/><stop offset="1" stop-color="#000000" stop-opacity="0"/></radialGradient><linearGradient x1="216.06466" y1="180" x2="263.93534" y2="180" gradientUnits="userSpaceOnUse" id="color-2"><stop offset="0" stop-color="#eb0000"/><stop offset="1" stop-color="#ff5454"/></linearGradient><linearGradient x1="253" y1="179.99998" x2="271" y2="179.99998" gradientUnits="userSpaceOnUse" id="color-3"><stop offset="0" stop-color="#fabdbd"/><stop offset="1" stop-color="#ffffff"/></linearGradient><linearGradient x1="225.80927" y1="146.90404" x2="225.80927" y2="213.09735" gradientUnits="userSpaceOnUse" id="color-4"><stop offset="0" stop-color="#cb2d2d"/><stop offset="1" stop-color="#320000"/></linearGradient></defs><g transform="translate(-197.01633,-137.36297)"><g data-paper-data="{&quot;isPaintingLayer&quot;:true}" fill-rule="nonzero" stroke-linejoin="miter" stroke-miterlimit="10" stroke-dasharray="" stroke-dashoffset="0" style="mix-blend-mode: normal"><path d="M207.20113,180c0,-18.11432 14.68456,-32.79887 32.79887,-32.79887c18.11432,0 32.79887,14.68456 32.79887,32.79887c0,18.11432 -14.68456,32.79887 -32.79887,32.79887c-18.11432,0 -32.79887,-14.68456 -32.79887,-32.79887z" fill="url(#color-1)" stroke="#000000" stroke-width="0" stroke-linecap="butt"/><path d="M197.01633,222.63703v-85.27405h85.96734v85.27405z" fill="none" stroke="none" stroke-width="NaN" stroke-linecap="butt"/><path d="M216.06466,180c0,-13.21912 10.71622,-23.93534 23.93534,-23.93534c13.21912,0 23.93534,10.71622 23.93534,23.93534c0,13.21912 -10.71622,23.93534 -23.93534,23.93534c-13.21912,0 -23.93534,-10.71622 -23.93534,-23.93534z" fill="url(#color-2)" stroke="#000000" stroke-width="0" stroke-linecap="butt"/><path d="M271,179.99998c0,0 -4.03925,14.66667 -8,14.66667c-6.62742,0 -10,0.43351 -10,-14.66667c0,-15.10018 3.37258,-14.66667 10,-14.66667c3.62742,0 8,14.66667 8,14.66667z" fill="url(#color-3)" stroke="none" stroke-width="0" stroke-linecap="butt"/><path d="M246.16385,190.67259c0,-2.44128 1.97905,-4.42033 4.42033,-4.42033c2.44128,0 4.42033,1.97905 4.42033,4.42033c0,2.44128 -1.97905,4.42033 -4.42033,4.42033c-2.44128,0 -4.42033,-1.97905 -4.42033,-4.42033z" fill="#000000" stroke="#000000" stroke-width="0" stroke-linecap="butt"/><path d="M246.21308,169.32741c0,-2.44128 1.97905,-4.42033 4.42033,-4.42033c2.44128,0 4.42033,1.97905 4.42033,4.42033c0,2.44128 -1.97905,4.42033 -4.42033,4.42033c-2.44128,0 -4.42033,-1.97905 -4.42033,-4.42033z" fill="#000000" stroke="#000000" stroke-width="0" stroke-linecap="butt"/><path d="M257.2393,186.33406v-12.94515" fill="none" stroke="#000000" stroke-width="2" stroke-linecap="round"/><path d="M235.46988,154.4275c0,0 5.42211,-1.41949 6.44097,0.16071c2.56619,3.98003 6.99155,14.46804 7.37364,25.49106c0.35498,10.24132 -3.32154,16.14281 -6.22911,23.42575c-1.85836,3.35608 -7.50009,1.91286 -7.50009,1.91286c0,0 -8.61496,-2.54527 -14.35367,-5.57304c-8.59778,-4.53621 -17.89044,-19.75102 -17.89044,-19.75102c0,0 10.14776,-15.40733 18.72654,-20.2827c5.46868,-3.1079 13.43217,-5.38359 13.43217,-5.38359z" data-paper-data="{&quot;index&quot;:null}" fill="url(#color-4)" stroke="none" stroke-width="0" stroke-linecap="butt"/><path d="M239.70259,166.79001l-2.25516,2.50987l0.07887,4.25496l-2.26424,-2.49288l-2.63121,1.42871l0.85619,-4.05135l-1.70546,-3.37139l2.79386,-0.01202l1.57728,-3.51187l0.87044,4.04395z" fill="#ffffff" stroke="#231f20" stroke-width="0" stroke-linecap="butt"/><path d="M225.15631,182.22162l-2.28292,3.35436l0.81535,4.36705l-3.14111,-1.80848l-2.91758,2.36511l0.34198,-4.47301l-2.61891,-2.9046l3.35283,-0.95722l1.29922,-4.15979l1.73014,3.88146z" fill="#ffffff" stroke="#231f20" stroke-width="0" stroke-linecap="butt"/><path d="M243.75215,202.17718l-2.77588,1.21534l0.72396,-2.94247l-2.01331,-2.26448l3.02193,-0.22067l1.53103,-2.61512l1.14456,2.80628z" fill="#ffffff" stroke="#231f20" stroke-width="0" stroke-linecap="butt"/></g></g></svg>