<svg version="1.1" xmlns="http://www.w3.org/2000/svg" xmlns:xlink="http://www.w3.org/1999/xlink" width="85.79682" height="86.44191" viewBox="0,0,85.79682,86.44191"><defs><radialGradient cx="249.31319" cy="171.00934" r="22.09778" gradientUnits="userSpaceOnUse" id="color-1"><stop offset="0" stop-color="#000000" stop-opacity="0.4"/><stop offset="1" stop-color="#000000" stop-opacity="0"/></radialGradient><linearGradient x1="233.6877" y1="155.38385" x2="264.93868" y2="186.63484" gradientUnits="userSpaceOnUse" id="color-2"><stop offset="0" stop-color="#ff5454"/><stop offset="1" stop-color="#eb0000"/></linearGradient><linearGradient x1="246.1832" y1="173.51157" x2="264.69635" y2="154.99842" gradientUnits="userSpaceOnUse" id="color-3"><stop offset="0" stop-color="#ff0000"/><stop offset="1" stop-color="#ffffff"/></linearGradient><linearGradient x1="193.00507" y1="227.31747" x2="270.09724" y2="150.2253" gradientUnits="userSpaceOnUse" id="color-4"><stop offset="0" stop-color="#800000"/><stop offset="1" stop-color="#ff0000"/></linearGradient><linearGradient x1="244.79317" y1="175.52937" x2="253.83323" y2="166.48931" gradientUnits="userSpaceOnUse" id="color-5"><stop offset="0" stop-color="#bf0000"/><stop offset="1" stop-color="#ff4040"/></linearGradient><linearGradient x1="267.40261" y1="152.91993" x2="278.00729" y2="142.31525" gradientUnits="userSpaceOnUse" id="color-6"><stop offset="0" stop-color="#bf0000"/><stop offset="1" stop-color="#ff4040"/></linearGradient><linearGradient x1="249.10608" y1="147.05743" x2="256.75536" y2="139.40815" gradientUnits="userSpaceOnUse" id="color-7"><stop offset="0" stop-color="#bf0000"/><stop offset="1" stop-color="#ff4040"/></linearGradient><linearGradient x1="272.62003" y1="170.57137" x2="280.26931" y2="162.92209" gradientUnits="userSpaceOnUse" id="color-8"><stop offset="0" stop-color="#bf0000"/><stop offset="1" stop-color="#ff4040"/></linearGradient></defs><g transform="translate(-196.0567,-137.82395)"><g data-paper-data="{&quot;isPaintingLayer&quot;:true}" fill-rule="nonzero" stroke-linejoin="miter" stroke-miterlimit="10" stroke-dasharray="" stroke-dashoffset="0" style="mix-blend-mode: normal"><path d="M233.6877,186.63483c-8.62972,-8.62972 -8.62971,-22.62127 0,-31.25098c8.62971,-8.62971 22.62126,-8.62972 31.25098,0c8.62972,8.62972 8.62972,22.62126 0,31.25098c-8.62971,8.62971 -22.62127,8.62971 -31.25098,0z" fill="url(#color-1)" stroke="url(#color-2)" stroke-width="0" stroke-linecap="butt"/><path d="M241.61002,163.30617c4.25434,-4.25434 11.152,-4.25434 15.40635,0c4.25434,4.25434 4.25435,11.152 0,15.40635c-4.25434,4.25434 -11.152,4.25434 -15.40635,0c-4.25434,-4.25434 -4.25434,-11.152 0,-15.40635z" fill="none" stroke="#ffffff" stroke-width="3.5" stroke-linecap="butt"/><path d="M276.48668,166.78874c0,0 -2.14852,8.72326 -7.8021,13.95732c-4.62637,4.28308 -11.95382,2.09501 -11.95382,2.09501l-6.10949,-13.43051l-14.20071,-5.66163c0,0 -3.12971,-5.71409 1.11373,-11.23555c4.24343,-5.52145 15.56346,-9.11356 15.56346,-9.11356" fill="none" stroke="url(#color-3)" stroke-width="5.5" stroke-linecap="round"/><path d="M270.09724,150.2253l-65.4255,65.4255" fill="none" stroke="url(#color-4)" stroke-width="7" stroke-linecap="round"/><path d="M198.253,222.06955c-2.92841,-2.92841 -2.9284,-7.67629 0,-10.60468c2.92841,-2.92841 7.67629,-2.9284 10.60468,0c2.92841,2.92841 2.9284,7.67629 0,10.60468c-2.92841,2.92841 -7.67629,2.9284 -10.60468,0z" fill="#ffffff" stroke="#ffffff" stroke-width="0" stroke-linecap="butt"/><path d="M244.79317,175.52937c-2.49635,-2.49635 -2.49635,-6.54372 0,-9.04006c2.49635,-2.49635 6.54372,-2.49635 9.04006,0c2.49635,2.49635 2.49635,6.54372 0,9.04006c-2.49635,2.49635 -6.54372,2.49635 -9.04006,0z" fill="url(#color-5)" stroke="none" stroke-width="0" stroke-linecap="butt"/><path d="M267.40261,152.91993c-2.9284,-2.9284 -2.9284,-7.67628 0.00001,-10.60469c2.9284,-2.9284 7.67628,-2.9284 10.60468,0c2.9284,2.9284 2.9284,7.67628 0.00001,10.60469c-2.9284,2.9284 -7.67628,2.9284 -10.60469,0z" fill="url(#color-6)" stroke="#ffffff" stroke-width="0" stroke-linecap="butt"/><path d="M249.10608,147.05743c-2.11229,-2.11229 -2.11229,-5.53699 0,-7.64927c2.11229,-2.11229 5.53699,-2.11229 7.64927,0c2.11229,2.11229 2.11229,5.53699 0,7.64927c-2.11229,2.11229 -5.53699,2.11229 -7.64927,0z" fill="url(#color-7)" stroke="#ffffff" stroke-width="0" stroke-linecap="butt"/><path d="M272.62003,170.57137c-2.11229,-2.11229 -2.11229,-5.53699 0,-7.64927c2.11229,-2.11229 5.53699,-2.11229 7.64927,0c2.11229,2.11229 2.11229,5.53699 0,7.64927c-2.11229,2.11229 -5.53699,2.11229 -7.64927,0z" fill="url(#color-8)" stroke="#ffffff" stroke-width="0" stroke-linecap="butt"/></g></g></svg>