<svg version="1.1" xmlns="http://www.w3.org/2000/svg" xmlns:xlink="http://www.w3.org/1999/xlink" width="37.6" height="45.51119" viewBox="0,0,37.6,45.51119"><g transform="translate(-221.20006,-158.2)"><g data-paper-data="{&quot;isPaintingLayer&quot;:true}" fill-rule="nonzero" stroke="none" stroke-linecap="butt" stroke-linejoin="miter" stroke-miterlimit="10" stroke-dasharray="" stroke-dashoffset="0" style="mix-blend-mode: normal"><path d="M221.20006,201.8v-43.6h37.6v43.6z" fill="none" stroke-width="0"/><path d="M250.98942,175.56809v17.3251c0,2.33169 -0.48126,4.31093 -1.44377,5.9377c-0.9625,1.62676 -2.31814,2.84683 -4.06693,3.66022c-1.73521,0.81339 -3.74834,1.22008 -6.03937,1.22008c-0.94895,0 -2.19614,-0.16268 -3.74157,-0.48804c-1.54543,-0.32536 -2.88751,-0.82694 -4.02624,-1.50475c-1.12518,-0.67783 -1.68777,-1.51155 -1.68777,-2.50117c0,-0.56936 0.25757,-1.15228 0.77271,-1.74876c0.5287,-0.58294 1.07774,-0.8744 1.64711,-0.8744c0.5287,0 1.35564,0.21691 2.48083,0.65072c1.12518,0.43379 1.98602,0.74559 2.5825,0.93539c0.61003,0.1898 1.42341,0.2847 2.44014,0.2847c0.97608,0 1.85047,-0.1898 2.62319,-0.56939c0.7727,-0.36601 1.37595,-0.90827 1.80977,-1.62677c0.43381,-0.70492 0.65072,-1.55219 0.65072,-2.54181v-1.42342h-0.08123c-1.30142,1.8979 -3.31454,2.84685 -6.03937,2.84685c-1.53187,0 -2.87395,-0.30502 -4.02624,-0.91507c-1.15229,-0.61005 -2.12158,-1.4641 -2.90786,-2.56215c-0.78628,-1.09807 -1.36921,-2.33171 -1.74878,-3.70091c-0.37958,-1.3692 -0.56936,-2.81296 -0.56936,-4.33128c0,-1.50476 0.22368,-2.95529 0.67104,-4.3516c0.46092,-1.39631 1.12518,-2.6435 1.99279,-3.74157c0.88117,-1.11162 1.93179,-1.97923 3.15186,-2.60282c1.23364,-0.63715 2.58251,-0.95573 4.04661,-0.95573c0.70492,0 1.40984,0.10845 2.11478,0.32536c0.7185,0.20334 1.36921,0.51514 1.95213,0.93539c0.59648,0.40669 1.07774,0.9015 1.44377,1.48443c0.37958,-1.66745 1.37597,-2.50117 2.98918,-2.50117c0.58292,0 1.09807,0.14234 1.54544,0.42703c0.4609,0.27114 0.82014,0.66428 1.07772,1.17942c0.25758,0.50159 0.38637,1.07774 0.38637,1.72844zM244.99071,183.72227c0,-1.00317 -0.17623,-1.98601 -0.5287,-2.94852c-0.33892,-0.97606 -0.86762,-1.76911 -1.5861,-2.37916c-0.7185,-0.61003 -1.58611,-0.91504 -2.60284,-0.91504c-0.9625,0 -1.80299,0.29824 -2.52149,0.89472c-0.71848,0.59648 -1.25396,1.35563 -1.60642,2.27746c-0.35247,0.90828 -0.5287,1.86401 -0.5287,2.86719c0,1.11162 0.17623,2.12835 0.5287,3.05019c0.35247,0.92184 0.88117,1.66744 1.5861,2.23679c0.70493,0.55581 1.5522,0.83372 2.54181,0.83372c1.50478,0 2.66385,-0.57615 3.47722,-1.72844c0.82695,-1.16584 1.24043,-2.56214 1.24043,-4.18892z" fill="#ff0000" stroke-width="0.40889"/></g></g></svg>