<svg version="1.1" xmlns="http://www.w3.org/2000/svg" xmlns:xlink="http://www.w3.org/1999/xlink" width="480.66667" height="360" viewBox="0,0,480.66667,360"><defs><linearGradient x1="179.93319" y1="120.21319" x2="179.93319" y2="240.1066" gradientUnits="userSpaceOnUse" id="color-1"><stop offset="0" stop-color="#ffffff" stop-opacity="0"/><stop offset="1" stop-color="#ffffff"/></linearGradient><linearGradient x1="149.95984" y1="210.13324" x2="209.90654" y2="150.18655" gradientUnits="userSpaceOnUse" id="color-2"><stop offset="0" stop-color="#ff0000" stop-opacity="0.12157"/><stop offset="1" stop-color="#ff0000"/></linearGradient><linearGradient x1="60.03978" y1="0.31979" x2="60.03978" y2="120.21319" gradientUnits="userSpaceOnUse" id="color-3"><stop offset="0" stop-color="#ffffff" stop-opacity="0"/><stop offset="1" stop-color="#ffffff"/></linearGradient><linearGradient x1="30.06643" y1="90.23984" x2="90.01313" y2="30.29314" gradientUnits="userSpaceOnUse" id="color-4"><stop offset="0" stop-color="#ff0000" stop-opacity="0.12157"/><stop offset="1" stop-color="#ff0000"/></linearGradient><linearGradient x1="179.93319" y1="0.31979" x2="179.93319" y2="120.21319" gradientUnits="userSpaceOnUse" id="color-5"><stop offset="0" stop-color="#ffffff"/><stop offset="1" stop-color="#ffffff" stop-opacity="0"/></linearGradient><linearGradient x1="149.95984" y1="90.23984" x2="209.90654" y2="30.29314" gradientUnits="userSpaceOnUse" id="color-6"><stop offset="0" stop-color="#ff0000" stop-opacity="0.12157"/><stop offset="1" stop-color="#ff0000"/></linearGradient><linearGradient x1="299.82659" y1="0.31979" x2="299.82659" y2="120.21319" gradientUnits="userSpaceOnUse" id="color-7"><stop offset="0" stop-color="#ffffff" stop-opacity="0"/><stop offset="1" stop-color="#ffffff"/></linearGradient><linearGradient x1="269.85324" y1="90.23984" x2="329.79992" y2="30.29314" gradientUnits="userSpaceOnUse" id="color-8"><stop offset="0" stop-color="#ff0000" stop-opacity="0.12157"/><stop offset="1" stop-color="#ff0000"/></linearGradient><linearGradient x1="419.71999" y1="0.31979" x2="419.71999" y2="120.21319" gradientUnits="userSpaceOnUse" id="color-9"><stop offset="0" stop-color="#ffffff"/><stop offset="1" stop-color="#ffffff" stop-opacity="0"/></linearGradient><linearGradient x1="389.74665" y1="90.23984" x2="449.69334" y2="30.29314" gradientUnits="userSpaceOnUse" id="color-10"><stop offset="0" stop-color="#ff0000" stop-opacity="0.12157"/><stop offset="1" stop-color="#ff0000"/></linearGradient><linearGradient x1="60.03978" y1="240.1066" x2="60.03978" y2="360" gradientUnits="userSpaceOnUse" id="color-11"><stop offset="0" stop-color="#ffffff" stop-opacity="0"/><stop offset="1" stop-color="#ffffff"/></linearGradient><linearGradient x1="30.06643" y1="330.02664" x2="90.01313" y2="270.07995" gradientUnits="userSpaceOnUse" id="color-12"><stop offset="0" stop-color="#ff0000" stop-opacity="0.12157"/><stop offset="1" stop-color="#ff0000"/></linearGradient><linearGradient x1="179.93319" y1="240.1066" x2="179.93319" y2="360" gradientUnits="userSpaceOnUse" id="color-13"><stop offset="0" stop-color="#ffffff"/><stop offset="1" stop-color="#ffffff" stop-opacity="0"/></linearGradient><linearGradient x1="149.95984" y1="330.02664" x2="209.90654" y2="270.07995" gradientUnits="userSpaceOnUse" id="color-14"><stop offset="0" stop-color="#ff0000" stop-opacity="0.12157"/><stop offset="1" stop-color="#ff0000"/></linearGradient><linearGradient x1="299.82659" y1="240.1066" x2="299.82659" y2="360" gradientUnits="userSpaceOnUse" id="color-15"><stop offset="0" stop-color="#ffffff" stop-opacity="0"/><stop offset="1" stop-color="#ffffff"/></linearGradient><linearGradient x1="269.85324" y1="330.02664" x2="329.79992" y2="270.07995" gradientUnits="userSpaceOnUse" id="color-16"><stop offset="0" stop-color="#ff0000" stop-opacity="0.12157"/><stop offset="1" stop-color="#ff0000"/></linearGradient><linearGradient x1="419.71999" y1="240.1066" x2="419.71999" y2="360" gradientUnits="userSpaceOnUse" id="color-17"><stop offset="0" stop-color="#ffffff"/><stop offset="1" stop-color="#ffffff" stop-opacity="0"/></linearGradient><linearGradient x1="389.74665" y1="330.02664" x2="449.69334" y2="270.07995" gradientUnits="userSpaceOnUse" id="color-18"><stop offset="0" stop-color="#ff0000" stop-opacity="0.12157"/><stop offset="1" stop-color="#ff0000"/></linearGradient><linearGradient x1="60.03978" y1="120.21319" x2="60.03978" y2="240.1066" gradientUnits="userSpaceOnUse" id="color-19"><stop offset="0" stop-color="#ffffff"/><stop offset="1" stop-color="#ffffff" stop-opacity="0"/></linearGradient><linearGradient x1="30.06643" y1="210.13324" x2="90.01313" y2="150.18655" gradientUnits="userSpaceOnUse" id="color-20"><stop offset="0" stop-color="#ff0000" stop-opacity="0.12157"/><stop offset="1" stop-color="#ff0000"/></linearGradient><linearGradient x1="299.82659" y1="120.21319" x2="299.82659" y2="240.1066" gradientUnits="userSpaceOnUse" id="color-21"><stop offset="0" stop-color="#ffffff"/><stop offset="1" stop-color="#ffffff" stop-opacity="0"/></linearGradient><linearGradient x1="269.85324" y1="210.13324" x2="329.79992" y2="150.18655" gradientUnits="userSpaceOnUse" id="color-22"><stop offset="0" stop-color="#ff0000" stop-opacity="0.12157"/><stop offset="1" stop-color="#ff0000"/></linearGradient><linearGradient x1="419.71999" y1="120.21319" x2="419.71999" y2="240.1066" gradientUnits="userSpaceOnUse" id="color-23"><stop offset="0" stop-color="#ffffff" stop-opacity="0"/><stop offset="1" stop-color="#ffffff"/></linearGradient><linearGradient x1="389.74665" y1="210.13324" x2="449.69334" y2="150.18655" gradientUnits="userSpaceOnUse" id="color-24"><stop offset="0" stop-color="#ff0000" stop-opacity="0.12157"/><stop offset="1" stop-color="#ff0000"/></linearGradient><linearGradient x1="90.01314" y1="90.23984" x2="149.95983" y2="30.29314" gradientUnits="userSpaceOnUse" id="color-25"><stop offset="0" stop-color="#ff0000" stop-opacity="0.12157"/><stop offset="1" stop-color="#ff0000"/></linearGradient><linearGradient x1="209.90654" y1="90.23984" x2="269.85324" y2="30.29314" gradientUnits="userSpaceOnUse" id="color-26"><stop offset="0" stop-color="#ff0000" stop-opacity="0.12157"/><stop offset="1" stop-color="#ff0000"/></linearGradient><linearGradient x1="329.79994" y1="90.23984" x2="389.74664" y2="30.29314" gradientUnits="userSpaceOnUse" id="color-27"><stop offset="0" stop-color="#ff0000" stop-opacity="0.12157"/><stop offset="1" stop-color="#ff0000"/></linearGradient><linearGradient x1="449.69335" y1="90.23984" x2="509.64005" y2="30.29314" gradientUnits="userSpaceOnUse" id="color-28"><stop offset="0" stop-color="#ff0000" stop-opacity="0.12157"/><stop offset="1" stop-color="#ff0000"/></linearGradient><linearGradient x1="-30.30665" y1="90.23984" x2="29.64005" y2="30.29314" gradientUnits="userSpaceOnUse" id="color-29"><stop offset="0" stop-color="#ff0000" stop-opacity="0.12157"/><stop offset="1" stop-color="#ff0000"/></linearGradient><linearGradient x1="90.01314" y1="330.02664" x2="149.95983" y2="270.07995" gradientUnits="userSpaceOnUse" id="color-30"><stop offset="0" stop-color="#ff0000" stop-opacity="0.12157"/><stop offset="1" stop-color="#ff0000"/></linearGradient><linearGradient x1="209.90654" y1="330.02664" x2="269.85324" y2="270.07995" gradientUnits="userSpaceOnUse" id="color-31"><stop offset="0" stop-color="#ff0000" stop-opacity="0.12157"/><stop offset="1" stop-color="#ff0000"/></linearGradient><linearGradient x1="329.79994" y1="330.02664" x2="389.74664" y2="270.07995" gradientUnits="userSpaceOnUse" id="color-32"><stop offset="0" stop-color="#ff0000" stop-opacity="0.12157"/><stop offset="1" stop-color="#ff0000"/></linearGradient><linearGradient x1="449.69335" y1="330.02664" x2="509.64005" y2="270.07995" gradientUnits="userSpaceOnUse" id="color-33"><stop offset="0" stop-color="#ff0000" stop-opacity="0.12157"/><stop offset="1" stop-color="#ff0000"/></linearGradient><linearGradient x1="-30.30665" y1="330.02664" x2="29.64005" y2="270.07995" gradientUnits="userSpaceOnUse" id="color-34"><stop offset="0" stop-color="#ff0000" stop-opacity="0.12157"/><stop offset="1" stop-color="#ff0000"/></linearGradient><linearGradient x1="90.01314" y1="210.13324" x2="149.95983" y2="150.18655" gradientUnits="userSpaceOnUse" id="color-35"><stop offset="0" stop-color="#ff0000" stop-opacity="0.12157"/><stop offset="1" stop-color="#ff0000"/></linearGradient><linearGradient x1="209.90654" y1="210.13324" x2="269.85324" y2="150.18655" gradientUnits="userSpaceOnUse" id="color-36"><stop offset="0" stop-color="#ff0000" stop-opacity="0.12157"/><stop offset="1" stop-color="#ff0000"/></linearGradient><linearGradient x1="329.79994" y1="210.13324" x2="389.74664" y2="150.18655" gradientUnits="userSpaceOnUse" id="color-37"><stop offset="0" stop-color="#ff0000" stop-opacity="0.12157"/><stop offset="1" stop-color="#ff0000"/></linearGradient><linearGradient x1="449.69335" y1="210.13324" x2="509.64005" y2="150.18655" gradientUnits="userSpaceOnUse" id="color-38"><stop offset="0" stop-color="#ff0000" stop-opacity="0.12157"/><stop offset="1" stop-color="#ff0000"/></linearGradient><linearGradient x1="-30.30665" y1="210.13324" x2="29.64005" y2="150.18655" gradientUnits="userSpaceOnUse" id="color-39"><stop offset="0" stop-color="#ff0000" stop-opacity="0.12157"/><stop offset="1" stop-color="#ff0000"/></linearGradient></defs><g transform="translate(0.33331,0)"><g data-paper-data="{&quot;isPaintingLayer&quot;:true}" fill-rule="nonzero" stroke-width="0" stroke-linecap="butt" stroke-linejoin="miter" stroke-miterlimit="10" stroke-dasharray="" stroke-dashoffset="0" style="mix-blend-mode: normal"><path d="M-0.3333,360v-360h480.66667v360z" fill="#000000" stroke="#000000"/><g><path d="M179.93319,240.1066l-59.9467,-59.9467l59.9467,-59.94671l59.9467,59.94671z" fill="url(#color-1)" stroke="url(#color-2)"/><path d="M60.03978,120.21319l-59.9467,-59.9467l59.9467,-59.9467l59.94671,59.9467z" fill="url(#color-3)" stroke="url(#color-4)"/><path d="M179.93319,120.21319l-59.9467,-59.9467l59.9467,-59.9467l59.9467,59.9467z" fill="url(#color-5)" stroke="url(#color-6)"/><path d="M299.82659,120.21319l-59.9467,-59.9467l59.9467,-59.9467l59.9467,59.9467z" fill="url(#color-7)" stroke="url(#color-8)"/><path d="M419.72,120.21319l-59.94671,-59.9467l59.94671,-59.9467l59.9467,59.9467z" fill="url(#color-9)" stroke="url(#color-10)"/><path d="M60.03978,360l-59.9467,-59.9467l59.9467,-59.9467l59.94671,59.9467z" fill="url(#color-11)" stroke="url(#color-12)"/><path d="M179.93319,360l-59.9467,-59.9467l59.9467,-59.9467l59.9467,59.9467z" fill="url(#color-13)" stroke="url(#color-14)"/><path d="M299.82659,360l-59.9467,-59.9467l59.9467,-59.9467l59.9467,59.9467z" fill="url(#color-15)" stroke="url(#color-16)"/><path d="M419.72,360l-59.94671,-59.9467l59.94671,-59.9467l59.9467,59.9467z" fill="url(#color-17)" stroke="url(#color-18)"/><path d="M60.03978,240.1066l-59.9467,-59.9467l59.9467,-59.94671l59.94671,59.94671z" fill="url(#color-19)" stroke="url(#color-20)"/><path d="M299.82659,240.1066l-59.9467,-59.9467l59.9467,-59.94671l59.9467,59.94671z" fill="url(#color-21)" stroke="url(#color-22)"/><path d="M419.72,240.1066l-59.94671,-59.9467l59.94671,-59.94671l59.9467,59.94671z" fill="url(#color-23)" stroke="url(#color-24)"/></g><g fill-opacity="0.50196" fill="#b3b3b3"><path d="M119.98649,120.21319l-59.9467,-59.9467l59.94671,-59.9467l59.9467,59.9467z" stroke="url(#color-25)"/><path d="M239.87989,120.21319l-59.9467,-59.9467l59.9467,-59.9467l59.9467,59.9467z" stroke="url(#color-26)"/><path d="M359.77329,120.21319l-59.9467,-59.9467l59.9467,-59.9467l59.94671,59.9467z" stroke="url(#color-27)"/><path d="M479.6667,120.21319l-59.9467,-59.9467l59.9467,-59.9467z" stroke="url(#color-28)"/><path d="M-0.3333,120.21319v-119.8934l59.9467,59.9467z" stroke="url(#color-29)"/><path d="M119.98649,360l-59.9467,-59.9467l59.94671,-59.9467l59.9467,59.9467z" stroke="url(#color-30)"/><path d="M239.87989,360l-59.9467,-59.9467l59.9467,-59.9467l59.9467,59.9467z" stroke="url(#color-31)"/><path d="M359.77329,360l-59.9467,-59.9467l59.9467,-59.9467l59.94671,59.9467z" stroke="url(#color-32)"/><path d="M479.6667,360l-59.9467,-59.9467l59.9467,-59.9467z" stroke="url(#color-33)"/><path d="M-0.3333,360v-119.8934l59.9467,59.9467z" stroke="url(#color-34)"/><path d="M119.98649,240.1066l-59.9467,-59.9467l59.94671,-59.94671l59.9467,59.94671z" stroke="url(#color-35)"/><path d="M239.87989,240.1066l-59.9467,-59.9467l59.9467,-59.94671l59.9467,59.94671z" stroke="url(#color-36)"/><path d="M359.77329,240.1066l-59.9467,-59.9467l59.9467,-59.94671l59.94671,59.94671z" stroke="url(#color-37)"/><path d="M479.6667,240.1066l-59.9467,-59.9467l59.9467,-59.94671z" stroke="url(#color-38)"/><path d="M-0.3333,240.1066v-119.8934l59.9467,59.94671z" stroke="url(#color-39)"/></g></g></g></svg>