<svg version="1.1" xmlns="http://www.w3.org/2000/svg" xmlns:xlink="http://www.w3.org/1999/xlink" width="76.06213" height="76.06213" viewBox="0,0,76.06213,76.06213"><defs><radialGradient cx="240.69547" cy="180.00001" r="31.37869" gradientUnits="userSpaceOnUse" id="color-1"><stop offset="0" stop-color="#000000" stop-opacity="0.77647"/><stop offset="1" stop-color="#000000" stop-opacity="0"/></radialGradient><linearGradient x1="240.82295" y1="208.29899" x2="240.82294" y2="150.42098" gradientUnits="userSpaceOnUse" id="color-2"><stop offset="0" stop-color="#be0000"/><stop offset="1" stop-color="#ff3333"/></linearGradient><linearGradient x1="243.68405" y1="209.24062" x2="243.68405" y2="150.80863" gradientUnits="userSpaceOnUse" id="color-3"><stop offset="0" stop-color="#f30000"/><stop offset="1" stop-color="#ff6c6c"/></linearGradient><linearGradient x1="240.44614" y1="151.72189" x2="240.44614" y2="168.61536" gradientUnits="userSpaceOnUse" id="color-4"><stop offset="0" stop-color="#ffffff" stop-opacity="0.64706"/><stop offset="1" stop-color="#ffffff" stop-opacity="0"/></linearGradient><linearGradient x1="220.03374" y1="185.77148" x2="231.78162" y2="185.77148" gradientUnits="userSpaceOnUse" id="color-5"><stop offset="0" stop-color="#ffffff" stop-opacity="0.64706"/><stop offset="1" stop-color="#ffffff" stop-opacity="0"/></linearGradient></defs><g transform="translate(-201.96894,-141.96894)"><g data-paper-data="{&quot;isPaintingLayer&quot;:true}" fill-rule="nonzero" stroke-linejoin="miter" stroke-miterlimit="10" stroke-dasharray="" stroke-dashoffset="0" style="mix-blend-mode: normal"><path d="M209.31676,180.00001c0,-17.32998 14.04872,-31.37869 31.37869,-31.37869c17.32998,0 31.37869,14.04872 31.37869,31.37869c0,17.32998 -14.04872,31.37869 -31.37869,31.37869c-17.32998,0 -31.37869,-14.04872 -31.37869,-31.37869z" fill="url(#color-1)" stroke="#000000" stroke-width="0" stroke-linecap="butt"/><path d="M224.66285,179.43489c0,0 -15.64424,-4.06285 -9.82107,-19.7944c4.70091,-12.69971 22.13782,-10.85528 32.06446,-3.63449c11.01355,7.0539 20.88721,22.78886 20.88721,22.78886c0,0 -7.44902,13.93964 -17.29084,22.76052c-11.14969,9.99307 -32.56795,10.26524 -36.09549,-2.13723c-4.36122,-15.33357 10.25573,-19.98326 10.25573,-19.98326z" fill="url(#color-2)" stroke="none" stroke-width="0" stroke-linecap="butt"/><path d="M218.65337,200.05474c-3.60111,-16.81483 10.03752,-20.60067 10.03752,-20.60067c0,0 -13.64834,-3.216 -8.95932,-19.3377c3.82148,-13.13894 18.31919,-11.30064 29.52273,-3.36456c10.05348,7.12141 19.04923,22.70226 19.04923,22.70226c0,0 -7.62144,13.99815 -17.20235,22.10661c-9.58091,8.10846 -30.07298,9.58294 -32.44781,-1.50594z" fill="url(#color-3)" stroke="none" stroke-width="0" stroke-linecap="butt"/><path d="M222.21988,157.67953c1.55798,-3.54728 5.58757,-6.0572 10.19478,-5.9546c4.85636,0.10815 10.33345,2.23391 14.65756,5.1112c6.05858,4.03143 10.19564,9.18068 10.19564,9.18068c0,0 -16.4687,-8.44446 -22.89576,-8.39289c-10.28451,0.08252 -13.60389,8.94973 -13.60389,8.94973c0,0 -0.10631,-5.34684 1.45167,-8.89412z" fill="url(#color-4)" stroke="none" stroke-width="0" stroke-linecap="butt"/><path d="M220.03375,191.73949c0,0 1.94745,-5.08679 4.48188,-7.55258c2.53444,-2.4658 7.26599,-4.38344 7.26599,-4.38344c0,0 -0.49089,4.59175 -2.60349,6.64713c-2.11259,2.05538 -9.14438,5.2889 -9.14438,5.2889z" fill="url(#color-5)" stroke="none" stroke-width="0" stroke-linecap="butt"/><path d="M242.92636,190.67261c0,-2.44128 1.97905,-4.42033 4.42033,-4.42033c2.44128,0 4.42033,1.97905 4.42033,4.42033c0,2.44128 -1.97905,4.42033 -4.42033,4.42033c-2.44128,0 -4.42033,-1.97905 -4.42033,-4.42033z" fill="#000000" stroke="#000000" stroke-width="0" stroke-linecap="butt"/><path d="M242.97559,169.32743c0,-2.44128 1.97905,-4.42033 4.42033,-4.42033c2.44128,0 4.42033,1.97905 4.42033,4.42033c0,2.44128 -1.97905,4.42033 -4.42033,4.42033c-2.44128,0 -4.42033,-1.97905 -4.42033,-4.42033z" fill="#000000" stroke="#000000" stroke-width="0" stroke-linecap="butt"/><path d="M254.00176,168.72227l0,22.27848" fill="none" stroke="#000000" stroke-width="2" stroke-linecap="round"/><path d="M278.03106,218.03106h-76.06213v-76.06213h76.06213z" fill="none" stroke="none" stroke-width="0" stroke-linecap="butt"/></g></g></svg>