<svg version="1.1" xmlns="http://www.w3.org/2000/svg" xmlns:xlink="http://www.w3.org/1999/xlink" width="591.20334" height="249.26264" viewBox="0,0,591.20334,249.26264"><defs><linearGradient x1="239.78735" y1="-39.63135" x2="239.78735" y2="232.74443" gradientUnits="userSpaceOnUse" id="color-1"><stop offset="0" stop-color="#baf9ff"/><stop offset="1" stop-color="#00d5ff"/></linearGradient><linearGradient x1="285.28616" y1="107.13132" x2="285.28616" y2="199.13132" gradientUnits="userSpaceOnUse" id="color-2"><stop offset="0" stop-color="#006eff"/><stop offset="1" stop-color="#00dbff"/></linearGradient><linearGradient x1="301.28616" y1="107.13132" x2="301.28616" y2="70.38132" gradientUnits="userSpaceOnUse" id="color-3"><stop offset="0" stop-color="#ffffff" stop-opacity="0.67843"/><stop offset="1" stop-color="#ffffff" stop-opacity="0"/></linearGradient><linearGradient x1="298.78616" y1="113.63132" x2="298.78616" y2="205.63132" gradientUnits="userSpaceOnUse" id="color-4"><stop offset="0" stop-color="#ffffff" stop-opacity="0.03137"/><stop offset="1" stop-color="#ffffff" stop-opacity="0"/></linearGradient><linearGradient x1="298.28616" y1="124.13132" x2="298.28616" y2="216.13132" gradientUnits="userSpaceOnUse" id="color-5"><stop offset="0" stop-color="#ffffff" stop-opacity="0.03137"/><stop offset="1" stop-color="#ffffff" stop-opacity="0"/></linearGradient><linearGradient x1="297.28616" y1="137.63132" x2="297.28616" y2="229.63132" gradientUnits="userSpaceOnUse" id="color-6"><stop offset="0" stop-color="#ffffff" stop-opacity="0.03137"/><stop offset="1" stop-color="#ffffff" stop-opacity="0"/></linearGradient><linearGradient x1="242.51118" y1="104.19473" x2="242.51118" y2="107.19473" gradientUnits="userSpaceOnUse" id="color-7"><stop offset="0" stop-color="#006eff" stop-opacity="0"/><stop offset="1" stop-color="#006eff"/></linearGradient></defs><g transform="translate(55.60168,19.63132)"><g data-paper-data="{&quot;isPaintingLayer&quot;:true}" fill-rule="nonzero" stroke="none" stroke-width="0" stroke-linecap="butt" stroke-linejoin="miter" stroke-miterlimit="10" stroke-dasharray="" stroke-dashoffset="0" style="mix-blend-mode: normal"><path d="M-35.28851,173.74443v-193.37575h550.15172v193.37575z" fill="url(#color-1)"/><path d="M-53.84328,199.13132c-0.15388,-7.4682 -0.34419,-14.93555 -0.56749,-22.40149c-0.15119,-5.05512 -0.93546,-9.6241 -0.9898,-15.11842c-0.17961,-18.15904 -0.23891,-36.31987 -0.17791,-54.48009h574.85492c0.17225,5.71713 0.34708,9.84554 0.32299,10.65318c-0.16173,5.42184 -1.88668,11.09658 -2,16.65932c-0.43826,21.5142 -2.97759,43.20725 -5.18674,64.6875z" fill="url(#color-2)"/><path d="M528.41269,70.38132c2.20915,8.58043 4.74848,17.24585 5.18674,25.83984c0.11332,2.22207 1.83827,4.48889 2,6.65467c0.02409,0.32262 -0.15074,1.97174 -0.32299,4.25548h-574.85492c-0.061,-7.25422 -0.0017,-14.50868 0.17791,-21.76242c0.05434,-2.19474 0.83861,-4.01985 0.9898,-6.03916c0.2233,-2.98232 0.41361,-5.9652 0.56749,-8.94842z" data-paper-data="{&quot;index&quot;:null}" fill="url(#color-3)"/><path d="M-40.34328,205.63132c-0.15388,-7.4682 -0.34419,-14.93555 -0.56749,-22.40149c-0.15119,-5.05512 -0.93546,-9.6241 -0.9898,-15.11842c-0.17961,-18.15904 -0.23891,-36.31987 -0.17791,-54.48009h574.85492c0.17225,5.71713 0.34708,9.84554 0.32299,10.65318c-0.16173,5.42184 -1.88668,11.09658 -2,16.65932c-0.43826,21.5142 -2.97759,43.20725 -5.18674,64.6875z" fill="url(#color-4)"/><path d="M-40.84328,216.13132c-0.15388,-7.4682 -0.34419,-14.93555 -0.56749,-22.40149c-0.15119,-5.05512 -0.93546,-9.6241 -0.9898,-15.11842c-0.17961,-18.15904 -0.23891,-36.31987 -0.17791,-54.48009h574.85492c0.17225,5.71713 0.34708,9.84554 0.32299,10.65318c-0.16173,5.42184 -1.88668,11.09658 -2,16.65932c-0.43826,21.5142 -2.97759,43.20725 -5.18674,64.6875z" fill="url(#color-5)"/><path d="M-41.84328,229.63132c-0.15388,-7.4682 -0.34419,-14.93555 -0.56749,-22.40149c-0.15119,-5.05512 -0.93546,-9.6241 -0.9898,-15.11842c-0.17961,-18.15904 -0.23891,-36.31987 -0.17791,-54.48009h574.85492c0.17225,5.71713 0.34708,9.84554 0.32299,10.65318c-0.16173,5.42184 -1.88668,11.09658 -2,16.65932c-0.43826,21.5142 -2.97759,43.20725 -5.18674,64.6875z" fill="url(#color-6)"/><path d="M-43.98882,107.19473v-3h573v3z" fill="url(#color-7)"/></g></g></svg>