<svg version="1.1" xmlns="http://www.w3.org/2000/svg" xmlns:xlink="http://www.w3.org/1999/xlink" width="79.49276" height="80.13905" viewBox="0,0,79.49276,80.13905"><defs><radialGradient cx="240.00007" cy="179.99999" r="33.39887" gradientUnits="userSpaceOnUse" id="color-1"><stop offset="0" stop-color="#000000"/><stop offset="1" stop-color="#000000" stop-opacity="0"/></radialGradient><linearGradient x1="240.00004" y1="153.2788" x2="240.00004" y2="206.72118" gradientUnits="userSpaceOnUse" id="color-2"><stop offset="0" stop-color="#9b0000"/><stop offset="1" stop-color="#000000"/></linearGradient><linearGradient x1="243.59638" y1="164.26593" x2="243.59638" y2="195.73405" gradientUnits="userSpaceOnUse" id="color-3"><stop offset="0" stop-color="#ffffff"/><stop offset="1" stop-color="#ffcbcb"/></linearGradient><linearGradient x1="247.19274" y1="170.70941" x2="247.19274" y2="189.29057" gradientUnits="userSpaceOnUse" id="color-4"><stop offset="0" stop-color="#ff0000"/><stop offset="1" stop-color="#c00000"/></linearGradient></defs><g transform="translate(-200.4089,-139.93051)"><g data-paper-data="{&quot;isPaintingLayer&quot;:true}" fill-rule="nonzero" stroke-linecap="butt" stroke-linejoin="miter" stroke-miterlimit="10" stroke-dasharray="" stroke-dashoffset="0" style="mix-blend-mode: normal"><path d="M240.00007,213.39887c-18.44569,0 -33.39887,-14.95319 -33.39887,-33.39887c0,-18.44569 14.95319,-33.39887 33.39887,-33.39887c18.44569,0 33.39887,14.95319 33.39887,33.39887c0,18.44569 -14.95319,33.39887 -33.39887,33.39887z" fill="url(#color-1)" stroke="#000000" stroke-width="0"/><path d="M279.90166,220.06956h-79.49276v-80.13905h79.49276z" fill="none" stroke="none" stroke-width="NaN"/><path d="M216.19161,203.70284c-2.55201,-2.55175 -2.84079,-6.22808 -2.84079,-6.22808v-34.94463c0,0 0.33275,-3.81262 2.88518,-6.36614c2.55243,-2.55351 6.36219,-2.88518 6.36219,-2.88518h34.80368c0,0 3.53225,0.16754 6.09586,2.70764c2.56361,2.5401 3.15151,6.45491 3.15151,6.45491v35.14436c0,0 -0.45833,3.8133 -3.01834,6.29469c-2.56,2.48139 -6.40657,2.84079 -6.40657,2.84079h-34.62613c0,0 -3.85456,-0.4666 -6.40657,-3.01834z" fill="url(#color-2)" stroke="none" stroke-width="0"/><path d="M227.86232,179.99999c0,-8.68968 7.04438,-15.73406 15.73406,-15.73406c8.68968,0 15.73406,7.04438 15.73406,15.73406c0,8.68968 -7.04438,15.73406 -15.73406,15.73406c-8.68968,0 -15.73406,-7.04438 -15.73406,-15.73406z" fill="url(#color-3)" stroke="none" stroke-width="0"/><path d="M237.90215,179.99999c0,-5.13105 4.15954,-9.29059 9.29059,-9.29059c5.13105,0 9.29059,4.15954 9.29059,9.29059c0,5.13105 -4.15954,9.29059 -9.29059,9.29059c-5.13105,0 -9.29059,-4.15954 -9.29059,-9.29059z" fill="#000000" stroke="url(#color-4)" stroke-width="3.5"/><path d="M238.95109,173.40667c0,-2.56552 2.07977,-4.64529 4.64529,-4.64529c2.56552,0 4.64529,2.07977 4.64529,4.64529c0,2.56552 -2.07977,4.64529 -4.64529,4.64529c-2.56552,0 -4.64529,-2.07977 -4.64529,-4.64529z" fill="#ffffff" stroke="none" stroke-width="0"/></g></g></svg>