<svg version="1.1" xmlns="http://www.w3.org/2000/svg" xmlns:xlink="http://www.w3.org/1999/xlink" width="391.38054" height="264.84332" viewBox="0,0,391.38054,264.84332"><defs><radialGradient cx="189.21571" cy="243.3761" r="73" gradientUnits="userSpaceOnUse" id="color-1"><stop offset="0" stop-color="#ff0000"/><stop offset="1" stop-color="#ff0000" stop-opacity="0"/></radialGradient><linearGradient x1="432.21903" y1="276.29294" x2="321.50244" y2="263.4473" gradientUnits="userSpaceOnUse" id="color-2"><stop offset="0" stop-color="#730000"/><stop offset="1" stop-color="#d23232"/></linearGradient><linearGradient x1="458.77902" y1="247.67911" x2="458.77902" y2="364.37195" gradientUnits="userSpaceOnUse" id="color-3"><stop offset="0" stop-color="#960000"/><stop offset="1" stop-color="#d23232"/></linearGradient><linearGradient x1="391.98692" y1="157.80715" x2="482.1327" y2="157.80715" gradientUnits="userSpaceOnUse" id="color-4"><stop offset="0" stop-color="#3c0000"/><stop offset="1" stop-color="#000000"/></linearGradient><linearGradient x1="373.44797" y1="138.22379" x2="451.32898" y2="127.19678" gradientUnits="userSpaceOnUse" id="color-5"><stop offset="0" stop-color="#ff1f1f"/><stop offset="1" stop-color="#c80000"/></linearGradient><linearGradient x1="445.2832" y1="127.16087" x2="489.52149" y2="125.85561" gradientUnits="userSpaceOnUse" id="color-6"><stop offset="0" stop-color="#950000"/><stop offset="1" stop-color="#e00000"/></linearGradient><linearGradient x1="376.80409" y1="211.7665" x2="506.23521" y2="211.7665" gradientUnits="userSpaceOnUse" id="color-7"><stop offset="0" stop-color="#ff3e3e"/><stop offset="1" stop-color="#ab0202"/></linearGradient><linearGradient x1="377.0825" y1="214.1914" x2="459.74713" y2="214.1914" gradientUnits="userSpaceOnUse" id="color-8"><stop offset="0" stop-color="#ff3d3d"/><stop offset="1" stop-color="#d23232"/></linearGradient><radialGradient cx="410.86292" cy="218.07995" r="15.49605" gradientUnits="userSpaceOnUse" id="color-9"><stop offset="0" stop-color="#810000"/><stop offset="1" stop-color="#810000" stop-opacity="0"/></radialGradient><linearGradient x1="466.99607" y1="308.46189" x2="490.97573" y2="302.44788" gradientUnits="userSpaceOnUse" id="color-10"><stop offset="0" stop-color="#960000"/><stop offset="1" stop-color="#960000" stop-opacity="0"/></linearGradient><linearGradient x1="469.7779" y1="307.90606" x2="445.51021" y2="311.92042" gradientUnits="userSpaceOnUse" id="color-11"><stop offset="0" stop-color="#960000"/><stop offset="1" stop-color="#960000" stop-opacity="0"/></linearGradient><radialGradient cx="489.6783" cy="276.06258" r="19.48604" gradientUnits="userSpaceOnUse" id="color-12"><stop offset="0" stop-color="#a22727"/><stop offset="1" stop-color="#840000"/></radialGradient><linearGradient x1="282.10114" y1="258.46659" x2="340.42725" y2="258.46659" gradientUnits="userSpaceOnUse" id="color-13"><stop offset="0" stop-color="#d23232"/><stop offset="1" stop-color="#730000"/></linearGradient><radialGradient cx="141.01468" cy="212.32835" r="15.89554" gradientUnits="userSpaceOnUse" id="color-14"><stop offset="0" stop-color="#ffffff" stop-opacity="0"/><stop offset="1" stop-color="#ffffff"/></radialGradient><radialGradient cx="229.67722" cy="209.64027" r="15.89555" gradientUnits="userSpaceOnUse" id="color-15"><stop offset="0" stop-color="#ffffff" stop-opacity="0"/><stop offset="1" stop-color="#ffffff"/></radialGradient><radialGradient cx="187.89358" cy="291.24879" r="15.89554" gradientUnits="userSpaceOnUse" id="color-16"><stop offset="0" stop-color="#ffffff" stop-opacity="0"/><stop offset="1" stop-color="#ffffff"/></radialGradient><linearGradient x1="187.85105" y1="234.73789" x2="280.58347" y2="271.176" gradientUnits="userSpaceOnUse" id="color-17"><stop offset="0" stop-color="#ff0000"/><stop offset="1" stop-color="#ff0000" stop-opacity="0"/></linearGradient></defs><g transform="translate(-116.2157,-111.83057)"><g data-paper-data="{&quot;isPaintingLayer&quot;:true}" fill-rule="nonzero" stroke-linecap="butt" stroke-linejoin="miter" stroke-miterlimit="10" stroke-dasharray="" stroke-dashoffset="0" style="mix-blend-mode: normal"><path d="M116.21571,243.3761c0,-40.31679 32.68322,-73 73,-73c40.31679,0 73,32.68321 73,73c0,40.31678 -32.68321,73 -73,73c-40.31679,0 -73,-32.68322 -73,-73z" fill="url(#color-1)" stroke="#696969" stroke-width="0"/><path d="M312.94838,281.37368l17.1081,-35.85276l110.71661,12.84564l-17.1081,35.85276z" data-paper-data="{&quot;index&quot;:null}" fill="url(#color-2)" stroke="none" stroke-width="0"/><path d="M396.37963,290.8977l4.0202,-34.75094l15.29612,1.85845l-4.02021,34.75095z" fill="#810000" stroke="none" stroke-width="0"/><path d="M401.20476,291.08791l4.0202,-34.75094l15.29613,1.85845l-4.02021,34.75095z" fill="#670000" stroke="none" stroke-width="0"/><path d="M410.9573,290.56782l-31.55043,-6.23914c0,0 26.59217,5.05104 30.61457,1.37724c2.52445,-2.30567 -11.08168,-8.1161 -11.08168,-8.1161c0,0 9.71893,1.43821 11.49058,-1.40508c0.55822,-0.89589 -6.41397,-4.78135 -6.41397,-4.78135l3.05743,-3.44382c0,0 0.71008,-3.57309 -1.4216,-4.22593c-5.29953,-1.62297 -30.77396,-5.63392 -30.77396,-5.63392c0,0 23.43252,2.19151 30.83901,1.03337c4.85577,-0.75929 9.2752,-7.30595 9.2752,-7.30595l6.43541,1.02147l-5.14862,40.45235z" fill="#4c0000" stroke="none" stroke-width="0"/><path d="M428.50488,376.67389l-16.23815,-113.24293l79.09136,-15.75183l16.23815,117.99761l-30.35608,6.38913z" fill="url(#color-3)" stroke="none" stroke-width="0"/><path d="M394.79584,175.87734l-2.80892,-28.77536l50.79157,-7.36502l36.54529,0.17337l2.80892,28.77536z" fill="url(#color-4)" stroke="none" stroke-width="0"/><path d="M378.6746,153.82297l-2.13128,-26.70975l71.22002,-15.28265l0.92228,29.70976z" fill="url(#color-5)" stroke="none" stroke-width="0"/><path d="M447.21581,141.34262l-2.47337,-29.38616l42.73831,2.74008l2.58152,26.61912z" fill="url(#color-6)" stroke="none" stroke-width="0"/><path d="M388.40543,266.9775l-8.60134,-92.11382c0,0 48.09323,-11.75606 66.04334,-14.0555c11.62882,-1.48967 51.51342,-2.25268 51.51342,-2.25268l8.87436,92.54326z" fill="url(#color-7)" stroke="none" stroke-width="NaN"/><path d="M386.98959,267.54806l-8.40709,-93.54021l69.86568,-13.17314l11.29895,96.25493c0,0 -10.28303,1.47812 -17.86746,2.56834c-13.29347,1.91085 -54.89009,7.8901 -54.89009,7.8901z" fill="url(#color-8)" stroke="none" stroke-width="NaN"/><path d="M426.35895,218.07995c0,4.09644 -6.93781,7.41728 -15.49604,7.41728c-8.55822,0 -15.49603,-3.32082 -15.49603,-7.41728c0,-4.09644 6.93781,-7.41727 15.49603,-7.41727c8.55822,0 15.49604,3.32083 15.49604,7.41727z" fill="url(#color-9)" stroke="none" stroke-width="0"/><path d="M375.80632,230.49162l-2.99196,-21.46335l29.52904,6.0017l4.32722,10.94306z" fill="#ffffff" stroke="none" stroke-width="0"/><path d="M379.02776,225.73012l-1.35119,-9.83145l8.36347,-1.20718l1.35119,9.83145z" fill="#000000" stroke="none" stroke-width="0"/><path d="M420.90256,225.07131l-2.4352,-11.76384l30.30755,-14.21811l2.99196,21.46335z" fill="#ffffff" stroke="none" stroke-width="0"/><path d="M425.44272,219.92942l-1.25806,-9.1539l7.78709,-1.12399l1.25806,9.1539z" fill="#000000" stroke="none" stroke-width="0"/><path d="M387.25693,232.16621c0,0 27.64528,-1.15822 38.31626,-2.60256c8.505,-1.15119 20.69858,-5.38529 20.69858,-5.38529l11.13488,14.83455c0,0 -26.55861,5.09668 -36.37544,3.46294c-11.59787,-1.93014 -33.77427,-10.30965 -33.77427,-10.30965z" fill="#000000" stroke="none" stroke-width="0"/><path d="M412.15615,214.18363l-4.27543,-6.49176l40.49926,-20.32862l4.77542,9.99176z" fill="#000000" stroke="none" stroke-width="0"/><path d="M362.24346,209.05442l2.17293,-10.90079l44.18373,9.25004l-3.67293,8.4008z" data-paper-data="{&quot;index&quot;:null}" fill="#000000" stroke="none" stroke-width="0"/><path d="M476.90735,371.95354l-18.44545,-112.58926l23.97963,-6.01402l19.18779,113.73038z" fill="url(#color-10)" stroke="none" stroke-width="0"/><path d="M453.32618,374.10001l-14.06929,-114.14926l24.82443,-1.73212l12.9558,113.5787z" data-paper-data="{&quot;index&quot;:null}" fill="url(#color-11)" stroke="none" stroke-width="0"/><path d="M413.88854,276.21981l-2.23227,-9.82684c0,0 8.26533,-1.01206 14.18614,-1.69127c8.97073,-1.02911 33.84373,-3.88248 33.84373,-3.88248l2.78902,10.68269z" fill="#810000" stroke="none" stroke-width="0"/><path d="M412.77507,272.79643l-2.23226,-8.68573c0,0 18.39405,-2.51809 26.92951,-3.68658c7.73599,-1.05903 22.12106,-3.02831 22.12106,-3.02831l1.76833,10.68268z" fill="#670000" stroke="none" stroke-width="0"/><path d="M462.04689,271.08478l-2.51064,-11.53853l31.60592,-6.42961l4.73762,9.82686z" fill="#810000" stroke="none" stroke-width="0"/><path d="M459.26317,267.37611l-0.28367,-10.68268l31.60592,-3.86207l1.39716,5.26238z" fill="#670000" stroke="none" stroke-width="0"/><path d="M476.02283,307.44514l-0.51007,-6.06348l23.66596,-2.10717l0.13888,6.06348z" fill="#810000" stroke="none" stroke-width="0"/><path d="M475.65166,303.45124l-0.51006,-6.06348l23.85152,-2.10718l-0.04669,6.06349z" fill="#670000" stroke="none" stroke-width="0"/><path d="M474.24351,372.46744l-17.94012,-101.93351l7.13127,-2.27892l17.38338,103.07461z" fill="#810000" stroke="none" stroke-width="0"/><path d="M475.52267,372.04168l-16.40318,-108.52477l0.8091,1.60784l18.35178,106.52781z" fill="#670000" stroke="none" stroke-width="0"/><path d="M412.26045,265.87064l-0.5275,-1.81819l47.53992,-6.96104l31.98426,-4.451l-0.09352,2.65562l-3.17707,-0.46545l-7.73851,3.2801l-5.50677,15.28373l-4.89161,-15.98065l-2.50446,7.38074c0,0 -2.08364,-5.71654 -3.33256,-5.4389c-0.76657,0.17042 -1.87046,3.97282 -1.87046,3.97282c0,0 -2.57205,-1.54845 -2.60915,-1.42813c-0.62191,2.01731 -3.54136,11.48717 -3.54136,11.48717l-4.24878,-10.42415l0.36764,4.97734c0,0 -4.86755,-6.0742 -5.74443,-5.31676c-1.56092,1.34832 -1.69997,13.8822 -1.69997,13.8822l-5.69308,-14.11756l0.50671,6.18398l-9.6356,-5.44634l5.55084,24.46108l-9.78429,-22.9582l-2.45346,4.50909l-4.2786,-1.96823l-1.29802,9.45887z" fill="#4c0000" stroke="none" stroke-width="0"/><path d="M476.61254,371.85476c0,0 -0.95842,-2.75637 -1.71339,-3.82948c-0.99496,-1.41421 -3.73771,-3.91848 -3.73771,-3.91848c0,0 2.09703,0.28384 2.58233,-1.46665c0.50518,-1.82223 -0.60813,-5.69384 -1.00738,-6.33761c-1.00356,-1.61816 -9.71316,-19.69951 -9.71316,-19.69951l4.20151,-8.97838l-7.49465,-0.76705l7.60698,-4.59936l-2.19676,0.2675c0,0 1.98145,-5.16855 0.41224,-6.86512c-1.25611,-1.35805 -8.54228,-1.67075 -8.54228,-1.67075c0,0 6.92786,-3.50268 6.60572,-4.13838c-0.46015,-0.90802 -4.59464,0.35665 -4.59464,0.35665c0,0 4.31565,-2.532 4.08243,-2.81609c-3.05359,-3.7196 -24.75219,0.30554 -24.75219,0.30554c0,0 11.80268,-3.08705 16.27549,-4.29986c3.28016,-0.8894 8.11093,-2.3125 8.11093,-2.3125l-5.87865,-0.84576c0,0 6.9085,-0.36906 6.67614,-1.24155c-0.44615,-1.6754 -1.66334,-1.96911 -1.66334,-1.96911c0,0 0.8186,-3.62473 0.56923,-4.6005c-0.25928,-1.01459 -0.26871,-2.45362 -0.67244,-3.11529c-0.53989,-0.88486 -1.45575,-0.82931 -1.45575,-0.82931c0,0 1.01286,0.00738 1.65997,-0.87729c0.82153,-1.12312 3.85784,-4.782 3.85784,-4.782c0,0 -2.94899,-0.47863 -3.09013,-1.18861c-0.1777,-0.8939 1.13379,-3.15501 1.13379,-3.15501c0,0 -1.82735,-0.33399 -1.90537,-0.72645c-0.15495,-0.77947 -0.30811,-1.54992 -0.45738,-2.30085c-0.25442,-1.27993 5.18234,-4.8729 5.18234,-4.8729c0,0 -6.16095,-0.0499 -6.27659,-0.63172c-0.45743,-2.30108 -0.75633,-3.80473 -0.75633,-3.80473l-0.10566,2.15299l-2.05583,3.55716c0,0 2.98181,1.81356 3.16499,2.87599c0.04682,0.27151 -0.86098,0.71836 -2.17379,1.21608c-3.21524,1.21895 -8.85983,2.74288 -8.85983,2.74288c0,0 6.277,0.4553 10.05244,2.41922c1.58434,0.82415 2.61349,3.08916 2.73764,3.80926c0.08143,0.47231 0.16469,1.52581 0.24969,2.01876c0.10422,0.60449 4.77419,-0.05702 4.77419,-0.05702c0,0 -4.12415,3.25655 -3.95204,4.25492c0.07195,0.41723 2.00119,1.0362 2.00119,1.0362c0,0 -1.58868,1.3259 -1.48935,1.88416c0.23262,1.3073 4.84696,2.87376 4.84696,2.87376c0,0 -3.54827,4.22261 -3.24894,5.80189c0.07191,0.37949 1.442,0.79986 1.442,0.79986l5.91736,-0.96624c0,0 -4.5141,3.67954 -4.35063,6.23233c0.04516,0.70519 3.18632,1.56083 3.18632,1.56083c0,0 0.23313,2.29243 0.46413,4.56397c0.03992,0.39268 14.95553,-1.75816 14.95553,-1.75816c0,0 -14.60474,5.20752 -14.47648,6.46883c0.07871,0.77391 0.38598,1.6056 0.47525,2.48349c0.06865,0.67515 2.36636,0.46473 2.43868,1.18932c0.11784,1.18049 -2.67632,2.77064 -2.59022,4.06135c0.11331,1.69846 14.12357,0.33687 14.12357,0.33687c0,0 -9.48487,2.12979 -10.83119,5.44326c-0.42003,1.03374 7.33197,-1.12944 7.33197,-1.12944c0,0 -4.49167,1.33746 -5.26018,3.67529c-0.16602,0.50501 -0.60335,19.59103 0.20332,20.35764c1.32067,1.25508 6.54068,1.23465 6.54068,1.23465c0,0 -5.02051,1.62523 -6.05139,3.86594c-0.37491,0.8149 -0.56129,2.20868 -0.64223,3.71682c-0.04861,0.90579 6.7425,0.23006 6.7425,0.23006c0,0 -6.74678,4.40525 -6.71167,5.10621c0.04212,0.84088 0.08435,1.37959 0.08435,1.37959z" fill="#4c0000" stroke="none" stroke-width="0"/><path d="M475.62989,297.19863l-2.98902,-39.82152l29.97234,-3.3064l4.1025,40.67737z" fill="url(#color-12)" stroke="none" stroke-width="0"/><path d="M476.03776,300.94474v-3.42335l23.56883,-2.8528v2.8528l-0.56486,12.68378c0,0 -0.81491,-9.72848 -4.01741,-11.01767c-1.00815,-0.40586 -4.32292,3.35688 -4.32292,3.35688l-3.07182,-2.73083l-3.39204,13.48102l-0.09708,-13.18828l-2.57676,-0.27521l-3.81691,10.44615z" fill="#4c0000" stroke="none" stroke-width="0"/><path d="M337.66045,245.14309l31.13288,8.14962c0,0 -26.25224,-6.66165 -30.48059,-3.23933c-2.65368,2.14784 10.59146,8.77666 10.59146,8.77666c0,0 -9.61834,-2.02757 -11.55175,0.70279c-0.60919,0.8603 6.12536,5.16355 6.12536,5.16355l-3.25171,3.25152c0,0 -0.91602,3.52353 1.17403,4.30501c5.19603,1.94287 30.39285,7.49819 30.39285,7.49819c0,0 -23.26405,-3.61475 -30.72458,-2.90974c-4.89123,0.46222 -9.68248,6.72814 -9.68248,6.72814l-6.3648,-1.4116l7.48534,-40.06727z" data-paper-data="{&quot;index&quot;:null}" fill="#4c0000" stroke="none" stroke-width="0"/><path d="M282.10114,277.41853l23.93868,-43.96845l34.38741,9.06457l-12.93867,45.46845z" fill="url(#color-13)" stroke="none" stroke-width="0"/><path d="M458.76253,256.95277l-10.11953,-96.92624l2.26902,0.11496l10.56457,1.04481c0,0 -10.05174,5.73201 -9.85904,8.27826c0.08735,1.15433 4.53057,-0.88577 4.53057,-0.88577c0,0 -2.47574,2.41432 -2.39542,5.69223c0.02891,1.18005 12.3938,-0.25291 12.3938,-0.25291l-12.70405,6.33189l3.58104,1.12691l-2.62874,5.07463l8.35295,1.65456l-6.88713,5.7072l16.41037,1.23566l-16.93766,8.64531l4.2547,2.96361l-3.53526,2.88753l8.51745,1.18909l-6.95695,9.54131l12.63062,-2.74577c0,0 -10.05046,1.32771 -11.83169,7.43667c-0.58774,2.01574 4.89209,4.85118 4.89209,4.85118l-4.206,5.15231l2.70263,5.70502l-3.20756,3.5933l10.97522,10.09301z" fill="#920000" stroke="none" stroke-width="0"/><path d="M498.44794,158.96208l7.61952,93.92625l-1.26902,-0.11495l-10.56457,-1.0448c0,0 10.05174,-5.73202 9.85905,-8.27826c-0.08735,-1.15434 -4.53057,0.88578 -4.53057,0.88578c0,0 2.47573,-2.41432 2.39541,-5.69224c-0.02891,-1.18005 -12.3938,0.2529 -12.3938,0.2529l12.70404,-6.33189l-3.58105,-1.1269l2.62874,-5.07464l-8.35295,-1.65455l6.88712,-5.70721l-16.41037,-1.23566l16.93766,-8.64531l-4.2547,-2.9636l3.53525,-2.88753l-8.51745,-1.1891l6.95695,-9.54131l-12.63062,2.74578c0,0 10.05046,-1.32771 11.83169,-7.43666c0.58774,-2.01574 -4.89209,-4.85118 -4.89209,-4.85118l4.206,-5.15231l-2.70263,-5.70502l3.20755,-3.5933l-10.97521,-10.09299z" data-paper-data="{&quot;index&quot;:null}" fill="#4c0000" stroke="none" stroke-width="0"/><g><g fill="#ff0000" stroke="none" stroke-width="0"><path d="M230.8005,220.05073l-89.1258,-2.8219l0.12262,-6.84827l89.1258,2.82191z" data-paper-data="{&quot;index&quot;:null}"/><path d="M190.12059,289.74737l-50.31352,-75.78958l5.53859,-3.79491l50.31352,75.78959z" data-paper-data="{&quot;index&quot;:null}"/><path d="M186.17224,291.70097l39.96459,-80.84062l5.99742,3.14947l-39.96457,80.8406z" data-paper-data="{&quot;index&quot;:null}"/></g><path d="M148.86579,238.41352l-13.40876,-9.02949l18.97076,-29.70354l13.40876,9.02948z" fill="#c70000" stroke="none" stroke-width="0"/><path d="M205.31735,205.41869l13.23402,-8.24891l18.04038,29.79434l-13.23404,8.24892z" fill="#c70000" stroke="none" stroke-width="0"/><path d="M204.72328,270.3766l1.79049,16.22601l-34.71159,3.54809l-1.79049,-16.22601z" data-paper-data="{&quot;index&quot;:null}" fill="#c70000" stroke="none" stroke-width="0"/><path d="M150.5059,199.3951c6.84806,5.27921 8.15017,15.34928 2.9083,22.49213c-5.24186,7.14283 -15.0427,8.65362 -21.89076,3.37442c-6.84807,-5.27922 -8.15017,-15.34928 -2.9083,-22.49214c5.24186,-7.14284 15.04269,-8.65364 21.89076,-3.37443z" fill="url(#color-14)" stroke="#696969" stroke-width="5"/><path d="M239.16848,196.707c6.84806,5.27921 8.15015,15.34927 2.90829,22.49213c-5.24185,7.14284 -15.04269,8.65364 -21.89075,3.37443c-6.84806,-5.27921 -8.15016,-15.34928 -2.9083,-22.49213c5.24185,-7.14284 15.0427,-8.65365 21.89075,-3.37444z" fill="url(#color-15)" stroke="#696969" stroke-width="5"/><path d="M197.38481,278.31551c6.84806,5.27921 8.15017,15.34929 2.9083,22.49214c-5.24186,7.14285 -15.0427,8.65362 -21.89076,3.37442c-6.84806,-5.27922 -8.15016,-15.34926 -2.9083,-22.49212c5.24185,-7.14284 15.04269,-8.65363 21.89075,-3.37442z" fill="url(#color-16)" stroke="#696969" stroke-width="5"/></g><path d="M168.25669,238.43023c0,0 66.49744,-7.98863 99.12124,3.4846c19.68171,6.92172 62.79991,29.56881 62.79991,29.56881c0,0 -62.36243,-15.39428 -85.60167,-19.3571c-23.23924,-3.96282 -76.31948,-13.6963 -76.31948,-13.6963z" fill="url(#color-17)" stroke="none" stroke-width="0"/></g></g></svg>