<svg version="1.1" xmlns="http://www.w3.org/2000/svg" xmlns:xlink="http://www.w3.org/1999/xlink" width="85.96734" height="85.27405" viewBox="0,0,85.96734,85.27405"><defs><radialGradient cx="240.00004" cy="180.00002" r="32.79887" gradientUnits="userSpaceOnUse" id="color-1"><stop offset="0" stop-color="#000000"/><stop offset="1" stop-color="#000000" stop-opacity="0"/></radialGradient><linearGradient x1="216.06469" y1="180.00002" x2="263.93537" y2="180.00002" gradientUnits="userSpaceOnUse" id="color-2"><stop offset="0" stop-color="#eb0000"/><stop offset="1" stop-color="#ff5454"/></linearGradient><linearGradient x1="200.69707" y1="179.80295" x2="239.8982" y2="179.80295" gradientUnits="userSpaceOnUse" id="color-3"><stop offset="0" stop-color="#ff7b7b"/><stop offset="1" stop-color="#890000"/></linearGradient></defs><g transform="translate(-197.18302,-137.363)"><g data-paper-data="{&quot;isPaintingLayer&quot;:true}" fill-rule="nonzero" stroke-linejoin="miter" stroke-miterlimit="10" stroke-dasharray="" stroke-dashoffset="0" style="mix-blend-mode: normal"><path d="M197.18303,222.63705v-85.27405h85.96734v85.27405z" fill="none" stroke="none" stroke-width="NaN" stroke-linecap="butt"/><path d="M207.20116,180.00002c0,-18.11432 14.68456,-32.79887 32.79887,-32.79887c18.11432,0 32.79887,14.68456 32.79887,32.79887c0,18.11432 -14.68456,32.79887 -32.79887,32.79887c-18.11432,0 -32.79887,-14.68456 -32.79887,-32.79887z" fill="url(#color-1)" stroke="#000000" stroke-width="0" stroke-linecap="butt"/><path d="M216.06469,180.00002c0,-13.21912 10.71622,-23.93534 23.93534,-23.93534c13.21912,0 23.93534,10.71622 23.93534,23.93534c0,13.21912 -10.71622,23.93534 -23.93534,23.93534c-13.21912,0 -23.93534,-10.71622 -23.93534,-23.93534z" fill="url(#color-2)" stroke="#000000" stroke-width="0" stroke-linecap="butt"/><path d="M246.16388,190.67261c0,-2.44128 1.97905,-4.42033 4.42033,-4.42033c2.44128,0 4.42033,1.97905 4.42033,4.42033c0,2.44128 -1.97905,4.42033 -4.42033,4.42033c-2.44128,0 -4.42033,-1.97905 -4.42033,-4.42033z" fill="#000000" stroke="#000000" stroke-width="0" stroke-linecap="butt"/><path d="M246.21311,169.32743c0,-2.44128 1.97905,-4.42033 4.42033,-4.42033c2.44128,0 4.42033,1.97905 4.42033,4.42033c0,2.44128 -1.97905,4.42033 -4.42033,4.42033c-2.44128,0 -4.42033,-1.97905 -4.42033,-4.42033z" fill="#000000" stroke="#000000" stroke-width="0" stroke-linecap="butt"/><path d="M257.23933,168.72227v22.27848" fill="none" stroke="#000000" stroke-width="2" stroke-linecap="round"/><path d="M201.24086,196.65545c-3.62329,-8.11951 12.04148,-9.48697 12.16628,-17.56931c0.11499,-7.44653 -14.16852,-6.70527 -12.25969,-16.29837c1.75777,-8.83393 28.58934,-8.77267 28.58934,-8.77267c0,0 -8.90538,-8.11009 -7.51783,-10.51577c0.91364,-1.58404 11.99285,1.56255 12.83374,3.13758c2.11794,3.96703 4.82428,21.80147 4.82428,32.63079c0,10.21206 0.56979,20.97495 -4.19502,31.86059c-2.63749,6.02557 -13.57697,6.58058 -14.57852,3.81484c-0.80783,-2.23077 8.70383,-9.31591 8.70383,-9.31591c0,0 -23.99097,1.28142 -28.56641,-8.97178z" fill="url(#color-3)" stroke="none" stroke-width="0" stroke-linecap="butt"/><path d="M215.83334,167.78612l5.16666,-5.16666" fill="none" stroke="#b50202" stroke-width="1.5" stroke-linecap="round"/><path d="M232.91667,158.70279l-6.41667,7.75" fill="none" stroke="#fa3d3d" stroke-width="1.5" stroke-linecap="round"/><path d="M225.33334,183.95279l-10.91667,10.91667" fill="none" stroke="#b50202" stroke-width="1.5" stroke-linecap="round"/><path d="M217.83334,187.45279l8.08333,8.08334" fill="none" stroke="#b50202" stroke-width="1.5" stroke-linecap="round"/><path d="M235,198.78612l-6,-7" fill="none" stroke="#fa3d3d" stroke-width="1.5" stroke-linecap="round"/><path d="M233.83334,165.61945l4.08333,4.08333" fill="none" stroke="#fa3d3d" stroke-width="1.5" stroke-linecap="round"/><path d="M226,178.78612l6,3" fill="none" stroke="#fa3d3d" stroke-width="1.5" stroke-linecap="round"/><path d="M238.5,177.95278l-3.66666,-3.66666" fill="none" stroke="#7d0101" stroke-width="1.5" stroke-linecap="round"/><path d="M237,200.95279l-4,4.5" fill="none" stroke="#7d0101" stroke-width="1.5" stroke-linecap="round"/><path d="M234.16667,195.95279l2.83333,-3.16666" fill="none" stroke="#7d0101" stroke-width="1.5" stroke-linecap="round"/><path d="M228.83334,156.78612l2.16666,1.66666" fill="none" stroke="#7d0101" stroke-width="1.5" stroke-linecap="round"/><path d="M206.83334,195.45279l4.75,-4.75" fill="none" stroke="#fc7a7a" stroke-width="1.5" stroke-linecap="round"/><path d="M209.66667,169.11946l4,5" fill="none" stroke="#fc7a7a" stroke-width="1.5" stroke-linecap="round"/><path d="M219.5,157.28612l-1.66666,3.83334" fill="none" stroke="#fc7a7a" stroke-width="1.5" stroke-linecap="round"/></g></g></svg>