<svg version="1.1" xmlns="http://www.w3.org/2000/svg" xmlns:xlink="http://www.w3.org/1999/xlink" width="311" height="170.5" viewBox="0,0,311,170.5"><defs><radialGradient cx="168.25" cy="189" r="83.75" gradientUnits="userSpaceOnUse" id="color-1"><stop offset="0" stop-color="#00ffff" stop-opacity="0.50196"/><stop offset="1" stop-color="#00ffff" stop-opacity="0"/></radialGradient><radialGradient cx="210.03885" cy="186" r="83.75" gradientUnits="userSpaceOnUse" id="color-2"><stop offset="0" stop-color="#00ffff" stop-opacity="0.50196"/><stop offset="1" stop-color="#00ffff" stop-opacity="0"/></radialGradient><radialGradient cx="271.75" cy="186" r="83.75" gradientUnits="userSpaceOnUse" id="color-3"><stop offset="0" stop-color="#00ffff" stop-opacity="0.50196"/><stop offset="1" stop-color="#00ffff" stop-opacity="0"/></radialGradient><radialGradient cx="311.75" cy="186" r="83.75" gradientUnits="userSpaceOnUse" id="color-4"><stop offset="0" stop-color="#00ffff" stop-opacity="0.50196"/><stop offset="1" stop-color="#00ffff" stop-opacity="0"/></radialGradient><linearGradient x1="302.8487" y1="236.50568" x2="173.57753" y2="107.23451" gradientUnits="userSpaceOnUse" id="color-5"><stop offset="0" stop-color="#000000" stop-opacity="0.84706"/><stop offset="1" stop-color="#e6e6e6" stop-opacity="0.2902"/></linearGradient></defs><g transform="translate(-84.5,-102.25)"><g data-paper-data="{&quot;isPaintingLayer&quot;:true}" fill-rule="nonzero" stroke-linecap="butt" stroke-linejoin="miter" stroke-miterlimit="10" stroke-dasharray="" stroke-dashoffset="0" style="mix-blend-mode: normal"><g stroke="#9d9d9d" stroke-width="0"><path d="M84.5,189c0,-46.25385 37.49615,-83.75 83.75,-83.75c46.25385,0 83.75,37.49615 83.75,83.75c0,46.25385 -37.49615,83.75 -83.75,83.75c-46.25385,0 -83.75,-37.49615 -83.75,-83.75z" fill="url(#color-1)"/><path d="M126.28885,186c0,-46.25385 37.49615,-83.75 83.75,-83.75c46.25385,0 83.75,37.49615 83.75,83.75c0,46.25385 -37.49615,83.75 -83.75,83.75c-46.25385,0 -83.75,-37.49615 -83.75,-83.75z" fill="url(#color-2)"/><path d="M188,186c0,-46.25385 37.49615,-83.75 83.75,-83.75c46.25385,0 83.75,37.49615 83.75,83.75c0,46.25385 -37.49615,83.75 -83.75,83.75c-46.25385,0 -83.75,-37.49615 -83.75,-83.75z" fill="url(#color-3)"/><path d="M228,186c0,-46.25385 37.49615,-83.75 83.75,-83.75c46.25385,0 83.75,37.49615 83.75,83.75c0,46.25385 -37.49615,83.75 -83.75,83.75c-46.25385,0 -83.75,-37.49615 -83.75,-83.75z" fill="url(#color-4)"/></g><path d="M332.74821,213.93952c-5.43166,5.43111 -13.63566,6.42419 -13.63566,6.42419l-157.84718,-3.66667c0,0 -8.18698,-0.76495 -13.63566,-6.0463c-5.44868,-5.28135 -6.42419,-13.39751 -6.42419,-13.39751l3.66667,-34.44885c0,0 1.25126,-8.33223 6.70761,-13.73853c5.45634,-5.4063 12.97434,-5.76288 12.97434,-5.76288l150.89173,-3.66667c0,0 8.10864,0.7059 13.54118,6.14077c5.43254,5.43488 6.14077,13.54959 6.14077,13.54959l3.66667,41.35711c0,0 -0.61462,7.82464 -6.04628,13.25575z" data-paper-data="{&quot;index&quot;:null}" fill="url(#color-5)" stroke="none" stroke-width="0"/><g fill-opacity="0.50196" fill="#000000" stroke-opacity="0.50196" stroke="#000000" stroke-width="1" font-family="Sans Serif" font-weight="normal" font-size="40" text-anchor="start"><text transform="translate(153.88032,183.40445) scale(0.77504,0.77504)" font-size="40" xml:space="preserve" fill-opacity="0.50196" fill="#000000" fill-rule="nonzero" stroke-opacity="0.50196" stroke="#000000" stroke-width="1" stroke-linecap="butt" stroke-linejoin="miter" stroke-miterlimit="10" stroke-dasharray="" stroke-dashoffset="0" font-family="Sans Serif" font-weight="normal" text-anchor="start" style="mix-blend-mode: normal"><tspan x="0" dy="0">How to Play</tspan></text><text transform="translate(176.08976,202.21191) scale(0.41282,0.41282)" font-size="40" xml:space="preserve" fill-opacity="0.50196" fill="#000000" fill-rule="nonzero" stroke-opacity="0.50196" stroke="#000000" stroke-width="1" stroke-linecap="butt" stroke-linejoin="miter" stroke-miterlimit="10" stroke-dasharray="" stroke-dashoffset="0" font-family="Sans Serif" font-weight="normal" text-anchor="start" style="mix-blend-mode: normal"><tspan x="0" dy="0">(Recommended)</tspan></text></g><g fill="#ffffff" stroke="#ffffff" stroke-width="1" font-family="Sans Serif" font-weight="normal" font-size="40" text-anchor="start"><text transform="translate(151.2397,180.7357) scale(0.77504,0.77504)" font-size="40" xml:space="preserve" fill="#ffffff" fill-rule="nonzero" stroke="#ffffff" stroke-width="1" stroke-linecap="butt" stroke-linejoin="miter" stroke-miterlimit="10" stroke-dasharray="" stroke-dashoffset="0" font-family="Sans Serif" font-weight="normal" text-anchor="start" style="mix-blend-mode: normal"><tspan x="0" dy="0">How to Play</tspan></text><text transform="translate(173.94913,200.54315) scale(0.41282,0.41282)" font-size="40" xml:space="preserve" fill="#ffffff" fill-rule="nonzero" stroke="#ffffff" stroke-width="1" stroke-linecap="butt" stroke-linejoin="miter" stroke-miterlimit="10" stroke-dasharray="" stroke-dashoffset="0" font-family="Sans Serif" font-weight="normal" text-anchor="start" style="mix-blend-mode: normal"><tspan x="0" dy="0">(Recommended)</tspan></text></g></g></g></svg>