<svg version="1.1" xmlns="http://www.w3.org/2000/svg" xmlns:xlink="http://www.w3.org/1999/xlink" width="240.48108" height="231" viewBox="0,0,240.48108,231"><defs><radialGradient cx="442" cy="312" r="115.5" gradientUnits="userSpaceOnUse" id="color-1"><stop offset="0" stop-color="#ff00ff"/><stop offset="1" stop-color="#ff00ff" stop-opacity="0"/></radialGradient><linearGradient x1="491.51633" y1="365.72268" x2="551.42818" y2="365.72268" gradientUnits="userSpaceOnUse" id="color-2"><stop offset="0" stop-color="#dcd0e8"/><stop offset="1" stop-color="#ffffff"/></linearGradient><linearGradient x1="396.07286" y1="346.08164" x2="430.38808" y2="346.08164" gradientUnits="userSpaceOnUse" id="color-3"><stop offset="0" stop-color="#ffffff"/><stop offset="1" stop-color="#dcd0e8"/></linearGradient><linearGradient x1="408.62648" y1="286.56687" x2="494.78688" y2="372.72727" gradientUnits="userSpaceOnUse" id="color-4"><stop offset="0" stop-color="#f6f3f9"/><stop offset="1" stop-color="#e7def0"/></linearGradient><linearGradient x1="413.08542" y1="352.39275" x2="449.04701" y2="352.39275" gradientUnits="userSpaceOnUse" id="color-5"><stop offset="0" stop-color="#ffffff"/><stop offset="1" stop-color="#eae2f1"/></linearGradient><linearGradient x1="479.42069" y1="289.44803" x2="479.42069" y2="321.82678" gradientUnits="userSpaceOnUse" id="color-6"><stop offset="0" stop-color="#636363"/><stop offset="1" stop-color="#000000"/></linearGradient><linearGradient x1="451.51838" y1="351.29517" x2="506.94461" y2="351.29517" gradientUnits="userSpaceOnUse" id="color-7"><stop offset="0" stop-color="#ffffff"/><stop offset="1" stop-color="#dcd0e8"/></linearGradient><linearGradient x1="397.09891" y1="220.36879" x2="397.09891" y2="257.41228" gradientUnits="userSpaceOnUse" id="color-8"><stop offset="0" stop-color="#000000"/><stop offset="1" stop-color="#636363"/></linearGradient><linearGradient x1="389.27736" y1="238.54981" x2="437.6144" y2="286.88685" gradientUnits="userSpaceOnUse" id="color-9"><stop offset="0" stop-color="#ffffff"/><stop offset="1" stop-color="#e9e0f2"/></linearGradient><linearGradient x1="389.62455" y1="262.6258" x2="389.62455" y2="267.56493" gradientUnits="userSpaceOnUse" id="color-10"><stop offset="0" stop-color="#ffffff"/><stop offset="1" stop-color="#000000"/></linearGradient><linearGradient x1="416.71032" y1="252.86175" x2="416.71032" y2="261.58536" gradientUnits="userSpaceOnUse" id="color-11"><stop offset="0" stop-color="#000000"/><stop offset="1" stop-color="#636363"/></linearGradient><linearGradient x1="446.90182" y1="225.95151" x2="446.90182" y2="262.07702" gradientUnits="userSpaceOnUse" id="color-12"><stop offset="0" stop-color="#ffffff"/><stop offset="1" stop-color="#dcd0e8"/></linearGradient><linearGradient x1="453.49025" y1="232.30503" x2="453.49025" y2="246.57363" gradientUnits="userSpaceOnUse" id="color-13"><stop offset="0" stop-color="#000000"/><stop offset="1" stop-color="#000000" stop-opacity="0"/></linearGradient><linearGradient x1="450.7463" y1="246.57363" x2="450.7463" y2="252.33595" gradientUnits="userSpaceOnUse" id="color-14"><stop offset="0" stop-color="#000000"/><stop offset="1" stop-color="#000000" stop-opacity="0"/></linearGradient><linearGradient x1="459.25257" y1="246.84803" x2="459.25257" y2="256.45189" gradientUnits="userSpaceOnUse" id="color-15"><stop offset="0" stop-color="#000000"/><stop offset="1" stop-color="#000000" stop-opacity="0"/></linearGradient><linearGradient x1="461.85934" y1="239.16493" x2="461.85934" y2="246.29923" gradientUnits="userSpaceOnUse" id="color-16"><stop offset="0" stop-color="#000000"/><stop offset="1" stop-color="#000000" stop-opacity="0"/></linearGradient></defs><g transform="translate(-326.5,-196.5)"><g data-paper-data="{&quot;isPaintingLayer&quot;:true}" fill-rule="nonzero" stroke-linejoin="miter" stroke-miterlimit="10" stroke-dasharray="" stroke-dashoffset="0" style="mix-blend-mode: normal"><path d="M326.5,312c0,-63.78889 51.71111,-115.5 115.5,-115.5c63.78889,0 115.5,51.71111 115.5,115.5c0,63.78889 -51.71111,115.5 -115.5,115.5c-63.78889,0 -115.5,-51.71111 -115.5,-115.5z" fill="url(#color-1)" stroke="none" stroke-width="0" stroke-linecap="butt"/><path d="M498.65608,354.70262l-4.96678,-33.83623l30.11114,27.31733l21.06422,10.7522l22.11642,9.62792l-21.54954,3.53162l-22.86171,-2.83072z" fill="url(#color-2)" stroke="none" stroke-width="0" stroke-linecap="butt"/><path d="M401.83518,386.51567l-2.19516,-9.60387l5.2218,-7.64428l-4.80191,-61.47287l23.17818,-4.42102l7.15,43.98206l-0.56449,35.86722l-14.00156,5.29233z" fill="url(#color-3)" stroke="none" stroke-width="0" stroke-linecap="butt"/><path d="M425.91344,360.92823l-25.52855,-53.23411l1.71067,-9.01232l9.27488,-14.85889l38.68986,-12.89661l12.91691,18.40445l13.02515,11.42271l15.11758,15.45104l-0.17461,60.36432l-38.31912,-0.12618z" fill="url(#color-4)" stroke="none" stroke-width="0" stroke-linecap="butt"/><path d="M415.96658,391.04321l-2.74397,-10.70145l6.31938,-5.99792l0.6408,-66.82203l12.31115,-18.20569l12.97022,39.85074l2.34806,30.39946l-4.68044,29.14451l-11.8064,3.92036z" fill="url(#color-5)" stroke="none" stroke-width="0" stroke-linecap="butt"/><path d="M465.70089,305.36301l-2.46957,-15.91497l15.64058,12.62222l16.73816,19.75652l-16.23891,-3.69058z" fill="url(#color-6)" stroke="none" stroke-width="0" stroke-linecap="butt"/><path d="M460.21624,387.35507l-5.03961,-6.0834l2.59183,-6.76639l15.78657,-5.68584l-17.83591,-7.95393l-4.20074,-14.53978l3.76305,-20.85188l17.29461,-11.95847l22.65835,8.37997l11.71024,20.89149l-0.563,18.45403l-6.48738,8.47188l2.65198,7.53109l-24.47715,12.23179z" fill="url(#color-7)" stroke="none" stroke-width="0" stroke-linecap="butt"/><path d="M385.9888,257.41228l-9.06094,-13.53937l7.27737,-23.50411l20.08528,0.91798l12.97946,7.31391l-4.11594,24.69566z" fill="url(#color-8)" stroke="none" stroke-width="0" stroke-linecap="butt"/><path d="M381.11827,290.33982l-6.73215,-15.19664l3.4394,-12.79176l11.21883,-2.99938l-1.59508,-14.78042l8.37475,-12.56844l23.34053,-9.27919l23.80342,6.68618l15.10116,17.58165l-7.63418,27.07451l-11.14469,9.13922l-18.4912,10.5037l-18.31906,1.49009z" fill="url(#color-9)" stroke="none" stroke-width="0" stroke-linecap="butt"/><path d="M397.65064,262.21421l2.46957,10.28986l-10.70145,2.88116l-9.87826,-2.88116l2.46957,-10.28986z" data-paper-data="{&quot;index&quot;:null}" fill="#000000" stroke="none" stroke-width="0" stroke-linecap="butt"/><path d="M382.83324,267.56493l0.82319,-4.93913h11.93623l-0.82319,4.93913z" fill="url(#color-10)" stroke="none" stroke-width="0" stroke-linecap="butt"/><path d="M412.12834,261.58536l-6.42096,-4.92268l10.05396,-3.80093l11.95192,1.85612l-1.72357,5.70493z" data-paper-data="{&quot;index&quot;:null}" fill="url(#color-11)" stroke="none" stroke-width="0" stroke-linecap="butt"/><path d="M400.24188,256.43364l-3.60701,1.19776l-5.41776,-0.1305l-0.86299,-2.03421l5.77278,-0.70641z" data-paper-data="{&quot;index&quot;:null}" fill="#000000" stroke="none" stroke-width="0" stroke-linecap="butt"/><path d="M431.5327,257.96107l-4.11594,-24.69566l12.97946,-7.31391l22.82924,-0.64359l5.35659,23.22972l-9.88413,13.53937z" data-paper-data="{&quot;index&quot;:null}" fill="url(#color-12)" stroke="none" stroke-width="0" stroke-linecap="butt"/><path d="M389.41875,272.91566l0.54879,7.6831" fill="none" stroke="#000000" stroke-width="1.5" stroke-linecap="round"/><path d="M448.13953,240.26252l5.48793,-7.95749l5.21352,5.76232l-5.76232,8.50629z" data-paper-data="{&quot;index&quot;:null}" fill="url(#color-13)" stroke="none" stroke-width="0" stroke-linecap="butt"/><path d="M447.31634,252.33595l2.46957,-5.76232l4.39034,5.76232z" fill="url(#color-14)" stroke="none" stroke-width="0" stroke-linecap="butt"/><path d="M454.72504,255.9031l0.5488,-6.58551l4.71398,1.41964l3.79231,-3.8892l-0.61502,6.61389l-3.22652,2.98998z" fill="url(#color-15)" stroke="none" stroke-width="0" stroke-linecap="butt"/><path d="M458.29218,246.29923l5.21352,-7.13429l1.92077,5.21353z" fill="url(#color-16)" stroke="none" stroke-width="0" stroke-linecap="butt"/></g></g></svg>