<svg version="1.1" xmlns="http://www.w3.org/2000/svg" xmlns:xlink="http://www.w3.org/1999/xlink" width="65.59774" height="65.59774" viewBox="0,0,65.59774,65.59774"><defs><radialGradient cx="240.00005" cy="179.99999" r="32.79887" gradientUnits="userSpaceOnUse" id="color-1"><stop offset="0" stop-color="#000000"/><stop offset="1" stop-color="#000000" stop-opacity="0"/></radialGradient><linearGradient x1="248.08581" y1="173.65088" x2="268.90538" y2="163.69923" gradientUnits="userSpaceOnUse" id="color-2"><stop offset="0" stop-color="#000000"/><stop offset="1" stop-color="#ff0000"/></linearGradient><linearGradient x1="240.48194" y1="155.91816" x2="240.48194" y2="203.78885" gradientUnits="userSpaceOnUse" id="color-3"><stop offset="0" stop-color="#ffa0a0"/><stop offset="1" stop-color="#ff4444"/></linearGradient><linearGradient x1="227.03233" y1="203.75001" x2="227.03233" y2="156.25" gradientUnits="userSpaceOnUse" id="color-4"><stop offset="0" stop-color="#000000"/><stop offset="1" stop-color="#ff0000"/></linearGradient><linearGradient x1="243.83273" y1="168.75" x2="252.95679" y2="168.75" gradientUnits="userSpaceOnUse" id="color-5"><stop offset="0" stop-color="#000000"/><stop offset="1" stop-color="#000000" stop-opacity="0"/></linearGradient><linearGradient x1="243.83273" y1="190.5" x2="252.95679" y2="190.5" gradientUnits="userSpaceOnUse" id="color-6"><stop offset="0" stop-color="#000000"/><stop offset="1" stop-color="#000000" stop-opacity="0"/></linearGradient><linearGradient x1="256.63085" y1="180.00051" x2="264.16498" y2="180.00051" gradientUnits="userSpaceOnUse" id="color-7"><stop offset="0" stop-color="#ffffff"/><stop offset="1" stop-color="#ffffff" stop-opacity="0"/></linearGradient><linearGradient x1="256.63085" y1="180.00051" x2="264.16728" y2="180.00051" gradientUnits="userSpaceOnUse" id="color-8"><stop offset="0" stop-color="#000000"/><stop offset="1" stop-color="#000000" stop-opacity="0"/></linearGradient></defs><g transform="translate(-207.20117,-147.20112)"><g data-paper-data="{&quot;isPaintingLayer&quot;:true}" fill-rule="nonzero" stroke-linejoin="miter" stroke-miterlimit="10" stroke-dasharray="" stroke-dashoffset="0" style="mix-blend-mode: normal"><path d="M240.00005,212.79887c-18.11432,0 -32.79887,-14.68456 -32.79887,-32.79887c0,-18.11432 14.68456,-32.79887 32.79887,-32.79887c18.11432,0 32.79887,14.68456 32.79887,32.79887c0,18.11432 -14.68456,32.79887 -32.79887,32.79887z" fill="url(#color-1)" stroke="#000000" stroke-width="0" stroke-linecap="butt"/><path d="M242.64063,162.25917c0,0 19.34578,-13.03494 25.975,0.83388c7.48771,15.66484 -15.13574,21.84265 -15.13574,21.84265" fill="none" stroke="url(#color-2)" stroke-width="2.5" stroke-linecap="round"/><path d="M216.5466,179.85351c0,-13.21912 10.71622,-23.93534 23.93534,-23.93534c13.21912,0 23.93534,10.71622 23.93534,23.93534c0,13.21912 -10.71622,23.93534 -23.93534,23.93534c-13.21912,0 -23.93534,-10.71622 -23.93534,-23.93534z" fill="url(#color-3)" stroke="#000000" stroke-width="0" stroke-linecap="butt"/><path d="M227.03233,156.25c7.42801,0 13.4496,10.63324 13.4496,23.75c0,13.11676 -6.0216,23.75 -13.44961,23.75c-7.42801,0 -13.4496,-10.63324 -13.4496,-23.75c0,-13.11676 6.0216,-23.75 13.44961,-23.75z" fill="url(#color-4)" stroke="#ffffff" stroke-width="0" stroke-linecap="butt"/><path d="M252.95679,178.5h-9.12406v-19.5h9.12406z" fill="#ffffff" stroke="url(#color-5)" stroke-width="1.5" stroke-linecap="butt"/><path d="M252.95679,200.25h-9.12406v-19.5h9.12406z" fill="#ffffff" stroke="url(#color-6)" stroke-width="1.5" stroke-linecap="butt"/><path d="M242.33273,153.25c0,0 1.75,17.21181 1.75,26c0,9.03814 -1.75,27.5 -1.75,27.5" fill="none" stroke="#000000" stroke-width="2" stroke-linecap="round"/><path d="M256.63085,194.11573v-28.23044c0,0 7.39197,1.93371 7.53413,13.26005c0.15465,12.3225 -7.53413,14.97039 -7.53413,14.97039z" fill="url(#color-7)" stroke="url(#color-8)" stroke-width="1.5" stroke-linecap="butt"/></g></g></svg>