<svg version="1.1" xmlns="http://www.w3.org/2000/svg" xmlns:xlink="http://www.w3.org/1999/xlink" width="1368.67528" height="544.41581" viewBox="0,0,1368.67528,544.41581"><defs><radialGradient cx="240.06227" cy="180.00006" r="44.48787" gradientUnits="userSpaceOnUse" id="color-1"><stop offset="0" stop-color="#000000" stop-opacity="0.49412"/><stop offset="1" stop-color="#000000" stop-opacity="0"/></radialGradient><linearGradient x1="240.06227" y1="135.51218" x2="240.06227" y2="224.48794" gradientUnits="userSpaceOnUse" id="color-2"><stop offset="0" stop-color="#5c5c5c"/><stop offset="1" stop-color="#000000"/></linearGradient><radialGradient cx="240.00002" cy="180.00003" r="30.73787" gradientUnits="userSpaceOnUse" id="color-3"><stop offset="0" stop-color="#ff0000" stop-opacity="0.49412"/><stop offset="1" stop-color="#ff0000" stop-opacity="0"/></radialGradient><linearGradient x1="240.00002" y1="149.26215" x2="240.00002" y2="210.73791" gradientUnits="userSpaceOnUse" id="color-4"><stop offset="0" stop-color="#5c5c5c"/><stop offset="1" stop-color="#000000"/></linearGradient><linearGradient x1="264.16716" y1="180.00006" x2="283.57149" y2="180.00006" gradientUnits="userSpaceOnUse" id="color-5"><stop offset="0" stop-color="#363636"/><stop offset="1" stop-color="#808080"/></linearGradient><linearGradient x1="225.25836" y1="180.19105" x2="261.03949" y2="180.19105" gradientUnits="userSpaceOnUse" id="color-6"><stop offset="0" stop-color="#808080"/><stop offset="1" stop-color="#363636"/></linearGradient><linearGradient x1="243.14893" y1="136.41879" x2="243.14893" y2="178.68809" gradientUnits="userSpaceOnUse" id="color-7"><stop offset="0" stop-color="#ffffff" stop-opacity="0.74902"/><stop offset="1" stop-color="#ffffff" stop-opacity="0"/></linearGradient><linearGradient x1="259.76351" y1="180.00006" x2="269.76351" y2="180.00006" gradientUnits="userSpaceOnUse" id="color-8"><stop offset="0" stop-color="#000000"/><stop offset="1" stop-color="#5c5c5c"/></linearGradient><linearGradient x1="238.52402" y1="161.036" x2="238.52402" y2="201.82655" gradientUnits="userSpaceOnUse" id="color-9"><stop offset="0" stop-color="#5c5c5c"/><stop offset="1" stop-color="#000000"/></linearGradient><linearGradient x1="264.76351" y1="135.51218" x2="264.76351" y2="177.97245" gradientUnits="userSpaceOnUse" id="color-10"><stop offset="0" stop-color="#ffffff" stop-opacity="0.50196"/><stop offset="1" stop-color="#ffffff" stop-opacity="0"/></linearGradient><linearGradient x1="211.81679" y1="181.0735" x2="221.81679" y2="181.0735" gradientUnits="userSpaceOnUse" id="color-11"><stop offset="0" stop-color="#000000"/><stop offset="1" stop-color="#5c5c5c"/></linearGradient><linearGradient x1="228.02822" y1="162.94439" x2="207.99078" y2="162.94439" gradientUnits="userSpaceOnUse" id="color-12"><stop offset="0" stop-color="#000000"/><stop offset="1" stop-color="#5c5c5c"/></linearGradient><linearGradient x1="228.02822" y1="198.72552" x2="207.99078" y2="198.72552" gradientUnits="userSpaceOnUse" id="color-13"><stop offset="0" stop-color="#000000"/><stop offset="1" stop-color="#5c5c5c"/></linearGradient><radialGradient cx="207.87151" cy="208.62497" r="12.28485" gradientUnits="userSpaceOnUse" id="color-14"><stop offset="0" stop-color="#ff0000"/><stop offset="1" stop-color="#ff0000" stop-opacity="0"/></radialGradient><radialGradient cx="208.09134" cy="153.02615" r="12.28485" gradientUnits="userSpaceOnUse" id="color-15"><stop offset="0" stop-color="#ff0000"/><stop offset="1" stop-color="#ff0000" stop-opacity="0"/></radialGradient><linearGradient x1="376.70678" y1="-78.66546" x2="376.70678" y2="444.04539" gradientUnits="userSpaceOnUse" id="color-16"><stop offset="0" stop-color="#ff0000" stop-opacity="0.98431"/><stop offset="1" stop-color="#ffffff" stop-opacity="0.4"/></linearGradient><linearGradient x1="376.70678" y1="435.90412" x2="376.70678" y2="-86.80673" gradientUnits="userSpaceOnUse" id="color-17"><stop offset="0" stop-color="#ff0000" stop-opacity="0.98431"/><stop offset="1" stop-color="#ffffff" stop-opacity="0.4"/></linearGradient><linearGradient x1="1534.39915" y1="-75.97455" x2="1534.39915" y2="446.73631" gradientUnits="userSpaceOnUse" id="color-18"><stop offset="0" stop-color="#ff0000" stop-opacity="0.98431"/><stop offset="1" stop-color="#ffffff" stop-opacity="0.4"/></linearGradient><linearGradient x1="1533.89993" y1="437.68598" x2="1533.89993" y2="-85.02488" gradientUnits="userSpaceOnUse" id="color-19"><stop offset="0" stop-color="#ff0000" stop-opacity="0.98431"/><stop offset="1" stop-color="#ffffff" stop-opacity="0.4"/></linearGradient><linearGradient x1="1399.60961" y1="-75.97455" x2="1399.60961" y2="446.73631" gradientUnits="userSpaceOnUse" id="color-20"><stop offset="0" stop-color="#ff0000" stop-opacity="0.98431"/><stop offset="1" stop-color="#ffffff" stop-opacity="0.4"/></linearGradient><linearGradient x1="1399.11039" y1="437.68598" x2="1399.11039" y2="-85.02488" gradientUnits="userSpaceOnUse" id="color-21"><stop offset="0" stop-color="#ff0000" stop-opacity="0.98431"/><stop offset="1" stop-color="#ffffff" stop-opacity="0.4"/></linearGradient><linearGradient x1="1264.82008" y1="-75.97455" x2="1264.82008" y2="446.73631" gradientUnits="userSpaceOnUse" id="color-22"><stop offset="0" stop-color="#ff0000" stop-opacity="0.98431"/><stop offset="1" stop-color="#ffffff" stop-opacity="0.4"/></linearGradient><linearGradient x1="1264.32086" y1="437.68598" x2="1264.32086" y2="-85.02488" gradientUnits="userSpaceOnUse" id="color-23"><stop offset="0" stop-color="#ff0000" stop-opacity="0.98431"/><stop offset="1" stop-color="#ffffff" stop-opacity="0.4"/></linearGradient><linearGradient x1="1130.03054" y1="-75.97455" x2="1130.03054" y2="446.73631" gradientUnits="userSpaceOnUse" id="color-24"><stop offset="0" stop-color="#ff0000" stop-opacity="0.98431"/><stop offset="1" stop-color="#ffffff" stop-opacity="0.4"/></linearGradient><linearGradient x1="1129.53132" y1="437.68598" x2="1129.53132" y2="-85.02488" gradientUnits="userSpaceOnUse" id="color-25"><stop offset="0" stop-color="#ff0000" stop-opacity="0.98431"/><stop offset="1" stop-color="#ffffff" stop-opacity="0.4"/></linearGradient><linearGradient x1="995.241" y1="-75.97455" x2="995.241" y2="446.73631" gradientUnits="userSpaceOnUse" id="color-26"><stop offset="0" stop-color="#ff0000" stop-opacity="0.98431"/><stop offset="1" stop-color="#ffffff" stop-opacity="0.4"/></linearGradient><linearGradient x1="994.74178" y1="437.68598" x2="994.74178" y2="-85.02488" gradientUnits="userSpaceOnUse" id="color-27"><stop offset="0" stop-color="#ff0000" stop-opacity="0.98431"/><stop offset="1" stop-color="#ffffff" stop-opacity="0.4"/></linearGradient><linearGradient x1="860.45146" y1="-75.97455" x2="860.45146" y2="446.73631" gradientUnits="userSpaceOnUse" id="color-28"><stop offset="0" stop-color="#ff0000" stop-opacity="0.98431"/><stop offset="1" stop-color="#ffffff" stop-opacity="0.4"/></linearGradient><linearGradient x1="859.95224" y1="437.68598" x2="859.95224" y2="-85.02488" gradientUnits="userSpaceOnUse" id="color-29"><stop offset="0" stop-color="#ff0000" stop-opacity="0.98431"/><stop offset="1" stop-color="#ffffff" stop-opacity="0.4"/></linearGradient><linearGradient x1="725.66193" y1="-75.97455" x2="725.66193" y2="446.73631" gradientUnits="userSpaceOnUse" id="color-30"><stop offset="0" stop-color="#ff0000" stop-opacity="0.98431"/><stop offset="1" stop-color="#ffffff" stop-opacity="0.4"/></linearGradient><linearGradient x1="725.16271" y1="437.68598" x2="725.16271" y2="-85.02488" gradientUnits="userSpaceOnUse" id="color-31"><stop offset="0" stop-color="#ff0000" stop-opacity="0.98431"/><stop offset="1" stop-color="#ffffff" stop-opacity="0.4"/></linearGradient><linearGradient x1="590.87239" y1="-75.97455" x2="590.87239" y2="446.73631" gradientUnits="userSpaceOnUse" id="color-32"><stop offset="0" stop-color="#ff0000" stop-opacity="0.98431"/><stop offset="1" stop-color="#ffffff" stop-opacity="0.4"/></linearGradient><linearGradient x1="590.37317" y1="437.68598" x2="590.37317" y2="-85.02488" gradientUnits="userSpaceOnUse" id="color-33"><stop offset="0" stop-color="#ff0000" stop-opacity="0.98431"/><stop offset="1" stop-color="#ffffff" stop-opacity="0.4"/></linearGradient></defs><g transform="translate(-195.57439,93.58859)"><g data-paper-data="{&quot;isPaintingLayer&quot;:true}" fill-rule="nonzero" stroke-linejoin="miter" stroke-miterlimit="10" stroke-dasharray="" stroke-dashoffset="0" style="mix-blend-mode: normal"><path d="M195.57439,180.00006c0,-24.56998 19.9179,-44.48788 44.48788,-44.48788c24.56998,0 44.48787,19.9179 44.48787,44.48788c0,24.56998 -19.9179,44.48788 -44.48787,44.48788c-24.56998,0 -44.48788,-19.9179 -44.48788,-44.48787z" fill="url(#color-1)" stroke="url(#color-2)" stroke-width="0" stroke-linecap="butt"/><path d="M209.26214,180.00003c0,-16.97607 13.76182,-30.73788 30.73788,-30.73788c16.97607,0 30.73787,13.76181 30.73787,30.73788c0,16.97607 -13.76182,30.73788 -30.73787,30.73788c-16.97607,0 -30.73788,-13.76182 -30.73788,-30.73788z" fill="url(#color-3)" stroke="url(#color-4)" stroke-width="0" stroke-linecap="butt"/><path d="M264.16716,189.58784v-19.17555l19.40433,1.77918c0,0 0.96638,5.02763 0.96638,7.70012c0,2.59697 -0.96638,8.11476 -0.96638,8.11476z" fill="url(#color-5)" stroke="none" stroke-width="0" stroke-linecap="butt"/><path d="M225.25836,191.04466v-18.60619c0,0 13.8873,-6.7904 20.11251,-13.26461c5.64497,-5.87078 15.66863,-22.75506 15.66863,-22.75506v87.54451c0,0 -9.49549,-15.11523 -15.49576,-20.47548c-5.92584,-5.29375 -20.28537,-12.44316 -20.28537,-12.44316z" fill="url(#color-6)" stroke="#000000" stroke-width="0" stroke-linecap="butt"/><path d="M225.25836,180.11933v-7.68087c0,0 13.8873,-6.7904 20.11251,-13.26461c5.64497,-5.87078 15.66863,-22.75506 15.66863,-22.75506v43.70054z" fill="url(#color-7)" stroke="#000000" stroke-width="0" stroke-linecap="butt"/><path d="M264.76351,224.48794v-88.97575" fill="none" stroke="url(#color-8)" stroke-width="10" stroke-linecap="round"/><path d="M238.52402,161.03601v40.79049" fill="none" stroke="url(#color-9)" stroke-width="5" stroke-linecap="round"/><path d="M264.76351,184.65161v-49.13942" fill="none" stroke="url(#color-10)" stroke-width="10" stroke-linecap="round"/><path d="M278.36034,188.70681v-17.17495" fill="none" stroke="#ff0000" stroke-width="4" stroke-linecap="round"/><path d="M216.81679,201.11091v-40.07487" fill="none" stroke="url(#color-11)" stroke-width="15" stroke-linecap="round"/><path d="M216.22045,197.65208l-8.58748,-8.58747l7.99112,-7.99112l-8.22966,-8.22966l8.58747,-8.58748" fill="none" stroke="#ff0000" stroke-width="3.5" stroke-linecap="round"/><path d="M228.02822,172.9631l-20.03743,-20.03744" data-paper-data="{&quot;index&quot;:null}" fill="none" stroke="url(#color-12)" stroke-width="10" stroke-linecap="round"/><path d="M228.02821,188.7068l-20.03743,20.03744" data-paper-data="{&quot;index&quot;:null}" fill="none" stroke="url(#color-13)" stroke-width="10" stroke-linecap="round"/><path d="M195.58666,208.62497c0,-6.78474 5.50011,-12.28485 12.28485,-12.28485c6.78474,0 12.28485,5.50011 12.28485,12.28485c0,6.78474 -5.50011,12.28486 -12.28485,12.28486c-6.78474,0 -12.28485,-5.50012 -12.28485,-12.28486z" fill="url(#color-14)" stroke="none" stroke-width="0" stroke-linecap="butt"/><path d="M195.80648,153.02615c0,-6.78474 5.50011,-12.28485 12.28485,-12.28485c6.78474,0 12.28485,5.50011 12.28485,12.28485c0,6.78474 -5.50011,12.28486 -12.28485,12.28486c-6.78474,0 -12.28485,-5.50012 -12.28485,-12.28486z" fill="url(#color-15)" stroke="none" stroke-width="0" stroke-linecap="butt"/><path d="M278.36034,83.14764c0,0 21.41152,251.65978 30.77525,253.23146c8.13581,1.36557 13.55249,-361.3828 24.89254,-361.40989c6.76171,-0.01614 17.42995,444.04686 29.43928,443.44318c11.81137,-0.5937 15.14183,-491.37119 27.34187,-495.25974c11.31104,-3.60521 17.07649,516.01269 33.2957,517.82433c13.45452,1.50283 16.22557,-527.75156 25.97674,-527.78372c13.71899,-0.04527 24.97149,530.85212 24.97149,530.85212" data-paper-data="{&quot;index&quot;:null}" fill="none" stroke="url(#color-16)" stroke-width="10" stroke-linecap="round"/><path d="M475.05322,-86.80673c0,0 -11.2525,530.89741 -24.97149,530.85212c-9.75118,-0.03218 -12.52223,-529.28657 -25.97674,-527.78372c-16.21922,1.81164 -21.98466,521.42953 -33.2957,517.82433c-12.20004,-3.88856 -15.5305,-494.66603 -27.34187,-495.25974c-12.00932,-0.60365 -22.67757,443.45932 -29.43928,443.44318c-11.34005,-0.02708 -16.75675,-362.77547 -24.89254,-361.40989c-9.36373,1.57167 -30.77525,253.23146 -30.77525,253.23146" data-paper-data="{&quot;index&quot;:null}" fill="none" stroke="url(#color-17)" stroke-width="10" stroke-linecap="round"/><g fill="none" stroke-width="10" stroke-linecap="round"><g><g><path d="M1428.06519,442.19101c0,0 15.51462,-527.01098 28.46603,-527.21589c13.83237,-0.21883 22.72475,530.95914 36.08303,530.40613c12.79159,-0.52954 22.6172,-533.24771 30.86806,-533.39548c9.80283,-0.17558 35.6832,530.09165 35.76736,530.62686" data-paper-data="{&quot;index&quot;:null}" stroke="url(#color-18)"/><path d="M1554.01446,-88.58859c-3.83725,102.37521 -18.26148,530.78609 -26.23582,530.98437c-11.67529,0.29031 -24.25214,-528.68338 -37.11122,-529.96159c-13.44407,-1.33637 -21.47924,533.36283 -30.64166,533.39306c-13.71899,0.04527 -33.95746,-529.94307 -33.95746,-529.94307" data-paper-data="{&quot;index&quot;:null}" stroke="url(#color-19)"/></g><g><path d="M1293.27566,442.19101c0,0 15.51462,-527.01098 28.46603,-527.21589c13.83237,-0.21883 22.72475,530.95914 36.08303,530.40613c12.79159,-0.52954 22.6172,-533.24771 30.86806,-533.39548c9.80283,-0.17558 35.6832,530.09165 35.76736,530.62686" data-paper-data="{&quot;index&quot;:null}" stroke="url(#color-20)"/><path d="M1419.22493,-88.58859c-3.83725,102.37521 -18.26148,530.78609 -26.23582,530.98437c-11.67529,0.29031 -24.25214,-528.68338 -37.11122,-529.96159c-13.44407,-1.33637 -21.47924,533.36283 -30.64166,533.39306c-13.71899,0.04527 -33.95746,-529.94307 -33.95746,-529.94307" data-paper-data="{&quot;index&quot;:null}" stroke="url(#color-21)"/></g><g><path d="M1158.48612,442.19101c0,0 15.51462,-527.01098 28.46603,-527.21589c13.83237,-0.21883 22.72475,530.95914 36.08303,530.40613c12.79159,-0.52954 22.6172,-533.24771 30.86806,-533.39548c9.80283,-0.17558 35.6832,530.09165 35.76736,530.62686" data-paper-data="{&quot;index&quot;:null}" stroke="url(#color-22)"/><path d="M1284.43539,-88.58859c-3.83725,102.37521 -18.26148,530.78609 -26.23582,530.98437c-11.67529,0.29031 -24.25214,-528.68338 -37.11122,-529.96159c-13.44407,-1.33637 -21.47924,533.36283 -30.64166,533.39306c-13.71899,0.04527 -33.95746,-529.94307 -33.95746,-529.94307" data-paper-data="{&quot;index&quot;:null}" stroke="url(#color-23)"/></g><g><path d="M1023.69658,442.19101c0,0 15.51462,-527.01098 28.46603,-527.21589c13.83237,-0.21883 22.72475,530.95914 36.08303,530.40613c12.79159,-0.52954 22.6172,-533.24771 30.86806,-533.39548c9.80283,-0.17558 35.6832,530.09165 35.76736,530.62686" data-paper-data="{&quot;index&quot;:null}" stroke="url(#color-24)"/><path d="M1149.64585,-88.58859c-3.83725,102.37521 -18.26148,530.78609 -26.23582,530.98437c-11.67529,0.29031 -24.25214,-528.68338 -37.11122,-529.96159c-13.44407,-1.33637 -21.47924,533.36283 -30.64166,533.39306c-13.71899,0.04527 -33.95746,-529.94307 -33.95746,-529.94307" data-paper-data="{&quot;index&quot;:null}" stroke="url(#color-25)"/></g><g><path d="M888.90704,442.19101c0,0 15.51462,-527.01098 28.46603,-527.21589c13.83237,-0.21883 22.72475,530.95914 36.08303,530.40613c12.79159,-0.52954 22.6172,-533.24771 30.86806,-533.39548c9.80283,-0.17558 35.6832,530.09165 35.76736,530.62686" data-paper-data="{&quot;index&quot;:null}" stroke="url(#color-26)"/><path d="M1014.85631,-88.58859c-3.83725,102.37521 -18.26148,530.78609 -26.23582,530.98437c-11.67529,0.29031 -24.25214,-528.68338 -37.11122,-529.96159c-13.44407,-1.33637 -21.47924,533.36283 -30.64166,533.39306c-13.71899,0.04527 -33.95746,-529.94307 -33.95746,-529.94307" data-paper-data="{&quot;index&quot;:null}" stroke="url(#color-27)"/></g></g><g><g><path d="M754.11751,442.19101c0,0 15.51462,-527.01098 28.46603,-527.21589c13.83237,-0.21883 22.72475,530.95914 36.08303,530.40613c12.79159,-0.52954 22.6172,-533.24771 30.86806,-533.39548c9.80283,-0.17558 35.6832,530.09165 35.76736,530.62686" data-paper-data="{&quot;index&quot;:null}" stroke="url(#color-28)"/><path d="M880.06678,-88.58859c-3.83725,102.37521 -18.26148,530.78609 -26.23582,530.98437c-11.67529,0.29031 -24.25214,-528.68338 -37.11122,-529.96159c-13.44407,-1.33637 -21.47924,533.36283 -30.64166,533.39306c-13.71899,0.04527 -33.95746,-529.94307 -33.95746,-529.94307" data-paper-data="{&quot;index&quot;:null}" stroke="url(#color-29)"/></g><g><path d="M619.32797,442.19101c0,0 15.51462,-527.01098 28.46603,-527.21589c13.83237,-0.21883 22.72475,530.95914 36.08303,530.40613c12.79159,-0.52954 22.6172,-533.24771 30.86806,-533.39548c9.80283,-0.17558 35.6832,530.09165 35.76736,530.62686" data-paper-data="{&quot;index&quot;:null}" stroke="url(#color-30)"/><path d="M745.27724,-88.58859c-3.83725,102.37521 -18.26148,530.78609 -26.23582,530.98437c-11.67529,0.29031 -24.25214,-528.68338 -37.11122,-529.96159c-13.44407,-1.33637 -21.47924,533.36283 -30.64166,533.39306c-13.71899,0.04527 -33.95746,-529.94307 -33.95746,-529.94307" data-paper-data="{&quot;index&quot;:null}" stroke="url(#color-31)"/></g><g><path d="M484.53843,442.19101c0,0 15.51462,-527.01098 28.46603,-527.21589c13.83237,-0.21883 22.72475,530.95914 36.08303,530.40613c12.79159,-0.52954 22.6172,-533.24771 30.86806,-533.39548c9.80283,-0.17558 35.6832,530.09165 35.76736,530.62686" data-paper-data="{&quot;index&quot;:null}" stroke="url(#color-32)"/><path d="M610.4877,-88.58859c-3.83725,102.37521 -18.26148,530.78609 -26.23582,530.98437c-11.67529,0.29031 -24.25214,-528.68338 -37.11122,-529.96159c-13.44407,-1.33637 -21.47924,533.36283 -30.64166,533.39306c-13.71899,0.04527 -33.95746,-529.94307 -33.95746,-529.94307" data-paper-data="{&quot;index&quot;:null}" stroke="url(#color-33)"/></g></g></g></g></g></svg>