<svg version="1.1" xmlns="http://www.w3.org/2000/svg" xmlns:xlink="http://www.w3.org/1999/xlink" width="80.13905" height="79.49276" viewBox="0,0,80.13905,79.49276"><defs><radialGradient cx="240.00002" cy="180" r="32.79887" gradientUnits="userSpaceOnUse" id="color-1"><stop offset="0" stop-color="#000000"/><stop offset="1" stop-color="#000000" stop-opacity="0"/></radialGradient><linearGradient x1="212.03303" y1="180" x2="267.96699" y2="180" gradientUnits="userSpaceOnUse" id="color-2"><stop offset="0" stop-color="#cc0000"/><stop offset="1" stop-color="#f50000"/></linearGradient><linearGradient x1="225.26755" y1="180.14817" x2="238.06755" y2="180.14817" gradientUnits="userSpaceOnUse" id="color-3"><stop offset="0" stop-color="#ef0000"/><stop offset="1" stop-color="#ff7b7b"/></linearGradient><linearGradient x1="230.06755" y1="190.64817" x2="252.46755" y2="190.64817" gradientUnits="userSpaceOnUse" id="color-4"><stop offset="0" stop-color="#ef0000"/><stop offset="1" stop-color="#ff7b7b"/></linearGradient><linearGradient x1="230.06755" y1="169.64817" x2="252.46755" y2="169.64817" gradientUnits="userSpaceOnUse" id="color-5"><stop offset="0" stop-color="#ef0000"/><stop offset="1" stop-color="#ff7b7b"/></linearGradient><linearGradient x1="253.72655" y1="180.4534" x2="261.98964" y2="180.4534" gradientUnits="userSpaceOnUse" id="color-6"><stop offset="0" stop-color="#ff0000"/><stop offset="1" stop-color="#f56c6c"/></linearGradient><linearGradient x1="258.38964" y1="180.01873" x2="250.12655" y2="180.01873" gradientUnits="userSpaceOnUse" id="color-7"><stop offset="0" stop-color="#ff3d3d"/><stop offset="1" stop-color="#ffffff"/></linearGradient></defs><g transform="translate(-199.93049,-140.25362)"><g data-paper-data="{&quot;isPaintingLayer&quot;:true}" fill-rule="nonzero" stroke-linecap="butt" stroke-linejoin="miter" stroke-miterlimit="10" stroke-dasharray="" stroke-dashoffset="0" style="mix-blend-mode: normal"><path d="M207.20114,180c0,-18.11432 14.68456,-32.79887 32.79887,-32.79887c18.11432,0 32.79887,14.68456 32.79887,32.79887c0,18.11432 -14.68456,32.79887 -32.79887,32.79887c-18.11432,0 -32.79887,-14.68456 -32.79887,-32.79887z" fill="url(#color-1)" stroke="#000000" stroke-width="0"/><path d="M199.9305,219.74638v-79.49276h80.13905v79.49276z" fill="none" stroke="none" stroke-width="NaN"/><path d="M217.21699,179.81535c0,-6.42402 -8.84576,-14.98749 -3.42717,-21.51072c4.75102,-5.71956 21.21196,-3.86428 28.80217,-3.86428c14.01422,0 25.375,11.36077 25.375,25.375c0,14.01423 -11.36077,25.375 -25.375,25.375c-8.89132,0 -23.43811,3.1906 -28.74602,-4.49534c-4.34625,-6.29344 3.37102,-13.75676 3.37102,-20.87966z" fill="url(#color-2)" stroke="none" stroke-width="0"/><path d="M225.26755,197.24817c0,0 7.2,-11.58816 7.2,-17.4c0,-5.57861 -7.2,-16.8 -7.2,-16.8c0,0 3.90271,-3.4 5.8,-3.4c2.29371,0 7,3.4 7,3.4l4.33334,16.7597l-4.33334,17.44029c0,0 -4.08786,2.6 -6.4,2.6c-1.85119,0 -6.4,-2.6 -6.4,-2.6z" fill="url(#color-3)" stroke="none" stroke-width="0"/><path d="M230.06755,190.64817c0,-6.18559 5.01441,-11.2 11.2,-11.2c6.18559,0 11.2,5.01441 11.2,11.2c0,6.18559 -5.01441,11.2 -11.2,11.2c-6.18559,0 -11.2,-5.01441 -11.2,-11.2z" fill="url(#color-4)" stroke="none" stroke-width="0"/><path d="M230.06755,169.64817c0,-6.18559 5.01441,-11.2 11.2,-11.2c6.18559,0 11.2,5.01441 11.2,11.2c0,6.18559 -5.01441,11.2 -11.2,11.2c-6.18559,0 -11.2,-5.01441 -11.2,-11.2z" fill="url(#color-5)" stroke="none" stroke-width="0"/><path d="M251.16869,191.25c0,3.75554 -3.51457,6.8 -7.85,6.8c-4.33543,0 -7.85,-3.04446 -7.85,-6.8c0,-3.75554 3.51457,-6.8 7.85,-6.8c4.33543,0 7.85,3.04446 7.85,6.8z" fill="#ffffff" stroke="none" stroke-width="0"/><path d="M257.85809,175.62573c2.28179,0 4.13155,2.16142 4.13155,4.82766c0,2.66625 -1.84976,4.82766 -4.13155,4.82766c-2.28179,0 -4.13154,-2.16142 -4.13154,-4.82766c0,-2.66625 1.84976,-4.82766 4.13154,-4.82766z" data-paper-data="{&quot;index&quot;:null}" fill="url(#color-6)" stroke="#000000" stroke-width="0"/><path d="M254.25809,173.36546c2.28179,0 4.13155,2.97876 4.13155,6.65327c0,3.67451 -1.84976,6.65327 -4.13155,6.65327c-2.28179,0 -4.13155,-2.97876 -4.13155,-6.65327c0,-3.67451 1.84976,-6.65327 4.13155,-6.65327z" data-paper-data="{&quot;index&quot;:null}" fill="url(#color-7)" stroke="#000000" stroke-width="0"/><path d="M251.16869,168.75c0,3.53463 -3.51457,6.4 -7.85,6.4c-4.33543,0 -7.85,-2.86537 -7.85,-6.4c0,-3.53463 3.51457,-6.4 7.85,-6.4c4.33543,0 7.85,2.86538 7.85,6.4z" fill="#ffffff" stroke="none" stroke-width="0"/><path d="M250.79369,168.75c0,1.79493 -2.07068,3.25 -4.625,3.25c-2.55432,0 -4.625,-1.45507 -4.625,-3.25c0,-1.79493 2.07068,-3.25 4.625,-3.25c2.55432,0 4.625,1.45507 4.625,3.25z" fill="#000000" stroke="none" stroke-width="0"/><path d="M250.79369,191.25c0,1.79493 -2.07068,3.25 -4.625,3.25c-2.55432,0 -4.625,-1.45507 -4.625,-3.25c0,-1.79493 2.07068,-3.25 4.625,-3.25c2.55432,0 4.625,1.45507 4.625,3.25z" fill="#000000" stroke="none" stroke-width="0"/><path d="M240.83502,170.54817c0,-1.04934 0.85066,-1.9 1.9,-1.9c1.04934,0 1.9,0.85066 1.9,1.9c0,1.04934 -0.85066,1.9 -1.9,1.9c-1.04934,0 -1.9,-0.85066 -1.9,-1.9z" fill="#ffffff" stroke="none" stroke-width="0"/><path d="M241.43502,193.64817c0,-0.88366 0.71634,-1.6 1.6,-1.6c0.88366,0 1.6,0.71634 1.6,1.6c0,0.88366 -0.71635,1.6 -1.6,1.6c-0.88366,0 -1.6,-0.71634 -1.6,-1.6z" fill="#ffffff" stroke="none" stroke-width="0"/></g></g></svg>