<svg version="1.1" xmlns="http://www.w3.org/2000/svg" xmlns:xlink="http://www.w3.org/1999/xlink" width="228.03397" height="238.29405" viewBox="0,0,228.03397,238.29405"><defs><linearGradient x1="84.27105" y1="87.73057" x2="68.24989" y2="150.62567" gradientUnits="userSpaceOnUse" id="color-1"><stop offset="0" stop-color="#f2ff00"/><stop offset="1" stop-color="#939b00"/></linearGradient><linearGradient x1="47.36254" y1="106.16902" x2="75.10947" y2="113.23695" gradientUnits="userSpaceOnUse" id="color-2"><stop offset="0" stop-color="#bbc500"/><stop offset="1" stop-color="#d2dd00"/></linearGradient><radialGradient cx="133.62637" cy="229.52773" r="33.69722" gradientUnits="userSpaceOnUse" id="color-3"><stop offset="0" stop-color="#b0b900"/><stop offset="1" stop-color="#cfc840"/></radialGradient><linearGradient x1="64.1167" y1="152.26621" x2="203.80072" y2="152.26621" gradientUnits="userSpaceOnUse" id="color-4"><stop offset="0" stop-color="#cfc840"/><stop offset="1" stop-color="#f2ff00"/></linearGradient><linearGradient x1="43.35484" y1="23.24451" x2="43.35484" y2="78.429" gradientUnits="userSpaceOnUse" id="color-5"><stop offset="0" stop-color="#fffb00"/><stop offset="1" stop-color="#7e7c00"/></linearGradient><linearGradient x1="65.80544" y1="67.48168" x2="139.23692" y2="67.48168" gradientUnits="userSpaceOnUse" id="color-6"><stop offset="0" stop-color="#f2ff00"/><stop offset="1" stop-color="#fff766"/></linearGradient><linearGradient x1="57.0749" y1="60.28363" x2="131.59799" y2="60.28363" gradientUnits="userSpaceOnUse" id="color-7"><stop offset="0" stop-color="#929000"/><stop offset="1" stop-color="#fffb00"/></linearGradient><radialGradient cx="124.5991" cy="84.60976" r="8.60098" gradientUnits="userSpaceOnUse" id="color-8"><stop offset="0" stop-color="#00138b"/><stop offset="1" stop-color="#001ede"/></radialGradient><radialGradient cx="103.97485" cy="36.95774" r="6.12909" gradientUnits="userSpaceOnUse" id="color-9"><stop offset="0" stop-color="#00138b"/><stop offset="1" stop-color="#001ede"/></radialGradient><linearGradient x1="111.49599" y1="188.8744" x2="173.08641" y2="188.8744" gradientUnits="userSpaceOnUse" id="color-10"><stop offset="0" stop-color="#c0cb00"/><stop offset="1" stop-color="#dfd745"/></linearGradient><linearGradient x1="95.26708" y1="157.74442" x2="95.26708" y2="235.16589" gradientUnits="userSpaceOnUse" id="color-11"><stop offset="0" stop-color="#afafaf"/><stop offset="1" stop-color="#ffffff"/></linearGradient><linearGradient x1="128.38297" y1="149.12964" x2="117.0439" y2="190.25956" gradientUnits="userSpaceOnUse" id="color-12"><stop offset="0" stop-color="#b9b9b9"/><stop offset="1" stop-color="#303030"/></linearGradient><linearGradient x1="208.76092" y1="78.62408" x2="208.76092" y2="134.13421" gradientUnits="userSpaceOnUse" id="color-13"><stop offset="0" stop-color="#f2ff00"/><stop offset="1" stop-color="#bbc500"/></linearGradient><linearGradient x1="203.4158" y1="102.76699" x2="236.41665" y2="102.76699" gradientUnits="userSpaceOnUse" id="color-14"><stop offset="0" stop-color="#001ede"/><stop offset="1" stop-color="#7386ff"/></linearGradient><radialGradient cx="206.46233" cy="129.70908" r="3.4639" gradientUnits="userSpaceOnUse" id="color-15"><stop offset="0" stop-color="#00138b"/><stop offset="1" stop-color="#001ede"/></radialGradient><linearGradient x1="148.50433" y1="94.97399" x2="167.35091" y2="94.97399" gradientUnits="userSpaceOnUse" id="color-16"><stop offset="0" stop-color="#00138b"/><stop offset="1" stop-color="#001ede"/></linearGradient><linearGradient x1="208.36341" y1="26.10776" x2="214.63098" y2="50.66899" gradientTransform="translate(-243.88022,-181.46163) rotate(14.31505) scale(1.89365,1.89365)" gradientUnits="userSpaceOnUse" id="color-17"><stop offset="0" stop-color="#000000"/><stop offset="1" stop-color="#000000" stop-opacity="0.25098"/></linearGradient><linearGradient x1="201.15676" y1="10.97598" x2="203.87943" y2="30.07091" gradientTransform="translate(-379.78766,-128.55178) rotate(8.11527) scale(2.39263,2.39263)" gradientUnits="userSpaceOnUse" id="color-18"><stop offset="0" stop-color="#000000"/><stop offset="1" stop-color="#000000" stop-opacity="0"/></linearGradient></defs><g transform="translate(-27.47922,-5.97178)"><g data-paper-data="{&quot;isPaintingLayer&quot;:true}" fill-rule="nonzero" stroke="none" stroke-linecap="butt" stroke-linejoin="miter" stroke-miterlimit="10" stroke-dasharray="" stroke-dashoffset="0" style="mix-blend-mode: normal"><path d="M60.5789,148.67164c0,0 -11.05443,-31.87076 -9.44276,-34.21119c0.86037,-1.24942 11.83046,-6.0641 11.83046,-6.0641c0,0 5.44319,-1.04366 7.34057,1.68968c2.35548,3.39326 5.71757,17.12162 5.71757,17.12162c0,0 15.9131,-29.75857 16.09341,-34.52255c0.2491,-6.58119 16.2067,4.11877 16.2067,4.11877l-12.40321,48.69195c0,0 -14.35622,8.33715 -20.04795,6.8873c-3.88819,-0.99043 -15.29477,-3.71149 -15.29477,-3.71149z" fill="url(#color-1)" stroke-width="0"/><path d="M47.36254,106.16902c1.22474,-4.80801 5.04995,-9.92162 10.24924,-12.09237c3.08638,-1.28859 7.20137,-1.1147 10.05546,-0.38768c4.97355,1.2669 9.05332,5.75238 9.64398,10.94138c0.31928,2.80501 -1.51691,5.91804 -2.20176,8.6066c-1.95175,7.6621 -9.74532,12.29125 -17.40742,10.3395c-7.6621,-1.95175 -12.29125,-9.74532 -10.3395,-17.40742z" fill="url(#color-2)" stroke-width="0"/><path d="M73.50816,219.53901v-17.68678l65.00876,-11.67327l2.38566,22.75698c0,0 -38.86974,13.44194 -43.89582,13.44194c-7.09148,0 -23.49861,-6.83888 -23.49861,-6.83888z" fill="url(#color-3)" stroke-width="0"/><path d="M90.33349,120.77102c0,-9.15777 -2.16831,-26.5782 -2.16831,-26.5782l44.66722,-8.00204c0,0 8.7792,1.12112 17.06144,0.67417c13.09294,-0.70655 53.90688,-4.50391 53.90688,-4.50391l-10.54909,41.95522c0,0 -34.88129,-8.74573 -34.66026,-7.5126c2.24543,12.52692 10.26335,32.19838 10.26335,32.19838c0,0 -16.18647,28.35297 -29.08092,27.21568c-5.6116,-0.49494 -47.52853,43.25598 -58.77419,45.83392c-3.81962,0.8756 -12.4283,-3.13408 -15.54574,-9.25162c-2.80569,-5.5058 -0.3249,-13.14462 -0.3249,-13.14462l27.8498,-50.3833c0,0 -2.6453,-17.33872 -2.6453,-28.50111z" fill="url(#color-4)" stroke-width="0"/><path d="M59.00198,38.4889c2.09862,7.47657 -10.94985,39.9401 -10.94985,39.9401c0,0 0.4484,-12.63068 -1.65023,-20.10724c-0.45936,-1.63652 -2.93271,-7.31278 -7.0877,-10.88341c-5.36557,-4.61095 -12.56979,-7.26971 -11.77439,-9.4717c1.28577,-3.55951 5.02189,-7.59411 5.25408,-7.8719c0.48613,-0.58162 3.7936,-2.82449 5.30973,-3.81682c1.12778,-0.73813 4.09669,-2.22602 6.6816,-2.80722c1.99756,-0.44913 3.84047,-0.09078 3.96009,-0.09077c1.69453,0.00011 4.64283,-0.05197 7.0135,1.14665c1.90086,0.96108 3.46333,3.22578 3.46333,3.22578c0,0 -1.81043,5.0711 -0.22019,10.73652z" fill="url(#color-5)" stroke-width="0"/><path d="M55.68627,44.51406c0,0 -2.13636,-1.86122 -2.72565,-2.77482c-0.61736,-0.95713 -0.89823,-2.84343 -0.89823,-2.84343c0,0 1.51769,-2.75767 2.71391,-4.03737c1.31738,-1.40934 4.86206,-4.06738 4.86206,-4.06738l10.161,4.98982l-3.38416,7.08579z" fill="#817f00" stroke-width="0"/><path d="M59.74888,46.05453c0,0 -1.64802,-2.65864 -1.97236,-3.81418c-0.33981,-1.21058 -0.02226,-3.29188 -0.02226,-3.29188c0,0 2.49843,-2.41521 4.17676,-3.37594c1.84836,-1.05804 6.45264,-2.70855 6.45264,-2.70855l9.09523,8.57039l-5.8758,6.37365z" fill="#444300" stroke-width="0"/><path d="M67.19727,78.92897c-5.54488,-19.75416 5.97402,-40.26308 25.72817,-45.80795c19.75416,-5.54487 40.26308,5.97402 45.80795,25.72818c1.93357,6.88854 -2.32489,23.73165 -2.32489,23.73165c0,0 -9.34714,11.22454 -13.4854,15.02788c-2.61506,2.40341 -8.94641,5.58839 -8.94641,5.58839c0,0 -19.48253,0.34065 -25.78263,-1.0445c-6.80038,-1.49514 -15.63743,-8.12777 -15.63743,-8.12777c0,0 -3.35157,-7.94287 -5.35937,-15.09589z" fill="url(#color-6)" stroke-width="0"/><path d="M67.64469,78.77035c-3.10529,-11.06289 -0.85883,-22.36252 5.18872,-31.13796c4.25944,-6.18075 10.40447,-11.10932 17.89334,-13.82106c0.86442,-0.31301 2.62038,-0.94065 2.62038,-0.94065c0,0 -8.56604,6.98499 -13.06999,15.5541c-2.66645,5.07312 -5.2072,11.45142 -7.03068,17.14996c-3.85906,12.05996 13.75906,18.65386 13.75906,18.65386c0,0 0.51419,8.08171 4.72151,10.17085c6.02599,2.9922 22.6971,8.63903 22.6971,8.63903c0,0 -19.48252,0.34067 -25.78262,-1.04448c-6.80038,-1.49514 -15.63743,-8.12777 -15.63743,-8.12777c0,0 -3.35155,-7.94287 -5.35937,-15.09588z" fill="#d9e400" stroke-width="0"/><path d="M88.92185,86.36295c0,0 -5.57972,-5.11141 -7.94849,-8.00822c-1.17706,-1.43945 -3.82669,-6.21434 -3.82669,-6.21434l-6.34747,-2.20095c0,0 5.07759,-0.80967 9.30512,-1.48773c4.75236,-0.76224 8.87273,-1.41267 12.05842,-1.61551c6.13344,-0.39051 19.05029,-0.12885 19.05029,-0.12885c0,0 4.9174,0.92351 7.19437,0.26187c1.91253,-0.55574 5.73821,-2.78737 9.62758,-4.66374c5.1968,-2.50712 9.77339,-6.51912 9.77339,-6.51912c0,0 -0.7354,1.76198 -0.92221,2.82999c-0.28043,1.60323 -0.59675,5.85407 -0.59675,5.85407c0,0 -8.05847,9.37525 -12.1182,9.1093c-3.85112,-0.25229 -5.54006,-1.24793 -5.54006,-1.24793c0,0 -15.84133,9.31306 -16.08492,9.42614c-3.86982,1.7962 -13.62436,4.60502 -13.62436,4.60502z" fill="#000000" stroke-width="0"/><path d="M126.72171,66.44298l-3.91126,0.65425c0,0 4.08489,-2.05646 5.61764,-2.66109c1.57193,-0.62009 6.37646,-3.20746 6.37646,-3.20746l-3.15452,4.9775z" fill="#ffffff" stroke-width="0"/><path d="M127.59144,68.21854l-3.50395,1.49402c0,0 2.7599,-3.33831 4.29263,-3.94295c1.17585,-0.46385 6.40443,-4.39429 6.40443,-4.39429l-0.02796,1.18683l-3.15451,4.9775z" fill="#ffffff" stroke-width="0"/><path d="M98.31477,81.87148c0,0 -9.19067,-4.64529 -9.30605,-4.75932c-2.19298,-2.16726 -7.28432,-7.89906 -7.28432,-7.89906l15.80948,-0.11381l9.20521,2.97793l4.48152,2.01602z" fill="#ffffff" stroke-width="0"/><path d="M58.96133,80.00477c0,0 -2.5818,-13.68134 -1.7046,-19.16846c0.65526,-4.09882 3.96036,-14.78412 3.96036,-14.78412c0,0 10.21876,-9.97169 16.44818,-13.62651c5.47042,-3.20952 21.13179,-6.04673 21.13179,-6.04673l13.50245,3.16091c0,0 4.79656,2.75321 9.55685,6.26155c1.26322,0.93098 2.52388,1.91517 3.69168,2.91517c3.66355,3.13717 6.02922,7.33765 6.04809,7.33742c0.17216,-0.00209 -11.5988,-9.81183 -15.85669,-7.47534c-1.64036,0.90014 -8.31316,8.01571 -8.31316,8.01571c0,0 -14.0672,-3.65635 -18.02302,-2.27474c-8.82271,3.08141 -19.17983,13.34664 -20.16776,14.52831c-2.03758,2.43718 -3.09991,9.2734 -3.09991,9.2734c0,0 7.56962,27.47486 5.93038,26.01041c-3.16329,-2.826 -13.10462,-14.12697 -13.10462,-14.12697z" fill="url(#color-7)" stroke-width="0"/><path d="M101.99412,96.27485c0,0 -5.47748,-0.87792 -6.20138,-2.44686c-0.71442,-1.54841 -1.86396,-6.65601 -1.86396,-6.65601l7.02196,-0.5206l3.36293,3.50278c0,0 0.95984,-4.5504 1.29013,-4.53418c2.83186,0.13902 6.98404,0.61983 6.98404,0.61983l4.39189,1.40263l3.98684,-0.81444l-3.99581,4.48571c0,0 -4.42964,2.69088 -6.95549,3.52759c-2.46487,0.81651 -8.02115,1.43357 -8.02115,1.43357z" fill="#787600" stroke-width="0"/><path d="M136.37079,82.91826c0,0 -0.59019,0.59366 -1.68417,1.95496c-0.7289,0.907 -1.74685,2.33821 -2.72351,3.49027c-2.15267,2.53926 -4.07226,4.4827 -4.61907,5.08278c-0.24975,0.27411 -1.37777,-0.04326 -1.37777,-0.04326c0,0 -0.03195,-1.1626 -0.69426,-1.85911c-0.40888,-0.42998 -1.54619,-0.10439 -1.60381,-0.9471c-0.03928,-0.57448 -0.29736,-1.25563 0.06295,-2.09966c0.52297,-1.22507 1.72405,-2.6508 1.58248,-3.40418c-0.24186,-1.28715 -1.30332,-1.91816 -1.38246,-2.43211c-0.09444,-0.61328 0.18016,-1.30423 0.18016,-1.30423c0,0 0.73913,-0.76169 1.44743,-0.53739c0.73111,0.23153 1.44394,1.43954 2.2281,0.79563c0.48716,-0.40003 0.09405,-2.22376 0.08442,-3.4931c-0.00467,-0.61416 0.43102,-1.24242 0.43102,-1.24242c0,0 0.78974,-0.2589 1.34363,0.05077c0.6944,0.38823 1.23394,1.338 1.84013,1.02883c1.17789,-0.60073 1.36997,-3.39939 1.70625,-3.49378c4.57344,-1.28373 3.17848,8.45308 3.17848,8.45308z" fill="url(#color-8)" stroke-width="0"/><path d="M109.87589,35.30132c0.40096,1.42845 5.88271,5.65083 2.62366,6.56562c-1.94406,0.54569 -6.79212,-1.71608 -9.72463,-2.9936c-1.9836,-0.86415 -2.58765,-0.64626 -2.74944,-1.22263c-0.40096,-1.42845 -1.8107,-2.69752 1.44836,-3.61232c2.55167,-0.71624 5.26125,-0.05798 6.36345,0.70466c0.30555,0.21143 1.95157,0.24821 2.03861,0.55827z" fill="url(#color-9)" stroke-width="0"/><path d="M152.72744,174.65998c4.11972,14.07247 9.49425,28.99189 7.35268,37.61211c-0.0978,0.39365 9.58443,10.88648 9.58443,10.88648l-11.29387,20.5966c0,0 -9.59399,0.86879 -15.06593,0.33999c-1.67401,-0.16178 -3.62986,-2.5037 -3.62986,-2.5037l1.14559,-21.73256l-13.52007,-23.70581c0,0 -5.65882,-7.14617 -7.07351,-11.97858c-3.59397,-12.27654 -9.78315,-24.73471 -8.57758,-33.22951c1.01337,-7.14044 -0.3733,-12.65611 3.72539,-13.856c1.02053,-0.29876 4.85332,-3.05085 9.49467,-3.4882c6.48311,-0.61091 14.88414,1.27579 22.40864,2.84117c11.45142,2.38233 7.29546,-0.16396 13.30432,2.90525c6.00885,3.06921 7.83898,7.89432 7.83898,7.89432c0,0 4.62544,13.46055 4.66499,20.17354c0.03085,5.2358 -6.58602,10.69419 -6.58602,10.69419c0,0 -15.37351,-8.91697 -13.77284,-3.4493z" fill="url(#color-10)" stroke-width="0"/><g stroke-width="0"><path d="M65.87701,207.52656c0,0 1.81293,-9.6628 3.08527,-13.997c1.13671,-3.8722 3.10434,-11.66071 3.10434,-11.66071c0,0 3.96628,-7.80378 6.24115,-11.50675c2.0431,-3.32573 7.87113,-8.81923 7.87113,-8.81923c0,0 7.57544,-2.83164 11.15421,-3.50908c2.676,-0.50656 8.40857,-0.19406 8.40857,-0.19406l17.9925,8.81869c0,0 0.30982,3.79885 0.53012,6.50019c0.36463,4.47103 1.45222,17.80668 1.45222,17.80668c0,0 -1.38716,3.36482 -2.90274,5.08396c-1.90237,2.15784 -7.61716,6.84871 -7.61716,6.84871c0,0 -12.5286,6.28991 -18.60016,10.73555c-8.05178,5.89558 -25.46916,21.53235 -25.46916,21.53235c0,0 -5.18737,-12.65151 -6.15673,-17.7546c-0.63357,-3.33528 0.90644,-9.88468 0.90644,-9.88468z" fill="url(#color-11)"/><path d="M66.00817,207.8915c0,0 1.81293,-9.6628 3.08528,-13.99699c0.30506,-1.03919 3.45331,-4.38454 8.41902,-4.48741c4.03394,-0.08357 7.94586,4.66202 11.2457,6.79598c1.84601,1.19379 7.71338,0.97906 8.9936,2.64389c1.32386,1.72156 3.56018,3.64185 3.70161,5.62518c0.29778,4.17581 -3.11354,8.34581 -4.72575,9.52629c-8.05178,5.89558 -25.46917,21.53236 -25.46917,21.53236c0,0 -5.18737,-12.65151 -6.15673,-17.7546c-0.63357,-3.33528 0.90645,-9.88468 0.90645,-9.88468z" fill="#f2ff00"/><path d="M140.62123,152.69526c0,0 101.70955,-75.04471 108.95064,-79.34136c2.12724,-1.26224 4.84662,3.69147 4.84662,3.69147c0,0 0.66109,0.17824 0.7428,0.26068c0.16479,0.16627 0.35191,0.86998 0.35191,0.86998c0,0 -0.90276,2.6199 -3.03,3.88215c-7.23141,4.2909 -105.67335,80.95387 -105.67335,80.95387z" data-paper-data="{&quot;index&quot;:null}" fill="#595959"/><path d="M142.20056,171.58108l-17.0582,20.91116c0,0 -1.22087,-6.64842 -3.27233,-12.5766c-1.42214,-4.10955 -3.58653,-7.68198 -4.60192,-9.24292c-1.21379,-1.86597 -4.23703,-5.62936 -7.33202,-8.29657c-3.13677,-2.70324 -6.33758,-4.29801 -6.33758,-4.29801l26.10435,-5.21842l11.23637,-0.26843c0,0 3.82704,1.92738 4.74626,3.4852c0.37752,0.63978 1.2409,1.83952 1.42939,2.90235c0.34133,1.92462 -0.17322,3.78495 -0.17322,3.78495z" fill="url(#color-12)"/><path d="M88.82071,212.63366l14.73806,-10.07731c0,0 6.36016,-3.83724 8.99516,-6.2256c2.72415,-2.46916 8.1715,-8.53202 8.1715,-8.53202c0,0 0.1606,2.84335 -0.1828,4.25502c-0.30149,1.23946 -1.76822,3.76579 -1.76822,3.76579l-18.3082,12.15246z" fill="#cfcfcf"/><path d="M72.64002,192.9954l9.83447,-17.43716c0,0 1.87608,-1.69389 2.98242,-2.04959c0.62415,-0.20067 10.34751,-4.89837 10.34751,-4.89837c0,0 -2.26063,2.01154 -4.71485,3.65721c-1.30033,0.87192 -3.43203,1.76845 -3.60573,1.92935c-2.87991,2.66739 -4.30323,6.07544 -5.06353,7.0473c-1.99633,2.55181 -5.06344,8.58402 -5.06344,8.58402l-8.18443,14.05631z" data-paper-data="{&quot;index&quot;:null}" fill="#cfcfcf"/><path d="M80.01081,207.54113l16.69999,-27.63632l10.49656,-11.6961l-18.04236,28.96291z" fill="#cfcfcf"/></g><path d="M181.00586,106.37915c0,-15.32871 12.42637,-27.75506 27.75506,-27.75506c15.32871,0 27.75506,12.42637 27.75506,27.75506c0,15.32871 -12.42637,27.75506 -27.75506,27.75506c-15.32871,0 -27.75506,-12.42637 -27.75506,-27.75506z" fill="url(#color-13)" stroke-width="0"/><path d="M208.47739,78.17873c15.43043,0 27.93926,12.50883 27.93926,27.93926c0,2.90305 -2.39877,13.62341 -8.3599,16.29083c-6.02952,2.69803 -9.3388,5.61721 -12.77712,4.80969c-0.59483,-0.1397 0.14176,-10.48889 2.78523,-15.37392c1.1341,-2.09578 -3.95844,-4.16623 -4.19288,-7.1885c-0.21926,-2.82667 4.44978,-6.65208 4.53349,-7.45212c0.26656,-2.54772 -1.85342,-5.97804 -5.45413,-7.90473c-3.25234,-1.74028 -8.00929,-2.10723 -8.00929,-2.10723c0,0 -2.32435,-2.42857 -1.23626,-5.09786c0.52347,-1.28419 3.62441,-3.91543 4.77161,-3.91543z" fill="url(#color-14)" stroke-width="0"/><path d="M200.04165,131.58301c-0.21481,-0.94035 -0.3787,-3.12995 0.50834,-4.49009c0.87225,-1.33744 2.94866,-1.22819 3.87332,-1.43942c0.37307,-0.08522 1.95141,0.3412 2.76201,0.16457c0.85944,-0.18726 1.77895,-1.30532 2.62839,-1.20241c2.35451,0.28523 3.27355,1.40838 3.52401,2.50477c0.42604,1.86502 -4.23895,5.53952 -6.10397,5.96556c-1.86502,0.42604 -6.76607,0.36204 -7.1921,-1.50298z" fill="url(#color-15)" stroke-width="0"/><path d="M167.35091,91.56465c0,3.02812 -2.10207,7.95905 -7.93225,7.95905c-5.83018,0 -10.91433,1.79004 -10.91433,-1.23808c0,-1.90116 2.67271,-3.63401 5.57222,-5.27487c1.71877,-0.97266 3.05302,-2.44835 5.2228,-2.44835c5.83018,0 8.05156,-2.02588 8.05156,1.00224z" fill="url(#color-16)" stroke-width="0"/><text transform="translate(148.4833,61.00776) rotate(-14.31505) scale(0.52808,0.52808)" font-size="40" xml:space="preserve" fill="url(#color-17)" fill-rule="nonzero" stroke="none" stroke-width="1" stroke-linecap="butt" stroke-linejoin="miter" stroke-miterlimit="10" stroke-dasharray="" stroke-dashoffset="0" font-family="Sans Serif" font-weight="normal" text-anchor="start" style="mix-blend-mode: normal"><tspan x="0" dy="0">@ponpin_</tspan></text><text transform="translate(164.7274,30.78276) rotate(-8.11527) scale(0.41795,0.41795)" font-size="40" xml:space="preserve" fill="url(#color-18)" fill-rule="nonzero" stroke="none" stroke-width="1" stroke-linecap="butt" stroke-linejoin="miter" stroke-miterlimit="10" stroke-dasharray="" stroke-dashoffset="0" font-family="Sans Serif" font-weight="normal" text-anchor="start" style="mix-blend-mode: normal"><tspan x="0" dy="0">Art by</tspan></text></g></g></svg>