<svg version="1.1" xmlns="http://www.w3.org/2000/svg" xmlns:xlink="http://www.w3.org/1999/xlink" width="653.22994" height="457.8855" viewBox="0,0,653.22994,457.8855"><defs><linearGradient x1="229.6951" y1="-7.86657" x2="229.6951" y2="314.7394" gradientUnits="userSpaceOnUse" id="color-1"><stop offset="0" stop-color="#3bcdff"/><stop offset="1" stop-color="#ffffff"/></linearGradient><linearGradient x1="193.18135" y1="65.07005" x2="194.62652" y2="232.61166" gradientUnits="userSpaceOnUse" id="color-2"><stop offset="0" stop-color="#46f2ea"/><stop offset="1" stop-color="#94ccc3"/></linearGradient><linearGradient x1="193.62734" y1="161.30714" x2="194.00972" y2="233.30825" gradientUnits="userSpaceOnUse" id="color-3"><stop offset="0" stop-color="#ffffff" stop-opacity="0"/><stop offset="1" stop-color="#ffffff"/></linearGradient><linearGradient x1="175.72908" y1="76.34148" x2="177.08364" y2="233.37843" gradientUnits="userSpaceOnUse" id="color-4"><stop offset="0" stop-color="#94ccc3"/><stop offset="1" stop-color="#46f2ea"/></linearGradient><linearGradient x1="176.46948" y1="162.17782" x2="177.09047" y2="234.16956" gradientUnits="userSpaceOnUse" id="color-5"><stop offset="0" stop-color="#ffffff" stop-opacity="0"/><stop offset="1" stop-color="#ffffff"/></linearGradient><linearGradient x1="182.45445" y1="146.79278" x2="182.6423" y2="168.57099" gradientUnits="userSpaceOnUse" id="color-6"><stop offset="0" stop-color="#00e8c7"/><stop offset="1" stop-color="#bff9ff"/></linearGradient><linearGradient x1="182.31735" y1="146.54344" x2="182.47868" y2="165.24706" gradientUnits="userSpaceOnUse" id="color-7"><stop offset="0" stop-color="#ffffff"/><stop offset="1" stop-color="#ffffff" stop-opacity="0"/></linearGradient><linearGradient x1="258.07488" y1="325.92674" x2="258.07488" y2="84.9528" gradientUnits="userSpaceOnUse" id="color-8"><stop offset="0" stop-color="#ffffff"/><stop offset="1" stop-color="#ffffff" stop-opacity="0"/></linearGradient><linearGradient x1="403.80737" y1="-99.8523" x2="410.39608" y2="195.97969" gradientUnits="userSpaceOnUse" id="color-9"><stop offset="0" stop-color="#46f2ea"/><stop offset="1" stop-color="#94ccc3"/></linearGradient><linearGradient x1="405.8407" y1="70.07569" x2="407.58402" y2="197.20968" gradientUnits="userSpaceOnUse" id="color-10"><stop offset="0" stop-color="#ffffff" stop-opacity="0"/><stop offset="1" stop-color="#ffffff"/></linearGradient><linearGradient x1="324.24072" y1="-79.95009" x2="330.41631" y2="197.3336" gradientUnits="userSpaceOnUse" id="color-11"><stop offset="0" stop-color="#ffffff"/><stop offset="1" stop-color="#46f2ea"/></linearGradient><linearGradient x1="329.40844" y1="71.61307" x2="332.23958" y2="198.73051" gradientUnits="userSpaceOnUse" id="color-12"><stop offset="0" stop-color="#ffffff" stop-opacity="0"/><stop offset="1" stop-color="#ffffff"/></linearGradient><linearGradient x1="354.90236" y1="44.44735" x2="355.75881" y2="82.90163" gradientUnits="userSpaceOnUse" id="color-13"><stop offset="0" stop-color="#00e8c7"/><stop offset="1" stop-color="#bff9ff"/></linearGradient><linearGradient x1="354.27731" y1="44.0071" x2="355.01285" y2="77.0325" gradientUnits="userSpaceOnUse" id="color-14"><stop offset="0" stop-color="#ffffff"/><stop offset="1" stop-color="#ffffff" stop-opacity="0"/></linearGradient><linearGradient x1="250.07786" y1="373.99585" x2="250.07786" y2="133.02187" gradientUnits="userSpaceOnUse" id="color-15"><stop offset="0" stop-color="#ffffff"/><stop offset="1" stop-color="#ffffff" stop-opacity="0"/></linearGradient><radialGradient cx="255.84839" cy="244.01166" r="108.33895" gradientUnits="userSpaceOnUse" id="color-16"><stop offset="0" stop-color="#ffffff" stop-opacity="0.09412"/><stop offset="1" stop-color="#ffffff" stop-opacity="0"/></radialGradient><radialGradient cx="313.1776" cy="232.83615" r="113.45732" gradientUnits="userSpaceOnUse" id="color-17"><stop offset="0" stop-color="#ffffff" stop-opacity="0.09412"/><stop offset="1" stop-color="#ffffff" stop-opacity="0"/></radialGradient><radialGradient cx="307.65793" cy="250.3631" r="62.27357" gradientUnits="userSpaceOnUse" id="color-18"><stop offset="0" stop-color="#ffffff" stop-opacity="0.09412"/><stop offset="1" stop-color="#ffffff" stop-opacity="0"/></radialGradient><radialGradient cx="301.18931" cy="244.00777" r="87.01238" gradientUnits="userSpaceOnUse" id="color-19"><stop offset="0" stop-color="#ffffff" stop-opacity="0.09412"/><stop offset="1" stop-color="#ffffff" stop-opacity="0"/></radialGradient><radialGradient cx="261.81798" cy="232.4392" r="84.4532" gradientUnits="userSpaceOnUse" id="color-20"><stop offset="0" stop-color="#ffffff" stop-opacity="0.09412"/><stop offset="1" stop-color="#ffffff" stop-opacity="0"/></radialGradient><radialGradient cx="232.80179" cy="256.01896" r="69.09807" gradientUnits="userSpaceOnUse" id="color-21"><stop offset="0" stop-color="#ffffff" stop-opacity="0.09412"/><stop offset="1" stop-color="#ffffff" stop-opacity="0"/></radialGradient><radialGradient cx="249.89394" cy="244.46151" r="63.12663" gradientUnits="userSpaceOnUse" id="color-22"><stop offset="0" stop-color="#ffffff" stop-opacity="0.09412"/><stop offset="1" stop-color="#ffffff" stop-opacity="0"/></radialGradient><radialGradient cx="191.07137" cy="247.19501" r="65.68582" gradientUnits="userSpaceOnUse" id="color-23"><stop offset="0" stop-color="#ffffff" stop-opacity="0.09412"/><stop offset="1" stop-color="#ffffff" stop-opacity="0"/></radialGradient><radialGradient cx="301.29891" cy="211.49085" r="162.93496" gradientUnits="userSpaceOnUse" id="color-24"><stop offset="0" stop-color="#ffffff" stop-opacity="0.09412"/><stop offset="1" stop-color="#ffffff" stop-opacity="0"/></radialGradient><radialGradient cx="230.07218" cy="242.53724" r="130.51858" gradientUnits="userSpaceOnUse" id="color-25"><stop offset="0" stop-color="#ffffff" stop-opacity="0.09412"/><stop offset="1" stop-color="#ffffff" stop-opacity="0"/></radialGradient><radialGradient cx="301.02672" cy="219.21086" r="78.48176" gradientUnits="userSpaceOnUse" id="color-26"><stop offset="0" stop-color="#ffffff" stop-opacity="0.09412"/><stop offset="1" stop-color="#ffffff" stop-opacity="0"/></radialGradient><radialGradient cx="208.96499" cy="223.60011" r="88.71851" gradientUnits="userSpaceOnUse" id="color-27"><stop offset="0" stop-color="#ffffff" stop-opacity="0.09412"/><stop offset="1" stop-color="#ffffff" stop-opacity="0"/></radialGradient><radialGradient cx="209.39978" cy="240.67728" r="113.45732" gradientUnits="userSpaceOnUse" id="color-28"><stop offset="0" stop-color="#ffffff" stop-opacity="0.09412"/><stop offset="1" stop-color="#ffffff" stop-opacity="0"/></radialGradient><radialGradient cx="217.49031" cy="257.17578" r="62.27357" gradientUnits="userSpaceOnUse" id="color-29"><stop offset="0" stop-color="#ffffff" stop-opacity="0.09412"/><stop offset="1" stop-color="#ffffff" stop-opacity="0"/></radialGradient><radialGradient cx="222.93058" cy="249.92072" r="87.01238" gradientUnits="userSpaceOnUse" id="color-30"><stop offset="0" stop-color="#ffffff" stop-opacity="0.09412"/><stop offset="1" stop-color="#ffffff" stop-opacity="0"/></radialGradient><radialGradient cx="260.1167" cy="232.56769" r="84.4532" gradientUnits="userSpaceOnUse" id="color-31"><stop offset="0" stop-color="#ffffff" stop-opacity="0.09412"/><stop offset="1" stop-color="#ffffff" stop-opacity="0"/></radialGradient><radialGradient cx="304.82999" cy="212.93503" r="65.68582" gradientUnits="userSpaceOnUse" id="color-32"><stop offset="0" stop-color="#ffffff" stop-opacity="0.09412"/><stop offset="1" stop-color="#ffffff" stop-opacity="0"/></radialGradient><radialGradient cx="246.9677" cy="183.08714" r="88.71851" gradientUnits="userSpaceOnUse" id="color-33"><stop offset="0" stop-color="#ffffff" stop-opacity="0.09412"/><stop offset="1" stop-color="#ffffff" stop-opacity="0"/></radialGradient><radialGradient cx="213.8911" cy="209.54012" r="108.33895" gradientUnits="userSpaceOnUse" id="color-34"><stop offset="0" stop-color="#ffffff" stop-opacity="0.09412"/><stop offset="1" stop-color="#ffffff" stop-opacity="0"/></radialGradient><radialGradient cx="160.73571" cy="230.66616" r="82.74707" gradientUnits="userSpaceOnUse" id="color-35"><stop offset="0" stop-color="#ffffff" stop-opacity="0.09412"/><stop offset="1" stop-color="#ffffff" stop-opacity="0"/></radialGradient><radialGradient cx="271.22035" cy="198.36459" r="113.45732" gradientUnits="userSpaceOnUse" id="color-36"><stop offset="0" stop-color="#ffffff" stop-opacity="0.09412"/><stop offset="1" stop-color="#ffffff" stop-opacity="0"/></radialGradient><radialGradient cx="265.70066" cy="215.89149" r="62.27357" gradientUnits="userSpaceOnUse" id="color-37"><stop offset="0" stop-color="#ffffff" stop-opacity="0.09412"/><stop offset="1" stop-color="#ffffff" stop-opacity="0"/></radialGradient><radialGradient cx="259.23202" cy="209.53631" r="87.01238" gradientUnits="userSpaceOnUse" id="color-38"><stop offset="0" stop-color="#ffffff" stop-opacity="0.09412"/><stop offset="1" stop-color="#ffffff" stop-opacity="0"/></radialGradient><radialGradient cx="219.86069" cy="197.96764" r="84.4532" gradientUnits="userSpaceOnUse" id="color-39"><stop offset="0" stop-color="#ffffff" stop-opacity="0.09412"/><stop offset="1" stop-color="#ffffff" stop-opacity="0"/></radialGradient><radialGradient cx="190.8445" cy="221.54735" r="69.09807" gradientUnits="userSpaceOnUse" id="color-40"><stop offset="0" stop-color="#ffffff" stop-opacity="0.09412"/><stop offset="1" stop-color="#ffffff" stop-opacity="0"/></radialGradient><radialGradient cx="207.93664" cy="209.99002" r="63.12663" gradientUnits="userSpaceOnUse" id="color-41"><stop offset="0" stop-color="#ffffff" stop-opacity="0.09412"/><stop offset="1" stop-color="#ffffff" stop-opacity="0"/></radialGradient><radialGradient cx="149.11408" cy="212.72342" r="65.68582" gradientUnits="userSpaceOnUse" id="color-42"><stop offset="0" stop-color="#ffffff" stop-opacity="0.09412"/><stop offset="1" stop-color="#ffffff" stop-opacity="0"/></radialGradient><radialGradient cx="259.34161" cy="177.01925" r="162.93496" gradientUnits="userSpaceOnUse" id="color-43"><stop offset="0" stop-color="#ffffff" stop-opacity="0.09412"/><stop offset="1" stop-color="#ffffff" stop-opacity="0"/></radialGradient><radialGradient cx="188.11487" cy="208.06568" r="130.51858" gradientUnits="userSpaceOnUse" id="color-44"><stop offset="0" stop-color="#ffffff" stop-opacity="0.09412"/><stop offset="1" stop-color="#ffffff" stop-opacity="0"/></radialGradient><radialGradient cx="259.06943" cy="184.73927" r="78.48176" gradientUnits="userSpaceOnUse" id="color-45"><stop offset="0" stop-color="#ffffff" stop-opacity="0.09412"/><stop offset="1" stop-color="#ffffff" stop-opacity="0"/></radialGradient><radialGradient cx="167.00773" cy="189.1286" r="88.71851" gradientUnits="userSpaceOnUse" id="color-46"><stop offset="0" stop-color="#ffffff" stop-opacity="0.09412"/><stop offset="1" stop-color="#ffffff" stop-opacity="0"/></radialGradient><radialGradient cx="225.80006" cy="208.6403" r="108.33895" gradientUnits="userSpaceOnUse" id="color-47"><stop offset="0" stop-color="#ffffff" stop-opacity="0.09412"/><stop offset="1" stop-color="#ffffff" stop-opacity="0"/></radialGradient><radialGradient cx="281.52632" cy="221.5397" r="82.74707" gradientUnits="userSpaceOnUse" id="color-48"><stop offset="0" stop-color="#ffffff" stop-opacity="0.09412"/><stop offset="1" stop-color="#ffffff" stop-opacity="0"/></radialGradient><radialGradient cx="167.44251" cy="206.20565" r="113.45732" gradientUnits="userSpaceOnUse" id="color-49"><stop offset="0" stop-color="#ffffff" stop-opacity="0.09412"/><stop offset="1" stop-color="#ffffff" stop-opacity="0"/></radialGradient><radialGradient cx="175.53302" cy="222.70415" r="62.27357" gradientUnits="userSpaceOnUse" id="color-50"><stop offset="0" stop-color="#ffffff" stop-opacity="0.09412"/><stop offset="1" stop-color="#ffffff" stop-opacity="0"/></radialGradient><radialGradient cx="180.97332" cy="215.44925" r="87.01238" gradientUnits="userSpaceOnUse" id="color-51"><stop offset="0" stop-color="#ffffff" stop-opacity="0.09412"/><stop offset="1" stop-color="#ffffff" stop-opacity="0"/></radialGradient><radialGradient cx="218.15945" cy="198.09618" r="84.4532" gradientUnits="userSpaceOnUse" id="color-52"><stop offset="0" stop-color="#ffffff" stop-opacity="0.09412"/><stop offset="1" stop-color="#ffffff" stop-opacity="0"/></radialGradient><radialGradient cx="250.38918" cy="217.0484" r="69.09807" gradientUnits="userSpaceOnUse" id="color-53"><stop offset="0" stop-color="#ffffff" stop-opacity="0.09412"/><stop offset="1" stop-color="#ffffff" stop-opacity="0"/></radialGradient><radialGradient cx="205.01043" cy="148.61555" r="88.71851" gradientUnits="userSpaceOnUse" id="color-54"><stop offset="0" stop-color="#ffffff" stop-opacity="0.09412"/><stop offset="1" stop-color="#ffffff" stop-opacity="0"/></radialGradient><radialGradient cx="299.59763" cy="211.61937" r="113.45732" gradientUnits="userSpaceOnUse" id="color-55"><stop offset="0" stop-color="#ffffff" stop-opacity="0.09412"/><stop offset="1" stop-color="#ffffff" stop-opacity="0"/></radialGradient><radialGradient cx="294.07796" cy="229.14624" r="62.27357" gradientUnits="userSpaceOnUse" id="color-56"><stop offset="0" stop-color="#ffffff" stop-opacity="0.09412"/><stop offset="1" stop-color="#ffffff" stop-opacity="0"/></radialGradient><radialGradient cx="287.60932" cy="222.79108" r="87.01238" gradientUnits="userSpaceOnUse" id="color-57"><stop offset="0" stop-color="#ffffff" stop-opacity="0.09412"/><stop offset="1" stop-color="#ffffff" stop-opacity="0"/></radialGradient><radialGradient cx="103.03599" cy="225.61531" r="78.48176" gradientUnits="userSpaceOnUse" id="color-58"><stop offset="0" stop-color="#ffffff" stop-opacity="0.09412"/><stop offset="1" stop-color="#ffffff" stop-opacity="0"/></radialGradient><radialGradient cx="333.34714" cy="171.42767" r="88.71851" gradientUnits="userSpaceOnUse" id="color-59"><stop offset="0" stop-color="#ffffff" stop-opacity="0.09412"/><stop offset="1" stop-color="#ffffff" stop-opacity="0"/></radialGradient><radialGradient cx="112.15482" cy="255.72409" r="63.12663" gradientUnits="userSpaceOnUse" id="color-60"><stop offset="0" stop-color="#ffffff" stop-opacity="0.09412"/><stop offset="1" stop-color="#ffffff" stop-opacity="0"/></radialGradient><radialGradient cx="63.86129" cy="261.93949" r="45.21232" gradientUnits="userSpaceOnUse" id="color-61"><stop offset="0" stop-color="#ffffff" stop-opacity="0.09412"/><stop offset="1" stop-color="#ffffff" stop-opacity="0"/></radialGradient><radialGradient cx="60.42468" cy="239.10082" r="43.50619" gradientUnits="userSpaceOnUse" id="color-62"><stop offset="0" stop-color="#ffffff" stop-opacity="0.09412"/><stop offset="1" stop-color="#ffffff" stop-opacity="0"/></radialGradient><radialGradient cx="83.12351" cy="290.42645" r="45.21232" gradientUnits="userSpaceOnUse" id="color-63"><stop offset="0" stop-color="#ffffff" stop-opacity="0.09412"/><stop offset="1" stop-color="#ffffff" stop-opacity="0"/></radialGradient><radialGradient cx="46.78422" cy="262.37427" r="46.91844" gradientUnits="userSpaceOnUse" id="color-64"><stop offset="0" stop-color="#ffffff" stop-opacity="0.09412"/><stop offset="1" stop-color="#ffffff" stop-opacity="0"/></radialGradient><radialGradient cx="73.71355" cy="233.81932" r="46.91844" gradientUnits="userSpaceOnUse" id="color-65"><stop offset="0" stop-color="#ffffff" stop-opacity="0.09412"/><stop offset="1" stop-color="#ffffff" stop-opacity="0"/></radialGradient><radialGradient cx="159.11001" cy="175.18194" r="66.53888" gradientUnits="userSpaceOnUse" id="color-66"><stop offset="0" stop-color="#ffffff" stop-opacity="0.09412"/><stop offset="1" stop-color="#ffffff" stop-opacity="0"/></radialGradient><radialGradient cx="229.66382" cy="157.87424" r="88.71851" gradientUnits="userSpaceOnUse" id="color-67"><stop offset="0" stop-color="#ffffff" stop-opacity="0.09412"/><stop offset="1" stop-color="#ffffff" stop-opacity="0"/></radialGradient><radialGradient cx="402.39248" cy="156.80042" r="66.53888" gradientUnits="userSpaceOnUse" id="color-68"><stop offset="0" stop-color="#ffffff" stop-opacity="0.09412"/><stop offset="1" stop-color="#ffffff" stop-opacity="0"/></radialGradient><radialGradient cx="413.24667" cy="209.87644" r="63.12663" gradientUnits="userSpaceOnUse" id="color-69"><stop offset="0" stop-color="#ffffff" stop-opacity="0.09412"/><stop offset="1" stop-color="#ffffff" stop-opacity="0"/></radialGradient><radialGradient cx="154.53925" cy="216.59097" r="46.91844" gradientUnits="userSpaceOnUse" id="color-70"><stop offset="0" stop-color="#ffffff" stop-opacity="0.09412"/><stop offset="1" stop-color="#ffffff" stop-opacity="0"/></radialGradient><radialGradient cx="403.71194" cy="196.90892" r="66.53888" gradientUnits="userSpaceOnUse" id="color-71"><stop offset="0" stop-color="#ffffff" stop-opacity="0.09412"/><stop offset="1" stop-color="#ffffff" stop-opacity="0"/></radialGradient><radialGradient cx="117.86732" cy="240.74905" r="54.59601" gradientUnits="userSpaceOnUse" id="color-72"><stop offset="0" stop-color="#ffffff" stop-opacity="0.09412"/><stop offset="1" stop-color="#ffffff" stop-opacity="0"/></radialGradient><radialGradient cx="489.43356" cy="187.86564" r="53.74294" gradientUnits="userSpaceOnUse" id="color-73"><stop offset="0" stop-color="#ffffff" stop-opacity="0.09412"/><stop offset="1" stop-color="#ffffff" stop-opacity="0"/></radialGradient><radialGradient cx="356.40889" cy="148.29783" r="43.50619" gradientUnits="userSpaceOnUse" id="color-74"><stop offset="0" stop-color="#ffffff" stop-opacity="0.09412"/><stop offset="1" stop-color="#ffffff" stop-opacity="0"/></radialGradient><radialGradient cx="354.40518" cy="178.39152" r="66.53888" gradientUnits="userSpaceOnUse" id="color-75"><stop offset="0" stop-color="#ffffff" stop-opacity="0.09412"/><stop offset="1" stop-color="#ffffff" stop-opacity="0"/></radialGradient><radialGradient cx="293.34823" cy="140.23008" r="73.36338" gradientUnits="userSpaceOnUse" id="color-76"><stop offset="0" stop-color="#ffffff" stop-opacity="0.09412"/><stop offset="1" stop-color="#ffffff" stop-opacity="0"/></radialGradient><radialGradient cx="135.82142" cy="172.66408" r="108.33895" gradientUnits="userSpaceOnUse" id="color-77"><stop offset="0" stop-color="#ffffff" stop-opacity="0.09412"/><stop offset="1" stop-color="#ffffff" stop-opacity="0"/></radialGradient><radialGradient cx="77.46387" cy="170.2294" r="113.45732" gradientUnits="userSpaceOnUse" id="color-78"><stop offset="0" stop-color="#ffffff" stop-opacity="0.09412"/><stop offset="1" stop-color="#ffffff" stop-opacity="0"/></radialGradient><radialGradient cx="19.30295" cy="215.68752" r="62.27357" gradientUnits="userSpaceOnUse" id="color-79"><stop offset="0" stop-color="#ffffff" stop-opacity="0.09412"/><stop offset="1" stop-color="#ffffff" stop-opacity="0"/></radialGradient><radialGradient cx="128.18078" cy="162.11995" r="84.4532" gradientUnits="userSpaceOnUse" id="color-80"><stop offset="0" stop-color="#ffffff" stop-opacity="0.09412"/><stop offset="1" stop-color="#ffffff" stop-opacity="0"/></radialGradient><radialGradient cx="141.77588" cy="172.21416" r="63.12663" gradientUnits="userSpaceOnUse" id="color-81"><stop offset="0" stop-color="#ffffff" stop-opacity="0.09412"/><stop offset="1" stop-color="#ffffff" stop-opacity="0"/></radialGradient><radialGradient cx="129.88206" cy="161.9914" r="84.4532" gradientUnits="userSpaceOnUse" id="color-82"><stop offset="0" stop-color="#ffffff" stop-opacity="0.09412"/><stop offset="1" stop-color="#ffffff" stop-opacity="0"/></radialGradient><radialGradient cx="34.61443" cy="214.53065" r="69.09807" gradientUnits="userSpaceOnUse" id="color-83"><stop offset="0" stop-color="#ffffff" stop-opacity="0.09412"/><stop offset="1" stop-color="#ffffff" stop-opacity="0"/></radialGradient><radialGradient cx="92.77534" cy="169.07253" r="130.51858" gradientUnits="userSpaceOnUse" id="color-84"><stop offset="0" stop-color="#ffffff" stop-opacity="0.09412"/><stop offset="1" stop-color="#ffffff" stop-opacity="0"/></radialGradient><radialGradient cx="95.79226" cy="163.71161" r="62.27357" gradientUnits="userSpaceOnUse" id="color-85"><stop offset="0" stop-color="#ffffff" stop-opacity="0.09412"/><stop offset="1" stop-color="#ffffff" stop-opacity="0"/></radialGradient><linearGradient x1="119.97205" y1="-33.82942" x2="126.3136" y2="284.19736" gradientUnits="userSpaceOnUse" id="color-86"><stop offset="0" stop-color="#46f2ea"/><stop offset="1" stop-color="#94ccc3"/></linearGradient><linearGradient x1="121.92911" y1="148.84741" x2="123.60703" y2="285.51963" gradientUnits="userSpaceOnUse" id="color-87"><stop offset="0" stop-color="#ffffff" stop-opacity="0"/><stop offset="1" stop-color="#ffffff"/></linearGradient><linearGradient x1="43.39014" y1="-12.43404" x2="49.33407" y2="285.65283" gradientUnits="userSpaceOnUse" id="color-88"><stop offset="0" stop-color="#ffffff"/><stop offset="1" stop-color="#46f2ea"/></linearGradient><linearGradient x1="46.63909" y1="150.50012" x2="49.36402" y2="287.15454" gradientUnits="userSpaceOnUse" id="color-89"><stop offset="0" stop-color="#ffffff" stop-opacity="0"/><stop offset="1" stop-color="#ffffff"/></linearGradient><linearGradient x1="72.90159" y1="121.29631" x2="73.72591" y2="162.63562" gradientUnits="userSpaceOnUse" id="color-90"><stop offset="0" stop-color="#00e8c7"/><stop offset="1" stop-color="#bff9ff"/></linearGradient><linearGradient x1="72.29999" y1="120.82303" x2="73.00793" y2="156.32615" gradientUnits="userSpaceOnUse" id="color-91"><stop offset="0" stop-color="#ffffff"/><stop offset="1" stop-color="#ffffff" stop-opacity="0"/></linearGradient><linearGradient x1="344.21814" y1="157.47743" x2="351.14203" y2="159.57597" gradientUnits="userSpaceOnUse" id="color-92"><stop offset="0" stop-color="#ffffff" stop-opacity="0"/><stop offset="1" stop-color="#ffffff"/></linearGradient><linearGradient x1="344.19657" y1="122.18443" x2="353.02873" y2="123.33309" gradientUnits="userSpaceOnUse" id="color-93"><stop offset="0" stop-color="#ffffff" stop-opacity="0"/><stop offset="1" stop-color="#ffffff"/></linearGradient><radialGradient cx="128.20699" cy="42.05144" r="51.05105" gradientUnits="userSpaceOnUse" id="color-94"><stop offset="0" stop-color="#c3fffa"/><stop offset="1" stop-color="#c3fffa" stop-opacity="0"/></radialGradient></defs><g transform="translate(94.94042,83.88966)"><g data-paper-data="{&quot;isPaintingLayer&quot;:true}" fill-rule="nonzero" stroke-linejoin="miter" stroke-miterlimit="10" stroke-dasharray="" stroke-dashoffset="0" style="mix-blend-mode: normal"><path d="M-29.91594,314.7394v-322.60594h519.22207v322.60594z" fill="url(#color-1)" stroke="#000000" stroke-width="0.5" stroke-linecap="butt"/><g stroke-width="0"><path d="M184.01037,233.30391l-1.02546,-118.88347l9.89189,-0.5046l1.02546,118.88347z" fill="#000000" stroke="none" stroke-linecap="butt"/><path d="M187.8756,232.92247l-0.64201,-74.43027l3.10245,-0.15827l0.64201,74.43028z" fill="#ffffff" stroke="none" stroke-linecap="butt"/><g data-paper-data="{&quot;index&quot;:null}" stroke="none" stroke-linecap="butt"><path d="M188.64655,232.66407l-1.15275,-158.37564l12.00353,29.68352l-0.13284,128.39804z" fill="url(#color-2)"/><path d="M188.65075,233.45528c0,0 -0.00464,-0.87409 -0.01078,-2.03097c-0.03607,-6.79037 -0.37159,-69.97013 -0.37159,-69.97013l10.71795,-0.29406l0.38238,72.0011z" fill="url(#color-3)"/></g><g stroke="none" stroke-linecap="butt"><path d="M165.84287,233.95185l0.62077,-136.63153l21.26226,-23.20998l0.59854,158.69469z" fill="url(#color-4)"/><path d="M165.84969,234.74294l-0.62098,-71.99175l22.48156,-1.14682c0,0 0.52355,60.69664 0.59356,68.81263c0.01505,1.74445 0.02742,3.17912 0.02742,3.17912z" fill="url(#color-5)"/></g><g stroke="#000000" stroke-linecap="round"><path d="M199.45851,167.71317l-10.63187,-12.27401l-22.06439,7.79005l-1.2656,-0.70442l-0.28525,-1.77974l0.05456,-4.10402l23.39339,-10.16478l11.10139,14.557l0.19532,1.78432l0.03537,4.09943z" fill="url(#color-6)"/><path d="M165.01166,158.44831l-0.10318,-1.5327l23.38897,-10.6772l11.09918,14.30079l0.55503,1.76597l-0.25209,2.06348l-10.82057,-13.28969l-23.85186,9.16287z" fill="url(#color-7)"/></g></g><path d="M558.28952,84.9528v240.97397h-645.23295v-240.97396z" data-paper-data="{&quot;index&quot;:null}" fill="url(#color-8)" stroke="#000000" stroke-width="0" stroke-linecap="butt"/><g stroke-width="0"><path d="M361.99595,197.20202l-4.67518,-209.91523l45.0981,-0.89097l4.67518,209.91523z" fill="#000000" stroke="none" stroke-linecap="butt"/><path d="M379.61795,196.5285l-2.92702,-131.42322l14.1444,-0.27944l2.92703,131.42322z" fill="#ffffff" stroke="none" stroke-linecap="butt"/><g data-paper-data="{&quot;index&quot;:null}" stroke="none" stroke-linecap="butt"><path d="M383.13276,334.06773l-5.25548,-417.64293l54.7253,52.41287l-0.60562,364.71082z" fill="url(#color-9)"/><path d="M383.15192,333.67265c0,0 -0.02116,-137.74675 -0.04917,-139.78947c-0.16442,-11.9899 -1.69414,-123.54785 -1.69414,-123.54785l48.86422,-0.51924l1.74332,268.71376z" fill="url(#color-10)"/></g><g stroke="none" stroke-linecap="butt"><path d="M279.16848,339.92589l2.83013,-382.83316l96.93676,-40.98239l2.72881,421.79058z" fill="url(#color-11)"/><path d="M280.99173,334.15414l-2.83113,-261.52865l102.49569,-2.02497c0,0 2.38694,107.17344 2.70612,121.50401c0.0686,3.08023 0.12502,140.92071 0.12502,140.92071z" fill="url(#color-12)"/></g><g stroke="#000000" stroke-linecap="round"><path d="M432.42557,81.38696l-48.47177,-21.67249l-100.59378,13.75505l-5.76998,-1.24381l-1.30047,-3.14252l0.24877,-7.24656l106.65283,-17.94818l50.61238,25.70363l0.89048,3.15062l0.16122,7.23846z" fill="url(#color-13)"/><path d="M274.90846,62.32146l106.63269,-18.85298l50.60229,25.25123l2.53043,3.11823l-1.14934,3.64353l-49.33204,-23.46591l-108.74305,16.17907z" fill="url(#color-14)"/></g></g><path d="M550.29253,133.02187v240.97397c0,0 -81.84643,0 -240.40386,0c-178.42505,0 -404.82909,0 -404.82909,0v-240.97397z" data-paper-data="{&quot;index&quot;:null}" fill="url(#color-15)" stroke="#000000" stroke-width="0" stroke-linecap="butt"/><g stroke="none" stroke-width="0" stroke-linecap="butt"><path d="M363.87943,235.84928c0.8519,11.27508 -46.82462,24.06974 -106.48852,28.57773c-59.66388,4.50798 -108.72163,-0.97781 -109.57352,-12.25288c-0.8519,-11.27508 46.82464,-24.06974 106.48852,-28.57773c59.6639,-4.50798 108.72162,0.97781 109.57352,12.25288z" fill="url(#color-16)"/><path d="M426.31249,224.28805c0.07099,0.93958 -50.52366,5.52837 -113.00631,10.24933c-62.48267,4.72097 -113.1924,7.78636 -113.26339,6.84678c-0.07099,-0.93958 50.52366,-5.52837 113.00631,-10.24933c62.48267,-4.72097 113.19241,-7.78636 113.26341,-6.84678z" fill="url(#color-17)"/><path d="M369.75452,245.67126c0.21298,2.81876 -27.41596,7.2044 -61.71094,9.79562c-34.29498,2.59121 -62.26922,2.40673 -62.48221,-0.41203c-0.21298,-2.81876 27.41596,-7.20442 61.71094,-9.79562c34.29499,-2.59121 62.26924,-2.40671 62.48221,0.41205z" fill="url(#color-18)"/><path d="M387.95437,237.45217c0.49694,6.57711 -37.94625,14.84401 -85.86527,18.46459c-47.91903,3.62059 -87.16793,1.22382 -87.66488,-5.35329c-0.49694,-6.57711 37.94625,-14.84399 85.86527,-18.46457c47.91903,-3.62059 87.16793,-1.22384 87.66488,5.35327z" fill="url(#color-19)"/><path d="M346.03116,226.07638c0.39046,5.16773 -36.99652,12.20574 -83.50618,15.71985c-46.50966,3.51411 -84.5297,2.17357 -84.92015,-2.99418c-0.39045,-5.16773 36.99652,-12.20576 83.50618,-15.71985c46.50966,-3.51411 84.52968,-2.17355 84.92015,2.99418z" fill="url(#color-20)"/><path d="M301.70347,250.81289c0.28397,3.75835 -30.33417,9.13589 -68.38752,12.01105c-38.05333,2.87516 -69.13187,2.1592 -69.41585,-1.59915c-0.28397,-3.75835 30.33417,-9.13589 68.3875,-12.01105c38.05335,-2.87516 69.13189,-2.1592 69.41585,1.59915z" fill="url(#color-21)"/><path d="M312.84116,239.70552c0.49694,6.57711 -27.28263,14.03829 -62.04742,16.66499c-34.76479,2.6267 -63.35005,-0.57577 -63.84699,-7.15286c-0.49694,-6.57711 27.28261,-14.03829 62.04741,-16.66499c34.76479,-2.6267 63.35007,0.57577 63.84701,7.15288z" fill="url(#color-22)"/><path d="M256.57047,242.24611c0.63893,8.45629 -28.16808,17.52716 -64.34225,20.26036c-36.17415,2.7332 -66.01708,-1.9063 -66.65601,-10.36261c-0.63893,-8.45629 28.16809,-17.52716 64.34225,-20.26036c36.17415,-2.7332 66.01708,1.90632 66.65601,10.36261z" fill="url(#color-23)"/><path d="M463.77077,199.21509c0.8519,11.27508 -71.19862,25.91135 -160.92935,32.69108c-89.73074,6.77973 -163.16247,3.13553 -164.01437,-8.13955c-0.8519,-11.27508 71.19862,-25.91137 160.92935,-32.69108c89.73074,-6.77971 163.16247,-3.13553 164.01437,8.13955z" fill="url(#color-24)"/><path d="M360.21981,232.70377c0.56793,7.51671 -57.24076,18.01281 -129.11928,23.44368c-71.87853,5.43089 -130.60801,3.73996 -131.17595,-3.77675c-0.56793,-7.51671 57.24076,-18.01279 129.11928,-23.44368c71.87853,-5.43089 130.60803,-3.73998 131.17596,3.77673z" fill="url(#color-25)"/><path d="M379.28542,213.29792c0.31945,4.22815 -34.45916,10.30305 -77.68026,13.56868c-43.2211,3.26563 -78.51767,2.48535 -78.83714,-1.74281c-0.31947,-4.22815 34.45916,-10.30305 77.68026,-13.56868c43.2211,-3.26563 78.51767,-2.48535 78.83713,1.74281z" fill="url(#color-26)"/><path d="M297.43136,216.91602c0.70992,9.3959 -38.3223,20.00536 -87.18093,23.69694c-48.85863,3.69158 -89.04185,-0.93267 -89.75177,-10.32856c-0.70992,-9.3959 38.3223,-20.00538 87.18093,-23.69695c48.85863,-3.69158 89.04185,0.93267 89.75177,10.32857z" fill="url(#color-27)"/><path d="M209.27124,238.97586c62.48265,-4.72097 113.19241,-7.78635 113.26341,-6.84677c0.07099,0.93958 -50.52367,5.52836 -113.00631,10.24933c-62.48265,4.72097 -113.1924,7.78636 -113.26339,6.84678c-0.07099,-0.93958 50.52366,-5.52837 113.00631,-10.24933z" data-paper-data="{&quot;index&quot;:null}" fill="url(#color-28)"/><path d="M217.10467,252.07199c34.29499,-2.59121 62.26922,-2.40673 62.48219,0.41205c0.21298,2.81877 -27.41595,7.2044 -61.71094,9.79562c-34.29498,2.59121 -62.26922,2.40675 -62.48219,-0.41203c-0.21298,-2.81877 27.41596,-7.20442 61.71096,-9.79562z" data-paper-data="{&quot;index&quot;:null}" fill="url(#color-29)"/><path d="M222.0308,238.01186c47.91903,-3.62059 87.16793,-1.22382 87.66488,5.35329c0.49694,6.57711 -37.94625,14.84399 -85.86529,18.46457c-47.91903,3.62059 -87.16793,1.22382 -87.66488,-5.35329c-0.49694,-6.57711 37.94625,-14.84399 85.86529,-18.46457z" data-paper-data="{&quot;index&quot;:null}" fill="url(#color-30)"/><path d="M259.40972,223.21073c46.50966,-3.51411 84.52968,-2.17357 84.92015,2.99418c0.39046,5.16773 -36.99652,12.20576 -83.50618,15.71985c-46.50966,3.51411 -84.5297,2.17355 -84.92015,-2.99418c-0.39045,-5.16773 36.99652,-12.20574 83.50619,-15.71985z" data-paper-data="{&quot;index&quot;:null}" fill="url(#color-31)"/><path d="M303.67314,197.62355c36.17419,-2.7332 66.01706,1.9063 66.65601,10.36261c0.63893,8.45629 -28.16806,17.52716 -64.34225,20.26036c-36.17417,2.7332 -66.01708,-1.9063 -66.65601,-10.36261c-0.63893,-8.45629 28.16808,-17.52718 64.34225,-20.26036z" data-paper-data="{&quot;index&quot;:null}" fill="url(#color-32)"/><path d="M245.68227,166.07436c48.85863,-3.69158 89.04187,0.93269 89.75179,10.32857c0.70992,9.39589 -38.32232,20.00538 -87.18093,23.69695c-48.85863,3.69158 -89.04185,-0.93267 -89.75177,-10.32857c-0.70992,-9.39589 38.3223,-20.00538 87.18092,-23.69695z" data-paper-data="{&quot;index&quot;:null}" fill="url(#color-33)"/><path d="M321.92214,201.37767c0.8519,11.27506 -46.82462,24.06976 -106.48852,28.57775c-59.66388,4.50798 -108.72163,-0.97783 -109.57354,-12.25288c-0.8519,-11.27506 46.82464,-24.06976 106.48852,-28.57775c59.6639,-4.50798 108.72163,0.97783 109.57354,12.25288z" fill="url(#color-34)"/><path d="M243.24759,224.43193c0.48807,6.45968 -36.0581,14.48746 -81.62816,17.93056c-45.57006,3.44311 -82.90753,0.99769 -83.39562,-5.46199c-0.48807,-6.45968 36.0581,-14.48746 81.62816,-17.93056c45.57006,-3.44311 82.90755,-0.99769 83.39562,5.46199z" fill="url(#color-35)"/><path d="M384.35518,189.81654c0.07099,0.93958 -50.52366,5.52837 -113.00631,10.24933c-62.48265,4.72097 -113.19241,7.78635 -113.26339,6.84678c-0.07099,-0.93958 50.52367,-5.52837 113.00631,-10.24933c62.48264,-4.72097 113.19241,-7.78636 113.26339,-6.84678z" fill="url(#color-36)"/><path d="M327.79722,211.19971c0.21298,2.81877 -27.41596,7.2044 -61.71096,9.79562c-34.29498,2.59121 -62.26922,2.40673 -62.48219,-0.41205c-0.21298,-2.81877 27.41596,-7.20442 61.71096,-9.79562c34.29499,-2.59121 62.26922,-2.40673 62.48219,0.41205z" fill="url(#color-37)"/><path d="M345.99709,202.98066c0.49694,6.57711 -37.94625,14.84401 -85.86529,18.46459c-47.91903,3.62059 -87.16793,1.22382 -87.66488,-5.35329c-0.49694,-6.57711 37.94625,-14.84399 85.86529,-18.46459c47.91903,-3.62059 87.16793,-1.22382 87.66488,5.35329z" fill="url(#color-38)"/><path d="M304.07386,191.60482c0.39046,5.16775 -36.99652,12.20576 -83.50618,15.71985c-46.50966,3.51411 -84.52968,2.17357 -84.92015,-2.99418c-0.39046,-5.16773 36.99652,-12.20576 83.50618,-15.71985c46.50966,-3.51411 84.52968,-2.17355 84.92015,2.99418z" fill="url(#color-39)"/><path d="M259.74618,216.34141c0.28397,3.75835 -30.33417,9.13589 -68.3875,12.01105c-38.05333,2.87516 -69.13187,2.1592 -69.41585,-1.59915c-0.28397,-3.75835 30.33417,-9.13589 68.38752,-12.01105c38.05335,-2.87516 69.13187,-2.1592 69.41584,1.59915z" fill="url(#color-40)"/><path d="M270.88387,205.23396c0.49694,6.57711 -27.28263,14.03829 -62.04742,16.66499c-34.76479,2.6267 -63.35007,-0.57577 -63.84701,-7.15286c-0.49694,-6.57711 27.28261,-14.03831 62.04742,-16.66499c34.76479,-2.6267 63.35007,0.57577 63.84701,7.15288z" fill="url(#color-41)"/><path d="M214.61322,207.77457c0.63893,8.45629 -28.16808,17.52716 -64.34225,20.26036c-36.17417,2.7332 -66.01706,-1.9063 -66.65601,-10.36261c-0.63893,-8.45629 28.16808,-17.52718 64.34225,-20.26036c36.17417,-2.73318 66.01708,1.90632 66.65601,10.36261z" fill="url(#color-42)"/><path d="M421.81349,164.74346c0.8519,11.27506 -71.19862,25.91137 -160.92935,32.6911c-89.73074,6.77971 -163.16245,3.1355 -164.01435,-8.13955c-0.8519,-11.27506 71.19862,-25.91137 160.92935,-32.69108c89.73075,-6.77971 163.16247,-3.13552 164.01437,8.13955z" fill="url(#color-43)"/><path d="M318.26251,198.23222c0.56793,7.51671 -57.24072,18.01281 -129.11928,23.44368c-71.87853,5.43089 -130.60801,3.73996 -131.17595,-3.77675c-0.56793,-7.51671 57.24072,-18.01281 129.11928,-23.44368c71.87856,-5.43089 130.60801,-3.73998 131.17595,3.77673z" fill="url(#color-44)"/><path d="M337.32813,178.82633c0.31945,4.22815 -34.45917,10.30305 -77.68026,13.56868c-43.2211,3.26563 -78.51767,2.48535 -78.83713,-1.74281c-0.31947,-4.22815 34.45917,-10.30305 77.68027,-13.56868c43.2211,-3.26563 78.51767,-2.48535 78.83713,1.74281z" fill="url(#color-45)"/><path d="M255.47406,182.44442c0.70992,9.39589 -38.3223,20.00538 -87.18093,23.69695c-48.85863,3.69158 -89.04185,-0.93267 -89.75177,-10.32857c-0.70992,-9.39589 38.32232,-20.00538 87.18093,-23.69695c48.85861,-3.69158 89.04185,0.93267 89.75177,10.32857z" fill="url(#color-46)"/><path d="M224.25753,188.22502c59.6639,-4.50798 108.72163,0.97783 109.57354,12.25288c0.8519,11.27506 -46.82464,24.06976 -106.48852,28.57775c-59.66388,4.50798 -108.72163,-0.97783 -109.57354,-12.25288c-0.8519,-11.27506 46.82464,-24.06976 106.48852,-28.57775z" data-paper-data="{&quot;index&quot;:null}" fill="url(#color-47)"/><path d="M280.6426,209.84345c45.57006,-3.4431 82.90755,-0.99771 83.3956,5.46197c0.48807,6.45968 -36.0581,14.48746 -81.62816,17.93056c-45.57006,3.44311 -82.90755,0.99771 -83.39562,-5.46197c-0.48807,-6.45968 36.0581,-14.48746 81.62816,-17.93056z" data-paper-data="{&quot;index&quot;:null}" fill="url(#color-48)"/><path d="M167.31395,204.50437c62.48265,-4.72097 113.19241,-7.78635 113.26339,-6.84678c0.07099,0.93958 -50.52366,5.52837 -113.00631,10.24933c-62.48265,4.72097 -113.1924,7.78636 -113.26339,6.84678c-0.07099,-0.93958 50.52366,-5.52837 113.00631,-10.24933z" data-paper-data="{&quot;index&quot;:null}" fill="url(#color-49)"/><path d="M175.14738,217.60041c34.29499,-2.59121 62.26924,-2.40673 62.48221,0.41205c0.21298,2.81877 -27.41596,7.2044 -61.71096,9.79562c-34.29498,2.59121 -62.26922,2.40675 -62.48219,-0.41203c-0.21298,-2.81877 27.41596,-7.20442 61.71094,-9.79562z" data-paper-data="{&quot;index&quot;:null}" fill="url(#color-50)"/><path d="M180.07351,203.54029c47.91903,-3.62059 87.16793,-1.22382 87.66488,5.35329c0.49694,6.57711 -37.94625,14.84401 -85.86529,18.46459c-47.91903,3.62059 -87.16791,1.22382 -87.66486,-5.35329c-0.49694,-6.57711 37.94625,-14.84399 85.86527,-18.46459z" data-paper-data="{&quot;index&quot;:null}" fill="url(#color-51)"/><path d="M217.45243,188.73917c46.50966,-3.51411 84.5297,-2.17355 84.92015,2.99418c0.39046,5.16773 -36.99654,12.20576 -83.50619,15.71985c-46.50966,3.51411 -84.52968,2.17355 -84.92013,-2.99418c-0.39046,-5.16775 36.99652,-12.20576 83.50618,-15.71985z" data-paper-data="{&quot;index&quot;:null}" fill="url(#color-52)"/><path d="M249.875,210.24329c38.05335,-2.87516 69.13189,-2.15922 69.41585,1.59915c0.28397,3.75835 -30.33417,9.13589 -68.38752,12.01105c-38.05333,2.87516 -69.13189,2.1592 -69.41585,-1.59915c-0.28397,-3.75835 30.33417,-9.13589 68.38752,-12.01105z" data-paper-data="{&quot;index&quot;:null}" fill="url(#color-53)"/><path d="M203.72498,131.60273c48.85863,-3.69158 89.04185,0.93267 89.75177,10.32857c0.70992,9.39589 -38.3223,20.00538 -87.18093,23.69695c-48.85863,3.69158 -89.04185,-0.93267 -89.75177,-10.32856c-0.70992,-9.39589 38.3223,-20.00538 87.18093,-23.69695z" data-paper-data="{&quot;index&quot;:null}" fill="url(#color-54)"/><path d="M412.73248,203.07134c0.07099,0.93958 -50.52364,5.52837 -113.00631,10.24933c-62.48265,4.72097 -113.1924,7.78635 -113.26339,6.84677c-0.07099,-0.93958 50.52366,-5.52837 113.00631,-10.24933c62.48267,-4.72097 113.19241,-7.78635 113.26341,-6.84677z" fill="url(#color-55)"/><path d="M356.17453,224.4544c0.21298,2.81877 -27.41596,7.20442 -61.71094,9.79562c-34.29498,2.59121 -62.26922,2.40673 -62.48221,-0.41205c-0.21298,-2.81877 27.41596,-7.2044 61.71094,-9.79562c34.29499,-2.59121 62.26924,-2.40675 62.48221,0.41203z" fill="url(#color-56)"/><path d="M374.3744,216.23546c0.49694,6.57711 -37.94625,14.84399 -85.86527,18.46457c-47.91903,3.62059 -87.16793,1.22384 -87.66488,-5.35327c-0.49694,-6.57711 37.94625,-14.84401 85.86529,-18.46459c47.91903,-3.62059 87.16793,-1.22382 87.66488,5.35329z" fill="url(#color-57)"/><path d="M102.45753,217.9596c43.22108,-3.26563 78.51767,-2.48535 78.83713,1.74281c0.31947,4.22815 -34.45916,10.30305 -77.68026,13.56868c-43.22108,3.26563 -78.51767,2.48535 -78.83713,-1.74279c-0.31947,-4.22815 34.45917,-10.30305 77.68026,-13.56868z" data-paper-data="{&quot;index&quot;:null}" fill="url(#color-58)"/><path d="M332.06171,154.4149c48.85861,-3.69158 89.04185,0.93267 89.75177,10.32857c0.70992,9.39589 -38.32234,20.00538 -87.18093,23.69695c-48.85861,3.69158 -89.04185,-0.93267 -89.75177,-10.32856c-0.70992,-9.39589 38.32232,-20.00538 87.18093,-23.69695z" data-paper-data="{&quot;index&quot;:null}" fill="url(#color-59)"/><path d="M175.10207,250.96806c0.53243,7.04693 -27.21836,14.88893 -61.98315,17.51563c-34.76479,2.6267 -63.37883,-0.95659 -63.91128,-8.00352c-0.53245,-7.04693 27.21834,-14.88893 61.98315,-17.51563c34.76479,-2.6267 63.37885,0.95659 63.91128,8.00352z" fill="url(#color-60)"/><path d="M108.94509,258.53309c0.35496,4.69794 -19.54199,10.03145 -44.4411,11.91275c-24.89911,1.88129 -45.37157,-0.40208 -45.72653,-5.10002c-0.35496,-4.69794 19.54199,-10.03145 44.44111,-11.91275c24.89911,-1.88129 45.37157,0.40208 45.72653,5.10002z" fill="url(#color-61)"/><path d="M103.80723,235.82301c0.17749,2.34898 -19.10168,5.72071 -43.06118,7.53101c-23.95951,1.8103 -43.52641,1.3736 -43.70388,-0.97537c-0.17749,-2.34898 19.10168,-5.72071 43.06118,-7.53101c23.95951,-1.8103 43.52641,-1.3736 43.7039,0.97537z" fill="url(#color-62)"/><path d="M128.20732,287.02005c0.39046,5.16773 -19.47771,10.88209 -44.37683,12.76339c-24.89911,1.88129 -45.40033,-0.78291 -45.7908,-5.95064c-0.39045,-5.16773 19.47772,-10.88211 44.37685,-12.76339c24.89912,-1.88129 45.40033,0.78291 45.7908,5.95066z" fill="url(#color-63)"/><path d="M93.56935,258.83934c0.03549,0.46978 -20.88212,2.43328 -46.72081,4.38554c-25.83869,1.95227 -46.81386,3.15406 -46.84936,2.68428c-0.0355,-0.46978 20.88212,-2.43328 46.72081,-4.38554c25.8387,-1.95227 46.81387,-3.15406 46.84936,-2.68428z" fill="url(#color-64)"/><path d="M120.49861,230.28436c0.49694,6.57711 -20.0466,13.49156 -45.8853,15.44385c-25.83869,1.95227 -47.18794,-1.79691 -47.68489,-8.37402c-0.49694,-6.57711 20.04661,-13.49158 45.8853,-15.44385c25.8387,-1.95227 47.18794,1.79693 47.68489,8.37404z" fill="url(#color-65)"/><path d="M225.45977,170.16882c0.46146,6.10731 -28.87027,13.30276 -65.51423,16.07144c-36.64397,2.76868 -66.72384,0.06217 -67.18528,-6.04516c-0.46146,-6.10731 28.87028,-13.30276 65.51423,-16.07144c36.64397,-2.76868 66.72383,-0.06217 67.18528,6.04516z" fill="url(#color-66)"/><path d="M318.13018,151.19005c0.03549,0.4698 -39.54346,3.84323 -88.40207,7.53481c-48.85863,3.69158 -88.49513,6.30335 -88.53061,5.83357c-0.0355,-0.4698 39.54346,-3.84325 88.40209,-7.53483c48.85861,-3.69158 88.49513,-6.30335 88.53061,-5.83355z" fill="url(#color-67)"/><path d="M468.74223,151.78725c0.74541,9.86569 -28.35611,20.10786 -65.00008,22.87655c-36.64397,2.76868 -66.95403,-2.98458 -67.69946,-12.85026c-0.74541,-9.86569 28.35611,-20.10785 65.00008,-22.87653c36.64397,-2.76868 66.95405,2.98456 67.69946,12.85026z" fill="url(#color-68)"/><path d="M476.19389,205.12038c0.42595,5.63753 -27.41117,12.33701 -62.17596,14.96371c-34.76479,2.6267 -63.29252,0.18595 -63.71847,-5.45158c-0.42595,-5.63753 27.41117,-12.33703 62.17596,-14.96372c34.76479,-2.6267 63.29252,-0.18593 63.71847,5.4516z" fill="url(#color-69)"/><path d="M201.32436,213.0561c1.59731,21.14075 -18.0542,39.86135 -43.8929,41.81361c-25.8387,1.95227 -48.07997,-13.60306 -49.67728,-34.74381c-1.59733,-21.14075 18.0542,-39.86135 43.8929,-41.81361c25.83869,-1.95227 48.07997,13.60306 49.6773,34.74381z" fill="url(#color-70)"/><path d="M470.0617,191.8958c2.12976,28.18766 -25.84954,53.28273 -62.49351,56.05143c-36.64397,2.76868 -68.07627,-17.83749 -70.20603,-46.02515c-2.12976,-28.18766 25.84954,-53.28275 62.49351,-56.05142c36.64397,-2.76868 68.07627,17.83749 70.20603,46.02515z" fill="url(#color-71)"/><path d="M172.30817,236.63574c1.84579,24.42931 -21.0319,46.07478 -51.09874,48.34652c-30.06684,2.27174 -55.93714,-15.69052 -57.78293,-40.11982c-1.84579,-24.42931 21.0319,-46.0748 51.09874,-48.34652c30.06684,-2.27174 55.93714,15.69052 57.78293,40.11984z" fill="url(#color-72)"/><path d="M543.02377,183.81659c1.8103,23.95951 -20.71533,45.19538 -50.31237,47.43163c-29.59704,2.23624 -55.05772,-15.37396 -56.86802,-39.33347c-1.8103,-23.95951 20.71531,-45.19536 50.31237,-47.43161c29.59706,-2.23625 55.05772,15.37395 56.86802,39.33345z" fill="url(#color-73)"/><path d="M399.79142,145.02002c1.6683,22.08033 -16.4023,41.44751 -40.36179,43.25781c-23.95951,1.81028 -44.73496,-14.62183 -46.40328,-36.70217c-1.6683,-22.08033 16.4023,-41.44751 40.3618,-43.2578c23.95951,-1.81028 44.73496,14.62183 46.40328,36.70217z" fill="url(#color-74)"/><path d="M420.75492,173.3784c2.27174,30.06684 -25.59246,56.68528 -62.23643,59.45396c-36.64397,2.76868 -68.19137,-19.36085 -70.46311,-49.42768c-2.27174,-30.06684 25.59244,-56.68529 62.23641,-59.45398c36.64397,-2.76868 68.19137,19.36085 70.46311,49.42769z" fill="url(#color-75)"/><path d="M366.50309,134.70269c2.41372,31.94602 -28.38213,60.31804 -68.78445,63.37069c-40.40231,3.05265 -75.11156,-20.37006 -77.52529,-52.31608c-2.41372,-31.94602 28.38213,-60.31804 68.78443,-63.37069c40.40231,-3.05265 75.11158,20.37006 77.5253,52.31608z" fill="url(#color-76)"/><path d="M134.2789,152.24874c59.66388,-4.50798 108.72163,0.97781 109.57354,12.25288c0.8519,11.27508 -46.82464,24.06974 -106.48854,28.57773c-59.66388,4.50798 -108.72162,-0.97781 -109.57352,-12.25288c-0.8519,-11.27508 46.82464,-24.06974 106.48852,-28.57773z" data-paper-data="{&quot;index&quot;:null}" fill="url(#color-77)"/><path d="M77.33531,168.52811c62.48265,-4.72097 113.19241,-7.78638 113.26341,-6.84678c0.07099,0.9396 -50.52366,5.52837 -113.00631,10.24934c-62.48265,4.72097 -113.19241,7.78636 -113.26339,6.84677c-0.07099,-0.9396 50.52366,-5.52837 113.00631,-10.24933z" data-paper-data="{&quot;index&quot;:null}" fill="url(#color-78)"/><path d="M18.9173,210.5837c34.29499,-2.59121 62.26924,-2.40675 62.48221,0.41203c0.21298,2.81877 -27.41596,7.20442 -61.71094,9.79562c-34.29498,2.59121 -62.26922,2.40673 -62.48219,-0.41205c-0.21298,-2.81877 27.41596,-7.2044 61.71096,-9.79562z" data-paper-data="{&quot;index&quot;:null}" fill="url(#color-79)"/><path d="M127.47379,152.76293c46.50966,-3.51411 84.5297,-2.17355 84.92015,2.99418c0.39045,5.16775 -36.99652,12.20576 -83.50618,15.71985c-46.50966,3.51411 -84.5297,2.17355 -84.92015,-2.99418c-0.39045,-5.16775 36.99654,-12.20576 83.50619,-15.71985z" data-paper-data="{&quot;index&quot;:null}" fill="url(#color-80)"/><path d="M140.87607,160.30525c34.76479,-2.6267 63.35007,0.57575 63.84701,7.15286c0.49694,6.57711 -27.28263,14.03831 -62.04742,16.665c-34.76479,2.6267 -63.35005,-0.57577 -63.84701,-7.15288c-0.49694,-6.57711 27.28263,-14.03829 62.04742,-16.66499z" data-paper-data="{&quot;index&quot;:null}" fill="url(#color-81)"/><path d="M214.09522,155.62857c0.39045,5.16775 -36.99652,12.20576 -83.50618,15.71985c-46.50966,3.51411 -84.5297,2.17357 -84.92015,-2.99418c-0.39046,-5.16775 36.99652,-12.20576 83.50618,-15.71985c46.50966,-3.51411 84.5297,-2.17357 84.92015,2.99418z" data-paper-data="{&quot;index&quot;:null}" fill="url(#color-82)"/><path d="M103.51609,209.3247c0.28397,3.75835 -30.33417,9.13589 -68.3875,12.01105c-38.05333,2.87516 -69.13187,2.1592 -69.41585,-1.59915c-0.28397,-3.75835 30.33417,-9.13587 68.38752,-12.01105c38.05335,-2.87516 69.13189,-2.15922 69.41585,1.59915z" data-paper-data="{&quot;index&quot;:null}" fill="url(#color-83)"/><path d="M222.92297,159.23904c0.56793,7.51671 -57.24072,18.01281 -129.11928,23.44368c-71.87853,5.43089 -130.60801,3.73996 -131.17595,-3.77675c-0.56793,-7.51671 57.24076,-18.01279 129.11928,-23.44368c71.87856,-5.43089 130.60803,-3.73998 131.17596,3.77673z" data-paper-data="{&quot;index&quot;:null}" fill="url(#color-84)"/><path d="M95.40664,158.60776c34.29499,-2.59121 62.26922,-2.40673 62.48221,0.41205c0.21298,2.81877 -27.41596,7.2044 -61.71094,9.79562c-34.29498,2.59121 -62.26922,2.40673 -62.48219,-0.41205c-0.21298,-2.81877 27.41596,-7.20442 61.71096,-9.79562z" data-paper-data="{&quot;index&quot;:null}" fill="url(#color-85)"/></g><g stroke-width="0"><path d="M79.72908,285.51139l-4.4998,-225.66411l43.40636,-0.95782l4.4998,225.66411z" fill="#000000" stroke="none" stroke-linecap="butt"/><path d="M96.69004,284.78733l-2.81722,-141.28324l13.6138,-0.30041l2.81723,141.28324z" fill="#ffffff" stroke="none" stroke-linecap="butt"/><g data-paper-data="{&quot;index&quot;:null}" stroke="none" stroke-linecap="butt"><path d="M100.073,284.29683l-5.7802,-317.55961l53.39429,73.27679l-0.5829,243.72462z" fill="url(#color-86)"/><path d="M100.09144,285.79872c0,0 -0.02036,-1.65919 -0.04732,-3.85517c-0.15825,-12.88944 -1.63059,-132.81702 -1.63059,-132.81702l47.0312,-0.55819l1.67792,136.67219z" fill="url(#color-87)"/></g><g stroke="none" stroke-linecap="butt"><path d="M0.00867,286.74131l13.72397,-248.3534l82.54104,-71.45122l2.38582,317.62773z" fill="url(#color-88)"/><path d="M0.03861,288.24293l-2.72493,-136.65443l98.65082,-2.17689c0,0 2.2974,115.21412 2.6046,130.61984c0.06603,3.31132 0.12033,6.03459 0.12033,6.03459z" fill="url(#color-89)"/></g><g stroke="#000000" stroke-linecap="round"><path d="M147.51671,161.00731l-46.65347,-23.29847l-96.82026,14.78703l-5.55353,-1.33713l-1.25169,-3.37829l0.23944,-7.79023l102.65202,-19.29474l48.71378,27.63204l0.85708,3.387l0.15517,7.78152z" fill="url(#color-90)"/><path d="M-3.63874,143.42079l-0.45279,-2.90937l102.63263,-20.26743l48.70407,27.1457l2.43551,3.35217l-1.10622,3.91689l-47.48147,-25.22644l-104.66383,17.39291z" fill="url(#color-91)"/></g></g><path d="M353.65739,142.93144c0.0437,0.02102 0.06984,0.03951 0.06984,0.03951l0.04415,0.03126c2.02455,1.53262 1.25034,3.77161 0.60919,5.88702c-1.05658,3.48608 -2.36751,6.66214 -3.41294,10.11142c-1.55935,5.14492 -2.92506,10.69479 -6.64844,14.53839l0.08854,0.06268l-0.57115,0.80677c-0.11939,0.1773 -0.34452,0.26424 -0.55978,0.199c-0.26427,-0.0801 -0.41357,-0.35926 -0.33348,-0.62353l0.19338,-0.63801l0.01189,0.0036l-0.00149,-0.03428c0.39598,-0.87813 0.83746,-1.60202 1.12822,-2.53071c1.16427,-1.23004 1.42671,-3.60418 1.91654,-5.22031c1.35748,-4.47886 2.6788,-8.4577 2.57436,-13.06834c0.49637,-1.59641 0.25308,-3.12141 0.39312,-4.7208c0.02946,-0.33639 0.48241,-0.99158 0.22254,-1.42469c-0.34817,-0.58029 -0.91514,-0.2841 -1.12502,-1.13235c-0.70778,-2.86044 3.87206,-2.75834 5.32653,-2.3175c0,0 0.03064,0.00928 0.07404,0.0309z" fill="url(#color-92)" stroke="none" stroke-width="0.5" stroke-linecap="butt"/><path d="M346.41607,126.33415c-0.20704,-1.53376 -0.9988,-3.13226 -1.47277,-4.72953c-0.20752,-0.69939 -0.35413,-1.39853 -0.36406,-2.0919c-0.0496,-3.46832 4.74423,-2.04142 6.05879,-0.36471c1.75647,2.24038 3.92878,7.59136 -0.20049,8.88864c-1.19485,0.37538 -2.93813,-1.19666 -3.95582,-1.67855c0,0 -0.02484,-0.01175 -0.06564,-0.02395z" fill="url(#color-93)" stroke="none" stroke-width="0.5" stroke-linecap="butt"/><path d="M179.25804,42.05144c0,28.19472 -22.85633,51.05105 -51.05105,51.05105c-28.19472,0 -51.05105,-22.85633 -51.05105,-51.05105c0,-28.19472 22.85633,-51.05105 51.05105,-51.05105c28.19472,0 51.05105,22.85633 51.05105,51.05105z" fill="url(#color-94)" stroke="none" stroke-width="0" stroke-linecap="butt"/></g></g></svg>