<svg version="1.1" xmlns="http://www.w3.org/2000/svg" xmlns:xlink="http://www.w3.org/1999/xlink" width="79.49276" height="80.13905" viewBox="0,0,79.49276,80.13905"><defs><radialGradient cx="227.79906" cy="192.20099" r="20.59788" gradientUnits="userSpaceOnUse" id="color-1"><stop offset="0" stop-color="#000000" stop-opacity="0.29328"/><stop offset="1" stop-color="#000000" stop-opacity="0"/></radialGradient><radialGradient cx="255.32396" cy="191.00664" r="20.59788" gradientUnits="userSpaceOnUse" id="color-2"><stop offset="0" stop-color="#000000" stop-opacity="0.29328"/><stop offset="1" stop-color="#000000" stop-opacity="0"/></radialGradient><radialGradient cx="253.00337" cy="163.53325" r="20.59788" gradientUnits="userSpaceOnUse" id="color-3"><stop offset="0" stop-color="#000000" stop-opacity="0.29328"/><stop offset="1" stop-color="#000000" stop-opacity="0"/></radialGradient><radialGradient cx="240.00004" cy="180" r="28.74531" gradientUnits="userSpaceOnUse" id="color-4"><stop offset="0" stop-color="#ffabab"/><stop offset="1" stop-color="#ff1f1f"/></radialGradient></defs><g transform="translate(-200.4089,-139.93051)"><g data-paper-data="{&quot;isPaintingLayer&quot;:true}" fill-rule="nonzero" stroke-linecap="butt" stroke-linejoin="miter" stroke-miterlimit="10" stroke-dasharray="" stroke-dashoffset="0" style="mix-blend-mode: normal"><path d="M227.79906,212.79888c-11.3759,0 -20.59788,-9.22199 -20.59788,-20.59788c0,-11.3759 9.22199,-20.59788 20.59788,-20.59788c11.3759,0 20.59788,9.22199 20.59788,20.59788c0,11.3759 -9.22199,20.59788 -20.59788,20.59788z" fill="url(#color-1)" stroke="#000000" stroke-width="0"/><path d="M255.32396,211.60453c-11.3759,0 -20.59788,-9.22199 -20.59788,-20.59789c0,-11.3759 9.22199,-20.59788 20.59788,-20.59788c11.3759,0 20.59788,9.22198 20.59788,20.59788c0,11.3759 -9.22199,20.59789 -20.59788,20.59789z" fill="url(#color-2)" stroke="#000000" stroke-width="0"/><path d="M253.00337,184.13114c-11.3759,0 -20.59788,-9.22199 -20.59788,-20.59789c0,-11.3759 9.22199,-20.59788 20.59788,-20.59788c11.3759,0 20.59788,9.22198 20.59788,20.59788c0,11.3759 -9.22199,20.59789 -20.59788,20.59789z" fill="url(#color-3)" stroke="#000000" stroke-width="0"/><path d="M279.90166,220.06956h-79.49276v-80.13905h79.49276z" fill="none" stroke="none" stroke-width="NaN"/><path d="M268.74532,154.49152l-0.11959,30.12748c0,0 -0.46598,20.32177 -25.02284,21.61932c-35.80364,-0.23859 -32.25076,-30.20821 -32.25076,-30.20821l15.74412,0.10845c0,0 0.50181,14.37131 14.02683,14.5122c11.64813,0.12133 10.98483,-8.36037 11.15607,-11.45419c0.17123,-3.09382 -0.16064,-9.36738 -0.16064,-9.36738l-15.99113,0.25605l-0.09145,-15.46019z" fill="url(#color-4)" stroke="#ecc929" stroke-width="0"/></g></g></svg>