<svg version="1.1" xmlns="http://www.w3.org/2000/svg" xmlns:xlink="http://www.w3.org/1999/xlink" width="224.13135" height="224.13135" viewBox="0,0,224.13135,224.13135"><defs><radialGradient cx="227.21719" cy="183.48436" r="49.81448" gradientUnits="userSpaceOnUse" id="color-1"><stop offset="0" stop-color="#ff0000"/><stop offset="1" stop-color="#ff0000" stop-opacity="0"/></radialGradient><linearGradient x1="231.17602" y1="200.1565" x2="161.50621" y2="158.17708" gradientUnits="userSpaceOnUse" id="color-2"><stop offset="0" stop-color="#000000"/><stop offset="1" stop-color="#ff2e54"/></linearGradient><linearGradient x1="195.24623" y1="187.50945" x2="206.69114" y2="198.78786" gradientUnits="userSpaceOnUse" id="color-3"><stop offset="0" stop-color="#ff0000"/><stop offset="1" stop-color="#930000"/></linearGradient><linearGradient x1="206.29689" y1="193.07988" x2="215.58435" y2="202.23222" gradientUnits="userSpaceOnUse" id="color-4"><stop offset="0" stop-color="#8e0000"/><stop offset="1" stop-color="#ff0000"/></linearGradient><linearGradient x1="208.55343" y1="186.57291" x2="213.81366" y2="191.75661" gradientUnits="userSpaceOnUse" id="color-5"><stop offset="0" stop-color="#d60000"/><stop offset="1" stop-color="#600000"/></linearGradient><linearGradient x1="193.61615" y1="175.91194" x2="200.29015" y2="182.48885" gradientUnits="userSpaceOnUse" id="color-6"><stop offset="0" stop-color="#ff0000"/><stop offset="1" stop-color="#930000"/></linearGradient><radialGradient cx="189.21248" cy="167.1809" r="7.99924" gradientUnits="userSpaceOnUse" id="color-7"><stop offset="0" stop-color="#ff6060"/><stop offset="1" stop-color="#ff6060" stop-opacity="0"/></radialGradient><radialGradient cx="197.94063" cy="179.60391" r="12.66022" gradientUnits="userSpaceOnUse" id="color-8"><stop offset="0" stop-color="#ff6060"/><stop offset="1" stop-color="#ff6060" stop-opacity="0"/></radialGradient><linearGradient x1="235.66106" y1="167.14187" x2="161.56202" y2="200.69008" gradientUnits="userSpaceOnUse" id="color-9"><stop offset="0" stop-color="#000000"/><stop offset="1" stop-color="#ff2e54"/></linearGradient><linearGradient x1="197.33889" y1="176.46039" x2="210.3389" y2="167.01648" gradientUnits="userSpaceOnUse" id="color-10"><stop offset="0" stop-color="#ff0000"/><stop offset="1" stop-color="#930000"/></linearGradient><linearGradient x1="209.09717" y1="172.60168" x2="219.64659" y2="164.93803" gradientUnits="userSpaceOnUse" id="color-11"><stop offset="0" stop-color="#8e0000"/><stop offset="1" stop-color="#ff0000"/></linearGradient><linearGradient x1="210.35725" y1="179.37256" x2="216.33222" y2="175.03202" gradientUnits="userSpaceOnUse" id="color-12"><stop offset="0" stop-color="#d60000"/><stop offset="1" stop-color="#600000"/></linearGradient><linearGradient x1="193.9961" y1="187.68472" x2="201.57695" y2="182.17759" gradientUnits="userSpaceOnUse" id="color-13"><stop offset="0" stop-color="#ff0000"/><stop offset="1" stop-color="#930000"/></linearGradient><radialGradient cx="198.43046" cy="184.0622" r="11.86467" gradientUnits="userSpaceOnUse" id="color-14"><stop offset="0" stop-color="#ff6060"/><stop offset="1" stop-color="#ff6060" stop-opacity="0"/></radialGradient><radialGradient cx="190.03939" cy="194.5249" r="7.42946" gradientUnits="userSpaceOnUse" id="color-15"><stop offset="0" stop-color="#ff6060"/><stop offset="1" stop-color="#ff6060" stop-opacity="0"/></radialGradient><linearGradient x1="248.36902" y1="181.55334" x2="207.86629" y2="181.55334" gradientUnits="userSpaceOnUse" id="color-16"><stop offset="0" stop-color="#000000"/><stop offset="1" stop-color="#ff365a"/></linearGradient><linearGradient x1="315.1092" y1="182.29992" x2="234.87015" y2="182.29992" gradientUnits="userSpaceOnUse" id="color-17"><stop offset="0" stop-color="#ff4949"/><stop offset="1" stop-color="#cc0025"/></linearGradient><linearGradient x1="312.14858" y1="182.90071" x2="239.33348" y2="182.90071" gradientUnits="userSpaceOnUse" id="color-18"><stop offset="0" stop-color="#ffffff" stop-opacity="0.78431"/><stop offset="1" stop-color="#e30000"/></linearGradient><radialGradient cx="280.52224" cy="182.91197" r="22.1291" gradientUnits="userSpaceOnUse" id="color-19"><stop offset="0" stop-color="#ff5656"/><stop offset="1" stop-color="#ff5656" stop-opacity="0"/></radialGradient><radialGradient cx="271.98612" cy="170.05627" r="17.80311" gradientUnits="userSpaceOnUse" id="color-20"><stop offset="0" stop-color="#ff5656"/><stop offset="1" stop-color="#ff5656" stop-opacity="0"/></radialGradient><radialGradient cx="273.13968" cy="195.50436" r="16.13927" gradientUnits="userSpaceOnUse" id="color-21"><stop offset="0" stop-color="#ff6d6d"/><stop offset="1" stop-color="#ff6d6d" stop-opacity="0"/></radialGradient><radialGradient cx="282.27076" cy="156.44578" r="9.15114" gradientUnits="userSpaceOnUse" id="color-22"><stop offset="0" stop-color="#ff4e4e"/><stop offset="1" stop-color="#ff4e4e" stop-opacity="0"/></radialGradient><radialGradient cx="284.34959" cy="209.8166" r="9.15114" gradientUnits="userSpaceOnUse" id="color-23"><stop offset="0" stop-color="#ff4e4e"/><stop offset="1" stop-color="#ff4e4e" stop-opacity="0"/></radialGradient><radialGradient cx="294.2999" cy="166.81289" r="11.01193" gradientUnits="userSpaceOnUse" id="color-24"><stop offset="0" stop-color="#ff7e7e"/><stop offset="1" stop-color="#ff7e7e" stop-opacity="0"/></radialGradient><radialGradient cx="298.24805" cy="182.52005" r="7.42433" gradientUnits="userSpaceOnUse" id="color-25"><stop offset="0" stop-color="#ff8989"/><stop offset="1" stop-color="#ff8989" stop-opacity="0"/></radialGradient><radialGradient cx="290.37334" cy="193.97795" r="7.42433" gradientUnits="userSpaceOnUse" id="color-26"><stop offset="0" stop-color="#ff6060"/><stop offset="1" stop-color="#ff6060" stop-opacity="0"/></radialGradient><radialGradient cx="290.72403" cy="165.35816" r="6.8955" gradientUnits="userSpaceOnUse" id="color-27"><stop offset="0" stop-color="#ff7e7e"/><stop offset="1" stop-color="#ff7e7e" stop-opacity="0"/></radialGradient><radialGradient cx="291.43393" cy="192.31163" r="11.7503" gradientUnits="userSpaceOnUse" id="color-28"><stop offset="0" stop-color="#ff6060"/><stop offset="1" stop-color="#ff6060" stop-opacity="0"/></radialGradient><radialGradient cx="295.77282" cy="169.14364" r="4.57269" gradientUnits="userSpaceOnUse" id="color-29"><stop offset="0" stop-color="#ffb5b5"/><stop offset="1" stop-color="#ffb5b5" stop-opacity="0"/></radialGradient><radialGradient cx="291.39402" cy="173.41186" r="11.01192" gradientUnits="userSpaceOnUse" id="color-30"><stop offset="0" stop-color="#ff6060"/><stop offset="1" stop-color="#ff6060" stop-opacity="0"/></radialGradient><radialGradient cx="287.6002" cy="189.47972" r="6.8955" gradientUnits="userSpaceOnUse" id="color-31"><stop offset="0" stop-color="#ff6060"/><stop offset="1" stop-color="#ff6060" stop-opacity="0"/></radialGradient></defs><g transform="translate(-127.93433,-67.93433)"><g data-paper-data="{&quot;isPaintingLayer&quot;:true}" fill-rule="nonzero" stroke-width="0" stroke-linecap="butt" stroke-linejoin="miter" stroke-miterlimit="10" stroke-dasharray="" stroke-dashoffset="0" style="mix-blend-mode: normal"><path d="M177.40271,183.48436c0,-27.51178 22.3027,-49.81448 49.81448,-49.81448c27.51178,0 49.81449,22.3027 49.81449,49.81448c0,27.51178 -22.30271,49.81448 -49.81449,49.81448c-27.51178,0 -49.81448,-22.3027 -49.81448,-49.81448z" fill="url(#color-1)" stroke="none"/><path d="M166.13824,165.26397c-1.45318,-2.52382 11.22885,-15.03772 20.77002,-8.7742c16.42502,10.78253 10.58791,13.78353 16.13758,20.72956c7.37685,9.23297 30.8568,1.5646 30.8568,1.5646l-2.83796,22.52615c0,0 -34.31579,18.37676 -45.46483,-13.55577c-4.20172,-12.03435 0.64587,-17.66406 -3.49717,-21.6055c-4.14305,-3.94144 -13.12364,4.04888 -15.96444,-0.88485z" data-paper-data="{&quot;index&quot;:null}" fill="url(#color-2)" stroke="#000000"/><g data-paper-data="{&quot;index&quot;:null}" stroke="none"><path d="M206.69115,198.78786c-1.90113,1.9292 -6.00431,0.96834 -9.16474,-2.1461c-3.16042,-3.11443 -4.18129,-7.20309 -2.28015,-9.13228c1.90112,-1.92918 6.00429,-0.96834 9.16471,2.14611c3.16042,3.11444 4.18131,7.2031 2.28019,9.13228z" data-paper-data="{&quot;index&quot;:null}" fill="url(#color-3)"/><path d="M215.58435,202.23223c-1.54274,1.56553 -4.87245,0.7858 -7.4371,-1.74155c-2.56466,-2.52734 -3.39308,-5.84525 -1.85033,-7.41077c1.54274,-1.56553 4.87244,-0.78583 7.43709,1.74153c2.56466,2.52733 3.3931,5.84527 1.85035,7.41078z" data-paper-data="{&quot;index&quot;:null}" fill="url(#color-4)"/><path d="M213.81366,191.7566c-0.87378,0.88669 -2.75966,0.44506 -4.21223,-0.98637c-1.45256,-1.43144 -1.92177,-3.31063 -1.04798,-4.19731c0.87377,-0.88667 2.75964,-0.44507 4.2122,0.98637c1.45257,1.43145 1.9218,3.31064 1.04801,4.19732z" data-paper-data="{&quot;index&quot;:null}" fill="url(#color-5)"/><path d="M200.29014,182.48884c-1.10862,1.12499 -3.50134,0.56471 -5.34433,-1.25146c-1.84297,-1.81615 -2.43826,-4.20041 -1.32963,-5.3254c1.10862,-1.12498 3.50133,-0.56469 5.3443,1.25146c1.84298,1.81616 2.43829,4.20041 1.32967,5.32539z" data-paper-data="{&quot;index&quot;:null}" fill="url(#color-6)"/><path d="M194.82719,161.48329c3.1467,3.10093 3.18383,8.16562 0.0829,11.31234c-3.10093,3.1467 -8.16562,3.18382 -11.31233,0.0829c-3.1467,-3.10092 -3.18381,-8.16561 -0.08288,-11.31234c3.10093,-3.1467 8.1656,-3.18382 11.31232,-0.08288z" fill="url(#color-7)"/><path d="M206.82695,170.5864c4.98023,4.90778 5.03897,12.92356 0.1312,17.9038c-4.90776,4.98023 -12.92355,5.03897 -17.90378,0.13118c-4.98023,-4.90776 -5.03896,-12.92356 -0.13119,-17.90377c4.90776,-4.98023 12.92355,-5.03896 17.90376,-0.13119z" fill="url(#color-8)"/></g><path d="M182.94906,195.18042c4.57535,-3.43016 0.41902,-9.5879 5.99859,-21.04863c14.8051,-30.41047 46.73768,-8.14862 46.73768,-8.14862l0.18551,22.70346c0,0 -22.42269,-10.36028 -30.82816,-2.05286c-6.32353,6.24975 -0.87721,9.91244 -18.44996,18.70121c-10.20791,5.10534 -21.34029,-8.80513 -19.60206,-11.1418c3.39799,-4.56786 11.38307,4.41739 15.95842,0.98723z" data-paper-data="{&quot;index&quot;:null}" fill="url(#color-9)" stroke="#000000"/><g data-paper-data="{&quot;index&quot;:null}" stroke="none"><path d="M210.33889,167.0165c1.5919,2.19131 -0.02779,6.08182 -3.61764,8.68969c-3.58986,2.60786 -7.79049,2.94554 -9.38237,0.75421c-1.59189,-2.19133 0.02779,-6.08181 3.61764,-8.68968c3.58986,-2.60786 7.79049,-2.94555 9.38239,-0.75423z" fill="url(#color-10)"/><path d="M212.03285,165.55006c2.91314,-2.11625 6.32192,-2.3903 7.61373,-0.61206c1.29182,1.77825 -0.02254,4.93535 -2.93569,7.05161c-2.91314,2.11625 -6.32192,2.39028 -7.61372,0.61205c-1.29182,-1.77825 0.02252,-4.93535 2.93567,-7.05161z" fill="url(#color-11)"/><path d="M216.33223,175.03202c0.73166,1.00715 -0.0128,2.79527 -1.66272,3.99388c-1.64995,1.1986 -3.58058,1.35382 -4.31226,0.34666c-0.73166,-1.00717 0.01276,-2.79527 1.6627,-3.99388c1.64995,-1.19863 3.58062,-1.35382 4.31229,-0.34666z" fill="url(#color-12)"/><path d="M201.57692,182.1776c0.9283,1.27785 -0.01619,3.54654 -2.10959,5.06728c-2.09338,1.52075 -4.54293,1.71766 -5.47123,0.43981c-0.92828,-1.27783 0.01619,-3.54654 2.10959,-5.06728c2.09337,-1.52074 4.54293,-1.71766 5.47123,-0.43981z" fill="url(#color-13)"/><path d="M191.45714,174.46308c5.30145,-3.85124 12.72119,-2.67565 16.57245,2.62582c3.85127,5.30146 2.67564,12.72118 -2.62581,16.57244c-5.30145,3.85124 -12.72116,2.67565 -16.57242,-2.62583c-3.85127,-5.30146 -2.67567,-12.72117 2.62579,-16.57244z" fill="url(#color-14)"/><path d="M185.6728,188.5141c3.31969,-2.4116 7.96581,-1.67544 10.3774,1.64423c2.41159,3.31968 1.67542,7.96582 -1.64425,10.3774c-3.31969,2.4116 -7.96579,1.67546 -10.37739,-1.64423c-2.41159,-3.31968 -1.67544,-7.9658 1.64425,-10.37739z" fill="url(#color-15)"/></g><path d="M217.86346,149.15473c0,0 6.67226,14.40717 10.52011,14.76508c6.91109,0.64283 19.98544,-2.34353 19.98544,-2.34353v39.95414c0,0 -13.98997,-3.42749 -20.71202,-0.77443c-5.63096,2.22242 -8.77741,14.71878 -8.77741,14.71878c0,0 -7.83984,-5.38139 -6.63802,-17.68661c0.57078,-5.8441 8.84435,-8.79886 8.84435,-8.79886l-17.71994,-7.61002l16.72574,-7.10111c0,0 -6.815,-2.7842 -8.04632,-11.09349c-1.02819,-6.93847 5.81807,-14.02991 5.81807,-14.02991z" fill="url(#color-16)" stroke="#ff0000"/><path d="M315.10881,183.44879c-0.05782,17.8654 -7.19592,27.89287 -16.03129,37.6245c-13.34775,14.70172 -34.50775,12.51587 -43.79063,3.85543c-10.13003,-9.4508 -13.19157,-20.41356 -13.19157,-20.41356l-7.22519,-22.97537c0,0 3.1728,-14.22818 6.99553,-22.32607c3.82273,-8.09789 5.41007,-12.18744 12.75653,-19.08925c6.90305,-6.48523 26.53904,-13.94557 44.37033,3.41176c13.91143,13.54167 16.15056,29.31835 16.11628,39.91254z" fill="url(#color-17)" stroke="#000000"/><g><path d="M236.64659,163.7217c5.05393,0 9.15096,4.70378 9.15096,10.50618c0,5.8024 -4.09702,10.50618 -9.15096,10.50618c-5.05393,0 -9.15096,-4.70377 -9.15096,-10.50618c0,-1.51024 -0.28605,-4.70134 0.21368,-5.99916c1.42027,-3.68846 5.19877,-4.50702 8.93727,-4.50702z" fill="#000000" stroke="none"/><path d="M236.64659,178.79448c5.05393,0 9.15096,4.70377 9.15096,10.50618c0,5.8024 -4.09702,10.50619 -9.15096,10.50619c-3.53957,0 -6.60977,-0.05041 -8.13188,-3.42638c-0.65122,-1.44438 -1.01908,-5.34118 -1.01908,-7.07981c0,-5.8024 4.09702,-10.50618 9.15096,-10.50618z" fill="#000000" stroke="none"/><path d="M237.91058,166.80072c4.37442,0 7.92061,3.56438 7.92061,7.96126c0,4.39688 -3.54617,7.96126 -7.92061,7.96126c-4.37444,0 -7.92062,-3.56438 -7.92062,-7.96126c0,-4.39688 3.54617,-7.96126 7.92062,-7.96126z" fill="#ffffff" stroke="#000000"/><path d="M237.91058,180.80528c4.37442,0 7.92061,3.56438 7.92061,7.96126c0,4.39688 -3.54617,7.96126 -7.92061,7.96126c-4.37444,0 -7.92062,-3.56438 -7.92062,-7.96126c0,-4.39688 3.54617,-7.96126 7.92062,-7.96126z" fill="#ffffff" stroke="#000000"/><path d="M240.04618,173.66954c2.02324,0 3.66343,1.45948 3.66343,3.25985c0,1.80037 -1.64018,3.25985 -3.66343,3.25985c-2.02324,0 -3.66343,-1.45948 -3.66343,-3.25985c0,-1.80037 1.64018,-3.25985 3.66343,-3.25985z" fill="#000000" stroke="none"/><path d="M239.79857,183.02289c2.02324,0 3.66343,1.45948 3.66343,3.25985c0,1.80037 -1.64018,3.25985 -3.66343,3.25985c-2.02324,0 -3.66343,-1.45948 -3.66343,-3.25985c0,-1.80037 1.64018,-3.25985 3.66343,-3.25985z" fill="#000000" stroke="none"/></g><path d="M247.5228,165.38414c0,0 7.87717,-0.39275 12.27544,0.82724c5.11043,1.41754 16.57243,6.8959 16.57243,6.8959l23.51847,3.41611l-29.41796,-22.45642l30.28669,11.55198l-12.41918,-20.23818c0,0 10.54996,7.81329 14.9397,14.71352c3.03842,4.77611 6.44846,13.93529 6.09117,22.43465c-0.3573,8.49936 -3.11261,16.35784 -7.23555,22.98682c-3.60529,5.79668 -13.8423,13.79008 -13.8423,13.79008l12.32937,-21.61086l-28.67607,12.89558l28.61907,-24.14344l-24.25892,4.38461c0,0 -11.31458,5.03258 -16.21952,6.16789c-4.74757,1.09889 -12.75338,1.09569 -12.75338,1.09569c0,0 -7.94833,-10.61529 -7.99853,-16.2392c-0.0487,-5.4588 8.1891,-16.47202 8.1891,-16.47202z" fill="url(#color-18)" stroke="#ff0000"/><g data-paper-data="{&quot;index&quot;:null}" stroke="none"><path d="M280.52224,156.31709c12.22158,0 22.12911,11.90692 22.12911,26.59485c0,14.68794 -9.90753,26.59484 -22.12911,26.59484c-12.22158,0 -22.12911,-11.90691 -22.12911,-26.59484c0,-14.68794 9.90753,-26.59485 22.1291,-26.59485z" fill="url(#color-19)"/><path d="M271.98612,148.66041c9.83239,0 17.80311,9.57926 17.80311,21.39587c0,11.81661 -7.97072,21.39586 -17.80312,21.39586c-9.83239,0 -17.80312,-9.57922 -17.80312,-21.39586c0,-11.81661 7.97072,-21.39587 17.80312,-21.39587z" fill="url(#color-20)"/><path d="M273.13968,176.1081c8.91349,0 16.13927,8.684 16.13927,19.39624c0,10.71224 -7.22579,19.39624 -16.13927,19.39624c-8.91349,0 -16.13929,-8.684 -16.13929,-19.39624c0,-10.71224 7.22579,-19.39624 16.13927,-19.39624z" fill="url(#color-21)"/><path d="M282.27076,145.44789c5.05403,0 9.15112,4.92392 9.15112,10.99789c0,6.07397 -4.0971,10.99789 -9.15114,10.99789c-5.05403,0 -9.15114,-4.92391 -9.15114,-10.99789c0,-6.07397 4.09711,-10.99789 9.15114,-10.99789z" fill="url(#color-22)"/><path d="M284.34959,198.81875c5.05403,0 9.15114,4.92391 9.15114,10.99789c0,6.07396 -4.09711,10.99789 -9.15114,10.99789c-5.05403,0 -9.15114,-4.92391 -9.15114,-10.99787c0,-6.07396 4.09711,-10.99789 9.15114,-10.99789z" fill="url(#color-23)"/><path d="M294.2999,153.57869c6.08174,0 11.01192,5.92513 11.01192,13.23418c0,7.30906 -4.93019,13.23418 -11.01191,13.23418c-6.08174,0 -11.01192,-5.92513 -11.01192,-13.23418c0,-7.30906 4.93021,-13.23418 11.01192,-13.23418z" fill="url(#color-24)"/><path d="M298.24805,173.59748c4.10035,0 7.42432,3.99477 7.42432,8.92258c0,4.92782 -3.32398,8.92259 -7.42432,8.92259c-4.10035,0 -7.42433,-3.99477 -7.42433,-8.92259c0,-4.92782 3.32398,-8.92258 7.42433,-8.92258z" fill="url(#color-25)"/><path d="M290.37334,185.05537c4.10035,0 7.42432,3.99477 7.42432,8.92258c0,4.92782 -3.32398,8.92259 -7.42432,8.92259c-4.10035,0 -7.42433,-3.99477 -7.42433,-8.92259c0,-4.92782 3.32398,-8.92258 7.42433,-8.92258z" fill="url(#color-26)"/><path d="M290.72403,157.07113c3.80828,0 6.8955,3.71023 6.8955,8.28703c0,4.57682 -3.08721,8.28703 -6.8955,8.28703c-3.80828,0 -6.89551,-3.71023 -6.89551,-8.28703c0,-4.57682 3.08722,-8.28703 6.89551,-8.28703z" fill="url(#color-27)"/><path d="M291.43393,178.19002c6.48953,0 11.7503,6.32244 11.7503,14.12156c0,7.79915 -5.26078,14.12156 -11.7503,14.12156c-6.48954,0 -11.75032,-6.32244 -11.75032,-14.12156c0,-7.79915 5.26078,-14.12156 11.75032,-14.12156z" fill="url(#color-28)"/><path d="M295.77282,163.64817c2.52544,0 4.57269,2.46041 4.57269,5.49547c0,3.03507 -2.04726,5.49547 -4.57269,5.49547c-2.52544,0 -4.57271,-2.46041 -4.57271,-5.49547c0,-3.03507 2.04726,-5.49547 4.57271,-5.49547z" fill="url(#color-29)"/><path d="M291.39402,160.17769c6.08174,0 11.01192,5.92513 11.01192,13.23418c0,7.30906 -4.93019,13.23418 -11.01191,13.23418c-6.08174,0 -11.01193,-5.92513 -11.01193,-13.23418c0,-7.30906 4.93023,-13.23418 11.01193,-13.23418z" fill="url(#color-30)"/><path d="M287.6002,181.19269c3.80828,0 6.8955,3.71023 6.8955,8.28703c0,4.57682 -3.08721,8.28703 -6.8955,8.28703c-3.80828,0 -6.89551,-3.71023 -6.89551,-8.28703c0,-4.57682 3.08722,-8.28703 6.89551,-8.28703z" fill="url(#color-31)"/></g><path d="M127.93433,292.06568v-224.13135h224.13135v224.13135z" data-paper-data="{&quot;index&quot;:null}" fill="none" stroke="none"/></g></g></svg>