<svg version="1.1" xmlns="http://www.w3.org/2000/svg" xmlns:xlink="http://www.w3.org/1999/xlink" width="224.13135" height="224.13135" viewBox="0,0,224.13135,224.13135"><defs><radialGradient cx="230.7953" cy="183.48436" r="49.81448" gradientUnits="userSpaceOnUse" id="color-1"><stop offset="0" stop-color="#ff0000"/><stop offset="1" stop-color="#ff0000" stop-opacity="0"/></radialGradient><linearGradient x1="233.63978" y1="172.51917" x2="152.43304" y2="177.1686" gradientUnits="userSpaceOnUse" id="color-2"><stop offset="0" stop-color="#000000"/><stop offset="1" stop-color="#ff2e54"/></linearGradient><linearGradient x1="194.70539" y1="163.7418" x2="210.24657" y2="159.85617" gradientUnits="userSpaceOnUse" id="color-3"><stop offset="0" stop-color="#ff0000"/><stop offset="1" stop-color="#930000"/></linearGradient><linearGradient x1="207.05875" y1="164.26784" x2="219.67031" y2="161.11469" gradientUnits="userSpaceOnUse" id="color-4"><stop offset="0" stop-color="#8e0000"/><stop offset="1" stop-color="#ff0000"/></linearGradient><linearGradient x1="205.76947" y1="170.52279" x2="212.9124" y2="168.73691" gradientUnits="userSpaceOnUse" id="color-5"><stop offset="0" stop-color="#d60000"/><stop offset="1" stop-color="#600000"/></linearGradient><linearGradient x1="187.50989" y1="172.32994" x2="196.57259" y2="170.06406" gradientUnits="userSpaceOnUse" id="color-6"><stop offset="0" stop-color="#ff0000"/><stop offset="1" stop-color="#930000"/></linearGradient><radialGradient cx="192.95696" cy="170.65842" r="11.86467" gradientUnits="userSpaceOnUse" id="color-7"><stop offset="0" stop-color="#ff6060"/><stop offset="1" stop-color="#ff6060" stop-opacity="0"/></radialGradient><radialGradient cx="181.33727" cy="176.93422" r="7.42946" gradientUnits="userSpaceOnUse" id="color-8"><stop offset="0" stop-color="#ff6060"/><stop offset="1" stop-color="#ff6060" stop-opacity="0"/></radialGradient><linearGradient x1="235.04679" y1="193.1522" x2="154.3851" y2="203.63282" gradientUnits="userSpaceOnUse" id="color-9"><stop offset="0" stop-color="#000000"/><stop offset="1" stop-color="#ff2e54"/></linearGradient><linearGradient x1="199.15223" y1="202.2683" x2="215.15007" y2="202.46457" gradientUnits="userSpaceOnUse" id="color-10"><stop offset="0" stop-color="#ff0000"/><stop offset="1" stop-color="#930000"/></linearGradient><linearGradient x1="211.06052" y1="198.92131" x2="224.04267" y2="199.08059" gradientUnits="userSpaceOnUse" id="color-11"><stop offset="0" stop-color="#8e0000"/><stop offset="1" stop-color="#ff0000"/></linearGradient><linearGradient x1="208.40718" y1="193.15567" x2="215.75999" y2="193.24587" gradientUnits="userSpaceOnUse" id="color-12"><stop offset="0" stop-color="#d60000"/><stop offset="1" stop-color="#600000"/></linearGradient><linearGradient x1="190.22766" y1="195.598" x2="199.55665" y2="195.71247" gradientUnits="userSpaceOnUse" id="color-13"><stop offset="0" stop-color="#ff0000"/><stop offset="1" stop-color="#930000"/></linearGradient><radialGradient cx="181.15101" cy="192.60295" r="7.99924" gradientUnits="userSpaceOnUse" id="color-14"><stop offset="0" stop-color="#ff6060"/><stop offset="1" stop-color="#ff6060" stop-opacity="0"/></radialGradient><radialGradient cx="195.89358" cy="195.29349" r="12.66022" gradientUnits="userSpaceOnUse" id="color-15"><stop offset="0" stop-color="#ff6060"/><stop offset="1" stop-color="#ff6060" stop-opacity="0"/></radialGradient><linearGradient x1="253.0802" y1="181.42124" x2="209.67919" y2="181.42124" gradientUnits="userSpaceOnUse" id="color-16"><stop offset="0" stop-color="#000000"/><stop offset="1" stop-color="#ff365a"/></linearGradient><linearGradient x1="324.45823" y1="179.60354" x2="238.25566" y2="179.60354" gradientUnits="userSpaceOnUse" id="color-17"><stop offset="0" stop-color="#ff4949"/><stop offset="1" stop-color="#cc0025"/></linearGradient><linearGradient x1="321.68828" y1="174.57877" x2="243.08409" y2="174.57877" gradientUnits="userSpaceOnUse" id="color-18"><stop offset="0" stop-color="#ffffff" stop-opacity="0.78431"/><stop offset="1" stop-color="#e30000"/></linearGradient><radialGradient cx="287.49331" cy="174.58459" r="23.77378" gradientUnits="userSpaceOnUse" id="color-19"><stop offset="0" stop-color="#ff5656"/><stop offset="1" stop-color="#ff5656" stop-opacity="0"/></radialGradient><radialGradient cx="278.32276" cy="165.12419" r="19.12627" gradientUnits="userSpaceOnUse" id="color-20"><stop offset="0" stop-color="#ff5656"/><stop offset="1" stop-color="#ff5656" stop-opacity="0"/></radialGradient><radialGradient cx="279.56206" cy="183.85123" r="17.33877" gradientUnits="userSpaceOnUse" id="color-21"><stop offset="0" stop-color="#ff6d6d"/><stop offset="1" stop-color="#ff6d6d" stop-opacity="0"/></radialGradient><radialGradient cx="289.37177" cy="155.10833" r="9.83127" gradientUnits="userSpaceOnUse" id="color-22"><stop offset="0" stop-color="#ff4e4e"/><stop offset="1" stop-color="#ff4e4e" stop-opacity="0"/></radialGradient><radialGradient cx="291.60511" cy="194.3835" r="9.83127" gradientUnits="userSpaceOnUse" id="color-23"><stop offset="0" stop-color="#ff4e4e"/><stop offset="1" stop-color="#ff4e4e" stop-opacity="0"/></radialGradient><radialGradient cx="302.29495" cy="162.73742" r="11.83036" gradientUnits="userSpaceOnUse" id="color-24"><stop offset="0" stop-color="#ff7e7e"/><stop offset="1" stop-color="#ff7e7e" stop-opacity="0"/></radialGradient><radialGradient cx="306.53653" cy="174.29618" r="7.97612" gradientUnits="userSpaceOnUse" id="color-25"><stop offset="0" stop-color="#ff8989"/><stop offset="1" stop-color="#ff8989" stop-opacity="0"/></radialGradient><radialGradient cx="298.07655" cy="182.72796" r="7.97612" gradientUnits="userSpaceOnUse" id="color-26"><stop offset="0" stop-color="#ff6060"/><stop offset="1" stop-color="#ff6060" stop-opacity="0"/></radialGradient><radialGradient cx="298.45331" cy="161.66689" r="7.40798" gradientUnits="userSpaceOnUse" id="color-27"><stop offset="0" stop-color="#ff7e7e"/><stop offset="1" stop-color="#ff7e7e" stop-opacity="0"/></radialGradient><radialGradient cx="299.21597" cy="181.50172" r="12.62361" gradientUnits="userSpaceOnUse" id="color-28"><stop offset="0" stop-color="#ff6060"/><stop offset="1" stop-color="#ff6060" stop-opacity="0"/></radialGradient><radialGradient cx="303.87733" cy="164.4526" r="4.91254" gradientUnits="userSpaceOnUse" id="color-29"><stop offset="0" stop-color="#ffb5b5"/><stop offset="1" stop-color="#ffb5b5" stop-opacity="0"/></radialGradient><radialGradient cx="299.17309" cy="167.59354" r="11.83035" gradientUnits="userSpaceOnUse" id="color-30"><stop offset="0" stop-color="#ff6060"/><stop offset="1" stop-color="#ff6060" stop-opacity="0"/></radialGradient><radialGradient cx="295.09731" cy="179.41775" r="7.40798" gradientUnits="userSpaceOnUse" id="color-31"><stop offset="0" stop-color="#ff6060"/><stop offset="1" stop-color="#ff6060" stop-opacity="0"/></radialGradient><radialGradient cx="233.42861" cy="183.4729" r="49.81448" gradientUnits="userSpaceOnUse" id="color-32"><stop offset="0" stop-color="#ff002e"/><stop offset="1" stop-color="#ff002e" stop-opacity="0"/></radialGradient><linearGradient x1="222.35328" y1="126.20027" x2="222.35328" y2="222.80933" gradientUnits="userSpaceOnUse" id="color-33"><stop offset="0" stop-color="#ffffff" stop-opacity="0"/><stop offset="1" stop-color="#ffffff" stop-opacity="0.50196"/></linearGradient><linearGradient x1="186.32801" y1="152.06423" x2="186.32801" y2="228.27135" gradientUnits="userSpaceOnUse" id="color-34"><stop offset="0" stop-color="#ffffff" stop-opacity="0.50196"/><stop offset="1" stop-color="#ffffff" stop-opacity="0"/></linearGradient><linearGradient x1="282.59217" y1="164.30419" x2="282.59217" y2="236.9562" gradientUnits="userSpaceOnUse" id="color-35"><stop offset="0" stop-color="#ff002e"/><stop offset="1" stop-color="#ff002e" stop-opacity="0"/></linearGradient><linearGradient x1="204.81848" y1="132.80744" x2="204.81848" y2="205.45944" gradientUnits="userSpaceOnUse" id="color-36"><stop offset="0" stop-color="#ff002e"/><stop offset="1" stop-color="#ff002e" stop-opacity="0"/></linearGradient><linearGradient x1="265.66755" y1="125.84141" x2="265.66755" y2="246.23996" gradientUnits="userSpaceOnUse" id="color-37"><stop offset="0" stop-color="#ffffff" stop-opacity="0.50196"/><stop offset="1" stop-color="#ffffff" stop-opacity="0"/></linearGradient><linearGradient x1="288.05423" y1="132.5689" x2="288.05423" y2="183.27514" gradientUnits="userSpaceOnUse" id="color-38"><stop offset="0" stop-color="#ff002e" stop-opacity="0"/><stop offset="1" stop-color="#ff002e"/></linearGradient><linearGradient x1="240.20862" y1="142.92331" x2="240.20862" y2="202.60769" gradientUnits="userSpaceOnUse" id="color-39"><stop offset="0" stop-color="#ff002e"/><stop offset="1" stop-color="#ff002e" stop-opacity="0"/></linearGradient></defs><g transform="translate(-127.93433,-67.93433)"><g data-paper-data="{&quot;isPaintingLayer&quot;:true}" fill-rule="nonzero" stroke-width="0" stroke-linecap="butt" stroke-linejoin="miter" stroke-miterlimit="10" stroke-dasharray="" stroke-dashoffset="0" style="mix-blend-mode: normal"><path d="M180.98082,183.48436c0,-27.51178 22.3027,-49.81448 49.81448,-49.81448c27.51178,0 49.81449,22.3027 49.81449,49.81448c0,27.51178 -22.30271,49.81448 -49.81449,49.81448c-27.51178,0 -49.81448,-22.3027 -49.81448,-49.81448z" fill="url(#color-1)" stroke="none"/><path d="M174.35364,179.42727c5.50841,-1.45933 3.87755,-8.13489 13.24203,-16.19359c24.84819,-21.38337 46.48814,8.29372 46.48814,8.29372l-8.08501,19.64897c0,0 -17.11278,-16.29054 -27.96195,-11.87902c-8.16194,3.31884 -4.42229,8.26466 -23.98352,10.08576c-11.36301,1.05786 -16.67045,-14.5939 -14.20183,-16.04001c4.8258,-2.82695 8.99374,7.5435 14.50215,6.08417z" data-paper-data="{&quot;index&quot;:null}" fill="url(#color-2)" stroke="#000000"/><g data-paper-data="{&quot;index&quot;:null}" stroke="none"><path d="M210.24655,159.85618c0.68542,2.41258 -2.23797,5.23818 -6.52956,6.31116c-4.29158,1.07299 -8.32622,-0.01297 -9.01163,-2.42554c-0.68541,-2.41258 2.23796,-5.23817 6.52955,-6.31116c4.29158,-1.07299 8.32623,0.01296 9.01164,2.42552z" fill="url(#color-3)"/><path d="M212.35743,159.14638c3.48258,-0.87072 6.75667,0.0105 7.31288,1.9683c0.55621,1.95779 -1.81609,4.25074 -5.29869,5.12146c-3.48258,0.87072 -6.75666,-0.0105 -7.31287,-1.9683c-0.55621,-1.95779 1.81607,-4.25074 5.29867,-5.12146z" fill="url(#color-4)"/><path d="M212.91241,168.73691c0.31503,1.10884 -1.02862,2.40752 -3.00108,2.90068c-1.97247,0.49316 -3.82683,-0.00594 -4.14185,-1.1148c-0.31503,-1.10886 1.02859,-2.40753 3.00105,-2.90068c1.97248,-0.49317 3.82686,0.00594 4.14189,1.11481z" fill="url(#color-5)"/><path d="M196.57256,170.06406c0.39969,1.40687 -1.30503,3.05458 -3.80764,3.68028c-2.50259,0.6257 -4.85534,-0.00755 -5.25503,-1.41442c-0.39968,-1.40685 1.30503,-3.05458 3.80764,-3.68028c2.50258,-0.6257 4.85534,0.00755 5.25503,1.41442z" fill="url(#color-6)"/><path d="M189.95449,160.09007c6.33775,-1.58457 12.81975,1.86248 14.47796,7.69924c1.65821,5.83676 -2.13529,11.85288 -8.47306,13.43747c-6.33775,1.58457 -12.81972,-1.86247 -14.47793,-7.69923c-1.65821,-5.83676 2.13527,-11.85289 8.47304,-13.43747z" fill="url(#color-7)"/><path d="M179.45718,170.31648c3.9686,-0.99223 8.02753,1.16626 9.06587,4.82112c1.03834,3.65486 -1.33711,7.4221 -5.30571,8.41433c-3.9686,0.99224 -8.02752,-1.16625 -9.06586,-4.82112c-1.03834,-3.65486 1.3371,-7.42209 5.3057,-8.41432z" fill="url(#color-8)"/></g><path d="M162.38172,205.99958c-2.69298,-0.95681 -0.36736,-17.23835 10.99459,-18.30674c19.55941,-1.83924 16.79765,3.68722 25.43133,5.42119c11.47625,2.30487 25.2852,-16.78539 25.2852,-16.78539l11.57345,17.71083c0,0 -15.78606,33.01316 -44.15321,16.70861c-10.69066,-6.14466 -10.32064,-12.97175 -16.00331,-13.37903c-5.68267,-0.40728 -7.86366,10.50096 -13.12805,8.63053z" data-paper-data="{&quot;index&quot;:null}" fill="url(#color-9)" stroke="#000000"/><g data-paper-data="{&quot;index&quot;:null}" stroke="none"><path d="M215.15007,202.46456c-0.12792,2.49549 -3.81287,4.47453 -8.23055,4.42033c-4.41767,-0.0542 -7.89519,-2.12112 -7.76727,-4.6166c0.12793,-2.49547 3.81285,-4.47451 8.23053,-4.42031c4.41767,0.05421 7.89521,2.12111 7.76729,4.61658z" data-paper-data="{&quot;index&quot;:null}" fill="url(#color-10)"/><path d="M224.04267,199.0806c-0.10381,2.02507 -3.09411,3.63104 -6.67903,3.58706c-3.58491,-0.04398 -6.40689,-1.72126 -6.30308,-3.74633c0.10381,-2.02507 3.09409,-3.63105 6.67901,-3.58707c3.58491,0.04397 6.40691,1.72126 6.3031,3.74632z" data-paper-data="{&quot;index&quot;:null}" fill="url(#color-11)"/><path d="M215.75999,193.24586c-0.05879,1.14696 -1.75245,2.05655 -3.78287,2.03164c-2.03042,-0.02492 -3.62873,-0.97488 -3.56993,-2.12185c0.05879,-1.14694 1.75242,-2.05654 3.78285,-2.03162c2.03043,0.02492 3.62876,0.97488 3.56996,2.12184z" data-paper-data="{&quot;index&quot;:null}" fill="url(#color-12)"/><path d="M199.55664,195.71247c-0.07459,1.45521 -2.22341,2.60929 -4.79954,2.57768c-2.57612,-0.03161 -4.604,-1.23692 -4.52939,-2.69214c0.0746,-1.45522 2.22341,-2.60927 4.79955,-2.57766c2.57613,0.03161 4.60401,1.23689 4.52941,2.6921z" data-paper-data="{&quot;index&quot;:null}" fill="url(#color-13)"/><path d="M181.52881,185.23287c4.39851,0.05396 7.79506,3.39739 7.58639,7.4678c-0.20867,4.0704 -3.94349,7.32636 -8.34201,7.27239c-4.39849,-0.05397 -7.79504,-3.3974 -7.58638,-7.46782c0.20867,-4.07039 3.94349,-7.32633 8.342,-7.27237z" fill="url(#color-14)"/><path d="M196.49154,183.62898c6.96143,0.08541 12.33706,5.37701 12.00683,11.81914c-0.33024,6.44212 -6.24128,11.59525 -13.20272,11.50984c-6.96142,-0.0854 -12.33704,-5.37701 -12.0068,-11.81914c0.33024,-6.44212 6.24128,-11.59524 13.2027,-11.50983z" fill="url(#color-15)"/></g><path d="M220.39174,143.40146c0,0 7.14971,16.90682 11.2729,17.32681c7.40563,0.75436 21.41556,-2.75014 21.41556,-2.75014v46.88619c0,0 -14.99106,-4.02215 -22.19412,-0.9088c-6.0339,2.60801 -9.4055,17.27248 -9.4055,17.27248c0,0 -8.40084,-6.31506 -7.11302,-20.75525c0.61162,-6.85805 9.47723,-10.32546 9.47723,-10.32546l-18.98794,-8.93037l17.92259,-8.33315c0,0 -7.30266,-3.26727 -8.6221,-13.01822c-1.10177,-8.14229 6.2344,-16.46409 6.2344,-16.46409z" fill="url(#color-16)" stroke="#ff0000"/><path d="M324.45782,180.50979c-0.06211,14.09247 -7.73073,22.00228 -17.22277,29.67871c-14.33979,11.59691 -37.07244,9.87269 -47.04523,3.04121c-10.88291,-7.45492 -14.17199,-16.10249 -14.17199,-16.10249l-7.76217,-18.12328c0,0 3.40861,-11.22338 7.51545,-17.6111c4.10684,-6.38773 5.81216,-9.61362 13.70462,-15.05786c7.41609,-5.11563 28.51147,-11.00046 47.66802,2.69125c14.94535,10.68185 17.3509,23.12672 17.31407,31.48356z" fill="url(#color-17)" stroke="#000000"/><g><path d="M241.89614,160.07815c5.40533,0 9.78722,3.79585 9.78722,8.47827c0,4.68242 -4.38189,8.47827 -9.78722,8.47827c-5.40533,0 -9.78722,-3.79585 -9.78722,-8.47827c0,-1.21873 -0.30594,-3.79389 0.22854,-4.8412c1.51902,-2.97652 5.56024,-3.63708 9.55868,-3.63708z" fill="#000000" stroke="none"/><path d="M241.89614,172.24157c5.40533,0 9.78722,3.79585 9.78722,8.47827c0,4.68242 -4.38189,8.47828 -9.78722,8.47828c-3.78568,0 -7.06935,-0.04068 -8.69729,-2.76502c-0.6965,-1.16558 -1.08993,-4.31022 -1.08993,-5.71326c0,-4.68242 4.38189,-8.47827 9.78722,-8.47827z" fill="#000000" stroke="none"/><path d="M243.24802,162.56285c4.67858,0 8.47133,2.87638 8.47133,6.42457c0,3.5482 -3.79274,6.42457 -8.47133,6.42457c-4.6786,0 -8.47134,-2.87638 -8.47134,-6.42457c0,-3.5482 3.79274,-6.42457 8.47134,-6.42457z" fill="#ffffff" stroke="#000000"/><path d="M243.24802,173.86426c4.67858,0 8.47133,2.87638 8.47133,6.42457c0,3.5482 -3.79274,6.42457 -8.47133,6.42457c-4.6786,0 -8.47134,-2.87638 -8.47134,-6.42457c0,-3.5482 3.79274,-6.42457 8.47134,-6.42457z" fill="#ffffff" stroke="#000000"/><path d="M245.53211,168.10585c2.16392,0 3.91815,1.17777 3.91815,2.63063c0,1.45286 -1.75422,2.63063 -3.91815,2.63063c-2.16392,0 -3.91815,-1.17777 -3.91815,-2.63063c0,-1.45286 1.75422,-2.63063 3.91815,-2.63063z" fill="#000000" stroke="none"/><path d="M245.26728,175.65381c2.16392,0 3.91815,1.17777 3.91815,2.63063c0,1.45286 -1.75422,2.63063 -3.91815,2.63063c-2.16392,0 -3.91815,-1.17777 -3.91815,-2.63063c0,-1.45286 1.75422,-2.63063 3.91815,-2.63063z" fill="#000000" stroke="none"/></g><path d="M251.92449,161.64355c0,0 8.50343,-0.29003 13.25138,0.61088c5.51672,1.04679 17.89,5.09233 17.89,5.09233l25.38828,2.52265l-31.75681,-16.58309l32.6946,8.53063l-13.40656,-14.94501c0,0 11.38873,5.76977 16.12746,10.8653c3.27999,3.52695 6.96114,10.29061 6.57544,16.56701c-0.38571,6.27641 -3.36007,12.07955 -7.81081,16.97477c-3.89193,4.2806 -14.94282,10.18338 -14.94282,10.18338l13.30961,-15.95868l-30.95594,9.52282l30.8944,-17.82888l-26.1876,3.23784c0,0 -12.21413,3.71635 -17.50903,4.55472c-5.12502,0.81148 -13.76732,0.80912 -13.76732,0.80912c0,0 -8.58025,-7.83893 -8.63444,-11.99195c-0.05257,-4.03109 8.84017,-12.16388 8.84017,-12.16388z" fill="url(#color-18)" stroke="#ff0000"/><g data-paper-data="{&quot;index&quot;:null}" stroke="none"><path d="M287.49331,155.01364c13.12991,0 23.77379,8.76221 23.77379,19.57094c0,10.80873 -10.64388,19.57094 -23.77379,19.57094c-13.12991,0 -23.77379,-8.7622 -23.77379,-19.57094c0,-10.80873 10.64388,-19.57094 23.77378,-19.57094z" fill="url(#color-19)"/><path d="M278.32276,149.37914c10.56316,0 19.12627,7.04929 19.12627,15.74504c0,8.69575 -8.56312,15.74503 -19.12628,15.74503c-10.56316,0 -19.12628,-7.04928 -19.12628,-15.74503c0,-8.69575 8.56312,-15.74504 19.12628,-15.74504z" fill="url(#color-20)"/><path d="M279.56206,169.57769c9.57595,0 17.33877,6.39048 17.33877,14.27354c0,7.88306 -7.76283,14.27354 -17.33877,14.27354c-9.57595,0 -17.33879,-6.39048 -17.33879,-14.27354c0,-7.88306 7.76283,-14.27354 17.33877,-14.27354z" fill="url(#color-21)"/><path d="M289.37177,147.01508c5.42966,0 9.83125,3.62347 9.83125,8.09325c0,4.46979 -4.4016,8.09325 -9.83127,8.09325c-5.42966,0 -9.83127,-3.62346 -9.83127,-8.09325c0,-4.46979 4.40161,-8.09325 9.83127,-8.09325z" fill="url(#color-22)"/><path d="M291.60511,186.29025c5.42966,0 9.83127,3.62346 9.83127,8.09325c0,4.46978 -4.40161,8.09325 -9.83127,8.09325c-5.42966,0 -9.83127,-3.62346 -9.83127,-8.09323c0,-4.46978 4.40161,-8.09325 9.83127,-8.09325z" fill="url(#color-23)"/><path d="M302.29495,152.99847c6.53374,0 11.83035,4.36026 11.83035,9.73893c0,5.37867 -5.29661,9.73893 -11.83033,9.73893c-6.53374,0 -11.83035,-4.36026 -11.83035,-9.73893c0,-5.37867 5.29663,-9.73893 11.83035,-9.73893z" fill="url(#color-24)"/><path d="M306.53653,167.73014c4.4051,0 7.97611,2.93972 7.97611,6.56605c0,3.62634 -3.57102,6.56606 -7.97611,6.56606c-4.4051,0 -7.97612,-2.93972 -7.97612,-6.56606c0,-3.62634 3.57102,-6.56605 7.97612,-6.56605z" fill="url(#color-25)"/><path d="M298.07655,176.16191c4.4051,0 7.97611,2.93972 7.97611,6.56605c0,3.62634 -3.57102,6.56606 -7.97611,6.56606c-4.4051,0 -7.97612,-2.93972 -7.97612,-6.56606c0,-3.62634 3.57102,-6.56605 7.97612,-6.56605z" fill="url(#color-26)"/><path d="M298.45331,155.56852c4.09132,0 7.40798,2.73032 7.40798,6.09836c0,3.36804 -3.31665,6.09836 -7.40798,6.09836c-4.09132,0 -7.40799,-2.73032 -7.40799,-6.09836c0,-3.36804 3.31666,-6.09836 7.40799,-6.09836z" fill="url(#color-27)"/><path d="M299.21597,171.10975c6.97184,0 12.62361,4.65263 12.62361,10.39195c0,5.73932 -5.65178,10.39195 -12.62361,10.39195c-6.97185,0 -12.62363,-4.65263 -12.62363,-10.39195c0,-5.73932 5.65178,-10.39195 12.62363,-10.39195z" fill="url(#color-28)"/><path d="M303.87733,160.40852c2.71313,0 4.91254,1.8106 4.91254,4.04408c0,2.23349 -2.19941,4.04408 -4.91254,4.04408c-2.71313,0 -4.91256,-1.8106 -4.91256,-4.04408c0,-2.23349 2.19942,-4.04408 4.91256,-4.04408z" fill="url(#color-29)"/><path d="M299.17309,157.85462c6.53374,0 11.83035,4.36026 11.83035,9.73893c0,5.37867 -5.29661,9.73893 -11.83033,9.73893c-6.53374,0 -11.83036,-4.36026 -11.83036,-9.73893c0,-5.37867 5.29665,-9.73893 11.83036,-9.73893z" fill="url(#color-30)"/><path d="M295.09731,173.31939c4.09132,0 7.40798,2.73032 7.40798,6.09836c0,3.36804 -3.31665,6.09836 -7.40798,6.09836c-4.09132,0 -7.40799,-2.73032 -7.40799,-6.09836c0,-3.36804 3.31666,-6.09836 7.40799,-6.09836z" fill="url(#color-31)"/></g><path d="M127.93433,292.06568v-224.13135h224.13135v224.13135z" data-paper-data="{&quot;index&quot;:null}" fill="none" stroke="none"/><g><path d="M183.61413,183.4729c0,-27.51178 22.3027,-49.81448 49.81448,-49.81448c27.51178,0 49.81449,22.3027 49.81449,49.81448c0,27.51178 -22.30271,49.81448 -49.81449,49.81448c-27.51178,0 -49.81448,-22.3027 -49.81448,-49.81448z" fill="url(#color-32)" stroke="none"/><path d="M233.20055,222.80933c0,0 -23.64396,-23.44442 -23.72796,-45.84993c-0.12643,-33.72344 25.76184,-50.75913 25.76184,-50.75913c0,0 -10.40339,26.41407 -10.16939,45.02964c0.234,18.61558 8.13551,51.57942 8.13551,51.57942z" fill="url(#color-33)" stroke="#000000"/><path d="M198.64117,228.27135c0,0 -21.34443,-15.66001 -24.04057,-33.26869c-4.05807,-26.50353 14.29938,-42.93843 14.29938,-42.93843c0,0 -5.08006,21.99187 -2.71085,36.60272c2.36921,14.61086 12.45204,39.6044 12.45204,39.6044z" fill="url(#color-34)" stroke="#000000"/><path d="M297.6461,236.9562c0,0 -21.17225,-12.32186 -26.96923,-29.04905c-8.72527,-25.17676 3.51016,-43.60296 3.51016,-43.60296c0,0 0.09892,22.02974 5.02064,35.89138c4.92172,13.86164 18.43843,36.76062 18.43843,36.76062z" fill="url(#color-35)" stroke="#000000"/><path d="M201.43398,169.56806c-4.92172,13.86164 -5.02064,35.89138 -5.02064,35.89138c0,0 -12.23543,-18.42619 -3.51016,-43.60296c5.79698,-16.72718 26.96923,-29.04904 26.96923,-29.04904c0,0 -13.51671,22.89898 -18.43843,36.76061z" data-paper-data="{&quot;index&quot;:null}" fill="url(#color-36)" stroke="#000000"/><path d="M267.43978,181.847c-5.09852,25.5275 2.40358,64.39296 2.40358,64.39296c0,0 -31.16488,-29.78944 -22.33692,-76.10759c5.86521,-30.7733 37.8971,-44.29096 37.8971,-44.29096c0,0 -12.86525,30.4781 -17.96376,56.0056z" data-paper-data="{&quot;index&quot;:null}" fill="url(#color-37)" stroke="#000000"/><path d="M277.54759,132.5689c0,0 14.77682,8.59983 18.82272,20.27429c6.08965,17.5717 -2.44986,30.43195 -2.44986,30.43195c0,0 -0.06905,-15.37528 -3.50407,-25.04978c-3.43503,-9.6745 -12.86879,-25.65645 -12.86879,-25.65645z" fill="url(#color-38)" stroke="#000000"/><path d="M240.99807,175.05645c0.50578,11.51874 6.91991,27.55124 6.91991,27.55124c0,0 -14.31338,-9.78324 -15.38749,-30.64163c-0.71363,-13.8581 11.03902,-29.04275 11.03902,-29.04275c0,0 -3.07722,20.61441 -2.57144,32.13315z" data-paper-data="{&quot;index&quot;:null}" fill="url(#color-39)" stroke="#000000"/></g></g></g></svg>