<svg version="1.1" xmlns="http://www.w3.org/2000/svg" xmlns:xlink="http://www.w3.org/1999/xlink" width="37.6" height="43.6" viewBox="0,0,37.6,43.6"><g transform="translate(-221.20006,-158.2)"><g data-paper-data="{&quot;isPaintingLayer&quot;:true}" fill-rule="nonzero" stroke="none" stroke-linecap="butt" stroke-linejoin="miter" stroke-miterlimit="10" stroke-dasharray="" stroke-dashoffset="0" style="mix-blend-mode: normal"><path d="M221.20006,201.8v-43.6h37.6v43.6z" fill="none" stroke-width="0"/><path d="M227.36204,182.89769v-14.86462c0,-1.01673 0.29146,-1.80978 0.87439,-2.37916c0.58293,-0.56936 1.32853,-0.85403 2.23681,-0.85403c0.93539,0 1.68777,0.28468 2.25714,0.85403c0.58293,0.55583 0.87439,1.34888 0.87439,2.37916v14.53926c0,1.28785 0.25757,2.4537 0.77271,3.49754c0.51514,1.03029 1.26075,1.85045 2.23681,2.46048c0.98962,0.61005 2.12158,0.91507 3.39588,0.91507c1.85723,0 3.38233,-0.67782 4.57529,-2.03345c1.20652,-1.35565 1.80978,-2.96886 1.80978,-4.83964v-14.53926c0,-1.01673 0.29146,-1.80978 0.87439,-2.37916c0.58293,-0.56936 1.32853,-0.85403 2.23681,-0.85403c0.93539,0 1.68777,0.28468 2.25714,0.85403c0.58293,0.55583 0.87439,1.34888 0.87439,2.37916v14.86462c0,1.7081 -0.32535,3.31453 -0.97606,4.81929c-0.65071,1.4912 -1.55899,2.79939 -2.72484,3.92457c-1.16585,1.12518 -2.51471,1.99957 -4.04659,2.62316c-1.53188,0.62361 -3.15864,0.93541 -4.88031,0.93541c-2.29103,0 -4.40583,-0.5287 -6.3444,-1.5861c-1.93857,-1.07097 -3.47722,-2.54183 -4.61596,-4.41261c-1.12518,-1.88435 -1.68777,-3.98559 -1.68777,-6.30373z" fill="#ff0000" stroke-width="0.40889"/></g></g></svg>