<svg version="1.1" xmlns="http://www.w3.org/2000/svg" xmlns:xlink="http://www.w3.org/1999/xlink" width="74.03964" height="74.03964" viewBox="0,0,74.03964,74.03964"><defs><radialGradient cx="284.98221" cy="175.01654" r="37.01739" gradientUnits="userSpaceOnUse" id="color-1"><stop offset="0" stop-color="#000000" stop-opacity="0.63137"/><stop offset="1" stop-color="#000000" stop-opacity="0"/></radialGradient><linearGradient x1="288.37614" y1="211.878" x2="281.58826" y2="138.15504" gradientUnits="userSpaceOnUse" id="color-2"><stop offset="0" stop-color="#ff5454"/><stop offset="1" stop-color="#eb0000"/></linearGradient><linearGradient x1="273.8369" y1="148.15861" x2="285.95567" y2="205.62335" gradientUnits="userSpaceOnUse" id="color-3"><stop offset="0" stop-color="#929292"/><stop offset="1" stop-color="#000000"/></linearGradient><linearGradient x1="265.60758" y1="181.63208" x2="290.36575" y2="175.6699" gradientUnits="userSpaceOnUse" id="color-4"><stop offset="0" stop-color="#c40000"/><stop offset="1" stop-color="#ff4141"/></linearGradient><linearGradient x1="292.0741" y1="141.31411" x2="305.67089" y2="205.7873" gradientUnits="userSpaceOnUse" id="color-5"><stop offset="0" stop-color="#929292"/><stop offset="1" stop-color="#000000"/></linearGradient><linearGradient x1="295.79826" y1="174.08698" x2="312.0268" y2="170.51705" gradientUnits="userSpaceOnUse" id="color-6"><stop offset="0" stop-color="#da0000"/><stop offset="1" stop-color="#ff4343"/></linearGradient><linearGradient x1="293.84499" y1="173.17832" x2="304.72181" y2="170.8845" gradientUnits="userSpaceOnUse" id="color-7"><stop offset="0" stop-color="#000000" stop-opacity="0.38824"/><stop offset="1" stop-color="#000000" stop-opacity="0"/></linearGradient><linearGradient x1="305.73477" y1="175.67205" x2="312.36597" y2="174.575" gradientUnits="userSpaceOnUse" id="color-8"><stop offset="0" stop-color="#ffffff" stop-opacity="0"/><stop offset="1" stop-color="#ffffff" stop-opacity="0.80784"/></linearGradient><linearGradient x1="256.53608" y1="166.63438" x2="277.95442" y2="170.1336" gradientUnits="userSpaceOnUse" id="color-9"><stop offset="0" stop-color="#eb0000"/><stop offset="1" stop-color="#ff5454"/></linearGradient><linearGradient x1="263.00001" y1="191.32578" x2="284.41836" y2="194.82501" gradientUnits="userSpaceOnUse" id="color-10"><stop offset="0" stop-color="#eb0000"/><stop offset="1" stop-color="#ff5454"/></linearGradient></defs><g transform="translate(-247.96237,-137.99674)"><g data-paper-data="{&quot;isPaintingLayer&quot;:true}" fill-rule="nonzero" stroke-width="0" stroke-linecap="butt" stroke-linejoin="miter" stroke-miterlimit="10" stroke-dasharray="" stroke-dashoffset="0" style="mix-blend-mode: normal"><path d="M281.58825,138.15508c20.35803,-1.87442 38.381,13.1095 40.25542,33.46754c1.87442,20.35804 -13.10952,38.381 -33.46754,40.25542c-20.35803,1.87442 -38.381,-13.10951 -40.25542,-33.46754c-1.87442,-20.35803 13.10952,-38.381 33.46754,-40.25542z" data-paper-data="{&quot;index&quot;:null}" fill="url(#color-1)" stroke="url(#color-2)"/><g stroke="none"><path d="M293.46569,144.01907l12.61786,57.3595l-35.11505,0.391c0,0 -7.48007,-3.4994 -10.71839,-18.35437c-2.85192,-13.08254 1.60891,-23.05638 1.60891,-23.05638z" data-paper-data="{&quot;index&quot;:null}" fill="url(#color-3)"/><path d="M278.19845,205.96386l-9.84564,-12.93214l-5.82562,-25.94432l4.68751,-13.20621l18.12852,0.93245l1.1775,5.58347l-14.24358,0.89024l-1.84969,11.55674l2.93117,13.98189l6.72157,10.24679l12.48715,-5.49835l1.22665,5.81653z" fill="url(#color-4)"/><path d="M305.9371,205.73087c-7.86217,1.73318 -17.39862,-11.26933 -21.30031,-29.04194c-3.90167,-17.77261 -0.69107,-33.5852 7.17109,-35.31839c7.86217,-1.73318 17.39863,11.26935 21.30031,29.04195c3.90167,17.77261 0.69106,33.58518 -7.1711,35.31838z" data-paper-data="{&quot;index&quot;:null}" fill="url(#color-5)"/><path d="M309.48285,197.62413c-4.48138,0.98581 -10.60819,-9.55213 -13.6846,-23.53714c-3.07641,-13.98502 -1.93745,-26.12127 2.54395,-27.10709c4.48138,-0.98581 10.60818,9.55213 13.68459,23.53715c3.07641,13.98502 1.93744,26.12127 -2.54395,27.10708z" data-paper-data="{&quot;index&quot;:null}" fill="url(#color-6)"/><path d="M304.32769,198.9366l-8.11414,-19.63189l-2.66527,-16.61721c0,0 -0.32553,-8.36941 0.96577,-11.68276c1.92495,-4.9392 5.00798,-4.61673 5.00798,-4.61673l10.98768,51.94149z" fill="url(#color-7)"/><path d="M312.8612,174.64388c1.39821,8.45149 1.00132,15.87852 -0.82984,16.18146c-1.83116,0.30294 -4.89839,-6.70179 -6.2966,-15.15328c-1.39821,-8.45149 -0.69849,-16.84603 1.13268,-17.14897c1.83116,-0.30294 4.59555,7.66931 5.99376,16.1208z" fill="url(#color-8)"/></g><path d="M256.53608,166.63438c0.96629,-5.91451 6.54427,-9.92584 12.45878,-8.95955c5.91451,0.96628 9.92584,6.54427 8.95955,12.45878c-0.96629,5.91451 -6.54427,9.92584 -12.45878,8.95956c-5.91451,-0.96628 -9.92584,-6.54428 -8.95955,-12.45878z" fill="url(#color-9)" stroke="#000000"/><path d="M263.00001,191.32578c0.96629,-5.9145 6.54427,-9.92585 12.45878,-8.95956c5.91451,0.96628 9.92585,6.54427 8.95956,12.45879c-0.96629,5.9145 -6.54427,9.92584 -12.45879,8.95955c-5.91451,-0.96628 -9.92584,-6.54427 -8.95956,-12.45878z" fill="url(#color-10)" stroke="#000000"/></g></g></svg>