<svg version="1.1" xmlns="http://www.w3.org/2000/svg" xmlns:xlink="http://www.w3.org/1999/xlink" width="174.92042" height="123.3933" viewBox="0,0,174.92042,123.3933"><defs><linearGradient x1="200.30391" y1="111.78103" x2="248.0928" y2="161.2773" gradientUnits="userSpaceOnUse" id="color-1"><stop offset="0" stop-color="#ffffff"/><stop offset="1" stop-color="#dcd0e8"/></linearGradient><linearGradient x1="223.01036" y1="94.68551" x2="269.88978" y2="113.75477" gradientUnits="userSpaceOnUse" id="color-2"><stop offset="0" stop-color="#dcd0e8"/><stop offset="1" stop-color="#ffffff"/></linearGradient><linearGradient x1="117.38078" y1="146.71251" x2="175.68364" y2="131.03288" gradientUnits="userSpaceOnUse" id="color-3"><stop offset="0" stop-color="#ffffff"/><stop offset="1" stop-color="#dcd0e8"/></linearGradient><linearGradient x1="193.11159" y1="187.46295" x2="260.17555" y2="97.47526" gradientUnits="userSpaceOnUse" id="color-4"><stop offset="0" stop-color="#f6f3f9"/><stop offset="1" stop-color="#e7def0"/></linearGradient><linearGradient x1="193.17723" y1="102.9422" x2="220.47945" y2="106.00973" gradientUnits="userSpaceOnUse" id="color-5"><stop offset="0" stop-color="#636363"/><stop offset="1" stop-color="#000000"/></linearGradient><linearGradient x1="121.82379" y1="70.63801" x2="132.29413" y2="103.11059" gradientUnits="userSpaceOnUse" id="color-6"><stop offset="0" stop-color="#000000"/><stop offset="1" stop-color="#636363"/></linearGradient><linearGradient x1="117.1171" y1="82.80213" x2="166.90117" y2="121.34747" gradientUnits="userSpaceOnUse" id="color-7"><stop offset="0" stop-color="#ffffff"/><stop offset="1" stop-color="#e9e0f2"/></linearGradient><linearGradient x1="120.23325" y1="104.75958" x2="120.80743" y2="109.27238" gradientUnits="userSpaceOnUse" id="color-8"><stop offset="0" stop-color="#ffffff"/><stop offset="1" stop-color="#000000"/></linearGradient><linearGradient x1="142.98086" y1="85.89056" x2="145.33268" y2="104.37446" gradientUnits="userSpaceOnUse" id="color-9"><stop offset="0" stop-color="#000000"/><stop offset="1" stop-color="#636363"/></linearGradient><linearGradient x1="175.27936" y1="68.0629" x2="174.03361" y2="101.31295" gradientUnits="userSpaceOnUse" id="color-10"><stop offset="0" stop-color="#ffffff"/><stop offset="1" stop-color="#dcd0e8"/></linearGradient><linearGradient x1="181.12427" y1="74.13789" x2="180.63225" y2="87.27077" gradientUnits="userSpaceOnUse" id="color-11"><stop offset="0" stop-color="#000000"/><stop offset="1" stop-color="#000000" stop-opacity="0"/></linearGradient><linearGradient x1="178.10669" y1="87.17613" x2="177.908" y2="92.4798" gradientUnits="userSpaceOnUse" id="color-12"><stop offset="0" stop-color="#000000"/><stop offset="1" stop-color="#000000" stop-opacity="0"/></linearGradient><linearGradient x1="185.92645" y1="87.72203" x2="185.59527" y2="96.56145" gradientUnits="userSpaceOnUse" id="color-13"><stop offset="0" stop-color="#000000"/><stop offset="1" stop-color="#000000" stop-opacity="0"/></linearGradient><linearGradient x1="187.89977" y1="85.23626" x2="187.65377" y2="91.80268" gradientUnits="userSpaceOnUse" id="color-14"><stop offset="0" stop-color="#000000"/><stop offset="1" stop-color="#000000" stop-opacity="0"/></linearGradient><linearGradient x1="139.84094" y1="134.34268" x2="174.7733" y2="119.78362" gradientUnits="userSpaceOnUse" id="color-15"><stop offset="0" stop-color="#ffffff"/><stop offset="1" stop-color="#eae2f1"/></linearGradient><linearGradient x1="230.88397" y1="150.30904" x2="269.45357" y2="113.21156" gradientUnits="userSpaceOnUse" id="color-16"><stop offset="0" stop-color="#ffffff"/><stop offset="1" stop-color="#dcd0e8"/></linearGradient></defs><g transform="translate(-107.76535,-64.86784)"><g data-paper-data="{&quot;isPaintingLayer&quot;:true}" fill-rule="nonzero" stroke-linejoin="miter" stroke-miterlimit="10" stroke-dasharray="" stroke-dashoffset="0" style="mix-blend-mode: normal"><path d="M247.79181,174.64327l-7.32774,-0.58424l-2.45665,-6.14721l-6.85291,-16.28744l-17.39281,6.77859l-12.06524,-6.65705l-10.50474,-16.11088l6.03,-17.79493l19.46987,-11.33076l21.27735,5.75973l11.21892,12.40234l0.82379,9.87101l6.5801,3.12879l-4.34586,24.59233z" fill="url(#color-1)" stroke="none" stroke-width="0" stroke-linecap="butt"/><path d="M246.86032,96.72009l13.10399,-9.71738l11.41573,-12.63166l-3.21991,21.3623l-9.82605,14.84102l-19.34727,10.19966l-10.33728,-3.38856l-3.46879,-11.81187z" data-paper-data="{&quot;index&quot;:null}" fill="url(#color-2)" stroke="none" stroke-width="0" stroke-linecap="butt"/><path d="M115.70083,181.38905l-3.46375,-8.38663l3.57257,-7.74213l19.08631,-20.71708l9.59401,-18.35479l7.97538,-10.22975l12.50403,17.37751l-8.69906,22.15178l-27.56001,25.57626z" fill="url(#color-3)" stroke="none" stroke-width="0" stroke-linecap="butt"/><path d="M220.47621,156.55711l-35.13484,-6.43993l-42.41575,-14.99658l18.85305,-33.36317l41.32449,2.96848l48.42756,0.33209l17.63954,30.34791z" fill="url(#color-4)" stroke="none" stroke-width="0" stroke-linecap="butt"/><path d="M206.81059,116.53159l-18.20168,-12.88367l17.74081,-0.75668l13.88138,1.66767z" fill="url(#color-5)" stroke="none" stroke-width="0" stroke-linecap="butt"/><path d="M122.55494,106.25085l-11.76979,-9.30763l-0.26405,-22.66081l17.86637,-4.87239l13.44516,2.74277l3.37218,22.81175z" fill="url(#color-6)" stroke="none" stroke-width="0" stroke-linecap="butt"/><path d="M115.68306,131.07029l-7.91771,-13.10227l1.65543,-12.08746l9.90176,-4.0447l-3.17567,-13.31918l6.19073,-12.45717l20.2471,-11.19167l22.52607,3.34182l15.8416,14.30848l-3.82772,25.62501l-9.12024,9.64595l-15.67399,11.74672l-16.56457,3.49113z" fill="url(#color-7)" stroke="none" stroke-width="0" stroke-linecap="butt"/><path d="M127.5187,103.45044l3.45263,9.11457l-9.44279,3.87655l-9.36054,-1.48408l1.06016,-9.68876z" data-paper-data="{&quot;index&quot;:null}" fill="#000000" stroke="none" stroke-width="0" stroke-linecap="butt"/><path d="M114.60234,110.0619l0.17794,-4.6085l10.90593,-1.38763l-0.17794,4.6085z" fill="url(#color-8)" stroke="none" stroke-width="0" stroke-linecap="butt"/><path d="M141.14621,104.90716l-7.19384,-9.68391l8.16143,-9.22237l11.42066,2.54336l-0.03678,12.2882z" data-paper-data="{&quot;index&quot;:null}" fill="url(#color-9)" stroke="none" stroke-width="0" stroke-linecap="butt"/><path d="M128.99601,96.15236l-2.85409,3.88987l-4.99822,0.25168l-1.53846,-5.79385l5.01404,-2.71795z" data-paper-data="{&quot;index&quot;:null}" fill="#000000" stroke="none" stroke-width="0" stroke-linecap="butt"/><path d="M160.02976,96.99463l-2.93673,-22.87188l12.19855,-6.28417l21.03429,0.19488l4.12918,21.56542l-9.56428,12.12084z" data-paper-data="{&quot;index&quot;:null}" fill="url(#color-10)" stroke="none" stroke-width="0" stroke-linecap="butt"/><path d="M122.63604,121.14128l-1.3946,-6.95612" fill="none" stroke="#000000" stroke-width="1.5" stroke-linecap="round"/><path d="M175.92505,81.27748l5.3255,-7.13485l4.59983,5.48343l-5.59697,7.6305z" data-paper-data="{&quot;index&quot;:null}" fill="url(#color-11)" stroke="none" stroke-width="0" stroke-linecap="butt"/><path d="M174.75105,92.36152l2.4717,-5.2185l3.84217,5.45505z" fill="url(#color-12)" stroke="none" stroke-width="0" stroke-linecap="butt"/><path d="M181.44702,95.90023l0.73221,-6.0424l4.28981,1.46919l3.62457,-3.44886l-0.79414,6.06624l-3.07279,2.64071z" fill="url(#color-13)" stroke="none" stroke-width="0" stroke-linecap="butt"/><path d="M184.37054,91.67967l5.04456,-6.38665l1.5881,4.86478z" fill="url(#color-14)" stroke="none" stroke-width="0" stroke-linecap="butt"/><path d="M139.18628,188.26114l-6.34205,-5.75348l5.59477,-12.79497l22.3725,-25.06274l1.47274,-17.05092l1.72445,-9.37637l10.88178,-3.28335l9.32686,18.76488l-1.42855,22.27041l-20.26799,24.39842z" fill="url(#color-15)" stroke="none" stroke-width="0" stroke-linecap="butt"/><path d="M276.0384,168.64543l-7.32662,-0.59819l-2.44494,-6.15187l-9.04486,-14.89583l-17.40569,6.74545l-12.05254,-6.68002l-10.47403,-16.13085l4.52627,-19.38204l21.02902,-9.69504l21.26636,5.80023l11.19529,12.42369l0.80499,9.87256l6.57412,3.14131l-1.64265,24.77279z" fill="url(#color-16)" stroke="none" stroke-width="0" stroke-linecap="butt"/></g></g></svg>