<svg version="1.1" xmlns="http://www.w3.org/2000/svg" xmlns:xlink="http://www.w3.org/1999/xlink" width="65.59774" height="65.59774" viewBox="0,0,65.59774,65.59774"><defs><radialGradient cx="237.50003" cy="180" r="32.79887" gradientUnits="userSpaceOnUse" id="color-1"><stop offset="0" stop-color="#000000"/><stop offset="1" stop-color="#000000" stop-opacity="0"/></radialGradient><linearGradient x1="210.66672" y1="180.00001" x2="238.09862" y2="180.00001" gradientUnits="userSpaceOnUse" id="color-2"><stop offset="0" stop-color="#c99c9c"/><stop offset="1" stop-color="#ffffff"/></linearGradient><linearGradient x1="236.90148" y1="180.00001" x2="264.33339" y2="180.00001" gradientUnits="userSpaceOnUse" id="color-3"><stop offset="0" stop-color="#ff0000"/><stop offset="1" stop-color="#ff5c5c"/></linearGradient><linearGradient x1="224.04187" y1="166.54987" x2="250.95823" y2="166.54987" gradientUnits="userSpaceOnUse" id="color-4"><stop offset="0" stop-color="#de0000"/><stop offset="1" stop-color="#ff2727"/></linearGradient><linearGradient x1="224.04186" y1="193.2835" x2="250.95822" y2="193.2835" gradientUnits="userSpaceOnUse" id="color-5"><stop offset="0" stop-color="#e8d4d4"/><stop offset="1" stop-color="#ffffff"/></linearGradient><linearGradient x1="231.70007" y1="193.00003" x2="243.30007" y2="193.00003" gradientUnits="userSpaceOnUse" id="color-6"><stop offset="0" stop-color="#df0101"/><stop offset="1" stop-color="#ff0000"/></linearGradient></defs><g transform="translate(-204.70115,-147.20113)"><g data-paper-data="{&quot;isPaintingLayer&quot;:true}" fill-rule="nonzero" stroke-linejoin="miter" stroke-miterlimit="10" stroke-dasharray="" stroke-dashoffset="0" style="mix-blend-mode: normal"><path d="M204.70115,180c0,-18.11432 14.68456,-32.79887 32.79887,-32.79887c18.11432,0 32.79887,14.68456 32.79887,32.79887c0,18.11432 -14.68456,32.79887 -32.79887,32.79887c-18.11432,0 -32.79887,-14.68456 -32.79887,-32.79887z" fill="url(#color-1)" stroke="#000000" stroke-width="0" stroke-linecap="butt"/><g data-paper-data="{&quot;index&quot;:null}" stroke="none" stroke-width="0" stroke-linecap="butt"><path d="M237.50005,206.83335c-14.81964,0 -26.83333,-12.0137 -26.83333,-26.83334c0,-14.81964 12.01369,-26.83334 26.83333,-26.83334c0.17764,0 0.35488,0.00173 0.5317,0.00517c-0.02522,0.14374 -0.0522,0.28658 -0.0817,0.42817c-1.10011,5.28054 -0.53157,10.48428 0,15.8c0.37382,3.73821 -0.4623,8.41663 -0.4623,12.04099c0,3.86281 0.57042,7.25068 0.4623,11.35901c-0.09998,3.79927 -0.4916,7.61062 -0.2,11.4c0,0.90903 0.12129,1.78973 0.34857,2.62679c-0.199,0.00436 -0.39853,0.00655 -0.59857,0.00655z" fill="url(#color-2)"/><path d="M237.50005,153.16668c14.81964,0 26.83334,12.0137 26.83334,26.83334c0,14.81964 -12.0137,26.83334 -26.83334,26.83334c-0.17764,0 -0.35488,-0.00173 -0.5317,-0.00517c0.02522,-0.14374 0.0522,-0.28658 0.0817,-0.42817c1.10011,-5.28054 0.53157,-10.48428 0,-15.8c-0.37382,-3.73821 0.4623,-8.41663 0.4623,-12.04099c0,-3.86281 -0.57042,-7.25068 -0.4623,-11.35902c0.09998,-3.79927 0.4916,-7.61062 0.2,-11.4c0,-0.90903 -0.12129,-1.78973 -0.34857,-2.62679c0.199,-0.00436 0.39853,-0.00655 0.59857,-0.00655z" data-paper-data="{&quot;index&quot;:null}" fill="url(#color-3)"/><path d="M250.95823,166.54987c0,7.43275 -6.02543,13.45819 -13.45818,13.45819c-7.43275,0 -13.45818,-6.02544 -13.45818,-13.45819c0,-7.43275 6.02543,-13.45818 13.45818,-13.45818c7.43275,0 13.45818,6.02543 13.45818,13.45818z" fill="url(#color-4)"/><path d="M224.04186,193.2835c0,-7.43275 6.02543,-13.45819 13.45818,-13.45819c7.43275,0 13.45818,6.02544 13.45818,13.45819c0,7.43275 -6.02543,13.45818 -13.45818,13.45818c-7.43275,0 -13.45818,-6.02543 -13.45818,-13.45818z" fill="url(#color-5)"/><path d="M243.30007,193.00003c0,3.20325 -2.59675,5.8 -5.8,5.8c-3.20325,0 -5.8,-2.59675 -5.8,-5.8c0,-3.20325 2.59675,-5.8 5.8,-5.8c3.20325,0 5.8,2.59675 5.8,5.8z" fill="url(#color-6)"/><path d="M243.30007,167.00001c0,3.20325 -2.59675,5.8 -5.8,5.8c-3.20325,0 -5.8,-2.59675 -5.8,-5.8c0,-3.20325 2.59675,-5.8 5.8,-5.8c3.20325,0 5.8,2.59675 5.8,5.8z" fill="#fff1f1"/></g><path d="M246.16392,190.6726c0,-2.44128 1.97905,-4.42033 4.42033,-4.42033c2.44128,0 4.42033,1.97905 4.42033,4.42033c0,2.44128 -1.97905,4.42033 -4.42033,4.42033c-2.44128,0 -4.42033,-1.97905 -4.42033,-4.42033z" fill="#000000" stroke="#000000" stroke-width="0" stroke-linecap="butt"/><path d="M246.21315,169.32742c0,-2.44128 1.97905,-4.42033 4.42033,-4.42033c2.44128,0 4.42033,1.97905 4.42033,4.42033c0,2.44128 -1.97905,4.42033 -4.42033,4.42033c-2.44128,0 -4.42033,-1.97905 -4.42033,-4.42033z" fill="#000000" stroke="#000000" stroke-width="0" stroke-linecap="butt"/><path d="M257.23932,191.00074v-22.27848" fill="none" stroke="#000000" stroke-width="2" stroke-linecap="round"/></g></g></svg>