<svg version="1.1" xmlns="http://www.w3.org/2000/svg" xmlns:xlink="http://www.w3.org/1999/xlink" width="63" height="419.23728" viewBox="0,0,63,419.23728"><defs><radialGradient cx="240.00001" cy="2.67303" r="31.5" gradientUnits="userSpaceOnUse" id="color-1"><stop offset="0" stop-color="#000000" stop-opacity="0.30196"/><stop offset="1" stop-color="#000000" stop-opacity="0"/></radialGradient><radialGradient cx="240.00001" cy="275.42303" r="31.5" gradientUnits="userSpaceOnUse" id="color-2"><stop offset="0" stop-color="#000000" stop-opacity="0.30196"/><stop offset="1" stop-color="#000000" stop-opacity="0"/></radialGradient><radialGradient cx="240.00001" cy="329.92303" r="31.5" gradientUnits="userSpaceOnUse" id="color-3"><stop offset="0" stop-color="#000000" stop-opacity="0.30196"/><stop offset="1" stop-color="#000000" stop-opacity="0"/></radialGradient><radialGradient cx="240.00001" cy="112.67303" r="31.5" gradientUnits="userSpaceOnUse" id="color-4"><stop offset="0" stop-color="#000000" stop-opacity="0.30196"/><stop offset="1" stop-color="#000000" stop-opacity="0"/></radialGradient><radialGradient cx="240.00001" cy="55.67303" r="31.5" gradientUnits="userSpaceOnUse" id="color-5"><stop offset="0" stop-color="#000000" stop-opacity="0.30196"/><stop offset="1" stop-color="#000000" stop-opacity="0"/></radialGradient><radialGradient cx="240.00001" cy="224.17303" r="31.5" gradientUnits="userSpaceOnUse" id="color-6"><stop offset="0" stop-color="#000000" stop-opacity="0.30196"/><stop offset="1" stop-color="#000000" stop-opacity="0"/></radialGradient><radialGradient cx="240.00001" cy="167.17303" r="31.5" gradientUnits="userSpaceOnUse" id="color-7"><stop offset="0" stop-color="#000000" stop-opacity="0.30196"/><stop offset="1" stop-color="#000000" stop-opacity="0"/></radialGradient><radialGradient cx="240.00001" cy="31.66031" r="31.5" gradientUnits="userSpaceOnUse" id="color-8"><stop offset="0" stop-color="#000000" stop-opacity="0.30196"/><stop offset="1" stop-color="#000000" stop-opacity="0"/></radialGradient><radialGradient cx="240.00001" cy="304.41031" r="31.5" gradientUnits="userSpaceOnUse" id="color-9"><stop offset="0" stop-color="#000000" stop-opacity="0.30196"/><stop offset="1" stop-color="#000000" stop-opacity="0"/></radialGradient><radialGradient cx="240.00001" cy="358.91031" r="31.5" gradientUnits="userSpaceOnUse" id="color-10"><stop offset="0" stop-color="#000000" stop-opacity="0.30196"/><stop offset="1" stop-color="#000000" stop-opacity="0"/></radialGradient><radialGradient cx="240.00001" cy="141.66031" r="31.5" gradientUnits="userSpaceOnUse" id="color-11"><stop offset="0" stop-color="#000000" stop-opacity="0.30196"/><stop offset="1" stop-color="#000000" stop-opacity="0"/></radialGradient><radialGradient cx="240.00001" cy="84.66031" r="31.5" gradientUnits="userSpaceOnUse" id="color-12"><stop offset="0" stop-color="#000000" stop-opacity="0.30196"/><stop offset="1" stop-color="#000000" stop-opacity="0"/></radialGradient><radialGradient cx="240.00001" cy="253.16031" r="31.5" gradientUnits="userSpaceOnUse" id="color-13"><stop offset="0" stop-color="#000000" stop-opacity="0.30196"/><stop offset="1" stop-color="#000000" stop-opacity="0"/></radialGradient><radialGradient cx="240.00001" cy="196.16031" r="31.5" gradientUnits="userSpaceOnUse" id="color-14"><stop offset="0" stop-color="#000000" stop-opacity="0.30196"/><stop offset="1" stop-color="#000000" stop-opacity="0"/></radialGradient><linearGradient x1="225.83334" y1="180" x2="254.16667" y2="180" gradientUnits="userSpaceOnUse" id="color-15"><stop offset="0" stop-color="#000000"/><stop offset="1" stop-color="#ffffff"/></linearGradient><linearGradient x1="225.83335" y1="125" x2="254.16668" y2="125" gradientUnits="userSpaceOnUse" id="color-16"><stop offset="0" stop-color="#ffffff"/><stop offset="1" stop-color="#000000"/></linearGradient><linearGradient x1="225.83335" y1="70.16667" x2="254.16668" y2="70.16667" gradientUnits="userSpaceOnUse" id="color-17"><stop offset="0" stop-color="#000000"/><stop offset="1" stop-color="#ffffff"/></linearGradient><linearGradient x1="225.83335" y1="15.16667" x2="254.16668" y2="15.16667" gradientUnits="userSpaceOnUse" id="color-18"><stop offset="0" stop-color="#ffffff"/><stop offset="1" stop-color="#000000"/></linearGradient><linearGradient x1="225.83335" y1="346.41667" x2="254.16668" y2="346.41667" gradientUnits="userSpaceOnUse" id="color-19"><stop offset="0" stop-color="#ffffff"/><stop offset="1" stop-color="#000000"/></linearGradient><linearGradient x1="225.83335" y1="291.58333" x2="254.16668" y2="291.58333" gradientUnits="userSpaceOnUse" id="color-20"><stop offset="0" stop-color="#000000"/><stop offset="1" stop-color="#ffffff"/></linearGradient><linearGradient x1="225.83335" y1="236.58333" x2="254.16668" y2="236.58333" gradientUnits="userSpaceOnUse" id="color-21"><stop offset="0" stop-color="#ffffff"/><stop offset="1" stop-color="#000000"/></linearGradient><linearGradient x1="235" y1="179.5" x2="245" y2="179.5" gradientUnits="userSpaceOnUse" id="color-22"><stop offset="0" stop-color="#000000"/><stop offset="1" stop-color="#ffffff"/></linearGradient></defs><g transform="translate(-208.50001,28.82697)"><g data-paper-data="{&quot;isPaintingLayer&quot;:true}" fill-rule="nonzero" stroke-linejoin="miter" stroke-miterlimit="10" stroke-dasharray="" stroke-dashoffset="0" style="mix-blend-mode: normal"><g stroke="none" stroke-width="0" stroke-linecap="butt"><path d="M240.00001,34.17303c-17.39697,0 -31.5,-14.10303 -31.5,-31.5c0,-17.39697 14.10303,-31.5 31.5,-31.5c17.39697,0 31.5,14.10303 31.5,31.5c0,17.39697 -14.10303,31.5 -31.5,31.5z" fill="url(#color-1)"/><path d="M240.00001,306.92303c-17.39697,0 -31.5,-14.10303 -31.5,-31.5c0,-17.39697 14.10303,-31.5 31.5,-31.5c17.39697,0 31.5,14.10303 31.5,31.5c0,17.39697 -14.10303,31.5 -31.5,31.5z" fill="url(#color-2)"/><path d="M240.00001,361.42303c-17.39697,0 -31.5,-14.10303 -31.5,-31.5c0,-17.39697 14.10303,-31.5 31.5,-31.5c17.39697,0 31.5,14.10303 31.5,31.5c0,17.39697 -14.10303,31.5 -31.5,31.5z" fill="url(#color-3)"/><path d="M240.00001,144.17303c-17.39697,0 -31.5,-14.10303 -31.5,-31.5c0,-17.39697 14.10303,-31.5 31.5,-31.5c17.39697,0 31.5,14.10303 31.5,31.5c0,17.39697 -14.10303,31.5 -31.5,31.5z" fill="url(#color-4)"/><path d="M240.00001,87.17303c-17.39697,0 -31.5,-14.10303 -31.5,-31.5c0,-17.39697 14.10303,-31.5 31.5,-31.5c17.39697,0 31.5,14.10303 31.5,31.5c0,17.39697 -14.10303,31.5 -31.5,31.5z" fill="url(#color-5)"/><path d="M240.00001,255.67303c-17.39697,0 -31.5,-14.10303 -31.5,-31.5c0,-17.39697 14.10303,-31.5 31.5,-31.5c17.39697,0 31.5,14.10303 31.5,31.5c0,17.39697 -14.10303,31.5 -31.5,31.5z" fill="url(#color-6)"/><path d="M240.00001,198.67303c-17.39697,0 -31.5,-14.10303 -31.5,-31.5c0,-17.39697 14.10303,-31.5 31.5,-31.5c17.39697,0 31.5,14.10303 31.5,31.5c0,17.39697 -14.10303,31.5 -31.5,31.5z" fill="url(#color-7)"/></g><g stroke="none" stroke-width="0" stroke-linecap="butt"><path d="M240.00001,63.16031c-17.39697,0 -31.5,-14.10303 -31.5,-31.5c0,-17.39697 14.10303,-31.5 31.5,-31.5c17.39697,0 31.5,14.10303 31.5,31.5c0,17.39697 -14.10303,31.5 -31.5,31.5z" fill="url(#color-8)"/><path d="M240.00001,335.91031c-17.39697,0 -31.5,-14.10303 -31.5,-31.5c0,-17.39697 14.10303,-31.5 31.5,-31.5c17.39697,0 31.5,14.10303 31.5,31.5c0,17.39697 -14.10303,31.5 -31.5,31.5z" fill="url(#color-9)"/><path d="M240.00001,390.41031c-17.39697,0 -31.5,-14.10303 -31.5,-31.5c0,-17.39697 14.10303,-31.5 31.5,-31.5c17.39697,0 31.5,14.10303 31.5,31.5c0,17.39697 -14.10303,31.5 -31.5,31.5z" fill="url(#color-10)"/><path d="M240.00001,173.16031c-17.39697,0 -31.5,-14.10303 -31.5,-31.5c0,-17.39697 14.10303,-31.5 31.5,-31.5c17.39697,0 31.5,14.10303 31.5,31.5c0,17.39697 -14.10303,31.5 -31.5,31.5z" fill="url(#color-11)"/><path d="M240.00001,116.16031c-17.39697,0 -31.5,-14.10303 -31.5,-31.5c0,-17.39697 14.10303,-31.5 31.5,-31.5c17.39697,0 31.5,14.10303 31.5,31.5c0,17.39697 -14.10303,31.5 -31.5,31.5z" fill="url(#color-12)"/><path d="M240.00001,284.66031c-17.39697,0 -31.5,-14.10303 -31.5,-31.5c0,-17.39697 14.10303,-31.5 31.5,-31.5c17.39697,0 31.5,14.10303 31.5,31.5c0,17.39697 -14.10303,31.5 -31.5,31.5z" fill="url(#color-13)"/><path d="M240.00001,227.66031c-17.39697,0 -31.5,-14.10303 -31.5,-31.5c0,-17.39697 14.10303,-31.5 31.5,-31.5c17.39697,0 31.5,14.10303 31.5,31.5c0,17.39697 -14.10303,31.5 -31.5,31.5z" fill="url(#color-14)"/></g><g fill="none" stroke-width="5" stroke-linecap="round"><path d="M225.83334,180h28.33333" stroke="url(#color-15)"/><path d="M254.16668,125h-28.33333" stroke="url(#color-16)"/><path d="M254.16668,70.16667h-28.33333" stroke="url(#color-17)"/><path d="M225.83335,15.16667h28.33333" stroke="url(#color-18)"/><path d="M225.83335,346.41667h28.33333" stroke="url(#color-19)"/><path d="M225.83335,291.58333h28.33333" stroke="url(#color-20)"/><path d="M225.83335,236.58333h28.33333" stroke="url(#color-21)"/></g><path d="M240,379v-398" fill="none" stroke="url(#color-22)" stroke-width="10" stroke-linecap="round"/></g></g></svg>