<svg version="1.1" xmlns="http://www.w3.org/2000/svg" xmlns:xlink="http://www.w3.org/1999/xlink" width="89.42618" height="132.12788" viewBox="0,0,89.42618,132.12788"><defs><radialGradient cx="221.16625" cy="88.41832" r="26.05926" gradientUnits="userSpaceOnUse" id="color-1"><stop offset="0" stop-color="#000000" stop-opacity="0.30588"/><stop offset="1" stop-color="#000000" stop-opacity="0"/></radialGradient><linearGradient x1="236.55167" y1="109.45103" x2="205.78086" y2="67.38563" gradientUnits="userSpaceOnUse" id="color-2"><stop offset="0" stop-color="#ff5454"/><stop offset="1" stop-color="#eb0000"/></linearGradient><radialGradient cx="245.60071" cy="122.53563" r="26.05927" gradientUnits="userSpaceOnUse" id="color-3"><stop offset="0" stop-color="#000000" stop-opacity="0.30588"/><stop offset="1" stop-color="#000000" stop-opacity="0"/></radialGradient><linearGradient x1="260.98614" y1="143.56836" x2="230.21532" y2="101.50294" gradientUnits="userSpaceOnUse" id="color-4"><stop offset="0" stop-color="#ff5454"/><stop offset="1" stop-color="#eb0000"/></linearGradient><radialGradient cx="260.59412" cy="164.15925" r="23.93565" gradientUnits="userSpaceOnUse" id="color-5"><stop offset="0" stop-color="#000000" stop-opacity="0.63137"/><stop offset="1" stop-color="#000000" stop-opacity="0"/></radialGradient><linearGradient x1="274.72576" y1="183.47799" x2="246.46249" y2="144.84052" gradientUnits="userSpaceOnUse" id="color-6"><stop offset="0" stop-color="#ff5454"/><stop offset="1" stop-color="#eb0000"/></linearGradient><linearGradient x1="261.25141" y1="179.99769" x2="278.76756" y2="167.18463" gradientUnits="userSpaceOnUse" id="color-7"><stop offset="0" stop-color="#eb0000"/><stop offset="1" stop-color="#ff5454"/></linearGradient><linearGradient x1="260.22974" y1="141.38702" x2="205.7646" y2="66.93012" gradientUnits="userSpaceOnUse" id="color-8"><stop offset="0" stop-color="#333333"/><stop offset="1" stop-color="#cacaca"/></linearGradient><linearGradient x1="213.15361" y1="56.23447" x2="272.35576" y2="137.16711" gradientUnits="userSpaceOnUse" id="color-9"><stop offset="0" stop-color="#ff4c4c"/><stop offset="1" stop-color="#ec0000"/></linearGradient><linearGradient x1="209.26326" y1="59.88857" x2="267.84763" y2="139.97667" gradientUnits="userSpaceOnUse" id="color-10"><stop offset="0" stop-color="#e8e8e8"/><stop offset="1" stop-color="#9e9e9e"/></linearGradient><linearGradient x1="217.26434" y1="107.21273" x2="226.87584" y2="120.35219" gradientUnits="userSpaceOnUse" id="color-11"><stop offset="0" stop-color="#929292"/><stop offset="1" stop-color="#000000"/></linearGradient><linearGradient x1="251.94788" y1="149.37488" x2="274.41371" y2="180.08692" gradientUnits="userSpaceOnUse" id="color-12"><stop offset="0" stop-color="#929292"/><stop offset="1" stop-color="#000000"/></linearGradient><linearGradient x1="246.3905" y1="158.97668" x2="263.90668" y2="146.16363" gradientUnits="userSpaceOnUse" id="color-13"><stop offset="0" stop-color="#eb0000"/><stop offset="1" stop-color="#ff5454"/></linearGradient></defs><g transform="translate(-195.10526,-55.96862)"><g data-paper-data="{&quot;isPaintingLayer&quot;:true}" fill-rule="nonzero" stroke-linejoin="miter" stroke-miterlimit="10" stroke-dasharray="" stroke-dashoffset="0" style="mix-blend-mode: normal"><path d="M205.78089,67.38559c11.61604,-8.49711 27.92099,-5.96873 36.41811,5.6473c8.49711,11.61604 5.96873,27.921 -5.6473,36.41811c-11.61605,8.49711 -27.921,5.96874 -36.41812,-5.6473c-8.49711,-11.61604 -5.96872,-27.921 5.64731,-36.41811z" data-paper-data="{&quot;index&quot;:null}" fill="url(#color-1)" stroke="url(#color-2)" stroke-width="0" stroke-linecap="butt"/><path d="M230.21535,101.50291c11.61604,-8.49711 27.92099,-5.96872 36.41811,5.64731c8.49711,11.61604 5.96873,27.921 -5.6473,36.41811c-11.61605,8.49711 -27.921,5.96873 -36.41812,-5.6473c-8.49711,-11.61605 -5.96872,-27.92101 5.64731,-36.41812z" data-paper-data="{&quot;index&quot;:null}" fill="url(#color-3)" stroke="url(#color-4)" stroke-width="0" stroke-linecap="butt"/><path d="M246.46252,144.8405c10.66942,-7.80467 25.64566,-5.48234 33.45034,5.18709c7.80468,10.66943 5.48233,25.64566 -5.1871,33.45034c-10.66942,7.80467 -25.64566,5.48234 -33.45034,-5.18709c-7.80468,-10.66943 -5.48233,-25.64566 5.1871,-33.45034z" data-paper-data="{&quot;index&quot;:null}" fill="url(#color-5)" stroke="url(#color-6)" stroke-width="0" stroke-linecap="butt"/><path d="M263.60296,164.83307c4.83696,-3.53822 11.62638,-2.4854 15.16461,2.35155c3.53822,4.83696 2.4854,11.62638 -2.35155,15.16461c-4.83696,3.53822 -11.62638,2.4854 -15.16461,-2.35155c-3.53822,-4.83696 -2.4854,-11.62638 2.35155,-15.16461z" data-paper-data="{&quot;index&quot;:null}" fill="url(#color-7)" stroke="#000000" stroke-width="0" stroke-linecap="butt"/><g data-paper-data="{&quot;index&quot;:null}"><path d="M264.40099,138.3357l-8.71333,2.53185l-51.05274,-70.22962l5.30094,-6.75908z" data-paper-data="{&quot;index&quot;:null}" fill="url(#color-8)" stroke="none" stroke-width="0" stroke-linecap="butt"/><path d="M210.34139,58.29159l3.17562,-2.32297l4.15104,0.53565l55.79776,76.27867l-0.74666,4.11833l-3.17562,2.32297z" data-paper-data="{&quot;index&quot;:null}" fill="url(#color-9)" stroke="none" stroke-width="0" stroke-linecap="butt"/><path d="M207.69903,61.03281l3.12843,-2.28844l58.58436,80.08808l-3.12843,2.28844z" data-paper-data="{&quot;index&quot;:null}" fill="url(#color-10)" stroke="none" stroke-width="0" stroke-linecap="butt"/><path d="M253.15009,136.9609c0,0 -13.77774,-5.70453 -28.22602,-25.45613c-15.54149,-21.24608 -17.39045,-36.90412 -17.39045,-36.90412" data-paper-data="{&quot;index&quot;:null}" fill="none" stroke-opacity="0.53333" stroke="#000000" stroke-width="2" stroke-linecap="round"/><path d="M215.80113,96.40713l15.58838,10.36819l5.67393,18.2609" data-paper-data="{&quot;index&quot;:null}" fill="none" stroke-opacity="0.53333" stroke="#000000" stroke-width="2" stroke-linecap="round"/><path d="M244.40178,96.67629l-26.10278,-35.68395" data-paper-data="{&quot;index&quot;:null}" fill="none" stroke-opacity="0.34902" stroke="#ffffff" stroke-width="4.5" stroke-linecap="round"/><path d="M236.57818,84.33214l-15.68508,-21.44236" data-paper-data="{&quot;index&quot;:null}" fill="none" stroke-opacity="0.34902" stroke="#ffffff" stroke-width="2.5" stroke-linecap="round"/><path d="M229.79573,118.2163l-5.84945,0.75708l-6.10254,-8.34251l2.34048,-5.55402z" fill="url(#color-11)" stroke="none" stroke-width="0" stroke-linecap="butt"/><path d="M259.60281,138.83094c0,0 12.04118,12.07866 17.35153,26.08741c5.31035,14.00874 -0.47639,18.42937 -0.47639,18.42937l-30.22829,-41.29892l7.03454,-4.82533l-12.10048,-2.09594c0,0 -7.41658,2.15384 -14.33423,-6.74104c-6.38283,-8.20719 -5.80192,-13.37582 -5.80192,-13.37582" fill="none" stroke-opacity="0.51765" stroke="#000000" stroke-width="2" stroke-linecap="round"/><path d="M280.40601,176.0237c0,0 -1.73328,5.60983 -3.76706,7.03943c-1.59286,1.11968 -7.43932,0.83787 -7.43932,0.83787l-19.54595,-32.84792l5.49748,-4.30202z" fill="url(#color-12)" stroke="none" stroke-width="0" stroke-linecap="butt"/></g><path d="M246.39049,158.97669c-3.53822,-4.83696 -2.4854,-11.6264 2.35155,-15.16461c4.83697,-3.53823 11.62641,-2.48541 15.16462,2.35154c3.53823,4.83696 2.4854,11.62639 -2.35155,15.16462c-4.83695,3.53822 -11.6264,2.48539 -15.16461,-2.35156z" data-paper-data="{&quot;index&quot;:null}" fill="url(#color-13)" stroke="#000000" stroke-width="0" stroke-linecap="butt"/></g></g></svg>