<svg version="1.1" xmlns="http://www.w3.org/2000/svg" xmlns:xlink="http://www.w3.org/1999/xlink" width="247.58334" height="145.22101" viewBox="0,0,247.58334,145.22101"><defs><linearGradient x1="117.20838" y1="164" x2="364.79177" y2="164" gradientUnits="userSpaceOnUse" id="color-1"><stop offset="0" stop-color="#ff0000"/><stop offset="1" stop-color="#00b3ff"/></linearGradient></defs><g transform="translate(-117.20838,-91.38956)"><g data-paper-data="{&quot;isPaintingLayer&quot;:true}" fill="url(#color-1)" fill-rule="nonzero" stroke="none" stroke-width="0" stroke-linecap="butt" stroke-linejoin="miter" stroke-miterlimit="10" stroke-dasharray="" stroke-dashoffset="0" style="mix-blend-mode: normal"><path d="M124.92777,228.40872c-6.93467,-6.93397 -7.71939,-16.92381 -7.71939,-16.92381v-94.9564c0,0 0.9042,-10.36018 7.84,-17.29895c6.9358,-6.93877 17.28822,-7.84 17.28822,-7.84h197.32689c0,0 9.59833,0.45525 16.56453,7.35754c6.9662,6.9023 8.5637,17.54018 8.5637,17.54018v95.49911c0,0 -1.24546,10.36202 -8.20185,17.10479c-6.9564,6.74277 -17.40883,7.71939 -17.40883,7.71939h-196.84443c0,0 -10.47416,-1.26788 -17.40883,-8.20185z"/></g></g></svg>