<svg version="1.1" xmlns="http://www.w3.org/2000/svg" xmlns:xlink="http://www.w3.org/1999/xlink" width="88.32083" height="75.16036" viewBox="0,0,88.32083,75.16036"><defs><radialGradient cx="237" cy="181" r="37.58018" gradientUnits="userSpaceOnUse" id="color-1"><stop offset="0" stop-color="#000000" stop-opacity="0.75294"/><stop offset="1" stop-color="#000000" stop-opacity="0"/></radialGradient><linearGradient x1="284.60253" y1="185.01144" x2="192.56117" y2="179.12662" gradientUnits="userSpaceOnUse" id="color-2"><stop offset="0" stop-color="#ff2929"/><stop offset="1" stop-color="#d50000"/></linearGradient><linearGradient x1="211.56073" y1="153.55332" x2="198.76334" y2="152.7351" gradientUnits="userSpaceOnUse" id="color-3"><stop offset="0" stop-color="#ff0000"/><stop offset="1" stop-color="#930000"/></linearGradient><linearGradient x1="193.13886" y1="156.32834" x2="203.53204" y2="156.32834" gradientUnits="userSpaceOnUse" id="color-4"><stop offset="0" stop-color="#ff0000"/><stop offset="1" stop-color="#930000"/></linearGradient><linearGradient x1="204.02228" y1="161.31502" x2="198.14042" y2="160.93895" gradientUnits="userSpaceOnUse" id="color-5"><stop offset="0" stop-color="#d60000"/><stop offset="1" stop-color="#600000"/></linearGradient><linearGradient x1="208.96053" y1="166.67777" x2="203.07868" y2="166.3017" gradientUnits="userSpaceOnUse" id="color-6"><stop offset="0" stop-color="#ff0000"/><stop offset="1" stop-color="#930000"/></linearGradient><linearGradient x1="217.57016" y1="159.79967" x2="210.10748" y2="159.32253" gradientUnits="userSpaceOnUse" id="color-7"><stop offset="0" stop-color="#ff0000"/><stop offset="1" stop-color="#930000"/></linearGradient><radialGradient cx="209.28378" cy="159.24228" r="9.46864" gradientUnits="userSpaceOnUse" id="color-8"><stop offset="0" stop-color="#ff6060"/><stop offset="1" stop-color="#ff6060" stop-opacity="0"/></radialGradient><radialGradient cx="223.1571" cy="162.79994" r="5.9291" gradientUnits="userSpaceOnUse" id="color-9"><stop offset="0" stop-color="#ff6060"/><stop offset="1" stop-color="#ff6060" stop-opacity="0"/></radialGradient><linearGradient x1="284.79603" y1="173.35234" x2="190.25972" y2="182.73259" gradientUnits="userSpaceOnUse" id="color-10"><stop offset="0" stop-color="#ff2929"/><stop offset="1" stop-color="#d50000"/></linearGradient><linearGradient x1="210.70667" y1="207.40723" x2="197.56237" y2="208.71145" gradientUnits="userSpaceOnUse" id="color-11"><stop offset="0" stop-color="#ff0000"/><stop offset="1" stop-color="#930000"/></linearGradient><linearGradient x1="192.17302" y1="203.87065" x2="202.8595" y2="203.87065" gradientUnits="userSpaceOnUse" id="color-12"><stop offset="0" stop-color="#ff0000"/><stop offset="1" stop-color="#930000"/></linearGradient><linearGradient x1="202.67694" y1="199.98632" x2="196.63565" y2="200.58577" gradientUnits="userSpaceOnUse" id="color-13"><stop offset="0" stop-color="#d60000"/><stop offset="1" stop-color="#600000"/></linearGradient><linearGradient x1="207.57339" y1="194.4694" x2="201.5321" y2="195.06884" gradientUnits="userSpaceOnUse" id="color-14"><stop offset="0" stop-color="#ff0000"/><stop offset="1" stop-color="#930000"/></linearGradient><linearGradient x1="216.67496" y1="200.97142" x2="209.00999" y2="201.73197" gradientUnits="userSpaceOnUse" id="color-15"><stop offset="0" stop-color="#ff0000"/><stop offset="1" stop-color="#930000"/></linearGradient><radialGradient cx="208.27492" cy="201.69932" r="9.75359" gradientUnits="userSpaceOnUse" id="color-16"><stop offset="0" stop-color="#ff6060"/><stop offset="1" stop-color="#ff6060" stop-opacity="0"/></radialGradient><radialGradient cx="222.32136" cy="197.77645" r="6.10754" gradientUnits="userSpaceOnUse" id="color-17"><stop offset="0" stop-color="#ff6060"/><stop offset="1" stop-color="#ff6060" stop-opacity="0"/></radialGradient><linearGradient x1="271.55107" y1="180.00235" x2="203.73222" y2="180.00235" gradientUnits="userSpaceOnUse" id="color-18"><stop offset="0" stop-color="#ff2929"/><stop offset="1" stop-color="#d50000"/></linearGradient><radialGradient cx="261.03722" cy="179.16591" r="13.99193" gradientUnits="userSpaceOnUse" id="color-19"><stop offset="0" stop-color="#ff5656"/><stop offset="1" stop-color="#ff5656" stop-opacity="0"/></radialGradient><radialGradient cx="257.80931" cy="170.1552" r="11.25666" gradientUnits="userSpaceOnUse" id="color-20"><stop offset="0" stop-color="#ff5656"/><stop offset="1" stop-color="#ff5656" stop-opacity="0"/></radialGradient><radialGradient cx="262.57678" cy="176.36735" r="10.20464" gradientUnits="userSpaceOnUse" id="color-21"><stop offset="0" stop-color="#ff6d6d"/><stop offset="1" stop-color="#ff6d6d" stop-opacity="0"/></radialGradient><radialGradient cx="256.15529" cy="160.9666" r="5.78614" gradientUnits="userSpaceOnUse" id="color-22"><stop offset="0" stop-color="#ff4e4e"/><stop offset="1" stop-color="#ff4e4e" stop-opacity="0"/></radialGradient><radialGradient cx="256.54182" cy="196.51669" r="5.78614" gradientUnits="userSpaceOnUse" id="color-23"><stop offset="0" stop-color="#ff4e4e"/><stop offset="1" stop-color="#ff4e4e" stop-opacity="0"/></radialGradient><radialGradient cx="260.62404" cy="166.04265" r="6.9627" gradientUnits="userSpaceOnUse" id="color-24"><stop offset="0" stop-color="#ff7e7e"/><stop offset="1" stop-color="#ff7e7e" stop-opacity="0"/></radialGradient><radialGradient cx="265.50282" cy="190.22415" r="4.6943" gradientUnits="userSpaceOnUse" id="color-25"><stop offset="0" stop-color="#ff8989"/><stop offset="1" stop-color="#ff8989" stop-opacity="0"/></radialGradient><radialGradient cx="268.02768" cy="185.45281" r="4.6943" gradientUnits="userSpaceOnUse" id="color-26"><stop offset="0" stop-color="#ff6060"/><stop offset="1" stop-color="#ff6060" stop-opacity="0"/></radialGradient><radialGradient cx="267.58552" cy="172.59854" r="4.35993" gradientUnits="userSpaceOnUse" id="color-27"><stop offset="0" stop-color="#ff7e7e"/><stop offset="1" stop-color="#ff7e7e" stop-opacity="0"/></radialGradient><radialGradient cx="260.7351" cy="192.40363" r="7.42956" gradientUnits="userSpaceOnUse" id="color-28"><stop offset="0" stop-color="#ff6060"/><stop offset="1" stop-color="#ff6060" stop-opacity="0"/></radialGradient><radialGradient cx="264.50887" cy="166.90259" r="2.89125" gradientUnits="userSpaceOnUse" id="color-29"><stop offset="0" stop-color="#ffb5b5"/><stop offset="1" stop-color="#ffb5b5" stop-opacity="0"/></radialGradient><radialGradient cx="250.01832" cy="200.72205" r="4.69429" gradientUnits="userSpaceOnUse" id="color-30"><stop offset="0" stop-color="#dc0000"/><stop offset="1" stop-color="#dc0000" stop-opacity="0"/></radialGradient><radialGradient cx="249.13877" cy="158.08836" r="4.69429" gradientUnits="userSpaceOnUse" id="color-31"><stop offset="0" stop-color="#dc0000"/><stop offset="1" stop-color="#dc0000" stop-opacity="0"/></radialGradient><radialGradient cx="263.64158" cy="178.6166" r="6.96269" gradientUnits="userSpaceOnUse" id="color-32"><stop offset="0" stop-color="#ff6060"/><stop offset="1" stop-color="#ff6060" stop-opacity="0"/></radialGradient><radialGradient cx="271.86542" cy="179.71952" r="4.35993" gradientUnits="userSpaceOnUse" id="color-33"><stop offset="0" stop-color="#ff6060"/><stop offset="1" stop-color="#ff6060" stop-opacity="0"/></radialGradient><linearGradient x1="246.98223" y1="179.39203" x2="230.87389" y2="179.31934" gradientUnits="userSpaceOnUse" id="color-34"><stop offset="0" stop-color="#1a1a1a" stop-opacity="0"/><stop offset="1" stop-color="#1a1a1a"/></linearGradient><linearGradient x1="245.63092" y1="174.49141" x2="238.3905" y2="174.49141" gradientUnits="userSpaceOnUse" id="color-35"><stop offset="0" stop-color="#000000"/><stop offset="1" stop-color="#737373"/></linearGradient><linearGradient x1="245.59103" y1="184.38841" x2="238.35062" y2="184.38841" gradientUnits="userSpaceOnUse" id="color-36"><stop offset="0" stop-color="#000000"/><stop offset="1" stop-color="#737373"/></linearGradient></defs><g transform="translate(-189.18949,-143.41982)"><g data-paper-data="{&quot;isPaintingLayer&quot;:true}" fill-rule="nonzero" stroke-width="0" stroke-linecap="butt" stroke-linejoin="miter" stroke-miterlimit="10" stroke-dasharray="" stroke-dashoffset="0" style="mix-blend-mode: normal"><path d="M199.41982,181c0,-20.75496 16.82522,-37.58018 37.58018,-37.58018c20.75496,0 37.58018,16.82523 37.58018,37.58018c0,20.75496 -16.82522,37.58018 -37.58018,37.58018c-20.75496,0 -37.58018,-16.82523 -37.58018,-37.58018z" fill="url(#color-1)" stroke="none"/><path d="M190.21385,155.37797c0,0 9.44167,-8.45462 17.48684,-7.84814c11.13746,0.83959 22.37512,12.8273 32.27213,14.71044c3.28596,0.62524 2.99897,12.21598 1.26922,23.94616c-1.19943,8.13381 -16.70765,-5.28257 -16.70765,-5.28257c0,0 -5.16677,-4.29609 -5.0906,-6.18134c0.11472,-2.83918 5.40746,-8.52078 5.40746,-8.52078c0,0 -11.33213,8.20168 -19.63245,2.7409c-7.81504,-5.14152 -15.00495,-13.56467 -15.00495,-13.56467z" fill="url(#color-2)" stroke="none"/><path d="M206.9578,149.7187c3.53391,0.22595 4.74179,1.61237 4.60293,3.83462c-0.13887,2.22225 -1.5719,4.43881 -5.1058,4.21286c-3.53391,-0.22595 -6.28614,-2.2106 -6.14727,-4.43286c0.13887,-2.22225 3.11625,-3.84057 6.65015,-3.61462z" fill="url(#color-3)" stroke="none"/><path d="M198.53949,153.0631c2.86775,0.18336 5.10115,1.79387 4.98846,3.59723c-0.11269,1.80334 -2.5288,3.1166 -5.39654,2.93325c-2.86775,-0.18336 -5.10116,-1.79388 -4.98847,-3.59723c0.11269,-1.80334 2.52881,-3.11659 5.39655,-2.93325z" fill="url(#color-4)" stroke="none"/><path d="M202.74126,159.87585c1.62423,0.10384 2.88918,1.01602 2.82535,2.0374c-0.06383,1.02138 -1.43226,1.76518 -3.05649,1.66132c-1.62423,-0.10384 -2.88919,-1.01602 -2.82536,-2.03739c0.06383,-1.02138 1.43226,-1.76519 3.0565,-1.66133z" fill="url(#color-5)" stroke="none"/><path d="M206.13517,164.64037c1.62423,0.10384 2.88918,1.01601 2.82536,2.03739c-0.06383,1.02138 -1.43226,1.76519 -3.05649,1.66133c-1.62423,-0.10384 -1.34486,-0.41778 -1.28103,-1.43916c0.06383,-1.02138 -0.11207,-2.36342 1.51217,-2.25956z" fill="url(#color-6)" stroke="none"/><path d="M213.98543,157.2147c2.06077,0.13176 3.66568,1.28911 3.5847,2.58498c-0.08098,1.29588 -1.8172,2.23959 -3.87795,2.10783c-2.06077,-0.13176 -3.66568,-1.28908 -3.5847,-2.58498c0.08098,-1.29588 1.8172,-2.23959 3.87795,-2.10783z" fill="url(#color-7)" stroke="none"/><path d="M209.89207,149.50764c5.21884,0.33367 9.17716,4.9625 8.84121,10.33881c-0.33595,5.3763 -4.83898,9.46414 -10.05781,9.13047c-5.21884,-0.33367 -7.63284,-4.36427 -7.29689,-9.74059c0.33595,-5.3763 3.29467,-10.06237 8.5135,-9.7287z" fill="url(#color-8)" stroke="none"/><path d="M223.53802,156.70427c3.26794,0.20894 5.74659,3.10744 5.53621,6.474c-0.21038,3.36655 -3.03009,5.92629 -6.29804,5.71734c-3.26795,-0.20893 -5.74661,-3.10744 -5.53623,-6.47399c0.21038,-3.36655 3.03011,-5.92629 6.29806,-5.71735z" fill="url(#color-9)" stroke="none"/><path d="M189.18949,205.12658c0,0 7.10764,-8.64355 14.97297,-14.05117c8.35373,-5.74341 19.78434,3.25667 19.78434,3.25667c0,0 -5.64574,-5.4408 -5.86265,-8.2568c-0.14401,-1.86986 5.02478,-6.33594 5.02478,-6.33594c0,0 15.49614,-13.92318 17.01386,-5.88921c2.18877,11.5862 3.20499,21.48318 -0.15558,22.23046c-10.12178,2.25072 -21.11366,14.30892 -32.5486,15.57064c-8.26005,0.9114 -18.22911,-6.52465 -18.22911,-6.52465z" data-paper-data="{&quot;index&quot;:null}" fill="url(#color-10)" stroke="none"/><path d="M199.65054,206.77011c-0.22029,-2.20224 2.54359,-4.27946 6.17329,-4.63961c3.62971,-0.36015 5.13809,1.1866 5.35839,3.38884c0.22029,2.20224 -0.93095,4.22599 -4.56066,4.58614c-3.62971,0.36015 -6.75073,-1.13313 -6.97102,-3.33536z" data-paper-data="{&quot;index&quot;:null}" fill="url(#color-11)" stroke="none"/><path d="M192.183,204.39983c-0.17876,-1.7871 2.06411,-3.47274 5.00959,-3.765c2.94548,-0.29226 5.47816,0.91952 5.65692,2.70663c0.17876,1.7871 -2.0641,3.47274 -5.00957,3.765c-2.94548,0.29226 -5.47817,-0.91952 -5.65693,-2.70662z" data-paper-data="{&quot;index&quot;:null}" fill="url(#color-12)" stroke="none"/><path d="M198.72385,198.64441c-0.10125,-1.01217 1.16908,-1.96688 2.83733,-2.13242c1.66826,-0.16553 3.10271,0.52079 3.20396,1.53297c0.10125,1.01218 -1.16906,1.96689 -2.83731,2.13241c-1.66827,0.16553 -3.10274,-0.5208 -3.20398,-1.53298z" data-paper-data="{&quot;index&quot;:null}" fill="url(#color-13)" stroke="none"/><path d="M203.62029,193.1275c-0.10125,-1.01218 1.16908,-1.96689 2.83733,-2.13242c1.66826,-0.16553 1.49008,0.57425 1.59134,1.58643c0.10125,1.01218 0.44357,1.91344 -1.22469,2.07897c-1.66826,0.16553 -3.10272,-0.5208 -3.20397,-1.53298z" data-paper-data="{&quot;index&quot;:null}" fill="url(#color-14)" stroke="none"/><path d="M209.48553,199.84408c-0.12846,-1.28422 1.48325,-2.49552 3.59989,-2.70554c2.11662,-0.21001 3.93661,0.66077 4.06507,1.94499c0.12846,1.2842 -1.48324,2.49551 -3.59988,2.70553c-2.11662,0.21001 -3.93662,-0.66077 -4.06508,-1.94498z" data-paper-data="{&quot;index&quot;:null}" fill="url(#color-15)" stroke="none"/><path d="M209.71546,209.45835c-5.36029,0.53187 -8.52507,-3.40948 -9.05801,-8.73734c-0.53294,-5.32786 1.76776,-10.02463 7.12807,-10.55649c5.36029,-0.53187 9.66213,5.24392 10.19508,10.57177c0.53294,5.32786 -2.90483,8.19019 -8.26514,8.72207z" data-paper-data="{&quot;index&quot;:null}" fill="url(#color-16)" stroke="none"/><path d="M216.71936,196.49161c-0.33371,-3.33621 1.64121,-4.42284 4.99773,-4.75588c3.35654,-0.33305 6.34807,2.10149 6.68179,5.43769c0.33371,3.33622 -2.11676,6.31073 -5.47328,6.64378c-3.35654,0.33305 -5.87252,-3.98938 -6.20625,-7.32559z" data-paper-data="{&quot;index&quot;:null}" fill="url(#color-17)" stroke="none"/><path d="M237.51921,162.81969c4.19419,0.54891 7.25399,-0.55793 7.25399,-0.55793c0,0 -0.89687,-11.45497 2.93971,-14.2499c2.40785,-1.75409 9.31058,4.20191 12.8005,7.38599c3.89034,3.54941 16.91045,18.79837 16.99663,24.03656c0.06826,4.1494 -12.53419,19.90482 -16.96537,24.02692c-4.20328,3.91011 -10.20474,8.54703 -12.76281,6.30258c-3.47644,-3.05021 -3.01716,-13.61419 -3.01716,-13.61419c0,0 -4.42686,-1.29762 -8.33053,-0.58867c-5.41735,0.98385 -6.26473,-33.70324 1.08503,-32.74136z" fill="url(#color-18)" stroke="none"/><path d="M261.03722,164.05665c7.72754,0 13.99194,6.76465 13.99194,15.10927c0,8.34462 -6.2644,15.10926 -13.99194,15.10926c-7.72754,0 -13.99194,-6.76464 -13.99194,-15.10926c0,-8.34462 6.2644,-15.10927 13.99193,-15.10927z" fill="url(#color-19)" stroke="none"/><path d="M257.80931,157.99962c6.21689,0 11.25666,5.44223 11.25666,12.15558c0,6.71334 -5.03978,12.15557 -11.25667,12.15557c-6.21689,0 -11.25667,-5.44223 -11.25667,-12.15557c0,-6.71334 5.03978,-12.15558 11.25667,-12.15558z" fill="url(#color-20)" stroke="none"/><path d="M262.57678,165.34781c5.63588,0 10.20464,4.93361 10.20464,11.01954c0,6.08592 -4.56877,11.01954 -10.20464,11.01954c-5.63588,0 -10.20465,-4.93361 -10.20465,-11.01954c0,-6.08592 4.56877,-11.01954 10.20464,-11.01954z" fill="url(#color-21)" stroke="none"/><path d="M256.15529,154.71841c3.19559,0 5.78613,2.79741 5.78613,6.24819c0,3.45079 -2.59054,6.24819 -5.78614,6.24819c-3.19559,0 -5.78614,-2.79741 -5.78614,-6.24819c0,-3.45079 2.59055,-6.24819 5.78614,-6.24819z" fill="url(#color-22)" stroke="none"/><path d="M256.54182,190.2685c3.19559,0 5.78614,2.79741 5.78614,6.24819c0,3.45078 -2.59055,6.24819 -5.78614,6.24819c-3.19559,0 -5.78614,-2.79741 -5.78614,-6.24819c0,-3.45078 2.59055,-6.24819 5.78614,-6.24819z" fill="url(#color-23)" stroke="none"/><path d="M260.62404,158.52395c3.8454,0 6.96269,3.36623 6.96269,7.5187c0,4.15248 -3.11729,7.5187 -6.96268,7.5187c-3.8454,0 -6.96269,-3.36623 -6.96269,-7.5187c0,-4.15248 3.1173,-7.5187 6.96269,-7.5187z" fill="url(#color-24)" stroke="none"/><path d="M265.50282,185.15499c2.5926,0 4.69429,2.26954 4.69429,5.06916c0,2.79963 -2.10171,5.06917 -4.69429,5.06917c-2.5926,0 -4.6943,-2.26954 -4.6943,-5.06917c0,-2.79963 2.10171,-5.06916 4.6943,-5.06916z" fill="url(#color-25)" stroke="none"/><path d="M268.02768,180.38365c2.5926,0 4.69429,2.26954 4.69429,5.06916c0,2.79963 -2.10171,5.06917 -4.69429,5.06917c-2.5926,0 -4.6943,-2.26954 -4.6943,-5.06917c0,-2.79963 2.10171,-5.06916 4.6943,-5.06916z" fill="url(#color-26)" stroke="none"/><path d="M267.58552,167.89045c2.40792,0 4.35993,2.10788 4.35993,4.70809c0,2.60021 -1.952,4.70809 -4.35993,4.70809c-2.40792,0 -4.35993,-2.10788 -4.35993,-4.70809c0,-2.60021 1.952,-4.70809 4.35993,-4.70809z" fill="url(#color-27)" stroke="none"/><path d="M260.7351,184.38076c4.10324,0 7.42956,3.59195 7.42956,8.02285c0,4.4309 -3.32632,8.02285 -7.42956,8.02285c-4.10324,0 -7.42957,-3.59195 -7.42957,-8.02285c0,-4.4309 3.32632,-8.02285 7.42957,-8.02285z" fill="url(#color-28)" stroke="none"/><path d="M264.50887,163.78046c1.5968,0 2.89125,1.39783 2.89125,3.12213c0,1.72431 -1.29445,3.12213 -2.89125,3.12213c-1.5968,0 -2.89126,-1.39783 -2.89126,-3.12213c0,-1.72431 1.29446,-3.12213 2.89126,-3.12213z" fill="url(#color-29)" stroke="none"/><path d="M250.01832,195.65289c2.5926,0 4.69429,2.26954 4.69429,5.06917c0,2.79962 -2.10171,5.06916 -4.69429,5.06916c-2.5926,0 -4.6943,-2.26954 -4.6943,-5.06916c0,-2.79963 2.10171,-5.06917 4.6943,-5.06917z" fill="url(#color-30)" stroke="none"/><path d="M249.13877,153.01919c2.5926,0 4.69429,2.26954 4.69429,5.06916c0,2.79962 -2.10171,5.06916 -4.69429,5.06916c-2.5926,0 -4.6943,-2.26954 -4.6943,-5.06916c0,-2.79962 2.10171,-5.06916 4.6943,-5.06916z" fill="url(#color-31)" stroke="none"/><path d="M263.64158,171.09791c3.8454,0 6.96269,3.36623 6.96269,7.5187c0,4.15248 -3.11729,7.5187 -6.96268,7.5187c-3.8454,0 -6.9627,-3.36623 -6.9627,-7.5187c0,-4.15248 3.11731,-7.5187 6.9627,-7.5187z" fill="url(#color-32)" stroke="none"/><path d="M271.86542,175.01143c2.40792,0 4.35993,2.10788 4.35993,4.70809c0,2.60021 -1.952,4.70809 -4.35993,4.70809c-2.40792,0 -4.35993,-2.10788 -4.35993,-4.70809c0,-2.60021 1.952,-4.70809 4.35993,-4.70809z" fill="url(#color-33)" stroke="none"/><path d="M231.98689,190.17572c-1.66632,-2.64014 3.38697,-10.41733 3.38697,-10.41733c0,0 -5.23018,-7.40311 -4.33077,-9.99114c1.14827,-3.30409 3.18843,-5.40242 6.58185,-5.38711c3.90428,0.01761 7.32375,1.10125 9.2335,5.30998c1.05028,2.3146 -2.66394,9.89869 -2.66394,9.89869c0,0 4.0005,7.59784 2.66894,10.06047c-2.01923,3.73447 -5.25694,4.68815 -8.90363,4.67169c-3.64668,-0.01645 -5.97293,-4.14526 -5.97293,-4.14526z" fill="url(#color-34)" stroke="none"/><path d="M233.75159,185.71785c0,-3.63606 2.69,-6.5837 6.00827,-6.5837c3.31826,0 6.00827,2.94762 6.00827,6.5837c0,3.63606 -2.68999,6.58368 -6.00827,6.58368c-3.31826,0 -6.00827,-2.9476 -6.00827,-6.58368z" fill="#ffffff" stroke="#000000"/><path d="M233.75159,172.96052c0,-3.63605 2.69,-6.58368 6.00827,-6.58368c3.31826,0 6.00827,2.9476 6.00827,6.58368c0,3.63605 -2.68999,6.58369 -6.00827,6.58369c-3.31826,0 -6.00827,-2.94761 -6.00827,-6.58369z" fill="#ffffff" stroke="#000000"/><path d="M242.01071,170.52449c1.99939,0 3.6202,1.77605 3.6202,3.96691c0,2.19087 -1.62082,3.96691 -3.6202,3.96691c-1.99939,0 -3.6202,-1.77605 -3.6202,-3.96691c0,-2.19087 1.62082,-3.96691 3.6202,-3.96691z" fill="url(#color-35)" stroke="none"/><path d="M241.97084,180.42148c1.99939,0 3.62021,1.77605 3.62021,3.96692c0,2.19087 -1.62082,3.96692 -3.62021,3.96692c-1.99939,0 -3.62021,-1.77605 -3.62021,-3.96692c0,-2.19087 1.62082,-3.96692 3.62021,-3.96692z" fill="url(#color-36)" stroke="none"/><path d="M241.9569,178.77572l3.39037,-10.54123l1.53615,5.29249l-1.65597,6.2992l1.57387,6.56911l-0.882,4.00587l-4.03915,-9.56393z" fill="#000000" stroke="none"/></g></g></svg>