<svg version="1.1" xmlns="http://www.w3.org/2000/svg" xmlns:xlink="http://www.w3.org/1999/xlink" width="79.49276" height="80.13905" viewBox="0,0,79.49276,80.13905"><defs><radialGradient cx="240.1553" cy="180.15523" r="32.79887" gradientUnits="userSpaceOnUse" id="color-1"><stop offset="0" stop-color="#000000"/><stop offset="1" stop-color="#000000" stop-opacity="0"/></radialGradient><linearGradient x1="215.66042" y1="180.15529" x2="264.65016" y2="180.15528" gradientUnits="userSpaceOnUse" id="color-2"><stop offset="0" stop-color="#ff1f1f"/><stop offset="1" stop-color="#ff7979"/></linearGradient></defs><g transform="translate(-200.4089,-139.93048)"><g data-paper-data="{&quot;isPaintingLayer&quot;:true}" fill-rule="nonzero" stroke-linecap="butt" stroke-linejoin="miter" stroke-miterlimit="10" stroke-dasharray="" stroke-dashoffset="0" style="mix-blend-mode: normal"><path d="M279.90166,220.06953h-79.49276v-80.13905h79.49276z" fill="none" stroke="none" stroke-width="NaN"/><path d="M240.1553,212.95411c-18.11432,0 -32.79887,-14.68456 -32.79887,-32.79887c0,-18.11432 14.68456,-32.79887 32.79887,-32.79887c18.11432,0 32.79887,14.68456 32.79887,32.79887c0,18.11432 -14.68456,32.79887 -32.79887,32.79887z" fill="url(#color-1)" stroke="#000000" stroke-width="0"/><path d="M264.65016,204.65015h-48.98972v-48.98972h48.98972z" fill="url(#color-2)" stroke="#000000" stroke-width="0"/><path d="M240.24915,197.93757h-11.82557v-11.82557h11.82557z" fill="#000000" stroke="#000000" stroke-width="0"/><path d="M240.43684,174.01086h-12.20098v-12.20099h12.20098z" fill="#000000" stroke="#000000" stroke-width="0"/><path d="M258.64448,186.06807h-18.20762v-12.01328h18.20762z" fill="#000000" stroke="#000000" stroke-width="0"/><path d="M264.78098,192.30635h-16.14284v-6.46015h16.14284z" fill="#000000" stroke="#000000" stroke-width="0"/><path d="M264.78098,174.27667h-16.14284v-6.27245h16.14284z" fill="#000000" stroke="#000000" stroke-width="0"/></g></g></svg>