<svg version="1.1" xmlns="http://www.w3.org/2000/svg" xmlns:xlink="http://www.w3.org/1999/xlink" width="83.82817" height="85.93617" viewBox="0,0,83.82817,85.93617"><defs><linearGradient x1="204.17001" y1="201.72074" x2="246.07073" y2="171.83936" gradientUnits="userSpaceOnUse" id="color-1"><stop offset="0" stop-color="#000000"/><stop offset="1" stop-color="#ff0000"/></linearGradient><linearGradient x1="217.59291" y1="181.7913" x2="229.34576" y2="198.27156" gradientUnits="userSpaceOnUse" id="color-2"><stop offset="0" stop-color="#910707"/><stop offset="1" stop-color="#ff0000"/></linearGradient><linearGradient x1="214.86709" y1="223.34575" x2="239.05817" y2="199.15466" gradientUnits="userSpaceOnUse" id="color-3"><stop offset="0" stop-color="#000000"/><stop offset="1" stop-color="#ff0000"/></linearGradient><linearGradient x1="229.40704" y1="216.73312" x2="219.89229" y2="207.21836" gradientUnits="userSpaceOnUse" id="color-4"><stop offset="0" stop-color="#ff0c0c"/><stop offset="1" stop-color="#800000"/></linearGradient><linearGradient x1="269.15704" y1="153.71613" x2="277.41966" y2="145.4535" gradientUnits="userSpaceOnUse" id="color-5"><stop offset="0" stop-color="#ff0000"/><stop offset="1" stop-color="#ff0000"/></linearGradient><linearGradient x1="269.15704" y1="153.71613" x2="277.41966" y2="145.4535" gradientUnits="userSpaceOnUse" id="color-6"><stop offset="0" stop-color="#ff0c0c"/><stop offset="1" stop-color="#800000"/></linearGradient></defs><g transform="translate(-196.36565,-143.11426)"><g data-paper-data="{&quot;isPaintingLayer&quot;:true}" fill-rule="nonzero" stroke-linejoin="miter" stroke-miterlimit="10" stroke-dasharray="" stroke-dashoffset="0" style="mix-blend-mode: normal"><path d="M236.65221,186.59083l36.30625,-36.30625" fill="none" stroke="#000000" stroke-width="6" stroke-linecap="round"/><path d="M209.00588,208.50178l-10.74836,-3.93871l1.07661,-9.62337l17.57358,-12.65975l10.52637,2.39204l18.99754,-12.32659l3.89757,5.46531l-15.82174,16.77981z" fill="url(#color-1)" stroke="url(#color-2)" stroke-width="3.5" stroke-linecap="butt"/><path d="M222.87235,204.2383l12.7383,-8.53115l3.15536,3.15536l-10.16727,11.10218l0.4127,7.16403l-10.22938,10.13201l-6.42758,-0.3506l-1.40238,-7.47937z" data-paper-data="{&quot;index&quot;:null}" fill="url(#color-3)" stroke="url(#color-4)" stroke-width="3.5" stroke-linecap="butt"/><path d="M246.56259,176.38236c0,0 5.88286,4.34682 5.28693,8.00931c-0.38667,2.3764 -7.67424,3.75216 -6.88599,5.88648c1.25688,3.40319 9.83674,3.26133 6.96808,6.37455c-8.14643,8.84092 -14.15905,0.82573 -14.15905,0.82573" fill="none" stroke="#000000" stroke-width="3.5" stroke-linecap="round"/><path d="M273.72785,158.28694l-9.14163,-9.14163l13.00924,-3.51601z" data-paper-data="{&quot;index&quot;:null}" fill="url(#color-5)" stroke="url(#color-6)" stroke-width="3.5" stroke-linecap="butt"/><path d="M210.84831,218.72354v-9.66903" fill="none" stroke="#000000" stroke-width="3.5" stroke-linecap="round"/><path d="M232.67478,189.51345l9.49323,-9.49323" fill="none" stroke="#ffffff" stroke-width="3.5" stroke-linecap="round"/><path d="M226.04097,193.18724l-12.6179,2.81554" fill="none" stroke="#ffffff" stroke-width="3.5" stroke-linecap="round"/><path d="M210.90541,199.96674c-2.18924,-1.39047 -2.83677,-4.29239 -1.4463,-6.48162c1.39047,-2.18924 4.29239,-2.83677 6.48162,-1.4463c2.18924,1.39047 2.83677,4.29239 1.4463,6.48162c-1.39047,2.18924 -4.29239,2.83677 -6.48162,1.4463z" fill="#000000" stroke="#ffffff" stroke-width="3.5" stroke-linecap="butt"/></g></g></svg>