<svg version="1.1" xmlns="http://www.w3.org/2000/svg" xmlns:xlink="http://www.w3.org/1999/xlink" width="79.49276" height="80.13905" viewBox="0,0,79.49276,80.13905"><defs><radialGradient cx="240.00008" cy="180.00001" r="32.79887" gradientUnits="userSpaceOnUse" id="color-1"><stop offset="0" stop-color="#000000"/><stop offset="1" stop-color="#000000" stop-opacity="0"/></radialGradient><linearGradient x1="236.40532" y1="207.37343" x2="236.40532" y2="152.62663" gradientUnits="userSpaceOnUse" id="color-2"><stop offset="0" stop-color="#ff0000"/><stop offset="1" stop-color="#ff8080"/></linearGradient><linearGradient x1="236.40532" y1="202.44636" x2="236.40532" y2="157.55369" gradientUnits="userSpaceOnUse" id="color-3"><stop offset="0" stop-color="#ff8080"/><stop offset="1" stop-color="#ff0000"/></linearGradient></defs><g transform="translate(-200.4089,-139.93051)"><g data-paper-data="{&quot;isPaintingLayer&quot;:true}" fill-rule="nonzero" stroke-linejoin="miter" stroke-miterlimit="10" stroke-dasharray="" stroke-dashoffset="0" style="mix-blend-mode: normal"><path d="M207.2012,180.00001c0,-18.11432 14.68456,-32.79887 32.79887,-32.79887c18.11432,0 32.79887,14.68456 32.79887,32.79887c0,18.11432 -14.68456,32.79887 -32.79887,32.79887c-18.11432,0 -32.79887,-14.68456 -32.79887,-32.79887z" fill="url(#color-1)" stroke="#000000" stroke-width="0" stroke-linecap="butt"/><path d="M279.90166,220.06956h-79.49276v-80.13905h79.49276z" fill="none" stroke="none" stroke-width="NaN" stroke-linecap="butt"/><path d="M236.40532,207.37343c-15.11791,0 -27.3734,-12.25549 -27.3734,-27.3734c0,-15.11791 12.25549,-27.3734 27.3734,-27.3734c15.11791,0 27.3734,12.25549 27.3734,27.3734c0,15.11791 -12.25549,27.3734 -27.3734,27.3734z" fill="url(#color-2)" stroke="#000000" stroke-width="0" stroke-linecap="butt"/><path d="M236.40532,202.44636c-12.39676,0 -22.44634,-10.04956 -22.44634,-22.44634c0,-12.39676 10.04956,-22.44634 22.44634,-22.44634c12.39676,0 22.44634,10.04956 22.44634,22.44634c0,12.39676 -10.04956,22.44634 -22.44634,22.44634z" fill="none" stroke="url(#color-3)" stroke-width="3.5" stroke-linecap="butt"/><path d="M251.28308,188.33157h-21.42399" fill="none" stroke="#ffffff" stroke-width="5.5" stroke-linecap="round"/><path d="M229.8591,188.33157c-4.60139,0 -8.33155,-3.73016 -8.33155,-8.33155c0,-4.60139 3.73016,-8.33155 8.33155,-8.33155c4.60139,0 8.33155,3.73016 8.33155,8.33155c0,4.60139 -3.73016,8.33155 -8.33155,8.33155z" fill="none" stroke="#ffffff" stroke-width="5.5" stroke-linecap="butt"/></g></g></svg>