<svg version="1.1" xmlns="http://www.w3.org/2000/svg" xmlns:xlink="http://www.w3.org/1999/xlink" width="212.05201" height="211.32905" viewBox="0,0,212.05201,211.32905"><defs><radialGradient cx="179.14486" cy="119.08135" r="52.0715" gradientUnits="userSpaceOnUse" id="color-1"><stop offset="0" stop-color="#a90000"/><stop offset="1" stop-color="#a90000" stop-opacity="0"/></radialGradient><radialGradient cx="300.85514" cy="240.79163" r="52.0715" gradientUnits="userSpaceOnUse" id="color-2"><stop offset="0" stop-color="#a90000"/><stop offset="1" stop-color="#a90000" stop-opacity="0"/></radialGradient><radialGradient cx="240" cy="179.93649" r="51.31288" gradientUnits="userSpaceOnUse" id="color-3"><stop offset="0" stop-color="#ff0000"/><stop offset="1" stop-color="#ff0000" stop-opacity="0"/></radialGradient><linearGradient x1="177.76409" y1="183.23881" x2="199.61016" y2="183.23881" gradientUnits="userSpaceOnUse" id="color-4"><stop offset="0" stop-color="#800000"/><stop offset="1" stop-color="#ff0000"/></linearGradient><linearGradient x1="179.0342" y1="169.3945" x2="198.34004" y2="169.3945" gradientUnits="userSpaceOnUse" id="color-5"><stop offset="0" stop-color="#808080"/><stop offset="1" stop-color="#404040"/></linearGradient><linearGradient x1="179.0342" y1="169.3945" x2="198.34004" y2="169.3945" gradientUnits="userSpaceOnUse" id="color-6"><stop offset="0" stop-color="#4d4d4d"/><stop offset="1" stop-color="#000000"/></linearGradient><linearGradient x1="185.89286" y1="169.3945" x2="198.34004" y2="169.3945" gradientUnits="userSpaceOnUse" id="color-7"><stop offset="0" stop-color="#808080"/><stop offset="1" stop-color="#404040"/></linearGradient><linearGradient x1="185.89286" y1="169.3945" x2="198.34004" y2="169.3945" gradientUnits="userSpaceOnUse" id="color-8"><stop offset="0" stop-color="#4d4d4d"/><stop offset="1" stop-color="#000000"/></linearGradient><linearGradient x1="302.23591" y1="176.76119" x2="280.38984" y2="176.76119" gradientUnits="userSpaceOnUse" id="color-9"><stop offset="0" stop-color="#800000"/><stop offset="1" stop-color="#ff0000"/></linearGradient><linearGradient x1="300.9658" y1="190.6055" x2="281.65996" y2="190.6055" gradientUnits="userSpaceOnUse" id="color-10"><stop offset="0" stop-color="#808080"/><stop offset="1" stop-color="#404040"/></linearGradient><linearGradient x1="300.9658" y1="190.6055" x2="281.65996" y2="190.6055" gradientUnits="userSpaceOnUse" id="color-11"><stop offset="0" stop-color="#4d4d4d"/><stop offset="1" stop-color="#000000"/></linearGradient><linearGradient x1="294.10714" y1="190.6055" x2="281.65996" y2="190.6055" gradientUnits="userSpaceOnUse" id="color-12"><stop offset="0" stop-color="#808080"/><stop offset="1" stop-color="#404040"/></linearGradient><linearGradient x1="294.10714" y1="190.6055" x2="281.65996" y2="190.6055" gradientUnits="userSpaceOnUse" id="color-13"><stop offset="0" stop-color="#4d4d4d"/><stop offset="1" stop-color="#000000"/></linearGradient><linearGradient x1="236.76119" y1="117.76409" x2="236.76119" y2="139.61016" gradientUnits="userSpaceOnUse" id="color-14"><stop offset="0" stop-color="#800000"/><stop offset="1" stop-color="#ff0000"/></linearGradient><linearGradient x1="250.6055" y1="119.0342" x2="250.6055" y2="138.34004" gradientUnits="userSpaceOnUse" id="color-15"><stop offset="0" stop-color="#808080"/><stop offset="1" stop-color="#404040"/></linearGradient><linearGradient x1="250.6055" y1="119.0342" x2="250.6055" y2="138.34004" gradientUnits="userSpaceOnUse" id="color-16"><stop offset="0" stop-color="#4d4d4d"/><stop offset="1" stop-color="#000000"/></linearGradient><linearGradient x1="250.6055" y1="125.89286" x2="250.6055" y2="138.34004" gradientUnits="userSpaceOnUse" id="color-17"><stop offset="0" stop-color="#808080"/><stop offset="1" stop-color="#404040"/></linearGradient><linearGradient x1="250.6055" y1="125.89286" x2="250.6055" y2="138.34004" gradientUnits="userSpaceOnUse" id="color-18"><stop offset="0" stop-color="#4d4d4d"/><stop offset="1" stop-color="#000000"/></linearGradient><linearGradient x1="243.23881" y1="242.23591" x2="243.23881" y2="220.38984" gradientUnits="userSpaceOnUse" id="color-19"><stop offset="0" stop-color="#800000"/><stop offset="1" stop-color="#ff0000"/></linearGradient><linearGradient x1="229.3945" y1="240.9658" x2="229.3945" y2="221.65996" gradientUnits="userSpaceOnUse" id="color-20"><stop offset="0" stop-color="#808080"/><stop offset="1" stop-color="#404040"/></linearGradient><linearGradient x1="229.3945" y1="240.9658" x2="229.3945" y2="221.65996" gradientUnits="userSpaceOnUse" id="color-21"><stop offset="0" stop-color="#4d4d4d"/><stop offset="1" stop-color="#000000"/></linearGradient><linearGradient x1="229.3945" y1="234.10714" x2="229.3945" y2="221.65996" gradientUnits="userSpaceOnUse" id="color-22"><stop offset="0" stop-color="#808080"/><stop offset="1" stop-color="#404040"/></linearGradient><linearGradient x1="229.3945" y1="234.10714" x2="229.3945" y2="221.65996" gradientUnits="userSpaceOnUse" id="color-23"><stop offset="0" stop-color="#4d4d4d"/><stop offset="1" stop-color="#000000"/></linearGradient><linearGradient x1="204.27799" y1="179.26982" x2="243.15876" y2="179.26982" gradientUnits="userSpaceOnUse" id="color-24"><stop offset="0" stop-color="#ff8080"/><stop offset="1" stop-color="#ff8080" stop-opacity="0"/></linearGradient><linearGradient x1="274.38867" y1="179.26982" x2="235.50791" y2="179.26982" gradientUnits="userSpaceOnUse" id="color-25"><stop offset="0" stop-color="#ff8080"/><stop offset="1" stop-color="#ff8080" stop-opacity="0"/></linearGradient><linearGradient x1="204.44467" y1="177.26982" x2="270.222" y2="177.26982" gradientUnits="userSpaceOnUse" id="color-26"><stop offset="0" stop-color="#000000"/><stop offset="1" stop-color="#595959"/></linearGradient><linearGradient x1="204.44467" y1="177.26982" x2="270.222" y2="177.26982" gradientUnits="userSpaceOnUse" id="color-27"><stop offset="0" stop-color="#404040"/><stop offset="1" stop-color="#000000"/></linearGradient><linearGradient x1="217.50873" y1="177.93649" x2="258.49127" y2="177.93649" gradientUnits="userSpaceOnUse" id="color-28"><stop offset="0" stop-color="#000000"/><stop offset="1" stop-color="#404040"/></linearGradient><linearGradient x1="217.50873" y1="177.93649" x2="258.49127" y2="177.93649" gradientUnits="userSpaceOnUse" id="color-29"><stop offset="0" stop-color="#404040"/><stop offset="1" stop-color="#000000"/></linearGradient><linearGradient x1="253.24145" y1="167.60617" x2="253.24145" y2="188.26681" gradientUnits="userSpaceOnUse" id="color-30"><stop offset="0" stop-color="#808080"/><stop offset="1" stop-color="#000000"/></linearGradient><linearGradient x1="236.30651" y1="177.93649" x2="270.17639" y2="177.93649" gradientUnits="userSpaceOnUse" id="color-31"><stop offset="0" stop-color="#404040"/><stop offset="1" stop-color="#000000"/></linearGradient><linearGradient x1="229.53254" y1="177.93649" x2="246.46748" y2="177.93649" gradientUnits="userSpaceOnUse" id="color-32"><stop offset="0" stop-color="#404040"/><stop offset="1" stop-color="#000000"/></linearGradient></defs><g transform="translate(-133.97399,-74.27197)"><g data-paper-data="{&quot;isPaintingLayer&quot;:true}" fill-rule="nonzero" stroke-linejoin="miter" stroke-miterlimit="10" stroke-dasharray="" stroke-dashoffset="0" style="mix-blend-mode: normal"><path d="M179.14486,119.08135l121.71029,121.71029" fill="none" stroke="#ff0000" stroke-width="4" stroke-linecap="round"/><path d="M150.31401,163.89073l-15.97854,-15.97854l73.64023,-73.64023l15.97854,15.97854z" fill="url(#color-1)" stroke="#000000" stroke-width="0" stroke-linecap="butt"/><path d="M329.68599,195.98225l15.97854,15.97854l-73.64023,73.64023l-15.97854,-15.97854z" data-paper-data="{&quot;index&quot;:null}" fill="url(#color-2)" stroke="#000000" stroke-width="0" stroke-linecap="butt"/><text transform="translate(150.72443,158.24896) rotate(-45) scale(0.59298,0.53094)" font-size="40" xml:space="preserve" fill="#ffffff" fill-rule="nonzero" stroke="none" stroke-width="1" stroke-linecap="butt" stroke-linejoin="miter" stroke-miterlimit="10" stroke-dasharray="" stroke-dashoffset="0" font-family="Sans Serif" font-weight="normal" text-anchor="start" style="mix-blend-mode: normal"><tspan x="0" dy="0">DRINKS!</tspan></text><text transform="translate(329.27557,201.62402) rotate(135) scale(0.59298,0.53094)" font-size="40" xml:space="preserve" data-paper-data="{&quot;index&quot;:null}" fill="#ffffff" fill-rule="nonzero" stroke="none" stroke-width="1" stroke-linecap="butt" stroke-linejoin="miter" stroke-miterlimit="10" stroke-dasharray="" stroke-dashoffset="0" font-family="Sans Serif" font-weight="normal" text-anchor="start" style="mix-blend-mode: normal"><tspan x="0" dy="0">DRINKS!</tspan></text><path d="M188.68712,179.93649c0,-28.33932 22.97356,-51.31288 51.31288,-51.31288c28.33932,0 51.31288,22.97356 51.31288,51.31288c0,28.33932 -22.97356,51.31288 -51.31288,51.31288c-28.33932,0 -51.31288,-22.97356 -51.31288,-51.31288z" fill="url(#color-3)" stroke="none" stroke-width="0" stroke-linecap="butt"/><g><path d="M303.125,179.93649h-126.25" fill="none" stroke="#000000" stroke-width="7.5" stroke-linecap="round"/><g stroke-linecap="butt"><path d="M179.54226,184.76295l-1.77817,-15.24145h21.84607l-1.77817,15.24145c0,0 -0.15123,7.62072 -9.65292,7.62072c-8.32222,0 -8.63682,-7.62072 -8.63682,-7.62072z" fill="url(#color-4)" stroke="none" stroke-width="0"/><path d="M198.34004,169.3945c0,4.27895 -4.32176,7.74774 -9.65292,7.74774c-5.33116,0 -9.65292,-3.46878 -9.65292,-7.74774c0,-4.27895 4.32176,-7.74774 9.65292,-7.74774c5.33116,0 9.65292,3.46878 9.65292,7.74774z" fill="url(#color-5)" stroke="url(#color-6)" stroke-width="2.5"/><path d="M198.34004,169.3945c0,1.75367 -2.78639,3.1753 -6.22359,3.1753c-3.43719,0 -6.22359,-1.42163 -6.22359,-3.1753c0,-1.75367 2.7864,-3.1753 6.22359,-3.1753c3.4372,0 6.22359,1.42163 6.22359,3.1753z" fill="url(#color-7)" stroke="url(#color-8)" stroke-width="1.5"/></g><g stroke-linecap="butt"><path d="M300.45774,175.23705l1.77817,15.24145h-21.84607l1.77817,-15.24145c0,0 0.15123,-7.62072 9.65292,-7.62072c8.32222,0 8.63682,7.62072 8.63682,7.62072z" fill="url(#color-9)" stroke="none" stroke-width="0"/><path d="M281.65996,190.6055c0,-4.27895 4.32176,-7.74774 9.65292,-7.74774c5.33116,0 9.65292,3.46878 9.65292,7.74774c0,4.27895 -4.32176,7.74774 -9.65292,7.74774c-5.33116,0 -9.65292,-3.46878 -9.65292,-7.74774z" fill="url(#color-10)" stroke="url(#color-11)" stroke-width="2.5"/><path d="M281.65996,190.6055c0,-1.75367 2.7864,-3.1753 6.22359,-3.1753c3.4372,0 6.22359,1.42163 6.22359,3.1753c0,1.75367 -2.78639,3.1753 -6.22359,3.1753c-3.43719,0 -6.22359,-1.42163 -6.22359,-3.1753z" fill="url(#color-12)" stroke="url(#color-13)" stroke-width="1.5"/></g><path d="M197.36629,181.84167c0,0 -3.22285,3.30231 -8.89084,3.30231c-5.75282,0 -7.87475,-3.30231 -7.87475,-3.30231" fill="none" stroke="#ffffff" stroke-width="4.5" stroke-linecap="round"/><path d="M282.63373,178.15833c0,0 3.22285,-3.30231 8.89084,-3.30231c5.75282,0 7.87475,3.30231 7.87475,3.30231" fill="none" stroke="#ffffff" stroke-width="4.5" stroke-linecap="round"/></g><g><path d="M240.06351,116.875v126.25" fill="none" stroke="#000000" stroke-width="7.5" stroke-linecap="round"/><g stroke-linecap="butt"><path d="M235.23705,119.54226l15.24145,-1.77817v21.84607l-15.24145,-1.77817c0,0 -7.62072,-0.15123 -7.62072,-9.65292c0,-8.32221 7.62072,-8.63682 7.62072,-8.63682z" fill="url(#color-14)" stroke="none" stroke-width="0"/><path d="M250.6055,138.34004c-4.27895,0 -7.74774,-4.32176 -7.74774,-9.65292c0,-5.33115 3.46878,-9.65292 7.74774,-9.65292c4.27895,0 7.74774,4.32176 7.74774,9.65292c0,5.33116 -3.46878,9.65292 -7.74774,9.65292z" fill="url(#color-15)" stroke="url(#color-16)" stroke-width="2.5"/><path d="M250.6055,138.34004c-1.75367,0 -3.1753,-2.78639 -3.1753,-6.22359c0,-3.43719 1.42163,-6.22359 3.1753,-6.22359c1.75367,0 3.1753,2.78639 3.1753,6.22359c0,3.4372 -1.42163,6.22359 -3.1753,6.22359z" fill="url(#color-17)" stroke="url(#color-18)" stroke-width="1.5"/></g><g stroke-linecap="butt"><path d="M244.76295,240.45774l-15.24145,1.77817v-21.84607l15.24145,1.77817c0,0 7.62072,0.15123 7.62072,9.65292c0,8.32221 -7.62072,8.63682 -7.62072,8.63682z" fill="url(#color-19)" stroke="none" stroke-width="0"/><path d="M229.3945,221.65996c4.27895,0 7.74774,4.32176 7.74774,9.65292c0,5.33115 -3.46878,9.65292 -7.74774,9.65292c-4.27895,0 -7.74774,-4.32176 -7.74774,-9.65292c0,-5.33115 3.46878,-9.65292 7.74774,-9.65292z" fill="url(#color-20)" stroke="url(#color-21)" stroke-width="2.5"/><path d="M229.3945,221.65996c1.75367,0 3.1753,2.7864 3.1753,6.22359c0,3.4372 -1.42163,6.22359 -3.1753,6.22359c-1.75367,0 -3.1753,-2.78639 -3.1753,-6.22359c0,-3.43719 1.42163,-6.22359 3.1753,-6.22359z" fill="url(#color-22)" stroke="url(#color-23)" stroke-width="1.5"/></g><path d="M238.15833,137.36629c0,0 -3.30231,-3.22285 -3.30231,-8.89084c0,-5.75282 3.30231,-7.87475 3.30231,-7.87475" fill="none" stroke="#ffffff" stroke-width="4.5" stroke-linecap="round"/><path d="M241.84167,222.63373c0,0 3.30231,3.22285 3.30231,8.89084c0,5.75282 -3.30231,7.87475 -3.30231,7.87475" fill="none" stroke="#ffffff" stroke-width="4.5" stroke-linecap="round"/></g><path d="M204.27799,179.26982c0,-19.36053 15.69481,-35.05534 35.05534,-35.05534c15.10488,0 -29.0907,17.70153 -28.26754,34.22478c0.91806,18.42797 45.11365,35.88589 28.26754,35.88589c-19.36052,0 -35.05534,-15.69481 -35.05534,-35.05534z" fill="none" stroke="url(#color-24)" stroke-width="5" stroke-linecap="butt"/><path d="M239.33333,214.32516c-16.84611,0 27.34949,-17.45792 28.26754,-35.88589c0.82316,-16.52324 -43.37244,-34.22478 -28.26754,-34.22478c19.36052,0 35.05534,15.69481 35.05534,35.05534c0,19.36052 -15.69481,35.05534 -35.05534,35.05534z" data-paper-data="{&quot;index&quot;:null}" fill="none" stroke="url(#color-25)" stroke-width="5" stroke-linecap="butt"/><path d="M204.44467,177.26982c0,-18.16391 14.72475,-32.88866 32.88866,-32.88866c18.16391,0 32.88866,14.72475 32.88866,32.88866c0,18.16391 -14.72475,32.88867 -32.88866,32.88867c-18.16391,0 -32.88866,-14.72475 -32.88866,-32.88867z" fill="url(#color-26)" stroke="url(#color-27)" stroke-width="5" stroke-linecap="butt"/><path d="M217.50873,177.93649c0,-11.31702 9.17426,-20.49129 20.49127,-20.49129c11.31702,0 20.49127,9.17427 20.49127,20.49129c0,11.31702 -9.17426,20.49129 -20.49127,20.49129c-11.31702,0 -20.49127,-9.17427 -20.49127,-20.49129z" fill="url(#color-28)" stroke="url(#color-29)" stroke-width="2.5" stroke-linecap="butt"/><path d="M270.17639,177.93649c0,5.70527 -7.58203,10.33032 -16.93494,10.33032c-9.35292,0 -16.93494,-4.62503 -16.93494,-10.33032c0,-5.70527 7.58203,-10.33032 16.93494,-10.33032c9.35292,0 16.93494,4.62503 16.93494,10.33032z" fill="url(#color-30)" stroke="url(#color-31)" stroke-width="2.5" stroke-linecap="butt"/><path d="M229.53254,177.93649c0,-4.67645 3.79102,-8.46746 8.46748,-8.46746c4.67645,0 8.46748,3.79102 8.46748,8.46746c0,4.67645 -3.79102,8.46746 -8.46748,8.46746c-4.67645,0 -8.46748,-3.79102 -8.46748,-8.46746z" fill="#ff0000" stroke="url(#color-32)" stroke-width="5" stroke-linecap="butt"/></g></g></svg>