<svg version="1.1" xmlns="http://www.w3.org/2000/svg" xmlns:xlink="http://www.w3.org/1999/xlink" width="81.77145" height="81.77145" viewBox="0,0,81.77145,81.77145"><defs><radialGradient cx="240.03388" cy="180.03388" r="38.71328" gradientUnits="userSpaceOnUse" id="color-1"><stop offset="0" stop-color="#ff0000"/><stop offset="1" stop-color="#ff0000" stop-opacity="0"/></radialGradient><linearGradient x1="205.07051" y1="211.47381" x2="216.72497" y2="199.81935" gradientUnits="userSpaceOnUse" id="color-2"><stop offset="0" stop-color="#800000"/><stop offset="1" stop-color="#ff0000"/></linearGradient><linearGradient x1="213.13377" y1="218.1819" x2="223.43305" y2="207.88261" gradientUnits="userSpaceOnUse" id="color-3"><stop offset="0" stop-color="#808080"/><stop offset="1" stop-color="#404040"/></linearGradient><linearGradient x1="213.13377" y1="218.1819" x2="223.43305" y2="207.88261" gradientUnits="userSpaceOnUse" id="color-4"><stop offset="0" stop-color="#4d4d4d"/><stop offset="1" stop-color="#000000"/></linearGradient><linearGradient x1="216.79273" y1="214.52294" x2="223.43305" y2="207.88261" gradientUnits="userSpaceOnUse" id="color-5"><stop offset="0" stop-color="#808080"/><stop offset="1" stop-color="#404040"/></linearGradient><linearGradient x1="216.79273" y1="214.52294" x2="223.43305" y2="207.88261" gradientUnits="userSpaceOnUse" id="color-6"><stop offset="0" stop-color="#4d4d4d"/><stop offset="1" stop-color="#000000"/></linearGradient><linearGradient x1="274.92949" y1="148.52619" x2="263.27504" y2="160.18065" gradientUnits="userSpaceOnUse" id="color-7"><stop offset="0" stop-color="#800000"/><stop offset="1" stop-color="#ff0000"/></linearGradient><linearGradient x1="266.86624" y1="141.8181" x2="256.56694" y2="152.11739" gradientUnits="userSpaceOnUse" id="color-8"><stop offset="0" stop-color="#808080"/><stop offset="1" stop-color="#404040"/></linearGradient><linearGradient x1="266.86624" y1="141.8181" x2="256.56694" y2="152.11739" gradientUnits="userSpaceOnUse" id="color-9"><stop offset="0" stop-color="#4d4d4d"/><stop offset="1" stop-color="#000000"/></linearGradient><linearGradient x1="263.20728" y1="145.47706" x2="256.56694" y2="152.11739" gradientUnits="userSpaceOnUse" id="color-10"><stop offset="0" stop-color="#808080"/><stop offset="1" stop-color="#404040"/></linearGradient><linearGradient x1="263.20728" y1="145.47706" x2="256.56694" y2="152.11739" gradientUnits="userSpaceOnUse" id="color-11"><stop offset="0" stop-color="#4d4d4d"/><stop offset="1" stop-color="#000000"/></linearGradient><linearGradient x1="271.47381" y1="214.92949" x2="259.81935" y2="203.27504" gradientUnits="userSpaceOnUse" id="color-12"><stop offset="0" stop-color="#800000"/><stop offset="1" stop-color="#ff0000"/></linearGradient><linearGradient x1="278.1819" y1="206.86624" x2="267.88261" y2="196.56695" gradientUnits="userSpaceOnUse" id="color-13"><stop offset="0" stop-color="#808080"/><stop offset="1" stop-color="#404040"/></linearGradient><linearGradient x1="278.1819" y1="206.86624" x2="267.88261" y2="196.56695" gradientUnits="userSpaceOnUse" id="color-14"><stop offset="0" stop-color="#4d4d4d"/><stop offset="1" stop-color="#000000"/></linearGradient><linearGradient x1="274.52294" y1="203.20728" x2="267.88261" y2="196.56695" gradientUnits="userSpaceOnUse" id="color-15"><stop offset="0" stop-color="#808080"/><stop offset="1" stop-color="#404040"/></linearGradient><linearGradient x1="274.52294" y1="203.20728" x2="267.88261" y2="196.56695" gradientUnits="userSpaceOnUse" id="color-16"><stop offset="0" stop-color="#4d4d4d"/><stop offset="1" stop-color="#000000"/></linearGradient><linearGradient x1="208.52619" y1="145.07051" x2="220.18065" y2="156.72497" gradientUnits="userSpaceOnUse" id="color-17"><stop offset="0" stop-color="#800000"/><stop offset="1" stop-color="#ff0000"/></linearGradient><linearGradient x1="201.8181" y1="153.13377" x2="212.11739" y2="163.43306" gradientUnits="userSpaceOnUse" id="color-18"><stop offset="0" stop-color="#808080"/><stop offset="1" stop-color="#404040"/></linearGradient><linearGradient x1="201.8181" y1="153.13377" x2="212.11739" y2="163.43306" gradientUnits="userSpaceOnUse" id="color-19"><stop offset="0" stop-color="#4d4d4d"/><stop offset="1" stop-color="#000000"/></linearGradient><linearGradient x1="205.47706" y1="156.79272" x2="212.11739" y2="163.43306" gradientUnits="userSpaceOnUse" id="color-20"><stop offset="0" stop-color="#808080"/><stop offset="1" stop-color="#404040"/></linearGradient><linearGradient x1="205.47706" y1="156.79272" x2="212.11739" y2="163.43306" gradientUnits="userSpaceOnUse" id="color-21"><stop offset="0" stop-color="#4d4d4d"/><stop offset="1" stop-color="#000000"/></linearGradient><linearGradient x1="221.33254" y1="198.73522" x2="242.07467" y2="177.99309" gradientUnits="userSpaceOnUse" id="color-22"><stop offset="0" stop-color="#ff0000"/><stop offset="1" stop-color="#ff0000" stop-opacity="0"/></linearGradient><linearGradient x1="258.73522" y1="161.33254" x2="237.99309" y2="182.07467" gradientUnits="userSpaceOnUse" id="color-23"><stop offset="0" stop-color="#ff0000"/><stop offset="1" stop-color="#ff0000" stop-opacity="0"/></linearGradient><linearGradient x1="222.59736" y1="197.47039" x2="257.47039" y2="162.59737" gradientUnits="userSpaceOnUse" id="color-24"><stop offset="0" stop-color="#000000"/><stop offset="1" stop-color="#595959"/></linearGradient><linearGradient x1="222.59736" y1="197.47039" x2="257.47039" y2="162.59737" gradientUnits="userSpaceOnUse" id="color-25"><stop offset="0" stop-color="#404040"/><stop offset="1" stop-color="#000000"/></linearGradient><linearGradient x1="229.10218" y1="190.96558" x2="250.96558" y2="169.10218" gradientUnits="userSpaceOnUse" id="color-26"><stop offset="0" stop-color="#000000"/><stop offset="1" stop-color="#404040"/></linearGradient><linearGradient x1="229.10218" y1="190.96558" x2="250.96558" y2="169.10218" gradientUnits="userSpaceOnUse" id="color-27"><stop offset="0" stop-color="#404040"/><stop offset="1" stop-color="#000000"/></linearGradient><linearGradient x1="253.67592" y1="177.41389" x2="242.65387" y2="166.39184" gradientUnits="userSpaceOnUse" id="color-28"><stop offset="0" stop-color="#808080"/><stop offset="1" stop-color="#000000"/></linearGradient><linearGradient x1="239.13044" y1="180.93733" x2="257.19936" y2="162.8684" gradientUnits="userSpaceOnUse" id="color-29"><stop offset="0" stop-color="#404040"/><stop offset="1" stop-color="#000000"/></linearGradient><linearGradient x1="235.51665" y1="184.55111" x2="244.55111" y2="175.51665" gradientUnits="userSpaceOnUse" id="color-30"><stop offset="0" stop-color="#404040"/><stop offset="1" stop-color="#000000"/></linearGradient></defs><g transform="translate(-199.11427,-139.11427)"><g data-paper-data="{&quot;isPaintingLayer&quot;:true}" fill-rule="nonzero" stroke-linejoin="miter" stroke-miterlimit="10" stroke-dasharray="" stroke-dashoffset="0" style="mix-blend-mode: normal"><g data-paper-data="{&quot;index&quot;:null}"><path d="M212.65945,152.65946c15.11848,-15.11847 39.63037,-15.11847 54.74885,0c15.11847,15.11847 15.11848,39.63037 0,54.74885c-15.11847,15.11847 -39.63037,15.11847 -54.74885,-0.00001c-15.11848,-15.11847 -15.11847,-39.63037 0,-54.74884z" fill="url(#color-1)" stroke="none" stroke-width="0" stroke-linecap="butt"/><g><path d="M206.35792,213.70984l67.35192,-67.35192" fill="none" stroke="#000000" stroke-width="5" stroke-linecap="round"/><g stroke-linecap="butt"><path d="M205.7481,201.03901c5.06897,-5.06897 9.21515,-1.08414 9.21515,-1.08414l9.07963,7.1824l-11.65445,11.65446l-7.1824,-9.07964c0,0 -3.89767,-4.23334 0.54207,-8.67308z" fill="url(#color-2)" stroke="none" stroke-width="0"/><path d="M222.41667,217.16552c-2.84407,2.84407 -7.00017,3.29912 -9.28291,1.01638c-2.28274,-2.28274 -1.82769,-6.43884 1.01638,-9.28291c2.84407,-2.84407 7.00017,-3.29912 9.28291,-1.01638c2.28274,2.28274 1.82769,6.43884 -1.01638,9.28291z" fill="url(#color-3)" stroke="url(#color-4)" stroke-width="2.5"/><path d="M221.80685,212.89674c-1.83367,1.83368 -4.07858,2.56175 -5.01412,1.6262c-0.93555,-0.93555 -0.20748,-3.18045 1.6262,-5.01413c1.83368,-1.83368 4.07858,-2.56176 5.01413,-1.6262c0.93555,0.93555 0.20747,3.18045 -1.62621,5.01413z" fill="url(#color-5)" stroke="url(#color-6)" stroke-width="1.5"/></g><g stroke-linecap="butt"><path d="M274.25191,158.961c-5.06897,5.06897 -9.21515,1.08413 -9.21515,1.08413l-9.07963,-7.1824l11.65445,-11.65446l7.1824,9.07963c0,0 3.89767,4.23334 -0.54207,8.67308z" fill="url(#color-7)" stroke="none" stroke-width="0"/><path d="M257.58333,142.83448c2.84407,-2.84407 7.00017,-3.29912 9.28291,-1.01638c2.28274,2.28274 1.82769,6.43884 -1.01638,9.28291c-2.84407,2.84407 -7.00017,3.29912 -9.28291,1.01638c-2.28274,-2.28274 -1.82769,-6.43884 1.01638,-9.28291z" fill="url(#color-8)" stroke="url(#color-9)" stroke-width="2.5"/><path d="M258.19315,147.10326c1.83368,-1.83368 4.07858,-2.56175 5.01413,-1.6262c0.93555,0.93555 0.20748,3.18045 -1.6262,5.01412c-1.83367,1.83367 -4.07858,2.56176 -5.01413,1.6262c-0.93555,-0.93555 -0.20747,-3.18046 1.6262,-5.01413z" fill="url(#color-10)" stroke="url(#color-11)" stroke-width="1.5"/></g><path d="M207.32912,210.70588c0,0 -0.62972,-2.89373 2.4393,-5.96275c3.02376,-3.02376 6.50481,-2.98137 6.50481,-2.98137" fill="none" stroke="#000000" stroke-width="2" stroke-linecap="round"/><path d="M272.67087,149.29412c0,0 0.62972,2.89373 -2.43931,5.96274c-3.02376,3.02376 -6.50481,2.98137 -6.50481,2.98137" fill="none" stroke="#000000" stroke-width="2" stroke-linecap="round"/></g><g><path d="M273.70984,213.64208l-67.35192,-67.35192" fill="none" stroke="#000000" stroke-width="5" stroke-linecap="round"/><g stroke-linecap="butt"><path d="M261.039,214.25191c-5.06897,-5.06897 -1.08413,-9.21515 -1.08413,-9.21515l7.1824,-9.07964l11.65445,11.65446l-9.07963,7.1824c0,0 -4.23335,3.89767 -8.67309,-0.54207z" fill="url(#color-12)" stroke="none" stroke-width="0"/><path d="M277.16552,197.58333c2.84407,2.84407 3.29912,7.00017 1.01638,9.28291c-2.28274,2.28274 -6.43884,1.82769 -9.28291,-1.01638c-2.84407,-2.84407 -3.29912,-7.00017 -1.01638,-9.28291c2.28274,-2.28274 6.43884,-1.82769 9.28291,1.01638z" fill="url(#color-13)" stroke="url(#color-14)" stroke-width="2.5"/><path d="M272.89674,198.19315c1.83368,1.83367 2.56175,4.07858 1.6262,5.01413c-0.93555,0.93555 -3.18045,0.20747 -5.01413,-1.6262c-1.83368,-1.83367 -2.56176,-4.07858 -1.62621,-5.01413c0.93555,-0.93555 3.18045,-0.20747 5.01413,1.6262z" fill="url(#color-15)" stroke="url(#color-16)" stroke-width="1.5"/></g><g stroke-linecap="butt"><path d="M218.961,145.7481c5.06897,5.06897 1.08413,9.21515 1.08413,9.21515l-7.1824,9.07963l-11.65446,-11.65445l9.07964,-7.1824c0,0 4.23334,-3.89767 8.67308,0.54207z" fill="url(#color-17)" stroke="none" stroke-width="0"/><path d="M202.83448,162.41667c-2.84407,-2.84407 -3.29912,-7.00017 -1.01638,-9.28291c2.28274,-2.28274 6.43884,-1.82769 9.28291,1.01638c2.84407,2.84407 3.29912,7.00017 1.01638,9.28291c-2.28274,2.28274 -6.43884,1.82769 -9.28291,-1.01638z" fill="url(#color-18)" stroke="url(#color-19)" stroke-width="2.5"/><path d="M207.10326,161.80685c-1.83367,-1.83368 -2.56175,-4.07858 -1.6262,-5.01413c0.93555,-0.93555 3.18045,-0.20747 5.01412,1.6262c1.83368,1.83367 2.56176,4.07858 1.62621,5.01413c-0.93555,0.93555 -3.18045,0.20747 -5.01413,-1.6262z" fill="url(#color-20)" stroke="url(#color-21)" stroke-width="1.5"/></g><path d="M270.70588,212.67088c0,0 -2.89373,0.62972 -5.96275,-2.4393c-3.02376,-3.02376 -2.98137,-6.50481 -2.98137,-6.50481" fill="none" stroke="#000000" stroke-width="2" stroke-linecap="round"/><path d="M209.29412,147.32913c0,0 2.89373,-0.62972 5.96274,2.4393c3.02376,3.02376 2.98137,6.50481 2.98137,6.50481" fill="none" stroke="#000000" stroke-width="2" stroke-linecap="round"/></g><path d="M221.33254,161.33254c8.98707,-8.98707 -5.27696,23.90389 4.06425,34.22462c8.37569,9.25397 41.3966,-4.8801 33.33844,3.17807c-10.32846,10.32846 -27.07422,10.32846 -37.40268,-0.00001c-10.32846,-10.32846 -10.32847,-27.07421 0,-37.40268z" fill="none" stroke="url(#color-22)" stroke-width="5" stroke-linecap="butt"/><path d="M258.73522,161.33254c10.32846,10.32847 10.32847,27.07422 0.00001,37.40268c-8.05817,8.05817 6.07591,-24.96275 -3.17807,-33.33844c-10.32073,-9.3412 -43.21169,4.92282 -34.22462,-4.06425c10.32846,-10.32846 27.07421,-10.32846 37.40267,0z" data-paper-data="{&quot;index&quot;:null}" fill="none" stroke="url(#color-23)" stroke-width="5" stroke-linecap="butt"/><path d="M222.59736,162.59737c9.62992,-9.62992 25.24311,-9.62992 34.87303,0c9.62992,9.62992 9.62992,25.2431 0,34.87302c-9.62992,9.62992 -25.2431,9.62992 -34.87303,0c-9.62992,-9.62992 -9.62992,-25.24311 0,-34.87303z" fill="url(#color-24)" stroke="url(#color-25)" stroke-width="4" stroke-linecap="butt"/><path d="M229.10218,169.10218c6.03741,-6.03741 15.82599,-6.03741 21.8634,0c6.03741,6.03741 6.03741,15.82599 0,21.8634c-6.03741,6.03741 -15.82599,6.03741 -21.8634,0c-6.03741,-6.03741 -6.03741,-15.82599 0,-21.8634z" fill="url(#color-26)" stroke="url(#color-27)" stroke-width="2.5" stroke-linecap="butt"/><path d="M253.67592,177.41389c-4.9896,4.98959 -11.50183,6.56709 -14.54548,3.52344c-3.04366,-3.04366 -1.46616,-9.55589 3.52344,-14.54549c4.9896,-4.9896 11.50183,-6.56709 14.54549,-3.52344c3.04366,3.04365 1.46615,9.55589 -3.52344,14.54548z" fill="url(#color-28)" stroke="url(#color-29)" stroke-width="2.5" stroke-linecap="butt"/><path d="M235.51665,175.51665c2.4948,-2.4948 6.53966,-2.49481 9.03446,-0.00001c2.4948,2.4948 2.4948,6.53967 0,9.03447c-2.4948,2.4948 -6.53967,2.4948 -9.03446,0c-2.4948,-2.4948 -2.4948,-6.53966 0,-9.03446z" fill="#ff0000" stroke="url(#color-30)" stroke-width="5" stroke-linecap="butt"/></g></g></g></svg>