<svg version="1.1" xmlns="http://www.w3.org/2000/svg" xmlns:xlink="http://www.w3.org/1999/xlink" width="37.6" height="43.6" viewBox="0,0,37.6,43.6"><g transform="translate(-221.20009,-158.2)"><g data-paper-data="{&quot;isPaintingLayer&quot;:true}" fill-rule="nonzero" stroke="none" stroke-linecap="butt" stroke-linejoin="miter" stroke-miterlimit="10" stroke-dasharray="" stroke-dashoffset="0" style="mix-blend-mode: normal"><path d="M221.20009,201.8v-43.6h37.6v43.6z" fill="none" stroke-width="0"/><path d="M233.25583,191.599v-16.30836c0,-0.94895 0.30502,-1.68777 0.91506,-2.21648c0.62359,-0.5287 1.34208,-0.79305 2.15547,-0.79305c1.95212,0 2.92819,0.83372 2.92819,2.50115h0.08133c0.61004,-0.88117 1.23363,-1.51831 1.87078,-1.91144c0.63715,-0.39314 1.41665,-0.58971 2.33848,-0.58971c0.77271,0 1.45053,0.27791 2.03346,0.83372c0.58293,0.55581 0.87439,1.34886 0.87439,2.37916c0,0.59648 -0.1559,1.05062 -0.4677,1.36242c-0.29824,0.3118 -0.71171,0.57615 -1.24041,0.79305c-0.5287,0.21691 -1.15229,0.46769 -1.87079,0.75236c-1.19296,0.54226 -2.09446,1.08453 -2.7045,1.62679c-0.61004,0.52868 -0.91506,1.32173 -0.91506,2.37913v9.19126c0,0.6507 -0.12879,1.23362 -0.38636,1.74876c-0.25757,0.50159 -0.61682,0.89473 -1.07773,1.17942c-0.46092,0.27112 -0.97606,0.40669 -1.54543,0.40669c-0.89472,0 -1.61999,-0.30501 -2.1758,-0.91504c-0.54226,-0.62361 -0.81338,-1.43021 -0.81338,-2.41982z" fill="#ff0000" stroke-width="0.40889"/></g></g></svg>