<svg version="1.1" xmlns="http://www.w3.org/2000/svg" xmlns:xlink="http://www.w3.org/1999/xlink" width="581.95214" height="213.00462" viewBox="0,0,581.95214,213.00462"><defs><linearGradient x1="-50.57695" y1="276.11326" x2="532.37513" y2="276.11326" gradientUnits="userSpaceOnUse" id="color-1"><stop offset="0" stop-color="#7c7c7c"/><stop offset="1" stop-color="#d4d4d4"/></linearGradient><radialGradient cx="169.95175" cy="231.98944" r="65.14217" gradientUnits="userSpaceOnUse" id="color-2"><stop offset="0" stop-color="#44f26d"/><stop offset="1" stop-color="#00d131"/></radialGradient><radialGradient cx="110.34125" cy="236.4832" r="19.35148" gradientUnits="userSpaceOnUse" id="color-3"><stop offset="0" stop-color="#04ff00"/><stop offset="1" stop-color="#04ff00" stop-opacity="0"/></radialGradient><linearGradient x1="154.94046" y1="220.63568" x2="154.94046" y2="224.74658" gradientUnits="userSpaceOnUse" id="color-4"><stop offset="0" stop-color="#ffffff"/><stop offset="1" stop-color="#ffffff" stop-opacity="0"/></linearGradient><linearGradient x1="132.22327" y1="222.0864" x2="132.22327" y2="225.58568" gradientUnits="userSpaceOnUse" id="color-5"><stop offset="0" stop-color="#ffffff"/><stop offset="1" stop-color="#ffffff" stop-opacity="0"/></linearGradient><radialGradient cx="170.75243" cy="245.47424" r="31.53153" gradientUnits="userSpaceOnUse" id="color-6"><stop offset="0" stop-color="#ff0031"/><stop offset="1" stop-color="#ff0031" stop-opacity="0"/></radialGradient><linearGradient x1="276.78695" y1="245.05025" x2="276.78695" y2="255.43914" gradientUnits="userSpaceOnUse" id="color-7"><stop offset="0" stop-color="#47ff72"/><stop offset="1" stop-color="#00a526"/></linearGradient><linearGradient x1="228.28696" y1="254.21692" x2="228.28696" y2="257.88358" gradientUnits="userSpaceOnUse" id="color-8"><stop offset="0" stop-color="#47ff72"/><stop offset="1" stop-color="#00a526"/></linearGradient></defs><g transform="translate(49.57701,-164.11095)"><g data-paper-data="{&quot;isPaintingLayer&quot;:true}" fill-rule="nonzero" stroke-linecap="butt" stroke-linejoin="miter" stroke-miterlimit="10" stroke-dasharray="" stroke-dashoffset="0" style="mix-blend-mode: normal"><path d="M495.06778,164.11095l37.30735,191.43175c0,0 -58.72326,20.39167 -58.9561,20.41123c-31.23589,2.62409 -61.82285,0.23707 -93.07879,-1.61052c-29.84678,-1.7643 -59.59691,-1.5236 -89.46769,-1.5236c-77.07708,0 -154.15415,0 -231.23123,0c-24.52452,0 -49.04905,0 -73.57357,0c-5.69604,0 -18.60426,-0.00309 -27.26649,0.01906c0.27438,-2.71316 0.71561,-5.41644 1.16332,-8.10267c0.0507,-13.9949 -9.63043,-133.97128 -9.54097,-147.89133c25.43984,-2.71731 544.64417,-52.73392 544.64417,-52.73392z" fill="url(#color-1)" stroke="#000000" stroke-width="0"/><g data-paper-data="{&quot;index&quot;:null}" stroke="none"><path d="M151.2392,227.22198c2.29363,0.81444 4.97117,1.33194 7.25824,1.33421c0.20851,-0.00023 0.8915,0.06315 1.41164,0.0524c0.4856,0.26281 1.01617,0.4264 1.67817,0.30058c0.01062,0.7661 1.48972,1.03398 2.33343,1.49026c1.83284,0.99122 3.37751,1.82112 4.86595,3.29016c0.17228,0.20026 0.23515,0.45794 0.35809,0.6847c0.66886,1.23373 -1.19491,1.07656 -1.98394,1.64732c-0.31229,0.2259 -0.36645,0.55165 -0.85367,0.74059c-0.64708,0.25092 -2.3311,-0.4245 -2.86319,0.04447c-0.08469,0.07465 -0.06804,0.82035 -0.06804,0.96371c0,0.2174 0.16736,1.83113 0.06264,1.90556c-0.1188,0.08443 -0.34826,-0.08194 -0.45765,0.01185c-0.12001,0.1029 0.02866,0.31797 -0.06771,0.43863c-0.09104,0.11399 -0.34917,0.06034 -0.42752,0.18142c-0.15471,0.23909 -0.03486,1.1023 0.02716,1.37335c0.18995,0.83004 1.21497,1.25258 1.61206,2.00614c0.21123,0.40085 0.29136,0.86826 -0.37248,0.73379c-1.75527,-0.52387 -3.4923,-0.94415 -5.02615,-1.86782c-0.31972,-0.19253 -1.24685,-0.60072 -1.41282,-0.89838c-0.24767,-0.44418 0.19003,-1.42318 0.35281,-1.8484c0.07018,-0.18357 0.61663,-1.20296 0.47602,-1.3331c-0.60918,-0.56378 -1.4248,0.77223 -1.66416,1.05287c-0.58404,0.68478 -1.2022,1.6895 -1.95515,2.22799c-0.31928,0.22834 -1.06412,0.22941 -1.3084,0.42742c-0.42347,0.34327 -0.56162,1.018 -0.59724,1.55457c-0.02882,0.10117 -0.70552,1.57816 -0.89,1.07754c-0.13939,-0.37824 0.03266,-1.12271 0.03266,-1.5332c-0.00002,-1.28414 0.2307,-2.81339 -0.08046,-4.10835l0.05699,-0.0045l-0.04121,-0.40579c-0.00937,-0.1055 -0.10948,-0.18854 -0.2316,-0.18854c-0.10704,0 -0.19717,0.0638 -0.22411,0.1506l-0.11854,0.35013c-1.06834,0.89877 -2.58305,1.9585 -4.21509,1.3228c-0.42459,-0.16538 -0.63604,-0.64702 -1.12116,-0.76986c-0.5962,-0.15097 -1.44547,0.06086 -1.97001,0.28802c-1.05413,0.4626 -2.25587,0.80069 -3.44372,0.9224c-0.32517,0.03332 -0.56923,-0.05018 -0.89607,-0.01214c-0.09431,0.01098 -0.22406,0.16513 -0.26645,0.09008c-0.00731,-0.01293 0.92287,-1.04171 1.00001,-1.15298c0.10944,-0.15787 0.27763,-0.32085 0.26065,-0.50525c-0.01839,-0.19974 -0.55063,-0.42628 -0.34794,-0.51709c0.26756,-0.11988 0.67761,0.12568 0.89842,-0.05349c0.18746,-0.15211 0.20726,-0.41032 0.31089,-0.61548c-1.03709,-0.2445 -3.10427,-0.62703 -3.48267,-1.70714c-0.08714,-0.24874 0.35826,-0.42357 0.41994,-0.56276c0.04759,-0.1074 -0.1457,-0.26409 -0.05035,-0.34305c0.1128,-0.09341 0.35475,0.09651 0.46437,0.0002c0.11006,-0.0967 -0.10581,-0.31314 0.00308,-0.41087c0.10548,-0.09466 0.33803,0.0899 0.45161,0.00283c0.11744,-0.09004 -0.03541,-0.30919 0.07458,-0.40624c0.18211,-0.16069 1.75778,-0.35645 2.09645,-0.35436c0.39975,0 1.74062,0.16959 2.02819,-0.10394c0.42333,-0.40267 -0.34081,-1.6754 0.10929,-2.03279c0.4343,-0.34484 1.79369,-0.42853 0.84648,-1.18115c-0.70092,-0.55693 -2.51522,-0.91269 -3.42464,-1.24471c-0.20457,-0.18702 -0.41041,-0.37295 -0.61721,-0.55805c-0.2394,-0.21428 -1.11653,-1.14383 -0.44421,-1.46125c0.20182,-0.09528 1.02923,0.02783 1.27391,0.02648c0.94896,-0.00525 2.39934,0.17933 3.29665,-0.08243c0.73624,-0.21477 0.69781,-0.52528 0.29119,-0.73172c1.05835,0.02062 3.23542,0.36797 3.41199,-0.65956c0.01973,-0.04162 0.04734,-0.11996 0.07994,-0.2155l0.31391,0.2901l0.06709,-0.05638c0.47774,0.37729 0.98555,0.40591 1.54289,0.85813c0.25959,0.21062 0.24202,0.83919 0.94412,0.51961c0.13694,-0.06233 0.19627,-0.23148 0.21205,-0.43466zM148.51087,225.24719c0.86317,-0.51052 2.23328,0.52771 2.41393,1.4157c-0.57627,-0.22172 -1.12167,-0.46212 -1.6217,-0.71682c-0.15089,-0.07467 -0.30179,-0.14933 -0.45268,-0.22399l-0.05493,0.00669l0.00086,-0.01483l-0.46225,-0.02068c-0.00449,-0.00023 -0.00901,-0.00034 -0.01357,-0.00034c-0.01381,0 -0.02734,0.00106 -0.04049,0.0031c0.07709,-0.21141 0.16093,-0.40749 0.23082,-0.44882zM150.47887,226.93538c0.13974,0.05588 0.28138,0.11065 0.42474,0.16428c-0.02615,0.07353 -0.06526,0.14319 -0.11873,0.20757c-0.10699,0.12882 -0.18879,-0.18252 -0.30601,-0.37185z" fill="#f50000" stroke-width="0.5"/><path d="M134.56841,220.98196c8.8531,0 16.02996,1.74159 16.02996,3.88997c0,2.14838 -7.17686,3.88998 -16.02996,3.88998c-8.8531,0 -16.02995,-1.7416 -16.02995,-3.88998c0,-2.14838 7.17686,-3.88997 16.02995,-3.88997z" fill="#f50000" stroke-width="0"/><path d="M120.86164,224.66721c5.90207,0 10.68664,2.38324 10.68664,5.32313c0,2.93989 -4.78457,5.32313 -10.68664,5.32313c-5.90207,0 -10.68664,-2.38324 -10.68664,-5.32313c0,-2.93989 4.78457,-5.32313 10.68664,-5.32313z" fill="#f50000" stroke-width="0"/><path d="M138.28551,226.30509c4.23409,0 7.6665,1.92493 7.6665,4.29945c0,2.37453 -3.43241,4.29945 -7.6665,4.29945c-4.23409,0 -7.6665,-1.92492 -7.6665,-4.29945c0,-2.37453 3.43241,-4.29945 7.6665,-4.29945z" fill="#00f54f" stroke-width="0"/><path d="M93.68041,218.9346c6.03037,0 10.91895,1.28329 10.91895,2.8663c0,1.58301 -4.88858,2.8663 -10.91895,2.8663c-6.03037,0 -10.91896,-1.28329 -10.91896,-2.8663c0,-1.58301 4.88859,-2.8663 10.91896,-2.8663z" fill="#f50000" stroke-width="0"/><path d="M84.38769,229.99033c10.64938,0 19.28241,1.7416 19.28241,3.88998c0,2.14838 -8.63303,3.88998 -19.28241,3.88998c-10.64938,0 -19.28241,-1.7416 -19.28241,-3.88998c0,-2.14838 8.63303,-3.88998 19.28241,-3.88998z" fill="#f50000" stroke-width="0"/><path d="M93.21577,223.84826c6.03037,0 10.91896,2.19992 10.91896,4.91366c0,2.71374 -4.88859,4.91366 -10.91896,4.91366c-6.03037,0 -10.91896,-2.19992 -10.91896,-4.91366c0,-2.71374 4.88859,-4.91366 10.91896,-4.91366z" fill="#00f54f" stroke-width="0"/><path d="M108.54878,218.9346c9.10971,0 16.49459,1.92493 16.49459,4.29945c0,2.37453 -7.38488,4.29945 -16.49459,4.29945c-9.10971,0 -16.49459,-1.92493 -16.49459,-4.29945c0,-2.37453 7.38488,-4.29945 16.49459,-4.29945z" fill="#f50000" stroke-width="0"/><path d="M113.19514,229.58086c6.28698,0 11.38359,2.65823 11.38359,5.93733c0,3.2791 -5.09661,5.93734 -11.38359,5.93734c-6.28698,0 -11.38359,-2.65824 -11.38359,-5.93734c0,-3.2791 5.09661,-5.93733 11.38359,-5.93733z" fill="#00f54f" stroke-width="0"/><path d="M127.13423,238.99871c3.20765,0 5.80796,1.46662 5.80796,3.27578c0,1.80916 -2.60031,3.27577 -5.80796,3.27577c-3.20765,0 -5.80795,-1.46661 -5.80795,-3.27577c0,-1.80916 2.60031,-3.27578 5.80795,-3.27578z" fill="#f50000" stroke-width="0"/><path d="M71.37787,216.0683c1.41137,0 2.5555,0.36666 2.5555,0.81895c0,0.45229 -1.14413,0.81894 -2.5555,0.81894c-1.41137,0 -2.5555,-0.36665 -2.5555,-0.81894c0,-0.45229 1.14414,-0.81895 2.5555,-0.81895z" fill="#f50000" stroke-width="0"/><path d="M75.09496,219.75355c1.41137,0 2.5555,0.54998 2.5555,1.22842c0,0.67844 -1.14413,1.22841 -2.5555,1.22841c-1.41137,0 -2.5555,-0.54997 -2.5555,-1.22841c0,-0.67844 1.14414,-1.22842 2.5555,-1.22842z" fill="#f50000" stroke-width="0"/><path d="M151.99228,221.8009c1.53967,0 2.78782,0.54998 2.78782,1.22841c0,0.67844 -1.24815,1.22842 -2.78782,1.22842c-1.53967,0 -2.78782,-0.54998 -2.78782,-1.22842c0,-0.67844 1.24815,-1.22841 2.78782,-1.22841z" fill="#f50000" stroke-width="0"/><path d="M86.24623,239.81765c2.95103,0 5.34332,0.45831 5.34332,1.02368c0,0.56537 -2.39228,1.02367 -5.34332,1.02367c-2.95103,0 -5.34332,-0.45831 -5.34332,-1.02367c0,-0.56537 2.39229,-1.02368 5.34332,-1.02368z" fill="#f50000" stroke-width="0"/><path d="M75.55959,225.07668c9.10971,0 16.49459,1.92493 16.49459,4.29945c0,2.37453 -7.38488,4.29945 -16.49459,4.29945c-9.10971,0 -16.49459,-1.92493 -16.49459,-4.29945c0,-2.37453 7.38488,-4.29945 16.49459,-4.29945z" fill="#f50000" stroke-width="0"/><path d="M161.74964,223.02932c2.0529,0 3.71709,0.45831 3.71709,1.02368c0,0.56537 -1.6642,1.02368 -3.71709,1.02368c-2.0529,0 -3.71709,-0.45831 -3.71709,-1.02368c0,-0.56537 1.6642,-1.02368 3.71709,-1.02368z" fill="#00f54f" stroke-width="0"/><path d="M112.26587,227.12403c7.31343,0 13.24214,1.55828 13.24214,3.48051c0,1.92223 -5.9287,3.4805 -13.24214,3.4805c-7.31343,0 -13.24214,-1.55827 -13.24214,-3.4805c0,-1.92223 5.92871,-3.48051 13.24214,-3.48051z" fill="#00f54f" stroke-width="0"/><path d="M134.80074,233.26611c4.10579,0 7.43418,0.54998 7.43418,1.22841c0,0.67844 -3.3284,1.22842 -7.43418,1.22842c-4.10579,0 -7.43418,-0.54998 -7.43418,-1.22842c0,-0.67844 3.3284,-1.22841 7.43418,-1.22841z" fill="#00f54f" stroke-width="0"/><path d="M98.09446,216.47777c5.64545,0 10.222,1.28329 10.222,2.8663c0,1.58301 -4.57654,2.8663 -10.222,2.8663c-5.64545,0 -10.222,-1.28329 -10.222,-2.8663c0,-1.58301 4.57655,-2.8663 10.222,-2.8663z" fill="#00f54f" stroke-width="0"/></g><path d="M134.80718,220.49892c0.16819,0.11538 0.17636,0.23076 0.13869,0.32004c3.32499,-0.15766 6.26718,-0.44506 9.53299,-1.05054c2.20316,-0.40846 4.66445,-0.30202 6.74174,-0.96729c6.02326,-1.89328 13.25218,-2.19924 19.43163,-3.87819c2.31744,-0.26946 4.5676,-0.9606 6.89168,-1.09043l0.25171,-0.0135l0.00155,-0.05206l0.79161,0.01109c0.27202,0.00327 0.49106,0.15557 0.49106,0.34296c0,0.18148 -0.20544,0.33004 -0.46548,0.34221l-0.9925,0.05324c-0.02464,0.00126 -0.04927,0.00259 -0.07389,0.00399c-0.6606,0.29364 -1.68603,0.41493 -2.33362,0.63465c-3.25443,1.10417 -6.93273,1.39198 -10.28313,2.33783c-1.64518,0.46445 -0.70538,1.61834 -2.49646,2.26628c-0.24357,0.07037 -0.48714,0.14073 -0.73072,0.21108c0.46952,0.08528 0.78032,0.34009 0.55727,0.87968c-0.06677,0.16154 -3.3516,1.2728 -2.70017,1.78775c1.83852,1.45335 7.51031,1.09839 7.72583,3.59198c-0.00492,0.56499 0.12129,1.12408 -0.50889,1.60741c-0.1537,0.11789 -0.79441,0.15787 -0.59701,0.23957c1.18371,0.48993 3.34684,-0.32079 4.53544,0.14799c2.37036,0.93487 6.02057,0.63134 9.05045,0.63477l0.99969,0.00002v0c0.27613,0.00001 0.49998,0.15358 0.49998,0.34301c0,0.16614 -0.17218,0.3047 -0.40081,0.33626l-0.9664,0.14783l-0.02086,-0.06417c-2.34286,0.67078 -5.01699,0.99785 -7.45628,1.57341c3.47463,-0.11299 7.3393,0.63376 10.60061,1.13437l0.08347,0.08331l0.03416,-0.02343l0.66667,0.45735c0.09048,0.06207 0.14645,0.14783 0.14645,0.24255c0,0.18944 -0.22386,0.34301 -0.5,0.34301h-1v-0.03195c-3.33137,0.33091 -6.55859,0.15533 -9.88512,0.48013c-0.85264,0.08325 -0.65277,0.95976 -1.12377,1.27357c-0.84593,0.56361 -3.2531,0.56501 -4.32444,0.56501c-0.45083,-0.0075 -4.05955,0.26635 -4.24134,0.52334c-0.58531,0.82743 0.48673,3.10919 -0.40511,3.72101c-0.38343,0.26304 -1.71073,-0.3989 -1.62612,-0.03145c0.1524,0.66182 1.06096,1.43038 1.81935,1.77704l0.0343,0.09324l0.04012,-0.01241l0.40655,0.61867c0.03116,0.04473 0.04861,0.09483 0.04861,0.14771c0,0.18944 -0.22386,0.34301 -0.5,0.34301c-0.06302,0 -0.12331,-0.008 -0.17885,-0.0226l-0.93099,-0.2277l0.04616,-0.08883c-2.17709,-0.4873 -4.10985,-1.54495 -5.83878,-2.57922c-0.5323,-0.31843 -1.77996,-1.64018 -2.19858,-1.77252c-0.08211,-0.02596 -1.87764,1.09265 -2.36045,1.16031c-1.13972,0.15971 -2.62204,0.00918 -3.78154,0.00918c-2.73276,-0.01868 -1.98464,1.45628 -4.21846,1.82022c-4.48905,0.73137 -9.38236,-0.44847 -13.78154,-0.44817c-2.36935,0 -5.14532,-0.24634 -7.65676,-0.05097c-0.87812,0.22706 -1.79869,0.38739 -2.63621,0.46452l0.03827,0.13127l-0.97046,0.13315c-0.03484,0.00527 -0.07104,0.00805 -0.10818,0.00805c-0.27614,0 -0.5,-0.15357 -0.5,-0.34301c0,-0.13815 0.11904,-0.25722 0.29059,-0.31157l0.762,-0.25509l0.00232,0.00326l0.01202,-0.00786c0.38304,-0.1079 0.77862,-0.19662 1.18412,-0.26917c2.24195,-0.86397 5.46352,-0.76285 5.60931,-3.02334c0.02715,-0.42102 -2.8841,-0.9334 -3.23336,-1.09004c-1.43615,-0.64412 -0.96033,-1.80432 -0.96033,-2.82112c0,-0.29761 0.32013,-2.38241 0.14645,-2.50155c-0.48879,-0.33532 -1.69759,0.33652 -2.07177,-0.06221c-1.15872,-1.23474 2.92248,-1.22017 2.93252,-1.38169c0.01982,-0.31891 -0.86473,-0.23619 -1.29074,-0.36454c-1.71695,-0.5173 -3.45958,-0.86835 -5.23126,-1.2815l-0.94086,-0.0105c-0.27286,-0.00261 -0.49288,-0.15517 -0.49288,-0.34298c0,-0.16787 0.17578,-0.30757 0.40796,-0.33721l0.97,-0.13767l0.04203,0.13936c2.87463,-0.55274 7.39593,-0.70414 8.44877,-2.1863c0.59621,-0.83933 -4.10871,-2.27705 -4.8142,-2.75214l-0.62623,-0.42961c-0.09048,-0.06207 -0.14645,-0.14783 -0.14645,-0.24255c0,-0.18944 0.22386,-0.34301 0.5,-0.34301h1v0.04674c2.94032,-0.24677 6.07288,-0.04674 9,-0.04674c1.30903,0 3.20608,0.24946 4.37431,-0.16393l0.60547,-0.42163c0,0 0.35355,-0.24255 0.70711,0zM170.77814,215.6231c0.09674,-0.01869 0.19334,-0.03752 0.28975,-0.05655c-0.04871,0.00588 -0.09744,0.01156 -0.14621,0.01703c-0.04778,0.01326 -0.09563,0.02643 -0.14355,0.03952z" fill="#ff000d" stroke="none" stroke-width="0.5"/><path d="M188.29069,229.16418l0.00209,-0.01114l0.00259,0.00001l-0.00496,0.0633z" data-paper-data="{&quot;noHover&quot;:false,&quot;origItem&quot;:[&quot;Path&quot;,{&quot;applyMatrix&quot;:true,&quot;segments&quot;:[[[446.67202,523.07749],[-0.44561,0.82198],[4.88236,-4.57]],[[462.67358,511.05008],[-4.78262,4.3951],[1.69886,-1.5612]],[[465.07003,505.87755],[-1.17012,1.67972],[2.94906,-4.23341]],[[475.72161,494.33653],[-2.92695,4.59332],[7.68246,-12.03614]],[[483.58742,454.02204],[-4.59185,13.22805],[2.02808,-4.42926]],[[480.46679,438.47856],[3.99221,3.27958],[-0.91985,-0.75566]],[[476.58652,436.48605],[0.57087,1.12401],[-0.51674,-1.01744]],[[477.40936,431.979],[-0.17183,1.0595],[0.85461,-5.26954]],[[478.32942,416.23333],[0.00025,5.35944],[-0.00029,-6.36704]],[[476.6167,396.8557],[2.54917,6.01393],[-0.79617,-1.87829]],[[473.34098,391.74518],[0.66993,1.9416],[-0.7922,-2.29595]],[[470.05244,385.16226],[1.90733,1.89527],[-0.8677,-0.86221]],[[466.93692,383.17806],[1.12651,0.58182],[0,0]],[466.70995,383.61808],[[464.95136,382.71097],[0,0],[-0.33192,-0.16269]],[[464.39091,381.8125],[0,0.39458],[0,-0.55228]],[[465.39091,380.8125],[-0.55228,0],[0,0]],[465.39091,380.8125],[467.39091,380.8125],[467.39091,380.8125],[[467.39091,380.8125],[0,0],[4.75818,0]],[[481.489,381.53462],[-4.71622,-0.67244],[1.31335,0.18726]],[[488.61028,382.07588],[-1.05811,0.56267],[1.13909,-0.60573]],[[485.57544,379.67389],[1.179,0.52382],[-4.43575,-0.88996]],[[472.51077,374.32905],[3.46713,3.0048],[-4.78937,-4.15072]],[[457.67648,361.73103],[6.22854,2.46376],[-2.01254,-0.79608]],[[450.05633,360.17439],[2.24267,0.44968],[-13.79977,-2.79002]],[[408.56991,357.81272],[14.17006,-0.00112],[-13.79079,0.00109]],[[368.3371,364.8576],[12.50215,-5.89546],[-12.37614,5.83567]],[[329.00394,379.86335],[13.09392,-3.97408],[-8.01354,2.42431]],[[305.88425,391.21706],[7.49901,-3.80142],[-3.71082,1.8811]],[[294.34713,395.40449],[4.06162,-0.20187],[0,0]],[294.34332,395.80312],[[292.34462,395.784],[0,0],[-0.42219,-0.00346]],[[291.4193,395.14293],[0.14329,0.37253],[-3.81991,3.873]],[[280.08348,407.58706],[3.21335,-4.07802],[-0.81537,1.03477]],[[278.45482,413.09286],[0.55639,-1.32392],[-2.28707,5.44204]],[[273.09482,429.94609],[1.1722,-5.7267],[-0.8021,3.90328]],[[269.19401,441.51889],[2.06959,-3.45181],[-2.16937,3.61822]],[[258.93896,451.03237],[2.79827,-3.5693],[-2.46451,3.14357]],[[252.08393,460.77134],[2.50669,-3.0564],[0,0]],[252.25351,460.8806],[[251.17913,462.54795],[0,0],[-0.17651,0.28351]],[[250.3296,463.02015],[0.35855,0],[-0.55228,0]],[[249.3296,462.02015],[0,0.55228],[0,-0.00001]],[[249.3296,462.02013],[0,0.00001],[0,0]],[249.32964,460.02013],[249.32964,460.02013],[[249.32964,460.02011],[0,0],[0.00037,-5.18243]],[[250.0191,441.63913],[-2.21521,4.77303],[2.56299,-5.52238]],[[261.75731,430.95307],[-2.90115,4.37882],[0.3089,-0.46623]],[[262.45499,429.43861],[-0.17736,0.53296],[0,0]],[262.00251,429.34813],[[262.39103,427.40512],[0,0],[0.08393,-0.46741]],[[263.37525,426.58303],[-0.49156,0],[0.23712,0]],[[264.00163,426.80346],[-0.17141,-0.1379],[0.26306,-1.03858]],[[264.86072,423.51668],[-0.28847,1.1971],[0.20574,-0.84271]],[[266.5886,414.78878],[0.583,0.29781],[-0.09947,-0.05081]],[[260.54917,418.29987],[0.56279,-0.40028],[-4.02122,2.86002]],[[248.32956,426.46369],[3.79358,-3.07504],[-0.00026,3.82553]],[[248.31639,437.94024],[0.00986,-3.82552],[-0.02421,1.47424]],[[246.61571,444.63272],[1.47416,-0.91129],[-0.9822,0.60717]],[[243.15282,444.53866],[0.5429,-1.01914],[-0.51697,0.97046]],[[242.68908,450.17129],[0.38624,-1.34504],[-2.29575,7.99466]],[[239.35421,475.59311],[-0.04275,-8.30361],[0.02346,4.55677]],[[241.06986,488.98617],[-1.79197,-4.28652],[1.50729,3.60555]],[[247.30336,499.37969],[-0.68025,-3.75245],[1.01174,5.58104]],[[244.34943,515.54971],[1.80056,-5.12616],[-2.77578,3.92529]],[[244.23895,530.6534],[0.10758,-4.52912],[-0.02038,0.85793]],[[243.48273,535.52048],[0.79723,-0.39875],[-3.25261,1.62684]],[[233.6478,527.80216],[1.94919,0.95104],[-1.90217,-0.9281]],[[231.3331,530.02346],[-0.0424,-1.09046],[0.05165,1.32832]],[[231.35415,534.01138],[-0.0102,-1.32929],[0.26508,13.02503]],[[249.98306,570.3291],[-7.00833,-10.38909],[3.41702,4.46577]],[[261.69779,583.64204],[-4.23036,-3.67941],[5.0109,4.35829]],[[276.81067,596.61442],[-4.26931,-5.11689],[0,0]],[276.92965,596.46919],[[278.47031,597.73141],[0,0],[0.22729,0.18331]],[[278.843,598.51022],[0,-0.31473],[0,0.55228]],[[277.843,599.51022],[0.55228,0],[-0.1993,0]],[[277.30207,599.35143],[0.15594,0.10048],[0,0]],[[275.69262,598.35158],[0,0],[-3.50365,-1.27909]],[[276.09163,600.072],[-1.1629,-1.67027],[4.85382,4.41768]],[[291.18186,612.96946],[-4.82177,-4.6015],[1.12478,1.0734]],[[295.4668,618.1398],[0.11204,-1.79127],[-0.00075,0.01199]],[[295.46434,618.17564],[0.00089,-0.0119],[7.85546,-0.73352]],[[319.09409,615.7957],[-7.95102,0.48073],[12.79883,-0.28155]],[[359.86432,608.23344],[-11.8004,4.9858],[5.94035,-2.50986]],[[374.56132,598.58069],[-5.13686,3.31158],[2.6197,-1.68884]],[[382.96146,593.5883],[-2.2411,2.25172],[0.19449,-0.19541]],[[383.61638,592.92734],[-0.24078,0.24254],[-3.78048,0.47205]],[[371.71241,592.83267],[3.86683,0.10502],[-9.39297,8.89091]],[[337.0713,598.86411],[11.79057,0.42187],[-14.01769,-3.78047]],[[300.35433,578.54125],[11.23757,9.06471],[-9.87212,-7.9743]],[[280.42809,551.25693],[4.89272,11.62358],[-1.07639,-2.55716]],[[276.49658,544.28477],[0.92663,2.65037],[-4.56361,-13.27856]],[[272.32976,502.47955],[0.00153,13.9435],[-0.00018,-6.50616]],[[273.0572,482.28743],[-1.67945,6.33324],[0.87048,-3.28262]],[[277.65955,473.33541],[-1.24286,3.13779],[0.54687,-1.38067]],[[283.67703,464.46701],[-1.43137,0.4003],[0.96461,-0.26977]],[[286.51913,465.44256],[-0.94737,-0.32518],[0.86403,1.48069]],[[288.25514,469.98007],[-0.38533,-1.55632],[0.79379,-2.09326]],[[291.54555,464.2036],[-0.97375,1.62598],[4.95491,-8.27375]],[[309.02572,442.23048],[-8.13779,5.59211],[1.63409,-1.1183]],[[313.18318,438.76876],[-1.26576,1.26245],[0,0]],[[312.16481,439.60244],[0,0],[-0.17328,0.1441]],[[311.5258,439.83321],[0.24299,0],[-0.53791,0]],[[310.52671,438.87613],[0.02248,0.53238],[0,0]],[310.4295,436.88433],[[310.78105,436.86718],[0,0],[0.07993,-4.2266]],[[317.42881,426.70851],[-3.71656,3.08161],[3.03832,-2.51924]],[[326.76403,418.99073],[-3.30663,2.14907],[3.92204,-2.54904]],[[339.15818,412.77791],[-3.97793,2.73269],[11.4492,-7.81941]],[[377.44818,395.4596],[-12.40202,5.81822],[4.82324,-2.25613]],[[392.27552,389.84946],[-4.97563,1.76333],[-0.50373,-0.05723]],[[390.77217,389.63816],[0.49837,0.08423],[-0.12875,0.01563]],[[390.40757,389.68366],[0.1141,-0.01472],[0,0]],[390.36421,389.6464],[390.36588,389.68628],[390.31823,389.68827],[390.31741,389.78743],[[388.31853,389.77077],[0,0],[-0.54893,-0.00391]],[[387.32581,388.7708],[0,0.54986],[0,-0.53997]],[[388.28903,387.77146],[-0.53525,0.01935],[0,0]],[[390.25135,387.68932],[0,0],[4.25653,-0.52315]],[[401.55814,386.09866],[-3.84785,-0.28841],[0.07583,-0.03651]],[[401.78548,385.9886],[-0.07572,0.03686],[0,0]],[401.99351,386.13282],[401.98255,385.95638],[402.04493,385.95251],[402.04556,385.82079],[[404.04493,385.83046],[0,0],[0.55034,0.00227]],[[405.04071,386.83045],[0,-0.55088],[0,0.5256]],[[404.12,387.82735],[0.51522,-0.04042],[8.26656,0.08198]],[[428.19424,391.5168],[-7.97257,-3.09936],[7.52991,2.9401]],[[450.39923,400.69038],[-6.83876,-4.10988],[0,0]],[450.45141,400.75948],[450.46562,400.74306],[[451.97365,402.04742],[0,0],[0.21449,0.18341]],[[452.3241,402.80776],[0,-0.30434],[0,0.55197]],[[451.32505,403.80776],[0.55185,-0.00051],[-0.00004,0]],[[451.32493,403.80776],[0.00004,0],[0,0]],[449.32505,403.80966],[[449.32488,403.62476],[0,0],[-2.64414,0.27232]],[[441.32414,403.81245],[2.73204,-0.0001],[-1.06149,0.00004]],[[438.17533,403.33729],[0.96186,-0.44897],[-0.85026,0.39688]],[[440.41384,405.04411],[-0.74233,-0.57394],[1.60967,1.24455]],[[445.41338,408.16359],[-1.69852,-1.09625],[4.73505,3.05609]],[[457.07079,419.48584],[-2.95109,-4.79042],[4.02721,6.58023]],[[466.05733,441.86259],[-2.48776,-7.26917],[0.43021,1.25708]],[[469.16815,449.81088],[0.4416,-1.01303],[-1.47762,3.38965]],[[464.64846,449.6833],[1.3462,2.05348],[0.43577,1.94632]],[[465.65885,455.37464],[-0.34181,-1.70503],[1.8448,9.20235]],[[467.32947,483.44594],[-0.00078,-9.36863],[0.00029,6.01044]],[[465.83259,501.53304],[1.9944,-5.76044],[0,0]],[[465.43345,503.42462],[0,0],[-0.08786,0.46254]],[[464.45105,504.23687],[0.48811,0],[-0.54187,0]],[[463.45152,503.268],[0.01645,0.53788],[0,0]],[463.38078,501.27357],[[463.69571,501.2624],[0,0],[-0.04677,-0.44371]],[[463.64589,499.95645],[-0.01393,0.42918],[-1.57505,2.06139]],[[458.91428,505.5024],[1.14404,-1.5332],[-5.06477,6.78757]],[[445.27747,525.34003],[3.06805,-7.74525],[0.48295,-0.69398]]],&quot;closed&quot;:true}]}" fill="url(#color-2)" stroke="none" stroke-width="0.5"/><path d="M128.62613,236.4832c0,10.68753 -8.18643,19.35148 -18.28488,19.35148c-10.09845,0 -18.28486,-8.66395 -18.28486,-19.35148c0,-10.68753 8.18641,-19.3515 18.28486,-19.3515c10.09845,0 18.28488,8.66397 18.28488,19.3515z" fill="url(#color-3)" stroke="none" stroke-width="0"/><g fill="#00e808" stroke="none" stroke-width="0.5"><path d="M171.19456,203.4022c1.11899,-0.58936 2.32433,-1.05915 3.38091,-1.55678c0.00214,-0.00125 0.00427,-0.00249 0.0064,-0.00374c0.34869,-0.20185 0.72256,-0.39397 1.11372,-0.57953c0.51643,-0.30598 0.95649,-0.63878 1.27738,-1.02529c1.2052,-0.93418 2.39652,-1.29568 4.55779,-1.99759c0.74487,-0.24191 1.03969,-0.51053 1.78469,-0.69452l-0.08116,-0.03612l0.46726,-0.10036c0.12468,-0.02713 0.29866,-0.01861 0.3935,0.01988c0.06974,0.0283 0.07771,0.0651 0.03041,0.09456l-0.23525,0.15449c-0.53293,0.52665 -1.11695,0.78559 -2.00189,1.23723c-1.7488,0.87674 -3.88801,1.58293 -5.67003,2.42614c-0.34867,0.20636 -0.73181,0.40078 -1.13629,0.59124c-1.91458,1.10863 -1.10256,2.50792 -4.29731,3.40563c-1.15393,0.5485 -2.54034,0.87118 -3.40631,1.4521c0.78723,0.00888 1.61029,-0.02305 2.27332,-0.025c1.53489,-0.00451 3.05914,0.11178 4.57399,0.1056c0.68264,-0.00278 1.8926,-0.32607 2.00814,-0.1161c0.12963,0.23556 -2.54963,0.97289 -3.08318,1.15055c-1.62028,0.53951 -5.37443,1.32733 -4.73349,2.19485c0.24035,0.32531 0.91512,0.65244 1.13367,0.99204c0.82553,1.28205 3.41105,2.24322 5.9382,3.26883c0.84765,0.25582 -3.70449,-0.23687 -4.13576,-0.23095c-0.604,0.0083 -1.33956,0.13379 -2.0115,0.30523c0.14567,-0.09235 0.28991,-0.18431 0.43202,-0.27581c0,0 0.12403,-0.07983 -0.13465,-0.11973c-0.25869,-0.0399 -0.38273,0.03993 -0.38273,0.03993c-0.41016,0.26401 -0.83785,0.53196 -1.26742,0.80209c-0.28128,0.12296 -0.48146,0.24251 -0.55515,0.34205l0.00487,0.00519c-0.91179,0.57835 -1.80169,1.16318 -2.51829,1.7376c-0.51544,0.35772 -0.7777,1.01241 -1.4221,1.29463c-0.27222,0.11922 -1.59189,-0.12511 -1.87427,-0.1521c-1.57147,-0.15019 -3.58712,-0.05362 -4.86087,-0.38131c-1.23992,-0.09612 -2.25576,0.10192 -3.3991,-0.00358c-1.9689,-0.18167 -4.16982,-1.51872 -5.39776,-2.01706c-2.45526,-0.99643 -8.10487,-0.12501 -10.80253,-1.088c-1.25693,-0.16436 -0.24775,-0.35007 -0.75817,-0.76c-1.07564,-0.86386 -2.19335,-1.56578 -2.24455,-2.52168c-0.02186,-0.40804 0.1103,-0.86228 -0.14697,-1.265c-0.09501,-0.14869 -0.85177,-0.50824 -0.7513,-0.64375c0.40478,-0.54597 2.26161,-0.86958 3.65477,-1.19891c0.60862,-0.14385 2.6166,-0.41386 2.94443,-0.58275c0.22662,-0.11674 0.05023,-0.58773 0.11072,-0.74481c0.24993,-0.6488 0.5256,-1.31465 0.39017,-1.96995c-0.04498,-0.15552 0.74484,-0.77381 1.44894,-0.75091c0.92277,0.03001 2.25414,0.83808 2.98503,1.01903c0.95668,0.23683 3.20042,-0.06321 4.06998,-0.25193c2.56091,-0.58262 8.53422,-0.52911 11.19893,0.01885c2.35185,-0.10654 3.53748,1.03763 5.03868,1.53854c2.16857,-1.02765 4.07889,-2.04374 6.09009,-3.10303z"/><path d="M163.22744,213.81399c0.25894,0.03974 0.13547,0.11965 0.13547,0.11965l-0.12539,0.08116c-0.11376,0.07361 -0.39569,0.25823 -0.60249,0.46046c0.17006,0.07479 0.34274,0.14943 0.51914,0.22279c0.11044,-0.14782 0.32005,-0.3016 0.45588,-0.44141c1.42797,-1.16215 -3.72715,-1.85831 -6.27214,-2.53645c1.28862,0.91769 3.04031,1.64965 5.03548,2.45936c0,0 0.00902,0.00366 0.02032,0.00993c0.12992,-0.11558 0.25373,-0.20742 0.32593,-0.25415l0.1254,-0.08116c0,0 0.12349,-0.07992 0.38243,-0.04018zM162.99882,215.18617c0.25801,0.02345 0.21411,-0.08469 0.1568,-0.20229c-0.24138,-0.09324 -0.47502,-0.18987 -0.70344,-0.28764c-0.13568,0.2271 -0.06733,0.43411 0.54663,0.48992zM151.75922,205.28622l-0.07787,-0.02195l0.37752,-0.1301c0.01245,-0.00445 0.02655,-0.00858 0.04224,-0.0123c0.12515,-0.02959 0.30538,-0.02159 0.40254,0.01783c0.05549,0.02252 0.07188,0.05044 0.0524,0.07575l-0.12818,0.17254l-0.00496,-0.00038l0.00031,0.00582c-0.09576,0.07977 -0.17049,0.1599 -0.22719,0.2403c0.37482,0.18475 0.80737,0.37717 1.31935,0.58494c0,0 0.17592,0.0714 -0.05071,0.12495c-0.22661,0.05356 -0.40253,-0.01783 -0.40253,-0.01783c-0.36724,-0.14904 -0.6952,-0.29075 -0.99127,-0.42777c-0.17972,0.69611 0.73355,1.40634 0.8358,2.08297c1.18378,1.16716 2.49937,2.22137 3.90776,3.33848c0.18206,0.05708 0.36524,0.11351 0.54945,0.16923c2.5674,0.78172 8.44645,1.48212 6.7894,2.82811c-0.10323,0.1065 -0.20263,0.38228 -0.38352,0.62414c0.42807,0.15878 0.8823,0.3043 1.37609,0.42327c1.55402,0.37441 3.2362,0.6729 4.45427,1.16311c1.64672,0.66271 3.49698,1.26618 5.12406,1.94408c0.24906,0.10377 1.52318,0.54849 1.31945,0.68332c-0.39748,0.26306 -1.49812,0.01733 -1.95504,-0.04988c-3.96878,-0.33954 -7.45026,-0.86601 -11.30038,-1.29051c-3.66534,-0.40521 -7.72018,-0.97429 -10.99885,-1.62788c-4.08551,-1.10124 -6.10131,-0.33181 -9.70142,0.52942c-2.59256,0.88288 -4.9861,1.94485 -7.12401,2.93119c-2.46717,0.66575 -3.79903,2.0433 -6.71489,2.57221c-0.00695,0.00521 -0.01377,0.01045 -0.02046,0.01572l-0.07297,0.00084c-0.00419,0.00072 -0.00833,0.00144 -0.01252,0.00216l0.03605,0.01349l-0.0088,0.00226l0.01455,0.00592l-0.45371,0.10691c0,0.00001 -0.00004,0 -0.00006,0c-0.12515,0.02949 -0.30513,0.02149 -0.40222,-0.01791c-0.09507,-0.03858 -0.07538,-0.09298 0.04279,-0.12301l0.39448,-0.10142c0.39659,-0.33847 1.39541,-0.52268 1.73541,-0.85711c0.57856,-0.56906 0.26952,-1.16455 1.14538,-1.73583c0.76234,-0.48507 -0.03846,-1.06322 0.58472,-1.56498c0.81736,-0.65812 2.55634,-1.22158 4.00296,-1.74741c2.46124,-0.894 4.56319,-2.05961 5.82232,-3.1821c0.29281,-0.26104 0.95026,-0.69174 0.64964,-0.97857c-0.53596,-0.51137 -6.64674,-0.26837 -7.90707,-0.19084c-1.9043,0.15339 -4.34756,-0.02533 -6.14681,0.23439c-1.65968,0.23957 -3.10167,0.80707 -4.97454,0.8502c-1.40314,0.1011 -4.54546,-0.17295 -3.84442,-0.8862c0.31717,-0.32269 4.74748,-1.04939 5.78531,-1.24489c3.73685,-0.25198 7.65107,-0.76212 11.28032,-1.20804c3.0292,0.0928 7.8669,-1.08867 9.16647,-1.9479c0.84544,-1.1457 -2.27542,-2.21328 -1.62437,-3.53965c0.49101,-0.98122 2.26298,-2.66923 0.13287,-3.54831c-0.94049,-0.4354 -0.74158,-1.10211 -0.63932,-1.61372c0.02023,-0.10126 0.26287,-0.58059 0.78873,-0.5793c1.13642,0.0028 1.01312,1.35811 1.02566,1.61262c0.82109,1.33902 2.36748,2.19639 4.44092,3.3948c0.83185,0.7954 1.38089,1.34938 2.43183,1.94077c0.04469,-0.01567 0.09034,-0.03101 0.137,-0.04599zM155.77783,210.98334c-1.2365,-0.98314 -2.40064,-1.93238 -3.4359,-2.97369c-0.11796,-0.66697 -0.94387,-1.36026 -0.85377,-2.04542c-0.44983,0.28947 -0.99922,0.57543 -1.1972,0.8661c-0.37164,0.54566 -0.16948,1.18189 -0.3274,1.74167c1.62015,0.84818 3.61795,1.67501 5.81426,2.41134z"/><path d="M146.95591,216.08443l0.04027,0.02085l-0.51162,0.07097c-0.01709,0.00247 -0.0352,0.00459 -0.05422,0.0063c-0.15146,0.01368 -0.30193,-0.00342 -0.33603,-0.03819c-0.01949,-0.01986 0.00323,-0.04119 0.05451,-0.05838l0.34548,-0.11746l0.00391,0.00058l0.00752,-0.00425c0.19237,-0.05203 0.36634,-0.10563 0.52464,-0.16056c-0.08788,-0.15786 -0.21714,-0.32491 -0.39683,-0.50811c0,0 -0.06174,-0.06295 0.21254,-0.08771c0.27426,-0.02476 0.33602,0.03819 0.33602,0.03819c0.12892,0.13142 0.23249,0.25502 0.31385,0.37324c1.09212,-0.49505 1.22598,-1.06886 2.03996,-1.56741c0.5034,-0.92309 0.73783,-1.77229 0.97343,-2.67305c-0.08639,-0.05293 -0.17467,-0.10544 -0.26479,-0.15751c-1.24936,-0.72942 -5.56828,-1.60717 -2.28577,-2.48236c0.2348,-0.071 0.69271,-0.26535 1.17803,-0.42994c-0.17024,-0.14231 -0.38166,-0.27661 -0.66395,-0.39407c-0.88837,-0.36968 -1.99285,-0.69217 -2.42594,-1.12503c-0.58548,-0.58518 -1.43221,-1.14004 -1.97979,-1.73504c-0.08382,-0.09109 -0.62787,-0.49436 -0.26531,-0.57967c0.70737,-0.16644 1.36259,0.08125 1.68113,0.15876c3.09394,0.4956 5.50202,1.09663 8.37621,1.64659c2.73478,0.52435 5.5985,1.1923 7.6552,1.87308c2.17908,1.05693 5.01084,0.62357 9.38189,0.22269c3.49925,-0.47975 7.06013,-1.10222 10.29133,-1.6857c3.0966,-0.32968 6.13061,-1.2482 9.44522,-1.45023c0.01319,-0.00335 0.02631,-0.00674 0.03934,-0.01015l0.06637,0.00396c0.0047,-0.00026 0.0094,-0.00053 0.01409,-0.00079l-0.01419,-0.01207l0.01089,-0.0011l-0.00507,-0.00521l0.5487,-0.04933c0.00002,0.00001 0.00004,-0.00001 0.00006,-0.00001c0.15134,-0.01361 0.30153,0.00349 0.33562,0.03822c0.03337,0.03402 -0.05701,0.07235 -0.20284,0.08679l-0.48836,0.04905c-0.80744,0.22134 -1.94692,0.29276 -2.69842,0.5147c-1.27871,0.37766 -1.79924,0.83015 -3.3467,1.1908c-1.33061,0.30506 -1.38831,0.77573 -2.61684,1.10166c-1.61134,0.42748 -3.92006,0.72837 -5.91699,1.02021c-3.3967,0.49607 -6.83559,1.2122 -9.46328,1.94975c-0.61107,0.17152 -1.77515,0.44359 -1.89023,0.67106c-0.06457,0.12765 0.46476,0.23554 1.25889,0.32417c-3.63167,0.2245 -6.79203,0.47276 -8.00971,0.69407c-1.66111,0.30191 -4.34652,1.88526 -3.37361,2.68005c-0.57109,0.62084 -0.36079,1.30418 -2.04152,1.96306c-1.75193,0.68292 -5.59484,1.79969 -4.86673,2.57254c0.25825,0.3756 -0.81168,0.84808 -1.58769,1.21379c-0.15358,0.07237 -1.01188,0.40583 -1.4803,0.37195c-1.01226,-0.07323 0.91148,-1.05131 1.24083,-1.2372c1.05763,-1.02538 0.82232,-1.74586 0.57211,-2.74742c0.32058,-0.63064 0.57101,-1.06799 0.42275,-1.56397c-0.06093,0.00859 -0.12226,0.01688 -0.18401,0.02487zM150.9863,211.68889c-0.21005,0.79255 -0.4394,1.5559 -0.90719,2.37815c-0.78701,0.49252 -0.97627,1.04852 -1.97363,1.54124c0.78951,-0.18236 1.66332,-0.35594 2.22926,-0.55496c1.06239,-0.37361 1.73297,-0.84904 2.62322,-1.2463c-0.31353,-0.71841 -0.9933,-1.44496 -1.97162,-2.11812zM148.11368,209.16332c-0.17836,-0.04513 0.03898,-0.09551 0.03898,-0.09551l0.22069,-0.05118c0.20021,-0.04641 0.69929,-0.16304 1.15479,-0.29718c-0.05196,-0.06506 -0.10647,-0.13016 -0.16604,-0.19456c-0.29653,0.1006 -0.68969,0.19932 -0.99823,0.29251c-2.83171,0.75584 0.84567,1.58514 2.21359,2.23782c0.07585,-0.74822 -0.5108,-1.39034 -1.21111,-2.10428c0,0 -0.00316,-0.00322 -0.00487,-0.00849c-0.2708,0.07592 -0.50437,0.13497 -0.63145,0.16443l-0.22069,0.05118c0,0 -0.21733,0.0504 -0.39567,0.00527zM150.15413,208.17959c-0.19927,-0.03323 -0.30474,0.04818 -0.41085,0.13731c0.09104,0.08294 0.17064,0.16786 0.24403,0.25329c0.42517,-0.15668 0.64105,-0.31154 0.16685,-0.3906z" data-paper-data="{&quot;index&quot;:null}"/><path d="M146.81934,223.73027c1.16588,0.47315 0.89346,1.14448 -0.60844,1.49946c-1.50191,0.35498 -3.6646,0.25919 -4.83048,-0.21397c-1.16588,-0.47315 -0.89345,-1.14448 0.60845,-1.49946c1.50191,-0.35498 3.66458,-0.25919 4.83045,0.21397z"/><path d="M202.66963,210.30406c0.68011,0.27601 0.52118,0.66761 -0.35492,0.87468c-0.87612,0.20707 -2.13767,0.15119 -2.81776,-0.12482c-0.68011,-0.27601 -0.5212,-0.66762 0.35494,-0.87468c0.87612,-0.20707 2.13767,-0.15119 2.81778,0.12482z"/><path d="M193.41026,204.63743c-0.26155,-0.038 -0.1437,-0.11876 -0.1437,-0.11876l0.09052,-0.06201c0.27602,-0.1888 0.48027,-0.43484 0.57817,-0.67119c-0.18038,0.00611 -0.36261,0.00455 -0.54142,-0.00446c-0.16184,0.03631 -0.32524,0.07204 -0.49099,0.10685l-0.31859,-0.03465l-0.01639,0.04036l-1.20762,-0.05349c-0.21853,-0.00968 -0.42657,-0.04524 -0.5723,-0.10438c-0.29147,-0.11828 -0.22335,-0.28612 0.15212,-0.37487l0.73756,-0.17433c-0.03235,-0.19722 0.23518,-0.3945 0.77426,-0.52191c0.23368,-0.05523 0.49473,-0.09175 0.76492,-0.11038c-0.10655,-0.05735 -0.25049,-0.12119 -0.43687,-0.19309l-0.35184,-0.14279c0,0 -0.52774,-0.21418 0.15211,-0.37487c0.67986,-0.16069 1.20762,0.05349 1.20762,0.05349l0.35183,0.14278c0.36013,0.15188 0.63263,0.38799 0.75099,0.6314c0.12293,0.02942 0.23692,0.06365 0.33902,0.10254c0.1863,-0.0159 0.36697,-0.02352 0.53684,-0.0202c0.83607,-0.27486 1.75749,-0.49591 2.26236,-0.39007c0.77202,0.16184 -0.10005,0.50395 -1.12505,0.7991l0.16041,0.25152c0.06316,0.08924 -0.02258,0.18447 -0.24237,0.24925c0.1171,0.04892 0.22035,0.09871 0.29962,0.14957c0.00693,-0.00061 0.01384,-0.00118 0.02071,-0.00172l0.26217,0.10608l0.12914,-0.0505l0.9151,0.22822c0.06006,0.01433 0.11519,0.03134 0.16347,0.05094c0.29147,0.11828 0.22336,0.28612 -0.15211,0.37487c-0.23973,0.05666 -0.54679,0.06739 -0.81334,0.03695l-0.96836,-0.10567l0.09911,-0.09168c-0.00826,-0.00084 -0.01647,-0.0017 -0.02463,-0.00255c-1.57255,0.27938 -2.0873,0.08277 -2.44751,-0.22202c-0.1131,0.14453 -0.25827,0.28245 -0.42508,0.39691l-0.09051,0.06202c0,0 -0.11787,0.08076 -0.37941,0.04276zM197.06692,202.86923c0.19365,-0.12307 1.04514,-0.43169 0.69359,-0.34946c-0.45203,0.10573 -0.92212,0.20805 -1.36555,0.31697c0.01922,0.0057 0.03807,0.01171 0.05651,0.01805c0.14173,0.04877 0.22581,0.10508 0.27225,0.16633c0.14149,-0.04821 0.25956,-0.09873 0.3432,-0.15189z"/><path d="M161.01865,198.33112c0.85391,0.03783 0.74636,0.30289 0.74636,0.30289l-0.22476,-0.07356c0.96255,0.40313 2.34773,0.72496 2.54723,1.15821l0.31149,0.04805l-0.09736,0.06267c0.85286,0.14126 1.23154,0.34184 1.98655,0.78581l-0.77853,0.26082c0.2179,0.08514 0.37851,0.20214 0.41577,0.36284c0.14464,0.62379 -1.85834,0.65855 -1.85834,0.65855l-2.06341,0.0358c0,0 -2.003,0.03474 -2.14764,-0.58905c-0.14464,-0.62379 1.85833,-0.65855 1.85833,-0.65855l0.72944,-0.01265c-0.02436,-0.10876 -0.04875,-0.21752 -0.07311,-0.32628c-0.41953,-0.10993 -0.30218,-0.24584 -0.20819,-0.31123l-0.11791,-0.13581c-0.09173,-0.09683 -0.00296,-0.20389 0.24671,-0.27301c-0.4726,-0.27918 -1.71713,-0.58862 -2.11076,-0.7448l-0.12335,-0.32346c0,0 0.10755,-0.26507 0.96147,-0.22724zM164.5803,200.53955c-0.17803,-0.00789 -0.32914,-0.02512 -0.45751,-0.04957c0.00474,0.01986 0.0095,0.03973 0.01424,0.0596c0.05132,-0.01665 0.08955,-0.0257 0.08955,-0.0257z"/><path d="M131.97242,207.80827c-0.22618,0.05374 -0.40265,-0.01751 -0.40265,-0.01751l-0.03749,-0.01513c-0.22143,-0.0894 -0.4324,-0.1879 -0.65922,-0.28157c-0.17887,0.05659 -0.41934,0.09748 -0.73116,0.11804c-0.08698,0.00574 -0.29857,-0.02444 -0.55541,-0.07009c-0.37677,0.11567 -0.81722,0.23253 -1.33888,0.35583l-0.45324,0.10713c0,0 -0.67986,0.16069 -1.20761,-0.05349c-0.52775,-0.21418 0.15211,-0.37487 0.15211,-0.37487l0.45327,-0.10712c0.2889,-0.06828 0.56455,-0.15355 0.83069,-0.24782c-0.2013,-0.04293 -0.4023,-0.08601 -0.60299,-0.12922c-0.18413,-0.00998 -0.35294,-0.03432 -0.50049,-0.0764c-0.08462,-0.02413 -0.15707,-0.05077 -0.21986,-0.07941c-0.02097,-0.00456 -0.04198,-0.00912 -0.06293,-0.01368l-0.04666,0.01103l-0.70367,-0.28558c-0.29147,-0.11828 -0.22335,-0.28612 0.15212,-0.37486c0.27867,-0.06586 0.64835,-0.06965 0.9396,-0.01887c0.13035,-0.08844 0.3302,-0.16826 0.59607,-0.23111c0.07712,-0.01822 0.15722,-0.03442 0.23969,-0.0486c-0.00859,-0.00315 -0.01306,-0.00496 -0.01306,-0.00496c-0.23456,-0.09519 -0.4691,-0.19038 -0.70366,-0.28557l-0.52775,-0.21418c-0.29147,-0.11828 -0.22336,-0.28613 0.15211,-0.37487c0.37547,-0.08875 0.91616,-0.06479 1.20763,0.05349c0.23456,0.09519 0.99686,0.40456 1.23142,0.49976c0,0 0.02447,0.00993 0.05611,0.02713c0.28262,0.08679 0.56694,0.19848 0.83075,0.32442c0.1518,-0.0336 0.30097,-0.06744 0.44595,-0.10171l0.67986,-0.16069c0.37547,-0.08875 0.91617,-0.06479 1.20764,0.05349c0.22653,0.09194 0.23587,0.2138 0.0525,0.3052l-0.77114,0.40527l-0.03551,-0.00666c-0.12862,0.12119 -0.2671,0.23359 -0.42482,0.34c0.12652,0.18758 0.13797,0.3629 -0.01859,0.50067c0.27587,0.10694 0.52883,0.22225 0.80158,0.33237l0.03749,0.01514c0,0 0.17651,0.07126 -0.04966,0.125z"/><path d="M196.50944,208.82278c0.29147,0.11828 0.22335,0.28612 -0.15212,0.37486c-0.37547,0.08875 -0.91615,0.06479 -1.20761,-0.05349c-0.29147,-0.11828 -0.22336,-0.28612 0.15211,-0.37487c0.37547,-0.08875 0.91618,-0.06479 1.20762,0.0535z"/><path d="M183.87862,208.64487c0.29147,0.11828 0.22337,0.28613 -0.15211,0.37487c-0.37547,0.08875 -0.91616,0.06479 -1.2076,-0.05349c-0.29147,-0.11828 -0.22337,-0.28613 0.15211,-0.37487c0.37547,-0.08875 0.91616,-0.06479 1.2076,0.05349z"/><path d="M178.83607,211.98315c0.29147,0.11828 0.22336,0.28612 -0.15211,0.37487c-0.37547,0.08875 -0.91615,0.06479 -1.20761,-0.05349c-0.29147,-0.11828 -0.22336,-0.28612 0.15211,-0.37487c0.37547,-0.08875 0.91616,-0.06479 1.20763,0.0535z"/><path d="M125.39268,219.98271c0.29147,0.11828 0.22336,0.28612 -0.15212,0.37486c-0.37547,0.08875 -0.91615,0.06479 -1.20762,-0.05349c-0.29147,-0.11828 -0.22337,-0.28612 0.1521,-0.37487c0.37547,-0.08875 0.91617,-0.06479 1.20763,0.05349z"/><path d="M114.76624,214.36034c0.29147,0.11828 0.22337,0.28613 -0.15211,0.37487c-0.24581,0.0581 -0.56243,0.06789 -0.83358,0.03455c-0.28818,0.00857 -0.58576,-0.02843 -0.7766,-0.10587c-0.29147,-0.11828 -0.22335,-0.28612 0.15212,-0.37487c0.24581,-0.0581 0.56241,-0.0679 0.83356,-0.03455c0.28818,-0.00857 0.58577,0.02843 0.77659,0.10588z"/><path d="M116.06287,218.23382c0.29147,0.11828 0.22336,0.28612 -0.15211,0.37487c-0.37547,0.08875 -0.91613,0.06479 -1.2076,-0.05349c-0.29147,-0.11828 -0.22336,-0.28612 0.15211,-0.37486c0.37547,-0.08875 0.91616,-0.06479 1.20763,0.05349z"/><path d="M161.95729,202.07698c0.18357,0.07449 0.22453,0.16865 0.13588,0.25032c0.27773,-0.00492 0.56016,0.03216 0.74373,0.10665c0.29147,0.11828 0.22335,0.28612 -0.15212,0.37486c-0.37547,0.08875 -0.91616,0.06479 -1.20763,-0.0535c-0.18357,-0.07449 -0.22452,-0.16865 -0.13587,-0.25032c-0.27773,0.00492 -0.56014,-0.03216 -0.74371,-0.10665c-0.29147,-0.11828 -0.22335,-0.28612 0.15212,-0.37486c0.37547,-0.08875 0.91613,-0.06479 1.2076,0.05349z"/><path d="M163.96362,203.06866c-0.25967,0.03661 -0.38162,-0.0448 -0.38162,-0.0448l-0.22925,-0.16257c-0.13536,-0.30681 -0.56771,-0.49787 0.2147,-0.71299c0,0 0.22662,-0.05356 0.40254,0.01783c0.17592,0.07139 -0.05071,0.12495 -0.05071,0.12495c-0.5226,0.09203 -0.08542,0.35095 0.00188,0.54879l0.1802,0.11078c0,0 0.12193,0.0814 -0.13776,0.11801z"/></g><path d="M159.28851,223.7683c-0.78262,1.56525 -2.34787,0.78262 -2.34787,0.78262l-0.41738,-0.41525c-1.46667,0 -2.93333,0 -4.4,0c0,0 -1.75,0 -1.75,-1.75c0,-1.75 1.75,-1.75 1.75,-1.75c1.46667,0 2.93333,0 4.4,0l1.98262,0.78475c0,0 1.56525,0.78262 0.78262,2.34787z" fill="url(#color-4)" stroke="none" stroke-width="0.5"/><path d="M123.92327,223.38568c0,-1 1,-1 1,-1l0.68957,0.00612c2.60048,-0.28678 5.39396,-0.40935 8.00897,-0.20125c2.05521,0.16355 3.85426,1.41811 5.90146,1.39513c0,0 1,0 1,1c0,1 -1,1 -1,1c-2.16744,-0.0184 -3.95997,-1.24709 -6.09854,-1.40487c-2.4822,-0.18313 -5.12299,-0.07765 -7.59103,0.19875l-0.91043,0.00612c0,0 -1,0 -1,-1z" fill="url(#color-5)" stroke="none" stroke-width="0.5"/><path d="M202.28396,245.47424c0,16.1705 -14.11714,29.27928 -31.53153,29.27928c-17.41439,0 -31.53153,-13.10878 -31.53153,-29.27928c0,-16.1705 14.11714,-29.27928 31.53153,-29.27928c17.41439,0 31.53153,13.10878 31.53153,29.27928z" fill="url(#color-6)" stroke="none" stroke-width="0"/><g stroke="none"><path d="M192.90777,245.19644c0.03396,0.30323 0.16167,0.55568 0.45639,0.6487c1.51108,0.47695 1.47327,-0.46114 2.03196,-0.77549c1.1995,-0.67491 2.29244,-0.71762 3.32063,-1.2807l0.14439,0.08414l0.6756,-0.43297c0.07016,0.14259 0.12959,0.2595 0.17205,0.32162c0.38001,1.53352 5.06554,1.01514 7.34335,0.98436c-0.87513,0.30808 -0.95785,0.77151 0.62671,1.09204c1.93122,0.39065 5.05276,0.11518 7.09512,0.12302c0.52662,0.00202 2.30738,-0.18172 2.74174,-0.03951c1.44698,0.47372 -0.44079,1.86102 -0.95604,2.18082c-0.44508,0.27625 -0.8881,0.55375 -1.32838,0.83285c-1.95728,0.49551 -5.86205,1.02648 -7.37058,1.85766c-2.0386,1.12323 0.88712,1.24812 1.82182,1.76278c0.96872,0.53339 -0.67589,2.43285 0.23522,3.03382c0.6189,0.40823 3.50476,0.15513 4.36511,0.15513c0.72888,-0.00312 4.12008,0.28905 4.51201,0.52887c0.23674,0.14485 -0.09223,0.47192 0.16052,0.60629c0.24444,0.12995 0.74495,-0.14549 0.97196,-0.00422c0.23435,0.14584 -0.23025,0.46889 0.00663,0.6132c0.23594,0.14373 0.75665,-0.13972 0.99943,-0.00031c0.20521,0.11784 -0.2108,0.35169 -0.10837,0.51199c0.13274,0.20774 1.09135,0.46866 0.9038,0.83989c-0.8144,1.612 -5.26343,2.1829 -7.49548,2.5478c0.22303,0.30619 0.26564,0.69155 0.6691,0.91856c0.47524,0.2674 1.35775,-0.09907 1.9336,0.07983c0.43624,0.13554 -0.70926,0.47364 -0.74884,0.77173c-0.03654,0.2752 0.32543,0.51844 0.56098,0.75405c0.16602,0.16606 2.16795,1.70145 2.15223,1.72075c-0.09123,0.11201 -0.37049,-0.11805 -0.57346,-0.13444c-0.70343,-0.05678 -1.22869,0.06783 -1.92853,0.01811c-2.5565,-0.18165 -5.14293,-0.68621 -7.41164,-1.37661c-1.12892,-0.33901 -2.95673,-0.65516 -4.23989,-0.42985c-1.0441,0.18333 -1.49917,0.90213 -2.41299,1.14896c-3.51252,0.94874 -6.77251,-0.63283 -9.07181,-1.97419l-0.25513,-0.52256c-0.05797,-0.12954 -0.25195,-0.22476 -0.48233,-0.22476c-0.26283,0 -0.4783,0.12393 -0.49846,0.28138l-0.08868,0.60562l0.12265,0.00671c-0.66969,1.93264 -0.17312,4.21494 -0.17317,6.13146c-0.00001,0.61263 0.37029,1.7237 0.07029,2.28821c-0.39705,0.74715 -1.85346,-1.45719 -1.91548,-1.60817c-0.07666,-0.8008 -0.37399,-1.80779 -1.28539,-2.32009c-0.52574,-0.29552 -2.1288,-0.29711 -2.81596,-0.6379c-1.6205,-0.80366 -2.95092,-2.30315 -4.20791,-3.32514c-0.51515,-0.41885 -2.27054,-2.41275 -3.58163,-1.57134c-0.30263,0.19422 0.87344,1.7156 1.02449,1.98957c0.35033,0.63461 1.29235,2.09571 0.75932,2.75862c-0.3572,0.44425 -2.3526,1.05343 -3.0407,1.34077c-3.30117,1.37851 -7.03963,2.00576 -10.81737,2.7876c-1.42873,0.2007 -1.25627,-0.49689 -0.80166,-1.09513c0.85464,-1.12464 3.0607,-1.75525 3.46951,-2.99404c0.13349,-0.40452 0.39143,-1.6928 0.05846,-2.04963c-0.16863,-0.18071 -0.72418,-0.10065 -0.92012,-0.27076c-0.20741,-0.18009 0.11255,-0.50107 -0.14573,-0.65464c-0.23542,-0.13998 -0.72928,0.10832 -0.98496,-0.01768c-0.22539,-0.11108 0.13481,-2.5195 0.13481,-2.84395c0,-0.21395 0.03585,-1.32687 -0.14643,-1.43827c-1.14519,-0.69991 -4.76958,0.30813 -6.16223,-0.06637c-1.0486,-0.28198 -1.16517,-0.76815 -1.83728,-1.10528c-1.69817,-0.85181 -5.7094,-0.61726 -4.26988,-2.45853c0.26458,-0.33842 0.3999,-0.72299 0.77068,-1.02187c3.20344,-2.19246 6.52791,-3.43102 10.47259,-4.91036c1.81585,-0.68098 4.99921,-1.08077 5.02206,-2.22413c1.42478,0.18778 2.56666,-0.05636 3.61179,-0.4486c1.11947,0.01604 2.58942,-0.07854 3.03817,-0.0782c4.92228,-0.00339 10.68493,-0.77572 15.62133,-1.99123zM198.77972,242.24917c0.15042,0.06169 0.33086,0.35432 0.49678,0.66984c-0.0283,-0.00304 -0.05741,-0.00462 -0.08713,-0.00462c-0.00981,0 -0.01955,0.00017 -0.02921,0.00051l-0.99486,0.03087l0.00184,0.02212l-0.11822,-0.00998c-0.32475,0.11143 -0.64951,0.22286 -0.97426,0.33429c-1.07618,0.38013 -2.24999,0.73891 -3.49025,1.06982c0.38881,-1.32527 3.33758,-2.87476 5.19531,-2.11284zM193.88554,245.32365c-0.11509,-0.09608 -0.19927,-0.20003 -0.25554,-0.30977c0.30853,-0.08003 0.61338,-0.16179 0.91413,-0.24518c-0.25228,0.28255 -0.42832,0.74721 -0.65859,0.55496z" fill="#f50000" stroke-width="0.5"/><path d="M263.28695,241.68914c0,3.20632 -15.44618,5.80556 -34.5,5.80556c-19.05382,0 -34.5,-2.59924 -34.5,-5.80556c0,-3.20632 15.44618,-5.80555 34.5,-5.80555c19.05382,0 34.5,2.59923 34.5,5.80555z" fill="#f50000" stroke-width="0"/><path d="M281.28695,249.32803c0,4.38759 -10.29745,7.94445 -23,7.94445c-12.70255,0 -23,-3.55685 -23,-7.94445c0,-4.38759 10.29745,-7.94444 23,-7.94444c12.70255,0 23,3.55685 23,7.94444z" fill="#f50000" stroke-width="0"/><path d="M237.28696,250.2447c0,3.54383 -7.3873,6.41667 -16.5,6.41667c-9.1127,0 -16.5,-2.87284 -16.5,-6.41667c0,-3.54383 7.3873,-6.41667 16.5,-6.41667c9.1127,0 16.5,2.87284 16.5,6.41667z" fill="#00a526" stroke-width="0"/><path d="M340.28696,237.1058c0,2.36255 -10.52131,4.27778 -23.5,4.27778c-12.97869,0 -23.5,-1.91523 -23.5,-4.27778c0,-2.36255 10.52131,-4.27778 23.5,-4.27778c12.97869,0 23.5,1.91523 23.5,4.27778z" fill="#f50000" stroke-width="0"/><path d="M378.28696,255.13358c0,3.20632 -18.58018,5.80555 -41.5,5.80555c-22.91982,0 -41.5,-2.59923 -41.5,-5.80555c0,-3.20632 18.58018,-5.80556 41.5,-5.80556c22.91982,0 41.5,2.59924 41.5,5.80556z" fill="#f50000" stroke-width="0"/><path d="M341.28696,247.4947c0,4.05009 -10.52131,7.33333 -23.5,7.33333c-12.97869,0 -23.5,-3.28324 -23.5,-7.33333c0,-4.05009 10.52131,-7.33333 23.5,-7.33333c12.97869,0 23.5,3.28325 23.5,7.33333z" fill="#00f54f" stroke-width="0"/><path d="M320.28695,239.2447c0,3.54383 -15.89389,6.41667 -35.5,6.41667c-19.60611,0 -35.5,-2.87284 -35.5,-6.41667c0,-3.54383 15.89389,-6.41667 35.5,-6.41667c19.60611,0 35.5,2.87284 35.5,6.41667z" fill="#f50000" stroke-width="0"/><path d="M299.28695,257.57803c0,4.89386 -10.96902,8.86111 -24.5,8.86111c-13.53098,0 -24.5,-3.96725 -24.5,-8.86111c0,-4.89386 10.96902,-8.86111 24.5,-8.86111c13.53098,0 24.5,3.96725 24.5,8.86111z" fill="#00a526" stroke-width="0"/><path d="M257.28695,267.66136c0,2.70006 -5.59644,4.88889 -12.5,4.88889c-6.90356,0 -12.5,-2.18883 -12.5,-4.88889c0,-2.70006 5.59644,-4.88889 12.5,-4.88889c6.90356,0 12.5,2.18883 12.5,4.88889z" fill="#f50000" stroke-width="0"/><path d="M370.28696,229.77247c0,0.67502 -2.46243,1.22222 -5.5,1.22222c-3.03757,0 -5.5,-0.54721 -5.5,-1.22222c0,-0.67502 2.46243,-1.22222 5.5,-1.22222c3.03757,0 5.5,0.54721 5.5,1.22222z" fill="#f50000" stroke-width="0"/><path d="M362.28696,235.88358c0,1.01252 -2.46243,1.83333 -5.5,1.83333c-3.03757,0 -5.5,-0.82081 -5.5,-1.83333c0,-1.01252 2.46243,-1.83333 5.5,-1.83333c3.03757,0 5.5,0.82082 5.5,1.83333z" fill="#f50000" stroke-width="0"/><path d="M197.28696,238.93914c0,1.01252 -2.68629,1.83333 -6,1.83333c-3.31371,0 -6,-0.82082 -6,-1.83333c0,-1.01252 2.68629,-1.83333 6,-1.83333c3.31371,0 6,0.82082 6,1.83333z" fill="#f50000" stroke-width="0"/><path d="M344.28696,265.52247c0,0.84377 -5.14873,1.52778 -11.5,1.52778c-6.35127,0 -11.5,-0.68401 -11.5,-1.52778c0,-0.84377 5.14873,-1.52778 11.5,-1.52778c6.35127,0 11.5,0.68401 11.5,1.52778z" fill="#f50000" stroke-width="0"/><path d="M391.28696,248.41136c0,3.54383 -15.89389,6.41667 -35.5,6.41667c-19.60611,0 -35.5,-2.87284 -35.5,-6.41667c0,-3.54383 15.89389,-6.41667 35.5,-6.41667c19.60611,0 35.5,2.87284 35.5,6.41667z" fill="#f50000" stroke-width="0"/><path d="M178.28696,240.46692c0,0.84377 -3.58172,1.52778 -8,1.52778c-4.41828,0 -8,-0.68401 -8,-1.52778c0,-0.84377 3.58172,-1.52778 8,-1.52778c4.41828,0 8,0.68401 8,1.52778z" fill="#00f54f" stroke-width="0"/><path d="M305.28695,250.2447c0,2.86881 -12.75988,5.19444 -28.5,5.19444c-15.74012,0 -28.5,-2.32563 -28.5,-5.19444c0,-2.86881 12.75988,-5.19445 28.5,-5.19445c15.74012,0 28.5,2.32563 28.5,5.19445z" fill="url(#color-7)" stroke-width="0"/><path d="M244.28696,256.05025c0,1.01252 -7.16344,1.83333 -16,1.83333c-8.83656,0 -16,-0.82082 -16,-1.83333c0,-1.01252 7.16344,-1.83333 16,-1.83333c8.83656,0 16,0.82082 16,1.83333z" fill="url(#color-8)" stroke-width="0"/><path d="M329.28695,233.43914c0,2.36255 -9.84974,4.27778 -22,4.27778c-12.15026,0 -22,-1.91523 -22,-4.27778c0,-2.36255 9.84974,-4.27778 22,-4.27778c12.15026,0 22,1.91523 22,4.27778z" fill="#00f54f" stroke-width="0"/></g><g fill="#ff2929" stroke="none" stroke-width="0.5"><path d="M181.73211,313.65877c-2.08884,1.23412 -4.30019,2.21257 -6.25874,3.25273c-0.00401,0.00262 -0.00805,0.00522 -0.01206,0.00784c-0.65517,0.42325 -1.35194,0.82539 -2.07734,1.21331c-0.97201,0.6418 -1.81717,1.34191 -2.46718,2.15821c-2.31999,1.96573 -4.48151,2.71418 -8.41368,4.17005c-1.35521,0.50175 -1.93213,1.06785 -3.27396,1.44649l0.133,0.07815l-0.83806,0.2055c-0.22371,0.05557 -0.525,0.03453 -0.68132,-0.04888c-0.11493,-0.06133 -0.12021,-0.13972 -0.03084,-0.20155l0.44633,-0.32448c1.0525,-1.11064 2.1313,-1.65132 3.77985,-2.59658c3.25417,-1.83447 7.14887,-3.2998 10.45305,-5.06241c0.6562,-0.43283 1.36966,-0.83972 2.11943,-1.23782c3.59749,-2.32466 2.51008,-5.31306 8.28978,-7.1678c2.14017,-1.14666 4.63265,-1.80933 6.27846,-3.02976c-1.37025,-0.03213 -2.8125,0.02194 -3.96877,0.01492c-2.67675,-0.01622 -5.30656,-0.28907 -7.94876,-0.3014c-1.19066,-0.00556 -3.37571,0.66135 -3.52788,0.21304c-0.17074,-0.50297 4.67269,-2.02539 5.64446,-2.39412c2.95102,-1.11971 9.68009,-2.7314 8.76622,-4.58645c-0.34272,-0.69563 -1.44228,-1.40242 -1.74364,-2.12804c-1.13849,-2.73941 -5.42026,-4.82624 -9.58518,-7.04908c-1.41766,-0.55811 6.40224,0.56586 7.15544,0.56052c1.05483,-0.00749 2.36655,-0.26191 3.57809,-0.61507c-0.27559,0.19389 -0.5486,0.38695 -0.81779,0.57907c0,0 -0.23493,0.16764 0.20667,0.25681c0.44159,0.08916 0.67656,-0.07846 0.67656,-0.07846c0.77691,-0.55437 1.58528,-1.11682 2.39748,-1.68387c0.51916,-0.25667 0.89615,-0.50745 1.04796,-0.71785l-0.00728,-0.0111c1.72504,-1.2142 3.41348,-2.44253 4.79738,-3.65163c0.98241,-0.75182 1.59309,-2.13923 2.78263,-2.72836c0.5025,-0.24888 2.74569,0.29276 3.23162,0.35488c2.70423,0.34571 6.2406,0.17431 8.38422,0.89235c2.13893,0.2252 3.9562,-0.17872 5.92457,0.06477c3.38963,0.41932 6.91287,3.29876 8.93658,4.37883c4.04645,2.1596 14.09939,0.40204 18.57622,2.49463c2.15258,0.37054 0.3498,0.74839 1.14346,1.62845c1.67255,1.85458 3.45638,3.36557 3.32149,5.3986c-0.05758,0.86782 -0.39447,1.83128 -0.0404,2.69176c0.13074,0.3177 1.36568,1.09479 1.15876,1.38119c-0.83366,1.15387 -4.1464,1.81061 -6.65223,2.48732c-1.09469,0.29558 -4.65839,0.83584 -5.26948,1.18938c-0.42242,0.24437 -0.22535,1.24861 -0.36764,1.58154c-0.5878,1.37509 -1.22451,2.78599 -1.14207,4.18139c0.04194,0.33137 -1.4799,1.63253 -2.70192,1.572c-1.60156,-0.07932 -3.73296,-1.81959 -4.96465,-2.21656c-1.61217,-0.51957 -5.59387,0.08056 -7.15397,0.46713c-4.60087,1.19553 -15.00118,0.98134 -19.51789,-0.22837c-4.12479,0.18694 -5.92335,-2.26539 -8.42285,-3.35551c-4.02129,2.14823 -7.58966,4.27622 -11.34403,6.49435z"/><path d="M198.06194,291.65823c-0.44207,-0.08882 -0.2081,-0.25666 -0.2081,-0.25666l0.23763,-0.17042c0.21556,-0.15458 0.75029,-0.54231 1.15823,-0.96877c-0.27892,-0.16187 -0.56243,-0.32344 -0.85273,-0.48236c-0.22718,0.31237 -0.62862,0.6358 -0.89818,0.93075c-2.76179,2.44662 6.06156,4.01326 10.33906,5.49772c-2.0312,-1.9726 -4.91317,-3.55815 -8.20137,-5.31306c0,0 -0.01486,-0.00791 -0.03308,-0.02144c-0.25359,0.24352 -0.49093,0.43667 -0.62775,0.53482l-0.23763,0.17042c0,0 -0.23399,0.16783 -0.6761,0.079zM198.78221,288.74495c-0.44427,-0.05421 -0.39311,0.17645 -0.32076,0.4274c0.39892,0.20227 0.78357,0.41161 1.15882,0.62331c0.28977,-0.48052 0.21915,-0.92174 -0.83806,-1.05073zM216.05415,309.98028l0.13059,0.04797l-0.68861,0.27023c-0.02276,0.00926 -0.04829,0.0178 -0.07651,0.02542c-0.22511,0.06079 -0.53741,0.04078 -0.69754,-0.04467c-0.09146,-0.04881 -0.11348,-0.10844 -0.07359,-0.16192l0.26391,-0.36464l0.00855,0.00089l0.00083,-0.01238c0.18562,-0.168 0.33469,-0.33707 0.45239,-0.50703c-0.61006,-0.39907 -1.31898,-0.81541 -2.16277,-1.26572c0,0 -0.28992,-0.15474 0.11768,-0.26479c0.40759,-0.11006 0.69754,0.04467 0.69754,0.04467c0.60523,0.32301 1.14369,0.6298 1.62768,0.92607c0.47651,-1.47684 -0.94898,-3.00207 -0.96856,-4.44225c-1.78993,-2.50118 -3.83611,-4.76445 -6.02935,-7.163c-0.30401,-0.12442 -0.61009,-0.24744 -0.91814,-0.369c-4.29226,-1.70504 -14.37659,-3.29288 -11.17236,-6.12647c0.20492,-0.22469 0.44286,-0.80928 0.81489,-1.3204c-0.70898,-0.34476 -1.46675,-0.66175 -2.29962,-0.92296c-2.62121,-0.82209 -5.48363,-1.48494 -7.49209,-2.54757c-2.71522,-1.43655 -5.79917,-2.75057 -8.47658,-4.21909c-0.40986,-0.22479 -2.52665,-1.19165 -2.13988,-1.47486c0.75459,-0.55255 2.61561,-0.01165 3.39638,0.13892c6.8389,0.78856 12.78448,1.96634 19.3966,2.93352c6.29453,0.92306 13.22961,2.20104 18.79184,3.64565c6.86378,2.40983 10.55819,0.808 17.03594,-0.96236c4.72644,-1.83335 9.14794,-4.05074 13.10609,-6.11167c4.45695,-1.37385 7.10171,-4.27999 12.30873,-5.35537c0.01333,-0.01094 0.02645,-0.02199 0.03936,-0.03308l0.1274,-0.00058c0.00746,-0.00147 0.01489,-0.0029 0.02235,-0.00437l-0.05969,-0.02929l0.01585,-0.00466l-0.02397,-0.01282l0.81599,-0.21965c0,-0.00002 0.00006,0 0.00009,-0.00001c0.22508,-0.06059 0.53696,-0.04056 0.69695,0.04483c0.15668,0.08362 0.10962,0.19894 -0.10343,0.2608l-0.71145,0.20897c-0.77069,0.7129 -2.55506,1.08771 -3.22618,1.79296c-1.142,1.20004 -0.74294,2.47121 -2.4037,3.67096c-1.44269,1.0184 -0.18227,2.26094 -1.38626,3.31716c-1.57916,1.38536 -4.74272,2.55399 -7.38781,3.64753c-4.50012,1.85917 -8.43762,4.30185 -10.89578,6.66697c-0.57164,0.55001 -1.81872,1.45459 -1.36192,2.06942c0.81439,1.09616 11.52391,0.6823 13.73912,0.53868c3.3556,-0.29408 7.5729,0.12695 10.77029,-0.39495c2.94939,-0.4814 5.59617,-1.66359 8.87113,-1.7238c2.46969,-0.19133 7.88322,0.4441 6.49392,1.9486c-0.62856,0.68067 -8.52201,2.1511 -10.37704,2.54926c-6.5733,0.47285 -13.51628,1.49154 -19.94747,2.37851c-5.25884,-0.24823 -13.96909,2.18213 -16.43602,3.98692c-1.74243,2.42145 3.44765,4.7435 2.00169,7.5523c-1.08601,2.07772 -4.57079,5.63647 -1.06364,7.54115c1.5374,0.94144 1.03435,2.35544 0.73613,3.44137c-0.059,0.21492 -0.59437,1.22987 -1.51077,1.21828c-1.98037,-0.02504 -1.44765,-2.90426 -1.40985,-3.44553c-1.11739,-2.86046 -3.61207,-4.70913 -6.94556,-7.29169c-1.26361,-1.70493 -2.09081,-2.89189 -3.78418,-4.16679c-0.08158,0.03256 -0.16476,0.06439 -0.24961,0.09546zM210.38463,297.80118c1.92498,2.11086 3.73176,4.14842 5.29228,6.37956c0.04924,1.41992 1.32646,2.90765 1.00874,4.36273c0.85204,-0.60782 1.87682,-1.2065 2.29005,-1.82112c0.77579,-1.15377 0.57258,-2.50975 0.97911,-3.69716c-2.62541,-1.8304 -5.91416,-3.62173 -9.5702,-5.22402z"/><path d="M226.95934,287.10505l-0.06532,-0.04501l0.9085,-0.14227c0.03037,-0.00495 0.06245,-0.00916 0.096,-0.01247c0.26725,-0.02652 0.52554,0.01235 0.57683,0.08683c0.02932,0.04255 -0.0153,0.08751 -0.10871,0.12318l-0.62978,0.24392l-0.00669,-0.00131l-0.01412,0.00892c-0.34753,0.10738 -0.66341,0.21839 -0.9522,0.33252c0.11617,0.33706 0.30235,0.69439 0.57263,1.08686c0,0 0.09287,0.13486 -0.39108,0.18289c-0.4839,0.04803 -0.5768,-0.08684 -0.5768,-0.08684c-0.19392,-0.28156 -0.34548,-0.54605 -0.4596,-0.79874c-2.0199,1.03409 -2.38778,2.25168 -3.92363,3.29787c-1.09396,1.95395 -1.70176,3.75532 -2.32367,5.66628c0.13817,0.11397 0.27976,0.22709 0.42466,0.33929c2.0069,1.57169 9.32996,3.51033 3.40257,5.31571c-0.42596,0.147 -1.26975,0.55248 -2.15436,0.89422c0.26341,0.3054 0.60046,0.59446 1.065,0.84893c1.46197,0.80085 3.31173,1.50499 3.96519,2.43249c0.88342,1.2539 2.22936,2.4477 3.04442,3.72183c0.12475,0.19504 0.97861,1.06153 0.32657,1.23678c-1.27213,0.34193 -2.35625,-0.19563 -2.89339,-0.36576c-5.27724,-1.10563 -9.33418,-2.42386 -14.21559,-3.64133c-4.64439,-1.16069 -9.47993,-2.62885 -12.90559,-4.11072c-3.55079,-2.28358 -8.58882,-1.4099 -16.30258,-0.63117c-6.21248,0.96107 -12.56585,2.22451 -18.33542,3.41062c-5.4754,0.64878 -10.97975,2.55047 -16.80525,2.92424c-0.02379,0.0069 -0.04746,0.0139 -0.07099,0.02093l-0.11473,-0.00954c-0.00824,0.00049 -0.01652,0.00097 -0.02479,0.00144l0.02193,0.02589l-0.01925,0.00215l0.00761,0.01117l-0.96806,0.09564c-0.00003,-0.00002 -0.00006,0.00001 -0.00009,0.00001c-0.26701,0.02639 -0.52482,-0.01249 -0.57611,-0.08691c-0.05021,-0.07288 0.11635,-0.15285 0.37395,-0.18111l0.86285,-0.09607c1.45947,-0.45698 3.46256,-0.58965 4.82463,-1.04884c2.31764,-0.78136 3.33113,-1.73458 6.11329,-2.47526c2.3911,-0.62615 2.60202,-1.62579 4.82006,-2.29802c2.90918,-0.88169 7.00434,-1.48252 10.55386,-2.06937c6.03755,-0.9975 12.20028,-2.46208 16.95389,-3.98588c1.10545,-0.35435 3.19852,-0.91319 3.45244,-1.39484c0.1425,-0.27029 -0.75497,-0.50855 -2.11853,-0.71031c6.38348,-0.4162 11.95096,-0.89083 14.12554,-1.34085c2.96651,-0.6139 8.01903,-3.9348 6.50938,-5.64081c1.1411,-1.31025 0.93474,-2.76649 4.01914,-4.13897c3.21414,-1.42238 10.17508,-3.73192 9.08704,-5.38715c-0.36212,-0.80284 1.61383,-1.78928 3.05234,-2.5537c0.2847,-0.15128 1.8591,-0.84575 2.66773,-0.76585c1.74744,0.17271 -1.83544,2.21964 -2.45317,2.6093c-2.08411,2.1621 -1.84284,3.69773 -1.64152,5.83115c-0.70671,1.33529 -1.24583,2.26083 -1.10368,3.31773c0.10825,-0.01724 0.21709,-0.03382 0.3266,-0.04976zM218.9028,296.38181c0.55199,-1.68135 1.13078,-3.30032 2.13905,-5.0405c1.48742,-1.03381 1.94773,-2.21263 3.8019,-3.24331c-1.41906,0.37442 -2.98301,0.72873 -4.01624,1.14231c-1.93959,0.77639 -3.22005,1.77584 -4.86511,2.60541c0.37813,1.53256 1.39275,3.08856 2.94035,4.53609zM223.31827,301.79921c0.30034,0.09893 -0.09034,0.20239 -0.09034,0.20239l-0.39674,0.10508c-0.35991,0.0953 -1.25726,0.33485 -2.08276,0.61236c0.07533,0.13917 0.15509,0.27849 0.24382,0.41641c0.54053,-0.20889 1.24904,-0.41213 1.80874,-0.60505c5.11354,-1.55923 -1.10253,-3.38408 -3.33408,-4.79462c-0.30767,1.58936 0.56445,2.96433 1.61786,4.49387c0,0 0.00475,0.0069 0.00649,0.01814c0.48988,-0.15684 0.91087,-0.27844 1.1393,-0.33896l0.39674,-0.10508c0,0 0.39067,-0.10349 0.69097,-0.00455zM219.53061,303.85626c0.3396,0.074 0.54254,-0.0973 0.7484,-0.285c-0.13924,-0.17785 -0.25808,-0.35974 -0.36599,-0.54257c-0.77791,0.32594 -1.19055,0.65154 -0.38244,0.82758z" data-paper-data="{&quot;index&quot;:null}"/><path d="M228.99018,270.85297c-1.92146,-1.02549 -1.28918,-2.44809 1.41224,-3.17749c2.70143,-0.7294 6.44905,-0.48938 8.37047,0.53611c1.92146,1.02549 1.28914,2.44809 -1.41225,3.17749c-2.70143,0.7294 -6.449,0.48938 -8.37043,-0.53609z"/><path d="M128.48207,298.45684c-1.12086,-0.59821 -0.752,-1.42806 0.82379,-1.85353c1.57583,-0.42549 3.76191,-0.28547 4.88275,0.31273c1.12086,0.59821 0.75203,1.42806 -0.82382,1.85353c-1.57583,0.42549 -3.76191,0.28547 -4.88277,-0.31273z"/><path d="M143.29464,310.65926c0.44704,0.08519 0.22264,0.25489 0.22264,0.25489l-0.17231,0.13032c-0.52544,0.39671 -0.9392,0.91634 -1.16526,1.41716c0.31589,-0.00995 0.63315,-0.00358 0.94276,0.01857c0.29063,-0.07448 0.58386,-0.14767 0.88096,-0.21891l0.54727,0.07902l0.03801,-0.08553l2.09264,0.13403c0.37867,0.02425 0.73298,0.10334 0.97316,0.23152c0.48036,0.25637 0.32229,0.61205 -0.35305,0.79439l-1.32664,0.35821c0.01017,0.41983 -0.50247,0.83473 -1.47209,1.09652c-0.4203,0.11348 -0.88394,0.18673 -1.35931,0.22179c0.17229,0.1237 0.40827,0.26187 0.71629,0.41784l0.57986,0.30947c0,0 0.86976,0.4642 -0.35307,0.79438c-1.22283,0.33017 -2.09262,-0.13403 -2.09262,-0.13403l-0.57985,-0.30946c-0.59219,-0.32893 -1.01184,-0.83545 -1.16109,-1.35492c-0.20739,-0.0646 -0.39808,-0.13929 -0.56695,-0.22368c-0.32846,0.03069 -0.64522,0.04382 -0.94058,0.03391c-1.52192,0.57028 -3.17999,1.02472 -4.03527,0.79121c-1.30786,-0.35703 0.29256,-1.06968 2.1486,-1.6799l-0.22066,-0.53741c-0.08916,-0.19076 0.08263,-0.3918 0.48095,-0.52579c-0.19265,-0.10595 -0.36098,-0.21357 -0.48723,-0.32301c-0.01221,0.00119 -0.02441,0.00229 -0.0365,0.0033l-0.43215,-0.22994l-0.23698,0.10518l-1.54173,-0.50057c-0.10134,-0.03148 -0.19345,-0.06856 -0.273,-0.11103c-0.48036,-0.25637 -0.32229,-0.61202 0.35307,-0.79437c0.4312,-0.11642 0.96899,-0.13408 1.42651,-0.06488l1.66327,0.24094l-0.19425,0.19324c0.01421,0.00194 0.02832,0.00389 0.04234,0.00584c2.80681,-0.5675 3.65805,-0.14087 4.21453,0.51315c0.23104,-0.30536 0.51645,-0.59611 0.83408,-0.83665l0.17233,-0.13032c0,0 0.22443,-0.16969 0.67144,-0.08453zM136.50563,314.35679c-0.36643,0.25838 -1.92315,0.90015 -1.29103,0.73126c0.81279,-0.21717 1.65625,-0.4268 2.4548,-0.65089c-0.03217,-0.01244 -0.06359,-0.02553 -0.09426,-0.03931c-0.23564,-0.10607 -0.36902,-0.22719 -0.4356,-0.35816c-0.25797,0.1001 -0.47564,0.20551 -0.63391,0.31712z"/><path d="M198.28204,324.61052c-1.47971,-0.09478 -1.23004,-0.65647 -1.23004,-0.65647l0.37454,0.16016c-1.58342,-0.8732 -3.92264,-1.58067 -4.16881,-2.50507l-0.53175,-0.10739l0.18445,-0.13159c-1.45363,-0.31466 -2.06674,-0.74743 -3.27878,-1.70396l1.41831,-0.5414c-0.35991,-0.18468 -0.61242,-0.43609 -0.63969,-0.77835c-0.10588,-1.32856 3.39393,-1.36876 3.39393,-1.36876l3.60539,-0.0414c0,0 3.49985,-0.04019 3.60572,1.28836c0.10588,1.32856 -3.39393,1.36876 -3.39393,1.36876l-1.27453,0.01465c0.01696,0.23163 0.03394,0.46325 0.05092,0.69486c0.70556,0.24074 0.46912,0.52771 0.28995,0.66515l0.17372,0.29071c0.13719,0.2074 -0.04264,0.4335 -0.4941,0.57624c0.75839,0.60143 2.85532,1.28023 3.50491,1.61888l0.13919,0.68971c0,0 -0.24964,0.56172 -1.72935,0.46694zM192.59108,319.85573c0.30849,0.01977 0.56788,0.05894 0.78592,0.11308c-0.00361,-0.04231 -0.00725,-0.08461 -0.01085,-0.12693c-0.09337,0.03453 -0.16216,0.05311 -0.16216,0.05311z"/><path d="M251.13845,304.95137c0.40688,-0.11045 0.69783,0.04401 0.69783,0.04401l0.0618,0.03279c0.36504,0.19378 0.70974,0.40673 1.08316,0.60969c0.32509,-0.11729 0.75388,-0.20018 1.30226,-0.23864c0.15299,-0.01073 0.51475,0.05698 0.95178,0.15833c0.68394,-0.23958 1.47911,-0.48059 2.4174,-0.73397l0.81524,-0.22012c0,0 1.22283,-0.33017 2.09261,0.13403c0.86978,0.4642 -0.35305,0.79436 -0.35305,0.79436l-0.81524,0.22011c-0.51963,0.14031 -1.02017,0.31694 -1.50619,0.51288c0.34084,0.09465 0.68112,0.18962 1.02085,0.28485c0.31864,0.02432 0.6072,0.07888 0.85454,0.17083c0.14185,0.05273 0.26192,0.11057 0.36466,0.17251c0.0355,0.01005 0.071,0.02009 0.10647,0.03013l0.08394,-0.02265l1.1597,0.61893c0.48036,0.25637 0.32228,0.61203 -0.35306,0.79438c-0.50123,0.13533 -1.14655,0.13719 -1.64236,0.02433c-0.24799,0.18581 -0.61507,0.35216 -1.09328,0.48129c-0.13871,0.03744 -0.28216,0.07052 -0.42923,0.09929c0.01424,0.00685 0.02161,0.01076 0.02161,0.01076c0.38657,0.2063 0.77311,0.41263 1.15968,0.61893l0.86978,0.4642c0.48036,0.25637 0.32229,0.61204 -0.35305,0.79437c-0.67534,0.18234 -1.61226,0.12234 -2.09264,-0.13401c-0.38657,-0.2063 -1.6429,-0.87682 -2.02947,-1.08314c0,0 -0.04036,-0.02153 -0.09146,-0.05864c-0.47231,-0.18926 -0.94177,-0.43149 -1.37212,-0.70366c-0.27251,0.06888 -0.54047,0.13831 -0.80126,0.20872l-1.22283,0.33017c-0.67534,0.18234 -1.61228,0.12234 -2.09264,-0.13403c-0.37333,-0.19927 -0.36104,-0.45848 -0.01996,-0.64971l1.4393,-0.84861l0.06033,0.01475c0.25262,-0.25548 0.52039,-0.4921 0.82028,-0.71567c-0.17658,-0.4009 -0.15541,-0.77382 0.14981,-1.06406c-0.45583,-0.23198 -0.86978,-0.48138 -1.31942,-0.72006l-0.0618,-0.0328c0,0 -0.29098,-0.15445 0.1159,-0.2649z"/><path d="M138.87342,301.70948c-0.48036,-0.25637 -0.32229,-0.61201 0.35305,-0.79438c0.67534,-0.18234 1.61223,-0.12234 2.09261,0.13402c0.48036,0.25637 0.32228,0.61202 -0.35306,0.79437c-0.67534,0.18234 -1.61227,0.12234 -2.0926,-0.13403z"/><path d="M160.85011,302.30003c-0.48036,-0.25637 -0.32228,-0.61203 0.35307,-0.79438c0.67534,-0.18234 1.61227,-0.12234 2.0926,0.13403c0.48036,0.25637 0.32227,0.61203 -0.35307,0.79437c-0.67534,0.18234 -1.61227,0.12234 -2.09259,-0.13403z"/><path d="M170.42321,295.28797c-0.48036,-0.25637 -0.32227,-0.61203 0.35307,-0.79439c0.67534,-0.18234 1.61223,-0.12234 2.09259,0.13403c0.48036,0.25637 0.32228,0.61202 -0.35307,0.79438c-0.67534,0.18234 -1.61228,0.12235 -2.09264,-0.13402z"/><path d="M265.4631,279.18025c-0.48036,-0.25637 -0.32229,-0.61203 0.35307,-0.79438c0.67534,-0.18234 1.61226,-0.12234 2.09262,0.13403c0.48036,0.25637 0.32229,0.61202 -0.35305,0.79438c-0.67534,0.18234 -1.61227,0.12235 -2.09264,-0.13402z"/><path d="M282.66913,291.31157c-0.48036,-0.25637 -0.32228,-0.61203 0.35306,-0.79438c0.44214,-0.11938 0.99636,-0.13488 1.46121,-0.05944c0.50437,-0.01339 1.01445,0.07029 1.32896,0.23814c0.48036,0.25637 0.32229,0.61204 -0.35307,0.79439c-0.44214,0.11938 -0.99636,0.13488 -1.46121,0.05943c-0.50437,0.01339 -1.01446,-0.07029 -1.32894,-0.23814z"/><path d="M281.31703,283.0551c-0.48036,-0.25637 -0.32229,-0.61203 0.35307,-0.79437c0.67534,-0.18234 1.61223,-0.12234 2.09259,0.13403c0.48036,0.25637 0.32229,0.61203 -0.35305,0.79438c-0.67534,0.18234 -1.61226,0.12232 -2.09263,-0.13403z"/><path d="M197.52406,316.6314c-0.30254,-0.16146 -0.35184,-0.36232 -0.17816,-0.53445c-0.48531,0.00579 -0.96894,-0.07778 -1.27148,-0.23922c-0.48036,-0.25637 -0.32229,-0.61203 0.35305,-0.79438c0.67535,-0.18234 1.61226,-0.12234 2.09264,0.13403c0.30254,0.16146 0.35186,0.36232 0.17817,0.53445c0.48531,-0.00579 0.96891,0.07778 1.27145,0.23924c0.48038,0.25637 0.32228,0.61201 -0.35307,0.79438c-0.67535,0.18234 -1.61223,0.12234 -2.0926,-0.13403z"/><path d="M194.25912,314.48942c0.46125,-0.07345 0.65473,0.10166 0.65473,0.10166l0.36153,0.34945c0.16405,0.65452 0.87291,1.06797 -0.54145,1.51215c0,0 -0.40762,0.11006 -0.69754,-0.04467c-0.28992,-0.15473 0.1177,-0.26479 0.1177,-0.26479c0.9326,-0.18687 0.23119,-0.74463 0.1254,-1.1667l-0.28815,-0.23855c0,0 -0.19347,-0.17512 0.26783,-0.24856z"/></g><g fill="#00e808" stroke="none" stroke-width="0.5"><path d="M450.19456,188.4022c1.11899,-0.58936 2.32433,-1.05915 3.38091,-1.55678c0.00214,-0.00125 0.00427,-0.00249 0.0064,-0.00374c0.34869,-0.20185 0.72256,-0.39397 1.11372,-0.57953c0.51643,-0.30598 0.95649,-0.63878 1.27738,-1.02529c1.2052,-0.93418 2.39652,-1.29568 4.55779,-1.99759c0.74487,-0.24191 1.03969,-0.51053 1.78469,-0.69452l-0.08116,-0.03612l0.46726,-0.10036c0.12468,-0.02713 0.29866,-0.01861 0.3935,0.01988c0.06974,0.0283 0.07771,0.0651 0.03041,0.09456l-0.23525,0.15449c-0.53293,0.52665 -1.11695,0.78559 -2.00189,1.23723c-1.7488,0.87674 -3.88801,1.58293 -5.67003,2.42614c-0.34867,0.20636 -0.73181,0.40078 -1.13629,0.59124c-1.91458,1.10863 -1.10256,2.50792 -4.29731,3.40563c-1.15393,0.5485 -2.54034,0.87118 -3.40631,1.4521c0.78723,0.00888 1.61029,-0.02305 2.27332,-0.025c1.53489,-0.00451 3.05914,0.11178 4.57399,0.1056c0.68264,-0.00278 1.8926,-0.32607 2.00814,-0.1161c0.12963,0.23556 -2.54963,0.97289 -3.08318,1.15055c-1.62028,0.53951 -5.37443,1.32733 -4.73349,2.19485c0.24035,0.32531 0.91512,0.65244 1.13367,0.99204c0.82553,1.28205 3.41105,2.24322 5.9382,3.26883c0.84765,0.25582 -3.70449,-0.23687 -4.13576,-0.23095c-0.604,0.0083 -1.33956,0.13379 -2.0115,0.30523c0.14567,-0.09235 0.28991,-0.18431 0.43202,-0.27581c0,0 0.12403,-0.07983 -0.13465,-0.11973c-0.25869,-0.0399 -0.38273,0.03993 -0.38273,0.03993c-0.41016,0.26401 -0.83785,0.53196 -1.26742,0.80209c-0.28128,0.12296 -0.48146,0.24251 -0.55515,0.34205l0.00487,0.00519c-0.91179,0.57835 -1.80169,1.16318 -2.51829,1.7376c-0.51544,0.35772 -0.7777,1.01241 -1.4221,1.29463c-0.27222,0.11922 -1.59189,-0.12511 -1.87427,-0.1521c-1.57147,-0.15019 -3.58712,-0.05362 -4.86087,-0.38131c-1.23992,-0.09612 -2.25576,0.10192 -3.3991,-0.00358c-1.9689,-0.18167 -4.16982,-1.51872 -5.39776,-2.01706c-2.45526,-0.99643 -8.10487,-0.12501 -10.80253,-1.088c-1.25693,-0.16436 -0.24775,-0.35007 -0.75817,-0.76c-1.07564,-0.86386 -2.19335,-1.56578 -2.24455,-2.52168c-0.02186,-0.40804 0.1103,-0.86228 -0.14697,-1.265c-0.09501,-0.14869 -0.85177,-0.50824 -0.7513,-0.64375c0.40478,-0.54597 2.26161,-0.86958 3.65477,-1.19891c0.60862,-0.14385 2.6166,-0.41386 2.94443,-0.58275c0.22662,-0.11674 0.05023,-0.58773 0.11072,-0.74481c0.24993,-0.6488 0.5256,-1.31465 0.39017,-1.96995c-0.04498,-0.15552 0.74484,-0.77381 1.44894,-0.75091c0.92277,0.03001 2.25414,0.83808 2.98503,1.01903c0.95668,0.23683 3.20042,-0.06321 4.06998,-0.25193c2.56091,-0.58262 8.53422,-0.52911 11.19893,0.01885c2.35185,-0.10654 3.53748,1.03763 5.03868,1.53854c2.16857,-1.02765 4.07889,-2.04374 6.09009,-3.10303z"/><path d="M442.22744,198.81399c0.25894,0.03974 0.13547,0.11965 0.13547,0.11965l-0.12539,0.08116c-0.11376,0.07361 -0.39569,0.25823 -0.60249,0.46046c0.17006,0.07479 0.34274,0.14943 0.51914,0.22279c0.11044,-0.14782 0.32005,-0.3016 0.45588,-0.44141c1.42797,-1.16215 -3.72715,-1.85831 -6.27214,-2.53645c1.28862,0.91769 3.04031,1.64965 5.03548,2.45936c0,0 0.00902,0.00366 0.02032,0.00993c0.12992,-0.11558 0.25373,-0.20742 0.32593,-0.25415l0.1254,-0.08116c0,0 0.12349,-0.07992 0.38243,-0.04018zM441.99882,200.18617c0.25801,0.02345 0.21411,-0.08469 0.1568,-0.20229c-0.24138,-0.09324 -0.47502,-0.18987 -0.70344,-0.28764c-0.13568,0.2271 -0.06733,0.43411 0.54663,0.48992zM430.75923,190.28622l-0.07787,-0.02195l0.37752,-0.1301c0.01245,-0.00445 0.02655,-0.00858 0.04224,-0.0123c0.12515,-0.02959 0.30538,-0.02159 0.40254,0.01783c0.05549,0.02252 0.07188,0.05044 0.0524,0.07575l-0.12818,0.17254l-0.00496,-0.00038l0.00031,0.00582c-0.09576,0.07977 -0.17049,0.1599 -0.22719,0.2403c0.37482,0.18475 0.80737,0.37717 1.31935,0.58494c0,0 0.17592,0.0714 -0.05071,0.12495c-0.22661,0.05356 -0.40253,-0.01783 -0.40253,-0.01783c-0.36724,-0.14904 -0.6952,-0.29075 -0.99127,-0.42777c-0.17972,0.69611 0.73355,1.40634 0.8358,2.08297c1.18378,1.16716 2.49937,2.22137 3.90776,3.33848c0.18206,0.05708 0.36524,0.11351 0.54945,0.16923c2.5674,0.78172 8.44645,1.48212 6.7894,2.82811c-0.10323,0.1065 -0.20263,0.38228 -0.38352,0.62414c0.42807,0.15878 0.8823,0.3043 1.37609,0.42327c1.55402,0.37441 3.2362,0.6729 4.45427,1.16311c1.64672,0.66271 3.49698,1.26618 5.12406,1.94408c0.24906,0.10377 1.52318,0.54849 1.31945,0.68332c-0.39748,0.26306 -1.49812,0.01733 -1.95504,-0.04988c-3.96878,-0.33954 -7.45026,-0.86601 -11.30038,-1.29051c-3.66534,-0.40521 -7.72018,-0.97429 -10.99885,-1.62788c-4.08551,-1.10124 -6.10131,-0.33181 -9.70142,0.52942c-2.59256,0.88288 -4.9861,1.94485 -7.12401,2.93119c-2.46717,0.66575 -3.79903,2.0433 -6.71489,2.57221c-0.00695,0.00521 -0.01377,0.01045 -0.02046,0.01572l-0.07297,0.00084c-0.00419,0.00072 -0.00833,0.00144 -0.01252,0.00216l0.03605,0.01349l-0.0088,0.00226l0.01455,0.00592l-0.45371,0.10691c0,0.00001 -0.00004,0 -0.00006,0c-0.12515,0.02949 -0.30513,0.02149 -0.40222,-0.01791c-0.09507,-0.03858 -0.07538,-0.09298 0.04279,-0.12301l0.39448,-0.10142c0.39659,-0.33847 1.39541,-0.52268 1.73541,-0.85711c0.57856,-0.56906 0.26952,-1.16455 1.14538,-1.73583c0.76234,-0.48507 -0.03846,-1.06322 0.58472,-1.56498c0.81736,-0.65812 2.55634,-1.22158 4.00296,-1.74741c2.46124,-0.894 4.56319,-2.05961 5.82232,-3.1821c0.29281,-0.26104 0.95026,-0.69174 0.64964,-0.97857c-0.53596,-0.51137 -6.64674,-0.26837 -7.90707,-0.19084c-1.9043,0.15339 -4.34756,-0.02533 -6.14681,0.23439c-1.65968,0.23957 -3.10167,0.80707 -4.97454,0.8502c-1.40314,0.1011 -4.54546,-0.17295 -3.84442,-0.8862c0.31717,-0.32269 4.74748,-1.04939 5.78531,-1.24489c3.73685,-0.25198 7.65107,-0.76212 11.28032,-1.20804c3.0292,0.0928 7.8669,-1.08867 9.16647,-1.9479c0.84544,-1.1457 -2.27542,-2.21328 -1.62437,-3.53965c0.49101,-0.98122 2.26298,-2.66923 0.13287,-3.54831c-0.94049,-0.4354 -0.74158,-1.10211 -0.63932,-1.61372c0.02023,-0.10126 0.26287,-0.58059 0.78873,-0.5793c1.13642,0.0028 1.01312,1.35811 1.02566,1.61262c0.82109,1.33902 2.36748,2.19639 4.44092,3.3948c0.83185,0.7954 1.38089,1.34938 2.43183,1.94077c0.04469,-0.01567 0.09034,-0.03101 0.137,-0.04599zM434.77783,195.98334c-1.2365,-0.98314 -2.40064,-1.93238 -3.4359,-2.97369c-0.11796,-0.66697 -0.94387,-1.36026 -0.85377,-2.04542c-0.44983,0.28947 -0.99922,0.57543 -1.1972,0.8661c-0.37164,0.54566 -0.16948,1.18189 -0.3274,1.74167c1.62015,0.84818 3.61795,1.67501 5.81426,2.41134z"/><path d="M425.95591,201.08443l0.04027,0.02085l-0.51162,0.07097c-0.01709,0.00247 -0.0352,0.00459 -0.05422,0.0063c-0.15146,0.01368 -0.30193,-0.00342 -0.33603,-0.03819c-0.01949,-0.01986 0.00323,-0.04119 0.05451,-0.05838l0.34548,-0.11746l0.00391,0.00058l0.00752,-0.00425c0.19237,-0.05203 0.36634,-0.10563 0.52464,-0.16056c-0.08788,-0.15786 -0.21714,-0.32491 -0.39683,-0.50811c0,0 -0.06174,-0.06295 0.21254,-0.08771c0.27426,-0.02476 0.33602,0.03819 0.33602,0.03819c0.12892,0.13142 0.23249,0.25502 0.31385,0.37324c1.09212,-0.49505 1.22598,-1.06886 2.03996,-1.56741c0.5034,-0.92309 0.73783,-1.77229 0.97343,-2.67305c-0.08639,-0.05293 -0.17467,-0.10544 -0.26479,-0.15751c-1.24936,-0.72942 -5.56828,-1.60717 -2.28577,-2.48236c0.2348,-0.071 0.69271,-0.26535 1.17803,-0.42994c-0.17024,-0.14231 -0.38166,-0.27661 -0.66395,-0.39407c-0.88837,-0.36968 -1.99285,-0.69217 -2.42594,-1.12503c-0.58548,-0.58518 -1.43221,-1.14004 -1.97979,-1.73504c-0.08382,-0.09109 -0.62787,-0.49436 -0.26531,-0.57967c0.70737,-0.16644 1.36259,0.08125 1.68113,0.15876c3.09394,0.4956 5.50202,1.09663 8.37621,1.64659c2.73478,0.52435 5.5985,1.1923 7.6552,1.87308c2.17908,1.05693 5.01084,0.62357 9.38189,0.22269c3.49925,-0.47975 7.06013,-1.10222 10.29133,-1.6857c3.0966,-0.32968 6.13061,-1.2482 9.44522,-1.45023c0.01319,-0.00335 0.02631,-0.00674 0.03934,-0.01015l0.06637,0.00396c0.0047,-0.00026 0.0094,-0.00053 0.01409,-0.00079l-0.01419,-0.01207l0.01089,-0.0011l-0.00507,-0.00521l0.5487,-0.04933c0.00002,0.00001 0.00004,-0.00001 0.00006,-0.00001c0.15134,-0.01361 0.30153,0.00349 0.33562,0.03822c0.03337,0.03402 -0.05701,0.07235 -0.20284,0.08679l-0.48836,0.04905c-0.80744,0.22134 -1.94692,0.29276 -2.69842,0.5147c-1.27871,0.37766 -1.79924,0.83015 -3.3467,1.1908c-1.33061,0.30506 -1.38831,0.77573 -2.61684,1.10166c-1.61134,0.42748 -3.92006,0.72837 -5.91699,1.02021c-3.3967,0.49607 -6.83559,1.2122 -9.46328,1.94975c-0.61107,0.17152 -1.77515,0.44359 -1.89023,0.67106c-0.06457,0.12765 0.46476,0.23554 1.25889,0.32417c-3.63167,0.2245 -6.79203,0.47276 -8.00971,0.69407c-1.66111,0.30191 -4.34652,1.88526 -3.37361,2.68005c-0.57109,0.62084 -0.36079,1.30418 -2.04152,1.96306c-1.75193,0.68292 -5.59484,1.79969 -4.86673,2.57254c0.25825,0.3756 -0.81168,0.84808 -1.58769,1.21379c-0.15358,0.07237 -1.01188,0.40583 -1.4803,0.37195c-1.01226,-0.07323 0.91148,-1.05131 1.24083,-1.2372c1.05763,-1.02538 0.82232,-1.74586 0.57211,-2.74742c0.32058,-0.63064 0.57101,-1.06799 0.42275,-1.56397c-0.06093,0.00859 -0.12226,0.01688 -0.18401,0.02487zM429.9863,196.68889c-0.21005,0.79255 -0.4394,1.5559 -0.90719,2.37815c-0.78701,0.49252 -0.97627,1.04852 -1.97363,1.54124c0.78951,-0.18236 1.66332,-0.35594 2.22926,-0.55496c1.06239,-0.37361 1.73297,-0.84904 2.62322,-1.2463c-0.31353,-0.71841 -0.9933,-1.44496 -1.97162,-2.11812zM427.11368,194.16332c-0.17836,-0.04513 0.03898,-0.09551 0.03898,-0.09551l0.22069,-0.05118c0.20021,-0.04641 0.69929,-0.16304 1.15479,-0.29718c-0.05196,-0.06506 -0.10647,-0.13016 -0.16604,-0.19456c-0.29653,0.1006 -0.68969,0.19932 -0.99823,0.29251c-2.83171,0.75584 0.84567,1.58514 2.21359,2.23782c0.07585,-0.74822 -0.5108,-1.39034 -1.21111,-2.10428c0,0 -0.00316,-0.00322 -0.00487,-0.00849c-0.2708,0.07592 -0.50437,0.13497 -0.63145,0.16443l-0.22069,0.05118c0,0 -0.21733,0.0504 -0.39567,0.00527zM429.15413,193.17959c-0.19927,-0.03323 -0.30474,0.04818 -0.41085,0.13731c0.09104,0.08294 0.17064,0.16786 0.24403,0.25329c0.42517,-0.15668 0.64105,-0.31154 0.16685,-0.3906z" data-paper-data="{&quot;index&quot;:null}"/><path d="M425.81934,208.73027c1.16588,0.47315 0.89346,1.14448 -0.60844,1.49946c-1.50191,0.35498 -3.6646,0.25919 -4.83048,-0.21397c-1.16588,-0.47315 -0.89345,-1.14448 0.60845,-1.49946c1.50191,-0.35498 3.66458,-0.25919 4.83045,0.21397z"/><path d="M481.66963,195.30406c0.68011,0.27601 0.52118,0.66761 -0.35492,0.87468c-0.87612,0.20707 -2.13767,0.15119 -2.81776,-0.12482c-0.68011,-0.27601 -0.5212,-0.66762 0.35494,-0.87468c0.87612,-0.20707 2.13767,-0.15119 2.81778,0.12482z"/><path d="M472.41026,189.63743c-0.26155,-0.038 -0.1437,-0.11876 -0.1437,-0.11876l0.09052,-0.06201c0.27602,-0.1888 0.48027,-0.43484 0.57817,-0.67119c-0.18038,0.00611 -0.36261,0.00455 -0.54142,-0.00446c-0.16184,0.03631 -0.32524,0.07204 -0.49099,0.10685l-0.31859,-0.03465l-0.01639,0.04036l-1.20762,-0.05349c-0.21853,-0.00968 -0.42657,-0.04524 -0.5723,-0.10438c-0.29147,-0.11828 -0.22335,-0.28612 0.15212,-0.37487l0.73756,-0.17433c-0.03235,-0.19722 0.23518,-0.3945 0.77426,-0.52191c0.23368,-0.05523 0.49473,-0.09175 0.76492,-0.11038c-0.10655,-0.05735 -0.25049,-0.12119 -0.43687,-0.19309l-0.35184,-0.14279c0,0 -0.52774,-0.21418 0.15211,-0.37487c0.67986,-0.16069 1.20762,0.05349 1.20762,0.05349l0.35183,0.14278c0.36013,0.15188 0.63263,0.38799 0.75099,0.6314c0.12293,0.02942 0.23692,0.06365 0.33902,0.10254c0.1863,-0.0159 0.36697,-0.02352 0.53684,-0.0202c0.83607,-0.27486 1.75749,-0.49591 2.26236,-0.39007c0.77202,0.16184 -0.10005,0.50395 -1.12505,0.7991l0.16041,0.25152c0.06316,0.08924 -0.02258,0.18447 -0.24237,0.24925c0.1171,0.04892 0.22035,0.09871 0.29962,0.14957c0.00693,-0.00061 0.01384,-0.00118 0.02071,-0.00172l0.26217,0.10608l0.12914,-0.0505l0.9151,0.22822c0.06006,0.01433 0.11519,0.03134 0.16347,0.05094c0.29147,0.11828 0.22336,0.28612 -0.15211,0.37487c-0.23973,0.05666 -0.54679,0.06739 -0.81334,0.03695l-0.96836,-0.10567l0.09911,-0.09168c-0.00826,-0.00084 -0.01647,-0.0017 -0.02463,-0.00255c-1.57255,0.27938 -2.0873,0.08277 -2.44751,-0.22202c-0.1131,0.14453 -0.25827,0.28245 -0.42508,0.39691l-0.09051,0.06202c0,0 -0.11787,0.08076 -0.37941,0.04276zM476.06692,187.86923c0.19365,-0.12307 1.04514,-0.43169 0.69359,-0.34946c-0.45203,0.10573 -0.92212,0.20805 -1.36555,0.31697c0.01922,0.0057 0.03807,0.01171 0.05651,0.01805c0.14173,0.04877 0.22581,0.10508 0.27225,0.16633c0.14149,-0.04821 0.25956,-0.09873 0.3432,-0.15189z"/><path d="M440.01865,183.33112c0.85391,0.03783 0.74636,0.30289 0.74636,0.30289l-0.22476,-0.07356c0.96255,0.40313 2.34773,0.72496 2.54723,1.15821l0.31149,0.04805l-0.09736,0.06267c0.85286,0.14126 1.23154,0.34184 1.98655,0.78581l-0.77853,0.26082c0.2179,0.08514 0.37851,0.20214 0.41577,0.36284c0.14464,0.62379 -1.85834,0.65855 -1.85834,0.65855l-2.06341,0.0358c0,0 -2.003,0.03474 -2.14764,-0.58905c-0.14464,-0.62379 1.85833,-0.65855 1.85833,-0.65855l0.72944,-0.01265c-0.02436,-0.10876 -0.04875,-0.21752 -0.07311,-0.32628c-0.41953,-0.10993 -0.30218,-0.24584 -0.20819,-0.31123l-0.11791,-0.13581c-0.09173,-0.09683 -0.00296,-0.20389 0.24671,-0.27301c-0.4726,-0.27918 -1.71713,-0.58862 -2.11076,-0.7448l-0.12335,-0.32346c0,0 0.10755,-0.26507 0.96147,-0.22724zM443.5803,185.53955c-0.17803,-0.00789 -0.32914,-0.02512 -0.45751,-0.04957c0.00474,0.01986 0.0095,0.03973 0.01424,0.0596c0.05132,-0.01665 0.08955,-0.0257 0.08955,-0.0257z"/><path d="M410.97243,192.80827c-0.22618,0.05374 -0.40265,-0.01751 -0.40265,-0.01751l-0.03749,-0.01513c-0.22143,-0.0894 -0.4324,-0.1879 -0.65922,-0.28157c-0.17887,0.05659 -0.41934,0.09748 -0.73116,0.11804c-0.08698,0.00574 -0.29857,-0.02444 -0.55541,-0.07009c-0.37677,0.11567 -0.81722,0.23253 -1.33888,0.35583l-0.45324,0.10713c0,0 -0.67986,0.16069 -1.20761,-0.05349c-0.52775,-0.21418 0.15211,-0.37487 0.15211,-0.37487l0.45327,-0.10712c0.2889,-0.06828 0.56455,-0.15355 0.83069,-0.24782c-0.2013,-0.04293 -0.4023,-0.08601 -0.60299,-0.12922c-0.18413,-0.00998 -0.35294,-0.03432 -0.50049,-0.0764c-0.08462,-0.02413 -0.15707,-0.05077 -0.21986,-0.07941c-0.02097,-0.00456 -0.04198,-0.00912 -0.06293,-0.01368l-0.04666,0.01103l-0.70367,-0.28558c-0.29147,-0.11828 -0.22335,-0.28612 0.15212,-0.37486c0.27867,-0.06586 0.64835,-0.06965 0.9396,-0.01887c0.13035,-0.08844 0.3302,-0.16826 0.59607,-0.23111c0.07712,-0.01822 0.15722,-0.03442 0.23969,-0.0486c-0.00859,-0.00315 -0.01306,-0.00496 -0.01306,-0.00496c-0.23456,-0.09519 -0.4691,-0.19038 -0.70366,-0.28557l-0.52775,-0.21418c-0.29147,-0.11828 -0.22336,-0.28613 0.15211,-0.37487c0.37547,-0.08875 0.91616,-0.06479 1.20763,0.05349c0.23456,0.09519 0.99686,0.40456 1.23142,0.49976c0,0 0.02447,0.00993 0.05611,0.02713c0.28262,0.08679 0.56694,0.19848 0.83075,0.32442c0.1518,-0.0336 0.30097,-0.06744 0.44595,-0.10171l0.67986,-0.16069c0.37547,-0.08875 0.91617,-0.06479 1.20764,0.05349c0.22653,0.09194 0.23587,0.2138 0.0525,0.3052l-0.77114,0.40527l-0.03551,-0.00666c-0.12862,0.12119 -0.2671,0.23359 -0.42482,0.34c0.12652,0.18758 0.13797,0.3629 -0.01859,0.50067c0.27587,0.10694 0.52883,0.22225 0.80158,0.33237l0.03749,0.01514c0,0 0.17651,0.07126 -0.04966,0.125z"/><path d="M475.50944,193.82278c0.29147,0.11828 0.22335,0.28612 -0.15212,0.37486c-0.37547,0.08875 -0.91615,0.06479 -1.20761,-0.05349c-0.29147,-0.11828 -0.22336,-0.28612 0.15211,-0.37487c0.37547,-0.08875 0.91618,-0.06479 1.20762,0.0535z"/><path d="M462.87862,193.64487c0.29147,0.11828 0.22337,0.28613 -0.15211,0.37487c-0.37547,0.08875 -0.91616,0.06479 -1.2076,-0.05349c-0.29147,-0.11828 -0.22337,-0.28613 0.15211,-0.37487c0.37547,-0.08875 0.91616,-0.06479 1.2076,0.05349z"/><path d="M457.83607,196.98315c0.29147,0.11828 0.22336,0.28612 -0.15211,0.37487c-0.37547,0.08875 -0.91615,0.06479 -1.20761,-0.05349c-0.29147,-0.11828 -0.22336,-0.28612 0.15211,-0.37487c0.37547,-0.08875 0.91616,-0.06479 1.20763,0.0535z"/><path d="M404.39268,204.98271c0.29147,0.11828 0.22336,0.28612 -0.15212,0.37486c-0.37547,0.08875 -0.91615,0.06479 -1.20762,-0.05349c-0.29147,-0.11828 -0.22337,-0.28612 0.1521,-0.37487c0.37547,-0.08875 0.91617,-0.06479 1.20763,0.05349z"/><path d="M393.76624,199.36034c0.29147,0.11828 0.22337,0.28613 -0.15211,0.37487c-0.24581,0.0581 -0.56243,0.06789 -0.83358,0.03455c-0.28818,0.00857 -0.58576,-0.02843 -0.7766,-0.10587c-0.29147,-0.11828 -0.22335,-0.28612 0.15212,-0.37487c0.24581,-0.0581 0.56241,-0.0679 0.83356,-0.03455c0.28818,-0.00857 0.58577,0.02843 0.77659,0.10588z"/><path d="M395.06287,203.23382c0.29147,0.11828 0.22336,0.28612 -0.15211,0.37487c-0.37547,0.08875 -0.91613,0.06479 -1.2076,-0.05349c-0.29147,-0.11828 -0.22336,-0.28612 0.15211,-0.37486c0.37547,-0.08875 0.91616,-0.06479 1.20763,0.05349z"/><path d="M440.95729,187.07698c0.18357,0.07449 0.22453,0.16865 0.13588,0.25032c0.27773,-0.00492 0.56016,0.03216 0.74373,0.10665c0.29147,0.11828 0.22335,0.28612 -0.15212,0.37486c-0.37547,0.08875 -0.91616,0.06479 -1.20763,-0.0535c-0.18357,-0.07449 -0.22452,-0.16865 -0.13587,-0.25032c-0.27773,0.00492 -0.56014,-0.03216 -0.74371,-0.10665c-0.29147,-0.11828 -0.22335,-0.28612 0.15212,-0.37486c0.37547,-0.08875 0.91613,-0.06479 1.2076,0.05349z"/><path d="M442.96362,188.06866c-0.25967,0.03661 -0.38162,-0.0448 -0.38162,-0.0448l-0.22925,-0.16257c-0.13536,-0.30681 -0.56771,-0.49787 0.2147,-0.71299c0,0 0.22662,-0.05356 0.40254,0.01783c0.17592,0.07139 -0.05071,0.12495 -0.05071,0.12495c-0.5226,0.09203 -0.08542,0.35095 0.00188,0.54879l0.1802,0.11078c0,0 0.12193,0.0814 -0.13776,0.11801z"/></g></g></g></svg>