<svg version="1.1" xmlns="http://www.w3.org/2000/svg" xmlns:xlink="http://www.w3.org/1999/xlink" width="388.44444" height="307" viewBox="0,0,388.44444,307"><defs><radialGradient cx="239.99999" cy="179.99999" r="63" gradientUnits="userSpaceOnUse" id="color-1"><stop offset="0" stop-color="#000000" stop-opacity="0.30196"/><stop offset="1" stop-color="#000000" stop-opacity="0"/></radialGradient><radialGradient cx="371.2222" cy="89.27776" r="63" gradientUnits="userSpaceOnUse" id="color-2"><stop offset="0" stop-color="#000000" stop-opacity="0.30196"/><stop offset="1" stop-color="#000000" stop-opacity="0"/></radialGradient><radialGradient cx="108.77776" cy="89.27776" r="63" gradientUnits="userSpaceOnUse" id="color-3"><stop offset="0" stop-color="#000000" stop-opacity="0.30196"/><stop offset="1" stop-color="#000000" stop-opacity="0"/></radialGradient><radialGradient cx="108.77776" cy="270.27776" r="63" gradientUnits="userSpaceOnUse" id="color-4"><stop offset="0" stop-color="#000000" stop-opacity="0.30196"/><stop offset="1" stop-color="#000000" stop-opacity="0"/></radialGradient><radialGradient cx="371.2222" cy="270.27776" r="63" gradientUnits="userSpaceOnUse" id="color-5"><stop offset="0" stop-color="#000000" stop-opacity="0.30196"/><stop offset="1" stop-color="#000000" stop-opacity="0"/></radialGradient><linearGradient x1="240" y1="136.88889" x2="240" y2="223.11111" gradientUnits="userSpaceOnUse" id="color-6"><stop offset="0" stop-color="#f4f3e8"/><stop offset="1" stop-color="#bbbab2"/></linearGradient><linearGradient x1="108.77778" y1="46.16667" x2="108.77778" y2="132.38889" gradientUnits="userSpaceOnUse" id="color-7"><stop offset="0" stop-color="#f4f3e8"/><stop offset="1" stop-color="#bbbab2"/></linearGradient><linearGradient x1="108.77778" y1="227.16667" x2="108.77778" y2="313.38889" gradientUnits="userSpaceOnUse" id="color-8"><stop offset="0" stop-color="#f4f3e8"/><stop offset="1" stop-color="#bbbab2"/></linearGradient><linearGradient x1="371.22222" y1="46.16667" x2="371.22222" y2="132.38889" gradientUnits="userSpaceOnUse" id="color-9"><stop offset="0" stop-color="#f4f3e8"/><stop offset="1" stop-color="#bbbab2"/></linearGradient><linearGradient x1="371.22222" y1="227.16667" x2="371.22222" y2="313.38889" gradientUnits="userSpaceOnUse" id="color-10"><stop offset="0" stop-color="#f4f3e8"/><stop offset="1" stop-color="#bbbab2"/></linearGradient></defs><g transform="translate(-45.77778,-26.27778)"><g data-paper-data="{&quot;isPaintingLayer&quot;:true}" fill-rule="nonzero" stroke-linejoin="miter" stroke-miterlimit="10" stroke-dasharray="" stroke-dashoffset="0" style="mix-blend-mode: normal"><path d="M239.99999,242.99998c-34.79393,0 -62.99998,-28.20605 -62.99998,-62.99998c0,-34.79393 28.20606,-62.99998 63,-62.99998c34.79394,0 63,28.20606 63,63c0,34.79394 -28.20606,63 -62.99998,63z" fill="url(#color-1)" stroke="none" stroke-width="0" stroke-linecap="butt"/><path d="M371.2222,152.27775c-34.79393,0 -62.99998,-28.20605 -62.99998,-62.99998c0,-34.79393 28.20606,-62.99998 63,-62.99998c34.79394,0 63,28.20606 63,63c0,34.79394 -28.20606,63 -62.99998,63z" fill="url(#color-2)" stroke="none" stroke-width="0" stroke-linecap="butt"/><path d="M108.77776,152.27775c-34.79393,0 -62.99998,-28.20605 -62.99998,-62.99998c0,-34.79393 28.20606,-62.99998 63,-62.99998c34.79394,0 63,28.20606 63,63c0,34.79394 -28.20606,63 -62.99998,63z" fill="url(#color-3)" stroke="none" stroke-width="0" stroke-linecap="butt"/><path d="M108.77776,333.27775c-34.79393,0 -62.99998,-28.20605 -62.99998,-62.99998c0,-34.79393 28.20606,-62.99998 63,-62.99998c34.79394,0 63,28.20606 63,63c0,34.79394 -28.20606,63 -62.99998,63z" fill="url(#color-4)" stroke="none" stroke-width="0" stroke-linecap="butt"/><path d="M371.2222,333.27775c-34.79393,0 -62.99998,-28.20605 -62.99998,-62.99998c0,-34.79393 28.20606,-62.99998 63,-62.99998c34.79394,0 63,28.20606 63,63c0,34.79394 -28.20606,63 -62.99998,63z" fill="url(#color-5)" stroke="none" stroke-width="0" stroke-linecap="butt"/><path d="M196.88889,180c0,-23.80961 19.3015,-43.11111 43.11111,-43.11111c23.80961,0 43.11111,19.3015 43.11111,43.11111c0,23.80961 -19.3015,43.11111 -43.11111,43.11111c-23.80961,0 -43.11111,-19.3015 -43.11111,-43.11111z" fill="url(#color-6)" stroke-opacity="0.32549" stroke="#ffffff" stroke-width="0" stroke-linecap="butt"/><path d="M65.66667,89.27778c0,-23.80961 19.3015,-43.11111 43.11111,-43.11111c23.80961,0 43.11111,19.3015 43.11111,43.11111c0,23.80961 -19.3015,43.11111 -43.11111,43.11111c-23.80961,0 -43.11111,-19.3015 -43.11111,-43.11111z" fill="url(#color-7)" stroke-opacity="0.32549" stroke="#ffffff" stroke-width="0" stroke-linecap="butt"/><path d="M65.66667,270.27778c0,-23.80961 19.3015,-43.11111 43.11111,-43.11111c23.80961,0 43.11111,19.3015 43.11111,43.11111c0,23.80961 -19.3015,43.11111 -43.11111,43.11111c-23.80961,0 -43.11111,-19.3015 -43.11111,-43.11111z" fill="url(#color-8)" stroke-opacity="0.32549" stroke="#ffffff" stroke-width="0" stroke-linecap="butt"/><path d="M328.11111,89.27778c0,-23.80961 19.3015,-43.11111 43.11111,-43.11111c23.80961,0 43.11111,19.3015 43.11111,43.11111c0,23.80961 -19.3015,43.11111 -43.11111,43.11111c-23.80961,0 -43.11111,-19.3015 -43.11111,-43.11111z" fill="url(#color-9)" stroke-opacity="0.32549" stroke="#ffffff" stroke-width="0" stroke-linecap="butt"/><path d="M328.11111,270.27778c0,-23.80961 19.3015,-43.11111 43.11111,-43.11111c23.80961,0 43.11111,19.3015 43.11111,43.11111c0,23.80961 -19.3015,43.11111 -43.11111,43.11111c-23.80961,0 -43.11111,-19.3015 -43.11111,-43.11111z" fill="url(#color-10)" stroke-opacity="0.32549" stroke="#ffffff" stroke-width="0" stroke-linecap="butt"/><path d="" fill="none" stroke="#eae9df" stroke-width="2.5" stroke-linecap="round"/><path d="" fill="none" stroke="#bdbcb3" stroke-width="2.5" stroke-linecap="round"/><path d="" fill="none" stroke="#bdbcb3" stroke-width="2.5" stroke-linecap="round"/><path d="" fill="none" stroke="#c4c3ba" stroke-width="2.5" stroke-linecap="round"/><path d="" fill="none" stroke="#c4c3ba" stroke-width="2.5" stroke-linecap="round"/><path d="" fill="none" stroke="#dad9cf" stroke-width="2.5" stroke-linecap="round"/><path d="" data-paper-data="{&quot;index&quot;:null}" fill="none" stroke="#e9e9dd" stroke-width="2.5" stroke-linecap="round"/><path d="" fill="none" stroke="#bdbcb3" stroke-width="2.5" stroke-linecap="round"/><path d="" fill="none" stroke="#9b9a93" stroke-width="2.5" stroke-linecap="round"/><path d="" fill="none" stroke="#bdbcb3" stroke-width="2.5" stroke-linecap="round"/><path d="" fill="none" stroke="#bdbcb3" stroke-width="2.5" stroke-linecap="round"/><path d="" fill-opacity="0.12157" fill="#000000" stroke="none" stroke-width="0" stroke-linecap="butt"/><path d="" fill-opacity="0.12157" fill="#000000" stroke="none" stroke-width="0" stroke-linecap="butt"/><path d="" fill-opacity="0.12157" fill="#000000" stroke="none" stroke-width="0" stroke-linecap="butt"/><path d="" fill-opacity="0.12157" fill="#000000" stroke="none" stroke-width="0" stroke-linecap="butt"/><path d="" fill-opacity="0.12157" fill="#000000" stroke="none" stroke-width="0" stroke-linecap="butt"/><path d="" fill-opacity="0.12157" fill="#000000" stroke="none" stroke-width="0" stroke-linecap="butt"/><path d="" fill-opacity="0.12157" fill="#000000" stroke="none" stroke-width="0" stroke-linecap="butt"/><path d="" fill-opacity="0.12157" fill="#000000" stroke="none" stroke-width="0" stroke-linecap="butt"/><path d="" fill-opacity="0.23529" fill="#ffffff" stroke="none" stroke-width="0" stroke-linecap="butt"/><path d="" fill-opacity="0.23529" fill="#ffffff" stroke="none" stroke-width="0" stroke-linecap="butt"/><path d="" fill-opacity="0.23529" fill="#ffffff" stroke="none" stroke-width="0" stroke-linecap="butt"/><path d="" fill-opacity="0.23529" fill="#ffffff" stroke="none" stroke-width="0" stroke-linecap="butt"/><path d="" fill-opacity="0.23529" fill="#ffffff" stroke="none" stroke-width="0" stroke-linecap="butt"/><path d="" fill-opacity="0.23529" fill="#ffffff" stroke="none" stroke-width="0" stroke-linecap="butt"/><path d="" fill-opacity="0.23529" fill="#ffffff" stroke="none" stroke-width="0" stroke-linecap="butt"/><path d="" fill-opacity="0.23529" fill="#ffffff" stroke="none" stroke-width="0" stroke-linecap="butt"/></g></g></svg>