<svg version="1.1" xmlns="http://www.w3.org/2000/svg" xmlns:xlink="http://www.w3.org/1999/xlink" width="580.11995" height="409.22218" viewBox="0,0,580.11995,409.22218"><defs><linearGradient x1="225.53713" y1="288.53609" x2="268.83856" y2="288.53609" gradientUnits="userSpaceOnUse" id="color-1"><stop offset="0" stop-color="#fff5cb"/><stop offset="1" stop-color="#ffe26f"/></linearGradient><linearGradient x1="324.2126" y1="157.58295" x2="492.55137" y2="157.58295" gradientUnits="userSpaceOnUse" id="color-2"><stop offset="0" stop-color="#fff5ce"/><stop offset="1" stop-color="#ffe16b"/></linearGradient><radialGradient cx="349.20683" cy="114.40732" r="84.15867" gradientUnits="userSpaceOnUse" id="color-3"><stop offset="0" stop-color="#e5ddc0"/><stop offset="1" stop-color="#e5ca60"/></radialGradient><linearGradient x1="344.47418" y1="46.34851" x2="344.47418" y2="117.74982" gradientUnits="userSpaceOnUse" id="color-4"><stop offset="0" stop-color="#fff5ce"/><stop offset="1" stop-color="#ffe684"/></linearGradient><linearGradient x1="347.96327" y1="53.35983" x2="347.96327" y2="124.7611" gradientUnits="userSpaceOnUse" id="color-5"><stop offset="0" stop-color="#fff5ce"/><stop offset="1" stop-color="#ceba6b"/></linearGradient><linearGradient x1="347.96327" y1="53.35983" x2="347.96327" y2="124.7611" gradientUnits="userSpaceOnUse" id="color-6"><stop offset="0" stop-color="#fff5ce"/><stop offset="1" stop-color="#ceba6b"/></linearGradient><linearGradient x1="403.4471" y1="158.61549" x2="457.26276" y2="158.61549" gradientUnits="userSpaceOnUse" id="color-7"><stop offset="0" stop-color="#fffbe7"/><stop offset="1" stop-color="#ffeb9b"/></linearGradient><radialGradient cx="417.91966" cy="165.94262" r="24.78744" gradientUnits="userSpaceOnUse" id="color-8"><stop offset="0" stop-color="#cecece"/><stop offset="1" stop-color="#caba7b"/></radialGradient><radialGradient cx="350.99511" cy="156.85994" r="17.42044" gradientUnits="userSpaceOnUse" id="color-9"><stop offset="0" stop-color="#ffffff"/><stop offset="1" stop-color="#ffeb9b"/></radialGradient><linearGradient x1="367.20485" y1="204.04478" x2="439.6485" y2="204.04478" gradientUnits="userSpaceOnUse" id="color-10"><stop offset="0" stop-color="#ceb656"/><stop offset="1" stop-color="#2e2913"/></linearGradient><linearGradient x1="345.09091" y1="45.38254" x2="345.09091" y2="116.78392" gradientUnits="userSpaceOnUse" id="color-11"><stop offset="0" stop-color="#f2db7f" stop-opacity="0"/><stop offset="1" stop-color="#f2db7f"/></linearGradient><linearGradient x1="344.21431" y1="47.86554" x2="344.21431" y2="119.26682" gradientUnits="userSpaceOnUse" id="color-12"><stop offset="0" stop-color="#fff5ce"/><stop offset="1" stop-color="#ffe684"/></linearGradient><linearGradient x1="258.04706" y1="152.42719" x2="258.04706" y2="228.06207" gradientUnits="userSpaceOnUse" id="color-13"><stop offset="0" stop-color="#f1d97d"/><stop offset="1" stop-color="#ffe684"/></linearGradient><linearGradient x1="260.81211" y1="168.16874" x2="260.81211" y2="242.83755" gradientUnits="userSpaceOnUse" id="color-14"><stop offset="0" stop-color="#ded7bc" stop-opacity="0"/><stop offset="1" stop-color="#ded7bc"/></linearGradient><linearGradient x1="513.36404" y1="169.62621" x2="513.36404" y2="264.55896" gradientUnits="userSpaceOnUse" id="color-15"><stop offset="0" stop-color="#ead37a"/><stop offset="1" stop-color="#ded7bc"/></linearGradient><linearGradient x1="253.51776" y1="176.11171" x2="247.6047" y2="187.06265" gradientUnits="userSpaceOnUse" id="color-16"><stop offset="0" stop-color="#c2b996" stop-opacity="0"/><stop offset="1" stop-color="#c2b996"/></linearGradient><linearGradient x1="264.79837" y1="187.4336" x2="261.92994" y2="199.52762" gradientUnits="userSpaceOnUse" id="color-17"><stop offset="0" stop-color="#c2b996" stop-opacity="0"/><stop offset="1" stop-color="#c2b996"/></linearGradient><linearGradient x1="233.73379" y1="184.77611" x2="225.38844" y2="200.23148" gradientUnits="userSpaceOnUse" id="color-18"><stop offset="0" stop-color="#c2b996" stop-opacity="0"/><stop offset="1" stop-color="#c2b996"/></linearGradient><linearGradient x1="239.19703" y1="203.47961" x2="234.01624" y2="220.26269" gradientUnits="userSpaceOnUse" id="color-19"><stop offset="0" stop-color="#c2b996" stop-opacity="0"/><stop offset="1" stop-color="#c2b996"/></linearGradient><linearGradient x1="257.4851" y1="209.5629" x2="258.74871" y2="227.0819" gradientUnits="userSpaceOnUse" id="color-20"><stop offset="0" stop-color="#c2b996" stop-opacity="0"/><stop offset="1" stop-color="#c2b996"/></linearGradient><radialGradient cx="317.51528" cy="100.91037" r="75.46842" gradientUnits="userSpaceOnUse" id="color-21"><stop offset="0" stop-color="#f6e5a2"/><stop offset="1" stop-color="#f6e5a2" stop-opacity="0"/></radialGradient><linearGradient x1="119.25717" y1="161.84619" x2="318.9558" y2="184.19893" gradientUnits="userSpaceOnUse" id="color-22"><stop offset="0" stop-color="#ffdd55"/><stop offset="1" stop-color="#ffd016"/></linearGradient><linearGradient x1="127.85619" y1="175.87229" x2="328.72048" y2="170.15113" gradientUnits="userSpaceOnUse" id="color-23"><stop offset="0" stop-color="#ffe57f"/><stop offset="1" stop-color="#ffd83a"/></linearGradient><linearGradient x1="111.38058" y1="188.05232" x2="312.18288" y2="195.6419" gradientUnits="userSpaceOnUse" id="color-24"><stop offset="0" stop-color="#ffdd55"/><stop offset="1" stop-color="#ffd016"/></linearGradient><radialGradient cx="501.80701" cy="317.06427" r="20.87494" gradientUnits="userSpaceOnUse" id="color-25"><stop offset="0" stop-color="#ffde59"/><stop offset="1" stop-color="#ffe16b"/></radialGradient><radialGradient cx="453.33368" cy="307.48954" r="20.87496" gradientUnits="userSpaceOnUse" id="color-26"><stop offset="0" stop-color="#fff5cb"/><stop offset="1" stop-color="#ffe16b"/></radialGradient><radialGradient cx="461.86741" cy="303.61384" r="11.20718" gradientUnits="userSpaceOnUse" id="color-27"><stop offset="0" stop-color="#fff8dc"/><stop offset="1" stop-color="#ffe16b"/></radialGradient></defs><g transform="translate(17.07102,-37.8361)"><g data-paper-data="{&quot;isPaintingLayer&quot;:true}" fill-rule="nonzero" stroke-linejoin="miter" stroke-miterlimit="10" stroke-dasharray="" stroke-dashoffset="0" style="mix-blend-mode: normal"><path d="M291.78954,373.32999c0,-0.69036 0.55964,-1.25 1.25,-1.25c0.69036,0 1.25,0.55964 1.25,1.25c0,0.69036 -0.55964,1.25 -1.25,1.25c-0.69036,0 -1.25,-0.55964 -1.25,-1.25z" fill="#000000" stroke="none" stroke-width="0.5" stroke-linecap="butt"/><path d="M263.88275,368.68601c0,-0.69036 0.55964,-1.25 1.25,-1.25c0.69036,0 1.25,0.55964 1.25,1.25c0,0.69036 -0.55964,1.25 -1.25,1.25c-0.69036,0 -1.25,-0.55964 -1.25,-1.25z" fill="#000000" stroke="none" stroke-width="0.5" stroke-linecap="butt"/><path d="M286.83985,380.81828c1.23276,0.20684 1.02592,1.43962 1.02592,1.43962l-0.26236,1.22595c-1.55839,3.08477 -5.58386,7.30076 -8.70624,3.94098c-0.99189,-1.37956 -2.18372,-2.69797 -3.10281,-4.11408c-0.40733,-0.6276 -0.80942,-1.27182 -1.0876,-1.96593c-0.88234,1.07824 -3.37822,2.62076 -3.68755,2.73998c-4.3388,1.67221 -14.17081,-4.24374 -8.94867,-8.69605c0,0 1.00243,-0.74675 1.74918,0.25568c0.74675,1.00243 -0.25568,1.74918 -0.25568,1.74918c-2.2982,1.23514 3.93547,4.99765 5.35555,4.72664c1.61493,-0.3082 2.89646,-1.31745 4.03208,-2.45413c0.56169,-0.56221 0.80966,-1.786 1.60407,-1.76386c0.95317,0.02656 1.5593,1.13302 2.16569,1.86891c1.50639,1.82809 2.7841,4.21802 4.20543,6.19407c0.25528,1.6461 4.00707,-2.73503 4.44354,-3.60549l0.02985,-0.51554c0,0 0.20685,-1.23276 1.43962,-1.02592z" fill="#000000" stroke="none" stroke-width="0.5" stroke-linecap="butt"/><path d="" fill="#fffae7" stroke="none" stroke-width="0" stroke-linecap="butt"/><path d="M282.977,185.07583c-1.75151,1.97277 -0.30344,21.08181 -3.90661,33.15475c-1.06403,3.5652 -8.31547,7.80408 -13.84901,8.769c-10.46359,1.82461 -22.51153,-2.78046 -29.26136,-8.70449c-5.67059,-4.97682 -14.28896,-6.48326 -14.62111,-10.17086c0.07592,-3.15892 -2.4127,-13.97657 1.89253,-19.0094c0.0897,1.65337 0.62338,3.45135 1.73223,5.4226c0.22883,0.4068 0.50436,0.76723 0.8173,1.09049c1.91742,2.5273 4.95319,4.15951 8.3702,4.15951c3.85374,0 7.22258,-2.07611 9.04907,-5.17089c4.2075,-2.40428 8.63188,-7.04119 12.63799,-10.13044c14.70621,-11.34046 29.70686,-22.04564 43.67082,-34.3171c2.01942,-1.77465 8.95889,-8.32133 8.95889,-8.32133c0,0 -12.43346,28.52121 -25.49092,43.22815z" fill="#fffae7" stroke="none" stroke-width="0" stroke-linecap="butt"/><path d="" fill="#fffae7" stroke="none" stroke-width="0" stroke-linecap="butt"/><path d="M373.9451,147.46042c0,-1.24264 1.00736,-2.25 2.25,-2.25c1.24264,0 2.25,1.00736 2.25,2.25c0,1.24264 -1.00736,2.25 -2.25,2.25c-1.24264,0 -2.25,-1.00736 -2.25,-2.25z" fill="#000000" stroke="none" stroke-width="0.5" stroke-linecap="butt"/><path d="M411.67885,152.69018c0,-1.24264 1.00736,-2.25 2.25,-2.25c1.24264,0 2.25,1.00736 2.25,2.25c0,1.24264 -1.00736,2.25 -2.25,2.25c-1.24264,0 -2.25,-1.00736 -2.25,-2.25z" fill="#000000" stroke="none" stroke-width="0.5" stroke-linecap="butt"/><path d="M402.48317,180.48732c0.95249,2.03844 -1.08596,2.99094 -1.08596,2.99094l-0.69014,0.32247c-1.56508,0.69719 -2.99828,1.85525 -4.69526,2.09159c-6.30889,0.87862 -12.51952,-3.69383 -16.06473,-8.32112c0,0 -1.35584,-1.7956 0.43976,-3.15145c1.7956,-1.35584 3.15145,0.43975 3.15145,0.43975c2.40521,3.24379 7.30706,7.32926 11.80528,6.5827c1.26992,-0.21077 2.30568,-1.14558 3.45852,-1.71837l0.69014,-0.32247c0,0 2.03845,-0.95248 2.99094,1.08596z" fill="#000000" stroke="none" stroke-width="0.5" stroke-linecap="butt"/><path d="M236.50386,307.36282c-10.39772,-5.90057 -14.0434,-19.11293 -8.14283,-29.51066c5.90057,-10.39773 19.11293,-14.0434 29.51066,-8.14283c5.80363,3.29348 9.50368,7.89742 10.61426,13.98592c0.55683,3.05269 54.38172,-20.96979 54.28992,-19.93086c-0.22242,2.51709 7.10563,4.40082 1.65649,17.60779c-1.30776,3.16959 -18.34265,24.37572 -18.48143,24.62029c-5.90057,10.39772 -59.04933,7.27092 -69.44705,1.37035z" data-paper-data="{&quot;index&quot;:null}" fill="url(#color-1)" stroke="none" stroke-width="0" stroke-linecap="butt"/><path d="M166.63513,423.82123c3.15399,-8.83975 114.12019,-81.05403 119.77747,-94.61734c22.76463,-54.5781 62.77225,-136.42374 100.06047,-157.21224c57.2677,-31.92722 52.74073,-15.55972 70.67418,53.52137c1.72696,6.65237 18.70073,15.36158 18.69746,23.28044c-0.0098,23.75648 -13.89992,53.87814 -23.48225,81.71715c-1.23072,3.57555 -8.91881,23.13951 -10.22368,26.68026c-3.26776,8.86702 43.68919,25.88204 40.44446,33.5807c-16.92863,40.16599 -77.81872,55.05065 -77.81872,55.05065c0,0 -31.68952,1.73596 -32.27074,0.57733c-4.92606,-9.81992 2.80322,-59.23757 -2.90442,-69.03481c-0.65757,-1.12872 1.51443,-7.17609 2.00102,-7.7452c3.24415,-3.79429 -123.57153,54.52548 -143.8937,58.30936c-16.48922,3.0702 -64.70782,6.1118 -61.06155,-4.10768z" fill="#fee790" stroke="none" stroke-width="0" stroke-linecap="butt"/><path d="M453.15083,328.89637c-1.23072,3.57555 -8.91881,23.13951 -10.22368,26.68026c-3.26776,8.86702 43.68919,25.88204 40.44446,33.5807c-16.92863,40.16599 -82.49423,55.05065 -82.49423,55.05065c0,0 -26.4787,4.20454 -27.12211,2.40041c-7.54073,-21.14449 -1.66025,-50.78804 -1.66025,-50.78804c0,0 33.30145,-38.16197 52.71106,-64.09009c12.74731,-17.02837 24.2673,-35.05782 36.82312,-52.24988c4.31464,-5.90782 8.83762,-11.64731 13.468,-17.29976c-3.87535,20.75272 -14.28702,44.46344 -21.94638,66.71575z" fill="#edd474" stroke="none" stroke-width="0" stroke-linecap="butt"/><path d="" fill="#edd474" stroke="none" stroke-width="0" stroke-linecap="butt"/><path d="" fill="#edd474" stroke="none" stroke-width="0" stroke-linecap="butt"/><path d="M325.05905,145.75151c6.53423,-46.01796 49.13619,-78.02584 95.15415,-71.49161c46.01796,6.53423 78.02584,49.1362 71.49161,95.15416c-6.53423,46.01796 -49.1362,78.02584 -95.15416,71.49161c-46.01796,-6.53423 -78.02583,-49.1362 -71.4916,-95.15416z" fill="url(#color-2)" stroke="none" stroke-width="0" stroke-linecap="butt"/><path d="M491.99718,169.84959c-6.14797,43.29766 -44.22551,74.19267 -87.03583,72.25141c4.33205,-2.36903 35.67107,-15.28661 57.44679,-40.98419c17.78328,-20.98609 26.93322,-55.07434 28.45011,-61.01081c0.01254,-0.04906 0.02506,-0.09813 0.03757,-0.14718c2.09972,9.5532 2.55729,19.63718 1.10135,29.89077z" fill="url(#color-3)" stroke="none" stroke-width="0" stroke-linecap="butt"/><path d="M353.47418,107.16941c-2.35865,0 -13.93094,1.69781 -22.11844,10.28597c-21.41685,22.46489 -31.26088,37.07691 -51.86782,60.28697c-3.2468,3.65695 -13.57336,45.25353 -16.52674,48.46764c-5.868,6.38602 -28.35292,1.06472 -38.67231,-7.99215c-5.67059,-4.97682 -6.10689,-13.73949 -6.43904,-17.42709c0.07935,-3.30185 -2.64317,-14.97121 2.51953,-19.6558c6.61182,-5.99951 21.6671,-5.18803 24.12502,-10.314c7.44894,-15.53468 26.87547,-23.48017 38.30515,-40.2931c2.19145,-3.22359 9.46858,-17.68179 11.46761,-20.79827c13.41101,-20.90759 13.97206,-24.41444 13.97206,-27.68037c0,-19.71694 61.8089,-43.24713 81.82092,-43.24713c7.31452,0 40.60382,3.9243 60.20468,11.89489c16.32351,6.63789 19.21322,17.14944 26.32797,20.61578c7.9946,3.89502 28.99288,61.53414 57.00433,100.8271c48.44728,67.95927 2.8182,93.69005 -4.40948,91.76869c-18.95794,-5.03967 -84.83893,-152.87471 -84.73361,-152.59802c0.32569,0.85563 -8.71777,12.19402 -16.34255,11.00217c-15.26101,-2.38549 -62.19554,-13.27384 -77.97666,-7.41364c-12.27237,4.55725 10.17321,-7.72964 3.33938,-7.72964z" fill="url(#color-4)" stroke="none" stroke-width="0" stroke-linecap="butt"/><path d="M451.7781,184.80223l-51.55769,-1.66338l-6.10204,-22.24877l-18.23135,-4.39965l2.24321,-4.7313l19.4787,-5.74346l95.05788,-21.10356l-23.82073,22.92843z" data-paper-data="{&quot;index&quot;:null}" fill="#000000" stroke="none" stroke-width="0" stroke-linecap="butt"/><path d="M492.38834,97.85906c-0.39776,-0.05839 -0.79586,-0.11539 -1.19405,-0.17199c0.19887,-0.33631 0.39828,-0.67226 0.5983,-1.00776c0.19687,0.38859 0.39546,0.78189 0.59575,1.17974z" fill="url(#color-5)" stroke="none" stroke-width="0" stroke-linecap="butt"/><path d="M451.11093,125.32914c-7.85692,2.35029 -17.08756,4.37346 -19.51038,3.99474c-15.26101,-2.38549 -62.19554,-13.27384 -77.97666,-7.41364c-1.95592,0.72631 -3.02999,1.02478 -3.48127,1.01332c0.39299,-0.49716 0.79729,-0.97762 1.22128,-1.42911c0.2955,-0.31466 0.58787,-0.63236 0.87785,-0.95238c3.02033,-2.36592 7.62584,-5.72029 5.50695,-6.28065c1.0136,-1.11742 2.05641,-2.20597 3.16005,-3.23469c1.6411,-1.52969 4.03959,-2.0951 5.65048,-3.65657c1.21435,-1.17709 2.0613,-2.68176 3.09195,-4.02264l1.07441,-2.18903c21.26657,-3.24115 93.8395,-14.94462 115.37365,-13.64795c5.10041,0.30712 5.06873,7.36003 9.69595,15.87514c3.63747,6.69376 8.34025,15.97632 12.71894,24.27614c5.37075,10.18026 10.08576,18.88205 9.68434,19.51482c-1.12687,1.77629 -7.11541,1.16406 -14.96673,-0.46762c-18.10145,-3.76188 -46.10442,-12.94258 -47.25732,-10.76419c-1.93376,-4.19096 -3.57691,-7.78615 -4.86349,-10.61568zM447.94311,118.32171c0.00042,0.0011 0.00098,0.00221 0.00167,0.0033c-0.00151,-0.00324 -0.00207,-0.00435 -0.00167,-0.0033z" fill="url(#color-6)" stroke="none" stroke-width="0" stroke-linecap="butt"/><path d="M387.8857,124.27765c-1.16388,-1.50353 -1.69518,-3.1841 -1.75142,-4.96919c-0.04862,-1.54405 -9.70351,3.31789 -8.78802,1.82419c0.28736,-0.46885 5.7544,-4.08041 9.10366,-6.41222c1.02387,0.35967 1.86089,0.61623 2.24315,0.66915c4.06114,0.56219 8.06451,0.28532 12.06886,0.04209c2.53804,0.94163 5.30129,1.59625 7.88266,2.10232c0.11487,0.20518 0.26029,0.40121 0.44142,0.58514c2.5627,2.60227 9.72533,3.75788 9.65256,5.23453c-0.054,1.09584 -9.56845,-2.76936 -10.19286,-1.77712c-0.56408,0.89638 -1.45354,11.83029 -1.46671,11.83392c-0.49671,0.13759 -2.37895,-7.6534 -3.40738,-7.01893c-1.20852,0.74554 -6.15027,-0.21053 -8.13246,1.14137c-3.92744,2.67868 -5.44943,7.78837 -7.79217,6.73502c-1.57591,-0.70857 1.21898,-8.59472 0.13871,-9.99025z" data-paper-data="{&quot;index&quot;:null}" fill="#6075e6" stroke="none" stroke-width="0" stroke-linecap="butt"/><path d="M436.95959,179.34357l-21.58224,-0.72314l-11.93025,-26.04604l53.23122,-11.39674z" data-paper-data="{&quot;index&quot;:null}" fill="url(#color-7)" stroke="none" stroke-width="0" stroke-linecap="butt"/><path d="M439.02098,179.67137l-5.76188,-0.15112c2.55265,-3.60754 16.20049,-29.33639 20.52918,-37.81376c1.48057,-0.24521 2.99699,-0.40101 4.51086,-0.49862z" data-paper-data="{&quot;index&quot;:null}" fill="url(#color-8)" stroke="none" stroke-width="0" stroke-linecap="butt"/><path d="M332.7875,138.86201l-9.02581,-18.11767l50.25991,31.44486l10.72915,-0.69499l-13.89892,9.9627l-2.90015,8.4794l-33.77853,-16.96638z" data-paper-data="{&quot;index&quot;:null}" fill="#000000" stroke="none" stroke-width="0" stroke-linecap="butt"/><path d="M338.72336,141.55505l25.45011,16.09156l-1.40344,2.61616l-10.26307,-4.60629z" data-paper-data="{&quot;index&quot;:null}" fill="url(#color-9)" stroke="none" stroke-width="0" stroke-linecap="butt"/><path d="M396.77472,201.10506l10.88515,-0.61309c0,0 3.28516,-0.80731 7.7571,-1.98841c0.45655,-0.12058 6.63673,5.44116 6.63673,5.44116l4.48206,-8.52025c0,0 11.43877,-1.9816 12.92094,-1.27105c1.88833,0.90527 -10.78795,16.41019 -10.78795,16.41019c0,0 -19.59319,5.44842 -35.61172,2.80043c-11.60665,-1.91867 -16.64989,-10.9621 -25.67549,-14.49792c-2.83524,-1.11071 29.39319,2.23894 29.39319,2.23894z" fill="url(#color-10)" stroke="none" stroke-width="0" stroke-linecap="butt"/><path d="M386.45883,119.27747c-0.01683,-0.53453 -1.18491,-0.30133 -2.66714,0.17012c-0.82495,-0.21787 -1.65353,-0.41266 -2.48871,-0.56643c-0.16965,-0.03124 -0.3405,-0.06171 -0.51247,-0.09141c1.90182,-1.31198 4.29609,-2.92345 6.06754,-4.15853c1.63536,0.06284 3.3192,0.15754 5.07906,0.33675c3.61422,0.36805 7.12892,1.54262 10.75511,1.76366c2.00698,0.12233 4.01645,0.16256 6.02716,0.16177c0.11968,0.42977 0.33728,0.83535 0.69117,1.19471c2.5627,2.60227 9.72533,3.75787 9.65256,5.23452c-0.054,1.09584 -9.56846,-2.76936 -10.19287,-1.77712c-0.13045,0.2073 -0.2783,0.95145 -0.4287,1.97309c-0.30214,-0.06599 -0.60496,-0.13244 -0.90859,-0.19919c-4.76835,-0.43773 -9.48919,-0.622 -14.21352,-1.35326c-2.29862,-0.3558 -4.53926,-1.05457 -6.78243,-1.72996c-0.04225,-0.31587 -0.068,-0.63558 -0.07818,-0.95873z" data-paper-data="{&quot;index&quot;:null}" fill="#7b8be8" stroke="none" stroke-width="0" stroke-linecap="butt"/><path d="" data-paper-data="{&quot;index&quot;:null}" fill="#7b8be8" stroke="none" stroke-width="0" stroke-linecap="butt"/><path d="M407.32764,132.86681c-0.26788,-0.01418 -0.53569,-0.02922 -0.8034,-0.04501c-0.16388,-0.45009 -0.34498,-0.97659 -0.53572,-1.52431c0.27152,-0.01702 0.54309,-0.03366 0.81473,-0.04977c0.22241,0.01931 0.44482,0.03846 0.66721,0.05743c-0.0549,0.58694 -0.10316,1.11903 -0.14281,1.56166z" data-paper-data="{&quot;index&quot;:null}" fill="#7b8be8" stroke="none" stroke-width="0" stroke-linecap="butt"/><path d="M354.09091,106.20344c-2.58965,0 -10.71658,2.45259 -20.06243,12.58155c-15.73429,17.05271 -9.16914,30.48941 -23.90017,48.41591c-7.95543,9.6811 -29.02366,9.57547 -29.02366,9.57547c0,0 -14.57337,45.25353 -17.52675,48.46764c-5.868,6.38602 -28.35291,1.06472 -38.67231,-7.99215c-5.67059,-4.97682 -6.10689,-13.73949 -6.43904,-17.42709c0.07935,-3.30185 -2.64317,-14.97121 2.51953,-19.6558c6.61182,-5.99951 21.6671,-5.18803 24.12503,-10.314c8.87715,-18.51319 25.42746,-20.45775 37.85266,-39.82848c13.41101,-20.90759 25.89216,-45.67733 25.89216,-48.94326c0,-19.71694 61.8089,-43.24713 81.82092,-43.24713c7.31452,0 40.60382,3.9243 60.20468,11.89489c16.32351,6.63789 19.21322,17.14944 26.32797,20.61578c7.9946,3.89502 37.99288,24.53413 66.00433,63.8271c48.44728,67.95927 -6.1818,130.69005 -13.40948,128.76869c-18.95794,-5.03967 -84.83893,-152.87471 -84.73361,-152.59802c0.32569,0.85563 -8.71777,12.19402 -16.34255,11.00217c-15.26101,-2.38549 -62.19554,-13.27384 -77.97666,-7.41364c-12.27237,4.55726 10.17321,-7.72964 3.33938,-7.72964z" fill="url(#color-11)" stroke="none" stroke-width="0" stroke-linecap="butt"/><path d="M528.92762,265.42545c-7.96458,-2.11726 -24.21108,-29.43787 -40.36715,-60.39081c0.12205,-0.2387 0.19089,-0.50911 0.19089,-0.79559c0,-0.55027 -0.25399,-1.04124 -0.65112,-1.36204l-1.15346,-0.94642c-5.72913,-11.06408 -11.41174,-22.49526 -16.67342,-33.32892c8.50315,5.62159 17.7657,9.64397 27.02488,14.55057c5.22841,2.77063 10.14607,5.74385 15.56026,8.17665c5.31087,2.38637 10.51406,5.31553 15.91931,7.4543c5.14387,2.03535 10.61514,2.97039 15.88932,4.52499c2.08015,0.61313 4.10101,1.47942 6.1594,2.19249c16.1797,44.26571 -15.93461,61.51032 -21.89894,59.9248z" fill="url(#color-12)" stroke="none" stroke-width="0" stroke-linecap="butt"/><path d="M280.10462,176.79223c-3.2468,3.65695 -13.57337,45.25353 -16.52675,48.46763c-5.868,6.38602 -28.35291,1.06472 -38.67231,-7.99215c-5.67059,-4.97683 -6.1069,-13.73949 -6.43905,-17.42708c0.07935,-3.30185 -2.64317,-14.97122 2.51953,-19.6558c6.61182,-5.99951 21.6671,-5.18803 24.12503,-10.314c0.13356,-0.27854 0.269,-0.55785 0.40628,-0.83792c2.97576,0.24305 6.12977,-0.23821 8.63576,-0.80692c1.29517,-0.29393 2.70844,-0.2892 3.87624,-0.92174c1.07599,-0.58281 2.17326,-1.54306 3.24502,-2.62831c8.31066,-2.41091 16.40454,-6.63195 24.39177,-9.37608c2.34208,-0.80465 5.61906,-2.64903 8.0937,-2.8163c1.53046,-0.10345 3.03282,-0.05959 4.51496,0.09319c-5.86851,8.59065 -11.82482,17.06856 -18.17019,24.21549z" fill="url(#color-13)" stroke="none" stroke-width="0" stroke-linecap="butt"/><path d="M279.69855,178.56773c-3.2468,3.65695 -13.57337,45.25353 -16.52675,48.46764c-5.868,6.38602 -28.35291,1.06472 -38.67231,-7.99215c-5.67059,-4.97682 -6.10689,-13.73949 -6.43904,-17.42709c0.07935,-3.30185 -2.64317,-14.97121 2.51953,-19.6558c6.55145,-5.94473 21.39284,-5.20228 24.05455,-10.17505c2.93444,0.21706 6.02905,-0.25802 8.49579,-0.81781c1.29517,-0.29393 2.70844,-0.2892 3.87624,-0.92174c1.07599,-0.58281 2.17326,-1.54306 3.24501,-2.62831c8.31066,-2.41091 16.40454,-6.63195 24.39177,-9.37608c2.34208,-0.80465 16.04124,-1.48807 18.51588,-1.65534c1.51634,-0.1025 -17.35224,15.30167 -23.46068,22.18174z" fill="url(#color-14)" stroke="none" stroke-width="0" stroke-linecap="butt"/><path d="M529.00327,264.45949c-10.88429,-2.89342 -37.23555,-52.85559 -57.68606,-94.83337c8.06302,5.09765 16.75296,8.92273 25.43996,13.52613c5.22841,2.77063 10.14607,5.74385 15.56027,8.17665c5.31087,2.38637 10.51406,5.31553 15.91931,7.4543c5.14387,2.03535 10.61514,2.97039 15.88932,4.52499c2.44588,0.72094 4.80979,1.79188 7.24913,2.55218c15.06422,43.28456 -16.46752,60.16873 -22.37194,58.59913z" fill="url(#color-15)" stroke="none" stroke-width="0" stroke-linecap="butt"/><path d="M255.75533,182.38238c-1.63286,3.02402 -5.28207,5.11946 -8.15072,4.6803c-2.86865,-0.43917 -3.87046,-3.24663 -2.23759,-6.27066c1.63287,-3.02402 5.28206,-5.11946 8.15071,-4.6803c2.86865,0.43917 3.87046,3.24663 2.23759,6.27066z" fill="url(#color-16)" stroke="none" stroke-width="0" stroke-linecap="butt"/><path d="M268.58017,192.90282c-0.7921,3.33967 -3.76955,6.30569 -6.6503,6.62478c-2.88075,0.31909 -4.57394,-2.12957 -3.78183,-5.46924c0.7921,-3.33967 3.76954,-6.30568 6.65029,-6.62477c2.88075,-0.31909 4.57394,2.12956 3.78184,5.46923z" fill="url(#color-17)" stroke="none" stroke-width="0" stroke-linecap="butt"/><path d="M236.89176,193.62605c-2.30451,4.26788 -7.45472,7.22523 -11.50332,6.60542c-4.0486,-0.61981 -5.46247,-4.58206 -3.15797,-8.84994c2.30451,-4.26788 7.45471,-7.22522 11.50331,-6.60541c4.0486,0.61981 5.46248,4.58205 3.15798,8.84993z" fill="url(#color-18)" stroke="none" stroke-width="0" stroke-linecap="butt"/><path d="M244.01559,211.54653c-1.43063,4.63452 -5.90749,8.53688 -9.99934,8.71615c-4.09185,0.17927 -6.24919,-3.43243 -4.81855,-8.06696c1.43063,-4.63452 5.90748,-8.53687 9.99933,-8.71614c4.09185,-0.17927 6.24919,3.43242 4.81856,8.06695z" fill="url(#color-19)" stroke="none" stroke-width="0" stroke-linecap="butt"/><path d="M264.9028,215.33094c0.34895,4.83774 -2.40633,10.09883 -6.1541,11.75096c-3.74777,1.65213 -7.06884,-0.93033 -7.41779,-5.76807c-0.34895,-4.83774 2.40633,-10.09882 6.1541,-11.75095c3.74777,-1.65213 7.06884,0.93031 7.4178,5.76805z" fill="url(#color-20)" stroke="none" stroke-width="0" stroke-linecap="butt"/><path d="M418.51052,62.3786c-6.4301,5.33748 -52.30764,11.00701 -60.18459,16.71304c-11.55854,8.37296 -74.67318,65.52298 -84.12904,70.98626c-15.02934,8.68346 26.1094,-37.01182 24.14682,-39.72109c-3.19736,-4.41383 18.47366,-25.56794 48.40357,-47.24904c29.92991,-21.6811 89.76547,-15.67242 71.76324,-0.72917z" fill="url(#color-21)" stroke="none" stroke-width="0" stroke-linecap="butt"/><path d="M407.27137,168.72602l10.83673,2.47245l-13.53697,4.58518" fill="none" stroke="#000000" stroke-width="2" stroke-linecap="round"/><path d="M462.05874,154.51576l-22.79294,-4.06349l18.11746,-2.32199" fill="none" stroke="#000000" stroke-width="3" stroke-linecap="round"/><path d="M448.93421,150.72465c-0.13051,-2.49659 2.36608,-2.6271 2.36608,-2.6271l2.35136,-0.11951c1.96233,0.02106 3.94243,0.34252 5.81191,0.93939c0,0 2.3733,0.78578 1.58753,3.15908c-0.78578,2.3733 -3.15908,1.58752 -3.15908,1.58752c-1.35257,-0.4698 -2.80869,-0.70699 -4.24036,-0.68599l-2.09034,0.11268c0,0 -2.49659,0.13051 -2.6271,-2.36608z" fill="#000000" stroke="none" stroke-width="0.5" stroke-linecap="butt"/><path d="M414.23821,170.06981c0.69036,0 1.25,0.55964 1.25,1.25c0,0.60559 -0.43065,1.1106 -1.00241,1.22548c-0.02564,0.19797 -0.11155,0.41389 -0.29169,0.6406c-0.77765,0.97866 -1.7563,0.20101 -1.7563,0.20101l-0.96468,-0.77957c-0.56227,-0.28472 -1.27506,-0.28886 -1.88599,-0.13404c0,0 -1.22605,0.24357 -1.46961,-0.98247c-0.24356,-1.22604 0.98248,-1.46961 0.98248,-1.46961c1.21436,-0.20223 2.52821,-0.02328 3.66615,0.44646l0.35945,0.28181c0.20729,-0.40357 0.6277,-0.67968 1.11261,-0.67968z" fill="#000000" stroke="none" stroke-width="0.5" stroke-linecap="butt"/><path d="M-17.07102,216.68522v-1.74151h0.58441v1.74151z" fill="#f3db7e" stroke="none" stroke-width="0" stroke-linecap="butt"/><path d="M135.47305,154.96977c2.78923,-0.35993 5.79689,-0.66144 8.94952,-0.90472c1.40932,-0.10876 31.64318,-4.5494 33.10388,-4.6349c1.56455,-0.09158 -25.64076,4.17372 -24.03286,4.10879c13.16637,-0.53166 27.516,-0.17065 38.62187,1.07246c15.45641,1.73007 -29.27538,3.38612 -5.3636,8.12789c12.78152,2.5346 84.18753,14.66753 70.11057,15.22374c-7.31179,0.28892 -25.22737,-1.11324 -45.86286,-2.72972c-3.2586,-0.25526 5.08115,9.83962 4.85221,13.19437c-0.10618,1.55587 -7.33077,-1.9831 -8.90269,-2.10731c-16.38094,-1.29434 -43.85963,-14.90356 -57.66966,-16.20129c-2.64633,-0.24868 30.45395,11.9646 28.12838,11.74443c-1.37677,-0.13034 -38.25056,-12.69968 -39.57166,-12.82635c-2.13565,-0.20475 7.42837,10.42975 5.97444,9.64208c-0.19193,-0.10397 -11.83736,-11.42021 -12.01336,-11.53128c-5.74541,-3.62547 -4.67179,-11.10102 3.67583,-12.17821z" fill="url(#color-22)" stroke="none" stroke-width="0" stroke-linecap="butt"/><path d="M125.5094,174.47225c0.33357,-0.6117 7.19722,-4.8539 17.445,-7.67103c15.85455,-4.35843 39.38103,-7.78131 56.03869,-8.25576c15.54664,-0.44281 -28.51686,7.43657 -4.17744,8.79659c13.01011,0.72697 85.41044,2.78106 71.54868,5.29539c-14.35935,2.60459 -71.41766,5.56343 -107.6254,7.23917c-2.65515,0.12288 31.82514,7.59969 29.49159,7.70606c-1.3815,0.06297 -39.64806,-7.24006 -40.97391,-7.18122c-11.66202,0.51769 -22.67923,-4.22017 -21.74721,-5.92922z" fill="url(#color-23)" stroke="none" stroke-width="0" stroke-linecap="butt"/><path d="M127.04619,180.00069c2.75516,-0.56431 5.73246,-1.08643 8.85862,-1.56116c1.39749,-0.21222 31.22236,-6.86673 32.6728,-7.05953c1.55356,-0.20651 -25.26389,6.05014 -23.66513,5.86701c13.09149,-1.49958 27.42876,-2.196 38.59601,-1.77392c15.54184,0.58742 -28.94663,5.53229 -4.75065,8.50073c12.93344,1.5867 85.03893,8.42955 71.04113,10.02064c-7.27068,0.82645 -25.24087,0.7471 -45.93937,0.65425c-2.79415,-0.01253 -10.57622,3.06929 -10.19583,6.29754c0.27096,2.29951 -38.12945,-6.58166 -51.73334,-6.85384c-2.65746,-0.05317 31.25217,9.69001 28.91671,9.64165c-1.38263,-0.02862 -39.08174,-9.84908 -40.40859,-9.87815c-2.14493,-0.04696 8.17608,9.85455 6.66811,9.17606c-0.19906,-0.08957 -12.64603,-10.51772 -12.82973,-10.61552c-5.99674,-3.19262 -5.47639,-10.72694 2.76926,-12.41578z" fill="url(#color-24)" stroke="none" stroke-width="0" stroke-linecap="butt"/><path d="M358.29041,186.84993c1.52214,1.27792 11.79806,-0.29882 12.37763,1.36575c0.86158,2.47454 -5.74218,3.21054 -9.79286,6.69032c-2.04435,1.75627 -1.79199,6.78561 -2.94112,7.86821c-0.97791,0.92129 8.30043,3.95414 8.03688,4.4245c-0.00698,0.01247 -13.69254,-0.75304 -14.90691,-0.33022c-1.34424,0.46803 1.64455,10.45568 0.27954,10.34421c-1.83936,-0.1502 -1.92057,-7.40517 -4.65579,-10.33017c-2.18039,-2.33167 -7.11897,-0.40505 -8.19278,-0.88178c-2.47384,-1.09823 -7.18259,-10.79338 -5.18619,-13.59094c0.70767,-0.99163 7.13009,-9.22727 8.42816,-10.05826c1.58294,-1.01338 -1.75725,5.12724 0.03138,4.41025c0.72821,-0.2919 1.40838,-0.28785 2.10976,-0.53205c0.94714,-0.32978 11.60856,-9.96972 12.50678,-10.27241c2.01899,-0.68036 -5.80851,8.13324 -3.90866,8.41359c2.19642,0.32414 4.17427,1.1022 5.8142,2.47903z" data-paper-data="{&quot;index&quot;:null}" fill="#6075e6" stroke="none" stroke-width="0" stroke-linecap="butt"/><path d="M512.25453,324.60551c-0.32288,11.5636 -8.85034,20.70696 -19.0466,20.42225c-10.19626,-0.28471 -18.20023,-9.88965 -17.87734,-21.45326c0.32288,-11.5636 8.85035,-20.70697 19.04661,-20.42226c10.19626,0.28471 18.20022,9.88965 17.87734,21.45326z" fill="url(#color-25)" stroke="none" stroke-width="0" stroke-linecap="butt"/><path d="M455.19987,337.05808l8.33658,-41.05396c0,0 13.02496,3.60031 22.38131,5.50025c4.99973,1.01526 11.5071,2.33668 11.5071,2.33668c-0.92322,1.71589 0.74305,2.93302 0.74305,2.93302c2.92133,2.13337 5.53906,4.3196 7.95603,6.67662c1.37198,1.86401 3.1782,3.56676 4.62919,5.01566c0.17293,0.20808 0.34504,0.4177 0.51638,0.62894l-3.32664,16.3823c-4.65318,3.44447 -9.08893,7.13952 -13.89941,10.42363z" fill="#ffde59" stroke="none" stroke-width="0" stroke-linecap="butt"/><path d="M481.69833,317.71372c-0.32288,11.5636 -8.85033,20.70698 -19.04661,20.42227c-10.19626,-0.28471 -18.20022,-9.88966 -17.87734,-21.45326c0.32288,-11.5636 8.85033,-20.70697 19.04661,-20.42226c10.19626,0.28471 18.20022,9.88965 17.87734,21.45325z" fill="url(#color-26)" stroke="none" stroke-width="0" stroke-linecap="butt"/><path d="M464.20366,298.72737c3.41098,0.09525 6.52954,1.43362 9.02948,3.62363c-3.49308,0.34539 -7.03856,0.89986 -10.78678,1.69797c-3.60474,0.76758 -8.02102,2.63427 -12.19761,3.64423c2.75572,-5.48804 8.01818,-9.13161 13.9549,-8.96584z" fill="url(#color-27)" stroke="none" stroke-width="0" stroke-linecap="butt"/></g></g></svg>