<svg version="1.1" xmlns="http://www.w3.org/2000/svg" xmlns:xlink="http://www.w3.org/1999/xlink" width="73.56697" height="73.56697" viewBox="0,0,73.56697,73.56697"><defs><radialGradient cx="240.00003" cy="180.00001" r="36.7832" gradientUnits="userSpaceOnUse" id="color-1"><stop offset="0" stop-color="#000000"/><stop offset="1" stop-color="#000000" stop-opacity="0"/></radialGradient><linearGradient x1="238.33622" y1="212.31905" x2="241.6638" y2="191.62544" gradientUnits="userSpaceOnUse" id="color-2"><stop offset="0" stop-color="#272727"/><stop offset="1" stop-color="#dbdbdb"/></linearGradient><linearGradient x1="238.33622" y1="147.68095" x2="241.6638" y2="168.37457" gradientUnits="userSpaceOnUse" id="color-3"><stop offset="0" stop-color="#272727"/><stop offset="1" stop-color="#dbdbdb"/></linearGradient><linearGradient x1="215.61558" y1="180.00001" x2="264.38445" y2="180" gradientUnits="userSpaceOnUse" id="color-4"><stop offset="0" stop-color="#ff0000"/><stop offset="1" stop-color="#ff5c5c"/></linearGradient><linearGradient x1="215.61558" y1="180.00001" x2="264.38445" y2="180" gradientUnits="userSpaceOnUse" id="color-5"><stop offset="0" stop-color="#ff0000"/><stop offset="1" stop-color="#ff5c5c"/></linearGradient><linearGradient x1="215.61558" y1="180.00001" x2="264.38445" y2="180" gradientUnits="userSpaceOnUse" id="color-6"><stop offset="0" stop-color="#ff0000"/><stop offset="1" stop-color="#ff5c5c"/></linearGradient><linearGradient x1="215.61558" y1="180.00001" x2="264.38445" y2="180" gradientUnits="userSpaceOnUse" id="color-7"><stop offset="0" stop-color="#272727"/><stop offset="1" stop-color="#a5a5a5"/></linearGradient><linearGradient x1="251.62086" y1="177.47985" x2="258.64246" y2="177.47985" gradientUnits="userSpaceOnUse" id="color-8"><stop offset="0" stop-color="#ff0000"/><stop offset="1" stop-color="#ff6666"/></linearGradient></defs><g transform="translate(-203.21652,-143.21652)"><g data-paper-data="{&quot;isPaintingLayer&quot;:true}" fill-rule="nonzero" stroke-linejoin="miter" stroke-miterlimit="10" stroke-dasharray="" stroke-dashoffset="0" style="mix-blend-mode: normal"><path d="M203.23123,178.96999c0.56886,-20.30684 17.49197,-36.30762 37.79879,-35.73876c20.30684,0.56886 36.30762,17.49197 35.73876,37.79879c-0.56887,20.30684 -17.49197,36.30762 -37.79879,35.73876c-20.30684,-0.56886 -36.30762,-17.49197 -35.73876,-37.79879z" fill="url(#color-1)" stroke="#000000" stroke-width="0" stroke-linecap="butt"/><path d="M242.57236,192.00529c12.51699,3.23047 21.51233,10.31164 20.09167,15.81624c-1.42066,5.50459 -12.71937,7.34814 -25.23635,4.11767c-12.51699,-3.23047 -21.51234,-10.31164 -20.09167,-15.81624c1.42067,-5.50459 12.71937,-7.34814 25.23636,-4.11767z" fill="url(#color-2)" stroke="#000000" stroke-width="0" stroke-linecap="butt"/><path d="M217.336,163.87704c-1.42067,-5.50459 7.57468,-12.58577 20.09167,-15.81624c12.51699,-3.23047 23.81569,-1.38692 25.23635,4.11767c1.42066,5.50459 -7.57468,12.58577 -20.09167,15.81624c-12.51699,3.23047 -23.81569,1.38692 -25.23636,-4.11767z" data-paper-data="{&quot;index&quot;:null}" fill="url(#color-3)" stroke="#000000" stroke-width="0" stroke-linecap="butt"/><g><path d="M261.63005,201.83924c-2.3286,2.32884 -5.68344,2.59236 -5.68344,2.59236h-31.88874c0,0 -3.47921,-0.30366 -5.80943,-2.63287c-2.33022,-2.32922 -2.63287,-5.80581 -2.63287,-5.80581v-31.98583c0,0 0.15289,-3.22335 2.47086,-5.56278c2.31796,-2.33943 5.89042,-2.87591 5.89042,-2.87591h32.07101c0,0 3.47983,0.41826 5.74422,2.75439c2.26439,2.33613 2.59236,5.84632 2.59236,5.84632v31.82381c0,0 -0.42579,3.51748 -2.75439,5.84632z" fill="url(#color-4)" stroke="#ff0000" stroke-width="0" stroke-linecap="butt"/><path d="M261.63005,201.83924c-2.3286,2.32884 -5.68344,2.59236 -5.68344,2.59236h-31.88874c0,0 -3.47921,-0.30366 -5.80943,-2.63287c-2.33022,-2.32922 -2.63287,-5.80581 -2.63287,-5.80581v-31.98583c0,0 0.15289,-3.22335 2.47086,-5.56278c2.31796,-2.33943 5.89042,-2.87591 5.89042,-2.87591h32.07101c0,0 3.47983,0.41826 5.74422,2.75439c2.26439,2.33613 2.59236,5.84632 2.59236,5.84632v31.82381c0,0 -0.42579,3.51748 -2.75439,5.84632z" fill="url(#color-5)" stroke="#ff0000" stroke-width="0" stroke-linecap="butt"/><path d="M261.63005,201.83924c-2.3286,2.32884 -5.68344,2.59236 -5.68344,2.59236h-31.88874c0,0 -3.47921,-0.30366 -5.80943,-2.63287c-2.33022,-2.32922 -2.63287,-5.80581 -2.63287,-5.80581v-31.98583c0,0 0.15289,-3.22335 2.47086,-5.56278c2.31796,-2.33943 5.89042,-2.87591 5.89042,-2.87591h32.07101c0,0 3.47983,0.41826 5.74422,2.75439c2.26439,2.33613 2.59236,5.84632 2.59236,5.84632v31.82381c0,0 -0.42579,3.51748 -2.75439,5.84632z" fill="url(#color-6)" stroke="#ff0000" stroke-width="0" stroke-linecap="butt"/><path d="M264.38445,189.25905h-48.76887v-18.51808h48.76887z" fill="url(#color-7)" stroke="#000000" stroke-width="0" stroke-linecap="butt"/><path d="M247.44431,158.57054c2.51394,0 4.55188,2.03794 4.55188,4.55187c0,2.51394 -2.03794,4.55188 -4.55188,4.55188c-2.51394,0 -4.55188,-2.03795 -4.55188,-4.55188c0,-2.51394 2.03794,-4.55187 4.55188,-4.55187z" fill="#000000" stroke="none" stroke-width="0" stroke-linecap="butt"/><path d="M235.10901,196.56906c0,2.51394 -2.03794,4.55187 -4.55188,4.55187c-2.51394,0 -4.55188,-2.03794 -4.55188,-4.55187c0,-2.51394 2.03794,-4.55188 4.55188,-4.55188c2.51394,0 4.55188,2.03795 4.55188,4.55188z" data-paper-data="{&quot;index&quot;:null}" fill="#000000" stroke="none" stroke-width="0" stroke-linecap="butt"/><g fill="#000000" stroke="none" stroke-width="0" stroke-linecap="butt"><path d="M227.62283,161.25817c0.89337,0 1.61758,0.75105 1.61758,1.6775c0,0.92646 -0.72421,1.67749 -1.61758,1.67749c-0.89337,0 -1.61758,-0.75104 -1.61758,-1.67749c0,-0.92646 0.72421,-1.6775 1.61758,-1.6775z"/><path d="M231.10415,165.12369c0.91279,0 1.65275,0.76737 1.65275,1.71396c0,0.94659 -0.73996,1.71396 -1.65275,1.71396c-0.91279,0 -1.65275,-0.76737 -1.65275,-1.71397c0,-0.94659 0.73996,-1.71395 1.65275,-1.71395z"/><path d="M231.11646,157.91778c0.8652,0 1.56659,0.72737 1.56659,1.62462c0,0.89725 -0.70139,1.62461 -1.56659,1.62461c-0.8652,0 -1.56659,-0.72736 -1.56659,-1.62461c0,-0.89725 0.70139,-1.62462 1.56659,-1.62462z"/><path d="M235.19206,161.16699c0.88657,0 1.60528,0.74533 1.60528,1.66474c0,0.9194 -0.71871,1.66473 -1.60528,1.66473c-0.88657,0 -1.60528,-0.74532 -1.60528,-1.66473c0,-0.9194 0.71871,-1.66474 1.60528,-1.66474z"/></g><g data-paper-data="{&quot;index&quot;:null}" fill="#000000" stroke="none" stroke-width="0" stroke-linecap="butt"><path d="M251.99619,196.3823c0,0.92645 -0.72421,1.67749 -1.61758,1.67749c-0.89337,0 -1.61758,-0.75103 -1.61758,-1.67749c0,-0.92645 0.72421,-1.67749 1.61758,-1.67749c0.89337,0 1.61758,0.75102 1.61758,1.67748z"/><path d="M248.55004,200.28429c0,0.9466 -0.73996,1.71396 -1.65275,1.71396c-0.91279,0 -1.65275,-0.76737 -1.65275,-1.71396c0,-0.94659 0.73996,-1.71396 1.65275,-1.71396c0.91279,0 1.65275,0.76737 1.65275,1.71396z"/><path d="M248.45157,192.98904c0,0.89725 -0.70139,1.62462 -1.56659,1.62462c-0.8652,0 -1.56659,-0.72736 -1.56659,-1.62462c0,-0.89725 0.70139,-1.62462 1.56659,-1.62462c0.8652,0 1.56659,0.72736 1.56659,1.62462z"/><path d="M244.41466,196.27837c0,0.91941 -0.71871,1.66473 -1.60528,1.66473c-0.88657,0 -1.60528,-0.74533 -1.60528,-1.66473c0,-0.91941 0.71871,-1.66473 1.60528,-1.66473c0.88657,0 1.60528,0.74533 1.60528,1.66473z"/></g><path d="M252.83635,181.97588l-0.01166,-8.99205c0,0 4.36825,0.58374 5.81777,2.43723c1.44952,1.85349 1.40972,2.83672 0,4.63569c-1.40972,1.79897 -5.80611,1.91913 -5.80611,1.91913z" fill="url(#color-8)" stroke="#ff0000" stroke-width="0" stroke-linecap="butt"/><path d="M252.31126,186.75602c0,0 0.04409,-4.85017 0.06506,-7.15699c0.01963,-2.15923 0.05701,-6.27049 0.05701,-6.27049" fill="none" stroke="#000000" stroke-width="2" stroke-linecap="round"/></g></g></g></svg>