<svg version="1.1" xmlns="http://www.w3.org/2000/svg" xmlns:xlink="http://www.w3.org/1999/xlink" width="78.03441" height="78.03441" viewBox="0,0,78.03441,78.03441"><defs><radialGradient cx="294.9822" cy="172.26656" r="39.0172" gradientUnits="userSpaceOnUse" id="color-1"><stop offset="0" stop-color="#000000" stop-opacity="0.63137"/><stop offset="1" stop-color="#000000" stop-opacity="0"/></radialGradient><linearGradient x1="294.81206" y1="211.28335" x2="295.15233" y2="133.2497" gradientUnits="userSpaceOnUse" id="color-2"><stop offset="0" stop-color="#ff5454"/><stop offset="1" stop-color="#eb0000"/></linearGradient><linearGradient x1="286.00748" y1="142.96044" x2="292.90568" y2="204.47628" gradientUnits="userSpaceOnUse" id="color-3"><stop offset="0" stop-color="#929292"/><stop offset="1" stop-color="#000000"/></linearGradient><linearGradient x1="273.98569" y1="177.24627" x2="300.56423" y2="173.49692" gradientUnits="userSpaceOnUse" id="color-4"><stop offset="0" stop-color="#c40000"/><stop offset="1" stop-color="#ff4141"/></linearGradient><linearGradient x1="305.83383" y1="137.62536" x2="313.57335" y2="206.64375" gradientUnits="userSpaceOnUse" id="color-5"><stop offset="0" stop-color="#929292"/><stop offset="1" stop-color="#000000"/></linearGradient><linearGradient x1="306.424" y1="172.38603" x2="323.81152" y2="170.2832" gradientUnits="userSpaceOnUse" id="color-6"><stop offset="0" stop-color="#da0000"/><stop offset="1" stop-color="#ff4343"/></linearGradient><linearGradient x1="304.46667" y1="171.23502" x2="316.11029" y2="169.92933" gradientUnits="userSpaceOnUse" id="color-7"><stop offset="0" stop-color="#000000" stop-opacity="0.38824"/><stop offset="1" stop-color="#000000" stop-opacity="0"/></linearGradient><linearGradient x1="316.68846" y1="175.05474" x2="323.75663" y2="174.57492" gradientUnits="userSpaceOnUse" id="color-8"><stop offset="0" stop-color="#ffffff" stop-opacity="0"/><stop offset="1" stop-color="#ffffff" stop-opacity="0.80784"/></linearGradient><linearGradient x1="268.35303" y1="160.44242" x2="290.46996" y2="166.28147" gradientUnits="userSpaceOnUse" id="color-9"><stop offset="0" stop-color="#eb0000"/><stop offset="1" stop-color="#ff5454"/></linearGradient><linearGradient x1="272.63556" y1="187.00169" x2="294.7525" y2="192.84076" gradientUnits="userSpaceOnUse" id="color-10"><stop offset="0" stop-color="#eb0000"/><stop offset="1" stop-color="#ff5454"/></linearGradient></defs><g transform="translate(-255.96498,-133.24938)"><g data-paper-data="{&quot;isPaintingLayer&quot;:true}" fill-rule="nonzero" stroke-width="0" stroke-linecap="butt" stroke-linejoin="miter" stroke-miterlimit="10" stroke-dasharray="" stroke-dashoffset="0" style="mix-blend-mode: normal"><path d="M295.15233,133.24976c21.54839,0.09396 38.94066,17.63856 38.84669,39.18697c-0.09396,21.5484 -17.63857,38.94064 -39.18697,38.84669c-21.54839,-0.09396 -38.94065,-17.63857 -38.84669,-39.18697c0.09396,-21.54839 17.63857,-38.94064 39.18697,-38.84669z" data-paper-data="{&quot;index&quot;:null}" fill="url(#color-1)" stroke="url(#color-2)"/><g stroke="none"><path d="M307.02005,140.60414l7.43249,61.45596l-36.88062,-3.14391c0,0 -7.49354,-4.42848 -9.38751,-20.34138c-1.66796,-14.01423 4.02163,-24.0268 4.02163,-24.0268z" data-paper-data="{&quot;index&quot;:null}" fill="url(#color-3)"/><path d="M284.73271,204.04839l-9.02065,-14.5643l-3.48604,-27.80918l6.25456,-13.38089l18.9252,2.81314l0.67026,5.97709l-15.0338,-0.50766l-3.1103,11.93756l1.66007,14.96581l6.01484,11.43075l13.65744,-4.50474l0.69823,6.22658z" fill="url(#color-4)"/><path d="M313.85835,206.6115c-8.42405,1.0226 -17.11318,-13.58422 -19.40784,-32.62532c-2.29461,-19.04108 2.67425,-35.30593 11.09827,-36.32855c8.42405,-1.0226 17.11319,13.58424 19.40783,32.62532c2.29461,19.04108 -2.67426,35.30591 -11.09827,36.32854z" data-paper-data="{&quot;index&quot;:null}" fill="url(#color-5)"/><path d="M318.3989,198.46516c-4.80141,0.58067 -10.16279,-11.09534 -11.97494,-26.07912c-1.81214,-14.98379 0.61116,-27.60129 5.41262,-28.18199c4.80141,-0.58067 10.16277,11.09533 11.97494,26.07912c1.81214,14.98379 -0.61117,27.60128 -5.41259,28.18197z" data-paper-data="{&quot;index&quot;:null}" fill="url(#color-6)"/><path d="M312.85753,199.32037l-6.52594,-21.4181l-1.11438,-17.70374c0,0 0.50557,-8.81374 2.19571,-12.15925c2.51949,-4.98714 5.72141,-4.33677 5.72141,-4.33677l6.27053,55.60664z" fill="url(#color-7)"/><path d="M324.26924,174.69732c0.61152,9.00842 -0.5566,16.76034 -2.50842,16.89282c-1.95182,0.13249 -4.46084,-7.52698 -5.07236,-16.5354c-0.61152,-9.00842 0.97224,-17.74475 2.92408,-17.87724c1.95182,-0.13249 4.04519,8.5114 4.65672,17.51983z" fill="url(#color-8)"/></g><path d="M268.35303,160.44242c1.61242,-6.10744 7.87058,-9.75135 13.97798,-8.13892c6.10743,1.61241 9.75135,7.87058 8.13892,13.97798c-1.61242,6.10744 -7.87058,9.75135 -13.97798,8.13894c-6.10743,-1.61241 -9.75134,-7.87059 -8.13892,-13.97798z" fill="url(#color-9)" stroke="#000000"/><path d="M272.63556,187.00169c1.61242,-6.10742 7.87057,-9.75136 13.97798,-8.13894c6.10743,1.61241 9.75136,7.87057 8.13895,13.97799c-1.61242,6.10742 -7.87058,9.75135 -13.97799,8.13894c-6.10743,-1.61241 -9.75135,-7.87058 -8.13894,-13.97798z" fill="url(#color-10)" stroke="#000000"/></g></g></svg>