<svg version="1.1" xmlns="http://www.w3.org/2000/svg" xmlns:xlink="http://www.w3.org/1999/xlink" width="478.78494" height="359.08114" viewBox="0,0,478.78494,359.08114"><defs><radialGradient cx="242.41899" cy="86.98562" r="31.57552" gradientUnits="userSpaceOnUse" id="color-1"><stop offset="0" stop-color="#ffffff" stop-opacity="0.32742"/><stop offset="1" stop-color="#ffffff" stop-opacity="0"/></radialGradient><radialGradient cx="403.94534" cy="115.17637" r="31.57551" gradientUnits="userSpaceOnUse" id="color-2"><stop offset="0" stop-color="#ffffff" stop-opacity="0.32742"/><stop offset="1" stop-color="#ffffff" stop-opacity="0"/></radialGradient><radialGradient cx="356.72239" cy="238.0376" r="31.57551" gradientUnits="userSpaceOnUse" id="color-3"><stop offset="0" stop-color="#ffffff" stop-opacity="0.32742"/><stop offset="1" stop-color="#ffffff" stop-opacity="0"/></radialGradient><radialGradient cx="148.11348" cy="253.95625" r="31.57553" gradientUnits="userSpaceOnUse" id="color-4"><stop offset="0" stop-color="#ffffff" stop-opacity="0.32742"/><stop offset="1" stop-color="#ffffff" stop-opacity="0"/></radialGradient><radialGradient cx="99.13624" cy="115.59709" r="31.57551" gradientUnits="userSpaceOnUse" id="color-5"><stop offset="0" stop-color="#ffffff" stop-opacity="0.32742"/><stop offset="1" stop-color="#ffffff" stop-opacity="0"/></radialGradient><radialGradient cx="287.11589" cy="178.99128" r="31.57551" gradientUnits="userSpaceOnUse" id="color-6"><stop offset="0" stop-color="#ffffff" stop-opacity="0.32742"/><stop offset="1" stop-color="#ffffff" stop-opacity="0"/></radialGradient><radialGradient cx="172.95289" cy="278.78094" r="31.57554" gradientUnits="userSpaceOnUse" id="color-7"><stop offset="0" stop-color="#ffffff" stop-opacity="0.32742"/><stop offset="1" stop-color="#ffffff" stop-opacity="0"/></radialGradient><radialGradient cx="299.00034" cy="277.12376" r="34.85563" gradientUnits="userSpaceOnUse" id="color-8"><stop offset="0" stop-color="#296d7f" stop-opacity="0.60862"/><stop offset="1" stop-color="#296d7f" stop-opacity="0"/></radialGradient><radialGradient cx="282.32303" cy="119.27316" r="47.60886" gradientUnits="userSpaceOnUse" id="color-9"><stop offset="0" stop-color="#3788ad" stop-opacity="0.60784"/><stop offset="1" stop-color="#3788ad" stop-opacity="0"/></radialGradient><radialGradient cx="80.23308" cy="258.49541" r="47.60888" gradientUnits="userSpaceOnUse" id="color-10"><stop offset="0" stop-color="#1a82bd" stop-opacity="0.60784"/><stop offset="1" stop-color="#1a82bd" stop-opacity="0"/></radialGradient><radialGradient cx="144.86813" cy="199.58044" r="79.64543" gradientUnits="userSpaceOnUse" id="color-11"><stop offset="0" stop-color="#60cdec" stop-opacity="0.6129"/><stop offset="1" stop-color="#60cdec" stop-opacity="0"/></radialGradient><radialGradient cx="251.79919" cy="273.11332" r="72.7783" gradientUnits="userSpaceOnUse" id="color-12"><stop offset="0" stop-color="#60cdec" stop-opacity="0.6129"/><stop offset="1" stop-color="#60cdec" stop-opacity="0"/></radialGradient><radialGradient cx="236.10287" cy="167.226" r="72.7783" gradientUnits="userSpaceOnUse" id="color-13"><stop offset="0" stop-color="#60cdec" stop-opacity="0.6129"/><stop offset="1" stop-color="#60cdec" stop-opacity="0"/></radialGradient><radialGradient cx="396.99011" cy="280.95682" r="72.77829" gradientUnits="userSpaceOnUse" id="color-14"><stop offset="0" stop-color="#60cdec" stop-opacity="0.6129"/><stop offset="1" stop-color="#60cdec" stop-opacity="0"/></radialGradient><radialGradient cx="344.00356" cy="140.90651" r="63.76625" gradientUnits="userSpaceOnUse" id="color-15"><stop offset="0" stop-color="#78c7db"/><stop offset="1" stop-color="#78c7db" stop-opacity="0"/></radialGradient><radialGradient cx="151.06053" cy="99.11745" r="31.57553" gradientUnits="userSpaceOnUse" id="color-16"><stop offset="0" stop-color="#ffffff" stop-opacity="0.32742"/><stop offset="1" stop-color="#ffffff" stop-opacity="0"/></radialGradient><radialGradient cx="62.43853" cy="157.81313" r="31.57551" gradientUnits="userSpaceOnUse" id="color-17"><stop offset="0" stop-color="#ffffff" stop-opacity="0.32742"/><stop offset="1" stop-color="#ffffff" stop-opacity="0"/></radialGradient><radialGradient cx="69.43853" cy="253.81313" r="31.57551" gradientUnits="userSpaceOnUse" id="color-18"><stop offset="0" stop-color="#ffffff" stop-opacity="0.43529"/><stop offset="1" stop-color="#ffffff" stop-opacity="0"/></radialGradient><radialGradient cx="337.14788" cy="264.28935" r="79.64544" gradientUnits="userSpaceOnUse" id="color-19"><stop offset="0" stop-color="#60cdec" stop-opacity="0.6129"/><stop offset="1" stop-color="#60cdec" stop-opacity="0"/></radialGradient><radialGradient cx="116.41856" cy="273.11332" r="72.77833" gradientUnits="userSpaceOnUse" id="color-20"><stop offset="0" stop-color="#61b4ed" stop-opacity="0.61176"/><stop offset="1" stop-color="#61b4ed" stop-opacity="0"/></radialGradient><radialGradient cx="347.93908" cy="169.18689" r="72.7783" gradientUnits="userSpaceOnUse" id="color-21"><stop offset="0" stop-color="#60cdec" stop-opacity="0.6129"/><stop offset="1" stop-color="#60cdec" stop-opacity="0"/></radialGradient><radialGradient cx="252.79919" cy="85.63443" r="72.7783" gradientUnits="userSpaceOnUse" id="color-22"><stop offset="0" stop-color="#60cdec" stop-opacity="0.6129"/><stop offset="1" stop-color="#60cdec" stop-opacity="0"/></radialGradient><radialGradient cx="240.02701" cy="277.03506" r="72.7783" gradientUnits="userSpaceOnUse" id="color-23"><stop offset="0" stop-color="#60cdec" stop-opacity="0.6129"/><stop offset="1" stop-color="#60cdec" stop-opacity="0"/></radialGradient><radialGradient cx="396.99011" cy="280.95682" r="72.77829" gradientUnits="userSpaceOnUse" id="color-24"><stop offset="0" stop-color="#61c3ed" stop-opacity="0.61176"/><stop offset="1" stop-color="#61c3ed" stop-opacity="0"/></radialGradient><radialGradient cx="396.99011" cy="92.71268" r="72.77829" gradientUnits="userSpaceOnUse" id="color-25"><stop offset="0" stop-color="#60cdec" stop-opacity="0.6129"/><stop offset="1" stop-color="#60cdec" stop-opacity="0"/></radialGradient><radialGradient cx="406.78876" cy="203.65456" r="38.25973" gradientUnits="userSpaceOnUse" id="color-26"><stop offset="0" stop-color="#7fc4e8"/><stop offset="1" stop-color="#7fc4e8" stop-opacity="0"/></radialGradient><radialGradient cx="419.78876" cy="217.65456" r="38.25973" gradientUnits="userSpaceOnUse" id="color-27"><stop offset="0" stop-color="#7fc4e8"/><stop offset="1" stop-color="#7fc4e8" stop-opacity="0"/></radialGradient><radialGradient cx="281.78876" cy="277.65456" r="38.25973" gradientUnits="userSpaceOnUse" id="color-28"><stop offset="0" stop-color="#7fc4e8"/><stop offset="1" stop-color="#7fc4e8" stop-opacity="0"/></radialGradient><radialGradient cx="144.78876" cy="137.65455" r="38.25973" gradientUnits="userSpaceOnUse" id="color-29"><stop offset="0" stop-color="#7fc4e8"/><stop offset="1" stop-color="#7fc4e8" stop-opacity="0"/></radialGradient><radialGradient cx="315.78876" cy="74.65456" r="38.25973" gradientUnits="userSpaceOnUse" id="color-30"><stop offset="0" stop-color="#7fc4e8"/><stop offset="1" stop-color="#7fc4e8" stop-opacity="0"/></radialGradient><radialGradient cx="284.78876" cy="279.65456" r="38.25973" gradientUnits="userSpaceOnUse" id="color-31"><stop offset="0" stop-color="#7fc4e8"/><stop offset="1" stop-color="#7fc4e8" stop-opacity="0"/></radialGradient><radialGradient cx="114.78876" cy="125.65456" r="38.25973" gradientUnits="userSpaceOnUse" id="color-32"><stop offset="0" stop-color="#7fc4e8"/><stop offset="1" stop-color="#7fc4e8" stop-opacity="0"/></radialGradient><radialGradient cx="288.08542" cy="292.87441" r="41.20281" gradientUnits="userSpaceOnUse" id="color-33"><stop offset="0" stop-color="#37b4f6"/><stop offset="1" stop-color="#37b4f6" stop-opacity="0"/></radialGradient><radialGradient cx="86.98798" cy="84.86916" r="72.77829" gradientUnits="userSpaceOnUse" id="color-34"><stop offset="0" stop-color="#60cdec" stop-opacity="0.6129"/><stop offset="1" stop-color="#60cdec" stop-opacity="0"/></radialGradient><radialGradient cx="352.41266" cy="88.98204" r="79.64543" gradientUnits="userSpaceOnUse" id="color-35"><stop offset="0" stop-color="#61c3ed" stop-opacity="0.61176"/><stop offset="1" stop-color="#61c3ed" stop-opacity="0"/></radialGradient><radialGradient cx="204.16021" cy="182.67809" r="106.12883" gradientUnits="userSpaceOnUse" id="color-36"><stop offset="0" stop-color="#5bb8e6"/><stop offset="1" stop-color="#5bb8e6" stop-opacity="0"/></radialGradient><radialGradient cx="143.16605" cy="317.12171" r="204.42979" gradientUnits="userSpaceOnUse" id="color-37"><stop offset="0" stop-color="#adeaff"/><stop offset="1" stop-color="#43d2f2"/></radialGradient><radialGradient cx="194.56938" cy="80.37356" r="138.51043" gradientUnits="userSpaceOnUse" id="color-38"><stop offset="0" stop-color="#ffffff"/><stop offset="1" stop-color="#53c0df"/></radialGradient><radialGradient cx="346.96221" cy="223.87882" r="145.68249" gradientUnits="userSpaceOnUse" id="color-39"><stop offset="0" stop-color="#ffffff"/><stop offset="1" stop-color="#53c0df"/></radialGradient><radialGradient cx="151.52713" cy="257.44046" r="42.0212" gradientUnits="userSpaceOnUse" id="color-40"><stop offset="0" stop-color="#ffffff"/><stop offset="1" stop-color="#53c0df"/></radialGradient><radialGradient cx="293.08645" cy="127.41753" r="55.80757" gradientUnits="userSpaceOnUse" id="color-41"><stop offset="0" stop-color="#adeaff"/><stop offset="1" stop-color="#43d2f2"/></radialGradient><radialGradient cx="194.45454" cy="153.58363" r="62.50175" gradientUnits="userSpaceOnUse" id="color-42"><stop offset="0" stop-color="#adeaff"/><stop offset="1" stop-color="#43d2f2"/></radialGradient><radialGradient cx="64.27926" cy="155.59814" r="67.23809" gradientUnits="userSpaceOnUse" id="color-43"><stop offset="0" stop-color="#ffffff"/><stop offset="1" stop-color="#53c0df"/></radialGradient><radialGradient cx="352.26563" cy="51.53593" r="43.03233" gradientUnits="userSpaceOnUse" id="color-44"><stop offset="0" stop-color="#adeaff"/><stop offset="1" stop-color="#43d2f2"/></radialGradient><radialGradient cx="166.83766" cy="44.99427" r="32.94666" gradientUnits="userSpaceOnUse" id="color-45"><stop offset="0" stop-color="#adeaff"/><stop offset="1" stop-color="#43d2f2"/></radialGradient><radialGradient cx="80.04162" cy="52.8442" r="51.77334" gradientUnits="userSpaceOnUse" id="color-46"><stop offset="0" stop-color="#adeaff"/><stop offset="1" stop-color="#43d2f2"/></radialGradient><radialGradient cx="68.93248" cy="24.82315" r="29.75089" gradientUnits="userSpaceOnUse" id="color-47"><stop offset="0" stop-color="#ffffff"/><stop offset="1" stop-color="#53c0df"/></radialGradient><radialGradient cx="456.1579" cy="306.65531" r="63.87618" gradientUnits="userSpaceOnUse" id="color-48"><stop offset="0" stop-color="#adeaff"/><stop offset="1" stop-color="#43d2f2"/></radialGradient><radialGradient cx="464.45585" cy="250.49671" r="24.87807" gradientUnits="userSpaceOnUse" id="color-49"><stop offset="0" stop-color="#ffffff"/><stop offset="1" stop-color="#53c0df"/></radialGradient><radialGradient cx="441.1898" cy="33.23779" r="16.80958" gradientUnits="userSpaceOnUse" id="color-50"><stop offset="0" stop-color="#ffffff"/><stop offset="1" stop-color="#53c0df"/></radialGradient><radialGradient cx="414.07497" cy="182.36637" r="34.29139" gradientUnits="userSpaceOnUse" id="color-51"><stop offset="0" stop-color="#adeaff"/><stop offset="1" stop-color="#43d2f2"/></radialGradient><radialGradient cx="321.36946" cy="339.60883" r="59.16953" gradientUnits="userSpaceOnUse" id="color-52"><stop offset="0" stop-color="#ffffff"/><stop offset="1" stop-color="#53c0df"/></radialGradient><radialGradient cx="264.36756" cy="266.69885" r="27.56764" gradientUnits="userSpaceOnUse" id="color-53"><stop offset="0" stop-color="#ffffff"/><stop offset="1" stop-color="#53c0df"/></radialGradient><radialGradient cx="419.08699" cy="106.9915" r="32.33076" gradientUnits="userSpaceOnUse" id="color-54"><stop offset="0" stop-color="#ffffff"/><stop offset="1" stop-color="#53c0df"/></radialGradient><radialGradient cx="80.56555" cy="117.40721" r="35.45958" gradientUnits="userSpaceOnUse" id="color-55"><stop offset="0" stop-color="#ffffff"/><stop offset="1" stop-color="#53c0df"/></radialGradient><radialGradient cx="353.94201" cy="127.82289" r="18.77276" gradientUnits="userSpaceOnUse" id="color-56"><stop offset="0" stop-color="#ffffff"/><stop offset="1" stop-color="#53c0df"/></radialGradient><radialGradient cx="463.29253" cy="186.84516" r="11.47219" gradientUnits="userSpaceOnUse" id="color-57"><stop offset="0" stop-color="#ffffff"/><stop offset="1" stop-color="#53c0df"/></radialGradient><radialGradient cx="217.83548" cy="47.96923" r="24.42935" gradientUnits="userSpaceOnUse" id="color-58"><stop offset="0" stop-color="#ffffff"/><stop offset="1" stop-color="#53c0df"/></radialGradient><radialGradient cx="36.36004" cy="255.12594" r="23.2661" gradientUnits="userSpaceOnUse" id="color-59"><stop offset="0" stop-color="#ffffff"/><stop offset="1" stop-color="#53c0df"/></radialGradient><radialGradient cx="232.95833" cy="170.64303" r="30.82756" gradientUnits="userSpaceOnUse" id="color-60"><stop offset="0" stop-color="#ffffff"/><stop offset="1" stop-color="#53c0df"/></radialGradient><radialGradient cx="190.84325" cy="183.34017" r="177.079" gradientUnits="userSpaceOnUse" id="color-61"><stop offset="0" stop-color="#adeaff"/><stop offset="1" stop-color="#43d2f2"/></radialGradient><radialGradient cx="463.97504" cy="58.94278" r="13.84971" gradientUnits="userSpaceOnUse" id="color-62"><stop offset="0" stop-color="#adeaff"/><stop offset="1" stop-color="#43d2f2"/></radialGradient><radialGradient cx="336.83393" cy="42.87831" r="204.42979" gradientUnits="userSpaceOnUse" id="color-63"><stop offset="0" stop-color="#adeaff"/><stop offset="1" stop-color="#43d2f2"/></radialGradient><radialGradient cx="285.4306" cy="279.62646" r="138.51043" gradientUnits="userSpaceOnUse" id="color-64"><stop offset="0" stop-color="#ffffff"/><stop offset="1" stop-color="#53c0df"/></radialGradient><radialGradient cx="133.03777" cy="136.12121" r="145.68249" gradientUnits="userSpaceOnUse" id="color-65"><stop offset="0" stop-color="#ffffff"/><stop offset="1" stop-color="#53c0df"/></radialGradient><radialGradient cx="328.47285" cy="102.55957" r="42.0212" gradientUnits="userSpaceOnUse" id="color-66"><stop offset="0" stop-color="#ffffff"/><stop offset="1" stop-color="#53c0df"/></radialGradient><radialGradient cx="186.91353" cy="232.5825" r="55.80757" gradientUnits="userSpaceOnUse" id="color-67"><stop offset="0" stop-color="#adeaff"/><stop offset="1" stop-color="#43d2f2"/></radialGradient><radialGradient cx="285.54544" cy="206.41639" r="62.50175" gradientUnits="userSpaceOnUse" id="color-68"><stop offset="0" stop-color="#adeaff"/><stop offset="1" stop-color="#43d2f2"/></radialGradient><radialGradient cx="415.72072" cy="204.40189" r="67.23809" gradientUnits="userSpaceOnUse" id="color-69"><stop offset="0" stop-color="#ffffff"/><stop offset="1" stop-color="#53c0df"/></radialGradient><radialGradient cx="127.73435" cy="308.4641" r="43.03233" gradientUnits="userSpaceOnUse" id="color-70"><stop offset="0" stop-color="#adeaff"/><stop offset="1" stop-color="#43d2f2"/></radialGradient><radialGradient cx="313.16232" cy="315.00576" r="32.94666" gradientUnits="userSpaceOnUse" id="color-71"><stop offset="0" stop-color="#adeaff"/><stop offset="1" stop-color="#43d2f2"/></radialGradient><radialGradient cx="399.95836" cy="307.15582" r="51.77334" gradientUnits="userSpaceOnUse" id="color-72"><stop offset="0" stop-color="#adeaff"/><stop offset="1" stop-color="#43d2f2"/></radialGradient><radialGradient cx="411.0675" cy="335.17687" r="29.75089" gradientUnits="userSpaceOnUse" id="color-73"><stop offset="0" stop-color="#ffffff"/><stop offset="1" stop-color="#53c0df"/></radialGradient><radialGradient cx="23.84208" cy="53.34471" r="63.87618" gradientUnits="userSpaceOnUse" id="color-74"><stop offset="0" stop-color="#adeaff"/><stop offset="1" stop-color="#43d2f2"/></radialGradient><radialGradient cx="15.54413" cy="109.50332" r="24.87807" gradientUnits="userSpaceOnUse" id="color-75"><stop offset="0" stop-color="#ffffff"/><stop offset="1" stop-color="#53c0df"/></radialGradient><radialGradient cx="38.81018" cy="326.76223" r="16.80958" gradientUnits="userSpaceOnUse" id="color-76"><stop offset="0" stop-color="#ffffff"/><stop offset="1" stop-color="#53c0df"/></radialGradient><radialGradient cx="65.92501" cy="177.63366" r="34.29139" gradientUnits="userSpaceOnUse" id="color-77"><stop offset="0" stop-color="#adeaff"/><stop offset="1" stop-color="#43d2f2"/></radialGradient><radialGradient cx="158.63052" cy="20.3912" r="59.16953" gradientUnits="userSpaceOnUse" id="color-78"><stop offset="0" stop-color="#ffffff"/><stop offset="1" stop-color="#53c0df"/></radialGradient><radialGradient cx="215.63242" cy="93.30116" r="27.56764" gradientUnits="userSpaceOnUse" id="color-79"><stop offset="0" stop-color="#ffffff"/><stop offset="1" stop-color="#53c0df"/></radialGradient><radialGradient cx="60.91299" cy="253.00853" r="32.33076" gradientUnits="userSpaceOnUse" id="color-80"><stop offset="0" stop-color="#ffffff"/><stop offset="1" stop-color="#53c0df"/></radialGradient><radialGradient cx="399.43443" cy="242.59282" r="35.45958" gradientUnits="userSpaceOnUse" id="color-81"><stop offset="0" stop-color="#ffffff"/><stop offset="1" stop-color="#53c0df"/></radialGradient><radialGradient cx="126.05797" cy="232.17714" r="18.77276" gradientUnits="userSpaceOnUse" id="color-82"><stop offset="0" stop-color="#ffffff"/><stop offset="1" stop-color="#53c0df"/></radialGradient><radialGradient cx="16.70745" cy="173.15487" r="11.47219" gradientUnits="userSpaceOnUse" id="color-83"><stop offset="0" stop-color="#ffffff"/><stop offset="1" stop-color="#53c0df"/></radialGradient><radialGradient cx="262.1645" cy="312.03078" r="24.42935" gradientUnits="userSpaceOnUse" id="color-84"><stop offset="0" stop-color="#ffffff"/><stop offset="1" stop-color="#53c0df"/></radialGradient><radialGradient cx="443.63994" cy="104.87409" r="23.2661" gradientUnits="userSpaceOnUse" id="color-85"><stop offset="0" stop-color="#ffffff"/><stop offset="1" stop-color="#53c0df"/></radialGradient><radialGradient cx="247.04165" cy="189.357" r="30.82756" gradientUnits="userSpaceOnUse" id="color-86"><stop offset="0" stop-color="#ffffff"/><stop offset="1" stop-color="#53c0df"/></radialGradient><radialGradient cx="289.15673" cy="176.65986" r="177.079" gradientUnits="userSpaceOnUse" id="color-87"><stop offset="0" stop-color="#adeaff"/><stop offset="1" stop-color="#43d2f2"/></radialGradient><radialGradient cx="16.02494" cy="301.05725" r="13.84971" gradientUnits="userSpaceOnUse" id="color-88"><stop offset="0" stop-color="#adeaff"/><stop offset="1" stop-color="#43d2f2"/></radialGradient><radialGradient cx="93.39538" cy="292.9568" r="60.77119" gradientUnits="userSpaceOnUse" id="color-89"><stop offset="0" stop-color="#60cdec" stop-opacity="0.6129"/><stop offset="1" stop-color="#60cdec" stop-opacity="0"/></radialGradient></defs><g transform="translate(-0.74998,-0.37502)"><g data-paper-data="{&quot;isPaintingLayer&quot;:true}" fill-rule="nonzero" stroke-linejoin="miter" stroke-miterlimit="10" stroke-dasharray="" stroke-dashoffset="0" style="mix-blend-mode: normal"><g stroke-width="0" stroke-linecap="butt"><path d="M210.84348,86.98562c0,-17.42835 14.13685,-31.55681 31.57553,-31.55681c17.43868,0 31.57554,14.12846 31.57554,31.55681c0,17.42835 -14.13685,31.55683 -31.57554,31.55683c-17.43868,0 -31.57553,-14.12848 -31.57553,-31.55683z" fill="url(#color-1)" stroke="none"/><path d="M372.36976,115.17637c0,-17.42835 14.13684,-31.55681 31.57551,-31.55681c17.43869,0 31.57551,14.12846 31.57551,31.55681c0,17.42835 -14.13683,31.55683 -31.57551,31.55683c-17.43869,0 -31.57551,-14.12847 -31.57551,-31.55681z" fill="url(#color-2)" stroke="none"/><path d="M325.14678,238.0376c0,-17.42835 14.13686,-31.55681 31.57554,-31.55681c17.43869,0 31.57551,14.12846 31.57551,31.55681c0,17.42835 -14.13683,31.5568 -31.57551,31.5568c-17.43869,0 -31.57554,-14.12845 -31.57554,-31.5568z" fill="url(#color-3)" stroke="none"/><path d="M116.53793,253.95625c0,-17.42835 14.13683,-31.5568 31.57554,-31.5568c17.43868,0 31.57553,14.12846 31.57553,31.5568c0,17.42835 -14.13682,31.55681 -31.57552,31.55681c-17.43868,0 -31.57554,-14.12846 -31.57554,-31.55681z" fill="url(#color-4)" stroke="none"/><path d="M67.56075,115.59709c0,-17.42835 14.13683,-31.5568 31.57554,-31.5568c17.43869,0 31.57551,14.12845 31.57551,31.5568c0,17.42835 -14.13683,31.5568 -31.57551,31.5568c-17.43869,0 -31.57552,-14.12846 -31.57552,-31.5568z" fill="url(#color-5)" stroke="none"/><path d="M255.54038,178.99128c0,-17.42835 14.13685,-31.5568 31.57553,-31.5568c17.43869,0 31.57551,14.12846 31.57551,31.5568c0,17.42835 -14.13684,31.55685 -31.57551,31.55685c-17.43869,0 -31.57553,-14.1285 -31.57553,-31.55685z" fill="url(#color-6)" stroke="none"/><path d="M141.37735,278.78094c0,-17.42835 14.13683,-31.55681 31.57554,-31.55681c17.43868,0 31.57554,14.12846 31.57554,31.55681c0,17.42835 -14.13684,31.5568 -31.57554,31.5568c-17.43868,0 -31.57554,-14.12845 -31.57554,-31.5568z" fill="url(#color-7)" stroke="none"/><path d="M264.14471,277.12376c0,-19.23884 15.60539,-34.83499 34.85563,-34.83499c19.25023,0 34.85562,15.59614 34.85562,34.83499c0,19.23885 -15.6054,34.83499 -34.85562,34.83499c-19.25023,0 -34.85563,-15.59614 -34.85563,-34.83498z" fill="url(#color-8)" stroke="none"/><path d="M234.71411,119.27316c0,-26.27809 21.31522,-47.58068 47.60887,-47.58068c26.29366,0 47.60888,21.30259 47.60888,47.58068c0,26.27809 -21.31522,47.58069 -47.60888,47.58069c-26.29366,0 -47.60887,-21.30259 -47.60887,-47.58068z" fill="url(#color-9)" stroke="none"/><path d="M32.62419,258.49541c0,-26.27809 21.31522,-47.58067 47.60887,-47.58067c26.29366,0 47.60886,21.3026 47.60886,47.58067c0,26.27809 -21.31521,47.58068 -47.60886,47.58068c-26.29366,0 -47.60887,-21.30259 -47.60887,-47.58068z" fill="url(#color-10)" stroke="none"/><path d="M65.22258,199.58044c0,-43.96091 35.65851,-79.59826 79.6455,-79.59826c43.987,0 79.64543,35.63732 79.64543,79.59826c0,43.96091 -35.65846,79.59832 -79.64542,79.59832c-43.98695,0 -79.6455,-35.63741 -79.6455,-79.59832z" fill="url(#color-11)" stroke="none"/><path d="M179.0209,273.11332c0,-40.17055 32.58397,-72.73519 72.77835,-72.73519c40.19436,0 72.77829,32.56464 72.77829,72.73519c0,40.17055 -32.58393,72.73527 -72.77829,72.73527c-40.19436,0 -72.77834,-32.56468 -72.77834,-72.73525z" fill="url(#color-12)" stroke="none"/><path d="M163.32454,167.226c0,-40.17055 32.58397,-72.73519 72.77836,-72.73519c40.19436,0 72.7783,32.56463 72.7783,72.73519c0,40.17055 -32.58393,72.73527 -72.7783,72.73527c-40.19436,0 -72.77834,-32.5647 -72.77834,-72.73527z" fill="url(#color-13)" stroke="none"/><path d="M324.21175,280.95682c0,-40.17055 32.58398,-72.7352 72.77835,-72.7352c40.19436,0 72.77829,32.56465 72.77829,72.7352c0,40.17055 -32.58393,72.73526 -72.77829,72.73526c-40.19436,0 -72.77835,-32.56469 -72.77835,-72.73523z" fill="url(#color-14)" stroke="none"/><path d="M280.23724,140.90651c0,-35.19629 28.54913,-63.7285 63.76627,-63.7285c35.21714,0 63.76626,28.53222 63.76626,63.7285c0,35.19629 -28.54913,63.72849 -63.76626,63.72849c-35.21714,0 -63.76627,-28.53223 -63.76627,-63.72849z" fill="url(#color-15)" stroke="#000000"/></g><g stroke="none" stroke-width="0" stroke-linecap="butt"><path d="M119.48496,99.11745c0,-17.42835 14.13683,-31.55681 31.57554,-31.55681c17.43868,0 31.57554,14.12846 31.57554,31.55681c0,17.42835 -14.13684,31.55681 -31.57554,31.55681c-17.43868,0 -31.57553,-14.12846 -31.57553,-31.55681z" fill="url(#color-16)"/><path d="M30.86301,157.81313c0,-17.42835 14.13683,-31.55681 31.57554,-31.55681c17.43869,0 31.57551,14.12846 31.57551,31.55681c0,17.42835 -14.13682,31.5568 -31.57551,31.5568c-17.43868,0 -31.57553,-14.12846 -31.57553,-31.5568z" fill="url(#color-17)"/><path d="M37.86301,253.81313c0,-17.42835 14.13683,-31.55681 31.57554,-31.55681c17.43869,0 31.57551,14.12846 31.57551,31.55681c0,17.42835 -14.13682,31.5568 -31.57551,31.5568c-17.43868,0 -31.57553,-14.12846 -31.57553,-31.5568z" fill="url(#color-18)"/><path d="M257.50238,264.28935c0,-43.96091 35.65851,-79.59824 79.6455,-79.59824c43.987,0 79.64544,35.6373 79.64544,79.59824c0,43.96091 -35.65846,79.59834 -79.64543,79.59834c-43.987,0 -79.64549,-35.63742 -79.64549,-79.59834z" fill="url(#color-19)"/><path d="M43.64022,273.11332c0,-13.66674 3.77154,-26.45311 10.33116,-37.37624c12.72104,-21.18315 35.92767,-35.35895 62.44718,-35.35895c40.19436,0 72.77833,32.56464 72.77833,72.73519c0,40.17055 -32.58397,72.73527 -72.77832,72.73527c-40.19436,0 -72.77833,-32.56468 -72.77833,-72.73525z" fill="url(#color-20)"/><path d="M275.16073,169.18689c0,-40.17055 32.58399,-72.73519 72.77834,-72.73519c40.19436,0 72.7783,32.56464 72.7783,72.73519c0,40.17055 -32.58393,72.73528 -72.7783,72.73528c-40.19436,0 -72.77834,-32.56469 -72.77834,-72.73523z" fill="url(#color-21)"/><path d="M180.0209,85.63443c0,-40.17054 32.58397,-72.73521 72.77835,-72.73521c40.19436,0 72.77829,32.56465 72.77829,72.73521c0,40.17056 -32.58393,72.73527 -72.77829,72.73527c-40.19436,0 -72.77834,-32.56468 -72.77834,-72.73523z" fill="url(#color-22)"/><path d="M167.24863,277.03506c0,-40.17055 32.58397,-72.7352 72.77836,-72.7352c40.19436,0 72.7783,32.56465 72.7783,72.7352c0,40.17055 -32.58393,72.73526 -72.7783,72.73526c-40.19436,0 -72.77835,-32.56468 -72.77835,-72.73525z" fill="url(#color-23)"/><path d="M324.21175,280.95682c0,-40.17055 32.58398,-72.7352 72.77835,-72.7352c40.19436,0 72.77829,32.56465 72.77829,72.7352c0,40.17055 -32.58393,72.73526 -72.77829,72.73526c-40.19436,0 -72.77835,-32.56469 -72.77835,-72.73523z" fill="url(#color-24)"/><path d="M324.21175,92.71268c0,-40.17054 32.58398,-72.7352 72.77835,-72.7352c40.19436,0 72.77829,32.56465 72.77829,72.7352c0,40.17056 -32.58393,72.73527 -72.77829,72.73527c-40.19436,0 -72.77835,-32.56469 -72.77835,-72.73523z" fill="url(#color-25)"/><path d="M368.52901,203.65456c0,-21.11777 17.12949,-38.23709 38.25975,-38.23709c21.13029,0 38.25973,17.11934 38.25973,38.23709c0,21.11777 -17.12947,38.23708 -38.25973,38.23708c-21.13029,0 -38.25975,-17.11933 -38.25975,-38.23708z" fill="url(#color-26)"/><path d="M381.52901,217.65456c0,-21.11777 17.12949,-38.23709 38.25975,-38.23709c21.13029,0 38.25973,17.11934 38.25973,38.23709c0,21.11777 -17.12947,38.23708 -38.25973,38.23708c-21.13029,0 -38.25975,-17.11933 -38.25975,-38.23708z" fill="url(#color-27)"/><path d="M243.52901,277.65456c0,-21.11777 17.12949,-38.23709 38.25975,-38.23709c21.13029,0 38.25973,17.11934 38.25973,38.23709c0,21.11777 -17.12947,38.23708 -38.25973,38.23708c-21.13029,0 -38.25975,-17.11933 -38.25975,-38.23708z" fill="url(#color-28)"/><path d="M106.52901,137.65455c0,-21.11777 17.12949,-38.23709 38.25975,-38.23709c21.13029,0 38.25973,17.11934 38.25973,38.23709c0,21.11777 -17.12947,38.23708 -38.25973,38.23708c-21.13029,0 -38.25975,-17.11933 -38.25975,-38.23708z" fill="url(#color-29)"/><path d="M277.52901,74.65456c0,-21.11777 17.12949,-38.23709 38.25975,-38.23709c21.13029,0 38.25973,17.11934 38.25973,38.23709c0,21.11777 -17.12947,38.23708 -38.25973,38.23708c-21.13029,0 -38.25975,-17.11933 -38.25975,-38.23708z" fill="url(#color-30)"/><path d="M246.52901,279.65456c0,-21.11777 17.12949,-38.23709 38.25975,-38.23709c21.13029,0 38.25973,17.11934 38.25973,38.23709c0,21.11777 -17.12947,38.23708 -38.25973,38.23708c-21.13029,0 -38.25975,-17.11933 -38.25975,-38.23708z" fill="url(#color-31)"/><path d="M76.52901,125.65456c0,-21.11777 17.12949,-38.23709 38.25975,-38.23709c21.13029,0 38.25973,17.11934 38.25973,38.23709c0,21.11777 -17.12947,38.23708 -38.25973,38.23708c-21.13029,0 -38.25975,-17.11933 -38.25975,-38.23708z" fill="url(#color-32)"/><path d="M246.88261,292.87441c0,-22.7422 18.44714,-41.17841 41.20282,-41.17841c22.75568,0 41.20281,18.43621 41.20281,41.17841c0,22.7422 -18.44713,41.17842 -41.20281,41.17842c-22.75568,0 -41.20282,-18.43622 -41.20282,-41.17842z" fill="url(#color-33)"/><path d="M14.20963,84.86916c0,-31.46702 22.34773,-54.90453 50.33179,-65.04052c7.74016,-2.80353 13.73789,-7.69465 22.44656,-7.69465c8.79921,0 14.29222,3.52161 22.09998,6.38104c27.85767,10.20231 50.67831,34.97761 50.67831,66.35416c0,31.32595 -19.8151,58.02659 -47.60212,68.26568c-7.84542,2.89092 -16.32633,4.46958 -25.17617,4.46958c-40.19436,0 -72.77834,-32.56469 -72.77834,-72.73525z" fill="url(#color-34)"/><path d="M272.76713,88.98204c0,-43.96091 35.65852,-79.59825 79.64551,-79.59825c43.987,0 79.64543,35.63732 79.64543,79.59825c0,43.96091 -35.65846,79.59833 -79.64542,79.59833c-43.987,0 -79.64551,-35.63742 -79.64551,-79.59833z" fill="url(#color-35)"/><path d="M98.03144,182.67809c0,-57.93512 47.51551,-104.90084 106.12883,-104.90084c58.61332,0 106.12883,46.96571 106.12883,104.90084c0,57.93516 -47.5155,104.90086 -106.12882,104.90086c-58.61332,0 -106.12883,-46.96573 -106.12883,-104.90086z" fill="url(#color-36)"/></g><g fill="none" stroke-width="0.75" stroke-linecap="round"><path d="M478.10856,100.65442l-18.87292,-9.72894l-17.48187,-60.20191l-72.6171,26.75643v25.41858l22.86094,42.81032l-2.6895,30.76986l-36.30858,32.10766l-57.82474,1.33789l-6.7238,29.43204l1.34478,28.09424l41.68763,56.18847l-28.23999,18.72951l-24.20569,-12.0404l-28.23996,1.33786l-42.19841,12.26851l-12.09239,0.60155l-25.99876,-6.01505l-11.48783,-5.41348l-10.27855,-0.6015l-6.04619,3.60905l-22.371,3.609l-11.48782,-5.41354l-9.0693,-6.01501l-8.46473,-1.20299l-15.11549,4.81198l-7.25544,12.63147l-2.41848,31.27805" stroke="url(#color-37)"/><path d="M245.43973,1.91703c0,0 2.08714,5.69292 3.16399,6.48503c1.40983,1.03703 4.88343,3.59211 4.88343,3.59211l16.13713,4.01346l13.4476,17.39169l-4.03426,14.71601l-24.20575,25.41857l-60.51428,9.36474l-45.72184,-1.33783l-24.20575,13.37823l-6.72382,33.44546l20.17139,25.41865l-15.09467,46.82374l-15.72018,21.65405h-7.86006l-19.34788,5.41349l-18.13866,2.40601l-21.16173,-12.63153l-13.90631,-2.40595l-8.46464,-7.8195l-16.64346,-8.36401" stroke="url(#color-38)"/><path d="M110.04603,221.07797l50.18357,9.62399l35.06805,14.43603l13.90627,1.20299l18.7328,-9.59287l17.48193,-38.79684l53.79048,1.33784l75.30665,40.13466l-10.75812,48.16151l21.51623,32.10768l16.13712,8.02691l-16.13712,29.43203" stroke="url(#color-39)"/><path d="M67.11781,323.33297l-12.69705,-10.2255c0,0 -8.76016,-3.00229 -7.86006,-18.045c0.90007,-15.04269 12.09245,-36.69151 12.09245,-36.69151l15.1155,-29.47355" stroke-opacity="0.6371" stroke="#5dd6f2"/><path d="M160.83418,234.31092l-13.90626,12.63148l6.0462,15.03748l4.23234,18.64652l-13.30163,13.83452l-13.30168,9.624l-6.0462,13.8345" stroke="url(#color-40)"/><path d="M50.18849,282.43102l21.16173,1.80448l25.99872,-15.63905l16.32479,11.42854l3.02309,10.82701l18.74329,9.02253" stroke-opacity="0.6371" stroke="#5dd6f2"/><path d="M455.20134,74.87177l-10.75806,72.24234l10.75806,18.7295l-16.13716,49.49938l-21.5162,4.01345l-29.58474,13.37827l-10.75808,10.70253" stroke-opacity="0.6371" stroke="#5dd6f2"/><path d="M243.8441,358.5665l-7.32523,-6.22425l-22.48898,-4.7432l-6.26469,-10.51435l12.10287,-16.24512" stroke="#3dd0fc"/><path d="M250.79761,76.20954l2.6895,37.459l14.79237,14.71601h30.92954l17.48188,-4.01344l16.13718,9.36474l4.03428,20.06727l10.75804,33.44551" stroke="url(#color-41)"/><path d="M254.83183,121.69552l-24.20572,25.41858c0,0 -35.54669,-1.36877 -55.13523,8.02691c-19.58848,9.39567 -20.17142,28.09423 -20.17142,28.09423l-25.49115,5.3513" stroke="url(#color-42)"/><path d="M211.7996,149.78976l-4.03425,10.70254l-5.379,21.40513l-2.68949,18.72951l5.37901,14.71603l16.13718,20.06732l12.10286,30.76985l-2.68952,28.09424l-17.48191,14.71601l-16.13713,13.37826" stroke-opacity="0.6371" stroke="#5dd6f2"/><path d="M127.27116,352.75736l14.60082,-14.3349l39.5676,-16.12786" stroke-opacity="0.6371" stroke="#5dd6f2"/><path d="M51.77299,80.22303l-13.44765,32.10767l13.44765,26.75644l38.99806,48.16154l-22.86088,13.37822l-21.5162,13.37819" stroke="url(#color-43)"/><path d="M51.77299,145.77626l-18.82668,9.36474l-18.82665,-5.35124l-8.06854,5.35124" stroke-opacity="0.6371" stroke="#5dd6f2"/><path d="M283.07185,49.45319l37.6533,-2.67564l37.65333,9.36474l10.75814,13.37822" stroke="url(#color-44)"/><path d="M322.07002,125.70898l-6.7238,-18.72951l4.03426,-29.43203l20.17144,-18.72951l5.34818,-3.31337" stroke-opacity="0.6371" stroke="#5dd6f2"/><path d="M229.28144,74.87177l-26.89517,-17.39165l-32.27425,-9.36474l-6.72381,-21.40513c0,0 20.07996,-11.41504 24.62693,-13.9999c1.74164,-0.99006 2.39997,-11.31198 2.39997,-11.31198" stroke="url(#color-45)"/><path d="M62.53104,81.56086l24.20575,-44.14812l29.58475,-8.02687l18.82667,2.67563l30.9295,2.67563" stroke="url(#color-46)"/><path d="M25.89025,64.1714l5.81648,-34.71898l34.7246,-28.32741c0,0 -11.24658,10.21866 -10.39423,11.02973c3.68017,3.50199 29.35485,27.93366 29.35485,27.93366" stroke="url(#color-47)"/><path d="M478.5,352.85675l-7.16156,-15.77209l-20.17136,-30.76991l-2.68954,-33.44553l-21.5162,-24.08078v-28.09424" stroke="url(#color-48)"/><path d="M452.51189,274.20704l10.75807,-21.40513l2.68954,-26.75644l10.75805,-1.33782" stroke="url(#color-49)"/><path d="M467.89853,2.44235c0,0 11.57342,13.25238 9.63522,14.25505c-5.29571,2.73956 -34.43525,15.67764 -34.43525,15.67764" stroke="url(#color-50)"/><path d="M439.06423,212.66734l-26.89524,-26.75639l-2.68954,-28.09422l-13.44759,-13.37822" stroke="url(#color-51)"/><path d="M449.82231,294.27438c0,0 -15.17692,18.43278 -26.89517,28.09428c-11.7183,9.66143 -21.78363,12.04035 -21.78363,12.04035" stroke-opacity="0.6371" stroke="#5dd6f2"/><path d="M385.27377,318.35507l-47.06666,20.06733l-57.82474,12.04039l-13.44761,-34.78334" stroke="url(#color-52)"/><path d="M237.34998,280.89616h13.44765l21.51623,-17.39163l20.17136,-2.67564" stroke="url(#color-53)"/><path d="M342.9094,2.09291l23.53773,52.71154" stroke-opacity="0.6371" stroke="#5dd6f2"/><path d="M162.3876,164.44687l17.7298,29.05127l-8.34342,39.4268" stroke-opacity="0.6371" stroke="#5dd6f2"/><path d="M179.07445,84.55587l5.21464,4.1502l8.34339,10.37546v29.0513l-17.72978,28.01382" stroke-opacity="0.6371" stroke="#5dd6f2"/><path d="M384.53144,111.53203l15.64393,-10.37546l29.202,4.15019l19.81567,10.37547" stroke="url(#color-54)"/><path d="M270.85213,194.53583l-5.21464,-14.52568v-14.5256l13.55804,-8.30034l16.68687,-29.05134" stroke-opacity="0.6371" stroke="#5dd6f2"/><path d="M362.62993,286.87734l-11.47222,15.56322l-23.98737,-5.18775" stroke-opacity="0.6371" stroke="#5dd6f2"/><path d="M313.6123,275.4644l3.12883,-17.63831l1.04289,-17.63828l12.51515,-14.52561l7.3005,-2.07509" stroke-opacity="0.6371" stroke="#5dd6f2"/><path d="M1.59739,352.77697l21.03777,-38.92341l21.90149,-20.75093" stroke-opacity="0.6371" stroke="#5dd6f2"/><path d="M74.78153,157.18412l12.51514,-7.26281l8.34344,6.22529l14.60102,5.18773h21.90149" stroke-opacity="0.6371" stroke="#5dd6f2"/><path d="M78.95323,82.48081l12.51515,12.4505l-12.51515,37.3517l8.3434,20.75088" stroke="url(#color-55)"/><path d="M131.09973,30.60341l-2.08587,15.56319l7.3005,19.7134l-1.16612,18.35645l-24.20575,-14.716l-40.34285,12.04039l-37.65332,-2.67565l-5.37905,-8.0269l-24.20568,-14.71601" stroke-opacity="0.6371" stroke="#5dd6f2"/><path d="M372.01629,97.00639l-14.60097,14.52562l-3.12876,13.4881l-19.81567,5.18773" stroke="url(#color-56)"/><path d="M453.36474,176.89746l24.98156,19.15915" stroke="url(#color-57)"/><path d="M212.01893,60.69953l16.28625,-25.46056l27.91934,-23.14601" stroke="url(#color-58)"/><path d="M225.9785,35.23889l-18.61285,-6.9438c0,0 -4.67093,-9.95749 -6.1577,-13.12699c-0.84423,-1.79973 21.95349,-13.27123 21.95349,-13.27123" stroke-opacity="0.6371" stroke="#5dd6f2"/><path d="M120.11793,15.56486l22.10275,12.7303" stroke-opacity="0.6371" stroke="#5dd6f2"/><path d="M296.94005,44.49733l18.61285,-20.83133h33.73578" stroke-opacity="0.6371" stroke="#5dd6f2"/><path d="M316.71621,24.82317c0,0 -15.21278,-10.93025 -18.49879,-13.29121c-1.19358,-0.85757 -3.70056,-10.2188 -3.70056,-10.2188" stroke-opacity="0.6371" stroke="#5dd6f2"/><path d="M413.27053,41.02542l-18.61286,-25.46061c0,0 10.21391,-5.08056 12.38441,-6.16021c0.77409,-0.38505 6.36252,-7.45503 6.36252,-7.45503" stroke-opacity="0.6371" stroke="#5dd6f2"/><path d="M431.88333,106.9915l-24.42937,-39.34816l15.12297,-30.08982" stroke-opacity="0.6371" stroke="#5dd6f2"/><path d="M316.71621,83.84551l-52.34866,23.14602l-9.30639,-6.94376" stroke-opacity="0.6371" stroke="#5dd6f2"/><path d="M427.23015,251.65391l-20.93946,41.66283l-25.59267,10.4157" stroke-opacity="0.6371" stroke="#5dd6f2"/><path d="M53.80954,258.59782l-18.61285,-2.31455l-33.48163,-31.31136" stroke="url(#color-59)"/><path d="M241.10151,131.29483l-29.08266,-25.46061l-8.14312,-21.98868" stroke-opacity="0.6371" stroke="#5dd6f2"/><path d="M30.54355,30.44502c0,0 -13.29894,-6.38254 -18.53926,-8.89754c-3.85733,-1.85124 -10.04499,-4.82088 -10.04499,-4.82088" stroke-opacity="0.31734" stroke="#5dd6f2"/><path d="M85.2188,194.9463l4.65322,24.30329" stroke-opacity="0.6371" stroke="#5dd6f2"/><path d="M227.14184,273.64268l-34.89909,23.14601l-39.55235,-23.14601" stroke-opacity="0.6371" stroke="#5dd6f2"/><path d="M96.85188,269.01353l-3.48995,-23.14601l15.12298,-17.35951l-8.14314,-1.15727" stroke-opacity="0.6371" stroke="#5dd6f2"/><path d="M202.71245,192.6317l34.8991,-26.61788h26.756" stroke="url(#color-60)"/><path d="M182.98245,137.34465l-17.05632,-10.36951l-23.68932,0.94269l-14.21359,-13.19755l-4.73787,-4.71341" stroke-opacity="0.6371" stroke="#5dd6f2"/><path d="M149.81742,83.61172l-4.73786,3.77075l15.16118,22.62438l-15.16118,15.08292" stroke-opacity="0.6371" stroke="#5dd6f2"/><path d="M265.4213,131.68854l-9.47574,31.10852l-34.11264,-9.42684" stroke-opacity="0.6371" stroke="#5dd6f2"/><path d="M316.59024,184.47876l-16.10872,-22.62438l31.26989,-10.3695" stroke-opacity="0.6371" stroke="#5dd6f2"/><path d="M284.37272,131.68854l32.21747,21.6817" stroke-opacity="0.6371" stroke="#5dd6f2"/><path d="M364.91642,100.58001l-30.32234,-15.08292l18.95146,-16.96829l9.47574,-4.71341" stroke-opacity="0.6371" stroke="#5dd6f2"/><path d="M330.8038,86.43977l-18.00388,16.02559" stroke-opacity="0.6371" stroke="#5dd6f2"/><path d="M315.64268,77.01295l-31.2699,-9.42682l8.52815,-14.14023" stroke-opacity="0.6371" stroke="#5dd6f2"/><path d="M255.94551,84.55442l26.53206,-18.85365" stroke-opacity="0.6371" stroke="#5dd6f2"/><path d="M363.02129,175.05196l33.16505,33.93658l-33.16505,23.56707" stroke-opacity="0.6371" stroke="#5dd6f2"/><path d="M389.55334,202.38972l32.21748,-1.88538" stroke-opacity="0.6371" stroke="#5dd6f2"/><path d="M263.5261,201.44702l-9.47573,46.19143l-3.79032,5.65608" stroke-opacity="0.6371" stroke="#5dd6f2"/><path d="M267.31639,268.37748l16.10872,17.91096l-33.16505,27.33779" stroke-opacity="0.6371" stroke="#5dd6f2"/><path d="M327.01346,306.08477l-40.74564,-20.73902" stroke-opacity="0.6371" stroke="#5dd6f2"/><path d="M341.22714,296.65796l-9.47574,-40.53533l32.21749,-2.82806" stroke-opacity="0.6371" stroke="#5dd6f2"/><path d="M346.91256,254.23727l-19.89904,-23.56707" stroke-opacity="0.6371" stroke="#5dd6f2"/><path d="M108.1242,316.4543l-22.74176,35.82191l-9.47574,6.59879" stroke-opacity="0.6371" stroke="#5dd6f2"/><path d="M130.86595,356.04697l-35.06021,-19.79635" stroke-opacity="0.6371" stroke="#5dd6f2"/><path d="M468.20197,358.87501l-11.37089,-5.65609l-26.53206,-29.22316" stroke-opacity="0.6371" stroke="#5dd6f2"/><path d="M413.2427,356.98965l27.47961,-16.9683" stroke-opacity="0.6371" stroke="#5dd6f2"/><path d="M447.47791,150.4218l30.19081,-19.50559" stroke-opacity="0.6371" stroke="#5dd6f2"/><path d="M450.19805,119.43364l16.10872,14.14025" stroke-opacity="0.6371" stroke="#5dd6f2"/><path d="M376.28729,88.32512l30.32233,-18.85365" stroke-opacity="0.6371" stroke="#5dd6f2"/><path d="M274.89705,54.38859l-40.74562,-13.19756" stroke-opacity="0.6371" stroke="#5dd6f2"/><path d="M92.96299,30.82151l15.692,-28.58008" stroke-opacity="0.6371" stroke="#5dd6f2"/><path d="M1.99599,129.80317l36.00778,-17.91096" stroke-opacity="0.6371" stroke="#5dd6f2"/><path d="M134.65625,223.12875l15.16117,-35.82193" stroke-opacity="0.6371" stroke="#5dd6f2"/><path d="M283.42518,239.15434l-39.79806,16.0256l-29.37476,-33.93658l-34.11263,-27.33778" stroke-opacity="0.6371" stroke="#5dd6f2"/><path d="M385.76306,46.84711c0,0 -20.74426,-30.59998 -24.82337,-36.61709c-1.33435,-1.96831 24.81648,-8.792 24.81648,-8.792" stroke-opacity="0.6371" stroke="#5dd6f2"/><path d="M376.28735,29.87887l21.79418,-7.54146" stroke-opacity="0.6371" stroke="#5dd6f2"/><path d="M442.61743,49.67515l-13.266,48.07679" stroke-opacity="0.6371" stroke="#5dd6f2"/><path d="M441.66985,139.22999l-27.47961,24.50974" stroke-opacity="0.6371" stroke="#5dd6f2"/><path d="M182.98245,242.92508l13.26601,46.19143" stroke-opacity="0.6371" stroke="#5dd6f2"/><path d="M227.51839,261.77874l-36.00777,2.82804" stroke-opacity="0.6371" stroke="#5dd6f2"/><path d="M142.2368,243.86775l-43.58834,29.22316" stroke-opacity="0.6371" stroke="#5dd6f2"/><path d="M103.38628,235.3836l14.21361,18.85366" stroke-opacity="0.6371" stroke="#5dd6f2"/><path d="M65.48332,344.73476l-42.64078,-36.76461l10.4233,-46.19143" stroke-opacity="0.6371" stroke="#5dd6f2"/><path d="M51.2698,335.30794l-38.85047,20.73902" stroke-opacity="0.6371" stroke="#5dd6f2"/><path d="M284.37272,349.44819l-76.89194,-13.45289" stroke-opacity="0.6371" stroke="#5dd6f2"/><path d="M348.80767,307.02747l-22.74176,35.82192" stroke-opacity="0.6371" stroke="#5dd6f2"/><path d="M381.02517,351.33354l-31.2699,-13.19754" stroke-opacity="0.6371" stroke="#5dd6f2"/><path d="M23.70794,156.77626l27.47962,51.84753" stroke-opacity="0.6371" stroke="#5dd6f2"/><path d="M38.86907,181.28599l50.22136,-0.94268" stroke-opacity="0.6371" stroke="#5dd6f2"/><path d="M355.35844,128.49575l21.79418,33.93658" stroke-opacity="0.6371" stroke="#5dd6f2"/><path d="M367.67697,149.23482l-23.68933,14.14024" stroke-opacity="0.6371" stroke="#5dd6f2"/><path d="M77.71957,55.9092l-41.69322,-20.739" stroke-opacity="0.6371" stroke="#5dd6f2"/><path d="M28.44584,70.04942l21.7942,-23.56704" stroke-opacity="0.6371" stroke="#5dd6f2"/><path d="M190.84325,356.9813v-32.88573" stroke="url(#color-61)"/><path d="M108.56094,358.22429v-11.91145" stroke-opacity="0.6371" stroke="#5dd6f2"/><path d="M188.80172,13.34076l12.38218,2.46512" stroke-opacity="0.6371" stroke="#5dd6f2"/><path d="M13.17862,2.57274l-0.59854,19.66172" stroke-opacity="0.31734" stroke="#5dd6f2"/><path d="M342.76305,336.80541v20.85023" stroke-opacity="0.6371" stroke="#5dd6f2"/><path d="M477.82476,56.73015l-27.69941,4.42525" stroke="url(#color-62)"/></g><g data-paper-data="{&quot;index&quot;:null}" fill="none" stroke-width="1.5" stroke-linecap="round"><path d="M1.89142,259.3456l18.87292,9.72894l17.48187,60.20191l72.6171,-26.75643v-25.41858l-22.86094,-42.81032l2.6895,-30.76986l36.30858,-32.10766l57.82474,-1.33789l6.7238,-29.43204l-1.34478,-28.09424l-41.68763,-56.18847l28.23999,-18.72951l24.20569,12.0404l28.23996,-1.33786l42.19841,-12.26851l12.09239,-0.60155l25.99876,6.01505l11.48783,5.41348l10.27855,0.6015l6.04619,-3.60905l22.371,-3.609l11.48782,5.41354l9.0693,6.01501l8.46473,1.20299l15.11549,-4.81198l7.25544,-12.63147l2.41848,-31.27805" stroke="url(#color-63)"/><path d="M234.56025,358.083c0,0 -2.08714,-5.69292 -3.16399,-6.48503c-1.40983,-1.03703 -4.88343,-3.59211 -4.88343,-3.59211l-16.13713,-4.01346l-13.4476,-17.39169l4.03426,-14.71601l24.20575,-25.41857l60.51428,-9.36474l45.72184,1.33783l24.20575,-13.37823l6.72382,-33.44546l-20.17139,-25.41865l15.09467,-46.82374l15.72018,-21.65405h7.86006l19.34788,-5.41349l18.13866,-2.40601l21.16173,12.63153l13.90631,2.40595l8.46464,7.8195l16.64346,8.36401" stroke="url(#color-64)"/><path d="M369.95395,138.92206l-50.18357,-9.62399l-35.06805,-14.43603l-13.90627,-1.20299l-18.7328,9.59287l-17.48193,38.79684l-53.79048,-1.33784l-75.30665,-40.13466l10.75812,-48.16151l-21.51623,-32.10768l-16.13712,-8.02691l16.13712,-29.43203" stroke="url(#color-65)"/><path d="M412.88217,36.66705l12.69705,10.2255c0,0 8.76016,3.00229 7.86006,18.045c-0.90007,15.04269 -12.09245,36.69151 -12.09245,36.69151l-15.1155,29.47355" stroke-opacity="0.6371" stroke="#5dd6f2"/><path d="M355.44303,42.08061l-6.0462,13.8345l-13.30168,9.624l-13.30163,13.83452l4.23234,18.64652l11.0462,18.03748l-27.90626,9.63148" stroke="url(#color-66)"/><path d="M429.81149,77.569l-21.16173,-1.80448l-25.99872,15.63905l-16.32479,-11.42854l-3.02309,-10.82701l-18.74329,-9.02253" stroke-opacity="0.6371" stroke="#5dd6f2"/><path d="M24.79864,285.12826l10.75806,-72.24234l-10.75806,-18.7295l16.13716,-49.49938l21.5162,-4.01345l29.58474,-13.37827l10.75808,-10.70253" stroke-opacity="0.6371" stroke="#5dd6f2"/><path d="M236.15588,1.43353l7.32523,6.22425l22.48898,4.7432l6.26469,10.51435l-12.10287,16.24512" stroke="#3dd0fc"/><path d="M229.20237,283.79049l-2.6895,-37.459l-14.79237,-14.71601h-30.92954l-17.48188,4.01344l-16.13718,-9.36474l-4.03428,-20.06727l-10.75804,-33.44551" stroke="url(#color-67)"/><path d="M225.16815,238.30451l24.20572,-25.41858c0,0 35.54669,1.36877 55.13523,-8.02691c19.58848,-9.39567 20.17142,-28.09423 20.17142,-28.09423l25.49115,-5.3513" stroke="url(#color-68)"/><path d="M268.20038,210.21027l4.03425,-10.70254l5.379,-21.40513l2.68949,-18.72951l-5.37901,-14.71603l-16.13718,-20.06732l-12.10286,-30.76985l2.68952,-28.09424l17.48191,-14.71601l16.13713,-13.37826" stroke-opacity="0.6371" stroke="#5dd6f2"/><path d="M352.72882,7.24267l-14.60082,14.3349l-39.5676,16.12786" stroke-opacity="0.6371" stroke="#5dd6f2"/><path d="M428.22699,279.77699l13.44765,-32.10767l-13.44765,-26.75644l-37.64696,-40.84816l4.6489,-13.81338l16.86088,-6.87822l21.5162,-13.37819" stroke="url(#color-69)"/><path d="M428.22699,214.22377l18.82668,-9.36474l18.82665,5.35124l8.06854,-5.35124" stroke-opacity="0.6371" stroke="#5dd6f2"/><path d="M196.92813,310.54684l-37.6533,2.67564l-37.65333,-9.36474l-10.75814,-13.37822" stroke="url(#color-70)"/><path d="M157.92996,234.29105l6.7238,18.72951l-4.03426,29.43203l-20.17144,18.72951l-5.34818,3.31337" stroke-opacity="0.6371" stroke="#5dd6f2"/><path d="M250.71854,285.12826l26.89517,17.39165l32.27425,9.36474l6.72381,21.40513c0,0 -20.07996,11.41504 -24.62693,13.9999c-1.74164,0.99006 -2.39997,11.31198 -2.39997,11.31198" stroke="url(#color-71)"/><path d="M417.46894,278.43916l-24.20575,44.14812l-29.58475,8.02687l-18.82667,-2.67563l-30.9295,-2.67563" stroke="url(#color-72)"/><path d="M454.10973,295.82862l-5.81648,34.71898l-34.7246,28.32741c0,0 11.24658,-10.21866 10.39423,-11.02973c-3.68017,-3.50199 -29.35485,-27.93366 -29.35485,-27.93366" stroke="url(#color-73)"/><path d="M1.49998,1.14328l7.16156,21.77209l20.17136,30.76991l2.68954,33.44553l21.5162,24.08078v28.09424" stroke="url(#color-74)"/><path d="M31.48809,86.79298l-14.75807,20.40513l-2.68954,26.75644l-10.75805,1.33782" stroke="url(#color-75)"/><path d="M12.10145,357.55768c0,0 -11.57342,-13.25238 -9.63522,-14.25505c5.29571,-2.73956 34.43525,-15.67764 34.43525,-15.67764" stroke="url(#color-76)"/><path d="M40.93575,147.33269l26.89524,26.75639l2.68954,28.09422l13.44759,13.37822" stroke="url(#color-77)"/><path d="M30.17767,65.72565c0,0 15.17692,-18.43278 26.89517,-28.09428c11.7183,-9.66143 21.78363,-12.04035 21.78363,-12.04035" stroke-opacity="0.6371" stroke="#5dd6f2"/><path d="M94.72621,41.64495l47.06666,-20.06733l57.82474,-12.04039l13.44761,34.78334" stroke="url(#color-78)"/><path d="M242.65,79.10386h-13.44765l-21.51623,17.39163l-20.17136,2.67564" stroke="url(#color-79)"/><path d="M137.09058,357.90712l-23.53773,-52.71154" stroke-opacity="0.6371" stroke="#5dd6f2"/><path d="M317.61238,195.55316l-17.7298,-29.05127l8.34342,-39.4268" stroke-opacity="0.6371" stroke="#5dd6f2"/><path d="M300.92553,275.44416l-5.21464,-4.1502l-8.34339,-10.37546v-29.0513l17.72978,-28.01382" stroke-opacity="0.6371" stroke="#5dd6f2"/><path d="M95.46854,248.468l-15.64393,10.37546l-29.202,-4.15019l-19.81567,-10.37547" stroke="url(#color-80)"/><path d="M209.14785,165.46419l5.21464,14.52568v14.5256l-13.55804,8.30034l-16.68687,29.05134" stroke-opacity="0.6371" stroke="#5dd6f2"/><path d="M117.37005,73.12268l11.47222,-15.56322l23.98737,5.18775" stroke-opacity="0.6371" stroke="#5dd6f2"/><path d="M166.38768,84.53563l-3.12883,17.63831l-1.04289,17.63828l-12.51515,14.52561l-7.3005,2.07509" stroke-opacity="0.6371" stroke="#5dd6f2"/><path d="M478.40259,7.22306l-21.03777,38.92341l-21.90149,20.75093" stroke-opacity="0.6371" stroke="#5dd6f2"/><path d="M405.21845,202.81591l-12.51514,7.26281l-8.34344,-6.22529l-14.60102,-5.18773h-21.90149" stroke-opacity="0.6371" stroke="#5dd6f2"/><path d="M401.04675,277.51921l-12.51515,-12.4505l12.51515,-37.3517l-8.3434,-20.75088" stroke="url(#color-81)"/><path d="M348.90025,329.39661l2.08587,-15.56319l-7.3005,-19.7134l1.16612,-18.35645l24.20575,14.716l40.34285,-12.04039l37.65332,2.67565l5.37905,8.0269l24.20568,14.71601" stroke-opacity="0.6371" stroke="#5dd6f2"/><path d="M107.98369,262.99364l14.60097,-14.52562l3.12876,-13.4881l19.81567,-5.18773" stroke="url(#color-82)"/><path d="M1.65368,163.94341l24.98156,19.15915" stroke="url(#color-83)"/><path d="M267.98105,299.30048l-16.28625,25.46056l-27.91934,23.14601" stroke="url(#color-84)"/><path d="M254.02148,324.76114l18.61285,6.9438c0,0 4.67093,9.95749 6.1577,13.12699c0.84423,1.79973 -21.95349,13.27123 -21.95349,13.27123" stroke-opacity="0.6371" stroke="#5dd6f2"/><path d="M359.88205,344.43517l-22.10275,-12.7303" stroke-opacity="0.6371" stroke="#5dd6f2"/><path d="M183.05993,315.5027l-18.61285,20.83133h-33.73578" stroke-opacity="0.6371" stroke="#5dd6f2"/><path d="M163.28377,335.17686c0,0 15.21278,10.93025 18.49879,13.29121c1.19358,0.85757 3.70056,10.2188 3.70056,10.2188" stroke-opacity="0.6371" stroke="#5dd6f2"/><path d="M66.72945,318.9746l18.61286,25.46061c0,0 -10.21391,5.08056 -12.38441,6.16021c-0.77409,0.38505 -6.36252,7.45503 -6.36252,7.45503" stroke-opacity="0.6371" stroke="#5dd6f2"/><path d="M48.11665,253.00853l24.42937,39.34816l-15.12297,30.08982" stroke-opacity="0.6371" stroke="#5dd6f2"/><path d="M163.28377,276.1545l52.34866,-23.14602l9.30639,6.94376" stroke-opacity="0.6371" stroke="#5dd6f2"/><path d="M52.76983,108.34612l20.93946,-41.66283l25.59267,-10.4157" stroke-opacity="0.6371" stroke="#5dd6f2"/><path d="M426.19044,101.4022l18.61285,2.31455l33.98163,26.31136" stroke="url(#color-85)"/><path d="M238.89847,228.7052l29.08266,25.46061l8.14312,21.98868" stroke-opacity="0.6371" stroke="#5dd6f2"/><path d="M449.45643,329.555c0,0 13.29894,6.38254 18.53926,8.89754c3.85733,1.85124 10.04499,4.82088 10.04499,4.82088" stroke-opacity="0.31734" stroke="#5dd6f2"/><path d="M390.12796,140.75044l4.65322,24.30329" stroke-opacity="0.6371" stroke="#5dd6f2"/><path d="M252.85814,86.35733l34.89909,-23.14601l39.55235,23.14601" stroke-opacity="0.6371" stroke="#5dd6f2"/><path d="M383.1481,90.9865l3.48995,23.14601l-15.12298,17.35951l8.14314,1.15727" stroke-opacity="0.6371" stroke="#5dd6f2"/><path d="M277.28753,167.36833l-34.8991,26.61788h-26.756" stroke="url(#color-86)"/><path d="M297.01753,222.65537l17.05632,10.36951l23.68932,-0.94269l14.21359,13.19755l4.73787,4.71341" stroke-opacity="0.6371" stroke="#5dd6f2"/><path d="M330.18256,276.3883l4.73786,-3.77075l-15.16118,-22.62438l15.16118,-15.08292" stroke-opacity="0.6371" stroke="#5dd6f2"/><path d="M214.57868,228.31149l9.47574,-31.10852l34.11264,9.42684" stroke-opacity="0.6371" stroke="#5dd6f2"/><path d="M163.40974,175.52127l16.10872,22.62438l-31.26989,10.3695" stroke-opacity="0.6371" stroke="#5dd6f2"/><path d="M163.40979,206.62979l32.21747,21.6817" stroke-opacity="0.6371" stroke="#5dd6f2"/><path d="M115.08356,259.42001l30.32234,15.08292l-18.95146,16.96829l-9.47574,4.71341" stroke-opacity="0.6371" stroke="#5dd6f2"/><path d="M167.20006,257.53467l-18.00388,16.02559" stroke-opacity="0.6371" stroke="#5dd6f2"/><path d="M164.3573,282.98706l31.2699,9.42682l-8.52815,14.14023" stroke-opacity="0.6371" stroke="#5dd6f2"/><path d="M197.52241,294.29926l26.53206,-18.85365" stroke-opacity="0.6371" stroke="#5dd6f2"/><path d="M116.97869,184.94807l-33.16505,-33.93658l33.16505,-23.56707" stroke-opacity="0.6371" stroke="#5dd6f2"/><path d="M90.44664,157.61031l-32.21748,1.88538" stroke-opacity="0.6371" stroke="#5dd6f2"/><path d="M216.47388,158.55301l9.47573,-46.19143l3.79032,-5.65608" stroke-opacity="0.6371" stroke="#5dd6f2"/><path d="M212.68359,91.62253l-16.10872,-17.91096l33.16505,-27.33779" stroke-opacity="0.6371" stroke="#5dd6f2"/><path d="M193.73216,74.65426l-40.74564,-20.73902" stroke-opacity="0.6371" stroke="#5dd6f2"/><path d="M138.77284,63.34207l9.47574,40.53533l-32.21749,2.82806" stroke-opacity="0.6371" stroke="#5dd6f2"/><path d="M152.98646,129.32983l-19.89904,-23.56707" stroke-opacity="0.6371" stroke="#5dd6f2"/><path d="M152.98646,129.32983l-19.89904,-23.56707" stroke-opacity="0.6371" stroke="#5dd6f2"/><path d="M371.87578,43.54572l22.74176,-35.82191l9.47574,-6.59879" stroke-opacity="0.6371" stroke="#5dd6f2"/><path d="M384.19424,23.74941l-35.06021,-19.79635" stroke-opacity="0.6371" stroke="#5dd6f2"/><path d="M11.79801,1.12502l11.37089,5.65609l26.53206,29.22316" stroke-opacity="0.6371" stroke="#5dd6f2"/><path d="M66.75728,3.01038l-27.47961,16.9683" stroke-opacity="0.6371" stroke="#5dd6f2"/><path d="M32.52207,209.57823l-30.19081,19.50559" stroke-opacity="0.6371" stroke="#5dd6f2"/><path d="M29.80193,240.56639l-16.10872,-14.14025" stroke-opacity="0.6371" stroke="#5dd6f2"/><path d="M103.71269,271.67491l-30.32233,18.85365" stroke-opacity="0.6371" stroke="#5dd6f2"/><path d="M205.10293,305.61143l40.74562,13.19756" stroke-opacity="0.6371" stroke="#5dd6f2"/><path d="M387.03699,329.1785l-15.692,28.58008" stroke-opacity="0.6371" stroke="#5dd6f2"/><path d="M441.99621,248.10782l36.00778,-17.91096" stroke-opacity="0.6371" stroke="#5dd6f2"/><path d="M330.18256,172.69321l15.16117,-35.82193" stroke-opacity="0.6371" stroke="#5dd6f2"/><path d="M196.5748,120.84569l39.79806,-16.0256l29.37476,33.93658l34.11263,27.33778" stroke-opacity="0.6371" stroke="#5dd6f2"/><path d="M94.23692,313.1529c0,0 20.74426,30.59998 24.82337,36.61709c1.33435,1.96831 -24.81648,8.792 -24.81648,8.792" stroke-opacity="0.6371" stroke="#5dd6f2"/><path d="M103.71263,330.12116l-21.79418,7.54146" stroke-opacity="0.6371" stroke="#5dd6f2"/><path d="M50.64855,262.24807l-13.266,48.07679" stroke-opacity="0.6371" stroke="#5dd6f2"/><path d="M65.80974,196.2603l-27.47961,24.50974" stroke-opacity="0.6371" stroke="#5dd6f2"/><path d="M297.01753,117.07495l-13.26601,-46.19143" stroke-opacity="0.6371" stroke="#5dd6f2"/><path d="M288.48936,95.39325l-36.00777,2.82804" stroke-opacity="0.6371" stroke="#5dd6f2"/><path d="M337.76318,116.13228l43.58834,-29.22316" stroke-opacity="0.6371" stroke="#5dd6f2"/><path d="M376.6137,124.61643l-14.21361,-18.85366" stroke-opacity="0.6371" stroke="#5dd6f2"/><path d="M414.51666,15.26527l42.64078,36.76461l-10.4233,46.19143" stroke-opacity="0.6371" stroke="#5dd6f2"/><path d="M428.73018,24.69209l38.85047,-20.73902" stroke-opacity="0.6371" stroke="#5dd6f2"/><path d="M272.5192,24.00473l-76.89194,-13.45289" stroke-opacity="0.6371" stroke="#5dd6f2"/><path d="M131.19231,52.97254l22.74176,-35.82192" stroke-opacity="0.6371" stroke="#5dd6f2"/><path d="M130.24471,21.86403l-31.2699,-13.19754" stroke-opacity="0.6371" stroke="#5dd6f2"/><path d="M428.81242,151.37624l35.97962,58.34753" stroke-opacity="0.6371" stroke="#5dd6f2"/><path d="M445.63091,179.21404l-54.72136,0.44268" stroke-opacity="0.6371" stroke="#5dd6f2"/><path d="M102.84736,197.5677l21.79418,33.93658" stroke-opacity="0.6371" stroke="#5dd6f2"/><path d="M112.32301,210.76521l23.68933,-14.14024" stroke-opacity="0.6371" stroke="#5dd6f2"/><path d="M402.28041,304.09083l41.69322,20.739" stroke-opacity="0.6371" stroke="#5dd6f2"/><path d="M451.55414,289.9506l-21.7942,23.56704" stroke-opacity="0.6371" stroke="#5dd6f2"/><path d="M289.15673,3.01872v32.88573" stroke="url(#color-87)"/><path d="M371.43904,1.77574v11.91145" stroke-opacity="0.6371" stroke="#5dd6f2"/><path d="M278.81608,344.19415l12.38218,2.46512" stroke-opacity="0.6371" stroke="#5dd6f2"/><path d="M467.4199,337.76556l-0.59854,19.66172" stroke-opacity="0.31734" stroke="#5dd6f2"/><path d="M137.23693,23.19462v-20.85023" stroke-opacity="0.6371" stroke="#5dd6f2"/><path d="M2.17522,303.26988l27.69941,-4.42525" stroke="url(#color-88)"/></g><path d="M32.62419,292.9568c0,-33.54312 27.20821,-60.73521 60.77124,-60.73521c33.56302,0 60.77119,27.19207 60.77119,60.73521c0,33.54314 -27.20817,60.73527 -60.77118,60.73527c-33.56301,0 -60.77123,-27.19209 -60.77123,-60.73523z" fill="url(#color-89)" stroke="none" stroke-width="0" stroke-linecap="butt"/></g></g></svg>