<svg version="1.1" xmlns="http://www.w3.org/2000/svg" xmlns:xlink="http://www.w3.org/1999/xlink" width="37.6" height="43.6" viewBox="0,0,37.6,43.6"><g transform="translate(-221.20002,-158.2)"><g data-paper-data="{&quot;isPaintingLayer&quot;:true}" fill-rule="nonzero" stroke="none" stroke-linecap="butt" stroke-linejoin="miter" stroke-miterlimit="10" stroke-dasharray="" stroke-dashoffset="0" style="mix-blend-mode: normal"><path d="M221.20003,201.8v-43.6h37.6v43.6z" fill="none" stroke-width="0"/><path d="M249.19123,194.75275l-2.37916,-2.01312c-2.1419,1.23363 -4.58882,1.85044 -7.34078,1.85044c-2.7655,0 -5.23955,-0.67104 -7.42214,-2.01312c-2.16902,-1.35564 -3.86357,-3.20609 -5.08364,-5.55135c-1.20653,-2.34526 -1.80979,-4.93453 -1.80979,-7.76782c0,-2.15547 0.34569,-4.16859 1.03706,-6.03938c0.69139,-1.87078 1.67423,-3.50433 2.94852,-4.90064c1.28787,-1.39631 2.80619,-2.47404 4.55497,-3.2332c1.74877,-0.77272 3.67378,-1.15907 5.77502,-1.15907c2.06057,0 3.97202,0.39991 5.73436,1.19974c1.77588,0.78627 3.30098,1.87756 4.57529,3.27387c1.27431,1.39631 2.26393,3.02986 2.96886,4.90064c0.70492,1.87078 1.05738,3.8568 1.05738,5.95804c0,1.81656 -0.23723,3.545 -0.7117,5.18533c-0.47447,1.64033 -1.16585,3.11798 -2.07414,4.43295l2.35884,2.03346c0.48803,0.40669 0.85405,0.79983 1.09807,1.17941c0.24401,0.37958 0.36602,0.83372 0.36602,1.36242c0,0.46092 -0.13557,0.88795 -0.40671,1.28109c-0.27112,0.40669 -0.63036,0.73204 -1.07772,0.97605c-0.44736,0.24401 -0.90828,0.36602 -1.38276,0.36602c-0.82693,0 -1.75555,-0.44058 -2.78584,-1.32175zM244.27026,182.95868l2.03345,1.62677c0.66426,-1.47765 0.99639,-3.25354 0.99639,-5.32767c0,-1.70811 -0.29824,-3.28743 -0.89472,-4.73796c-0.59648,-1.46409 -1.49121,-2.63672 -2.68417,-3.51789c-1.1794,-0.88117 -2.59604,-1.32175 -4.24993,-1.32175c-1.65388,0 -3.07731,0.44058 -4.27027,1.32175c-1.1794,0.86761 -2.06734,2.02668 -2.66382,3.47722c-0.59648,1.45053 -0.89472,3.04341 -0.89472,4.77863c0,2.72484 0.67104,5.00231 2.01313,6.83243c1.35563,1.83011 3.2942,2.74517 5.81569,2.74517c0.79982,0 1.68777,-0.09489 2.66382,-0.28468l-1.48441,-1.46409c-0.5287,-0.48803 -0.79305,-1.04384 -0.79305,-1.66744c0,-0.8405 0.25757,-1.54543 0.77271,-2.1148c0.5287,-0.58293 1.2133,-0.87439 2.0538,-0.87439c0.50159,0 1.03029,0.17623 1.5861,0.5287z" fill="#ff0000" stroke-width="0.40889"/></g></g></svg>