<svg version="1.1" xmlns="http://www.w3.org/2000/svg" xmlns:xlink="http://www.w3.org/1999/xlink" width="613.39427" height="304.91578" viewBox="0,0,613.39427,304.91578"><defs><radialGradient cx="358.41009" cy="257.30896" r="63.03602" gradientUnits="userSpaceOnUse" id="color-1"><stop offset="0" stop-color="#da0000"/><stop offset="1" stop-color="#ff0000"/></radialGradient><linearGradient x1="457.75507" y1="160.77845" x2="457.75507" y2="253.40281" gradientUnits="userSpaceOnUse" id="color-2"><stop offset="0" stop-color="#840000"/><stop offset="1" stop-color="#ff0000"/></linearGradient><radialGradient cx="262.93887" cy="244.01564" r="21.59568" gradientUnits="userSpaceOnUse" id="color-3"><stop offset="0" stop-color="#ff3e3e"/><stop offset="1" stop-color="#ff0000"/></radialGradient><radialGradient cx="235.49461" cy="277.13078" r="13.87698" gradientUnits="userSpaceOnUse" id="color-4"><stop offset="0" stop-color="#ce0000"/><stop offset="1" stop-color="#ff0000"/></radialGradient><radialGradient cx="294.24241" cy="343.79941" r="13.44817" gradientUnits="userSpaceOnUse" id="color-5"><stop offset="0" stop-color="#ff3e3e"/><stop offset="1" stop-color="#ff0000"/></radialGradient><radialGradient cx="452.61692" cy="272.83516" r="12.49547" gradientUnits="userSpaceOnUse" id="color-6"><stop offset="0" stop-color="#ff3e3e"/><stop offset="1" stop-color="#ff0000"/></radialGradient><radialGradient cx="264.14821" cy="294.12296" r="5.07849" gradientUnits="userSpaceOnUse" id="color-7"><stop offset="0" stop-color="#ce0000"/><stop offset="1" stop-color="#ff0000"/></radialGradient><radialGradient cx="153.14821" cy="240.12296" r="5.07849" gradientUnits="userSpaceOnUse" id="color-8"><stop offset="0" stop-color="#ce0000"/><stop offset="1" stop-color="#ff0000"/></radialGradient><radialGradient cx="334.55446" cy="308.20422" r="2.53924" gradientUnits="userSpaceOnUse" id="color-9"><stop offset="0" stop-color="#ce0000"/><stop offset="1" stop-color="#ff0000"/></radialGradient><radialGradient cx="389.30433" cy="206.79067" r="2.40096" gradientUnits="userSpaceOnUse" id="color-10"><stop offset="0" stop-color="#ce0000"/><stop offset="1" stop-color="#ff0000"/></radialGradient><radialGradient cx="475.49313" cy="256.20078" r="1.55063" gradientUnits="userSpaceOnUse" id="color-11"><stop offset="0" stop-color="#ce0000"/><stop offset="1" stop-color="#ff0000"/></radialGradient><radialGradient cx="231.15613" cy="257.60264" r="3.39248" gradientUnits="userSpaceOnUse" id="color-12"><stop offset="0" stop-color="#ff3e3e"/><stop offset="1" stop-color="#ff0000"/></radialGradient><radialGradient cx="425.36872" cy="275.32322" r="2.53924" gradientUnits="userSpaceOnUse" id="color-13"><stop offset="0" stop-color="#ce0000"/><stop offset="1" stop-color="#ff0000"/></radialGradient><radialGradient cx="156.06838" cy="321.72278" r="44.62875" gradientUnits="userSpaceOnUse" id="color-14"><stop offset="0" stop-color="#0300b8"/><stop offset="1" stop-color="#0d00c5"/></radialGradient><linearGradient x1="111.43969" y1="321.72278" x2="200.69719" y2="321.72278" gradientUnits="userSpaceOnUse" id="color-15"><stop offset="0" stop-color="#e50000"/><stop offset="1" stop-color="#ff5656"/></linearGradient><linearGradient x1="206.11655" y1="223.72278" x2="295.37405" y2="223.72278" gradientUnits="userSpaceOnUse" id="color-16"><stop offset="0" stop-color="#0300c7"/><stop offset="1" stop-color="#0400f3"/></linearGradient><linearGradient x1="206.11655" y1="223.72278" x2="295.37405" y2="223.72278" gradientUnits="userSpaceOnUse" id="color-17"><stop offset="0" stop-color="#e50000"/><stop offset="1" stop-color="#ff5656"/></linearGradient><radialGradient cx="95.3044" cy="287.75754" r="17.04007" gradientUnits="userSpaceOnUse" id="color-18"><stop offset="0" stop-color="#0300d9"/><stop offset="1" stop-color="#1000ff"/></radialGradient><linearGradient x1="78.26428" y1="287.75754" x2="112.34446" y2="287.75754" gradientUnits="userSpaceOnUse" id="color-19"><stop offset="0" stop-color="#e50000"/><stop offset="1" stop-color="#ff5656"/></linearGradient><radialGradient cx="214.35808" cy="328.80808" r="6.13915" gradientUnits="userSpaceOnUse" id="color-20"><stop offset="0" stop-color="#4340ff"/><stop offset="1" stop-color="#1000ff"/></radialGradient><radialGradient cx="170.02227" cy="277.29441" r="24.30973" gradientUnits="userSpaceOnUse" id="color-21"><stop offset="0" stop-color="#0300d9"/><stop offset="1" stop-color="#1000ff"/></radialGradient><radialGradient cx="134.06005" cy="294.45378" r="6.13915" gradientUnits="userSpaceOnUse" id="color-22"><stop offset="0" stop-color="#4340ff"/><stop offset="1" stop-color="#1000ff"/></radialGradient><radialGradient cx="104.30643" cy="314.23684" r="3.39248" gradientUnits="userSpaceOnUse" id="color-23"><stop offset="0" stop-color="#3b36ff"/><stop offset="1" stop-color="#0900bf"/></radialGradient><radialGradient cx="365.15735" cy="195.10308" r="7.77432" gradientUnits="userSpaceOnUse" id="color-24"><stop offset="0" stop-color="#ce0000"/><stop offset="1" stop-color="#ff0000"/></radialGradient><radialGradient cx="486.64618" cy="149.21186" r="10.20408" gradientUnits="userSpaceOnUse" id="color-25"><stop offset="0" stop-color="#ce0000"/><stop offset="1" stop-color="#ff0000"/></radialGradient><radialGradient cx="430.15217" cy="185.73731" r="12.95011" gradientUnits="userSpaceOnUse" id="color-26"><stop offset="0" stop-color="#ff0000" stop-opacity="0.83065"/><stop offset="1" stop-color="#ff0000" stop-opacity="0.17671"/></radialGradient><radialGradient cx="437.89363" cy="173.86707" r="5.5527" gradientUnits="userSpaceOnUse" id="color-27"><stop offset="0" stop-color="#ff0000" stop-opacity="0.83065"/><stop offset="1" stop-color="#ff0000" stop-opacity="0.17671"/></radialGradient><radialGradient cx="441.5859" cy="164.7493" r="4.17644" gradientUnits="userSpaceOnUse" id="color-28"><stop offset="0" stop-color="#ff0000" stop-opacity="0.83065"/><stop offset="1" stop-color="#ff0000" stop-opacity="0.17671"/></radialGradient><radialGradient cx="449.95904" cy="164.17397" r="1.55593" gradientUnits="userSpaceOnUse" id="color-29"><stop offset="0" stop-color="#ff0000" stop-opacity="0.83065"/><stop offset="1" stop-color="#ff0000" stop-opacity="0.17671"/></radialGradient><radialGradient cx="446.79007" cy="171.77953" r="1.55593" gradientUnits="userSpaceOnUse" id="color-30"><stop offset="0" stop-color="#ff0000" stop-opacity="0.83065"/><stop offset="1" stop-color="#ff0000" stop-opacity="0.17671"/></radialGradient><linearGradient x1="170.02228" y1="196.38152" x2="170.02228" y2="237.28661" gradientUnits="userSpaceOnUse" id="color-31"><stop offset="0" stop-color="#ff3535"/><stop offset="1" stop-color="#ff0000"/></linearGradient><radialGradient cx="110.02227" cy="233.73802" r="24.30973" gradientUnits="userSpaceOnUse" id="color-32"><stop offset="0" stop-color="#0300d9"/><stop offset="1" stop-color="#1000ff"/></radialGradient><linearGradient x1="206.11655" y1="202.00082" x2="254.736" y2="202.00082" gradientUnits="userSpaceOnUse" id="color-33"><stop offset="0" stop-color="#0300c7"/><stop offset="1" stop-color="#0400f3"/></linearGradient><radialGradient cx="23.64771" cy="136.80274" r="57.69231" gradientUnits="userSpaceOnUse" id="color-34"><stop offset="0" stop-color="#0300d9"/><stop offset="1" stop-color="#1000ff"/></radialGradient><linearGradient x1="-34.04463" y1="136.80274" x2="81.33999" y2="136.80274" gradientUnits="userSpaceOnUse" id="color-35"><stop offset="0" stop-color="#e50000"/><stop offset="1" stop-color="#ff5656"/></linearGradient><radialGradient cx="4.57219" cy="163.57689" r="19.34752" gradientUnits="userSpaceOnUse" id="color-36"><stop offset="0" stop-color="#0300d9"/><stop offset="1" stop-color="#1000ff"/></radialGradient><linearGradient x1="-14.77534" y1="163.57689" x2="23.91967" y2="163.57689" gradientUnits="userSpaceOnUse" id="color-37"><stop offset="0" stop-color="#e50000"/><stop offset="1" stop-color="#ff5656"/></linearGradient><linearGradient x1="189.72463" y1="231.07689" x2="228.41967" y2="231.07689" gradientUnits="userSpaceOnUse" id="color-38"><stop offset="0" stop-color="#0300c7"/><stop offset="1" stop-color="#0400f3"/></linearGradient><linearGradient x1="189.72466" y1="231.07689" x2="228.41967" y2="231.07689" gradientUnits="userSpaceOnUse" id="color-39"><stop offset="0" stop-color="#e50000"/><stop offset="1" stop-color="#ff5656"/></linearGradient><radialGradient cx="142.57219" cy="229.07689" r="19.34752" gradientUnits="userSpaceOnUse" id="color-40"><stop offset="0" stop-color="#0300d9"/><stop offset="1" stop-color="#1000ff"/></radialGradient><linearGradient x1="123.22466" y1="229.07689" x2="161.91967" y2="229.07689" gradientUnits="userSpaceOnUse" id="color-41"><stop offset="0" stop-color="#e50000"/><stop offset="1" stop-color="#ff5656"/></linearGradient><radialGradient cx="-34.9109" cy="87.25319" r="57.69231" gradientUnits="userSpaceOnUse" id="color-42"><stop offset="0" stop-color="#0300d9"/><stop offset="1" stop-color="#1000ff"/></radialGradient><linearGradient x1="-92.60313" y1="87.25319" x2="22.78144" y2="87.25319" gradientUnits="userSpaceOnUse" id="color-43"><stop offset="0" stop-color="#e50000"/><stop offset="1" stop-color="#ff5656"/></linearGradient><radialGradient cx="34.59099" cy="208.60504" r="19.34752" gradientUnits="userSpaceOnUse" id="color-44"><stop offset="0" stop-color="#0300d9"/><stop offset="1" stop-color="#1000ff"/></radialGradient><linearGradient x1="15.24348" y1="208.60504" x2="53.93852" y2="208.60504" gradientUnits="userSpaceOnUse" id="color-45"><stop offset="0" stop-color="#e50000"/><stop offset="1" stop-color="#ff5656"/></linearGradient><radialGradient cx="50.70464" cy="197.20999" r="4.82315" gradientUnits="userSpaceOnUse" id="color-46"><stop offset="0" stop-color="#4340ff"/><stop offset="1" stop-color="#1000ff"/></radialGradient><linearGradient x1="45.88141" y1="197.20999" x2="55.52779" y2="197.20999" gradientUnits="userSpaceOnUse" id="color-47"><stop offset="0" stop-color="#e50000"/><stop offset="1" stop-color="#ff5656"/></linearGradient><radialGradient cx="23.90925" cy="108.78555" r="4.82315" gradientUnits="userSpaceOnUse" id="color-48"><stop offset="0" stop-color="#4340ff"/><stop offset="1" stop-color="#1000ff"/></radialGradient><linearGradient x1="19.08618" y1="108.78555" x2="28.7325" y2="108.78555" gradientUnits="userSpaceOnUse" id="color-49"><stop offset="0" stop-color="#e50000"/><stop offset="1" stop-color="#ff5656"/></linearGradient><radialGradient cx="91.96936" cy="152.72982" r="4.82315" gradientUnits="userSpaceOnUse" id="color-50"><stop offset="0" stop-color="#0400e2"/><stop offset="1" stop-color="#1000ff"/></radialGradient><linearGradient x1="87.14613" y1="152.72982" x2="96.79251" y2="152.72982" gradientUnits="userSpaceOnUse" id="color-51"><stop offset="0" stop-color="#e50000"/><stop offset="1" stop-color="#ff5656"/></linearGradient><radialGradient cx="170.85808" cy="229.30808" r="6.13915" gradientUnits="userSpaceOnUse" id="color-52"><stop offset="0" stop-color="#4340ff"/><stop offset="1" stop-color="#1000ff"/></radialGradient></defs><g transform="translate(92.60318,-67.08359)"><g data-paper-data="{&quot;isPaintingLayer&quot;:true}" fill-rule="nonzero" stroke-linecap="butt" stroke-linejoin="miter" stroke-miterlimit="10" stroke-dasharray="" stroke-dashoffset="0" style="mix-blend-mode: normal"><path d="M295.37405,257.30896c0,-25.57751 28.22219,-46.31218 63.03602,-46.31218c34.81383,0 63.03602,20.73467 63.03602,46.31218c0,25.57751 -28.22219,46.31218 -63.03602,46.31218c-34.81383,0 -63.03602,-20.73467 -63.03602,-46.31218z" fill="url(#color-1)" stroke="#000000" stroke-width="0"/><path d="M286.79774,225.14773c0,-8.76267 9.66871,-15.86621 21.59568,-15.86621c11.92696,0 20.01053,7.94049 20.01053,7.94049c0,0 -11.85344,5.28591 -16.71755,9.31015c-4.40169,3.64167 -11.2187,13.80243 -11.2187,13.80243c0,0 -13.66996,-6.4242 -13.66996,-15.18686z" fill="#ff0000" stroke="#000000" stroke-width="0"/><path d="M273.0756,286.89725c0,-12.55193 23.48401,-25.21071 23.48401,-25.21071l10.36324,21.16403c0,0 9.14373,8.77972 17.27875,10.80882c3.16431,0.78927 9.50096,4.82727 9.50096,4.82727c0,0 -12.60806,11.13787 -29.69262,11.13787c-17.08457,0 -30.93434,-10.17535 -30.93434,-22.72727z" fill="#ff0000" stroke="#000000" stroke-width="0"/><path d="M394.71905,207.09063c0,-25.57751 28.22219,-46.31218 63.03602,-46.31218c34.81383,0 63.03602,20.73467 63.03602,46.31218c0,25.57751 -28.22219,46.31218 -63.03602,46.31218c-34.81383,0 -63.03602,-20.73467 -63.03602,-46.31218z" fill="url(#color-2)" stroke="#000000" stroke-width="0"/><path d="M241.34318,244.01566c0,-8.76266 9.66872,-15.86622 21.59568,-15.86622c11.92696,0 24.42053,13.45948 24.42053,22.22215c0,2.57549 -15.9991,9.51028 -24.42053,9.51028c-11.92696,0 -21.59568,-7.10354 -21.59568,-15.86621z" fill="url(#color-3)" stroke="#000000" stroke-width="0"/><path d="M221.61763,277.13078c0,-5.63073 6.21294,-10.19533 13.87698,-10.19533c7.66404,0 22.35156,3.15218 22.35156,8.7829c0,5.63073 -14.68751,11.60776 -22.35156,11.60776c-7.66404,0 -13.87698,-4.56461 -13.87698,-10.19533z" fill="url(#color-4)" stroke="#000000" stroke-width="0"/><path d="M280.79426,343.79943c0,-5.45673 8.84581,-12.70515 16.27302,-12.70515c7.42721,0 10.6233,7.24842 10.6233,12.70515c0,1.67712 -2.01366,8.69366 -3.0172,13.76074c-0.18349,0.92648 0.9389,3.01765 0.9973,3.74201c0.1401,1.73774 -0.92469,2.24872 -1.57923,2.73202c-0.67282,0.49679 -2.11338,-0.60193 -2.66008,-2.94291c-0.15996,-0.68496 0.596,-2.97444 0.35109,-3.65355c-0.8791,-2.43759 -2.7671,-4.36726 -3.75461,-4.15484c-0.3389,0.0729 -1.6364,2.96731 -1.39671,6.06327c0.19511,2.52026 1.94162,5.06751 1.72343,7.20092c-0.46341,4.53114 -2.83903,5.45228 -3.48044,5.45228c-0.50877,0 -2.72219,-1.00512 -3.35958,-5.20127c-0.43293,-2.85009 1.22826,-3.6317 1.2728,-6.50258c0.03335,-2.15004 -1.53352,-6.85891 -1.77402,-6.90246c-5.86762,-1.06247 -10.21908,-4.9547 -10.21908,-9.59361z" fill="url(#color-5)" stroke="#000000" stroke-width="0"/><path d="M412.80944,251.27452c0,-6.29856 5.106,-11.40456 11.40456,-11.40456c6.29856,0 11.40456,5.106 11.40456,11.40456c0,6.29856 -5.106,11.40456 -11.40456,11.40456c-6.29856,0 -11.40456,-5.106 -11.40456,-11.40456z" fill="#ff0000" stroke="#000000" stroke-width="0"/><path d="M440.12143,272.83516c0,-6.90106 -3.8284,-13.31485 3.07266,-13.31485c6.90106,0 21.91829,6.41379 21.91829,13.31485c0,6.90106 -5.59441,12.49547 -12.49547,12.49547c-6.90106,0 -12.49547,-5.59441 -12.49547,-12.49547z" fill="url(#color-6)" stroke="#000000" stroke-width="0"/><path d="M259.06976,294.12296c0,-2.80477 2.27371,-5.07849 5.07849,-5.07849c2.80477,0 5.07849,2.27371 5.07849,5.07849c0,2.80477 -2.27371,5.07849 -5.07849,5.07849c-2.80477,0 -5.07849,-2.27371 -5.07849,-5.07849z" fill="url(#color-7)" stroke="#000000" stroke-width="0"/><path d="M148.06976,240.12296c0,-2.80477 2.27371,-5.07849 5.07849,-5.07849c2.80477,0 6.07849,2.27371 6.07849,5.07849c0,0.86148 -4.1352,4.07849 -6.07849,4.07849c-2.80477,0 -5.07849,-1.27371 -5.07849,-4.07849z" fill="url(#color-8)" stroke="#000000" stroke-width="0"/><path d="M332.01524,308.20422c0,-1.40238 1.13686,-2.53924 2.53924,-2.53924c1.40238,0 2.53924,1.13686 2.53924,2.53924c0,1.40238 -1.13686,2.53924 -2.53924,2.53924c-1.40238,0 -2.53924,-1.13686 -2.53924,-2.53924z" fill="url(#color-9)" stroke="none" stroke-width="0"/><path d="M386.90337,206.79067c0,-1.32602 1.07495,-2.40096 2.40096,-2.40096c1.32601,0 2.40096,1.07494 2.40096,2.40096c0,1.32602 -1.07495,2.40096 -2.40096,2.40096c-1.32601,0 -2.40096,-1.07494 -2.40096,-2.40096z" fill="url(#color-10)" stroke="none" stroke-width="0"/><path d="M475.49313,257.7514c-0.85639,0 -1.55063,-0.69424 -1.55063,-1.55062c0,-0.85638 0.69425,-1.55062 1.55063,-1.55062c0.85639,0 1.55062,0.69424 1.55062,1.55062c0,0.85639 -0.69424,1.55062 -1.55062,1.55062z" fill="url(#color-11)" stroke="none" stroke-width="0"/><path d="M227.76365,257.60264c0,-1.87362 1.51887,-3.39248 3.39248,-3.39248c1.87362,0 3.39248,1.51887 3.39248,3.39248c0,1.87362 -1.51887,3.39249 -3.39248,3.39249c-1.87362,0 -3.39248,-1.51887 -3.39248,-3.39249z" fill="url(#color-12)" stroke="#000000" stroke-width="0"/><path d="M422.82949,275.32322c0,-1.40238 1.13686,-2.53924 2.53924,-2.53924c1.40238,0 2.53924,1.13686 2.53924,2.53924c0,1.40238 -1.13686,2.53924 -2.53924,2.53924c-1.40238,0 -2.53924,-1.13686 -2.53924,-2.53924z" fill="url(#color-13)" stroke="none" stroke-width="0"/><path d="M200.69719,321.72278c0,11.99671 -19.98097,21.72196 -44.62875,21.72196c-24.64778,0 -44.62875,-9.72525 -44.62875,-21.72196c0,-11.99671 19.98097,-21.72196 44.62875,-21.72196c24.64778,0 44.62875,9.72525 44.62875,21.72196z" fill="url(#color-14)" stroke="url(#color-15)" stroke-width="0"/><path d="M295.37405,223.72278c0,11.99671 -19.98097,21.72196 -44.62875,21.72196c-24.64778,0 -44.62875,-9.72525 -44.62875,-21.72196c0,-11.99671 19.98097,-21.72196 44.62875,-21.72196c24.64778,0 44.62875,9.72525 44.62875,21.72196z" fill="url(#color-16)" stroke="url(#color-17)" stroke-width="0"/><path d="M112.34446,287.75754c0,4.58056 4.64921,11.02235 -4.76176,11.02235c-9.41097,0 -29.31838,-6.44179 -29.31838,-11.02235c0,-4.58056 7.6291,-8.29384 17.04007,-8.29384c9.41097,0 17.04007,3.71328 17.04007,8.29384z" fill="url(#color-18)" stroke="url(#color-19)" stroke-width="0"/><path d="M208.21893,328.80808c0,-1.69528 2.74859,-3.06958 6.13915,-3.06958c3.39056,0 6.13915,1.3743 6.13915,3.06958c0,1.69528 -2.74859,3.06958 -6.13915,3.06958c-3.39056,0 -6.13915,-1.3743 -6.13915,-3.06958z" fill="url(#color-20)" stroke="#e50000" stroke-width="0"/><path d="M145.71255,277.29441c0,-3.97804 8.57543,-12.74304 22.00132,-12.74304c13.42589,0 26.61813,8.76501 26.61813,12.74304c0,3.97804 -26.04908,16.4996 -34.5138,15.60624c-10.55474,-1.11394 -14.10565,-11.6282 -14.10565,-15.60624z" fill="url(#color-21)" stroke="#000000" stroke-width="0"/><path d="M153.42528,350.85325c-6.99753,1.39629 -18.34604,-1.52533 -25.34762,-6.52562c-7.00157,-5.00029 -5.40595,-9.65454 -5.40595,-9.65454c0,0 11.17953,4.12718 17.24855,5.52517c5.49205,1.26509 17.60789,2.50401 17.60789,2.50401c0,0 2.89465,6.75469 -4.10287,8.15098z" fill="#0800be" stroke="#000000" stroke-width="0"/><path d="M128.01386,295.51812c-0.29391,-1.66961 2.1748,-3.49962 5.51401,-4.08744c3.33921,-0.58782 6.28445,0.28914 6.57836,1.95875c0.29391,1.66961 -2.1748,3.49962 -5.51401,4.08744c-3.33921,0.58782 -6.28445,-0.28914 -6.57836,-1.95875z" fill="url(#color-22)" stroke="#e50000" stroke-width="0"/><path d="M100.91393,314.23684c0,-0.9414 1.51887,-1.70456 3.39248,-1.70456c1.87362,0 3.39248,0.76316 3.39248,1.70456c0,0.9414 -1.51887,1.70457 -3.39248,1.70457c-1.87362,0 -3.39248,-0.76316 -3.39248,-1.70457z" fill="url(#color-23)" stroke="#000000" stroke-width="0"/><path d="M357.90627,197.907c-1.54856,-4.00466 0.44249,-8.50644 4.44715,-10.05501c4.00466,-1.54856 8.50644,0.44249 10.05501,4.44715c1.54856,4.00466 6.40888,9.9121 2.40422,11.46066c-4.00466,1.54856 -15.35782,-1.84815 -16.90638,-5.85281z" fill="url(#color-24)" stroke="#000000" stroke-width="0"/><path d="M476.44211,149.21186c0,-5.63556 4.56853,-4.74556 10.20409,-4.74556c5.63556,0 10.20408,-0.88999 10.20408,4.74556c0,5.63556 -4.56852,10.20408 -10.20408,10.20408c-5.63556,0 -10.20409,-4.56852 -10.20409,-10.20408z" fill="url(#color-25)" stroke="#000000" stroke-width="0"/><path d="M126.63106,306.12433c2.80807,0.91279 8.15376,-2.58324 14.011,-4.13808c5.37533,-1.42691 13.15358,0.47248 15.38701,-1.5605c1.16133,-1.0571 -30.50696,5.3381 -29.39801,5.69858z" fill="#0900bf" stroke="#000000" stroke-width="0"/><path d="M417.20203,185.73731c0,-7.15215 5.79796,-12.95011 12.95011,-12.95011c7.15215,0 12.9501,5.79796 12.9501,12.95011c0,7.15215 -5.79796,12.95011 -12.9501,12.95011c-7.15215,0 -12.95011,-5.79796 -12.95011,-12.95011z" fill="url(#color-26)" stroke="none" stroke-width="0"/><path d="M432.34089,173.86707c0,-3.06667 2.48603,-5.5527 5.5527,-5.5527c3.06667,0 5.55271,2.48603 5.55271,5.5527c0,3.06667 -2.48603,5.55271 -5.55271,5.55271c-3.06667,0 -5.5527,-2.48604 -5.5527,-5.55271z" fill="url(#color-27)" stroke="none" stroke-width="0"/><path d="M437.40946,164.7493c0,-2.21157 1.86986,-4.00441 4.17645,-4.00441c2.30658,0 4.17644,1.79284 4.17644,4.00441c0,2.21157 -1.86987,4.0044 -4.17644,4.0044c-2.30658,0 -4.17645,-1.79283 -4.17645,-4.0044z" fill="url(#color-28)" stroke="none" stroke-width="0"/><path d="M448.40311,164.17397c0,-0.82391 0.69662,-1.49184 1.55593,-1.49184c0.85931,0 1.55593,0.66792 1.55593,1.49184c0,0.82391 -0.6966,1.49184 -1.55593,1.49184c-0.85931,0 -1.55593,-0.66792 -1.55593,-1.49184z" fill="url(#color-29)" stroke="none" stroke-width="0"/><path d="M445.23415,171.77953c0,-0.82391 0.6966,-1.49184 1.55592,-1.49184c0.85931,0 1.55593,0.66792 1.55593,1.49184c0,0.82391 -0.69662,1.49184 -1.55593,1.49184c-0.85931,0 -1.55592,-0.66792 -1.55592,-1.49184z" fill="url(#color-30)" stroke="none" stroke-width="0"/><path d="M120.93386,216.83406c0,-11.29563 21.97763,-20.45254 49.08841,-20.45254c27.11078,0 49.08842,9.15691 49.08842,20.45254c0,11.29563 -21.97764,20.45255 -49.08842,20.45255c-27.11078,0 -49.08841,-9.15692 -49.08841,-20.45255z" fill="url(#color-31)" stroke="#000000" stroke-width="0"/><path d="M85.71255,233.73802c0,-3.97804 8.57543,-12.74304 22.00132,-12.74304c13.42589,0 26.61813,8.76501 26.61813,12.74304c0,3.97804 -26.04908,16.4996 -34.5138,15.60624c-10.55474,-1.11394 -14.10565,-11.6282 -14.10565,-15.60624z" fill="url(#color-32)" stroke="#000000" stroke-width="0"/><path d="M206.11655,200.54649c0,-3.97804 8.57543,-12.74304 22.00132,-12.74304c13.42589,0 26.61813,8.76501 26.61813,12.74304c0,3.97804 -26.04908,16.4996 -34.5138,15.60624c-10.55474,-1.11394 -14.10565,-11.6282 -14.10565,-15.60624z" fill="url(#color-33)" stroke="#000000" stroke-width="0"/><g><g fill="none" stroke="none" stroke-width="1" font-family="sans-serif" font-weight="normal" font-size="12" text-anchor="start"/><path d="M81.33999,136.80274c0,11.13936 -25.82973,20.1696 -57.69231,20.1696c-31.86258,0 -57.69231,-9.03024 -57.69231,-20.1696c0,-11.13936 25.82973,-20.1696 57.69231,-20.1696c31.86258,0 57.69231,9.03024 57.69231,20.1696z" fill="url(#color-34)" stroke="url(#color-35)" stroke-width="0"/><path d="M23.91967,163.57689c0,5.12549 -8.66218,9.28051 -19.34752,9.28051c-10.68534,0 -19.34752,-4.15503 -19.34752,-9.28051c0,-5.12549 8.66218,-9.28051 19.34752,-9.28051c10.68534,0 19.34752,4.15503 19.34752,9.28051z" fill="url(#color-36)" stroke="url(#color-37)" stroke-width="0"/><path d="M228.41967,231.07689c0,5.12549 -8.66218,9.28051 -19.34752,9.28051c-10.68534,0 -19.34752,-4.15503 -19.34752,-9.28051c0,-5.12549 8.66218,-9.28051 19.34752,-9.28051c10.68534,0 19.34752,4.15503 19.34752,9.28051z" fill="url(#color-38)" stroke="url(#color-39)" stroke-width="0"/><path d="M161.91967,229.07689c0,5.12549 -8.66218,9.28051 -19.34752,9.28051c-10.68534,0 -19.34752,-4.15503 -19.34752,-9.28051c0,-5.12549 8.66218,-9.28051 19.34752,-9.28051c10.68534,0 19.34752,4.15503 19.34752,9.28051z" fill="url(#color-40)" stroke="url(#color-41)" stroke-width="0"/><path d="M22.78144,87.25319c0,11.13936 -25.82973,20.1696 -57.69231,20.1696c-31.86258,0 -57.69231,-9.03024 -57.69231,-20.1696c0,-11.13936 25.82973,-20.1696 57.69231,-20.1696c31.86258,0 57.69231,9.03024 57.69231,20.1696z" fill="url(#color-42)" stroke="url(#color-43)" stroke-width="0"/><path d="M53.93852,208.60504c0,4.30159 -9.19033,7.91963 -17.4682,8.97165c-0.79068,0.10048 2.62501,12.17265 2.52687,12.46586c-1.17518,3.51112 -4.58998,5.1498 -5.38466,5.1498c-0.64937,0 -4.38041,-1.58527 -5.01334,-5.53583c-0.10425,-0.6507 4.37618,-11.90806 3.81655,-11.9636c-8.79575,-0.87298 -17.17226,-4.6101 -17.17226,-9.08788c0,-5.12549 8.66218,-9.28051 19.34752,-9.28051c10.68534,0 19.34752,4.15503 19.34752,9.28051z" fill="url(#color-44)" stroke="url(#color-45)" stroke-width="0"/><path d="M45.88141,197.20999c0,-1.49289 2.1594,-2.70313 4.82315,-2.70313c2.66375,0 4.82315,1.21023 4.82315,2.70313c0,1.49289 -2.1594,2.70313 -4.82315,2.70313c-2.66375,0 -4.82315,-1.21023 -4.82315,-2.70313z" fill="url(#color-46)" stroke="url(#color-47)" stroke-width="0"/><path d="M19.08618,108.78555c0,-1.4929 2.1594,-2.70312 4.82316,-2.70312c2.66376,0 4.82315,1.21023 4.82315,2.70313c0,1.4929 -2.15939,2.70313 -4.82315,2.70313c-2.66376,0 -4.82315,-1.21023 -4.82315,-2.70312z" fill="url(#color-48)" stroke="url(#color-49)" stroke-width="0"/><path d="M87.14613,152.72982c0,-1.4929 2.1594,-2.70312 4.82315,-2.70312c2.66375,0 4.82315,1.21023 4.82315,2.70313c0,1.49289 -2.1594,2.70312 -4.82315,2.70312c-2.66375,0 -4.82315,-1.21023 -4.82315,-2.70312z" fill="url(#color-50)" stroke="url(#color-51)" stroke-width="0"/></g><path d="M164.71893,229.30808c0,-1.69528 2.74859,-3.06958 6.13915,-3.06958c3.39056,0 6.13915,1.3743 6.13915,3.06958c0,1.69528 -2.74859,3.06958 -6.13915,3.06958c-3.39056,0 -6.13915,-1.3743 -6.13915,-3.06958z" fill="url(#color-52)" stroke="#e50000" stroke-width="0"/></g></g></svg>