<svg version="1.1" xmlns="http://www.w3.org/2000/svg" xmlns:xlink="http://www.w3.org/1999/xlink" width="37.6" height="43.6" viewBox="0,0,37.6,43.6"><g transform="translate(-221.20002,-158.2)"><g data-paper-data="{&quot;isPaintingLayer&quot;:true}" fill-rule="nonzero" stroke="none" stroke-linecap="butt" stroke-linejoin="miter" stroke-miterlimit="10" stroke-dasharray="" stroke-dashoffset="0" style="mix-blend-mode: normal"><path d="M221.20003,201.8v-43.6h37.6v43.6z" fill="none" stroke-width="0"/><path d="M227.36211,191.83475v-23.66949c0,-1.01673 0.29146,-1.80978 0.87438,-2.37915c0.58294,-0.56937 1.32854,-0.85405 2.23682,-0.85405c0.43379,0 0.91504,0.13556 1.44374,0.40669c0.5287,0.27113 0.92184,0.5897 1.17942,0.95573l13.21748,17.60977h0.08123v-15.73899c0,-1.01673 0.29146,-1.80978 0.87438,-2.37915c0.58294,-0.56937 1.32854,-0.85405 2.23682,-0.85405c0.93539,0 1.68777,0.28468 2.25714,0.85405c0.58292,0.55581 0.87438,1.34886 0.87438,2.37915v23.66949c0,1.03029 -0.29146,1.83011 -0.87438,2.39948c-0.56937,0.55581 -1.32175,0.83371 -2.25714,0.83371c-0.37958,0 -0.83372,-0.12878 -1.36242,-0.38634c-0.51516,-0.27114 -0.9354,-0.59649 -1.26075,-0.97607l-13.19716,-17.40643h-0.08123v15.53564c0,1.03029 -0.29146,1.83011 -0.87438,2.39948c-0.56937,0.55581 -1.32175,0.83371 -2.25714,0.83371c-0.90828,0 -1.65388,-0.28468 -2.23682,-0.85405c-0.58292,-0.56937 -0.87438,-1.36242 -0.87438,-2.37915z" fill="#ff0000" stroke-width="0.40889"/></g></g></svg>