<svg version="1.1" xmlns="http://www.w3.org/2000/svg" xmlns:xlink="http://www.w3.org/1999/xlink" width="157.48527" height="159.18918" viewBox="0,0,157.48527,159.18918"><defs><linearGradient x1="189.14858" y1="221.92158" x2="212.66904" y2="184.42406" gradientUnits="userSpaceOnUse" id="color-1"><stop offset="0" stop-color="#dcd0e8"/><stop offset="1" stop-color="#ffffff"/></linearGradient><linearGradient x1="83.2713" y1="207.58986" x2="114.87729" y2="207.58986" gradientUnits="userSpaceOnUse" id="color-2"><stop offset="0" stop-color="#ffffff"/><stop offset="1" stop-color="#dcd0e8"/></linearGradient><linearGradient x1="94.8338" y1="152.77387" x2="174.19173" y2="232.13178" gradientUnits="userSpaceOnUse" id="color-3"><stop offset="0" stop-color="#f6f3f9"/><stop offset="1" stop-color="#e7def0"/></linearGradient><linearGradient x1="98.9407" y1="213.40272" x2="132.06308" y2="213.40272" gradientUnits="userSpaceOnUse" id="color-4"><stop offset="0" stop-color="#ffffff"/><stop offset="1" stop-color="#eae2f1"/></linearGradient><linearGradient x1="160.03872" y1="155.42755" x2="160.03872" y2="185.24996" gradientUnits="userSpaceOnUse" id="color-5"><stop offset="0" stop-color="#636363"/><stop offset="1" stop-color="#000000"/></linearGradient><linearGradient x1="134.33933" y1="212.3918" x2="185.38959" y2="212.3918" gradientUnits="userSpaceOnUse" id="color-6"><stop offset="0" stop-color="#ffffff"/><stop offset="1" stop-color="#dcd0e8"/></linearGradient><linearGradient x1="84.88122" y1="91.6879" x2="83.95033" y2="121.29728" gradientUnits="userSpaceOnUse" id="color-7"><stop offset="0" stop-color="#000000"/><stop offset="1" stop-color="#636363"/></linearGradient><linearGradient x1="77.5632" y1="107.77085" x2="120.37627" y2="153.3633" gradientUnits="userSpaceOnUse" id="color-8"><stop offset="0" stop-color="#ffffff"/><stop offset="1" stop-color="#e9e0f2"/></linearGradient><linearGradient x1="77.20959" y1="129.12735" x2="77.06758" y2="133.64403" gradientUnits="userSpaceOnUse" id="color-9"><stop offset="0" stop-color="#ffffff"/><stop offset="1" stop-color="#000000"/></linearGradient><linearGradient x1="102.32159" y1="113.66437" x2="101.73998" y2="132.16422" gradientUnits="userSpaceOnUse" id="color-10"><stop offset="0" stop-color="#000000"/><stop offset="1" stop-color="#636363"/></linearGradient><linearGradient x1="131.65361" y1="97.89815" x2="130.68746" y2="128.62901" gradientUnits="userSpaceOnUse" id="color-11"><stop offset="0" stop-color="#ffffff"/><stop offset="1" stop-color="#dcd0e8"/></linearGradient><linearGradient x1="137.85724" y1="103.50328" x2="137.47564" y2="115.64113" gradientUnits="userSpaceOnUse" id="color-12"><stop offset="0" stop-color="#000000"/><stop offset="1" stop-color="#000000" stop-opacity="0"/></linearGradient><linearGradient x1="134.82118" y1="115.55767" x2="134.66708" y2="120.4595" gradientUnits="userSpaceOnUse" id="color-13"><stop offset="0" stop-color="#000000"/><stop offset="1" stop-color="#000000" stop-opacity="0"/></linearGradient><linearGradient x1="143.0427" y1="116.04981" x2="142.78584" y2="124.21952" gradientUnits="userSpaceOnUse" id="color-14"><stop offset="0" stop-color="#000000"/><stop offset="1" stop-color="#000000" stop-opacity="0"/></linearGradient><linearGradient x1="145.76993" y1="109.59332" x2="145.57913" y2="115.66224" gradientUnits="userSpaceOnUse" id="color-15"><stop offset="0" stop-color="#000000"/><stop offset="1" stop-color="#000000" stop-opacity="0"/></linearGradient></defs><g transform="translate(-62.89356,-91.27512)"><g data-paper-data="{&quot;isPaintingLayer&quot;:true}" fill-rule="nonzero" stroke-linejoin="miter" stroke-miterlimit="10" stroke-dasharray="" stroke-dashoffset="0" style="mix-blend-mode: normal"><path d="M185.73026,210.45115l-21.05186,-18.39l27.24295,-1.48923l14.33955,-6.35198l14.11793,-7.72486l-6.46627,15.73127l-10.57321,12.51008z" fill="url(#color-1)" stroke="none" stroke-width="0" stroke-linecap="butt"/><path d="M88.57868,244.83161l-2.02185,-8.84563l4.80953,-7.04076l-4.42279,-56.61951l21.34823,-4.07197l6.5855,40.50962l-0.51993,33.03546l-12.89612,4.87449z" fill="url(#color-2)" stroke="none" stroke-width="0" stroke-linecap="butt"/><path d="M110.75593,221.2643l-23.51304,-49.03121l1.57561,-8.30078l8.54262,-13.68576l35.63525,-11.87841l11.89711,16.9514l11.9968,10.52087l13.92403,14.23116l-0.16082,55.59848l-35.29378,-0.11622z" fill="url(#color-3)" stroke="none" stroke-width="0" stroke-linecap="butt"/><path d="M101.59439,249.00167l-2.52733,-9.85656l5.82046,-5.52437l0.59021,-61.54635l11.33917,-16.76832l11.94621,36.70448l2.16268,27.99939l-4.31091,26.84352l-10.87427,3.61084z" fill="url(#color-4)" stroke="none" stroke-width="0" stroke-linecap="butt"/><path d="M147.40211,170.08601l-2.27459,-14.65847l14.40574,11.62568l15.41666,18.19672l-14.95683,-3.39921z" fill="url(#color-5)" stroke="none" stroke-width="0" stroke-linecap="butt"/><path d="M142.35048,245.60472l-4.64173,-5.6031l2.38721,-6.23217l14.5402,-5.23693l-16.42774,-7.32595l-3.86909,-13.39185l3.46595,-19.20559l15.92917,-11.01433l20.86944,7.71836l10.7857,19.24208l-0.51855,16.99706l-5.9752,7.80301l2.44261,6.9365l-22.54465,11.26608z" fill="url(#color-6)" stroke="none" stroke-width="0" stroke-linecap="butt"/><g><path d="M72.63681,120.94159l-8.8866,-11.11229l8.00126,-18.55418l20.42996,1.37677l13.0333,6.26165l-4.81189,19.60782z" fill="url(#color-7)" stroke="none" stroke-width="0" stroke-linecap="butt"/><path d="M68.613,154.89667l-5.71944,-14.09041l3.51299,-11.59879l10.34551,-2.4203l-1.03372,-13.5621l8.0198,-11.25268l21.61098,-7.81449l21.57528,6.79866l13.30407,16.51205l-7.75962,24.53933l-10.45423,8.03713l-17.21163,9.07369l-16.79506,0.83597z" fill="url(#color-8)" stroke="none" stroke-width="0" stroke-linecap="butt"/><path d="M84.56104,128.9817l1.96252,9.48076l-9.86898,2.32706l-8.95054,-2.91874l2.55418,-9.33877z" data-paper-data="{&quot;index&quot;:null}" fill="#000000" stroke="none" stroke-width="0" stroke-linecap="butt"/><path d="M70.85714,133.44877l0.89479,-4.49302l10.91533,0.34317l-0.89479,4.49302z" fill="url(#color-9)" stroke="none" stroke-width="0" stroke-linecap="butt"/><path d="M91.58411,123.29006l10.88984,-4.75674l9.9681,4.25348l-2.23975,2.68271l-9.40211,-1.76616z" data-paper-data="{&quot;index&quot;:null}" fill="url(#color-10)" stroke="none" stroke-width="0" stroke-linecap="butt"/><path d="M87.9421,123.13259l-4.87614,-1.73491l-3.6634,1.15452l-0.44936,-3.12183l6.17421,0.49713z" data-paper-data="{&quot;index&quot;:null}" fill="#000000" stroke="none" stroke-width="0" stroke-linecap="butt"/><path d="M76.82315,146.07035l-0.28096,-7.04174" fill="none" stroke="#000000" stroke-width="1.5" stroke-linecap="round"/><path d="M115.92966,124.66026l-3.32124,-21.13301l12.75176,-5.82696l19.90776,0.58105l6.75477,19.4895l-9.92388,11.21691z" data-paper-data="{&quot;index&quot;:null}" fill="url(#color-11)" stroke="none" stroke-width="0" stroke-linecap="butt"/><path d="M132.46821,110.10973l5.52177,-6.60228l4.88938,5.0604l-5.80189,7.06078z" data-paper-data="{&quot;index&quot;:null}" fill="url(#color-12)" stroke="none" stroke-width="0" stroke-linecap="butt"/><path d="M131.34897,120.35519l2.54313,-4.82671l4.09304,5.03535z" fill="url(#color-13)" stroke="none" stroke-width="0" stroke-linecap="butt"/><path d="M138.42064,123.61498l0.70704,-5.5854l4.52227,1.351l3.77264,-3.19309l-0.77184,5.60752l-3.20126,2.44536z" fill="url(#color-14)" stroke="none" stroke-width="0" stroke-linecap="butt"/><path d="M142.12829,115.55375l5.23429,-5.91036l1.71868,4.49341z" fill="url(#color-15)" stroke="none" stroke-width="0" stroke-linecap="butt"/></g></g></g></svg>