<svg version="1.1" xmlns="http://www.w3.org/2000/svg" xmlns:xlink="http://www.w3.org/1999/xlink" width="656.16087" height="568.8899" viewBox="0,0,656.16087,568.8899"><defs><radialGradient cx="456.18619" cy="284.83484" r="77.26776" gradientUnits="userSpaceOnUse" id="color-1"><stop offset="0" stop-color="#ffffff" stop-opacity="0.28548"/><stop offset="1" stop-color="#ffffff" stop-opacity="0"/></radialGradient><radialGradient cx="311.54655" cy="348.90391" r="77.26776" gradientUnits="userSpaceOnUse" id="color-2"><stop offset="0" stop-color="#ffffff" stop-opacity="0.28548"/><stop offset="1" stop-color="#ffffff" stop-opacity="0"/></radialGradient><radialGradient cx="169.90991" cy="355.91592" r="77.26776" gradientUnits="userSpaceOnUse" id="color-3"><stop offset="0" stop-color="#ffffff" stop-opacity="0.28548"/><stop offset="1" stop-color="#ffffff" stop-opacity="0"/></radialGradient><radialGradient cx="29.77478" cy="313.37838" r="77.26776" gradientUnits="userSpaceOnUse" id="color-4"><stop offset="0" stop-color="#ffffff" stop-opacity="0.28548"/><stop offset="1" stop-color="#ffffff" stop-opacity="0"/></radialGradient><radialGradient cx="8.25826" cy="173.24324" r="77.26776" gradientUnits="userSpaceOnUse" id="color-5"><stop offset="0" stop-color="#ffffff" stop-opacity="0.28548"/><stop offset="1" stop-color="#ffffff" stop-opacity="0"/></radialGradient><radialGradient cx="36.29129" cy="42.11712" r="77.26776" gradientUnits="userSpaceOnUse" id="color-6"><stop offset="0" stop-color="#ffffff" stop-opacity="0.28548"/><stop offset="1" stop-color="#ffffff" stop-opacity="0"/></radialGradient><radialGradient cx="196.45646" cy="-19.93994" r="77.26776" gradientUnits="userSpaceOnUse" id="color-7"><stop offset="0" stop-color="#ffffff" stop-opacity="0.28548"/><stop offset="1" stop-color="#ffffff" stop-opacity="0"/></radialGradient><radialGradient cx="350.61562" cy="-6.92192" r="77.26776" gradientUnits="userSpaceOnUse" id="color-8"><stop offset="0" stop-color="#ffffff" stop-opacity="0.28548"/><stop offset="1" stop-color="#ffffff" stop-opacity="0"/></radialGradient><radialGradient cx="465.73574" cy="112.70271" r="77.26776" gradientUnits="userSpaceOnUse" id="color-9"><stop offset="0" stop-color="#ffffff" stop-opacity="0.28548"/><stop offset="1" stop-color="#ffffff" stop-opacity="0"/></radialGradient><radialGradient cx="318.30699" cy="394.00283" r="77.67735" gradientUnits="userSpaceOnUse" id="color-10"><stop offset="0" stop-color="#ff0000" stop-opacity="0.8549"/><stop offset="1" stop-color="#ff0000" stop-opacity="0"/></radialGradient><radialGradient cx="469.13652" cy="322.00216" r="105.8739" gradientUnits="userSpaceOnUse" id="color-11"><stop offset="0" stop-color="#ff0000" stop-opacity="0.8549"/><stop offset="1" stop-color="#ff0000" stop-opacity="0"/></radialGradient><radialGradient cx="451.07928" cy="0.39613" r="83.72301" gradientUnits="userSpaceOnUse" id="color-12"><stop offset="0" stop-color="#ff0000" stop-opacity="0.8549"/><stop offset="1" stop-color="#ff0000" stop-opacity="0"/></radialGradient><radialGradient cx="23.78396" cy="339.90522" r="77.51363" gradientUnits="userSpaceOnUse" id="color-13"><stop offset="0" stop-color="#ff0000" stop-opacity="0.8549"/><stop offset="1" stop-color="#ff0000" stop-opacity="0"/></radialGradient><radialGradient cx="2.76182" cy="25.74059" r="77.26776" gradientUnits="userSpaceOnUse" id="color-14"><stop offset="0" stop-color="#ff0000"/><stop offset="1" stop-color="#ff0000" stop-opacity="0"/></radialGradient><radialGradient cx="24.16794" cy="25.27056" r="105.31564" gradientUnits="userSpaceOnUse" id="color-15"><stop offset="0" stop-color="#ff0000" stop-opacity="0.8549"/><stop offset="1" stop-color="#ff0000" stop-opacity="0"/></radialGradient><radialGradient cx="243.91604" cy="0.26527" r="69.73003" gradientUnits="userSpaceOnUse" id="color-16"><stop offset="0" stop-color="#ff0000" stop-opacity="0.8549"/><stop offset="1" stop-color="#ff0000" stop-opacity="0"/></radialGradient><radialGradient cx="4.01438" cy="204.89741" r="81.6271" gradientUnits="userSpaceOnUse" id="color-17"><stop offset="0" stop-color="#ff0000" stop-opacity="0.8549"/><stop offset="1" stop-color="#ff0000" stop-opacity="0"/></radialGradient><radialGradient cx="179.81363" cy="371.36821" r="77.51363" gradientUnits="userSpaceOnUse" id="color-18"><stop offset="0" stop-color="#ff0000" stop-opacity="0.8549"/><stop offset="1" stop-color="#ff0000" stop-opacity="0"/></radialGradient><radialGradient cx="458.30802" cy="357.00561" r="77.67735" gradientUnits="userSpaceOnUse" id="color-19"><stop offset="0" stop-color="#ff0000" stop-opacity="0.8549"/><stop offset="1" stop-color="#ff0000" stop-opacity="0"/></radialGradient><radialGradient cx="490.24053" cy="154.69389" r="72.44004" gradientUnits="userSpaceOnUse" id="color-20"><stop offset="0" stop-color="#ff0000" stop-opacity="0.8549"/><stop offset="1" stop-color="#ff0000" stop-opacity="0"/></radialGradient></defs><g transform="translate(81.14907,97.20871)"><g data-paper-data="{&quot;isPaintingLayer&quot;:true}" fill-rule="nonzero" stroke="none" stroke-width="0" stroke-linecap="butt" stroke-linejoin="miter" stroke-miterlimit="10" stroke-dasharray="" stroke-dashoffset="0" style="mix-blend-mode: normal"><g data-paper-data="{&quot;index&quot;:null}"><path d="M533.4015,281.98823c1.57214,42.64483 -31.72387,78.48978 -74.3687,80.06192c-42.64483,1.57214 -78.48978,-31.72387 -80.06192,-74.3687c-1.57214,-42.64483 31.72387,-78.48978 74.3687,-80.06192c42.64483,-1.57214 78.48978,31.72387 80.06192,74.3687z" data-paper-data="{&quot;index&quot;:null}" fill="url(#color-1)"/><path d="M388.76186,346.0573c1.57214,42.64483 -31.72387,78.48978 -74.3687,80.06192c-42.64483,1.57214 -78.48978,-31.72387 -80.06192,-74.3687c-1.57214,-42.64483 31.72387,-78.48978 74.3687,-80.06192c42.64483,-1.57214 78.48978,31.72387 80.06192,74.3687z" data-paper-data="{&quot;index&quot;:null}" fill="url(#color-2)"/><path d="M247.12522,353.06931c1.57214,42.64483 -31.72387,78.48978 -74.3687,80.06192c-42.64483,1.57214 -78.48978,-31.72387 -80.06192,-74.3687c-1.57214,-42.64483 31.72387,-78.48978 74.3687,-80.06192c42.64483,-1.57214 78.48978,31.72387 80.06192,74.3687z" data-paper-data="{&quot;index&quot;:null}" fill="url(#color-3)"/><path d="M106.99009,310.53177c1.57214,42.64483 -31.72387,78.48978 -74.3687,80.06192c-42.64483,1.57214 -78.48978,-31.72387 -80.06192,-74.3687c-1.57214,-42.64483 31.72387,-78.48978 74.3687,-80.06192c42.64483,-1.57214 78.48978,31.72387 80.06192,74.3687z" data-paper-data="{&quot;index&quot;:null}" fill="url(#color-4)"/><path d="M85.47357,170.39664c1.57214,42.64483 -31.72387,78.48978 -74.3687,80.06192c-42.64483,1.57214 -78.48978,-31.72387 -80.06192,-74.3687c-1.57214,-42.64483 31.72387,-78.48978 74.3687,-80.06192c42.64483,-1.57214 78.48978,31.72387 80.06192,74.3687z" data-paper-data="{&quot;index&quot;:null}" fill="url(#color-5)"/><path d="M113.5066,39.27051c1.57214,42.64483 -31.72387,78.48978 -74.3687,80.06192c-42.64483,1.57214 -78.48978,-31.72387 -80.06192,-74.3687c-1.57214,-42.64483 31.72387,-78.48978 74.3687,-80.06192c42.64483,-1.57214 78.48978,31.72387 80.06192,74.3687z" data-paper-data="{&quot;index&quot;:null}" fill="url(#color-6)"/><path d="M273.67177,-22.78655c1.57214,42.64483 -31.72387,78.48978 -74.3687,80.06192c-42.64483,1.57214 -78.48978,-31.72387 -80.06192,-74.3687c-1.57214,-42.64483 31.72387,-78.48978 74.3687,-80.06192c42.64483,-1.57214 78.48978,31.72387 80.06192,74.3687z" data-paper-data="{&quot;index&quot;:null}" fill="url(#color-7)"/><path d="M427.83093,-9.76853c1.57214,42.64483 -31.72387,78.48978 -74.3687,80.06192c-42.64483,1.57214 -78.48978,-31.72387 -80.06192,-74.3687c-1.57214,-42.64483 31.72387,-78.48978 74.3687,-80.06192c42.64483,-1.57214 78.48978,31.72387 80.06192,74.3687z" data-paper-data="{&quot;index&quot;:null}" fill="url(#color-8)"/><path d="M542.95105,109.8561c1.57214,42.64483 -31.72387,78.48978 -74.3687,80.06192c-42.64483,1.57214 -78.48978,-31.72387 -80.06192,-74.3687c-1.57214,-42.64483 31.72387,-78.48978 74.3687,-80.06192c42.64483,-1.57214 78.48978,31.72387 80.06192,74.3687z" data-paper-data="{&quot;index&quot;:null}" fill="url(#color-9)"/></g><path d="M240.68238,396.86453c-1.58047,-42.8709 31.89203,-78.90584 74.76292,-80.48632c42.8709,-1.58047 78.90584,31.89203 80.48632,74.76292c1.58047,42.8709 -31.89203,78.90584 -74.76292,80.48632c-42.8709,1.58047 -78.90584,-31.89203 -80.48632,-74.76292z" data-paper-data="{&quot;index&quot;:null}" fill="url(#color-10)"/><path d="M363.33448,325.90264c-2.15418,-58.43285 43.4687,-107.54833 101.90155,-109.70251c58.43286,-2.15418 107.54833,43.4687 109.70251,101.90155c2.15418,58.43285 -43.4687,107.54833 -101.90154,109.70251c-58.43285,2.15418 -107.54834,-43.46869 -109.70252,-101.90154z" data-paper-data="{&quot;index&quot;:null}" fill="url(#color-11)"/><path d="M367.4131,3.48055c-1.70348,-46.20755 34.3742,-85.04712 80.58175,-86.7506c46.20755,-1.70348 85.04712,34.3742 86.7506,80.58175c1.70348,46.20755 -34.3742,85.04712 -80.58175,86.7506c-46.20755,1.70348 -85.04712,-34.3742 -86.7506,-80.58175z" data-paper-data="{&quot;index&quot;:null}" fill="url(#color-12)"/><path d="M284.2524,401.81428l-3.20836,-87.02796l19.71367,86.41949z" data-paper-data="{&quot;index&quot;:null}" fill-opacity="0.57255" fill="#c80000"/><path d="M365.67969,-10.89516c-0.42771,-11.60171 8.63061,-21.35347 20.23232,-21.78118c11.60171,-0.42771 21.35347,8.63061 21.78118,20.23232c0.42771,11.60171 -8.63061,21.35347 -20.23232,21.78118c-11.60171,0.42771 -21.35348,-8.63062 -21.78118,-20.23232z" data-paper-data="{&quot;index&quot;:null}" fill-opacity="0.45882" fill="#ff0000"/><path d="M-5.95422,178.61549l42.56667,13.45596l-41.90287,4.54983z" data-paper-data="{&quot;index&quot;:null}" fill-opacity="0.57255" fill="#ff2929"/><path d="M472.1938,5.73734l-39.61399,20.58438l26.41259,-32.84701z" data-paper-data="{&quot;index&quot;:null}" fill-opacity="0.57255" fill="#ff2929"/><path d="M-53.67706,342.76089c-1.57714,-42.78054 31.82481,-78.73954 74.60534,-80.31668c42.78054,-1.57714 78.73954,31.82481 80.31668,74.60534c1.57714,42.78054 -31.82481,78.73954 -74.60534,80.31668c-42.78054,1.57714 -78.73954,-31.82481 -80.31668,-74.60534z" data-paper-data="{&quot;index&quot;:null}" fill="url(#color-13)"/><path d="M297.24777,48.99445l26.83988,-111.99117l16.02592,12.40326z" data-paper-data="{&quot;index&quot;:null}" fill-opacity="0.57255" fill="#ff3333"/><path d="M-74.45349,28.5872c-1.57214,-42.64483 31.72387,-78.48978 74.3687,-80.06192c42.64483,-1.57214 78.48978,31.72387 80.06192,74.3687c1.57214,42.64483 -31.72387,78.48978 -74.3687,80.06192c-42.64483,1.57214 -78.48978,-31.72387 -80.06192,-74.3687z" data-paper-data="{&quot;index&quot;:null}" fill="url(#color-14)"/><path d="M-81.07621,29.15047c-2.14282,-58.12473 43.23949,-106.98123 101.36423,-109.12405c58.12473,-2.14282 106.98124,43.23948 109.12406,101.36423c2.14282,58.12473 -43.23949,106.98123 -101.36422,109.12405c-58.12473,2.14282 -106.98123,-43.23948 -109.12405,-101.36422z" data-paper-data="{&quot;index&quot;:null}" fill="url(#color-15)"/><path d="M174.23333,2.83418c-1.41877,-38.48469 28.62908,-70.83283 67.11378,-72.25161c38.48469,-1.41877 70.83283,28.62908 72.25161,67.11378c1.41877,38.48469 -28.62908,70.83283 -67.11378,72.25161c-38.48469,1.41877 -70.83283,-28.62908 -72.25161,-67.11378z" data-paper-data="{&quot;index&quot;:null}" fill="url(#color-16)"/><path d="M-23.77024,3.99426c-1.07141,-29.06237 21.61976,-53.49062 50.68211,-54.56203c29.06237,-1.07141 53.49062,21.61976 54.56203,50.68211c1.07141,29.06237 -21.61975,53.49062 -50.6821,54.56203c-29.06237,1.07141 -53.49062,-21.61975 -54.56203,-50.6821z" data-paper-data="{&quot;index&quot;:null}" fill-opacity="0.45882" fill="#ff0000"/><path d="M-57.39554,138.86851c-0.70487,-19.11998 14.22351,-35.1912 33.34349,-35.89607c19.11998,-0.70487 35.1912,14.22351 35.89607,33.34349c0.70487,19.11998 -14.22351,35.1912 -33.34348,35.89607c-19.11998,0.70487 -35.1912,-14.22351 -35.89607,-33.34349z" data-paper-data="{&quot;index&quot;:null}" fill-opacity="0.45882" fill="#ff0000"/><path d="M95.03388,4.39499c-0.36653,-9.94239 7.39622,-18.29941 17.3386,-18.66594c9.9424,-0.36654 18.29941,7.39622 18.66594,17.33862c0.36654,9.9424 -7.39622,18.29941 -17.3386,18.66594c-9.94239,0.36653 -18.29941,-7.39622 -18.66594,-17.3386z" data-paper-data="{&quot;index&quot;:null}" fill-opacity="0.57255" fill="#ff0000"/><path d="M180.09325,5.16963c-0.60619,-16.44318 12.23221,-30.26442 28.6754,-30.87061c16.44318,-0.60619 30.26442,12.23222 30.87061,28.67541c0.60619,16.44318 -12.23223,30.26443 -28.6754,30.87062c-16.44318,0.60619 -30.26441,-12.23223 -30.8706,-28.6754z" data-paper-data="{&quot;index&quot;:null}" fill-opacity="0.45882" fill="#ff0000"/><path d="M61.74733,58.52371c-0.15507,-4.20639 3.12917,-7.74206 7.33556,-7.89713c4.20639,-0.15507 7.74206,3.12916 7.89713,7.33556c0.15507,4.20639 -3.12917,7.74206 -7.33556,7.89713c-4.20639,0.15507 -7.74206,-3.12916 -7.89713,-7.33556z" data-paper-data="{&quot;index&quot;:null}" fill-opacity="0.57255" fill="#ff0000"/><path d="M-77.55731,207.90462c-1.66084,-45.0508 33.51368,-82.91806 78.56448,-84.5789c45.05081,-1.66084 82.91806,33.51368 84.5789,78.56448c1.66084,45.0508 -33.51367,82.91806 -78.56448,84.5789c-45.0508,1.66084 -82.91806,-33.51367 -84.5789,-78.56448z" data-paper-data="{&quot;index&quot;:null}" fill="url(#color-17)"/><path d="M102.35262,374.22388c-1.57714,-42.78054 31.82481,-78.73954 74.60534,-80.31668c42.78054,-1.57714 78.73954,31.82481 80.31668,74.60534c1.57714,42.78054 -31.82481,78.73954 -74.60534,80.31668c-42.78054,1.57714 -78.73954,-31.82481 -80.31668,-74.60534z" data-paper-data="{&quot;index&quot;:null}" fill="url(#color-18)"/><path d="M-11.10703,351.92074c-0.70712,-19.18082 14.26878,-35.30318 33.4496,-36.0103c19.18082,-0.70712 35.30318,14.26878 36.0103,33.4496c0.70712,19.18082 -14.26877,35.30317 -33.44959,36.01029c-19.18082,0.70712 -35.30318,-14.26878 -36.0103,-33.44959z" data-paper-data="{&quot;index&quot;:null}" fill-opacity="0.45882" fill="#ff0000"/><path d="M81.41589,359.86106c-0.41013,-11.12488 8.27589,-20.47584 19.40076,-20.88597c11.12488,-0.41013 20.47584,8.27589 20.88597,19.40076c0.41013,11.12488 -8.27589,20.47584 -19.40075,20.88597c-11.12488,0.41013 -20.47584,-8.27589 -20.88597,-19.40076z" data-paper-data="{&quot;index&quot;:null}" fill-opacity="0.57255" fill="#ff0000"/><path d="M-25.39771,404.37404l147.03636,-111.12646l-122.46108,123.66393z" data-paper-data="{&quot;index&quot;:null}" fill-opacity="0.57255" fill="#c80000"/><path d="M151.36231,382.57237l12.45799,-39.40968l4.21238,38.79511z" data-paper-data="{&quot;index&quot;:null}" fill-opacity="0.57255" fill="#ff2929"/><path d="M149.99805,384.87771c-0.80611,-21.86613 16.26641,-40.24563 38.13254,-41.05174c21.86613,-0.80611 40.24562,16.26641 41.05173,38.13255c0.80611,21.86613 -16.26642,40.24562 -38.13254,41.05173c-21.86613,0.80611 -40.24562,-16.26642 -41.05173,-38.13254z" data-paper-data="{&quot;index&quot;:null}" fill-opacity="0.45882" fill="#ff0000"/><path d="M380.68339,359.86731c-1.58047,-42.8709 31.89203,-78.90584 74.76292,-80.48632c42.8709,-1.58047 78.90584,31.89203 80.48632,74.76292c1.58047,42.8709 -31.89203,78.90584 -74.76292,80.48632c-42.8709,1.58047 -78.90584,-31.89203 -80.48632,-74.76292z" data-paper-data="{&quot;index&quot;:null}" fill="url(#color-19)"/><path d="M417.84967,157.36264c-1.47391,-39.98037 29.74174,-73.5857 69.72211,-75.05962c39.98037,-1.47391 73.5857,29.74174 75.05962,69.72211c1.47391,39.98037 -29.74174,73.58569 -69.72211,75.05961c-39.98037,1.47391 -73.5857,-29.74174 -75.05962,-69.7221z" data-paper-data="{&quot;index&quot;:null}" fill="url(#color-20)"/><path d="M407.7967,331.53059c-1.07709,-29.21642 21.73436,-53.77418 50.95078,-54.85127c29.21642,-1.07709 53.77417,21.73436 54.85126,50.95078c1.07709,29.21642 -21.73436,53.77417 -50.95077,54.85126c-29.21642,1.07709 -53.77418,-21.73436 -54.85127,-50.95077z" data-paper-data="{&quot;index&quot;:null}" fill-opacity="0.45882" fill="#ff0000"/><path d="M449.46767,264.69826c-0.46768,-12.68608 9.43728,-23.34931 22.12336,-23.81699c12.68608,-0.46768 23.34931,9.43728 23.81699,22.12336c0.46768,12.68608 -9.43728,23.34931 -22.12336,23.81699c-12.68608,0.46768 -23.34931,-9.43728 -23.81699,-22.12336z" data-paper-data="{&quot;index&quot;:null}" fill-opacity="0.57255" fill="#ff0000"/><path d="M389.71343,308.01091c-0.31179,-8.45739 6.29152,-15.56621 14.74891,-15.878c8.45739,-0.31179 15.5662,6.29152 15.87799,14.74891c0.31179,8.45739 -6.29152,15.5662 -14.7489,15.87799c-8.45739,0.31179 -15.56621,-6.29151 -15.878,-14.7489z" data-paper-data="{&quot;index&quot;:null}" fill-opacity="0.57255" fill="#ff0000"/><path d="M396.65803,134.41264l130.85589,-42.91165l-7.84399,21.19954z" data-paper-data="{&quot;index&quot;:null}" fill-opacity="0.57255" fill="#c80000"/><path d="M396.07109,215.77094c-0.17007,-4.61313 3.43174,-8.49066 8.04486,-8.66073c4.61313,-0.17007 8.49066,3.43173 8.66073,8.04486c0.17007,4.61313 -3.43174,8.49066 -8.04486,8.66073c-4.61313,0.17007 -8.49066,-3.43173 -8.66073,-8.04486z" data-paper-data="{&quot;index&quot;:null}" fill-opacity="0.57255" fill="#ff0000"/></g></g></svg>