<svg version="1.1" xmlns="http://www.w3.org/2000/svg" xmlns:xlink="http://www.w3.org/1999/xlink" width="59" height="59" viewBox="0,0,59,59"><defs><radialGradient cx="240" cy="180" r="29.5" gradientUnits="userSpaceOnUse" id="color-1"><stop offset="0" stop-color="#ff0000"/><stop offset="1" stop-color="#ff0000" stop-opacity="0"/></radialGradient></defs><g transform="translate(-210.5,-150.5)"><g data-paper-data="{&quot;isPaintingLayer&quot;:true}" fill-rule="nonzero" stroke-linejoin="miter" stroke-miterlimit="10" stroke-dasharray="" stroke-dashoffset="0" style="mix-blend-mode: normal"><path d="M210.5,180c0,-16.2924 13.2076,-29.5 29.5,-29.5c16.2924,0 29.5,13.2076 29.5,29.5c0,16.2924 -13.2076,29.5 -29.5,29.5c-16.2924,0 -29.5,-13.2076 -29.5,-29.5z" fill="url(#color-1)" stroke="none" stroke-width="0" stroke-linecap="butt"/><path d="M228.24138,180c0,-6.49411 5.26451,-11.75862 11.75862,-11.75862c6.49411,0 11.75862,5.26451 11.75862,11.75862c0,6.49411 -5.26451,11.75862 -11.75862,11.75862c-6.49411,0 -11.75862,-5.26451 -11.75862,-11.75862z" fill="none" stroke="#ffffff" stroke-width="2" stroke-linecap="butt"/><path d="M218,180h44" fill="none" stroke="#ffffff" stroke-width="2" stroke-linecap="round"/><path d="M240,202v-44" fill="none" stroke="#ffffff" stroke-width="2" stroke-linecap="round"/></g></g></svg>