<svg version="1.1" xmlns="http://www.w3.org/2000/svg" xmlns:xlink="http://www.w3.org/1999/xlink" width="70.03354" height="155.33247" viewBox="0,0,70.03354,155.33247"><defs><radialGradient cx="269.28847" cy="170.4991" r="17.48859" gradientUnits="userSpaceOnUse" id="color-1"><stop offset="0" stop-color="#000000" stop-opacity="0.63137"/><stop offset="1" stop-color="#000000" stop-opacity="0"/></radialGradient><linearGradient x1="260.80332" y1="185.79138" x2="277.77358" y2="155.20681" gradientUnits="userSpaceOnUse" id="color-2"><stop offset="0" stop-color="#ff5454"/><stop offset="1" stop-color="#eb0000"/></linearGradient><linearGradient x1="271.27795" y1="183.35845" x2="252.30116" y2="172.82893" gradientUnits="userSpaceOnUse" id="color-3"><stop offset="0" stop-color="#eb0000"/><stop offset="1" stop-color="#ff5454"/></linearGradient><radialGradient cx="276.5386" cy="134.43818" r="20.90193" gradientUnits="userSpaceOnUse" id="color-4"><stop offset="0" stop-color="#000000" stop-opacity="0.63137"/><stop offset="1" stop-color="#000000" stop-opacity="0"/></radialGradient><linearGradient x1="266.39738" y1="152.71513" x2="286.6798" y2="116.16123" gradientUnits="userSpaceOnUse" id="color-5"><stop offset="0" stop-color="#ff5454"/><stop offset="1" stop-color="#eb0000"/></linearGradient><radialGradient cx="279.64556" cy="69.29708" r="35.01038" gradientUnits="userSpaceOnUse" id="color-6"><stop offset="0" stop-color="#000000" stop-opacity="0.63137"/><stop offset="1" stop-color="#000000" stop-opacity="0"/></radialGradient><linearGradient x1="262.65918" y1="99.91069" x2="296.63191" y2="38.68353" gradientUnits="userSpaceOnUse" id="color-7"><stop offset="0" stop-color="#ff5454"/><stop offset="1" stop-color="#eb0000"/></linearGradient><linearGradient x1="280.41932" y1="153.35365" x2="265.21325" y2="150.00075" gradientUnits="userSpaceOnUse" id="color-8"><stop offset="0" stop-color="#000000"/><stop offset="1" stop-color="#929292"/></linearGradient><linearGradient x1="280.41932" y1="153.35365" x2="265.21325" y2="150.00075" gradientUnits="userSpaceOnUse" id="color-9"><stop offset="0" stop-color="#929292" stop-opacity="0"/><stop offset="1" stop-color="#929292"/></linearGradient><linearGradient x1="292.19431" y1="108.23525" x2="269.79675" y2="74.86155" gradientUnits="userSpaceOnUse" id="color-10"><stop offset="0" stop-color="#ffffff"/><stop offset="1" stop-color="#9d9d9d"/></linearGradient><linearGradient x1="291.30779" y1="95.5259" x2="255.94325" y2="42.83059" gradientUnits="userSpaceOnUse" id="color-11"><stop offset="0" stop-color="#f20000"/><stop offset="1" stop-color="#ff7979"/></linearGradient><linearGradient x1="275.61829" y1="119.78914" x2="282.51831" y2="121.24217" gradientUnits="userSpaceOnUse" id="color-12"><stop offset="0" stop-color="#c6c6c6"/><stop offset="1" stop-color="#6b6b6b"/></linearGradient><linearGradient x1="272.23272" y1="128.08616" x2="282.81796" y2="122.46054" gradientUnits="userSpaceOnUse" id="color-13"><stop offset="0" stop-color="#ff5454"/><stop offset="1" stop-color="#ce0000"/></linearGradient><linearGradient x1="273.99976" y1="60.18764" x2="260.23999" y2="39.6848" gradientUnits="userSpaceOnUse" id="color-14"><stop offset="0" stop-color="#ffadad" stop-opacity="0"/><stop offset="1" stop-color="#ffadad"/></linearGradient><linearGradient x1="273.99976" y1="60.18764" x2="260.23999" y2="39.6848" gradientUnits="userSpaceOnUse" id="color-15"><stop offset="0" stop-color="#ab0000"/><stop offset="1" stop-color="#ff5454"/></linearGradient><linearGradient x1="274.47703" y1="65.77705" x2="260.71729" y2="45.2742" gradientUnits="userSpaceOnUse" id="color-16"><stop offset="0" stop-color="#ff6b6b" stop-opacity="0"/><stop offset="1" stop-color="#ff6b6b"/></linearGradient><linearGradient x1="274.47703" y1="65.77705" x2="260.71729" y2="45.2742" gradientUnits="userSpaceOnUse" id="color-17"><stop offset="0" stop-color="#ab0000"/><stop offset="1" stop-color="#ff5454"/></linearGradient><linearGradient x1="270.38073" y1="42.368" x2="266.55451" y2="49.79172" gradientUnits="userSpaceOnUse" id="color-18"><stop offset="0" stop-color="#ffffff" stop-opacity="0.5207"/><stop offset="1" stop-color="#ffffff" stop-opacity="0"/></linearGradient><linearGradient x1="276.94035" y1="50.44671" x2="259.99492" y2="41.71299" gradientUnits="userSpaceOnUse" id="color-19"><stop offset="0" stop-color="#ab0000"/><stop offset="1" stop-color="#ff5454"/></linearGradient><linearGradient x1="281.7116" y1="138.70025" x2="269.87883" y2="132.13467" gradientUnits="userSpaceOnUse" id="color-20"><stop offset="0" stop-color="#000000"/><stop offset="1" stop-color="#929292"/></linearGradient><linearGradient x1="285.93363" y1="117.72905" x2="274.10087" y2="111.16348" gradientUnits="userSpaceOnUse" id="color-21"><stop offset="0" stop-color="#000000"/><stop offset="1" stop-color="#929292"/></linearGradient><linearGradient x1="288.18904" y1="155.14861" x2="269.21225" y2="144.61909" gradientUnits="userSpaceOnUse" id="color-22"><stop offset="0" stop-color="#eb0000"/><stop offset="1" stop-color="#ff5454"/></linearGradient></defs><g transform="translate(-244.62878,-34.28032)"><g data-paper-data="{&quot;isPaintingLayer&quot;:true}" fill-rule="nonzero" stroke-linejoin="miter" stroke-miterlimit="10" stroke-dasharray="" stroke-dashoffset="0" style="mix-blend-mode: normal"><path d="M284.58074,178.98421c-4.6862,8.4457 -15.33172,11.49335 -23.77739,6.80714c-8.44569,-4.68619 -11.49335,-15.33172 -6.80714,-23.77739c4.6862,-8.4457 15.33173,-11.49335 23.77741,-6.80715c8.44569,4.68619 11.49335,15.33172 6.80714,23.77741z" fill="url(#color-1)" stroke="url(#color-2)" stroke-width="0" stroke-linecap="butt"/><path d="M271.27795,183.35845c-2.90764,5.24029 -9.51287,7.13129 -14.75315,4.22363c-5.24029,-2.90764 -7.13129,-9.51287 -4.22363,-14.75315c2.90764,-5.24029 9.51287,-7.13129 14.75315,-4.22363c5.24029,2.90764 7.13129,9.51287 4.22363,14.75315z" fill="url(#color-3)" stroke="#000000" stroke-width="0" stroke-linecap="butt"/><path d="M294.81551,144.57938c-5.60084,10.09409 -18.3241,13.73656 -28.41816,8.13573c-10.09407,-5.60084 -13.73656,-18.3241 -8.13573,-28.41816c5.60084,-10.09409 18.3241,-13.73656 28.41816,-8.13573c10.09407,5.60084 13.73656,18.3241 8.13573,28.41816z" fill="url(#color-4)" stroke="url(#color-5)" stroke-width="0" stroke-linecap="butt"/><path d="M310.2591,86.28344c-9.38131,16.90742 -30.69251,23.00852 -47.59991,13.62721c-16.90739,-9.3813 -23.00852,-30.69251 -13.62721,-47.59991c9.38131,-16.90742 30.69251,-23.00852 47.59991,-13.62721c16.90739,9.3813 23.00852,30.69251 13.62721,47.59991z" fill="url(#color-6)" stroke="url(#color-7)" stroke-width="0" stroke-linecap="butt"/><path d="M277.3228,145.07352l-3.54941,38.4207c0,0 -2.24869,7.51892 -9.46051,5.88665c-7.07395,-1.60106 -5.74556,-9.23956 -5.74556,-9.23956l11.99067,-36.36099z" fill="url(#color-8)" stroke="url(#color-9)" stroke-width="0" stroke-linecap="butt"/><path d="M278.85829,106.71166c0,0 -0.81167,-11.9488 -4.41119,-18.77771c-3.27715,-6.21731 -17.28551,-19.87853 -17.28551,-19.87853l19.87371,3.00062l16.51433,22.11612c0,0 -1.73748,3.81921 -2.96648,5.92692c-1.636,2.80566 -6.37553,8.83475 -6.37553,8.83475z" data-paper-data="{&quot;index&quot;:null}" fill="url(#color-10)" stroke="#ffffff" stroke-width="0" stroke-linecap="butt"/><path d="M255.94323,42.83057c-2.60883,-11.18818 25.18897,0.20454 34.95461,14.75595c9.76566,14.55141 4.6399,37.22672 0.40994,37.93935c-8.4103,1.41692 -12.00612,-13.17524 -26.92072,-22.37667c-2.75514,-1.69976 -10.18705,1.2139 -11.30308,-0.84604c-4.37328,-8.07207 7.21319,-10.80025 2.85925,-29.47259z" data-paper-data="{&quot;index&quot;:null}" fill="url(#color-11)" stroke="#ffffff" stroke-width="0" stroke-linecap="butt"/><path d="M270.7396,123.56579l7.83318,-17.80666l6.90002,1.45302l-0.32103,19.14904l-8.38496,21.05266l-6.75845,-1.50311z" fill="url(#color-12)" stroke="#ffffff" stroke-width="0" stroke-linecap="butt"/><path d="M270.06869,123.51344l15.65202,4.07765" fill="none" stroke="url(#color-13)" stroke-width="7.5" stroke-linecap="round"/><path d="M256.42155,42.46606c-2.56659,-7.13301 15.19231,-3.10154 18.99196,2.56015c3.79965,5.6617 8.57705,8.45645 4.16424,11.41795c-3.69005,2.47645 -11.7755,-6.81038 -16.89885,-9.69846c-1.00347,-0.56565 -2.92679,9.48004 -3.54911,8.55276c-3.79965,-5.6617 0.00524,-5.2909 -2.70829,-12.83239z" data-paper-data="{&quot;index&quot;:null}" fill="url(#color-14)" stroke="url(#color-15)" stroke-width="0" stroke-linecap="butt"/><path d="M259.5568,44.52237c0.23234,-2.5058 12.53432,0.43152 16.33397,6.09321c3.79965,5.6617 8.57705,8.45645 4.16424,11.41795c-3.69008,2.47646 -11.7755,-6.81038 -16.89885,-9.69846c-1.00346,-0.56565 -2.92678,9.48004 -3.5491,8.55276c-3.79965,-5.6617 -0.44912,-12.0642 -0.05029,-16.36544z" data-paper-data="{&quot;index&quot;:null}" fill="url(#color-16)" stroke="url(#color-17)" stroke-width="0" stroke-linecap="butt"/><path d="M257.22172,40.51298c0.48125,-0.93381 2.45026,-1.28964 4.89404,-1.17235c2.92107,0.14021 6.5205,0.95643 9.06835,2.26959c4.67935,2.41175 13.41033,9.01505 14.77618,10.87339c2.12443,2.89045 7.9512,12.06429 6.0604,11.39475c-4.77457,-1.69066 -13.27251,-2.76827 -16.62444,-4.49586c-3.58662,-1.84856 -14.61783,-4.97259 -18.09527,-9.86757c-1.05947,-1.49136 -0.32604,-8.52321 -0.0793,-9.00194z" data-paper-data="{&quot;index&quot;:null}" fill="url(#color-18)" stroke="url(#color-19)" stroke-width="0" stroke-linecap="butt"/><path d="M282.52104,137.24139l-13.63155,-3.32372" fill="none" stroke="url(#color-20)" stroke-width="3.5" stroke-linecap="round"/><path d="M273.11153,112.94651l13.63155,3.32372" fill="none" stroke="url(#color-21)" stroke-width="3.5" stroke-linecap="round"/><path d="M288.18904,155.14861c-2.90764,5.24029 -9.51287,7.13129 -14.75317,4.22363c-5.24029,-2.90764 -7.13129,-9.51287 -4.22365,-14.75319c2.90764,-5.24029 9.51287,-7.13129 14.75318,-4.22365c5.24029,2.90764 7.13129,9.51287 4.22363,14.75315z" fill="url(#color-22)" stroke="#000000" stroke-width="0" stroke-linecap="butt"/></g></g></svg>