<svg version="1.1" xmlns="http://www.w3.org/2000/svg" xmlns:xlink="http://www.w3.org/1999/xlink" width="197.07984" height="75.19791" viewBox="0,0,197.07984,75.19791"><defs><linearGradient x1="240" y1="142.40105" x2="240" y2="217.59896" gradientUnits="userSpaceOnUse" id="color-1"><stop offset="0" stop-color="#000000" stop-opacity="0.83137"/><stop offset="1" stop-color="#000000" stop-opacity="0.44314"/></linearGradient></defs><g transform="translate(-141.46008,-142.40105)"><g data-paper-data="{&quot;isPaintingLayer&quot;:true}" fill-rule="nonzero" stroke="none" stroke-linecap="butt" stroke-linejoin="miter" stroke-miterlimit="10" stroke-dasharray="" stroke-dashoffset="0" style="mix-blend-mode: normal"><path d="M141.46008,205.79959v-51.59291c0,0 0.42463,-4.8653 3.68178,-8.12385c3.25716,-3.25855 8.1188,-3.68178 8.1188,-3.68178h173.47867c0,0 4.50752,0.2138 7.77895,3.45521c3.27143,3.24142 4.02164,8.23712 4.02164,8.23712v51.84778c0,0 -0.58488,4.86616 -3.85171,8.03266c-3.26682,3.1665 -8.17544,3.62514 -8.17544,3.62514h-173.2521c0,0 -4.91882,-0.59542 -8.17545,-3.85171c-3.25663,-3.25629 -3.62514,-7.94766 -3.62514,-7.94766z" fill="url(#color-1)" stroke-width="0"/><text transform="translate(176.21412,162.20078) scale(0.44618,0.44618)" font-size="40" xml:space="preserve" fill="#ffffff" fill-rule="nonzero" stroke="none" stroke-width="1" stroke-linecap="butt" stroke-linejoin="miter" stroke-miterlimit="10" stroke-dasharray="" stroke-dashoffset="0" font-family="Sans Serif" font-weight="normal" text-anchor="start" style="mix-blend-mode: normal"><tspan x="0" dy="0">次のSplatmeet:</tspan></text><path d="M315.77777,204.6574c0,-5.573 4.51782,-10.09082 10.09082,-10.09082c5.573,0 10.09082,4.51782 10.09082,10.09082c0,5.573 -4.51782,10.09082 -10.09082,10.09082c-5.573,0 -10.09082,-4.51782 -10.09082,-10.09082z" fill="#ffffff" stroke-width="0"/><path d="M324.28272,206.89753v-2.11066c0,-0.33633 0.12012,-0.56284 0.36035,-0.67952c0.2471,-0.11669 0.69669,-0.26084 1.34876,-0.43243c0.53539,-0.15787 0.95065,-0.35692 1.2458,-0.59717c0.29515,-0.2471 0.44272,-0.64521 0.44272,-1.19432c0,-0.45988 -0.17503,-0.84083 -0.52509,-1.14284c-0.35006,-0.30887 -0.75846,-0.46331 -1.22521,-0.46331c-0.39125,0 -0.73101,0.09609 -1.01929,0.28828c-0.28828,0.19219 -0.58,0.45988 -0.87515,0.80308c-0.28828,0.33633 -0.53882,0.58686 -0.7516,0.75159c-0.20592,0.16474 -0.45645,0.24711 -0.7516,0.24711c-0.37751,0 -0.68639,-0.13727 -0.92663,-0.41183c-0.24023,-0.28143 -0.36035,-0.65208 -0.36035,-1.11197c0,-0.52165 0.14757,-1.00213 0.44272,-1.44142c0.29515,-0.43929 0.68296,-0.80994 1.16343,-1.11195c0.48047,-0.30887 0.99527,-0.53881 1.54438,-0.68982c0.54911,-0.15787 1.06048,-0.2368 1.53409,-0.2368c0.9129,0 1.7503,0.18189 2.51219,0.54567c0.76876,0.36379 1.37965,0.89232 1.83266,1.58557c0.45988,0.68639 0.68982,1.4826 0.68982,2.38864c0,1.11882 -0.3226,2.03515 -0.96781,2.749c-0.64521,0.71385 -1.53752,1.21492 -2.67693,1.5032v0.76189c0,0.42556 -0.14414,0.77563 -0.43242,1.05018c-0.28142,0.26768 -0.64177,0.40153 -1.08106,0.40153c-0.45988,0 -0.83053,-0.13384 -1.11196,-0.40153c-0.27456,-0.27456 -0.41184,-0.62462 -0.41184,-1.05018zM325.80652,212.88973c-0.45302,0 -0.84083,-0.1613 -1.16343,-0.48391c-0.3226,-0.3226 -0.48391,-0.71042 -0.48391,-1.16343c0,-0.45302 0.1613,-0.84083 0.48391,-1.16344c0.3226,-0.3226 0.71042,-0.4839 1.16343,-0.4839c0.45988,0 0.8477,0.1613 1.16343,0.4839c0.31574,0.3226 0.47361,0.71042 0.47361,1.16344c0,0.45301 -0.15787,0.84082 -0.47361,1.16343c-0.31574,0.3226 -0.70355,0.48391 -1.16343,0.48391z" fill="#4c4c4c" stroke-width="0.40889"/></g></g></svg>