<svg version="1.1" xmlns="http://www.w3.org/2000/svg" xmlns:xlink="http://www.w3.org/1999/xlink" width="37.6" height="43.6" viewBox="0,0,37.6,43.6"><g transform="translate(-221.20002,-158.2)"><g data-paper-data="{&quot;isPaintingLayer&quot;:true}" fill-rule="nonzero" stroke="none" stroke-linecap="butt" stroke-linejoin="miter" stroke-miterlimit="10" stroke-dasharray="" stroke-dashoffset="0" style="mix-blend-mode: normal"><path d="M221.20003,201.8v-43.6h37.6v43.6z" fill="none" stroke-width="0"/><path d="M229.44634,191.71275v-23.40514c0,-1.01673 0.27113,-1.80978 0.8134,-2.37915c0.55581,-0.58292 1.35563,-0.87439 2.39947,-0.87439h7.32046c3.32131,0 5.8767,0.77271 7.66614,2.31814c1.80301,1.53187 2.70451,3.89747 2.70451,7.09678c0,1.12518 -0.19657,2.14191 -0.58971,3.05019c-0.39314,0.90828 -0.94895,1.69455 -1.66743,2.35881c-0.70493,0.65071 -1.51832,1.17941 -2.44016,1.5861c-0.90828,0.39314 -1.91144,0.6846 -3.0095,0.87439l7.09678,7.56447c0.54225,0.59648 0.81337,1.2133 0.81337,1.85045c0,0.8405 -0.30501,1.5861 -0.91504,2.23681c-0.59648,0.63715 -1.32853,0.95572 -2.19616,0.95572c-1.00317,0 -1.80977,-0.35924 -2.41982,-1.07773l-9.25224,-11.20437h-0.08123v9.0489c0,1.03029 -0.29147,1.83011 -0.8744,2.39948c-0.56936,0.55581 -1.31495,0.83371 -2.23679,0.83371c-0.90828,0 -1.66066,-0.28468 -2.25714,-0.85405c-0.58294,-0.58293 -0.8744,-1.37598 -0.8744,-2.37915zM235.68909,170.78843v7.38146h4.29059c1.15229,0 2.08769,-0.33213 2.80619,-0.99639c0.71848,-0.66426 1.07772,-1.56577 1.07772,-2.7045c0,-1.17941 -0.35924,-2.08769 -1.07772,-2.72484c-0.70493,-0.63715 -1.64033,-0.95573 -2.80619,-0.95573z" fill="#ff0000" stroke-width="0.40889"/></g></g></svg>