<svg version="1.1" xmlns="http://www.w3.org/2000/svg" xmlns:xlink="http://www.w3.org/1999/xlink" width="37.6" height="43.6" viewBox="0,0,37.6,43.6"><g transform="translate(-221.20002,-158.2)"><g data-paper-data="{&quot;isPaintingLayer&quot;:true}" fill-rule="nonzero" stroke="none" stroke-linecap="butt" stroke-linejoin="miter" stroke-miterlimit="10" stroke-dasharray="" stroke-dashoffset="0" style="mix-blend-mode: normal"><path d="M221.20003,201.8v-43.6h37.6v43.6z" fill="none" stroke-width="0"/><path d="M231.54082,191.6924v-22.89677c0,-1.08451 0.27791,-1.9589 0.83372,-2.62317c0.55581,-0.66426 1.36242,-0.99639 2.41982,-0.99639h10.32998c0.94895,0 1.67422,0.28468 2.1758,0.85405c0.51514,0.55581 0.77271,1.22686 0.77271,2.01313c0,0.51514 -0.11523,0.98962 -0.34569,1.42342c-0.23046,0.42025 -0.56937,0.76594 -1.01673,1.03707c-0.4338,0.27113 -0.9625,0.40669 -1.5861,0.40669h-7.3408v6.08005h6.83243c0.97606,0 1.72844,0.27791 2.25714,0.83372c0.5287,0.55581 0.79305,1.24041 0.79305,2.0538c0,0.75916 -0.27113,1.4302 -0.81338,2.01313c-0.54226,0.56937 -1.28786,0.85405 -2.23681,0.85405h-6.83243v6.32406h7.70682c0.96251,0 1.69455,0.28468 2.19614,0.85405c0.51514,0.55581 0.77271,1.23363 0.77271,2.03346c0,0.44736 -0.11523,0.9015 -0.34569,1.36242c-0.23046,0.46092 -0.56937,0.82694 -1.01673,1.09807c-0.44736,0.27113 -0.98284,0.4067 -1.60644,0.4067h-10.73667c-0.92184,0 -1.68777,-0.28469 -2.29781,-0.85406c-0.61004,-0.58292 -0.91506,-1.34208 -0.91506,-2.27748z" fill="#ff0000" stroke-width="0.40889"/></g></g></svg>