<svg version="1.1" xmlns="http://www.w3.org/2000/svg" xmlns:xlink="http://www.w3.org/1999/xlink" width="85.31178" height="86.00478" viewBox="0,0,85.31178,86.00478"><defs><radialGradient cx="239.99994" cy="180.16668" r="32.79887" gradientUnits="userSpaceOnUse" id="color-1"><stop offset="0" stop-color="#000000"/><stop offset="1" stop-color="#000000" stop-opacity="0"/></radialGradient><linearGradient x1="247.60404" y1="152.22366" x2="246.11877" y2="160.21176" gradientUnits="userSpaceOnUse" id="color-2"><stop offset="0" stop-color="#eb0000"/><stop offset="1" stop-color="#ff5454"/></linearGradient><linearGradient x1="246.20485" y1="207.33681" x2="244.72656" y2="199.34743" gradientUnits="userSpaceOnUse" id="color-3"><stop offset="0" stop-color="#eb0000"/><stop offset="1" stop-color="#ff5454"/></linearGradient><linearGradient x1="216.06459" y1="180.15617" x2="263.93526" y2="180.17719" gradientUnits="userSpaceOnUse" id="color-4"><stop offset="0" stop-color="#eb0000"/><stop offset="1" stop-color="#ff5454"/></linearGradient></defs><g transform="translate(-197.34411,-136.99762)"><g data-paper-data="{&quot;isPaintingLayer&quot;:true}" fill-rule="nonzero" stroke-linejoin="miter" stroke-miterlimit="10" stroke-dasharray="" stroke-dashoffset="0" style="mix-blend-mode: normal"><path d="M207.20106,180.15227c0.00796,-18.11432 14.69897,-32.79241 32.81328,-32.78446c18.11432,0.00796 32.79242,14.69897 32.78446,32.81328c-0.00796,18.11432 -14.69897,32.79242 -32.81328,32.78446c-18.11432,-0.00796 -32.79242,-14.69897 -32.78446,-32.81328z" fill="url(#color-1)" stroke="#000000" stroke-width="0" stroke-linecap="butt"/><path d="M242.06855,155.32655c0.41016,-2.20585 2.88847,-3.59506 5.53551,-3.10288c2.64701,0.49218 4.46036,2.67938 4.0502,4.88522c-0.41016,2.20585 -2.88847,3.59505 -5.53549,3.10287c-2.64701,-0.49218 -4.46036,-2.67937 -4.05022,-4.88522z" data-paper-data="{&quot;index&quot;:null}" fill="url(#color-2)" stroke="none" stroke-width="0" stroke-linecap="butt"/><path d="M244.72656,199.34743c2.64745,-0.48986 5.12455,0.90151 5.53277,3.10773c0.40821,2.20622 -1.40704,4.39181 -4.0545,4.88167c-2.64745,0.48986 -5.12456,-0.90151 -5.53277,-3.10773c-0.40821,-2.20622 1.40705,-4.39181 4.0545,-4.88167z" fill="url(#color-3)" stroke="none" stroke-width="0" stroke-linecap="butt"/><path d="M282.61815,223.0024l-85.27404,-0.03745l0.03774,-85.96733l85.27404,0.03745z" fill="none" stroke="none" stroke-width="NaN" stroke-linecap="butt"/><path d="M216.06459,180.15617c0.00581,-13.21912 10.72674,-23.93063 23.94586,-23.92482c5.55635,0.00244 16.83835,4.76999 20.89898,7.94842c5.60002,4.38337 4.69588,8.33539 4.69252,15.99816c-0.00305,6.94885 -0.80886,10.26804 -5.54008,14.63855c-4.2692,3.94372 -13.80217,9.28829 -20.07243,9.28554c-13.21912,-0.00581 -23.93064,-10.72674 -23.92483,-23.94586z" fill="url(#color-4)" stroke="#000000" stroke-width="0" stroke-linecap="butt"/><path d="M246.15909,190.84198c0.00107,-2.44128 1.98098,-4.41946 4.42227,-4.41838c2.44128,0.00107 4.41947,1.98099 4.41839,4.42227c-0.00107,2.44128 -1.98099,4.41946 -4.42227,4.41838c-2.44128,-0.00107 -4.41946,-1.98099 -4.41838,-4.42227z" fill="#000000" stroke="#000000" stroke-width="0" stroke-linecap="butt"/><path d="M246.21769,169.49682c0.00107,-2.44128 1.98099,-4.41947 4.42227,-4.41839c2.44128,0.00107 4.41945,1.98099 4.41837,4.42227c-0.00107,2.44128 -1.98098,4.41946 -4.42227,4.41838c-2.44128,-0.00107 -4.41947,-1.98098 -4.41839,-4.42227z" fill="#000000" stroke="#000000" stroke-width="0" stroke-linecap="butt"/><path d="M257.80156,166.42101l-0.01061,24.13502" fill="none" stroke="#000000" stroke-width="2" stroke-linecap="round"/><path d="M244.63082,202.44209c-0.08043,-0.00181 -0.16729,-0.01285 -0.26104,-0.03506c-0.97307,-0.23052 -0.74255,-1.20359 -0.74255,-1.20359c1.62693,-6.82478 2.7636,-13.38425 2.86185,-20.43136c0.08499,-6.09581 -0.27658,-12.9976 -2.16554,-18.857c-0.69349,-2.15114 -1.36785,-3.76383 -1.46802,-6.08357c6.41078,-2.08651 13.18002,5.16113 13.27028,11.31178c0.02775,1.89063 -1.43375,4.13548 -2.02651,6.01549c-0.73671,1.83777 -0.92043,5.17522 -0.43148,7.11559c0.63324,2.51296 2.64348,4.61737 2.76348,7.31531c0.11857,2.66568 -1.09136,5.33314 -1.41563,7.95259c-0.14224,1.13551 -0.10841,2.54694 -0.60363,3.59856c-1.38125,2.93313 -6.05939,3.57884 -8.88342,3.54261l-0.23639,-0.0033c0,0 -0.37406,-0.00522 -0.66142,-0.23805z" fill="#000000" stroke="none" stroke-width="0.5" stroke-linecap="butt"/><path d="M244.2624,201.98418c-0.01666,0.68376 -0.73313,0.94111 -0.73313,0.94111c-2.84283,1.01648 -3.75754,2.12423 -4.86082,4.90914l-0.08395,0.07457l0.02989,0.01927l-0.64495,1.0006c-0.19411,0.31225 -0.54228,0.51805 -0.93671,0.51255c-0.50827,-0.00709 -0.92998,-0.36277 -1.04078,-0.83635l-0.35896,-1.39236l0.18032,-0.04649c-0.33524,-1.00776 -0.39209,-2.00845 -0.00015,-3.35793c0.01477,-0.05084 0.03872,-0.13402 0.07232,-0.23516c-0.86342,0.76921 -1.97477,1.65782 -2.12892,1.76754c-1.0381,0.73888 -4.07827,4.16045 -5.3859,3.84906c-3.24584,-0.77293 -0.67992,-4.23628 0.58053,-6.03903c-1.00893,0.29523 -2.37197,0.24954 -3.11475,0.2379c-4.55585,-0.0714 -8.71416,-2.34903 -12.43379,-4.79412l-0.06956,-0.15546l-0.04498,0.03748l-0.75261,-0.90323c-0.16241,-0.19255 -0.25884,-0.44225 -0.25506,-0.7139c0.00835,-0.59881 0.50055,-1.07747 1.09936,-1.06912c0.03463,0.00048 0.06885,0.00258 0.10261,0.00623l1.52357,0.14838l-0.01144,0.1175c1.43673,-0.1067 3.01133,-0.09621 3.78605,0.34025c0.34236,0.19288 -0.63343,-0.47028 -0.90993,-0.7495c-0.86054,-0.86903 -1.96494,-1.3839 -3.07839,-1.85681c-2.09895,-0.89147 -4.34329,-1.30565 -6.46203,-2.08647c-0.6393,-0.2356 -1.64009,-0.19181 -1.86579,-0.83466c-0.90391,-2.57459 2.88456,-3.91048 4.63554,-4.53201c-0.52106,-0.33237 -1.03956,-0.73599 -1.55674,-0.94526c-2.85343,-1.15457 -6.39081,-1.81412 -9.45261,-1.85306l-1.28165,-0.01787c-0.59881,-0.00835 -1.07747,-0.50055 -1.06912,-1.09936c0.00384,-0.27534 0.10997,-0.52527 0.28173,-0.71414l0.90793,-1.0089l0.18737,0.16861c1.96667,-2.46537 4.70315,-3.7812 7.86246,-4.9665c1.43961,-0.54011 2.84685,-1.07646 4.33039,-1.5055c0.12535,-0.03625 0.28791,-0.07928 0.46427,-0.11858c-0.15097,-0.09704 -0.28853,-0.19449 -0.39556,-0.27435c-0.7489,-0.55879 -4.31961,-2.97051 -4.53995,-3.72547c-0.64093,-2.19609 0.76748,-2.41908 2.09748,-3.15444c1.81269,-0.87321 3.64896,-1.53155 5.67498,-1.69813c0.55142,-0.04534 1.22492,0.7184 1.62534,0.33659c0.50101,-0.47771 -0.52015,-1.29214 -0.65237,-1.97165c-0.43878,-2.25502 -0.72524,-4.59898 -0.69535,-6.89453l0.01787,-1.28165c0.00835,-0.59881 0.50055,-1.07747 1.09936,-1.06912c0.51599,0.00719 0.94277,0.37366 1.04561,0.85802l0.35786,1.52126l-0.18289,0.04302c0.57063,0.99296 1.22933,1.9416 2.02736,2.35707c0.22591,0.11761 1.82907,0.6719 1.97797,0.7207c0.44736,0.14664 1.46429,0.96364 1.31413,0.51745c-0.90929,-2.70187 -0.36653,-5.4426 -0.01586,-8.22461l0.02942,-0.05318l-0.01746,-0.00414l0.26749,-1.12912c0.10641,-0.49475 0.54976,-0.86239 1.07518,-0.85506c0.35189,0.00491 0.66229,0.1769 0.85675,0.43943l0.87433,1.15707l-0.09013,0.0681c1.51653,1.3769 2.68429,2.43623 5.18416,3.36239c0.37399,0.13856 4.61469,0.91231 4.67949,0.62299c0.20975,-0.93649 -3.61979,-3.08866 -4.14879,-3.40651l-0.01111,-0.01331l-0.00287,0.00446l-1.0006,-0.64495c-0.31225,-0.19411 -0.51805,-0.54228 -0.51255,-0.93671c0.00759,-0.54422 0.41482,-0.9892 0.93852,-1.05954l1.52393,-0.2322l0.04274,0.28052c2.71077,-0.55716 5.07225,0.04987 8.03618,1.15989c0.87815,0.32888 2.0617,-0.03793 2.74826,0.60079c1.09415,1.0179 0.49523,3.22777 0.71143,4.51557c0.53463,3.18455 2.14129,6.16925 2.80736,9.34338c1.29084,5.97249 1.40149,11.73223 1.31661,17.81987c-0.04122,2.95676 0.29221,6.20835 -0.38954,9.08617c-0.04394,3.15161 -1.16085,6.89246 -3.01916,9.44316z" fill="#ffffff" stroke="none" stroke-width="0.5" stroke-linecap="butt"/></g></g></svg>