<svg version="1.1" xmlns="http://www.w3.org/2000/svg" xmlns:xlink="http://www.w3.org/1999/xlink" width="243.31917" height="248.45483" viewBox="0,0,243.31917,248.45483"><defs><linearGradient x1="465.44017" y1="177.21423" x2="348.05247" y2="187.49928" gradientUnits="userSpaceOnUse" id="color-1"><stop offset="0" stop-color="#ffffff" stop-opacity="0.81569"/><stop offset="1" stop-color="#ff0000" stop-opacity="0.28235"/></linearGradient><radialGradient cx="247.20666" cy="58.98464" r="26.05926" gradientUnits="userSpaceOnUse" id="color-2"><stop offset="0" stop-color="#000000" stop-opacity="0.30588"/><stop offset="1" stop-color="#000000" stop-opacity="0"/></radialGradient><linearGradient x1="249.8679" y1="84.90768" x2="244.54542" y2="33.06161" gradientUnits="userSpaceOnUse" id="color-3"><stop offset="0" stop-color="#ff5454"/><stop offset="1" stop-color="#eb0000"/></linearGradient><radialGradient cx="251.91134" cy="100.68474" r="26.05927" gradientUnits="userSpaceOnUse" id="color-4"><stop offset="0" stop-color="#000000" stop-opacity="0.30588"/><stop offset="1" stop-color="#000000" stop-opacity="0"/></radialGradient><linearGradient x1="254.57257" y1="126.60779" x2="249.2501" y2="74.76173" gradientUnits="userSpaceOnUse" id="color-5"><stop offset="0" stop-color="#ff5454"/><stop offset="1" stop-color="#eb0000"/></linearGradient><radialGradient cx="268.65419" cy="141.636" r="23.93565" gradientUnits="userSpaceOnUse" id="color-6"><stop offset="0" stop-color="#000000" stop-opacity="0.63137"/><stop offset="1" stop-color="#000000" stop-opacity="0"/></radialGradient><linearGradient x1="271.09855" y1="165.44653" x2="266.20982" y2="117.82546" gradientUnits="userSpaceOnUse" id="color-7"><stop offset="0" stop-color="#ff5454"/><stop offset="1" stop-color="#eb0000"/></linearGradient><linearGradient x1="278.77369" y1="153.83778" x2="257.18487" y2="156.05408" gradientUnits="userSpaceOnUse" id="color-8"><stop offset="0" stop-color="#eb0000"/><stop offset="1" stop-color="#ff5454"/></linearGradient><linearGradient x1="253.67335" y1="124.48135" x2="244.25244" y2="32.71247" gradientUnits="userSpaceOnUse" id="color-9"><stop offset="0" stop-color="#333333"/><stop offset="1" stop-color="#cacaca"/></linearGradient><linearGradient x1="231.60209" y1="29.71862" x2="241.84238" y2="129.4689" gradientUnits="userSpaceOnUse" id="color-10"><stop offset="0" stop-color="#ff4c4c"/><stop offset="1" stop-color="#ec0000"/></linearGradient><linearGradient x1="236.93834" y1="29.82663" x2="247.07178" y2="128.53601" gradientUnits="userSpaceOnUse" id="color-11"><stop offset="0" stop-color="#e8e8e8"/><stop offset="1" stop-color="#9e9e9e"/></linearGradient><linearGradient x1="262.69154" y1="70.32806" x2="264.35405" y2="86.52256" gradientUnits="userSpaceOnUse" id="color-12"><stop offset="0" stop-color="#929292"/><stop offset="1" stop-color="#000000"/></linearGradient><linearGradient x1="265.17321" y1="124.86645" x2="269.05918" y2="162.71934" gradientUnits="userSpaceOnUse" id="color-13"><stop offset="0" stop-color="#929292"/><stop offset="1" stop-color="#000000"/></linearGradient><linearGradient x1="275.7308" y1="128.27473" x2="254.14196" y2="130.49104" gradientUnits="userSpaceOnUse" id="color-14"><stop offset="0" stop-color="#eb0000"/><stop offset="1" stop-color="#ff5454"/></linearGradient><linearGradient x1="227.93166" y1="121.28061" x2="393.72074" y2="140.32605" gradientUnits="userSpaceOnUse" id="color-15"><stop offset="0" stop-color="#ff0000" stop-opacity="0.28235"/><stop offset="1" stop-color="#ffffff"/></linearGradient></defs><g transform="translate(-221.14533,-29.36278)"><g data-paper-data="{&quot;isPaintingLayer&quot;:true}" fill-rule="nonzero" stroke-linejoin="miter" stroke-miterlimit="10" stroke-dasharray="" stroke-dashoffset="0" style="mix-blend-mode: normal"><path d="M464.3883,184.33196c-2.07872,48.93722 -40.70859,100.0239 -66.22177,92.79919c-0.46693,-0.30119 11.24036,-16.89134 11.24036,-16.89134c0,0 -29.52643,21.31888 -36.85694,12.66492c-0.98878,-1.1673 20.62974,-20.52731 20.62974,-20.52731c0,0 -21.60489,12.65649 -23.40259,7.52448c-0.54682,-1.56106 2.13701,-9.64881 2.13701,-9.64881c0,0 -27.67565,10.69753 -20.13573,5.37597c6.51628,-4.59909 33.53627,-28.63168 36.0475,-53.71898c3.50105,-34.97569 -9.65618,-63.38582 -15.02169,-70.00035c-8.89099,-10.96073 12.79291,-1.69529 12.79291,-1.69529c0,0 -6.31157,-8.31645 -4.801,-11.5182c3.44472,-7.30129 25.36989,4.11249 25.36989,4.11249c0,0 -5.75825,-23.77316 0.80324,-37.06142c0,0 59.92054,39.69517 57.41907,98.58465z" data-paper-data="{&quot;index&quot;:null}" fill="url(#color-1)" stroke="none" stroke-width="0" stroke-linecap="butt"/><path d="M273.12965,56.3234c1.46975,14.31688 -8.94491,27.11448 -23.26179,28.58427c-14.31687,1.46976 -27.11448,-8.94491 -28.58426,-23.2618c-1.46976,-14.31687 8.94491,-27.11448 23.2618,-28.58426c14.31687,-1.46976 27.1145,8.94491 28.58427,23.26178z" fill="url(#color-2)" stroke="url(#color-3)" stroke-width="0" stroke-linecap="butt"/><path d="M277.83435,98.02352c1.46976,14.31687 -8.94491,27.11448 -23.26179,28.58427c-14.31687,1.46976 -27.11448,-8.94491 -28.58426,-23.2618c-1.46976,-14.31687 8.94491,-27.1145 23.26178,-28.58427c14.31687,-1.46976 27.1145,8.94491 28.58427,23.26179z" fill="url(#color-4)" stroke="url(#color-5)" stroke-width="0" stroke-linecap="butt"/><path d="M292.46468,139.19161c1.35,13.15018 -8.21598,24.9049 -21.36615,26.25488c-13.15017,1.34998 -24.90492,-8.21596 -26.25489,-21.36613c-1.35,-13.15018 8.21598,-24.9049 21.36615,-26.25488c13.15017,-1.34998 24.90492,8.21596 26.25489,21.36613z" fill="url(#color-6)" stroke="url(#color-7)" stroke-width="0" stroke-linecap="butt"/><path d="M278.77369,153.83778c0.61202,5.96159 -3.72468,11.29054 -9.68628,11.90256c-5.96159,0.61202 -11.29054,-3.72468 -11.90256,-9.68628c-0.61202,-5.96159 3.72468,-11.29054 9.68628,-11.90256c5.96159,-0.61202 11.29054,3.72468 11.90256,9.68628z" fill="url(#color-8)" stroke="#000000" stroke-width="0" stroke-linecap="butt"/><g><path d="M239.11132,33.24025l8.46328,1.46904l9.12381,86.34431l-8.16617,3.95551z" data-paper-data="{&quot;index&quot;:null}" fill="url(#color-9)" stroke="none" stroke-width="0" stroke-linecap="butt"/><path d="M245.30848,129.11308l-3.91399,0.4018l-3.31268,-2.55819l-9.65142,-94.01422l2.7238,-3.17789l3.91399,-0.4018z" data-paper-data="{&quot;index&quot;:null}" fill="url(#color-10)" stroke="none" stroke-width="0" stroke-linecap="butt"/><path d="M248.99969,128.33811l-3.85582,0.39583l-10.13342,-98.70938l3.85582,-0.39583z" data-paper-data="{&quot;index&quot;:null}" fill="url(#color-11)" stroke="none" stroke-width="0" stroke-linecap="butt"/><path d="M248.076,39.59336c0,0 9.11375,12.86596 11.80198,39.05197c2.49913,24.34405 -3.91163,37.80771 -3.91163,37.80771" data-paper-data="{&quot;index&quot;:null}" fill="none" stroke-opacity="0.53333" stroke="#000000" stroke-width="2" stroke-linecap="round"/><path d="M259.92584,96.82393l-8.01657,-17.36055l4.63192,-18.13951" data-paper-data="{&quot;index&quot;:null}" fill="none" stroke-opacity="0.53333" stroke="#000000" stroke-width="2" stroke-linecap="round"/><path d="M230.96766,36.69784l4.51503,43.98083" data-paper-data="{&quot;index&quot;:null}" fill="none" stroke-opacity="0.34902" stroke="#ffffff" stroke-width="4.5" stroke-linecap="round"/><path d="M233.02513,66.2722l-2.71307,-26.42793" data-paper-data="{&quot;index&quot;:null}" fill="none" stroke-opacity="0.34902" stroke="#ffffff" stroke-width="2.5" stroke-linecap="round"/><path d="M259.09277,70.69751l5.45778,2.5569l1.05557,10.28223l-4.85082,3.35539z" fill="url(#color-12)" stroke="none" stroke-width="0" stroke-linecap="butt"/><path d="M265.1047,78.65257c0,0 3.89301,3.44916 4.64981,13.81862c0.82022,11.23832 -6.12982,14.60606 -6.12982,14.60606l-7.58207,9.6606l8.45555,-1.12802l5.212,50.9135c0,0 -7.25789,0.59284 -12.69663,-13.36655c-5.43874,-13.9594 -4.58652,-30.99342 -4.58652,-30.99342" fill="none" stroke-opacity="0.51765" stroke="#000000" stroke-width="2" stroke-linecap="round"/><path d="M261.03722,125.06336l6.96364,-0.48719l7.48472,37.48345c0,0 -4.15282,4.12486 -6.08558,4.3602c-2.46774,0.30048 -7.51199,-2.70452 -7.51199,-2.70452z" fill="url(#color-13)" stroke="none" stroke-width="0" stroke-linecap="butt"/></g><path d="M275.7308,128.27473c0.61203,5.96159 -3.72469,11.29055 -9.68627,11.90258c-5.96159,0.61202 -11.29055,-3.72469 -11.90257,-9.68628c-0.61203,-5.96159 3.72468,-11.29054 9.68629,-11.90256c5.96159,-0.61203 11.29054,3.72468 11.90256,9.68628z" fill="url(#color-14)" stroke="#000000" stroke-width="0" stroke-linecap="butt"/><path d="M236.94446,42.82491c0,0 74.29868,-12.95471 117.94817,27.23393c47.8109,44.02008 36.22728,106.24519 31.32821,119.96087c-4.01056,11.22819 -10.90061,27.02247 -21.80667,32.89431c-1.60478,0.86401 0.90208,-21.20342 0.61897,-29.51142c-0.34705,-10.18461 -2.53864,-17.90511 -2.53864,-17.90511c0,0 -3.41756,8.45649 -5.96883,11.46583c-2.18678,2.57941 -8.41453,5.5001 -8.41453,5.5001l-3.23493,-18.92662l-4.58161,6.79839c0,0 -1.52908,-20.2361 -22.87807,-37.7011c-21.34898,-17.46502 -44.6878,-13.78143 -51.93138,-16.7552c-8.54649,-3.50867 22.63194,-5.69336 22.63194,-5.69336c0,0 -2.17432,-4.03811 -11.63687,-10.16504c-8.84792,-5.72898 -15.84358,-8.38003 -15.84358,-8.38003l25.3992,-10.11298c0,0 -19.47366,-9.45531 -32.92765,-20.33302c-5.5147,-4.4587 8.38763,-18.89122 8.38763,-18.89122l-24.55137,-9.47833z" data-paper-data="{&quot;index&quot;:null}" fill="url(#color-15)" stroke="none" stroke-width="0" stroke-linecap="butt"/></g></g></svg>