<svg version="1.1" xmlns="http://www.w3.org/2000/svg" xmlns:xlink="http://www.w3.org/1999/xlink" width="85.96734" height="85.27405" viewBox="0,0,85.96734,85.27405"><defs><radialGradient cx="240.00002" cy="179.79993" r="34.87869" gradientUnits="userSpaceOnUse" id="color-1"><stop offset="0" stop-color="#000000" stop-opacity="0.77647"/><stop offset="1" stop-color="#000000" stop-opacity="0"/></radialGradient><linearGradient x1="212.3281" y1="180" x2="267.14415" y2="180" gradientUnits="userSpaceOnUse" id="color-2"><stop offset="0" stop-color="#ffffff"/><stop offset="1" stop-color="#ff7878"/></linearGradient><radialGradient cx="263.74679" cy="180.35837" r="9.6271" gradientUnits="userSpaceOnUse" id="color-3"><stop offset="0" stop-color="#ff0000"/><stop offset="1" stop-color="#ff0000" stop-opacity="0"/></radialGradient><linearGradient x1="259.7131" y1="180.82826" x2="250.38066" y2="180.82826" gradientUnits="userSpaceOnUse" id="color-4"><stop offset="0" stop-color="#4a4a4a"/><stop offset="1" stop-color="#808080"/></linearGradient><linearGradient x1="245.96293" y1="166.95861" x2="256.67403" y2="166.95861" gradientUnits="userSpaceOnUse" id="color-5"><stop offset="0" stop-color="#272727"/><stop offset="1" stop-color="#5a5a5a"/></linearGradient><linearGradient x1="245.96293" y1="193.95602" x2="256.67403" y2="193.95602" gradientUnits="userSpaceOnUse" id="color-6"><stop offset="0" stop-color="#272727"/><stop offset="1" stop-color="#5a5a5a"/></linearGradient></defs><g transform="translate(-197.01633,-137.36298)"><g data-paper-data="{&quot;isPaintingLayer&quot;:true}" fill-rule="nonzero" stroke-linejoin="miter" stroke-miterlimit="10" stroke-dasharray="" stroke-dashoffset="0" style="mix-blend-mode: normal"><path d="M205.12131,179.79993c0,-19.26298 15.61572,-34.87869 34.87869,-34.87869c19.26298,0 34.87869,15.61572 34.87869,34.87869c0,19.26298 -15.61572,34.87869 -34.87869,34.87869c-19.26298,0 -34.87869,-15.61572 -34.87869,-34.87869z" fill="url(#color-1)" stroke="#000000" stroke-width="0" stroke-linecap="butt"/><path d="M216.46694,180.42044c0,4.86958 -1.81871,8.81716 -4.06219,8.81716c-2.24349,0 -4.06219,-3.94758 -4.06219,-8.81716c0,-4.86958 1.81871,-8.81716 4.06219,-8.81716c2.24349,0 4.06219,3.94758 4.06219,8.81716z" fill="#000000" stroke="#ffffff" stroke-width="2" stroke-linecap="butt"/><path d="M253.65808,157.28465c0,2.35743 -6.25975,4.2685 -13.98155,4.2685c-7.72178,0 -13.98155,-1.91107 -13.98155,-4.2685c0,-2.35743 6.25975,-4.26851 13.98155,-4.26851c7.72178,0 13.98155,1.91108 13.98155,4.26851z" data-paper-data="{&quot;index&quot;:null}" fill="#000000" stroke="#ffffff" stroke-width="2" stroke-linecap="butt"/><path d="M254.00151,202.7153c0,2.35743 -6.25975,4.2685 -13.98155,4.2685c-7.72178,0 -13.98155,-1.91107 -13.98155,-4.2685c0,-2.35743 6.25975,-4.26851 13.98155,-4.26851c7.72178,0 13.98155,1.91108 13.98155,4.26851z" data-paper-data="{&quot;index&quot;:null}" fill="#000000" stroke="#ffffff" stroke-width="2" stroke-linecap="butt"/><path d="M197.01633,222.63703v-85.27405h85.96734v85.27405z" fill="none" stroke="none" stroke-width="NaN" stroke-linecap="butt"/><path d="M212.3281,180c0,-5.30627 1.96069,-12.2487 5.32985,-16.72216c2.47552,-3.2869 6.63935,-4.99345 6.63935,-4.99345l29.89126,-0.24754c0,0 4.14857,1.53096 7.52922,5.47748c3.08345,3.59957 5.42637,9.26514 5.42637,16.48568c0,2.73155 -0.75264,9.1114 -3.24906,13.15815c-3.40152,5.51396 -8.83133,8.48126 -8.83133,8.48126l-30.1834,0.18929c0,0 -12.55227,-6.69169 -12.55227,-21.82872z" data-paper-data="{&quot;index&quot;:null}" fill="url(#color-2)" stroke="#000000" stroke-width="0" stroke-linecap="butt"/><path d="M213.65726,179.99998h52.31043" fill="none" stroke="#680000" stroke-width="2.5" stroke-linecap="round"/><path d="M263.24449,195.76972c0,0 -11.71183,0.45176 -11.75446,-15.5591c-0.04392,-16.4907 11.68805,-16.01139 11.68805,-16.01139" data-paper-data="{&quot;index&quot;:null}" fill="none" stroke="#ff0000" stroke-width="2" stroke-linecap="round"/><path d="M252.85134,171.56495h-38.83996" fill="none" stroke="#ff0000" stroke-width="2" stroke-linecap="round"/><path d="M214.40315,189.25615h38.98744" fill="none" stroke="#ff0000" stroke-width="2" stroke-linecap="round"/><path d="M261.8997,190.48901c-3.24594,0 -5.87729,-4.76265 -5.87729,-10.63768c0,-5.87503 2.63135,-10.63768 5.87729,-10.63768c3.24594,0 5.87729,4.76265 5.87729,10.63768c0,5.87503 -2.63135,10.63768 -5.87729,10.63768z" data-paper-data="{&quot;index&quot;:null}" fill="#000000" stroke="#000000" stroke-width="0" stroke-linecap="butt"/><path d="M254.11969,180.35837c0,-6.51873 4.31019,-11.8032 9.6271,-11.8032c5.31689,0 9.6271,5.28448 9.6271,11.8032c0,6.51873 -4.31019,11.8032 -9.6271,11.8032c-5.31689,0 -9.6271,-5.28448 -9.6271,-11.8032z" fill="url(#color-3)" stroke="none" stroke-width="0" stroke-linecap="butt"/><path d="M267.14415,180.39705c0,2.77751 -1.49538,5.02912 -3.34001,5.02912c-1.84464,0 -3.34,-2.25161 -3.34,-5.02912c0,-2.77751 1.49536,-5.0291 3.34,-5.0291c1.84464,0 3.34001,2.2516 3.34001,5.0291z" fill="#000000" stroke="#ff3b3b" stroke-width="2" stroke-linecap="butt"/><g data-paper-data="{&quot;index&quot;:null}" stroke-width="0" stroke-linecap="butt"><g><path d="M254.31778,195.04117l0.07157,-4.77076l1.71398,-3.92483l-0.07142,-11.93152l-1.71413,-4.10266v-3.69607h1.45819v3.55322l1.92838,4.1047l-0.21427,12.64369l-1.71413,3.21047v4.91375z" fill="#9c9c9c" stroke="url(#color-4)"/><path d="M255.83281,186.09561v-11.21511h2.14265v11.21511z" fill="#ce3d3d" stroke="none"/></g><g stroke="none"><path d="M247.59605,168.38359c0,0 -1.45871,-0.23668 -1.61849,-1.41457c-0.17215,-1.26918 1.23192,-1.43538 1.23192,-1.43538l8.44309,0.17629c0,0 0.95331,0.04797 1.01899,0.69744c0.05267,0.52083 -0.75275,0.82461 -0.75275,0.82461z" fill="url(#color-5)"/><path d="M246.76197,166.99218c0,-0.49435 0.59156,-0.8951 1.3213,-0.8951c0.72974,0 1.3213,0.40075 1.3213,0.8951c0,0.49435 -0.59156,0.8951 -1.3213,0.8951c-0.72974,0 -1.3213,-0.40075 -1.3213,-0.8951z" fill="#9c9c9c"/><path d="M254.33267,166.53254c0,-0.29393 0.35175,-0.53222 0.78564,-0.53222c0.4339,0 0.78564,0.23828 0.78564,0.53222c0,0.29393 -0.35175,0.53221 -0.78564,0.53221c-0.4339,0 -0.78564,-0.23828 -0.78564,-0.53221z" fill="#9c9c9c"/></g><g data-paper-data="{&quot;index&quot;:null}" stroke="none"><path d="M255.91881,193.68266c0,0 0.80542,0.30378 0.75275,0.82461c-0.06568,0.64947 -1.01899,0.69744 -1.01899,0.69744l-8.44309,0.17629c0,0 -1.40407,-0.1662 -1.23192,-1.43538c0.15977,-1.17789 1.61849,-1.41457 1.61849,-1.41457z" fill="url(#color-6)"/><path d="M248.08327,193.02737c0.72974,0 1.3213,0.40075 1.3213,0.8951c0,0.49435 -0.59156,0.8951 -1.3213,0.8951c-0.72974,0 -1.3213,-0.40075 -1.3213,-0.8951c0,-0.49435 0.59156,-0.8951 1.3213,-0.8951z" fill="#9c9c9c"/><path d="M255.1183,193.84989c0.4339,0 0.78564,0.23828 0.78564,0.53221c0,0.29393 -0.35175,0.53222 -0.78564,0.53222c-0.4339,0 -0.78564,-0.23828 -0.78564,-0.53222c0,-0.29393 0.35175,-0.53221 0.78564,-0.53221z" fill="#9c9c9c"/></g></g></g></g></svg>