<svg version="1.1" xmlns="http://www.w3.org/2000/svg" xmlns:xlink="http://www.w3.org/1999/xlink" width="82.10259" height="79.49276" viewBox="0,0,82.10259,79.49276"><defs><radialGradient cx="240.00003" cy="180" r="32.79887" gradientUnits="userSpaceOnUse" id="color-1"><stop offset="0" stop-color="#000000"/><stop offset="1" stop-color="#000000" stop-opacity="0"/></radialGradient><linearGradient x1="204.54944" y1="179.70241" x2="262.34661" y2="179.70241" gradientUnits="userSpaceOnUse" id="color-2"><stop offset="0" stop-color="#eb0000"/><stop offset="1" stop-color="#ff7979"/></linearGradient><linearGradient x1="224.20177" y1="179.68388" x2="262.37164" y2="179.68388" gradientUnits="userSpaceOnUse" id="color-3"><stop offset="0" stop-color="#ff3939"/><stop offset="1" stop-color="#ffffff"/></linearGradient></defs><g transform="translate(-197.96694,-140.25362)"><g data-paper-data="{&quot;isPaintingLayer&quot;:true}" fill-rule="nonzero" stroke-linejoin="miter" stroke-miterlimit="10" stroke-dasharray="" stroke-dashoffset="0" style="mix-blend-mode: normal"><path d="M199.93048,219.74638v-79.49276h80.13905v79.49276z" fill="none" stroke="none" stroke-width="NaN" stroke-linecap="butt"/><path d="M207.20115,180c0,-18.11432 14.68456,-32.79887 32.79887,-32.79887c18.11432,0 32.79887,14.68456 32.79887,32.79887c0,18.11432 -14.68456,32.79887 -32.79887,32.79887c-18.11432,0 -32.79887,-14.68456 -32.79887,-32.79887z" fill="url(#color-1)" stroke="#000000" stroke-width="0" stroke-linecap="butt"/><path d="M249.56454,205.21251c-11.13228,4.98539 -44.88709,-9.95516 -44.88709,-9.95516c0,0 20.51786,5.77977 20.60516,-2.14237c0.03462,-3.14271 -10.93343,-5.19454 -10.93343,-5.19454c0,0 4.81508,-1.16512 4.71284,-5.39267c-0.09073,-3.75196 -21.09508,-6.93525 -21.09508,-6.93525c0,0 23.64057,-1.30165 23.62924,-7.69379c-0.0089,-5.02058 -15.10165,-4.00013 -15.10165,-4.00013c0,0 31.04261,-14.31138 43.34788,-8.95965c12.30528,5.35174 12.5042,15.94991 12.5042,24.39015c0,8.56468 -1.64978,20.89803 -12.78207,25.88342z" fill="url(#color-2)" stroke="#000000" stroke-width="0" stroke-linecap="butt"/><path d="M253.93023,198.97442c-7.35188,3.76991 -27.34284,-7.15161 -27.34284,-7.15161c0,0 11.24914,3.99421 11.30678,-1.99644c0.02286,-2.37649 -7.22055,-3.92807 -7.22055,-3.92807c0,0 3.17993,-0.88106 3.1124,-4.0779c-0.05992,-2.83721 -13.56439,-5.80899 -13.56439,-5.80899c0,0 15.24546,-0.41969 15.23798,-5.25338c-0.00588,-3.79653 -10.52381,-4.34227 -10.52381,-4.34227c0,0 21.05139,-9.50475 29.17792,-5.45781c8.12653,4.04694 8.2579,12.06119 8.2579,18.44363c0,6.47654 -1.08954,15.80292 -8.44141,19.57283z" fill="url(#color-3)" stroke="#000000" stroke-width="0" stroke-linecap="butt"/><path d="M246.16387,190.67259c0,-2.44128 1.97905,-4.42033 4.42033,-4.42033c2.44128,0 4.42033,1.97905 4.42033,4.42033c0,2.44128 -1.97905,4.42033 -4.42033,4.42033c-2.44128,0 -4.42033,-1.97905 -4.42033,-4.42033z" fill="#000000" stroke="#000000" stroke-width="0" stroke-linecap="butt"/><path d="M246.2131,169.32741c0,-2.44128 1.97905,-4.42033 4.42033,-4.42033c2.44128,0 4.42033,1.97905 4.42033,4.42033c0,2.44128 -1.97905,4.42033 -4.42033,4.42033c-2.44128,0 -4.42033,-1.97905 -4.42033,-4.42033z" fill="#000000" stroke="#000000" stroke-width="0" stroke-linecap="butt"/><path d="M257.23931,191.00073v-22.27848" fill="none" stroke="#000000" stroke-width="2" stroke-linecap="round"/></g></g></svg>