<svg version="1.1" xmlns="http://www.w3.org/2000/svg" xmlns:xlink="http://www.w3.org/1999/xlink" width="47.45227" height="43.6" viewBox="0,0,47.45227,43.6"><g transform="translate(-216.27386,-158.2)"><g data-paper-data="{&quot;isPaintingLayer&quot;:true}" fill-rule="nonzero" stroke="none" stroke-linecap="butt" stroke-linejoin="miter" stroke-miterlimit="10" stroke-dasharray="" stroke-dashoffset="0" style="mix-blend-mode: normal"><path d="M216.27386,201.8v-43.6h47.45227v43.6z" fill="none" stroke-width="0"/><path d="M248.2433,189.65894c1.28787,0 2.26394,-0.54904 2.9282,-1.64711c0.67781,-1.09806 1.11161,-2.36558 1.30141,-3.80255c0.20334,-1.43698 0.30501,-2.84007 0.30501,-4.20926c0,-2.53505 -0.29824,-4.77864 -0.89472,-6.73075c-0.58292,-1.95213 -1.79622,-2.9282 -3.6399,-2.9282c-1.84366,0 -3.06374,0.98962 -3.66022,2.96886c-0.58294,1.97923 -0.8744,4.20926 -0.8744,6.69009c0,2.39947 0.29824,4.60917 0.89472,6.62908c0.59648,2.0199 1.80978,3.02985 3.6399,3.02985zM248.2433,195.33229c-2.62994,0 -4.77186,-0.75916 -6.42574,-2.27748c-1.65387,-1.53187 -2.84005,-3.46365 -3.55855,-5.79534c-0.70493,-2.33171 -1.0574,-4.75153 -1.0574,-7.25946c0,-2.50794 0.35247,-4.92776 1.0574,-7.25946c0.7185,-2.33171 1.90468,-4.25673 3.55855,-5.77505c1.65388,-1.53187 3.7958,-2.2978 6.42574,-2.2978c2.01991,0 3.74158,0.45414 5.165,1.36242c1.42342,0.90828 2.56215,2.10802 3.41621,3.59924c0.85406,1.4912 1.47088,3.1383 1.85045,4.94131c0.39314,1.78945 0.58971,3.59923 0.58971,5.42935c0,1.80299 -0.19657,3.59921 -0.58971,5.38866c-0.37958,1.78945 -0.99639,3.43655 -1.85045,4.94131c-0.85406,1.50476 -1.9928,2.71806 -3.41621,3.6399c-1.42342,0.90828 -3.14508,1.36242 -5.165,1.36242z" fill="#ff0000" stroke-width="0.40889"/><path d="M226.02234,191.71274v-20.92433h-2.46051c-0.93539,0 -1.64031,-0.27791 -2.11478,-0.83372c-0.47448,-0.56937 -0.71172,-1.24719 -0.71172,-2.03345c0,-0.75915 0.2508,-1.42342 0.75239,-1.99279c0.51514,-0.58294 1.20651,-0.8744 2.07412,-0.8744h5.91738c0.86761,0 1.54542,0.27791 2.03345,0.83374c0.50159,0.54225 0.75239,1.24717 0.75239,2.11478v23.71017c0,1.03028 -0.29146,1.8301 -0.87438,2.39947c-0.56937,0.55581 -1.31498,0.83372 -2.23682,0.83372c-0.90828,0 -1.66066,-0.28469 -2.25714,-0.85406c-0.58292,-0.58292 -0.87438,-1.37596 -0.87438,-2.37913z" fill="#ff0000" stroke-width="0.40889"/></g></g></svg>