<svg version="1.1" xmlns="http://www.w3.org/2000/svg" xmlns:xlink="http://www.w3.org/1999/xlink" width="674.72647" height="390.0044" viewBox="0,0,674.72647,390.0044"><defs><radialGradient cx="343.24312" cy="296.97078" r="42.33817" gradientUnits="userSpaceOnUse" id="color-1"><stop offset="0" stop-color="#1128bd"/><stop offset="1" stop-color="#0e25de"/></radialGradient><radialGradient cx="322.0535" cy="335.39565" r="56.69007" gradientUnits="userSpaceOnUse" id="color-2"><stop offset="0" stop-color="#1128bd"/><stop offset="1" stop-color="#0e25de"/></radialGradient><radialGradient cx="-41.90228" cy="78.71425" r="0.62098" gradientUnits="userSpaceOnUse" id="color-3"><stop offset="0" stop-color="#daf010"/><stop offset="1" stop-color="#daf010" stop-opacity="0"/></radialGradient><linearGradient x1="247.4173" y1="152.53822" x2="247.4173" y2="437.55867" gradientUnits="userSpaceOnUse" id="color-4"><stop offset="0" stop-color="#a3a3a3"/><stop offset="1" stop-color="#1a1a1a"/></linearGradient><linearGradient x1="43.33092" y1="70.48251" x2="43.33092" y2="221.94664" gradientUnits="userSpaceOnUse" id="color-5"><stop offset="0" stop-color="#000000"/><stop offset="1" stop-color="#8a8a8a"/></linearGradient><linearGradient x1="96.47975" y1="61.36083" x2="96.47975" y2="203.82497" gradientUnits="userSpaceOnUse" id="color-6"><stop offset="0" stop-color="#000000"/><stop offset="1" stop-color="#8a8a8a"/></linearGradient><linearGradient x1="-8.40268" y1="77.53708" x2="-8.40268" y2="241.71146" gradientUnits="userSpaceOnUse" id="color-7"><stop offset="0" stop-color="#000000"/><stop offset="1" stop-color="#8a8a8a"/></linearGradient><linearGradient x1="148.10547" y1="50.52293" x2="148.10547" y2="182.69731" gradientUnits="userSpaceOnUse" id="color-8"><stop offset="0" stop-color="#000000"/><stop offset="1" stop-color="#8a8a8a"/></linearGradient><linearGradient x1="96.47975" y1="61.36083" x2="96.47975" y2="203.82497" gradientUnits="userSpaceOnUse" id="color-9"><stop offset="0" stop-color="#000000"/><stop offset="1" stop-color="#8a8a8a"/></linearGradient></defs><g transform="translate(140.11299,-47.55427)"><g data-paper-data="{&quot;isPaintingLayer&quot;:true}" fill-rule="nonzero" stroke-width="0" stroke-linecap="butt" stroke-linejoin="miter" stroke-miterlimit="10" stroke-dasharray="" stroke-dashoffset="0" style="mix-blend-mode: normal"><path d="M385.5813,296.97078c0,13.47612 -18.95545,24.40066 -42.33817,24.40066c-23.38273,0 -42.33817,-10.92455 -42.33817,-24.40066c0,-13.47612 18.95545,-24.40067 42.33817,-24.40067c23.38273,0 42.33817,10.92455 42.33817,24.40067z" fill="url(#color-1)" stroke="none"/><path d="M378.74358,335.39565c0,18.04428 -25.38101,32.67206 -56.69006,32.67206c-31.30906,0 -56.69006,-14.62777 -56.69006,-32.67205c0,-18.04428 25.38101,-32.67206 56.69007,-32.67206c31.30906,0 56.69007,14.62778 56.69007,32.67206z" fill="url(#color-2)" stroke="none"/><path d="M-140.11299,68.77862c0,-0.34296 0.27802,-0.62098 0.62098,-0.62098c0.34296,0 0.62098,0.27802 0.62098,0.62098c0,0.34296 -0.27802,0.62099 -0.62098,0.62099c-0.34296,0 -0.62098,-0.27802 -0.62098,-0.62099z" fill="url(#color-3)" stroke="none"/><path d="M-39.77889,437.55866v-234.37732c0,0 29.58548,-7.86468 71.44749,-17.3113c62.94324,-14.20384 153.64098,-31.98413 213.25528,-31.98413c30.39487,0 87.22853,-1.58771 129.94684,-1.31652c83.65364,0.53105 159.74276,7.59049 159.74276,7.59049l-4.08012,277.39879z" fill="url(#color-4)" stroke="none"/><g fill="#224fd5"><path d="M66.83333,219.83333c0,7.82403 -21.41571,14.16667 -47.83333,14.16667c-26.41762,0 -47.83333,-6.34263 -47.83333,-14.16667c0,-7.82403 21.41571,-14.16667 47.83333,-14.16667c26.41762,0 47.83333,6.34263 47.83333,14.16667z" stroke="#9d9d9d"/><path d="M84.16667,197.16667c0,4.14214 -14.25227,7.5 -31.83333,7.5c-17.58106,0 -31.83333,-3.35786 -31.83333,-7.5c0,-4.14214 14.25227,-7.5 31.83333,-7.5c17.58106,0 31.83333,3.35786 31.83333,7.5z" stroke="none"/><path d="M124.5,182.83333c0,5.06261 -31.48931,9.16667 -70.33333,9.16667c-38.84403,0 -70.33333,-4.10406 -70.33333,-9.16667c0,-5.06261 31.48931,-9.16667 70.33333,-9.16667c38.84403,0 70.33333,4.10406 70.33333,9.16667z" stroke="none"/><path d="M115.83333,140.07456c0,3.72308 -12.85001,6.74123 -28.7013,6.74123c-15.85129,0 -28.7013,-3.01815 -28.7013,-6.74123c0,-3.72308 12.85001,-6.74123 28.7013,-6.74123c15.85129,0 28.7013,3.01815 28.7013,6.74123z" stroke="none"/><path d="M62.37013,147.62939c0,1.86154 -7.43285,3.37061 -16.60173,3.37061c-9.16888,0 -16.60173,-1.50908 -16.60173,-3.37061c0,-1.86154 7.43285,-3.37061 16.60173,-3.37061c9.16888,0 16.60173,1.50908 16.60173,3.37061z" stroke="none"/></g><path d="M339.10105,355.80451c0,4.67967 -60.37005,-4.46405 -64.46499,-0.24967c-16.57093,17.05431 -63.91541,29.36404 -119.73446,29.36404c-35.22011,0 -76.26271,-2.92267 -99.13342,-10.82384c-22.33339,-7.71555 -26.91166,-20.27026 -26.91166,-31.93836c0,-23.6169 56.43231,-42.76221 126.04509,-42.76221c32.7299,0 73.54574,3.06867 95.95285,10.00808c8.18631,2.53528 35.0349,-8.07978 57.98147,-8.60477c22.94657,-0.52499 29.49854,-0.24217 39.50088,6.3745c1.38459,0.91592 24.31622,3.78012 24.31622,3.78012c0,0 16.57596,-5.66603 37.32984,-7.74179c28.46024,-2.84652 64.16318,-2.09748 70.1459,0.46247c0.02676,0.01145 10.2898,2.44755 14.30838,8.50896c7.94781,11.98807 11.77219,32.53752 5.809,37.21557c-17.06446,13.38687 -77.74859,-0.23834 -77.74859,1.8576z" fill="#224fd5" stroke="none"/><g stroke="none"><path d="M40.12298,70.3943c0,-3.29815 3.56651,-2.2178 3.56651,-2.2178c0,0 2.8119,-0.71351 2.8119,2.58464c0,3.29815 -1.42784,5.60498 -3.1892,5.60498c-1.76135,0 -3.18921,-2.67368 -3.18921,-5.97184z" fill="#404040"/><path d="M40.5476,220.25006l-0.46388,-149.76755c0,0 2.23791,1.22691 3.3891,1.38246c0.98885,0.13361 3.10528,-0.50496 3.10528,-0.50496l-0.23194,148.89005c0,0 -0.24193,0.09721 -1.29731,1.02226c-0.70976,0.62211 -2.10804,0.67433 -2.53438,0.67433c-0.79523,0 -1.96688,-1.69658 -1.96688,-1.69658z" fill="url(#color-5)"/><path d="M93.69645,202.2292l-0.46389,-140.86836c0,0 2.23791,1.15401 3.3891,1.30031c0.98885,0.12567 3.10528,-0.47496 3.10528,-0.47496l-0.23194,140.043c0,0 -0.24193,0.09145 -1.29731,0.96153c-0.70976,0.58514 -2.10804,0.63425 -2.53439,0.63425c-0.79523,0 -1.96687,-1.59577 -1.96687,-1.59577z" fill="url(#color-6)"/><path d="M-4.19794,83.15968c-3.24742,0.57624 -2.8068,-3.12417 -2.8068,-3.12417c0,0 -1.1938,-2.644 2.05362,-3.22024c3.24742,-0.57624 5.76825,0.42662 6.07598,2.16088c0.30772,1.73426 -2.07536,3.60729 -5.32279,4.18353z" fill="#404040"/><path d="M149.36075,54.81293l-153.46498,28.37001c0,0 0.74527,-2.40512 0.6882,-3.56415c-0.04903,-0.99559 -1.01019,-2.97453 -1.01019,-2.97453l152.77389,-27.54069c0,0 0.13229,0.22222 1.17339,1.10935c0.70015,0.59661 0.99281,1.9648 1.0673,2.38459c0.13893,0.783 -1.22759,2.21542 -1.22759,2.21542z" fill="#000000"/><path d="M-16.10171,77.66897c0,-3.29815 8.02522,-3.09822 8.02522,-3.09822c0,0 7.28301,0.1669 7.28301,3.46507c0,3.29815 -3.42686,5.60498 -7.6541,5.60498c-4.22725,0 -7.6541,-2.67368 -7.6541,-5.97184z" fill="#404040"/><path d="M-15.08262,237.94683l-1.11332,-160.40975c0,0 5.371,3.19391 8.13384,3.36051c2.37322,0.1431 7.45269,-2.42065 7.45269,-2.42065l-0.55667,159.46989c0,0 -1.91661,2.4852 -4.44953,3.47599c-1.70342,0.66631 -3.99048,-0.02967 -5.01372,-0.02967c-1.90855,0 -4.45331,-3.44631 -4.45331,-3.44631z" fill="url(#color-7)"/><path d="M141.39433,50.65483c0,-3.29815 6.99545,-3.09822 6.99545,-3.09822c0,0 6.34847,0.1669 6.34847,3.46507c0,3.29815 -2.98714,5.60498 -6.67196,5.60498c-3.68483,0 -6.67196,-2.67368 -6.67196,-5.97184z" fill="#404040"/><path d="M142.28266,179.66647l-0.97046,-129.14353c0,0 4.68181,2.57137 7.09014,2.7055c2.0687,0.11521 6.49639,-1.94883 6.49639,-1.94883l-0.48524,128.38686c0,0 -1.67068,2.0008 -3.87858,2.79847c-1.48485,0.53644 -3.47844,-0.02388 -4.37038,-0.02388c-1.66365,0 -3.88188,-2.77457 -3.88188,-2.77457z" fill="url(#color-8)"/><path d="M93.69645,202.2292l-0.46389,-140.86836c0,0 2.23791,1.15401 3.3891,1.30031c0.98885,0.12567 3.10528,-0.47496 3.10528,-0.47496l-0.23194,140.043c0,0 -0.24193,0.09145 -1.29731,0.96153c-0.70976,0.58514 -2.10804,0.63425 -2.53439,0.63425c-0.79523,0 -1.96687,-1.59577 -1.96687,-1.59577z" fill="url(#color-9)"/></g></g></g></svg>