<svg version="1.1" xmlns="http://www.w3.org/2000/svg" xmlns:xlink="http://www.w3.org/1999/xlink" width="174.55365" height="139.96581" viewBox="0,0,174.55365,139.96581"><defs><linearGradient x1="104.7822" y1="188.81419" x2="97.48032" y2="250.22461" gradientUnits="userSpaceOnUse" id="color-1"><stop offset="0" stop-color="#dcd0e8"/><stop offset="1" stop-color="#ffffff"/></linearGradient><linearGradient x1="160.66065" y1="167.99869" x2="164.45438" y2="236.6956" gradientUnits="userSpaceOnUse" id="color-2"><stop offset="0" stop-color="#ffffff"/><stop offset="1" stop-color="#dcd0e8"/></linearGradient><linearGradient x1="193.73462" y1="168.52755" x2="217.49856" y2="213.21078" gradientUnits="userSpaceOnUse" id="color-3"><stop offset="0" stop-color="#dcd0e8"/><stop offset="1" stop-color="#ffffff"/></linearGradient><linearGradient x1="122.67037" y1="236.54882" x2="224.31933" y2="188.97941" gradientUnits="userSpaceOnUse" id="color-4"><stop offset="0" stop-color="#f6f3f9"/><stop offset="1" stop-color="#e7def0"/></linearGradient><linearGradient x1="163.80766" y1="162.92508" x2="186.41258" y2="178.54041" gradientUnits="userSpaceOnUse" id="color-5"><stop offset="0" stop-color="#636363"/><stop offset="1" stop-color="#000000"/></linearGradient><linearGradient x1="161.23675" y1="206.93654" x2="214.61988" y2="210.48097" gradientUnits="userSpaceOnUse" id="color-6"><stop offset="0" stop-color="#ffffff"/><stop offset="1" stop-color="#dcd0e8"/></linearGradient><linearGradient x1="103.73016" y1="220.38628" x2="137.4792" y2="220.38628" gradientUnits="userSpaceOnUse" id="color-7"><stop offset="0" stop-color="#ffffff"/><stop offset="1" stop-color="#eae2f1"/></linearGradient><linearGradient x1="86.31386" y1="110.37429" x2="88.93387" y2="144.39241" gradientUnits="userSpaceOnUse" id="color-8"><stop offset="0" stop-color="#000000"/><stop offset="1" stop-color="#636363"/></linearGradient><linearGradient x1="80.41702" y1="127.62366" x2="128.22512" y2="168.59416" gradientUnits="userSpaceOnUse" id="color-9"><stop offset="0" stop-color="#ffffff"/><stop offset="1" stop-color="#e9e0f2"/></linearGradient><linearGradient x1="82.43871" y1="149.70878" x2="82.78804" y2="154.24453" gradientUnits="userSpaceOnUse" id="color-10"><stop offset="0" stop-color="#ffffff"/><stop offset="1" stop-color="#000000"/></linearGradient><linearGradient x1="106.09546" y1="131.9929" x2="107.5263" y2="150.57082" gradientUnits="userSpaceOnUse" id="color-11"><stop offset="0" stop-color="#000000"/><stop offset="1" stop-color="#636363"/></linearGradient><linearGradient x1="132.44419" y1="111.9786" x2="134.99927" y2="145.15371" gradientUnits="userSpaceOnUse" id="color-12"><stop offset="0" stop-color="#ffffff"/><stop offset="1" stop-color="#dcd0e8"/></linearGradient><linearGradient x1="138.94391" y1="117.34723" x2="139.95309" y2="130.45049" gradientUnits="userSpaceOnUse" id="color-13"><stop offset="0" stop-color="#000000"/><stop offset="1" stop-color="#000000" stop-opacity="0"/></linearGradient><linearGradient x1="137.43324" y1="130.64458" x2="137.8408" y2="135.93627" gradientUnits="userSpaceOnUse" id="color-14"><stop offset="0" stop-color="#000000"/><stop offset="1" stop-color="#000000" stop-opacity="0"/></linearGradient><linearGradient x1="145.26421" y1="130.29493" x2="145.94349" y2="139.11443" gradientUnits="userSpaceOnUse" id="color-15"><stop offset="0" stop-color="#000000"/><stop offset="1" stop-color="#000000" stop-opacity="0"/></linearGradient><linearGradient x1="147.11468" y1="123.05494" x2="147.61927" y2="129.60658" gradientUnits="userSpaceOnUse" id="color-16"><stop offset="0" stop-color="#000000"/><stop offset="1" stop-color="#000000" stop-opacity="0"/></linearGradient></defs><g transform="translate(-69.33013,-110.23304)"><g data-paper-data="{&quot;isPaintingLayer&quot;:true}" fill-rule="nonzero" stroke-linejoin="miter" stroke-miterlimit="10" stroke-dasharray="" stroke-dashoffset="0" style="mix-blend-mode: normal"><path d="M82.61347,244.36564l-3.29657,-11.72304l7.20729,-8.2708l18.35763,-50.43324l14.74526,3.88371l-10.95149,57.34746l-6.85717,9.72356z" fill="url(#color-1)" stroke="none" stroke-width="0" stroke-linecap="butt"/><path d="M155.4871,246.61166l-5.16224,-5.23339l2.16071,-6.25735l5.46479,-16.80415l-17.59188,-6.2438l-4.77588,-12.92583l2.58633,-19.05835l16.19786,-9.52105l22.1399,4.15769l12.3326,18.27039l0.37891,16.71941l-5.83101,8.00717l2.93276,6.66978l-19.36819,15.76523z" fill="url(#color-2)" stroke="none" stroke-width="0" stroke-linecap="butt"/><path d="M210.73834,185.3749l16.2868,0.93918l16.85864,-2.37989l-16.1629,14.33446l-17.05435,5.09468l-21.38837,-4.57033l-5.76334,-9.22634l4.90758,-11.29018z" data-paper-data="{&quot;index&quot;:null}" fill="url(#color-3)" stroke="none" stroke-width="0" stroke-linecap="butt"/><path d="M155.05323,221.17261l-43.54633,-24.45211l-12.31268,-25.67788l36.40339,-24.82693l35.00666,22.15985l25.42503,13.65251l14.84704,25.64036l-30.96076,14.90064z" fill="url(#color-4)" stroke="none" stroke-width="0" stroke-linecap="butt"/><path d="M169.39278,181.34643l-9.94401,-19.96014l15.98912,7.72378l11.44203,8.03456z" fill="url(#color-5)" stroke="none" stroke-width="0" stroke-linecap="butt"/><path d="M177.89949,250.19885l-4.46751,-5.51441l2.92602,-5.60933l4.99018,-15.77248l-16.67331,-7.92921l-3.12251,-12.67826l4.94858,-17.5563l17.41656,-9.10052l21.29094,8.60123l9.95182,18.57962l-1.71421,15.7144l-6.78628,6.81582l2.07595,6.59734l-19.48372,14.53538z" fill="url(#color-6)" stroke="none" stroke-width="0" stroke-linecap="butt"/><path d="M128.46185,244.86915l-21.29255,2.62202l-7.66415,-10.74958l12.71316,-10.45045l4.79983,-48.33545l22.03296,3.2623l-2.29852,48.068z" fill="url(#color-7)" stroke="none" stroke-width="0" stroke-linecap="butt"/><g><path d="M78.73114,145.17819l-9.27854,-11.79274l5.02062,-22.09923l18.50983,-0.57759l12.43671,5.79856l-2.0331,22.96985z" fill="url(#color-8)" stroke="none" stroke-width="0" stroke-linecap="butt"/><path d="M76.58729,175.76101l-7.25716,-13.47936l2.25376,-11.99032l10.09043,-3.5479l-2.51022,-13.46046l6.80183,-12.1343l20.77799,-10.1722l22.33228,4.45653l15.11136,15.07766l-5.09578,25.40326l-9.58808,9.18106l-16.23809,10.95371l-16.71753,2.66407z" fill="url(#color-9)" stroke="none" stroke-width="0" stroke-linecap="butt"/><path d="M89.7802,148.76313l2.99565,9.27481l-9.62368,3.40275l-9.27528,-1.94717l1.54008,-9.62415z" data-paper-data="{&quot;index&quot;:null}" fill="#000000" stroke="none" stroke-width="0" stroke-linecap="butt"/><path d="M76.55141,154.72487l0.40662,-4.59397l10.96139,-0.84423l-0.40662,4.59397z" fill="url(#color-10)" stroke="none" stroke-width="0" stroke-linecap="butt"/><path d="M103.31853,150.8949l-6.70397,-10.02927l8.60942,-8.80561l11.28024,3.10748l-0.64708,12.2712z" data-paper-data="{&quot;index&quot;:null}" fill="url(#color-11)" stroke="none" stroke-width="0" stroke-linecap="butt"/><path d="M91.61817,141.54743l-3.04377,3.74331l-5.00455,0.00311l-1.24879,-5.86311l5.14286,-2.46555z" data-paper-data="{&quot;index&quot;:null}" fill="#000000" stroke="none" stroke-width="0" stroke-linecap="butt"/><path d="M120.59425,142.46095l-5.52647,-22.38763l11.40213,-7.63458l20.91923,-2.2057l6.56212,20.95365l-8.11927,13.13269z" data-paper-data="{&quot;index&quot;:null}" fill="url(#color-12)" stroke="none" stroke-width="0" stroke-linecap="butt"/><path d="M82.97751,159.17281l1.04737,7.0168" fill="none" stroke="#000000" stroke-width="1.5" stroke-linecap="round"/><path d="M134.59301,125.03328l4.4769,-7.69575l5.19528,4.92297l-4.69007,8.21913z" data-paper-data="{&quot;index&quot;:null}" fill="url(#color-13)" stroke="none" stroke-width="0" stroke-linecap="butt"/><path d="M134.69098,136.17888l1.86033,-5.46638l4.43934,4.98119z" fill="url(#color-14)" stroke="none" stroke-width="0" stroke-linecap="butt"/><path d="M141.7469,138.93069l0.0382,-6.08647l4.4294,0.97028l3.2075,-3.83979l-0.097,6.11724l-2.75153,2.97399z" fill="url(#color-15)" stroke="none" stroke-width="0" stroke-linecap="butt"/><path d="M144.34344,129.85887l4.28313,-6.92038l2.13264,4.65189z" fill="url(#color-16)" stroke="none" stroke-width="0" stroke-linecap="butt"/></g></g></g></svg>