<svg version="1.1" xmlns="http://www.w3.org/2000/svg" xmlns:xlink="http://www.w3.org/1999/xlink" width="88.55498" height="87.91413" viewBox="0,0,88.55498,87.91413"><defs><radialGradient cx="240.00009" cy="180.00002" r="32.79887" gradientUnits="userSpaceOnUse" id="color-1"><stop offset="0" stop-color="#000000"/><stop offset="1" stop-color="#000000" stop-opacity="0"/></radialGradient><linearGradient x1="205.52666" y1="163.84461" x2="236.52666" y2="163.84461" gradientUnits="userSpaceOnUse" id="color-2"><stop offset="0" stop-color="#f58282"/><stop offset="1" stop-color="#ffffff"/></linearGradient><linearGradient x1="232.51654" y1="179.35205" x2="265.4112" y2="179.35205" gradientUnits="userSpaceOnUse" id="color-3"><stop offset="0" stop-color="#d77171"/><stop offset="1" stop-color="#ffffff"/></linearGradient><radialGradient cx="251.77137" cy="189.98162" r="26.16667" gradientUnits="userSpaceOnUse" id="color-4"><stop offset="0" stop-color="#ff2e2e"/><stop offset="1" stop-color="#560000"/></radialGradient><radialGradient cx="251.86569" cy="189.58905" r="8.66667" gradientUnits="userSpaceOnUse" id="color-5"><stop offset="0" stop-color="#ffffff"/><stop offset="1" stop-color="#ffffff" stop-opacity="0"/></radialGradient><radialGradient cx="252.24332" cy="169.6724" r="8.66667" gradientUnits="userSpaceOnUse" id="color-6"><stop offset="0" stop-color="#000000"/><stop offset="1" stop-color="#000000" stop-opacity="0"/></radialGradient></defs><g transform="translate(-197.32665,-136.04294)"><g data-paper-data="{&quot;isPaintingLayer&quot;:true}" fill-rule="nonzero" stroke-linecap="butt" stroke-linejoin="miter" stroke-miterlimit="10" stroke-dasharray="" stroke-dashoffset="0" style="mix-blend-mode: normal"><path d="M240.00009,212.7989c-18.11432,0 -32.79887,-14.68456 -32.79887,-32.79887c0,-18.11432 14.68456,-32.79887 32.79887,-32.79887c18.11432,0 32.79887,14.68456 32.79887,32.79887c0,18.11432 -14.68456,32.79887 -32.79887,32.79887z" fill="url(#color-1)" stroke="#000000" stroke-width="0"/><path d="M197.32666,171.84461l17.2,-5.6c0,0 7.37985,-4.30565 10.83448,-5.78621c3.54313,-1.51848 10.16552,-3.21379 10.16552,-3.21379l1,12.6c0,0 -12.22723,4.82384 -18.58224,5.14807c-6.69403,0.34153 -20.61776,-3.14807 -20.61776,-3.14807z" fill="url(#color-2)" stroke="none" stroke-width="0"/><path d="M285.88163,223.95707h-87.20514v-87.91413h87.20514z" fill="none" stroke="none" stroke-width="NaN"/><path d="M216.9063,179.13728c0,-9.62438 6.01663,-17.80818 14.39058,-21.54738c3.12769,-1.3966 6.58424,-2.17317 10.17898,-2.17317c13.21912,0 23.93534,10.71622 23.93534,23.93534c0,13.21912 -10.71622,23.93534 -23.93534,23.93534c-13.21912,0 -24.56956,-10.931 -24.56956,-24.15013z" fill="url(#color-3)" stroke="#000000" stroke-width="0"/><path d="M226.83804,201.44829c-6.33192,-4.6876 -4.88776,-5.00107 -10.12531,-9.24623c-7.04805,-5.7126 -18.99135,-9.02044 -18.99135,-9.02044c0,0 16.22785,-5.23157 23.90517,-4.91553c0.63215,0.02603 1.20633,0.08966 1.70871,0.19692c2.66508,0.56904 5.98546,3.69701 9.12023,3.87093c3.49184,0.19374 9.86354,-4.85791 13.12005,-4.45178c7.23557,0.90236 9.87423,4.11091 12.81129,4.25722c3.03544,0.15121 6.93455,-3.62443 6.93455,-3.62443c0,0 2.2379,22.51263 -18.02897,26.04439c-9.58847,1.91103 -16.84034,-0.43555 -20.45436,-3.11106z" fill="url(#color-4)" stroke="none" stroke-width="0"/><path d="M260.53234,189.58905c0,4.69442 -3.8802,8.5 -8.66667,8.5c-4.78647,0 -8.66666,-3.80558 -8.66666,-8.5c0,-4.69442 3.88019,-8.5 8.66666,-8.5c4.78647,0 8.66667,3.80558 8.66667,8.5z" fill="url(#color-5)" stroke="none" stroke-width="0"/><path d="M260.90999,169.6724c0,4.69442 -3.8802,8.5 -8.66667,8.5c-4.78647,0 -8.66666,-3.80558 -8.66666,-8.5c0,-4.69442 3.88019,-8.5 8.66666,-8.5c4.78647,0 8.66667,3.80558 8.66667,8.5z" fill="url(#color-6)" stroke="none" stroke-width="0"/><path d="M247.38831,189.53995c0,-2.44128 1.97905,-4.42033 4.42033,-4.42033c2.44128,0 4.42033,1.97905 4.42033,4.42033c0,2.44128 -1.97905,4.42033 -4.42033,4.42033c-2.44128,0 -4.42033,-1.97905 -4.42033,-4.42033z" fill="#ffffff" stroke="#000000" stroke-width="0"/><path d="M247.68897,169.42948c0,-2.44128 1.97905,-4.42033 4.42033,-4.42033c2.44128,0 4.42033,1.97905 4.42033,4.42033c0,2.44128 -1.97905,4.42033 -4.42033,4.42033c-2.44128,0 -4.42033,-1.97905 -4.42033,-4.42033z" fill="#000000" stroke="#000000" stroke-width="0"/></g></g></svg>