<svg version="1.1" xmlns="http://www.w3.org/2000/svg" xmlns:xlink="http://www.w3.org/1999/xlink" width="630.39519" height="510.75297" viewBox="0,0,630.39519,510.75297"><defs><linearGradient x1="89.48858" y1="173.02514" x2="555.08347" y2="173.02514" gradientUnits="userSpaceOnUse" id="color-1"><stop offset="0" stop-color="#3d3d3d"/><stop offset="1" stop-color="#6f0000"/></linearGradient><linearGradient x1="295.84412" y1="-39.94644" x2="295.84412" y2="192.05356" gradientUnits="userSpaceOnUse" id="color-2"><stop offset="0" stop-color="#b500cc"/><stop offset="1" stop-color="#b500cc" stop-opacity="0"/></linearGradient><linearGradient x1="208.00001" y1="173.55206" x2="208.00001" y2="405.55206" gradientUnits="userSpaceOnUse" id="color-3"><stop offset="0" stop-color="#4200ff" stop-opacity="0"/><stop offset="1" stop-color="#4200ff"/></linearGradient><linearGradient x1="205.50001" y1="-19.44493" x2="205.50001" y2="98.45786" gradientUnits="userSpaceOnUse" id="color-4"><stop offset="0" stop-color="#000000"/><stop offset="1" stop-color="#9700ab"/></linearGradient><linearGradient x1="388.07968" y1="-65.30868" x2="388.07968" y2="212.94279" gradientUnits="userSpaceOnUse" id="color-5"><stop offset="0" stop-color="#000000"/><stop offset="1" stop-color="#9700ab"/></linearGradient><linearGradient x1="-68.55856" y1="176.12861" x2="53.06306" y2="176.12861" gradientUnits="userSpaceOnUse" id="color-6"><stop offset="0" stop-color="#0c00cc"/><stop offset="1" stop-color="#0c00cc" stop-opacity="0"/></linearGradient></defs><g transform="translate(68.55856,65.30868)"><g data-paper-data="{&quot;isPaintingLayer&quot;:true}" fill-rule="nonzero" stroke="none" stroke-width="0" stroke-linecap="butt" stroke-linejoin="miter" stroke-miterlimit="10" stroke-dasharray="" stroke-dashoffset="0" style="mix-blend-mode: normal"><path d="M-18.82502,376.25589v-403.9039h121.62162v403.9039z" fill="#8a0000"/><path d="M-13.82501,381.2559v-403.9039h46.54654v403.90391z" fill="#6b0000"/><path d="M-8.82502,386.2559v-403.9039h18.01802v403.90391z" fill="#480000"/><path d="M81.83664,402.49962v-435.43544h480v435.43544z" fill="#000000"/><path d="M89.48858,380.9831v-415.91592h465.5949v415.91592z" fill="url(#color-1)"/><g fill="#ff1414"><path d="M15.52203,41.60345l-4.35432,-30.79765l4.6115,-0.46726l4.35432,30.79765z"/><path d="M25.57905,12.93553l-15.6579,28.04243l-4.19895,-1.68026l15.6579,-28.04243z" data-paper-data="{&quot;index&quot;:null}"/><path d="M5.78712,13.47823l24.24162,23.25787l-3.48253,2.60139l-24.24162,-23.25787z" data-paper-data="{&quot;index&quot;:null}"/></g><g data-paper-data="{&quot;index&quot;:null}" fill="#ff1414"><path d="M44.57973,82.24828l-2.26524,16.02183l-2.39904,-0.24309l2.26525,-16.02183z"/><path d="M45.22823,97.7932l-8.1457,-14.58849l2.18442,-0.87412l8.14569,14.58848z" data-paper-data="{&quot;index&quot;:null}"/><path d="M35.3046,95.28344l12.6112,-12.09942l1.81171,1.35332l-12.61119,12.09942z" data-paper-data="{&quot;index&quot;:null}"/></g><g data-paper-data="{&quot;index&quot;:null}" fill="#ff1414"><path d="M1.07406,137.50113l19.26872,14.49529l-2.27172,2.78395l-19.26871,-14.49529z"/><path d="M11.2756,158.7286l-6.78848,-23.95475l3.22276,-1.38062l6.78847,23.95476z" data-paper-data="{&quot;index&quot;:null}"/><path d="M21.82732,147.5821l-26.03724,0.53904l0.48303,-3.33495l26.03724,-0.53902z" data-paper-data="{&quot;index&quot;:null}"/></g><g data-paper-data="{&quot;index&quot;:null}" fill="#ff1414"><path d="M52.68706,208.27561l1.34311,-10.4273l1.56057,0.13867l-1.34311,10.42731z"/><path d="M52.14099,198.18153l5.40921,9.41253l-1.41217,0.58543l-5.4092,-9.41253z" data-paper-data="{&quot;index&quot;:null}"/><path d="M58.60835,199.73244l-8.09619,7.96201l-1.1879,-0.86469l8.09619,-7.96201z" data-paper-data="{&quot;index&quot;:null}"/></g><g data-paper-data="{&quot;index&quot;:null}" fill="#ff1414"><path d="M2.69516,256.9247l-6.06893,-47.11644l7.05151,-0.62661l6.06893,47.11645z"/><path d="M18.5951,213.33264l-24.44182,42.53115l-6.38098,-2.64533l24.44187,-42.53112z" data-paper-data="{&quot;index&quot;:null}"/><path d="M-11.64147,213.78809l36.58316,35.97683l-5.36761,3.90716l-36.58315,-35.97685z" data-paper-data="{&quot;index&quot;:null}"/></g><g data-paper-data="{&quot;index&quot;:null}" fill="#ff1414"><path d="M41.65364,303.27537l3.0605,-23.7604l3.55601,0.31599l-3.0605,23.7604z"/><path d="M40.40931,280.27428l12.32581,21.44806l-3.21787,1.33402l-12.32578,-21.44807z" data-paper-data="{&quot;index&quot;:null}"/><path d="M55.14631,283.80829l-18.44855,18.1428l-2.70683,-1.97035l18.44855,-18.14279z" data-paper-data="{&quot;index&quot;:null}"/></g><g data-paper-data="{&quot;index&quot;:null}" fill="#ff1414"><path d="M2.88732,394.88832l-12.80148,-99.38495l14.87407,-1.32172l12.80148,99.38495z"/><path d="M36.4258,302.93754l-51.55628,89.71296l-13.4597,-5.57992l51.55638,-89.71292z" data-paper-data="{&quot;index&quot;:null}"/><path d="M-27.3536,303.89824l77.16657,75.88762l-11.32215,8.24156l-77.16657,-75.88768z" data-paper-data="{&quot;index&quot;:null}"/></g><path d="M83.09309,192.90744v-7.50751h411.41141v7.50751z" fill="#000000"/><path d="M116.5,191v-114h10v114z" fill="#000000"/><path d="M153.5,283v-91h9v91z" fill="#000000"/><path d="M210.50001,189v-65h13v65z" fill="#000000"/><path d="M252.50001,238v-46h8v46z" fill="#000000"/><path d="M300.50001,190v-179h6v179z" fill="#000000"/><path d="M367.50001,300v-114h9v114z" fill="#000000"/><path d="M416.50001,191v-83h6v83z" fill="#000000"/><path d="M458.50001,295v-111h3v111z" fill="#000000"/><path d="M505.00001,-39.94644v232l-415,-18l-3.31176,-175.03471l184.31176,-38.96529z" data-paper-data="{&quot;index&quot;:null}" fill="url(#color-2)"/><path d="M91,405.55206v-232h234v232z" fill="url(#color-3)"/><path d="M94.00001,423.05438c0,0 -0.65858,-42.43263 6.65694,-82.19515c7.07699,-38.46598 7.9373,-105.30485 19.34306,-105.30485c13.79068,0 5.90819,55.97281 11.8456,105.41814c0.30374,2.52946 11.7125,16.25731 20.55531,20.80175c15.59825,8.01615 1.13639,-94.6689 27.96855,-85.27522c13.6763,4.78794 10.76655,54.21408 28.41841,71.33594c24.2047,23.47794 12.00671,-195.06958 36.21842,-179.88515c4.58703,2.87677 0.05194,49.89171 2.98377,93.89944c2.28612,34.31536 9.11228,66.80227 28.34353,75.10864c58.87737,25.43034 50.47298,94.36377 51.4151,96.55146c9.95129,23.10773 -157.74869,5.54501 -157.74869,5.54501z" data-paper-data="{&quot;index&quot;:null}" fill="#0016a5"/><path d="M84,10.55507v-30h243v30c0,0 -8.15832,78.02026 -37.01331,87.88589c-3.81274,1.30359 -22.72494,-73.25584 -26.69631,-71.66486c-3.51296,1.40733 -5.09354,12.82577 -8.71827,14.24262c-2.00418,0.7834 -6.01649,-4.41763 -8.03243,-3.60356c-7.50692,3.0314 -10.23181,14.96999 -18.00257,17.68003c-7.72294,2.69335 -17.44383,-3.62595 -24.97918,-1.02556c-9.6955,3.34584 -11.31938,36.64601 -20.56158,37.44314c-13.90362,1.19917 -18.38038,-69.50807 -30.56724,-68.13871c-27.11016,3.0462 -38.61158,13.18102 -48.42911,13.18102c-10.26055,0 -20,-26 -20,-26z" fill="url(#color-4)"/><path d="M347.00001,-58.91877c0,0 167.69998,-17.56272 157.74869,5.54501c-0.94212,2.18769 7.46228,71.12112 -51.4151,96.55145c-43.89435,18.95887 -23.1635,163.88812 -31.3273,169.00808c-24.21171,15.18444 -12.01373,-203.36309 -36.21842,-179.88515c-17.65186,17.12186 -14.7421,66.548 -28.41841,71.33594c-26.83215,9.39367 -12.37029,-93.29137 -27.96855,-85.27522c-8.84281,4.54444 -20.25157,18.27229 -20.55531,20.80175c-5.93742,49.44533 1.94508,105.41814 -11.84561,105.41814c-11.40576,0 -12.26607,-66.83886 -19.34306,-105.30485c-7.31553,-39.76252 -6.65694,-82.19515 -6.65694,-82.19515z" fill="url(#color-5)"/><path d="M-68.55856,393.84633v-435.43544h121.62162v435.43544z" fill="url(#color-6)"/></g></g></svg>