<svg version="1.1" xmlns="http://www.w3.org/2000/svg" xmlns:xlink="http://www.w3.org/1999/xlink" width="37.6" height="43.6" viewBox="0,0,37.6,43.6"><g transform="translate(-221.20009,-158.2)"><g data-paper-data="{&quot;isPaintingLayer&quot;:true}" fill-rule="nonzero" stroke="none" stroke-linecap="butt" stroke-linejoin="miter" stroke-miterlimit="10" stroke-dasharray="" stroke-dashoffset="0" style="mix-blend-mode: normal"><path d="M221.20009,201.8v-43.6h37.6v43.6z" fill="none" stroke-width="0"/><path d="M230.34127,186.434v-10.81803c0,-0.9896 0.27113,-1.78943 0.81338,-2.39947c0.55581,-0.62359 1.28108,-0.93539 2.1758,-0.93539c0.58293,0 1.09807,0.14234 1.54543,0.42703c0.46092,0.27112 0.82016,0.66425 1.07774,1.17939c0.25757,0.50159 0.38636,1.07774 0.38636,1.72844v10.69601c0,1.1794 0.37958,2.12157 1.13874,2.8265c0.77271,0.70493 1.68099,1.0574 2.72484,1.0574c0.70493,0 1.34886,-0.14912 1.93179,-0.44735c0.58293,-0.3118 1.05062,-0.75916 1.40309,-1.3421c0.36602,-0.58292 0.54903,-1.28107 0.54903,-2.09446v-10.69601c0,-0.9896 0.27113,-1.78943 0.81338,-2.39947c0.55581,-0.62359 1.28108,-0.93539 2.1758,-0.93539c0.58293,0 1.09807,0.14234 1.54543,0.42703c0.46092,0.27112 0.82016,0.66425 1.07773,1.17939c0.25757,0.50159 0.38636,1.07774 0.38636,1.72844v10.81803c0,1.77588 -0.38636,3.32809 -1.15907,4.65661c-0.75916,1.31498 -1.89112,2.33171 -3.39588,3.05019c-1.49121,0.70493 -3.26709,1.0574 -5.32767,1.0574c-3.13153,0 -5.55813,-0.78627 -7.27979,-2.35881c-1.72166,-1.57254 -2.5825,-3.70767 -2.5825,-6.4054z" fill="#ff0000" stroke-width="0.40889"/></g></g></svg>