<svg version="1.1" xmlns="http://www.w3.org/2000/svg" xmlns:xlink="http://www.w3.org/1999/xlink" width="85.27405" height="85.96734" viewBox="0,0,85.27405,85.96734"><defs><radialGradient cx="240.00002" cy="180" r="32.79887" gradientUnits="userSpaceOnUse" id="color-1"><stop offset="0" stop-color="#000000"/><stop offset="1" stop-color="#000000" stop-opacity="0"/></radialGradient><linearGradient x1="243.49007" y1="153.57341" x2="243.49007" y2="206.42658" gradientUnits="userSpaceOnUse" id="color-2"><stop offset="0" stop-color="#ff8787"/><stop offset="1" stop-color="#ff0000"/></linearGradient><linearGradient x1="225.96045" y1="180" x2="235.15393" y2="180" gradientUnits="userSpaceOnUse" id="color-3"><stop offset="0" stop-color="#760000"/><stop offset="1" stop-color="#ff7d7d"/></linearGradient><linearGradient x1="234.0407" y1="187.24902" x2="241.76477" y2="185.65824" gradientUnits="userSpaceOnUse" id="color-4"><stop offset="0" stop-color="#760000"/><stop offset="1" stop-color="#ff7d7d"/></linearGradient><linearGradient x1="233.07406" y1="200.76673" x2="240.03916" y2="197.06823" gradientUnits="userSpaceOnUse" id="color-5"><stop offset="0" stop-color="#760000"/><stop offset="1" stop-color="#ff7d7d"/></linearGradient><linearGradient x1="224.95295" y1="194.30321" x2="232.52059" y2="192.08456" gradientUnits="userSpaceOnUse" id="color-6"><stop offset="0" stop-color="#760000"/><stop offset="1" stop-color="#ff7d7d"/></linearGradient><linearGradient x1="234.10538" y1="173.18948" x2="241.82943" y2="174.78026" gradientUnits="userSpaceOnUse" id="color-7"><stop offset="0" stop-color="#760000"/><stop offset="1" stop-color="#ff7d7d"/></linearGradient><linearGradient x1="233.13873" y1="159.67176" x2="240.10384" y2="163.37026" gradientUnits="userSpaceOnUse" id="color-8"><stop offset="0" stop-color="#760000"/><stop offset="1" stop-color="#ff7d7d"/></linearGradient><linearGradient x1="225.01762" y1="166.13529" x2="232.58527" y2="168.35393" gradientUnits="userSpaceOnUse" id="color-9"><stop offset="0" stop-color="#760000"/><stop offset="1" stop-color="#ff7d7d"/></linearGradient><linearGradient x1="216.02706" y1="164.92258" x2="216.02706" y2="194.95166" gradientUnits="userSpaceOnUse" id="color-10"><stop offset="0" stop-color="#ff3131"/><stop offset="1" stop-color="#960000"/></linearGradient></defs><g transform="translate(-197.36299,-137.01633)"><g data-paper-data="{&quot;isPaintingLayer&quot;:true}" fill-rule="nonzero" stroke-linejoin="miter" stroke-miterlimit="10" stroke-dasharray="" stroke-dashoffset="0" style="mix-blend-mode: normal"><path d="M282.63704,222.98367h-85.27405v-85.96734h85.27405z" fill="none" stroke="none" stroke-width="NaN" stroke-linecap="butt"/><path d="M207.20115,180c0,-18.11432 14.68456,-32.79887 32.79887,-32.79887c18.11432,0 32.79887,14.68456 32.79887,32.79887c0,18.11432 -14.68456,32.79887 -32.79887,32.79887c-18.11432,0 -32.79887,-14.68456 -32.79887,-32.79887z" fill="url(#color-1)" stroke="#000000" stroke-width="0" stroke-linecap="butt"/><path d="M217.06475,180.00127c0,-14.59429 7.55689,-26.62884 14.62057,-26.42532c14.58824,0.42033 38.23006,14.88398 38.23006,26.42532c0,10.11663 -23.63577,26.42532 -38.23006,26.42532c-6.4531,0 -14.62057,-11.83102 -14.62057,-26.42532z" fill="url(#color-2)" stroke="#000000" stroke-width="0" stroke-linecap="butt"/><path d="M230.55718,181.41439c-2.5387,0 -4.61603,-1.18851 -4.59675,-1.41439c0.03921,-0.45928 2.05803,-1.41439 4.59675,-1.41439c2.5387,0 4.52601,0.98684 4.59673,1.41439c0.09284,0.56136 -2.05803,1.41439 -4.59673,1.41439z" fill="url(#color-3)" stroke="none" stroke-width="0" stroke-linecap="butt"/><path d="M238.14748,187.64195c-2.13294,0.43928 -4.08389,-0.19982 -4.10677,-0.39293c-0.04654,-0.39266 1.48436,-1.54442 3.61729,-1.98371c2.13294,-0.43928 3.97337,0.04595 4.10676,0.39292c0.17515,0.45557 -1.48435,1.54444 -3.61728,1.98372z" fill="url(#color-4)" stroke="none" stroke-width="0" stroke-linecap="butt"/><path d="M237.12561,199.98905c-1.92336,1.02132 -3.97529,0.95658 -4.05156,0.7777c-0.15507,-0.36373 0.99018,-1.8995 2.91355,-2.92081c1.92336,-1.02132 3.82598,-1.07317 4.05156,-0.7777c0.29617,0.38794 -0.99018,1.8995 -2.91355,2.92081z" fill="url(#color-5)" stroke="none" stroke-width="0" stroke-linecap="butt"/><path d="M229.07809,194.35814c-2.08974,0.61267 -4.08652,0.13565 -4.12517,-0.05493c-0.07857,-0.38752 1.35276,-1.66091 3.4425,-2.27357c2.08974,-0.61267 3.96375,-0.27994 4.12515,0.05492c0.2119,0.43968 -1.35275,1.66093 -3.44249,2.2736z" fill="url(#color-6)" stroke="none" stroke-width="0" stroke-linecap="butt"/><path d="M241.82943,174.78026c-0.13339,0.34698 -1.97382,0.83221 -4.10677,0.39292c-2.13294,-0.43928 -3.66383,-1.59105 -3.61729,-1.98371c0.02289,-0.19311 1.97382,-0.83221 4.10677,-0.39293c2.13294,0.43928 3.79243,1.52814 3.61728,1.98372z" data-paper-data="{&quot;index&quot;:null}" fill="url(#color-7)" stroke="none" stroke-width="0" stroke-linecap="butt"/><path d="M240.10384,163.37026c-0.22558,0.29547 -2.1282,0.24361 -4.05156,-0.7777c-1.92336,-1.02132 -3.06862,-2.55707 -2.91355,-2.92081c0.07626,-0.17889 2.1282,-0.24361 4.05156,0.77769c1.92336,1.02132 3.20974,2.53288 2.91355,2.92082z" data-paper-data="{&quot;index&quot;:null}" fill="url(#color-8)" stroke="none" stroke-width="0" stroke-linecap="butt"/><path d="M232.58525,168.35393c-0.1614,0.33488 -2.0354,0.66759 -4.12515,0.05492c-2.08974,-0.61267 -3.52107,-1.88606 -3.4425,-2.27358c0.03864,-0.19058 2.03541,-0.66759 4.12517,-0.05493c2.08974,0.61267 3.65439,1.83392 3.44249,2.27358z" data-paper-data="{&quot;index&quot;:null}" fill="url(#color-9)" stroke="none" stroke-width="0" stroke-linecap="butt"/><path d="M208.7815,180.08126l7.861,-6.69257l-1.8385,-8.46612l4.17636,2.96866l0.24639,5.21355l6.1981,-2.64061l-3.38534,9.5665l3.72005,9.59555l-6.56193,-2.83024l0.05477,5.47407l-5.50756,2.68161l3.09638,-8.34033z" data-paper-data="{&quot;index&quot;:null}" fill="url(#color-10)" stroke="#000000" stroke-width="0" stroke-linecap="round"/><path d="M247.18199,191.43456c0,-2.61558 2.12034,-4.73592 4.73592,-4.73592c2.61558,0 4.73592,2.12034 4.73592,4.73592c0,2.61558 -2.12034,4.73592 -4.73592,4.73592c-2.61558,0 -4.73592,-2.12034 -4.73592,-4.73592z" fill="#000000" stroke="#000000" stroke-width="0" stroke-linecap="butt"/><path d="M247.23474,168.56544c0,-2.61558 2.12034,-4.73592 4.73592,-4.73592c2.61558,0 4.73592,2.12034 4.73592,4.73592c0,2.61558 -2.12034,4.73592 -4.73592,4.73592c-2.61558,0 -4.73592,-2.12034 -4.73592,-4.73592z" fill="#000000" stroke="#000000" stroke-width="0" stroke-linecap="butt"/><path d="M259.04818,167.91706v23.86906" fill="none" stroke="#000000" stroke-width="2" stroke-linecap="round"/></g></g></svg>