<svg version="1.1" xmlns="http://www.w3.org/2000/svg" xmlns:xlink="http://www.w3.org/1999/xlink" width="58.09756" height="58.41907" viewBox="0,0,58.09756,58.41907"><defs><radialGradient cx="240" cy="180" r="29.04878" gradientUnits="userSpaceOnUse" id="color-1"><stop offset="0" stop-color="#ffffff"/><stop offset="1" stop-color="#ffffff" stop-opacity="0"/></radialGradient><radialGradient cx="240.00001" cy="180.00003" r="11.84847" gradientUnits="userSpaceOnUse" id="color-2"><stop offset="0" stop-color="#ff0000"/><stop offset="1" stop-color="#ff0000" stop-opacity="0.50196"/></radialGradient><radialGradient cx="230.8967" cy="155.29943" r="4.66973" gradientUnits="userSpaceOnUse" id="color-3"><stop offset="0" stop-color="#ff0000"/><stop offset="1" stop-color="#ff0000" stop-opacity="0.50196"/></radialGradient><radialGradient cx="256.16119" cy="169.62031" r="8.97497" gradientUnits="userSpaceOnUse" id="color-4"><stop offset="0" stop-color="#ff0000"/><stop offset="1" stop-color="#ff0000" stop-opacity="0.50196"/></radialGradient><radialGradient cx="225.7593" cy="173.3952" r="6.95994" gradientUnits="userSpaceOnUse" id="color-5"><stop offset="0" stop-color="#ff0000"/><stop offset="1" stop-color="#ff0000" stop-opacity="0.50196"/></radialGradient><radialGradient cx="251.3128" cy="194.2329" r="5.328" gradientUnits="userSpaceOnUse" id="color-6"><stop offset="0" stop-color="#ff0000"/><stop offset="1" stop-color="#ff0000" stop-opacity="0.50196"/></radialGradient><radialGradient cx="228.11425" cy="196.75436" r="7.8541" gradientUnits="userSpaceOnUse" id="color-7"><stop offset="0" stop-color="#ff0000"/><stop offset="1" stop-color="#ff0000" stop-opacity="0.50196"/></radialGradient><radialGradient cx="238.79088" cy="203.38629" r="2.95824" gradientUnits="userSpaceOnUse" id="color-8"><stop offset="0" stop-color="#ff0000"/><stop offset="1" stop-color="#ff0000" stop-opacity="0.50196"/></radialGradient><radialGradient cx="263.34871" cy="191.36829" r="2.95824" gradientUnits="userSpaceOnUse" id="color-9"><stop offset="0" stop-color="#ff0000"/><stop offset="1" stop-color="#ff0000" stop-opacity="0.50196"/></radialGradient><radialGradient cx="216.99115" cy="183.81924" r="2.03667" gradientUnits="userSpaceOnUse" id="color-10"><stop offset="0" stop-color="#ff0000"/><stop offset="1" stop-color="#ff0000" stop-opacity="0.50196"/></radialGradient><radialGradient cx="245.49128" cy="159.00889" r="2.03667" gradientUnits="userSpaceOnUse" id="color-11"><stop offset="0" stop-color="#ff0000"/><stop offset="1" stop-color="#ff0000" stop-opacity="0.50196"/></radialGradient></defs><g transform="translate(-210.95122,-150.62971)"><g data-paper-data="{&quot;isPaintingLayer&quot;:true}" fill-rule="nonzero" stroke-width="0" stroke-linecap="butt" stroke-linejoin="miter" stroke-miterlimit="10" stroke-dasharray="" stroke-dashoffset="0" style="mix-blend-mode: normal"><path d="M210.95122,180c0,-16.0432 13.00558,-29.04878 29.04878,-29.04878c16.0432,0 29.04878,13.00558 29.04878,29.04878c0,16.0432 -13.00558,29.04878 -29.04878,29.04878c-16.0432,0 -29.04878,-13.00558 -29.04878,-29.04878z" fill="url(#color-1)" stroke="none"/><path d="M228.15154,180.00001c0,-6.54374 5.30475,-11.84846 11.84846,-11.84846c6.54374,0 11.84848,5.30475 11.84848,11.84846c0,6.54374 -5.30475,11.84848 -11.84848,11.84848c-6.54374,0 -11.84846,-5.30475 -11.84846,-11.84848z" fill="url(#color-2)" stroke="#000000"/><path d="M226.22697,155.29943c0,-2.57903 2.09071,-4.66972 4.66972,-4.66972c2.57903,0 4.66974,2.09071 4.66974,4.66972c0,2.57903 -2.09071,4.66974 -4.66974,4.66974c-2.57903,0 -4.66972,-2.09071 -4.66972,-4.66974z" fill="url(#color-3)" stroke="#000000"/><path d="M247.18622,169.6203c0,-4.95675 4.01823,-8.97497 8.97497,-8.97497c4.95674,0 8.97498,4.01823 8.97498,8.97497c0,4.95675 -4.01824,8.975 -8.97498,8.975c-4.95675,0 -8.97497,-4.01824 -8.97497,-8.975z" fill="url(#color-4)" stroke="#000000"/><path d="M218.79936,173.39519c0,-3.84389 3.11607,-6.95994 6.95994,-6.95994c3.84389,0 6.95996,3.11607 6.95996,6.95994c0,3.84389 -3.11607,6.95996 -6.95996,6.95996c-3.84389,0 -6.95994,-3.11608 -6.95994,-6.95996z" fill="url(#color-5)" stroke="#000000"/><path d="M245.98481,194.23289c0,-2.94258 2.38542,-5.32799 5.32799,-5.32799c2.94258,0 5.328,2.38542 5.328,5.32799c0,2.94258 -2.38542,5.328 -5.328,5.328c-2.94258,0 -5.32799,-2.38543 -5.32799,-5.328z" fill="url(#color-6)" stroke="#000000"/><path d="M220.26015,196.75433c0,-4.33772 3.51641,-7.85407 7.8541,-7.85407c4.33772,0 7.8541,3.51638 7.8541,7.85407c0,4.33772 -3.51638,7.8541 -7.8541,7.8541c-4.33772,0 -7.8541,-3.51641 -7.8541,-7.8541z" fill="url(#color-7)" stroke="#000000"/><path d="M235.83264,203.38628c0,-1.63379 1.32446,-2.95823 2.95824,-2.95823c1.63379,0 2.95824,1.32445 2.95824,2.95823c0,1.63379 -1.32444,2.95825 -2.95824,2.95825c-1.63379,0 -2.95824,-1.32445 -2.95824,-2.95825z" fill="url(#color-8)" stroke="#000000"/><path d="M260.39047,191.36828c0,-1.63379 1.32446,-2.95824 2.95824,-2.95824c1.6338,0 2.95824,1.32445 2.95824,2.95824c0,1.63379 -1.32444,2.95825 -2.95824,2.95825c-1.6338,0 -2.95824,-1.32445 -2.95824,-2.95825z" fill="url(#color-9)" stroke="#000000"/><path d="M214.95448,183.81924c0,-1.12482 0.91186,-2.03666 2.03667,-2.03666c1.12482,0 2.03667,0.91185 2.03667,2.03666c0,1.12482 -0.91184,2.03667 -2.03667,2.03667c-1.12482,0 -2.03667,-0.91185 -2.03667,-2.03667z" fill="url(#color-10)" stroke="#000000"/><path d="M243.45461,159.00888c0,-1.12482 0.91185,-2.03666 2.03667,-2.03666c1.12482,0 2.03667,0.91185 2.03667,2.03666c0,1.12482 -0.91185,2.03667 -2.03667,2.03667c-1.12482,0 -2.03667,-0.91184 -2.03667,-2.03667z" fill="url(#color-11)" stroke="#000000"/></g></g></svg>