<svg version="1.1" xmlns="http://www.w3.org/2000/svg" xmlns:xlink="http://www.w3.org/1999/xlink" width="92.11519" height="87.16036" viewBox="0,0,92.11519,87.16036"><defs><radialGradient cx="240.0001" cy="180.00002" r="43.58018" gradientUnits="userSpaceOnUse" id="color-1"><stop offset="0" stop-color="#000000" stop-opacity="0.75294"/><stop offset="1" stop-color="#000000" stop-opacity="0"/></radialGradient><linearGradient x1="272.57564" y1="181.12616" x2="201.8848" y2="181.12616" gradientUnits="userSpaceOnUse" id="color-2"><stop offset="0" stop-color="#ff2929"/><stop offset="1" stop-color="#d50000"/></linearGradient><radialGradient cx="222.88568" cy="192.4596" r="4.8931" gradientUnits="userSpaceOnUse" id="color-3"><stop offset="0" stop-color="#ff6060"/><stop offset="1" stop-color="#ff6060" stop-opacity="0"/></radialGradient><radialGradient cx="213.60548" cy="192.81803" r="7.74419" gradientUnits="userSpaceOnUse" id="color-4"><stop offset="0" stop-color="#ff6060"/><stop offset="1" stop-color="#ff6060" stop-opacity="0"/></radialGradient><radialGradient cx="214.3892" cy="168.91821" r="7.25755" gradientUnits="userSpaceOnUse" id="color-5"><stop offset="0" stop-color="#ff6060"/><stop offset="1" stop-color="#ff6060" stop-opacity="0"/></radialGradient><radialGradient cx="222.53467" cy="169.89622" r="4.54456" gradientUnits="userSpaceOnUse" id="color-6"><stop offset="0" stop-color="#ff6060"/><stop offset="1" stop-color="#ff6060" stop-opacity="0"/></radialGradient><linearGradient x1="214.3055" y1="163.95308" x2="204.58279" y2="165.3935" gradientUnits="userSpaceOnUse" id="color-7"><stop offset="0" stop-color="#ff0000"/><stop offset="1" stop-color="#930000"/></linearGradient><linearGradient x1="206.2591" y1="165.86354" x2="214.32565" y2="165.86354" gradientUnits="userSpaceOnUse" id="color-8"><stop offset="0" stop-color="#000000" stop-opacity="0.5098"/><stop offset="1" stop-color="#ffffff" stop-opacity="0.52549"/></linearGradient><linearGradient x1="205.60778" y1="168.36226" x2="197.71787" y2="169.53116" gradientUnits="userSpaceOnUse" id="color-9"><stop offset="0" stop-color="#8e0000"/><stop offset="1" stop-color="#ff0000"/></linearGradient><linearGradient x1="199.45151" y1="172.08251" x2="207.37412" y2="172.08251" gradientUnits="userSpaceOnUse" id="color-10"><stop offset="0" stop-color="#000000" stop-opacity="0.5098"/><stop offset="1" stop-color="#ffffff" stop-opacity="0.52549"/></linearGradient><linearGradient x1="208.80471" y1="171.43553" x2="204.33601" y2="172.09758" gradientUnits="userSpaceOnUse" id="color-11"><stop offset="0" stop-color="#d60000"/><stop offset="1" stop-color="#600000"/></linearGradient><linearGradient x1="205.70327" y1="173.46914" x2="208.81395" y2="173.46914" gradientUnits="userSpaceOnUse" id="color-12"><stop offset="0" stop-color="#000000" stop-opacity="0.5098"/><stop offset="1" stop-color="#ffffff" stop-opacity="0.52549"/></linearGradient><linearGradient x1="212.49603" y1="174.97584" x2="208.02734" y2="175.63789" gradientUnits="userSpaceOnUse" id="color-13"><stop offset="0" stop-color="#ff0000"/><stop offset="1" stop-color="#930000"/></linearGradient><linearGradient x1="208.01808" y1="175.51285" x2="212.50528" y2="175.51285" gradientUnits="userSpaceOnUse" id="color-14"><stop offset="0" stop-color="#000000" stop-opacity="0.5098"/><stop offset="1" stop-color="#ffffff" stop-opacity="0.52549"/></linearGradient><linearGradient x1="217.87743" y1="168.60213" x2="212.20772" y2="169.4421" gradientUnits="userSpaceOnUse" id="color-15"><stop offset="0" stop-color="#ff0000"/><stop offset="1" stop-color="#930000"/></linearGradient><linearGradient x1="212.19598" y1="169.0221" x2="217.88917" y2="169.0221" gradientUnits="userSpaceOnUse" id="color-16"><stop offset="0" stop-color="#000000" stop-opacity="0.5098"/><stop offset="1" stop-color="#ffffff" stop-opacity="0.52549"/></linearGradient><linearGradient x1="214.51304" y1="197.17176" x2="204.78267" y2="195.78398" gradientUnits="userSpaceOnUse" id="color-17"><stop offset="0" stop-color="#ff0000"/><stop offset="1" stop-color="#930000"/></linearGradient><linearGradient x1="206.00378" y1="194.85282" x2="214.53173" y2="194.85282" gradientUnits="userSpaceOnUse" id="color-18"><stop offset="0" stop-color="#000000" stop-opacity="0.5098"/><stop offset="1" stop-color="#ffffff" stop-opacity="0.52549"/></linearGradient><linearGradient x1="204.73682" y1="192.58728" x2="196.84069" y2="191.46113" gradientUnits="userSpaceOnUse" id="color-19"><stop offset="0" stop-color="#8e0000"/><stop offset="1" stop-color="#ff0000"/></linearGradient><linearGradient x1="198.09834" y1="188.50258" x2="206.02481" y2="188.50258" gradientUnits="userSpaceOnUse" id="color-20"><stop offset="0" stop-color="#000000" stop-opacity="0.5098"/><stop offset="1" stop-color="#ffffff" stop-opacity="0.52549"/></linearGradient><linearGradient x1="208.97523" y1="189.71343" x2="204.50303" y2="189.07561" gradientUnits="userSpaceOnUse" id="color-21"><stop offset="0" stop-color="#d60000"/><stop offset="1" stop-color="#600000"/></linearGradient><linearGradient x1="205.76727" y1="186.11745" x2="208.98092" y2="186.11745" gradientUnits="userSpaceOnUse" id="color-22"><stop offset="0" stop-color="#000000" stop-opacity="0.5098"/><stop offset="1" stop-color="#ffffff" stop-opacity="0.52549"/></linearGradient><linearGradient x1="212.86171" y1="186.78487" x2="208.3895" y2="186.14704" gradientUnits="userSpaceOnUse" id="color-23"><stop offset="0" stop-color="#ff0000"/><stop offset="1" stop-color="#930000"/></linearGradient><linearGradient x1="209.96753" y1="186.4845" x2="212.87029" y2="186.4845" gradientUnits="userSpaceOnUse" id="color-24"><stop offset="0" stop-color="#000000" stop-opacity="0.5098"/><stop offset="1" stop-color="#ffffff" stop-opacity="0.52549"/></linearGradient><linearGradient x1="217.64126" y1="192.49307" x2="211.96708" y2="191.68382" gradientUnits="userSpaceOnUse" id="color-25"><stop offset="0" stop-color="#ff0000"/><stop offset="1" stop-color="#930000"/></linearGradient><linearGradient x1="211.95617" y1="192.08845" x2="217.65214" y2="192.08845" gradientUnits="userSpaceOnUse" id="color-26"><stop offset="0" stop-color="#000000" stop-opacity="0.5098"/><stop offset="1" stop-color="#ffffff" stop-opacity="0.52549"/></linearGradient><linearGradient x1="275.68585" y1="180.90534" x2="191.89196" y2="180.90534" gradientUnits="userSpaceOnUse" id="color-27"><stop offset="0" stop-color="#ff2929"/><stop offset="1" stop-color="#d50000"/></linearGradient><linearGradient x1="241.26086" y1="180.17691" x2="221.06482" y2="180.09019" gradientUnits="userSpaceOnUse" id="color-28"><stop offset="0" stop-color="#1a1a1a" stop-opacity="0"/><stop offset="1" stop-color="#1a1a1a"/></linearGradient><radialGradient cx="262.69541" cy="179.90705" r="17.28779" gradientUnits="userSpaceOnUse" id="color-29"><stop offset="0" stop-color="#ff5656"/><stop offset="1" stop-color="#ff5656" stop-opacity="0"/></radialGradient><radialGradient cx="258.70714" cy="169.15307" r="13.90822" gradientUnits="userSpaceOnUse" id="color-30"><stop offset="0" stop-color="#ff5656"/><stop offset="1" stop-color="#ff5656" stop-opacity="0"/></radialGradient><radialGradient cx="264.59761" cy="176.56705" r="12.60838" gradientUnits="userSpaceOnUse" id="color-31"><stop offset="0" stop-color="#ff6d6d"/><stop offset="1" stop-color="#ff6d6d" stop-opacity="0"/></radialGradient><radialGradient cx="256.66347" cy="158.18674" r="7.14908" gradientUnits="userSpaceOnUse" id="color-32"><stop offset="0" stop-color="#ff4e4e"/><stop offset="1" stop-color="#ff4e4e" stop-opacity="0"/></radialGradient><radialGradient cx="257.14106" cy="200.61468" r="7.14908" gradientUnits="userSpaceOnUse" id="color-33"><stop offset="0" stop-color="#ff4e4e"/><stop offset="1" stop-color="#ff4e4e" stop-opacity="0"/></radialGradient><radialGradient cx="262.18485" cy="164.24487" r="8.60279" gradientUnits="userSpaceOnUse" id="color-34"><stop offset="0" stop-color="#ff7e7e"/><stop offset="1" stop-color="#ff7e7e" stop-opacity="0"/></radialGradient><radialGradient cx="268.21284" cy="193.10473" r="5.80006" gradientUnits="userSpaceOnUse" id="color-35"><stop offset="0" stop-color="#ff8989"/><stop offset="1" stop-color="#ff8989" stop-opacity="0"/></radialGradient><radialGradient cx="271.33246" cy="187.4103" r="5.80006" gradientUnits="userSpaceOnUse" id="color-36"><stop offset="0" stop-color="#ff6060"/><stop offset="1" stop-color="#ff6060" stop-opacity="0"/></radialGradient><linearGradient x1="239.39997" y1="173.6615" x2="230.32218" y2="173.6615" gradientUnits="userSpaceOnUse" id="color-37"><stop offset="0" stop-color="#000000"/><stop offset="1" stop-color="#737373"/></linearGradient><linearGradient x1="239.51666" y1="185.97326" x2="230.43887" y2="185.97326" gradientUnits="userSpaceOnUse" id="color-38"><stop offset="0" stop-color="#000000"/><stop offset="1" stop-color="#737373"/></linearGradient><radialGradient cx="270.78613" cy="172.06912" r="5.38692" gradientUnits="userSpaceOnUse" id="color-39"><stop offset="0" stop-color="#ff7e7e"/><stop offset="1" stop-color="#ff7e7e" stop-opacity="0"/></radialGradient><radialGradient cx="262.32211" cy="195.70585" r="9.17962" gradientUnits="userSpaceOnUse" id="color-40"><stop offset="0" stop-color="#ff6060"/><stop offset="1" stop-color="#ff6060" stop-opacity="0"/></radialGradient><radialGradient cx="266.98479" cy="165.2712" r="3.5723" gradientUnits="userSpaceOnUse" id="color-41"><stop offset="0" stop-color="#ffb5b5"/><stop offset="1" stop-color="#ffb5b5" stop-opacity="0"/></radialGradient><radialGradient cx="243.71767" cy="202.48681" r="5.80005" gradientUnits="userSpaceOnUse" id="color-42"><stop offset="0" stop-color="#dc0000"/><stop offset="1" stop-color="#dc0000" stop-opacity="0"/></radialGradient><radialGradient cx="242.96617" cy="159.99636" r="5.80005" gradientUnits="userSpaceOnUse" id="color-43"><stop offset="0" stop-color="#dc0000"/><stop offset="1" stop-color="#dc0000" stop-opacity="0"/></radialGradient><radialGradient cx="265.91321" cy="179.25146" r="8.60278" gradientUnits="userSpaceOnUse" id="color-44"><stop offset="0" stop-color="#ff6060"/><stop offset="1" stop-color="#ff6060" stop-opacity="0"/></radialGradient><radialGradient cx="206.71414" cy="165.81125" r="8.60279" gradientUnits="userSpaceOnUse" id="color-45"><stop offset="0" stop-color="#ff6060"/><stop offset="1" stop-color="#ff6060" stop-opacity="0"/></radialGradient></defs><g transform="translate(-191.46509,-136.41985)"><g data-paper-data="{&quot;isPaintingLayer&quot;:true}" fill-rule="nonzero" stroke-linecap="butt" stroke-linejoin="miter" stroke-miterlimit="10" stroke-dasharray="" stroke-dashoffset="0" style="mix-blend-mode: normal"><path d="M196.41992,180.00003c0,-24.06867 19.51151,-43.58018 43.58018,-43.58018c24.06867,0 43.58018,19.51152 43.58018,43.58018c0,24.06867 -19.51151,43.58018 -43.58018,43.58018c-24.06867,0 -43.58018,-19.51152 -43.58018,-43.58018z" data-paper-data="{&quot;index&quot;:null}" fill="url(#color-1)" stroke="none" stroke-width="0"/><g><path d="M214.92507,158.42913c10.99138,0.2337 14.19853,5.51341 20.05662,5.26282c4.15107,-0.1075 3.95676,33.76583 -1.13098,33.72506c-5.08775,-0.04076 -10.01074,5.1531 -18.15916,5.76562c-9.55146,-0.23303 -10.97168,-10.14615 -15.82091,-12.26349c-6.27678,-2.74066 -8.40555,-0.92067 -8.40555,-0.92067c0,0 7.58803,-5.67231 22.34493,-5.77982c6.69805,-0.04879 12.79724,4.12862 12.79724,4.12862l-3.30793,-7.52593l3.72926,-7.4324c0,0 -6.45391,5.00811 -14.00654,4.76265c-14.11756,-0.45883 -20.52721,-6.69392 -20.52721,-6.69392c0,0 1.93841,1.14968 6.73122,-1.20089c5.34587,-2.62181 12.02695,-11.90573 15.69901,-11.82765z" data-paper-data="{&quot;index&quot;:null}" fill="url(#color-2)" stroke="none" stroke-width="0"/><path d="M223.57655,187.61551c2.67531,0.38156 4.53476,2.85963 4.15319,5.53494c-0.38156,2.67531 -2.85963,4.53476 -5.53494,4.1532c-2.67531,-0.38156 -4.53476,-2.85963 -4.1532,-5.53495c0.38156,-2.67531 2.85963,-4.53476 5.53495,-4.15319z" data-paper-data="{&quot;index&quot;:null}" fill="url(#color-3)" stroke="none" stroke-width="0"/><path d="M214.69892,185.15141c4.23415,0.60388 7.17706,4.52587 6.57318,8.76003c-0.60388,4.23415 -4.52587,7.17706 -8.76003,6.57318c-4.23417,-0.60389 -5.90423,-8.04749 -5.30035,-12.28166c0.60388,-4.23415 3.25304,-3.65544 7.4872,-3.05156z" data-paper-data="{&quot;index&quot;:null}" fill="url(#color-4)" stroke="none" stroke-width="0"/><path d="M213.3256,161.73903c3.96497,-0.58741 7.65537,2.15062 8.24279,6.11559c0.58741,3.96497 -2.15061,7.65537 -6.11556,8.24279c-3.96497,0.58741 -7.65538,-1.01481 -8.2428,-4.97977c-0.58741,-3.96497 2.15063,-8.79119 6.11558,-9.37861z" data-paper-data="{&quot;index&quot;:null}" fill="url(#color-5)" stroke="none" stroke-width="0"/><path d="M221.86866,165.40073c2.4828,-0.36783 4.79367,1.34669 5.1615,3.82949c0.36783,2.4828 -1.34668,4.79367 -3.82949,5.1615c-2.4828,0.36783 -4.79368,-1.34669 -5.16151,-3.82948c-0.36783,-2.4828 1.34669,-4.79367 3.8295,-5.1615z" data-paper-data="{&quot;index&quot;:null}" fill="url(#color-6)" stroke="none" stroke-width="0"/><g stroke-width="1.5"><path d="M209.00452,162.84164c2.68486,-0.39777 5.05818,-0.52745 5.30099,1.11143c0.2428,1.63888 -1.73686,3.28992 -4.42172,3.68768c-2.68486,0.39777 -3.3082,2.52744 -3.551,0.88856c-0.2428,-1.63888 -0.01313,-5.28991 2.67173,-5.68767z" data-paper-data="{&quot;index&quot;:null}" fill="url(#color-7)" stroke="url(#color-8)"/><path d="M203.05606,169.67444c2.17875,-0.32278 4.10468,0.49368 4.30171,1.82363c0.19703,1.32995 -1.40945,2.66974 -3.58819,2.99252c-2.17875,0.32278 -4.10469,-0.49368 -4.30172,-1.82363c-0.19703,-1.32995 1.40946,-2.66974 3.5882,-2.99253z" data-paper-data="{&quot;index&quot;:null}" fill="url(#color-9)" stroke="url(#color-10)"/><path d="M206.3683,171.53848c1.23399,-0.18282 2.3248,0.27961 2.43639,1.03287c0.11159,0.75326 -0.79828,1.51208 -2.03227,1.69489c-1.23399,0.18282 -0.57482,1.72039 -0.68641,0.96714c-0.11159,-0.75326 -0.95172,-3.51209 0.28229,-3.69491z" data-paper-data="{&quot;index&quot;:null}" fill="url(#color-11)" stroke="url(#color-12)"/><path d="M210.05962,173.94298c1.23399,-0.18282 2.32481,0.27961 2.4364,1.03287c0.11159,0.75326 -0.79828,1.51209 -2.03228,1.69491c-1.23399,0.18282 -2.32481,0.8562 -2.4364,0.10294c-0.11159,-0.75326 0.79828,-2.6479 2.03228,-2.83072z" data-paper-data="{&quot;index&quot;:null}" fill="url(#color-13)" stroke="url(#color-14)"/><path d="M214.78621,167.29166c1.56565,-0.23195 2.94962,0.35476 3.09121,1.31046c0.14159,0.9557 -1.01283,1.91848 -2.57847,2.15042c-1.56565,0.23195 -2.94962,-0.35475 -3.09122,-1.31046c-0.14159,-0.9557 1.01283,-1.91848 2.57848,-2.15043z" data-paper-data="{&quot;index&quot;:null}" fill="url(#color-15)" stroke="url(#color-16)"/><path d="M206.05551,192.26237c0.23392,-1.64018 1.32894,0.86248 4.01591,1.2457c2.68697,0.38322 4.67555,2.0235 4.44162,3.66368c-0.23392,1.64018 -2.82893,0.38753 -5.5159,0.00431c-2.68697,-0.38322 -3.17556,-3.2735 -2.94163,-4.91369z" data-paper-data="{&quot;index&quot;:null}" fill="url(#color-17)" stroke="url(#color-18)"/><path d="M198.11352,187.93951c0.18983,-1.331 2.11132,-2.15787 4.29178,-1.8469c2.18046,0.31098 3.79418,1.64205 3.60434,2.97305c-0.18983,1.331 -2.11132,2.15787 -4.29177,1.8469c-2.18046,-0.31098 -3.79419,-1.64205 -3.60435,-2.97305z" data-paper-data="{&quot;index&quot;:null}" fill="url(#color-19)" stroke="url(#color-20)"/><path d="M205.77587,185.55399c0.10751,-0.75385 1.19581,-1.22218 2.43078,-1.04604c1.23497,0.17613 0.64893,2.18003 0.54142,2.93387c-0.10751,0.75385 0.30419,-0.02781 -0.93076,-0.20396c-1.23497,-0.17613 -2.14895,-0.93003 -2.04144,-1.68388z" data-paper-data="{&quot;index&quot;:null}" fill="url(#color-21)" stroke="url(#color-22)"/><path d="M210.82027,185.101c1.23497,0.17613 2.14894,0.93003 2.04143,1.68388c-0.10751,0.75385 -1.19582,1.22219 -2.43077,1.04604c-1.23497,-0.17613 0.38934,-2.72992 0.38934,-2.72992z" data-paper-data="{&quot;index&quot;:null}" fill="url(#color-23)" stroke="url(#color-24)"/><path d="M211.96708,191.68382c0.13641,-0.95645 1.51721,-1.55065 3.08408,-1.32718c1.56688,0.22347 2.72649,1.17999 2.59008,2.13644c-0.13641,0.95645 -1.5172,1.55066 -3.08407,1.32719c-1.56688,-0.22347 -2.7265,-1.17999 -2.59009,-2.13645z" data-paper-data="{&quot;index&quot;:null}" fill="url(#color-25)" stroke="url(#color-26)"/></g></g><g stroke-width="0"><path d="M231.1236,159.34943c4.9205,-0.13292 5.34754,-4.60394 12.89125,-8.78009c10.57293,-5.85312 23.08986,-0.27563 27.40185,3.52446c4.31199,3.8001 11.91924,11.49014 11.63181,26.13371c-0.27094,13.80347 -6.72152,21.8163 -12.2062,26.57751c-5.55441,4.82173 -18.26467,7.4928 -27.20335,2.99917c-10.80507,-5.43189 -7.82518,-8.7062 -13.85599,-8.75662c-6.0308,-0.0504 -8.58608,-11.21395 -8.58608,-11.21395l0.18372,-3.9843l-1.59047,-4.83511l1.65444,-4.89022l0.25174,-4.78507c0,0 2.48334,-11.67968 9.42727,-11.9895z" data-paper-data="{&quot;index&quot;:null}" fill="url(#color-27)" stroke="none"/><path d="M222.46023,193.04696c-2.08916,-3.15093 4.24646,-12.43277 4.24646,-12.43277c0,0 -6.55742,-8.83539 -5.42976,-11.92411c1.43966,-3.94333 3.99754,-6.44762 8.25209,-6.42934c4.89504,0.02102 9.18227,1.31431 11.57665,6.33729c1.3168,2.76241 -3.33996,11.81379 -3.33996,11.81379c0,0 5.01568,9.06779 3.34623,12.00687c-2.53164,4.45697 -6.59096,5.59516 -11.16306,5.57553c-4.57208,-0.01964 -7.48865,-4.94724 -7.48865,-4.94724z" data-paper-data="{&quot;index&quot;:null}" fill="url(#color-28)" stroke="none"/><path d="M224.67275,187.72658c0,-4.33952 3.37262,-7.85743 7.53295,-7.85743c4.16031,0 7.53295,3.51789 7.53295,7.85743c0,4.33952 -3.37261,7.85741 -7.53295,7.85741c-4.16031,0 -7.53295,-3.51787 -7.53295,-7.85741z" data-paper-data="{&quot;index&quot;:null}" fill="#ffffff" stroke="#000000"/><path d="M224.67275,172.50114c0,-4.33951 3.37262,-7.85741 7.53295,-7.85741c4.16031,0 7.53295,3.51787 7.53295,7.85741c0,4.33951 -3.37261,7.85742 -7.53295,7.85742c-4.16031,0 -7.53295,-3.51788 -7.53295,-7.85742z" data-paper-data="{&quot;index&quot;:null}" fill="#ffffff" stroke="#000000"/><path d="M262.69541,161.87464c9.54779,0 17.2878,8.0734 17.2878,18.03244c0,9.95904 -7.74,18.03243 -17.2878,18.03243c-9.54779,0 -17.2878,-8.07339 -17.2878,-18.03243c0,-9.95904 7.74,-18.03244 17.28779,-18.03244z" data-paper-data="{&quot;index&quot;:null}" fill="url(#color-29)" stroke="none"/><path d="M258.70714,154.64573c7.68131,0 13.90822,6.49513 13.90822,14.5073c0,8.01217 -6.22692,14.50729 -13.90823,14.50729c-7.68131,0 -13.90823,-6.49512 -13.90823,-14.50729c0,-8.01217 6.22692,-14.5073 13.90823,-14.5073z" data-paper-data="{&quot;index&quot;:null}" fill="url(#color-30)" stroke="none"/><path d="M264.59761,163.41557c6.96343,0 12.60838,5.88811 12.60838,13.15147c0,7.26336 -5.64496,13.15147 -12.60838,13.15147c-6.96343,0 -12.60839,-5.88811 -12.60839,-13.15147c0,-7.26336 5.64496,-13.15147 12.60838,-13.15147z" data-paper-data="{&quot;index&quot;:null}" fill="url(#color-31)" stroke="none"/><path d="M256.66347,150.72974c3.94833,0 7.14908,3.33862 7.14908,7.45702c0,4.11841 -3.20074,7.45702 -7.14908,7.45702c-3.94833,0 -7.14908,-3.33861 -7.14908,-7.45702c0,-4.11841 3.20075,-7.45702 7.14908,-7.45702z" data-paper-data="{&quot;index&quot;:null}" fill="url(#color-32)" stroke="none"/><path d="M257.14106,193.15768c3.94833,0 7.14908,3.33861 7.14908,7.45702c0,4.1184 -3.20075,7.45702 -7.14908,7.45702c-3.94833,0 -7.14908,-3.33861 -7.14908,-7.45701c0,-4.1184 3.20075,-7.45702 7.14908,-7.45702z" data-paper-data="{&quot;index&quot;:null}" fill="url(#color-33)" stroke="none"/><path d="M262.18485,155.27153c4.7512,0 8.60278,4.0175 8.60278,8.97334c0,4.95585 -3.85158,8.97334 -8.60277,8.97334c-4.7512,0 -8.60278,-4.0175 -8.60278,-8.97334c0,-4.95585 3.85161,-8.97334 8.60278,-8.97334z" data-paper-data="{&quot;index&quot;:null}" fill="url(#color-34)" stroke="none"/><path d="M268.21284,187.05483c3.2033,0 5.80005,2.70863 5.80005,6.04988c0,3.34128 -2.59678,6.04989 -5.80005,6.04989c-3.2033,0 -5.80006,-2.70863 -5.80006,-6.04989c0,-3.34128 2.59678,-6.04988 5.80006,-6.04988z" data-paper-data="{&quot;index&quot;:null}" fill="url(#color-35)" stroke="none"/><path d="M271.33246,181.36042c3.2033,0 5.80005,2.70863 5.80005,6.04988c0,3.34128 -2.59678,6.04989 -5.80005,6.04989c-3.2033,0 -5.80006,-2.70863 -5.80006,-6.04989c0,-3.34128 2.59678,-6.04988 5.80006,-6.04988z" data-paper-data="{&quot;index&quot;:null}" fill="url(#color-36)" stroke="none"/><path d="M234.86109,168.92711c2.50677,0 4.53888,2.11967 4.53888,4.73439c0,2.61474 -2.03214,4.73439 -4.53888,4.73439c-2.50677,0 -4.53888,-2.11967 -4.53888,-4.73439c0,-2.61474 2.03214,-4.73439 4.53888,-4.73439z" data-paper-data="{&quot;index&quot;:null}" fill="url(#color-37)" stroke="none"/><path d="M234.97776,181.2389c2.50677,0 4.53889,2.11967 4.53889,4.7344c0,2.61474 -2.03214,4.7344 -4.53889,4.7344c-2.50677,0 -4.53889,-2.11967 -4.53889,-4.7344c0,-2.61474 2.03214,-4.7344 4.53889,-4.7344z" data-paper-data="{&quot;index&quot;:null}" fill="url(#color-38)" stroke="none"/><path d="M270.78613,166.45013c2.97511,0 5.38692,2.51569 5.38692,5.61895c0,3.10326 -2.4118,5.61895 -5.38692,5.61895c-2.97511,0 -5.38694,-2.51569 -5.38694,-5.61895c0,-3.10326 2.41181,-5.61895 5.38694,-5.61895z" data-paper-data="{&quot;index&quot;:null}" fill="url(#color-39)" stroke="none"/><path d="M262.32211,186.13081c5.06977,0 9.17962,4.28688 9.17962,9.57502c0,5.28814 -4.10985,9.57502 -9.17962,9.57502c-5.06978,0 -9.17963,-4.28688 -9.17963,-9.57502c0,-5.28814 4.10985,-9.57502 9.17963,-9.57502z" data-paper-data="{&quot;index&quot;:null}" fill="url(#color-40)" stroke="none"/><path d="M266.98479,161.54499c1.97293,0 3.5723,1.66826 3.5723,3.72617c0,2.05791 -1.59936,3.72617 -3.5723,3.72617c-1.97293,0 -3.57231,-1.66826 -3.57231,-3.72617c0,-2.05791 1.59937,-3.72617 3.57231,-3.72617z" data-paper-data="{&quot;index&quot;:null}" fill="url(#color-41)" stroke="none"/><path d="M243.71767,196.43695c3.2033,0 5.80005,2.70863 5.80005,6.04989c0,3.34126 -2.59678,6.04988 -5.80005,6.04988c-3.2033,0 -5.80006,-2.70863 -5.80006,-6.04988c0,-3.34128 2.59679,-6.04989 5.80006,-6.04989z" data-paper-data="{&quot;index&quot;:null}" fill="url(#color-42)" stroke="none"/><path d="M242.96617,153.94646c3.2033,0 5.80005,2.70863 5.80005,6.04988c0,3.34126 -2.59678,6.04988 -5.80005,6.04988c-3.2033,0 -5.80006,-2.70863 -5.80006,-6.04988c0,-3.34126 2.59679,-6.04988 5.80006,-6.04988z" data-paper-data="{&quot;index&quot;:null}" fill="url(#color-43)" stroke="none"/><path d="M265.91321,170.27817c4.7512,0 8.60278,4.0175 8.60278,8.97334c0,4.95585 -3.85158,8.97334 -8.60277,8.97334c-4.7512,0 -8.60279,-4.0175 -8.60279,-8.97334c0,-4.95585 3.85162,-8.97334 8.60279,-8.97334z" data-paper-data="{&quot;index&quot;:null}" fill="url(#color-44)" stroke="none"/><path d="" data-paper-data="{&quot;index&quot;:null}" fill="url(#color-45)" stroke="none"/></g><path d="M227.84029,181.06785l-0.52192,-2.23877l7.40408,-0.30968l3.78451,-12.28489l1.79025,6.16794l-1.92989,7.34117l1.83421,7.65573l-1.0279,4.66849l-4.54061,-11.14593z" fill="#000000" stroke="none" stroke-width="0"/></g></g></svg>