<svg version="1.1" xmlns="http://www.w3.org/2000/svg" xmlns:xlink="http://www.w3.org/1999/xlink" width="189.74257" height="177.75957" viewBox="0,0,189.74257,177.75957"><defs><linearGradient x1="106.03662" y1="165.71352" x2="114.61091" y2="234.94999" gradientUnits="userSpaceOnUse" id="color-1"><stop offset="0" stop-color="#dcd0e8"/><stop offset="1" stop-color="#ffffff"/></linearGradient><linearGradient x1="172.55634" y1="144.83101" x2="237.87944" y2="166.43076" gradientUnits="userSpaceOnUse" id="color-2"><stop offset="0" stop-color="#ffffff"/><stop offset="1" stop-color="#dcd0e8"/></linearGradient><linearGradient x1="178.48456" y1="119.45439" x2="226.01078" y2="102.05968" gradientUnits="userSpaceOnUse" id="color-3"><stop offset="0" stop-color="#dcd0e8"/><stop offset="1" stop-color="#ffffff"/></linearGradient><linearGradient x1="183.94623" y1="211.9069" x2="217.22815" y2="104.72633" gradientUnits="userSpaceOnUse" id="color-4"><stop offset="0" stop-color="#f6f3f9"/><stop offset="1" stop-color="#e7def0"/></linearGradient><linearGradient x1="155.55643" y1="132.29807" x2="182.32257" y2="126.10173" gradientUnits="userSpaceOnUse" id="color-5"><stop offset="0" stop-color="#636363"/><stop offset="1" stop-color="#000000"/></linearGradient><linearGradient x1="217.54411" y1="164.72193" x2="234.44141" y2="113.94479" gradientUnits="userSpaceOnUse" id="color-6"><stop offset="0" stop-color="#ffffff"/><stop offset="1" stop-color="#dcd0e8"/></linearGradient><linearGradient x1="89.94392" y1="109.06828" x2="97.07954" y2="142.43263" gradientUnits="userSpaceOnUse" id="color-7"><stop offset="0" stop-color="#000000"/><stop offset="1" stop-color="#636363"/></linearGradient><linearGradient x1="86.40139" y1="126.95022" x2="139.24869" y2="161.17536" gradientUnits="userSpaceOnUse" id="color-8"><stop offset="0" stop-color="#ffffff"/><stop offset="1" stop-color="#e9e0f2"/></linearGradient><linearGradient x1="91.35181" y1="148.56811" x2="92.30323" y2="153.01669" gradientUnits="userSpaceOnUse" id="color-9"><stop offset="0" stop-color="#ffffff"/><stop offset="1" stop-color="#000000"/></linearGradient><linearGradient x1="112.43322" y1="127.85413" x2="116.3301" y2="146.07502" gradientUnits="userSpaceOnUse" id="color-10"><stop offset="0" stop-color="#000000"/><stop offset="1" stop-color="#636363"/></linearGradient><linearGradient x1="135.87583" y1="104.50308" x2="142.83461" y2="137.04063" gradientUnits="userSpaceOnUse" id="color-11"><stop offset="0" stop-color="#ffffff"/><stop offset="1" stop-color="#dcd0e8"/></linearGradient><linearGradient x1="143.03377" y1="108.95646" x2="145.7823" y2="121.80791" gradientUnits="userSpaceOnUse" id="color-12"><stop offset="0" stop-color="#000000"/><stop offset="1" stop-color="#000000" stop-opacity="0"/></linearGradient><linearGradient x1="143.31086" y1="122.33647" x2="144.42085" y2="127.52648" gradientUnits="userSpaceOnUse" id="color-13"><stop offset="0" stop-color="#000000"/><stop offset="1" stop-color="#000000" stop-opacity="0"/></linearGradient><linearGradient x1="151.02516" y1="120.94508" x2="152.87514" y2="129.59508" gradientUnits="userSpaceOnUse" id="color-14"><stop offset="0" stop-color="#000000"/><stop offset="1" stop-color="#000000" stop-opacity="0"/></linearGradient><linearGradient x1="151.89305" y1="113.52291" x2="153.26732" y2="119.94865" gradientUnits="userSpaceOnUse" id="color-15"><stop offset="0" stop-color="#000000"/><stop offset="1" stop-color="#000000" stop-opacity="0"/></linearGradient><linearGradient x1="108.62467" y1="209.22083" x2="158.042" y2="203.10095" gradientUnits="userSpaceOnUse" id="color-16"><stop offset="0" stop-color="#ffffff"/><stop offset="1" stop-color="#eae2f1"/></linearGradient></defs><g transform="translate(-76.3038,-71.89978)"><g data-paper-data="{&quot;isPaintingLayer&quot;:true}" fill-rule="nonzero" stroke-linejoin="miter" stroke-miterlimit="10" stroke-dasharray="" stroke-dashoffset="0" style="mix-blend-mode: normal"><path d="M83.88086,232.79442l-1.57402,-7.56124l29.40047,-50.51513l24.96027,-12.79789l-14.63917,60.86175l-13.59335,12.93289z" fill="url(#color-1)" stroke="none" stroke-width="0" stroke-linecap="butt"/><path d="M243.8278,178.40395l-6.75909,2.88996l-5.03322,-4.3l-13.64027,-11.23327l-12.24644,14.08844l-13.77701,-0.28365l-16.79123,-9.37894l-2.93565,-18.55809l11.96867,-19.08436l21.51549,-4.79416l15.69915,5.7636l5.31907,8.35601l7.28033,-0.28956l7.58727,23.79291z" fill="url(#color-2)" stroke="none" stroke-width="0" stroke-linecap="butt"/><path d="M197.50979,104.92852l3.16956,-16.00299l-0.03937,-17.02575l11.97607,17.98025l2.70147,17.59288l-7.46765,20.55686l-9.93113,4.44006l-10.50822,-6.41327z" data-paper-data="{&quot;index&quot;:null}" fill="url(#color-3)" stroke="none" stroke-width="0" stroke-linecap="butt"/><path d="M197.76787,168.93238l-48.98163,16.93537l-30.40716,-15.94483l7.49007,-28.40242l39.95563,-10.95774l45.77592,-15.80836l26.73621,22.74473z" fill="url(#color-4)" stroke="none" stroke-width="0" stroke-linecap="butt"/><path d="M172.93606,140.57381l-21.45247,-6.08948l16.47702,-6.61943l13.64479,-3.04855z" fill="url(#color-5)" stroke="none" stroke-width="0" stroke-linecap="butt"/><path d="M266.04637,159.96001l-6.76458,2.87709l-5.02502,-4.30958l-14.93379,-8.98203l-12.27324,14.06508l-13.77645,-0.30989l-16.77333,-9.4109l-5.00489,-19.264l14.10958,-18.36118l21.52459,-4.75319l15.68815,5.7935l5.30315,8.36613l7.28086,-0.2757l10.06439,22.69576z" fill="url(#color-6)" stroke="none" stroke-width="0" stroke-linecap="butt"/><g><path d="M87.07288,144.57274l-10.76908,-10.44926l2.02704,-22.57151l18.26725,-3.04218l13.09921,4.08728l1.04993,23.03574z" fill="url(#color-7)" stroke="none" stroke-width="0" stroke-linecap="butt"/><path d="M89.02887,175.16813l-8.99082,-12.39052l0.63374,-12.18382l9.52681,-4.86254l-4.28379,-13.00518l5.12194,-12.93337l19.23493,-12.85363l22.72723,1.43691l16.98803,12.92654l-1.66066,25.85604l-8.27733,10.37829l-14.63136,13.02241l-16.21258,4.87085z" fill="url(#color-8)" stroke="none" stroke-width="0" stroke-linecap="butt"/><path d="M98.50147,146.65134l4.2064,8.79217l-9.0836,4.6564l-9.45215,-0.69217l0.24217,-9.74358z" data-paper-data="{&quot;index&quot;:null}" fill="#000000" stroke="none" stroke-width="0" stroke-linecap="butt"/><path d="M86.18644,154.32489l-0.20999,-4.60715l10.75073,-2.29926l0.20999,4.60715z" fill="url(#color-9)" stroke="none" stroke-width="0" stroke-linecap="butt"/><path d="M112.2032,146.95765l-7.98223,-9.04508l7.35751,-9.87562l11.594,1.57457l0.99604,12.24782z" data-paper-data="{&quot;index&quot;:null}" fill="url(#color-10)" stroke="none" stroke-width="0" stroke-linecap="butt"/><path d="M99.36023,139.25493l-2.51708,4.11596l-4.95939,0.67083l-2.01993,-5.64406l4.7679,-3.12971z" data-paper-data="{&quot;index&quot;:null}" fill="#000000" stroke="none" stroke-width="0" stroke-linecap="butt"/><path d="M128.1991,136.29401l-8.46422,-21.45005l10.28149,-9.0877l20.43787,-4.97722l9.29928,19.89072l-6.29438,14.09862z" data-paper-data="{&quot;index&quot;:null}" fill="url(#color-11)" stroke="none" stroke-width="0" stroke-linecap="butt"/><path d="M95.12283,164.68994l-1.97426,-6.81431" fill="none" stroke="#000000" stroke-width="1.5" stroke-linecap="round"/><path d="M139.74731,117.15432l3.41003,-8.22428l5.8057,4.18574l-3.55146,8.77143z" data-paper-data="{&quot;index&quot;:null}" fill="url(#color-12)" stroke="none" stroke-width="0" stroke-linecap="butt"/><path d="M141.33156,128.18718l1.11431,-5.66572l5.06428,4.34431z" fill="url(#color-13)" stroke="none" stroke-width="0" stroke-linecap="butt"/><path d="M148.69155,129.97294l-0.77426,-6.03715l4.51926,0.37059l2.66649,-4.23343l0.72009,6.07548l-2.33011,3.31452z" fill="url(#color-14)" stroke="none" stroke-width="0" stroke-linecap="butt"/><path d="M150.05445,120.63578l3.32145,-7.42999l2.73427,4.32574z" fill="url(#color-15)" stroke="none" stroke-width="0" stroke-linecap="butt"/></g><path d="M142.84143,243.44557l-19.75999,6.21378l-11.07147,-13.10262l18.85065,-39.8555l5.39095,-28.30344l16.63976,-6.88783l-3.24204,61.16052z" fill="url(#color-16)" stroke="none" stroke-width="0" stroke-linecap="butt"/></g></g></svg>