<svg version="1.1" xmlns="http://www.w3.org/2000/svg" xmlns:xlink="http://www.w3.org/1999/xlink" width="37.6" height="43.6" viewBox="0,0,37.6,43.6"><g transform="translate(-221.20002,-158.2)"><g data-paper-data="{&quot;isPaintingLayer&quot;:true}" fill-rule="nonzero" stroke="none" stroke-linecap="butt" stroke-linejoin="miter" stroke-miterlimit="10" stroke-dasharray="" stroke-dashoffset="0" style="mix-blend-mode: normal"><path d="M221.20003,201.8v-43.6h37.6v43.6z" fill="none" stroke-width="0"/><path d="M243.21288,177.25483h7.07645c1.30142,0 2.23681,0.32535 2.80617,0.97606c0.56937,0.63715 0.85405,1.64032 0.85405,3.00952c0,2.00635 -0.31858,3.87035 -0.95573,5.59202c-0.62359,1.72166 -1.53187,3.21965 -2.72484,4.49395c-1.17941,1.26075 -2.61639,2.24358 -4.31094,2.94852c-1.68099,0.70493 -3.545,1.05739 -5.59202,1.05739c-2.76551,0 -5.23955,-0.67104 -7.42213,-2.01312c-2.16903,-1.35564 -3.86358,-3.20609 -5.08365,-5.55135c-1.20652,-2.34526 -1.80978,-4.93453 -1.80978,-7.76782c0,-2.15547 0.34569,-4.16859 1.03707,-6.03938c0.69138,-1.87078 1.67422,-3.50433 2.94852,-4.90064c1.28786,-1.39631 2.80617,-2.47404 4.55495,-3.2332c1.74878,-0.77272 3.67379,-1.15907 5.77503,-1.15907c1.54543,0 3.02308,0.16946 4.43294,0.50837c1.42342,0.33891 2.65028,0.78627 3.68056,1.34208c1.04384,0.55581 1.86401,1.18618 2.46049,1.89112c0.59648,0.70493 0.89472,1.41664 0.89472,2.13513c0,0.88117 -0.25079,1.5861 -0.75238,2.1148c-0.48803,0.5287 -1.09807,0.79305 -1.83011,0.79305c-0.75916,0 -1.66744,-0.33213 -2.72484,-0.99639c-1.04384,-0.67782 -1.93857,-1.18619 -2.68417,-1.5251c-0.7456,-0.33891 -1.90467,-0.50837 -3.47722,-0.50837c-1.65388,0 -3.07731,0.44058 -4.27027,1.32175c-1.17941,0.86761 -2.06735,2.02668 -2.66383,3.47722c-0.59648,1.45053 -0.89472,3.04341 -0.89472,4.77863c0,2.72484 0.67104,5.00231 2.01313,6.83243c1.35564,1.83011 3.29421,2.74517 5.8157,2.74517c1.16585,0 2.29103,-0.23046 3.37554,-0.69138c1.08451,-0.46092 1.97246,-1.18619 2.66383,-2.1758c0.69138,-0.98962 1.03707,-2.23003 1.03707,-3.72123h-4.2296c-0.85405,0 -1.55899,-0.26435 -2.1148,-0.79305c-0.54226,-0.54226 -0.81338,-1.24719 -0.81338,-2.1148c0,-0.8405 0.27791,-1.51832 0.83372,-2.03346c0.56937,-0.5287 1.26752,-0.79305 2.09446,-0.79305z" fill="#ff0000" stroke-width="0.40889"/></g></g></svg>