<svg version="1.1" xmlns="http://www.w3.org/2000/svg" xmlns:xlink="http://www.w3.org/1999/xlink" width="72.11338" height="139.75547" viewBox="0,0,72.11338,139.75547"><defs><radialGradient cx="238.88119" cy="85.17884" r="26.05926" gradientUnits="userSpaceOnUse" id="color-1"><stop offset="0" stop-color="#000000" stop-opacity="0.30588"/><stop offset="1" stop-color="#000000" stop-opacity="0"/></radialGradient><linearGradient x1="249.35132" y1="109.04225" x2="228.41108" y2="61.31545" gradientUnits="userSpaceOnUse" id="color-2"><stop offset="0" stop-color="#ff5454"/><stop offset="1" stop-color="#eb0000"/></linearGradient><radialGradient cx="255.3549" cy="123.77484" r="26.05927" gradientUnits="userSpaceOnUse" id="color-3"><stop offset="0" stop-color="#000000" stop-opacity="0.30588"/><stop offset="1" stop-color="#000000" stop-opacity="0"/></radialGradient><linearGradient x1="265.82503" y1="147.63826" x2="244.88479" y2="99.91145" gradientUnits="userSpaceOnUse" id="color-4"><stop offset="0" stop-color="#ff5454"/><stop offset="1" stop-color="#eb0000"/></linearGradient><radialGradient cx="260.98706" cy="167.65657" r="23.93565" gradientUnits="userSpaceOnUse" id="color-5"><stop offset="0" stop-color="#000000" stop-opacity="0.63137"/><stop offset="1" stop-color="#000000" stop-opacity="0"/></radialGradient><linearGradient x1="270.60396" y1="189.57532" x2="251.37017" y2="145.73782" gradientUnits="userSpaceOnUse" id="color-6"><stop offset="0" stop-color="#ff5454"/><stop offset="1" stop-color="#eb0000"/></linearGradient><linearGradient x1="258.20183" y1="183.26203" x2="278.07539" y2="174.54246" gradientUnits="userSpaceOnUse" id="color-7"><stop offset="0" stop-color="#eb0000"/><stop offset="1" stop-color="#ff5454"/></linearGradient><linearGradient x1="265.55852" y1="145.34493" x2="228.49377" y2="60.86722" gradientUnits="userSpaceOnUse" id="color-8"><stop offset="0" stop-color="#333333"/><stop offset="1" stop-color="#cacaca"/></linearGradient><linearGradient x1="238.02195" y1="52.02369" x2="278.31036" y2="143.84868" gradientUnits="userSpaceOnUse" id="color-9"><stop offset="0" stop-color="#ff4c4c"/><stop offset="1" stop-color="#ec0000"/></linearGradient><linearGradient x1="233.43312" y1="54.74948" x2="273.30111" y2="145.61626" gradientUnits="userSpaceOnUse" id="color-10"><stop offset="0" stop-color="#e8e8e8"/><stop offset="1" stop-color="#9e9e9e"/></linearGradient><linearGradient x1="231.00516" y1="102.68379" x2="237.54602" y2="117.59162" gradientUnits="userSpaceOnUse" id="color-11"><stop offset="0" stop-color="#929292"/><stop offset="1" stop-color="#000000"/></linearGradient><linearGradient x1="255.74451" y1="151.35164" x2="271.03303" y2="186.19708" gradientUnits="userSpaceOnUse" id="color-12"><stop offset="0" stop-color="#929292"/><stop offset="1" stop-color="#000000"/></linearGradient><linearGradient x1="248.24125" y1="159.52354" x2="268.11485" y2="150.80397" gradientUnits="userSpaceOnUse" id="color-13"><stop offset="0" stop-color="#eb0000"/><stop offset="1" stop-color="#ff5454"/></linearGradient></defs><g transform="translate(-212.81539,-51.84276)"><g data-paper-data="{&quot;isPaintingLayer&quot;:true}" fill-rule="nonzero" stroke-linejoin="miter" stroke-miterlimit="10" stroke-dasharray="" stroke-dashoffset="0" style="mix-blend-mode: normal"><path d="M228.41112,61.31542c13.17939,-5.78247 28.55104,0.21391 34.33352,13.39329c5.78247,13.17939 -0.21391,28.55105 -13.39329,34.33352c-13.1794,5.78247 -28.55105,-0.2139 -34.33353,-13.39329c-5.78247,-13.17939 0.21392,-28.55104 13.3933,-34.33352z" fill="url(#color-1)" stroke="url(#color-2)" stroke-width="0" stroke-linecap="butt"/><path d="M244.88482,99.91143c13.17939,-5.78247 28.55103,0.21391 34.33352,13.3933c5.78247,13.17939 -0.21391,28.55105 -13.39329,34.33352c-13.1794,5.78247 -28.55105,-0.21391 -34.33353,-13.39329c-5.78247,-13.1794 0.21392,-28.55105 13.3933,-34.33353z" fill="url(#color-3)" stroke="url(#color-4)" stroke-width="0" stroke-linecap="butt"/><path d="M251.37019,145.73781c12.10537,-5.31125 26.22437,0.19646 31.53563,12.30184c5.31126,12.10538 -0.19647,26.22436 -12.30185,31.53563c-12.10537,5.31125 -26.22437,-0.19646 -31.53563,-12.30184c-5.31126,-12.10538 0.19647,-26.22436 12.30185,-31.53563z" fill="url(#color-5)" stroke="url(#color-6)" stroke-width="0" stroke-linecap="butt"/><path d="M263.77883,168.96545c5.48794,-2.40784 11.88873,0.08907 14.29658,5.577c2.40784,5.48794 -0.08907,11.88873 -5.577,14.29658c-5.48794,2.40784 -11.88873,-0.08907 -14.29658,-5.577c-2.40784,-5.48794 0.08907,-11.88873 5.577,-14.29658z" fill="url(#color-7)" stroke="#000000" stroke-width="0" stroke-linecap="butt"/><g><path d="M270.29116,143.26843l-9.05474,0.58658l-34.64785,-79.61224l6.63783,-5.45201z" data-paper-data="{&quot;index&quot;:null}" fill="url(#color-8)" stroke="none" stroke-width="0" stroke-linecap="butt"/><path d="M234.83125,53.4236l3.60301,-1.58084l3.93681,1.42112l37.97164,86.54467l-1.62005,3.85922l-3.60301,1.58084z" data-paper-data="{&quot;index&quot;:null}" fill="url(#color-9)" stroke="none" stroke-width="0" stroke-linecap="butt"/><path d="M231.65836,55.52816l3.54947,-1.55733l39.86799,90.86678l-3.54947,1.55733z" data-paper-data="{&quot;index&quot;:null}" fill="url(#color-10)" stroke="none" stroke-width="0" stroke-linecap="butt"/><path d="M259.60425,139.49184c0,0 -12.21708,-8.55048 -22.04947,-30.96036c-10.57634,-24.1055 -8.99358,-39.79268 -8.99358,-39.79268" data-paper-data="{&quot;index&quot;:null}" fill="none" stroke-opacity="0.53333" stroke="#000000" stroke-width="2" stroke-linecap="round"/><path d="M231.91463,91.81755l12.97576,13.49543l1.58843,19.05599" data-paper-data="{&quot;index&quot;:null}" fill="none" stroke-opacity="0.53333" stroke="#000000" stroke-width="2" stroke-linecap="round"/><path d="M242.01599,57.78215l17.76354,40.48649" data-paper-data="{&quot;index&quot;:null}" fill="none" stroke-opacity="0.34902" stroke="#ffffff" stroke-width="4.5" stroke-linecap="round"/><path d="M244.1381,60.19594l10.67406,24.32819" data-paper-data="{&quot;index&quot;:null}" fill="none" stroke-opacity="0.34902" stroke="#ffffff" stroke-width="2.5" stroke-linecap="round"/><path d="M240.85888,116.1381l-5.87469,-0.5265l-4.15292,-9.46529l3.48676,-4.91605z" fill="url(#color-11)" stroke="none" stroke-width="0" stroke-linecap="butt"/><path d="M265.49949,142.71376c0,0 9.14249,14.39788 11.29598,29.22378c2.15349,14.82589 -4.45266,17.88973 -4.45266,17.88973l-20.57641,-46.86109l7.91196,-3.18897l-11.36034,-4.66446c0,0 -7.70692,0.4981 -12.53612,-9.68284c-4.45585,-9.39382 -2.77036,-14.31433 -2.77036,-14.31433" fill="none" stroke-opacity="0.51765" stroke="#000000" stroke-width="2" stroke-linecap="round"/><path d="M277.76254,183.52666c0,0 -2.90602,5.10191 -5.20094,6.0576c-1.79739,0.74851 -7.44438,-0.79162 -7.44438,-0.79162l-11.97566,-36.29895l6.29808,-3.01063z" fill="url(#color-12)" stroke="none" stroke-width="0" stroke-linecap="butt"/></g><path d="M248.24124,159.52355c-2.40784,-5.48794 0.08907,-11.88875 5.577,-14.29658c5.48795,-2.40784 11.88877,0.08906 14.29659,5.57699c2.40785,5.48794 -0.08907,11.88874 -5.577,14.29659c-5.48793,2.40784 -11.88875,-0.08908 -14.29658,-5.57701z" fill="url(#color-13)" stroke="#000000" stroke-width="0" stroke-linecap="butt"/></g></g></svg>