<svg version="1.1" xmlns="http://www.w3.org/2000/svg" xmlns:xlink="http://www.w3.org/1999/xlink" width="618.13834" height="172.68455" viewBox="0,0,618.13834,172.68455"><g transform="translate(41.30097,-233.79826)"><g data-paper-data="{&quot;isPaintingLayer&quot;:true}" fill-rule="nonzero" stroke="none" stroke-linecap="butt" stroke-linejoin="miter" stroke-miterlimit="10" stroke-dasharray="" stroke-dashoffset="0" style="mix-blend-mode: normal"><path d="M-26.01211,373.32333c0,0 -9.4296,-29.36711 -10.87673,-38.87932c-0.78518,-5.16106 19.61977,-12.74925 19.61977,-12.74925c0,0 160.10173,-22.95257 221.65473,-31.72614c56.78037,-8.09329 163.73722,-23.33857 163.73722,-23.33857l-11.55221,63.76257z" fill="#5c6f73" stroke-width="0"/><path d="M230.87281,306.59599l137.95448,-14.36477c0,0 -15.6908,7.53915 -26.76006,12.85774c-12.61286,6.06026 -58.29187,32.83821 -59.48102,32.91715c-26.53577,1.76163 -51.71341,-31.41011 -51.71341,-31.41011z" fill="#262e30" stroke-width="0"/><path d="M-23.44299,329.63067l-5.35165,-28.96887c0,0 -0.66668,3.93765 2.26831,3.61907c32.00725,-3.47418 603.3637,-70.48261 603.3637,-70.48261l-71.75625,130.8873l-397.25977,37.93709c0,0 269.33975,-113.83724 252.81647,-110.83836c-76.93962,13.96405 -384.0808,37.84638 -384.0808,37.84638z" fill="#7fb4bb" stroke-width="0"/><path d="M-24.99843,332.6891l37.62685,-22.81705c0,0 -3.50117,4.60266 18.34532,3.51613c6.29853,-0.31324 22.89294,-5.11974 32.18383,-5.68632c13.17624,-0.80352 24.28353,1.03291 46.33546,-1.32262c9.13529,-0.97579 46.85001,-10.08544 57.17717,-11.02592c5.89895,-0.5372 9.07936,3.92953 18.28869,3.19464c7.60594,-0.60694 20.81829,-1.64471 30.92184,-3.59643c4.88918,-0.94445 7.05861,-3.57535 11.31175,-3.66641c20.57313,-0.44042 40.65053,1.03599 59.70996,-0.52557c14.16043,-1.16017 27.40641,-7.31963 36.23001,-8.20006c8.44604,-0.84275 43.00612,-3.70054 51.22717,-4.54838c16.41149,-1.69251 30.36564,-1.16243 45.45932,-2.55697c10.68699,-0.9874 23.92379,-3.04878 35.2073,-3.08621c12.83603,-0.04258 25.19497,-12.29246 37.09007,-14.1325c34.17511,-5.28651 61.70762,1.6343 61.70762,1.6343l-5.2851,29.01886c0,0 -135.7677,20.34225 -183.42458,27.48276c-30.43407,4.55997 -74.80426,11.20803 -74.80426,11.20803l68.35109,-34.90558z" fill="#8aa7ac" stroke-width="0"/><path d="M120.42175,405.84332l161.81228,-77.95559l273.19634,-46.82345l-15.80429,125.41853z" fill="#6c8388" stroke-width="0"/><path d="M568.89657,236.57305c0.09235,2.41941 -47.95949,10.73123 -103.02823,19.5223c-9.29055,1.48313 -21.93691,-1.00106 -31.36738,0.34647c-5.43672,0.77686 -10.72931,6.59843 -16.23541,7.36681c-17.73461,2.47485 -35.54122,8.66328 -52.79681,10.51196c-58.04423,6.21862 -108.26365,4.98504 -114.90315,5.23849c-7.86714,0.30031 39.76484,-7.51708 5.44595,-5.24157c-9.82686,0.65157 -28.15623,12.08894 -38.9503,13.31632c-11.19766,1.27326 -33.44925,-3.48586 -43.56731,-2.92904c-6.8902,0.37918 -22.2944,1.28252 -38.49611,4.34615c-3.45416,0.65316 -4.40681,4.6852 -8.15192,5.17155c-15.84941,2.05825 -34.84156,0.38942 -50.50488,2.3812c-2.52621,0.32123 4.68904,4.2887 2.16381,4.55378c-40.75621,4.27814 -109.55303,5.46807 -109.59121,4.46789c-0.07157,-1.87493 67.29117,-9.19771 116.03182,-15.56611c88.94743,-11.62177 482.53139,-55.36634 482.73358,-50.06979z" fill="#bdd1d4" stroke-width="0"/><path d="M347.75361,292.63769c0.04256,1.11506 -300.48352,33.81722 -300.52608,32.70216c-0.04256,-1.11506 -93.12859,6.73823 -76.68143,6.1104c16.44715,-0.62783 377.16495,-39.92762 377.20752,-38.81256z" fill="#56696d" stroke-width="0"/><path d="M319.4392,315.27314l-192.87319,88.92668l236.31082,-112.64492z" fill="#56696d" stroke-width="0"/><path d="M394.93533,276.50005c0.11705,3.06643 -159.34226,17.80053 -202.82964,19.46055c-43.48739,1.66002 -110.75086,11.93979 -110.86792,8.87336c-0.11705,-3.06643 66.95665,-18.31784 110.44404,-19.97785c43.48739,-1.66002 203.13647,-11.42248 203.25352,-8.35607z" fill="#1eb912" stroke-width="0"/><path d="M350.50444,280.866c0.09045,2.3695 -41.68995,10.43739 -73.60858,11.6558c-31.91863,1.21841 -63.34229,2.5162 -63.43274,0.14669c-0.09045,-2.3695 25.71139,-5.27808 57.63002,-6.49649c31.91863,-1.21841 79.32086,-7.67551 79.41131,-5.306z" fill="#1eb912" stroke-width="0"/><path d="M277.2211,281.17932c0.00746,0.19538 7.47729,-1.25937 -11.10683,-0.20672c-27.2506,1.54356 -74.89115,6.89065 -84.91826,7.27341c-16.86531,0.64379 -209.70681,29.82171 -209.7252,29.33984c-0.01839,-0.48187 192.79328,-30.44105 209.65858,-31.08484c10.47832,-0.39998 50.07407,-5.22555 74.79953,-5.16102c2.0774,0.00541 6.73272,0.20091 11.83476,2.31843c2.85219,1.18375 3.13413,4.80918 9.73407,4.8874c2.3133,0.02742 11.31396,-3.31185 14.0288,-3.4404c21.12313,-1.00009 45.50388,-2.8521 47.90159,-2.93572c6.25211,-0.21806 -62.21086,-1.09039 -62.20704,-0.9904z" fill="#96e548" stroke-width="0"/><path d="M259.6881,285.34364c0.01389,0.36393 -134.81036,9.28522 -126.04594,11.02542c8.01901,1.5922 38.89821,-2.3912 29.84114,-2.04547c-18.95603,0.7236 -34.34452,0.74523 -34.37112,0.04831c-0.0266,-0.69691 15.31874,-1.84847 34.27478,-2.57207c18.95603,-0.7236 96.27453,-7.15312 96.30114,-6.45621z" fill="#3c7a00" stroke-width="0"/><path d="M89.55482,311.45562c-9.38806,1.35202 -17.13828,1.47807 -17.31061,0.28155c-0.17231,-1.19651 7.29853,-3.26251 16.6866,-4.61452c9.38806,-1.35202 17.13828,-1.47807 17.31061,-0.28155c0.17231,1.19651 -7.29853,3.26251 -16.6866,4.61452z" fill="#3c7a00" stroke-width="0"/><path d="M239.81796,295.98768c0.13631,1.52826 -19.46295,4.52513 -43.77615,6.6937c-24.31321,2.16856 -44.13347,2.68764 -44.26977,1.15938c-0.13631,-1.52826 19.46295,-4.52513 43.77615,-6.6937c24.31321,-2.16856 44.13347,-2.68764 44.26977,-1.15938z" fill="#3c7a00" stroke-width="0"/><path d="M242.87724,281.94148c0.0266,0.69691 -8.76521,1.59831 -19.63705,2.01331c-10.87184,0.415 -19.70679,0.18647 -19.73339,-0.51045c-0.0266,-0.69691 8.76521,-1.59831 19.63705,-2.01331c10.87184,-0.415 19.70679,-0.18647 19.73339,0.51045z" fill="#96e548" stroke-width="0"/><path d="M457.33897,288.81974c0.17026,4.46025 -20.14327,8.85667 -45.37153,9.8197c-25.22826,0.96302 -45.81783,-1.87203 -45.98809,-6.33228c-0.17026,-4.46025 20.14327,-8.85667 45.37153,-9.8197c25.22826,-0.96302 45.81783,1.87203 45.98809,6.33228z" fill="#1eb912" stroke-width="0"/><path d="M398.88615,267.14026c0.05321,1.39382 -12.78474,3.01544 -28.67437,3.62199c-15.88963,0.60655 -28.81384,-0.03167 -28.86704,-1.4255c-0.05321,-1.39382 12.78474,-3.01544 28.67437,-3.62199c15.88963,-0.60655 28.81384,0.03167 28.86704,1.4255z" fill="#96e548" stroke-width="0"/><path d="M297.50688,279.00601c0.09577,2.50888 -21.01213,3.42142 -35.50794,3.97476c-14.4958,0.55334 -41.52169,5.33826 -41.61746,2.82938c-0.09577,-2.50888 27.69332,-1.74642 42.18911,-2.29976c14.49579,-0.55334 34.8405,-7.01326 34.93627,-4.50438z" fill="#ff7000" stroke-width="0"/><path d="M227.48873,293.33362c0.19157,1.80314 -245.5366,29.48162 -263.01324,31.3384c-17.47665,1.85679 262.82167,-33.14153 263.01325,-31.33839z" fill="#ff7000" stroke-width="0"/><path d="M338.95527,286.56094c0.07456,1.25315 -27.5193,3.91437 -61.63259,5.94402c-34.11329,2.02965 -61.82804,2.65913 -61.90258,1.40599c-0.07456,-1.25315 27.5193,-3.91437 61.63259,-5.94402c34.1133,-2.02965 61.82804,-2.65913 61.90258,-1.40599z" fill="#ff7000" stroke-width="0"/><path d="M554.58217,293.80074c0.22878,5.99345 -36.42113,12.2582 -81.85988,13.99271c-45.43875,1.73451 -82.4596,-1.71805 -82.68838,-7.71151c-0.22878,-5.99345 36.42113,-12.2582 81.85988,-13.99271c45.43875,-1.73451 82.4596,1.71805 82.68838,7.71151z" fill="#ff7000" stroke-width="0"/><path d="" fill="#ff7000" stroke-width="0"/><path d="M427.8247,323.40813c0.17558,4.59963 -22.05449,9.18237 -49.65226,10.23585c-27.59777,1.05347 -50.11251,-1.82125 -50.28809,-6.42088c-0.17558,-4.59963 22.05449,-9.18237 49.65226,-10.23585c27.59777,-1.05347 50.11251,1.82125 50.28809,6.42088z" fill="#ff7000" stroke-width="0"/><path d="M511.95027,329.04283c0.25539,6.69037 -33.77415,13.42088 -76.0071,15.03301c-42.23294,1.61213 -76.67655,-2.5046 -76.93194,-9.19496c-0.25539,-6.69037 33.77415,-13.42088 76.0071,-15.03301c42.23294,-1.61213 76.67655,2.5046 76.93194,9.19496z" fill="#1eb912" stroke-width="0"/><path d="M491.40392,338.53528c0.08924,2.33785 -58.09377,4.25415 -64.80926,5.85235c-4.89547,1.16506 6.28527,-6.26066 -0.47295,-6.00268c-16.02901,0.61187 -71.21576,-5.11243 -71.37006,-9.15452c-0.0964,-2.52531 45.69205,-9.62268 85.40732,-9.83118c23.8543,-0.12523 46.73486,6.41833 52.74969,6.18873c4.17177,-0.15925 -32.00072,-5.60263 -58.19228,-4.32113c-18.91031,0.92525 -29.86099,8.41861 -29.76313,9.38949c0.14532,1.44175 17.50423,9.11591 39.3121,10.46383c21.31762,1.31761 47.09648,-3.68747 47.13857,-2.58487z" fill="#3c7a00" stroke-width="0"/><path d="M436.40165,336.22333c0.0928,2.43098 -4.52476,8.85592 -17.22105,10.94008c-12.78225,2.09826 -33.70972,-0.14994 -53.35904,0.60012c-39.16653,1.49508 -71.06823,-1.24764 -71.25445,-6.12604c-0.18622,-4.87839 31.41356,-10.04512 70.58009,-11.5402c39.16653,-1.49508 71.06823,1.24764 71.25445,6.12604z" fill="#ff7000" stroke-width="0"/><path d="M440.95024,349.44509c0.25539,6.69037 -27.78558,13.19228 -62.63124,14.52242c-34.84567,1.33014 -63.30069,-3.01518 -63.55608,-9.70555c-0.25539,-6.69037 27.78558,-13.19228 62.63124,-14.52242c34.84567,-1.33014 63.30069,3.01518 63.55608,9.70555z" fill="#de7452" stroke-width="0"/><path d="M347.35968,347.45733c0.14898,3.90271 -18.37393,7.77817 -41.37208,8.65606c-22.99814,0.87789 -41.76259,-1.57421 -41.91157,-5.47693c-0.14898,-3.90271 18.37393,-7.77817 41.37208,-8.65606c22.99814,-0.87789 41.76259,1.57421 41.91157,5.47693z" fill="#ff7000" stroke-width="0"/><path d="M514.5407,254.92373c0.03722,0.27563 -51.4544,3.27329 -69.84559,10.45669c-27.96474,10.9227 -28.02526,27.59112 -37.36169,28.08623c-2.29117,0.1215 -11.12242,-4.58591 -12.93623,-4.69372c-18.39182,-1.0932 25.65386,-11.62959 15.03259,-11.66995c-10.96504,-0.04167 46.40743,-11.96132 33.58121,-11.07104c-34.75209,2.41217 -65.13083,10.34639 -65.52475,7.42924c-0.39393,-2.91717 25.40346,-3.29892 60.15555,-5.7111c34.75209,-2.41217 76.50501,-15.74352 76.89894,-12.82635z" fill="#ff7000" stroke-width="0"/><path d="M361.65644,351.2082c0.12237,3.20581 -26.55752,6.82683 -59.59121,8.08781c-14.3834,0.54905 -2.82125,-0.38573 -13.17012,-0.81287c-13.41889,-0.55384 -46.79515,-0.89861 -46.86424,-2.70854c-0.08443,-2.2117 15.61446,2.43216 34.32919,0.73652c8.41198,-0.76218 15.0183,-8.4333 25.26203,-8.82433c33.03369,-1.26097 59.91199,0.31562 60.03436,3.52142z" fill="#3c7a00" stroke-width="0"/><path d="M36.00399,306.01476c0.43388,2.47294 -76.86926,12.29404 -77.30314,9.82111c-0.43388,-2.47294 76.86926,-12.29404 77.30314,-9.82111z" fill="#3c7a00" stroke-width="0"/><path d="M415.19634,323.63744c0.07449,1.95137 -9.35645,3.89555 -21.0646,4.34248c-11.70814,0.44693 -21.25985,-0.77265 -21.33434,-2.72401c-0.07449,-1.95137 9.35645,-3.89555 21.0646,-4.34248c11.70814,-0.44693 21.25985,0.77265 21.33434,2.72401z" fill="#de7452" stroke-width="0"/><path d="M288.16885,279.95985c0.0266,0.69691 -9.55615,1.6285 -21.40368,2.08075c-11.84752,0.45225 -21.47341,0.25391 -21.50002,-0.44301c-0.0266,-0.69691 9.55615,-1.6285 21.40368,-2.08075c11.84752,-0.45225 21.47341,-0.25391 21.50002,0.44301z" fill="#de7452" stroke-width="0"/><path d="M245.44821,286.3927c0.01596,0.41815 -8.78448,1.09356 -19.65632,1.50856c-10.87184,0.415 -19.69816,0.41245 -19.71412,-0.0057c-0.01596,-0.41815 8.78448,-1.09356 19.65632,-1.50856c10.87184,-0.415 19.69816,-0.41245 19.71412,0.0057z" fill="#de7452" stroke-width="0"/><path d="M419.2805,285.8784c0.08004,0.83307 -9.19722,2.40597 -20.72135,3.51316c-11.52411,1.10719 -20.93114,1.32942 -21.01119,0.49635c-0.08004,-0.83307 9.19722,-2.40597 20.72135,-3.51316c11.52411,-1.10719 20.93114,-1.32942 21.01119,-0.49635z" fill="#de7452" stroke-width="0"/><path d="M378.75427,335.64371c0.05321,1.39382 -13.5757,3.04564 -30.44099,3.68942c-16.8653,0.64379 -30.58046,0.03577 -30.63367,-1.35806c-0.05321,-1.39382 13.5757,-3.04564 30.44099,-3.68942c16.8653,-0.64379 30.58046,-0.03577 30.63367,1.35806z" fill="#ff3200" stroke-width="0"/><path d="M525.23928,293.15163c0.06385,1.67259 -17.85011,3.71429 -40.01196,4.56026c-22.16185,0.84597 -40.17932,0.17585 -40.24317,-1.49673c-0.06385,-1.67259 17.85011,-3.71429 40.01196,-4.56026c22.16185,-0.84597 40.17932,-0.17585 40.24317,1.49673z" fill="#ff3200" stroke-width="0"/><path d="M486.06151,299.70198c0.04256,1.11506 -14.38591,2.57108 -32.22688,3.25211c-17.84098,0.68103 -32.33846,0.32919 -32.38102,-0.78587c-0.04256,-1.11506 14.38591,-2.57108 32.22688,-3.25211c17.84098,-0.68103 32.33846,-0.32919 32.38102,0.78587z" fill="#ff3200" stroke-width="0"/><path d="M332.91434,286.84504c0.03192,0.83629 -13.84021,2.04477 -30.98428,2.6992c-17.14407,0.65443 -31.06796,0.507 -31.09988,-0.3293c-0.03192,-0.83629 13.84021,-2.04477 30.98428,-2.6992c17.14407,-0.65443 31.06796,-0.507 31.09988,0.3293z" fill="#ff3200" stroke-width="0"/><path d="M366.67298,323.72049c0.03724,0.97568 -7.27703,2.04698 -16.33692,2.39282c-9.05987,0.34584 -16.43454,-0.16474 -16.47179,-1.14043c-0.03724,-0.97568 7.27703,-2.04698 16.33692,-2.39282c9.05987,-0.34584 16.43454,0.16474 16.47179,1.14043z" fill="#ff3200" stroke-width="0"/><path d="M325.19494,329.60043c-0.0266,-0.69691 0.51679,-1.28345 1.21371,-1.31005c0.69691,-0.0266 1.28345,0.51679 1.31005,1.21371c0.0266,0.69691 -0.51679,1.28345 -1.21371,1.31005c-0.69691,0.0266 -1.28345,-0.51679 -1.31005,-1.21371z" fill="#ff7000" stroke-width="0.5"/><path d="M398.91329,307.57801c-0.04256,-1.11506 0.82686,-2.05349 1.94192,-2.09606c1.11506,-0.04256 2.05349,0.82686 2.09606,1.94192c0.04256,1.11506 -0.82686,2.05349 -1.94192,2.09606c-1.11506,0.04256 -2.05349,-0.82686 -2.09606,-1.94192z" fill="#ff7000" stroke-width="0.5"/><path d="M453.12174,284.27839c-0.04256,-1.11506 0.82686,-2.05349 1.94192,-2.09606c1.11506,-0.04256 2.05349,0.82686 2.09606,1.94192c0.04256,1.11506 -0.82686,2.05349 -1.94192,2.09606c-1.11506,0.04256 -2.05349,-0.82686 -2.09606,-1.94192z" fill="#ff7000" stroke-width="0.5"/><path d="M274.11292,282.51832c-0.04256,-1.11506 0.82686,-2.05349 1.94192,-2.09606c1.11506,-0.04256 2.05349,0.82686 2.09606,1.94192c0.04256,1.11506 -0.82686,2.05349 -1.94192,2.09606c-1.11506,0.04256 -2.05349,-0.82686 -2.09606,-1.94192z" fill="#ff7000" stroke-width="0.5"/><path d="M77.65191,313.52276c0.01596,0.41815 -10.47935,1.15825 -23.44194,1.65307c-12.96259,0.49481 -23.48379,0.55696 -23.49975,0.13881c-0.01596,-0.41815 10.47935,-1.15825 23.44194,-1.65307c12.96259,-0.49481 23.48379,-0.55696 23.49975,-0.13881z" fill="#a766ea" stroke-width="0"/><path d="M-29.86183,368.14035l-4.64814,-10.86492l271.62119,-51.03591l29.73281,28.52014z" fill="#3e4c4f" stroke-width="0"/><path d="M489.32619,337.46118c0.02322,0.60822 -16.7306,6.70446 -29.50312,7.19202c-12.77252,0.48756 -34.22128,-0.84178 -34.2445,-1.44999c-0.02322,-0.60822 21.40892,0.28564 34.18144,-0.20191c12.77252,-0.48756 29.54297,-6.14832 29.56618,-5.54011z" fill="#ff3200" stroke-width="0"/><path d="M436.86865,335.60351c0.05083,1.33172 -3.06487,7.56296 -7.86907,8.27c-1.77825,0.26171 -9.98706,-3.72834 -12.082,-3.64837c-7.75474,0.29602 15.65768,-1.52757 15.58803,-3.35222c-0.06965,-1.82465 -64.59425,-8.01161 -56.83951,-8.30763c7.75474,-0.29602 61.1329,5.21356 61.20255,7.0382z" fill="#ff3200" stroke-width="0"/><path d="M433.40482,351.95721c0.1809,4.73902 51.92913,9.64389 33.25186,10.35685c-2.27815,0.08696 -121.53064,6.60381 -123.68668,6.57699c-15.52001,-0.19312 89.69976,-9.70584 89.54092,-13.86681c-0.1809,-4.73902 14.81338,-9.1587 33.49065,-9.87165c18.67728,-0.71296 -32.77766,2.06561 -32.59676,6.80463z" fill="#ff3200" stroke-width="0"/><path d="M293.4004,339.104c0.15962,4.18148 119.46243,11.10986 114.16588,11.31204c-5.29654,0.20218 -111.83312,-3.16964 -111.99274,-7.35112c-0.15962,-4.18148 4.00467,-7.73514 9.30122,-7.93732c5.29654,-0.20218 -11.63398,-0.20509 -11.47436,3.9764z" fill="#ff3200" stroke-width="0"/></g></g></svg>