<svg version="1.1" xmlns="http://www.w3.org/2000/svg" xmlns:xlink="http://www.w3.org/1999/xlink" width="95.87903" height="82.97347" viewBox="0,0,95.87903,82.97347"><defs><radialGradient cx="255.70738" cy="191.01102" r="54.7373" gradientUnits="userSpaceOnUse" id="color-1"><stop offset="0" stop-color="#e9e9e9"/><stop offset="1" stop-color="#575757"/></radialGradient><linearGradient x1="269.34072" y1="210.57458" x2="250.11018" y2="191.34405" gradientUnits="userSpaceOnUse" id="color-2"><stop offset="0" stop-color="#969696"/><stop offset="1" stop-color="#e1e1e1"/></linearGradient><linearGradient x1="202.35975" y1="219.86393" x2="194.86309" y2="212.36727" gradientUnits="userSpaceOnUse" id="color-3"><stop offset="0" stop-color="#212121"/><stop offset="1" stop-color="#c8c8c8"/></linearGradient><linearGradient x1="229.42328" y1="169.84308" x2="244.98823" y2="185.408" gradientUnits="userSpaceOnUse" id="color-4"><stop offset="0" stop-color="#ff5454"/><stop offset="1" stop-color="#eb0000"/></linearGradient><linearGradient x1="278.75836" y1="220.00434" x2="271.26169" y2="212.50767" gradientUnits="userSpaceOnUse" id="color-5"><stop offset="0" stop-color="#212121"/><stop offset="1" stop-color="#c8c8c8"/></linearGradient></defs><g transform="translate(-193.31048,-138.58347)"><g data-paper-data="{&quot;isPaintingLayer&quot;:true}" fill-rule="nonzero" stroke-linejoin="miter" stroke-miterlimit="10" stroke-dasharray="" stroke-dashoffset="0" style="mix-blend-mode: normal"><path d="M198.85416,215.88891l73.23296,-73.23296c0,0 4.45881,-4.08221 10.99927,2.35751c6.47205,6.37236 2.25016,10.89192 2.25016,10.89192l-34.90532,34.90532" fill="none" stroke="url(#color-1)" stroke-width="5" stroke-linecap="round"/><path d="M277.00392,218.23778l-26.89374,-26.89374" fill="none" stroke="url(#color-2)" stroke-width="5" stroke-linecap="round"/><path d="M202.35975,219.86393c-2.07014,2.07014 -5.42651,2.07014 -7.49666,0c-2.07014,-2.07014 -2.07014,-5.42651 0,-7.49666c2.07014,-2.07014 5.42651,-2.07014 7.49666,0c2.07014,2.07014 2.07014,5.42651 0,7.49666z" fill="url(#color-3)" stroke="none" stroke-width="0" stroke-linecap="butt"/><path d="M260.68288,138.58347c0,0 5.60073,1.79786 9.67334,6.10017c4.48821,4.74135 5.89159,9.46476 5.89159,9.46476l-61.6027,61.6027c0,0 -3.37015,0.95106 -10.03124,-5.43714c-5.60738,-5.37767 -5.53368,-10.12777 -5.53368,-10.12777z" data-paper-data="{&quot;index&quot;:null}" fill="url(#color-4)" stroke="none" stroke-width="0" stroke-linecap="butt"/><path d="M278.75836,220.00434c-2.07014,2.07014 -5.42651,2.07014 -7.49666,0c-2.07014,-2.07014 -2.07014,-5.42651 0,-7.49667c2.07014,-2.07014 5.42651,-2.07014 7.49666,0c2.07015,2.07014 2.07015,5.42651 0,7.49667z" fill="url(#color-5)" stroke="none" stroke-width="0" stroke-linecap="butt"/></g></g></svg>