<svg version="1.1" xmlns="http://www.w3.org/2000/svg" xmlns:xlink="http://www.w3.org/1999/xlink" width="79.49276" height="80.13905" viewBox="0,0,79.49276,80.13905"><defs><radialGradient cx="237.65536" cy="180.15526" r="32.79887" gradientUnits="userSpaceOnUse" id="color-1"><stop offset="0" stop-color="#000000"/><stop offset="1" stop-color="#000000" stop-opacity="0"/></radialGradient><linearGradient x1="247.8808" y1="156.16046" x2="247.8808" y2="204.15018" gradientUnits="userSpaceOnUse" id="color-2"><stop offset="0" stop-color="#ffbbbb"/><stop offset="1" stop-color="#ff3737"/></linearGradient><linearGradient x1="219.00005" y1="155.00516" x2="219.00005" y2="204.99488" gradientUnits="userSpaceOnUse" id="color-3"><stop offset="0" stop-color="#ff1f1f"/><stop offset="1" stop-color="#c80000"/></linearGradient><linearGradient x1="210.25005" y1="155.00516" x2="210.25005" y2="204.99488" gradientUnits="userSpaceOnUse" id="color-4"><stop offset="0" stop-color="#e00000"/><stop offset="1" stop-color="#8e0000"/></linearGradient></defs><g transform="translate(-200.4089,-139.93051)"><g data-paper-data="{&quot;isPaintingLayer&quot;:true}" fill-rule="nonzero" stroke-linejoin="miter" stroke-miterlimit="10" stroke-dasharray="" stroke-dashoffset="0" style="mix-blend-mode: normal"><path d="M279.90166,220.06956h-79.49276v-80.13905h79.49276z" fill="none" stroke="none" stroke-width="NaN" stroke-linecap="butt"/><path d="M237.65536,212.95414c-18.11432,0 -32.79887,-14.68456 -32.79887,-32.79887c0,-18.11432 14.68456,-32.79887 32.79887,-32.79887c18.11432,0 32.79887,14.68456 32.79887,32.79887c0,18.11432 -14.68456,32.79887 -32.79887,32.79887z" fill="url(#color-1)" stroke="#000000" stroke-width="0" stroke-linecap="butt"/><path d="M231.4407,191.90143h-8.17046v-23.67995h8.17046z" fill="#000000" stroke="#000000" stroke-width="0" stroke-linecap="butt"/><path d="M264.65019,204.15018h-33.53882c0,0 0,-15.35201 0,-23.21638c0,-8.12379 0,-24.77334 0,-24.77334h33.53882z" fill="url(#color-2)" stroke="#000000" stroke-width="0" stroke-linecap="butt"/><path d="M251.39793,192.9376h-12.95634v-11.82557h12.95634z" fill="#ffffff" stroke="#000000" stroke-width="0" stroke-linecap="butt"/><path d="M251.60356,176.51089h-13.36765v-12.20099h13.36765z" fill="#ffffff" stroke="#000000" stroke-width="0" stroke-linecap="butt"/><path d="M245.86671,174.11669v-4.5h4.5v4.5z" fill="#000000" stroke="none" stroke-width="0" stroke-linecap="butt"/><path d="M245.86671,189.11669v-4.5h4.5v4.5z" fill="#000000" stroke="none" stroke-width="0" stroke-linecap="butt"/><path d="M224.99491,204.99488h-11.98972v-49.98972h11.98972z" fill="url(#color-3)" stroke="#000000" stroke-width="0" stroke-linecap="butt"/><path d="M207.49492,166.05962l5.51028,-11.05446v49.98972l-5.51028,-9.52384z" fill="url(#color-4)" stroke="#000000" stroke-width="0" stroke-linecap="butt"/><path d="M256.0833,192.49918v-29.20206" fill="none" stroke="#000000" stroke-width="3.5" stroke-linecap="round"/></g></g></svg>