<svg version="1.1" xmlns="http://www.w3.org/2000/svg" xmlns:xlink="http://www.w3.org/1999/xlink" width="196.39371" height="153.71971" viewBox="0,0,196.39371,153.71971"><defs><linearGradient x1="315.41186" y1="141.04842" x2="299.54789" y2="172.94655" gradientUnits="userSpaceOnUse" id="color-1"><stop offset="0" stop-color="#ffffff"/><stop offset="1" stop-color="#dcd0e8"/></linearGradient><linearGradient x1="194.09458" y1="118.05" x2="189.15691" y2="152.62299" gradientUnits="userSpaceOnUse" id="color-2"><stop offset="0" stop-color="#ffffff"/><stop offset="1" stop-color="#dcd0e8"/></linearGradient><linearGradient x1="217.87453" y1="147.21728" x2="213.49873" y2="216.63849" gradientUnits="userSpaceOnUse" id="color-3"><stop offset="0" stop-color="#ffffff"/><stop offset="1" stop-color="#dcd0e8"/></linearGradient><linearGradient x1="311.34595" y1="131.78641" x2="222.49498" y2="200.34928" gradientUnits="userSpaceOnUse" id="color-4"><stop offset="0" stop-color="#f6f3f9"/><stop offset="1" stop-color="#f5ebff"/></linearGradient><linearGradient x1="245.04023" y1="183.36005" x2="166.67206" y2="152.96512" gradientUnits="userSpaceOnUse" id="color-5"><stop offset="0" stop-color="#ffffff"/><stop offset="1" stop-color="#dcd0e8"/></linearGradient><linearGradient x1="291.98264" y1="62.79435" x2="294.32011" y2="95.52749" gradientUnits="userSpaceOnUse" id="color-6"><stop offset="0" stop-color="#000000"/><stop offset="1" stop-color="#636363"/></linearGradient><linearGradient x1="324.76939" y1="78.48752" x2="284.80397" y2="127.13896" gradientUnits="userSpaceOnUse" id="color-7"><stop offset="0" stop-color="#ffffff"/><stop offset="1" stop-color="#e9e0f2"/></linearGradient><linearGradient x1="317.32871" y1="92.45114" x2="314.47465" y2="102.68894" gradientUnits="userSpaceOnUse" id="color-8"><stop offset="0" stop-color="#000000"/><stop offset="1" stop-color="#636363"/></linearGradient><linearGradient x1="273.32639" y1="63.39254" x2="263.66673" y2="98.07238" gradientUnits="userSpaceOnUse" id="color-9"><stop offset="0" stop-color="#636363"/><stop offset="1" stop-color="#000000"/></linearGradient><linearGradient x1="331.5384" y1="164.59721" x2="282.86586" y2="190.22536" gradientUnits="userSpaceOnUse" id="color-10"><stop offset="0" stop-color="#ffffff"/><stop offset="1" stop-color="#eae2f1"/></linearGradient><linearGradient x1="331.92629" y1="99.06104" x2="331.92629" y2="103.61022" gradientUnits="userSpaceOnUse" id="color-11"><stop offset="0" stop-color="#ffffff"/><stop offset="1" stop-color="#000000"/></linearGradient><linearGradient x1="235.87647" y1="127.19636" x2="243.06174" y2="140.26918" gradientUnits="userSpaceOnUse" id="color-12"><stop offset="0" stop-color="#636363"/><stop offset="1" stop-color="#000000"/></linearGradient></defs><g transform="translate(-157.72082,-60.9435)"><g data-paper-data="{&quot;isPaintingLayer&quot;:true}" fill-rule="nonzero" stroke="none" stroke-width="0" stroke-linecap="butt" stroke-linejoin="miter" stroke-miterlimit="10" stroke-dasharray="" stroke-dashoffset="0" style="mix-blend-mode: normal"><path d="M352.56536,170.6782l1.54917,15.54735l-21.98774,3.4504l-23.63529,-25.25365l-42.07001,-26.9551l24.03957,-11.20458z" data-paper-data="{&quot;index&quot;:null}" fill="url(#color-1)"/><path d="M183.35673,145.90057l-14.87537,-15.12968l-9.48856,-17.73407l19.42766,10.7774l19.6603,9.37834l29.39402,1.92494l-20.07601,20.11077z" data-paper-data="{&quot;index&quot;:null}" fill="url(#color-2)"/><path d="M176.47451,203.5109l8.48267,-19.47021l6.27175,-4.30196l0.07223,-10.06694l10.16163,-14.43916l17.82434,-6.54879l10.46977,-0.71759l13.73204,4.57099l5.98935,17.95738l-14.67423,17.44315l-31.57072,6.3876l-13.619,18.47793l-7.4531,1.85991z" data-paper-data="{&quot;index&quot;:null}" fill="url(#color-3)"/><path d="M249.36362,180.35478l-40.69407,-19.27196l4.38309,-25.51837l36.09771,-8.29479l26.18752,-14.64899l33.82454,16.33609l3.49351,10.86828l-1.87956,11.17003l-12.37561,22.70834z" data-paper-data="{&quot;index&quot;:null}" fill="url(#color-4)"/><path d="M157.72082,176.04438l20.22026,-21.05499l11.43311,-1.61697l4.46862,-11.74123l18.04263,-7.40294l20.48675,4.49742l10.1738,5.55488l10.06757,12.4175l-5.09734,20.27811l-23.7148,9.61679l-18.22125,0.50268l-14.65156,-8.80504l-22.31872,14.64883l-7.82032,-2.53471z" data-paper-data="{&quot;index&quot;:null}" fill="url(#color-5)"/><path d="M279.76639,93.43l-5.99177,-22.26761l11.24056,-7.87051l18.65591,0.69111l8.45555,17.55411l-7.08927,13.22506z" data-paper-data="{&quot;index&quot;:null}" fill="url(#color-6)"/><path d="M315.02182,131.19607l-14.19096,0.68581l-17.89381,-7.96686l-11.03699,-7.37619l-9.43054,-24.13207l12.03414,-20.67641l21.44754,-5.06438l22.22896,6.40871l8.80602,10.76849l-0.13414,13.69188l8.88469,1.90495l4.40682,9.04787l-2.33878,15.64088z" data-paper-data="{&quot;index&quot;:null}" fill="url(#color-7)"/><path d="M337.5837,99.16984l2.5782,9.50529l-8.44213,-2.65878l-4.42149,-8.29061z" data-paper-data="{&quot;index&quot;:null}" fill="#000000"/><path d="M309.85658,100.05092l-0.9648,-6.03948l8.48542,-2.87802l5.74264,4.79805l-4.65982,5.65218z" data-paper-data="{&quot;index&quot;:null}" fill="url(#color-8)"/><path d="M244.08685,87.99286l2.32797,-16.7999l18.11906,-10.24946l21.27512,10.44626l6.08249,14.16764l-24.28571,13.61216z" data-paper-data="{&quot;index&quot;:null}" fill="url(#color-9)"/><path d="M342.69723,186.04685l-5.98185,19.71868l-15.67138,1.70947l-9.87874,-13.43942l-32.13759,-55.05735l18.50643,-2.22317l29.72946,32.38443z" data-paper-data="{&quot;index&quot;:null}" fill="url(#color-10)"/><path d="M330.6376,98.86065l6.78562,0.20039l1.24572,4.54918z" fill="url(#color-11)"/><path d="M227.33516,131.79144l19.89222,-4.63998l8.8867,-3.50677l-2.44363,8.42825l-16.96118,5.21349z" fill="url(#color-12)"/></g></g></svg>