<svg version="1.1" xmlns="http://www.w3.org/2000/svg" xmlns:xlink="http://www.w3.org/1999/xlink" width="76.53528" height="75.4669" viewBox="0,0,76.53528,75.4669"><defs><radialGradient cx="278.09806" cy="179.23678" r="27.2508" gradientUnits="userSpaceOnUse" id="color-1"><stop offset="0" stop-color="#ffffff" stop-opacity="0.63137"/><stop offset="1" stop-color="#ffffff" stop-opacity="0"/></radialGradient><linearGradient x1="280.59654" y1="206.3728" x2="275.59956" y2="152.10073" gradientUnits="userSpaceOnUse" id="color-2"><stop offset="0" stop-color="#ff5454"/><stop offset="1" stop-color="#eb0000"/></linearGradient><radialGradient cx="290.12793" cy="176.55598" r="37.2428" gradientUnits="userSpaceOnUse" id="color-3"><stop offset="0" stop-color="#ff0000" stop-opacity="0.50196"/><stop offset="1" stop-color="#ff0000" stop-opacity="0"/></radialGradient><linearGradient x1="297.81659" y1="150.85886" x2="282.20789" y2="200.02776" gradientUnits="userSpaceOnUse" id="color-4"><stop offset="0" stop-color="#ff3d3d"/><stop offset="1" stop-color="#a60000"/></linearGradient><linearGradient x1="302.98422" y1="146.1332" x2="298.76558" y2="159.42231" gradientUnits="userSpaceOnUse" id="color-5"><stop offset="0" stop-color="#ff0000"/><stop offset="1" stop-color="#b50000"/></linearGradient><linearGradient x1="289.47527" y1="178.19684" x2="288.48988" y2="181.30091" gradientUnits="userSpaceOnUse" id="color-6"><stop offset="0" stop-color="#ffffff" stop-opacity="0.42353"/><stop offset="1" stop-color="#ffffff" stop-opacity="0"/></linearGradient><linearGradient x1="291.92614" y1="166.10369" x2="290.7797" y2="169.71508" gradientUnits="userSpaceOnUse" id="color-7"><stop offset="0" stop-color="#ffffff" stop-opacity="0.56078"/><stop offset="1" stop-color="#ffffff" stop-opacity="0"/></linearGradient><linearGradient x1="295.16334" y1="157.92434" x2="294.4243" y2="160.25239" gradientUnits="userSpaceOnUse" id="color-8"><stop offset="0" stop-color="#ffffff" stop-opacity="0.56078"/><stop offset="1" stop-color="#ffffff" stop-opacity="0"/></linearGradient><linearGradient x1="287.14465" y1="188.22935" x2="286.40561" y2="190.5574" gradientUnits="userSpaceOnUse" id="color-9"><stop offset="0" stop-color="#ffffff" stop-opacity="0.42353"/><stop offset="1" stop-color="#ffffff" stop-opacity="0"/></linearGradient><linearGradient x1="297.33957" y1="184.36849" x2="296.03735" y2="188.47061" gradientUnits="userSpaceOnUse" id="color-10"><stop offset="0" stop-color="#ffffff" stop-opacity="0.6"/><stop offset="1" stop-color="#ffffff" stop-opacity="0"/></linearGradient><linearGradient x1="282.29803" y1="168.51535" x2="280.63398" y2="173.75729" gradientUnits="userSpaceOnUse" id="color-11"><stop offset="0" stop-color="#ffffff" stop-opacity="0.6"/><stop offset="1" stop-color="#ffffff" stop-opacity="0"/></linearGradient><linearGradient x1="303.00849" y1="156.08374" x2="302.26835" y2="158.41525" gradientUnits="userSpaceOnUse" id="color-12"><stop offset="0" stop-color="#ffffff" stop-opacity="0.6"/><stop offset="1" stop-color="#ffffff" stop-opacity="0"/></linearGradient><linearGradient x1="301.41593" y1="161.77317" x2="299.75309" y2="167.01127" gradientUnits="userSpaceOnUse" id="color-13"><stop offset="0" stop-color="#ffffff"/><stop offset="1" stop-color="#ffffff" stop-opacity="0.40392"/></linearGradient><linearGradient x1="308.43069" y1="143.71232" x2="305.5977" y2="152.6365" gradientUnits="userSpaceOnUse" id="color-14"><stop offset="0" stop-color="#ffffff"/><stop offset="1" stop-color="#ffffff" stop-opacity="0"/></linearGradient><radialGradient cx="273.72815" cy="155.70296" r="16.39979" gradientUnits="userSpaceOnUse" id="color-15"><stop offset="0" stop-color="#000000" stop-opacity="0.49412"/><stop offset="1" stop-color="#000000" stop-opacity="0"/></radialGradient><linearGradient x1="263.01899" y1="153.95335" x2="284.43733" y2="157.45257" gradientUnits="userSpaceOnUse" id="color-16"><stop offset="0" stop-color="#eb0000"/><stop offset="1" stop-color="#ff5454"/></linearGradient><radialGradient cx="283.64504" cy="198.37028" r="16.39979" gradientUnits="userSpaceOnUse" id="color-17"><stop offset="0" stop-color="#000000" stop-opacity="0.49412"/><stop offset="1" stop-color="#000000" stop-opacity="0"/></radialGradient><linearGradient x1="272.93587" y1="196.62068" x2="294.35422" y2="200.11991" gradientUnits="userSpaceOnUse" id="color-18"><stop offset="0" stop-color="#eb0000"/><stop offset="1" stop-color="#ff5454"/></linearGradient></defs><g transform="translate(-250.84545,-139.30318)"><g data-paper-data="{&quot;isPaintingLayer&quot;:true}" fill-rule="nonzero" stroke-linejoin="miter" stroke-miterlimit="10" stroke-dasharray="" stroke-dashoffset="0" style="mix-blend-mode: normal"><path d="M275.59956,152.10077c14.98681,-1.37987 28.25464,9.65071 29.63451,24.63753c1.37988,14.98682 -9.65073,28.25465 -24.63753,29.63452c-14.98681,1.37987 -28.25465,-9.65073 -29.63452,-24.63754c-1.37987,-14.98681 9.65073,-28.25464 24.63754,-29.63451z" data-paper-data="{&quot;index&quot;:null}" fill="url(#color-1)" stroke="url(#color-2)" stroke-width="0" stroke-linecap="butt"/><g><path d="M254.63083,165.2874c6.22347,-19.60453 27.1612,-30.452 46.7657,-24.22854c19.60453,6.22347 30.45199,27.16121 24.22853,46.7657c-6.22347,19.60453 -27.1612,30.45199 -46.76569,24.22853c-19.60453,-6.22347 -30.45199,-27.1612 -24.22853,-46.76569z" fill="url(#color-3)" stroke="#ff0000" stroke-width="0" stroke-linecap="butt"/><g><path d="M268.45542,168.60008c4.31022,-13.57762 24.18113,-19.38563 29.36116,-17.74122c5.95606,1.89075 18.06269,17.85006 13.75246,31.42767c-4.31022,13.57762 -15.70658,17.80478 -27.61208,14.02538c-11.90551,-3.77941 -19.81177,-14.13421 -15.50155,-27.71183z" fill="url(#color-4)" stroke="#000000" stroke-width="0" stroke-linecap="butt"/><path d="M292.72891,154.65275c0,0 -1.90031,-2.50534 -1.46533,-3.49785c0.40628,-0.92705 5.73922,-2.22184 5.73922,-2.22184l0.49328,-5.158c0,0 7.28453,-2.06683 9.11666,-1.02664c2.20107,1.24966 8.86421,12.55267 7.45163,14.31158c-2.76114,3.43808 -6.95353,-4.88387 -10.85545,-2.82979c-0.98096,0.51641 -2.35007,1.23715 -2.35007,1.23715z" fill="url(#color-5)" stroke="#000000" stroke-width="0" stroke-linecap="butt"/><path d="M269.1299,175.01495c0,0 8.07453,0.03789 20.20161,3.38279c6.27246,1.73007 19.46138,6.21848 19.46138,6.21848" fill="none" stroke="url(#color-6)" stroke-width="4" stroke-linecap="round"/><path d="M271.86433,163.71038c0,0 12.56723,0.67364 18.75934,2.12751c6.68785,1.57026 19.99521,6.97183 19.99521,6.97183" fill="none" stroke="url(#color-7)" stroke-width="3.5" stroke-linecap="round"/><path d="M282.18339,156.09489c0,0 8.17762,0.76955 12.21402,1.87813c4.26632,1.17174 12.7324,4.97336 12.7324,4.97336" fill="none" stroke="url(#color-8)" stroke-width="3" stroke-linecap="round"/><path d="M271.86144,185.91914c0,0 9.62425,0.9268 14.54454,2.16985c4.96428,1.25417 15.11032,5.32211 15.11032,5.32211" fill="none" stroke="url(#color-9)" stroke-width="3" stroke-linecap="round"/><path d="M293.22831,185.21585c0.3902,-1.12167 2.25569,-1.49205 4.16668,-0.82727c1.91099,0.66479 3.14384,2.11299 2.75365,3.23467c-0.3902,1.12167 -2.25569,1.49206 -4.16668,0.82727c-1.91099,-0.66479 -3.14384,-2.11299 -2.75365,-3.23467z" fill="url(#color-10)" stroke="none" stroke-width="0" stroke-linecap="butt"/><path d="M280.70663,173.77716c-2.48485,-0.71453 -4.15922,-2.4761 -3.73982,-3.9346c0.41939,-1.4585 2.77375,-2.06161 5.25859,-1.34708c2.48485,0.71453 4.15922,2.4761 3.73982,3.9346c-0.41939,1.4585 -2.77375,2.06161 -5.25859,1.34708z" data-paper-data="{&quot;index&quot;:null}" fill="url(#color-11)" stroke="none" stroke-width="0" stroke-linecap="butt"/><path d="M302.29893,158.42479c-1.65687,-0.53713 -2.84804,-1.49877 -2.66054,-2.14786c0.1875,-0.64909 1.68266,-0.73986 3.33953,-0.20273c1.65687,0.53713 2.84804,1.49876 2.66054,2.14786c-0.1875,0.64909 -1.68265,0.73987 -3.33953,0.20273z" data-paper-data="{&quot;index&quot;:null}" fill="url(#color-12)" stroke="none" stroke-width="0" stroke-linecap="butt"/><path d="M305.33761,165.90109c-0.45918,1.44646 -2.95946,1.94351 -5.58452,1.11018c-2.62506,-0.83333 -4.38085,-2.68147 -3.92167,-4.12793c0.45918,-1.44646 2.95945,-1.9435 5.58451,-1.11018c2.62506,0.83333 4.38086,2.68146 3.92168,4.12792z" fill="url(#color-13)" stroke-opacity="0.56078" stroke="#ffffff" stroke-width="0" stroke-linecap="butt"/><path d="M313.45485,155.13076c0,0 -2.25617,-2.85177 -6.32517,-5.63836c-3.89548,-2.66776 -7.66471,-4.78227 -7.66471,-4.78227l7.53381,-0.8233z" fill="url(#color-14)" stroke="none" stroke-width="0" stroke-linecap="butt"/></g></g><g stroke="#000000" stroke-width="0" stroke-linecap="butt"><path d="M273.72815,172.10276c-9.05736,0 -16.39979,-7.34244 -16.39979,-16.39979c0,-9.05736 7.34244,-16.39979 16.39979,-16.39979c9.05736,0 16.39979,7.34244 16.39979,16.39979c0,9.05736 -7.34244,16.39979 -16.39979,16.39979z" fill="url(#color-15)"/><path d="M263.01899,153.95335c0.96629,-5.91451 6.54427,-9.92584 12.45878,-8.95955c5.91451,0.96628 9.92584,6.54427 8.95955,12.45878c-0.96629,5.91451 -6.54427,9.92584 -12.45878,8.95956c-5.91451,-0.96628 -9.92584,-6.54428 -8.95955,-12.45878z" fill="url(#color-16)"/></g><g stroke="#000000" stroke-width="0" stroke-linecap="butt"><path d="M283.64504,214.77008c-9.05736,0 -16.39979,-7.34244 -16.39979,-16.39979c0,-9.05736 7.34244,-16.39979 16.39979,-16.39979c9.05736,0 16.39979,7.34244 16.39979,16.39979c0,9.05736 -7.34244,16.39979 -16.39979,16.39979z" fill="url(#color-17)"/><path d="M272.93587,196.62068c0.96629,-5.9145 6.54427,-9.92585 12.45878,-8.95956c5.91451,0.96628 9.92585,6.54427 8.95956,12.45879c-0.96629,5.9145 -6.54427,9.92584 -12.45879,8.95955c-5.91451,-0.96628 -9.92584,-6.54427 -8.95956,-12.45878z" fill="url(#color-18)"/></g></g></g></svg>