<svg version="1.1" xmlns="http://www.w3.org/2000/svg" xmlns:xlink="http://www.w3.org/1999/xlink" width="92.42581" height="92.42581" viewBox="0,0,92.42581,92.42581"><defs><radialGradient cx="240" cy="180.00001" r="43.05868" gradientUnits="userSpaceOnUse" id="color-1"><stop offset="0" stop-color="#ff00ff" stop-opacity="0.7451"/><stop offset="1" stop-color="#ff00ff" stop-opacity="0"/></radialGradient><linearGradient x1="222.80695" y1="148.15219" x2="222.80695" y2="174.27014" gradientUnits="userSpaceOnUse" id="color-2"><stop offset="0" stop-color="#000000"/><stop offset="1" stop-color="#636363"/></linearGradient><linearGradient x1="217.29226" y1="160.97092" x2="251.37288" y2="195.05154" gradientUnits="userSpaceOnUse" id="color-3"><stop offset="0" stop-color="#ffffff"/><stop offset="1" stop-color="#e9e0f2"/></linearGradient><linearGradient x1="217.53706" y1="177.94599" x2="217.53706" y2="181.42838" gradientUnits="userSpaceOnUse" id="color-4"><stop offset="0" stop-color="#ffffff"/><stop offset="1" stop-color="#000000"/></linearGradient><linearGradient x1="236.63421" y1="165.81518" x2="236.63421" y2="180.07868" gradientUnits="userSpaceOnUse" id="color-5"><stop offset="0" stop-color="#000000"/><stop offset="1" stop-color="#636363"/></linearGradient><linearGradient x1="257.92109" y1="152.08834" x2="257.92109" y2="177.55906" gradientUnits="userSpaceOnUse" id="color-6"><stop offset="0" stop-color="#ffffff"/><stop offset="1" stop-color="#dcd0e8"/></linearGradient><linearGradient x1="262.56632" y1="156.56797" x2="262.56632" y2="166.62822" gradientUnits="userSpaceOnUse" id="color-7"><stop offset="0" stop-color="#000000"/><stop offset="1" stop-color="#000000" stop-opacity="0"/></linearGradient><linearGradient x1="260.63166" y1="166.62822" x2="260.63166" y2="170.691" gradientUnits="userSpaceOnUse" id="color-8"><stop offset="0" stop-color="#000000"/><stop offset="1" stop-color="#000000" stop-opacity="0"/></linearGradient><linearGradient x1="266.62914" y1="166.82168" x2="266.62914" y2="173.59301" gradientUnits="userSpaceOnUse" id="color-9"><stop offset="0" stop-color="#000000"/><stop offset="1" stop-color="#000000" stop-opacity="0"/></linearGradient><linearGradient x1="268.46705" y1="161.40462" x2="268.46705" y2="166.43474" gradientUnits="userSpaceOnUse" id="color-10"><stop offset="0" stop-color="#000000"/><stop offset="1" stop-color="#000000" stop-opacity="0"/></linearGradient></defs><g transform="translate(-193.78711,-133.7871)"><g data-paper-data="{&quot;isPaintingLayer&quot;:true}" fill-rule="nonzero" stroke-linejoin="miter" stroke-miterlimit="10" stroke-dasharray="" stroke-dashoffset="0" style="mix-blend-mode: normal"><path d="M193.78711,226.21291v-92.42581h92.42581v92.42581z" fill="none" stroke="none" stroke-width="0" stroke-linecap="butt"/><path d="M196.94132,180.00001c0,-23.78067 19.27802,-43.05869 43.05868,-43.05869c23.78067,0 43.05868,19.27803 43.05868,43.05869c0,23.78067 -19.27802,43.05868 -43.05868,43.05868c-23.78067,0 -43.05868,-19.27803 -43.05868,-43.05868z" fill="url(#color-1)" stroke="none" stroke-width="0" stroke-linecap="butt"/><g><path d="M214.97364,174.27014l-6.38853,-9.54609l5.131,-16.57185l14.16136,0.64723l9.15133,5.15676l-2.902,17.41197z" fill="url(#color-2)" stroke="none" stroke-width="0" stroke-linecap="butt"/><path d="M211.5396,197.48609l-4.74658,-10.71458l2.42498,-9.01897l7.90997,-2.11475l-1.12463,-10.42111l5.90472,-8.86153l16.45653,-6.5424l16.78289,4.71417l10.64725,12.39615l-5.38257,19.0892l7.41866,13.02428l-11.066,9.28839l-17.24779,3.52285l-14.13235,-2.79635l1.21629,-8.13911z" fill="url(#color-3)" stroke="none" stroke-width="0" stroke-linecap="butt"/><path d="M223.19596,177.6558l1.74119,7.25497l-7.54517,2.0314l-6.96479,-2.0314l1.7412,-7.25497z" data-paper-data="{&quot;index&quot;:null}" fill="#000000" stroke="none" stroke-width="0" stroke-linecap="butt"/><path d="M212.74877,181.42838l0.5804,-3.48239h8.41579l-0.5804,3.48239z" fill="url(#color-4)" stroke="none" stroke-width="0" stroke-linecap="butt"/><path d="M233.40363,180.07868l-4.52718,-8.04882l7.08866,-6.21469l8.42684,3.03483l-1.21523,9.32782z" data-paper-data="{&quot;index&quot;:null}" fill="url(#color-5)" stroke="none" stroke-width="0" stroke-linecap="butt"/><path d="M225.02293,172.25653l-2.54317,2.67813l-3.81986,-0.29181l-0.60846,-4.54836l4.07017,-1.57949z" data-paper-data="{&quot;index&quot;:null}" fill="#000000" stroke="none" stroke-width="0" stroke-linecap="butt"/><path d="M247.0849,174.65707l-2.902,-17.41196l9.15133,-5.15676l16.09603,-0.45378l3.77673,16.37839l-6.96893,9.54608z" data-paper-data="{&quot;index&quot;:null}" fill="url(#color-6)" stroke="none" stroke-width="0" stroke-linecap="butt"/><path d="M217.77889,190.61804l-0.38692,-5.41706" fill="none" stroke="#000000" stroke-width="1" stroke-linecap="round"/><path d="M258.79375,162.17849l3.86933,-5.61051l3.67586,4.06279l-4.06279,5.99746z" data-paper-data="{&quot;index&quot;:null}" fill="url(#color-7)" stroke="none" stroke-width="0" stroke-linecap="butt"/><path d="M258.21333,170.691l1.74119,-4.06279l3.09546,4.06279z" fill="url(#color-8)" stroke="none" stroke-width="0" stroke-linecap="butt"/><path d="M263.43693,173.20608l0.38693,-4.6432l3.32365,1.00094l2.67382,-2.74212l-0.43363,4.66321l-2.2749,2.10811z" fill="url(#color-9)" stroke="none" stroke-width="0" stroke-linecap="butt"/><path d="M265.952,166.43474l3.67585,-5.03011l1.35426,3.67588z" fill="url(#color-10)" stroke="none" stroke-width="0" stroke-linecap="butt"/></g></g></g></svg>