<svg version="1.1" xmlns="http://www.w3.org/2000/svg" xmlns:xlink="http://www.w3.org/1999/xlink" width="37.6" height="43.6" viewBox="0,0,37.6,43.6"><g transform="translate(-221.2,-158.2)"><g data-paper-data="{&quot;isPaintingLayer&quot;:true}" fill-rule="nonzero" stroke="none" stroke-linecap="butt" stroke-linejoin="miter" stroke-miterlimit="10" stroke-dasharray="" stroke-dashoffset="0" style="mix-blend-mode: normal"><path d="M239.52215,191.71275v-20.92433h-2.46051c-0.93539,0 -1.64031,-0.27791 -2.11478,-0.83372c-0.47448,-0.56937 -0.71172,-1.24719 -0.71172,-2.03345c0,-0.75915 0.2508,-1.42342 0.75239,-1.99279c0.51514,-0.58294 1.20651,-0.8744 2.07412,-0.8744h5.91738c0.86761,0 1.54542,0.27791 2.03345,0.83374c0.50159,0.54225 0.75239,1.24717 0.75239,2.11478v23.71017c0,1.03028 -0.29146,1.8301 -0.87438,2.39947c-0.56937,0.55581 -1.31498,0.83372 -2.23682,0.83372c-0.90828,0 -1.66066,-0.28469 -2.25714,-0.85406c-0.58292,-0.58292 -0.87438,-1.37596 -0.87438,-2.37913z" fill="#ff0000" stroke-width="0.40889"/><path d="M221.2,201.8v-43.6h37.6v43.6z" fill="none" stroke-width="0"/></g></g></svg>