<svg version="1.1" xmlns="http://www.w3.org/2000/svg" xmlns:xlink="http://www.w3.org/1999/xlink" width="74.03522" height="74.03522" viewBox="0,0,74.03522,74.03522"><defs><radialGradient cx="291.73221" cy="172.51654" r="37.01739" gradientUnits="userSpaceOnUse" id="color-1"><stop offset="0" stop-color="#000000" stop-opacity="0.63137"/><stop offset="1" stop-color="#000000" stop-opacity="0"/></radialGradient><linearGradient x1="292.62528" y1="209.52314" x2="290.83913" y2="135.5099" gradientUnits="userSpaceOnUse" id="color-2"><stop offset="0" stop-color="#ff5454"/><stop offset="1" stop-color="#eb0000"/></linearGradient><linearGradient x1="282.42894" y1="144.9663" x2="290.63338" y2="203.1191" gradientUnits="userSpaceOnUse" id="color-3"><stop offset="0" stop-color="#929292"/><stop offset="1" stop-color="#000000"/></linearGradient><linearGradient x1="271.95451" y1="177.80654" x2="297.05924" y2="173.53251" gradientUnits="userSpaceOnUse" id="color-4"><stop offset="0" stop-color="#c40000"/><stop offset="1" stop-color="#ff4141"/></linearGradient><linearGradient x1="301.0873" y1="139.37093" x2="310.29236" y2="204.6161" gradientUnits="userSpaceOnUse" id="color-5"><stop offset="0" stop-color="#929292"/><stop offset="1" stop-color="#000000"/></linearGradient><linearGradient x1="302.58637" y1="172.32064" x2="319.01919" y2="169.85649" gradientUnits="userSpaceOnUse" id="color-6"><stop offset="0" stop-color="#da0000"/><stop offset="1" stop-color="#ff4343"/></linearGradient><linearGradient x1="300.69902" y1="171.28195" x2="311.70608" y2="169.72903" gradientUnits="userSpaceOnUse" id="color-7"><stop offset="0" stop-color="#000000" stop-opacity="0.38824"/><stop offset="1" stop-color="#000000" stop-opacity="0"/></linearGradient><linearGradient x1="312.39292" y1="174.57413" x2="319.08313" y2="173.92809" gradientUnits="userSpaceOnUse" id="color-8"><stop offset="0" stop-color="#ffffff" stop-opacity="0"/><stop offset="1" stop-color="#ffffff" stop-opacity="0.80784"/></linearGradient><linearGradient x1="263.91814" y1="162.22964" x2="285.05077" y2="167.16946" gradientUnits="userSpaceOnUse" id="color-9"><stop offset="0" stop-color="#eb0000"/><stop offset="1" stop-color="#ff5454"/></linearGradient><linearGradient x1="268.69729" y1="187.30168" x2="289.82992" y2="192.24151" gradientUnits="userSpaceOnUse" id="color-10"><stop offset="0" stop-color="#eb0000"/><stop offset="1" stop-color="#ff5454"/></linearGradient></defs><g transform="translate(-254.71458,-135.49894)"><g data-paper-data="{&quot;isPaintingLayer&quot;:true}" fill-rule="nonzero" stroke-width="0" stroke-linecap="butt" stroke-linejoin="miter" stroke-miterlimit="10" stroke-dasharray="" stroke-dashoffset="0" style="mix-blend-mode: normal"><path d="M290.83912,135.50994c20.43819,-0.49323 37.40646,15.67535 37.89969,36.11355c0.49323,20.4382 -15.67537,37.40646 -36.11355,37.89969c-20.43819,0.49323 -37.40646,-15.67536 -37.89969,-36.11355c-0.49323,-20.43819 15.67537,-37.40646 36.11355,-37.89969z" data-paper-data="{&quot;index&quot;:null}" fill="url(#color-1)" stroke="url(#color-2)"/><g stroke="none"><path d="M302.29275,142.16382l8.70951,58.08156l-35.06109,-1.98487c0,0 -7.22626,-3.9973 -9.45246,-19.03727c-1.96056,-13.24547 3.16462,-22.89477 3.16462,-22.89477z" data-paper-data="{&quot;index&quot;:null}" fill="url(#color-3)"/><path d="M282.87089,202.93418l-8.94844,-13.56843l-4.05756,-26.27892l5.56997,-12.85893l18.02394,2.15642l0.79717,5.65032l-14.27118,-0.07515l-2.62708,11.40518l1.9788,14.14812l6.01315,10.67793l12.83043,-4.6412l0.83045,5.88617z" fill="url(#color-4)"/><path d="M310.56178,204.5778c-7.96139,1.19746 -16.59659,-12.42027 -19.28731,-30.41607c-2.6907,-17.9958 1.58202,-33.55504 9.5434,-34.75251c7.96139,-1.19746 16.5966,12.42029 19.28731,30.41608c2.6907,17.9958 -1.58203,33.55502 -9.54341,34.7525z" data-paper-data="{&quot;index&quot;:null}" fill="url(#color-5)"/><path d="M314.64771,196.72944c-4.53779,0.68046 -9.93785,-10.24773 -12.06135,-24.40879c-2.1235,-14.16107 -0.16632,-26.1925 4.37149,-26.87296c4.53779,-0.68046 9.93784,10.24773 12.06134,24.4088c2.1235,14.16107 0.16631,26.19249 -4.37149,26.87295z" data-paper-data="{&quot;index&quot;:null}" fill="url(#color-6)"/><path d="M309.41558,197.69024l-6.76777,-20.13573l-1.53528,-16.75942c0,0 0.24127,-8.37226 1.75371,-11.59069c2.2546,-4.7977 5.30876,-4.26745 5.30876,-4.26745l7.4495,52.5657z" fill="url(#color-7)"/><path d="M319.57257,174.0303c0.8234,8.5267 -0.0749,15.90988 -1.92236,16.08828c-1.84746,0.1784 -4.4339,-7.01774 -5.2573,-15.54445c-0.8234,-8.5267 0.44248,-16.8547 2.28994,-17.03309c1.84746,-0.1784 4.06632,7.96256 4.88972,16.48927z" fill="url(#color-8)"/></g><path d="M263.91814,162.22964c1.3641,-5.83561 7.20061,-9.4605 13.03622,-8.0964c5.83561,1.36409 9.4605,7.20061 8.0964,13.03622c-1.3641,5.83561 -7.20061,9.4605 -13.03622,8.09641c-5.83561,-1.36409 -9.46049,-7.20062 -8.0964,-13.03622z" fill="url(#color-9)" stroke="#000000"/><path d="M268.69729,187.30168c1.3641,-5.8356 7.20061,-9.46051 13.03622,-8.09641c5.83561,1.36409 9.46051,7.20061 8.0964,13.03623c-1.3641,5.8356 -7.20061,9.4605 -13.03623,8.09639c-5.83561,-1.36409 -9.4605,-7.20061 -8.09641,-13.03622z" fill="url(#color-10)" stroke="#000000"/></g></g></svg>