<svg version="1.1" xmlns="http://www.w3.org/2000/svg" xmlns:xlink="http://www.w3.org/1999/xlink" width="80.13905" height="88.6978" viewBox="0,0,80.13905,88.6978"><defs><radialGradient cx="242.66185" cy="180.00005" r="32.79887" gradientUnits="userSpaceOnUse" id="color-1"><stop offset="0" stop-color="#000000"/><stop offset="1" stop-color="#000000" stop-opacity="0"/></radialGradient><radialGradient cx="230.25406" cy="207.47743" r="16.87885" gradientUnits="userSpaceOnUse" id="color-2"><stop offset="0" stop-color="#000000"/><stop offset="1" stop-color="#000000" stop-opacity="0"/></radialGradient><radialGradient cx="230.57352" cy="152.53733" r="16.87885" gradientUnits="userSpaceOnUse" id="color-3"><stop offset="0" stop-color="#000000"/><stop offset="1" stop-color="#000000" stop-opacity="0"/></radialGradient><linearGradient x1="213.76412" y1="180.0804" x2="261.39964" y2="180.0804" gradientUnits="userSpaceOnUse" id="color-4"><stop offset="0" stop-color="#950000"/><stop offset="1" stop-color="#e60000"/></linearGradient><linearGradient x1="251.27297" y1="180.20364" x2="272.67332" y2="180.20364" gradientUnits="userSpaceOnUse" id="color-5"><stop offset="0" stop-color="#d80000"/><stop offset="1" stop-color="#ff7b7b"/></linearGradient><linearGradient x1="258.31543" y1="179.87687" x2="262.39597" y2="179.87687" gradientUnits="userSpaceOnUse" id="color-6"><stop offset="0" stop-color="#ffffff"/><stop offset="1" stop-color="#1a1a1a"/></linearGradient><linearGradient x1="217.18683" y1="204.51872" x2="251.10291" y2="204.51872" gradientUnits="userSpaceOnUse" id="color-7"><stop offset="0" stop-color="#990000"/><stop offset="1" stop-color="#ff4c4c"/></linearGradient><linearGradient x1="213.76129" y1="167.60032" x2="239.7767" y2="167.60032" gradientUnits="userSpaceOnUse" id="color-8"><stop offset="0" stop-color="#330000"/><stop offset="1" stop-color="#ab0000"/></linearGradient><linearGradient x1="217.70232" y1="156.54879" x2="251.61841" y2="156.54879" gradientUnits="userSpaceOnUse" id="color-9"><stop offset="0" stop-color="#450000"/><stop offset="1" stop-color="#ff2f2f"/></linearGradient></defs><g transform="translate(-199.93048,-135.65848)"><g data-paper-data="{&quot;isPaintingLayer&quot;:true}" fill-rule="nonzero" stroke-linejoin="miter" stroke-miterlimit="10" stroke-dasharray="" stroke-dashoffset="0" style="mix-blend-mode: normal"><path d="M199.93048,219.7464v-79.49276h80.13905v79.49276z" fill="none" stroke="none" stroke-width="NaN" stroke-linecap="butt"/><path d="M209.86296,180.00005c0,-18.11432 14.68456,-32.79887 32.79887,-32.79887c18.11432,0 32.79887,14.68456 32.79887,32.79887c0,18.11432 -14.68456,32.79887 -32.79887,32.79887c-18.11432,0 -32.79887,-14.68456 -32.79887,-32.79887z" fill="url(#color-1)" stroke="#000000" stroke-width="0" stroke-linecap="butt"/><path d="M213.3752,207.47743c0,-9.32193 7.55692,-16.87884 16.87885,-16.87884c9.32193,0 16.87885,7.55691 16.87885,16.87884c0,9.32193 -7.55693,16.87885 -16.87885,16.87885c-9.32193,0 -16.87885,-7.55693 -16.87885,-16.87885z" fill="url(#color-2)" stroke="#000000" stroke-width="0" stroke-linecap="butt"/><path d="M213.69467,152.53733c0,-9.32193 7.55692,-16.87885 16.87884,-16.87885c9.32193,0 16.87885,7.55692 16.87885,16.87885c0,9.32193 -7.55693,16.87885 -16.87885,16.87885c-9.32193,0 -16.87884,-7.55692 -16.87884,-16.87885z" fill="url(#color-3)" stroke="#000000" stroke-width="0" stroke-linecap="butt"/><path d="M213.76412,180.0804c0,-13.90843 10.66358,-25.18349 23.81775,-25.18349c13.15418,0 23.81776,11.27504 23.81776,25.18349c0,13.90843 -10.66358,25.18349 -23.81776,25.18349c-13.15418,0 -23.81774,-11.27504 -23.81774,-25.18349z" fill="url(#color-4)" stroke="#000000" stroke-width="0" stroke-linecap="butt"/><path d="M251.27297,198.25008c0,0 -6.11438,-10.96979 -6.11438,-17.3077c0,-5.60199 6.11438,-18.78518 6.11438,-18.78518l16.72703,3.08008l4.5282,7.67366l0.07222,15.63664l-4.23839,8.48843z" fill="url(#color-5)" stroke="none" stroke-width="0" stroke-linecap="butt"/><path d="M269.34542,179.81842c0.37942,5.06393 -4.26133,5.06687 -4.26133,5.06687c0,0 -0.61324,4.24839 -2.97569,4.24839c-3.13135,0 -5.66981,-0.89849 -5.66981,-9.14113c0,-8.06518 2.53846,-9.14113 5.66981,-9.14113c2.51842,0 2.95474,4.91685 2.95474,4.91685c0,0 3.88234,-1.2878 4.28228,4.05014z" fill="#000000" stroke="none" stroke-width="0" stroke-linecap="butt"/><path d="M262.39597,179.87687c0,3.19526 -0.91345,5.78553 -2.04026,5.78553c-1.1268,0 -2.04026,-2.59027 -2.04026,-5.78553c0,-3.19526 0.91346,-5.78553 2.04026,-5.78553c1.1268,0 2.04026,2.59027 2.04026,5.78553z" fill="url(#color-6)" stroke="none" stroke-width="0" stroke-linecap="butt"/><path d="M247.28945,215.30824c-4.47521,2.28403 -14.58231,8.69843 -22.41068,2.68291c-2.83314,-2.17705 -5.36781,-9.06633 -7.22906,-14.01827c-2.56455,-6.82309 6.36336,-15.43182 6.36336,-15.43182l19.19017,13.01874c0,0 14.61576,8.37445 4.08621,13.74845z" data-paper-data="{&quot;index&quot;:null}" fill="url(#color-7)" stroke="#000000" stroke-width="0" stroke-linecap="butt"/><path d="M271.96198,180.29216h-3.49406" fill="none" stroke="#000000" stroke-width="1.5" stroke-linecap="round"/><path d="M241.22274,190.17407c0,-2.81282 2.28024,-5.09305 5.09305,-5.09305c2.81282,0 5.09305,2.28023 5.09305,5.09305c0,2.81282 -2.28023,5.09305 -5.09305,5.09305c-2.81282,0 -5.09305,-2.28024 -5.09305,-5.09305z" fill="#000000" stroke="#000000" stroke-width="0" stroke-linecap="butt"/><path d="M240.72174,169.7985c0,-2.81282 2.28024,-5.09305 5.09305,-5.09305c2.81282,0 5.09305,2.28023 5.09305,5.09305c0,2.81282 -2.28024,5.09305 -5.09305,5.09305c-2.81282,0 -5.09305,-2.28024 -5.09305,-5.09305z" fill="#000000" stroke="#000000" stroke-width="0" stroke-linecap="butt"/><path d="M237.58188,154.89691c0,0 5.65109,3.60837 -1.18224,16.01682c-6.57225,11.93435 -22.6355,9.16667 -22.6355,9.16667c0,0 -0.32944,-9.96028 6.08556,-16.91656c8.78013,-9.52097 17.73218,-8.26693 17.73218,-8.26693z" fill="url(#color-8)" stroke="#000000" stroke-width="0" stroke-linecap="butt"/><path d="M243.71873,159.85407l-19.19018,13.01874c0,0 -8.92791,-8.60873 -6.36336,-15.43183c1.4792,-3.93547 3.38374,-11.64419 5.5254,-13.76889c7.99931,-7.93598 19.30669,-0.02017 24.11435,2.43353c10.52956,5.374 -4.08621,13.74845 -4.08621,13.74845z" fill="url(#color-9)" stroke="#000000" stroke-width="0" stroke-linecap="butt"/><path d="M235.18334,206.80368c0,-1.84095 1.49238,-3.33333 3.33333,-3.33333c1.84095,0 3.33333,1.49238 3.33333,3.33333c0,1.84095 -1.49238,3.33333 -3.33333,3.33333c-1.84095,0 -3.33333,-1.49238 -3.33333,-3.33333z" fill-opacity="0.41961" fill="#ffffff" stroke="#ff7c00" stroke-width="0" stroke-linecap="butt"/><path d="M230.35001,200.05368c0,-1.15059 0.93274,-2.08333 2.08333,-2.08333c1.15059,0 2.08333,0.93274 2.08333,2.08333c0,1.15059 -0.93274,2.08333 -2.08333,2.08333c-1.15059,0 -2.08333,-0.93274 -2.08333,-2.08333z" fill-opacity="0.41961" fill="#ffffff" stroke="#ff7c00" stroke-width="0" stroke-linecap="butt"/><path d="M227.68334,212.38701c0,-1.79493 1.45507,-3.25 3.25,-3.25c1.79493,0 3.25,1.45507 3.25,3.25c0,1.79493 -1.45507,3.25 -3.25,3.25c-1.79493,0 -3.25,-1.45507 -3.25,-3.25z" fill-opacity="0.41961" fill="#ffffff" stroke="#ff7c00" stroke-width="0" stroke-linecap="butt"/><path d="M243.01668,210.47035c0,-1.01252 0.82081,-1.83333 1.83333,-1.83333c1.01252,0 1.83333,0.82081 1.83333,1.83333c0,1.01252 -0.82081,1.83333 -1.83333,1.83333c-1.01252,0 -1.83333,-0.82081 -1.83333,-1.83333z" fill-opacity="0.41961" fill="#ffffff" stroke="#ff7c00" stroke-width="0" stroke-linecap="butt"/></g></g></svg>