<svg version="1.1" xmlns="http://www.w3.org/2000/svg" xmlns:xlink="http://www.w3.org/1999/xlink" width="69.74804" height="69.74805" viewBox="0,0,69.74804,69.74805"><defs><radialGradient cx="240.00001" cy="180.00001" r="34.87403" gradientUnits="userSpaceOnUse" id="color-1"><stop offset="0" stop-color="#000000"/><stop offset="1" stop-color="#000000" stop-opacity="0"/></radialGradient><linearGradient x1="238.77502" y1="156.05728" x2="238.77502" y2="203.94272" gradientUnits="userSpaceOnUse" id="color-2"><stop offset="0" stop-color="#ab0000"/><stop offset="1" stop-color="#260000"/></linearGradient><linearGradient x1="243.89767" y1="156.05728" x2="243.89767" y2="203.94272" gradientUnits="userSpaceOnUse" id="color-3"><stop offset="0" stop-color="#e80000"/><stop offset="1" stop-color="#840000"/></linearGradient><linearGradient x1="224.52076" y1="179.9394" x2="254.13568" y2="179.9394" gradientUnits="userSpaceOnUse" id="color-4"><stop offset="0" stop-color="#ff5757"/><stop offset="1" stop-color="#ffffff"/></linearGradient><linearGradient x1="243.25177" y1="186.11323" x2="251.0248" y2="186.11323" gradientUnits="userSpaceOnUse" id="color-5"><stop offset="0" stop-color="#000000"/><stop offset="1" stop-color="#000000"/></linearGradient><linearGradient x1="243.25177" y1="172.74985" x2="251.0248" y2="172.74985" gradientUnits="userSpaceOnUse" id="color-6"><stop offset="0" stop-color="#000000"/><stop offset="1" stop-color="#000000"/></linearGradient><linearGradient x1="257.92921" y1="190.80207" x2="268.39719" y2="190.80207" gradientUnits="userSpaceOnUse" id="color-7"><stop offset="0" stop-color="#000000"/><stop offset="1" stop-color="#8d2121"/></linearGradient><linearGradient x1="257.13241" y1="170.08883" x2="262.03231" y2="170.08883" gradientUnits="userSpaceOnUse" id="color-8"><stop offset="0" stop-color="#000000"/><stop offset="1" stop-color="#8d2121"/></linearGradient><linearGradient x1="261.36414" y1="176.77052" x2="266.26404" y2="176.77052" gradientUnits="userSpaceOnUse" id="color-9"><stop offset="0" stop-color="#000000"/><stop offset="1" stop-color="#8d2121"/></linearGradient><linearGradient x1="264.3453" y1="170.26867" x2="268.714" y2="170.26867" gradientUnits="userSpaceOnUse" id="color-10"><stop offset="0" stop-color="#000000"/><stop offset="1" stop-color="#8d2121"/></linearGradient><linearGradient x1="261.36414" y1="163.85259" x2="266.26404" y2="163.85259" gradientUnits="userSpaceOnUse" id="color-11"><stop offset="0" stop-color="#000000"/><stop offset="1" stop-color="#8d2121"/></linearGradient></defs><g transform="translate(-205.12598,-145.12599)"><g data-paper-data="{&quot;isPaintingLayer&quot;:true}" fill-rule="nonzero" stroke-width="0" stroke-linecap="butt" stroke-linejoin="miter" stroke-miterlimit="10" stroke-dasharray="" stroke-dashoffset="0" style="mix-blend-mode: normal"><path d="M205.12598,180.00001c0,-19.2604 15.61364,-34.87402 34.87402,-34.87402c19.26041,0 34.87402,15.61364 34.87402,34.87402c0,19.2604 -15.61364,34.87403 -34.87402,34.87403c-19.2604,0 -34.87402,-15.61364 -34.87402,-34.87403z" fill="url(#color-1)" stroke="#000000"/><path d="M260.26425,203.94272c-12.30105,0 -37.57756,-0.44544 -43.97796,-0.44544c-2.88866,0 -5.7971,-3.64618 -5.7971,-6.90441c0,-5.76227 0,-24.7077 0,-34.52206c0,-3.63203 2.3456,-6.01352 4.79759,-6.01352c6.19817,0 33.51329,0 45.77705,0c3.67388,0 5.99699,3.08136 5.99699,7.57258c0,9.99959 0,26.98819 0,32.51756c0,3.43089 -2.66717,7.7953 -6.7966,7.7953z" fill="url(#color-2)" stroke="none"/><path d="M263.35642,203.94272c-11.13874,0 -34.02691,-0.44544 -39.82256,-0.44544c-2.61572,0 -5.24934,-3.64617 -5.24934,-6.90441c0,-5.76227 0,-24.7077 0,-34.52206c0,-3.63202 2.12397,-6.01352 4.34428,-6.01352c5.61251,0 30.34668,0 41.45166,0c3.32673,0 5.43035,3.08136 5.43035,7.57258c0,9.9996 0,26.98819 0,32.51756c0,3.43089 -2.41516,7.7953 -6.1544,7.7953z" fill="url(#color-3)" stroke="none"/><path d="M250.5777,198.59738c-6.43952,0 -19.67162,-0.34393 -23.02219,-0.34393c-1.5122,0 -3.03475,-2.81518 -3.03475,-5.33084c0,-4.44901 0,-19.07664 0,-26.65424c0,-2.80426 1.22791,-4.643 2.51152,-4.643c3.2447,0 17.544,0 23.96401,0c1.92325,0 3.13939,2.37909 3.13939,5.84674c0,7.72062 0,20.8374 0,25.10658c0,2.64896 -1.39625,6.0187 -3.55798,6.0187z" fill="url(#color-4)" stroke="none"/><path d="M251.0248,190.13389h-7.77301v-8.04133h7.77301z" fill="url(#color-5)" stroke="none"/><path d="M251.0248,176.77052h-7.77302v-8.04133h7.77302z" fill="url(#color-6)" stroke="none"/><path d="M263.1632,196.81559c-2.89066,0 -5.23399,-2.69234 -5.23399,-6.01352c0,-3.32117 2.34334,-6.01352 5.23399,-6.01352c2.89066,0 5.23399,2.69234 5.23399,6.01352c0,3.32117 -2.34334,6.01352 -5.23399,6.01352z" fill="url(#color-7)" stroke="none"/><path d="M259.58236,173.20695c-1.35308,0 -2.44995,-1.39603 -2.44995,-3.11812c0,-1.72209 1.09688,-3.11812 2.44995,-3.11812c1.35308,0 2.44995,1.39603 2.44995,3.11812c0,1.72209 -1.09688,3.11812 -2.44995,3.11812z" fill="url(#color-8)" stroke="none"/><path d="M263.81409,179.88864c-1.35307,0 -2.44995,-1.39603 -2.44995,-3.11812c0,-1.72209 1.09688,-3.11812 2.44995,-3.11812c1.35307,0 2.44995,1.39603 2.44995,3.11812c0,1.72209 -1.09688,3.11812 -2.44995,3.11812z" fill="url(#color-9)" stroke="none"/><path d="M266.52965,173.38679c-1.20638,0 -2.18435,-1.39603 -2.18435,-3.11812c0,-1.72209 0.97797,-3.11812 2.18435,-3.11812c1.20638,0 2.18435,1.39603 2.18435,3.11812c0,1.72209 -0.97797,3.11812 -2.18435,3.11812z" fill="url(#color-10)" stroke="none"/><path d="M263.81409,166.97071c-1.35307,0 -2.44995,-1.39603 -2.44995,-3.11812c0,-1.72209 1.09688,-3.11812 2.44995,-3.11812c1.35307,0 2.44995,1.39603 2.44995,3.11812c0,1.72209 -1.09688,3.11812 -2.44995,3.11812z" fill="url(#color-11)" stroke="none"/></g></g></svg>