<svg version="1.1" xmlns="http://www.w3.org/2000/svg" xmlns:xlink="http://www.w3.org/1999/xlink" width="37.6" height="43.6" viewBox="0,0,37.6,43.6"><g transform="translate(-221.20009,-158.2)"><g data-paper-data="{&quot;isPaintingLayer&quot;:true}" fill-rule="nonzero" stroke="none" stroke-linecap="butt" stroke-linejoin="miter" stroke-miterlimit="10" stroke-dasharray="" stroke-dashoffset="0" style="mix-blend-mode: normal"><path d="M221.20009,201.8v-43.6h37.6v43.6z" fill="none" stroke-width="0"/><path d="M236.51269,192.43271l-6.03938,-15.47464c-0.24401,-0.65072 -0.36602,-1.23364 -0.36602,-1.74878c0,-0.92184 0.30502,-1.64033 0.91506,-2.15547c0.61004,-0.51514 1.34886,-0.77271 2.21647,-0.77271c1.30142,0 2.18936,0.71171 2.66383,2.13512l3.82291,11.81442h0.08133l3.84324,-11.81442c0.44736,-1.42342 1.3353,-2.13512 2.66383,-2.13512c0.86761,0 1.59966,0.25757 2.19614,0.77271c0.61004,0.50159 0.91506,1.22008 0.91506,2.15547c0,0.51514 -0.12201,1.09807 -0.36602,1.74878l-6.03938,15.47464c-0.32535,0.86761 -0.71849,1.50475 -1.17941,1.91144c-0.44736,0.39314 -1.13874,0.58971 -2.07413,0.58971c-0.93539,0 -1.62677,-0.19657 -2.07413,-0.58971c-0.43381,-0.39312 -0.82694,-1.03027 -1.17941,-1.91144z" fill="#ff0000" stroke-width="0.40889"/></g></g></svg>