<svg version="1.1" xmlns="http://www.w3.org/2000/svg" xmlns:xlink="http://www.w3.org/1999/xlink" width="101.04672" height="87.16036" viewBox="0,0,101.04672,87.16036"><defs><radialGradient cx="240.16667" cy="179.99999" r="43.58018" gradientUnits="userSpaceOnUse" id="color-1"><stop offset="0" stop-color="#000000" stop-opacity="0.75294"/><stop offset="1" stop-color="#000000" stop-opacity="0"/></radialGradient><linearGradient x1="280.9385" y1="181.71621" x2="197.61323" y2="181.71621" gradientUnits="userSpaceOnUse" id="color-2"><stop offset="0" stop-color="#ff2929"/><stop offset="1" stop-color="#d50000"/></linearGradient><radialGradient cx="223.61757" cy="198.90859" r="5.76763" gradientUnits="userSpaceOnUse" id="color-3"><stop offset="0" stop-color="#ff6060"/><stop offset="1" stop-color="#ff6060" stop-opacity="0"/></radialGradient><radialGradient cx="212.67874" cy="201.08108" r="9.12829" gradientUnits="userSpaceOnUse" id="color-4"><stop offset="0" stop-color="#ff6060"/><stop offset="1" stop-color="#ff6060" stop-opacity="0"/></radialGradient><radialGradient cx="209.85253" cy="159.90968" r="8.55468" gradientUnits="userSpaceOnUse" id="color-5"><stop offset="0" stop-color="#ff6060"/><stop offset="1" stop-color="#ff6060" stop-opacity="0"/></radialGradient><radialGradient cx="222.20382" cy="160.81249" r="5.3568" gradientUnits="userSpaceOnUse" id="color-6"><stop offset="0" stop-color="#ff6060"/><stop offset="1" stop-color="#ff6060" stop-opacity="0"/></radialGradient><linearGradient x1="278.62154" y1="180.84004" x2="198.0243" y2="180.84004" gradientUnits="userSpaceOnUse" id="color-7"><stop offset="0" stop-color="#ff2929"/><stop offset="1" stop-color="#d50000"/></linearGradient><linearGradient x1="249.05843" y1="180.16833" x2="229.63284" y2="180.08837" gradientUnits="userSpaceOnUse" id="color-8"><stop offset="0" stop-color="#1a1a1a" stop-opacity="0"/><stop offset="1" stop-color="#1a1a1a"/></linearGradient><radialGradient cx="266.12665" cy="179.91948" r="16.62828" gradientUnits="userSpaceOnUse" id="color-9"><stop offset="0" stop-color="#ff5656"/><stop offset="1" stop-color="#ff5656" stop-opacity="0"/></radialGradient><radialGradient cx="262.29053" cy="170.0029" r="13.37764" gradientUnits="userSpaceOnUse" id="color-10"><stop offset="0" stop-color="#ff5656"/><stop offset="1" stop-color="#ff5656" stop-opacity="0"/></radialGradient><radialGradient cx="267.95631" cy="176.83956" r="12.12739" gradientUnits="userSpaceOnUse" id="color-11"><stop offset="0" stop-color="#ff6d6d"/><stop offset="1" stop-color="#ff6d6d" stop-opacity="0"/></radialGradient><radialGradient cx="260.32485" cy="159.89049" r="6.87636" gradientUnits="userSpaceOnUse" id="color-12"><stop offset="0" stop-color="#ff4e4e"/><stop offset="1" stop-color="#ff4e4e" stop-opacity="0"/></radialGradient><radialGradient cx="260.78421" cy="199.01465" r="6.87636" gradientUnits="userSpaceOnUse" id="color-13"><stop offset="0" stop-color="#ff4e4e"/><stop offset="1" stop-color="#ff4e4e" stop-opacity="0"/></radialGradient><radialGradient cx="265.63559" cy="165.47689" r="8.2746" gradientUnits="userSpaceOnUse" id="color-14"><stop offset="0" stop-color="#ff7e7e"/><stop offset="1" stop-color="#ff7e7e" stop-opacity="0"/></radialGradient><radialGradient cx="271.43361" cy="192.08949" r="5.5788" gradientUnits="userSpaceOnUse" id="color-15"><stop offset="0" stop-color="#ff8989"/><stop offset="1" stop-color="#ff8989" stop-opacity="0"/></radialGradient><radialGradient cx="274.43422" cy="186.83847" r="5.5788" gradientUnits="userSpaceOnUse" id="color-16"><stop offset="0" stop-color="#ff6060"/><stop offset="1" stop-color="#ff6060" stop-opacity="0"/></radialGradient><linearGradient x1="247.26215" y1="174.60835" x2="238.53068" y2="174.60835" gradientUnits="userSpaceOnUse" id="color-17"><stop offset="0" stop-color="#000000"/><stop offset="1" stop-color="#737373"/></linearGradient><linearGradient x1="247.38076" y1="185.66702" x2="238.64928" y2="185.66702" gradientUnits="userSpaceOnUse" id="color-18"><stop offset="0" stop-color="#000000"/><stop offset="1" stop-color="#737373"/></linearGradient><radialGradient cx="273.90873" cy="172.69188" r="5.18142" gradientUnits="userSpaceOnUse" id="color-19"><stop offset="0" stop-color="#ff7e7e"/><stop offset="1" stop-color="#ff7e7e" stop-opacity="0"/></radialGradient><radialGradient cx="265.76761" cy="194.48806" r="8.82943" gradientUnits="userSpaceOnUse" id="color-20"><stop offset="0" stop-color="#ff6060"/><stop offset="1" stop-color="#ff6060" stop-opacity="0"/></radialGradient><radialGradient cx="270.25242" cy="166.4233" r="3.43602" gradientUnits="userSpaceOnUse" id="color-21"><stop offset="0" stop-color="#ffb5b5"/><stop offset="1" stop-color="#ffb5b5" stop-opacity="0"/></radialGradient><radialGradient cx="247.8729" cy="200.74099" r="5.57879" gradientUnits="userSpaceOnUse" id="color-22"><stop offset="0" stop-color="#dc0000"/><stop offset="1" stop-color="#dc0000" stop-opacity="0"/></radialGradient><radialGradient cx="247.15009" cy="161.55919" r="5.57879" gradientUnits="userSpaceOnUse" id="color-23"><stop offset="0" stop-color="#dc0000"/><stop offset="1" stop-color="#dc0000" stop-opacity="0"/></radialGradient><radialGradient cx="269.22168" cy="179.31494" r="8.2746" gradientUnits="userSpaceOnUse" id="color-24"><stop offset="0" stop-color="#ff6060"/><stop offset="1" stop-color="#ff6060" stop-opacity="0"/></radialGradient><radialGradient cx="212.28103" cy="166.92129" r="8.2746" gradientUnits="userSpaceOnUse" id="color-25"><stop offset="0" stop-color="#ff6060"/><stop offset="1" stop-color="#ff6060" stop-opacity="0"/></radialGradient><linearGradient x1="212.99239" y1="158.51304" x2="202.34936" y2="160.08981" gradientUnits="userSpaceOnUse" id="color-26"><stop offset="0" stop-color="#ff0000"/><stop offset="1" stop-color="#930000"/></linearGradient><linearGradient x1="202.3273" y1="159.30143" x2="213.01446" y2="159.30143" gradientUnits="userSpaceOnUse" id="color-27"><stop offset="0" stop-color="#000000" stop-opacity="0.5451"/><stop offset="1" stop-color="#ffffff" stop-opacity="0.54118"/></linearGradient><linearGradient x1="205.09656" y1="165.19695" x2="196.4598" y2="166.47649" gradientUnits="userSpaceOnUse" id="color-28"><stop offset="0" stop-color="#8e0000"/><stop offset="1" stop-color="#ff0000"/></linearGradient><linearGradient x1="196.44189" y1="165.8367" x2="205.11445" y2="165.8367" gradientUnits="userSpaceOnUse" id="color-29"><stop offset="0" stop-color="#000000" stop-opacity="0.5451"/><stop offset="1" stop-color="#ffffff" stop-opacity="0.54118"/></linearGradient><linearGradient x1="207.29694" y1="170.81137" x2="202.40525" y2="171.53609" gradientUnits="userSpaceOnUse" id="color-30"><stop offset="0" stop-color="#ff0000"/><stop offset="1" stop-color="#930000"/></linearGradient><linearGradient x1="202.39512" y1="171.17374" x2="207.30708" y2="171.17374" gradientUnits="userSpaceOnUse" id="color-31"><stop offset="0" stop-color="#000000" stop-opacity="0.5451"/><stop offset="1" stop-color="#ffffff" stop-opacity="0.54118"/></linearGradient><linearGradient x1="217.36677" y1="164.29867" x2="211.16038" y2="165.21815" gradientUnits="userSpaceOnUse" id="color-32"><stop offset="0" stop-color="#ff0000"/><stop offset="1" stop-color="#930000"/></linearGradient><linearGradient x1="211.14753" y1="164.7584" x2="217.37964" y2="164.7584" gradientUnits="userSpaceOnUse" id="color-33"><stop offset="0" stop-color="#000000" stop-opacity="0.5451"/><stop offset="1" stop-color="#ffffff" stop-opacity="0.54118"/></linearGradient><linearGradient x1="212.8462" y1="204.4892" x2="202.27619" y2="202.98167" gradientUnits="userSpaceOnUse" id="color-34"><stop offset="0" stop-color="#ff0000"/><stop offset="1" stop-color="#930000"/></linearGradient><linearGradient x1="202.25588" y1="203.73542" x2="212.8665" y2="203.73542" gradientUnits="userSpaceOnUse" id="color-35"><stop offset="0" stop-color="#000000" stop-opacity="0.5451"/><stop offset="1" stop-color="#ffffff" stop-opacity="0.54118"/></linearGradient><linearGradient x1="202.91758" y1="196.97478" x2="194.34009" y2="195.75146" gradientUnits="userSpaceOnUse" id="color-36"><stop offset="0" stop-color="#8e0000"/><stop offset="1" stop-color="#ff0000"/></linearGradient><linearGradient x1="194.32363" y1="196.36313" x2="202.93405" y2="196.36313" gradientUnits="userSpaceOnUse" id="color-37"><stop offset="0" stop-color="#000000" stop-opacity="0.5451"/><stop offset="1" stop-color="#ffffff" stop-opacity="0.54118"/></linearGradient><linearGradient x1="207.13568" y1="193.03014" x2="202.27756" y2="192.33726" gradientUnits="userSpaceOnUse" id="color-38"><stop offset="0" stop-color="#ff0000"/><stop offset="1" stop-color="#930000"/></linearGradient><linearGradient x1="202.26823" y1="192.6837" x2="207.145" y2="192.6837" gradientUnits="userSpaceOnUse" id="color-39"><stop offset="0" stop-color="#000000" stop-opacity="0.5451"/><stop offset="1" stop-color="#ffffff" stop-opacity="0.54118"/></linearGradient><linearGradient x1="216.93554" y1="198.30932" x2="210.77174" y2="197.43023" gradientUnits="userSpaceOnUse" id="color-40"><stop offset="0" stop-color="#ff0000"/><stop offset="1" stop-color="#930000"/></linearGradient><linearGradient x1="210.75991" y1="197.86978" x2="216.94737" y2="197.86978" gradientUnits="userSpaceOnUse" id="color-41"><stop offset="0" stop-color="#000000" stop-opacity="0.5451"/><stop offset="1" stop-color="#ffffff" stop-opacity="0.54118"/></linearGradient></defs><g transform="translate(-184.66423,-136.41982)"><g data-paper-data="{&quot;isPaintingLayer&quot;:true}" fill-rule="nonzero" stroke-linecap="butt" stroke-linejoin="miter" stroke-miterlimit="10" stroke-dasharray="" stroke-dashoffset="0" style="mix-blend-mode: normal"><path d="M196.58649,180c0,-24.06867 19.51151,-43.58018 43.58018,-43.58018c24.06867,0 43.58018,19.51152 43.58018,43.58018c0,24.06867 -19.51151,43.58018 -43.58018,43.58018c-24.06867,0 -43.58018,-19.51152 -43.58018,-43.58018z" data-paper-data="{&quot;index&quot;:null}" fill="url(#color-1)" stroke="none" stroke-width="0"/><g stroke="none" stroke-width="0"><path d="M214.98418,152.46258c14.89366,1.54772 14.73621,8.99881 21.6413,8.70344c1.06653,-0.02762 -0.47035,0.45331 -0.47035,0.45331l0.55832,39.06832c0,0 -0.66533,0.23711 -1.42109,0.23105c-5.99707,-0.04805 -10.20088,9.24518 -19.82139,9.71277c-14.85477,0.722 -15.46627,-8.30489 -20.32978,-10.17069c-4.54256,-1.74267 -10.47696,-3.96882 -10.47696,-3.96882c0,0 1.59248,-9.13447 15.534,-9.38276c9.18601,-0.1636 8.59416,4.24584 13.38826,4.16889c7.89437,-0.12671 10.16549,-4.29784 10.16549,-4.29784l-2.89915,-6.02288l3.24625,-5.658c0,0 -1.33361,-1.89858 -10.22438,-2.43942c-6.31022,-0.38386 -7.61579,3.18261 -14.48506,3.03984c-10.37058,-0.21555 -14.65739,-11.02639 -14.65739,-11.02639c0,0 3.79521,1.94161 8.44525,-1.75656c6.33695,-5.03977 13.15431,-11.55341 21.80667,-10.65428z" data-paper-data="{&quot;index&quot;:null}" fill="url(#color-2)"/><path d="M224.43191,193.19874c3.15347,0.44975 5.34525,3.37073 4.89549,6.52419c-0.44975,3.15347 -3.37073,5.34525 -6.52419,4.8955c-3.15347,-0.44975 -5.34525,-3.37073 -4.8955,-6.5242c0.44975,-3.15347 3.37073,-5.34525 6.5242,-4.89549z" data-paper-data="{&quot;index&quot;:null}" fill="url(#color-3)"/><path d="M211.7176,190.54422c4.99092,0.71181 10.70981,6.83478 9.99799,11.82569c-0.71181,4.99092 -7.58478,6.95981 -12.57569,6.24799c-4.99094,-0.71182 -8.45982,-5.33478 -7.748,-10.3257c0.71181,-4.99092 5.33478,-8.45981 10.3257,-7.74799z" data-paper-data="{&quot;index&quot;:null}" fill="url(#color-4)"/><path d="M207.09882,154.19739c4.67362,-0.6924 9.02361,2.535 9.71601,7.20862c0.6924,4.67362 -2.53499,9.02361 -7.20859,9.71601c-4.67362,0.6924 -9.02362,-2.535 -9.71602,-7.20861c-0.6924,-4.67362 2.53501,-9.02362 7.20861,-9.71602z" data-paper-data="{&quot;index&quot;:null}" fill="url(#color-5)"/><path d="M221.41878,155.51352c2.92654,-0.43357 5.65044,1.58738 6.08401,4.51392c0.43357,2.92654 -1.58737,5.65044 -4.51392,6.08401c-2.92654,0.43357 -5.65045,-1.58738 -6.08402,-4.51391c-0.43357,-2.92654 1.58738,-5.65044 4.51393,-6.08401z" data-paper-data="{&quot;index&quot;:null}" fill="url(#color-6)"/></g><g stroke-width="0"><path d="M235.75929,160.96265c4.73279,-0.12257 5.14354,-4.24544 12.39946,-8.0964c10.16958,-5.39734 22.20902,-0.25417 26.35651,3.25002c4.14749,3.50419 11.46453,10.59543 11.18807,24.09873c-0.2606,12.72862 -6.4651,20.1175 -11.74055,24.50797c-5.34252,4.44627 -17.5679,6.90935 -26.16558,2.76563c-10.39286,-5.00892 -7.52666,-8.02827 -13.32739,-8.07476c-5.80073,-0.04647 -8.25853,-10.34074 -8.25853,-10.34074l0.48038,-17.05455c0,0 2.3886,-10.77021 9.06762,-11.0559z" data-paper-data="{&quot;index&quot;:null}" fill="url(#color-7)" stroke="none"/><path d="M230.97501,192.03621c-2.00946,-2.90558 4.08446,-11.46465 4.08446,-11.46465c0,0 -6.30726,-8.14739 -5.22262,-10.9956c1.38474,-3.63627 3.84505,-5.94556 7.93728,-5.92871c4.7083,0.01938 8.83197,1.21197 11.135,5.84382c1.26657,2.5473 -3.21254,10.89386 -3.21254,10.89386c0,0 4.82433,8.3617 3.21857,11.07191c-2.43506,4.10992 -6.33952,5.15947 -10.7372,5.14137c-4.39766,-0.0181 -7.20297,-4.562 -7.20297,-4.562z" data-paper-data="{&quot;index&quot;:null}" fill="url(#color-8)" stroke="none"/><path d="M233.10313,187.13012c0,-4.00161 3.24396,-7.24559 7.24558,-7.24559c4.0016,0 7.24558,3.24396 7.24558,7.24559c0,4.00161 -3.24395,7.24557 -7.24558,7.24557c-4.0016,0 -7.24558,-3.24394 -7.24558,-7.24557z" data-paper-data="{&quot;index&quot;:null}" fill="#ffffff" stroke="#000000"/><path d="M233.10313,173.09026c0,-4.0016 3.24396,-7.24557 7.24558,-7.24557c4.0016,0 7.24558,3.24394 7.24558,7.24557c0,4.0016 -3.24395,7.24558 -7.24558,7.24558c-4.0016,0 -7.24558,-3.24395 -7.24558,-7.24558z" data-paper-data="{&quot;index&quot;:null}" fill="#ffffff" stroke="#000000"/><path d="M266.12665,163.29122c9.18356,0 16.62829,7.44475 16.62829,16.62829c0,9.18355 -7.44474,16.62828 -16.62829,16.62828c-9.18356,0 -16.62829,-7.44474 -16.62829,-16.62828c0,-9.18355 7.44474,-16.62829 16.62828,-16.62829z" data-paper-data="{&quot;index&quot;:null}" fill="url(#color-9)" stroke="none"/><path d="M262.29053,156.62522c7.38828,0 13.37764,5.98937 13.37764,13.37765c0,7.38828 -5.98937,13.37764 -13.37765,13.37764c-7.38828,0 -13.37765,-5.98936 -13.37765,-13.37764c0,-7.38828 5.98937,-13.37765 13.37765,-13.37765z" data-paper-data="{&quot;index&quot;:null}" fill="url(#color-10)" stroke="none"/><path d="M267.95631,164.71217c6.69779,0 12.12739,5.42961 12.12739,12.12739c0,6.69778 -5.42961,12.12739 -12.12739,12.12739c-6.69779,0 -12.1274,-5.42961 -12.1274,-12.12739c0,-6.69778 5.42961,-12.12739 12.12739,-12.12739z" data-paper-data="{&quot;index&quot;:null}" fill="url(#color-11)" stroke="none"/><path d="M260.32485,153.01415c3.79771,0 6.87635,3.07865 6.87635,6.87636c0,3.79772 -3.07864,6.87636 -6.87636,6.87636c-3.79771,0 -6.87636,-3.07864 -6.87636,-6.87636c0,-3.79772 3.07865,-6.87636 6.87636,-6.87636z" data-paper-data="{&quot;index&quot;:null}" fill="url(#color-12)" stroke="none"/><path d="M260.78421,192.13831c3.79771,0 6.87636,3.07864 6.87636,6.87636c0,3.79771 -3.07865,6.87636 -6.87636,6.87636c-3.79771,0 -6.87636,-3.07864 -6.87636,-6.87635c0,-3.79771 3.07865,-6.87636 6.87636,-6.87636z" data-paper-data="{&quot;index&quot;:null}" fill="url(#color-13)" stroke="none"/><path d="M265.63559,157.20228c4.56995,0 8.2746,3.70466 8.2746,8.2746c0,4.56995 -3.70465,8.2746 -8.27459,8.2746c-4.56995,0 -8.2746,-3.70466 -8.2746,-8.2746c0,-4.56995 3.70467,-8.2746 8.2746,-8.2746z" data-paper-data="{&quot;index&quot;:null}" fill="url(#color-14)" stroke="none"/><path d="M271.43361,186.51067c3.08109,0 5.57879,2.49771 5.57879,5.57879c0,3.08109 -2.49771,5.5788 -5.57879,5.5788c-3.08109,0 -5.5788,-2.49771 -5.5788,-5.5788c0,-3.08109 2.49771,-5.57879 5.5788,-5.57879z" data-paper-data="{&quot;index&quot;:null}" fill="url(#color-15)" stroke="none"/><path d="M274.43422,181.25968c3.08109,0 5.57879,2.49771 5.57879,5.57879c0,3.08109 -2.49771,5.5788 -5.57879,5.5788c-3.08109,0 -5.5788,-2.49771 -5.5788,-5.5788c0,-3.08109 2.49771,-5.57879 5.5788,-5.57879z" data-paper-data="{&quot;index&quot;:null}" fill="url(#color-16)" stroke="none"/><path d="M242.89643,170.24262c2.41113,0 4.36573,1.95461 4.36573,4.36573c0,2.41113 -1.95461,4.36573 -4.36573,4.36573c-2.41113,0 -4.36573,-1.95461 -4.36573,-4.36573c0,-2.41113 1.95461,-4.36573 4.36573,-4.36573z" data-paper-data="{&quot;index&quot;:null}" fill="url(#color-17)" stroke="none"/><path d="M243.01502,181.30131c2.41113,0 4.36574,1.95461 4.36574,4.36574c0,2.41113 -1.95461,4.36574 -4.36574,4.36574c-2.41113,0 -4.36574,-1.95461 -4.36574,-4.36574c0,-2.41113 1.95461,-4.36574 4.36574,-4.36574z" data-paper-data="{&quot;index&quot;:null}" fill="url(#color-18)" stroke="none"/><path d="M273.90873,167.51043c2.86162,0 5.18142,2.3198 5.18142,5.18142c0,2.86162 -2.31979,5.18142 -5.18142,5.18142c-2.86162,0 -5.18143,-2.3198 -5.18143,-5.18142c0,-2.86162 2.3198,-5.18142 5.18143,-5.18142z" data-paper-data="{&quot;index&quot;:null}" fill="url(#color-19)" stroke="none"/><path d="M265.76761,185.6586c4.87636,0 8.82943,3.95307 8.82943,8.82943c0,4.87636 -3.95307,8.82943 -8.82943,8.82943c-4.87637,0 -8.82944,-3.95307 -8.82944,-8.82943c0,-4.87636 3.95307,-8.82943 8.82944,-8.82943z" data-paper-data="{&quot;index&quot;:null}" fill="url(#color-20)" stroke="none"/><path d="M270.25242,162.98724c1.89767,0 3.43602,1.53836 3.43602,3.43602c0,1.89767 -1.53835,3.43602 -3.43602,3.43602c-1.89767,0 -3.43603,-1.53836 -3.43603,-3.43602c0,-1.89767 1.53836,-3.43602 3.43603,-3.43602z" data-paper-data="{&quot;index&quot;:null}" fill="url(#color-21)" stroke="none"/><path d="M247.8729,195.16222c3.08109,0 5.57879,2.49771 5.57879,5.5788c0,3.08108 -2.49771,5.57879 -5.57879,5.57879c-3.08109,0 -5.5788,-2.49771 -5.5788,-5.57879c0,-3.08109 2.49772,-5.5788 5.5788,-5.5788z" data-paper-data="{&quot;index&quot;:null}" fill="url(#color-22)" stroke="none"/><path d="M247.15009,155.98039c3.08109,0 5.57879,2.49771 5.57879,5.57879c0,3.08108 -2.49771,5.57879 -5.57879,5.57879c-3.08109,0 -5.5788,-2.49771 -5.5788,-5.57879c0,-3.08108 2.49772,-5.57879 5.5788,-5.57879z" data-paper-data="{&quot;index&quot;:null}" fill="url(#color-23)" stroke="none"/><path d="M269.22168,171.04039c4.56995,0 8.2746,3.70466 8.2746,8.2746c0,4.56995 -3.70465,8.2746 -8.27459,8.2746c-4.56995,0 -8.2746,-3.70466 -8.2746,-8.2746c0,-4.56995 3.70468,-8.2746 8.2746,-8.2746z" data-paper-data="{&quot;index&quot;:null}" fill="url(#color-24)" stroke="none"/><path d="" data-paper-data="{&quot;index&quot;:null}" fill="url(#color-25)" stroke="none"/></g><path d="M207.18964,156.05308c2.93901,-0.43542 5.53697,0.66594 5.80276,2.45996c0.26578,1.79402 -1.90127,3.60134 -4.84027,4.03675c-2.93901,0.43542 -5.537,-0.66595 -5.80277,-2.45997c-0.26578,-1.79402 1.90129,-3.60133 4.84028,-4.03674z" data-paper-data="{&quot;index&quot;:null}" fill="url(#color-26)" stroke="url(#color-27)" stroke-width="1.5"/><path d="M200.38765,163.20069c2.38497,-0.35333 4.49322,0.54041 4.70891,1.99625c0.21569,1.45585 -1.54287,2.92245 -3.92785,3.27579c-2.38497,0.35333 -4.49323,-0.5404 -4.70891,-1.99624c-0.21569,-1.45585 1.54288,-2.92245 3.92784,-3.27581z" data-paper-data="{&quot;index&quot;:null}" fill="url(#color-28)" stroke="url(#color-29)" stroke-width="1.5"/><path d="M204.62991,169.68074c1.3508,-0.20012 2.54487,0.30607 2.66703,1.13064c0.12215,0.82456 -0.87385,1.65521 -2.22466,1.85535c-1.3508,0.20012 -2.54487,-0.30607 -2.66703,-1.13064c-0.12215,-0.82456 0.87385,-1.65522 2.22466,-1.85535z" data-paper-data="{&quot;index&quot;:null}" fill="url(#color-30)" stroke="url(#color-31)" stroke-width="1.5"/><path d="M213.98295,162.86416c1.71385,-0.25391 3.22881,0.38834 3.38382,1.43451c0.15499,1.04617 -1.1087,2.10008 -2.82254,2.35398c-1.71385,0.25391 -3.22883,-0.38833 -3.38383,-1.43451c-0.15499,-1.04617 1.10871,-2.10008 2.82255,-2.35398z" data-paper-data="{&quot;index&quot;:null}" fill="url(#color-32)" stroke="url(#color-33)" stroke-width="1.5"/><path d="M202.27619,202.98167c0.25411,-1.78171 2.82629,-2.88859 5.74512,-2.47231c2.91883,0.41628 5.079,2.19812 4.82489,3.97982c-0.25411,1.78171 -2.82627,2.88861 -5.7451,2.47232c-2.91883,-0.41628 -5.07901,-2.19812 -4.82491,-3.97983z" data-paper-data="{&quot;index&quot;:null}" fill="url(#color-34)" stroke="url(#color-35)" stroke-width="1.5"/><path d="M194.34009,195.75146c0.20621,-1.44584 2.29352,-2.34408 4.66212,-2.00627c2.36861,0.33781 4.12157,1.78375 3.91537,3.2296c-0.20621,1.44584 -2.2935,2.34408 -4.6621,2.00627c-2.36861,-0.33781 -4.12158,-1.78375 -3.91537,-3.2296z" data-paper-data="{&quot;index&quot;:null}" fill="url(#color-36)" stroke="url(#color-37)" stroke-width="1.5"/><path d="M202.27756,192.33726c0.11679,-0.8189 1.299,-1.32764 2.64052,-1.13631c1.34153,0.19133 2.33437,1.01028 2.21758,1.82918c-0.11679,0.8189 -1.299,1.32764 -2.64052,1.13631c-1.34153,-0.19133 -2.33437,-1.01028 -2.21758,-1.82918z" data-paper-data="{&quot;index&quot;:null}" fill="url(#color-38)" stroke="url(#color-39)" stroke-width="1.5"/><path d="M210.77174,197.43023c0.14818,-1.03898 1.64812,-1.68445 3.35021,-1.4417c1.70209,0.24275 2.96175,1.28181 2.81358,2.3208c-0.14818,1.03898 -1.64811,1.68446 -3.3502,1.44171c-1.70209,-0.24275 -2.96176,-1.28182 -2.81358,-2.32081z" data-paper-data="{&quot;index&quot;:null}" fill="url(#color-40)" stroke="url(#color-41)" stroke-width="1.5"/><path d="M236.34028,181.30225l-0.52192,-2.12322l7.57075,-0.2937l3.61784,-11.65083l1.79025,5.84959l-1.92989,6.96227l1.83421,7.2606l-1.0279,4.42754l-4.37394,-10.57066z" fill="#000000" stroke="none" stroke-width="0"/></g></g></svg>