<svg version="1.1" xmlns="http://www.w3.org/2000/svg" xmlns:xlink="http://www.w3.org/1999/xlink" width="88.97575" height="98.97575" viewBox="0,0,88.97575,98.97575"><defs><radialGradient cx="240.00001" cy="180" r="44.48787" gradientUnits="userSpaceOnUse" id="color-1"><stop offset="0" stop-color="#000000" stop-opacity="0.49412"/><stop offset="1" stop-color="#000000" stop-opacity="0"/></radialGradient><linearGradient x1="240.00001" y1="135.51212" x2="240.00001" y2="224.48788" gradientUnits="userSpaceOnUse" id="color-2"><stop offset="0" stop-color="#5c5c5c"/><stop offset="1" stop-color="#000000"/></linearGradient><radialGradient cx="240.00001" cy="180" r="30.73787" gradientUnits="userSpaceOnUse" id="color-3"><stop offset="0" stop-color="#ff0000" stop-opacity="0.49412"/><stop offset="1" stop-color="#ff0000" stop-opacity="0"/></radialGradient><linearGradient x1="240.00001" y1="149.26212" x2="240.00001" y2="210.73788" gradientUnits="userSpaceOnUse" id="color-4"><stop offset="0" stop-color="#5c5c5c"/><stop offset="1" stop-color="#000000"/></linearGradient><linearGradient x1="264.1049" y1="180" x2="283.50923" y2="180" gradientUnits="userSpaceOnUse" id="color-5"><stop offset="0" stop-color="#363636"/><stop offset="1" stop-color="#808080"/></linearGradient><linearGradient x1="225.1961" y1="180.19099" x2="260.97722" y2="180.19099" gradientUnits="userSpaceOnUse" id="color-6"><stop offset="0" stop-color="#808080"/><stop offset="1" stop-color="#363636"/></linearGradient><linearGradient x1="243.08667" y1="136.41873" x2="243.08667" y2="178.68803" gradientUnits="userSpaceOnUse" id="color-7"><stop offset="0" stop-color="#ffffff" stop-opacity="0.74902"/><stop offset="1" stop-color="#ffffff" stop-opacity="0"/></linearGradient><linearGradient x1="259.70124" y1="180" x2="269.70124" y2="180" gradientUnits="userSpaceOnUse" id="color-8"><stop offset="0" stop-color="#000000"/><stop offset="1" stop-color="#5c5c5c"/></linearGradient><linearGradient x1="238.46176" y1="161.03599" x2="238.46176" y2="201.82649" gradientUnits="userSpaceOnUse" id="color-9"><stop offset="0" stop-color="#5c5c5c"/><stop offset="1" stop-color="#000000"/></linearGradient><linearGradient x1="264.70124" y1="135.51213" x2="264.70124" y2="177.97239" gradientUnits="userSpaceOnUse" id="color-10"><stop offset="0" stop-color="#ffffff" stop-opacity="0.50196"/><stop offset="1" stop-color="#ffffff" stop-opacity="0"/></linearGradient><linearGradient x1="211.75453" y1="181.07344" x2="221.75453" y2="181.07344" gradientUnits="userSpaceOnUse" id="color-11"><stop offset="0" stop-color="#000000"/><stop offset="1" stop-color="#5c5c5c"/></linearGradient><linearGradient x1="227.96595" y1="162.94433" x2="207.92851" y2="162.94433" gradientUnits="userSpaceOnUse" id="color-12"><stop offset="0" stop-color="#000000"/><stop offset="1" stop-color="#5c5c5c"/></linearGradient><linearGradient x1="227.96595" y1="198.72546" x2="207.92851" y2="198.72546" gradientUnits="userSpaceOnUse" id="color-13"><stop offset="0" stop-color="#000000"/><stop offset="1" stop-color="#5c5c5c"/></linearGradient><radialGradient cx="207.80925" cy="208.62491" r="12.28485" gradientUnits="userSpaceOnUse" id="color-14"><stop offset="0" stop-color="#ff0000"/><stop offset="1" stop-color="#ff0000" stop-opacity="0"/></radialGradient><radialGradient cx="208.02908" cy="153.02615" r="12.28485" gradientUnits="userSpaceOnUse" id="color-15"><stop offset="0" stop-color="#ff0000"/><stop offset="1" stop-color="#ff0000" stop-opacity="0"/></radialGradient></defs><g transform="translate(-195.51212,-130.51213)"><g data-paper-data="{&quot;isPaintingLayer&quot;:true}" fill-rule="nonzero" stroke-linejoin="miter" stroke-miterlimit="10" stroke-dasharray="" stroke-dashoffset="0" style="mix-blend-mode: normal"><path d="M195.51213,180c0,-24.56998 19.9179,-44.48788 44.48788,-44.48788c24.56998,0 44.48787,19.9179 44.48787,44.48788c0,24.56998 -19.9179,44.48788 -44.48787,44.48788c-24.56998,0 -44.48788,-19.9179 -44.48788,-44.48787z" fill="url(#color-1)" stroke="url(#color-2)" stroke-width="0" stroke-linecap="butt"/><path d="M209.26213,180c0,-16.97607 13.76182,-30.73788 30.73788,-30.73788c16.97607,0 30.73787,13.76181 30.73787,30.73788c0,16.97607 -13.76182,30.73788 -30.73787,30.73788c-16.97607,0 -30.73788,-13.76182 -30.73788,-30.73788z" fill="url(#color-3)" stroke="url(#color-4)" stroke-width="0" stroke-linecap="butt"/><g><path d="M264.1049,189.58778v-19.17555l19.40433,1.77918c0,0 0.96638,5.02763 0.96638,7.70012c0,2.59697 -0.96638,8.11476 -0.96638,8.11476z" fill="url(#color-5)" stroke="none" stroke-width="0" stroke-linecap="butt"/><path d="M225.1961,191.0446v-18.60619c0,0 13.8873,-6.7904 20.11251,-13.26461c5.64497,-5.87078 15.66863,-22.75506 15.66863,-22.75506v87.54451c0,0 -9.49549,-15.11523 -15.49576,-20.47548c-5.92584,-5.29375 -20.28537,-12.44316 -20.28537,-12.44316z" fill="url(#color-6)" stroke="#000000" stroke-width="0" stroke-linecap="butt"/><path d="M225.1961,180.11927v-7.68087c0,0 13.8873,-6.7904 20.11251,-13.26461c5.64497,-5.87078 15.66863,-22.75506 15.66863,-22.75506v43.70054z" fill="url(#color-7)" stroke="#000000" stroke-width="0" stroke-linecap="butt"/><path d="M264.70124,135.51213v88.97575" fill="none" stroke="url(#color-8)" stroke-width="10" stroke-linecap="round"/><path d="M238.46176,161.03599v40.79049" fill="none" stroke="url(#color-9)" stroke-width="5" stroke-linecap="round"/><path d="M264.70124,135.51213v49.13942" fill="none" stroke="url(#color-10)" stroke-width="10" stroke-linecap="round"/><path d="M278.29808,171.5318v17.17495" fill="none" stroke="#ff0000" stroke-width="4" stroke-linecap="round"/><path d="M216.75453,161.03599v40.07487" fill="none" stroke="url(#color-11)" stroke-width="15" stroke-linecap="round"/><path d="M216.15819,197.65202l-8.58748,-8.58747l7.99112,-7.99112l-8.22966,-8.22966l8.58747,-8.58748" fill="none" stroke="#ff0000" stroke-width="3.5" stroke-linecap="round"/><path d="M227.96595,172.96304l-20.03743,-20.03744" data-paper-data="{&quot;index&quot;:null}" fill="none" stroke="url(#color-12)" stroke-width="10" stroke-linecap="round"/><path d="M227.96595,188.70674l-20.03743,20.03744" data-paper-data="{&quot;index&quot;:null}" fill="none" stroke="url(#color-13)" stroke-width="10" stroke-linecap="round"/><path d="M195.5244,208.62491c0,-6.78474 5.50011,-12.28485 12.28485,-12.28485c6.78474,0 12.28485,5.50011 12.28485,12.28485c0,6.78474 -5.50011,12.28486 -12.28485,12.28486c-6.78474,0 -12.28485,-5.50012 -12.28485,-12.28486z" fill="url(#color-14)" stroke="none" stroke-width="0" stroke-linecap="butt"/><path d="M195.74422,153.02615c0,-6.78474 5.50011,-12.28485 12.28485,-12.28485c6.78474,0 12.28485,5.50011 12.28485,12.28485c0,6.78474 -5.50011,12.28486 -12.28485,12.28486c-6.78474,0 -12.28485,-5.50012 -12.28485,-12.28486z" fill="url(#color-15)" stroke="none" stroke-width="0" stroke-linecap="butt"/></g></g></g></svg>