<svg version="1.1" xmlns="http://www.w3.org/2000/svg" xmlns:xlink="http://www.w3.org/1999/xlink" width="27.06533" height="28.31719" viewBox="0,0,27.06533,28.31719"><g transform="translate(-225.23878,-166.40241)"><g data-paper-data="{&quot;isPaintingLayer&quot;:true}" fill-rule="nonzero" stroke-linejoin="miter" stroke-miterlimit="10" stroke-dasharray="" stroke-dashoffset="0" style="mix-blend-mode: normal"><path d="M234.89716,189.33478v-19.29166l15.64561,-1.69133v19.14231" fill="none" stroke="#ff0000" stroke-width="3.5" stroke-linecap="round"/><path d="M236.49009,189.82023c0,2.70586 -2.5187,4.89937 -5.62565,4.89937c-3.10697,0 -5.62565,-2.19353 -5.62565,-4.89937c0,-2.70586 2.5187,-4.89937 5.62565,-4.89937c3.10697,0 5.62565,2.19353 5.62565,4.89937z" fill="#ff0000" stroke="none" stroke-width="0" stroke-linecap="butt"/><path d="M252.30412,188.26624c0,2.70586 -2.5187,4.89939 -5.62566,4.89939c-3.10697,0 -5.62566,-2.19353 -5.62566,-4.89939c0,-2.70586 2.5187,-4.89937 5.62566,-4.89937c3.10697,0 5.62566,2.19352 5.62566,4.89937z" fill="#ff0000" stroke="none" stroke-width="0" stroke-linecap="butt"/></g></g></svg>