<svg version="1.1" xmlns="http://www.w3.org/2000/svg" xmlns:xlink="http://www.w3.org/1999/xlink" width="356" height="356" viewBox="0,0,356,356"><defs><radialGradient cx="239.99997" cy="180.00001" r="162" gradientUnits="userSpaceOnUse" id="color-1"><stop offset="0" stop-color="#ff0000"/><stop offset="1" stop-color="#ff0000" stop-opacity="0"/></radialGradient><radialGradient cx="239.99999" cy="180" r="162" gradientUnits="userSpaceOnUse" id="color-2"><stop offset="0" stop-color="#ff0000"/><stop offset="1" stop-color="#ff0000" stop-opacity="0"/></radialGradient><radialGradient cx="239.99997" cy="180.00001" r="101.66046" gradientUnits="userSpaceOnUse" id="color-3"><stop offset="0" stop-color="#000000"/><stop offset="1" stop-color="#ff0000"/></radialGradient><linearGradient x1="315.36902" y1="145.34125" x2="274.65872" y2="104.631" gradientUnits="userSpaceOnUse" id="color-4"><stop offset="0" stop-color="#000000"/><stop offset="1" stop-color="#000000" stop-opacity="0"/></linearGradient><linearGradient x1="164.63099" y1="214.65876" x2="205.34125" y2="255.36903" gradientUnits="userSpaceOnUse" id="color-5"><stop offset="0" stop-color="#000000"/><stop offset="1" stop-color="#000000" stop-opacity="0"/></linearGradient><linearGradient x1="274.65872" y1="255.36903" x2="315.36902" y2="214.65876" gradientUnits="userSpaceOnUse" id="color-6"><stop offset="0" stop-color="#000000"/><stop offset="1" stop-color="#000000" stop-opacity="0"/></linearGradient><linearGradient x1="205.34125" y1="104.631" x2="164.63099" y2="145.34125" gradientUnits="userSpaceOnUse" id="color-7"><stop offset="0" stop-color="#000000"/><stop offset="1" stop-color="#000000" stop-opacity="0"/></linearGradient></defs><g transform="translate(-62,-2)"><g data-paper-data="{&quot;isPaintingLayer&quot;:true}" fill-rule="nonzero" stroke-width="0" stroke-linecap="butt" stroke-linejoin="miter" stroke-miterlimit="10" stroke-dasharray="" stroke-dashoffset="0" style="mix-blend-mode: normal"><path d="M62,358v-356h356v356z" fill="none" stroke="none"/><g><path d="M240,342.00001c-89.47013,0 -162,-72.52987 -162,-162c0,-89.47012 72.52987,-162 162,-162c89.47012,0 162,72.52988 162,162c0,89.47013 -72.52988,162 -162,162z" data-paper-data="{&quot;index&quot;:null}" fill="url(#color-1)" stroke="none"/><path d="M240.00002,342c-89.47013,0 -162,-72.52987 -162,-162c0,-89.47012 72.52987,-162 162,-162c89.47012,0 162,72.52988 162,162c0,89.47013 -72.52988,162 -162,162z" data-paper-data="{&quot;index&quot;:null}" fill="url(#color-2)" stroke="none"/><path d="M321.31728,98.68272c44.91029,44.91029 44.91029,117.72427 0,162.63456c-44.91029,44.91029 -117.72426,44.91029 -162.63455,0c-44.91029,-44.91029 -44.91029,-117.72427 0,-162.63456c44.91029,-44.91029 117.72426,-44.91029 162.63455,0z" data-paper-data="{&quot;index&quot;:null}" fill="#000000" stroke="none"/><g data-paper-data="{&quot;index&quot;:null}" stroke="#000000"><path d="M168.11521,251.88481c-39.70088,-39.70087 -39.70088,-104.06872 0,-143.7696c39.70087,-39.70088 104.06871,-39.70088 143.76959,0c39.70088,39.70087 39.70088,104.06872 0,143.7696c-39.70087,39.70088 -104.06871,39.70088 -143.76959,0z" fill="url(#color-3)"/><path d="M254.30357,124.98613l40.71028,-40.71027l40.71027,40.71027l-40.71027,40.71028z" fill="url(#color-4)"/><path d="M144.27584,235.01388l40.71027,-40.71027l40.71028,40.71027l-40.71028,40.71027z" data-paper-data="{&quot;index&quot;:null}" fill="url(#color-5)"/><path d="M295.01388,194.30362l40.71027,40.71027l-40.71027,40.71027l-40.71028,-40.71026z" fill="url(#color-6)"/><path d="M184.98612,84.27586l40.71027,40.71027l-40.71027,40.71028l-40.71028,-40.71028z" data-paper-data="{&quot;index&quot;:null}" fill="url(#color-7)"/></g><path d="M174.59263,245.40739c-36.12349,-36.12349 -36.12349,-94.69126 0,-130.81475c36.12349,-36.12349 94.69125,-36.12349 130.81474,0c36.12349,36.12349 36.12349,94.69126 0,130.81475c-36.12349,36.12349 -94.69125,36.12349 -130.81474,0z" data-paper-data="{&quot;index&quot;:null}" fill="#000000" stroke="#000000"/><path d="M285.27502,270.375c-2.54051,0 -4.6,-2.05949 -4.6,-4.6c0,-2.54051 2.05949,-4.6 4.6,-4.6c2.54051,0 4.6,2.05949 4.6,4.6c0,2.54051 -2.05949,4.6 -4.6,4.6z" data-paper-data="{&quot;index&quot;:null}" fill="#f30000" stroke="none"/><path d="M194.72502,89.625c2.54051,0 4.6,2.05949 4.6,4.6c0,2.54051 -2.05949,4.6 -4.6,4.6c-2.54051,0 -4.6,-2.05949 -4.6,-4.6c0,-2.54051 2.05949,-4.6 4.6,-4.6z" data-paper-data="{&quot;index&quot;:null}" fill="#f30000" stroke="none"/><path d="M149.62502,225.275c0,-2.54051 2.05949,-4.6 4.6,-4.6c2.54051,0 4.6,2.05949 4.6,4.6c0,2.54051 -2.05949,4.6 -4.6,4.6c-2.54051,0 -4.6,-2.05949 -4.6,-4.6z" data-paper-data="{&quot;index&quot;:null}" fill="#f30000" stroke="none"/><path d="M330.37502,134.725c0,2.54051 -2.05949,4.6 -4.6,4.6c-2.54051,0 -4.6,-2.05949 -4.6,-4.6c0,-2.54051 2.05949,-4.6 4.6,-4.6c2.54051,0 4.6,2.05949 4.6,4.6z" data-paper-data="{&quot;index&quot;:null}" fill="#f30000" stroke="none"/></g></g></g></svg>