<svg version="1.1" xmlns="http://www.w3.org/2000/svg" xmlns:xlink="http://www.w3.org/1999/xlink" width="91.47238" height="118.15943" viewBox="0,0,91.47238,118.15943"><defs><radialGradient cx="238.04609" cy="180.25001" r="40.04887" gradientUnits="userSpaceOnUse" id="color-1"><stop offset="0" stop-color="#000000"/><stop offset="1" stop-color="#000000" stop-opacity="0"/></radialGradient><linearGradient x1="252.86573" y1="156.06467" x2="252.86573" y2="203.93535" gradientUnits="userSpaceOnUse" id="color-2"><stop offset="0" stop-color="#ff0000"/><stop offset="1" stop-color="#000000"/></linearGradient><linearGradient x1="204.33482" y1="203.82752" x2="263.17319" y2="203.82752" gradientUnits="userSpaceOnUse" id="color-3"><stop offset="0" stop-color="#ff3535"/><stop offset="1" stop-color="#4b0000"/></linearGradient><linearGradient x1="199.95174" y1="203.49243" x2="269.37476" y2="203.49243" gradientUnits="userSpaceOnUse" id="color-4"><stop offset="0" stop-color="#ffffff"/><stop offset="1" stop-color="#a9a9a9"/></linearGradient><linearGradient x1="236.90316" y1="131.5512" x2="236.90316" y2="180.083" gradientUnits="userSpaceOnUse" id="color-5"><stop offset="0" stop-color="#ff3535"/><stop offset="1" stop-color="#4b0000"/></linearGradient><linearGradient x1="207.18707" y1="156.5076" x2="276.61008" y2="156.5076" gradientUnits="userSpaceOnUse" id="color-6"><stop offset="0" stop-color="#ffffff"/><stop offset="1" stop-color="#a9a9a9"/></linearGradient><linearGradient x1="212.08628" y1="201.07956" x2="247.15399" y2="201.07956" gradientUnits="userSpaceOnUse" id="color-7"><stop offset="0" stop-color="#ff6060"/><stop offset="1" stop-color="#c10000"/></linearGradient><linearGradient x1="212.08628" y1="201.07956" x2="247.15399" y2="201.07956" gradientUnits="userSpaceOnUse" id="color-8"><stop offset="0" stop-color="#ffffff"/><stop offset="1" stop-color="#a9a9a9"/></linearGradient><linearGradient x1="228.19146" y1="153.48775" x2="263.25919" y2="153.48775" gradientUnits="userSpaceOnUse" id="color-9"><stop offset="0" stop-color="#ff6060"/><stop offset="1" stop-color="#d20000"/></linearGradient><linearGradient x1="228.19146" y1="153.48775" x2="263.25919" y2="153.48775" gradientUnits="userSpaceOnUse" id="color-10"><stop offset="0" stop-color="#ffffff"/><stop offset="1" stop-color="#a9a9a9"/></linearGradient><linearGradient x1="222.70035" y1="164.45548" x2="239.04608" y2="164.45548" gradientUnits="userSpaceOnUse" id="color-11"><stop offset="0" stop-color="#616161"/><stop offset="1" stop-color="#000000"/></linearGradient><linearGradient x1="254.85991" y1="156.06467" x2="248.96308" y2="156.06467" gradientUnits="userSpaceOnUse" id="color-12"><stop offset="0" stop-color="#616161"/><stop offset="1" stop-color="#000000"/></linearGradient><linearGradient x1="230.52682" y1="204.62943" x2="237.99164" y2="196.28854" gradientUnits="userSpaceOnUse" id="color-13"><stop offset="0" stop-color="#616161"/><stop offset="1" stop-color="#000000"/></linearGradient><linearGradient x1="217.62559" y1="195.15712" x2="226.36181" y2="195.15728" gradientUnits="userSpaceOnUse" id="color-14"><stop offset="0" stop-color="#616161"/><stop offset="1" stop-color="#000000"/></linearGradient></defs><g transform="translate(-194.26383,-120.92029)"><g data-paper-data="{&quot;isPaintingLayer&quot;:true}" fill-rule="nonzero" stroke-linejoin="miter" stroke-miterlimit="10" stroke-dasharray="" stroke-dashoffset="0" style="mix-blend-mode: normal"><path d="M194.26384,239.07972v-118.15943h91.47238v118.15943z" fill="none" stroke="none" stroke-width="NaN" stroke-linecap="butt"/><path d="M197.99723,180.25001c0,-22.11838 17.9305,-40.04887 40.04887,-40.04887c22.11839,0 40.04887,17.93049 40.04887,40.04887c0,22.11838 -17.9305,40.04887 -40.04887,40.04887c-22.11838,0 -40.04887,-17.9305 -40.04887,-40.04887z" fill="url(#color-1)" stroke="#000000" stroke-width="0" stroke-linecap="butt"/><path d="M239.04608,180.00001c0,-13.21912 6.18726,-23.93534 13.81963,-23.93534c7.63237,0 13.81963,10.71622 13.81963,23.93534c0,13.21912 -6.18726,23.93534 -13.81963,23.93534c-7.63237,0 -13.81963,-10.71622 -13.81963,-23.93534z" fill="url(#color-2)" stroke="#000000" stroke-width="0" stroke-linecap="butt"/><path d="M248.91387,190.6726c0,-2.44128 1.97905,-4.42033 4.42033,-4.42033c2.44128,0 4.42033,1.97905 4.42033,4.42033c0,2.44128 -1.97905,4.42033 -4.42033,4.42033c-2.44128,0 -4.42033,-1.97905 -4.42033,-4.42033z" fill="#ffffff" stroke="#000000" stroke-width="0" stroke-linecap="butt"/><path d="M248.96308,169.32742c0,-2.44128 1.97905,-4.42033 4.42033,-4.42033c2.44128,0 4.42033,1.97905 4.42033,4.42033c0,2.44128 -1.97905,4.42033 -4.42033,4.42033c-2.44128,0 -4.42033,-1.97905 -4.42033,-4.42033z" fill="#ffffff" stroke="#000000" stroke-width="0" stroke-linecap="butt"/><path d="M259.98931,168.72226c0,0 2.20237,2.34242 2.25,10.71941c0.04146,7.29186 -2.25,11.55907 -2.25,11.55907" fill="none" stroke="#ffffff" stroke-width="2" stroke-linecap="round"/><path d="M260.60803,217.1164c-8.36219,13.63772 -17.42832,12.03581 -24.16984,9.95824c-5.60533,-1.72743 -4.73667,-8.77354 -4.73667,-8.77354c0,0 8.93499,6.44812 8.80742,-2.53408c-0.17061,-12.01327 -13.999,0.48101 -26.19147,-5.64997c-7.6374,-3.84046 -10.69107,-14.11508 -10.3484,-17.53458c0.7372,-7.35663 7.11877,-13.37625 7.11877,-13.37625l43.12284,19.19203c0,0 14.75953,5.08044 6.39735,18.71815z" fill="url(#color-3)" stroke="url(#color-4)" stroke-width="0" stroke-linecap="butt"/><path d="M263.10459,170.3685l-52.83733,9.7145c0,0 -7.00645,-9.09007 -7.09265,-16.40422c-0.0862,-7.31413 3.3565,-14.56167 10.99391,-18.40213c12.19246,-6.13098 33.40515,10.96963 33.57576,-1.04364c0.12757,-8.98219 -8.80743,-2.53409 -8.80743,-2.53409c0,0 -0.86865,-7.04611 4.73668,-8.77353c6.74152,-2.07758 15.80766,-3.67948 24.16985,9.95824c8.36219,13.63772 -4.73878,27.48488 -4.73878,27.48488z" data-paper-data="{&quot;index&quot;:null}" fill="url(#color-5)" stroke="url(#color-6)" stroke-width="0" stroke-linecap="butt"/><path d="M241.43925,209.78156c-4.62963,-5.90993 -15.57198,6.08855 -24.36288,-1.87123c-12.31295,-11.14882 -4.99012,-27.74153 -4.99012,-27.74153l28.31395,1.03904c0,0 13.46852,18.45624 12.46852,29.35299c-0.52439,5.71415 -7.96474,11.17947 -7.96474,11.17947c0,0 1.16488,-6.04882 -3.46474,-11.95875z" fill="url(#color-7)" stroke="url(#color-8)" stroke-width="0" stroke-linecap="butt"/><path d="M263.25919,174.39852c0,0 -4.28888,-10.40525 -8.31236,-8.57211c-6.83173,3.1126 -10.89726,16.1589 -22.54455,18.39013c-12.31295,2.35874 -20.57577,-4.36304 -20.57577,-4.36304c0,0 -8.3657,-16.29853 6.02957,-24.96188c4.63357,-2.78857 12.14671,-5.41572 22.02462,-4.65088c13.95875,1.22332 22.59921,0.92535 28.57371,12.72829c2.5915,5.11962 -5.19521,11.42949 -5.19521,11.42949z" fill="url(#color-9)" stroke="url(#color-10)" stroke-width="0" stroke-linecap="butt"/><path d="M239.04608,164.45548c0,4.63412 -3.65912,8.39081 -8.17287,8.39081c-4.51375,0 -8.17287,-3.75669 -8.17287,-8.3908c0,-4.63412 3.65912,-8.39081 8.17287,-8.39081c4.51375,0 8.17287,3.7567 8.17287,8.39081z" fill="url(#color-11)" stroke="#000000" stroke-width="0" stroke-linecap="butt"/><path d="M234.69766,162.96524c0,3.12794 -2.46984,5.66364 -5.51654,5.66364c-3.0467,0 -5.51653,-2.5357 -5.51653,-5.66364c0,-3.12794 2.46983,-5.66364 5.51653,-5.66364c3.0467,0 5.51654,2.5357 5.51654,5.66364z" fill="#ff0000" stroke="#000000" stroke-width="0" stroke-linecap="butt"/><path d="M251.91149,153.03764c1.62836,0 2.9484,1.35524 2.9484,3.02702c0,1.67178 -1.32004,3.02703 -2.9484,3.02703c-1.62836,0 -2.9484,-1.35524 -2.9484,-3.02703c0,-1.67178 1.32004,-3.02702 2.9484,-3.02702z" data-paper-data="{&quot;index&quot;:null}" fill="url(#color-12)" stroke="#000000" stroke-width="0" stroke-linecap="butt"/><path d="M252.52194,153.48387c1.09911,0 1.99012,0.91476 1.99012,2.04318c0,1.12842 -0.89101,2.04319 -1.99012,2.04319c-1.09911,0 -1.99012,-0.91477 -1.99012,-2.04319c0,-1.12842 0.89101,-2.04318 1.99012,-2.04318z" data-paper-data="{&quot;index&quot;:null}" fill="#ff0000" stroke="#000000" stroke-width="0" stroke-linecap="butt"/><path d="M237.99164,196.28854c2.3647,2.11633 2.6106,5.69912 0.54924,8.00239c-2.06136,2.30328 -5.64938,2.45483 -8.01407,0.3385c-2.3647,-2.11633 -2.6106,-5.69912 -0.54924,-8.0024c2.06136,-2.30328 5.64938,-2.45482 8.01408,-0.33849z" fill="url(#color-13)" stroke="#000000" stroke-width="0" stroke-linecap="butt"/><path d="M235.24536,197.8269c1.59613,1.42848 1.7621,3.8468 0.37072,5.40147c-1.39138,1.55467 -3.81322,1.65696 -5.40935,0.22848c-1.59613,-1.42848 -1.7621,-3.8468 -0.37072,-5.40147c1.39138,-1.55466 3.81323,-1.65696 5.40936,-0.22848z" fill="#ff0000" stroke="#000000" stroke-width="0" stroke-linecap="butt"/><path d="M226.36181,195.15728c-0.00005,2.47678 -1.95576,4.48457 -4.3682,4.48453c-2.41244,-0.00005 -4.36808,-2.00791 -4.36804,-4.48469c0.00005,-2.47678 1.95576,-4.48457 4.3682,-4.48452c2.41244,0.00005 4.36808,2.0079 4.36804,4.48468z" fill="url(#color-14)" stroke="#000000" stroke-width="0" stroke-linecap="butt"/><path d="M224.03775,194.36076c-0.00003,1.67178 -1.32011,3.027 -2.94846,3.02697c-1.62835,-0.00003 -2.94837,-1.35529 -2.94834,-3.02707c0.00003,-1.67178 1.3201,-3.02701 2.94845,-3.02697c1.62835,0.00003 2.94838,1.3553 2.94835,3.02708z" fill="#ff0000" stroke="#000000" stroke-width="0" stroke-linecap="butt"/></g></g></svg>