<svg version="1.1" xmlns="http://www.w3.org/2000/svg" xmlns:xlink="http://www.w3.org/1999/xlink" width="64.49938" height="64.49938" viewBox="0,0,64.49938,64.49938"><defs><radialGradient cx="240" cy="179.99998" r="32.24969" gradientUnits="userSpaceOnUse" id="color-1"><stop offset="0" stop-color="#000000"/><stop offset="1" stop-color="#000000" stop-opacity="0"/></radialGradient><linearGradient x1="215.7305" y1="179.99998" x2="264.26948" y2="179.99998" gradientUnits="userSpaceOnUse" id="color-2"><stop offset="0" stop-color="#ff0000"/><stop offset="1" stop-color="#ff8080"/></linearGradient><linearGradient x1="239.99999" y1="179.99999" x2="264.26947" y2="179.99999" gradientUnits="userSpaceOnUse" id="color-3"><stop offset="0" stop-color="#ffffff"/><stop offset="1" stop-color="#ffcccc"/></linearGradient><linearGradient x1="239.62573" y1="179.99998" x2="244.81979" y2="179.99998" gradientUnits="userSpaceOnUse" id="color-4"><stop offset="0" stop-color="#330000"/><stop offset="1" stop-color="#331a1a"/></linearGradient><linearGradient x1="234.43793" y1="180.00001" x2="250.40684" y2="180.00001" gradientUnits="userSpaceOnUse" id="color-5"><stop offset="0" stop-color="#330000"/><stop offset="1" stop-color="#331a1a"/></linearGradient><linearGradient x1="238.21004" y1="179.99997" x2="246.63478" y2="179.99997" gradientUnits="userSpaceOnUse" id="color-6"><stop offset="0" stop-color="#ffffff"/><stop offset="1" stop-color="#ffcccc"/></linearGradient></defs><g transform="translate(-207.75031,-147.75031)"><g data-paper-data="{&quot;isPaintingLayer&quot;:true}" fill-rule="nonzero" stroke-width="0" stroke-linecap="butt" stroke-linejoin="miter" stroke-miterlimit="10" stroke-dasharray="" stroke-dashoffset="0" style="mix-blend-mode: normal"><path d="M240,212.24969c-17.79908,0 -32.24969,-14.4506 -32.24969,-32.24969c0,-17.79908 13.65737,-32.24969 32.24969,-32.24969c18.59232,0 32.24969,14.45059 32.24969,32.24969c0,17.79908 -14.4506,32.24969 -32.24969,32.24969z" fill="url(#color-1)" stroke="#001026"/><path d="M240,204.26946c-13.39469,0 -24.26948,-10.87479 -24.26948,-24.26948c0,-13.39469 10.27785,-24.26948 24.26948,-24.26948c13.99164,0 24.26948,10.87479 24.26948,24.26948c0,13.39469 -10.87479,24.26948 -24.26948,24.26948z" fill="url(#color-2)" stroke="#001026"/><path d="M240.80746,204.26947c0.12564,-48.33256 0.061,0.00652 0,-48.53896c13.99164,0 23.46201,10.87479 23.46201,24.26948c0,13.39469 -10.06732,24.26948 -23.46201,24.26948z" fill="url(#color-3)" stroke="#001026"/><path d="M241.96944,204.26946c-0.7776,0 -1.54565,-0.04633 -2.30208,-0.13667c-0.08678,-48.29963 -0.01473,-0.20019 0.00921,-48.27691c0.75045,-0.0829 1.51521,-0.12538 2.29288,-0.12538c0.95631,0 1.89313,0.06422 2.80778,0.18888c0.00242,47.99416 0.07834,0.03249 0.0215,48.14306c-0.92599,0.13656 -1.87037,0.20701 -2.82927,0.20701z" fill="url(#color-4)" stroke="#001026"/><path d="M242.42239,187.98448c-4.4097,0 -7.98445,-3.57475 -7.98445,-7.98445c0,-4.4097 3.57475,-7.98445 7.98445,-7.98445c4.4097,0 7.98445,3.57475 7.98445,7.98445c0,4.4097 -3.57475,7.98445 -7.98445,7.98445z" fill="url(#color-5)" stroke="#000000"/><path d="M242.42241,184.21238c-2.32644,0 -4.21236,-1.88595 -4.21236,-4.21236c0,-2.32644 1.88595,-4.21236 4.21236,-4.21236c2.32644,0 4.21236,1.88595 4.21236,4.21236c0,2.32644 -1.88595,4.21236 -4.21236,4.21236z" fill="url(#color-6)" stroke="#000000"/></g></g></svg>