<svg version="1.1" xmlns="http://www.w3.org/2000/svg" xmlns:xlink="http://www.w3.org/1999/xlink" width="39.78696" height="39.78696" viewBox="0,0,39.78696,39.78696"><defs><radialGradient cx="240" cy="180" r="19.89348" gradientUnits="userSpaceOnUse" id="color-1"><stop offset="0" stop-color="#000000" stop-opacity="0.5098"/><stop offset="1" stop-color="#000000" stop-opacity="0"/></radialGradient><linearGradient x1="228.20483" y1="174.72319" x2="250.8402" y2="184.63916" gradientUnits="userSpaceOnUse" id="color-2"><stop offset="0" stop-color="#4fff99"/><stop offset="1" stop-color="#001cd2"/></linearGradient><linearGradient x1="240.23075" y1="170.01941" x2="240.23075" y2="195.54175" gradientUnits="userSpaceOnUse" id="color-3"><stop offset="0" stop-color="#261cd9"/><stop offset="1" stop-color="#1ca3da"/></linearGradient><linearGradient x1="228.49073" y1="170.01941" x2="250.78309" y2="170.01941" gradientUnits="userSpaceOnUse" id="color-4"><stop offset="0" stop-color="#ffffff"/><stop offset="1" stop-color="#3a3a3a"/></linearGradient><linearGradient x1="242.57117" y1="164.25645" x2="236.70265" y2="175.78236" gradientUnits="userSpaceOnUse" id="color-5"><stop offset="0" stop-color="#929292"/><stop offset="1" stop-color="#4a4a4a"/></linearGradient><linearGradient x1="239.63691" y1="166.90903" x2="239.63691" y2="172.66334" gradientUnits="userSpaceOnUse" id="color-6"><stop offset="0" stop-color="#757575"/><stop offset="1" stop-color="#313131"/></linearGradient></defs><g transform="translate(-220.10652,-160.10652)"><g data-paper-data="{&quot;isPaintingLayer&quot;:true}" fill-rule="nonzero" stroke-linecap="butt" stroke-linejoin="miter" stroke-miterlimit="10" stroke-dasharray="" stroke-dashoffset="0" style="mix-blend-mode: normal"><path d="M220.10652,180c0,-10.98686 8.90661,-19.89348 19.89348,-19.89348c10.98686,0 19.89348,8.90661 19.89348,19.89348c0,10.98686 -8.90661,19.89348 -19.89348,19.89348c-10.98686,0 -19.89348,-8.90661 -19.89348,-19.89348z" fill="url(#color-1)" stroke="none" stroke-width="0"/><path d="M228.95222,172.21771l21.83645,-2.1983l0.7206,20.33023c0,0 -3.55911,4.75154 -10.87038,5.17519c-5.36226,0.31072 -10.35866,-3.76292 -10.35866,-3.76292z" fill="url(#color-2)" stroke="url(#color-3)" stroke-width="2"/><path d="M250.72783,168.88954c0.60764,3.00665 -3.86536,5.9499 -9.99069,6.57391c-6.12535,0.62402 -11.58351,-1.30751 -12.19115,-4.31416c-0.60764,-3.00665 3.86535,-5.9499 9.99069,-6.57391c6.12535,-0.62402 11.58352,1.30751 12.19116,4.31417z" fill="url(#color-4)" stroke="url(#color-5)" stroke-width="2.5"/><path d="M245.84011,169.20162c0.33985,1.55554 -2.16191,3.07828 -5.58784,3.40112c-3.42594,0.32284 -6.4787,-0.67646 -6.81855,-2.232c-0.33985,-1.55554 2.16191,-3.07828 5.58784,-3.40112c3.42594,-0.32284 6.47871,0.67646 6.81856,2.232z" fill="none" stroke="url(#color-6)" stroke-width="1.5"/></g></g></svg>