<svg version="1.1" xmlns="http://www.w3.org/2000/svg" xmlns:xlink="http://www.w3.org/1999/xlink" width="76.10321" height="83.77185" viewBox="0,0,76.10321,83.77185"><defs><linearGradient x1="240" y1="227.4222" x2="240" y2="214.26528" gradientUnits="userSpaceOnUse" id="color-1"><stop offset="0" stop-color="#ff0000"/><stop offset="1" stop-color="#ff0000" stop-opacity="0.78431"/></linearGradient><linearGradient x1="233.42154" y1="219.4588" x2="246.57847" y2="219.4588" gradientUnits="userSpaceOnUse" id="color-2"><stop offset="0" stop-color="#d16400"/><stop offset="1" stop-color="#ff0000"/></linearGradient><radialGradient cx="240.00001" cy="181.43207" r="36.5516" gradientUnits="userSpaceOnUse" id="color-3"><stop offset="0" stop-color="#ffffff"/><stop offset="1" stop-color="#ff0000" stop-opacity="0.90196"/></radialGradient><linearGradient x1="265.57526" y1="155.85682" x2="214.42475" y2="207.00733" gradientUnits="userSpaceOnUse" id="color-4"><stop offset="0" stop-color="#d16400"/><stop offset="1" stop-color="#ff0f00"/></linearGradient><radialGradient cx="240.61436" cy="181.88598" r="25.37375" gradientUnits="userSpaceOnUse" id="color-5"><stop offset="0" stop-color="#ffffff"/><stop offset="1" stop-color="#ffffff" stop-opacity="0.51765"/></radialGradient></defs><g transform="translate(-201.9484,-143.38046)"><g data-paper-data="{&quot;isPaintingLayer&quot;:true}" fill-rule="nonzero" stroke-linecap="butt" stroke-linejoin="miter" stroke-miterlimit="10" stroke-dasharray="" stroke-dashoffset="0" style="mix-blend-mode: normal"><path d="M240,214.26528c3.63319,0 6.57846,2.94527 6.57846,6.57846c0,3.63319 -2.94527,3.80858 -6.57846,3.80858c-3.63319,0 -6.57846,-0.17539 -6.57846,-3.80858c0,-3.63319 2.94527,-6.57846 6.57846,-6.57846z" data-paper-data="{&quot;index&quot;:null}" fill="url(#color-1)" stroke="url(#color-2)" stroke-width="5"/><path d="M214.42475,207.00733c-14.42219,-14.42219 -14.66326,-37.56411 -0.53843,-51.68895c14.12483,-14.12483 37.26676,-13.88376 51.68895,0.53843c14.42219,14.42219 14.66326,37.56411 0.53843,51.68895c-14.12483,14.12483 -37.26676,13.88376 -51.68895,-0.53843z" data-paper-data="{&quot;index&quot;:null}" fill="url(#color-3)" stroke="url(#color-4)" stroke-width="3"/><path d="M214.0119,185.83952c0,0 10.64883,-1.91008 12.28712,-7.16748c1.74632,-5.6041 -4.50528,-15.76847 -4.50528,-15.76847c0,0 10.84956,10.23926 14.13018,10.23926c2.49634,0 5.11182,-17.36275 5.11182,-17.36275c0,0 4.65706,15.84587 6.7904,16.68572c2.46341,0.9698 13.28637,-4.23782 13.28637,-4.23782c0,0 -8.01411,7.89863 -6.42905,11.37142c1.67361,3.66681 11.30465,5.9833 11.30465,5.9833c0,0 -14.70529,1.14011 -14.70529,3.73816c0,5.17314 4.91485,14.53975 4.91485,14.53975c0,0 -10.16141,-10.71359 -14.50321,-9.49473c-4.45148,1.24965 -13.11356,11.57814 -13.11356,11.57814c0,0 3.02458,-7.94423 1.30519,-13.82712c-1.37922,-4.71901 -15.87418,-6.2774 -15.87418,-6.2774z" fill="url(#color-5)" stroke="none" stroke-width="0"/></g></g></svg>