<svg version="1.1" xmlns="http://www.w3.org/2000/svg" xmlns:xlink="http://www.w3.org/1999/xlink" width="83.10836" height="102.65528" viewBox="0,0,83.10836,102.65528"><defs><linearGradient x1="240" y1="119.59504" x2="240" y2="221.47398" gradientUnits="userSpaceOnUse" id="color-1"><stop offset="0" stop-color="#000000" stop-opacity="0.28235"/><stop offset="1" stop-color="#000000" stop-opacity="0.73725"/></linearGradient></defs><g transform="translate(-198.44582,-118.8187)"><g data-paper-data="{&quot;isPaintingLayer&quot;:true}" fill-rule="nonzero" stroke-linejoin="miter" stroke-miterlimit="10" stroke-dasharray="" stroke-dashoffset="0" style="mix-blend-mode: normal"><path d="M202.85501,216.78922c-3.96098,-3.96058 -4.40919,-9.66661 -4.40919,-9.66661v-73.16859c0,0 0.51647,-5.91757 4.47809,-9.88089c3.96162,-3.96332 9.87475,-4.47809 9.87475,-4.47809h54.40269c0,0 5.48241,0.26004 9.46139,4.20252c3.97898,3.94248 4.89144,10.01866 4.89144,10.01866v73.47859c0,0 -0.71139,5.91862 -4.68476,9.76998c-3.97338,3.85136 -9.94365,4.40919 -9.94365,4.40919h-54.12711c0,0 -5.98267,-0.7242 -9.94365,-4.68477z" fill="url(#color-1)" stroke="#ff0000" stroke-width="0" stroke-linecap="butt"/><text transform="translate(206.63308,137.76165) scale(0.43547,0.43547)" font-size="40" xml:space="preserve" fill="#ffffff" fill-rule="nonzero" stroke="none" stroke-width="1" stroke-linecap="butt" stroke-linejoin="miter" stroke-miterlimit="10" stroke-dasharray="" stroke-dashoffset="0" font-family="Sans Serif" font-weight="normal" text-anchor="start" style="mix-blend-mode: normal"><tspan x="0" dy="0">Settings</tspan></text><g fill="none" stroke="#ffffff" stroke-width="5"><path d="M226.17916,185.07626c-2.87617,-7.39586 0.78777,-15.72297 8.18362,-18.59914c7.39586,-2.87617 15.72297,0.78777 18.59914,8.18362c2.87617,7.39586 -0.78777,15.72297 -8.18362,18.59914c-7.39586,2.87617 -15.72297,-0.78777 -18.59914,-8.18362z" stroke-linecap="butt"/><path d="M262.92048,170.78797l-7.34605,2.8568" stroke-linecap="round"/><path d="M216.22059,188.94904l7.34605,-2.8568" stroke-linecap="round"/><path d="M230.49,156.51857l2.8568,7.34605" stroke-linecap="round"/><path d="M248.65108,203.2185l-2.8568,-7.34605" stroke-linecap="round"/><path d="M246.48616,164.15124l3.17439,-7.21452" stroke-linecap="round"/><path d="M232.65493,195.58585l-3.17439,7.21452" stroke-linecap="round"/><path d="M223.85322,172.95288l-7.21452,-3.17439" stroke-linecap="round"/><path d="M255.28786,186.78416l7.21452,3.17439" stroke-linecap="round"/></g></g></g></svg>