<svg version="1.1" xmlns="http://www.w3.org/2000/svg" xmlns:xlink="http://www.w3.org/1999/xlink" width="321.56271" height="199.75199" viewBox="0,0,321.56271,199.75199"><defs><linearGradient x1="317.07474" y1="409.89839" x2="376.7646" y2="435.41771" gradientUnits="userSpaceOnUse" id="color-1"><stop offset="0" stop-color="#0400ff"/><stop offset="1" stop-color="#5b58ff"/></linearGradient><linearGradient x1="331.40247" y1="376.62969" x2="402.20729" y2="368.62064" gradientUnits="userSpaceOnUse" id="color-2"><stop offset="0" stop-color="#0400ff"/><stop offset="1" stop-color="#5b58ff"/></linearGradient><linearGradient x1="238.43871" y1="393.71008" x2="330.51658" y2="387.12525" gradientUnits="userSpaceOnUse" id="color-3"><stop offset="0" stop-color="#0400ff"/><stop offset="1" stop-color="#5b58ff"/></linearGradient><linearGradient x1="75.87118" y1="332.88663" x2="163.26955" y2="345.57754" gradientUnits="userSpaceOnUse" id="color-4"><stop offset="0" stop-color="#0400ff"/><stop offset="1" stop-color="#5b58ff"/></linearGradient><linearGradient x1="243.33586" y1="288.75574" x2="187.02193" y2="417.67763" gradientUnits="userSpaceOnUse" id="color-5"><stop offset="0" stop-color="#0300f2"/><stop offset="1" stop-color="#908fff"/></linearGradient><linearGradient x1="275.57795" y1="384.4863" x2="267.50583" y2="402.96608" gradientUnits="userSpaceOnUse" id="color-6"><stop offset="0" stop-color="#3734f7"/><stop offset="1" stop-color="#0200a6"/></linearGradient><linearGradient x1="147.09582" y1="335.24568" x2="139.02369" y2="353.72551" gradientUnits="userSpaceOnUse" id="color-7"><stop offset="0" stop-color="#3734f7"/><stop offset="1" stop-color="#0200a6"/></linearGradient><linearGradient x1="207.24822" y1="422.16255" x2="291.15602" y2="394.61236" gradientUnits="userSpaceOnUse" id="color-8"><stop offset="0" stop-color="#0400ff"/><stop offset="1" stop-color="#5b58ff"/></linearGradient><linearGradient x1="209.75238" y1="288.20452" x2="209.75238" y2="334.56003" gradientUnits="userSpaceOnUse" id="color-9"><stop offset="0" stop-color="#ffffff" stop-opacity="0.4902"/><stop offset="1" stop-color="#ffffff" stop-opacity="0"/></linearGradient><linearGradient x1="318.02793" y1="342.88184" x2="238.25357" y2="308.03585" gradientUnits="userSpaceOnUse" id="color-10"><stop offset="0" stop-color="#908fff"/><stop offset="1" stop-color="#0300eb"/></linearGradient><linearGradient x1="292.47006" y1="290.34876" x2="292.47006" y2="335.29434" gradientUnits="userSpaceOnUse" id="color-11"><stop offset="0" stop-color="#ffffff" stop-opacity="0.4902"/><stop offset="1" stop-color="#ffffff" stop-opacity="0"/></linearGradient><linearGradient x1="232.3782" y1="304.05145" x2="152.60382" y2="269.20551" gradientUnits="userSpaceOnUse" id="color-12"><stop offset="0" stop-color="#0300eb"/><stop offset="1" stop-color="#908fff"/></linearGradient><linearGradient x1="186.86359" y1="270.05747" x2="239.91728" y2="270.05747" gradientUnits="userSpaceOnUse" id="color-13"><stop offset="0" stop-color="#ffffff" stop-opacity="0"/><stop offset="1" stop-color="#ffffff" stop-opacity="0.48235"/></linearGradient><linearGradient x1="342.82409" y1="281.09967" x2="345.41662" y2="284.42167" gradientUnits="userSpaceOnUse" id="color-14"><stop offset="0" stop-color="#ffffff" stop-opacity="0.6"/><stop offset="1" stop-color="#ffffff" stop-opacity="0"/></linearGradient></defs><g transform="translate(-79.21864,-246.79068)"><g data-paper-data="{&quot;isPaintingLayer&quot;:true}" fill-rule="nonzero" stroke-linejoin="miter" stroke-miterlimit="10" stroke-dasharray="" stroke-dashoffset="0" style="mix-blend-mode: normal"><path d="M314.32244,418.86884l4.95562,-14.12401l56.22734,11.58624l5.80268,8.45939l-18.1698,21.75221l-11.19328,-3.18785l2.0063,-7.00196z" fill="url(#color-1)" stroke="none" stroke-width="0" stroke-linecap="butt"/><path d="M333.63959,386.6834l-2.9286,-16.16694l59.94549,-19.42934l10.12487,4.92735l-5.54689,30.61218l-12.41134,3.02667l-1.88175,-7.7705z" fill="url(#color-2)" stroke="none" stroke-width="0" stroke-linecap="butt"/><path d="M245.86264,408.78026l-1.6575,-45.36259l98.7455,-18.69637l9.10558,22.75423l-0.8222,46.53873l-22.42318,23.20932z" fill="url(#color-3)" stroke="none" stroke-width="0" stroke-linecap="butt"/><path d="M160.99778,361.22263l-13.89397,4.19628c0,0 -59.72118,-10.72737 -66.30559,-25.91149c-5.39142,-12.43304 3.68077,-24.37517 17.17209,-25.74816c23.2098,-2.36203 63.02746,47.46338 63.02746,47.46338z" fill="url(#color-4)" stroke="none" stroke-width="0" stroke-linecap="butt"/><path d="M246.57679,290.26885c0,0 48.13372,56.60289 33.06305,91.10482c-4.69295,10.74376 -11.74615,19.72553 -20.28609,26.60289c-0.90699,0.7304 -1.83073,1.43707 -2.77021,2.1196c-19.5266,14.18601 -45.84563,17.94077 -69.56163,7.58148c-9.70414,-4.23885 -24.54765,-17.84958 -24.54765,-17.84958c0,0 -1.70104,-1.9812 -2.50712,-3.00361c-15.54695,-19.7192 -20.00344,-47.14462 -9.2492,-71.76474c9.09556,-20.82283 27.56666,-34.09271 48.42384,-38.47207c12.88028,-2.70445 26.67052,-2.01838 39.72464,2.37323z" fill="url(#color-5)" stroke="#000000" stroke-width="0" stroke-linecap="butt"/><path d="M279.82573,408.34751c0,0 -20.32107,-19.78604 -20.48139,-20.28268c-0.1628,-0.50441 28.55348,1.80289 28.55348,1.80289" fill="none" stroke="url(#color-6)" stroke-width="5" stroke-linecap="round"/><path d="M138.59124,331.53082l13.09547,16.38963l-21.16756,2.09018" data-paper-data="{&quot;index&quot;:null}" fill="none" stroke="url(#color-7)" stroke-width="5" stroke-linecap="round"/><g stroke="none" stroke-width="0" stroke-linecap="butt"><path d="M198.16551,371.72427l13.92381,-12.08222l40.97419,25.03289l-19.42131,2.34446l-0.9703,20.17103z" fill="#000000"/><path d="M224.97502,402.70695c0.34487,-0.78952 0.81536,-1.48523 1.37786,-2.07391c2.0103,-2.10402 5.19531,-2.84116 8.01702,-1.60861c3.61121,1.57741 5.26003,5.78365 3.6826,9.3949c-1.5774,3.61122 -5.78368,5.25997 -9.39493,3.68255c-3.61121,-1.57741 -5.25997,-5.78368 -3.68256,-9.3949z" fill="#000000"/><path d="M205.45018,375.90958l7.61429,-11.03773l12.73235,5.56158l-7.59498,8.2532z" fill="#ffffff"/><path d="M214.85475,376.43532c0.86748,-1.986 3.18068,-2.89268 5.16668,-2.0252c1.986,0.86748 2.89267,3.18068 2.02519,5.16665c-0.86748,1.986 -3.18069,2.8927 -5.16665,2.02523c-1.986,-0.86748 -2.8927,-3.18068 -2.02521,-5.16668z" fill="#ffffff"/></g><g stroke="none" stroke-width="0" stroke-linecap="butt"><path d="M135.35473,363.01142l13.10311,-14.87135l-4.1368,-9.96249l34.23144,6.48134l0.28987,18.49114z" data-paper-data="{&quot;index&quot;:null}" fill="#000000"/><path d="M134.2326,369.18618c-3.04316,-1.32926 -4.2314,-5.33439 -2.65401,-8.9456c1.5774,-3.61122 5.32316,-5.46112 8.36632,-4.13185c2.37785,1.03866 3.62318,3.711 3.30154,6.55266c-0.08999,0.79507 -0.30268,1.60339 -0.64754,2.39291c-1.5774,3.61122 -5.32314,5.46113 -8.3663,4.13186z" data-paper-data="{&quot;index&quot;:null}" fill="#000000"/><path d="M162.54297,352.70428l2.64923,-8.40934l9.88797,4.31913l-3.67923,10.75234z" data-paper-data="{&quot;index&quot;:null}" fill="#ffffff"/><path d="M158.93201,352.64225c0.67471,-1.54464 2.47387,-2.24984 4.01852,-1.57513c1.54464,0.67471 2.24987,2.47387 1.57516,4.0185c-0.67471,1.54464 -2.47387,2.24986 -4.01852,1.57515c-1.54464,-0.67471 -2.24987,-2.47388 -1.57516,-4.01853z" fill="#ffffff"/></g><path d="M291.36884,411.70832l-5.85351,7.86789c0,0 -58.25116,16.98523 -70.90756,6.32093c-10.36328,-8.73213 -7.55713,-23.46459 3.9118,-30.70093c14.30149,-9.02356 66.42982,9.70923 66.42982,9.70923z" fill="url(#color-8)" stroke="none" stroke-width="0" stroke-linecap="butt"/><path d="M168.50238,306.56003c0,0 13.19506,-10.55764 38.3185,-16.50208c9.11182,-2.15594 17.72929,-2.03396 24.5501,-1.58695c2.35981,0.15465 4.50458,0.36424 6.38035,0.58826c5.13244,0.61298 8.25106,1.3341 8.25106,1.3341l5,44.16667c0,0 -7.71855,-19.08321 -32.03397,-26.92668c-30.7131,-9.90717 -50.46602,-1.07332 -50.46602,-1.07332z" fill="url(#color-9)" stroke="none" stroke-width="0" stroke-linecap="butt"/><path d="M339.38284,307.81288c4.02484,21.21949 -58.23243,66.48146 -58.23243,66.48146c0,0 -22.10261,-19.09877 -31.29813,-45.68045c-6.74969,-19.51148 -3.87289,-38.26513 -3.87289,-38.26513c0,0 86.19915,0.36834 93.40345,17.46411z" fill="url(#color-10)" stroke="#000000" stroke-width="0" stroke-linecap="butt"/><path d="M339.38284,307.81288c0.50712,2.67364 -0.03803,5.72897 -1.37835,9.02737c-0.51467,1.26656 -1.88119,3.89935 -1.88119,3.89935c0,0 -5.84609,-5.87306 -15.66348,-9.68096c-26.78994,-10.3911 -67.80941,24.2357 -67.80941,24.2357c0,0 -2.15555,-4.68732 -3.18097,-7.81743c-6.25608,-19.09659 -3.49005,-37.12815 -3.49005,-37.12815c0,0 86.19915,0.36834 93.40345,17.46411z" fill="url(#color-11)" stroke="#000000" stroke-width="0" stroke-linecap="butt"/><path d="M240.1395,289.42931c0,0 -12.06044,-1.67447 -20.73814,-1.15142c-7.21207,0.43471 -16.01043,2.40949 -25.94951,5.74246c-24.80556,8.31829 -38.84288,23.77925 -38.84288,23.77925c0,0 1.4824,-62.89875 17.76272,-69.73628c18.9543,-9.80398 66.87893,40.25488 66.87893,40.25488z" data-paper-data="{&quot;index&quot;:null}" fill="url(#color-12)" stroke="#000000" stroke-width="0" stroke-linecap="butt"/><path d="M239.91728,289.20707c0,0 -14.75965,-1.46406 -21.3232,-0.85701c-5.91636,0.54719 -16.874,3.22731 -16.874,3.22731c0,0 3.6341,-7.95673 1.61335,-19.3757c-2.73475,-15.45364 -16.46983,-23.66413 -16.46983,-23.66413c0,0 1.09538,0.40618 1.6504,0.63059c21.80922,8.81838 50.84773,39.15006 50.84773,39.15006z" data-paper-data="{&quot;index&quot;:null}" fill="url(#color-13)" stroke="#000000" stroke-width="0" stroke-linecap="butt"/><path d="M345.45995,284.38751c-2.37663,1.83151 -4.90303,2.58787 -5.64284,1.68936c-0.73983,-0.89849 0.58705,-3.11157 2.96367,-4.94307c2.37663,-1.83151 4.90302,-2.58786 5.64284,-1.68937c0.73983,0.89849 -0.58702,3.11157 -2.96367,4.94307z" data-paper-data="{&quot;index&quot;:null}" fill="url(#color-14)" stroke="none" stroke-width="0" stroke-linecap="butt"/></g></g></svg>