<svg version="1.1" xmlns="http://www.w3.org/2000/svg" xmlns:xlink="http://www.w3.org/1999/xlink" width="70.03354" height="155.33247" viewBox="0,0,70.03354,155.33247"><defs><radialGradient cx="269.28846" cy="189.50095" r="17.48859" gradientUnits="userSpaceOnUse" id="color-1"><stop offset="0" stop-color="#000000" stop-opacity="0.63137"/><stop offset="1" stop-color="#000000" stop-opacity="0"/></radialGradient><linearGradient x1="260.80332" y1="174.20868" x2="277.77358" y2="204.79324" gradientUnits="userSpaceOnUse" id="color-2"><stop offset="0" stop-color="#ff5454"/><stop offset="1" stop-color="#eb0000"/></linearGradient><linearGradient x1="271.27795" y1="176.64161" x2="252.30115" y2="187.17114" gradientUnits="userSpaceOnUse" id="color-3"><stop offset="0" stop-color="#eb0000"/><stop offset="1" stop-color="#ff5454"/></linearGradient><radialGradient cx="276.5386" cy="225.56189" r="20.90193" gradientUnits="userSpaceOnUse" id="color-4"><stop offset="0" stop-color="#000000" stop-opacity="0.63137"/><stop offset="1" stop-color="#000000" stop-opacity="0"/></radialGradient><linearGradient x1="266.39738" y1="207.28493" x2="286.67981" y2="243.83883" gradientUnits="userSpaceOnUse" id="color-5"><stop offset="0" stop-color="#ff5454"/><stop offset="1" stop-color="#eb0000"/></linearGradient><radialGradient cx="279.64557" cy="290.70297" r="35.01038" gradientUnits="userSpaceOnUse" id="color-6"><stop offset="0" stop-color="#000000" stop-opacity="0.63137"/><stop offset="1" stop-color="#000000" stop-opacity="0"/></radialGradient><linearGradient x1="262.65919" y1="260.08937" x2="296.63191" y2="321.31651" gradientUnits="userSpaceOnUse" id="color-7"><stop offset="0" stop-color="#ff5454"/><stop offset="1" stop-color="#eb0000"/></linearGradient><linearGradient x1="280.41933" y1="206.64642" x2="265.21326" y2="209.99931" gradientUnits="userSpaceOnUse" id="color-8"><stop offset="0" stop-color="#000000"/><stop offset="1" stop-color="#929292"/></linearGradient><linearGradient x1="280.41933" y1="206.64642" x2="265.21326" y2="209.99931" gradientUnits="userSpaceOnUse" id="color-9"><stop offset="0" stop-color="#929292" stop-opacity="0"/><stop offset="1" stop-color="#929292"/></linearGradient><linearGradient x1="292.19431" y1="251.76482" x2="269.79676" y2="285.13851" gradientUnits="userSpaceOnUse" id="color-10"><stop offset="0" stop-color="#ffffff"/><stop offset="1" stop-color="#9d9d9d"/></linearGradient><linearGradient x1="291.30779" y1="264.47416" x2="255.94326" y2="317.16945" gradientUnits="userSpaceOnUse" id="color-11"><stop offset="0" stop-color="#f20000"/><stop offset="1" stop-color="#ff7979"/></linearGradient><linearGradient x1="275.6183" y1="240.2109" x2="282.51831" y2="238.75787" gradientUnits="userSpaceOnUse" id="color-12"><stop offset="0" stop-color="#c6c6c6"/><stop offset="1" stop-color="#6b6b6b"/></linearGradient><linearGradient x1="272.23272" y1="231.91391" x2="282.81796" y2="237.53952" gradientUnits="userSpaceOnUse" id="color-13"><stop offset="0" stop-color="#ff5454"/><stop offset="1" stop-color="#ce0000"/></linearGradient><linearGradient x1="273.99977" y1="299.81242" x2="260.24" y2="320.31525" gradientUnits="userSpaceOnUse" id="color-14"><stop offset="0" stop-color="#ffadad" stop-opacity="0"/><stop offset="1" stop-color="#ffadad"/></linearGradient><linearGradient x1="273.99977" y1="299.81242" x2="260.24" y2="320.31525" gradientUnits="userSpaceOnUse" id="color-15"><stop offset="0" stop-color="#ab0000"/><stop offset="1" stop-color="#ff5454"/></linearGradient><linearGradient x1="274.47704" y1="294.22299" x2="260.7173" y2="314.72585" gradientUnits="userSpaceOnUse" id="color-16"><stop offset="0" stop-color="#ff6b6b" stop-opacity="0"/><stop offset="1" stop-color="#ff6b6b"/></linearGradient><linearGradient x1="274.47704" y1="294.22299" x2="260.7173" y2="314.72585" gradientUnits="userSpaceOnUse" id="color-17"><stop offset="0" stop-color="#ab0000"/><stop offset="1" stop-color="#ff5454"/></linearGradient><linearGradient x1="270.38073" y1="317.63205" x2="266.55452" y2="310.20831" gradientUnits="userSpaceOnUse" id="color-18"><stop offset="0" stop-color="#ffffff" stop-opacity="0.5207"/><stop offset="1" stop-color="#ffffff" stop-opacity="0"/></linearGradient><linearGradient x1="276.94036" y1="309.55332" x2="259.99492" y2="318.28707" gradientUnits="userSpaceOnUse" id="color-19"><stop offset="0" stop-color="#ab0000"/><stop offset="1" stop-color="#ff5454"/></linearGradient><linearGradient x1="281.7116" y1="221.29981" x2="269.87883" y2="227.86538" gradientUnits="userSpaceOnUse" id="color-20"><stop offset="0" stop-color="#000000"/><stop offset="1" stop-color="#929292"/></linearGradient><linearGradient x1="285.93363" y1="242.271" x2="274.10087" y2="248.83658" gradientUnits="userSpaceOnUse" id="color-21"><stop offset="0" stop-color="#000000"/><stop offset="1" stop-color="#929292"/></linearGradient><linearGradient x1="288.18904" y1="204.85144" x2="269.21225" y2="215.38097" gradientUnits="userSpaceOnUse" id="color-22"><stop offset="0" stop-color="#eb0000"/><stop offset="1" stop-color="#ff5454"/></linearGradient></defs><g transform="translate(-244.62878,-170.38726)"><g data-paper-data="{&quot;isPaintingLayer&quot;:true}" fill-rule="nonzero" stroke-linejoin="miter" stroke-miterlimit="10" stroke-dasharray="" stroke-dashoffset="0" style="mix-blend-mode: normal"><path d="M284.58075,181.01584c4.68621,8.44569 1.63855,19.09122 -6.80714,23.77741c-8.44568,4.6862 -19.09121,1.63855 -23.77741,-6.80715c-4.68621,-8.44567 -1.63855,-19.0912 6.80714,-23.77739c8.44567,-4.68621 19.09119,-1.63856 23.77739,6.80714z" data-paper-data="{&quot;index&quot;:null}" fill="url(#color-1)" stroke="url(#color-2)" stroke-width="0" stroke-linecap="butt"/><path d="M267.05433,191.39476c-5.24028,2.90766 -11.84551,1.01666 -14.75315,-4.22363c-2.90766,-5.24028 -1.01666,-11.84551 4.22363,-14.75315c5.24028,-2.90766 11.84551,-1.01666 14.75315,4.22363c2.90766,5.24028 1.01666,11.84551 -4.22363,14.75315z" data-paper-data="{&quot;index&quot;:null}" fill="url(#color-3)" stroke="#000000" stroke-width="0" stroke-linecap="butt"/><path d="M286.67979,243.83885c-10.09406,5.60083 -22.81732,1.95836 -28.41816,-8.13573c-5.60083,-10.09406 -1.95834,-22.81732 8.13573,-28.41816c10.09406,-5.60083 22.81732,-1.95836 28.41816,8.13573c5.60083,10.09406 1.95834,22.81732 -8.13573,28.41816z" data-paper-data="{&quot;index&quot;:null}" fill="url(#color-4)" stroke="url(#color-5)" stroke-width="0" stroke-linecap="butt"/><path d="M296.63189,321.31651c-16.9074,9.38131 -38.2186,3.28021 -47.59991,-13.62721c-9.38131,-16.9074 -3.28018,-38.21861 13.62721,-47.59991c16.9074,-9.38131 38.2186,-3.28021 47.59991,13.62721c9.38131,16.9074 3.28018,38.21861 -13.62721,47.59991z" data-paper-data="{&quot;index&quot;:null}" fill="url(#color-6)" stroke="url(#color-7)" stroke-width="0" stroke-linecap="butt"/><path d="M270.55798,216.21973l-11.99067,-36.36099c0,0 -1.32839,-7.6385 5.74556,-9.23956c7.21182,-1.63227 9.46051,5.88665 9.46051,5.88665l3.54941,38.4207z" data-paper-data="{&quot;index&quot;:null}" fill="url(#color-8)" stroke="url(#color-9)" stroke-width="0" stroke-linecap="butt"/><path d="M284.20763,252.06622c0,0 4.73953,6.02909 6.37553,8.83475c1.229,2.10771 2.96648,5.92692 2.96648,5.92692l-16.51433,22.11612l-19.87371,3.00062c0,0 14.00836,-13.66122 17.28551,-19.87853c3.59952,-6.82891 4.41119,-18.77771 4.41119,-18.77771z" data-paper-data="{&quot;index&quot;:null}" fill="url(#color-10)" stroke="#ffffff" stroke-width="0" stroke-linecap="butt"/><path d="M253.08399,287.69687c1.11603,-2.05994 8.54794,0.85372 11.30308,-0.84604c14.9146,-9.20143 18.51042,-23.79359 26.92072,-22.37667c4.22996,0.71263 9.35572,23.38794 -0.40994,37.93935c-9.76564,14.55141 -37.56344,25.94413 -34.95461,14.75595c4.35394,-18.67234 -7.23253,-21.40052 -2.85925,-29.47259z" data-paper-data="{&quot;index&quot;:null}" fill="url(#color-11)" stroke="#ffffff" stroke-width="0" stroke-linecap="butt"/><path d="M270.00836,214.08932l6.75845,-1.50311l8.38496,21.05266l0.32103,19.14904l-6.90002,1.45302l-7.83318,-17.80666z" data-paper-data="{&quot;index&quot;:null}" fill="url(#color-12)" stroke="#ffffff" stroke-width="0" stroke-linecap="butt"/><path d="M270.06868,236.48661l15.65202,-4.07765" data-paper-data="{&quot;index&quot;:null}" fill="none" stroke="url(#color-13)" stroke-width="7.5" stroke-linecap="round"/><path d="M256.42151,317.53398c2.71353,-7.54149 -1.09136,-7.17069 2.70829,-12.83239c0.62232,-0.92728 2.54564,9.11841 3.54911,8.55276c5.12335,-2.88808 13.2088,-12.17491 16.89885,-9.69846c4.41281,2.9615 -0.36459,5.75625 -4.16424,11.41795c-3.79965,5.66169 -21.55855,9.69316 -18.99196,2.56015z" data-paper-data="{&quot;index&quot;:null}" fill="url(#color-14)" stroke="url(#color-15)" stroke-width="0" stroke-linecap="butt"/><path d="M259.55677,315.47765c-0.39883,-4.30124 -3.74936,-10.70374 0.05029,-16.36544c0.62232,-0.92728 2.54564,9.11841 3.5491,8.55276c5.12335,-2.88808 13.20877,-12.17492 16.89885,-9.69846c4.41281,2.9615 -0.36459,5.75625 -4.16424,11.41795c-3.79965,5.66169 -16.10163,8.59901 -16.33397,6.09321z" data-paper-data="{&quot;index&quot;:null}" fill="url(#color-16)" stroke="url(#color-17)" stroke-width="0" stroke-linecap="butt"/><path d="M257.22168,319.48706c-0.24674,-0.47873 -0.98017,-7.51058 0.0793,-9.00194c3.47744,-4.89498 14.50865,-8.01901 18.09527,-9.86757c3.35193,-1.72759 11.84987,-2.8052 16.62444,-4.49586c1.8908,-0.66954 -3.93597,8.5043 -6.0604,11.39475c-1.36585,1.85834 -10.09683,8.46164 -14.77618,10.87339c-2.54785,1.31316 -6.14728,2.12938 -9.06835,2.26959c-2.44378,0.11729 -4.41279,-0.23854 -4.89404,-1.17235z" data-paper-data="{&quot;index&quot;:null}" fill="url(#color-18)" stroke="url(#color-19)" stroke-width="0" stroke-linecap="butt"/><path d="M268.88949,226.08238l13.63155,-3.32372" data-paper-data="{&quot;index&quot;:null}" fill="none" stroke="url(#color-20)" stroke-width="3.5" stroke-linecap="round"/><path d="M273.11154,247.05355l13.63155,-3.32372" data-paper-data="{&quot;index&quot;:null}" fill="none" stroke="url(#color-21)" stroke-width="3.5" stroke-linecap="round"/><path d="M288.18903,204.8515c2.90766,5.24028 1.01666,11.84551 -4.22363,14.75315c-5.24031,2.90764 -11.84554,1.01664 -14.75318,-4.22365c-2.90764,-5.24032 -1.01664,-11.84555 4.22365,-14.75319c5.2403,-2.90766 11.84553,-1.01666 14.75317,4.22363z" data-paper-data="{&quot;index&quot;:null}" fill="url(#color-22)" stroke="#000000" stroke-width="0" stroke-linecap="butt"/></g></g></svg>