<svg version="1.1" xmlns="http://www.w3.org/2000/svg" xmlns:xlink="http://www.w3.org/1999/xlink" width="107.93901" height="108.23263" viewBox="0,0,107.93901,108.23263"><defs><radialGradient cx="277.46827" cy="167.05422" r="22.4585" gradientUnits="userSpaceOnUse" id="color-1"><stop offset="0" stop-color="#000000" stop-opacity="0.63137"/><stop offset="1" stop-color="#000000" stop-opacity="0"/></radialGradient><linearGradient x1="280.10082" y1="144.75053" x2="274.83573" y2="189.35791" gradientUnits="userSpaceOnUse" id="color-2"><stop offset="0" stop-color="#ff5454"/><stop offset="1" stop-color="#eb0000"/></linearGradient><radialGradient cx="315.67218" cy="173.46813" r="13.21118" gradientUnits="userSpaceOnUse" id="color-3"><stop offset="0" stop-color="#000000" stop-opacity="0.63137"/><stop offset="1" stop-color="#000000" stop-opacity="0"/></radialGradient><linearGradient x1="317.22077" y1="160.34802" x2="314.1236" y2="186.58823" gradientUnits="userSpaceOnUse" id="color-4"><stop offset="0" stop-color="#ff5454"/><stop offset="1" stop-color="#eb0000"/></linearGradient><linearGradient x1="282.32847" y1="168.57681" x2="301.51474" y2="170.84139" gradientUnits="userSpaceOnUse" id="color-5"><stop offset="0" stop-color="#550000"/><stop offset="1" stop-color="#ff0000"/></linearGradient><linearGradient x1="284.88571" y1="166.55152" x2="261.09221" y2="163.74314" gradientUnits="userSpaceOnUse" id="color-6"><stop offset="0" stop-color="#eb0000"/><stop offset="1" stop-color="#ff5454"/></linearGradient><linearGradient x1="271.92886" y1="171.72195" x2="285.63334" y2="173.33952" gradientUnits="userSpaceOnUse" id="color-7"><stop offset="0" stop-color="#575757"/><stop offset="1" stop-color="#d9d9d9"/></linearGradient><linearGradient x1="301.23475" y1="170.95096" x2="280.892" y2="168.54988" gradientUnits="userSpaceOnUse" id="color-8"><stop offset="0" stop-color="#e50000"/><stop offset="1" stop-color="#ff5656"/></linearGradient><linearGradient x1="311.39877" y1="178.85665" x2="316.00538" y2="165.42306" gradientUnits="userSpaceOnUse" id="color-9"><stop offset="0" stop-color="#ff5454"/><stop offset="1" stop-color="#eb0000"/></linearGradient><linearGradient x1="301.63575" y1="176.13194" x2="303.2533" y2="162.42746" gradientUnits="userSpaceOnUse" id="color-10"><stop offset="0" stop-color="#303030"/><stop offset="1" stop-color="#dddddd"/></linearGradient><radialGradient cx="294.84633" cy="198.33853" r="12.62094" gradientUnits="userSpaceOnUse" id="color-11"><stop offset="0" stop-color="#000000" stop-opacity="0.63137"/><stop offset="1" stop-color="#000000" stop-opacity="0"/></radialGradient><linearGradient x1="294.68498" y1="185.71861" x2="295.00768" y2="210.95842" gradientUnits="userSpaceOnUse" id="color-12"><stop offset="0" stop-color="#ff5454"/><stop offset="1" stop-color="#eb0000"/></linearGradient><radialGradient cx="264.45768" cy="198.00895" r="17.39747" gradientUnits="userSpaceOnUse" id="color-13"><stop offset="0" stop-color="#000000" stop-opacity="0.63137"/><stop offset="1" stop-color="#000000" stop-opacity="0"/></radialGradient><linearGradient x1="264.6801" y1="215.405" x2="264.23526" y2="180.6129" gradientUnits="userSpaceOnUse" id="color-14"><stop offset="0" stop-color="#ff5454"/><stop offset="1" stop-color="#eb0000"/></linearGradient><linearGradient x1="268.32527" y1="197.22942" x2="283.28986" y2="197.03808" gradientUnits="userSpaceOnUse" id="color-15"><stop offset="0" stop-color="#550000"/><stop offset="1" stop-color="#ff0000"/></linearGradient><linearGradient x1="270.13143" y1="198.99674" x2="251.57338" y2="199.23402" gradientUnits="userSpaceOnUse" id="color-16"><stop offset="0" stop-color="#eb0000"/><stop offset="1" stop-color="#ff5454"/></linearGradient><linearGradient x1="260.56797" y1="193.96443" x2="271.25696" y2="193.82777" gradientUnits="userSpaceOnUse" id="color-17"><stop offset="0" stop-color="#575757"/><stop offset="1" stop-color="#d9d9d9"/></linearGradient><linearGradient x1="283.08302" y1="196.931" x2="267.21643" y2="197.13386" gradientUnits="userSpaceOnUse" id="color-18"><stop offset="0" stop-color="#e50000"/><stop offset="1" stop-color="#ff5656"/></linearGradient><linearGradient x1="291.56673" y1="192.69757" x2="294.02811" y2="203.41984" gradientUnits="userSpaceOnUse" id="color-19"><stop offset="0" stop-color="#ff5454"/><stop offset="1" stop-color="#eb0000"/></linearGradient><linearGradient x1="283.81141" y1="192.97201" x2="283.94807" y2="203.661" gradientUnits="userSpaceOnUse" id="color-20"><stop offset="0" stop-color="#303030"/><stop offset="1" stop-color="#dddddd"/></linearGradient></defs><g transform="translate(-234.81019,-125.88372)"><g data-paper-data="{&quot;isPaintingLayer&quot;:true}" fill-rule="nonzero" stroke-linejoin="miter" stroke-miterlimit="10" stroke-dasharray="" stroke-dashoffset="0" style="mix-blend-mode: normal"><path d="M234.81019,234.11635v-108.23263h107.93901v108.23263z" fill="none" stroke="none" stroke-width="0" stroke-linecap="butt"/><path d="M255.1646,164.42169c1.45392,-12.31799 12.61824,-21.12505 24.93622,-19.67114c12.318,1.45391 21.12505,12.61825 19.67114,24.93622c-1.45392,12.31799 -12.61824,21.12505 -24.93622,19.67114c-12.318,-1.45391 -21.12505,-12.61825 -19.67114,-24.93622z" fill="url(#color-1)" stroke="url(#color-2)" stroke-width="0" stroke-linecap="butt"/><path d="M302.55209,171.91953c0.85526,-7.24603 7.42266,-12.42677 14.66868,-11.57152c7.24605,0.85526 12.42677,7.42266 11.57151,14.66869c-0.85526,7.24603 -7.42266,12.42677 -14.66869,11.57151c-7.24605,-0.85526 -12.42677,-7.42266 -11.57151,-14.66869z" fill="url(#color-3)" stroke="url(#color-4)" stroke-width="0" stroke-linecap="butt"/><path d="M285.16901,170.03415l13.75446,-2.76167" data-paper-data="{&quot;index&quot;:null}" fill="none" stroke="url(#color-5)" stroke-width="17.5" stroke-linecap="round"/><path d="M271.58476,177.04407c-6.57039,-0.77551 -11.26807,-6.73054 -10.49256,-13.30094c0.77551,-6.57039 6.73054,-11.26807 13.30094,-10.49256c6.57039,0.77551 11.26807,6.73054 10.49256,13.30094c-0.77551,6.57039 -6.73054,11.26807 -13.30094,10.49256z" data-paper-data="{&quot;index&quot;:null}" fill="url(#color-6)" stroke="#000000" stroke-width="0" stroke-linecap="butt"/><path d="M283.33089,170.56125l-8.85033,1.82738" data-paper-data="{&quot;index&quot;:null}" fill="none" stroke="url(#color-7)" stroke-width="12.5" stroke-linecap="round"/><path d="M298.45428,169.11337l-15.39032,0.98817" data-paper-data="{&quot;index&quot;:null}" fill="none" stroke="url(#color-8)" stroke-width="7.5" stroke-linecap="round"/><path d="M322.12537,167.52172c0,0 0.93623,2.5271 -0.57451,6.93261c-1.52998,4.46166 -4.0321,6.50096 -4.0321,6.50096l-10.51254,-9.23491l1.06939,-3.11852z" data-paper-data="{&quot;index&quot;:null}" fill="url(#color-9)" stroke="#000000" stroke-width="0" stroke-linecap="butt"/><path d="M298.33606,167.51018l8.36645,2.27211" data-paper-data="{&quot;index&quot;:null}" fill="none" stroke="url(#color-10)" stroke-width="12.5" stroke-linecap="round"/><path d="M282.22643,198.49988c-0.08911,-6.96978 5.48877,-12.69215 12.45854,-12.78126c6.9698,-0.08911 12.69214,5.48878 12.78126,12.45855c0.08911,6.96979 -5.48878,12.69214 -12.45855,12.78126c-6.9698,0.08911 -12.69213,-5.48878 -12.78125,-12.45855z" fill="url(#color-11)" stroke="url(#color-12)" stroke-width="0" stroke-linecap="butt"/><path d="M264.23527,180.6129c9.60757,-0.12284 17.49562,7.56606 17.61847,17.17363c0.12284,9.60756 -7.56605,17.49562 -17.17363,17.61847c-9.60757,0.12284 -17.49562,-7.56606 -17.61847,-17.17363c-0.12284,-9.60756 7.56605,-17.49562 17.17363,-17.61847z" data-paper-data="{&quot;index&quot;:null}" fill="url(#color-13)" stroke="url(#color-14)" stroke-width="0" stroke-linecap="butt"/><path d="M281.00458,199.57781l-10.37295,-3.24118" data-paper-data="{&quot;index&quot;:null}" fill="none" stroke="url(#color-15)" stroke-width="17.5" stroke-linecap="round"/><path d="M270.13143,198.99674c0.06552,5.12467 -4.03573,9.33214 -9.16039,9.39767c-5.12467,0.06552 -9.33214,-4.03573 -9.39767,-9.16039c-0.06552,-5.12467 4.03573,-9.33214 9.16039,-9.39767c5.12467,-0.06552 9.33214,4.03573 9.39767,9.16039z" data-paper-data="{&quot;index&quot;:null}" fill="url(#color-16)" stroke="#000000" stroke-width="0" stroke-linecap="butt"/><path d="M262.5878,193.6574l6.67041,2.12435" data-paper-data="{&quot;index&quot;:null}" fill="none" stroke="url(#color-17)" stroke-width="12.5" stroke-linecap="round"/><path d="M269.01535,196.11429l11.77681,2.0073" data-paper-data="{&quot;index&quot;:null}" fill="none" stroke="url(#color-18)" stroke-width="7.5" stroke-linecap="round"/><path d="M288.17631,200.32888l-0.57139,-2.48911l8.84659,-6.26354c0,0 1.76255,1.77368 2.58004,5.33483c0.8072,3.51634 -0.11866,5.38744 -0.11866,5.38744z" data-paper-data="{&quot;index&quot;:null}" fill="url(#color-19)" stroke="#000000" stroke-width="0" stroke-linecap="butt"/><path d="M280.5713,199.34713l6.62953,-1.07309" data-paper-data="{&quot;index&quot;:null}" fill="none" stroke="url(#color-20)" stroke-width="12.5" stroke-linecap="round"/></g></g></svg>