<svg version="1.1" xmlns="http://www.w3.org/2000/svg" xmlns:xlink="http://www.w3.org/1999/xlink" width="356" height="356" viewBox="0,0,356,356"><defs><radialGradient cx="239.99999" cy="180" r="162" gradientUnits="userSpaceOnUse" id="color-1"><stop offset="0" stop-color="#ff0000"/><stop offset="1" stop-color="#ff0000" stop-opacity="0"/></radialGradient><radialGradient cx="239.99999" cy="180.00003" r="162" gradientUnits="userSpaceOnUse" id="color-2"><stop offset="0" stop-color="#ff0000"/><stop offset="1" stop-color="#ff0000" stop-opacity="0"/></radialGradient><radialGradient cx="239.99999" cy="180.00003" r="162" gradientUnits="userSpaceOnUse" id="color-3"><stop offset="0" stop-color="#ff0000"/><stop offset="1" stop-color="#ff0000" stop-opacity="0"/></radialGradient><linearGradient x1="329.78241" y1="87.53937" x2="307.07929" y2="87.53937" gradientUnits="userSpaceOnUse" id="color-4"><stop offset="0" stop-color="#000000"/><stop offset="1" stop-color="#ff0000"/></linearGradient><linearGradient x1="332.58424" y1="272.60485" x2="307.20288" y2="272.60485" gradientUnits="userSpaceOnUse" id="color-5"><stop offset="0" stop-color="#000000"/><stop offset="1" stop-color="#ff0000"/></linearGradient><linearGradient x1="147.41576" y1="272.46065" x2="170.11889" y2="272.46065" gradientUnits="userSpaceOnUse" id="color-6"><stop offset="0" stop-color="#000000"/><stop offset="1" stop-color="#ff0000"/></linearGradient><linearGradient x1="147.53936" y1="87.39517" x2="172.92071" y2="87.39517" gradientUnits="userSpaceOnUse" id="color-7"><stop offset="0" stop-color="#000000"/><stop offset="1" stop-color="#ff0000"/></linearGradient><linearGradient x1="332.50179" y1="269.82238" x2="332.50179" y2="247.10915" gradientUnits="userSpaceOnUse" id="color-8"><stop offset="0" stop-color="#000000"/><stop offset="1" stop-color="#ff0000"/></linearGradient><linearGradient x1="147.35395" y1="272.62546" x2="147.35395" y2="247.23281" gradientUnits="userSpaceOnUse" id="color-9"><stop offset="0" stop-color="#000000"/><stop offset="1" stop-color="#ff0000"/></linearGradient><linearGradient x1="147.49821" y1="87.37457" x2="147.49821" y2="110.08779" gradientUnits="userSpaceOnUse" id="color-10"><stop offset="0" stop-color="#000000"/><stop offset="1" stop-color="#ff0000"/></linearGradient><linearGradient x1="332.64606" y1="87.49822" x2="332.64606" y2="112.89087" gradientUnits="userSpaceOnUse" id="color-11"><stop offset="0" stop-color="#000000"/><stop offset="1" stop-color="#ff0000"/></linearGradient></defs><g transform="translate(-62,-2)"><g data-paper-data="{&quot;isPaintingLayer&quot;:true}" fill-rule="nonzero" stroke-linejoin="miter" stroke-miterlimit="10" stroke-dasharray="" stroke-dashoffset="0" style="mix-blend-mode: normal"><path d="M240.00002,342c-89.47013,0 -162,-72.52987 -162,-162c0,-89.47012 72.52987,-162 162,-162c89.47012,0 162,72.52988 162,162c0,89.47013 -72.52988,162 -162,162z" data-paper-data="{&quot;index&quot;:null}" fill="url(#color-1)" stroke="none" stroke-width="0" stroke-linecap="butt"/><path d="M62,358v-356h356v356z" fill="none" stroke="none" stroke-width="0" stroke-linecap="butt"/><path d="M401.99999,180c0,89.47013 -72.52987,162 -162,162c-89.47012,0 -162,-72.52987 -162,-162c0,-89.47012 72.52988,-162 162,-162c89.47013,0 162,72.52988 162,162z" data-paper-data="{&quot;index&quot;:null}" fill="url(#color-2)" stroke="none" stroke-width="0" stroke-linecap="butt"/><path d="M401.99999,180c0,89.47013 -72.52987,162 -162,162c-89.47012,0 -162,-72.52987 -162,-162c0,-89.47012 72.52988,-162 162,-162c89.47013,0 162,72.52988 162,162z" data-paper-data="{&quot;index&quot;:null}" fill="url(#color-3)" stroke="none" stroke-width="0" stroke-linecap="butt"/><path d="M128.7112,247.51748v-133.99022c0,0 4.45593,-18.92097 15.06582,-29.5354c10.60988,-10.61437 29.51892,-15.06582 29.51892,-15.06582h133.40818c0,0 17.75553,3.76917 28.41187,14.3278c10.65634,10.55863 16.17281,29.90431 16.17281,29.90431v134.82042c0,0 -4.978,18.9238 -15.61929,29.23832c-10.64134,10.31452 -29.70348,13.85706 -29.70348,13.85706h-132.6701c0,0 -19.09532,-3.98801 -29.70348,-14.59507c-10.60816,-10.60706 -14.88127,-28.96147 -14.88127,-28.96147z" fill="#000000" stroke="none" stroke-width="0" stroke-linecap="butt"/><g fill="none" stroke-width="8.5" stroke-linecap="round"><path d="M329.78241,87.53937h-22.70311" data-paper-data="{&quot;index&quot;:null}" stroke="url(#color-4)"/><path d="M307.20288,272.58425l25.38136,0.0412" data-paper-data="{&quot;index&quot;:null}" stroke="url(#color-5)"/><path d="M170.11889,272.46065h-22.70312" data-paper-data="{&quot;index&quot;:null}" stroke="url(#color-6)"/><path d="M172.92071,87.37457l-25.38135,0.0412" data-paper-data="{&quot;index&quot;:null}" stroke="url(#color-7)"/></g><g fill="none" stroke-width="8.5" stroke-linecap="round"><path d="M332.50179,269.82238v-22.71323" data-paper-data="{&quot;index&quot;:null}" stroke="url(#color-8)"/><path d="M147.37455,247.23281l-0.04122,25.39265" data-paper-data="{&quot;index&quot;:null}" stroke="url(#color-9)"/><path d="M147.49821,110.08779v-22.71322" data-paper-data="{&quot;index&quot;:null}" stroke="url(#color-10)"/><path d="M332.66667,112.89087l-0.04122,-25.39265" data-paper-data="{&quot;index&quot;:null}" stroke="url(#color-11)"/></g></g></g></svg>