<svg version="1.1" xmlns="http://www.w3.org/2000/svg" xmlns:xlink="http://www.w3.org/1999/xlink" width="69.22035" height="39.23864" viewBox="0,0,69.22035,39.23864"><defs><linearGradient x1="190.39901" y1="179.91868" x2="220.71594" y2="179.91868" gradientUnits="userSpaceOnUse" id="color-1"><stop offset="0" stop-color="#ffffff" stop-opacity="0"/><stop offset="1" stop-color="#ffffff"/></linearGradient><radialGradient cx="240.00004" cy="180" r="19.61932" gradientUnits="userSpaceOnUse" id="color-2"><stop offset="0" stop-color="#ffffff"/><stop offset="1" stop-color="#ffffff" stop-opacity="0"/></radialGradient><radialGradient cx="240.00007" cy="180" r="9.19768" gradientUnits="userSpaceOnUse" id="color-3"><stop offset="0" stop-color="#737373"/><stop offset="1" stop-color="#737373" stop-opacity="0"/></radialGradient><linearGradient x1="230.89952" y1="180" x2="247.54222" y2="180" gradientUnits="userSpaceOnUse" id="color-4"><stop offset="0" stop-color="#ff0000"/><stop offset="1" stop-color="#ff6969"/></linearGradient></defs><g transform="translate(-190.39901,-160.38068)"><g data-paper-data="{&quot;isPaintingLayer&quot;:true}" fill-rule="nonzero" stroke-width="0" stroke-linecap="butt" stroke-linejoin="miter" stroke-miterlimit="10" stroke-dasharray="" stroke-dashoffset="0" style="mix-blend-mode: normal"><path d="M190.39901,180.50223l30.28939,-3.03447l0.02755,5.55935z" fill="url(#color-1)" stroke="none"/><path d="M220.38072,180c0,-10.83545 8.78387,-19.61932 19.61932,-19.61932c10.83545,0 19.61932,8.78387 19.61932,19.61932c0,10.83545 -8.78387,19.61932 -19.61932,19.61932c-10.83545,0 -19.61932,-8.78387 -19.61932,-19.61932z" fill="url(#color-2)" stroke="#f83535"/><path d="M230.80233,180c0,-5.07974 4.11794,-9.19768 9.19768,-9.19768c5.07974,0 9.19768,4.11794 9.19768,9.19768c0,5.07974 -4.11794,9.19768 -9.19768,9.19768c-5.07974,0 -9.19768,-4.11794 -9.19768,-9.19768z" fill="url(#color-3)" stroke="none"/><path d="M239.22084,174.23852c4.59576,0 8.32133,2.57951 8.32133,5.76149c0,3.18199 -4.12628,5.74091 -8.32133,5.7615c-4.19505,0.02059 -23.73143,-2.38885 -23.73143,-5.57084c0,-2.99133 19.13567,-5.95215 23.73143,-5.95215z" fill="url(#color-4)" stroke="#000000"/></g></g></svg>