<svg version="1.1" xmlns="http://www.w3.org/2000/svg" xmlns:xlink="http://www.w3.org/1999/xlink" width="92.17659" height="130.32756" viewBox="0,0,92.17659,130.32756"><defs><radialGradient cx="220.64646" cy="265.95455" r="26.05926" gradientUnits="userSpaceOnUse" id="color-1"><stop offset="0" stop-color="#000000" stop-opacity="0.30588"/><stop offset="1" stop-color="#000000" stop-opacity="0"/></radialGradient><linearGradient x1="236.79305" y1="245.50036" x2="204.49991" y2="286.40874" gradientUnits="userSpaceOnUse" id="color-2"><stop offset="0" stop-color="#ff5454"/><stop offset="1" stop-color="#eb0000"/></linearGradient><radialGradient cx="246.31596" cy="232.75651" r="26.05927" gradientUnits="userSpaceOnUse" id="color-3"><stop offset="0" stop-color="#000000" stop-opacity="0.30588"/><stop offset="1" stop-color="#000000" stop-opacity="0"/></radialGradient><linearGradient x1="262.46254" y1="212.3023" x2="230.1694" y2="253.21067" gradientUnits="userSpaceOnUse" id="color-4"><stop offset="0" stop-color="#ff5454"/><stop offset="1" stop-color="#eb0000"/></linearGradient><radialGradient cx="262.8261" cy="191.71087" r="23.93565" gradientUnits="userSpaceOnUse" id="color-5"><stop offset="0" stop-color="#000000" stop-opacity="0.63137"/><stop offset="1" stop-color="#000000" stop-opacity="0"/></radialGradient><linearGradient x1="277.65686" y1="172.92352" x2="247.99533" y2="210.49824" gradientUnits="userSpaceOnUse" id="color-6"><stop offset="0" stop-color="#ff5454"/><stop offset="1" stop-color="#eb0000"/></linearGradient><linearGradient x1="264.06392" y1="175.90721" x2="281.09827" y2="189.35416" gradientUnits="userSpaceOnUse" id="color-7"><stop offset="0" stop-color="#eb0000"/><stop offset="1" stop-color="#ff5454"/></linearGradient><linearGradient x1="261.62663" y1="214.45443" x2="204.46696" y2="286.86334" gradientUnits="userSpaceOnUse" id="color-8"><stop offset="0" stop-color="#333333"/><stop offset="1" stop-color="#cacaca"/></linearGradient><linearGradient x1="211.45866" y1="297.82283" x2="273.5897" y2="219.11629" gradientUnits="userSpaceOnUse" id="color-9"><stop offset="0" stop-color="#ff4c4c"/><stop offset="1" stop-color="#ec0000"/></linearGradient><linearGradient x1="207.70496" y1="294.02849" x2="269.18766" y2="216.14327" gradientUnits="userSpaceOnUse" id="color-10"><stop offset="0" stop-color="#e8e8e8"/><stop offset="1" stop-color="#9e9e9e"/></linearGradient><linearGradient x1="253.64336" y1="206.16815" x2="277.22063" y2="176.30086" gradientUnits="userSpaceOnUse" id="color-11"><stop offset="0" stop-color="#000000"/><stop offset="1" stop-color="#929292"/></linearGradient><linearGradient x1="248.44193" y1="196.36895" x2="265.47631" y2="209.8159" gradientUnits="userSpaceOnUse" id="color-12"><stop offset="0" stop-color="#eb0000"/><stop offset="1" stop-color="#ff5454"/></linearGradient></defs><g transform="translate(-194.58617,-167.77429)"><g data-paper-data="{&quot;isPaintingLayer&quot;:true}" fill-rule="nonzero" stroke-linejoin="miter" stroke-miterlimit="10" stroke-dasharray="" stroke-dashoffset="0" style="mix-blend-mode: normal"><path d="M200.19231,249.80802c8.91749,-11.29653 25.30422,-13.22512 36.60076,-4.30762c11.29652,8.91748 13.22512,25.30422 4.30762,36.60075c-8.91749,11.29652 -25.30422,13.22512 -36.60075,4.30762c-11.29652,-8.91748 -13.22513,-25.30422 -4.30763,-36.60075z" fill="url(#color-1)" stroke="url(#color-2)" stroke-width="0" stroke-linecap="butt"/><path d="M225.8618,216.60995c8.91749,-11.29652 25.30422,-13.22512 36.60076,-4.30762c11.29652,8.91748 13.22512,25.30422 4.30762,36.60075c-8.91749,11.29652 -25.30422,13.22513 -36.60075,4.30763c-11.29652,-8.91748 -13.22513,-25.30422 -4.30763,-36.60076z" fill="url(#color-3)" stroke="url(#color-4)" stroke-width="0" stroke-linecap="butt"/><path d="M244.03877,176.88016c8.1908,-10.37596 23.24215,-12.14737 33.6181,-3.95659c10.37596,8.1908 12.1474,23.24214 3.9566,33.6181c-8.1908,10.37596 -23.24215,12.14737 -33.6181,3.95659c-10.37596,-8.1908 -12.1474,-23.24214 -3.9566,-33.6181z" fill="url(#color-5)" stroke="url(#color-6)" stroke-width="0" stroke-linecap="butt"/><path d="M264.06392,175.90721c3.71327,-4.7039 10.53675,-5.50697 15.24066,-1.79371c4.7039,3.71327 5.50697,10.53675 1.79371,15.24066c-3.71327,4.7039 -10.53675,5.50697 -15.24066,1.79371c-4.7039,-3.71327 -5.50697,-10.53675 -1.79371,-15.24066z" fill="url(#color-7)" stroke="#000000" stroke-width="0" stroke-linecap="butt"/><g><path d="M208.52347,290.06556l-5.04944,-6.94898l53.59452,-68.30966l8.6146,2.84977z" data-paper-data="{&quot;index&quot;:null}" fill="url(#color-8)" stroke="none" stroke-width="0" stroke-linecap="butt"/><path d="M270.85483,216.95739l3.08828,2.4379l0.5951,4.14295l-58.55823,74.18059l-4.1679,0.38302l-3.08828,-2.4379z" data-paper-data="{&quot;index&quot;:null}" fill="url(#color-9)" stroke="none" stroke-width="0" stroke-linecap="butt"/><path d="M267.66645,214.94243l3.04237,2.40165l-61.48269,77.88521l-3.04237,-2.40165z" data-paper-data="{&quot;index&quot;:null}" fill="url(#color-10)" stroke="none" stroke-width="0" stroke-linecap="butt"/><path d="M206.51616,279.26287c0,0 2.42208,-15.57968 18.73245,-36.24138c15.16307,-19.20832 29.14079,-24.40362 29.14079,-24.40362" data-paper-data="{&quot;index&quot;:null}" fill="none" stroke="#808080" stroke-width="2" stroke-linecap="round"/><path d="M244.16926,258.55447l-27.39416,34.70244" data-paper-data="{&quot;index&quot;:null}" fill="none" stroke-opacity="0.34902" stroke="#ffffff" stroke-width="4.5" stroke-linecap="round"/><path d="M235.89812,270.60333l-16.46106,20.85258" data-paper-data="{&quot;index&quot;:null}" fill="none" stroke-opacity="0.34902" stroke="#ffffff" stroke-width="2.5" stroke-linecap="round"/><path d="M254.53304,218.3604l-6.8528,-5.08012l31.72286,-40.16231c0,0 5.62069,4.62993 -0.19995,18.43444c-5.82064,13.80453 -18.29678,25.43337 -18.29678,25.43337" fill="none" stroke="#808080" stroke-width="2" stroke-linecap="round"/><path d="M256.74823,208.9077l-5.33597,-4.50078l20.73771,-32.10884c0,0 5.85287,-0.06716 7.40358,1.11019c1.97998,1.50324 3.50631,7.17287 3.50631,7.17287z" fill="url(#color-11)" stroke="none" stroke-width="0" stroke-linecap="butt"/></g><path d="M248.44193,196.36895c3.71325,-4.7039 10.53676,-5.50699 15.24066,-1.79372c4.7039,3.71327 5.50699,10.53676 1.7937,15.24067c-3.71325,4.7039 -10.53675,5.50697 -15.24067,1.79369c-4.7039,-3.71325 -5.50697,-10.53675 -1.79371,-15.24066z" fill="url(#color-12)" stroke="#000000" stroke-width="0" stroke-linecap="butt"/></g></g></svg>