<svg version="1.1" xmlns="http://www.w3.org/2000/svg" xmlns:xlink="http://www.w3.org/1999/xlink" width="536.19552" height="440.08804" viewBox="0,0,536.19552,440.08804"><defs><radialGradient cx="240" cy="155.5454" r="261" gradientUnits="userSpaceOnUse" id="color-1"><stop offset="0" stop-color="#360000"/><stop offset="1" stop-color="#ff2f2f"/></radialGradient><linearGradient x1="236.24627" y1="-6.60991" x2="236.24627" y2="120.19104" gradientUnits="userSpaceOnUse" id="color-2"><stop offset="0" stop-color="#ffffff" stop-opacity="0.67843"/><stop offset="1" stop-color="#ffffff" stop-opacity="0"/></linearGradient><linearGradient x1="-28.01801" y1="279.17317" x2="189.6997" y2="279.17317" gradientUnits="userSpaceOnUse" id="color-3"><stop offset="0" stop-color="#ffffff" stop-opacity="0.67843"/><stop offset="1" stop-color="#ffffff" stop-opacity="0"/></linearGradient><linearGradient x1="124.38439" y1="36.68068" x2="124.38439" y2="341.48548" gradientUnits="userSpaceOnUse" id="color-4"><stop offset="0" stop-color="#ffffff" stop-opacity="0.50196"/><stop offset="1" stop-color="#ffffff" stop-opacity="0"/></linearGradient><linearGradient x1="-28.01801" y1="76.47047" x2="189.6997" y2="76.47047" gradientUnits="userSpaceOnUse" id="color-5"><stop offset="0" stop-color="#ffffff" stop-opacity="0.67843"/><stop offset="1" stop-color="#ffffff" stop-opacity="0"/></linearGradient><linearGradient x1="124.38439" y1="-166.02202" x2="124.38439" y2="138.78278" gradientUnits="userSpaceOnUse" id="color-6"><stop offset="0" stop-color="#ffffff" stop-opacity="0.50196"/><stop offset="1" stop-color="#ffffff" stop-opacity="0"/></linearGradient><linearGradient x1="508.17751" y1="279.17317" x2="290.45979" y2="279.17317" gradientUnits="userSpaceOnUse" id="color-7"><stop offset="0" stop-color="#000000" stop-opacity="0.67843"/><stop offset="1" stop-color="#000000" stop-opacity="0"/></linearGradient><linearGradient x1="355.77511" y1="36.68068" x2="355.77511" y2="341.48548" gradientUnits="userSpaceOnUse" id="color-8"><stop offset="0" stop-color="#ffffff" stop-opacity="0.50196"/><stop offset="1" stop-color="#ffffff" stop-opacity="0"/></linearGradient><linearGradient x1="508.17751" y1="76.47047" x2="290.45979" y2="76.47047" gradientUnits="userSpaceOnUse" id="color-9"><stop offset="0" stop-color="#000000" stop-opacity="0.67843"/><stop offset="1" stop-color="#000000" stop-opacity="0"/></linearGradient><linearGradient x1="355.77511" y1="-166.02202" x2="355.77511" y2="138.78278" gradientUnits="userSpaceOnUse" id="color-10"><stop offset="0" stop-color="#ffffff" stop-opacity="0.50196"/><stop offset="1" stop-color="#ffffff" stop-opacity="0"/></linearGradient><linearGradient x1="508.17751" y1="180.07407" x2="290.4598" y2="180.07407" gradientUnits="userSpaceOnUse" id="color-11"><stop offset="0" stop-color="#ffffff" stop-opacity="0.67843"/><stop offset="1" stop-color="#ffffff" stop-opacity="0"/></linearGradient><linearGradient x1="355.77511" y1="-12.06229" x2="355.77511" y2="229.44658" gradientUnits="userSpaceOnUse" id="color-12"><stop offset="0" stop-color="#ffffff" stop-opacity="0.50196"/><stop offset="1" stop-color="#ffffff" stop-opacity="0"/></linearGradient><linearGradient x1="-28.01801" y1="180.07407" x2="189.69971" y2="180.07407" gradientUnits="userSpaceOnUse" id="color-13"><stop offset="0" stop-color="#000000" stop-opacity="0.67843"/><stop offset="1" stop-color="#000000" stop-opacity="0"/></linearGradient><linearGradient x1="124.38439" y1="-12.06229" x2="124.38439" y2="229.44658" gradientUnits="userSpaceOnUse" id="color-14"><stop offset="0" stop-color="#ffffff" stop-opacity="0.50196"/><stop offset="1" stop-color="#ffffff" stop-opacity="0"/></linearGradient><linearGradient x1="508.17751" y1="278.72547" x2="290.4598" y2="278.72547" gradientUnits="userSpaceOnUse" id="color-15"><stop offset="0" stop-color="#ffffff" stop-opacity="0.67843"/><stop offset="1" stop-color="#ffffff" stop-opacity="0"/></linearGradient><linearGradient x1="355.77511" y1="163.04099" x2="355.77511" y2="308.45245" gradientUnits="userSpaceOnUse" id="color-16"><stop offset="0" stop-color="#ffffff" stop-opacity="0.50196"/><stop offset="1" stop-color="#ffffff" stop-opacity="0"/></linearGradient><linearGradient x1="508.17751" y1="72.41366" x2="290.4598" y2="72.41366" gradientUnits="userSpaceOnUse" id="color-17"><stop offset="0" stop-color="#ffffff" stop-opacity="0.67843"/><stop offset="1" stop-color="#ffffff" stop-opacity="0"/></linearGradient><linearGradient x1="355.77511" y1="-43.27083" x2="355.77511" y2="102.14063" gradientUnits="userSpaceOnUse" id="color-18"><stop offset="0" stop-color="#ffffff" stop-opacity="0.50196"/><stop offset="1" stop-color="#ffffff" stop-opacity="0"/></linearGradient><linearGradient x1="-28.01801" y1="278.72547" x2="189.69971" y2="278.72547" gradientUnits="userSpaceOnUse" id="color-19"><stop offset="0" stop-color="#000000" stop-opacity="0.67843"/><stop offset="1" stop-color="#000000" stop-opacity="0"/></linearGradient><linearGradient x1="124.38439" y1="163.04099" x2="124.38439" y2="308.45245" gradientUnits="userSpaceOnUse" id="color-20"><stop offset="0" stop-color="#ffffff" stop-opacity="0.50196"/><stop offset="1" stop-color="#ffffff" stop-opacity="0"/></linearGradient><linearGradient x1="-28.01801" y1="72.41366" x2="189.69971" y2="72.41366" gradientUnits="userSpaceOnUse" id="color-21"><stop offset="0" stop-color="#000000" stop-opacity="0.67843"/><stop offset="1" stop-color="#000000" stop-opacity="0"/></linearGradient><linearGradient x1="124.38439" y1="-43.27083" x2="124.38439" y2="102.14063" gradientUnits="userSpaceOnUse" id="color-22"><stop offset="0" stop-color="#ffffff" stop-opacity="0.50196"/><stop offset="1" stop-color="#ffffff" stop-opacity="0"/></linearGradient><linearGradient x1="-28.01801" y1="178.89629" x2="189.6997" y2="178.89629" gradientUnits="userSpaceOnUse" id="color-23"><stop offset="0" stop-color="#ffffff" stop-opacity="0.67843"/><stop offset="1" stop-color="#ffffff" stop-opacity="0"/></linearGradient><linearGradient x1="124.38439" y1="87.23491" x2="124.38439" y2="202.45014" gradientUnits="userSpaceOnUse" id="color-24"><stop offset="0" stop-color="#ffffff" stop-opacity="0.50196"/><stop offset="1" stop-color="#ffffff" stop-opacity="0"/></linearGradient><linearGradient x1="508.17751" y1="178.89629" x2="290.45979" y2="178.89629" gradientUnits="userSpaceOnUse" id="color-25"><stop offset="0" stop-color="#000000" stop-opacity="0.67843"/><stop offset="1" stop-color="#000000" stop-opacity="0"/></linearGradient><linearGradient x1="355.77511" y1="87.23491" x2="355.77511" y2="202.45014" gradientUnits="userSpaceOnUse" id="color-26"><stop offset="0" stop-color="#ffffff" stop-opacity="0.50196"/><stop offset="1" stop-color="#ffffff" stop-opacity="0"/></linearGradient><linearGradient x1="57.67053" y1="139.2934" x2="324.44696" y2="323.87717" gradientUnits="userSpaceOnUse" id="color-27"><stop offset="0" stop-color="#ffffff" stop-opacity="0.23529"/><stop offset="1" stop-color="#ffffff" stop-opacity="0"/></linearGradient><linearGradient x1="434.46037" y1="139.2934" x2="167.68394" y2="323.87717" gradientUnits="userSpaceOnUse" id="color-28"><stop offset="0" stop-color="#ffffff" stop-opacity="0.23529"/><stop offset="1" stop-color="#ffffff" stop-opacity="0"/></linearGradient><linearGradient x1="26.17086" y1="164.55879" x2="276.26894" y2="363.987" gradientUnits="userSpaceOnUse" id="color-29"><stop offset="0" stop-color="#ffffff" stop-opacity="0.23529"/><stop offset="1" stop-color="#ffffff" stop-opacity="0"/></linearGradient><linearGradient x1="465.96003" y1="164.55879" x2="215.86195" y2="363.987" gradientUnits="userSpaceOnUse" id="color-30"><stop offset="0" stop-color="#ffffff" stop-opacity="0.23529"/><stop offset="1" stop-color="#ffffff" stop-opacity="0"/></linearGradient><linearGradient x1="434.46037" y1="181.53392" x2="167.68393" y2="-3.04985" gradientUnits="userSpaceOnUse" id="color-31"><stop offset="0" stop-color="#ffffff" stop-opacity="0.23529"/><stop offset="1" stop-color="#ffffff" stop-opacity="0"/></linearGradient><linearGradient x1="57.67053" y1="181.53392" x2="324.44696" y2="-3.04985" gradientUnits="userSpaceOnUse" id="color-32"><stop offset="0" stop-color="#ffffff" stop-opacity="0.23529"/><stop offset="1" stop-color="#ffffff" stop-opacity="0"/></linearGradient><linearGradient x1="465.96003" y1="156.26853" x2="215.86194" y2="-43.15967" gradientUnits="userSpaceOnUse" id="color-33"><stop offset="0" stop-color="#ffffff" stop-opacity="0.23529"/><stop offset="1" stop-color="#ffffff" stop-opacity="0"/></linearGradient><linearGradient x1="26.17087" y1="156.26853" x2="276.26896" y2="-43.15967" gradientUnits="userSpaceOnUse" id="color-34"><stop offset="0" stop-color="#ffffff" stop-opacity="0.23529"/><stop offset="1" stop-color="#ffffff" stop-opacity="0"/></linearGradient></defs><g transform="translate(28.01802,71.50148)"><g data-paper-data="{&quot;isPaintingLayer&quot;:true}" fill-rule="nonzero" stroke-width="0" stroke-linecap="butt" stroke-linejoin="miter" stroke-miterlimit="10" stroke-dasharray="" stroke-dashoffset="0" style="mix-blend-mode: normal"><path d="M-21,363.61402v-366.58768c0,0 167.26493,-49.54955 248.23724,-49.54955c91.6916,0 273.76276,49.54955 273.76276,49.54955v366.58768z" fill="url(#color-1)" stroke="none"/><path d="M-7.88383,357.88322l6.7491,-360.04345l86.63419,-54.35672c0,0 -44.19521,119.4218 5.35422,286.36938c20.90752,70.44399 131.97476,129.22963 131.97476,129.22963z" fill-opacity="0.21176" fill="#360000" stroke="none"/><path d="M248.16256,363.01101c0,0 97.83147,-14.1902 131.97476,-129.22963c49.54944,-166.94758 5.35422,-286.36938 5.35422,-286.36938l95.64319,54.35673l6.7491,360.04345z" data-paper-data="{&quot;index&quot;:null}" fill-opacity="0.21176" fill="#360000" stroke="none"/><path d="M-17.89885,367.38772l6.7491,-360.04345l52.09966,-54.35672c0,0 -50.20122,141.94432 -0.65179,308.8919c20.90753,70.44399 137.98077,106.70711 137.98077,106.70711z" fill-opacity="0.41961" fill="#360000" stroke="none"/><path d="M300.71511,367.58055c0,0 111.06723,-30.25711 131.97476,-100.7011c49.54943,-166.94758 5.35422,-314.89791 5.35422,-314.89791l52.09966,54.35672l6.7491,360.04345z" data-paper-data="{&quot;index&quot;:null}" fill-opacity="0.41961" fill="#360000" stroke="none"/><path d="M-11.50149,120.19104v-126.80093c0,0 163.16924,-64.89159 246.24624,-64.89159c82.07604,0 249.24926,64.89159 249.24926,64.89159v126.80095z" fill="url(#color-2)" stroke="none"/><path d="M-28.01801,341.48548v-124.62462l217.71772,64.56456z" fill="url(#color-3)" stroke="url(#color-4)"/><path d="M-28.01801,138.78278v-124.62462l217.71772,64.56456z" fill="url(#color-5)" stroke="url(#color-6)"/><path d="M290.45979,281.42542l217.71772,-64.56456v124.62462z" data-paper-data="{&quot;index&quot;:null}" fill="url(#color-7)" stroke="url(#color-8)"/><path d="M290.45979,78.72272l217.71772,-64.56456v124.62462z" data-paper-data="{&quot;index&quot;:null}" fill="url(#color-9)" stroke="url(#color-10)"/><path d="M290.45979,181.85862l217.71772,-51.15705v98.74501z" data-paper-data="{&quot;index&quot;:null}" fill="url(#color-11)" stroke="url(#color-12)"/><path d="M-28.01801,229.44658v-98.74501l217.71772,51.15705z" data-paper-data="{&quot;index&quot;:null}" fill="url(#color-13)" stroke="url(#color-14)"/><path d="M290.45979,279.79994l217.71772,-30.80144v59.45395z" data-paper-data="{&quot;index&quot;:null}" fill="url(#color-15)" stroke="url(#color-16)"/><path d="M290.45979,73.48813l217.71772,-30.80144v59.45395z" data-paper-data="{&quot;index&quot;:null}" fill="url(#color-17)" stroke="url(#color-18)"/><path d="M-28.01801,308.45245v-59.45395l217.71772,30.80144z" data-paper-data="{&quot;index&quot;:null}" fill="url(#color-19)" stroke="url(#color-20)"/><path d="M-28.01801,102.14063v-59.45395l217.71772,30.80144z" data-paper-data="{&quot;index&quot;:null}" fill="url(#color-21)" stroke="url(#color-22)"/><path d="M-28.01801,202.45014v-47.10771l217.71772,24.4052z" data-paper-data="{&quot;index&quot;:null}" fill="url(#color-23)" stroke="url(#color-24)"/><path d="M290.45979,179.74763l217.71772,-24.4052v47.10771z" data-paper-data="{&quot;index&quot;:null}" fill="url(#color-25)" stroke="url(#color-26)"/><g stroke="none"><path d="M308.53623,339.78188l-266.77644,-184.58376l31.82147,-31.80943l249.64031,204.57734z" fill="url(#color-27)"/><path d="M168.90932,327.96603l249.64032,-204.57733l31.82147,31.80943l-266.77644,184.58377z" data-paper-data="{&quot;index&quot;:null}" fill="url(#color-28)"/><path d="M270.86473,368.21317l-250.09807,-199.4282l13.37885,-11.45138z" fill="url(#color-29)"/><path d="M457.98539,157.33358l13.37885,11.45138l-250.09807,199.42821z" data-paper-data="{&quot;index&quot;:null}" fill="url(#color-30)"/><path d="M183.59467,-18.95456l266.77644,184.58378l-31.82147,31.80943l-250.49712,-203.57766z" data-paper-data="{&quot;index&quot;:null}" fill="url(#color-31)"/><path d="M324.07838,-6.13902l-250.49711,203.57766l-31.82147,-31.80943l266.77644,-184.58377z" data-paper-data="{&quot;index&quot;:null}" fill="url(#color-32)"/><path d="M221.26617,-47.38584l250.09808,199.42821l-13.37885,11.45139z" data-paper-data="{&quot;index&quot;:null}" fill="url(#color-33)"/><path d="M34.14551,163.49375l-13.37885,-11.45139l250.09807,-199.4282z" data-paper-data="{&quot;index&quot;:null}" fill="url(#color-34)"/></g></g></g></svg>