<svg version="1.1" xmlns="http://www.w3.org/2000/svg" xmlns:xlink="http://www.w3.org/1999/xlink" width="37.6" height="43.6" viewBox="0,0,37.6,43.6"><g transform="translate(-221.20002,-158.2)"><g data-paper-data="{&quot;isPaintingLayer&quot;:true}" fill-rule="nonzero" stroke="none" stroke-linecap="butt" stroke-linejoin="miter" stroke-miterlimit="10" stroke-dasharray="" stroke-dashoffset="0" style="mix-blend-mode: normal"><path d="M221.20003,201.8v-43.6h37.6v43.6z" fill="none" stroke-width="0"/><path d="M228.2771,192.07875v-24.07618c0,-0.86761 0.29146,-1.59288 0.87438,-2.1758c0.59648,-0.59648 1.34886,-0.89472 2.25714,-0.89472c0.90828,0 1.65388,0.27791 2.23679,0.83372c0.58294,0.54226 0.8744,1.28786 0.8744,2.23681v8.9879l10.24864,-10.89935c0.70493,-0.77272 1.51154,-1.15907 2.41982,-1.15907c0.82693,0 1.54542,0.27791 2.15547,0.83372c0.62359,0.55581 0.93539,1.2743 0.93539,2.15547c0,0.51514 -0.16267,1.02351 -0.48801,1.5251c-0.32536,0.48803 -0.84729,1.09129 -1.56578,1.80978l-7.86948,7.74749l9.61827,10.02496c1.16586,1.16585 1.74878,2.22325 1.74878,3.1722c0,0.90828 -0.3118,1.61321 -0.93539,2.1148c-0.62361,0.50158 -1.39632,0.75237 -2.31815,0.75237c-0.54226,0 -1.03707,-0.14912 -1.48443,-0.44735c-0.43381,-0.29824 -0.98962,-0.79983 -1.66743,-1.50477l-10.79768,-11.65173v10.61467c0,0.8405 -0.29824,1.55221 -0.89472,2.13513c-0.58294,0.56936 -1.32176,0.85405 -2.21648,0.85405c-0.90828,0 -1.66066,-0.27113 -2.25714,-0.81338c-0.58292,-0.55581 -0.87438,-1.28108 -0.87438,-2.1758z" fill="#ff0000" stroke-width="0.40889"/></g></g></svg>