<svg version="1.1" xmlns="http://www.w3.org/2000/svg" xmlns:xlink="http://www.w3.org/1999/xlink" width="311.45508" height="296.72291" viewBox="0,0,311.45508,296.72291"><defs><radialGradient cx="76.22584" cy="-64.71903" r="17.97199" gradientUnits="userSpaceOnUse" id="color-1"><stop offset="0" stop-color="#000000" stop-opacity="0.30196"/><stop offset="1" stop-color="#000000" stop-opacity="0"/></radialGradient><radialGradient cx="-51.63757" cy="58.92827" r="23.72303" gradientUnits="userSpaceOnUse" id="color-2"><stop offset="0" stop-color="#000000" stop-opacity="0.30196"/><stop offset="1" stop-color="#000000" stop-opacity="0"/></radialGradient><radialGradient cx="-51.63757" cy="139.4428" r="23.72303" gradientUnits="userSpaceOnUse" id="color-3"><stop offset="0" stop-color="#000000" stop-opacity="0.30196"/><stop offset="1" stop-color="#000000" stop-opacity="0"/></radialGradient><linearGradient x1="-2.8063" y1="163.4192" x2="236.09448" y2="163.4192" gradientUnits="userSpaceOnUse" id="color-4"><stop offset="0" stop-color="#000000"/><stop offset="1" stop-color="#000000" stop-opacity="0.64706"/></linearGradient></defs><g transform="translate(75.3606,82.69102)"><g data-paper-data="{&quot;isPaintingLayer&quot;:true}" fill-rule="nonzero" stroke-linejoin="miter" stroke-miterlimit="10" stroke-dasharray="" stroke-dashoffset="0" style="mix-blend-mode: normal"><path d="M58.25385,-64.71903c0,-9.92566 8.04633,-17.97199 17.97199,-17.97199c9.92566,0 17.97199,8.04633 17.97199,17.97199c0,9.92566 -8.04633,17.97199 -17.97199,17.97199c-9.92566,0 -17.97199,-8.04633 -17.97199,-17.97199z" fill="url(#color-1)" stroke="none" stroke-width="0" stroke-linecap="butt"/><path d="M-75.3606,58.92827c0,-13.10187 10.62116,-23.72303 23.72303,-23.72303c13.10187,0 23.72303,10.62116 23.72303,23.72303c0,13.10187 -10.62116,23.72303 -23.72303,23.72303c-13.10187,0 -23.72303,-10.62116 -23.72303,-23.72303z" fill="url(#color-2)" stroke="none" stroke-width="0" stroke-linecap="butt"/><path d="M-75.3606,139.4428c0,-13.10187 10.62116,-23.72303 23.72303,-23.72303c13.10187,0 23.72303,10.62116 23.72303,23.72303c0,13.10187 -10.62116,23.72303 -23.72303,23.72303c-13.10187,0 -23.72303,-10.62116 -23.72303,-23.72303z" fill="url(#color-3)" stroke="none" stroke-width="0" stroke-linecap="butt"/><path d="M-0.43436,211.66273c-2.66144,-2.62498 -2.36183,-7.87277 -2.36183,-7.87277v-81.77746c0,0 0.03701,-4.60457 2.62425,-7.08549c2.58725,-2.48092 6.95427,-2.09941 6.95427,-2.09941h192.79281c0,0 3.31291,-0.26945 5.96755,2.0994c2.65464,2.36885 3.14911,6.03579 3.14911,6.03579l0.49644,64.86835l26.90624,-13.91259l-27.0825,42.106h-201.44235c0,0 -5.34255,0.26316 -8.00399,-2.36182z" fill="url(#color-4)" stroke="none" stroke-width="0" stroke-linecap="butt"/><text transform="translate(2.40078,129.22567) scale(0.37525,0.37525)" font-size="40" xml:space="preserve" fill="#ffffff" fill-rule="nonzero" stroke="none" stroke-width="1" stroke-linecap="butt" stroke-linejoin="miter" stroke-miterlimit="10" stroke-dasharray="" stroke-dashoffset="0" font-family="Sans Serif" font-weight="normal" text-anchor="start" style="mix-blend-mode: normal"><tspan x="0" dy="0">There are a LOT of skins...</tspan><tspan x="0" dy="48px"> </tspan><tspan x="0" dy="48px">And a bunch of cool items</tspan><tspan x="0" dy="48px">and specials! You can read</tspan><tspan x="0" dy="48px">how to use them on the left.</tspan></text><text transform="translate(2.40078,201.49851) scale(0.37525,0.37525)" font-size="40" xml:space="preserve" fill="#00fff5" fill-rule="nonzero" stroke="none" stroke-width="1" stroke-linecap="butt" stroke-linejoin="miter" stroke-miterlimit="10" stroke-dasharray="" stroke-dashoffset="0" font-family="Sans Serif" font-weight="normal" text-anchor="start" style="mix-blend-mode: normal"><tspan x="0" dy="0">how to use them</tspan></text><g fill="none" stroke="#ffffff" stroke-width="6" stroke-linecap="round"><g data-paper-data="{&quot;index&quot;:null}"><path d="M-66.49442,139.69203l14.61722,-12.38775"/><path d="M-66.49442,139.69203l14.61722,12.38775" data-paper-data="{&quot;index&quot;:null}"/><path d="M-66.49442,139.69203h44.09129"/></g><g data-paper-data="{&quot;index&quot;:null}"><path d="M-66.49442,58.67905l14.61722,-12.38775"/><path d="M-66.49442,58.67906l14.61722,12.38775" data-paper-data="{&quot;index&quot;:null}"/><path d="M-66.49442,58.67905h44.09129"/></g></g><g data-paper-data="{&quot;index&quot;:null}" fill="none" stroke="#ffffff" stroke-width="5" stroke-linecap="round"><path d="M75.4796,-74.46378l11.395,9.65699"/><path d="M86.8746,-64.80679l-11.395,9.65699" data-paper-data="{&quot;index&quot;:null}"/><path d="M52.50281,-64.80679h34.37179"/></g></g></g></svg>