<svg version="1.1" xmlns="http://www.w3.org/2000/svg" xmlns:xlink="http://www.w3.org/1999/xlink" width="177.72943" height="180.90485" viewBox="0,0,177.72943,180.90485"><defs><radialGradient cx="383.12027" cy="147.79743" r="26.05926" gradientUnits="userSpaceOnUse" id="color-1"><stop offset="0" stop-color="#000000" stop-opacity="0.30588"/><stop offset="1" stop-color="#000000" stop-opacity="0"/></radialGradient><linearGradient x1="357.67032" y1="153.3998" x2="408.5702" y2="142.19507" gradientUnits="userSpaceOnUse" id="color-2"><stop offset="0" stop-color="#ff5454"/><stop offset="1" stop-color="#eb0000"/></linearGradient><radialGradient cx="342.22956" cy="157.23049" r="26.05927" gradientUnits="userSpaceOnUse" id="color-3"><stop offset="0" stop-color="#000000" stop-opacity="0.30588"/><stop offset="1" stop-color="#000000" stop-opacity="0"/></radialGradient><linearGradient x1="316.7796" y1="162.83285" x2="367.67947" y2="151.62812" gradientUnits="userSpaceOnUse" id="color-4"><stop offset="0" stop-color="#ff5454"/><stop offset="1" stop-color="#eb0000"/></linearGradient><radialGradient cx="303.45668" cy="178.53758" r="23.93565" gradientUnits="userSpaceOnUse" id="color-5"><stop offset="0" stop-color="#000000" stop-opacity="0.63137"/><stop offset="1" stop-color="#000000" stop-opacity="0"/></radialGradient><linearGradient x1="280.08069" y1="183.6834" x2="326.83268" y2="173.39176" gradientUnits="userSpaceOnUse" id="color-6"><stop offset="0" stop-color="#ff5454"/><stop offset="1" stop-color="#eb0000"/></linearGradient><linearGradient x1="292.48953" y1="189.98352" x2="287.82385" y2="168.78868" gradientUnits="userSpaceOnUse" id="color-7"><stop offset="0" stop-color="#eb0000"/><stop offset="1" stop-color="#ff5454"/></linearGradient><linearGradient x1="318.78953" y1="161.69682" x2="408.88362" y2="141.86415" gradientUnits="userSpaceOnUse" id="color-8"><stop offset="0" stop-color="#333333"/><stop offset="1" stop-color="#cacaca"/></linearGradient><linearGradient x1="410.41417" y1="128.95478" x2="312.48433" y2="150.51235" gradientUnits="userSpaceOnUse" id="color-9"><stop offset="0" stop-color="#ff4c4c"/><stop offset="1" stop-color="#ec0000"/></linearGradient><linearGradient x1="410.91588" y1="134.26849" x2="314.00794" y2="155.60112" gradientUnits="userSpaceOnUse" id="color-10"><stop offset="0" stop-color="#e8e8e8"/><stop offset="1" stop-color="#9e9e9e"/></linearGradient><linearGradient x1="373.61821" y1="164.47573" x2="357.71925" y2="167.97561" gradientUnits="userSpaceOnUse" id="color-11"><stop offset="0" stop-color="#929292"/><stop offset="1" stop-color="#000000"/></linearGradient><linearGradient x1="319.71939" y1="173.16549" x2="282.55731" y2="181.3461" gradientUnits="userSpaceOnUse" id="color-12"><stop offset="0" stop-color="#929292"/><stop offset="1" stop-color="#000000"/></linearGradient><linearGradient x1="317.53828" y1="184.04307" x2="312.87259" y2="162.84822" gradientUnits="userSpaceOnUse" id="color-13"><stop offset="0" stop-color="#eb0000"/><stop offset="1" stop-color="#ff5454"/></linearGradient><linearGradient x1="319.03153" y1="135.75802" x2="319.03153" y2="302.63745" gradientUnits="userSpaceOnUse" id="color-14"><stop offset="0" stop-color="#ff0000" stop-opacity="0.28235"/><stop offset="1" stop-color="#ffffff"/></linearGradient></defs><g transform="translate(-233.60308,-121.7326)"><g data-paper-data="{&quot;isPaintingLayer&quot;:true}" fill-rule="nonzero" stroke-linejoin="miter" stroke-miterlimit="10" stroke-dasharray="" stroke-dashoffset="0" style="mix-blend-mode: normal"><path d="M388.72263,173.24733c-14.0556,3.09409 -27.95818,-5.79197 -31.0523,-19.84757c-3.0941,-14.05558 5.79197,-27.95818 19.84757,-31.05229c14.05559,-3.0941 27.95818,5.79197 31.05229,19.84757c3.0941,14.05558 -5.79197,27.95819 -19.84756,31.0523z" fill="url(#color-1)" stroke="url(#color-2)" stroke-width="0" stroke-linecap="butt"/><path d="M347.83191,182.68039c-14.05559,3.0941 -27.95818,-5.79197 -31.0523,-19.84757c-3.0941,-14.05558 5.79197,-27.95818 19.84757,-31.05229c14.05559,-3.0941 27.95819,5.79197 31.0523,19.84756c3.0941,14.05558 -5.79197,27.95819 -19.84757,31.05231z" fill="url(#color-3)" stroke="url(#color-4)" stroke-width="0" stroke-linecap="butt"/><path d="M308.60252,201.91353c-12.91019,2.84196 -25.67984,-5.31997 -28.52179,-18.23016c-2.84195,-12.91018 5.31996,-25.67985 18.23014,-28.5218c12.91019,-2.84196 25.67984,5.31997 28.52179,18.23016c2.84195,12.91018 -5.31996,25.67985 -18.23014,28.5218z" fill="url(#color-5)" stroke="url(#color-6)" stroke-width="0" stroke-linecap="butt"/><path d="M292.48953,189.98352c-5.85279,1.2884 -11.64186,-2.41179 -12.93026,-8.26459c-1.2884,-5.85279 2.41179,-11.64186 8.26459,-12.93026c5.85279,-1.2884 11.64186,2.41179 12.93026,8.26459c1.2884,5.85279 -2.41179,11.64186 -8.26459,12.93026z" fill="url(#color-7)" stroke="#000000" stroke-width="0" stroke-linecap="butt"/><g><path d="M407.77255,136.81686l-0.49355,8.57564l-84.73888,18.91841l-4.86164,-7.66139z" data-paper-data="{&quot;index&quot;:null}" fill="url(#color-8)" stroke="none" stroke-width="0" stroke-linecap="butt"/><path d="M313.2334,153.9152l-0.84587,-3.84256l2.16341,-3.58299l92.29846,-20.31792l3.46798,2.34332l0.84587,3.84256z" data-paper-data="{&quot;index&quot;:null}" fill="url(#color-9)" stroke="none" stroke-width="0" stroke-linecap="butt"/><path d="M314.42458,157.49385l-0.8333,-3.78545l96.90793,-21.33261l0.8333,3.78545z" data-paper-data="{&quot;index&quot;:null}" fill="url(#color-10)" stroke="none" stroke-width="0" stroke-linecap="butt"/><path d="M402.48406,146.44802c0,0 -11.74177,10.52255 -37.44988,16.18175c-23.89977,5.26111 -38.0071,0.42881 -38.0071,0.42881" data-paper-data="{&quot;index&quot;:null}" fill="none" stroke-opacity="0.53333" stroke="#000000" stroke-width="2" stroke-linecap="round"/><path d="M346.97981,164.75199l16.33221,-9.94549l18.54962,2.53145" data-paper-data="{&quot;index&quot;:null}" fill="none" stroke-opacity="0.53333" stroke="#000000" stroke-width="2" stroke-linecap="round"/><path d="M403.40814,129.12101l-43.17818,9.50493" data-paper-data="{&quot;index&quot;:null}" fill="none" stroke-opacity="0.34902" stroke="#ffffff" stroke-width="4.5" stroke-linecap="round"/><path d="M400.20745,128.82879l-25.94562,5.71148" data-paper-data="{&quot;index&quot;:null}" fill="none" stroke-opacity="0.34902" stroke="#ffffff" stroke-width="2.5" stroke-linecap="round"/><path d="M372.84045,160.94263l-1.91731,5.71393l-10.09458,2.22215l-3.88708,-4.43619z" fill="url(#color-11)" stroke="none" stroke-width="0" stroke-linecap="butt"/><path d="M365.6235,167.82317c0,0 -2.98232,4.26121 -13.19766,6.1965c-11.07128,2.09745 -15.2102,-4.42282 -15.2102,-4.42282l-10.46279,-6.42999l2.08566,8.27156l-49.98601,10.98855c0,0 -1.41729,-7.14281 11.83019,-14.13915c13.24749,-6.99635 30.26747,-8.09374 30.26747,-8.09374" fill="none" stroke-opacity="0.51765" stroke="#000000" stroke-width="2" stroke-linecap="round"/><path d="M319.05173,169.07898l1.27875,6.86254l-36.38433,11.71369c0,0 -4.57186,-3.65493 -5.02624,-5.5482c-0.58015,-2.41732 1.82953,-7.77156 1.82953,-7.77156z" fill="url(#color-12)" stroke="none" stroke-width="0" stroke-linecap="butt"/></g><path d="M317.53828,184.04307c-5.85278,1.28841 -11.64187,-2.41179 -12.93027,-8.26458c-1.2884,-5.85279 2.41179,-11.64187 8.26459,-12.93027c5.85278,-1.28841 11.64186,2.41179 12.93026,8.2646c1.28841,5.85278 -2.41179,11.64186 -8.26459,12.93026z" fill="url(#color-13)" stroke="#000000" stroke-width="0" stroke-linecap="butt"/><path d="M398.00322,135.75802c0,0 21.34955,72.33474 -13.59492,120.28565c-38.27595,52.52239 -101.4165,48.11602 -115.60168,44.81429c-11.61254,-2.70292 -28.08996,-7.74539 -35.16812,-17.91006c-1.04152,-1.49568 21.16784,-1.5237 29.38924,-2.75312c10.07846,-1.50712 17.49839,-4.56551 17.49839,-4.56551c0,0 -8.79127,-2.43012 -12.07212,-4.62127c-2.81213,-1.87811 -6.42448,-7.73184 -6.42448,-7.73184l18.43376,-5.37383l-7.27686,-3.77579c0,0 19.92937,-3.82858 34.84376,-27.0313c14.91441,-23.20272 8.5913,-45.96865 10.71895,-53.50429c2.51036,-8.89108 8.23907,21.8343 8.23907,21.8343c0,0 3.76357,-2.62097 8.77055,-12.72094c4.68176,-9.44394 6.51709,-16.69645 6.51709,-16.69645l12.94564,24.07908c0,0 7.17106,-20.42553 16.44224,-35.03305c3.80019,-5.98753 19.72504,6.17683 19.72504,6.17683l6.61443,-25.47269z" data-paper-data="{&quot;index&quot;:null}" fill="url(#color-14)" stroke="none" stroke-width="0" stroke-linecap="butt"/></g></g></svg>