<svg version="1.1" xmlns="http://www.w3.org/2000/svg" xmlns:xlink="http://www.w3.org/1999/xlink" width="646.74947" height="396" viewBox="0,0,646.74947,396"><defs><linearGradient x1="240" y1="-18" x2="240" y2="378" gradientUnits="userSpaceOnUse" id="color-1"><stop offset="0" stop-color="#d75a5a"/><stop offset="1" stop-color="#360000"/></linearGradient><linearGradient x1="-83.37471" y1="180.00003" x2="53.37474" y2="180.00003" gradientUnits="userSpaceOnUse" id="color-2"><stop offset="0" stop-color="#ff0000" stop-opacity="0.74902"/><stop offset="1" stop-color="#00b3ff" stop-opacity="0.74902"/></linearGradient><linearGradient x1="426.6253" y1="180.00001" x2="563.37474" y2="180.00001" gradientUnits="userSpaceOnUse" id="color-3"><stop offset="0" stop-color="#ff0000" stop-opacity="0.74902"/><stop offset="1" stop-color="#00b3ff" stop-opacity="0.74902"/></linearGradient><linearGradient x1="112.70835" y1="164" x2="369.29169" y2="164" gradientUnits="userSpaceOnUse" id="color-4"><stop offset="0" stop-color="#ff0000" stop-opacity="0.74902"/><stop offset="1" stop-color="#00b3ff" stop-opacity="0.74902"/></linearGradient><radialGradient cx="68.61535" cy="294.05296" r="8.06628" gradientUnits="userSpaceOnUse" id="color-5"><stop offset="0" stop-color="#000000" stop-opacity="0.63137"/><stop offset="1" stop-color="#000000" stop-opacity="0"/></radialGradient><linearGradient x1="62.91164" y1="288.34927" x2="74.31906" y2="299.75667" gradientUnits="userSpaceOnUse" id="color-6"><stop offset="0" stop-color="#ff5454"/><stop offset="1" stop-color="#eb0000"/></linearGradient><radialGradient cx="57.72633" cy="307.55746" r="14.21365" gradientUnits="userSpaceOnUse" id="color-7"><stop offset="0" stop-color="#000000" stop-opacity="0.63137"/><stop offset="1" stop-color="#000000" stop-opacity="0"/></radialGradient><linearGradient x1="47.67575" y1="297.50685" x2="67.77684" y2="317.60803" gradientUnits="userSpaceOnUse" id="color-8"><stop offset="0" stop-color="#ff5454"/><stop offset="1" stop-color="#eb0000"/></linearGradient><radialGradient cx="45.76934" cy="312.22677" r="13.90958" gradientUnits="userSpaceOnUse" id="color-9"><stop offset="0" stop-color="#000000" stop-opacity="0.63137"/><stop offset="1" stop-color="#000000" stop-opacity="0"/></radialGradient><linearGradient x1="35.93377" y1="302.39126" x2="55.60489" y2="322.06235" gradientUnits="userSpaceOnUse" id="color-10"><stop offset="0" stop-color="#ff5454"/><stop offset="1" stop-color="#eb0000"/></linearGradient><linearGradient x1="37.28014" y1="316.68363" x2="47.77276" y2="306.19115" gradientUnits="userSpaceOnUse" id="color-11"><stop offset="0" stop-color="#eb0000"/><stop offset="1" stop-color="#ff5454"/></linearGradient><linearGradient x1="67.22795" y1="288.69193" x2="73.99662" y2="295.46054" gradientUnits="userSpaceOnUse" id="color-12"><stop offset="0" stop-color="#ff5454"/><stop offset="1" stop-color="#eb0000"/></linearGradient><linearGradient x1="62.38639" y1="295.92503" x2="66.64096" y2="300.17967" gradientUnits="userSpaceOnUse" id="color-13"><stop offset="0" stop-color="#ffffff"/><stop offset="1" stop-color="#b3b3b3"/></linearGradient><linearGradient x1="52.00589" y1="302.61262" x2="59.98324" y2="310.58997" gradientUnits="userSpaceOnUse" id="color-14"><stop offset="0" stop-color="#ffffff"/><stop offset="1" stop-color="#808080"/></linearGradient><linearGradient x1="55.48423" y1="298.19417" x2="64.24051" y2="306.95053" gradientUnits="userSpaceOnUse" id="color-15"><stop offset="0" stop-color="#ff5454"/><stop offset="1" stop-color="#eb0000"/></linearGradient><linearGradient x1="50.26" y1="312.17467" x2="53.88607" y2="308.54859" gradientUnits="userSpaceOnUse" id="color-16"><stop offset="0" stop-color="#929292"/><stop offset="1" stop-color="#ffffff"/></linearGradient><linearGradient x1="54.75873" y1="316.22105" x2="65.25128" y2="305.72848" gradientUnits="userSpaceOnUse" id="color-17"><stop offset="0" stop-color="#eb0000"/><stop offset="1" stop-color="#ff5454"/></linearGradient><radialGradient cx="33.07288" cy="328.93962" r="22.42584" gradientUnits="userSpaceOnUse" id="color-18"><stop offset="0" stop-color="#000000"/><stop offset="1" stop-color="#000000" stop-opacity="0"/></radialGradient><linearGradient x1="21.50065" y1="340.5119" x2="44.64505" y2="317.36744" gradientUnits="userSpaceOnUse" id="color-19"><stop offset="0" stop-color="#eb0000"/><stop offset="1" stop-color="#ff7979"/></linearGradient><linearGradient x1="44.94153" y1="340.25012" x2="39.0369" y2="334.34555" gradientUnits="userSpaceOnUse" id="color-20"><stop offset="0" stop-color="#ffffff" stop-opacity="0.59677"/><stop offset="1" stop-color="#ffffff" stop-opacity="0"/></linearGradient><linearGradient x1="34.42439" y1="327.35893" x2="41.31647" y2="320.46682" gradientUnits="userSpaceOnUse" id="color-21"><stop offset="0" stop-color="#000000"/><stop offset="1" stop-color="#cc0000"/></linearGradient><linearGradient x1="26.84526" y1="313.66517" x2="48.1182" y2="334.93818" gradientUnits="userSpaceOnUse" id="color-22"><stop offset="0" stop-color="#ff5454"/><stop offset="1" stop-color="#eb0000"/></linearGradient><linearGradient x1="39.89858" y1="332.74451" x2="46.80243" y2="325.84075" gradientUnits="userSpaceOnUse" id="color-23"><stop offset="0" stop-color="#ffffff"/><stop offset="1" stop-color="#ffffff" stop-opacity="0"/></linearGradient><linearGradient x1="28.75665" y1="321.707" x2="35.6604" y2="314.80323" gradientUnits="userSpaceOnUse" id="color-24"><stop offset="0" stop-color="#ffffff"/><stop offset="1" stop-color="#ffffff" stop-opacity="0"/></linearGradient><linearGradient x1="106.70835" y1="158.00007" x2="363.29169" y2="158.00007" gradientUnits="userSpaceOnUse" id="color-25"><stop offset="0" stop-color="#ff4d4d"/><stop offset="1" stop-color="#4dc9ff"/></linearGradient></defs><g transform="translate(83.37473,18)"><g data-paper-data="{&quot;isPaintingLayer&quot;:true}" fill-rule="nonzero" stroke-linejoin="miter" stroke-miterlimit="10" stroke-dasharray="" stroke-dashoffset="0" style="mix-blend-mode: normal"><path d="M-21,378v-396h522v396z" fill="url(#color-1)" stroke="none" stroke-width="0" stroke-linecap="butt"/><path d="M8.24962,47.3019c-2.13297,-2.13276 -2.37433,-5.20542 -2.37433,-5.20542v-29.20667c0,0 0.27811,-3.18659 2.41142,-5.32081c2.13331,-2.13422 5.31751,-2.41142 5.31751,-2.41142h44.12197c0,0 2.95226,0.14003 5.09492,2.26303c2.14266,2.12301 2.63402,5.39501 2.63402,5.39501v29.3736c0,0 -0.38308,3.18714 -2.52273,5.26108c-2.13965,2.07394 -5.3546,2.37433 -5.3546,2.37433h-43.97357c0,0 -3.22164,-0.38998 -5.35461,-2.52273z" fill-opacity="0.74902" fill="#000000" stroke="none" stroke-width="0" stroke-linecap="butt"/><path d="M406.57277,33.66357c-1.68691,-1.68674 -1.87779,-4.11684 -1.87779,-4.11684v-18.27394c0,0 0.21995,-2.52019 1.90713,-4.20809c1.68718,-1.6879 4.20548,-1.90713 4.20548,-1.90713h58.00411c0,0 2.33486,0.11074 4.02943,1.78977c1.69457,1.67903 2.08319,4.26677 2.08319,4.26677v18.40596c0,0 -0.30298,2.52062 -1.99517,4.16085c-1.69219,1.64023 -4.23481,1.8778 -4.23481,1.8778h-57.88675c0,0 -2.54791,-0.30842 -4.23482,-1.99516z" fill-opacity="0.74902" fill="#00ff2f" stroke="none" stroke-width="0" stroke-linecap="butt"/><path d="M406.57277,68.66357c-1.68691,-1.68674 -1.87779,-4.11684 -1.87779,-4.11684v-18.27394c0,0 0.21995,-2.52019 1.90713,-4.20809c1.68718,-1.6879 4.20548,-1.90713 4.20548,-1.90713h58.00411c0,0 2.33486,0.11074 4.02943,1.78977c1.69457,1.67903 2.08319,4.26677 2.08319,4.26677v18.40596c0,0 -0.30298,2.52063 -1.99517,4.16085c-1.69219,1.64023 -4.23481,1.8778 -4.23481,1.8778h-57.88675c0,0 -2.54791,-0.30842 -4.23482,-1.99516z" fill-opacity="0.74902" fill="#00ff2f" stroke="none" stroke-width="0" stroke-linecap="butt"/><path d="M406.57277,103.66357c-1.68691,-1.68674 -1.87779,-4.11684 -1.87779,-4.11684v-18.27394c0,0 0.21995,-2.52019 1.90713,-4.20809c1.68718,-1.6879 4.20548,-1.90713 4.20548,-1.90713h58.00411c0,0 2.33486,0.11075 4.02943,1.78977c1.69457,1.67903 2.08319,4.26677 2.08319,4.26677v18.40596c0,0 -0.30298,2.52063 -1.99517,4.16086c-1.69219,1.64023 -4.23481,1.8778 -4.23481,1.8778h-57.88675c0,0 -2.54791,-0.30842 -4.23482,-1.99516z" fill-opacity="0.74902" fill="#00ff2f" stroke="none" stroke-width="0" stroke-linecap="butt"/><path d="M145.00043,315.50378c-3.25662,-3.2563 -3.62514,-7.94767 -3.62514,-7.94767v-44.59291c0,0 0.42463,-4.8653 3.68178,-8.12385c3.25716,-3.25855 8.1188,-3.68178 8.1188,-3.68178h173.47867c0,0 4.50752,0.2138 7.77895,3.45521c3.27143,3.24142 4.02164,8.23712 4.02164,8.23712v44.84778c0,0 -0.58488,4.86616 -3.85171,8.03266c-3.26682,3.1665 -8.17544,3.62514 -8.17544,3.62514h-173.2521c0,0 -4.91882,-0.59542 -8.17545,-3.85171z" fill-opacity="0.74902" fill="#000000" stroke="none" stroke-width="0" stroke-linecap="butt"/><path d="M398.28449,352.92073c-3.96098,-3.96058 -4.40919,-9.66661 -4.40919,-9.66661v-54.23757c0,0 0.51647,-5.91757 4.47809,-9.88089c3.96162,-3.96332 9.87475,-4.47809 9.87475,-4.47809h54.40269c0,0 5.48241,0.26004 9.46139,4.20252c3.97898,3.94248 4.89144,10.01866 4.89144,10.01866v54.54757c0,0 -0.71139,5.91862 -4.68476,9.76998c-3.97338,3.85136 -9.94365,4.40919 -9.94365,4.40919h-54.12711c0,0 -5.98267,-0.7242 -9.94365,-4.68477z" fill-opacity="0.74902" fill="#000000" stroke="none" stroke-width="0" stroke-linecap="butt"/><path d="M7.03449,352.92073c-3.96098,-3.96057 -4.40919,-9.66661 -4.40919,-9.66661v-54.23757c0,0 0.51647,-5.91757 4.47808,-9.88089c3.96162,-3.96331 9.87475,-4.47808 9.87475,-4.47808h54.40269c0,0 5.48241,0.26004 9.4614,4.20251c3.97898,3.94248 4.89144,10.01867 4.89144,10.01867v54.54756c0,0 -0.71138,5.91862 -4.68476,9.76998c-3.97338,3.85136 -9.94365,4.40919 -9.94365,4.40919h-54.12711c0,0 -5.98267,-0.7242 -9.94365,-4.68477z" fill-opacity="0.74902" fill="#ff0000" stroke="none" stroke-width="0" stroke-linecap="butt"/><path d="M-79.11101,215.57531c-3.83028,-3.82989 -4.26371,-9.34764 -4.26371,-9.34764v-52.44793c0,0 0.49943,-5.72232 4.33033,-9.55486c3.8309,-3.83254 9.54892,-4.33033 9.54892,-4.33033h108.99095c0,0 5.30151,0.25146 9.1492,4.06385c3.84769,3.8124 4.73005,9.68809 4.73005,9.68809v52.7477c0,0 -0.68791,5.72333 -4.53018,9.44761c-3.84227,3.72428 -9.61554,4.26371 -9.61554,4.26371h-108.72447c0,0 -5.78526,-0.7003 -9.61554,-4.53019z" fill="url(#color-2)" stroke="none" stroke-width="0" stroke-linecap="butt"/><path d="M430.889,215.57531c-3.83028,-3.82989 -4.2637,-9.34765 -4.2637,-9.34765v-52.44794c0,0 0.49942,-5.72231 4.33033,-9.55485c3.8309,-3.83254 9.54892,-4.33033 9.54892,-4.33033h108.99095c0,0 5.30151,0.25145 9.1492,4.06384c3.84769,3.8124 4.73005,9.68809 4.73005,9.68809v52.7477c0,0 -0.68791,5.72333 -4.53019,9.44761c-3.84227,3.72428 -9.61554,4.2637 -9.61554,4.2637h-108.72447c0,0 -5.78527,-0.7003 -9.61554,-4.53019z" fill="url(#color-3)" stroke="none" stroke-width="0" stroke-linecap="butt"/><path d="M120.70835,230.75007c-7.18676,-7.18603 -8,-17.53901 -8,-17.53901v-98.4082c0,0 0.93707,-10.73679 8.125,-17.92779c7.18793,-7.191 17.91667,-8.125 17.91667,-8.125h204.5c0,0 9.94724,0.4718 17.16667,7.625c7.21943,7.15321 8.875,18.17779 8.875,18.17779v98.97064c0,0 -1.29073,10.73869 -8.5,17.72657c-7.20927,6.98788 -18.04167,8 -18.04167,8h-204c0,0 -10.85491,-1.31397 -18.04167,-8.5z" fill="url(#color-4)" stroke="none" stroke-width="0" stroke-linecap="butt"/><g><path d="M52.98806,342.91534l-33.89078,-33.89078l41.22796,-41.22796l33.89078,33.89078z" fill="none" stroke="none" stroke-width="0" stroke-linecap="butt"/><path d="M62.91164,299.75667c-3.15008,-3.15008 -3.15009,-8.25737 -0.00001,-11.40745c3.15008,-3.15008 8.25736,-3.15008 11.40745,0.00001c3.15008,3.15008 3.15008,8.25736 0,11.40744c-3.15008,3.15008 -8.25736,3.15008 -11.40744,0z" fill="url(#color-5)" stroke="url(#color-6)" stroke-width="0" stroke-linecap="butt"/><path d="M47.67576,317.60803c-5.55078,-5.55078 -5.55077,-14.55037 0,-20.10114c5.55077,-5.55077 14.55037,-5.55077 20.10114,0c5.55078,5.55078 5.55077,14.55037 0,20.10114c-5.55077,5.55077 -14.55037,5.55077 -20.10114,0z" fill="url(#color-7)" stroke="url(#color-8)" stroke-width="0" stroke-linecap="butt"/><path d="M35.93377,322.06237c-5.43203,-5.43203 -5.43203,-14.23908 0,-19.67111c5.43203,-5.43203 14.23909,-5.43202 19.67111,0c5.43203,5.43203 5.43203,14.23908 0,19.67111c-5.43203,5.43203 -14.23909,5.43202 -19.67111,0z" fill="url(#color-9)" stroke="url(#color-10)" stroke-width="0" stroke-linecap="butt"/><path d="M37.28014,316.68363c-2.89744,-2.89744 -2.89743,-7.59511 0,-10.49254c2.89744,-2.89744 7.59511,-2.89743 10.49254,0c2.89744,2.89744 2.89743,7.59511 0,10.49254c-2.89744,2.89744 -7.59511,2.89743 -10.49254,0z" fill="url(#color-11)" stroke="#000000" stroke-width="0" stroke-linecap="butt"/><g><path d="M69.13165,295.00728l-1.5713,-1.5713l1.87347,-6.94997l6.76866,6.76866z" fill="url(#color-12)" stroke="#000000" stroke-width="0" stroke-linecap="butt"/><path d="M61.97544,304.84524l-4.25459,-4.25459l9.33109,-9.33109l4.25459,4.25459z" fill="url(#color-13)" stroke="none" stroke-width="0" stroke-linecap="butt"/><path d="M49.57507,313.02082l12.83898,-12.83898" fill="none" stroke="url(#color-14)" stroke-width="16.5" stroke-linecap="round"/><path d="M55.48422,298.19424l8.75629,8.75629" fill="none" stroke="url(#color-15)" stroke-width="7.5" stroke-linecap="round"/><path d="M48.98415,307.27279l6.17775,6.17775" fill="none" stroke="url(#color-16)" stroke-width="7.5" stroke-linecap="round"/></g><path d="M54.75873,316.22105c-2.89743,-2.89743 -2.89744,-7.59511 0,-10.49255c2.89744,-2.89744 7.59511,-2.89744 10.49255,0c2.89743,2.89743 2.89743,7.59511 0,10.49255c-2.89743,2.89743 -7.59511,2.89743 -10.49254,0z" fill="url(#color-17)" stroke="#000000" stroke-width="0" stroke-linecap="butt"/><path d="M32.91664,367.52882l-38.43284,-38.43284l38.74531,-38.74531l38.43284,38.43284z" fill="none" stroke="none" stroke-width="NaN" stroke-linecap="butt"/><path d="M48.93035,344.7972c-8.75784,8.75784 -22.9571,8.75783 -31.71493,0c-8.75784,-8.75784 -8.75783,-22.9571 0,-31.71493c8.75784,-8.75784 22.9571,-8.75783 31.71493,0c8.75784,8.75784 8.75783,22.9571 0,31.71493z" fill="url(#color-18)" stroke="#000000" stroke-width="0" stroke-linecap="butt"/><path d="M21.50065,340.5119c-6.39113,-6.39113 -6.39113,-16.7532 0,-23.14433c6.39113,-6.39113 16.7532,-6.39113 23.14433,0c6.39113,6.39113 6.39113,16.7532 0,23.14433c-6.39113,6.39113 -16.7532,6.39113 -23.14433,0z" fill="url(#color-19)" stroke="#000000" stroke-width="0" stroke-linecap="butt"/><path d="M41.21285,331.11951c-1.1803,-1.1803 -1.1803,-3.09395 0,-4.27425c1.1803,-1.1803 3.09395,-1.1803 4.27425,0c1.1803,1.1803 1.1803,3.09395 0,4.27425c-1.1803,1.1803 -3.09395,1.1803 -4.27425,0z" fill="#000000" stroke="#000000" stroke-width="0" stroke-linecap="butt"/><path d="M30.9168,320.77585c-1.1803,-1.1803 -1.1803,-3.09395 0,-4.27425c1.1803,-1.1803 3.09395,-1.1803 4.27425,0c1.1803,1.1803 1.1803,3.09395 0,4.27425c-1.1803,1.1803 -3.09395,1.1803 -4.27425,0z" fill="#000000" stroke="#000000" stroke-width="0" stroke-linecap="butt"/><path d="M46.06144,324.17089l-8.53503,-8.53503" fill="none" stroke="#000000" stroke-width="2" stroke-linecap="round"/><path d="M40.07182,336.1335c3.79635,-3.987 7.17211,-12.37781 8.78849,-11.20308c1.61638,1.17474 1.40285,10.01434 -3.75109,15.36516c-6.37929,6.62297 -14.63753,5.35294 -14.94353,4.39738c-0.306,-0.95557 6.12359,-4.58696 9.90613,-8.55947z" fill="url(#color-20)" stroke="#000000" stroke-width="0" stroke-linecap="butt"/><g stroke-width="0" stroke-linecap="butt"><path d="M45.0609,337.99548l-21.27294,-21.27294l1.87368,-1.7201c0,0 5.43983,-4.5443 10.21879,0.25642c4.78314,4.80492 0.22455,10.54048 0.22455,10.54048c0,0 5.97072,-4.7595 10.65235,0.11092c4.92613,5.12478 0.13273,10.25607 0.13273,10.25607z" fill="url(#color-21)" stroke="url(#color-22)"/><path d="M48.88956,329.19274l-8.3866,4.15618l-3.3239,-3.3239l9.14278,-4.54976c0,0 0.62302,0.39142 1.21946,1.18185c0.58141,0.77053 1.34826,2.53562 1.34826,2.53562z" fill="url(#color-23)" stroke="none"/><path d="M37.37427,317.25937l-8.64791,4.41749l-2.05477,-2.05477l8.78017,-4.91236c0,0 0.62303,0.39141 1.21946,1.18185c0.58141,0.77053 0.70306,1.3678 0.70306,1.3678z" fill="url(#color-24)" stroke="none"/></g><path d="M22.88269,315.26477l23.93206,23.93206" fill="none" stroke="#000000" stroke-width="2.5" stroke-linecap="round"/></g><text transform="translate(409.53809,62.68661) scale(0.58491,0.58491)" font-size="40" xml:space="preserve" fill="#ffffff" fill-rule="nonzero" stroke="none" stroke-width="1" stroke-linecap="butt" stroke-linejoin="miter" stroke-miterlimit="10" stroke-dasharray="" stroke-dashoffset="0" font-family="Sans Serif" font-weight="normal" text-anchor="start" style="mix-blend-mode: normal"><tspan x="0" dy="0">News</tspan></text><text transform="translate(408.7736,26.52217) scale(0.46514,0.49639)" font-size="40" xml:space="preserve" fill="#ffffff" fill-rule="nonzero" stroke="none" stroke-width="1" stroke-linecap="butt" stroke-linejoin="miter" stroke-miterlimit="10" stroke-dasharray="" stroke-dashoffset="0" font-family="Sans Serif" font-weight="normal" text-anchor="start" style="mix-blend-mode: normal"><tspan x="0" dy="0">Credits</tspan></text><text transform="translate(149.72398,269.91033) scale(0.51432,0.51432)" font-size="40" xml:space="preserve" fill="#ffffff" fill-rule="nonzero" stroke="none" stroke-width="1" stroke-linecap="butt" stroke-linejoin="miter" stroke-miterlimit="10" stroke-dasharray="" stroke-dashoffset="0" font-family="Sans Serif" font-weight="normal" text-anchor="start" style="mix-blend-mode: normal"><tspan x="0" dy="0">Next Splatmeet in:</tspan></text><text transform="translate(188.63896,299.92377) scale(0.7708,0.7708)" font-size="40" xml:space="preserve" fill="#ffffff" fill-rule="nonzero" stroke="none" stroke-width="1" stroke-linecap="butt" stroke-linejoin="miter" stroke-miterlimit="10" stroke-dasharray="" stroke-dashoffset="0" font-family="Sans Serif" font-weight="normal" text-anchor="start" style="mix-blend-mode: normal"><tspan x="0" dy="0">2:49:13</tspan></text><text transform="translate(210.66452,316.75582) scale(0.34559,0.34559)" font-size="40" xml:space="preserve" fill="#ffffff" fill-rule="nonzero" stroke="none" stroke-width="1" stroke-linecap="butt" stroke-linejoin="miter" stroke-miterlimit="10" stroke-dasharray="" stroke-dashoffset="0" font-family="Sans Serif" font-weight="normal" text-anchor="start" style="mix-blend-mode: normal"><tspan x="0" dy="0">2am EST</tspan></text><path d="M308.99899,303.09425c0,-7.2374 5.86708,-13.10448 13.10448,-13.10448c7.2374,0 13.10448,5.86708 13.10448,13.10448c0,7.2374 -5.86708,13.10448 -13.10448,13.10448c-7.2374,0 -13.10448,-5.86708 -13.10448,-13.10448z" fill="#ffffff" stroke="none" stroke-width="0" stroke-linecap="butt"/><text transform="translate(317.4004,311.88444) scale(0.5912,0.5912)" font-size="40" xml:space="preserve" fill="#404040" fill-rule="nonzero" stroke="#404040" stroke-width="1" stroke-linecap="butt" stroke-linejoin="miter" stroke-miterlimit="10" stroke-dasharray="" stroke-dashoffset="0" font-family="Sans Serif" font-weight="normal" text-anchor="start" style="mix-blend-mode: normal"><tspan x="0" dy="0">?</tspan></text><text transform="translate(172.34885,134.45407) scale(0.82401,0.82401)" font-size="40" xml:space="preserve" fill="#ffffff" fill-rule="nonzero" stroke="none" stroke-width="1" stroke-linecap="butt" stroke-linejoin="miter" stroke-miterlimit="10" stroke-dasharray="" stroke-dashoffset="0" font-family="Sans Serif" font-weight="normal" text-anchor="start" style="mix-blend-mode: normal"><tspan x="0" dy="0">Turf War</tspan></text><text transform="translate(180.56191,215.37829) scale(1.65014,1.65014)" font-size="40" xml:space="preserve" fill="#ffffff" fill-rule="nonzero" stroke="none" stroke-width="1" stroke-linecap="butt" stroke-linejoin="miter" stroke-miterlimit="10" stroke-dasharray="" stroke-dashoffset="0" font-family="Sans Serif" font-weight="normal" text-anchor="start" style="mix-blend-mode: normal"><tspan x="0" dy="0">Join</tspan></text><text transform="translate(205.15613,156.61388) scale(0.55115,0.55115)" font-size="40" xml:space="preserve" fill="#ffffff" fill-rule="nonzero" stroke="none" stroke-width="1" stroke-linecap="butt" stroke-linejoin="miter" stroke-miterlimit="10" stroke-dasharray="" stroke-dashoffset="0" font-family="Sans Serif" font-weight="normal" text-anchor="start" style="mix-blend-mode: normal"><tspan x="0" dy="0">Online</tspan></text><g fill="none" stroke="#ffffff" stroke-width="5"><path d="M420.63167,316.00003c0,-7.93543 6.43294,-14.36836 14.36836,-14.36836c7.93543,0 14.36836,6.43294 14.36836,14.36836c0,7.93543 -6.43294,14.36836 -14.36836,14.36836c-7.93543,0 -14.36836,-6.43294 -14.36836,-14.36836z" stroke-linecap="butt"/><path d="M452.1715,316.00003h7.88199" stroke-linecap="round"/><path d="M417.82855,316.00003h-7.88199" stroke-linecap="round"/><path d="M435.00002,298.82857v-7.88199" stroke-linecap="round"/><path d="M435.00002,333.17156v7.88199" stroke-linecap="round"/><path d="M447.14209,303.85801l5.57342,-5.57342" stroke-linecap="round"/><path d="M422.85796,328.14214l-5.57342,5.57342" stroke-linecap="round"/><path d="M417.28454,298.28454l5.57342,5.57342" stroke-linecap="round"/><path d="M452.71551,333.71556l-5.57342,-5.57342" stroke-linecap="round"/></g><path d="M22.40976,28.26538h27.40447" fill="none" stroke="#ffffff" stroke-width="5" stroke-linecap="round"/><path d="M29.45664,36.34724l-8.3177,-8.3177l8.19888,-8.19889" fill="none" stroke="#ffffff" stroke-width="5" stroke-linecap="round"/><text transform="translate(409.53809,97.71591) scale(0.40133,0.55795)" font-size="40" xml:space="preserve" fill="#ffffff" fill-rule="nonzero" stroke="none" stroke-width="1" stroke-linecap="butt" stroke-linejoin="miter" stroke-miterlimit="10" stroke-dasharray="" stroke-dashoffset="0" font-family="Sans Serif" font-weight="normal" text-anchor="start" style="mix-blend-mode: normal"><tspan x="0" dy="0">Records</tspan></text><path d="M114.70835,224.75007c-7.18676,-7.18603 -8,-17.53901 -8,-17.53901v-98.4082c0,0 0.93707,-10.73679 8.125,-17.92779c7.18793,-7.191 17.91667,-8.125 17.91667,-8.125h204.5c0,0 9.94724,0.4718 17.16667,7.625c7.21943,7.15321 8.875,18.17779 8.875,18.17779v98.97064c0,0 -1.29073,10.73869 -8.5,17.72657c-7.20927,6.98788 -18.04167,8 -18.04167,8h-204c0,0 -10.85491,-1.31397 -18.04167,-8.5z" fill="none" stroke="url(#color-25)" stroke-width="5" stroke-linecap="butt"/><path d="M141.00043,311.50378c-3.25662,-3.2563 -3.62514,-7.94767 -3.62514,-7.94767v-44.59291c0,0 0.42463,-4.8653 3.68178,-8.12385c3.25716,-3.25855 8.1188,-3.68178 8.1188,-3.68178h173.47867c0,0 4.50752,0.2138 7.77895,3.45521c3.27143,3.24142 4.02164,8.23712 4.02164,8.23712v44.84778c0,0 -0.58488,4.86616 -3.85171,8.03266c-3.26682,3.1665 -8.17544,3.62514 -8.17544,3.62514h-173.2521c0,0 -4.91882,-0.59542 -8.17545,-3.85171z" fill="none" stroke="#4d4d4d" stroke-width="3.5" stroke-linecap="butt"/><path d="M315.19793,216.16644c0,-3.57686 2.89962,-6.47648 6.47647,-6.47648c3.57685,0 6.47649,2.89962 6.47649,6.47648c0,3.57686 -2.89962,6.47648 -6.47649,6.47648c-3.57685,0 -6.47647,-2.89962 -6.47647,-6.47648z" data-paper-data="{&quot;index&quot;:null}" fill="#ffffff" stroke="none" stroke-width="0" stroke-linecap="butt"/><path d="M328.76948,232.25643h-13.98775l6.99388,-15.91098z" data-paper-data="{&quot;index&quot;:null}" fill="#ffffff" stroke="none" stroke-width="0" stroke-linecap="butt"/><text transform="translate(330.89346,229.52694) scale(0.6039,0.6039)" font-size="40" xml:space="preserve" data-paper-data="{&quot;index&quot;:null}" fill="#ffffff" fill-rule="nonzero" stroke="none" stroke-width="1" stroke-linecap="butt" stroke-linejoin="miter" stroke-miterlimit="10" stroke-dasharray="" stroke-dashoffset="0" font-family="Sans Serif" font-weight="normal" text-anchor="start" style="mix-blend-mode: normal"><tspan x="0" dy="0">12</tspan></text></g></g></svg>