<svg version="1.1" xmlns="http://www.w3.org/2000/svg" xmlns:xlink="http://www.w3.org/1999/xlink" width="85.96734" height="85.27405" viewBox="0,0,85.96734,85.27405"><defs><radialGradient cx="240.00003" cy="180.00002" r="32.79887" gradientUnits="userSpaceOnUse" id="color-1"><stop offset="0" stop-color="#000000"/><stop offset="1" stop-color="#000000" stop-opacity="0"/></radialGradient><linearGradient x1="216.06468" y1="180.00002" x2="263.93536" y2="180.00002" gradientUnits="userSpaceOnUse" id="color-2"><stop offset="0" stop-color="#eb0000"/><stop offset="1" stop-color="#ff5454"/></linearGradient><linearGradient x1="241.19703" y1="210.4006" x2="255.47685" y2="203.76079" gradientUnits="userSpaceOnUse" id="color-3"><stop offset="0" stop-color="#c80000"/><stop offset="1" stop-color="#da6161"/></linearGradient><linearGradient x1="240.29873" y1="211.05572" x2="226.88548" y2="203.10567" gradientUnits="userSpaceOnUse" id="color-4"><stop offset="0" stop-color="#da6161"/><stop offset="1" stop-color="#c80000"/></linearGradient><linearGradient x1="229.30061" y1="199.83881" x2="241.30022" y2="206.42243" gradientUnits="userSpaceOnUse" id="color-5"><stop offset="0" stop-color="#ff9090" stop-opacity="0"/><stop offset="1" stop-color="#ff9090" stop-opacity="0.39516"/></linearGradient><linearGradient x1="241.97851" y1="207.38134" x2="254.5086" y2="202.33986" gradientUnits="userSpaceOnUse" id="color-6"><stop offset="0" stop-color="#ff9090" stop-opacity="0"/><stop offset="1" stop-color="#ff9090" stop-opacity="0.39516"/></linearGradient><linearGradient x1="241.19703" y1="149.88528" x2="255.47685" y2="157.32479" gradientUnits="userSpaceOnUse" id="color-7"><stop offset="0" stop-color="#c80000"/><stop offset="1" stop-color="#da6161"/></linearGradient><linearGradient x1="240.29873" y1="149.15124" x2="226.88548" y2="158.05882" gradientUnits="userSpaceOnUse" id="color-8"><stop offset="0" stop-color="#da6161"/><stop offset="1" stop-color="#c80000"/></linearGradient><linearGradient x1="230.03131" y1="159.87185" x2="237.8173" y2="150.86515" gradientUnits="userSpaceOnUse" id="color-9"><stop offset="0" stop-color="#ff9090" stop-opacity="0"/><stop offset="1" stop-color="#ff9090" stop-opacity="0.39516"/></linearGradient><linearGradient x1="245.06913" y1="149.91904" x2="253.82071" y2="157.99074" gradientUnits="userSpaceOnUse" id="color-10"><stop offset="0" stop-color="#ff9090" stop-opacity="0"/><stop offset="1" stop-color="#ff9090" stop-opacity="0.39516"/></linearGradient><linearGradient x1="240.00001" y1="156.45711" x2="240.00001" y2="203.86927" gradientUnits="userSpaceOnUse" id="color-11"><stop offset="0" stop-color="#ff5454"/><stop offset="1" stop-color="#eb0000"/></linearGradient><linearGradient x1="220.37778" y1="177.20177" x2="261.17115" y2="177.20177" gradientUnits="userSpaceOnUse" id="color-12"><stop offset="0" stop-color="#ff9090" stop-opacity="0"/><stop offset="1" stop-color="#ff9090" stop-opacity="0.39516"/></linearGradient><linearGradient x1="232.01168" y1="179.85157" x2="247.72939" y2="179.85157" gradientUnits="userSpaceOnUse" id="color-13"><stop offset="0" stop-color="#181818"/><stop offset="1" stop-color="#800000"/></linearGradient><linearGradient x1="247.8944" y1="196.74751" x2="247.8944" y2="162.94689" gradientUnits="userSpaceOnUse" id="color-14"><stop offset="0" stop-color="#ffffff" stop-opacity="0"/><stop offset="1" stop-color="#ffffff"/></linearGradient><linearGradient x1="244.49588" y1="179.47554" x2="256.4746" y2="179.47554" gradientUnits="userSpaceOnUse" id="color-15"><stop offset="0" stop-color="#ffcaca" stop-opacity="0"/><stop offset="1" stop-color="#ffcaca"/></linearGradient><radialGradient cx="248.98524" cy="179.47554" r="12.00494" gradientUnits="userSpaceOnUse" id="color-16"><stop offset="0" stop-color="#ff0000"/><stop offset="1" stop-color="#ff0000" stop-opacity="0"/></radialGradient><linearGradient x1="248.34748" y1="179.58904" x2="254.63724" y2="179.58904" gradientUnits="userSpaceOnUse" id="color-17"><stop offset="0" stop-color="#404040" stop-opacity="0"/><stop offset="1" stop-color="#404040"/></linearGradient><linearGradient x1="220.21277" y1="168.25842" x2="227.17816" y2="175.22381" gradientUnits="userSpaceOnUse" id="color-18"><stop offset="0" stop-color="#ffffff" stop-opacity="0.59677"/><stop offset="1" stop-color="#ffffff" stop-opacity="0"/></linearGradient></defs><g transform="translate(-197.01634,-137.363)"><g data-paper-data="{&quot;isPaintingLayer&quot;:true}" fill-rule="nonzero" stroke-linecap="butt" stroke-linejoin="miter" stroke-miterlimit="10" stroke-dasharray="" stroke-dashoffset="0" style="mix-blend-mode: normal"><path d="M197.01635,222.63705v-85.27405h85.96734v85.27405z" fill="none" stroke="none" stroke-width="NaN"/><path d="M207.20115,180.00002c0,-18.11432 14.68456,-32.79887 32.79887,-32.79887c18.11432,0 32.79887,14.68456 32.79887,32.79887c0,18.11432 -14.68456,32.79887 -32.79887,32.79887c-18.11432,0 -32.79887,-14.68456 -32.79887,-32.79887z" fill="url(#color-1)" stroke="#000000" stroke-width="0"/><path d="M216.06468,180.00002c0,-13.21912 10.71622,-23.93534 23.93534,-23.93534c13.21912,0 23.93534,10.71622 23.93534,23.93534c0,13.21912 -10.71622,23.93534 -23.93534,23.93534c-13.21912,0 -23.93534,-10.71622 -23.93534,-23.93534z" fill="url(#color-2)" stroke="#000000" stroke-width="0"/><path d="M241.19703,210.4006c-3.08301,-5.11714 -2.38563,-10.75177 1.55763,-12.58531c3.94327,-1.83353 9.63919,0.82835 12.72219,5.94549c3.08301,5.11714 2.38563,10.75177 -1.55763,12.5853c-3.94327,1.83353 -9.63918,-0.82834 -12.72219,-5.94549z" data-paper-data="{&quot;index&quot;:null}" fill="url(#color-3)" stroke="none" stroke-width="0"/><path d="M226.94355,215.76741c-3.70397,-2.19534 -3.72998,-7.8642 -0.05808,-12.66175c3.6719,-4.79754 9.65121,-6.90704 13.35518,-4.7117c3.70397,2.19534 3.72998,7.8642 0.05808,12.66175c-3.6719,4.79754 -9.65121,6.90704 -13.35518,4.7117z" data-paper-data="{&quot;index&quot;:null}" fill="url(#color-4)" stroke="none" stroke-width="0"/><path d="M229.30061,199.83881c2.88352,-4.18646 7.90728,-6.10648 11.22088,-4.28845c3.3136,1.81801 3.66225,6.68562 0.77874,10.87207c-2.88352,4.18646 -7.90728,6.10648 -11.22088,4.28845c-3.3136,-1.81802 -3.66225,-6.68561 -0.77874,-10.87207z" data-paper-data="{&quot;index&quot;:null}" fill="url(#color-5)" stroke="none" stroke-width="0"/><path d="M243.68936,197.91178c3.46009,-1.39217 8.30403,0.59036 10.81924,4.42809c2.51521,3.83773 1.74924,8.0774 -1.71085,9.46957c-3.46009,1.39216 -8.30403,-0.59037 -10.81924,-4.42809c-2.51521,-3.83773 -1.74924,-8.07739 1.71085,-9.46956z" fill="url(#color-6)" stroke="none" stroke-width="0"/><path d="M253.91921,143.22371c3.94327,2.05437 4.64065,8.36763 1.55764,14.10108c-3.08301,5.73345 -8.77893,8.71593 -12.7222,6.66156c-3.94327,-2.05437 -4.64064,-8.36762 -1.55763,-14.10107c3.08301,-5.73345 8.77892,-8.71593 12.72219,-6.66157z" data-paper-data="{&quot;index&quot;:null}" fill="url(#color-7)" stroke="none" stroke-width="0"/><path d="M240.29873,149.15124c3.6719,5.37536 3.6459,11.72697 -0.05808,14.18672c-3.70397,2.45975 -9.68328,0.09619 -13.35518,-5.27917c-3.6719,-5.37536 -3.6459,-11.72697 0.05808,-14.18672c3.70397,-2.45975 9.68328,-0.09619 13.35518,5.27918z" data-paper-data="{&quot;index&quot;:null}" fill="url(#color-8)" stroke="none" stroke-width="0"/><path d="M227.54943,149.85765c2.15004,-2.48713 6.74713,-2.03606 10.26787,1.0075c3.52074,3.04356 4.63193,7.52709 2.48189,10.01422c-2.15004,2.48713 -6.74713,2.03604 -10.26787,-1.00751c-3.52074,-3.04356 -4.63193,-7.52707 -2.48189,-10.01421z" fill="url(#color-9)" stroke="none" stroke-width="0"/><path d="M255.15799,147.76059c2.41668,2.22893 1.81795,6.80913 -1.33729,10.23014c-3.15524,3.42102 -7.67218,4.38738 -10.08886,2.15846c-2.41668,-2.22893 -1.81795,-6.80913 1.3373,-10.23015c3.15524,-3.42102 7.67218,-4.38738 10.08886,-2.15845z" fill="url(#color-10)" stroke="none" stroke-width="0"/><path d="M240.00001,203.86927c-13.0925,0 -23.70607,-10.61357 -23.70607,-23.70608c0,-13.0925 10.61357,-23.70607 23.70608,-23.70607c13.0925,0 23.70606,10.61357 23.70606,23.70607c0,13.0925 -10.61356,23.70607 -23.70606,23.70607z" fill="url(#color-11)" stroke="none" stroke-width="0"/><path d="M240.77447,197.59844c-11.26477,0 -20.39669,-9.13191 -20.39669,-20.39669c0,-11.26477 9.13192,-20.39669 20.39669,-20.39669c11.26477,0 20.39669,9.13191 20.39669,20.39669c0,11.26477 -9.1319,20.39669 -20.39669,20.39669z" fill="url(#color-12)" stroke="none" stroke-width="0"/><path d="M247.72939,198.91223l-3.01163,4.10626l-2.20254,-5.81983l-5.50612,-0.31688l2.15764,-5.59381l-7.27238,-4.69186l4.47963,-6.2166l-4.30833,-6.21602l6.28,-3.51968l-2.00163,-6.09223l6.12326,0.02779l2.1992,-7.08894l3.06287,3.41778z" fill="url(#color-13)" stroke="#000000" stroke-width="0"/><path d="M247.8944,161.09881c0,0 10.30052,8.42349 10.30052,18.8144c0,10.3909 -10.30052,18.8144 -10.30052,18.8144c0,0 -10.30052,-8.42349 -10.30052,-18.8144c0,-10.3909 10.30052,-18.8144 10.30052,-18.8144z" fill="#ffdede" stroke="none" stroke-width="0"/><path d="M247.8944,162.94689c0,0 9.21645,7.56652 9.21645,16.9003c0,9.33378 -9.21645,16.90031 -9.21645,16.90031c0,0 -9.21645,-7.56653 -9.21645,-16.90031c0,-9.33378 9.21645,-16.9003 9.21645,-16.9003z" fill="url(#color-14)" stroke="none" stroke-width="0"/><path d="M250.44153,186.59462c-3.69005,0 -6.68142,-2.99137 -6.68142,-6.68142c0,-3.69005 2.99137,-6.68142 6.68142,-6.68142c3.69005,0 6.68141,2.99137 6.68141,6.68142c0,3.69005 -2.99137,6.68142 -6.68141,6.68142z" fill="#ff0000" stroke="none" stroke-width="0"/><path d="M250.48524,185.46489c-3.30783,0 -5.98936,-2.68153 -5.98936,-5.98936c0,-3.30783 2.68153,-5.98936 5.98936,-5.98936c3.30783,0 5.98936,2.68153 5.98936,5.98936c0,3.30783 -2.68153,5.98936 -5.98936,5.98936z" fill="url(#color-15)" stroke="none" stroke-width="0"/><path d="M248.98524,191.48049c-6.63014,0 -12.00494,-5.37479 -12.00494,-12.00494c0,-6.63014 5.37479,-12.00494 12.00494,-12.00494c6.63014,0 12.00494,5.37479 12.00494,12.00494c0,6.63014 -5.37479,12.00494 -12.00493,12.00494z" fill="url(#color-16)" stroke="none" stroke-width="0"/><path d="M251.3944,183.78931c-2.14072,0 -3.87611,-1.73539 -3.87611,-3.87611c0,-2.14072 1.73539,-3.87611 3.87611,-3.87611c2.14072,0 3.87611,1.73539 3.87611,3.87611c0,2.14072 -1.7354,3.87611 -3.8761,3.87611z" fill="#000000" stroke="none" stroke-width="0"/><path d="M251.49236,182.73391c-1.73687,0 -3.14488,-1.40801 -3.14488,-3.14488c0,-1.73687 1.40801,-3.14488 3.14488,-3.14488c1.73687,0 3.14488,1.40801 3.14488,3.14488c0,1.73687 -1.40801,3.14488 -3.14488,3.14488z" fill="url(#color-17)" stroke="none" stroke-width="0"/><path d="M227.10479,161.72744c6.23738,-3.40077 0.64079,11.2246 -2.67347,14.53886c-3.31426,3.31426 1.78773,22.78939 -0.13571,20.86596c-1.92344,-1.92344 -8.61869,-11.25422 -7.1395,-19.85199c1.32261,-7.6876 5.11574,-12.9178 9.94868,-15.55284z" fill="url(#color-18)" stroke="none" stroke-width="0"/></g></g></svg>