<svg version="1.1" xmlns="http://www.w3.org/2000/svg" xmlns:xlink="http://www.w3.org/1999/xlink" width="78.34333" height="39.64112" viewBox="0,0,78.34333,39.64112"><defs><linearGradient x1="240.00001" y1="155.15351" x2="240.00001" y2="199.82056" gradientUnits="userSpaceOnUse" id="color-1"><stop offset="0" stop-color="#000000" stop-opacity="0.28235"/><stop offset="1" stop-color="#000000" stop-opacity="0.73725"/></linearGradient></defs><g transform="translate(-200.82835,-160.17944)"><g data-paper-data="{&quot;isPaintingLayer&quot;:true}" fill-rule="nonzero" stroke-width="0" stroke-linecap="butt" stroke-linejoin="miter" stroke-miterlimit="10" stroke-dasharray="" stroke-dashoffset="0" style="mix-blend-mode: normal"><path d="M203.20268,197.29783c-2.13297,-2.13276 -2.37433,-5.20542 -2.37433,-5.20542v-24.18074c0,0 0.27811,-3.18659 2.41142,-5.32081c2.13331,-2.13422 5.31751,-2.41142 5.31751,-2.41142h62.88546c0,0 2.95226,0.14003 5.09492,2.26303c2.14266,2.12301 2.63402,5.39501 2.63402,5.39501v24.34767c0,0 -0.38308,3.18714 -2.52273,5.26108c-2.13965,2.07394 -5.3546,2.37433 -5.3546,2.37433h-62.73706c0,0 -3.22164,-0.38998 -5.35461,-2.52273z" fill="url(#color-1)" stroke="none"/><text transform="translate(224.76866,186.0966) scale(0.50805,0.50805)" font-size="40" xml:space="preserve" fill="#ffffff" fill-rule="nonzero" stroke="#ffffff" stroke-width="0" stroke-linecap="butt" stroke-linejoin="miter" stroke-miterlimit="10" stroke-dasharray="" stroke-dashoffset="0" font-family="Sans Serif" font-weight="normal" text-anchor="start" style="mix-blend-mode: normal"><tspan x="0" dy="0">Off</tspan></text></g></g></svg>