<svg version="1.1" xmlns="http://www.w3.org/2000/svg" xmlns:xlink="http://www.w3.org/1999/xlink" width="648.87572" height="550.24334" viewBox="0,0,648.87572,550.24334"><g transform="translate(79.97459,98.595)"><g data-paper-data="{&quot;isPaintingLayer&quot;:true}" fill-rule="nonzero" stroke-linecap="butt" stroke-linejoin="miter" stroke-miterlimit="10" stroke-dasharray="" stroke-dashoffset="0" style="mix-blend-mode: normal"><path d="M-16.01187,451.55851l-63.96272,-468.24646l597.45155,-81.90705c0,0 45.2631,416.35574 50.12058,460.1195c0.75249,6.77955 1.30359,11.7447 1.30359,11.7447l-358.42924,78.06318l-23.50878,-66.21593l19.77665,-56.62586c0,0 6.24894,39.28895 31.78131,42.50357c31.30702,3.94167 44.30345,-41.47946 44.30345,-41.47946c0,0 9.16299,47.80692 45.27582,43.07587c39.27129,-3.75819 27.73137,-123.18459 27.73137,-123.18459c0,0 54.42163,10.47775 77.64358,-18.32451c23.61538,-30.17495 -84.53475,-237.62631 -148.43333,-251.40508c-62.3701,-13.44916 -211.56738,85.20381 -243.11765,153.48094c-15.61002,33.78103 67.03131,59.26992 67.03131,59.26992c0,0 -66.1947,91.24819 -29.22315,125.12737c21.40072,19.61074 55.08138,-15.7954 55.08138,-15.7954c0,0 -5.83595,46.0478 21.82579,52.72977c33.14226,8.00588 53.78895,-30.10475 53.78895,-30.10475l27.88837,127.2641z" fill="#000000" stroke="none" stroke-width="0"/><path d="M201.7586,87.87812c29.28841,6.73606 47.57069,35.93947 40.83463,65.22789c-6.73606,29.28841 -35.93962,47.57066 -65.22799,40.83459c-29.28841,-6.73606 -47.57054,-35.93959 -40.83447,-65.22798c6.73607,-29.28839 35.93942,-47.57056 65.22783,-40.8345z" fill="none" stroke="#000000" stroke-width="9.5"/><path d="M312.89132,113.35041c27.6999,8.62392 43.9311,35.47859 37.25817,64.49255c-7.03185,30.57455 -35.93962,47.57066 -65.22799,40.83459c-29.28837,-6.73607 -47.57054,-35.93959 -40.83448,-65.228c6.73606,-29.28841 41.1044,-48.72306 68.8043,-40.09914z" fill="none" stroke="#000000" stroke-width="9.5"/><path d="M161.926,134.55329c3.51034,-15.26292 18.72898,-24.79026 33.9919,-21.27992c15.26292,3.51034 24.79037,18.72904 21.28005,33.99194c-3.51034,15.26292 -18.72917,24.79034 -33.99207,21.28003c-15.26292,-3.51034 -24.79021,-18.72912 -21.27987,-33.99206z" fill="#000000" stroke="none" stroke-width="0"/><path d="M270.97608,159.63381c3.51034,-15.26292 18.72898,-24.79026 33.9919,-21.27992c15.26292,3.51034 24.79025,18.729 21.27992,33.9919c-3.51034,15.26292 -18.72905,24.7904 -33.99197,21.28004c-15.26292,-3.51034 -24.79021,-18.72912 -21.27987,-33.99206z" fill="#000000" stroke="none" stroke-width="0"/></g></g></svg>