<svg version="1.1" xmlns="http://www.w3.org/2000/svg" xmlns:xlink="http://www.w3.org/1999/xlink" width="85.96734" height="85.27405" viewBox="0,0,85.96734,85.27405"><defs><radialGradient cx="240.00001" cy="179.99998" r="32.79887" gradientUnits="userSpaceOnUse" id="color-1"><stop offset="0" stop-color="#000000"/><stop offset="1" stop-color="#000000" stop-opacity="0"/></radialGradient><linearGradient x1="219.87729" y1="180" x2="263.02962" y2="180" gradientUnits="userSpaceOnUse" id="color-2"><stop offset="0" stop-color="#bb0000"/><stop offset="1" stop-color="#f50000"/></linearGradient><linearGradient x1="241.5163" y1="190.63972" x2="241.5163" y2="207.14038" gradientUnits="userSpaceOnUse" id="color-3"><stop offset="0" stop-color="#bb0000" stop-opacity="0"/><stop offset="1" stop-color="#bb0000"/></linearGradient><linearGradient x1="241.4277" y1="152.85965" x2="241.4277" y2="172.73658" gradientUnits="userSpaceOnUse" id="color-4"><stop offset="0" stop-color="#ff8282"/><stop offset="1" stop-color="#ff8282" stop-opacity="0"/></linearGradient><linearGradient x1="250.01731" y1="180.03457" x2="263.02962" y2="180.03457" gradientUnits="userSpaceOnUse" id="color-5"><stop offset="0" stop-color="#ffffff" stop-opacity="0"/><stop offset="1" stop-color="#ffffff" stop-opacity="0.51765"/></linearGradient><linearGradient x1="211.24564" y1="192.11208" x2="229.99564" y2="192.11208" gradientUnits="userSpaceOnUse" id="color-6"><stop offset="0" stop-color="#f50000"/><stop offset="1" stop-color="#c40000"/></linearGradient><linearGradient x1="211.24564" y1="192.11208" x2="222.14592" y2="192.11208" gradientUnits="userSpaceOnUse" id="color-7"><stop offset="0" stop-color="#ff9494"/><stop offset="1" stop-color="#ff9494" stop-opacity="0"/></linearGradient><linearGradient x1="211.24564" y1="167.88787" x2="229.99564" y2="167.88787" gradientUnits="userSpaceOnUse" id="color-8"><stop offset="0" stop-color="#f50000"/><stop offset="1" stop-color="#cd0a0a"/></linearGradient><linearGradient x1="211.24564" y1="167.88787" x2="222.22389" y2="167.88787" gradientUnits="userSpaceOnUse" id="color-9"><stop offset="0" stop-color="#ff9494"/><stop offset="1" stop-color="#ff9494" stop-opacity="0"/></linearGradient><linearGradient x1="211.24564" y1="167.82" x2="213.74261" y2="167.82" gradientUnits="userSpaceOnUse" id="color-10"><stop offset="0" stop-color="#ff7e7e"/><stop offset="1" stop-color="#ff7e7e" stop-opacity="0"/></linearGradient></defs><g transform="translate(-197.01633,-137.36298)"><g data-paper-data="{&quot;isPaintingLayer&quot;:true}" fill-rule="nonzero" stroke-linejoin="miter" stroke-miterlimit="10" stroke-dasharray="" stroke-dashoffset="0" style="mix-blend-mode: normal"><path d="M197.01633,222.63704v-85.27405h85.96734v85.27405z" fill="none" stroke="none" stroke-width="NaN" stroke-linecap="butt"/><path d="M207.20113,179.99998c0,-18.11432 14.68456,-32.79887 32.79887,-32.79887c18.11432,0 32.79887,14.68456 32.79887,32.79887c0,18.11432 -14.68456,32.79887 -32.79887,32.79887c-18.11432,0 -32.79887,-14.68456 -32.79887,-32.79887z" fill="url(#color-1)" stroke="#000000" stroke-width="0" stroke-linecap="butt"/><path d="M219.87729,180c0,-14.9892 9.65998,-27.14035 21.57617,-27.14035c11.91619,0 21.57617,12.15115 21.57617,27.14035c0,14.9892 -9.65999,27.14035 -21.57617,27.14035c-11.91619,0 -21.57617,-12.15115 -21.57617,-27.14035z" fill="url(#color-2)" stroke="#000000" stroke-width="0" stroke-linecap="butt"/><path d="M261.27634,190.73434c-3.30716,9.65047 -10.93784,16.40604 -19.82288,16.40604c-8.77318,0 -16.32339,-6.58653 -19.69591,-16.04293c-0.26263,-0.7364 39.51879,-0.36309 39.51879,-0.36309z" fill="url(#color-3)" stroke="#000000" stroke-width="0" stroke-linecap="butt"/><path d="M220.65865,172.73658c2.52485,-11.46233 10.87862,-19.8769 20.7948,-19.8769c9.84975,0 18.15799,8.30221 20.7433,19.64698z" fill="url(#color-4)" stroke="#000000" stroke-width="0" stroke-linecap="butt"/><path d="M250.1431,155.15058c7.58867,4.20497 12.88653,13.74894 12.88653,24.84938c0,11.16168 -5.35647,20.74965 -13.01232,24.91848z" fill="url(#color-5)" stroke="#000000" stroke-width="0" stroke-linecap="butt"/><path d="M247.79287,198.42692v-37.1308" fill="none" stroke="#000000" stroke-width="2" stroke-linecap="round"/><path d="M242.7119,183.07409l1.15,-1.15" fill="none" stroke="#000000" stroke-width="1" stroke-linecap="round"/><path d="M243.8619,178.27409l-1.15,-1.15" data-paper-data="{&quot;index&quot;:null}" fill="none" stroke="#000000" stroke-width="1" stroke-linecap="round"/><g stroke-width="0" stroke-linecap="butt"><path d="M211.24564,192.11208c0,-5.17767 4.19733,-9.375 9.375,-9.375c5.17767,0 9.375,4.19733 9.375,9.375c0,5.17767 -4.19733,9.375 -9.375,9.375c-5.17767,0 -9.375,-4.19733 -9.375,-9.375z" fill="url(#color-6)" stroke="none"/><path d="M211.24564,192.11208c0,-5.17767 4.19733,-9.375 9.375,-9.375c2.034,0 2.03342,18.75 0,18.75c-5.17767,0 -9.375,-4.19733 -9.375,-9.375z" fill="url(#color-7)" stroke="none"/><path d="M218.59699,191.13557c0,-2.44128 1.97905,-4.42033 4.42033,-4.42033c2.44128,0 4.42033,1.97905 4.42033,4.42033c0,2.44128 -1.97905,4.42033 -4.42033,4.42033c-2.44128,0 -4.42033,-1.97905 -4.42033,-4.42033z" fill="#000000" stroke="#000000"/></g><g stroke-width="0" stroke-linecap="butt"><path d="M211.24564,167.88787c0,-5.17767 4.19733,-9.375 9.375,-9.375c5.17767,0 9.375,4.19733 9.375,9.375c0,5.17767 -4.19733,9.375 -9.375,9.375c-5.17767,0 -9.375,-4.19733 -9.375,-9.375z" fill="url(#color-8)" stroke="none"/><path d="M211.24564,167.88787c0,-5.17767 4.19733,-9.375 9.375,-9.375c2.05478,0 2.21899,18.75 0,18.75c-5.17767,0 -9.375,-4.19733 -9.375,-9.375z" fill="url(#color-9)" stroke="none"/><path d="M211.24564,167.88787c0,-2.45975 0.9473,-4.69824 2.49697,-6.37057c-0.05166,4.20161 -0.09289,8.40342 -0.1234,12.60534c-1.47641,-1.65678 -2.37357,-3.84101 -2.37357,-6.23478z" fill="url(#color-10)" stroke="none"/><path d="M218.64622,167.86174c0,-2.44128 1.97905,-4.42033 4.42033,-4.42033c2.44128,0 4.42033,1.97905 4.42033,4.42033c0,2.44128 -1.97905,4.42033 -4.42033,4.42033c-2.44128,0 -4.42033,-1.97905 -4.42033,-4.42033z" fill="#000000" stroke="#000000"/></g></g></g></svg>