<svg version="1.1" xmlns="http://www.w3.org/2000/svg" xmlns:xlink="http://www.w3.org/1999/xlink" width="80.13905" height="79.49276" viewBox="0,0,80.13905,79.49276"><defs><radialGradient cx="240.00005" cy="180" r="32.79887" gradientUnits="userSpaceOnUse" id="color-1"><stop offset="0" stop-color="#000000"/><stop offset="1" stop-color="#000000" stop-opacity="0"/></radialGradient><linearGradient x1="238.29314" y1="153.25235" x2="238.29314" y2="206.5744" gradientUnits="userSpaceOnUse" id="color-2"><stop offset="0" stop-color="#ff6060"/><stop offset="1" stop-color="#eb0000"/></linearGradient><linearGradient x1="241.79315" y1="182.15869" x2="269.73636" y2="182.15869" gradientUnits="userSpaceOnUse" id="color-3"><stop offset="0" stop-color="#9d7d7d"/><stop offset="1" stop-color="#ffffff"/></linearGradient><linearGradient x1="241.79315" y1="182.15869" x2="269.73636" y2="182.15869" gradientUnits="userSpaceOnUse" id="color-4"><stop offset="0" stop-color="#9d7d7d"/><stop offset="1" stop-color="#ffffff"/></linearGradient><linearGradient x1="243.89426" y1="169.0821" x2="258.50409" y2="169.0821" gradientUnits="userSpaceOnUse" id="color-5"><stop offset="0" stop-color="#000000"/><stop offset="1" stop-color="#ffffff"/></linearGradient><linearGradient x1="243.95929" y1="190.29027" x2="258.56912" y2="190.29027" gradientUnits="userSpaceOnUse" id="color-6"><stop offset="0" stop-color="#000000"/><stop offset="1" stop-color="#ffffff"/></linearGradient><linearGradient x1="256.86109" y1="174.48652" x2="256.86109" y2="184.43143" gradientUnits="userSpaceOnUse" id="color-7"><stop offset="0" stop-color="#c2c2c2"/><stop offset="1" stop-color="#000000"/></linearGradient><linearGradient x1="253.46732" y1="177.79635" x2="256.34354" y2="178.64446" gradientUnits="userSpaceOnUse" id="color-8"><stop offset="0" stop-color="#000000"/><stop offset="1" stop-color="#ffffff"/></linearGradient></defs><g transform="translate(-200.08576,-140.25362)"><g data-paper-data="{&quot;isPaintingLayer&quot;:true}" fill-rule="nonzero" stroke-linejoin="miter" stroke-miterlimit="10" stroke-dasharray="" stroke-dashoffset="0" style="mix-blend-mode: normal"><path d="M200.08576,219.74638v-79.49276h80.13905v79.49276z" fill="none" stroke="none" stroke-width="NaN" stroke-linecap="butt"/><path d="M207.20117,180c0,-18.11432 14.68456,-32.79887 32.79887,-32.79887c18.11432,0 32.79887,14.68456 32.79887,32.79887c0,18.11432 -14.68456,32.79887 -32.79887,32.79887c-18.11432,0 -32.79887,-14.68456 -32.79887,-32.79887z" fill="url(#color-1)" stroke="#000000" stroke-width="0" stroke-linecap="butt"/><path d="M211.63212,179.91338c0,-14.72448 11.93655,-26.66103 26.66102,-26.66103c14.72448,0 26.66103,11.93655 26.66103,26.66103c0,14.72448 -11.93655,26.66102 -26.66103,26.66102c-14.72448,0 -26.66102,-11.93655 -26.66102,-26.66102z" fill="url(#color-2)" stroke="#000000" stroke-width="0" stroke-linecap="butt"/><path d="M268.36753,179.45961c-0.05506,12.13077 -3.89366,21.16382 -9.99081,24.17406c-5.64497,2.787 -9.54799,0.55595 -9.54799,0.55595c0,0 7.79346,-7.54015 7.56532,-24.10715c-0.21954,-15.94289 -6.12654,-23.70994 -6.12654,-23.70994c0,0 4.32523,-3.94249 11.61678,2.87111c3.2573,3.04379 6.52355,11.33372 6.48323,20.21597z" fill="url(#color-3)" stroke="#000000" stroke-width="0" stroke-linecap="butt"/><path d="M268.36753,179.45961c-0.05506,12.13077 -3.89366,21.16382 -9.99081,24.17406c-5.64497,2.787 -9.54799,0.55595 -9.54799,0.55595c0,0 7.79346,-7.54015 7.56532,-24.10715c-0.21954,-15.94289 -6.12654,-23.70994 -6.12654,-23.70994c0,0 4.32523,-3.94249 11.61678,2.87111c3.2573,3.04379 6.52355,11.33372 6.48323,20.21597z" fill="url(#color-4)" stroke="#000000" stroke-width="0" stroke-linecap="butt"/><path d="M258.50409,169.0821c0,3.7729 -3.27052,6.83145 -7.30492,6.83145c-4.03439,0 -7.30492,-3.05855 -7.30492,-6.83145c0,-3.7729 3.27052,-6.83146 7.30492,-6.83146c4.03439,0 7.30492,3.05856 7.30492,6.83146z" fill="#ffffff" stroke="url(#color-5)" stroke-width="2" stroke-linecap="butt"/><path d="M261.77559,166.14127c0,0 4.72562,5.35256 4.97445,13.38564c0.31032,10.01782 -5.1037,14.88826 -5.1037,14.88826" fill="none" stroke="#000000" stroke-width="1.5" stroke-linecap="round"/><path d="M259.19588,179.71841h6.22613" fill="none" stroke="#000000" stroke-width="1.5" stroke-linecap="round"/><path d="M258.56912,190.29027c0,3.7729 -3.27053,6.83145 -7.30492,6.83145c-4.03439,0 -7.30491,-3.05855 -7.30491,-6.83145c0,-3.7729 3.27052,-6.83145 7.30491,-6.83145c4.03439,0 7.30492,3.05855 7.30492,6.83145z" fill="#ffffff" stroke="url(#color-6)" stroke-width="2" stroke-linecap="butt"/><path d="M252.39272,170.62019c0,-1.43619 1.36739,-2.60046 3.05414,-2.60046c1.68676,0 3.05414,1.16427 3.05414,2.60046c0,1.43619 -1.36738,2.60045 -3.05414,2.60045c-1.68676,0 -3.05414,-1.16426 -3.05414,-2.60045z" fill="#000000" stroke="#000000" stroke-width="0" stroke-linecap="butt"/><path d="M252.73969,188.34823c0,-1.50404 1.43199,-2.72331 3.19843,-2.72331c1.76644,0 3.19842,1.21928 3.19842,2.72331c0,1.50404 -1.43199,2.72332 -3.19842,2.72332c-1.76644,0 -3.19843,-1.21928 -3.19843,-2.72332z" fill="#000000" stroke="#000000" stroke-width="0" stroke-linecap="butt"/><path d="M251.88863,179.45899c0,-2.74621 2.22625,-4.97244 4.97245,-4.97244c2.7462,0 4.97244,2.22625 4.97244,4.97244c0,2.74621 -2.22624,4.97244 -4.97244,4.97244c-2.7462,0 -4.97245,-2.22623 -4.97245,-4.97244z" fill="url(#color-7)" stroke="#000000" stroke-width="0" stroke-linecap="butt"/><path d="M256.34354,178.64446c-0.38694,1.31223 -1.34448,2.18615 -2.13872,1.95195c-0.79424,-0.23419 -1.12443,-1.48783 -0.73748,-2.80006c0.38694,-1.31223 1.34448,-2.18615 2.13872,-1.95195c0.79424,0.23419 1.12442,1.48783 0.73748,2.80007z" fill="#ffffff" stroke="url(#color-8)" stroke-width="0" stroke-linecap="butt"/><path d="M256.13091,153.27376l3.49066,8.64455" fill="none" stroke="#000000" stroke-width="0.5" stroke-linecap="round"/><path d="M261.20824,152.1932l0.84623,9.1248" fill="none" stroke="#000000" stroke-width="0.5" stroke-linecap="round"/><path d="M256.89277,206.72622l3.49068,-8.64455" data-paper-data="{&quot;index&quot;:null}" fill="none" stroke="#000000" stroke-width="0.5" stroke-linecap="round"/><path d="M262.81635,198.682l-0.84623,9.12481" data-paper-data="{&quot;index&quot;:null}" fill="none" stroke="#000000" stroke-width="0.5" stroke-linecap="round"/></g></g></svg>