<svg version="1.1" xmlns="http://www.w3.org/2000/svg" xmlns:xlink="http://www.w3.org/1999/xlink" width="98.35247" height="97.5593" viewBox="0,0,98.35247,97.5593"><defs><radialGradient cx="230.94064" cy="180" r="39.32521" gradientUnits="userSpaceOnUse" id="color-1"><stop offset="0" stop-color="#000000"/><stop offset="1" stop-color="#000000" stop-opacity="0"/></radialGradient><linearGradient x1="212.35152" y1="179.88168" x2="244.89657" y2="179.88168" gradientUnits="userSpaceOnUse" id="color-2"><stop offset="0" stop-color="#000000"/><stop offset="1" stop-color="#ff5454"/></linearGradient><linearGradient x1="216.06467" y1="180.00002" x2="263.93535" y2="180.00002" gradientUnits="userSpaceOnUse" id="color-3"><stop offset="0" stop-color="#720000"/><stop offset="1" stop-color="#ff5454"/></linearGradient><linearGradient x1="195.5014" y1="207.98567" x2="224.16131" y2="203.80448" gradientUnits="userSpaceOnUse" id="color-4"><stop offset="0" stop-color="#ffffff"/><stop offset="1" stop-color="#eb0000"/></linearGradient><linearGradient x1="195.60999" y1="153.18496" x2="224.2699" y2="157.36616" gradientUnits="userSpaceOnUse" id="color-5"><stop offset="0" stop-color="#ffffff"/><stop offset="1" stop-color="#eb0000"/></linearGradient><radialGradient cx="226.58905" cy="180.6049" r="22.76379" gradientUnits="userSpaceOnUse" id="color-6"><stop offset="0" stop-color="#960000"/><stop offset="1" stop-color="#ff6666"/></radialGradient><linearGradient x1="236.53828" y1="196.82003" x2="236.53828" y2="205.7557" gradientUnits="userSpaceOnUse" id="color-7"><stop offset="0" stop-color="#ff0000"/><stop offset="1" stop-color="#000000"/></linearGradient><linearGradient x1="236.53828" y1="163.47474" x2="236.53828" y2="154.53908" gradientUnits="userSpaceOnUse" id="color-8"><stop offset="0" stop-color="#ff0000"/><stop offset="1" stop-color="#000000"/></linearGradient><linearGradient x1="202.44061" y1="180.29536" x2="230.60199" y2="180.29536" gradientUnits="userSpaceOnUse" id="color-9"><stop offset="0" stop-color="#eb0000"/><stop offset="1" stop-color="#ff8989"/></linearGradient><linearGradient x1="208.94416" y1="203.11296" x2="208.94416" y2="226.23813" gradientUnits="userSpaceOnUse" id="color-10"><stop offset="0" stop-color="#eb0000"/><stop offset="1" stop-color="#ffffff"/></linearGradient><linearGradient x1="208.33009" y1="134.96665" x2="208.33009" y2="158.09182" gradientUnits="userSpaceOnUse" id="color-11"><stop offset="0" stop-color="#ffffff"/><stop offset="1" stop-color="#eb0000"/></linearGradient><linearGradient x1="198.04599" y1="180" x2="215.48684" y2="180" gradientUnits="userSpaceOnUse" id="color-12"><stop offset="0" stop-color="#eb0000"/><stop offset="1" stop-color="#ffffff"/></linearGradient></defs><g transform="translate(-190.82378,-131.22036)"><g data-paper-data="{&quot;isPaintingLayer&quot;:true}" fill-rule="nonzero" stroke-linejoin="miter" stroke-miterlimit="10" stroke-dasharray="" stroke-dashoffset="0" style="mix-blend-mode: normal"><path d="M190.82378,228.77967v-97.5593h98.35247v97.5593z" fill="none" stroke="none" stroke-width="NaN" stroke-linecap="butt"/><path d="M191.61542,180c0,-21.71872 17.6065,-39.32521 39.32521,-39.32521c21.71872,0 39.32521,17.6065 39.32521,39.32521c0,21.71872 -17.6065,39.32521 -39.32521,39.32521c-21.71872,0 -39.32521,-17.6065 -39.32521,-39.32521z" fill="url(#color-1)" stroke="#000000" stroke-width="0" stroke-linecap="butt"/><path d="M240.19927,136.95467l11.93735,8.89941c0,0 -19.52529,25.57131 -19.52529,34.20827c0,8.12645 20.85093,33.28439 20.85093,33.28439l-11.25888,9.8233l-0.6035,-7.59735l-29.24836,-12.76908l0.09663,-45.32442l27.66428,-13.35556z" fill="url(#color-2)" stroke="none" stroke-width="NaN" stroke-linecap="butt"/><path d="M216.06467,180.00002c0,-13.21912 10.71622,-23.93534 23.93534,-23.93534c13.21912,0 23.93534,10.71622 23.93534,23.93534c0,13.21912 -10.71622,23.93534 -23.93534,23.93534c-13.21912,0 -23.93534,-10.71622 -23.93534,-23.93534z" fill="url(#color-3)" stroke="#000000" stroke-width="0" stroke-linecap="butt"/><path d="M246.16386,190.67261c0,-2.44128 1.97905,-4.42033 4.42033,-4.42033c2.44128,0 4.42033,1.97905 4.42033,4.42033c0,2.44128 -1.97905,4.42033 -4.42033,4.42033c-2.44128,0 -4.42033,-1.97905 -4.42033,-4.42033z" fill="#000000" stroke="#000000" stroke-width="0" stroke-linecap="butt"/><path d="M246.21309,169.32743c0,-2.44128 1.97905,-4.42033 4.42033,-4.42033c2.44128,0 4.42033,1.97905 4.42033,4.42033c0,2.44128 -1.97905,4.42033 -4.42033,4.42033c-2.44128,0 -4.42033,-1.97905 -4.42033,-4.42033z" fill="#000000" stroke="#000000" stroke-width="0" stroke-linecap="butt"/><path d="M257.23931,191.00075v-22.27848" fill="none" stroke="#000000" stroke-width="2" stroke-linecap="round"/><path d="M224.84419,203.87307c0,0 -1.02718,9.0917 -9.79322,13.77466c-11.63943,6.21796 -18.3721,-1.59116 -18.3721,-1.59116l13.95902,-8.09232l0.38358,-13.51339z" fill="url(#color-4)" stroke="none" stroke-width="0" stroke-linecap="butt"/><path d="M211.13005,166.71978l-0.38358,-13.51338l-13.95902,-8.09232c0,0 6.73268,-7.80912 18.37211,-1.59117c8.76604,4.68295 9.79322,13.77466 9.79322,13.77466z" data-paper-data="{&quot;index&quot;:null}" fill="url(#color-5)" stroke="none" stroke-width="0" stroke-linecap="butt"/><path d="M223.7476,203.36869c0,0 -9.76207,-2.8328 -9.80507,-22.74272c-0.03415,-15.81388 9.70675,-22.78486 9.70675,-22.78486l11.93169,3.58755c0,0 3.63767,11.27806 3.65466,19.14268c0.00894,4.139 -3.92529,18.80502 -3.92529,18.80502z" fill="url(#color-6)" stroke="none" stroke-width="0" stroke-linecap="butt"/><path d="M222.45562,196.82003l28.16532,8.93567" fill="none" stroke="url(#color-7)" stroke-width="5" stroke-linecap="round"/><path d="M250.62094,154.53908l-28.16532,8.93567" data-paper-data="{&quot;index&quot;:null}" fill="none" stroke="url(#color-8)" stroke-width="5" stroke-linecap="round"/><path d="M213.78818,203.05919c0,0 -11.10491,-6.9948 -11.34757,-22.76384c-0.24332,-15.81241 10.86225,-22.76384 10.86225,-22.76384l13.27607,3.61331c0,0 4.02305,11.28589 4.02305,19.15053c0,4.13901 -4.41562,18.7965 -4.41562,18.7965z" fill="url(#color-9)" stroke="none" stroke-width="0" stroke-linecap="butt"/><path d="M215.44811,226.23813l-10.83992,-10.11726l-2.16798,-13.00791l8.67194,8.67194z" fill="url(#color-10)" stroke="none" stroke-width="0" stroke-linecap="butt"/><path d="M210.49807,149.41987l-8.67193,8.67194l2.16798,-13.0079l10.83992,-10.11727z" data-paper-data="{&quot;index&quot;:null}" fill="url(#color-11)" stroke="none" stroke-width="0" stroke-linecap="butt"/><path d="M198.04599,180.54486l4.14092,-10.67921l10.24332,-3.0512l3.0566,13.07649l-2.62072,13.29461l-9.92699,-2.0972z" fill="url(#color-12)" stroke="#000000" stroke-width="0" stroke-linecap="butt"/></g></g></svg>