<svg version="1.1" xmlns="http://www.w3.org/2000/svg" xmlns:xlink="http://www.w3.org/1999/xlink" width="355" height="247.85478" viewBox="0,0,355,247.85478"><defs><radialGradient cx="218.33151" cy="79.97945" r="36.84521" gradientUnits="userSpaceOnUse" id="color-1"><stop offset="0" stop-color="#00b3ff" stop-opacity="0.19608"/><stop offset="1" stop-color="#00b3ff" stop-opacity="0"/></radialGradient><radialGradient cx="240.33151" cy="76.47945" r="36.84521" gradientUnits="userSpaceOnUse" id="color-2"><stop offset="0" stop-color="#ff0000" stop-opacity="0.19608"/><stop offset="1" stop-color="#ff0000" stop-opacity="0"/></radialGradient><radialGradient cx="183.83151" cy="98.47945" r="58.84521" gradientUnits="userSpaceOnUse" id="color-3"><stop offset="0" stop-color="#ff0000" stop-opacity="0.68627"/><stop offset="1" stop-color="#ff0000" stop-opacity="0"/></radialGradient><radialGradient cx="281.04521" cy="92.18082" r="56.10822" gradientUnits="userSpaceOnUse" id="color-4"><stop offset="0" stop-color="#00b3ff" stop-opacity="0.68627"/><stop offset="1" stop-color="#00b3ff" stop-opacity="0"/></radialGradient><radialGradient cx="266.69452" cy="222.34521" r="56.10822" gradientUnits="userSpaceOnUse" id="color-5"><stop offset="0" stop-color="#00b3ff" stop-opacity="0.68627"/><stop offset="1" stop-color="#00b3ff" stop-opacity="0"/></radialGradient><radialGradient cx="210.13014" cy="225.08219" r="58.84521" gradientUnits="userSpaceOnUse" id="color-6"><stop offset="0" stop-color="#ff0000" stop-opacity="0.68627"/><stop offset="1" stop-color="#ff0000" stop-opacity="0"/></radialGradient><radialGradient cx="351.73288" cy="207.74795" r="58.8452" gradientUnits="userSpaceOnUse" id="color-7"><stop offset="0" stop-color="#00b3ff" stop-opacity="0.68627"/><stop offset="1" stop-color="#00b3ff" stop-opacity="0"/></radialGradient><radialGradient cx="361.06713" cy="148.44658" r="57.93288" gradientUnits="userSpaceOnUse" id="color-8"><stop offset="0" stop-color="#00b3ff" stop-opacity="0.68627"/><stop offset="1" stop-color="#00b3ff" stop-opacity="0"/></radialGradient><radialGradient cx="329.13561" cy="97.86576" r="56.10822" gradientUnits="userSpaceOnUse" id="color-9"><stop offset="0" stop-color="#00b3ff" stop-opacity="0.68627"/><stop offset="1" stop-color="#00b3ff" stop-opacity="0"/></radialGradient><radialGradient cx="130.26713" cy="119.8137" r="58.8452" gradientUnits="userSpaceOnUse" id="color-10"><stop offset="0" stop-color="#ff0000" stop-opacity="0.68627"/><stop offset="1" stop-color="#ff0000" stop-opacity="0"/></radialGradient><radialGradient cx="121.93288" cy="191.11507" r="57.93288" gradientUnits="userSpaceOnUse" id="color-11"><stop offset="0" stop-color="#ff0000" stop-opacity="0.68627"/><stop offset="1" stop-color="#ff0000" stop-opacity="0"/></radialGradient><radialGradient cx="160.86439" cy="218.69589" r="56.10822" gradientUnits="userSpaceOnUse" id="color-12"><stop offset="0" stop-color="#ff0000" stop-opacity="0.68627"/><stop offset="1" stop-color="#ff0000" stop-opacity="0"/></radialGradient><linearGradient x1="112.70838" y1="164" x2="369.29177" y2="164" gradientUnits="userSpaceOnUse" id="color-13"><stop offset="0" stop-color="#ff0000"/><stop offset="1" stop-color="#00b3ff"/></linearGradient><linearGradient x1="369.29173" y1="164.00007" x2="269.75005" y2="164.00007" gradientUnits="userSpaceOnUse" id="color-14"><stop offset="0" stop-color="#00b3ff"/><stop offset="1" stop-color="#00b3ff" stop-opacity="0"/></linearGradient><linearGradient x1="112.70838" y1="164.00007" x2="212.25005" y2="164.00007" gradientUnits="userSpaceOnUse" id="color-15"><stop offset="0" stop-color="#ff0000"/><stop offset="1" stop-color="#ff0000" stop-opacity="0"/></linearGradient><linearGradient x1="241.00005" y1="88.75007" x2="241.00005" y2="239.25007" gradientUnits="userSpaceOnUse" id="color-16"><stop offset="0" stop-color="#ffffff" stop-opacity="0"/><stop offset="1" stop-color="#ffffff" stop-opacity="0.25098"/></linearGradient><linearGradient x1="129.47871" y1="189.61507" x2="129.47871" y2="210.70673" gradientUnits="userSpaceOnUse" id="color-17"><stop offset="0" stop-color="#ffffff" stop-opacity="0.4"/><stop offset="1" stop-color="#ffffff" stop-opacity="0"/></linearGradient><linearGradient x1="144.92811" y1="157.23699" x2="144.92811" y2="169.95062" gradientUnits="userSpaceOnUse" id="color-18"><stop offset="0" stop-color="#ffffff" stop-opacity="0.4"/><stop offset="1" stop-color="#ffffff" stop-opacity="0"/></linearGradient><linearGradient x1="142.57316" y1="96.15094" x2="142.57316" y2="131.32466" gradientUnits="userSpaceOnUse" id="color-19"><stop offset="0" stop-color="#ffffff" stop-opacity="0.4"/><stop offset="1" stop-color="#ffffff" stop-opacity="0"/></linearGradient><linearGradient x1="162.93288" y1="129.75824" x2="162.93288" y2="141.47188" gradientUnits="userSpaceOnUse" id="color-20"><stop offset="0" stop-color="#ffffff" stop-opacity="0.4"/><stop offset="1" stop-color="#ffffff" stop-opacity="0"/></linearGradient><linearGradient x1="142.72871" y1="225.61507" x2="142.72871" y2="237.20673" gradientUnits="userSpaceOnUse" id="color-21"><stop offset="0" stop-color="#ffffff" stop-opacity="0.4"/><stop offset="1" stop-color="#ffffff" stop-opacity="0"/></linearGradient><linearGradient x1="163.97871" y1="195.11507" x2="163.97871" y2="202.20673" gradientUnits="userSpaceOnUse" id="color-22"><stop offset="0" stop-color="#ffffff" stop-opacity="0.4"/><stop offset="1" stop-color="#ffffff" stop-opacity="0"/></linearGradient><linearGradient x1="122.47871" y1="139.11506" x2="122.47871" y2="148.20673" gradientUnits="userSpaceOnUse" id="color-23"><stop offset="0" stop-color="#ffffff" stop-opacity="0.4"/><stop offset="1" stop-color="#ffffff" stop-opacity="0"/></linearGradient><linearGradient x1="182.47871" y1="225.61507" x2="182.47871" y2="234.70673" gradientUnits="userSpaceOnUse" id="color-24"><stop offset="0" stop-color="#ffffff" stop-opacity="0.4"/><stop offset="1" stop-color="#ffffff" stop-opacity="0"/></linearGradient><linearGradient x1="172.47871" y1="155.61506" x2="172.47871" y2="164.70673" gradientUnits="userSpaceOnUse" id="color-25"><stop offset="0" stop-color="#ffffff" stop-opacity="0.4"/><stop offset="1" stop-color="#ffffff" stop-opacity="0"/></linearGradient><linearGradient x1="177.47871" y1="93.11506" x2="177.47871" y2="102.20673" gradientUnits="userSpaceOnUse" id="color-26"><stop offset="0" stop-color="#ffffff" stop-opacity="0.4"/><stop offset="1" stop-color="#ffffff" stop-opacity="0"/></linearGradient><linearGradient x1="349.52139" y1="139.20672" x2="349.52139" y2="118.11506" gradientUnits="userSpaceOnUse" id="color-27"><stop offset="0" stop-color="#ffffff" stop-opacity="0"/><stop offset="1" stop-color="#ffffff" stop-opacity="0.4"/></linearGradient><linearGradient x1="337.07199" y1="164.0848" x2="337.07199" y2="151.37115" gradientUnits="userSpaceOnUse" id="color-28"><stop offset="0" stop-color="#ffffff" stop-opacity="0"/><stop offset="1" stop-color="#ffffff" stop-opacity="0.4"/></linearGradient><linearGradient x1="339.42694" y1="234.17085" x2="339.42694" y2="198.99713" gradientUnits="userSpaceOnUse" id="color-29"><stop offset="0" stop-color="#ffffff" stop-opacity="0"/><stop offset="1" stop-color="#ffffff" stop-opacity="0.4"/></linearGradient><linearGradient x1="361.81722" y1="142.06354" x2="361.81722" y2="132.84991" gradientUnits="userSpaceOnUse" id="color-30"><stop offset="0" stop-color="#ffffff" stop-opacity="0"/><stop offset="1" stop-color="#ffffff" stop-opacity="0.4"/></linearGradient><linearGradient x1="356.56722" y1="192.56354" x2="356.56722" y2="180.8499" gradientUnits="userSpaceOnUse" id="color-31"><stop offset="0" stop-color="#ffffff" stop-opacity="0"/><stop offset="1" stop-color="#ffffff" stop-opacity="0.4"/></linearGradient><linearGradient x1="339.27139" y1="104.70672" x2="339.27139" y2="93.11506" gradientUnits="userSpaceOnUse" id="color-32"><stop offset="0" stop-color="#ffffff" stop-opacity="0"/><stop offset="1" stop-color="#ffffff" stop-opacity="0.4"/></linearGradient><linearGradient x1="318.02139" y1="135.20672" x2="318.02139" y2="128.11506" gradientUnits="userSpaceOnUse" id="color-33"><stop offset="0" stop-color="#ffffff" stop-opacity="0"/><stop offset="1" stop-color="#ffffff" stop-opacity="0.4"/></linearGradient><linearGradient x1="299.52139" y1="104.70672" x2="299.52139" y2="95.61506" gradientUnits="userSpaceOnUse" id="color-34"><stop offset="0" stop-color="#ffffff" stop-opacity="0"/><stop offset="1" stop-color="#ffffff" stop-opacity="0.4"/></linearGradient><linearGradient x1="309.52139" y1="174.70672" x2="309.52139" y2="165.61506" gradientUnits="userSpaceOnUse" id="color-35"><stop offset="0" stop-color="#ffffff" stop-opacity="0"/><stop offset="1" stop-color="#ffffff" stop-opacity="0.4"/></linearGradient><linearGradient x1="304.52139" y1="237.20672" x2="304.52139" y2="228.11506" gradientUnits="userSpaceOnUse" id="color-36"><stop offset="0" stop-color="#ffffff" stop-opacity="0"/><stop offset="1" stop-color="#ffffff" stop-opacity="0.4"/></linearGradient></defs><g transform="translate(-64,-36.07261)"><g data-paper-data="{&quot;isPaintingLayer&quot;:true}" fill-rule="nonzero" stroke-linecap="butt" stroke-linejoin="miter" stroke-miterlimit="10" stroke-dasharray="" stroke-dashoffset="0" style="mix-blend-mode: normal"><path d="M181.4863,79.97945c0,-20.34905 16.49616,-36.8452 36.8452,-36.8452c20.34904,0 36.84521,16.49616 36.84521,36.84521c0,20.34905 -16.49617,36.84521 -36.84521,36.84521c-20.34904,0 -36.8452,-16.49616 -36.8452,-36.84521z" fill="url(#color-1)" stroke="none" stroke-width="0"/><path d="M203.4863,76.47945c0,-20.34905 16.49616,-36.8452 36.8452,-36.8452c20.34904,0 36.84521,16.49616 36.84521,36.84521c0,20.34905 -16.49617,36.84521 -36.84521,36.84521c-20.34904,0 -36.8452,-16.49616 -36.8452,-36.84521z" fill="url(#color-2)" stroke="none" stroke-width="0"/><path d="M124.9863,98.47945c0,-32.49931 26.34589,-58.8452 58.8452,-58.8452c32.49931,0 58.84521,26.3459 58.84521,58.84521c0,32.49931 -26.3459,58.84521 -58.84521,58.84521c-32.49931,0 -58.8452,-26.3459 -58.8452,-58.84521z" fill="url(#color-3)" stroke="none" stroke-width="0"/><path d="M337.15343,92.18082c0,30.98771 -25.12051,56.10822 -56.10822,56.10822c-30.98772,0 -56.10822,-25.12051 -56.10822,-56.10822c0,-30.98771 25.12051,-56.10821 56.10822,-56.10821c30.98771,0 56.10822,25.1205 56.10822,56.10821z" data-paper-data="{&quot;index&quot;:null}" fill="url(#color-4)" stroke="none" stroke-width="0"/><path d="M322.80274,222.34521c0,30.98772 -25.1205,56.10822 -56.10822,56.10822c-30.98772,0 -56.10822,-25.1205 -56.10822,-56.10822c0,-30.98772 25.12051,-56.10822 56.10822,-56.10822c30.98771,0 56.10822,25.1205 56.10822,56.10822z" data-paper-data="{&quot;index&quot;:null}" fill="url(#color-5)" stroke="none" stroke-width="0"/><path d="M151.28493,225.08219c0,-32.49931 26.34589,-58.8452 58.8452,-58.8452c32.49931,0 58.84521,26.34589 58.84521,58.8452c0,32.49931 -26.3459,58.8452 -58.84521,58.8452c-32.49931,0 -58.8452,-26.34589 -58.8452,-58.8452z" fill="url(#color-6)" stroke="none" stroke-width="0"/><path d="M410.57808,207.74795c0,32.49931 -26.3459,58.8452 -58.84521,58.8452c-32.49931,0 -58.8452,-26.34589 -58.8452,-58.8452c0,-32.49931 26.34589,-58.8452 58.8452,-58.8452c32.49931,0 58.84521,26.34589 58.84521,58.8452z" data-paper-data="{&quot;index&quot;:null}" fill="url(#color-7)" stroke="none" stroke-width="0"/><path d="M419,148.44658c0,31.99544 -25.93743,57.93288 -57.93288,57.93288c-31.99545,0 -57.93288,-25.93743 -57.93288,-57.93287c0,-31.99545 25.93743,-57.93287 57.93288,-57.93287c31.99545,0 57.93288,25.93743 57.93288,57.93288z" data-paper-data="{&quot;index&quot;:null}" fill="url(#color-8)" stroke="none" stroke-width="0"/><path d="M385.24384,97.86576c0,30.98771 -25.12051,56.10822 -56.10822,56.10822c-30.98771,0 -56.10822,-25.12051 -56.10822,-56.10822c0,-30.98771 25.1205,-56.10822 56.10822,-56.10822c30.98771,0 56.10822,25.12051 56.10822,56.10822z" data-paper-data="{&quot;index&quot;:null}" fill="url(#color-9)" stroke="none" stroke-width="0"/><path d="M71.42192,119.8137c0,-32.49931 26.34589,-58.8452 58.8452,-58.8452c32.49931,0 58.8452,26.3459 58.8452,58.84521c0,32.49931 -26.34589,58.84521 -58.8452,58.84521c-32.49931,0 -58.8452,-26.3459 -58.8452,-58.84521z" fill="url(#color-10)" stroke="none" stroke-width="0"/><path d="M64,191.11507c0,-31.99544 25.93743,-57.93288 57.93288,-57.93288c31.99544,0 57.93288,25.93744 57.93288,57.93288c0,31.99544 -25.93744,57.93288 -57.93288,57.93288c-31.99545,0 -57.93287,-25.93743 -57.93287,-57.93287z" fill="url(#color-11)" stroke="none" stroke-width="0"/><path d="M104.75617,218.69589c0,-30.98772 25.1205,-56.10822 56.10822,-56.10822c30.98772,0 56.10822,25.1205 56.10822,56.10822c0,30.98772 -25.1205,56.10822 -56.10822,56.10822c-30.98772,0 -56.10822,-25.1205 -56.10822,-56.10822z" fill="url(#color-12)" stroke="none" stroke-width="0"/><path d="M120.70838,230.75007c-7.18676,-7.18603 -8,-17.53901 -8,-17.53901v-98.4082c0,0 0.93707,-10.73679 8.125,-17.92779c7.18793,-7.191 17.91667,-8.125 17.91667,-8.125h204.5c0,0 9.94724,0.4718 17.16667,7.625c7.21943,7.15321 8.875,18.17779 8.875,18.17779v98.97064c0,0 -1.29073,10.73869 -8.5,17.72657c-7.20927,6.98788 -18.04167,8 -18.04167,8h-204c0,0 -10.85491,-1.31397 -18.04167,-8.5z" fill="url(#color-13)" stroke="none" stroke-width="0"/><g stroke="none" stroke-width="0"><path d="M361.29173,97.25007c7.18676,7.18604 8,17.53901 8,17.53901v98.40821c0,0 -0.93707,10.7368 -8.125,17.92779c-7.18793,7.191 -17.91667,8.12499 -17.91667,8.12499h-73.5l73.5,-150.5c0,0 10.85491,1.31398 18.04167,8.5z" data-paper-data="{&quot;index&quot;:null}" fill="url(#color-14)"/><path d="M120.70837,230.75008c-7.18676,-7.18604 -7.99999,-17.53902 -7.99999,-17.53902v-98.40821c0,0 0.93708,-10.73679 8.125,-17.92779c7.18792,-7.19101 17.91667,-8.125 17.91667,-8.125h73.5l-73.5,150.5c0,0 -10.85491,-1.31397 -18.04167,-8.49999z" fill="url(#color-15)"/></g><path d="M120.70838,230.75007c-7.18676,-7.18603 -8,-17.53901 -8,-17.53901v-98.4082c0,0 0.93707,-10.73679 8.125,-17.92779c7.18793,-7.191 17.91667,-8.125 17.91667,-8.125h204.5c0,0 9.94724,0.4718 17.16667,7.625c7.21943,7.15321 8.875,18.17779 8.875,18.17779v98.97064c0,0 -1.29073,10.73869 -8.5,17.72657c-7.20927,6.98788 -18.04167,8 -18.04167,8h-204c0,0 -10.85491,-1.31397 -18.04167,-8.5z" data-paper-data="{&quot;index&quot;:null}" fill="url(#color-16)" stroke="none" stroke-width="0"/><text transform="translate(202.7384,143.0628) rotate(-8.14076) scale(0.77529,0.77529)" font-size="40" xml:space="preserve" fill="#ffffff" fill-rule="nonzero" stroke="none" stroke-width="1" stroke-linecap="butt" stroke-linejoin="miter" stroke-miterlimit="10" stroke-dasharray="" stroke-dashoffset="0" font-family="Sans Serif" font-weight="normal" text-anchor="start" style="mix-blend-mode: normal"><tspan x="0" dy="0">Turf War</tspan></text><text transform="translate(138.14853,218.09381) rotate(-8.14072) scale(1.7057,1.7057)" font-size="40" xml:space="preserve" data-paper-data="{&quot;index&quot;:null}" fill="#ffffff" fill-rule="nonzero" stroke="none" stroke-width="1" stroke-linecap="butt" stroke-linejoin="miter" stroke-miterlimit="10" stroke-dasharray="" stroke-dashoffset="0" font-family="Sans Serif" font-weight="normal" text-anchor="start" style="mix-blend-mode: normal"><tspan x="0" dy="0">Online</tspan></text><g data-paper-data="{&quot;index&quot;:null}" fill="#ffffff" stroke="none" stroke-width="0"><path d="M182.75343,149.44824c-5.93718,0.84931 -11.43873,-3.27522 -12.28803,-9.21242c-0.84931,-5.93718 3.27522,-11.43873 9.21243,-12.28802c5.93718,-0.84931 11.43873,3.27523 12.28803,9.21243c0.84931,5.93718 -3.27523,11.43872 -9.21243,12.28802z"/><path d="M161.41831,152.5002l-2.79171,-19.51583l21.99665,-3.14658l2.7917,19.51583z"/><path d="M161.08756,152.54752c-5.93718,0.84931 -11.43872,-3.27523 -12.28802,-9.21243c-0.84931,-5.93718 3.27523,-11.43872 9.21242,-12.28802c5.93718,-0.84931 11.43873,3.27523 12.28803,9.21243c0.84931,5.93718 -3.27523,11.43873 -9.21243,12.28802z"/><path d="M170.19864,140.45584c-6.35842,0.90956 -12.2503,-3.50762 -13.15985,-9.86605c-0.90956,-6.35842 3.50762,-12.25029 9.86605,-13.15985c6.35842,-0.90956 12.25029,3.50761 13.15984,9.86604c0.90956,6.35842 -3.50761,12.2503 -9.86604,13.15985z"/></g><g stroke="#ffffff" stroke-width="0"><path d="M118.93288,200.1609c0,-5.8243 4.72153,-10.54583 10.54583,-10.54583c5.8243,0 10.54583,4.72153 10.54583,10.54583c0,5.8243 -4.72153,10.54583 -10.54583,10.54583c-5.8243,0 -10.54583,-4.72153 -10.54583,-10.54583z" fill="url(#color-17)"/><path d="M138.57129,163.5938c0,-3.51077 2.84604,-6.35682 6.35682,-6.35682c3.51077,0 6.35682,2.84604 6.35682,6.35682c0,3.51077 -2.84604,6.35682 -6.35682,6.35682c-3.51077,0 -6.35682,-2.84604 -6.35682,-6.35682z" fill="url(#color-18)"/><path d="M124.9863,113.7378c0,-9.71296 7.87391,-17.58686 17.58686,-17.58686c9.71296,0 17.58686,7.87391 17.58686,17.58686c0,9.71296 -7.87391,17.58686 -17.58686,17.58686c-9.71296,0 -17.58686,-7.87391 -17.58686,-17.58686z" fill="url(#color-19)"/><path d="M157.07607,135.61506c0,-3.23463 2.62218,-5.85682 5.85681,-5.85682c3.23463,0 5.85682,2.62219 5.85682,5.85682c0,3.23463 -2.62219,5.85682 -5.85682,5.85682c-3.23463,0 -5.85681,-2.62219 -5.85681,-5.85682z" fill="url(#color-20)"/><path d="M136.93288,231.4109c0,-3.20095 2.59488,-5.79583 5.79583,-5.79583c3.20095,0 5.79583,2.59488 5.79583,5.79583c0,3.20095 -2.59488,5.79583 -5.79583,5.79583c-3.20095,0 -5.79583,-2.59488 -5.79583,-5.79583z" fill="url(#color-21)"/><path d="M160.43288,198.6609c0,-1.95831 1.58752,-3.54583 3.54583,-3.54583c1.95831,0 3.54583,1.58752 3.54583,3.54583c0,1.95831 -1.58752,3.54583 -3.54583,3.54583c-1.95831,0 -3.54583,-1.58752 -3.54583,-3.54583z" fill="url(#color-22)"/><path d="M117.93288,143.66089c0,-2.51059 2.03524,-4.54583 4.54583,-4.54583c2.51059,0 4.54583,2.03524 4.54583,4.54583c0,2.5106 -2.03523,4.54583 -4.54583,4.54583c-2.51059,0 -4.54583,-2.03523 -4.54583,-4.54583z" fill="url(#color-23)"/><path d="M177.93288,230.1609c0,-2.51059 2.03524,-4.54583 4.54583,-4.54583c2.51059,0 4.54583,2.03524 4.54583,4.54583c0,2.5106 -2.03523,4.54583 -4.54583,4.54583c-2.51059,0 -4.54583,-2.03523 -4.54583,-4.54583z" fill="url(#color-24)"/><path d="M167.93288,160.1609c0,-2.51059 2.03524,-4.54583 4.54583,-4.54583c2.51059,0 4.54583,2.03524 4.54583,4.54583c0,2.51059 -2.03523,4.54583 -4.54583,4.54583c-2.51059,0 -4.54583,-2.03523 -4.54583,-4.54583z" fill="url(#color-25)"/><path d="M172.93288,97.6609c0,-2.51059 2.03524,-4.54583 4.54583,-4.54583c2.51059,0 4.54583,2.03524 4.54583,4.54583c0,2.51059 -2.03523,4.54583 -4.54583,4.54583c-2.51059,0 -4.54583,-2.03523 -4.54583,-4.54583z" fill="url(#color-26)"/></g><g data-paper-data="{&quot;index&quot;:null}" stroke="#ffffff" stroke-width="0"><path d="M360.06722,128.66089c0,5.8243 -4.72153,10.54583 -10.54583,10.54583c-5.8243,0 -10.54583,-4.72153 -10.54583,-10.54583c0,-5.8243 4.72153,-10.54583 10.54583,-10.54583c5.8243,0 10.54583,4.72153 10.54583,10.54583z" fill="url(#color-27)"/><path d="M343.42881,157.72797c0,3.51077 -2.84604,6.35682 -6.35682,6.35682c-3.51077,0 -6.35682,-2.84604 -6.35682,-6.35682c0,-3.51077 2.84604,-6.35682 6.35682,-6.35682c3.51077,0 6.35682,2.84604 6.35682,6.35682z" fill="url(#color-28)"/><path d="M357.0138,216.58399c0,9.71296 -7.87391,17.58686 -17.58686,17.58686c-9.71296,0 -17.58686,-7.87391 -17.58686,-17.58686c0,-9.71296 7.87391,-17.58686 17.58686,-17.58686c9.71296,0 17.58686,7.87391 17.58686,17.58686z" fill="url(#color-29)"/><path d="M366.42404,137.45672c0,2.54428 -2.06254,4.60682 -4.60682,4.60682c-2.54428,0 -4.60682,-2.06254 -4.60682,-4.60682c0,-2.54428 2.06254,-4.60682 4.60682,-4.60682c2.54428,0 4.60682,2.06254 4.60682,4.60682z" fill="url(#color-30)"/><path d="M362.42403,186.70672c0,3.23463 -2.62218,5.85682 -5.85681,5.85682c-3.23463,0 -5.85682,-2.62219 -5.85682,-5.85682c0,-3.23463 2.62219,-5.85682 5.85682,-5.85682c3.23463,0 5.85681,2.62219 5.85681,5.85682z" fill="url(#color-31)"/><path d="M345.06722,98.91089c0,3.20095 -2.59488,5.79583 -5.79583,5.79583c-3.20095,0 -5.79583,-2.59488 -5.79583,-5.79583c0,-3.20095 2.59488,-5.79583 5.79583,-5.79583c3.20095,0 5.79583,2.59488 5.79583,5.79583z" fill="url(#color-32)"/><path d="M321.56722,131.66089c0,1.95831 -1.58752,3.54583 -3.54583,3.54583c-1.95831,0 -3.54583,-1.58752 -3.54583,-3.54583c0,-1.95831 1.58752,-3.54583 3.54583,-3.54583c1.95831,0 3.54583,1.58752 3.54583,3.54583z" fill="url(#color-33)"/><path d="M304.06722,100.16089c0,2.51059 -2.03523,4.54583 -4.54583,4.54583c-2.51059,0 -4.54583,-2.03523 -4.54583,-4.54583c0,-2.5106 2.03524,-4.54583 4.54583,-4.54583c2.5106,0 4.54583,2.03524 4.54583,4.54583z" fill="url(#color-34)"/><path d="M314.06722,170.16089c0,2.51059 -2.03523,4.54583 -4.54583,4.54583c-2.51059,0 -4.54583,-2.03524 -4.54583,-4.54583c0,-2.51059 2.03524,-4.54583 4.54583,-4.54583c2.5106,0 4.54583,2.03524 4.54583,4.54583z" fill="url(#color-35)"/><path d="M309.06722,232.66089c0,2.51059 -2.03523,4.54583 -4.54583,4.54583c-2.51059,0 -4.54583,-2.03524 -4.54583,-4.54583c0,-2.51059 2.03524,-4.54583 4.54583,-4.54583c2.5106,0 4.54583,2.03524 4.54583,4.54583z" fill="url(#color-36)"/></g></g></g></svg>