<svg version="1.1" xmlns="http://www.w3.org/2000/svg" xmlns:xlink="http://www.w3.org/1999/xlink" width="77" height="77" viewBox="0,0,77,77"><defs><linearGradient x1="240" y1="145" x2="240" y2="215" gradientUnits="userSpaceOnUse" id="color-1"><stop offset="0" stop-color="#fff387"/><stop offset="1" stop-color="#f9ca3a"/></linearGradient></defs><g transform="translate(-201.5,-141.5)"><g data-paper-data="{&quot;isPaintingLayer&quot;:true}" fill-rule="nonzero" stroke-linejoin="miter" stroke-miterlimit="10" stroke-dasharray="" stroke-dashoffset="0" style="mix-blend-mode: normal"><path d="M205,180c0,-19.32997 15.67003,-35 35,-35c19.32997,0 35,15.67003 35,35c0,19.32997 -15.67003,35 -35,35c-19.32997,0 -35,-15.67003 -35,-35z" fill="url(#color-1)" stroke="none" stroke-width="0" stroke-linecap="butt"/><path d="M201.5,218.5v-77h77v77z" fill="none" stroke="none" stroke-width="0" stroke-linecap="butt"/><path d="M220.30689,173.82117c0,-2.67807 2.17098,-4.84906 4.84906,-4.84906c2.67807,0 4.84906,2.17098 4.84906,4.84906c0,2.67807 -2.17098,4.84906 -4.84906,4.84906c-2.67807,0 -4.84906,-2.17098 -4.84906,-4.84906z" fill="#000000" stroke="none" stroke-width="0" stroke-linecap="butt"/><path d="M249.995,173.82117c0,-2.67807 2.17098,-4.84906 4.84906,-4.84906c2.67805,0 4.84906,2.17098 4.84906,4.84906c0,2.67807 -2.17098,4.84906 -4.84906,4.84906c-2.67807,0 -4.84906,-2.17098 -4.84906,-4.84906z" fill="#000000" stroke="none" stroke-width="0" stroke-linecap="butt"/><path d="M218.226,185.69759h45" fill="none" stroke="#000000" stroke-width="2.5" stroke-linecap="round"/></g></g></svg>