<svg version="1.1" xmlns="http://www.w3.org/2000/svg" xmlns:xlink="http://www.w3.org/1999/xlink" width="661.1656" height="551.80179" viewBox="0,0,661.1656,551.80179"><defs><radialGradient cx="17.80782" cy="51.14114" r="77.26776" gradientUnits="userSpaceOnUse" id="color-1"><stop offset="0" stop-color="#ffffff" stop-opacity="0.28548"/><stop offset="1" stop-color="#ffffff" stop-opacity="0"/></radialGradient><radialGradient cx="162.44746" cy="-12.92793" r="77.26776" gradientUnits="userSpaceOnUse" id="color-2"><stop offset="0" stop-color="#ffffff" stop-opacity="0.28548"/><stop offset="1" stop-color="#ffffff" stop-opacity="0"/></radialGradient><radialGradient cx="304.0841" cy="-19.93994" r="77.26776" gradientUnits="userSpaceOnUse" id="color-3"><stop offset="0" stop-color="#ffffff" stop-opacity="0.28548"/><stop offset="1" stop-color="#ffffff" stop-opacity="0"/></radialGradient><radialGradient cx="444.21923" cy="22.5976" r="77.26776" gradientUnits="userSpaceOnUse" id="color-4"><stop offset="0" stop-color="#ffffff" stop-opacity="0.28548"/><stop offset="1" stop-color="#ffffff" stop-opacity="0"/></radialGradient><radialGradient cx="465.73575" cy="162.73274" r="77.26776" gradientUnits="userSpaceOnUse" id="color-5"><stop offset="0" stop-color="#ffffff" stop-opacity="0.28548"/><stop offset="1" stop-color="#ffffff" stop-opacity="0"/></radialGradient><radialGradient cx="437.70271" cy="293.85886" r="77.26776" gradientUnits="userSpaceOnUse" id="color-6"><stop offset="0" stop-color="#ffffff" stop-opacity="0.28548"/><stop offset="1" stop-color="#ffffff" stop-opacity="0"/></radialGradient><radialGradient cx="277.53755" cy="355.91592" r="77.26776" gradientUnits="userSpaceOnUse" id="color-7"><stop offset="0" stop-color="#ffffff" stop-opacity="0.28548"/><stop offset="1" stop-color="#ffffff" stop-opacity="0"/></radialGradient><radialGradient cx="123.37839" cy="342.8979" r="77.26776" gradientUnits="userSpaceOnUse" id="color-8"><stop offset="0" stop-color="#ffffff" stop-opacity="0.28548"/><stop offset="1" stop-color="#ffffff" stop-opacity="0"/></radialGradient><radialGradient cx="8.25827" cy="223.27327" r="77.26776" gradientUnits="userSpaceOnUse" id="color-9"><stop offset="0" stop-color="#ffffff" stop-opacity="0.28548"/><stop offset="1" stop-color="#ffffff" stop-opacity="0"/></radialGradient><radialGradient cx="-7.24688" cy="192.13465" r="68.86451" gradientUnits="userSpaceOnUse" id="color-10"><stop offset="0" stop-color="#ff0000" stop-opacity="0.35067"/><stop offset="1" stop-color="#ff0000" stop-opacity="0"/></radialGradient><radialGradient cx="475.85406" cy="2.64839" r="78.46782" gradientUnits="userSpaceOnUse" id="color-11"><stop offset="0" stop-color="#ff0000" stop-opacity="0.35067"/><stop offset="1" stop-color="#ff0000" stop-opacity="0"/></radialGradient><radialGradient cx="-8.49944" cy="5.47032" r="66.00665" gradientUnits="userSpaceOnUse" id="color-12"><stop offset="0" stop-color="#ff0000" stop-opacity="0.35484"/><stop offset="1" stop-color="#ff0000" stop-opacity="0"/></radialGradient><radialGradient cx="231.90403" cy="-13.24824" r="56.21669" gradientUnits="userSpaceOnUse" id="color-13"><stop offset="0" stop-color="#ff0000" stop-opacity="0.35067"/><stop offset="1" stop-color="#ff0000" stop-opacity="0"/></radialGradient><radialGradient cx="318.10256" cy="387.30293" r="67.28927" gradientUnits="userSpaceOnUse" id="color-14"><stop offset="0" stop-color="#ff0000" stop-opacity="0.35067"/><stop offset="1" stop-color="#ff0000" stop-opacity="0"/></radialGradient><radialGradient cx="462.27461" cy="335.44169" r="91.71499" gradientUnits="userSpaceOnUse" id="color-15"><stop offset="0" stop-color="#ff0000" stop-opacity="0.35484"/><stop offset="1" stop-color="#ff0000" stop-opacity="0"/></radialGradient><radialGradient cx="7.41164" cy="344.9445" r="67.14745" gradientUnits="userSpaceOnUse" id="color-16"><stop offset="0" stop-color="#ff0000" stop-opacity="0.35067"/><stop offset="1" stop-color="#ff0000" stop-opacity="0"/></radialGradient><radialGradient cx="189.12142" cy="385.71334" r="67.14745" gradientUnits="userSpaceOnUse" id="color-17"><stop offset="0" stop-color="#ff0000" stop-opacity="0.35067"/><stop offset="1" stop-color="#ff0000" stop-opacity="0"/></radialGradient><radialGradient cx="490.24054" cy="154.69389" r="72.44004" gradientUnits="userSpaceOnUse" id="color-18"><stop offset="0" stop-color="#ff0000" stop-opacity="0.35067"/><stop offset="1" stop-color="#ff0000" stop-opacity="0"/></radialGradient></defs><g transform="translate(76.11228,97.20871)"><g data-paper-data="{&quot;isPaintingLayer&quot;:true}" fill-rule="nonzero" stroke="none" stroke-width="0" stroke-linecap="butt" stroke-linejoin="miter" stroke-miterlimit="10" stroke-dasharray="" stroke-dashoffset="0" style="mix-blend-mode: normal"><g data-paper-data="{&quot;index&quot;:null}"><path d="M-59.40749,53.98775c-1.57214,-42.64483 31.72387,-78.48978 74.3687,-80.06192c42.64483,-1.57214 78.48978,31.72387 80.06192,74.3687c1.57214,42.64483 -31.72387,78.48978 -74.3687,80.06192c-42.64483,1.57214 -78.48978,-31.72387 -80.06192,-74.3687z" data-paper-data="{&quot;index&quot;:null}" fill="url(#color-1)"/><path d="M85.23215,-10.08132c-1.57214,-42.64483 31.72387,-78.48978 74.3687,-80.06192c42.64483,-1.57214 78.48978,31.72387 80.06192,74.3687c1.57214,42.64483 -31.72387,78.48978 -74.3687,80.06192c-42.64483,1.57214 -78.48978,-31.72387 -80.06192,-74.3687z" data-paper-data="{&quot;index&quot;:null}" fill="url(#color-2)"/><path d="M226.86879,-17.09333c-1.57214,-42.64483 31.72387,-78.48978 74.3687,-80.06192c42.64483,-1.57214 78.48978,31.72387 80.06192,74.3687c1.57214,42.64483 -31.72387,78.48978 -74.3687,80.06192c-42.64483,1.57214 -78.48978,-31.72387 -80.06192,-74.3687z" data-paper-data="{&quot;index&quot;:null}" fill="url(#color-3)"/><path d="M367.00392,25.44421c-1.57214,-42.64483 31.72387,-78.48978 74.3687,-80.06192c42.64483,-1.57214 78.48978,31.72387 80.06192,74.3687c1.57214,42.64483 -31.72387,78.48978 -74.3687,80.06192c-42.64483,1.57214 -78.48978,-31.72387 -80.06192,-74.3687z" data-paper-data="{&quot;index&quot;:null}" fill="url(#color-4)"/><path d="M388.52044,165.57935c-1.57214,-42.64483 31.72387,-78.48978 74.3687,-80.06192c42.64483,-1.57214 78.48978,31.72387 80.06192,74.3687c1.57214,42.64483 -31.72387,78.48978 -74.3687,80.06192c-42.64483,1.57214 -78.48978,-31.72387 -80.06192,-74.3687z" data-paper-data="{&quot;index&quot;:null}" fill="url(#color-5)"/><path d="M360.4874,296.70547c-1.57214,-42.64483 31.72387,-78.48978 74.3687,-80.06192c42.64483,-1.57214 78.48978,31.72387 80.06192,74.3687c1.57214,42.64483 -31.72387,78.48978 -74.3687,80.06192c-42.64483,1.57214 -78.48978,-31.72387 -80.06192,-74.3687z" data-paper-data="{&quot;index&quot;:null}" fill="url(#color-6)"/><path d="M200.32224,358.76253c-1.57214,-42.64483 31.72387,-78.48978 74.3687,-80.06192c42.64483,-1.57214 78.48978,31.72387 80.06192,74.3687c1.57214,42.64483 -31.72387,78.48978 -74.3687,80.06192c-42.64483,1.57214 -78.48978,-31.72387 -80.06192,-74.3687z" data-paper-data="{&quot;index&quot;:null}" fill="url(#color-7)"/><path d="M46.16308,345.74451c-1.57214,-42.64483 31.72387,-78.48978 74.3687,-80.06192c42.64483,-1.57214 78.48978,31.72387 80.06192,74.3687c1.57214,42.64483 -31.72387,78.48978 -74.3687,80.06192c-42.64483,1.57214 -78.48978,-31.72387 -80.06192,-74.3687z" data-paper-data="{&quot;index&quot;:null}" fill="url(#color-8)"/><path d="M-68.95704,226.11988c-1.57214,-42.64483 31.72387,-78.48978 74.3687,-80.06192c42.64483,-1.57214 78.48978,31.72387 80.06192,74.3687c1.57214,42.64483 -31.72387,78.48978 -74.3687,80.06192c-42.64483,1.57214 -78.48978,-31.72387 -80.06192,-74.3687z" data-paper-data="{&quot;index&quot;:null}" fill="url(#color-9)"/></g><path d="M-76.06463,194.67167c-1.40117,-38.007 28.27373,-69.95361 66.28073,-71.35478c38.00701,-1.40117 69.95362,28.27373 71.35479,66.28073c1.40116,38.007 -28.27373,69.95362 -66.28074,71.35478c-38.007,1.40116 -69.95361,-28.27373 -71.35478,-66.28073z" data-paper-data="{&quot;index&quot;:null}" fill="url(#color-10)"/><path d="M397.4395,5.5392c-1.59656,-43.30716 32.21657,-79.70882 75.52373,-81.30537c43.30716,-1.59655 79.70882,32.21658 81.30537,75.52374c1.59655,43.30716 -32.21658,79.70882 -75.52373,81.30538c-43.30716,1.59655 -79.70882,-32.21657 -81.30537,-75.52373z" data-paper-data="{&quot;index&quot;:null}" fill="url(#color-11)"/><path d="M359.6737,5.62136c-0.42771,-11.60171 8.63061,-21.35347 20.23232,-21.78118c11.60171,-0.42771 21.35347,8.63061 21.78118,20.23232c0.42771,11.60171 -8.63061,21.35347 -20.23232,21.78118c-11.60171,0.42771 -21.35348,-8.63062 -21.78118,-20.23232z" data-paper-data="{&quot;index&quot;:null}" fill-opacity="0.24704" fill="#ff0000"/><path d="M312.26279,32.47794l26.83988,-111.99117l16.02592,12.40326z" data-paper-data="{&quot;index&quot;:null}" fill-opacity="0.57255" fill="#ff3333"/><path d="M-74.46128,7.90206c-1.34301,-36.42971 27.10039,-67.05057 63.5301,-68.39358c36.42971,-1.34302 67.05057,27.10039 68.39359,63.5301c1.34302,36.42971 -27.10039,67.05057 -63.5301,68.39358c-36.42971,1.34301 -67.05057,-27.10039 -68.39358,-63.5301z" data-paper-data="{&quot;index&quot;:null}" fill="url(#color-12)"/><path d="M175.72549,-11.17717c-1.14382,-31.02654 23.08091,-57.10578 54.10746,-58.2496c31.02655,-1.14382 57.10578,23.0809 58.24961,54.10746c1.14382,31.02655 -23.08091,57.10578 -54.10746,58.24961c-31.02654,1.14382 -57.10578,-23.0809 -58.2496,-54.10746z" data-paper-data="{&quot;index&quot;:null}" fill="url(#color-13)"/><path d="M-31.285,-9.90647c-0.85756,-23.26159 17.30451,-42.81402 40.56609,-43.67158c23.26159,-0.85756 42.81402,17.30451 43.67158,40.56609c0.85756,23.26159 -17.3045,42.81402 -40.56607,43.67158c-23.26159,0.85756 -42.81402,-17.3045 -43.67158,-40.56607z" data-paper-data="{&quot;index&quot;:null}" fill-opacity="0.24704" fill="#ff0000"/><path d="M-57.39553,138.86851c-0.70487,-19.11998 14.22351,-35.1912 33.34349,-35.89607c19.11998,-0.70487 35.1912,14.22351 35.89607,33.34349c0.70487,19.11998 -14.22351,35.1912 -33.34348,35.89607c-19.11998,0.70487 -35.1912,-14.22351 -35.89607,-33.34349z" data-paper-data="{&quot;index&quot;:null}" fill-opacity="0.24704" fill="#ff0000"/><path d="M86.02489,-6.11552c-0.36653,-9.94239 7.39622,-18.29941 17.3386,-18.66594c9.9424,-0.36654 18.29941,7.39622 18.66594,17.33862c0.36654,9.9424 -7.39622,18.29941 -17.3386,18.66594c-9.94239,0.36653 -18.29941,-7.39622 -18.66594,-17.3386z" data-paper-data="{&quot;index&quot;:null}" fill-opacity="0.24704" fill="#ff0000"/><path d="M177.09026,-14.34989c-0.60619,-16.44318 12.23221,-30.26442 28.6754,-30.87061c16.44318,-0.60619 30.26442,12.23222 30.87061,28.67541c0.60619,16.44318 -12.23223,30.26443 -28.6754,30.87062c-16.44318,0.60619 -30.26441,-12.23223 -30.8706,-28.6754z" data-paper-data="{&quot;index&quot;:null}" fill-opacity="0.24704" fill="#ff0000"/><path d="M72.25786,37.50269c-0.15507,-4.20639 3.12917,-7.74206 7.33556,-7.89713c4.20639,-0.15507 7.74206,3.12916 7.89713,7.33556c0.15507,4.20639 -3.12917,7.74206 -7.33556,7.89713c-4.20639,0.15507 -7.74206,-3.12916 -7.89713,-7.33556z" data-paper-data="{&quot;index&quot;:null}" fill-opacity="0.24704" fill="#ff0000"/><path d="M250.85898,389.78193c-1.36911,-37.13761 27.62699,-68.35347 64.76459,-69.72258c37.13761,-1.36911 68.35347,27.62699 69.72259,64.76459c1.36911,37.13761 -27.62699,68.35347 -64.76459,69.72258c-37.13761,1.36911 -68.35347,-27.62699 -69.72259,-64.76459z" data-paper-data="{&quot;index&quot;:null}" fill="url(#color-14)"/><path d="M370.62187,338.82055c-1.86609,-50.6184 37.65547,-93.16549 88.27388,-95.03158c50.61841,-1.8661 93.16549,37.65547 95.03159,88.27388c1.86609,50.61841 -37.65547,93.16549 -88.27386,95.03158c-50.6184,1.86609 -93.1655,-37.65546 -95.0316,-88.27386z" data-paper-data="{&quot;index&quot;:null}" fill="url(#color-15)"/><path d="M-59.69023,347.41827c-1.36622,-37.05934 27.56876,-68.2094 64.62809,-69.57563c37.05934,-1.36622 68.2094,27.56876 69.57563,64.62809c1.36623,37.05934 -27.56876,68.20941 -64.62809,69.57563c-37.05934,1.36622 -68.2094,-27.56876 -69.57563,-64.62809z" data-paper-data="{&quot;index&quot;:null}" fill="url(#color-16)"/><path d="M122.01957,388.18711c-1.36622,-37.05934 27.56876,-68.20941 64.62809,-69.57563c37.05934,-1.36622 68.20941,27.56876 69.57563,64.62809c1.36622,37.05934 -27.56876,68.20941 -64.62808,69.57563c-37.05934,1.36622 -68.2094,-27.56876 -69.57563,-64.62809z" data-paper-data="{&quot;index&quot;:null}" fill="url(#color-17)"/><path d="M-8.10401,351.92074c-0.70712,-19.18082 14.26878,-35.30318 33.4496,-36.0103c19.18082,-0.70712 35.30318,14.26878 36.0103,33.4496c0.70712,19.18082 -14.26877,35.30317 -33.44959,36.01029c-19.18082,0.70712 -35.30318,-14.26878 -36.0103,-33.44959z" data-paper-data="{&quot;index&quot;:null}" fill-opacity="0.24704" fill="#ff0000"/><path d="M81.4159,359.86106c-0.41013,-11.12488 8.27589,-20.47584 19.40076,-20.88597c11.12488,-0.41013 20.47584,8.27589 20.88597,19.40076c0.41013,11.12488 -8.27589,20.47584 -19.40075,20.88597c-11.12488,0.41013 -20.47584,-8.27589 -20.88597,-19.40076z" data-paper-data="{&quot;index&quot;:null}" fill-opacity="0.24704" fill="#ff0000"/><path d="M-65.93824,440.41008l147.03636,-111.12646l-122.46108,123.66393z" data-paper-data="{&quot;index&quot;:null}" fill-opacity="0.57255" fill="#c80000"/><path d="M181.5296,384.87771c-0.80611,-21.86613 16.26641,-40.24563 38.13254,-41.05174c21.86613,-0.80611 40.24562,16.26641 41.05173,38.13255c0.80611,21.86613 -16.26642,40.24562 -38.13254,41.05173c-21.86613,0.80611 -40.24562,-16.26642 -41.05173,-38.13254z" data-paper-data="{&quot;index&quot;:null}" fill-opacity="0.24704" fill="#ff0000"/><path d="M417.84968,157.36264c-1.47391,-39.98037 29.74174,-73.5857 69.72211,-75.05962c39.98037,-1.47391 73.5857,29.74174 75.05962,69.72211c1.47391,39.98037 -29.74174,73.58569 -69.72211,75.05961c-39.98037,1.47391 -73.5857,-29.74174 -75.05962,-69.7221z" data-paper-data="{&quot;index&quot;:null}" fill="url(#color-18)"/><path d="M410.79972,331.53059c-1.07709,-29.21642 21.73436,-53.77418 50.95078,-54.85127c29.21642,-1.07709 53.77417,21.73436 54.85126,50.95078c1.07709,29.21642 -21.73436,53.77417 -50.95077,54.85126c-29.21642,1.07709 -53.77418,-21.73436 -54.85127,-50.95077z" data-paper-data="{&quot;index&quot;:null}" fill-opacity="0.24704" fill="#ff0000"/><path d="M450.96919,264.69826c-0.46768,-12.68608 9.43728,-23.34931 22.12336,-23.81699c12.68608,-0.46768 23.34931,9.43728 23.81699,22.12336c0.46768,12.68608 -9.43728,23.34931 -22.12336,23.81699c-12.68608,0.46768 -23.34931,-9.43728 -23.81699,-22.12336z" data-paper-data="{&quot;index&quot;:null}" fill-opacity="0.24704" fill="#ff0000"/><path d="M391.21495,308.01091c-0.31179,-8.45739 6.29152,-15.56621 14.74891,-15.878c8.45739,-0.31179 15.5662,6.29152 15.87799,14.74891c0.31179,8.45739 -6.29152,15.5662 -14.7489,15.87799c-8.45739,0.31179 -15.56621,-6.29151 -15.878,-14.7489z" data-paper-data="{&quot;index&quot;:null}" fill-opacity="0.24704" fill="#ff0000"/><path d="M585.05332,172.3755l-161.18529,-13.45596l158.67171,-4.54983z" data-paper-data="{&quot;index&quot;:null}" fill-opacity="0.57255" fill="#ff2929"/></g></g></svg>