<svg version="1.1" xmlns="http://www.w3.org/2000/svg" xmlns:xlink="http://www.w3.org/1999/xlink" width="532" height="410.1306" viewBox="0,0,532,410.1306"><defs><linearGradient x1="239.5" y1="-18.5" x2="239.5" y2="366.5" gradientUnits="userSpaceOnUse" id="color-1"><stop offset="0" stop-color="#ffbb00"/><stop offset="1" stop-color="#ff0000"/></linearGradient><radialGradient cx="170.08414" cy="58.1564" r="53.03958" gradientUnits="userSpaceOnUse" id="color-2"><stop offset="0" stop-color="#ffa195"/><stop offset="1" stop-color="#ffa195" stop-opacity="0"/></radialGradient><radialGradient cx="171.99657" cy="56.97063" r="95.37842" gradientUnits="userSpaceOnUse" id="color-3"><stop offset="0" stop-color="#fffdf3"/><stop offset="1" stop-color="#fffdf3" stop-opacity="0"/></radialGradient><radialGradient cx="170.08415" cy="58.1564" r="170.87053" gradientUnits="userSpaceOnUse" id="color-4"><stop offset="0" stop-color="#fffdf3"/><stop offset="1" stop-color="#fffdf3" stop-opacity="0"/></radialGradient><radialGradient cx="170.08414" cy="58.1564" r="101.787" gradientUnits="userSpaceOnUse" id="color-5"><stop offset="0" stop-color="#ffffff"/><stop offset="1" stop-color="#ffffff" stop-opacity="0"/></radialGradient><radialGradient cx="170.08414" cy="58.1564" r="54.04495" gradientUnits="userSpaceOnUse" id="color-6"><stop offset="0" stop-color="#fff7d1"/><stop offset="1" stop-color="#fff7d1" stop-opacity="0"/></radialGradient><radialGradient cx="170.08414" cy="58.1564" r="39.63913" gradientUnits="userSpaceOnUse" id="color-7"><stop offset="0" stop-color="#ffffff"/><stop offset="1" stop-color="#ffffff" stop-opacity="0"/></radialGradient></defs><g transform="translate(26.5,43.6306)"><g data-paper-data="{&quot;isPaintingLayer&quot;:true}" fill-rule="nonzero" stroke-width="0" stroke-linecap="butt" stroke-linejoin="miter" stroke-miterlimit="10" stroke-dasharray="" stroke-dashoffset="0" style="mix-blend-mode: normal"><path d="M-26.5,366.5v-385h532v385z" fill="url(#color-1)" stroke="#8f8f8f"/><path d="M117.04455,58.1564c0,-29.29296 23.74663,-53.03958 53.03958,-53.03958c29.29296,0 53.03958,23.74663 53.03958,53.03958c0,29.29296 -23.74663,53.03958 -53.03958,53.03958c-29.29296,0 -53.03958,-23.74663 -53.03958,-53.03958z" fill="url(#color-2)" stroke="none"/><path d="M119.82335,-22.90466l59.63122,78.85172l40.89036,83.27042l-52.4075,-75.74154z" fill="url(#color-3)" stroke="none"/><path d="M1.46881,30.35556l175.47903,20.66676l160.79029,40.2423l-163.14762,-23.91468z" fill="url(#color-4)" stroke="none"/><path d="M68.29715,58.1564c0,-56.21541 45.5716,-101.787 101.787,-101.787c56.2154,0 101.787,45.57158 101.787,101.787c0,56.21541 -45.5716,101.787 -101.787,101.787c-56.21541,0 -101.787,-45.5716 -101.787,-101.787z" fill="url(#color-5)" stroke="none"/><path d="M116.03917,58.1564c0,-29.84821 24.19675,-54.04495 54.04495,-54.04495c29.84821,0 54.04495,24.19675 54.04495,54.04495c0,29.84821 -24.19675,54.04495 -54.04495,54.04495c-29.84821,0 -54.04495,-24.19675 -54.04495,-54.04495z" fill="url(#color-6)" stroke="none"/><path d="M130.44501,58.1564c0,-21.89209 17.74705,-39.63914 39.63914,-39.63914c21.89209,0 39.63913,17.74705 39.63913,39.63914c0,21.89209 -17.74704,39.63914 -39.63913,39.63914c-21.89209,0 -39.63914,-17.74705 -39.63914,-39.63914z" fill="url(#color-7)" stroke="none"/></g></g></svg>