<svg version="1.1" xmlns="http://www.w3.org/2000/svg" xmlns:xlink="http://www.w3.org/1999/xlink" width="79.44786" height="79.28134" viewBox="0,0,79.44786,79.28134"><defs><radialGradient cx="240" cy="180.00004" r="33.99909" gradientUnits="userSpaceOnUse" id="color-1"><stop offset="0" stop-color="#000000"/><stop offset="1" stop-color="#000000" stop-opacity="0"/></radialGradient><linearGradient x1="241.74888" y1="181.07558" x2="241.74888" y2="211.34522" gradientUnits="userSpaceOnUse" id="color-2"><stop offset="0" stop-color="#ff2727"/><stop offset="1" stop-color="#cc0000"/></linearGradient><linearGradient x1="241.74888" y1="148.65479" x2="241.74888" y2="178.92445" gradientUnits="userSpaceOnUse" id="color-3"><stop offset="0" stop-color="#ff2727"/><stop offset="1" stop-color="#cc0000"/></linearGradient><linearGradient x1="226.63656" y1="164.86523" x2="226.63656" y2="195.13487" gradientUnits="userSpaceOnUse" id="color-4"><stop offset="0" stop-color="#ff2727"/><stop offset="1" stop-color="#cc0000"/></linearGradient><linearGradient x1="230.04693" y1="196.2104" x2="259.5483" y2="196.2104" gradientUnits="userSpaceOnUse" id="color-5"><stop offset="0" stop-color="#ffd2d2"/><stop offset="1" stop-color="#ff1717"/></linearGradient><linearGradient x1="230.04693" y1="163.78962" x2="259.5483" y2="163.78962" gradientUnits="userSpaceOnUse" id="color-6"><stop offset="0" stop-color="#ffd2d2"/><stop offset="1" stop-color="#ff1717"/></linearGradient><linearGradient x1="214.93462" y1="180.00005" x2="244.43597" y2="180.00005" gradientUnits="userSpaceOnUse" id="color-7"><stop offset="0" stop-color="#ffffff"/><stop offset="1" stop-color="#ffa6a6"/></linearGradient><linearGradient x1="230.04695" y1="179.92319" x2="259.54832" y2="179.92319" gradientUnits="userSpaceOnUse" id="color-8"><stop offset="0" stop-color="#ffd2d2"/><stop offset="1" stop-color="#ff1717"/></linearGradient><linearGradient x1="244.49033" y1="151.11324" x2="244.49033" y2="159.43088" gradientUnits="userSpaceOnUse" id="color-9"><stop offset="0" stop-color="#ffffff"/><stop offset="1" stop-color="#ffffff" stop-opacity="0"/></linearGradient><linearGradient x1="225.53191" y1="167.36424" x2="227.5658" y2="173.58573" gradientUnits="userSpaceOnUse" id="color-10"><stop offset="0" stop-color="#ffffff"/><stop offset="1" stop-color="#ffffff" stop-opacity="0"/></linearGradient></defs><g transform="translate(-200.27607,-140.35933)"><g data-paper-data="{&quot;isPaintingLayer&quot;:true}" fill-rule="nonzero" stroke-linejoin="miter" stroke-miterlimit="10" stroke-dasharray="" stroke-dashoffset="0" style="mix-blend-mode: normal"><path d="M240,213.99914c-18.77718,0 -33.99909,-15.22192 -33.99909,-33.9991c0,-18.77718 15.22191,-33.99909 33.99909,-33.99909c18.77718,0 33.99909,15.22191 33.99909,33.99909c0,18.77718 -15.22191,33.9991 -33.99909,33.9991z" fill="url(#color-1)" stroke="none" stroke-width="0" stroke-linecap="butt"/><path d="M241.74888,181.07558c8.14658,0 14.75068,6.77609 14.75068,15.13482c0,8.35873 -6.60412,15.13482 -14.75068,15.13482c-8.14658,0 -14.75068,-6.77608 -14.75068,-15.13482c0,-8.35873 6.60412,-15.13482 14.75068,-15.13482z" fill="url(#color-2)" stroke="none" stroke-width="0" stroke-linecap="butt"/><path d="M241.74888,148.65479c8.14658,0 14.75068,6.77608 14.75068,15.13482c0,8.35873 -6.60412,15.13484 -14.75068,15.13484c-8.14658,0 -14.75068,-6.7761 -14.75068,-15.13484c0,-8.35873 6.60412,-15.13482 14.75068,-15.13482z" fill="url(#color-3)" stroke="none" stroke-width="0" stroke-linecap="butt"/><path d="M226.63655,164.86523c8.14658,0 14.75068,6.77608 14.75068,15.13482c0,8.35873 -6.60412,15.13482 -14.75067,15.13482c-8.14658,0 -14.75068,-6.77608 -14.75068,-15.13482c0,-8.35873 6.60412,-15.13482 14.75068,-15.13482z" fill="url(#color-4)" stroke="none" stroke-width="0" stroke-linecap="butt"/><path d="M258.47276,196.7482h-29.50138v-32.72808h29.50138z" fill="#d60000" stroke="none" stroke-width="0" stroke-linecap="butt"/><path d="M244.79763,181.07558c8.14658,0 14.75067,6.77609 14.75067,15.13482c0,8.35873 -6.60411,15.13482 -14.75067,15.13482c-8.14658,0 -14.7507,-6.77608 -14.7507,-15.13482c0,-8.35873 6.60412,-15.13482 14.7507,-15.13482z" fill="url(#color-5)" stroke="none" stroke-width="0" stroke-linecap="butt"/><path d="M244.79763,148.65479c8.14658,0 14.75067,6.77608 14.75067,15.13482c0,8.35873 -6.60411,15.13484 -14.75067,15.13484c-8.14658,0 -14.7507,-6.7761 -14.7507,-15.13484c0,-8.35873 6.60412,-15.13482 14.7507,-15.13482z" fill="url(#color-6)" stroke="none" stroke-width="0" stroke-linecap="butt"/><path d="M229.68529,164.86523c8.14658,0 14.75068,6.77608 14.75068,15.13482c0,8.35873 -6.60412,15.13482 -14.75068,15.13482c-8.14658,0 -14.75067,-6.77608 -14.75067,-15.13482c0,-8.35873 6.60412,-15.13482 14.75068,-15.13482z" fill="url(#color-7)" stroke="none" stroke-width="0" stroke-linecap="butt"/><path d="M259.54832,196.7482h-29.50137v-33.65002h29.50137z" fill="url(#color-8)" stroke="none" stroke-width="0" stroke-linecap="butt"/><path d="M244.41351,151.11324c6.57665,0 11.44714,5.25609 11.44714,7.75947c0,2.50338 -4.87048,-4.22546 -11.44714,-4.22546c-6.57665,0 -11.2935,6.72884 -11.2935,4.22546c0,-2.50338 4.71685,-7.75947 11.2935,-7.75947z" fill="url(#color-9)" stroke="none" stroke-width="NaN" stroke-linecap="butt"/><path d="M225.47445,167.38303c4.91925,-1.60817 9.84758,1.13235 10.45972,3.00485c0.61215,1.8725 -4.6763,-1.96963 -9.59556,-0.36145c-4.91925,1.60817 -6.80201,7.79466 -7.41416,5.92216c-0.61215,-1.8725 1.63074,-6.95739 6.54999,-8.56556z" fill="url(#color-10)" stroke="none" stroke-width="NaN" stroke-linecap="butt"/><path d="M200.27607,219.64067v-79.28134h79.44786v79.28134z" fill="none" stroke="none" stroke-width="0" stroke-linecap="butt"/><path d="M243.98442,190.67259c0,-2.44128 1.97905,-4.42033 4.42033,-4.42033c2.44128,0 4.42033,1.97905 4.42033,4.42033c0,2.44128 -1.97905,4.42033 -4.42033,4.42033c-2.44128,0 -4.42033,-1.97905 -4.42033,-4.42033z" fill="#000000" stroke="#000000" stroke-width="0" stroke-linecap="butt"/><path d="M244.03365,169.32741c0,-2.44128 1.97905,-4.42033 4.42033,-4.42033c2.44128,0 4.42033,1.97905 4.42033,4.42033c0,2.44128 -1.97905,4.42033 -4.42033,4.42033c-2.44128,0 -4.42033,-1.97905 -4.42033,-4.42033z" fill="#000000" stroke="#000000" stroke-width="0" stroke-linecap="butt"/><path d="M255.05987,168.72225v22.27848" fill="none" stroke="#000000" stroke-width="2" stroke-linecap="round"/></g></g></svg>