<svg version="1.1" xmlns="http://www.w3.org/2000/svg" xmlns:xlink="http://www.w3.org/1999/xlink" width="37.6" height="43.6" viewBox="0,0,37.6,43.6"><g transform="translate(-221.20002,-158.2)"><g data-paper-data="{&quot;isPaintingLayer&quot;:true}" fill-rule="nonzero" stroke="none" stroke-linecap="butt" stroke-linejoin="miter" stroke-miterlimit="10" stroke-dasharray="" stroke-dashoffset="0" style="mix-blend-mode: normal"><path d="M221.20003,201.8v-43.6h37.6v43.6z" fill="none" stroke-width="0"/><path d="M229.35482,191.71274v-23.40514c0,-1.00317 0.28469,-1.79622 0.85406,-2.37915c0.56937,-0.58292 1.36921,-0.87439 2.3995,-0.87439h7.36113c1.99279,0 3.80934,0.42025 5.44967,1.26075c1.65388,0.82694 2.93497,1.99957 3.84324,3.51789c0.92184,1.50476 1.38276,3.22642 1.38276,5.16499c0,1.50476 -0.27791,2.87396 -0.83372,4.10759c-0.54226,1.22008 -1.28787,2.25714 -2.23682,3.1112c-0.93539,0.85405 -2.04023,1.51154 -3.31454,1.97246c-1.27431,0.46092 -2.61639,0.69138 -4.02624,0.69138h-4.63629v6.83243c0,1.03029 -0.29147,1.83011 -0.8744,2.39948c-0.56936,0.55581 -1.31495,0.83371 -2.23679,0.83371c-0.90828,0 -1.66066,-0.28468 -2.25714,-0.85405c-0.58294,-0.58293 -0.8744,-1.37598 -0.8744,-2.37915zM235.59757,170.5444v8.82522h4.24993c1.27431,0 2.30459,-0.41347 3.09085,-1.24041c0.79982,-0.82694 1.19974,-1.88434 1.19974,-3.1722c0,-0.82694 -0.17623,-1.57254 -0.5287,-2.23681c-0.35247,-0.67782 -0.85405,-1.20652 -1.50475,-1.5861c-0.6507,-0.39314 -1.40308,-0.5897 -2.25714,-0.5897z" fill="#ff0000" stroke-width="0.40889"/></g></g></svg>