<svg version="1.1" xmlns="http://www.w3.org/2000/svg" xmlns:xlink="http://www.w3.org/1999/xlink" width="80.75" height="80.75" viewBox="0,0,80.75,80.75"><g transform="translate(-199.625,-139.625)"><g data-paper-data="{&quot;isPaintingLayer&quot;:true}" fill-rule="nonzero" stroke-linecap="butt" stroke-linejoin="miter" stroke-miterlimit="10" stroke-dasharray="" stroke-dashoffset="0" style="mix-blend-mode: normal"><path d="M199.625,180c0,-22.2985 18.0765,-40.375 40.375,-40.375c22.2985,0 40.375,18.0765 40.375,40.375c0,22.2985 -18.0765,40.375 -40.375,40.375c-22.2985,0 -40.375,-18.0765 -40.375,-40.375z" fill="#ffb800" stroke="none" stroke-width="NaN"/><path d="M210.67264,190.34763c0,-10.22226 5.28599,-32.74497 13.1263,-33.16971c4.29957,-0.23293 8.38387,6.25709 8.38387,6.25709l14.63522,-0.34653c0,0 4.43827,-6.4254 8.02032,-6.4095c7.6683,0.03403 14.67563,21.24626 14.67563,33.66865c0,12.03353 -10.61604,7.81136 -13.41563,2.77216c-0.98419,-1.77152 -5.59323,-10.76484 -5.59323,-10.76484c0,0 -8.67577,2.10855 -10.89214,2.10855c-3.13113,0 -9.5744,-1.03449 -9.5744,-1.03449c0,0 -4.86179,9.08578 -6.03187,10.57058c-3.77559,4.79111 -13.33407,7.54117 -13.33407,-3.65195z" fill="#000000" stroke="#cf1616" stroke-width="0"/><path d="M219.62178,171.65873c0,-3.3117 2.68467,-5.99637 5.99637,-5.99637c3.3117,0 5.99637,2.68467 5.99637,5.99637c0,3.3117 -2.68467,5.99637 -5.99637,5.99637c-3.3117,0 -5.99637,-2.68467 -5.99637,-5.99637z" fill="#ffffff" stroke="#cf1616" stroke-width="0"/><path d="M250.85325,178.18697c0,-1.70773 1.38439,-3.09213 3.09213,-3.09213c1.70773,0 3.09213,1.38439 3.09213,3.09213c0,1.70773 -1.38439,3.09213 -3.09213,3.09213c-1.70773,0 -3.09213,-1.38439 -3.09213,-3.09213z" fill="#ffffff" stroke="none" stroke-width="0"/><path d="M259.99519,175.18766c-1.70773,0 -3.09213,-1.38439 -3.09213,-3.09213c0,-1.70773 1.38439,-3.09213 3.09213,-3.09213c1.70773,0 3.09213,1.38439 3.09213,3.09213c0,1.70773 -1.38439,3.09213 -3.09213,3.09213z" fill="#ffffff" stroke="none" stroke-width="0"/><path d="M250.81163,166.04572c0,-1.70773 1.3844,-3.09213 3.09213,-3.09213c1.70773,0 3.09212,1.3844 3.09212,3.09213c0,1.70773 -1.38439,3.09212 -3.09212,3.09212c-1.70773,0 -3.09213,-1.38439 -3.09213,-3.09212z" fill="#ffffff" stroke="none" stroke-width="0"/><path d="M247.85394,175.22928c-1.70773,0 -3.09213,-1.3844 -3.09213,-3.09213c0,-1.70773 1.3844,-3.09212 3.09213,-3.09212c1.70773,0 3.09212,1.38439 3.09212,3.09212c0,1.70773 -1.38439,3.09213 -3.09212,3.09213z" fill="#ffffff" stroke="none" stroke-width="0"/></g></g></svg>