<svg version="1.1" xmlns="http://www.w3.org/2000/svg" xmlns:xlink="http://www.w3.org/1999/xlink" width="177.38934" height="158.66208" viewBox="0,0,177.38934,158.66208"><defs><linearGradient x1="281.53908" y1="225.6802" x2="336.72082" y2="225.6802" gradientUnits="userSpaceOnUse" id="color-1"><stop offset="0" stop-color="#dcd0e8"/><stop offset="1" stop-color="#ffffff"/></linearGradient><linearGradient x1="193.63099" y1="207.58984" x2="225.23698" y2="207.58984" gradientUnits="userSpaceOnUse" id="color-2"><stop offset="0" stop-color="#ffffff"/><stop offset="1" stop-color="#dcd0e8"/></linearGradient><linearGradient x1="205.19349" y1="152.77384" x2="284.55142" y2="232.13177" gradientUnits="userSpaceOnUse" id="color-3"><stop offset="0" stop-color="#f6f3f9"/><stop offset="1" stop-color="#e7def0"/></linearGradient><linearGradient x1="209.30039" y1="213.40269" x2="242.42277" y2="213.40269" gradientUnits="userSpaceOnUse" id="color-4"><stop offset="0" stop-color="#ffffff"/><stop offset="1" stop-color="#eae2f1"/></linearGradient><linearGradient x1="270.39841" y1="155.42753" x2="270.39841" y2="185.24993" gradientUnits="userSpaceOnUse" id="color-5"><stop offset="0" stop-color="#636363"/><stop offset="1" stop-color="#000000"/></linearGradient><linearGradient x1="244.69902" y1="212.39176" x2="295.74928" y2="212.39176" gradientUnits="userSpaceOnUse" id="color-6"><stop offset="0" stop-color="#ffffff"/><stop offset="1" stop-color="#dcd0e8"/></linearGradient><linearGradient x1="194.57604" y1="91.80218" x2="194.57604" y2="125.92104" gradientUnits="userSpaceOnUse" id="color-7"><stop offset="0" stop-color="#000000"/><stop offset="1" stop-color="#636363"/></linearGradient><linearGradient x1="187.37201" y1="108.54779" x2="231.89278" y2="153.06855" gradientUnits="userSpaceOnUse" id="color-8"><stop offset="0" stop-color="#ffffff"/><stop offset="1" stop-color="#e9e0f2"/></linearGradient><linearGradient x1="187.69179" y1="130.72295" x2="187.69179" y2="135.27213" gradientUnits="userSpaceOnUse" id="color-9"><stop offset="0" stop-color="#ffffff"/><stop offset="1" stop-color="#000000"/></linearGradient><linearGradient x1="212.63911" y1="114.87602" x2="212.63911" y2="133.50896" gradientUnits="userSpaceOnUse" id="color-10"><stop offset="0" stop-color="#000000"/><stop offset="1" stop-color="#636363"/></linearGradient><linearGradient x1="240.44694" y1="96.94414" x2="240.44694" y2="130.21749" gradientUnits="userSpaceOnUse" id="color-11"><stop offset="0" stop-color="#ffffff"/><stop offset="1" stop-color="#dcd0e8"/></linearGradient><linearGradient x1="246.51521" y1="102.79604" x2="246.51521" y2="115.93811" gradientUnits="userSpaceOnUse" id="color-12"><stop offset="0" stop-color="#000000"/><stop offset="1" stop-color="#000000" stop-opacity="0"/></linearGradient><linearGradient x1="243.98789" y1="115.93811" x2="243.98789" y2="121.24549" gradientUnits="userSpaceOnUse" id="color-13"><stop offset="0" stop-color="#000000"/><stop offset="1" stop-color="#000000" stop-opacity="0"/></linearGradient><linearGradient x1="251.82259" y1="116.19085" x2="251.82259" y2="125.03648" gradientUnits="userSpaceOnUse" id="color-14"><stop offset="0" stop-color="#000000"/><stop offset="1" stop-color="#000000" stop-opacity="0"/></linearGradient><linearGradient x1="254.22355" y1="109.11434" x2="254.22355" y2="115.68538" gradientUnits="userSpaceOnUse" id="color-15"><stop offset="0" stop-color="#000000"/><stop offset="1" stop-color="#000000" stop-opacity="0"/></linearGradient></defs><g transform="translate(-173.65645,-91.80219)"><g data-paper-data="{&quot;isPaintingLayer&quot;:true}" fill-rule="nonzero" stroke-linejoin="miter" stroke-miterlimit="10" stroke-dasharray="" stroke-dashoffset="0" style="mix-blend-mode: normal"><path d="M288.11514,215.53019l-4.57465,-31.16482l27.73383,25.16059l19.40117,9.9033l20.3703,8.86779l-19.84817,3.25279l-21.05675,-2.60723z" fill="url(#color-1)" stroke="none" stroke-width="0" stroke-linecap="butt"/><path d="M198.93837,244.83156l-2.02185,-8.84563l4.80953,-7.04076l-4.42279,-56.61951l21.34823,-4.07197l6.5855,40.50962l-0.51993,33.03546l-12.89612,4.87449z" fill="url(#color-2)" stroke="none" stroke-width="0" stroke-linecap="butt"/><path d="M221.11562,221.26428l-23.51304,-49.03121l1.57561,-8.30078l8.54262,-13.68576l35.63525,-11.87841l11.89711,16.9514l11.9968,10.52087l13.92403,14.23116l-0.16082,55.59848l-35.29378,-0.11622z" fill="url(#color-3)" stroke="none" stroke-width="0" stroke-linecap="butt"/><path d="M211.95408,249.00164l-2.52733,-9.85656l5.82046,-5.52437l0.59021,-61.54635l11.33917,-16.76832l11.94621,36.70448l2.16268,27.99939l-4.31091,26.84352l-10.87427,3.61084z" fill="url(#color-4)" stroke="none" stroke-width="0" stroke-linecap="butt"/><path d="M257.7618,170.086l-2.27459,-14.65847l14.40574,11.62568l15.41666,18.19672l-14.95683,-3.39921z" fill="url(#color-5)" stroke="none" stroke-width="0" stroke-linecap="butt"/><path d="M252.71017,245.60468l-4.64173,-5.6031l2.38721,-6.23217l14.5402,-5.23693l-16.42774,-7.32595l-3.86909,-13.39185l3.46595,-19.20559l15.92917,-11.01433l20.86944,7.71836l10.7857,19.24208l-0.51855,16.99706l-5.9752,7.80301l2.44261,6.9365l-22.54465,11.26608z" fill="url(#color-6)" stroke="none" stroke-width="0" stroke-linecap="butt"/><path d="M184.34308,125.92104l-8.34557,-12.47042l6.70281,-21.64843l18.49952,0.8455l11.95472,6.73646l-3.79098,22.7459z" fill="url(#color-7)" stroke="none" stroke-width="0" stroke-linecap="butt"/><path d="M179.85709,156.24891l-6.20064,-13.99685l3.16785,-11.78184l10.33309,-2.76257l-1.46915,-13.61349l7.71355,-11.57615l21.49777,-8.54659l21.92411,6.1583l13.90891,16.19356l-7.03146,24.93694l-10.2648,8.41767l-17.0313,9.67442l-16.87274,1.37244z" fill="url(#color-8)" stroke="none" stroke-width="0" stroke-linecap="butt"/><path d="M195.08421,130.34385l2.27459,9.47746l-9.85656,2.65369l-9.09836,-2.65369l2.27459,-9.47746z" data-paper-data="{&quot;index&quot;:null}" fill="#000000" stroke="none" stroke-width="0" stroke-linecap="butt"/><path d="M181.43667,135.27213l0.7582,-4.54918h10.99385l-0.7582,4.54918z" fill="url(#color-9)" stroke="none" stroke-width="0" stroke-linecap="butt"/><path d="M208.41888,133.50896l-5.91402,-10.51446l9.26019,-8.11848l11.0083,3.96452l-1.58749,12.18528z" data-paper-data="{&quot;index&quot;:null}" fill="url(#color-10)" stroke="none" stroke-width="0" stroke-linecap="butt"/><path d="M197.47087,123.2906l-3.32223,3.49852l-4.99002,-0.3812l-0.79486,-5.94169l5.31701,-2.06334z" data-paper-data="{&quot;index&quot;:null}" fill="#000000" stroke="none" stroke-width="0" stroke-linecap="butt"/><path d="M226.29123,126.42651l-3.79098,-22.7459l11.95472,-6.73646l21.02684,-0.59277l4.93368,21.3957l-9.10377,12.47042z" data-paper-data="{&quot;index&quot;:null}" fill="url(#color-11)" stroke="none" stroke-width="0" stroke-linecap="butt"/><path d="M187.50224,140.20041l0.50546,7.07651" fill="none" stroke="#000000" stroke-width="1.5" stroke-linecap="round"/><path d="M241.58694,110.12528l5.05465,-7.32924l4.80191,5.30738l-5.30738,7.8347z" data-paper-data="{&quot;index&quot;:null}" fill="url(#color-12)" stroke="none" stroke-width="0" stroke-linecap="butt"/><path d="M240.82874,121.24549l2.27459,-5.30738l4.04371,5.30738z" fill="url(#color-13)" stroke="none" stroke-width="0" stroke-linecap="butt"/><path d="M247.65251,124.53102l0.50547,-6.06557l4.34181,1.30756l3.4929,-3.58215l-0.56646,6.09172l-2.97178,2.75391z" fill="url(#color-14)" stroke="none" stroke-width="0" stroke-linecap="butt"/><path d="M250.93803,115.68538l4.80191,-6.57103l1.76912,4.80192z" fill="url(#color-15)" stroke="none" stroke-width="0" stroke-linecap="butt"/></g></g></svg>