<svg version="1.1" xmlns="http://www.w3.org/2000/svg" xmlns:xlink="http://www.w3.org/1999/xlink" width="105.28752" height="104.5" viewBox="0,0,105.28752,104.5"><defs><radialGradient cx="240.00001" cy="180" r="46.3183" gradientUnits="userSpaceOnUse" id="color-1"><stop offset="0" stop-color="#004fff"/><stop offset="1" stop-color="#004fff" stop-opacity="0"/></radialGradient></defs><g transform="translate(-186.96248,-127.75)"><g data-paper-data="{&quot;isPaintingLayer&quot;:true}" fill-rule="nonzero" stroke-linejoin="miter" stroke-miterlimit="10" stroke-dasharray="" stroke-dashoffset="0" style="mix-blend-mode: normal"><path d="M193.68171,180c0,-25.58087 20.7374,-46.3183 46.31829,-46.3183c25.58091,0 46.3183,20.7374 46.3183,46.3183c0,25.58087 -20.73743,46.3183 -46.3183,46.3183c-25.5809,0 -46.31829,-20.73739 -46.31829,-46.3183z" fill="url(#color-1)" stroke="none" stroke-width="0" stroke-linecap="butt"/><g stroke-linecap="butt" font-family="Sans Serif" font-weight="normal" font-size="40" text-anchor="start"><text transform="translate(192.88363,174.51346) rotate(-3.66905) scale(0.68352,0.747) skewX(1.02726)" font-size="40" xml:space="preserve" fill="#000000" fill-rule="nonzero" stroke="#000847" stroke-width="9" stroke-linecap="butt" stroke-linejoin="miter" stroke-miterlimit="10" stroke-dasharray="" stroke-dashoffset="0" font-family="Sans Serif" font-weight="normal" text-anchor="start" style="mix-blend-mode: normal"><tspan x="0" dy="0">ヤバい!</tspan></text><text transform="translate(192.04114,173.98269) rotate(-2.98442) scale(0.68369,0.74684) skewX(0.80054)" font-size="40" xml:space="preserve" fill="#e2e4ff" fill-rule="nonzero" stroke="#e2e4ff" stroke-width="1.7" stroke-linecap="butt" stroke-linejoin="miter" stroke-miterlimit="10" stroke-dasharray="" stroke-dashoffset="0" font-family="Sans Serif" font-weight="normal" text-anchor="start" style="mix-blend-mode: normal"><tspan x="0" dy="0">ヤバい!</tspan></text></g><path d="M187.75,232.25v-104.5h104.5v104.5z" fill="none" stroke="none" stroke-width="0" stroke-linecap="butt"/><g fill="none" stroke="#000e76" stroke-width="8.5"><path d="M222.99666,199.50642c0.81445,-9.36618 9.06749,-16.29872 18.43367,-15.48427c9.36618,0.81445 16.29872,9.06749 15.48427,18.43367c-0.81445,9.36618 -9.06749,16.29872 -18.43367,15.48427c-9.36618,-0.81445 -16.29872,-9.06749 -15.48427,-18.43366z" stroke-linecap="butt"/><path d="M247.46562,201.95057l-7.53733,-0.65542l0.73734,-8.4795" stroke-linecap="round"/><path d="M247.01505,181.65988l-10.67786,-0.92849" stroke-linecap="round"/></g><g fill="none" stroke="#e2e4ff" stroke-width="3.5"><path d="M222.99668,199.50642c0.81445,-9.36618 9.06749,-16.29872 18.43366,-15.48427c9.36618,0.81445 16.29872,9.06749 15.48427,18.43367c-0.81445,9.36618 -9.06749,16.29872 -18.43367,15.48427c-9.36618,-0.81445 -16.29872,-9.06749 -15.48427,-18.43366z" stroke-linecap="butt"/><path d="M247.46565,201.95057l-7.53733,-0.65542l0.73734,-8.4795" stroke-linecap="round"/><path d="M247.01507,181.65988l-10.67788,-0.92849" stroke-linecap="round"/></g></g></g></svg>