<svg version="1.1" xmlns="http://www.w3.org/2000/svg" xmlns:xlink="http://www.w3.org/1999/xlink" width="584.32891" height="438.42735" viewBox="0,0,584.32891,438.42735"><defs><linearGradient x1="290.09445" y1="198.84387" x2="290.09445" y2="231.93557" gradientUnits="userSpaceOnUse" id="color-1"><stop offset="0" stop-color="#edff3e"/><stop offset="1" stop-color="#b6c52f"/></linearGradient><linearGradient x1="265.40522" y1="108.47207" x2="571.28384" y2="108.47207" gradientUnits="userSpaceOnUse" id="color-2"><stop offset="0" stop-color="#00138e"/><stop offset="1" stop-color="#455eff" stop-opacity="0.53333"/></linearGradient><linearGradient x1="434.82032" y1="194.08804" x2="434.82032" y2="312.22348" gradientUnits="userSpaceOnUse" id="color-3"><stop offset="0" stop-color="#000e6a"/><stop offset="1" stop-color="#0019bd"/></linearGradient><linearGradient x1="296.25826" y1="208.78771" x2="472.5309" y2="208.78771" gradientUnits="userSpaceOnUse" id="color-4"><stop offset="0" stop-color="#1f49ff"/><stop offset="1" stop-color="#0016a6"/></linearGradient><linearGradient x1="278.75671" y1="151.42187" x2="394.46844" y2="151.42187" gradientUnits="userSpaceOnUse" id="color-5"><stop offset="0" stop-color="#1f49ff"/><stop offset="1" stop-color="#001cd2"/></linearGradient><linearGradient x1="240.00003" y1="61.55022" x2="370.72728" y2="61.55022" gradientUnits="userSpaceOnUse" id="color-6"><stop offset="0" stop-color="#5473ff"/><stop offset="1" stop-color="#001cd2"/></linearGradient><linearGradient x1="327.97549" y1="147.70232" x2="363.60744" y2="147.70232" gradientUnits="userSpaceOnUse" id="color-7"><stop offset="0" stop-color="#f2ff00"/><stop offset="1" stop-color="#b0b900"/></linearGradient><linearGradient x1="240.79411" y1="27.28422" x2="375.69244" y2="27.28422" gradientUnits="userSpaceOnUse" id="color-8"><stop offset="0" stop-color="#0018b6"/><stop offset="1" stop-color="#000000"/></linearGradient><linearGradient x1="409.23657" y1="206.48085" x2="424.10205" y2="223.86287" gradientUnits="userSpaceOnUse" id="color-9"><stop offset="0" stop-color="#0019bd"/><stop offset="1" stop-color="#0019bd" stop-opacity="0"/></linearGradient><radialGradient cx="388.75892" cy="81.20916" r="27.41801" gradientUnits="userSpaceOnUse" id="color-10"><stop offset="0" stop-color="#000ecf"/><stop offset="1" stop-color="#000ecf" stop-opacity="0"/></radialGradient><radialGradient cx="390.57146" cy="150.51907" r="39.87385" gradientUnits="userSpaceOnUse" id="color-11"><stop offset="0" stop-color="#1521c7"/><stop offset="1" stop-color="#0022ff"/></radialGradient><linearGradient x1="375.02687" y1="81.71237" x2="398.62718" y2="81.71237" gradientUnits="userSpaceOnUse" id="color-12"><stop offset="0" stop-color="#e4f000"/><stop offset="1" stop-color="#d2dd00"/></linearGradient><linearGradient x1="350.46243" y1="152.08599" x2="437.57537" y2="152.08599" gradientUnits="userSpaceOnUse" id="color-13"><stop offset="0" stop-color="#f2ff00"/><stop offset="1" stop-color="#b0b900"/></linearGradient><linearGradient x1="326.58727" y1="178.73165" x2="348.64516" y2="178.73165" gradientUnits="userSpaceOnUse" id="color-14"><stop offset="0" stop-color="#f2ff00"/><stop offset="1" stop-color="#b0b900"/></linearGradient><linearGradient x1="278.87201" y1="152.80423" x2="297.93737" y2="152.80423" gradientUnits="userSpaceOnUse" id="color-15"><stop offset="0" stop-color="#f2ff00"/><stop offset="1" stop-color="#b0b900"/></linearGradient><linearGradient x1="396.45942" y1="377.71422" x2="496.41369" y2="377.71422" gradientUnits="userSpaceOnUse" id="color-16"><stop offset="0" stop-color="#000ebb"/><stop offset="1" stop-color="#0019bd"/></linearGradient><linearGradient x1="374.09309" y1="357.51435" x2="387.97564" y2="357.51435" gradientUnits="userSpaceOnUse" id="color-17"><stop offset="0" stop-color="#000ebb"/><stop offset="1" stop-color="#0019bd"/></linearGradient><linearGradient x1="513.30747" y1="340.12684" x2="505.27529" y2="351.63329" gradientUnits="userSpaceOnUse" id="color-18"><stop offset="0" stop-color="#000ebb"/><stop offset="1" stop-color="#0019bd"/></linearGradient><linearGradient x1="454.36113" y1="343.72694" x2="446.32895" y2="352.43972" gradientUnits="userSpaceOnUse" id="color-19"><stop offset="0" stop-color="#000ebb"/><stop offset="1" stop-color="#0019bd"/></linearGradient></defs><g transform="translate(-68.66033,39.21366)"><g data-paper-data="{&quot;isPaintingLayer&quot;:true}" fill-rule="nonzero" stroke="none" stroke-width="0" stroke-linecap="butt" stroke-linejoin="miter" stroke-miterlimit="10" stroke-dasharray="" stroke-dashoffset="0" style="mix-blend-mode: normal"><path d="M308.02495,214.79689c0,8.81064 -6.89091,15.95305 -15.3913,15.95305c-6.85582,0 -17.14756,3.92132 -19.13863,-2.49885c-0.29145,-0.93975 -2.11937,-9.24355 -0.93723,-12.73727c0.75514,-2.23178 11.57548,-16.66995 20.07586,-16.66995c8.50039,0 15.3913,7.14241 15.3913,15.95302z" fill="url(#color-1)"/><path d="M362.12029,199.17053c0,0 -33.48895,-26.92673 -40.86635,-48.39953c-12.25327,-35.66459 -55.84872,-137.77654 -55.84872,-137.77654l92.55026,-0.45743c0,0 51.97649,43.9093 84.80522,63.12683c25.00765,14.63917 73.55021,37.09899 103.29452,50.51611c15.00684,6.76932 25.22862,11.23683 25.22862,11.23683c0,0 -9.61836,8.03597 -23.98021,18.51492c-21.68272,15.82052 -54.1774,37.20941 -80.7087,44.92011c-30.56913,8.88419 -104.47464,-1.68127 -104.47464,-1.68127z" fill="url(#color-2)"/><path d="M456.67779,115.82639c0,0 4.87997,-53.98233 -0.42319,-74.296c-4.39878,-16.84943 -29.19291,-39.14787 -29.19291,-39.14787c0,0 2.37316,-8.31984 10.91942,-9.72785c10.81359,-1.78156 48.7755,-0.10699 48.7755,-0.10699c0,0 57.25114,2.72005 73.46323,12.53935c22.01346,13.33307 82.64842,43.49644 82.64842,43.49644z" fill-opacity="0.65098" fill="#1226ff"/><path d="M427.691,254.61572l-42.24952,-41.82444c0,0 5.01333,1.7291 14.1808,-2.06156c8.71423,-3.60325 38.91627,-16.64168 38.91627,-16.64168c0,0 36.46519,31.25531 37.87974,32.04667c3.36307,1.88146 7.78087,9.49114 7.78087,9.49114c0,0 -3.12214,17.54291 -3.57334,18.34941c-2.54421,4.54775 -36.90472,58.24822 -36.90472,58.24822l-28.74305,-16.08018z" fill="url(#color-3)"/><path d="M296.92082,147.6253c-3.15082,-9.3814 5.95922,-36.87338 5.95922,-36.87338l52.75368,-12.12205l28.48783,-35.23721l30.95854,-14.36986c0,0 7.76721,7.18624 8.2878,7.41143c6.85143,2.96377 12.44773,5.55529 9.51756,15.99782c-1.2435,4.43159 -30.24245,15.54765 -30.92828,16.02161c-13.20032,9.12244 -16.12689,22.33694 -16.12689,22.33694c0,0 4.27933,26.14522 4.34546,26.45842c3.86805,18.31795 53.06452,61.27592 53.06452,61.27592c0,0 -48.99692,20.98543 -54.03799,24.69726c-1.23991,0.91297 3.54418,11.4649 3.54418,11.4649l33.54447,22.7352l30.26852,58.96372l15.97146,46.80906l-60.82408,5.35754l-37.02814,-88.68513l-37.8331,-39.27339c0,0 -36.67711,-83.29913 -39.92476,-92.96881z" fill="url(#color-4)"/><path d="M300.69737,179.00882c0,0 -20.38715,-11.51837 -21.29359,-20.94611c-0.40057,-4.16634 -2.10008,-13.2176 2.40435,-19.52835c5.22859,-7.3253 16.80686,-11.67314 16.80686,-11.67314l11.34278,10.77721l71.48972,-20.15462l8.09811,64.04091c0,0 6.79414,-9.66272 4.41907,-9.72996c-1.42902,-0.04047 -1.24903,12.4002 -1.24903,12.4002c0,0 -48.76135,1.83819 -65.46931,0.89654c-13.05367,-0.7357 -26.54894,-6.08265 -26.54894,-6.08265z" fill="url(#color-5)"/><path d="M240.00004,61.25473c0,-16.14456 5.85318,-30.92201 15.55323,-42.3261c11.98933,-14.09553 29.85561,-23.03751 49.81039,-23.03751c36.09934,0 65.36362,29.26429 65.36362,65.36362c0,36.09934 -29.26429,65.36362 -65.36362,65.36362c-6.65094,0 -18.191,0.59096 -18.191,0.59096c0,0 -14.99446,-4.87046 -25.86931,-16.21927c-12.586,-13.13453 -21.30332,-33.93718 -21.30332,-49.73531z" fill="url(#color-6)"/><path d="M261.60139,73.88468l-6.11614,13.87301c0,0 -9.17745,1.39643 -9.27515,0.76324c-0.0137,-0.08882 -1.51797,-2.81285 -2.13574,-5.35803c-0.8115,-3.34333 -2.5955,-7.64393 -2.62418,-8.17666c-0.09747,-1.81054 -0.95436,-5.93984 -0.90745,-8.04133c0.01036,-0.46412 -0.18003,-1.06838 -0.19493,-1.73474c-0.05698,-2.54848 -0.06942,-6.00531 -0.06942,-6.00531l16.77609,4.43124l4.23777,3.03822l6.39864,-3.30388c0,0 14.01041,-3.9977 18.82027,-5.31638c9.85434,-2.70169 18.18271,-4.94426 18.18271,-4.94426l16.51872,-3.39387c0,0 -8.66706,11.20354 -8.62849,11.8219c0.16895,2.70924 -1.28929,21.54895 -1.28929,21.54895c0,0 -18.34235,7.27188 -24.02349,6.3591c-2.52104,-0.40505 -19.39623,-1.50077 -19.39623,-1.50077z" fill="#000000"/><path d="M363.60744,147.70232c0,8.0422 -7.97647,14.56168 -17.81592,14.56168c-6.9999,0 -17.22168,-1.77477 -20.13468,-6.57477c-1.18169,-1.94716 2.31877,-5.66602 2.31877,-7.98691c0,-1.61679 -3.64766,-1.68271 -6.72181,-2.00663c-3.71433,-0.39137 -6.87515,-0.94901 -5.44752,-2.33488c3.26812,-3.17254 24.51393,-10.22017 29.98524,-10.22017c2.06779,0 13.46259,-5.04883 15.30907,-4.51934c6.93994,1.99002 2.50685,12.72891 2.50685,19.08101z" fill="url(#color-7)"/><path d="M274.95376,82.74639l0.01964,-6.53518l7.31827,-4.18187l-7.81045,1.63527l0.73696,-5.29475l21.41877,-5.09713l1.38306,5.39739l-9.49293,6.86444l3.63363,-0.89139l0.17927,2.94074z" fill="#ffffff"/><path d="M283.99566,102.76795l18.46822,-7.5848l9.42605,-10.19048l4.51344,4.96301l0.71542,-7.23024l7.5337,-7.25698c0,0 10.30929,9.68114 8.62929,13.39419c-2.26176,4.99881 -9.87515,16.101 -9.87515,16.101c0,0 -18.39771,2.01975 -20.86882,2.01975c-5.01261,0 -18.54216,-4.21544 -18.54216,-4.21544z" fill="#000e6a"/><path d="M363.871,7.00974c0,0.96393 0.25884,6.92079 2.32297,12.16354c1.15973,2.94564 6.65354,13.50719 8.52393,22.66221c2.59582,12.70577 -0.81564,26.53166 -0.81564,26.53166c0,0 -14.01926,-13.73583 -21.52478,-18.40236c-7.06326,-4.39156 -22.26217,-8.82208 -22.26217,-8.82208l-45.13645,-8.24359l-24.98029,16.71064l-9.88726,-1.16403l-2.7948,-5.88234l-6.5224,0.04828c0,0 7.12862,-37.59405 27.34545,-47.28385c6.14694,-2.94619 18.8827,-7.3886 31.15615,-8.72206c11.91993,-1.29503 25.32491,0.93402 25.32491,0.93402c0,0 13.9482,2.90092 21.7501,6.2702c10.73138,4.6344 17.50029,12.78106 17.50029,13.19982z" fill="url(#color-8)"/><path d="M314.74953,15.35506c-21.9114,2.59262 -58.87298,-10.53777 -58.87298,-10.53777c0,0 8.94231,-8.33979 24.04962,-21.93828c3.37589,-3.03873 14.80433,-9.97972 14.80433,-9.97972c0,0 7.85688,-6.99001 16.06206,-10.07502c7.28426,-2.73876 14.81387,-1.58864 17.80286,-1.9423c4.58437,-0.54244 18.64935,1.15254 30.00978,6.88697c8.38512,4.23257 14.70161,11.82251 17.7164,16.36872c4.32766,6.52599 -14.09346,8.49681 -14.09346,8.49681c0,0 3.43659,16.26971 3.44776,19.96354c0.00325,1.07485 -29.01495,0.16442 -50.92634,2.75704z" fill="#00138f"/><path d="M246.64682,20.42504c0,0 -0.51361,-10.74928 6.56121,-16.95901c4.79347,-4.20732 16.40179,-4.73238 21.1973,-4.5674c13.03646,0.44849 44.82264,-2.76644 44.82264,-2.76644c0,0 12.71828,1.23261 24.28069,5.35898c9.55233,3.40902 17.68631,9.43442 22.77987,12.69469c7.02333,4.49547 -8.36302,13.60125 -8.36302,13.60125c0,0 -36.99572,-12.20657 -54.7889,-13.30787c-17.67443,-1.09394 -56.48977,5.9458 -56.48977,5.9458z" fill="#000b56"/><path d="M420.44431,230.14058c0,0 -14.61622,-0.58301 -18.05113,-3.17581c-3.43293,-2.59131 -8.87672,-7.03976 -8.87672,-7.03976l41.6208,-28.16916l7.80624,8.7627l8.63258,9.44273z" fill="url(#color-9)"/><g><path d="M462.46144,115.28206l-5.26755,-3.1865c0,0 30.76906,-17.60843 48.45822,-29.93953c7.36372,-5.13324 35.13026,-15.71313 58.86637,-19.7622c30.33718,-5.17513 56.97127,-3.18624 56.97127,-3.18624l-8.53059,0.85081c0,0 -23.08955,0.47594 -49.47756,6.53333c-22.20559,5.09729 -47.5884,15.35242 -55.15276,20.62553c-17.86008,12.45026 -45.86737,28.06479 -45.86737,28.06479z" fill="#aaaaaa"/><path d="M415.15933,144.34732l-5.35331,-3.79049c0,0 12.88762,-18.99737 18.8316,-27.39201c5.6369,-7.96097 38.35635,2.80885 38.35635,2.80885l5.3533,3.79049c0,0 -34.44164,-11.21508 -40.00401,-3.35937c-6.00141,8.47577 -17.18393,27.94252 -17.18393,27.94252z" fill="#aaaaaa"/><path d="M451.43319,136.22323l-6.86345,-20.47845l201.82375,-67.88129l5.66649,3.00326l-151.21424,68.79563z" fill="#0021f8"/><path d="M450.31065,123.17673l-6.15716,-7.45767l201.82375,-67.88129l-6.28386,2.86285l-34.62369,12.96261l-116.33921,43.98542z" fill="#333333"/><path d="M447.35739,128.49392l-3.86622,-12.4616l28.14259,10.81568l1.27089,13.31225z" fill="#001bcb"/><path d="M447.57474,128.30704l-4.13986,-12.35209l12.86192,5.09003l4.66543,14.46586z" fill="#333333"/><path d="M472.92151,140.2146l-2.4811,-14.24045l115.4484,-47.91341l66.32512,-27.16086l0.7753,3.93334l-64.06329,30.49019z" fill="#001fe5"/><path d="M434.37714,148.77306l-4.37721,-14.76984c0,0 25.83364,-9.46423 26.28736,-8.59811c0.23819,0.45466 3.21313,2.25577 4.28391,4.67137c1.09194,2.4633 1.30013,5.53226 1.30013,5.53226z" fill="#7c7c7c"/><path d="M359.38145,177.36442c4.21176,12.5666 -1.295,13.19438 -9.05501,15.79517c-3.34438,1.12088 -8.53399,1.72419 -13.25572,-0.18524c-6.23416,-2.52105 -6.71513,-0.03698 -9.11173,-7.18768c-2.1659,-6.46242 -4.84891,-12.78371 -4.61715,-17.36039c0.21891,-4.32296 3.17951,-7.04571 6.94891,-8.30904c7.76002,-2.60081 24.87893,4.68057 29.09069,17.24717z" fill="#5f5f5f"/><path d="M327.43532,161.09297l85.71496,-27.24683l17.55776,-5.46596c0,0 4.43805,1.57715 6.29711,3.51441c0.95406,0.99419 3.41721,4.20585 4.07552,7.15845c0.90303,4.05015 1.39538,11.63629 1.39538,11.63629c0,0 -79.69329,36.08217 -90.83639,42.39052c-2.82742,1.60066 -2.29338,-1.20913 -2.29338,-1.20913c0,0 6.64276,-4.47471 1.36298,-15.6012c-3.79927,-8.0065 -10.43395,-14.38665 -13.67557,-15.22876c-5.54344,-1.44008 -9.59841,0.05222 -9.59841,0.05222z" fill="#3d3d3d"/></g><path d="M409.1386,62.86756c4.60534,5.11706 -0.78559,17.47709 -12.04098,27.6069c-11.25538,10.12981 -24.11304,14.19345 -28.71838,9.07639c-4.60534,-5.11706 0.78559,-17.47709 12.04097,-27.6069c11.25538,-10.12981 24.11305,-14.19345 28.71838,-9.07639z" fill="url(#color-10)"/><path d="M350.69759,150.51907c0,-22.02173 17.85213,-39.87385 39.87385,-39.87385c22.02171,0 39.87385,17.85213 39.87385,39.87386c0,22.02173 -17.85213,39.87385 -39.87385,39.87385c-22.02171,0 -39.87385,-17.85212 -39.87385,-39.87385z" fill="url(#color-11)"/><path d="M377.10924,81.76957c0,0 -2.21931,-1.53591 -2.54496,-2.68052c-0.36415,-1.2799 0.46259,-4.63844 0.46259,-4.63844c0,0 2.8324,-5.57613 4.85831,-7.78521c1.62604,-1.77306 6.36339,-4.45118 6.36339,-4.45118l12.57137,-4.28157c0,0 1.24574,8.49629 -0.18932,11.89766c-1.26973,3.00952 -7.98591,7.47927 -7.98591,7.47927c0,0 -4.40797,-0.86027 -6.42714,0.6478c-1.30308,0.97324 0.35516,4.47721 -0.98466,5.14188c-1.6181,0.80274 -6.12367,-1.32969 -6.12367,-1.32969z" fill="url(#color-12)"/><path d="M350.46243,152.08599c0,-24.05558 19.5009,-43.55647 43.55646,-43.55647c1.47676,0 -0.17716,3.239 -4.97628,7.2684c-2.62584,2.20468 -8.67892,4.64599 -9.90383,6.92282c-3.51738,6.53806 -7.2892,15.88456 -5.18999,16.55187c1.7671,0.56174 6.45537,-3.1637 10.50591,-3.29987c4.62227,-0.15539 8.55393,3.30333 8.8072,4.64375c0.7961,4.21347 -4.24379,10.18071 -2.40493,16.38389c2.08105,7.02015 15.13323,16.57083 14.96208,16.57083c-0.20751,0 -0.84805,4.06546 -5.31618,6.56774c-1.57041,0.87946 -1.41098,4.12885 -3.28374,4.91884c-6.94699,2.93048 -16.76164,2.66339 -16.76164,2.66339c0,0 -5.04469,-0.97733 -9.94398,-3.85372c-9.07513,-5.32805 -20.05109,-16.51733 -20.05109,-31.78146z" fill="url(#color-13)"/><path d="M348.64516,178.73165c0,5.8948 -0.6188,7.31898 -6.7099,7.31898c-3.03948,0 -4.55349,-4.1666 -7.62598,-5.25439c-3.08476,-1.09213 -2.32318,-4.14308 -2.32318,-7.09635c0,-5.8948 -0.46095,-5.64172 5.63014,-5.64172c1.66661,0 4.57308,-1.63697 8.90341,-2.1557c5.01728,-0.60101 3.75812,1.66314 4.83867,3.04763c1.39535,1.7878 -2.7132,7.36841 -2.7132,9.78156z" fill="url(#color-14)"/><path d="M306.7468,149.16338c1.92364,0.45348 2.25656,5.08369 2.11903,5.46455c-1.97447,5.46784 -9.17099,1.59327 -14.0655,4.73008c-2.85502,1.82977 -4.32504,0.49069 -6.95097,0.49069c-5.26475,0 -8.97738,-1.436 -8.97738,-7.04449c0,-3.00411 1.13196,-10.00345 3.07825,-11.8627c1.68732,-1.61186 6.13831,1.3417 8.58306,1.3417c3.38118,0 4.82537,3.67296 5.88952,6.60844c0.20489,0.56519 1.88311,0.70791 2.78049,0.97497z" fill="url(#color-15)"/><path d="M477.36038,366.52919c-12.15726,19.41129 -34.69817,27.96359 -50.50378,18.06455c-8.09618,-5.07062 -18.9221,-16.05399 -19.97139,-25.95117c-0.99916,-9.42442 7.43555,-17.65171 13.36545,-27.11988c7.56429,-12.07779 16.82931,-15.43526 33.46787,-14.28617c8.65011,0.59738 24.2121,11.99291 24.2121,11.99291c0,0 8.80408,15.46437 7.52907,20.56306c-1.33134,5.32394 -4.17424,10.46958 -8.09932,16.7367z" fill="#1e2be3"/><path d="M470.38195,381.21988c-9.02256,14.40617 -26.64633,14.84933 -38.37652,7.50273c-6.0086,-3.76317 -14.04311,-11.91452 -14.82184,-19.25974c-0.74154,-6.99437 5.51832,-13.10028 9.91922,-20.12713c5.61387,-8.96358 23.46077,-13.22809 35.80913,-12.37528c6.4197,0.44335 12.00874,5.05146 12.2267,5.18797c4.31603,2.70312 8.6413,7.05158 8.63869,11.81294c-0.00448,8.1792 -7.69258,18.15297 -13.39538,27.25853z" fill="#141d9c"/><path d="M501.9667,378.01919c0,3.98119 -3.44097,10.45424 -7.82547,13.65186c-8.69219,6.33924 -29.35765,7.54263 -47.7047,7.54263c-27.60161,0 -49.97713,-9.62563 -49.97713,-21.49944c0,-4.07942 -1.93526,-9.12321 4.94627,-9.18279c5.80472,-0.05026 16.24441,0.22129 26.6017,-1.13564c4.23902,-0.55535 8.20742,-4.81079 12.24107,-4.10169c8.43458,1.48277 14.15035,13.50526 20.99614,13.50526c13.54836,0 30.24045,-12.47805 36.97165,-13.68769c6.98203,-1.25473 3.75047,8.862 3.75047,14.9075z" fill="url(#color-16)"/><path d="M374.09309,357.51435c0,-3.83355 3.10772,-6.94127 6.94127,-6.94127c3.83355,0 12.03153,7.07214 12.03153,10.9057c0,3.83355 -8.19798,2.97685 -12.03153,2.97685c-3.83355,0 -6.94127,-3.10772 -6.94127,-6.94127z" fill="url(#color-17)"/><path d="M513.39411,351.51177c-2.21803,3.17742 -6.45484,10.66736 -8.72073,7.55704c-2.26587,-3.11033 -1.70276,-15.6431 0.51527,-18.82052c2.21803,-3.17742 5.85295,-3.23181 8.11882,-0.12149c2.26587,3.11033 2.30466,8.20754 0.08664,11.38497z" data-paper-data="{&quot;index&quot;:null}" fill="url(#color-18)"/><path d="M454.44776,352.34773c-2.21803,2.40596 -6.45485,8.07738 -8.72073,5.72223c-2.26587,-2.35515 -1.70275,-11.84503 0.51527,-14.251c2.21803,-2.40596 5.85295,-2.44714 8.11882,-0.09199c2.26587,2.35515 2.30466,6.21481 0.08664,8.62076z" data-paper-data="{&quot;index&quot;:null}" fill="url(#color-19)"/><path d="M71.66696,297.05936l16.60379,-10.66706c0,0 -16.30439,-16.1505 -15.77964,-19.41341c0.64149,-3.98889 2.25888,-22.98607 2.25888,-22.98607c0,0 5.12179,-6.559 7.54891,-8.49126c1.85908,-1.48004 10.00692,-11.77069 10.00692,-11.77069c0,0 2.40553,-4.65386 3.10475,-11.15936c0.73563,-6.84429 -0.19862,-15.69417 1.27028,-21.50853c2.11018,-8.35277 5.75513,-8.19878 5.981,-5.92924c0.24635,2.47532 4.35915,59.25584 2.12822,63.39384c-3.29492,6.11142 4.04334,31.20064 5.5599,34.15024c8.61874,16.76287 8.60544,8.55247 15.85449,11.29497c9.68431,3.66381 44.52761,-4.87938 59.70094,-1.15639c16.25888,3.98936 10.99371,12.06212 10.99371,12.06212l-12.5891,11.00501c0,0 15.05246,8.37267 19.37187,12.02636c3.75847,3.1792 5.09666,8.67101 5.09666,8.67101c0,0 -12.46079,6.78695 -19.69196,5.0697c-6.41359,-1.52308 -24.01694,-12.47638 -24.01694,-12.47638c0,0 -75.50447,-9.68381 -91.88495,-16.08724c-8.15846,-3.1893 -1.51768,-16.02762 -1.51768,-16.02762z" fill="#def515"/><path d="M71.20869,297.40203l16.60379,-10.66706c0,0 -16.30439,-16.1505 -15.77964,-19.41341c0.64149,-3.98889 2.25888,-22.98607 2.25888,-22.98607c0,0 7.5675,-14.11973 13.26529,-10.42379c3.20311,2.07774 1.58564,19.9156 6.3488,29.17965c8.61874,16.76287 24.59129,28.48162 31.84035,31.22411c9.68431,3.66381 44.52761,-4.87938 59.70094,-1.15639c16.25888,3.98936 10.99372,12.06212 10.99372,12.06212l-12.58912,11.005c0,0 15.05246,8.37267 19.37187,12.02638c3.75846,3.1792 5.09667,8.671 5.09667,8.671c0,0 -12.46079,6.78695 -19.69196,5.0697c-6.4136,-1.52308 -24.01693,-12.47639 -24.01693,-12.47639c0,0 -75.50447,-9.68381 -91.88495,-16.08724c-8.15846,-3.1893 -1.51768,-16.02762 -1.51768,-16.02762z" fill-opacity="0.07451" fill="#000000"/></g></g></svg>