<svg version="1.1" xmlns="http://www.w3.org/2000/svg" xmlns:xlink="http://www.w3.org/1999/xlink" width="417.92713" height="290.03317" viewBox="0,0,417.92713,290.03317"><defs><linearGradient x1="172.51862" y1="27.50064" x2="432.77607" y2="248.43463" gradientUnits="userSpaceOnUse" id="color-1"><stop offset="0" stop-color="#1500ff" stop-opacity="0.49412"/><stop offset="1" stop-color="#1500ff" stop-opacity="0"/></linearGradient><linearGradient x1="183.38424" y1="14.7011" x2="341.9564" y2="149.31387" gradientUnits="userSpaceOnUse" id="color-2"><stop offset="0" stop-color="#000000" stop-opacity="0"/><stop offset="1" stop-color="#000000" stop-opacity="0"/></linearGradient><linearGradient x1="196.79513" y1="19.27372" x2="231.49989" y2="29.56398" gradientUnits="userSpaceOnUse" id="color-3"><stop offset="0" stop-color="#1300e8"/><stop offset="1" stop-color="#1300e8" stop-opacity="0"/></linearGradient><linearGradient x1="198.16867" y1="18.76415" x2="217.83438" y2="24.5952" gradientUnits="userSpaceOnUse" id="color-4"><stop offset="0" stop-color="#ff0379"/><stop offset="1" stop-color="#ff0379" stop-opacity="0"/></linearGradient><linearGradient x1="193.67502" y1="22.94166" x2="198.10213" y2="26.27661" gradientUnits="userSpaceOnUse" id="color-5"><stop offset="0" stop-color="#080078"/><stop offset="1" stop-color="#1a00de"/></linearGradient><linearGradient x1="193.67502" y1="22.94166" x2="198.10213" y2="26.27661" gradientUnits="userSpaceOnUse" id="color-6"><stop offset="0" stop-color="#ff0379"/><stop offset="1" stop-color="#ff0379" stop-opacity="0"/></linearGradient><linearGradient x1="155.6837" y1="11.98116" x2="183.31722" y2="14.80566" gradientUnits="userSpaceOnUse" id="color-7"><stop offset="0" stop-color="#080078"/><stop offset="1" stop-color="#1a00de"/></linearGradient><linearGradient x1="170.91269" y1="-0.42335" x2="168.08824" y2="27.21016" gradientUnits="userSpaceOnUse" id="color-8"><stop offset="0" stop-color="#ff0379"/><stop offset="1" stop-color="#ff0379" stop-opacity="0"/></linearGradient><linearGradient x1="187.39186" y1="30.00709" x2="221.40067" y2="37.34335" gradientUnits="userSpaceOnUse" id="color-9"><stop offset="0" stop-color="#1a00de"/><stop offset="1" stop-color="#1500b3"/></linearGradient><linearGradient x1="181.02489" y1="8.58439" x2="178.83138" y2="30.04491" gradientUnits="userSpaceOnUse" id="color-10"><stop offset="0" stop-color="#ff0379"/><stop offset="1" stop-color="#ff0379" stop-opacity="0"/></linearGradient><linearGradient x1="208.09644" y1="32.13393" x2="213.85556" y2="35.07797" gradientUnits="userSpaceOnUse" id="color-11"><stop offset="0" stop-color="#1500b1"/><stop offset="1" stop-color="#100089"/></linearGradient><linearGradient x1="208.09644" y1="32.13393" x2="213.85556" y2="35.07797" gradientUnits="userSpaceOnUse" id="color-12"><stop offset="0" stop-color="#ff0379"/><stop offset="1" stop-color="#ff0379" stop-opacity="0"/></linearGradient><linearGradient x1="206.64816" y1="36.87076" x2="209.19241" y2="38.17138" gradientUnits="userSpaceOnUse" id="color-13"><stop offset="0" stop-color="#1500b1"/><stop offset="1" stop-color="#100089"/></linearGradient><linearGradient x1="206.64816" y1="36.87076" x2="209.19241" y2="38.17138" gradientUnits="userSpaceOnUse" id="color-14"><stop offset="0" stop-color="#ff0379"/><stop offset="1" stop-color="#ff0379" stop-opacity="0"/></linearGradient><linearGradient x1="211.24432" y1="37.39854" x2="214.47919" y2="39.05219" gradientUnits="userSpaceOnUse" id="color-15"><stop offset="0" stop-color="#1500b1"/><stop offset="1" stop-color="#100089"/></linearGradient><linearGradient x1="211.24432" y1="37.39854" x2="214.47919" y2="39.05219" gradientUnits="userSpaceOnUse" id="color-16"><stop offset="0" stop-color="#ff0379"/><stop offset="1" stop-color="#ff0379" stop-opacity="0"/></linearGradient><linearGradient x1="214.94527" y1="35.23549" x2="217.39903" y2="36.48984" gradientUnits="userSpaceOnUse" id="color-17"><stop offset="0" stop-color="#1500b1"/><stop offset="1" stop-color="#100089"/></linearGradient><linearGradient x1="214.94527" y1="35.23549" x2="217.39903" y2="36.48984" gradientUnits="userSpaceOnUse" id="color-18"><stop offset="0" stop-color="#ff0379"/><stop offset="1" stop-color="#ff0379" stop-opacity="0"/></linearGradient><linearGradient x1="162.6764" y1="2.85024" x2="186.72577" y2="16.75043" gradientUnits="userSpaceOnUse" id="color-19"><stop offset="0" stop-color="#080078"/><stop offset="1" stop-color="#1a00de"/></linearGradient><linearGradient x1="167.75098" y1="21.82502" x2="181.6512" y2="-2.22436" gradientUnits="userSpaceOnUse" id="color-20"><stop offset="0" stop-color="#ff0379"/><stop offset="1" stop-color="#ff0379" stop-opacity="0"/></linearGradient><linearGradient x1="197.3036" y1="14.005" x2="230.31549" y2="17.20304" gradientUnits="userSpaceOnUse" id="color-21"><stop offset="0" stop-color="#1a00de"/><stop offset="1" stop-color="#1500b3"/></linearGradient><linearGradient x1="180.58816" y1="20.18667" x2="191.6186" y2="1.64766" gradientUnits="userSpaceOnUse" id="color-22"><stop offset="0" stop-color="#ff0379"/><stop offset="1" stop-color="#ff0379" stop-opacity="0"/></linearGradient><linearGradient x1="216.29848" y1="17.74426" x2="222.73632" y2="18.36792" gradientUnits="userSpaceOnUse" id="color-23"><stop offset="0" stop-color="#1500b1"/><stop offset="1" stop-color="#100089"/></linearGradient><linearGradient x1="216.29848" y1="17.74426" x2="222.73632" y2="18.36792" gradientUnits="userSpaceOnUse" id="color-24"><stop offset="0" stop-color="#ff0379"/><stop offset="1" stop-color="#ff0379" stop-opacity="0"/></linearGradient><linearGradient x1="217.63122" y1="12.97364" x2="220.47533" y2="13.24917" gradientUnits="userSpaceOnUse" id="color-25"><stop offset="0" stop-color="#1500b1"/><stop offset="1" stop-color="#100089"/></linearGradient><linearGradient x1="217.63122" y1="12.97364" x2="220.47533" y2="13.24917" gradientUnits="userSpaceOnUse" id="color-26"><stop offset="0" stop-color="#ff0379"/><stop offset="1" stop-color="#ff0379" stop-opacity="0"/></linearGradient><linearGradient x1="221.7873" y1="15.00596" x2="225.4034" y2="15.35627" gradientUnits="userSpaceOnUse" id="color-27"><stop offset="0" stop-color="#1500b1"/><stop offset="1" stop-color="#100089"/></linearGradient><linearGradient x1="221.7873" y1="15.00596" x2="225.4034" y2="15.35627" gradientUnits="userSpaceOnUse" id="color-28"><stop offset="0" stop-color="#ff0379"/><stop offset="1" stop-color="#ff0379" stop-opacity="0"/></linearGradient><linearGradient x1="223.73916" y1="18.82251" x2="226.4821" y2="19.08823" gradientUnits="userSpaceOnUse" id="color-29"><stop offset="0" stop-color="#1500b1"/><stop offset="1" stop-color="#100089"/></linearGradient><linearGradient x1="223.73916" y1="18.82251" x2="226.4821" y2="19.08823" gradientUnits="userSpaceOnUse" id="color-30"><stop offset="0" stop-color="#ff0379"/><stop offset="1" stop-color="#ff0379" stop-opacity="0"/></linearGradient><linearGradient x1="163.39397" y1="2.89295" x2="191.86233" y2="17.00941" gradientUnits="userSpaceOnUse" id="color-31"><stop offset="0" stop-color="#080078"/><stop offset="1" stop-color="#1a00de"/></linearGradient><linearGradient x1="170.75855" y1="22.12004" x2="184.49774" y2="-2.21769" gradientUnits="userSpaceOnUse" id="color-32"><stop offset="0" stop-color="#ff0379"/><stop offset="1" stop-color="#ff0379" stop-opacity="0"/></linearGradient><radialGradient cx="200.24471" cy="4.65927" r="18.76966" gradientUnits="userSpaceOnUse" id="color-33"><stop offset="0" stop-color="#f6ffae"/><stop offset="1" stop-color="#f6ffae" stop-opacity="0"/></radialGradient><linearGradient x1="170.75855" y1="22.12004" x2="184.49774" y2="-2.21769" gradientUnits="userSpaceOnUse" id="color-34"><stop offset="0" stop-color="#ff0379"/><stop offset="1" stop-color="#ff0379" stop-opacity="0"/></linearGradient><linearGradient x1="225.64131" y1="25.6611" x2="231.25609" y2="28.87177" gradientUnits="userSpaceOnUse" id="color-35"><stop offset="0" stop-color="#1b00ea"/><stop offset="1" stop-color="#1b00eb"/></linearGradient><linearGradient x1="225.64131" y1="25.6611" x2="231.25609" y2="28.87177" gradientUnits="userSpaceOnUse" id="color-36"><stop offset="0" stop-color="#ff0379"/><stop offset="1" stop-color="#ff0379" stop-opacity="0"/></linearGradient><linearGradient x1="231.19372" y1="38.90884" x2="235.57818" y2="41.416" gradientUnits="userSpaceOnUse" id="color-37"><stop offset="0" stop-color="#1b00ea"/><stop offset="1" stop-color="#1b00eb"/></linearGradient><linearGradient x1="231.19372" y1="38.90884" x2="235.57818" y2="41.416" gradientUnits="userSpaceOnUse" id="color-38"><stop offset="0" stop-color="#ff0379"/><stop offset="1" stop-color="#ff0379" stop-opacity="0"/></linearGradient><linearGradient x1="241.37094" y1="36.55918" x2="245.33973" y2="38.82864" gradientUnits="userSpaceOnUse" id="color-39"><stop offset="0" stop-color="#1b00ea"/><stop offset="1" stop-color="#1b00eb"/></linearGradient><linearGradient x1="241.37094" y1="36.55918" x2="245.33973" y2="38.82864" gradientUnits="userSpaceOnUse" id="color-40"><stop offset="0" stop-color="#ff0379"/><stop offset="1" stop-color="#ff0379" stop-opacity="0"/></linearGradient><linearGradient x1="250.22509" y1="46.87022" x2="253.57868" y2="48.7879" gradientUnits="userSpaceOnUse" id="color-41"><stop offset="0" stop-color="#1b00ea"/><stop offset="1" stop-color="#1b00eb"/></linearGradient><linearGradient x1="250.22509" y1="46.87022" x2="253.57868" y2="48.7879" gradientUnits="userSpaceOnUse" id="color-42"><stop offset="0" stop-color="#ff0379"/><stop offset="1" stop-color="#ff0379" stop-opacity="0"/></linearGradient><linearGradient x1="261.60328" y1="42.10989" x2="264.6774" y2="43.86776" gradientUnits="userSpaceOnUse" id="color-43"><stop offset="0" stop-color="#1b00ea"/><stop offset="1" stop-color="#1b00eb"/></linearGradient><linearGradient x1="261.60328" y1="42.10989" x2="264.6774" y2="43.86776" gradientUnits="userSpaceOnUse" id="color-44"><stop offset="0" stop-color="#ff0379"/><stop offset="1" stop-color="#ff0379" stop-opacity="0"/></linearGradient><linearGradient x1="290.43868" y1="81.91401" x2="292.74433" y2="83.23243" gradientUnits="userSpaceOnUse" id="color-45"><stop offset="0" stop-color="#1b00ea"/><stop offset="1" stop-color="#1b00eb"/></linearGradient><linearGradient x1="290.43868" y1="81.91401" x2="292.74433" y2="83.23243" gradientUnits="userSpaceOnUse" id="color-46"><stop offset="0" stop-color="#ff0379"/><stop offset="1" stop-color="#ff0379" stop-opacity="0"/></linearGradient><linearGradient x1="293.34415" y1="69.02289" x2="295.64981" y2="70.34131" gradientUnits="userSpaceOnUse" id="color-47"><stop offset="0" stop-color="#1b00ea"/><stop offset="1" stop-color="#1b00eb"/></linearGradient><linearGradient x1="293.34415" y1="69.02289" x2="295.64981" y2="70.34131" gradientUnits="userSpaceOnUse" id="color-48"><stop offset="0" stop-color="#ff0379"/><stop offset="1" stop-color="#ff0379" stop-opacity="0"/></linearGradient><linearGradient x1="301.05147" y1="83.22712" x2="303.35711" y2="84.54554" gradientUnits="userSpaceOnUse" id="color-49"><stop offset="0" stop-color="#1b00ea"/><stop offset="1" stop-color="#1b00eb"/></linearGradient><linearGradient x1="301.05147" y1="83.22712" x2="303.35711" y2="84.54554" gradientUnits="userSpaceOnUse" id="color-50"><stop offset="0" stop-color="#ff0379"/><stop offset="1" stop-color="#ff0379" stop-opacity="0"/></linearGradient><radialGradient cx="365.15735" cy="195.10308" r="7.77432" gradientUnits="userSpaceOnUse" id="color-51"><stop offset="0" stop-color="#ce0000"/><stop offset="1" stop-color="#ff0000"/></radialGradient><radialGradient cx="486.64618" cy="149.21186" r="10.20408" gradientUnits="userSpaceOnUse" id="color-52"><stop offset="0" stop-color="#ce0000"/><stop offset="1" stop-color="#ff0000"/></radialGradient><radialGradient cx="430.15217" cy="185.73731" r="12.95011" gradientUnits="userSpaceOnUse" id="color-53"><stop offset="0" stop-color="#ff0000" stop-opacity="0.83065"/><stop offset="1" stop-color="#ff0000" stop-opacity="0.17671"/></radialGradient><radialGradient cx="437.89363" cy="173.86707" r="5.5527" gradientUnits="userSpaceOnUse" id="color-54"><stop offset="0" stop-color="#ff0000" stop-opacity="0.83065"/><stop offset="1" stop-color="#ff0000" stop-opacity="0.17671"/></radialGradient><radialGradient cx="441.5859" cy="164.7493" r="4.17644" gradientUnits="userSpaceOnUse" id="color-55"><stop offset="0" stop-color="#ff0000" stop-opacity="0.83065"/><stop offset="1" stop-color="#ff0000" stop-opacity="0.17671"/></radialGradient><radialGradient cx="449.95904" cy="164.17397" r="1.55593" gradientUnits="userSpaceOnUse" id="color-56"><stop offset="0" stop-color="#ff0000" stop-opacity="0.83065"/><stop offset="1" stop-color="#ff0000" stop-opacity="0.17671"/></radialGradient><radialGradient cx="446.79007" cy="171.77953" r="1.55593" gradientUnits="userSpaceOnUse" id="color-57"><stop offset="0" stop-color="#ff0000" stop-opacity="0.83065"/><stop offset="1" stop-color="#ff0000" stop-opacity="0.17671"/></radialGradient><radialGradient cx="214.8966" cy="165.37612" r="85.05678" gradientUnits="userSpaceOnUse" id="color-58"><stop offset="0" stop-color="#0022ff" stop-opacity="0.54902"/><stop offset="1" stop-color="#0022ff" stop-opacity="0"/></radialGradient><radialGradient cx="209.92316" cy="143.37612" r="30" gradientUnits="userSpaceOnUse" id="color-59"><stop offset="0" stop-color="#0022ff" stop-opacity="0.73333"/><stop offset="1" stop-color="#0022fc" stop-opacity="0.1451"/></radialGradient><radialGradient cx="239.92316" cy="156.87612" r="43.5" gradientUnits="userSpaceOnUse" id="color-60"><stop offset="0" stop-color="#0022ff" stop-opacity="0.73333"/><stop offset="1" stop-color="#0022fc" stop-opacity="0.1451"/></radialGradient><radialGradient cx="194.42316" cy="153.87612" r="6" gradientUnits="userSpaceOnUse" id="color-61"><stop offset="0" stop-color="#0022ff" stop-opacity="0.73333"/><stop offset="1" stop-color="#0022fc" stop-opacity="0.1451"/></radialGradient><radialGradient cx="224.92955" cy="162.83444" r="21" gradientUnits="userSpaceOnUse" id="color-62"><stop offset="0" stop-color="#0022ff" stop-opacity="0.73333"/><stop offset="1" stop-color="#0022fc" stop-opacity="0.1451"/></radialGradient><radialGradient cx="213.92316" cy="194.84083" r="9.99362" gradientUnits="userSpaceOnUse" id="color-63"><stop offset="0" stop-color="#0022ff" stop-opacity="0.73333"/><stop offset="1" stop-color="#0022fc" stop-opacity="0.1451"/></radialGradient><radialGradient cx="240.03575" cy="187.93426" r="4.09981" gradientUnits="userSpaceOnUse" id="color-64"><stop offset="0" stop-color="#0022ff" stop-opacity="0.73333"/><stop offset="1" stop-color="#0022fc" stop-opacity="0.1451"/></radialGradient><radialGradient cx="99.92316" cy="166.37612" r="21" gradientUnits="userSpaceOnUse" id="color-65"><stop offset="0" stop-color="#0022ff" stop-opacity="0.82353"/><stop offset="1" stop-color="#0022ff" stop-opacity="0"/></radialGradient><radialGradient cx="127.92316" cy="177.37612" r="31" gradientUnits="userSpaceOnUse" id="color-66"><stop offset="0" stop-color="#0022ff" stop-opacity="0.73333"/><stop offset="1" stop-color="#0022fc" stop-opacity="0.1451"/></radialGradient><radialGradient cx="120.92316" cy="202.41454" r="15.03842" gradientUnits="userSpaceOnUse" id="color-67"><stop offset="0" stop-color="#0022ff" stop-opacity="0.73333"/><stop offset="1" stop-color="#0022fc" stop-opacity="0.1451"/></radialGradient><radialGradient cx="140.06139" cy="191.47593" r="4.09981" gradientUnits="userSpaceOnUse" id="color-68"><stop offset="0" stop-color="#0022ff" stop-opacity="0.73333"/><stop offset="1" stop-color="#0022fc" stop-opacity="0.1451"/></radialGradient></defs><g transform="translate(-78.92315,0)"><g data-paper-data="{&quot;isPaintingLayer&quot;:true}" fill-rule="nonzero" stroke-width="0" stroke-linecap="butt" stroke-linejoin="miter" stroke-miterlimit="10" stroke-dasharray="" stroke-dashoffset="0" style="mix-blend-mode: normal"><g><g><path d="M191.53344,5.10143c0,0 66.51054,23.42604 92.3846,45.39068c12.72542,10.80268 47.25523,63.49084 71.18968,117.51506c26.73583,60.34741 42.35513,122.026 42.35513,122.026c0,0 -17.70571,-58.21312 -49.05183,-114.38741c-26.6474,-47.75385 -66.43384,-93.76614 -78.65813,-104.1434c-26.24853,-22.28253 -92.90885,-49.56957 -92.90885,-49.56957z" fill="url(#color-1)" stroke="url(#color-2)"/><path d="M193.15049,31.56557c0,0 1.6616,-10.89318 3.02329,-15.11221c1.07679,-3.33631 4.49464,-8.18122 4.49464,-8.18122l23.72589,-5.80085l-15.67938,9.26736l14.75724,-0.59028c0,0 -9.16182,3.4433 -8.44596,5.33962c1.35999,3.6026 16.00044,14.67227 16.00044,14.67227c0,0 -15.82117,-3.16065 -17.98669,-0.8944c-1.14734,1.20071 5.96218,14.73036 5.96218,14.73036l-10.48168,-12.4698l10.96262,18.46033z" fill="url(#color-3)" stroke="url(#color-4)"/><g><path d="M192.04923,25.09986l3.25158,-4.31644c0,0 2.16355,4.13525 1.98634,4.27205c-0.5029,0.38826 -5.23793,0.04438 -5.23793,0.04438z" fill="url(#color-5)" stroke="url(#color-6)"/><g><path d="M185.81255,22.61727c0,0 2.42367,-3.75876 5.55874,-2.61723c1.13869,0.41462 1.30019,3.7309 1.30019,3.7309c0,0 8.34956,4.62661 11.26957,6.06352c1.77162,0.8718 8.34916,-3.62768 8.34916,-3.62768c0,0 1.2469,3.50795 3.15346,4.70791c2.85204,1.795 7.72704,5.51985 7.66502,5.65769c-0.05398,0.12001 -3.23989,2.27685 -6.56878,3.7232c-3.63518,1.57943 -9.22737,1.90235 -9.22737,1.90235l-5.79788,-5.27023l-18.28741,-8.52383z" data-paper-data="{&quot;index&quot;:null}" fill="url(#color-7)" stroke="url(#color-8)"/><path d="M190.75548,23.84315c0,0 8.80802,5.56794 15.41584,7.80459c0.26266,0.12926 5.27442,-3.37372 5.27442,-3.37372c0,0 2.68181,3.68492 4.16247,4.61682c2.21494,1.39403 5.98155,3.69163 5.93338,3.79868c-0.04192,0.09319 -3.36319,1.58552 -5.94845,2.70876c-2.82313,1.2266 -8.13496,1.85936 -8.13496,1.85936l-2.66744,-3.69703l-17.09657,-8.95506z" data-paper-data="{&quot;index&quot;:null}" fill="url(#color-9)" stroke="url(#color-10)"/><path d="M211.57542,35.98449l-1.5688,-0.48224l-1.54858,-1.28224l-0.36159,-2.08609l1.93213,-0.92829l1.91678,0.50403l1.35365,1.03878l0.55654,2.32952z" data-paper-data="{&quot;index&quot;:null}" fill="url(#color-11)" stroke="url(#color-12)"/><path d="M208.1851,38.57185l-0.69306,-0.21304l-0.68413,-0.56646l-0.15973,-0.92159l0.85357,-0.4101l0.84681,0.22266l0.598,0.45891l0.24587,1.02913z" data-paper-data="{&quot;index&quot;:null}" fill="url(#color-13)" stroke="url(#color-14)"/><path d="M213.19847,39.56137l-0.88117,-0.27088l-0.86983,-0.72021l-0.2031,-1.17174l1.08527,-0.52142l1.07665,0.28311l0.76034,0.58348l0.31259,1.30848z" data-paper-data="{&quot;index&quot;:null}" fill="url(#color-15)" stroke="url(#color-16)"/><path d="M216.42753,36.87608l-0.66841,-0.20547l-0.65979,-0.54631l-0.15405,-0.88881l0.82321,-0.39551l0.81668,0.21475l0.57673,0.44258l0.23712,0.99253z" data-paper-data="{&quot;index&quot;:null}" fill="url(#color-17)" stroke="url(#color-18)"/></g><g><path d="M194.59603,5.70992l19.81413,3.80591l7.7863,-0.87437c0,0 4.34281,3.5379 6.3635,6.94759c1.85044,3.12239 3.16876,6.7368 3.14221,6.86568c-0.03049,0.14804 -6.16348,0.31067 -9.52643,0.0945c-2.24811,-0.14451 -5.31377,1.96792 -5.31377,1.96792c0,0 -2.69452,-7.49992 -4.64101,-7.83132c-5.39116,-0.91784 -13.82915,2.706 -17.58843,1.60224c-2.30061,-0.67547 -1.30801,-6.4064 -1.30801,-6.4064z" data-paper-data="{&quot;index&quot;:null}" fill="url(#color-19)" stroke="url(#color-20)"/><path d="M197.87698,8.08613l19.06528,3.00016l4.34544,-1.37855c0,0 3.88792,3.67423 5.4236,6.34186c1.40629,2.44286 3.18357,5.62077 3.16169,5.7206c-0.02512,0.11466 -4.41901,-0.28562 -7.0284,-0.48652c-1.74434,-0.1343 -6.09413,1.22596 -6.09413,1.22596c0,0 -1.93616,-5.79998 -2.22411,-5.85275c-1.1682,-0.37705 -2.47908,-1.06879 -4.05975,-1.15867c-4.73309,-0.26917 -11.19839,2.54199 -13.56474,1.86592c-1.33445,-0.38126 1.63678,-5.46897 1.63678,-5.46897z" data-paper-data="{&quot;index&quot;:null}" fill="url(#color-21)" stroke="url(#color-22)"/><path d="M222.73632,18.36792l-1.72421,1.66238l-1.70007,0.14555l-1.88625,-0.6084l-1.12731,-1.82321l1.42879,-1.56238l1.99548,-0.24554l1.58139,0.43921z" fill="url(#color-23)" stroke="url(#color-24)"/><path d="M220.47533,13.24917l-0.76171,0.7344l-0.75104,0.06429l-0.83332,-0.26877l-0.49801,-0.80544l0.63121,-0.69023l0.88156,-0.10847l0.69862,0.19404z" fill="url(#color-25)" stroke="url(#color-26)"/><path d="M225.4034,15.35627l-0.96847,0.93375l-0.95491,0.08175l-1.0595,-0.34173l-0.6332,-1.02409l0.80255,-0.87758l1.12083,-0.13793l0.88825,0.24672z" fill="url(#color-27)" stroke="url(#color-28)"/><path d="M226.4821,19.08823l-0.73463,0.70829l-0.72433,0.06202l-0.80367,-0.25922l-0.48031,-0.7768l0.60876,-0.66568l0.85021,-0.10462l0.67377,0.18714z" fill="url(#color-29)" stroke="url(#color-30)"/></g><path d="M184.69887,31.57475l-14.90192,-17.65164l-0.87915,-8.85609l11.27175,-4.14087l20.21144,1.23682l-0.54155,3.67588l-0.92067,6.2493l-1.04003,7.05959z" fill="url(#color-31)" stroke="url(#color-32)"/><path d="M184.69887,31.57475l-16.80267,-18.57778l10.3926,-12.99697l22.11219,2.16297l-0.54155,3.67588l-0.92067,6.2493l-1.04003,7.05959z" fill="url(#color-33)" stroke="url(#color-34)"/><g stroke="#000000"><path d="M183.29075,24.29749l-7.64234,-4.68546l11.20535,-4.84449l3.45658,5.35288z" data-paper-data="{&quot;index&quot;:null}" fill="#000000"/><path d="M183.50089,22.96027l-5.21431,-3.19685l7.64533,-3.30537l2.3584,3.65221z" data-paper-data="{&quot;index&quot;:null}" fill="#ffffff"/><path d="M181.13162,22.05578l-3.58505,-2.47343l5.16253,-2.40355l2.44425,3.00039z" fill="#000000"/></g><g data-paper-data="{&quot;index&quot;:null}" stroke="#000000"><path d="M193.08863,17.89801l-3.12949,-3.85064l6.29014,-7.12797l1.62555,6.78885z" data-paper-data="{&quot;index&quot;:null}" fill="#000000"/><path d="M193.56846,16.39989l-2.13524,-2.62727l4.29172,-4.86336l1.10911,4.632z" data-paper-data="{&quot;index&quot;:null}" fill="#ffffff"/><path d="M192.63835,16.61155l-1.63189,-2.53359l3.02505,-3.24259l0.96652,3.25113z" fill="#000000"/></g></g></g><path d="M231.25609,28.87177l-2.25455,0.80838l-1.61004,-0.56494l-1.47044,-1.32889l-0.27978,-2.12523l1.9441,-0.83841l1.92047,0.59499l1.26186,1.04949z" fill="url(#color-35)" stroke="url(#color-36)"/><path d="M235.57818,41.416l-1.76052,0.63124l-1.25724,-0.44116l-1.14823,-1.0377l-0.21848,-1.65956l1.51811,-0.6547l1.49965,0.46462l0.98535,0.81953z" fill="url(#color-37)" stroke="url(#color-38)"/><path d="M245.33973,38.82864l-1.5936,0.5714l-1.13805,-0.39934l-1.03937,-0.93932l-0.19777,-1.50221l1.37417,-0.59263l1.35747,0.42057l0.89192,0.74183z" fill="url(#color-39)" stroke="url(#color-40)"/><path d="M253.57868,48.7879l-1.34659,0.48283l-0.96165,-0.33744l-0.87827,-0.79373l-0.16712,-1.26936l1.16117,-0.50077l1.14707,0.35538l0.75368,0.62684z" fill="url(#color-41)" stroke="url(#color-42)"/><path d="M264.6774,43.86776l-1.23439,0.44259l-0.8815,-0.3093l-0.80508,-0.72758l-0.15318,-1.16358l1.06442,-0.45904l1.05147,0.32577l0.69087,0.57462z" fill="url(#color-43)" stroke="url(#color-44)"/><path d="M292.74433,83.23243l-0.92579,0.33196l-0.66112,-0.23199l-0.60381,-0.54569l-0.11489,-0.87268l0.79831,-0.34428l0.78862,0.24434l0.51815,0.43096z" fill="url(#color-45)" stroke="url(#color-46)"/><path d="M295.64981,70.34131l-0.92579,0.33195l-0.66113,-0.23199l-0.6038,-0.54569l-0.11489,-0.87268l0.79831,-0.34428l0.78861,0.24432l0.51815,0.43096z" fill="url(#color-47)" stroke="url(#color-48)"/><path d="M303.35711,84.54554l-0.92579,0.33195l-0.66113,-0.23199l-0.6038,-0.54569l-0.1149,-0.87269l0.79831,-0.34428l0.78861,0.24432l0.51815,0.43096z" fill="url(#color-49)" stroke="url(#color-50)"/></g><path d="M357.90627,197.907c-1.54856,-4.00466 0.44249,-8.50644 4.44715,-10.05501c4.00466,-1.54856 8.50644,0.44249 10.05501,4.44715c1.54856,4.00466 6.40888,9.9121 2.40422,11.46066c-4.00466,1.54856 -15.35782,-1.84815 -16.90638,-5.85281z" fill="url(#color-51)" stroke="#000000"/><path d="M476.44211,149.21186c0,-5.63556 4.56853,-4.74556 10.20409,-4.74556c5.63556,0 10.20408,-0.88999 10.20408,4.74556c0,5.63556 -4.56852,10.20408 -10.20408,10.20408c-5.63556,0 -10.20409,-4.56852 -10.20409,-10.20408z" fill="url(#color-52)" stroke="#000000"/><path d="M417.20203,185.73731c0,-7.15215 5.79796,-12.95011 12.95011,-12.95011c7.15215,0 12.9501,5.79796 12.9501,12.95011c0,7.15215 -5.79796,12.95011 -12.9501,12.95011c-7.15215,0 -12.95011,-5.79796 -12.95011,-12.95011z" fill="url(#color-53)" stroke="none"/><path d="M432.34089,173.86707c0,-3.06667 2.48603,-5.5527 5.5527,-5.5527c3.06667,0 5.55271,2.48603 5.55271,5.5527c0,3.06667 -2.48603,5.55271 -5.55271,5.55271c-3.06667,0 -5.5527,-2.48604 -5.5527,-5.55271z" fill="url(#color-54)" stroke="none"/><path d="M437.40946,164.7493c0,-2.21157 1.86986,-4.00441 4.17645,-4.00441c2.30658,0 4.17644,1.79284 4.17644,4.00441c0,2.21157 -1.86987,4.0044 -4.17644,4.0044c-2.30658,0 -4.17645,-1.79283 -4.17645,-4.0044z" fill="url(#color-55)" stroke="none"/><path d="M448.40311,164.17397c0,-0.82391 0.69662,-1.49184 1.55593,-1.49184c0.85931,0 1.55593,0.66792 1.55593,1.49184c0,0.82391 -0.6966,1.49184 -1.55593,1.49184c-0.85931,0 -1.55593,-0.66792 -1.55593,-1.49184z" fill="url(#color-56)" stroke="none"/><path d="M445.23415,171.77953c0,-0.82391 0.6966,-1.49184 1.55592,-1.49184c0.85931,0 1.55593,0.66792 1.55593,1.49184c0,0.82391 -0.69662,1.49184 -1.55593,1.49184c-0.85931,0 -1.55592,-0.66792 -1.55592,-1.49184z" fill="url(#color-57)" stroke="none"/><path d="M129.83982,165.37612c0,-46.97556 38.08121,-85.05677 85.05677,-85.05677c46.97556,0 85.05678,38.08122 85.05678,85.05678c0,46.97556 -38.08121,85.05677 -85.05678,85.05677c-46.97556,0 -85.05677,-38.08121 -85.05677,-85.05677z" fill="url(#color-58)" stroke="#696969"/><path d="M179.92316,143.37612c0,-16.56854 13.43146,-30 30,-30c16.56854,0 30,13.43146 30,30c0,16.56854 -13.43146,30 -30,30c-16.56854,0 -30,-13.43146 -30,-30z" fill="url(#color-59)" stroke="#696969"/><path d="M196.42316,156.87612c0,-24.02439 19.47561,-43.5 43.5,-43.5c24.02439,0 43.5,19.47561 43.5,43.5c0,24.02439 -19.47561,43.5 -43.5,43.5c-24.02439,0 -43.5,-19.47561 -43.5,-43.5z" fill="url(#color-60)" stroke="#696969"/><path d="M188.42316,153.87612c0,-3.31371 2.68629,-6 6,-6c3.31371,0 6,2.68629 6,6c0,3.31371 -2.68629,6 -6,6c-3.31371,0 -6,-2.68629 -6,-6z" fill="url(#color-61)" stroke="#696969"/><path d="M203.92955,162.83444c0,-11.59798 9.40202,-21 21,-21c11.59798,0 21,9.40202 21,21c0,11.59798 -9.40202,21 -21,21c-11.59798,0 -21,-9.40202 -21,-21z" fill="url(#color-62)" stroke="#696969"/><path d="M203.92955,194.84083c0,-5.51932 4.4743,-9.99362 9.99362,-9.99362c5.51932,0 9.99362,4.4743 9.99362,9.99362c0,5.51932 -4.4743,9.99362 -9.99362,9.99362c-5.51932,0 -9.99362,-4.4743 -9.99362,-9.99362z" fill="url(#color-63)" stroke="#696969"/><path d="M235.93593,187.93426c0,-2.26426 1.83555,-4.09981 4.09981,-4.09981c2.26426,0 4.09981,1.83554 4.09981,4.09981c0,2.26426 -1.83555,4.09982 -4.09981,4.09982c-2.26426,0 -4.09981,-1.83555 -4.09981,-4.09982z" fill="url(#color-64)" stroke="#696969"/><path d="M78.92315,166.37612c0,-11.59798 9.40202,-21 21,-21c11.59798,0 21,9.40202 21,21c0,11.59798 -9.40202,21 -21,21c-11.59798,0 -21,-9.40202 -21,-21z" fill="url(#color-65)" stroke="#696969"/><path d="M96.92316,177.37612c0,-17.12083 13.87917,-31 31,-31c17.12083,0 31,13.87917 31,31c0,17.12083 -13.87917,31 -31,31c-17.12083,0 -31,-13.87917 -31,-31z" fill="url(#color-66)" stroke="#696969"/><path d="M120.92316,217.45296c-8.30549,0 -15.03842,-6.73292 -15.03842,-15.03842c0,-8.30549 6.73292,-15.03842 15.03842,-15.03842c8.30549,0 15.03842,6.73292 15.03842,15.03842c0,8.30549 -6.73292,15.03842 -15.03842,15.03842z" fill="url(#color-67)" stroke="#696969"/><path d="M140.0614,195.57574c-2.26426,0 -4.09981,-1.83555 -4.09981,-4.09981c0,-2.26426 1.83555,-4.09981 4.09981,-4.09981c2.26426,0 4.09981,1.83555 4.09981,4.09981c0,2.26426 -1.83555,4.09981 -4.09981,4.09981z" fill="url(#color-68)" stroke="#696969"/></g></g></svg>