<svg version="1.1" xmlns="http://www.w3.org/2000/svg" xmlns:xlink="http://www.w3.org/1999/xlink" width="168.34471" height="153.05977" viewBox="0,0,168.34471,153.05977"><g transform="translate(-156.16741,-105.69563)"><g data-paper-data="{&quot;isPaintingLayer&quot;:true}" fill-opacity="0.74902" fill="#ff0000" fill-rule="nonzero" stroke="none" stroke-width="0" stroke-linecap="butt" stroke-linejoin="miter" stroke-miterlimit="10" stroke-dasharray="" stroke-dashoffset="0" style="mix-blend-mode: normal"><path d="M284.84515,191.81418l0.79077,17.08651l-17.08651,-0.79077l-0.79077,-17.08651z"/><path d="M316.98685,171.98783l7.52527,8.87232l-8.21237,6.73459l-7.52527,-8.87232z"/><path d="M198.13642,158.77851l4.08585,10.69546l-10.36237,3.11128l-4.08585,-10.69546z"/><path d="M200.11636,214.41776l-0.42828,-9.25385l9.25386,0.42827l0.42827,9.25386z" data-paper-data="{&quot;index&quot;:null}"/><path d="M234.68273,197.73228l0.31794,6.87001l-6.87001,-0.31794l-0.31794,-6.87001z"/><path d="M243.72744,174.53352l-3.22596,5.7499l-6.07382,-3.77316l3.22596,-5.7499z"/><path d="M242.52776,251.88539l0.31794,6.87001l-6.87001,-0.31794l-0.31794,-6.87001z"/><path d="M278.44575,144.34885l0.31794,6.87001l-6.87001,-0.31794l-0.31794,-6.87001z"/><path d="M257.44349,105.69563l5.37205,2.81378l-2.32756,5.1341l-5.37206,-2.81379z"/><path d="M257.0483,225.58638l-1.60609,8.93613l-9.12347,-2.44189l1.60609,-8.93614z"/><path d="M166.35892,190.91512l3.29381,5.92597l-5.64587,2.75828l-3.29382,-5.92596z"/><path d="M277.53384,165.40544l1.83979,3.31001l-3.15356,1.54067l-1.8398,-3.31002z"/><path d="M206.16431,242.47087l-1.8398,-3.31002l3.15357,-1.54066l1.8398,3.31002z" data-paper-data="{&quot;index&quot;:null}"/><path d="M204.10612,108.59355l2.99265,2.35885l-2.09137,2.7867l-2.99265,-2.35884z"/><path d="M240.13091,142.35841l3.63801,0.64241l-0.30771,3.59405l-3.63801,-0.64241z"/><path d="M286.77787,237.93074l2.66639,2.72964l-2.49402,2.42465l-2.6664,-2.72963z"/><path d="M158.66144,152.26043l2.6664,2.72963l-2.49402,2.42465l-2.66641,-2.72964z"/><path d="M218.05849,180.15965l2.66639,2.72964l-2.49402,2.42465l-2.66639,-2.72964z"/><path d="M216.59273,134.236l2.66641,2.72964l-2.49402,2.42465l-2.6664,-2.72963z"/></g></g></svg>