<svg version="1.1" xmlns="http://www.w3.org/2000/svg" xmlns:xlink="http://www.w3.org/1999/xlink" width="37.6" height="43.6" viewBox="0,0,37.6,43.6"><g transform="translate(-221.20007,-158.2)"><g data-paper-data="{&quot;isPaintingLayer&quot;:true}" fill-rule="nonzero" stroke="none" stroke-linecap="butt" stroke-linejoin="miter" stroke-miterlimit="10" stroke-dasharray="" stroke-dashoffset="0" style="mix-blend-mode: normal"><path d="M221.20008,201.8v-43.6h37.6v43.6z" fill="none" stroke-width="0"/><path d="M237.20688,191.55108v-25.64193c0,-0.98962 0.27112,-1.78945 0.81337,-2.3995c0.55583,-0.62359 1.2811,-0.93539 2.17581,-0.93539c0.58292,0 1.09807,0.14234 1.54544,0.42703c0.4609,0.27112 0.82014,0.66425 1.07772,1.17939c0.25758,0.50159 0.38637,1.07775 0.38637,1.72846v25.64193c0,0.65072 -0.12879,1.23364 -0.38637,1.74878c-0.25758,0.50159 -0.61682,0.89472 -1.07772,1.17939c-0.46092,0.27114 -0.97607,0.40671 -1.54544,0.40671c-0.89471,0 -1.61999,-0.30502 -2.17581,-0.91507c-0.54225,-0.62359 -0.81337,-1.4302 -0.81337,-2.41982z" fill="#ff0000" stroke-width="0.40889"/></g></g></svg>