<svg version="1.1" xmlns="http://www.w3.org/2000/svg" xmlns:xlink="http://www.w3.org/1999/xlink" width="80.13905" height="79.49276" viewBox="0,0,80.13905,79.49276"><defs><radialGradient cx="240.00006" cy="180" r="32.79887" gradientUnits="userSpaceOnUse" id="color-1"><stop offset="0" stop-color="#000000"/><stop offset="1" stop-color="#000000" stop-opacity="0"/></radialGradient><linearGradient x1="240.33941" y1="149.41466" x2="240.33941" y2="210.58534" gradientUnits="userSpaceOnUse" id="color-2"><stop offset="0" stop-color="#ffffff"/><stop offset="1" stop-color="#ffb3b3"/></linearGradient><linearGradient x1="252.36494" y1="179.62163" x2="258.80357" y2="179.62163" gradientUnits="userSpaceOnUse" id="color-3"><stop offset="0" stop-color="#ffffff"/><stop offset="1" stop-color="#1a1a1a"/></linearGradient><linearGradient x1="210.87073" y1="151.15254" x2="218.24563" y2="168.74588" gradientUnits="userSpaceOnUse" id="color-4"><stop offset="0" stop-color="#c20000"/><stop offset="1" stop-color="#000000"/></linearGradient><linearGradient x1="217.06524" y1="191.9147" x2="217.06524" y2="210.58534" gradientUnits="userSpaceOnUse" id="color-5"><stop offset="0" stop-color="#c20000"/><stop offset="1" stop-color="#000000"/></linearGradient></defs><g transform="translate(-199.93048,-140.25362)"><g data-paper-data="{&quot;isPaintingLayer&quot;:true}" fill-rule="nonzero" stroke-linecap="butt" stroke-linejoin="miter" stroke-miterlimit="10" stroke-dasharray="" stroke-dashoffset="0" style="mix-blend-mode: normal"><path d="M199.93048,219.74638v-79.49276h80.13905v79.49276z" fill="none" stroke="none" stroke-width="NaN"/><path d="M207.20118,180c0,-18.11432 14.68456,-32.79887 32.79887,-32.79887c18.11432,0 32.79887,14.68456 32.79887,32.79887c0,18.11432 -14.68456,32.79887 -32.79887,32.79887c-18.11432,0 -32.79887,-14.68456 -32.79887,-32.79887z" fill="url(#color-1)" stroke="#000000" stroke-width="0"/><path d="M213.91862,180c0,-16.89182 15.07899,-30.58534 29.6708,-30.58534c14.59181,0 23.1708,13.69353 23.1708,30.58534c0,16.89182 -8.579,30.58534 -23.1708,30.58534c-14.59181,0 -29.6708,-13.69353 -29.6708,-30.58534z" fill="url(#color-2)" stroke="#000000" stroke-width="0"/><path d="M241.86713,196.8316c0,-3.85011 2.4551,-6.97124 5.48363,-6.97124c3.02853,0 5.48363,3.12113 5.48363,6.97124c0,3.85011 -2.4551,6.97124 -5.48363,6.97124c-3.02853,0 -5.48363,-3.12113 -5.48363,-6.97124z" fill="#000000" stroke="#000000" stroke-width="0"/><path d="M241.92821,163.16842c0,-3.85011 2.4551,-6.97124 5.48362,-6.97124c3.02853,0 5.48363,3.12113 5.48363,6.97124c0,3.85011 -2.45511,6.97123 -5.48363,6.97123c-3.02853,0 -5.48362,-3.12113 -5.48362,-6.97123z" fill="#000000" stroke="#000000" stroke-width="0"/><path d="M246.69887,194.94328c0,-1.4424 0.64453,-2.61169 1.43959,-2.61169c0.79507,0 1.43959,1.1693 1.43959,2.61169c0,1.4424 -0.64453,2.61169 -1.43959,2.61169c-0.79507,0 -1.43959,-1.1693 -1.43959,-2.61169z" fill="#ffffff" stroke="#000000" stroke-width="0"/><path d="M246.72924,160.55673c0,-1.4424 0.64453,-2.61169 1.43959,-2.61169c0.79507,0 1.43959,1.1693 1.43959,2.61169c0,1.4424 -0.64453,2.61169 -1.43959,2.61169c-0.79507,0 -1.43959,-1.1693 -1.43959,-2.61169z" fill="#ffffff" stroke="#000000" stroke-width="0"/><path d="M265.05149,179.62163c0,6.28087 -3.07067,11.37252 -6.85855,11.37252c-3.78787,0 -6.85855,-5.09165 -6.85855,-11.37252c0,-6.28087 3.07067,-11.37252 6.85855,-11.37252c3.78787,0 6.85855,5.09165 6.85855,11.37252z" fill="#000000" stroke="none" stroke-width="0"/><path d="M258.80357,179.62163c0,3.97523 -1.44134,7.19781 -3.21932,7.19781c-1.77797,0 -3.21932,-3.22256 -3.21932,-7.19781c0,-3.97523 1.44134,-7.19781 3.21932,-7.19781c1.77797,0 3.21932,3.22256 3.21932,7.19781z" fill="url(#color-3)" stroke="none" stroke-width="0"/><path d="M220.39954,156.85687c2.46978,4.66538 1.85667,9.83191 -1.36942,11.53975c-3.22609,1.70785 -7.84352,-0.6897 -10.3133,-5.35508c-2.46978,-4.66538 -1.85667,-9.83191 1.36942,-11.53975c3.22609,-1.70785 7.84352,0.6897 10.3133,5.35508z" fill="url(#color-4)" stroke="#000000" stroke-width="0"/><path d="M223.3735,203.22232c-1.57523,5.03828 -5.67651,8.23958 -9.16047,7.15031c-3.48396,-1.08927 -5.03128,-6.05663 -3.45604,-11.0949c1.57523,-5.03828 5.67651,-8.23958 9.16047,-7.15031c3.48396,1.08927 5.03128,6.05663 3.45604,11.0949z" fill="url(#color-5)" stroke="#000000" stroke-width="0"/></g></g></svg>