<svg version="1.1" xmlns="http://www.w3.org/2000/svg" xmlns:xlink="http://www.w3.org/1999/xlink" width="59.57984" height="44.66705" viewBox="0,0,59.57984,44.66705"><defs><linearGradient x1="240" y1="157.66653" x2="240" y2="202.33358" gradientUnits="userSpaceOnUse" id="color-1"><stop offset="0" stop-color="#4e4e4e"/><stop offset="1" stop-color="#1b1b1b" stop-opacity="0.28235"/></linearGradient></defs><g transform="translate(-210.21008,-157.66653)"><g data-paper-data="{&quot;isPaintingLayer&quot;:true}" fill-rule="nonzero" stroke-linejoin="miter" stroke-miterlimit="10" stroke-dasharray="" stroke-dashoffset="0" style="mix-blend-mode: normal"><path d="M212.58441,199.81085c-2.13297,-2.13276 -2.37433,-5.20542 -2.37433,-5.20542v-29.20667c0,0 0.27811,-3.18659 2.41142,-5.32081c2.13331,-2.13422 5.31751,-2.41142 5.31751,-2.41142h44.12197c0,0 2.95226,0.14003 5.09492,2.26303c2.14266,2.12301 2.63402,5.39501 2.63402,5.39501v29.3736c0,0 -0.38308,3.18714 -2.52273,5.26108c-2.13965,2.07394 -5.3546,2.37433 -5.3546,2.37433h-43.97357c0,0 -3.22164,-0.38998 -5.35461,-2.52273z" fill="url(#color-1)" stroke="none" stroke-width="0" stroke-linecap="butt"/><path d="M226.74455,172.27433h27.40447" fill="none" stroke="#ffffff" stroke-width="3.5" stroke-linecap="round"/><path d="M233.79143,178.85617l-8.3177,-6.80691l8.19888,-6.70968" fill="none" stroke="#ffffff" stroke-width="3.5" stroke-linecap="round"/><text transform="translate(225.06031,195.72776) scale(0.3881,0.3881)" font-size="40" xml:space="preserve" fill="#ffffff" fill-rule="nonzero" stroke="none" stroke-width="1" stroke-linecap="butt" stroke-linejoin="miter" stroke-miterlimit="10" stroke-dasharray="" stroke-dashoffset="0" font-family="Sans Serif" font-weight="normal" text-anchor="start" style="mix-blend-mode: normal"><tspan x="0" dy="0">戻る</tspan></text></g></g></svg>