<svg version="1.1" xmlns="http://www.w3.org/2000/svg" xmlns:xlink="http://www.w3.org/1999/xlink" width="88.82776" height="150.01739" viewBox="0,0,88.82776,150.01739"><defs><radialGradient cx="279.55603" cy="183.13533" r="17.48859" gradientUnits="userSpaceOnUse" id="color-1"><stop offset="0" stop-color="#000000" stop-opacity="0.63137"/><stop offset="1" stop-color="#000000" stop-opacity="0"/></radialGradient><linearGradient x1="275.65959" y1="166.08633" x2="283.45248" y2="200.18435" gradientUnits="userSpaceOnUse" id="color-2"><stop offset="0" stop-color="#ff5454"/><stop offset="1" stop-color="#eb0000"/></linearGradient><linearGradient x1="269.48763" y1="174.89223" x2="290.64443" y2="170.05697" gradientUnits="userSpaceOnUse" id="color-3"><stop offset="0" stop-color="#eb0000"/><stop offset="1" stop-color="#ff5454"/></linearGradient><radialGradient cx="298.2411" cy="214.81849" r="20.90193" gradientUnits="userSpaceOnUse" id="color-4"><stop offset="0" stop-color="#000000" stop-opacity="0.63137"/><stop offset="1" stop-color="#000000" stop-opacity="0"/></radialGradient><linearGradient x1="293.58417" y1="194.44193" x2="302.89805" y2="235.19506" gradientUnits="userSpaceOnUse" id="color-5"><stop offset="0" stop-color="#ff5454"/><stop offset="1" stop-color="#eb0000"/></linearGradient><radialGradient cx="315.87327" cy="276.62041" r="35.01038" gradientUnits="userSpaceOnUse" id="color-6"><stop offset="0" stop-color="#000000" stop-opacity="0.63137"/><stop offset="1" stop-color="#000000" stop-opacity="0"/></radialGradient><linearGradient x1="308.073" y1="242.49" x2="323.67357" y2="310.75077" gradientUnits="userSpaceOnUse" id="color-7"><stop offset="0" stop-color="#ff5454"/><stop offset="1" stop-color="#eb0000"/></linearGradient><linearGradient x1="282.72071" y1="203.33055" x2="296.27824" y2="195.67159" gradientUnits="userSpaceOnUse" id="color-8"><stop offset="0" stop-color="#000000"/><stop offset="1" stop-color="#929292"/></linearGradient><linearGradient x1="282.72071" y1="203.33055" x2="296.27824" y2="195.67159" gradientUnits="userSpaceOnUse" id="color-9"><stop offset="0" stop-color="#929292" stop-opacity="0"/><stop offset="1" stop-color="#929292"/></linearGradient><linearGradient x1="322.05459" y1="234.17904" x2="308.23305" y2="271.92052" gradientUnits="userSpaceOnUse" id="color-10"><stop offset="0" stop-color="#ffffff"/><stop offset="1" stop-color="#9d9d9d"/></linearGradient><linearGradient x1="324.21488" y1="246.73478" x2="302.39143" y2="306.32659" gradientUnits="userSpaceOnUse" id="color-11"><stop offset="0" stop-color="#f20000"/><stop offset="1" stop-color="#ff7979"/></linearGradient><linearGradient x1="308.70878" y1="225.10775" x2="302.6025" y2="228.63405" gradientUnits="userSpaceOnUse" id="color-12"><stop offset="0" stop-color="#c6c6c6"/><stop offset="1" stop-color="#6b6b6b"/></linearGradient><linearGradient x1="305.68803" y1="216.67107" x2="301.56583" y2="227.92728" gradientUnits="userSpaceOnUse" id="color-13"><stop offset="0" stop-color="#ff5454"/><stop offset="1" stop-color="#ce0000"/></linearGradient><linearGradient x1="315.804" y1="285.17458" x2="307.31283" y2="308.36073" gradientUnits="userSpaceOnUse" id="color-14"><stop offset="0" stop-color="#ffadad" stop-opacity="0"/><stop offset="1" stop-color="#ffadad"/></linearGradient><linearGradient x1="315.804" y1="285.17458" x2="307.31283" y2="308.36073" gradientUnits="userSpaceOnUse" id="color-15"><stop offset="0" stop-color="#ab0000"/><stop offset="1" stop-color="#ff5454"/></linearGradient><linearGradient x1="314.93881" y1="279.63195" x2="306.44768" y2="302.81809" gradientUnits="userSpaceOnUse" id="color-16"><stop offset="0" stop-color="#ff6b6b" stop-opacity="0"/><stop offset="1" stop-color="#ff6b6b"/></linearGradient><linearGradient x1="314.93881" y1="279.63195" x2="306.44768" y2="302.81809" gradientUnits="userSpaceOnUse" id="color-17"><stop offset="0" stop-color="#ab0000"/><stop offset="1" stop-color="#ff5454"/></linearGradient><linearGradient x1="316.52498" y1="303.3437" x2="311.04364" y2="297.04242" gradientUnits="userSpaceOnUse" id="color-18"><stop offset="0" stop-color="#ffffff" stop-opacity="0.5207"/><stop offset="1" stop-color="#ffffff" stop-opacity="0"/></linearGradient><linearGradient x1="320.97598" y1="293.93718" x2="306.59263" y2="306.44894" gradientUnits="userSpaceOnUse" id="color-19"><stop offset="0" stop-color="#ab0000"/><stop offset="1" stop-color="#ff5454"/></linearGradient><linearGradient x1="291.54441" y1="215.10061" x2="304.73652" y2="212.08565" gradientUnits="userSpaceOnUse" id="color-20"><stop offset="0" stop-color="#000000"/><stop offset="1" stop-color="#929292"/></linearGradient><linearGradient x1="302.40642" y1="233.52976" x2="315.59851" y2="230.51481" gradientUnits="userSpaceOnUse" id="color-21"><stop offset="0" stop-color="#000000"/><stop offset="1" stop-color="#929292"/></linearGradient><linearGradient x1="275.73871" y1="207.18317" x2="296.89551" y2="202.34791" gradientUnits="userSpaceOnUse" id="color-22"><stop offset="0" stop-color="#eb0000"/><stop offset="1" stop-color="#ff5454"/></linearGradient></defs><g transform="translate(-262.0636,-161.62106)"><g data-paper-data="{&quot;isPaintingLayer&quot;:true}" fill-rule="nonzero" stroke-linejoin="miter" stroke-miterlimit="10" stroke-dasharray="" stroke-dashoffset="0" style="mix-blend-mode: normal"><path d="M262.50703,187.03179c-2.15195,-9.41591 3.73667,-18.7935 13.15257,-20.94545c9.4159,-2.15195 18.7935,3.73667 20.94545,13.15256c2.15195,9.41591 -3.73666,18.79351 -13.15256,20.94546c-9.4159,2.15195 -18.79351,-3.73667 -20.94546,-13.15257z" fill="url(#color-1)" stroke="url(#color-2)" stroke-width="0" stroke-linecap="butt"/><path d="M269.48763,174.89223c-1.33522,-5.84229 2.31849,-11.66081 8.16077,-12.99603c5.84229,-1.33522 11.66081,2.31849 12.99603,8.16077c1.33522,5.84229 -2.31849,11.66081 -8.16077,12.99603c-5.84229,1.33522 -11.66081,-2.31849 -12.99603,-8.16077z" fill="url(#color-3)" stroke="#000000" stroke-width="0" stroke-linecap="butt"/><path d="M277.86458,219.47542c-2.57195,-11.25366 4.46597,-22.46153 15.71962,-25.03348c11.25365,-2.57195 22.46153,4.46597 25.03348,15.71962c2.57195,11.25366 -4.46597,22.46153 -15.71962,25.03348c-11.25365,2.57195 -22.46153,-4.46597 -25.03348,-15.71962z" fill="url(#color-4)" stroke="url(#color-5)" stroke-width="0" stroke-linecap="butt"/><path d="M281.74292,284.42067c-4.30798,-18.84969 7.48041,-37.62268 26.33009,-41.93065c18.84967,-4.30797 37.62268,7.48041 41.93065,26.33009c4.30798,18.84969 -7.48041,37.62268 -26.33009,41.93065c-18.84967,4.30797 -37.62268,-7.48041 -41.93065,-26.33009z" fill="url(#color-6)" stroke="url(#color-7)" stroke-width="0" stroke-linecap="butt"/><g><path d="M290.55506,207.42589l-23.01553,-30.96826c0,0 -3.34737,-7.09831 3.11068,-10.69942c6.3346,-3.53229 10.44685,3.04045 10.44685,3.04045l15.3569,35.07226z" fill="url(#color-8)" stroke="url(#color-9)" stroke-width="0" stroke-linecap="butt"/><path d="M314.36852,236.37049c0,0 6.03695,4.72951 8.29304,7.06581c1.69484,1.7551 4.29044,5.05178 4.29044,5.05178l-10.78324,25.40803l-18.59061,7.63917c0,0 10.35909,-16.59977 12.06423,-23.41792c1.87288,-7.48886 -0.1793,-19.28804 -0.1793,-19.28804z" fill="url(#color-10)" stroke="#ffffff" stroke-width="0" stroke-linecap="butt"/><path d="M292.60763,278.37869c0.59432,-2.2662 8.50583,-1.20284 10.7779,-3.50885c12.29955,-12.48328 12.32331,-27.51193 20.82934,-28.13502c4.27811,-0.31338 14.64752,20.49332 8.62113,36.94914c-6.02638,16.45582 -30.31886,34.1303 -30.44459,22.64266c-0.20984,-19.17208 -12.11271,-19.06761 -9.78378,-27.94791z" fill="url(#color-11)" stroke="#ffffff" stroke-width="0" stroke-linecap="butt"/><path d="M309.81813,219.03863l6.06083,18.4852l-6.10627,3.52632l-12.54885,-14.46771l-7.81781,-21.26979l6.03435,-3.39449z" fill="url(#color-12)" stroke="#ffffff" stroke-width="0" stroke-linecap="butt"/><path d="M310.35247,218.62956l-14.37346,7.41733" fill="none" stroke="url(#color-13)" stroke-width="7.5" stroke-linecap="round"/><path d="M302.94265,306.56696c0.84291,-7.97037 -2.76476,-6.70566 -0.41999,-13.10834c0.38403,-1.04865 4.64037,8.25183 5.48059,7.46383c4.28988,-4.02326 9.93577,-14.96599 14.10876,-13.43778c4.99033,1.82754 1.01428,5.6779 -1.33048,12.08057c-2.34477,6.40268 -18.63614,14.54039 -17.83887,7.00171z" fill="url(#color-14)" stroke="url(#color-15)" stroke-width="0" stroke-linecap="butt"/><path d="M305.49917,303.82421c-1.40994,-4.08312 -6.18647,-9.50555 -3.84171,-15.90822c0.38403,-1.04865 4.64037,8.25183 5.48059,7.46384c4.28988,-4.02326 9.93576,-14.96599 14.10876,-13.43778c4.99033,1.82754 1.01428,5.6779 -1.33048,12.08057c-2.34477,6.40268 -13.59577,12.18033 -14.41716,9.80159z" fill="url(#color-16)" stroke="url(#color-17)" stroke-width="0" stroke-linecap="butt"/><path d="M304.18417,308.27385c-0.35347,-0.40634 -2.73757,-7.06227 -2.063,-8.76273c2.21407,-5.58134 12.18635,-11.23825 15.23068,-13.88645c2.84513,-2.47492 10.84326,-5.54184 15.07903,-8.31909c1.67744,-1.09984 -1.8014,9.19619 -3.17779,12.50882c-0.88491,2.12975 -7.79579,10.61937 -11.76764,14.0744c-2.16262,1.88121 -5.46482,3.52972 -8.26883,4.36033c-2.34583,0.69489 -4.34298,0.81735 -5.03245,0.02473z" fill="url(#color-18)" stroke="url(#color-19)" stroke-width="0" stroke-linecap="butt"/><path d="M304.2822,210.09781l-12.36606,6.62924" fill="none" stroke="url(#color-20)" stroke-width="3.5" stroke-linecap="round"/><path d="M302.77815,235.15617l12.36606,-6.62924" fill="none" stroke="url(#color-21)" stroke-width="3.5" stroke-linecap="round"/></g><path d="M275.73871,207.18317c-1.33522,-5.84228 2.31849,-11.66082 8.16077,-12.99604c5.84229,-1.33522 11.66082,2.31849 12.99604,8.16078c1.33522,5.84228 -2.31849,11.66081 -8.16078,12.99603c-5.84228,1.33522 -11.66081,-2.31849 -12.99603,-8.16077z" fill="url(#color-22)" stroke="#000000" stroke-width="0" stroke-linecap="butt"/></g></g></svg>