<svg version="1.1" xmlns="http://www.w3.org/2000/svg" xmlns:xlink="http://www.w3.org/1999/xlink" width="22.88889" height="30.19922" viewBox="0,0,22.88889,30.19922"><g transform="translate(-228.55555,-164.11112)"><g data-paper-data="{&quot;isPaintingLayer&quot;:true}" fill-rule="nonzero" stroke-linecap="butt" stroke-linejoin="miter" stroke-miterlimit="10" stroke-dasharray="" stroke-dashoffset="0" style="mix-blend-mode: normal"><path d="M228.55556,175.55556c0,-6.32059 5.12385,-11.44444 11.44444,-11.44444c6.32059,0 11.44444,5.12385 11.44444,11.44444c0,2.91681 -2.8876,7.5999 -2.8876,7.5999c0,0 4.95359,-13.77411 -8.55685,-14.15546c-13.02068,-0.36753 -8.23028,14.50779 -8.23028,14.50779c0,0 -3.21416,-4.86265 -3.21416,-7.95223z" fill="#ff0000" stroke="none" stroke-width="0"/><path d="M229.99161,176.82734c-2.51367,-2.93314 5.12151,-11.10476 10.01129,-11.13762c3.4671,-0.0233 9.06963,5.34826 10.31864,10.31359c0.49978,1.98684 -0.81734,5.30844 -1.52958,6.04626c-1.99922,2.071 -2.9291,1.52045 -9.29933,1.51372c-6.05846,-0.00641 -6.54242,0.73467 -8.27882,-1.2915zM235.94286,183.28452c1.78251,0 3.32295,-1.0364 4.05162,-2.53948c0.76454,1.39424 2.24608,2.33948 3.94838,2.33948c2.48528,0 4.5,-2.01472 4.5,-4.5c0,-2.48528 -2.01472,-4.5 -4.5,-4.5c-1.78251,0 -3.32295,1.0364 -4.05162,2.53948c-0.76454,-1.39424 -2.24608,-2.33948 -3.94838,-2.33948c-2.48528,0 -4.5,2.01472 -4.5,4.5c0,2.48528 2.01472,4.5 4.5,4.5z" fill="#ff0000" stroke="none" stroke-width="0"/><path d="M246.19857,185.70403c0,4.75314 -1.56472,8.60631 -3.4949,8.60631c-1.93018,0 -3.4949,-3.85317 -3.4949,-8.60631c0,-1.63503 0.18515,-3.16358 0.50664,-4.46542c0.10295,-0.15793 0.19625,-0.32273 0.27906,-0.49356c0.76454,1.39424 2.24608,2.33948 3.94838,2.33948c0.72733,0 1.41435,-0.17255 2.02237,-0.47895c0.15071,0.9614 0.23334,2.00616 0.23334,3.09845z" fill="#ff0000" stroke="none" stroke-width="0"/><path d="M240.8218,185.70403c0,4.75314 -1.56472,8.60631 -3.4949,8.60631c-1.93018,0 -3.4949,-3.85317 -3.4949,-8.60631c0,-0.99747 0.06891,-1.95532 0.19565,-2.84623c0.58112,0.27371 1.23029,0.42673 1.91521,0.42673c1.78251,0 3.32295,-1.0364 4.05162,-2.53948c0.09685,0.17662 0.2052,0.34603 0.32405,0.50723c0.31941,1.29887 0.50327,2.82243 0.50327,4.45175z" fill="#ff0000" stroke="none" stroke-width="0"/><path d="M237.55667,186.01413c-1.70449,4.45626 -4.55323,7.54071 -6.36285,6.88934c-1.80961,-0.65138 -1.89486,-4.79194 -0.19037,-9.2482c0.33802,-0.88373 0.72104,-1.71351 1.13204,-2.4709c0.79712,1.26199 2.20436,2.10016 3.80737,2.10016c0.97793,0 1.88301,-0.31195 2.62114,-0.84176c-0.1987,1.12081 -0.53401,2.33391 -1.00733,3.57136z" fill="#ff0000" stroke="none" stroke-width="0"/><path d="M249.20635,183.46701c1.70449,4.45626 1.61925,8.59681 -0.19037,9.2482c-1.80961,0.65138 -4.65836,-2.43308 -6.36285,-6.88934c-0.38981,-1.01912 -0.68601,-2.02174 -0.88939,-2.96988c0.64563,0.35801 1.38856,0.56187 2.17912,0.56187c1.78839,0 3.33311,-1.04325 4.0588,-2.55437c0.43853,0.79278 0.84683,1.66792 1.20469,2.60352z" data-paper-data="{&quot;index&quot;:null}" fill="#ff0000" stroke="none" stroke-width="0"/><path d="M233.24286,178.68452c0,-1.49117 1.20883,-2.7 2.7,-2.7c1.49117,0 2.7,1.20883 2.7,2.7c0,1.49117 -1.20883,2.7 -2.7,2.7c-1.49117,0 -2.7,-1.20883 -2.7,-2.7z" fill="none" stroke="#ff0000" stroke-width="1.25"/><path d="M241.24286,178.68453c0,-1.49117 1.20883,-2.7 2.7,-2.7c1.49117,0 2.7,1.20883 2.7,2.7c0,1.49117 -1.20883,2.7 -2.7,2.7c-1.49117,0 -2.7,-1.20883 -2.7,-2.7z" fill="none" stroke="#ff0000" stroke-width="1.25"/></g></g></svg>