<svg version="1.1" xmlns="http://www.w3.org/2000/svg" xmlns:xlink="http://www.w3.org/1999/xlink" width="488.29561" height="259.98095" viewBox="0,0,488.29561,259.98095"><defs><radialGradient cx="188.42315" cy="147.87612" r="79.5" gradientUnits="userSpaceOnUse" id="color-1"><stop offset="0" stop-color="#0022ff" stop-opacity="0.54902"/><stop offset="1" stop-color="#0022ff" stop-opacity="0"/></radialGradient><linearGradient x1="30.29678" y1="182.30316" x2="73.56192" y2="175.6615" gradientUnits="userSpaceOnUse" id="color-2"><stop offset="0" stop-color="#413bff" stop-opacity="0.14516"/><stop offset="1" stop-color="#1d00ff" stop-opacity="0.56643"/></linearGradient><linearGradient x1="65.74884" y1="172.02098" x2="112.2153" y2="191.73187" gradientUnits="userSpaceOnUse" id="color-3"><stop offset="0" stop-color="#070067"/><stop offset="1" stop-color="#1900da"/></linearGradient><linearGradient x1="65.90791" y1="152.38463" x2="104.3027" y2="168.6716" gradientUnits="userSpaceOnUse" id="color-4"><stop offset="0" stop-color="#ff0000"/><stop offset="1" stop-color="#0400ff"/></linearGradient><linearGradient x1="87.2241" y1="81.00974" x2="74.59663" y2="146.3935" gradientUnits="userSpaceOnUse" id="color-5"><stop offset="0" stop-color="#080078"/><stop offset="1" stop-color="#1d00ff"/></linearGradient><linearGradient x1="51.75848" y1="150.22695" x2="75.51697" y2="154.81537" gradientUnits="userSpaceOnUse" id="color-6"><stop offset="0" stop-color="#000c5c" stop-opacity="0.3619"/><stop offset="1" stop-color="#000c5c" stop-opacity="0"/></linearGradient><linearGradient x1="66.46727" y1="94.40172" x2="71.71855" y2="95.41589" gradientUnits="userSpaceOnUse" id="color-7"><stop offset="0" stop-color="#e50000"/><stop offset="1" stop-color="#ff5656"/></linearGradient><linearGradient x1="44.25286" y1="189.4175" x2="62.53945" y2="192.94919" gradientUnits="userSpaceOnUse" id="color-8"><stop offset="0" stop-color="#ffffff" stop-opacity="0"/><stop offset="1" stop-color="#ffffff" stop-opacity="0.32258"/></linearGradient><linearGradient x1="92.37042" y1="171.81605" x2="99.00232" y2="160.90598" gradientUnits="userSpaceOnUse" id="color-9"><stop offset="0" stop-color="#000941" stop-opacity="0.25252"/><stop offset="1" stop-color="#000941" stop-opacity="0"/></linearGradient><linearGradient x1="92.37042" y1="171.81605" x2="99.00232" y2="160.90598" gradientUnits="userSpaceOnUse" id="color-10"><stop offset="0" stop-color="#e50000"/><stop offset="1" stop-color="#ff5656"/></linearGradient><linearGradient x1="84.44081" y1="151.68032" x2="83.78694" y2="155.06586" gradientUnits="userSpaceOnUse" id="color-11"><stop offset="0" stop-color="#1d00ff"/><stop offset="1" stop-color="#0a0079"/></linearGradient><linearGradient x1="84.25552" y1="117.12825" x2="100.67939" y2="120.30018" gradientUnits="userSpaceOnUse" id="color-12"><stop offset="0" stop-color="#ffffff" stop-opacity="0"/><stop offset="1" stop-color="#ffffff" stop-opacity="0.32258"/></linearGradient><linearGradient x1="76.37907" y1="190.80638" x2="112.42005" y2="197.76697" gradientUnits="userSpaceOnUse" id="color-13"><stop offset="0" stop-color="#ffffff" stop-opacity="0"/><stop offset="1" stop-color="#ffffff" stop-opacity="0.32288"/></linearGradient><linearGradient x1="99.39626" y1="18.81864" x2="88.65692" y2="74.42595" gradientUnits="userSpaceOnUse" id="color-14"><stop offset="0" stop-color="#080078"/><stop offset="1" stop-color="#1d00ff"/></linearGradient><linearGradient x1="66.21587" y1="41.25124" x2="121.8342" y2="51.99272" gradientUnits="userSpaceOnUse" id="color-15"><stop offset="0" stop-color="#04066c"/><stop offset="1" stop-color="#04066c" stop-opacity="0"/></linearGradient><linearGradient x1="89.11133" y1="70.37636" x2="87.03818" y2="81.11074" gradientUnits="userSpaceOnUse" id="color-16"><stop offset="0" stop-color="#080078"/><stop offset="1" stop-color="#1d00ff"/></linearGradient><linearGradient x1="90.99492" y1="62.4758" x2="88.73916" y2="74.15587" gradientUnits="userSpaceOnUse" id="color-17"><stop offset="0" stop-color="#07006e"/><stop offset="1" stop-color="#1900d3"/></linearGradient><linearGradient x1="62.8909" y1="23.06394" x2="52.62148" y2="32.9441" gradientUnits="userSpaceOnUse" id="color-18"><stop offset="0" stop-color="#1900e7"/><stop offset="1" stop-color="#000000"/></linearGradient><linearGradient x1="72.01206" y1="17.75172" x2="57.81565" y2="18.99351" gradientUnits="userSpaceOnUse" id="color-19"><stop offset="0" stop-color="#1900e7"/><stop offset="1" stop-color="#000000"/></linearGradient><linearGradient x1="98.62506" y1="25.8492" x2="96.00668" y2="39.40671" gradientUnits="userSpaceOnUse" id="color-20"><stop offset="0" stop-color="#1900e7"/><stop offset="1" stop-color="#000000"/></linearGradient><linearGradient x1="113.2871" y1="183.89985" x2="138.45728" y2="139.86737" gradientUnits="userSpaceOnUse" id="color-21"><stop offset="0" stop-color="#0013ff" stop-opacity="0"/><stop offset="1" stop-color="#0013ff" stop-opacity="0.17767"/></linearGradient><linearGradient x1="146.58931" y1="134.00059" x2="155.66449" y2="142.97399" gradientUnits="userSpaceOnUse" id="color-22"><stop offset="0" stop-color="#0d0098"/><stop offset="1" stop-color="#1900e6"/></linearGradient><linearGradient x1="138.92012" y1="133.18147" x2="158.55798" y2="138.23627" gradientUnits="userSpaceOnUse" id="color-23"><stop offset="0" stop-color="#0d0098"/><stop offset="1" stop-color="#1900e6"/></linearGradient><linearGradient x1="138.92012" y1="133.18147" x2="158.55798" y2="138.23627" gradientUnits="userSpaceOnUse" id="color-24"><stop offset="0" stop-color="#e50000"/><stop offset="1" stop-color="#ff5656"/></linearGradient><linearGradient x1="115.63051" y1="122.37071" x2="144.5779" y2="138.34632" gradientUnits="userSpaceOnUse" id="color-25"><stop offset="0" stop-color="#575757"/><stop offset="1" stop-color="#d9d9d9"/></linearGradient><linearGradient x1="115.63051" y1="122.37071" x2="144.5779" y2="138.34632" gradientUnits="userSpaceOnUse" id="color-26"><stop offset="0" stop-color="#575757"/><stop offset="1" stop-color="#d9d9d9"/></linearGradient><linearGradient x1="165.36329" y1="127.47656" x2="178.81885" y2="130.94" gradientUnits="userSpaceOnUse" id="color-27"><stop offset="0" stop-color="#0d0098"/><stop offset="1" stop-color="#1900e6"/></linearGradient><linearGradient x1="165.36329" y1="127.47656" x2="178.81885" y2="130.94" gradientUnits="userSpaceOnUse" id="color-28"><stop offset="0" stop-color="#e50000"/><stop offset="1" stop-color="#ff5656"/></linearGradient><linearGradient x1="135.00135" y1="136.72312" x2="148.02563" y2="117.75876" gradientUnits="userSpaceOnUse" id="color-29"><stop offset="0" stop-color="#0d0098"/><stop offset="1" stop-color="#1900e6"/></linearGradient><linearGradient x1="135.00135" y1="136.72312" x2="148.02563" y2="117.75876" gradientUnits="userSpaceOnUse" id="color-30"><stop offset="0" stop-color="#e50000"/><stop offset="1" stop-color="#ff5656"/></linearGradient><linearGradient x1="158.27526" y1="116.28836" x2="154.36608" y2="131.47537" gradientUnits="userSpaceOnUse" id="color-31"><stop offset="0" stop-color="#575757"/><stop offset="1" stop-color="#d9d9d9"/></linearGradient><linearGradient x1="142.37054" y1="115.62817" x2="169.74832" y2="134.16539" gradientUnits="userSpaceOnUse" id="color-32"><stop offset="0" stop-color="#575757"/><stop offset="1" stop-color="#d9d9d9"/></linearGradient><linearGradient x1="135.9999" y1="124.06171" x2="146.59301" y2="149.41268" gradientUnits="userSpaceOnUse" id="color-33"><stop offset="0" stop-color="#0d0098"/><stop offset="1" stop-color="#1900e6"/></linearGradient><radialGradient cx="182.06855" cy="126.27377" r="4.51744" gradientUnits="userSpaceOnUse" id="color-34"><stop offset="0" stop-color="#1900e6" stop-opacity="0.6371"/><stop offset="1" stop-color="#1900e6" stop-opacity="0"/></radialGradient><linearGradient x1="177.78154" y1="124.84937" x2="186.35551" y2="127.69817" gradientUnits="userSpaceOnUse" id="color-35"><stop offset="0" stop-color="#e50000"/><stop offset="1" stop-color="#ff5656"/></linearGradient><radialGradient cx="179.80484" cy="136.77844" r="2.77141" gradientUnits="userSpaceOnUse" id="color-36"><stop offset="0" stop-color="#1900e6" stop-opacity="0.6371"/><stop offset="1" stop-color="#1900e6" stop-opacity="0"/></radialGradient><linearGradient x1="177.17479" y1="135.90461" x2="182.43488" y2="137.65229" gradientUnits="userSpaceOnUse" id="color-37"><stop offset="0" stop-color="#e50000"/><stop offset="1" stop-color="#ff5656"/></linearGradient><radialGradient cx="174.80507" cy="122.08472" r="1.25072" gradientUnits="userSpaceOnUse" id="color-38"><stop offset="0" stop-color="#1900e6" stop-opacity="0.6371"/><stop offset="1" stop-color="#1900e6" stop-opacity="0"/></radialGradient><linearGradient x1="173.61814" y1="121.69036" x2="175.99197" y2="122.47908" gradientUnits="userSpaceOnUse" id="color-39"><stop offset="0" stop-color="#e50000"/><stop offset="1" stop-color="#ff5656"/></linearGradient><radialGradient cx="196.50275" cy="136.34587" r="7.86517" gradientUnits="userSpaceOnUse" id="color-40"><stop offset="0" stop-color="#0021ff" stop-opacity="0.58065"/><stop offset="1" stop-color="#0021ff" stop-opacity="0"/></radialGradient><linearGradient x1="189.0388" y1="133.86591" x2="203.96672" y2="138.82583" gradientUnits="userSpaceOnUse" id="color-41"><stop offset="0" stop-color="#e50000"/><stop offset="1" stop-color="#ff5656"/></linearGradient><radialGradient cx="134.88073" cy="118.91366" r="3.43464" gradientUnits="userSpaceOnUse" id="color-42"><stop offset="0" stop-color="#1900e6" stop-opacity="0.6371"/><stop offset="1" stop-color="#1900e6" stop-opacity="0"/></radialGradient><linearGradient x1="131.62129" y1="117.83068" x2="138.14018" y2="119.99663" gradientUnits="userSpaceOnUse" id="color-43"><stop offset="0" stop-color="#e50000"/><stop offset="1" stop-color="#ff5656"/></linearGradient><radialGradient cx="125.05513" cy="138.18363" r="2.08115" gradientUnits="userSpaceOnUse" id="color-44"><stop offset="0" stop-color="#1900e6" stop-opacity="0.6371"/><stop offset="1" stop-color="#1900e6" stop-opacity="0"/></radialGradient><linearGradient x1="123.08013" y1="137.5274" x2="127.0301" y2="138.83981" gradientUnits="userSpaceOnUse" id="color-45"><stop offset="0" stop-color="#e50000"/><stop offset="1" stop-color="#ff5656"/></linearGradient><radialGradient cx="115.20136" cy="128.34891" r="1.26906" gradientUnits="userSpaceOnUse" id="color-46"><stop offset="0" stop-color="#1900e6" stop-opacity="0.6371"/><stop offset="1" stop-color="#1900e6" stop-opacity="0"/></radialGradient><linearGradient x1="113.99704" y1="127.94877" x2="116.4057" y2="128.74906" gradientUnits="userSpaceOnUse" id="color-47"><stop offset="0" stop-color="#e50000"/><stop offset="1" stop-color="#ff5656"/></linearGradient><radialGradient cx="107.16381" cy="123.35014" r="1.26906" gradientUnits="userSpaceOnUse" id="color-48"><stop offset="0" stop-color="#1900e6" stop-opacity="0.6371"/><stop offset="1" stop-color="#1900e6" stop-opacity="0"/></radialGradient><linearGradient x1="105.95949" y1="122.95" x2="108.36813" y2="123.75028" gradientUnits="userSpaceOnUse" id="color-49"><stop offset="0" stop-color="#e50000"/><stop offset="1" stop-color="#ff5656"/></linearGradient><radialGradient cx="101.51082" cy="134.35429" r="1.26906" gradientUnits="userSpaceOnUse" id="color-50"><stop offset="0" stop-color="#1900e6" stop-opacity="0.6371"/><stop offset="1" stop-color="#1900e6" stop-opacity="0"/></radialGradient><linearGradient x1="100.30644" y1="133.95414" x2="102.7151" y2="134.75444" gradientUnits="userSpaceOnUse" id="color-51"><stop offset="0" stop-color="#e50000"/><stop offset="1" stop-color="#ff5656"/></linearGradient><linearGradient x1="180.8715" y1="131.07403" x2="193.02253" y2="135.11136" gradientUnits="userSpaceOnUse" id="color-52"><stop offset="0" stop-color="#0021ff" stop-opacity="0"/><stop offset="1" stop-color="#0021ff"/></linearGradient><linearGradient x1="180.8715" y1="131.07403" x2="193.02253" y2="135.11136" gradientUnits="userSpaceOnUse" id="color-53"><stop offset="0" stop-color="#e50000"/><stop offset="1" stop-color="#ff5656"/></linearGradient><radialGradient cx="183.27306" cy="131.66938" r="1.25072" gradientUnits="userSpaceOnUse" id="color-54"><stop offset="0" stop-color="#1900e6" stop-opacity="0.6371"/><stop offset="1" stop-color="#1900e6" stop-opacity="0"/></radialGradient><linearGradient x1="182.08614" y1="131.27499" x2="184.45996" y2="132.06372" gradientUnits="userSpaceOnUse" id="color-55"><stop offset="0" stop-color="#e50000"/><stop offset="1" stop-color="#ff5656"/></linearGradient><linearGradient x1="16.3241" y1="172.12406" x2="37.96677" y2="126.2548" gradientUnits="userSpaceOnUse" id="color-56"><stop offset="0" stop-color="#0013ff" stop-opacity="0"/><stop offset="1" stop-color="#0013ff" stop-opacity="0.17767"/></linearGradient><radialGradient cx="77.21786" cy="115.63138" r="9.11589" gradientUnits="userSpaceOnUse" id="color-57"><stop offset="0" stop-color="#000000"/><stop offset="1" stop-color="#000000" stop-opacity="0"/></radialGradient><radialGradient cx="68.2285" cy="113.67565" r="10.33502" gradientUnits="userSpaceOnUse" id="color-58"><stop offset="0" stop-color="#000000"/><stop offset="1" stop-color="#000000" stop-opacity="0"/></radialGradient><linearGradient x1="41.12126" y1="118.328" x2="60.73867" y2="123.46138" gradientUnits="userSpaceOnUse" id="color-59"><stop offset="0" stop-color="#0d0098"/><stop offset="1" stop-color="#1900e6"/></linearGradient><linearGradient x1="41.12126" y1="118.328" x2="60.73867" y2="123.46138" gradientUnits="userSpaceOnUse" id="color-60"><stop offset="0" stop-color="#e50000"/><stop offset="1" stop-color="#ff5656"/></linearGradient><linearGradient x1="17.87509" y1="107.42407" x2="46.75829" y2="123.51548" gradientUnits="userSpaceOnUse" id="color-61"><stop offset="0" stop-color="#575757"/><stop offset="1" stop-color="#d9d9d9"/></linearGradient><linearGradient x1="17.87509" y1="107.42407" x2="46.75829" y2="123.51548" gradientUnits="userSpaceOnUse" id="color-62"><stop offset="0" stop-color="#575757"/><stop offset="1" stop-color="#d9d9d9"/></linearGradient><linearGradient x1="67.58703" y1="112.72897" x2="81.02859" y2="116.24629" gradientUnits="userSpaceOnUse" id="color-63"><stop offset="0" stop-color="#0d0098"/><stop offset="1" stop-color="#1900e6"/></linearGradient><linearGradient x1="67.58703" y1="112.72897" x2="81.02859" y2="116.24629" gradientUnits="userSpaceOnUse" id="color-64"><stop offset="0" stop-color="#e50000"/><stop offset="1" stop-color="#ff5656"/></linearGradient><linearGradient x1="37.18828" y1="121.85397" x2="50.2884" y2="102.94184" gradientUnits="userSpaceOnUse" id="color-65"><stop offset="0" stop-color="#0d0098"/><stop offset="1" stop-color="#1900e6"/></linearGradient><linearGradient x1="37.18828" y1="121.85397" x2="50.2884" y2="102.94184" gradientUnits="userSpaceOnUse" id="color-66"><stop offset="0" stop-color="#e50000"/><stop offset="1" stop-color="#ff5656"/></linearGradient><linearGradient x1="60.54382" y1="101.51247" x2="56.57389" y2="116.68376" gradientUnits="userSpaceOnUse" id="color-67"><stop offset="0" stop-color="#575757"/><stop offset="1" stop-color="#d9d9d9"/></linearGradient><linearGradient x1="44.64188" y1="100.78861" x2="71.94524" y2="119.43531" gradientUnits="userSpaceOnUse" id="color-68"><stop offset="0" stop-color="#575757"/><stop offset="1" stop-color="#d9d9d9"/></linearGradient><linearGradient x1="38.35185" y1="108.85716" x2="48.84339" y2="134.25032" gradientUnits="userSpaceOnUse" id="color-69"><stop offset="0" stop-color="#0d0098"/><stop offset="1" stop-color="#1900e6"/></linearGradient><radialGradient cx="26.77943" cy="124.99372" r="3.43464" gradientUnits="userSpaceOnUse" id="color-70"><stop offset="0" stop-color="#1900e6" stop-opacity="0.6371"/><stop offset="1" stop-color="#1900e6" stop-opacity="0"/></radialGradient><linearGradient x1="24.22522" y1="127.29" x2="29.33361" y2="122.69743" gradientUnits="userSpaceOnUse" id="color-71"><stop offset="0" stop-color="#e50000"/><stop offset="1" stop-color="#ff5656"/></linearGradient><radialGradient cx="10.0664" cy="111.26238" r="2.08116" gradientUnits="userSpaceOnUse" id="color-72"><stop offset="0" stop-color="#1900e6" stop-opacity="0.6371"/><stop offset="1" stop-color="#1900e6" stop-opacity="0"/></radialGradient><linearGradient x1="8.51875" y1="112.65376" x2="11.61406" y2="109.87097" gradientUnits="userSpaceOnUse" id="color-73"><stop offset="0" stop-color="#e50000"/><stop offset="1" stop-color="#ff5656"/></linearGradient><radialGradient cx="4.96888" cy="124.21744" r="1.26907" gradientUnits="userSpaceOnUse" id="color-74"><stop offset="0" stop-color="#1900e6" stop-opacity="0.6371"/><stop offset="1" stop-color="#1900e6" stop-opacity="0"/></radialGradient><linearGradient x1="4.02517" y1="125.06588" x2="5.91263" y2="123.36897" gradientUnits="userSpaceOnUse" id="color-75"><stop offset="0" stop-color="#e50000"/><stop offset="1" stop-color="#ff5656"/></linearGradient><radialGradient cx="-0.39828" cy="132.01378" r="1.26906" gradientUnits="userSpaceOnUse" id="color-76"><stop offset="0" stop-color="#1900e6" stop-opacity="0.6371"/><stop offset="1" stop-color="#1900e6" stop-opacity="0"/></radialGradient><linearGradient x1="-1.34205" y1="132.86226" x2="0.54543" y2="131.16535" gradientUnits="userSpaceOnUse" id="color-77"><stop offset="0" stop-color="#e50000"/><stop offset="1" stop-color="#ff5656"/></linearGradient><radialGradient cx="-9.98084" cy="124.1893" r="1.26906" gradientUnits="userSpaceOnUse" id="color-78"><stop offset="0" stop-color="#1900e6" stop-opacity="0.6371"/><stop offset="1" stop-color="#1900e6" stop-opacity="0"/></radialGradient><linearGradient x1="-10.92461" y1="125.03775" x2="-9.03712" y2="123.34084" gradientUnits="userSpaceOnUse" id="color-79"><stop offset="0" stop-color="#e50000"/><stop offset="1" stop-color="#ff5656"/></linearGradient><radialGradient cx="204.88473" cy="134.37613" r="15.03842" gradientUnits="userSpaceOnUse" id="color-80"><stop offset="0" stop-color="#0022ff" stop-opacity="0.73333"/><stop offset="1" stop-color="#0022fc" stop-opacity="0.1451"/></radialGradient><radialGradient cx="214.87835" cy="144.36972" r="9.99362" gradientUnits="userSpaceOnUse" id="color-81"><stop offset="0" stop-color="#0022ff" stop-opacity="0.73333"/><stop offset="1" stop-color="#0022fc" stop-opacity="0.1451"/></radialGradient><radialGradient cx="233.92315" cy="113.37615" r="6" gradientUnits="userSpaceOnUse" id="color-82"><stop offset="0" stop-color="#0022ff" stop-opacity="0.73333"/><stop offset="1" stop-color="#0022fc" stop-opacity="0.1451"/></radialGradient><radialGradient cx="86.40298" cy="134.76169" r="9.99362" gradientUnits="userSpaceOnUse" id="color-83"><stop offset="0" stop-color="#0022ff" stop-opacity="0.73333"/><stop offset="1" stop-color="#0022fc" stop-opacity="0.1451"/></radialGradient><radialGradient cx="109.47187" cy="149.66322" r="6" gradientUnits="userSpaceOnUse" id="color-84"><stop offset="0" stop-color="#0022ff" stop-opacity="0.73333"/><stop offset="1" stop-color="#0022fc" stop-opacity="0.1451"/></radialGradient><radialGradient cx="61.42315" cy="141.31363" r="35.5" gradientUnits="userSpaceOnUse" id="color-85"><stop offset="0" stop-color="#0022ff" stop-opacity="0.82353"/><stop offset="1" stop-color="#0022ff" stop-opacity="0"/></radialGradient><radialGradient cx="98.92954" cy="115.80726" r="9.99362" gradientUnits="userSpaceOnUse" id="color-86"><stop offset="0" stop-color="#0022ff" stop-opacity="0.73333"/><stop offset="1" stop-color="#0022fc" stop-opacity="0.1451"/></radialGradient><radialGradient cx="93.66945" cy="142.02817" r="17.26009" gradientUnits="userSpaceOnUse" id="color-87"><stop offset="0" stop-color="#0022ff" stop-opacity="0.73333"/><stop offset="1" stop-color="#0022fc" stop-opacity="0.1451"/></radialGradient><linearGradient x1="427.42391" y1="107.00293" x2="430.92554" y2="126.75047" gradientTransform="translate(-852.72902,-466.77211) rotate(10.05514) scale(2.39338,2.39338)" gradientUnits="userSpaceOnUse" id="color-88"><stop offset="0" stop-color="#000000"/><stop offset="1" stop-color="#000000" stop-opacity="0"/></linearGradient><linearGradient x1="443.99548" y1="88.94055" x2="447.05032" y2="106.16837" gradientTransform="translate(-1046.92781,-488.92236) rotate(10.05514) scale(2.74343,2.74343)" gradientUnits="userSpaceOnUse" id="color-89"><stop offset="0" stop-color="#000000"/><stop offset="1" stop-color="#000000" stop-opacity="0"/></linearGradient></defs><g transform="translate(11.57685,-14.76481)"><g data-paper-data="{&quot;isPaintingLayer&quot;:true}" fill-rule="nonzero" stroke-linecap="butt" stroke-linejoin="miter" stroke-miterlimit="10" stroke-dasharray="" stroke-dashoffset="0" style="mix-blend-mode: normal"><path d="M108.92315,147.87612c0,-43.90664 35.59336,-79.5 79.5,-79.5c43.90664,0 79.5,35.59336 79.5,79.5c0,43.90664 -35.59336,79.5 -79.5,79.5c-43.90664,0 -79.5,-35.59336 -79.5,-79.5z" fill="url(#color-1)" stroke="#696969" stroke-width="0"/><path d="M144.22002,123.82836c0,0 -6.23027,1.77799 -8.26136,2.04143c-2.41989,0.31386 -5.60348,0.28755 -5.60348,0.28755l-0.23206,-2.86143l3.94998,0.9887l-0.79707,-4.7444l5.86247,3.8963l1.15635,-3.1934l4.47719,1.19414l5.33831,-3.47899c0,0 -1.4838,1.74376 -2.37355,2.64316c-1.05706,1.06851 -3.51679,3.22693 -3.51679,3.22693z" fill-opacity="0.23478" fill="#ffffff" stroke="#000000" stroke-width="0"/><g stroke-width="0"><path d="M65.99081,152.32395l35.45446,28.85888l-44.2926,38.52447l-39.94706,55.03846c0,0 13.35312,-56.10572 22.22796,-78.37631c6.86522,-17.22762 26.55724,-44.04549 26.55724,-44.04549z" fill="url(#color-2)" stroke="#000000"/><g><g><path d="M69.79763,162.47632l8.5576,-15.58766l31.33542,19.45014l4.98884,19.58385l-32.16003,23.44262l2.92131,1.69807l5.94343,14.32476l-8.16231,5.54089l-7.85336,-3.21025l-8.44902,-9.34525l-5.88931,-17.82231l6.02714,-4.18064l31.94813,-15.21131z" fill="url(#color-3)" stroke="url(#color-4)"/><path d="M61.64242,148.12617l6.68694,-38.58883l-1.50531,-18.49993l2.1109,-13.55982l18.73852,1.43014l17.83983,5.63417l-0.66619,14.17851l-5.31969,14.47195l-4.95868,30.74778l-3.6154,11.1734l-13.7756,-2.14884l-15.79389,34.2742l-4.45546,14.77349l3.08142,4.17378l-2.5721,2.5005l-12.04453,20.02081l-2.98889,0.40178l-7.6027,-2.10335l-4.69485,-12.88475l1.24768,-6.3335l2.85459,-2.92623l10.38978,-26.35964z" fill="url(#color-5)" stroke="#000000"/><path d="M66.68468,89.95782l2.68936,-12.83912l5.08362,0.76625l5.63005,5.82001l-9.27373,2.96462l3.17286,3.67092l-5.06646,6.34482l10.89342,5.45774l-9.79066,3.22222l4.43321,5.82471l-4.11335,4.63438l11.33567,7.08631l-13.09369,4.49531l6.06078,7.64l-7.82383,4.18944l5.20929,4.79814l-5.99484,5.09103l8.57012,1.68018l-8.54804,2.85266l0.19429,6.96038l-10.80328,4.02747l4.35564,3.10093l-11.46111,8.05735l5.96563,0.81518l-8.52771,4.08033l6.53727,7.2841l-0.50123,3.37997l-9.85458,2.76328l4.00649,2.58719l-7.19439,2.90839l6.81751,2.21537l-6.30465,3.22l4.76564,10.66819l-9.24593,11.53235l-4.76391,-12.96046l1.38917,-6.53278l2.67698,-2.50949c0,0 2.12263,-6.8974 5.12165,-13.19502c2.93254,-6.15806 2.13056,-7.40051 5.77814,-14.64041c6.20829,-12.32264 16.40304,-29.07089 16.25182,-28.20203c-0.9121,5.24023 6.82842,-37.52028 6.82842,-37.52028z" fill="url(#color-6)" stroke="url(#color-7)"/><path d="M76.95613,152.8661l-12.3772,27.57124c0,0 -2.77342,5.53872 -3.86985,8.91205c-1.53189,4.71304 -2.1326,7.8425 -2.86959,10.06673c-1.07796,3.25331 -0.89994,2.39952 -0.89994,2.39952l3.08142,4.1738l-2.57209,2.50049l-11.97208,20.39701l-3.06135,0.02557l-2.1203,-6.79354l4.5187,-2.89787l2.86496,-6.31214l-6.72521,-6.40838l10.8319,-4.69552l-9.10382,-2.02732l5.48865,-3.51817l-2.82252,-2.0365l8.38934,-1.95027l3.09612,-5.49059l-6.1622,-5.03479l9.66626,-5.16089l-6.04763,-2.13065l8.50258,-6.1927l-1.40057,-2.3852l7.80395,-3.3224l-0.76679,-8.25639z" fill="url(#color-8)" stroke="#000000"/><path d="M98.52688,181.10294l-17.36745,-11.14344l-8.587,-5.76532l5.82962,-2.61681l2.30167,3.99357l6.48971,-0.17905l3.00341,5.37836l7.68229,-2.11301l1.3814,7.59201l5.52616,-0.7411l2.50427,5.10497l-2.41317,4.59528l-5.64301,-1.10162l-2.57349,3.42169l-5.51256,0.08493l1.29417,5.48497l-7.34093,-2.58941l-2.61769,3.47832l-4.09151,-2.31004l-2.40943,6.92997l-5.1153,-2.02577l-3.084,8.39473l-7.04324,-4.17599l6.32456,-4.30786z" fill="url(#color-9)" stroke="url(#color-10)"/><path d="M77.0159,153.75815l0.65384,-3.38553l13.54212,2.61538l-0.65385,3.38553z" fill="url(#color-11)" stroke="#000000"/><path d="M105.51324,84.54194l-0.66621,14.17851l-5.31968,14.47195l-4.95869,30.74778l-3.61539,11.1734l-2.31646,-7.46369l3.31989,-3.20117l-4.96219,-3.96709l5.84342,-6.69988l-5.68752,-4.9421l7.52621,-8.29337l-10.80612,-1.42466l12.39366,-4.96031l-4.38858,-2.59959l6.62297,-5.47585l-11.13737,-2.87255l12.9002,-3.20738l-4.61197,-3.25766l5.86238,-3.39835l-4.28269,-5.15361z" fill="url(#color-12)" stroke="#000000"/><path d="M93.43523,189.69346l3.26021,-0.52008l3.36208,-3.16985l4.73376,0.6653l4.22887,-3.8411l-1.37627,-8.00936l-7.59192,-0.80337l-0.03164,-7.49645l-8.64825,1.59115l4.94619,-5.88946l-9.80633,-3.96741l4.49323,-3.43636l18.60462,11.49994l5.08038,19.6962c0,0 -14.60761,10.49543 -24.15561,17.47434c-3.84258,2.80867 -7.03866,5.11311 -7.92814,5.87553c-0.00639,0.00547 2.857,1.70115 2.857,1.70115l5.86838,14.34153l-8.0515,5.54875l-1.1387,-4.59882l3.92928,-4.16808l-8.74838,-2.34375l5.3839,-3.68289l-10.4438,-4.03918l3.21557,-6.53412l4.98345,-0.0118l0.27547,-8.14958l3.37933,1.3031l2.92678,-4.15657l6.66323,0.25302z" fill="url(#color-13)" stroke="#000000"/></g><g stroke="#000000"><path d="M66.22293,41.25261c2.06085,-9.00595 15.50733,-20.14062 15.50733,-20.14062l17.66599,-2.29334l15.94852,9.16275c0,0 8.09382,14.43852 6.48544,24.01057c-1.60838,9.57205 -13.74843,19.21396 -13.74843,19.21396c0,0 -11.87872,4.67024 -19.4249,3.22001c-7.54617,-1.45023 -16.79681,-10.18115 -16.79681,-10.18115c0,0 -7.69801,-13.98621 -5.63715,-22.99217z" fill="url(#color-14)"/><path d="M66.22293,41.25261c2.06085,-9.00595 15.50733,-20.14062 15.50733,-20.14062l6.68325,4.44591l-11.2794,3.12617l3.55026,6.54813l-11.01156,3.78912l1.59483,3.18609l-2.41208,5.08244l3.46467,0.96351l-3.40152,4.26335l4.0171,2.84296l-1.07574,8.8851c0,0 -7.69801,-13.9862 -5.63715,-22.99215z" fill="url(#color-15)"/><path d="M75.8233,57.76694l-4.22002,-18.71579l24.15583,9.95666l-3.05133,13.29156z" data-paper-data="{&quot;index&quot;:null}" fill="#000000"/><path d="M101.86088,64.03649l2.94137,-13.46884l15.68699,-6.34694c0,0 1.19219,1.25736 1.47682,2.90672c0.34491,1.99859 -1.00083,6.89436 -1.00083,6.89436c0,0 -2.02627,6.47622 -3.93734,8.45756c-1.82205,1.88904 -7.27472,3.16683 -7.27472,3.16683z" data-paper-data="{&quot;index&quot;:null}" fill="#000000"/><path d="M80.67704,79.88223l4.77931,-9.79934l8.82332,1.29164l-0.88041,10.96474l-7.44974,2.27283z" fill="url(#color-16)"/><path d="M86.60781,56.04438l1.47115,-7.61745l6.9712,3.45344l-1.78282,6.50371z" fill="#ffffff"/><path d="M110.95578,60.60214l0.8162,-6.95375l8.86956,-0.92088l-2.99464,7.32321z" data-paper-data="{&quot;index&quot;:null}" fill="#ffffff"/><path d="M72.01512,64.60475l-3.44258,-6.72271c0,0 20.8075,6.74982 27.92526,8.17011c6.52583,1.30216 16.41172,0.91938 16.41172,0.91938l-2.76688,3.41641c0,0 -4.41864,2.52224 -9.70163,3.50315c-5.64882,1.04883 -9.5896,1.57166 -12.82857,0.36751c-2.30658,-0.8575 -6.09684,-2.33593 -8.98719,-4.21706c-3.8718,-2.51986 -6.61011,-5.4368 -6.61011,-5.4368z" fill="url(#color-17)"/><path d="M49.67845,29.88515l13.28288,-0.65086l11.24569,1.21416l-2.73038,3.28882l-10.02704,-2.05025l-5.88509,4.31608z" fill="url(#color-18)"/><path d="M57.44579,14.76481l10.74683,7.83353l7.99025,8.00595l-4.19007,0.84535l-6.51681,-7.89153l-7.2904,-0.33592z" fill="url(#color-19)"/><path d="M71.70761,31.44333l5.87547,-6.71449c0,0 13.60679,4.2569 20.20206,5.36589c6.49615,1.09231 19.07672,1.23879 19.07672,1.23879l4.80522,12.37482c0,0 -14.23173,0.09984 -22.33508,-1.15806c-9.20554,-1.42899 -30.46039,-7.05438 -30.46039,-7.05438z" fill="url(#color-20)"/></g></g><g><path d="M87.43658,156.73071c0,0 0.57591,-9.49912 5.12075,-17.7696c3.57504,-6.50568 10.69596,-11.79674 14.51222,-14.19568c9.45503,-5.94354 41.18517,-9.39296 41.18517,-9.39296l-7.34433,32.97842c0,0 -18.81978,-19.06665 -32.88846,-16.00552c-4.00638,0.87172 -9.63565,3.70854 -12.99716,8.05033c-5.40285,6.97841 -7.5882,16.33501 -7.5882,16.33501z" fill="url(#color-21)" stroke="#000000"/><g><path d="M146.58931,134.00059c5.33453,-5.39502 11.69057,-7.75979 14.19663,-5.28185c2.50603,2.47795 -5.12143,14.25528 -5.12143,14.25528c0,0 -11.69059,7.7598 -14.19665,5.28186c-2.50603,-2.47793 -0.2131,-8.86025 5.12145,-14.25529z" fill="url(#color-22)" stroke="#b70000"/><g><path d="M138.21806,135.90893l1.40412,-5.45496c0,0 8.4507,2.17523 12.0009,3.08906c2.83209,0.72899 13.49861,-2.72956 13.49861,-2.72956l2.99215,1.93346c0,0 -15.06281,6.98004 -17.8949,6.25104c-3.55018,-0.91384 -12.0009,-3.08906 -12.0009,-3.08906z" fill="url(#color-23)" stroke="url(#color-24)"/><path d="M115.63051,122.37071l7.87501,-2.08964l8.61079,3.89894l10.46524,3.86806l1.21831,6.2848l-1.55238,2.73972l-3.92752,0.06245l-13.45176,-0.74492l-6.27039,-5.41033z" fill="url(#color-25)" stroke="url(#color-26)"/><path d="M168.78744,133.13644l-2.6285,-8.75104l12.70572,0.35082l3.42371,6.38987l-6.68173,6.79926z" fill="url(#color-27)" stroke="url(#color-28)"/><path d="M151.43163,115.67697c0,0 1.07286,1.48376 0.72034,2.78221c-0.52002,1.9154 -3.53827,7.59712 -3.53827,7.59712l-2.3591,4.44074l-6.29574,5.91252l-4.9575,0.3136l-1.22701,-6.23783l2.99805,-6.50044l3.60374,-4.06487l5.92858,-4.06939z" fill="url(#color-29)" stroke="url(#color-30)"/><path d="M142.37054,115.62817l8.03218,-1.36621l8.22132,4.66444l10.07093,4.80203l1.05333,10.437l-6.12215,-1.77441l-13.32859,-1.96287l-5.75342,-5.95714z" fill="url(#color-31)" stroke="url(#color-32)"/></g><path d="M135.9999,124.06171c7.00048,-2.92519 15.04683,0.37847 17.97204,7.37894c1.33415,3.19283 0.35557,9.64609 0.35557,9.64609l-7.7345,8.32598l-8.8798,0.58721c0,0 -7.39026,-3.89304 -9.09224,-7.96615c-2.92521,-7.00049 0.37848,-15.04685 7.37896,-17.97206z" fill="url(#color-33)" stroke="#b70000"/></g><path d="M177.78154,124.84937c0.78666,-2.36765 3.34376,-3.64926 5.7114,-2.8626c2.36765,0.78666 3.64926,3.34374 2.86261,5.71138c-0.78666,2.36765 -3.34374,3.64927 -5.71138,2.8626c-2.36765,-0.78666 -3.64928,-3.34373 -2.86262,-5.71138z" fill="url(#color-34)" stroke="url(#color-35)"/><path d="M177.17479,135.90461c0.50797,-1.52879 2.09724,-2.37687 3.54977,-1.89426c1.45253,0.48262 2.21825,2.11318 1.7103,3.64196c-0.50797,1.52879 -2.09724,2.37687 -3.54977,1.89426c-1.45253,-0.48262 -2.21826,-2.11319 -1.71031,-3.64198z" fill="url(#color-36)" stroke="url(#color-37)"/><path d="M173.61814,121.69036c0.22924,-0.68993 0.94648,-1.07267 1.602,-0.85487c0.65551,0.21779 1.00107,0.95367 0.77184,1.6436c-0.22924,0.68993 -0.94646,1.07266 -1.60198,0.85486c-0.65551,-0.21779 -1.00108,-0.95367 -0.77184,-1.64361z" fill="url(#color-38)" stroke="url(#color-39)"/><path d="M189.0388,133.86591c1.36964,-4.12223 5.82168,-6.35362 9.94391,-4.98398c4.12223,1.36964 6.35362,5.8217 4.98398,9.94392c-1.36964,4.12223 -5.8217,6.35364 -9.94392,4.98399c-4.12223,-1.36964 -6.35361,-5.82169 -4.98397,-9.94392z" fill="url(#color-40)" stroke="url(#color-41)"/><path d="M131.62129,117.83068c0.59811,-1.80014 2.54228,-2.77457 4.34242,-2.17646c1.80014,0.59811 2.77457,2.54228 2.17646,4.34243c-0.59811,1.80014 -2.54228,2.77457 -4.34241,2.17646c-1.80014,-0.59811 -2.77457,-2.54228 -2.17646,-4.34242z" fill="url(#color-42)" stroke="url(#color-43)"/><path d="M123.08013,137.5274c0.36242,-1.09076 1.54044,-1.68121 2.6312,-1.31879c1.09076,0.36242 1.68121,1.54047 1.31878,2.63122c-0.36242,1.09076 -1.54045,1.68121 -2.6312,1.31878c-1.09076,-0.36242 -1.68121,-1.54044 -1.3188,-2.6312z" fill="url(#color-44)" stroke="url(#color-45)"/><path d="M113.99704,127.94877c0.221,-0.66512 0.93935,-1.02517 1.60448,-0.80419c0.66514,0.221 1.02517,0.93936 0.80419,1.60448c-0.221,0.66512 -0.93935,1.02518 -1.60448,0.80419c-0.66514,-0.221 -1.02518,-0.93936 -0.80418,-1.60449z" fill="url(#color-46)" stroke="url(#color-47)"/><path d="M105.95949,122.95c0.221,-0.66512 0.93933,-1.02519 1.60448,-0.80419c0.66514,0.221 1.02518,0.93934 0.80418,1.60449c-0.221,0.66512 -0.93934,1.02517 -1.60447,0.80419c-0.66514,-0.221 -1.02518,-0.93934 -0.80418,-1.60449z" fill="url(#color-48)" stroke="url(#color-49)"/><path d="M100.30644,133.95414c0.221,-0.66512 0.93935,-1.02519 1.60448,-0.80416c0.66514,0.221 1.02517,0.93934 0.80417,1.60448c-0.221,0.66512 -0.93935,1.02517 -1.60448,0.80418c-0.66514,-0.221 -1.02519,-0.93935 -0.80419,-1.60448z" fill="url(#color-50)" stroke="url(#color-51)"/><path d="M179.79304,134.31989l3.21147,-5.77161l12.03669,0.48755l1.83206,1.71768l-5.59151,1.72577l6.16567,5.53472l-5.93564,-0.24415l-0.50787,3.41701z" fill="url(#color-52)" stroke="url(#color-53)"/><path d="M182.08614,131.27499c0.22924,-0.68993 0.94647,-1.07268 1.60198,-0.85487c0.65551,0.21779 1.00109,0.95365 0.77186,1.64359c-0.22924,0.68993 -0.94646,1.07266 -1.60199,0.85487c-0.65551,-0.21779 -1.00109,-0.95366 -0.77186,-1.64359z" fill="url(#color-54)" stroke="url(#color-55)"/></g><g><path d="M-11.57574,147.06398c0,0 -0.17017,-9.51506 3.71268,-18.11623c3.0543,-6.7658 9.73877,-12.59855 13.3553,-15.28913c8.96027,-6.6661 40.3226,-12.5911 40.3226,-12.5911l-4.73776,33.45249c0,0 -20.25588,-17.53342 -34.04146,-13.37937c-3.92577,1.18296 -9.31544,4.45215 -12.32641,9.04395c-4.83945,7.3803 -6.28495,16.87935 -6.28495,16.87935z" fill="url(#color-56)" stroke="#000000"/><path d="M68.23112,117.16035c-0.84442,-4.96324 2.49455,-9.67127 7.45779,-10.5157c4.96325,-0.84442 9.67129,2.49455 10.5157,7.4578c0.84442,4.96325 -2.49455,9.67127 -7.45779,10.51569c-4.96324,0.84442 -9.67128,-2.49455 -10.5157,-7.45779z" fill="url(#color-57)" stroke="none"/><path d="M58.03986,115.40907c-0.95735,-5.62702 2.82818,-10.96469 8.4552,-11.92205c5.62702,-0.95735 10.96471,2.82817 11.92205,8.45517c0.95734,5.62701 -2.82816,10.96471 -8.45518,11.92205c-5.62702,0.95735 -10.96471,-2.82817 -11.92206,-8.45519z" fill="url(#color-58)" stroke="none"/><g><g data-paper-data="{&quot;index&quot;:null}"><path d="M40.40825,121.05263l1.42594,-5.44928c0,0 8.44196,2.20905 11.98845,3.13707c0.89835,0.23508 2.58836,0.05109 4.47666,-0.30953c0.44269,-0.08454 0.89627,-0.17879 1.35311,-0.27962c3.73129,-0.82357 7.67966,-2.08636 7.67966,-2.08636l2.98437,1.94544c0,0 -15.09062,6.91967 -17.91976,6.17935c-3.54651,-0.92802 -11.98845,-3.13707 -11.98845,-3.13707z" fill="url(#color-59)" stroke="url(#color-60)"/><path d="M17.87509,107.42407l7.88332,-2.05813l8.5951,3.9334l10.44966,3.9099l1.19315,6.28961l-1.56334,2.73348l-3.92775,0.04674l-13.44866,-0.79877l-6.24869,-5.43537z" fill="url(#color-61)" stroke="url(#color-62)"/><path d="M70.98849,118.40255l-2.59345,-8.76151l12.70421,0.40169l3.39809,6.40354l-6.70889,6.77245z" fill="url(#color-63)" stroke="url(#color-64)"/><path d="M53.70268,100.8737c0,0 1.0669,1.48804 0.70919,2.78506c-0.52768,1.91331 -3.56864,7.5829 -3.56864,7.5829l-2.37684,4.43126l-6.31937,5.88725l-4.95872,0.29377l-1.20202,-6.2427l3.02405,-6.48839l3.61996,-4.05041l5.94481,-4.04563z" fill="url(#color-65)" stroke="url(#color-66)"/><path d="M44.64188,100.78861l8.03758,-1.33407l8.20257,4.69732l10.05163,4.84228l1.01154,10.44113l-6.11499,-1.79888l-13.32064,-2.01619l-5.72953,-5.98014z" fill="url(#color-67)" stroke="url(#color-68)"/></g><path d="M38.35185,108.85716c7.01212,-2.89715 15.04519,0.4387 17.94236,7.45085c1.32135,3.19815 0.31696,9.64742 0.31696,9.64742l-7.76778,8.29493l-8.88207,0.55166c0,0 -7.37464,-3.92259 -9.06028,-8.00249c-2.89715,-7.01212 0.43871,-15.04521 7.45085,-17.94236z" data-paper-data="{&quot;index&quot;:null}" fill="url(#color-69)" stroke="#b70000"/></g><g><path d="M24.48314,122.43953c1.41064,-1.2682 3.58227,-1.15275 4.85047,0.25789c1.2682,1.41064 1.15275,3.58228 -0.25789,4.85048c-1.41064,1.2682 -3.58227,1.15275 -4.85047,-0.2579c-1.2682,-1.41063 -1.15275,-3.58227 0.25789,-4.85047z" data-paper-data="{&quot;index&quot;:null}" fill="url(#color-70)" stroke="url(#color-71)"/><path d="M8.675,109.71471c0.85474,-0.76844 2.1706,-0.69849 2.93904,0.15625c0.76844,0.85474 0.69848,2.17061 -0.15626,2.93905c-0.85474,0.76844 -2.1706,0.69849 -2.93906,-0.15625c-0.76845,-0.85475 -0.69847,-2.1706 0.15628,-2.93905z" data-paper-data="{&quot;index&quot;:null}" fill="url(#color-72)" stroke="url(#color-73)"/><path d="M4.12044,123.27369c0.52121,-0.46857 1.32361,-0.42594 1.7922,0.0953c0.46859,0.52123 0.42593,1.32362 -0.09529,1.7922c-0.52121,0.46857 -1.32361,0.42593 -1.7922,-0.09529c-0.46859,-0.52123 -0.42591,-1.32361 0.0953,-1.7922z" data-paper-data="{&quot;index&quot;:null}" fill="url(#color-74)" stroke="url(#color-75)"/><path d="M-1.34205,132.86226c-0.46857,-0.52121 -0.42592,-1.32362 0.0953,-1.7922c0.52121,-0.46857 1.32361,-0.42593 1.7922,0.09529c0.4686,0.52122 0.42593,1.3236 -0.09528,1.79219c-0.52121,0.46857 -1.32362,0.42593 -1.7922,-0.09528z" data-paper-data="{&quot;index&quot;:null}" fill="url(#color-76)" stroke="url(#color-77)"/><path d="M-10.9246,125.03775c-0.46859,-0.52123 -0.42591,-1.32364 0.0953,-1.79221c0.52121,-0.46857 1.32361,-0.42593 1.7922,0.09529c0.4686,0.52122 0.42592,1.32363 -0.09529,1.79221c-0.52121,0.46857 -1.32361,0.42594 -1.7922,-0.09529z" data-paper-data="{&quot;index&quot;:null}" fill="url(#color-78)" stroke="url(#color-79)"/></g></g></g><path d="M189.84631,134.37613c0,-8.3055 6.73293,-15.03842 15.03842,-15.03842c8.3055,0 15.03842,6.73293 15.03842,15.03842c0,8.3055 -6.73292,15.03842 -15.03842,15.03842c-8.3055,0 -15.03842,-6.73292 -15.03842,-15.03842z" fill="url(#color-80)" stroke="#696969" stroke-width="0"/><path d="M204.88473,144.36972c0,-5.51932 4.4743,-9.99362 9.99362,-9.99362c5.51932,0 9.99362,4.4743 9.99362,9.99362c0,5.51932 -4.4743,9.99362 -9.99362,9.99362c-5.51932,0 -9.99362,-4.4743 -9.99362,-9.99362z" fill="url(#color-81)" stroke="#696969" stroke-width="0"/><path d="M227.92315,113.37615c0,-3.31371 2.68629,-6 6,-6c3.31371,0 6,2.68629 6,6c0,3.31371 -2.68629,6 -6,6c-3.31371,0 -6,-2.68629 -6,-6z" fill="url(#color-82)" stroke="#696969" stroke-width="0"/><path d="M76.40936,134.76169c0,-5.51932 4.4743,-9.99361 9.99362,-9.99361c5.51932,0 9.99362,4.47429 9.99362,9.99361c0,5.51932 -4.4743,9.99362 -9.99362,9.99362c-5.51932,0 -9.99362,-4.4743 -9.99362,-9.99362z" fill="url(#color-83)" stroke="#696969" stroke-width="0"/><path d="M109.47187,155.66322c-3.31371,0 -6,-2.68629 -6,-6c0,-3.31371 2.68629,-6 6,-6c3.31371,0 6,2.68629 6,6c0,3.31371 -2.68629,6 -6,6z" fill="url(#color-84)" stroke="#696969" stroke-width="0"/><path d="M25.92315,141.31363c0,-19.60611 15.89389,-35.5 35.5,-35.5c19.60611,0 35.5,15.89389 35.5,35.5c0,19.60611 -15.89389,35.5 -35.5,35.5c-19.60611,0 -35.5,-15.89389 -35.5,-35.5z" fill="url(#color-85)" stroke="#696969" stroke-width="0"/><path d="M88.93592,115.80726c0,-5.51932 4.47429,-9.99362 9.99362,-9.99362c5.51932,0 9.99362,4.47429 9.99362,9.99362c0,5.51932 -4.47429,9.99362 -9.99362,9.99362c-5.51932,0 -9.99362,-4.47429 -9.99362,-9.99362z" fill="url(#color-86)" stroke="#696969" stroke-width="0"/><path d="M76.40936,142.02817c0,-9.53249 7.7276,-17.26008 17.26009,-17.26008c9.53248,0 17.26009,7.7276 17.26009,17.26008c0,9.53249 -7.7276,17.26009 -17.26009,17.26009c-9.53248,0 -17.26009,-7.7276 -17.26009,-17.26009z" fill="url(#color-87)" stroke="#696969" stroke-width="0"/><text transform="translate(384.86559,129.82488) rotate(-10.05514) scale(0.41782,0.41782)" font-size="40" xml:space="preserve" fill="url(#color-88)" fill-rule="nonzero" stroke="none" stroke-width="1" stroke-linecap="butt" stroke-linejoin="miter" stroke-miterlimit="10" stroke-dasharray="" stroke-dashoffset="0" font-family="Sans Serif" font-weight="normal" text-anchor="start" style="mix-blend-mode: normal"><tspan x="0" dy="0">@Nate4893</tspan></text><text transform="translate(406.86745,108.85049) rotate(-10.05514) scale(0.36451,0.36451)" font-size="40" xml:space="preserve" fill="url(#color-89)" fill-rule="nonzero" stroke="none" stroke-width="1" stroke-linecap="butt" stroke-linejoin="miter" stroke-miterlimit="10" stroke-dasharray="" stroke-dashoffset="0" font-family="Sans Serif" font-weight="normal" text-anchor="start" style="mix-blend-mode: normal"><tspan x="0" dy="0">Art by</tspan></text></g></g></svg>