<svg version="1.1" xmlns="http://www.w3.org/2000/svg" xmlns:xlink="http://www.w3.org/1999/xlink" width="107.93901" height="108.23263" viewBox="0,0,107.93901,108.23263"><defs><radialGradient cx="277.46827" cy="192.94586" r="22.4585" gradientUnits="userSpaceOnUse" id="color-1"><stop offset="0" stop-color="#000000" stop-opacity="0.63137"/><stop offset="1" stop-color="#000000" stop-opacity="0"/></radialGradient><linearGradient x1="280.10082" y1="215.24955" x2="274.83573" y2="170.64217" gradientUnits="userSpaceOnUse" id="color-2"><stop offset="0" stop-color="#ff5454"/><stop offset="1" stop-color="#eb0000"/></linearGradient><radialGradient cx="314.90179" cy="186.72455" r="13.21118" gradientUnits="userSpaceOnUse" id="color-3"><stop offset="0" stop-color="#000000" stop-opacity="0.63137"/><stop offset="1" stop-color="#000000" stop-opacity="0"/></radialGradient><linearGradient x1="316.45038" y1="199.84466" x2="313.35321" y2="173.60445" gradientUnits="userSpaceOnUse" id="color-4"><stop offset="0" stop-color="#ff5454"/><stop offset="1" stop-color="#eb0000"/></linearGradient><linearGradient x1="282.32847" y1="191.42327" x2="301.51474" y2="189.15869" gradientUnits="userSpaceOnUse" id="color-5"><stop offset="0" stop-color="#550000"/><stop offset="1" stop-color="#ff0000"/></linearGradient><linearGradient x1="284.88571" y1="193.44856" x2="261.09221" y2="196.25694" gradientUnits="userSpaceOnUse" id="color-6"><stop offset="0" stop-color="#eb0000"/><stop offset="1" stop-color="#ff5454"/></linearGradient><linearGradient x1="271.92886" y1="188.27813" x2="285.63334" y2="186.66056" gradientUnits="userSpaceOnUse" id="color-7"><stop offset="0" stop-color="#575757"/><stop offset="1" stop-color="#d9d9d9"/></linearGradient><linearGradient x1="301.23475" y1="189.04912" x2="280.892" y2="191.4502" gradientUnits="userSpaceOnUse" id="color-8"><stop offset="0" stop-color="#e50000"/><stop offset="1" stop-color="#ff5656"/></linearGradient><linearGradient x1="311.39877" y1="181.14343" x2="316.00538" y2="194.57702" gradientUnits="userSpaceOnUse" id="color-9"><stop offset="0" stop-color="#ff5454"/><stop offset="1" stop-color="#eb0000"/></linearGradient><linearGradient x1="301.63575" y1="183.86814" x2="303.2533" y2="197.57262" gradientUnits="userSpaceOnUse" id="color-10"><stop offset="0" stop-color="#303030"/><stop offset="1" stop-color="#dddddd"/></linearGradient><radialGradient cx="293.48342" cy="163.06271" r="12.62094" gradientUnits="userSpaceOnUse" id="color-11"><stop offset="0" stop-color="#000000" stop-opacity="0.63137"/><stop offset="1" stop-color="#000000" stop-opacity="0"/></radialGradient><linearGradient x1="293.32207" y1="175.68263" x2="293.64477" y2="150.44282" gradientUnits="userSpaceOnUse" id="color-12"><stop offset="0" stop-color="#ff5454"/><stop offset="1" stop-color="#eb0000"/></linearGradient><radialGradient cx="264.45767" cy="161.99113" r="17.39747" gradientUnits="userSpaceOnUse" id="color-13"><stop offset="0" stop-color="#000000" stop-opacity="0.63137"/><stop offset="1" stop-color="#000000" stop-opacity="0"/></radialGradient><linearGradient x1="264.68009" y1="144.59508" x2="264.23525" y2="179.38718" gradientUnits="userSpaceOnUse" id="color-14"><stop offset="0" stop-color="#ff5454"/><stop offset="1" stop-color="#eb0000"/></linearGradient><linearGradient x1="268.32526" y1="162.77066" x2="283.28985" y2="162.962" gradientUnits="userSpaceOnUse" id="color-15"><stop offset="0" stop-color="#550000"/><stop offset="1" stop-color="#ff0000"/></linearGradient><linearGradient x1="270.13142" y1="161.00334" x2="251.57337" y2="160.76606" gradientUnits="userSpaceOnUse" id="color-16"><stop offset="0" stop-color="#eb0000"/><stop offset="1" stop-color="#ff5454"/></linearGradient><linearGradient x1="260.56796" y1="166.03565" x2="271.25695" y2="166.17231" gradientUnits="userSpaceOnUse" id="color-17"><stop offset="0" stop-color="#575757"/><stop offset="1" stop-color="#d9d9d9"/></linearGradient><linearGradient x1="283.08301" y1="163.06908" x2="267.21642" y2="162.86622" gradientUnits="userSpaceOnUse" id="color-18"><stop offset="0" stop-color="#e50000"/><stop offset="1" stop-color="#ff5656"/></linearGradient><linearGradient x1="291.56672" y1="167.30251" x2="294.0281" y2="156.58024" gradientUnits="userSpaceOnUse" id="color-19"><stop offset="0" stop-color="#ff5454"/><stop offset="1" stop-color="#eb0000"/></linearGradient><linearGradient x1="283.8114" y1="167.02807" x2="283.94806" y2="156.33908" gradientUnits="userSpaceOnUse" id="color-20"><stop offset="0" stop-color="#303030"/><stop offset="1" stop-color="#dddddd"/></linearGradient></defs><g transform="translate(-234.81019,-125.88372)"><g data-paper-data="{&quot;isPaintingLayer&quot;:true}" fill-rule="nonzero" stroke-linejoin="miter" stroke-miterlimit="10" stroke-dasharray="" stroke-dashoffset="0" style="mix-blend-mode: normal"><path d="M342.7492,125.88373v108.23263h-107.93901v-108.23263z" data-paper-data="{&quot;index&quot;:null}" fill="none" stroke="none" stroke-width="0" stroke-linecap="butt"/><path d="M274.83574,170.64217c12.31798,-1.45391 23.4823,7.35315 24.93622,19.67114c1.45391,12.31797 -7.35314,23.48231 -19.67114,24.93622c-12.31798,1.45391 -23.4823,-7.35315 -24.93622,-19.67114c-1.45391,-12.31797 7.35314,-23.48231 19.67114,-24.93622z" data-paper-data="{&quot;index&quot;:null}" fill="url(#color-1)" stroke="url(#color-2)" stroke-width="0" stroke-linecap="butt"/><path d="M301.78169,188.27316c-0.85526,-7.24603 4.32546,-13.81343 11.57151,-14.66869c7.24603,-0.85526 13.81343,4.32548 14.66869,11.57151c0.85526,7.24603 -4.32546,13.81343 -11.57151,14.66869c-7.24602,0.85525 -13.81342,-4.32549 -14.66868,-11.57152z" data-paper-data="{&quot;index&quot;:null}" fill="url(#color-3)" stroke="url(#color-4)" stroke-width="0" stroke-linecap="butt"/><path d="M285.16901,189.96593l13.75446,2.76167" data-paper-data="{&quot;index&quot;:null}" fill="none" stroke="url(#color-5)" stroke-width="17.5" stroke-linecap="round"/><path d="M284.8857,193.44857c0.77551,6.5704 -3.92217,12.52543 -10.49256,13.30094c-6.5704,0.77551 -12.52543,-3.92217 -13.30094,-10.49256c-0.77551,-6.5704 3.92217,-12.52543 10.49256,-13.30094c6.5704,-0.77551 12.52543,3.92217 13.30094,10.49256z" data-paper-data="{&quot;index&quot;:null}" fill="url(#color-6)" stroke="#000000" stroke-width="0" stroke-linecap="butt"/><path d="M283.33089,189.43883l-8.85033,-1.82738" data-paper-data="{&quot;index&quot;:null}" fill="none" stroke="url(#color-7)" stroke-width="12.5" stroke-linecap="round"/><path d="M283.06396,189.89854l15.39032,0.98817" data-paper-data="{&quot;index&quot;:null}" fill="none" stroke="url(#color-8)" stroke-width="7.5" stroke-linecap="round"/><path d="M308.07561,191.39822l-1.06939,-3.11852l10.51254,-9.23491c0,0 2.50212,2.0393 4.0321,6.50096c1.51074,4.40551 0.57451,6.93261 0.57451,6.93261z" data-paper-data="{&quot;index&quot;:null}" fill="url(#color-9)" stroke="#000000" stroke-width="0" stroke-linecap="butt"/><path d="M298.33606,192.4899l8.36645,-2.27211" data-paper-data="{&quot;index&quot;:null}" fill="none" stroke="url(#color-10)" stroke-width="12.5" stroke-linecap="round"/><path d="M293.64477,150.44281c6.96977,0.08912 12.54766,5.81147 12.45855,12.78126c-0.08912,6.96977 -5.81146,12.54766 -12.78126,12.45855c-6.96977,-0.08911 -12.54765,-5.81148 -12.45854,-12.78126c0.08912,-6.96977 5.81145,-12.54766 12.78125,-12.45855z" fill="url(#color-11)" stroke="url(#color-12)" stroke-width="0" stroke-linecap="butt"/><path d="M247.06163,161.76871c0.12285,-9.60757 8.0109,-17.29647 17.61847,-17.17363c9.60758,0.12285 17.29647,8.01091 17.17363,17.61847c-0.12285,9.60757 -8.0109,17.29647 -17.61847,17.17363c-9.60758,-0.12285 -17.29647,-8.01091 -17.17363,-17.61847z" data-paper-data="{&quot;index&quot;:null}" fill="url(#color-13)" stroke="url(#color-14)" stroke-width="0" stroke-linecap="butt"/><path d="M281.00457,160.42227l-10.37295,3.24118" data-paper-data="{&quot;index&quot;:null}" fill="none" stroke="url(#color-15)" stroke-width="17.5" stroke-linecap="round"/><path d="M260.73375,170.16373c-5.12466,-0.06553 -9.22591,-4.273 -9.16039,-9.39767c0.06553,-5.12466 4.273,-9.22591 9.39767,-9.16039c5.12466,0.06553 9.22591,4.273 9.16039,9.39767c-0.06553,5.12466 -4.273,9.22591 -9.39767,9.16039z" data-paper-data="{&quot;index&quot;:null}" fill="url(#color-16)" stroke="#000000" stroke-width="0" stroke-linecap="butt"/><path d="M262.58779,166.34268l6.67041,-2.12435" data-paper-data="{&quot;index&quot;:null}" fill="none" stroke="url(#color-17)" stroke-width="12.5" stroke-linecap="round"/><path d="M269.01534,163.88579l11.77681,-2.0073" data-paper-data="{&quot;index&quot;:null}" fill="none" stroke="url(#color-18)" stroke-width="7.5" stroke-linecap="round"/><path d="M298.91288,157.70158c0,0 0.92586,1.8711 0.11866,5.38744c-0.81749,3.56115 -2.58004,5.33483 -2.58004,5.33483l-8.84659,-6.26354l0.57139,-2.48911z" data-paper-data="{&quot;index&quot;:null}" fill="url(#color-19)" stroke="#000000" stroke-width="0" stroke-linecap="butt"/><path d="M280.57129,160.65295l6.62953,1.07309" data-paper-data="{&quot;index&quot;:null}" fill="none" stroke="url(#color-20)" stroke-width="12.5" stroke-linecap="round"/></g></g></svg>