<svg version="1.1" xmlns="http://www.w3.org/2000/svg" xmlns:xlink="http://www.w3.org/1999/xlink" width="202.40902" height="155.82799" viewBox="0,0,202.40902,155.82799"><defs><linearGradient x1="145.82819" y1="155.39311" x2="161.69216" y2="187.29124" gradientUnits="userSpaceOnUse" id="color-1"><stop offset="0" stop-color="#ffffff"/><stop offset="1" stop-color="#dcd0e8"/></linearGradient><linearGradient x1="274.07659" y1="137.38834" x2="274.07659" y2="172.31214" gradientUnits="userSpaceOnUse" id="color-2"><stop offset="0" stop-color="#ffffff"/><stop offset="1" stop-color="#dcd0e8"/></linearGradient><linearGradient x1="246.15211" y1="163.90559" x2="246.15211" y2="233.46457" gradientUnits="userSpaceOnUse" id="color-3"><stop offset="0" stop-color="#ffffff"/><stop offset="1" stop-color="#dcd0e8"/></linearGradient><linearGradient x1="149.8941" y1="146.1311" x2="238.74506" y2="214.69397" gradientUnits="userSpaceOnUse" id="color-4"><stop offset="0" stop-color="#f6f3f9"/><stop offset="1" stop-color="#f5ebff"/></linearGradient><linearGradient x1="210.88469" y1="186.29059" x2="294.94075" y2="186.29059" gradientUnits="userSpaceOnUse" id="color-5"><stop offset="0" stop-color="#ffffff"/><stop offset="1" stop-color="#dcd0e8"/></linearGradient><linearGradient x1="169.2574" y1="77.13904" x2="166.91994" y2="109.87218" gradientUnits="userSpaceOnUse" id="color-6"><stop offset="0" stop-color="#000000"/><stop offset="1" stop-color="#636363"/></linearGradient><linearGradient x1="136.47066" y1="92.83221" x2="176.43608" y2="141.48365" gradientUnits="userSpaceOnUse" id="color-7"><stop offset="0" stop-color="#ffffff"/><stop offset="1" stop-color="#e9e0f2"/></linearGradient><linearGradient x1="145.59242" y1="103.45538" x2="144.58196" y2="122.06089" gradientUnits="userSpaceOnUse" id="color-8"><stop offset="0" stop-color="#000000"/><stop offset="1" stop-color="#636363"/></linearGradient><linearGradient x1="184.82391" y1="82.62004" x2="198.70745" y2="117.33252" gradientUnits="userSpaceOnUse" id="color-9"><stop offset="0" stop-color="#ffffff"/><stop offset="1" stop-color="#dcd0e8"/></linearGradient><linearGradient x1="129.70165" y1="178.9419" x2="178.37418" y2="204.57005" gradientUnits="userSpaceOnUse" id="color-10"><stop offset="0" stop-color="#ffffff"/><stop offset="1" stop-color="#eae2f1"/></linearGradient><linearGradient x1="129.97893" y1="114.6916" x2="129.97893" y2="119.24078" gradientUnits="userSpaceOnUse" id="color-11"><stop offset="0" stop-color="#ffffff"/><stop offset="1" stop-color="#000000"/></linearGradient><linearGradient x1="196.95189" y1="89.04723" x2="201.848" y2="101.24322" gradientUnits="userSpaceOnUse" id="color-12"><stop offset="0" stop-color="#000000"/><stop offset="1" stop-color="#000000" stop-opacity="0"/></linearGradient><linearGradient x1="199.50261" y1="102.18478" x2="201.47989" y2="107.11009" gradientUnits="userSpaceOnUse" id="color-13"><stop offset="0" stop-color="#000000"/><stop offset="1" stop-color="#000000" stop-opacity="0"/></linearGradient><linearGradient x1="206.86746" y1="99.50049" x2="210.16292" y2="107.70934" gradientUnits="userSpaceOnUse" id="color-14"><stop offset="0" stop-color="#000000"/><stop offset="1" stop-color="#000000" stop-opacity="0"/></linearGradient><linearGradient x1="206.45921" y1="92.03893" x2="208.90727" y2="98.13693" gradientUnits="userSpaceOnUse" id="color-15"><stop offset="0" stop-color="#000000"/><stop offset="1" stop-color="#000000" stop-opacity="0"/></linearGradient><linearGradient x1="211.31102" y1="128.83827" x2="223.61111" y2="152.94756" gradientUnits="userSpaceOnUse" id="color-16"><stop offset="0" stop-color="#636363"/><stop offset="1" stop-color="#000000"/></linearGradient></defs><g transform="translate(-107.12552,-77.63658)"><g data-paper-data="{&quot;isPaintingLayer&quot;:true}" fill-rule="nonzero" stroke="none" stroke-width="0" stroke-linecap="butt" stroke-linejoin="miter" stroke-miterlimit="10" stroke-dasharray="" stroke-dashoffset="0" style="mix-blend-mode: normal"><path d="M170.77899,140.60732l24.03957,11.20458l-42.07001,26.9551l-23.63529,25.25365l-21.98774,-3.4504l1.54917,-15.54735z" fill="url(#color-1)"/><path d="M255.64961,172.31214l-17.031,-22.74718l29.37091,2.25024l20.78876,-6.50448l20.75626,-7.92238l-11.90056,16.2144l-16.86504,12.87456z" fill="url(#color-2)"/><path d="M277.5518,233.46457l-7.32134,-2.32508l-12.42962,-19.29807l-31.10636,-8.36099l-13.54786,-18.33172l7.10715,-17.54504l13.99239,-3.69808l10.40389,1.3748l17.37707,7.65711l9.23317,15.04981l-0.5612,10.05154l5.9887,4.68798l7.24104,19.96527z" fill="url(#color-3)"/><path d="M162.8393,188.0481l-12.37561,-22.70834l-1.87956,-11.17003l3.49351,-10.86828l33.82454,-16.33609l26.18752,14.64899l36.09771,8.29479l4.38309,25.51837l-40.69407,19.27196z" fill="url(#color-4)"/><path d="M286.88692,223.32386l-8.20769,-0.46466l-15.5114,-21.72809l-16.84405,2.91117l-16.80649,-7.05752l-18.63261,-17.54139l2.58021,-20.74915l13.87652,-7.93677l11.49402,-1.50012l20.72674,3.21498l14.1448,13.42627l-0.07943,12.56259l10.07476,5.6418l11.23845,26.94195z" fill="url(#color-5)"/><path d="M156.20267,109.10686l-7.08927,-13.22506l8.45555,-17.55411l18.65591,-0.69111l11.24056,7.87051l-5.99177,22.26761z" fill="url(#color-6)"/><path d="M123.43528,138.47344l-2.33878,-15.64088l4.40682,-9.04787l8.88469,-1.90495l-0.13414,-13.69188l8.80602,-10.76849l22.22896,-6.40871l21.44754,5.06438l12.03414,20.67641l-9.43054,24.13207l-11.03699,7.37619l-17.89381,7.96686l-14.19096,-0.68581z" fill="url(#color-7)"/><path d="M132.73942,112.54468l-3.21914,7.81636l-8.44213,2.65878l3.58416,-8.83465z" data-paper-data="{&quot;index&quot;:null}" fill="#000000"/><path d="M138.77252,119.05886l-4.40602,-11.10506l11.86917,-6.807l12.08187,7.30586l-4.85879,10.26028z" data-paper-data="{&quot;index&quot;:null}" fill="url(#color-8)"/><path d="M188.65449,116.76568l-19.74266,-19.62942l9.66095,-12.01602l23.29792,-4.35456l14.70444,14.73538l-2.26521,16.80848z" data-paper-data="{&quot;index&quot;:null}" fill="url(#color-9)"/><path d="M133.97649,183.48419l29.72946,-32.38443l18.50643,2.22317l-32.13759,55.05735l-9.87874,13.43942l-15.67138,-1.70947l-5.98185,-19.71868z" fill="url(#color-10)"/><path d="M123.72381,119.24078l0.7582,-4.54918l6.18444,-0.60118l-2.36134,3.34683z" fill="url(#color-11)"/><path d="M195.10892,97.68489l1.96025,-8.68474l6.4335,3.13635l-2.00647,9.24797z" data-paper-data="{&quot;index&quot;:null}" fill="url(#color-12)"/><path d="M198.54816,108.28704l0.13357,-5.77271l5.72988,3.41882z" fill="url(#color-13)"/><path d="M206.10473,108.79384l-1.79066,-5.81723l4.51638,-0.40412l1.90691,-4.62556l1.7438,5.86422l-1.73187,3.6628z" fill="url(#color-14)"/><path d="M205.85827,99.36096l2.00817,-7.88695l3.43073,3.79715z" fill="url(#color-15)"/><path d="M207.14103,145.9005l-7.88465,-10.91219l17.69403,6.71493l18.71535,5.09428l-13.49352,3.42084z" fill="url(#color-16)"/></g></g></svg>