<svg version="1.1" xmlns="http://www.w3.org/2000/svg" xmlns:xlink="http://www.w3.org/1999/xlink" width="109.26232" height="63.58826" viewBox="0,0,109.26232,63.58826"><g transform="translate(-179.75565,-148.20592)"><g data-paper-data="{&quot;isPaintingLayer&quot;:true}" fill="none" fill-rule="nonzero" stroke-opacity="0.70196" stroke="#ff0000" stroke-width="2.5" stroke-linecap="butt" stroke-linejoin="miter" stroke-miterlimit="10" stroke-dasharray="" stroke-dashoffset="0" style="mix-blend-mode: normal"><path d="M212.48427,153.29591c12.95586,0.27546 16.73621,7.24881 23.6413,6.95344c4.89298,-0.12672 5.31764,-4.38914 12.81916,-8.37045c10.5138,-5.58003 22.96074,-0.26277 27.24861,3.36003c4.28787,3.6228 11.85258,10.95406 11.56676,24.91442c-0.26942,13.15945 -6.68393,20.79843 -12.13794,25.33751c-5.52335,4.59677 -18.16253,7.14321 -27.05122,2.85924c-10.74464,-5.17845 -7.78142,-8.30001 -13.77849,-8.34807c-5.99707,-0.04805 -11.79995,7.0741 -21.40472,7.7961c-5.66743,0.42603 -14.30091,-8.21198 -21.28022,-12.00213c-3.98344,-2.16323 -8.77652,-0.38738 -8.77652,-0.38738c0,0 3.40773,-4.50916 8.67792,-6.97657c6.27258,-2.93671 14.87105,-3.91843 19.16101,-3.98729c7.89437,-0.12671 15.08447,4.86652 15.08447,4.86652l-3.89915,-8.87103l4.39579,-8.76078c0,0 -7.08361,5.35142 -15.97438,4.81058c-5.36557,-0.3264 -13.46861,-1.87132 -19.35869,-4.80896c-4.31037,-2.14978 -7.43561,-5.97434 -7.43561,-5.97434c0,0 4.01804,0.93836 7.63894,-1.07711c6.65827,-3.70613 15.54569,-11.44678 20.86298,-11.33373z" data-paper-data="{&quot;index&quot;:null}"/></g></g></svg>