<svg version="1.1" xmlns="http://www.w3.org/2000/svg" xmlns:xlink="http://www.w3.org/1999/xlink" width="426.125" height="240.0861" viewBox="0,0,426.125,240.0861"><g transform="translate(-35.42396,-13.31709)"><g data-paper-data="{&quot;isPaintingLayer&quot;:true}" fill-rule="nonzero" stroke-linecap="butt" stroke-linejoin="miter" stroke-miterlimit="10" stroke-dasharray="" stroke-dashoffset="0" style="mix-blend-mode: normal"><path d="M61.78777,111.54386v-15.09514h15.09514v15.09514z" fill="#d4d4d4" stroke="#000000" stroke-width="1.5"/><path d="M79.5665,111.20841v-15.09514h15.09514v15.09514z" fill="#d4d4d4" stroke="#000000" stroke-width="1.5"/><path d="M61.78777,128.65168v-15.09514h15.09514v15.09514z" fill="#d4d4d4" stroke="#000000" stroke-width="1.5"/><path d="M79.5665,128.31623v-15.09514h15.09514v15.09514z" fill="#ff0000" stroke="#000000" stroke-width="1.5"/><text transform="translate(48.57084,92.23637) scale(0.37669,0.37669)" font-size="40" xml:space="preserve" fill="#000000" fill-rule="nonzero" stroke="none" stroke-width="1" stroke-linecap="butt" stroke-linejoin="miter" stroke-miterlimit="10" stroke-dasharray="" stroke-dashoffset="0" font-family="Sans Serif" font-weight="normal" text-anchor="start" style="mix-blend-mode: normal"><tspan x="0" dy="0">0</tspan><tspan x="0" dy="46.150000000000006px">1</tspan><tspan x="0" dy="46.150000000000006px">2</tspan><tspan x="0" dy="46.150000000000006px">3</tspan><tspan x="0" dy="46.150000000000006px">4</tspan><tspan x="0" dy="46.150000000000006px">5</tspan><tspan x="0" dy="46.150000000000006px">6</tspan><tspan x="0" dy="46.150000000000006px">7</tspan><tspan x="0" dy="46.150000000000006px">8</tspan><tspan x="0" dy="46.150000000000006px">9</tspan></text><path d="M62.39048,145.89833v-15.09514h15.09514v15.09514z" fill="#d4d4d4" stroke="#000000" stroke-width="1.5"/><path d="M80.16921,145.56288v-15.09514h15.09514v15.09514z" fill="#0098da" stroke="#000000" stroke-width="1.5"/><path d="M62.39048,163.00615v-15.09514h15.09514v15.09514z" fill="#ff0000" stroke="#000000" stroke-width="1.5"/><path d="M80.16921,162.67071v-15.09514h15.09514v15.09514z" fill="#d4d4d4" stroke="#000000" stroke-width="1.5"/><path d="M62.39048,180.2528v-15.09514h15.09514v15.09514z" fill="#ff0000" stroke="#000000" stroke-width="1.5"/><path d="M80.16921,179.91735v-15.09514h15.09514v15.09514z" fill="#ff0000" stroke="#000000" stroke-width="1.5"/><path d="M62.39048,197.96333v-15.09514h15.09514v15.09514z" fill="#ff0000" stroke="#000000" stroke-width="1.5"/><path d="M80.16921,197.62789v-15.09514h15.09514v15.09514z" fill="#0098da" stroke="#000000" stroke-width="1.5"/><path d="M62.99319,216.4154v-15.09514h15.09514v15.09514z" fill="#0098da" stroke="#000000" stroke-width="1.5"/><path d="M80.77192,216.07995v-15.09514h15.09514v15.09514z" fill="#d4d4d4" stroke="#000000" stroke-width="1.5"/><path d="M62.99319,233.52323v-15.09514h15.09514v15.09514z" fill="#0098da" stroke="#000000" stroke-width="1.5"/><path d="M80.77192,233.18778v-15.09514h15.09514v15.09514z" fill="#ff0000" stroke="#000000" stroke-width="1.5"/><text transform="translate(35.92396,35.06709) scale(0.5,0.5)" font-size="40" xml:space="preserve" fill="#010101" fill-rule="nonzero" stroke="none" stroke-width="1" stroke-linecap="butt" stroke-linejoin="miter" stroke-miterlimit="10" stroke-dasharray="" stroke-dashoffset="0" font-family="Sans Serif" font-weight="normal" text-anchor="start" style="mix-blend-mode: normal"><tspan x="0" dy="0">I just realized the previous diagram is wrong</tspan><tspan x="0" dy="46.150000000000006px">because it shouldn't be 1 color but 2 colors.</tspan></text><text transform="translate(112.49184,100.41609) scale(0.29634,0.34589)" font-size="40" xml:space="preserve" fill="#000000" fill-rule="nonzero" stroke="none" stroke-width="1" stroke-linecap="butt" stroke-linejoin="miter" stroke-miterlimit="10" stroke-dasharray="" stroke-dashoffset="0" font-family="Sans Serif" font-weight="normal" text-anchor="start" style="mix-blend-mode: normal"><tspan x="0" dy="0">total # of combinations = a^b where</tspan><tspan x="0" dy="46.150000000000006px">a = # of options for 1 tile and b =</tspan><tspan x="0" dy="46.150000000000006px">number of tiles.</tspan><tspan x="0" dy="46.150000000000006px"> </tspan><tspan x="0" dy="46.150000000000006px">3^3 = 27. too much, needs to be 1 digit long to save space</tspan><tspan x="0" dy="46.150000000000006px">3^2 = 9. this is possible.</tspan></text><path d="M63.27659,251.12999v-15.09514h15.09514v15.09514z" fill="#0098da" stroke="#000000" stroke-width="1.5"/><path d="M81.05532,250.79454v-15.09514h15.09514v15.09514z" fill="#0098da" stroke="#000000" stroke-width="1.5"/></g></g></svg>