<svg version="1.1" xmlns="http://www.w3.org/2000/svg" xmlns:xlink="http://www.w3.org/1999/xlink" width="454.70112" height="282.38821" viewBox="0,0,454.70112,282.38821"><defs><radialGradient cx="70.0756" cy="260.33034" r="45.39594" gradientUnits="userSpaceOnUse" id="color-1"><stop offset="0" stop-color="#5e5e5e"/><stop offset="1" stop-color="#363635"/></radialGradient><radialGradient cx="160.5756" cy="260.33034" r="45.39593" gradientUnits="userSpaceOnUse" id="color-2"><stop offset="0" stop-color="#5e5e5e"/><stop offset="1" stop-color="#363635"/></radialGradient><radialGradient cx="70.0756" cy="192.33035" r="45.39594" gradientUnits="userSpaceOnUse" id="color-3"><stop offset="0" stop-color="#5e5e5e"/><stop offset="1" stop-color="#363635"/></radialGradient><radialGradient cx="160.5756" cy="192.33035" r="45.39593" gradientUnits="userSpaceOnUse" id="color-4"><stop offset="0" stop-color="#5e5e5e"/><stop offset="1" stop-color="#363635"/></radialGradient><radialGradient cx="70.0756" cy="125.33035" r="45.39594" gradientUnits="userSpaceOnUse" id="color-5"><stop offset="0" stop-color="#5e5e5e"/><stop offset="1" stop-color="#363635"/></radialGradient><radialGradient cx="160.5756" cy="125.33035" r="45.39593" gradientUnits="userSpaceOnUse" id="color-6"><stop offset="0" stop-color="#5e5e5e"/><stop offset="1" stop-color="#363635"/></radialGradient><radialGradient cx="70.0756" cy="57.33033" r="45.39594" gradientUnits="userSpaceOnUse" id="color-7"><stop offset="0" stop-color="#5e5e5e"/><stop offset="1" stop-color="#363635"/></radialGradient><radialGradient cx="160.5756" cy="57.33033" r="45.39593" gradientUnits="userSpaceOnUse" id="color-8"><stop offset="0" stop-color="#5e5e5e"/><stop offset="1" stop-color="#363635"/></radialGradient><radialGradient cx="251.0756" cy="260.33034" r="45.39594" gradientUnits="userSpaceOnUse" id="color-9"><stop offset="0" stop-color="#5e5e5e"/><stop offset="1" stop-color="#363635"/></radialGradient><radialGradient cx="341.5756" cy="260.33034" r="45.39594" gradientUnits="userSpaceOnUse" id="color-10"><stop offset="0" stop-color="#5e5e5e"/><stop offset="1" stop-color="#363635"/></radialGradient><radialGradient cx="251.0756" cy="192.33035" r="45.39594" gradientUnits="userSpaceOnUse" id="color-11"><stop offset="0" stop-color="#5e5e5e"/><stop offset="1" stop-color="#363635"/></radialGradient><radialGradient cx="341.5756" cy="192.33035" r="45.39594" gradientUnits="userSpaceOnUse" id="color-12"><stop offset="0" stop-color="#5e5e5e"/><stop offset="1" stop-color="#363635"/></radialGradient><radialGradient cx="251.0756" cy="125.33035" r="45.39594" gradientUnits="userSpaceOnUse" id="color-13"><stop offset="0" stop-color="#5e5e5e"/><stop offset="1" stop-color="#363635"/></radialGradient><radialGradient cx="341.5756" cy="125.33035" r="45.39594" gradientUnits="userSpaceOnUse" id="color-14"><stop offset="0" stop-color="#5e5e5e"/><stop offset="1" stop-color="#363635"/></radialGradient><radialGradient cx="251.0756" cy="57.33033" r="45.39594" gradientUnits="userSpaceOnUse" id="color-15"><stop offset="0" stop-color="#5e5e5e"/><stop offset="1" stop-color="#363635"/></radialGradient><radialGradient cx="431.5756" cy="260.33034" r="45.39594" gradientUnits="userSpaceOnUse" id="color-16"><stop offset="0" stop-color="#5e5e5e"/><stop offset="1" stop-color="#363635"/></radialGradient><radialGradient cx="431.5756" cy="192.33035" r="45.39594" gradientUnits="userSpaceOnUse" id="color-17"><stop offset="0" stop-color="#5e5e5e"/><stop offset="1" stop-color="#363635"/></radialGradient><radialGradient cx="431.5756" cy="125.33035" r="45.39594" gradientUnits="userSpaceOnUse" id="color-18"><stop offset="0" stop-color="#5e5e5e"/><stop offset="1" stop-color="#363635"/></radialGradient><radialGradient cx="431.5756" cy="57.33033" r="45.39594" gradientUnits="userSpaceOnUse" id="color-19"><stop offset="0" stop-color="#5e5e5e"/><stop offset="1" stop-color="#363635"/></radialGradient><linearGradient x1="24.99685" y1="260.33034" x2="40.15435" y2="260.33034" gradientUnits="userSpaceOnUse" id="color-20"><stop offset="0" stop-color="#bbbab2"/><stop offset="1" stop-color="#f4f3e8"/></linearGradient><linearGradient x1="70.07559" y1="301.67346" x2="70.07559" y2="286.51595" gradientUnits="userSpaceOnUse" id="color-21"><stop offset="0" stop-color="#bbbab2"/><stop offset="1" stop-color="#f4f3e8"/></linearGradient><radialGradient cx="70.07559" cy="260.33034" r="14.60186" gradientUnits="userSpaceOnUse" id="color-22"><stop offset="0" stop-color="#ffffff"/><stop offset="1" stop-color="#ff7b00"/></radialGradient><linearGradient x1="70.07559" y1="209.67347" x2="70.07559" y2="194.51596" gradientUnits="userSpaceOnUse" id="color-23"><stop offset="0" stop-color="#bbbab2"/><stop offset="1" stop-color="#f4f3e8"/></linearGradient><linearGradient x1="160.57558" y1="300.17346" x2="160.57558" y2="285.01595" gradientUnits="userSpaceOnUse" id="color-24"><stop offset="0" stop-color="#bbbab2"/><stop offset="1" stop-color="#f4f3e8"/></linearGradient><linearGradient x1="160.07558" y1="225.67347" x2="160.07558" y2="210.51596" gradientUnits="userSpaceOnUse" id="color-25"><stop offset="0" stop-color="#bbbab2"/><stop offset="1" stop-color="#f4f3e8"/></linearGradient><linearGradient x1="249.07559" y1="298.17346" x2="249.07559" y2="283.01595" gradientUnits="userSpaceOnUse" id="color-26"><stop offset="0" stop-color="#bbbab2"/><stop offset="1" stop-color="#f4f3e8"/></linearGradient><linearGradient x1="279.49685" y1="251.33035" x2="294.65434" y2="251.33035" gradientUnits="userSpaceOnUse" id="color-27"><stop offset="0" stop-color="#bbbab2"/><stop offset="1" stop-color="#f4f3e8"/></linearGradient><linearGradient x1="281.49685" y1="181.83035" x2="296.65434" y2="181.83035" gradientUnits="userSpaceOnUse" id="color-28"><stop offset="0" stop-color="#bbbab2"/><stop offset="1" stop-color="#f4f3e8"/></linearGradient><linearGradient x1="250.07559" y1="148.67344" x2="250.07559" y2="133.51594" gradientUnits="userSpaceOnUse" id="color-29"><stop offset="0" stop-color="#bbbab2"/><stop offset="1" stop-color="#f4f3e8"/></linearGradient><linearGradient x1="159.07558" y1="148.17344" x2="159.07558" y2="133.01594" gradientUnits="userSpaceOnUse" id="color-30"><stop offset="0" stop-color="#bbbab2"/><stop offset="1" stop-color="#f4f3e8"/></linearGradient><linearGradient x1="164.07558" y1="38.17345" x2="164.07558" y2="23.01594" gradientUnits="userSpaceOnUse" id="color-31"><stop offset="0" stop-color="#bbbab2"/><stop offset="1" stop-color="#f4f3e8"/></linearGradient><linearGradient x1="24.99685" y1="140.83035" x2="40.15435" y2="140.83035" gradientUnits="userSpaceOnUse" id="color-32"><stop offset="0" stop-color="#bbbab2"/><stop offset="1" stop-color="#f4f3e8"/></linearGradient><linearGradient x1="25.99685" y1="72.83033" x2="41.15435" y2="72.83033" gradientUnits="userSpaceOnUse" id="color-33"><stop offset="0" stop-color="#bbbab2"/><stop offset="1" stop-color="#f4f3e8"/></linearGradient><linearGradient x1="72.57559" y1="38.67345" x2="72.57559" y2="23.51594" gradientUnits="userSpaceOnUse" id="color-34"><stop offset="0" stop-color="#bbbab2"/><stop offset="1" stop-color="#f4f3e8"/></linearGradient><linearGradient x1="254.57559" y1="38.67345" x2="254.57559" y2="23.51594" gradientUnits="userSpaceOnUse" id="color-35"><stop offset="0" stop-color="#bbbab2"/><stop offset="1" stop-color="#f4f3e8"/></linearGradient><linearGradient x1="340.07559" y1="298.17346" x2="340.07559" y2="283.01595" gradientUnits="userSpaceOnUse" id="color-36"><stop offset="0" stop-color="#bbbab2"/><stop offset="1" stop-color="#f4f3e8"/></linearGradient><linearGradient x1="433.07559" y1="297.17346" x2="433.07559" y2="282.01595" gradientUnits="userSpaceOnUse" id="color-37"><stop offset="0" stop-color="#bbbab2"/><stop offset="1" stop-color="#f4f3e8"/></linearGradient><linearGradient x1="377.49685" y1="191.33035" x2="392.65435" y2="191.33035" gradientUnits="userSpaceOnUse" id="color-38"><stop offset="0" stop-color="#bbbab2"/><stop offset="1" stop-color="#f4f3e8"/></linearGradient><linearGradient x1="378.49685" y1="121.33035" x2="393.65435" y2="121.33035" gradientUnits="userSpaceOnUse" id="color-39"><stop offset="0" stop-color="#bbbab2"/><stop offset="1" stop-color="#f4f3e8"/></linearGradient><linearGradient x1="377.49685" y1="54.33033" x2="392.65435" y2="54.33033" gradientUnits="userSpaceOnUse" id="color-40"><stop offset="0" stop-color="#bbbab2"/><stop offset="1" stop-color="#f4f3e8"/></linearGradient><radialGradient cx="426.07559" cy="52.33034" r="14.60186" gradientUnits="userSpaceOnUse" id="color-41"><stop offset="0" stop-color="#ffffff"/><stop offset="1" stop-color="#ff7b00"/></radialGradient></defs><g transform="translate(-24.17966,-19.88986)"><g data-paper-data="{&quot;isPaintingLayer&quot;:true}" fill-rule="nonzero" stroke-linejoin="miter" stroke-miterlimit="10" stroke-dasharray="" stroke-dashoffset="0" style="mix-blend-mode: normal"><g stroke="#000000" stroke-width="1" stroke-linecap="butt"><path d="M24.67966,294.33007v-67.99946h90.79187v67.99946z" fill="url(#color-1)"/><path d="M115.17966,294.33007v-67.99946h90.79187v67.99946z" fill="url(#color-2)"/><path d="M24.67966,226.33008v-67.99946h90.79187v67.99946z" fill="url(#color-3)"/><path d="M115.17966,226.33008v-67.99946h90.79187v67.99946z" fill="url(#color-4)"/><path d="M24.67966,159.33006v-67.99946h90.79187v67.99946z" fill="url(#color-5)"/><path d="M115.17966,159.33006v-67.99946h90.79187v67.99946z" fill="url(#color-6)"/><path d="M24.67966,91.33006v-67.99946h90.79187v67.99946z" fill="url(#color-7)"/><path d="M115.17966,91.33006v-67.99946h90.79187v67.99946z" fill="url(#color-8)"/><path d="M205.67966,294.33007v-67.99946h90.79186v67.99946z" fill="url(#color-9)"/><path d="M296.17966,294.33007v-67.99946h90.79186v67.99946z" fill="url(#color-10)"/><path d="M205.67966,226.33008v-67.99946h90.79186v67.99946z" fill="url(#color-11)"/><path d="M296.17966,226.33008v-67.99946h90.79186v67.99946z" fill="url(#color-12)"/><path d="M205.67966,159.33006v-67.99946h90.79186v67.99946z" fill="url(#color-13)"/><path d="M296.17966,159.33006v-67.99946h90.79186v67.99946z" fill="url(#color-14)"/><path d="M205.67966,91.33006v-67.99946h90.79186v67.99946z" fill="url(#color-15)"/><path d="M386.17966,294.33007v-67.99946h90.79186v67.99946z" fill="url(#color-16)"/><path d="M386.17966,226.33008v-67.99946h90.79186v67.99946z" fill="url(#color-17)"/><path d="M386.17966,159.33006v-67.99946h90.79186v67.99946z" fill="url(#color-18)"/><path d="M386.17966,91.33006v-67.99946h90.79186v67.99946z" fill="url(#color-19)"/></g><path d="M24.99685,294.33007l0.20597,-12.8277l-0.81057,-11.5242l1.1989,-3.02047l-1.03761,-9.43674l1.38774,-15.12312l-0.94443,-16.06723l1.46264,0.72886l1.25882,-0.88878l4.77877,-0.28082l7.65727,0.44074l0.09638,2.67222l-0.70387,1.87338l0.94546,7.55472l-0.73168,11.33342l0.79574,4.91147l-0.64657,11.51372l-0.68286,7.00504l2.06072,8.30295l-1.13332,12.83254l-7.34246,-0.37777l-4.01969,0.47355z" fill="url(#color-20)" stroke="#000000" stroke-width="0" stroke-linecap="butt"/><path d="M115.503,301.67346l-11.38269,0.56365l-12.87269,-0.76962l-11.5242,0.81058l-3.02048,-1.19891l-9.43674,1.03761l-15.12311,-1.38774l-13.18024,1.32219l-14.31467,-0.37775l0.37777,-5.8598l-0.81531,-3.77596l0.43754,-5.52175l7.51002,-0.71632l6.58989,0.61993l1.87338,0.70387l7.55473,-0.94547l11.33341,0.73169l4.91147,-0.79574l11.51372,0.64657l7.00504,0.68286l8.30295,-2.06071l13.35423,0.47026l3.11653,0.67318l3.87019,-0.85501l3.91928,0.8449l0.37777,7.9755z" fill="url(#color-21)" stroke="#000000" stroke-width="0" stroke-linecap="butt"/><g stroke-width="0" stroke-linecap="butt"><path d="M54.71578,275.69014c-8.48298,-8.48298 -8.48298,-22.23663 0,-30.71962c8.48298,-8.48299 22.23663,-8.48299 30.71961,0c8.48298,8.48299 8.48298,22.23664 0,30.71962c-8.48298,8.48298 -22.23663,8.48298 -30.71961,0z" fill="#000000" stroke="none"/><path d="M70.07559,274.93219c-8.06438,0 -14.60186,-6.53747 -14.60186,-14.60185c0,-8.06438 6.53748,-14.60185 14.60186,-14.60185c8.06438,0 14.60186,6.53747 14.60186,14.60185c0,8.06438 -6.53748,14.60186 -14.60185,14.60186z" fill="url(#color-22)" stroke="#000000"/></g><path d="M127.07559,214.91893v-75.17718" fill="none" stroke="#ffffff" stroke-width="2.5" stroke-linecap="round"/><path d="M38.487,135.33035h75.17718" fill="none" stroke="#ffffff" stroke-width="2.5" stroke-linecap="round"/><path d="M109.5,261.50001c0,-3.31371 2.68629,-6 6,-6c3.31371,0 6,2.68629 6,6c0,3.31371 -2.68629,6 -6,6c-3.31371,0 -6,-2.68629 -6,-6z" fill="#00ff0a" stroke="none" stroke-width="0" stroke-linecap="butt"/><path d="M151,239.00002c0,-3.31371 2.68629,-6 6,-6c3.31371,0 6,2.68629 6,6c0,3.31371 -2.68629,6 -6,6c-3.31371,0 -6,-2.68629 -6,-6z" fill="#00ff0a" stroke="none" stroke-width="0" stroke-linecap="butt"/><path d="M115.503,209.67347l-11.38269,0.56365l-12.87269,-0.76962l-11.5242,0.81058l-3.02048,-1.1989l-9.43674,1.03761l-15.12311,-1.38774l-13.18024,1.32219l-14.31467,-0.37776l0.37777,-5.85979l-0.81531,-3.77596l0.43754,-5.52175l7.51002,-0.71632l6.58989,0.61993l1.87338,0.70387l7.55473,-0.94546l11.33341,0.73168l4.91147,-0.79574l11.51372,0.64657l7.00504,0.68286l8.30295,-2.06071l13.35423,0.47026l3.11653,0.67318l3.87019,-0.85502l3.91928,0.8449l0.37777,7.9755z" fill="url(#color-23)" stroke="#000000" stroke-width="0" stroke-linecap="butt"/><path d="M206.003,300.17346l-11.38269,0.56365l-12.87268,-0.76962l-11.5242,0.81058l-3.02048,-1.19891l-9.43674,1.03761l-15.12312,-1.38774l-13.18025,1.32219l-14.31467,-0.37775l0.37777,-5.8598l-0.81531,-3.77596l0.43753,-5.52175l7.51002,-0.71632l6.58989,0.61993l1.87338,0.70387l7.55473,-0.94547l11.33342,0.73169l4.91147,-0.79574l11.51372,0.64657l7.00504,0.68286l8.30295,-2.06071l13.35422,0.47026l3.11653,0.67318l3.87019,-0.85501l3.91928,0.8449l0.37777,7.9755z" fill="url(#color-24)" stroke="#000000" stroke-width="0" stroke-linecap="butt"/><path d="M205.503,225.67347l-11.38269,0.56365l-12.87268,-0.76962l-11.5242,0.81058l-3.02048,-1.1989l-9.43674,1.03761l-15.12312,-1.38774l-13.18025,1.32219l-14.31467,-0.37776l0.37777,-5.85979l-0.81531,-3.77596l0.43753,-5.52175l7.51002,-0.71632l6.58989,0.61993l1.87338,0.70387l7.55473,-0.94546l11.33342,0.73168l4.91147,-0.79574l11.51372,0.64657l7.00504,0.68286l8.30295,-2.06071l13.35422,0.47026l3.11653,0.67318l3.87019,-0.85502l3.91928,0.8449l0.37777,7.9755z" fill="url(#color-25)" stroke="#000000" stroke-width="0" stroke-linecap="butt"/><path d="M294.503,298.17346l-11.3827,0.56365l-12.87268,-0.76962l-11.5242,0.81058l-3.02047,-1.19891l-9.43674,1.03761l-15.12312,-1.38774l-13.18025,1.32219l-14.31467,-0.37775l0.37778,-5.8598l-0.81531,-3.77596l0.43753,-5.52175l7.51002,-0.71632l6.58989,0.61993l1.87338,0.70387l7.55473,-0.94547l11.33342,0.73169l4.91147,-0.79574l11.51372,0.64657l7.00504,0.68286l8.30295,-2.06071l13.35423,0.47026l3.11653,0.67318l3.87019,-0.85501l3.91928,0.8449l0.37777,7.9755z" fill="url(#color-26)" stroke="#000000" stroke-width="0" stroke-linecap="butt"/><path d="M279.49685,285.33007l0.20597,-12.8277l-0.81057,-11.5242l1.19891,-3.02047l-1.03761,-9.43674l1.38774,-15.12312l-0.94443,-16.06723l1.46264,0.72886l1.25882,-0.88878l4.77877,-0.28082l7.65727,0.44074l0.09638,2.67222l-0.70386,1.87338l0.94546,7.55472l-0.73168,11.33342l0.79574,4.91147l-0.64657,11.51372l-0.68286,7.00504l2.06072,8.30295l-1.13333,12.83254l-7.34246,-0.37777l-4.01969,0.47355z" fill="url(#color-27)" stroke="#000000" stroke-width="0" stroke-linecap="butt"/><path d="M281.49685,215.83008l0.20597,-12.8277l-0.81057,-11.5242l1.19891,-3.02047l-1.03761,-9.43674l1.38774,-15.12312l-0.94443,-16.06723l1.46264,0.72886l1.25882,-0.88878l4.77877,-0.28082l7.65727,0.44074l0.09638,2.67222l-0.70386,1.87338l0.94546,7.55472l-0.73168,11.33342l0.79574,4.91147l-0.64657,11.51372l-0.68286,7.00504l2.06072,8.30295l-1.13333,12.83254l-7.34246,-0.37778l-4.01969,0.47355z" fill="url(#color-28)" stroke="#000000" stroke-width="0" stroke-linecap="butt"/><path d="M198.5,272.50001c0,-3.31371 2.68629,-6 6,-6c3.31371,0 6,2.68629 6,6c0,3.31371 -2.68629,6 -6,6c-3.31371,0 -6,-2.68629 -6,-6z" fill="#00ff0a" stroke="none" stroke-width="0" stroke-linecap="butt"/><path d="M238,219.50002c0,-3.31371 2.68629,-6 6,-6c3.31371,0 6,2.68629 6,6c0,3.31371 -2.68629,6 -6,6c-3.31371,0 -6,-2.68629 -6,-6z" fill="#00ff0a" stroke="none" stroke-width="0" stroke-linecap="butt"/><path d="M214,170.00002c0,-3.31371 2.68629,-6 6,-6c3.31371,0 6,2.68629 6,6c0,3.31371 -2.68629,6 -6,6c-3.31371,0 -6,-2.68629 -6,-6z" fill="#00ff0a" stroke="none" stroke-width="0" stroke-linecap="butt"/><path d="M295.503,148.67344l-11.3827,0.56365l-12.87268,-0.76962l-11.5242,0.81058l-3.02047,-1.1989l-9.43674,1.03761l-15.12312,-1.38774l-13.18025,1.32219l-14.31467,-0.37776l0.37778,-5.85979l-0.81531,-3.77596l0.43753,-5.52175l7.51002,-0.71632l6.58989,0.61993l1.87338,0.70387l7.55473,-0.94546l11.33342,0.73168l4.91147,-0.79574l11.51372,0.64657l7.00504,0.68286l8.30295,-2.06071l13.35423,0.47026l3.11653,0.67318l3.87019,-0.85502l3.91928,0.8449l0.37777,7.9755z" fill="url(#color-29)" stroke="#000000" stroke-width="0" stroke-linecap="butt"/><path d="M204.503,148.17344l-11.38269,0.56365l-12.87268,-0.76962l-11.5242,0.81058l-3.02048,-1.1989l-9.43674,1.03761l-15.12312,-1.38774l-13.18024,1.32219l-14.31468,-0.37776l0.37777,-5.85979l-0.81531,-3.77596l0.43753,-5.52175l7.51002,-0.71632l6.58989,0.61993l1.87338,0.70387l7.55473,-0.94546l11.33342,0.73168l4.91147,-0.79574l11.51372,0.64657l7.00504,0.68286l8.30295,-2.06071l13.35422,0.47026l3.11653,0.67318l3.87019,-0.85502l3.91928,0.8449l0.37777,7.9755z" fill="url(#color-30)" stroke="#000000" stroke-width="0" stroke-linecap="butt"/><path d="M209.503,38.17345l-11.38269,0.56365l-12.87268,-0.76962l-11.5242,0.81058l-3.02048,-1.1989l-9.43674,1.03761l-15.12312,-1.38774l-13.18025,1.32219l-14.31467,-0.37776l0.37777,-5.85979l-0.81531,-3.77597l0.43753,-5.52174l7.51002,-0.71632l6.58989,0.61994l1.87338,0.70387l7.55473,-0.94547l11.33342,0.73169l4.91147,-0.79574l11.51372,0.64657l7.00504,0.68286l8.30295,-2.06071l13.35422,0.47026l3.11653,0.67318l3.87019,-0.85501l3.91928,0.8449l0.37777,7.9755z" fill="url(#color-31)" stroke="#000000" stroke-width="0" stroke-linecap="butt"/><path d="M24.99685,174.83008l0.20597,-12.8277l-0.81057,-11.5242l1.1989,-3.02047l-1.03761,-9.43674l1.38774,-15.12312l-0.94443,-16.06723l1.46264,0.72886l1.25882,-0.88878l4.77877,-0.28082l7.65727,0.44074l0.09638,2.67221l-0.70387,1.87338l0.94546,7.55473l-0.73168,11.33342l0.79574,4.91147l-0.64657,11.51372l-0.68286,7.00504l2.06072,8.30295l-1.13332,12.83254l-7.34246,-0.37778l-4.01969,0.47355z" fill="url(#color-32)" stroke="#000000" stroke-width="0" stroke-linecap="butt"/><path d="M25.99685,106.83006l0.20597,-12.8277l-0.81057,-11.5242l1.1989,-3.02047l-1.03761,-9.43674l1.38774,-15.12312l-0.94443,-16.06723l1.46264,0.72886l1.25882,-0.88879l4.77877,-0.28081l7.65727,0.44074l0.09638,2.67222l-0.70387,1.87338l0.94546,7.55473l-0.73168,11.33341l0.79574,4.91147l-0.64657,11.51372l-0.68286,7.00504l2.06072,8.30295l-1.13332,12.83254l-7.34246,-0.37777l-4.01969,0.47355z" fill="url(#color-33)" stroke="#000000" stroke-width="0" stroke-linecap="butt"/><path d="M118.003,38.67345l-11.38269,0.56365l-12.87269,-0.76962l-11.5242,0.81058l-3.02048,-1.1989l-9.43674,1.03761l-15.12311,-1.38774l-13.18024,1.32219l-14.31467,-0.37776l0.37777,-5.85979l-0.81531,-3.77597l0.43754,-5.52174l7.51002,-0.71632l6.58989,0.61994l1.87338,0.70387l7.55473,-0.94547l11.33341,0.73169l4.91147,-0.79574l11.51372,0.64657l7.00504,0.68286l8.30295,-2.06071l13.35423,0.47026l3.11653,0.67318l3.87019,-0.85501l3.91928,0.8449l0.37777,7.9755z" fill="url(#color-34)" stroke="#000000" stroke-width="0" stroke-linecap="butt"/><path d="M85.5,75.25c0,-15.87819 12.87181,-28.75 28.75,-28.75c15.87819,0 28.75,12.87181 28.75,28.75c0,15.87819 -12.87181,28.75 -28.75,28.75c-15.87819,0 -28.75,-12.87181 -28.75,-28.75z" fill="#0084ff" stroke="none" stroke-width="0" stroke-linecap="butt"/><path d="M119,101.25c0,-15.87819 12.87181,-28.75 28.75,-28.75c15.87819,0 28.75,12.87181 28.75,28.75c0,15.87819 -12.87181,28.75 -28.75,28.75c-15.87819,0 -28.75,-12.87181 -28.75,-28.75z" fill="#0084ff" stroke="none" stroke-width="0" stroke-linecap="butt"/><path d="M130.5,72.75c0,-15.87819 12.87181,-28.75 28.75,-28.75c15.87819,0 28.75,12.87181 28.75,28.75c0,15.87819 -12.87181,28.75 -28.75,28.75c-15.87819,0 -28.75,-12.87181 -28.75,-28.75z" fill="#0084ff" stroke="none" stroke-width="0" stroke-linecap="butt"/><path d="M156.5,91.25c0,-15.87819 12.87181,-28.75 28.75,-28.75c15.87819,0 28.75,12.87181 28.75,28.75c0,15.87819 -12.87181,28.75 -28.75,28.75c-15.87819,0 -28.75,-12.87181 -28.75,-28.75z" fill="#0084ff" stroke="none" stroke-width="0" stroke-linecap="butt"/><path d="M196.5,71.25c0,-15.87819 12.87181,-28.75 28.75,-28.75c15.87819,0 28.75,12.87181 28.75,28.75c0,15.87819 -12.87181,28.75 -28.75,28.75c-15.87819,0 -28.75,-12.87181 -28.75,-28.75z" fill="#0084ff" stroke="none" stroke-width="0" stroke-linecap="butt"/><path d="M227.5,97.25c0,-15.87819 12.87181,-28.75 28.75,-28.75c15.87818,0 28.75,12.87181 28.75,28.75c0,15.87819 -12.87182,28.75 -28.75,28.75c-15.87819,0 -28.75,-12.87181 -28.75,-28.75z" fill="#0084ff" stroke="none" stroke-width="0" stroke-linecap="butt"/><path d="M300.003,38.67345l-11.3827,0.56365l-12.87268,-0.76962l-11.5242,0.81058l-3.02047,-1.1989l-9.43674,1.03761l-15.12312,-1.38774l-13.18025,1.32219l-14.31467,-0.37776l0.37778,-5.85979l-0.81531,-3.77597l0.43753,-5.52174l7.51002,-0.71632l6.58989,0.61994l1.87338,0.70387l7.55473,-0.94547l11.33342,0.73169l4.91147,-0.79574l11.51372,0.64657l7.00504,0.68286l8.30295,-2.06071l13.35423,0.47026l3.11653,0.67318l3.87019,-0.85501l3.91928,0.8449l0.37777,7.9755z" fill="url(#color-35)" stroke="#000000" stroke-width="0" stroke-linecap="butt"/><path d="M155,180.00002c0,-3.31371 2.68629,-6 6,-6c3.31371,0 6,2.68629 6,6c0,3.31371 -2.68629,6 -6,6c-3.31371,0 -6,-2.68629 -6,-6z" fill="#00ff0a" stroke="none" stroke-width="0" stroke-linecap="butt"/><path d="M385.503,298.17346l-11.3827,0.56365l-12.87268,-0.76962l-11.5242,0.81058l-3.02047,-1.19891l-9.43674,1.03761l-15.12311,-1.38774l-13.18025,1.32219l-14.31468,-0.37775l0.37777,-5.8598l-0.81531,-3.77596l0.43753,-5.52175l7.51002,-0.71632l6.58989,0.61993l1.87338,0.70387l7.55473,-0.94547l11.33342,0.73169l4.91147,-0.79574l11.51372,0.64657l7.00504,0.68286l8.30295,-2.06071l13.35423,0.47026l3.11653,0.67318l3.87019,-0.85501l3.91928,0.8449l0.37777,7.9755z" fill="url(#color-36)" stroke="#000000" stroke-width="0" stroke-linecap="butt"/><path d="M478.503,297.17346l-11.3827,0.56365l-12.87268,-0.76962l-11.5242,0.81058l-3.02047,-1.19891l-9.43674,1.03761l-15.12312,-1.38774l-13.18024,1.32219l-14.31468,-0.37775l0.37777,-5.8598l-0.81531,-3.77596l0.43753,-5.52175l7.51002,-0.71632l6.58989,0.61993l1.87338,0.70387l7.55473,-0.94547l11.33342,0.73169l4.91147,-0.79574l11.51372,0.64657l7.00504,0.68286l8.30295,-2.06071l13.35423,0.47026l3.11653,0.67318l3.87019,-0.85501l3.91928,0.8449l0.37777,7.9755z" fill="url(#color-37)" stroke="#000000" stroke-width="0" stroke-linecap="butt"/><path d="M377.49685,225.33008l0.20597,-12.8277l-0.81057,-11.5242l1.19891,-3.02047l-1.03761,-9.43674l1.38774,-15.12312l-0.94443,-16.06723l1.46264,0.72886l1.25882,-0.88878l4.77877,-0.28082l7.65727,0.44074l0.09638,2.67222l-0.70386,1.87338l0.94546,7.55472l-0.73168,11.33342l0.79574,4.91147l-0.64657,11.51372l-0.68286,7.00504l2.06072,8.30295l-1.13333,12.83254l-7.34246,-0.37777l-4.01969,0.47355z" fill="url(#color-38)" stroke="#000000" stroke-width="0" stroke-linecap="butt"/><path d="M378.49685,155.33006l0.20597,-12.8277l-0.81057,-11.5242l1.19891,-3.02047l-1.03761,-9.43674l1.38774,-15.12312l-0.94443,-16.06723l1.46264,0.72886l1.25882,-0.88878l4.77877,-0.28082l7.65727,0.44074l0.09638,2.67222l-0.70386,1.87338l0.94546,7.55472l-0.73168,11.33342l0.79574,4.91147l-0.64657,11.51372l-0.68286,7.00504l2.06072,8.30295l-1.13333,12.83254l-7.34246,-0.37778l-4.01969,0.47355z" fill="url(#color-39)" stroke="#000000" stroke-width="0" stroke-linecap="butt"/><path d="M377.49685,88.33006l0.20597,-12.8277l-0.81057,-11.5242l1.19891,-3.02047l-1.03761,-9.43674l1.38774,-15.12312l-0.94443,-16.06723l1.46264,0.72886l1.25882,-0.88878l4.77877,-0.28082l7.65727,0.44074l0.09638,2.67221l-0.70386,1.87338l0.94546,7.55473l-0.73168,11.33342l0.79574,4.91147l-0.64657,11.51372l-0.68286,7.00504l2.06072,8.30295l-1.13333,12.83254l-7.34246,-0.37778l-4.01969,0.47355z" fill="url(#color-40)" stroke="#000000" stroke-width="0" stroke-linecap="butt"/><path d="M406,185.50002c0,-3.31371 2.68629,-6 6,-6c3.31371,0 6,2.68629 6,6c0,3.31371 -2.68629,6 -6,6c-3.31371,0 -6,-2.68629 -6,-6z" fill="#00ff0a" stroke="none" stroke-width="0" stroke-linecap="butt"/><path d="M445,141.5c0,-3.31371 2.68629,-6 6,-6c3.31371,0 6,2.68629 6,6c0,3.31371 -2.68629,6 -6,6c-3.31371,0 -6,-2.68629 -6,-6z" fill="#00ff0a" stroke="none" stroke-width="0" stroke-linecap="butt"/><path d="M403,84.5c0,-3.31371 2.68629,-6 6,-6c3.31371,0 6,2.68629 6,6c0,3.31371 -2.68629,6 -6,6c-3.31371,0 -6,-2.68629 -6,-6z" fill="#00ff0a" stroke="none" stroke-width="0" stroke-linecap="butt"/><path d="M423,89.5c0,-3.31371 2.68629,-6 6,-6c3.31371,0 6,2.68629 6,6c0,3.31371 -2.68629,6 -6,6c-3.31371,0 -6,-2.68629 -6,-6z" fill="#00ff0a" stroke="none" stroke-width="0" stroke-linecap="butt"/><path d="M443,79.5c0,-3.31371 2.68629,-6 6,-6c3.31371,0 6,2.68629 6,6c0,3.31371 -2.68629,6 -6,6c-3.31371,0 -6,-2.68629 -6,-6z" fill="#00ff0a" stroke="none" stroke-width="0" stroke-linecap="butt"/><path d="M302.5,248.25002c0,-15.87819 12.87181,-28.75 28.75,-28.75c15.87818,0 28.75,12.87181 28.75,28.75c0,15.87819 -12.87182,28.75 -28.75,28.75c-15.87819,0 -28.75,-12.87181 -28.75,-28.75z" fill="#0084ff" stroke="none" stroke-width="0" stroke-linecap="butt"/><path d="M393.487,209.33035h75.17718" fill="none" stroke="#ffffff" stroke-width="2.5" stroke-linecap="round"/><path d="M325,125c0,-3.31371 2.68629,-6 6,-6c3.31371,0 6,2.68629 6,6c0,3.31371 -2.68629,6 -6,6c-3.31371,0 -6,-2.68629 -6,-6z" fill="#00ff0a" stroke="none" stroke-width="0" stroke-linecap="butt"/><g stroke-width="0" stroke-linecap="butt"><path d="M410.71578,67.69015c-8.48298,-8.48298 -8.48298,-22.23663 0,-30.71962c8.48298,-8.48299 22.23663,-8.48299 30.71961,0c8.48298,8.48299 8.48298,22.23664 0,30.71962c-8.48298,8.48298 -22.23663,8.48298 -30.71961,0z" fill="#000000" stroke="none"/><path d="M426.07559,66.9322c-8.06438,0 -14.60186,-6.53747 -14.60186,-14.60185c0,-8.06438 6.53748,-14.60185 14.60186,-14.60185c8.06438,0 14.60186,6.53747 14.60186,14.60185c0,8.06438 -6.53748,14.60186 -14.60185,14.60186z" fill="url(#color-41)" stroke="#000000"/></g><path d="M248.5,167.00002c0,-8.83656 7.16344,-16 16,-16c8.83655,0 16,7.16344 16,16c0,8.83656 -7.16345,16 -16,16c-8.83656,0 -16,-7.16344 -16,-16z" fill="#ff7d00" stroke="none" stroke-width="0" stroke-linecap="butt"/></g></g></svg>