<svg version="1.1" xmlns="http://www.w3.org/2000/svg" xmlns:xlink="http://www.w3.org/1999/xlink" width="77" height="77" viewBox="0,0,77,77"><defs><linearGradient x1="240" y1="145" x2="240" y2="215" gradientUnits="userSpaceOnUse" id="color-1"><stop offset="0" stop-color="#fff387"/><stop offset="1" stop-color="#f9ca3a"/></linearGradient><linearGradient x1="240" y1="172.5" x2="240" y2="205.5" gradientUnits="userSpaceOnUse" id="color-2"><stop offset="0" stop-color="#000000"/><stop offset="1" stop-color="#757575"/></linearGradient></defs><g transform="translate(-201.5,-141.5)"><g data-paper-data="{&quot;isPaintingLayer&quot;:true}" fill-rule="nonzero" stroke="none" stroke-width="0" stroke-linecap="butt" stroke-linejoin="miter" stroke-miterlimit="10" stroke-dasharray="" stroke-dashoffset="0" style="mix-blend-mode: normal"><path d="M205,180c0,-19.32997 15.67003,-35 35,-35c19.32997,0 35,15.67003 35,35c0,19.32997 -15.67003,35 -35,35c-19.32997,0 -35,-15.67003 -35,-35z" fill="url(#color-1)"/><path d="M220.1,168c0,-2.7062 2.1938,-4.9 4.9,-4.9c2.7062,0 4.9,2.1938 4.9,4.9c0,2.7062 -2.1938,4.9 -4.9,4.9c-2.7062,0 -4.9,-2.1938 -4.9,-4.9z" fill="#000000"/><path d="M250.1,168c0,-2.7062 2.1938,-4.9 4.9,-4.9c2.70619,0 4.9,2.1938 4.9,4.9c0,2.7062 -2.1938,4.9 -4.9,4.9c-2.7062,0 -4.9,-2.1938 -4.9,-4.9z" fill="#000000"/><path d="M226.5,189c0,-9.1127 6.04415,-16.5 13.5,-16.5c7.45585,0 13.5,7.3873 13.5,16.5c0,9.1127 -6.04415,16.5 -13.5,16.5c-7.45585,0 -13.5,-7.3873 -13.5,-16.5z" fill="url(#color-2)"/><path d="M201.5,218.5v-77h77v77z" fill="none"/></g></g></svg>