<svg version="1.1" xmlns="http://www.w3.org/2000/svg" xmlns:xlink="http://www.w3.org/1999/xlink" width="153.28069" height="221.9329" viewBox="0,0,153.28069,221.9329"><defs><radialGradient cx="281.81394" cy="202.66741" r="17.48859" gradientUnits="userSpaceOnUse" id="color-1"><stop offset="0" stop-color="#000000" stop-opacity="0.63137"/><stop offset="1" stop-color="#000000" stop-opacity="0"/></radialGradient><linearGradient x1="269.89833" y1="189.86627" x2="293.72954" y2="215.46855" gradientUnits="userSpaceOnUse" id="color-2"><stop offset="0" stop-color="#ff5454"/><stop offset="1" stop-color="#eb0000"/></linearGradient><linearGradient x1="280.6506" y1="189.70717" x2="264.76514" y2="204.49373" gradientUnits="userSpaceOnUse" id="color-3"><stop offset="0" stop-color="#eb0000"/><stop offset="1" stop-color="#ff5454"/></linearGradient><radialGradient cx="297.52842" cy="235.92412" r="20.90193" gradientUnits="userSpaceOnUse" id="color-4"><stop offset="0" stop-color="#000000" stop-opacity="0.63137"/><stop offset="1" stop-color="#000000" stop-opacity="0"/></radialGradient><linearGradient x1="283.28719" y1="220.62451" x2="311.76964" y2="251.22374" gradientUnits="userSpaceOnUse" id="color-5"><stop offset="0" stop-color="#ff5454"/><stop offset="1" stop-color="#eb0000"/></linearGradient><radialGradient cx="338.75141" cy="285.22965" r="35.01038" gradientUnits="userSpaceOnUse" id="color-6"><stop offset="0" stop-color="#000000" stop-opacity="0.63137"/><stop offset="1" stop-color="#000000" stop-opacity="0"/></radialGradient><linearGradient x1="314.89756" y1="259.60303" x2="362.60522" y2="310.85623" gradientUnits="userSpaceOnUse" id="color-7"><stop offset="0" stop-color="#ff5454"/><stop offset="1" stop-color="#eb0000"/></linearGradient><linearGradient x1="311.76827" y1="235.94911" x2="423.90542" y2="173.78557" gradientUnits="userSpaceOnUse" id="color-8"><stop offset="0" stop-color="#ff0000"/><stop offset="1" stop-color="#ff0000" stop-opacity="0.5"/></linearGradient><linearGradient x1="303.62874" y1="225.10643" x2="426.67871" y2="156.89332" gradientUnits="userSpaceOnUse" id="color-9"><stop offset="0" stop-color="#ffffff"/><stop offset="1" stop-color="#808080"/></linearGradient><linearGradient x1="296.74347" y1="216.63064" x2="282.79101" y2="223.54407" gradientUnits="userSpaceOnUse" id="color-10"><stop offset="0" stop-color="#000000"/><stop offset="1" stop-color="#929292"/></linearGradient><linearGradient x1="296.74347" y1="216.63064" x2="282.79101" y2="223.54407" gradientUnits="userSpaceOnUse" id="color-11"><stop offset="0" stop-color="#929292" stop-opacity="0"/><stop offset="1" stop-color="#929292"/></linearGradient><linearGradient x1="300.16751" y1="266.50107" x2="339.15529" y2="276.26869" gradientUnits="userSpaceOnUse" id="color-12"><stop offset="0" stop-color="#ffffff"/><stop offset="1" stop-color="#9d9d9d"/></linearGradient><linearGradient x1="309.34117" y1="275.3417" x2="370.90082" y2="290.7643" gradientUnits="userSpaceOnUse" id="color-13"><stop offset="0" stop-color="#f20000"/><stop offset="1" stop-color="#ff7979"/></linearGradient><linearGradient x1="300.16017" y1="250.36418" x2="306.5078" y2="247.29347" gradientUnits="userSpaceOnUse" id="color-14"><stop offset="0" stop-color="#c6c6c6"/><stop offset="1" stop-color="#6b6b6b"/></linearGradient><linearGradient x1="294.87755" y1="243.12564" x2="306.50548" y2="246.0388" gradientUnits="userSpaceOnUse" id="color-15"><stop offset="0" stop-color="#ff5454"/><stop offset="1" stop-color="#ce0000"/></linearGradient><linearGradient x1="345.86712" y1="289.97783" x2="369.81893" y2="295.97848" gradientUnits="userSpaceOnUse" id="color-16"><stop offset="0" stop-color="#ffadad" stop-opacity="0"/><stop offset="1" stop-color="#ffadad"/></linearGradient><linearGradient x1="345.86712" y1="289.97783" x2="369.81893" y2="295.97848" gradientUnits="userSpaceOnUse" id="color-17"><stop offset="0" stop-color="#ab0000"/><stop offset="1" stop-color="#ff5454"/></linearGradient><linearGradient x1="341.76779" y1="286.14838" x2="365.71959" y2="292.14905" gradientUnits="userSpaceOnUse" id="color-18"><stop offset="0" stop-color="#ff6b6b" stop-opacity="0"/><stop offset="1" stop-color="#ff6b6b"/></linearGradient><linearGradient x1="341.76779" y1="286.14838" x2="365.71959" y2="292.14905" gradientUnits="userSpaceOnUse" id="color-19"><stop offset="0" stop-color="#ab0000"/><stop offset="1" stop-color="#ff5454"/></linearGradient><linearGradient x1="360.49327" y1="300.78119" x2="358.35952" y2="292.7066" gradientUnits="userSpaceOnUse" id="color-20"><stop offset="0" stop-color="#ffffff" stop-opacity="0.5207"/><stop offset="1" stop-color="#ffffff" stop-opacity="0"/></linearGradient><linearGradient x1="350.21087" y1="299.17915" x2="368.64192" y2="294.30868" gradientUnits="userSpaceOnUse" id="color-21"><stop offset="0" stop-color="#ab0000"/><stop offset="1" stop-color="#ff5454"/></linearGradient><linearGradient x1="301.52383" y1="230.5425" x2="291.61863" y2="239.7625" gradientUnits="userSpaceOnUse" id="color-22"><stop offset="0" stop-color="#000000"/><stop offset="1" stop-color="#929292"/></linearGradient><linearGradient x1="310.66813" y1="249.88154" x2="300.76295" y2="259.10152" gradientUnits="userSpaceOnUse" id="color-23"><stop offset="0" stop-color="#000000"/><stop offset="1" stop-color="#929292"/></linearGradient><linearGradient x1="303.85297" y1="213.01876" x2="287.9675" y2="227.80532" gradientUnits="userSpaceOnUse" id="color-24"><stop offset="0" stop-color="#eb0000"/><stop offset="1" stop-color="#ff5454"/></linearGradient><linearGradient x1="409.43724" y1="239.45247" x2="384.50661" y2="228.2538" gradientUnits="userSpaceOnUse" id="color-25"><stop offset="0" stop-color="#ffdada" stop-opacity="0.81062"/><stop offset="1" stop-color="#ffdada" stop-opacity="0"/></linearGradient></defs><g transform="translate(-261.8567,-98.30727)"><g data-paper-data="{&quot;isPaintingLayer&quot;:true}" fill-rule="nonzero" stroke-linejoin="miter" stroke-miterlimit="10" stroke-dasharray="" stroke-dashoffset="0" style="mix-blend-mode: normal"><path d="M294.6151,190.75182c6.58081,7.06988 6.18435,18.13596 -0.88554,24.71676c-7.06987,6.5808 -18.13595,6.18434 -24.71676,-0.88555c-6.58081,-7.06986 -6.18435,-18.13594 0.88554,-24.71674c7.06986,-6.58081 18.13593,-6.18435 24.71674,0.88554z" data-paper-data="{&quot;index&quot;:null}" fill="url(#color-1)" stroke="url(#color-2)" stroke-width="0" stroke-linecap="butt"/><path d="M280.10114,205.04317c-4.38663,4.08319 -11.2528,3.83718 -15.33599,-0.54946c-4.08319,-4.38663 -3.83718,-11.2528 0.54946,-15.33599c4.38663,-4.08319 11.2528,-3.83718 15.33599,0.54946c4.08319,4.38663 3.83718,11.2528 -0.54946,15.33599z" data-paper-data="{&quot;index&quot;:null}" fill="url(#color-3)" stroke="#000000" stroke-width="0" stroke-linecap="butt"/><path d="M311.76963,251.22376c-8.44973,7.86521 -21.67563,7.39137 -29.54085,-1.05838c-7.86521,-8.44973 -7.39135,-21.67563 1.05838,-29.54085c8.44973,-7.86521 21.67563,-7.39137 29.54085,1.05838c7.86521,8.44973 7.39135,21.67563 -1.05838,29.54085z" data-paper-data="{&quot;index&quot;:null}" fill="url(#color-4)" stroke="url(#color-5)" stroke-width="0" stroke-linecap="butt"/><path d="M362.6052,310.85623c-14.15317,13.1741 -36.3063,12.38041 -49.4804,-1.77277c-13.1741,-14.15317 -12.38039,-36.30631 1.77277,-49.4804c14.15317,-13.1741 36.3063,-12.38041 49.4804,1.77277c13.1741,14.15317 12.38039,36.30631 -1.77277,49.4804z" data-paper-data="{&quot;index&quot;:null}" fill="url(#color-6)" stroke="url(#color-7)" stroke-width="0" stroke-linecap="butt"/><path d="M378.96833,217.46764c31.19711,-70.90372 -5.04656,-112.38927 5.67006,-118.82755c8.5803,-5.15481 37.65671,50.39155 28.86016,109.66074c-6.60295,44.48924 -21.67297,78.02372 -42.92456,86.8637c-14.93893,6.21414 -36.28233,4.94768 -36.28233,4.94768l-13.16242,-30.69524c0,0 34.80357,0.40502 57.83909,-51.94933z" data-paper-data="{&quot;index&quot;:null}" fill="url(#color-8)" stroke="url(#color-9)" stroke-width="0" stroke-linecap="butt"/><g data-paper-data="{&quot;index&quot;:null}"><path d="M289.47553,228.2956l-20.38794,-32.40725c0,0 -3.12742,-7.0944 3.35341,-10.35063c6.60713,-3.31969 10.59904,3.43719 10.59904,3.43719l12.69033,36.43767z" fill="url(#color-10)" stroke="url(#color-11)" stroke-width="0" stroke-linecap="butt"/><path d="M311.08818,258.6966c0,0 8.60852,8.32621 15.85613,10.98381c6.59851,2.41958 26.15081,3.17487 26.15081,3.17487l-16.76351,11.08841l-27.07758,-5.35262c0,0 -1.26917,-3.99931 -1.76905,-6.3874c-0.6654,-3.17891 -1.1867,-10.83014 -1.1867,-10.83014z" fill="url(#color-12)" stroke="#ffffff" stroke-width="0" stroke-linecap="butt"/><path d="M353.27599,266.96991c8.65495,3.062 1.88182,12.85046 17.62485,23.7944c9.433,6.55744 -18.83578,16.72541 -35.83501,12.46657c-16.99923,-4.25883 -28.38721,-24.52597 -25.72463,-27.88917c5.29392,-6.68694 17.74035,1.73608 34.97722,-1.42649c3.18413,-0.58422 6.74889,-7.72671 8.95757,-6.9453z" fill="url(#color-13)" stroke="#ffffff" stroke-width="0" stroke-linecap="butt"/><path d="M288.42943,226.36006l6.19816,-3.08524l13.20451,18.41638l4.91945,18.50912l-6.34763,3.07068l-11.88786,-15.39853z" fill="url(#color-14)" stroke="#ffffff" stroke-width="0" stroke-linecap="butt"/><path d="M293.87745,248.08473l14.2109,-7.7242" fill="none" stroke="url(#color-15)" stroke-width="7.5" stroke-linecap="round"/><path d="M370.79,291.35537c6.68457,3.57544 -9.19972,12.48163 -15.81383,10.8246c-6.61411,-1.65704 -12.03311,-0.53071 -10.74159,-5.68583c1.07998,-4.31079 13.30452,-2.83428 19.04287,-4.12311c1.12391,-0.25244 -4.17921,-8.99842 -3.09593,-8.72703c6.61411,1.65704 3.54114,3.93115 10.60849,7.71135z" fill="url(#color-16)" stroke="url(#color-17)" stroke-width="0" stroke-linecap="butt"/><path d="M367.0848,291.92958c1.50648,2.01583 -9.59383,8.07798 -16.20794,6.42095c-6.61411,-1.65704 -12.03311,-0.53071 -10.74159,-5.68583c1.07999,-4.31081 13.30452,-2.83428 19.04287,-4.12311c1.1239,-0.25244 -4.17922,-8.99842 -3.09594,-8.72703c6.61411,1.65704 8.41672,8.6548 11.00259,12.115z" fill="url(#color-18)" stroke="url(#color-19)" stroke-width="0" stroke-linecap="butt"/><path d="M371.50464,293.34137c0.26842,1.01565 -0.95484,2.59909 -2.84754,4.14941c-2.26237,1.85311 -5.48125,3.65891 -8.25246,4.39122c-5.08959,1.34494 -15.99532,2.29303 -18.25437,1.82867c-3.51373,-0.72227 -13.98587,-3.62828 -12.13364,-4.39814c4.67713,-1.94404 11.7075,-6.83793 15.35329,-7.80134c3.90107,-1.03087 14.18313,-6.10297 20.04433,-4.79921c1.78573,0.39722 5.9528,6.10866 6.0904,6.62936z" fill="url(#color-20)" stroke="url(#color-21)" stroke-width="0" stroke-linecap="butt"/><path d="M290.22931,238.26993l12.43122,-6.50623" fill="none" stroke="url(#color-22)" stroke-width="3.5" stroke-linecap="round"/><path d="M299.37363,257.60895l12.43122,-6.50623" fill="none" stroke="url(#color-23)" stroke-width="3.5" stroke-linecap="round"/></g><path d="M303.85298,213.01881c4.08319,4.38663 3.83718,11.2528 -0.54946,15.33599c-4.38666,4.08319 -11.25283,3.83718 -15.33602,-0.54946c-4.08319,-4.38667 -3.83718,-11.25284 0.54946,-15.33603c4.38665,-4.08319 11.25282,-3.83718 15.33601,0.54946z" data-paper-data="{&quot;index&quot;:null}" fill="url(#color-24)" stroke="#000000" stroke-width="0" stroke-linecap="butt"/><path d="M411.79013,167.51482c0,0 2.04251,13.89198 1.41569,30.58178c-0.60022,15.98133 -3.79486,34.55233 -7.08089,44.87267c-2.3369,7.33944 -6.613,20.22252 -11.45923,28.43958c-9.0849,15.40397 -20.18378,24.77983 -24.34007,23.45645c-6.37341,-2.02932 20.42751,-29.29442 27.14525,-50.39261c6.71773,-21.09819 14.31925,-76.95788 14.31925,-76.95788z" data-paper-data="{&quot;index&quot;:null}" fill="url(#color-25)" stroke="#ffffff" stroke-width="0" stroke-linecap="butt"/></g></g></svg>