<svg version="1.1" xmlns="http://www.w3.org/2000/svg" xmlns:xlink="http://www.w3.org/1999/xlink" width="37.6" height="43.6" viewBox="0,0,37.6,43.6"><g transform="translate(-221.20006,-158.2)"><g data-paper-data="{&quot;isPaintingLayer&quot;:true}" fill-rule="nonzero" stroke-linecap="butt" stroke-linejoin="miter" stroke-miterlimit="10" stroke-dasharray="" stroke-dashoffset="0" style="mix-blend-mode: normal"><path d="M221.20006,201.8v-43.6h37.6v43.6z" fill="none" stroke="none" stroke-width="0"/><path d="M250.41134,194.53706h-20.82264c-0.32536,0 -0.60327,-0.09489 -0.83374,-0.28467c-0.24401,-0.1898 -0.36602,-0.44059 -0.36602,-0.75239c0,-0.3118 0.11523,-0.56259 0.3457,-0.75239c0.21691,-0.18978 0.50159,-0.28467 0.85406,-0.28467h20.82264c0.35247,0 0.63715,0.08812 0.85403,0.26435c0.23047,0.18978 0.3457,0.44735 0.3457,0.77271c0,0.32536 -0.12201,0.57615 -0.36602,0.75239c-0.23047,0.18978 -0.50837,0.28467 -0.83372,0.28467z" fill="#ff0000" stroke="#ff0000" stroke-width="2.5"/></g></g></svg>