<svg version="1.1" xmlns="http://www.w3.org/2000/svg" xmlns:xlink="http://www.w3.org/1999/xlink" width="71.25697" height="101.43286" viewBox="0,0,71.25697,101.43286"><defs><linearGradient x1="224.23559" y1="196.81148" x2="275.3305" y2="139.80744" gradientUnits="userSpaceOnUse" id="color-1"><stop offset="0" stop-color="#333333"/><stop offset="1" stop-color="#cacaca"/></linearGradient><linearGradient x1="270.10843" y1="130.3682" x2="214.56963" y2="192.33007" gradientUnits="userSpaceOnUse" id="color-2"><stop offset="0" stop-color="#ff4c4c"/><stop offset="1" stop-color="#ec0000"/></linearGradient><linearGradient x1="273.02042" y1="133.70536" x2="218.06118" y2="195.02063" gradientUnits="userSpaceOnUse" id="color-3"><stop offset="0" stop-color="#e8e8e8"/><stop offset="1" stop-color="#9e9e9e"/></linearGradient><linearGradient x1="230.41752" y1="204.0882" x2="209.34185" y2="227.60128" gradientUnits="userSpaceOnUse" id="color-4"><stop offset="0" stop-color="#000000"/><stop offset="1" stop-color="#929292"/></linearGradient></defs><g transform="translate(-204.70154,-130.11882)"><g data-paper-data="{&quot;isPaintingLayer&quot;:true}" fill-rule="nonzero" stroke-linejoin="miter" stroke-miterlimit="10" stroke-dasharray="" stroke-dashoffset="0" style="mix-blend-mode: normal"><path d="M272.137,136.94497l3.82151,6.017l-47.92965,53.79399l-6.98676,-2.80696z" data-paper-data="{&quot;index&quot;:null}" fill="url(#color-1)" stroke="none" stroke-width="0" stroke-linecap="butt"/><path d="M216.72267,194.25992l-2.43125,-2.17923l-0.27797,-3.46203l52.34509,-58.3988l3.4717,-0.10105l2.43125,2.17923z" data-paper-data="{&quot;index&quot;:null}" fill="url(#color-2)" stroke="none" stroke-width="0" stroke-linecap="butt"/><path d="M219.25875,196.09406l-2.39511,-2.14684l54.95924,-61.31528l2.39511,2.14684z" data-paper-data="{&quot;index&quot;:null}" fill="url(#color-3)" stroke="none" stroke-width="0" stroke-linecap="butt"/><path d="M273.23916,145.99581c0,0 -2.81401,12.77739 -17.39382,29.04335c-13.55424,15.12178 -25.39998,18.69954 -25.39998,18.69954" data-paper-data="{&quot;index&quot;:null}" fill="none" stroke="#808080" stroke-width="2" stroke-linecap="round"/><path d="M265.46856,133.87394l-24.48757,27.31956" data-paper-data="{&quot;index&quot;:null}" fill="none" stroke-opacity="0.34902" stroke="#ffffff" stroke-width="4.5" stroke-linecap="round"/><path d="M248.45602,151.6437l14.7145,-16.41623" data-paper-data="{&quot;index&quot;:null}" fill="none" stroke-opacity="0.34902" stroke="#ffffff" stroke-width="2.5" stroke-linecap="round"/><path d="M230.31305,193.9445l5.41198,4.56275l-28.35576,31.61688c0,0 -4.4149,-4.126 1.12171,-15.25694c5.5366,-11.13095 16.47243,-20.1148 16.47243,-20.1148" fill="none" stroke="#808080" stroke-width="2" stroke-linecap="round"/><path d="M227.98816,201.65828l4.18579,4.00429l-18.84022,25.51679c0,0 -4.85079,-0.24794 -6.07403,-1.30344c-1.56184,-1.34767 -2.53187,-6.1224 -2.53187,-6.1224z" fill="url(#color-4)" stroke="none" stroke-width="0" stroke-linecap="butt"/></g></g></svg>