<svg version="1.1" xmlns="http://www.w3.org/2000/svg" xmlns:xlink="http://www.w3.org/1999/xlink" width="67.59774" height="65.59774" viewBox="0,0,67.59774,65.59774"><defs><radialGradient cx="240" cy="180" r="32.79887" gradientUnits="userSpaceOnUse" id="color-1"><stop offset="0" stop-color="#000000"/><stop offset="1" stop-color="#000000" stop-opacity="0"/></radialGradient><linearGradient x1="239.74902" y1="154.68135" x2="239.74902" y2="205.31865" gradientUnits="userSpaceOnUse" id="color-2"><stop offset="0" stop-color="#ff3535"/><stop offset="1" stop-color="#b02121"/></linearGradient><linearGradient x1="215.10195" y1="180.64676" x2="266.19271" y2="180.64676" gradientUnits="userSpaceOnUse" id="color-3"><stop offset="0" stop-color="#7d0606"/><stop offset="1" stop-color="#a61e1e"/></linearGradient><linearGradient x1="222.04039" y1="181.55931" x2="222.04039" y2="178.63544" gradientUnits="userSpaceOnUse" id="color-4"><stop offset="0" stop-color="#ff0000"/><stop offset="1" stop-color="#ff8e8e"/></linearGradient><linearGradient x1="235.84658" y1="180.16682" x2="259.58111" y2="180.16682" gradientUnits="userSpaceOnUse" id="color-5"><stop offset="0" stop-color="#ffffff"/><stop offset="1" stop-color="#c40e0e"/></linearGradient><radialGradient cx="240.7331" cy="192.4977" r="16.5602" gradientUnits="userSpaceOnUse" id="color-6"><stop offset="0" stop-color="#4c4c4c"/><stop offset="1" stop-color="#000000"/></radialGradient><radialGradient cx="240.7331" cy="167.93721" r="8.34178" gradientUnits="userSpaceOnUse" id="color-7"><stop offset="0" stop-color="#4c4c4c"/><stop offset="1" stop-color="#000000"/></radialGradient><radialGradient cx="240.73307" cy="192.4977" r="16.5602" gradientUnits="userSpaceOnUse" id="color-8"><stop offset="0" stop-color="#4c4c4c"/><stop offset="1" stop-color="#000000"/></radialGradient></defs><g transform="translate(-206.20113,-147.20113)"><g data-paper-data="{&quot;isPaintingLayer&quot;:true}" fill-rule="nonzero" stroke-width="0" stroke-linecap="butt" stroke-linejoin="miter" stroke-miterlimit="10" stroke-dasharray="" stroke-dashoffset="0" style="mix-blend-mode: normal"><path d="M206.20113,180c0,-18.11432 15.13228,-32.79887 33.79887,-32.79887c18.6666,0 33.79887,14.68456 33.79887,32.79887c0,18.11432 -15.13228,32.79887 -33.79887,32.79887c-18.6666,0 -33.79887,-14.68456 -33.79887,-32.79887z" fill="url(#color-1)" stroke="#000000"/><path d="M212.59579,179.90038c0,-4.97043 1.81332,-9.86897 4.72899,-13.16791c3.3677,-3.81038 8.20606,-5.76241 13.41952,-7.69501c2.86388,-1.06163 4.94182,-3.97061 8.18987,-3.97061c2.83808,0 2.00369,1.64253 4.68158,1.77985c3.5863,0.18391 7.34584,-3.27189 10.10556,-1.79894c3.50605,1.87126 11.11638,9.92131 12.55177,14.14393c2.55868,7.4958 -3.68989,8.748 -3.68989,11.4787c0,2.58002 5.48527,2.85338 4.09262,11.27953c-1.25171,4.27116 -9.40184,11.164 -12.79446,12.77312c-2.81542,1.33534 -6.432,-2.35578 -10.16521,-1.77262c-2.63178,0.41112 -1.78007,2.36823 -4.5958,2.36823c-3.8859,0 -5.35134,-2.61493 -8.65803,-4.10597c-4.58504,-2.06748 -9.4239,-3.42799 -12.82263,-7.05561c-3.1576,-3.37027 -5.04392,-8.89501 -5.04392,-13.75549z" fill="url(#color-2)" stroke="#000000"/><path d="M242.38078,161.24326c0,0 7.08723,2.37657 9.79994,3.73413c2.55073,1.27649 6.02033,4.18299 6.02033,4.18299l0.46948,21.95093c0,0 -3.08092,3.15813 -5.65968,4.40773c-2.63909,1.27885 -9.9981,3.17968 -9.9981,3.17968c0,0 5.68904,-11.57377 5.59399,-18.51544c-0.10354,-7.56217 -6.22592,-18.94004 -6.22592,-18.94004z" fill="url(#color-3)" stroke="#000000"/><path d="M232.98307,181.55931h-21.70163c0,0 -0.18372,-0.94385 -0.18372,-1.44516c0,-0.47148 0.18372,-1.4787 0.18372,-1.4787h21.70163z" fill="url(#color-4)" stroke="none"/><path d="M235.93732,159.13642c0.95635,-0.39847 5.31006,-0.30258 8.57039,2.03119c2.48497,1.77876 2.5026,8.2245 4.36439,11.24672c0.79989,1.29848 8.92401,-4.12065 9.89386,-3.35975c0.82363,0.64618 1.07519,21.10456 0.51317,21.61681c-1.19181,1.0863 -9.33581,-3.69368 -10.47837,-1.97071c-1.70878,2.57682 -1.71028,8.4659 -3.92467,10.06797c-3.37379,2.44086 -7.79026,2.97259 -8.92633,2.3968c-0.06422,-0.03255 1.21145,-10.63711 1.20839,-21.18455c-0.00304,-10.43675 -1.28551,-20.81756 -1.22082,-20.8445z" fill="url(#color-5)" stroke="#000000"/><path d="M258.52223,190.82113l-7.79699,-9.45383v-2.53403l7.36382,-9.5513l-4.69605,9.50494l-0.02059,2.55832z" fill="#000000" stroke="none"/><path d="M234.68296,203.99951c0,0 1.74846,-17.06782 1.74846,-23.80022c0,-7.91685 -1.74846,-23.48528 -1.74846,-23.48528l1.75432,-1.11281c0,0 1.74846,16.44883 1.74846,24.59807c0,8.11414 -1.74846,24.58238 -1.74846,24.58238z" fill="#000000" stroke="none"/><path d="M263.15072,190.9885c-1.17472,0 -2.12703,-1.16569 -2.12703,-2.60362c0,-1.43794 0.95232,-2.60363 2.12703,-2.60363c1.17472,0 2.12703,1.16569 2.12703,2.60363c0,1.43794 -0.95232,2.60362 -2.12703,2.60362z" fill="#000000" stroke="none"/><path d="M263.28722,174.949c-1.17472,0 -2.12703,-1.16569 -2.12703,-2.60363c0,-1.43794 0.95232,-2.60363 2.12703,-2.60363c1.17472,0 2.12703,1.16569 2.12703,2.60363c0,1.43794 -0.95232,2.60363 -2.12703,2.60363z" fill="#000000" stroke="none"/><path d="M260.42083,182.46751c-0.94858,0 -1.71755,-0.94127 -1.71755,-2.1024c0,-1.16113 0.76898,-2.1024 1.71755,-2.1024c0.94858,0 1.71754,0.94127 1.71754,2.1024c0,1.16113 -0.76897,2.1024 -1.71754,2.1024z" fill="#000000" stroke="none"/><path d="M263.55129,186.87213l-2.00787,0.87047l-1.87939,-6.49554c0,0 1.751,1.09441 2.36467,1.98241c0.67603,0.97826 1.52258,3.64266 1.52258,3.64266z" fill="#000000" stroke="none"/><path d="M262.30169,177.2392c-0.61367,0.88802 -2.36466,1.98242 -2.36466,1.98242l1.87939,-6.49554l2.00788,0.87047c0,0 -0.84655,2.66439 -1.52258,3.64266z" data-paper-data="{&quot;index&quot;:null}" fill="#000000" stroke="none"/><path d="M241.72369,196.46164c-0.72689,0.21453 -2.39834,0.19185 -2.39834,0.19185v-32.98122c0,0 1.61385,-0.24144 2.40014,-0.08673c0.68601,0.13498 2.05799,0.96389 2.05799,0.96389c0,0 -0.26231,1.68682 -1.09515,3.85414c-0.54823,1.42668 -1.78952,2.89589 -1.78952,4.81511c0,0.52455 -0.13936,1.09087 -0.13936,1.65639c0,0.5325 0.13936,1.59591 0.13936,2.09149c0,0.81073 9.9965,2.24701 9.9965,2.24701l0.09988,1.60717c0,0 -10.09638,2.3944 -10.09638,2.77767c0,0.70723 -0.13936,1.37659 -0.13936,1.99749c0,0.66019 0.13936,1.2656 0.13936,1.80354c0,1.35598 0.87425,2.61939 1.3302,3.88088c0.85346,2.36132 1.55448,4.05743 1.55448,4.05743c0,0 -1.30194,0.90022 -2.0598,1.12389z" fill="url(#color-6)" stroke="none"/><path d="M239.32533,180.21733v-16.54506c0,0 1.61385,-0.24144 2.40014,-0.08673c0.68601,0.13498 2.05799,0.96389 2.05799,0.96389c0,0 -0.26231,1.68682 -1.09514,3.85414c-0.54823,1.42668 -1.78952,2.89589 -1.78952,4.81511c0,0.52455 -0.13935,1.09087 -0.13935,1.65639c0,0.5325 0.13935,1.59591 0.13935,2.09149c0,0.04858 -0.06794,0.76057 1.18398,1.13871c2.93732,0.88721 8.81251,1.85258 8.81251,1.85258z" fill="url(#color-7)" stroke="none"/><path d="M239.32533,183.8577v-7.12361l1.57346,0.23246l9.9965,2.24702l0.09988,1.60717l-10.09638,2.77767z" fill="url(#color-8)" stroke="none"/></g></g></svg>