<svg version="1.1" xmlns="http://www.w3.org/2000/svg" xmlns:xlink="http://www.w3.org/1999/xlink" width="123.88151" height="102.25335" viewBox="0,0,123.88151,102.25335"><defs><radialGradient cx="217.24123" cy="196.19494" r="23.05454" gradientUnits="userSpaceOnUse" id="color-1"><stop offset="0" stop-color="#ff0000"/><stop offset="1" stop-color="#ff0000" stop-opacity="0"/></radialGradient><radialGradient cx="215.73322" cy="163.87521" r="23.05454" gradientUnits="userSpaceOnUse" id="color-2"><stop offset="0" stop-color="#ff0000"/><stop offset="1" stop-color="#ff0000" stop-opacity="0"/></radialGradient><radialGradient cx="240" cy="180" r="41.84969" gradientUnits="userSpaceOnUse" id="color-3"><stop offset="0" stop-color="#ff0000"/><stop offset="1" stop-color="#ff0000" stop-opacity="0"/></radialGradient><linearGradient x1="279.58192" y1="179.17208" x2="201.07774" y2="179.17208" gradientUnits="userSpaceOnUse" id="color-4"><stop offset="0" stop-color="#ff2929"/><stop offset="1" stop-color="#f10000"/></linearGradient><linearGradient x1="267.70273" y1="180.0554" x2="248.43092" y2="179.94439" gradientUnits="userSpaceOnUse" id="color-5"><stop offset="0" stop-color="#1a1a1a" stop-opacity="0"/><stop offset="1" stop-color="#1a1a1a"/></linearGradient><linearGradient x1="225.28876" y1="172.80909" x2="202.06699" y2="172.80909" gradientUnits="userSpaceOnUse" id="color-6"><stop offset="0" stop-color="#ffffff" stop-opacity="0"/><stop offset="1" stop-color="#ffffff" stop-opacity="0.31765"/></linearGradient><linearGradient x1="225.03957" y1="188.05312" x2="201.8178" y2="188.05312" gradientUnits="userSpaceOnUse" id="color-7"><stop offset="0" stop-color="#ffffff" stop-opacity="0"/><stop offset="1" stop-color="#ffffff" stop-opacity="0.31765"/></linearGradient><linearGradient x1="166.83286" y1="169.8339" x2="184.14298" y2="169.8339" gradientUnits="userSpaceOnUse" id="color-8"><stop offset="0" stop-color="#000000"/><stop offset="1" stop-color="#ff0000"/></linearGradient><linearGradient x1="166.89648" y1="185.69005" x2="184.2066" y2="185.69005" gradientUnits="userSpaceOnUse" id="color-9"><stop offset="0" stop-color="#000000"/><stop offset="1" stop-color="#ff0000"/></linearGradient><linearGradient x1="184.17726" y1="171.31889" x2="175.15025" y2="171.31889" gradientUnits="userSpaceOnUse" id="color-10"><stop offset="0" stop-color="#000000"/><stop offset="1" stop-color="#737373"/></linearGradient><linearGradient x1="184.27711" y1="184.37401" x2="175.25009" y2="184.37401" gradientUnits="userSpaceOnUse" id="color-11"><stop offset="0" stop-color="#000000"/><stop offset="1" stop-color="#737373"/></linearGradient></defs><g transform="translate(-166.83285,-128.87338)"><g data-paper-data="{&quot;isPaintingLayer&quot;:true}" fill-rule="nonzero" stroke-linecap="butt" stroke-linejoin="miter" stroke-miterlimit="10" stroke-dasharray="" stroke-dashoffset="0" style="mix-blend-mode: normal"><path d="M217.24123,219.24948c-12.73267,0 -23.05454,-10.32187 -23.05454,-23.05453c0,-12.73267 10.32188,-23.05454 23.05454,-23.05454c12.73267,0 23.05454,10.32188 23.05454,23.05454c0,12.73267 -10.32188,23.05453 -23.05454,23.05453z" fill="url(#color-1)" stroke="#000000" stroke-width="0"/><path d="M215.73322,186.92975c-12.73267,0 -23.05454,-10.32187 -23.05454,-23.05453c0,-12.73267 10.32188,-23.05454 23.05454,-23.05454c12.73267,0 23.05454,10.32188 23.05454,23.05454c0,12.73267 -10.32188,23.05453 -23.05454,23.05453z" fill="url(#color-2)" stroke="#000000" stroke-width="0"/><path d="M240,221.84973c-23.11295,0 -41.84969,-18.73675 -41.84969,-41.84969c0,-23.11295 18.73675,-41.84969 41.84969,-41.84969c23.11295,0 41.84969,18.73675 41.84969,41.84969c0,23.11295 -18.73675,41.84969 -41.84969,41.84969z" fill="url(#color-3)" stroke="#000000" stroke-width="0"/><path d="M290.71436,231.12673h-101.42872v-102.25335h101.42872z" fill="none" stroke="none" stroke-width="NaN"/><path d="M211.30307,152.61919c6.65743,-0.74312 22.75961,12.20443 22.75961,12.20443c0,0 5.96222,-14.45723 16.57345,-11.78766c25.55345,6.42876 28.94579,26.96074 28.94579,26.96074c0,0 -4.77247,21.58967 -25.72827,26.71782c-14.81007,3.6242 -20.45067,-10.22534 -20.45067,-10.22534c0,0 -14.03961,11.59602 -19.79178,10.89167c-4.87825,-0.59733 -12.53347,-14.84987 -12.53347,-14.84987c0,0 12.39337,-3.59035 16.58331,-5.77641c2.55703,-1.3341 6.1763,-6.09818 6.1763,-6.09818c0,0 -4.3587,-5.42298 -7.6801,-7.23562c-4.00096,-2.1835 -14.66866,-4.96111 -14.66866,-4.96111c0,0 3.15704,-15.09735 9.81448,-15.84048z" fill="url(#color-4)" stroke="none" stroke-width="0"/><path d="M249.76248,196.52406c-1.99356,-4.03198 4.05212,-15.90916 4.05212,-15.90916c0,0 -6.25733,-11.3059 -5.18128,-15.25828c1.37377,-5.04595 3.81461,-8.25048 7.87445,-8.2271c4.67103,0.0269 8.76204,1.68181 11.04685,8.1093c1.25654,3.53481 -3.1871,15.11711 -3.1871,15.11711c0,0 4.78614,11.60328 3.19309,15.36417c-2.41578,5.70322 -6.28933,7.15966 -10.65219,7.13453c-4.36285,-0.02513 -7.14594,-6.33057 -7.14594,-6.33057z" fill="url(#color-5)" stroke="none" stroke-width="0"/><path d="M251.40968,192.32475c0,-3.9087 3.16864,-7.07736 7.07736,-7.07736c3.9087,0 7.07736,3.16864 7.07736,7.07736c0,3.9087 -3.16864,7.07735 -7.07736,7.07735c-3.9087,0 -7.07736,-3.16862 -7.07736,-7.07735z" fill="#ffffff" stroke="#000000" stroke-width="0"/><path d="M251.40968,167.67533c0,-3.9087 3.16864,-7.07735 7.07736,-7.07735c3.9087,0 7.07736,3.16862 7.07736,7.07735c0,3.9087 -3.16864,7.07736 -7.07736,7.07736c-3.9087,0 -7.07736,-3.16864 -7.07736,-7.07736z" fill="#ffffff" stroke="#000000" stroke-width="0"/><path d="M203.73896,169.37228c0,0 3.7313,-6.45457 7.15588,-5.30265c1.43763,0.48357 13.2793,12.1763 13.2793,12.1763l0.7431,4.83013c0,0 -4.32016,-6.05784 -7.5423,-7.83849c-3.75532,-2.07531 -13.63598,-3.86529 -13.63598,-3.86529z" fill="url(#color-6)" stroke="none" stroke-width="0"/><path d="M224.66803,179.78616l-0.74308,4.83013c0,0 -11.84167,11.69273 -13.2793,12.1763c-3.42458,1.1519 -7.15587,-5.30265 -7.15587,-5.30265c0,0 10.31043,-2.36804 14.16999,-4.50096c2.95599,-1.63357 7.00826,-7.20282 7.00826,-7.20282z" data-paper-data="{&quot;index&quot;:null}" fill="url(#color-7)" stroke="none" stroke-width="0"/><path d="M257.66815,192.3247c0,-2.15394 1.74612,-3.90006 3.90006,-3.90006c2.15394,0 3.90006,1.74612 3.90006,3.90006c0,2.15394 -1.74612,3.90006 -3.90006,3.90006c-2.15394,0 -3.90006,-1.74612 -3.90006,-3.90006z" fill="#000000" stroke="#000000" stroke-width="0"/><path d="M257.66815,167.67532c0,-2.15394 1.74612,-3.90006 3.90006,-3.90006c2.15394,0 3.90006,1.74612 3.90006,3.90006c0,2.15394 -1.74612,3.90006 -3.90006,3.90006c-2.15394,0 -3.90006,-1.74612 -3.90006,-3.90006z" fill="#000000" stroke="#000000" stroke-width="0"/><path d="M169.19038,176.84035l-2.35753,-10.27935l7.04335,-5.91318l10.26677,3.14964l-1.02346,14.94374l-6.37422,0.27879z" fill="url(#color-8)" stroke="none" stroke-width="0"/><path d="M183.18314,178.3585l1.02346,13.5979l-10.26677,3.14964l-7.04335,-5.91318l2.35753,-10.27934l6.77831,-2.63945z" data-paper-data="{&quot;index&quot;:null}" fill="url(#color-9)" stroke="none" stroke-width="0"/><path d="M171.09802,174.18264l-1.4449,-5.54293l3.66461,-5.50296l9.21642,1.46629l0.4028,9.72698l-6.46051,4.05548z" fill="#ffffff" stroke="#ffffff" stroke-width="0"/><path d="M183.00153,181.42383l-0.4028,9.72698l-9.21642,1.46629l-3.51507,-4.4562l1.29536,-6.58969l5.16736,-4.07661z" data-paper-data="{&quot;index&quot;:null}" fill="#ffffff" stroke="#ffffff" stroke-width="0"/><path d="M179.66375,166.80539c2.49274,0 4.5135,2.02077 4.5135,4.5135c0,2.49274 -2.02077,4.5135 -4.5135,4.5135c-2.49274,0 -4.5135,-2.02077 -4.5135,-4.5135c0,-2.49274 2.02077,-4.5135 4.5135,-4.5135z" fill="url(#color-10)" stroke="none" stroke-width="0"/><path d="M179.76359,179.8605c2.49274,0 4.51351,2.02077 4.51351,4.51351c0,2.49274 -2.02077,4.51351 -4.51351,4.51351c-2.49274,0 -4.51351,-2.02077 -4.51351,-4.51351c0,-2.49274 2.02077,-4.51351 4.51351,-4.51351z" fill="url(#color-11)" stroke="none" stroke-width="0"/></g></g></svg>