<svg version="1.1" xmlns="http://www.w3.org/2000/svg" xmlns:xlink="http://www.w3.org/1999/xlink" width="80.13905" height="79.49276" viewBox="0,0,80.13905,79.49276"><defs><radialGradient cx="240.00001" cy="180" r="32.79887" gradientUnits="userSpaceOnUse" id="color-1"><stop offset="0" stop-color="#000000"/><stop offset="1" stop-color="#000000" stop-opacity="0"/></radialGradient><linearGradient x1="212.07132" y1="180" x2="267.92869" y2="180" gradientUnits="userSpaceOnUse" id="color-2"><stop offset="0" stop-color="#ff7d7d"/><stop offset="1" stop-color="#ffffff"/></linearGradient></defs><g transform="translate(-200.08576,-140.25362)"><g data-paper-data="{&quot;isPaintingLayer&quot;:true}" fill-rule="nonzero" stroke-linejoin="miter" stroke-miterlimit="10" stroke-dasharray="" stroke-dashoffset="0" style="mix-blend-mode: normal"><path d="M200.08576,219.74638v-79.49276h80.13905v79.49276z" fill="none" stroke="none" stroke-width="NaN" stroke-linecap="butt"/><path d="M207.20113,180c0,-18.11432 14.68456,-32.79887 32.79887,-32.79887c18.11432,0 32.79887,14.68456 32.79887,32.79887c0,18.11432 -14.68456,32.79887 -32.79887,32.79887c-18.11432,0 -32.79887,-14.68456 -32.79887,-32.79887z" fill="url(#color-1)" stroke="#000000" stroke-width="0" stroke-linecap="butt"/><path d="M212.07175,180.07101c-0.08402,-21.6494 12.08148,-27.24076 26.80595,-27.24076c4.4882,0 10.83417,3.62705 10.83417,3.62705c0,0 3.36472,-4.24637 8.3588,-1.60859c6.05566,3.1985 9.85802,16.72105 9.85802,24.70172c0,7.75107 -1.77826,24.14541 -13.14984,25.87007c-4.96131,0.35679 -6.13474,-3.3821 -6.13474,-3.3821c0,0 -3.7386,5.27336 -9.91134,5.12842c-14.72042,-0.34563 -26.579,-5.96167 -26.66102,-27.09582z" fill="url(#color-2)" stroke="#000000" stroke-width="0" stroke-linecap="butt"/><path d="M253.40686,163.38869c0,0 4.72562,6.41384 4.97445,16.03968c0.31032,12.00411 -5.1037,17.84025 -5.1037,17.84025" fill="none" stroke="#000000" stroke-width="1.25" stroke-linecap="round"/><path d="M256.17806,161.60026c0,0 7.80439,7.13716 8.21534,17.84853c0.51249,13.35785 -8.42879,19.85214 -8.42879,19.85214" fill="none" stroke="#000000" stroke-width="1.25" stroke-linecap="round"/><path d="M256.90952,160.12302l-5.07267,3.64707" fill="none" stroke="#000000" stroke-width="1.25" stroke-linecap="round"/><path d="M251.54698,196.59373l5.94227,3.82075" fill="none" stroke="#000000" stroke-width="1.25" stroke-linecap="round"/><path d="M258.64871,175.92574h5.07267" fill="none" stroke="#000000" stroke-width="1.25" stroke-linecap="round"/><path d="M258.79364,186.17228h4.63786" fill="none" stroke="#000000" stroke-width="1.25" stroke-linecap="round"/><path d="M256.76458,167.76325h3.62333" fill="none" stroke="#000000" stroke-width="1.25" stroke-linecap="round"/><path d="M248.79324,180.41368c0,-2.98837 6.0872,-4.64549 6.0872,-4.64549v9.29099c0,0 -6.0872,-1.65713 -6.0872,-4.64549z" fill="#000000" stroke="none" stroke-width="1.25" stroke-linecap="butt"/><path d="M250.68209,169.24823c0,4.49399 -2.86982,8.13711 -6.40993,8.13711c-3.5401,0 -6.40993,-3.64312 -6.40993,-8.13711c0,-4.49399 2.86982,-8.13711 6.40993,-8.13711c3.5401,0 6.40993,3.64312 6.40993,8.13711z" fill="#000000" stroke="none" stroke-width="0" stroke-linecap="butt"/><path d="M250.73916,191.7191c0,4.53836 -2.86983,8.21745 -6.40993,8.21745c-3.5401,0 -6.40992,-3.67909 -6.40992,-8.21745c0,-4.53836 2.86982,-8.21745 6.40992,-8.21745c3.5401,0 6.40993,3.67909 6.40993,8.21745z" fill="#000000" stroke="none" stroke-width="0" stroke-linecap="butt"/><path d="M241.32036,169.79545c0,-2.63645 1.97505,-4.77372 4.41139,-4.77372c2.43634,0 4.41139,2.13727 4.41139,4.77372c0,2.63645 -1.97505,4.77372 -4.41139,4.77372c-2.43634,0 -4.41139,-2.13727 -4.41139,-4.77372z" fill="#ff5858" stroke="none" stroke-width="0" stroke-linecap="butt"/><path d="M245.56468,169.95615c0,-1.15379 0.93533,-2.08911 2.08911,-2.08911c1.15379,0 2.08911,0.93533 2.08911,2.08911c0,1.15379 -0.93533,2.08911 -2.08911,2.08911c-1.15379,0 -2.08911,-0.93533 -2.08911,-2.08911z" fill="#000000" stroke="none" stroke-width="0" stroke-linecap="butt"/><path d="M245.32212,176.38418l6.58873,-2.08911" fill="none" stroke="#000000" stroke-width="1.5" stroke-linecap="round"/><path d="M252.63378,186.74916l-6.58873,-2.08911" data-paper-data="{&quot;index&quot;:null}" fill="none" stroke="#000000" stroke-width="1.5" stroke-linecap="round"/><path d="M259.59057,194.21338h-3.62333" fill="none" stroke="#000000" stroke-width="1.25" stroke-linecap="round"/></g></g></svg>