<svg version="1.1" xmlns="http://www.w3.org/2000/svg" xmlns:xlink="http://www.w3.org/1999/xlink" width="177.38934" height="158.66208" viewBox="0,0,177.38934,158.66208"><defs><linearGradient x1="170.92277" y1="225.68021" x2="226.10451" y2="225.68021" gradientUnits="userSpaceOnUse" id="color-1"><stop offset="0" stop-color="#dcd0e8"/><stop offset="1" stop-color="#ffffff"/></linearGradient><linearGradient x1="83.01468" y1="207.58985" x2="114.62067" y2="207.58985" gradientUnits="userSpaceOnUse" id="color-2"><stop offset="0" stop-color="#ffffff"/><stop offset="1" stop-color="#dcd0e8"/></linearGradient><linearGradient x1="94.57718" y1="152.77385" x2="173.93511" y2="232.13178" gradientUnits="userSpaceOnUse" id="color-3"><stop offset="0" stop-color="#f6f3f9"/><stop offset="1" stop-color="#e7def0"/></linearGradient><linearGradient x1="98.68408" y1="213.4027" x2="131.80646" y2="213.4027" gradientUnits="userSpaceOnUse" id="color-4"><stop offset="0" stop-color="#ffffff"/><stop offset="1" stop-color="#eae2f1"/></linearGradient><linearGradient x1="159.7821" y1="155.42754" x2="159.7821" y2="185.24994" gradientUnits="userSpaceOnUse" id="color-5"><stop offset="0" stop-color="#636363"/><stop offset="1" stop-color="#000000"/></linearGradient><linearGradient x1="134.08271" y1="212.39177" x2="185.13297" y2="212.39177" gradientUnits="userSpaceOnUse" id="color-6"><stop offset="0" stop-color="#ffffff"/><stop offset="1" stop-color="#dcd0e8"/></linearGradient><linearGradient x1="83.95973" y1="91.80219" x2="83.95973" y2="125.92105" gradientUnits="userSpaceOnUse" id="color-7"><stop offset="0" stop-color="#000000"/><stop offset="1" stop-color="#636363"/></linearGradient><linearGradient x1="76.7557" y1="108.5478" x2="121.27647" y2="153.06856" gradientUnits="userSpaceOnUse" id="color-8"><stop offset="0" stop-color="#ffffff"/><stop offset="1" stop-color="#e9e0f2"/></linearGradient><linearGradient x1="77.07548" y1="130.72296" x2="77.07548" y2="135.27214" gradientUnits="userSpaceOnUse" id="color-9"><stop offset="0" stop-color="#ffffff"/><stop offset="1" stop-color="#000000"/></linearGradient><linearGradient x1="102.0228" y1="114.87603" x2="102.0228" y2="133.50896" gradientUnits="userSpaceOnUse" id="color-10"><stop offset="0" stop-color="#000000"/><stop offset="1" stop-color="#636363"/></linearGradient><linearGradient x1="129.83063" y1="96.94415" x2="129.83063" y2="130.2175" gradientUnits="userSpaceOnUse" id="color-11"><stop offset="0" stop-color="#ffffff"/><stop offset="1" stop-color="#dcd0e8"/></linearGradient><linearGradient x1="135.8989" y1="102.79605" x2="135.8989" y2="115.93812" gradientUnits="userSpaceOnUse" id="color-12"><stop offset="0" stop-color="#000000"/><stop offset="1" stop-color="#000000" stop-opacity="0"/></linearGradient><linearGradient x1="133.37158" y1="115.93812" x2="133.37158" y2="121.2455" gradientUnits="userSpaceOnUse" id="color-13"><stop offset="0" stop-color="#000000"/><stop offset="1" stop-color="#000000" stop-opacity="0"/></linearGradient><linearGradient x1="141.20628" y1="116.19086" x2="141.20628" y2="125.03649" gradientUnits="userSpaceOnUse" id="color-14"><stop offset="0" stop-color="#000000"/><stop offset="1" stop-color="#000000" stop-opacity="0"/></linearGradient><linearGradient x1="143.60724" y1="109.11435" x2="143.60724" y2="115.68539" gradientUnits="userSpaceOnUse" id="color-15"><stop offset="0" stop-color="#000000"/><stop offset="1" stop-color="#000000" stop-opacity="0"/></linearGradient></defs><g transform="translate(-63.04013,-91.80219)"><g data-paper-data="{&quot;isPaintingLayer&quot;:true}" fill-rule="nonzero" stroke-linejoin="miter" stroke-miterlimit="10" stroke-dasharray="" stroke-dashoffset="0" style="mix-blend-mode: normal"><g><path d="M177.49883,215.5302l-4.57465,-31.16482l27.73383,25.16059l19.40117,9.9033l20.3703,8.86779l-19.84817,3.25279l-21.05675,-2.60723z" fill="url(#color-1)" stroke="none" stroke-width="0" stroke-linecap="butt"/><path d="M88.32206,244.83157l-2.02185,-8.84563l4.80953,-7.04076l-4.42279,-56.61951l21.34823,-4.07197l6.5855,40.50962l-0.51993,33.03546l-12.89612,4.87449z" fill="url(#color-2)" stroke="none" stroke-width="0" stroke-linecap="butt"/><path d="M110.49931,221.26429l-23.51304,-49.03121l1.57561,-8.30078l8.54262,-13.68576l35.63525,-11.87841l11.89711,16.9514l11.9968,10.52087l13.92403,14.23116l-0.16082,55.59848l-35.29378,-0.11622z" fill="url(#color-3)" stroke="none" stroke-width="0" stroke-linecap="butt"/><path d="M101.33777,249.00165l-2.52733,-9.85656l5.82046,-5.52437l0.59021,-61.54635l11.33917,-16.76832l11.94621,36.70448l2.16268,27.99939l-4.31091,26.84352l-10.87427,3.61084z" fill="url(#color-4)" stroke="none" stroke-width="0" stroke-linecap="butt"/><path d="M147.14549,170.08601l-2.27459,-14.65847l14.40574,11.62568l15.41666,18.19672l-14.95683,-3.39921z" fill="url(#color-5)" stroke="none" stroke-width="0" stroke-linecap="butt"/><path d="M142.09386,245.60469l-4.64173,-5.6031l2.38721,-6.23217l14.5402,-5.23693l-16.42774,-7.32595l-3.86909,-13.39185l3.46595,-19.20559l15.92917,-11.01433l20.86944,7.71836l10.7857,19.24208l-0.51855,16.99706l-5.9752,7.80301l2.44261,6.9365l-22.54465,11.26608z" fill="url(#color-6)" stroke="none" stroke-width="0" stroke-linecap="butt"/><path d="M73.72677,125.92105l-8.34557,-12.47042l6.70281,-21.64843l18.49952,0.8455l11.95472,6.73646l-3.79098,22.7459z" fill="url(#color-7)" stroke="none" stroke-width="0" stroke-linecap="butt"/><path d="M69.24078,156.24892l-6.20064,-13.99685l3.16785,-11.78184l10.33309,-2.76257l-1.46915,-13.61349l7.71355,-11.57615l21.49777,-8.54659l21.92411,6.1583l13.90891,16.19356l-7.03146,24.93694l-10.2648,8.41767l-17.0313,9.67442l-16.87274,1.37244z" fill="url(#color-8)" stroke="none" stroke-width="0" stroke-linecap="butt"/><path d="M84.4679,130.34386l2.27459,9.47746l-9.85656,2.65369l-9.09836,-2.65369l2.27459,-9.47746z" data-paper-data="{&quot;index&quot;:null}" fill="#000000" stroke="none" stroke-width="0" stroke-linecap="butt"/><path d="M70.82036,135.27214l0.7582,-4.54918h10.99385l-0.7582,4.54918z" fill="url(#color-9)" stroke="none" stroke-width="0" stroke-linecap="butt"/><path d="M97.80257,133.50896l-5.91402,-10.51446l9.26019,-8.11848l11.0083,3.96452l-1.58749,12.18528z" data-paper-data="{&quot;index&quot;:null}" fill="url(#color-10)" stroke="none" stroke-width="0" stroke-linecap="butt"/><path d="M86.85456,123.29061l-3.32223,3.49852l-4.99002,-0.3812l-0.79486,-5.94169l5.31701,-2.06334z" data-paper-data="{&quot;index&quot;:null}" fill="#000000" stroke="none" stroke-width="0" stroke-linecap="butt"/><path d="M115.67492,126.42652l-3.79098,-22.7459l11.95472,-6.73646l21.02684,-0.59277l4.93368,21.3957l-9.10377,12.47042z" data-paper-data="{&quot;index&quot;:null}" fill="url(#color-11)" stroke="none" stroke-width="0" stroke-linecap="butt"/><path d="M76.88593,140.20042l0.50546,7.07651" fill="none" stroke="#000000" stroke-width="1.5" stroke-linecap="round"/><path d="M130.97063,110.12529l5.05465,-7.32924l4.80191,5.30738l-5.30738,7.8347z" data-paper-data="{&quot;index&quot;:null}" fill="url(#color-12)" stroke="none" stroke-width="0" stroke-linecap="butt"/><path d="M130.21243,121.2455l2.27459,-5.30738l4.04371,5.30738z" fill="url(#color-13)" stroke="none" stroke-width="0" stroke-linecap="butt"/><path d="M137.0362,124.53103l0.50547,-6.06557l4.34181,1.30756l3.4929,-3.58215l-0.56646,6.09172l-2.97178,2.75391z" fill="url(#color-14)" stroke="none" stroke-width="0" stroke-linecap="butt"/><path d="M140.32172,115.68539l4.80191,-6.57103l1.76912,4.80192z" fill="url(#color-15)" stroke="none" stroke-width="0" stroke-linecap="butt"/></g></g></g></svg>