<svg version="1.1" xmlns="http://www.w3.org/2000/svg" xmlns:xlink="http://www.w3.org/1999/xlink" width="64.26517" height="64.26517" viewBox="0,0,64.26517,64.26517"><defs><radialGradient cx="240.00001" cy="180.00001" r="32.13252" gradientUnits="userSpaceOnUse" id="color-1"><stop offset="0" stop-color="#000000"/><stop offset="1" stop-color="#000000" stop-opacity="0"/></radialGradient><linearGradient x1="208.27844" y1="180.33582" x2="224.13253" y2="180.17736" gradientUnits="userSpaceOnUse" id="color-2"><stop offset="0" stop-color="#ffcccc"/><stop offset="1" stop-color="#ffffff"/></linearGradient><linearGradient x1="215.23091" y1="180.35362" x2="265.15946" y2="179.68009" gradientUnits="userSpaceOnUse" id="color-3"><stop offset="0" stop-color="#e44444"/><stop offset="1" stop-color="#e44b4b"/></linearGradient><linearGradient x1="214.90222" y1="178.8265" x2="239.53666" y2="179.30935" gradientUnits="userSpaceOnUse" id="color-4"><stop offset="0" stop-color="#ff3333"/><stop offset="1" stop-color="#ff1a1a"/></linearGradient><linearGradient x1="220.15947" y1="165.76023" x2="229.60638" y2="169.53505" gradientUnits="userSpaceOnUse" id="color-5"><stop offset="0" stop-color="#ffffff"/><stop offset="1" stop-color="#ffffff" stop-opacity="0"/></linearGradient><linearGradient x1="250.76451" y1="186.11087" x2="253.31485" y2="186.06643" gradientUnits="userSpaceOnUse" id="color-6"><stop offset="0" stop-color="#800000"/><stop offset="1" stop-color="#ff3737"/></linearGradient><linearGradient x1="251.00979" y1="173.59626" x2="253.56016" y2="173.55185" gradientUnits="userSpaceOnUse" id="color-7"><stop offset="0" stop-color="#800000"/><stop offset="1" stop-color="#ff3737"/></linearGradient><linearGradient x1="233.86918" y1="179.89286" x2="242.34966" y2="180.05908" gradientUnits="userSpaceOnUse" id="color-8"><stop offset="0" stop-color="#ff8181"/><stop offset="1" stop-color="#ff9a9a"/></linearGradient><linearGradient x1="251.69507" y1="179.90609" x2="265.63368" y2="180.17929" gradientUnits="userSpaceOnUse" id="color-9"><stop offset="0" stop-color="#ff8181"/><stop offset="1" stop-color="#ff9a9a"/></linearGradient><linearGradient x1="226.47364" y1="179.74789" x2="245.57364" y2="180.12228" gradientUnits="userSpaceOnUse" id="color-10"><stop offset="0" stop-color="#ff8181"/><stop offset="1" stop-color="#ff9a9a"/></linearGradient><linearGradient x1="227.45815" y1="177.24131" x2="232.79448" y2="177.34591" gradientUnits="userSpaceOnUse" id="color-11"><stop offset="0" stop-color="#ffffff"/><stop offset="1" stop-color="#ffffff" stop-opacity="0"/></linearGradient></defs><g transform="translate(-207.86741,-147.8674)"><g data-paper-data="{&quot;isPaintingLayer&quot;:true}" fill-rule="nonzero" stroke-linejoin="miter" stroke-miterlimit="10" stroke-dasharray="" stroke-dashoffset="0" style="mix-blend-mode: normal"><path d="M240.43344,212.12959c-17.74467,0.23938 -32.32366,-13.95149 -32.56304,-31.69616c-0.23938,-17.74467 13.95149,-32.32366 31.69616,-32.56304c17.74467,-0.23938 32.32366,13.95149 32.56304,31.69616c0.23938,17.74467 -13.95149,32.32366 -31.69616,32.56304z" fill="url(#color-1)" stroke="#000000" stroke-width="0" stroke-linecap="butt"/><path d="M216.28469,188.18363c-4.37797,0.04375 -7.9625,-3.46984 -8.00626,-7.84782c-0.04375,-4.37797 3.46984,-7.9625 7.84782,-8.00626c4.37797,-0.04375 7.9625,3.46984 8.00626,7.84782c0.04375,4.37797 -3.46984,7.9625 -7.84782,8.00626z" fill="url(#color-2)" stroke="none" stroke-width="0.5" stroke-linecap="butt"/><path d="M240.53195,204.98114c-13.78739,0.18599 -25.11506,-10.84011 -25.30104,-24.6275c-0.18599,-13.78739 10.84011,-25.11506 24.6275,-25.30104c13.78739,-0.18599 25.11506,10.84011 25.30104,24.6275c0.18599,13.78739 -10.84011,25.11506 -24.6275,25.30104z" fill="url(#color-3)" stroke="#000000" stroke-width="0" stroke-linecap="butt"/><path d="M232.02303,203.07554c-7.55122,0.30822 -17.15285,-9.64077 -17.13242,-23.4241c0.02044,-13.78335 10.30955,-24.08218 17.86074,-24.39038c7.55122,-0.30822 6.69678,10.82685 6.67631,24.6102c-0.02044,13.78335 0.14655,22.8961 -7.40465,23.2043z" fill="url(#color-4)" stroke="#000000" stroke-width="0" stroke-linecap="butt"/><path d="M236.40057,156.28386c0.48825,1.52627 -6.62937,4.68975 -11.55927,9.89466c-4.73416,4.99826 -7.26608,12.08015 -7.8763,11.85944c-0.97837,-0.35387 -0.51739,-6.9032 3.16731,-12.35288c3.21249,-4.7513 9.522,-8.46072 11.1474,-9.15037c2.85253,-1.21033 4.93716,-0.82511 5.12086,-0.25087z" data-paper-data="{&quot;index&quot;:null}" fill="url(#color-5)" stroke="none" stroke-width="0" stroke-linecap="butt"/><g stroke="none" stroke-width="0" stroke-linecap="butt"><path d="M246.46109,179.70003c4.30049,0.0843 7.72792,3.15087 7.65542,6.8494c-0.07248,3.69852 -3.61748,6.62845 -7.91794,6.54416c-4.30049,-0.0843 -7.72793,-3.15087 -7.65543,-6.8494c0.07248,-3.69852 3.61748,-6.62845 7.91796,-6.54416z" fill="#ffffff"/><g><path d="M250.06992,184.26583c2.00291,-0.03488 3.6328,0.5589 3.6454,1.82153c0.0126,1.26263 -1.60486,1.91294 -3.60776,1.94781c-2.00291,0.03488 -3.6328,-0.5589 -3.6454,-1.82153c-0.0126,-1.26263 1.60486,-1.91294 3.60776,-1.94781z" fill="#000000"/><path d="M248.06385,185.03097c0.71292,-0.01241 1.29589,0.48197 1.30211,1.10422c0.0062,0.62226 -0.56669,1.13676 -1.27958,1.14917c-0.71292,0.01241 -1.29587,-0.48197 -1.3021,-1.10422c-0.0062,-0.62226 0.56667,-1.13676 1.27958,-1.14917z" fill="#ffffff"/><path d="M251.09132,184.97824c1.35534,-0.02359 2.21733,0.46592 2.22354,1.08819c0.0062,0.62226 -0.84569,1.14161 -2.20103,1.16523c-0.39153,0.00682 0.2886,-0.5074 0.31368,-1.08525c0.02384,-0.54915 -0.62451,-1.16313 -0.33617,-1.16813z" fill="url(#color-6)"/></g></g><g stroke="none" stroke-width="0" stroke-linecap="butt"><path d="M246.7064,167.18543c4.30049,0.0843 7.72792,3.15087 7.65542,6.8494c-0.07248,3.69852 -3.61748,6.62845 -7.91794,6.54416c-4.30049,-0.0843 -7.72793,-3.15087 -7.65543,-6.8494c0.07248,-3.69852 3.61748,-6.62845 7.91796,-6.54416z" fill="#ffffff"/><g><path d="M250.31521,171.75122c2.00291,-0.03488 3.6328,0.5589 3.6454,1.82153c0.0126,1.26263 -1.60486,1.91294 -3.60776,1.94781c-2.00291,0.03488 -3.6328,-0.5589 -3.6454,-1.82153c-0.0126,-1.26263 1.60486,-1.91294 3.60776,-1.94781z" fill="#000000"/><path d="M248.30915,172.51639c0.71292,-0.01241 1.29589,0.48197 1.30211,1.10422c0.0062,0.62226 -0.56669,1.13676 -1.27958,1.14917c-0.71292,0.01241 -1.29587,-0.48197 -1.3021,-1.10422c-0.0062,-0.62226 0.56667,-1.13676 1.27958,-1.14917z" fill="#ffffff"/><path d="M251.33662,172.46365c1.35534,-0.02359 2.21733,0.46592 2.22354,1.08819c0.0062,0.62226 -0.84569,1.14161 -2.20103,1.16523c-0.39153,0.00682 0.2886,-0.5074 0.31368,-1.08525c0.02384,-0.54915 -0.62451,-1.16313 -0.33617,-1.16813z" fill="url(#color-7)"/></g></g><path d="M234.78309,154.51558c5.87811,-1.169 7.75857,15.74726 7.56657,25.54351c-0.19201,9.79622 -2.99977,26.59382 -10.28624,24.49805c-3.86607,-1.11198 2.30899,-14.85443 2.50101,-24.65063c0.19201,-9.79622 -4.55974,-24.4406 0.21868,-25.3909z" fill="url(#color-8)" stroke="none" stroke-width="0" stroke-linecap="butt"/><g><path d="M257.78453,164.3986c4.50406,0.08828 8.01825,7.15354 7.84915,15.78069c-0.16909,8.62715 -3.95746,15.54929 -8.46151,15.46099c-1.90096,-0.03725 -1.47269,-3.28869 -2.35865,-6.79671c-0.94573,-3.74468 -3.16213,-4.86205 -3.12968,-8.34439c0.03246,-3.48233 2.33454,-5.20752 3.29045,-8.89679c1.05085,-4.05578 0.82574,-7.2427 2.81025,-7.20381z" fill="url(#color-9)" stroke="none" stroke-width="0" stroke-linecap="butt"/><path d="M259.27287,169.10593c0,0 1.9292,4.13453 2.15535,9.13671c0.33172,7.33655 -1.60193,11.14728 -1.60193,11.14728" fill="none" stroke="#000000" stroke-width="1.25" stroke-linecap="round"/></g><g stroke="none" stroke-width="0" stroke-linecap="butt"><path d="M236.17501,172.21382c5.27431,0.10338 9.48225,3.64411 9.39866,7.90847c-0.08359,4.26435 -4.42704,7.63746 -9.70134,7.53408c-5.27431,-0.10338 -9.48225,-3.64411 -9.39866,-7.90847c0.08359,-4.26435 4.42704,-7.63746 9.70134,-7.53408z" fill="url(#color-10)"/><path d="M232.71996,173.76684c0.40586,0.00794 -0.74982,0.91714 -1.59862,2.46099c-0.60115,1.09344 -0.94667,2.83146 -0.92573,3.34532c0.06311,1.54737 1.22119,3.70571 0.81994,4.35845c-0.35098,0.57101 -2.55947,-1.02341 -3.35624,-3.04584c-0.55394,-1.40607 0.02457,-3.12225 0.50617,-4.03091c1.03467,-1.95224 3.99379,-3.09902 4.55449,-3.08803z" fill="url(#color-11)"/></g></g></g></svg>