<svg version="1.1" xmlns="http://www.w3.org/2000/svg" xmlns:xlink="http://www.w3.org/1999/xlink" width="75.47319" height="67.21756" viewBox="0,0,75.47319,67.21756"><defs><radialGradient cx="240.00007" cy="179.99999" r="32.79887" gradientUnits="userSpaceOnUse" id="color-1"><stop offset="0" stop-color="#000000"/><stop offset="1" stop-color="#000000" stop-opacity="0"/></radialGradient><linearGradient x1="233.77862" y1="182.51662" x2="254.96781" y2="182.51662" gradientUnits="userSpaceOnUse" id="color-2"><stop offset="0" stop-color="#ff6d6d"/><stop offset="1" stop-color="#f30000"/></linearGradient></defs><g transform="translate(-197.32575,-147.20113)"><g data-paper-data="{&quot;isPaintingLayer&quot;:true}" fill-rule="nonzero" stroke-width="0" stroke-linecap="butt" stroke-linejoin="miter" stroke-miterlimit="10" stroke-dasharray="" stroke-dashoffset="0" style="mix-blend-mode: normal"><path d="M240.00007,212.79887c-18.11432,0 -32.79887,-14.68456 -32.79887,-32.79887c0,-18.11432 14.68456,-32.79887 32.79887,-32.79887c18.11432,0 32.79887,14.68456 32.79887,32.79887c0,18.11432 -14.68456,32.79887 -32.79887,32.79887z" fill="url(#color-1)" stroke="#000000"/><path d="M212.54103,168.77114c3.05993,0 5.5405,2.99183 5.5405,6.68243c0,3.69059 -2.48056,6.68243 -5.5405,6.68243c-3.05993,0 -5.5405,-2.99182 -5.5405,-6.68243c0,-3.69059 2.48056,-6.68243 5.5405,-6.68243z" fill="#ff7474" stroke="none"/><path d="M207.97329,176.04568c1.79575,0 7.83335,-0.43369 9.5051,1.19552c2.22065,2.16414 -0.15817,6.80425 -0.15817,9.58941c0,2.92373 -1.29107,6.66883 -3.69992,9.20279c-1.61332,1.6971 -4.05453,2.85095 -5.7316,2.85095c-4.18113,0 -10.36199,-4.2959 -10.36199,-9.17777c0,-2.35345 -0.06648,-6.88143 1.91024,-9.6261c2.12368,-2.94872 6.37084,-4.0348 8.53634,-4.0348z" fill="#ff7474" stroke="none"/><path d="M206.98301,176.09997c0.16549,0 -0.07528,-2.99419 0.98226,-4.85231c0.37117,-0.65217 1.44578,-1.53218 2.39012,-2.00511c0.73616,-0.36866 1.42634,-0.4125 1.42634,-0.4125c0,0 0.74277,-0.08656 1.37407,-0.01839c0.60251,0.06506 1.08591,0.28113 1.44543,0.43629c0.82321,0.35528 2.25459,1.83366 2.25459,1.83366c0,0 0.51052,0.8613 0.87731,1.98078c0.1148,0.35037 0.11379,0.80231 0.20938,1.16302c0.43115,1.62683 -0.1935,3.59988 -0.21916,3.73023c-0.03485,0.17697 -0.09522,-2.32212 -0.64186,-3.87264c-0.32508,-0.92208 -0.84257,-1.53284 -0.86433,-1.4224c-0.17132,0.86982 -0.65595,3.33044 -0.65595,3.33044c0,0 0.07807,3.16312 0.12737,3.43256c0.05461,0.29841 -3.79716,0.91226 -5.61887,1.78912c-0.60254,0.29003 -1.03948,1.23033 -0.96459,1.37281c0.16962,0.32267 0.26554,1.08188 0.84939,1.57515c1.36002,1.14906 4.06338,2.19577 4.06338,3.0414c0,1.66922 -3.42711,4.09452 -4.06868,5.31845c-0.16591,0.3165 0.03977,1.23171 0.44296,1.90725c0.22945,0.38445 0.97056,0.43752 0.90899,0.5122c-0.10921,0.13245 0.49493,0.19043 1.62178,-0.34965c1.10365,-0.52896 2.76461,-1.31652 2.76461,-1.31652c0,0 -0.64305,1.19574 -1.83266,2.48471c-0.47079,0.51012 -1.19363,1.03483 -1.74334,1.50581c-1.2716,1.08948 -3.27602,1.67431 -3.48611,1.67431c-1.39408,0 -5.12392,-0.14279 -7.66756,-2.61012c-1.36136,-1.32053 -2.66891,-3.19207 -3.26705,-5.0761c-0.44708,-1.40825 -0.35785,-2.90745 -0.35785,-3.73312c0,-1.8681 0.50213,-5.43033 2.52841,-7.74783c2.3062,-2.63766 5.68554,-3.67149 7.12162,-3.67149z" fill="#ff1313" stroke="none"/><path d="M209.48187,176.22686c0.36789,0 8.27902,0.17126 8.27902,1.7129c0,1.54164 -0.34892,8.18386 -0.34892,8.18386l-0.85782,-0.19009c0,0 0.18831,-3.86055 0.04303,-4.46629c-0.27264,-1.13678 -1.05672,-3.14683 -1.05672,-3.14683c0,0 -6.42649,-2.09354 -6.0586,-2.09354z" fill="#d21d1d" stroke="none"/><path d="M220.31889,189.40427h-3.29892l0.88817,-13.76663h2.41075z" fill="#ba0b4f" stroke="none"/><path d="M219.93595,186.8032c1.78562,0 3.23317,1.46278 3.23317,3.2672c0,1.80443 -1.44754,3.2672 -3.23317,3.2672c-1.78562,0 -3.23317,-1.46278 -3.23317,-3.2672c0,-1.80443 1.44754,-3.2672 3.23317,-3.2672z" fill="#b0b0b0" stroke="none"/><path d="M218.47681,185.34406c1.78562,0 3.23317,1.46278 3.23317,3.2672c0,1.80443 -1.44754,3.2672 -3.23317,3.2672c-1.78562,0 -3.23317,-1.46278 -3.23317,-3.2672c0,-1.80443 1.44754,-3.2672 3.23317,-3.2672z" fill="#cecece" stroke="none"/><path d="M249.65935,148.82095c8.40897,0 9.89676,0.85378 9.89676,4.56773c0,3.71395 -2.37595,6.97848 -10.78493,6.97848c-2.23026,0 -4.11574,1.05582 -6.61477,1.48866c-6.92328,1.19912 -14.32068,2.69843 -14.32068,2.69843c0,0 -0.03671,-1.5604 1.18041,-3.61267c0.4627,-0.7802 0.78098,-1.1973 1.82885,-2.26343c4.82104,-4.90501 14.11423,-9.85721 18.81435,-9.85721z" fill="#e20000" stroke="none"/><path d="M230.84499,204.56147c-1.04787,-1.06612 -1.36614,-1.48324 -1.82885,-2.26342c-1.21712,-2.05227 -1.18041,-3.61267 -1.18041,-3.61267c0,0 7.01413,1.32914 13.86712,2.53665c2.56426,0.45183 4.77862,1.65045 7.06832,1.65045c8.40897,0 10.78493,3.26453 10.78493,6.97848c0,3.71396 -1.48779,4.56773 -9.89676,4.56773c-4.70012,0 -13.99332,-4.95218 -18.81435,-9.85721z" data-paper-data="{&quot;index&quot;:null}" fill="#dc0000" stroke="none"/><path d="M239.04419,161.70806c1.00811,0 13.05236,-2.14903 13.05236,-2.14903c0,0 2.79785,0.03951 4.01292,0.54904c1.70075,0.71319 5.2338,3.32846 5.2338,3.32846c0,0 1.88228,3.1156 2.97722,6.87315c1.0452,3.58685 0.92473,7.89679 0.92473,10.04995c0,1.97926 0.51036,7.68435 -0.75439,11.83004c-0.65811,2.15721 -1.1264,3.80134 -2.19263,5.24459c-1.07879,1.46023 -3.26061,3.56143 -3.26061,3.56143c0,0 -1.3743,1.39975 -3.9699,2.10287c-2.2825,0.6183 -5.65324,0.58282 -7.87655,0.17329c-1.38583,-0.25526 -4.8416,-1.59612 -5.6093,-1.59612c-0.99043,0 -5.93239,0.19393 -9.35981,-0.25929c-1.8793,-0.2485 -3.46272,-1.0209 -3.46272,-1.0209c0,0 -1.76082,-1.00479 -3.62859,-2.63753c-1.61845,-1.41478 -3.29916,-3.32817 -4.20546,-5.13594c-0.97258,-1.93997 -1.74937,-4.75857 -1.72014,-7.23177c0.01983,-1.67919 0.74343,-3.08192 0.74343,-4.39625c0,-1.58274 -0.51658,-3.38693 -0.35158,-5.20302c0.27387,-3.01425 1.53474,-6.06133 3.60476,-8.18315c0.9717,-0.99601 1.92643,-2.20558 3.19712,-2.92011c4.35632,-2.44969 10.0874,-2.97969 12.64535,-2.97969z" fill="url(#color-2)" stroke="none"/><path d="M261.79587,166.593c0.80524,0 1.99241,0.23197 1.99241,0.23197c0,0 1.11326,2.60432 1.37487,5.43212c0.28312,3.0602 0.2491,6.67931 0.2491,8.48319c0,1.50946 0.13305,5.27041 -0.06796,7.85027c-0.32423,4.16105 -1.41667,7.34909 -1.41667,7.34909c0,0 -1.26704,0.40707 -1.93448,0.40707c-0.98664,0 -3.05476,-0.76549 -4.43749,-4.08742c-1.1619,-2.79142 -1.74322,-7.90999 -1.74322,-10.75771c0,-2.89796 0.40226,-7.08662 1.57829,-9.78985c1.35489,-3.11434 3.43315,-5.11873 4.40515,-5.11873z" fill="#ff9a9a" stroke="none"/><path d="M258.48925,178.23676c0.8579,0 1.55335,1.47784 1.55335,3.30086c0,1.82302 -0.69546,3.30086 -1.55335,3.30086c-0.8579,0 -1.55335,-1.47784 -1.55335,-3.30086c0,-1.82302 0.69546,-3.30086 1.55335,-3.30086z" fill="#000000" stroke="none"/><path d="M251.04554,189.53115c0.73658,0 1.67244,-0.09007 2.32016,0.15965c1.10847,0.42735 1.74005,1.36036 1.74005,1.90217c0,0.85841 -2.06308,1.42742 -4.06021,1.42742c-0.52101,0 -0.98307,0.05793 -1.47525,-0.05923c-0.63232,-0.15052 0.74396,2.57499 0.2875,2.28077c-0.26791,-0.17269 -1.7173,-0.87517 -2.35286,-1.78588c-0.66963,-0.95953 -0.77338,-1.93892 -0.77338,-2.11683c0,-0.1632 -0.04999,-1.01887 0.02203,-1.62267c0.05456,-0.45745 0.45994,-0.87958 0.60134,-1.02128c0.24717,-0.24768 0.71183,0.99226 1.13645,0.86245c0.69846,-0.21354 1.72713,-0.02655 2.55416,-0.02655z" fill="#000000" stroke="none"/><path d="M247.92041,173.11627c-0.42462,-0.12983 -0.88929,1.11013 -1.13645,0.86245c-0.1414,-0.1417 -0.54678,-0.56382 -0.60135,-1.02127c-0.07202,-0.60382 -0.02202,-1.45948 -0.02202,-1.62268c0,-0.17792 0.10375,-1.15731 0.77338,-2.11684c0.63555,-0.91071 2.08494,-1.6132 2.35286,-1.78589c0.45646,-0.29424 -0.91982,2.43128 -0.2875,2.28077c0.49218,-0.11717 0.95424,-0.05923 1.47525,-0.05923c1.99714,0 4.06021,0.569 4.06021,1.42742c0,0.54181 -0.63159,1.47484 -1.74006,1.90219c-0.64771,0.24972 -1.58357,0.15964 -2.32016,0.15964c-0.82704,0 -1.85569,0.18699 -2.55416,-0.02655z" data-paper-data="{&quot;index&quot;:null}" fill="#000000" stroke="none"/><path d="M251.66223,189.98437c0.79419,0 1.43798,0.39764 1.43798,0.88817c0,0.49053 -0.6438,0.88818 -1.43798,0.88818c-0.79419,0 -1.43799,-0.39765 -1.43799,-0.88818c0,-0.49053 0.64381,-0.88817 1.43799,-0.88817z" fill="#ffffff" stroke="none"/><path d="M251.40846,170.86756c0.79419,0 1.43799,0.39765 1.43799,0.88818c0,0.49053 -0.64381,0.88817 -1.43799,0.88817c-0.79419,0 -1.43798,-0.39764 -1.43798,-0.88817c0,-0.49053 0.6438,-0.88818 1.43798,-0.88818z" fill="#ffffff" stroke="none"/><path d="M239.10079,197.51266c0,0 -1.04556,0.16715 -2.06548,0.2521c-0.4292,0.03575 0.79559,2.46768 0.45532,2.45572c-0.32642,-0.01147 -2.22467,-2.46419 -2.32537,-2.55304c-0.23097,-0.20383 -2.1401,-3.38237 -2.1401,-3.38237c0,0 1.41214,0.66798 2.4146,1.06623c0.79899,0.31742 1.58494,0.10286 1.5337,-0.0092c-0.20674,-0.45209 -0.10208,-1.09749 -0.26305,-1.85172c-0.29332,-1.37446 -0.78166,-2.91392 -0.78166,-2.91392c0,0 -1.2276,-2.96639 -2.36801,-4.59761c-1.08421,-1.55084 -3.93377,-4.96079 -3.93377,-4.96079c0,0 4.36436,-3.99444 5.33498,-5.73911c1.20553,-2.16691 2.74313,-9.10602 2.74313,-9.10602c0,0 -0.2609,0.33364 -0.76365,0.76547c-0.87666,0.75303 -4.03094,3.35291 -4.03094,3.35291c0,0 1.15433,-2.43799 1.56655,-3.51355c0.40394,-1.05393 0.88241,-2.87624 0.88241,-2.87624c0,0 -1.3863,0.17569 -2.93655,0.4374c-0.78841,0.1331 -1.65256,0.30326 -2.17645,0.38526c-0.1748,0.02736 -2.00941,1.04974 -4.04573,2.28083c-2.23273,1.34983 -4.67375,2.91637 -4.61679,2.87882c0.10215,-0.06732 0.83771,-1.43118 1.96065,-2.60555c1.42791,-1.49331 3.29957,-2.86288 3.29957,-2.86288c0,0 1.78882,-1.13371 3.62406,-1.87054c1.54789,-0.62146 3.15323,-0.86294 3.49987,-0.88882c1.22876,-0.09172 4.83238,-0.02236 4.83238,-0.02236l-0.61939,2.05368l1.6387,-0.26354c0,0 0.12584,1.82229 -0.29773,3.97529c-0.57852,2.94059 -1.8159,6.57129 -2.43152,7.69203c-1.12932,2.05593 -4.92593,5.92691 -4.92593,5.92691c0,0 2.21946,2.88569 3.28733,4.43275c0.51789,0.75026 1.75222,3.26919 2.47849,5.86623c0.85574,3.06 1.17036,6.19563 1.17036,6.19563z" fill="#e00000" stroke="none"/><path d="M237.19414,195.49458c0,0 -2.18162,0.19633 -1.41707,-0.14342c0.67488,-0.29989 -0.5571,-4.06689 -0.91662,-4.94103c-0.42482,-1.03292 -1.219,-2.78222 -1.219,-2.78222c0,0 -2.04088,-2.99248 -3.2672,-4.21881c-0.74852,-0.7485 -3.39408,-2.44247 -3.39408,-2.44247c0,0 2.48617,-1.75907 3.41642,-2.67161c0.5546,-0.54404 2.76185,-2.72797 4.30665,-5.422c0.47886,-0.8351 0.91188,-1.70675 1.2904,-2.53909c0.52168,-1.14711 -3.78,0.34358 -3.78,0.34358l1.13736,-4.00349c0,0 -1.13459,-0.40215 -2.11029,-0.23892c-0.62064,0.10383 -2.39218,0.26137 -4.31871,1.95916c-1.63624,1.44196 -3.54234,3.05858 -4.87793,4.57455c-1.10997,1.25987 -1.80629,2.56797 -1.80629,2.56797c0,0 -0.08814,-1.8451 0.97913,-4.018c0.51966,-1.058 1.82407,-2.03348 2.85625,-3.1612c0.90074,-0.98413 3.39095,-2.17231 4.39016,-2.94822c1.0296,-0.79953 3.31669,-1.13522 4.62403,-1.33421c1.62481,-0.24731 2.62954,-0.2489 2.6471,-0.26229c0.232,-0.17698 -2.40641,6.01595 -2.1139,5.78928c0.67653,-0.52426 1.42069,-1.11318 1.7966,-1.45129c0.82665,-0.74355 2.28453,-2.21968 2.28453,-2.21968c0,0 -0.05018,2.55106 -0.40248,3.92918c-0.36616,1.43233 -1.75452,4.50844 -1.75452,4.50844c0,0 -1.44238,2.42703 -2.21429,3.43052c-0.90007,1.17011 -3.62226,3.23076 -3.62226,3.23076c0,0 2.0724,2.13584 2.91828,3.23548c0.36974,0.48065 2.17996,2.43274 3.02941,4.76379c1.09395,3.00191 1.53831,6.46522 1.53831,6.46522z" fill="#ff0000" stroke="none"/><path d="M236.30597,201.64833c0,0 -4.23469,-0.06017 -5.53148,-0.46905c-0.9134,-0.28802 -2.71583,-1.1804 -2.71583,-1.1804l7.54946,0.50752c0,0 -1.86163,-2.93411 -2.33841,-4.02074c-0.42703,-0.97325 -0.38953,-2.38677 -0.38953,-2.38677l4.82149,6.53439z" fill="#ff0000" stroke="none"/></g></g></svg>