<svg version="1.1" xmlns="http://www.w3.org/2000/svg" xmlns:xlink="http://www.w3.org/1999/xlink" width="48.875" height="48.875" viewBox="0,0,48.875,48.875"><defs><radialGradient cx="240" cy="179.99999" r="18.10891" gradientUnits="userSpaceOnUse" id="color-1"><stop offset="0" stop-color="#ff5858"/><stop offset="1" stop-color="#ff0000"/></radialGradient></defs><g transform="translate(-215.5625,-155.5625)"><g data-paper-data="{&quot;isPaintingLayer&quot;:true}" fill-rule="nonzero" stroke="none" stroke-width="0" stroke-linecap="butt" stroke-linejoin="miter" stroke-miterlimit="10" stroke-dasharray="" stroke-dashoffset="0" style="mix-blend-mode: normal"><path d="M221.89108,190.98644v-21.80289c0,0 0.72507,-3.07882 2.45151,-4.806c1.72644,-1.72717 4.80332,-2.45151 4.80332,-2.45151h21.70818c0,0 2.88918,0.61332 4.62318,2.33142c1.734,1.7181 2.63164,4.86603 2.63164,4.86603v21.93798c0,0 -0.81002,3.07928 -2.54157,4.75766c-1.73156,1.67838 -4.83335,2.25482 -4.83335,2.25482h-21.58808c0,0 -3.10719,-0.64893 -4.83335,-2.37491c-1.72616,-1.72598 -2.42148,-4.71261 -2.42148,-4.71261z" fill="url(#color-1)"/><path d="M215.5625,204.4375v-48.875h48.875v48.875z" fill="none"/></g></g></svg>