<svg version="1.1" xmlns="http://www.w3.org/2000/svg" xmlns:xlink="http://www.w3.org/1999/xlink" width="69.39169" height="65.89165" viewBox="0,0,69.39169,65.89165"><defs><radialGradient cx="239.99999" cy="179.58345" r="31.5611" gradientUnits="userSpaceOnUse" id="color-1"><stop offset="0" stop-color="#000000"/><stop offset="1" stop-color="#000000" stop-opacity="0"/></radialGradient><linearGradient x1="241.79098" y1="150.7918" x2="241.79098" y2="213.914" gradientUnits="userSpaceOnUse" id="color-2"><stop offset="0" stop-color="#ff7d7d"/><stop offset="1" stop-color="#eb0000"/></linearGradient><linearGradient x1="209.54967" y1="171.92305" x2="209.54967" y2="185.91603" gradientUnits="userSpaceOnUse" id="color-3"><stop offset="0" stop-color="#ff7d7d"/><stop offset="1" stop-color="#eb0000"/></linearGradient><linearGradient x1="224.67784" y1="162.34521" x2="211.29187" y2="166.4219" gradientUnits="userSpaceOnUse" id="color-4"><stop offset="0" stop-color="#ff7d7d"/><stop offset="1" stop-color="#eb0000"/></linearGradient></defs><g transform="translate(-202.1694,-148.02234)"><g data-paper-data="{&quot;isPaintingLayer&quot;:true}" fill-rule="nonzero" stroke-width="0" stroke-linecap="butt" stroke-linejoin="miter" stroke-miterlimit="10" stroke-dasharray="" stroke-dashoffset="0" style="mix-blend-mode: normal"><path d="M271.5611,179.58345c0,17.43072 -14.13039,31.5611 -31.5611,31.5611c-17.43072,0 -31.5611,-14.13039 -31.5611,-31.5611c0,-17.43072 14.13039,-31.5611 31.5611,-31.5611c17.43072,0 31.5611,14.13039 31.5611,31.5611z" fill="url(#color-1)" stroke="#000000"/><path d="M244.5754,207.86959c-13.35975,-4.47729 -27.46617,-12.29703 -27.46617,-27.46617c0,-15.16914 12.29703,-27.46617 27.46617,-27.46617c1.7617,0 16.46328,-3.34306 18.11216,-1.68301c2.51584,2.53288 -8.07165,12.08889 -5.60349,15.06274c2.7144,3.27053 8.82899,3.37016 9.29303,5.95769c1.27004,7.08209 -10.53207,1.73906 -10.53207,9.50236c0,3.28537 11.18965,11.5431 10.26017,15.0992c-1.25934,4.81815 -12.16749,-3.07182 -12.08876,2.07242c0.13685,8.94102 5.30009,11.47043 3.65947,13.54112c-3.44486,4.34788 -6.60587,-2.44362 -13.1005,-4.62018z" fill="url(#color-2)" stroke="#000000"/><path d="M241.99474,161.36368c3.08261,-0.19766 5.89374,3.50704 6.27882,8.27467c0.38508,4.76763 -1.8017,8.7928 -4.88431,8.99045c-3.08261,0.19766 -5.89374,-3.50705 -6.27882,-8.27468c-0.38508,-4.76763 1.8017,-8.79279 4.88431,-8.99044z" fill="#ffffff" stroke="none"/><path d="M242.3557,180.83952c3.08261,-0.19766 5.89374,3.50704 6.27882,8.27467c0.38508,4.76763 -1.8017,8.7928 -4.88431,8.99045c-3.08261,0.19766 -5.89375,-3.50703 -6.27883,-8.27467c-0.38508,-4.76763 1.80171,-8.79279 4.88432,-8.99045z" fill="#ffffff" stroke="none"/><path d="M208.24125,185.89528c0,0 -4.91194,0.62091 -5.82529,-4.93022c-1.22457,-7.44265 2.51062,-9.04201 2.51062,-9.04201l12.00336,8.64193z" fill="url(#color-3)" stroke="none"/><path d="M210.93053,165.16419c0,0 -2.02501,-4.51797 3.01922,-7.00895c6.76302,-3.33978 9.38121,-0.23257 9.38121,-0.23257l-4.77001,14.00038z" fill="url(#color-4)" stroke="none"/><g fill="#000000" stroke="none"><path d="M246.12868,179.27917l-5.77386,-18.00374l3.52929,-1.72682c0,0 2.30826,14.07287 2.67892,17.33108c0.15021,1.32038 -0.43436,2.39948 -0.43436,2.39948z" data-paper-data="{&quot;index&quot;:null}"/><path d="M248.43124,159.55609l3.5371,1.70859l-5.69192,18.03333z" data-paper-data="{&quot;index&quot;:null}"/></g><g data-paper-data="{&quot;index&quot;:null}" fill="#000000" stroke="none"><path d="M246.50347,181.99044c-0.41676,3.25188 -2.92407,17.28606 -2.92407,17.28606l-3.50443,-1.78332l6.02819,-17.90893c0,0 0.56921,1.08836 0.40032,2.40619z" data-paper-data="{&quot;index&quot;:null}"/><path d="M246.25114,179.56779l5.43587,18.12273l-3.5609,1.65157z" data-paper-data="{&quot;index&quot;:null}"/></g></g></g></svg>