<svg version="1.1" xmlns="http://www.w3.org/2000/svg" xmlns:xlink="http://www.w3.org/1999/xlink" width="156.5" height="197.7465" viewBox="0,0,156.5,197.7465"><defs><radialGradient cx="257.5" cy="180" r="78.25" gradientUnits="userSpaceOnUse" id="color-1"><stop offset="0" stop-color="#000000"/><stop offset="1" stop-color="#000000" stop-opacity="0"/></radialGradient><radialGradient cx="257.5" cy="120" r="38.87325" gradientUnits="userSpaceOnUse" id="color-2"><stop offset="0" stop-color="#000000" stop-opacity="0.50196"/><stop offset="1" stop-color="#000000" stop-opacity="0"/></radialGradient><radialGradient cx="257.5" cy="240" r="38.87325" gradientUnits="userSpaceOnUse" id="color-3"><stop offset="0" stop-color="#000000" stop-opacity="0.50196"/><stop offset="1" stop-color="#000000" stop-opacity="0"/></radialGradient><linearGradient x1="232.26382" y1="117.16164" x2="300.7093" y2="117.16164" gradientUnits="userSpaceOnUse" id="color-4"><stop offset="0" stop-color="#ff0000"/><stop offset="1" stop-color="#800000"/></linearGradient><linearGradient x1="232.26382" y1="243.88322" x2="300.7093" y2="243.88322" gradientUnits="userSpaceOnUse" id="color-5"><stop offset="0" stop-color="#ff0000"/><stop offset="1" stop-color="#800000"/></linearGradient><linearGradient x1="288.52832" y1="181.74015" x2="310.95678" y2="181.74015" gradientUnits="userSpaceOnUse" id="color-6"><stop offset="0" stop-color="#ffffff"/><stop offset="1" stop-color="#ff0000"/></linearGradient><linearGradient x1="293.4397" y1="159.46371" x2="314.1455" y2="150.84365" gradientUnits="userSpaceOnUse" id="color-7"><stop offset="0" stop-color="#ffffff"/><stop offset="1" stop-color="#ff0000"/></linearGradient><linearGradient x1="293.4397" y1="202.93511" x2="314.1455" y2="211.55518" gradientUnits="userSpaceOnUse" id="color-8"><stop offset="0" stop-color="#ffffff"/><stop offset="1" stop-color="#ff0000"/></linearGradient><linearGradient x1="224.34008" y1="180.96674" x2="274.99747" y2="180.96674" gradientUnits="userSpaceOnUse" id="color-9"><stop offset="0" stop-color="#000000"/><stop offset="1" stop-color="#800000"/></linearGradient><linearGradient x1="249.66214" y1="180.31564" x2="292.58009" y2="179.6304" gradientUnits="userSpaceOnUse" id="color-10"><stop offset="0" stop-color="#bf0000"/><stop offset="1" stop-color="#ff0000"/></linearGradient><linearGradient x1="234.58401" y1="241.14463" x2="262.42623" y2="241.14463" gradientUnits="userSpaceOnUse" id="color-11"><stop offset="0" stop-color="#ff0000"/><stop offset="1" stop-color="#800000"/></linearGradient><linearGradient x1="234.58401" y1="118.85539" x2="262.42623" y2="118.85539" gradientUnits="userSpaceOnUse" id="color-12"><stop offset="0" stop-color="#ff0000"/><stop offset="1" stop-color="#800000"/></linearGradient></defs><g transform="translate(-179.25,-81.12675)"><g data-paper-data="{&quot;isPaintingLayer&quot;:true}" fill-rule="nonzero" stroke-width="0" stroke-linecap="butt" stroke-linejoin="miter" stroke-miterlimit="10" stroke-dasharray="" stroke-dashoffset="0" style="mix-blend-mode: normal"><path d="M179.25,180c0,-43.21628 35.03372,-78.25 78.25,-78.25c43.21628,0 78.25,35.03372 78.25,78.25c0,43.21628 -35.03372,78.25 -78.25,78.25c-43.21628,0 -78.25,-35.03372 -78.25,-78.25z" fill="url(#color-1)" stroke="#ff0000"/><path d="M218.62675,120c0,-21.4691 17.40415,-38.87325 38.87325,-38.87325c21.4691,0 38.87325,17.40415 38.87325,38.87325c0,21.4691 -17.40415,38.87325 -38.87325,38.87325c-21.4691,0 -38.87325,-17.40415 -38.87325,-38.87325z" fill="url(#color-2)" stroke="#ff0000"/><path d="M218.62675,240c0,-21.4691 17.40415,-38.87325 38.87325,-38.87325c21.4691,0 38.87325,17.40415 38.87325,38.87325c0,21.4691 -17.40415,38.87325 -38.87325,38.87325c-21.4691,0 -38.87325,-17.40415 -38.87325,-38.87325z" fill="url(#color-3)" stroke="#ff0000"/><path d="M220.08362,138.69177l-18.14733,-22.5104l32.15725,18.76105l44.35215,-20.98878l13.00789,-19.43981l-1.65985,21.40214l18.26282,11.40073l-106.44044,32.06148z" data-paper-data="{&quot;index&quot;:null}" fill="url(#color-4)" stroke="none"/><path d="M201.61611,201.66667l106.44044,32.06148l-18.26282,11.40073l1.65985,21.40214l-13.00789,-19.43982l-44.35215,-20.98878l-32.15725,18.76106l18.14733,-22.5104z" data-paper-data="{&quot;index&quot;:null}" fill="url(#color-5)" stroke="none"/><path d="M281.95446,180.58006l29.00232,-12.76102v27.84223z" fill="url(#color-6)" stroke="#ff0000"/><path d="M286.92489,160.91931l21.87023,-22.92753l10.70077,25.70375z" fill="url(#color-7)" stroke="#ff0000"/><path d="M319.49589,198.7033l-10.70077,25.70376l-21.87023,-22.92753z" data-paper-data="{&quot;index&quot;:null}" fill="url(#color-8)" stroke="#ff0000"/><path d="M224.34008,219.84l-23.97526,-40.42005l23.97526,-37.32645h50.65739v77.7465z" fill="url(#color-9)" stroke="#ff0000"/><path d="M255.96118,213.03036c0,0 15.2132,-4.79396 15.35957,-32.665c0.14706,-28.0009 -17.1436,-32.16028 -17.1436,-32.16028l28.68294,-20.2348c0,0 14.8313,12.77751 15.92532,52.74763c0.92818,33.91124 -14.25852,51.64742 -14.25852,51.64742z" fill="url(#color-10)" stroke="#ff0000"/><path d="M265.90651,219.84l5.51044,-38.87325l22.33179,21.72329z" fill="#000000" stroke="#ff0000"/><path d="M270.83691,180.96675l-4.93039,-38.87324l27.84222,21.7233z" fill="#000000" stroke="#ff0000"/><path d="M276.15756,167.21403v-15.21029l14.30068,12.02004z" fill="#ffffff" stroke="#ff0000"/><path d="M290.45824,199.35985l-14.30068,11.73001v-15.21029z" data-paper-data="{&quot;index&quot;:null}" fill="#ffffff" stroke="#ff0000"/><path d="M261.65283,278.33333l-33.69655,-28.72655l16.68187,-25.1172l31.3225,10.03867l-27.06884,16.42691z" fill="url(#color-11)" stroke="#ff0000"/><path d="M248.89181,109.04486l27.06884,16.42691l-31.3225,10.03866l-16.68187,-25.1172l33.69655,-28.72657z" data-paper-data="{&quot;index&quot;:null}" fill="url(#color-12)" stroke="#ff0000"/></g></g></svg>