<svg version="1.1" xmlns="http://www.w3.org/2000/svg" xmlns:xlink="http://www.w3.org/1999/xlink" width="88.89652" height="89.08184" viewBox="0,0,88.89652,89.08184"><defs><radialGradient cx="213.70401" cy="152.94038" r="19.99257" gradientUnits="userSpaceOnUse" id="color-1"><stop offset="0" stop-color="#000000" stop-opacity="0.50196"/><stop offset="1" stop-color="#000000" stop-opacity="0"/></radialGradient><radialGradient cx="248.43049" cy="187.85219" r="34.17747" gradientUnits="userSpaceOnUse" id="color-2"><stop offset="0" stop-color="#000000"/><stop offset="1" stop-color="#000000" stop-opacity="0"/></radialGradient><linearGradient x1="203.30155" y1="162.50511" x2="221.36521" y2="144.44145" gradientUnits="userSpaceOnUse" id="color-3"><stop offset="0" stop-color="#ff0000"/><stop offset="1" stop-color="#ff8080"/></linearGradient><linearGradient x1="247.82851" y1="187.06489" x2="240.59553" y2="179.83191" gradientUnits="userSpaceOnUse" id="color-4"><stop offset="0" stop-color="#808080"/><stop offset="1" stop-color="#000000"/></linearGradient><linearGradient x1="236.90928" y1="148.92669" x2="236.90928" y2="174.89669" gradientUnits="userSpaceOnUse" id="color-5"><stop offset="0" stop-color="#5c5c5c"/><stop offset="1" stop-color="#000000"/></linearGradient><linearGradient x1="245.23127" y1="202.0977" x2="229.11458" y2="185.981" gradientUnits="userSpaceOnUse" id="color-6"><stop offset="0" stop-color="#000000"/><stop offset="1" stop-color="#808080"/></linearGradient><linearGradient x1="262.57446" y1="184.46304" x2="246.74924" y2="168.63782" gradientUnits="userSpaceOnUse" id="color-7"><stop offset="0" stop-color="#000000"/><stop offset="1" stop-color="#808080"/></linearGradient><linearGradient x1="259.22242" y1="181.111" x2="250.10128" y2="171.98986" gradientUnits="userSpaceOnUse" id="color-8"><stop offset="0" stop-color="#808080"/><stop offset="1" stop-color="#000000"/></linearGradient><linearGradient x1="241.7335" y1="198.59992" x2="232.61236" y2="189.47879" gradientUnits="userSpaceOnUse" id="color-9"><stop offset="0" stop-color="#808080"/><stop offset="1" stop-color="#000000"/></linearGradient><linearGradient x1="243.45628" y1="182.69266" x2="236.2233" y2="175.45968" gradientUnits="userSpaceOnUse" id="color-10"><stop offset="0" stop-color="#000000"/><stop offset="1" stop-color="#808080"/></linearGradient><radialGradient cx="252.32999" cy="191.99898" r="12.16043" gradientUnits="userSpaceOnUse" id="color-11"><stop offset="0" stop-color="#ff8080"/><stop offset="1" stop-color="#ff0000"/></radialGradient><radialGradient cx="257.13945" cy="196.51695" r="16.48871" gradientUnits="userSpaceOnUse" id="color-12"><stop offset="0" stop-color="#ff8080"/><stop offset="1" stop-color="#ff0000"/></radialGradient><radialGradient cx="262.86015" cy="202.23765" r="19.99257" gradientUnits="userSpaceOnUse" id="color-13"><stop offset="0" stop-color="#ff8080"/><stop offset="1" stop-color="#ff0000"/></radialGradient><linearGradient x1="239.84487" y1="187.18949" x2="247.81203" y2="179.22232" gradientUnits="userSpaceOnUse" id="color-14"><stop offset="0" stop-color="#ffffff"/><stop offset="1" stop-color="#ff0000"/></linearGradient></defs><g transform="translate(-193.71144,-132.94782)"><g data-paper-data="{&quot;isPaintingLayer&quot;:true}" fill-rule="nonzero" stroke-linejoin="miter" stroke-miterlimit="10" stroke-dasharray="" stroke-dashoffset="0" style="mix-blend-mode: normal"><path d="M227.84089,167.07726c-7.80758,7.80758 -20.46618,7.80758 -28.27376,0c-7.80758,-7.80758 -7.80758,-20.46618 0,-28.27376c7.80758,-7.80758 20.46618,-7.80758 28.27376,0c7.80758,7.80758 7.80758,20.46618 0,28.27376z" fill="url(#color-1)" stroke="#ff0000" stroke-width="0" stroke-linecap="butt"/><path d="M272.59762,212.01931c-13.34713,13.34713 -34.98711,13.34713 -48.33425,0c-13.34713,-13.34713 -13.34713,-34.98711 0,-48.33425c13.34713,-13.34713 34.98711,-13.34713 48.33425,0c13.34713,13.34713 13.34713,34.98711 0,48.33425z" fill="url(#color-2)" stroke="#ff0000" stroke-width="0" stroke-linecap="butt"/><path d="M219.36084,155.71919l-3.71899,3.71899l-16.97697,-1.56974l18.06366,-18.06366z" fill="url(#color-3)" stroke="none" stroke-width="0" stroke-linecap="butt"/><path d="M269.17011,165.7233l-28.82631,15.12666l-14.23962,27.93928l-12.40017,-2.0658l53.78306,-53.78306z" fill="url(#color-4)" stroke="#ff0000" stroke-width="0" stroke-linecap="butt"/><path d="M218.1254,158.78129c0,0 3.2026,8.71352 12.87631,4.56073c6.07122,-2.60629 13.39925,-20.0037 21.2902,-12.59049c8.03576,7.54925 -0.68862,24.14516 -0.68862,24.14516" fill="none" stroke="url(#color-5)" stroke-width="10" stroke-linecap="round"/><path d="M230.78091,157.69173c0,0 2.5049,1.25793 1.92919,5.5189c-0.71874,5.31956 -2.89554,5.55641 -2.89554,5.55641" fill="none" stroke="#ffffff" stroke-width="3.5" stroke-linecap="round"/><path d="M236.47996,151.75543c0,0 1.81784,-1.48575 3.69825,3.94499c1.36221,3.93415 -1.43658,6.94449 -1.43658,6.94449" fill="none" stroke="#ff0000" stroke-width="3.5" stroke-linecap="round"/><path d="M245.23127,202.0977c-4.4505,4.4505 -11.6662,4.4505 -16.1167,0c-4.4505,-4.4505 -4.4505,-11.66619 0,-16.1167c4.4505,-4.4505 11.6662,-4.4505 16.1167,0c4.4505,4.4505 4.4505,11.6662 0,16.1167z" fill="url(#color-6)" stroke="none" stroke-width="0" stroke-linecap="butt"/><path d="M262.57446,184.46304c-4.37001,4.37001 -11.45521,4.37001 -15.82522,0c-4.37001,-4.37001 -4.37001,-11.4552 0,-15.82522c4.37001,-4.37001 11.45521,-4.37001 15.82522,0c4.37001,4.37001 4.37001,11.45521 0,15.82522z" fill="url(#color-7)" stroke="none" stroke-width="0" stroke-linecap="butt"/><path d="M259.22242,181.111c-2.51873,2.51873 -6.6024,2.51873 -9.12113,0c-2.51873,-2.51873 -2.51873,-6.6024 0,-9.12113c2.51873,-2.51873 6.6024,-2.51873 9.12113,0c2.51873,2.51873 2.51873,6.6024 0,9.12113z" fill="url(#color-8)" stroke="none" stroke-width="0" stroke-linecap="butt"/><path d="M241.7335,198.59992c-2.51873,2.51873 -6.6024,2.51873 -9.12113,0c-2.51873,-2.51873 -2.51873,-6.6024 0,-9.12113c2.51873,-2.51873 6.6024,-2.51873 9.12113,0c2.51873,2.51873 2.51873,6.6024 0,9.12113z" fill="url(#color-9)" stroke="none" stroke-width="0" stroke-linecap="butt"/><path d="M252.13018,174.01876l-17.3478,17.3478l-7.23298,-7.23298l17.3478,-17.3478z" fill="url(#color-10)" stroke="#ff0000" stroke-width="0" stroke-linecap="butt"/><path d="M243.73127,200.5977l17.19744,-17.19744" fill="none" stroke="url(#color-11)" stroke-width="4" stroke-linecap="round"/><path d="M245.48017,208.17623l23.31857,-23.31857" fill="none" stroke="url(#color-12)" stroke-width="4" stroke-linecap="round"/><path d="M276.99703,188.10078l-28.27376,28.27376" fill="none" stroke="url(#color-13)" stroke-width="6.5" stroke-linecap="round"/><path d="M247.88597,187.26347c-2.20008,2.20008 -5.80021,2.16696 -8.04114,-0.07396c-2.24092,-2.24092 -2.27404,-5.84106 -0.07396,-8.04114c2.20008,-2.20008 5.80021,-2.16696 8.04114,0.07396c2.24092,2.24092 2.27404,5.84106 0.07396,8.04114z" fill="#000000" stroke="url(#color-14)" stroke-width="2.5" stroke-linecap="butt"/></g></g></svg>