<svg version="1.1" xmlns="http://www.w3.org/2000/svg" xmlns:xlink="http://www.w3.org/1999/xlink" width="224.13135" height="224.13135" viewBox="0,0,224.13135,224.13135"><defs><radialGradient cx="225.7953" cy="183.23436" r="49.81448" gradientUnits="userSpaceOnUse" id="color-1"><stop offset="0" stop-color="#ff0000"/><stop offset="1" stop-color="#ff0000" stop-opacity="0"/></radialGradient><linearGradient x1="201.98658" y1="181.56307" x2="201.98658" y2="223.18962" gradientUnits="userSpaceOnUse" id="color-2"><stop offset="0" stop-color="#000000"/><stop offset="1" stop-color="#ff2e54"/></linearGradient><linearGradient x1="202.90935" y1="138.72336" x2="202.90935" y2="178.7811" gradientUnits="userSpaceOnUse" id="color-3"><stop offset="0" stop-color="#ff2e54"/><stop offset="1" stop-color="#000000"/></linearGradient><radialGradient cx="183.37488" cy="154.24723" r="29.04676" gradientUnits="userSpaceOnUse" id="color-4"><stop offset="0" stop-color="#ff0000"/><stop offset="1" stop-color="#ff0000" stop-opacity="0"/></radialGradient><radialGradient cx="183.37488" cy="201.98669" r="29.04676" gradientUnits="userSpaceOnUse" id="color-5"><stop offset="0" stop-color="#ff0000"/><stop offset="1" stop-color="#ff0000" stop-opacity="0"/></radialGradient><linearGradient x1="182.58667" y1="149.8332" x2="166.84879" y2="146.59177" gradientUnits="userSpaceOnUse" id="color-6"><stop offset="0" stop-color="#ff0000"/><stop offset="1" stop-color="#930000"/></linearGradient><linearGradient x1="170.28357" y1="151.16763" x2="157.5124" y2="148.53724" gradientUnits="userSpaceOnUse" id="color-7"><stop offset="0" stop-color="#8e0000"/><stop offset="1" stop-color="#ff0000"/></linearGradient><linearGradient x1="171.92828" y1="157.8555" x2="164.69495" y2="156.3657" gradientUnits="userSpaceOnUse" id="color-8"><stop offset="0" stop-color="#d60000"/><stop offset="1" stop-color="#600000"/></linearGradient><linearGradient x1="190.26131" y1="158.67965" x2="181.0839" y2="156.78944" gradientUnits="userSpaceOnUse" id="color-9"><stop offset="0" stop-color="#ff0000"/><stop offset="1" stop-color="#930000"/></linearGradient><radialGradient cx="184.7276" cy="157.20853" r="11.86467" gradientUnits="userSpaceOnUse" id="color-10"><stop offset="0" stop-color="#ff6060"/><stop offset="1" stop-color="#ff6060" stop-opacity="0"/></radialGradient><radialGradient cx="196.68702" cy="163.27901" r="7.42946" gradientUnits="userSpaceOnUse" id="color-11"><stop offset="0" stop-color="#ff6060"/><stop offset="1" stop-color="#ff6060" stop-opacity="0"/></radialGradient><linearGradient x1="180.77123" y1="211.62983" x2="165.14756" y2="215.38339" gradientUnits="userSpaceOnUse" id="color-12"><stop offset="0" stop-color="#ff0000"/><stop offset="1" stop-color="#930000"/></linearGradient><linearGradient x1="168.43113" y1="210.69781" x2="155.75263" y2="213.7438" gradientUnits="userSpaceOnUse" id="color-13"><stop offset="0" stop-color="#8e0000"/><stop offset="1" stop-color="#ff0000"/></linearGradient><linearGradient x1="169.85659" y1="203.95981" x2="162.67575" y2="205.68499" gradientUnits="userSpaceOnUse" id="color-14"><stop offset="0" stop-color="#d60000"/><stop offset="1" stop-color="#600000"/></linearGradient><linearGradient x1="188.15291" y1="202.53751" x2="179.04212" y2="204.72637" gradientUnits="userSpaceOnUse" id="color-15"><stop offset="0" stop-color="#ff0000"/><stop offset="1" stop-color="#930000"/></linearGradient><radialGradient cx="196.43087" cy="197.33186" r="7.99924" gradientUnits="userSpaceOnUse" id="color-16"><stop offset="0" stop-color="#ff6060"/><stop offset="1" stop-color="#ff6060" stop-opacity="0"/></radialGradient><radialGradient cx="182.54345" cy="203.46793" r="12.66022" gradientUnits="userSpaceOnUse" id="color-17"><stop offset="0" stop-color="#ff6060"/><stop offset="1" stop-color="#ff6060" stop-opacity="0"/></radialGradient><linearGradient x1="255.5802" y1="181.3726" x2="212.17919" y2="181.3726" gradientUnits="userSpaceOnUse" id="color-18"><stop offset="0" stop-color="#000000"/><stop offset="1" stop-color="#ff365a"/></linearGradient><radialGradient cx="284.17527" cy="182.50471" r="54.58462" gradientUnits="userSpaceOnUse" id="color-19"><stop offset="0" stop-color="#cc0025"/><stop offset="1" stop-color="#ff4949"/></radialGradient><linearGradient x1="325.96995" y1="182.34742" x2="246.82539" y2="182.34742" gradientUnits="userSpaceOnUse" id="color-20"><stop offset="0" stop-color="#ffffff"/><stop offset="1" stop-color="#e30000"/></linearGradient><radialGradient cx="285.5078" cy="182.99111" r="23.77378" gradientUnits="userSpaceOnUse" id="color-21"><stop offset="0" stop-color="#ff5656"/><stop offset="1" stop-color="#ff5656" stop-opacity="0"/></radialGradient><radialGradient cx="280.58725" cy="168.2491" r="19.12627" gradientUnits="userSpaceOnUse" id="color-22"><stop offset="0" stop-color="#ff5656"/><stop offset="1" stop-color="#ff5656" stop-opacity="0"/></radialGradient><radialGradient cx="305.32655" cy="179.99776" r="17.33877" gradientUnits="userSpaceOnUse" id="color-23"><stop offset="0" stop-color="#ff6d6d"/><stop offset="1" stop-color="#ff6d6d" stop-opacity="0"/></radialGradient><radialGradient cx="269.63626" cy="158.83234" r="9.83127" gradientUnits="userSpaceOnUse" id="color-24"><stop offset="0" stop-color="#ff4e4e"/><stop offset="1" stop-color="#ff4e4e" stop-opacity="0"/></radialGradient><radialGradient cx="277.8696" cy="210.29182" r="9.83127" gradientUnits="userSpaceOnUse" id="color-25"><stop offset="0" stop-color="#ff4e4e"/><stop offset="1" stop-color="#ff4e4e" stop-opacity="0"/></radialGradient><radialGradient cx="275.30944" cy="153.59977" r="11.83036" gradientUnits="userSpaceOnUse" id="color-26"><stop offset="0" stop-color="#ff7e7e"/><stop offset="1" stop-color="#ff7e7e" stop-opacity="0"/></radialGradient><radialGradient cx="291.80102" cy="200.39077" r="7.97612" gradientUnits="userSpaceOnUse" id="color-27"><stop offset="0" stop-color="#ff8989"/><stop offset="1" stop-color="#ff8989" stop-opacity="0"/></radialGradient><radialGradient cx="296.09104" cy="192.88327" r="7.97612" gradientUnits="userSpaceOnUse" id="color-28"><stop offset="0" stop-color="#ff6060"/><stop offset="1" stop-color="#ff6060" stop-opacity="0"/></radialGradient><radialGradient cx="296.4678" cy="167.29934" r="7.40798" gradientUnits="userSpaceOnUse" id="color-29"><stop offset="0" stop-color="#ff7e7e"/><stop offset="1" stop-color="#ff7e7e" stop-opacity="0"/></radialGradient><radialGradient cx="278.73046" cy="208.89369" r="12.62361" gradientUnits="userSpaceOnUse" id="color-30"><stop offset="0" stop-color="#ff6060"/><stop offset="1" stop-color="#ff6060" stop-opacity="0"/></radialGradient><radialGradient cx="301.89182" cy="170.68328" r="4.91254" gradientUnits="userSpaceOnUse" id="color-31"><stop offset="0" stop-color="#ffb5b5"/><stop offset="1" stop-color="#ffb5b5" stop-opacity="0"/></radialGradient><radialGradient cx="265.34302" cy="218.6931" r="7.97611" gradientUnits="userSpaceOnUse" id="color-32"><stop offset="0" stop-color="#dc0000"/><stop offset="1" stop-color="#dc0000" stop-opacity="0"/></radialGradient><radialGradient cx="262.40869" cy="147.41573" r="7.97611" gradientUnits="userSpaceOnUse" id="color-33"><stop offset="0" stop-color="#dc0000"/><stop offset="1" stop-color="#dc0000" stop-opacity="0"/></radialGradient><radialGradient cx="303.18758" cy="180.99874" r="11.83035" gradientUnits="userSpaceOnUse" id="color-34"><stop offset="0" stop-color="#ff6060"/><stop offset="1" stop-color="#ff6060" stop-opacity="0"/></radialGradient><radialGradient cx="302.6118" cy="183.86219" r="7.40798" gradientUnits="userSpaceOnUse" id="color-35"><stop offset="0" stop-color="#ff6060"/><stop offset="1" stop-color="#ff6060" stop-opacity="0"/></radialGradient></defs><g transform="translate(-127.93433,-67.93433)"><g data-paper-data="{&quot;isPaintingLayer&quot;:true}" fill-rule="nonzero" stroke-width="0" stroke-linecap="butt" stroke-linejoin="miter" stroke-miterlimit="10" stroke-dasharray="" stroke-dashoffset="0" style="mix-blend-mode: normal"><path d="M175.98082,183.23436c0,-27.51178 22.3027,-49.81448 49.81448,-49.81448c27.51178,0 49.81449,22.3027 49.81449,49.81448c0,27.51178 -22.30271,49.81448 -49.81449,49.81448c-27.51178,0 -49.81448,-22.3027 -49.81448,-49.81448z" fill="url(#color-1)" stroke="none"/><path d="M175.98748,187.66983c5.82057,-2.01689 17.16405,2.4587 29.09642,2.03473c22.00498,-0.78186 47.82138,-8.14149 47.82138,-8.14149l-1.84556,8.44418c0,0 -25.40053,5.79633 -43.42489,14.75851c-8.19404,4.07429 -19.81669,16.01519 -27.64843,17.78812c-15.92693,3.60549 -28.91853,-9.30133 -28.91853,-9.30133c0,0 7.25805,-19.4628 24.91961,-25.58272z" fill="url(#color-2)" stroke="#ff0000"/><path d="M152.91342,148.66043c0,0 12.99161,-12.90682 28.91854,-9.30133c7.83174,1.77292 19.45439,13.71382 27.64843,17.78811c18.02436,8.96218 43.42489,14.75851 43.42489,14.75851l-0.037,6.87538c0,0 -26.35722,-5.09706 -48.81017,-6.01901c-11.1876,-0.45937 -21.71963,2.63873 -27.22506,0.73105c-17.66156,-6.11991 -23.91962,-24.83271 -23.91962,-24.83271z" data-paper-data="{&quot;index&quot;:null}" fill="url(#color-3)" stroke="#ff0000"/><path d="M154.32812,154.24723c0,-16.04208 13.00468,-29.04676 29.04675,-29.04676c16.04208,0 29.04676,13.00469 29.04676,29.04676c0,16.04208 -13.00469,29.04676 -29.04676,29.04676c-16.04208,0 -29.04675,-13.00469 -29.04675,-29.04676z" fill="url(#color-4)" stroke="#000000"/><path d="M154.32812,201.98669c0,-16.04208 13.00468,-29.04676 29.04675,-29.04676c16.04208,0 29.04676,13.00469 29.04676,29.04676c0,16.04208 -13.00469,29.04676 -29.04676,29.04676c-16.04208,0 -29.04675,-13.00469 -29.04675,-29.04676z" fill="url(#color-5)" stroke="#000000"/><g stroke="none"><path d="M175.70707,143.40915c4.3459,0.8951 7.426,3.77124 6.87962,6.42406c-0.54638,2.65282 -4.51235,4.07774 -8.85825,3.18264c-4.3459,-0.8951 -7.42602,-3.77125 -6.87963,-6.42407c0.54638,-2.65282 4.51236,-4.07773 8.85826,-3.18263z" fill="url(#color-6)"/><path d="M164.70082,145.95455c3.52667,0.72636 6.02614,3.06033 5.58275,5.21308c-0.44339,2.15275 -3.66174,3.30904 -7.1884,2.58268c-3.52667,-0.72636 -6.02616,-3.06033 -5.58277,-5.21308c0.44339,-2.15275 3.66175,-3.30904 7.18841,-2.58268z" fill="url(#color-7)"/><path d="M168.76633,154.90292c1.99743,0.4114 3.41308,1.7333 3.16195,2.95258c-0.25113,1.21928 -2.07393,1.87417 -4.07136,1.46277c-1.99743,-0.4114 -3.41311,-1.73331 -3.16198,-2.95257c0.25113,-1.21928 2.07394,-1.87419 4.07139,-1.46278z" fill="url(#color-8)"/><path d="M186.24952,154.93352c2.53428,0.52197 4.33039,2.19917 4.01178,3.74612c-0.31862,1.54697 -2.63133,2.37789 -5.16559,1.85592c-2.53428,-0.52197 -4.3304,-2.19915 -4.01178,-3.74612c0.31862,-1.54697 2.63134,-2.37789 5.16559,-1.85592z" fill="url(#color-9)"/><path d="M187.12105,145.58779c6.41798,1.32187 10.54915,7.59622 9.22728,14.0142c-1.32187,6.41798 -7.59621,10.54916 -14.01417,9.2273c-6.41798,-1.32187 -10.54917,-7.59621 -9.2273,-14.01419c1.32187,-6.41798 7.59624,-10.54917 14.0142,-9.22731z" fill="url(#color-10)"/><path d="M198.18576,156.0023c4.01882,0.82773 6.60572,4.75664 5.77799,8.77546c-0.82773,4.01882 -4.75663,6.60571 -8.77546,5.77797c-4.01882,-0.82773 -6.60573,-4.75664 -5.778,-8.77546c0.82773,-4.01882 4.75664,-6.60571 8.77547,-5.77798z" fill="url(#color-11)"/></g><g stroke="none"><path d="M165.14756,215.38339c-0.63271,-2.63357 2.35186,-5.60874 6.66621,-6.64526c4.31436,-1.03652 8.32473,0.25814 8.95744,2.8917c0.63271,2.63357 -2.35184,5.60876 -6.66619,6.64527c-4.31436,1.03652 -8.32475,-0.25814 -8.95746,-2.89172z" data-paper-data="{&quot;index&quot;:null}" fill="url(#color-12)"/><path d="M155.75263,213.7438c-0.51344,-2.13712 1.90852,-4.55147 5.40958,-5.39258c3.50107,-0.84113 6.75545,0.20948 7.26889,2.34661c0.51344,2.13712 -1.9085,4.55146 -5.40956,5.39258c-3.50107,0.84113 -6.75547,-0.20947 -7.26891,-2.3466z" data-paper-data="{&quot;index&quot;:null}" fill="url(#color-13)"/><path d="M162.67575,205.68499c-0.29081,-1.21043 1.08095,-2.57785 3.06389,-3.05425c1.98293,-0.4764 3.82614,0.11865 4.11694,1.32906c0.29081,1.21043 -1.08093,2.57785 -3.06386,3.05425c-1.98293,0.4764 -3.82617,-0.11864 -4.11697,-1.32907z" data-paper-data="{&quot;index&quot;:null}" fill="url(#color-14)"/><path d="M179.04212,204.72637c-0.36896,-1.53574 1.37145,-3.27068 3.88733,-3.87511c2.51588,-0.60444 4.85447,0.15053 5.22343,1.68627c0.36896,1.53574 -1.37144,3.2707 -3.88731,3.87513c-2.51588,0.60444 -4.85449,-0.15055 -5.22344,-1.68629z" data-paper-data="{&quot;index&quot;:null}" fill="url(#color-15)"/><path d="M194.56224,189.55395c4.29564,-1.03202 8.61453,1.61365 9.64655,5.90928c1.03202,4.29564 -1.61366,8.61454 -5.90928,9.64656c-4.29564,1.03202 -8.61454,-1.61365 -9.64656,-5.90929c-1.03202,-4.29564 1.61366,-8.61453 5.9093,-9.64655z" fill="url(#color-16)"/><path d="M179.586,191.15796c6.7986,-1.63335 13.63403,2.5539 15.26738,9.3525c1.63335,6.7986 -2.5539,13.63404 -9.3525,15.26739c-6.79862,1.63336 -13.63405,-2.5539 -15.2674,-9.3525c-1.63335,-6.7986 2.55391,-13.63404 9.35252,-15.2674z" fill="url(#color-17)"/></g><path d="M352.06568,292.06568h-224.13135v-224.13135h224.13135z" fill="none" stroke="none"/><path d="M214.89174,152.28288c0,0 15.14971,6.32729 19.2729,6.77015c7.40563,0.79543 21.41556,-2.39987 21.41556,-2.39987v49.43885c0,0 -18.02824,-2.45828 -25.94412,-2.45828c-6.0339,0 -17.1555,5.46286 -17.1555,5.46286c0,0 1.81619,-7.66625 4.13698,-9.63524c2.39852,-2.03493 9.72723,-5.38762 9.72723,-5.38762l-18.98794,-4.91657l15.67259,-9.28684l-15.97398,-10.10628l18.09751,-2.76352c0,0 -4.86558,-3.01921 -6.49563,-5.35718c-1.77755,-2.54955 -3.76558,-9.36043 -3.76558,-9.36043z" fill="url(#color-18)" stroke="#ff0000"/><path d="M292.58635,150.89812c16.55549,14.6795 34.52367,23.08114 34.81407,32.4288c0.26249,8.44924 -27.4587,25.18396 -39.22277,36.13345c-18.10147,16.84804 -20.44877,21.32052 -26.79523,14.69646c-5.01581,-5.82187 -8.37189,-24.6635 -10.67199,-35.24817c-1.78487,-8.21371 -9.76217,-17.28824 -9.76217,-17.28824c0,0 7.99216,-6.31959 9.76545,-16.20781c2.82464,-15.75079 3.31216,-30.64465 11.45462,-36.06434c8.14247,-5.4197 11.97267,5.19464 30.41802,21.54986z" fill="url(#color-19)" stroke="#000000"/><g><path d="M244.39614,160.07815c5.40533,0 9.78722,5.65367 9.78722,12.62782c0,6.97415 -4.38189,12.62782 -9.78722,12.62782c-5.40533,0 -9.78722,-5.65366 -9.78722,-12.62782c0,-1.81521 -0.30594,-5.65074 0.22854,-7.21064c1.51902,-4.43332 5.56024,-5.41718 9.55868,-5.41718z" fill="#000000" stroke="none"/><path d="M244.39614,178.19475c5.40533,0 9.78722,5.65366 9.78722,12.62782c0,6.97415 -4.38189,12.62783 -9.78722,12.62783c-3.78568,0 -7.06935,-0.06059 -8.69729,-4.11831c-0.6965,-1.73605 -1.08993,-6.41979 -1.08993,-8.50952c0,-6.97415 4.38189,-12.62782 9.78722,-12.62782z" fill="#000000" stroke="none"/><path d="M245.74802,163.77895c4.67858,0 8.47133,4.28418 8.47133,9.56897c0,5.2848 -3.79274,9.56897 -8.47133,9.56897c-4.6786,0 -8.47134,-4.28418 -8.47134,-9.56897c0,-5.2848 3.79274,-9.56897 8.47134,-9.56897z" fill="#ffffff" stroke="#000000"/><path d="M245.74802,180.61163c4.67858,0 8.47133,4.28418 8.47133,9.56897c0,5.2848 -3.79274,9.56897 -8.47133,9.56897c-4.6786,0 -8.47134,-4.28418 -8.47134,-9.56897c0,-5.2848 3.79274,-9.56897 8.47134,-9.56897z" fill="#ffffff" stroke="#000000"/><path d="M248.03211,172.03487c2.16392,0 3.91815,1.75421 3.91815,3.91815c0,2.16394 -1.75422,3.91815 -3.91815,3.91815c-2.16392,0 -3.91815,-1.75421 -3.91815,-3.91815c0,-2.16394 1.75422,-3.91815 3.91815,-3.91815z" fill="#000000" stroke="none"/><path d="M247.76728,183.27705c2.16392,0 3.91815,1.75421 3.91815,3.91815c0,2.16394 -1.75422,3.91815 -3.91815,3.91815c-2.16392,0 -3.91815,-1.75421 -3.91815,-3.91815c0,-2.16394 1.75422,-3.91815 3.91815,-3.91815z" fill="#000000" stroke="none"/></g><path d="M254.42449,167.12692c0,0 8.50343,-0.35231 13.25138,0.74207c5.51672,1.27159 17.89,6.4359 17.89,6.4359l-14.58049,-19.37178c0,0 20.38814,8.57637 29.65523,13.52566c8.17658,4.36687 18.54767,14.29772 18.54767,14.29772c0,0 -11.4345,11.80011 -20.61793,16.71338c-8.62955,4.61693 -28.3857,12.27696 -28.3857,12.27696l15.31046,-21.29241c0,0 -9.21413,4.01443 -14.50903,5.03284c-5.12502,0.98575 -16.76732,0.98288 -16.76732,0.98288c0,0 -8.58025,-9.52233 -8.63444,-14.56721c-0.05257,-4.89676 8.84017,-14.77606 8.84017,-14.77606z" fill="url(#color-20)" stroke="#ff0000"/><g stroke="none"><path d="M285.5078,159.21732c13.12991,0 23.77379,10.64389 23.77379,23.77379c0,13.1299 -10.64388,23.77378 -23.77379,23.77378c-13.12991,0 -23.77379,-10.64388 -23.77379,-23.77378c0,-13.1299 10.64388,-23.77379 23.77378,-23.77379z" fill="url(#color-21)"/><path d="M280.58725,149.12281c10.56316,0 19.12627,8.56312 19.12627,19.12628c0,10.56316 -8.56312,19.12627 -19.12628,19.12627c-10.56316,0 -19.12628,-8.56311 -19.12628,-19.12627c0,-10.56316 8.56312,-19.12628 19.12628,-19.12628z" fill="url(#color-22)"/><path d="M305.32655,162.65898c9.57595,0 17.33877,7.76283 17.33877,17.33877c0,9.57594 -7.76283,17.33877 -17.33877,17.33877c-9.57595,0 -17.33879,-7.76283 -17.33879,-17.33877c0,-9.57594 7.76283,-17.33877 17.33877,-17.33877z" fill="url(#color-23)"/><path d="M269.63626,149.00107c5.42966,0 9.83125,4.40161 9.83125,9.83127c0,5.42967 -4.4016,9.83127 -9.83127,9.83127c-5.42966,0 -9.83127,-4.4016 -9.83127,-9.83127c0,-5.42967 4.40161,-9.83127 9.83127,-9.83127z" fill="url(#color-24)"/><path d="M277.8696,200.46056c5.42966,0 9.83127,4.4016 9.83127,9.83127c0,5.42966 -4.40161,9.83127 -9.83127,9.83127c-5.42966,0 -9.83127,-4.4016 -9.83127,-9.83125c0,-5.42966 4.40161,-9.83127 9.83127,-9.83127z" fill="url(#color-25)"/><path d="M275.30944,141.76939c6.53374,0 11.83035,5.29662 11.83035,11.83036c0,6.53374 -5.29661,11.83036 -11.83033,11.83036c-6.53374,0 -11.83035,-5.29662 -11.83035,-11.83036c0,-6.53374 5.29663,-11.83036 11.83035,-11.83036z" fill="url(#color-26)"/><path d="M291.80102,192.41467c4.4051,0 7.97611,3.57102 7.97611,7.97611c0,4.4051 -3.57102,7.97612 -7.97611,7.97612c-4.4051,0 -7.97612,-3.57102 -7.97612,-7.97612c0,-4.4051 3.57102,-7.97611 7.97612,-7.97611z" fill="url(#color-27)"/><path d="M296.09104,184.90716c4.4051,0 7.97611,3.57102 7.97611,7.97611c0,4.4051 -3.57102,7.97612 -7.97611,7.97612c-4.4051,0 -7.97612,-3.57102 -7.97612,-7.97612c0,-4.4051 3.57102,-7.97611 7.97612,-7.97611z" fill="url(#color-28)"/><path d="M296.4678,159.89136c4.09132,0 7.40798,3.31666 7.40798,7.40798c0,4.09132 -3.31665,7.40798 -7.40798,7.40798c-4.09132,0 -7.40799,-3.31666 -7.40799,-7.40798c0,-4.09132 3.31666,-7.40798 7.40799,-7.40798z" fill="url(#color-29)"/><path d="M278.73046,196.27005c6.97184,0 12.62361,5.65178 12.62361,12.62361c0,6.97184 -5.65178,12.62361 -12.62361,12.62361c-6.97185,0 -12.62363,-5.65178 -12.62363,-12.62361c0,-6.97184 5.65178,-12.62361 12.62363,-12.62361z" fill="url(#color-30)"/><path d="M301.89182,165.77074c2.71313,0 4.91254,2.19942 4.91254,4.91254c0,2.71313 -2.19941,4.91254 -4.91254,4.91254c-2.71313,0 -4.91256,-2.19942 -4.91256,-4.91254c0,-2.71313 2.19942,-4.91254 4.91256,-4.91254z" fill="url(#color-31)"/><path d="M265.34302,210.71699c4.4051,0 7.97611,3.57102 7.97611,7.97612c0,4.40508 -3.57102,7.97611 -7.97611,7.97611c-4.4051,0 -7.97612,-3.57102 -7.97612,-7.97611c0,-4.4051 3.57104,-7.97612 7.97612,-7.97612z" fill="url(#color-32)"/><path d="M262.40869,139.43963c4.4051,0 7.97611,3.57102 7.97611,7.97611c0,4.40508 -3.57102,7.97611 -7.97611,7.97611c-4.4051,0 -7.97612,-3.57102 -7.97612,-7.97611c0,-4.40508 3.57104,-7.97611 7.97612,-7.97611z" fill="url(#color-33)"/><path d="M303.18758,169.16839c6.53374,0 11.83035,5.29662 11.83035,11.83036c0,6.53374 -5.29661,11.83036 -11.83033,11.83036c-6.53374,0 -11.83036,-5.29662 -11.83036,-11.83036c0,-6.53374 5.29665,-11.83036 11.83036,-11.83036z" fill="url(#color-34)"/><path d="M302.6118,176.45421c4.09132,0 7.40798,3.31666 7.40798,7.40798c0,4.09132 -3.31665,7.40798 -7.40798,7.40798c-4.09132,0 -7.40799,-3.31666 -7.40799,-7.40798c0,-4.09132 3.31666,-7.40798 7.40799,-7.40798z" fill="url(#color-35)"/></g></g></g></svg>