<svg version="1.1" xmlns="http://www.w3.org/2000/svg" xmlns:xlink="http://www.w3.org/1999/xlink" width="85.96734" height="85.27405" viewBox="0,0,85.96734,85.27405"><defs><radialGradient cx="240.00002" cy="180.00002" r="34.87869" gradientUnits="userSpaceOnUse" id="color-1"><stop offset="0" stop-color="#000000" stop-opacity="0.77647"/><stop offset="1" stop-color="#000000" stop-opacity="0"/></radialGradient><linearGradient x1="202.80391" y1="179.75838" x2="221.64428" y2="179.56895" gradientUnits="userSpaceOnUse" id="color-2"><stop offset="0" stop-color="#990000"/><stop offset="1" stop-color="#eb0000"/></linearGradient><radialGradient cx="202.56791" cy="163.39545" r="10.14302" gradientUnits="userSpaceOnUse" id="color-3"><stop offset="0" stop-color="#590000"/><stop offset="1" stop-color="#b20000"/></radialGradient><radialGradient cx="202.92844" cy="196.62883" r="10.14302" gradientUnits="userSpaceOnUse" id="color-4"><stop offset="0" stop-color="#590000"/><stop offset="1" stop-color="#b20000"/></radialGradient><radialGradient cx="225.24661" cy="212.03589" r="15.01454" gradientUnits="userSpaceOnUse" id="color-5"><stop offset="0" stop-color="#590000"/><stop offset="1" stop-color="#d30000"/></radialGradient><radialGradient cx="225.81995" cy="148.10684" r="15.01454" gradientUnits="userSpaceOnUse" id="color-6"><stop offset="0" stop-color="#590000"/><stop offset="1" stop-color="#d30000"/></radialGradient><linearGradient x1="210.95556" y1="179.41421" x2="261.94267" y2="180.35573" gradientUnits="userSpaceOnUse" id="color-7"><stop offset="0" stop-color="#eb0000"/><stop offset="1" stop-color="#bf0000"/></linearGradient><linearGradient x1="257.19372" y1="181.51546" x2="270.62358" y2="181.76345" gradientUnits="userSpaceOnUse" id="color-8"><stop offset="0" stop-color="#bf0000"/><stop offset="1" stop-color="#590000"/></linearGradient><linearGradient x1="247.75547" y1="189.07849" x2="255.01889" y2="189.14676" gradientUnits="userSpaceOnUse" id="color-9"><stop offset="0" stop-color="#ff0000"/><stop offset="1" stop-color="#ffffff"/></linearGradient><linearGradient x1="217.67681" y1="178.95243" x2="246.49471" y2="179.26088" gradientUnits="userSpaceOnUse" id="color-10"><stop offset="0" stop-color="#590000"/><stop offset="1" stop-color="#cb0000"/></linearGradient><linearGradient x1="247.87773" y1="170.54119" x2="255.14101" y2="170.60946" gradientUnits="userSpaceOnUse" id="color-11"><stop offset="0" stop-color="#ff0000"/><stop offset="1" stop-color="#ffffff"/></linearGradient><linearGradient x1="226.53079" y1="170.91634" x2="238.16979" y2="166.54198" gradientUnits="userSpaceOnUse" id="color-12"><stop offset="0" stop-color="#000000"/><stop offset="1" stop-color="#272727"/></linearGradient><linearGradient x1="226.53079" y1="170.91634" x2="238.16979" y2="166.54198" gradientUnits="userSpaceOnUse" id="color-13"><stop offset="0" stop-color="#272727"/><stop offset="1" stop-color="#585858"/></linearGradient><linearGradient x1="227.18028" y1="187.72347" x2="238.64986" y2="192.52456" gradientUnits="userSpaceOnUse" id="color-14"><stop offset="0" stop-color="#000000"/><stop offset="1" stop-color="#272727"/></linearGradient><linearGradient x1="227.18028" y1="187.72347" x2="238.64986" y2="192.52456" gradientUnits="userSpaceOnUse" id="color-15"><stop offset="0" stop-color="#272727"/><stop offset="1" stop-color="#585858"/></linearGradient></defs><g transform="translate(-193.51783,-137.363)"><g data-paper-data="{&quot;isPaintingLayer&quot;:true}" fill-rule="nonzero" stroke-linejoin="miter" stroke-miterlimit="10" stroke-dasharray="" stroke-dashoffset="0" style="mix-blend-mode: normal"><path d="M205.12272,179.68598c0.17344,-19.2622 15.92913,-34.73667 35.19132,-34.56323c19.2622,0.17344 34.73667,15.92913 34.56323,35.19132c-0.17344,19.2622 -15.92913,34.73667 -35.19132,34.56323c-19.2622,-0.17344 -34.73667,-15.92913 -34.56323,-35.19132z" fill="url(#color-1)" stroke="#000000" stroke-width="0" stroke-linecap="butt"/><g data-paper-data="{&quot;index&quot;:null}" stroke="none" stroke-width="0" stroke-linecap="butt"><path d="M215.45154,184.40713c-2.68024,0.14147 -2.41453,4.74691 -4.093,4.74012c-3.56417,-0.01443 -8.48728,-2.69093 -8.54976,-8.90437c-0.04972,-4.94485 4.88153,-10.05112 7.49254,-10.16812c2.0159,-0.09034 2.64476,4.49928 5.23388,4.4436c2.77203,-0.05961 5.92747,-4.70023 5.92747,-4.70023l0.24583,19.50277c0,0 -3.59347,-5.05437 -6.25699,-4.91378z" fill="url(#color-2)"/><path d="M202.74837,178.07952c-0.08925,-8.87553 -3.52946,-15.83197 1.01629,-15.87768c2.82197,-0.02838 6.61711,3.95654 9.27599,10.98533c1.7759,4.69463 -10.0259,6.49155 -10.0259,6.49155c0,0 -0.24344,0.68395 -0.26638,-1.59921z" fill="url(#color-3)"/><path d="M203.04773,180.33985c0,0 11.83553,1.55924 10.1544,6.28863c-2.51699,7.08082 -6.23126,11.14126 -9.05323,11.16964c-4.54573,0.04571 -1.2461,-6.97849 -1.33535,-15.85403c-0.02296,-2.28317 0.23418,-1.60424 0.23418,-1.60424z" data-paper-data="{&quot;index&quot;:null}" fill="url(#color-4)"/></g><path d="M193.51783,222.63705v-85.27405h85.96734v85.27405z" fill="none" stroke="none" stroke-width="NaN" stroke-linecap="butt"/><path d="M238.23819,210.29883c-4.78424,3.99166 -11.86017,5.56664 -15.8763,3.95632c-3.58491,-1.43742 2.84193,-5.87219 4.35329,-7.30393c1.03221,-0.97782 3.06753,-10.57578 3.49522,-12.01985c0.91792,-3.09919 14.28644,3.59245 14.28644,3.59245c0,0 -1.47443,7.78336 -6.25867,11.77501z" data-paper-data="{&quot;index&quot;:null}" fill="url(#color-5)" stroke="none" stroke-width="0" stroke-linecap="butt"/><path d="M245.46596,161.9341c0,0 -13.188,7.20149 -14.19434,3.97598c-0.4689,-1.50294 -2.77747,-11.50456 -3.83808,-12.51078c-1.55293,-1.47327 -8.10975,-6.00981 -4.56313,-7.56777c3.97323,-1.74538 11.09857,-0.2083 15.99911,3.89041c4.90055,4.09872 6.59643,12.21214 6.59643,12.21214z" data-paper-data="{&quot;index&quot;:null}" fill="url(#color-6)" stroke="none" stroke-width="0" stroke-linecap="butt"/><path d="M241.60277,161.01122c14.0797,0.26 20.53493,8.78295 20.3399,19.3445c-0.19502,10.56154 -6.04799,18.2133 -20.12767,17.9533c-15.43068,-0.28494 -25.99868,-10.30531 -26.09489,-19.5912c-0.09621,-9.28588 11.80297,-17.96661 25.88266,-17.70662z" data-paper-data="{&quot;index&quot;:null}" fill="url(#color-7)" stroke="#000000" stroke-width="0" stroke-linecap="butt"/><path d="M255.03378,194.73712l0.58577,-27.89211c0,0 3.2383,3.93849 6.62501,5.92085c3.74453,2.1918 8.53175,4.05542 8.48289,7.38754c-0.04886,3.33211 -3.96912,5.22055 -6.6255,7.05841c-4.51409,3.12317 -9.06819,7.5253 -9.06819,7.5253z" data-paper-data="{&quot;index&quot;:null}" fill="url(#color-8)" stroke="none" stroke-width="0" stroke-linecap="butt"/><path d="M251.94195,183.959c2.65014,0.71584 4.25163,3.60069 3.57706,6.4435c-0.67457,2.8428 -3.04073,3.90319 -6.0199,3.85123c-2.12192,-0.03703 -3.64133,-0.35715 -4.29653,-1.31501c-0.84294,-1.2323 -0.22426,-2.5859 0.71947,-5.1285c1.0119,-2.72625 3.36977,-4.56707 6.0199,-3.85123z" fill="#000000" stroke="none" stroke-width="0" stroke-linecap="butt"/><path d="M252.28289,185.3379c1.94342,0.52494 3.11787,2.6405 2.62318,4.72524c-0.49469,2.08472 -2.47117,3.34918 -4.41459,2.82423c-1.94342,-0.52494 -3.11787,-2.6405 -2.62318,-4.72524c0.49469,-2.08472 2.47117,-3.34918 4.41459,-2.82423z" fill="url(#color-9)" stroke="#ffffff" stroke-width="0" stroke-linecap="butt"/><path d="M246.32546,184.48673c0,0 -5.35543,-0.23396 -9.84254,-0.28198c-10.47516,-0.11212 -18.89655,-2.41423 -18.80964,-5.14191c0.08689,-2.72768 8.64916,-4.84801 19.12432,-4.73589c10.47516,0.11212 9.36803,-0.53616 9.36803,-0.53616z" data-paper-data="{&quot;index&quot;:null}" fill="url(#color-10)" stroke="none" stroke-width="0" stroke-linecap="butt"/><path d="M251.8733,175.75803c-2.67475,0.61752 -4.96304,-1.3091 -5.87361,-4.07085c-0.84923,-2.57571 -1.4175,-3.95123 -0.52964,-5.15157c0.69013,-0.933 2.22032,-1.19683 4.34215,-1.15549c2.97906,0.05804 5.30446,1.20507 5.87361,4.07085c0.56916,2.86578 -1.13777,5.68954 -3.81251,6.30704z" fill="#000000" stroke="none" stroke-width="0" stroke-linecap="butt"/><path d="M247.9578,171.39528c-0.41738,-2.10158 0.83438,-4.17234 2.79584,-4.62517c1.96149,-0.45283 3.88995,0.88372 4.30731,2.98529c0.41738,2.10158 -0.83438,4.17234 -2.79584,4.62517c-1.96149,0.45283 -3.88995,-0.88372 -4.30731,-2.98529z" fill="url(#color-11)" stroke="#ffffff" stroke-width="0" stroke-linecap="butt"/><path d="M227.25412,173.1424l-1.44666,-4.4521l11.639,-4.37437l1.44666,4.4521z" fill="url(#color-12)" stroke="url(#color-13)" stroke-width="2" stroke-linecap="butt"/><path d="M239.45488,190.32672l-1.61004,4.39567l-11.46957,-4.80109l1.61004,-4.39567z" data-paper-data="{&quot;index&quot;:null}" fill="url(#color-14)" stroke="url(#color-15)" stroke-width="2" stroke-linecap="butt"/><path d="M235.52457,167.21403c0,0 5.86119,-4.25947 8.70193,-5.53169c2.33488,-1.04566 7.19892,-1.83655 7.19892,-1.83655" fill="none" stroke="#e6adad" stroke-width="2" stroke-linecap="round"/><path d="M253.02402,200.8815c0,0 -3.94767,-0.69012 -6.67293,-2.12004c-3.31567,-1.73974 -9.95927,-7.16624 -9.95927,-7.16624" data-paper-data="{&quot;index&quot;:null}" fill="none" stroke="#e6adad" stroke-width="2" stroke-linecap="round"/><g data-paper-data="{&quot;index&quot;:null}" fill="none" stroke="#ffffff" stroke-width="1" stroke-linecap="round"><path d="M251.29449,159.68058c0,0 5.75192,6.604 9.127,9.11594c2.70576,2.01379 5.25757,2.78685 8.12368,5.13186c1.79231,1.46644 2.94357,3.05276 3.03523,5.26175c0.09166,2.20899 -1.01102,3.36271 -2.64908,5.21262c-1.64657,1.8595 -4.51574,3.70043 -6.78919,5.87817c-3.98186,3.81424 -8.98547,10.49891 -8.98547,10.49891"/><path d="M265.19324,187.30114l-0.17033,-15.56966"/><path d="M258.7246,167.82691l0.27873,25.47764"/><path d="M259.14179,179.74314l5.54457,-0.06066"/></g></g></g></svg>