<svg version="1.1" xmlns="http://www.w3.org/2000/svg" xmlns:xlink="http://www.w3.org/1999/xlink" width="79.5739" height="79.5739" viewBox="0,0,79.5739,79.5739"><defs><radialGradient cx="240.59382" cy="180.29693" r="39.78695" gradientUnits="userSpaceOnUse" id="color-1"><stop offset="0" stop-color="#000000" stop-opacity="0.5098"/><stop offset="1" stop-color="#000000" stop-opacity="0"/></radialGradient><linearGradient x1="242.53045" y1="158.19581" x2="242.53045" y2="205.67742" gradientUnits="userSpaceOnUse" id="color-2"><stop offset="0" stop-color="#43341b"/><stop offset="1" stop-color="#8d6a3a"/></linearGradient><linearGradient x1="227.0471" y1="162.30803" x2="227.0471" y2="208.29012" gradientUnits="userSpaceOnUse" id="color-3"><stop offset="0" stop-color="#f1d3a8"/><stop offset="1" stop-color="#debb8a"/></linearGradient><linearGradient x1="252.18398" y1="162.61457" x2="252.18398" y2="207.67702" gradientUnits="userSpaceOnUse" id="color-4"><stop offset="0" stop-color="#b18a53"/><stop offset="1" stop-color="#dec8aa"/></linearGradient><linearGradient x1="207.42807" y1="153.41816" x2="275.17503" y2="153.41816" gradientUnits="userSpaceOnUse" id="color-5"><stop offset="0" stop-color="#b18a53"/><stop offset="1" stop-color="#ffdfb3"/></linearGradient></defs><g transform="translate(-200.80689,-140.50998)"><g data-paper-data="{&quot;isPaintingLayer&quot;:true}" fill-rule="nonzero" stroke-width="0" stroke-linecap="butt" stroke-linejoin="miter" stroke-miterlimit="10" stroke-dasharray="" stroke-dashoffset="0" style="mix-blend-mode: normal"><path d="M268.72746,208.43055c-15.53776,15.53776 -40.72946,15.53778 -56.26724,0c-15.53776,-15.53776 -15.53778,-40.72946 0,-56.26724c15.53776,-15.53776 40.72946,-15.53778 56.26724,0c15.53776,15.53776 15.53778,40.72946 0,56.26724z" data-paper-data="{&quot;index&quot;:null}" fill="url(#color-1)" stroke="none"/><path d="M216.85272,205.67742l-0.98875,-47.02061l52.9573,-0.461l0.37567,40.74529l-10.41864,4.74322z" fill="url(#color-2)" stroke="none"/><path d="M207.73461,206.14429v-43.83627h38.62497v45.98209z" fill="url(#color-3)" stroke="#221a0e"/><path d="M246.05303,207.98357l-0.30655,-45.369h12.87499v39.85116l16.24701,-4.90476l-16.24701,10.11605z" fill="url(#color-4)" stroke="none"/><path d="M207.42807,162.61457l16.86011,-11.03571l38.01187,1.22619l13.79463,5.21131l-11.95535,7.35714l-18.39284,-2.75893z" fill="url(#color-5)" stroke="#221a0e"/></g></g></svg>