<svg version="1.1" xmlns="http://www.w3.org/2000/svg" xmlns:xlink="http://www.w3.org/1999/xlink" width="240" height="323.39624" viewBox="0,0,240,323.39624"><defs><radialGradient cx="340.44149" cy="224.48759" r="8.22044" gradientUnits="userSpaceOnUse" id="color-1"><stop offset="0" stop-color="#ce0000"/><stop offset="1" stop-color="#ff0000"/></radialGradient><radialGradient cx="469.21035" cy="176.78786" r="10.78963" gradientUnits="userSpaceOnUse" id="color-2"><stop offset="0" stop-color="#ce0000"/><stop offset="1" stop-color="#ff0000"/></radialGradient><radialGradient cx="409.22804" cy="215.02535" r="13.69323" gradientUnits="userSpaceOnUse" id="color-3"><stop offset="0" stop-color="#ff0000" stop-opacity="0.83065"/><stop offset="1" stop-color="#ff0000" stop-opacity="0.17671"/></radialGradient><radialGradient cx="417.49406" cy="202.52671" r="5.87133" gradientUnits="userSpaceOnUse" id="color-4"><stop offset="0" stop-color="#ff0000" stop-opacity="0.83065"/><stop offset="1" stop-color="#ff0000" stop-opacity="0.17671"/></radialGradient><radialGradient cx="421.45996" cy="192.91097" r="4.4161" gradientUnits="userSpaceOnUse" id="color-5"><stop offset="0" stop-color="#ff0000" stop-opacity="0.83065"/><stop offset="1" stop-color="#ff0000" stop-opacity="0.17671"/></radialGradient><radialGradient cx="430.3173" cy="192.35943" r="1.64521" gradientUnits="userSpaceOnUse" id="color-6"><stop offset="0" stop-color="#ff0000" stop-opacity="0.83065"/><stop offset="1" stop-color="#ff0000" stop-opacity="0.17671"/></radialGradient><radialGradient cx="426.91498" cy="200.37976" r="1.64521" gradientUnits="userSpaceOnUse" id="color-7"><stop offset="0" stop-color="#ff0000" stop-opacity="0.83065"/><stop offset="1" stop-color="#ff0000" stop-opacity="0.17671"/></radialGradient><linearGradient x1="258.82755" y1="230.78834" x2="286.68975" y2="198.28425" gradientUnits="userSpaceOnUse" id="color-8"><stop offset="0" stop-color="#790000"/><stop offset="1" stop-color="#ff0000"/></linearGradient><linearGradient x1="271.87637" y1="209.50862" x2="313.8506" y2="201.08331" gradientUnits="userSpaceOnUse" id="color-9"><stop offset="0" stop-color="#790000"/><stop offset="1" stop-color="#ff0000"/></linearGradient><linearGradient x1="262.43784" y1="178.44038" x2="324.49895" y2="178.83842" gradientUnits="userSpaceOnUse" id="color-10"><stop offset="0" stop-color="#790000"/><stop offset="1" stop-color="#ff0000"/></linearGradient><linearGradient x1="283.05652" y1="59.55786" x2="282.49208" y2="147.56431" gradientUnits="userSpaceOnUse" id="color-11"><stop offset="0" stop-color="#790000"/><stop offset="1" stop-color="#ff0000"/></linearGradient><linearGradient x1="260.99333" y1="132.6741" x2="289.84499" y2="132.85914" gradientUnits="userSpaceOnUse" id="color-12"><stop offset="0" stop-color="#ffffff"/><stop offset="1" stop-color="#ff7070"/></linearGradient><linearGradient x1="241.03747" y1="103.57022" x2="324.50764" y2="104.10557" gradientUnits="userSpaceOnUse" id="color-13"><stop offset="0" stop-color="#440000" stop-opacity="0.23387"/><stop offset="1" stop-color="#440000" stop-opacity="0"/></linearGradient><linearGradient x1="288.6818" y1="54.15612" x2="288.49239" y2="83.68821" gradientUnits="userSpaceOnUse" id="color-14"><stop offset="0" stop-color="#ff3b3b"/><stop offset="1" stop-color="#ffffff"/></linearGradient><linearGradient x1="302.45787" y1="69.55914" x2="305.079" y2="76.89989" gradientUnits="userSpaceOnUse" id="color-15"><stop offset="0" stop-color="#ff7979"/><stop offset="1" stop-color="#ff0000"/></linearGradient><linearGradient x1="268.16094" y1="60.53572" x2="269.95363" y2="69.62554" gradientUnits="userSpaceOnUse" id="color-16"><stop offset="0" stop-color="#ff0000"/><stop offset="1" stop-color="#ff7979"/></linearGradient><linearGradient x1="288.39921" y1="69.4304" x2="289.60973" y2="64.25988" gradientUnits="userSpaceOnUse" id="color-17"><stop offset="0" stop-color="#ff0000"/><stop offset="1" stop-color="#ff7979"/></linearGradient><linearGradient x1="298.02765" y1="66.21536" x2="299.45711" y2="60.10933" gradientUnits="userSpaceOnUse" id="color-18"><stop offset="0" stop-color="#ff0000"/><stop offset="1" stop-color="#ff7979"/></linearGradient><linearGradient x1="279.59806" y1="70.97915" x2="278.46641" y2="78.38114" gradientUnits="userSpaceOnUse" id="color-19"><stop offset="0" stop-color="#ff0000"/><stop offset="1" stop-color="#ff7979"/></linearGradient><linearGradient x1="297.99769" y1="181.98019" x2="309.41763" y2="182.05343" gradientUnits="userSpaceOnUse" id="color-20"><stop offset="0" stop-color="#ffffff" stop-opacity="0"/><stop offset="1" stop-color="#ffffff" stop-opacity="0.32345"/></linearGradient><linearGradient x1="306.46097" y1="299.26758" x2="396.36965" y2="299.84422" gradientUnits="userSpaceOnUse" id="color-21"><stop offset="0" stop-color="#5f0000" stop-opacity="0.76613"/><stop offset="1" stop-color="#5f0000" stop-opacity="0"/></linearGradient><linearGradient x1="299.36814" y1="132.89502" x2="314.67092" y2="132.99316" gradientUnits="userSpaceOnUse" id="color-22"><stop offset="0" stop-color="#ffffff" stop-opacity="0.09252"/><stop offset="1" stop-color="#ffffff" stop-opacity="0.43254"/></linearGradient><linearGradient x1="317.74451" y1="173.10017" x2="400.68179" y2="173.63212" gradientUnits="userSpaceOnUse" id="color-23"><stop offset="0" stop-color="#ff4a4a" stop-opacity="0"/><stop offset="1" stop-color="#ff4a4a" stop-opacity="0.44355"/></linearGradient><linearGradient x1="395.00233" y1="124.53648" x2="394.84815" y2="148.57599" gradientUnits="userSpaceOnUse" id="color-24"><stop offset="0" stop-color="#f43030"/><stop offset="1" stop-color="#f43030" stop-opacity="0"/></linearGradient><linearGradient x1="427.70101" y1="138.95415" x2="427.62141" y2="151.36544" gradientUnits="userSpaceOnUse" id="color-25"><stop offset="0" stop-color="#f43030"/><stop offset="1" stop-color="#f43030" stop-opacity="0"/></linearGradient><linearGradient x1="404.92788" y1="115.35033" x2="404.86278" y2="125.49959" gradientUnits="userSpaceOnUse" id="color-26"><stop offset="0" stop-color="#f43030"/><stop offset="1" stop-color="#f43030" stop-opacity="0"/></linearGradient><linearGradient x1="411.56886" y1="129.69754" x2="411.49396" y2="141.37491" gradientUnits="userSpaceOnUse" id="color-27"><stop offset="0" stop-color="#f43030"/><stop offset="1" stop-color="#f43030" stop-opacity="0"/></linearGradient><linearGradient x1="379.7379" y1="109.36057" x2="379.69827" y2="115.53903" gradientUnits="userSpaceOnUse" id="color-28"><stop offset="0" stop-color="#f43030"/><stop offset="1" stop-color="#f43030" stop-opacity="0"/></linearGradient><linearGradient x1="353.19501" y1="111.60552" x2="353.17275" y2="115.07549" gradientUnits="userSpaceOnUse" id="color-29"><stop offset="0" stop-color="#f43030"/><stop offset="1" stop-color="#f43030" stop-opacity="0"/></linearGradient><linearGradient x1="378.86124" y1="239.31038" x2="388.45376" y2="222.44197" gradientUnits="userSpaceOnUse" id="color-30"><stop offset="0" stop-color="#790000"/><stop offset="1" stop-color="#ff0000"/></linearGradient><linearGradient x1="354.16278" y1="199.21578" x2="423.77166" y2="199.66223" gradientUnits="userSpaceOnUse" id="color-31"><stop offset="0" stop-color="#929292"/><stop offset="1" stop-color="#000000"/></linearGradient><linearGradient x1="321.92654" y1="156.74583" x2="321.92654" y2="220.0616" gradientUnits="userSpaceOnUse" id="color-32"><stop offset="0" stop-color="#790000"/><stop offset="1" stop-color="#ff0000"/></linearGradient><linearGradient x1="353.18551" y1="200.08341" x2="407.16793" y2="200.42962" gradientUnits="userSpaceOnUse" id="color-33"><stop offset="0" stop-color="#c40000"/><stop offset="1" stop-color="#ff4141"/></linearGradient><linearGradient x1="339.16444" y1="197.45309" x2="358.5692" y2="197.57754" gradientUnits="userSpaceOnUse" id="color-34"><stop offset="0" stop-color="#790000"/><stop offset="1" stop-color="#ff0000"/></linearGradient><linearGradient x1="390.1799" y1="198.41105" x2="447.28761" y2="198.77733" gradientUnits="userSpaceOnUse" id="color-35"><stop offset="0" stop-color="#929292"/><stop offset="1" stop-color="#000000"/></linearGradient><linearGradient x1="422.17074" y1="155.25328" x2="421.58528" y2="246.53777" gradientUnits="userSpaceOnUse" id="color-36"><stop offset="0" stop-color="#f43030"/><stop offset="1" stop-color="#ff6b6b"/></linearGradient><linearGradient x1="430.6572" y1="212.9383" x2="446.80579" y2="213.04187" gradientUnits="userSpaceOnUse" id="color-37"><stop offset="0" stop-color="#f5f5f5" stop-opacity="0"/><stop offset="1" stop-color="#f5f5f5"/></linearGradient><linearGradient x1="434.7104" y1="186.71547" x2="441.01411" y2="181.02038" gradientUnits="userSpaceOnUse" id="color-38"><stop offset="0" stop-color="#f5f5f5" stop-opacity="0"/><stop offset="1" stop-color="#f5f5f5"/></linearGradient><linearGradient x1="394.92393" y1="200.72264" x2="435.51617" y2="200.98298" gradientUnits="userSpaceOnUse" id="color-39"><stop offset="0" stop-color="#000000" stop-opacity="0.20413"/><stop offset="1" stop-color="#000000" stop-opacity="0"/></linearGradient><linearGradient x1="363.3164" y1="234.03829" x2="399.75855" y2="234.27202" gradientUnits="userSpaceOnUse" id="color-40"><stop offset="0" stop-color="#790000"/><stop offset="1" stop-color="#ff0000"/></linearGradient><radialGradient cx="399.27549" cy="117.38582" r="33.92956" gradientUnits="userSpaceOnUse" id="color-41"><stop offset="0" stop-color="#000000" stop-opacity="0"/><stop offset="1" stop-color="#000000" stop-opacity="0"/></radialGradient><radialGradient cx="428.52471" cy="166.19788" r="17.56662" gradientUnits="userSpaceOnUse" id="color-42"><stop offset="0" stop-color="#ff0000" stop-opacity="0.83065"/><stop offset="1" stop-color="#ff0000" stop-opacity="0.17671"/></radialGradient><radialGradient cx="436.03074" cy="232.9882" r="17.56662" gradientUnits="userSpaceOnUse" id="color-43"><stop offset="0" stop-color="#ff0000" stop-opacity="0.83065"/><stop offset="1" stop-color="#ff0000" stop-opacity="0.17671"/></radialGradient><radialGradient cx="446.63496" cy="216.9541" r="7.53214" gradientUnits="userSpaceOnUse" id="color-44"><stop offset="0" stop-color="#ff0000" stop-opacity="0.83065"/><stop offset="1" stop-color="#ff0000" stop-opacity="0.17671"/></radialGradient><radialGradient cx="451.72268" cy="204.61836" r="5.66527" gradientUnits="userSpaceOnUse" id="color-45"><stop offset="0" stop-color="#ff0000" stop-opacity="0.83065"/><stop offset="1" stop-color="#ff0000" stop-opacity="0.17671"/></radialGradient><radialGradient cx="446.33292" cy="175.64668" r="3.23142" gradientUnits="userSpaceOnUse" id="color-46"><stop offset="0" stop-color="#ff0000" stop-opacity="0.83065"/><stop offset="1" stop-color="#ff0000" stop-opacity="0.17671"/></radialGradient><radialGradient cx="453.5055" cy="188.36611" r="9.80282" gradientUnits="userSpaceOnUse" id="color-47"><stop offset="0" stop-color="#ff0000" stop-opacity="0.83065"/><stop offset="1" stop-color="#ff0000" stop-opacity="0.17671"/></radialGradient><radialGradient cx="463.08549" cy="203.91081" r="2.1106" gradientUnits="userSpaceOnUse" id="color-48"><stop offset="0" stop-color="#ff0000" stop-opacity="0.83065"/><stop offset="1" stop-color="#ff0000" stop-opacity="0.17671"/></radialGradient><radialGradient cx="458.72075" cy="214.19983" r="2.1106" gradientUnits="userSpaceOnUse" id="color-49"><stop offset="0" stop-color="#ff0000" stop-opacity="0.83065"/><stop offset="1" stop-color="#ff0000" stop-opacity="0.17671"/></radialGradient><linearGradient x1="260.62018" y1="172.72591" x2="358.72793" y2="172.72591" gradientUnits="userSpaceOnUse" id="color-50"><stop offset="0" stop-color="#5b0000"/><stop offset="1" stop-color="#5b0000" stop-opacity="0"/></linearGradient></defs><g transform="translate(-240,-54.15425)"><g data-paper-data="{&quot;isPaintingLayer&quot;:true}" fill-rule="nonzero" stroke-width="0" stroke-linecap="butt" stroke-linejoin="miter" stroke-miterlimit="10" stroke-dasharray="" stroke-dashoffset="0" style="mix-blend-mode: normal"><path d="M332.75547,227.40318c-1.61023,-4.24488 0.52556,-8.99139 4.77044,-10.60162c4.24488,-1.61023 8.99139,0.52556 10.60162,4.77044c1.61023,4.24488 6.70929,10.52414 2.46441,12.13436c-4.24488,1.61023 -16.22624,-2.05831 -17.83647,-6.30319z" fill="url(#color-1)" stroke="#000000"/><path d="M458.42096,176.71866c0.03821,-5.95882 4.86277,-4.98679 10.8216,-4.94858c5.95882,0.03821 10.79544,-0.87184 10.75722,5.08698c-0.03821,5.95882 -4.89978,10.75842 -10.8586,10.72021c-5.95882,-0.03821 -10.75843,-4.89978 -10.72022,-10.8586z" fill="url(#color-2)" stroke="#000000"/><path d="M395.53506,214.93753c0.0485,-7.56241 6.21837,-13.65363 13.78077,-13.60513c7.56241,0.0485 13.65362,6.21837 13.60512,13.78077c-0.0485,7.56241 -6.21837,13.65363 -13.78076,13.60513c-7.56241,-0.0485 -13.65363,-6.21837 -13.60513,-13.78077z" fill="url(#color-3)" stroke="none"/><path d="M411.62282,202.48906c0.0208,-3.24258 2.66629,-5.85435 5.90887,-5.83355c3.24258,0.0208 5.85436,2.66629 5.83356,5.90887c-0.0208,3.24258 -2.66629,5.85436 -5.90888,5.83356c-3.24258,-0.0208 -5.85435,-2.6663 -5.83355,-5.90888z" fill="url(#color-4)" stroke="none"/><path d="M417.04396,192.88266c0.01499,-2.33842 2.00427,-4.22143 4.44318,-4.20579c2.43889,0.01564 4.40385,1.924 4.38885,4.26243c-0.01499,2.33842 -2.00428,4.22142 -4.44317,4.20577c-2.43889,-0.01564 -4.40386,-1.92399 -4.38886,-4.26242z" fill="url(#color-5)" stroke="none"/><path d="M428.67212,192.34888c0.00558,-0.87117 0.74669,-1.57269 1.6553,-1.56686c0.9086,0.00583 1.64065,0.71679 1.63506,1.58797c-0.00558,0.87117 -0.74667,1.57269 -1.6553,1.56686c-0.9086,-0.00583 -1.64065,-0.71679 -1.63506,-1.58797z" fill="url(#color-6)" stroke="none"/><path d="M425.26981,200.36922c0.00558,-0.87117 0.74667,-1.57269 1.65529,-1.56686c0.9086,0.00583 1.64065,0.71679 1.63506,1.58797c-0.00558,0.87117 -0.74669,1.57269 -1.6553,1.56686c-0.9086,-0.00583 -1.64064,-0.71679 -1.63505,-1.58797z" fill="url(#color-7)" stroke="none"/><path d="M295.63923,264.05432l28.37068,-18.11162l8.01575,27.059l8.62778,19.54614l23.05742,-30.94793l15.38164,-0.57728l20.99863,22.28826l2.15629,25.09954l-5.57995,4.87948l-26.81914,-14.20358l-16.98715,30.25806l-28.78592,-18.36157z" fill="url(#color-8)" stroke="#b70000"/><path d="M285.83271,262.73024l-9.47251,-30.2357l-10.74328,-14.06109l-9.42282,-27.98816l4.9288,-34.50899l41.97418,-8.42533l10.0864,7.47456l-2.62933,27.13266l16.11279,70.86068l-12.79906,8.63639l-10.3643,26.24925l-5.44421,25.31858l-1.50317,22.0795l0.33924,13.59831l3.32418,8.75867l-6.7242,13.26711l-29.58799,6.6638l-22.81056,-9.83795l-1.09688,-7.42089l25.7055,-16.85909l8.129,-30.5577z" fill="url(#color-9)" stroke="#b70000"/><path d="M276.35895,232.69865l-10.74328,-14.06106l-9.42282,-27.98816l4.92749,-34.30482l9.85422,1.60687l-8.17744,3.80223l5.85733,3.47574l-5.85984,1.86325l2.01612,3.77823l-2.50188,3.49705l9.02542,5.18684l-9.10555,4.88513l6.12648,4.39662l-5.52262,6.04077l11.80243,4.44258l-10.36363,5.10943l6.42815,1.72115l-3.89241,5.84364l1.9033,2.86244l7.59273,1.16253l-7.31418,3.72506l3.3375,4.61318l5.07932,1.43587z" fill="#5b0000" stroke="#b70000"/><path d="M285.72989,261.67429l-8.99243,-29.26369l10.25398,0.90938l-3.42181,8.34233l9.83398,3.65323l-4.6996,3.49564l7.00731,5.44864l-6.24457,2.19597l2.79064,3.99149l-3.66842,1.46872l4.14686,5.05627l-6.00119,4.4591l1.13658,3.77103l-4.11877,2.32227l4.15432,5.84247l-6.40145,3.75474l1.1942,4.65003l-4.16802,3.16419l4.09814,7.69628l-6.53862,4.75535l7.73031,7.97438l-10.27693,0.13384l1.87285,8.33569l-4.98444,2.26395l1.53103,3.87732l-3.02794,2.5344l2.29404,7.87442l-5.30625,3.26952l3.61291,8.38865l-7.45782,-0.63798l-3.105,7.50295l-9.32499,-3.32806l-5.88225,8.2466l-3.53185,-3.6924l23.69143,-16.79455l9.21147,-33.00631z" fill="#5d0000" stroke="#b70000"/><g><path d="M273.74485,156.55712l0.72985,-10.41941l16.01213,-6.40033l5.9791,18.34893l-10.55719,8.82901z" fill="url(#color-10)" stroke="#b70000"/><path d="M241.0247,105.5616c0.07253,-11.3072 9.90327,-38.79107 9.90327,-38.79107c0,0 35.8099,-7.18909 47.55232,-7.11377c10.58804,0.06791 24.49681,9.14612 24.49681,9.14612c0,0 1.59757,24.83247 1.51764,37.29406c-0.0785,12.23888 -13.85858,30.79377 -13.85858,30.79377c0,0 -17.33339,10.74291 -28.14412,10.67358c-11.08332,-0.07109 -28.55769,-11.55239 -28.55769,-11.55239c0,0 -12.98641,-18.48404 -12.90967,-30.45032z" fill="url(#color-11)" stroke="#000000"/><path d="M283.69534,121.63382l-0.62388,-23.98319l40.25947,-12.18502l-11.12596,37.12877l-15.66954,-3.63931z" data-paper-data="{&quot;index&quot;:null}" fill="#000000" stroke="#000000"/><path d="M284.65324,104.26876l11.78648,-4.81293l-0.07252,11.30615z" data-paper-data="{&quot;index&quot;:null}" fill="#ffffff" stroke="none"/><path d="M265.77704,140.12222l-4.76451,-10.44205c0,0 9.70552,0.60663 13.06138,0.62816c4.59518,0.02947 15.82513,-5.88681 15.82513,-5.88681l-0.10823,16.87544l-10.91734,1.47904z" fill="url(#color-12)" stroke="#000000"/><path d="M264.86673,138.14131l-1.98441,-4.28164l8.40931,2.90269z" fill="#ce0000" stroke="none"/><path d="M285.47338,135.90659l4.42832,-3.76712l-0.08208,3.32163z" data-paper-data="{&quot;index&quot;:null}" fill="#ce0000" stroke="none"/><path d="M270.6818,136.91445l-0.01093,-0.33312c0,0 4.45176,0.55698 6.8983,0.38692c2.86068,-0.19882 9.21847,-1.5071 9.21847,-1.5071l-0.88972,0.42071c0,0 -5.55668,1.24331 -8.19525,1.42238c-2.41332,0.16378 -7.02087,-0.3898 -7.02087,-0.3898z" fill="#ce0000" stroke="#b70000"/><path d="M241.02292,105.83842c0.07253,-11.3072 9.90327,-38.79104 9.90327,-38.79104l2.08555,2.83798l9.34469,10.30937l-9.87219,2.06361l5.28619,3.63109l-5.71871,1.22513c0,0 -8.11053,4.55558 -5.64882,8.78945c1.42169,2.44511 1.64869,22.37117 1.64869,22.37117l15.0339,3.74537l-11.76252,3.82741l6.69409,2.70093l-3.34585,2.80705l2.98838,4.24477l2.93509,-0.09949c0,0 0.35157,3.80598 -0.42644,4.28117c-0.72199,0.44097 -6.23568,-3.49358 -6.23568,-3.49358c0,0 -12.98641,-18.48405 -12.90966,-30.45033z" fill="url(#color-13)" stroke="#000000"/><path d="M254.93942,123.34182c0,0 -8.33443,-3.79598 -10.65102,-7.40895c-2.42975,-3.7895 -3.60422,-14.8238 -3.60422,-14.8238c0,0 -0.58951,-8.28191 0.60387,-11.37632c0.98487,-2.55371 3.87778,-6.43977 3.87778,-6.43977l22.54362,17.45535l0.4016,22.54072z" fill="#000000" stroke="#000000"/><path d="M243.11271,110.77448c0,0 -2.46923,-7.78369 -2.71739,-9.62087c-0.26076,-1.93037 0.15858,-5.93176 0.15858,-5.93176l12.95973,6.40839l0.74126,15.01046z" fill="#ffffff" stroke="none"/><path d="M322.90191,69.1423c-0.05231,8.15504 -14.11576,14.67611 -34.40946,14.54595c-20.2937,-0.13015 -38.06349,-6.8554 -38.01118,-15.01044c0.05231,-8.15504 17.90692,-14.65179 38.20059,-14.52164c20.29371,0.13015 34.27235,6.83108 34.22005,14.98612z" fill="url(#color-14)" stroke="#000000"/><path d="M295.50414,80.31873l-3.60168,-3.03223l0.98058,-4.30854l8.79989,-4.58151l10.3499,-2.25615l2.32502,3.48809l0.29607,3.85268l-8.59469,4.14839z" fill="url(#color-15)" stroke="#b70000"/><path d="M269.39701,70.96705l-11.29968,0.99675l-2.043,-4.11349l0.25031,-4.97634l11.93974,-3.99705l11.77284,-0.6795l3.62382,3.80171l-1.83115,5.2881z" data-paper-data="{&quot;index&quot;:null}" fill="url(#color-16)" stroke="#b70000"/><path d="M290.18251,63.69899l5.65101,2.2644l0.04346,2.64319l-1.25395,2.52732l-6.64181,-0.86113l-5.80584,-2.54599l-0.87327,-2.87034l2.08376,-2.30018z" data-paper-data="{&quot;index&quot;:null}" fill="url(#color-17)" stroke="#b70000"/><path d="M300.14076,58.33917l8.05822,2.68297l0.87331,4.51159l-2.5887,2.97745l-8.94952,-1.30098l-6.85624,-3.00662l-1.03127,-3.38969l2.4608,-2.71631z" data-paper-data="{&quot;index&quot;:null}" fill="url(#color-18)" stroke="#b70000"/><path d="M277.67509,79.24821l-8.8635,-2.34326l-0.42421,-3.68771l1.55597,-3.71429l10.17344,0.23811l9.13613,2.71431l1.71149,3.88454l-2.84324,3.51745z" data-paper-data="{&quot;index&quot;:null}" fill="url(#color-19)" stroke="#b70000"/></g><path d="M285.53402,207.43003l22.99093,-14.72334l-10.35108,-10.46463l10.27694,-10.69052l-6.43349,-3.50164l4.97424,-6.85801l-8.81572,-6.9918l4.83951,-6.10444l10.37635,7.87301l-2.37757,28.95306c0,0 8.73657,38.95781 12.54534,55.12542c1.05975,4.49846 2.6764,13.50152 2.6764,13.50152l6.79664,21.84333l7.67639,17.32843l22.76265,-31.3056l15.7617,-0.45959l20.96765,22.72456l2.23734,25.67933l-6.60381,-11.16115l-0.10916,-9.96865l-11.8196,2.9597l3.73871,-14.09927l-10.30237,-1.93296l2.01819,-6.57033l-12.63514,1.41258l-0.58815,13.51918l-11.672,-5.52995l-2.11734,8.72827l-4.92068,0.17728l-5.24484,11.08036l-10.81048,0.17724l1.87472,-14.27917l-16.92514,-0.83776l8.54447,-19.78995l-9.16558,2.02516l6.25598,-8.11568l-15.1975,-9.70192l11.32341,-13.66648l-5.78146,-6.64815l3.78873,-7.84339l-14.61449,-2.08977l11.47726,-10.64937z" fill="url(#color-20)" stroke="#e50000"/><path d="M324.78917,311.389l-18.21182,-30.26194l3.97061,-11.07016l6.39398,-1.13109l-2.82899,16.776l13.72588,1.90242l1.87912,14.53634l14.20722,-0.06886l5.95437,-9.12298l9.70048,2.19575l-2.08575,-9.66838l12.05464,3.43483l2.41033,-10.52872l10.43297,1.99733l-1.84045,15.84464l10.59119,-1.30611l5.13847,18.6882l-26.08442,-14.48874l-17.06551,30.85836z" fill="url(#color-21)" stroke="#000000"/><path d="M316.26199,74.93626l6.90115,-6.31694c0,0 0.26573,5.00636 0.42109,7.93355c0.19257,3.62783 0.46203,12.18477 0.46203,12.18477l-2.07165,-8.46465l-3.91173,2.90205l1.68858,-7.88501z" fill="#ffffff" stroke="#000000"/><path d="M305.49069,125.61705l4.63607,0.80653l4.03752,-2.2884l4.25469,-7.0106l-3.71098,10.09599c0,0 -2.56245,6.15002 -4.78478,8.0615c-2.75423,2.36901 -10.6019,4.92989 -10.6019,4.92989l5.43508,-6.81189l-4.68738,-1.32348l7.27373,-3.48101z" fill="url(#color-22)" stroke="#000000"/><g><g stroke="#000000"><path d="M335.71407,114.46579c0,0 13.9971,-6.80161 29.42829,-6.96216c12.13839,-0.12629 25.39136,5.77446 31.87173,9.28719c16.05556,8.70299 46.43122,51.14636 46.43122,51.14636l-52.88303,15.9976c0,0 12.06618,-42.11501 -3.5844,-59.70472c-4.45688,-5.00909 -13.01596,-10.75371 -21.89973,-12.05952c-14.27863,-2.09878 -29.36409,2.29525 -29.36409,2.29525z" fill="url(#color-23)"/><path d="M386.94683,140.57266l1.89958,-16.07566l14.0051,16.17767l-2.52536,5.63441l-5.47799,2.26692l-5.47793,-1.83655z" fill="url(#color-24)"/><path d="M425.59113,147.48356l-3.02191,-8.56226l8.01533,4.90895l2.20406,2.04782l-0.67986,3.65531l-2.67372,1.84371z" fill="url(#color-25)"/><path d="M403.82836,122.41124l-5.58377,-7.10384l9.47731,3.25996l3.8439,3.89351l-1.10994,3.05111l-3.9592,-0.00192z" fill="url(#color-26)"/><path d="M409.09207,138.46827l-2.20214,-8.80074l6.98454,4.65968l2.3136,4.71345l-2.37938,2.34905z" fill="url(#color-27)"/><path d="M374.47828,109.34727l7.7251,0.02912l2.77615,2.81197l-0.50828,2.84818l-2.11073,0.51956l-3.42901,-1.36505z" fill="url(#color-28)"/><path d="M348.9131,112.47817l5.33827,-0.86588l1.60775,0.122l1.59992,1.78211l-1.11667,1.31822l-1.51935,0.25147z" fill="url(#color-29)"/></g><g stroke="#b70000"><path d="M378.86124,239.31038c-10.78503,-6.13307 -17.38065,-14.88108 -14.73173,-19.53917c2.64891,-4.65808 13.53922,-3.46236 24.32427,2.67072c10.78503,6.13307 17.38067,14.88107 14.73176,19.53915c-2.64891,4.65808 -13.53924,3.46238 -24.32427,-2.67072z" fill="url(#color-30)"/><path d="M353.3249,219.09946l5.95571,-42.58125l64.75981,-18.76339l-0.53756,83.81478l-36.08361,-3.45825z" fill="url(#color-31)"/><path d="M261.12278,156.74583l51.77103,15.92484c0,0 31.23956,2.34913 48.87895,2.46225c5.65851,0.03629 14.74272,5.63985 14.74272,5.63985l7.57744,16.96848l-4.80074,13.73793c0,0 -10.58896,8.62852 -17.80759,8.58223c-6.08826,-0.03905 -61.71615,-22.18081 -61.71615,-22.18081l-28.20333,-19.31231l-9.04806,-11.36745l6.44981,-1.55765z" fill="url(#color-32)"/><path d="M352.98507,231.33636l-5.42791,-35.41308l5.82879,-27.09286l20.68054,-12.65319l19.11419,10.06712l-7.14017,8.47224l-19.89473,-7.49988l-5.30977,30.02227l3.40532,17.76726l6.23972,8.16431l15.40443,-1.22795l1.77479,10.57119l-11.57376,4.4648z" fill="url(#color-33)"/><path d="M339.16444,197.45309c0.07958,-12.40666 4.48799,-22.43638 9.84647,-22.40201c5.35848,0.03436 9.55829,22.52647 9.55829,22.52647c0,0 -4.48797,22.43639 -9.84645,22.40202c-5.35848,-0.03436 -9.63789,-10.11979 -9.55831,-22.52647z" fill="url(#color-34)"/><path d="M450.69702,198.79919l-6.59091,38.80078l-23.16241,15.13509l-26.06833,-20.58608l-8.10484,-33.75979l6.34278,-31.6812l23.41058,-22.25466l26.90328,19.66686z" fill="url(#color-35)"/><path d="M448.8321,201.06839l-5.55802,32.72006l-19.53248,12.76317l-21.98299,-17.35989l-6.83466,-28.46908l5.34874,-26.71619l19.74174,-18.76698l22.6871,16.58472z" fill="url(#color-36)"/><path d="M445.93946,214.06587l-2.8576,15.58333l-6.65439,5.43361l-5.50019,-9.18796l-0.26349,-13.98602l3.27815,-12.68941l7.09354,-8.32198l5.75981,8.8401z" fill="url(#color-37)"/><path d="M440.83683,181.49882l1.32301,3.62834l-1.74167,3.26664l-3.57757,0.40238l-2.28857,-2.25597l-0.70693,-3.29104l1.46119,-3.90712l3.62428,-0.55266z" fill="url(#color-38)"/><path d="M402.94488,211.92965l16.79734,-1.95116l-8.98438,15.13754l12.47833,2.47541l-1.95542,11.1097l13.98961,0.61373l-11.52876,7.23669l-21.98299,-17.35989l-6.83466,-28.46908l5.34874,-26.71619l19.74174,-18.76698l-15.06215,31.1471l20.19423,-10.69087z" fill="url(#color-39)"/><path d="M363.3164,234.03829l4.98195,-12.40307l13.35599,-5.70113l12.16848,4.76385l5.93573,13.57408l-7.09548,14.31477l-11.24246,3.78945l-13.47668,-6.08676z" fill="url(#color-40)"/></g><path d="M433.20436,117.60343c-0.08458,13.1863 -15.34362,23.77845 -34.082,23.65827c-18.73839,-0.12018 -33.86031,-10.90719 -33.77573,-24.09349c0.08458,-13.1863 15.34361,-23.77844 34.082,-23.65827c18.73839,0.12018 33.86032,10.9072 33.77574,24.09349z" fill="url(#color-41)" stroke="#000000"/><path d="M410.95846,166.08522c0.06223,-9.70157 7.97735,-17.51581 17.67892,-17.45358c9.70158,0.06222 17.51582,7.97735 17.45359,17.67891c-0.06223,9.70157 -7.97735,17.5158 -17.67892,17.45357c-9.70158,-0.06222 -17.51582,-7.97733 -17.45359,-17.6789z" fill="url(#color-42)" stroke="none"/><path d="M418.46448,232.87553c0.06223,-9.70157 7.97735,-17.51581 17.67892,-17.45358c9.70158,0.06222 17.5158,7.97735 17.45357,17.67891c-0.06223,9.70157 -7.97735,17.51581 -17.6789,17.45359c-9.70158,-0.06222 -17.51582,-7.97735 -17.45359,-17.67892z" fill="url(#color-43)" stroke="none"/><path d="M439.10294,216.90578c0.02668,-4.1598 3.4205,-7.51036 7.58031,-7.48368c4.15981,0.02668 7.51037,3.4205 7.4837,7.5803c-0.02668,4.1598 -3.4205,7.51036 -7.58031,7.48368c-4.15981,-0.02668 -7.51037,-3.42051 -7.4837,-7.58031z" fill="url(#color-44)" stroke="none"/><path d="M446.05753,204.58203c0.01923,-2.99989 2.57123,-5.41554 5.70002,-5.39547c3.12878,0.02007 5.64955,2.46825 5.63031,5.46814c-0.01923,2.99989 -2.57123,5.41552 -5.69998,5.39545c-3.12878,-0.02007 -5.64958,-2.46822 -5.63035,-5.46811z" fill="url(#color-45)" stroke="none"/><path d="M443.10157,175.62596c0.01098,-1.71111 1.4666,-3.08899 3.25122,-3.07754c1.78464,0.01145 3.22245,1.40788 3.21147,3.11899c-0.01098,1.71111 -1.46659,3.08898 -3.25122,3.07754c-1.78464,-0.01145 -3.22245,-1.40786 -3.21147,-3.11897z" fill="url(#color-46)" stroke="none"/><path d="M443.70288,188.30323c0.03329,-5.19083 4.44907,-9.37067 9.86291,-9.33596c5.41382,0.03472 9.77563,4.27087 9.74234,9.4617c-0.03329,5.19083 -4.44906,9.37069 -9.8629,9.33597c-5.41382,-0.03472 -9.77564,-4.27089 -9.74235,-9.46171z" fill="url(#color-47)" stroke="none"/><path d="M460.97494,203.89727c0.00717,-1.1176 0.95792,-2.01755 2.12353,-2.01008c1.16561,0.00748 2.10474,0.91953 2.09757,2.03714c-0.00717,1.1176 -0.95789,2.01756 -2.12353,2.01009c-1.16561,-0.00748 -2.10474,-0.91953 -2.09757,-2.03716z" fill="url(#color-48)" stroke="none"/><path d="M456.61021,214.1863c0.00717,-1.1176 0.95788,-2.01755 2.12351,-2.01008c1.16561,0.00748 2.10474,0.91953 2.09757,2.03714c-0.00717,1.1176 -0.95793,2.01755 -2.12353,2.01008c-1.16561,-0.00748 -2.10472,-0.91953 -2.09755,-2.03716z" fill="url(#color-49)" stroke="none"/></g><path d="M265.3893,166.34236l-3.74717,-9.1976l50.85723,15.11558l46.22855,3.62027l-3.74717,11.24152l-8.18498,-6.75692l-7.15564,7.94188l-8.12887,-9.40621l-3.6479,2.7586l-9.00863,-5.65464l-3.18324,8.90362l-11.43996,-11.11084l-5.43084,1.96807l-5.96766,-5.91539l-2.7922,7.57891l-8.94938,-8.89043l-2.78815,4.05123l-6.45471,-7.5537z" fill="url(#color-50)" stroke="#9d9d9d"/></g></g></svg>