<svg version="1.1" xmlns="http://www.w3.org/2000/svg" xmlns:xlink="http://www.w3.org/1999/xlink" width="63.457" height="63.457" viewBox="0,0,63.457,63.457"><defs><radialGradient cx="239.99998" cy="180" r="31.7285" gradientUnits="userSpaceOnUse" id="color-1"><stop offset="0" stop-color="#000000"/><stop offset="1" stop-color="#000000" stop-opacity="0"/></radialGradient><linearGradient x1="239.19341" y1="204.86799" x2="239.19341" y2="154.51058" gradientUnits="userSpaceOnUse" id="color-2"><stop offset="0" stop-color="#cc0000"/><stop offset="1" stop-color="#ff6b6b"/></linearGradient><linearGradient x1="239.53395" y1="204.93369" x2="239.53395" y2="181.47583" gradientUnits="userSpaceOnUse" id="color-3"><stop offset="0" stop-color="#a10000"/><stop offset="1" stop-color="#a10000" stop-opacity="0"/></linearGradient><linearGradient x1="236.81532" y1="166.18794" x2="255.88241" y2="166.18794" gradientUnits="userSpaceOnUse" id="color-4"><stop offset="0" stop-color="#ffcfcf"/><stop offset="1" stop-color="#ffffff"/></linearGradient><linearGradient x1="236.81532" y1="166.18794" x2="255.88241" y2="166.18794" gradientUnits="userSpaceOnUse" id="color-5"><stop offset="0" stop-color="#510000"/><stop offset="1" stop-color="#ff0000"/></linearGradient><linearGradient x1="236.94244" y1="192.56919" x2="256.00953" y2="192.56919" gradientUnits="userSpaceOnUse" id="color-6"><stop offset="0" stop-color="#ffcfcf"/><stop offset="1" stop-color="#ffffff"/></linearGradient><linearGradient x1="236.94244" y1="192.56919" x2="256.00953" y2="192.56919" gradientUnits="userSpaceOnUse" id="color-7"><stop offset="0" stop-color="#510000"/><stop offset="1" stop-color="#ff0000"/></linearGradient></defs><g transform="translate(-208.2715,-148.2715)"><g data-paper-data="{&quot;isPaintingLayer&quot;:true}" fill-rule="nonzero" stroke-linejoin="miter" stroke-miterlimit="10" stroke-dasharray="" stroke-dashoffset="0" style="mix-blend-mode: normal"><path d="M208.2715,180c0,-17.52316 14.20534,-31.7285 31.7285,-31.7285c17.52316,0 31.7285,14.20534 31.7285,31.7285c0,17.52316 -14.20534,31.7285 -31.7285,31.7285c-17.52316,0 -31.7285,-14.20534 -31.7285,-31.7285z" fill="url(#color-1)" stroke="#000000" stroke-width="0" stroke-linecap="butt"/><path d="M239.19341,154.51058c13.9025,0 26.16451,10.03608 26.16451,23.94192c0,13.90582 -12.262,26.41554 -26.16451,26.41554c-13.9025,0 -25.17273,-11.27289 -25.17273,-25.17872c0,-13.90582 11.2702,-25.17872 25.17273,-25.17872z" fill="url(#color-2)" stroke="none" stroke-width="0" stroke-linecap="butt"/><path d="M265.33069,179.87053c0,0 -0.44433,5.51833 -2.22438,9.36905c-1.52273,3.29407 -5.84031,7.82205 -9.12592,10.78634c-3.98086,3.49437 -10.07271,4.90774 -14.44644,4.90774c-5.48992,0 -13.33292,-2.18853 -18.00964,-6.91336c-2.38565,-2.41019 -3.77633,-4.67601 -5.13911,-8.01294c-0.58792,-1.4396 -1.93686,-5.24575 -2.16951,-7.9991c-0.2196,-2.59876 0.03935,-5.74531 0.03935,-5.74531c0,0 9.3835,-2.35722 23.92564,-1.32357c17.88441,0.51972 27.15001,4.93114 27.15001,4.93114z" fill="url(#color-3)" stroke="none" stroke-width="0" stroke-linecap="butt"/><g fill="none" stroke="#660000" stroke-width="1"><path d="M250.5985,177.52389c1.09109,0 1.97559,0.89489 1.97559,1.99881c0,1.10392 -0.8845,1.99881 -1.97559,1.99881c-1.09109,0 -1.97559,-0.89489 -1.97559,-1.99881c0,-1.10392 0.8845,-1.99881 1.97559,-1.99881z" stroke-linecap="butt"/><path d="M215.24228,179.45376l33.24439,0.13786" stroke-linecap="round"/><path d="M263.61014,172.42347c0,0 -3.62879,2.0683 -5.53944,2.978c-1.94894,0.92792 -6.0416,2.53597 -6.0416,2.53597" stroke-linecap="round"/><path d="M251.62036,181.24581c0,0 4.09264,1.60803 6.04158,2.53597c1.91065,0.9097 5.53946,2.978 5.53946,2.978" data-paper-data="{&quot;index&quot;:null}" stroke-linecap="round"/><path d="M220.41161,165.34146c0,0 8.63043,1.9607 16.19585,5.06146c7.8597,3.22139 13.18327,7.25883 13.18327,7.25883" stroke-linecap="round"/><path d="M249.22211,181.4526c0,0 -5.32358,4.03744 -13.18327,7.25883c-7.56542,3.10076 -16.19585,5.06146 -16.19585,5.06146" data-paper-data="{&quot;index&quot;:null}" stroke-linecap="round"/><path d="M220.48742,165.05714c0,0 0.42025,2.93125 -0.79825,7.19866c-1.16803,4.09063 -4.35732,7.2066 -4.35732,7.2066" stroke-linecap="round"/><path d="M215.02859,179.4624c0,0 2.73438,3.11597 3.90241,7.2066c1.21849,4.2674 0.79825,7.19866 0.79825,7.19866" data-paper-data="{&quot;index&quot;:null}" stroke-linecap="round"/><path d="M231.39519,157.08086c0,0 4.74678,2.99656 10.66444,8.63854c6.14784,5.86144 9.63646,11.55976 9.63646,11.55976" stroke-linecap="round"/><path d="M251.69609,181.79726c0,0 -3.48863,5.69832 -9.63646,11.55976c-5.91764,5.64197 -11.72587,8.94181 -11.72587,8.94181" data-paper-data="{&quot;index&quot;:null}" stroke-linecap="round"/><path d="M219.75805,194.3404c0,0 3.83061,0.17463 6.54119,2.89068c2.8277,2.83343 3.77828,5.32958 3.77828,5.32958" data-paper-data="{&quot;index&quot;:null}" stroke-linecap="round"/><path d="M230.54359,156.90103c0,0 -0.95059,2.49613 -3.77828,5.32956c-2.71058,2.71605 -6.5412,2.89068 -6.5412,2.89068" data-paper-data="{&quot;index&quot;:null}" stroke-linecap="round"/><path d="M263.22283,186.47435c0,0 -1.23244,-2.34088 -1.50671,-6.77036c-0.2629,-4.24598 2.17083,-7.31502 2.17083,-7.31502" data-paper-data="{&quot;index&quot;:null}" stroke-linecap="round"/><path d="M228.64253,179.43064c0,0 2.78439,0.82991 4.1092,4.43117c1.38203,3.75689 0.11305,5.80034 0.11305,5.80034" data-paper-data="{&quot;index&quot;:null}" stroke-linecap="round"/><path d="M233.17547,169.17754c0,0 1.26898,2.04344 -0.11305,5.80034c-1.32481,3.60125 -4.1092,4.43117 -4.1092,4.43117" data-paper-data="{&quot;index&quot;:null}" stroke-linecap="round"/><path d="M232.5008,189.75706c0,0 1.8317,-0.06957 3.64004,2.87988c1.88646,3.07691 1.12607,4.64192 1.12607,4.64192" data-paper-data="{&quot;index&quot;:null}" stroke-linecap="round"/><path d="M256.90114,161.68182c0,0 -0.43128,3.53549 -1.65968,8.51419c-1.72327,3.36024 -3.28228,6.76121 -3.28228,6.76121" stroke-linecap="round"/><path d="M237.73296,161.7939c0,0 0.76038,1.56503 -1.12609,4.64192c-1.80834,2.94945 -3.64002,2.87988 -3.64002,2.87988" data-paper-data="{&quot;index&quot;:null}" stroke-linecap="round"/><path d="M257.52587,175.44743c0,0 -1.45119,0.1005 -3.41281,-2.04674c-1.78292,-1.78825 -1.6194,-3.65784 -1.6194,-3.65784" data-paper-data="{&quot;index&quot;:null}" stroke-linecap="round"/><path d="M251.39428,181.45364c0,0 1.55903,3.4324 3.28228,6.82372c1.2284,5.02474 1.65968,8.59291 1.65968,8.59291" data-paper-data="{&quot;index&quot;:null}" stroke-linecap="round"/><path d="M251.22261,189.14723c0,0 -0.16352,-1.86958 1.6194,-3.65783c1.96162,-2.14722 3.41279,-2.04674 3.41279,-2.04674" data-paper-data="{&quot;index&quot;:null}" stroke-linecap="round"/><path d="M257.00883,183.50858c0,0 -1.09121,-0.96193 -0.94181,-3.86645c0.01956,-2.52514 1.4647,-3.72248 1.4647,-3.72248" data-paper-data="{&quot;index&quot;:null}" stroke-linecap="round"/><path d="M263.87569,172.25658c0,0 -1.78875,-0.64285 -4.56987,-4.10129c-2.66592,-3.31517 -2.02681,-6.52 -2.02681,-6.52" data-paper-data="{&quot;index&quot;:null}" stroke-linecap="round"/><path d="M256.50978,196.83266c0,0 -0.2009,-1.60766 1.6999,-5.61794c1.82207,-3.84415 4.98509,-4.66554 4.98509,-4.66554" data-paper-data="{&quot;index&quot;:null}" stroke-linecap="round"/></g><path d="M236.81532,156.47858c0,0 18.21012,-0.11345 19.03039,9.63171c0.58339,6.93094 -5.98098,9.78706 -5.98098,9.78706c0,0 -5.61148,-3.48832 -7.42207,-6.18267c-1.2208,-1.81668 -2.20304,-5.09466 -3.32459,-8.00929c-1.0659,-2.76997 -2.30275,-5.2268 -2.30275,-5.2268z" fill="url(#color-4)" stroke="url(#color-5)" stroke-width="1" stroke-linecap="butt"/><path d="M239.24519,197.05174c1.12157,-2.91463 2.10378,-6.19261 3.32459,-8.00929c1.81059,-2.69433 7.42207,-6.18267 7.42207,-6.18267c0,0 6.56436,2.85611 5.98098,9.78706c-0.82026,9.74516 -19.03039,9.63171 -19.03039,9.63171c0,0 1.23685,-2.45683 2.30274,-5.2268z" data-paper-data="{&quot;index&quot;:null}" fill="url(#color-6)" stroke="url(#color-7)" stroke-width="1" stroke-linecap="butt"/></g></g></svg>