<svg version="1.1" xmlns="http://www.w3.org/2000/svg" xmlns:xlink="http://www.w3.org/1999/xlink" width="647.41862" height="519.26628" viewBox="0,0,647.41862,519.26628"><defs><radialGradient cx="183.69834" cy="114.61911" r="85.76265" gradientUnits="userSpaceOnUse" id="color-1"><stop offset="0" stop-color="#ffffff"/><stop offset="1" stop-color="#ffffff" stop-opacity="0"/></radialGradient></defs><g transform="translate(113.63917,69.26628)"><g data-paper-data="{&quot;isPaintingLayer&quot;:true}" fill-rule="nonzero" stroke="none" stroke-width="0" stroke-linecap="butt" stroke-linejoin="miter" stroke-miterlimit="10" stroke-dasharray="" stroke-dashoffset="0" style="mix-blend-mode: normal"><path d="M281.43924,132.3447l252.34021,27.85111l-0.8668,12.68785z" fill="#ffffff"/><path d="M285.20278,87.09138l233.24113,-77.85477l5.53938,11.77627z" fill="#ffffff"/><path d="M-107.36321,46.47824l4.99985,-11.46048l137.0426,72.22439z" data-paper-data="{&quot;index&quot;:null}" fill="#ffffff"/><path d="M40.42829,180l-149.12279,86.04496l-4.94467,-11.48936z" data-paper-data="{&quot;index&quot;:null}" fill="#ffffff"/><path d="M87.89704,256.47542l-73.80052,175.89037l-11.61652,-5.1573z" data-paper-data="{&quot;index&quot;:null}" fill="#ffffff"/><path d="M339.6427,445.64267l-9.95619,4.35733l-75.46085,-196.34772z" data-paper-data="{&quot;index&quot;:null}" fill="#ffffff"/><path d="M97.9433,35.01776l-63.26407,-99.47047l7.5684,-4.81357z" data-paper-data="{&quot;index&quot;:null}" fill="#ffffff"/><path d="M97.9981,117.8905c-1.67671,-43.92478 35.33333,-80.99749 82.66427,-82.80422c47.33094,-1.80673 87.05948,32.33666 88.73619,76.26145c1.67671,43.92478 -35.33333,80.99749 -82.66427,82.80422c-47.33094,1.80673 -87.05948,-32.33666 -88.73619,-76.26145z" fill="url(#color-1)"/></g></g></svg>