<svg version="1.1" xmlns="http://www.w3.org/2000/svg" xmlns:xlink="http://www.w3.org/1999/xlink" width="67.99818" height="67.99819" viewBox="0,0,67.99818,67.99819"><defs><radialGradient cx="240" cy="180" r="33.99909" gradientUnits="userSpaceOnUse" id="color-1"><stop offset="0" stop-color="#000000"/><stop offset="1" stop-color="#000000" stop-opacity="0"/></radialGradient><linearGradient x1="221.60431" y1="179.56664" x2="264.28641" y2="179.56664" gradientUnits="userSpaceOnUse" id="color-2"><stop offset="0" stop-color="#ffa8a8"/><stop offset="1" stop-color="#ffffff"/></linearGradient><linearGradient x1="215.39881" y1="195.33974" x2="236.80103" y2="195.33974" gradientUnits="userSpaceOnUse" id="color-3"><stop offset="0" stop-color="#ffffff"/><stop offset="1" stop-color="#ffaaaa"/></linearGradient><linearGradient x1="215.20246" y1="162.10014" x2="236.70098" y2="162.10014" gradientUnits="userSpaceOnUse" id="color-4"><stop offset="0" stop-color="#ffffff"/><stop offset="1" stop-color="#ffaaaa"/></linearGradient><linearGradient x1="218.49892" y1="172.52836" x2="230.54508" y2="172.52836" gradientUnits="userSpaceOnUse" id="color-5"><stop offset="0" stop-color="#000000"/><stop offset="1" stop-color="#8e0000"/></linearGradient><linearGradient x1="212.74651" y1="178.89324" x2="230.53146" y2="178.89324" gradientUnits="userSpaceOnUse" id="color-6"><stop offset="0" stop-color="#c20000"/><stop offset="1" stop-color="#ff0000"/></linearGradient><linearGradient x1="219.14084" y1="165.1008" x2="236.80103" y2="165.1008" gradientUnits="userSpaceOnUse" id="color-7"><stop offset="0" stop-color="#c20000"/><stop offset="1" stop-color="#ff0000"/></linearGradient><linearGradient x1="256.1008" y1="178.68848" x2="261.10431" y2="178.68848" gradientUnits="userSpaceOnUse" id="color-8"><stop offset="0" stop-color="#ff0000"/><stop offset="1" stop-color="#000000"/></linearGradient></defs><g transform="translate(-206.00091,-146.0009)"><g data-paper-data="{&quot;isPaintingLayer&quot;:true}" fill-rule="nonzero" stroke-linejoin="miter" stroke-miterlimit="10" stroke-dasharray="" stroke-dashoffset="0" style="mix-blend-mode: normal"><path d="M240,213.9991c-18.77718,0 -33.99909,-15.22192 -33.99909,-33.9991c0,-18.77718 15.22191,-33.99909 33.99909,-33.99909c18.77718,0 33.99909,15.22191 33.99909,33.99909c0,18.77718 -15.22191,33.9991 -33.99909,33.9991z" fill="url(#color-1)" stroke="none" stroke-width="0" stroke-linecap="butt"/><path d="M243.84236,203.67319c-7.5424,0 -14.98809,-3.43602 -19.00912,-9.66096c-2.52665,-3.91149 -3.22893,-9.30805 -3.22893,-14.4456c0,-5.54635 1.14268,-11.28959 4.04675,-15.36293c4.067,-5.70448 11.026,-8.74364 18.19129,-8.74364c7.42225,0 13.9952,3.94174 18.03465,9.99948c1.64879,2.4726 2.34899,7.34922 2.40816,14.78332c0.03771,4.73762 -0.77233,9.47692 -2.79957,13.21836c-3.39312,6.26228 -9.71334,10.21196 -17.64323,10.21196z" fill="url(#color-2)" stroke="none" stroke-width="NaN" stroke-linecap="butt"/><path d="M215.39881,204.53623c0,0 1.6342,-21.19536 10.48883,-20.22956c4.89014,0.53338 11.74773,10.70451 10.83003,15.75494c-0.081,0.44578 -2.96598,5.14502 -7.88741,6.0871c-5.65044,1.08163 -13.43145,-1.61248 -13.43145,-1.61248z" data-paper-data="{&quot;index&quot;:null}" fill="url(#color-3)" stroke="none" stroke-width="0" stroke-linecap="butt"/><path d="M225.78759,173.52262c-8.85463,0.9658 -10.48882,-20.22956 -10.48882,-20.22956c0,0 20.81772,-5.03188 22.40673,3.7131z" data-paper-data="{&quot;index&quot;:null}" fill="url(#color-4)" stroke="none" stroke-width="0" stroke-linecap="butt"/><path d="M230.54508,168.76708l-4.30002,10.70627l-7.74614,-3.18369l4.30003,-10.70627z" data-paper-data="{&quot;index&quot;:null}" fill="url(#color-5)" stroke="#000000" stroke-width="0" stroke-linecap="round"/><path d="M215.43885,181.48636c-2.59225,-1.91185 -2.69234,-4.79126 -2.69234,-4.79126c0,0 2.23923,-2.0497 3.50252,-2.61944c1.08499,-0.48933 3.62403,-0.59466 3.62403,-0.59466l7.6104,2.9914l3.048,6.94073c0,0 -4.32412,1.13095 -7.99144,0.84645c-3.28524,-0.25487 -5.87629,-1.86982 -7.10118,-2.77322z" data-paper-data="{&quot;index&quot;:null}" fill="url(#color-6)" stroke="#000000" stroke-width="0" stroke-linecap="round"/><path d="M231.55196,162.02064c2.87653,2.25339 5.24907,5.98152 5.24907,5.98152c0,0 -2.33759,1.51603 -3.54554,2.03419c-1.13797,0.48814 -3.58544,0.92365 -3.58544,0.92365l-7.55743,-2.85598c0,0 -1.97944,-2.26177 -2.48673,-3.47898c-0.482,-1.15653 -0.48505,-3.65154 -0.48505,-3.65154c0,0 2.07433,-2.03611 5.29662,-1.69292c1.5226,0.16217 4.53766,0.72142 7.1145,2.74006z" data-paper-data="{&quot;index&quot;:null}" fill="url(#color-7)" stroke="#000000" stroke-width="0" stroke-linecap="round"/><path d="M252.27736,188.77567c-1.70799,0 -3.09259,-1.1161 -3.09259,-2.49288c0,-1.37678 1.3846,-2.49288 3.09259,-2.49288c0.92998,0 1.76409,0.33089 2.33102,0.85458c0.47429,0.43811 0.50688,2.77135 0.0812,3.19846c-0.56681,0.56871 -1.43678,0.93273 -2.41221,0.93273z" fill="#323232" stroke="#000000" stroke-width="0" stroke-linecap="butt"/><path d="M251.72973,174.78051c-1.70799,0 -3.0926,-1.11611 -3.0926,-2.49289c0,-1.37678 1.38461,-2.49288 3.0926,-2.49288c0.92998,0 1.76409,0.33089 2.33102,0.85458c0.47429,0.43811 0.50687,2.77135 0.08119,3.19845c-0.56681,0.56871 -1.43677,0.93273 -2.41221,0.93273z" fill="#323232" stroke="#000000" stroke-width="0" stroke-linecap="butt"/><path d="M261.10431,178.68848c0,2.04784 -1.12007,3.70795 -2.50176,3.70795c-1.38168,0 -2.50175,-1.66011 -2.50175,-3.70795c0,-2.04784 1.12007,-3.70795 2.50175,-3.70795c1.38168,0 2.50176,1.66011 2.50176,3.70795z" fill="#ff0000" stroke="url(#color-8)" stroke-width="0" stroke-linecap="butt"/><path d="M251.82375,153.02243l3.15486,9.89975" fill="none" stroke="#000000" stroke-width="1.5" stroke-linecap="round"/><path d="M253.45558,203.71783l3.15486,-9.89975" data-paper-data="{&quot;index&quot;:null}" fill="none" stroke="#000000" stroke-width="1.5" stroke-linecap="round"/><path d="M258.20041,153.69655l-0.89538,9.20421" fill="none" stroke="#000000" stroke-width="1.5" stroke-linecap="round"/><path d="M259.83224,203.04371l-0.89538,-9.20421" data-paper-data="{&quot;index&quot;:null}" fill="none" stroke="#000000" stroke-width="1.5" stroke-linecap="round"/></g></g></svg>