<svg version="1.1" xmlns="http://www.w3.org/2000/svg" xmlns:xlink="http://www.w3.org/1999/xlink" width="164.91127" height="152.49482" viewBox="0,0,164.91127,152.49482"><defs><linearGradient x1="242.80169" y1="148.27576" x2="259.00829" y2="215.14134" gradientUnits="userSpaceOnUse" id="color-1"><stop offset="0" stop-color="#ffffff"/><stop offset="1" stop-color="#dcd0e8"/></linearGradient><linearGradient x1="263.40611" y1="143.81075" x2="308.53068" y2="166.7256" gradientUnits="userSpaceOnUse" id="color-2"><stop offset="0" stop-color="#dcd0e8"/><stop offset="1" stop-color="#ffffff"/></linearGradient><linearGradient x1="149.03147" y1="144.88523" x2="209.23526" y2="149.42152" gradientUnits="userSpaceOnUse" id="color-3"><stop offset="0" stop-color="#ffffff"/><stop offset="1" stop-color="#dcd0e8"/></linearGradient><linearGradient x1="193.92897" y1="203.56029" x2="299.22943" y2="164.73796" gradientUnits="userSpaceOnUse" id="color-4"><stop offset="0" stop-color="#f6f3f9"/><stop offset="1" stop-color="#e7def0"/></linearGradient><linearGradient x1="240.09943" y1="132.76445" x2="261.30608" y2="150.23154" gradientUnits="userSpaceOnUse" id="color-5"><stop offset="0" stop-color="#636363"/><stop offset="1" stop-color="#000000"/></linearGradient><linearGradient x1="249.70627" y1="196.97766" x2="301.73915" y2="184.47101" gradientUnits="userSpaceOnUse" id="color-6"><stop offset="0" stop-color="#ffffff"/><stop offset="1" stop-color="#dcd0e8"/></linearGradient><linearGradient x1="178.4442" y1="74.58614" x2="177.55675" y2="108.69346" gradientUnits="userSpaceOnUse" id="color-7"><stop offset="0" stop-color="#000000"/><stop offset="1" stop-color="#636363"/></linearGradient><linearGradient x1="169.97093" y1="84.50191" x2="204.16049" y2="137.37223" gradientUnits="userSpaceOnUse" id="color-8"><stop offset="0" stop-color="#ffffff"/><stop offset="1" stop-color="#e9e0f2"/></linearGradient><linearGradient x1="165.63128" y1="106.25065" x2="164.67686" y2="110.69858" gradientUnits="userSpaceOnUse" id="color-9"><stop offset="0" stop-color="#ffffff"/><stop offset="1" stop-color="#000000"/></linearGradient><linearGradient x1="193.34805" y1="95.99029" x2="189.43888" y2="114.20853" gradientUnits="userSpaceOnUse" id="color-10"><stop offset="0" stop-color="#000000"/><stop offset="1" stop-color="#636363"/></linearGradient><linearGradient x1="229.73029" y1="89.87881" x2="217.53161" y2="120.83538" gradientUnits="userSpaceOnUse" id="color-11"><stop offset="0" stop-color="#ffffff"/><stop offset="1" stop-color="#dcd0e8"/></linearGradient><linearGradient x1="233.23061" y1="97.54799" x2="228.41247" y2="109.77501" gradientUnits="userSpaceOnUse" id="color-12"><stop offset="0" stop-color="#000000"/><stop offset="1" stop-color="#000000" stop-opacity="0"/></linearGradient><linearGradient x1="226.06111" y1="108.84843" x2="224.11533" y2="113.78627" gradientUnits="userSpaceOnUse" id="color-13"><stop offset="0" stop-color="#000000"/><stop offset="1" stop-color="#000000" stop-opacity="0"/></linearGradient><linearGradient x1="233.25764" y1="111.95595" x2="230.01465" y2="120.18564" gradientUnits="userSpaceOnUse" id="color-14"><stop offset="0" stop-color="#000000"/><stop offset="1" stop-color="#000000" stop-opacity="0"/></linearGradient><linearGradient x1="235.94347" y1="110.26497" x2="233.53441" y2="116.37847" gradientUnits="userSpaceOnUse" id="color-15"><stop offset="0" stop-color="#000000"/><stop offset="1" stop-color="#000000" stop-opacity="0"/></linearGradient><linearGradient x1="174.21149" y1="140.97671" x2="211.995" y2="138.82218" gradientUnits="userSpaceOnUse" id="color-16"><stop offset="0" stop-color="#ffffff"/><stop offset="1" stop-color="#eae2f1"/></linearGradient></defs><g transform="translate(-148.39105,-74.27726)"><g data-paper-data="{&quot;isPaintingLayer&quot;:true}" fill-rule="nonzero" stroke-linejoin="miter" stroke-miterlimit="10" stroke-dasharray="" stroke-dashoffset="0" style="mix-blend-mode: normal"><path d="M240.71295,217.59932l-6.02683,-4.20886l0.98839,-6.54571l13.60016,-8.59546l-18.43327,-2.94514l-7.0439,-11.84356l-0.91784,-19.21113l14.19939,-12.30439l22.52682,0.06776l15.44559,15.72686l3.409,16.37257l-4.27989,8.93298l4.09529,6.02625l-22.21544,14.24843z" fill="url(#color-1)" stroke="none" stroke-width="0" stroke-linecap="butt"/><path d="M287.00309,147.82852l13.8692,-8.58995l12.43003,-11.63496l-4.99136,21.01908l-11.03026,13.96927l-20.13095,8.54956l-10.01844,-4.23939l-2.471,-12.06013z" data-paper-data="{&quot;index&quot;:null}" fill="url(#color-2)" stroke="none" stroke-width="0" stroke-linecap="butt"/><path d="M148.87848,162.4453l-0.48744,-9.06066l5.93727,-6.11986l29.28349,-4.57923l-2.19997,-8.17616l10.9158,-7.00712l16.23402,30.85886l-25.74939,7.6963l-21.55238,0.39445z" fill="url(#color-3)" stroke="none" stroke-width="0" stroke-linecap="butt"/><path d="M233.72415,192.59044l-25.93065,-24.56687l-27.36373,-35.71021l34.0029,-17.6732l33.01188,25.03479l40.40298,26.70091l-1.77553,35.05704z" fill="url(#color-4)" stroke="none" stroke-width="0" stroke-linecap="butt"/><path d="M244.1102,151.59138l-8.22425,-20.72805l15.28033,9.04545l10.72324,8.97141z" fill="url(#color-5)" stroke="none" stroke-width="0" stroke-linecap="butt"/><path d="M265.50476,226.77208l-6.0188,-4.22033l1.00086,-6.54382l13.6165,-8.56953l-18.42763,-2.98023l-7.02133,-11.85695l-0.88125,-19.21283l13.70443,-14.43396l23.04502,2.26729l15.41561,15.75626l3.37781,16.37903l-4.29689,8.92482l4.0838,6.03404l-20.38938,16.29539z" fill="url(#color-6)" stroke="none" stroke-width="0" stroke-linecap="butt"/><path d="M167.32727,108.42729l-8.01839,-12.68327l7.26363,-21.46676l18.47127,1.32641l11.77545,7.04512l-4.38132,22.6396z" fill="url(#color-7)" stroke="none" stroke-width="0" stroke-linecap="butt"/><path d="M152.61564,129.56482l-3.12612,-14.98623l5.56916,-10.85502l10.6827,-0.53322l1.41964,-13.61874l9.97054,-9.70023l22.81239,-3.84619l20.14418,10.62089l10.20198,18.75123l-12.1067,22.90677l-11.80237,6.07678l-18.68194,5.88597l-16.78517,-2.19797z" fill="url(#color-8)" stroke="none" stroke-width="0" stroke-linecap="butt"/><path d="M172.93872,107.43089l0.23561,9.74375l-10.19394,0.52674l-8.33913,-4.50345l4.21232,-8.78933z" data-paper-data="{&quot;index&quot;:null}" fill="#000000" stroke="none" stroke-width="0" stroke-linecap="butt"/><path d="M158.56096,109.38627l1.69573,-4.28887l10.74918,2.30649l-1.69573,4.28887z" fill="url(#color-9)" stroke="none" stroke-width="0" stroke-linecap="butt"/><path d="M185.31257,113.32315l-3.57648,-11.52121l10.75735,-5.99503l9.93156,6.18581l-4.10861,11.58104z" data-paper-data="{&quot;index&quot;:null}" fill="url(#color-10)" stroke="none" stroke-width="0" stroke-linecap="butt"/><path d="M176.75201,101.03533l-3.98228,2.72366l-4.79898,-1.41962l0.46939,-5.97623l5.63156,-0.90193z" data-paper-data="{&quot;index&quot;:null}" fill="#000000" stroke="none" stroke-width="0" stroke-linecap="butt"/><path d="M205.7514,112.11859l4.81208,-22.55197l13.59205,-1.88458l19.78008,7.15736l-3.25393,21.71472l-13.0418,8.26449z" data-paper-data="{&quot;index&quot;:null}" fill="url(#color-11)" stroke="none" stroke-width="0" stroke-linecap="butt"/><path d="M163.45759,115.47741l-0.99044,7.02507" fill="none" stroke="#000000" stroke-width="1.5" stroke-linecap="round"/><path d="M225.95844,102.5601l7.38974,-4.96577l2.52177,6.6983l-7.81018,5.34339z" data-paper-data="{&quot;index&quot;:null}" fill="url(#color-12)" stroke="none" stroke-width="0" stroke-linecap="butt"/><path d="M221.17614,112.62806l4.062,-4.10392l1.81636,6.42033z" fill="url(#color-13)" stroke="none" stroke-width="0" stroke-linecap="butt"/><path d="M226.32022,118.18656l2.69404,-5.45792l3.56012,2.8083l4.56298,-2.05216l-2.76037,5.45988l-3.77449,1.47264z" fill="url(#color-14)" stroke="none" stroke-width="0" stroke-linecap="butt"/><path d="M230.47765,115.17392l6.87663,-4.35302l-0.11454,5.11616z" fill="url(#color-15)" stroke="none" stroke-width="0" stroke-linecap="butt"/><path d="M179.13531,175.93083l-4.07592,-7.53067l9.52028,-10.21651l23.00314,-5.54358l-9.96159,-10.585l4.73547,-8.27438l11.35489,0.50998l17.46739,15.74821l2.38905,13.10189l-29.80272,13.08415z" fill="url(#color-16)" stroke="none" stroke-width="0" stroke-linecap="butt"/></g></g></svg>