<svg version="1.1" xmlns="http://www.w3.org/2000/svg" xmlns:xlink="http://www.w3.org/1999/xlink" width="64.47228" height="63.95233" viewBox="0,0,64.47228,63.95233"><defs><radialGradient cx="282.0887" cy="179.86296" r="20.49603" gradientUnits="userSpaceOnUse" id="color-1"><stop offset="0" stop-color="#710000" stop-opacity="0.49412"/><stop offset="1" stop-color="#710000" stop-opacity="0"/></radialGradient><radialGradient cx="282.08873" cy="179.9486" r="17.77675" gradientUnits="userSpaceOnUse" id="color-2"><stop offset="0" stop-color="#ffffff"/><stop offset="1" stop-color="#ffffff" stop-opacity="0"/></radialGradient></defs><g transform="translate(-249.85253,-148.02384)"><g data-paper-data="{&quot;isPaintingLayer&quot;:true}" fill-rule="nonzero" stroke-linecap="butt" stroke-linejoin="miter" stroke-miterlimit="10" stroke-dasharray="" stroke-dashoffset="0" style="mix-blend-mode: normal"><path d="M249.85253,211.97617v-63.95233h64.47228v63.95233z" fill="none" stroke="none" stroke-width="NaN"/><path d="M282.0887,200.359c-11.31965,0 -20.49603,-9.17639 -20.49603,-20.49603c0,-11.31965 9.17639,-20.49603 20.49603,-20.49603c11.31965,0 20.49603,9.17639 20.49603,20.49603c0,11.31965 -9.17639,20.49603 -20.49603,20.49603z" fill="url(#color-1)" stroke="#000000" stroke-width="0"/><g fill="url(#color-2)" stroke="#000000" stroke-width="0"><path d="M264.31197,179.9486c0,-9.81782 7.95893,-17.77675 17.77675,-17.77675c9.81782,0 17.77675,7.95893 17.77675,17.77675c0,9.81782 -7.95893,17.77675 -17.77675,17.77675c-9.81782,0 -17.77675,-7.95893 -17.77675,-17.77675z"/><path d="M264.31197,179.9486c0,-9.81782 7.95893,-17.77675 17.77675,-17.77675c9.81782,0 17.77675,7.95893 17.77675,17.77675c0,9.81782 -7.95893,17.77675 -17.77675,17.77675c-9.81782,0 -17.77675,-7.95893 -17.77675,-17.77675z"/></g><path d="M284.34743,182.27028h-2.69212c-0.42899,0 -0.71789,-0.15321 -0.86672,-0.45963c-0.14884,-0.31517 -0.3327,-0.88862 -0.55156,-1.72032c-0.20137,-0.68288 -0.45525,-1.21255 -0.76168,-1.58902c-0.31517,-0.37646 -0.82295,-0.56469 -1.52334,-0.56469c-0.58658,0 -1.07247,0.22325 -1.45769,0.66975c-0.39397,0.4465 -0.59094,0.96741 -0.59094,1.56274c0,0.49903 0.12257,0.93239 0.3677,1.3001c0.24513,0.3677 0.58658,0.73979 1.02432,1.11625c0.42899,0.3677 0.74854,0.68725 0.95864,0.95866c0.21012,0.26265 0.31518,0.5822 0.31518,0.95865c0,0.48152 -0.17509,0.87549 -0.52528,1.1819c-0.35896,0.30642 -0.83173,0.45963 -1.4183,0.45963c-0.66537,0 -1.2782,-0.18822 -1.83852,-0.56469c-0.5603,-0.37645 -1.03307,-0.8711 -1.41829,-1.48395c-0.39397,-0.61284 -0.68725,-1.26945 -0.87986,-1.96984c-0.20137,-0.70039 -0.30204,-1.35263 -0.30204,-1.95672c0,-1.1644 0.232,-2.23249 0.696,-3.20428c0.46401,-0.98055 1.13815,-1.75973 2.02238,-2.33754c0.87549,-0.58658 1.89105,-0.87986 3.04668,-0.87986c1.42704,0 2.59582,0.41147 3.50632,1.23442c0.91051,0.82295 1.54962,1.96109 1.91732,3.41439h0.97179c0.5428,0 0.9893,0.18385 1.3395,0.55155c0.34142,0.35895 0.51214,0.81857 0.51214,1.37889c0,0.58658 -0.17071,1.05934 -0.51214,1.41829c-0.3502,0.3502 -0.7967,0.52529 -1.3395,0.52529zM291.99042,180.3267c0,0.57782 -0.20574,1.07247 -0.61722,1.48395c-0.41147,0.41147 -0.90613,0.61722 -1.48394,0.61722c-0.57782,0 -1.07248,-0.20574 -1.48396,-0.61722c-0.41147,-0.41147 -0.61721,-0.90613 -0.61721,-1.48395c0,-0.58658 0.20574,-1.08123 0.61721,-1.48395c0.41147,-0.40273 0.90613,-0.60408 1.48396,-0.60408c0.57781,0 1.07246,0.20137 1.48394,0.60408c0.41147,0.40272 0.61722,0.89737 0.61722,1.48395z" fill="#550000" stroke="none" stroke-width="0.40889"/></g></g></svg>