<svg version="1.1" xmlns="http://www.w3.org/2000/svg" xmlns:xlink="http://www.w3.org/1999/xlink" width="113.87859" height="114.80444" viewBox="0,0,113.87859,114.80444"><defs><radialGradient cx="240.26004" cy="181.33333" r="40.24685" gradientUnits="userSpaceOnUse" id="color-1"><stop offset="0" stop-color="#000000" stop-opacity="0.75294"/><stop offset="1" stop-color="#000000" stop-opacity="0"/></radialGradient><linearGradient x1="273.72713" y1="183.90181" x2="196.24629" y2="177.79213" gradientUnits="userSpaceOnUse" id="color-2"><stop offset="0" stop-color="#ff2929"/><stop offset="1" stop-color="#d50000"/></linearGradient><linearGradient x1="209.11744" y1="200.7454" x2="198.34452" y2="199.89591" gradientUnits="userSpaceOnUse" id="color-3"><stop offset="0" stop-color="#ff0000"/><stop offset="1" stop-color="#930000"/></linearGradient><linearGradient x1="194.03019" y1="196.93566" x2="202.78265" y2="196.93566" gradientUnits="userSpaceOnUse" id="color-4"><stop offset="0" stop-color="#ff0000"/><stop offset="1" stop-color="#930000"/></linearGradient><linearGradient x1="203.7325" y1="193.56954" x2="198.78112" y2="193.1791" gradientUnits="userSpaceOnUse" id="color-5"><stop offset="0" stop-color="#d60000"/><stop offset="1" stop-color="#600000"/></linearGradient><linearGradient x1="208.47793" y1="189.81044" x2="203.52656" y2="189.42" gradientUnits="userSpaceOnUse" id="color-6"><stop offset="0" stop-color="#ff0000"/><stop offset="1" stop-color="#930000"/></linearGradient><linearGradient x1="214.85956" y1="196.39734" x2="208.57742" y2="195.90198" gradientUnits="userSpaceOnUse" id="color-7"><stop offset="0" stop-color="#ff0000"/><stop offset="1" stop-color="#930000"/></linearGradient><radialGradient cx="211.00963" cy="196.31272" r="7.97935" gradientUnits="userSpaceOnUse" id="color-8"><stop offset="0" stop-color="#ff6060"/><stop offset="1" stop-color="#ff6060" stop-opacity="0"/></radialGradient><radialGradient cx="219.87077" cy="194.62795" r="4.99654" gradientUnits="userSpaceOnUse" id="color-9"><stop offset="0" stop-color="#ff6060"/><stop offset="1" stop-color="#ff6060" stop-opacity="0"/></radialGradient><linearGradient x1="272.76009" y1="173.54527" x2="197.23447" y2="183.04193" gradientUnits="userSpaceOnUse" id="color-10"><stop offset="0" stop-color="#ff2929"/><stop offset="1" stop-color="#d50000"/></linearGradient><linearGradient x1="208.78435" y1="160.00108" x2="198.28327" y2="161.32148" gradientUnits="userSpaceOnUse" id="color-11"><stop offset="0" stop-color="#ff0000"/><stop offset="1" stop-color="#930000"/></linearGradient><linearGradient x1="194.2048" y1="164.21482" x2="202.75182" y2="164.21482" gradientUnits="userSpaceOnUse" id="color-12"><stop offset="0" stop-color="#ff0000"/><stop offset="1" stop-color="#930000"/></linearGradient><linearGradient x1="203.84201" y1="167.26613" x2="199.01554" y2="167.87301" gradientUnits="userSpaceOnUse" id="color-13"><stop offset="0" stop-color="#d60000"/><stop offset="1" stop-color="#600000"/></linearGradient><linearGradient x1="208.65541" y1="170.7283" x2="203.82894" y2="171.33518" gradientUnits="userSpaceOnUse" id="color-14"><stop offset="0" stop-color="#ff0000"/><stop offset="1" stop-color="#930000"/></linearGradient><linearGradient x1="214.59962" y1="163.99415" x2="208.47605" y2="164.76415" gradientUnits="userSpaceOnUse" id="color-15"><stop offset="0" stop-color="#ff0000"/><stop offset="1" stop-color="#930000"/></linearGradient><radialGradient cx="210.83691" cy="164.25182" r="7.81498" gradientUnits="userSpaceOnUse" id="color-16"><stop offset="0" stop-color="#ff6060"/><stop offset="1" stop-color="#ff6060" stop-opacity="0"/></radialGradient><radialGradient cx="219.58271" cy="165.49762" r="4.89361" gradientUnits="userSpaceOnUse" id="color-17"><stop offset="0" stop-color="#ff6060"/><stop offset="1" stop-color="#ff6060" stop-opacity="0"/></radialGradient><linearGradient x1="242.70895" y1="175.04794" x2="235.19356" y2="175.04794" gradientUnits="userSpaceOnUse" id="color-18"><stop offset="0" stop-color="#000000"/><stop offset="1" stop-color="#737373"/></linearGradient><linearGradient x1="242.66758" y1="183.91962" x2="235.15218" y2="183.91962" gradientUnits="userSpaceOnUse" id="color-19"><stop offset="0" stop-color="#000000"/><stop offset="1" stop-color="#737373"/></linearGradient><linearGradient x1="244.69883" y1="180.77587" x2="228.66946" y2="180.7134" gradientUnits="userSpaceOnUse" id="color-20"><stop offset="0" stop-color="#1a1a1a" stop-opacity="0"/><stop offset="1" stop-color="#1a1a1a"/></linearGradient><linearGradient x1="279.56271" y1="180.97615" x2="193.38784" y2="180.97615" gradientUnits="userSpaceOnUse" id="color-21"><stop offset="0" stop-color="#ff2929"/><stop offset="1" stop-color="#d50000"/></linearGradient><radialGradient cx="267.07124" cy="179.96947" r="18.18478" gradientUnits="userSpaceOnUse" id="color-22"><stop offset="0" stop-color="#ff5656"/><stop offset="1" stop-color="#ff5656" stop-opacity="0"/></radialGradient><radialGradient cx="262.87604" cy="169.12461" r="14.62985" gradientUnits="userSpaceOnUse" id="color-23"><stop offset="0" stop-color="#ff5656"/><stop offset="1" stop-color="#ff5656" stop-opacity="0"/></radialGradient><radialGradient cx="269.07223" cy="176.60125" r="13.26258" gradientUnits="userSpaceOnUse" id="color-24"><stop offset="0" stop-color="#ff6d6d"/><stop offset="1" stop-color="#ff6d6d" stop-opacity="0"/></radialGradient><radialGradient cx="260.72641" cy="158.06565" r="7.52002" gradientUnits="userSpaceOnUse" id="color-25"><stop offset="0" stop-color="#ff4e4e"/><stop offset="1" stop-color="#ff4e4e" stop-opacity="0"/></radialGradient><radialGradient cx="261.22875" cy="200.85203" r="7.52002" gradientUnits="userSpaceOnUse" id="color-26"><stop offset="0" stop-color="#ff4e4e"/><stop offset="1" stop-color="#ff4e4e" stop-opacity="0"/></radialGradient><radialGradient cx="266.53427" cy="164.17494" r="9.04915" gradientUnits="userSpaceOnUse" id="color-27"><stop offset="0" stop-color="#ff7e7e"/><stop offset="1" stop-color="#ff7e7e" stop-opacity="0"/></radialGradient><radialGradient cx="272.87505" cy="193.27862" r="6.10101" gradientUnits="userSpaceOnUse" id="color-28"><stop offset="0" stop-color="#ff8989"/><stop offset="1" stop-color="#ff8989" stop-opacity="0"/></radialGradient><radialGradient cx="276.15648" cy="187.53607" r="6.10101" gradientUnits="userSpaceOnUse" id="color-29"><stop offset="0" stop-color="#ff6060"/><stop offset="1" stop-color="#ff6060" stop-opacity="0"/></radialGradient><radialGradient cx="275.58182" cy="172.06528" r="5.66643" gradientUnits="userSpaceOnUse" id="color-30"><stop offset="0" stop-color="#ff7e7e"/><stop offset="1" stop-color="#ff7e7e" stop-opacity="0"/></radialGradient><radialGradient cx="266.67859" cy="195.90174" r="9.65592" gradientUnits="userSpaceOnUse" id="color-31"><stop offset="0" stop-color="#ff6060"/><stop offset="1" stop-color="#ff6060" stop-opacity="0"/></radialGradient><radialGradient cx="271.58322" cy="165.20993" r="3.75765" gradientUnits="userSpaceOnUse" id="color-32"><stop offset="0" stop-color="#ffb5b5"/><stop offset="1" stop-color="#ffb5b5" stop-opacity="0"/></radialGradient><radialGradient cx="252.75042" cy="205.91339" r="6.10099" gradientUnits="userSpaceOnUse" id="color-33"><stop offset="0" stop-color="#dc0000"/><stop offset="1" stop-color="#dc0000" stop-opacity="0"/></radialGradient><radialGradient cx="251.60741" cy="154.60153" r="6.10099" gradientUnits="userSpaceOnUse" id="color-34"><stop offset="0" stop-color="#dc0000"/><stop offset="1" stop-color="#dc0000" stop-opacity="0"/></radialGradient><radialGradient cx="270.45601" cy="179.30834" r="9.04914" gradientUnits="userSpaceOnUse" id="color-35"><stop offset="0" stop-color="#ff6060"/><stop offset="1" stop-color="#ff6060" stop-opacity="0"/></radialGradient><radialGradient cx="281.14431" cy="180.63577" r="5.66643" gradientUnits="userSpaceOnUse" id="color-36"><stop offset="0" stop-color="#ff6060"/><stop offset="1" stop-color="#ff6060" stop-opacity="0"/></radialGradient><linearGradient x1="245.74299" y1="179.51634" x2="224.40837" y2="179.43398" gradientUnits="userSpaceOnUse" id="color-37"><stop offset="0" stop-color="#1a1a1a" stop-opacity="0"/><stop offset="1" stop-color="#1a1a1a"/></linearGradient><linearGradient x1="243.7454" y1="173.63333" x2="235.41831" y2="173.63333" gradientUnits="userSpaceOnUse" id="color-38"><stop offset="0" stop-color="#000000"/><stop offset="1" stop-color="#737373"/></linearGradient><linearGradient x1="243.69956" y1="185.01218" x2="235.37246" y2="185.01218" gradientUnits="userSpaceOnUse" id="color-39"><stop offset="0" stop-color="#000000"/><stop offset="1" stop-color="#737373"/></linearGradient></defs><g transform="translate(-183.06076,-122.59778)"><g data-paper-data="{&quot;isPaintingLayer&quot;:true}" fill-rule="nonzero" stroke-linecap="butt" stroke-linejoin="miter" stroke-miterlimit="10" stroke-dasharray="" stroke-dashoffset="0" style="mix-blend-mode: normal"><path d="M200.01318,181.33333c0,-22.22772 18.01913,-40.24685 40.24685,-40.24685c22.22772,0 40.24685,18.01914 40.24685,40.24685c0,22.22772 -18.01913,40.24685 -40.24685,40.24685c-22.22772,0 -40.24685,-18.01914 -40.24685,-40.24685z" fill="url(#color-1)" stroke="none" stroke-width="0"/><path d="M296.93935,237.40222h-113.87859v-114.80444h113.87859z" fill="none" stroke="none" stroke-width="NaN"/><g data-paper-data="{&quot;index&quot;:null}" stroke="none" stroke-width="0"><path d="M191.5193,196.74564c0,0 6.98083,-5.97128 14.1007,-9.21133c7.56197,-3.44124 16.06086,4.53914 16.06086,4.53914c0,0 -3.75369,-5.22613 -3.51843,-7.53875c0.15622,-1.53561 4.96794,-4.40397 4.96794,-4.40397c0,0 14.5033,-9.03178 14.55587,-2.30358c0.0758,9.70309 -1.03593,19.12279 -3.85046,19.24084c-8.47711,0.35554 -19.25073,8.73501 -28.64116,8.09896c-6.78321,-0.45946 -13.6753,-8.4213 -13.6753,-8.4213z" fill="url(#color-2)"/><path d="M204.82993,203.30669c-2.97486,-0.23458 -5.27039,-1.89683 -5.1272,-3.71274c0.1432,-1.81593 2.67089,-3.09785 5.64575,-2.86326c2.97486,0.23458 3.91211,2.1988 3.76893,4.01471c-0.14319,1.81591 -1.31261,2.79587 -4.28747,2.56129z" fill="url(#color-3)"/><path d="M194.03533,196.59098c0.11621,-1.47361 2.16739,-2.51387 4.58148,-2.32351c2.41408,0.19037 4.27688,1.53926 4.16068,3.01287c-0.1162,1.47362 -2.16737,2.51387 -4.58147,2.32352c-2.41408,-0.19037 -4.27689,-1.53927 -4.16068,-3.01288z" fill="url(#color-4)"/><path d="M200.13938,192.87715c0.06581,-0.83461 1.22756,-1.4238 2.59486,-1.31598c1.36729,0.10781 2.42233,0.8718 2.35652,1.70642c-0.06582,0.83462 -1.22756,1.42381 -2.59484,1.31599c-1.36729,-0.10781 -2.42235,-0.8718 -2.35653,-1.70643z" fill="url(#color-5)"/><path d="M205.88304,191.12643c-1.36729,-0.10781 -1.06409,-1.17376 -0.99827,-2.00839c0.06582,-0.83462 -0.13068,-1.12185 1.2366,-1.01403c1.36729,0.10781 2.42234,0.87181 2.35652,1.70643c-0.06582,0.83462 -1.22756,1.4238 -2.59486,1.31598z" fill="url(#color-6)"/><path d="M208.57742,195.90198c0.08351,-1.05894 1.55748,-1.80648 3.29225,-1.66968c1.73477,0.13679 3.07337,1.10611 2.98986,2.16504c-0.08351,1.05892 -1.55748,1.80649 -3.29224,1.66969c-1.73477,-0.13679 -3.07337,-1.10612 -2.98986,-2.16505z" fill="url(#color-7)"/><path d="M210.38239,204.26737c-4.39323,-0.34642 -6.31557,-4.49063 -5.96915,-8.88387c0.34644,-4.39325 2.83041,-7.37188 7.22366,-7.02544c4.39323,0.34643 7.67382,4.18867 7.32738,8.58192c-0.34644,4.39325 -4.18867,7.67384 -8.58191,7.3274z" fill="url(#color-8)"/><path d="M214.88974,194.23516c0.21692,-2.75098 2.62289,-4.80522 5.37387,-4.5883c2.75099,0.21692 4.80522,2.62287 4.58829,5.37384c-0.21692,2.75099 -2.62288,4.80523 -5.37385,4.58831c-2.75099,-0.21693 -4.80523,-2.62289 -4.58831,-5.37385z" fill="url(#color-9)"/></g><g stroke="none" stroke-width="0"><path d="M191.74898,164.71354c0,0 6.38122,-8.10249 12.99667,-8.8601c9.15821,-1.04881 20.67729,6.21126 28.98699,6.17406c2.75896,-0.01235 3.67631,9.6015 4.04288,19.09792c0.25418,6.5849 -14.34531,-1.59256 -14.34531,-1.59256c0,0 -4.83781,-2.5877 -5.0604,-4.08296c-0.33521,-2.25186 3.09983,-7.53532 3.09983,-7.53532c0,0 -7.95238,8.19361 -15.50691,5.17036c-7.11286,-2.8465 -14.21375,-8.3714 -14.21375,-8.3714z" fill="url(#color-10)"/><path d="M204.47337,157.68999c2.89979,-0.36462 4.0884,0.541 4.31097,2.31109c0.22257,1.77009 -0.60517,3.73434 -3.50496,4.09896c-2.89979,0.36462 -5.43097,-0.77473 -5.65355,-2.54482c-0.22257,-1.77009 1.94775,-3.50061 4.84754,-3.86523z" fill="url(#color-11)"/><path d="M198.15129,161.61396c2.35317,-0.29589 4.40718,0.62868 4.5878,2.06511c0.18062,1.43642 -1.58058,2.84072 -3.93374,3.13661c-2.35317,0.29589 -4.40719,-0.62868 -4.58781,-2.0651c-0.18062,-1.43642 1.58059,-2.84073 3.93374,-3.13662z" fill="url(#color-12)"/><path d="M202.5861,166.33023c1.33278,-0.16759 2.49613,0.35607 2.59843,1.16963c0.1023,0.81356 -0.8952,1.60893 -2.22798,1.7765c-1.33278,0.16759 -2.49615,-0.35607 -2.59844,-1.16962c-0.1023,-0.81356 0.89521,-1.60894 2.22799,-1.77651z" fill="url(#color-13)"/><path d="M206.05691,169.55867c1.33278,-0.16759 2.49614,0.35606 2.59844,1.16962c0.1023,0.81356 -0.89521,1.60894 -2.22798,1.77651c-1.33278,0.16759 -1.15358,-0.12234 -1.25588,-0.9359c-0.1023,-0.81356 -0.44735,-1.84266 0.88543,-2.01024z" fill="url(#color-14)"/><path d="M211.3028,162.51017c1.69099,-0.21263 3.167,0.4518 3.29679,1.484c0.1298,1.03221 -1.13579,2.04134 -2.82678,2.25396c-1.69099,0.21263 -3.167,-0.45178 -3.2968,-1.48399c-0.1298,-1.03221 1.13579,-2.04134 2.82678,-2.25397z" fill="url(#color-15)"/><path d="M209.86198,156.4979c4.28238,-0.53848 8.19043,2.49655 8.7289,6.77894c0.53848,4.28238 -2.49655,8.19043 -6.77891,8.72891c-4.28238,0.53848 -6.84787,-2.26282 -7.38634,-6.54521c-0.53848,-4.28238 1.154,-8.42417 5.43638,-8.96263z" fill="url(#color-16)"/><path d="M218.9722,160.64225c2.68155,-0.33718 5.12872,1.5633 5.46589,4.24486c0.33718,2.68155 -1.5633,5.1287 -4.24485,5.46588c-2.68155,0.33719 -5.12873,-1.5633 -5.4659,-4.24485c-0.33718,-2.68155 1.5633,-5.12872 4.24486,-5.46589z" fill="url(#color-17)"/></g><path d="M235.19356,175.04794c0,1.96389 0,-1.96389 0,0z" fill="url(#color-18)" stroke="none" stroke-width="0"/><path d="M235.15218,183.91962c0,-1.96389 0,1.96389 0,0z" fill="url(#color-19)" stroke="none" stroke-width="0"/><path d="M229.777,190.043c-1.65814,-2.26884 3.37036,-8.95229 3.37036,-8.95229c0,0 -5.20453,-6.36198 -4.30952,-8.58604c1.14264,-2.83943 3.17279,-4.64265 6.54955,-4.62949c3.88513,0.01514 3.96204,25.74425 0.33323,25.73011c-3.62879,-0.01414 -5.94364,-3.5623 -5.94364,-3.5623z" fill="url(#color-20)" stroke="none" stroke-width="0"/><path d="M231.53302,186.21206c0,-3.1247 2.6768,-5.6578 5.9788,-5.6578c3.30198,0 3.302,11.31558 0,11.31558c-3.30198,0 -5.9788,-2.53307 -5.9788,-5.65779z" fill="#ffffff" stroke="#000000" stroke-width="0"/><path d="M231.53302,175.24886c0,-3.12469 2.6768,-5.65779 5.9788,-5.65779c3.30198,0 3.302,11.31557 0,11.31557c-3.30198,0 -5.9788,-2.53308 -5.9788,-5.65779z" fill="#ffffff" stroke="#000000" stroke-width="0"/><path d="M234.26632,163.32974c5.3294,0.66064 11.27083,-3.7053 11.27083,-3.7053c0,0 -2.28044,-11.91969 2.59457,-15.28353c3.05956,-2.11114 12.97142,3.19027 17.40593,7.02247c4.94331,4.27189 21.48748,22.6248 21.59698,28.92924c0.08674,4.99402 -15.92674,23.95647 -21.55726,28.91764c-5.34096,4.70602 -15.2484,8.41984 -18.49884,5.71853c-4.41739,-3.67109 -1.55218,-14.51843 -1.55218,-14.51843c0,0 -6.53769,-5.52902 -11.49793,-4.67577c-6.88362,1.18411 -8.87301,-33.79588 0.46606,-32.6382z" fill="url(#color-21)" stroke="none" stroke-width="0"/><path d="M267.07124,161.78468c10.04319,0 18.18479,8.14161 18.18479,18.18479c0,10.04318 -8.1416,18.18478 -18.18479,18.18478c-10.04319,0 -18.18479,-8.1416 -18.18479,-18.18478c0,-10.04318 8.1416,-18.18479 18.18478,-18.18479z" fill="url(#color-22)" stroke="none" stroke-width="0"/><path d="M262.87604,154.49474c8.07985,0 14.62985,6.55001 14.62985,14.62986c0,8.07985 -6.55001,14.62985 -14.62986,14.62985c-8.07985,0 -14.62986,-6.55 -14.62986,-14.62985c0,-8.07985 6.55001,-14.62986 14.62986,-14.62986z" fill="url(#color-23)" stroke="none" stroke-width="0"/><path d="M269.07223,163.33867c7.32473,0 13.26258,5.93786 13.26258,13.26258c0,7.32472 -5.93786,13.26258 -13.26258,13.26258c-7.32473,0 -13.26259,-5.93786 -13.26259,-13.26258c0,-7.32472 5.93786,-13.26258 13.26258,-13.26258z" fill="url(#color-24)" stroke="none" stroke-width="0"/><path d="M260.72641,150.54563c4.15319,0 7.52001,3.36684 7.52001,7.52002c0,4.1532 -3.36682,7.52002 -7.52002,7.52002c-4.15319,0 -7.52002,-3.36682 -7.52002,-7.52002c0,-4.1532 3.36684,-7.52002 7.52002,-7.52002z" fill="url(#color-25)" stroke="none" stroke-width="0"/><path d="M261.22875,193.332c4.15319,0 7.52002,3.36682 7.52002,7.52002c0,4.15319 -3.36684,7.52002 -7.52002,7.52002c-4.15319,0 -7.52002,-3.36682 -7.52002,-7.52001c0,-4.15319 3.36684,-7.52002 7.52002,-7.52002z" fill="url(#color-26)" stroke="none" stroke-width="0"/><path d="M266.53427,155.12579c4.99772,0 9.04914,4.05142 9.04914,9.04915c0,4.99772 -4.05142,9.04915 -9.04913,9.04915c-4.99772,0 -9.04914,-4.05142 -9.04914,-9.04915c0,-4.99772 4.05144,-9.04915 9.04914,-9.04915z" fill="url(#color-27)" stroke="none" stroke-width="0"/><path d="M272.87505,187.17763c3.3695,0 6.10099,2.73151 6.10099,6.10099c0,3.3695 -2.73151,6.10101 -6.10099,6.10101c-3.3695,0 -6.10101,-2.73151 -6.10101,-6.10101c0,-3.3695 2.73151,-6.10099 6.10101,-6.10099z" fill="url(#color-28)" stroke="none" stroke-width="0"/><path d="M276.15648,181.43507c3.3695,0 6.10099,2.73151 6.10099,6.10099c0,3.3695 -2.73151,6.10101 -6.10099,6.10101c-3.3695,0 -6.10101,-2.73151 -6.10101,-6.10101c0,-3.3695 2.73151,-6.10099 6.10101,-6.10099z" fill="url(#color-29)" stroke="none" stroke-width="0"/><path d="M275.58182,166.39887c3.12948,0 5.66643,2.53694 5.66643,5.66643c0,3.12948 -2.53694,5.66643 -5.66643,5.66643c-3.12948,0 -5.66644,-2.53694 -5.66644,-5.66643c0,-3.12948 2.53694,-5.66643 5.66644,-5.66643z" fill="url(#color-30)" stroke="none" stroke-width="0"/><path d="M266.67859,186.2458c5.33282,0 9.65592,4.3231 9.65592,9.65592c0,5.33282 -4.3231,9.65592 -9.65592,9.65592c-5.33283,0 -9.65593,-4.3231 -9.65593,-9.65592c0,-5.33282 4.3231,-9.65592 9.65593,-9.65592z" fill="url(#color-31)" stroke="none" stroke-width="0"/><path d="M271.58322,161.45227c2.0753,0 3.75765,1.68236 3.75765,3.75765c0,2.0753 -1.68235,3.75765 -3.75765,3.75765c-2.0753,0 -3.75766,-1.68236 -3.75766,-3.75765c0,-2.0753 1.68236,-3.75765 3.75766,-3.75765z" fill="url(#color-32)" stroke="none" stroke-width="0"/><path d="M252.75042,199.8124c3.3695,0 6.10099,2.73151 6.10099,6.10101c0,3.36949 -2.73151,6.10099 -6.10099,6.10099c-3.3695,0 -6.10101,-2.73151 -6.10101,-6.10099c0,-3.3695 2.73152,-6.10101 6.10101,-6.10101z" fill="url(#color-33)" stroke="none" stroke-width="0"/><path d="M251.60741,148.50054c3.3695,0 6.10099,2.73151 6.10099,6.10099c0,3.36949 -2.73151,6.10099 -6.10099,6.10099c-3.3695,0 -6.10101,-2.73151 -6.10101,-6.10099c0,-3.36949 2.73152,-6.10099 6.10101,-6.10099z" fill="url(#color-34)" stroke="none" stroke-width="0"/><path d="M270.45601,170.2592c4.99772,0 9.04914,4.05142 9.04914,9.04915c0,4.99772 -4.05142,9.04915 -9.04913,9.04915c-4.99772,0 -9.04915,-4.05142 -9.04915,-9.04915c0,-4.99772 4.05145,-9.04915 9.04915,-9.04915z" fill="url(#color-35)" stroke="none" stroke-width="0"/><path d="M281.14431,174.96934c3.12948,0 5.66643,2.53694 5.66643,5.66643c0,3.12948 -2.53694,5.66643 -5.66643,5.66643c-3.12948,0 -5.66644,-2.53694 -5.66644,-5.66643c0,-3.12948 2.53694,-5.66643 5.66644,-5.66643z" fill="url(#color-36)" stroke="none" stroke-width="0"/><path d="M230.36834,179.93141c0,0 -4.47616,-5.47626 -4.27839,-9.88021c0.19359,-4.31074 5.03666,-7.55126 7.25982,-7.54268c5.171,0.01995 9.69991,1.24767 12.22927,6.01598c1.39103,2.62233 -3.52824,11.21479 -3.52824,11.21479c0,0 5.29844,8.60803 3.53487,11.39808c-2.67436,4.231 -6.96253,5.31147 -11.79237,5.29282c-2.11354,-0.00816 -6.61172,-2.65738 -6.97761,-6.20967c-0.47024,-4.56535 3.55267,-10.28913 3.55267,-10.28913z" fill="url(#color-37)" stroke="none" stroke-width="0"/><path d="M236.17735,179.22418c4.39485,0 7.95763,3.33953 7.95763,7.45904c0,4.1195 -3.56275,7.45903 -7.95763,7.45903c-1.96406,0 -7.15989,-3.6647 -7.36846,-6.96055c-0.25814,-4.07905 4.93766,-7.95751 7.36846,-7.95751z" fill="#ffffff" stroke="#000000" stroke-width="0"/><path d="M236.17735,164.7707c4.39485,0 7.95763,3.33951 7.95763,7.45903c0,4.11949 -3.56275,7.45904 -7.95763,7.45904c-4.09278,0 -7.55476,-4.18385 -7.37828,-8.27283c0.14844,-3.43941 5.34096,-6.64524 7.37828,-6.64524z" fill="#ffffff" stroke="#000000" stroke-width="0"/><path d="M239.5819,169.4698c2.29945,0 4.16351,1.86407 4.16351,4.16351c0,2.29945 -1.86407,4.16351 -4.16351,4.16351c-2.29945,0 -4.16351,-1.86407 -4.16351,-4.16351c0,-2.29945 1.86407,-4.16351 4.16351,-4.16351z" fill="url(#color-38)" stroke="none" stroke-width="0"/><path d="M239.53598,180.84865c2.29945,0 4.16352,1.86407 4.16352,4.16352c0,2.29945 -1.86407,4.16352 -4.16352,4.16352c-2.29945,0 -4.16352,-1.86407 -4.16352,-4.16352c0,-2.29945 1.86407,-4.16352 4.16352,-4.16352z" fill="url(#color-39)" stroke="none" stroke-width="0"/><path d="M239.13683,178.68606l3.95118,-12.28489l1.79025,6.16794l-1.92989,7.34117l1.83421,7.65573l-1.0279,4.66849l-4.70728,-11.14593z" fill="#000000" stroke="none" stroke-width="0"/></g></g></svg>