<svg version="1.1" xmlns="http://www.w3.org/2000/svg" xmlns:xlink="http://www.w3.org/1999/xlink" width="88.42581" height="89.2418" viewBox="0,0,88.42581,89.2418"><defs><radialGradient cx="239.75002" cy="184.24999" r="40.77889" gradientUnits="userSpaceOnUse" id="color-1"><stop offset="0" stop-color="#feec7b"/><stop offset="1" stop-color="#feec7b" stop-opacity="0"/></radialGradient><linearGradient x1="245.17381" y1="152.85155" x2="245.17381" y2="206.45677" gradientUnits="userSpaceOnUse" id="color-2"><stop offset="0" stop-color="#fff387"/><stop offset="1" stop-color="#f9ca3a"/></linearGradient><linearGradient x1="245.17381" y1="152.85155" x2="245.17381" y2="206.45677" gradientUnits="userSpaceOnUse" id="color-3"><stop offset="0" stop-color="#fce369"/><stop offset="1" stop-color="#c29800"/></linearGradient><linearGradient x1="254.3347" y1="172.56923" x2="254.3347" y2="194.64307" gradientUnits="userSpaceOnUse" id="color-4"><stop offset="0" stop-color="#fff387"/><stop offset="1" stop-color="#f9ca3a"/></linearGradient><linearGradient x1="239.53633" y1="188.90386" x2="262.08621" y2="188.90386" gradientUnits="userSpaceOnUse" id="color-5"><stop offset="0" stop-color="#fce166"/><stop offset="1" stop-color="#caa310"/></linearGradient><linearGradient x1="229.20096" y1="183.16466" x2="229.20096" y2="199.4993" gradientUnits="userSpaceOnUse" id="color-6"><stop offset="0" stop-color="#fff387"/><stop offset="1" stop-color="#f9ca3a"/></linearGradient><linearGradient x1="229.20096" y1="183.16466" x2="229.20096" y2="199.4993" gradientUnits="userSpaceOnUse" id="color-7"><stop offset="0" stop-color="#f6da5c"/><stop offset="1" stop-color="#caa310"/></linearGradient></defs><g transform="translate(-195.78711,-135.7871)"><g data-paper-data="{&quot;isPaintingLayer&quot;:true}" fill-rule="nonzero" stroke-linecap="butt" stroke-linejoin="miter" stroke-miterlimit="10" stroke-dasharray="" stroke-dashoffset="0" style="mix-blend-mode: normal"><path d="M198.9711,184.24999c0,-22.52157 18.25734,-40.77889 40.7789,-40.77889c22.52157,0 40.7789,18.25732 40.7789,40.7789c0,22.52157 -18.25734,40.7789 -40.7789,40.7789c-22.52157,0 -40.7789,-18.25734 -40.7789,-40.7789z" fill="url(#color-1)" stroke="#cecc3b" stroke-width="0"/><path d="M195.78711,224.21291v-88.42581h88.42581v88.42581z" fill="none" stroke="none" stroke-width="0"/><g stroke-width="1.5"><path d="M233.42907,210.36459l-17.85199,-12.7453l6.11501,-18.01828l-3.97713,-29.77021l9.58714,3.86753l8.00579,22.16232l12.41819,-27.27978l7.31331,4.36444l-6.62718,26.39144l16.01071,3.82349l-2.17365,15.37107l-14.2567,12.88783z" fill="url(#color-2)" stroke="url(#color-3)"/><path d="M239.53633,199.94079l9.39579,-22.07382l13.15409,3.53182l-6.10728,14.56874z" fill="url(#color-4)" stroke="url(#color-5)"/><path d="M216.04687,196.40895l4.2281,-7.94658l7.98642,-3.09035l11.27495,8.38808z" fill="url(#color-6)" stroke="url(#color-7)"/></g></g></g></svg>