<svg version="1.1" xmlns="http://www.w3.org/2000/svg" xmlns:xlink="http://www.w3.org/1999/xlink" width="37.6" height="43.6" viewBox="0,0,37.6,43.6"><g transform="translate(-221.20006,-158.2)"><g data-paper-data="{&quot;isPaintingLayer&quot;:true}" fill-rule="nonzero" stroke="none" stroke-linecap="butt" stroke-linejoin="miter" stroke-miterlimit="10" stroke-dasharray="" stroke-dashoffset="0" style="mix-blend-mode: normal"><path d="M221.20006,201.8v-43.6h37.6v43.6z" fill="none" stroke-width="0"/><path d="M228.13478,190.02497l8.25585,-11.06204l-6.75109,-9.17092c-0.44736,-0.55581 -0.67104,-1.16585 -0.67104,-1.83011c0,-0.89471 0.29824,-1.61999 0.89472,-2.17581c0.61004,-0.56936 1.3692,-0.85403 2.27748,-0.85403c0.5287,0 1.04384,0.1559 1.54543,0.46769c0.50159,0.29823 0.88794,0.6507 1.15907,1.0574l5.16499,7.34078l5.16499,-7.34078c0.27113,-0.4067 0.65749,-0.75917 1.15907,-1.0574c0.50159,-0.3118 1.01673,-0.46769 1.54543,-0.46769c0.55581,0 1.08451,0.12878 1.5861,0.38634c0.50159,0.25758 0.88794,0.61683 1.15907,1.07775c0.27113,0.44736 0.40669,0.96928 0.40669,1.56576c0,0.6507 -0.2169,1.26074 -0.65071,1.83011l-6.75109,9.17092l8.23552,11.06204c0.47447,0.63714 0.71171,1.34884 0.71171,2.13512c0,0.88117 -0.29146,1.5861 -0.87439,2.1148c-0.58292,0.5287 -1.34208,0.79305 -2.27748,0.79305c-1.08451,0 -1.94534,-0.45414 -2.5825,-1.36242l-6.83243,-9.49628l-6.83243,9.49628c-0.65071,0.90828 -1.51154,1.36242 -2.5825,1.36242c-0.92184,0 -1.68099,-0.27113 -2.27748,-0.8134c-0.59648,-0.54225 -0.89472,-1.2404 -0.89472,-2.09446c0,-0.74561 0.23724,-1.45731 0.71171,-2.13512z" fill="#ff0000" stroke-width="0.40889"/></g></g></svg>