<svg version="1.1" xmlns="http://www.w3.org/2000/svg" xmlns:xlink="http://www.w3.org/1999/xlink" width="37.6" height="45.55907" viewBox="0,0,37.6,45.55907"><g transform="translate(-221.20009,-158.2)"><g data-paper-data="{&quot;isPaintingLayer&quot;:true}" fill-rule="nonzero" stroke="none" stroke-linecap="butt" stroke-linejoin="miter" stroke-miterlimit="10" stroke-dasharray="" stroke-dashoffset="0" style="mix-blend-mode: normal"><path d="M221.20009,201.8v-43.6h37.6v43.6z" fill="none" stroke-width="0"/><path d="M250.92097,175.61597v24.82856c0,0.62361 -0.12879,1.19298 -0.38636,1.70812c-0.25757,0.51514 -0.61682,0.90827 -1.07773,1.17939c-0.46092,0.28469 -0.97606,0.42703 -1.54543,0.42703c-0.89472,0 -1.61999,-0.30501 -2.1758,-0.91504c-0.54226,-0.59648 -0.81338,-1.39632 -0.81338,-2.3995v-7.34078c-0.78627,0.67783 -1.66744,1.19975 -2.6435,1.56576c-0.97606,0.35247 -1.93179,0.5287 -2.86718,0.5287c-1.91145,0 -3.62634,-0.53547 -5.14466,-1.60642c-1.50476,-1.07097 -2.67061,-2.48084 -3.49755,-4.22961c-0.81338,-1.74877 -1.22008,-3.56533 -1.22008,-5.44967c0,-2.03346 0.36602,-3.95848 1.09807,-5.77505c0.73205,-1.81656 1.83011,-3.28742 3.29421,-4.41261c1.47765,-1.12518 3.2332,-1.68777 5.26666,-1.68777c0.75916,0 1.51154,0.10845 2.25714,0.32536c0.7456,0.20334 1.40987,0.50837 1.99279,0.91507c0.59648,0.40669 1.08451,0.90827 1.46409,1.50475c0.37958,-1.66743 1.37598,-2.50115 2.98919,-2.50115c0.58292,0 1.09807,0.14234 1.54543,0.42703c0.46092,0.27112 0.82016,0.66425 1.07773,1.17939c0.25757,0.50159 0.38636,1.07774 0.38636,1.72844zM244.92226,183.44482c0,-1.61321 -0.41347,-3.00275 -1.24041,-4.1686c-0.81338,-1.16586 -1.97246,-1.74878 -3.47722,-1.74878c-0.97606,0 -1.82334,0.30502 -2.54183,0.91507c-0.70493,0.59648 -1.23363,1.36242 -1.5861,2.2978c-0.35247,0.93539 -0.5287,1.90467 -0.5287,2.90786c0,0.69137 0.10167,1.40308 0.30502,2.13512c0.20335,0.73204 0.50159,1.39631 0.89472,1.99279c0.39314,0.58294 0.88117,1.05064 1.46409,1.40311c0.59648,0.3389 1.26075,0.50836 1.99279,0.50836c1.01673,0 1.88434,-0.30502 2.60283,-0.91507c0.71849,-0.61003 1.24719,-1.3963 1.5861,-2.35881c0.35247,-0.97606 0.5287,-1.96567 0.5287,-2.96884z" fill="#ff0000" stroke-width="0.40889"/></g></g></svg>