<svg version="1.1" xmlns="http://www.w3.org/2000/svg" xmlns:xlink="http://www.w3.org/1999/xlink" width="435.81389" height="308.89384" viewBox="0,0,435.81389,308.89384"><defs><linearGradient x1="240.00001" y1="-1.63994" x2="240.00001" y2="37.27182" gradientUnits="userSpaceOnUse" id="color-1"><stop offset="0" stop-color="#000000"/><stop offset="1" stop-color="#000000" stop-opacity="0"/></linearGradient></defs><g transform="translate(-13.71627,1.63994)"><g data-paper-data="{&quot;isPaintingLayer&quot;:true}" fill-rule="nonzero" stroke-linejoin="miter" stroke-miterlimit="10" stroke-dasharray="" stroke-dashoffset="0" style="mix-blend-mode: normal"><path d="M195.75001,37.27182v-38.91176h88.5v38.91176z" fill="url(#color-1)" stroke="#ffffff" stroke-width="0" stroke-linecap="butt"/><text transform="translate(210.85395,12.78202) scale(0.32819,0.32819)" font-size="40" xml:space="preserve" fill="#ffffff" fill-rule="nonzero" stroke="none" stroke-width="1" stroke-linecap="butt" stroke-linejoin="miter" stroke-miterlimit="10" stroke-dasharray="" stroke-dashoffset="0" font-family="Sans Serif" font-weight="normal" text-anchor="start" style="mix-blend-mode: normal"><tspan x="0" dy="0">4</tspan></text><text transform="translate(209.88026,32.04714) scale(0.44178,0.44178)" font-size="40" xml:space="preserve" fill="#ff0000" fill-rule="nonzero" stroke="none" stroke-width="1" stroke-linecap="butt" stroke-linejoin="miter" stroke-miterlimit="10" stroke-dasharray="" stroke-dashoffset="0" font-family="Sans Serif" font-weight="normal" text-anchor="start" style="mix-blend-mode: normal"><tspan x="0" dy="0">5</tspan></text><text transform="translate(258.69401,12.03832) scale(0.28522,0.28522)" font-size="40" xml:space="preserve" fill="#ffffff" fill-rule="nonzero" stroke="none" stroke-width="1" stroke-linecap="butt" stroke-linejoin="miter" stroke-miterlimit="10" stroke-dasharray="" stroke-dashoffset="0" font-family="Sans Serif" font-weight="normal" text-anchor="start" style="mix-blend-mode: normal"><tspan x="0" dy="0">3</tspan></text><text transform="translate(256.7332,32.16771) scale(0.4743,0.4743)" font-size="40" xml:space="preserve" fill="#00b3ff" fill-rule="nonzero" stroke="none" stroke-width="1" stroke-linecap="butt" stroke-linejoin="miter" stroke-miterlimit="10" stroke-dasharray="" stroke-dashoffset="0" font-family="Sans Serif" font-weight="normal" text-anchor="start" style="mix-blend-mode: normal"><tspan x="0" dy="0">5</tspan></text><path d="M205.62577,15.66741h68.89135" fill="none" stroke="#ffffff" stroke-width="1.5" stroke-linecap="round"/><text transform="translate(234.29833,28.4838) scale(0.2479,0.2479)" font-size="40" xml:space="preserve" fill="#ffffff" fill-rule="nonzero" stroke="none" stroke-width="1" stroke-linecap="butt" stroke-linejoin="miter" stroke-miterlimit="10" stroke-dasharray="" stroke-dashoffset="0" font-family="Sans Serif" font-weight="normal" text-anchor="start" style="mix-blend-mode: normal"><tspan x="0" dy="0">vs</tspan></text><text transform="translate(167.12501,72.44756) scale(0.5,0.5)" font-size="40" xml:space="preserve" fill="#000000" fill-rule="nonzero" stroke="none" stroke-width="1" stroke-linecap="butt" stroke-linejoin="miter" stroke-miterlimit="10" stroke-dasharray="" stroke-dashoffset="0" font-family="Sans Serif" font-weight="normal" text-anchor="start" style="mix-blend-mode: normal"><tspan x="0" dy="0">Player Count Plan</tspan></text><path d="M189.62501,6.94756l-58,7" fill="none" stroke="#000000" stroke-width="0.5" stroke-linecap="round"/><path d="M130.62501,52.69756l59.25,-26.25" fill="none" stroke="#000000" stroke-width="0.5" stroke-linecap="round"/><text transform="translate(77.03328,16.93113) scale(0.20339,0.20339)" font-size="40" xml:space="preserve" fill="#000000" fill-rule="nonzero" stroke="none" stroke-width="1" stroke-linecap="butt" stroke-linejoin="miter" stroke-miterlimit="10" stroke-dasharray="" stroke-dashoffset="0" font-family="Sans Serif" font-weight="normal" text-anchor="start" style="mix-blend-mode: normal"><tspan x="0" dy="0">alive players</tspan><tspan x="0" dy="46.150000000000006px">on each team</tspan></text><text transform="translate(76.78328,54.93113) scale(0.20339,0.20339)" font-size="40" xml:space="preserve" fill="#000000" fill-rule="nonzero" stroke="none" stroke-width="1" stroke-linecap="butt" stroke-linejoin="miter" stroke-miterlimit="10" stroke-dasharray="" stroke-dashoffset="0" font-family="Sans Serif" font-weight="normal" text-anchor="start" style="mix-blend-mode: normal"><tspan x="0" dy="0">total players</tspan><tspan x="0" dy="46.150000000000006px">on each team</tspan></text><text transform="translate(234.29833,12.48381) scale(0.2479,0.2479)" font-size="40" xml:space="preserve" fill="#ffffff" fill-rule="nonzero" stroke="none" stroke-width="1" stroke-linecap="butt" stroke-linejoin="miter" stroke-miterlimit="10" stroke-dasharray="" stroke-dashoffset="0" font-family="Sans Serif" font-weight="normal" text-anchor="start" style="mix-blend-mode: normal"><tspan x="0" dy="0">vs</tspan></text><text transform="translate(13.96627,135.08169) scale(0.5,0.5)" font-size="40" xml:space="preserve" fill="#9966ff" fill-rule="nonzero" stroke="none" stroke-width="1" stroke-linecap="butt" stroke-linejoin="miter" stroke-miterlimit="10" stroke-dasharray="" stroke-dashoffset="0" font-family="Sans Serif" font-weight="normal" text-anchor="start" style="mix-blend-mode: normal"><tspan x="0" dy="0"># of dead players is</tspan><tspan x="0" dy="46.150000000000006px">unnecessary</tspan><tspan x="0" dy="46.150000000000006px"> </tspan><tspan x="0" dy="46.150000000000006px">i think the display i ended</tspan><tspan x="0" dy="46.150000000000006px">up using is really good</tspan></text><g fill="#000000" stroke="none" stroke-width="0" stroke-linecap="butt"><path d="M389.10959,193.4128c9.52906,0 17.2539,7.72484 17.2539,17.2539c0,9.52906 -7.72484,17.25389 -17.25389,17.25389c-9.52906,0 -17.25389,-7.72483 -17.25389,-17.25389c0,-9.52906 7.72482,-17.2539 17.25388,-17.2539z"/><path d="M327.80319,210.6667c0,-9.52906 7.72483,-17.2539 17.25389,-17.2539c9.52906,0 17.2539,7.72484 17.2539,17.2539c0,9.52906 -7.72484,17.25389 -17.2539,17.25389c-9.52906,0 -17.25389,-7.72483 -17.25389,-17.25389z"/><path d="M343.95578,227.9206v-34.50779h46.25512v34.50779z"/></g><g fill="#ffffff" stroke="none" stroke-width="0.40889" stroke-linecap="butt"><path d="M373.04364,208.36932c0,0.26284 -0.09019,0.49735 -0.27058,0.70351c-0.17523,0.20615 -0.39427,0.30924 -0.65712,0.30924c-0.11854,0 -0.34532,-0.07473 -0.68033,-0.2242c-0.32985,-0.14946 -0.58496,-0.26027 -0.76535,-0.33243c-0.18039,-0.07215 -0.3814,-0.10822 -0.60302,-0.10822c-0.22163,0 -0.40717,0.05412 -0.55663,0.16236c-0.14431,0.10822 -0.21646,0.26542 -0.21646,0.47159c0,0.22161 0.22678,0.43293 0.68032,0.63393c0.45354,0.19587 0.93286,0.39945 1.43795,0.61075c0.51024,0.20615 0.94317,0.48447 1.29878,0.83493c0.36078,0.35046 0.54115,0.82205 0.54115,1.41476c0,0.51024 -0.134,0.96895 -0.402,1.3761c-0.268,0.40202 -0.65197,0.72156 -1.1519,0.95862c-0.49476,0.23194 -1.05913,0.3479 -1.69307,0.3479c-0.44839,0 -0.92256,-0.07731 -1.42249,-0.23193c-0.49476,-0.15461 -0.91224,-0.36851 -1.2524,-0.64166c-0.34015,-0.27317 -0.51024,-0.56951 -0.51024,-0.88905c0,-0.20615 0.09018,-0.42518 0.27058,-0.65712c0.18554,-0.23708 0.42261,-0.35563 0.71124,-0.35563c0.20615,0 0.38654,0.03351 0.54115,0.10051c0.15463,0.06182 0.3479,0.15975 0.57981,0.29378c0.23709,0.134 0.44066,0.23193 0.61075,0.29378c0.17523,0.06182 0.38654,0.09273 0.63393,0.09273c0.335,0 0.56694,-0.05154 0.69578,-0.15461c0.134,-0.10824 0.201,-0.27317 0.201,-0.49478c0,-0.22161 -0.21903,-0.42776 -0.65712,-0.61847c-0.43809,-0.19069 -0.91999,-0.39427 -1.44568,-0.61074c-0.52569,-0.21646 -0.96635,-0.50251 -1.32198,-0.85812c-0.35563,-0.35561 -0.53344,-0.82721 -0.53344,-1.41477c0,-0.52056 0.13143,-0.98181 0.39429,-1.38382c0.26285,-0.402 0.62878,-0.71383 1.09778,-0.93545c0.469,-0.22676 1.00244,-0.34017 1.60029,-0.34017c0.41747,0 0.84524,0.06185 1.28334,0.18555c0.43809,0.12369 0.80659,0.31182 1.10551,0.56435c0.30409,0.25254 0.45612,0.55147 0.45612,0.89678z"/><path d="M361.84038,214.47672l-2.29607,-5.8832c-0.09276,-0.24739 -0.13915,-0.46902 -0.13915,-0.66487c0,-0.35046 0.11597,-0.62363 0.3479,-0.81947c0.23193,-0.19584 0.51281,-0.29378 0.84266,-0.29378c0.49478,0 0.83236,0.27057 1.01275,0.81174l1.45341,4.49165h0.03093l1.46114,-4.49165c0.17008,-0.54117 0.50766,-0.81174 1.01274,-0.81174c0.32985,0 0.60817,0.09793 0.83495,0.29378c0.23193,0.19069 0.3479,0.46385 0.3479,0.81947c0,0.19584 -0.04639,0.41748 -0.13915,0.66487l-2.29607,5.8832c-0.12369,0.32985 -0.27317,0.57208 -0.44839,0.72669c-0.17008,0.14946 -0.43293,0.2242 -0.78856,0.2242c-0.35563,0 -0.61847,-0.07473 -0.78856,-0.2242c-0.16493,-0.14946 -0.31439,-0.39169 -0.44839,-0.72669z"/></g><path d="M387.4025,204.75725v-6.57531h-0.7732c-0.29394,0 -0.51545,-0.08733 -0.66455,-0.26199c-0.14911,-0.17892 -0.22365,-0.39192 -0.22365,-0.63899c0,-0.23855 0.07881,-0.4473 0.23643,-0.62621c0.16188,-0.18318 0.37914,-0.27477 0.65177,-0.27477h1.85949c0.27264,0 0.48564,0.08733 0.63899,0.26199c0.15762,0.1704 0.23643,0.39192 0.23643,0.66455v7.45074c0,0.32375 -0.09159,0.57509 -0.27477,0.75401c-0.17892,0.17466 -0.41322,0.26199 -0.7029,0.26199c-0.28542,0 -0.52185,-0.08946 -0.70929,-0.26838c-0.18318,-0.18318 -0.27477,-0.43238 -0.27477,-0.74762z" fill="#a7a7a7" stroke="none" stroke-width="0.40889" stroke-linecap="butt"/><path d="M345.31675,198.21921c1.48236,0 2.75913,0.31379 3.83031,0.94136c1.082,0.62756 1.89352,1.41741 2.43452,2.36959c0.54101,0.95216 0.81151,1.87729 0.81151,2.77536c0,1.06037 -0.22722,2.02877 -0.68167,2.9052c-0.45445,0.87643 -1.13611,1.60138 -2.04499,2.17483c1.23349,0.57348 2.21812,1.38498 2.95387,2.43452c0.73577,1.04955 1.10366,2.22353 1.10366,3.52194c0,1.30923 -0.37329,2.5319 -1.11987,3.66802c-0.73577,1.12529 -1.74746,2.02336 -3.03505,2.69421c-1.28759,0.66001 -2.6942,0.99003 -4.21984,0.99003c-1.54726,0 -2.92683,-0.3246 -4.13868,-0.97382c-1.21185,-0.66001 -2.1532,-1.47693 -2.82405,-2.45073c-0.67085,-0.98463 -1.00627,-1.92598 -1.00627,-2.82405c0,-0.62757 0.26509,-1.15776 0.79527,-1.59056c0.53018,-0.43281 1.11448,-0.64921 1.75287,-0.64921c0.59509,0 1.21724,0.47608 1.86646,1.42826c0.66003,0.94136 1.15777,1.59056 1.49319,1.94762c0.34623,0.34625 1.05495,0.51937 2.12614,0.51937c0.57345,0 1.09822,-0.12984 1.57431,-0.38953c0.47609,-0.27051 0.85479,-0.6438 1.1361,-1.11989c0.28133,-0.47609 0.42199,-1.00627 0.42199,-1.59056c0,-1.0279 -0.24344,-1.7258 -0.73034,-2.09368c-0.48692,-0.3787 -1.21187,-0.63838 -2.17486,-0.77904c-0.95217,-0.14066 -1.65006,-0.33542 -2.09368,-0.58428c-0.4328,-0.25969 -0.6492,-0.82233 -0.6492,-1.68794c0,-0.77904 0.19476,-1.31464 0.58428,-1.60679c0.40034,-0.29213 0.99005,-0.541 1.76909,-0.74659c0.77904,-0.20559 1.36333,-0.46526 1.75285,-0.77903c0.40034,-0.31378 0.60052,-0.87643 0.60052,-1.68793c0,-0.63838 -0.2164,-1.16857 -0.64921,-1.59056c-0.4328,-0.42199 -1.01167,-0.63298 -1.73662,-0.63298c-0.71413,0 -1.27137,0.14066 -1.67172,0.42199c-0.40034,0.28132 -0.78986,0.69789 -1.16857,1.24971c-0.3787,0.55182 -0.7087,0.95758 -0.99003,1.21726c-0.27051,0.24886 -0.65463,0.37329 -1.15235,0.37329c-0.64921,0 -1.17398,-0.24345 -1.57431,-0.73037c-0.38952,-0.49772 -0.58428,-1.07659 -0.58428,-1.73662c0,-0.63838 0.20017,-1.27678 0.6005,-1.91517c0.40034,-0.6492 0.94676,-1.23347 1.63925,-1.75285c0.6925,-0.53018 1.47695,-0.94675 2.35337,-1.24972c0.88726,-0.31379 1.76909,-0.47068 2.64551,-0.47068z" fill="#ff0000" stroke="none" stroke-width="0.40889" stroke-linecap="butt"/><path d="M388.22025,207.7192c1.02811,0 1.91364,0.21763 2.65657,0.6529c0.75044,0.43525 1.31328,0.98307 1.6885,1.64347c0.37523,0.66039 0.56284,1.30202 0.56284,1.92489c0,0.73544 -0.15759,1.40709 -0.47278,2.01495c-0.31519,0.60786 -0.78797,1.11066 -1.41834,1.50839c0.85551,0.39775 1.53841,0.96057 2.0487,1.6885c0.5103,0.72793 0.76546,1.54216 0.76546,2.4427c0,0.90804 -0.2589,1.75604 -0.7767,2.54401c-0.5103,0.78046 -1.21198,1.40333 -2.10501,1.86861c-0.89303,0.45776 -1.86861,0.68665 -2.92674,0.68665c-1.07313,0 -2.02995,-0.22513 -2.87045,-0.67541c-0.8405,-0.45776 -1.49339,-1.02435 -1.95866,-1.69974c-0.46528,-0.68291 -0.69791,-1.33579 -0.69791,-1.95866c0,-0.43526 0.18386,-0.80298 0.55157,-1.10316c0.36771,-0.30018 0.77297,-0.45027 1.21573,-0.45027c0.41273,0 0.84424,0.33019 1.29451,0.99059c0.45777,0.6529 0.80299,1.10316 1.03563,1.3508c0.24013,0.24015 0.73168,0.36022 1.47462,0.36022c0.39773,0 0.76169,-0.09005 1.09189,-0.27016c0.3302,-0.18762 0.59285,-0.44652 0.78796,-0.77672c0.19512,-0.3302 0.29268,-0.69791 0.29268,-1.10316c0,-0.71292 -0.16884,-1.19696 -0.50654,-1.4521c-0.33771,-0.26265 -0.84051,-0.44276 -1.50841,-0.54032c-0.66039,-0.09756 -1.14443,-0.23264 -1.4521,-0.40524c-0.30018,-0.18011 -0.45026,-0.57034 -0.45026,-1.1707c0,-0.54032 0.13508,-0.91179 0.40524,-1.11441c0.27766,-0.20261 0.68666,-0.37522 1.22698,-0.51781c0.54032,-0.14259 0.94556,-0.32269 1.21572,-0.54031c0.27766,-0.21763 0.4165,-0.60786 0.4165,-1.17069c0,-0.44276 -0.15009,-0.81048 -0.45027,-1.10316c-0.30018,-0.29268 -0.70166,-0.43901 -1.20446,-0.43901c-0.4953,0 -0.88178,0.09756 -1.15945,0.29268c-0.27766,0.19511 -0.54782,0.48403 -0.81048,0.86676c-0.26265,0.38272 -0.49153,0.66414 -0.68665,0.84425c-0.18762,0.1726 -0.45403,0.2589 -0.79923,0.2589c-0.45027,0 -0.81423,-0.16885 -1.09189,-0.50656c-0.27016,-0.3452 -0.40524,-0.74669 -0.40524,-1.20446c0,-0.44276 0.13883,-0.88553 0.41649,-1.3283c0.27766,-0.45026 0.65664,-0.85549 1.13693,-1.21572c0.48029,-0.36771 1.02436,-0.65663 1.63222,-0.86676c0.61537,-0.21763 1.22698,-0.32645 1.83484,-0.32645z" fill="#00b3ff" stroke="none" stroke-width="0.40889" stroke-linecap="butt"/><g fill="#000000" stroke="none" stroke-width="0" stroke-linecap="butt"><path d="M349.77625,113.2461c9.52906,0 17.2539,7.72484 17.2539,17.2539c0,9.52906 -7.72484,17.25389 -17.25389,17.25389c-9.52906,0 -17.25389,-7.72483 -17.25389,-17.25389c0,-9.52906 7.72482,-17.2539 17.25388,-17.2539z"/><path d="M288.46986,130.5c0,-9.52906 7.72483,-17.2539 17.25389,-17.2539c9.52906,0 17.2539,7.72484 17.2539,17.2539c0,9.52906 -7.72484,17.25389 -17.2539,17.25389c-9.52906,0 -17.25389,-7.72483 -17.25389,-17.25389z"/><path d="M304.62244,147.7539v-34.50779h46.25512v34.50779z"/></g><g fill="#ffffff" stroke="none" stroke-width="0.40889" stroke-linecap="butt"><path d="M334.46489,127.74392c0,0.26284 -0.09019,0.49735 -0.27058,0.70351c-0.17523,0.20615 -0.39427,0.30924 -0.65712,0.30924c-0.11854,0 -0.34532,-0.07473 -0.68033,-0.2242c-0.32985,-0.14946 -0.58496,-0.26027 -0.76535,-0.33243c-0.18039,-0.07215 -0.3814,-0.10822 -0.60302,-0.10822c-0.22163,0 -0.40717,0.05412 -0.55663,0.16236c-0.14431,0.10822 -0.21646,0.26542 -0.21646,0.47159c0,0.22161 0.22678,0.43293 0.68032,0.63393c0.45354,0.19587 0.93286,0.39945 1.43795,0.61075c0.51024,0.20615 0.94317,0.48447 1.29878,0.83493c0.36078,0.35046 0.54115,0.82205 0.54115,1.41476c0,0.51024 -0.134,0.96895 -0.402,1.3761c-0.268,0.40202 -0.65197,0.72156 -1.1519,0.95862c-0.49476,0.23194 -1.05913,0.3479 -1.69307,0.3479c-0.44839,0 -0.92256,-0.07731 -1.42249,-0.23193c-0.49476,-0.15461 -0.91224,-0.36851 -1.2524,-0.64166c-0.34015,-0.27317 -0.51024,-0.56951 -0.51024,-0.88905c0,-0.20615 0.09018,-0.42518 0.27058,-0.65712c0.18554,-0.23708 0.42261,-0.35563 0.71124,-0.35563c0.20615,0 0.38654,0.03351 0.54115,0.10051c0.15463,0.06182 0.3479,0.15975 0.57981,0.29378c0.23709,0.134 0.44066,0.23193 0.61075,0.29378c0.17523,0.06182 0.38654,0.09273 0.63393,0.09273c0.335,0 0.56694,-0.05154 0.69578,-0.15461c0.134,-0.10824 0.201,-0.27317 0.201,-0.49478c0,-0.22161 -0.21903,-0.42776 -0.65712,-0.61847c-0.43809,-0.19069 -0.91999,-0.39427 -1.44568,-0.61074c-0.52569,-0.21646 -0.96635,-0.50251 -1.32198,-0.85812c-0.35563,-0.35561 -0.53344,-0.82721 -0.53344,-1.41477c0,-0.52056 0.13143,-0.98181 0.39429,-1.38382c0.26285,-0.402 0.62878,-0.71383 1.09778,-0.93545c0.469,-0.22676 1.00244,-0.34017 1.60029,-0.34017c0.41747,0 0.84524,0.06185 1.28334,0.18555c0.43809,0.12369 0.80659,0.31182 1.10551,0.56435c0.30409,0.25254 0.45612,0.55147 0.45612,0.89678z"/><path d="M323.26163,133.85133l-2.29607,-5.8832c-0.09276,-0.24739 -0.13915,-0.46902 -0.13915,-0.66487c0,-0.35046 0.11597,-0.62363 0.3479,-0.81947c0.23193,-0.19584 0.51281,-0.29378 0.84266,-0.29378c0.49478,0 0.83236,0.27057 1.01275,0.81174l1.45341,4.49165h0.03093l1.46114,-4.49165c0.17008,-0.54117 0.50766,-0.81174 1.01274,-0.81174c0.32985,0 0.60817,0.09793 0.83495,0.29378c0.23193,0.19069 0.3479,0.46385 0.3479,0.81947c0,0.19584 -0.04639,0.41748 -0.13915,0.66487l-2.29607,5.8832c-0.12369,0.32985 -0.27317,0.57208 -0.44839,0.72669c-0.17008,0.14946 -0.43293,0.2242 -0.78856,0.2242c-0.35563,0 -0.61847,-0.07473 -0.78856,-0.2242c-0.16493,-0.14946 -0.31439,-0.39169 -0.44839,-0.72669z"/></g><path d="M305.01468,118.26248c1.48236,0 2.75913,0.31379 3.83031,0.94136c1.082,0.62756 1.89352,1.41741 2.43452,2.36959c0.54101,0.95216 0.81151,1.87729 0.81151,2.77536c0,1.06037 -0.22722,2.02877 -0.68167,2.9052c-0.45445,0.87643 -1.13611,1.60138 -2.04499,2.17483c1.23349,0.57348 2.21812,1.38498 2.95387,2.43452c0.73577,1.04955 1.10366,2.22353 1.10366,3.52194c0,1.30923 -0.37329,2.5319 -1.11987,3.66802c-0.73577,1.12529 -1.74746,2.02336 -3.03505,2.69421c-1.28759,0.66001 -2.6942,0.99003 -4.21984,0.99003c-1.54726,0 -2.92683,-0.3246 -4.13868,-0.97382c-1.21185,-0.66001 -2.1532,-1.47693 -2.82405,-2.45073c-0.67085,-0.98463 -1.00627,-1.92598 -1.00627,-2.82405c0,-0.62757 0.26509,-1.15776 0.79527,-1.59056c0.53018,-0.43281 1.11448,-0.64921 1.75287,-0.64921c0.59509,0 1.21724,0.47608 1.86646,1.42826c0.66003,0.94136 1.15777,1.59056 1.49319,1.94762c0.34623,0.34625 1.05495,0.51937 2.12614,0.51937c0.57345,0 1.09822,-0.12984 1.57431,-0.38953c0.47609,-0.27051 0.85479,-0.6438 1.1361,-1.11989c0.28133,-0.47609 0.42199,-1.00627 0.42199,-1.59056c0,-1.0279 -0.24344,-1.7258 -0.73034,-2.09368c-0.48692,-0.3787 -1.21187,-0.63838 -2.17486,-0.77904c-0.95217,-0.14066 -1.65006,-0.33542 -2.09368,-0.58428c-0.4328,-0.25969 -0.6492,-0.82233 -0.6492,-1.68794c0,-0.77904 0.19476,-1.31464 0.58428,-1.60679c0.40034,-0.29213 0.99005,-0.541 1.76909,-0.74659c0.77904,-0.20559 1.36333,-0.46526 1.75285,-0.77903c0.40034,-0.31378 0.60052,-0.87643 0.60052,-1.68793c0,-0.63838 -0.2164,-1.16857 -0.64921,-1.59056c-0.4328,-0.42199 -1.01167,-0.63298 -1.73662,-0.63298c-0.71413,0 -1.27137,0.14066 -1.67172,0.42199c-0.40034,0.28132 -0.78986,0.69789 -1.16857,1.24971c-0.3787,0.55182 -0.7087,0.95758 -0.99003,1.21726c-0.27051,0.24886 -0.65463,0.37329 -1.15235,0.37329c-0.64921,0 -1.17398,-0.24345 -1.57431,-0.73037c-0.38952,-0.49772 -0.58428,-1.07659 -0.58428,-1.73662c0,-0.63838 0.20017,-1.27678 0.6005,-1.91517c0.40034,-0.6492 0.94676,-1.23347 1.63925,-1.75285c0.6925,-0.53018 1.47695,-0.94675 2.35337,-1.24972c0.88726,-0.31379 1.76909,-0.47068 2.64551,-0.47068z" fill="#ff0000" stroke="none" stroke-width="0.40889" stroke-linecap="butt"/><g fill="#000000" stroke="none" stroke-width="0" stroke-linecap="butt"><path d="M432.27626,113.2461c9.52906,0 17.2539,7.72484 17.2539,17.2539c0,9.52906 -7.72484,17.25389 -17.25389,17.25389c-9.52906,0 -17.25389,-7.72483 -17.25389,-17.25389c0,-9.52906 7.72482,-17.2539 17.25388,-17.2539z"/><path d="M370.96987,130.5c0,-9.52906 7.72483,-17.2539 17.25389,-17.2539c9.52906,0 17.2539,7.72484 17.2539,17.2539c0,9.52906 -7.72484,17.25389 -17.2539,17.25389c-9.52906,0 -17.25389,-7.72483 -17.25389,-17.25389z"/><path d="M387.12245,147.7539v-34.50779h46.25512v34.50779z"/></g><path d="M388.80816,137.77928c0.96853,0 1.70258,-0.4129 2.20213,-1.23869c0.50974,-0.82579 0.83598,-1.77901 0.97871,-2.85967c0.15292,-1.08067 0.22938,-2.13585 0.22938,-3.16554c0,-1.90646 -0.22429,-3.59373 -0.67287,-5.0618c-0.43838,-1.46808 -1.35083,-2.20213 -2.73735,-2.20213c-1.38651,0 -2.30406,0.74423 -2.75264,2.2327c-0.43839,1.48846 -0.65758,3.16554 -0.65758,5.03122c0,1.8045 0.22429,3.46628 0.67287,4.98534c0.44858,1.51905 1.36103,2.27857 2.73735,2.27857zM388.80816,142.04587c-1.97782,0 -3.58863,-0.57092 -4.83242,-1.71276c-1.24378,-1.15203 -2.13583,-2.60481 -2.67618,-4.35833c-0.53014,-1.75354 -0.79521,-3.57335 -0.79521,-5.45941c0,-1.88607 0.26507,-3.70588 0.79521,-5.45941c0.54034,-1.75354 1.4324,-3.20124 2.67618,-4.34307c1.24379,-1.15203 2.8546,-1.72804 4.83242,-1.72804c1.51905,0 2.81382,0.34153 3.88429,1.0246c1.07047,0.68306 1.92684,1.58532 2.56913,2.70678c0.64229,1.12144 1.10616,2.36013 1.39161,3.71607c0.29566,1.34574 0.44349,2.70677 0.44349,4.08309c0,1.35592 -0.14783,2.70675 -0.44349,4.05249c-0.28546,1.34574 -0.74933,2.58443 -1.39161,3.71607c-0.64229,1.13164 -1.49867,2.04409 -2.56913,2.73735c-1.07047,0.68306 -2.36523,1.0246 -3.88429,1.0246z" fill="#ffffff" stroke="none" stroke-width="0.40889" stroke-linecap="butt"/><path d="M414.5502,123.9303l-0.47406,3.33376c0.95833,-0.2141 1.74335,-0.32114 2.35505,-0.32114c1.22339,0 2.32954,0.30075 3.31846,0.90225c0.99911,0.59131 1.77392,1.39672 2.32445,2.41621c0.56073,1.0195 0.84109,2.13586 0.84109,3.34906c0,1.30495 -0.17841,2.48756 -0.53524,3.54784c-0.34662,1.06028 -0.87675,1.97782 -1.5904,2.75264c-0.70346,0.76462 -1.57513,1.35594 -2.61501,1.77394c-1.02969,0.40779 -2.21741,0.61169 -3.56315,0.61169c-0.84618,0 -1.80961,-0.16822 -2.89027,-0.50465c-1.08067,-0.33643 -2.01861,-0.82579 -2.81381,-1.46808c-0.78501,-0.65248 -1.17752,-1.39671 -1.17752,-2.2327c0,-0.37721 0.09176,-0.72893 0.27526,-1.05517c0.19371,-0.33643 0.45368,-0.5964 0.77991,-0.77991c0.33643,-0.19371 0.69325,-0.29057 1.07047,-0.29057c0.34663,0 0.87677,0.22429 1.59042,0.67287c0.71365,0.43839 1.27947,0.76973 1.69746,0.99401c0.41799,0.2243 0.93794,0.33644 1.55984,0.33644c1.02969,0 1.84019,-0.4129 2.43149,-1.23869c0.59131,-0.82579 0.88697,-1.77903 0.88697,-2.8597c0,-0.6015 -0.11724,-1.14694 -0.35172,-1.6363c-0.2243,-0.48935 -0.56074,-0.86656 -1.00931,-1.13163c-0.44858,-0.26507 -0.99401,-0.3976 -1.6363,-0.3976c-0.63209,0 -1.28456,0.17332 -1.95743,0.51995c-0.67287,0.33643 -1.25399,0.50465 -1.74334,0.50465c-0.55052,0 -0.99911,-0.16312 -1.34574,-0.48935c-0.33643,-0.33644 -0.50465,-0.66269 -0.50465,-0.97873c0,-0.14272 0.01021,-0.29564 0.03064,-0.45877c0.02043,-0.17331 0.04078,-0.37211 0.06109,-0.59641l0.79521,-6.62165c0.102,-0.65248 0.21414,-1.16222 0.33644,-1.52924c0.1223,-0.37722 0.27522,-0.66777 0.45877,-0.87167c0.18351,-0.20389 0.4027,-0.34662 0.65758,-0.42818c0.25487,-0.09179 0.58111,-0.13768 0.97871,-0.13768h7.55448c0.69326,0 1.24379,0.18861 1.65158,0.56583c0.41799,0.36702 0.62699,0.83599 0.62699,1.40692c0,0.94814 -0.23959,1.57512 -0.71875,1.88097c-0.46897,0.30585 -0.95832,0.45877 -1.46806,0.45877z" fill="#ffffff" stroke="none" stroke-width="0.40889" stroke-linecap="butt"/><path d="M432.41273,119.27155c1.54963,0 2.92086,0.35682 4.11367,1.07046c1.20301,0.70346 2.12565,1.6465 2.76793,2.82912c0.65248,1.18261 0.97872,2.47227 0.97872,3.86899c0,1.44769 -0.42309,3.09417 -1.26927,4.93946c-0.84618,1.84529 -1.87588,3.58863 -3.08908,5.23002c-1.20301,1.6414 -2.40091,3.02281 -3.59373,4.14425c-0.22429,0.2141 -0.56072,0.46387 -1.0093,0.74933c-0.22429,0.15294 -0.53524,0.2294 -0.93284,0.2294c-0.45878,0 -0.94814,-0.24978 -1.46807,-0.74935c-0.50975,-0.49955 -0.76462,-1.01439 -0.76462,-1.54452c0,-0.19371 0.05097,-0.38232 0.15292,-0.56583c0.10195,-0.19371 0.27016,-0.43329 0.50465,-0.71875c0.31605,-0.38741 1.0195,-1.18261 2.11035,-2.38563c1.09086,-1.203 1.82999,-2.07977 2.21741,-2.63029l-0.06116,-0.06109c-0.55053,0.25488 -1.2081,0.38232 -1.97272,0.38232c-1.2132,0 -2.32445,-0.32114 -3.33376,-0.96343c-0.99911,-0.65248 -1.78412,-1.51905 -2.35504,-2.59972c-0.57092,-1.08067 -0.85638,-2.2327 -0.85638,-3.4561c0,-1.35592 0.33643,-2.63029 1.0093,-3.82311c0.67287,-1.19281 1.6108,-2.14605 2.81381,-2.8597c1.2132,-0.72384 2.55894,-1.08575 4.03721,-1.08575zM432.41273,130.2974c0.87677,0 1.59042,-0.30585 2.14095,-0.91755c0.55053,-0.6117 0.82579,-1.39161 0.82579,-2.33975c0,-0.91754 -0.26507,-1.68726 -0.79521,-2.30915c-0.53014,-0.6321 -1.25398,-0.94815 -2.17153,-0.94815c-0.88696,0 -1.60571,0.31095 -2.15624,0.93285c-0.55053,0.62189 -0.82579,1.39671 -0.82579,2.32445c0,0.88696 0.25997,1.65158 0.77992,2.29387c0.53014,0.64229 1.26417,0.96343 2.20211,0.96343z" fill="#ffffff" stroke="none" stroke-width="0.40889" stroke-linecap="butt"/><path d="M400.17909,126.6005c0,-0.67286 0.23449,-1.24378 0.70345,-1.71274c0.47916,-0.47916 1.05518,-0.71875 1.72805,-0.71875c0.67287,0 1.24888,0.23449 1.72805,0.70345c0.47916,0.46897 0.71875,1.04498 0.71875,1.72804c0,0.67287 -0.23959,1.24889 -0.71875,1.72806c-0.47916,0.47916 -1.05518,0.71873 -1.72805,0.71873c-0.67287,0 -1.24888,-0.23958 -1.72805,-0.71873c-0.46897,-0.48937 -0.70345,-1.06539 -0.70345,-1.72806zM400.17909,136.66295c0,-0.66268 0.23449,-1.2336 0.70345,-1.71276c0.47916,-0.48935 1.05518,-0.73403 1.72805,-0.73403c0.67287,0 1.24888,0.23958 1.72805,0.71873c0.47916,0.47916 0.71875,1.05519 0.71875,1.72806c0,0.67286 -0.23959,1.24888 -0.71875,1.72804c-0.47916,0.47916 -1.05518,0.71875 -1.72805,0.71875c-0.67287,0 -1.24888,-0.23959 -1.72805,-0.71875c-0.46897,-0.48935 -0.70345,-1.06536 -0.70345,-1.72804z" fill="#ffffff" stroke="none" stroke-width="0.40889" stroke-linecap="butt"/><path d="M350.01468,118.26248c1.48236,0 2.75913,0.31379 3.83031,0.94136c1.082,0.62756 1.89352,1.41741 2.43452,2.36959c0.54101,0.95216 0.81151,1.87729 0.81151,2.77536c0,1.06037 -0.22722,2.02877 -0.68167,2.9052c-0.45445,0.87643 -1.13611,1.60138 -2.04499,2.17483c1.23349,0.57348 2.21812,1.38498 2.95387,2.43452c0.73577,1.04955 1.10366,2.22353 1.10366,3.52194c0,1.30923 -0.37329,2.5319 -1.11987,3.66802c-0.73577,1.12529 -1.74746,2.02336 -3.03505,2.69421c-1.28759,0.66001 -2.6942,0.99003 -4.21984,0.99003c-1.54726,0 -2.92683,-0.3246 -4.13868,-0.97382c-1.21185,-0.66001 -2.1532,-1.47693 -2.82405,-2.45073c-0.67085,-0.98463 -1.00627,-1.92598 -1.00627,-2.82405c0,-0.62757 0.26509,-1.15776 0.79527,-1.59056c0.53018,-0.43281 1.11448,-0.64921 1.75287,-0.64921c0.59509,0 1.21724,0.47608 1.86646,1.42826c0.66003,0.94136 1.15777,1.59056 1.49319,1.94762c0.34623,0.34625 1.05495,0.51937 2.12614,0.51937c0.57345,0 1.09822,-0.12984 1.57431,-0.38953c0.47609,-0.27051 0.85479,-0.6438 1.1361,-1.11989c0.28133,-0.47609 0.42199,-1.00627 0.42199,-1.59056c0,-1.0279 -0.24344,-1.7258 -0.73034,-2.09368c-0.48692,-0.3787 -1.21187,-0.63838 -2.17486,-0.77904c-0.95217,-0.14066 -1.65006,-0.33542 -2.09368,-0.58428c-0.4328,-0.25969 -0.6492,-0.82233 -0.6492,-1.68794c0,-0.77904 0.19476,-1.31464 0.58428,-1.60679c0.40034,-0.29213 0.99005,-0.541 1.76909,-0.74659c0.77904,-0.20559 1.36333,-0.46526 1.75285,-0.77903c0.40034,-0.31378 0.60052,-0.87643 0.60052,-1.68793c0,-0.63838 -0.2164,-1.16857 -0.64921,-1.59056c-0.4328,-0.42199 -1.01167,-0.63298 -1.73662,-0.63298c-0.71413,0 -1.27137,0.14066 -1.67172,0.42199c-0.40034,0.28132 -0.78986,0.69789 -1.16857,1.24971c-0.3787,0.55182 -0.7087,0.95758 -0.99003,1.21726c-0.27051,0.24886 -0.65463,0.37329 -1.15235,0.37329c-0.64921,0 -1.17398,-0.24345 -1.57431,-0.73037c-0.38952,-0.49772 -0.58428,-1.07659 -0.58428,-1.73662c0,-0.63838 0.20017,-1.27678 0.6005,-1.91517c0.40034,-0.6492 0.94676,-1.23347 1.63925,-1.75285c0.6925,-0.53018 1.47695,-0.94675 2.35337,-1.24972c0.88726,-0.31379 1.76909,-0.47068 2.64551,-0.47068z" fill="#00b3ff" stroke="none" stroke-width="0.40889" stroke-linecap="butt"/><g fill="#000000" stroke="none" stroke-width="0" stroke-linecap="butt"><path d="M391.02626,272.7461c9.52906,0 17.2539,7.72484 17.2539,17.2539c0,9.52906 -7.72484,17.25389 -17.25389,17.25389c-9.52906,0 -17.25389,-7.72483 -17.25389,-17.25389c0,-9.52906 7.72482,-17.2539 17.25388,-17.2539z"/><path d="M329.71987,290c0,-9.52906 7.72483,-17.2539 17.25389,-17.2539c9.52906,0 17.2539,7.72484 17.2539,17.2539c0,9.52906 -7.72484,17.25389 -17.2539,17.25389c-9.52906,0 -17.25389,-7.72483 -17.25389,-17.25389z"/><path d="M345.87245,307.2539v-34.50779h46.25512v34.50779z"/></g><path d="M375.7149,287.24392c0,0.26284 -0.09019,0.49735 -0.27058,0.70351c-0.17523,0.20615 -0.39427,0.30924 -0.65712,0.30924c-0.11854,0 -0.34532,-0.07473 -0.68033,-0.2242c-0.32985,-0.14946 -0.58496,-0.26027 -0.76535,-0.33243c-0.18039,-0.07215 -0.3814,-0.10822 -0.60302,-0.10822c-0.22163,0 -0.40717,0.05412 -0.55663,0.16236c-0.14431,0.10822 -0.21646,0.26542 -0.21646,0.47159c0,0.22161 0.22678,0.43293 0.68032,0.63393c0.45354,0.19587 0.93286,0.39945 1.43795,0.61075c0.51024,0.20615 0.94317,0.48447 1.29878,0.83493c0.36078,0.35046 0.54115,0.82205 0.54115,1.41476c0,0.51024 -0.134,0.96895 -0.402,1.3761c-0.268,0.40202 -0.65197,0.72156 -1.1519,0.95862c-0.49476,0.23194 -1.05913,0.3479 -1.69307,0.3479c-0.44839,0 -0.92256,-0.07731 -1.42249,-0.23193c-0.49476,-0.15461 -0.91224,-0.36851 -1.2524,-0.64166c-0.34015,-0.27317 -0.51024,-0.56951 -0.51024,-0.88905c0,-0.20615 0.09018,-0.42518 0.27058,-0.65712c0.18554,-0.23708 0.42261,-0.35563 0.71124,-0.35563c0.20615,0 0.38654,0.03351 0.54115,0.10051c0.15463,0.06182 0.3479,0.15975 0.57981,0.29378c0.23709,0.134 0.44066,0.23193 0.61075,0.29378c0.17523,0.06182 0.38654,0.09273 0.63393,0.09273c0.335,0 0.56694,-0.05154 0.69578,-0.15461c0.134,-0.10824 0.201,-0.27317 0.201,-0.49478c0,-0.22161 -0.21903,-0.42776 -0.65712,-0.61847c-0.43809,-0.19069 -0.91999,-0.39427 -1.44568,-0.61074c-0.52569,-0.21646 -0.96635,-0.50251 -1.32198,-0.85812c-0.35563,-0.35561 -0.53344,-0.82721 -0.53344,-1.41477c0,-0.52056 0.13143,-0.98181 0.39429,-1.38382c0.26285,-0.402 0.62878,-0.71383 1.09778,-0.93545c0.469,-0.22676 1.00244,-0.34017 1.60029,-0.34017c0.41747,0 0.84524,0.06185 1.28334,0.18555c0.43809,0.12369 0.80659,0.31182 1.10551,0.56435c0.30409,0.25254 0.45612,0.55147 0.45612,0.89678z" fill="#ffffff" stroke="#000000" stroke-width="0.5" stroke-linecap="butt"/><path d="M364.51164,293.35133l-2.29607,-5.8832c-0.09276,-0.24739 -0.13915,-0.46902 -0.13915,-0.66487c0,-0.35046 0.11597,-0.62363 0.3479,-0.81947c0.23193,-0.19584 0.51281,-0.29378 0.84266,-0.29378c0.49478,0 0.83236,0.27057 1.01275,0.81174l1.45341,4.49165h0.03093l1.46114,-4.49165c0.17008,-0.54117 0.50766,-0.81174 1.01274,-0.81174c0.32985,0 0.60817,0.09793 0.83495,0.29378c0.23193,0.19069 0.3479,0.46385 0.3479,0.81947c0,0.19584 -0.04639,0.41748 -0.13915,0.66487l-2.29607,5.8832c-0.12369,0.32985 -0.27317,0.57208 -0.44839,0.72669c-0.17008,0.14946 -0.43293,0.2242 -0.78856,0.2242c-0.35563,0 -0.61847,-0.07473 -0.78856,-0.2242c-0.16493,-0.14946 -0.31439,-0.39169 -0.44839,-0.72669z" fill="#ffffff" stroke="#000000" stroke-width="0.5" stroke-linecap="butt"/><path d="M347.47897,277.76248c1.48236,0 2.75913,0.31379 3.83031,0.94136c1.082,0.62756 1.89352,1.41741 2.43452,2.36959c0.54101,0.95216 0.81151,1.87729 0.81151,2.77536c0,1.06037 -0.22722,2.02877 -0.68167,2.9052c-0.45445,0.87643 -1.13611,1.60138 -2.04499,2.17483c1.23349,0.57348 2.21812,1.38498 2.95387,2.43452c0.73577,1.04955 1.10366,2.22353 1.10366,3.52194c0,1.30923 -0.37329,2.5319 -1.11987,3.66802c-0.73577,1.12529 -1.74746,2.02336 -3.03505,2.69421c-1.28759,0.66001 -2.6942,0.99003 -4.21984,0.99003c-1.54726,0 -2.92683,-0.3246 -4.13868,-0.97382c-1.21185,-0.66001 -2.1532,-1.47693 -2.82405,-2.45073c-0.67085,-0.98463 -1.00627,-1.92598 -1.00627,-2.82405c0,-0.62757 0.26509,-1.15776 0.79527,-1.59056c0.53018,-0.43281 1.11448,-0.64921 1.75287,-0.64921c0.59509,0 1.21724,0.47608 1.86646,1.42826c0.66003,0.94136 1.15777,1.59056 1.49319,1.94762c0.34623,0.34625 1.05495,0.51937 2.12614,0.51937c0.57345,0 1.09822,-0.12984 1.57431,-0.38953c0.47609,-0.27051 0.85479,-0.6438 1.1361,-1.11989c0.28133,-0.47609 0.42199,-1.00627 0.42199,-1.59056c0,-1.0279 -0.24344,-1.7258 -0.73034,-2.09368c-0.48692,-0.3787 -1.21187,-0.63838 -2.17486,-0.77904c-0.95217,-0.14066 -1.65006,-0.33542 -2.09368,-0.58428c-0.4328,-0.25969 -0.6492,-0.82233 -0.6492,-1.68794c0,-0.77904 0.19476,-1.31464 0.58428,-1.60679c0.40034,-0.29213 0.99005,-0.541 1.76909,-0.74659c0.77904,-0.20559 1.36333,-0.46526 1.75285,-0.77903c0.40034,-0.31378 0.60052,-0.87643 0.60052,-1.68793c0,-0.63838 -0.2164,-1.16857 -0.64921,-1.59056c-0.4328,-0.42199 -1.01167,-0.63298 -1.73662,-0.63298c-0.71413,0 -1.27137,0.14066 -1.67172,0.42199c-0.40034,0.28132 -0.78986,0.69789 -1.16857,1.24971c-0.3787,0.55182 -0.7087,0.95758 -0.99003,1.21726c-0.27051,0.24886 -0.65463,0.37329 -1.15235,0.37329c-0.64921,0 -1.17398,-0.24345 -1.57431,-0.73037c-0.38952,-0.49772 -0.58428,-1.07659 -0.58428,-1.73662c0,-0.63838 0.20017,-1.27678 0.6005,-1.91517c0.40034,-0.6492 0.94676,-1.23347 1.63925,-1.75285c0.6925,-0.53018 1.47695,-0.94675 2.35337,-1.24972c0.88726,-0.31379 1.76909,-0.47068 2.64551,-0.47068z" fill="#ff0000" stroke="none" stroke-width="0.40889" stroke-linecap="butt"/><path d="M385.21531,281.71247c1.00389,0 1.86854,0.21251 2.59397,0.63751c0.73276,0.425 1.28234,0.9599 1.64871,1.60474c0.36638,0.64483 0.54957,1.27134 0.54957,1.87954c0,0.71811 -0.15388,1.37393 -0.46164,1.96747c-0.30777,0.59354 -0.7694,1.08449 -1.38491,1.47284c0.83535,0.38837 1.50216,0.93794 2.00043,1.64871c0.49828,0.71078 0.74742,1.50583 0.74742,2.38514c0,0.88664 -0.2528,1.71466 -0.7584,2.48406c-0.49828,0.76207 -1.18341,1.37027 -2.0554,1.82458c-0.87199,0.44697 -1.82457,0.67047 -2.85777,0.67047c-1.04784,0 -1.98212,-0.21982 -2.80281,-0.65949c-0.82069,-0.44697 -1.4582,-1.00021 -1.91251,-1.65969c-0.45431,-0.66681 -0.68147,-1.30432 -0.68147,-1.91251c0,-0.425 0.17953,-0.78406 0.53858,-1.07716c0.35905,-0.29311 0.75475,-0.43966 1.18708,-0.43966c0.40301,0 0.82434,0.32241 1.26401,0.96725c0.44698,0.63751 0.78407,1.07716 1.01122,1.31897c0.23447,0.23449 0.71444,0.35173 1.43987,0.35173c0.38836,0 0.74374,-0.08794 1.06616,-0.2638c0.32242,-0.18319 0.57889,-0.43599 0.76939,-0.75841c0.19052,-0.32242 0.28578,-0.68147 0.28578,-1.07716c0,-0.69612 -0.16486,-1.16875 -0.4946,-1.41789c-0.32975,-0.25647 -0.82071,-0.43233 -1.47287,-0.52759c-0.64483,-0.09526 -1.11746,-0.22715 -1.41789,-0.39568c-0.2931,-0.17587 -0.43966,-0.5569 -0.43966,-1.14311c0,-0.52759 0.1319,-0.89031 0.39569,-1.08816c0.27112,-0.19784 0.67048,-0.36638 1.19807,-0.50561c0.52759,-0.13923 0.92328,-0.31509 1.18707,-0.52758c0.27112,-0.2125 0.40668,-0.59354 0.40668,-1.14311c0,-0.43233 -0.14655,-0.79137 -0.43966,-1.07716c-0.2931,-0.28578 -0.68512,-0.42867 -1.17607,-0.42867c-0.48363,0 -0.86101,0.09525 -1.13213,0.28578c-0.27112,0.19052 -0.53491,0.47263 -0.79138,0.84634c-0.25647,0.37371 -0.47995,0.64849 -0.67047,0.82435c-0.18319,0.16854 -0.44333,0.2528 -0.78039,0.2528c-0.43966,0 -0.79505,-0.16487 -1.06616,-0.49462c-0.26379,-0.33707 -0.39568,-0.72909 -0.39568,-1.17608c0,-0.43233 0.13556,-0.86466 0.40667,-1.29699c0.27112,-0.43966 0.64116,-0.83533 1.11014,-1.18707c0.46898,-0.35905 1.00023,-0.64116 1.59376,-0.84634c0.60087,-0.21251 1.19807,-0.31876 1.7916,-0.31876z" fill="#00b3ff" stroke="none" stroke-width="0.40889" stroke-linecap="butt"/><path d="M397.32311,281.71248c1.00389,0 1.86854,0.21251 2.59397,0.63751c0.73276,0.425 1.28234,0.9599 1.64871,1.60474c0.36638,0.64482 0.54957,1.27134 0.54957,1.87954c0,0.7181 -0.15388,1.37393 -0.46164,1.96747c-0.30776,0.59354 -0.7694,1.08449 -1.38491,1.47284c0.83535,0.38837 1.50216,0.93794 2.00043,1.64871c0.49828,0.71078 0.74743,1.50582 0.74743,2.38514c0,0.88664 -0.25281,1.71466 -0.75841,2.48406c-0.49828,0.76207 -1.18341,1.37027 -2.0554,1.82458c-0.87199,0.44697 -1.82457,0.67047 -2.85777,0.67047c-1.04784,0 -1.98211,-0.21983 -2.80281,-0.6595c-0.82069,-0.44697 -1.4582,-1.0002 -1.91251,-1.65968c-0.45431,-0.66681 -0.68147,-1.30432 -0.68147,-1.91251c0,-0.425 0.17952,-0.78406 0.53857,-1.07716c0.35905,-0.29311 0.75476,-0.43966 1.18709,-0.43966c0.40301,0 0.82434,0.32241 1.26401,0.96725c0.44699,0.63751 0.78407,1.07716 1.01122,1.31897c0.23448,0.23448 0.71444,0.35173 1.43987,0.35173c0.38836,0 0.74374,-0.08793 1.06616,-0.2638c0.32242,-0.18319 0.57889,-0.436 0.76939,-0.75842c0.19052,-0.32242 0.28578,-0.68147 0.28578,-1.07716c0,-0.69612 -0.16486,-1.16875 -0.4946,-1.41789c-0.32975,-0.25647 -0.8207,-0.43233 -1.47286,-0.52758c-0.64483,-0.09525 -1.11746,-0.22717 -1.41789,-0.3957c-0.2931,-0.17587 -0.43966,-0.55689 -0.43966,-1.14311c0,-0.52759 0.13189,-0.89031 0.39569,-1.08816c0.27112,-0.19784 0.67048,-0.36638 1.19807,-0.50561c0.52759,-0.13923 0.92328,-0.31509 1.18707,-0.52758c0.27112,-0.2125 0.40669,-0.59354 0.40669,-1.14311c0,-0.43233 -0.14655,-0.79138 -0.43966,-1.07716c-0.2931,-0.28578 -0.68513,-0.42866 -1.17608,-0.42866c-0.48363,0 -0.861,0.09525 -1.13213,0.28578c-0.27112,0.19052 -0.53491,0.47263 -0.79139,0.84634c-0.25647,0.37371 -0.47994,0.64849 -0.67047,0.82435c-0.18319,0.16853 -0.44333,0.2528 -0.7804,0.2528c-0.43966,0 -0.79505,-0.16487 -1.06616,-0.49462c-0.2638,-0.33707 -0.39568,-0.72909 -0.39568,-1.17608c0,-0.43233 0.13556,-0.86466 0.40667,-1.29699c0.27112,-0.43966 0.64117,-0.83533 1.11014,-1.18707c0.46898,-0.35905 1.00023,-0.64116 1.59376,-0.84634c0.60087,-0.21251 1.19807,-0.31876 1.7916,-0.31876z" fill="#00b3ff" stroke="none" stroke-width="0.40889" stroke-linecap="butt"/><path d="M272,199.22251l30,-32" fill="none" stroke="#000000" stroke-width="1.5" stroke-linecap="round"/><path d="M274,173.22251l30,-8v22" fill="none" stroke="#000000" stroke-width="1.5" stroke-linecap="round"/></g></g></svg>