<svg version="1.1" xmlns="http://www.w3.org/2000/svg" xmlns:xlink="http://www.w3.org/1999/xlink" width="635.36519" height="96.0961" viewBox="0,0,635.36519,96.0961"><defs><linearGradient x1="240.12715" y1="302.80851" x2="240.12715" y2="352.19149" gradientUnits="userSpaceOnUse" id="color-1"><stop offset="0" stop-color="#ff4d4d"/><stop offset="1" stop-color="#ff0000"/></linearGradient><linearGradient x1="240.29349" y1="323.64184" x2="240.29349" y2="351.85813" gradientUnits="userSpaceOnUse" id="color-2"><stop offset="0" stop-color="#ff0000"/><stop offset="1" stop-color="#b30000"/></linearGradient></defs><g transform="translate(77.55545,-267.08708)"><g data-paper-data="{&quot;isPaintingLayer&quot;:true}" fill-rule="nonzero" stroke="#000000" stroke-width="0" stroke-linecap="butt" stroke-linejoin="miter" stroke-miterlimit="10" stroke-dasharray="" stroke-dashoffset="0" style="mix-blend-mode: normal"><path d="M-77.55545,363.18318v-96.0961h635.36519v96.0961z" fill="none"/><path d="M480.14683,302.80851c0,0 -0.998,6.70143 -0.998,12.54133c0,4.50044 0.998,7.81236 0.998,11.33334c0,3.36352 0.66534,7.48158 0.66534,12c0,6.71489 -0.66534,13.50831 -0.66534,13.50831h-480.03937c0,0 1.33068,-6.64562 1.33068,-12.84165c0,-5.11782 -1.33067,-9.50525 -1.33067,-13.33333c0,-3.11496 -0.998,-7.00759 -0.998,-11c0,-6.22087 0.998,-12.208 0.998,-12.208z" data-paper-data="{&quot;index&quot;:null}" fill="url(#color-1)"/><path d="M479.98051,326.95968c0,0 1.35364,8.81083 1.35364,13.05683c0,4.04359 -1.02098,11.84162 -1.02098,11.84162h-480.03937c0,0 0.68065,-8.43557 0.68065,-12.66251c0,-4.23918 -0.68065,-12.73594 -0.68065,-12.73594c0,0 12.70317,2.11558 51.71396,1.93096c13.10076,-0.062 38.20305,-3.33572 53.89389,-3.25098c13.14764,0.07101 29.04086,4.00157 43.42001,3.89717c21.43224,-0.1556 43.33697,-5.18191 66.19349,-5.18896c13.34242,-0.00411 37.02303,3.12455 50.22976,3.07923c25.79827,-0.08853 47.23444,-3.22526 70.19883,-3.19097c20.98904,0.03134 42.47643,5.32035 58.6984,5.22341c18.7395,-0.11199 43.29104,-5.3177 51.91028,-5.3177c8.61924,0 33.78076,3.31785 33.78076,3.31785z" data-paper-data="{&quot;index&quot;:null}" fill="url(#color-2)"/></g></g></svg>