<svg version="1.1" xmlns="http://www.w3.org/2000/svg" xmlns:xlink="http://www.w3.org/1999/xlink" width="65.59774" height="65.59774" viewBox="0,0,65.59774,65.59774"><defs><radialGradient cx="240.00001" cy="180" r="32.79887" gradientUnits="userSpaceOnUse" id="color-1"><stop offset="0" stop-color="#000000"/><stop offset="1" stop-color="#000000" stop-opacity="0"/></radialGradient><linearGradient x1="226.52179" y1="200.52665" x2="226.52179" y2="155.76554" gradientUnits="userSpaceOnUse" id="color-2"><stop offset="0" stop-color="#800000"/><stop offset="1" stop-color="#ff3737"/></linearGradient><linearGradient x1="221.26981" y1="188.99232" x2="221.26981" y2="204.79566" gradientUnits="userSpaceOnUse" id="color-3"><stop offset="0" stop-color="#656565"/><stop offset="1" stop-color="#000000"/></linearGradient></defs><g transform="translate(-207.20113,-147.20113)"><g data-paper-data="{&quot;isPaintingLayer&quot;:true}" fill-rule="nonzero" stroke-linejoin="miter" stroke-miterlimit="10" stroke-dasharray="" stroke-dashoffset="0" style="mix-blend-mode: normal"><path d="M207.20113,180c0,-18.11432 14.68456,-32.79887 32.79887,-32.79887c18.11432,0 32.79887,14.68456 32.79887,32.79887c0,18.11432 -14.68456,32.79887 -32.79887,32.79887c-18.11432,0 -32.79887,-14.68456 -32.79887,-32.79887z" fill="url(#color-1)" stroke="#000000" stroke-width="0" stroke-linecap="butt"/><path d="M216.97817,179.1815c0,-13.21912 10.71622,-23.93534 23.93534,-23.93534c13.21912,0 23.93534,10.71622 23.93534,23.93534c0,13.21912 -10.71622,23.93534 -23.93534,23.93534c-13.21912,0 -23.93534,-10.71622 -23.93534,-23.93534z" fill="#ff5454" stroke="#000000" stroke-width="0" stroke-linecap="butt"/><path d="M240.32446,193.79784c0,0 15.51835,8.20444 9.16508,8.20444c-1.26937,0 -4.43452,2.27613 -8.92772,2.14886c-5.32369,-0.1508 -12.18516,-2.88101 -15.33237,-5.49391c-5.87944,-4.88125 -8.81669,-14.29073 -8.81669,-20.51114c0,-3.77852 1.15176,-8.1956 3.32021,-11.9368c1.09566,-1.89033 7.93013,-12.36199 7.93013,-12.36199l2.59664,2.84214l3.60169,-5.38243l2.41321,4.74745l2.49894,-6.10103l4.43463,5.34894c0,0 -3.90587,12.98575 -3.92829,22.84372c-0.02242,9.85797 1.04454,15.65175 1.04454,15.65175z" fill="url(#color-2)" stroke="none" stroke-width="0" stroke-linecap="butt"/><path d="M251.32375,179.167c4.64512,0 8.41073,1.77418 8.41073,3.96275c0,2.18857 -3.76561,3.96274 -8.41073,3.96274c-4.64512,0 -4.52885,-1.77417 -4.52885,-3.96274c0,-2.18857 -0.11626,-3.96275 4.52885,-3.96275z" fill="#000000" stroke="none" stroke-width="0" stroke-linecap="butt"/><path d="M250.98618,168.50593c4.64512,0 8.41072,1.77418 8.41072,3.96274c0,2.18857 -3.76561,3.96275 -8.41072,3.96275c-4.64512,0 -8.41072,-1.77418 -8.41072,-3.96275c0,-2.18857 3.76561,-3.96274 8.41072,-3.96274z" fill="#000000" stroke="none" stroke-width="0" stroke-linecap="butt"/><path d="M250.19154,188.70993h-3.72013c0,0 0,-3.5451 0,-5.33757c0,-1.81942 0,-5.49931 0,-5.49931h3.72013z" fill="#ff5454" stroke="none" stroke-width="0" stroke-linecap="butt"/><path d="M261.95085,182.24015l-2.58792,6.95502" fill="none" stroke="#000000" stroke-width="1.5" stroke-linecap="round"/><path d="M217.6195,185.20603c1.65703,-1.25397 6.23241,2.00046 10.21939,7.26897c3.98698,5.26851 5.87578,10.55603 4.21875,11.81c-1.65703,1.25397 -6.23241,-2.00046 -10.21939,-7.26897c-3.98698,-5.26851 -5.87578,-10.55603 -4.21875,-11.81z" fill="#000000" stroke="#b38200" stroke-width="0" stroke-linecap="butt"/><path d="M217.40742,189.7221c3.01665,-2.28287 4.89678,1.19479 7.66194,4.84875c2.76517,3.65397 5.06053,6.33344 2.04388,8.61631c-3.01665,2.28287 -8.97206,2.37317 -11.73723,-1.2808c-2.76517,-3.65397 -0.98525,-9.90139 2.0314,-12.18426z" fill="url(#color-3)" stroke="none" stroke-width="0" stroke-linecap="butt"/></g></g></svg>