<svg version="1.1" xmlns="http://www.w3.org/2000/svg" xmlns:xlink="http://www.w3.org/1999/xlink" width="118.51887" height="83.69938" viewBox="0,0,118.51887,83.69938"><defs><linearGradient x1="287.76795" y1="180.00003" x2="183.33099" y2="180.00003" gradientUnits="userSpaceOnUse" id="color-1"><stop offset="0" stop-color="#ff2929"/><stop offset="1" stop-color="#f30000"/></linearGradient><radialGradient cx="211.07804" cy="196.08946" r="23.05454" gradientUnits="userSpaceOnUse" id="color-2"><stop offset="0" stop-color="#ff0000"/><stop offset="1" stop-color="#ff0000" stop-opacity="0"/></radialGradient><radialGradient cx="212.16187" cy="165.08602" r="23.05454" gradientUnits="userSpaceOnUse" id="color-3"><stop offset="0" stop-color="#ff0000"/><stop offset="1" stop-color="#ff0000" stop-opacity="0"/></radialGradient><radialGradient cx="260.00016" cy="179.99996" r="41.84969" gradientUnits="userSpaceOnUse" id="color-4"><stop offset="0" stop-color="#ff0000"/><stop offset="1" stop-color="#ff0000" stop-opacity="0"/></radialGradient><linearGradient x1="249.18558" y1="180.10509" x2="229.10249" y2="180.02243" gradientUnits="userSpaceOnUse" id="color-5"><stop offset="0" stop-color="#000000" stop-opacity="0"/><stop offset="1" stop-color="#000000" stop-opacity="0.08235"/></linearGradient></defs><g transform="translate(-183.33098,-138.15028)"><g data-paper-data="{&quot;isPaintingLayer&quot;:true}" fill-rule="nonzero" stroke-width="0" stroke-linecap="butt" stroke-linejoin="miter" stroke-miterlimit="10" stroke-dasharray="" stroke-dashoffset="0" style="mix-blend-mode: normal"><path d="M212.48427,153.29591c12.95586,0.27546 16.73621,7.24881 23.6413,6.95344c4.89298,-0.12672 5.31764,-4.38914 12.81916,-8.37045c10.5138,-5.58003 22.96074,-0.26277 27.24861,3.36003c4.28787,3.6228 11.85258,10.95406 11.56676,24.91442c-0.26942,13.15945 -6.68393,20.79843 -12.13794,25.33751c-5.52335,4.59677 -18.16253,7.14321 -27.05122,2.85924c-10.74464,-5.17845 -7.78142,-8.30001 -13.77849,-8.34807c-5.99707,-0.04805 -11.79995,7.0741 -21.40472,7.7961c-5.66743,0.42603 -14.30091,-8.21198 -21.28022,-12.00213c-3.98344,-2.16323 -8.77652,-0.38738 -8.77652,-0.38738c0,0 3.40773,-4.50916 8.67792,-6.97657c6.27258,-2.93671 14.87105,-3.91843 19.16101,-3.98729c7.89437,-0.12671 15.08447,4.86652 15.08447,4.86652l-3.89915,-8.87103l4.39579,-8.76078c0,0 -7.08361,5.35142 -15.97438,4.81058c-5.36557,-0.3264 -13.46861,-1.87132 -19.35869,-4.80896c-4.31037,-2.14978 -7.43561,-5.97434 -7.43561,-5.97434c0,0 4.01804,0.93836 7.63894,-1.07711c6.65827,-3.70613 15.54569,-11.44678 20.86298,-11.33373z" data-paper-data="{&quot;index&quot;:null}" fill="url(#color-1)" stroke="none"/><path d="M211.07804,219.14399c-12.73267,0 -23.05454,-10.32187 -23.05454,-23.05453c0,-12.73267 10.32188,-23.05454 23.05454,-23.05454c12.73267,0 23.05454,10.32188 23.05454,23.05454c0,12.73267 -10.32188,23.05453 -23.05454,23.05453z" data-paper-data="{&quot;index&quot;:null}" fill="url(#color-2)" stroke="#000000"/><path d="M212.16187,188.14059c-12.73267,0 -23.05454,-10.32187 -23.05454,-23.05453c0,-12.73267 10.32188,-23.05454 23.05454,-23.05454c12.73267,0 23.05454,10.32188 23.05454,23.05454c0,12.73267 -10.32188,23.05453 -23.05454,23.05453z" data-paper-data="{&quot;index&quot;:null}" fill="url(#color-3)" stroke="#000000"/><path d="M260.00016,221.84966c-23.11295,0 -41.84969,-18.73675 -41.84969,-41.84969c0,-23.11295 18.73675,-41.84969 41.84969,-41.84969c23.11295,0 41.84969,18.73675 41.84969,41.84969c0,23.11295 -18.73675,41.84969 -41.84969,41.84969z" data-paper-data="{&quot;index&quot;:null}" fill="url(#color-4)" stroke="#000000"/><path d="M230.49011,192.37466c-2.07748,-3.00392 4.22271,-11.8527 4.22271,-11.8527c0,0 -6.52075,-8.42316 -5.3994,-11.36778c1.43161,-3.75935 3.97519,-6.1468 8.20594,-6.12938c4.86767,0.02004 9.13091,1.25299 11.5119,6.04162c1.30944,2.63352 -3.32128,11.2626 -3.32128,11.2626c0,0 4.98763,8.64472 3.32751,11.44667c-2.51748,4.24903 -6.5541,5.33411 -11.10063,5.31539c-4.54651,-0.01872 -7.44677,-4.71642 -7.44677,-4.71642z" data-paper-data="{&quot;index&quot;:null}" fill="url(#color-5)" stroke="none"/></g></g></svg>