<svg version="1.1" xmlns="http://www.w3.org/2000/svg" xmlns:xlink="http://www.w3.org/1999/xlink" width="85.8" height="85.8" viewBox="0,0,85.8,85.8"><defs><radialGradient cx="239.38023" cy="180" r="38.27458" gradientUnits="userSpaceOnUse" id="color-1"><stop offset="0" stop-color="#ffe600"/><stop offset="1" stop-color="#ffe600" stop-opacity="0"/></radialGradient></defs><g transform="translate(-197.1,-137.1)"><g data-paper-data="{&quot;isPaintingLayer&quot;:true}" fill-rule="nonzero" stroke-linecap="butt" stroke-linejoin="miter" stroke-miterlimit="10" stroke-dasharray="" stroke-dashoffset="0" style="mix-blend-mode: normal"><path d="M201.10566,180c0,-21.13847 17.13611,-38.27458 38.27458,-38.27458c21.13847,0 38.27458,17.13611 38.27458,38.27458c0,21.13847 -17.13611,38.27458 -38.27458,38.27458c-21.13847,0 -38.27458,-17.13611 -38.27458,-38.27458z" fill="url(#color-1)" stroke="none" stroke-width="0"/><path d="M223.84606,175.23835l9.90399,-1.36546c1.82142,-0.25113 3.19335,0.02375 4.11577,0.82459c0.91982,0.78187 1.51181,2.13095 1.776,4.04723c0.38714,2.80802 0.30094,5.4783 -0.25857,8.01085c-0.54054,2.52991 -1.5227,4.8017 -2.94646,6.81537c-1.4074,1.99209 -3.22889,3.64491 -5.4645,4.95849c-2.21664,1.31097 -4.75745,2.16392 -7.62241,2.55891c-3.87053,0.53363 -7.46259,0.07184 -10.77622,-1.38534c-3.29729,-1.47877 -6.02599,-3.74163 -8.18611,-6.78856c-2.14114,-3.04955 -3.48506,-6.557 -4.03176,-10.52239c-0.41592,-3.01674 -0.32056,-5.90093 0.28609,-8.65263c0.60665,-2.7517 1.66699,-5.2276 3.18104,-7.42773c1.53302,-2.20274 3.45005,-4.00406 5.7511,-5.40401c2.29843,-1.41892 4.91806,-2.33109 7.8589,-2.73653c2.16294,-0.29819 4.2637,-0.34614 6.30231,-0.14388c2.05758,0.19967 3.86096,0.58904 5.41015,1.16814c1.56817,0.57648 2.8377,1.30047 3.80854,2.17198c0.97084,0.87152 1.52558,1.81005 1.66422,2.81562c0.17002,1.23327 -0.04494,2.26825 -0.64495,3.10499c-0.58101,0.83412 -1.38379,1.3218 -2.40834,1.46306c-1.0625,0.1465 -2.39778,-0.14309 -4.00586,-0.86873c-1.59172,-0.74724 -2.94205,-1.28611 -4.05096,-1.61656c-1.10891,-0.33045 -2.76381,-0.34399 -4.96471,-0.04055c-2.31473,0.31913 -4.22188,1.21043 -5.72149,2.67386c-1.48324,1.44186 -2.50233,3.2354 -3.05725,5.38062c-0.55493,2.14521 -0.66497,4.43212 -0.33015,6.86068c0.52578,3.8136 1.9044,6.8716 4.13589,9.17401c2.25044,2.29977 5.14018,3.2064 8.66918,2.71987c1.63168,-0.22495 3.16199,-0.76462 4.59089,-1.61898c1.42892,-0.85435 2.5317,-2.04076 3.30837,-3.5592c0.77669,-1.51845 1.02114,-3.32118 0.7334,-5.40822l-5.91961,0.81614c-1.19529,0.1648 -2.23292,-0.06915 -3.11285,-0.70188c-0.86356,-0.6543 -1.37903,-1.58858 -1.54644,-2.80285c-0.16218,-1.17634 0.09598,-2.17863 0.77447,-3.00686c0.69487,-0.84982 1.62095,-1.35451 2.77832,-1.51408z" fill="#ffe600" stroke="#ff8a00" stroke-width="2.5"/><path d="M265.85571,178.38825l9.81969,1.87803c1.80591,0.34537 3.01759,1.04512 3.63496,2.09918c0.62099,1.03525 0.7498,2.50285 0.38643,4.40284c-0.53248,2.78413 -1.46924,5.28618 -2.8103,7.50616c-1.32224,2.22357 -2.98018,4.06121 -4.9738,5.51291c-1.9712,1.43648 -4.22607,2.41896 -6.76461,2.94744c-2.51971,0.53208 -5.19988,0.52648 -8.04044,-0.0168c-3.83757,-0.73395 -7.0926,-2.32171 -9.76511,-4.76332c-2.65009,-2.4568 -4.51046,-5.47431 -5.58108,-9.05255c-1.05181,-3.57463 -1.20176,-7.32773 -0.44983,-11.25938c0.57204,-2.99105 1.586,-5.69284 3.0419,-8.10537c1.45588,-2.41253 3.25326,-4.41848 5.39214,-6.01789c2.15768,-1.59581 4.55061,-2.68838 7.17877,-3.27772c2.63178,-0.60817 5.40558,-0.6334 8.32137,-0.07574c2.14452,0.41015 4.15003,1.03747 6.01649,1.88192c1.88528,0.84806 3.46901,1.79443 4.75118,2.83914c1.30097,1.0483 2.27179,2.1407 2.91243,3.27721c0.64061,1.13652 0.86561,2.20327 0.67492,3.20027c-0.23386,1.22275 -0.76896,2.13441 -1.6053,2.73494c-0.81753,0.60413 -1.7342,0.80906 -2.75002,0.61478c-1.05346,-0.20146 -2.22569,-0.9034 -3.51671,-2.10579c-1.2686,-1.21761 -2.37526,-2.16052 -3.31996,-2.82867c-0.9447,-0.66817 -2.50811,-1.21095 -4.69028,-1.62828c-2.29503,-0.43893 -4.38718,-0.20532 -6.27645,0.70085c-1.86687,0.89095 -3.40664,2.26368 -4.61929,4.11822c-1.21268,1.85454 -2.04926,3.98576 -2.50978,6.39365c-0.72315,3.78115 -0.39641,7.11957 0.98025,10.01534c1.39548,2.89934 3.84269,4.68362 7.34165,5.35279c1.61781,0.3094 3.24032,0.28823 4.86758,-0.06356c1.62726,-0.35178 3.05192,-1.12255 4.27392,-2.31231c1.22205,-1.18976 2.03093,-2.81929 2.42669,-4.88855l-5.86922,-1.12251c-1.18512,-0.22667 -2.0932,-0.78058 -2.72416,-1.66175c-0.60857,-0.89639 -0.79771,-1.94652 -0.56743,-3.15048c0.22306,-1.16632 0.7886,-2.03315 1.69659,-2.60048c0.9304,-0.58256 1.96934,-0.7641 3.11686,-0.54463z" fill="#ffe600" stroke="#ff8a00" stroke-width="2.5"/><path d="M197.1,222.9v-85.8h85.8v85.8z" fill="none" stroke="none" stroke-width="0"/></g></g></svg>