<svg version="1.1" xmlns="http://www.w3.org/2000/svg" xmlns:xlink="http://www.w3.org/1999/xlink" width="287.07685" height="155" viewBox="0,0,287.07685,155"><defs><radialGradient cx="177.42315" cy="216.8761" r="77.5" gradientUnits="userSpaceOnUse" id="color-1"><stop offset="0" stop-color="#000000" stop-opacity="0.51765"/><stop offset="1" stop-color="#000000" stop-opacity="0"/></radialGradient><linearGradient x1="175" y1="213.25" x2="412.5" y2="213.25" gradientUnits="userSpaceOnUse" id="color-2"><stop offset="0" stop-color="#ecff3d" stop-opacity="0.45098"/><stop offset="1" stop-color="#ecff3d" stop-opacity="0"/></linearGradient><linearGradient x1="193.71208" y1="138.77811" x2="193.71208" y2="287.24127" gradientUnits="userSpaceOnUse" id="color-3"><stop offset="0" stop-color="#feff3d"/><stop offset="1" stop-color="#b6c52f"/></linearGradient><radialGradient cx="198.4823" cy="228.73627" r="28.95628" gradientUnits="userSpaceOnUse" id="color-4"><stop offset="0" stop-color="#ffffff"/><stop offset="1" stop-color="#f1f1f1"/></radialGradient><linearGradient x1="194.07679" y1="172.48525" x2="194.07679" y2="288.39418" gradientUnits="userSpaceOnUse" id="color-5"><stop offset="0" stop-color="#690000" stop-opacity="0"/><stop offset="1" stop-color="#690000" stop-opacity="0.13725"/></linearGradient><radialGradient cx="287.57139" cy="184.71469" r="5.5832" gradientUnits="userSpaceOnUse" id="color-6"><stop offset="0" stop-color="#b6c52f"/><stop offset="1" stop-color="#edff3e"/></radialGradient><radialGradient cx="300.81186" cy="195.45007" r="34.21501" gradientUnits="userSpaceOnUse" id="color-7"><stop offset="0" stop-color="#000cff"/><stop offset="1" stop-color="#000cff" stop-opacity="0"/></radialGradient><radialGradient cx="288.22103" cy="162.73072" r="7.90648" gradientUnits="userSpaceOnUse" id="color-8"><stop offset="0" stop-color="#ffffff"/><stop offset="1" stop-color="#ffffff" stop-opacity="0"/></radialGradient><radialGradient cx="342.94136" cy="209.53683" r="6.65648" gradientUnits="userSpaceOnUse" id="color-9"><stop offset="0" stop-color="#ffffff"/><stop offset="1" stop-color="#ffffff" stop-opacity="0"/></radialGradient><radialGradient cx="276.39421" cy="232.82467" r="7.40648" gradientUnits="userSpaceOnUse" id="color-10"><stop offset="0" stop-color="#ffffff"/><stop offset="1" stop-color="#ffffff" stop-opacity="0"/></radialGradient></defs><g transform="translate(-99.92315,-139.3761)"><g data-paper-data="{&quot;isPaintingLayer&quot;:true}" fill-rule="nonzero" stroke-linecap="butt" stroke-linejoin="miter" stroke-miterlimit="10" stroke-dasharray="" stroke-dashoffset="0" style="mix-blend-mode: normal"><path d="M99.92315,216.8761c0,-42.80207 34.69793,-77.5 77.5,-77.5c42.80207,0 77.5,34.69793 77.5,77.5c0,42.80207 -34.69793,77.5 -77.5,77.5c-42.80207,0 -77.5,-34.69793 -77.5,-77.5z" fill="url(#color-1)" stroke="none" stroke-width="0"/><path d="M175,272l-16.5,-78c0,0 37.74926,-40.83733 98.72346,-39.9471c85.77033,1.25225 129.77654,89.44711 129.77654,89.44711c0,0 -55.98102,-2.83679 -95.5,-1.5c-59.12491,2 -116.5,30 -116.5,30z" fill="url(#color-2)" stroke="#000a31" stroke-width="0"/><path d="M243.94535,206.41294c0,0 2.29837,-4.71445 3.77075,-9.80384c1.68726,-5.83217 2.62712,-12.27995 3.51294,-14.78438c0.84074,-2.37697 3.40977,-5.87542 3.40977,-5.87542c0,0 1.92718,-2.26441 3.55954,-2.94228c1.84319,-0.76542 6.94414,-1.41959 6.94414,-1.41959l-1.74379,13.44152l-6.13443,20.73518z" fill="#e9f674" stroke="none" stroke-width="0"/><path d="M264.45045,190.34715c0.25559,-0.86392 1.16311,-1.35705 2.02702,-1.10147c0.86391,0.25558 1.35705,1.16311 1.10147,2.02702c-0.25559,0.86392 -1.16311,1.35704 -2.02701,1.10146c-0.86391,-0.25558 -1.35705,-1.1631 -1.10147,-2.02701z" fill="#b8c730" stroke="none" stroke-width="0"/><path d="M112.37684,272.65654c0,0 -6.43192,-5.75339 -5.53297,-14.62543c0.77496,-7.64827 3.64365,-24.78042 7.77376,-41.45253c4.13011,-16.67211 17.20698,-25.43407 27.3352,-33.45414c5.35577,-4.24099 11.50851,-2.74921 12.76684,-0.17287c1.32921,2.72149 5.14963,6.38885 5.99317,8.11593c0.15145,0.31011 11.64413,-3.62448 16.7129,-4.60766c4.34441,-0.84269 11.15213,-11.40282 11.15213,-11.40282c0,0 8.60546,-12.93159 13.9922,-17.81306c9.8182,-8.89726 16.90781,-14.28581 20.66024,-14.7693c0.28125,-0.03624 9.71928,-0.56319 12.51223,-0.31996c8.43165,0.73427 19.23209,11.28427 19.23209,11.28427c0,0 0.35182,4.17965 0.13599,6.65841c-0.16383,1.88154 -1.3185,5.25598 -1.3185,5.25598c0,0 -2.9243,7.14066 -4.93508,9.93875c-1.27958,1.78058 -18.68898,-0.75405 -26.42317,3.67887c-9.35323,5.36088 -27.18041,12.4739 -27.18041,12.4739c0,0 19.5862,18.74438 19.69558,18.86766c0.17162,0.19339 5.48851,-0.46411 9.14136,-1.66276c1.75312,-0.57527 3.3473,-4.30238 3.3473,-4.30238c0,0 0.93693,1.22241 1.41735,2.69994c0.42255,1.29957 0.40164,2.84488 0.32963,3.25932c-0.1487,0.85578 -0.79931,2.82164 -0.79931,2.82164c0,0 5.08263,-1.52631 5.39474,-1.67257c5.78472,-2.71114 12.29727,-8.09762 16.07379,-11.96331c1.32356,-1.35481 2.31105,-2.52282 2.81337,-3.32342c0.38314,-0.61066 3.97784,-6.38219 6.97422,-11.57275c2.65085,-4.59203 5.63822,-13.26392 5.63822,-13.26392c0,0 6.67727,2.53947 8.69623,4.49041c2.10829,2.03727 5.33779,8.94255 5.33779,8.94255c0,0 1.56498,5.89694 1.32837,12.53308c-0.25892,7.2622 -2.46935,15.40811 -6.22396,17.64151c-5.20347,3.09523 -29.11481,5.97873 -42.89219,13.96133c-14.67468,8.50251 -14.52141,22.27392 -14.52141,22.27392c0,0 1.48097,2.61941 4.46459,4.03142c1.4005,0.66279 4.02975,3.04827 5.45756,5.41104c1.558,2.57822 1.85629,5.11959 1.85629,5.11959c0,0 0.79197,2.37625 -0.8089,4.50937c-1.16888,1.55748 -4.45823,2.80926 -6.08015,3.7835c-8.31165,4.99252 -20.79786,8.25804 -20.79786,8.25804c0,0 -25.62412,6.20459 -39.25141,4.72519c-8.0638,-0.87541 -24.9147,-2.03397 -35.50768,-5.49532c-9.98102,-3.26139 -13.96003,-8.8613 -13.96003,-8.8613z" data-paper-data="{&quot;index&quot;:null}" fill="url(#color-3)" stroke="none" stroke-width="0"/><path d="M266.03513,198.89768c0.53494,-1.80818 2.4344,-2.84031 4.24256,-2.30538c1.80816,0.53494 2.84033,2.43441 2.30539,4.24257c-0.53494,1.80818 -2.4344,2.84031 -4.24258,2.30537c-1.80816,-0.53494 -2.84032,-2.43439 -2.30538,-4.24256z" fill="#cbcbcb" stroke="none" stroke-width="0"/><path d="M202.90228,188.47757l18.38372,-11.29598c0,0 7.52491,-9.48731 10.44729,-11.65306c1.40286,-1.03964 5.44651,-4.02956 9.89875,-6.11238c3.19034,-1.49247 7.36012,-2.38385 7.36012,-2.38385c0,0 3.86748,0.13872 4.74748,0.95643c1.08624,1.00936 1.28251,4.6467 1.28251,4.6467c0,0 -1.1189,4.2767 -2.17363,6.36714c-1.15884,2.29679 -4.00986,6.89136 -4.00986,6.89136c0,0 -2.21362,0.60454 -4.86582,0.81669c-5.12268,0.40978 -13.57232,0.50468 -17.68376,1.66538c-3.10435,0.8764 -6.68379,3.03915 -10.55212,4.7463c-6.44749,2.84538 -12.83466,5.35527 -12.83466,5.35527z" fill="#e9f674" stroke="none" stroke-width="0"/><path d="M245.69427,169.49736c0.27659,-0.93491 1.25871,-1.46859 2.19362,-1.192c0.93491,0.27659 1.46859,1.25871 1.192,2.19362c-0.27659,0.93491 -1.25871,1.46859 -2.19362,1.192c-0.93491,-0.27659 -1.46859,-1.25871 -1.192,-2.19362z" fill="#d7e36b" stroke="none" stroke-width="0"/><path d="M236.88566,166.57172c0.45772,-1.54714 2.08297,-2.43029 3.63012,-1.97258c1.54714,0.45772 2.43029,2.08297 1.97258,3.63012c-0.45772,1.54714 -2.08297,2.43029 -3.63011,1.97257c-1.54714,-0.45772 -2.4303,-2.08296 -1.97258,-3.63011z" fill="#d7e36b" stroke="none" stroke-width="0"/><path d="M193.59502,190.97992c0,0 -1.73236,-4.06397 -0.27379,-5.75707c0.56883,-0.66029 4.89775,-1.0877 6.0656,-1.99165c1.60107,-1.23925 2.8153,-2.1154 2.8153,-2.1154c0,0 1.47612,-0.41616 2.22892,-0.36717c0.9646,0.06279 3.08241,0.71286 3.08241,0.71286c0,0 -1.73392,3.35062 -2.62462,4.27006c-0.92607,0.95597 -0.86024,4.07125 -0.86024,4.07125c0,0 2.93829,-2.00604 5.08782,-2.46505c2.23988,-0.47831 5.49332,-0.08938 5.49332,-0.08938c0,0 -2.51422,3.00345 -3.4703,4.60832c-0.97951,1.6442 -2.33817,5.14176 -2.33817,5.14176c0,0 3.0856,-0.6107 4.97001,-1.82287c1.94088,-1.2485 4.53052,-4.74521 4.59102,-4.59779c0.1875,0.45692 1.0595,7.04715 -0.94373,9.01682c-1.53478,1.50907 -2.57947,4.67439 -2.57947,4.67439c0,0 2.85665,-0.26747 4.84514,-1.52186c1.90745,-1.20327 6.31328,-6.33362 6.31328,-6.33362c0,0 0.28148,5.97169 -0.53721,7.98673c-1.42483,3.50698 -6.72993,11.70425 -6.72993,11.70425z" fill="#dced3a" stroke="none" stroke-width="0"/><path d="M268.5891,183.46151c0.38833,-1.31259 1.7672,-2.06186 3.07979,-1.67353c1.31259,0.38833 2.06186,1.76719 1.67353,3.07979c-0.38833,1.31259 -1.7672,2.06186 -3.07979,1.67353c-1.31259,-0.38833 -2.06186,-1.76721 -1.67353,-3.07979z" fill="#cbcbcb" stroke="none" stroke-width="0"/><path d="M276.0561,193.89617c0.27737,-0.93756 1.26229,-1.47275 2.19985,-1.19537c0.93756,0.27737 1.47275,1.26229 1.19538,2.19984c-0.27737,0.93756 -1.26228,1.47275 -2.19984,1.19538c-0.93756,-0.27737 -1.47276,-1.26229 -1.19538,-2.19984z" fill="#cbcbcb" stroke="none" stroke-width="0"/><path d="M231.30203,146.34656c0.42892,-1.44979 2.77699,-2.82451 4.22679,-2.3956c1.44979,0.42892 2.11411,1.11238 1.6852,2.56217c-0.42892,1.44979 -2.48318,2.52714 -3.93298,2.09822c-1.44979,-0.42892 -2.40792,-0.815 -1.979,-2.26479z" fill="#cbcbcb" stroke="none" stroke-width="0"/><path d="M245.85793,150.66425c0.268,-0.90588 1.21961,-1.42299 2.1255,-1.15499c0.90588,0.268 1.42299,1.21962 1.15498,2.1255c-0.268,0.90588 -1.21962,1.42299 -2.1255,1.15498c-0.90588,-0.268 -1.42298,-1.21961 -1.15497,-2.1255z" fill="#cbcbcb" stroke="none" stroke-width="0"/><g stroke="none" stroke-width="0"><path d="M159.2054,194.56755c5.54776,-3.00502 15.86506,-7.65448 22.82461,-2.40887c0.11156,0.0841 1.6639,1.77929 1.77294,1.86603c6.17624,4.91317 6.39227,14.52837 6.39227,14.52837c0,0 14.04626,6.47399 17.33733,12.32172c3.73676,6.63962 -3.11101,12.24936 -8.78644,15.32354c-3.4197,1.85233 -5.91079,2.76474 -10.33471,2.53016c-2.50637,-0.13289 -6.08343,-0.05662 -8.70335,-1.31932c-0.73716,-0.35528 -2.7055,-1.40079 -3.61716,-2.70852c-1.64891,-2.36526 -2.22875,-5.62244 -2.74495,-7.44704c-0.80361,-2.84048 -3.49879,-6.54524 -3.49879,-6.54524c0,0 -2.53241,-2.83104 -5.4254,-3.98594c-2.73943,-1.09361 -8.4359,-4.95909 -8.4359,-4.95909c0,0 -2.42803,-2.1208 -3.58643,-4.51247c-1.10189,-2.27498 -0.74105,-1.16249 -0.52404,-2.52044c0.90822,-5.68297 2.55957,-7.57888 7.33002,-10.16287z" fill="#000000"/><path d="M159.50477,196.96872c5.13009,-2.77878 11.08851,-7.23079 17.52406,-2.38012c0.04803,0.03619 3.92318,3.31284 6.49284,6.79772c2.95044,4.00127 -1.0079,7.81685 -1.0079,7.81685c0,0 9.63249,3.05121 13.56592,6.59167c2.83427,2.55111 5.64519,5.77456 6.91971,8.03918c3.45542,6.13975 -1.8137,8.39938 -7.06186,11.24212c-3.16225,1.71287 -4.9373,2.297 -9.02816,2.0801c-2.31768,-0.1229 -5.62542,-0.05236 -8.0481,-1.22c-1.91458,-0.92275 -2.25616,-2.87482 -2.25616,-2.87482c0,0 -2.75041,-3.74268 -3.49166,-6.36276c-0.74311,-2.62663 -2.76477,-6.26225 -2.76477,-6.26225c0,0 -2.81235,-2.40811 -5.48752,-3.47607c-2.53318,-1.01128 -7.80076,-4.58571 -7.80076,-4.58571c0,0 -2.24523,-1.96112 -3.31642,-4.17274c-1.01893,-2.1037 -0.53474,-2.07017 -0.53474,-2.07017c0,0 -0.20287,-2.21745 0.7588,-4.14178c1.00827,-2.01756 3.27889,-3.7982 5.53671,-5.02118z" fill="url(#color-4)"/><path d="M182.31895,210.6853c-1.49141,0.80784 -3.19165,1.2298 -4.89475,1.29206c-0.98745,0.0361 -2.73903,-0.94481 -4.9045,-2.25733c-2.24725,-1.3621 -4.89209,-3.05833 -4.89209,-3.05833c0,0 -0.48439,-1.72852 0.33594,-3.41655c0.89168,-1.83492 3.11425,-3.6526 3.66324,-3.94996c4.14062,-2.24283 9.89077,-1.51122 12.84334,1.63407c2.95257,3.14529 1.98945,7.51323 -2.15117,9.75605z" fill="#000000"/><path d="M200.91551,216.75575c2.95256,3.1453 1.98944,7.51323 -2.15117,9.75606c-0.54898,0.29736 -3.53546,1.30125 -6.10977,1.34373c-2.36823,0.03908 -4.36171,-0.87202 -4.36171,-0.87202c0,0 -1.24932,-2.45213 -2.21233,-4.50985c-0.92795,-1.98283 -1.57808,-3.56038 -1.21138,-4.25778c0.63243,-1.20282 1.71159,-2.28637 3.203,-3.09421c4.14062,-2.24283 9.89079,-1.51123 12.84335,1.63407z" data-paper-data="{&quot;index&quot;:null}" fill="#000000"/></g><path d="M236.49296,210.42226c2.99209,-1.63402 9.77835,-6.51441 9.77835,-6.51441c0,0 -4.22525,4.22102 -8.52069,7.87766c-2.75603,2.34616 -6.13791,4.30875 -6.48273,5.27369c-0.38777,1.08516 -0.2451,2.35434 -0.33114,3.66215c-0.10974,1.66806 -0.38592,3.27261 -0.38592,3.27261c0,0 -0.31516,1.10378 -0.57658,1.9322c-0.45693,1.44798 -1.92326,5.98968 -1.92326,5.98968c0,0 1.54071,-6.45348 1.62615,-9.31167c0.09789,-3.27426 -1.07104,-9.25585 -1.07104,-9.25585c0,0 6.51471,-2.17673 7.88685,-2.92606z" fill="#cada34" stroke="none" stroke-width="0"/><path d="M112.74155,273.80949c0,0 -6.43192,-5.75339 -5.53297,-14.62543c0.34616,-3.41629 19.6823,4.16793 47.60332,-5.4538c34.58742,-11.919 79.16023,-41.04068 79.33292,-41.12161c8.5919,-4.02679 13.84407,-7.24913 18.88716,-15.28673c0.38314,-0.61066 3.97784,-6.38219 6.97422,-11.57275c2.65085,-4.59203 5.63822,-13.26392 5.63822,-13.26392c0,0 6.67727,2.53947 8.69623,4.49041c2.10829,2.03727 5.33779,8.94255 5.33779,8.94255c0,0 1.56498,5.89694 1.32837,12.53308c-0.25892,7.2622 -2.46935,15.40811 -6.22396,17.64151c-5.20347,3.09523 -29.11481,5.97873 -42.89219,13.96133c-14.67468,8.50251 -14.52141,22.27392 -14.52141,22.27392c0,0 1.48097,2.61941 4.46459,4.03142c1.4005,0.66279 4.02975,3.04827 5.45756,5.41104c1.558,2.57822 1.85629,5.11959 1.85629,5.11959c0,0 0.79197,2.37625 -0.8089,4.50937c-1.16888,1.55748 -4.45823,2.80926 -6.08015,3.7835c-8.31165,4.99252 -20.79786,8.25804 -20.79786,8.25804c0,0 -25.62412,6.20459 -39.25141,4.72519c-8.0638,-0.87541 -24.9147,-2.03397 -35.50768,-5.49532c-9.98102,-3.26139 -13.96003,-8.8613 -13.96003,-8.8613z" data-paper-data="{&quot;index&quot;:null}" fill="url(#color-5)" stroke="none" stroke-width="0"/><path d="M292.73666,186.24281c-0.87477,2.95684 -3.89649,4.66965 -6.7492,3.82568c-2.3008,-0.68068 -6.14402,-0.38652 -6.17479,-2.7388c-0.00451,-0.34431 0.2065,-3.31254 0.95009,-4.36766c0.47501,-0.67401 5.5398,-4.44513 8.39251,-3.60116c2.85272,0.84397 4.45616,3.92512 3.58139,6.88194z" fill="url(#color-6)" stroke="none" stroke-width="0"/><path d="M277.28758,232.69799l0.93592,-7.95598l10.39987,-61.18664l53.24884,46.71664l-55.63305,19.31771z" fill="url(#color-7)" stroke="#0037bc" stroke-width="3.5"/><path d="M285.62145,155.26611c4.12259,-1.43569 8.62849,0.74247 10.0642,4.86505c1.4357,4.12261 -0.74248,8.62848 -4.86508,10.06417c-4.12259,1.43569 -8.62848,-0.74249 -10.06417,-4.86508c-1.43569,-4.12259 0.74247,-8.62846 4.86505,-10.06415z" fill="url(#color-8)" stroke="#9d9d9d" stroke-width="3.5"/><path d="M336.65688,211.72539c-1.20871,-3.47081 0.62509,-7.26433 4.09591,-8.47304c3.47083,-1.20872 7.26433,0.6251 8.47304,4.09591c1.20871,3.47081 -0.62509,7.26434 -4.0959,8.47305c-3.47083,1.20872 -7.26434,-0.62508 -8.47305,-4.09591z" fill="url(#color-9)" stroke="#9d9d9d" stroke-width="3.5"/><path d="M269.40165,235.25983c-1.3449,-3.86188 0.69551,-8.08283 4.55739,-9.42773c3.86188,-1.3449 8.08282,0.69552 9.42772,4.55741c1.3449,3.86188 -0.69551,8.08283 -4.5574,9.42774c-3.86188,1.3449 -8.08281,-0.69553 -9.42772,-4.55742z" fill="url(#color-10)" stroke="#9d9d9d" stroke-width="3.5"/></g></g></svg>