<svg version="1.1" xmlns="http://www.w3.org/2000/svg" xmlns:xlink="http://www.w3.org/1999/xlink" width="34.48259" height="34.48259" viewBox="0,0,34.48259,34.48259"><defs><radialGradient cx="240" cy="180" r="17.2413" gradientUnits="userSpaceOnUse" id="color-1"><stop offset="0" stop-color="#ff0000"/><stop offset="1" stop-color="#ff0000" stop-opacity="0"/></radialGradient><linearGradient x1="240" y1="162.75871" x2="240" y2="197.24129" gradientUnits="userSpaceOnUse" id="color-2"><stop offset="0" stop-color="#000000"/><stop offset="1" stop-color="#ff0000"/></linearGradient></defs><g transform="translate(-222.75871,-162.75871)"><g data-paper-data="{&quot;isPaintingLayer&quot;:true}" fill-rule="nonzero" stroke-linejoin="miter" stroke-miterlimit="10" stroke-dasharray="" stroke-dashoffset="0" style="mix-blend-mode: normal"><path d="M222.75871,180c0,-9.52211 7.71919,-17.2413 17.2413,-17.2413c9.52211,0 17.2413,7.71919 17.2413,17.2413c0,9.52211 -7.71919,17.2413 -17.2413,17.2413c-9.52211,0 -17.2413,-7.71919 -17.2413,-17.2413z" fill="url(#color-1)" stroke="url(#color-2)" stroke-width="0" stroke-linecap="butt"/><path d="M236.14168,180c0,-2.13089 1.72743,-3.85832 3.85832,-3.85832c2.13089,0 3.85833,1.72743 3.85833,3.85832c0,2.13089 -1.72744,3.85832 -3.85833,3.85832c-2.13089,0 -3.85832,-1.72743 -3.85832,-3.85832z" fill="#cd0000" stroke="#540000" stroke-width="1" stroke-linecap="butt"/><path d="M246.78948,173.21052l-13.57896,13.57896" fill="none" stroke="#ffffff" stroke-width="2.5" stroke-linecap="round"/><path d="M233.21052,173.21052l13.57896,13.57896" fill="none" stroke="#ffffff" stroke-width="2.5" stroke-linecap="round"/></g></g></svg>