<svg version="1.1" xmlns="http://www.w3.org/2000/svg" xmlns:xlink="http://www.w3.org/1999/xlink" width="238.90079" height="119.41438" viewBox="0,0,238.90079,119.41438"><defs><radialGradient cx="28.23791" cy="109.71399" r="15.09647" gradientUnits="userSpaceOnUse" id="color-1"><stop offset="0" stop-color="#000000" stop-opacity="0.30196"/><stop offset="1" stop-color="#000000" stop-opacity="0"/></radialGradient><radialGradient cx="161.94952" cy="109.71399" r="15.09647" gradientUnits="userSpaceOnUse" id="color-2"><stop offset="0" stop-color="#000000" stop-opacity="0.30196"/><stop offset="1" stop-color="#000000" stop-opacity="0"/></radialGradient><linearGradient x1="-2.8063" y1="163.4192" x2="236.09448" y2="163.4192" gradientUnits="userSpaceOnUse" id="color-3"><stop offset="0" stop-color="#000000"/><stop offset="1" stop-color="#000000" stop-opacity="0.64706"/></linearGradient></defs><g transform="translate(2.80631,-94.61752)"><g data-paper-data="{&quot;isPaintingLayer&quot;:true}" fill-rule="nonzero" stroke-linejoin="miter" stroke-miterlimit="10" stroke-dasharray="" stroke-dashoffset="0" style="mix-blend-mode: normal"><path d="M13.14143,109.71399c0,-8.33755 6.75893,-15.09647 15.09648,-15.09647c8.33755,0 15.09647,6.75892 15.09647,15.09647c0,8.33755 -6.75892,15.09647 -15.09647,15.09647c-8.33755,0 -15.09648,-6.75892 -15.09648,-15.09647z" fill="url(#color-1)" stroke="none" stroke-width="0" stroke-linecap="butt"/><path d="M146.85305,109.71399c0,-8.33755 6.75893,-15.09647 15.09647,-15.09647c8.33755,0 15.09647,6.75892 15.09647,15.09647c0,8.33755 -6.75892,15.09647 -15.09647,15.09647c-8.33755,0 -15.09647,-6.75892 -15.09647,-15.09647z" fill="url(#color-2)" stroke="none" stroke-width="0" stroke-linecap="butt"/><path d="M-0.43436,211.66274c-2.66144,-2.62498 -2.36183,-7.87277 -2.36183,-7.87277v-81.77746c0,0 0.03701,-4.60457 2.62425,-7.08549c2.58725,-2.48092 6.95427,-2.09941 6.95427,-2.09941h192.79281c0,0 3.31291,-0.26945 5.96755,2.0994c2.65464,2.36885 3.14911,6.03579 3.14911,6.03579l0.49644,64.86835l26.90624,-13.91259l-27.0825,42.106h-201.44235c0,0 -5.34255,0.26316 -8.00399,-2.36182z" fill="url(#color-3)" stroke="none" stroke-width="0" stroke-linecap="butt"/><text transform="translate(2.40078,129.22568) scale(0.37525,0.37525)" font-size="40" xml:space="preserve" fill="#ffffff" fill-rule="nonzero" stroke="none" stroke-width="1" stroke-linecap="butt" stroke-linejoin="miter" stroke-miterlimit="10" stroke-dasharray="" stroke-dashoffset="0" font-family="Sans Serif" font-weight="normal" text-anchor="start" style="mix-blend-mode: normal"><tspan x="0" dy="0">　　　　　　　　　　　は</tspan><tspan x="0" dy="48px">バトルに参加できる...</tspan></text><text transform="translate(2.40078,183.35071) scale(0.37525,0.37525)" font-size="40" xml:space="preserve" fill="#ff6f00" fill-rule="nonzero" stroke="none" stroke-width="1" stroke-linecap="butt" stroke-linejoin="miter" stroke-miterlimit="10" stroke-dasharray="" stroke-dashoffset="0" font-family="Sans Serif" font-weight="normal" text-anchor="start" style="mix-blend-mode: normal"><tspan x="0" dy="0">ナワバリバトル！</tspan></text><text transform="translate(2.08962,129.22568) scale(0.37525,0.37525)" font-size="40" xml:space="preserve" fill="#00ff0a" fill-rule="nonzero" stroke="none" stroke-width="1" stroke-linecap="butt" stroke-linejoin="miter" stroke-miterlimit="10" stroke-dasharray="" stroke-dashoffset="0" font-family="Sans Serif" font-weight="normal" text-anchor="start" style="mix-blend-mode: normal"><tspan x="0" dy="0">中の２つの大きいボタン</tspan></text><text transform="translate(3.03756,204.81513) scale(0.21975,0.21975)" font-size="40" xml:space="preserve" fill="#ffffff" fill-rule="nonzero" stroke="none" stroke-width="1" stroke-linecap="butt" stroke-linejoin="miter" stroke-miterlimit="10" stroke-dasharray="" stroke-dashoffset="0" font-family="Sans Serif" font-weight="normal" text-anchor="start" style="mix-blend-mode: normal"><tspan x="0" dy="0">（ここをクリックで進む）</tspan></text><g fill="none" stroke="#ffffff" stroke-width="2.5" stroke-linecap="round"><path d="M164.8459,99.12782l5.08294,7.90468"/><path d="M156.30154,102.66014l8.54435,-3.53232" data-paper-data="{&quot;index&quot;:null}"/><path d="M159.6254,116.37707l5.22049,-17.24925"/></g><g data-paper-data="{&quot;index&quot;:null}" fill="none" stroke="#ffffff" stroke-width="2.5" stroke-linecap="round"><path d="M25.36845,101.36538l-3.87772,8.56058"/><path d="M34.33608,103.61585l-8.96764,-2.25048" data-paper-data="{&quot;index&quot;:null}"/><path d="M33.04506,117.67058l-7.67661,-16.30521"/></g></g></g></svg>