<svg version="1.1" xmlns="http://www.w3.org/2000/svg" xmlns:xlink="http://www.w3.org/1999/xlink" width="65.59774" height="66.01373" viewBox="0,0,65.59774,66.01373"><defs><radialGradient cx="240" cy="179.99999" r="32.79887" gradientUnits="userSpaceOnUse" id="color-1"><stop offset="0" stop-color="#000000"/><stop offset="1" stop-color="#000000" stop-opacity="0"/></radialGradient><linearGradient x1="265.80343" y1="178.29402" x2="218.99185" y2="178.29402" gradientUnits="userSpaceOnUse" id="color-2"><stop offset="0" stop-color="#ff2121"/><stop offset="1" stop-color="#ffffff"/></linearGradient><linearGradient x1="236.75174" y1="178.05181" x2="236.75174" y2="146.78513" gradientUnits="userSpaceOnUse" id="color-3"><stop offset="0" stop-color="#d20000"/><stop offset="1" stop-color="#ff0000"/></linearGradient><linearGradient x1="241.67766" y1="212.31038" x2="241.67766" y2="176.61117" gradientUnits="userSpaceOnUse" id="color-4"><stop offset="0" stop-color="#6e0000"/><stop offset="1" stop-color="#ff0000"/></linearGradient><linearGradient x1="246.95352" y1="186.12885" x2="261.32952" y2="186.12885" gradientUnits="userSpaceOnUse" id="color-5"><stop offset="0" stop-color="#ffc3c3"/><stop offset="1" stop-color="#ffffff"/></linearGradient><linearGradient x1="247.07123" y1="168.04044" x2="260.10368" y2="168.04044" gradientUnits="userSpaceOnUse" id="color-6"><stop offset="0" stop-color="#ffc3c3"/><stop offset="1" stop-color="#ffffff"/></linearGradient><linearGradient x1="256.32239" y1="184.43846" x2="256.32239" y2="178.76366" gradientUnits="userSpaceOnUse" id="color-7"><stop offset="0" stop-color="#000000"/><stop offset="1" stop-color="#b40000"/></linearGradient><linearGradient x1="256.42372" y1="170.2375" x2="256.42372" y2="175.9123" gradientUnits="userSpaceOnUse" id="color-8"><stop offset="0" stop-color="#000000"/><stop offset="1" stop-color="#b40000"/></linearGradient><linearGradient x1="258.65666" y1="176.58815" x2="265.01321" y2="176.58815" gradientUnits="userSpaceOnUse" id="color-9"><stop offset="0" stop-color="#ff8f8f"/><stop offset="1" stop-color="#ffffff"/></linearGradient></defs><g transform="translate(-207.20113,-146.78514)"><g data-paper-data="{&quot;isPaintingLayer&quot;:true}" fill-rule="nonzero" stroke-linejoin="miter" stroke-miterlimit="10" stroke-dasharray="" stroke-dashoffset="0" style="mix-blend-mode: normal"><path d="M240,212.79887c-18.11432,0 -32.79887,-14.68456 -32.79887,-32.79887c0,-18.11432 14.68456,-32.79887 32.79887,-32.79887c18.11432,0 32.79887,14.68456 32.79887,32.79887c0,18.11432 -14.68456,32.79887 -32.79887,32.79887z" fill="url(#color-1)" stroke="#000000" stroke-width="0" stroke-linecap="butt"/><path d="M265.80343,178.29402c0,12.80915 -10.47913,23.19302 -23.4058,23.19302c-12.92666,0 -23.4058,-10.38387 -23.4058,-23.19302c0,-12.80915 10.47913,-23.19302 23.4058,-23.19302c12.92666,0 23.4058,10.38387 23.4058,23.19302z" data-paper-data="{&quot;index&quot;:null}" fill="url(#color-2)" stroke="none" stroke-width="0" stroke-linecap="butt"/><path d="M217.09051,169.80895c0.80594,-5.12005 2.78451,-7.78368 6.23857,-11.64812c2.30105,-2.57444 4.40758,-3.09554 7.34694,-4.90738c3.22185,-1.98594 5.59968,-2.23139 9.38442,-2.23434c1.10074,-0.00086 2.26753,0.13505 3.34174,-0.17649c1.52695,-0.44284 3.45812,-1.26422 4.49406,-2.53698c0.39485,-0.48512 0.47487,-1.4944 1.09983,-1.5204c0.3594,-0.01495 2.83481,1.68706 2.48129,2.77681c1.02083,-0.56173 2.65566,-1.45981 3.64462,-1.02624c1.45221,0.63668 1.40981,1.99478 1.31735,3.22647c-0.12539,1.67026 -1.44332,3.63414 -2.68677,4.72804c-2.51524,2.21273 -5.6625,2.58805 -8.73789,3.42991c-4.77993,1.30846 1.01973,5.6376 0.37584,10.13836c-0.46017,3.21657 -6.0831,8.27633 -6.0831,8.27633c0,0 -18.69031,-0.06647 -19.72244,-0.32451c0,0 -2.89576,-5.65197 -2.49445,-8.20146z" fill="url(#color-3)" stroke="none" stroke-width="0.5" stroke-linecap="butt"/><path d="M233.30148,176.28179c1.41582,0.0766 9.09728,1.12761 10.47545,1.19223c4.36336,0.20458 6.73158,1.1168 11.01614,1.96722c5.76977,1.14584 9.54037,1.15002 14.33108,4.56355c2.26312,1.61255 2.3373,3.91107 2.63535,6.00362c0.30905,2.16963 -0.15763,3.4339 -0.68531,5.56096c-2.61691,3.73531 -6.49064,7.8317 -12.77397,8.46803c-3.35812,0.34009 -9.00379,-0.67495 -9.00379,-0.67495c0,0 1.74011,5.38501 -0.3059,7.59539c-0.85285,0.92137 -2.9881,1.26876 -4.38628,1.34314c-4.25421,0.2263 -6.31186,-2.00948 -10.21536,-3.71598c-2.91847,-1.27586 -7.26703,-4.54528 -7.26703,-4.54528c0,0 -0.25279,2.30718 -0.96369,3.57926c-1.12693,2.01656 -3.69944,3.22114 -6.50833,1.83968c-2.32739,-1.14464 -4.40853,-3.18184 -5.64901,-4.92757c-2.75837,-3.88156 -3.10328,-7.0668 -2.66205,-11.80816c0.48859,-5.25049 3.34374,-12.32833 7.65042,-16.61013z" fill="url(#color-4)" stroke="none" stroke-width="0.5" stroke-linecap="butt"/><path d="M253.87281,177.16065c4.11823,0 7.45671,4.01521 7.45671,8.96821c0,4.953 -3.33848,8.96821 -7.45671,8.96821c-4.11822,0 -6.91929,-3.20452 -6.91929,-8.15752c0,-1.77382 0.48153,-3.42736 1.24472,-4.81927c0.22578,-0.41178 0.47621,-0.80066 0.74612,-1.16298c1.3653,-1.83275 2.72141,-3.79665 4.92845,-3.79665z" fill="url(#color-5)" stroke="none" stroke-width="0" stroke-linecap="butt"/><path d="M247.07123,166.92574c0,-4.953 3.15934,-7.85351 7.27756,-7.85351c4.11822,0 5.75488,4.11654 5.75488,9.06954c0,4.953 -1.63666,8.86688 -5.75488,8.86688c-2.44512,0 -4.07795,-2.02344 -5.43778,-4.21021c-0.93048,-1.49631 -1.83978,-3.86045 -1.83978,-5.8727z" data-paper-data="{&quot;index&quot;:null}" fill="url(#color-6)" stroke="none" stroke-width="0" stroke-linecap="butt"/><path d="M256.32239,178.76366c1.4831,0 2.68539,1.27035 2.68539,2.8374c0,1.56706 -1.20229,2.8374 -2.68539,2.8374c-1.4831,0 -2.68539,-1.27035 -2.68539,-2.8374c0,-1.56706 1.20229,-2.8374 2.68539,-2.8374z" fill="url(#color-7)" stroke="none" stroke-width="0" stroke-linecap="butt"/><path d="M253.73833,173.07491c0,-1.56706 1.20229,-2.8374 2.68539,-2.8374c1.4831,0 2.68541,1.27035 2.68541,2.8374c0,1.56706 -1.20229,2.8374 -2.68541,2.8374c-1.4831,0 -2.68539,-1.27034 -2.68539,-2.8374z" data-paper-data="{&quot;index&quot;:null}" fill="url(#color-8)" stroke="none" stroke-width="0" stroke-linecap="butt"/><path d="M240.31378,161.40984l12.4831,15.88757l-11.34827,16.59684" fill="none" stroke="#000000" stroke-width="3" stroke-linecap="round"/><path d="M262.94631,187.54633c0,0 -0.70875,-9.67892 -1.4586,-13.41082c-0.67133,-3.3411 -2.83104,-7.93811 -2.83104,-7.93811l3.64389,-0.56742c0,0 2.60323,4.96173 2.70864,8.53952c0.10967,3.72196 -2.06288,13.37682 -2.06288,13.37682z" fill="url(#color-9)" stroke="none" stroke-width="0" stroke-linecap="butt"/></g></g></svg>