<svg version="1.1" xmlns="http://www.w3.org/2000/svg" xmlns:xlink="http://www.w3.org/1999/xlink" width="80.13905" height="79.49276" viewBox="0,0,80.13905,79.49276"><defs><radialGradient cx="240.00009" cy="180" r="34.59887" gradientUnits="userSpaceOnUse" id="color-1"><stop offset="0" stop-color="#000000"/><stop offset="1" stop-color="#000000" stop-opacity="0"/></radialGradient><linearGradient x1="238.39311" y1="149.41466" x2="238.39311" y2="210.58534" gradientUnits="userSpaceOnUse" id="color-2"><stop offset="0" stop-color="#ffffff"/><stop offset="1" stop-color="#f50000"/></linearGradient><linearGradient x1="253.86292" y1="156.59673" x2="253.86292" y2="203.40327" gradientUnits="userSpaceOnUse" id="color-3"><stop offset="0" stop-color="#ffffff"/><stop offset="1" stop-color="#f50000"/></linearGradient><linearGradient x1="260.47473" y1="162.36546" x2="260.47473" y2="198.172" gradientUnits="userSpaceOnUse" id="color-4"><stop offset="0" stop-color="#ffffff"/><stop offset="1" stop-color="#f50000"/></linearGradient><linearGradient x1="262.57502" y1="179.62163" x2="267.51135" y2="179.62163" gradientUnits="userSpaceOnUse" id="color-5"><stop offset="0" stop-color="#ffffff"/><stop offset="1" stop-color="#1a1a1a"/></linearGradient><linearGradient x1="251.78545" y1="150.90766" x2="258.64728" y2="150.90766" gradientUnits="userSpaceOnUse" id="color-6"><stop offset="0" stop-color="#f83535"/><stop offset="1" stop-color="#a50000"/></linearGradient><linearGradient x1="252.00295" y1="207.7365" x2="258.86479" y2="207.7365" gradientUnits="userSpaceOnUse" id="color-7"><stop offset="0" stop-color="#f83535"/><stop offset="1" stop-color="#a50000"/></linearGradient></defs><g transform="translate(-199.93051,-140.25362)"><g data-paper-data="{&quot;isPaintingLayer&quot;:true}" fill-rule="nonzero" stroke-linejoin="miter" stroke-miterlimit="10" stroke-dasharray="" stroke-dashoffset="0" style="mix-blend-mode: normal"><path d="M199.93052,219.74638v-79.49276h80.13905v79.49276z" fill="none" stroke="none" stroke-width="NaN" stroke-linecap="butt"/><path d="M205.40121,180c0,-19.10843 15.49045,-34.59887 34.59887,-34.59887c19.10843,0 34.59887,15.49045 34.59887,34.59887c0,19.10843 -15.49045,34.59887 -34.59887,34.59887c-19.10843,0 -34.59887,-15.49045 -34.59887,-34.59887z" fill="url(#color-1)" stroke="#000000" stroke-width="0" stroke-linecap="butt"/><path d="M213.91863,180c0,-16.89182 10.9576,-30.58534 24.47448,-30.58534c13.51689,0 24.47448,13.69353 24.47448,30.58534c0,16.89182 -10.9576,30.58534 -24.47448,30.58534c-13.51689,0 -24.47448,-13.69353 -24.47448,-30.58534z" fill="url(#color-2)" stroke="#000000" stroke-width="0" stroke-linecap="butt"/><path d="M269.33274,180c0,12.92528 -6.92608,23.40327 -15.46982,23.40327c-8.54373,0 -15.46981,-10.47799 -15.46981,-23.40327c0,-12.92527 6.92608,-23.40327 15.46981,-23.40327c8.54373,0 15.46982,10.47799 15.46982,23.40327z" fill="url(#color-3)" stroke="#000000" stroke-width="0" stroke-linecap="butt"/><path d="M271.73127,180.26873c0,9.88771 -5.03973,17.90327 -11.25655,17.90327c-6.21681,0 -11.25654,-8.01556 -11.25654,-17.90327c0,-9.88771 5.03973,-17.90327 11.25654,-17.90327c6.21681,0 11.25655,8.01556 11.25655,17.90327z" fill="url(#color-4)" stroke="#000000" stroke-width="0" stroke-linecap="butt"/><path d="M244.00558,190.6726c0,-2.44128 1.97905,-4.42033 4.42033,-4.42033c2.44128,0 4.42033,1.97905 4.42033,4.42033c0,2.44128 -1.97905,4.42033 -4.42033,4.42033c-2.44128,0 -4.42033,-1.97905 -4.42033,-4.42033z" fill="#000000" stroke="#000000" stroke-width="0" stroke-linecap="butt"/><path d="M244.05482,169.32741c0,-2.44128 1.97905,-4.42033 4.42033,-4.42033c2.44128,0 4.42033,1.97905 4.42033,4.42033c0,2.44128 -1.97905,4.42033 -4.42033,4.42033c-2.44128,0 -4.42033,-1.97905 -4.42033,-4.42033z" fill="#000000" stroke="#000000" stroke-width="0" stroke-linecap="butt"/><path d="M272.01851,179.72894c0,4.68208 -2.35421,8.47765 -5.25829,8.47765c-2.90407,0 -5.25829,-3.79557 -5.25829,-8.47765c0,-4.68208 2.35421,-8.47765 5.25829,-8.47765c2.90407,0 5.25829,3.79557 5.25829,8.47765z" fill="#000000" stroke="none" stroke-width="0" stroke-linecap="butt"/><path d="M267.51135,179.62163c0,2.96334 -1.10504,5.36561 -2.46818,5.36561c-1.36313,0 -2.46818,-2.40226 -2.46818,-5.36561c0,-2.96334 1.10504,-5.36561 2.46818,-5.36561c1.36313,0 2.46818,2.40226 2.46818,5.36561z" fill="url(#color-5)" stroke="none" stroke-width="0" stroke-linecap="butt"/><path d="M216.10684,183.10079c0,-2.44128 1.10504,-4.42033 2.46818,-4.42033c1.36314,0 2.46818,1.97905 2.46818,4.42033c0,2.44128 -1.10504,4.42033 -2.46818,4.42033c-1.36314,0 -2.46818,-1.97905 -2.46818,-4.42033z" fill-opacity="0.50196" fill="#800000" stroke="#000000" stroke-width="0" stroke-linecap="butt"/><path d="M225.30684,198.10079c0,-2.44128 1.10504,-4.42033 2.46818,-4.42033c1.36314,0 2.46818,1.97905 2.46818,4.42033c0,2.44128 -1.10504,4.42033 -2.46818,4.42033c-1.36314,0 -2.46818,-1.97905 -2.46818,-4.42033z" fill-opacity="0.25098" fill="#800000" stroke="#000000" stroke-width="0" stroke-linecap="butt"/><path d="M232.71701,171.70079c0,-1.9051 0.86234,-3.4495 1.92609,-3.4495c1.06375,0 1.92609,1.54439 1.92609,3.4495c0,1.9051 -0.86234,3.44949 -1.92609,3.44949c-1.06375,0 -1.92609,-1.54439 -1.92609,-3.44949z" fill-opacity="0.50196" fill="#800000" stroke="#000000" stroke-width="0" stroke-linecap="butt"/><path d="M223.38075,160.70079c0,-1.9051 0.86234,-3.44949 1.92609,-3.44949c1.06375,0 1.92609,1.54439 1.92609,3.44949c0,1.9051 -0.86234,3.44949 -1.92609,3.44949c-1.06375,0 -1.92609,-1.54439 -1.92609,-3.44949z" fill-opacity="0.25098" fill="#800000" stroke="#000000" stroke-width="0" stroke-linecap="butt"/><path d="M242.43866,156.59673c0,-2.44128 1.10504,-4.42033 2.46818,-4.42033c1.36314,0 2.46818,1.97905 2.46818,4.42033c0,2.44128 -1.10504,4.42033 -2.46818,4.42033c-1.36314,0 -2.46818,-1.97905 -2.46818,-4.42033z" fill-opacity="0.25098" fill="#800000" stroke="#000000" stroke-width="0" stroke-linecap="butt"/><path d="M256.57584,163.83096c0,-1.9051 0.86234,-3.44949 1.92609,-3.44949c1.06375,0 1.92609,1.54439 1.92609,3.44949c0,1.9051 -0.86234,3.44949 -1.92609,3.44949c-1.06375,0 -1.92609,-1.54439 -1.92609,-3.44949z" fill-opacity="0.50196" fill="#800000" stroke="#000000" stroke-width="0" stroke-linecap="butt"/><path d="M244.82391,202.59233c0,-1.9051 0.86234,-3.44949 1.92609,-3.44949c1.06375,0 1.92609,1.54439 1.92609,3.44949c0,1.9051 -0.86234,3.44949 -1.92609,3.44949c-1.06375,0 -1.92609,-1.54439 -1.92609,-3.44949z" fill-opacity="0.25098" fill="#800000" stroke="#000000" stroke-width="0" stroke-linecap="butt"/><path d="M258.64728,145.40113l-3.53488,11.01304l-3.32695,-11.01304" fill="none" stroke="url(#color-6)" stroke-width="2" stroke-linecap="round"/><path d="M252.00295,213.24301l3.32695,-11.01304l3.53489,11.01304" data-paper-data="{&quot;index&quot;:null}" fill="none" stroke="url(#color-7)" stroke-width="2" stroke-linecap="round"/></g></g></svg>