<svg version="1.1" xmlns="http://www.w3.org/2000/svg" xmlns:xlink="http://www.w3.org/1999/xlink" width="53.44516" height="53.44516" viewBox="0,0,53.44516,53.44516"><defs><radialGradient cx="240" cy="180" r="26.72258" gradientUnits="userSpaceOnUse" id="color-1"><stop offset="0" stop-color="#000000" stop-opacity="0.5098"/><stop offset="1" stop-color="#000000" stop-opacity="0"/></radialGradient><linearGradient x1="219.77909" y1="173.66169" x2="245.61092" y2="173.66169" gradientUnits="userSpaceOnUse" id="color-2"><stop offset="0" stop-color="#00ffff"/><stop offset="1" stop-color="#002dff"/></linearGradient><linearGradient x1="226.41148" y1="158.47818" x2="234.22785" y2="173.15381" gradientUnits="userSpaceOnUse" id="color-3"><stop offset="0" stop-color="#8e8e8e"/><stop offset="1" stop-color="#3a3a3a"/></linearGradient><linearGradient x1="230.31966" y1="156.55276" x2="230.31966" y2="175.07922" gradientUnits="userSpaceOnUse" id="color-4"><stop offset="0" stop-color="#929292"/><stop offset="1" stop-color="#4a4a4a"/></linearGradient><linearGradient x1="268.7611" y1="180.86509" x2="237.58476" y2="180.86509" gradientUnits="userSpaceOnUse" id="color-5"><stop offset="0" stop-color="#ff0000"/><stop offset="1" stop-color="#ffeb00"/></linearGradient><linearGradient x1="258.60796" y1="171.57464" x2="247.28489" y2="183.75076" gradientUnits="userSpaceOnUse" id="color-6"><stop offset="0" stop-color="#d2d2d2"/><stop offset="1" stop-color="#5f5f5f"/></linearGradient><linearGradient x1="252.94642" y1="167.45793" x2="252.94642" y2="187.86747" gradientUnits="userSpaceOnUse" id="color-7"><stop offset="0" stop-color="#dadada"/><stop offset="1" stop-color="#676767"/></linearGradient><linearGradient x1="241.73397" y1="196.98371" x2="260.43978" y2="196.98371" gradientUnits="userSpaceOnUse" id="color-8"><stop offset="0" stop-color="#3a3a3a"/><stop offset="1" stop-color="#d4d4d4"/></linearGradient><linearGradient x1="241.73397" y1="196.98371" x2="260.43978" y2="196.98371" gradientUnits="userSpaceOnUse" id="color-9"><stop offset="0" stop-color="#c8c8c8"/><stop offset="1" stop-color="#4a4a4a"/></linearGradient><linearGradient x1="237.66456" y1="189.58872" x2="218.95875" y2="189.58872" gradientUnits="userSpaceOnUse" id="color-10"><stop offset="0" stop-color="#8e8e8e"/><stop offset="1" stop-color="#3a3a3a"/></linearGradient><linearGradient x1="228.31166" y1="198.94162" x2="228.31166" y2="180.23581" gradientUnits="userSpaceOnUse" id="color-11"><stop offset="0" stop-color="#4a4a4a"/><stop offset="1" stop-color="#c8c8c8"/></linearGradient><linearGradient x1="228.41374" y1="160.95476" x2="230.8392" y2="168.9612" gradientUnits="userSpaceOnUse" id="color-12"><stop offset="0" stop-color="#757575"/><stop offset="1" stop-color="#313131"/></linearGradient><linearGradient x1="256.37311" y1="173.98848" x2="251.4791" y2="180.77336" gradientUnits="userSpaceOnUse" id="color-13"><stop offset="0" stop-color="#757575"/><stop offset="1" stop-color="#313131"/></linearGradient><linearGradient x1="223.3421" y1="189.56266" x2="232.54654" y2="189.56266" gradientUnits="userSpaceOnUse" id="color-14"><stop offset="0" stop-color="#757575"/><stop offset="1" stop-color="#313131"/></linearGradient></defs><g transform="translate(-213.27742,-153.27742)"><g data-paper-data="{&quot;isPaintingLayer&quot;:true}" fill-rule="nonzero" stroke-linecap="butt" stroke-linejoin="miter" stroke-miterlimit="10" stroke-dasharray="" stroke-dashoffset="0" style="mix-blend-mode: normal"><path d="M213.27742,180c0,-14.75847 11.96411,-26.72258 26.72258,-26.72258c14.75847,0 26.72258,11.96411 26.72258,26.72258c0,14.75847 -11.96411,26.72258 -26.72258,26.72258c-14.75847,0 -26.72258,-11.96411 -26.72258,-26.72258z" fill="url(#color-1)" stroke="none" stroke-width="0"/><g><path d="M229.57737,186.44504l-9.79828,-15.1428l21.37806,-9.79828l4.45376,17.81505c0,0 -1.69477,4.18355 -6.29343,6.03018c-5.39916,2.16808 -9.74012,1.09584 -9.74012,1.09584z" fill="url(#color-2)" stroke="#4a4a4a" stroke-width="2.5"/><path d="M240.93329,160.16308c2.15843,4.05256 -0.8437,9.86872 -6.70544,12.99073c-5.86175,3.12202 -12.36338,2.36765 -14.52181,-1.68491c-2.15843,-4.05256 0.84369,-9.86871 6.70544,-12.99072c5.86175,-3.12202 12.36338,-2.36766 14.52182,1.6849z" fill="url(#color-3)" stroke="url(#color-4)" stroke-width="2.5"/><path d="M233.72483,192.57186l9.23516,-21.55093l19.86276,12.9813l-17.76386,18.49643c0,0 -6.72503,-0.91418 -8.60958,-2.56474c-1.89343,-1.65833 -2.72448,-7.36206 -2.72448,-7.36206z" data-paper-data="{&quot;index&quot;:null}" fill="url(#color-5)" stroke="#ff6f6f" stroke-width="2.5"/><path d="M258.60796,171.57464c4.86338,4.52266 6.27118,10.91473 3.1444,14.27707c-3.12678,3.36234 -9.60409,2.42171 -14.46748,-2.10095c-4.86338,-4.52266 -6.27118,-10.91474 -3.1444,-14.27707c3.12678,-3.36234 9.60409,-2.42171 14.46748,2.10096z" data-paper-data="{&quot;index&quot;:null}" fill="url(#color-6)" stroke="url(#color-7)" stroke-width="2.5"/><path d="M241.73397,196.98371c0,-3.07776 4.18743,-5.57278 9.3529,-5.57278c5.16547,0 9.3529,2.49502 9.3529,5.57278c0,3.07776 -4.18744,5.57278 -9.3529,5.57278c-5.16547,0 -9.3529,-2.49502 -9.3529,-5.57278z" data-paper-data="{&quot;index&quot;:null}" fill="url(#color-8)" stroke="url(#color-9)" stroke-width="2.5"/><path d="M237.66456,189.58872c0,5.16547 -4.18743,9.3529 -9.3529,9.3529c-5.16547,0 -9.3529,-4.18744 -9.3529,-9.3529c0,-5.16547 4.18744,-9.35291 9.3529,-9.35291c5.16547,0 9.3529,4.18744 9.3529,9.35291z" data-paper-data="{&quot;index&quot;:null}" fill="url(#color-10)" stroke="url(#color-11)" stroke-width="2.5"/><path d="M236.54239,161.97489c1.04807,2.04548 -1.19868,5.03925 -5.01823,6.68676c-3.81956,1.64751 -7.76555,1.3249 -8.81362,-0.72058c-1.04807,-2.04548 1.19867,-5.03925 5.01823,-6.68676c3.81956,-1.64751 7.76555,-1.32489 8.81362,0.72059z" fill="none" stroke="url(#color-12)" stroke-width="1.5"/><path d="M248.35372,172.31364c1.65551,-1.59427 5.49241,-0.61799 8.56996,2.18059c3.07755,2.79858 4.23033,6.3597 2.57482,7.95398c-1.65551,1.59428 -5.49241,0.61798 -8.56996,-2.1806c-3.07754,-2.79858 -4.23032,-6.3597 -2.57481,-7.95397z" data-paper-data="{&quot;index&quot;:null}" fill="none" stroke="url(#color-13)" stroke-width="1.5"/><path d="M223.3421,189.56266c0,-2.54174 2.06049,-4.60222 4.60222,-4.60222c2.54174,0 4.60222,2.06049 4.60222,4.60222c0,2.54174 -2.06049,4.60222 -4.60222,4.60222c-2.54174,0 -4.60222,-2.06049 -4.60222,-4.60222z" fill="none" stroke="url(#color-14)" stroke-width="1.5"/></g></g></g></svg>