<svg version="1.1" xmlns="http://www.w3.org/2000/svg" xmlns:xlink="http://www.w3.org/1999/xlink" width="685.84846" height="368.71441" viewBox="0,0,685.84846,368.71441"><defs><linearGradient x1="-52.74455" y1="86.96299" x2="-52.74455" y2="221.66241" gradientUnits="userSpaceOnUse" id="color-1"><stop offset="0" stop-color="#5d5d5d"/><stop offset="1" stop-color="#3b3b3b"/></linearGradient><linearGradient x1="-287.66639" y1="83.46299" x2="144.33361" y2="83.46299" gradientUnits="userSpaceOnUse" id="color-2"><stop offset="0" stop-color="#a9aeb3"/><stop offset="1" stop-color="#2c2c2c"/></linearGradient><linearGradient x1="536.62892" y1="78.71299" x2="536.62892" y2="213.4124" gradientUnits="userSpaceOnUse" id="color-3"><stop offset="0" stop-color="#5d5d5d"/><stop offset="1" stop-color="#3b3b3b"/></linearGradient><linearGradient x1="764.55077" y1="106.46299" x2="328.55076" y2="106.46299" gradientUnits="userSpaceOnUse" id="color-4"><stop offset="0" stop-color="#4d5052"/><stop offset="1" stop-color="#313131"/></linearGradient><linearGradient x1="-1725.57038" y1="-990.25039" x2="-1725.57038" y2="-981.19042" gradientUnits="userSpaceOnUse" id="color-5"><stop offset="0" stop-color="#000000" stop-opacity="0"/><stop offset="1" stop-color="#000000" stop-opacity="0"/></linearGradient><linearGradient x1="-72.07576" y1="299.96294" x2="642.92424" y2="299.96294" gradientUnits="userSpaceOnUse" id="color-6"><stop offset="0" stop-color="#000000"/><stop offset="1" stop-color="#a9aeb3"/></linearGradient><linearGradient x1="-72.07576" y1="299.96294" x2="642.92424" y2="299.96294" gradientUnits="userSpaceOnUse" id="color-7"><stop offset="0" stop-color="#000000"/><stop offset="1" stop-color="#a9aeb3"/></linearGradient><linearGradient x1="-72.07576" y1="299.96294" x2="642.92424" y2="299.96294" gradientUnits="userSpaceOnUse" id="color-8"><stop offset="0" stop-color="#000000"/><stop offset="1" stop-color="#a9aeb3"/></linearGradient><linearGradient x1="-1725.57038" y1="-990.25039" x2="-1725.57038" y2="-981.19042" gradientUnits="userSpaceOnUse" id="color-9"><stop offset="0" stop-color="#000000" stop-opacity="0"/><stop offset="1" stop-color="#000000" stop-opacity="0"/></linearGradient></defs><g transform="translate(42.92423,-40.64279)"><g data-paper-data="{&quot;isPaintingLayer&quot;:true}" fill-rule="nonzero" stroke-width="0" stroke-linecap="butt" stroke-linejoin="miter" stroke-miterlimit="10" stroke-dasharray="" stroke-dashoffset="0" style="mix-blend-mode: normal"><path d="M146.80077,221.91241l-22.64597,-3.03105l-0.59971,-112.19466l-164.41547,31.82228c-0.3709,-13.66429 -1.67914,-26.19944 -1.90212,-39.96815c-0.06249,-3.85897 -0.10578,-7.71831 -0.13174,-11.57784h186.85438z" data-paper-data="{&quot;index&quot;:null}" fill="url(#color-1)" stroke="none"/><path d="M144.33361,86.96299l-186.15085,32.41215c-0.41897,-6.83269 -0.82918,-13.66633 -0.94526,-20.83431c-0.23111,-14.27115 -0.19957,-28.54743 0,-42.81905c0.01785,-1.27621 0.03683,-2.55242 0.05703,-3.82861z" data-paper-data="{&quot;index&quot;:null}" fill="url(#color-2)" stroke="none"/><path d="M339.92423,78.71299h209.44652c0.06045,18.77612 0.112,37.55218 0.08025,56.32784l-189.12172,-36.60413l-3.34972,111.69466l-22.64596,3.28105z" fill="url(#color-3)" stroke="none"/><path d="M525.2375,76.77549c0,9.66499 -15.67003,17.5 -35,17.5c-19.32997,0 -35,-7.83501 -35,-17.5c0,-9.66499 15.67003,-17.5 35,-17.5c19.32997,0 35,7.83501 35,17.5z" fill="#ffd000" stroke="none"/><path d="M339.55076,78.96299l209.70771,-38.3202c0.05132,25.28952 0.17835,50.57937 0.19926,75.86871z" data-paper-data="{&quot;index&quot;:null}" fill="url(#color-4)" stroke="none"/><path d="" data-paper-data="{&quot;index&quot;:null}" fill="#343434" stroke="none"/><path d="" data-paper-data="{&quot;index&quot;:null}" fill="#343434" stroke="none"/><path d="" data-paper-data="{&quot;index&quot;:null}" fill="#ffffff" stroke="none"/><path d="" data-paper-data="{&quot;index&quot;:null}" fill="#333333" stroke="url(#color-5)"/><path d="M59.2375,83.87549c0,7.84245 -15.89389,14.2 -35.5,14.2c-19.60611,0 -35.5,-6.35755 -35.5,-14.2c0,-7.84244 15.89389,-14.2 35.5,-14.2c19.60611,0 35.5,6.35756 35.5,14.2z" fill="#2b27ff" stroke="none"/><path d="M289.92423,106.96299l259.10772,46.97704c-1.21812,15.93924 -3.09646,31.89787 -4.65709,47.71834c-0.40398,4.09522 0.0963,8.62961 -0.13736,12.53221c-0.26593,4.44164 -1.98652,16.36113 -2,24.08491c-0.03538,20.27071 0.47437,40.54703 0,60.81221c-0.15529,6.63393 -1.2953,13.20828 -1.88739,19.81756c-0.65889,7.35497 -0.28126,14.68643 -1.01203,22.10251c-1.83485,18.62078 -3.59242,37.14443 -5.29183,55.65912c-2.28622,0.2569 -4.4257,0.5314 -6.29634,0.73267c-10.12557,1.08943 -19.46702,0.72017 -30.11486,0.72017c-2.46348,0 -5.01895,1.13071 -7.368,1.15576c-7.4081,0.079 -14.58221,0.89964 -22.02954,1c-15.04723,0.20279 -30.06529,3.86374 -45.07764,4c-14.63114,0.1328 -29.06932,0.84424 -43.52482,0.84424c-4.6956,0 -9.3808,2.07067 -14.05032,2.15576c-17.94433,0.32701 -36.06025,0.84424 -53.94968,0.84424c-2.45925,0 -5.02784,1.15156 -7.368,1.15576c-8.45891,0.01519 -16.91968,0.17601 -25.37677,0c-7.29851,-0.1519 -14.8332,-1.85615 -22.11724,-2.74874c-8.74026,-1.07103 -17.58492,-1.0275 -26.34443,-2.06426c-3.00932,-0.35618 -6.11813,-1.18224 -9.19111,-1.18701c-43.38914,-0.06734 -86.77932,0.28396 -130.16759,0c-4.97191,-0.03254 -10.59223,-0.99235 -15.83241,-1c-18.66665,-0.02725 -37.3335,-0.07828 -56,0c-11.98771,0.05027 -24.0283,2.41368 -35.95235,2.95449c0.18101,-19.98813 0.52614,-39.97729 -0.04765,-59.95449c0,-4.17893 -1.02533,-8.11837 -2.83815,-11.58049c-0.50751,-1.06693 -1.07981,-2.1022 -1.71447,-3.09181c0.13704,-14.35607 -0.44377,-28.4183 -1.44737,-41.10439c-0.64169,-8.11128 -0.33174,-16.37614 -0.86571,-24.50652c1.93352,-6.21423 2.84127,-12.83033 2.86571,-18.71678c0.10203,-24.57343 -0.27556,-49.15134 -1.0102,-73.71399c-0.10553,-3.52827 -0.51945,-6.81971 -0.77835,-10.35426z" fill="url(#color-6)" stroke="none"/><path d="" fill="url(#color-7)" stroke="none"/><path d="M642.92424,403.32273c-0.55314,-3.98634 -1.64811,-7.99178 -1.68674,-11.82393c-0.09532,-9.45471 -0.15638,-18.90959 -0.19242,-28.3646c0.65715,-0.91489 1.28305,-1.85538 1.87916,-2.81875z" fill="url(#color-8)" stroke="none"/><path d="" data-paper-data="{&quot;index&quot;:null}" fill="#343434" stroke="none"/><path d="" data-paper-data="{&quot;index&quot;:null}" fill="#343434" stroke="none"/><path d="" data-paper-data="{&quot;index&quot;:null}" fill="#ffffff" stroke="none"/><path d="" data-paper-data="{&quot;index&quot;:null}" fill="#333333" stroke="url(#color-9)"/><path d="M45.2375,234.77549c0,11.87412 -23.50505,21.5 -52.5,21.5c-4.92521,0 -9.69201,-0.27774 -14.21211,-0.79707c0.46844,-3.15548 0.69993,-6.26979 0.71211,-9.20293c0.04466,-10.75575 -0.00257,-21.51236 -0.1314,-32.26817c4.347,-0.47732 8.91662,-0.73183 13.6314,-0.73183c28.99495,0 52.5,9.62588 52.5,21.5z" fill="#ffd000" stroke="none"/><path d="M327.7375,136.39087c0,11.53426 -20.25912,20.88461 -45.25,20.88461c-24.99088,0 -45.25,-9.35036 -45.25,-20.88461c0,-11.53426 20.25912,-20.88462 45.25,-20.88462c24.99088,0 45.25,9.35036 45.25,20.88462z" fill="#ffd000" stroke="none"/><path d="M355.7375,139.4678c0,7.0735 -12.4241,12.80769 -27.75,12.80769c-15.3259,0 -27.75,-5.73419 -27.75,-12.80769c0,-7.0735 12.4241,-12.80769 27.75,-12.80769c15.3259,0 27.75,5.7342 27.75,12.80769z" fill="#ffd000" stroke="none"/><path d="M211.05383,158.10283c0,10.39805 -23.91165,18.82734 -53.40816,18.82734c-29.49651,0 -53.40816,-8.42928 -53.40816,-18.82734c0,-10.39805 23.91165,-18.82734 53.40817,-18.82734c29.49651,0 53.40816,8.42929 53.40816,18.82734z" fill="#2b27ff" stroke="none"/><path d="M512.7375,393.27549c-51.08634,0 -92.5,-19.114 -92.5,-42.69231c0,-23.57831 41.41366,-42.69231 92.5,-42.69231c9.98443,0 19.59938,0.73011 28.60789,2.08096c-0.34945,2.97649 -0.72814,5.9514 -0.99528,8.93343c-0.65889,7.35497 -0.28126,14.68643 -1.01203,22.10251c-1.68369,17.08677 -3.30231,34.09175 -4.87064,51.08308c-6.96918,0.7744 -14.24576,1.18464 -21.72995,1.18464z" fill="#ffd000" stroke="none"/><path d="" fill="#ffd000" stroke="none"/><g fill="#2b27ff" stroke="none"><path d="M466.7375,205.73113c0,24.55218 -43.42838,44.45564 -97,44.45564c-53.57162,0 -97,-19.90347 -97,-44.45564c0,-24.55218 43.42838,-44.45564 97,-44.45564c53.57162,0 97,19.90347 97,44.45565z"/><path d="M500.7375,241.52698c0,13.66822 -24.17662,24.7485 -54,24.7485c-29.82337,0 -54,-11.08028 -54,-24.7485c0,-13.66822 24.17663,-24.7485 54,-24.7485c29.82338,0 54,11.08028 54,24.7485z"/></g><g data-paper-data="{&quot;index&quot;:null}" fill="#2b27ff" stroke="none"><path d="M1.58337,361.25145c0,-21.55238 38.12228,-39.02404 85.1485,-39.02404c47.02622,0 85.1485,17.47166 85.1485,39.02404c0,21.55238 -38.12228,39.02403 -85.14849,39.02403c-47.02621,0 -85.14849,-17.47165 -85.14849,-39.02403z"/><path d="M19.13976,308.10442c26.17954,0 47.40226,9.7265 47.40226,21.72472c0,11.99823 -21.22271,21.72472 -47.40225,21.72472c-14.36713,0 -27.24139,-2.92936 -35.93435,-7.55593c-0.18645,-3.70416 -1.17912,-7.19579 -2.80607,-10.30295c-0.50751,-1.06693 -1.07981,-2.1022 -1.71447,-3.09181c0.03869,-4.05357 0.02016,-8.08371 -0.04897,-12.06606c8.3211,-6.25585 23.34818,-10.43269 40.50386,-10.43269z"/></g><path d="M436.92425,77.82243c0,5.03773 -10.07359,9.12162 -22.5,9.12162c-12.42641,0 -22.5,-4.08389 -22.5,-9.12162c0,-5.03773 10.07359,-9.12162 22.5,-9.12162c12.42641,0 22.5,4.08389 22.5,9.12162z" fill="#ffd000" stroke="none"/><path d="M509.42425,55.19405c21.81525,0 39.5,6.04416 39.5,13.5c0,7.45584 -17.68475,13.5 -39.5,13.5c-21.81525,0 -39.5,-6.04416 -39.5,-13.5c0,-7.45584 17.68475,-13.5 39.5,-13.5z" fill="#ffd000" stroke="none"/><path d="M623.2375,202.7764c0,16.01626 -27.75835,29 -62,29c-34.24165,0 -62,-12.98374 -62,-29c0,-16.01626 27.75835,-29 62,-29c34.24165,0 62,12.98374 62,29z" fill="#2b27ff" stroke="none"/><path d="M55.23751,217.89087c0,5.73527 -10.07359,10.38461 -22.5,10.38461c-12.42641,0 -22.5,-4.64934 -22.5,-10.38461c0,-5.73527 10.07359,-10.38461 22.5,-10.38461c12.42641,0 22.5,4.64935 22.5,10.38461z" fill="#ffd000" stroke="none"/><path d="M119.55384,188.26649c0,4.50867 -10.36826,8.16367 -23.15816,8.16367c-12.7899,0 -23.15816,-3.655 -23.15816,-8.16367c0,-4.50867 10.36826,-8.16367 23.15817,-8.16367c12.7899,0 23.15816,3.655 23.15816,8.16367z" fill="#2b27ff" stroke="none"/><path d="M449.7069,84.91218c0,2.77136 -6.37309,5.01799 -14.23469,5.01799c-7.8616,0 -14.23469,-2.24663 -14.23469,-5.01799c0,-2.77136 6.37309,-5.01799 14.2347,-5.01799c7.8616,0 14.23469,2.24663 14.23469,5.01799z" fill="#2b27ff" stroke="none"/><path d="M218.05384,289.10283c0,10.39805 -23.91165,18.82734 -53.40816,18.82734c-29.49651,0 -53.40816,-8.42928 -53.40816,-18.82734c0,-10.39805 23.91165,-18.82734 53.40817,-18.82734c29.49651,0 53.40816,8.42929 53.40816,18.82734z" fill="#2b27ff" stroke="none"/><path d="M379.73751,301.62162c0,24.66165 -43.31646,44.65383 -96.75,44.65383c-53.43354,0 -96.75,-19.99221 -96.75,-44.65383c0,-24.66165 43.31646,-44.65386 96.75,-44.65386c53.43354,0 96.75,19.99221 96.75,44.65386z" fill="#ffd000" stroke="none"/><g stroke="none"><path d="M485.70051,106.23569c-0.79842,0.18031 -1.19937,-0.51411 -1.19937,-1.0661c0,-0.37873 0.6223,-1.73146 1.14943,-2.33423c0.4991,-0.57073 1.31593,-0.223 1.31593,0.53518c0,0.34127 -0.22464,1.73045 -0.72986,2.44717c-0.1526,0.21648 -0.3308,0.37161 -0.53614,0.41799z" data-paper-data="{&quot;index&quot;:null}" fill="#f3f3f3"/><path d="M484.29081,100.72545c0,-2.87495 2.33061,-5.20556 5.20556,-5.20556c2.87495,0 5.20556,2.33061 5.20556,5.20556c0,2.87495 -2.33061,4.37267 -5.20556,4.37267c-2.87495,0 -5.20556,-1.49772 -5.20556,-4.37267z" fill="#ffffff"/><path d="M485.43603,101.13617c0,-0.29738 0.24108,-0.53846 0.53846,-0.53846c0.29738,0 0.53846,0.24108 0.53846,0.53846c0,0.01604 -0.0007,1.24852 -0.00208,1.26421c-0.0241,0.27508 -0.25505,0.49085 -0.53639,0.49085c-0.2817,0 -0.51288,-0.21633 -0.53647,-0.49192c-0.00131,-0.01534 -0.00199,-1.24746 -0.00199,-1.26313z" fill="#000000"/><path d="M487.68184,107.94125c-1.02978,1.35535 -2.37614,0.72339 -1.85602,-0.77635c0.23328,-0.67264 0.332,-1.10482 0.31566,-1.97814c-0.03228,-1.72576 0.42444,-3.43268 1.82536,-3.56188c0.23374,-0.02156 0.98178,0.89231 1.23273,0.91403c0.41108,0.03558 2.53353,-0.9374 2.93595,0.13334c0.20991,0.55852 0.38226,3.01365 0.09556,4.19623c-0.19855,0.81897 -0.90388,1.82331 -1.63588,2.15976c-0.57139,0.26263 -1.21362,0.06371 -1.28583,-0.59012c-0.01099,-0.09956 0.07689,-0.26892 0.04133,-0.43114c-0.08709,-0.39734 -1.23754,-0.63342 -1.66887,-0.06572z" fill="#ffffff"/><path d="M491.26626,104.26655c0,-0.74793 0.96612,-1.09096 1.55645,-0.52794c0.62347,0.59463 1.35951,1.92909 1.35951,2.3027c0,0.54454 -0.47424,1.22957 -1.41857,1.0517c-1.04693,-0.1972 -1.49738,-2.3881 -1.49738,-2.82645z" fill="#f3f3f3"/><path d="M488.27764,101.26084c0,-0.29738 0.24108,-0.53846 0.53846,-0.53846c0.29738,0 0.53846,0.24108 0.53846,0.53846c0,0.01604 -0.0007,1.24853 -0.00207,1.26421c-0.0241,0.27508 -0.25505,0.49084 -0.53639,0.49084c-0.2817,0 -0.51288,-0.21633 -0.53648,-0.49192c-0.00131,-0.01534 -0.00199,-1.24745 -0.00199,-1.26313z" fill="#000000"/></g></g></g></svg>