<svg version="1.1" xmlns="http://www.w3.org/2000/svg" xmlns:xlink="http://www.w3.org/1999/xlink" width="594.40636" height="501.80322" viewBox="0,0,594.40636,501.80322"><g transform="translate(57.13561,67.89561)"><g data-paper-data="{&quot;isPaintingLayer&quot;:true}" fill-rule="nonzero" stroke-linecap="butt" stroke-linejoin="miter" stroke-miterlimit="10" stroke-dasharray="" stroke-dashoffset="0" style="mix-blend-mode: normal"><path d="M0.10571,-67.89561l537.16504,72.60171l-27.25466,195.64862l-537.16504,-72.60171z" fill="#000000" stroke="none" stroke-width="NaN"/><path d="M-30.51924,162.61246l537.19097,74.70437l-26.61637,196.59078l-537.19097,-74.70437z" fill="#000000" stroke="none" stroke-width="NaN"/><path d="M269.27688,146.60461l223.46468,30.6627l-9.78777,71.33162l-223.46468,-30.6627z" fill="#000000" stroke="none" stroke-width="0"/><path d="M-0.8722,115.56474l223.48282,29.91523l-8.2216,58.45229l-223.48282,-29.91523z" fill="#000000" stroke="none" stroke-width="0"/><g><path d="M254.33546,140.81659l26.03518,55.16493l-55.16493,26.03518l-26.03518,-55.16493l27.87221,-13.10292l7.60012,17.22136c0,0 -2.11775,-1.95732 -3.71601,-0.99542c-1.95972,1.17945 -0.66303,4.34903 -0.66303,4.34903c0,0 -2.66569,-2.31175 -4.51019,-0.42286c-2.06802,1.97512 3.94475,8.25907 3.94475,8.25907c0,0 -3.56923,1.84376 -3.60013,4.52545c0.00824,2.7775 15.47044,9.74221 19.72742,7.66146c4.15516,-2.03097 8.22811,-14.33995 6.96312,-19.64325c-0.62586,-2.62388 -6.47539,-0.36954 -6.47539,-0.36954c0,0 -0.32208,-8.16511 -3.9469,-8.43662c-2.09822,-0.15717 -2.42862,3.36964 -2.42862,3.36964c0,0 -1.73259,-2.88418 -3.60761,-2.02427c-2.24649,1.03028 -1.71333,4.1266 -1.71333,4.1266l-9.18386,-16.91241z" fill="#000000" stroke="none" stroke-width="0"/><path d="M247.60016,179.19934c0.92979,1.97008 0.08645,4.32087 -1.88362,5.25064c-1.97008,0.92979 -4.32086,0.08646 -5.25065,-1.88361c-0.92979,-1.97008 -0.08645,-4.32087 1.88363,-5.25065c1.97008,-0.92979 4.32087,-0.08645 5.25064,1.88362z" fill="none" stroke="#000000" stroke-width="1.25"/><path d="M240.36542,182.61379c0.92979,1.97008 0.08645,4.32087 -1.88362,5.25064c-1.97008,0.92979 -4.32086,0.08646 -5.25065,-1.88361c-0.92979,-1.97008 -0.08645,-4.32087 1.88363,-5.25065c1.97008,-0.92979 4.32087,-0.08645 5.25064,1.88362z" fill="none" stroke="#000000" stroke-width="1.25"/><path d="M245.89196,180.00553c0.48453,1.02667 0.04506,2.25172 -0.98161,2.73625c-1.02667,0.48453 -2.25172,0.04506 -2.73625,-0.9816c-0.48453,-1.02667 -0.04505,-2.25172 0.98161,-2.73626c1.02667,-0.48453 2.25171,-0.04505 2.73624,0.98162z" fill="#000000" stroke="none" stroke-width="0"/><path d="M238.55675,183.46741c0.48453,1.02667 0.04506,2.25172 -0.98161,2.73625c-1.02667,0.48453 -2.25172,0.04506 -2.73625,-0.98161c-0.48453,-1.02667 -0.04506,-2.25172 0.9816,-2.73625c1.02667,-0.48453 2.25171,-0.04505 2.73624,0.98162z" fill="#000000" stroke="none" stroke-width="0"/></g></g></g></svg>