<svg version="1.1" xmlns="http://www.w3.org/2000/svg" xmlns:xlink="http://www.w3.org/1999/xlink" width="522" height="396" viewBox="0,0,522,396"><defs><linearGradient x1="240.00001" y1="-18" x2="240.00001" y2="378" gradientUnits="userSpaceOnUse" id="color-1"><stop offset="0" stop-color="#d75a5a"/><stop offset="1" stop-color="#360000"/></linearGradient><radialGradient cx="68.61535" cy="294.05296" r="8.06628" gradientUnits="userSpaceOnUse" id="color-2"><stop offset="0" stop-color="#000000" stop-opacity="0.63137"/><stop offset="1" stop-color="#000000" stop-opacity="0"/></radialGradient><linearGradient x1="62.91164" y1="288.34927" x2="74.31906" y2="299.75667" gradientUnits="userSpaceOnUse" id="color-3"><stop offset="0" stop-color="#ff5454"/><stop offset="1" stop-color="#eb0000"/></linearGradient><radialGradient cx="57.72633" cy="307.55746" r="14.21365" gradientUnits="userSpaceOnUse" id="color-4"><stop offset="0" stop-color="#000000" stop-opacity="0.63137"/><stop offset="1" stop-color="#000000" stop-opacity="0"/></radialGradient><linearGradient x1="47.67575" y1="297.50685" x2="67.77684" y2="317.60803" gradientUnits="userSpaceOnUse" id="color-5"><stop offset="0" stop-color="#ff5454"/><stop offset="1" stop-color="#eb0000"/></linearGradient><radialGradient cx="45.76934" cy="312.22677" r="13.90958" gradientUnits="userSpaceOnUse" id="color-6"><stop offset="0" stop-color="#000000" stop-opacity="0.63137"/><stop offset="1" stop-color="#000000" stop-opacity="0"/></radialGradient><linearGradient x1="35.93377" y1="302.39126" x2="55.6049" y2="322.06235" gradientUnits="userSpaceOnUse" id="color-7"><stop offset="0" stop-color="#ff5454"/><stop offset="1" stop-color="#eb0000"/></linearGradient><linearGradient x1="37.28014" y1="316.68363" x2="47.77276" y2="306.19115" gradientUnits="userSpaceOnUse" id="color-8"><stop offset="0" stop-color="#eb0000"/><stop offset="1" stop-color="#ff5454"/></linearGradient><linearGradient x1="67.22796" y1="288.69193" x2="73.99662" y2="295.46054" gradientUnits="userSpaceOnUse" id="color-9"><stop offset="0" stop-color="#ff5454"/><stop offset="1" stop-color="#eb0000"/></linearGradient><linearGradient x1="62.38639" y1="295.92503" x2="66.64096" y2="300.17967" gradientUnits="userSpaceOnUse" id="color-10"><stop offset="0" stop-color="#ffffff"/><stop offset="1" stop-color="#b3b3b3"/></linearGradient><linearGradient x1="52.00589" y1="302.61262" x2="59.98324" y2="310.58997" gradientUnits="userSpaceOnUse" id="color-11"><stop offset="0" stop-color="#ffffff"/><stop offset="1" stop-color="#808080"/></linearGradient><linearGradient x1="55.48423" y1="298.19417" x2="64.24051" y2="306.95053" gradientUnits="userSpaceOnUse" id="color-12"><stop offset="0" stop-color="#ff5454"/><stop offset="1" stop-color="#eb0000"/></linearGradient><linearGradient x1="50.26" y1="312.17467" x2="53.88607" y2="308.54859" gradientUnits="userSpaceOnUse" id="color-13"><stop offset="0" stop-color="#929292"/><stop offset="1" stop-color="#ffffff"/></linearGradient><linearGradient x1="54.75874" y1="316.22105" x2="65.25129" y2="305.72848" gradientUnits="userSpaceOnUse" id="color-14"><stop offset="0" stop-color="#eb0000"/><stop offset="1" stop-color="#ff5454"/></linearGradient><radialGradient cx="33.07288" cy="328.93962" r="22.42584" gradientUnits="userSpaceOnUse" id="color-15"><stop offset="0" stop-color="#000000"/><stop offset="1" stop-color="#000000" stop-opacity="0"/></radialGradient><linearGradient x1="21.50065" y1="340.5119" x2="44.64505" y2="317.36744" gradientUnits="userSpaceOnUse" id="color-16"><stop offset="0" stop-color="#eb0000"/><stop offset="1" stop-color="#ff7979"/></linearGradient><linearGradient x1="44.94153" y1="340.25012" x2="39.0369" y2="334.34555" gradientUnits="userSpaceOnUse" id="color-17"><stop offset="0" stop-color="#ffffff" stop-opacity="0.59677"/><stop offset="1" stop-color="#ffffff" stop-opacity="0"/></linearGradient><linearGradient x1="34.42439" y1="327.35893" x2="41.31647" y2="320.46682" gradientUnits="userSpaceOnUse" id="color-18"><stop offset="0" stop-color="#000000"/><stop offset="1" stop-color="#cc0000"/></linearGradient><linearGradient x1="26.84526" y1="313.66517" x2="48.1182" y2="334.93818" gradientUnits="userSpaceOnUse" id="color-19"><stop offset="0" stop-color="#ff5454"/><stop offset="1" stop-color="#eb0000"/></linearGradient><linearGradient x1="39.89858" y1="332.74451" x2="46.80244" y2="325.84075" gradientUnits="userSpaceOnUse" id="color-20"><stop offset="0" stop-color="#ffffff"/><stop offset="1" stop-color="#ffffff" stop-opacity="0"/></linearGradient><linearGradient x1="28.75665" y1="321.707" x2="35.6604" y2="314.80323" gradientUnits="userSpaceOnUse" id="color-21"><stop offset="0" stop-color="#ffffff"/><stop offset="1" stop-color="#ffffff" stop-opacity="0"/></linearGradient><linearGradient x1="33.63009" y1="157.14617" x2="233.06803" y2="157.14617" gradientUnits="userSpaceOnUse" id="color-22"><stop offset="0" stop-color="#ff0000" stop-opacity="0.74902"/><stop offset="1" stop-color="#00b3ff" stop-opacity="0.74902"/></linearGradient><linearGradient x1="246.93199" y1="157.14623" x2="446.36993" y2="157.14623" gradientUnits="userSpaceOnUse" id="color-23"><stop offset="0" stop-color="#ff0000" stop-opacity="0.74902"/><stop offset="1" stop-color="#00b3ff" stop-opacity="0.74902"/></linearGradient><linearGradient x1="246.93199" y1="157.14623" x2="446.36993" y2="157.14623" gradientUnits="userSpaceOnUse" id="color-24"><stop offset="0" stop-color="#ff4d4d"/><stop offset="1" stop-color="#4dc9ff"/></linearGradient></defs><g transform="translate(21,18)"><g data-paper-data="{&quot;isPaintingLayer&quot;:true}" fill-rule="nonzero" stroke-linejoin="miter" stroke-miterlimit="10" stroke-dasharray="" stroke-dashoffset="0" style="mix-blend-mode: normal"><path d="M-21,378v-396h522v396z" fill="url(#color-1)" stroke="none" stroke-width="0" stroke-linecap="butt"/><path d="M8.24962,47.3019c-2.13297,-2.13276 -2.37433,-5.20542 -2.37433,-5.20542v-29.20667c0,0 0.27811,-3.18659 2.41142,-5.32081c2.13331,-2.13422 5.31751,-2.41142 5.31751,-2.41142h44.12197c0,0 2.95226,0.14003 5.09492,2.26303c2.14266,2.12301 2.63402,5.39501 2.63402,5.39501v29.3736c0,0 -0.38308,3.18714 -2.52273,5.26108c-2.13965,2.07394 -5.3546,2.37433 -5.3546,2.37433h-43.97357c0,0 -3.22164,-0.38998 -5.35461,-2.52273z" fill-opacity="0.74902" fill="#000000" stroke="none" stroke-width="0" stroke-linecap="butt"/><path d="M406.57279,33.66357c-1.68691,-1.68674 -1.87779,-4.11684 -1.87779,-4.11684v-18.27394c0,0 0.21995,-2.52019 1.90713,-4.20809c1.68718,-1.6879 4.20548,-1.90713 4.20548,-1.90713h58.00411c0,0 2.33486,0.11074 4.02943,1.78977c1.69457,1.67903 2.08319,4.26677 2.08319,4.26677v18.40596c0,0 -0.30298,2.52062 -1.99517,4.16085c-1.69219,1.64023 -4.23481,1.8778 -4.23481,1.8778h-57.88675c0,0 -2.54791,-0.30842 -4.23482,-1.99516z" fill-opacity="0.74902" fill="#000000" stroke="none" stroke-width="0" stroke-linecap="butt"/><path d="M406.57279,68.66357c-1.68691,-1.68674 -1.87779,-4.11684 -1.87779,-4.11684v-18.27394c0,0 0.21995,-2.52019 1.90713,-4.20809c1.68718,-1.6879 4.20548,-1.90713 4.20548,-1.90713h58.00411c0,0 2.33486,0.11074 4.02943,1.78977c1.69457,1.67903 2.08319,4.26677 2.08319,4.26677v18.40596c0,0 -0.30298,2.52063 -1.99517,4.16085c-1.69219,1.64023 -4.23481,1.8778 -4.23481,1.8778h-57.88675c0,0 -2.54791,-0.30842 -4.23482,-1.99516z" fill-opacity="0.74902" fill="#000000" stroke="none" stroke-width="0" stroke-linecap="butt"/><path d="M398.28451,351.59349c-3.96098,-5.08265 -4.40919,-12.40526 -4.40919,-12.40526v-69.60363c0,0 0.51647,-7.59408 4.47809,-12.68025c3.96162,-5.08617 9.87475,-5.74678 9.87475,-5.74678h54.40269c0,0 5.48241,0.33371 9.46139,5.39314c3.97898,5.05943 4.89144,12.85705 4.89144,12.85705v70.00146c0,0 -0.71139,7.59543 -4.68476,12.53792c-3.97338,4.94249 -9.94365,5.65836 -9.94365,5.65836h-54.12711c0,0 -5.98267,-0.92937 -9.94365,-6.01201z" fill-opacity="0.74902" fill="#000000" stroke="none" stroke-width="0" stroke-linecap="butt"/><path d="M7.03449,351.59349c-3.96098,-5.08264 -4.40919,-12.40526 -4.40919,-12.40526v-69.60364c0,0 0.51647,-7.59408 4.47808,-12.68025c3.96162,-5.08616 9.87475,-5.74677 9.87475,-5.74677h54.40269c0,0 5.48241,0.33371 9.4614,5.39313c3.97898,5.05943 4.89144,12.85706 4.89144,12.85706v70.00145c0,0 -0.71138,7.59543 -4.68476,12.53792c-3.97338,4.94249 -9.94365,5.65836 -9.94365,5.65836h-54.12711c0,0 -5.98267,-0.92937 -9.94365,-6.01201z" fill-opacity="0.74902" fill="#ff0000" stroke="none" stroke-width="0" stroke-linecap="butt"/><g><path d="M52.98806,342.91534l-33.89078,-33.89078l41.22796,-41.22796l33.89078,33.89078z" fill="none" stroke="none" stroke-width="0" stroke-linecap="butt"/><path d="M62.91164,299.75667c-3.15008,-3.15008 -3.15009,-8.25737 -0.00001,-11.40745c3.15008,-3.15008 8.25736,-3.15008 11.40745,0.00001c3.15008,3.15008 3.15008,8.25736 0,11.40744c-3.15008,3.15008 -8.25736,3.15008 -11.40744,0z" fill="url(#color-2)" stroke="url(#color-3)" stroke-width="0" stroke-linecap="butt"/><path d="M47.67576,317.60803c-5.55078,-5.55078 -5.55077,-14.55037 0,-20.10114c5.55077,-5.55077 14.55037,-5.55077 20.10114,0c5.55078,5.55078 5.55077,14.55037 0,20.10114c-5.55077,5.55077 -14.55037,5.55077 -20.10114,0z" fill="url(#color-4)" stroke="url(#color-5)" stroke-width="0" stroke-linecap="butt"/><path d="M35.93377,322.06237c-5.43203,-5.43203 -5.43203,-14.23908 0,-19.67111c5.43203,-5.43203 14.23909,-5.43202 19.67111,0c5.43203,5.43203 5.43203,14.23908 0,19.67111c-5.43203,5.43203 -14.23909,5.43202 -19.67111,0z" fill="url(#color-6)" stroke="url(#color-7)" stroke-width="0" stroke-linecap="butt"/><path d="M37.28014,316.68363c-2.89744,-2.89744 -2.89743,-7.59511 0,-10.49254c2.89744,-2.89744 7.59511,-2.89743 10.49254,0c2.89744,2.89744 2.89743,7.59511 0,10.49254c-2.89744,2.89744 -7.59511,2.89743 -10.49254,0z" fill="url(#color-8)" stroke="#000000" stroke-width="0" stroke-linecap="butt"/><g><path d="M69.13165,295.00728l-1.5713,-1.5713l1.87347,-6.94997l6.76866,6.76866z" fill="url(#color-9)" stroke="#000000" stroke-width="0" stroke-linecap="butt"/><path d="M61.97544,304.84524l-4.25459,-4.25459l9.33109,-9.33109l4.25459,4.25459z" fill="url(#color-10)" stroke="none" stroke-width="0" stroke-linecap="butt"/><path d="M49.57508,313.02082l12.83898,-12.83898" fill="none" stroke="url(#color-11)" stroke-width="14" stroke-linecap="round"/><path d="M64.24051,306.95053l-8.75629,-8.75629" fill="none" stroke="url(#color-12)" stroke-width="7.5" stroke-linecap="round"/><path d="M55.1619,313.45054l-6.17775,-6.17775" fill="none" stroke="url(#color-13)" stroke-width="7.5" stroke-linecap="round"/></g><path d="M54.75874,316.22105c-2.89743,-2.89743 -2.89744,-7.59511 0,-10.49255c2.89744,-2.89744 7.59511,-2.89744 10.49255,0c2.89743,2.89743 2.89743,7.59511 0,10.49255c-2.89743,2.89743 -7.59511,2.89743 -10.49254,0z" fill="url(#color-14)" stroke="#000000" stroke-width="0" stroke-linecap="butt"/><path d="M32.91664,367.52882l-38.43284,-38.43284l38.74531,-38.74531l38.43284,38.43284z" fill="none" stroke="none" stroke-width="NaN" stroke-linecap="butt"/><path d="M48.93035,344.7972c-8.75784,8.75784 -22.9571,8.75783 -31.71493,0c-8.75784,-8.75784 -8.75783,-22.9571 0,-31.71493c8.75784,-8.75784 22.9571,-8.75783 31.71493,0c8.75784,8.75784 8.75783,22.9571 0,31.71493z" fill="url(#color-15)" stroke="#000000" stroke-width="0" stroke-linecap="butt"/><path d="M21.50065,340.5119c-6.39113,-6.39113 -6.39113,-16.7532 0,-23.14433c6.39113,-6.39113 16.7532,-6.39113 23.14433,0c6.39113,6.39113 6.39113,16.7532 0,23.14433c-6.39113,6.39113 -16.7532,6.39113 -23.14433,0z" fill="url(#color-16)" stroke="#000000" stroke-width="0" stroke-linecap="butt"/><path d="M41.21285,331.11951c-1.1803,-1.1803 -1.1803,-3.09395 0,-4.27425c1.1803,-1.1803 3.09395,-1.1803 4.27425,0c1.1803,1.1803 1.1803,3.09395 0,4.27425c-1.1803,1.1803 -3.09395,1.1803 -4.27425,0z" fill="#000000" stroke="#000000" stroke-width="0" stroke-linecap="butt"/><path d="M30.9168,320.77585c-1.1803,-1.1803 -1.1803,-3.09395 0,-4.27425c1.1803,-1.1803 3.09395,-1.1803 4.27425,0c1.1803,1.1803 1.1803,3.09395 0,4.27425c-1.1803,1.1803 -3.09395,1.1803 -4.27425,0z" fill="#000000" stroke="#000000" stroke-width="0" stroke-linecap="butt"/><path d="M46.06144,324.17089l-8.53503,-8.53503" fill="none" stroke="#000000" stroke-width="2" stroke-linecap="round"/><path d="M40.07182,336.1335c3.79635,-3.987 7.17211,-12.37781 8.78849,-11.20308c1.61638,1.17474 1.40285,10.01434 -3.75109,15.36516c-6.37929,6.62297 -14.63753,5.35294 -14.94353,4.39738c-0.306,-0.95557 6.12359,-4.58696 9.90613,-8.55947z" fill="url(#color-17)" stroke="#000000" stroke-width="0" stroke-linecap="butt"/><g stroke-width="0" stroke-linecap="butt"><path d="M45.0609,337.99548l-21.27294,-21.27294l1.87368,-1.7201c0,0 5.43983,-4.5443 10.21879,0.25642c4.78314,4.80492 0.22455,10.54048 0.22455,10.54048c0,0 5.97072,-4.7595 10.65235,0.11092c4.92613,5.12478 0.13273,10.25607 0.13273,10.25607z" fill="url(#color-18)" stroke="url(#color-19)"/><path d="M48.88957,329.19274l-8.3866,4.15618l-3.3239,-3.3239l9.14278,-4.54976c0,0 0.62302,0.39142 1.21946,1.18185c0.58141,0.77053 1.34826,2.53562 1.34826,2.53562z" fill="url(#color-20)" stroke="none"/><path d="M37.37427,317.25937l-8.64791,4.41749l-2.05477,-2.05477l8.78017,-4.91236c0,0 0.62303,0.39141 1.21946,1.18185c0.58141,0.77053 0.70306,1.3678 0.70306,1.3678z" fill="url(#color-21)" stroke="none"/></g><path d="M22.88269,315.26477l23.93206,23.93206" fill="none" stroke="#000000" stroke-width="2.5" stroke-linecap="round"/></g><text transform="translate(408.77362,26.52217) scale(0.46514,0.49639)" font-size="40" xml:space="preserve" fill="#ffffff" fill-rule="nonzero" stroke="none" stroke-width="1" stroke-linecap="butt" stroke-linejoin="miter" stroke-miterlimit="10" stroke-dasharray="" stroke-dashoffset="0" font-family="Sans Serif" font-weight="normal" text-anchor="start" style="mix-blend-mode: normal"><tspan x="0" dy="0">Credits</tspan></text><g fill="none" stroke="#ffffff" stroke-width="5"><path d="M420.63169,316.00003c0,-7.93543 6.43294,-14.36836 14.36836,-14.36836c7.93543,0 14.36836,6.43294 14.36836,14.36836c0,7.93543 -6.43294,14.36836 -14.36836,14.36836c-7.93543,0 -14.36836,-6.43294 -14.36836,-14.36836z" stroke-linecap="butt"/><path d="M460.05351,316.00003h-7.88199" stroke-linecap="round"/><path d="M417.82857,316.00003h-7.88199" stroke-linecap="round"/><path d="M435.00003,290.94658v7.88199" stroke-linecap="round"/><path d="M435.00003,341.05355v-7.88199" stroke-linecap="round"/><path d="M447.14211,303.85801l5.57342,-5.57342" stroke-linecap="round"/><path d="M417.28456,333.71556l5.57342,-5.57342" stroke-linecap="round"/><path d="M422.85798,303.85796l-5.57342,-5.57342" stroke-linecap="round"/><path d="M452.71553,333.71556l-5.57342,-5.57342" stroke-linecap="round"/></g><path d="M22.40976,28.26538h27.40447" fill="none" stroke="#ffffff" stroke-width="5" stroke-linecap="round"/><path d="M29.45664,36.34724l-8.3177,-8.3177l8.19888,-8.19889" fill="none" stroke="#ffffff" stroke-width="5" stroke-linecap="round"/><text transform="translate(409.53811,63.21591) scale(0.40133,0.55795)" font-size="40" xml:space="preserve" fill="#ffffff" fill-rule="nonzero" stroke="none" stroke-width="1" stroke-linecap="butt" stroke-linejoin="miter" stroke-miterlimit="10" stroke-dasharray="" stroke-dashoffset="0" font-family="Sans Serif" font-weight="normal" text-anchor="start" style="mix-blend-mode: normal"><tspan x="0" dy="0">Records</tspan></text><g stroke="none" stroke-linecap="butt"><path d="M39.84836,209.02988c-5.58615,-5.58558 -6.21827,-13.63278 -6.21827,-13.63278v-76.49105c0,0 0.72837,-8.34553 6.31543,-13.93497c5.58706,-5.58944 13.92633,-6.31543 13.92633,-6.31543h158.95443c0,0 7.73182,0.36672 13.34337,5.92678c5.61154,5.56007 6.89839,14.12929 6.89839,14.12929v76.92822c0,0 -1.00326,8.347 -6.60691,13.77857c-5.60364,5.43156 -14.02349,6.21827 -14.02349,6.21827h-158.56579c0,0 -8.43734,-1.02133 -14.02349,-6.60691z" fill="url(#color-22)" stroke-width="0"/><text transform="translate(79.98766,134.18061) scale(0.64049,0.64049)" font-size="40" xml:space="preserve" fill="#ffffff" fill-rule="nonzero" stroke="none" stroke-width="1" stroke-linecap="butt" stroke-linejoin="miter" stroke-miterlimit="10" stroke-dasharray="" stroke-dashoffset="0" font-family="Sans Serif" font-weight="normal" text-anchor="start" style="mix-blend-mode: normal"><tspan x="0" dy="0">Turf War</tspan></text><text transform="translate(47.15674,185.79562) scale(1.35108,1.35108)" font-size="40" xml:space="preserve" fill="#ffffff" fill-rule="nonzero" stroke="none" stroke-width="1" stroke-linecap="butt" stroke-linejoin="miter" stroke-miterlimit="10" stroke-dasharray="" stroke-dashoffset="0" font-family="Sans Serif" font-weight="normal" text-anchor="start" style="mix-blend-mode: normal"><tspan x="0" dy="0">Online</tspan></text><path d="M191.02187,197.69427c0,-2.78023 2.25383,-5.03406 5.03405,-5.03406c2.78023,0 5.03407,2.25383 5.03407,5.03406c0,2.78023 -2.25383,5.03406 -5.03407,5.03406c-2.78023,0 -5.03405,-2.25383 -5.03405,-5.03406z" data-paper-data="{&quot;index&quot;:null}" fill="#ffffff" stroke-width="0"/><path d="M201.57079,210.20075h-10.87244l5.43623,-12.36734z" data-paper-data="{&quot;index&quot;:null}" fill="#ffffff" stroke-width="0"/><text transform="translate(203.22174,208.07917) scale(0.4694,0.4694)" font-size="40" xml:space="preserve" data-paper-data="{&quot;index&quot;:null}" fill="#ffffff" fill-rule="nonzero" stroke="none" stroke-width="1" stroke-linecap="butt" stroke-linejoin="miter" stroke-miterlimit="10" stroke-dasharray="" stroke-dashoffset="0" font-family="Sans Serif" font-weight="normal" text-anchor="start" style="mix-blend-mode: normal"><tspan x="0" dy="0">12</tspan></text></g><path d="M446.36993,157.14623c0,32.30345 -44.6457,58.49057 -99.71897,58.49057c-55.07327,0 -99.71897,-26.18712 -99.71897,-58.49057c0,-32.30345 44.6457,-58.49057 99.71897,-58.49057c55.07327,0 99.71897,26.18712 99.71897,58.49057z" fill="url(#color-23)" stroke="url(#color-24)" stroke-width="0" stroke-linecap="butt"/><text transform="translate(293.28954,134.18061) scale(0.64049,0.64049)" font-size="40" xml:space="preserve" fill="#ffffff" fill-rule="nonzero" stroke="none" stroke-width="1" stroke-linecap="butt" stroke-linejoin="miter" stroke-miterlimit="10" stroke-dasharray="" stroke-dashoffset="0" font-family="Sans Serif" font-weight="normal" text-anchor="start" style="mix-blend-mode: normal"><tspan x="0" dy="0">Turf War</tspan></text><text transform="translate(260.45864,185.79562) scale(1.35108,1.35108)" font-size="40" xml:space="preserve" fill="#ffffff" fill-rule="nonzero" stroke="none" stroke-width="1" stroke-linecap="butt" stroke-linejoin="miter" stroke-miterlimit="10" stroke-dasharray="" stroke-dashoffset="0" font-family="Sans Serif" font-weight="normal" text-anchor="start" style="mix-blend-mode: normal"><tspan x="0" dy="0">Offline</tspan></text><g stroke-linecap="butt"><path d="M145.00043,315.50378c-3.25662,-3.2563 -3.62514,-7.94767 -3.62514,-7.94767v-44.59291c0,0 0.42463,-4.8653 3.68178,-8.12385c3.25716,-3.25855 8.1188,-3.68178 8.1188,-3.68178h173.47867c0,0 4.50752,0.2138 7.77895,3.45521c3.27143,3.24142 4.02164,8.23712 4.02164,8.23712v44.84778c0,0 -0.58488,4.86616 -3.85171,8.03266c-3.26682,3.1665 -8.17544,3.62514 -8.17544,3.62514h-173.2521c0,0 -4.91882,-0.59542 -8.17545,-3.85171z" fill-opacity="0.74902" fill="#000000" stroke="none" stroke-width="0"/><text transform="translate(149.72399,269.91033) scale(0.51432,0.51432)" font-size="40" xml:space="preserve" fill="#ffffff" fill-rule="nonzero" stroke="none" stroke-width="1" stroke-linecap="butt" stroke-linejoin="miter" stroke-miterlimit="10" stroke-dasharray="" stroke-dashoffset="0" font-family="Sans Serif" font-weight="normal" text-anchor="start" style="mix-blend-mode: normal"><tspan x="0" dy="0">Next Splatmeet in:</tspan></text><text transform="translate(188.63898,299.92377) scale(0.7708,0.7708)" font-size="40" xml:space="preserve" fill="#ffffff" fill-rule="nonzero" stroke="none" stroke-width="1" stroke-linecap="butt" stroke-linejoin="miter" stroke-miterlimit="10" stroke-dasharray="" stroke-dashoffset="0" font-family="Sans Serif" font-weight="normal" text-anchor="start" style="mix-blend-mode: normal"><tspan x="0" dy="0">2:49:13</tspan></text><text transform="translate(210.66454,316.75582) scale(0.34559,0.34559)" font-size="40" xml:space="preserve" fill="#ffffff" fill-rule="nonzero" stroke="none" stroke-width="1" stroke-linecap="butt" stroke-linejoin="miter" stroke-miterlimit="10" stroke-dasharray="" stroke-dashoffset="0" font-family="Sans Serif" font-weight="normal" text-anchor="start" style="mix-blend-mode: normal"><tspan x="0" dy="0">2am EST</tspan></text><path d="M308.99899,303.09425c0,-7.2374 5.86708,-13.10448 13.10448,-13.10448c7.2374,0 13.10448,5.86708 13.10448,13.10448c0,7.2374 -5.86708,13.10448 -13.10448,13.10448c-7.2374,0 -13.10448,-5.86708 -13.10448,-13.10448z" fill="#ffffff" stroke="none" stroke-width="0"/><text transform="translate(317.4004,311.88444) scale(0.5912,0.5912)" font-size="40" xml:space="preserve" fill="#404040" fill-rule="nonzero" stroke="#404040" stroke-width="1" stroke-linecap="butt" stroke-linejoin="miter" stroke-miterlimit="10" stroke-dasharray="" stroke-dashoffset="0" font-family="Sans Serif" font-weight="normal" text-anchor="start" style="mix-blend-mode: normal"><tspan x="0" dy="0">?</tspan></text></g></g></g></svg>