<svg version="1.1" xmlns="http://www.w3.org/2000/svg" xmlns:xlink="http://www.w3.org/1999/xlink" width="597.38194" height="442.10658" viewBox="0,0,597.38194,442.10658"><g transform="translate(71.90906,29.71324)"><g data-paper-data="{&quot;isPaintingLayer&quot;:true}" fill-rule="nonzero" stroke-linecap="butt" stroke-linejoin="miter" stroke-miterlimit="10" stroke-dasharray="" stroke-dashoffset="0" style="mix-blend-mode: normal"><path d="M-19.4674,-29.71324l544.94028,13.45668l-27.11213,428.6499l-510.88966,-3.74397l-29.20623,-45.52132l230.04964,-184.85176l14.11997,2.83394c0,0 -9.1376,2.78325 -9.05918,8.96161c0.09614,7.57573 11.32751,9.16706 11.32751,9.16706c0,0 -11.06719,3.75749 -8.74979,12.18984c2.1903,9.21563 30.21192,2.52839 30.21192,2.52839c0,0 -0.69519,13.28875 6.92136,17.86063c7.956,4.62013 53.72269,-27.9495 54.89007,-43.60109c1.13946,-15.2772 -27.24831,-47.50314 -44.52795,-52.75247c-8.54933,-2.5972 -11.88289,17.89848 -11.88289,17.89848c0,0 -23.88647,-12.73029 -30.72322,-2.81904c-3.95741,5.73705 5.575,12.57827 5.575,12.57827c0,0 -11.14398,0.13229 -11.81991,6.93155c-0.80984,8.14638 8.93545,11.79848 8.93545,11.79848c0,0 -9.09299,-3.48431 -11.63667,0.05725c-11.5964,16.14558 -224.84559,186.09265 -224.84559,186.09265l-38.95964,-102.97467z" fill="#000000" stroke="none" stroke-width="0"/><path d="M247.62882,157.81728c7.1879,0.63508 12.49998,6.97685 11.8649,14.16471c-0.63508,7.1879 -6.97681,12.50001 -14.16471,11.86493c-7.1879,-0.63508 -12.50001,-6.97685 -11.86494,-14.16475c0.63508,-7.1879 6.97685,-12.49998 14.16474,-11.86491z" fill="none" stroke="#000000" stroke-width="3.5"/><path d="M245.29661,184.21355c7.1879,0.63508 12.49998,6.97685 11.8649,14.16471c-0.63508,7.1879 -6.97681,12.50001 -14.16471,11.86493c-7.1879,-0.63508 -12.50001,-6.97685 -11.86494,-14.16475c0.63508,-7.1879 6.97685,-12.49998 14.16474,-11.86491z" fill="none" stroke="#000000" stroke-width="3.5"/><path d="M247.07815,164.04974c3.74579,0.33095 6.51406,3.63579 6.18311,7.3816c-0.33095,3.74579 -3.63582,6.5141 -7.38159,6.18314c-3.74579,-0.33095 -6.5141,-3.63584 -6.18314,-7.38164c0.33095,-3.74579 3.63583,-6.51406 7.38163,-6.18311z" fill="#000000" stroke="none" stroke-width="0"/><path d="M244.71357,190.81261c3.74579,0.33095 6.51406,3.63579 6.18311,7.3816c-0.33095,3.74579 -3.6358,6.51407 -7.3816,6.18311c-3.74579,-0.33095 -6.5141,-3.63582 -6.18315,-7.3816c0.33095,-3.74579 3.63583,-6.51406 7.38163,-6.18311z" fill="#000000" stroke="none" stroke-width="0"/></g></g></svg>