<svg version="1.1" xmlns="http://www.w3.org/2000/svg" xmlns:xlink="http://www.w3.org/1999/xlink" width="84.04024" height="69.68562" viewBox="0,0,84.04024,69.68562"><defs><linearGradient x1="215.30232" y1="180" x2="264.69768" y2="180" gradientUnits="userSpaceOnUse" id="color-1"><stop offset="0" stop-color="#ff0000" stop-opacity="0.90196"/><stop offset="1" stop-color="#ff4d4d" stop-opacity="0.90196"/></linearGradient></defs><g transform="translate(-200.05832,-144.71174)"><g data-paper-data="{&quot;isPaintingLayer&quot;:true}" fill-rule="nonzero" stroke="none" stroke-width="0" stroke-linecap="butt" stroke-linejoin="miter" stroke-miterlimit="10" stroke-dasharray="" stroke-dashoffset="0" style="mix-blend-mode: normal"><path d="M240.3918,201.75109c0,0 -33.78631,-23.30253 -22.94461,-37.67865c9.17357,-12.16417 22.5619,2.50511 22.5619,2.50511c0,0 9.07654,-13.2414 19.30894,-6.33213c19.13513,12.9207 -18.92623,41.50568 -18.92623,41.50568z" fill="url(#color-1)"/><path d="M200.05832,168.92652c0,-11.02959 8.94125,-19.97084 19.97084,-19.97084c11.02959,0 19.97084,8.94125 19.97084,19.97084c0,11.02959 -8.94125,19.97084 -19.97084,19.97084c-11.02959,0 -19.97084,-8.94125 -19.97084,-19.97084z" fill-opacity="0.50196" fill="#ff0000"/><path d="M221.23946,158.33595c0,-5.18058 4.19969,-9.38027 9.38027,-9.38027c5.18058,0 9.38027,4.19969 9.38027,9.38027c0,5.18058 -4.19969,9.38027 -9.38027,9.38027c-5.18058,0 -9.38027,-4.19969 -9.38027,-9.38027z" fill-opacity="0.50196" fill="#ff0000"/><path d="M234.07652,201.64736c0,-7.04163 5.70837,-12.75 12.75,-12.75c7.04163,0 12.75,5.70837 12.75,12.75c0,7.04163 -5.70837,12.75 -12.75,12.75c-7.04163,0 -12.75,-5.70837 -12.75,-12.75z" fill-opacity="0.50196" fill="#ff0000"/><path d="M270.56142,173.23143c0,-3.73818 3.03039,-6.76857 6.76857,-6.76857c3.73818,0 6.76857,3.03039 6.76857,6.76857c0,3.73818 -3.03039,6.76857 -6.76857,6.76857c-3.73818,0 -6.76857,-3.03039 -6.76857,-6.76857z" fill-opacity="0.50196" fill="#ff0000"/><path d="M240,180c0,-10.50976 8.51984,-19.0296 19.0296,-19.0296c10.50976,0 19.0296,8.51984 19.0296,19.0296c0,10.50976 -8.51984,19.0296 -19.0296,19.0296c-10.50976,0 -19.0296,-8.51984 -19.0296,-19.0296z" fill-opacity="0.50196" fill="#ff0000"/><path d="M246.66756,151.48031c0,-3.73818 3.03039,-6.76857 6.76857,-6.76857c3.73818,0 6.76857,3.03039 6.76857,6.76857c0,3.73818 -3.03039,6.76857 -6.76857,6.76857c-3.73818,0 -6.76857,-3.03039 -6.76857,-6.76857z" fill-opacity="0.50196" fill="#ff0000"/><path d="M215.30233,191.77326c0,-1.96575 1.59356,-3.55931 3.55931,-3.55931c1.96575,0 3.55931,1.59356 3.55931,3.55931c0,1.96575 -1.59356,3.55931 -3.55931,3.55931c-1.96575,0 -3.55931,-1.59356 -3.55931,-3.55931z" fill-opacity="0.50196" fill="#ff0000"/></g></g></svg>