<svg version="1.1" xmlns="http://www.w3.org/2000/svg" xmlns:xlink="http://www.w3.org/1999/xlink" width="37.6" height="43.6" viewBox="0,0,37.6,43.6"><g transform="translate(-221.20002,-158.2)"><g data-paper-data="{&quot;isPaintingLayer&quot;:true}" fill-rule="nonzero" stroke-linecap="butt" stroke-linejoin="miter" stroke-miterlimit="10" stroke-dasharray="" stroke-dashoffset="0" style="mix-blend-mode: normal"><path d="M225.91184,191.36705l3.20339,-23.24246c0.11187,-0.79983 0.48085,-1.53187 1.10694,-2.19614c0.63731,-0.66426 1.38645,-0.9964 2.2474,-0.9964c0.8274,0 1.55417,0.29824 2.1803,0.89472c0.63733,0.58293 1.05661,1.28108 1.25788,2.09447l4.05876,16.49137h0.067l4.05876,-16.49137c0.20126,-0.79983 0.61496,-1.49798 1.24109,-2.09447c0.63733,-0.59648 1.36409,-0.89472 2.18033,-0.89472c0.86094,0 1.61008,0.33213 2.2474,0.9964c0.63733,0.66426 1.01189,1.39631 1.1237,2.19614l3.20339,23.24246c0.0224,0.16267 0.0336,0.39991 0.0336,0.71171c0,0.90828 -0.2404,1.63355 -0.72119,2.1758c-0.46961,0.54225 -1.05661,0.81338 -1.76101,0.81338c-0.83858,0 -1.46473,-0.23046 -1.87843,-0.69137c-0.40252,-0.46092 -0.67086,-1.19974 -0.80503,-2.21647l-2.01261,-16.95906h-0.08379l-4.10905,17.46743c-0.40252,1.59965 -1.31937,2.39948 -2.75057,2.39948c-1.45355,0 -2.3704,-0.79983 -2.75054,-2.39948l-4.12585,-17.46743h-0.0672l-2.02937,16.95906c-0.12307,1.00317 -0.39141,1.742 -0.80503,2.21647c-0.40254,0.46091 -1.02309,0.69137 -1.86167,0.69137c-0.7044,0 -1.297,-0.27113 -1.7778,-0.81338c-0.4696,-0.55581 -0.70439,-1.28108 -0.70439,-2.1758c0,-0.3118 0.0112,-0.54903 0.0336,-0.71171z" fill="#ff0000" stroke="#ff0000" stroke-width="0.5"/><path d="M221.20003,201.80001v-43.6h37.6v43.6z" fill="none" stroke="none" stroke-width="0"/></g></g></svg>