<svg version="1.1" xmlns="http://www.w3.org/2000/svg" xmlns:xlink="http://www.w3.org/1999/xlink" width="208.01519" height="70.48085" viewBox="0,0,208.01519,70.48085"><defs><linearGradient x1="239.93833" y1="153.77323" x2="239.93833" y2="205.38294" gradientUnits="userSpaceOnUse" id="color-1"><stop offset="0" stop-color="#000000" stop-opacity="0.63137"/><stop offset="1" stop-color="#000000" stop-opacity="0.37255"/></linearGradient></defs><g transform="translate(-135.9924,-144.75958)"><g data-paper-data="{&quot;isPaintingLayer&quot;:true}" fill-rule="nonzero" stroke-linejoin="miter" stroke-miterlimit="10" stroke-dasharray="" stroke-dashoffset="0" style="mix-blend-mode: normal"><path d="M338.72603,181.63723c-0.2961,14.20544 -44.76489,24.79932 -99.32384,23.66208c-54.55895,-1.13724 -98.54768,-13.57492 -98.25158,-27.78036c0.29609,-14.20544 44.7649,-24.79932 99.32386,-23.66209c54.55896,1.13724 98.54768,13.57493 98.25159,27.78037z" fill="url(#color-1)" stroke="none" stroke-width="0" stroke-linecap="butt"/><path d="M211.76544,176.48593c-8.5484,-0.17818 -15.33381,-7.25248 -15.15564,-15.80089c0.17818,-8.5484 7.25248,-15.33381 15.80089,-15.15563c8.54841,0.17818 15.33382,7.25248 15.15563,15.80089c-0.17818,8.5484 -7.25248,15.33382 -15.80089,15.15563z" fill-opacity="0.84706" fill="#00b1fc" stroke="none" stroke-width="0" stroke-linecap="butt"/><path d="M268.88856,210.92378c-8.5484,-0.17818 -15.33382,-7.25249 -15.15563,-15.8009c0.17819,-8.5484 7.25248,-15.33381 15.80089,-15.15562c8.54841,0.17818 15.33382,7.25248 15.15563,15.80089c-0.17819,8.5484 -7.25249,15.33381 -15.8009,15.15563z" fill-opacity="0.73333" fill="#ff0000" stroke="none" stroke-width="0" stroke-linecap="butt"/><path d="M151.15146,200.27173c-8.5484,-0.17818 -15.33381,-7.25248 -15.15563,-15.80089c0.17818,-8.5484 7.25249,-15.33382 15.8009,-15.15563c8.54841,0.17818 15.33381,7.25249 15.15563,15.80089c-0.17818,8.54841 -7.25248,15.33381 -15.80089,15.15563z" fill-opacity="0.73333" fill="#ff0000" stroke="none" stroke-width="0" stroke-linecap="butt"/><path d="M328.20326,183.92281c-8.5484,-0.17818 -15.33381,-7.25248 -15.15562,-15.80089c0.17819,-8.5484 7.25248,-15.33381 15.80089,-15.15562c8.54841,0.17818 15.33381,7.25248 15.15563,15.80088c-0.17819,8.54841 -7.25249,15.33382 -15.80089,15.15563z" fill-opacity="0.84706" fill="#00b1fc" stroke="none" stroke-width="0" stroke-linecap="butt"/><path d="M315.21924,195.0382c-5.78275,-0.12054 -10.37288,-4.9061 -10.25234,-10.68883c0.12054,-5.78274 4.9061,-10.37287 10.68884,-10.25234c5.78275,0.12054 10.37287,4.90609 10.25233,10.68883c-0.12054,5.78274 -4.90609,10.37288 -10.68883,10.25234z" fill-opacity="0.84706" fill="#00b1fc" stroke="none" stroke-width="0" stroke-linecap="butt"/><path d="M248.55436,214.14345c-5.15418,-0.10743 -9.24539,-4.37283 -9.13795,-9.527c0.10743,-5.15418 4.37283,-9.24539 9.52701,-9.13796c5.15419,0.10744 9.24539,4.37282 9.13796,9.52701c-0.10744,5.15418 -4.37283,9.24538 -9.52701,9.13795z" fill-opacity="0.73333" fill="#ff0000" stroke="none" stroke-width="0" stroke-linecap="butt"/><path d="M279.27377,215.23921c-3.01709,-0.06288 -5.41194,-2.5597 -5.34905,-5.57679c0.06288,-3.01709 2.55971,-5.41193 5.57679,-5.34905c3.01709,0.06288 5.41193,2.5597 5.34905,5.57678c-0.06288,3.01709 -2.5597,5.41194 -5.57678,5.34906z" fill-opacity="0.73333" fill="#ff0000" stroke="none" stroke-width="0" stroke-linecap="butt"/><path d="M240.7589,162.06073c-4.77706,-0.09958 -8.56889,-4.05287 -8.46932,-8.82992c0.09958,-4.77705 4.05286,-8.56889 8.82992,-8.46932c4.77706,0.09957 8.56889,4.05286 8.46932,8.82991c-0.09958,4.77706 -4.05286,8.56891 -8.82991,8.46933z" fill-opacity="0.84706" fill="#00b1fc" stroke="none" stroke-width="0" stroke-linecap="butt"/><path d="M195.10172,167.4852c-3.51994,-0.07337 -6.31392,-2.98632 -6.24056,-6.50625c0.07337,-3.51993 2.98631,-6.31392 6.50625,-6.24055c3.51994,0.07337 6.31392,2.98632 6.24056,6.50625c-0.07336,3.51993 -2.98631,6.31392 -6.50625,6.24055z" fill-opacity="0.84706" fill="#00b1fc" stroke="none" stroke-width="0" stroke-linecap="butt"/><path d="M171.1537,202.05498c-4.77705,-0.09958 -8.56889,-4.05287 -8.46932,-8.82991c0.09958,-4.77705 4.05287,-8.5689 8.82992,-8.46932c4.77705,0.09958 8.56889,4.05287 8.46932,8.82992c-0.09958,4.77705 -4.05286,8.5689 -8.82991,8.46932z" fill-opacity="0.73333" fill="#ff0000" stroke="none" stroke-width="0" stroke-linecap="butt"/><path d="M144.82586,165.07094c-3.64564,-0.07599 -6.53942,-3.09296 -6.46343,-6.73861c0.076,-3.64565 3.09296,-6.53942 6.73861,-6.46343c3.64565,0.07599 6.53942,3.09297 6.46343,6.73862c-0.07599,3.64565 -3.09296,6.53942 -6.73861,6.46342z" fill-opacity="0.73333" fill="#ff0000" stroke="none" stroke-width="0" stroke-linecap="butt"/><path d="M330.31805,202.63997c-2.63995,-0.05503 -4.73545,-2.23974 -4.68042,-4.87969c0.05503,-2.63995 2.23974,-4.73544 4.87969,-4.68041c2.63995,0.05503 4.73544,2.23973 4.68042,4.87968c-0.05503,2.63995 -2.23974,4.73545 -4.87969,4.68042z" fill-opacity="0.84706" fill="#00b1fc" stroke="none" stroke-width="0" stroke-linecap="butt"/><g fill="#ffffff" stroke="none" stroke-width="0.40889" stroke-linecap="butt"><path d="M159.07301,155.22191c1.25373,-0.07793 2.74246,0.00933 4.46622,0.26178c1.74166,0.25134 3.26549,0.75893 4.57152,1.52278c1.3049,0.74593 1.99744,1.76368 2.07759,3.05322c0.07014,1.12834 -0.21005,2.11665 -0.84054,2.96492c-0.63161,0.83035 -1.49367,1.27948 -2.5862,1.34739c-0.50149,0.03117 -1.05329,-0.02443 -1.65546,-0.16679c-0.58538,-0.16139 -1.19873,-0.33902 -1.84006,-0.53289c-0.62342,-0.19497 -1.25244,-0.33568 -1.8871,-0.42208c-0.61785,-0.10543 -1.29395,-0.13534 -2.02827,-0.08969c-1.23582,0.07682 -2.28145,0.46544 -3.13686,1.16587c-0.83752,0.69931 -1.22233,1.59522 -1.15442,2.68776c0.07347,1.18208 1.1265,2.06953 3.15906,2.66238c2.04936,0.57382 4.31697,1.18802 6.80286,1.84258c2.5038,0.65346 4.65034,1.77859 6.43965,3.37543c1.78821,1.57892 2.78251,3.9803 2.98288,7.20414c0.15585,2.50743 -0.34136,4.77678 -1.49163,6.80804c-1.15029,2.03126 -2.76723,3.64202 -4.85078,4.83231c-2.08353,1.19027 -4.39692,1.86447 -6.94017,2.02255c-3.1343,0.19481 -6.18057,-0.07433 -9.13879,-0.80739c-2.94143,-0.7521 -4.48284,-2.26546 -4.62423,-4.54006c-0.06902,-1.11043 0.205,-2.05341 0.82203,-2.82891c0.63383,-0.79454 1.50596,-1.2263 2.61638,-1.29532c0.53731,-0.03339 1.13393,0.01942 1.78983,0.15843c0.6559,0.13902 1.49646,0.35648 2.52169,0.65235c1.02411,0.27796 1.91842,0.49206 2.68289,0.64231c0.76337,0.13234 1.55699,0.17291 2.38085,0.12171c1.18208,-0.07348 2.18177,-0.33338 2.99907,-0.77972c0.81616,-0.46426 1.4169,-1.06794 1.80222,-1.81108c0.40321,-0.74425 0.57644,-1.57306 0.51967,-2.4865c-0.08684,-1.397 -0.63612,-2.27981 -1.64789,-2.64843c-0.99387,-0.36975 -3.28053,-1.00072 -6.85996,-1.89297c-3.57941,-0.89225 -6.23808,-2.01252 -7.97598,-3.36085c-1.72001,-1.34942 -2.66905,-3.45697 -2.84717,-6.3226c-0.15585,-2.50743 0.32567,-4.73984 1.44459,-6.69723c1.13573,-1.9764 2.71961,-3.54018 4.75166,-4.69129c2.03204,-1.15113 4.25701,-1.80183 6.67488,-1.95211z"/><path d="M239.87891,170.52246l-0.34108,16.36365c-0.02683,1.28696 -0.22808,2.32323 -0.60376,3.10885c-0.37568,0.78565 -1.26685,1.1638 -2.67352,1.13448c-0.89786,-0.01872 -1.58888,-0.26517 -2.07304,-0.73935c-0.46888,-0.48885 -0.81338,-1.19967 -1.03346,-2.13246c-1.7939,2.0286 -3.91793,3.01735 -6.3721,2.96619c-2.03517,-0.04243 -3.87938,-0.6273 -5.53262,-1.75465c-1.65326,-1.12734 -2.93862,-2.66621 -3.8561,-4.61658c-0.9022,-1.96504 -1.32789,-4.16716 -1.27706,-6.60637c0.04897,-2.34942 0.58022,-4.49415 1.59378,-6.43422c1.01387,-1.95504 2.37051,-3.47626 4.06992,-4.56366c1.69974,-1.10237 3.54473,-1.63282 5.53501,-1.59133c1.24205,0.02589 2.41894,0.30493 3.53068,0.83713c1.11173,0.5322 2.01629,1.30708 2.71369,2.32467c0.10663,-0.8062 0.46455,-1.45747 1.07372,-1.95379c0.62445,-0.51097 1.34073,-0.75803 2.14881,-0.74119c1.40666,0.02933 2.28115,0.45176 2.62345,1.26733c0.34262,0.80062 0.50051,1.84439 0.47368,3.13134zM222.73794,178.38422c-0.02339,1.12234 0.14869,2.20385 0.51624,3.24451c0.38282,1.026 0.95661,1.86884 1.72134,2.52854c0.78002,0.64504 1.73118,0.97924 2.85352,1.00263c1.61616,0.03368 2.88706,-0.60603 3.81268,-1.91915c0.92594,-1.32807 1.40733,-2.87504 1.44412,-4.64086c0.02308,-1.10737 -0.14916,-2.18137 -0.51671,-3.22201c-0.35228,-1.05532 -0.91811,-1.92045 -1.69749,-2.59542c-0.76443,-0.67466 -1.68538,-1.02323 -2.76281,-1.04568c-1.10737,-0.02309 -2.07196,0.28618 -2.89377,0.92777c-0.80653,0.62694 -1.41525,1.46011 -1.82615,2.4995c-0.41092,1.03941 -0.6279,2.1128 -0.65099,3.22016z"/><path d="M205.51823,190.97143l-2.26716,-30.74853c-0.0875,-1.1867 0.16689,-2.16979 0.76319,-2.94928c0.61138,-0.79693 1.45353,-1.23495 2.52642,-1.31405c0.69901,-0.05154 1.32934,0.0736 1.89097,0.37542c0.57666,0.28436 1.0422,0.72402 1.39663,1.31897c0.35323,0.57871 0.5586,1.25821 0.61613,2.03852l2.26716,30.74854c0.05754,0.78032 -0.04537,1.4907 -0.3087,2.13121c-0.26453,0.62425 -0.66054,1.12745 -1.18807,1.50955c-0.52874,0.36589 -1.13449,0.57401 -1.81726,0.62435c-1.0729,0.07911 -1.96958,-0.22254 -2.69003,-0.90493c-0.70538,-0.69984 -1.1018,-1.64311 -1.1893,-2.82981z"/><path d="M311.55362,188.40081l0.49412,-17.94179c0.0306,-1.11091 0.35968,-2.00036 0.98726,-2.66839c0.6432,-0.68285 1.46698,-1.01044 2.47135,-0.98277c0.86742,0.02388 1.56137,0.26382 2.08185,0.71982c0.53569,0.45641 0.85371,1.07434 0.95408,1.8538c1.35943,-1.8053 3.54572,-2.66647 6.55883,-2.58348c1.76526,0.04862 3.33785,0.45743 4.71778,1.22643c1.38032,0.7538 2.44731,1.8264 3.20092,3.21779c0.75402,1.37618 1.10526,3.00017 1.05372,4.87198l-0.3552,12.89706c-0.02013,0.73047 -0.18271,1.38085 -0.48778,1.95115c-0.30466,0.5551 -0.72006,0.9853 -1.24625,1.2906c-0.52579,0.29012 -1.10827,0.42638 -1.74742,0.40879c-1.00438,-0.02767 -1.80911,-0.39249 -2.41417,-1.09448c-0.58943,-0.71678 -0.86884,-1.63062 -0.83824,-2.74153l0.32313,-11.7329c0.04149,-1.50657 -0.33795,-2.65921 -1.13834,-3.45795c-0.78476,-0.81354 -1.8315,-1.23834 -3.14024,-1.27437c-0.88261,-0.02432 -1.65678,0.15996 -2.32247,0.55281c-0.66525,0.37765 -1.17471,0.90425 -1.52835,1.57985c-0.35366,0.6756 -0.54285,1.46231 -0.56758,2.36015l-0.32312,11.73291c-0.02013,0.73047 -0.18271,1.38085 -0.48779,1.95115c-0.30463,0.5551 -0.72006,0.9853 -1.24625,1.2906c-0.52579,0.29012 -1.10827,0.42637 -1.74742,0.40878c-1.00437,-0.02767 -1.80909,-0.39248 -2.41415,-1.09447c-0.58944,-0.71678 -0.86887,-1.63063 -0.83827,-2.74154z"/><path d="M177.99594,197.51279l0.41844,-26.29154c0.01669,-1.04791 0.31726,-1.8903 0.90175,-2.52715c0.59907,-0.65097 1.37233,-0.96892 2.31977,-0.95384c1.69392,0.02696 2.74215,0.92672 3.14469,2.69924c0.60364,-0.93807 1.45484,-1.64246 2.5536,-2.11317c1.099,-0.48508 2.27293,-0.71767 3.52183,-0.69779c2.16764,0.03449 4.00999,0.65971 5.52702,1.87564c1.5314,1.21615 2.67655,2.79231 3.43548,4.72847c0.75892,1.93617 1.12125,3.98091 1.08698,6.13419c-0.03199,2.00973 -0.50055,3.93354 -1.40569,5.77141c-0.89055,1.82374 -2.14875,3.28986 -3.77457,4.39834c-1.62584,1.10846 -3.45078,1.64659 -5.47487,1.61437c-1.00487,-0.01599 -2.01393,-0.21872 -3.02721,-0.60818c-1.01304,-0.4038 -1.93016,-0.9712 -2.75134,-1.70223l-0.12371,7.77333c-0.01051,0.66036 -0.15648,1.26111 -0.43791,1.80226c-0.28142,0.54116 -0.66847,0.95139 -1.1611,1.23072c-0.49287,0.29369 -1.04077,0.43574 -1.6437,0.42615c-0.94744,-0.01508 -1.7103,-0.35027 -2.28859,-1.00562c-0.56417,-0.64077 -0.83778,-1.4923 -0.82088,-2.5546zM184.63459,179.6125c-0.02719,1.70827 0.37196,3.24382 1.19744,4.60668c0.83984,1.3631 2.06365,2.05745 3.67142,2.08303c1.03358,0.01644 1.9358,-0.28508 2.70668,-0.9046c0.77088,-0.61952 1.35058,-1.40721 1.73913,-2.36306c0.38877,-0.97022 0.5916,-1.98647 0.60851,-3.04874c0.0169,-1.06229 -0.15338,-2.09167 -0.51085,-3.08812c-0.35747,-0.99645 -0.91159,-1.81652 -1.66236,-2.46026c-0.73618,-0.65788 -1.62825,-0.99516 -2.67619,-1.01183c-1.07664,-0.01714 -2.00017,0.26971 -2.77058,0.86052c-0.75584,0.57668 -1.32791,1.33576 -1.71622,2.27727c-0.37395,0.94173 -0.56962,1.95811 -0.58698,3.04912z"/><path d="M247.90778,192.29266l-0.35074,-16.59816l-1.61337,0.03409c-0.94521,0.01998 -1.70902,-0.2492 -2.29147,-0.80752c-0.59907,-0.57431 -0.90878,-1.34219 -0.9291,-2.3037c-0.01894,-0.8963 0.2667,-1.65232 0.85694,-2.26804c0.59023,-0.61572 1.33351,-0.93305 2.22982,-0.95199l1.61336,-0.03409l-0.09091,-4.30232c-0.02513,-1.18966 0.28048,-2.15805 0.91685,-2.90516c0.65233,-0.76375 1.51628,-1.157 2.59185,-1.17974c0.70077,-0.0148 1.32364,0.14321 1.86866,0.47406c0.56098,0.31424 1.00282,0.77772 1.32554,1.39044c0.32237,0.59643 0.49183,1.28578 0.50836,2.068l0.09091,4.30233l2.05338,-0.04339c0.99409,-0.02101 1.82259,0.22235 2.48548,0.73008c0.66255,0.49142 1.00517,1.27492 1.02791,2.35049c0.02273,1.07559 -0.28633,1.88101 -0.92717,2.41627c-0.62454,0.53493 -1.44203,0.81307 -2.45243,0.83442l-2.05338,0.04339l0.35075,16.59817c0.01653,0.78224 -0.12348,1.48626 -0.42003,2.11206c-0.29689,0.60952 -0.71877,1.09125 -1.26562,1.4452c-0.54721,0.33763 -1.16302,0.51369 -1.84748,0.52816c-1.07558,0.02273 -1.9552,-0.32551 -2.63886,-1.04474c-0.66772,-0.73589 -1.01414,-1.69864 -1.03927,-2.88829z"/><path d="M272.76026,167.48105c1.61363,0.03363 3.10709,0.39756 4.48038,1.09172c1.38774,0.68033 2.56522,1.59701 3.53244,2.75005c0.98137,1.15331 1.72597,2.45746 2.23374,3.91244c0.52194,1.45529 0.76609,2.98976 0.73246,4.60339c-0.03393,1.62777 -0.34225,3.17195 -0.92497,4.63254c-0.56826,1.44672 -1.35225,2.71193 -2.35192,3.79563c-0.98524,1.06983 -2.19237,1.91556 -3.62141,2.53717c-1.41459,0.60777 -2.94285,0.89453 -4.58478,0.86031c-2.16566,-0.04514 -4.09365,-0.62344 -5.78393,-1.73491c-1.68999,-1.1256 -2.99,-2.61834 -3.9,-4.47821c-0.89556,-1.87374 -1.32062,-3.90052 -1.27518,-6.08033c0.03245,-1.55702 0.33282,-3.05889 0.90108,-4.5056c0.58272,-1.46059 1.38852,-2.75365 2.41741,-3.87923c1.02887,-1.12558 2.24368,-1.99947 3.6444,-2.62167c1.40073,-0.62221 2.90082,-0.91665 4.5003,-0.88332zM272.64076,173.2137c-1.04745,-0.02183 -1.95982,0.2707 -2.73716,0.87757c-0.76289,0.593 -1.33867,1.38108 -1.72734,2.36423c-0.38868,0.98316 -0.59392,1.99847 -0.61575,3.04592c-0.02212,1.0616 0.14064,2.08457 0.4883,3.06891c0.36211,0.97049 0.90484,1.76772 1.62819,2.39171c0.73781,0.61014 1.63751,0.92627 2.69911,0.9484c1.07575,0.02243 1.98785,-0.25594 2.73628,-0.8351c0.76289,-0.593 1.33837,-1.36694 1.72644,-2.32179c0.40252,-0.96869 0.61488,-1.98384 0.637,-3.04546c0.02183,-1.04745 -0.14108,-2.06336 -0.48874,-3.0477c-0.34738,-0.9985 -0.88965,-1.81697 -1.62687,-2.45541c-0.73722,-0.63844 -1.6437,-0.96888 -2.71945,-0.9913z"/><path d="M297.87545,170.60588c1.61363,0.03363 3.10709,0.39756 4.48038,1.09173c1.38774,0.68033 2.56523,1.59701 3.53245,2.75005c0.98137,1.15331 1.72596,2.45747 2.23374,3.91244c0.52194,1.45529 0.76609,2.98976 0.73246,4.60338c-0.03393,1.62777 -0.34226,3.17196 -0.92497,4.63254c-0.56826,1.44672 -1.35225,2.71193 -2.35192,3.79562c-0.98524,1.06983 -2.19236,1.91556 -3.62141,2.53717c-1.41459,0.60777 -2.94286,0.89453 -4.58479,0.8603c-2.16566,-0.04514 -4.09364,-0.62344 -5.78392,-1.7349c-1.68999,-1.1256 -2.99,-2.61834 -3.90001,-4.4782c-0.89556,-1.87373 -1.32061,-3.90052 -1.27518,-6.08033c0.03245,-1.55702 0.33281,-3.05889 0.90108,-4.50561c0.58272,-1.46059 1.38851,-2.75365 2.41739,-3.87922c1.02887,-1.12558 2.24368,-1.99947 3.64441,-2.62167c1.40073,-0.62221 2.90083,-0.91663 4.5003,-0.8833zM297.75595,176.33853c-1.04745,-0.02183 -1.95982,0.2707 -2.73716,0.87757c-0.76289,0.593 -1.33866,1.38109 -1.72733,2.36424c-0.38868,0.98316 -0.59393,1.99846 -0.61576,3.04592c-0.02212,1.0616 0.14064,2.08457 0.4883,3.06891c0.36211,0.97049 0.90484,1.76772 1.6282,2.39171c0.73781,0.61014 1.63751,0.92628 2.69911,0.94841c1.07575,0.02243 1.98785,-0.25594 2.73628,-0.8351c0.76289,-0.593 1.33837,-1.36694 1.72644,-2.3218c0.40252,-0.96869 0.61489,-1.98384 0.63701,-3.04545c0.02183,-1.04745 -0.14108,-2.06336 -0.48875,-3.0477c-0.34738,-0.9985 -0.88965,-1.81697 -1.62687,-2.45541c-0.73722,-0.63844 -1.6437,-0.96887 -2.71946,-0.99129z"/></g><g fill="none" stroke="#ffffff" stroke-width="1"><path d="M210.1734,196.61635l5.44892,-0.42655c0,0 -1.16276,2.46902 -2.15042,3.58913c-1.04671,1.18707 -3.96302,3.3441 -3.96302,3.3441" stroke-linecap="round"/><path d="M213.82914,199.63747l3.37617,3.00463" stroke-linecap="round"/><path d="M218.99909,196.01503l6.02443,-0.49677c0,0 -0.0185,2.23143 -0.51241,3.30291c-1.06197,2.30384 -4.3129,3.98685 -4.3129,3.98685" stroke-linecap="round"/><path d="M225.90719,194.63939c0.01268,-0.60823 0.51603,-1.09102 1.12425,-1.07834c0.60823,0.01268 1.09104,0.51604 1.07834,1.12426c-0.01268,0.60823 -0.51603,1.09102 -1.12426,1.07833c-0.60823,-0.01268 -1.09102,-0.51602 -1.07833,-1.12425z" stroke-linecap="butt"/><path d="M230.31459,194.91339l4.8031,-0.39222" stroke-linecap="round"/><path d="M229.07388,197.54764l7.08854,-0.48588c0,0 -0.07527,1.63138 -0.92807,2.66144c-1.89161,2.28473 -4.38866,2.55012 -4.38866,2.55012" stroke-linecap="round"/><path d="M239.12463,194.20127l0.30129,8.11245" stroke-linecap="round"/><path d="M239.43408,197.36768l4.47346,2.24662" stroke-linecap="round"/><path d="M248.59313,198.05083l-0.20165,-1.64788" stroke-linecap="round"/><path d="M246.4792,199.79702l-0.06225,-1.23033l4.08895,-0.41131c0,0 0.13242,1.03214 -0.16954,1.55764c-0.64927,1.12989 -2.42667,2.02971 -2.42667,2.02971" stroke-linecap="round"/><path d="M261.11032,198.52237l-7.76473,0.44361" stroke-linecap="round"/><path d="M266.5525,195.0739l-2.84372,-0.12363" stroke-linecap="round"/><path d="M271.02714,194.52505c0,0 -0.18864,2.50334 -1.98274,4.4774c-1.87062,2.05825 -4.93711,2.39134 -4.93711,2.39134" stroke-linecap="round"/></g></g></g></svg>