<svg version="1.1" xmlns="http://www.w3.org/2000/svg" xmlns:xlink="http://www.w3.org/1999/xlink" width="220.55194" height="219.8454" viewBox="0,0,220.55194,219.8454"><defs><radialGradient cx="263.94553" cy="67.47496" r="26.05926" gradientUnits="userSpaceOnUse" id="color-1"><stop offset="0" stop-color="#000000" stop-opacity="0.30588"/><stop offset="1" stop-color="#000000" stop-opacity="0"/></radialGradient><linearGradient x1="268.48301" y1="93.13617" x2="259.40805" y2="41.81377" gradientUnits="userSpaceOnUse" id="color-2"><stop offset="0" stop-color="#ff5454"/><stop offset="1" stop-color="#eb0000"/></linearGradient><radialGradient cx="271.66725" cy="108.72309" r="26.05927" gradientUnits="userSpaceOnUse" id="color-3"><stop offset="0" stop-color="#000000" stop-opacity="0.30588"/><stop offset="1" stop-color="#000000" stop-opacity="0"/></radialGradient><linearGradient x1="276.20474" y1="134.3843" x2="267.12978" y2="83.06189" gradientUnits="userSpaceOnUse" id="color-4"><stop offset="0" stop-color="#ff5454"/><stop offset="1" stop-color="#eb0000"/></linearGradient><radialGradient cx="291.34093" cy="148.34976" r="23.93565" gradientUnits="userSpaceOnUse" id="color-5"><stop offset="0" stop-color="#000000" stop-opacity="0.63137"/><stop offset="1" stop-color="#000000" stop-opacity="0"/></radialGradient><linearGradient x1="295.50865" y1="171.9198" x2="287.17321" y2="124.77974" gradientUnits="userSpaceOnUse" id="color-6"><stop offset="0" stop-color="#ff5454"/><stop offset="1" stop-color="#eb0000"/></linearGradient><linearGradient x1="302.32014" y1="159.78413" x2="280.94937" y2="163.56299" gradientUnits="userSpaceOnUse" id="color-7"><stop offset="0" stop-color="#eb0000"/><stop offset="1" stop-color="#ff5454"/></linearGradient><linearGradient x1="275.15342" y1="132.32879" x2="259.09045" y2="41.48683" gradientUnits="userSpaceOnUse" id="color-8"><stop offset="0" stop-color="#333333"/><stop offset="1" stop-color="#cacaca"/></linearGradient><linearGradient x1="246.25605" y1="39.41992" x2="263.71604" y2="138.16267" gradientUnits="userSpaceOnUse" id="color-9"><stop offset="0" stop-color="#ff4c4c"/><stop offset="1" stop-color="#ec0000"/></linearGradient><linearGradient x1="251.58605" y1="39.13997" x2="268.86383" y2="136.85233" gradientUnits="userSpaceOnUse" id="color-10"><stop offset="0" stop-color="#e8e8e8"/><stop offset="1" stop-color="#9e9e9e"/></linearGradient><linearGradient x1="280.21358" y1="77.66341" x2="283.04821" y2="93.69435" gradientUnits="userSpaceOnUse" id="color-11"><stop offset="0" stop-color="#929292"/><stop offset="1" stop-color="#000000"/></linearGradient><linearGradient x1="286.65087" y1="131.87742" x2="293.27653" y2="169.34798" gradientUnits="userSpaceOnUse" id="color-12"><stop offset="0" stop-color="#929292"/><stop offset="1" stop-color="#000000"/></linearGradient><linearGradient x1="297.42816" y1="134.50969" x2="276.05735" y2="138.28855" gradientUnits="userSpaceOnUse" id="color-13"><stop offset="0" stop-color="#eb0000"/><stop offset="1" stop-color="#ff5454"/></linearGradient><linearGradient x1="458.81281" y1="172.78443" x2="357.93581" y2="181.62287" gradientUnits="userSpaceOnUse" id="color-14"><stop offset="0" stop-color="#ffffff" stop-opacity="0.69412"/><stop offset="1" stop-color="#ff0000" stop-opacity="0.02353"/></linearGradient></defs><g transform="translate(-237.88184,-38.80253)"><g data-paper-data="{&quot;isPaintingLayer&quot;:true}" fill-rule="nonzero" stroke-linejoin="miter" stroke-miterlimit="10" stroke-dasharray="" stroke-dashoffset="0" style="mix-blend-mode: normal"><path d="M289.60667,62.93746c2.50598,14.17228 -6.95143,27.69269 -21.1237,30.19868c-14.17226,2.506 -27.69269,-6.95143 -30.19868,-21.12369c-2.50598,-14.17228 6.95143,-27.69269 21.12369,-30.19868c14.17226,-2.506 27.6927,6.95143 30.19868,21.12369z" data-paper-data="{&quot;index&quot;:null}" fill="url(#color-1)" stroke="url(#color-2)" stroke-width="0" stroke-linecap="butt"/><path d="M297.32842,104.18561c2.50598,14.17228 -6.95143,27.69269 -21.1237,30.19868c-14.17226,2.506 -27.69269,-6.95143 -30.19868,-21.12369c-2.50598,-14.17228 6.95143,-27.6927 21.12369,-30.19868c14.17226,-2.506 27.6927,6.95143 30.1987,21.12372z" data-paper-data="{&quot;index&quot;:null}" fill="url(#color-3)" stroke="url(#color-4)" stroke-width="0" stroke-linecap="butt"/><path d="M314.91092,144.18204c2.30178,13.01736 -6.38495,25.43597 -19.40231,27.73774c-13.01735,2.30177 -25.43597,-6.38493 -27.73773,-19.40228c-2.30178,-13.01736 6.38495,-25.43597 19.40231,-27.73774c13.01735,-2.30177 25.43597,6.38493 27.73773,19.40228z" data-paper-data="{&quot;index&quot;:null}" fill="url(#color-5)" stroke="url(#color-6)" stroke-width="0" stroke-linecap="butt"/><path d="M302.32014,159.78413c1.04352,5.90138 -2.89459,11.53132 -8.79596,12.57481c-5.90138,1.04352 -11.53132,-2.89459 -12.57481,-8.79596c-1.04352,-5.90138 2.89459,-11.53132 8.79596,-12.57481c5.90138,-1.04352 11.53132,2.89459 12.57481,8.79596z" data-paper-data="{&quot;index&quot;:null}" fill="url(#color-7)" stroke="#000000" stroke-width="0" stroke-linecap="butt"/><g data-paper-data="{&quot;index&quot;:null}"><path d="M254.00127,42.38673l8.54765,0.8503l15.37252,85.4533l-7.85724,4.53833z" data-paper-data="{&quot;index&quot;:null}" fill="url(#color-8)" stroke="none" stroke-width="0" stroke-linecap="butt"/><path d="M267.14713,137.55597l-3.87446,0.68508l-3.48975,-2.31077l-16.45596,-93.06462l2.48574,-3.36737l3.87446,-0.68508z" data-paper-data="{&quot;index&quot;:null}" fill="url(#color-9)" stroke="none" stroke-width="0" stroke-linecap="butt"/><path d="M270.77228,136.51488l-3.81688,0.67491l-17.27778,-97.71235l3.81688,-0.67491z" data-paper-data="{&quot;index&quot;:null}" fill="url(#color-10)" stroke="none" stroke-width="0" stroke-linecap="butt"/><path d="M263.4038,48.07176c0,0 10.02436,12.16985 14.60788,38.09136c4.26111,24.09815 -1.15461,37.99197 -1.15461,37.99197" data-paper-data="{&quot;index&quot;:null}" fill="none" stroke-opacity="0.53333" stroke="#000000" stroke-width="2" stroke-linecap="round"/><path d="M279.38009,104.29021l-9.25662,-16.73228l3.30187,-18.42809" data-paper-data="{&quot;index&quot;:null}" fill="none" stroke-opacity="0.53333" stroke="#000000" stroke-width="2" stroke-linecap="round"/><path d="M246.13032,46.42682l7.69827,43.5366" data-paper-data="{&quot;index&quot;:null}" fill="none" stroke-opacity="0.34902" stroke="#ffffff" stroke-width="4.5" stroke-linecap="round"/><path d="M250.33089,75.77353l-4.62587,-26.16101" data-paper-data="{&quot;index&quot;:null}" fill="none" stroke-opacity="0.34902" stroke="#ffffff" stroke-width="2.5" stroke-linecap="round"/><path d="M276.65115,78.29334l5.62911,2.15363l1.79978,10.17837l-4.59425,3.69894z" fill="url(#color-11)" stroke="none" stroke-width="0" stroke-linecap="butt"/><path d="M283.22513,85.79062c0,0 4.13331,3.15723 5.64143,13.44431c1.63448,11.14905 -5.05253,15.01279 -5.05253,15.01279l-6.8602,10.18588l8.35123,-1.73934l8.89705,50.40034c0,0 -7.19563,1.11856 -13.63414,-12.40884c-6.4385,-13.5274 -6.82605,-30.57831 -6.82605,-30.57831" fill="none" stroke-opacity="0.51765" stroke="#000000" stroke-width="2" stroke-linecap="round"/><path d="M282.54008,132.37429l6.90985,-0.9918l10.18808,36.84063c0,0 -3.84217,4.41568 -5.75274,4.79078c-2.4394,0.47898 -7.68862,-2.15165 -7.68862,-2.15165z" fill="url(#color-12)" stroke="none" stroke-width="0" stroke-linecap="butt"/></g><path d="M297.42816,134.50969c1.04351,5.90137 -2.89458,11.53133 -8.79598,12.57482c-5.90138,1.04352 -11.53133,-2.89458 -12.57483,-8.79599c-1.04351,-5.90137 2.89459,-11.53132 8.79597,-12.57481c5.90137,-1.04351 11.53132,2.89459 12.57481,8.79596z" data-paper-data="{&quot;index&quot;:null}" fill="url(#color-13)" stroke="#000000" stroke-width="0" stroke-linecap="butt"/><path d="M401.00128,258.64793c-0.40126,-0.25883 9.65939,-14.51556 9.65939,-14.51556c0,0 -25.37351,18.32036 -31.67298,10.88359c-0.84971,-1.00312 17.72815,-17.64013 17.72815,-17.64013l-19.111,2.46616c0,0 24.97199,-17.90358 25.51021,-57.83522c0.27419,-20.3423 -19.29803,-42.47055 -23.90888,-48.15474c-7.64046,-9.41909 10.99358,-1.45685 10.99358,-1.45685c0,0 -4.42384,-12.64673 -3.12574,-15.39816c2.96022,-6.27436 20.80159,9.03406 20.80159,9.03406c0,0 -4.94835,-14.42944 0.69026,-25.8487c0,0 48.67782,24.65695 49.84303,80.19546c1.40818,67.11947 -57.40761,78.27009 -57.40761,78.27009z" data-paper-data="{&quot;index&quot;:null}" fill="url(#color-14)" stroke="none" stroke-width="0" stroke-linecap="butt"/></g></g></svg>