<svg version="1.1" xmlns="http://www.w3.org/2000/svg" xmlns:xlink="http://www.w3.org/1999/xlink" width="480.66668" height="360" viewBox="0,0,480.66668,360"><defs><linearGradient x1="240.00002" y1="0" x2="240.00002" y2="181" gradientUnits="userSpaceOnUse" id="color-1"><stop offset="0" stop-color="#1b1b1b"/><stop offset="1" stop-color="#484848"/></linearGradient><linearGradient x1="240.00002" y1="360" x2="240.00002" y2="180" gradientUnits="userSpaceOnUse" id="color-2"><stop offset="0" stop-color="#1b1b1b"/><stop offset="1" stop-color="#484848"/></linearGradient></defs><g transform="translate(0.33332,0)"><g data-paper-data="{&quot;isPaintingLayer&quot;:true}" fill-rule="nonzero" stroke-width="0" stroke-linecap="butt" stroke-linejoin="miter" stroke-miterlimit="10" stroke-dasharray="" stroke-dashoffset="0" style="mix-blend-mode: normal"><path d="M-0.33332,181v-181h480.66667v181z" fill="url(#color-1)" stroke="#000000"/><path d="M480.33337,180v180h-480.66667v-180z" fill="url(#color-2)" stroke="#000000"/><g fill-opacity="0.66275" fill="#000000" stroke="none"><path d="M37.16668,49.5c0,-6.90356 5.59644,-12.5 12.5,-12.5c6.90356,0 12.5,5.59644 12.5,12.5c0,6.90356 -5.59644,12.5 -12.5,12.5c-6.90356,0 -12.5,-5.59644 -12.5,-12.5z"/><path d="M106.66669,135c0,-8.28427 6.71573,-15 15,-15c8.28427,0 15,6.71573 15,15c0,8.28427 -6.71573,15 -15,15c-8.28427,0 -15,-6.71573 -15,-15z"/><path d="M99.16669,283c0,-6.07513 4.92487,-11 11,-11c6.07513,0 11,4.92487 11,11c0,6.07513 -4.92487,11 -11,11c-6.07513,0 -11,-4.92487 -11,-11z"/><path d="M38.16668,162.25c0,-2.8995 2.3505,-5.25 5.25,-5.25c2.8995,0 5.25,2.3505 5.25,5.25c0,2.8995 -2.3505,5.25 -5.25,5.25c-2.8995,0 -5.25,-2.3505 -5.25,-5.25z"/><path d="M379.6667,141.25c0,-2.8995 2.3505,-5.25 5.25,-5.25c2.8995,0 5.25,2.3505 5.25,5.25c0,2.8995 -2.3505,5.25 -5.25,5.25c-2.8995,0 -5.25,-2.3505 -5.25,-5.25z"/><path d="M255.66669,321.5c0,-4.41828 3.58172,-8 8,-8c4.41828,0 8,3.58172 8,8c0,4.41828 -3.58172,8 -8,8c-4.41828,0 -8,-3.58172 -8,-8z"/><path d="M341.6667,252.5c0,-4.41828 3.58172,-8 8,-8c4.41828,0 8,3.58172 8,8c0,4.41828 -3.58172,8 -8,8c-4.41828,0 -8,-3.58172 -8,-8z"/><path d="M230.66669,201.5c0,-4.41828 3.58172,-8 8,-8c4.41828,0 8,3.58172 8,8c0,4.41828 -3.58172,8 -8,8c-4.41828,0 -8,-3.58172 -8,-8z"/><path d="M293.66668,88.5c0,-4.41828 3.58172,-8 8,-8c4.41828,0 8,3.58172 8,8c0,4.41828 -3.58172,8 -8,8c-4.41828,0 -8,-3.58172 -8,-8z"/><path d="M425.6667,217.5c0,-9.66499 7.83501,-17.5 17.5,-17.5c9.66498,0 17.5,7.83501 17.5,17.5c0,9.66499 -7.83501,17.5 -17.5,17.5c-9.66499,0 -17.5,-7.83501 -17.5,-17.5z"/><path d="M211.66669,96c0,-3.31371 2.68629,-6 6,-6c3.31371,0 6,2.68629 6,6c0,3.31371 -2.68629,6 -6,6c-3.31371,0 -6,-2.68629 -6,-6z"/><path d="M135.66669,219c0,-3.31371 2.68629,-6 6,-6c3.31371,0 6,2.68629 6,6c0,3.31371 -2.68629,6 -6,6c-3.31371,0 -6,-2.68629 -6,-6z"/><path d="M384.6667,326.5c0,-2.48528 2.01472,-4.5 4.5,-4.5c2.48528,0 4.5,2.01472 4.5,4.5c0,2.48528 -2.01472,4.5 -4.5,4.5c-2.48528,0 -4.5,-2.01472 -4.5,-4.5z"/></g><g data-paper-data="{&quot;index&quot;:null}" fill-opacity="0.2" fill="#bababa" stroke="none"><path d="M460.66669,89.5c0,6.90356 -5.59644,12.5 -12.5,12.5c-6.90356,0 -12.5,-5.59644 -12.5,-12.5c0,-6.90356 5.59644,-12.5 12.5,-12.5c6.90356,0 12.5,5.59644 12.5,12.5z"/><path d="M308.16666,244c0,8.28427 -6.71573,15 -15,15c-8.28427,0 -15,-6.71573 -15,-15c0,-8.28427 6.71573,-15 15,-15c8.28427,0 15,6.71573 15,15z"/><path d="M356.66669,26c0,6.07513 -4.92487,11 -11,11c-6.07513,0 -11,-4.92487 -11,-11c0,-6.07513 4.92487,-11 11,-11c6.07513,0 11,4.92487 11,11z"/><path d="M426.6667,316.75c0,2.8995 -2.3505,5.25 -5.25,5.25c-2.8995,0 -5.25,-2.3505 -5.25,-5.25c0,-2.8995 2.3505,-5.25 5.25,-5.25c2.8995,0 5.25,2.3505 5.25,5.25z"/><path d="M137.16667,80.75c0,2.8995 -2.3505,5.25 -5.25,5.25c-2.8995,0 -5.25,-2.3505 -5.25,-5.25c0,-2.8995 2.3505,-5.25 5.25,-5.25c2.8995,0 5.25,2.3505 5.25,5.25z"/><path d="M212.16668,39.5c0,4.41828 -3.58172,8 -8,8c-4.41828,0 -8,-3.58172 -8,-8c0,-4.41828 3.58172,-8 8,-8c4.41828,0 8,3.58172 8,8z"/><path d="M204.16667,161.5c0,4.41828 -3.58172,8 -8,8c-4.41828,0 -8,-3.58172 -8,-8c0,-4.41828 3.58172,-8 8,-8c4.41828,0 8,3.58172 8,8z"/><path d="M320.16666,157.5c0,4.41828 -3.58172,8 -8,8c-4.41828,0 -8,-3.58172 -8,-8c0,-4.41828 3.58172,-8 8,-8c4.41828,0 8,3.58172 8,8z"/><path d="M169.16667,261.5c0,4.41828 -3.58172,8 -8,8c-4.41828,0 -8,-3.58172 -8,-8c0,-4.41828 3.58172,-8 8,-8c4.41828,0 8,3.58172 8,8z"/><path d="M74.16666,329.5c0,9.66499 -7.83501,17.5 -17.5,17.5c-9.66498,0 -17.5,-7.83501 -17.5,-17.5c0,-9.66499 7.83501,-17.5 17.5,-17.5c9.66499,0 17.5,7.83501 17.5,17.5z"/><path d="M329.16666,311c0,3.31371 -2.68629,6 -6,6c-3.31371,0 -6,-2.68629 -6,-6c0,-3.31371 2.68629,-6 6,-6c3.31371,0 6,2.68629 6,6z"/><path d="M41.16666,204c0,3.31371 -2.68629,6 -6,6c-3.31371,0 -6,-2.68629 -6,-6c0,-3.31371 2.68629,-6 6,-6c3.31371,0 6,2.68629 6,6z"/><path d="M107.16667,18.5c0,2.48528 -2.01472,4.5 -4.5,4.5c-2.48528,0 -4.5,-2.01472 -4.5,-4.5c0,-2.48528 2.01472,-4.5 4.5,-4.5c2.48528,0 4.5,2.01472 4.5,4.5z"/></g></g></g></svg>