<svg version="1.1" xmlns="http://www.w3.org/2000/svg" xmlns:xlink="http://www.w3.org/1999/xlink" width="146" height="146" viewBox="0,0,146,146"><defs><radialGradient cx="240" cy="180" r="65.5" gradientUnits="userSpaceOnUse" id="color-1"><stop offset="0" stop-color="#ff0000"/><stop offset="1" stop-color="#ff0000" stop-opacity="0"/></radialGradient><radialGradient cx="240" cy="180" r="65.5" gradientUnits="userSpaceOnUse" id="color-2"><stop offset="0" stop-color="#ff0000"/><stop offset="1" stop-color="#ff0000" stop-opacity="0"/></radialGradient><radialGradient cx="240" cy="180" r="47.48927" gradientUnits="userSpaceOnUse" id="color-3"><stop offset="0" stop-color="#f7ff00"/><stop offset="1" stop-color="#f7ff00" stop-opacity="0"/></radialGradient></defs><g transform="translate(-167,-107)"><g data-paper-data="{&quot;isPaintingLayer&quot;:true}" fill-rule="nonzero" stroke-linecap="butt" stroke-linejoin="miter" stroke-miterlimit="10" stroke-dasharray="" stroke-dashoffset="0" style="mix-blend-mode: normal"><path d="M174.5,180c0,-36.17465 29.32535,-65.5 65.5,-65.5c36.17465,0 65.5,29.32535 65.5,65.5c0,36.17465 -29.32535,65.5 -65.5,65.5c-36.17465,0 -65.5,-29.32535 -65.5,-65.5z" fill="url(#color-1)" stroke="none" stroke-width="0"/><path d="M167,253v-146h146v146z" fill="none" stroke="none" stroke-width="0"/><path d="M174.5,180c0,-36.17465 29.32535,-65.5 65.5,-65.5c36.17465,0 65.5,29.32535 65.5,65.5c0,36.17465 -29.32535,65.5 -65.5,65.5c-36.17465,0 -65.5,-29.32535 -65.5,-65.5z" fill="url(#color-2)" stroke="none" stroke-width="0"/><path d="M192.51073,180c0,-26.2276 21.26167,-47.48927 47.48927,-47.48927c26.2276,0 47.48927,21.26167 47.48927,47.48927c0,26.2276 -21.26167,47.48927 -47.48927,47.48927c-26.2276,0 -47.48927,-21.26167 -47.48927,-47.48927z" fill="url(#color-3)" stroke="none" stroke-width="0"/><text transform="translate(183.8814,195.51786) rotate(-3.77823) scale(0.87298,0.98218) skewX(0.78591)" font-size="40" xml:space="preserve" fill="#000000" fill-rule="nonzero" stroke="#ffffff" stroke-width="12" stroke-linecap="butt" stroke-linejoin="miter" stroke-miterlimit="10" stroke-dasharray="" stroke-dashoffset="0" font-family="Sans Serif" font-weight="normal" text-anchor="start" style="mix-blend-mode: normal"><tspan x="0" dy="0">ナイス!</tspan></text><text transform="translate(183.49,194.82617) rotate(-3.07276) scale(0.87316,0.98202) skewX(0.60452)" font-size="40" xml:space="preserve" fill="#ffffff" fill-rule="nonzero" stroke="#000000" stroke-width="6" stroke-linecap="butt" stroke-linejoin="miter" stroke-miterlimit="10" stroke-dasharray="" stroke-dashoffset="0" font-family="Sans Serif" font-weight="normal" text-anchor="start" style="mix-blend-mode: normal"><tspan x="0" dy="0">ナイス!</tspan></text><text transform="translate(183.49,194.82617) rotate(-3.07276) scale(0.87316,0.98202) skewX(0.60452)" font-size="40" xml:space="preserve" fill="#ff0000" fill-rule="nonzero" stroke="#ff0000" stroke-width="1" stroke-linecap="butt" stroke-linejoin="miter" stroke-miterlimit="10" stroke-dasharray="" stroke-dashoffset="0" font-family="Sans Serif" font-weight="normal" text-anchor="start" style="mix-blend-mode: normal"><tspan x="0" dy="0">ナイス!</tspan></text></g></g></svg>