<svg version="1.1" xmlns="http://www.w3.org/2000/svg" xmlns:xlink="http://www.w3.org/1999/xlink" width="317.83333" height="247.16673" viewBox="0,0,317.83333,247.16673"><defs><radialGradient cx="61.9225" cy="184.28387" r="30.61714" gradientUnits="userSpaceOnUse" id="color-1"><stop offset="0" stop-color="#000000"/><stop offset="1" stop-color="#000000" stop-opacity="0"/></radialGradient><radialGradient cx="70.48256" cy="285.07561" r="57.80781" gradientUnits="userSpaceOnUse" id="color-2"><stop offset="0" stop-color="#3c3939"/><stop offset="1" stop-color="#3c3939" stop-opacity="0"/></radialGradient><linearGradient x1="6.75586" y1="241.588" x2="121.50285" y2="241.588" gradientUnits="userSpaceOnUse" id="color-3"><stop offset="0" stop-color="#00eb08"/><stop offset="1" stop-color="#73ff85"/></linearGradient><linearGradient x1="50.50586" y1="236.7809" x2="69.50586" y2="236.7809" gradientUnits="userSpaceOnUse" id="color-4"><stop offset="0" stop-color="#06b90c"/><stop offset="1" stop-color="#06b90c" stop-opacity="0"/></linearGradient><linearGradient x1="6.75586" y1="235.92815" x2="62.57362" y2="235.92815" gradientUnits="userSpaceOnUse" id="color-5"><stop offset="0" stop-color="#009105"/><stop offset="1" stop-color="#009105" stop-opacity="0"/></linearGradient><linearGradient x1="66.3624" y1="142.72449" x2="57.8271" y2="189.2791" gradientUnits="userSpaceOnUse" id="color-6"><stop offset="0" stop-color="#00eb08"/><stop offset="1" stop-color="#73ff85"/></linearGradient><linearGradient x1="51.15175" y1="164.13458" x2="81.69932" y2="169.73517" gradientUnits="userSpaceOnUse" id="color-7"><stop offset="0" stop-color="#00940c" stop-opacity="0"/><stop offset="1" stop-color="#00940c"/></linearGradient><linearGradient x1="70.48237" y1="158.98492" x2="76.92355" y2="160.16584" gradientUnits="userSpaceOnUse" id="color-8"><stop offset="0" stop-color="#282828"/><stop offset="1" stop-color="#282828" stop-opacity="0"/></linearGradient><linearGradient x1="53.62678" y1="180.88125" x2="68.28405" y2="180.88125" gradientUnits="userSpaceOnUse" id="color-9"><stop offset="0" stop-color="#000000"/><stop offset="1" stop-color="#000000" stop-opacity="0"/></linearGradient><radialGradient cx="55.1402" cy="163.32579" r="21.12165" gradientUnits="userSpaceOnUse" id="color-10"><stop offset="0" stop-color="#202020"/><stop offset="1" stop-color="#000000"/></radialGradient><radialGradient cx="62.88839" cy="175.131" r="21.12164" gradientUnits="userSpaceOnUse" id="color-11"><stop offset="0" stop-color="#101010"/><stop offset="1" stop-color="#000000"/></radialGradient><linearGradient x1="42.47194" y1="151.65787" x2="38.67923" y2="172.34466" gradientUnits="userSpaceOnUse" id="color-12"><stop offset="0" stop-color="#292929"/><stop offset="1" stop-color="#000000"/></linearGradient><linearGradient x1="41.09925" y1="162.2388" x2="39.07534" y2="161.86771" gradientUnits="userSpaceOnUse" id="color-13"><stop offset="0" stop-color="#00ffe6"/><stop offset="1" stop-color="#00ffe6" stop-opacity="0"/></linearGradient><linearGradient x1="40.56988" y1="161.91707" x2="42.59381" y2="162.28813" gradientUnits="userSpaceOnUse" id="color-14"><stop offset="0" stop-color="#00e6ff"/><stop offset="1" stop-color="#00e6ff" stop-opacity="0"/></linearGradient><linearGradient x1="80.90287" y1="169.63825" x2="87.61889" y2="170.86956" gradientUnits="userSpaceOnUse" id="color-15"><stop offset="0" stop-color="#000000"/><stop offset="1" stop-color="#151515"/></linearGradient><linearGradient x1="83.66256" y1="170.28574" x2="85.77657" y2="170.67333" gradientUnits="userSpaceOnUse" id="color-16"><stop offset="0" stop-color="#00ffff"/><stop offset="1" stop-color="#00ffff" stop-opacity="0"/></linearGradient><linearGradient x1="84.29701" y1="170.17738" x2="82.18294" y2="169.78979" gradientUnits="userSpaceOnUse" id="color-17"><stop offset="0" stop-color="#00ffff"/><stop offset="1" stop-color="#00ffff" stop-opacity="0"/></linearGradient><linearGradient x1="61.78353" y1="168.78403" x2="60.57471" y2="175.37731" gradientUnits="userSpaceOnUse" id="color-18"><stop offset="0" stop-color="#00f3ff"/><stop offset="1" stop-color="#00f3ff" stop-opacity="0"/></linearGradient><radialGradient cx="75.5376" cy="174.83001" r="9.71003" gradientUnits="userSpaceOnUse" id="color-19"><stop offset="0" stop-color="#fffcfc"/><stop offset="1" stop-color="#fffcfc" stop-opacity="0"/></radialGradient><radialGradient cx="76.52681" cy="176.47935" r="29.13009" gradientUnits="userSpaceOnUse" id="color-20"><stop offset="0" stop-color="#fffcfc"/><stop offset="1" stop-color="#fffcfc" stop-opacity="0"/></radialGradient><radialGradient cx="82.00668" cy="175.34961" r="33.67782" gradientUnits="userSpaceOnUse" id="color-21"><stop offset="0" stop-color="#fffcfc"/><stop offset="1" stop-color="#fffcfc" stop-opacity="0"/></radialGradient><linearGradient x1="100.17253" y1="191.05765" x2="127.92253" y2="191.05765" gradientUnits="userSpaceOnUse" id="color-22"><stop offset="0" stop-color="#00b106"/><stop offset="1" stop-color="#73ff85"/></linearGradient><linearGradient x1="122.10916" y1="159.53976" x2="126.44269" y2="186.22177" gradientUnits="userSpaceOnUse" id="color-23"><stop offset="0" stop-color="#000000"/><stop offset="1" stop-color="#3c3c3c"/></linearGradient><linearGradient x1="114.90147" y1="197.69771" x2="114.90147" y2="204.12047" gradientUnits="userSpaceOnUse" id="color-24"><stop offset="0" stop-color="#000000"/><stop offset="1" stop-color="#5a5a5a"/></linearGradient><linearGradient x1="125.0463" y1="195.34007" x2="125.0463" y2="198.63679" gradientUnits="userSpaceOnUse" id="color-25"><stop offset="0" stop-color="#000000"/><stop offset="1" stop-color="#3c3c3c"/></linearGradient><linearGradient x1="125.0256" y1="193.36205" x2="125.0256" y2="196.65876" gradientUnits="userSpaceOnUse" id="color-26"><stop offset="0" stop-color="#000000"/><stop offset="1" stop-color="#3c3c3c"/></linearGradient><linearGradient x1="124.75281" y1="183.20819" x2="124.75281" y2="195.07634" gradientUnits="userSpaceOnUse" id="color-27"><stop offset="0" stop-color="#000000"/><stop offset="1" stop-color="#3c3c3c"/></linearGradient><linearGradient x1="115.75185" y1="161.61712" x2="115.75185" y2="190.49484" gradientUnits="userSpaceOnUse" id="color-28"><stop offset="0" stop-color="#000000"/><stop offset="1" stop-color="#3c3c3c"/></linearGradient><linearGradient x1="115.25828" y1="173.51586" x2="131.21437" y2="173.51586" gradientUnits="userSpaceOnUse" id="color-29"><stop offset="0" stop-color="#009622"/><stop offset="1" stop-color="#00ff46"/></linearGradient><linearGradient x1="115.69644" y1="174.10927" x2="137.28031" y2="174.10927" gradientUnits="userSpaceOnUse" id="color-30"><stop offset="0" stop-color="#009622"/><stop offset="1" stop-color="#00ff46"/></linearGradient><radialGradient cx="127.25832" cy="174.24114" r="7.23393" gradientUnits="userSpaceOnUse" id="color-31"><stop offset="0" stop-color="#ff2e93"/><stop offset="1" stop-color="#ff2f6c"/></radialGradient><linearGradient x1="101.8077" y1="176.54851" x2="112.88465" y2="176.54851" gradientUnits="userSpaceOnUse" id="color-32"><stop offset="0" stop-color="#000000" stop-opacity="0"/><stop offset="1" stop-color="#000000"/></linearGradient><linearGradient x1="99.58797" y1="178.83501" x2="113.8109" y2="178.83501" gradientUnits="userSpaceOnUse" id="color-33"><stop offset="0" stop-color="#000000" stop-opacity="0"/><stop offset="1" stop-color="#000000"/></linearGradient><radialGradient cx="124.14182" cy="76.34015" r="0.00274" gradientUnits="userSpaceOnUse" id="color-34"><stop offset="0" stop-color="#00f138"/><stop offset="1" stop-color="#00f138" stop-opacity="0"/></radialGradient><radialGradient cx="96.50031" cy="135.70801" r="60.11616" gradientUnits="userSpaceOnUse" id="color-35"><stop offset="0" stop-color="#00f138"/><stop offset="1" stop-color="#00f138" stop-opacity="0"/></radialGradient><radialGradient cx="130.96601" cy="211.21774" r="18.31676" gradientUnits="userSpaceOnUse" id="color-36"><stop offset="0" stop-color="#00f138"/><stop offset="1" stop-color="#00f138" stop-opacity="0"/></radialGradient><radialGradient cx="157.46716" cy="188.91788" r="11.66728" gradientUnits="userSpaceOnUse" id="color-37"><stop offset="0" stop-color="#00f138"/><stop offset="1" stop-color="#00f138" stop-opacity="0"/></radialGradient><radialGradient cx="150.31591" cy="199.42189" r="15.35939" gradientUnits="userSpaceOnUse" id="color-38"><stop offset="0" stop-color="#00f138"/><stop offset="1" stop-color="#00f138" stop-opacity="0"/></radialGradient><radialGradient cx="113.8919" cy="202.95874" r="14.95432" gradientUnits="userSpaceOnUse" id="color-39"><stop offset="0" stop-color="#00f138"/><stop offset="1" stop-color="#00f138" stop-opacity="0"/></radialGradient><radialGradient cx="148.88637" cy="191.81743" r="7.25416" gradientUnits="userSpaceOnUse" id="color-40"><stop offset="0" stop-color="#00f138"/><stop offset="1" stop-color="#00f138" stop-opacity="0"/></radialGradient><radialGradient cx="114.93644" cy="191.82908" r="5.98615" gradientUnits="userSpaceOnUse" id="color-41"><stop offset="0" stop-color="#00f138"/><stop offset="1" stop-color="#00f138" stop-opacity="0"/></radialGradient><radialGradient cx="172.57922" cy="169.62343" r="20.78868" gradientUnits="userSpaceOnUse" id="color-42"><stop offset="0" stop-color="#00f138"/><stop offset="1" stop-color="#00f138" stop-opacity="0"/></radialGradient><radialGradient cx="161.99626" cy="133.38011" r="29.59889" gradientUnits="userSpaceOnUse" id="color-43"><stop offset="0" stop-color="#00f138"/><stop offset="1" stop-color="#00f138" stop-opacity="0"/></radialGradient><radialGradient cx="156.21181" cy="153.4412" r="12.40744" gradientUnits="userSpaceOnUse" id="color-44"><stop offset="0" stop-color="#00f138"/><stop offset="1" stop-color="#00f138" stop-opacity="0"/></radialGradient><radialGradient cx="140.0843" cy="142.53681" r="15.01009" gradientUnits="userSpaceOnUse" id="color-45"><stop offset="0" stop-color="#00f138"/><stop offset="1" stop-color="#00f138" stop-opacity="0"/></radialGradient><radialGradient cx="96.3071" cy="131.42472" r="7.77475" gradientUnits="userSpaceOnUse" id="color-46"><stop offset="0" stop-color="#00f138"/><stop offset="1" stop-color="#00f138" stop-opacity="0"/></radialGradient><radialGradient cx="94.51401" cy="173.80328" r="2.15462" gradientUnits="userSpaceOnUse" id="color-47"><stop offset="0" stop-color="#00f138"/><stop offset="1" stop-color="#00f138" stop-opacity="0"/></radialGradient><radialGradient cx="51.44442" cy="149.50746" r="2.52155" gradientUnits="userSpaceOnUse" id="color-48"><stop offset="0" stop-color="#00f138"/><stop offset="1" stop-color="#00f138" stop-opacity="0"/></radialGradient><radialGradient cx="162.40791" cy="228.91458" r="2.73168" gradientUnits="userSpaceOnUse" id="color-49"><stop offset="0" stop-color="#00f138"/><stop offset="1" stop-color="#00f138" stop-opacity="0"/></radialGradient><radialGradient cx="169.20667" cy="200.03302" r="2.39402" gradientUnits="userSpaceOnUse" id="color-50"><stop offset="0" stop-color="#00f138"/><stop offset="1" stop-color="#00f138" stop-opacity="0"/></radialGradient><radialGradient cx="187.63318" cy="133.90493" r="9.78659" gradientUnits="userSpaceOnUse" id="color-51"><stop offset="0" stop-color="#00f138"/><stop offset="1" stop-color="#00f138" stop-opacity="0"/></radialGradient><radialGradient cx="178.75161" cy="132.82354" r="5.71674" gradientUnits="userSpaceOnUse" id="color-52"><stop offset="0" stop-color="#00f138"/><stop offset="1" stop-color="#00f138" stop-opacity="0"/></radialGradient><radialGradient cx="162.64007" cy="98.13167" r="3.11223" gradientUnits="userSpaceOnUse" id="color-53"><stop offset="0" stop-color="#00f138"/><stop offset="1" stop-color="#00f138" stop-opacity="0"/></radialGradient><radialGradient cx="153.01723" cy="101.00787" r="5.25322" gradientUnits="userSpaceOnUse" id="color-54"><stop offset="0" stop-color="#00f138"/><stop offset="1" stop-color="#00f138" stop-opacity="0"/></radialGradient><radialGradient cx="172.33899" cy="125.18741" r="0.95762" gradientUnits="userSpaceOnUse" id="color-55"><stop offset="0" stop-color="#00f138"/><stop offset="1" stop-color="#00f138" stop-opacity="0"/></radialGradient><radialGradient cx="95.2346" cy="232.23623" r="7.71131" gradientUnits="userSpaceOnUse" id="color-56"><stop offset="0" stop-color="#00f138"/><stop offset="1" stop-color="#00f138" stop-opacity="0"/></radialGradient><radialGradient cx="90.82451" cy="222.96827" r="6.10478" gradientUnits="userSpaceOnUse" id="color-57"><stop offset="0" stop-color="#00f138"/><stop offset="1" stop-color="#00f138" stop-opacity="0"/></radialGradient><radialGradient cx="75.69478" cy="209.54898" r="3.46711" gradientUnits="userSpaceOnUse" id="color-58"><stop offset="0" stop-color="#00f138"/><stop offset="1" stop-color="#00f138" stop-opacity="0"/></radialGradient><radialGradient cx="167.70333" cy="226.61146" r="14.31257" gradientUnits="userSpaceOnUse" id="color-59"><stop offset="0" stop-color="#00f138"/><stop offset="1" stop-color="#00f138" stop-opacity="0"/></radialGradient><radialGradient cx="151.33497" cy="218.13537" r="7.42235" gradientUnits="userSpaceOnUse" id="color-60"><stop offset="0" stop-color="#00f138"/><stop offset="1" stop-color="#00f138" stop-opacity="0"/></radialGradient><radialGradient cx="123.78891" cy="75.07882" r="0.00274" gradientUnits="userSpaceOnUse" id="color-61"><stop offset="0" stop-color="#00f273"/><stop offset="1" stop-color="#00f273" stop-opacity="0"/></radialGradient><radialGradient cx="96.14739" cy="134.44673" r="60.11616" gradientUnits="userSpaceOnUse" id="color-62"><stop offset="0" stop-color="#00f273"/><stop offset="1" stop-color="#00f273" stop-opacity="0"/></radialGradient><radialGradient cx="130.61309" cy="209.95643" r="18.31676" gradientUnits="userSpaceOnUse" id="color-63"><stop offset="0" stop-color="#00f273"/><stop offset="1" stop-color="#00f273" stop-opacity="0"/></radialGradient><radialGradient cx="157.11424" cy="187.65658" r="11.66729" gradientUnits="userSpaceOnUse" id="color-64"><stop offset="0" stop-color="#00f273"/><stop offset="1" stop-color="#00f273" stop-opacity="0"/></radialGradient><radialGradient cx="149.96299" cy="198.16059" r="15.35939" gradientUnits="userSpaceOnUse" id="color-65"><stop offset="0" stop-color="#00f273"/><stop offset="1" stop-color="#00f273" stop-opacity="0"/></radialGradient><radialGradient cx="113.53898" cy="201.69744" r="14.95432" gradientUnits="userSpaceOnUse" id="color-66"><stop offset="0" stop-color="#00f273"/><stop offset="1" stop-color="#00f273" stop-opacity="0"/></radialGradient><radialGradient cx="148.53345" cy="190.55612" r="7.25416" gradientUnits="userSpaceOnUse" id="color-67"><stop offset="0" stop-color="#00f273"/><stop offset="1" stop-color="#00f273" stop-opacity="0"/></radialGradient><radialGradient cx="114.58352" cy="190.56778" r="5.98615" gradientUnits="userSpaceOnUse" id="color-68"><stop offset="0" stop-color="#00f273"/><stop offset="1" stop-color="#00f273" stop-opacity="0"/></radialGradient><radialGradient cx="172.2263" cy="168.36213" r="20.78868" gradientUnits="userSpaceOnUse" id="color-69"><stop offset="0" stop-color="#00f273"/><stop offset="1" stop-color="#00f273" stop-opacity="0"/></radialGradient><radialGradient cx="161.64335" cy="132.11883" r="29.59889" gradientUnits="userSpaceOnUse" id="color-70"><stop offset="0" stop-color="#00f273"/><stop offset="1" stop-color="#00f273" stop-opacity="0"/></radialGradient><radialGradient cx="155.8589" cy="152.17992" r="12.40745" gradientUnits="userSpaceOnUse" id="color-71"><stop offset="0" stop-color="#00f273"/><stop offset="1" stop-color="#00f273" stop-opacity="0"/></radialGradient><radialGradient cx="139.73139" cy="141.27553" r="15.01009" gradientUnits="userSpaceOnUse" id="color-72"><stop offset="0" stop-color="#00f273"/><stop offset="1" stop-color="#00f273" stop-opacity="0"/></radialGradient><radialGradient cx="95.95418" cy="130.16344" r="7.77475" gradientUnits="userSpaceOnUse" id="color-73"><stop offset="0" stop-color="#00f273"/><stop offset="1" stop-color="#00f273" stop-opacity="0"/></radialGradient><radialGradient cx="94.16109" cy="172.54197" r="2.15462" gradientUnits="userSpaceOnUse" id="color-74"><stop offset="0" stop-color="#00f273"/><stop offset="1" stop-color="#00f273" stop-opacity="0"/></radialGradient><radialGradient cx="51.0915" cy="148.24618" r="2.52155" gradientUnits="userSpaceOnUse" id="color-75"><stop offset="0" stop-color="#00f273"/><stop offset="1" stop-color="#00f273" stop-opacity="0"/></radialGradient><radialGradient cx="162.055" cy="227.65325" r="2.73168" gradientUnits="userSpaceOnUse" id="color-76"><stop offset="0" stop-color="#00f273"/><stop offset="1" stop-color="#00f273" stop-opacity="0"/></radialGradient><radialGradient cx="168.85375" cy="198.77169" r="2.39402" gradientUnits="userSpaceOnUse" id="color-77"><stop offset="0" stop-color="#00f273"/><stop offset="1" stop-color="#00f273" stop-opacity="0"/></radialGradient><radialGradient cx="187.28027" cy="132.64356" r="9.78658" gradientUnits="userSpaceOnUse" id="color-78"><stop offset="0" stop-color="#00f273"/><stop offset="1" stop-color="#00f273" stop-opacity="0"/></radialGradient><radialGradient cx="178.39869" cy="131.56223" r="5.71674" gradientUnits="userSpaceOnUse" id="color-79"><stop offset="0" stop-color="#00f273"/><stop offset="1" stop-color="#00f273" stop-opacity="0"/></radialGradient><radialGradient cx="162.28716" cy="96.87037" r="3.11222" gradientUnits="userSpaceOnUse" id="color-80"><stop offset="0" stop-color="#00f273"/><stop offset="1" stop-color="#00f273" stop-opacity="0"/></radialGradient><radialGradient cx="152.66431" cy="99.74656" r="5.25322" gradientUnits="userSpaceOnUse" id="color-81"><stop offset="0" stop-color="#00f273"/><stop offset="1" stop-color="#00f273" stop-opacity="0"/></radialGradient><radialGradient cx="171.98605" cy="123.92613" r="0.95762" gradientUnits="userSpaceOnUse" id="color-82"><stop offset="0" stop-color="#00f273"/><stop offset="1" stop-color="#00f273" stop-opacity="0"/></radialGradient><radialGradient cx="94.88168" cy="230.97493" r="7.71131" gradientUnits="userSpaceOnUse" id="color-83"><stop offset="0" stop-color="#00f273"/><stop offset="1" stop-color="#00f273" stop-opacity="0"/></radialGradient><radialGradient cx="90.47159" cy="221.70696" r="6.10478" gradientUnits="userSpaceOnUse" id="color-84"><stop offset="0" stop-color="#00f273"/><stop offset="1" stop-color="#00f273" stop-opacity="0"/></radialGradient><radialGradient cx="75.34186" cy="208.28767" r="3.46712" gradientUnits="userSpaceOnUse" id="color-85"><stop offset="0" stop-color="#00f273"/><stop offset="1" stop-color="#00f273" stop-opacity="0"/></radialGradient><radialGradient cx="167.35041" cy="225.35014" r="14.31257" gradientUnits="userSpaceOnUse" id="color-86"><stop offset="0" stop-color="#00f273"/><stop offset="1" stop-color="#00f273" stop-opacity="0"/></radialGradient><radialGradient cx="150.98205" cy="216.87405" r="7.42235" gradientUnits="userSpaceOnUse" id="color-87"><stop offset="0" stop-color="#00f273"/><stop offset="1" stop-color="#00f273" stop-opacity="0"/></radialGradient><radialGradient cx="123.50398" cy="77.17147" r="0.00274" gradientUnits="userSpaceOnUse" id="color-88"><stop offset="0" stop-color="#00f138"/><stop offset="1" stop-color="#00f138" stop-opacity="0"/></radialGradient><radialGradient cx="95.86247" cy="136.53931" r="60.11616" gradientUnits="userSpaceOnUse" id="color-89"><stop offset="0" stop-color="#00f138"/><stop offset="1" stop-color="#00f138" stop-opacity="0"/></radialGradient><radialGradient cx="130.32817" cy="212.04903" r="18.31676" gradientUnits="userSpaceOnUse" id="color-90"><stop offset="0" stop-color="#00f138"/><stop offset="1" stop-color="#00f138" stop-opacity="0"/></radialGradient><radialGradient cx="156.82932" cy="189.74918" r="11.66729" gradientUnits="userSpaceOnUse" id="color-91"><stop offset="0" stop-color="#00f138"/><stop offset="1" stop-color="#00f138" stop-opacity="0"/></radialGradient><radialGradient cx="149.67807" cy="200.25317" r="15.35939" gradientUnits="userSpaceOnUse" id="color-92"><stop offset="0" stop-color="#00f138"/><stop offset="1" stop-color="#00f138" stop-opacity="0"/></radialGradient><radialGradient cx="113.25406" cy="203.79004" r="14.95432" gradientUnits="userSpaceOnUse" id="color-93"><stop offset="0" stop-color="#00f138"/><stop offset="1" stop-color="#00f138" stop-opacity="0"/></radialGradient><radialGradient cx="148.24853" cy="192.6487" r="7.25416" gradientUnits="userSpaceOnUse" id="color-94"><stop offset="0" stop-color="#00f138"/><stop offset="1" stop-color="#00f138" stop-opacity="0"/></radialGradient><radialGradient cx="114.2986" cy="192.6604" r="5.98615" gradientUnits="userSpaceOnUse" id="color-95"><stop offset="0" stop-color="#00f138"/><stop offset="1" stop-color="#00f138" stop-opacity="0"/></radialGradient><radialGradient cx="171.94138" cy="170.45471" r="20.78867" gradientUnits="userSpaceOnUse" id="color-96"><stop offset="0" stop-color="#00f138"/><stop offset="1" stop-color="#00f138" stop-opacity="0"/></radialGradient><radialGradient cx="161.35842" cy="134.21146" r="29.59889" gradientUnits="userSpaceOnUse" id="color-97"><stop offset="0" stop-color="#00f138"/><stop offset="1" stop-color="#00f138" stop-opacity="0"/></radialGradient><radialGradient cx="155.57398" cy="154.2725" r="12.40745" gradientUnits="userSpaceOnUse" id="color-98"><stop offset="0" stop-color="#00f138"/><stop offset="1" stop-color="#00f138" stop-opacity="0"/></radialGradient><radialGradient cx="139.44646" cy="143.36816" r="15.01009" gradientUnits="userSpaceOnUse" id="color-99"><stop offset="0" stop-color="#00f138"/><stop offset="1" stop-color="#00f138" stop-opacity="0"/></radialGradient><radialGradient cx="95.66925" cy="132.25601" r="7.77475" gradientUnits="userSpaceOnUse" id="color-100"><stop offset="0" stop-color="#00f138"/><stop offset="1" stop-color="#00f138" stop-opacity="0"/></radialGradient><radialGradient cx="93.87617" cy="174.63456" r="2.15462" gradientUnits="userSpaceOnUse" id="color-101"><stop offset="0" stop-color="#00f138"/><stop offset="1" stop-color="#00f138" stop-opacity="0"/></radialGradient><radialGradient cx="50.80658" cy="150.33876" r="2.52155" gradientUnits="userSpaceOnUse" id="color-102"><stop offset="0" stop-color="#00f138"/><stop offset="1" stop-color="#00f138" stop-opacity="0"/></radialGradient><radialGradient cx="161.77008" cy="229.74587" r="2.73168" gradientUnits="userSpaceOnUse" id="color-103"><stop offset="0" stop-color="#00f138"/><stop offset="1" stop-color="#00f138" stop-opacity="0"/></radialGradient><radialGradient cx="168.56883" cy="200.8643" r="2.39402" gradientUnits="userSpaceOnUse" id="color-104"><stop offset="0" stop-color="#00f138"/><stop offset="1" stop-color="#00f138" stop-opacity="0"/></radialGradient><radialGradient cx="186.99535" cy="134.73618" r="9.78658" gradientUnits="userSpaceOnUse" id="color-105"><stop offset="0" stop-color="#00f138"/><stop offset="1" stop-color="#00f138" stop-opacity="0"/></radialGradient><radialGradient cx="178.11377" cy="133.65484" r="5.71674" gradientUnits="userSpaceOnUse" id="color-106"><stop offset="0" stop-color="#00f138"/><stop offset="1" stop-color="#00f138" stop-opacity="0"/></radialGradient><radialGradient cx="162.00223" cy="98.96297" r="3.11223" gradientUnits="userSpaceOnUse" id="color-107"><stop offset="0" stop-color="#00f138"/><stop offset="1" stop-color="#00f138" stop-opacity="0"/></radialGradient><radialGradient cx="152.37939" cy="101.83917" r="5.25321" gradientUnits="userSpaceOnUse" id="color-108"><stop offset="0" stop-color="#00f138"/><stop offset="1" stop-color="#00f138" stop-opacity="0"/></radialGradient><radialGradient cx="171.70115" cy="126.01872" r="0.95762" gradientUnits="userSpaceOnUse" id="color-109"><stop offset="0" stop-color="#00f138"/><stop offset="1" stop-color="#00f138" stop-opacity="0"/></radialGradient><radialGradient cx="94.59676" cy="233.06755" r="7.7113" gradientUnits="userSpaceOnUse" id="color-110"><stop offset="0" stop-color="#00f138"/><stop offset="1" stop-color="#00f138" stop-opacity="0"/></radialGradient><radialGradient cx="90.18667" cy="223.79955" r="6.10477" gradientUnits="userSpaceOnUse" id="color-111"><stop offset="0" stop-color="#00f138"/><stop offset="1" stop-color="#00f138" stop-opacity="0"/></radialGradient><radialGradient cx="75.05694" cy="210.38028" r="3.46711" gradientUnits="userSpaceOnUse" id="color-112"><stop offset="0" stop-color="#00f138"/><stop offset="1" stop-color="#00f138" stop-opacity="0"/></radialGradient><radialGradient cx="167.06549" cy="227.44274" r="14.31257" gradientUnits="userSpaceOnUse" id="color-113"><stop offset="0" stop-color="#00f138"/><stop offset="1" stop-color="#00f138" stop-opacity="0"/></radialGradient><radialGradient cx="150.69712" cy="218.96665" r="7.42236" gradientUnits="userSpaceOnUse" id="color-114"><stop offset="0" stop-color="#00f138"/><stop offset="1" stop-color="#00f138" stop-opacity="0"/></radialGradient><radialGradient cx="122.99161" cy="76.11794" r="0.00274" gradientUnits="userSpaceOnUse" id="color-115"><stop offset="0" stop-color="#00f273"/><stop offset="1" stop-color="#00f273" stop-opacity="0"/></radialGradient><radialGradient cx="95.35009" cy="135.48582" r="60.11616" gradientUnits="userSpaceOnUse" id="color-116"><stop offset="0" stop-color="#00f273"/><stop offset="1" stop-color="#00f273" stop-opacity="0"/></radialGradient><radialGradient cx="129.81579" cy="210.99555" r="18.31676" gradientUnits="userSpaceOnUse" id="color-117"><stop offset="0" stop-color="#00f273"/><stop offset="1" stop-color="#00f273" stop-opacity="0"/></radialGradient><radialGradient cx="156.31693" cy="188.69569" r="11.66729" gradientUnits="userSpaceOnUse" id="color-118"><stop offset="0" stop-color="#00f273"/><stop offset="1" stop-color="#00f273" stop-opacity="0"/></radialGradient><radialGradient cx="149.16569" cy="199.19971" r="15.35939" gradientUnits="userSpaceOnUse" id="color-119"><stop offset="0" stop-color="#00f273"/><stop offset="1" stop-color="#00f273" stop-opacity="0"/></radialGradient><radialGradient cx="112.74168" cy="202.73655" r="14.95432" gradientUnits="userSpaceOnUse" id="color-120"><stop offset="0" stop-color="#00f273"/><stop offset="1" stop-color="#00f273" stop-opacity="0"/></radialGradient><radialGradient cx="147.73615" cy="191.59523" r="7.25416" gradientUnits="userSpaceOnUse" id="color-121"><stop offset="0" stop-color="#00f273"/><stop offset="1" stop-color="#00f273" stop-opacity="0"/></radialGradient><radialGradient cx="113.78623" cy="191.60691" r="5.98615" gradientUnits="userSpaceOnUse" id="color-122"><stop offset="0" stop-color="#00f273"/><stop offset="1" stop-color="#00f273" stop-opacity="0"/></radialGradient><radialGradient cx="171.429" cy="169.40124" r="20.78868" gradientUnits="userSpaceOnUse" id="color-123"><stop offset="0" stop-color="#00f273"/><stop offset="1" stop-color="#00f273" stop-opacity="0"/></radialGradient><radialGradient cx="160.84604" cy="133.15796" r="29.59889" gradientUnits="userSpaceOnUse" id="color-124"><stop offset="0" stop-color="#00f273"/><stop offset="1" stop-color="#00f273" stop-opacity="0"/></radialGradient><radialGradient cx="155.0616" cy="153.21902" r="12.40745" gradientUnits="userSpaceOnUse" id="color-125"><stop offset="0" stop-color="#00f273"/><stop offset="1" stop-color="#00f273" stop-opacity="0"/></radialGradient><radialGradient cx="138.93409" cy="142.31466" r="15.01009" gradientUnits="userSpaceOnUse" id="color-126"><stop offset="0" stop-color="#00f273"/><stop offset="1" stop-color="#00f273" stop-opacity="0"/></radialGradient><radialGradient cx="95.15688" cy="131.20254" r="7.77475" gradientUnits="userSpaceOnUse" id="color-127"><stop offset="0" stop-color="#00f273"/><stop offset="1" stop-color="#00f273" stop-opacity="0"/></radialGradient><radialGradient cx="93.36379" cy="173.58107" r="2.15462" gradientUnits="userSpaceOnUse" id="color-128"><stop offset="0" stop-color="#00f273"/><stop offset="1" stop-color="#00f273" stop-opacity="0"/></radialGradient><radialGradient cx="50.2942" cy="149.28531" r="2.52155" gradientUnits="userSpaceOnUse" id="color-129"><stop offset="0" stop-color="#00f273"/><stop offset="1" stop-color="#00f273" stop-opacity="0"/></radialGradient><radialGradient cx="161.2577" cy="228.69238" r="2.73168" gradientUnits="userSpaceOnUse" id="color-130"><stop offset="0" stop-color="#00f273"/><stop offset="1" stop-color="#00f273" stop-opacity="0"/></radialGradient><radialGradient cx="168.05645" cy="199.81082" r="2.39402" gradientUnits="userSpaceOnUse" id="color-131"><stop offset="0" stop-color="#00f273"/><stop offset="1" stop-color="#00f273" stop-opacity="0"/></radialGradient><radialGradient cx="186.48297" cy="133.68269" r="9.78659" gradientUnits="userSpaceOnUse" id="color-132"><stop offset="0" stop-color="#00f273"/><stop offset="1" stop-color="#00f273" stop-opacity="0"/></radialGradient><radialGradient cx="177.60139" cy="132.60136" r="5.71674" gradientUnits="userSpaceOnUse" id="color-133"><stop offset="0" stop-color="#00f273"/><stop offset="1" stop-color="#00f273" stop-opacity="0"/></radialGradient><radialGradient cx="161.48986" cy="97.90948" r="3.11222" gradientUnits="userSpaceOnUse" id="color-134"><stop offset="0" stop-color="#00f273"/><stop offset="1" stop-color="#00f273" stop-opacity="0"/></radialGradient><radialGradient cx="151.86701" cy="100.78567" r="5.25322" gradientUnits="userSpaceOnUse" id="color-135"><stop offset="0" stop-color="#00f273"/><stop offset="1" stop-color="#00f273" stop-opacity="0"/></radialGradient><radialGradient cx="171.18877" cy="124.96522" r="0.95762" gradientUnits="userSpaceOnUse" id="color-136"><stop offset="0" stop-color="#00f273"/><stop offset="1" stop-color="#00f273" stop-opacity="0"/></radialGradient><radialGradient cx="94.08439" cy="232.01406" r="7.7113" gradientUnits="userSpaceOnUse" id="color-137"><stop offset="0" stop-color="#00f273"/><stop offset="1" stop-color="#00f273" stop-opacity="0"/></radialGradient><radialGradient cx="89.6743" cy="222.74607" r="6.10477" gradientUnits="userSpaceOnUse" id="color-138"><stop offset="0" stop-color="#00f273"/><stop offset="1" stop-color="#00f273" stop-opacity="0"/></radialGradient><radialGradient cx="74.54456" cy="209.32679" r="3.46712" gradientUnits="userSpaceOnUse" id="color-139"><stop offset="0" stop-color="#00f273"/><stop offset="1" stop-color="#00f273" stop-opacity="0"/></radialGradient><radialGradient cx="166.55311" cy="226.38927" r="14.31257" gradientUnits="userSpaceOnUse" id="color-140"><stop offset="0" stop-color="#00f273"/><stop offset="1" stop-color="#00f273" stop-opacity="0"/></radialGradient><radialGradient cx="150.18475" cy="217.91318" r="7.42235" gradientUnits="userSpaceOnUse" id="color-141"><stop offset="0" stop-color="#00f273"/><stop offset="1" stop-color="#00f273" stop-opacity="0"/></radialGradient><radialGradient cx="127.22024" cy="174.04713" r="14.07143" gradientUnits="userSpaceOnUse" id="color-142"><stop offset="0" stop-color="#00ff5f"/><stop offset="1" stop-color="#00ff5f" stop-opacity="0"/></radialGradient><radialGradient cx="126.82738" cy="173.68812" r="41.92857" gradientUnits="userSpaceOnUse" id="color-143"><stop offset="0" stop-color="#00ff5f"/><stop offset="1" stop-color="#00ff5f" stop-opacity="0"/></radialGradient><linearGradient x1="196.5" y1="63.8185" x2="196.5" y2="173.36544" gradientUnits="userSpaceOnUse" id="color-144"><stop offset="0" stop-color="#f3fff3" stop-opacity="0"/><stop offset="1" stop-color="#f3fff3"/></linearGradient><linearGradient x1="184.66667" y1="101.48522" x2="184.66667" y2="173.98523" gradientUnits="userSpaceOnUse" id="color-145"><stop offset="0" stop-color="#ffffff" stop-opacity="0"/><stop offset="1" stop-color="#ffffff"/></linearGradient><linearGradient x1="-52.83334" y1="242.98523" x2="127.66667" y2="242.98523" gradientUnits="userSpaceOnUse" id="color-146"><stop offset="0" stop-color="#b5ffbb" stop-opacity="0"/><stop offset="1" stop-color="#b5ffbb"/></linearGradient><linearGradient x1="61.75038" y1="238.0783" x2="72.58296" y2="166.39212" gradientUnits="userSpaceOnUse" id="color-147"><stop offset="0" stop-color="#ffffff" stop-opacity="0"/><stop offset="1" stop-color="#ffffff"/></linearGradient><radialGradient cx="128.45833" cy="175.08138" r="6.59722" gradientUnits="userSpaceOnUse" id="color-148"><stop offset="0" stop-color="#ffffff"/><stop offset="1" stop-color="#ffffff" stop-opacity="0"/></radialGradient><radialGradient cx="134.88296" cy="160.20434" r="13.67857" gradientUnits="userSpaceOnUse" id="color-149"><stop offset="0" stop-color="#04ff00"/><stop offset="1" stop-color="#04ff00" stop-opacity="0"/></radialGradient><radialGradient cx="121.96629" cy="187.00648" r="9.70982" gradientUnits="userSpaceOnUse" id="color-150"><stop offset="0" stop-color="#04ff00"/><stop offset="1" stop-color="#04ff00" stop-opacity="0"/></radialGradient><radialGradient cx="124.19332" cy="122.3648" r="32.35148" gradientUnits="userSpaceOnUse" id="color-151"><stop offset="0" stop-color="#04ff00"/><stop offset="1" stop-color="#04ff00" stop-opacity="0"/></radialGradient><linearGradient x1="62.9225" y1="298.07406" x2="62.9225" y2="303.57406" gradientUnits="userSpaceOnUse" id="color-152"><stop offset="0" stop-color="#ff4e4e"/><stop offset="1" stop-color="#ff4e4e" stop-opacity="0"/></linearGradient><radialGradient cx="81.82053" cy="279.6794" r="32.08507" gradientUnits="userSpaceOnUse" id="color-153"><stop offset="0" stop-color="#ff0000"/><stop offset="1" stop-color="#ff0000" stop-opacity="0"/></radialGradient></defs><g transform="translate(52.83333,-63.8185)"><g data-paper-data="{&quot;isPaintingLayer&quot;:true}" fill-rule="nonzero" stroke-linejoin="miter" stroke-miterlimit="10" stroke-dasharray="" stroke-dashoffset="0" style="mix-blend-mode: normal"><path d="M90.4225,184.28387c0,25.95738 -12.75988,47 -28.5,47c-15.74012,0 -28.5,-21.04262 -28.5,-47c0,-25.95738 12.75988,-47 28.5,-47c15.74012,0 28.5,21.04262 28.5,47z" fill="url(#color-1)" stroke="none" stroke-width="0" stroke-linecap="butt"/><path d="M128.29037,285.07561c0,6.63405 -25.88144,12.01202 -57.80781,12.01202c-31.92637,0 -57.80781,-5.37796 -57.80781,-12.01202c0,-6.63405 25.88144,-12.01202 57.80781,-12.01202c31.92637,0 57.80781,5.37796 57.80781,12.01202z" fill="url(#color-2)" stroke="none" stroke-width="0" stroke-linecap="butt"/><g stroke="#000000" stroke-width="0" stroke-linecap="round"><path d="M121.50285,277.8287l-1.96429,7.20166l-15.71428,5.94919l-12.11309,-8.14101l-7.12053,-12.50995l-30.69196,-41.09642c0,0 -13.53822,9.63011 -18.70171,18.28533c0.41585,3.63994 14.60661,5.29531 22.22776,9.67122c7.72003,4.43268 5.34089,10.31555 1.99852,16.77289c-1.70808,3.29995 -4.60638,5.96465 -6.49248,8.61825c-2.07776,2.92327 -6.15261,4.1873 -6.15261,4.1873c0,0 -2.71694,-0.75833 -3.76909,-2.20856c-1.165,-1.60577 -0.66563,-3.98448 -0.41197,-5.4742c0.20715,-1.21659 1.00621,-7.08449 2.94663,-8.94876c1.05028,-1.00907 3.84902,1.2759 3.84902,1.2759c0,0 -21.73457,-11.80763 -27.3109,-18.26194c-3.19189,-3.69444 -7.52839,-10.38036 -7.52839,-10.38036c0,0 9.07552,-9.7676 13.90059,-13.89854c3.88181,-3.32338 12.84047,-8.9956 12.84047,-8.9956l1.1216,-8.3773l2.35987,-13.5394l2.09766,-4.2633l-2.62208,6.26956l-4.45753,5.26643l-17.04351,14.04381l-7.34182,0.25079l-4.45753,-3.26017l-2.62208,-3.76174l-1.57324,-11.03442h3.93312l7.86623,4.2633l0.26221,2.25704l1.31105,2.00626l2.35987,-0.25079l11.53715,-9.78051l7.07961,-11.28521l4.19532,-2.25704h3.93312l15.73247,1.00312l8.91506,-2.00626l3.14649,-0.75235h4.71975l6.03077,1.50469l12.32377,2.00626c0,0 3.69683,0.64711 6.3624,0.35206c2.59061,-0.28675 9.41254,-2.09814 9.41254,-2.09814l-0.30468,9.52034c0,0 -16.77657,1.32854 -25.42351,1.71823c-4.10394,0.18495 -11.80185,-0.17957 -17.04713,-0.08999c-4.97442,0.08496 -2.36691,0.37803 -2.36691,0.37803l-4.71975,7.77425c0,0 -1.29216,6.36207 -1.72006,9.31783c-0.33659,2.32497 1.72006,10.24319 1.72006,10.24319l13.98571,12.30011l25.54251,27.6467z" fill="url(#color-3)"/><path d="M41.00586,238.9059c0,0 6.06062,-6.9171 7.81328,-10.09957c1.19652,-2.17263 1.68671,-7.15043 1.68671,-7.15043l19,25.75l-16,-17.5z" fill="url(#color-4)"/><path d="M80.55721,237.85399c8.265,8.17565 36.69865,37.30191 36.69865,37.30191l-9.5,-4.25l-0.5,-2.25l-2.5,-1.75l-4.5,-2.25v-3l-2.75,-1.5v-4.25l-2.75,-0.5l-3.25,-4.5l-3.5,0.25l-0.5,-2l-2.5,0.5l1.25,-3.25l-8,4l5.25,-8.5l-4.25,1l-0.25,-2.75l-4.75,-0.25l0.5,-6h-2.5l-1.25,-4.5c0,0 5.33487,4.27719 9.55135,8.44809z" fill="#72f27b"/><path d="M53.8987,228.56557c0,0 -13.53822,9.63012 -18.70171,18.28533c0.41585,3.63995 14.60661,5.29532 22.22776,9.67122c7.72003,4.43268 5.34089,10.31554 1.99852,16.77289c-1.70808,3.29995 -4.60638,5.96465 -6.49248,8.61825c-2.07776,2.92327 -6.15261,4.1873 -6.15261,4.1873c0,0 -2.71694,-0.75833 -3.76909,-2.20856c-1.165,-1.60577 -0.66563,-3.98448 -0.41197,-5.4742c0.20715,-1.21659 1.00621,-7.08449 2.94663,-8.94876c0.29781,-0.28612 0.73618,-0.3074 1.21147,-0.19103c-5.96156,-3.36299 -20.29595,-11.72841 -24.67335,-16.79501c-3.19189,-3.69444 -7.52839,-10.38037 -7.52839,-10.38037c0,0 9.07552,-9.7676 13.90059,-13.89855c3.88181,-3.32338 12.84047,-8.9956 12.84047,-8.9956l1.1216,-8.3773l2.13504,-12.24948l-0.29959,0.71634l-4.45753,5.26643l-17.04351,14.04381l-7.34182,0.25079l-4.45753,-3.26017l-2.62208,-3.76174l-1.57324,-11.03442h3.93312l7.86623,4.2633l0.26221,2.25704l1.31105,2.00626l2.35987,-0.25079l11.53715,-9.78051l7.07961,-11.28521l8.12844,-2.25704l11.90297,0.75895c-2.21062,3.45045 -15.58841,1.7848 -18.16143,4.39552c-1.24861,1.26691 7.18262,5.3247 7.00475,8.04677c-0.57394,8.78293 3.77023,22.41 5.3491,31.5236z" fill="url(#color-5)"/></g><g><g><path d="M66.3624,142.72449c11.72181,2.14907 19.31353,14.31286 16.95657,27.16853c-2.35695,12.85568 -13.77005,21.5351 -25.49187,19.38602c-11.7218,-2.14907 -19.31353,-14.31283 -16.95656,-27.16852c2.35695,-12.85568 13.77005,-21.53511 25.49185,-19.38604z" data-paper-data="{&quot;index&quot;:null}" fill="url(#color-6)" stroke="#000000" stroke-width="0" stroke-linecap="butt"/><path d="M83.17161,170.00505c-2.20708,12.03822 -12.30688,20.27347 -20.74236,18.72691c-0.97353,-0.17848 -2.28356,0.67073 -4.43279,0.31793c-3.16526,-0.5196 -7.34866,-2.36132 -8.40034,-3.42567c-4.42173,-4.47496 -0.02161,-12.88693 1.55561,-21.48969c1.45109,-7.9147 1.06591,-16.81666 6.18835,-19.82441c2.66876,-1.56702 9.91056,-1.233 12.83174,-0.92245c14.38948,1.52976 12.99979,26.61738 12.99979,26.61738z" data-paper-data="{&quot;index&quot;:null}" fill="url(#color-7)" stroke="#000000" stroke-width="0" stroke-linecap="butt"/><path d="M62.39498,189.58106l13.79447,-1.92149l4.6474,-9.43987l1.25156,0.09037l-4.77141,10.80793l-14.82466,1.31538" fill="#000000" stroke="#000000" stroke-width="0.5" stroke-linecap="round"/><g fill="#000000" stroke="#000000" stroke-width="0" stroke-linecap="round"><path d="M62.69591,142.41272l-0.83601,6.58829l-4.06295,13.90724l-2.51868,1.97911l-3.31947,-3.33665l2.03057,-15.40351l7.04448,-5.0443z"/></g><path d="M62.0011,190.2506c-0.99969,-0.18328 -1.86585,-0.62645 -1.59999,-1.79944c0,0 0.19902,-0.8395 0.92641,-1.1436c1.34928,-0.56407 3.50965,-0.47097 4.18403,0.44408c0.1829,0.24818 0.12045,1.32728 0.04401,1.74429z" fill="#000000" stroke="#000000" stroke-width="1" stroke-linecap="butt"/><g stroke-width="0" stroke-linecap="round"><g data-paper-data="{&quot;index&quot;:null}" fill="#000000" stroke="#000000"><path d="M74.25302,143.92427l6.91924,7.91113l-5.62691,14.09079l-4.27967,1.90066l-1.65955,-2.70689l4.69024,-13.13185l-2.05916,-7.44408z"/></g><path d="M74.35927,151.88011l3.1795,0.08827l-6.03988,15.51317l-2.13962,-2.37091z" fill="url(#color-8)" stroke="#ff0000"/></g><path d="M53.62678,179.54634c0,0 3.0849,-0.12885 5.50023,0.31398c2.46924,0.45271 9.15704,2.37328 9.15704,2.37328" fill="none" stroke="url(#color-9)" stroke-width="1" stroke-linecap="round"/><path d="M42.67383,158.42598c0,0 12.86468,4.88839 19.78364,6.10194c6.69061,1.1735 21.06805,1.06328 21.06805,1.06328l-2.44333,10.09894c0,0 -14.03981,1.5647 -20.99057,0.34388c-7.093,-1.2458 -20.11917,-7.13918 -20.11917,-7.13918z" fill="url(#color-10)" stroke="#ffffff" stroke-width="0" stroke-linecap="round"/><path d="M43.18781,159.92649c0,0 14.61468,4.63839 21.53364,5.85194c6.69061,1.1735 19.31805,1.31327 19.31805,1.31327l-2.44333,10.09894c0,0 -10.78981,1.3147 -17.74057,0.09388c-7.093,-1.2458 -23.36917,-6.88918 -23.36917,-6.88918z" fill="url(#color-11)" stroke="#ffffff" stroke-width="0" stroke-linecap="round"/><g stroke-linecap="round"><path d="M45.20793,152.15947c0,0 -1.81696,7.52804 -2.38979,11.11912c-0.52815,3.31101 -0.924,9.65544 -0.924,9.65544c0,0 -1.59786,-0.56285 -2.42631,-1.09783c-0.93018,-0.60066 -2.88498,-2.332 -2.88498,-2.332c0,0 0.50695,-6.229 0.96262,-9.06739c0.41086,-2.55925 1.65085,-7.21241 1.65085,-7.21241c0,0 3.25492,-0.84706 4.36359,-1.04347c0.69596,-0.1233 1.648,-0.02147 1.648,-0.02147z" data-paper-data="{&quot;index&quot;:null}" fill="url(#color-12)" stroke="#000000" stroke-width="0"/><path d="M42.78605,153.03835l-3.62549,18.50695l-1.41476,-1.15805l2.91006,-17.14033c0,0 0.95019,-0.44879 1.33199,-0.48618c0.31559,-0.0309 0.79819,0.27762 0.79819,0.27762z" data-paper-data="{&quot;index&quot;:null}" fill="url(#color-13)" stroke="#ffffff" stroke-width="0"/><path d="M42.25669,152.71661c0,0 0.56067,-0.11723 0.84476,0.0236c0.34371,0.1704 1.0729,0.9271 1.0729,0.9271l-3.35982,17.05788l-1.73358,0.58085z" data-paper-data="{&quot;index&quot;:null}" fill="url(#color-14)" stroke="#ffffff" stroke-width="0"/><path d="M39.64604,171.23499c0,0 0.30906,-4.56777 0.77544,-7.32815c0.54534,-3.2276 2.29689,-10.85585 2.29689,-10.85585" data-paper-data="{&quot;index&quot;:null}" fill="none" stroke="#ffffff" stroke-width="1"/></g><g stroke-linecap="round"><path d="M83.29945,159.38655c0,0 0.96805,0.2502 1.60402,0.61769c1.01313,0.58541 3.88934,2.55657 3.88934,2.55657c0,0 -0.47472,4.79345 -1.001,7.33156c-0.5837,2.81492 -2.34683,8.81361 -2.34683,8.81361c0,0 -2.53974,0.90729 -3.66732,1.13069c-1.00426,0.19897 -2.77114,0.14494 -2.77114,0.14494c0,0 1.91365,-6.06616 2.59786,-9.34856c0.74208,-3.56006 1.69509,-11.2465 1.69509,-11.2465z" fill="url(#color-15)" stroke="#000000" stroke-width="0"/><path d="M85.34937,161.08527c0,0 0.58389,-0.11296 0.88133,0.03031c0.35985,0.17337 1.12643,0.93692 1.12643,0.93692l-3.36985,17.05604l-1.80366,0.56799l3.16574,-18.59124z" fill="url(#color-16)" stroke="#ffffff" stroke-width="0"/><path d="M85.98381,160.97699l-3.6355,18.50511l-1.48485,-1.17091l2.90004,-17.14218c0,0 0.98759,-0.44194 1.38554,-0.47637c0.32893,-0.02844 0.83477,0.28431 0.83477,0.28431z" data-paper-data="{&quot;index&quot;:null}" fill="url(#color-17)" stroke="#ffffff" stroke-width="0"/><path d="M85.41099,161.1216c0,0 -1.05331,7.75627 -1.69045,10.96704c-0.54491,2.74597 -1.89915,7.12213 -1.89915,7.12213" fill="none" stroke="#ffffff" stroke-width="1"/></g><path d="M80.11135,175.60578l-3.39794,0.2424l-0.7593,-4.46614l-3.21273,6.2259l-0.95116,-3.41959c0,0 -5.0317,-0.21406 -8.79559,-1.04266c-5.41728,-1.19258 -20.59425,-5.42741 -20.59425,-5.42741" fill="none" stroke="url(#color-18)" stroke-width="2" stroke-linecap="round"/><path d="M80.1459,175.41743l-3.39794,0.2424l-0.75928,-4.46615l-3.21273,6.2259l-0.95116,-3.41959c0,0 -5.0317,-0.21406 -8.79559,-1.04266c-5.41728,-1.19258 -20.59425,-5.42741 -20.59425,-5.42741" fill="none" stroke="#ffffff" stroke-width="1" stroke-linecap="round"/></g><path d="M84.60913,175.48952c-0.38884,5.34858 -4.76552,9.38921 -9.77559,9.02497c-5.01007,-0.36423 -8.75631,-4.99539 -8.36746,-10.34397c0.38884,-5.34858 4.76552,-9.38921 9.77559,-9.02497c5.01007,0.36423 8.75631,4.99539 8.36746,10.34397z" fill="url(#color-19)" stroke="none" stroke-width="0" stroke-linecap="butt"/><path d="M77.63011,176.55956c-1.16652,16.04576 -2.60615,29.0175 -3.21548,28.9732c-0.60933,-0.0443 -0.15764,-13.08786 1.00889,-29.13362c1.16652,-16.04576 2.60615,-29.0175 3.21548,-28.9732c0.60933,0.0443 0.15764,13.08786 -1.00889,29.13362z" fill="url(#color-20)" stroke="none" stroke-width="0" stroke-linecap="butt"/><path d="M115.59587,177.79155c-0.0443,0.60933 -15.1186,0.01 -33.66938,-1.33864c-18.55079,-1.34864 -33.55326,-2.9359 -33.50897,-3.54523c0.0443,-0.60933 15.1186,-0.01 33.66938,1.33864c18.55079,1.34864 33.55326,2.9359 33.50897,3.54523z" fill="url(#color-21)" stroke="none" stroke-width="0" stroke-linecap="butt"/></g><path d="M127.92253,191.05765c0,6.63566 -6.21205,12.01493 -13.875,12.01493c-7.66295,0 -13.875,-5.37927 -13.875,-12.01493c0,-6.63566 6.21205,-12.01493 13.875,-12.01493c7.66295,0 13.875,5.37927 13.875,12.01493z" fill="url(#color-22)" stroke="none" stroke-width="0" stroke-linecap="butt"/><g><g><path d="M106.90933,177.35288c-0.48366,-1.55327 2.61489,-7.42854 2.61489,-7.42854l0.01049,-4.86279l6.25335,-3.38003c0,0 5.88495,-2.02893 7.88951,-2.36057c2.92292,-0.48359 7.95689,-0.26118 7.95689,-0.26118l3.90428,2.68706c0,0 2.03879,4.22739 2.49698,6.25369c0.70743,3.12847 1.16476,8.85644 -0.11258,11.97291c-1.23545,3.0142 -4.19571,3.46995 -4.19571,3.46995l-3.99041,0.06744l-5.15214,-0.51567l-4.23487,1.84721l-4.59806,2.8959l-1.51328,-0.28393c0,0 -2.9678,2.75065 -4.08311,1.21351c-1.29951,-1.79103 -3.2462,-11.31496 -3.2462,-11.31496z" fill="url(#color-23)" stroke="#000000" stroke-width="0" stroke-linecap="round"/><path d="M101.01618,198.74213c0,0 7.3473,1.49494 10.1259,1.69561c2.80613,0.20267 9.11168,1.16951 9.11168,1.16951l2.7925,-1.6755l0.74467,-1.6755l1.39625,-0.5585l0.83777,0.83775l0.27925,1.6755l-2.04784,2.8856l-2.79251,0.83775l-1.86167,0.18616c0,0 -7.81315,-1.62743 -10.50063,-1.92789c-2.21686,-0.24785 -5.41666,-0.30611 -5.41666,-0.30611" fill="url(#color-24)" stroke="#000000" stroke-width="0" stroke-linecap="round"/><path d="M126.7178,195.34007l0.17595,3.29671c0,0 -1.50225,1.95475 -1.98578,1.95475c-0.67989,0 -1.70912,-1.95475 -1.70912,-1.95475v-2.5055z" fill="url(#color-25)" stroke="#000000" stroke-width="0" stroke-linecap="round"/><path d="M126.6971,193.36205l0.17595,3.2967h-3.69489v-2.5055z" fill="url(#color-26)" stroke="#000000" stroke-width="0" stroke-linecap="round"/><path d="M130.15944,183.20819l-2.63736,11.47255l-4.87912,0.3956l-1.7143,-5.01101l-1.58242,-5.53848z" fill="url(#color-27)" stroke="#000000" stroke-width="0" stroke-linecap="round"/><path d="M97.86381,178.18098c-0.22879,-1.71581 3.7781,-7.4664 3.7781,-7.4664l0.79121,-5.14287l6.72529,-2.63737c0,0 6.1441,-1.26331 8.17921,-1.31336c2.96748,-0.07297 7.90874,0.91776 7.90874,0.91776l3.42858,3.42858l1.18682,20.57148l-6.46157,2.10989l-3.95605,-0.52747l-5.01099,-1.31868l-4.48354,1.31868l-5.01099,2.37364l-1.45056,-0.52747c0,0 -3.37587,2.46461 -4.23174,0.67106c-0.99721,-2.0898 -1.39254,-12.45744 -1.39254,-12.45744z" fill="url(#color-28)" stroke="#000000" stroke-width="0" stroke-linecap="round"/><path d="M133.58801,182.68071c0,0 -6.86218,2.70666 -9.54238,2.27557c-3.42234,-0.55044 -9.31481,-5.30853 -9.31481,-5.30853c0,0 -1.20225,-5.57948 -1.37028,-8.07601c-0.12951,-1.92418 1.89777,-5.2427 1.89777,-5.2427c0,0 7.8895,-5.58087 12.96354,-3.97197c3.56645,1.13086 5.36617,3.57637 5.36617,3.57637z" fill="url(#color-29)" stroke="#000000" stroke-width="0" stroke-linecap="round"/><path d="M137.28031,174.10927c0,6.26329 -4.83171,11.3407 -10.79195,11.3407c-5.96024,0 -10.79194,-5.07741 -10.79194,-11.34069c0,-6.26328 4.8317,-11.34069 10.79194,-11.34069c5.96024,0 10.79195,5.07741 10.79195,11.3407z" fill="url(#color-30)" stroke="none" stroke-width="0" stroke-linecap="butt"/><path d="M134.26618,174.24114c0,3.99519 -3.13753,7.23392 -7.00786,7.23392c-3.87033,0 -7.00786,-3.23874 -7.00786,-7.23392c0,-3.99519 3.13753,-7.23392 7.00786,-7.23392c3.87033,0 7.00786,3.23874 7.00786,7.23392z" fill="url(#color-31)" stroke="none" stroke-width="NaN" stroke-linecap="butt"/><path d="M99.48031,182.02874l6.28344,-7.1286l7.12089,-4.21979" fill="none" stroke="url(#color-32)" stroke-width="0.5" stroke-linecap="round"/></g><path d="M99.58797,185.55855l5.68917,-7.49936l8.01656,-4.91337" fill="none" stroke="url(#color-33)" stroke-width="0.5" stroke-linecap="round"/></g><g stroke="#00ec09" stroke-width="0" stroke-linecap="butt"><g><g><path d="M124.14182,76.34015z" fill="url(#color-34)"/><path d="M105.0065,190.84993l6.558,-8.54704l-31.67711,16.43142l29.79916,-23.30392l-15.81206,-2.17443l15.70485,-5.97028l-62.23128,-40.05429l65.22713,31.48982l-3.15975,-8.3086l5.72166,7.55854l-3.22759,-20.12909l8.10141,18.4371l10.56083,-70.20189l-2.24164,68.57525c-2.33258,0.45265 -4.63402,1.4033 -6.73722,2.81877c-2.12318,1.33844 -4.07917,3.09804 -5.73167,5.25173c-5.43836,7.08781 -5.90289,16.24572 -1.71992,22.53036z" fill="url(#color-35)"/><path d="M138.96783,204.23425l-6.44205,-11.27971l1.45725,43.66537l-10.28218,-45.26769c3.77993,1.75033 8.14045,1.9062 12.28068,0.62657z" fill="url(#color-36)"/><path d="M169.52215,192.37294l-23.89023,-6.74146c0.32466,-0.37033 0.63983,-0.75423 0.94469,-1.15155c0.79742,-1.03927 1.48791,-2.12305 2.07248,-3.23575z" fill="url(#color-37)"/><path d="M162.53026,208.73439l-25.62459,-17.06638c1.38178,-0.50293 2.73183,-1.1673 4.01949,-1.98711z" fill="url(#color-38)"/><path d="M108.01826,217.30116l11.69679,-28.61903c0.34466,0.31877 0.70636,0.62402 1.08497,0.91452c0.57279,0.43949 1.16801,0.83282 1.78187,1.18072z" fill="url(#color-39)"/><path d="M155.89938,194.59405l-14.02603,-5.55328c1.12226,-0.80201 2.18857,-1.72712 3.17699,-2.77101z" fill="url(#color-40)"/><path d="M110.40417,195.89674l7.28802,-9.49848c0.44555,0.61652 0.93804,1.20267 1.47715,1.75334z" fill="url(#color-41)"/><path d="M199.63159,164.17725l-38.43053,7.62861l20.12444,2.76748l-21.18432,2.7561l26.56317,6.80254l-35.36407,-4.60188c1.925,-5.03616 1.81633,-10.42205 -0.23856,-14.83292z" fill="url(#color-42)"/><path d="M177.73307,108.14696l-30.78849,49.96454c-0.28563,-0.25527 -0.58255,-0.50141 -0.89067,-0.73782c-1.39974,-1.074 -2.93343,-1.87227 -4.54573,-2.40588z" fill="url(#color-43)"/><path d="M167.43891,146.41666l-18.06809,17.41449c-0.83662,-1.72702 -1.97596,-3.29888 -3.41263,-4.63409z" fill="url(#color-44)"/><path d="M142.80674,125.7063l-2.69931,30.08277c-1.31921,-0.41774 -2.68917,-0.65991 -4.07991,-0.73245c-1.33931,-0.11675 -2.7044,-0.05794 -4.06242,0.16987z" fill="url(#color-45)"/><path d="M102.47536,136.15751c-0.80487,1.04898 -4.21898,-0.21958 -7.62561,-2.83344c-3.40663,-2.61385 -5.51578,-5.58317 -4.71091,-6.63216c0.80485,-1.04896 4.21897,0.21959 7.6256,2.83344c3.40664,2.61386 5.5158,5.58317 4.71092,6.63216z" fill="url(#color-46)"/><path d="M96.01441,174.95449c-0.72437,0.94407 -1.98334,1.19399 -2.81199,0.55818c-0.82865,-0.63581 -0.91316,-1.91655 -0.18879,-2.86063c0.72437,-0.94407 1.98332,-1.194 2.81198,-0.55818c0.82865,0.63581 0.91317,1.91654 0.18879,2.86062z" fill="url(#color-47)"/><path d="M53.44494,151.04247c-0.48291,0.62938 -1.77008,0.45237 -2.87493,-0.39536c-1.10485,-0.84774 -1.60902,-2.04517 -1.1261,-2.67456c0.48291,-0.62938 1.77007,-0.4524 2.87492,0.39533c1.10485,0.84774 1.60904,2.0452 1.12612,2.67459z" fill="url(#color-48)"/><path d="M164.57516,230.57746c-0.88535,1.15388 -2.57339,1.34476 -3.7703,0.42639c-1.19693,-0.91839 -1.44949,-2.59829 -0.56416,-3.75214c0.88535,-1.15388 2.57335,-1.34477 3.77027,-0.42639c1.19693,0.91839 1.44952,2.59829 0.56419,3.75214z" fill="url(#color-49)"/><path d="M171.04047,201.44004c-0.80487,1.04898 -2.27836,1.26938 -3.29113,0.4923c-1.01279,-0.77709 -1.18134,-2.25741 -0.37647,-3.30639c0.80485,-1.04896 2.27837,-1.26938 3.29114,-0.4923c1.01279,0.77709 1.18133,2.2574 0.37646,3.30639z" fill="url(#color-50)"/><path d="M178.87981,139.42875c-0.69805,-1.37498 2.65508,-4.96274 7.48943,-8.01349c4.83437,-3.05076 9.31928,-4.40923 10.01734,-3.03423c0.69805,1.37498 -2.65508,4.96274 -7.48944,8.01348c-4.83437,3.05076 -9.31927,4.40923 -10.01734,3.03423z" fill="url(#color-51)"/><path d="M173.63842,136.05023c-0.40777,-0.80319 1.55092,-2.89894 4.37488,-4.681c2.82395,-1.78206 5.44377,-2.5756 5.85153,-1.77242c0.40778,0.80319 -1.55093,2.89894 -4.37489,4.681c-2.82395,1.78206 -5.44376,2.5756 -5.85153,1.77241z" fill="url(#color-52)"/><path d="M164.47387,99.53871c-1.04632,1.36368 -2.71554,1.8392 -3.72834,1.0621c-1.01279,-0.77709 -0.9856,-2.51251 0.06073,-3.87619c1.04632,-1.36368 2.71556,-1.83919 3.72834,-1.06211c1.01279,0.77709 0.98559,2.51252 -0.06073,3.8762z" fill="url(#color-53)"/><path d="M157.18497,104.2057c-1.52925,1.99307 -4.63491,2.17703 -6.93669,0.41091c-2.30178,-1.76612 -2.92804,-4.81352 -1.3988,-6.80658c1.52925,-1.99307 4.6349,-2.17705 6.93668,-0.41093c2.30178,1.76612 2.92807,4.81355 1.39882,6.80661z" fill="url(#color-54)"/><path d="M172.67239,125.44324c-0.32194,0.41959 -0.73222,0.64517 -0.91635,0.5039c-0.18413,-0.14128 -0.07243,-0.59596 0.24952,-1.01555c0.32194,-0.41959 0.73221,-0.64521 0.91635,-0.50393c0.18413,0.14128 0.07243,0.59599 -0.24952,1.01558z" fill="url(#color-55)"/></g><path d="M96.9927,232.9711c-1.9002,3.89915 -4.22773,6.73102 -5.19871,6.32516c-0.97098,-0.40587 -0.21773,-3.89571 1.68248,-7.79485c1.9002,-3.89915 4.22775,-6.73104 5.19872,-6.32519c0.97098,0.40588 0.21771,3.89574 -1.68247,7.79486z" fill="url(#color-56)"/><path d="M92.07483,223.92761c-2.0524,2.6749 -4.276,4.41382 -4.96653,3.88398c-0.69053,-0.52983 0.41348,-3.12779 2.46588,-5.80269c2.0524,-2.6749 4.276,-4.41383 4.96654,-3.88399c0.69053,0.52983 -0.41349,3.12781 -2.46589,5.8027z" fill="url(#color-57)"/><path d="M78.44549,211.65955c-1.08657,1.41612 -3.19894,1.61918 -4.71811,0.45355c-1.51917,-1.16563 -1.86988,-3.25858 -0.78331,-4.6747c1.08657,-1.41612 3.19895,-1.61915 4.71811,-0.45353c1.51917,1.16563 1.86987,3.25856 0.78331,4.67468z" fill="url(#color-58)"/><path d="M171.04125,223.57602c5.13711,6.26931 7.80716,12.71059 5.96367,14.38701c-1.84349,1.67642 -7.50241,-2.04684 -12.63952,-8.31615c-5.13711,-6.26931 -7.80716,-12.7106 -5.96368,-14.38702c1.84349,-1.67642 7.5024,2.04683 12.63953,8.31615z" fill="url(#color-59)"/><path d="M153.62365,216.78507c1.92828,4.15941 2.46681,8.13583 1.20281,8.88157c-1.26399,0.74573 -3.8519,-2.02161 -5.78018,-6.18102c-1.92829,-4.15941 -2.4668,-8.13583 -1.20279,-8.88158c1.264,-0.74573 3.85188,2.02161 5.78017,6.18102z" fill="url(#color-60)"/></g><g><g><path d="M123.78891,75.07882z" fill="url(#color-61)"/><path d="M104.65358,189.58863l6.558,-8.54704l-31.67712,16.43142l29.79917,-23.30391l-15.81206,-2.17444l15.70485,-5.97028l-62.23129,-40.05429l65.22713,31.48983l-3.15975,-8.3086l5.72166,7.55854l-3.2276,-20.12909l8.1014,18.4371l10.56084,-70.20189l-2.24164,68.57525c-2.33258,0.45265 -4.63402,1.4033 -6.73722,2.81877c-2.12318,1.33844 -4.07917,3.09804 -5.73166,5.25173c-5.43836,7.08781 -5.90289,16.24572 -1.71992,22.53036z" fill="url(#color-62)"/><path d="M138.61491,202.97295l-6.44205,-11.27971l1.45725,43.66537l-10.28218,-45.26769c3.77993,1.75033 8.14045,1.90619 12.28068,0.62657z" fill="url(#color-63)"/><path d="M169.16923,191.11162l-23.89023,-6.74146c0.32466,-0.37033 0.63983,-0.75423 0.94468,-1.15156c0.79742,-1.03927 1.48792,-2.12305 2.07249,-3.23574z" fill="url(#color-64)"/><path d="M162.17734,207.47309l-25.62459,-17.06638c1.38178,-0.50293 2.73183,-1.1673 4.01948,-1.98711z" fill="url(#color-65)"/><path d="M107.66534,216.03985l11.6968,-28.61903c0.34466,0.31877 0.70636,0.62402 1.08497,0.91452c0.57279,0.43949 1.16801,0.83282 1.78187,1.18072z" fill="url(#color-66)"/><path d="M155.54646,193.33274l-14.02603,-5.55328c1.12226,-0.80201 2.18857,-1.72712 3.17698,-2.77101z" fill="url(#color-67)"/><path d="M110.05126,194.63542l7.28802,-9.49848c0.44555,0.61652 0.93803,1.20267 1.47715,1.75335z" fill="url(#color-68)"/><path d="M199.27868,162.91594l-38.43054,7.62862l20.12444,2.76748l-21.18432,2.75611l26.56317,6.80254l-35.36408,-4.60188c1.925,-5.03616 1.81634,-10.42205 -0.23855,-14.83292z" fill="url(#color-69)"/><path d="M177.38015,106.88564l-30.78849,49.96454c-0.28563,-0.25527 -0.58254,-0.50141 -0.89066,-0.73782c-1.39974,-1.074 -2.93343,-1.87227 -4.54573,-2.40589z" fill="url(#color-70)"/><path d="M167.086,145.15538l-18.06809,17.41448c-0.83662,-1.72702 -1.97596,-3.29888 -3.41263,-4.63409z" fill="url(#color-71)"/><path d="M142.45382,124.44502l-2.69931,30.08276c-1.31921,-0.41774 -2.68917,-0.65991 -4.07991,-0.73245c-1.33931,-0.11675 -2.7044,-0.05794 -4.06242,0.16986z" fill="url(#color-72)"/><path d="M102.12244,134.89623c-0.80487,1.04898 -4.21897,-0.21958 -7.62561,-2.83344c-3.40663,-2.61385 -5.51578,-5.58318 -4.71091,-6.63216c0.80485,-1.04896 4.21896,0.21959 7.62559,2.83344c3.40664,2.61386 5.5158,5.58317 4.71093,6.63216z" fill="url(#color-73)"/><path d="M95.6615,173.69318c-0.72437,0.94407 -1.98334,1.194 -2.81199,0.55819c-0.82865,-0.63581 -0.91316,-1.91655 -0.18879,-2.86063c0.72437,-0.94407 1.98333,-1.194 2.81199,-0.55818c0.82865,0.63581 0.91317,1.91654 0.18879,2.86062z" fill="url(#color-74)"/><path d="M53.09202,149.78116c-0.48291,0.62938 -1.77007,0.45238 -2.87492,-0.39535c-1.10485,-0.84774 -1.60902,-2.04517 -1.1261,-2.67456c0.48291,-0.62938 1.77006,-0.4524 2.87491,0.39533c1.10485,0.84774 1.60903,2.04519 1.12611,2.67458z" fill="url(#color-75)"/><path d="M164.22224,229.31616c-0.88535,1.15388 -2.57339,1.34476 -3.7703,0.42638c-1.19693,-0.91839 -1.4495,-2.59829 -0.56416,-3.75214c0.88535,-1.15388 2.57336,-1.34477 3.77028,-0.42639c1.19693,0.91839 1.44951,2.59829 0.56418,3.75215z" fill="url(#color-76)"/><path d="M170.68755,200.17873c-0.80487,1.04898 -2.27837,1.26939 -3.29113,0.49231c-1.01279,-0.77709 -1.18134,-2.25741 -0.37647,-3.3064c0.80485,-1.04896 2.27837,-1.26938 3.29114,-0.49229c1.01279,0.77709 1.18133,2.2574 0.37646,3.30638z" fill="url(#color-77)"/><path d="M178.5269,138.16744c-0.69805,-1.37498 2.65508,-4.96274 7.48943,-8.01349c4.83437,-3.05076 9.31928,-4.40923 10.01734,-3.03423c0.69805,1.37498 -2.65508,4.96274 -7.48944,8.01348c-4.83437,3.05076 -9.31927,4.40923 -10.01734,3.03423z" fill="url(#color-78)"/><path d="M173.2855,134.78889c-0.40777,-0.80319 1.55093,-2.89893 4.37489,-4.68099c2.82395,-1.78206 5.44376,-2.5756 5.85153,-1.77242c0.40778,0.80319 -1.55093,2.89893 -4.37489,4.68099c-2.82395,1.78206 -5.44376,2.5756 -5.85153,1.77242z" fill="url(#color-79)"/><path d="M164.12095,98.27741c-1.04632,1.36368 -2.71554,1.83921 -3.72834,1.06211c-1.01279,-0.77709 -0.9856,-2.51252 0.06073,-3.8762c1.04632,-1.36368 2.71556,-1.83919 3.72834,-1.0621c1.01279,0.77709 0.9856,2.51252 -0.06073,3.8762z" fill="url(#color-80)"/><path d="M156.83206,102.9444c-1.52925,1.99307 -4.63491,2.17703 -6.93669,0.41091c-2.30178,-1.76612 -2.92805,-4.81352 -1.3988,-6.80659c1.52925,-1.99307 4.63491,-2.17705 6.93668,-0.41093c2.30178,1.76612 2.92806,4.81355 1.39882,6.80662z" fill="url(#color-81)"/><path d="M172.31947,124.18197c-0.32194,0.41959 -0.73222,0.64518 -0.91636,0.5039c-0.18413,-0.14128 -0.07243,-0.59596 0.24952,-1.01555c0.32194,-0.41959 0.73222,-0.64521 0.91635,-0.50393c0.18413,0.14128 0.07243,0.59598 -0.24952,1.01557z" fill="url(#color-82)"/></g><path d="M96.63978,231.70978c-1.9002,3.89915 -4.22774,6.73102 -5.19872,6.32516c-0.97098,-0.40587 -0.21772,-3.89572 1.68249,-7.79486c1.9002,-3.89915 4.22775,-6.73104 5.19873,-6.32519c0.97098,0.40588 0.2177,3.89575 -1.68248,7.79487z" fill="url(#color-83)"/><path d="M91.72192,222.6663c-2.0524,2.6749 -4.276,4.41382 -4.96654,3.88398c-0.69053,-0.52983 0.41348,-3.12779 2.46589,-5.80269c2.0524,-2.6749 4.276,-4.41383 4.96654,-3.88399c0.69053,0.52983 -0.41349,3.1278 -2.46589,5.8027z" fill="url(#color-84)"/><path d="M78.09258,210.39823c-1.08657,1.41612 -3.19894,1.61918 -4.71811,0.45355c-1.51917,-1.16563 -1.86988,-3.25858 -0.78331,-4.6747c1.08657,-1.41612 3.19895,-1.61916 4.71811,-0.45353c1.51917,1.16563 1.86987,3.25857 0.78331,4.67468z" fill="url(#color-85)"/><path d="M170.68833,222.31472c5.13711,6.26931 7.80717,12.71059 5.96368,14.38701c-1.84349,1.67642 -7.50241,-2.04684 -12.63952,-8.31615c-5.13711,-6.26931 -7.80716,-12.7106 -5.96368,-14.38702c1.84349,-1.67642 7.50241,2.04683 12.63953,8.31615z" fill="url(#color-86)"/><path d="M153.27073,215.52376c1.92828,4.15941 2.46681,8.13583 1.20281,8.88157c-1.26399,0.74573 -3.8519,-2.02161 -5.78018,-6.18103c-1.92829,-4.15941 -2.4668,-8.13583 -1.20279,-8.88157c1.264,-0.74573 3.85187,2.0216 5.78017,6.18102z" fill="url(#color-87)"/></g><g><g><path d="M123.50398,77.17147z" fill="url(#color-88)"/><path d="M104.36866,191.68125l6.558,-8.54704l-31.67711,16.43142l29.79917,-23.30391l-15.81206,-2.17444l15.70485,-5.97028l-62.23128,-40.05428l65.22713,31.48982l-3.15975,-8.30861l5.72166,7.55854l-3.22759,-20.12908l8.1014,18.4371l10.56084,-70.20189l-2.24164,68.57524c-2.33258,0.45265 -4.63402,1.4033 -6.73722,2.81877c-2.12318,1.33844 -4.07917,3.09804 -5.73167,5.25173c-5.43836,7.08781 -5.90289,16.24572 -1.71992,22.53036z" fill="url(#color-89)"/><path d="M138.32999,205.06553l-6.44205,-11.27971l1.45725,43.66537l-10.28218,-45.26769c3.77993,1.75033 8.14045,1.9062 12.28069,0.62657z" fill="url(#color-90)"/><path d="M168.88431,193.20422l-23.89024,-6.74146c0.32466,-0.37033 0.63984,-0.75423 0.94469,-1.15156c0.79742,-1.03927 1.48792,-2.12305 2.07249,-3.23575z" fill="url(#color-91)"/><path d="M161.89242,209.56567l-25.62459,-17.06638c1.38178,-0.50293 2.73183,-1.1673 4.01949,-1.98711z" fill="url(#color-92)"/><path d="M107.38042,218.13244l11.69679,-28.61903c0.34466,0.31877 0.70636,0.62401 1.08498,0.91452c0.57279,0.43949 1.16801,0.83283 1.78187,1.18073z" fill="url(#color-93)"/><path d="M155.26154,195.42536l-14.02603,-5.55327c1.12226,-0.80201 2.18857,-1.72713 3.17698,-2.77101z" fill="url(#color-94)"/><path d="M109.76633,196.72804l7.28802,-9.49848c0.44555,0.61652 0.93804,1.20267 1.47715,1.75334z" fill="url(#color-95)"/><path d="M198.99375,165.00855l-38.43053,7.62862l20.12444,2.76748l-21.18432,2.7561l26.56317,6.80254l-35.36407,-4.60188c1.925,-5.03616 1.81634,-10.42205 -0.23855,-14.83292z" fill="url(#color-96)"/><path d="M177.09523,108.97824l-30.78849,49.96454c-0.28563,-0.25527 -0.58255,-0.50141 -0.89067,-0.73782c-1.39974,-1.074 -2.93342,-1.87227 -4.54572,-2.40589z" fill="url(#color-97)"/><path d="M166.80107,147.24795l-18.06809,17.41448c-0.83662,-1.72702 -1.97597,-3.29888 -3.41263,-4.63408z" fill="url(#color-98)"/><path d="M142.1689,126.53763l-2.69932,30.08277c-1.31921,-0.41774 -2.68917,-0.65992 -4.07991,-0.73246c-1.33931,-0.11675 -2.7044,-0.05793 -4.06242,0.16987z" fill="url(#color-99)"/><path d="M101.83752,136.98886c-0.80487,1.04898 -4.21898,-0.21958 -7.62561,-2.83344c-3.40663,-2.61385 -5.51578,-5.58318 -4.71091,-6.63216c0.80485,-1.04896 4.21896,0.21959 7.6256,2.83344c3.40664,2.61386 5.5158,5.58316 4.71093,6.63216z" fill="url(#color-100)"/><path d="M95.37657,175.78577c-0.72437,0.94407 -1.98334,1.194 -2.81199,0.55819c-0.82865,-0.63581 -0.91317,-1.91655 -0.18879,-2.86063c0.72437,-0.94407 1.98333,-1.194 2.81199,-0.55818c0.82865,0.63581 0.91317,1.91654 0.18879,2.86062z" fill="url(#color-101)"/><path d="M52.8071,151.87377c-0.48291,0.62938 -1.77007,0.45238 -2.87492,-0.39536c-1.10485,-0.84774 -1.60903,-2.04517 -1.12611,-2.67456c0.48291,-0.62938 1.77007,-0.45239 2.87492,0.39534c1.10485,0.84774 1.60903,2.04519 1.12611,2.67458z" fill="url(#color-102)"/><path d="M163.93732,231.40874c-0.88535,1.15388 -2.57339,1.34476 -3.7703,0.42639c-1.19693,-0.91839 -1.4495,-2.59829 -0.56416,-3.75214c0.88535,-1.15388 2.57335,-1.34477 3.77027,-0.42639c1.19693,0.91839 1.44952,2.59829 0.56419,3.75215z" fill="url(#color-103)"/><path d="M170.40262,202.27133c-0.80487,1.04898 -2.27836,1.26938 -3.29113,0.4923c-1.01279,-0.77709 -1.18134,-2.25741 -0.37647,-3.30639c0.80485,-1.04896 2.27837,-1.26938 3.29114,-0.4923c1.01279,0.77709 1.18133,2.2574 0.37646,3.30639z" fill="url(#color-104)"/><path d="M178.24198,140.26004c-0.69805,-1.37498 2.65507,-4.96275 7.48942,-8.0135c4.83437,-3.05076 9.31929,-4.40923 10.01735,-3.03423c0.69805,1.37498 -2.65509,4.96274 -7.48945,8.01348c-4.83437,3.05076 -9.31927,4.40923 -10.01734,3.03423z" fill="url(#color-105)"/><path d="M173.00058,136.88156c-0.40777,-0.80319 1.55093,-2.89893 4.37489,-4.68099c2.82395,-1.78206 5.44376,-2.5756 5.85153,-1.77242c0.40778,0.80319 -1.55093,2.89894 -4.37489,4.681c-2.82395,1.78206 -5.44377,2.5756 -5.85154,1.77241z" fill="url(#color-106)"/><path d="M163.83603,100.37001c-1.04632,1.36368 -2.71555,1.8392 -3.72835,1.0621c-1.01279,-0.77709 -0.9856,-2.51251 0.06073,-3.87619c1.04632,-1.36368 2.71556,-1.83919 3.72834,-1.0621c1.01279,0.77709 0.9856,2.51252 -0.06072,3.87619z" fill="url(#color-107)"/><path d="M156.54713,105.037c-1.52925,1.99307 -4.6349,2.17703 -6.93668,0.41091c-2.30178,-1.76612 -2.92805,-4.81352 -1.3988,-6.80658c1.52924,-1.99307 4.6349,-2.17704 6.93667,-0.41093c2.30178,1.76612 2.92807,4.81354 1.39882,6.80661z" fill="url(#color-108)"/><path d="M172.03455,126.27459c-0.32194,0.41959 -0.73222,0.64518 -0.91635,0.5039c-0.18413,-0.14128 -0.07243,-0.59596 0.24952,-1.01555c0.32194,-0.41959 0.73221,-0.64521 0.91635,-0.50393c0.18413,0.14128 0.07243,0.59599 -0.24952,1.01558z" fill="url(#color-109)"/></g><path d="M96.35486,233.80238c-1.9002,3.89915 -4.22774,6.73102 -5.19872,6.32516c-0.97098,-0.40587 -0.21773,-3.89572 1.68248,-7.79486c1.9002,-3.89915 4.22776,-6.73104 5.19873,-6.32518c0.97098,0.40588 0.2177,3.89574 -1.68248,7.79486z" fill="url(#color-110)"/><path d="M91.437,224.75891c-2.0524,2.6749 -4.276,4.41382 -4.96653,3.88399c-0.69053,-0.52983 0.41348,-3.12779 2.46588,-5.80269c2.0524,-2.6749 4.276,-4.41384 4.96654,-3.88399c0.69053,0.52983 -0.41349,3.1278 -2.46589,5.8027z" fill="url(#color-111)"/><path d="M77.80766,212.49084c-1.08657,1.41612 -3.19895,1.61919 -4.71812,0.45356c-1.51917,-1.16563 -1.86987,-3.25858 -0.7833,-4.6747c1.08657,-1.41612 3.19895,-1.61916 4.71811,-0.45353c1.51917,1.16563 1.86987,3.25856 0.78331,4.67467z" fill="url(#color-112)"/><path d="M170.40341,224.40733c5.13711,6.26931 7.80717,12.71059 5.96368,14.38701c-1.84349,1.67642 -7.50241,-2.04683 -12.63952,-8.31614c-5.13711,-6.26931 -7.80716,-12.7106 -5.96368,-14.38703c1.84349,-1.67642 7.50241,2.04684 12.63953,8.31616z" fill="url(#color-113)"/><path d="M152.98581,217.61638c1.92828,4.15941 2.46681,8.13583 1.20281,8.88157c-1.26399,0.74573 -3.8519,-2.02161 -5.78018,-6.18103c-1.92829,-4.15941 -2.4668,-8.13583 -1.20279,-8.88157c1.26399,-0.74573 3.85188,2.0216 5.78017,6.18102z" fill="url(#color-114)"/></g><g><g><path d="M122.99161,76.11794z" fill="url(#color-115)"/><path d="M103.85628,190.62776l6.558,-8.54704l-31.67712,16.43142l29.79917,-23.30391l-15.81206,-2.17444l15.70485,-5.97028l-62.23129,-40.05429l65.22713,31.48982l-3.15975,-8.3086l5.72166,7.55854l-3.22759,-20.12909l8.10141,18.4371l10.56083,-70.20189l-2.24164,68.57524c-2.33258,0.45265 -4.63402,1.4033 -6.73722,2.81877c-2.12318,1.33844 -4.07917,3.09804 -5.73167,5.25174c-5.43836,7.08781 -5.90289,16.24572 -1.71992,22.53035z" fill="url(#color-116)"/><path d="M137.81761,204.01206l-6.44205,-11.27971l1.45725,43.66537l-10.28218,-45.26769c3.77993,1.75033 8.14045,1.90619 12.28068,0.62657z" fill="url(#color-117)"/><path d="M168.37193,192.15072l-23.89022,-6.74145c0.32466,-0.37033 0.63983,-0.75423 0.94468,-1.15156c0.79742,-1.03927 1.48791,-2.12305 2.07248,-3.23575z" fill="url(#color-118)"/><path d="M161.38005,208.51221l-25.62459,-17.06638c1.38178,-0.50293 2.73183,-1.1673 4.01949,-1.98711z" fill="url(#color-119)"/><path d="M106.86805,217.07895l11.6968,-28.61903c0.34466,0.31877 0.70636,0.62402 1.08497,0.91452c0.57279,0.43949 1.16801,0.83282 1.78187,1.18072z" fill="url(#color-120)"/><path d="M154.74917,194.37187l-14.02603,-5.55328c1.12226,-0.80201 2.18857,-1.72712 3.17699,-2.77101z" fill="url(#color-121)"/><path d="M109.25396,195.67455l7.28802,-9.49848c0.44555,0.61652 0.93804,1.20267 1.47716,1.75334z" fill="url(#color-122)"/><path d="M198.48138,163.95507l-38.43053,7.62862l20.12444,2.76749l-21.18432,2.7561l26.56317,6.80254l-35.36407,-4.60188c1.925,-5.03616 1.81633,-10.42205 -0.23856,-14.83292z" fill="url(#color-123)"/><path d="M176.58286,107.92477l-30.78849,49.96454c-0.28563,-0.25527 -0.58255,-0.50141 -0.89067,-0.73782c-1.39974,-1.074 -2.93343,-1.87227 -4.54573,-2.40589z" fill="url(#color-124)"/><path d="M166.2887,146.19451l-18.06809,17.41448c-0.83662,-1.72702 -1.97596,-3.29888 -3.41263,-4.63409z" fill="url(#color-125)"/><path d="M141.65652,125.48415l-2.69931,30.08276c-1.31921,-0.41774 -2.68917,-0.65991 -4.07991,-0.73245c-1.33931,-0.11675 -2.7044,-0.05794 -4.06242,0.16986z" fill="url(#color-126)"/><path d="M101.32515,135.93536c-0.80487,1.04898 -4.21898,-0.21959 -7.62562,-2.83345c-3.40663,-2.61385 -5.51578,-5.58318 -4.71091,-6.63216c0.80485,-1.04896 4.21897,0.21959 7.6256,2.83345c3.40664,2.61386 5.5158,5.58317 4.71093,6.63216z" fill="url(#color-127)"/><path d="M94.8642,174.73229c-0.72437,0.94407 -1.98334,1.194 -2.81199,0.55819c-0.82865,-0.63581 -0.91316,-1.91655 -0.18879,-2.86063c0.72437,-0.94407 1.98332,-1.194 2.81198,-0.55818c0.82865,0.63581 0.91317,1.91654 0.18879,2.86062z" fill="url(#color-128)"/><path d="M52.29473,150.82029c-0.48291,0.62938 -1.77008,0.45238 -2.87493,-0.39535c-1.10485,-0.84774 -1.60902,-2.04517 -1.1261,-2.67456c0.48291,-0.62938 1.77007,-0.4524 2.87492,0.39534c1.10485,0.84774 1.60903,2.04519 1.12611,2.67458z" fill="url(#color-129)"/><path d="M163.42494,230.35527c-0.88535,1.15388 -2.57339,1.34476 -3.7703,0.42638c-1.19693,-0.91839 -1.44949,-2.59829 -0.56416,-3.75214c0.88535,-1.15388 2.57335,-1.34477 3.77027,-0.42639c1.19693,0.91839 1.44952,2.59829 0.56419,3.75215z" fill="url(#color-130)"/><path d="M169.89025,201.21786c-0.80487,1.04898 -2.27837,1.26939 -3.29113,0.49231c-1.01279,-0.77709 -1.18134,-2.25741 -0.37647,-3.3064c0.80485,-1.04896 2.27837,-1.26938 3.29114,-0.49229c1.01279,0.77709 1.18133,2.2574 0.37646,3.30638z" fill="url(#color-131)"/><path d="M177.7296,139.20657c-0.69805,-1.37498 2.65508,-4.96274 7.48943,-8.01349c4.83437,-3.05076 9.31928,-4.40923 10.01734,-3.03423c0.69805,1.37498 -2.65508,4.96275 -7.48944,8.01349c-4.83437,3.05076 -9.31927,4.40923 -10.01734,3.03423z" fill="url(#color-132)"/><path d="M172.48821,135.82802c-0.40777,-0.80319 1.55092,-2.89893 4.37488,-4.68099c2.82395,-1.78206 5.44377,-2.5756 5.85153,-1.77242c0.40778,0.80319 -1.55093,2.89893 -4.37489,4.68099c-2.82395,1.78206 -5.44376,2.57561 -5.85153,1.77242z" fill="url(#color-133)"/><path d="M163.32365,99.31652c-1.04632,1.36368 -2.71554,1.8392 -3.72834,1.0621c-1.01279,-0.77709 -0.9856,-2.51251 0.06073,-3.87619c1.04632,-1.36368 2.71556,-1.83919 3.72834,-1.0621c1.01279,0.77709 0.98559,2.51252 -0.06073,3.87619z" fill="url(#color-134)"/><path d="M156.03476,103.98353c-1.52925,1.99307 -4.63491,2.17703 -6.93669,0.41091c-2.30178,-1.76612 -2.92805,-4.81352 -1.3988,-6.80658c1.52924,-1.99307 4.63491,-2.17705 6.93668,-0.41094c2.30178,1.76612 2.92807,4.81355 1.39882,6.80662z" fill="url(#color-135)"/><path d="M171.52217,125.2211c-0.32194,0.41959 -0.73222,0.64518 -0.91635,0.5039c-0.18413,-0.14128 -0.07243,-0.59596 0.24952,-1.01555c0.32194,-0.41959 0.73222,-0.64521 0.91635,-0.50393c0.18413,0.14128 0.07243,0.59598 -0.24952,1.01557z" fill="url(#color-136)"/></g><path d="M95.84248,232.7489c-1.9002,3.89915 -4.22773,6.73102 -5.19871,6.32516c-0.97098,-0.40587 -0.21773,-3.89572 1.68248,-7.79486c1.9002,-3.89915 4.22775,-6.73104 5.19872,-6.32519c0.97098,0.40588 0.21771,3.89574 -1.68247,7.79486z" fill="url(#color-137)"/><path d="M90.92462,223.70543c-2.0524,2.6749 -4.276,4.41382 -4.96654,3.88398c-0.69053,-0.52983 0.41348,-3.12779 2.46588,-5.80269c2.0524,-2.6749 4.27601,-4.41383 4.96655,-3.88399c0.69053,0.52983 -0.41349,3.1278 -2.46589,5.8027z" fill="url(#color-138)"/><path d="M77.29528,211.43735c-1.08657,1.41612 -3.19894,1.61918 -4.71811,0.45355c-1.51917,-1.16563 -1.86988,-3.25858 -0.78331,-4.6747c1.08657,-1.41612 3.19895,-1.61916 4.71811,-0.45353c1.51917,1.16563 1.86987,3.25857 0.78331,4.67468z" fill="url(#color-139)"/><path d="M169.89103,223.35383c5.13711,6.26931 7.80717,12.71059 5.96368,14.38701c-1.84349,1.67642 -7.50241,-2.04684 -12.63952,-8.31615c-5.13711,-6.26931 -7.80716,-12.7106 -5.96368,-14.38702c1.84349,-1.67642 7.50241,2.04683 12.63953,8.31615z" fill="url(#color-140)"/><path d="M152.47343,216.56287c1.92828,4.15941 2.46681,8.13583 1.20281,8.88157c-1.26399,0.74573 -3.85189,-2.02161 -5.78018,-6.18103c-1.92829,-4.15941 -2.46681,-8.13583 -1.2028,-8.88157c1.26399,-0.74573 3.85188,2.0216 5.78017,6.18102z" fill="url(#color-141)"/></g></g><path d="M130.54167,174.35916c0,1.31168 -1.00736,2.375 -2.25,2.375c-1.24264,0 -2.25,-1.06332 -2.25,-2.375c0,-1.31168 1.00736,-2.375 2.25,-2.375c1.24264,0 2.25,1.06332 2.25,2.375z" fill="#ffffff" stroke="none" stroke-width="0" stroke-linecap="butt"/><path d="M141.29167,174.04713c0,7.36241 -6.29999,13.33082 -14.07143,13.33082c-7.77143,0 -14.07143,-5.96841 -14.07143,-13.33082c0,-7.36241 6.3,-13.33083 14.07143,-13.33083c7.77143,0 14.07143,5.96842 14.07143,13.33083zM127.57738,184.43058c5.52285,0 10,-4.47716 10,-10c0,-5.52284 -4.47715,-10 -10,-10c-5.52285,0 -10,4.47716 -10,10c0,5.52284 4.47715,10 10,10z" fill="url(#color-142)" stroke="none" stroke-width="0" stroke-linecap="butt"/><path d="M168.75595,173.68812c0,21.93774 -18.77206,39.7218 -41.92857,39.7218c-23.15651,0 -41.92858,-17.78406 -41.92858,-39.7218c0,-21.93774 18.77207,-39.72181 41.92858,-39.72181c23.15651,0 41.92857,17.78407 41.92857,39.72181zM127.89155,204.62763c16.4564,0 29.79695,-13.34055 29.79695,-29.79695c0,-16.45639 -13.34056,-29.79695 -29.79695,-29.79695c-16.45639,0 -29.79695,13.34056 -29.79695,29.79695c0,16.45639 13.34055,29.79695 29.79695,29.79695z" fill="url(#color-143)" stroke="none" stroke-width="0" stroke-linecap="butt"/><path d="M265,63.8185c0,0 -73.67047,58.9078 -98.92059,79.0981c-15.66625,12.52693 -38.07941,30.44877 -38.07941,30.44877l114,-108.5" fill="url(#color-144)" stroke="#000000" stroke-width="0" stroke-linecap="round"/><path d="M240.16667,103.48522l-111,70.5l106.5,-72.5" fill="url(#color-145)" stroke="#000000" stroke-width="0" stroke-linecap="round"/><path d="M-1.33333,243.98523l129,-69l-180.5,136" fill="url(#color-146)" stroke="#000000" stroke-width="0" stroke-linecap="round"/><path d="M7.17222,227.80824l120.28773,-53.12356l-116.13708,55.77347" data-paper-data="{&quot;index&quot;:null}" fill="url(#color-147)" stroke="#000000" stroke-width="0" stroke-linecap="round"/><path d="M134.70833,175.08138c0,3.64354 -2.79822,6.59722 -6.25,6.59722c-3.45178,0 -6.25,-2.95368 -6.25,-6.59722c0,-3.64354 2.79822,-6.59722 6.25,-6.59722c3.45178,0 6.25,2.95368 6.25,6.59722z" fill="url(#color-148)" stroke="none" stroke-width="0" stroke-linecap="butt"/><path d="M147.8076,160.20434c0,7.55446 -5.78656,13.67857 -12.92464,13.67857c-7.13808,0 -12.92463,-6.1241 -12.92463,-13.67857c0,-7.55446 5.78655,-13.67857 12.92463,-13.67857c7.13808,0 12.92464,6.12411 12.92464,13.67857z" fill="url(#color-149)" stroke="none" stroke-width="0" stroke-linecap="butt"/><path d="M131.14093,187.00648c0,5.36259 -4.10763,9.70982 -9.17464,9.70982c-5.06701,0 -9.17463,-4.34724 -9.17463,-9.70982c0,-5.36259 4.10762,-9.70982 9.17463,-9.70982c5.06701,0 9.17464,4.34724 9.17464,9.70982z" fill="url(#color-150)" stroke="none" stroke-width="0" stroke-linecap="butt"/><path d="M154.76167,122.3648c0,17.86723 -13.68593,32.35148 -30.56835,32.35148c-16.88242,0 -30.56832,-14.48425 -30.56832,-32.35148c0,-17.86723 13.6859,-32.3515 30.56832,-32.3515c16.88242,0 30.56835,14.48427 30.56835,32.3515z" fill="url(#color-151)" stroke="none" stroke-width="0" stroke-linecap="butt"/><path d="M132.4225,230.27564c0,0.9665 -3.24594,1.75 -7.25,1.75c-4.00406,0 -7.25,-0.7835 -7.25,-1.75c0,-0.9665 3.24594,-1.75 7.25,-1.75c4.00406,0 7.25,0.7835 7.25,1.75z" fill="#00ff08" stroke="none" stroke-width="0" stroke-linecap="butt"/><path d="M196.4225,234.77564c0,0.69036 -1.11929,1.25 -2.5,1.25c-1.38071,0 -2.5,-0.55964 -2.5,-1.25c0,-0.69036 1.11929,-1.25 2.5,-1.25c1.38071,0 2.5,0.55964 2.5,1.25z" fill="#00ff08" stroke="none" stroke-width="0" stroke-linecap="butt"/><path d="M60.1725,300.82406c0,-1.51878 1.23121,-2.75 2.75,-2.75c1.51879,0 2.75,1.23122 2.75,2.75c0,1.51878 -1.23121,2.75 -2.75,2.75c-1.51879,0 -2.75,-1.23122 -2.75,-2.75z" fill="url(#color-152)" stroke="none" stroke-width="0.5" stroke-linecap="butt"/><path d="M109.97681,279.6794c0,15.25005 -12.606,27.61267 -28.15629,27.61267c-15.55029,0 -28.15628,-12.36262 -28.15628,-27.61267c0,-15.25005 12.60599,-27.61267 28.15628,-27.61267c15.55028,0 28.15629,12.36262 28.15629,27.61267z" fill="url(#color-153)" stroke="none" stroke-width="0" stroke-linecap="butt"/></g></g></svg>