<svg version="1.1" xmlns="http://www.w3.org/2000/svg" xmlns:xlink="http://www.w3.org/1999/xlink" width="71.45251" height="71.45252" viewBox="0,0,71.45251,71.45252"><defs><radialGradient cx="237.90925" cy="180.14128" r="35.72626" gradientUnits="userSpaceOnUse" id="color-1"><stop offset="0" stop-color="#000000"/><stop offset="1" stop-color="#000000" stop-opacity="0"/></radialGradient><linearGradient x1="215.92394" y1="179.62119" x2="266.6306" y2="179.62119" gradientUnits="userSpaceOnUse" id="color-2"><stop offset="0" stop-color="#eb0000"/><stop offset="1" stop-color="#ff5454"/></linearGradient><linearGradient x1="236.62211" y1="179.62124" x2="247.08215" y2="179.62124" gradientUnits="userSpaceOnUse" id="color-3"><stop offset="0" stop-color="#3d0000"/><stop offset="1" stop-color="#3d0000" stop-opacity="0"/></linearGradient><radialGradient cx="250.11688" cy="179.67198" r="7.6934" gradientUnits="userSpaceOnUse" id="color-4"><stop offset="0" stop-color="#3d0000"/><stop offset="1" stop-color="#3d0000" stop-opacity="0"/></radialGradient><linearGradient x1="222.5798" y1="180.14127" x2="239.13047" y2="180.14127" gradientUnits="userSpaceOnUse" id="color-5"><stop offset="0" stop-color="#dc0000"/><stop offset="1" stop-color="#000000"/></linearGradient><linearGradient x1="211.13514" y1="180.19983" x2="232.32" y2="180.19983" gradientUnits="userSpaceOnUse" id="color-6"><stop offset="0" stop-color="#eb0000"/><stop offset="1" stop-color="#ff5454"/></linearGradient><radialGradient cx="206.6922" cy="188.61117" r="5.0165" gradientUnits="userSpaceOnUse" id="color-7"><stop offset="0" stop-color="#420000"/><stop offset="1" stop-color="#420000" stop-opacity="0"/></radialGradient><radialGradient cx="208.35381" cy="167.32906" r="5.01649" gradientUnits="userSpaceOnUse" id="color-8"><stop offset="0" stop-color="#420000"/><stop offset="1" stop-color="#420000" stop-opacity="0"/></radialGradient></defs><g transform="translate(-202.183,-144.41502)"><g data-paper-data="{&quot;isPaintingLayer&quot;:true}" fill-rule="nonzero" stroke-linejoin="miter" stroke-miterlimit="10" stroke-dasharray="" stroke-dashoffset="0" style="mix-blend-mode: normal"><path d="M237.90926,215.86754c-19.73107,0 -35.72626,-15.99519 -35.72626,-35.72626c0,-19.73107 15.99519,-35.72626 35.72626,-35.72626c19.73107,0 35.72625,15.99519 35.72625,35.72626c0,19.73107 -15.99518,35.72626 -35.72625,35.72626z" fill="url(#color-1)" stroke="none" stroke-width="0.5" stroke-linecap="butt"/><path d="M215.92394,179.62119c0,-14.00226 11.35108,-25.35334 25.35334,-25.35334c14.00226,0 25.35334,11.35108 25.35334,25.35334c0,14.00226 -11.35108,25.35333 -25.35334,25.35333c-14.00226,0 -25.35334,-11.35108 -25.35334,-25.35334z" fill="url(#color-2)" stroke="#000000" stroke-width="0" stroke-linecap="butt"/><path d="M247.08215,204.56481c0,0 -4.41935,0.62521 -6.23445,0.55356c-1.46235,-0.05772 -4.22557,-0.55356 -4.22557,-0.55356l0.39722,-50.04923c0,0 2.90581,-0.39722 4.36938,-0.39722c1.57375,0 4.76659,0.39722 4.76659,0.39722z" fill="url(#color-3)" stroke="none" stroke-width="0" stroke-linecap="butt"/><path d="M250.11688,171.97858c2.17871,0 3.9449,3.44446 3.9449,7.6934c0,4.24894 -1.76619,7.6934 -3.9449,7.6934c-2.17871,0 -3.9449,-3.44445 -3.9449,-7.6934c0,-4.24894 1.76619,-7.6934 3.9449,-7.6934z" fill="url(#color-4)" stroke="none" stroke-width="0" stroke-linecap="butt"/><path d="M249.96534,180.63625c4.83104,0 8.74736,4.49671 8.74736,10.04368c0,5.54698 -3.91633,10.04368 -8.74736,10.04368c-4.83104,0 -8.74736,-4.49671 -8.74736,-10.04368c0,-5.54698 3.91633,-10.04368 8.74736,-10.04368z" fill="#630000" stroke="none" stroke-width="0" stroke-linecap="butt"/><path d="M249.72982,158.58182c4.83104,0 8.74736,4.49671 8.74736,10.04368c0,5.54698 -3.91633,10.04368 -8.74736,10.04368c-4.83104,0 -8.74736,-4.49671 -8.74736,-10.04368c0,-5.54698 3.91633,-10.04368 8.74736,-10.04368z" fill="#630000" stroke="none" stroke-width="0" stroke-linecap="butt"/><path d="M250.68958,180.58399c3.88054,0 7.02634,3.99627 7.02634,8.92591c0,4.92965 -3.1458,8.92591 -7.02634,8.92591c-3.88054,0 -7.02634,-3.99627 -7.02634,-8.92591c0,-4.92965 3.1458,-8.92591 7.02634,-8.92591z" fill="#000000" stroke="none" stroke-width="0" stroke-linecap="butt"/><path d="M250.45841,160.91792c3.88054,0 7.02634,3.99627 7.02634,8.92591c0,4.92965 -3.1458,8.92591 -7.02634,8.92591c-3.88054,0 -7.02634,-3.99626 -7.02634,-8.92591c0,-4.92964 3.1458,-8.92591 7.02634,-8.92591z" fill="#000000" stroke="none" stroke-width="0" stroke-linecap="butt"/><path d="M254.66025,187.79327c1.0599,0 1.91912,1.08667 1.91912,2.42712c0,1.34046 -0.85921,2.42711 -1.91912,2.42711c-1.0599,0 -1.91912,-1.08666 -1.91912,-2.42711c0,-1.34046 0.85922,-2.42712 1.91912,-2.42712z" fill="#ffffff" stroke="none" stroke-width="0" stroke-linecap="butt"/><path d="M254.40346,167.73003c1.0599,0 1.91912,1.08666 1.91912,2.42711c0,1.34046 -0.85921,2.42711 -1.91912,2.42711c-1.0599,0 -1.91912,-1.08666 -1.91912,-2.42711c0,-1.34046 0.85922,-2.42711 1.91912,-2.42711z" fill="#ffffff" stroke="none" stroke-width="0" stroke-linecap="butt"/><path d="M239.13047,209.27281l-8.24618,1.87898l-7.99045,-6.25003l-0.31404,-49.678l7.83344,-6.27195l8.71723,1.87898z" fill="url(#color-5)" stroke="none" stroke-width="0" stroke-linecap="butt"/><path d="M232.32,199.92043h-19.45766l-6.39363,-6.72793l-2.35864,-12.706l1.85392,-12.70388l7.03077,-7.48105c0,0 2.30432,0.03402 4.9522,0.05637c3.88421,0.03278 14.37305,0.12129 14.37305,0.12129z" fill="url(#color-6)" stroke="none" stroke-width="0" stroke-linecap="butt"/><path d="M229.73559,200.33697h-3.47777v-40.13197h3.47777z" fill="#750000" stroke="none" stroke-width="0" stroke-linecap="butt"/><path d="M231.77481,197.60071h-7.93037v-2.43224h7.93037z" fill="#4c0000" stroke="none" stroke-width="0" stroke-linecap="butt"/><path d="M231.77481,191.21608h-7.93037v-2.43224h7.93037z" fill="#4c0000" stroke="none" stroke-width="0" stroke-linecap="butt"/><path d="M231.54823,184.52742h-7.93037v-2.43224h7.93037z" fill="#4c0000" stroke="none" stroke-width="0" stroke-linecap="butt"/><path d="M231.54823,178.75084h-7.93037v-2.43224h7.93037z" fill="#4c0000" stroke="none" stroke-width="0" stroke-linecap="butt"/><path d="M231.54823,172.36621h-7.93037v-2.43224h7.93037z" fill="#4c0000" stroke="none" stroke-width="0" stroke-linecap="butt"/><path d="M231.32166,165.67755h-7.59049v-2.43224h7.59049z" fill="#4c0000" stroke="none" stroke-width="0" stroke-linecap="butt"/><path d="M217.83194,169.33529c1.81003,0 3.27734,4.90028 3.27734,10.94509c0,6.04479 -1.46731,10.94509 -3.27734,10.94509c-1.81003,0 -3.27735,-4.90029 -3.27735,-10.94509c0,-6.0448 1.46731,-10.94509 3.27735,-10.94509z" fill="#4c0000" stroke="none" stroke-width="0" stroke-linecap="butt"/><path d="M217.8707,177.5441c2.41337,0 4.3698,1.09382 4.3698,2.44309c0,1.34928 -1.95643,2.4431 -4.3698,2.4431c-2.41337,0 -4.3698,-1.09382 -4.3698,-2.4431c0,-1.34928 1.95643,-2.44309 4.3698,-2.44309z" fill="#ffffff" stroke="none" stroke-width="0" stroke-linecap="butt"/><path d="M214.42383,200.10497h-1.69936l-3.28543,-19.95836l3.28543,-19.66048h1.69936l-2.94556,19.95836z" fill="#630000" stroke="none" stroke-width="0" stroke-linecap="butt"/><path d="M208.83954,193.64261l-1.8289,-9.72823l0.98865,-0.33465l1.8289,9.72823z" fill="url(#color-7)" stroke="none" stroke-width="0" stroke-linecap="butt"/><path d="M208.062,171.60618l3.11084,-9.12344l0.92718,0.56921l-3.11085,9.12344z" fill="url(#color-8)" stroke="none" stroke-width="0" stroke-linecap="butt"/><path d="M260.41084,184.97719l1.2526,-11.47652" fill="none" stroke="#000000" stroke-width="1.5" stroke-linecap="round"/></g></g></svg>