<svg version="1.1" xmlns="http://www.w3.org/2000/svg" xmlns:xlink="http://www.w3.org/1999/xlink" width="85.96734" height="85.27405" viewBox="0,0,85.96734,85.27405"><defs><radialGradient cx="240.00001" cy="179.99999" r="34.79887" gradientUnits="userSpaceOnUse" id="color-1"><stop offset="0" stop-color="#000000"/><stop offset="1" stop-color="#000000" stop-opacity="0"/></radialGradient><linearGradient x1="243.33351" y1="210.52766" x2="244.15715" y2="201.94664" gradientUnits="userSpaceOnUse" id="color-2"><stop offset="0" stop-color="#eb0000"/><stop offset="1" stop-color="#ff5454"/></linearGradient><linearGradient x1="245.21243" y1="151.0294" x2="245.79992" y2="159.62981" gradientUnits="userSpaceOnUse" id="color-3"><stop offset="0" stop-color="#eb0000"/><stop offset="1" stop-color="#ff5454"/></linearGradient><linearGradient x1="214.60383" y1="179.93831" x2="265.39132" y2="180.41528" gradientUnits="userSpaceOnUse" id="color-4"><stop offset="0" stop-color="#eb0000"/><stop offset="1" stop-color="#ff5454"/></linearGradient></defs><g transform="translate(-197.01633,-137.36297)"><g data-paper-data="{&quot;isPaintingLayer&quot;:true}" fill-rule="nonzero" stroke-linejoin="miter" stroke-miterlimit="10" stroke-dasharray="" stroke-dashoffset="0" style="mix-blend-mode: normal"><path d="M197.01633,222.63703v-85.27405h85.96734v85.27405z" fill="none" stroke="none" stroke-width="NaN" stroke-linecap="butt"/><path d="M205.20267,179.67319c0.18048,-19.21804 15.9061,-34.65103 35.12412,-34.47054c19.21804,0.18048 34.65103,15.9061 34.47054,35.12412c-0.18048,19.21804 -15.9061,34.65103 -35.12412,34.47054c-19.21804,-0.18048 -34.65103,-15.9061 -34.47054,-35.12412z" fill="url(#color-1)" stroke="#000000" stroke-width="0" stroke-linecap="butt"/><path d="M238.59672,205.74296c0.22745,-2.36957 2.71695,-4.06925 5.56044,-3.79632c2.84351,0.27294 4.96422,2.4151 4.73679,4.78469c-0.22744,2.36958 -2.71693,4.06927 -5.56042,3.79633c-2.84353,-0.27293 -4.96423,-2.41511 -4.73681,-4.7847z" data-paper-data="{&quot;index&quot;:null}" fill="url(#color-2)" stroke="none" stroke-width="0" stroke-linecap="butt"/><path d="M240.34592,155.68209c-0.16221,-2.37493 2.01657,-4.45803 4.86652,-4.65269c2.84991,-0.19468 5.29175,1.57279 5.45397,3.94774c0.16221,2.37493 -2.01658,4.45801 -4.8665,4.65268c-2.84991,0.19468 -5.29176,-1.57279 -5.45399,-3.94773z" data-paper-data="{&quot;index&quot;:null}" fill="url(#color-3)" stroke="none" stroke-width="0" stroke-linecap="butt"/><path d="M214.60383,179.93831c0.13171,-14.02457 11.60765,-25.28697 25.63222,-25.15526c14.02457,0.13171 25.28697,11.60765 25.15526,25.63222c-0.13171,14.02457 -11.60765,25.28697 -25.63222,25.15526c-14.02457,-0.13171 -25.28697,-11.60765 -25.15526,-25.63222z" fill="url(#color-4)" stroke="#000000" stroke-width="0" stroke-linecap="butt"/><path d="M242.56837,168.97237c0.01513,-2.00414 2.33812,-3.60413 5.18851,-3.57368c2.8504,0.03045 5.14883,1.67982 5.13369,3.68396c-0.01513,2.00414 -2.33812,3.60413 -5.18851,3.57368c-2.8504,-0.03045 -5.14883,-1.67982 -5.13369,-3.68396z" fill="#000000" stroke="#000000" stroke-width="0" stroke-linecap="butt"/><path d="M254.86662,168.09929l-0.22198,23.63593" fill="none" stroke="#000000" stroke-width="2" stroke-linecap="round"/><path d="M234.22302,182.57325c4.38129,0.06022 7.91866,1.15368 7.90094,2.44229c-0.01772,1.28862 -3.5838,2.28442 -7.96509,2.22419c-4.38129,-0.06022 -7.91865,-1.15368 -7.90093,-2.44229c0.01772,-1.28862 3.58379,-2.28442 7.96508,-2.22419z" fill="#000000" stroke="none" stroke-width="0" stroke-linecap="butt"/><path d="M234.63821,178.09887c4.38128,0.06022 7.91866,1.15369 7.90094,2.44229c-0.01772,1.28861 -3.5838,2.28441 -7.96509,2.22418c-4.38128,-0.06022 -7.91865,-1.15368 -7.90093,-2.44228c0.01772,-1.28861 3.5838,-2.28442 7.96508,-2.22419z" fill="#000000" stroke="none" stroke-width="0" stroke-linecap="butt"/><path d="M234.93554,173.62285c4.38128,0.06022 7.91866,1.15369 7.90094,2.44229c-0.01772,1.28861 -3.5838,2.28441 -7.96509,2.22418c-4.38128,-0.06022 -7.91865,-1.15368 -7.90093,-2.44228c0.01772,-1.28861 3.5838,-2.28442 7.96508,-2.22419z" fill="#000000" stroke="none" stroke-width="0" stroke-linecap="butt"/><path d="M235.02186,200.64744c4.32579,0.69773 7.66617,2.29475 7.46095,3.56704c-0.20521,1.27228 -3.87832,1.73806 -8.20411,1.04033c-4.32579,-0.69773 -7.66616,-2.29475 -7.46094,-3.56703c0.20521,-1.27228 3.87831,-1.73806 8.20411,-1.04034z" fill="#000000" stroke="none" stroke-width="0" stroke-linecap="butt"/><path d="M227.88456,158.38747c-0.17017,-1.27745 3.21285,-2.78204 7.55619,-3.3606c4.34333,-0.57856 8.00224,-0.012 8.1724,1.26544c0.17017,1.27745 -3.21285,2.78205 -7.55619,3.3606c-4.34332,0.57856 -8.00224,0.012 -8.1724,-1.26544z" data-paper-data="{&quot;index&quot;:null}" fill="#000000" stroke="none" stroke-width="0" stroke-linecap="butt"/><path d="M231.67501,155.56917c5.37135,0.07383 1.25748,11.24477 1.10312,22.47465c-0.15436,11.22988 1.11187,24.59692 -4.25948,24.52309c-5.37135,-0.07383 -15.34625,-13.56059 -15.19188,-24.79046c0.15436,-11.22988 12.97689,-22.2811 18.34824,-22.20727z" fill="#a90505" stroke="none" stroke-width="NaN" stroke-linecap="butt"/><path d="M229.11699,182.65044c3.22249,0.0443 4.17427,5.09551 4.06487,13.05408c-0.1094,7.95856 1.21739,17.25925 -2.00509,17.21496c-3.22249,-0.0443 -8.20209,-7.98042 -8.09269,-15.93898c0.1094,-7.95856 2.81042,-14.37435 6.03291,-14.33005z" fill="#a83a3a" stroke="none" stroke-width="0" stroke-linecap="butt"/><path d="M241.79063,191.2443c0.01513,-2.00414 2.33812,-3.60413 5.18851,-3.57368c2.8504,0.03046 5.14882,1.67982 5.13368,3.68397c-0.01513,2.00414 -2.33812,3.60413 -5.1885,3.57367c-2.8504,-0.03045 -5.14883,-1.67984 -5.13369,-3.68397z" fill="#000000" stroke="#000000" stroke-width="0" stroke-linecap="butt"/></g></g></svg>