<svg version="1.1" xmlns="http://www.w3.org/2000/svg" xmlns:xlink="http://www.w3.org/1999/xlink" width="122.088" height="156.84433" viewBox="0,0,122.088,156.84433"><defs><radialGradient cx="272.01905" cy="195.41696" r="17.48859" gradientUnits="userSpaceOnUse" id="color-1"><stop offset="0" stop-color="#000000" stop-opacity="0.63137"/><stop offset="1" stop-color="#000000" stop-opacity="0"/></radialGradient><linearGradient x1="262.79006" y1="180.56178" x2="281.24807" y2="210.27216" gradientUnits="userSpaceOnUse" id="color-2"><stop offset="0" stop-color="#ff5454"/><stop offset="1" stop-color="#eb0000"/></linearGradient><linearGradient x1="273.37193" y1="182.47515" x2="254.93753" y2="193.92776" gradientUnits="userSpaceOnUse" id="color-3"><stop offset="0" stop-color="#eb0000"/><stop offset="1" stop-color="#ff5454"/></linearGradient><radialGradient cx="281.03883" cy="231.07643" r="20.90193" gradientUnits="userSpaceOnUse" id="color-4"><stop offset="0" stop-color="#000000" stop-opacity="0.63137"/><stop offset="1" stop-color="#000000" stop-opacity="0"/></radialGradient><linearGradient x1="270.00856" y1="213.32187" x2="292.06909" y2="248.83098" gradientUnits="userSpaceOnUse" id="color-5"><stop offset="0" stop-color="#ff5454"/><stop offset="1" stop-color="#eb0000"/></linearGradient><radialGradient cx="298.45007" cy="298.29415" r="35.01038" gradientUnits="userSpaceOnUse" id="color-6"><stop offset="0" stop-color="#000000" stop-opacity="0.63137"/><stop offset="1" stop-color="#000000" stop-opacity="0"/></radialGradient><linearGradient x1="279.97456" y1="268.55553" x2="316.92557" y2="328.0327" gradientUnits="userSpaceOnUse" id="color-7"><stop offset="0" stop-color="#ff5454"/><stop offset="1" stop-color="#eb0000"/></linearGradient><linearGradient x1="282.14647" y1="274.17026" x2="369.22953" y2="289.98299" gradientUnits="userSpaceOnUse" id="color-8"><stop offset="0" stop-color="#ff0000"/><stop offset="1" stop-color="#ff0000" stop-opacity="0.5"/></linearGradient><linearGradient x1="279.62584" y1="266.54233" x2="375.18354" y2="283.89387" gradientUnits="userSpaceOnUse" id="color-9"><stop offset="0" stop-color="#ffffff"/><stop offset="1" stop-color="#808080"/></linearGradient><linearGradient x1="283.98197" y1="211.9926" x2="268.95975" y2="216.09135" gradientUnits="userSpaceOnUse" id="color-10"><stop offset="0" stop-color="#000000"/><stop offset="1" stop-color="#929292"/></linearGradient><linearGradient x1="283.98197" y1="211.9926" x2="268.95975" y2="216.09135" gradientUnits="userSpaceOnUse" id="color-11"><stop offset="0" stop-color="#929292" stop-opacity="0"/><stop offset="1" stop-color="#929292"/></linearGradient><linearGradient x1="277.74347" y1="261.58961" x2="314.12232" y2="278.67855" gradientUnits="userSpaceOnUse" id="color-12"><stop offset="0" stop-color="#ffffff"/><stop offset="1" stop-color="#9d9d9d"/></linearGradient><linearGradient x1="311.79284" y1="273.50356" x2="254.35256" y2="300.48614" gradientUnits="userSpaceOnUse" id="color-13"><stop offset="0" stop-color="#f20000"/><stop offset="1" stop-color="#ff7979"/></linearGradient><linearGradient x1="280.84213" y1="245.75301" x2="287.66211" y2="243.96146" gradientUnits="userSpaceOnUse" id="color-14"><stop offset="0" stop-color="#c6c6c6"/><stop offset="1" stop-color="#6b6b6b"/></linearGradient><linearGradient x1="277.05148" y1="237.63308" x2="287.90128" y2="242.7298" gradientUnits="userSpaceOnUse" id="color-15"><stop offset="0" stop-color="#ff5454"/><stop offset="1" stop-color="#ce0000"/></linearGradient><linearGradient x1="293.20183" y1="300.49339" x2="270.85276" y2="310.99185" gradientUnits="userSpaceOnUse" id="color-16"><stop offset="0" stop-color="#ffadad" stop-opacity="0"/><stop offset="1" stop-color="#ffadad"/></linearGradient><linearGradient x1="293.20183" y1="300.49339" x2="270.85276" y2="310.99185" gradientUnits="userSpaceOnUse" id="color-17"><stop offset="0" stop-color="#ab0000"/><stop offset="1" stop-color="#ff5454"/></linearGradient><linearGradient x1="285.88217" y1="293.29524" x2="263.53314" y2="303.7937" gradientUnits="userSpaceOnUse" id="color-18"><stop offset="0" stop-color="#ff6b6b" stop-opacity="0"/><stop offset="1" stop-color="#ff6b6b"/></linearGradient><linearGradient x1="285.88217" y1="293.29524" x2="263.53314" y2="303.7937" gradientUnits="userSpaceOnUse" id="color-19"><stop offset="0" stop-color="#ab0000"/><stop offset="1" stop-color="#ff5454"/></linearGradient><linearGradient x1="298.88309" y1="322.9874" x2="298.88308" y2="308.07513" gradientUnits="userSpaceOnUse" id="color-20"><stop offset="0" stop-color="#ffffff" stop-opacity="0.5207"/><stop offset="1" stop-color="#ffffff" stop-opacity="0"/></linearGradient><linearGradient x1="282.75629" y1="308.00199" x2="263.73242" y2="306.76998" gradientUnits="userSpaceOnUse" id="color-21"><stop offset="0" stop-color="#ab0000"/><stop offset="1" stop-color="#ff5454"/></linearGradient><linearGradient x1="285.99535" y1="226.56443" x2="274.50078" y2="233.70559" gradientUnits="userSpaceOnUse" id="color-22"><stop offset="0" stop-color="#000000"/><stop offset="1" stop-color="#929292"/></linearGradient><linearGradient x1="291.24654" y1="247.30186" x2="279.75195" y2="254.44303" gradientUnits="userSpaceOnUse" id="color-23"><stop offset="0" stop-color="#000000"/><stop offset="1" stop-color="#929292"/></linearGradient><linearGradient x1="291.6537" y1="209.81662" x2="273.21933" y2="221.26923" gradientUnits="userSpaceOnUse" id="color-24"><stop offset="0" stop-color="#eb0000"/><stop offset="1" stop-color="#ff5454"/></linearGradient></defs><g transform="translate(-253.30211,-176.46496)"><g data-paper-data="{&quot;isPaintingLayer&quot;:true}" fill-rule="nonzero" stroke-linejoin="miter" stroke-miterlimit="10" stroke-dasharray="" stroke-dashoffset="0" style="mix-blend-mode: normal"><path d="M286.87426,186.18798c5.09704,8.20429 2.57811,18.98717 -5.62619,24.08419c-8.20428,5.09703 -18.98716,2.57811 -24.08419,-5.6262c-5.09704,-8.20427 -2.57811,-18.98715 5.62619,-24.08417c8.20427,-5.09704 18.98714,-2.57812 24.08417,5.62619z" data-paper-data="{&quot;index&quot;:null}" fill="url(#color-1)" stroke="url(#color-2)" stroke-width="0" stroke-linecap="butt"/><path d="M269.88103,197.41864c-5.0905,3.16256 -11.78095,1.59962 -14.9435,-3.49089c-3.16256,-5.0905 -1.59962,-11.78095 3.49089,-14.9435c5.0905,-3.16256 11.78095,-1.59962 14.9435,3.49089c3.16256,5.0905 1.59962,11.78095 -3.49089,14.9435z" data-paper-data="{&quot;index&quot;:null}" fill="url(#color-3)" stroke="#000000" stroke-width="0" stroke-linecap="butt"/><path d="M292.06908,248.831c-9.80555,6.09184 -22.69297,3.08129 -28.78482,-6.72429c-6.09184,-9.80555 -3.08127,-22.69297 6.72429,-28.78482c9.80555,-6.09184 22.69297,-3.08129 28.78482,6.72429c6.09184,9.80555 3.08127,22.69297 -6.72429,28.78482z" data-paper-data="{&quot;index&quot;:null}" fill="url(#color-4)" stroke="url(#color-5)" stroke-width="0" stroke-linecap="butt"/><path d="M316.92556,328.0327c-16.42415,10.20374 -38.01032,5.1611 -48.21406,-11.26307c-10.20374,-16.42415 -5.16107,-38.01033 11.26307,-48.21406c16.42415,-10.20374 38.01032,-5.1611 48.21406,11.26307c10.20374,16.42415 5.16107,38.01033 -11.26307,48.21406z" data-paper-data="{&quot;index&quot;:null}" fill="url(#color-6)" stroke="url(#color-7)" stroke-width="0" stroke-linecap="butt"/><path d="M328.25678,280.54458c32.5346,-6.81905 36.19202,-34.22932 44.63742,-32.9281c6.76183,1.04182 -0.44216,32.93913 -18.86114,53.0307c-18.41898,20.09156 -48.76745,25.41338 -64.54305,21.17551c-11.08956,-2.97903 -8.82315,-12.12831 -8.82315,-12.12831l26.56002,-25.91457c0,0 -11.50469,3.58383 21.0299,-3.23523z" data-paper-data="{&quot;index&quot;:null}" fill="url(#color-8)" stroke="url(#color-9)" stroke-width="0" stroke-linecap="butt"/><path d="M274.60478,222.0406l-13.76935,-35.72538c0,0 -1.70349,-7.56369 5.28289,-9.51168c7.12254,-1.98596 9.73932,5.41291 9.73932,5.41291l5.43994,38.19889z" data-paper-data="{&quot;index&quot;:null}" fill="url(#color-10)" stroke="url(#color-11)" stroke-width="0" stroke-linecap="butt"/><path d="M289.96211,256.03297c0,0 6.84503,9.82741 13.44563,13.83026c6.00945,3.64435 11.205,14.33515 11.205,14.33515l-21.82477,11.77891l-8.45479,-20.77485c0,0 -0.4757,-4.16881 -0.5066,-6.60846c-0.04112,-3.24754 0.91995,-10.85605 0.91995,-10.85605z" data-paper-data="{&quot;index&quot;:null}" fill="url(#color-12)" stroke="#ffffff" stroke-width="0" stroke-linecap="butt"/><path d="M284.15448,284.05512c2.01699,-1.1919 6.88981,5.13094 10.12685,5.09139c17.52329,-0.21412 11.02953,-21.18592 17.5115,-15.64292c3.26011,2.78785 28.39092,13.6734 -0.72741,41.74584c-7.08905,3.33009 -13.87809,9.92133 -21.76419,9.59153c-9.759,-0.40812 -15.59134,1.49282 -11.38137,-11.98196c4.17064,-13.34889 -5.79346,-25.6063 2.11033,-30.27686z" data-paper-data="{&quot;index&quot;:null}" fill="url(#color-13)" stroke="#ffffff" stroke-width="0" stroke-linecap="butt"/><path d="M273.95075,219.93991l6.67609,-1.8346l9.41304,20.61351l1.26504,19.1099l-6.81996,1.79155l-8.70185,-17.39867z" data-paper-data="{&quot;index&quot;:null}" fill="url(#color-14)" stroke="#ffffff" stroke-width="0" stroke-linecap="butt"/><path d="M290.54748,237.46234l-15.43187,4.84462" data-paper-data="{&quot;index&quot;:null}" fill="none" stroke="url(#color-15)" stroke-width="7.5" stroke-linecap="round"/><path d="M286.09636,316.95277c6.20764,-5.06977 2.75443,-6.70991 8.92595,-9.60898c1.01079,-0.47481 -2.50985,9.12833 -1.35836,9.15973c5.87912,0.16028 17.59092,-9.5333 19.4804,-5.51097c2.25957,4.81016 -3.27489,10.63971 -9.44641,13.53878c-6.17152,2.89906 -23.47299,-2.78338 -17.60156,-7.57854z" data-paper-data="{&quot;index&quot;:null}" fill="url(#color-16)" stroke="url(#color-17)" stroke-width="0" stroke-linecap="butt"/><path d="M279.23753,314.15178c1.87154,-3.8932 2.2936,-11.10707 8.46511,-14.00614c1.01079,-0.47481 -2.50985,9.12833 -1.35837,9.15973c5.87912,0.16028 17.5909,-3.64149 19.4804,0.38086c2.25957,4.81016 -3.27489,4.74788 -9.44641,7.64695c-6.17152,2.89906 -18.23106,-0.91328 -17.14074,-3.18137z" data-paper-data="{&quot;index&quot;:null}" fill="url(#color-18)" stroke="url(#color-19)" stroke-width="0" stroke-linecap="butt"/><path d="M277.82336,316.68244c0.03481,-0.53745 3.02469,-6.94413 4.70058,-7.67762c5.50068,-2.40748 16.56672,0.59081 20.59326,0.85157c3.76305,0.2437 11.6039,-2.19887 16.56775,-1.19138c1.96577,0.39897 -7.75125,5.26621 -11.06027,6.65126c-2.12744,0.89048 -13.01174,7.95096 -18.26503,7.61075c-2.86034,-0.18525 -6.3666,-1.33775 -8.94334,-2.72077c-2.1557,-1.15705 -3.66085,-2.47544 -3.59293,-3.52377z" data-paper-data="{&quot;index&quot;:null}" fill="url(#color-20)" stroke="url(#color-21)" stroke-width="0" stroke-linecap="butt"/><path d="M286.87578,227.98157l-13.45104,3.99196" data-paper-data="{&quot;index&quot;:null}" fill="none" stroke="url(#color-22)" stroke-width="3.5" stroke-linecap="round"/><path d="M292.12693,248.71901l-13.45104,3.99196" data-paper-data="{&quot;index&quot;:null}" fill="none" stroke="url(#color-23)" stroke-width="3.5" stroke-linecap="round"/><path d="M291.65371,209.81666c3.16256,5.0905 1.59962,11.78095 -3.49089,14.9435c-5.09053,3.16255 -11.78098,1.59961 -14.94353,-3.4909c-3.16255,-5.09054 -1.59961,-11.78099 3.4909,-14.94354c5.09052,-3.16256 11.78097,-1.59962 14.94352,3.49089z" data-paper-data="{&quot;index&quot;:null}" fill="url(#color-24)" stroke="#000000" stroke-width="0" stroke-linecap="butt"/></g></g></svg>