<svg version="1.1" xmlns="http://www.w3.org/2000/svg" xmlns:xlink="http://www.w3.org/1999/xlink" width="49.72935" height="43.22878" viewBox="0,0,49.72935,43.22878"><defs><radialGradient cx="240" cy="180" r="17.625" gradientUnits="userSpaceOnUse" id="color-1"><stop offset="0" stop-color="#ffffff"/><stop offset="1" stop-color="#ffffff" stop-opacity="0"/></radialGradient><linearGradient x1="237.38908" y1="180" x2="255.71464" y2="180" gradientUnits="userSpaceOnUse" id="color-2"><stop offset="0" stop-color="#ff0000"/><stop offset="1" stop-color="#ff0000" stop-opacity="0"/></linearGradient></defs><g transform="translate(-219.72162,-158.38561)"><g data-paper-data="{&quot;isPaintingLayer&quot;:true}" fill-rule="nonzero" stroke-linecap="butt" stroke-linejoin="miter" stroke-miterlimit="10" stroke-dasharray="" stroke-dashoffset="0" style="mix-blend-mode: normal"><path d="M222.375,180c0,-9.73402 7.89098,-17.625 17.625,-17.625c9.73402,0 17.625,7.89098 17.625,17.625c0,9.73402 -7.89098,17.625 -17.625,17.625c-9.73402,0 -17.625,-7.89098 -17.625,-17.625z" fill="url(#color-1)" stroke="none" stroke-width="0"/><path d="M255.71464,167.86231v24.27538l-18.32556,-12.13769z" fill="url(#color-2)" stroke="none" stroke-width="0"/><path d="M219.72163,201.61439v-43.22878h49.72935v43.22878z" fill="none" stroke="none" stroke-width="0"/><path d="M222.30997,199.36439v-38.72878h44.55266v38.72878z" fill="none" stroke="none" stroke-width="0"/><path d="M234.48004,177.69111c0,0 1.09366,-1.07866 1.93597,-1.06934c1.16607,0.0129 2.38197,1.12114 3.42557,1.24762c0.59554,0.07218 1.03,-0.07336 1.03,-0.07336c0,0 -0.12735,-2.1729 0.41741,-2.5404c0.34189,-0.23065 1.32202,0.55251 1.81756,0.97119c0.55239,0.46672 2.40114,3.13849 2.41337,3.82726c0.00969,0.54561 -1.77975,3.28397 -2.40893,3.82599c-0.59683,0.51414 -1.44898,1.12386 -1.81221,0.82873c-0.49362,-0.40108 -0.42841,-2.45681 -0.42841,-2.45681c0,0 -0.62858,-0.17062 -1.18286,-0.0774c-0.76922,0.12937 -1.94153,1.33911 -3.05152,1.42255c-1.02879,0.07734 -2.11566,-1.05775 -2.11566,-1.05775c0,0 1.14927,-1.38532 1.88825,-1.51553c0.82181,-0.14481 1.88019,-0.93513 1.88019,-0.93513c0,0 -1.29458,-0.59881 -2.15678,-1.0763c-0.84786,-0.46955 -1.65195,-1.32131 -1.65195,-1.32131z" fill="#ff0000" stroke="#ba0000" stroke-width="1"/></g></g></svg>