<svg version="1.1" xmlns="http://www.w3.org/2000/svg" xmlns:xlink="http://www.w3.org/1999/xlink" width="224.13135" height="224.13135" viewBox="0,0,224.13135,224.13135"><defs><radialGradient cx="225.7953" cy="183.23436" r="49.81448" gradientUnits="userSpaceOnUse" id="color-1"><stop offset="0" stop-color="#ff0000"/><stop offset="1" stop-color="#ff0000" stop-opacity="0"/></radialGradient><linearGradient x1="200.394" y1="183.39226" x2="205.58467" y2="224.69392" gradientUnits="userSpaceOnUse" id="color-2"><stop offset="0" stop-color="#000000"/><stop offset="1" stop-color="#ff2e54"/></linearGradient><linearGradient x1="190.70195" y1="147.13583" x2="204.96704" y2="184.5675" gradientUnits="userSpaceOnUse" id="color-3"><stop offset="0" stop-color="#ff2e54"/><stop offset="1" stop-color="#000000"/></linearGradient><radialGradient cx="177.97636" cy="168.59848" r="29.04676" gradientUnits="userSpaceOnUse" id="color-4"><stop offset="0" stop-color="#ff0000"/><stop offset="1" stop-color="#ff0000" stop-opacity="0"/></radialGradient><radialGradient cx="184.47431" cy="205.97728" r="29.04676" gradientUnits="userSpaceOnUse" id="color-5"><stop offset="0" stop-color="#ff0000"/><stop offset="1" stop-color="#ff0000" stop-opacity="0"/></radialGradient><linearGradient x1="175.66793" y1="164.75452" x2="159.80746" y2="167.33005" gradientUnits="userSpaceOnUse" id="color-6"><stop offset="0" stop-color="#ff0000"/><stop offset="1" stop-color="#930000"/></linearGradient><linearGradient x1="164.64659" y1="170.38276" x2="151.77595" y2="172.4728" gradientUnits="userSpaceOnUse" id="color-7"><stop offset="0" stop-color="#8e0000"/><stop offset="1" stop-color="#ff0000"/></linearGradient><linearGradient x1="168.56512" y1="176.04649" x2="161.27545" y2="177.23024" gradientUnits="userSpaceOnUse" id="color-8"><stop offset="0" stop-color="#d60000"/><stop offset="1" stop-color="#600000"/></linearGradient><linearGradient x1="185.98978" y1="170.28798" x2="176.74089" y2="171.78988" gradientUnits="userSpaceOnUse" id="color-9"><stop offset="0" stop-color="#ff0000"/><stop offset="1" stop-color="#930000"/></linearGradient><radialGradient cx="180.29496" cy="170.88393" r="11.86467" gradientUnits="userSpaceOnUse" id="color-10"><stop offset="0" stop-color="#ff6060"/><stop offset="1" stop-color="#ff6060" stop-opacity="0"/></radialGradient><radialGradient cx="193.63213" cy="172.29753" r="7.42946" gradientUnits="userSpaceOnUse" id="color-11"><stop offset="0" stop-color="#ff6060"/><stop offset="1" stop-color="#ff6060" stop-opacity="0"/></radialGradient><linearGradient x1="183.09344" y1="215.86982" x2="168.05977" y2="221.5423" gradientUnits="userSpaceOnUse" id="color-12"><stop offset="0" stop-color="#ff0000"/><stop offset="1" stop-color="#930000"/></linearGradient><linearGradient x1="170.73344" y1="216.48384" x2="158.53372" y2="221.08702" gradientUnits="userSpaceOnUse" id="color-13"><stop offset="0" stop-color="#8e0000"/><stop offset="1" stop-color="#ff0000"/></linearGradient><linearGradient x1="171.30757" y1="209.62068" x2="164.3979" y2="212.22782" gradientUnits="userSpaceOnUse" id="color-14"><stop offset="0" stop-color="#d60000"/><stop offset="1" stop-color="#600000"/></linearGradient><linearGradient x1="189.28373" y1="205.928" x2="180.51699" y2="209.23586" gradientUnits="userSpaceOnUse" id="color-15"><stop offset="0" stop-color="#ff0000"/><stop offset="1" stop-color="#930000"/></linearGradient><radialGradient cx="196.84796" cy="199.73075" r="7.99924" gradientUnits="userSpaceOnUse" id="color-16"><stop offset="0" stop-color="#ff6060"/><stop offset="1" stop-color="#ff6060" stop-opacity="0"/></radialGradient><radialGradient cx="183.83407" cy="207.55064" r="12.66022" gradientUnits="userSpaceOnUse" id="color-17"><stop offset="0" stop-color="#ff6060"/><stop offset="1" stop-color="#ff6060" stop-opacity="0"/></radialGradient><linearGradient x1="255.5802" y1="181.09392" x2="212.17919" y2="181.09392" gradientUnits="userSpaceOnUse" id="color-18"><stop offset="0" stop-color="#000000"/><stop offset="1" stop-color="#ff365a"/></linearGradient><radialGradient cx="284.17527" cy="178.53661" r="54.58462" gradientUnits="userSpaceOnUse" id="color-19"><stop offset="0" stop-color="#cc0025"/><stop offset="1" stop-color="#ff4949"/></radialGradient><linearGradient x1="325.96995" y1="175.41759" x2="246.82539" y2="175.41759" gradientUnits="userSpaceOnUse" id="color-20"><stop offset="0" stop-color="#ffffff"/><stop offset="1" stop-color="#e30000"/></linearGradient><radialGradient cx="285.5078" cy="175.97932" r="23.77378" gradientUnits="userSpaceOnUse" id="color-21"><stop offset="0" stop-color="#ff5656"/><stop offset="1" stop-color="#ff5656" stop-opacity="0"/></radialGradient><radialGradient cx="280.58725" cy="163.1143" r="19.12627" gradientUnits="userSpaceOnUse" id="color-22"><stop offset="0" stop-color="#ff5656"/><stop offset="1" stop-color="#ff5656" stop-opacity="0"/></radialGradient><radialGradient cx="305.32655" cy="173.36709" r="17.33877" gradientUnits="userSpaceOnUse" id="color-23"><stop offset="0" stop-color="#ff6d6d"/><stop offset="1" stop-color="#ff6d6d" stop-opacity="0"/></radialGradient><radialGradient cx="269.63626" cy="154.89651" r="9.83127" gradientUnits="userSpaceOnUse" id="color-24"><stop offset="0" stop-color="#ff4e4e"/><stop offset="1" stop-color="#ff4e4e" stop-opacity="0"/></radialGradient><radialGradient cx="277.8696" cy="199.80403" r="9.83127" gradientUnits="userSpaceOnUse" id="color-25"><stop offset="0" stop-color="#ff4e4e"/><stop offset="1" stop-color="#ff4e4e" stop-opacity="0"/></radialGradient><radialGradient cx="275.30944" cy="150.33016" r="11.83036" gradientUnits="userSpaceOnUse" id="color-26"><stop offset="0" stop-color="#ff7e7e"/><stop offset="1" stop-color="#ff7e7e" stop-opacity="0"/></radialGradient><radialGradient cx="291.80102" cy="191.16361" r="7.97612" gradientUnits="userSpaceOnUse" id="color-27"><stop offset="0" stop-color="#ff8989"/><stop offset="1" stop-color="#ff8989" stop-opacity="0"/></radialGradient><radialGradient cx="296.09104" cy="184.61198" r="7.97612" gradientUnits="userSpaceOnUse" id="color-28"><stop offset="0" stop-color="#ff6060"/><stop offset="1" stop-color="#ff6060" stop-opacity="0"/></radialGradient><radialGradient cx="296.4678" cy="162.28547" r="7.40798" gradientUnits="userSpaceOnUse" id="color-29"><stop offset="0" stop-color="#ff7e7e"/><stop offset="1" stop-color="#ff7e7e" stop-opacity="0"/></radialGradient><radialGradient cx="278.73046" cy="198.58391" r="12.62361" gradientUnits="userSpaceOnUse" id="color-30"><stop offset="0" stop-color="#ff6060"/><stop offset="1" stop-color="#ff6060" stop-opacity="0"/></radialGradient><radialGradient cx="301.89182" cy="165.23856" r="4.91254" gradientUnits="userSpaceOnUse" id="color-31"><stop offset="0" stop-color="#ffb5b5"/><stop offset="1" stop-color="#ffb5b5" stop-opacity="0"/></radialGradient><radialGradient cx="265.34302" cy="207.13564" r="7.97611" gradientUnits="userSpaceOnUse" id="color-32"><stop offset="0" stop-color="#dc0000"/><stop offset="1" stop-color="#dc0000" stop-opacity="0"/></radialGradient><radialGradient cx="262.40869" cy="144.93349" r="7.97611" gradientUnits="userSpaceOnUse" id="color-33"><stop offset="0" stop-color="#dc0000"/><stop offset="1" stop-color="#dc0000" stop-opacity="0"/></radialGradient><radialGradient cx="303.18758" cy="174.24062" r="11.83035" gradientUnits="userSpaceOnUse" id="color-34"><stop offset="0" stop-color="#ff6060"/><stop offset="1" stop-color="#ff6060" stop-opacity="0"/></radialGradient><radialGradient cx="302.6118" cy="176.73949" r="7.40798" gradientUnits="userSpaceOnUse" id="color-35"><stop offset="0" stop-color="#ff6060"/><stop offset="1" stop-color="#ff6060" stop-opacity="0"/></radialGradient><radialGradient cx="233.42861" cy="183.4729" r="49.81448" gradientUnits="userSpaceOnUse" id="color-36"><stop offset="0" stop-color="#ff002e"/><stop offset="1" stop-color="#ff002e" stop-opacity="0"/></radialGradient><linearGradient x1="222.35328" y1="126.20027" x2="222.35328" y2="222.80933" gradientUnits="userSpaceOnUse" id="color-37"><stop offset="0" stop-color="#ffffff" stop-opacity="0"/><stop offset="1" stop-color="#ffffff" stop-opacity="0.50196"/></linearGradient><linearGradient x1="186.32801" y1="152.06423" x2="186.32801" y2="228.27135" gradientUnits="userSpaceOnUse" id="color-38"><stop offset="0" stop-color="#ffffff" stop-opacity="0.50196"/><stop offset="1" stop-color="#ffffff" stop-opacity="0"/></linearGradient><linearGradient x1="282.59217" y1="164.30419" x2="282.59217" y2="236.9562" gradientUnits="userSpaceOnUse" id="color-39"><stop offset="0" stop-color="#ff002e"/><stop offset="1" stop-color="#ff002e" stop-opacity="0"/></linearGradient><linearGradient x1="204.81848" y1="132.80744" x2="204.81848" y2="205.45944" gradientUnits="userSpaceOnUse" id="color-40"><stop offset="0" stop-color="#ff002e"/><stop offset="1" stop-color="#ff002e" stop-opacity="0"/></linearGradient><linearGradient x1="265.66755" y1="125.84141" x2="265.66755" y2="246.23996" gradientUnits="userSpaceOnUse" id="color-41"><stop offset="0" stop-color="#ffffff" stop-opacity="0.50196"/><stop offset="1" stop-color="#ffffff" stop-opacity="0"/></linearGradient><linearGradient x1="288.05423" y1="132.5689" x2="288.05423" y2="183.27514" gradientUnits="userSpaceOnUse" id="color-42"><stop offset="0" stop-color="#ff002e" stop-opacity="0"/><stop offset="1" stop-color="#ff002e"/></linearGradient><linearGradient x1="240.20862" y1="142.92331" x2="240.20862" y2="202.60769" gradientUnits="userSpaceOnUse" id="color-43"><stop offset="0" stop-color="#ff002e"/><stop offset="1" stop-color="#ff002e" stop-opacity="0"/></linearGradient></defs><g transform="translate(-127.93433,-67.93433)"><g data-paper-data="{&quot;isPaintingLayer&quot;:true}" fill-rule="nonzero" stroke-width="0" stroke-linecap="butt" stroke-linejoin="miter" stroke-miterlimit="10" stroke-dasharray="" stroke-dashoffset="0" style="mix-blend-mode: normal"><path d="M175.98082,183.23436c0,-27.51178 22.3027,-49.81448 49.81448,-49.81448c27.51178,0 49.81449,22.3027 49.81449,49.81448c0,27.51178 -22.30271,49.81448 -49.81449,49.81448c-27.51178,0 -49.81448,-22.3027 -49.81448,-49.81448z" fill="url(#color-1)" stroke="none"/><path d="M175.35931,192.69335c5.52364,-2.72695 17.33667,0.29922 29.12304,-1.60936c21.73574,-3.51969 46.43292,-14.04109 46.43292,-14.04109l-0.7782,8.60841c0,0 -24.4795,8.91844 -41.24563,20.05824c-7.62204,5.06426 -17.66499,18.36126 -25.21452,21.09694c-15.35303,5.56338 -29.85266,-5.6227 -29.85266,-5.6227c0,0 4.77446,-20.21594 21.53504,-28.49043z" fill="url(#color-2)" stroke="#ff0000"/><path d="M147.52234,174.22567c0,0 7.54363,-16.68717 23.71039,-18.98984c7.94967,-1.13229 23.06269,5.88681 32.17046,6.776c20.03428,1.95593 45.83378,-1.6732 45.83378,-1.6732l2.41384,6.43783c0,0 -26.44444,4.62325 -47.75376,11.75753c-10.61776,3.5548 -19.35606,10.20039 -25.17992,10.37833c-18.6831,0.57081 -31.19477,-14.68665 -31.19477,-14.68665z" data-paper-data="{&quot;index&quot;:null}" fill="url(#color-3)" stroke="#ff0000"/><path d="M150.83383,178.94242c-5.7128,-14.99041 1.80819,-31.77367 16.79859,-37.48647c14.99041,-5.7128 31.77368,1.8082 37.48647,16.7986c5.7128,14.99041 -1.8082,31.77368 -16.7986,37.48647c-14.99041,5.7128 -31.77367,-1.8082 -37.48646,-16.7986z" fill="url(#color-4)" stroke="#000000"/><path d="M155.65426,209.5993c-2.00039,-15.91687 9.28116,-30.44168 25.19802,-32.44207c15.91687,-2.00039 30.44168,9.28117 32.44207,25.19803c2.00039,15.91687 -9.28117,30.44168 -25.19803,32.44207c-15.91687,2.00039 -30.44167,-9.28117 -32.44206,-25.19803z" fill="url(#color-5)" stroke="#000000"/><g stroke="none"><path d="M166.95165,161.20153c4.37975,-0.71121 8.28216,0.87951 8.7163,3.55299c0.43414,2.67348 -2.7644,5.41732 -7.14415,6.12854c-4.37975,0.71121 -8.28218,-0.87951 -8.71632,-3.553c-0.43414,-2.67348 2.76441,-5.41732 7.14416,-6.12853z" fill="url(#color-6)"/><path d="M157.57339,167.49953c3.55414,-0.57715 6.72091,0.71371 7.07321,2.88323c0.3523,2.16952 -2.24329,4.3961 -5.79742,4.97325c-3.55414,0.57715 -6.72093,-0.71371 -7.07323,-2.88323c-0.3523,-2.16952 2.2433,-4.39611 5.79743,-4.97326z" fill="url(#color-7)"/><path d="M164.55901,174.41349c2.01299,-0.32688 3.80658,0.40423 4.00611,1.633c0.19954,1.22878 -1.27055,2.48986 -3.28354,2.81674c-2.01299,0.32688 -3.80661,-0.40423 -4.00614,-1.63298c-0.19954,-1.22878 1.27055,-2.48988 3.28357,-2.81676z" fill="url(#color-8)"/><path d="M180.90694,168.21608c2.55402,-0.41474 4.82966,0.51289 5.08282,2.07189c0.25316,1.55902 -1.61203,3.15905 -4.16603,3.57379c-2.55402,0.41474 -4.82966,-0.51287 -5.08282,-2.07189c-0.25316,-1.55902 1.61204,-3.15906 4.16603,-3.57379z" fill="url(#color-9)"/><path d="M178.3932,159.17267c6.46797,-1.05032 12.56269,3.34154 13.61301,9.80951c1.05032,6.46797 -3.34153,12.5627 -9.80948,13.61302c-6.46797,1.05032 -12.56271,-3.34152 -13.61302,-9.80949c-1.05032,-6.46797 3.34155,-12.56272 9.8095,-13.61304z" fill="url(#color-10)"/><path d="M192.44128,164.96414c4.05012,-0.65769 7.86657,2.09242 8.52426,6.14255c0.65769,4.05012 -2.09242,7.86656 -6.14255,8.52424c-4.05012,0.65769 -7.86658,-2.09242 -8.52427,-6.14254c-0.65769,-4.05012 2.09243,-7.86656 6.14256,-8.52425z" fill="url(#color-11)"/></g><g stroke="none"><path d="M168.05977,221.5423c-0.95617,-2.53412 1.63412,-5.85823 5.78554,-7.42464c4.15144,-1.56641 8.29194,-0.78194 9.24811,1.75217c0.95617,2.53412 -1.63409,5.85825 -5.78552,7.42465c-4.15144,1.56641 -8.29196,0.78194 -9.24813,-1.75219z" data-paper-data="{&quot;index&quot;:null}" fill="url(#color-12)"/><path d="M158.53372,221.08702c-0.77592,-2.05642 1.32607,-4.75393 4.69492,-6.02504c3.36886,-1.27113 6.72884,-0.63453 7.50477,1.42189c0.77592,2.05642 -1.32605,4.75392 -4.6949,6.02504c-3.36886,1.27113 -6.72886,0.63455 -7.50479,-1.42188z" data-paper-data="{&quot;index&quot;:null}" fill="url(#color-13)"/><path d="M164.3979,212.22782c-0.43948,-1.16472 0.75107,-2.69252 2.65912,-3.41247c1.90805,-0.71995 3.81107,-0.35938 4.25054,0.80532c0.43948,1.16472 -0.75105,2.69252 -2.65909,3.41246c-1.90805,0.71995 -3.8111,0.35939 -4.25057,-0.80533z" data-paper-data="{&quot;index&quot;:null}" fill="url(#color-14)"/><path d="M180.51699,209.23586c-0.55758,-1.47775 0.9529,-3.41617 3.37378,-4.3296c2.42087,-0.91344 4.83535,-0.45598 5.39293,1.02177c0.55758,1.47775 -0.95289,3.41619 -3.37376,4.32962c-2.42087,0.91344 -4.83537,0.45596 -5.39294,-1.02179z" data-paper-data="{&quot;index&quot;:null}" fill="url(#color-15)"/><path d="M194.02404,192.24656c4.13342,-1.55961 8.74851,0.52686 10.30812,4.66027c1.55961,4.13342 -0.52687,8.74852 -4.66027,10.30813c-4.13342,1.55961 -8.74852,-0.52686 -10.30813,-4.66028c-1.55961,-4.13342 0.52687,-8.74851 4.66029,-10.30813z" fill="url(#color-16)"/><path d="M179.3647,195.70553c6.54186,-2.46836 13.84608,0.83386 16.31444,7.37572c2.46836,6.54186 -0.83385,13.84609 -7.37572,16.31445c-6.54188,2.46837 -13.8461,-0.83385 -16.31446,-7.37572c-2.46836,-6.54186 0.83386,-13.84609 7.37574,-16.31446z" fill="url(#color-17)"/></g><path d="M352.06568,292.06568h-224.13135v-224.13135h224.13135z" fill="none" stroke="none"/><path d="M214.89174,153.71413c0,0 15.14971,5.95536 19.2729,6.37219c7.40563,0.74867 21.41556,-2.2588 21.41556,-2.2588v46.53278c0,0 -18.02824,-2.31378 -25.94412,-2.31378c-6.0339,0 -17.1555,5.14175 -17.1555,5.14175c0,0 1.81619,-7.21562 4.13698,-9.06887c2.39852,-1.91531 9.72723,-5.07093 9.72723,-5.07093l-18.98794,-4.62757l15.67259,-8.74095l-15.97398,-9.51222l18.09751,-2.60108c0,0 -4.86558,-2.84174 -6.49563,-5.04228c-1.77755,-2.39968 -3.76558,-8.81021 -3.76558,-8.81021z" fill="url(#color-18)" stroke="#ff0000"/><path d="M292.58635,150.88519c16.55549,12.84254 34.52367,20.19282 34.81407,28.37074c0.26249,7.39192 -27.4587,22.0325 -39.22277,31.6118c-18.10147,14.73972 -20.44877,18.65252 -26.79523,12.85738c-5.01581,-5.09334 -8.37189,-21.57717 -10.67199,-30.8373c-1.78487,-7.18587 -9.76217,-15.12483 -9.76217,-15.12483c0,0 7.99216,-5.52877 9.76545,-14.1796c2.82464,-13.77977 3.31216,-26.80985 11.45462,-31.55133c8.14247,-4.74149 11.97267,4.5446 30.41802,18.85316z" fill="url(#color-19)" stroke="#000000"/><g><path d="M244.39614,160.07815c5.40533,0 9.78722,3.59358 9.78722,8.02649c0,4.4329 -4.38189,8.02649 -9.78722,8.02649c-5.40533,0 -9.78722,-3.59358 -9.78722,-8.02649c0,-1.15378 -0.30594,-3.59172 0.22854,-4.58322c1.51902,-2.8179 5.56024,-3.44326 9.55868,-3.44326z" fill="#000000" stroke="none"/><path d="M244.39614,171.59341c5.40533,0 9.78722,3.59358 9.78722,8.02649c0,4.4329 -4.38189,8.02649 -9.78722,8.02649c-3.78568,0 -7.06935,-0.03851 -8.69729,-2.61768c-0.6965,-1.10347 -1.08993,-4.08054 -1.08993,-5.40881c0,-4.4329 4.38189,-8.02649 9.78722,-8.02649z" fill="#000000" stroke="none"/><path d="M245.74802,162.43045c4.67858,0 8.47133,2.72311 8.47133,6.08222c0,3.35912 -3.79274,6.08222 -8.47133,6.08222c-4.6786,0 -8.47134,-2.72311 -8.47134,-6.08222c0,-3.35912 3.79274,-6.08222 8.47134,-6.08222z" fill="#ffffff" stroke="#000000"/><path d="M245.74802,173.12963c4.67858,0 8.47133,2.72311 8.47133,6.08222c0,3.35912 -3.79274,6.08222 -8.47133,6.08222c-4.6786,0 -8.47134,-2.72311 -8.47134,-6.08222c0,-3.35912 3.79274,-6.08222 8.47134,-6.08222z" fill="#ffffff" stroke="#000000"/><path d="M248.03211,167.67807c2.16392,0 3.91815,1.11501 3.91815,2.49045c0,1.37544 -1.75422,2.49045 -3.91815,2.49045c-2.16392,0 -3.91815,-1.11501 -3.91815,-2.49045c0,-1.37544 1.75422,-2.49045 3.91815,-2.49045z" fill="#000000" stroke="none"/><path d="M247.76728,174.82382c2.16392,0 3.91815,1.11501 3.91815,2.49045c0,1.37544 -1.75422,2.49045 -3.91815,2.49045c-2.16392,0 -3.91815,-1.11501 -3.91815,-2.49045c0,-1.37544 1.75422,-2.49045 3.91815,-2.49045z" fill="#000000" stroke="none"/></g><path d="M254.42449,162.135c0,0 8.50343,-0.30745 13.25138,0.64759c5.51672,1.10969 17.89,5.61646 17.89,5.61646l-14.58049,-16.90531c0,0 20.38814,7.4844 29.65523,11.80354c8.17658,3.81087 18.54767,12.4773 18.54767,12.4773c0,0 -11.4345,10.29769 -20.61793,14.58539c-8.62955,4.02909 -28.3857,10.71382 -28.3857,10.71382l15.31046,-18.5814c0,0 -9.21413,3.5033 -14.50903,4.39205c-5.12502,0.86024 -16.76732,0.85774 -16.76732,0.85774c0,0 -8.58025,-8.30992 -8.63444,-12.71247c-0.05257,-4.27329 8.84017,-12.89473 8.84017,-12.89473z" fill="url(#color-20)" stroke="#ff0000"/><g stroke="none"><path d="M285.5078,155.23247c13.12991,0 23.77379,9.28868 23.77379,20.74685c0,11.45817 -10.64388,20.74684 -23.77379,20.74684c-13.12991,0 -23.77379,-9.28867 -23.77379,-20.74684c0,-11.45817 10.64388,-20.74685 23.77378,-20.74685z" fill="url(#color-21)"/><path d="M280.58725,146.42322c10.56316,0 19.12627,7.47284 19.12627,16.69107c0,9.21823 -8.56312,16.69106 -19.12628,16.69106c-10.56316,0 -19.12628,-7.47283 -19.12628,-16.69106c0,-9.21823 8.56312,-16.69107 19.12628,-16.69107z" fill="url(#color-22)"/><path d="M305.32655,158.23593c9.57595,0 17.33877,6.77445 17.33877,15.13115c0,8.35671 -7.76283,15.13115 -17.33877,15.13115c-9.57595,0 -17.33879,-6.77445 -17.33879,-15.13115c0,-8.35671 7.76283,-15.13115 17.33877,-15.13115z" fill="url(#color-23)"/><path d="M269.63626,146.31698c5.42966,0 9.83125,3.84119 9.83125,8.57953c0,4.73835 -4.4016,8.57953 -9.83127,8.57953c-5.42966,0 -9.83127,-3.84118 -9.83127,-8.57953c0,-4.73835 4.40161,-8.57953 9.83127,-8.57953z" fill="url(#color-24)"/><path d="M277.8696,191.22451c5.42966,0 9.83127,3.84118 9.83127,8.57953c0,4.73834 -4.40161,8.57953 -9.83127,8.57953c-5.42966,0 -9.83127,-3.84118 -9.83127,-8.57951c0,-4.73834 4.40161,-8.57953 9.83127,-8.57953z" fill="url(#color-25)"/><path d="M275.30944,140.00606c6.53374,0 11.83035,4.62224 11.83035,10.32409c0,5.70185 -5.29661,10.32409 -11.83033,10.32409c-6.53374,0 -11.83035,-4.62224 -11.83035,-10.32409c0,-5.70185 5.29663,-10.32409 11.83035,-10.32409z" fill="url(#color-26)"/><path d="M291.80102,184.20305c4.4051,0 7.97611,3.11635 7.97611,6.96057c0,3.84423 -3.57102,6.96058 -7.97611,6.96058c-4.4051,0 -7.97612,-3.11635 -7.97612,-6.96058c0,-3.84423 3.57102,-6.96057 7.97612,-6.96057z" fill="url(#color-27)"/><path d="M296.09104,177.65141c4.4051,0 7.97611,3.11635 7.97611,6.96057c0,3.84423 -3.57102,6.96058 -7.97611,6.96058c-4.4051,0 -7.97612,-3.11635 -7.97612,-6.96058c0,-3.84423 3.57102,-6.96057 7.97612,-6.96057z" fill="url(#color-28)"/><path d="M296.4678,155.82069c4.09132,0 7.40798,2.89437 7.40798,6.46478c0,3.5704 -3.31665,6.46478 -7.40798,6.46478c-4.09132,0 -7.40799,-2.89437 -7.40799,-6.46478c0,-3.5704 3.31666,-6.46478 7.40799,-6.46478z" fill="url(#color-29)"/><path d="M278.73046,187.56755c6.97184,0 12.62361,4.93218 12.62361,11.01634c0,6.08417 -5.65178,11.01634 -12.62361,11.01634c-6.97185,0 -12.62363,-4.93218 -12.62363,-11.01634c0,-6.08417 5.65178,-11.01634 12.62363,-11.01634z" fill="url(#color-30)"/><path d="M301.89182,160.95149c2.71313,0 4.91254,1.91938 4.91254,4.28706c0,2.36769 -2.19941,4.28706 -4.91254,4.28706c-2.71313,0 -4.91256,-1.91938 -4.91256,-4.28706c0,-2.36769 2.19942,-4.28706 4.91256,-4.28706z" fill="url(#color-31)"/><path d="M265.34302,200.17507c4.4051,0 7.97611,3.11635 7.97611,6.96058c0,3.84421 -3.57102,6.96057 -7.97611,6.96057c-4.4051,0 -7.97612,-3.11635 -7.97612,-6.96057c0,-3.84423 3.57104,-6.96058 7.97612,-6.96058z" fill="url(#color-32)"/><path d="M262.40869,137.97293c4.4051,0 7.97611,3.11635 7.97611,6.96057c0,3.84421 -3.57102,6.96057 -7.97611,6.96057c-4.4051,0 -7.97612,-3.11635 -7.97612,-6.96057c0,-3.84421 3.57104,-6.96057 7.97612,-6.96057z" fill="url(#color-33)"/><path d="M303.18758,163.91655c6.53374,0 11.83035,4.62224 11.83035,10.32409c0,5.70185 -5.29661,10.32409 -11.83033,10.32409c-6.53374,0 -11.83036,-4.62224 -11.83036,-10.32409c0,-5.70185 5.29665,-10.32409 11.83036,-10.32409z" fill="url(#color-34)"/><path d="M302.6118,170.27472c4.09132,0 7.40798,2.89437 7.40798,6.46478c0,3.5704 -3.31665,6.46478 -7.40798,6.46478c-4.09132,0 -7.40799,-2.89437 -7.40799,-6.46478c0,-3.5704 3.31666,-6.46478 7.40799,-6.46478z" fill="url(#color-35)"/></g><path d="M183.61413,183.4729c0,-27.51178 22.3027,-49.81448 49.81448,-49.81448c27.51178,0 49.81449,22.3027 49.81449,49.81448c0,27.51178 -22.30271,49.81448 -49.81449,49.81448c-27.51178,0 -49.81448,-22.3027 -49.81448,-49.81448z" fill="url(#color-36)" stroke="none"/><path d="M233.20055,222.80933c0,0 -23.64396,-23.44442 -23.72796,-45.84993c-0.12643,-33.72344 25.76184,-50.75913 25.76184,-50.75913c0,0 -10.40339,26.41407 -10.16939,45.02964c0.234,18.61558 8.13551,51.57942 8.13551,51.57942z" fill="url(#color-37)" stroke="#000000"/><path d="M198.64117,228.27135c0,0 -21.34443,-15.66001 -24.04057,-33.26869c-4.05807,-26.50353 14.29938,-42.93843 14.29938,-42.93843c0,0 -5.08006,21.99187 -2.71085,36.60272c2.36921,14.61086 12.45204,39.6044 12.45204,39.6044z" fill="url(#color-38)" stroke="#000000"/><path d="M297.6461,236.9562c0,0 -21.17225,-12.32186 -26.96923,-29.04905c-8.72527,-25.17676 3.51016,-43.60296 3.51016,-43.60296c0,0 0.09892,22.02974 5.02064,35.89138c4.92172,13.86164 18.43843,36.76062 18.43843,36.76062z" fill="url(#color-39)" stroke="#000000"/><path d="M201.43398,169.56806c-4.92172,13.86164 -5.02064,35.89138 -5.02064,35.89138c0,0 -12.23543,-18.42619 -3.51016,-43.60296c5.79698,-16.72718 26.96923,-29.04904 26.96923,-29.04904c0,0 -13.51671,22.89898 -18.43843,36.76061z" data-paper-data="{&quot;index&quot;:null}" fill="url(#color-40)" stroke="#000000"/><path d="M267.43978,181.847c-5.09852,25.5275 2.40358,64.39296 2.40358,64.39296c0,0 -31.16488,-29.78944 -22.33692,-76.10759c5.86521,-30.7733 37.8971,-44.29096 37.8971,-44.29096c0,0 -12.86525,30.4781 -17.96376,56.0056z" data-paper-data="{&quot;index&quot;:null}" fill="url(#color-41)" stroke="#000000"/><path d="M277.54759,132.5689c0,0 14.77682,8.59983 18.82272,20.27429c6.08965,17.5717 -2.44986,30.43195 -2.44986,30.43195c0,0 -0.06905,-15.37528 -3.50407,-25.04978c-3.43503,-9.6745 -12.86879,-25.65645 -12.86879,-25.65645z" fill="url(#color-42)" stroke="#000000"/><path d="M240.99807,175.05645c0.50578,11.51874 6.91991,27.55124 6.91991,27.55124c0,0 -14.31338,-9.78324 -15.38749,-30.64163c-0.71363,-13.8581 11.03902,-29.04275 11.03902,-29.04275c0,0 -3.07722,20.61441 -2.57144,32.13315z" data-paper-data="{&quot;index&quot;:null}" fill="url(#color-43)" stroke="#000000"/></g></g></svg>