<svg version="1.1" xmlns="http://www.w3.org/2000/svg" xmlns:xlink="http://www.w3.org/1999/xlink" width="56.34503" height="42.8124" viewBox="0,0,56.34503,42.8124"><defs><linearGradient x1="211.82749" y1="180.00003" x2="268.17251" y2="180.00003" gradientUnits="userSpaceOnUse" id="color-1"><stop offset="0" stop-color="#000000"/><stop offset="1" stop-color="#000000" stop-opacity="0.1451"/></linearGradient></defs><g transform="translate(-211.82748,-158.30858)"><g data-paper-data="{&quot;isPaintingLayer&quot;:true}" fill-rule="nonzero" stroke-linecap="butt" stroke-linejoin="miter" stroke-miterlimit="10" stroke-dasharray="" stroke-dashoffset="0" style="mix-blend-mode: normal"><path d="M219.13679,158.87908h41.58608c0,0 3.0404,0.28407 5.06388,2.24541c2.02348,1.96133 2.38576,4.97544 2.38576,4.97544v27.7788c0,0 -0.46468,3.09435 -2.49101,5.10209c-2.02632,2.00773 -4.8183,2.14016 -4.8183,2.14016h-41.72642c0,0 -3.01131,-0.26215 -5.0288,-2.2805c-2.01748,-2.01835 -2.28051,-5.03192 -2.28051,-5.03192v-27.62093c0,0 0.22825,-2.90583 2.24542,-4.9228c2.01717,-2.01696 5.06389,-2.38576 5.06389,-2.38576z" data-paper-data="{&quot;index&quot;:null}" fill="url(#color-1)" stroke="none" stroke-width="0"/><text transform="translate(223.76545,194.73956) scale(0.40557,0.40557)" font-size="40" xml:space="preserve" fill="#ffffff" fill-rule="nonzero" stroke="#ffffff" stroke-width="1" stroke-linecap="butt" stroke-linejoin="miter" stroke-miterlimit="10" stroke-dasharray="" stroke-dashoffset="0" font-family="Sans Serif" font-weight="normal" text-anchor="start" style="mix-blend-mode: normal"><tspan x="0" dy="0">Out!</tspan></text><text transform="translate(227.35645,177.03837) scale(0.43057,0.43057)" font-size="40" xml:space="preserve" fill="#ffffff" fill-rule="nonzero" stroke="#ffffff" stroke-width="1" stroke-linecap="butt" stroke-linejoin="miter" stroke-miterlimit="10" stroke-dasharray="" stroke-dashoffset="0" font-family="Sans Serif" font-weight="normal" text-anchor="start" style="mix-blend-mode: normal"><tspan x="0" dy="0">Try</tspan></text></g></g></svg>