<svg version="1.1" xmlns="http://www.w3.org/2000/svg" xmlns:xlink="http://www.w3.org/1999/xlink" width="399.23715" height="420.17665" viewBox="0,0,399.23715,420.17665"><defs><radialGradient cx="77.04747" cy="298.78459" r="66.62851" gradientUnits="userSpaceOnUse" id="color-1"><stop offset="0" stop-color="#00ff00" stop-opacity="0.81569"/><stop offset="1" stop-color="#00ff00" stop-opacity="0.23777"/></radialGradient><radialGradient cx="1.51469" cy="375.11779" r="46.7493" gradientUnits="userSpaceOnUse" id="color-2"><stop offset="0" stop-color="#00ff00" stop-opacity="0.81569"/><stop offset="1" stop-color="#00ff00" stop-opacity="0.23777"/></radialGradient><radialGradient cx="72.5147" cy="392.11779" r="33.75" gradientUnits="userSpaceOnUse" id="color-3"><stop offset="0" stop-color="#00ff00" stop-opacity="0.81569"/><stop offset="1" stop-color="#00ff00" stop-opacity="0.51765"/></radialGradient><linearGradient x1="61.47123" y1="246.68146" x2="46.7819" y2="426.25441" gradientUnits="userSpaceOnUse" id="color-4"><stop offset="0" stop-color="#a6ffc0"/><stop offset="1" stop-color="#02ff00"/></linearGradient><linearGradient x1="97.17985" y1="333.30383" x2="154.68995" y2="338.00826" gradientUnits="userSpaceOnUse" id="color-5"><stop offset="0" stop-color="#001f45" stop-opacity="0"/><stop offset="1" stop-color="#001f45" stop-opacity="0.29804"/></linearGradient><linearGradient x1="32.04747" y1="342.02307" x2="145.46505" y2="351.30079" gradientUnits="userSpaceOnUse" id="color-6"><stop offset="0" stop-color="#292929"/><stop offset="1" stop-color="#ffffff"/></linearGradient><radialGradient cx="284.50003" cy="156.00025" r="69.5" gradientUnits="userSpaceOnUse" id="color-7"><stop offset="0" stop-color="#ff0077" stop-opacity="0.67059"/><stop offset="1" stop-color="#ff0077" stop-opacity="0.27451"/></radialGradient><radialGradient cx="225.50003" cy="196.00025" r="21.5" gradientUnits="userSpaceOnUse" id="color-8"><stop offset="0" stop-color="#ff0077" stop-opacity="0.67059"/><stop offset="1" stop-color="#ff0077" stop-opacity="0.27451"/></radialGradient><radialGradient cx="247.00003" cy="258.50014" r="10" gradientUnits="userSpaceOnUse" id="color-9"><stop offset="0" stop-color="#ff0077" stop-opacity="0.67059"/><stop offset="1" stop-color="#ff0077" stop-opacity="0.27451"/></radialGradient><radialGradient cx="282.00003" cy="80.50028" r="10" gradientUnits="userSpaceOnUse" id="color-10"><stop offset="0" stop-color="#ff0077" stop-opacity="0.67059"/><stop offset="1" stop-color="#ff0077" stop-opacity="0.27451"/></radialGradient><linearGradient x1="-10.45868" y1="358.76116" x2="68.77666" y2="365.24273" gradientUnits="userSpaceOnUse" id="color-11"><stop offset="0" stop-color="#292929"/><stop offset="1" stop-color="#ffffff"/></linearGradient><linearGradient x1="30.39922" y1="247.57387" x2="28.15716" y2="274.9823" gradientUnits="userSpaceOnUse" id="color-12"><stop offset="0" stop-color="#ffffff"/><stop offset="1" stop-color="#ffffff" stop-opacity="0"/></linearGradient><linearGradient x1="-24.65975" y1="261.38092" x2="5.24037" y2="263.82678" gradientUnits="userSpaceOnUse" id="color-13"><stop offset="0" stop-color="#ffffff"/><stop offset="1" stop-color="#ffffff" stop-opacity="0"/></linearGradient><linearGradient x1="60.70424" y1="352.39359" x2="55.89402" y2="411.19719" gradientUnits="userSpaceOnUse" id="color-14"><stop offset="0" stop-color="#001f45" stop-opacity="0"/><stop offset="1" stop-color="#001f45" stop-opacity="0.29804"/></linearGradient><radialGradient cx="147.17182" cy="377.90722" r="29.5" gradientUnits="userSpaceOnUse" id="color-15"><stop offset="0" stop-color="#00ff00" stop-opacity="0.81569"/><stop offset="1" stop-color="#00ff00" stop-opacity="0.51765"/></radialGradient><radialGradient cx="53.52963" cy="345.16365" r="9.5" gradientUnits="userSpaceOnUse" id="color-16"><stop offset="0" stop-color="#00ff00" stop-opacity="0.81569"/><stop offset="1" stop-color="#00ff00" stop-opacity="0.51765"/></radialGradient><radialGradient cx="156.17757" cy="347.54033" r="9.5" gradientUnits="userSpaceOnUse" id="color-17"><stop offset="0" stop-color="#00ff00" stop-opacity="0.81569"/><stop offset="1" stop-color="#00ff00" stop-opacity="0.51765"/></radialGradient><radialGradient cx="148.55873" cy="416.14758" r="13.5" gradientUnits="userSpaceOnUse" id="color-18"><stop offset="0" stop-color="#00ff00" stop-opacity="0.81569"/><stop offset="1" stop-color="#00ff00" stop-opacity="0.51765"/></radialGradient><radialGradient cx="27.13204" cy="379.6262" r="20" gradientUnits="userSpaceOnUse" id="color-19"><stop offset="0" stop-color="#00ff00" stop-opacity="0.81569"/><stop offset="1" stop-color="#00ff00" stop-opacity="0.51765"/></radialGradient><radialGradient cx="104.92552" cy="311.49261" r="20" gradientUnits="userSpaceOnUse" id="color-20"><stop offset="0" stop-color="#00ff00" stop-opacity="0.81569"/><stop offset="1" stop-color="#00ff00" stop-opacity="0.51765"/></radialGradient><linearGradient x1="33.31129" y1="262.23059" x2="29.88948" y2="272.68611" gradientUnits="userSpaceOnUse" id="color-21"><stop offset="0" stop-color="#ffffff"/><stop offset="1" stop-color="#ffffff" stop-opacity="0"/></linearGradient><linearGradient x1="13.8135" y1="246.91132" x2="8.13726" y2="264.25539" gradientUnits="userSpaceOnUse" id="color-22"><stop offset="0" stop-color="#ffffff"/><stop offset="1" stop-color="#ffffff" stop-opacity="0"/></linearGradient><linearGradient x1="47.0339" y1="254.85593" x2="45.16687" y2="260.56075" gradientUnits="userSpaceOnUse" id="color-23"><stop offset="0" stop-color="#ffffff"/><stop offset="1" stop-color="#ffffff" stop-opacity="0"/></linearGradient><linearGradient x1="15.87842" y1="267.83099" x2="14.32234" y2="272.58567" gradientUnits="userSpaceOnUse" id="color-24"><stop offset="0" stop-color="#ffffff"/><stop offset="1" stop-color="#ffffff" stop-opacity="0"/></linearGradient><linearGradient x1="61.7839" y1="263.85595" x2="59.91686" y2="269.56075" gradientUnits="userSpaceOnUse" id="color-25"><stop offset="0" stop-color="#ffffff"/><stop offset="1" stop-color="#ffffff" stop-opacity="0"/></linearGradient><linearGradient x1="30.7839" y1="252.35593" x2="28.91686" y2="258.06075" gradientUnits="userSpaceOnUse" id="color-26"><stop offset="0" stop-color="#ffffff"/><stop offset="1" stop-color="#ffffff" stop-opacity="0"/></linearGradient><linearGradient x1="41.2839" y1="274.10595" x2="39.41687" y2="279.81075" gradientUnits="userSpaceOnUse" id="color-27"><stop offset="0" stop-color="#ffffff"/><stop offset="1" stop-color="#ffffff" stop-opacity="0"/></linearGradient><linearGradient x1="0.0339" y1="268.85595" x2="-1.83314" y2="274.56075" gradientUnits="userSpaceOnUse" id="color-28"><stop offset="0" stop-color="#ffffff"/><stop offset="1" stop-color="#ffffff" stop-opacity="0"/></linearGradient><linearGradient x1="84.01168" y1="257.65834" x2="84.01168" y2="332.91267" gradientUnits="userSpaceOnUse" id="color-29"><stop offset="0" stop-color="#ffffff"/><stop offset="1" stop-color="#ffffff" stop-opacity="0"/></linearGradient><linearGradient x1="112.23792" y1="316.74205" x2="125.40283" y2="319.73122" gradientUnits="userSpaceOnUse" id="color-30"><stop offset="0" stop-color="#000000" stop-opacity="0"/><stop offset="1" stop-color="#000000" stop-opacity="0.24194"/></linearGradient><linearGradient x1="115.48792" y1="331.74205" x2="128.65283" y2="334.73122" gradientUnits="userSpaceOnUse" id="color-31"><stop offset="0" stop-color="#000000" stop-opacity="0"/><stop offset="1" stop-color="#000000" stop-opacity="0.24194"/></linearGradient><linearGradient x1="134.31769" y1="335.09764" x2="147.32305" y2="345.32707" gradientUnits="userSpaceOnUse" id="color-32"><stop offset="0" stop-color="#000000" stop-opacity="0"/><stop offset="1" stop-color="#000000" stop-opacity="0.24194"/></linearGradient><linearGradient x1="33.03986" y1="351.73354" x2="40.10088" y2="363.23975" gradientUnits="userSpaceOnUse" id="color-33"><stop offset="0" stop-color="#000000" stop-opacity="0"/><stop offset="1" stop-color="#000000" stop-opacity="0.24194"/></linearGradient><linearGradient x1="52.53986" y1="356.98354" x2="59.60088" y2="368.48975" gradientUnits="userSpaceOnUse" id="color-34"><stop offset="0" stop-color="#000000" stop-opacity="0"/><stop offset="1" stop-color="#000000" stop-opacity="0.24194"/></linearGradient><linearGradient x1="49.70216" y1="373.66312" x2="59.93858" y2="390.34373" gradientUnits="userSpaceOnUse" id="color-35"><stop offset="0" stop-color="#000000" stop-opacity="0"/><stop offset="1" stop-color="#000000" stop-opacity="0.24194"/></linearGradient><linearGradient x1="114.37795" y1="18.48532" x2="114.37795" y2="70.09503" gradientUnits="userSpaceOnUse" id="color-36"><stop offset="0" stop-color="#000000" stop-opacity="0.37255"/><stop offset="1" stop-color="#000000" stop-opacity="0.63137"/></linearGradient><radialGradient cx="175.91078" cy="334.18494" r="58.24057" gradientUnits="userSpaceOnUse" id="color-37"><stop offset="0" stop-color="#ff0077" stop-opacity="0.67059"/><stop offset="1" stop-color="#ff0077" stop-opacity="0.27451"/></radialGradient><radialGradient cx="174.02377" cy="283.63385" r="25.97552" gradientUnits="userSpaceOnUse" id="color-38"><stop offset="0" stop-color="#ff0077" stop-opacity="0.67059"/><stop offset="1" stop-color="#ff0077" stop-opacity="0.27451"/></radialGradient><radialGradient cx="204.85731" cy="329.09606" r="8.65153" gradientUnits="userSpaceOnUse" id="color-39"><stop offset="0" stop-color="#ff0077" stop-opacity="0.67059"/><stop offset="1" stop-color="#ff0077" stop-opacity="0.27451"/></radialGradient><radialGradient cx="222.02286" cy="337.88512" r="17.16555" gradientUnits="userSpaceOnUse" id="color-40"><stop offset="0" stop-color="#ff0077" stop-opacity="0.67059"/><stop offset="1" stop-color="#ff0077" stop-opacity="0.27451"/></radialGradient></defs><g transform="translate(45.23712,-9.47166)"><g data-paper-data="{&quot;isPaintingLayer&quot;:true}" fill-rule="nonzero" stroke-linejoin="miter" stroke-miterlimit="10" stroke-dasharray="" stroke-dashoffset="0" style="mix-blend-mode: normal"><path d="M82.47965,232.37788c36.67542,3.00009 63.97463,35.16346 60.97454,71.83887c-3.00009,36.67542 -35.16346,63.97463 -71.83887,60.97454c-36.67542,-3.00009 -63.97463,-35.16346 -60.97454,-71.83887c3.00009,-36.67542 35.16347,-63.97463 71.83887,-60.97453z" fill="url(#color-1)" stroke="none" stroke-width="0" stroke-linecap="butt"/><path d="M5.32613,328.52411c25.73298,2.10499 44.88723,24.67213 42.78224,50.4051c-2.10499,25.73298 -24.67213,44.88723 -50.4051,42.78224c-25.73298,-2.10499 -44.88723,-24.67213 -42.78224,-50.4051c2.10499,-25.73298 24.67213,-44.88723 50.4051,-42.78224z" fill="url(#color-2)" stroke="none" stroke-width="0" stroke-linecap="butt"/><path d="M75.26631,358.48014c18.57756,1.51967 32.40571,17.8117 30.88604,36.38925c-1.51967,18.57756 -17.8117,32.40571 -36.38925,30.88604c-18.57756,-1.51967 -32.40571,-17.8117 -30.88604,-36.38925c1.51967,-18.57756 17.8117,-32.40571 36.38925,-30.88604z" fill="url(#color-3)" stroke="none" stroke-width="0" stroke-linecap="butt"/><path d="M-38.0639,328.26072c0,0 0.40479,-32.15216 5.57408,-44.5428c4.78548,-11.47062 21.07633,-42.07276 21.07633,-42.07276c0,0 32.32457,1.41568 46.99363,2.41894c14.66906,1.00328 49.74255,17.03263 49.74255,17.03263l-25.10774,25.99209l20.27877,23.92235l39.37199,-6.25415l36.10224,28.82644l-2.24012,38.1621l-45.81044,-23.26934l-19.8782,0.87458l-34.73019,-24.19546l-14.59538,1.94264l26.76177,23.47287l15.43288,33.52324l-13.41192,33.22972l-27.49445,8.37595l-8.89705,-22.0387l-0.94413,-24.35686l-16.12224,-29.79775l-22.05224,-22.99877z" fill="url(#color-4)" stroke="none" stroke-width="0" stroke-linecap="butt"/><path d="M102.15174,330.19883l-3.12648,-19.45478l18.53823,-3.36467l35.00165,25.94001l-0.11726,32.09729z" fill="url(#color-5)" stroke="none" stroke-width="0" stroke-linecap="butt"/><path d="M86.12148,349.45605l-32.20666,-21.9795l-14.85238,-0.68262l16.9602,-9.40904l31.66621,25.176l22.89664,-3.2578l41.42527,30.1025l-44.51343,-18.90689z" fill="url(#color-6)" stroke="none" stroke-width="0" stroke-linecap="butt"/><g data-paper-data="{&quot;index&quot;:null}" stroke="none" stroke-width="0" stroke-linecap="butt"><path d="M284.50003,86.50028c38.38379,0 69.5,31.11621 69.5,69.5c0,38.38379 -31.11621,69.5 -69.5,69.5c-38.38379,0 -69.5,-31.11621 -69.5,-69.5c0,-38.38379 31.11621,-69.5 69.5,-69.5z" fill="url(#color-7)"/><path d="M225.50003,174.50025c11.87412,0 21.5,9.62588 21.5,21.5c0,11.87412 -9.62588,21.5 -21.5,21.5c-11.87412,0 -21.5,-9.62588 -21.5,-21.5c0,-11.87412 9.62588,-21.5 21.5,-21.5z" fill="url(#color-8)"/><path d="M247.00003,248.50016c5.52284,0 10,4.47716 10,10c0,5.52284 -4.47716,10 -10,10c-5.52284,0 -10,-4.47715 -10,-10c0,-5.52284 4.47716,-10 10,-10z" fill="url(#color-9)"/><path d="M282.00003,70.50028c5.52284,0 10,4.47715 10,10c0,5.52285 -4.47716,10 -10,10c-5.52284,0 -10,-4.47715 -10,-10c0,-5.52285 4.47716,-10 10,-10z" fill="url(#color-10)"/></g><path d="" fill="none" stroke="#000000" stroke-width="0.5" stroke-linecap="round"/><path d="M-7.84682,320.69912l-21.97256,-31.89759l45.38929,3.21124l13.95843,31.7437z" fill="#000000" stroke="none" stroke-width="0" stroke-linecap="butt"/><path d="M30.13981,316.28145l-10.16641,-22.90511l33.31107,-20.8536l-3.02574,30.85604z" fill="#000000" stroke="none" stroke-width="0" stroke-linecap="butt"/><path d="M-4.53069,316.95704l-9.37356,-20.3319l28.78116,3.85935l5.54994,18.01245z" fill="#ffffff" stroke="none" stroke-width="0" stroke-linecap="butt"/><path d="M30.13065,310.26067l-3.5882,-11.33026l17.58648,-12.60816l3.05826,17.80862z" fill="#ffffff" stroke="none" stroke-width="0" stroke-linecap="butt"/><path d="M3.64881,313.11109l-3.53772,-16.89306l14.86058,-1.24418l5.7813,19.53638z" fill="#000000" stroke="none" stroke-width="0" stroke-linecap="butt"/><path d="M35.50377,304.17847l-5.23756,-13.97353l16.21331,-7.70379l1.53211,17.68378z" fill="#000000" stroke="none" stroke-width="0" stroke-linecap="butt"/><path d="M28.26303,379.08757l-14.30825,-26.82881l-21.79244,-25.53878l26.92224,22.01717l10.74583,23.45525l12.44831,47.81036l23.5775,-3.72645l-26.11074,11.20493l-9.54846,-19.52319z" fill="url(#color-11)" stroke="none" stroke-width="0" stroke-linecap="butt"/><path d="M-22.51458,265.82058l11.30278,-21.65057l47.50493,1.87929l41.65974,15.33663l-13.50333,14.55846z" fill="url(#color-12)" stroke="none" stroke-width="0" stroke-linecap="butt"/><path d="M-26.14766,279.57015l15.93254,-35.31861l16.94341,1.386l-2.97581,36.37849z" fill="url(#color-13)" stroke="none" stroke-width="0" stroke-linecap="butt"/><path d="M42.57041,414.62232l-7.9347,-35.26043l-13.17768,-31.6837l32.88098,-3.33033l11.12003,11.90797l11.58844,26.30241l-10.19009,29.53576z" fill="url(#color-14)" stroke="none" stroke-width="0" stroke-linecap="butt"/><path d="M149.57692,348.50543c16.23816,1.32831 28.32499,15.56874 26.99668,31.8069c-1.32831,16.23816 -15.56874,28.32499 -31.8069,26.99668c-16.23816,-1.32831 -28.32499,-15.56874 -26.99668,-31.8069c1.32831,-16.23816 15.56874,-28.32499 31.8069,-26.99668z" fill="url(#color-15)" stroke="none" stroke-width="0" stroke-linecap="butt"/><path d="M54.30416,335.69522c5.22924,0.42776 9.12161,5.01366 8.69385,10.2429c-0.42776,5.22924 -5.01366,9.12161 -10.2429,8.69385c-5.22924,-0.42776 -9.12161,-5.01366 -8.69385,-10.2429c0.42776,-5.22924 5.01366,-9.12161 10.2429,-8.69385z" fill="url(#color-16)" stroke="none" stroke-width="0" stroke-linecap="butt"/><path d="M156.9521,338.07197c5.22923,0.42776 9.12161,5.01366 8.69385,10.2429c-0.42776,5.22924 -5.01367,9.12161 -10.2429,8.69385c-5.22924,-0.42776 -9.12161,-5.01366 -8.69385,-10.2429c0.42776,-5.22924 5.01366,-9.12161 10.2429,-8.69385z" fill="url(#color-17)" stroke="none" stroke-width="0" stroke-linecap="butt"/><path d="M149.65937,402.69253c7.43102,0.60787 12.96228,7.12468 12.35441,14.5557c-0.60787,7.43103 -7.12468,12.96228 -14.5557,12.35441c-7.43103,-0.60787 -12.96228,-7.12467 -12.35441,-14.5557c0.60787,-7.43102 7.12467,-12.96228 14.5557,-12.35441z" fill="url(#color-18)" stroke="none" stroke-width="0" stroke-linecap="butt"/><path d="M28.76263,359.69278c11.00893,0.90055 19.20338,10.55507 18.30284,21.564c-0.90055,11.00893 -10.55507,19.20338 -21.564,18.30284c-11.00893,-0.90055 -19.20338,-10.55507 -18.30284,-21.564c0.90055,-11.00893 10.55507,-19.20338 21.564,-18.30284z" fill="url(#color-19)" stroke="none" stroke-width="0" stroke-linecap="butt"/><path d="M106.55611,291.5592c11.00893,0.90055 19.20338,10.55507 18.30284,21.564c-0.90055,11.00893 -10.55507,19.20338 -21.564,18.30284c-11.00893,-0.90055 -19.20338,-10.55507 -18.30284,-21.564c0.90055,-11.00893 10.55507,-19.20338 21.564,-18.30284z" fill="url(#color-20)" stroke="none" stroke-width="0" stroke-linecap="butt"/><g stroke="#000000" stroke-width="0" stroke-linecap="butt"><path d="M26.37262,265.74745c0.9449,-2.88722 4.05145,-4.46177 6.93867,-3.51686c2.88721,0.94491 4.46176,4.05145 3.51685,6.93867c-0.9449,2.88722 -4.05145,4.46177 -6.93866,3.51686c-2.88722,-0.94491 -4.46176,-4.05145 -3.51685,-6.93867z" fill="url(#color-21)"/><path d="M2.30335,252.74524c1.56745,-4.78943 6.72071,-7.40135 11.51014,-5.83391c4.78943,1.56744 7.40135,6.72071 5.8339,11.51014c-1.56744,4.78943 -6.72071,7.40135 -11.51014,5.83391c-4.78943,-1.56745 -7.40134,-6.72071 -5.8339,-11.51014z" fill="url(#color-22)"/><path d="M43.24797,256.77483c0.51557,-1.57535 2.21059,-2.43446 3.78593,-1.91889c1.57534,0.51556 2.43445,2.21058 1.91889,3.78593c-0.51557,1.57535 -2.21058,2.43446 -3.78592,1.9189c-1.57534,-0.51556 -2.43446,-2.21058 -1.91889,-3.78593z" fill="url(#color-23)"/><path d="M12.72304,269.4303c0.4297,-1.31297 1.84241,-2.029 3.15538,-1.5993c1.31297,0.4297 2.029,1.84241 1.5993,3.15538c-0.4297,1.31297 -1.84241,2.029 -3.15538,1.5993c-1.31297,-0.4297 -2.029,-1.84241 -1.5993,-3.15538z" fill="url(#color-24)"/><path d="M57.99797,265.77483c0.51556,-1.57535 2.21059,-2.43446 3.78593,-1.91889c1.57534,0.51556 2.43446,2.21058 1.91889,3.78593c-0.51556,1.57535 -2.21058,2.43446 -3.78592,1.9189c-1.57534,-0.51556 -2.43446,-2.21058 -1.91889,-3.78593z" fill="url(#color-25)"/><path d="M26.99797,254.27483c0.51557,-1.57535 2.21059,-2.43446 3.78593,-1.91889c1.57534,0.51556 2.43445,2.21058 1.91889,3.78593c-0.51556,1.57535 -2.21058,2.43446 -3.78593,1.9189c-1.57534,-0.51556 -2.43446,-2.21058 -1.91889,-3.78593z" fill="url(#color-26)"/><path d="M37.49797,276.02483c0.51557,-1.57535 2.21059,-2.43446 3.78593,-1.9189c1.57534,0.51557 2.43445,2.21058 1.91889,3.78593c-0.51556,1.57534 -2.21058,2.43446 -3.78592,1.9189c-1.57534,-0.51557 -2.43446,-2.21059 -1.9189,-3.78593z" fill="url(#color-27)"/><path d="M-3.75203,270.77483c0.51557,-1.57535 2.21059,-2.43446 3.78593,-1.91889c1.57534,0.51556 2.43445,2.21058 1.91889,3.78593c-0.51557,1.57535 -2.21058,2.43446 -3.78592,1.9189c-1.57534,-0.51556 -2.43446,-2.21058 -1.91889,-3.78593z" fill="url(#color-28)"/></g><g stroke-width="0" stroke-linecap="butt"><path d="M52.35038,285.90834l17.3587,-21.78629l-1.3587,-6.46371l9.82988,4.01747l-19.78597,24.67403l21.95609,26.80851l37.0726,-6.30669l-37.43332,11.91977l-9.30634,-10.01052l-2.27139,4.59473l15.78296,15.00104l18.39759,4.556l-18.97182,-0.79076l-19.77181,-17.99638l-0.11566,-12.84064z" fill="url(#color-29)" stroke="none"/><path d="M112.23792,316.74205c0.50865,-2.24018 3.86805,-3.38705 7.50344,-2.56161c3.63539,0.82544 6.17012,3.31061 5.66147,5.55078c-0.50865,2.24018 -3.86805,3.38705 -7.50344,2.56161c-3.63539,-0.82544 -6.17012,-3.31061 -5.66147,-5.55079z" fill="url(#color-30)" stroke="#000000"/><path d="M115.48792,331.74205c0.50865,-2.24018 3.86805,-3.38705 7.50344,-2.56161c3.63539,0.82544 6.17012,3.31061 5.66147,5.55078c-0.50865,2.24018 -3.86805,3.38705 -7.50344,2.56161c-3.63539,-0.82544 -6.17012,-3.31061 -5.66147,-5.55079z" fill="url(#color-31)" stroke="#000000"/><path d="M134.31769,335.09764c1.74067,-2.21303 6.0631,-1.71711 9.65443,1.10767c3.59133,2.82478 5.0916,6.90872 3.35093,9.12175c-1.74067,2.21303 -6.0631,1.71711 -9.65443,-1.10767c-3.59133,-2.82478 -5.0916,-6.90873 -3.35093,-9.12175z" fill="url(#color-32)" stroke="#000000"/><path d="M33.03986,351.73354c1.95792,-1.20152 5.12579,0.40019 7.07564,3.57754c1.94985,3.17735 1.9433,6.72712 -0.01462,7.92864c-1.95792,1.20152 -5.12579,-0.40019 -7.07564,-3.57754c-1.94984,-3.17735 -1.9433,-6.72712 0.01462,-7.92864z" fill="url(#color-33)" stroke="#000000"/><path d="M52.53986,356.98354c1.95792,-1.20152 5.12579,0.40019 7.07564,3.57754c1.94985,3.17735 1.9433,6.72712 -0.01462,7.92864c-1.95792,1.20152 -5.12579,-0.40019 -7.07564,-3.57754c-1.94985,-3.17735 -1.9433,-6.72712 0.01462,-7.92864z" fill="url(#color-34)" stroke="#000000"/><path d="M49.70216,373.66312c2.83841,-1.74185 7.43091,0.58016 10.25761,5.18639c2.8267,4.60622 2.81722,9.75236 -0.02119,11.49421c-2.83841,1.74185 -7.43091,-0.58017 -10.25762,-5.18639c-2.8267,-4.60622 -2.81722,-9.75235 0.0212,-11.49421z" fill="url(#color-35)" stroke="#000000"/></g><path d="M213.16565,46.34932c-0.2961,14.20544 -44.76489,24.79932 -99.32384,23.66208c-54.55895,-1.13724 -98.54768,-13.57492 -98.25158,-27.78036c0.29609,-14.20544 44.7649,-24.79932 99.32386,-23.66209c54.55896,1.13724 98.54768,13.57493 98.25159,27.78037z" fill="url(#color-36)" stroke="none" stroke-width="0" stroke-linecap="butt"/><path d="M86.20506,41.19802c-8.5484,-0.17818 -15.33381,-7.25248 -15.15564,-15.80089c0.17818,-8.5484 7.25248,-15.33381 15.80089,-15.15563c8.54841,0.17818 15.33382,7.25248 15.15563,15.80089c-0.17818,8.5484 -7.25248,15.33382 -15.80089,15.15563z" fill-opacity="0.84706" fill="#00fc04" stroke="none" stroke-width="0" stroke-linecap="butt"/><path d="M143.32818,75.63587c-8.5484,-0.17818 -15.33382,-7.25249 -15.15563,-15.8009c0.17819,-8.5484 7.25248,-15.33381 15.80089,-15.15562c8.54841,0.17818 15.33382,7.25248 15.15563,15.80089c-0.17819,8.5484 -7.25249,15.33381 -15.8009,15.15563z" fill-opacity="0.73333" fill="#ff0077" stroke="none" stroke-width="0" stroke-linecap="butt"/><path d="M25.59108,64.98382c-8.5484,-0.17818 -15.33381,-7.25248 -15.15563,-15.80089c0.17818,-8.5484 7.25249,-15.33382 15.8009,-15.15563c8.54841,0.17818 15.33381,7.25249 15.15563,15.80089c-0.17818,8.54841 -7.25248,15.33381 -15.80089,15.15563z" fill-opacity="0.73333" fill="#ff0077" stroke="none" stroke-width="0" stroke-linecap="butt"/><path d="M202.64288,48.6349c-8.5484,-0.17818 -15.33381,-7.25248 -15.15562,-15.80089c0.17819,-8.5484 7.25248,-15.33381 15.80089,-15.15562c8.54841,0.17818 15.33381,7.25248 15.15563,15.80088c-0.17819,8.54841 -7.25249,15.33382 -15.80089,15.15563z" fill-opacity="0.84706" fill="#00fc04" stroke="none" stroke-width="0" stroke-linecap="butt"/><path d="M189.65886,59.75029c-5.78275,-0.12054 -10.37288,-4.9061 -10.25234,-10.68883c0.12054,-5.78274 4.9061,-10.37287 10.68884,-10.25234c5.78275,0.12054 10.37287,4.90609 10.25233,10.68883c-0.12054,5.78274 -4.90609,10.37288 -10.68883,10.25234z" fill-opacity="0.84706" fill="#00fc04" stroke="none" stroke-width="0" stroke-linecap="butt"/><path d="M122.99398,78.85554c-5.15418,-0.10743 -9.24539,-4.37283 -9.13795,-9.527c0.10743,-5.15418 4.37283,-9.24539 9.52701,-9.13796c5.15419,0.10744 9.24539,4.37282 9.13796,9.52701c-0.10744,5.15418 -4.37283,9.24538 -9.52701,9.13795z" fill-opacity="0.73333" fill="#ff0077" stroke="none" stroke-width="0" stroke-linecap="butt"/><path d="M153.71339,79.9513c-3.01709,-0.06288 -5.41194,-2.5597 -5.34905,-5.57679c0.06288,-3.01709 2.55971,-5.41193 5.57679,-5.34905c3.01709,0.06288 5.41193,2.5597 5.34905,5.57678c-0.06288,3.01709 -2.5597,5.41194 -5.57678,5.34906z" fill-opacity="0.73333" fill="#ff0077" stroke="none" stroke-width="0" stroke-linecap="butt"/><path d="M115.19852,26.77282c-4.77706,-0.09958 -8.56889,-4.05287 -8.46932,-8.82992c0.09958,-4.77705 4.05286,-8.56889 8.82992,-8.46932c4.77706,0.09957 8.56889,4.05286 8.46932,8.82991c-0.09958,4.77706 -4.05286,8.56891 -8.82991,8.46933z" fill-opacity="0.84706" fill="#00fc04" stroke="none" stroke-width="0" stroke-linecap="butt"/><path d="M69.54134,32.19729c-3.51994,-0.07337 -6.31392,-2.98632 -6.24056,-6.50625c0.07337,-3.51993 2.98631,-6.31392 6.50625,-6.24055c3.51994,0.07337 6.31392,2.98632 6.24056,6.50625c-0.07336,3.51993 -2.98631,6.31392 -6.50625,6.24055z" fill-opacity="0.84706" fill="#00fc04" stroke="none" stroke-width="0" stroke-linecap="butt"/><path d="M45.59332,66.76707c-4.77705,-0.09958 -8.56889,-4.05287 -8.46932,-8.82991c0.09958,-4.77705 4.05287,-8.5689 8.82992,-8.46932c4.77705,0.09958 8.56889,4.05287 8.46932,8.82992c-0.09958,4.77705 -4.05286,8.5689 -8.82991,8.46932z" fill-opacity="0.73333" fill="#ff0077" stroke="none" stroke-width="0" stroke-linecap="butt"/><path d="M19.26548,29.78303c-3.64564,-0.07599 -6.53942,-3.09296 -6.46343,-6.73861c0.076,-3.64565 3.09296,-6.53942 6.73861,-6.46343c3.64565,0.07599 6.53942,3.09297 6.46343,6.73862c-0.07599,3.64565 -3.09296,6.53942 -6.73861,6.46342z" fill-opacity="0.73333" fill="#ff0077" stroke="none" stroke-width="0" stroke-linecap="butt"/><path d="M204.75767,67.35206c-2.63995,-0.05503 -4.73545,-2.23974 -4.68042,-4.87969c0.05503,-2.63995 2.23974,-4.73544 4.87969,-4.68041c2.63995,0.05503 4.73544,2.23973 4.68042,4.87968c-0.05503,2.63995 -2.23974,4.73545 -4.87969,4.68042z" fill-opacity="0.84706" fill="#00fc04" stroke="none" stroke-width="0" stroke-linecap="butt"/><g fill="#ffffff" stroke="none" stroke-width="0.40889" stroke-linecap="butt"><path d="M33.51263,17.68751c1.25373,-0.07793 2.74246,0.00933 4.46622,0.26178c1.74166,0.25134 3.26549,0.75893 4.57152,1.52278c1.3049,0.74593 1.99744,1.76368 2.07759,3.05322c0.07014,1.12834 -0.21005,2.11665 -0.84054,2.96492c-0.63161,0.83035 -1.49367,1.27948 -2.5862,1.34739c-0.50149,0.03117 -1.05329,-0.02443 -1.65546,-0.16679c-0.58538,-0.16139 -1.19873,-0.33902 -1.84006,-0.53289c-0.62342,-0.19497 -1.25244,-0.33568 -1.8871,-0.42208c-0.61785,-0.10543 -1.29395,-0.13534 -2.02827,-0.08969c-1.23582,0.07682 -2.28145,0.46544 -3.13686,1.16587c-0.83752,0.69931 -1.22233,1.59522 -1.15442,2.68776c0.07347,1.18208 1.1265,2.06953 3.15906,2.66238c2.04936,0.57382 4.31697,1.18802 6.80286,1.84258c2.5038,0.65346 4.65034,1.77859 6.43965,3.37543c1.78821,1.57892 2.78251,3.9803 2.98288,7.20414c0.15585,2.50743 -0.34136,4.77678 -1.49163,6.80804c-1.15029,2.03126 -2.76723,3.64202 -4.85078,4.83231c-2.08353,1.19027 -4.39692,1.86447 -6.94017,2.02255c-3.1343,0.19481 -6.18057,-0.07433 -9.13879,-0.80739c-2.94143,-0.7521 -4.48284,-2.26546 -4.62423,-4.54006c-0.06902,-1.11043 0.205,-2.05341 0.82203,-2.82891c0.63383,-0.79454 1.50596,-1.2263 2.61638,-1.29532c0.53731,-0.03339 1.13393,0.01942 1.78983,0.15843c0.6559,0.13902 1.49646,0.35648 2.52169,0.65235c1.02411,0.27796 1.91842,0.49206 2.68289,0.64231c0.76337,0.13234 1.55699,0.17291 2.38085,0.12171c1.18208,-0.07348 2.18177,-0.33338 2.99907,-0.77972c0.81616,-0.46426 1.4169,-1.06794 1.80222,-1.81108c0.40321,-0.74425 0.57644,-1.57306 0.51967,-2.4865c-0.08684,-1.397 -0.63612,-2.27981 -1.64789,-2.64843c-0.99387,-0.36975 -3.28053,-1.00072 -6.85996,-1.89297c-3.57941,-0.89225 -6.23808,-2.01252 -7.97598,-3.36085c-1.72001,-1.34942 -2.66905,-3.45697 -2.84717,-6.3226c-0.15585,-2.50743 0.32567,-4.73984 1.44459,-6.69723c1.13573,-1.9764 2.71961,-3.54018 4.75166,-4.69129c2.03204,-1.15113 4.25701,-1.80183 6.67488,-1.95211z"/><path d="M114.31853,35.23455l-0.34108,16.36365c-0.02683,1.28696 -0.22808,2.32323 -0.60376,3.10885c-0.37568,0.78565 -1.26685,1.1638 -2.67352,1.13448c-0.89786,-0.01872 -1.58888,-0.26517 -2.07304,-0.73935c-0.46888,-0.48885 -0.81338,-1.19967 -1.03346,-2.13246c-1.7939,2.0286 -3.91793,3.01735 -6.3721,2.96619c-2.03517,-0.04243 -3.87938,-0.6273 -5.53262,-1.75465c-1.65326,-1.12734 -2.93862,-2.66621 -3.8561,-4.61658c-0.9022,-1.96504 -1.32789,-4.16716 -1.27706,-6.60637c0.04897,-2.34942 0.58022,-4.49415 1.59378,-6.43422c1.01387,-1.95504 2.37051,-3.47626 4.06992,-4.56366c1.69974,-1.10237 3.54473,-1.63282 5.53501,-1.59133c1.24205,0.02589 2.41894,0.30493 3.53068,0.83713c1.11173,0.5322 2.01629,1.30708 2.71369,2.32467c0.10663,-0.8062 0.46455,-1.45747 1.07372,-1.95379c0.62445,-0.51097 1.34073,-0.75803 2.14881,-0.74119c1.40666,0.02933 2.28115,0.45176 2.62345,1.26733c0.34262,0.80062 0.50051,1.84439 0.47368,3.13134zM97.17756,43.09631c-0.02339,1.12234 0.14869,2.20385 0.51624,3.24451c0.38282,1.026 0.95661,1.86884 1.72134,2.52854c0.78002,0.64504 1.73118,0.97924 2.85352,1.00263c1.61616,0.03368 2.88706,-0.60603 3.81268,-1.91915c0.92594,-1.32807 1.40733,-2.87504 1.44412,-4.64086c0.02308,-1.10737 -0.14916,-2.18137 -0.51671,-3.22201c-0.35228,-1.05532 -0.91811,-1.92045 -1.69749,-2.59542c-0.76443,-0.67466 -1.68538,-1.02323 -2.76281,-1.04568c-1.10737,-0.02309 -2.07196,0.28618 -2.89377,0.92777c-0.80653,0.62694 -1.41525,1.46011 -1.82615,2.4995c-0.41092,1.03941 -0.6279,2.1128 -0.65099,3.22016z"/><path d="M79.95785,55.68352l-2.26716,-30.74853c-0.0875,-1.1867 0.16689,-2.16979 0.76319,-2.94928c0.61138,-0.79693 1.45353,-1.23495 2.52642,-1.31405c0.69901,-0.05154 1.32934,0.0736 1.89097,0.37542c0.57666,0.28436 1.0422,0.72402 1.39663,1.31897c0.35323,0.57871 0.5586,1.25821 0.61613,2.03852l2.26716,30.74854c0.05754,0.78032 -0.04537,1.4907 -0.3087,2.13121c-0.26453,0.62425 -0.66054,1.12745 -1.18807,1.50955c-0.52874,0.36589 -1.13449,0.57401 -1.81726,0.62435c-1.0729,0.07911 -1.96958,-0.22254 -2.69003,-0.90493c-0.70538,-0.69984 -1.1018,-1.64311 -1.1893,-2.82981z"/><path d="M185.99324,53.1129l0.49412,-17.94179c0.0306,-1.11091 0.35968,-2.00036 0.98726,-2.66839c0.6432,-0.68285 1.46698,-1.01044 2.47135,-0.98277c0.86742,0.02388 1.56137,0.26382 2.08185,0.71982c0.53569,0.45641 0.85371,1.07434 0.95408,1.8538c1.35943,-1.8053 3.54572,-2.66647 6.55883,-2.58348c1.76526,0.04862 3.33785,0.45743 4.71778,1.22643c1.38032,0.7538 2.44731,1.8264 3.20092,3.21779c0.75402,1.37618 1.10526,3.00017 1.05372,4.87198l-0.3552,12.89706c-0.02013,0.73047 -0.18271,1.38085 -0.48778,1.95115c-0.30466,0.5551 -0.72006,0.9853 -1.24625,1.2906c-0.52579,0.29012 -1.10827,0.42638 -1.74742,0.40879c-1.00438,-0.02767 -1.80911,-0.39249 -2.41417,-1.09448c-0.58943,-0.71678 -0.86884,-1.63062 -0.83824,-2.74153l0.32313,-11.7329c0.04149,-1.50657 -0.33795,-2.65921 -1.13834,-3.45795c-0.78476,-0.81354 -1.8315,-1.23834 -3.14024,-1.27437c-0.88261,-0.02432 -1.65678,0.15996 -2.32247,0.55281c-0.66525,0.37765 -1.17471,0.90425 -1.52835,1.57985c-0.35366,0.6756 -0.54285,1.46231 -0.56758,2.36015l-0.32312,11.73291c-0.02013,0.73047 -0.18271,1.38085 -0.48779,1.95115c-0.30463,0.5551 -0.72006,0.9853 -1.24625,1.2906c-0.52579,0.29012 -1.10827,0.42637 -1.74742,0.40878c-1.00437,-0.02767 -1.80909,-0.39248 -2.41415,-1.09447c-0.58944,-0.71678 -0.86887,-1.63063 -0.83827,-2.74154z"/><path d="M52.43556,64.47136l0.41844,-26.29154c0.01669,-1.04791 0.31726,-1.8903 0.90175,-2.52715c0.59907,-0.65097 1.37233,-0.96892 2.31977,-0.95384c1.69392,0.02696 2.74215,0.92672 3.14469,2.69924c0.60364,-0.93807 1.45484,-1.64246 2.5536,-2.11317c1.099,-0.48508 2.27293,-0.71767 3.52183,-0.69779c2.16764,0.03449 4.00999,0.65971 5.52702,1.87564c1.5314,1.21615 2.67655,2.79231 3.43548,4.72847c0.75892,1.93617 1.12125,3.98091 1.08698,6.13419c-0.03199,2.00973 -0.50055,3.93354 -1.40569,5.77141c-0.89055,1.82374 -2.14875,3.28986 -3.77457,4.39834c-1.62584,1.10846 -3.45078,1.64659 -5.47487,1.61437c-1.00487,-0.01599 -2.01393,-0.21872 -3.02721,-0.60818c-1.01304,-0.4038 -1.93016,-0.9712 -2.75134,-1.70223l-0.12371,7.77333c-0.01051,0.66036 -0.15648,1.26111 -0.43791,1.80226c-0.28142,0.54116 -0.66847,0.95139 -1.1611,1.23072c-0.49287,0.29369 -1.04077,0.43574 -1.6437,0.42615c-0.94744,-0.01508 -1.7103,-0.35027 -2.28859,-1.00562c-0.56417,-0.64077 -0.83778,-1.4923 -0.82088,-2.5546zM59.07421,46.57107c-0.02719,1.70827 0.37196,3.24382 1.19744,4.60668c0.83984,1.3631 2.06365,2.05745 3.67142,2.08303c1.03358,0.01644 1.9358,-0.28508 2.70668,-0.9046c0.77088,-0.61952 1.35058,-1.40721 1.73913,-2.36306c0.38877,-0.97022 0.5916,-1.98647 0.60851,-3.04874c0.0169,-1.06229 -0.15338,-2.09167 -0.51085,-3.08812c-0.35747,-0.99645 -0.91159,-1.81652 -1.66236,-2.46026c-0.73618,-0.65788 -1.62825,-0.99516 -2.67619,-1.01183c-1.07664,-0.01714 -2.00017,0.26971 -2.77058,0.86052c-0.75584,0.57668 -1.32791,1.33576 -1.71622,2.27727c-0.37395,0.94173 -0.56962,1.95811 -0.58698,3.04912z"/><path d="M122.3474,57.00475l-0.35074,-16.59816l-1.61337,0.03409c-0.94521,0.01998 -1.70902,-0.2492 -2.29147,-0.80752c-0.59907,-0.57431 -0.90878,-1.34219 -0.9291,-2.3037c-0.01894,-0.8963 0.2667,-1.65232 0.85694,-2.26804c0.59023,-0.61572 1.33351,-0.93305 2.22982,-0.95199l1.61336,-0.03409l-0.09091,-4.30232c-0.02513,-1.18966 0.28048,-2.15805 0.91685,-2.90516c0.65233,-0.76375 1.51628,-1.157 2.59185,-1.17974c0.70077,-0.0148 1.32364,0.14321 1.86866,0.47406c0.56098,0.31424 1.00282,0.77772 1.32554,1.39044c0.32237,0.59643 0.49183,1.28578 0.50836,2.068l0.09091,4.30233l2.05338,-0.04339c0.99409,-0.02101 1.82259,0.22235 2.48548,0.73008c0.66255,0.49142 1.00517,1.27492 1.02791,2.35049c0.02273,1.07559 -0.28633,1.88101 -0.92717,2.41627c-0.62454,0.53493 -1.44203,0.81307 -2.45243,0.83442l-2.05338,0.04339l0.35075,16.59817c0.01653,0.78224 -0.12348,1.48626 -0.42003,2.11206c-0.29689,0.60952 -0.71877,1.09125 -1.26562,1.4452c-0.54721,0.33763 -1.16302,0.51369 -1.84748,0.52816c-1.07558,0.02273 -1.9552,-0.32551 -2.63886,-1.04474c-0.66772,-0.73589 -1.01414,-1.69864 -1.03927,-2.88829z"/><path d="M147.19988,32.19314c1.61363,0.03363 3.10709,0.39756 4.48038,1.09172c1.38774,0.68033 2.56522,1.59701 3.53244,2.75005c0.98137,1.15331 1.72597,2.45746 2.23374,3.91244c0.52194,1.45529 0.76609,2.98976 0.73246,4.60339c-0.03393,1.62777 -0.34225,3.17195 -0.92497,4.63254c-0.56826,1.44672 -1.35225,2.71193 -2.35192,3.79563c-0.98524,1.06983 -2.19237,1.91556 -3.62141,2.53717c-1.41459,0.60777 -2.94285,0.89453 -4.58478,0.86031c-2.16566,-0.04514 -4.09365,-0.62344 -5.78393,-1.73491c-1.68999,-1.1256 -2.99,-2.61834 -3.9,-4.47821c-0.89556,-1.87374 -1.32062,-3.90052 -1.27518,-6.08033c0.03245,-1.55702 0.33282,-3.05889 0.90108,-4.5056c0.58272,-1.46059 1.38852,-2.75365 2.41741,-3.87923c1.02887,-1.12558 2.24368,-1.99947 3.6444,-2.62167c1.40073,-0.62221 2.90082,-0.91665 4.5003,-0.88332zM147.08038,37.92579c-1.04745,-0.02183 -1.95982,0.2707 -2.73716,0.87757c-0.76289,0.593 -1.33867,1.38108 -1.72734,2.36423c-0.38868,0.98316 -0.59392,1.99847 -0.61575,3.04592c-0.02212,1.0616 0.14064,2.08457 0.4883,3.06891c0.36211,0.97049 0.90484,1.76772 1.62819,2.39171c0.73781,0.61014 1.63751,0.92627 2.69911,0.9484c1.07575,0.02243 1.98785,-0.25594 2.73628,-0.8351c0.76289,-0.593 1.33837,-1.36694 1.72644,-2.32179c0.40252,-0.96869 0.61488,-1.98384 0.637,-3.04546c0.02183,-1.04745 -0.14108,-2.06336 -0.48874,-3.0477c-0.34738,-0.9985 -0.88965,-1.81697 -1.62687,-2.45541c-0.73722,-0.63844 -1.6437,-0.96888 -2.71945,-0.9913z"/><path d="M172.31507,37.88538c1.61363,0.03363 3.10709,0.39756 4.48038,1.09173c1.38774,0.68033 2.56523,1.59701 3.53245,2.75005c0.98137,1.15331 1.72596,2.45747 2.23374,3.91244c0.52194,1.45529 0.76609,2.98976 0.73246,4.60338c-0.03393,1.62777 -0.34226,3.17196 -0.92497,4.63254c-0.56826,1.44672 -1.35225,2.71193 -2.35192,3.79562c-0.98524,1.06983 -2.19236,1.91556 -3.62141,2.53717c-1.41459,0.60777 -2.94286,0.89453 -4.58479,0.8603c-2.16566,-0.04514 -4.09364,-0.62344 -5.78392,-1.7349c-1.68999,-1.1256 -2.99,-2.61834 -3.90001,-4.4782c-0.89556,-1.87373 -1.32061,-3.90052 -1.27518,-6.08033c0.03245,-1.55702 0.33281,-3.05889 0.90108,-4.50561c0.58272,-1.46059 1.38851,-2.75365 2.41739,-3.87922c1.02887,-1.12558 2.24368,-1.99947 3.64441,-2.62167c1.40073,-0.62221 2.90083,-0.91663 4.5003,-0.8833zM172.19557,43.61803c-1.04745,-0.02183 -1.95982,0.2707 -2.73716,0.87757c-0.76289,0.593 -1.33866,1.38109 -1.72733,2.36424c-0.38868,0.98316 -0.59393,1.99846 -0.61576,3.04592c-0.02212,1.0616 0.14064,2.08457 0.4883,3.06891c0.36211,0.97049 0.90484,1.76772 1.6282,2.39171c0.73781,0.61014 1.63751,0.92628 2.69911,0.94841c1.07575,0.02243 1.98785,-0.25594 2.73628,-0.8351c0.76289,-0.593 1.33837,-1.36694 1.72644,-2.3218c0.40252,-0.96869 0.61489,-1.98384 0.63701,-3.04545c0.02183,-1.04745 -0.14108,-2.06336 -0.48875,-3.0477c-0.34738,-0.9985 -0.88965,-1.81697 -1.62687,-2.45541c-0.73722,-0.63844 -1.6437,-0.96887 -2.71946,-0.99129z"/></g><g fill="none" stroke="#ffffff" stroke-width="1.5"><path d="M89.29329,61.59679l4.60151,-0.36021c0,0 -0.98193,2.08504 -1.81599,3.03095c-0.88393,1.00246 -3.3467,2.82403 -3.3467,2.82403" stroke-linecap="round"/><path d="M92.38049,64.14807l2.85111,2.53735" stroke-linecap="round"/><path d="M96.74642,61.08899l5.08752,-0.41951c0,0 -0.01562,1.8844 -0.43272,2.78925c-0.89681,1.94555 -3.64216,3.36682 -3.64216,3.36682" stroke-linecap="round"/><path d="M102.58018,59.92729c0.01071,-0.51364 0.43578,-0.92135 0.94941,-0.91064c0.51364,0.01071 0.92136,0.43579 0.91064,0.94942c-0.01071,0.51364 -0.43578,0.92135 -0.94942,0.91063c-0.51364,-0.01071 -0.92135,-0.43577 -0.91063,-0.94941z" stroke-linecap="butt"/><path d="M106.30215,60.15868l4.05613,-0.33122" stroke-linecap="round"/><path d="M105.25439,62.38325l5.98614,-0.41032c0,0 -0.06356,1.37767 -0.78374,2.24754c-1.59743,1.92941 -3.70614,2.15353 -3.70614,2.15353" stroke-linecap="round"/><path d="M113.74206,59.5573l0.25443,6.85081" stroke-linecap="round"/><path d="M114.00339,62.23128l3.77775,1.89723" stroke-linecap="round"/><path d="M121.56774,61.41659l0.17029,1.3916" stroke-linecap="round"/><path d="M119.95286,64.28281l-0.05257,-1.03899l3.45304,-0.34734c0,0 0.11183,0.87162 -0.14317,1.3154c-0.5483,0.95417 -2.04928,1.71405 -2.04928,1.71405" stroke-linecap="round"/><path d="M132.30857,63.20639l-6.55717,0.37462" stroke-linecap="round"/><path d="M136.90439,60.29422l-2.40147,-0.1044" stroke-linecap="round"/><path d="M140.68314,59.83073c0,0 -0.1593,2.11402 -1.67439,3.78108c-1.5797,1.73815 -4.1693,2.01944 -4.1693,2.01944" stroke-linecap="round"/></g><path d="M175.91078,275.94439c32.16538,0 58.24057,26.07518 58.24057,58.24056c0,32.16538 -26.07519,58.24057 -58.24056,58.24057c-32.16538,0 -58.24056,-26.07519 -58.24056,-58.24056c0,-32.16538 26.07518,-58.24056 58.24056,-58.24056z" fill="url(#color-37)" stroke="none" stroke-width="0" stroke-linecap="butt"/><path d="M174.02377,257.65834c14.34589,0 25.97552,11.62963 25.97552,25.97551c0,14.34589 -11.62963,25.97552 -25.97551,25.97552c-14.34589,0 -25.97551,-11.62963 -25.97551,-25.97552c0,-14.34589 11.62963,-25.97551 25.97552,-25.97551z" fill="url(#color-38)" stroke="none" stroke-width="0" stroke-linecap="butt"/><path d="M204.85731,320.44453c4.77812,0 8.65153,3.87342 8.65153,8.65154c0,4.77812 -3.87342,8.65153 -8.65153,8.65153c-4.77812,0 -8.65154,-3.87342 -8.65154,-8.65153c0,-4.77812 3.87342,-8.65154 8.65154,-8.65154z" fill="url(#color-39)" stroke="none" stroke-width="0" stroke-linecap="butt"/><path d="M222.02286,320.71958c9.48028,0 17.16555,7.68527 17.16555,17.16555c0,9.48028 -7.68527,17.16555 -17.16555,17.16555c-9.48028,0 -17.16555,-7.68527 -17.16555,-17.16555c0,-9.48028 7.68527,-17.16555 17.16555,-17.16555z" fill="url(#color-40)" stroke="none" stroke-width="0" stroke-linecap="butt"/></g></g></svg>