<svg version="1.1" xmlns="http://www.w3.org/2000/svg" xmlns:xlink="http://www.w3.org/1999/xlink" width="620.57385" height="486.68989" viewBox="0,0,620.57385,486.68989"><defs><linearGradient x1="240.00003" y1="-2.97366" x2="240.00003" y2="363.61402" gradientUnits="userSpaceOnUse" id="color-1"><stop offset="0" stop-color="#d75a5a"/><stop offset="1" stop-color="#360000"/></linearGradient><linearGradient x1="236.24627" y1="-6.60991" x2="236.24627" y2="120.19104" gradientUnits="userSpaceOnUse" id="color-2"><stop offset="0" stop-color="#ffffff" stop-opacity="0.67843"/><stop offset="1" stop-color="#ffffff" stop-opacity="0"/></linearGradient><linearGradient x1="77.46247" y1="202.5966" x2="77.46247" y2="377.52152" gradientUnits="userSpaceOnUse" id="color-3"><stop offset="0" stop-color="#ff0000"/><stop offset="1" stop-color="#ff0000" stop-opacity="0"/></linearGradient><linearGradient x1="464.84985" y1="48.69269" x2="464.84985" y2="138.03203" gradientUnits="userSpaceOnUse" id="color-4"><stop offset="0" stop-color="#ff0000" stop-opacity="0"/><stop offset="1" stop-color="#ff0000"/></linearGradient><linearGradient x1="420.18019" y1="-14.37037" x2="420.18019" y2="50.19419" gradientUnits="userSpaceOnUse" id="color-5"><stop offset="0" stop-color="#ff0000" stop-opacity="0"/><stop offset="1" stop-color="#ff0000"/></linearGradient><linearGradient x1="66.95196" y1="-32.38839" x2="66.95196" y2="70.46446" gradientUnits="userSpaceOnUse" id="color-6"><stop offset="0" stop-color="#ff0000" stop-opacity="0"/><stop offset="1" stop-color="#ff0000"/></linearGradient><linearGradient x1="237.74775" y1="-20.37638" x2="237.74775" y2="367.01101" gradientUnits="userSpaceOnUse" id="color-7"><stop offset="0" stop-color="#a55757" stop-opacity="0.49412"/><stop offset="1" stop-color="#a66fca" stop-opacity="0.72549"/></linearGradient></defs><g transform="translate(86.05433,84.16837)"><g data-paper-data="{&quot;isPaintingLayer&quot;:true}" fill-rule="nonzero" stroke-linejoin="miter" stroke-miterlimit="10" stroke-dasharray="" stroke-dashoffset="0" style="mix-blend-mode: normal"><path d="M-21,363.61402v-366.58768c0,0 167.26493,-49.54955 248.23724,-49.54955c91.6916,0 273.76276,49.54955 273.76276,49.54955v366.58768z" fill="url(#color-1)" stroke="none" stroke-width="0" stroke-linecap="butt"/><path d="M-11.50149,120.19104v-126.80093c0,0 163.16924,-64.89159 246.24624,-64.89159c82.07604,0 249.24926,64.89159 249.24926,64.89159v126.80095z" fill="url(#color-2)" stroke="none" stroke-width="0" stroke-linecap="butt"/><path d="M359.36937,222.11611c0,-33.58488 27.22593,-60.81081 60.81081,-60.81081c33.58488,0 60.81081,27.22593 60.81081,60.81081c0,33.58488 -27.22593,60.81081 -60.81081,60.81081c-33.58488,0 -60.81081,-27.22593 -60.81081,-60.81081z" fill="none" stroke-opacity="0.50196" stroke="#ffffff" stroke-width="50" stroke-linecap="butt"/><path d="M155.16517,82.47647c0,-39.38968 31.93164,-71.32132 71.32132,-71.32132c39.38968,0 71.32132,31.93164 71.32132,71.32132c0,39.38968 -31.93164,71.32132 -71.32132,71.32132c-39.38968,0 -71.32132,-31.93164 -71.32132,-71.32132z" fill="none" stroke-opacity="0.28627" stroke="#ff0000" stroke-width="25" stroke-linecap="butt"/><path d="M168.67868,200.09918c0,-54.17299 43.91588,-98.08887 98.08887,-98.08887c54.17299,0 98.08887,43.91588 98.08887,98.08887c0,54.17299 -43.91588,98.08887 -98.08887,98.08887c-54.17299,0 -98.08887,-43.91588 -98.08887,-98.08887z" fill="none" stroke-opacity="0.29412" stroke="#ffffff" stroke-width="25" stroke-linecap="butt"/><path d="M261.2805,79.56915c0,-22.43486 18.18705,-40.62191 40.62191,-40.62191c22.43486,0 40.62191,18.18705 40.62191,40.62191c0,22.43486 -18.18705,40.62191 -40.62191,40.62191c-22.43486,0 -40.62191,-18.18705 -40.62191,-40.62191z" fill="none" stroke-opacity="0.50196" stroke="#ffffff" stroke-width="12.5" stroke-linecap="butt"/><path d="M44.05406,118.51251c0,-16.99976 13.78102,-30.78078 30.78078,-30.78078c16.99976,0 30.78078,13.78102 30.78078,30.78078c0,16.99976 -13.78102,30.78078 -30.78078,30.78078c-16.99976,0 -30.78078,-13.78102 -30.78078,-30.78078z" fill="none" stroke-opacity="0.50196" stroke="#ffffff" stroke-width="12.5" stroke-linecap="butt"/><path d="M218.22823,257.4014c0,-14.09736 11.42817,-25.52553 25.52553,-25.52553c14.09736,0 25.52553,11.42817 25.52553,25.52553c0,14.09736 -11.42817,25.52553 -25.52553,25.52553c-14.09736,0 -25.52553,-11.42817 -25.52553,-25.52553z" fill="none" stroke-opacity="0.50196" stroke="#ff0000" stroke-width="12.5" stroke-linecap="butt"/><path d="M132.64265,333.97798c0,-14.92661 12.10041,-27.02703 27.02703,-27.02703c14.92661,0 27.02703,12.10041 27.02703,27.02703c0,14.92661 -12.10041,27.02703 -27.02703,27.02703c-14.92661,0 -27.02703,-12.10041 -27.02703,-27.02703z" fill="none" stroke-opacity="0.50196" stroke="#ff0000" stroke-width="12.5" stroke-linecap="butt"/><path d="M315.82583,300.19419c0,-30.26786 24.53695,-54.8048 54.8048,-54.8048c30.26786,0 54.8048,24.53695 54.8048,54.8048c0,30.26786 -24.53695,54.8048 -54.8048,54.8048c-30.26786,0 -54.8048,-24.53695 -54.8048,-54.8048z" fill="none" stroke-opacity="0.50196" stroke="#ff0000" stroke-width="12.5" stroke-linecap="butt"/><path d="M380.3904,77.22122c0,-12.43885 10.08368,-22.52252 22.52252,-22.52252c12.43885,0 22.52252,10.08368 22.52252,22.52252c0,12.43885 -10.08368,22.52252 -22.52252,22.52252c-12.43885,0 -22.52252,-10.08368 -22.52252,-22.52252z" fill="none" stroke-opacity="0.50196" stroke="#ff0000" stroke-width="12.5" stroke-linecap="butt"/><path d="M-9.99999,377.52152l174.92493,-174.92492" fill="none" stroke="url(#color-3)" stroke-width="50" stroke-linecap="round"/><path d="M59.81983,210.1041l-105.85586,105.85586" fill="none" stroke-opacity="0.50196" stroke="#ff0000" stroke-width="25" stroke-linecap="round"/><path d="M374.38439,230.37437l-60.06006,-60.06006" fill="none" stroke-opacity="0.28627" stroke="#ff0000" stroke-width="25" stroke-linecap="round"/><path d="M494.50451,216.86086l-33.78378,-33.78378" fill="none" stroke-opacity="0.50196" stroke="#ff0000" stroke-width="25" stroke-linecap="round"/><path d="M146.15616,288.93293l89.33934,89.33934" fill="none" stroke-opacity="0.28627" stroke="#ff0000" stroke-width="25" stroke-linecap="round"/><path d="M335.34535,-26.38238l59.30931,59.30931" fill="none" stroke-opacity="0.50196" stroke="#ff0000" stroke-width="25" stroke-linecap="round"/><path d="M24.53454,53.1972l80.33033,-80.33033" fill="none" stroke-opacity="0.50196" stroke="#ff0000" stroke-width="25" stroke-linecap="round"/><path d="M509.51952,48.69269l-89.33934,89.33934" fill="none" stroke="url(#color-4)" stroke-width="50" stroke-linecap="round"/><path d="M452.46247,-14.37037l-64.56456,64.56456" fill="none" stroke="url(#color-5)" stroke-width="50" stroke-linecap="round"/><path d="M15.52553,-32.38839l102.85285,102.85285" fill="none" stroke="url(#color-6)" stroke-width="50" stroke-linecap="round"/><path d="M-73.55433,26.4205c0,-54.17298 43.91589,-98.08887 98.08887,-98.08887c54.17298,0 98.08887,43.91589 98.08887,98.08887c0,54.17298 -43.91588,98.08887 -98.08887,98.08887c-54.17298,0 -98.08887,-43.91589 -98.08887,-98.08887z" fill="none" stroke-opacity="0.50196" stroke="#ffffff" stroke-width="25" stroke-linecap="butt"/><path d="M-5.35191,306.83505c0,-39.38968 31.93164,-71.32132 71.32132,-71.32132c39.38968,0 71.32132,31.93164 71.32132,71.32132c0,39.38968 -31.93164,71.32132 -71.32132,71.32132c-39.38968,0 -71.32132,-31.93164 -71.32132,-71.32132z" fill="none" stroke-opacity="0.50196" stroke="#ffffff" stroke-width="25" stroke-linecap="butt"/><path d="M-19.009,367.01101v-387.38739h513.51351v387.38739z" fill="url(#color-7)" stroke="none" stroke-width="0" stroke-linecap="butt"/></g></g></svg>