<svg version="1.1" xmlns="http://www.w3.org/2000/svg" xmlns:xlink="http://www.w3.org/1999/xlink" width="526.43897" height="398.28131" viewBox="0,0,526.43897,398.28131"><defs><linearGradient x1="-15.93351" y1="34.52015" x2="63.37661" y2="34.52015" gradientUnits="userSpaceOnUse" id="color-1"><stop offset="0" stop-color="#428e26"/><stop offset="1" stop-color="#3ae300"/></linearGradient><linearGradient x1="-14.52961" y1="34.17515" x2="59.74007" y2="34.17515" gradientUnits="userSpaceOnUse" id="color-2"><stop offset="0" stop-color="#1bc400"/><stop offset="1" stop-color="#80f15a"/></linearGradient><linearGradient x1="22.81551" y1="8.09473" x2="22.81551" y2="63.73281" gradientUnits="userSpaceOnUse" id="color-3"><stop offset="0" stop-color="#10b300"/><stop offset="1" stop-color="#44ff00"/></linearGradient><linearGradient x1="-0.24584" y1="126.5611" x2="93.95487" y2="126.5611" gradientUnits="userSpaceOnUse" id="color-4"><stop offset="0" stop-color="#3ae200"/><stop offset="1" stop-color="#428e26"/></linearGradient><linearGradient x1="47.22293" y1="56.94586" x2="191.3719" y2="56.94586" gradientUnits="userSpaceOnUse" id="color-5"><stop offset="0" stop-color="#3bab12"/><stop offset="1" stop-color="#38d300"/></linearGradient><linearGradient x1="119.64326" y1="-1.70028" x2="119.64326" y2="109.01102" gradientUnits="userSpaceOnUse" id="color-6"><stop offset="0" stop-color="#b1ff3d"/><stop offset="1" stop-color="#54de22"/></linearGradient><linearGradient x1="50.30688" y1="20.70314" x2="189.83094" y2="20.70314" gradientUnits="userSpaceOnUse" id="color-7"><stop offset="0" stop-color="#95f535"/><stop offset="1" stop-color="#d3ffc5"/></linearGradient><linearGradient x1="67.69427" y1="79.84725" x2="189.81956" y2="79.84725" gradientUnits="userSpaceOnUse" id="color-8"><stop offset="0" stop-color="#22bf00"/><stop offset="1" stop-color="#73e521"/></linearGradient><linearGradient x1="130.21002" y1="68.29456" x2="147.34643" y2="68.29456" gradientUnits="userSpaceOnUse" id="color-9"><stop offset="0" stop-color="#26471a"/><stop offset="1" stop-color="#97f635"/></linearGradient><linearGradient x1="110.6559" y1="47.0645" x2="124.23929" y2="47.0645" gradientUnits="userSpaceOnUse" id="color-10"><stop offset="0" stop-color="#26471a"/><stop offset="1" stop-color="#97f635"/></linearGradient><linearGradient x1="51.39496" y1="114.52341" x2="51.39496" y2="152.44644" gradientUnits="userSpaceOnUse" id="color-11"><stop offset="0" stop-color="#10b300"/><stop offset="1" stop-color="#44ff00"/></linearGradient><linearGradient x1="-2.51891" y1="295.82128" x2="108.59221" y2="295.82128" gradientUnits="userSpaceOnUse" id="color-12"><stop offset="0" stop-color="#ff395a" stop-opacity="0"/><stop offset="1" stop-color="#ff395a"/></linearGradient><linearGradient x1="166.98109" y1="342.32128" x2="278.0922" y2="342.32128" gradientUnits="userSpaceOnUse" id="color-13"><stop offset="0" stop-color="#ff395a" stop-opacity="0"/><stop offset="1" stop-color="#ff395a"/></linearGradient><linearGradient x1="490.67874" y1="336.7795" x2="429.69198" y2="249.34053" gradientUnits="userSpaceOnUse" id="color-14"><stop offset="0" stop-color="#44ff00" stop-opacity="0"/><stop offset="1" stop-color="#44ff00"/></linearGradient><linearGradient x1="99.27348" y1="209.90319" x2="14.74276" y2="230.84877" gradientUnits="userSpaceOnUse" id="color-15"><stop offset="0" stop-color="#ff395a" stop-opacity="0"/><stop offset="1" stop-color="#ff395a"/></linearGradient></defs><g transform="translate(15.93351,3.40748)"><g data-paper-data="{&quot;isPaintingLayer&quot;:true}" fill-rule="nonzero" stroke-linejoin="miter" stroke-miterlimit="10" stroke-dasharray="" stroke-dashoffset="0" style="mix-blend-mode: normal"><path d="M-15.86062,8.31552c0,0 23.0437,-11.18173 44.64378,1.22875c9.72405,5.58701 13.52805,25.21741 19.58827,33.38272c6.3827,8.5998 15.00518,5.06747 15.00518,5.06747l-2.03077,10.70723c0,0 -32.5273,15.59626 -58.27292,-0.98871c-21.23307,-13.67807 -18.93354,-49.39744 -18.93354,-49.39744z" fill="url(#color-1)" stroke="none" stroke-width="0" stroke-linecap="butt"/><path d="M-14.51714,9.60296c0,0 21.8197,-10.97853 42.06222,0.65196c9.11288,5.23586 12.67783,23.63249 18.35717,31.28461c5.98154,8.05931 13.83782,5.24853 13.83782,5.24853l-1.40359,10.25859c0,0 -29.98341,14.84036 -54.11091,-0.70227c-19.89858,-12.81841 -18.74266,-46.74141 -18.74266,-46.74141z" fill="url(#color-2)" stroke="none" stroke-width="0" stroke-linecap="butt"/><path d="M-15.28953,9.89669c0,0 19.78798,-6.22696 32.33565,4.47022c12.179,10.38288 15.31648,35.61866 42.94267,37.506c4.16469,0.28451 -7.07626,5.65876 -2.39858,5.27634l-0.02616,0.19112c0,0 -29.9834,14.84033 -54.11091,-0.70228c-19.89858,-12.81839 -18.74267,-46.74141 -18.74267,-46.74141z" fill="url(#color-3)" stroke="none" stroke-width="0" stroke-linecap="butt"/><path d="M-0.24584,114.16343c0,0 1.52754,-1.53892 7.22408,-3.92189c7.38644,-3.08988 17.77131,-14.01624 29.61401,-11.89952c23.00848,4.11244 15.47779,7.62664 30.28832,13.95616c6.44115,2.75274 9.56942,-6.45499 10.17672,-6.47509c6.50571,-0.21541 16.89758,4.71447 16.89758,4.71447c0,0 -4.44104,27.23798 -37.83332,41.60538c-10.89563,4.68798 -19.73456,2.84864 -27.00216,0.4493c-22.76015,-7.51402 -29.36518,-38.42881 -29.36518,-38.42881z" fill="url(#color-4)" stroke="none" stroke-width="0" stroke-linecap="butt"/><path d="M3.30081,114.98628c0,0 1.41105,-1.42156 6.67323,-3.62284c6.82322,-2.85428 16.41625,-12.94749 27.35592,-10.99218c21.25407,3.79887 17.5803,8.51905 31.26151,14.36596c5.95003,2.54283 9.34889,-5.33973 9.90988,-5.3583c6.00964,-0.199 13.60602,2.66668 13.60602,2.66668c0,0 -5.89115,24.75236 -36.73727,38.02423c-10.06482,4.3305 -18.22978,2.63142 -24.94322,0.41505c-21.02467,-6.94108 -27.12607,-35.49859 -27.12607,-35.49859z" fill="#77de52" stroke="none" stroke-width="0" stroke-linecap="butt"/><path d="M56.45217,34.78067c0,0 24.51475,0.65459 25.6504,0.20496c3.957,-1.56667 13.67974,-7.25596 13.59042,-7.52154c-10.80761,-32.13527 5.83577,-30.86475 5.83577,-30.86475c0,0 50.76333,6.14184 79.20962,20.45095c5.88644,2.961 10.13582,9.11596 10.31899,11.02332c2.72442,28.37072 -13.14622,74.62183 -13.14622,74.62183c0,0 -3.94008,14.52242 -36.67021,-11.83987c-1.35222,-1.08913 -21.22133,-4.36284 -43.07003,23.83305c-19.90695,7.15627 -29.04747,-2.31845 -32.54189,-5.59379c-1.56924,-1.47084 5.22879,-17.42015 4.91022,-17.52957c-9.20405,-3.16154 -16.18423,-4.1262 -16.80505,-6.48188c-0.44749,-1.69803 7.98199,-10.83007 7.65716,-12.4552c-0.25657,-1.28361 -14.10837,-1.3914 -14.16037,-2.61917c-0.32216,-7.60719 9.12825,-17.55513 8.75805,-18.58757c-0.87789,-2.44823 -8.46465,-3.53773 -8.44098,-3.70246c1.28766,-8.95818 8.90413,-12.93825 8.90413,-12.93825z" fill="url(#color-5)" stroke="none" stroke-width="NaN" stroke-linecap="butt"/><path d="M58.21212,36.86014c0,0 23.13926,-0.2039 24.21276,-0.62892c3.7405,-1.48096 16.03692,-7.48276 15.95251,-7.73382c-10.21631,-30.37709 2.34234,-30.19765 2.34234,-30.19765c0,0 52.28446,6.12128 79.1744,19.64749c5.56437,2.79901 9.73211,8.2813 9.90525,10.08428c2.57537,26.8185 -13.3662,71.73198 -13.3662,71.73198c0,0 -2.86759,14.51629 -33.80699,-10.40367c-1.27823,-1.02955 -23.82396,-7.42866 -49.31726,13.82219c-6.51184,5.42818 -22.11099,7.47501 -25.41424,4.37888c-1.48338,-1.39037 5.76541,-16.50133 5.46427,-16.60477c-8.70049,-2.98856 -16.79331,-4.16786 -17.38016,-6.39464c-0.42302,-1.60514 8.9713,-11.61549 8.66424,-13.1517c-0.24254,-1.21339 -14.79675,-0.76001 -14.8459,-1.92059c-0.30454,-7.191 9.75317,-17.30079 9.40322,-18.27673c-0.82986,-2.31428 -10.01709,-4.24916 -9.99471,-4.40488c1.2172,-8.46806 9.00651,-9.94741 9.00651,-9.94741z" fill="url(#color-6)" stroke="none" stroke-width="NaN" stroke-linecap="butt"/><path d="M58.21212,36.86014c0,0 23.13926,-0.2039 24.21276,-0.62892c3.7405,-1.48096 16.03692,-7.48276 15.95251,-7.73382c-10.21631,-30.37709 2.34234,-30.19765 2.34234,-30.19765c0,0 52.28446,6.12128 79.1744,19.64749c1.9985,1.00528 8.15016,6.02337 9.66796,10.0928c0.72225,1.93645 -0.23942,12.69326 -0.23942,12.69326c0,0 -2.28317,-8.99414 -9.08428,-15.10918c-7.65228,-6.88035 -20.13756,-11.00241 -24.47637,-11.61658c-28.33362,-4.01074 -57.79907,-1.30926 -57.79907,-1.30926c0,0 -0.03492,7.94737 2.09673,10.35182c0.56817,0.64087 2.90067,3.09885 2.80862,3.98773c-0.31319,3.02405 -8.90076,6.72375 -11.78061,7.62183c-4.24583,1.32405 -9.8876,4.95678 -14.65381,4.78872c-9.36116,-0.33008 -18.56251,-0.43481 -26.12701,3.65818c2.51246,-5.22217 7.90525,-6.24639 7.90525,-6.24639z" fill="url(#color-7)" stroke="none" stroke-width="NaN" stroke-linecap="butt"/><path d="M176.43316,99.7635c0,0 -2.86759,14.51631 -33.80699,-10.40367c-1.27823,-1.02955 -22.72161,-6.07968 -46.14815,22.93136c-1.97129,0.98044 -3.33558,1.65615 -5.13319,2.12089c-0.61918,0.16008 -1.09733,3.42561 -1.69525,3.5325c-6.23674,1.11503 -9.43329,-2.44823 -15.02847,-5.42046c-3.18112,-1.68987 -5.45782,-3.77415 -6.72645,-4.96322c-0.91264,-0.85541 1.48004,-6.90433 3.38621,-11.45655c6.82233,-1.87346 13.32013,-4.4277 18.00668,-6.40203c11.76386,-4.95583 21.35428,-13.67822 33.45868,-18.02732c7.08551,-2.54581 22.33555,3.42477 30.40221,1.15127c16.01781,-4.51446 27.70268,-17.29795 36.67112,-31.64609c-1.88956,26.19237 -13.38639,58.58332 -13.38639,58.58332z" fill="url(#color-8)" stroke="none" stroke-width="NaN" stroke-linecap="butt"/><path d="M109.71406,57.46817c0,0 -19.24327,-1.604 -16.47461,-15.64983c4.5626,-23.14671 23.58537,-13.65566 23.58537,-13.65566c0,0 -4.85254,18.07953 1.98841,25.60873c6.31069,6.94555 31.62488,9.7795 31.62488,9.7795c0,0 1.39348,28.25047 -26.023,21.09236c-19.89019,-5.19309 -14.70104,-27.1751 -14.70104,-27.1751z" fill="#000000" stroke="none" stroke-width="0" stroke-linecap="butt"/><path d="M110.96111,56.49461c0,0 -17.86575,-1.48919 -15.29528,-14.52954c4.23597,-21.48976 21.36848,-13.70832 21.36848,-13.70832c0,0 6.39274,14.14613 12.74398,21.13634c5.85894,6.44835 20.58406,14.05851 20.58406,14.05851c0,0 0.41843,24.64583 -25.03547,18.00013c-18.46635,-4.82134 -14.36577,-24.9571 -14.36577,-24.9571z" fill="#ffffff" stroke="none" stroke-width="0" stroke-linecap="butt"/><path d="M125.32686,81.45171c-4.38259,-1.14424 -7.49412,-3.15109 -9.69105,-5.54663c3.41407,-1.83717 7.02444,-3.5729 10.00817,-4.41486c7.7319,-2.1818 15.25982,-0.20025 22.82647,1.26569c-2.58532,6.16055 -8.69798,12.46736 -23.14361,8.69578z" fill="#e6e6e6" stroke="none" stroke-width="0" stroke-linecap="butt"/><path d="M148.86605,73.67093c-2.64371,5.88792 -9.5202,8.53572 -15.35906,5.91403c-5.83885,-2.62168 -8.42901,-9.52008 -5.78529,-15.40799c1.56506,-3.4856 4.6135,-5.83569 8.05193,-6.62925c0.14247,-0.03287 3.03318,2.34184 6.27454,4.32068c3.54177,2.16224 7.45581,3.95521 7.51103,4.17842c0.60745,2.45479 0.42668,5.13011 -0.69314,7.62412z" fill="#000000" stroke="none" stroke-width="0" stroke-linecap="butt"/><path d="M146.60607,71.80932c-1.92133,4.27907 -6.98352,6.17435 -11.30672,4.2332c-4.32318,-1.94114 -6.27029,-6.98364 -4.34895,-11.26271c1.41324,-3.14746 4.52577,-5.00522 7.79358,-4.99519c0.05572,0.00017 1.99338,1.30765 3.92377,2.4735c1.83005,1.10527 3.659,2.0711 3.67797,2.10682c1.1887,2.23817 1.3718,4.96899 0.26035,7.44435z" fill="url(#color-9)" stroke="none" stroke-width="0" stroke-linecap="butt"/><path d="M145.52822,73.80795c-1.05781,2.35588 -3.79824,3.42027 -6.12094,2.37736c-2.3227,-1.04291 -3.34808,-3.79818 -2.29028,-6.15406c1.05781,-2.35588 3.79826,-3.42027 6.12095,-2.37737c2.3227,1.04292 3.34808,3.79819 2.29027,6.15407z" fill="#000000" stroke="none" stroke-width="0" stroke-linecap="butt"/><path d="M146.10347,69.58572c-0.41308,0.91998 -1.46392,1.34431 -2.34711,0.94775c-0.88318,-0.39656 -1.26428,-1.46384 -0.8512,-2.38382c0.41308,-0.91998 1.46391,-1.34432 2.34711,-0.94776c0.88318,0.39655 1.26428,1.46385 0.8512,2.38382z" fill="#ffffff" stroke="none" stroke-width="0" stroke-linecap="butt"/><path d="M122.46687,54.66258c-4.08871,3.11736 -9.90929,2.35757 -13.00069,-1.69707c-3.0914,-4.05461 -2.2829,-9.86868 1.8058,-12.98604c2.42047,-1.84546 5.44791,-2.33213 8.15677,-1.58087c0.11224,0.03113 1.23347,2.79234 2.75068,5.40969c1.65781,2.8599 3.71661,5.60278 3.67043,5.78007c-0.50772,1.94949 -1.65108,3.75379 -3.38298,5.07423z" fill="#000000" stroke="none" stroke-width="0" stroke-linecap="butt"/><path d="M121.59221,52.50031c-2.97149,2.26557 -7.23589,1.66847 -9.52482,-1.33365c-2.2889,-3.00212 -1.7356,-7.27242 1.23589,-9.53798c2.18566,-1.66644 5.07084,-1.78406 7.35485,-0.53504c0.03894,0.0213 0.8986,1.67311 1.80695,3.22301c0.86115,1.46934 1.77451,2.84068 1.77421,2.8729c-0.01842,2.01873 -0.92817,4.0002 -2.64711,5.31078z" fill="url(#color-10)" stroke="none" stroke-width="0" stroke-linecap="butt"/><path d="M121.49031,53.28546c-1.63598,1.24732 -3.95912,0.95093 -5.18887,-0.66199c-1.22976,-1.61293 -0.90045,-3.93162 0.73553,-5.17895c1.63598,-1.24732 3.95912,-0.95096 5.18888,0.66199c1.22976,1.61293 0.90046,3.93165 -0.73552,5.17897z" fill="#000000" stroke="none" stroke-width="0" stroke-linecap="butt"/><path d="M123.28461,50.11197c-0.63886,0.48709 -1.53583,0.38477 -2.00342,-0.22853c-0.46759,-0.6133 -0.32877,-1.50535 0.31009,-1.99244c0.63886,-0.48709 1.53583,-0.38476 2.00342,0.22854c0.46759,0.6133 0.32877,1.50535 -0.31009,1.99244z" fill="#ffffff" stroke="none" stroke-width="0" stroke-linecap="butt"/><path d="M91.10462,114.52341c0,0 -5.00588,21.96556 -35.85198,35.23743c-10.06484,4.3305 -18.22978,2.63143 -24.94322,0.41505c-8.40525,-2.77491 -14.42539,-9.00463 -18.62412,-15.48335c1.69398,0.25966 3.41546,0.47986 5.17729,0.68302c21.57207,2.48745 51.75233,-1.34462 65.95927,-19.95765c3.26149,0.5763 8.28276,-0.8945 8.28276,-0.8945z" fill="url(#color-11)" stroke="none" stroke-width="0" stroke-linecap="butt"/><path d="M162.36843,227.66421c-4.06875,4.92389 -13.26802,5.08292 -20.54714,0.35519c-7.27912,-4.72773 -9.88164,-12.55192 -5.81289,-17.47581c4.06875,-4.92389 13.26802,-5.08292 20.54714,-0.35519c7.27912,4.72773 9.88163,12.55192 5.81288,17.47581z" fill="#919191" stroke="#ff4a68" stroke-width="0" stroke-linecap="butt"/><g stroke="none" stroke-width="0" stroke-linecap="butt"><path d="M108.59221,295.82128c0,29.02397 -24.87307,52.55255 -55.55556,52.55255c-30.68249,0 -55.55556,-23.52858 -55.55556,-52.55255c0,-29.02397 24.87307,-52.55255 55.55556,-52.55255c30.68249,0 55.55556,23.52858 55.55556,52.55255z" fill="url(#color-12)"/><path d="M278.0922,342.32128c0,29.02397 -24.87307,52.55255 -55.55556,52.55255c-30.68249,0 -55.55556,-23.52858 -55.55556,-52.55255c0,-29.02397 24.87307,-52.55255 55.55556,-52.55255c30.68249,0 55.55556,23.52858 55.55556,52.55255z" fill="url(#color-13)"/><path d="M429.69198,249.34053c22.10513,-15.41786 53.67725,-8.34263 70.5183,15.80297c16.84105,24.1456 12.57367,56.21813 -9.53146,71.636c-22.10513,15.41786 -53.67725,8.34263 -70.5183,-15.80297c-16.84105,-24.1456 -12.57367,-56.21813 9.53146,-71.636z" fill="url(#color-14)"/><path d="M14.74276,230.84877c-5.47132,-22.08076 9.01615,-44.66958 32.35867,-50.45354c19.34914,-4.79445 38.70907,3.46287 47.88312,19.00486c1.89339,3.20764 3.35292,6.72557 4.28894,10.5031c5.47132,22.08076 -9.01615,44.66958 -32.35867,50.45354c-23.34252,5.78396 -46.70074,-7.42721 -52.17205,-29.50796z" fill="url(#color-15)"/></g><path d="M150.48598,65.36751c0,0 -13.97333,-7.27953 -22.53623,-15.82991c-7.72074,-7.70945 -11.06377,-21.57009 -11.06377,-21.57009" fill="none" stroke="#000000" stroke-width="3.5" stroke-linecap="round"/></g></g></svg>