<svg version="1.1" xmlns="http://www.w3.org/2000/svg" xmlns:xlink="http://www.w3.org/1999/xlink" width="503.00302" height="315.58958" viewBox="0,0,503.00302,315.58958"><defs><linearGradient x1="181.01592" y1="114.64978" x2="331.93735" y2="126.82086" gradientUnits="userSpaceOnUse" id="color-1"><stop offset="0" stop-color="#ffadbb"/><stop offset="1" stop-color="#ffadbb" stop-opacity="0"/></linearGradient><linearGradient x1="153.49335" y1="106.64677" x2="304.41481" y2="118.81786" gradientUnits="userSpaceOnUse" id="color-2"><stop offset="0" stop-color="#ffadbb" stop-opacity="0"/><stop offset="1" stop-color="#ffadbb"/></linearGradient><linearGradient x1="37.1414" y1="86.55536" x2="302.88726" y2="99.47765" gradientUnits="userSpaceOnUse" id="color-3"><stop offset="0" stop-color="#ffadbb"/><stop offset="1" stop-color="#ffadbb" stop-opacity="0"/></linearGradient><linearGradient x1="361.08625" y1="289.30625" x2="361.08625" y2="383.90085" gradientUnits="userSpaceOnUse" id="color-4"><stop offset="0" stop-color="#f01515"/><stop offset="1" stop-color="#f05959" stop-opacity="0.33333"/></linearGradient><linearGradient x1="98.81899" y1="219.23118" x2="98.81899" y2="279.15412" gradientUnits="userSpaceOnUse" id="color-5"><stop offset="0" stop-color="#5ff02a"/><stop offset="1" stop-color="#81f059" stop-opacity="0.33333"/></linearGradient><linearGradient x1="155.38052" y1="238.25519" x2="155.38052" y2="352.36932" gradientUnits="userSpaceOnUse" id="color-6"><stop offset="0" stop-color="#5ff02a"/><stop offset="1" stop-color="#81f059" stop-opacity="0.33333"/></linearGradient><linearGradient x1="-7.71783" y1="119.93252" x2="375.536" y2="159.88118" gradientUnits="userSpaceOnUse" id="color-7"><stop offset="0" stop-color="#80ef58"/><stop offset="1" stop-color="#80ef58" stop-opacity="0"/></linearGradient><linearGradient x1="244.5184" y1="115.50919" x2="368.08252" y2="115.50919" gradientUnits="userSpaceOnUse" id="color-8"><stop offset="0" stop-color="#f09aab"/><stop offset="1" stop-color="#f09aab" stop-opacity="0"/></linearGradient><linearGradient x1="278.41776" y1="95.33361" x2="277.61681" y2="110.39785" gradientUnits="userSpaceOnUse" id="color-9"><stop offset="0" stop-color="#c24860"/><stop offset="1" stop-color="#c24860" stop-opacity="0"/></linearGradient><linearGradient x1="278.35096" y1="87.64847" x2="284.47328" y2="90.74299" gradientUnits="userSpaceOnUse" id="color-10"><stop offset="0" stop-color="#eaeaea"/><stop offset="1" stop-color="#f1f1f1"/></linearGradient><linearGradient x1="278.12316" y1="87.80636" x2="283.72999" y2="90.64032" gradientUnits="userSpaceOnUse" id="color-11"><stop offset="0" stop-color="#f3f3f3"/><stop offset="1" stop-color="#f4f4f4"/></linearGradient><linearGradient x1="335.04884" y1="75.56127" x2="349.54891" y2="75.56127" gradientUnits="userSpaceOnUse" id="color-12"><stop offset="0" stop-color="#acff90"/><stop offset="1" stop-color="#80ef58"/></linearGradient><linearGradient x1="334.74762" y1="87.25283" x2="339.90565" y2="87.25283" gradientUnits="userSpaceOnUse" id="color-13"><stop offset="0" stop-color="#848484"/><stop offset="1" stop-color="#3e3e3e"/></linearGradient><linearGradient x1="228.33625" y1="221.80625" x2="228.33625" y2="272.90085" gradientUnits="userSpaceOnUse" id="color-14"><stop offset="0" stop-color="#f01515"/><stop offset="1" stop-color="#f05959" stop-opacity="0.33333"/></linearGradient><linearGradient x1="276.08625" y1="246.80624" x2="276.08625" y2="285.90085" gradientUnits="userSpaceOnUse" id="color-15"><stop offset="0" stop-color="#f01515"/><stop offset="1" stop-color="#f05959" stop-opacity="0.33333"/></linearGradient><linearGradient x1="244.83625" y1="208.80624" x2="244.83625" y2="219.90084" gradientUnits="userSpaceOnUse" id="color-16"><stop offset="0" stop-color="#f05959"/><stop offset="1" stop-color="#f05959" stop-opacity="0.33333"/></linearGradient></defs><g transform="translate(9.03389,-68.31127)"><g data-paper-data="{&quot;isPaintingLayer&quot;:true}" fill-rule="nonzero" stroke-linejoin="miter" stroke-miterlimit="10" stroke-dasharray="" stroke-dashoffset="0" style="mix-blend-mode: normal"><g stroke="none" stroke-width="0" stroke-linecap="butt"><path d="M331.93735,126.82086c-0.40064,4.96798 -34.51036,6.27074 -76.18618,2.90978c-41.67582,-3.36095 -75.13596,-10.11288 -74.73531,-15.08086c0.40064,-4.96798 34.51035,-6.27074 76.18617,-2.90978c41.67582,3.36096 75.13596,10.11289 74.73532,15.08087z" fill="url(#color-1)"/><path d="M304.41481,118.81786c-0.40064,4.96798 -34.51036,6.27073 -76.18618,2.90978c-41.67582,-3.36095 -75.13596,-10.11289 -74.73532,-15.08087c0.40064,-4.96798 34.51036,-6.27073 76.18618,-2.90978c41.67582,3.36095 75.13596,10.11289 74.73532,15.08087z" fill="url(#color-2)"/></g><path d="M302.88726,99.47765c-0.89042,3.34353 -61.10146,3.16125 -134.48513,-0.40714c-73.38367,-3.56839 -132.15107,-9.17161 -131.26066,-12.51514c0.89042,-3.34353 61.10146,-3.16125 134.48513,0.40714c73.38368,3.56839 132.15107,9.17161 131.26066,12.51514z" fill="url(#color-3)" stroke="none" stroke-width="0" stroke-linecap="butt"/><path d="M493.96913,336.60355c0,26.12158 -59.49369,47.2973 -132.88288,47.2973c-73.38919,0 -132.88288,-21.17572 -132.88288,-47.2973c0,-26.12158 59.49369,-47.2973 132.88288,-47.2973c73.38919,0 132.88288,21.17572 132.88288,47.2973z" fill="url(#color-4)" stroke="none" stroke-width="0" stroke-linecap="butt"/><path d="M185.15532,249.19264c0,16.54726 -38.65409,29.96147 -86.33634,29.96147c-47.68224,0 -86.33633,-13.41421 -86.33633,-29.96147c0,-16.54726 38.65409,-29.96147 86.33633,-29.96147c47.68224,0 86.33634,13.41421 86.33634,29.96147z" fill="url(#color-5)" stroke="none" stroke-width="0" stroke-linecap="butt"/><path d="M319.79492,295.31226c0,31.51174 -73.61084,57.05706 -164.41441,57.05706c-90.80357,0 -164.41441,-25.54531 -164.41441,-57.05706c0,-31.51174 73.61084,-57.05706 164.41441,-57.05706c90.80357,0 164.41441,25.54531 164.41441,57.05706z" fill="url(#color-6)" stroke="none" stroke-width="0" stroke-linecap="butt"/><path d="M375.536,159.88118c-2.52545,14.74778 -90.36701,17.7604 -196.19961,6.72888c-105.8326,-11.03152 -189.57959,-31.92977 -187.05414,-46.67755c2.52545,-14.74778 90.36701,-17.7604 196.19961,-6.72888c105.8326,11.03152 189.57959,31.92977 187.05414,46.67755z" fill="url(#color-7)" stroke="none" stroke-width="0" stroke-linecap="butt"/><g><path d="M248.2491,96.50919c0,0 -5.11914,-5.49676 -3.31099,-10.52568c1.74517,-4.85376 13.47766,-8.64099 13.47766,-8.64099c0,0 27.21567,7.66853 57.3199,25.52817c26.69298,15.83589 52.34676,41.47183 52.34676,41.47183l-0.33333,14.33334c0,0 -28.10327,-25.59281 -55.68812,-36.95458c-33.64051,-13.856 -63.81188,-25.21209 -63.81188,-25.21209z" fill="url(#color-8)" stroke="none" stroke-width="0" stroke-linecap="butt"/><path d="M290.93897,90.29951c0,0 -6.96294,4.8145 -12.33468,2.36638c-6.51337,-2.9684 -7.4401,-11.2605 -7.4401,-11.2605l1.96359,-1.67713c0,0 0.46898,2.02746 2.96638,2.19649c2.37122,0.16051 6.7122,-1.57078 9.03912,-0.3641c5.16881,2.6804 5.8057,8.73887 5.8057,8.73887z" data-paper-data="{&quot;index&quot;:null}" fill="#f25a76" stroke="none" stroke-width="0" stroke-linecap="butt"/><path d="M290.98143,90.50119c0,0 -6.96294,4.81449 -12.33468,2.36637c-6.51337,-2.96841 -7.4401,-11.26049 -7.4401,-11.26049l0.03659,-0.03124c0.55018,1.03315 0.16297,-2.05007 0.78396,-1.21446c4.11935,5.54297 9.83791,2.80025 13.65816,3.95667c3.93589,1.19142 5.29607,6.18315 5.29607,6.18315z" data-paper-data="{&quot;index&quot;:null}" fill="#ffffff" stroke="none" stroke-width="0" stroke-linecap="butt"/><path d="M278.64671,92.86757c-5.5246,-2.51779 -7.02999,-8.86563 -7.35973,-10.73486c2.51684,2.05839 7.31816,2.6233 10.06645,2.77068c1.49953,0.08041 3.02303,-0.041 4.4346,0.72154c1.51273,0.81718 3.48723,3.75054 4.3652,5.12129c0.03985,0.06221 0.0782,0.13056 0.11562,0.20376c-1.90828,1.1352 -7.28408,3.89464 -11.62214,1.91761z" data-paper-data="{&quot;index&quot;:null}" fill="#f7f7f7" stroke="none" stroke-width="0" stroke-linecap="butt"/><path d="M287.82939,105.64748c0,0 -4.61136,5.63716 -10.066,4.77773c-1.74174,-0.27443 -3.74635,-0.82919 -5.48438,-2.93791c-5.3266,-6.46269 -3.80902,-12.62425 -3.80902,-12.62425c0,0 2.01163,0.23117 3.3217,0.96096c0.1223,0.06812 -0.02328,2.20406 1.5864,2.31898c3.70122,0.26426 3.42502,-1.20171 8.57204,0.38076c2.64922,0.81452 3.62511,4.14742 4.81266,5.55891c0.91586,1.08857 1.0666,1.56482 1.0666,1.56482z" fill="#de526e" stroke="none" stroke-width="0" stroke-linecap="butt"/><path d="M270.72641,78.44876c0,0 1.96418,-0.22815 2.88471,1.6967c0.01693,0.03539 -2.02564,1.18032 -2.05075,1.79298c-0.01059,0.25836 3.13642,1.91539 3.59963,3.64965c0.07476,0.27989 -3.42314,1.2562 -3.39048,1.56307c0.04136,0.38851 3.02306,2.0713 3.04195,2.48486c0.02621,0.57372 -1.81216,1.45729 -3.66038,2.81676c-0.06397,0.04706 2.78703,3.1037 2.53754,3.54513c-0.55558,0.983 -4.42089,1.65788 -6.37518,0.85098c-7.65087,-3.15891 -12.5404,0.04371 -12.76794,0.38398c-5.50764,8.23615 -7.27156,4.99467 -7.27156,4.99467c0,0 -7.14016,-9.50253 -8.52501,-16.0776c-0.09311,-0.44204 0.49048,-2.05738 1.60637,-3.1381c5.39258,-5.2226 17.38109,-10.57447 17.38109,-10.57447c0,0 2.97578,-0.97826 2.80707,7.01301c-0.00139,0.06605 3.37245,0.57854 4.37307,0.65239c0.28717,0.02119 5.80986,-1.65403 5.80986,-1.65403z" fill="#f05977" stroke="none" stroke-width="NaN" stroke-linecap="butt"/><path d="M270.72641,78.44876c0,0 1.35986,-0.15796 2.34689,0.89784c-2.10537,-0.41068 -4.28763,0.2997 -6.49114,1.07562c-1.12191,0.39506 -2.73535,-0.0493 -3.84456,-0.04815c-0.75235,0.00078 -3.07193,-0.24008 -3.37175,-0.93652c-0.08812,-0.20471 0.28394,-0.96351 0.37143,-1.15837c0.32824,-0.73109 0.15702,-1.87759 -0.2721,-2.62008c-0.1958,-0.33878 -0.19902,-0.90097 -0.56966,-1.0264c-0.88614,-0.29986 -1.78312,-0.56936 -2.68779,-0.80754c-0.47798,-0.12584 -1.264,0.71172 -1.69562,1.01641c-1.1384,0.80363 -2.6212,0.98535 -3.74061,1.74478c-0.25802,0.17504 -0.83662,0.73905 -1.16067,0.76935c-1.29891,0.12148 -3.93023,2.26073 -4.96173,2.97076c-1.76757,1.21671 -3.60844,2.51226 -5.28344,3.97762c0.25676,-0.44695 0.58888,-0.90407 0.98967,-1.29221c5.39258,-5.2226 17.38109,-10.57447 17.38109,-10.57447c0,0 2.97578,-0.97826 2.80707,7.01301c-0.00139,0.06605 3.37245,0.57854 4.37307,0.65239c0.28717,0.02119 5.80986,-1.65403 5.80986,-1.65403z" fill="#ffc4ce" stroke="none" stroke-width="NaN" stroke-linecap="butt"/><path d="M247.27398,102.22755c0,0 -5.14937,-6.85309 -7.55031,-12.94651c3.20349,2.74698 6.93696,4.91918 11.08575,4.80045c2.08935,-0.05979 5.27432,-2.61693 7.15042,-2.53882c3.20502,0.13344 6.13746,1.49507 9.30662,1.79829c1.26255,0.1208 2.9994,0.24469 4.76278,0.18238c0.79282,0.9415 1.81292,2.203 1.65942,2.47458c-0.21337,0.37753 -0.6,1.04321 -1.23127,1.6824c-0.10007,0.10133 1.17429,0.63029 1.06415,0.75496c-0.68752,0.77827 -2.9637,1.49287 -4.23736,1.65474c-0.15028,0.0191 -0.50734,-0.72253 -0.66664,-0.7145c-0.46248,0.0233 -0.83754,-0.0359 -1.37977,-0.12241c-7.73704,-5.15992 -12.46469,-2.3605 -12.69223,-2.02022c-5.50764,8.23615 -7.27156,4.99467 -7.27156,4.99467z" fill="#de526e" stroke="none" stroke-width="NaN" stroke-linecap="butt"/><path d="M260.00336,87.1904c0,0 2.59991,5.02732 -1.7474,7.74506c-5.9923,3.74612 -7.49241,-3.26355 -7.49241,-3.26355c0,0 5.81405,-2.56029 6.79868,-4.68355c1.06736,-2.30168 -1.43444,-6.24339 -1.43444,-6.24339c0,0 4.0934,-3.40339 6.90368,1.76599c1.70533,3.13687 -3.0281,4.67945 -3.0281,4.67945z" fill="#000000" stroke="none" stroke-width="0" stroke-linecap="butt"/><path d="M259.63401,87.05158c0,0 2.476,4.48715 -1.56011,7.01035c-5.56335,3.47796 -7.29973,-2.4193 -7.29973,-2.4193c0,0 2.93788,-2.90828 3.85204,-4.87954c0.99096,-2.13691 1.45872,-5.98013 1.45872,-5.98013c0,0 3.49812,-3.12838 6.10722,1.67096c1.58324,2.91232 -2.55813,4.59766 -2.55813,4.59766z" fill="#ffffff" stroke="none" stroke-width="0" stroke-linecap="butt"/><path d="M258.07392,94.06191c-3.15732,1.97382 -5.08205,0.92806 -6.15632,-0.34565c1.69178,-0.91259 3.33592,-1.94502 5.33876,-2.00171c0.7729,-0.02187 1.76152,0.1223 2.71098,0.30525c-0.34445,0.73383 -0.93554,1.44329 -1.89342,2.04211z" fill="#e6e6e6" stroke="none" stroke-width="0" stroke-linecap="butt"/><path d="M258.65387,92.47182c-1.56707,0.36793 -3.13321,-0.59359 -3.49806,-2.14761c-0.36486,-1.55402 0.60973,-3.11204 2.1768,-3.47997c0.92769,-0.2178 1.85505,0.03028 2.53307,0.5914c0.02809,0.02325 0.44992,0.9557 0.54874,1.89767c0.10798,1.02927 -0.10902,2.07638 -0.14489,2.12113c-0.3944,0.49216 -0.95188,0.86154 -1.61566,1.01738z" data-paper-data="{&quot;index&quot;:null}" fill="#000000" stroke="none" stroke-width="0" stroke-linecap="butt"/><path d="M258.75048,91.60403c-1.13343,0.28961 -2.28945,-0.4039 -2.58205,-1.54902c-0.2926,-1.14512 0.38903,-2.3082 1.52246,-2.59781c0.83369,-0.21303 1.67961,0.10585 2.18515,0.74511c0.00862,0.0109 0.23622,0.59208 0.30851,1.14985c0.06853,0.52878 -0.01773,1.03569 -0.02176,1.04494c-0.25216,0.57956 -0.75663,1.0394 -1.41229,1.20694z" data-paper-data="{&quot;index&quot;:null}" fill="#471a24" stroke="none" stroke-width="0" stroke-linecap="butt"/><path d="M257.73609,88.49615c0.47514,-0.42126 1.2067,-0.37206 1.63398,0.10988c0.42728,0.48194 0.38847,1.21412 -0.08668,1.63537c-0.47514,0.42126 -1.2067,0.37206 -1.63398,-0.10987c-0.42728,-0.48193 -0.38847,-1.21412 0.08667,-1.63538z" fill="#000000" stroke="none" stroke-width="0" stroke-linecap="butt"/><path d="M259.02288,88.87857c-0.16685,-0.18819 -0.15565,-0.47062 0.02502,-0.63079c0.18068,-0.16018 0.46239,-0.13746 0.62925,0.05074c0.16685,0.18819 0.15566,0.47061 -0.02501,0.63079c-0.18067,0.16018 -0.4624,0.13746 -0.62926,-0.05074z" fill="#ffffff" stroke="none" stroke-width="0" stroke-linecap="butt"/><path d="M261.19174,84.83959c-1.2054,0.43739 -2.53419,-0.17705 -2.96794,-1.37241c-0.43376,-1.19535 0.1918,-2.51896 1.3972,-2.95636c0.71359,-0.25893 1.10679,-0.14924 1.69557,0.23136c0.0244,0.01577 0.99466,0.84741 1.1608,1.58341c0.18153,0.8042 0.1945,1.4286 0.1703,1.46736c-0.26607,0.42619 -0.94534,0.86137 -1.45593,1.04664z" data-paper-data="{&quot;index&quot;:null}" fill="#000000" stroke="none" stroke-width="0" stroke-linecap="butt"/><path d="M259.95428,84.07796c-0.50676,-0.18389 -0.87091,-0.58774 -1.02568,-1.06685c-0.00247,-0.00764 -0.15996,-0.58391 -0.06446,-0.99779c0.10074,-0.43657 0.45504,-0.71194 0.46272,-0.71991c0.45058,-0.46743 1.14607,-0.65437 1.79043,-0.42055c0.87603,0.31788 1.32584,1.29305 1.00469,2.17811c-0.32116,0.88506 -1.29167,1.34486 -2.16771,1.02698z" fill="#471a24" stroke="none" stroke-width="0" stroke-linecap="butt"/><path d="M260.27869,83.34789c-0.4823,-0.17501 -0.73342,-0.70238 -0.56087,-1.17789c0.17255,-0.47552 0.70342,-0.71912 1.18572,-0.54411c0.48231,0.17501 0.73342,0.70237 0.56087,1.17788c-0.17255,0.47551 -0.70341,0.71912 -1.18572,0.54411z" fill="#000000" stroke="none" stroke-width="0" stroke-linecap="butt"/><path d="M261.1769,82.55778c-0.18835,-0.06834 -0.28784,-0.27032 -0.22224,-0.45113c0.06561,-0.18081 0.27148,-0.27199 0.45982,-0.20364c0.18835,0.06834 0.28784,0.27032 0.22223,0.45113c-0.06561,0.18081 -0.27147,0.27198 -0.45982,0.20364z" fill="#ffffff" stroke="none" stroke-width="0" stroke-linecap="butt"/><path d="M270.14457,96.67035c1.02709,5.7488 7.28304,10.04202 12.35095,11.95161c0.4139,0.15596 0.82081,0.30354 1.22611,0.43922c-1.67034,0.95776 -3.71623,1.65248 -5.89688,1.3089c-1.74174,-0.27443 -3.74635,-0.82918 -5.48438,-2.93791c-5.3266,-6.46269 -3.93064,-11.9052 -3.93064,-11.9052c0,0 0.94578,0.89908 1.73485,1.14339z" fill="url(#color-9)" stroke="none" stroke-width="0" stroke-linecap="butt"/><path d="M283.88543,86.71814c1.33724,1.33494 1.31395,3.52637 -0.05204,4.89471c-1.36599,1.36834 -3.55737,1.39541 -4.89461,0.06048c-1.33724,-1.33494 -1.31395,-3.52637 0.05204,-4.89471c1.36599,-1.36834 3.55737,-1.39541 4.89461,-0.06047z" data-paper-data="{&quot;index&quot;:null}" fill="url(#color-10)" stroke="none" stroke-width="0" stroke-linecap="butt"/><path d="M283.19165,86.95436c1.22463,1.22253 1.2033,3.22945 -0.04765,4.48257c-1.25096,1.25312 -3.25784,1.27792 -4.48248,0.05539c-1.22464,-1.22253 -1.20329,-3.22944 0.04766,-4.48256c1.25096,-1.25312 3.25785,-1.27792 4.48248,-0.05539z" data-paper-data="{&quot;index&quot;:null}" fill="url(#color-11)" stroke="none" stroke-width="0" stroke-linecap="butt"/><path d="M324.59826,87.14607c0,0 1.81149,-5.43992 8.38309,-8.07426c2.0788,-0.83333 2.6338,-6.46897 2.6338,-6.46897l0.9443,0.41969c0,0 0.62989,10.8485 -4.09909,14.05212c-5.1307,3.47577 -7.8621,0.07142 -7.8621,0.07142z" fill="#acff90" stroke="none" stroke-width="0" stroke-linecap="butt"/><path d="M338.14768,83.00283l2.7,-1.3l3.7,-0.5l3.7,2c0,0 0.66189,3.27396 0.19751,3.25149c-0.11514,-0.00557 -0.83055,7.86281 -1.29323,7.81059c-0.21676,-0.02447 5.1133,13.00549 4.63055,13.40206c-0.2531,0.20791 -5.58809,-0.13613 -5.79278,-0.28382c-0.26371,-0.19027 -3.53944,-9.94577 -3.82849,-10.0583c-0.40942,-0.1594 -3.0139,10.17118 -3.41017,9.99376c-0.53478,-0.23944 -6.08084,0.10658 -6.41037,-0.15695c-0.1837,-0.14691 4.08325,-10.79189 4.18108,-11.10434c0.27587,-0.88102 1.93227,-8.31652 1.90993,-8.3374c-0.25153,-0.23498 -2.48725,0.8294 -2.70445,0.59401c-0.90128,-0.97678 0.18764,-2.12748 -0.20587,-2.72842c-0.39803,-0.60786 2.62628,-2.58269 2.62628,-2.58269z" fill="#a3f388" stroke="none" stroke-width="0" stroke-linecap="butt"/><path d="M340.74769,81.70283l3.7,-0.5l3.7,2c0,0 0.66189,3.27396 0.19751,3.25149c-0.11514,-0.00557 -0.83055,7.86281 -1.29323,7.81059c-0.21676,-0.02447 5.1133,13.00549 4.63055,13.40206c-0.1103,0.09061 -1.18581,0.07639 -2.38123,0.01927c-0.01322,-0.04574 -0.02625,-0.09114 -0.03912,-0.13617c-2.04532,-7.16058 -4.73571,-13.65199 -8.30912,-19.86906c-0.52579,-1.8757 -1.10474,-3.6542 -1.68662,-5.26498z" fill="#8fd578" stroke="none" stroke-width="0" stroke-linecap="butt"/><path d="M338.84763,91.60283v-8.5l5.5,2c0,0 1.36966,3.50669 1.16187,4.28988c-0.07836,0.29536 -6.66187,2.21012 -6.66187,2.21012z" fill="#000000" stroke="none" stroke-width="0" stroke-linecap="butt"/><path d="M349.54891,75.56127c0,4.00406 -3.24593,7.25 -7.25,7.25c-4.00407,0 -7.25,-3.24594 -7.25,-7.25c0,-4.00406 3.24593,-7.25 7.25,-7.25c4.00407,0 7.25,3.24594 7.25,7.25z" fill="url(#color-12)" stroke="none" stroke-width="0" stroke-linecap="butt"/><path d="M349.54891,75.56127c0,4.00219 -3.24289,7.24696 -7.24437,7.25c2.32295,-4.45441 2.79992,-9.46776 1.69867,-14.29855c3.18173,0.76657 5.5457,3.63149 5.5457,7.04855z" fill="#8ace73" stroke="none" stroke-width="0" stroke-linecap="butt"/><path d="M347.36141,74.13158l-6.25,1.75l-3.59616,-3.51923" fill="none" stroke="#3b6f29" stroke-width="1" stroke-linecap="round"/><path d="M336.41425,78.11656l0.92307,-5.69231c0,0 3.34406,3.26923 3.88461,3.26923c0.21109,0 5.96154,-1.42308 5.96154,-1.42308l-0.57693,4.73077c0,0 -4.16545,-0.83835 -4.31257,-0.85229c-0.08096,-0.00768 -0.29173,-1.60981 -0.39364,-1.76047c-0.05615,-0.08302 -0.419,0.01167 -0.79378,0.01141c-0.40081,-0.00028 -0.43065,-0.09255 -0.49823,-0.09726c-0.06389,-0.00445 -0.32823,1.8604 -0.42367,1.85707c-0.60607,-0.02119 -3.77042,-0.04308 -3.77042,-0.04308z" fill="#000000" stroke="#3b6f29" stroke-width="0" stroke-linecap="butt"/><path d="M342.99116,77.40502l-0.11539,-1.38462l1,-0.07692l0.19231,1.46154z" fill="#ffffff" stroke="none" stroke-width="0" stroke-linecap="butt"/><path d="M338.1835,77.78964l0.57693,-3.8077l0.88461,0.92308l-0.69231,2.96154z" fill="#ffffff" stroke="none" stroke-width="0" stroke-linecap="butt"/><path d="M346.84279,93.96896c0,0 -2.38583,-3.07403 1.17891,-12.56282c0.96711,-2.57429 0.02109,-8.08981 0.02109,-8.08981l-0.05263,-2.15789c0,0 0.89998,1.06097 1.54535,2.61389c0.64205,1.54493 3.59803,10.64448 2.65909,15.29964c-0.8381,4.1552 -5.35181,4.89699 -5.35181,4.89699z" fill="#8ace73" stroke="none" stroke-width="0" stroke-linecap="butt"/><path d="M342.3443,87.35283c0,2.34721 -1.92441,4.25 -4.29829,4.25c-2.37388,0 -4.29829,-1.90279 -4.29829,-4.25c0,-2.34721 1.92441,-4.25 4.29829,-4.25c2.37388,0 4.29829,1.90279 4.29829,4.25z" fill="#000000" stroke="none" stroke-width="0" stroke-linecap="butt"/><path d="M341.83292,87.15283c0,2.07107 -1.69801,3.75 -3.79261,3.75c-2.0946,0 -3.79261,-1.67893 -3.79261,-3.75c0,-2.07107 1.69801,-3.75 3.79261,-3.75c2.0946,0 3.79261,1.67893 3.79261,3.75z" fill="#848484" stroke="none" stroke-width="0" stroke-linecap="butt"/><path d="M339.90565,87.25283c0,1.40833 -1.15465,2.55 -2.57898,2.55c-1.42433,0 -2.57898,-1.14167 -2.57898,-2.55c0,-1.40833 1.15465,-2.55 2.57898,-2.55c1.42433,0 2.57898,1.14167 2.57898,2.55z" fill="url(#color-13)" stroke="none" stroke-width="0" stroke-linecap="butt"/><path d="M341.04771,90.50283c0,0 1.34733,-1.32335 1.35744,-3.20398c0.00876,-1.63018 -1.25744,-2.89602 -1.25744,-2.89602l2.3,1.2l0.6,3.8z" fill="#848484" stroke="none" stroke-width="0" stroke-linecap="butt"/></g><path d="M314.46913,247.35355c0,14.10939 -38.563,25.5473 -86.13288,25.5473c-47.56988,0 -86.13288,-11.43791 -86.13288,-25.5473c0,-14.10939 38.563,-25.5473 86.13288,-25.5473c47.56988,0 86.13288,11.43791 86.13288,25.5473z" fill="url(#color-14)" stroke="none" stroke-width="0" stroke-linecap="butt"/><path d="M327.46913,266.35355c0,10.79568 -23.0049,19.5473 -51.38288,19.5473c-28.37798,0 -51.38288,-8.75162 -51.38288,-19.5473c0,-10.79568 23.0049,-19.5473 51.38288,-19.5473c28.37798,0 51.38288,8.75162 51.38288,19.5473z" fill="url(#color-15)" stroke="none" stroke-width="0" stroke-linecap="butt"/><path d="M265.46913,214.35354c0,3.06369 -9.23765,5.5473 -20.63288,5.5473c-11.39523,0 -20.63288,-2.48361 -20.63288,-5.5473c0,-3.06369 9.23765,-5.5473 20.63288,-5.5473c11.39523,0 20.63288,2.48361 20.63288,5.5473z" fill="url(#color-16)" stroke="none" stroke-width="0" stroke-linecap="butt"/></g></g></svg>