<svg version="1.1" xmlns="http://www.w3.org/2000/svg" xmlns:xlink="http://www.w3.org/1999/xlink" width="65.59774" height="88.12375" viewBox="0,0,65.59774,88.12375"><defs><radialGradient cx="240" cy="179.99999" r="32.79887" gradientUnits="userSpaceOnUse" id="color-1"><stop offset="0" stop-color="#000000"/><stop offset="1" stop-color="#000000" stop-opacity="0"/></radialGradient><linearGradient x1="217.48881" y1="179.50319" x2="268.96184" y2="179.50319" gradientUnits="userSpaceOnUse" id="color-2"><stop offset="0" stop-color="#f82d2d"/><stop offset="1" stop-color="#ff9999"/></linearGradient><linearGradient x1="243.847" y1="206.25142" x2="243.847" y2="175.12433" gradientUnits="userSpaceOnUse" id="color-3"><stop offset="0" stop-color="#b13f3f"/><stop offset="1" stop-color="#ff6a6a"/></linearGradient><linearGradient x1="227.17973" y1="208.16007" x2="227.17973" y2="152.20113" gradientUnits="userSpaceOnUse" id="color-4"><stop offset="0" stop-color="#000000"/><stop offset="1" stop-color="#fa3636"/></linearGradient><linearGradient x1="211.87997" y1="203.62329" x2="257.08015" y2="203.62329" gradientUnits="userSpaceOnUse" id="color-5"><stop offset="0" stop-color="#ffffff"/><stop offset="1" stop-color="#ffffff" stop-opacity="0"/></linearGradient><linearGradient x1="236.59748" y1="235.42736" x2="230.30809" y2="169.5514" gradientUnits="userSpaceOnUse" id="color-6"><stop offset="0" stop-color="#ffffff"/><stop offset="1" stop-color="#ffffff" stop-opacity="0"/></linearGradient><radialGradient cx="232.80196" cy="204.21149" r="20.10279" gradientUnits="userSpaceOnUse" id="color-7"><stop offset="0" stop-color="#ffffff"/><stop offset="1" stop-color="#ffffff" stop-opacity="0"/></radialGradient></defs><g transform="translate(-207.20113,-147.20113)"><g data-paper-data="{&quot;isPaintingLayer&quot;:true}" fill-rule="nonzero" stroke-linejoin="miter" stroke-miterlimit="10" stroke-dasharray="" stroke-dashoffset="0" style="mix-blend-mode: normal"><path d="M240,212.79887c-18.11432,0 -32.79887,-14.68456 -32.79887,-32.79887c0,-18.11432 14.68456,-32.79887 32.79887,-32.79887c18.11432,0 32.79887,14.68456 32.79887,32.79887c0,18.11432 -14.68456,32.79887 -32.79887,32.79887z" fill="url(#color-1)" stroke="#000000" stroke-width="0" stroke-linecap="butt"/><path d="M268.96184,179.50319c0,6.89101 -12.09817,4.70566 -24.56393,4.91503c-13.247,0.2225 -26.90909,2.40784 -26.90909,-4.91503c0,-14.21389 11.52263,-25.73651 25.73651,-25.73651c14.21389,0 25.73651,11.52263 25.73651,25.73651z" data-paper-data="{&quot;index&quot;:null}" fill="url(#color-2)" stroke="none" stroke-width="NaN" stroke-linecap="butt"/><path d="M243.847,206.25142c-13.62223,0 -24.66523,-11.52263 -24.66523,-25.73651c0,-7.32288 13.09341,-5.13754 25.78901,-4.91504c11.94688,0.20937 23.54145,-1.97597 23.54145,4.91504c0,14.21389 -11.043,25.73651 -24.66523,25.73651z" data-paper-data="{&quot;index&quot;:null}" fill="url(#color-3)" stroke="none" stroke-width="NaN" stroke-linecap="butt"/><path d="M237.25773,152.52292c2.76929,0.41917 4.36075,1.78888 3.43673,2.96872c-1.46479,1.87031 -7.85419,6.23803 -7.85419,6.23803c0,0 6.2346,0.86065 6.07224,2.76952c-0.19184,2.25523 -6.28462,7.92013 -6.28462,7.92013c0,0 0.51173,2.41271 1.63287,4.29622c1.57317,2.64292 2.72898,6.08793 2.73734,7.08443c0.01655,1.9744 -5.06496,-0.85003 -5.06496,-0.85003c0,0 -0.0299,2.08583 1.57069,4.05705c1.73701,2.13922 4.64256,5.41458 4.86071,6.72977c0.42888,2.58538 -3.64464,2.87093 -3.64464,2.87093c0,0 5.35953,5.03677 6.44803,7.09057c2.06277,3.89206 0.68846,4.20354 -1.63204,4.20354c-1.1957,0 -6.17949,0.63068 -10.05601,-0.07912c-3.87652,-0.70979 -4.7471,-2.64624 -6.30638,-2.91687c-1.07653,-0.18685 -3.75308,-2.41775 -3.75308,-2.41775c0,0 -1.58304,-3.90291 -1.65552,-4.32563c-0.36548,-2.1317 -2.13661,-4.00256 -3.06146,-6.36468c-0.92484,-2.36211 -3.13822,-8.87211 -2.35844,-14.60953c0.77977,-5.73742 1.2518,-13.28365 6.88209,-18.6746c5.74911,-5.50472 10.87145,-7.07442 18.03066,-5.99074z" fill="url(#color-4)" stroke="none" stroke-width="0" stroke-linecap="butt"/><path d="M237.03739,199.92331v-38.66708h20.25419v15.46683l-8.46994,2.94606l8.83818,4.05084l0.36826,16.20335z" fill="#2b0a0a" stroke="none" stroke-width="0" stroke-linecap="round"/><path d="M256.4,194.42851l-18.31598,-3.25618" fill="none" stroke="#ffffff" stroke-width="7" stroke-linecap="round"/><path d="M238.48573,166.29792l18.59442,3.25618" fill="none" stroke="#ffffff" stroke-width="7" stroke-linecap="round"/><path d="M236.81852,200.41531v-38.66708h20.25419v15.46683l-8.46994,2.94606l8.83818,4.05084l0.36826,16.20335z" fill="none" stroke="#2b0a0a" stroke-width="2.5" stroke-linecap="round"/><path d="M261.12735,172.39112h2.45809v18.02597h-2.45809" fill="none" stroke="#000000" stroke-width="2" stroke-linecap="round"/><g stroke="#ffffff" stroke-width="0"><path d="M232.42551,201.71403l24.65464,1.88986l-24.91992,1.92866l-20.28026,-1.17271z" fill="url(#color-5)" stroke-linecap="round"/><path d="M232.45401,205.74941l-2.15898,-36.19531l4.7652,36.0506l2.03284,29.72018z" fill="url(#color-6)" stroke-linecap="round"/><path d="M232.80196,187.3511c7.30947,0 13.23496,7.54866 13.23496,16.8604c0,9.31174 -5.9255,16.8604 -13.23496,16.8604c-7.30947,0 -13.23496,-7.54865 -13.23496,-16.8604c0,-9.31174 5.9255,-16.8604 13.23496,-16.8604z" fill="url(#color-7)" stroke-linecap="butt"/></g></g></g></svg>