<svg version="1.1" xmlns="http://www.w3.org/2000/svg" xmlns:xlink="http://www.w3.org/1999/xlink" width="74.69376" height="81.30484" viewBox="0,0,74.69376,81.30484"><defs><radialGradient cx="240.00005" cy="179.86097" r="36.7832" gradientUnits="userSpaceOnUse" id="color-1"><stop offset="0" stop-color="#000000"/><stop offset="1" stop-color="#000000" stop-opacity="0"/></radialGradient><linearGradient x1="255.30588" y1="145.48217" x2="255.30588" y2="163.23909" gradientUnits="userSpaceOnUse" id="color-2"><stop offset="0" stop-color="#000000" stop-opacity="0.72157"/><stop offset="1" stop-color="#ff0000"/></linearGradient><linearGradient x1="264.01075" y1="150.68736" x2="264.01075" y2="165.97742" gradientUnits="userSpaceOnUse" id="color-3"><stop offset="0" stop-color="#000000" stop-opacity="0.72157"/><stop offset="1" stop-color="#ff0000"/></linearGradient><linearGradient x1="233.86405" y1="141.34758" x2="233.86405" y2="161.29378" gradientUnits="userSpaceOnUse" id="color-4"><stop offset="0" stop-color="#000000" stop-opacity="0.72157"/><stop offset="1" stop-color="#ff0000"/></linearGradient><linearGradient x1="244.97919" y1="142.68628" x2="244.97919" y2="161.40664" gradientUnits="userSpaceOnUse" id="color-5"><stop offset="0" stop-color="#000000" stop-opacity="0.72157"/><stop offset="1" stop-color="#ff0000"/></linearGradient><linearGradient x1="255.47472" y1="214.51784" x2="255.47472" y2="196.76092" gradientUnits="userSpaceOnUse" id="color-6"><stop offset="0" stop-color="#000000" stop-opacity="0.72157"/><stop offset="1" stop-color="#ff0000"/></linearGradient><linearGradient x1="264.17957" y1="209.31264" x2="264.17957" y2="194.02258" gradientUnits="userSpaceOnUse" id="color-7"><stop offset="0" stop-color="#000000" stop-opacity="0.72157"/><stop offset="1" stop-color="#ff0000"/></linearGradient><linearGradient x1="234.03289" y1="218.65242" x2="234.03289" y2="198.70622" gradientUnits="userSpaceOnUse" id="color-8"><stop offset="0" stop-color="#000000" stop-opacity="0.72157"/><stop offset="1" stop-color="#ff0000"/></linearGradient><linearGradient x1="245.14803" y1="217.31373" x2="245.14803" y2="198.59336" gradientUnits="userSpaceOnUse" id="color-9"><stop offset="0" stop-color="#000000" stop-opacity="0.72157"/><stop offset="1" stop-color="#ff0000"/></linearGradient><linearGradient x1="204.17135" y1="161.12836" x2="235.35392" y2="161.12836" gradientUnits="userSpaceOnUse" id="color-10"><stop offset="0" stop-color="#ff0000"/><stop offset="1" stop-color="#000000"/></linearGradient><linearGradient x1="203.92274" y1="198.17516" x2="235.10527" y2="198.17516" gradientUnits="userSpaceOnUse" id="color-11"><stop offset="0" stop-color="#ff0000"/><stop offset="1" stop-color="#000000"/></linearGradient><linearGradient x1="202.08977" y1="179.57324" x2="227.07769" y2="179.57324" gradientUnits="userSpaceOnUse" id="color-12"><stop offset="0" stop-color="#ffffff"/><stop offset="1" stop-color="#000000"/></linearGradient><linearGradient x1="208.74626" y1="186.8553" x2="214.2062" y2="180.43615" gradientUnits="userSpaceOnUse" id="color-13"><stop offset="0" stop-color="#ff7d7d"/><stop offset="1" stop-color="#ffffff"/></linearGradient><linearGradient x1="208.94289" y1="172.40228" x2="214.40286" y2="178.82143" gradientUnits="userSpaceOnUse" id="color-14"><stop offset="0" stop-color="#ff7d7d"/><stop offset="1" stop-color="#ffffff"/></linearGradient><linearGradient x1="215.43699" y1="179.68497" x2="227.06642" y2="179.68497" gradientUnits="userSpaceOnUse" id="color-15"><stop offset="0" stop-color="#ff7d7d"/><stop offset="1" stop-color="#ffffff"/></linearGradient><linearGradient x1="212.055" y1="179.64354" x2="217.18109" y2="179.64354" gradientUnits="userSpaceOnUse" id="color-16"><stop offset="0" stop-color="#ff7d7d"/><stop offset="1" stop-color="#ffffff"/></linearGradient><linearGradient x1="224.28055" y1="179.57324" x2="269.03506" y2="179.57324" gradientUnits="userSpaceOnUse" id="color-17"><stop offset="0" stop-color="#ff4c4c"/><stop offset="1" stop-color="#ffffff"/></linearGradient><linearGradient x1="223.88961" y1="188.74479" x2="249.85643" y2="188.74479" gradientUnits="userSpaceOnUse" id="color-18"><stop offset="0" stop-color="#000000"/><stop offset="1" stop-color="#c20000"/></linearGradient><linearGradient x1="220.75104" y1="196.14893" x2="250.33472" y2="196.14893" gradientUnits="userSpaceOnUse" id="color-19"><stop offset="0" stop-color="#000000"/><stop offset="1" stop-color="#c20000"/></linearGradient><linearGradient x1="223.97847" y1="170.6565" x2="249.85643" y2="170.6565" gradientUnits="userSpaceOnUse" id="color-20"><stop offset="0" stop-color="#000000"/><stop offset="1" stop-color="#c20000"/></linearGradient><linearGradient x1="220.56458" y1="163.85108" x2="250.14825" y2="163.85108" gradientUnits="userSpaceOnUse" id="color-21"><stop offset="0" stop-color="#000000"/><stop offset="1" stop-color="#c20000"/></linearGradient></defs><g transform="translate(-202.08974,-139.34758)"><g data-paper-data="{&quot;isPaintingLayer&quot;:true}" fill-rule="nonzero" stroke-linejoin="miter" stroke-miterlimit="10" stroke-dasharray="" stroke-dashoffset="0" style="mix-blend-mode: normal"><path d="M203.23125,178.83095c0.56886,-20.30684 17.49197,-36.30762 37.79879,-35.73876c20.30684,0.56886 36.30762,17.49197 35.73876,37.79879c-0.56887,20.30684 -17.49197,36.30762 -37.79879,35.73876c-20.30684,-0.56886 -36.30762,-17.49197 -35.73876,-37.79879z" fill="url(#color-1)" stroke="#000000" stroke-width="0" stroke-linecap="butt"/><g fill="none" stroke-width="4" stroke-linecap="round"><path d="M250.60391,163.23909c0,0 0.97805,-11.31958 2.72411,-14.87107c1.66183,-3.38015 6.67983,-2.85655 6.67983,-2.85655" data-paper-data="{&quot;index&quot;:null}" stroke="url(#color-2)"/><path d="M257.19907,165.97742c0,0 3.83928,-10.69344 6.43521,-13.68055c2.4707,-2.843 7.18813,-1.05401 7.18813,-1.05401" data-paper-data="{&quot;index&quot;:null}" stroke="url(#color-3)"/><path d="M234.24966,161.29378c0,0 -3.26581,-10.88228 -2.9527,-14.82737c0.298,-3.75476 5.15536,-5.11883 5.15536,-5.11883" data-paper-data="{&quot;index&quot;:null}" stroke="url(#color-4)"/><path d="M241.38983,161.40664c0,0 -0.37536,-11.35556 0.93586,-15.08952c1.24796,-3.55382 6.29263,-3.63085 6.29263,-3.63085" data-paper-data="{&quot;index&quot;:null}" stroke="url(#color-5)"/><path d="M260.17669,214.48854c0,0 -5.018,0.5236 -6.67983,-2.85655c-1.74607,-3.55149 -2.72411,-14.87107 -2.72411,-14.87107" data-paper-data="{&quot;index&quot;:null}" stroke="url(#color-6)"/><path d="M270.99124,208.75715c0,0 -4.71743,1.78898 -7.18813,-1.05401c-2.59594,-2.98712 -6.43521,-13.68055 -6.43521,-13.68055" data-paper-data="{&quot;index&quot;:null}" stroke="url(#color-7)"/><path d="M236.62114,218.65242c0,0 -4.85735,-1.36407 -5.15536,-5.11883c-0.31311,-3.94509 2.9527,-14.82737 2.9527,-14.82737" data-paper-data="{&quot;index&quot;:null}" stroke="url(#color-8)"/><path d="M248.78714,217.31373c0,0 -5.04468,-0.07702 -6.29263,-3.63085c-1.31122,-3.73397 -0.93586,-15.08952 -0.93586,-15.08952" data-paper-data="{&quot;index&quot;:null}" stroke="url(#color-9)"/></g><path d="M223.40486,176.41076l-19.23349,-13.62419l2.59626,-13.30899l12.02894,-3.63164l16.55735,16.24848z" data-paper-data="{&quot;index&quot;:null}" fill="url(#color-10)" stroke="none" stroke-width="0" stroke-linecap="butt"/><path d="M235.10527,197.20909l-16.55734,16.24847l-10.94107,-3.52284l-3.68413,-13.41778l19.23348,-13.62418z" fill="url(#color-11)" stroke="none" stroke-width="0" stroke-linecap="butt"/><g stroke-width="0" stroke-linecap="butt"><path d="M227.07769,186.4729h-14.99575l-0.14918,2.98363l-9.84301,-9.59686l9.9922,-10.16972v2.98364h14.99575z" fill="url(#color-12)" stroke="#000000"/><path d="M215.04071,181.14595l-5.45996,6.41915l-1.66898,-1.41959l5.45996,-6.41915z" fill="url(#color-13)" stroke="none"/><path d="M213.56836,179.53122l-5.45996,-6.41914l1.66897,-1.4196l5.45997,6.41915z" data-paper-data="{&quot;index&quot;:null}" fill="url(#color-14)" stroke="none"/><path d="M227.06642,181.28613h-11.62945v-3.20232h11.62945z" fill="url(#color-15)" stroke="none"/><path d="M214.61804,177.14151c1.41554,0 2.56305,1.12019 2.56305,2.50203c0,1.38182 -1.14751,2.50201 -2.56305,2.50201c-1.41554,0 -2.56304,-1.12019 -2.56304,-2.50201c0,-1.38182 1.14751,-2.50203 2.56304,-2.50203z" fill="url(#color-16)" stroke="none"/></g><path d="M246.65782,157.19598c12.35862,0 22.37727,10.01864 22.37727,22.37726c0,12.35862 -10.01865,22.37727 -22.37727,22.37727c-12.35862,0 -22.37726,-10.01865 -22.37726,-22.37727c0,-12.35862 10.01864,-22.37726 22.37726,-22.37726z" fill="url(#color-17)" stroke="none" stroke-width="NaN" stroke-linecap="butt"/><path d="M262.67795,189.02722c1.20947,0.25879 1.38809,1.74764 1.50946,2.09631c0.15045,0.43223 -1.87089,2.12281 -0.59679,3.30954" fill="none" stroke="#ff1717" stroke-width="3.5" stroke-linecap="butt"/><path d="M263.59063,164.62952c-1.27409,1.18673 0.74724,2.87732 0.59679,3.30955c-0.12136,0.34867 -0.29999,1.83751 -1.50946,2.09631" data-paper-data="{&quot;index&quot;:null}" fill="none" stroke="#ff1717" stroke-width="3.5" stroke-linecap="butt"/><path d="M264.93255,169.91854v19.3094" fill="none" stroke="#000000" stroke-width="2" stroke-linecap="round"/><path d="M238.60483,171.94394c2.09399,-0.60632 4.46979,-0.94866 6.98794,-0.94866c8.43436,0 15.27176,3.84048 15.27176,8.57795c0,4.73747 -6.83739,8.57796 -15.27176,8.57796c-2.36882,0 -4.61165,-0.30293 -6.61244,-0.84358" fill="none" stroke="#ff1717" stroke-width="3.5" stroke-linecap="butt"/><path d="M260.74135,162.21741c-1.03418,1.10528 0.87792,4.11007 -3.65158,4.50581c-4.5295,0.39574 -10.20501,-1.14695 -12.6766,-3.44568c-0.69415,-0.6456 -2.32981,-2.55023 -2.3992,-3.14069" data-paper-data="{&quot;index&quot;:null}" fill="none" stroke="#ff1717" stroke-width="3.5" stroke-linecap="butt"/><path d="M242.01399,199.04568c0.06939,-0.59047 1.70504,-2.49508 2.3992,-3.14068c2.47159,-2.29872 8.1471,-3.84142 12.6766,-3.44568c4.5295,0.39574 2.6174,3.40053 3.65158,4.50581" data-paper-data="{&quot;index&quot;:null}" fill="none" stroke="#ff1717" stroke-width="3.5" stroke-linecap="butt"/><path d="M259.54123,166.72396c2.1119,0 3.82394,1.66925 3.82394,3.7284c0,2.05914 -1.71204,3.7284 -3.82394,3.7284c-2.1119,0 -3.82394,-1.66926 -3.82394,-3.7284c0,-2.05914 1.71204,-3.7284 3.82394,-3.7284z" fill="#000000" stroke="none" stroke-width="0" stroke-linecap="butt"/><path d="M259.54123,185.04638c2.1119,0 3.82394,1.66926 3.82394,3.7284c0,2.05914 -1.71204,3.7284 -3.82394,3.7284c-2.1119,0 -3.82394,-1.66926 -3.82394,-3.7284c0,-2.05914 1.71204,-3.7284 3.82394,-3.7284z" fill="#000000" stroke="none" stroke-width="0" stroke-linecap="butt"/><path d="M248.55119,195.44745c0,0 -12.02662,-0.66713 -15.58326,-1.62699c-3.45145,-0.93148 -7.01349,-5.07954 -8.50733,-8.22027c-0.90633,-1.90552 -0.46218,-3.55806 -0.46218,-3.55806c0,0 6.35618,2.80737 9.6184,3.43746c2.00268,0.38681 7.73252,0.56672 11.74531,0.16665c2.75656,-0.27483 4.49429,-1.1362 4.49429,-1.1362z" fill="url(#color-18)" stroke="none" stroke-width="NaN" stroke-linecap="butt"/><path d="M248.29614,208.34904c0,0 -9.93365,-0.24141 -15.5057,-2.24184c-1.8949,-0.68029 -7.29862,-3.82086 -9.4392,-8.27415c-1.39212,-2.89621 -2.6368,-9.06723 -2.59938,-12.2156c0.01888,-1.58853 1.15954,-1.66863 1.15954,-1.66863c0,0 4.49168,8.38901 8.99215,10.88313c4.93404,2.7344 19.43116,4.86882 19.43116,4.86882z" fill="url(#color-19)" stroke="none" stroke-width="0" stroke-linecap="butt"/><path d="M249.85643,174.89125c0,0 -1.73773,-0.86137 -4.49429,-1.1362c-4.0128,-0.40007 -9.74264,-0.22016 -11.74531,0.16665c-3.26223,0.63009 -9.6184,3.43747 -9.6184,3.43747c0,0 -0.21511,-1.59391 0.767,-3.61793c1.51225,-3.11661 4.84044,-7.25306 8.20251,-8.1604c3.55663,-0.95986 15.58326,-1.62699 15.58326,-1.62699z" data-paper-data="{&quot;index&quot;:null}" fill="url(#color-20)" stroke="none" stroke-width="NaN" stroke-linecap="butt"/><path d="M250.14825,160.29924c0,0 -14.49712,2.13442 -19.43116,4.86882c-4.50047,2.49412 -8.99215,10.88313 -8.99215,10.88313c0,0 -1.14066,-0.08011 -1.15954,-1.66863c-0.03742,-3.14837 1.20725,-9.3194 2.59937,-12.2156c2.14058,-4.45329 7.5443,-7.59386 9.43921,-8.27415c5.57205,-2.00043 15.5057,-2.24184 15.5057,-2.24184z" data-paper-data="{&quot;index&quot;:null}" fill="url(#color-21)" stroke="none" stroke-width="0" stroke-linecap="butt"/></g></g></svg>