<svg version="1.1" xmlns="http://www.w3.org/2000/svg" xmlns:xlink="http://www.w3.org/1999/xlink" width="107.64587" height="170.52207" viewBox="0,0,107.64587,170.52207"><defs><radialGradient cx="287.60911" cy="183.38308" r="20.78815" gradientUnits="userSpaceOnUse" id="color-1"><stop offset="0" stop-color="#000000" stop-opacity="0.63137"/><stop offset="1" stop-color="#000000" stop-opacity="0"/></radialGradient><linearGradient x1="287.60911" y1="162.59492" x2="287.60911" y2="204.17124" gradientUnits="userSpaceOnUse" id="color-2"><stop offset="0" stop-color="#ff5454"/><stop offset="1" stop-color="#eb0000"/></linearGradient><radialGradient cx="270.41454" cy="175.84634" r="20.34342" gradientUnits="userSpaceOnUse" id="color-3"><stop offset="0" stop-color="#000000" stop-opacity="0.63137"/><stop offset="1" stop-color="#000000" stop-opacity="0"/></radialGradient><linearGradient x1="270.41454" y1="155.50291" x2="270.41454" y2="196.18976" gradientUnits="userSpaceOnUse" id="color-4"><stop offset="0" stop-color="#ff5454"/><stop offset="1" stop-color="#eb0000"/></linearGradient><linearGradient x1="257.02603" y1="171.67629" x2="278.72839" y2="171.67629" gradientUnits="userSpaceOnUse" id="color-5"><stop offset="0" stop-color="#eb0000"/><stop offset="1" stop-color="#ff5454"/></linearGradient><radialGradient cx="306.03319" cy="185.23224" r="79.16579" gradientUnits="userSpaceOnUse" id="color-6"><stop offset="0" stop-color="#e9e9e9"/><stop offset="1" stop-color="#575757"/></radialGradient><linearGradient x1="323.12145" y1="180.41633" x2="354.16539" y2="180.41633" gradientUnits="userSpaceOnUse" id="color-7"><stop offset="0" stop-color="#adadad"/><stop offset="1" stop-color="#ffffff"/></linearGradient><linearGradient x1="272.08339" y1="179.16749" x2="311.41668" y2="179.16749" gradientUnits="userSpaceOnUse" id="color-8"><stop offset="0" stop-color="#969696"/><stop offset="1" stop-color="#e1e1e1"/></linearGradient><linearGradient x1="275.58038" y1="189.27375" x2="297.28265" y2="189.27375" gradientUnits="userSpaceOnUse" id="color-9"><stop offset="0" stop-color="#eb0000"/><stop offset="1" stop-color="#ff5454"/></linearGradient><linearGradient x1="346.41674" y1="101.16749" x2="331.08338" y2="101.16749" gradientUnits="userSpaceOnUse" id="color-10"><stop offset="0" stop-color="#212121"/><stop offset="1" stop-color="#c8c8c8"/></linearGradient><linearGradient x1="273.35152" y1="174.31499" x2="263.71817" y2="183.94835" gradientUnits="userSpaceOnUse" id="color-11"><stop offset="0" stop-color="#c8c8c8"/><stop offset="1" stop-color="#212121"/></linearGradient></defs><g transform="translate(-246.14277,-93.50083)"><g data-paper-data="{&quot;isPaintingLayer&quot;:true}" fill-rule="nonzero" stroke-linejoin="miter" stroke-miterlimit="10" stroke-dasharray="" stroke-dashoffset="0" style="mix-blend-mode: normal"><path d="M246.14278,215.04909v-70.09816h85.27406v70.09816z" fill="none" stroke="none" stroke-width="0" stroke-linecap="butt"/><path d="M266.82097,183.38308c0,-11.48098 9.30718,-20.78815 20.78815,-20.78815c11.48097,0 20.78815,9.30718 20.78815,20.78815c0,11.48098 -9.30718,20.78815 -20.78815,20.78815c-11.48097,0 -20.78815,-9.30718 -20.78815,-20.78815z" fill="url(#color-1)" stroke="url(#color-2)" stroke-width="0" stroke-linecap="butt"/><path d="M250.0712,175.84634c0,-11.23536 9.10806,-20.34342 20.34342,-20.34342c11.23537,0 20.34342,9.10807 20.34342,20.34342c0,11.23536 -9.10806,20.34342 -20.34342,20.34342c-11.23537,0 -20.34342,-9.10807 -20.34342,-20.34342z" fill="url(#color-3)" stroke="url(#color-4)" stroke-width="0" stroke-linecap="butt"/><path d="M257.02603,171.67629c0,-5.99293 4.85823,-10.85115 10.85115,-10.85115c5.99293,0 10.85115,4.85823 10.85115,10.85115c0,5.99293 -4.85823,10.85115 -10.85115,10.85115c-5.99293,0 -10.85115,-4.85823 -10.85115,-10.85115z" fill="url(#color-5)" stroke="#000000" stroke-width="0" stroke-linecap="butt"/><path d="M338.73363,101.64758v149.78757c0,0 -0.38514,8.73472 -13.65969,8.83775c-13.1357,0.10194 -13.44012,-8.83775 -13.44012,-8.83775v-71.39385" fill="none" stroke="url(#color-6)" stroke-width="7.5" stroke-linecap="round"/><path d="M353.78865,243.93707c0,0 -7.00143,3.50277 -15.35322,3.26786c-9.20408,-0.25889 -14.93722,-3.26786 -14.93722,-3.26786v-125.99951c0,0 2.03568,-4.03287 15.04895,-4.31193c10.95473,-0.23491 15.24148,4.31193 15.24148,4.31193z" data-paper-data="{&quot;index&quot;:null}" fill="url(#color-7)" stroke="none" stroke-width="0" stroke-linecap="butt"/><path d="M311.41668,179.16749h-39.33333" fill="none" stroke="url(#color-8)" stroke-width="7.5" stroke-linecap="round"/><path d="M275.58038,189.27375c0,-5.99292 4.85823,-10.85116 10.85115,-10.85116c5.99293,0 10.85116,4.85823 10.85116,10.85116c0,5.99292 -4.85823,10.85115 -10.85116,10.85115c-5.99292,0 -10.85115,-4.85823 -10.85115,-10.85115z" fill="url(#color-9)" stroke="#000000" stroke-width="0" stroke-linecap="butt"/><path d="M338.75007,108.83416c-4.23419,0 -7.66667,-3.43248 -7.66667,-7.66666c0,-4.23418 3.43248,-7.66667 7.66667,-7.66667c4.23419,0 7.66667,3.43249 7.66667,7.66667c0,4.23418 -3.43248,7.66666 -7.66667,7.66666z" data-paper-data="{&quot;index&quot;:null}" fill="url(#color-10)" stroke="none" stroke-width="0" stroke-linecap="butt"/><path d="M268.53487,185.94348c-3.76205,0 -6.81182,-3.04975 -6.81182,-6.81181c0,-3.76206 3.04976,-6.81181 6.81183,-6.81182c3.76205,0 6.81181,3.04976 6.81181,6.81181c0,3.76207 -3.04974,6.81182 -6.81182,6.81182z" fill="url(#color-11)" stroke="none" stroke-width="0" stroke-linecap="butt"/><g stroke="#ffffff" stroke-width="0" stroke-linecap="butt"><path d="M345.77168,123.64858c0,-1.38421 1.12213,-2.50634 2.50635,-2.50634c1.38421,0 2.50635,1.12213 2.50635,2.50634c0,1.38421 -1.12213,2.50634 -2.50635,2.50634c-1.38421,0 -2.50635,-1.12213 -2.50635,-2.50634z" fill-opacity="0.14902" fill="#000000"/><path d="M345.77168,145.65864c0,-1.38422 1.12213,-2.50635 2.50635,-2.50635c1.38421,0 2.50635,1.12213 2.50635,2.50635c0,1.38422 -1.12213,2.50634 -2.50635,2.50634c-1.38421,0 -2.50635,-1.12213 -2.50635,-2.50634z" fill-opacity="0.07059" fill="#000000"/><path d="M336.2273,134.20625c0,-1.38422 1.12213,-2.50635 2.50635,-2.50635c1.38421,0 2.50635,1.12213 2.50635,2.50635c0,1.38422 -1.12213,2.50635 -2.50635,2.50635c-1.38421,0 -2.50635,-1.12213 -2.50635,-2.50635z" fill-opacity="0.23137" fill="#000000"/><path d="M336.2273,156.21631c0,-1.38422 1.12213,-2.50635 2.50635,-2.50635c1.38421,0 2.50635,1.12213 2.50635,2.50635c0,1.38422 -1.12213,2.50634 -2.50635,2.50634c-1.38421,0 -2.50635,-1.12213 -2.50635,-2.50634z" fill-opacity="0.14902" fill="#000000"/><path d="M326.68288,123.64858c0,-1.38421 1.12213,-2.50634 2.50635,-2.50634c1.38421,0 2.50635,1.12213 2.50635,2.50634c0,1.38421 -1.12213,2.50634 -2.50635,2.50634c-1.38421,0 -2.50635,-1.12213 -2.50635,-2.50634z" fill-opacity="0.07059" fill="#000000"/><path d="M326.68288,145.65864c0,-1.38422 1.12213,-2.50635 2.50635,-2.50635c1.38421,0 2.50635,1.12213 2.50635,2.50635c0,1.38422 -1.12213,2.50634 -2.50635,2.50634c-1.38421,0 -2.50635,-1.12213 -2.50635,-2.50634z" fill-opacity="0.14902" fill="#000000"/></g><g stroke="#ffffff" stroke-width="0" stroke-linecap="butt"><path d="M345.77168,169.27919c0,-1.38422 1.12213,-2.50634 2.50635,-2.50634c1.38421,0 2.50635,1.12213 2.50635,2.50634c0,1.38422 -1.12213,2.50635 -2.50635,2.50635c-1.38421,0 -2.50635,-1.12213 -2.50635,-2.50635z" fill-opacity="0.14902" fill="#000000"/><path d="M345.77168,191.28925c0,-1.38422 1.12213,-2.50635 2.50635,-2.50635c1.38421,0 2.50635,1.12213 2.50635,2.50635c0,1.38422 -1.12213,2.50634 -2.50635,2.50634c-1.38421,0 -2.50635,-1.12213 -2.50635,-2.50634z" fill-opacity="0.07059" fill="#000000"/><path d="M336.2273,179.83686c0,-1.38422 1.12213,-2.50634 2.50635,-2.50634c1.38421,0 2.50635,1.12213 2.50635,2.50634c0,1.38422 -1.12213,2.50635 -2.50635,2.50635c-1.38421,0 -2.50635,-1.12213 -2.50635,-2.50635z" fill-opacity="0.23137" fill="#000000"/><path d="M336.2273,201.84692c0,-1.38422 1.12213,-2.50635 2.50635,-2.50635c1.38421,0 2.50635,1.12213 2.50635,2.50635c0,1.38422 -1.12213,2.50634 -2.50635,2.50634c-1.38421,0 -2.50635,-1.12213 -2.50635,-2.50634z" fill-opacity="0.14902" fill="#000000"/><path d="M326.68288,169.27919c0,-1.38422 1.12213,-2.50634 2.50635,-2.50634c1.38421,0 2.50635,1.12213 2.50635,2.50634c0,1.38422 -1.12213,2.50635 -2.50635,2.50635c-1.38421,0 -2.50635,-1.12213 -2.50635,-2.50635z" fill-opacity="0.07059" fill="#000000"/><path d="M326.68288,191.28925c0,-1.38422 1.12213,-2.50635 2.50635,-2.50635c1.38421,0 2.50635,1.12213 2.50635,2.50635c0,1.38422 -1.12213,2.50634 -2.50635,2.50634c-1.38421,0 -2.50635,-1.12213 -2.50635,-2.50634z" fill-opacity="0.14902" fill="#000000"/></g><g stroke="#ffffff" stroke-width="0" stroke-linecap="butt"><path d="M345.77168,214.9098c0,-1.38422 1.12213,-2.50634 2.50635,-2.50634c1.38421,0 2.50635,1.12213 2.50635,2.50634c0,1.38422 -1.12213,2.50635 -2.50635,2.50635c-1.38421,0 -2.50635,-1.12213 -2.50635,-2.50635z" fill-opacity="0.14902" fill="#000000"/><path d="M345.77168,236.91986c0,-1.38422 1.12213,-2.50635 2.50635,-2.50635c1.38421,0 2.50635,1.12213 2.50635,2.50635c0,1.38422 -1.12213,2.50635 -2.50635,2.50635c-1.38421,0 -2.50635,-1.12213 -2.50635,-2.50635z" fill-opacity="0.07059" fill="#000000"/><path d="M336.2273,225.46747c0,-1.38422 1.12213,-2.50634 2.50635,-2.50634c1.38421,0 2.50635,1.12213 2.50635,2.50634c0,1.38422 -1.12213,2.50635 -2.50635,2.50635c-1.38421,0 -2.50635,-1.12213 -2.50635,-2.50635z" fill-opacity="0.23137" fill="#000000"/><path d="M326.68288,214.9098c0,-1.38422 1.12213,-2.50634 2.50635,-2.50634c1.38421,0 2.50635,1.12213 2.50635,2.50634c0,1.38422 -1.12213,2.50635 -2.50635,2.50635c-1.38421,0 -2.50635,-1.12213 -2.50635,-2.50635z" fill-opacity="0.07059" fill="#000000"/><path d="M326.68288,236.91986c0,-1.38422 1.12213,-2.50635 2.50635,-2.50635c1.38421,0 2.50635,1.12213 2.50635,2.50635c0,1.38422 -1.12213,2.50635 -2.50635,2.50635c-1.38421,0 -2.50635,-1.12213 -2.50635,-2.50635z" fill-opacity="0.14902" fill="#000000"/></g></g></g></svg>