<svg version="1.1" xmlns="http://www.w3.org/2000/svg" xmlns:xlink="http://www.w3.org/1999/xlink" width="98.70657" height="74.00039" viewBox="0,0,98.70657,74.00039"><defs><linearGradient x1="240.00001" y1="142.99982" x2="240.00001" y2="217.00021" gradientUnits="userSpaceOnUse" id="color-1"><stop offset="0" stop-color="#000000" stop-opacity="0.43529"/><stop offset="1" stop-color="#000000" stop-opacity="0.74902"/></linearGradient></defs><g transform="translate(-190.64672,-142.99982)"><g data-paper-data="{&quot;isPaintingLayer&quot;:true}" fill-rule="nonzero" stroke-linejoin="miter" stroke-miterlimit="10" stroke-dasharray="" stroke-dashoffset="0" style="mix-blend-mode: normal"><path d="M194.5803,212.82078c-3.53371,-3.53337 -3.93358,-8.62388 -3.93358,-8.62388v-48.38701c0,0 0.46075,-5.27926 3.99503,-8.81504c3.53428,-3.53579 8.80958,-3.99503 8.80958,-3.99503h73.09734c0,0 4.89104,0.23199 8.44081,3.74919c3.54977,3.51721 4.36381,8.93797 4.36381,8.93797v48.66356c0,0 -0.63465,5.28017 -4.17943,8.71609c-3.54478,3.43592 -8.87102,3.93358 -8.87102,3.93358h-72.85149c0,0 -5.33733,-0.64608 -8.87104,-4.17943z" fill="url(#color-1)" stroke="none" stroke-width="0" stroke-linecap="butt"/><text transform="translate(194.61359,206.93445) scale(0.45601,0.45601)" font-size="40" xml:space="preserve" fill="#ffffff" fill-rule="nonzero" stroke="none" stroke-width="1" stroke-linecap="butt" stroke-linejoin="miter" stroke-miterlimit="10" stroke-dasharray="" stroke-dashoffset="0" font-family="Sans Serif" font-weight="normal" text-anchor="start" style="mix-blend-mode: normal"><tspan x="0" dy="0">Play Again</tspan></text><path d="M220.5242,155.2597l13.19267,-2.16249l0.15466,12.80009" data-paper-data="{&quot;index&quot;:null}" fill="none" stroke="#ffffff" stroke-width="4.5" stroke-linecap="round"/><path d="M248.9553,158.51709c3.31263,3.0525 5.21369,7.56085 4.76347,12.39225c-0.76626,8.22303 -8.05352,14.26793 -16.27655,13.50166c-8.22303,-0.76626 -14.26793,-8.05352 -13.50166,-16.27655c0.46712,-5.01276 4.14815,-10.30579 8.19658,-12.65017" data-paper-data="{&quot;index&quot;:null}" fill="none" stroke="#ffffff" stroke-width="4.5" stroke-linecap="butt"/><path d="M246.53489,157.86978c0.3378,-1.33875 1.69691,-2.15018 3.03567,-1.81238c1.33875,0.3378 2.15018,1.69691 1.81238,3.03567c-0.3378,1.33875 -1.69691,2.15018 -3.03567,1.81238c-1.33875,-0.3378 -2.15018,-1.69691 -1.81238,-3.03567z" data-paper-data="{&quot;index&quot;:null}" fill="#ffffff" stroke="none" stroke-width="0.5" stroke-linecap="butt"/></g></g></svg>