<svg version="1.1" xmlns="http://www.w3.org/2000/svg" xmlns:xlink="http://www.w3.org/1999/xlink" width="165.24597" height="173.43609" viewBox="0,0,165.24597,173.43609"><defs><linearGradient x1="179.49097" y1="199.82038" x2="222.40734" y2="199.82038" gradientUnits="userSpaceOnUse" id="color-1"><stop offset="0" stop-color="#0400ff"/><stop offset="1" stop-color="#5b58ff"/></linearGradient><linearGradient x1="107.82754" y1="146.53764" x2="194.75017" y2="146.53764" gradientUnits="userSpaceOnUse" id="color-2"><stop offset="0" stop-color="#0400ff"/><stop offset="1" stop-color="#5b58ff"/></linearGradient><linearGradient x1="174.71674" y1="149.42965" x2="231.40903" y2="149.42965" gradientUnits="userSpaceOnUse" id="color-3"><stop offset="0" stop-color="#0400ff"/><stop offset="1" stop-color="#5b58ff"/></linearGradient><linearGradient x1="202.02306" y1="164.72055" x2="231.3564" y2="164.72055" gradientUnits="userSpaceOnUse" id="color-4"><stop offset="0" stop-color="#ffffff" stop-opacity="0"/><stop offset="1" stop-color="#ffffff" stop-opacity="0.55686"/></linearGradient><linearGradient x1="198.8564" y1="158.43324" x2="228.18973" y2="158.43324" gradientUnits="userSpaceOnUse" id="color-5"><stop offset="0" stop-color="#000000" stop-opacity="0"/><stop offset="1" stop-color="#000000" stop-opacity="0"/></linearGradient><linearGradient x1="194.93664" y1="150.56814" x2="249.7594" y2="150.56814" gradientUnits="userSpaceOnUse" id="color-6"><stop offset="0" stop-color="#0400ff"/><stop offset="1" stop-color="#5b58ff"/></linearGradient><linearGradient x1="204.86439" y1="150.97021" x2="249.75942" y2="150.97021" gradientUnits="userSpaceOnUse" id="color-7"><stop offset="0" stop-color="#ffffff" stop-opacity="0"/><stop offset="1" stop-color="#ffffff" stop-opacity="0.27451"/></linearGradient><linearGradient x1="160.86308" y1="74.73471" x2="202.10049" y2="80.10145" gradientUnits="userSpaceOnUse" id="color-8"><stop offset="0" stop-color="#8280ff"/><stop offset="1" stop-color="#ffffff"/></linearGradient><linearGradient x1="156.60875" y1="103.95743" x2="237.09994" y2="114.43278" gradientUnits="userSpaceOnUse" id="color-9"><stop offset="0" stop-color="#8280ff"/><stop offset="1" stop-color="#c5c5ff"/></linearGradient><radialGradient cx="200.57332" cy="121.87789" r="43.34259" gradientUnits="userSpaceOnUse" id="color-10"><stop offset="0" stop-color="#5b58ff"/><stop offset="1" stop-color="#0300a2"/></radialGradient><linearGradient x1="223.01774" y1="195.56869" x2="273.07343" y2="195.56869" gradientUnits="userSpaceOnUse" id="color-11"><stop offset="0" stop-color="#0400ff"/><stop offset="1" stop-color="#5b58ff"/></linearGradient><linearGradient x1="165.31593" y1="102.3097" x2="237.32515" y2="102.3097" gradientUnits="userSpaceOnUse" id="color-12"><stop offset="0" stop-color="#ffffff" stop-opacity="0"/><stop offset="1" stop-color="#ffffff" stop-opacity="0.45882"/></linearGradient><linearGradient x1="248.04555" y1="171.55833" x2="248.04555" y2="224.38096" gradientUnits="userSpaceOnUse" id="color-13"><stop offset="0" stop-color="#ffffff" stop-opacity="0.24314"/><stop offset="1" stop-color="#ffffff" stop-opacity="0"/></linearGradient></defs><g transform="translate(-107.82746,-54.24292)"><g data-paper-data="{&quot;isPaintingLayer&quot;:true}" fill-rule="nonzero" stroke-width="0" stroke-linecap="butt" stroke-linejoin="miter" stroke-miterlimit="10" stroke-dasharray="" stroke-dashoffset="0" style="mix-blend-mode: normal"><path d="M207.07023,227.1861l-5.02552,0.49291l-3.19655,-9.62727l-15.08544,-5.41469l-4.27175,-25.54239l17.64037,-8.13084l5.81387,17.99565l15.82464,6.61244l3.63741,7.95432z" fill="url(#color-1)" stroke="none"/><path d="M107.86677,151.16246c-0.88698,-11.71396 13.40199,-17.00565 25.89352,-17.59386c0.31143,-0.01468 0.6216,-0.02855 0.93076,-0.03527c13.62825,-0.29595 53.77563,4.85276 53.77563,4.85276l6.28346,7.38819c0,0 -2.31018,5.52654 -2.64317,8.15126c-0.03936,0.31032 -31.64043,-5.71288 -31.64043,-5.71288l-26.28053,5.43976c0,0 -7.36414,5.43182 -14.69326,5.87892c-4.31973,0.26352 -11.12068,-1.6964 -11.62595,-8.36883z" fill="url(#color-2)" stroke="none"/><path d="M179.30569,187.62984l6.92457,-52.04582l2.89118,12.18709c0,0 6.49982,-2.33492 12.62356,-2.41948c7.29785,-0.1008 11.19857,1.41816 11.19857,1.41816l18.4655,32.61985l-13.70009,10.86491z" data-paper-data="{&quot;index&quot;:null}" fill="url(#color-3)" stroke="none"/><path d="M196.52306,188.59992l15.66666,-16.46875l-4,-32.86458l23.16667,39.33333l-13.36668,11.5746z" fill="url(#color-4)" stroke="url(#color-5)"/><path d="M213.3309,139.22299c-0.00538,-3.43667 -20.51324,-7.7317 -18.2145,-7.03225c16.83178,5.12132 35.45449,8.00786 46.45023,15.98558c3.46652,2.51506 5.94106,5.53612 7.66433,9.29275c0.54077,1.57848 0.68589,3.23987 0.34514,4.85421c-1.09985,5.2098 -6.84426,7.95671 -12.83049,6.13533c-4.26848,-1.29871 -7.50735,-4.56941 -8.61599,-8.2283c-0.12406,-0.40945 0.16041,-1.03085 -0.29059,-1.24063c-0.19359,-0.09004 -6.31705,-4.01314 -13.55125,-7.6202c-7.23423,-3.60703 -0.95681,-12.14646 -0.95681,-12.14646z" fill="url(#color-6)" stroke="none"/><path d="M213.3309,139.22299c-0.00538,-3.43667 -5.34658,-2.56503 -3.04784,-1.86558c7.07685,2.15324 9.12255,1.99809 13.02494,2.84706c5.37916,1.17025 11.886,3.34834 18.25862,7.97186c3.46652,2.51506 5.94106,5.53612 7.66433,9.29275c0.54077,1.57848 0.68589,3.23987 0.34514,4.85421c-0.13669,0.64748 -0.34512,1.25691 -0.61684,1.82427c-0.18111,0.37817 -0.62518,1.07722 -0.62518,1.07722c0,0 2.44539,-8.94799 -13.14065,-14.72853c-10.69303,-3.96582 -39.07952,-4.37421 -27.67476,-4.37421l5.8123,-6.89901z" fill="url(#color-7)" stroke="none"/><path d="M187.31837,91.71392l-30.95469,-37.471c0,0 15.56631,6.98734 31.64019,10.94941c7.5557,1.8624 15.65073,3.40217 21.38824,5.23949c3.88952,1.24554 7.55102,3.75986 9.21088,4.61094c3.43134,1.75932 7.19086,6.54976 7.19086,6.54976l-25.52762,12.60276z" fill="url(#color-8)" stroke="none"/><path d="M156.60875,103.95743c2.89268,-22.22702 23.25619,-37.90056 45.48326,-35.00792c22.22701,2.89265 37.90056,23.25618 35.0079,45.48326c-2.89266,22.22701 -23.25619,37.90056 -45.48326,35.00791c-22.22699,-2.89268 -37.90057,-23.25619 -35.0079,-45.48327z" fill="url(#color-9)" stroke="none"/><path d="M128.09595,66.48574c0,0 47.1117,6.6714 57.68751,23.79414c4.78712,7.75058 0.44844,9.75301 4.29453,16.47538c3.16232,5.52719 12.22879,4.84046 14.22881,12.15355c2.08435,7.62122 -1.00654,10.49513 -0.49933,16.913c0.72228,9.14045 10.97363,10.03345 10.97363,10.03345c0,0 -2.60663,1.20458 -3.95926,1.70294c-5.95376,2.19355 -12.51115,3.01915 -19.23925,2.14351c-19.51505,-2.53974 -34.11248,-18.53859 -35.2594,-37.45902c-1.90894,-31.49238 -28.22732,-45.75691 -28.22732,-45.75691z" fill="url(#color-10)" stroke="none"/><path d="M175.86578,132.27848l1.36083,-10.64007l-8.84716,-12.17523l29.77767,10.98129l-0.52902,9.10754z" data-paper-data="{&quot;index&quot;:null}" fill="#ffffff" stroke="none"/><path d="M189.1496,129.52401l-0.94131,-9.70262l8.73113,2.83971l-1.15493,6.23936z" data-paper-data="{&quot;index&quot;:null}" fill="#5552f9" stroke="none"/><path d="M273.07343,208.57298l-8.27468,16.00779l-9.5535,-1.96983l-3.57466,-15.03075l-28.65291,-23.18316l0.44582,-8.04728l3.71095,-4.7914l44.49736,21.17976z" data-paper-data="{&quot;index&quot;:null}" fill="url(#color-11)" stroke="none"/><path d="M166.53739,82.094c14.97246,-16.68033 40.63207,-18.06482 57.31247,-3.09236c16.08586,14.43883 17.94671,38.81666 4.63089,55.4957c-0.40591,0.50844 -1.26007,1.50334 -1.26007,1.50334c0,0 11.27838,-27.37612 -11.89493,-47.68881c-22.02519,-19.3063 -50.00981,-4.79332 -50.00981,-4.79332c0,0 0.80145,-0.95664 1.22148,-1.42457z" fill="url(#color-12)" stroke="none"/><path d="M214.70336,128.22979l-4.74115,-9.30249l33.30822,-24.3699l-12.78679,18.86239l5.2907,9.45226z" fill="#000000" stroke="none"/><path d="M217.58264,125.50104l-3.83607,-5.38011l7.6338,-5.51637l1.40641,9.64619z" fill="#ffffff" stroke="none"/><path d="M273.07343,208.73964l-8.39301,15.64132l3.01863,-21.14831l-17.87369,-15.18627l-26.80767,-3.64936l0.44582,-8.04728l3.71095,-4.7914l44.49736,21.17976z" data-paper-data="{&quot;index&quot;:null}" fill="url(#color-13)" stroke="none"/></g></g></svg>