<svg version="1.1" xmlns="http://www.w3.org/2000/svg" xmlns:xlink="http://www.w3.org/1999/xlink" width="74.95779" height="74.95779" viewBox="0,0,74.95779,74.95779"><defs><radialGradient cx="237.00008" cy="180.00003" r="37.47889" gradientUnits="userSpaceOnUse" id="color-1"><stop offset="0" stop-color="#000000"/><stop offset="1" stop-color="#000000" stop-opacity="0"/></radialGradient><linearGradient x1="237.00007" y1="150.72769" x2="237.00007" y2="209.27235" gradientUnits="userSpaceOnUse" id="color-2"><stop offset="0" stop-color="#ff7b7b"/><stop offset="1" stop-color="#ff0000"/></linearGradient><radialGradient cx="240.30875" cy="180.00003" r="22.92352" gradientUnits="userSpaceOnUse" id="color-3"><stop offset="0" stop-color="#aa0000"/><stop offset="1" stop-color="#aa0000" stop-opacity="0"/></radialGradient><radialGradient cx="224.2065" cy="180.00003" r="22.92351" gradientUnits="userSpaceOnUse" id="color-4"><stop offset="0" stop-color="#aa0000"/><stop offset="1" stop-color="#aa0000" stop-opacity="0"/></radialGradient><radialGradient cx="256.78484" cy="179.98617" r="14.82918" gradientUnits="userSpaceOnUse" id="color-5"><stop offset="0" stop-color="#c60000"/><stop offset="1" stop-color="#c60000" stop-opacity="0"/></radialGradient></defs><g transform="translate(-199.52117,-142.52113)"><g data-paper-data="{&quot;isPaintingLayer&quot;:true}" fill-rule="nonzero" stroke-linejoin="miter" stroke-miterlimit="10" stroke-dasharray="" stroke-dashoffset="0" style="mix-blend-mode: normal"><path d="M199.52117,180.00003c0,-20.69902 16.77988,-37.47889 37.47889,-37.47889c20.69902,0 37.47889,16.77988 37.47889,37.47889c0,20.69902 -16.77987,37.47889 -37.47889,37.47889c-20.69902,0 -37.47889,-16.77989 -37.47889,-37.47889z" fill="url(#color-1)" stroke="#000000" stroke-width="0" stroke-linecap="butt"/><path d="M207.72774,180.00003c0,-16.16665 13.10567,-29.27232 29.27232,-29.27232c16.16665,0 29.27232,13.10567 29.27232,29.27232c0,16.16665 -13.10567,29.27232 -29.27232,29.27232c-16.16665,0 -29.27232,-13.10567 -29.27232,-29.27232z" fill="url(#color-2)" stroke="#000000" stroke-width="0" stroke-linecap="butt"/><path d="M233.80168,207.46207c0,0 -2.42636,-19.4285 -2.42636,-29.64213c0,-11.00961 3.52926,-25.50256 3.52926,-25.50256l9.70546,-0.22058c0,0 -0.53898,16.93251 -0.27269,26.59512c0.24693,8.95997 1.81675,29.43188 1.81675,29.43188z" fill="url(#color-3)" stroke="none" stroke-width="0" stroke-linecap="butt"/><path d="M217.03769,198.41835c0,0 -2.13187,-15.21322 -2.09502,-21.47624c0.03669,-6.23632 2.3156,-16.02214 2.3156,-16.02214l11.4701,-7.49967c0,0 -5.67553,6.27758 -5.71159,23.95132c-0.03663,17.95911 5.27044,29.64931 5.27044,29.64931z" fill="url(#color-4)" stroke="none" stroke-width="0" stroke-linecap="butt"/><path d="M254.28774,202.26741c0,0 0.94479,-16.9522 0.91988,-24.7657c-0.02238,-7.01977 -1.06258,-19.98969 -1.06258,-19.98969l5.27961,4.43697c0,0 1.964,10.33943 2.02702,15.53696c0.07689,6.34112 -1.59894,19.76578 -1.59894,19.76578z" fill="url(#color-5)" stroke="none" stroke-width="0" stroke-linecap="butt"/><path d="M235.47903,169.11259c0,-2.61427 2.11928,-4.73355 4.73355,-4.73355c2.61427,0 4.73355,2.11928 4.73355,4.73355c0,2.61427 -2.11928,4.73355 -4.73355,4.73355c-2.61427,0 -4.73355,-2.11928 -4.73355,-4.73355z" fill="#000000" stroke="#000000" stroke-width="0" stroke-linecap="butt"/><path d="M236.44789,193.27767l4.30537,-6.83794l4.05211,6.83794" fill="none" stroke="#000000" stroke-width="2" stroke-linecap="round"/><path d="M246.60253,174.72772l5.56605,5.43206l-5.56605,5.11252" data-paper-data="{&quot;index&quot;:null}" fill="none" stroke="#000000" stroke-width="2" stroke-linecap="round"/><path d="M232.41809,159.72299c-0.99144,1.25729 -2.38972,1.80769 -3.12315,1.22935c-0.73343,-0.57834 -0.52426,-2.06643 0.46718,-3.32372c0.99144,-1.25729 2.38972,-1.80771 3.12315,-1.22937c0.73343,0.57834 0.52426,2.06643 -0.46719,3.32373z" fill="#ffffff" stroke="#000000" stroke-width="0" stroke-linecap="butt"/><path d="M228.37084,166.81066c-0.91676,2.2244 -2.99333,3.47809 -4.63814,2.80021c-1.64482,-0.67789 -2.23503,-3.03067 -1.31826,-5.25507c0.91676,-2.2244 2.99334,-3.4781 4.63815,-2.80021c1.64482,0.67789 2.23502,3.03068 1.31826,5.25508z" fill="#ffffff" stroke="#000000" stroke-width="0" stroke-linecap="butt"/></g></g></svg>