<svg version="1.1" xmlns="http://www.w3.org/2000/svg" xmlns:xlink="http://www.w3.org/1999/xlink" width="39.42844" height="39.97726" viewBox="0,0,39.42844,39.97726"><g transform="translate(-220.28578,-160.01137)"><g data-paper-data="{&quot;isPaintingLayer&quot;:true}" fill-rule="nonzero" stroke-linecap="butt" stroke-linejoin="miter" stroke-miterlimit="10" stroke-dasharray="" stroke-dashoffset="0" style="mix-blend-mode: normal"><path d="M255.6,180.00004c0,8.59858 -6.98436,15.56911 -15.6,15.56911c-8.61564,0 -15.6,-6.97053 -15.6,-15.56911c0,-8.59858 6.98436,-15.56911 15.6,-15.56911c8.61564,0 15.6,6.97053 15.6,15.56911z" fill="#ffffff" stroke="none" stroke-width="0"/><path d="M258.71422,180c0,10.48713 -8.37864,18.98863 -18.71422,18.98863c-10.33558,0 -18.71422,-8.5015 -18.71422,-18.98863c0,-10.48713 8.37864,-18.98863 18.71422,-18.98863c10.33558,0 18.71422,8.5015 18.71422,18.98863z" fill="none" stroke="#ffffff" stroke-width="2"/><path d="" fill="#ffa000" stroke="none" stroke-width="0.5"/><path d="M245.20044,190.31273c-5.3958,0 -9.76997,-4.61717 -9.76997,-10.31273c0,-5.69557 4.37415,-10.31273 9.76997,-10.31273c5.3958,0 9.76997,4.61717 9.76997,10.31273c0,5.69557 -4.37415,10.31273 -9.76997,10.31273z" fill="none" stroke-opacity="0.5" stroke="#000000" stroke-width="1.5"/><path d="M246.74209,186.74593c-3.25692,0 -5.89718,-3.02025 -5.89718,-6.74593c0,-3.72567 2.64026,-6.74593 5.89718,-6.74593c3.25692,0 5.89718,3.02025 5.89718,6.74593c0,3.72567 -2.64026,6.74593 -5.89718,6.74593z" fill="none" stroke-opacity="0.5" stroke="#000000" stroke-width="1.5"/></g></g></svg>