<svg version="1.1" xmlns="http://www.w3.org/2000/svg" xmlns:xlink="http://www.w3.org/1999/xlink" width="37.6" height="43.6" viewBox="0,0,37.6,43.6"><g transform="translate(-221.20006,-158.20004)"><g data-paper-data="{&quot;isPaintingLayer&quot;:true}" fill-rule="nonzero" stroke="none" stroke-linecap="butt" stroke-linejoin="miter" stroke-miterlimit="10" stroke-dasharray="" stroke-dashoffset="0" style="mix-blend-mode: normal"><path d="M221.20006,201.80003v-43.6h37.6v43.6z" fill="none" stroke-width="0"/><path d="M247.96101,168.0331v18.32148c0,2.19614 -0.40669,3.95169 -1.22008,5.26666c-0.79982,1.31497 -1.81656,2.24358 -3.05019,2.78584c-1.23364,0.5287 -2.56216,0.79304 -3.98558,0.79304c-1.83011,0 -3.56533,-0.38636 -5.20566,-1.15907c-1.64033,-0.78627 -2.46049,-1.98601 -2.46049,-3.59923c0,-0.37958 0.10167,-0.76594 0.30502,-1.15907c0.20335,-0.40669 0.48125,-0.73882 0.83372,-0.99639c0.36602,-0.25757 0.76594,-0.38636 1.19974,-0.38636c0.36602,0 0.75916,0.07456 1.17941,0.22369c0.42025,0.14912 0.89472,0.35247 1.42342,0.61004c0.54226,0.25757 0.97606,0.44058 1.30142,0.54903c0.32535,0.10845 0.69138,0.16268 1.09807,0.16268c1.01673,0 1.65388,-0.32535 1.91146,-0.97606c0.27112,-0.66426 0.40669,-1.50476 0.40669,-2.52149v-17.91479c0,-1.00317 0.29146,-1.78945 0.87438,-2.35881c0.59648,-0.58293 1.34886,-0.87439 2.25714,-0.87439c0.9354,0 1.68779,0.28468 2.25716,0.85405c0.58292,0.55581 0.87438,1.34886 0.87438,2.37915z" fill="#ff0000" stroke-width="0.40889"/></g></g></svg>