<svg version="1.1" xmlns="http://www.w3.org/2000/svg" xmlns:xlink="http://www.w3.org/1999/xlink" width="85.27406" height="170.16389" viewBox="0,0,85.27406,170.16389"><defs><radialGradient cx="292.74987" cy="216.45327" r="23.39433" gradientUnits="userSpaceOnUse" id="color-1"><stop offset="0" stop-color="#000000" stop-opacity="0.21895"/><stop offset="1" stop-color="#000000" stop-opacity="0"/></radialGradient><linearGradient x1="292.74987" y1="193.05893" x2="292.74987" y2="239.84763" gradientUnits="userSpaceOnUse" id="color-2"><stop offset="0" stop-color="#ff5454"/><stop offset="1" stop-color="#eb0000"/></linearGradient><radialGradient cx="291.78569" cy="142.86516" r="23.39433" gradientUnits="userSpaceOnUse" id="color-3"><stop offset="0" stop-color="#000000" stop-opacity="0.21895"/><stop offset="1" stop-color="#000000" stop-opacity="0"/></radialGradient><linearGradient x1="291.78569" y1="119.47081" x2="291.78569" y2="166.2595" gradientUnits="userSpaceOnUse" id="color-4"><stop offset="0" stop-color="#ff5454"/><stop offset="1" stop-color="#eb0000"/></linearGradient><radialGradient cx="293.11217" cy="182.70044" r="20.78815" gradientUnits="userSpaceOnUse" id="color-5"><stop offset="0" stop-color="#000000" stop-opacity="0.63137"/><stop offset="1" stop-color="#000000" stop-opacity="0"/></radialGradient><linearGradient x1="293.11217" y1="161.91227" x2="293.11217" y2="203.48859" gradientUnits="userSpaceOnUse" id="color-6"><stop offset="0" stop-color="#ff5454"/><stop offset="1" stop-color="#eb0000"/></linearGradient><radialGradient cx="281.0354" cy="175.18368" r="20.34342" gradientUnits="userSpaceOnUse" id="color-7"><stop offset="0" stop-color="#000000" stop-opacity="0.63137"/><stop offset="1" stop-color="#000000" stop-opacity="0"/></radialGradient><linearGradient x1="281.0354" y1="154.84024" x2="281.0354" y2="195.52709" gradientUnits="userSpaceOnUse" id="color-8"><stop offset="0" stop-color="#ff5454"/><stop offset="1" stop-color="#eb0000"/></linearGradient><linearGradient x1="299.98062" y1="170.92967" x2="278.27831" y2="170.92967" gradientUnits="userSpaceOnUse" id="color-9"><stop offset="0" stop-color="#ff5454"/><stop offset="1" stop-color="#eb0000"/></linearGradient><linearGradient x1="301.18644" y1="180.00005" x2="271.29917" y2="180.00005" gradientUnits="userSpaceOnUse" id="color-10"><stop offset="0" stop-color="#ff6f6f"/><stop offset="1" stop-color="#e20000"/></linearGradient><linearGradient x1="290.52867" y1="177.08682" x2="301.33148" y2="177.08682" gradientUnits="userSpaceOnUse" id="color-11"><stop offset="0" stop-color="#808080"/><stop offset="1" stop-color="#ffffff"/></linearGradient><linearGradient x1="277.63225" y1="180.1708" x2="296.45236" y2="180.1708" gradientUnits="userSpaceOnUse" id="color-12"><stop offset="0" stop-color="#a5a5a5"/><stop offset="1" stop-color="#ffffff"/></linearGradient><linearGradient x1="256.75616" y1="180.09173" x2="292.81486" y2="180.09173" gradientUnits="userSpaceOnUse" id="color-13"><stop offset="0" stop-color="#ab0000"/><stop offset="1" stop-color="#ff5454"/></linearGradient><linearGradient x1="266.86935" y1="179.93357" x2="270.6821" y2="179.93357" gradientUnits="userSpaceOnUse" id="color-14"><stop offset="0" stop-color="#ab0000"/><stop offset="1" stop-color="#ff5454"/></linearGradient><linearGradient x1="273.05705" y1="189.01059" x2="251.35475" y2="189.01059" gradientUnits="userSpaceOnUse" id="color-15"><stop offset="0" stop-color="#ff5454"/><stop offset="1" stop-color="#eb0000"/></linearGradient></defs><g transform="translate(-245.20235,-94.91809)"><g data-paper-data="{&quot;isPaintingLayer&quot;:true}" fill-rule="nonzero" stroke-linejoin="miter" stroke-miterlimit="10" stroke-dasharray="" stroke-dashoffset="0" style="mix-blend-mode: normal"><path d="M245.20235,265.08198v-170.16389h85.27406v170.16389z" fill="none" stroke="none" stroke-width="0" stroke-linecap="butt"/><path d="M292.74993,239.84758c-12.92034,0 -23.39434,-10.474 -23.39434,-23.39433c0,-12.92037 10.474,-23.39437 23.39434,-23.39437c12.92033,0 23.39433,10.47404 23.39433,23.39437c0,12.92035 -10.47399,23.39433 -23.39433,23.39433z" data-paper-data="{&quot;index&quot;:null}" fill="url(#color-1)" stroke="url(#color-2)" stroke-width="0" stroke-linecap="butt"/><path d="M291.78575,166.25948c-12.92033,0 -23.39433,-10.474 -23.39433,-23.39433c0,-12.92037 10.474,-23.39437 23.39433,-23.39437c12.92033,0 23.39433,10.47404 23.39433,23.39437c0,12.92035 -10.474,23.39433 -23.39433,23.39433z" data-paper-data="{&quot;index&quot;:null}" fill="url(#color-3)" stroke="url(#color-4)" stroke-width="0" stroke-linecap="butt"/><path d="M272.32403,182.70044c0,-11.48098 9.30718,-20.78815 20.78815,-20.78815c11.48097,0 20.78815,9.30718 20.78815,20.78815c0,11.48098 -9.30718,20.78815 -20.78815,20.78815c-11.48097,0 -20.78815,-9.30718 -20.78815,-20.78815z" fill="url(#color-5)" stroke="url(#color-6)" stroke-width="0" stroke-linecap="butt"/><path d="M260.69199,175.18368c0,-11.23536 9.10806,-20.34342 20.34342,-20.34342c11.23537,0 20.34342,9.10807 20.34342,20.34342c0,11.23536 -9.10806,20.34342 -20.34342,20.34342c-11.23537,0 -20.34342,-9.10807 -20.34342,-20.34342z" fill="url(#color-7)" stroke="url(#color-8)" stroke-width="0" stroke-linecap="butt"/><path d="M289.12947,181.78083c-5.99292,0 -10.85115,-4.85822 -10.85115,-10.85115c0,-5.99292 4.85822,-10.85115 10.85115,-10.85115c5.99292,0 10.85115,4.85822 10.85115,10.85115c0,5.99292 -4.85822,10.85115 -10.85115,10.85115z" data-paper-data="{&quot;index&quot;:null}" fill="url(#color-9)" stroke="#000000" stroke-width="0" stroke-linecap="butt"/><path d="M303.68547,179.7895c0.49016,55.35299 -27.4303,73.69423 -27.4303,73.69423l-4.52302,0.70691c0,0 17.372,-29.71213 16.83874,-74.82225c-0.53326,-45.11012 -16.90849,-73.4572 -16.90849,-73.4572l4.59275,0.60519c0,0 26.94016,17.92013 27.43032,73.27312z" data-paper-data="{&quot;index&quot;:null}" fill="url(#color-10)" stroke="#c4c4c4" stroke-width="0" stroke-linecap="butt"/><path d="M295.93008,194.00912v-27.20219" data-paper-data="{&quot;index&quot;:null}" fill="none" stroke="url(#color-11)" stroke-width="12.5" stroke-linecap="round"/><path d="M272.93642,253.04945l-18.82011,-73.06256l18.82011,-73.06257" data-paper-data="{&quot;index&quot;:null}" fill="none" stroke="#ffffff" stroke-width="2" stroke-linecap="round"/><path d="M296.45235,198.59551l-18.82011,-18.82011l18.02936,-18.02936" data-paper-data="{&quot;index&quot;:null}" fill="none" stroke="url(#color-12)" stroke-width="5" stroke-linecap="round"/><path d="M256.75616,180.09173h36.05871" data-paper-data="{&quot;index&quot;:null}" fill="none" stroke="url(#color-13)" stroke-width="7.5" stroke-linecap="round"/><path d="M268.77573,190.84606v-21.825" data-paper-data="{&quot;index&quot;:null}" fill="none" stroke="url(#color-14)" stroke-width="3" stroke-linecap="round"/><path d="M262.2059,199.86172c-5.99293,0 -10.85116,-4.85823 -10.85116,-10.85115c0,-5.99293 4.85823,-10.85116 10.85116,-10.85116c5.99292,0 10.85115,4.85824 10.85115,10.85116c0,5.99292 -4.85823,10.85115 -10.85115,10.85115z" data-paper-data="{&quot;index&quot;:null}" fill="url(#color-15)" stroke="#000000" stroke-width="0" stroke-linecap="butt"/></g></g></svg>