<svg version="1.1" xmlns="http://www.w3.org/2000/svg" xmlns:xlink="http://www.w3.org/1999/xlink" width="228" height="228" viewBox="0,0,228,228"><defs><radialGradient cx="240.00005" cy="180.00001" r="77.30455" gradientUnits="userSpaceOnUse" id="color-1"><stop offset="0" stop-color="#ffffff"/><stop offset="1" stop-color="#ff0000"/></radialGradient><linearGradient x1="163.64666" y1="172.1867" x2="202.02004" y2="133.81331" gradientUnits="userSpaceOnUse" id="color-2"><stop offset="0" stop-color="#000000"/><stop offset="1" stop-color="#000000" stop-opacity="0"/></linearGradient><radialGradient cx="240.00005" cy="180.00001" r="27.0104" gradientUnits="userSpaceOnUse" id="color-3"><stop offset="0" stop-color="#000000"/><stop offset="1" stop-color="#bf0000"/></radialGradient><radialGradient cx="240.00005" cy="180.00001" r="17.0104" gradientUnits="userSpaceOnUse" id="color-4"><stop offset="0" stop-color="#ff7979"/><stop offset="1" stop-color="#ff0000"/></radialGradient><linearGradient x1="170.75" y1="151.74453" x2="243.02601" y2="151.74453" gradientUnits="userSpaceOnUse" id="color-5"><stop offset="0" stop-color="#000000" stop-opacity="0.54902"/><stop offset="1" stop-color="#000000" stop-opacity="0"/></linearGradient><linearGradient x1="179.72054" y1="156.11565" x2="242.97764" y2="156.11565" gradientUnits="userSpaceOnUse" id="color-6"><stop offset="0" stop-color="#000000" stop-opacity="0.54902"/><stop offset="1" stop-color="#000000" stop-opacity="0"/></linearGradient><linearGradient x1="189.15245" y1="160.60255" x2="243.03171" y2="160.60255" gradientUnits="userSpaceOnUse" id="color-7"><stop offset="0" stop-color="#000000" stop-opacity="0.54902"/><stop offset="1" stop-color="#000000" stop-opacity="0"/></linearGradient><linearGradient x1="309.24998" y1="208.25546" x2="236.974" y2="208.25546" gradientUnits="userSpaceOnUse" id="color-8"><stop offset="0" stop-color="#000000" stop-opacity="0.54902"/><stop offset="1" stop-color="#000000" stop-opacity="0"/></linearGradient><linearGradient x1="300.27947" y1="203.88436" x2="237.02236" y2="203.88436" gradientUnits="userSpaceOnUse" id="color-9"><stop offset="0" stop-color="#000000" stop-opacity="0.54902"/><stop offset="1" stop-color="#000000" stop-opacity="0"/></linearGradient><linearGradient x1="290.84756" y1="199.39746" x2="236.96828" y2="199.39746" gradientUnits="userSpaceOnUse" id="color-10"><stop offset="0" stop-color="#000000" stop-opacity="0.54902"/><stop offset="1" stop-color="#000000" stop-opacity="0"/></linearGradient><linearGradient x1="151.38115" y1="172.50001" x2="211.28561" y2="172.50001" gradientUnits="userSpaceOnUse" id="color-11"><stop offset="0" stop-color="#ff0000"/><stop offset="1" stop-color="#ff8181"/></linearGradient><linearGradient x1="316.35336" y1="187.81332" x2="277.97998" y2="226.1867" gradientUnits="userSpaceOnUse" id="color-12"><stop offset="0" stop-color="#000000"/><stop offset="1" stop-color="#000000" stop-opacity="0"/></linearGradient><linearGradient x1="268.71443" y1="187.50001" x2="328.61894" y2="187.50001" gradientUnits="userSpaceOnUse" id="color-13"><stop offset="0" stop-color="#ff8181"/><stop offset="1" stop-color="#ff0000"/></linearGradient><radialGradient cx="171.87505" cy="190.87501" r="8.25" gradientUnits="userSpaceOnUse" id="color-14"><stop offset="0" stop-color="#ff2424" stop-opacity="0.74902"/><stop offset="1" stop-color="#ff2424" stop-opacity="0"/></radialGradient><radialGradient cx="308.12502" cy="169.12501" r="8.25" gradientUnits="userSpaceOnUse" id="color-15"><stop offset="0" stop-color="#ff2424" stop-opacity="0.74902"/><stop offset="1" stop-color="#ff2424" stop-opacity="0"/></radialGradient></defs><g transform="translate(-126,-66)"><g data-paper-data="{&quot;isPaintingLayer&quot;:true}" fill-rule="nonzero" stroke-linecap="butt" stroke-linejoin="miter" stroke-miterlimit="10" stroke-dasharray="" stroke-dashoffset="0" style="mix-blend-mode: normal"><path d="M126,294v-228h228v228z" fill="none" stroke="none" stroke-width="0"/><g><path d="M240.00006,257.30456c-42.69413,0 -77.30456,-34.61043 -77.30455,-77.30455c0,-42.69413 34.61043,-77.30456 77.30455,-77.30455c42.69413,0 77.30455,34.61043 77.30455,77.30455c0,42.69413 -34.61043,77.30455 -77.30455,77.30455z" fill="url(#color-1)" stroke="#000000" stroke-width="0"/><path d="M202.2155,185.75555l-43.85243,0.03262l2.96475,-35.4203l21.62339,-35.62339l38.13768,38.13768z" fill="url(#color-2)" stroke="#000000" stroke-width="0"/><path d="M209.71229,210.28775c-16.72745,-16.72745 -16.72745,-43.84802 0,-60.57547c16.72745,-16.72745 43.84801,-16.72745 60.57546,0c16.72745,16.72745 16.72745,43.84802 0,60.57547c-16.72745,16.72745 -43.84801,16.72745 -60.57546,0z" fill="#000000" stroke="#000000" stroke-width="0"/><path d="M220.90081,199.09925c-10.54822,-10.54822 -10.54822,-27.65027 0,-38.19849c10.54822,-10.54822 27.65026,-10.54822 38.19848,0c10.54822,10.54822 10.54822,27.65027 0,38.19849c-10.54822,10.54822 -27.65026,10.54822 -38.19848,0z" fill="url(#color-3)" stroke="#000000" stroke-width="0"/><path d="M227.97185,192.02819c-6.64297,-6.64297 -6.64297,-17.41338 0,-24.05635c6.64297,-6.64297 17.41337,-6.64297 24.05635,0c6.64297,6.64297 6.64297,17.41338 0,24.05635c-6.64297,6.64297 -17.41337,6.64297 -24.05635,0z" fill="url(#color-4)" stroke="#000000" stroke-width="0"/><g fill="none" stroke-width="4"><g><path d="M171.19746,187.88328c-2.30672,-20.24852 4.30507,-41.32011 19.83539,-56.85042c14.29169,-14.29169 33.27599,-21.03073 51.99315,-20.21712" stroke="url(#color-5)"/><path d="M180.18783,187.51347c-2.22638,-17.82407 3.503,-36.45232 17.18816,-50.13748c12.52783,-12.52783 29.19804,-18.3886 45.60165,-17.58231" stroke="url(#color-6)"/><path d="M189.72787,187.65024c-2.33522,-15.42831 2.43728,-31.72468 14.31748,-43.60488c10.70001,-10.70001 24.98236,-15.63435 38.98637,-14.803" stroke="url(#color-7)"/></g><g><path d="M308.80255,172.11672c2.30672,20.24853 -4.30507,41.32011 -19.83539,56.85042c-14.29169,14.29169 -33.27599,21.03073 -51.99315,20.21712" stroke="url(#color-8)"/><path d="M299.81217,172.48654c2.22638,17.82407 -3.503,36.45231 -17.18816,50.13747c-12.52783,12.52783 -29.19804,18.3886 -45.60165,17.58231" stroke="url(#color-9)"/><path d="M290.27214,172.34977c2.33522,15.42831 -2.43728,31.72467 -14.31748,43.60489c-10.70001,10.70001 -24.98236,15.63435 -38.98637,14.803" stroke="url(#color-10)"/></g></g><path d="M211.28561,191.02863h-59.90446l29.95223,-37.05724z" fill="url(#color-11)" stroke="none" stroke-width="0"/><path d="M277.78452,174.24448l43.85244,-0.03262l-2.96476,35.4203l-21.62338,35.62338l-38.13767,-38.13769z" data-paper-data="{&quot;index&quot;:null}" fill="url(#color-12)" stroke="#000000" stroke-width="0"/><path d="M268.71443,168.97139h59.90446l-29.95223,37.05724z" data-paper-data="{&quot;index&quot;:null}" fill="url(#color-13)" stroke="none" stroke-width="0"/><path d="M163.625,190.87501c0,-4.55635 3.69365,-8.25 8.25,-8.25c4.55635,0 8.25,3.69365 8.25,8.25c0,4.55635 -3.69365,8.25 -8.25,8.25c-4.55635,0 -8.25,-3.69365 -8.25,-8.25z" fill="url(#color-14)" stroke="none" stroke-width="0"/><path d="M316.37502,169.12501c0,4.55635 -3.69365,8.25 -8.25,8.25c-4.55635,0 -8.25,-3.69365 -8.25,-8.25c0,-4.55635 3.69365,-8.25 8.25,-8.25c4.55635,0 8.25,3.69365 8.25,8.25z" data-paper-data="{&quot;index&quot;:null}" fill="url(#color-15)" stroke="none" stroke-width="0"/></g></g></g></svg>