<svg version="1.1" xmlns="http://www.w3.org/2000/svg" xmlns:xlink="http://www.w3.org/1999/xlink" width="71.48713" height="97.88445" viewBox="0,0,71.48713,97.88445"><defs><radialGradient cx="240.00001" cy="180.00003" r="34.7042" gradientUnits="userSpaceOnUse" id="color-1"><stop offset="0" stop-color="#000000"/><stop offset="1" stop-color="#000000" stop-opacity="0"/></radialGradient><linearGradient x1="214.67424" y1="180.00003" x2="265.3258" y2="180.00003" gradientUnits="userSpaceOnUse" id="color-2"><stop offset="0" stop-color="#eb0000"/><stop offset="1" stop-color="#ff7979"/></linearGradient><linearGradient x1="239.34787" y1="133.01605" x2="239.34787" y2="226.84553" gradientUnits="userSpaceOnUse" id="color-3"><stop offset="0" stop-color="#ffffff" stop-opacity="0.94902"/><stop offset="1" stop-color="#ff4848" stop-opacity="0.92549"/></linearGradient></defs><g transform="translate(-204.25647,-131.0578)"><g data-paper-data="{&quot;isPaintingLayer&quot;:true}" fill-rule="nonzero" stroke-linejoin="miter" stroke-miterlimit="10" stroke-dasharray="" stroke-dashoffset="0" style="mix-blend-mode: normal"><path d="M204.25648,228.94226v-97.88445h71.48713v97.88445z" fill="none" stroke="none" stroke-width="NaN" stroke-linecap="butt"/><path d="M240.00001,214.70423c-19.1666,0 -34.7042,-15.5376 -34.7042,-34.7042c0,-19.1666 15.5376,-34.7042 34.7042,-34.7042c19.1666,0 34.7042,15.5376 34.7042,34.7042c0,19.1666 -15.5376,34.7042 -34.7042,34.7042z" fill="url(#color-1)" stroke="#000000" stroke-width="0" stroke-linecap="butt"/><path d="M214.67424,180.00003c0,-13.98704 11.33874,-25.32577 25.32577,-25.32577c13.98704,0 25.32577,11.33874 25.32577,25.32577c0,13.98704 -11.33874,25.32577 -25.32577,25.32577c-13.98704,0 -25.32577,-11.33874 -25.32577,-25.32577z" fill="url(#color-2)" stroke="#000000" stroke-width="0" stroke-linecap="butt"/><path d="M246.52199,191.2926c0,-2.5831 2.09402,-4.67711 4.67711,-4.67711c2.5831,0 4.67711,2.09402 4.67711,4.67711c0,2.5831 -2.09402,4.67711 -4.67711,4.67711c-2.5831,0 -4.67711,-2.09402 -4.67711,-4.67711z" fill="#000000" stroke="#000000" stroke-width="0" stroke-linecap="butt"/><path d="M246.57405,168.70746c0,-2.5831 2.09402,-4.67711 4.67711,-4.67711c2.5831,0 4.67711,2.09402 4.67711,4.67711c0,2.5831 -2.09402,4.67711 -4.67711,4.67711c-2.5831,0 -4.67711,-2.09402 -4.67711,-4.67711z" fill="#000000" stroke="#000000" stroke-width="0" stroke-linecap="butt"/><path d="M259.43111,188.99458v-18.67899" fill="none" stroke="#000000" stroke-width="2" stroke-linecap="round"/><path d="M233.46643,197.00912l-14.1126,-14.1126" fill="none" stroke-opacity="0.14902" stroke="#000000" stroke-width="2" stroke-linecap="round"/><path d="M224.22024,185.53829l14.1126,14.1126" fill="none" stroke-opacity="0.30196" stroke="#ffffff" stroke-width="3.5" stroke-linecap="round"/><path d="M232.49314,183.24412l-10.49755,-10.49755" fill="none" stroke-opacity="0.30196" stroke="#ffffff" stroke-width="2" stroke-linecap="round"/><path d="M233.3261,178.33155l6.11778,6.11778" fill="none" stroke-opacity="0.14902" stroke="#000000" stroke-width="3.5" stroke-linecap="round"/><path d="M227.14009,160.78909l13.00028,13.00028" fill="none" stroke-opacity="0.14902" stroke="#000000" stroke-width="2" stroke-linecap="round"/><path d="M248.83039,201.38889l-7.36914,-7.36914" fill="none" stroke-opacity="0.14902" stroke="#000000" stroke-width="2" stroke-linecap="round"/><path d="M254.2269,161.62333l7.36914,7.36914" fill="none" stroke-opacity="0.14902" stroke="#000000" stroke-width="2" stroke-linecap="round"/><path d="M244.10302,185.39924l-14.4602,-14.4602" fill="none" stroke-opacity="0.30196" stroke="#ffffff" stroke-width="3.5" stroke-linecap="round"/><path d="M237.77668,169.20103l-4.51881,-4.51881" fill="none" stroke-opacity="0.30196" stroke="#ffffff" stroke-width="3.5" stroke-linecap="round"/><path d="M239.93181,158.70349l5.21402,5.21402" fill="none" stroke-opacity="0.30196" stroke="#ffffff" stroke-width="2" stroke-linecap="round"/><path d="M255.47827,182.27084l-5.21402,-5.21402" fill="none" stroke-opacity="0.30196" stroke="#ffffff" stroke-width="2" stroke-linecap="round"/><path d="M231.10937,203.45729c0.83353,11.07282 2.1271,12.33921 4.33713,12.97172c3.20347,0.5979 10.19691,-11.93579 10.19691,-11.93579l4.00429,-1.12064c0,0 -10.54468,24.48383 -16.75962,23.44053c-8.52805,-1.4316 -12.25727,-23.23578 -8.32945,-48.70098c3.92783,-25.4652 13.99047,-46.25197 22.55336,-45.04612c6.90354,0.97217 8.58831,27.25789 8.58831,27.25789l-3.90868,-2.83221c0,0 -0.0365,-12.08926 -5.09161,-13.61329c-2.12183,-0.63969 -5.52649,6.2776 -7.54004,10.08981c-2.01355,3.81221 -4.89078,10.6322 -6.47278,20.58181c-2.02033,12.70635 -2.41134,17.83445 -1.57781,28.90728z" fill="url(#color-3)" stroke="#000000" stroke-width="0" stroke-linecap="butt"/></g></g></svg>