<svg version="1.1" xmlns="http://www.w3.org/2000/svg" xmlns:xlink="http://www.w3.org/1999/xlink" width="333.77983" height="308.36177" viewBox="0,0,333.77983,308.36177"><defs><linearGradient x1="296.34065" y1="278.39887" x2="350.53873" y2="294.39266" gradientUnits="userSpaceOnUse" id="color-1"><stop offset="0" stop-color="#ffea8d"/><stop offset="1" stop-color="#ffd000"/></linearGradient><linearGradient x1="284.04374" y1="206.78588" x2="366.61611" y2="231.15285" gradientUnits="userSpaceOnUse" id="color-2"><stop offset="0" stop-color="#ffea8d"/><stop offset="1" stop-color="#ffd000"/></linearGradient><linearGradient x1="337.83333" y1="269.37307" x2="337.83333" y2="295.37307" gradientUnits="userSpaceOnUse" id="color-3"><stop offset="0" stop-color="#ffffff" stop-opacity="0.67843"/><stop offset="1" stop-color="#ffffff" stop-opacity="0"/></linearGradient><linearGradient x1="244.20378" y1="228.93876" x2="362.48549" y2="263.84352" gradientUnits="userSpaceOnUse" id="color-4"><stop offset="0" stop-color="#ffd000"/><stop offset="1" stop-color="#ebc000"/></linearGradient><linearGradient x1="346.39349" y1="239.02029" x2="432.62355" y2="264.46666" gradientUnits="userSpaceOnUse" id="color-5"><stop offset="0" stop-color="#ffeea3"/><stop offset="1" stop-color="#ffd000"/></linearGradient><linearGradient x1="340.16666" y1="248.91505" x2="381.5" y2="248.91505" gradientUnits="userSpaceOnUse" id="color-6"><stop offset="0" stop-color="#ffffff" stop-opacity="0.5098"/><stop offset="1" stop-color="#ffffff" stop-opacity="0"/></linearGradient><linearGradient x1="185.98185" y1="236.00835" x2="231.72487" y2="249.50705" gradientUnits="userSpaceOnUse" id="color-7"><stop offset="0" stop-color="#ffffff"/><stop offset="1" stop-color="#ffd000"/></linearGradient><linearGradient x1="239.0998" y1="249.89841" x2="230.67008" y2="278.46393" gradientUnits="userSpaceOnUse" id="color-8"><stop offset="0" stop-color="#ffe77b"/><stop offset="1" stop-color="#ffd000"/></linearGradient><linearGradient x1="253.20107" y1="276.08573" x2="241.40577" y2="316.05641" gradientUnits="userSpaceOnUse" id="color-9"><stop offset="0" stop-color="#ffd000"/><stop offset="1" stop-color="#ffffff"/></linearGradient><linearGradient x1="184.19543" y1="236.0877" x2="178.91144" y2="253.99351" gradientUnits="userSpaceOnUse" id="color-10"><stop offset="0" stop-color="#ffe77b"/><stop offset="1" stop-color="#ffd000"/></linearGradient><linearGradient x1="221.50331" y1="300.41784" x2="215.92068" y2="319.33589" gradientUnits="userSpaceOnUse" id="color-11"><stop offset="0" stop-color="#ffe77b"/><stop offset="1" stop-color="#ffd000"/></linearGradient><linearGradient x1="176.53382" y1="267.36154" x2="218.96977" y2="279.88437" gradientUnits="userSpaceOnUse" id="color-12"><stop offset="0" stop-color="#ffd000"/><stop offset="1" stop-color="#ebc000"/></linearGradient><linearGradient x1="311.34605" y1="226.4018" x2="385.66611" y2="248.33353" gradientUnits="userSpaceOnUse" id="color-13"><stop offset="0" stop-color="#ffea8d"/><stop offset="1" stop-color="#ffd000"/></linearGradient><linearGradient x1="434.23026" y1="192.76735" x2="426.95959" y2="217.40537" gradientUnits="userSpaceOnUse" id="color-14"><stop offset="0" stop-color="#ffe77b"/><stop offset="1" stop-color="#ffd000"/></linearGradient><linearGradient x1="278.34396" y1="227.34002" x2="317.95125" y2="239.02808" gradientUnits="userSpaceOnUse" id="color-15"><stop offset="0" stop-color="#ffea8b"/><stop offset="1" stop-color="#ffdd4b"/></linearGradient><linearGradient x1="274.1135" y1="223.6574" x2="359.13467" y2="223.6574" gradientUnits="userSpaceOnUse" id="color-16"><stop offset="0" stop-color="#ffffff"/><stop offset="1" stop-color="#ffffff" stop-opacity="0"/></linearGradient><linearGradient x1="146.22317" y1="281.47252" x2="196.86627" y2="281.01653" gradientUnits="userSpaceOnUse" id="color-17"><stop offset="0" stop-color="#ffcc00" stop-opacity="0.05882"/><stop offset="1" stop-color="#ffd000" stop-opacity="0.52157"/></linearGradient><linearGradient x1="175.64147" y1="266.81891" x2="167.21095" y2="295.38745" gradientUnits="userSpaceOnUse" id="color-18"><stop offset="0" stop-color="#ffe77b"/><stop offset="1" stop-color="#ffd000"/></linearGradient><linearGradient x1="358.80809" y1="79.37568" x2="485.12041" y2="110.10226" gradientUnits="userSpaceOnUse" id="color-19"><stop offset="0" stop-color="#ffd000"/><stop offset="1" stop-color="#ffffff"/></linearGradient><linearGradient x1="356.26335" y1="21.04583" x2="333.22951" y2="115.73479" gradientUnits="userSpaceOnUse" id="color-20"><stop offset="0" stop-color="#ffffff"/><stop offset="1" stop-color="#ffd000"/></linearGradient><linearGradient x1="298.53249" y1="125.85703" x2="331.58729" y2="133.89788" gradientUnits="userSpaceOnUse" id="color-21"><stop offset="0" stop-color="#ffffff"/><stop offset="1" stop-color="#ffd000"/></linearGradient><linearGradient x1="313.47799" y1="166.88697" x2="427.4142" y2="159.50309" gradientUnits="userSpaceOnUse" id="color-22"><stop offset="0" stop-color="#ffffff"/><stop offset="1" stop-color="#ffd000"/></linearGradient><linearGradient x1="318.9839" y1="139.303" x2="374.32396" y2="165.45702" gradientUnits="userSpaceOnUse" id="color-23"><stop offset="0" stop-color="#ffffff"/><stop offset="1" stop-color="#ffffff" stop-opacity="0"/></linearGradient><linearGradient x1="311.01272" y1="226.73514" x2="385.33278" y2="248.66687" gradientUnits="userSpaceOnUse" id="color-24"><stop offset="0" stop-color="#ffffff" stop-opacity="0.51765"/><stop offset="1" stop-color="#ffffff" stop-opacity="0"/></linearGradient><linearGradient x1="339.16067" y1="297.51851" x2="395.44801" y2="302.51488" gradientUnits="userSpaceOnUse" id="color-25"><stop offset="0" stop-color="#ffea8d"/><stop offset="1" stop-color="#ffd000"/></linearGradient><linearGradient x1="374.83333" y1="273.03974" x2="374.83333" y2="304.03974" gradientUnits="userSpaceOnUse" id="color-26"><stop offset="0" stop-color="#ffffff" stop-opacity="0.67843"/><stop offset="1" stop-color="#ffffff" stop-opacity="0"/></linearGradient></defs><g transform="translate(-146.22017,-25.81911)"><g data-paper-data="{&quot;isPaintingLayer&quot;:true}" fill-rule="nonzero" stroke-linejoin="miter" stroke-miterlimit="10" stroke-dasharray="" stroke-dashoffset="0" style="mix-blend-mode: normal"><path d="M293.94607,286.51341l20.24503,1.55632l13.8091,-18.4647l22.38833,-10.67165l6.96852,12.35393l-5.96557,6.8051l-19.54376,26.38572c0,0 -10.32872,11.13896 -12.74373,13.74345c-0.95916,1.03438 -2.23627,1.64978 -2.23627,1.64978z" fill="url(#color-1)" stroke="none" stroke-width="0" stroke-linecap="butt"/><path d="M293.45664,286.22539l12.23571,7.20036l11.59112,26.07049c0,0 -1.67027,0.50283 -2.72645,0.60531c-1.65925,0.16102 -6.03905,0.78538 -6.03905,0.78538l-14.19382,-18.91871c0,0 -0.2829,-5.13351 -0.4262,-7.734c-0.14582,-2.64633 -0.44133,-8.00881 -0.44133,-8.00881z" fill="#ffea8d" stroke="none" stroke-width="0" stroke-linecap="butt"/><path d="M297.02175,222.53285c1.56643,0.05392 3.97267,0.97241 3.97267,0.97241c0,0 85.01939,-48.30817 76.75582,-25.11891c-1.14009,3.19938 3.52232,9.74724 -10.87758,20.42387c-20.97068,15.54841 -76.02145,31.01881 -80.99218,30.84773c-5.63355,-0.19386 -11.82403,-4.97017 -12.09558,-10.26716c-0.57921,-11.29825 15.15323,-17.3318 23.23685,-16.85794z" fill="url(#color-2)" stroke="none" stroke-width="0" stroke-linecap="butt"/><path d="M313.83333,288.70641l14.66667,-19.33333l24,-12c0,0 10.34798,-0.43451 7.74375,6.53027c-2.02787,5.42338 -22.07709,31.80306 -22.07709,31.80306z" fill="url(#color-3)" stroke="none" stroke-width="0" stroke-linecap="butt"/><path d="M232.38862,244.34493c2.92346,0.30095 5.94504,0.89058 8.98996,1.78914c7.38146,2.17824 13.66186,5.80651 18.10432,10.06455" fill="none" stroke="#ffffff" stroke-width="5" stroke-linecap="round"/><path d="M233.71278,264.48976l190.30608,-59.93064" fill="none" stroke="url(#color-4)" stroke-width="10.5" stroke-linecap="round"/><path d="M339.88401,271.73839l21.08822,-67.90852l34.13065,6.92628l26.23471,65.30656l-39.37557,14.4154l-24.27708,-5.48744z" fill="url(#color-5)" stroke="none" stroke-width="0" stroke-linecap="butt"/><path d="M263.01751,260.52862c0.32482,0.60933 2.15062,3.42012 2.39927,4.03554c1.22658,3.0359 1.50659,6.12396 0.64421,9.04623c-0.93466,3.16729 -3.10201,5.76957 -6.14204,7.70909" fill="none" stroke="#ffffff" stroke-width="5" stroke-linecap="round"/><path d="M340.16666,271.37307l18,-60.66666h23.33333l-15.68154,50.94706l12.41275,26.1369l-21.06455,-3.08396z" fill="url(#color-6)" stroke="none" stroke-width="0" stroke-linecap="butt"/><path d="M183.505,244.40161c0,0 5.27964,-7.3038 17.08043,-9.39355c11.80079,-2.08976 26.39289,4.39272 26.39289,4.39272l3.38562,14.71863" data-paper-data="{&quot;index&quot;:null}" fill="none" stroke="url(#color-7)" stroke-width="8" stroke-linecap="round"/><path d="M220.60211,259.96637c2.32778,-7.88815 10.60947,-12.39572 18.49759,-10.06795c7.88815,2.32779 12.39571,10.60942 10.06793,18.49757c-2.32778,7.88816 -10.60943,12.39566 -18.49755,10.06792c-7.88815,-2.3278 -12.39576,-10.60944 -10.06797,-18.49755z" fill="url(#color-8)" stroke="#000000" stroke-width="0" stroke-linecap="butt"/><path d="M244.45926,273.50607l25.86521,16.03783c0,0 -0.36654,14.7213 -15.0619,19.62295c-14.69538,4.90163 -33.77681,1.01127 -33.77681,1.01127" fill="none" stroke="url(#color-9)" stroke-width="8" stroke-linecap="round"/><path d="M172.60051,242.39861c1.45909,-4.94455 6.65034,-7.77 11.5949,-6.31088c4.94455,1.45915 7.77,6.65033 6.31091,11.59485c-1.45913,4.94455 -6.65033,7.77007 -11.59489,6.31094c-4.94456,-1.45915 -7.77006,-6.65034 -6.31093,-11.5949z" fill="url(#color-10)" stroke="#000000" stroke-width="0" stroke-linecap="butt"/><path d="M209.25288,307.08548c1.54163,-5.22409 7.02631,-8.20929 12.25037,-6.66766c5.22406,1.54162 8.20929,7.02628 6.66766,12.25034c-1.54163,5.22406 -7.02632,8.2093 -12.25038,6.66767c-5.2241,-1.54162 -8.20927,-7.02631 -6.66765,-12.25035z" fill="url(#color-11)" stroke="#000000" stroke-width="0" stroke-linecap="butt"/><path d="M209.09028,269.59665c-3.32336,-4.4644 -4.67569,-9.32046 -3.35705,-13.7889c1.80603,-6.12007 8.21439,-10.13051 16.62815,-11.32645" fill="none" stroke="#ffffff" stroke-width="5" stroke-linecap="round"/><path d="M172.86128,281.47345l49.78108,-14.03422" fill="none" stroke="url(#color-12)" stroke-width="10.5" stroke-linecap="round"/><path d="M253.37661,284.13061c-6.45466,1.75817 -14.62006,1.61488 -22.96097,-0.84648c-6.20919,-1.8323 -11.63921,-4.69065 -15.8516,-8.08677" fill="none" stroke="#ffffff" stroke-width="5" stroke-linecap="round"/><path d="M370.89115,220.49483l14.47511,-0.63786l4.96821,12.65688l-36.84816,30.06809c0,0 -25.58737,-1.51018 -40.58027,-7.63261c-4.06883,-1.66153 -7.14963,-3.9039 -7.43683,-7.16316c-0.44797,-5.08328 5.7372,-9.78118 13.81495,-10.49304c2.77011,-0.24412 5.40309,0.01223 7.68529,0.65953c5.01936,1.42363 7.81321,5.89593 7.81321,5.89593l16.93247,-5.30924z" fill="url(#color-13)" stroke="none" stroke-width="0" stroke-linecap="butt"/><path d="M418.27594,201.45105c2.0077,-6.80358 9.15071,-10.69142 15.95431,-8.68366c6.80361,2.00776 10.69141,9.15071 8.68366,15.9543c-2.0077,6.80358 -9.15066,10.6914 -15.95427,8.68366c-6.80361,-2.00776 -10.69141,-9.15071 -8.6837,-15.9543z" fill="url(#color-14)" stroke="#000000" stroke-width="0" stroke-linecap="butt"/><path d="M322.75084,222.46977c0.58134,1.64053 -10.92623,9.80212 -10.92623,9.80212c0,0 -9.29445,10.72295 -15.89562,13.06226c-9.03157,3.20066 -18.35882,3.68604 -20.51925,-2.41029c-2.16045,-6.09632 4.40976,-12.29962 13.44128,-15.50024c9.03153,-3.20063 31.73942,-11.0502 33.8998,-4.95391z" fill="url(#color-15)" stroke="none" stroke-width="0" stroke-linecap="butt"/><path d="M275.42825,243.39477c0,0 -1.62571,-2.77841 -1.26159,-5.5217c0.47822,-3.6029 1.00571,-5.35516 3.90882,-8.4871c3.5337,-3.81222 9.79339,-5.95491 13.92451,-6.67956c5.70081,-1 9.79702,0.35107 9.79702,0.35107l35.20107,-19.13745l22.13659,0.40636l-56.09392,23.07039c0,0 -10.80741,-3.90549 -21.28428,2.89624c-8.36973,5.43374 -6.32823,13.10176 -6.32823,13.10176z" fill="url(#color-16)" stroke="none" stroke-width="0" stroke-linecap="butt"/><path d="M146.22317,281.47252c-0.21308,-23.66642 10.95104,-42.95393 24.93576,-43.07984c13.98471,-0.1259 25.49431,18.95747 25.70736,42.62386c0.21308,23.66642 -10.95103,42.95393 -24.93573,43.07983c-13.98469,0.1259 -25.49434,-18.95744 -25.70736,-42.62385zM169.29287,314.54873c10.83525,-0.09755 19.48515,-15.0414 19.32004,-33.378c-0.16508,-18.33658 -9.08267,-33.12226 -19.91793,-33.0247c-10.83525,0.09755 -19.48512,15.0414 -19.32003,33.37798c0.16509,18.33659 9.08262,33.12224 19.9179,33.02469z" fill="url(#color-17)" stroke="none" stroke-width="0" stroke-linecap="butt"/><path d="M157.14199,276.88795c2.32803,-7.88898 10.61052,-12.39699 18.49949,-10.06899c7.889,2.32803 12.39701,10.61052 10.06899,18.4995c-2.328,7.88893 -10.61048,12.397 -18.49949,10.06898c-7.889,-2.32803 -12.39702,-10.61057 -10.06899,-18.4995z" fill="url(#color-18)" stroke="#000000" stroke-width="0" stroke-linecap="butt"/><path d="M351.08924,111.10654c0,0 18.80693,-59.76587 72.87354,-49.3842c57.16343,10.97628 56.03559,69.4359 56.03559,69.4359c0,0 -28.27994,-18.4657 -63.44388,-24.71338c-38.9434,-6.91922 -65.46521,4.66173 -65.46521,4.66173z" data-paper-data="{&quot;index&quot;:null}" fill="url(#color-19)" stroke="none" stroke-width="0" stroke-linecap="round"/><path d="M320.67096,54.94017c19.6682,-39.63134 62.61366,-27.3098 62.61366,-27.3098c0,0 -19.2865,16.47369 -31.01598,40.95537c-12.99019,27.11301 -9.89491,49.37347 -9.89491,49.37347c0,0 -40.30548,-25.53471 -21.70282,-63.01903z" data-paper-data="{&quot;index&quot;:null}" fill="url(#color-20)" stroke="none" stroke-width="0" stroke-linecap="round"/><path d="M307.43539,116.30196c15.29132,-7.69002 26.71741,7.0495 26.71741,7.0495c0,0 -8.75442,1.72459 -19.3182,7.78813c-9.53857,5.47508 -15.94689,11.45678 -15.94689,11.45678c0,0 -6.74363,-18.60442 8.54766,-26.29442z" data-paper-data="{&quot;index&quot;:null}" fill="url(#color-21)" stroke="none" stroke-width="0" stroke-linecap="round"/><path d="M427.4142,159.50309c1.98965,30.70134 -21.90284,57.24267 -53.36542,59.28168c-16.82197,1.09018 -32.40211,-5.04476 -43.5636,-15.68296c-4.42702,-4.21947 -8.15893,-9.1474 -10.99746,-14.61393c-3.38996,-6.52851 -5.50572,-13.82523 -6.00966,-21.60087c-1.98965,-30.70135 21.90287,-57.24266 53.36545,-59.28168c31.46258,-2.03903 58.58104,21.19642 60.5707,51.89777z" data-paper-data="{&quot;index&quot;:null}" fill="url(#color-22)" stroke="none" stroke-width="0" stroke-linecap="butt"/><path d="M358.18736,198.65752l-6.09118,-14.52755l34.55847,-15.38549l-7.01337,15.75665l5.319,-0.75008l-9.45646,14.15697z" fill="#000000" stroke="none" stroke-width="0" stroke-linecap="butt"/><path d="M350.39334,216.09253c-15.8098,-6.25562 -27.37338,-18.56463 -32.96681,-33.07588c-2.21854,-5.75565 -3.49788,-11.85777 -3.73043,-18.06602c-0.27772,-7.41432 0.93758,-14.98003 3.8291,-22.28783c11.41697,-28.85406 44.64308,-42.76016 74.21258,-31.06014c0,0 -37.10449,-3.78878 -57.19466,38.07074c-17.94077,37.38107 15.85023,66.41912 15.85023,66.41912z" data-paper-data="{&quot;index&quot;:null}" fill="url(#color-23)" stroke="none" stroke-width="0" stroke-linecap="butt"/><path d="M359.35859,193.15291l-1.07747,-7.44429l9.22133,-4.92214l0.53572,14.09794z" fill="#ffffff" stroke="none" stroke-width="0" stroke-linecap="butt"/><path d="M319.37209,195.95082l-5.2042,-11.20798l2.97037,-0.0076l-4.85557,-13.44459l28.31802,12.44947l-2.80255,12.34112z" fill="#000000" stroke="none" stroke-width="0" stroke-linecap="butt"/><path d="M327.57583,193.04925l-0.15272,-10.40778l9.00908,3.49203l-2.36323,6.79395z" fill="#ffffff" stroke="none" stroke-width="0" stroke-linecap="butt"/><path d="M370.55782,220.82817l14.47511,-0.63786l4.96821,12.65688l-27.44376,14.38705l-30.4044,2.68104c0,0 -6.88358,-8.41323 -12.8725,-8.87033c-10.19573,-0.77817 -14.1446,7.07456 -14.1446,7.07456c0,0 0.05056,-1.79654 0.36407,-2.65624c1.44868,-3.97249 6.81025,-7.25159 13.45088,-7.8368c2.77011,-0.24412 5.40309,0.01223 7.68529,0.65953c5.01936,1.42363 7.81321,5.89593 7.81321,5.89593l16.93247,-5.30924z" fill="url(#color-24)" stroke="none" stroke-width="0" stroke-linecap="butt"/><path d="M340.41545,308.63398l16.8161,-5.2716l7.18958,-24.43035l28.08535,-6.41784l6.63879,11.88125l-9.13351,9.54024l-3.38886,10.11586l-19.16282,30.07946z" fill="url(#color-25)" stroke="none" stroke-width="0" stroke-linecap="butt"/><path d="M340.61677,308.31632l10.67427,2.09081l16.77465,23.77376l-13.9674,-1.93078l-12.26855,-11.22721z" fill="#ffea8d" stroke="none" stroke-width="0" stroke-linecap="butt"/><path d="M357.16666,304.03974l7.33333,-25.33334l28,-5.66666l6.80305,11.3811l-8.80305,8.28556l-4.38831,11.15203z" fill="url(#color-26)" stroke="none" stroke-width="0" stroke-linecap="butt"/></g></g></svg>