<svg version="1.1" xmlns="http://www.w3.org/2000/svg" xmlns:xlink="http://www.w3.org/1999/xlink" width="37.6" height="43.6" viewBox="0,0,37.6,43.6"><g transform="translate(-221.2,-158.2)"><g data-paper-data="{&quot;isPaintingLayer&quot;:true}" fill-rule="nonzero" stroke="none" stroke-linecap="butt" stroke-linejoin="miter" stroke-miterlimit="10" stroke-dasharray="" stroke-dashoffset="0" style="mix-blend-mode: normal"><path d="M221.2,201.8v-43.6h37.6v43.6z" fill="none" stroke-width="0"/><path d="M241.66745,188.40835h-10.0453c-0.93539,0 -1.65388,-0.25079 -2.15547,-0.75236c-0.50159,-0.51516 -0.75239,-1.07775 -0.75239,-1.68777c0,-0.58294 0.18979,-1.19298 0.56936,-1.83014l9.3336,-16.91839c0.48803,-0.86761 1.05062,-1.48442 1.68777,-1.85045c0.63715,-0.37958 1.49121,-0.56936 2.56215,-0.56936c0.85406,0 1.64033,0.18979 2.35881,0.56936c0.73206,0.37958 1.32177,0.97606 1.76913,1.78945c0.44736,0.79982 0.67104,1.78945 0.67104,2.96886v12.79047h0.69138c0.5287,0 1.01673,0.11523 1.46409,0.34568c0.46092,0.21691 0.82017,0.54226 1.07775,0.97608c0.25756,0.42025 0.38634,0.89471 0.38634,1.4234c0,0.5287 -0.12878,1.00996 -0.38634,1.44377c-0.25758,0.42025 -0.61683,0.7456 -1.07775,0.97605c-0.44736,0.21691 -0.93539,0.32536 -1.46409,0.32536h-0.69138v3.55857c0,1.11162 -0.23723,1.93178 -0.7117,2.46048c-0.46092,0.51514 -1.22686,0.77271 -2.29783,0.77271c-1.04384,0 -1.80299,-0.25757 -2.27746,-0.77271c-0.47448,-0.5287 -0.71172,-1.34886 -0.71172,-2.46048zM241.66745,182.91802v-11.61108h-0.08123l-5.63269,11.61108z" fill="#ff0000" stroke-width="0.40889"/></g></g></svg>