<svg version="1.1" xmlns="http://www.w3.org/2000/svg" xmlns:xlink="http://www.w3.org/1999/xlink" width="135.38819" height="86.09816" viewBox="0,0,135.38819,86.09816"><defs><radialGradient cx="312.83633" cy="180.67822" r="11.79732" gradientUnits="userSpaceOnUse" id="color-1"><stop offset="0" stop-color="#000000" stop-opacity="0.63137"/><stop offset="1" stop-color="#000000" stop-opacity="0"/></radialGradient><linearGradient x1="312.83633" y1="168.88089" x2="312.83633" y2="192.47555" gradientUnits="userSpaceOnUse" id="color-2"><stop offset="0" stop-color="#ff5454"/><stop offset="1" stop-color="#eb0000"/></linearGradient><radialGradient cx="336.66966" cy="178.84491" r="35.15615" gradientUnits="userSpaceOnUse" id="color-3"><stop offset="0" stop-color="#ffffff" stop-opacity="0.50196"/><stop offset="1" stop-color="#ffffff" stop-opacity="0"/></radialGradient><linearGradient x1="336.66966" y1="143.68871" x2="336.66966" y2="214.0011" gradientUnits="userSpaceOnUse" id="color-4"><stop offset="0" stop-color="#ff5454"/><stop offset="1" stop-color="#eb0000"/></linearGradient><radialGradient cx="336.66966" cy="178.8449" r="25.48949" gradientUnits="userSpaceOnUse" id="color-5"><stop offset="0" stop-color="#ffffff" stop-opacity="0.50196"/><stop offset="1" stop-color="#ffffff" stop-opacity="0"/></radialGradient><linearGradient x1="336.66966" y1="153.35537" x2="336.66966" y2="204.33442" gradientUnits="userSpaceOnUse" id="color-6"><stop offset="0" stop-color="#ff5454"/><stop offset="1" stop-color="#eb0000"/></linearGradient><radialGradient cx="328.20553" cy="174.92364" r="8.16763" gradientUnits="userSpaceOnUse" id="color-7"><stop offset="0" stop-color="#ff0000" stop-opacity="0.90196"/><stop offset="1" stop-color="#ff0000" stop-opacity="0.4"/></radialGradient><radialGradient cx="338.49396" cy="162.70753" r="4.67737" gradientUnits="userSpaceOnUse" id="color-8"><stop offset="0" stop-color="#ff0000" stop-opacity="0.90196"/><stop offset="1" stop-color="#ff0000" stop-opacity="0.4"/></radialGradient><radialGradient cx="336.3938" cy="186.19417" r="10.7244" gradientUnits="userSpaceOnUse" id="color-9"><stop offset="0" stop-color="#ff0000" stop-opacity="0.90196"/><stop offset="1" stop-color="#ff0000" stop-opacity="0.4"/></radialGradient><radialGradient cx="347.4048" cy="171.49181" r="6.79382" gradientUnits="userSpaceOnUse" id="color-10"><stop offset="0" stop-color="#ff0000" stop-opacity="0.90196"/><stop offset="1" stop-color="#ff0000" stop-opacity="0.4"/></radialGradient><radialGradient cx="347.16705" cy="197.06921" r="4.67737" gradientUnits="userSpaceOnUse" id="color-11"><stop offset="0" stop-color="#ff0000" stop-opacity="0.90196"/><stop offset="1" stop-color="#ff0000" stop-opacity="0.4"/></radialGradient><radialGradient cx="287.60907" cy="183.38307" r="20.78815" gradientUnits="userSpaceOnUse" id="color-12"><stop offset="0" stop-color="#000000" stop-opacity="0.63137"/><stop offset="1" stop-color="#000000" stop-opacity="0"/></radialGradient><linearGradient x1="287.60907" y1="162.59491" x2="287.60907" y2="204.17123" gradientUnits="userSpaceOnUse" id="color-13"><stop offset="0" stop-color="#ff5454"/><stop offset="1" stop-color="#eb0000"/></linearGradient><radialGradient cx="270.4145" cy="175.84633" r="20.34342" gradientUnits="userSpaceOnUse" id="color-14"><stop offset="0" stop-color="#000000" stop-opacity="0.63137"/><stop offset="1" stop-color="#000000" stop-opacity="0"/></radialGradient><linearGradient x1="270.4145" y1="155.5029" x2="270.4145" y2="196.18975" gradientUnits="userSpaceOnUse" id="color-15"><stop offset="0" stop-color="#ff5454"/><stop offset="1" stop-color="#eb0000"/></linearGradient><linearGradient x1="257.02603" y1="171.67628" x2="278.72835" y2="171.67628" gradientUnits="userSpaceOnUse" id="color-16"><stop offset="0" stop-color="#eb0000"/><stop offset="1" stop-color="#ff5454"/></linearGradient><linearGradient x1="316.94588" y1="173.69911" x2="316.94588" y2="187.69911" gradientUnits="userSpaceOnUse" id="color-17"><stop offset="0" stop-color="#ff5454"/><stop offset="1" stop-color="#eb0000"/></linearGradient><linearGradient x1="304.45838" y1="176.17245" x2="304.45838" y2="184.97245" gradientUnits="userSpaceOnUse" id="color-18"><stop offset="0" stop-color="#ffffff"/><stop offset="1" stop-color="#b3b3b3"/></linearGradient><linearGradient x1="286.80697" y1="172.35325" x2="286.80697" y2="188.85325" gradientUnits="userSpaceOnUse" id="color-19"><stop offset="0" stop-color="#ffffff"/><stop offset="1" stop-color="#808080"/></linearGradient><linearGradient x1="294.97366" y1="171.38103" x2="294.97366" y2="189.49214" gradientUnits="userSpaceOnUse" id="color-20"><stop offset="0" stop-color="#ff5454"/><stop offset="1" stop-color="#eb0000"/></linearGradient><linearGradient x1="275.11253" y1="180.43659" x2="282.61253" y2="180.43659" gradientUnits="userSpaceOnUse" id="color-21"><stop offset="0" stop-color="#929292"/><stop offset="1" stop-color="#ffffff"/></linearGradient><linearGradient x1="275.58034" y1="189.27374" x2="297.28265" y2="189.27374" gradientUnits="userSpaceOnUse" id="color-22"><stop offset="0" stop-color="#eb0000"/><stop offset="1" stop-color="#ff5454"/></linearGradient></defs><g transform="translate(-238.30932,-136.95092)"><g data-paper-data="{&quot;isPaintingLayer&quot;:true}" fill-rule="nonzero" stroke-linejoin="miter" stroke-miterlimit="10" stroke-dasharray="" stroke-dashoffset="0" style="mix-blend-mode: normal"><path d="M301.039,180.67822c0,-6.51548 5.28184,-11.79734 11.79732,-11.79734c6.51548,0 11.79732,5.28184 11.79732,11.79734c0,6.51548 -5.28184,11.79732 -11.79732,11.79732c-6.51548,0 -11.79732,-5.28183 -11.79732,-11.79732z" fill="url(#color-1)" stroke="url(#color-2)" stroke-width="0" stroke-linecap="butt"/><path d="M301.51347,178.84491c0,-19.41621 15.73995,-35.15622 35.15617,-35.15622c19.41622,0 35.15615,15.73995 35.15615,35.15622c0,19.41621 -15.73995,35.15615 -35.15615,35.15615c-19.41622,0 -35.15617,-15.73991 -35.15617,-35.15615z" fill="url(#color-3)" stroke="url(#color-4)" stroke-width="0" stroke-linecap="butt"/><path d="M311.18014,178.8449c0,-14.07746 11.41204,-25.48954 25.48951,-25.48954c14.07747,0 25.48949,11.41204 25.48949,25.48954c0,14.07746 -11.41204,25.48949 -25.48949,25.48949c-14.07747,0 -25.48951,-11.41201 -25.48951,-25.48949z" fill="url(#color-5)" stroke="url(#color-6)" stroke-width="0" stroke-linecap="butt"/><path d="M336.33144,174.09907c0.45542,4.48784 -2.8135,8.49508 -7.30134,8.95048c-4.48783,0.4554 -8.49505,-2.8135 -8.95047,-7.30131c-0.4554,-4.48784 2.81352,-8.4951 7.30131,-8.95051c4.48784,-0.45541 8.4951,2.81349 8.95051,7.30133z" data-paper-data="{&quot;index&quot;:null}" fill="url(#color-7)" stroke="#000000" stroke-width="0" stroke-linecap="butt"/><path d="M338.9662,167.36102c-2.57005,0.26079 -4.86489,-1.61123 -5.12568,-4.18126c-0.26079,-2.57005 1.61121,-4.86489 4.18126,-5.12568c2.57005,-0.26078 4.86491,1.6112 5.12572,4.18126c0.26078,2.57005 -1.61123,4.86489 -4.18128,5.12568z" data-paper-data="{&quot;index&quot;:null}" fill="url(#color-8)" stroke="#000000" stroke-width="0" stroke-linecap="butt"/><path d="M337.47649,196.86377c-5.89267,0.59797 -11.15433,-3.69426 -11.75228,-9.5869c-0.59797,-5.89268 3.69424,-11.15435 9.5869,-11.75231c5.89268,-0.59797 11.15435,3.69424 11.75231,9.5869c0.59797,5.89268 -3.69423,11.15434 -9.5869,11.75231z" data-paper-data="{&quot;index&quot;:null}" fill="url(#color-9)" stroke="#000000" stroke-width="0" stroke-linecap="butt"/><path d="M348.09067,178.25093c-3.73298,0.37879 -7.06618,-2.34028 -7.44499,-6.07324c-0.37878,-3.73297 2.34027,-7.06621 6.07322,-7.445c3.73298,-0.37879 7.06623,2.34027 7.44504,6.07324c0.37879,3.73297 -2.34027,7.06617 -6.07325,7.445z" data-paper-data="{&quot;index&quot;:null}" fill="url(#color-10)" stroke="#000000" stroke-width="0" stroke-linecap="butt"/><path d="M347.63924,201.72267c-2.57005,0.2608 -4.86487,-1.61121 -5.12567,-4.18126c-0.2608,-2.57005 1.61121,-4.86488 4.18124,-5.12568c2.57005,-0.2608 4.86488,1.61121 5.12568,4.18124c0.2608,2.57005 -1.61121,4.86488 -4.18126,5.12572z" data-paper-data="{&quot;index&quot;:null}" fill="url(#color-11)" stroke="#000000" stroke-width="0" stroke-linecap="butt"/><path d="M266.82093,183.38307c0,-11.48098 9.30718,-20.78815 20.78815,-20.78815c11.48097,0 20.78815,9.30718 20.78815,20.78815c0,11.48098 -9.30718,20.78815 -20.78815,20.78815c-11.48097,0 -20.78815,-9.30718 -20.78815,-20.78815z" fill="url(#color-12)" stroke="url(#color-13)" stroke-width="0" stroke-linecap="butt"/><path d="M250.07109,175.84633c0,-11.23536 9.10806,-20.34342 20.34342,-20.34342c11.23537,0 20.34342,9.10807 20.34342,20.34342c0,11.23536 -9.10806,20.34342 -20.34342,20.34342c-11.23537,0 -20.34342,-9.10807 -20.34342,-20.34342z" fill="url(#color-14)" stroke="url(#color-15)" stroke-width="0" stroke-linecap="butt"/><path d="M257.02603,171.67628c0,-5.99293 4.85823,-10.85115 10.85115,-10.85115c5.99293,0 10.85115,4.85823 10.85115,10.85115c0,5.99293 -4.85823,10.85115 -10.85115,10.85115c-5.99293,0 -10.85115,-4.85823 -10.85115,-10.85115z" fill="url(#color-16)" stroke="#000000" stroke-width="0" stroke-linecap="butt"/><g><path d="M312.38338,182.19911v-3.25l9.125,-5.25v14z" fill="url(#color-17)" stroke="#000000" stroke-width="0" stroke-linecap="butt"/><path d="M294.80836,184.97245v-8.8h19.3v8.8z" fill="url(#color-18)" stroke="none" stroke-width="0" stroke-linecap="butt"/><path d="M273.52919,180.60325h26.55556" fill="none" stroke="url(#color-19)" stroke-width="16.5" stroke-linecap="round"/><path d="M294.97366,189.49214v-18.11111" fill="none" stroke="url(#color-20)" stroke-width="7.5" stroke-linecap="round"/><path d="M278.86253,174.0477v12.77777" fill="none" stroke="url(#color-21)" stroke-width="7.5" stroke-linecap="round"/></g><path d="M275.58034,189.27374c0,-5.99292 4.85823,-10.85116 10.85115,-10.85116c5.99293,0 10.85116,4.85823 10.85116,10.85116c0,5.99292 -4.85823,10.85115 -10.85116,10.85115c-5.99292,0 -10.85115,-4.85823 -10.85115,-10.85115z" fill="url(#color-22)" stroke="#000000" stroke-width="0" stroke-linecap="butt"/><path d="M238.30932,223.04908v-86.09816h135.38819v86.09816z" fill="none" stroke="none" stroke-width="0" stroke-linecap="butt"/></g></g></svg>