<svg version="1.1" xmlns="http://www.w3.org/2000/svg" xmlns:xlink="http://www.w3.org/1999/xlink" width="480.66667" height="360" viewBox="0,0,480.66667,360"><defs><radialGradient cx="240.00004" cy="180" r="240.33333" gradientUnits="userSpaceOnUse" id="color-1"><stop offset="0" stop-color="#d1aa94"/><stop offset="1" stop-color="#a3555e"/></radialGradient></defs><g transform="translate(0.33331,0)"><g data-paper-data="{&quot;isPaintingLayer&quot;:true}" fill-rule="nonzero" stroke-width="0" stroke-linecap="butt" stroke-linejoin="miter" stroke-miterlimit="10" stroke-dasharray="" stroke-dashoffset="0" style="mix-blend-mode: normal"><path d="M-0.33331,360v-360h480.66667v360z" fill="url(#color-1)" stroke="#000000"/><path d="M131,280.5l-42.7661,-42.64449l11.7661,-111.35551l10.46482,113.71455l33.13586,18.09767l47.26294,-7.04377l23.29847,-45.92717l-49.15027,-35.92554l-23.14652,33.26195l22.22433,17.71028l32.43553,-11.11154l-30.43629,31.65495l-42.77253,-31.33925l16.39397,-47.8965l33.14839,-9.81045l53.14132,41.61483l-8,67z" fill-opacity="0.1098" fill="#000000" stroke="none"/><path d="M138,262.5l-31.7661,-29.64448l-5.2339,-105.35551l19.46481,102.71454l33.13586,18.09767l55.26294,-7.04377l15.29847,-45.92717l-49.15027,-35.92554l-23.14652,33.26195l15.22432,12.71028l32.43554,-2.11154l-31.43629,20.65496l-34.77253,-24.33925l16.39396,-47.89651l33.14839,-9.81045l53.14132,41.61483l-8,67z" fill-opacity="0.50196" fill="#ffffff" stroke="none"/><path d="M91.00004,86.5l50,-30l96.25487,1.76109l71.78066,7.28188l67.96447,-12.04297l-59,33l-142,-14z" fill-opacity="0.21961" fill="#ffffff" stroke="none"/><path d="M91.00004,87.5l51,-22l36.25487,8.76109l135.78066,5.28189l60.96447,-23.04297l-56,39l-142,-14z" fill-opacity="0.1098" fill="#000000" stroke="none"/><path d="M12.50002,281l15,-61l3.75487,69.26109l33.63068,13.55159l-8.01947,28.40897l98.16946,-11.67867l67.96446,-12.04298l51.4303,23.47119l-76.06521,-9.69234l-34.36508,19.22115l-136.16038,4.51827l6.16038,-29.51827z" fill-opacity="0.21176" fill="#000000" stroke="none"/><path d="M28.50002,287l1,-75l14.75487,67.26109l33.63068,13.55159l-17.51947,29.40897l107.66946,-12.67867l67.96446,-12.04298l-59,33l-136.16038,4.51827l24.16038,-31.51827z" fill-opacity="0.21961" fill="#ffffff" stroke="none"/><path d="M65.16675,269.5l0.5,-39l20,37.5l61.5,35.5l-49.89762,3.87937l5.86202,-18.36244z" fill-opacity="0.1098" fill="#000000" stroke="none"/><path d="M42.16677,178.5l-1.09085,-54.39058l-21.40915,-54.10941l33.46447,41.0503l29.53553,3.4497l-29.5,25.5z" fill-opacity="0.1098" fill="#000000" stroke="none"/><path d="M19.46677,69.9l63.2,44.6l-32.5,-3z" fill-opacity="0.50196" fill="#ffffff" stroke="none"/><path d="M20.16675,201.5l-9.5,-94.5l24,86l32.39875,14.74872l17.49743,-66.55708l-9.39618,73.30837z" fill-opacity="0.21961" fill="#ffffff" stroke="none"/><path d="M49.46677,63.9l107.2,-48.9l-75.5,59.5z" fill-opacity="0.21961" fill="#ffffff" stroke="none"/><path d="M31.6033,57.7252l-22.65909,-11.17934l40.28604,-36.27106l35.15909,3.67934z" fill-opacity="0.21961" fill="#ffffff" stroke="none"/><path d="M47.00003,62l34.5,-48l5.25487,23.76109l66.74513,-21.26109z" fill-opacity="0.21176" fill="#000000" stroke="none"/><path d="M127.66679,107.75h125.5l23,106.5l-36.5,-78z" fill-opacity="0.21176" fill="#000000" stroke="none"/><path d="M456.98671,90.16915l-0.71425,47.44742l-40.3067,41.19576l29.49279,-55.03759l-7.88488,-28.59831l-29.79969,-22.83919l-38.66256,11.93677l6.5677,47.38139l31.42798,-5.10287l-2.14205,-22.22533l-23.99558,-12.24427l34.50337,-0.10862l5.6729,41.27438l-36.00226,16.91144l-19.65037,-13.35765l-5.53571,-52.74335l42.20319,-32.08848z" data-paper-data="{&quot;index&quot;:null}" fill-opacity="0.21176" fill="#000000" stroke="none"/><path d="M467.48041,92.0509l0.61645,34.13352l-56.63069,60.51689l47.36431,-67.10964l-7.88487,-28.59831l-34.17053,-27.35648l-34.29172,16.45407l6.5677,47.38139l31.42798,-5.10287l-1.14087,-15.54092l-18.91362,-17.16147l28.83844,6.46594l5.2547,32.9326l-36.00227,16.91144l-23.65037,-13.35765l-5.53571,-52.74335l42.20319,-32.08848z" data-paper-data="{&quot;index&quot;:null}" fill-opacity="0.21961" fill="#ffffff" stroke="none"/><path d="M419.62908,337.26423l-53.06046,10.66662l-110.4859,-71.11628l118.13345,54.78962l42.36095,-20.42887l32.95035,-61.07172l-35.41246,-48.80409l-84.0912,3.05365l80.68626,-23.63018l62.04587,56.69774z" data-paper-data="{&quot;index&quot;:null}" fill-opacity="0.50196" fill="#ffffff" stroke="none"/><path d="M227.58343,351.5l45,-21l1,-25l24.5,36.5z" fill-opacity="0.21961" fill="#ffffff" stroke="none"/><path d="M410.58346,215.5l-79.5,-11l84,-2.5l32.75408,46.02845l-30.25407,63.47155l9.56228,-59.93162z" fill-opacity="0.1098" fill="#000000" stroke="none"/><path d="M298.58346,344l-39,-64.5l107,68.5l-51.12586,-14.86034z" fill-opacity="0.1098" fill="#000000" stroke="none"/><path d="M135.16678,123.75l-17,-27l14,11.5l45.5,13.5z" fill-opacity="0.21961" fill="#ffffff" stroke="none"/><path d="M161.58335,48.5l15.5,-46.5l43.5,28l-36.5,-3.5z" fill-opacity="0.21961" fill="#ffffff" stroke="none"/><path d="M341.75004,295.25l-29,-70l59.5,-0.5l16,70.5l-39.5,-54z" fill-opacity="0.21961" fill="#ffffff" stroke="none"/><path d="M254.75004,260.75l17.5,-31l-17.5,-22.5l21.53121,-0.54963l-10.5312,-46.95037l33.16575,41.52466l-8.16575,40.97534z" fill-opacity="0.21961" fill="#ffffff" stroke="none"/><path d="M236.08337,35.5l0.5,-29.5l14.5,41.5l39.28841,-34.96895l-11.56098,40.43132l77.20767,-35.51631l-63.90618,42.40816l-42.02892,1.14579z" fill-opacity="0.1098" fill="#000000" stroke="none"/><path d="M245.08337,34.5l0.5,-29.5l14.5,41.5l39.28841,-34.96895l-11.56098,40.43132l77.20767,-35.51631l-63.90618,42.40816l-42.02893,1.14579z" fill-opacity="0.50196" fill="#ffffff" stroke="none"/><path d="M303.33337,233.5l10.45854,-66.67317l9.54146,-60.82683l8.49584,28.98003l35.00416,-0.48003l-39.24272,26.85786l-13.75728,63.64215l27.5,70z" fill-opacity="0.1098" fill="#000000" stroke="none"/><path d="M311.33337,166.5l-24,-56l31.5,41.5l26.49774,-57.39366l-6.53661,57.41143l43.03886,22.48224z" fill-opacity="0.50196" fill="#ffffff" stroke="none"/><path d="M250.75004,109.25l-35,-1l46,-9.5l2,43.5z" fill-opacity="0.21961" fill="#ffffff" stroke="none"/><path d="M441.33338,24.5l-67,8.5l75.5,-19.5l17,43.5z" fill-opacity="0.21961" fill="#ffffff" stroke="none"/><path d="M447.83338,348.83334l-9.66666,-15.33333l19.53803,0.02212l6.7953,-22.68878l9,33.33333z" fill-opacity="0.1098" fill="#000000" stroke="none"/></g></g></svg>