<svg version="1.1" xmlns="http://www.w3.org/2000/svg" xmlns:xlink="http://www.w3.org/1999/xlink" width="87.51895" height="65.70177" viewBox="0,0,87.51895,65.70177"><defs><radialGradient cx="217.16505" cy="164.92904" r="17.83194" gradientUnits="userSpaceOnUse" id="color-1"><stop offset="0" stop-color="#000000" stop-opacity="0.50196"/><stop offset="1" stop-color="#000000" stop-opacity="0"/></radialGradient><radialGradient cx="243.66203" cy="180" r="32.79887" gradientUnits="userSpaceOnUse" id="color-2"><stop offset="0" stop-color="#000000"/><stop offset="1" stop-color="#000000" stop-opacity="0"/></radialGradient><radialGradient cx="206.77389" cy="178.85396" r="17.83194" gradientUnits="userSpaceOnUse" id="color-3"><stop offset="0" stop-color="#000000" stop-opacity="0.50196"/><stop offset="1" stop-color="#000000" stop-opacity="0"/></radialGradient><radialGradient cx="210.55264" cy="195.34956" r="7.45615" gradientUnits="userSpaceOnUse" id="color-4"><stop offset="0" stop-color="#000000" stop-opacity="0.25098"/><stop offset="1" stop-color="#000000" stop-opacity="0"/></radialGradient><linearGradient x1="205.15702" y1="198.96461" x2="212.1149" y2="198.96461" gradientUnits="userSpaceOnUse" id="color-5"><stop offset="0" stop-color="#ff6666"/><stop offset="1" stop-color="#eb0000"/></linearGradient><linearGradient x1="199.65933" y1="194.50308" x2="210.48236" y2="194.50308" gradientUnits="userSpaceOnUse" id="color-6"><stop offset="0" stop-color="#ff6666"/><stop offset="1" stop-color="#eb0000"/></linearGradient><linearGradient x1="194.85884" y1="187.28711" x2="209.77114" y2="187.28711" gradientUnits="userSpaceOnUse" id="color-7"><stop offset="0" stop-color="#ff6666"/><stop offset="1" stop-color="#eb0000"/></linearGradient><linearGradient x1="194.84301" y1="177.37094" x2="215.24839" y2="177.37094" gradientUnits="userSpaceOnUse" id="color-8"><stop offset="0" stop-color="#ff6666"/><stop offset="1" stop-color="#eb0000"/></linearGradient><linearGradient x1="199.81032" y1="169.64186" x2="225.46462" y2="169.64186" gradientUnits="userSpaceOnUse" id="color-9"><stop offset="0" stop-color="#ff6666"/><stop offset="1" stop-color="#eb0000"/></linearGradient><linearGradient x1="208.94651" y1="171.135" x2="244.61039" y2="171.135" gradientUnits="userSpaceOnUse" id="color-10"><stop offset="0" stop-color="#ff6666"/><stop offset="1" stop-color="#eb0000"/></linearGradient><linearGradient x1="219.7267" y1="180" x2="267.59738" y2="180" gradientUnits="userSpaceOnUse" id="color-11"><stop offset="0" stop-color="#ff6666"/><stop offset="1" stop-color="#eb0000"/></linearGradient></defs><g transform="translate(-188.94196,-147.0971)"><g data-paper-data="{&quot;isPaintingLayer&quot;:true}" fill-rule="nonzero" stroke="#000000" stroke-width="0" stroke-linecap="butt" stroke-linejoin="miter" stroke-miterlimit="10" stroke-dasharray="" stroke-dashoffset="0" style="mix-blend-mode: normal"><path d="M199.33312,164.92904c0,-9.84831 7.98363,-17.83194 17.83194,-17.83194c9.84831,0 17.83194,7.98363 17.83194,17.83194c0,9.84831 -7.98363,17.83194 -17.83194,17.83194c-9.84831,0 -17.83194,-7.98363 -17.83194,-17.83194z" fill="url(#color-1)"/><path d="M210.86317,180c0,-18.11432 14.68456,-32.79887 32.79887,-32.79887c18.11432,0 32.79887,14.68456 32.79887,32.79887c0,18.11432 -14.68456,32.79887 -32.79887,32.79887c-18.11432,0 -32.79887,-14.68456 -32.79887,-32.79887z" fill="url(#color-2)"/><path d="M188.94196,178.85396c0,-9.84831 7.98363,-17.83194 17.83194,-17.83194c9.84831,0 17.83194,7.98363 17.83194,17.83194c0,9.84831 -7.98363,17.83194 -17.83194,17.83194c-9.84831,0 -17.83194,-7.98363 -17.83194,-17.83194z" fill="url(#color-3)"/><path d="M203.09648,195.34956c0,-4.11792 3.33824,-7.45615 7.45615,-7.45615c4.11792,0 7.45615,3.33824 7.45615,7.45615c0,4.11792 -3.33824,7.45615 -7.45615,7.45615c-4.11792,0 -7.45615,-3.33824 -7.45615,-7.45615z" fill="url(#color-4)"/><path d="M205.15702,198.96461c0,-1.92136 1.55757,-3.47894 3.47894,-3.47894c1.92136,0 3.47894,1.55757 3.47894,3.47894c0,1.92136 -1.55757,3.47894 -3.47894,3.47894c-1.92136,0 -3.47894,-1.55757 -3.47894,-3.47894z" fill="url(#color-5)"/><path d="M199.65933,194.50308c0,-2.9887 2.42282,-5.41152 5.41152,-5.41152c2.9887,0 5.41151,2.42282 5.41151,5.41152c0,2.9887 -2.42282,5.41152 -5.41151,5.41152c-2.9887,0 -5.41152,-2.42282 -5.41152,-5.41152z" fill="url(#color-6)"/><path d="M194.85884,187.28711c0,-4.11792 3.33823,-7.45615 7.45615,-7.45615c4.11792,0 7.45615,3.33823 7.45615,7.45615c0,4.11792 -3.33823,7.45615 -7.45615,7.45615c-4.11792,0 -7.45615,-3.33823 -7.45615,-7.45615z" fill="url(#color-7)"/><path d="M194.84301,177.37094c0,-5.63479 4.5679,-10.20269 10.20269,-10.20269c5.63479,0 10.20269,4.5679 10.20269,10.20269c0,5.63479 -4.5679,10.20269 -10.20269,10.20269c-5.63479,0 -10.20269,-4.5679 -10.20269,-10.20269z" fill="url(#color-8)"/><path d="M199.81032,169.64186c0,-7.08424 5.74291,-12.82715 12.82715,-12.82715c7.08424,0 12.82715,5.74291 12.82715,12.82715c0,7.08424 -5.74291,12.82715 -12.82715,12.82715c-7.08424,0 -12.82715,-5.74291 -12.82715,-12.82715z" fill="url(#color-9)"/><path d="M208.94651,171.135c0,-9.84831 7.98363,-17.83194 17.83194,-17.83194c9.84831,0 17.83194,7.98363 17.83194,17.83194c0,9.84831 -7.98363,17.83193 -17.83194,17.83193c-9.84831,0 -17.83194,-7.98363 -17.83194,-17.83193z" fill="url(#color-10)"/><path d="M219.7267,180c0,-13.21912 10.71622,-23.93534 23.93534,-23.93534c13.21912,0 23.93534,10.71622 23.93534,23.93534c0,13.21912 -10.71622,23.93534 -23.93534,23.93534c-13.21912,0 -23.93534,-10.71622 -23.93534,-23.93534z" fill="url(#color-11)"/><g><g><path d="M250.18965,202.06223c-6.03675,0 -10.9305,-4.89375 -10.9305,-10.9305c0,-6.03675 4.89375,-10.93049 10.9305,-10.93049c6.03675,0 10.9305,4.89374 10.9305,10.93049c0,6.03675 -4.89375,10.9305 -10.9305,10.9305z" fill="#ffffff"/><path d="M247.91111,191.13173c0,-3.65898 2.9662,-6.62518 6.62518,-6.62518c3.65898,0 6.62518,2.9662 6.62518,6.62518c0,3.65898 -2.9662,6.62518 -6.62518,6.62518c-3.65898,0 -6.62518,-2.9662 -6.62518,-6.62518z" fill="#000000"/></g><g><path d="M250.18965,179.79877c-6.03675,0 -10.9305,-4.89375 -10.9305,-10.9305c0,-6.03675 4.89375,-10.93049 10.9305,-10.93049c6.03675,0 10.9305,4.89374 10.9305,10.93049c0,6.03675 -4.89375,10.9305 -10.9305,10.9305z" fill="#ffffff"/><path d="M247.91111,168.86827c0,-3.65898 2.9662,-6.62518 6.62518,-6.62518c3.65898,0 6.62518,2.9662 6.62518,6.62518c0,3.65898 -2.9662,6.62518 -6.62518,6.62518c-3.65898,0 -6.62518,-2.9662 -6.62518,-6.62518z" fill="#000000"/></g></g></g></g></svg>