<svg version="1.1" xmlns="http://www.w3.org/2000/svg" xmlns:xlink="http://www.w3.org/1999/xlink" width="97.65352" height="96.82241" viewBox="0,0,97.65352,96.82241"><defs><linearGradient x1="276.60594" y1="216.16389" x2="240.84652" y2="180.40446" gradientUnits="userSpaceOnUse" id="color-1"><stop offset="0" stop-color="#3c3c3c"/><stop offset="1" stop-color="#bebebe"/></linearGradient><linearGradient x1="276.46969" y1="216.05762" x2="210.8486" y2="150.32567" gradientUnits="userSpaceOnUse" id="color-2"><stop offset="0" stop-color="#000000"/><stop offset="1" stop-color="#ff0000"/></linearGradient><linearGradient x1="225.87645" y1="166.13357" x2="210.01902" y2="150.25604" gradientUnits="userSpaceOnUse" id="color-3"><stop offset="0" stop-color="#ff0000"/><stop offset="1" stop-color="#360000"/></linearGradient><linearGradient x1="209.44956" y1="149.75301" x2="203.50203" y2="143.79544" gradientUnits="userSpaceOnUse" id="color-4"><stop offset="0" stop-color="#ffffff"/><stop offset="1" stop-color="#000000"/></linearGradient><linearGradient x1="228.07877" y1="167.93619" x2="219.5167" y2="159.35965" gradientUnits="userSpaceOnUse" id="color-5"><stop offset="0" stop-color="#ffffff"/><stop offset="1" stop-color="#ffffff" stop-opacity="0"/></linearGradient><linearGradient x1="225.23237" y1="152.22174" x2="220.5007" y2="147.48208" gradientUnits="userSpaceOnUse" id="color-6"><stop offset="0" stop-color="#ffffff"/><stop offset="1" stop-color="#ffffff" stop-opacity="0"/></linearGradient><linearGradient x1="209.38951" y1="169.14575" x2="202.62999" y2="162.37481" gradientUnits="userSpaceOnUse" id="color-7"><stop offset="0" stop-color="#ffffff"/><stop offset="1" stop-color="#ffffff" stop-opacity="0"/></linearGradient><linearGradient x1="236.69155" y1="152.5661" x2="231.95987" y2="147.82642" gradientUnits="userSpaceOnUse" id="color-8"><stop offset="0" stop-color="#ffffff"/><stop offset="1" stop-color="#ffffff" stop-opacity="0"/></linearGradient><linearGradient x1="226.37586" y1="141.8093" x2="223.44673" y2="138.87522" gradientUnits="userSpaceOnUse" id="color-9"><stop offset="0" stop-color="#ffffff"/><stop offset="1" stop-color="#ffffff" stop-opacity="0"/></linearGradient><linearGradient x1="211.35202" y1="156.82416" x2="208.42289" y2="153.89008" gradientUnits="userSpaceOnUse" id="color-10"><stop offset="0" stop-color="#ffffff"/><stop offset="1" stop-color="#ffffff" stop-opacity="0"/></linearGradient><linearGradient x1="213.41324" y1="178.43683" x2="208.23094" y2="173.24577" gradientUnits="userSpaceOnUse" id="color-11"><stop offset="0" stop-color="#ffffff"/><stop offset="1" stop-color="#ffffff" stop-opacity="0"/></linearGradient><linearGradient x1="236.64777" y1="176.59478" x2="231.23859" y2="171.17648" gradientUnits="userSpaceOnUse" id="color-12"><stop offset="0" stop-color="#636363"/><stop offset="1" stop-color="#bababa"/></linearGradient><linearGradient x1="249.13726" y1="189.50253" x2="243.72807" y2="184.08422" gradientUnits="userSpaceOnUse" id="color-13"><stop offset="0" stop-color="#636363"/><stop offset="1" stop-color="#bababa"/></linearGradient><linearGradient x1="261.3759" y1="214.63362" x2="275.76235" y2="200.27142" gradientUnits="userSpaceOnUse" id="color-14"><stop offset="0" stop-color="#ff5454"/><stop offset="1" stop-color="#eb0000"/></linearGradient><linearGradient x1="249.64567" y1="205.14219" x2="264.93679" y2="189.87686" gradientUnits="userSpaceOnUse" id="color-15"><stop offset="0" stop-color="#ff5454"/><stop offset="1" stop-color="#eb0000"/></linearGradient><linearGradient x1="242.94567" y1="198.03261" x2="258.23677" y2="182.76729" gradientUnits="userSpaceOnUse" id="color-16"><stop offset="0" stop-color="#ff5454"/><stop offset="1" stop-color="#eb0000"/></linearGradient><linearGradient x1="239.95326" y1="184.36666" x2="245.07773" y2="179.49051" gradientUnits="userSpaceOnUse" id="color-17"><stop offset="0" stop-color="#ff5454"/><stop offset="1" stop-color="#eb0000"/></linearGradient><linearGradient x1="235.76904" y1="179.7688" x2="240.87477" y2="174.91047" gradientUnits="userSpaceOnUse" id="color-18"><stop offset="0" stop-color="#ff5454"/><stop offset="1" stop-color="#eb0000"/></linearGradient><linearGradient x1="267.28065" y1="210.89097" x2="271.25236" y2="206.92596" gradientUnits="userSpaceOnUse" id="color-19"><stop offset="0" stop-color="#ffffff"/><stop offset="1" stop-color="#8f8f8f"/></linearGradient></defs><g transform="translate(-189.68733,-130.10657)"><g data-paper-data="{&quot;isPaintingLayer&quot;:true}" fill-rule="nonzero" stroke-miterlimit="10" stroke-dasharray="" stroke-dashoffset="0" style="mix-blend-mode: normal"><g><path d="M240.8616,180.38938l35.72925,35.78961" fill="none" stroke="url(#color-1)" stroke-width="21.5" stroke-linecap="round" stroke-linejoin="miter"/><path d="M210.8486,150.32567l65.62109,65.73195" fill="none" stroke="url(#color-2)" stroke-width="10" stroke-linecap="round" stroke-linejoin="miter"/><path d="M213.47006,177.02304c0,0 -4.84932,-4.62808 -7.0316,-7.21611c-2.2017,-2.61108 -4.3229,-10.17976 -4.3229,-10.17976l17.04144,-16.99218c0,0 7.10975,1.27058 9.55999,3.34195c2.71566,2.29574 8.07452,7.77392 8.07452,7.77392z" fill="#9e0000" stroke="url(#color-3)" stroke-width="16" stroke-linecap="round" stroke-linejoin="round"/><path d="M192.18733,160.73858l28.38349,-28.132" fill="none" stroke="url(#color-4)" stroke-width="5" stroke-linecap="round" stroke-linejoin="miter"/><path d="M228.07877,167.93619c-2.36836,2.36435 -6.20495,2.36111 -8.5693,-0.00723c-2.36435,-2.36836 -2.36112,-6.20494 0.00723,-8.5693c2.36836,-2.36435 6.20495,-2.36113 8.56931,0.00723c2.36434,2.36834 2.36112,6.20494 -0.00724,8.5693z" fill="url(#color-5)" stroke="none" stroke-width="0" stroke-linecap="butt" stroke-linejoin="miter"/><path d="M225.23237,152.22174c-1.30883,1.30662 -3.42905,1.30482 -4.73567,-0.004c-1.30662,-1.30883 -1.30482,-3.42905 0.004,-4.73566c1.30883,-1.30662 3.42905,-1.30482 4.73566,0.004c1.30662,1.30883 1.30483,3.42904 -0.004,4.73566z" fill="url(#color-6)" stroke="none" stroke-width="0" stroke-linecap="butt" stroke-linejoin="miter"/><path d="M209.38951,169.14575c-1.86975,1.86659 -4.89864,1.86405 -6.76524,-0.00571c-1.86659,-1.86975 -1.86403,-4.89865 0.00571,-6.76524c1.86975,-1.86659 4.89864,-1.86402 6.76524,0.00571c1.86659,1.86975 1.86403,4.89862 -0.00571,6.76524z" fill="url(#color-7)" stroke="none" stroke-width="0" stroke-linecap="butt" stroke-linejoin="miter"/><path d="M236.69155,152.5661c-1.30883,1.30662 -3.42905,1.30482 -4.73566,-0.004c-1.30662,-1.30883 -1.30482,-3.42905 0.004,-4.73567c1.30883,-1.30662 3.42905,-1.30482 4.73566,0.004c1.30662,1.30883 1.30482,3.42905 -0.004,4.73567z" fill="url(#color-8)" stroke="none" stroke-width="0" stroke-linecap="butt" stroke-linejoin="miter"/><path d="M226.37586,141.8093c-0.81023,0.80886 -2.12274,0.80775 -2.93161,-0.00247c-0.80886,-0.81023 -0.80776,-2.12275 0.00247,-2.93161c0.81023,-0.80886 2.12274,-0.80775 2.93161,0.00247c0.80886,0.81023 0.80776,2.12275 -0.00247,2.93161z" fill="url(#color-9)" stroke="none" stroke-width="0" stroke-linecap="butt" stroke-linejoin="miter"/><path d="M211.35202,156.82416c-0.81023,0.80886 -2.12275,0.80776 -2.93161,-0.00247c-0.80886,-0.81023 -0.80776,-2.12275 0.00247,-2.93161c0.81023,-0.80886 2.12274,-0.80775 2.93161,0.00247c0.80886,0.81023 0.80776,2.12275 -0.00247,2.93161z" fill="url(#color-10)" stroke="none" stroke-width="0" stroke-linecap="butt" stroke-linejoin="miter"/><path d="M213.41324,178.43683c-1.43348,1.43107 -3.75562,1.4291 -5.18668,-0.00437c-1.43107,-1.43348 -1.42911,-3.75561 0.00438,-5.18667c1.43348,-1.43107 3.75561,-1.42911 5.18667,0.00438c1.43106,1.43347 1.42911,3.75561 -0.00437,5.18668z" fill="url(#color-11)" stroke="none" stroke-width="0" stroke-linecap="butt" stroke-linejoin="miter"/><path d="M223.94434,183.86092l20.47389,-20.42678" fill="none" stroke="url(#color-12)" stroke-width="5" stroke-linecap="round" stroke-linejoin="miter"/><path d="M232.46545,200.73705l27.93442,-27.88732" fill="none" stroke="url(#color-13)" stroke-width="5" stroke-linecap="round" stroke-linejoin="miter"/><path d="M276.59823,201.10228l-14.42931,14.32568" fill="none" stroke="url(#color-14)" stroke-width="7.5" stroke-linecap="round" stroke-linejoin="miter"/><path d="M251.62819,207.12805l15.29447,-15.26868" fill="none" stroke="url(#color-15)" stroke-width="2.5" stroke-linecap="round" stroke-linejoin="miter"/><path d="M259.94469,184.47218l-15.21477,15.3477" fill="none" stroke="url(#color-16)" stroke-width="2.5" stroke-linecap="round" stroke-linejoin="miter"/><path d="M239.93471,184.30676l4.84408,-5.07382" fill="none" stroke="url(#color-17)" stroke-width="2.5" stroke-linecap="round" stroke-linejoin="miter"/><path d="M236.5139,180.47077l4.88588,-4.99239" fill="none" stroke="url(#color-18)" stroke-width="2.5" stroke-linecap="round" stroke-linejoin="miter"/><path d="M274.91666,214.56817l-11.30032,-11.31941" fill="none" stroke="url(#color-19)" stroke-width="5" stroke-linecap="round" stroke-linejoin="miter"/></g></g></g></svg>