<svg version="1.1" xmlns="http://www.w3.org/2000/svg" xmlns:xlink="http://www.w3.org/1999/xlink" width="37.6" height="43.6" viewBox="0,0,37.6,43.6"><g transform="translate(-221.20002,-158.2)"><g data-paper-data="{&quot;isPaintingLayer&quot;:true}" fill-rule="nonzero" stroke="none" stroke-linecap="butt" stroke-linejoin="miter" stroke-miterlimit="10" stroke-dasharray="" stroke-dashoffset="0" style="mix-blend-mode: normal"><path d="M221.20003,201.8v-43.6h37.6v43.6z" fill="none" stroke-width="0"/><path d="M227.20953,191.83475v-23.66949c0,-1.00317 0.29146,-1.78945 0.87439,-2.35881c0.59648,-0.58293 1.34886,-0.87439 2.25714,-0.87439c0.92184,0 1.66744,0.28468 2.23681,0.85405c0.58293,0.55581 0.87439,1.34886 0.87439,2.37915v8.82522h13.07515v-8.82522c0,-1.00317 0.29146,-1.78945 0.87439,-2.35881c0.59648,-0.58293 1.34886,-0.87439 2.25714,-0.87439c0.93539,0 1.68777,0.28468 2.25714,0.85405c0.58293,0.55581 0.87439,1.34886 0.87439,2.37915v23.66949c0,1.03029 -0.29146,1.83011 -0.87439,2.39948c-0.56937,0.55581 -1.32175,0.83371 -2.25714,0.83371c-0.90828,0 -1.66066,-0.28468 -2.25714,-0.85405c-0.58293,-0.58293 -0.87439,-1.37598 -0.87439,-2.37915v-9.08957h-13.07515v9.08957c0,1.03029 -0.29146,1.83011 -0.87439,2.39948c-0.56937,0.55581 -1.31497,0.83371 -2.23681,0.83371c-0.90828,0 -1.66066,-0.28468 -2.25714,-0.85405c-0.58292,-0.58293 -0.87439,-1.37598 -0.87439,-2.37915z" fill="#ff0000" stroke-width="0.40889"/></g></g></svg>