<svg version="1.1" xmlns="http://www.w3.org/2000/svg" xmlns:xlink="http://www.w3.org/1999/xlink" width="65.59774" height="70.31352" viewBox="0,0,65.59774,70.31352"><defs><radialGradient cx="240.00006" cy="180" r="32.79887" gradientUnits="userSpaceOnUse" id="color-1"><stop offset="0" stop-color="#000000"/><stop offset="1" stop-color="#000000" stop-opacity="0"/></radialGradient><linearGradient x1="238.08585" y1="211.35395" x2="238.08585" y2="147.85953" gradientUnits="userSpaceOnUse" id="color-2"><stop offset="0" stop-color="#bf5858"/><stop offset="1" stop-color="#bf7777"/></linearGradient><linearGradient x1="250.95724" y1="159.96237" x2="250.95724" y2="144.84325" gradientUnits="userSpaceOnUse" id="color-3"><stop offset="0" stop-color="#c20000"/><stop offset="1" stop-color="#c26666"/></linearGradient><linearGradient x1="252.03671" y1="215.02912" x2="252.03671" y2="199.79058" gradientUnits="userSpaceOnUse" id="color-4"><stop offset="0" stop-color="#9f0000"/><stop offset="1" stop-color="#c20000"/></linearGradient><linearGradient x1="220.65988" y1="180.77906" x2="262.78391" y2="180.77906" gradientUnits="userSpaceOnUse" id="color-5"><stop offset="0" stop-color="#ff7a7a"/><stop offset="1" stop-color="#ff2727"/></linearGradient></defs><g transform="translate(-207.20115,-144.84324)"><g data-paper-data="{&quot;isPaintingLayer&quot;:true}" stroke-linejoin="miter" stroke-miterlimit="10" stroke-dasharray="" stroke-dashoffset="0" style="mix-blend-mode: normal"><path d="M207.20115,180c0,-18.11432 14.68456,-32.79887 32.79887,-32.79887c18.11432,0 32.79887,14.68456 32.79887,32.79887c0,18.11432 -14.68456,32.79887 -32.79887,32.79887c-18.11432,0 -32.79887,-14.68456 -32.79887,-32.79887z" fill="url(#color-1)" fill-rule="nonzero" stroke="#000000" stroke-width="0" stroke-linecap="butt"/><path d="M260.7955,159.92244c0,0 -0.75605,30.10843 0.52341,37.23453c1.71348,9.54272 -2.02541,12.70539 -8.08002,13.85729c-10.01511,1.90552 -10.34549,-4.73558 -15.81733,-6.77076c-5.47287,-2.03435 -14.37576,2.75175 -14.83542,-6.77076c-0.38477,-7.96476 -7.84197,-8.08602 -8.38988,-12.00145c-0.84956,-6.07272 3.66179,-8.35063 5.61946,-12.8437c1.84891,-4.24383 -0.36822,-5.52518 1.95779,-10.27506c1.99358,-4.06952 12.58943,-4.25309 14.79233,-9.61345c1.38355,-3.36574 3.27319,-4.49576 5.07359,-4.61317c0.49264,-0.03213 5.32519,-0.64961 8.63254,0.11306c3.52021,0.81177 5.55912,3.03535 7.23031,4.00249c5.91435,3.42275 4.40653,7.45258 4.40653,7.45258" fill="url(#color-2)" fill-rule="evenodd" stroke="none" stroke-width="1" stroke-linecap="butt"/><path d="M230.69073,159.61519c0,0.06895 -0.00556,0.1379 -0.02002,0.20797l-1.40013,7.39874c-0.11343,0.60387 -0.69617,0.99978 -1.29891,0.88633c-0.60387,-0.11455 -1.00645,-0.69728 -0.88635,-1.29892l1.40123,-7.39986c0.11343,-0.60387 0.69617,-0.99977 1.29892,-0.88522c0.5338,0.10009 0.90524,0.56716 0.90524,1.09097" fill="#ff0000" fill-rule="evenodd" stroke="none" stroke-width="1" stroke-linecap="butt"/><path d="M241.22179,156.75644c-1.03646,0.59831 -2.37432,0.24021 -2.97262,-0.79737l-0.61165,-1.05871c-0.59831,-1.03646 -0.2391,-2.37432 0.79626,-2.97262l3.91679,-2.26088c1.03646,-0.59831 2.37319,-0.2402 2.97261,0.79738l0.61054,1.05872c0.59831,1.03646 0.24021,2.37431 -0.79625,2.97261l-3.91568,2.26088" fill="#e81c1c" fill-rule="evenodd" stroke="none" stroke-width="1" stroke-linecap="butt"/><path d="M242.5794,202.8105c-0.34697,1.14435 -1.56915,1.79825 -2.7135,1.45016l-2.29982,-0.69728c-1.14435,-0.34697 -1.79713,-1.56806 -1.45016,-2.71352l1.85608,-6.12317c0.34808,-1.14545 1.56916,-1.79826 2.71461,-1.45018l2.29869,0.69728c1.14545,0.34697 1.79713,1.56805 1.45016,2.71351l-1.85608,6.12318" fill="#e81c1c" fill-rule="evenodd" stroke="none" stroke-width="1" stroke-linecap="butt"/><path d="M232.62193,189.64701c0.51712,1.07873 0.05672,2.38544 -1.02312,2.90145l-0.41592,0.20019c-1.07984,0.51601 -2.38434,0.0556 -2.90145,-1.02313l-1.42903,-2.98597c-0.51712,-1.07984 -0.05671,-2.38543 1.02202,-2.90144l0.41703,-0.20017c1.07873,-0.51601 2.38543,-0.05562 2.90144,1.02312l1.42904,2.98597" fill="#e81c1c" fill-rule="evenodd" stroke="none" stroke-width="1" stroke-linecap="butt"/><path d="M225.19965,173.8634c0.39813,1.12878 -0.19796,2.37765 -1.32673,2.77578l-1.15325,0.40703c-1.12878,0.39925 -2.37765,-0.19684 -2.7769,-1.32561l-1.50688,-4.26376c-0.39813,-1.12878 0.19906,-2.37766 1.32673,-2.77579l1.15324,-0.40814c1.12878,-0.39925 2.37877,0.19796 2.77689,1.32673l1.5069,4.26376" fill="#e81c1c" fill-rule="evenodd" stroke="none" stroke-width="1" stroke-linecap="butt"/><path d="M239.44952,155.40279c-0.47819,-1.87943 2.64679,-3.29179 3.01377,-4.6263c0.34475,-1.2233 1.08985,-4.74865 4.53734,-5.56047c2.391,-0.56716 4.97106,1.52357 7.05067,0.17794c1.79776,-1.16426 4.90576,-0.4975 6.56729,2.14285c1.57608,2.50461 1.74986,6.91101 1.89603,8.68131c0,0 -11.08785,-0.08134 -20.9966,3.74426c-0.36699,-1.47908 -1.746,-3.29179 -2.0685,-4.55958" data-paper-data="{&quot;index&quot;:null}" fill="url(#color-3)" fill-rule="evenodd" stroke="none" stroke-width="1" stroke-linecap="butt"/><path d="M241.15747,204.35016c0.3225,-1.26779 1.70151,-3.0805 2.06849,-4.55958c9.90874,3.8256 19.406,4.5151 19.73963,9.25261v0.02224c-0.30027,3.63655 -3.70327,7.56223 -7.20636,5.29356c-2.07961,-1.34562 -4.65967,0.7451 -7.05066,0.17794c-3.44748,-0.81182 -4.19259,-4.33716 -4.53734,-5.56047c-0.36699,-1.33451 -3.49197,-2.74687 -3.01376,-4.6263" fill="url(#color-4)" fill-rule="evenodd" stroke="none" stroke-width="1" stroke-linecap="butt"/><path d="M262.78391,210.01972c0,-7.57826 -39.16233,-1.87183 -41.98148,-29.68155c-2.24421,-22.13865 22.56213,-27.61858 35.58918,-28.76963c3.39967,-0.30061 6.39231,1.68406 6.39231,4.27415z" fill="url(#color-5)" fill-rule="evenodd" stroke="none" stroke-width="1" stroke-linecap="butt"/><path d="M230.76419,199.61275c0,0.3225 -0.14012,0.64279 -0.41035,0.86298c-0.47598,0.38812 -1.1766,0.31584 -1.56361,-0.16014l-4.75531,-5.83849c-0.38589,-0.47709 -0.31583,-1.1777 0.16015,-1.56471c0.47598,-0.38812 1.17659,-0.31583 1.56471,0.16014l4.7542,5.83848c0.16793,0.20684 0.25022,0.45484 0.25022,0.70173" fill="#ff0000" fill-rule="evenodd" stroke="none" stroke-width="1" stroke-linecap="butt"/><path d="M253.79,208.20967c0,0.24689 -0.08118,0.49599 -0.25132,0.70285l-4.75976,5.83516c-0.38701,0.47598 -1.08762,0.54714 -1.5636,0.15791c-0.47486,-0.38812 -0.54826,-1.08762 -0.15903,-1.56471l4.76086,-5.83514c0.38701,-0.47598 1.08762,-0.54714 1.5636,-0.15792c0.26912,0.21908 0.40925,0.53936 0.40925,0.86187" fill="#ff0000" fill-rule="evenodd" stroke="none" stroke-width="1" stroke-linecap="butt"/><path d="M249.36128,173.40057c0,1.81383 -2.81916,1.81716 -2.81916,0c0,-1.81493 2.81916,-1.81716 2.81916,0" fill="#ffb9b9" fill-rule="evenodd" stroke="none" stroke-width="1" stroke-linecap="butt"/><path d="M245.33896,159.90041c0,1.81383 -2.81915,1.81716 -2.81915,0c0,-1.81493 2.81915,-1.81716 2.81915,0" fill="#f00000" fill-rule="evenodd" stroke="none" stroke-width="1" stroke-linecap="butt"/><path d="M256.94643,161.64573c0,1.81383 -2.81916,1.81716 -2.81916,0c0,-1.81493 2.81916,-1.81828 2.81916,0" fill="#ffb9b9" fill-rule="evenodd" stroke="none" stroke-width="1" stroke-linecap="butt"/><path d="M258.35611,185.52412c0,1.81383 -2.81915,1.81716 -2.81915,0c0,-1.81383 2.81915,-1.81716 2.81915,0" fill="#f00000" fill-rule="evenodd" stroke="none" stroke-width="1" stroke-linecap="butt"/><path d="M230.06911,183.98879c0,1.81383 -2.81916,1.81716 -2.81916,0c0,-1.81383 2.81916,-1.81716 2.81916,0" fill="#f00000" fill-rule="evenodd" stroke="none" stroke-width="1" stroke-linecap="butt"/><path d="M232.99373,169.79856c0,1.81383 -2.82027,1.81716 -2.82027,0c0,-1.81383 2.82027,-1.81716 2.82027,0" fill="#ffb9b9" fill-rule="evenodd" stroke="none" stroke-width="1" stroke-linecap="butt"/><path d="M238.74042,181.65538c0,1.81383 -2.81916,1.81716 -2.81916,0c0,-1.81383 2.81916,-1.81716 2.81916,0" fill="#f00000" fill-rule="evenodd" stroke="none" stroke-width="1" stroke-linecap="butt"/><path d="M248.15833,190.71705c0,1.81383 -2.81915,1.81716 -2.81915,0c0,-1.81383 2.81915,-1.81716 2.81915,0" fill="#f00000" fill-rule="evenodd" stroke="none" stroke-width="1" stroke-linecap="butt"/><path d="M252.75713,197.0751c0,1.81383 -2.81915,1.81716 -2.81915,0c0,-1.81383 2.81915,-1.81716 2.81915,0" fill="#f00000" fill-rule="evenodd" stroke="none" stroke-width="1" stroke-linecap="butt"/><path d="M237.46863,192.72116c0,1.81493 -2.81915,1.81828 -2.81915,0c0,-1.81383 2.81915,-1.81716 2.81915,0" fill="#ffb9b9" fill-rule="evenodd" stroke="none" stroke-width="1" stroke-linecap="butt"/><path d="M244.77235,191.55477c0,-2.79758 2.26789,-5.06547 5.06547,-5.06547c2.79758,0 5.06546,2.26789 5.06546,5.06547c0,2.79758 -2.26788,5.06547 -5.06546,5.06547c-2.79758,0 -5.06547,-2.26789 -5.06547,-5.06547z" fill="#000000" fill-rule="nonzero" stroke="#000000" stroke-width="0" stroke-linecap="butt"/><path d="M244.34746,166.9169c0,-2.79758 2.26789,-5.06547 5.06547,-5.06547c2.79758,0 5.06547,2.26789 5.06547,5.06547c0,2.79758 -2.26789,5.06546 -5.06547,5.06546c-2.79758,0 -5.06547,-2.26788 -5.06547,-5.06546z" fill="#000000" fill-rule="nonzero" stroke="#000000" stroke-width="0" stroke-linecap="butt"/><path d="M257.34728,189.75077v-21.48652" fill="none" fill-rule="nonzero" stroke="#000000" stroke-width="2" stroke-linecap="round"/></g></g></svg>