<svg version="1.1" xmlns="http://www.w3.org/2000/svg" xmlns:xlink="http://www.w3.org/1999/xlink" width="256.76458" height="90.05173" viewBox="0,0,256.76458,90.05173"><defs><linearGradient x1="-10.94604" y1="276.92783" x2="140.09923" y2="321.50103" gradientUnits="userSpaceOnUse" id="color-1"><stop offset="0" stop-color="#ffd000" stop-opacity="0.47451"/><stop offset="1" stop-color="#ffd000" stop-opacity="0"/></linearGradient><linearGradient x1="75.88831" y1="290.16028" x2="64.33659" y2="331.26358" gradientUnits="userSpaceOnUse" id="color-2"><stop offset="0" stop-color="#ffefaa"/><stop offset="1" stop-color="#ffd000"/></linearGradient><linearGradient x1="51.96207" y1="291.49755" x2="38.15222" y2="340.63608" gradientUnits="userSpaceOnUse" id="color-3"><stop offset="0" stop-color="#ffefaa"/><stop offset="1" stop-color="#ffd000"/></linearGradient><linearGradient x1="92.34116" y1="292.47165" x2="83.91628" y2="322.44921" gradientUnits="userSpaceOnUse" id="color-4"><stop offset="0" stop-color="#ffefaa"/><stop offset="1" stop-color="#ffd000"/></linearGradient><linearGradient x1="82.73497" y1="267.52226" x2="162.25683" y2="291.18681" gradientUnits="userSpaceOnUse" id="color-5"><stop offset="0" stop-color="#ffd000" stop-opacity="0.47451"/><stop offset="1" stop-color="#ffd000" stop-opacity="0"/></linearGradient><linearGradient x1="143.65586" y1="334.22816" x2="222.19504" y2="274.25514" gradientUnits="userSpaceOnUse" id="color-6"><stop offset="0" stop-color="#ffd000" stop-opacity="0.47451"/><stop offset="1" stop-color="#ffd000" stop-opacity="0"/></linearGradient></defs><g transform="translate(16.76458,-269.94827)"><g data-paper-data="{&quot;isPaintingLayer&quot;:true}" fill-rule="nonzero" stroke="none" stroke-width="0" stroke-linecap="butt" stroke-linejoin="miter" stroke-miterlimit="10" stroke-dasharray="" stroke-dashoffset="0" style="mix-blend-mode: normal"><path d="M-16.76458,335.15182l67.57358,-59.28831l8.97379,14.65613l131.50248,-7.80092l-108.69741,62.83287c0,0 -2.72008,8.8658 -3.51286,11.44977c-0.4057,1.32236 -0.92,2.99864 -0.92,2.99864z" fill="url(#color-1)"/><path d="M35.00184,322.61982l39.70173,-32.40721l-4.8084,10.08296l-1.91231,-0.46566l-11.9678,17.1258l30.8943,18.17855l2.25156,-0.11231l4.61461,4.51517z" fill="url(#color-2)"/><path d="M3.08283,330.30253l46.64489,-39.04766l-3.01211,9.90769l-3.20217,-0.64786l-15.64273,22.8588l37.33171,22.10837l2.75445,-0.16096l5.38916,5.20603z" fill="url(#color-3)"/><path d="M62.52172,316.14511l30.08807,-23.21272l-0.6453,4.49182l-1.24345,-0.01846l-3.97003,5.70702l92.24021,-15.57167l-88.81628,31.10462l9.60043,6.36259l1.65643,-0.01166l3.95489,3.4866z" fill="url(#color-4)"/><path d="M125.07584,271.01299c6.5849,0.0194 68.06375,-1.06472 68.06375,-1.06472c0,0 -62.93155,7.62409 -87.26005,10.41976c0,0 -8.34471,-0.31982 -1.86982,-4.75956c8.37989,-5.74599 21.06615,-4.59549 21.06615,-4.59549z" fill="url(#color-5)"/><path d="M164.33293,316.35222c-7.6096,-1.75908 1.04478,-5.79527 1.04478,-5.79527c25.94256,-7.87787 74.62229,-21.35091 74.62229,-21.35091c0,0 -45.91467,19.65157 -52.78839,22.59355c0,0 -13.03027,6.82924 -22.87869,4.55265z" data-paper-data="{&quot;index&quot;:null}" fill="url(#color-6)"/></g></g></svg>