<svg version="1.1" xmlns="http://www.w3.org/2000/svg" xmlns:xlink="http://www.w3.org/1999/xlink" width="37.6" height="43.6" viewBox="0,0,37.6,43.6"><g transform="translate(-221.20002,-158.2)"><g data-paper-data="{&quot;isPaintingLayer&quot;:true}" fill-rule="nonzero" stroke="none" stroke-linecap="butt" stroke-linejoin="miter" stroke-miterlimit="10" stroke-dasharray="" stroke-dashoffset="0" style="mix-blend-mode: normal"><path d="M221.20003,201.8v-43.6h37.6v43.6z" fill="none" stroke-width="0"/><path d="M239.98983,189.57759c1.27431,0 2.40627,-0.25079 3.39589,-0.75238c0.98962,-0.50159 1.81656,-1.19974 2.48083,-2.09446c0.66426,-0.90828 1.15229,-1.93179 1.46409,-3.07053c0.32536,-1.15229 0.48804,-2.37237 0.48804,-3.66023c0,-1.73522 -0.29824,-3.3281 -0.89472,-4.77863c-0.59648,-1.45053 -1.49121,-2.60961 -2.68417,-3.47722c-1.17942,-0.88117 -2.59607,-1.32175 -4.24995,-1.32175c-1.65387,0 -3.07728,0.44058 -4.27025,1.32175c-1.17942,0.86761 -2.06737,2.02668 -2.66385,3.47722c-0.59648,1.45053 -0.89472,3.04341 -0.89472,4.77863c0,2.72484 0.67104,5.00231 2.01313,6.83243c1.35563,1.83011 3.2942,2.74517 5.81569,2.74517zM239.98983,195.33229c-2.7655,0 -5.23954,-0.67104 -7.42211,-2.01312c-2.16904,-1.35564 -3.8636,-3.20609 -5.08367,-5.55135c-1.20651,-2.34526 -1.80977,-4.93453 -1.80977,-7.76782c0,-2.15547 0.34569,-4.16859 1.03706,-6.03938c0.69137,-1.87078 1.67421,-3.50433 2.94852,-4.90064c1.28785,-1.39631 2.80617,-2.47404 4.55494,-3.2332c1.74877,-0.77272 3.67378,-1.15907 5.77502,-1.15907c2.06059,0 3.97204,0.39991 5.73436,1.19974c1.7759,0.78627 3.301,1.87756 4.57529,3.27387c1.27431,1.39631 2.26393,3.02986 2.96886,4.90064c0.70493,1.87078 1.0574,3.8568 1.0574,5.95804c0,2.12836 -0.33891,4.12793 -1.01674,5.99871c-0.67781,1.85723 -1.66742,3.49077 -2.96884,4.90064c-1.28787,1.40987 -2.81297,2.50116 -4.57529,3.27387c-1.76234,0.77271 -3.68735,1.15907 -5.77505,1.15907z" fill="#ff0000" stroke-width="0.40889"/></g></g></svg>