<svg version="1.1" xmlns="http://www.w3.org/2000/svg" xmlns:xlink="http://www.w3.org/1999/xlink" width="86.46702" height="85.27405" viewBox="0,0,86.46702,85.27405"><defs><radialGradient cx="240.00003" cy="180.00002" r="32.79887" gradientUnits="userSpaceOnUse" id="color-1"><stop offset="0" stop-color="#000000"/><stop offset="1" stop-color="#000000" stop-opacity="0"/></radialGradient><linearGradient x1="216.06468" y1="180.00002" x2="263.93536" y2="180.00002" gradientUnits="userSpaceOnUse" id="color-2"><stop offset="0" stop-color="#eb0000"/><stop offset="1" stop-color="#ff5454"/></linearGradient><linearGradient x1="250.88333" y1="180.5" x2="268.48333" y2="180.5" gradientUnits="userSpaceOnUse" id="color-3"><stop offset="0" stop-color="#ffcbcb"/><stop offset="1" stop-color="#ffffff"/></linearGradient><linearGradient x1="200.69706" y1="181.5425" x2="239.89819" y2="181.5425" gradientUnits="userSpaceOnUse" id="color-4"><stop offset="0" stop-color="#ff5454"/><stop offset="1" stop-color="#cb0000"/></linearGradient><linearGradient x1="237.48334" y1="150.2" x2="237.48334" y2="204.8" gradientUnits="userSpaceOnUse" id="color-5"><stop offset="0" stop-color="#ffffff"/><stop offset="1" stop-color="#ffcbcb"/></linearGradient><linearGradient x1="196.68334" y1="205.5" x2="211.68334" y2="205.5" gradientUnits="userSpaceOnUse" id="color-6"><stop offset="0" stop-color="#ffffff"/><stop offset="1" stop-color="#ffcbcb"/></linearGradient></defs><g transform="translate(-196.68333,-137.363)"><g data-paper-data="{&quot;isPaintingLayer&quot;:true}" fill-rule="nonzero" stroke-linejoin="miter" stroke-miterlimit="10" stroke-dasharray="" stroke-dashoffset="0" style="mix-blend-mode: normal"><path d="M197.18302,222.63705v-85.27405h85.96734v85.27405z" fill="none" stroke="none" stroke-width="NaN" stroke-linecap="butt"/><path d="M207.20115,180.00002c0,-18.11432 14.68456,-32.79887 32.79887,-32.79887c18.11432,0 32.79887,14.68456 32.79887,32.79887c0,18.11432 -14.68456,32.79887 -32.79887,32.79887c-18.11432,0 -32.79887,-14.68456 -32.79887,-32.79887z" fill="url(#color-1)" stroke="#000000" stroke-width="0" stroke-linecap="butt"/><path d="M216.06468,180.00002c0,-13.21912 10.71622,-23.93534 23.93534,-23.93534c13.21912,0 23.93534,10.71622 23.93534,23.93534c0,13.21912 -10.71622,23.93534 -23.93534,23.93534c-13.21912,0 -23.93534,-10.71622 -23.93534,-23.93534z" fill="url(#color-2)" stroke="#000000" stroke-width="0" stroke-linecap="butt"/><path d="M268.48333,180.5c0,8.67087 -3.93989,15.7 -8.8,15.7c-4.86011,0 -8.8,-7.02913 -8.8,-15.7c0,-8.67087 3.93989,-15.7 8.8,-15.7c4.86011,0 8.8,7.02913 8.8,15.7z" fill="url(#color-3)" stroke="none" stroke-width="0" stroke-linecap="butt"/><path d="M246.16387,190.67261c0,-2.44128 1.97905,-4.42033 4.42033,-4.42033c2.44128,0 4.42033,1.97905 4.42033,4.42033c0,2.44128 -1.97905,4.42033 -4.42033,4.42033c-2.44128,0 -4.42033,-1.97905 -4.42033,-4.42033z" fill="#000000" stroke="#000000" stroke-width="0" stroke-linecap="butt"/><path d="M246.2131,169.32743c0,-2.44128 1.97905,-4.42033 4.42033,-4.42033c2.44128,0 4.42033,1.97905 4.42033,4.42033c0,2.44128 -1.97905,4.42033 -4.42033,4.42033c-2.44128,0 -4.42033,-1.97905 -4.42033,-4.42033z" fill="#000000" stroke="#000000" stroke-width="0" stroke-linecap="butt"/><path d="M257.43931,172.92227v15.07848" fill="none" stroke="#000000" stroke-width="2" stroke-linecap="round"/><path d="M238.65269,155.20599l-1.84543,50.29635c0,0 -7.29259,-5.99535 -17.40923,-6.59998c-13.35959,-0.79844 -15.7705,10.09299 -17.15718,7.1874c-1.87489,-3.92856 -5.8046,-30.34698 7.85072,-41.69229c15.28922,-12.70281 28.56112,-9.19148 28.56112,-9.19148z" fill="url(#color-4)" stroke="none" stroke-width="0" stroke-linecap="butt"/><path d="M220.99999,162.61945l-5.16666,5.16666" fill="none" stroke="#cc0202" stroke-width="1" stroke-linecap="round"/><path d="M227.09999,166.45278l6.41667,-7.75" fill="none" stroke="#fa3d3d" stroke-width="1" stroke-linecap="round"/><path d="M226.53333,185.75279l-10.91667,10.91667" fill="none" stroke="#cc0202" stroke-width="1" stroke-linecap="round"/><path d="M205.63333,179.45279l8.08333,8.08334" fill="none" stroke="#cc0202" stroke-width="1" stroke-linecap="round"/><path d="M234.99999,198.78612l-6,-7" fill="none" stroke="#fa3d3d" stroke-width="1" stroke-linecap="round"/><path d="M237.91666,169.70279l-4.08333,-4.08333" fill="none" stroke="#fa3d3d" stroke-width="1" stroke-linecap="round"/><path d="M227.79999,174.78612l-6,-3" fill="none" stroke="#fa3d3d" stroke-width="1" stroke-linecap="round"/><path d="M238.49999,177.95278l-3.66666,-3.66666" fill="none" stroke="#a70202" stroke-width="1" stroke-linecap="round"/><path d="M232.99999,205.45279l4,-4.5" fill="none" stroke="#a70202" stroke-width="1" stroke-linecap="round"/><path d="M234.16666,195.95279l2.83333,-3.16666" fill="none" stroke="#a70202" stroke-width="1" stroke-linecap="round"/><path d="M229.03332,180.38612l2.16666,1.66666" fill="none" stroke="#a70202" stroke-width="1" stroke-linecap="round"/><path d="M206.83333,195.45279l4.75,-4.75" fill="none" stroke="#fc7a7a" stroke-width="1" stroke-linecap="round"/><path d="M209.66666,169.11946l4,5" fill="none" stroke="#fc7a7a" stroke-width="1" stroke-linecap="round"/><path d="M218.63333,182.11945l1.66666,-3.83334" fill="none" stroke="#fc7a7a" stroke-width="1" stroke-linecap="round"/><path d="M237.48334,154.2v50.6" fill="none" stroke="url(#color-5)" stroke-width="10" stroke-linecap="round"/><path d="M196.68334,205.5c0,-4.14213 3.35787,-7.5 7.5,-7.5c4.14213,0 7.5,3.35787 7.5,7.5c0,4.14213 -3.35787,7.5 -7.5,7.5c-4.14213,0 -7.5,-3.35787 -7.5,-7.5z" fill="url(#color-6)" stroke="none" stroke-width="0" stroke-linecap="butt"/></g></g></svg>