<svg version="1.1" xmlns="http://www.w3.org/2000/svg" xmlns:xlink="http://www.w3.org/1999/xlink" width="88.42581" height="89.24181" viewBox="0,0,88.42581,89.24181"><defs><radialGradient cx="239.75003" cy="184.25" r="40.77889" gradientUnits="userSpaceOnUse" id="color-1"><stop offset="0" stop-color="#feec7b"/><stop offset="1" stop-color="#feec7b" stop-opacity="0"/></radialGradient><linearGradient x1="234.12192" y1="150.03963" x2="234.12192" y2="203.64484" gradientUnits="userSpaceOnUse" id="color-2"><stop offset="0" stop-color="#fff387"/><stop offset="1" stop-color="#f9ca3a"/></linearGradient><linearGradient x1="234.12192" y1="150.03963" x2="234.12192" y2="203.64484" gradientUnits="userSpaceOnUse" id="color-3"><stop offset="0" stop-color="#fce369"/><stop offset="1" stop-color="#c29800"/></linearGradient><linearGradient x1="222.84824" y1="170.69632" x2="222.84824" y2="192.77017" gradientUnits="userSpaceOnUse" id="color-4"><stop offset="0" stop-color="#fff387"/><stop offset="1" stop-color="#f9ca3a"/></linearGradient><linearGradient x1="215.09673" y1="184.34115" x2="244.05687" y2="184.34115" gradientUnits="userSpaceOnUse" id="color-5"><stop offset="0" stop-color="#caa310"/><stop offset="1" stop-color="#ebd15e"/></linearGradient><linearGradient x1="250.32953" y1="180.35274" x2="250.32953" y2="196.68737" gradientUnits="userSpaceOnUse" id="color-6"><stop offset="0" stop-color="#fff387"/><stop offset="1" stop-color="#f9ca3a"/></linearGradient><linearGradient x1="237.41183" y1="184.69386" x2="263.48362" y2="184.69386" gradientUnits="userSpaceOnUse" id="color-7"><stop offset="0" stop-color="#caa310"/><stop offset="1" stop-color="#f6da5c"/></linearGradient></defs><g transform="translate(-195.7871,-135.78709)"><g data-paper-data="{&quot;isPaintingLayer&quot;:true}" fill-rule="nonzero" stroke-linecap="butt" stroke-linejoin="miter" stroke-miterlimit="10" stroke-dasharray="" stroke-dashoffset="0" style="mix-blend-mode: normal"><path d="M198.97111,184.25c0,-22.52157 18.25734,-40.77889 40.7789,-40.77889c22.52157,0 40.7789,18.25732 40.7789,40.7789c0,22.52157 -18.25734,40.7789 -40.7789,40.7789c-22.52157,0 -40.7789,-18.25734 -40.7789,-40.7789z" fill="url(#color-1)" stroke="#cecc3b" stroke-width="0"/><path d="M195.78711,224.2129v-88.42581h88.42581v88.42581z" fill="none" stroke="none" stroke-width="0"/><g data-paper-data="{&quot;index&quot;:null}" stroke-width="1.5"><path d="M231.30316,208.60722l-14.2567,-12.88783l-2.17365,-15.37107l15.5412,-5.93629l13.57383,-1.3633l-0.68019,-26.38793l5.77047,-3.18969l6.8685,7.30387l2.37177,20.2785l2.05215,7.29861l3.34811,16.45528l-17.85199,12.7453z" fill="url(#color-2)" stroke="url(#color-3)"/><path d="M221.20401,194.09462l-6.10728,-14.56874l13.38885,-4.94036l15.59742,-1.38881l-0.02612,16.15778l-10.07293,4.04869l-4.18791,-8.01046l1.2774,10.09285z" fill="url(#color-4)" stroke="url(#color-5)"/><path d="M237.41183,190.71342l4.70178,-10.26613l15.96813,-4.6566l5.40188,17.80634l-9.17022,-4.79416l-9.24908,2.98339z" fill="url(#color-6)" stroke="url(#color-7)"/></g></g></g></svg>