<svg version="1.1" xmlns="http://www.w3.org/2000/svg" xmlns:xlink="http://www.w3.org/1999/xlink" width="74.03672" height="74.03672" viewBox="0,0,74.03672,74.03672"><defs><radialGradient cx="288.98219" cy="172.26655" r="37.0173" gradientUnits="userSpaceOnUse" id="color-1"><stop offset="0" stop-color="#000000" stop-opacity="0.63137"/><stop offset="1" stop-color="#000000" stop-opacity="0"/></radialGradient><linearGradient x1="291.08723" y1="209.22391" x2="286.87715" y2="135.30913" gradientUnits="userSpaceOnUse" id="color-2"><stop offset="0" stop-color="#ff5454"/><stop offset="1" stop-color="#eb0000"/></linearGradient><linearGradient x1="278.78131" y1="145.03599" x2="288.8866" y2="202.88859" gradientUnits="userSpaceOnUse" id="color-3"><stop offset="0" stop-color="#929292"/><stop offset="1" stop-color="#000000"/></linearGradient><linearGradient x1="269.38849" y1="178.20166" x2="294.33963" y2="173.10745" gradientUnits="userSpaceOnUse" id="color-4"><stop offset="0" stop-color="#c40000"/><stop offset="1" stop-color="#ff4141"/></linearGradient><linearGradient x1="297.24628" y1="138.83232" x2="308.58401" y2="203.74069" gradientUnits="userSpaceOnUse" id="color-5"><stop offset="0" stop-color="#929292"/><stop offset="1" stop-color="#000000"/></linearGradient><linearGradient x1="299.82409" y1="171.71513" x2="316.16731" y2="168.71393" gradientUnits="userSpaceOnUse" id="color-6"><stop offset="0" stop-color="#555555"/><stop offset="1" stop-color="#c6c6c6"/></linearGradient><linearGradient x1="297.90372" y1="170.73885" x2="308.85397" y2="168.82613" gradientUnits="userSpaceOnUse" id="color-7"><stop offset="0" stop-color="#000000" stop-opacity="0.38824"/><stop offset="1" stop-color="#000000" stop-opacity="0"/></linearGradient><linearGradient x1="309.69917" y1="173.64612" x2="316.3646" y2="172.78123" gradientUnits="userSpaceOnUse" id="color-8"><stop offset="0" stop-color="#ffffff" stop-opacity="0"/><stop offset="1" stop-color="#ffffff" stop-opacity="0.80784"/></linearGradient><linearGradient x1="263.07858" y1="162.61618" x2="284.36164" y2="166.86097" gradientUnits="userSpaceOnUse" id="color-9"><stop offset="0" stop-color="#eb0000"/><stop offset="1" stop-color="#ff5454"/></linearGradient><linearGradient x1="268.67658" y1="187.51812" x2="289.95965" y2="191.76291" gradientUnits="userSpaceOnUse" id="color-10"><stop offset="0" stop-color="#eb0000"/><stop offset="1" stop-color="#ff5454"/></linearGradient></defs><g transform="translate(-251.96383,-135.24821)"><g data-paper-data="{&quot;isPaintingLayer&quot;:true}" fill-rule="nonzero" stroke-width="0" stroke-linecap="butt" stroke-linejoin="miter" stroke-miterlimit="10" stroke-dasharray="" stroke-dashoffset="0" style="mix-blend-mode: normal"><path d="M286.87715,135.30917c20.411,-1.16258 37.89986,14.44134 39.06244,34.85235c1.16257,20.41101 -14.44135,37.89985 -34.85235,39.06244c-20.411,1.16258 -37.89986,-14.44135 -39.06244,-34.85235c-1.16258,-20.411 14.44135,-37.89985 34.85235,-39.06244z" data-paper-data="{&quot;index&quot;:null}" fill="url(#color-1)" stroke="url(#color-2)"/><g stroke="none"><path d="M298.5426,141.58422l10.60774,57.76487l-35.1072,-0.83509c0,0 -7.35333,-3.75837 -10.07108,-18.71731c-2.39346,-13.17409 2.41282,-22.98609 2.41282,-22.98609z" data-paper-data="{&quot;index&quot;:null}" fill="url(#color-3)"/><path d="M281.12224,202.9581l-9.38814,-13.26793l-4.91635,-26.1318l5.14566,-13.03449l18.08486,1.56473l0.98187,5.62115l-14.26595,0.39245l-2.252,11.48509l2.44126,14.07566l6.35974,10.47516l12.67145,-5.05906l1.02284,5.85579z" fill="url(#color-4)"/><path d="M308.85203,203.6936c-7.91787,1.45765 -16.99456,-11.8698 -20.27344,-29.76776c-3.27885,-17.89793 0.4818,-33.58876 8.39965,-35.04643c7.91787,-1.45765 16.99457,11.86982 20.27343,29.76775c3.27885,17.89793 -0.48181,33.58874 -8.39965,35.04642z" data-paper-data="{&quot;index&quot;:null}" fill="url(#color-5)"/><path d="M312.67861,195.7156c-4.51304,0.82875 -10.26823,-9.91661 -12.85455,-24.00045c-2.58631,-14.08385 -1.02438,-26.17292 3.48869,-27.0017c4.51304,-0.82875 10.26821,9.9166 12.85454,24.00045c2.58631,14.08385 1.02437,26.17291 -3.48868,27.00168z" data-paper-data="{&quot;index&quot;:null}" fill="url(#color-6)"/><path d="M307.4808,196.8473l-7.42382,-19.90313l-2.08352,-16.70007c0,0 -0.03316,-8.37565 1.37303,-11.64189c2.0962,-4.86897 5.16609,-4.43908 5.16609,-4.43908l9.16769,52.29326z" fill="url(#color-7)"/><path d="M316.85713,172.86735c1.10231,8.49513 0.44638,15.90376 -1.39422,16.14258c-1.84061,0.23883 -4.66144,-6.86868 -5.76375,-15.36382c-1.10231,-8.49513 -0.10997,-16.86011 1.73066,-17.09892c1.84061,-0.23883 4.32501,7.82504 5.42732,16.32017z" fill="url(#color-8)"/></g><path d="M263.07858,162.61618c1.17217,-5.87717 6.88678,-9.69131 12.76392,-8.51913c5.87716,1.17216 9.69131,6.88678 8.51913,12.76392c-1.17217,5.87717 -6.88678,9.69131 -12.76392,8.51914c-5.87716,-1.17216 -9.6913,-6.88678 -8.51913,-12.76392z" fill="url(#color-9)" stroke="#000000"/><path d="M268.67658,187.51812c1.17217,-5.87715 6.88677,-9.69132 12.76392,-8.51914c5.87716,1.17216 9.69132,6.88677 8.51915,12.76393c-1.17217,5.87715 -6.88678,9.69131 -12.76393,8.51914c-5.87716,-1.17216 -9.69131,-6.88678 -8.51914,-12.76392z" fill="url(#color-10)" stroke="#000000"/></g></g></svg>