<svg version="1.1" xmlns="http://www.w3.org/2000/svg" xmlns:xlink="http://www.w3.org/1999/xlink" width="65.59774" height="65.59774" viewBox="0,0,65.59774,65.59774"><defs><radialGradient cx="240.00005" cy="179.99999" r="32.79887" gradientUnits="userSpaceOnUse" id="color-1"><stop offset="0" stop-color="#000000"/><stop offset="1" stop-color="#000000" stop-opacity="0"/></radialGradient><linearGradient x1="239.7215" y1="158.26079" x2="239.7215" y2="202.8258" gradientUnits="userSpaceOnUse" id="color-2"><stop offset="0" stop-color="#ff5454"/><stop offset="1" stop-color="#a70000"/></linearGradient><linearGradient x1="230.5169" y1="150.57448" x2="230.5169" y2="210.68291" gradientUnits="userSpaceOnUse" id="color-3"><stop offset="0" stop-color="#b01f1f"/><stop offset="1" stop-color="#1e0000"/></linearGradient></defs><g transform="translate(-207.20118,-147.20113)"><g data-paper-data="{&quot;isPaintingLayer&quot;:true}" fill-rule="nonzero" stroke-linejoin="miter" stroke-miterlimit="10" stroke-dasharray="" stroke-dashoffset="0" style="mix-blend-mode: normal"><path d="M240.00005,212.79887c-18.11432,0 -32.79887,-14.68456 -32.79887,-32.79887c0,-18.11432 14.68456,-32.79887 32.79887,-32.79887c18.11432,0 32.79887,14.68456 32.79887,32.79887c0,18.11432 -14.68456,32.79887 -32.79887,32.79887z" fill="url(#color-1)" stroke="#000000" stroke-width="0" stroke-linecap="butt"/><path d="M214.84138,179.62396c0,-11.10182 8.33891,-17.41634 11.30407,-19.39835c0.70487,-0.47116 1.70702,-0.75194 2.3941,-0.83171c4.68767,-0.54418 22.45743,-2.41076 26.07957,0.3013c6.06043,4.53773 9.98251,11.77522 9.98251,19.92876c0,8.37394 -4.13699,15.78166 -10.47867,20.29082c-3.28308,2.33438 -15.86471,3.04457 -21.46569,2.89106c-1.33303,-0.03653 -5.709,-1.78673 -6.47424,-2.36297c-3.31251,-2.49438 -11.34166,-9.65666 -11.34166,-20.8189z" fill="url(#color-2)" stroke="#000000" stroke-width="0" stroke-linecap="butt"/><path d="M260.59145,160.37812v23.15787" fill="none" stroke="#000000" stroke-width="2" stroke-linecap="round"/><path d="M238.89606,159.20135c0,0 7.2824,11.52483 7.24576,20.05509c-0.04023,9.36807 -6.78191,21.47132 -6.78191,21.47132c0,0 12.84742,-0.33013 12.88333,0.1877c0.60917,8.78675 -19.37304,9.44193 -28.66709,7.23328c-9.78818,-2.32608 -14.41799,-13.03752 -15.10035,-26.25245c-0.46664,-9.03725 2.48974,-25.47005 13.28086,-29.11312c8.50191,-2.87023 31.79113,-5.82288 30.85239,6.29651z" fill="url(#color-3)" stroke="none" stroke-width="0" stroke-linecap="butt"/><path d="M253.24903,186.82985c0,-1.16822 0.94702,-2.11523 2.11521,-2.11523c1.16822,0 2.11523,0.94702 2.11523,2.11523c0,1.16822 -0.94703,2.11523 -2.11523,2.11523c-1.16822,0 -2.11521,-0.94702 -2.11521,-2.11523z" fill="#000000" stroke="#000000" stroke-width="0" stroke-linecap="butt"/><path d="M254.06611,169.75482c0,-1.16822 -0.00623,-1.97904 1.16197,-1.97904c1.16822,0 2.11521,0.94702 2.11521,2.11523c0,1.16822 -0.94702,2.11521 -2.11521,2.11521c-1.16822,0 -1.16197,-1.0832 -1.16197,-2.25141z" fill="#000000" stroke="#000000" stroke-width="0" stroke-linecap="butt"/><path d="M254.02413,174.32136c-0.6809,0 -0.6809,-0.68089 -0.6809,-0.68089l0.01322,-0.27499c-0.18676,-0.95539 -0.1494,-7.16242 -0.1494,-7.48727c0,0 0,-0.68089 0.6809,-0.68089c0.6809,0 0.6809,0.68089 0.6809,0.68089c0,2.31546 -0.34328,4.9514 0.12296,7.2202l0.01322,0.54208c0,0 0,0.68089 -0.6809,0.68089z" fill="#000000" stroke="none" stroke-width="0.5" stroke-linecap="butt"/><path d="M248.69362,195.43309c-0.63221,0.25287 -0.88508,-0.37931 -0.88508,-0.37931l-0.27951,-0.69958c-0.75338,-2.26852 -0.63607,-5.23759 0.12527,-7.51752c0.41145,-1.23214 1.23915,-2.22164 1.81159,-3.37087c0,0 0.30451,-0.60902 0.91353,-0.30451c0.60902,0.30451 0.30451,0.91353 0.30451,0.91353c-1.56046,3.11018 -3.07504,6.22969 -1.87618,9.81099l0.26521,0.66222c0,0 0.25287,0.63221 -0.37931,0.88508z" fill="#000000" stroke="none" stroke-width="0.5" stroke-linecap="butt"/></g></g></svg>