<svg version="1.1" xmlns="http://www.w3.org/2000/svg" xmlns:xlink="http://www.w3.org/1999/xlink" width="77" height="77" viewBox="0,0,77,77"><defs><linearGradient x1="240" y1="145" x2="240" y2="215" gradientUnits="userSpaceOnUse" id="color-1"><stop offset="0" stop-color="#fff387"/><stop offset="1" stop-color="#f9ca3a"/></linearGradient></defs><g transform="translate(-201.5,-141.5)"><g data-paper-data="{&quot;isPaintingLayer&quot;:true}" fill-rule="nonzero" stroke-linejoin="miter" stroke-miterlimit="10" stroke-dasharray="" stroke-dashoffset="0" style="mix-blend-mode: normal"><path d="M240,215c-19.32997,0 -35,-15.67003 -35,-35c0,-19.32997 15.67003,-35 35,-35c19.32997,0 35,15.67003 35,35c0,19.32997 -15.67003,35 -35,35z" data-paper-data="{&quot;index&quot;:null}" fill="url(#color-1)" stroke="none" stroke-width="0" stroke-linecap="butt"/><path d="M201.5,218.5v-77h77v77z" fill="none" stroke="none" stroke-width="0" stroke-linecap="butt"/><path d="M254.84405,178.67023c-2.67808,0 -4.84906,-2.17099 -4.84906,-4.84906c0,-2.67808 2.17099,-4.84906 4.84906,-4.84906c2.67808,0 4.84906,2.17099 4.84906,4.84906c0,2.67808 -2.17099,4.84906 -4.84906,4.84906z" data-paper-data="{&quot;index&quot;:null}" fill="#000000" stroke="none" stroke-width="0" stroke-linecap="butt"/><path d="M225.15594,178.67023c-2.67808,0 -4.84906,-2.17099 -4.84906,-4.84906c0,-2.67808 2.17101,-4.84906 4.84906,-4.84906c2.67808,0 4.84906,2.17099 4.84906,4.84906c0,2.67808 -2.17099,4.84906 -4.84906,4.84906z" data-paper-data="{&quot;index&quot;:null}" fill="#000000" stroke="none" stroke-width="0" stroke-linecap="butt"/><path d="M260.96983,191.37162l-43.94429,-9.69016" data-paper-data="{&quot;index&quot;:null}" fill="none" stroke="#000000" stroke-width="2.5" stroke-linecap="round"/><path d="M247.32237,163.34276h14.36842" data-paper-data="{&quot;index&quot;:null}" fill="none" stroke="#000000" stroke-width="3.5" stroke-linecap="round"/><path d="M217.45394,168.34276h14.36843" data-paper-data="{&quot;index&quot;:null}" fill="none" stroke="#000000" stroke-width="3.5" stroke-linecap="round"/></g></g></svg>