<svg version="1.1" xmlns="http://www.w3.org/2000/svg" xmlns:xlink="http://www.w3.org/1999/xlink" width="37.6" height="43.6" viewBox="0,0,37.6,43.6"><g transform="translate(-221.2,-158.2)"><g data-paper-data="{&quot;isPaintingLayer&quot;:true}" fill-rule="nonzero" stroke="none" stroke-linecap="butt" stroke-linejoin="miter" stroke-miterlimit="10" stroke-dasharray="" stroke-dashoffset="0" style="mix-blend-mode: normal"><path d="M221.2,201.8v-43.6h37.6v43.6z" fill="none" stroke-width="0"/><path d="M244.87215,190.21814l-3.49755,6.24272c-0.23046,0.44737 -0.58971,0.79307 -1.07774,1.03708c-0.48803,0.24401 -0.92183,0.36602 -1.30141,0.36602c-0.77272,0 -1.43698,-0.27113 -1.99279,-0.8134c-0.55581,-0.5287 -0.83372,-1.17263 -0.83372,-1.93178c0,-0.37958 0.16268,-0.93539 0.48803,-1.66743l3.45688,-6.24274c0.25757,-0.44736 0.6236,-0.79304 1.09807,-1.03706c0.48803,-0.24401 0.92861,-0.36602 1.32175,-0.36602c0.75916,0 1.42342,0.27112 1.99279,0.81337c0.58293,0.54226 0.87439,1.1862 0.87439,1.93181c0,0.3118 -0.17623,0.86761 -0.5287,1.66743z" fill="#ff0000" stroke-width="0.40889"/></g></g></svg>