<svg version="1.1" xmlns="http://www.w3.org/2000/svg" xmlns:xlink="http://www.w3.org/1999/xlink" width="99.50168" height="87.22357" viewBox="0,0,99.50168,87.22357"><defs><radialGradient cx="207.51725" cy="165.49627" r="13.07334" gradientUnits="userSpaceOnUse" id="color-1"><stop offset="0" stop-color="#000000" stop-opacity="0.52549"/><stop offset="1" stop-color="#000000" stop-opacity="0"/></radialGradient><radialGradient cx="202.23154" cy="181.0677" r="18.2162" gradientUnits="userSpaceOnUse" id="color-2"><stop offset="0" stop-color="#000000" stop-opacity="0.52549"/><stop offset="1" stop-color="#000000" stop-opacity="0"/></radialGradient><radialGradient cx="240.00001" cy="180.00001" r="32.79887" gradientUnits="userSpaceOnUse" id="color-3"><stop offset="0" stop-color="#000000"/><stop offset="1" stop-color="#000000" stop-opacity="0"/></radialGradient><linearGradient x1="187.93333" y1="173.79703" x2="238.33333" y2="173.79703" gradientUnits="userSpaceOnUse" id="color-4"><stop offset="0" stop-color="#ff0000"/><stop offset="1" stop-color="#ffa0a0"/></linearGradient><linearGradient x1="216.06467" y1="180.00004" x2="263.93535" y2="180.00004" gradientUnits="userSpaceOnUse" id="color-5"><stop offset="0" stop-color="#e80000"/><stop offset="1" stop-color="#ffc8c8"/></linearGradient><linearGradient x1="221.50247" y1="133.29235" x2="237.3533" y2="162.53945" gradientUnits="userSpaceOnUse" id="color-6"><stop offset="0" stop-color="#be0000"/><stop offset="1" stop-color="#ff5f5f"/></linearGradient><linearGradient x1="206.04989" y1="213.88786" x2="240.69081" y2="197.53101" gradientUnits="userSpaceOnUse" id="color-7"><stop offset="0" stop-color="#be0000"/><stop offset="1" stop-color="#ff6565"/></linearGradient><linearGradient x1="216.06467" y1="180.00004" x2="263.93535" y2="180.00004" gradientUnits="userSpaceOnUse" id="color-8"><stop offset="0" stop-color="#e80000" stop-opacity="0.71765"/><stop offset="1" stop-color="#ff8282" stop-opacity="0.28235"/></linearGradient><linearGradient x1="216.08334" y1="200.08334" x2="216.08334" y2="211.64725" gradientUnits="userSpaceOnUse" id="color-9"><stop offset="0" stop-color="#f10000"/><stop offset="1" stop-color="#1d0000"/></linearGradient><linearGradient x1="236.03196" y1="143.53196" x2="224.46805" y2="143.53196" gradientUnits="userSpaceOnUse" id="color-10"><stop offset="0" stop-color="#f10000"/><stop offset="1" stop-color="#1d0000"/></linearGradient><linearGradient x1="187.91667" y1="190.08334" x2="207.08334" y2="190.08334" gradientUnits="userSpaceOnUse" id="color-11"><stop offset="0" stop-color="#f10000"/><stop offset="1" stop-color="#1d0000"/></linearGradient></defs><g transform="translate(-184.01534,-135.04683)"><g data-paper-data="{&quot;isPaintingLayer&quot;:true}" fill-rule="nonzero" stroke-linejoin="miter" stroke-miterlimit="10" stroke-dasharray="" stroke-dashoffset="0" style="mix-blend-mode: normal"><path d="M207.51725,152.42293c7.2202,0 13.07334,5.85314 13.07334,13.07334c0,7.2202 -5.85314,13.07333 -13.07334,13.07333c-7.2202,0 -13.07334,-5.85313 -13.07334,-13.07333c0,-7.2202 5.85313,-13.07334 13.07334,-13.07334z" data-paper-data="{&quot;index&quot;:null}" fill="url(#color-1)" stroke="#000000" stroke-width="0" stroke-linecap="butt"/><path d="M202.23154,162.8515c10.06052,0 18.2162,8.15568 18.2162,18.2162c0,10.06052 -8.15568,18.21618 -18.2162,18.21618c-10.06052,0 -18.2162,-8.15566 -18.2162,-18.21618c0,-10.06052 8.15566,-18.2162 18.2162,-18.2162z" data-paper-data="{&quot;index&quot;:null}" fill="url(#color-2)" stroke="#000000" stroke-width="0" stroke-linecap="butt"/><path d="M197.54968,222.2704v-85.27405h85.96734v85.27405z" fill="none" stroke="none" stroke-width="NaN" stroke-linecap="butt"/><path d="M207.20113,180.00001c0,-18.11432 14.68456,-32.79887 32.79887,-32.79887c18.11432,0 32.79887,14.68456 32.79887,32.79887c0,18.11432 -14.68456,32.79887 -32.79887,32.79887c-18.11432,0 -32.79887,-14.68456 -32.79887,-32.79887z" fill="url(#color-3)" stroke="#000000" stroke-width="0" stroke-linecap="butt"/><path d="M187.93333,190.05002l17,-40l7.55907,20.2648l4.29638,-9.86465l10.74455,19.19986l10.8,12.6l-20.17374,-16.36668l-6.40011,12.5244l-4.13678,-15.64193l-1.64634,24.77823z" data-paper-data="{&quot;index&quot;:null}" fill="url(#color-4)" stroke="none" stroke-width="0" stroke-linecap="butt"/><path d="M216.06467,180.00004c0,-13.21912 10.71622,-23.93534 23.93534,-23.93534c13.21912,0 23.93534,10.71622 23.93534,23.93534c0,13.21912 -10.71622,23.93534 -23.93534,23.93534c-13.21912,0 -23.93534,-10.71622 -23.93534,-23.93534z" fill="url(#color-5)" stroke="#000000" stroke-width="0" stroke-linecap="butt"/><path d="M239.2791,166.09283c-3.59589,1.2075 -10.50367,-5.18082 -14.88076,-13.25718c-4.37709,-8.07636 1.50058,-17.78882 1.50058,-17.78882c0,0 7.1442,5.33969 11.52128,13.41605c4.37709,8.07636 5.45479,16.42244 1.8589,17.62994z" fill="url(#color-6)" stroke="none" stroke-width="0" stroke-linecap="butt"/><path d="M244.89952,195.54372c2.01105,2.63892 -5.08455,8.89842 -14.65037,13.41523c-9.56582,4.51682 -22.59208,1.26094 -22.59208,1.26094c0,0 5.74359,-6.30052 15.30943,-10.81734c9.56582,-4.51682 19.92198,-6.49775 21.93303,-3.85883z" fill="url(#color-7)" stroke="none" stroke-width="0" stroke-linecap="butt"/><path d="M216.06467,180.00004c0,-13.21912 10.71622,-23.93534 23.93534,-23.93534c13.21912,0 23.93534,10.71622 23.93534,23.93534c0,13.21912 -10.71622,23.93534 -23.93534,23.93534c-13.21912,0 -23.93534,-10.71622 -23.93534,-23.93534z" fill="url(#color-8)" stroke="#000000" stroke-width="0" stroke-linecap="butt"/><path d="M246.16386,188.17262c0,-2.44128 1.97905,-4.42033 4.42033,-4.42033c2.44128,0 4.42033,1.97905 4.42033,4.42033c0,2.44128 -1.97905,4.42033 -4.42033,4.42033c-2.44128,0 -4.42033,-1.97905 -4.42033,-4.42033z" fill="#000000" stroke="#000000" stroke-width="0" stroke-linecap="butt"/><path d="M246.21309,171.82744c0,-2.44128 1.97905,-4.42033 4.42033,-4.42033c2.44128,0 4.42033,1.97905 4.42033,4.42033c0,2.44128 -1.97905,4.42033 -4.42033,4.42033c-2.44128,0 -4.42033,-1.97905 -4.42033,-4.42033z" fill="#000000" stroke="#000000" stroke-width="0" stroke-linecap="butt"/><path d="M256.8,176.90002v5" fill="none" stroke="#000000" stroke-width="1.5" stroke-linecap="round"/><path d="M207.75,210.25c0,0 3.42938,-3.894 7,-6.33334c3.57062,-2.43933 7,-3.83333 7,-3.83333l2.66666,10.66666c0,0 -6.09479,0.97883 -8.99675,0.89176c-2.62596,-0.07878 -7.66992,-1.39176 -7.66992,-1.39176z" fill="url(#color-9)" stroke="#ffffff" stroke-width="0" stroke-linecap="butt"/><path d="M225.86529,135.19863c0,0 1.50618,0.04629 4.5,3.16666c3.106,3.23729 4.33333,5.83334 4.33333,5.83334l-11.16666,7.16666c0,0 -1.27496,-3.59391 -1.05843,-7.49675c0.28081,-5.0616 3.39176,-8.66992 3.39176,-8.66992z" fill="url(#color-10)" stroke="#ffffff" stroke-width="0" stroke-linecap="butt"/><path d="M187.58334,189.58334l5.83333,-12.66667l2.83865,8.01731l4.13937,-6.54726l0.19956,11.16268l6.98909,-16.46607l-1,25.83333z" fill="url(#color-11)" stroke="#ffffff" stroke-width="0" stroke-linecap="butt"/><path d="M253.25,166c0,-1.79493 0.93274,-3.25 2.08333,-3.25c1.15059,0 2.08333,1.45507 2.08333,3.25c0,1.79493 -0.93274,3.25 -2.08333,3.25c-1.15059,0 -2.08333,-1.45507 -2.08333,-3.25z" fill="#ff0000" stroke="#ffffff" stroke-width="0" stroke-linecap="butt"/><path d="M255.33333,190.75007c1.15059,0 2.08333,1.45507 2.08333,3.25c0,1.79493 -0.93274,3.25 -2.08333,3.25c-1.15059,0 -2.08333,-1.45507 -2.08333,-3.25c0,-1.79493 0.93274,-3.25 2.08333,-3.25z" data-paper-data="{&quot;index&quot;:null}" fill="#ff0000" stroke="#ffffff" stroke-width="0" stroke-linecap="butt"/></g></g></svg>