<svg version="1.1" xmlns="http://www.w3.org/2000/svg" xmlns:xlink="http://www.w3.org/1999/xlink" width="712.98475" height="374.85707" viewBox="0,0,712.98475,374.85707"><defs><radialGradient cx="515.93796" cy="209.88519" r="53.56238" gradientUnits="userSpaceOnUse" id="color-1"><stop offset="0" stop-color="#ffe159" stop-opacity="0.55686"/><stop offset="1" stop-color="#ffe159" stop-opacity="0"/></radialGradient><radialGradient cx="516.40221" cy="208.19705" r="66.49584" gradientUnits="userSpaceOnUse" id="color-2"><stop offset="0" stop-color="#ffe159" stop-opacity="0.55686"/><stop offset="1" stop-color="#ffe159" stop-opacity="0"/></radialGradient><radialGradient cx="476.66765" cy="157.17605" r="10.68952" gradientUnits="userSpaceOnUse" id="color-3"><stop offset="0" stop-color="#ffd000"/><stop offset="1" stop-color="#ffd000" stop-opacity="0.50196"/></radialGradient><radialGradient cx="560.04439" cy="182.73576" r="15.81278" gradientUnits="userSpaceOnUse" id="color-4"><stop offset="0" stop-color="#ffd000"/><stop offset="1" stop-color="#ffd000" stop-opacity="0.50196"/></radialGradient><radialGradient cx="481.49659" cy="186.81296" r="12.19635" gradientUnits="userSpaceOnUse" id="color-5"><stop offset="0" stop-color="#ffd000"/><stop offset="1" stop-color="#ffd000" stop-opacity="0.50196"/></radialGradient><radialGradient cx="474.76574" cy="238.89842" r="12.19638" gradientUnits="userSpaceOnUse" id="color-6"><stop offset="0" stop-color="#ffd000"/><stop offset="1" stop-color="#ffd000" stop-opacity="0.50196"/></radialGradient><radialGradient cx="504.09267" cy="247.01956" r="5.77553" gradientUnits="userSpaceOnUse" id="color-7"><stop offset="0" stop-color="#ffd000"/><stop offset="1" stop-color="#ffd000" stop-opacity="0.50196"/></radialGradient><radialGradient cx="537.84466" cy="260.89366" r="6.77173" gradientUnits="userSpaceOnUse" id="color-8"><stop offset="0" stop-color="#ffd000"/><stop offset="1" stop-color="#ffd000" stop-opacity="0.50196"/></radialGradient><radialGradient cx="572.37448" cy="230.7751" r="6.77173" gradientUnits="userSpaceOnUse" id="color-9"><stop offset="0" stop-color="#ffd000"/><stop offset="1" stop-color="#ffd000" stop-opacity="0.50196"/></radialGradient><radialGradient cx="511.6675" cy="157.20208" r="4.66215" gradientUnits="userSpaceOnUse" id="color-10"><stop offset="0" stop-color="#ffd000"/><stop offset="1" stop-color="#ffd000" stop-opacity="0.50196"/></radialGradient><radialGradient cx="452.54956" cy="201.92499" r="4.66216" gradientUnits="userSpaceOnUse" id="color-11"><stop offset="0" stop-color="#ffd000"/><stop offset="1" stop-color="#ffd000" stop-opacity="0.50196"/></radialGradient><radialGradient cx="516.40221" cy="208.19705" r="29.51762" gradientUnits="userSpaceOnUse" id="color-12"><stop offset="0" stop-color="#ffeb91" stop-opacity="0.46667"/><stop offset="1" stop-color="#ffeb91" stop-opacity="0"/></radialGradient><radialGradient cx="474.82407" cy="239.66431" r="19.07857" gradientUnits="userSpaceOnUse" id="color-13"><stop offset="0" stop-color="#ffe159" stop-opacity="0.38824"/><stop offset="1" stop-color="#ffe159" stop-opacity="0"/></radialGradient><radialGradient cx="481.53996" cy="186.70369" r="19.07855" gradientUnits="userSpaceOnUse" id="color-14"><stop offset="0" stop-color="#ffe159" stop-opacity="0.38824"/><stop offset="1" stop-color="#ffe159" stop-opacity="0"/></radialGradient><radialGradient cx="475.79855" cy="156.78977" r="19.07856" gradientUnits="userSpaceOnUse" id="color-15"><stop offset="0" stop-color="#ffe159" stop-opacity="0.38824"/><stop offset="1" stop-color="#ffe159" stop-opacity="0"/></radialGradient><radialGradient cx="562.17599" cy="182.27352" r="27.58096" gradientUnits="userSpaceOnUse" id="color-16"><stop offset="0" stop-color="#ffe159" stop-opacity="0.38824"/><stop offset="1" stop-color="#ffe159" stop-opacity="0"/></radialGradient><radialGradient cx="572.33866" cy="230.69693" r="14.33683" gradientUnits="userSpaceOnUse" id="color-17"><stop offset="0" stop-color="#ffe159" stop-opacity="0.38824"/><stop offset="1" stop-color="#ffe159" stop-opacity="0"/></radialGradient><radialGradient cx="538.09909" cy="260.39106" r="14.33683" gradientUnits="userSpaceOnUse" id="color-18"><stop offset="0" stop-color="#ffe159" stop-opacity="0.38824"/><stop offset="1" stop-color="#ffe159" stop-opacity="0"/></radialGradient><radialGradient cx="503.98502" cy="246.81907" r="14.33683" gradientUnits="userSpaceOnUse" id="color-19"><stop offset="0" stop-color="#ffe159" stop-opacity="0.38824"/><stop offset="1" stop-color="#ffe159" stop-opacity="0"/></radialGradient><radialGradient cx="452.2583" cy="201.99743" r="9.26808" gradientUnits="userSpaceOnUse" id="color-20"><stop offset="0" stop-color="#ffe159" stop-opacity="0.38824"/><stop offset="1" stop-color="#ffe159" stop-opacity="0"/></radialGradient><radialGradient cx="511.81881" cy="157.38363" r="9.2681" gradientUnits="userSpaceOnUse" id="color-21"><stop offset="0" stop-color="#ffe159" stop-opacity="0.38824"/><stop offset="1" stop-color="#ffe159" stop-opacity="0"/></radialGradient><radialGradient cx="516.40222" cy="208.19711" r="40.07295" gradientUnits="userSpaceOnUse" id="color-22"><stop offset="0" stop-color="#ffd000"/><stop offset="1" stop-color="#ffd000" stop-opacity="0.50196"/></radialGradient><radialGradient cx="6.47002" cy="225.95376" r="20.86388" gradientUnits="userSpaceOnUse" id="color-23"><stop offset="0" stop-color="#5c59ff" stop-opacity="0.38824"/><stop offset="1" stop-color="#5c59ff" stop-opacity="0"/></radialGradient><radialGradient cx="99.5447" cy="172.9886" r="15.67843" gradientUnits="userSpaceOnUse" id="color-24"><stop offset="0" stop-color="#5c59ff" stop-opacity="0.38824"/><stop offset="1" stop-color="#5c59ff" stop-opacity="0"/></radialGradient><radialGradient cx="78.85096" cy="218.02499" r="15.67843" gradientUnits="userSpaceOnUse" id="color-25"><stop offset="0" stop-color="#5c59ff" stop-opacity="0.38824"/><stop offset="1" stop-color="#5c59ff" stop-opacity="0"/></radialGradient><radialGradient cx="38.74497" cy="219.91194" r="15.67843" gradientUnits="userSpaceOnUse" id="color-26"><stop offset="0" stop-color="#5c59ff" stop-opacity="0.38824"/><stop offset="1" stop-color="#5c59ff" stop-opacity="0"/></radialGradient><radialGradient cx="-33.01421" cy="198.62758" r="10.13536" gradientUnits="userSpaceOnUse" id="color-27"><stop offset="0" stop-color="#5c59ff" stop-opacity="0.38824"/><stop offset="1" stop-color="#5c59ff" stop-opacity="0"/></radialGradient><radialGradient cx="67.55664" cy="129.3482" r="30.1619" gradientUnits="userSpaceOnUse" id="color-28"><stop offset="0" stop-color="#5c59ff" stop-opacity="0.38824"/><stop offset="1" stop-color="#5c59ff" stop-opacity="0"/></radialGradient><radialGradient cx="6.16191" cy="127.29733" r="10.13538" gradientUnits="userSpaceOnUse" id="color-29"><stop offset="0" stop-color="#5c59ff" stop-opacity="0.38824"/><stop offset="1" stop-color="#5c59ff" stop-opacity="0"/></radialGradient><radialGradient cx="-29.98225" cy="142.97116" r="20.86388" gradientUnits="userSpaceOnUse" id="color-30"><stop offset="0" stop-color="#5c59ff" stop-opacity="0.38824"/><stop offset="1" stop-color="#5c59ff" stop-opacity="0"/></radialGradient><radialGradient cx="-10.75592" cy="170.17267" r="20.86388" gradientUnits="userSpaceOnUse" id="color-31"><stop offset="0" stop-color="#5c59ff" stop-opacity="0.38824"/><stop offset="1" stop-color="#5c59ff" stop-opacity="0"/></radialGradient><radialGradient cx="33.67223" cy="175.83752" r="72.71834" gradientUnits="userSpaceOnUse" id="color-32"><stop offset="0" stop-color="#5c59ff" stop-opacity="0.55686"/><stop offset="1" stop-color="#5c59ff" stop-opacity="0"/></radialGradient><radialGradient cx="33.97216" cy="177.72854" r="58.57459" gradientUnits="userSpaceOnUse" id="color-33"><stop offset="0" stop-color="#5c59ff" stop-opacity="0.55686"/><stop offset="1" stop-color="#5c59ff" stop-opacity="0"/></radialGradient><radialGradient cx="-28.9422" cy="142.96345" r="11.68982" gradientUnits="userSpaceOnUse" id="color-34"><stop offset="0" stop-color="#0400ff"/><stop offset="1" stop-color="#0400ff" stop-opacity="0.50196"/></radialGradient><radialGradient cx="65.64231" cy="130.77115" r="17.2925" gradientUnits="userSpaceOnUse" id="color-35"><stop offset="0" stop-color="#0400ff"/><stop offset="1" stop-color="#0400ff" stop-opacity="0.50196"/></radialGradient><radialGradient cx="-10.74974" cy="170.30108" r="13.33765" gradientUnits="userSpaceOnUse" id="color-36"><stop offset="0" stop-color="#0400ff"/><stop offset="1" stop-color="#0400ff" stop-opacity="0.50196"/></radialGradient><radialGradient cx="6.06609" cy="225.2173" r="13.33768" gradientUnits="userSpaceOnUse" id="color-37"><stop offset="0" stop-color="#0400ff"/><stop offset="1" stop-color="#0400ff" stop-opacity="0.50196"/></radialGradient><radialGradient cx="38.94271" cy="220.06304" r="6.316" gradientUnits="userSpaceOnUse" id="color-38"><stop offset="0" stop-color="#0400ff"/><stop offset="1" stop-color="#0400ff" stop-opacity="0.50196"/></radialGradient><radialGradient cx="78.8245" cy="218.64049" r="7.40542" gradientUnits="userSpaceOnUse" id="color-39"><stop offset="0" stop-color="#0400ff"/><stop offset="1" stop-color="#0400ff" stop-opacity="0.50196"/></radialGradient><radialGradient cx="99.61567" cy="173.05028" r="7.40542" gradientUnits="userSpaceOnUse" id="color-40"><stop offset="0" stop-color="#0400ff"/><stop offset="1" stop-color="#0400ff" stop-opacity="0.50196"/></radialGradient><radialGradient cx="5.9292" cy="127.18482" r="5.09843" gradientUnits="userSpaceOnUse" id="color-41"><stop offset="0" stop-color="#0400ff"/><stop offset="1" stop-color="#0400ff" stop-opacity="0.50196"/></radialGradient><radialGradient cx="-32.75685" cy="198.42389" r="5.09843" gradientUnits="userSpaceOnUse" id="color-42"><stop offset="0" stop-color="#0400ff"/><stop offset="1" stop-color="#0400ff" stop-opacity="0.50196"/></radialGradient><radialGradient cx="33.67223" cy="175.83752" r="32.27979" gradientUnits="userSpaceOnUse" id="color-43"><stop offset="0" stop-color="#ffeb91" stop-opacity="0.46667"/><stop offset="1" stop-color="#ffeb91" stop-opacity="0"/></radialGradient><radialGradient cx="33.67227" cy="175.83758" r="43.82286" gradientUnits="userSpaceOnUse" id="color-44"><stop offset="0" stop-color="#0400ff"/><stop offset="1" stop-color="#0400ff" stop-opacity="0.50196"/></radialGradient><radialGradient cx="479.69811" cy="401.38362" r="56.67807" gradientUnits="userSpaceOnUse" id="color-45"><stop offset="0" stop-color="#ffe159" stop-opacity="0.55686"/><stop offset="1" stop-color="#ffe159" stop-opacity="0"/></radialGradient><radialGradient cx="478.8775" cy="399.7226" r="70.36386" gradientUnits="userSpaceOnUse" id="color-46"><stop offset="0" stop-color="#ffe159" stop-opacity="0.55686"/><stop offset="1" stop-color="#ffe159" stop-opacity="0"/></radialGradient><radialGradient cx="411.57641" cy="387.34458" r="11.31132" gradientUnits="userSpaceOnUse" id="color-47"><stop offset="0" stop-color="#ffd000"/><stop offset="1" stop-color="#ffd000" stop-opacity="0.50196"/></radialGradient><radialGradient cx="495.46377" cy="348.89491" r="16.7326" gradientUnits="userSpaceOnUse" id="color-48"><stop offset="0" stop-color="#ffd000"/><stop offset="1" stop-color="#ffd000" stop-opacity="0.50196"/></radialGradient><radialGradient cx="436.24247" cy="407.37454" r="12.9058" gradientUnits="userSpaceOnUse" id="color-49"><stop offset="0" stop-color="#ffd000"/><stop offset="1" stop-color="#ffd000" stop-opacity="0.50196"/></radialGradient><radialGradient cx="467.56301" cy="453.28144" r="12.90584" gradientUnits="userSpaceOnUse" id="color-50"><stop offset="0" stop-color="#ffd000"/><stop offset="1" stop-color="#ffd000" stop-opacity="0.50196"/></radialGradient><radialGradient cx="496.45806" cy="439.07005" r="6.11149" gradientUnits="userSpaceOnUse" id="color-51"><stop offset="0" stop-color="#ffd000"/><stop offset="1" stop-color="#ffd000" stop-opacity="0.50196"/></radialGradient><radialGradient cx="532.89804" cy="426.29326" r="7.16564" gradientUnits="userSpaceOnUse" id="color-52"><stop offset="0" stop-color="#ffd000"/><stop offset="1" stop-color="#ffd000" stop-opacity="0.50196"/></radialGradient><radialGradient cx="539.00499" cy="378.1945" r="7.16564" gradientUnits="userSpaceOnUse" id="color-53"><stop offset="0" stop-color="#ffd000"/><stop offset="1" stop-color="#ffd000" stop-opacity="0.50196"/></radialGradient><radialGradient cx="439.26098" cy="362.74348" r="4.93335" gradientUnits="userSpaceOnUse" id="color-54"><stop offset="0" stop-color="#ffd000"/><stop offset="1" stop-color="#ffd000" stop-opacity="0.50196"/></radialGradient><radialGradient cx="423.99179" cy="439.68375" r="4.93335" gradientUnits="userSpaceOnUse" id="color-55"><stop offset="0" stop-color="#ffd000"/><stop offset="1" stop-color="#ffd000" stop-opacity="0.50196"/></radialGradient><radialGradient cx="478.8775" cy="399.7226" r="31.23464" gradientUnits="userSpaceOnUse" id="color-56"><stop offset="0" stop-color="#ffeb91" stop-opacity="0.46667"/><stop offset="1" stop-color="#ffeb91" stop-opacity="0"/></radialGradient><radialGradient cx="468.14789" cy="453.84581" r="20.18836" gradientUnits="userSpaceOnUse" id="color-57"><stop offset="0" stop-color="#ffe159" stop-opacity="0.38824"/><stop offset="1" stop-color="#ffe159" stop-opacity="0"/></radialGradient><radialGradient cx="436.19991" cy="407.25766" r="20.18833" gradientUnits="userSpaceOnUse" id="color-58"><stop offset="0" stop-color="#ffe159" stop-opacity="0.38824"/><stop offset="1" stop-color="#ffe159" stop-opacity="0"/></radialGradient><radialGradient cx="410.61767" cy="387.65062" r="20.18834" gradientUnits="userSpaceOnUse" id="color-59"><stop offset="0" stop-color="#ffe159" stop-opacity="0.38824"/><stop offset="1" stop-color="#ffe159" stop-opacity="0"/></radialGradient><radialGradient cx="496.82356" cy="347.02999" r="29.18532" gradientUnits="userSpaceOnUse" id="color-60"><stop offset="0" stop-color="#ffe159" stop-opacity="0.38824"/><stop offset="1" stop-color="#ffe159" stop-opacity="0"/></radialGradient><radialGradient cx="538.92168" cy="378.1579" r="15.17079" gradientUnits="userSpaceOnUse" id="color-61"><stop offset="0" stop-color="#ffe159" stop-opacity="0.38824"/><stop offset="1" stop-color="#ffe159" stop-opacity="0"/></radialGradient><radialGradient cx="532.7456" cy="425.71698" r="15.17079" gradientUnits="userSpaceOnUse" id="color-62"><stop offset="0" stop-color="#ffe159" stop-opacity="0.38824"/><stop offset="1" stop-color="#ffe159" stop-opacity="0"/></radialGradient><radialGradient cx="496.23191" cy="438.98729" r="15.17079" gradientUnits="userSpaceOnUse" id="color-63"><stop offset="0" stop-color="#ffe159" stop-opacity="0.38824"/><stop offset="1" stop-color="#ffe159" stop-opacity="0"/></radialGradient><radialGradient cx="423.81251" cy="439.9459" r="9.80719" gradientUnits="userSpaceOnUse" id="color-64"><stop offset="0" stop-color="#ffe159" stop-opacity="0.38824"/><stop offset="1" stop-color="#ffe159" stop-opacity="0"/></radialGradient><radialGradient cx="439.5083" cy="362.78055" r="9.80722" gradientUnits="userSpaceOnUse" id="color-65"><stop offset="0" stop-color="#ffe159" stop-opacity="0.38824"/><stop offset="1" stop-color="#ffe159" stop-opacity="0"/></radialGradient><radialGradient cx="478.87756" cy="399.72264" r="42.40397" gradientUnits="userSpaceOnUse" id="color-66"><stop offset="0" stop-color="#ffd000"/><stop offset="1" stop-color="#ffd000" stop-opacity="0.50196"/></radialGradient><radialGradient cx="12.3797" cy="425.15588" r="26.01455" gradientUnits="userSpaceOnUse" id="color-67"><stop offset="0" stop-color="#5c59ff" stop-opacity="0.38824"/><stop offset="1" stop-color="#5c59ff" stop-opacity="0"/></radialGradient><radialGradient cx="-103.67233" cy="359.1152" r="19.54897" gradientUnits="userSpaceOnUse" id="color-68"><stop offset="0" stop-color="#5c59ff" stop-opacity="0.38824"/><stop offset="1" stop-color="#5c59ff" stop-opacity="0"/></radialGradient><radialGradient cx="-77.86993" cy="415.26973" r="19.54897" gradientUnits="userSpaceOnUse" id="color-69"><stop offset="0" stop-color="#5c59ff" stop-opacity="0.38824"/><stop offset="1" stop-color="#5c59ff" stop-opacity="0"/></radialGradient><radialGradient cx="-27.86297" cy="417.62252" r="19.54897" gradientUnits="userSpaceOnUse" id="color-70"><stop offset="0" stop-color="#5c59ff" stop-opacity="0.38824"/><stop offset="1" stop-color="#5c59ff" stop-opacity="0"/></radialGradient><radialGradient cx="61.61141" cy="391.08368" r="12.63748" gradientUnits="userSpaceOnUse" id="color-71"><stop offset="0" stop-color="#5c59ff" stop-opacity="0.38824"/><stop offset="1" stop-color="#5c59ff" stop-opacity="0"/></radialGradient><radialGradient cx="-63.78738" cy="304.70131" r="37.60797" gradientUnits="userSpaceOnUse" id="color-72"><stop offset="0" stop-color="#5c59ff" stop-opacity="0.38824"/><stop offset="1" stop-color="#5c59ff" stop-opacity="0"/></radialGradient><radialGradient cx="12.76388" cy="302.14414" r="12.6375" gradientUnits="userSpaceOnUse" id="color-73"><stop offset="0" stop-color="#5c59ff" stop-opacity="0.38824"/><stop offset="1" stop-color="#5c59ff" stop-opacity="0"/></radialGradient><radialGradient cx="57.83095" cy="321.68737" r="26.01455" gradientUnits="userSpaceOnUse" id="color-74"><stop offset="0" stop-color="#5c59ff" stop-opacity="0.38824"/><stop offset="1" stop-color="#5c59ff" stop-opacity="0"/></radialGradient><radialGradient cx="33.85821" cy="355.60411" r="26.01455" gradientUnits="userSpaceOnUse" id="color-75"><stop offset="0" stop-color="#5c59ff" stop-opacity="0.38824"/><stop offset="1" stop-color="#5c59ff" stop-opacity="0"/></radialGradient><radialGradient cx="-21.53792" cy="362.66744" r="90.67033" gradientUnits="userSpaceOnUse" id="color-76"><stop offset="0" stop-color="#5c59ff" stop-opacity="0.55686"/><stop offset="1" stop-color="#5c59ff" stop-opacity="0"/></radialGradient><radialGradient cx="-21.91189" cy="365.02529" r="73.03491" gradientUnits="userSpaceOnUse" id="color-77"><stop offset="0" stop-color="#5c59ff" stop-opacity="0.55686"/><stop offset="1" stop-color="#5c59ff" stop-opacity="0"/></radialGradient><radialGradient cx="56.53414" cy="321.67774" r="14.57569" gradientUnits="userSpaceOnUse" id="color-78"><stop offset="0" stop-color="#0400ff"/><stop offset="1" stop-color="#0400ff" stop-opacity="0.50196"/></radialGradient><radialGradient cx="-61.40046" cy="306.47553" r="21.5615" gradientUnits="userSpaceOnUse" id="color-79"><stop offset="0" stop-color="#0400ff"/><stop offset="1" stop-color="#0400ff" stop-opacity="0.50196"/></radialGradient><radialGradient cx="33.85051" cy="355.76422" r="16.63032" gradientUnits="userSpaceOnUse" id="color-80"><stop offset="0" stop-color="#0400ff"/><stop offset="1" stop-color="#0400ff" stop-opacity="0.50196"/></radialGradient><radialGradient cx="12.88335" cy="424.23761" r="16.63035" gradientUnits="userSpaceOnUse" id="color-81"><stop offset="0" stop-color="#0400ff"/><stop offset="1" stop-color="#0400ff" stop-opacity="0.50196"/></radialGradient><radialGradient cx="-28.10952" cy="417.81092" r="7.87523" gradientUnits="userSpaceOnUse" id="color-82"><stop offset="0" stop-color="#0400ff"/><stop offset="1" stop-color="#0400ff" stop-opacity="0.50196"/></radialGradient><radialGradient cx="-77.83694" cy="416.03718" r="9.2336" gradientUnits="userSpaceOnUse" id="color-83"><stop offset="0" stop-color="#0400ff"/><stop offset="1" stop-color="#0400ff" stop-opacity="0.50196"/></radialGradient><radialGradient cx="-103.76082" cy="359.19211" r="9.2336" gradientUnits="userSpaceOnUse" id="color-84"><stop offset="0" stop-color="#0400ff"/><stop offset="1" stop-color="#0400ff" stop-opacity="0.50196"/></radialGradient><radialGradient cx="13.05404" cy="302.00385" r="6.35708" gradientUnits="userSpaceOnUse" id="color-85"><stop offset="0" stop-color="#0400ff"/><stop offset="1" stop-color="#0400ff" stop-opacity="0.50196"/></radialGradient><radialGradient cx="61.29052" cy="390.82971" r="6.35708" gradientUnits="userSpaceOnUse" id="color-86"><stop offset="0" stop-color="#0400ff"/><stop offset="1" stop-color="#0400ff" stop-opacity="0.50196"/></radialGradient><radialGradient cx="-21.53792" cy="362.66744" r="40.24871" gradientUnits="userSpaceOnUse" id="color-87"><stop offset="0" stop-color="#ffeb91" stop-opacity="0.46667"/><stop offset="1" stop-color="#ffeb91" stop-opacity="0"/></radialGradient><radialGradient cx="-21.53797" cy="362.66751" r="54.64141" gradientUnits="userSpaceOnUse" id="color-88"><stop offset="0" stop-color="#0400ff"/><stop offset="1" stop-color="#0400ff" stop-opacity="0.50196"/></radialGradient><radialGradient cx="155.92796" cy="391.85092" r="34.86083" gradientUnits="userSpaceOnUse" id="color-89"><stop offset="0" stop-color="#ffe159" stop-opacity="0.55686"/><stop offset="1" stop-color="#ffe159" stop-opacity="0"/></radialGradient><radialGradient cx="154.90366" cy="391.35162" r="43.27851" gradientUnits="userSpaceOnUse" id="color-90"><stop offset="0" stop-color="#ffe159" stop-opacity="0.55686"/><stop offset="1" stop-color="#ffe159" stop-opacity="0"/></radialGradient><radialGradient cx="117.50265" cy="410.6557" r="6.95722" gradientUnits="userSpaceOnUse" id="color-91"><stop offset="0" stop-color="#ffd000"/><stop offset="1" stop-color="#ffd000" stop-opacity="0.50196"/></radialGradient><radialGradient cx="143.84609" cy="360.38156" r="10.29167" gradientUnits="userSpaceOnUse" id="color-92"><stop offset="0" stop-color="#ffd000"/><stop offset="1" stop-color="#ffd000" stop-opacity="0.50196"/></radialGradient><radialGradient cx="137.04058" cy="411.11846" r="7.93794" gradientUnits="userSpaceOnUse" id="color-93"><stop offset="0" stop-color="#ffd000"/><stop offset="1" stop-color="#ffd000" stop-opacity="0.50196"/></radialGradient><radialGradient cx="169.55381" cy="421.6666" r="7.93796" gradientUnits="userSpaceOnUse" id="color-94"><stop offset="0" stop-color="#ffd000"/><stop offset="1" stop-color="#ffd000" stop-opacity="0.50196"/></radialGradient><radialGradient cx="178.26378" cy="403.87899" r="3.75898" gradientUnits="userSpaceOnUse" id="color-95"><stop offset="0" stop-color="#ffd000"/><stop offset="1" stop-color="#ffd000" stop-opacity="0.50196"/></radialGradient><radialGradient cx="191.18434" cy="383.9501" r="4.40735" gradientUnits="userSpaceOnUse" id="color-96"><stop offset="0" stop-color="#ffd000"/><stop offset="1" stop-color="#ffd000" stop-opacity="0.50196"/></radialGradient><radialGradient cx="176.05534" cy="358.25119" r="4.40735" gradientUnits="userSpaceOnUse" id="color-97"><stop offset="0" stop-color="#ffd000"/><stop offset="1" stop-color="#ffd000" stop-opacity="0.50196"/></radialGradient><radialGradient cx="121.71394" cy="388.26886" r="3.03434" gradientUnits="userSpaceOnUse" id="color-98"><stop offset="0" stop-color="#ffd000"/><stop offset="1" stop-color="#ffd000" stop-opacity="0.50196"/></radialGradient><radialGradient cx="143.23876" cy="431.44747" r="3.03434" gradientUnits="userSpaceOnUse" id="color-99"><stop offset="0" stop-color="#ffd000"/><stop offset="1" stop-color="#ffd000" stop-opacity="0.50196"/></radialGradient><radialGradient cx="154.90366" cy="391.35162" r="19.2114" gradientUnits="userSpaceOnUse" id="color-100"><stop offset="0" stop-color="#ffeb91" stop-opacity="0.46667"/><stop offset="1" stop-color="#ffeb91" stop-opacity="0"/></radialGradient><radialGradient cx="170.05074" cy="421.72107" r="12.4172" gradientUnits="userSpaceOnUse" id="color-101"><stop offset="0" stop-color="#ffe159" stop-opacity="0.38824"/><stop offset="1" stop-color="#ffe159" stop-opacity="0"/></radialGradient><radialGradient cx="136.97589" cy="411.07762" r="12.41718" gradientUnits="userSpaceOnUse" id="color-102"><stop offset="0" stop-color="#ffe159" stop-opacity="0.38824"/><stop offset="1" stop-color="#ffe159" stop-opacity="0"/></radialGradient><radialGradient cx="117.15138" cy="411.16538" r="12.41719" gradientUnits="userSpaceOnUse" id="color-103"><stop offset="0" stop-color="#ffe159" stop-opacity="0.38824"/><stop offset="1" stop-color="#ffe159" stop-opacity="0"/></radialGradient><radialGradient cx="143.80586" cy="358.96254" r="17.95093" gradientUnits="userSpaceOnUse" id="color-104"><stop offset="0" stop-color="#ffe159" stop-opacity="0.38824"/><stop offset="1" stop-color="#ffe159" stop-opacity="0"/></radialGradient><radialGradient cx="176.00104" cy="358.26473" r="9.33106" gradientUnits="userSpaceOnUse" id="color-105"><stop offset="0" stop-color="#ffe159" stop-opacity="0.38824"/><stop offset="1" stop-color="#ffe159" stop-opacity="0"/></radialGradient><radialGradient cx="190.89331" cy="383.72709" r="9.33106" gradientUnits="userSpaceOnUse" id="color-106"><stop offset="0" stop-color="#ffe159" stop-opacity="0.38824"/><stop offset="1" stop-color="#ffe159" stop-opacity="0"/></radialGradient><radialGradient cx="178.12261" cy="403.92383" r="9.33106" gradientUnits="userSpaceOnUse" id="color-107"><stop offset="0" stop-color="#ffe159" stop-opacity="0.38824"/><stop offset="1" stop-color="#ffe159" stop-opacity="0"/></radialGradient><radialGradient cx="143.25019" cy="431.64247" r="6.03208" gradientUnits="userSpaceOnUse" id="color-108"><stop offset="0" stop-color="#ffe159" stop-opacity="0.38824"/><stop offset="1" stop-color="#ffe159" stop-opacity="0"/></radialGradient><radialGradient cx="121.84822" cy="388.19383" r="6.0321" gradientUnits="userSpaceOnUse" id="color-109"><stop offset="0" stop-color="#ffe159" stop-opacity="0.38824"/><stop offset="1" stop-color="#ffe159" stop-opacity="0"/></radialGradient><radialGradient cx="154.90371" cy="391.35162" r="26.08129" gradientUnits="userSpaceOnUse" id="color-110"><stop offset="0" stop-color="#ffd000"/><stop offset="1" stop-color="#ffd000" stop-opacity="0.50196"/></radialGradient></defs><g transform="translate(123.22665,-99.17809)"><g data-paper-data="{&quot;isPaintingLayer&quot;:true}" fill-rule="nonzero" stroke-width="0" stroke-linecap="butt" stroke-linejoin="miter" stroke-miterlimit="10" stroke-dasharray="" stroke-dashoffset="0" style="mix-blend-mode: normal"><g><path d="M462.51044,206.08669c2.09784,-29.50721 27.71881,-51.72686 57.22602,-49.62901c29.50721,2.09784 51.72686,27.71879 49.62901,57.226c-2.09784,29.50721 -27.71879,51.72688 -57.226,49.62904c-29.50721,-2.09784 -51.72686,-27.71881 -49.62901,-57.22601z" fill="url(#color-1)" stroke="none"/><path d="M450.07379,203.48133c2.6044,-36.63218 34.41195,-64.21711 71.04413,-61.61271c36.63219,2.60442 64.21711,34.41194 61.6127,71.04412c-2.6044,36.63218 -34.41194,64.21712 -71.04411,61.61272c-36.63218,-2.6044 -64.21713,-34.41194 -61.61272,-71.04413z" fill="url(#color-2)" stroke="none"/><path d="M466.00504,156.41797c0.41867,-5.88881 5.53188,-10.3232 11.42065,-9.90453c5.88883,0.41868 10.32322,5.5319 9.90456,11.42067c-0.41867,5.88881 -5.53188,10.32324 -11.42071,9.90457c-5.88882,-0.41866 -10.32318,-5.53188 -9.9045,-11.42071z" fill="url(#color-3)" stroke="#000000"/><path d="M544.27142,181.61435c0.61933,-8.7112 8.18317,-15.2709 16.89436,-14.65157c8.71117,0.61934 15.27093,8.18318 14.6516,16.89436c-0.61933,8.7112 -8.18323,15.27094 -16.89439,14.65162c-8.7112,-0.61933 -15.2709,-8.18321 -14.65156,-16.89441z" fill="url(#color-4)" stroke="#000000"/><path d="M469.33095,185.948c0.47769,-6.71894 6.31167,-11.7784 13.03058,-11.30071c6.71893,0.47769 11.77842,6.31169 11.30073,13.03059c-0.47769,6.71894 -6.31168,11.77842 -13.03059,11.30073c-6.71893,-0.47769 -11.77839,-6.31171 -11.30071,-13.0306z" fill="url(#color-5)" stroke="#000000"/><path d="M462.60011,238.03348c0.47769,-6.71894 6.31168,-11.7784 13.03058,-11.30071c6.71892,0.47769 11.77843,6.31167 11.30075,13.03058c-0.47769,6.71894 -6.31169,11.77842 -13.03061,11.30073c-6.71892,-0.47769 -11.77841,-6.31171 -11.30072,-13.0306z" fill="url(#color-6)" stroke="#000000"/><path d="M498.33168,246.60997c0.22621,-3.18174 2.98887,-5.57759 6.17057,-5.35139c3.18174,0.22621 5.57761,2.98885 5.35143,6.17056c-0.22621,3.18174 -2.98886,5.57762 -6.17057,5.35141c-3.18174,-0.22621 -5.57762,-2.98887 -5.35141,-6.17057z" fill="url(#color-7)" stroke="#000000"/><path d="M531.08998,260.4134c0.26523,-3.7305 3.50443,-6.53966 7.23491,-6.27443c3.7305,0.26523 6.53968,3.50441 6.27446,7.23491c-0.26523,3.7305 -3.5044,6.5397 -7.23491,6.27447c-3.7305,-0.26523 -6.53968,-3.50442 -6.27444,-7.23494z" fill="url(#color-8)" stroke="#000000"/><path d="M565.6198,230.29485c0.26523,-3.7305 3.50443,-6.53969 7.23492,-6.27446c3.73053,0.26523 6.53969,3.50442 6.27447,7.23492c-0.26523,3.7305 -3.5044,6.5397 -7.23491,6.27447c-3.73053,-0.26523 -6.53968,-3.50443 -6.27445,-7.23495z" fill="url(#color-9)" stroke="#000000"/><path d="M507.01707,156.87146c0.18259,-2.56836 2.41271,-4.50238 4.98105,-4.31977c2.56835,0.1826 4.50238,2.4127 4.31979,4.98103c-0.1826,2.56835 -2.41266,4.50241 -4.98105,4.31979c-2.56835,-0.1826 -4.5024,-2.4127 -4.31979,-4.98105z" fill="url(#color-10)" stroke="#000000"/><path d="M447.89915,201.59433c0.18259,-2.56836 2.41269,-4.50237 4.98104,-4.31977c2.56836,0.18259 4.50239,2.41271 4.31978,4.98102c-0.18259,2.56836 -2.4127,4.5024 -4.98105,4.3198c-2.56836,-0.18259 -4.50239,-2.41268 -4.31979,-4.98107z" fill="url(#color-11)" stroke="#000000"/><path d="M486.95893,206.10371c1.15611,-16.26109 15.27552,-28.50604 31.53655,-27.34994c16.2611,1.15609 28.5061,15.27551 27.35,31.53655c-1.15609,16.2611 -15.27552,28.50611 -31.53661,27.35001c-16.2611,-1.15609 -28.50603,-15.27552 -27.34994,-31.53662z" fill="url(#color-12)" stroke="#000000"/><path d="M455.79355,238.3113c0.74724,-10.51026 9.87325,-18.42477 20.38352,-17.67753c10.51026,0.74724 18.42477,9.87326 17.67752,20.38353c-0.74724,10.51026 -9.87326,18.42477 -20.38352,17.67753c-10.51026,-0.74724 -18.42477,-9.87325 -17.67753,-20.38352z" fill="url(#color-13)" stroke="none"/><path d="M462.50941,185.35068c0.74724,-10.51026 9.87326,-18.42478 20.38356,-17.67753c10.51028,0.74723 18.42477,9.87324 17.67752,20.38354c-0.74724,10.51026 -9.87322,18.4248 -20.38352,17.67755c-10.51027,-0.74725 -18.4248,-9.87327 -17.67755,-20.38355z" fill="url(#color-14)" stroke="none"/><path d="M456.76798,155.43677c0.74724,-10.51026 9.87325,-18.42477 20.38355,-17.67751c10.51028,0.74723 18.42477,9.87325 17.67751,20.38353c-0.74724,10.51026 -9.87323,18.42481 -20.38352,17.67756c-10.51027,-0.74725 -18.42478,-9.87327 -17.67754,-20.38356z" fill="url(#color-15)" stroke="none"/><path d="M534.66446,180.31755c1.08026,-15.19421 14.27329,-26.63582 29.4675,-25.55556c15.1942,1.08024 26.63579,14.2733 25.55553,29.46751c-1.08026,15.19421 -14.27329,26.63582 -29.46748,25.55556c-15.1942,-1.08024 -26.63582,-14.27329 -25.55556,-29.4675z" fill="url(#color-16)" stroke="none"/><path d="M558.03793,229.68021c0.56154,-7.89809 7.41939,-13.84553 15.31749,-13.28399c7.89809,0.56153 13.84553,7.4194 13.284,15.31746c-0.56154,7.89809 -7.41937,13.84554 -15.31746,13.284c-7.89809,-0.56154 -13.84556,-7.41939 -13.28404,-15.31747z" fill="url(#color-17)" stroke="none"/><path d="M523.79834,259.37432c0.56153,-7.89807 7.41941,-13.84555 15.31748,-13.28403c7.89809,0.56154 13.84553,7.41938 13.28401,15.31748c-0.56153,7.89807 -7.41937,13.84554 -15.31746,13.284c-7.89809,-0.56154 -13.84556,-7.41939 -13.28403,-15.31747z" fill="url(#color-18)" stroke="none"/><path d="M489.68427,245.80233c0.56153,-7.89807 7.41941,-13.84554 15.31748,-13.28402c7.89809,0.56154 13.84553,7.41938 13.28401,15.31749c-0.56153,7.89807 -7.41938,13.84555 -15.31747,13.28401c-7.89807,-0.56153 -13.84556,-7.41939 -13.28404,-15.31747z" fill="url(#color-19)" stroke="none"/><path d="M443.01352,201.34016c0.363,-5.10574 4.79628,-8.9505 9.90204,-8.5875c5.10574,0.363 8.95047,4.7963 8.58747,9.90204c-0.363,5.10574 -4.79627,8.9505 -9.90201,8.5875c-5.10574,-0.363 -8.95051,-4.7963 -8.5875,-9.90204z" fill="url(#color-20)" stroke="none"/><path d="M502.57406,156.72637c0.363,-5.10574 4.7963,-8.95051 9.90205,-8.58749c5.10574,0.363 8.95051,4.7963 8.5875,9.90204c-0.363,5.10574 -4.79629,8.9505 -9.90205,8.5875c-5.10574,-0.363 -8.95051,-4.7963 -8.5875,-9.90204z" fill="url(#color-21)" stroke="none"/><path d="M476.43019,205.35519c1.56953,-22.07599 20.73798,-38.69966 42.81386,-37.13015c22.07598,1.56951 38.69975,20.73798 37.13024,42.81388c-1.56953,22.07599 -20.73799,38.69975 -42.81395,37.13022c-22.07598,-1.56951 -38.69965,-20.73797 -37.13014,-42.81395z" fill="url(#color-22)" stroke="#000000"/></g><g><path d="M-13.09524,233.1996c-4.00177,-10.80559 1.51382,-22.80933 12.31941,-26.8111c10.80559,-4.00177 22.80933,1.51382 26.8111,12.31941c4.00177,10.80559 -1.51382,22.80933 -12.31941,26.8111c-10.80559,4.00177 -22.80933,-1.51382 -26.8111,-12.31941z" fill="url(#color-23)" stroke="none"/><path d="M84.84214,178.43359c-3.00719,-8.12002 1.13758,-17.14037 9.2576,-20.14756c8.12002,-3.00719 17.14037,1.13758 20.14755,9.25758c3.00719,8.12002 -1.13756,17.14036 -9.25758,20.14755c-8.12002,3.00719 -17.14039,-1.13757 -20.14757,-9.25757z" fill="url(#color-24)" stroke="none"/><path d="M64.14837,223.46998c-3.00718,-8.12 1.1376,-17.1404 9.25759,-20.14758c8.12002,-3.00719 17.14037,1.13758 20.14756,9.2576c3.00718,8.12 -1.13756,17.14036 -9.25758,20.14755c-8.12002,3.00719 -17.14039,-1.13757 -20.14757,-9.25757z" fill="url(#color-25)" stroke="none"/><path d="M24.04236,225.35693c-3.00718,-8.12 1.1376,-17.1404 9.25759,-20.14758c8.12002,-3.00719 17.14037,1.13758 20.14756,9.2576c3.00718,8.12 -1.13756,17.14036 -9.25758,20.14755c-8.12,3.00718 -17.14039,-1.13757 -20.14757,-9.25757z" fill="url(#color-26)" stroke="none"/><path d="M-42.51877,202.14751c-1.94401,-5.24921 0.73539,-11.08046 5.9846,-13.02446c5.24921,-1.94401 11.08043,0.7354 13.02444,5.98461c1.94401,5.24921 -0.73537,11.08045 -5.98457,13.02445c-5.24921,1.94401 -11.08046,-0.73539 -13.02446,-5.9846z" fill="url(#color-27)" stroke="none"/><path d="M39.27208,139.82319c-5.78517,-15.62114 2.18845,-32.97437 17.80959,-38.75955c15.62114,-5.78517 32.97435,2.18846 38.75952,17.8096c5.78517,15.62114 -2.18845,32.97437 -17.80957,38.75954c-15.62114,5.78517 -32.97437,-2.18845 -38.75955,-17.80959z" fill="url(#color-28)" stroke="none"/><path d="M-3.34261,130.81727c-1.94401,-5.24921 0.73539,-11.08046 5.9846,-13.02446c5.24921,-1.94401 11.08046,0.73539 13.02446,5.9846c1.94401,5.24921 -0.73539,11.08046 -5.9846,13.02446c-5.24921,1.94401 -11.08046,-0.73539 -13.02446,-5.9846z" fill="url(#color-29)" stroke="none"/><path d="M-49.54752,150.21703c-4.00177,-10.80559 1.51382,-22.80933 12.31943,-26.81111c10.80559,-4.00177 22.80933,1.51382 26.8111,12.31941c4.00177,10.80559 -1.51379,22.80935 -12.3194,26.81113c-10.80559,4.00177 -22.80936,-1.51381 -26.81113,-12.31942z" fill="url(#color-30)" stroke="none"/><path d="M-30.32118,177.41851c-4.00177,-10.80559 1.51381,-22.80936 12.31942,-26.81113c10.80559,-4.00177 22.80933,1.51382 26.81111,12.31943c4.00177,10.80559 -1.51379,22.80935 -12.3194,26.81113c-10.80559,4.00177 -22.80936,-1.51381 -26.81113,-12.31942z" fill="url(#color-31)" stroke="none"/><path d="M-34.51992,201.09197c-13.94765,-37.66149 5.27621,-79.49895 42.93769,-93.4466c37.66149,-13.94765 79.49895,5.27621 93.4466,42.93769c13.94765,37.66149 -5.27621,79.49895 -42.93769,93.4466c-37.66149,13.94765 -79.49895,-5.27621 -93.4466,-42.93769z" fill="url(#color-32)" stroke="none"/><path d="M-20.95659,198.07101c-11.23483,-30.33631 4.24998,-64.03637 34.58629,-75.2712c30.33631,-11.23483 64.03637,4.24998 75.2712,34.58629c11.23483,30.33631 -4.24998,64.03637 -34.58629,75.2712c-30.33631,11.23483 -64.03637,-4.24998 -75.2712,-34.58629z" fill="url(#color-33)" stroke="none"/><path d="M-39.90441,147.02322c-2.24216,-6.05429 0.84819,-12.77981 6.90242,-15.02196c6.05429,-2.24216 12.77986,0.84817 15.022,6.90241c2.24216,6.05429 -0.84817,12.77986 -6.90245,15.02202c-6.05429,2.24216 -12.77981,-0.84819 -15.02197,-6.90247z" fill="url(#color-34)" stroke="#000000"/><path d="M49.42612,136.77667c-3.31678,-8.95597 1.25469,-18.90493 10.21063,-22.2217c8.95594,-3.31677 18.90496,1.25468 22.22172,10.21062c3.31678,8.95597 -1.25469,18.90499 -10.21063,22.22176c-8.95597,3.31678 -18.90494,-1.25471 -22.22172,-10.21068z" fill="url(#color-35)" stroke="#000000"/><path d="M-23.25724,174.93311c-2.55822,-6.90772 0.96773,-14.58132 7.87543,-17.13953c6.90772,-2.55822 14.58134,0.96772 17.13956,7.87542c2.55822,6.90772 -0.96772,14.58134 -7.87544,17.13957c-6.90772,2.55822 -14.58133,-0.96776 -17.13954,-7.87545z" fill="url(#color-36)" stroke="#000000"/><path d="M-6.44139,229.84932c-2.55822,-6.90772 0.96773,-14.58132 7.87543,-17.13953c6.90772,-2.55822 14.58134,0.96772 17.13956,7.87542c2.55822,6.90772 -0.96772,14.58134 -7.87544,17.13957c-6.90772,2.55822 -14.58133,-0.96776 -17.13954,-7.87545z" fill="url(#color-37)" stroke="#000000"/><path d="M33.01986,222.25651c-1.21144,-3.27113 0.45828,-6.90491 3.72939,-8.11634c3.27113,-1.21144 6.90492,0.45825 8.11635,3.72936c1.21144,3.27113 -0.45825,6.90492 -3.72938,8.11636c-3.27113,1.21144 -6.90493,-0.45827 -8.11636,-3.72938z" fill="url(#color-38)" stroke="#000000"/><path d="M71.88001,221.21231c-1.42039,-3.83533 0.53735,-8.09592 4.37265,-9.5163c3.83533,-1.42039 8.09593,0.53732 9.51631,4.37262c1.42039,3.83533 -0.53728,8.09595 -4.37264,9.51634c-3.83533,1.42039 -8.09593,-0.53732 -9.51633,-4.37267z" fill="url(#color-39)" stroke="#000000"/><path d="M92.67118,175.62209c-1.42039,-3.83533 0.53734,-8.09594 4.37265,-9.51632c3.83535,-1.42039 8.09593,0.53732 9.51632,4.37265c1.42039,3.83533 -0.53728,8.09595 -4.37264,9.51634c-3.83535,1.42039 -8.09593,-0.53732 -9.51633,-4.37267z" fill="url(#color-40)" stroke="#000000"/><path d="M1.14811,128.95546c-0.9779,-2.64052 0.36996,-5.57382 3.01046,-6.55171c2.64052,-0.9779 5.57384,0.36993 6.55173,3.01043c0.9779,2.64052 -0.36991,5.57383 -3.01045,6.55173c-2.64052,0.9779 -5.57384,-0.36993 -6.55173,-3.01045z" fill="url(#color-41)" stroke="#000000"/><path d="M-37.53794,200.19451c-0.9779,-2.64052 0.36994,-5.57381 3.01046,-6.55171c2.64052,-0.9779 5.57384,0.36993 6.55173,3.01043c0.9779,2.64052 -0.36993,5.57384 -3.01045,6.55173c-2.64052,0.9779 -5.57383,-0.36991 -6.55173,-3.01045z" fill="url(#color-42)" stroke="#000000"/><path d="M3.40164,187.04798c-6.19139,-16.71801 2.34214,-35.28967 19.06008,-41.48103c16.71801,-6.19139 35.28974,2.34211 41.4811,19.06006c6.19139,16.71801 -2.34211,35.28974 -19.06013,41.48113c-16.71801,6.19139 -35.28967,-2.34214 -41.48106,-19.06015z" fill="url(#color-43)" stroke="#000000"/><path d="M-7.42295,191.05684c-8.4054,-22.69629 3.17968,-47.90908 25.87587,-56.31445c22.69629,-8.4054 47.90917,3.17965 56.31454,25.87584c8.4054,22.69629 -3.17965,47.90917 -25.87593,56.31458c-22.69629,8.4054 -47.90908,-3.17968 -56.31448,-25.87597z" fill="url(#color-44)" stroke="#000000"/></g><g><path d="M434.79322,435.96617c-19.09942,-24.80029 -14.47795,-60.38803 10.32236,-79.48744c24.80029,-19.09942 60.38801,-14.47795 79.48744,10.32234c19.09942,24.80029 14.47796,60.38803 -10.32233,79.48746c-24.80029,19.09942 -60.38803,14.47795 -79.48744,-10.32234z" fill="url(#color-45)" stroke="none"/><path d="M423.12962,442.65564c-23.71127,-30.7887 -17.97386,-74.96966 12.81484,-98.68093c30.78872,-23.71126 74.96964,-17.97386 98.68091,12.81484c23.71128,30.7887 17.97388,74.96965 -12.81482,98.68093c-30.7887,23.71128 -74.96965,17.97387 -98.68093,-12.81483z" fill="url(#color-46)" stroke="none"/><path d="M402.61467,394.24627c-3.81171,-4.94944 -2.88939,-12.05172 2.06003,-15.8634c4.94946,-3.81171 12.05176,-2.88938 15.86344,2.06002c3.81171,4.94944 2.8894,12.05176 -2.06006,15.86347c-4.94945,3.81173 -12.0517,2.88936 -15.86341,-2.06009z" fill="url(#color-47)" stroke="#000000"/><path d="M482.20685,359.10442c-5.63858,-7.32161 -4.27422,-17.82785 3.04738,-23.46642c7.32159,-5.63856 17.82788,-4.27423 23.46645,3.04736c5.63858,7.32161 4.27421,17.82792 -3.04737,23.46648c-7.32161,5.63858 -17.82787,4.27419 -23.46645,-3.04742z" fill="url(#color-48)" stroke="#000000"/><path d="M426.01746,415.2491c-4.34904,-5.64715 -3.29668,-13.75058 2.35044,-18.0996c5.64715,-4.34904 13.75061,-3.29668 18.09962,2.35044c4.34904,5.64715 3.2967,13.75059 -2.35044,18.09962c-5.64715,4.34904 -13.75059,3.29665 -18.0996,-2.35046z" fill="url(#color-49)" stroke="#000000"/><path d="M457.33798,461.15599c-4.34904,-5.64715 -3.29667,-13.75058 2.35045,-18.09958c5.64713,-4.34902 13.7506,-3.2967 18.09961,2.35042c4.34904,5.64715 3.29669,13.7506 -2.35044,18.09963c-5.64713,4.34902 -13.75061,3.29666 -18.09962,-2.35046z" fill="url(#color-50)" stroke="#000000"/><path d="M491.61604,442.79902c-2.05948,-2.67419 -1.56112,-6.51152 1.11304,-8.57097c2.67419,-2.05948 6.51151,-1.56115 8.57099,1.11301c2.05948,2.67419 1.56114,6.51154 -1.11304,8.571c-2.67419,2.05948 -6.51153,1.56113 -8.57099,-1.11304z" fill="url(#color-51)" stroke="#000000"/><path d="M527.22084,430.66541c-2.41468,-3.13543 -1.83038,-7.63468 1.30503,-10.04935c3.13543,-2.41468 7.63469,-1.8304 10.04936,1.305c2.41468,3.13543 1.83044,7.63469 -1.305,10.04938c-3.13543,2.41468 -7.63469,1.83039 -10.04937,-1.30505z" fill="url(#color-52)" stroke="#000000"/><path d="M533.32777,382.56665c-2.41468,-3.13543 -1.8304,-7.6347 1.30502,-10.04937c3.13545,-2.4147 7.6347,-1.83041 10.04938,1.30502c2.41468,3.13543 1.83043,7.63469 -1.30501,10.04938c-3.13545,2.4147 -7.6347,1.83039 -10.04938,-1.30505z" fill="url(#color-53)" stroke="#000000"/><path d="M435.35239,365.75363c-1.66244,-2.15866 -1.26015,-5.25628 0.89849,-6.9187c2.15866,-1.66244 5.25628,-1.26018 6.9187,0.89846c1.66244,2.15866 1.26022,5.25626 -0.89848,6.91872c-2.15866,1.66244 -5.25628,1.26019 -6.91872,-0.89847z" fill="url(#color-54)" stroke="#000000"/><path d="M420.08316,442.69385c-1.66244,-2.15866 -1.26017,-5.25626 0.89849,-6.91869c2.15866,-1.66244 5.25629,-1.26018 6.91869,0.89846c1.66244,2.15866 1.26018,5.25629 -0.89847,6.91874c-2.15866,1.66244 -5.25626,1.26019 -6.91873,-0.8985z" fill="url(#color-55)" stroke="#000000"/><path d="M454.13091,418.78062c-10.52547,-13.66717 -7.9786,-33.27912 5.68851,-43.80455c13.66717,-10.52549 33.27916,-7.97865 43.8046,5.68847c10.52549,13.66717 7.97865,33.27916 -5.68851,43.80465c-13.66717,10.52549 -33.27911,7.9786 -43.8046,-5.68857z" fill="url(#color-56)" stroke="#000000"/><path d="M452.15307,466.16387c-6.80307,-8.83369 -5.15696,-21.50982 3.67674,-28.31289c8.83369,-6.80307 21.50982,-5.15695 28.31291,3.67676c6.80307,8.83369 5.15695,21.50982 -3.67674,28.31289c-8.83369,6.80307 -21.50982,5.15696 -28.31289,-3.67675z" fill="url(#color-57)" stroke="none"/><path d="M420.20504,419.57575c-6.80308,-8.83369 -5.15696,-21.50983 3.67676,-28.31293c8.83371,-6.80309 21.50982,-5.15696 28.31291,3.67677c6.80307,8.83369 5.157,21.50982 -3.67672,28.31292c-8.83371,6.80307 -21.50986,5.15697 -28.31294,-3.67676z" fill="url(#color-58)" stroke="none"/><path d="M394.62282,399.96873c-6.80308,-8.83369 -5.15695,-21.50981 3.67677,-28.3129c8.83371,-6.80309 21.50981,-5.15695 28.3129,3.67676c6.80307,8.83369 5.15699,21.50983 -3.67673,28.31293c-8.83371,6.80307 -21.50982,5.15695 -28.31293,-3.67676z" fill="url(#color-59)" stroke="none"/><path d="M473.70059,364.83764c-9.8349,-12.77047 -7.45516,-31.09572 5.31531,-40.93062c12.77046,-9.8349 31.09571,-7.45514 40.9306,5.31534c9.8349,12.77047 7.45517,31.09572 -5.31529,40.9306c-12.77046,9.8349 -31.09572,7.45516 -40.93062,-5.31531z" fill="url(#color-60)" stroke="none"/><path d="M526.90217,387.41449c-5.11227,-6.63822 -3.87525,-16.16383 2.76297,-21.2761c6.63822,-5.11228 16.16383,-3.87524 21.27609,2.76294c5.11227,6.63822 3.87527,16.16382 -2.76295,21.2761c-6.63822,5.11227 -16.16386,3.87527 -21.27612,-2.76292z" fill="url(#color-61)" stroke="none"/><path d="M520.72607,434.97356c-5.11226,-6.63819 -3.87525,-16.16387 2.76294,-21.27613c6.63822,-5.11227 16.16384,-3.87526 21.27611,2.76296c5.11226,6.63819 3.87527,16.16382 -2.76295,21.27609c-6.63822,5.11227 -16.16387,3.87528 -21.27613,-2.76293z" fill="url(#color-62)" stroke="none"/><path d="M484.21237,448.24387c-5.11226,-6.63819 -3.87525,-16.16386 2.76295,-21.27612c6.63822,-5.11227 16.16384,-3.87526 21.27612,2.76295c5.11226,6.63819 3.87527,16.16384 -2.76295,21.27611c-6.63819,5.11226 -16.16386,3.87527 -21.27612,-2.76292z" fill="url(#color-63)" stroke="none"/><path d="M416.04243,445.92987c-3.30484,-4.29129 -2.50519,-10.44917 1.78611,-13.75402c4.29129,-3.30484 10.44916,-2.50516 13.754,1.78614c3.30485,4.29129 2.5052,10.44916 -1.78609,13.754c-4.29129,3.30485 -10.44918,2.50518 -13.75402,-1.78611z" fill="url(#color-64)" stroke="none"/><path d="M431.73826,368.7645c-3.30484,-4.29129 -2.50517,-10.44918 1.78613,-13.75401c4.29129,-3.30484 10.44917,-2.50518 13.75402,1.78611c3.30485,4.29129 2.50518,10.44916 -1.78612,13.75402c-4.29129,3.30485 -10.44918,2.50518 -13.75402,-1.78611z" fill="url(#color-65)" stroke="none"/><path d="M445.28173,425.5957c-14.28934,-18.55449 -10.8317,-45.17957 7.7227,-59.46885c18.55447,-14.28934 45.17964,-10.83175 59.46893,7.72265c14.28934,18.55449 10.83176,45.17965 -7.72272,59.46896c-18.55447,14.28934 -45.17957,10.8317 -59.46891,-7.72277z" fill="url(#color-66)" stroke="#000000"/></g><g data-paper-data="{&quot;index&quot;:null}"><path d="M3.34508,449.55121c-13.47317,-4.98969 -20.35039,-19.95679 -15.3607,-33.42996c4.98969,-13.47317 19.95679,-20.35039 33.42996,-15.3607c13.47317,4.98969 20.35039,19.95679 15.3607,33.42996c-4.98969,13.47317 -19.95679,20.35039 -33.42996,15.3607z" fill="url(#color-67)" stroke="none"/><path d="M-110.46155,377.44739c-10.12461,-3.74958 -15.29258,-14.99677 -11.543,-25.12138c3.74956,-10.12459 14.99677,-15.29258 25.12138,-11.543c10.12461,3.74958 15.2926,14.99678 11.54302,25.12139c-3.74956,10.12459 -14.99679,15.29256 -25.1214,11.54299z" fill="url(#color-68)" stroke="none"/><path d="M-84.65911,433.60192c-10.12461,-3.74958 -15.29256,-14.99679 -11.543,-25.12138c3.74958,-10.12461 14.99678,-15.2926 25.12139,-11.54302c10.12457,3.74956 15.29258,14.99683 11.54301,25.12142c-3.74956,10.12459 -14.99679,15.29256 -25.1214,11.54299z" fill="url(#color-69)" stroke="none"/><path d="M-34.65213,435.9547c-10.12461,-3.74958 -15.29256,-14.99679 -11.543,-25.12138c3.74958,-10.12461 14.99678,-15.2926 25.12139,-11.54302c10.12457,3.74956 15.29258,14.99683 11.54301,25.12142c-3.74956,10.12459 -14.99682,15.29255 -25.1214,11.54299z" fill="url(#color-70)" stroke="none"/><path d="M73.46235,395.47258c-2.42392,6.54508 -9.69473,9.88595 -16.23981,7.46202c-6.54507,-2.42392 -9.88591,-9.69471 -7.46198,-16.2398c2.42393,-6.54508 9.6947,-9.88596 16.23979,-7.46203c6.54508,2.42392 9.88595,9.69473 7.46202,16.23981z" fill="url(#color-71)" stroke="none"/><path d="M-28.52019,317.76225c-7.21337,19.47753 -28.85059,29.4196 -48.32812,22.20625c-19.47751,-7.21336 -29.41958,-28.85058 -22.20622,-48.32811c7.21336,-19.47753 28.85055,-29.41961 48.32809,-22.20626c19.47753,7.21337 29.4196,28.85059 22.20625,48.32812z" fill="url(#color-72)" stroke="none"/><path d="M8.37497,313.99505c-6.54508,-2.42392 -9.88595,-9.69473 -7.46202,-16.23981c2.42392,-6.54508 9.69473,-9.88595 16.23981,-7.46202c6.54508,2.42392 9.88595,9.69473 7.46202,16.23981c-2.42392,6.54508 -9.69473,9.88595 -16.23981,7.46202z" fill="url(#color-73)" stroke="none"/><path d="M82.2263,330.72203c-4.98969,13.47319 -19.95683,20.3504 -33.43,15.36072c-13.47319,-4.9897 -20.35038,-19.95683 -15.36069,-33.43c4.98969,-13.47317 19.95679,-20.35039 33.42996,-15.3607c13.47319,4.9897 20.35042,19.9568 15.36073,33.42997z" fill="url(#color-74)" stroke="none"/><path d="M58.25355,364.63874c-4.98969,13.47319 -19.95683,20.3504 -33.43,15.36072c-13.47319,-4.9897 -20.35038,-19.95683 -15.36069,-33.43c4.9897,-13.47319 19.9568,-20.35042 33.42997,-15.36073c13.47319,4.98969 20.3504,19.95683 15.36072,33.43z" fill="url(#color-75)" stroke="none"/><path d="M-53.02694,447.69418c-46.95897,-17.39091 -70.92863,-69.55679 -53.53772,-116.51577c17.39091,-46.95897 69.55679,-70.92863 116.51577,-53.53772c46.95897,17.39091 70.92863,69.55679 53.53772,116.51577c-17.39091,46.95897 -69.55679,70.92863 -116.51577,53.53772z" fill="url(#color-76)" stroke="none"/><path d="M-47.27629,433.51432c-37.82544,-14.00837 -57.13299,-56.02797 -43.12461,-93.85341c14.00837,-37.82544 56.02797,-57.13299 93.85341,-43.12461c37.82544,14.00837 57.13299,56.02797 43.12461,93.85341c-14.00837,37.82544 -56.02797,57.13299 -93.85341,43.12461z" fill="url(#color-77)" stroke="none"/><path d="M51.47215,335.34623c-7.5489,-2.79568 -11.40214,-11.18159 -8.60646,-18.73051c2.79566,-7.54885 11.18157,-11.40209 18.73048,-8.60641c7.54884,2.79567 11.4021,11.18152 8.60642,18.73043c-2.79568,7.5489 -11.18153,11.40217 -18.73045,8.60648z" fill="url(#color-78)" stroke="#000000"/><path d="M-68.88857,326.69502c-11.16689,-4.13558 -16.86692,-16.54072 -12.73133,-27.70765c4.13557,-11.16689 16.5407,-16.8669 27.7076,-12.73132c11.16689,4.13558 16.86692,16.54064 12.73133,27.70757c-4.13559,11.16693 -16.54067,16.86699 -27.7076,12.73139z" fill="url(#color-79)" stroke="#000000"/><path d="M49.44572,361.53977c-3.18976,8.61299 -12.75775,13.00943 -21.37078,9.81966c-8.61303,-3.18978 -13.00942,-12.75779 -9.81965,-21.37082c3.18977,-8.613 12.75778,-13.00939 21.37081,-9.81963c8.613,3.18976 13.00941,12.75774 9.81964,21.37077z" fill="url(#color-80)" stroke="#000000"/><path d="M28.47854,430.01315c-3.18976,8.61299 -12.75775,13.00943 -21.37078,9.81966c-8.61303,-3.18978 -13.00942,-12.75779 -9.81965,-21.37082c3.18977,-8.613 12.75778,-13.00939 21.37081,-9.81963c8.613,3.18976 13.00941,12.75774 9.81964,21.37077z" fill="url(#color-81)" stroke="#000000"/><path d="M-30.84455,425.19594c-4.07867,-1.51051 -6.16056,-6.04137 -4.65005,-10.12005c1.5105,-4.07865 6.04136,-6.16054 10.12003,-4.65003c4.07865,1.5105 6.16057,6.04135 4.65006,10.12002c-1.5105,4.07865 -6.04137,6.16056 -10.12005,4.65005z" fill="url(#color-82)" stroke="#000000"/><path d="M-69.17805,419.2439c-1.77105,4.78218 -7.08347,7.22319 -11.86563,5.45215c-4.7822,-1.77104 -7.22316,-7.08348 -5.45211,-11.86564c1.77103,-4.78212 7.08344,-7.22313 11.8656,-5.45209c4.78212,1.77103 7.22317,7.08343 5.45213,11.86559z" fill="url(#color-83)" stroke="#000000"/><path d="M-106.96758,367.85098c-4.7822,-1.77104 -7.22316,-7.08348 -5.45211,-11.86564c1.77104,-4.78216 7.08343,-7.22317 11.86562,-5.45213c4.78213,1.77103 7.22317,7.08346 5.45213,11.86562c-1.77105,4.78218 -7.08344,7.22319 -11.86563,5.45215z" fill="url(#color-84)" stroke="#000000"/><path d="M19.01542,304.21161c-1.2193,3.29239 -4.87677,4.97295 -8.16916,3.75364c-3.29241,-1.21931 -4.97295,-4.87677 -3.75364,-8.16916c1.2193,-3.29236 4.87677,-4.97293 8.16916,-3.75362c3.29236,1.2193 4.97297,4.87675 3.75365,8.16913z" fill="url(#color-85)" stroke="#000000"/><path d="M67.2519,393.03744c-1.21931,3.29241 -4.87677,4.97295 -8.16916,3.75364c-3.29239,-1.2193 -4.97295,-4.87677 -3.75364,-8.16916c1.2193,-3.29236 4.87677,-4.97293 8.16916,-3.75362c3.29239,1.21931 4.97297,4.87675 3.75365,8.16913z" fill="url(#color-86)" stroke="#000000"/><path d="M16.20559,376.64544c-7.71986,20.84519 -30.87631,31.48539 -51.72149,23.76553c-20.8452,-7.71986 -31.48537,-30.87639 -23.76551,-51.72158c7.71982,-20.84511 30.87636,-31.48528 51.72154,-23.76542c20.8451,7.71982 31.4853,30.87627 23.76544,51.72146z" fill="url(#color-87)" stroke="#000000"/><path d="M-40.51441,413.90793c-28.29931,-10.48045 -42.74437,-41.91764 -32.26392,-70.21697c10.4804,-28.2992 41.91759,-42.74425 70.21692,-32.26381c28.2992,10.4804 42.74429,41.91748 32.26385,70.2168c-10.48044,28.29933 -41.91752,42.74442 -70.21684,32.26397z" fill="url(#color-88)" stroke="#000000"/></g><g><path d="M147.09486,425.5741c-18.6248,-4.87839 -29.76847,-23.93149 -24.89006,-42.55629c4.87839,-18.6248 23.93148,-29.76846 42.55628,-24.89007c18.6248,4.87839 29.76847,23.93148 24.89008,42.55629c-4.87839,18.6248 -23.93149,29.76847 -42.55628,24.89007z" fill="url(#color-89)" stroke="none"/><path d="M143.93766,433.21778c-23.12205,-6.05635 -36.95652,-29.71012 -30.90017,-52.83217c6.05636,-23.12205 29.71012,-36.95651 52.83216,-30.90016c23.12205,6.05635 36.95652,29.71011 30.90018,52.83216c-6.05635,23.12205 -29.71012,36.95652 -52.83217,30.90017z" fill="url(#color-90)" stroke="none"/><path d="M115.73981,417.38589c-3.71699,-0.97359 -5.94094,-4.77604 -4.96735,-8.493c0.9736,-3.717 4.77606,-5.94095 8.49302,-4.96737c3.71699,0.97359 5.94096,4.77605 4.96736,8.49305c-0.97359,3.717 -4.77604,5.94091 -8.49303,4.96732z" fill="url(#color-91)" stroke="#000000"/><path d="M141.23835,370.33737c-5.49846,-1.44021 -8.7883,-7.06509 -7.34809,-12.56354c1.44021,-5.49845 7.0651,-8.78832 12.56355,-7.34811c5.49846,1.44021 8.78832,7.06512 7.34812,12.56357c-1.44021,5.49846 -7.06511,8.78829 -12.56357,7.34808z" fill="url(#color-92)" stroke="#000000"/><path d="M135.02924,418.79735c-4.24096,-1.11083 -6.77839,-5.44929 -5.66756,-9.69023c1.11083,-4.24096 5.44931,-6.7784 9.69024,-5.66757c4.24096,1.11083 6.7784,5.44929 5.66757,9.69024c-1.11083,4.24096 -5.44931,6.77838 -9.69024,5.66756z" fill="url(#color-93)" stroke="#000000"/><path d="M167.54245,429.34548c-4.24096,-1.11083 -6.77838,-5.44929 -5.66755,-9.69023c1.11083,-4.24095 5.44929,-6.77841 9.69023,-5.66758c4.24096,1.11083 6.7784,5.4493 5.66758,9.69025c-1.11083,4.24095 -5.44931,6.77839 -9.69025,5.66756z" fill="url(#color-94)" stroke="#000000"/><path d="M177.31132,407.5153c-2.0083,-0.52603 -3.20987,-2.58049 -2.68384,-4.58876c0.52603,-2.0083 2.58047,-3.20988 4.58876,-2.68387c2.0083,0.52603 3.20989,2.58049 2.68386,4.58877c-0.52603,2.0083 -2.58049,3.20988 -4.58877,2.68385z" fill="url(#color-95)" stroke="#000000"/><path d="M190.06759,388.21361c-2.35468,-0.61676 -3.76353,-3.0256 -3.14677,-5.38026c0.61676,-2.35468 3.02559,-3.76354 5.38026,-3.14679c2.35468,0.61676 3.76356,3.02558 3.1468,5.38027c-0.61676,2.35468 -3.0256,3.76354 -5.38028,3.14677z" fill="url(#color-96)" stroke="#000000"/><path d="M174.93858,362.51471c-2.35468,-0.61676 -3.76354,-3.0256 -3.14678,-5.38027c0.61677,-2.3547 3.02559,-3.76355 5.38027,-3.14679c2.35468,0.61676 3.76356,3.02558 3.14679,5.38027c-0.61677,2.3547 -3.0256,3.76354 -5.38028,3.14677z" fill="url(#color-97)" stroke="#000000"/><path d="M120.94511,391.2042c-1.62113,-0.42463 -2.59108,-2.08305 -2.16646,-3.70417c0.42463,-1.62113 2.08304,-2.5911 3.70416,-2.16647c1.62113,0.42463 2.59111,2.08302 2.16647,3.70417c-0.42463,1.62113 -2.08304,2.5911 -3.70417,2.16648z" fill="url(#color-98)" stroke="#000000"/><path d="M142.46989,434.38279c-1.62113,-0.42463 -2.59108,-2.08304 -2.16645,-3.70416c0.42463,-1.62113 2.08305,-2.5911 3.70415,-2.16647c1.62113,0.42463 2.5911,2.08305 2.16648,3.70418c-0.42463,1.62113 -2.08303,2.59109 -3.70419,2.16646z" fill="url(#color-99)" stroke="#000000"/><path d="M150.03582,409.93607c-10.26392,-2.68843 -16.40503,-13.18837 -13.71661,-23.45224c2.68842,-10.26393 13.18837,-16.40507 23.45225,-13.71665c10.26393,2.68842 16.40507,13.18837 13.71665,23.45229c-2.68842,10.26393 -13.18836,16.40503 -23.45229,13.7166z" fill="url(#color-100)" stroke="#000000"/><path d="M166.90444,433.73304c-6.63402,-1.73765 -10.60334,-8.52424 -8.86568,-15.15826c1.73765,-6.63402 8.52424,-10.60333 15.15828,-8.86568c6.63402,1.73765 10.60333,8.52424 8.86568,15.15826c-1.73765,6.63402 -8.52424,10.60334 -15.15826,8.86567z" fill="url(#color-101)" stroke="none"/><path d="M133.82958,423.08961c-6.63402,-1.73765 -10.60334,-8.52424 -8.86568,-15.15829c1.73765,-6.63404 8.52424,-10.60334 15.15828,-8.86567c6.63402,1.73765 10.60336,8.52422 8.8657,15.15827c-1.73766,6.63403 -8.52425,10.60336 -15.15829,8.86569z" fill="url(#color-102)" stroke="none"/><path d="M114.00508,423.17738c-6.63402,-1.73765 -10.60333,-8.52423 -8.86567,-15.15827c1.73765,-6.63404 8.52423,-10.60333 15.15827,-8.86567c6.63402,1.73765 10.60335,8.52423 8.8657,15.15827c-1.73766,6.63403 -8.52424,10.60333 -15.15829,8.86568z" fill="url(#color-103)" stroke="none"/><path d="M139.2574,376.32768c-9.59051,-2.51204 -15.32873,-12.32308 -12.81669,-21.91359c2.51204,-9.5905 12.32309,-15.32872 21.91359,-12.81667c9.59051,2.51204 15.32874,12.32308 12.81669,21.91357c-2.51204,9.5905 -12.32308,15.32873 -21.91359,12.81669z" fill="url(#color-104)" stroke="none"/><path d="M173.63672,367.29129c-4.98524,-1.30579 -7.96801,-6.40565 -6.66222,-11.39089c1.30579,-4.98524 6.40566,-7.968 11.39087,-6.66223c4.98524,1.30579 7.96801,6.40564 6.66223,11.39088c-1.30579,4.98524 -6.40566,7.96803 -11.39088,6.66225z" fill="url(#color-105)" stroke="none"/><path d="M188.52899,392.75365c-4.98522,-1.30578 -7.96802,-6.40567 -6.66224,-11.39089c1.30579,-4.98524 6.40565,-7.96802 11.39089,-6.66223c4.98522,1.30578 7.96801,6.40564 6.66222,11.39088c-1.30579,4.98524 -6.40566,7.96804 -11.39089,6.66225z" fill="url(#color-106)" stroke="none"/><path d="M175.75828,412.95039c-4.98522,-1.30578 -7.96802,-6.40567 -6.66223,-11.39089c1.30579,-4.98524 6.40565,-7.96802 11.39089,-6.66223c4.98522,1.30578 7.96802,6.40565 6.66223,11.39089c-1.30578,4.98522 -6.40566,7.96803 -11.39088,6.66225z" fill="url(#color-107)" stroke="none"/><path d="M141.72177,437.47774c-3.22272,-0.84413 -5.15096,-4.14095 -4.30683,-7.36368c0.84413,-3.22272 4.14096,-5.15094 7.36368,-4.30681c3.22272,0.84413 5.15096,4.14094 4.30683,7.36366c-0.84413,3.22272 -4.14096,5.15096 -7.36368,4.30683z" fill="url(#color-108)" stroke="none"/><path d="M120.3198,394.02907c-3.22272,-0.84413 -5.15095,-4.14096 -4.30681,-7.36368c0.84413,-3.22272 4.14095,-5.15095 7.36368,-4.30683c3.22272,0.84413 5.15095,4.14095 4.30682,7.36368c-0.84413,3.22272 -4.14096,5.15096 -7.36368,4.30683z" fill="url(#color-109)" stroke="none"/><path d="M148.29515,416.58176c-13.93426,-3.6498 -22.27139,-17.90446 -18.62161,-31.83866c3.64979,-13.93425 17.90448,-22.27144 31.83868,-18.62166c13.93426,3.6498 22.27145,17.90448 18.62164,31.83872c-3.64979,13.93425 -17.90446,22.27139 -31.83871,18.6216z" fill="url(#color-110)" stroke="#000000"/></g></g></g></svg>