<svg version="1.1" xmlns="http://www.w3.org/2000/svg" xmlns:xlink="http://www.w3.org/1999/xlink" width="85.96734" height="85.27405" viewBox="0,0,85.96734,85.27405"><defs><radialGradient cx="240.00001" cy="180.00002" r="34.33966" gradientUnits="userSpaceOnUse" id="color-1"><stop offset="0" stop-color="#000000"/><stop offset="1" stop-color="#000000" stop-opacity="0"/></radialGradient><linearGradient x1="216.35184" y1="180.00002" x2="263.64816" y2="180.00002" gradientUnits="userSpaceOnUse" id="color-2"><stop offset="0" stop-color="#ffffff"/><stop offset="1" stop-color="#ffb3b3"/></linearGradient><linearGradient x1="214.27732" y1="180.00003" x2="266.08342" y2="180.00003" gradientUnits="userSpaceOnUse" id="color-3"><stop offset="0" stop-color="#ff5454"/><stop offset="1" stop-color="#eb0000"/></linearGradient><linearGradient x1="203.55259" y1="169.90111" x2="211.69843" y2="169.90111" gradientUnits="userSpaceOnUse" id="color-4"><stop offset="0" stop-color="#000000"/><stop offset="1" stop-color="#ff0000"/></linearGradient><linearGradient x1="203.55259" y1="189.47032" x2="211.69843" y2="189.47032" gradientUnits="userSpaceOnUse" id="color-5"><stop offset="0" stop-color="#000000"/><stop offset="1" stop-color="#ff0000"/></linearGradient></defs><g transform="translate(-197.01633,-137.363)"><g data-paper-data="{&quot;isPaintingLayer&quot;:true}" fill-rule="nonzero" stroke-linejoin="miter" stroke-miterlimit="10" stroke-dasharray="" stroke-dashoffset="0" style="mix-blend-mode: normal"><path d="M197.01633,222.63705v-85.27405h85.96734v85.27405z" fill="none" stroke="none" stroke-width="NaN" stroke-linecap="butt"/><path d="M205.66035,180.00002c0,-18.96527 15.37439,-34.33965 34.33965,-34.33965c18.96528,0 34.33965,15.37439 34.33965,34.33965c0,18.96527 -15.37439,34.33966 -34.33965,34.33966c-18.96527,0 -34.33965,-15.37439 -34.33965,-34.33966z" fill="url(#color-1)" stroke="#000000" stroke-width="0" stroke-linecap="butt"/><path d="M208.68275,170.81143l11.68346,4.93464" fill="none" stroke="#ffffff" stroke-width="5" stroke-linecap="round"/><path d="M208.68275,188.56002l11.68346,-4.93465" data-paper-data="{&quot;index&quot;:null}" fill="none" stroke="#ffffff" stroke-width="5" stroke-linecap="round"/><path d="M217.24047,173.60052c3.53435,-12.56974 16.58929,-19.89438 29.15903,-16.36004c12.56974,3.53435 19.89438,16.5893 16.36004,29.15904c-3.53434,12.56974 -16.5893,19.89438 -29.15904,16.36003c-12.56974,-3.53435 -19.89438,-16.58929 -16.36004,-29.15903z" fill="url(#color-2)" stroke="#000000" stroke-width="0" stroke-linecap="butt"/><path d="M214.27732,180.00003c0,-14.30586 11.5972,-25.90305 25.90305,-25.90305c14.30586,0 25.90305,11.59719 25.90305,25.90305c0,14.30586 -11.59719,25.90305 -25.90305,25.90305c-14.30586,0 -25.90305,-11.59719 -25.90305,-25.90305zM261.96717,180.26469c0,-11.95375 -9.69044,-21.64419 -21.64419,-21.64419c-11.95375,0 -21.64419,9.69044 -21.64419,21.64419c0,11.95375 9.69044,21.64419 21.64419,21.64419c11.95375,0 21.64419,-9.69044 21.64419,-21.64419z" fill="url(#color-3)" stroke="#000000" stroke-width="0" stroke-linecap="butt"/><path d="M203.8529,171.43322c-0.84616,-2.08355 0.15696,-4.45855 2.24052,-5.30471c2.08355,-0.84616 4.45855,0.15696 5.3047,2.2405c0.84616,2.08355 -0.15696,4.45855 -2.2405,5.30471c-2.08355,0.84616 -4.45857,-0.15696 -5.30472,-2.2405z" fill="url(#color-4)" stroke="#000000" stroke-width="0" stroke-linecap="butt"/><path d="M209.15762,185.69772c2.08354,0.84616 3.08666,3.22115 2.2405,5.3047c-0.84616,2.08354 -3.22115,3.08667 -5.3047,2.24051c-2.08355,-0.84616 -3.08668,-3.22116 -2.24052,-5.30471c0.84615,-2.08354 3.22116,-3.08666 5.30472,-2.2405z" data-paper-data="{&quot;index&quot;:null}" fill="url(#color-5)" stroke="#000000" stroke-width="0" stroke-linecap="butt"/><path d="M219.00608,180.67724v-1.35445h4.66413c-0.01979,0.32824 -0.02983,0.65912 -0.02983,0.99235c0,0.12103 0.00133,0.24172 0.00396,0.36211z" fill="#000000" stroke="none" stroke-width="0" stroke-linecap="butt"/><path d="M260.99393,180.67724h-4.89122c0.00263,-0.12038 0.00396,-0.24109 0.00396,-0.36211c0,-0.33322 -0.01005,-0.6641 -0.02984,-0.99235h4.9171z" fill="#000000" stroke="none" stroke-width="0" stroke-linecap="butt"/><path d="M239.32278,159.00609h1.35445v5.09544c-0.26627,-0.01298 -0.53422,-0.01955 -0.8037,-0.01955c-0.18431,0 -0.36792,0.00308 -0.55074,0.00917z" fill="#000000" stroke="none" stroke-width="0" stroke-linecap="butt"/><path d="M239.32278,200.99395v-4.45484c0.18283,0.00609 0.36642,0.00917 0.55074,0.00917c0.26948,0 0.53744,-0.00657 0.8037,-0.01955v4.46522z" fill="#000000" stroke="none" stroke-width="0" stroke-linecap="butt"/><path d="M221.42984,170.18409l0.67123,-1.17643l4.20119,2.39709c-0.24779,0.37665 -0.48034,0.76423 -0.69674,1.16187z" fill="#000000" stroke="none" stroke-width="0" stroke-linecap="butt"/><path d="M257.89893,190.99238l-4.09579,-2.33696c0.23188,-0.38644 0.44812,-0.7833 0.64787,-1.18976l4.11916,2.35028z" fill="#000000" stroke="none" stroke-width="0" stroke-linecap="butt"/><path d="M249.81593,161.42986l1.17643,0.67123l-2.53104,4.43595c-0.38222,-0.23873 -0.77509,-0.46201 -1.17773,-0.66895z" fill="#000000" stroke="none" stroke-width="0" stroke-linecap="butt"/><path d="M229.00764,197.89895l2.1996,-3.85506c0.38088,0.24093 0.77246,0.46644 1.17388,0.67567l-2.19706,3.85063z" fill="#000000" stroke="none" stroke-width="0" stroke-linecap="butt"/><path d="M229.09005,162.05074l1.1795,-0.66583l2.4563,4.35133c-0.40646,0.19965 -0.80336,0.41581 -1.18981,0.64759z" fill="#000000" stroke="none" stroke-width="0" stroke-linecap="butt"/><path d="M249.73046,198.61512l-2.23697,-3.96278c0.39957,-0.21281 0.7892,-0.44183 1.16799,-0.68619l2.24847,3.98316z" fill="#000000" stroke="none" stroke-width="0" stroke-linecap="butt"/><path d="M257.94928,169.09007l0.66582,1.1795l-4.37962,2.47227c-0.2115,-0.40025 -0.43924,-0.7906 -0.68236,-1.17017z" fill="#000000" stroke="none" stroke-width="0" stroke-linecap="butt"/><path d="M221.38491,189.73048l3.93313,-2.22023c0.20096,0.40577 0.4184,0.80192 0.65143,1.18761l-3.91873,2.21212z" fill="#000000" stroke="none" stroke-width="0" stroke-linecap="butt"/><path d="M217.89258,180h22.10743" fill="none" stroke="#000000" stroke-width="3" stroke-linecap="round"/><path d="M240.56281,179.73184l10.42154,-10.42154" fill="none" stroke="#000000" stroke-width="3" stroke-linecap="round"/><path d="M236.10853,180.00003c0,-2.24882 1.82303,-4.07184 4.07185,-4.07184c2.24882,0 4.07184,1.82303 4.07184,4.07184c0,2.24882 -1.82303,4.07184 -4.07184,4.07184c-2.24882,0 -4.07185,-1.82304 -4.07185,-4.07184z" fill="#ff0000" stroke="#000000" stroke-width="0" stroke-linecap="butt"/></g></g></svg>