<svg version="1.1" xmlns="http://www.w3.org/2000/svg" xmlns:xlink="http://www.w3.org/1999/xlink" width="68.22892" height="76.77626" viewBox="0,0,68.22892,76.77626"><defs><radialGradient cx="278.09806" cy="179.23678" r="27.2508" gradientUnits="userSpaceOnUse" id="color-1"><stop offset="0" stop-color="#ffffff" stop-opacity="0.63137"/><stop offset="1" stop-color="#ffffff" stop-opacity="0"/></radialGradient><linearGradient x1="280.59654" y1="206.3728" x2="275.59956" y2="152.10073" gradientUnits="userSpaceOnUse" id="color-2"><stop offset="0" stop-color="#ff5454"/><stop offset="1" stop-color="#eb0000"/></linearGradient><radialGradient cx="287.87721" cy="175.55971" r="30.39338" gradientUnits="userSpaceOnUse" id="color-3"><stop offset="0" stop-color="#ff0000"/><stop offset="1" stop-color="#ff0000" stop-opacity="0"/></radialGradient><radialGradient cx="288.5642" cy="175.47675" r="18.26611" gradientUnits="userSpaceOnUse" id="color-4"><stop offset="0" stop-color="#ff0000"/><stop offset="1" stop-color="#ff0000" stop-opacity="0"/></radialGradient><radialGradient cx="298.82499" cy="145.60778" r="6.61219" gradientUnits="userSpaceOnUse" id="color-5"><stop offset="0" stop-color="#ffffff" stop-opacity="0"/><stop offset="1" stop-color="#ffffff"/></radialGradient><radialGradient cx="308.92762" cy="199.87541" r="6.61218" gradientUnits="userSpaceOnUse" id="color-6"><stop offset="0" stop-color="#ffffff" stop-opacity="0"/><stop offset="1" stop-color="#ffffff"/></radialGradient><radialGradient cx="257.45925" cy="181.3993" r="6.61218" gradientUnits="userSpaceOnUse" id="color-7"><stop offset="0" stop-color="#ffffff" stop-opacity="0"/><stop offset="1" stop-color="#ffffff"/></radialGradient><radialGradient cx="273.72815" cy="155.70296" r="16.39979" gradientUnits="userSpaceOnUse" id="color-8"><stop offset="0" stop-color="#000000" stop-opacity="0.49412"/><stop offset="1" stop-color="#000000" stop-opacity="0"/></radialGradient><linearGradient x1="263.01899" y1="153.95335" x2="284.43733" y2="157.45257" gradientUnits="userSpaceOnUse" id="color-9"><stop offset="0" stop-color="#eb0000"/><stop offset="1" stop-color="#ff5454"/></linearGradient><radialGradient cx="283.64504" cy="198.37028" r="16.39979" gradientUnits="userSpaceOnUse" id="color-10"><stop offset="0" stop-color="#000000" stop-opacity="0.49412"/><stop offset="1" stop-color="#000000" stop-opacity="0"/></radialGradient><linearGradient x1="272.93587" y1="196.62068" x2="294.35422" y2="200.11991" gradientUnits="userSpaceOnUse" id="color-11"><stop offset="0" stop-color="#eb0000"/><stop offset="1" stop-color="#ff5454"/></linearGradient></defs><g transform="translate(-250.04994,-137.99382)"><g data-paper-data="{&quot;isPaintingLayer&quot;:true}" fill-rule="nonzero" stroke-linecap="butt" stroke-linejoin="miter" stroke-miterlimit="10" stroke-dasharray="" stroke-dashoffset="0" style="mix-blend-mode: normal"><path d="M275.59956,152.10077c14.98681,-1.37987 28.25464,9.65071 29.63451,24.63753c1.37988,14.98682 -9.65073,28.25465 -24.63753,29.63452c-14.98681,1.37987 -28.25465,-9.65073 -29.63452,-24.63754c-1.37987,-14.98681 9.65073,-28.25464 24.63754,-29.63451z" data-paper-data="{&quot;index&quot;:null}" fill="url(#color-1)" stroke="url(#color-2)" stroke-width="0"/><g data-paper-data="{&quot;index&quot;:null}"><path d="M277.89406,204.26676c-15.85444,-5.51353 -24.23744,-22.83571 -18.7239,-38.6902c5.51353,-15.85444 22.83571,-24.23744 38.69018,-18.7239c15.85444,5.51353 24.23745,22.8357 18.72391,38.69018c-5.51353,15.85444 -22.8357,24.23746 -38.69018,18.72391z" fill="url(#color-3)" stroke="#ff0000" stroke-width="0"/><g><path d="M258.11346,181.03535l40.6955,-35.23645l9.78742,52.79236z" data-paper-data="{&quot;index&quot;:null}" fill="none" stroke="#ff0000" stroke-width="2"/><path d="M268.18384,178.10744c2.94794,-8.47694 22.77026,-23.01806 26.85045,-21.59913c4.08015,1.41892 10.60279,25.12176 7.65487,33.5987c-2.13692,6.1448 -36.28178,-6.89124 -34.50532,-11.99954z" data-paper-data="{&quot;index&quot;:null}" fill="url(#color-4)" stroke="none" stroke-width="1"/><path d="M289.18818,153.18847l2.95615,-8.50057l12.31712,4.2834l-2.95615,8.50057z" fill="#cc0000" stroke="none" stroke-width="1"/><path d="M296.65313,151.8531c-3.44919,-1.1995 -5.27294,-4.968 -4.07347,-8.41718c1.1995,-3.44919 4.96801,-5.27292 8.4172,-4.07343c3.44919,1.1995 5.27293,4.96799 4.07345,8.41717c-1.19949,3.44918 -4.96799,5.27294 -8.41717,4.07345z" data-paper-data="{&quot;index&quot;:null}" fill="url(#color-5)" stroke="#616161" stroke-width="2"/><path d="M302.70755,202.15545l-5.24802,-7.31141l10.59408,-7.60426l5.24802,7.31139z" fill="#cc0000" stroke="none" stroke-width="1"/><path d="M306.75574,206.12071c-3.44917,-1.19948 -5.27293,-4.96799 -4.07345,-8.41717c1.1995,-3.44919 4.96799,-5.27293 8.41717,-4.07345c3.44919,1.1995 5.27293,4.96799 4.07345,8.41717c-1.19949,3.44918 -4.96799,5.27294 -8.41717,4.07345z" data-paper-data="{&quot;index&quot;:null}" fill="url(#color-6)" stroke="#616161" stroke-width="2"/><path d="M269.09322,185.27034l-8.72374,2.2124l-3.20573,-12.64053l8.72374,-2.2124z" fill="#cc0000" stroke="none" stroke-width="1"/><path d="M263.8685,179.77389c0.89769,3.53974 -1.24412,7.13701 -4.78386,8.03473c-3.53974,0.8977 -7.13699,-1.24411 -8.03469,-4.78386c-0.89771,-3.53975 1.24411,-7.13701 4.78385,-8.03474c3.53974,-0.8977 7.13701,1.24412 8.03471,4.78387z" data-paper-data="{&quot;index&quot;:null}" fill="url(#color-7)" stroke="#616161" stroke-width="2"/></g></g><g stroke="#000000" stroke-width="0"><path d="M273.72815,172.10276c-9.05736,0 -16.39979,-7.34244 -16.39979,-16.39979c0,-9.05736 7.34244,-16.39979 16.39979,-16.39979c9.05736,0 16.39979,7.34244 16.39979,16.39979c0,9.05736 -7.34244,16.39979 -16.39979,16.39979z" fill="url(#color-8)"/><path d="M263.01899,153.95335c0.96629,-5.91451 6.54427,-9.92584 12.45878,-8.95955c5.91451,0.96628 9.92584,6.54427 8.95955,12.45878c-0.96629,5.91451 -6.54427,9.92584 -12.45878,8.95956c-5.91451,-0.96628 -9.92584,-6.54428 -8.95955,-12.45878z" fill="url(#color-9)"/></g><g stroke="#000000" stroke-width="0"><path d="M283.64504,214.77008c-9.05736,0 -16.39979,-7.34244 -16.39979,-16.39979c0,-9.05736 7.34244,-16.39979 16.39979,-16.39979c9.05736,0 16.39979,7.34244 16.39979,16.39979c0,9.05736 -7.34244,16.39979 -16.39979,16.39979z" fill="url(#color-10)"/><path d="M272.93587,196.62068c0.96629,-5.9145 6.54427,-9.92585 12.45878,-8.95956c5.91451,0.96628 9.92585,6.54427 8.95956,12.45879c-0.96629,5.9145 -6.54427,9.92584 -12.45879,8.95955c-5.91451,-0.96628 -9.92584,-6.54427 -8.95956,-12.45878z" fill="url(#color-11)"/></g></g></g></svg>