<svg version="1.1" xmlns="http://www.w3.org/2000/svg" xmlns:xlink="http://www.w3.org/1999/xlink" width="67.56235" height="81.93614" viewBox="0,0,67.56235,81.93614"><defs><radialGradient cx="240.00003" cy="180" r="32.79887" gradientUnits="userSpaceOnUse" id="color-1"><stop offset="0" stop-color="#000000"/><stop offset="1" stop-color="#000000" stop-opacity="0"/></radialGradient><linearGradient x1="216.82821" y1="180.18636" x2="263.1718" y2="180.18636" gradientUnits="userSpaceOnUse" id="color-2"><stop offset="0" stop-color="#ff0000"/><stop offset="1" stop-color="#ff7f7f"/></linearGradient></defs><g transform="translate(-206.21883,-139.03193)"><g data-paper-data="{&quot;isPaintingLayer&quot;:true}" fill-rule="nonzero" stroke-linejoin="miter" stroke-miterlimit="10" stroke-dasharray="" stroke-dashoffset="0" style="mix-blend-mode: normal"><path d="M240.00003,212.79888c-18.11432,0 -32.79887,-14.68456 -32.79887,-32.79887c0,-18.11432 14.68456,-32.79887 32.79887,-32.79887c18.11432,0 32.79887,14.68456 32.79887,32.79887c0,18.11432 -14.68456,32.79887 -32.79887,32.79887z" fill="url(#color-1)" stroke="#000000" stroke-width="0" stroke-linecap="butt"/><path d="M244.15469,147.43477c3.41416,4.01554 7.31241,12.52838 4.67605,17.27358c-2.63635,4.7452 -9.62508,8.69922 -16.39238,0.28424c-6.76729,-8.41497 -6.34543,-25.96065 -6.34543,-25.96065c0,0 14.60229,4.334 18.06174,8.40282z" data-paper-data="{&quot;index&quot;:null}" fill="#ff0000" stroke="#000000" stroke-width="0" stroke-linecap="butt"/><path d="M243.63353,153.28814c2.23704,2.91887 4.79127,9.1068 3.06387,12.55604c-1.7274,3.44925 -6.30658,6.3234 -10.74068,0.20661c-4.4341,-6.11679 -4.15768,-18.87061 -4.15768,-18.87061c0,0 9.56778,3.15036 11.83451,6.10795z" data-paper-data="{&quot;index&quot;:null}" fill="#ffffff" stroke="#000000" stroke-width="0" stroke-linecap="butt"/><path d="M226.29154,220.96808c0,0 -0.42187,-17.54568 6.34543,-25.96065c6.76729,-8.41497 13.75602,-4.46096 16.39238,0.28424c2.63635,4.7452 -1.26189,13.25804 -4.67605,17.27358c-3.45946,4.06883 -18.06175,8.40282 -18.06175,8.40282z" fill="#ff0000" stroke="#000000" stroke-width="0" stroke-linecap="butt"/><path d="M231.99761,212.81985c0,0 -0.27642,-12.75383 4.15768,-18.87061c4.4341,-6.11679 9.01328,-3.24265 10.74069,0.20661c1.7274,3.44925 -0.82681,9.63717 -3.06387,12.55604c-2.26672,2.9576 -11.83451,6.10795 -11.83451,6.10795z" fill="#ffffff" stroke="#000000" stroke-width="0" stroke-linecap="butt"/><path d="M240.00001,155.3153c12.79743,0 23.1718,11.13516 23.1718,24.87106c0,13.7359 -10.37437,24.87106 -23.1718,24.87106c-12.79743,0 -23.17179,-11.13516 -23.17179,-24.87106c0,-13.7359 10.37436,-24.87106 23.17179,-24.87106z" fill="url(#color-2)" stroke="#000000" stroke-width="0" stroke-linecap="butt"/><path d="M220.91083,191.8876l13.53693,-4.73734" fill="none" stroke="#d80000" stroke-width="1.5" stroke-linecap="round"/><path d="M218.90144,186.67652l14.48875,-3.03189" fill="none" stroke="#d80000" stroke-width="1.5" stroke-linecap="round"/><path d="M218.17062,181.14086l14.57553,0.08067" fill="none" stroke="#d80000" stroke-width="1.5" stroke-linecap="round"/><path d="M233.81321,174.54892l-13.53693,-4.73734" data-paper-data="{&quot;index&quot;:null}" fill="none" stroke="#d80000" stroke-width="1.5" stroke-linecap="round"/><path d="M233.17866,177.95982l-14.38299,-3.03189" data-paper-data="{&quot;index&quot;:null}" fill="none" stroke="#d80000" stroke-width="1.5" stroke-linecap="round"/><path d="M233.70745,174.45417c0,0 0.90792,-1.24695 0.95948,-2.28625c0.04319,-0.87057 -1.4776,-3.0439 -1.5426,-4.90707c-0.10132,-2.9046 4.39038,-8.15567 4.39038,-8.15567" fill="none" stroke="#d80000" stroke-width="1.5" stroke-linecap="round"/><path d="M238.67804,202.40451c0,0 -5.0205,-5.06158 -4.91918,-7.96617c0.065,-1.86317 1.5858,-4.0365 1.5426,-4.90707c-0.05156,-1.03931 -0.95948,-2.28626 -0.95948,-2.28626" data-paper-data="{&quot;index&quot;:null}" fill="none" stroke="#d80000" stroke-width="1.5" stroke-linecap="round"/><path d="M252.67641,185.8238c0,0 -2.27808,0.01754 -2.64392,-1.04222c-0.2067,-0.59875 -0.72742,-2.1009 -0.71611,-3.31674c0.0087,-0.93617 0.462,-1.88872 0.82187,-2.93654c0.82727,-2.40871 2.43242,-1.51593 2.43242,-1.51593c0,0 -1.79788,3.05964 -1.79788,4.64259c0,1.47255 1.90363,4.16887 1.90363,4.16887z" fill="#d80000" stroke="none" stroke-width="0" stroke-linecap="butt"/><path d="M256.98129,174.9897c0,0 3.74083,3.30975 3.78765,6.1173c0.04683,2.80755 -3.588,5.85215 -3.588,5.85215c0,0 1.21232,-3.79087 1.2344,-5.92754c0.02208,-2.13666 -1.43406,-6.0419 -1.43406,-6.0419z" data-paper-data="{&quot;index&quot;:null}" fill="#000000" stroke="none" stroke-width="0" stroke-linecap="butt"/><path d="M247.92884,187.52924c3.16801,0 5.73618,2.84211 5.73618,6.34804c0,3.50593 -2.56818,6.34804 -5.73618,6.34804c-3.16801,0 -5.73618,-2.84211 -5.73618,-6.34804c0,-3.50593 2.56818,-6.34804 5.73618,-6.34804z" fill="#000000" stroke="#d80000" stroke-width="0" stroke-linecap="butt"/><path d="M247.97942,161.37909c3.19593,0 5.78676,2.84211 5.78676,6.34804c0,3.50593 -2.59081,6.34804 -5.78676,6.34804c-3.19593,0 -5.78676,-2.84211 -5.78676,-6.34804c0,-3.50593 2.59082,-6.34804 5.78676,-6.34804z" fill="#000000" stroke="#d80000" stroke-width="0" stroke-linecap="butt"/><path d="M245.5401,198.78353c-0.89391,0 -1.61855,-0.64921 -1.61855,-1.45004c0,-0.80084 0.72465,-1.45005 1.61855,-1.45005c0.89391,0 1.61855,0.64921 1.61855,1.45005c0,0.80084 -0.72464,1.45004 -1.61855,1.45004z" fill="#ffffff" stroke="none" stroke-width="0.5" stroke-linecap="butt"/><path d="M247.49432,195.6301c-0.32123,0 -0.58166,-0.23331 -0.58166,-0.52111c0,-0.2878 0.26042,-0.52111 0.58166,-0.52111c0.32123,0 0.58166,0.23331 0.58166,0.52111c0,0.2878 -0.26043,0.52111 -0.58166,0.52111z" fill="#ffffff" stroke="none" stroke-width="0.5" stroke-linecap="butt"/><path d="M245.84358,172.3615c-0.89389,0 -1.61855,-0.64921 -1.61855,-1.45003c0,-0.80082 0.72465,-1.45004 1.61855,-1.45004c0.89389,0 1.61855,0.64922 1.61855,1.45004c0,0.80082 -0.72467,1.45003 -1.61855,1.45003z" data-paper-data="{&quot;index&quot;:null}" fill="#ffffff" stroke="none" stroke-width="0.5" stroke-linecap="butt"/><path d="M247.59547,169.2987c-0.32123,0 -0.58166,-0.23331 -0.58166,-0.52111c0,-0.2878 0.26042,-0.52111 0.58166,-0.52111c0.32123,0 0.58166,0.23331 0.58166,0.52111c0,0.2878 -0.26042,0.52111 -0.58166,0.52111z" data-paper-data="{&quot;index&quot;:null}" fill="#ffffff" stroke="none" stroke-width="0.5" stroke-linecap="butt"/><path d="M206.21883,213.50875v-67.01748h67.56235v67.01748z" fill="none" stroke="none" stroke-width="NaN" stroke-linecap="butt"/></g></g></svg>