<svg version="1.1" xmlns="http://www.w3.org/2000/svg" xmlns:xlink="http://www.w3.org/1999/xlink" width="641.78752" height="350.64555" viewBox="0,0,641.78752,350.64555"><defs><radialGradient cx="243.62558" cy="93.14669" r="114.52349" gradientUnits="userSpaceOnUse" id="color-1"><stop offset="0" stop-color="#ffffff"/><stop offset="1" stop-color="#ffffff" stop-opacity="0"/></radialGradient><linearGradient x1="246.15283" y1="30.27017" x2="249.41004" y2="53.11401" gradientTransform="translate(-385.84951,-164.03966) rotate(8.11495) scale(1.99999,1.99999)" gradientUnits="userSpaceOnUse" id="color-2"><stop offset="0" stop-color="#000000"/><stop offset="1" stop-color="#000000" stop-opacity="0"/></linearGradient><linearGradient x1="253.5931" y1="15.61296" x2="256.1532" y2="33.56767" gradientTransform="translate(-540.2425,-165.03311) rotate(8.11505) scale(2.54459,2.54459)" gradientUnits="userSpaceOnUse" id="color-3"><stop offset="0" stop-color="#000000"/><stop offset="1" stop-color="#000000" stop-opacity="0"/></linearGradient></defs><g transform="translate(65.77015,21.3784)"><g data-paper-data="{&quot;isPaintingLayer&quot;:true}" fill-rule="nonzero" stroke-linejoin="miter" stroke-miterlimit="10" stroke-dasharray="" stroke-dashoffset="0" style="mix-blend-mode: normal"><g stroke="none" stroke-width="0" stroke-linecap="butt"><path d="M184.85613,184.2298l38.27759,-0.88688c0,0 -96.06559,18.66792 -99.36546,18.67374c-2.5544,0.00451 -70.67158,20.50285 -70.67158,20.50285c0,0 14.06408,-5.81348 10.42361,-5.14152c-20.42652,3.7704 -0.84875,-2.59689 -0.85948,-8.68705c-0.00568,-3.21624 3.08013,-9.36153 10.03053,-12.5627c3.44536,-1.58684 10.21188,-0.25311 13.33957,-1.81883c6.43367,-3.22068 10.49004,-5.91444 19.52647,-7.41419c4.35581,-0.72292 8.63829,-4.31002 15.87117,-5.17436c2.52304,-0.3015 5.96464,-4.74387 8.54912,-5.12565c7.73836,-1.14314 14.60556,1.64723 20.56825,1.51653c20.91725,-0.4585 34.31025,6.11805 34.31025,6.11805z" fill="#c6ecf6"/><path d="M216.2282,184.55391c0.09045,2.3695 -151.94717,35.37105 -155.84988,35.52002c-1.5466,0.05904 -2.87704,-5.73628 12.64598,-10.48356c4.36996,-1.33643 9.57217,0.34833 14.96098,-0.96341c23.77264,-5.78669 53.311,-13.97905 53.26649,-15.14521c-0.09045,-2.3695 -34.06243,4.5859 -30.15971,4.43692c1.10464,-0.04217 25.9336,-9.75681 33.40979,-14.13235c6.67685,-3.90772 -4.65602,-2.8863 7.28336,2.40907c18.12303,8.03795 64.40102,-2.74136 64.44301,-1.64149z" fill="#95dcee"/><path d="M42.15203,180.37012c-0.31955,-8.37132 50.83858,-12.56643 29.91025,-11.76755c-20.92833,0.79888 -11.16134,-14.02937 -10.84178,-5.65804c0.2637,6.90809 -0.20247,9.72718 15.66654,10.95065c3.3613,0.25915 -23.40903,1.48867 -19.75094,1.34903c20.92832,-0.79888 -14.66451,13.49721 -14.98406,5.12589z" fill="#66c5e6"/><path d="M217.62887,200.91893c2.25845,7.61875 -34.26006,6.75576 -65.44361,22.79341c-25.16862,12.94417 -160.63931,52.55751 -186.22825,60.33445c-2.98697,0.90779 -5.82062,1.7535 -8.5092,2.54063c-6.26328,-24.04891 -12.65363,-48.06611 -18.4672,-72.2267c-1.30623,-5.42852 -2.54457,-10.87329 -3.74407,-16.32732c0.53398,-0.02493 1.07315,-0.10342 1.61609,-0.24491c8.41631,-2.19319 20.31499,-10.55131 28.31717,-11.07247c10.34914,-0.674 29.76518,-11.93883 41.82419,-12.00334c6.37441,-0.03411 14.44748,4.75721 22.72227,4.30378c10.27614,-0.5631 20.82404,-6.32199 28.35327,-5.45755c6.50652,0.74701 22.22948,-6.72068 32.80128,-7.9882c13.10695,-1.57149 16.94315,4.835 31.15917,6.0258c14.23928,1.19274 36.65991,-7.09067 49.7228,-5.1926c29.35617,4.26554 44.07323,28.43313 45.8761,34.51501z" fill="#e3f4fa"/><path d="M147.01892,216.61114c0.01061,0.16763 1.44443,0.0252 3.89882,-0.33539c9.40286,4.07685 16.95545,8.37292 16.95545,8.37292c0,0 -134.53533,29.73294 -213.93268,48.50735c-0.26246,-1.0038 -0.52489,-2.00761 -0.78726,-3.01143c35.11817,-11.39113 70.89222,-23.79657 56.98599,-22.66119c-22.84738,1.86539 -44.28339,2.17709 -62.57261,1.1762c-2.94168,-11.41317 -5.82871,-22.83991 -8.58599,-34.29889c-0.72673,-3.02021 -1.43246,-6.04545 -2.12217,-9.07451c19.49323,-4.81247 43.65544,-8.68652 69.92273,-10.83113c3.89653,-0.31812 76.44555,-5.08733 76.44555,-5.08733c0,0 -42.06092,-8.98596 -28.30653,-8.87937c12.43271,0.09634 25.71391,-3.41074 38.41886,-0.67165c17.02501,3.67046 32.70986,13.73489 41.01175,12.60746c0.12778,-0.01736 0.24995,-0.0357 0.36662,-0.05502c-27.45311,6.16731 -54.51396,17.07316 -67.20154,20.99548c12.44946,-1.88257 38.60751,-4.84431 58.31583,-4.26141c4.85482,0.14359 10.78641,1.71862 16.64598,3.81545c2.3915,1.96875 4.51696,3.3091 4.54122,3.69245z" fill="#b3d0d7"/><path d="M217.15593,205.81506c-3.75563,-0.089 -147.83577,40.77356 -160.85964,43.0003c-14.51657,2.48197 101.77098,-33.59001 94.62147,-32.53959c-2.70545,-1.17302 -5.5641,-2.32789 -8.44006,-3.35704c-3.96954,-3.26782 -8.67202,-8.26692 -5.71517,-13.49447c2.0582,-3.63879 10.07293,-7.35599 18.8492,-10.65966c3.20684,-0.35728 6.3679,-0.60332 9.45911,-0.7179c4.72885,-0.17529 7.33301,-2.89827 9.45878,-5.83679c5.39822,-1.85864 8.90628,-3.24723 8.11396,-3.93758c-0.83837,-0.73045 -2.12811,-1.30715 -3.78381,-1.75452c1.54458,-1.42994 3.4035,-2.19935 6.09982,-1.56726c13.81442,3.23847 28.38799,26.43666 32.19636,30.86452z" fill="#b3d0d7"/><path d="M107.11291,178.00303c11.31071,1.08025 56.68043,-5.55636 71.74685,-1.48533c-1.58605,1.46833 -2.84066,3.63313 -4.33015,5.69211c-5.25571,1.80957 -12.30312,4.06467 -18.91789,6.55469c-6.53458,0.72804 -13.25917,1.91796 -19.96968,3.39873c8.71869,-2.61955 -38.86098,-15.14696 -28.52913,-14.16018z" fill="#b3d0d7"/><path d="M137.34788,198.92759c0.3141,-0.03304 0.62819,-0.06547 0.94221,-0.09729c-0.26519,0.04707 -0.5783,0.07982 -0.94221,0.09729z" fill="#b3d0d7"/><path d="M31.73195,196.21284c48.13441,-0.43723 109.001,-2.43126 124.62863,0.17431c15.07667,2.51371 -26.45573,4.32917 -54.41186,8.40741c-18.81426,2.74462 -28.54836,8.77425 -21.79121,8.21025c23.07321,-1.92585 -16.12681,16.1943 -14.08578,15.16784c2.61489,-1.31508 -12.70457,-6.83388 -32.27454,-3.89153c-4.32587,-1.10133 -8.86424,-2.20001 -13.55588,-3.27071c-1.45263,-5.10189 -2.46784,-11.91458 -6.21992,-11.33117c-9.71659,1.51079 -19.03142,3.11655 -27.7808,4.70821c-16.59279,-2.64133 -33.37042,-4.36605 -48.27257,-4.29408c-1.29854,-5.54703 -2.53433,-11.10908 -3.73817,-16.67873c6.82166,1.00167 51.03087,3.22035 97.5021,2.79822z" fill="#88acb5"/><path d="M75.0137,239.14083c-0.8993,0.07343 -119.34621,3.06416 -130.06459,-0.70517c-1.30318,-5.12895 -2.59082,-10.26175 -3.85612,-15.4001c11.75849,-2.20366 27.27297,-5.39644 45.14759,-8.64813c11.66346,1.85665 44.53889,10.34739 47.5566,9.89367c0,0 45.10962,14.54186 41.21651,14.85973z" fill="#88acb5"/><path d="M59.63443,255.45587c0,0 -17.72676,1.14254 6.91637,-8.32394c12.74515,-4.89596 -117.75874,36.58501 -83.85722,25.17057c10.55126,-3.55255 77.00837,-37.42038 136.40156,-57.92731c11.71814,-4.04598 -52.84317,18.07399 -40.84466,17.44201c6.90526,-0.3637 31.82676,-2.85411 59.82775,-10.35828c18.49245,-4.95592 56.07319,-15.9211 58.7662,-17.20512c35.86645,-17.10118 18.11195,-2.32096 18.11195,-2.32096c0,0 -96.4235,36.83702 -155.32196,53.52305z" fill="#88acb5"/><path d="M54.86853,252.97913c0.19601,-0.0315 0.39228,-0.06309 0.58882,-0.09478l-0.58283,0.14917c0.00096,-0.01805 -0.00105,-0.03618 -0.00598,-0.0544z" fill="#88acb5"/><path d="M158.27911,185.89326c-0.34442,-5.43897 -28.14084,7.62783 -48.67519,9.30437c-20.53435,1.67654 1.23866,19.5601 1.58309,24.99907c0.07455,1.1773 -32.69873,-24.87227 -52.37229,-21.25897c-29.9008,5.49166 -70.3261,6.22777 -42.2218,4.56308c4.54011,-0.26892 25.03411,-8.63818 44.37584,-6.34604c15.98952,1.89489 28.5075,4.00956 35.80041,4.25224c8.2155,0.27337 17.11767,-1.99028 24.95282,-2.62999c3.77757,-0.30841 -25.08033,-4.19401 -21.6629,-4.75185c15.1592,-2.47453 58.5011,-3.69351 58.22003,-8.13191z" fill="#f3f3f3"/></g><g stroke="none" stroke-width="0" stroke-linecap="butt"><path d="M575.73977,222.86015c3.31684,33.18656 -22.27268,32.84352 -120.97904,47.90014c-6.56973,1.00215 117.91063,-19.77905 97.43094,-8.72332c-5.23807,2.82771 -146.30614,33.96093 -146.30614,33.96093c0,0 137.47214,-22.9 114.54272,-17.15623c-14.53349,3.64061 -145.53119,31.47316 -146.60496,31.58047c-30.80993,3.0793 97.77976,-5.97007 97.77976,-5.97007c0,0 -305.32399,30.92737 -322.28894,23.4655c-2.05308,-0.90303 286.61915,-29.21687 280.88292,-29.04852c-55.72679,1.63549 -127.8628,16.83688 -128.07084,14.75537c-0.41202,-4.12236 -177.8231,15.06405 -176.10051,8.06791c0.23071,-0.93698 -42.27499,-1.9219 -42.75822,-2.64865c-2.56869,-3.86308 26.97267,-4.89834 33.8798,-10.58212c3.8309,-3.1524 -3.41459,-8.20765 1.39035,-11.57368c5.05799,-3.54331 8.2991,-8.61726 14.31584,-12.4535c6.61352,-4.21674 16.13081,-7.20841 24.59244,-11.34344c4.37805,-2.13946 7.80526,-6.37534 14.89145,-8.04072c4.99098,-1.17296 13.46779,0.28832 18.0936,-1.26424c4.65912,-1.56374 6.15389,-5.37425 10.83704,-7.97177c4.34612,-2.41059 11.87745,-3.61029 16.28037,-5.1442c6.12839,-2.13504 14.49633,-1.22439 20.29166,-2.95864c16.31965,-4.88364 16.53698,-17.9844 24.40807,-22.58195c7.34646,-4.29112 20.58365,-4.18754 25.34628,-7.78878c18.3825,-13.89982 13.38746,-21.52427 27.06996,-25.7019c8.3045,-2.53558 31.18507,-3.1364 48.22837,-5.01146c1.22552,-0.13483 13.46592,-18.27001 30.23232,-22.4537c13.25092,-3.30647 31.80031,7.13545 32.77718,7.03783c5.95647,-0.59531 14.89452,-10.62368 24.07072,-13.02815c9.67769,-2.53588 19.58777,2.55722 25.25456,2.34968c13.25371,-0.48539 27.33107,-10.95967 37.23326,-10.07555c59.48816,5.31141 60.45739,44.1709 63.27903,72.40276z" fill="#f3f3f3"/><path d="M165.04802,313.64097c-0.21268,-5.5716 92.36451,-24.26854 92.36451,-24.26854c0,0 -4.48717,-4.88514 -0.01876,-11.43404c4.20957,-6.16954 17.21332,-14.01872 22.63225,-14.22557c16.74267,-0.63911 30.83337,12.4154 31.47248,29.15806c0.03767,0.98677 5.21214,-11.83352 21.90235,-16.97716c12.03434,-3.70877 36.07188,1.44533 40.04657,-4.38696c1.725,-2.5312 -63.0764,0.27592 -72.6433,-3.42828c-6.70996,-2.59801 -16.6972,-3.37254 -14.44818,-7.96121c2.60687,-5.31887 43.35448,-10.55802 49.82683,-11.5091c9.73142,-1.42996 -60.23997,-7.38092 -46.46863,-7.97998c1.58383,-0.06889 -24.45147,-4.77954 -18.70784,-7.68149c5.39643,-2.72653 42.58376,-3.55879 44.18084,-6.43459c0.54298,-0.97771 -4.51565,1.57361 -7.46596,1.61878c-8.45917,0.12954 -23.1529,0.03155 -22.73495,-3.88523c0.30854,-2.89148 33.90502,-18.31913 34.65096,-20.36094c2.81732,-7.71167 43.79354,-23.58923 75.65459,-27.7082c9.16179,-1.18443 18.20931,4.93997 24.59119,4.703c1.2631,-0.0469 6.84464,-13.87623 23.93356,-17.11336c16.05199,-3.0407 34.44204,2.07189 53.16245,1.36154c23.20602,-0.88056 45.42698,-7.16323 46.67855,-7.08518c16.70097,1.04161 25.07802,25.10636 -6.92207,43.35089c-20.62104,11.75688 -83.66431,19.54193 -86.47677,22.37834c-5.36071,5.40638 -67.41427,7.64288 -63.14533,11.09344c2.18988,1.77008 14.82821,0.91778 28.73829,-0.62513c17.69505,-1.96274 37.44815,-5.04307 40.36846,-5.26432c5.54623,-0.4202 6.53798,-5.53031 13.41145,-10.35364c6.32393,-4.4377 18.67315,-5.63666 23.37404,-4.96075c8.95742,1.28796 41.99828,-17.01557 49.12607,-13.97827c31.32692,13.34905 20.30614,59.98603 19.94963,60.77108c-4.59784,10.12487 -267.87252,63.43612 -279.74086,63.88916c-8.37132,0.31955 -161.22532,-2.73772 -161.22532,-2.73772l144.94497,-15.32922c0,0 -100.84187,11.82267 -101.01205,7.36454z" fill="#b3d0d7"/><path d="M436.63535,190.94396c-0.63911,-16.74267 12.4154,-30.83337 29.15806,-31.47248c16.74267,-0.63911 30.83337,12.4154 31.47248,29.15806c0.63911,16.74267 -12.4154,30.83337 -29.15806,31.47248c-16.74267,0.63911 -30.83337,-12.4154 -31.47248,-29.15806z" fill="#b3d0d7"/><path d="M472.59725,218.41265c0,0 -19.4648,0.00641 -24.7046,-0.22947c-1.46567,-0.06598 -8.12562,11.61449 -16.99449,13.68077c-3.86791,0.90116 4.36807,16.64001 4.36807,16.64001c0,0 -7.68237,-7.04464 -12.31995,-10.56349c-2.5331,-1.92203 -15.19705,7.78935 -18.88665,7.34207c-6.86092,-0.83178 -5.11626,-10.36941 -7.50769,-8.99408c-17.0352,9.79699 -19.63276,20.68983 -19.63276,20.68983c0,0 6.69691,-12.83171 22.9593,-22.92451c8.40612,-5.21701 27.15659,-0.95923 35.88558,-4.91181c8.64703,-3.91547 7.31174,-16.05246 7.45813,-18.87293c0.52209,-10.05901 -7.5661,-22.32366 -5.18679,-22.41448c2.6467,-0.10103 1.46719,12.58854 8.36354,24.28861c6.19125,10.50384 26.19834,6.2695 26.19834,6.2695z" fill="#88acb5"/><path d="M247.65999,235.82272c-0.48595,-12.73028 9.44005,-23.44415 22.17033,-23.93009c12.73028,-0.48595 9.95248,9.28078 5.90525,26.90407c-2.85144,12.41633 8.58479,18.71042 -4.14549,19.19637c-12.73028,0.48595 -23.44415,-9.44005 -23.93009,-22.17033z" fill="#f3f3f3"/><path d="M279.14828,213.22189c-0.41855,-10.96477 8.13085,-20.19277 19.09562,-20.61133c10.96477,-0.41855 20.19277,8.13085 20.61133,19.09562c0.41855,10.96477 -5.28759,4.7894 -11.94129,-3.93583c-3.49754,-4.58645 -9.20428,4.13234 -11.12117,4.81365c-3.84116,1.36525 -11.80165,13.10085 -14.63985,15.05355c-3.62458,2.49372 -1.8121,-9.37161 -2.00464,-14.41565z" fill="#f3f3f3"/><path d="M341.74226,193.30906c-0.38308,-10.03556 7.44179,-18.48152 17.47735,-18.86461c10.03556,-0.38308 18.48152,7.44179 18.86461,17.47735c0.38308,10.03556 -7.44179,18.48152 -17.47735,18.86461c-10.03556,0.38308 -18.48152,-7.44179 -18.86461,-17.47735z" fill="#f3f3f3"/><path d="M248.29526,237.36412c0.25007,6.55099 40.71871,0.21487 39.18551,0.27339c-1.5332,0.05853 -39.59812,15.40162 -39.84819,8.85063c-0.1374,-3.59959 1.53143,-15.71571 7.11211,-21.9577c4.57573,-5.11796 13.16146,-4.84866 13.85222,-4.87503c1.5332,-0.05853 -20.55171,11.15772 -20.30164,17.70871z" fill="#b3d0d7"/><path d="M343.42064,217.42065c0,0 -16.4779,4.17028 -24.30845,7.29957c-8.01465,3.20285 -23.24002,11.70196 -23.24002,11.70196c0,0 18.18382,-15.35318 29.47383,-15.78414c11.29,-0.43097 18.07464,-3.21737 18.07464,-3.21737z" fill="#88acb5"/><path d="M345.32473,296.02245c-26.78825,1.02257 -193.37948,24.12647 -194.16239,3.61672c-0.22408,-5.87014 1.09889,-18.99327 21.2059,-31.09375c11.82536,-7.11655 30.26239,1.93267 46.17985,-5.39665c2.85442,-1.31434 18.75367,-8.99262 40.25333,-10.94284c20.34677,-1.84563 46.36637,2.04761 48.48948,0.37993c5.6985,-4.47609 -63.14397,-7.92974 -55.77346,-11.83744c7.75807,-4.11317 14.37763,-17.60447 21.47784,-22.54615c5.67358,-3.94877 9.20616,-9.57573 24.0297,-11.59494c5.86524,-0.79894 21.41331,-1.1712 27.54498,-0.4415c4.13689,0.49231 25.66948,-16.52034 55.44626,-27.47717c4.56385,-1.67935 12.22168,6.03797 18.16799,4.94368c8.39587,-1.54506 15.23066,-11.67804 21.19109,-12.70488c21.26548,-3.66359 35.54056,12.18227 41.30396,14.76361c5.06233,2.26733 -94.20092,27.03582 -89.07607,27.64827c4.67982,0.55926 -15.92697,2.97734 8.49756,-0.96305c17.26515,-2.78537 48.40844,-9.69066 25.0526,-14.39123c-35.33093,-7.11065 -109.42092,-6.32761 -106.32018,-6.44597c2.54323,-0.09708 34.79802,6.39607 63.1512,12.68007c2.54302,0.56362 -23.97604,-0.42941 -21.3811,-0.01614c2.474,0.39402 11.8776,6.85664 22.15544,8.79049c4.79921,0.903 11.37771,-1.95327 14.64199,-1.83655c3.09959,0.11085 -12.74987,-6.91576 -9.46996,-7.99762c5.71926,-1.88645 15.09369,3.10012 16.90966,3.32234c9.4577,1.15727 87.16764,-12.09103 94.93237,-10.39728c6.53589,1.4257 31.77854,10.54755 12.5723,1.18182c-6.72027,-3.27707 17.59858,-26.8349 10.7255,-29.63911c-13.11554,-5.35113 -57.14334,11.34419 -66.95448,13.07402c-1.75891,0.31012 20.69274,-0.43571 37.72133,6.94287c41.37121,17.92639 2.46883,28.56873 2.8001,28.28392c16.43423,-14.13056 -65.62947,-16.90483 -90.66874,-20.98506c-27.3456,-4.45604 -58.19785,2.25202 -46.08717,-1.90561c33.28672,-11.42742 130.23068,-21.69228 121.83598,-22.47654c-10.96297,-1.02419 -91.8219,19.85327 -137.09296,30.28329c-4.95,1.14044 -10.9066,-0.45424 -14.82932,0.46417c-2.84776,0.66673 -8.74097,0.21236 -11.70269,0.09368c-5.37354,-0.21531 -9.76448,6.20279 -10.51793,6.32805c-19.838,3.29837 -6.67825,16.15484 -17.51753,17.56146c-27.99784,3.6333 -52.38154,33.6412 -70.83276,45.92907c-23.1201,15.39719 -7.88526,32.20974 -5.83725,38.56463c1.61888,5.02329 178.72591,-14.78519 151.93765,-13.76262z" fill="#88acb5"/><path d="M443.8406,206.3613c0.1551,4.06317 -27.66316,1.05597 -46.30596,1.76761c-0.75851,0.02895 48.23708,18.25583 39.06531,20.46706c-5.81126,1.40105 -23.86612,-11.86371 -42.69287,-14.96057c-14.84919,-2.44258 -31.02874,4.91214 -36.20291,6.85906c-20.56571,7.73839 -29.10701,19.25294 -29.10701,19.25294c0,0 37.55658,-23.34634 55.9408,-31.94644c12.51982,-5.85675 -8.15657,2.50758 -8.20887,1.13741c-0.12057,-3.15855 9.0118,-3.51396 21.80489,-4.81345c3.66399,-0.37217 7.55243,-2.80814 11.70304,-2.96658c18.64278,-0.71164 33.84844,1.13978 34.00354,5.20295z" fill="#f3f3f3"/><path d="M395.49424,245.41067c0.0283,0.74148 -13.1968,2.69735 -26.17171,-0.0897c-7.93697,-1.70487 -15.91467,-8.70528 -20.31435,-8.53733c-11.59199,0.44249 -21.2937,4.17661 -21.33932,2.98156c-0.04562,-1.19505 9.16588,-6.41743 20.75788,-6.85992c1.22527,-0.04677 9.98216,6.65435 13.50693,15.3128c3.3989,8.34925 27.19363,9.41092 29.78834,11.57757c4.38309,3.65998 -22.52163,-2.09807 -22.47999,-12.49301c0.01069,-2.66981 2.57836,-3.91764 2.43845,-5.78926c-0.35553,-4.75559 3.71045,-8.09509 7.9588,-7.0983c7.01066,1.64491 15.83861,10.56702 15.85497,10.99561z" fill="#88acb5"/><path d="M286.93838,267.39851c-0.1503,1.11537 6.33907,0.81161 10.57993,3.64857c2.27504,1.5219 -9.29128,8.33406 -13.68411,16.61723c-3.57581,6.74258 -7.88171,11.31159 -7.88171,11.31159c0,0 3.63567,-7.73434 8.48135,-16.00185c5.23859,-8.9379 19.68212,-14.47234 21.34792,-17.06969c0.39226,-0.61164 5.83802,-3.09677 11.41913,-2.12052c9.50983,1.66348 21.11403,7.53901 21.11403,7.53901c0,0 -23.47449,-9.38724 -23.5371,-9.70565c-0.39436,-2.00531 -6.98104,-1.46849 -10.51444,2.08774c-2.55229,2.56879 -2.32358,8.27926 -2.66956,8.29246c-0.77033,0.02941 -14.2381,-7.69587 -14.65544,-4.59886z" fill="#6cc3d7"/><path d="M571.93033,259.68705c0,0 -210.78892,58.59478 -237.82916,59.62698c-27.04024,1.03219 -154.80389,9.95312 -154.80389,9.95312c0,0 5.90808,-3.94784 57.72283,-10.93812c7.94594,-1.07198 42.66297,-0.32972 51.36438,-1.86633c21.67748,-3.82811 50.4461,-6.05021 74.12322,-11.60632c59.88383,-14.05243 115.06265,-34.12749 145.82845,-42.71695c48.8195,-13.62983 -39.16581,-1.5627 -28.89055,-1.95493c0.91106,-0.03478 -10.16332,0.39302 -29.18394,8.25013c-18.25404,7.54044 -43.96792,22.40789 -66.83542,27.64833c-36.4081,8.34348 -78.22757,7.64732 -80.93724,9.95215c-5.60936,4.77129 150.03605,-20.83187 127.12378,-15.12385c-23.09849,5.75441 -120.25241,14.32251 -114.66201,14.83124c34.78357,3.16533 256.97956,-46.05544 256.97956,-46.05544z" fill="#6cc3d7"/></g><g stroke="none" stroke-width="0" stroke-linecap="butt"><path d="M536.18145,86.07458c0.00315,1.78844 -38.28142,0.31654 -82.02998,8.71878c-19.68177,3.78003 96.91038,-12.6542 75.52957,-6.0933c-15.79704,4.84747 -168.82587,32.79441 -187.03618,36.08408c-7.70003,1.391 -15.40462,6.34947 -23.08025,7.68194c-12.10703,2.10172 190.99336,-30.19056 179.24272,-28.52572c-24.41384,3.45898 -146.61229,24.37945 -230.75566,37.06207c-7.58581,1.14338 -15.36983,2.16819 -22.24143,3.05555c-29.24022,3.7759 -22.06845,-8.84117 -28.76602,-7.83101c-13.42488,2.0248 45.12067,-7.76652 33.09986,-5.79981c-52.8124,8.64061 37.68184,-4.75497 17.48792,-1.42093c-2.41778,0.39917 -48.35216,7.63272 -23.79172,-5.02492c2.20717,-1.1375 12.34318,-1.38399 14.41369,-2.51647c0.5073,-0.27747 20.11075,-1.83786 18.70123,-1.6782c-8.11322,0.91895 0.25313,-2.35182 -22.18054,1.1422c-10.83125,1.68695 -17.8982,0.37054 -17.8982,0.37054c0,0 -2.04546,-2.13414 -2.51244,-5.96263c-0.24004,-1.96791 0.11395,-5.64728 0.64335,-8.28881c0.55821,-2.78527 1.33429,-4.55882 2.72482,-7.62279c1.88743,-4.15877 10.30354,-7.24986 13.21146,-11.84881c0.41331,-0.65367 5.04095,-3.72262 9.66288,-3.04419c5.10904,0.74995 10.2372,5.29256 10.2372,5.29256c0,0 -3.32148,-4.58495 -7.72344,-8.20317c-4.23205,-3.47855 -9.57376,-5.96362 -8.49513,-7.50746c1.31082,-1.8762 6.07145,-4.37156 8.54466,-5.94693c1.40088,-0.89233 28.0288,-3.86264 28.0288,-3.86264c0,0 -13.95808,-1.72656 -12.42423,-2.76799c6.17754,-4.19426 6.5698,-7.56012 16.0446,-9.50791c2.28953,-0.47067 4.51568,-3.01227 6.61082,-3.30644c4.34357,-0.60986 10.78731,-3.40836 15.23044,-2.98788c6.90788,0.65373 5.64113,-13.939 11.82587,-12.16992c5.49603,1.57209 14.37177,-11.40832 19.79693,-12.16608c4.41638,-0.61686 6.25289,-11.46848 9.87781,-12.85c6.36473,-2.4257 12.56296,0.4283 15.25729,0.42355c1.86156,-0.00329 10.43721,-2.68568 12.99063,-3.77463c2.63322,-1.12299 1.26719,-2.2774 7.3202,-5.21373c4.32225,-2.09674 13.10271,1.68042 19.86996,0.84603c1.99571,-0.24606 8.72014,-9.571 10.67623,-10.23741c3.2159,-1.09559 12.83987,9.89365 15.54213,9.08918c7.97623,-2.37453 19.77906,-4.72489 27.99894,-6.31598c14.80911,-2.8665 16.42726,15.66938 24.84205,13.91364c5.14262,-1.073 10.8868,3.35937 12.88815,3.58307c67.27173,7.51938 30.62092,67.21979 30.63502,75.21252z" fill="#f2f2f2"/><path d="M406.51354,102.09916c-0.19173,-5.0228 -8.83004,-8.77077 -19.29421,-8.37133c-0.51239,0.01956 -16.40954,2.71848 2.90219,-2.35275c1.52927,-0.40159 -3.57007,23.46743 -36.47136,28.7573c-58.54125,9.41227 -128.09629,-0.69179 -116.36101,-1.31343c7.96008,-0.42166 32.26218,-9.63559 58.92921,-19.98337c12.49636,-4.84906 7.64684,-23.19288 17.85025,-31.5278c6.75835,-5.52072 28.81455,-1.87525 35.60267,-4.19292c10.11415,-3.45326 24.97105,7.22111 30.05689,6.59228c4.41757,-0.54621 14.01454,2.56156 20.75617,0.17414c4.84934,-1.71729 -52.60458,-15.85288 -48.7546,-18.50836c1.62234,-1.11899 17.36974,-10.39831 28.50299,-19.96196c2.29287,-1.9696 -22.4851,-11.79257 -18.99111,-13.22606c4.42939,-1.81726 36.56947,-7.73473 45.26932,-4.93396c9.20178,2.96235 11.42859,-0.47891 17.92663,-0.56385c14.3364,-0.1874 9.87557,4.5784 10.73058,4.62991c9.69099,0.58375 30.95664,-9.12821 41.68404,-7.74149c9.99652,1.29226 9.69773,13.62331 12.6625,15.79236c0.99828,0.73035 5.06041,14.04936 -1.12251,25.66714c-6.8295,12.83269 -24.00564,24.04152 -23.52681,24.00736c35.0107,-2.49774 51.87424,9.46896 48.36575,10.51755c-28.68477,8.57312 -230.18287,42.95684 -230.02655,47.05182c0.19173,5.02278 94.24493,-20.29526 104.7091,-20.6947c3.63042,-0.13858 100.05521,-28.59771 102.90473,-29.55761c5.36381,-1.80687 -84.17963,23.01998 -84.30484,19.73978z" fill="#b3d0d7"/><path d="M431.46449,87.32873c0.49801,13.04622 -93.33024,-11.6019 -106.87823,-11.08474c-3.31681,0.12661 8.64353,20.72483 2.73959,22.32561c-2.17672,0.59018 88.51045,-5.85451 69.05545,-4.05867c-13.18965,1.21749 -136.83767,10.14548 -143.7407,12.5003c-12.06557,4.11591 11.69864,13.31185 7.87018,12.7535c-9.57257,-1.39606 -23.90995,-5.86716 -19.61559,-14.66207c2.51063,-5.14181 25.88321,-7.79853 39.25205,-11.41462c6.23944,-1.6877 8.80622,-5.42514 8.76988,-6.37716c-0.20624,-5.40294 -11.10856,-14.53147 0.05044,-19.30881c3.21924,-1.3782 11.15306,7.40391 14.43567,6.12069c12.81434,-5.00931 20.71788,-19.09137 27.03649,-19.33257c6.19977,-0.23666 23.90426,17.36512 45.91144,13.32417c4.23206,-0.77709 8.34003,-3.10776 13.07796,-4.86351c8.08353,-2.99555 16.79922,-5.43088 22.3884,-3.68692c14.37265,4.48458 19.47991,23.38824 19.64698,27.7648z" fill="#b3d0d7"/><path d="M332.44465,104.60247c0,0 -20.06859,-8.58434 -36.1401,-9.63396c-3.65825,-0.23892 -3.07721,9.63864 -6.10077,10.86659c-3.37136,1.36921 -10.2189,-5.84029 -11.69413,-4.97222c-2.72707,1.60472 -16.11795,-5.54621 -19.41941,-4.12397c-1.86384,-0.44453 -5.80375,5.4732 -7.07697,6.56186c-1.78774,1.52861 -0.69599,-1.21616 -2.04215,1.49023c-1.79116,3.60104 -4.62049,7.18095 -1.65287,9.01659c5.49482,3.39886 28.84977,3.01144 28.65363,5.57737c-0.13952,1.82524 -31.11905,1.22322 -31.86952,1.25187c-5.33843,0.20378 -5.13442,-14.7107 -0.62221,-22.61571c2.203,-3.85948 9.9229,-1.88834 9.85352,-3.70595c-0.13678,-3.58312 2.97628,-4.44506 8.11368,-5.52197c2.80637,-0.58828 6.9832,-2.06792 9.78995,-2.17506c2.91384,-0.11123 5.6484,0.38943 7.95366,1.34142c0.31593,0.13046 -17.65157,-9.67711 -14.62995,-15.69764c3.0133,-6.0039 27.01362,-8.2209 28.8267,-8.02673c2.09913,0.2248 -17.35992,1.4082 -17.10448,8.92402c0.06279,1.84743 11.28719,-1.31968 14.77446,1.55071c2.95427,2.43165 -2.88346,5.89433 -2.13133,9.27337c0.7563,3.39772 8.09546,6.70553 8.52867,6.84385c1.5409,0.49197 4.44363,-1.35009 9.49325,-2.13089c1.27806,-0.19762 2.57293,-3.95517 7.8509,-7.12153c3.15061,-1.89011 7.95341,-0.52221 12.20886,-1.52196c2.51747,-0.59144 6.1415,0.21356 7.94924,0.17401c14.06539,-0.30779 34.93218,7.32064 36.02071,7.73659c2.56132,0.97868 -18.99414,-3.4272 -34.59554,-2.52502c-16.38378,0.94742 -26.90776,7.21433 -26.40217,8.75277c1.33916,4.07491 21.46436,10.41139 21.46436,10.41139z" fill="#88acb5"/><path d="M331.61596,130.56545c0.01854,0.48565 -5.53595,4.60476 -10.73179,5.8697c-5.80909,1.41423 -14.05972,-0.57141 -22.81581,-0.65135c-10.05512,-0.0918 -19.69457,6.96356 -27.34607,8.71811c-8.95033,2.05239 -15.327,-1.13207 -18.68146,-1.00402c-11.70814,0.44693 -21.2674,-0.97039 -21.3512,-3.16567c-0.02124,-0.55639 19.64344,-6.74005 26.25816,-11.06372c4.91365,-3.21179 -16.78098,1.91916 -10.64599,0.53291c10.87097,-2.45638 35.14047,-2.09186 38.58235,-2.4674c2.31786,-0.25291 -35.77718,8.31448 -33.14676,8.21407c2.99888,-0.11447 20.108,-2.18043 44.87941,-8.95427c3.77149,-1.03133 9.92915,-6.40375 13.91236,-7.43165c6.94526,-1.79228 16.53525,-1.34101 23.47263,-3.25327c7.15764,-1.97297 12.21951,-9.16237 18.97217,-10.66789c1.3656,-0.30445 2.87246,3.82786 4.19495,3.84729c5.50382,0.08082 10.45564,-1.87887 15.03845,-2.43796c2.26002,-0.27571 -5.15915,5.86006 -1.674,7.40727c3.99207,1.77225 19.31749,-1.03742 29.20916,-1.88521c4.6187,-0.39586 20.6632,-8.59769 25.55714,-9.22372c3.01191,-0.38528 35.93926,-3.82735 62.09282,-14.50284c19.41539,-7.92507 33.85448,-23.87342 36.11247,-24.20942c31.17186,-4.63843 -21.46956,25.82993 -21.46956,25.82993c0,0 3.24233,8.53629 -25.0029,15.47131c-3.70299,0.90918 -12.90277,-1.80682 -23.08876,-1.43544c-9.5723,0.34901 -20.14361,3.78388 -23.95995,4.62254c-25.12616,5.52146 -48.50862,14.77213 -68.1286,18.38757c-16.57335,3.05403 -30.24549,3.28883 -30.23922,3.45317z" fill="#b3d0d7"/><path d="M381.50115,65.5793c-0.02508,-0.65705 -6.61326,4.27031 -10.70788,3.03677c-13.18328,-3.97157 -35.6004,-15.60694 -22.49887,-14.37592c5.70452,0.536 1.98436,4.57284 12.31131,8.27252c22.31964,7.99615 -0.77665,9.96424 -3.1264,8.97467c-1.69563,-0.7141 11.34386,-12.68655 -12.63464,-17.38879c-2.02329,-0.39677 26.18052,-4.95354 50.60267,-4.57241c20.08701,-5.28416 38.05465,-2.68191 37.2122,-2.64895c-3.16504,0.12387 -77.61229,1.33217 -75.50305,-4.41019c0.56323,-1.53338 3.26267,-8.00022 12.44555,-12.21268c20.80777,-9.54514 25.86295,-6.05109 17.75357,-4.96166c-4.29956,0.57761 -4.65744,-6.32162 -24.89817,2.03639c-11.88188,4.9064 -16.62405,13.53622 -18.58666,13.89399c-7.72976,1.40913 -12.80324,-1.5656 -14.14697,0.98748c-2.76177,5.24735 9.83562,10.41181 8.82349,10.45045c-5.61756,0.21444 -10.11751,-5.30938 -18.26817,-6.02349c-3.50904,-0.30745 -10.5235,3.84362 -13.925,3.83888c-4.66156,-0.00651 -9.77923,2.31481 -13.07096,3.36446c-3.01303,0.96077 4.16302,2.65676 4.23843,4.63227c0.15208,3.98402 6.8538,-3.81112 15.52788,1.90965c7.79965,5.14406 -11.52245,5.93496 -7.95366,3.60283c1.0209,-0.66715 6.59861,-10.16567 14.06991,-11.54034c5.65248,-1.04003 13.55339,5.89744 14.74405,5.85199c2.17633,-0.08308 42.34764,18.74858 45.74548,18.3306c3.09647,-0.38091 -20.17442,-12.57122 -22.70858,-15.85247c-4.77457,-6.18213 7.46109,-4.87146 10.41925,-3.02938c0.38074,0.23708 27.81813,-36.5989 62.37049,-51.07367c3.72133,-1.55895 -27.06706,16.69534 -30.98264,12.22529c-5.56043,-6.34783 16.8268,-17.69976 22.237,-19.65743c8.34889,-3.02103 55.11219,8.82281 63.07997,9.87465c6.56128,0.86617 5.35514,19.04736 9.49753,18.748c21.38689,-1.54555 24.43651,27.73568 25.29644,28.39939c0.42538,0.32831 -30.78317,28.55134 -68.40862,43.17159c-17.17759,6.67475 -69.01572,21.74106 -108.93293,30.52805c-26.49059,5.83138 -47.79577,7.20086 -50.00173,7.65559c-1.77013,0.36491 58.97456,-20.85253 91.22158,-32.81592c15.11432,-5.60729 -90.68649,23.94487 -77.8763,19.04496c12.24246,-4.68275 42.88999,-13.13515 69.96188,-21.95876c53.0682,-17.29663 109.63164,-36.67759 107.58553,-36.49318c-13.18978,1.18882 -38.7468,-1.67786 -43.02075,-0.81428c-9.55316,1.93029 -23.17739,7.34803 -33.96898,7.48437c-13.83649,0.17481 -23.88058,-5.36723 -23.92326,-6.48536z" fill="#88acb5"/><path d="M396.13742,83.52128c0.03764,0.98615 53.31738,2.78212 30.46589,3.61839c-19.78236,0.72395 -38.44605,-3.61706 -40.77434,-3.52819c-5.01777,0.19154 -11.89347,6.23931 -11.9637,4.39946c-0.04759,-1.24677 5.67152,-5.99501 12.12635,-8.24999c3.07052,-1.07267 7.74919,-0.69757 9.36668,-0.75931c1.27481,-0.04866 76.02453,-13.61245 83.68516,-11.59689c4.57151,1.20279 -59.3081,18.45117 -53.68804,18.39181c8.61905,-0.09104 -51.82055,-3.87793 -48.70053,-4.79254c4.85506,-1.42322 19.4571,1.85154 19.48251,2.51723z" fill="#88acb5"/><path d="M404.15584,82.49611c-0.01214,-0.31798 -6.39991,-3.94613 0.16521,-5.20114c7.86192,-1.5029 29.46979,-5.28995 40.07169,-6.78058c11.30547,-1.58956 20.16411,-0.66751 29.1296,-3.86747c18.23021,-6.50674 8.68308,-33.5293 -11.46069,-33.29811c-12.69733,0.14572 16.8685,-3.02348 12.94492,-2.87371c-11.1306,0.42488 -32.17125,-3.97601 -13.24248,-3.73009c13.10297,0.17024 -48.53966,14.68889 -29.70416,13.96989c6.72333,-0.25665 55.14274,4.10684 72.01259,16.55763c8.50838,6.2796 -0.61031,21.31996 -7.69409,25.27804c-23.22564,12.9774 -33.5145,-13.36115 -39.49161,-13.81076c-20.55903,-1.54652 -52.71478,14.18117 -52.731,13.7563z" fill="#6d8a91"/></g><path d="M129.18544,97.51514c-2.41263,-63.20355 46.86815,-116.39597 110.07169,-118.8086c63.20355,-2.41263 116.39597,46.86815 118.8086,110.07169c2.41263,63.20355 -46.86815,116.39597 -110.07169,118.8086c-63.20355,2.41263 -116.39597,-46.86815 -118.8086,-110.07169z" fill="url(#color-1)" stroke="none" stroke-width="0" stroke-linecap="butt"/><g stroke="none" stroke-width="0" stroke-linecap="butt"><path d="M253.36641,72.33735c0,0 -133.69372,21.85542 -159.33228,31.54029c-33.70109,12.73046 -12.99176,17.25492 -45.15422,17.31164c-7.28749,0.01286 -21.62477,8.53482 -28.76503,9.24844c-35.40746,3.53876 -60.32392,6.01565 -72.76224,7.91299c-4.54523,0.69332 -1.00198,-11.69982 -1.00062,-10.91921c0.00243,1.37748 -4.74901,-15.1757 45.75344,-25.72275c11.45916,-2.39316 12.76355,-10.06424 29.10409,-12.79015c6.25107,-1.0428 26.78215,2.06635 33.11838,1.41817c8.75203,-0.89531 12.59017,-5.67442 21.42062,-6.32402c7.502,-0.55186 9.829,-6.34079 18.11657,-8.207c9.19204,-2.06987 24.31981,-0.24182 31.87985,-1.07638c22.24158,-2.45528 44.21363,8.95709 54.87261,6.69165c14.413,-3.0633 72.74884,-9.08368 72.74884,-9.08368z" fill="#d5d5d5"/><path d="M31.38099,128.49383c-9.30443,2.80015 -18.43983,4.4565 -27.07305,5.40485c-21.79892,2.3946 -40.39624,0.27538 -50.42912,0.65836c-38.50812,1.46995 28.62507,-5.66895 28.48127,-9.43604c-0.1438,-3.76711 23.03065,-16.81785 61.53878,-18.2878c38.50812,-1.46995 159.63031,-33.39462 159.77411,-29.62753c0.04491,1.17657 -82.26959,9.9629 -117.26211,20.0694c-36.29369,10.48228 -25.81862,22.42769 -55.02987,31.21877z" fill="#eaeaea"/><path d="M-26.51908,133.50633l-3.32082,-7.4631l286.95361,-38.27721z" fill="#ffffff"/><path d="M242.16662,73.62759c0,0 -90.8248,13.4756 -104.70732,14.00553c-13.88251,0.52993 -25.25556,-2.15906 -25.4024,-6.00602c-0.14685,-3.84696 10.98811,-7.39513 24.87062,-7.92506c2.67753,-0.10221 3.66891,7.2856 10.8991,7.24637c30.25696,-0.16418 94.34,-7.32081 94.34,-7.32081z" fill="#e6e6e6"/></g><text transform="translate(202.5715,53.96556) rotate(-8.11495) scale(0.5,0.5)" font-size="40" xml:space="preserve" fill="url(#color-2)" fill-rule="nonzero" stroke="none" stroke-width="1" stroke-linecap="butt" stroke-linejoin="miter" stroke-miterlimit="10" stroke-dasharray="" stroke-dashoffset="0" font-family="Sans Serif" font-weight="normal" text-anchor="start" style="mix-blend-mode: normal"><tspan x="0" dy="0">@Dioxite_</tspan></text><text transform="translate(219.33926,34.237) rotate(-8.11505) scale(0.39299,0.39299)" font-size="40" xml:space="preserve" fill="url(#color-3)" fill-rule="nonzero" stroke="none" stroke-width="1" stroke-linecap="butt" stroke-linejoin="miter" stroke-miterlimit="10" stroke-dasharray="" stroke-dashoffset="0" font-family="Sans Serif" font-weight="normal" text-anchor="start" style="mix-blend-mode: normal"><tspan x="0" dy="0">Art by</tspan></text><path d="M287.39652,43.45494l7.66667,-1.33333" fill="none" stroke-opacity="0.44314" stroke="#000000" stroke-width="2" stroke-linecap="round"/></g></g></svg>