<svg version="1.1" xmlns="http://www.w3.org/2000/svg" xmlns:xlink="http://www.w3.org/1999/xlink" width="530.41821" height="384.31801" viewBox="0,0,530.41821,384.31801"><defs><radialGradient cx="391.58255" cy="1179.32625" r="87.95746" gradientUnits="userSpaceOnUse" id="color-1"><stop offset="0" stop-color="#94a7ff"/><stop offset="1" stop-color="#6b83ff"/></radialGradient><radialGradient cx="152.23944" cy="336.4187" r="43.30049" gradientUnits="userSpaceOnUse" id="color-2"><stop offset="0" stop-color="#ffde5a"/><stop offset="1" stop-color="#ffd321"/></radialGradient><radialGradient cx="152.23944" cy="336.4187" r="43.30049" gradientUnits="userSpaceOnUse" id="color-3"><stop offset="0" stop-color="#ffde5a"/><stop offset="1" stop-color="#ffd321"/></radialGradient><radialGradient cx="281.52164" cy="1172.41872" r="43.30049" gradientUnits="userSpaceOnUse" id="color-4"><stop offset="0" stop-color="#ffde5a"/><stop offset="1" stop-color="#ffd321"/></radialGradient><radialGradient cx="152.23944" cy="336.4187" r="43.30049" gradientUnits="userSpaceOnUse" id="color-5"><stop offset="0" stop-color="#ffde5a"/><stop offset="1" stop-color="#ffd321"/></radialGradient><radialGradient cx="69.59888" cy="267.87822" r="36.87171" gradientUnits="userSpaceOnUse" id="color-6"><stop offset="0" stop-color="#ffde5a"/><stop offset="1" stop-color="#ffd321"/></radialGradient><linearGradient x1="230.72383" y1="61.17476" x2="233.98098" y2="84.01815" gradientTransform="translate(-346.58047,-220.87516) rotate(8.11495) scale(2,2)" gradientUnits="userSpaceOnUse" id="color-7"><stop offset="0" stop-color="#000000"/><stop offset="1" stop-color="#000000" stop-opacity="0"/></linearGradient><linearGradient x1="257.15672" y1="35.97595" x2="259.87939" y2="55.07089" gradientTransform="translate(-503.98964,-206.68297) rotate(8.11527) scale(2.39263,2.39263)" gradientUnits="userSpaceOnUse" id="color-8"><stop offset="0" stop-color="#000000"/><stop offset="1" stop-color="#000000" stop-opacity="0"/></linearGradient><radialGradient cx="208.04219" cy="319.47099" r="36.87171" gradientUnits="userSpaceOnUse" id="color-9"><stop offset="0" stop-color="#ffde5a"/><stop offset="1" stop-color="#ffd321"/></radialGradient></defs><g transform="translate(3.07031,-30.91246)"><g data-paper-data="{&quot;isPaintingLayer&quot;:true}" fill-rule="nonzero" stroke-linecap="butt" stroke-linejoin="miter" stroke-miterlimit="10" stroke-dasharray="" stroke-dashoffset="0" style="mix-blend-mode: normal"><path d="" data-paper-data="{&quot;index&quot;:null}" fill="#6b83ff" stroke="none" stroke-width="0"/><path d="" fill="url(#color-1)" stroke="none" stroke-width="0"/><path d="M210.33733,353.00397c1.2054,0.96562 1.97392,1.89219 1.91879,2.73035c-0.647,-0.905 -1.28885,-1.81357 -1.91879,-2.73035z" data-paper-data="{&quot;index&quot;:null}" fill="url(#color-2)" stroke="none" stroke-width="0"/><path d="M201.89926,337.26585c-0.30914,-0.10814 -0.64274,-0.20838 -0.99731,-0.30102c-0.03502,-0.06346 -0.07004,-0.12691 -0.10508,-0.19035c1.14612,0.46749 1.60863,0.66845 1.10239,0.49137z" data-paper-data="{&quot;index&quot;:null}" fill="url(#color-3)" stroke="none" stroke-width="0"/><path d="" data-paper-data="{&quot;index&quot;:null}" fill="url(#color-4)" stroke="none" stroke-width="0"/><path d="M204.92841,379.33788c-0.84756,-0.06982 -1.92214,-0.33322 -3.17675,-0.7536c0.10933,-0.33207 0.1518,-0.54302 0.1518,-0.54302l0.45477,-2.35621c0.06132,-0.0026 0.1224,-0.00615 0.18321,-0.01065c3.08806,2.38397 4.60827,3.84649 2.38696,3.66349z" data-paper-data="{&quot;index&quot;:null}" fill="url(#color-5)" stroke="none" stroke-width="0"/><path d="M80.54672,252.16579c6.90256,2.75176 29.95568,11.84517 27.56142,11.00763c-5.12128,-1.7915 -18.12699,-1.03473 -17.08204,0.30323c0.47751,0.6114 13.58373,5.48013 13.97327,6.11494c1.64662,2.68342 12.96966,6.83697 11.85302,9.63797c-1.39453,3.49806 -27.86258,-7.33008 -23.07896,-3.80388c3.75475,2.76779 -1.98505,5.6972 1.21648,9.17032c6.63331,7.19603 20.20295,14.77423 15.69765,14.40307c-7.25489,-0.59767 -34.04342,-17.85109 -39.7272,-20.11697c-4.43045,-1.76623 -8.78719,-1.1021 -12.28271,-3.4818c-0.37014,-0.25199 0.16841,-3.75302 0.72983,-1.84382c1.59801,5.43421 5.37783,21.25365 4.44074,20.51167c-2.33823,-1.85138 -13.607,-25.40216 -15.35423,-27.50228c-4.22548,-5.07891 -6.41859,-10.66948 -4.74336,-14.87164c1.75127,-4.39292 6.43748,-5.99245 12.5376,-5.79374c4.71551,0.15361 10.0342,4.26078 16.42012,3.40079c46.0403,-6.20023 5.14897,1.79235 7.83838,2.86451z" data-paper-data="{&quot;index&quot;:null}" fill="url(#color-6)" stroke="none" stroke-width="0"/><path d="" data-paper-data="{&quot;index&quot;:null}" fill="#6b83ff" stroke="none" stroke-width="0"/><path d="" data-paper-data="{&quot;index&quot;:null}" fill="#6b83ff" stroke="none" stroke-width="0"/><path d="" data-paper-data="{&quot;index&quot;:null}" fill="#6b83ff" stroke="none" stroke-width="0"/><path d="M164.08326,350.96493c0,0 10.37134,-7.36572 16.42437,-10.42559c7.44646,-3.76428 24.94636,-10.48782 24.94636,-10.48782l2.47517,9.55305z" fill="#8196ff" stroke="none" stroke-width="0"/><path d="M490.80599,135.25621c-7.13146,-1.1329 -30.93862,-4.84264 -28.47758,-4.5389c5.26412,0.6497 18.06004,-1.74886 16.88102,-2.62334c-0.53877,-0.3996 -14.0412,-2.27896 -14.49539,-2.70874c-1.91994,-1.81674 -13.57959,-3.40015 -12.77616,-5.69356c1.00335,-2.86414 28.37896,1.69093 23.26201,-0.32955c-4.0164,-1.58592 1.35076,-4.62467 -2.19396,-6.82619c-4.53515,-2.81664 3.48194,-2.1312 11.75065,-0.9751c0.183,0.02559 0.40431,-0.23507 0.65217,-0.69457c0.87038,-0.06134 1.73418,-0.6834 2.52306,-1.40676c0.35312,-0.27403 0.67345,-0.5883 0.95411,-0.93593c0.56002,-0.57067 1.05608,-1.08422 1.45513,-1.31841c0.46576,-0.27335 0.93443,-0.54195 1.40591,-0.80559c0.41705,3.18377 0.80192,6.34199 1.53781,6.46075c1.74701,0.28191 3.19998,0.52239 4.13048,0.67021c4.57738,0.72715 8.81953,-0.38961 12.53738,0.93652c0.39369,0.14042 18.54312,12.55578 17.33781,15.9964c-1.26002,3.59682 -5.72746,5.47339 -11.78893,6.17598c-2.7466,0.31836 -3.21241,25.75664 -6.56126,25.44408c-1.57607,-0.1471 -2.14024,-14.36625 -4.59672,-21.94374c-1.22839,-3.78921 -4.60782,-4.00956 -5.46729,-3.79568c-44.91768,11.17749 -5.29163,-0.64647 -8.07023,-1.08788z" data-paper-data="{&quot;index&quot;:null}" fill="#8fa3ff" stroke="none" stroke-width="0"/><path d="M518.26365,98.31663c0,2.61782 -9.76864,4.73999 -21.81887,4.73999c-6.16046,0 -11.78715,-0.44147 -15.69207,-1.51781c-1.10483,-0.30453 -14.6643,0.55398 -15.46666,0.28162c-0.97112,-0.32964 10.88459,-1.78627 10.34861,-2.1189c-0.6754,-0.41916 -1.00876,-0.86249 -1.00876,-1.3849c0,-0.76104 -21.96735,-1.9786 2.12588,-2.18869c2.30769,-0.02012 5.58863,-0.76959 9.61423,-1.57237c0.55621,-0.11092 0.3498,-1.97055 0.91837,-2.0656c0.71681,-0.11984 2.21595,1.5299 2.99743,1.4392c1.93033,-0.22404 4.05963,-0.35252 6.16297,-0.35252c12.05023,0 21.81887,2.12216 21.81887,4.73999z" fill="#ffdd53" stroke="none" stroke-width="0"/><text transform="translate(187.14438,84.87018) rotate(-8.11495) scale(0.5,0.5)" font-size="40" xml:space="preserve" fill="url(#color-7)" fill-rule="nonzero" stroke="none" stroke-width="1" stroke-linecap="butt" stroke-linejoin="miter" stroke-miterlimit="10" stroke-dasharray="" stroke-dashoffset="0" font-family="Sans Serif" font-weight="normal" text-anchor="start" style="mix-blend-mode: normal"><tspan x="0" dy="0">@goriraf0612</tspan></text><text transform="translate(220.7274,55.78275) rotate(-8.11527) scale(0.41795,0.41795)" font-size="40" xml:space="preserve" fill="url(#color-8)" fill-rule="nonzero" stroke="none" stroke-width="1" stroke-linecap="butt" stroke-linejoin="miter" stroke-miterlimit="10" stroke-dasharray="" stroke-dashoffset="0" font-family="Sans Serif" font-weight="normal" text-anchor="start" style="mix-blend-mode: normal"><tspan x="0" dy="0">Art by</tspan></text><path d="M144.32278,138.01392c0,12.97869 -26.86291,23.5 -60,23.5c-33.13708,0 -60,-10.52131 -60,-23.5c0,-12.97869 26.86292,-23.5 60,-23.5c33.13709,0 60,10.52131 60,23.5z" fill="#7485ff" stroke="#8f8f8f" stroke-width="0"/><path d="M224.67724,165.5c0,15.18014 -31.41942,27.48608 -70.17723,27.48608c-38.75781,0 -70.17723,-12.30594 -70.17723,-27.48608c0,-15.18014 31.41942,-27.48608 70.17723,-27.48608c38.75781,0 70.17723,12.30594 70.17723,27.48608z" fill="#ffdb49" stroke="#8f8f8f" stroke-width="0"/><path d="M419.31777,367.59113c0,26.31047 -41.18063,47.63934 -91.97952,47.63934c-50.79888,0 -91.97951,-21.32886 -91.97951,-47.63934c0,-26.31047 41.18063,-47.63933 91.97951,-47.63933c50.79888,0 91.97952,21.32886 91.97952,47.63933z" fill="#ffdb49" stroke="#8f8f8f" stroke-width="0"/><path d="M283.89741,331.06709c0,21.4751 -47.96479,38.88412 -107.13235,38.88412c-59.16756,0 -107.13234,-17.40902 -107.13234,-38.88412c0,-21.4751 47.96478,-38.88412 107.13234,-38.88412c59.16756,0 107.13235,17.40901 107.13235,38.88412z" fill="#7485ff" stroke="#8f8f8f" stroke-width="0"/><path d="M235.35874,297.27026c0,11.58797 -21.12618,20.98188 -47.18664,20.98188c-26.06046,0 -47.18664,-9.39391 -47.18664,-20.98187c0,-11.58797 21.12618,-20.98187 47.18665,-20.98187c26.06046,0 47.18664,9.39391 47.18664,20.98188z" fill="#ffdb49" stroke="#8f8f8f" stroke-width="0"/><path d="M184.01473,241.98629c0,15.37748 -26.86291,27.8434 -59.99999,27.8434c-33.13708,0 -60,-12.46592 -60,-27.8434c0,-15.37749 26.86292,-27.84339 60.00001,-27.84339c33.13709,0 60,12.46591 60,27.84339z" fill="#ffdb49" stroke="#8f8f8f" stroke-width="0"/><path d="M116.9297,248.94818c0,12.97869 -26.86292,23.5 -60,23.5c-33.13708,0 -60,-10.52131 -60,-23.5c0,-12.97869 26.86292,-23.5 60,-23.5c33.13708,0 60,10.52131 60,23.5z" fill="#7485ff" stroke="#8f8f8f" stroke-width="0"/><path d="M201.61433,308.2323c2.68941,-0.82615 -38.20192,-6.98479 7.83838,-2.20723c6.38592,0.66266 11.70461,-2.5021 16.42012,-2.62047c6.10013,-0.15312 10.78633,1.0794 12.5376,4.46434c1.67522,3.23795 -0.51788,7.54575 -4.74336,11.45927c-1.74723,1.61824 -13.01601,19.76518 -15.35423,21.19175c-0.93709,0.57173 2.84273,-11.61787 4.44074,-15.80517c0.56143,-1.47112 1.09998,1.22658 0.72983,1.42075c-3.49552,1.83367 -7.85226,1.32193 -12.28271,2.68289c-5.68378,1.74596 -32.4723,15.04051 -39.7272,15.50104c-4.50531,0.286 9.06433,-5.55335 15.69765,-11.09822c3.20152,-2.6762 -2.53827,-4.93344 1.21648,-7.06615c4.78361,-2.71709 -21.68444,5.62648 -23.07897,2.93106c-1.11665,-2.1583 10.20639,-5.3588 11.85302,-7.4265c0.38954,-0.48915 13.49576,-4.24073 13.97327,-4.71184c1.04495,-1.03096 -11.96076,-1.61408 -17.08204,-0.23365c-2.39426,0.64537 20.65886,-6.36153 27.56142,-8.48188z" data-paper-data="{&quot;index&quot;:null}" fill="url(#color-9)" stroke="none" stroke-width="0"/></g></g></svg>