<svg version="1.1" xmlns="http://www.w3.org/2000/svg" xmlns:xlink="http://www.w3.org/1999/xlink" width="120.7257" height="33.62673" viewBox="0,0,120.7257,33.62673"><defs><linearGradient x1="239.90239" y1="164.99913" x2="239.90239" y2="194.51822" gradientUnits="userSpaceOnUse" id="color-1"><stop offset="0" stop-color="#000000" stop-opacity="0.63137"/><stop offset="1" stop-color="#000000" stop-opacity="0.37255"/></linearGradient></defs><g transform="translate(-178.77182,-163.18663)"><g data-paper-data="{&quot;isPaintingLayer&quot;:true}" fill-rule="nonzero" stroke-linejoin="miter" stroke-miterlimit="10" stroke-dasharray="" stroke-dashoffset="0" style="mix-blend-mode: normal"><path d="M296.40578,180.93644c-0.16936,8.12506 -25.60408,14.18442 -56.81005,13.53395c-31.20597,-0.65046 -56.36611,-7.76442 -56.19675,-15.88948c0.16935,-8.12506 25.60408,-14.18442 56.81006,-13.53396c31.20597,0.65046 56.36611,7.76442 56.19675,15.88948z" fill="url(#color-1)" stroke="none" stroke-width="0" stroke-linecap="butt"/><path d="M226.64823,181.33309c-4.88942,-0.10191 -8.77045,-4.14818 -8.66854,-9.03761c0.10191,-4.88942 4.14818,-8.77045 9.03761,-8.66853c4.88942,0.10191 8.77046,4.14818 8.66853,9.03761c-0.10191,4.88942 -4.14818,8.77046 -9.03761,8.66853z" fill-opacity="0.65098" fill="#00b1fc" stroke="none" stroke-width="0" stroke-linecap="butt"/><path d="M259.32083,194.34437c-4.88942,-0.10191 -8.77046,-4.14819 -8.66853,-9.03761c0.10192,-4.88942 4.14818,-8.77045 9.03761,-8.66853c4.88942,0.10191 8.77046,4.14818 8.66853,9.03761c-0.10192,4.88942 -4.14819,8.77045 -9.03761,8.66853z" fill-opacity="0.65098" fill="#ff0000" stroke="none" stroke-width="0" stroke-linecap="butt"/><path d="M190.7947,191.59477c-4.88942,-0.10191 -8.77045,-4.14818 -8.66853,-9.03761c0.10191,-4.88942 4.14819,-8.77046 9.03761,-8.66853c4.88942,0.10191 8.77046,4.14819 8.66853,9.03761c-0.10191,4.88942 -4.14818,8.77045 -9.03761,8.66853z" fill-opacity="0.65098" fill="#ff0000" stroke="none" stroke-width="0" stroke-linecap="butt"/><path d="M288.08623,182.24372c-4.88942,-0.10191 -8.77045,-4.14818 -8.66853,-9.03761c0.10192,-4.88942 4.14818,-8.77045 9.03761,-8.66853c4.88942,0.10191 8.77045,4.14818 8.66853,9.0376c-0.10192,4.88942 -4.14819,8.77046 -9.0376,8.66853z" fill-opacity="0.65098" fill="#00b1fc" stroke="none" stroke-width="0" stroke-linecap="butt"/><path d="M280.65979,188.60136c-3.30755,-0.06895 -5.93296,-2.80613 -5.86401,-6.11367c0.06895,-3.30755 2.80613,-5.93296 6.11368,-5.86401c3.30755,0.06895 5.93295,2.80613 5.864,6.11367c-0.06895,3.30755 -2.80612,5.93295 -6.11367,5.86401z" fill-opacity="0.65098" fill="#00b1fc" stroke="none" stroke-width="0" stroke-linecap="butt"/><path d="M247.69031,196.18594c-2.94802,-0.06144 -5.28806,-2.50112 -5.22662,-5.44914c0.06144,-2.94802 2.50112,-5.28806 5.44915,-5.22662c2.94803,0.06145 5.28806,2.50112 5.22662,5.44915c-0.06145,2.94802 -2.50112,5.28806 -5.44915,5.22662z" fill-opacity="0.65098" fill="#ff0000" stroke="none" stroke-width="0" stroke-linecap="butt"/><path d="M265.26083,196.81267c-1.72568,-0.03597 -3.09546,-1.46407 -3.05949,-3.18974c0.03597,-1.72568 1.46408,-3.09545 3.18974,-3.05949c1.72568,0.03597 3.09545,1.46407 3.05949,3.18974c-0.03597,1.72568 -1.46407,3.09546 -3.18974,3.05949z" fill-opacity="0.65098" fill="#ff0000" stroke="none" stroke-width="0" stroke-linecap="butt"/><path d="M243.23156,173.08234c-2.73232,-0.05696 -4.90114,-2.31812 -4.84418,-5.05043c0.05696,-2.73231 2.31811,-4.90113 5.05043,-4.84418c2.73232,0.05696 4.90113,2.31811 4.84418,5.05042c-0.05696,2.73232 -2.31811,4.90114 -5.05042,4.84419z" fill-opacity="0.65098" fill="#00b1fc" stroke="none" stroke-width="0" stroke-linecap="butt"/><path d="M215.86712,176.18496c-2.01329,-0.04196 -3.61136,-1.70807 -3.5694,-3.72137c0.04196,-2.01329 1.70807,-3.61136 3.72137,-3.56939c2.01329,0.04196 3.61136,1.70807 3.5694,3.72137c-0.04196,2.01329 -1.70807,3.61136 -3.72137,3.56939z" fill-opacity="0.65098" fill="#00b1fc" stroke="none" stroke-width="0" stroke-linecap="butt"/><path d="M202.23535,192.61473c-2.73231,-0.05696 -4.90113,-2.31811 -4.84418,-5.05042c0.05696,-2.73231 2.31811,-4.90114 5.05043,-4.84418c2.73231,0.05696 4.90114,2.31812 4.84418,5.05043c-0.05696,2.73231 -2.31811,4.90113 -5.05042,4.84418z" fill-opacity="0.65098" fill="#ff0000" stroke="none" stroke-width="0" stroke-linecap="butt"/><path d="M187.17666,171.46106c-2.08519,-0.04346 -3.74034,-1.76908 -3.69687,-3.85427c0.04347,-2.08519 1.76908,-3.74034 3.85427,-3.69687c2.08519,0.04346 3.74034,1.76909 3.69687,3.85427c-0.04346,2.08519 -1.76908,3.74034 -3.85427,3.69686z" fill-opacity="0.65098" fill="#ff0000" stroke="none" stroke-width="0" stroke-linecap="butt"/><path d="M289.29582,192.94933c-1.50997,-0.03147 -2.70852,-1.28105 -2.67704,-2.79103c0.03147,-1.50997 1.28106,-2.70852 2.79103,-2.67705c1.50997,0.03147 2.70852,1.28106 2.67704,2.79102c-0.03147,1.50997 -1.28106,2.70852 -2.79103,2.67705z" fill-opacity="0.65098" fill="#00b1fc" stroke="none" stroke-width="0" stroke-linecap="butt"/><path d="M186.15001,165.82773c0.71709,-0.04457 1.5686,0.00533 2.55454,0.14973c0.99618,0.14376 1.86775,0.43409 2.61477,0.87099c0.74636,0.42665 1.14247,1.00877 1.18831,1.74634c0.04012,0.64537 -0.12014,1.21065 -0.48076,1.69584c-0.36126,0.47493 -0.85433,0.73183 -1.47922,0.77066c-0.28683,0.01783 -0.60244,-0.01397 -0.94687,-0.0954c-0.33482,-0.09231 -0.68563,-0.19391 -1.05246,-0.3048c-0.35657,-0.11152 -0.71635,-0.192 -1.07936,-0.24142c-0.3534,-0.06031 -0.74009,-0.07742 -1.1601,-0.0513c-0.70685,0.04394 -1.30492,0.26622 -1.79419,0.66684c-0.47904,0.39999 -0.69914,0.91241 -0.66029,1.53731c0.04202,0.67611 0.64432,1.18371 1.80688,1.5228c1.17216,0.32821 2.46917,0.67951 3.89102,1.0539c1.43209,0.37376 2.65985,1.0173 3.68327,1.93064c1.02281,0.90309 1.59151,2.2766 1.70611,4.12054c0.08914,1.43417 -0.19524,2.73216 -0.85317,3.89398c-0.65793,1.16181 -1.58277,2.08312 -2.7745,2.76393c-1.19171,0.6808 -2.51489,1.06642 -3.96955,1.15683c-1.79272,0.11143 -3.53509,-0.04251 -5.2271,-0.4618c-1.68241,-0.43017 -2.56403,-1.29578 -2.64491,-2.59677c-0.03947,-0.63513 0.11725,-1.17448 0.47017,-1.61804c0.36253,-0.45446 0.86136,-0.7014 1.49649,-0.74088c0.30733,-0.0191 0.64857,0.01111 1.02372,0.09062c0.37515,0.07951 0.85593,0.2039 1.44233,0.37313c0.58575,0.15899 1.09728,0.28144 1.53453,0.36738c0.43663,0.0757 0.89056,0.0989 1.36177,0.06962c0.67611,-0.04202 1.2479,-0.19069 1.71537,-0.44598c0.46681,-0.26554 0.81042,-0.61082 1.03081,-1.03588c0.23062,-0.42568 0.32971,-0.89974 0.29724,-1.4222c-0.04967,-0.79904 -0.36385,-1.30398 -0.94254,-1.51482c-0.56847,-0.21148 -1.87636,-0.57238 -3.92367,-1.08271c-2.04731,-0.51033 -3.56798,-1.1511 -4.562,-1.92229c-0.9838,-0.77182 -1.52661,-1.97727 -1.62848,-3.61632c-0.08914,-1.43417 0.18627,-2.71104 0.82625,-3.8306c0.6496,-1.13044 1.55552,-2.02487 2.71779,-2.68327c1.16226,-0.65841 2.43487,-1.03059 3.81782,-1.11654z" fill="#ffffff" stroke="none" stroke-width="0.40889" stroke-linecap="butt"/><path d="M239.1184,174.57914l-0.19508,9.35949c-0.01534,0.7361 -0.13046,1.32881 -0.34533,1.77816c-0.21487,0.44937 -0.7246,0.66565 -1.52916,0.64889c-0.51354,-0.01071 -0.9088,-0.15167 -1.18571,-0.42288c-0.26818,-0.27961 -0.46522,-0.68618 -0.5911,-1.21971c-1.02605,1.16029 -2.24093,1.72583 -3.64464,1.69657c-1.16405,-0.02427 -2.21888,-0.35879 -3.16448,-1.0036c-0.9456,-0.6448 -1.68079,-1.52499 -2.20557,-2.64054c-0.51603,-1.12394 -0.75952,-2.38348 -0.73043,-3.77863c0.028,-1.34379 0.33186,-2.57051 0.91159,-3.68017c0.5799,-1.11822 1.35585,-1.98831 2.32787,-2.61027c0.9722,-0.63052 2.02747,-0.93392 3.16585,-0.91019c0.71042,0.01481 1.38356,0.17442 2.01944,0.47881c0.63588,0.30439 1.15325,0.74761 1.55214,1.32963c0.06099,-0.46112 0.2657,-0.83363 0.61413,-1.11751c0.35716,-0.29226 0.76686,-0.43357 1.22905,-0.42393c0.80456,0.01678 1.30473,0.25839 1.50053,0.72487c0.19596,0.45793 0.28628,1.05493 0.27093,1.79103zM229.31431,179.07582c-0.01337,0.64193 0.08505,1.26053 0.29527,1.85576c0.21895,0.58684 0.54715,1.06891 0.98455,1.44625c0.44615,0.36895 0.99019,0.5601 1.63212,0.57347c0.9244,0.01926 1.6513,-0.34663 2.18072,-1.09769c0.52962,-0.75962 0.80495,-1.64443 0.826,-2.65443c0.01319,-0.63337 -0.08531,-1.24768 -0.29554,-1.84288c-0.20149,-0.60361 -0.52512,-1.09844 -0.97091,-1.48449c-0.43723,-0.38588 -0.96399,-0.58525 -1.58024,-0.5981c-0.63337,-0.0132 -1.18509,0.16368 -1.65514,0.53066c-0.46131,0.35859 -0.80948,0.83513 -1.0445,1.42964c-0.23504,0.59451 -0.35914,1.20846 -0.37234,1.84183z" fill="#ffffff" stroke="none" stroke-width="0.40889" stroke-linecap="butt"/><path d="M217.2152,186.2753l-1.29675,-17.58717c-0.05005,-0.67875 0.09545,-1.24105 0.43652,-1.68689c0.34969,-0.45582 0.83137,-0.70636 1.44504,-0.75159c0.39981,-0.02948 0.76034,0.0421 1.08157,0.21473c0.32984,0.16264 0.5961,0.41412 0.79883,0.7544c0.20203,0.331 0.3195,0.71966 0.35241,1.16597l1.29675,17.58718c0.0329,0.44632 -0.02595,0.85263 -0.17657,1.21899c-0.15131,0.35705 -0.37781,0.64487 -0.67954,0.86341c-0.30242,0.20927 -0.6489,0.32832 -1.03942,0.35712c-0.61367,0.04524 -1.12654,-0.12728 -1.53861,-0.51759c-0.40345,-0.40029 -0.63019,-0.9398 -0.68024,-1.61856z" fill="#ffffff" stroke="none" stroke-width="0.40889" stroke-linecap="butt"/><path d="M286.61403,184.80499l0.28262,-10.26213c0.01751,-0.63541 0.20573,-1.14414 0.56468,-1.52624c0.36789,-0.39057 0.83906,-0.57793 1.41353,-0.56212c0.49614,0.01366 0.89305,0.15089 1.19075,0.41172c0.3064,0.26105 0.4883,0.61449 0.54571,1.06032c0.77754,-1.03258 2.02804,-1.52513 3.75144,-1.47766c1.00967,0.02781 1.90914,0.26163 2.69841,0.70147c0.7895,0.43115 1.39978,1.04464 1.83083,1.84048c0.43128,0.78714 0.63217,1.716 0.60269,2.78662l-0.20316,7.37671c-0.01152,0.41781 -0.1045,0.7898 -0.279,1.11599c-0.17426,0.3175 -0.41185,0.56356 -0.7128,0.73818c-0.30074,0.16594 -0.63389,0.24387 -0.99947,0.23382c-0.57447,-0.01583 -1.03475,-0.22449 -1.38082,-0.62601c-0.33714,-0.40997 -0.49694,-0.93266 -0.47944,-1.56807l0.18482,-6.71085c0.02373,-0.86171 -0.1933,-1.52098 -0.6511,-1.97784c-0.44886,-0.46531 -1.04756,-0.70829 -1.79612,-0.7289c-0.50482,-0.01391 -0.94763,0.09149 -1.32838,0.31619c-0.3805,0.216 -0.6719,0.5172 -0.87417,0.90363c-0.20228,0.38642 -0.31048,0.8364 -0.32464,1.34993l-0.18482,6.71085c-0.01152,0.41781 -0.1045,0.7898 -0.279,1.11599c-0.17424,0.3175 -0.41185,0.56356 -0.71281,0.73818c-0.30074,0.16594 -0.63389,0.24387 -0.99947,0.23382c-0.57447,-0.01583 -1.03474,-0.22449 -1.38081,-0.626c-0.33715,-0.40997 -0.49697,-0.93267 -0.47946,-1.56808z" fill="#ffffff" stroke="none" stroke-width="0.40889" stroke-linecap="butt"/><path d="M199.72332,190.01675l0.23933,-15.03792c0.00955,-0.59937 0.18147,-1.08119 0.51577,-1.44545c0.34265,-0.37233 0.78493,-0.55419 1.32683,-0.54556c0.96887,0.01542 1.56842,0.53005 1.79866,1.54388c0.34527,-0.53655 0.83212,-0.93944 1.46057,-1.20866c0.6286,-0.27745 1.30005,-0.41049 2.01437,-0.39911c1.23982,0.01973 2.29358,0.37734 3.16128,1.07281c0.87591,0.6956 1.5309,1.59711 1.96499,2.70453c0.43408,1.10742 0.64132,2.27696 0.62171,3.50856c-0.0183,1.1495 -0.2863,2.24986 -0.80401,3.30107c-0.50936,1.04312 -1.22902,1.8817 -2.15893,2.51571c-0.92992,0.63401 -1.97374,0.9418 -3.13145,0.92337c-0.57475,-0.00915 -1.15191,-0.1251 -1.73147,-0.34786c-0.57943,-0.23096 -1.10399,-0.5555 -1.57368,-0.97362l-0.07076,4.4461c-0.00601,0.3777 -0.0895,0.72132 -0.25047,1.03084c-0.16096,0.30953 -0.38234,0.54416 -0.66411,0.70393c-0.2819,0.16798 -0.59529,0.24923 -0.94014,0.24375c-0.54191,-0.00863 -0.97823,-0.20034 -1.30901,-0.57518c-0.32269,-0.3665 -0.47919,-0.85355 -0.46952,-1.46114zM203.52042,179.77835c-0.01555,0.97707 0.21275,1.85536 0.6849,2.63488c0.48036,0.77965 1.18034,1.17679 2.09993,1.19143c0.59117,0.00941 1.10721,-0.16305 1.54813,-0.5174c0.44092,-0.35435 0.7725,-0.80488 0.99473,-1.3516c0.22236,-0.55493 0.33838,-1.13619 0.34805,-1.74379c0.00966,-0.60759 -0.08773,-1.19637 -0.29219,-1.7663c-0.20446,-0.56994 -0.52141,-1.03899 -0.95082,-1.40719c-0.42107,-0.37628 -0.93131,-0.56921 -1.5307,-0.57874c-0.6158,-0.00981 -1.14404,0.15427 -1.58468,0.49219c-0.43232,0.32985 -0.75952,0.76401 -0.98163,1.30252c-0.21389,0.53864 -0.3258,1.11997 -0.33573,1.74399z" fill="#ffffff" stroke="none" stroke-width="0.40889" stroke-linecap="butt"/><path d="M245.21065,187.031l-0.20061,-9.49361l-0.9228,0.0195c-0.54063,0.01143 -0.9775,-0.14254 -1.31065,-0.46188c-0.34265,-0.32849 -0.51979,-0.76769 -0.53142,-1.31764c-0.01083,-0.51266 0.15254,-0.94507 0.49014,-1.29725c0.33759,-0.35218 0.76273,-0.53368 1.27538,-0.54451l0.92279,-0.0195l-0.052,-2.46079c-0.01437,-0.68044 0.16042,-1.23434 0.52441,-1.66166c0.37311,-0.43684 0.86726,-0.66177 1.48245,-0.67477c0.40082,-0.00847 0.75708,0.08192 1.06882,0.27115c0.32086,0.17974 0.57358,0.44483 0.75817,0.79528c0.18438,0.34114 0.28131,0.73542 0.29077,1.18283l0.052,2.46079l1.17446,-0.02482c0.56859,-0.01202 1.04245,0.12718 1.42162,0.41758c0.37896,0.28108 0.57493,0.72921 0.58794,1.34441c0.013,0.61521 -0.16377,1.07588 -0.53031,1.38203c-0.35721,0.30596 -0.82479,0.46506 -1.40271,0.47726l-1.17446,0.02482l0.20062,9.49362c0.00946,0.44741 -0.07063,0.8501 -0.24024,1.20804c-0.16981,0.34862 -0.41111,0.62417 -0.72389,0.82661c-0.31299,0.19311 -0.66522,0.29381 -1.0567,0.30208c-0.6152,0.013 -1.11832,-0.18618 -1.50934,-0.59756c-0.38192,-0.42091 -0.58006,-0.97156 -0.59444,-1.65202z" fill="#ffffff" stroke="none" stroke-width="0.40889" stroke-linecap="butt"/><path d="M261.17548,172.83955c0.92294,0.01923 1.77715,0.22739 2.56263,0.62443c0.79374,0.38913 1.46722,0.91343 2.02044,1.57293c0.56132,0.65966 0.98719,1.40559 1.27763,2.23779c0.29854,0.83238 0.43818,1.71004 0.41895,2.633c-0.01941,0.93103 -0.19576,1.81426 -0.52905,2.64967c-0.32502,0.82748 -0.77345,1.55114 -1.34523,2.17097c-0.56353,0.61191 -1.25397,1.09564 -2.07133,1.45119c-0.8091,0.34762 -1.68322,0.51164 -2.62235,0.49207c-1.23869,-0.02582 -2.34144,-0.35659 -3.30822,-0.99231c-0.96662,-0.6438 -1.71019,-1.49761 -2.23068,-2.56139c-0.51223,-1.07171 -0.75535,-2.23097 -0.72936,-3.47775c0.01856,-0.89056 0.19037,-1.74959 0.51539,-2.57706c0.3333,-0.83541 0.79419,-1.57499 1.38269,-2.21879c0.58848,-0.6438 1.28331,-1.14363 2.08448,-1.4995c0.80118,-0.35589 1.65918,-0.52429 2.57402,-0.50523zM261.10712,176.11845c-0.59911,-0.01249 -1.12096,0.15483 -1.56557,0.50194c-0.43635,0.33918 -0.76568,0.78994 -0.98799,1.35227c-0.22231,0.56233 -0.3397,1.14306 -0.35219,1.74216c-0.01266,0.6072 0.08044,1.19231 0.27929,1.75531c0.20712,0.55509 0.51754,1.01108 0.93127,1.36798c0.42201,0.34899 0.93661,0.5298 1.54381,0.54246c0.61529,0.01283 1.13699,-0.14639 1.56506,-0.47765c0.43635,-0.33918 0.76551,-0.78185 0.98747,-1.32799c0.23022,-0.55406 0.3517,-1.1347 0.36435,-1.7419c0.01249,-0.59911 -0.08069,-1.18018 -0.27954,-1.74319c-0.19869,-0.57111 -0.50885,-1.03924 -0.93052,-1.40441c-0.42167,-0.36517 -0.94014,-0.55418 -1.55544,-0.567z" fill="#ffffff" stroke="none" stroke-width="0.40889" stroke-linecap="butt"/><path d="M276.54055,174.62686c0.92294,0.01923 1.77715,0.22739 2.56263,0.62443c0.79374,0.38913 1.46723,0.91343 2.02045,1.57293c0.56132,0.65966 0.98719,1.4056 1.27763,2.23779c0.29854,0.83238 0.43818,1.71004 0.41895,2.63299c-0.01941,0.93103 -0.19576,1.81427 -0.52905,2.64967c-0.32502,0.82748 -0.77344,1.55114 -1.34523,2.17097c-0.56353,0.61191 -1.25397,1.09564 -2.07133,1.45119c-0.8091,0.34762 -1.68323,0.51164 -2.62235,0.49207c-1.23869,-0.02582 -2.34143,-0.35659 -3.30822,-0.99231c-0.96662,-0.6438 -1.71019,-1.49761 -2.23068,-2.56138c-0.51223,-1.07171 -0.75535,-2.23097 -0.72936,-3.47775c0.01856,-0.89056 0.19036,-1.74958 0.51539,-2.57706c0.3333,-0.83541 0.79419,-1.57499 1.38267,-2.21879c0.58848,-0.6438 1.28331,-1.14363 2.08449,-1.4995c0.80118,-0.35589 1.65919,-0.52428 2.57402,-0.50523zM276.4722,177.90576c-0.59911,-0.01249 -1.12096,0.15484 -1.56557,0.50194c-0.43635,0.33918 -0.76567,0.78994 -0.98798,1.35227c-0.22231,0.56233 -0.33971,1.14306 -0.35219,1.74217c-0.01266,0.6072 0.08044,1.19231 0.27929,1.75531c0.20712,0.55509 0.51754,1.01108 0.93128,1.36799c0.42201,0.34899 0.93661,0.5298 1.54381,0.54245c0.61529,0.01283 1.13699,-0.14639 1.56506,-0.47764c0.43635,-0.33918 0.76551,-0.78185 0.98747,-1.32799c0.23022,-0.55406 0.3517,-1.1347 0.36435,-1.7419c0.01249,-0.59911 -0.08069,-1.18018 -0.27955,-1.74319c-0.19869,-0.57111 -0.50885,-1.03924 -0.93052,-1.40442c-0.42167,-0.36517 -0.94014,-0.55417 -1.55544,-0.56699z" fill="#ffffff" stroke="none" stroke-width="0.40889" stroke-linecap="butt"/><g fill="none" stroke="#ffffff" stroke-width="1"><path d="M222.04348,190.47127l3.26767,-0.2558c0,0 -0.6973,1.48065 -1.28959,2.15237c-0.6277,0.71187 -2.37659,2.00543 -2.37659,2.00543" stroke-linecap="round"/><path d="M226.26045,194.08486l-2.02466,-1.80185" stroke-linecap="round"/><path d="M227.33616,190.11066l3.6128,-0.29791c0,0 -0.0111,1.33817 -0.30729,1.98073c-0.63685,1.38159 -2.58642,2.39088 -2.58642,2.39088" stroke-linecap="round"/><path d="M231.47889,189.2857c0.00761,-0.36475 0.30946,-0.65428 0.67419,-0.64667c0.36475,0.00761 0.65429,0.30947 0.64667,0.67421c-0.00761,0.36475 -0.30946,0.65428 -0.67421,0.64667c-0.36475,-0.00761 -0.65428,-0.30946 -0.64667,-0.6742z" stroke-linecap="butt"/><path d="M237.00235,189.2148l-2.88038,0.23521" stroke-linecap="round"/><path d="M233.37793,191.02975l4.25094,-0.29138c0,0 -0.04514,0.97833 -0.55656,1.59604c-1.13438,1.37014 -2.63184,1.52928 -2.63184,1.52928" stroke-linecap="round"/><path d="M239.58595,193.88793l-0.18068,-4.86496" stroke-linecap="round"/><path d="M242.27355,192.26911l-2.68269,-1.34728" stroke-linecap="round"/><path d="M244.96253,190.34329l0.12094,0.98822" stroke-linecap="round"/><path d="M243.81575,192.37868l-0.03733,-0.73782l2.45211,-0.24666c0,0 0.07941,0.61897 -0.10167,0.93411c-0.38936,0.67758 -1.45525,1.21721 -1.45525,1.21721" stroke-linecap="round"/><path d="M252.58991,191.61429l-4.65644,0.26603" stroke-linecap="round"/><path d="M255.85354,189.54627l-1.70536,-0.07415" stroke-linecap="round"/><path d="M258.53694,189.21713c0,0 -0.11312,1.50124 -1.18903,2.68506c-1.1218,1.23432 -2.96075,1.43407 -2.96075,1.43407" stroke-linecap="round"/></g></g></g></svg>