<svg version="1.1" xmlns="http://www.w3.org/2000/svg" xmlns:xlink="http://www.w3.org/1999/xlink" width="37.6" height="43.6" viewBox="0,0,37.6,43.6"><g transform="translate(-221.20006,-158.2)"><g data-paper-data="{&quot;isPaintingLayer&quot;:true}" fill-rule="nonzero" stroke="none" stroke-linecap="butt" stroke-linejoin="miter" stroke-miterlimit="10" stroke-dasharray="" stroke-dashoffset="0" style="mix-blend-mode: normal"><path d="M221.20006,201.8v-43.6h37.6v43.6z" fill="none" stroke-width="0"/><path d="M248.93968,176.10477c0,0.67783 -0.21691,1.32853 -0.65072,1.95213c-0.43381,0.62359 -0.98285,0.93539 -1.64711,0.93539c-0.43379,0 -1.15906,-0.19657 -2.17579,-0.58971c-1.00318,-0.39312 -1.85724,-0.58968 -2.56218,-0.58968c-1.07095,0 -1.99278,0.29146 -2.7655,0.87438c-0.75915,0.56937 -1.32853,1.32175 -1.70812,2.25714c-0.37958,0.93539 -0.56936,1.93178 -0.56936,2.98918c0,1.59967 0.45414,3.00954 1.36242,4.22961c0.90828,1.20651 2.13513,1.80977 3.68056,1.80977c0.42025,0 0.87439,-0.07452 1.36242,-0.22356c0.48805,-0.16262 1.07776,-0.37274 1.76913,-0.63037c0.70493,-0.25758 1.14552,-0.38637 1.32175,-0.38637c0.46092,0 0.88794,0.12201 1.28106,0.36602c0.39314,0.23045 0.70494,0.54903 0.93541,0.95573c0.24401,0.39314 0.36602,0.82694 0.36602,1.30141c0,0.93539 -0.43381,1.71488 -1.30143,2.33849c-0.85404,0.62359 -1.86399,1.07773 -3.02985,1.36242c-1.16586,0.28469 -2.16903,0.42703 -3.00953,0.42703c-2.07413,0 -3.93136,-0.51515 -5.57168,-1.54544c-1.64032,-1.04384 -2.91462,-2.44693 -3.8229,-4.20926c-0.89473,-1.77588 -1.3421,-3.70767 -1.3421,-5.79537c0,-1.4912 0.25758,-2.93495 0.77273,-4.33126c0.5287,-1.40987 1.2743,-2.66384 2.23679,-3.76192c0.96251,-1.09807 2.10803,-1.95891 3.43656,-2.5825c1.32853,-0.62359 2.75872,-0.93539 4.29059,-0.93539c0.92184,0 1.95891,0.12879 3.1112,0.38637c1.16586,0.24401 2.16225,0.6507 2.98918,1.22006c0.82695,0.55583 1.24043,1.2811 1.24043,2.17581z" fill="#ff0000" stroke-width="0.40889"/></g></g></svg>