<svg version="1.1" xmlns="http://www.w3.org/2000/svg" xmlns:xlink="http://www.w3.org/1999/xlink" width="351.1543" height="244.29314" viewBox="0,0,351.1543,244.29314"><defs><radialGradient cx="218.33151" cy="79.97945" r="36.84521" gradientUnits="userSpaceOnUse" id="color-1"><stop offset="0" stop-color="#00b3ff" stop-opacity="0.19608"/><stop offset="1" stop-color="#00b3ff" stop-opacity="0"/></radialGradient><radialGradient cx="240.33151" cy="76.47945" r="36.84521" gradientUnits="userSpaceOnUse" id="color-2"><stop offset="0" stop-color="#ff0000" stop-opacity="0.19608"/><stop offset="1" stop-color="#ff0000" stop-opacity="0"/></radialGradient><radialGradient cx="183.83151" cy="98.47945" r="58.84521" gradientUnits="userSpaceOnUse" id="color-3"><stop offset="0" stop-color="#ff0000" stop-opacity="0.68627"/><stop offset="1" stop-color="#ff0000" stop-opacity="0"/></radialGradient><radialGradient cx="277.17671" cy="95.74246" r="56.10822" gradientUnits="userSpaceOnUse" id="color-4"><stop offset="0" stop-color="#00b3ff" stop-opacity="0.68627"/><stop offset="1" stop-color="#00b3ff" stop-opacity="0"/></radialGradient><radialGradient cx="266.69452" cy="222.34521" r="56.10822" gradientUnits="userSpaceOnUse" id="color-5"><stop offset="0" stop-color="#00b3ff" stop-opacity="0.68627"/><stop offset="1" stop-color="#00b3ff" stop-opacity="0"/></radialGradient><radialGradient cx="210.13014" cy="225.08219" r="58.84521" gradientUnits="userSpaceOnUse" id="color-6"><stop offset="0" stop-color="#ff0000" stop-opacity="0.68627"/><stop offset="1" stop-color="#ff0000" stop-opacity="0"/></radialGradient><radialGradient cx="351.73288" cy="207.74795" r="58.8452" gradientUnits="userSpaceOnUse" id="color-7"><stop offset="0" stop-color="#00b3ff" stop-opacity="0.68627"/><stop offset="1" stop-color="#00b3ff" stop-opacity="0"/></radialGradient><radialGradient cx="361.06713" cy="148.44658" r="57.93288" gradientUnits="userSpaceOnUse" id="color-8"><stop offset="0" stop-color="#00b3ff" stop-opacity="0.68627"/><stop offset="1" stop-color="#00b3ff" stop-opacity="0"/></radialGradient><radialGradient cx="333.28492" cy="95.74247" r="56.10822" gradientUnits="userSpaceOnUse" id="color-9"><stop offset="0" stop-color="#00b3ff" stop-opacity="0.68627"/><stop offset="1" stop-color="#00b3ff" stop-opacity="0"/></radialGradient><radialGradient cx="130.26713" cy="119.8137" r="58.8452" gradientUnits="userSpaceOnUse" id="color-10"><stop offset="0" stop-color="#ff0000" stop-opacity="0.68627"/><stop offset="1" stop-color="#ff0000" stop-opacity="0"/></radialGradient><radialGradient cx="125.77858" cy="191.75206" r="57.93288" gradientUnits="userSpaceOnUse" id="color-11"><stop offset="0" stop-color="#ff0000" stop-opacity="0.68627"/><stop offset="1" stop-color="#ff0000" stop-opacity="0"/></radialGradient><radialGradient cx="160.86439" cy="218.69589" r="56.10822" gradientUnits="userSpaceOnUse" id="color-12"><stop offset="0" stop-color="#ff0000" stop-opacity="0.68627"/><stop offset="1" stop-color="#ff0000" stop-opacity="0"/></radialGradient><linearGradient x1="112.70838" y1="164" x2="369.29177" y2="164" gradientUnits="userSpaceOnUse" id="color-13"><stop offset="0" stop-color="#ff0000"/><stop offset="1" stop-color="#00b3ff"/></linearGradient><linearGradient x1="369.29173" y1="164.00007" x2="269.75005" y2="164.00007" gradientUnits="userSpaceOnUse" id="color-14"><stop offset="0" stop-color="#00b3ff"/><stop offset="1" stop-color="#00b3ff" stop-opacity="0"/></linearGradient><linearGradient x1="112.70838" y1="164.00007" x2="212.25005" y2="164.00007" gradientUnits="userSpaceOnUse" id="color-15"><stop offset="0" stop-color="#ff0000"/><stop offset="1" stop-color="#ff0000" stop-opacity="0"/></linearGradient><linearGradient x1="241.00005" y1="88.75007" x2="241.00005" y2="239.25007" gradientUnits="userSpaceOnUse" id="color-16"><stop offset="0" stop-color="#ffffff" stop-opacity="0"/><stop offset="1" stop-color="#ffffff" stop-opacity="0.25098"/></linearGradient><linearGradient x1="129.47871" y1="189.61507" x2="129.47871" y2="210.70673" gradientUnits="userSpaceOnUse" id="color-17"><stop offset="0" stop-color="#ffffff" stop-opacity="0.4"/><stop offset="1" stop-color="#ffffff" stop-opacity="0"/></linearGradient><linearGradient x1="144.92811" y1="157.23699" x2="144.92811" y2="169.95062" gradientUnits="userSpaceOnUse" id="color-18"><stop offset="0" stop-color="#ffffff" stop-opacity="0.4"/><stop offset="1" stop-color="#ffffff" stop-opacity="0"/></linearGradient><linearGradient x1="142.57316" y1="96.15094" x2="142.57316" y2="131.32466" gradientUnits="userSpaceOnUse" id="color-19"><stop offset="0" stop-color="#ffffff" stop-opacity="0.4"/><stop offset="1" stop-color="#ffffff" stop-opacity="0"/></linearGradient><linearGradient x1="162.93288" y1="129.75824" x2="162.93288" y2="141.47188" gradientUnits="userSpaceOnUse" id="color-20"><stop offset="0" stop-color="#ffffff" stop-opacity="0.4"/><stop offset="1" stop-color="#ffffff" stop-opacity="0"/></linearGradient><linearGradient x1="142.72871" y1="225.61507" x2="142.72871" y2="237.20673" gradientUnits="userSpaceOnUse" id="color-21"><stop offset="0" stop-color="#ffffff" stop-opacity="0.4"/><stop offset="1" stop-color="#ffffff" stop-opacity="0"/></linearGradient><linearGradient x1="163.97871" y1="195.11507" x2="163.97871" y2="202.20673" gradientUnits="userSpaceOnUse" id="color-22"><stop offset="0" stop-color="#ffffff" stop-opacity="0.4"/><stop offset="1" stop-color="#ffffff" stop-opacity="0"/></linearGradient><linearGradient x1="122.47871" y1="139.11506" x2="122.47871" y2="148.20673" gradientUnits="userSpaceOnUse" id="color-23"><stop offset="0" stop-color="#ffffff" stop-opacity="0.4"/><stop offset="1" stop-color="#ffffff" stop-opacity="0"/></linearGradient><linearGradient x1="182.47871" y1="225.61507" x2="182.47871" y2="234.70673" gradientUnits="userSpaceOnUse" id="color-24"><stop offset="0" stop-color="#ffffff" stop-opacity="0.4"/><stop offset="1" stop-color="#ffffff" stop-opacity="0"/></linearGradient><linearGradient x1="172.47871" y1="155.61506" x2="172.47871" y2="164.70673" gradientUnits="userSpaceOnUse" id="color-25"><stop offset="0" stop-color="#ffffff" stop-opacity="0.4"/><stop offset="1" stop-color="#ffffff" stop-opacity="0"/></linearGradient><linearGradient x1="177.47871" y1="93.11506" x2="177.47871" y2="102.20673" gradientUnits="userSpaceOnUse" id="color-26"><stop offset="0" stop-color="#ffffff" stop-opacity="0.4"/><stop offset="1" stop-color="#ffffff" stop-opacity="0"/></linearGradient><linearGradient x1="349.52139" y1="139.20672" x2="349.52139" y2="118.11506" gradientUnits="userSpaceOnUse" id="color-27"><stop offset="0" stop-color="#ffffff" stop-opacity="0"/><stop offset="1" stop-color="#ffffff" stop-opacity="0.4"/></linearGradient><linearGradient x1="337.07199" y1="164.0848" x2="337.07199" y2="151.37115" gradientUnits="userSpaceOnUse" id="color-28"><stop offset="0" stop-color="#ffffff" stop-opacity="0"/><stop offset="1" stop-color="#ffffff" stop-opacity="0.4"/></linearGradient><linearGradient x1="339.42694" y1="234.17085" x2="339.42694" y2="198.99713" gradientUnits="userSpaceOnUse" id="color-29"><stop offset="0" stop-color="#ffffff" stop-opacity="0"/><stop offset="1" stop-color="#ffffff" stop-opacity="0.4"/></linearGradient><linearGradient x1="361.81722" y1="142.06354" x2="361.81722" y2="132.84991" gradientUnits="userSpaceOnUse" id="color-30"><stop offset="0" stop-color="#ffffff" stop-opacity="0"/><stop offset="1" stop-color="#ffffff" stop-opacity="0.4"/></linearGradient><linearGradient x1="356.56722" y1="192.56354" x2="356.56722" y2="180.8499" gradientUnits="userSpaceOnUse" id="color-31"><stop offset="0" stop-color="#ffffff" stop-opacity="0"/><stop offset="1" stop-color="#ffffff" stop-opacity="0.4"/></linearGradient><linearGradient x1="339.27139" y1="104.70672" x2="339.27139" y2="93.11506" gradientUnits="userSpaceOnUse" id="color-32"><stop offset="0" stop-color="#ffffff" stop-opacity="0"/><stop offset="1" stop-color="#ffffff" stop-opacity="0.4"/></linearGradient><linearGradient x1="318.02139" y1="135.20672" x2="318.02139" y2="128.11506" gradientUnits="userSpaceOnUse" id="color-33"><stop offset="0" stop-color="#ffffff" stop-opacity="0"/><stop offset="1" stop-color="#ffffff" stop-opacity="0.4"/></linearGradient><linearGradient x1="299.52139" y1="104.70672" x2="299.52139" y2="95.61506" gradientUnits="userSpaceOnUse" id="color-34"><stop offset="0" stop-color="#ffffff" stop-opacity="0"/><stop offset="1" stop-color="#ffffff" stop-opacity="0.4"/></linearGradient><linearGradient x1="309.52139" y1="174.70672" x2="309.52139" y2="165.61506" gradientUnits="userSpaceOnUse" id="color-35"><stop offset="0" stop-color="#ffffff" stop-opacity="0"/><stop offset="1" stop-color="#ffffff" stop-opacity="0.4"/></linearGradient><linearGradient x1="304.52139" y1="237.20672" x2="304.52139" y2="228.11506" gradientUnits="userSpaceOnUse" id="color-36"><stop offset="0" stop-color="#ffffff" stop-opacity="0"/><stop offset="1" stop-color="#ffffff" stop-opacity="0.4"/></linearGradient><linearGradient x1="190.25" y1="97.63294" x2="190.25" y2="128.36705" gradientUnits="userSpaceOnUse" id="color-37"><stop offset="0" stop-color="#ffffff"/><stop offset="1" stop-color="#ffffff" stop-opacity="0.50196"/></linearGradient><linearGradient x1="157.36439" y1="180.69589" x2="157.36439" y2="221.69589" gradientUnits="userSpaceOnUse" id="color-38"><stop offset="0" stop-color="#ffffff" stop-opacity="0.50196"/><stop offset="1" stop-color="#ffffff"/></linearGradient><linearGradient x1="177.75" y1="214.75" x2="177.75" y2="230.75" gradientUnits="userSpaceOnUse" id="color-39"><stop offset="0" stop-color="#ffffff"/><stop offset="1" stop-color="#ffffff" stop-opacity="0.50196"/></linearGradient></defs><g transform="translate(-67.8457,-39.63424)"><g data-paper-data="{&quot;isPaintingLayer&quot;:true}" fill-rule="nonzero" stroke-linecap="butt" stroke-linejoin="miter" stroke-miterlimit="10" stroke-dasharray="" stroke-dashoffset="0" style="mix-blend-mode: normal"><path d="M181.4863,79.97945c0,-20.34905 16.49616,-36.8452 36.8452,-36.8452c20.34904,0 36.84521,16.49616 36.84521,36.84521c0,20.34905 -16.49617,36.84521 -36.84521,36.84521c-20.34904,0 -36.8452,-16.49616 -36.8452,-36.84521z" fill="url(#color-1)" stroke="none" stroke-width="0"/><path d="M203.4863,76.47945c0,-20.34905 16.49616,-36.8452 36.8452,-36.8452c20.34904,0 36.84521,16.49616 36.84521,36.84521c0,20.34905 -16.49617,36.84521 -36.84521,36.84521c-20.34904,0 -36.8452,-16.49616 -36.8452,-36.84521z" fill="url(#color-2)" stroke="none" stroke-width="0"/><path d="M124.9863,98.47945c0,-32.49931 26.34589,-58.8452 58.8452,-58.8452c32.49931,0 58.84521,26.3459 58.84521,58.84521c0,32.49931 -26.3459,58.84521 -58.84521,58.84521c-32.49931,0 -58.8452,-26.3459 -58.8452,-58.84521z" fill="url(#color-3)" stroke="none" stroke-width="0"/><path d="M333.28493,95.74246c0,30.98771 -25.12051,56.10822 -56.10822,56.10822c-30.98772,0 -56.10822,-25.12051 -56.10822,-56.10822c0,-30.98771 25.12051,-56.10821 56.10822,-56.10821c30.98771,0 56.10822,25.1205 56.10822,56.10821z" data-paper-data="{&quot;index&quot;:null}" fill="url(#color-4)" stroke="none" stroke-width="0"/><path d="M322.80274,222.34521c0,30.98772 -25.1205,56.10822 -56.10822,56.10822c-30.98772,0 -56.10822,-25.1205 -56.10822,-56.10822c0,-30.98772 25.12051,-56.10822 56.10822,-56.10822c30.98771,0 56.10822,25.1205 56.10822,56.10822z" data-paper-data="{&quot;index&quot;:null}" fill="url(#color-5)" stroke="none" stroke-width="0"/><path d="M151.28493,225.08219c0,-32.49931 26.34589,-58.8452 58.8452,-58.8452c32.49931,0 58.84521,26.34589 58.84521,58.8452c0,32.49931 -26.3459,58.8452 -58.84521,58.8452c-32.49931,0 -58.8452,-26.34589 -58.8452,-58.8452z" fill="url(#color-6)" stroke="none" stroke-width="0"/><path d="M410.57808,207.74795c0,32.49931 -26.3459,58.8452 -58.84521,58.8452c-32.49931,0 -58.8452,-26.34589 -58.8452,-58.8452c0,-32.49931 26.34589,-58.8452 58.8452,-58.8452c32.49931,0 58.84521,26.34589 58.84521,58.8452z" data-paper-data="{&quot;index&quot;:null}" fill="url(#color-7)" stroke="none" stroke-width="0"/><path d="M419,148.44658c0,31.99544 -25.93743,57.93288 -57.93288,57.93288c-31.99545,0 -57.93288,-25.93743 -57.93288,-57.93287c0,-31.99545 25.93743,-57.93287 57.93288,-57.93287c31.99545,0 57.93288,25.93743 57.93288,57.93288z" data-paper-data="{&quot;index&quot;:null}" fill="url(#color-8)" stroke="none" stroke-width="0"/><path d="M389.39315,95.74247c0,30.98771 -25.12051,56.10822 -56.10822,56.10822c-30.98771,0 -56.10822,-25.12051 -56.10822,-56.10822c0,-30.98771 25.1205,-56.10822 56.10822,-56.10822c30.98771,0 56.10822,25.12051 56.10822,56.10822z" data-paper-data="{&quot;index&quot;:null}" fill="url(#color-9)" stroke="none" stroke-width="0"/><path d="M71.42192,119.8137c0,-32.49931 26.34589,-58.8452 58.8452,-58.8452c32.49931,0 58.8452,26.3459 58.8452,58.84521c0,32.49931 -26.34589,58.84521 -58.8452,58.84521c-32.49931,0 -58.8452,-26.3459 -58.8452,-58.84521z" fill="url(#color-10)" stroke="none" stroke-width="0"/><path d="M67.8457,191.75206c0,-31.99544 25.93743,-57.93288 57.93288,-57.93288c31.99544,0 57.93288,25.93744 57.93288,57.93288c0,31.99544 -25.93744,57.93288 -57.93288,57.93288c-31.99545,0 -57.93287,-25.93743 -57.93287,-57.93287z" fill="url(#color-11)" stroke="none" stroke-width="0"/><path d="M104.75617,218.69589c0,-30.98772 25.1205,-56.10822 56.10822,-56.10822c30.98772,0 56.10822,25.1205 56.10822,56.10822c0,30.98772 -25.1205,56.10822 -56.10822,56.10822c-30.98772,0 -56.10822,-25.1205 -56.10822,-56.10822z" fill="url(#color-12)" stroke="none" stroke-width="0"/><path d="M120.70838,230.75007c-7.18676,-7.18603 -8,-17.53901 -8,-17.53901v-98.4082c0,0 0.93707,-10.73679 8.125,-17.92779c7.18793,-7.191 17.91667,-8.125 17.91667,-8.125h204.5c0,0 9.94724,0.4718 17.16667,7.625c7.21943,7.15321 8.875,18.17779 8.875,18.17779v98.97064c0,0 -1.29073,10.73869 -8.5,17.72657c-7.20927,6.98788 -18.04167,8 -18.04167,8h-204c0,0 -10.85491,-1.31397 -18.04167,-8.5z" fill="url(#color-13)" stroke="none" stroke-width="0"/><g stroke="none" stroke-width="0"><path d="M361.29173,97.25007c7.18676,7.18604 8,17.53901 8,17.53901v98.40821c0,0 -0.93707,10.7368 -8.125,17.92779c-7.18793,7.191 -17.91667,8.12499 -17.91667,8.12499h-73.5l73.5,-150.5c0,0 10.85491,1.31398 18.04167,8.5z" data-paper-data="{&quot;index&quot;:null}" fill="url(#color-14)"/><path d="M120.70837,230.75008c-7.18676,-7.18604 -7.99999,-17.53902 -7.99999,-17.53902v-98.40821c0,0 0.93708,-10.73679 8.125,-17.92779c7.18792,-7.19101 17.91667,-8.125 17.91667,-8.125h73.5l-73.5,150.5c0,0 -10.85491,-1.31397 -18.04167,-8.49999z" fill="url(#color-15)"/></g><path d="M120.70838,230.75007c-7.18676,-7.18603 -8,-17.53901 -8,-17.53901v-98.4082c0,0 0.93707,-10.73679 8.125,-17.92779c7.18793,-7.191 17.91667,-8.125 17.91667,-8.125h204.5c0,0 9.94724,0.4718 17.16667,7.625c7.21943,7.15321 8.875,18.17779 8.875,18.17779v98.97064c0,0 -1.29073,10.73869 -8.5,17.72657c-7.20927,6.98788 -18.04167,8 -18.04167,8h-204c0,0 -10.85491,-1.31397 -18.04167,-8.5z" data-paper-data="{&quot;index&quot;:null}" fill="url(#color-16)" stroke="none" stroke-width="0"/><text transform="translate(133.04994,175.10636) rotate(-6.97502) scale(0.79392,0.79392)" font-size="40" xml:space="preserve" data-paper-data="{&quot;index&quot;:null}" fill="#ffffff" fill-rule="nonzero" stroke="none" stroke-width="1" stroke-linecap="butt" stroke-linejoin="miter" stroke-miterlimit="10" stroke-dasharray="" stroke-dashoffset="0" font-family="Sans Serif" font-weight="normal" text-anchor="start" style="mix-blend-mode: normal"><tspan x="0" dy="0">Balloon Battle</tspan></text><text transform="translate(191.21455,218.12719) rotate(-8.14072) scale(1.20775,1.20775)" font-size="40" xml:space="preserve" data-paper-data="{&quot;index&quot;:null}" fill="#ffffff" fill-rule="nonzero" stroke="none" stroke-width="1" stroke-linecap="butt" stroke-linejoin="miter" stroke-miterlimit="10" stroke-dasharray="" stroke-dashoffset="0" font-family="Sans Serif" font-weight="normal" text-anchor="start" style="mix-blend-mode: normal"><tspan x="0" dy="0">Online</tspan></text><g stroke="#ffffff" stroke-width="0"><path d="M118.93288,200.1609c0,-5.8243 4.72153,-10.54583 10.54583,-10.54583c5.8243,0 10.54583,4.72153 10.54583,10.54583c0,5.8243 -4.72153,10.54583 -10.54583,10.54583c-5.8243,0 -10.54583,-4.72153 -10.54583,-10.54583z" fill="url(#color-17)"/><path d="M138.57129,163.5938c0,-3.51077 2.84604,-6.35682 6.35682,-6.35682c3.51077,0 6.35682,2.84604 6.35682,6.35682c0,3.51077 -2.84604,6.35682 -6.35682,6.35682c-3.51077,0 -6.35682,-2.84604 -6.35682,-6.35682z" fill="url(#color-18)"/><path d="M124.9863,113.7378c0,-9.71296 7.87391,-17.58686 17.58686,-17.58686c9.71296,0 17.58686,7.87391 17.58686,17.58686c0,9.71296 -7.87391,17.58686 -17.58686,17.58686c-9.71296,0 -17.58686,-7.87391 -17.58686,-17.58686z" fill="url(#color-19)"/><path d="M157.07607,135.61506c0,-3.23463 2.62218,-5.85682 5.85681,-5.85682c3.23463,0 5.85682,2.62219 5.85682,5.85682c0,3.23463 -2.62219,5.85682 -5.85682,5.85682c-3.23463,0 -5.85681,-2.62219 -5.85681,-5.85682z" fill="url(#color-20)"/><path d="M136.93288,231.4109c0,-3.20095 2.59488,-5.79583 5.79583,-5.79583c3.20095,0 5.79583,2.59488 5.79583,5.79583c0,3.20095 -2.59488,5.79583 -5.79583,5.79583c-3.20095,0 -5.79583,-2.59488 -5.79583,-5.79583z" fill="url(#color-21)"/><path d="M160.43288,198.6609c0,-1.95831 1.58752,-3.54583 3.54583,-3.54583c1.95831,0 3.54583,1.58752 3.54583,3.54583c0,1.95831 -1.58752,3.54583 -3.54583,3.54583c-1.95831,0 -3.54583,-1.58752 -3.54583,-3.54583z" fill="url(#color-22)"/><path d="M117.93288,143.66089c0,-2.51059 2.03524,-4.54583 4.54583,-4.54583c2.51059,0 4.54583,2.03524 4.54583,4.54583c0,2.5106 -2.03523,4.54583 -4.54583,4.54583c-2.51059,0 -4.54583,-2.03523 -4.54583,-4.54583z" fill="url(#color-23)"/><path d="M177.93288,230.1609c0,-2.51059 2.03524,-4.54583 4.54583,-4.54583c2.51059,0 4.54583,2.03524 4.54583,4.54583c0,2.5106 -2.03523,4.54583 -4.54583,4.54583c-2.51059,0 -4.54583,-2.03523 -4.54583,-4.54583z" fill="url(#color-24)"/><path d="M167.93288,160.1609c0,-2.51059 2.03524,-4.54583 4.54583,-4.54583c2.51059,0 4.54583,2.03524 4.54583,4.54583c0,2.51059 -2.03523,4.54583 -4.54583,4.54583c-2.51059,0 -4.54583,-2.03523 -4.54583,-4.54583z" fill="url(#color-25)"/><path d="M172.93288,97.6609c0,-2.51059 2.03524,-4.54583 4.54583,-4.54583c2.51059,0 4.54583,2.03524 4.54583,4.54583c0,2.51059 -2.03523,4.54583 -4.54583,4.54583c-2.51059,0 -4.54583,-2.03523 -4.54583,-4.54583z" fill="url(#color-26)"/></g><g data-paper-data="{&quot;index&quot;:null}" stroke="#ffffff" stroke-width="0"><path d="M360.06722,128.66089c0,5.8243 -4.72153,10.54583 -10.54583,10.54583c-5.8243,0 -10.54583,-4.72153 -10.54583,-10.54583c0,-5.8243 4.72153,-10.54583 10.54583,-10.54583c5.8243,0 10.54583,4.72153 10.54583,10.54583z" fill="url(#color-27)"/><path d="M343.42881,157.72797c0,3.51077 -2.84604,6.35682 -6.35682,6.35682c-3.51077,0 -6.35682,-2.84604 -6.35682,-6.35682c0,-3.51077 2.84604,-6.35682 6.35682,-6.35682c3.51077,0 6.35682,2.84604 6.35682,6.35682z" fill="url(#color-28)"/><path d="M357.0138,216.58399c0,9.71296 -7.87391,17.58686 -17.58686,17.58686c-9.71296,0 -17.58686,-7.87391 -17.58686,-17.58686c0,-9.71296 7.87391,-17.58686 17.58686,-17.58686c9.71296,0 17.58686,7.87391 17.58686,17.58686z" fill="url(#color-29)"/><path d="M366.42404,137.45672c0,2.54428 -2.06254,4.60682 -4.60682,4.60682c-2.54428,0 -4.60682,-2.06254 -4.60682,-4.60682c0,-2.54428 2.06254,-4.60682 4.60682,-4.60682c2.54428,0 4.60682,2.06254 4.60682,4.60682z" fill="url(#color-30)"/><path d="M362.42403,186.70672c0,3.23463 -2.62218,5.85682 -5.85681,5.85682c-3.23463,0 -5.85682,-2.62219 -5.85682,-5.85682c0,-3.23463 2.62219,-5.85682 5.85682,-5.85682c3.23463,0 5.85681,2.62219 5.85681,5.85682z" fill="url(#color-31)"/><path d="M345.06722,98.91089c0,3.20095 -2.59488,5.79583 -5.79583,5.79583c-3.20095,0 -5.79583,-2.59488 -5.79583,-5.79583c0,-3.20095 2.59488,-5.79583 5.79583,-5.79583c3.20095,0 5.79583,2.59488 5.79583,5.79583z" fill="url(#color-32)"/><path d="M321.56722,131.66089c0,1.95831 -1.58752,3.54583 -3.54583,3.54583c-1.95831,0 -3.54583,-1.58752 -3.54583,-3.54583c0,-1.95831 1.58752,-3.54583 3.54583,-3.54583c1.95831,0 3.54583,1.58752 3.54583,3.54583z" fill="url(#color-33)"/><path d="M304.06722,100.16089c0,2.51059 -2.03523,4.54583 -4.54583,4.54583c-2.51059,0 -4.54583,-2.03523 -4.54583,-4.54583c0,-2.5106 2.03524,-4.54583 4.54583,-4.54583c2.5106,0 4.54583,2.03524 4.54583,4.54583z" fill="url(#color-34)"/><path d="M314.06722,170.16089c0,2.51059 -2.03523,4.54583 -4.54583,4.54583c-2.51059,0 -4.54583,-2.03524 -4.54583,-4.54583c0,-2.51059 2.03524,-4.54583 4.54583,-4.54583c2.5106,0 4.54583,2.03524 4.54583,4.54583z" fill="url(#color-35)"/><path d="M309.06722,232.66089c0,2.51059 -2.03523,4.54583 -4.54583,4.54583c-2.51059,0 -4.54583,-2.03524 -4.54583,-4.54583c0,-2.51059 2.03524,-4.54583 4.54583,-4.54583c2.5106,0 4.54583,2.03524 4.54583,4.54583z" fill="url(#color-36)"/></g><path d="M191.85396,99.01692c26.26671,3.51492 46.84196,12.62475 45.95612,20.34739c-0.88584,7.72264 -22.89733,11.13367 -49.16404,7.61875c-26.26671,-3.51492 -46.84196,-12.62475 -45.95612,-20.34739c0.88584,-7.72264 22.89733,-11.13367 49.16404,-7.61875z" data-paper-data="{&quot;index&quot;:null}" fill="url(#color-37)" stroke="#8f8f8f" stroke-width="0"/><g fill="#000000" stroke="none" stroke-width="0.40889"><path d="M180.60963,119.58017l1.98853,-14.89286c0.09418,-0.70541 0.35089,-1.25 0.7701,-1.63379c0.41921,-0.38379 0.9727,-0.52976 1.66047,-0.43793l6.71898,0.89713c0.61723,0.08241 1.06425,0.33057 1.34105,0.74447c0.2868,0.40625 0.39605,0.8651 0.32776,1.37652c-0.04474,0.33506 -0.1609,0.63368 -0.34847,0.89582c-0.1864,0.25333 -0.43686,0.44875 -0.75138,0.58624c-0.30571,0.13868 -0.66136,0.18094 -1.06697,0.12678l-4.77471,-0.63753l-0.52804,3.95468l4.44405,0.59338c0.63486,0.08477 1.1001,0.33087 1.39572,0.7383c0.29562,0.40743 0.4081,0.87568 0.33746,1.40474c-0.06593,0.49379 -0.30056,0.90671 -0.70389,1.23877c-0.40215,0.32324 -0.91184,0.44365 -1.52907,0.36124l-4.44405,-0.59338l-0.54923,4.11339l5.01279,0.66932c0.62605,0.08359 1.07747,0.33233 1.35427,0.74623c0.2868,0.40625 0.39546,0.86951 0.326,1.38974c-0.03885,0.29098 -0.15324,0.57636 -0.34317,0.85615c-0.18993,0.27978 -0.44216,0.48842 -0.75668,0.62593c-0.31453,0.1375 -0.6746,0.17917 -1.08021,0.12502l-6.98351,-0.93245c-0.5996,-0.08006 -1.07306,-0.33175 -1.4204,-0.75507c-0.34616,-0.43213 -0.47863,-0.9524 -0.3974,-1.56082z"/><path d="M160.69569,117.20647l2.05564,-15.39547c0.0883,-0.66132 0.34675,-1.15183 0.77535,-1.47155c0.42861,-0.31971 0.9383,-0.44013 1.52908,-0.36124c0.28215,0.03767 0.5834,0.16764 0.90374,0.38991c0.32034,0.22227 0.54839,0.46362 0.68413,0.72407l7.06775,12.60192l0.05283,0.00706l1.3669,-10.23719c0.0883,-0.66132 0.34675,-1.15183 0.77535,-1.47155c0.42861,-0.31971 0.9383,-0.44013 1.52908,-0.36124c0.60841,0.08124 1.07306,0.33175 1.39395,0.75153c0.33088,0.41214 0.45158,0.95328 0.36211,1.62342l-2.05564,15.39547c-0.08947,0.67014 -0.34852,1.16506 -0.77711,1.48477c-0.41861,0.31207 -0.93212,0.42748 -1.54053,0.34624c-0.24689,-0.03296 -0.5311,-0.15617 -0.85261,-0.36961c-0.31153,-0.2211 -0.55662,-0.46922 -0.73526,-0.74436l-7.07219,-12.4679l-0.05283,-0.00706l-1.34923,10.10493c-0.08947,0.67014 -0.34852,1.16506 -0.77711,1.48477c-0.41861,0.31207 -0.93212,0.42748 -1.54053,0.34624c-0.59078,-0.07888 -1.05102,-0.3288 -1.38073,-0.74977c-0.3297,-0.42096 -0.45041,-0.9621 -0.36211,-1.62342z"/><path d="M197.11169,121.99019l-1.46268,-15.25944c-0.0405,-0.30157 -0.03956,-0.61108 0.00283,-0.92853c0.0624,-0.46733 0.2985,-0.85761 0.70829,-1.17086c0.40979,-0.31325 0.89685,-0.4322 1.46117,-0.35685c1.17273,0.15658 1.80924,0.90122 1.90952,2.23389l0.76495,11.8142l0.05292,0.00706l5.10232,-11.39427c0.22464,-0.47259 0.54538,-0.82465 0.96221,-1.0562c0.41682,-0.23153 0.87214,-0.31433 1.36592,-0.2484c0.49379,0.06593 0.91142,0.26529 1.2529,0.59807c0.3503,0.33397 0.56743,0.75785 0.6514,1.27165l1.9341,12.33379l0.05292,0.00706l3.83781,-11.19962c0.20822,-0.61838 0.50604,-1.06773 0.89349,-1.34808c0.38862,-0.28915 0.90037,-0.39134 1.53523,-0.30657c0.57314,0.07653 1.01193,0.3191 1.31636,0.72771c0.30444,0.40862 0.42545,0.84659 0.36304,1.31391c-0.04003,0.2998 -0.11592,0.59929 -0.22767,0.89851l-5.41502,14.34111c-0.22231,0.58957 -0.59363,1.05156 -1.11394,1.38595c-0.5115,0.33558 -1.12876,0.45509 -1.8518,0.35855c-0.64369,-0.08595 -1.18328,-0.34647 -1.6188,-0.78156c-0.43551,-0.43509 -0.70319,-0.95099 -0.80302,-1.54768l-1.73773,-10.88058l-0.0529,-0.00706l-4.54479,10.04173c-0.24406,0.55078 -0.6333,0.97895 -1.16771,1.28454c-0.53441,0.30558 -1.12787,0.41482 -1.78037,0.3277c-0.71422,-0.09537 -1.27851,-0.37264 -1.69286,-0.83184c-0.40553,-0.45802 -0.63822,-1.00065 -0.69806,-1.62789z"/></g><path d="M136.86439,201.19589c0,-11.32184 9.17816,-20.5 20.5,-20.5c11.32184,0 20.5,9.17816 20.5,20.5c0,11.32184 -9.17816,20.5 -20.5,20.5c-11.32184,0 -20.5,-9.17816 -20.5,-20.5z" fill="url(#color-38)" stroke="#8f8f8f" stroke-width="0"/><path d="M169.75,230.75v-16h16z" fill="url(#color-39)" stroke="#8f8f8f" stroke-width="0"/></g></g></svg>