<svg version="1.1" xmlns="http://www.w3.org/2000/svg" xmlns:xlink="http://www.w3.org/1999/xlink" width="88.42581" height="88.42581" viewBox="0,0,88.42581,88.42581"><defs><linearGradient x1="240" y1="145" x2="240" y2="215" gradientUnits="userSpaceOnUse" id="color-1"><stop offset="0" stop-color="#fff387"/><stop offset="1" stop-color="#f9ca3a"/></linearGradient><linearGradient x1="213.09107" y1="179.21107" x2="198.85087" y2="192.71152" gradientUnits="userSpaceOnUse" id="color-2"><stop offset="0" stop-color="#b7fffd"/><stop offset="1" stop-color="#00b3ff"/></linearGradient><linearGradient x1="267.36545" y1="179.24332" x2="281.60564" y2="192.74377" gradientUnits="userSpaceOnUse" id="color-3"><stop offset="0" stop-color="#b7fffd"/><stop offset="1" stop-color="#00b3ff"/></linearGradient><linearGradient x1="240.542" y1="180.315" x2="240.542" y2="206.32988" gradientUnits="userSpaceOnUse" id="color-4"><stop offset="0" stop-color="#000000"/><stop offset="1" stop-color="#757575"/></linearGradient><linearGradient x1="240.3577" y1="180.97325" x2="240.3577" y2="186.73481" gradientUnits="userSpaceOnUse" id="color-5"><stop offset="0" stop-color="#949494"/><stop offset="1" stop-color="#e4e4e4"/></linearGradient></defs><g transform="translate(-195.78709,-135.78708)"><g data-paper-data="{&quot;isPaintingLayer&quot;:true}" fill-rule="nonzero" stroke-linejoin="miter" stroke-miterlimit="10" stroke-dasharray="" stroke-dashoffset="0" style="mix-blend-mode: normal"><path d="M195.7871,224.2129v-88.42581h88.42581v88.42581z" fill="none" stroke="none" stroke-width="0" stroke-linecap="butt"/><g><path d="M205,180c0,-19.32997 15.67003,-35 35,-35c19.32997,0 35,15.67003 35,35c0,19.32997 -15.67003,35 -35,35c-19.32997,0 -35,-15.67003 -35,-35z" fill="url(#color-1)" stroke="none" stroke-width="0" stroke-linecap="butt"/><path d="M216.7758,177.82662c0,0 2.65064,-3.85 9.16214,-3.85c7.67169,0 9.13571,3.85 9.13571,3.85" fill="none" stroke="#000000" stroke-width="3" stroke-linecap="round"/><path d="M212.44947,173.19766c0,0 1.17491,-3.55262 3.33336,-5.42354c2.62219,-2.11551 6.27831,-2.59624 6.27831,-2.59624" fill="none" stroke="#000000" stroke-width="2" stroke-linecap="round"/><path d="M209.08678,190.8062c-3.93232,3.72805 -7.82919,4.44391 -10.23591,1.90532c-2.40671,-2.53859 -2.4119,-5.13483 1.52042,-8.86288c3.93232,-3.72805 12.71978,-4.63757 12.71978,-4.63757c0,0 -0.07197,7.86708 -4.0043,11.59513z" fill="url(#color-2)" stroke="none" stroke-width="0" stroke-linecap="butt"/><path d="M267.36545,179.24332c0,0 8.53907,-0.08402 12.47139,3.64403c3.93232,3.72805 4.17552,7.31783 1.76881,9.85642c-2.40672,2.53859 -6.05519,2.81627 -9.98752,-0.91177c-3.93232,-3.72805 -4.25268,-12.58868 -4.25268,-12.58868z" data-paper-data="{&quot;index&quot;:null}" fill="url(#color-3)" stroke="none" stroke-width="0" stroke-linecap="butt"/><path d="M240.07529,206.32953c-26.43784,-0.11211 -25.27873,-25.34749 -25.27873,-25.34749c0,0 5.36962,5.54152 25.31493,5.48715c17.57569,-0.04791 26.18011,-5.07172 26.18011,-5.07172c0,0 -0.1746,24.59481 -26.21631,24.93206z" fill="url(#color-4)" stroke="#000000" stroke-width="0" stroke-linecap="round"/><path d="M215.08429,186.73481l-0.66683,-6.09378c0,0 17.08612,2.97506 25.81729,2.97506c8.64341,0 26.58973,-3.09079 26.58973,-3.09079l-1.1466,6.48388c0,0 -11.20093,4.2542 -25.44109,4.0112c-15.7722,-0.26914 -25.1525,-4.28557 -25.1525,-4.28557z" fill="url(#color-5)" stroke="none" stroke-width="0" stroke-linecap="butt"/><path d="M245.12419,178.10726c0,0 1.46402,-3.85 9.13571,-3.85c6.5115,0 9.16214,3.85 9.16214,3.85" data-paper-data="{&quot;index&quot;:null}" fill="none" stroke="#000000" stroke-width="3" stroke-linecap="round"/><path d="M257.93656,165.21014c0,0 3.65612,0.48072 6.2783,2.59624c2.15846,1.87092 3.33337,5.42354 3.33337,5.42354" data-paper-data="{&quot;index&quot;:null}" fill="none" stroke="#000000" stroke-width="2" stroke-linecap="round"/></g></g></g></svg>