<svg version="1.1" xmlns="http://www.w3.org/2000/svg" xmlns:xlink="http://www.w3.org/1999/xlink" width="37.6" height="43.6" viewBox="0,0,37.6,43.6"><g transform="translate(-221.20009,-158.2)"><g data-paper-data="{&quot;isPaintingLayer&quot;:true}" fill-rule="nonzero" stroke="none" stroke-linecap="butt" stroke-linejoin="miter" stroke-miterlimit="10" stroke-dasharray="" stroke-dashoffset="0" style="mix-blend-mode: normal"><path d="M221.20009,201.8v-43.6h37.6v43.6z" fill="none" stroke-width="0"/><path d="M230.95949,191.02961l9.41492,-13.23782h-6.95442c-0.77272,0 -1.41665,-0.23723 -1.93181,-0.7117c-0.51514,-0.48805 -0.77271,-1.13198 -0.77271,-1.93181c0,-0.79982 0.25757,-1.43697 0.77271,-1.91144c0.51516,-0.47448 1.15909,-0.71172 1.93181,-0.71172h13.62419c0.43379,0 0.8676,0.14234 1.30141,0.42703c0.43379,0.27112 0.65069,0.75915 0.65069,1.46409c0,0.39314 -0.04744,0.71172 -0.14233,0.95573c-0.09489,0.24401 -0.25757,0.52192 -0.48804,0.83372l-9.45559,13.23785h7.91017c0.78626,0 1.43697,0.23723 1.95213,0.7117c0.51514,0.47447 0.77271,1.11162 0.77271,1.91146c0,0.79982 -0.25757,1.43697 -0.77271,1.91144c-0.51516,0.47448 -1.16586,0.71172 -1.95213,0.71172h-13.94955c-0.70493,0 -1.28786,-0.17623 -1.74878,-0.5287c-0.46092,-0.36603 -0.69138,-0.86762 -0.69138,-1.50478c0,-0.51514 0.17623,-1.05739 0.5287,-1.62677z" fill="#ff0000" stroke-width="0.40889"/></g></g></svg>