<svg version="1.1" xmlns="http://www.w3.org/2000/svg" xmlns:xlink="http://www.w3.org/1999/xlink" width="69.78536" height="69.78536" viewBox="0,0,69.78536,69.78536"><defs><radialGradient cx="278.6072" cy="176.64153" r="34.89264" gradientUnits="userSpaceOnUse" id="color-1"><stop offset="0" stop-color="#000000" stop-opacity="0.63137"/><stop offset="1" stop-color="#000000" stop-opacity="0"/></radialGradient><linearGradient x1="278.9819" y1="211.53214" x2="278.2325" y2="141.75089" gradientUnits="userSpaceOnUse" id="color-2"><stop offset="0" stop-color="#ff5454"/><stop offset="1" stop-color="#eb0000"/></linearGradient><linearGradient x1="270.18642" y1="150.55756" x2="277.18532" y2="205.4711" gradientUnits="userSpaceOnUse" id="color-3"><stop offset="0" stop-color="#929292"/><stop offset="1" stop-color="#000000"/></linearGradient><linearGradient x1="259.89964" y1="181.37785" x2="283.61519" y2="177.66634" gradientUnits="userSpaceOnUse" id="color-4"><stop offset="0" stop-color="#c40000"/><stop offset="1" stop-color="#ff4141"/></linearGradient><linearGradient x1="287.84285" y1="145.51932" x2="295.69535" y2="207.13014" gradientUnits="userSpaceOnUse" id="color-5"><stop offset="0" stop-color="#929292"/><stop offset="1" stop-color="#000000"/></linearGradient><linearGradient x1="288.8399" y1="176.59388" x2="304.35921" y2="174.47878" gradientUnits="userSpaceOnUse" id="color-6"><stop offset="0" stop-color="#da0000"/><stop offset="1" stop-color="#ff4343"/></linearGradient><linearGradient x1="287.07415" y1="175.5911" x2="297.46809" y2="174.26636" gradientUnits="userSpaceOnUse" id="color-7"><stop offset="0" stop-color="#000000" stop-opacity="0.38824"/><stop offset="1" stop-color="#000000" stop-opacity="0"/></linearGradient><linearGradient x1="298.0543" y1="178.84161" x2="304.36809" y2="178.31713" gradientUnits="userSpaceOnUse" id="color-8"><stop offset="0" stop-color="#ffffff" stop-opacity="0"/><stop offset="1" stop-color="#ffffff" stop-opacity="0.80784"/></linearGradient><linearGradient x1="252.52181" y1="166.59493" x2="272.37731" y2="171.5175" gradientUnits="userSpaceOnUse" id="color-9"><stop offset="0" stop-color="#eb0000"/><stop offset="1" stop-color="#ff5454"/></linearGradient><linearGradient x1="256.70981" y1="190.28608" x2="276.56533" y2="195.20865" gradientUnits="userSpaceOnUse" id="color-10"><stop offset="0" stop-color="#eb0000"/><stop offset="1" stop-color="#ff5454"/></linearGradient></defs><g transform="translate(-243.71451,-141.74887)"><g data-paper-data="{&quot;isPaintingLayer&quot;:true}" fill-rule="nonzero" stroke-width="0" stroke-linecap="butt" stroke-linejoin="miter" stroke-miterlimit="10" stroke-dasharray="" stroke-dashoffset="0" style="mix-blend-mode: normal"><path d="M278.23249,141.75093c19.26955,-0.20694 35.05838,15.24637 35.26532,34.51593c0.20694,19.26957 -15.24638,35.05837 -34.51593,35.26532c-19.26955,0.20694 -35.05837,-15.24638 -35.26532,-34.51593c-0.20694,-19.26955 15.24638,-35.05837 34.51593,-35.26532z" data-paper-data="{&quot;index&quot;:null}" fill="url(#color-1)" stroke="url(#color-2)"/><g stroke="none"><path d="M288.94376,148.16688l7.47584,54.85276l-33.02061,-2.31327c0,0 -6.76043,-3.85871 -8.66885,-18.06224c-1.68069,-12.50882 3.27166,-21.53876 3.27166,-21.53876z" data-paper-data="{&quot;index&quot;:null}" fill="url(#color-3)"/><path d="M269.87137,205.19883l-8.26281,-12.9014l-3.49266,-24.81952l5.41208,-12.04947l16.96066,2.25992l0.68004,5.33558l-13.44987,-0.25094l-2.62,10.71641l1.6865,13.35981l5.53273,10.14002l12.15147,-4.21249l0.70842,5.5583z" fill="url(#color-4)"/><path d="M295.94975,207.09746c-7.51886,1.02816 -15.48581,-11.91576 -17.79475,-28.91106c-2.30891,-16.99531 1.91457,-31.60622 9.4334,-32.63437c7.51886,-1.02816 15.48582,11.91578 17.79475,28.91107c2.30891,16.99531 -1.91457,31.60619 -9.43342,32.63436z" data-paper-data="{&quot;index&quot;:null}" fill="url(#color-5)"/><path d="M299.89985,199.75181c-4.28554,0.58407 -9.23726,-9.78408 -11.05997,-23.15792c-1.82271,-13.37384 0.1738,-24.68896 4.45935,-25.27304c4.28554,-0.58407 9.23725,9.78408 11.05997,23.15792c1.82271,13.37384 -0.17381,24.68896 -4.45936,25.27303z" data-paper-data="{&quot;index&quot;:null}" fill="url(#color-6)"/><path d="M294.95638,200.59134l-6.12461,-19.06367l-1.23551,-15.8154c0,0 0.33308,-7.88795 1.79918,-10.90228c2.18555,-4.49346 5.05745,-3.95514 5.05745,-3.95514l6.35787,49.63805z" fill="url(#color-7)"/><path d="M304.82811,178.41965c0.66846,8.04696 -0.27139,14.99439 -2.0149,15.13922c-1.74351,0.14482 -4.09046,-6.67029 -4.75891,-14.71725c-0.66846,-8.04696 0.62976,-15.88026 2.37327,-16.02508c1.74351,-0.14482 3.73208,7.55617 4.40053,15.60313z" fill="url(#color-8)"/></g><path d="M252.52181,166.59493c1.35934,-5.48295 6.9061,-8.8258 12.38904,-7.46645c5.48295,1.35934 8.8258,6.9061 7.46645,12.38904c-1.35934,5.48295 -6.9061,8.8258 -12.38904,7.46646c-5.48295,-1.35934 -8.8258,-6.90611 -7.46645,-12.38904z" fill="url(#color-9)" stroke="#000000"/><path d="M256.70981,190.28608c1.35934,-5.48294 6.9061,-8.82581 12.38904,-7.46646c5.48295,1.35934 8.82581,6.9061 7.46647,12.38905c-1.35934,5.48294 -6.9061,8.8258 -12.38905,7.46646c-5.48295,-1.35934 -8.8258,-6.9061 -7.46646,-12.38904z" fill="url(#color-10)" stroke="#000000"/></g></g></svg>