<svg version="1.1" xmlns="http://www.w3.org/2000/svg" xmlns:xlink="http://www.w3.org/1999/xlink" width="37.6" height="43.6" viewBox="0,0,37.6,43.6"><g transform="translate(-221.20008,-158.2)"><g data-paper-data="{&quot;isPaintingLayer&quot;:true}" fill-rule="nonzero" stroke="none" stroke-linecap="butt" stroke-linejoin="miter" stroke-miterlimit="10" stroke-dasharray="" stroke-dashoffset="0" style="mix-blend-mode: normal"><path d="M221.20009,201.8v-43.6h37.6v43.6z" fill="none" stroke-width="0"/><path d="M250.68585,176.25469v14.82393c0,1.16586 -0.16268,2.10802 -0.48803,2.8265c-0.32535,0.7185 -1.12518,1.07775 -2.39948,1.07775c-0.81338,0 -1.44376,-0.21012 -1.89112,-0.63037c-0.4338,-0.43381 -0.75916,-1.07097 -0.97606,-1.91146c-1.5861,1.87079 -3.49078,2.80619 -5.71403,2.80619c-1.84367,0 -3.52467,-0.49481 -5.04298,-1.48443c-1.51832,-0.98962 -2.71128,-2.35882 -3.57889,-4.10759c-0.85405,-1.76234 -1.28108,-3.74835 -1.28108,-5.95805c0,-2.12835 0.44058,-4.08047 1.32175,-5.85635c0.88117,-1.78945 2.08091,-3.19253 3.59922,-4.20926c1.51832,-1.03029 3.17898,-1.54544 4.98198,-1.54544c1.12518,0 2.19614,0.23046 3.21287,0.69138c1.01673,0.46092 1.85045,1.14552 2.50116,2.0538c0.08134,-0.73204 0.39314,-1.32853 0.93539,-1.78945c0.55581,-0.47448 1.19974,-0.71172 1.93179,-0.71172c1.2743,0 2.07413,0.36602 2.39948,1.09807c0.32536,0.7185 0.48803,1.66067 0.48803,2.82653zM235.31291,183.69714c0,1.01673 0.17623,1.9928 0.5287,2.9282c0.36602,0.92182 0.9015,1.6742 1.60643,2.25714c0.71849,0.56936 1.5861,0.85403 2.60283,0.85403c1.46409,0 2.60283,-0.60326 3.41621,-1.80977c0.81338,-1.22007 1.22008,-2.62994 1.22008,-4.22961c0,-1.00317 -0.17623,-1.97244 -0.5287,-2.90783c-0.33891,-0.94895 -0.86761,-1.72167 -1.5861,-2.31815c-0.70493,-0.59648 -1.54543,-0.89472 -2.52149,-0.89472c-1.00317,0 -1.87078,0.29824 -2.60283,0.89472c-0.71849,0.58292 -1.25397,1.34885 -1.60643,2.2978c-0.35247,0.94895 -0.5287,1.92501 -0.5287,2.92818z" fill="#ff0000" stroke-width="0.40889"/></g></g></svg>