<svg version="1.1" xmlns="http://www.w3.org/2000/svg" xmlns:xlink="http://www.w3.org/1999/xlink" width="37.6" height="43.6" viewBox="0,0,37.6,43.6"><g transform="translate(-221.20006,-158.2)"><g data-paper-data="{&quot;isPaintingLayer&quot;:true}" fill-rule="nonzero" stroke="none" stroke-linecap="butt" stroke-linejoin="miter" stroke-miterlimit="10" stroke-dasharray="" stroke-dashoffset="0" style="mix-blend-mode: normal"><path d="M221.20006,201.8v-43.6h37.6v43.6z" fill="none" stroke-width="0"/><path d="M230.07227,191.55108v-25.64193c0,-0.98962 0.27112,-1.78945 0.81337,-2.3995c0.55583,-0.62359 1.2811,-0.93539 2.17581,-0.93539c0.58292,0 1.09807,0.14234 1.54544,0.42703c0.46092,0.27112 0.82016,0.66425 1.07772,1.17939c0.25758,0.50159 0.38637,1.07775 0.38637,1.72846v8.15418h0.08123c0.56937,-0.70493 1.35565,-1.22686 2.35884,-1.56578c1.01673,-0.3389 2.04702,-0.50836 3.09085,-0.50836c1.57254,0 2.9824,0.32535 4.22958,0.97605c1.2472,0.63715 2.22327,1.56577 2.9282,2.78584c0.70493,1.20653 1.0574,2.64351 1.0574,4.31096v11.48904c0,0.65072 -0.12879,1.23364 -0.38637,1.74878c-0.25758,0.50159 -0.61683,0.89472 -1.07775,1.17939c-0.4609,0.27114 -0.97604,0.40671 -1.54541,0.40671c-0.89473,0 -1.62,-0.30502 -2.17581,-0.91507c-0.54225,-0.62359 -0.81337,-1.4302 -0.81337,-2.41982v-10.45198c0,-1.34209 -0.36603,-2.35882 -1.09809,-3.05019c-0.71848,-0.70493 -1.66065,-1.0574 -2.8265,-1.0574c-0.78626,0 -1.47086,0.18301 -2.0538,0.54902c-0.58292,0.35247 -1.0235,0.83372 -1.32175,1.44377c-0.29823,0.61005 -0.44735,1.31498 -0.44735,2.1148v10.45198c0,0.65072 -0.12879,1.23364 -0.38637,1.74878c-0.25756,0.50159 -0.6168,0.89472 -1.07772,1.17939c-0.46092,0.27114 -0.97607,0.40671 -1.54544,0.40671c-0.89471,0 -1.61999,-0.30502 -2.17581,-0.91507c-0.54225,-0.62359 -0.81337,-1.4302 -0.81337,-2.41982z" fill="#ff0000" stroke-width="0.40889"/></g></g></svg>