<svg version="1.1" xmlns="http://www.w3.org/2000/svg" xmlns:xlink="http://www.w3.org/1999/xlink" width="65.59774" height="65.59774" viewBox="0,0,65.59774,65.59774"><defs><radialGradient cx="240.00003" cy="180.00002" r="32.79887" gradientUnits="userSpaceOnUse" id="color-1"><stop offset="0" stop-color="#000000"/><stop offset="1" stop-color="#000000" stop-opacity="0"/></radialGradient><linearGradient x1="228.62523" y1="201.91552" x2="260.25492" y2="201.91552" gradientUnits="userSpaceOnUse" id="color-2"><stop offset="0" stop-color="#ff2b2b"/><stop offset="1" stop-color="#ac0f0f"/></linearGradient><linearGradient x1="239.78244" y1="157.51134" x2="239.78244" y2="201.91552" gradientUnits="userSpaceOnUse" id="color-3"><stop offset="0" stop-color="#ff2b2b"/><stop offset="1" stop-color="#ac0f0f"/></linearGradient><linearGradient x1="238.80726" y1="179.71343" x2="260.44971" y2="179.71343" gradientUnits="userSpaceOnUse" id="color-4"><stop offset="0" stop-color="#fcfefd"/><stop offset="1" stop-color="#6f736f"/></linearGradient></defs><g transform="translate(-207.20115,-147.20114)"><g data-paper-data="{&quot;isPaintingLayer&quot;:true}" fill-rule="nonzero" stroke-width="0" stroke-linecap="butt" stroke-linejoin="miter" stroke-miterlimit="10" stroke-dasharray="" stroke-dashoffset="0" style="mix-blend-mode: normal"><path d="M240.00003,212.79889c-18.11432,0 -32.79887,-14.68456 -32.79887,-32.79887c0,-18.11432 14.68456,-32.79887 32.79887,-32.79887c18.11432,0 32.79887,14.68456 32.79887,32.79887c0,18.11432 -14.68456,32.79887 -32.79887,32.79887z" fill="url(#color-1)" stroke="#000000"/><path d="M244.44006,196.02899c8.73431,0 15.81485,0.17229 15.81485,6.70244c0,3.70165 -7.08054,5.07061 -15.81484,5.07061c-8.73431,0 -15.81484,-1.36895 -15.81484,-5.07061c0,-6.53015 7.08054,-6.70244 15.81485,-6.70244z" fill="url(#color-2)" stroke="#010101"/><path d="M240.21138,157.51134c8.49958,0 16.6823,0.16343 21.04604,5.74036c2.84313,3.63358 3.50372,11.56077 3.50372,16.38038c0,6.67771 0.43606,15.77317 -4.70432,19.82913c-4.26404,3.36448 -13.48081,2.29161 -19.84543,2.29161c-14.03733,0 -25.41684,-9.9038 -25.41684,-22.12074c0,-12.21696 11.3795,-22.12074 25.41684,-22.12074z" fill="url(#color-3)" stroke="none"/><path d="M249.62847,163.4517c5.9764,0 10.41429,1.19397 10.82122,16.26174c0.32637,12.0845 -2.87068,16.26173 -10.82122,16.26173c-5.9764,0 -10.82124,-7.28063 -10.82124,-16.26173c0,-8.98111 4.84483,-16.26174 10.82124,-16.26174z" fill="url(#color-4)" stroke="#000000"/><path d="M245.7648,166.72932c1.77858,0.37089 2.33507,4.91712 1.24296,10.15431c-1.09211,5.23719 -3.41926,9.18208 -5.19784,8.81119c-1.77858,-0.37089 -2.3351,-4.91713 -1.24299,-10.1543c1.09211,-5.23719 3.41928,-9.18209 5.19787,-8.8112z" fill="#fcfefd" stroke="#000000"/></g></g></svg>