<svg version="1.1" xmlns="http://www.w3.org/2000/svg" xmlns:xlink="http://www.w3.org/1999/xlink" width="62.75738" height="64.91441" viewBox="0,0,62.75738,64.91441"><defs><radialGradient cx="240.00003" cy="180" r="31.37869" gradientUnits="userSpaceOnUse" id="color-1"><stop offset="0" stop-color="#000000"/><stop offset="1" stop-color="#000000" stop-opacity="0"/></radialGradient><linearGradient x1="248.23679" y1="147.76709" x2="248.23679" y2="212.577" gradientUnits="userSpaceOnUse" id="color-2"><stop offset="0" stop-color="#9d0000"/><stop offset="1" stop-color="#eb0000"/></linearGradient><linearGradient x1="254.16898" y1="147.76708" x2="254.16898" y2="179.59472" gradientUnits="userSpaceOnUse" id="color-3"><stop offset="0" stop-color="#ffffff"/><stop offset="1" stop-color="#ff5f5f"/></linearGradient><linearGradient x1="253.28804" y1="165.46269" x2="253.28804" y2="190.53709" gradientUnits="userSpaceOnUse" id="color-4"><stop offset="0" stop-color="#ff6c6c"/><stop offset="1" stop-color="#ff0000"/></linearGradient><linearGradient x1="231.5824" y1="147.7671" x2="231.5824" y2="212.57701" gradientUnits="userSpaceOnUse" id="color-5"><stop offset="0" stop-color="#ffffff"/><stop offset="1" stop-color="#ff0000"/></linearGradient><linearGradient x1="235.35785" y1="165.21577" x2="235.35785" y2="190.39467" gradientUnits="userSpaceOnUse" id="color-6"><stop offset="0" stop-color="#ffe4e4"/><stop offset="1" stop-color="#ff6161"/></linearGradient><linearGradient x1="219.09571" y1="164.07706" x2="219.09571" y2="192.34598" gradientUnits="userSpaceOnUse" id="color-7"><stop offset="0" stop-color="#ff7878"/><stop offset="1" stop-color="#ff1a1a"/></linearGradient><linearGradient x1="230.94598" y1="147.74558" x2="230.94598" y2="171.15133" gradientUnits="userSpaceOnUse" id="color-8"><stop offset="0" stop-color="#ffffff"/><stop offset="1" stop-color="#ff5f5f"/></linearGradient><linearGradient x1="230.84422" y1="158.41413" x2="246.8652" y2="158.41413" gradientUnits="userSpaceOnUse" id="color-9"><stop offset="0" stop-color="#ffe0e0"/><stop offset="1" stop-color="#ff5656"/></linearGradient><linearGradient x1="230.84548" y1="178.05214" x2="248.19042" y2="178.05214" gradientUnits="userSpaceOnUse" id="color-10"><stop offset="0" stop-color="#ff9898"/><stop offset="1" stop-color="#ff3333"/></linearGradient></defs><g transform="translate(-208.62131,-147.6626)"><g data-paper-data="{&quot;isPaintingLayer&quot;:true}" fill-rule="nonzero" stroke-linejoin="miter" stroke-miterlimit="10" stroke-dasharray="" stroke-dashoffset="0" style="mix-blend-mode: normal"><path d="M208.62131,180c0,-17.32998 14.04872,-31.37869 31.37869,-31.37869c17.32998,0 31.37869,14.04872 31.37869,31.37869c0,17.32998 -14.04872,31.37869 -31.37869,31.37869c-17.32998,0 -31.37869,-14.04872 -31.37869,-31.37869z" fill="url(#color-1)" stroke="#000000" stroke-width="0" stroke-linecap="butt"/><path d="M239.08781,212.577l-13.76865,-20.23102l0.31697,-28.33552l13.72764,-16.24337l31.92968,31.01336z" fill="url(#color-2)" stroke="none" stroke-width="1" stroke-linecap="butt"/><path d="M271.37869,178.66294l-15.63688,0.93178l-12.1455,-14.13204l-6.63704,-15.49483l2.40451,-2.20077z" fill="url(#color-3)" stroke="none" stroke-width="1" stroke-linecap="butt"/><path d="M235.19741,183.02754l8.39888,-17.56485l27.64334,13.06121l-23.3301,12.01319z" fill="url(#color-4)" stroke="none" stroke-width="1" stroke-linecap="butt"/><path d="M239.39647,147.7671l7.35995,17.69559l0.9938,25.1789l-8.8336,21.93542l-23.50205,-20.23102l0.55117,-28.33552z" fill="url(#color-5)" stroke="none" stroke-width="1" stroke-linecap="butt"/><path d="M222.54422,171.15133l24.63345,-5.93556l0.9938,25.1789l-25.22471,-2.47175z" fill="url(#color-6)" stroke="none" stroke-width="1" stroke-linecap="butt"/><path d="M231.03563,166.99671l8.36084,-19.22961l7.35995,17.69559l0.9938,25.1789l-8.8336,21.93542l-7.41719,-24.15933z" fill="#ff0000" stroke="none" stroke-width="1" stroke-linecap="butt"/><path d="M215.30451,192.34598l0.42215,-28.26892l7.12874,6.82736l0.0315,16.997z" fill="url(#color-7)" stroke="none" stroke-width="1" stroke-linecap="butt"/><path d="M239.00647,147.74558l7.35995,17.69561l-23.8222,5.71014l-6.89662,-7.14087z" fill="url(#color-8)" stroke="none" stroke-width="1" stroke-linecap="butt"/><path d="M239.28641,147.6626l7.57879,17.8001l-16.02098,3.70296z" fill="url(#color-9)" stroke="none" stroke-width="1" stroke-linecap="butt"/><path d="M230.84548,169.16565l16.35114,-3.70296l0.9938,25.1789l-16.89615,-1.73014z" fill="url(#color-10)" stroke="none" stroke-width="1" stroke-linecap="butt"/><path d="M243.9336,192.15022c0,-2.58848 2.09838,-4.68686 4.68687,-4.68686c2.58848,0 4.68687,2.09838 4.68687,4.68686c0,2.58848 -2.09839,4.68687 -4.68687,4.68687c-2.58848,0 -4.68687,-2.09839 -4.68687,-4.68687z" fill="#000000" stroke="#000000" stroke-width="0" stroke-linecap="butt"/><path d="M244.46375,168.1875c0,-2.58848 2.09839,-4.68687 4.68687,-4.68687c2.58848,0 4.68687,2.09838 4.68687,4.68687c0,2.58848 -2.09838,4.68687 -4.68687,4.68687c-2.58848,0 -4.68687,-2.09839 -4.68687,-4.68687z" fill="#000000" stroke="#000000" stroke-width="0" stroke-linecap="butt"/><path d="M257.7033,189.3818v-19.9336" fill="none" stroke="#000000" stroke-width="2" stroke-linecap="round"/></g></g></svg>