<svg version="1.1" xmlns="http://www.w3.org/2000/svg" xmlns:xlink="http://www.w3.org/1999/xlink" width="141.72073" height="145.88623" viewBox="0,0,141.72073,145.88623"><g transform="translate(-171.7225,-104.84634)"><g data-paper-data="{&quot;isPaintingLayer&quot;:true}" fill-opacity="0.74902" fill="#ff0000" fill-rule="nonzero" stroke="none" stroke-width="0" stroke-linecap="butt" stroke-linejoin="miter" stroke-miterlimit="10" stroke-dasharray="" stroke-dashoffset="0" style="mix-blend-mode: normal"><path d="M200.94774,203.72697l-12.64115,-12.64115l12.64115,-12.64115l12.64115,12.64115z"/><path d="M204.08112,250.73256l-11.59485,-1.04495l1.04495,-11.59485l11.59485,1.04495z"/><path d="M294.72943,182.37271l-10.45196,-5.12729l5.12729,-10.45196l10.45196,5.12729z"/><path d="M245.88469,127.7565l6.8463,6.84629l-6.8463,6.8463l-6.8463,-6.8463z" data-paper-data="{&quot;index&quot;:null}"/><path d="M225.1786,144.23784l-5.08265,-5.08265l5.08265,-5.08265l5.08265,5.08265z"/><path d="M228.88827,188.65694l-1.78469,-6.96287l6.96287,-1.78469l1.78469,6.96287z"/><path d="M182.55963,139.79023l-5.08265,-5.08265l5.08265,-5.08265l5.08265,5.08265z"/><path d="M233.241,237.02378l-5.08265,-5.08265l5.08265,-5.08265l5.08265,5.08265z"/><path d="M292.09191,232.79579l-5.78826,1.98453l-1.98453,-5.78826l5.78827,-1.98453z"/><path d="M208.31223,154.90594l-5.18312,-8.17795l8.17795,-5.18312l5.18313,8.17795z"/><path d="M293.97159,136.66205l-6.51937,-2.04185l2.04184,-6.51937l6.51937,2.04184z"/><path d="M225.29531,224.12813l-3.64146,-1.1405l1.14049,-3.64147l3.64147,1.1405z"/><path d="M221.07688,104.84634l3.64147,1.1405l-1.1405,3.64147l-3.64147,-1.1405z" data-paper-data="{&quot;index&quot;:null}"/><path d="M309.36563,205.20355l-3.78408,0.49166l-0.49167,-3.78408l3.78408,-0.49167z"/><path d="M253.93069,221.83666l-3.02672,2.32379l-2.32379,-3.02672l3.02672,-2.32379z"/><path d="M175.53807,177.01929l-3.81557,-0.04906l0.04905,-3.81557l3.81557,0.04905z"/><path d="M313.39417,154.59573l-3.81557,-0.04905l0.04905,-3.81557l3.81558,0.04905z"/><path d="M252.38284,167.69714l-3.81557,-0.04906l0.04905,-3.81557l3.81557,0.04906z"/><path d="M289.3896,193.41262l-1.74724,3.39237l-3.39236,-1.74724l1.74724,-3.39236z"/></g></g></svg>