<svg version="1.1" xmlns="http://www.w3.org/2000/svg" xmlns:xlink="http://www.w3.org/1999/xlink" width="549.54955" height="460.96096" viewBox="0,0,549.54955,460.96096"><g transform="translate(33.95647,62.24025)"><g data-paper-data="{&quot;isPaintingLayer&quot;:true}" fill-rule="nonzero" stroke-linecap="butt" stroke-linejoin="miter" stroke-miterlimit="10" stroke-dasharray="" stroke-dashoffset="0" style="mix-blend-mode: normal"><path d="M44.23949,0.89274l413.31671,27.25657l-10.07865,152.83205l-413.31671,-27.25657z" fill="#000000" stroke="none" stroke-width="NaN"/><path d="M32.42106,180.10656l413.31671,27.25657l-9.84215,149.24561l-413.31671,-27.25657z" fill="#000000" stroke="none" stroke-width="NaN"/><path d="M251.70565,151.3056l189.91687,22.36546l-6.92724,57.04354l-189.91687,-22.36546z" fill="#000000" stroke="none" stroke-width="0"/><path d="M46.86382,131.27762l186.58805,22.08136l-5.64874,46.74401l-186.58805,-11.2987z" fill="#000000" stroke="none" stroke-width="0"/><path d="M-33.95647,398.72071v-427.92793h96.0961v427.92793z" fill="#000000" stroke="none" stroke-width="NaN"/><path d="M42.62011,379.20119v-75.07508h459.45946v75.07508z" fill="#000000" stroke="none" stroke-width="0"/><path d="M33.6111,62.38437v-124.62462h472.97297v124.62462z" fill="#000000" stroke="none" stroke-width="0"/><path d="M428.50599,329.65164v-354.35435h87.08709v354.35435z" fill="#000000" stroke="none" stroke-width="0"/><g><path d="M252.91098,162.09255l9.80137,28.59256l-34.59106,9.31401l-11.44276,-29.29199l20.79073,-6.27175l1.20096,9.66018c0,0 -0.75752,-1.28456 -1.69223,-1.04605c-1.14611,0.29247 -0.97564,2.05521 -0.97564,2.05521c0,0 -0.97615,-1.54165 -2.17078,-0.88069c-1.31816,0.67041 0.72447,4.67749 0.72447,4.67749c0,0 -2.04211,0.38192 -2.45653,1.70545c-0.4093,1.37681 6.21194,7.12741 8.62993,6.73047c2.36015,-0.38744 6.20929,-5.87739 6.3721,-8.69218c0.08055,-1.39264 -3.152,-1.14675 -3.152,-1.14675c0,0 1.05573,-4.09178 -0.69911,-4.76575c-1.01577,-0.39012 -1.7043,1.30739 -1.7043,1.30739c0,0 -0.42882,-1.68628 -1.48543,-1.53946c-1.26594,0.17591 -1.46272,1.78875 -1.46272,1.78875l-2.0313,-9.74288z" fill="#000000" stroke="none" stroke-width="0"/><path d="M243.86271,180.09956c0.16727,1.11408 -0.60027,2.15282 -1.71434,2.32009c-1.11408,0.16727 -2.15283,-0.60025 -2.3201,-1.71434c-0.16727,-1.11408 0.60027,-2.15282 1.71434,-2.32009c1.11408,-0.16727 2.15282,0.60026 2.32008,1.71434z" fill="none" stroke="#000000" stroke-width="0.75"/><path d="M239.77145,180.71384c0.16727,1.11408 -0.60027,2.15282 -1.71434,2.32009c-1.11408,0.16727 -2.15281,-0.60025 -2.32009,-1.71434c-0.16727,-1.11408 0.60026,-2.15282 1.71434,-2.32008c1.11408,-0.16727 2.15282,0.60026 2.32008,1.71434z" fill="none" stroke="#000000" stroke-width="0.75"/><path d="M242.8967,180.24459c0.08717,0.58058 -0.31281,1.12189 -0.89339,1.20905c-0.58058,0.08717 -1.12189,-0.3128 -1.20907,-0.89339c-0.08717,-0.58058 0.31282,-1.12189 0.89339,-1.20907c0.58058,-0.08717 1.12189,0.31282 1.20906,0.89339z" fill="#000000" stroke="none" stroke-width="0"/><path d="M238.74863,180.8674c0.08717,0.58058 -0.3128,1.12188 -0.89339,1.20905c-0.58058,0.08717 -1.12188,-0.3128 -1.20905,-0.89339c-0.08717,-0.58058 0.3128,-1.12189 0.89339,-1.20907c0.58058,-0.08717 1.12189,0.31282 1.20906,0.89339z" fill="#000000" stroke="none" stroke-width="0"/></g></g></g></svg>