<svg version="1.1" xmlns="http://www.w3.org/2000/svg" xmlns:xlink="http://www.w3.org/1999/xlink" width="147.50214" height="98.81152" viewBox="0,0,147.50214,98.81152"><defs><radialGradient cx="240" cy="180" r="26.8" gradientUnits="userSpaceOnUse" id="color-1"><stop offset="0" stop-color="#ffffff" stop-opacity="0.61569"/><stop offset="1" stop-color="#ffffff" stop-opacity="0"/></radialGradient><radialGradient cx="240" cy="162" r="26.8" gradientUnits="userSpaceOnUse" id="color-2"><stop offset="0" stop-color="#ffffff" stop-opacity="0.61569"/><stop offset="1" stop-color="#ffffff" stop-opacity="0"/></radialGradient><radialGradient cx="240" cy="198" r="26.8" gradientUnits="userSpaceOnUse" id="color-3"><stop offset="0" stop-color="#ffffff" stop-opacity="0.61569"/><stop offset="1" stop-color="#ffffff" stop-opacity="0"/></radialGradient><linearGradient x1="240.00002" y1="176.0577" x2="240.00002" y2="206.72009" gradientUnits="userSpaceOnUse" id="color-4"><stop offset="0" stop-color="#ff0000"/><stop offset="1" stop-color="#ff0000" stop-opacity="0.6549"/></linearGradient><linearGradient x1="240.00002" y1="152.66668" x2="240.00002" y2="207.33334" gradientUnits="userSpaceOnUse" id="color-5"><stop offset="0" stop-color="#ff0000" stop-opacity="0.20392"/><stop offset="1" stop-color="#bf0000"/></linearGradient></defs><g transform="translate(-138.99786,-135.2)"><g data-paper-data="{&quot;isPaintingLayer&quot;:true}" fill-rule="nonzero" stroke-linejoin="miter" stroke-miterlimit="10" stroke-dasharray="" stroke-dashoffset="0" style="mix-blend-mode: normal"><g stroke="none" stroke-width="0" stroke-linecap="butt"><path d="M213.2,180c0,-14.80123 11.99877,-26.8 26.8,-26.8c14.80123,0 26.8,11.99877 26.8,26.8c0,14.80123 -11.99877,26.8 -26.8,26.8c-14.80123,0 -26.8,-11.99877 -26.8,-26.8z" fill="url(#color-1)"/><path d="M213.2,162c0,-14.80123 11.99877,-26.8 26.8,-26.8c14.80123,0 26.8,11.99877 26.8,26.8c0,14.80123 -11.99877,26.8 -26.8,26.8c-14.80123,0 -26.8,-11.99877 -26.8,-26.8z" fill="url(#color-2)"/><path d="M213.2,198c0,-14.80123 11.99877,-26.8 26.8,-26.8c14.80123,0 26.8,11.99877 26.8,26.8c0,14.80123 -11.99877,26.8 -26.8,26.8c-14.80123,0 -26.8,-11.99877 -26.8,-26.8z" fill="url(#color-3)"/></g><path d="M230.82906,206.7312v-53.46239h18.34188v53.46239z" fill-opacity="0.47843" fill="#ffffff" stroke="#000000" stroke-width="0" stroke-linecap="butt"/><path d="M230.82908,206.72009v-30.66239h18.34188v30.66239z" fill="url(#color-4)" stroke="#000000" stroke-width="0" stroke-linecap="butt"/><path d="M230.33335,204.43334v-49.26667l2.5641,-2.5h14.2l2.56923,2.5v49.66667l-2.76923,2.5h-13.8z" fill="none" stroke="url(#color-5)" stroke-width="1.5" stroke-linecap="butt"/><path d="M138.99786,217.32297v-6.88924h28.83333v6.88924z" fill="#ff0000" stroke="none" stroke-width="0" stroke-linecap="butt"/><path d="M138.99786,209.40035v-6.88925h28.83334v6.88925z" fill="#ff0000" stroke="none" stroke-width="0" stroke-linecap="butt"/><path d="M138.99786,201.47772v-6.88925h28.83334v6.88925z" fill="#ff0000" stroke="none" stroke-width="0" stroke-linecap="butt"/><path d="M138.99786,193.55508v-6.88925h28.83334v6.88925z" fill="#ff0000" stroke="none" stroke-width="0" stroke-linecap="butt"/><path d="M138.99786,185.63245v-6.88925h28.83334v6.88925z" fill="#ff0000" stroke="none" stroke-width="0" stroke-linecap="butt"/><path d="M138.99786,177.70982v-6.88925h28.83334v6.88925z" fill="#ff0000" stroke="none" stroke-width="0" stroke-linecap="butt"/><path d="M138.99786,169.7872v-6.88925h28.83334v6.88925z" fill="#ff0000" stroke="none" stroke-width="0" stroke-linecap="butt"/><path d="M138.99786,161.86456v-6.88925h28.83334v6.88925z" fill="#ff0000" stroke="none" stroke-width="0" stroke-linecap="butt"/><path d="M138.99786,233.16824v-6.88925h28.83334v6.88925z" fill="#ff0000" stroke="none" stroke-width="0" stroke-linecap="butt"/><path d="M138.99786,225.2456v-6.88925h28.83334v6.88925z" fill="#ff0000" stroke="none" stroke-width="0" stroke-linecap="butt"/><path d="M138.99786,153.94193v-6.88925h28.83334v6.88925z" fill="#ff0000" stroke="none" stroke-width="0" stroke-linecap="butt"/><path d="M193.75,152.83333h92.5" fill="none" stroke="#000000" stroke-width="0.5" stroke-linecap="round"/><path d="M193.75,207.25h92.5" fill="none" stroke="#000000" stroke-width="0.5" stroke-linecap="round"/><path d="M193.75,162.4233h92.5" fill="none" stroke="#000000" stroke-width="0.5" stroke-linecap="round"/><path d="M193.75,182.49337h92.5" fill="none" stroke="#000000" stroke-width="0.5" stroke-linecap="round"/><path d="M193.75,202.625h92.5" fill="none" stroke="#000000" stroke-width="0.5" stroke-linecap="round"/><path d="M193.75,172.42755h92.5" fill="none" stroke="#000000" stroke-width="0.5" stroke-linecap="round"/><path d="M193.75,192.55918h92.5" fill="none" stroke="#000000" stroke-width="0.5" stroke-linecap="round"/><path d="M193.75,177.46046h92.5" fill="none" stroke="#000000" stroke-width="0.5" stroke-linecap="round"/><path d="M193.75,197.59209h92.5" fill="none" stroke="#000000" stroke-width="0.5" stroke-linecap="round"/><path d="M193.75,167.39464h92.5" fill="none" stroke="#000000" stroke-width="0.5" stroke-linecap="round"/><path d="M193.75,187.52628h92.5" fill="none" stroke="#000000" stroke-width="0.5" stroke-linecap="round"/><path d="M193.75,157.375h92.5" fill="none" stroke="#000000" stroke-width="0.5" stroke-linecap="round"/><text transform="translate(148.66453,153.15685) scale(0.17076,0.17076)" font-size="40" xml:space="preserve" fill="#000000" fill-rule="nonzero" stroke="none" stroke-width="1" stroke-linecap="butt" stroke-linejoin="miter" stroke-miterlimit="10" stroke-dasharray="" stroke-dashoffset="0" font-family="Sans Serif" font-weight="normal" text-anchor="start" style="mix-blend-mode: normal"><tspan x="0" dy="0">100</tspan><tspan x="0" dy="46.15px">95</tspan><tspan x="0" dy="46.15px">85</tspan><tspan x="0" dy="46.15px">75</tspan><tspan x="0" dy="46.15px">65</tspan><tspan x="0" dy="46.15px">55</tspan><tspan x="0" dy="46.15px">45</tspan><tspan x="0" dy="46.15px">35</tspan><tspan x="0" dy="46.15px">25</tspan><tspan x="0" dy="46.15px">15</tspan><tspan x="0" dy="46.15px">5</tspan></text></g></g></svg>