<svg version="1.1" xmlns="http://www.w3.org/2000/svg" xmlns:xlink="http://www.w3.org/1999/xlink" width="196.61107" height="140.51583" viewBox="0,0,196.61107,140.51583"><defs><radialGradient cx="302.4107" cy="180.92597" r="36.9346" gradientUnits="userSpaceOnUse" id="color-1"><stop offset="0" stop-color="#000000" stop-opacity="0.50196"/><stop offset="1" stop-color="#000000" stop-opacity="0"/></radialGradient><radialGradient cx="205.87424" cy="180.00001" r="63.14002" gradientUnits="userSpaceOnUse" id="color-2"><stop offset="0" stop-color="#000000"/><stop offset="1" stop-color="#000000" stop-opacity="0"/></radialGradient><linearGradient x1="316.70127" y1="155.66293" x2="316.70127" y2="202.85679" gradientUnits="userSpaceOnUse" id="color-3"><stop offset="0" stop-color="#ff8080"/><stop offset="1" stop-color="#ff0000"/></linearGradient><linearGradient x1="264.18058" y1="158.44477" x2="264.18058" y2="246.44474" gradientUnits="userSpaceOnUse" id="color-4"><stop offset="0" stop-color="#5c5c5c"/><stop offset="1" stop-color="#000000"/></linearGradient><linearGradient x1="196.98296" y1="180.24208" x2="215.88014" y2="180.24208" gradientUnits="userSpaceOnUse" id="color-5"><stop offset="0" stop-color="#808080"/><stop offset="1" stop-color="#000000"/></linearGradient><linearGradient x1="180.73812" y1="157.21159" x2="222.84527" y2="157.21159" gradientUnits="userSpaceOnUse" id="color-6"><stop offset="0" stop-color="#000000"/><stop offset="1" stop-color="#808080"/></linearGradient><linearGradient x1="181.11888" y1="202.90387" x2="222.4645" y2="202.90387" gradientUnits="userSpaceOnUse" id="color-7"><stop offset="0" stop-color="#000000"/><stop offset="1" stop-color="#808080"/></linearGradient><linearGradient x1="189.87656" y1="202.90387" x2="213.70681" y2="202.90387" gradientUnits="userSpaceOnUse" id="color-8"><stop offset="0" stop-color="#808080"/><stop offset="1" stop-color="#000000"/></linearGradient><linearGradient x1="189.87656" y1="157.21159" x2="213.70681" y2="157.21159" gradientUnits="userSpaceOnUse" id="color-9"><stop offset="0" stop-color="#808080"/><stop offset="1" stop-color="#000000"/></linearGradient><linearGradient x1="208.40603" y1="180.24209" x2="227.30321" y2="180.24209" gradientUnits="userSpaceOnUse" id="color-10"><stop offset="0" stop-color="#000000"/><stop offset="1" stop-color="#808080"/></linearGradient><radialGradient cx="184.65708" cy="179.67696" r="22.46537" gradientUnits="userSpaceOnUse" id="color-11"><stop offset="0" stop-color="#ff8080"/><stop offset="1" stop-color="#ff0000"/></radialGradient><radialGradient cx="172.47247" cy="180.05773" r="30.46152" gradientUnits="userSpaceOnUse" id="color-12"><stop offset="0" stop-color="#ff8080"/><stop offset="1" stop-color="#ff0000"/></radialGradient><radialGradient cx="157.52633" cy="180.05773" r="36.9346" gradientUnits="userSpaceOnUse" id="color-13"><stop offset="0" stop-color="#ff8080"/><stop offset="1" stop-color="#ff0000"/></radialGradient><linearGradient x1="207.2494" y1="169.65012" x2="207.2494" y2="190.46547" gradientUnits="userSpaceOnUse" id="color-14"><stop offset="0" stop-color="#ffffff"/><stop offset="1" stop-color="#ff0000"/></linearGradient></defs><g transform="translate(-142.73422,-109.98418)"><g data-paper-data="{&quot;isPaintingLayer&quot;:true}" fill-rule="nonzero" stroke-linejoin="miter" stroke-miterlimit="10" stroke-dasharray="" stroke-dashoffset="0" style="mix-blend-mode: normal"><path d="M265.4761,180.92597c0,-20.39841 16.53618,-36.93459 36.93459,-36.93459c20.39841,0 36.9346,16.53618 36.9346,36.9346c0,20.39841 -16.53618,36.9346 -36.9346,36.9346c-20.39841,0 -36.93459,-16.53618 -36.93459,-36.93459z" fill="url(#color-1)" stroke="#ff0000" stroke-width="0" stroke-linecap="butt"/><path d="M142.73422,180.00001c0,-34.87127 28.26875,-63.14002 63.14002,-63.14002c34.87127,0 63.14002,28.26875 63.14002,63.14002c0,34.87127 -28.26875,63.14002 -63.14002,63.14002c-34.87127,0 -63.14002,-28.26875 -63.14002,-63.14002z" fill="url(#color-2)" stroke="#ff0000" stroke-width="0" stroke-linecap="butt"/><path d="M304.58729,185.5061v-9.71638l24.22795,-20.12679v47.19385z" fill="url(#color-3)" stroke="none" stroke-width="0" stroke-linecap="butt"/><path d="M306.76429,179.39714c0,0 -14.74717,-2.6568 -24.39499,15.40503c-6.05497,11.3356 -6.68749,38.08335 -33.43153,38.70744c-27.23483,0.63554 -40.99032,-32.44087 -40.99032,-32.44087" fill="none" stroke="url(#color-4)" stroke-width="20" stroke-linecap="round"/><path d="M196.98296,236.00001l17.89614,-57.41667l-17.89614,-55.09916l18.89719,-13.5v140.51583z" fill="url(#color-5)" stroke="#ff0000" stroke-width="0" stroke-linecap="butt"/><path d="M290.76077,197.73857c0,0 -6.09971,1.98465 -10.92787,-3.1287c-6.02767,-6.38372 -2.54801,-9.46974 -2.54801,-9.46974" fill="none" stroke="#ffffff" stroke-width="7.5" stroke-linecap="round"/><path d="M286.25572,209.26046c0,0 -4.90448,4.13417 -11.30195,1.21359c-7.98687,-3.64618 -6.00827,-8.24466 -6.00827,-8.24466" fill="none" stroke="#ff0000" stroke-width="7.5" stroke-linecap="round"/><path d="M180.73812,157.21159c0,-11.62757 9.42601,-21.05358 21.05358,-21.05358c11.62757,0 21.05357,9.42601 21.05357,21.05358c0,11.62757 -9.42601,21.05358 -21.05357,21.05358c-11.62757,0 -21.05358,-9.42601 -21.05358,-21.05358z" fill="url(#color-6)" stroke="none" stroke-width="0" stroke-linecap="butt"/><path d="M181.11888,202.90387c0,-11.41728 9.25553,-20.67281 20.67281,-20.67281c11.41728,0 20.6728,9.25553 20.6728,20.67281c0,11.41728 -9.25553,20.67281 -20.6728,20.67281c-11.41728,0 -20.67281,-9.25553 -20.67281,-20.67281z" fill="url(#color-7)" stroke="none" stroke-width="0" stroke-linecap="butt"/><path d="M189.87656,202.90387c0,-6.58054 5.33458,-11.91512 11.91512,-11.91512c6.58054,0 11.91512,5.33458 11.91512,11.91512c0,6.58054 -5.33458,11.91512 -11.91512,11.91512c-6.58054,0 -11.91512,-5.33458 -11.91512,-11.91512z" fill="url(#color-8)" stroke="none" stroke-width="0" stroke-linecap="butt"/><path d="M189.87656,157.21159c0,-6.58054 5.33458,-11.91512 11.91512,-11.91512c6.58054,0 11.91512,5.33458 11.91512,11.91512c0,6.58054 -5.33458,11.91512 -11.91512,11.91512c-6.58054,0 -11.91512,-5.33458 -11.91512,-11.91512z" fill="url(#color-9)" stroke="none" stroke-width="0" stroke-linecap="butt"/><path d="M208.40603,202.90387v-45.32357h18.89719v45.32357z" fill="url(#color-10)" stroke="#ff0000" stroke-width="0" stroke-linecap="butt"/><path d="M184.65708,157.21159v44.93075" fill="none" stroke="url(#color-11)" stroke-width="7.5" stroke-linecap="round"/><path d="M172.47247,149.59621v60.92305" fill="none" stroke="url(#color-12)" stroke-width="10" stroke-linecap="round"/><path d="M157.52633,143.12313v73.86919" fill="none" stroke="url(#color-13)" stroke-width="12.5" stroke-linecap="round"/><path d="M196.6485,180.05773c0,-5.74801 4.74619,-10.40769 10.60092,-10.40769c5.85472,0 10.60092,4.65968 10.60092,10.40769c0,5.74801 -4.74619,10.40769 -10.60092,10.40769c-5.85472,0 -10.60092,-4.65968 -10.60092,-10.40769z" fill="#000000" stroke="url(#color-14)" stroke-width="4" stroke-linecap="butt"/></g></g></svg>