<svg version="1.1" xmlns="http://www.w3.org/2000/svg" xmlns:xlink="http://www.w3.org/1999/xlink" width="88.42581" height="94.9918" viewBox="0,0,88.42581,94.9918"><defs><radialGradient cx="239.50002" cy="189.99999" r="40.77889" gradientUnits="userSpaceOnUse" id="color-1"><stop offset="0" stop-color="#feec7b"/><stop offset="1" stop-color="#feec7b" stop-opacity="0"/></radialGradient><linearGradient x1="240" y1="148.9192" x2="240" y2="208.86951" gradientUnits="userSpaceOnUse" id="color-2"><stop offset="0" stop-color="#fff387"/><stop offset="1" stop-color="#f9ca3a"/></linearGradient><linearGradient x1="240" y1="148.9192" x2="240" y2="208.86951" gradientUnits="userSpaceOnUse" id="color-3"><stop offset="0" stop-color="#fce369"/><stop offset="1" stop-color="#c29800"/></linearGradient></defs><g transform="translate(-195.78711,-135.7871)"><g data-paper-data="{&quot;isPaintingLayer&quot;:true}" fill-rule="nonzero" stroke-linejoin="miter" stroke-miterlimit="10" stroke-dasharray="" stroke-dashoffset="0" style="mix-blend-mode: normal"><path d="M198.7211,189.99999c0,-22.52157 18.25734,-40.77889 40.7789,-40.77889c22.52157,0 40.7789,18.25732 40.7789,40.7789c0,22.52157 -18.25734,40.7789 -40.7789,40.7789c-22.52157,0 -40.7789,-18.25734 -40.7789,-40.7789z" fill="url(#color-1)" stroke="#cecc3b" stroke-width="0" stroke-linecap="butt"/><path d="M195.78711,224.21291v-88.42581h88.42581v88.42581z" fill="none" stroke="none" stroke-width="0" stroke-linecap="butt"/><g stroke-width="1.5" stroke-linecap="round"><path d="M209.04205,203.46416l5.13022,-32.22154l14.27994,-20.11212l13.39055,7.7395l0.12284,11.0564l-12.40776,-0.7371l0.12286,18.05878l10.81072,-7.37094l16.70746,-0.49141l13.75908,8.84514l-1.96559,13.26769l-23.0956,7.37095z" fill="url(#color-2)" stroke="url(#color-3)"/><path d="M264.13985,195.88233l-8.10805,5.15966l-14.00478,-0.36855" fill="none" stroke="#e1b000"/></g></g></g></svg>