<svg version="1.1" xmlns="http://www.w3.org/2000/svg" xmlns:xlink="http://www.w3.org/1999/xlink" width="98" height="103.04309" viewBox="0,0,98,103.04309"><defs><radialGradient cx="239.7847" cy="177.22004" r="48.68726" gradientUnits="userSpaceOnUse" id="color-1"><stop offset="0" stop-color="#ff006a"/><stop offset="1" stop-color="#ff006a" stop-opacity="0"/></radialGradient><radialGradient cx="225.66516" cy="193.30592" r="34.14664" gradientUnits="userSpaceOnUse" id="color-2"><stop offset="0" stop-color="#ffffff" stop-opacity="0.6"/><stop offset="1" stop-color="#ffffff" stop-opacity="0"/></radialGradient><radialGradient cx="226.08765" cy="195.38782" r="22.99666" gradientUnits="userSpaceOnUse" id="color-3"><stop offset="0" stop-color="#ff0000"/><stop offset="1" stop-color="#ff0000" stop-opacity="0"/></radialGradient><radialGradient cx="225.98639" cy="193.71117" r="13.82077" gradientUnits="userSpaceOnUse" id="color-4"><stop offset="0" stop-color="#ff73c2"/><stop offset="1" stop-color="#ff73c2" stop-opacity="0"/></radialGradient><radialGradient cx="217.83886" cy="171.24681" r="5.00302" gradientUnits="userSpaceOnUse" id="color-5"><stop offset="0" stop-color="#d1d1d1" stop-opacity="0"/><stop offset="1" stop-color="#d1d1d1"/></radialGradient><radialGradient cx="249.5695" cy="198.40522" r="5.00299" gradientUnits="userSpaceOnUse" id="color-6"><stop offset="0" stop-color="#d1d1d1" stop-opacity="0"/><stop offset="1" stop-color="#d1d1d1"/></radialGradient><radialGradient cx="210.48245" cy="211.97615" r="5.00299" gradientUnits="userSpaceOnUse" id="color-7"><stop offset="0" stop-color="#d1d1d1" stop-opacity="0"/><stop offset="1" stop-color="#d1d1d1"/></radialGradient></defs><g transform="translate(-191,-125.94483)"><g data-paper-data="{&quot;isPaintingLayer&quot;:true}" fill-rule="nonzero" stroke-linejoin="miter" stroke-miterlimit="10" stroke-dasharray="" stroke-dashoffset="0" style="mix-blend-mode: normal"><path d="M191.09747,177.22004c0,-26.88921 21.79801,-48.68726 48.68726,-48.68726c26.88925,0 48.68726,21.79801 48.68726,48.68726c0,26.88921 -21.79801,48.68726 -48.68726,48.68726c-26.88925,0 -48.68726,-21.79801 -48.68726,-48.68726z" fill="url(#color-1)" stroke="none" stroke-width="0" stroke-linecap="butt"/><g data-paper-data="{&quot;index&quot;:null}" stroke-linecap="butt"><path d="M237.18615,225.4503c-17.75284,6.36288 -37.30248,-2.87053 -43.66535,-20.62338c-6.36288,-17.75284 2.87053,-37.3025 20.62338,-43.66535c17.75284,-6.36288 37.30248,2.87053 43.66535,20.62338c6.36288,17.75284 -2.87056,37.3025 -20.62338,43.66535z" fill="url(#color-2)" stroke="none" stroke-width="NaN"/><g><path d="M233.8467,217.036c-11.95596,4.28517 -25.12203,-1.93319 -29.40722,-13.88919c-4.28517,-11.95597 1.93318,-25.12204 13.88917,-29.40722c11.95596,-4.28517 25.12204,1.93319 29.40723,13.88919c4.28519,11.95597 -1.93319,25.12203 -13.88919,29.40722z" fill="url(#color-3)" stroke="#ff0000" stroke-width="0"/><g stroke-width="1"><path d="M210.69482,211.45102l7.22537,-40.08405l30.84418,26.4394z" data-paper-data="{&quot;index&quot;:null}" fill="none" stroke="#ff0000"/><path d="M241.25498,195.61639c1.66086,4.63385 -24.64002,13.17839 -26.02071,9.32621c-2.29116,-6.39253 2.47399,-24.37283 5.55088,-25.47565c3.07687,-1.1028 18.17868,9.75691 20.46987,16.14945z" data-paper-data="{&quot;index&quot;:null}" fill="url(#color-4)" stroke="none"/><path d="M215.76519,180.28925l-2.29756,-6.41035l9.28845,-3.32911l2.29754,6.41035z" fill="#cc0000" stroke="none"/><path d="M219.52687,175.95645c-2.60106,0.93224 -5.46541,-0.4206 -6.39765,-3.02164c-0.93228,-2.60108 0.4206,-5.46541 3.02166,-6.39764c2.60106,-0.93228 5.4654,0.4206 6.39764,3.02164c0.93224,2.60105 -0.42057,5.4654 -3.02164,6.39764z" data-paper-data="{&quot;index&quot;:null}" fill="url(#color-5)" stroke="#b00000"/><path d="M246.98973,202.70291l-6.564,-1.81244l2.6262,-9.51111l6.564,1.81244z" fill="#cc0000" stroke="none"/><path d="M251.25756,203.11486c-2.60106,0.93224 -5.4654,-0.4206 -6.39764,-3.02164c-0.93228,-2.60106 0.4206,-5.4654 3.02164,-6.39764c2.60106,-0.93224 5.4654,0.4206 6.39764,3.02164c0.93224,2.60105 -0.4206,5.4654 -3.02164,6.39764z" data-paper-data="{&quot;index&quot;:null}" fill="url(#color-6)" stroke="#b00000"/><path d="M219.17268,208.72875l-4.08629,5.44731l-7.89306,-5.92097l4.08629,-5.44731z" fill="#cc0000" stroke="none"/><path d="M213.48465,207.97408c2.2103,1.65805 2.65797,4.79398 0.99993,7.00431c-1.65805,2.2103 -4.79398,2.65798 -7.00431,0.99993c-2.2103,-1.65808 -2.65798,-4.79401 -0.99993,-7.00432c1.65805,-2.21028 4.79401,-2.65797 7.00431,-0.9999z" data-paper-data="{&quot;index&quot;:null}" fill="url(#color-7)" stroke="#b00000"/></g></g></g><text transform="translate(216.8231,159.49125) rotate(-2.95261) scale(0.61503,0.61661) skewX(-2.02727)" font-size="40" xml:space="preserve" fill="#000000" fill-rule="nonzero" stroke="#631b31" stroke-width="11" stroke-linecap="butt" stroke-linejoin="miter" stroke-miterlimit="10" stroke-dasharray="" stroke-dashoffset="0" font-family="Sans Serif" font-weight="normal" text-anchor="start" style="mix-blend-mode: normal"><tspan x="0" dy="0">Paint</tspan><tspan x="0" dy="48px">  here</tspan></text><text transform="translate(216.85588,159.51357) rotate(-2.95261) scale(0.61503,0.61661) skewX(-2.02727)" font-size="40" xml:space="preserve" fill="#ffe7f1" fill-rule="nonzero" stroke="#ffe7f1" stroke-width="1" stroke-linecap="butt" stroke-linejoin="miter" stroke-miterlimit="10" stroke-dasharray="" stroke-dashoffset="0" font-family="Sans Serif" font-weight="normal" text-anchor="start" style="mix-blend-mode: normal"><tspan x="0" dy="0">Paint</tspan><tspan x="0" dy="48px">  here</tspan></text><g data-paper-data="{&quot;index&quot;:null}" fill="none" stroke-linecap="round"><path d="M270.759,195.66146l-9.33016,13.4734" stroke="#55172b" stroke-width="5.5"/><path d="M271.22239,210.55738l-13.40236,1.88705l0.59856,-12.83679" stroke="#55172b" stroke-width="5.5"/><path d="M259.517,211.09381l11.19364,-15.38275" stroke="#ffe7f1" stroke-width="2.5"/><path d="M270.28754,210.37993l-12.26593,1.8641l0.48506,-11.95036" stroke="#ffe7f1" stroke-width="2.5"/></g><path d="M191,228.98793v-98h98v98z" fill="none" stroke="none" stroke-width="0" stroke-linecap="butt"/></g></g></svg>