<svg version="1.1" xmlns="http://www.w3.org/2000/svg" xmlns:xlink="http://www.w3.org/1999/xlink" width="84.50761" height="83.82609" viewBox="0,0,84.50761,83.82609"><defs><linearGradient x1="227.29179" y1="180.07039" x2="266.18499" y2="180.07039" gradientUnits="userSpaceOnUse" id="color-1"><stop offset="0" stop-color="#ff0000" stop-opacity="0.73333"/><stop offset="1" stop-color="#c10000"/></linearGradient><linearGradient x1="213.44524" y1="180.00476" x2="266.55476" y2="180.00476" gradientUnits="userSpaceOnUse" id="color-2"><stop offset="0" stop-color="#ffffff" stop-opacity="0.66275"/><stop offset="1" stop-color="#ff0000"/></linearGradient><linearGradient x1="201.52742" y1="170.9295" x2="216.20827" y2="170.9295" gradientUnits="userSpaceOnUse" id="color-3"><stop offset="0" stop-color="#960000"/><stop offset="1" stop-color="#ff0000" stop-opacity="0.22745"/></linearGradient></defs><g transform="translate(-197.74621,-138.08695)"><g data-paper-data="{&quot;isPaintingLayer&quot;:true}" fill-rule="nonzero" stroke-linejoin="miter" stroke-miterlimit="10" stroke-dasharray="" stroke-dashoffset="0" style="mix-blend-mode: normal"><path d="M226.09885,201.89512c0,0 5.29537,-7.96618 5.1724,-13.66993c-0.1521,-7.05485 -3.98715,-7.49632 -3.97945,-15.4256c0.01009,-10.38297 6.1962,-18.37976 6.1962,-18.37976c0,0 10.59796,-3.00812 17.54923,1.84729c6.95127,4.85541 15.14775,15.06119 15.14775,23.46055c0,8.09159 -4.92148,18.60356 -14.40884,24.75366c-9.48736,6.15009 -25.6773,-2.58621 -25.6773,-2.58621z" fill="url(#color-1)" stroke="none" stroke-width="0" stroke-linecap="butt"/><path d="M241.14966,200.6c0,-2.59574 2.10426,-4.7 4.7,-4.7c2.59574,0 4.7,2.10426 4.7,4.7c0,2.59574 -2.10426,4.7 -4.7,4.7c-2.59574,0 -4.7,-2.10426 -4.7,-4.7z" fill-opacity="0.77647" fill="#ff0000" stroke="none" stroke-width="0" stroke-linecap="butt"/><path d="M249.74966,185.9c0,-1.87777 1.52223,-3.4 3.4,-3.4c1.87777,0 3.4,1.52223 3.4,3.4c0,1.87777 -1.52223,3.4 -3.4,3.4c-1.87777,0 -3.4,-1.52223 -3.4,-3.4z" fill-opacity="0.77647" fill="#ff0000" stroke="none" stroke-width="0" stroke-linecap="butt"/><path d="M251.94966,171c0,-3.70031 2.99969,-6.7 6.7,-6.7c3.70031,0 6.7,2.99969 6.7,6.7c0,3.70031 -2.99969,6.7 -6.7,6.7c-3.70031,0 -6.7,-2.99969 -6.7,-6.7z" fill-opacity="0.77647" fill="#ff0000" stroke="none" stroke-width="0" stroke-linecap="butt"/><path d="M213.44524,180.00476c0,-14.66579 11.88897,-26.55476 26.55476,-26.55476c14.66579,0 26.55476,11.88897 26.55476,26.55476c0,14.66579 -11.88897,26.55476 -26.55476,26.55476c-14.66579,0 -26.55476,-11.88897 -26.55476,-26.55475z" fill="none" stroke="url(#color-2)" stroke-width="5" stroke-linecap="butt"/><path d="M197.74621,221.91305v-83.82609h84.50761v83.82609z" fill="none" stroke="none" stroke-width="NaN" stroke-linecap="butt"/><path d="M246.16387,190.67259c0,-2.44128 1.97905,-4.42033 4.42033,-4.42033c2.44128,0 4.42033,1.97905 4.42033,4.42033c0,2.44128 -1.97905,4.42033 -4.42033,4.42033c-2.44128,0 -4.42033,-1.97905 -4.42033,-4.42033z" fill="#000000" stroke="#000000" stroke-width="0" stroke-linecap="butt"/><path d="M246.2131,169.32741c0,-2.44128 1.97905,-4.42033 4.42033,-4.42033c2.44128,0 4.42033,1.97905 4.42033,4.42033c0,2.44128 -1.97905,4.42033 -4.42033,4.42033c-2.44128,0 -4.42033,-1.97905 -4.42033,-4.42033z" fill="#000000" stroke="#000000" stroke-width="0" stroke-linecap="butt"/><path d="M257.23931,191.00073v-22.27848" fill="none" stroke="#000000" stroke-width="2" stroke-linecap="round"/><path d="M209.91162,197.53854v-34.45922c0,0 0.58355,-6.98101 7.34042,-6.72872c6.49818,0.24263 7.34043,6.72872 7.34043,6.72872v34.45922c0,0 -0.16819,6.18251 -7.13653,6.11702c-7.50837,-0.07057 -7.54432,-6.11702 -7.54432,-6.11702z" fill-opacity="0.21176" fill="#ffffff" stroke-opacity="0.61569" stroke="#ffffff" stroke-width="5" stroke-linecap="butt"/><path d="M201.52742,188.15911v-16.10816c0,0 0.58355,-6.981 7.34043,-6.72872c6.49818,0.24263 7.34042,6.72872 7.34042,6.72872v16.10816c0,0 -0.16819,6.18251 -7.13653,6.11702c-7.50838,-0.07057 -7.54432,-6.11702 -7.54432,-6.11702z" fill="url(#color-3)" stroke-opacity="0.61569" stroke="#ff8383" stroke-width="5" stroke-linecap="butt"/><path d="M232.54966,172.1c0,-3.09279 2.5072,-5.6 5.6,-5.6c3.09279,0 5.6,2.5072 5.6,5.6c0,3.09279 -2.5072,5.6 -5.6,5.6c-3.09279,0 -5.6,-2.50721 -5.6,-5.6z" fill-opacity="0.77647" fill="#ff0000" stroke="none" stroke-width="0" stroke-linecap="butt"/><path d="M234.74966,193.9c0,-1.32548 1.07452,-2.4 2.4,-2.4c1.32548,0 2.4,1.07452 2.4,2.4c0,1.32548 -1.07452,2.4 -2.4,2.4c-1.32548,0 -2.4,-1.07452 -2.4,-2.4z" fill-opacity="0.77647" fill="#ff0000" stroke="none" stroke-width="0" stroke-linecap="butt"/><path d="M238.14966,177.7c0,-1.76731 1.43269,-3.2 3.2,-3.2c1.76731,0 3.2,1.43269 3.2,3.2c0,1.76731 -1.43269,3.2 -3.2,3.2c-1.76731,0 -3.2,-1.43269 -3.2,-3.2z" fill-opacity="0.77647" fill="#ff0000" stroke="none" stroke-width="0" stroke-linecap="butt"/><path d="M229.14966,165.5c0,-1.10457 0.89543,-2 2,-2c1.10457,0 2,0.89543 2,2c0,1.10457 -0.89543,2 -2,2c-1.10457,0 -2,-0.89543 -2,-2z" fill-opacity="0.77647" fill="#ff0000" stroke="none" stroke-width="0" stroke-linecap="butt"/><path d="M247.14966,159.7c0,-1.10457 0.89543,-2 2,-2c1.10457,0 2,0.89543 2,2c0,1.10457 -0.89543,2 -2,2c-1.10457,0 -2,-0.89543 -2,-2z" fill-opacity="0.77647" fill="#ff0000" stroke="none" stroke-width="0" stroke-linecap="butt"/></g></g></svg>