<svg version="1.1" xmlns="http://www.w3.org/2000/svg" xmlns:xlink="http://www.w3.org/1999/xlink" width="104.43698" height="87.16036" viewBox="0,0,104.43698,87.16036"><defs><radialGradient cx="240.00015" cy="180.00002" r="43.58018" gradientUnits="userSpaceOnUse" id="color-1"><stop offset="0" stop-color="#000000" stop-opacity="0.75294"/><stop offset="1" stop-color="#000000" stop-opacity="0"/></radialGradient><linearGradient x1="280.63855" y1="180.93289" x2="197.31328" y2="180.93289" gradientUnits="userSpaceOnUse" id="color-2"><stop offset="0" stop-color="#ff2929"/><stop offset="1" stop-color="#d50000"/></linearGradient><radialGradient cx="222.06763" cy="194.29193" r="5.76763" gradientUnits="userSpaceOnUse" id="color-3"><stop offset="0" stop-color="#ff6060"/><stop offset="1" stop-color="#ff6060" stop-opacity="0"/></radialGradient><radialGradient cx="211.1288" cy="194.71443" r="9.12829" gradientUnits="userSpaceOnUse" id="color-4"><stop offset="0" stop-color="#ff6060"/><stop offset="1" stop-color="#ff6060" stop-opacity="0"/></radialGradient><radialGradient cx="212.05259" cy="166.54303" r="8.55468" gradientUnits="userSpaceOnUse" id="color-5"><stop offset="0" stop-color="#ff6060"/><stop offset="1" stop-color="#ff6060" stop-opacity="0"/></radialGradient><radialGradient cx="221.65388" cy="167.69583" r="5.3568" gradientUnits="userSpaceOnUse" id="color-6"><stop offset="0" stop-color="#ff6060"/><stop offset="1" stop-color="#ff6060" stop-opacity="0"/></radialGradient><linearGradient x1="211.95392" y1="160.69049" x2="200.49349" y2="162.38835" gradientUnits="userSpaceOnUse" id="color-7"><stop offset="0" stop-color="#ff0000"/><stop offset="1" stop-color="#930000"/></linearGradient><linearGradient x1="200.46971" y1="161.53943" x2="211.97767" y2="161.53943" gradientUnits="userSpaceOnUse" id="color-8"><stop offset="0" stop-color="#000000" stop-opacity="0.5098"/><stop offset="1" stop-color="#ffffff" stop-opacity="0.52549"/></linearGradient><linearGradient x1="201.70168" y1="165.88771" x2="192.40162" y2="167.26554" gradientUnits="userSpaceOnUse" id="color-9"><stop offset="0" stop-color="#8e0000"/><stop offset="1" stop-color="#ff0000"/></linearGradient><linearGradient x1="192.38231" y1="166.57662" x2="201.72094" y2="166.57662" gradientUnits="userSpaceOnUse" id="color-10"><stop offset="0" stop-color="#000000" stop-opacity="0.5098"/><stop offset="1" stop-color="#ffffff" stop-opacity="0.52549"/></linearGradient><linearGradient x1="205.46997" y1="169.51027" x2="200.2026" y2="170.29064" gradientUnits="userSpaceOnUse" id="color-11"><stop offset="0" stop-color="#d60000"/><stop offset="1" stop-color="#600000"/></linearGradient><linearGradient x1="200.19168" y1="169.90045" x2="205.48089" y2="169.90045" gradientUnits="userSpaceOnUse" id="color-12"><stop offset="0" stop-color="#000000" stop-opacity="0.5098"/><stop offset="1" stop-color="#ffffff" stop-opacity="0.52549"/></linearGradient><linearGradient x1="210.82105" y1="172.68334" x2="205.55368" y2="173.46371" gradientUnits="userSpaceOnUse" id="color-13"><stop offset="0" stop-color="#ff0000"/><stop offset="1" stop-color="#930000"/></linearGradient><linearGradient x1="205.54276" y1="173.07352" x2="210.83196" y2="173.07352" gradientUnits="userSpaceOnUse" id="color-14"><stop offset="0" stop-color="#000000" stop-opacity="0.5098"/><stop offset="1" stop-color="#ffffff" stop-opacity="0.52549"/></linearGradient><linearGradient x1="216.16425" y1="166.17046" x2="209.48118" y2="167.16055" gradientUnits="userSpaceOnUse" id="color-15"><stop offset="0" stop-color="#ff0000"/><stop offset="1" stop-color="#930000"/></linearGradient><linearGradient x1="209.46737" y1="166.66549" x2="216.17807" y2="166.66549" gradientUnits="userSpaceOnUse" id="color-16"><stop offset="0" stop-color="#000000" stop-opacity="0.5098"/><stop offset="1" stop-color="#ffffff" stop-opacity="0.52549"/></linearGradient><linearGradient x1="212.19856" y1="199.84629" x2="200.72909" y2="198.21048" gradientUnits="userSpaceOnUse" id="color-17"><stop offset="0" stop-color="#ff0000"/><stop offset="1" stop-color="#930000"/></linearGradient><linearGradient x1="200.70705" y1="199.02837" x2="212.22059" y2="199.02837" gradientUnits="userSpaceOnUse" id="color-18"><stop offset="0" stop-color="#000000" stop-opacity="0.5098"/><stop offset="1" stop-color="#ffffff" stop-opacity="0.52549"/></linearGradient><linearGradient x1="200.67502" y1="194.44244" x2="191.36763" y2="193.11501" gradientUnits="userSpaceOnUse" id="color-19"><stop offset="0" stop-color="#8e0000"/><stop offset="1" stop-color="#ff0000"/></linearGradient><linearGradient x1="191.34978" y1="193.77872" x2="200.69292" y2="193.77872" gradientUnits="userSpaceOnUse" id="color-20"><stop offset="0" stop-color="#000000" stop-opacity="0.5098"/><stop offset="1" stop-color="#ffffff" stop-opacity="0.52549"/></linearGradient><linearGradient x1="205.67099" y1="191.05495" x2="200.39948" y2="190.30313" gradientUnits="userSpaceOnUse" id="color-21"><stop offset="0" stop-color="#d60000"/><stop offset="1" stop-color="#600000"/></linearGradient><linearGradient x1="200.38935" y1="190.67905" x2="205.68111" y2="190.67905" gradientUnits="userSpaceOnUse" id="color-22"><stop offset="0" stop-color="#000000" stop-opacity="0.5098"/><stop offset="1" stop-color="#ffffff" stop-opacity="0.52549"/></linearGradient><linearGradient x1="211.00209" y1="188.10298" x2="205.73054" y2="187.35114" gradientUnits="userSpaceOnUse" id="color-23"><stop offset="0" stop-color="#ff0000"/><stop offset="1" stop-color="#930000"/></linearGradient><linearGradient x1="205.72042" y1="187.72706" x2="211.01221" y2="187.72706" gradientUnits="userSpaceOnUse" id="color-24"><stop offset="0" stop-color="#000000" stop-opacity="0.5098"/><stop offset="1" stop-color="#ffffff" stop-opacity="0.52549"/></linearGradient><linearGradient x1="215.88588" y1="194.33139" x2="209.19757" y2="193.3775" gradientUnits="userSpaceOnUse" id="color-25"><stop offset="0" stop-color="#ff0000"/><stop offset="1" stop-color="#930000"/></linearGradient><linearGradient x1="209.18469" y1="193.85446" x2="215.8987" y2="193.85446" gradientUnits="userSpaceOnUse" id="color-26"><stop offset="0" stop-color="#000000" stop-opacity="0.5098"/><stop offset="1" stop-color="#ffffff" stop-opacity="0.52549"/></linearGradient><linearGradient x1="280.63855" y1="180.86622" x2="197.31328" y2="180.86622" gradientUnits="userSpaceOnUse" id="color-27"><stop offset="0" stop-color="#ff2929"/><stop offset="1" stop-color="#d50000"/></linearGradient><linearGradient x1="248.48836" y1="180.17178" x2="228.40523" y2="180.08911" gradientUnits="userSpaceOnUse" id="color-28"><stop offset="0" stop-color="#1a1a1a" stop-opacity="0"/><stop offset="1" stop-color="#1a1a1a"/></linearGradient><radialGradient cx="267.72074" cy="179.91451" r="17.19111" gradientUnits="userSpaceOnUse" id="color-29"><stop offset="0" stop-color="#ff5656"/><stop offset="1" stop-color="#ff5656" stop-opacity="0"/></radialGradient><radialGradient cx="263.75478" cy="169.66227" r="13.83044" gradientUnits="userSpaceOnUse" id="color-30"><stop offset="0" stop-color="#ff5656"/><stop offset="1" stop-color="#ff5656" stop-opacity="0"/></radialGradient><radialGradient cx="269.61231" cy="176.73034" r="12.53788" gradientUnits="userSpaceOnUse" id="color-31"><stop offset="0" stop-color="#ff6d6d"/><stop offset="1" stop-color="#ff6d6d" stop-opacity="0"/></radialGradient><radialGradient cx="261.72254" cy="159.20758" r="7.10911" gradientUnits="userSpaceOnUse" id="color-32"><stop offset="0" stop-color="#ff4e4e"/><stop offset="1" stop-color="#ff4e4e" stop-opacity="0"/></radialGradient><radialGradient cx="262.19746" cy="199.656" r="7.10911" gradientUnits="userSpaceOnUse" id="color-33"><stop offset="0" stop-color="#ff4e4e"/><stop offset="1" stop-color="#ff4e4e" stop-opacity="0"/></radialGradient><radialGradient cx="267.21304" cy="164.98307" r="8.55468" gradientUnits="userSpaceOnUse" id="color-34"><stop offset="0" stop-color="#ff7e7e"/><stop offset="1" stop-color="#ff7e7e" stop-opacity="0"/></radialGradient><radialGradient cx="273.20732" cy="192.49644" r="5.76763" gradientUnits="userSpaceOnUse" id="color-35"><stop offset="0" stop-color="#ff8989"/><stop offset="1" stop-color="#ff8989" stop-opacity="0"/></radialGradient><radialGradient cx="276.30949" cy="187.06769" r="5.76763" gradientUnits="userSpaceOnUse" id="color-36"><stop offset="0" stop-color="#ff6060"/><stop offset="1" stop-color="#ff6060" stop-opacity="0"/></radialGradient><linearGradient x1="246.63693" y1="174.26258" x2="237.60991" y2="174.26258" gradientUnits="userSpaceOnUse" id="color-37"><stop offset="0" stop-color="#000000"/><stop offset="1" stop-color="#737373"/></linearGradient><linearGradient x1="246.7539" y1="185.68992" x2="237.72687" y2="185.68992" gradientUnits="userSpaceOnUse" id="color-38"><stop offset="0" stop-color="#000000"/><stop offset="1" stop-color="#737373"/></linearGradient><radialGradient cx="275.76622" cy="172.44227" r="5.3568" gradientUnits="userSpaceOnUse" id="color-39"><stop offset="0" stop-color="#ff7e7e"/><stop offset="1" stop-color="#ff7e7e" stop-opacity="0"/></radialGradient><radialGradient cx="267.34952" cy="194.9762" r="9.12829" gradientUnits="userSpaceOnUse" id="color-40"><stop offset="0" stop-color="#ff6060"/><stop offset="1" stop-color="#ff6060" stop-opacity="0"/></radialGradient><radialGradient cx="271.98614" cy="165.9615" r="3.55232" gradientUnits="userSpaceOnUse" id="color-41"><stop offset="0" stop-color="#ffb5b5"/><stop offset="1" stop-color="#ffb5b5" stop-opacity="0"/></radialGradient><radialGradient cx="248.84918" cy="201.44078" r="5.76762" gradientUnits="userSpaceOnUse" id="color-42"><stop offset="0" stop-color="#dc0000"/><stop offset="1" stop-color="#dc0000" stop-opacity="0"/></radialGradient><radialGradient cx="248.10187" cy="160.93276" r="5.76762" gradientUnits="userSpaceOnUse" id="color-43"><stop offset="0" stop-color="#dc0000"/><stop offset="1" stop-color="#dc0000" stop-opacity="0"/></radialGradient><radialGradient cx="270.92053" cy="179.28951" r="8.55467" gradientUnits="userSpaceOnUse" id="color-44"><stop offset="0" stop-color="#ff6060"/><stop offset="1" stop-color="#ff6060" stop-opacity="0"/></radialGradient><radialGradient cx="212.05259" cy="166.47636" r="8.55468" gradientUnits="userSpaceOnUse" id="color-45"><stop offset="0" stop-color="#ff6060"/><stop offset="1" stop-color="#ff6060" stop-opacity="0"/></radialGradient></defs><g transform="translate(-183.53096,-136.41985)"><g data-paper-data="{&quot;isPaintingLayer&quot;:true}" fill-rule="nonzero" stroke-linecap="butt" stroke-linejoin="miter" stroke-miterlimit="10" stroke-dasharray="" stroke-dashoffset="0" style="mix-blend-mode: normal"><path d="M196.41994,180.00003c0,-24.06867 19.51151,-43.58018 43.58018,-43.58018c24.06867,0 43.58018,19.51152 43.58018,43.58018c0,24.06867 -19.51151,43.58018 -43.58018,43.58018c-24.06867,0 -43.58018,-19.51152 -43.58018,-43.58018z" data-paper-data="{&quot;index&quot;:null}" fill="url(#color-1)" stroke="none" stroke-width="0"/><g><path d="M212.68424,154.17926c12.95586,0.27546 16.73621,6.49881 23.6413,6.20344c4.89298,-0.12672 4.66395,39.80074 -1.33312,39.75268c-5.99707,-0.04805 -11.79995,6.0741 -21.40472,6.7961c-4.1862,0.31468 -14.43296,-7.80852 -20.14888,-10.30429c-7.39862,-3.2305 -9.90786,-1.08522 -9.90786,-1.08522c0,0 3.69456,-10.58715 21.08893,-10.71386c7.89518,-0.05751 19.33678,2.37115 19.33678,2.37115l-2.90146,-6.87566l2.89579,-6.51309c0,0 -10.82188,1.85223 -19.72438,1.56289c-16.64077,-0.54084 -20.0443,-9.5333 -20.0443,-9.5333c0,0 2.28486,1.35516 7.93428,-1.41552c6.30133,-3.0904 16.23928,-10.33735 20.56764,-10.24532z" data-paper-data="{&quot;index&quot;:null}" fill="url(#color-2)" stroke="none" stroke-width="0"/><path d="M222.88195,188.58208c3.15347,0.44975 5.34525,3.37073 4.89549,6.52419c-0.44975,3.15347 -3.37073,5.34525 -6.52419,4.8955c-3.15347,-0.44975 -5.34525,-3.37073 -4.8955,-6.5242c0.44975,-3.15347 3.37073,-5.34525 6.5242,-4.89549z" data-paper-data="{&quot;index&quot;:null}" fill="url(#color-3)" stroke="none" stroke-width="0"/><path d="M212.41766,185.67756c4.99092,0.71181 8.45981,5.33478 7.74799,10.32569c-0.71181,4.99092 -5.33478,8.45981 -10.32569,7.74799c-4.99094,-0.71182 -8.45982,-5.33478 -7.748,-10.3257c0.71181,-4.99092 5.33478,-8.45981 10.3257,-7.74799z" data-paper-data="{&quot;index&quot;:null}" fill="url(#color-4)" stroke="none" stroke-width="0"/><path d="M210.79886,158.08073c4.67362,-0.6924 9.02361,2.535 9.71601,7.20862c0.6924,4.67362 -2.53499,9.02361 -7.20859,9.71601c-4.67362,0.6924 -9.02362,-2.535 -9.71602,-7.20861c-0.6924,-4.67362 2.53501,-9.02362 7.20861,-9.71602z" data-paper-data="{&quot;index&quot;:null}" fill="url(#color-5)" stroke="none" stroke-width="0"/><path d="M220.86881,162.39688c2.92654,-0.43357 5.65044,1.58738 6.08401,4.51392c0.43357,2.92654 -1.58737,5.65044 -4.51392,6.08401c-2.92654,0.43357 -5.65045,-1.58738 -6.08402,-4.51391c-0.43357,-2.92654 1.58738,-5.65044 4.51393,-6.08401z" data-paper-data="{&quot;index&quot;:null}" fill="url(#color-6)" stroke="none" stroke-width="0"/><g stroke-width="1.5"><path d="M205.70548,158.0416c3.16472,-0.46886 5.96222,0.71709 6.24842,2.64889c0.2862,1.9318 -2.04729,3.87792 -5.21201,4.34678c-3.16472,0.46886 -5.96224,-0.7171 -6.24843,-2.6489c-0.2862,-1.9318 2.0473,-3.87791 5.21202,-4.34677z" data-paper-data="{&quot;index&quot;:null}" fill="url(#color-7)" stroke="url(#color-8)"/><path d="M196.63112,163.73816c2.56815,-0.38047 4.8383,0.58191 5.07055,2.14956c0.23225,1.56765 -1.66136,3.1469 -4.2295,3.52737c-2.56815,0.38047 -4.83831,-0.58191 -5.07056,-2.14956c-0.23225,-1.56765 1.66137,-3.1469 4.22951,-3.52738z" data-paper-data="{&quot;index&quot;:null}" fill="url(#color-9)" stroke="url(#color-10)"/><path d="M202.59811,168.29281c1.45454,-0.21549 2.74031,0.32958 2.87185,1.21747c0.13154,0.88789 -0.94096,1.78233 -2.3955,1.99782c-1.45454,0.21549 -2.74033,-0.32958 -2.87187,-1.21746c-0.13154,-0.88789 0.94096,-1.78234 2.39552,-1.99784z" data-paper-data="{&quot;index&quot;:null}" fill="url(#color-11)" stroke="url(#color-12)"/><path d="M207.94919,171.46587c1.45454,-0.21549 2.74032,0.32958 2.87186,1.21747c0.13154,0.88789 -0.94096,1.78234 -2.39551,1.99784c-1.45454,0.21549 -2.74032,-0.32958 -2.87186,-1.21747c-0.13154,-0.88789 0.94096,-1.78234 2.39551,-1.99784z" data-paper-data="{&quot;index&quot;:null}" fill="url(#color-13)" stroke="url(#color-14)"/><path d="M212.52055,164.62577c1.84548,-0.27341 3.4768,0.41817 3.6437,1.54468c0.16689,1.12651 -1.19385,2.26137 -3.03932,2.53477c-1.84548,0.27341 -3.47681,-0.41816 -3.64371,-1.54468c-0.16689,-1.12651 1.19386,-2.26137 3.03933,-2.53478z" data-paper-data="{&quot;index&quot;:null}" fill="url(#color-15)" stroke="url(#color-16)"/><path d="M200.72909,198.21048c0.27573,-1.93333 3.06679,-3.1344 6.234,-2.68269c3.16721,0.45171 5.5112,2.38516 5.23547,4.31848c-0.27573,1.93333 -3.06678,3.13441 -6.23399,2.6827c-3.16721,-0.45171 -5.51121,-2.38516 -5.23548,-4.31849z" data-paper-data="{&quot;index&quot;:null}" fill="url(#color-17)" stroke="url(#color-18)"/><path d="M191.36763,193.11501c0.22376,-1.56888 2.48868,-2.54355 5.05884,-2.17699c2.57017,0.36656 4.4723,1.93554 4.24854,3.50442c-0.22376,1.56888 -2.48867,2.54355 -5.05883,2.17699c-2.57017,-0.36656 -4.47231,-1.93554 -4.24855,-3.50442z" data-paper-data="{&quot;index&quot;:null}" fill="url(#color-19)" stroke="url(#color-20)"/><path d="M200.39948,190.30313c0.12673,-0.88859 1.40953,-1.44061 2.86523,-1.23299c1.45569,0.20761 2.53301,1.09625 2.40628,1.98482c-0.12673,0.88859 -1.40953,1.44062 -2.86521,1.233c-1.45569,-0.20761 -2.53303,-1.09625 -2.4063,-1.98484z" data-paper-data="{&quot;index&quot;:null}" fill="url(#color-21)" stroke="url(#color-22)"/><path d="M205.73054,187.35114c0.12673,-0.88859 1.40954,-1.44062 2.86522,-1.233c1.45569,0.20761 2.53302,1.09625 2.40629,1.98484c-0.12673,0.88859 -1.40954,1.44062 -2.86522,1.233c-1.45569,-0.20761 -2.53302,-1.09625 -2.40629,-1.98484z" data-paper-data="{&quot;index&quot;:null}" fill="url(#color-23)" stroke="url(#color-24)"/><path d="M209.19757,193.3775c0.16079,-1.1274 1.78837,-1.8278 3.63529,-1.56438c1.84693,0.26341 3.21379,1.39088 3.053,2.51828c-0.16079,1.1274 -1.78836,1.82781 -3.63528,1.5644c-1.84693,-0.26341 -3.2138,-1.39089 -3.05301,-2.51829z" data-paper-data="{&quot;index&quot;:null}" fill="url(#color-25)" stroke="url(#color-26)"/></g></g><g stroke-width="0"><path d="M236.32554,160.31603c4.89298,-0.12672 5.31764,-4.38914 12.81916,-8.37045c10.5138,-5.58003 22.96074,-0.26277 27.24861,3.36003c4.28787,3.6228 11.85258,10.95406 11.56676,24.91442c-0.26942,13.15945 -6.68393,20.79843 -12.13794,25.33751c-5.52335,4.59677 -18.16253,7.14321 -27.05122,2.85924c-10.74464,-5.17845 -7.78142,-8.30001 -13.77849,-8.34807c-5.99707,-0.04805 -8.53806,-10.69075 -8.53806,-10.69075l0.49664,-17.63181c0,0 2.46945,-11.13475 9.37454,-11.43012z" data-paper-data="{&quot;index&quot;:null}" fill="url(#color-27)" stroke="none"/><path d="M229.79285,192.44136c-2.07748,-3.00392 4.22271,-11.8527 4.22271,-11.8527c0,0 -6.52075,-8.42316 -5.3994,-11.36778c1.43161,-3.75935 3.97519,-6.1468 8.20594,-6.12938c4.86767,0.02004 9.13091,1.25299 11.5119,6.04162c1.30944,2.63352 -3.32128,11.2626 -3.32128,11.2626c0,0 4.98763,8.64472 3.32751,11.44667c-2.51748,4.24903 -6.5541,5.33411 -11.10063,5.31539c-4.54651,-0.01872 -7.44677,-4.71642 -7.44677,-4.71642z" data-paper-data="{&quot;index&quot;:null}" fill="url(#color-28)" stroke="none"/><path d="M231.99299,187.36921c0,-4.13706 3.35376,-7.49084 7.49083,-7.49084c4.13705,0 7.49083,3.35376 7.49083,7.49084c0,4.13706 -3.35375,7.49082 -7.49083,7.49082c-4.13705,0 -7.49083,-3.35374 -7.49083,-7.49082z" data-paper-data="{&quot;index&quot;:null}" fill="#ffffff" stroke="#000000"/><path d="M231.99299,172.85413c0,-4.13705 3.35376,-7.49082 7.49083,-7.49082c4.13705,0 7.49083,3.35374 7.49083,7.49082c0,4.13705 -3.35375,7.49083 -7.49083,7.49083c-4.13705,0 -7.49083,-3.35375 -7.49083,-7.49083z" data-paper-data="{&quot;index&quot;:null}" fill="#ffffff" stroke="#000000"/><path d="M267.72074,162.72341c9.4944,0 17.19112,7.69673 17.19112,17.19112c0,9.49439 -7.69672,17.19111 -17.19112,17.19111c-9.4944,0 -17.19112,-7.69672 -17.19112,-17.19111c0,-9.49439 7.69672,-17.19112 17.19111,-17.19112z" data-paper-data="{&quot;index&quot;:null}" fill="url(#color-29)" stroke="none"/><path d="M263.75478,155.83179c7.63835,0 13.83044,6.1921 13.83044,13.83045c0,7.63835 -6.1921,13.83044 -13.83045,13.83044c-7.63835,0 -13.83045,-6.19209 -13.83045,-13.83044c0,-7.63835 6.1921,-13.83045 13.83045,-13.83045z" data-paper-data="{&quot;index&quot;:null}" fill="url(#color-30)" stroke="none"/><path d="M269.61231,164.19246c6.92449,0 12.53788,5.6134 12.53788,12.53788c0,6.92448 -5.6134,12.53788 -12.53788,12.53788c-6.92449,0 -12.53789,-5.6134 -12.53789,-12.53788c0,-6.92448 5.6134,-12.53788 12.53788,-12.53788z" data-paper-data="{&quot;index&quot;:null}" fill="url(#color-31)" stroke="none"/><path d="M261.72254,152.0985c3.92625,0 7.1091,3.18286 7.1091,7.10911c0,3.92626 -3.18285,7.10911 -7.10911,7.10911c-3.92625,0 -7.10911,-3.18285 -7.10911,-7.10911c0,-3.92626 3.18286,-7.10911 7.10911,-7.10911z" data-paper-data="{&quot;index&quot;:null}" fill="url(#color-32)" stroke="none"/><path d="M262.19746,192.54692c3.92625,0 7.10911,3.18285 7.10911,7.10911c0,3.92625 -3.18286,7.10911 -7.10911,7.10911c-3.92625,0 -7.10911,-3.18285 -7.10911,-7.1091c0,-3.92625 3.18286,-7.10911 7.10911,-7.10911z" data-paper-data="{&quot;index&quot;:null}" fill="url(#color-33)" stroke="none"/><path d="M267.21304,156.42839c4.72463,0 8.55467,3.83005 8.55467,8.55468c0,4.72463 -3.83004,8.55468 -8.55466,8.55468c-4.72463,0 -8.55467,-3.83005 -8.55467,-8.55468c0,-4.72463 3.83006,-8.55468 8.55467,-8.55468z" data-paper-data="{&quot;index&quot;:null}" fill="url(#color-34)" stroke="none"/><path d="M273.20732,186.7288c3.18538,0 5.76762,2.58225 5.76762,5.76762c0,3.18538 -2.58225,5.76763 -5.76762,5.76763c-3.18538,0 -5.76763,-2.58225 -5.76763,-5.76763c0,-3.18538 2.58225,-5.76762 5.76763,-5.76762z" data-paper-data="{&quot;index&quot;:null}" fill="url(#color-35)" stroke="none"/><path d="M276.30949,181.30007c3.18538,0 5.76762,2.58225 5.76762,5.76762c0,3.18538 -2.58225,5.76763 -5.76762,5.76763c-3.18538,0 -5.76763,-2.58225 -5.76763,-5.76763c0,-3.18538 2.58225,-5.76762 5.76763,-5.76762z" data-paper-data="{&quot;index&quot;:null}" fill="url(#color-36)" stroke="none"/><path d="M242.12343,169.74908c2.49274,0 4.5135,2.02077 4.5135,4.5135c0,2.49274 -2.02077,4.5135 -4.5135,4.5135c-2.49274,0 -4.5135,-2.02077 -4.5135,-4.5135c0,-2.49274 2.02077,-4.5135 4.5135,-4.5135z" data-paper-data="{&quot;index&quot;:null}" fill="url(#color-37)" stroke="none"/><path d="M242.24038,181.17644c2.49274,0 4.51351,2.02077 4.51351,4.51351c0,2.49274 -2.02077,4.51351 -4.51351,4.51351c-2.49274,0 -4.51351,-2.02077 -4.51351,-4.51351c0,-2.49274 2.02077,-4.51351 4.51351,-4.51351z" data-paper-data="{&quot;index&quot;:null}" fill="url(#color-38)" stroke="none"/><path d="M275.76622,167.08543c2.95848,0 5.3568,2.39832 5.3568,5.3568c0,2.95848 -2.39831,5.3568 -5.3568,5.3568c-2.95848,0 -5.35681,-2.39832 -5.35681,-5.3568c0,-2.95848 2.39832,-5.3568 5.35681,-5.3568z" data-paper-data="{&quot;index&quot;:null}" fill="url(#color-39)" stroke="none"/><path d="M267.34952,185.84789c5.04142,0 9.12829,4.08687 9.12829,9.12829c0,5.04142 -4.08687,9.12829 -9.12829,9.12829c-5.04143,0 -9.1283,-4.08687 -9.1283,-9.12829c0,-5.04142 4.08687,-9.12829 9.1283,-9.12829z" data-paper-data="{&quot;index&quot;:null}" fill="url(#color-40)" stroke="none"/><path d="M271.98614,162.40915c1.9619,0 3.55232,1.59043 3.55232,3.55232c0,1.9619 -1.59042,3.55232 -3.55232,3.55232c-1.9619,0 -3.55233,-1.59043 -3.55233,-3.55232c0,-1.9619 1.59043,-3.55232 3.55233,-3.55232z" data-paper-data="{&quot;index&quot;:null}" fill="url(#color-41)" stroke="none"/><path d="M248.84918,195.67318c3.18538,0 5.76762,2.58225 5.76762,5.76763c0,3.18537 -2.58225,5.76762 -5.76762,5.76762c-3.18538,0 -5.76763,-2.58225 -5.76763,-5.76762c0,-3.18538 2.58226,-5.76763 5.76763,-5.76763z" data-paper-data="{&quot;index&quot;:null}" fill="url(#color-42)" stroke="none"/><path d="M248.10187,155.16514c3.18538,0 5.76762,2.58225 5.76762,5.76762c0,3.18537 -2.58225,5.76762 -5.76762,5.76762c-3.18538,0 -5.76763,-2.58225 -5.76763,-5.76762c0,-3.18537 2.58226,-5.76762 5.76763,-5.76762z" data-paper-data="{&quot;index&quot;:null}" fill="url(#color-43)" stroke="none"/><path d="M270.92053,170.73488c4.72463,0 8.55467,3.83005 8.55467,8.55468c0,4.72463 -3.83004,8.55468 -8.55466,8.55468c-4.72463,0 -8.55468,-3.83005 -8.55468,-8.55468c0,-4.72463 3.83007,-8.55468 8.55468,-8.55468z" data-paper-data="{&quot;index&quot;:null}" fill="url(#color-44)" stroke="none"/><path d="" data-paper-data="{&quot;index&quot;:null}" fill="url(#color-45)" stroke="none"/></g><path d="M235.27642,181.23451l-0.52192,-2.23877l7.23741,-0.30968l3.95118,-12.28489l1.79025,6.16794l-1.92989,7.34117l1.83421,7.65573l-1.0279,4.66849l-4.70728,-11.14593z" fill="#000000" stroke="none" stroke-width="0"/></g></g></svg>