<svg version="1.1" xmlns="http://www.w3.org/2000/svg" xmlns:xlink="http://www.w3.org/1999/xlink" width="663.98218" height="398.81739" viewBox="0,0,663.98218,398.81739"><defs><linearGradient x1="429.06532" y1="116.98923" x2="578.68187" y2="116.98923" gradientUnits="userSpaceOnUse" id="color-1"><stop offset="0" stop-color="#0022ff" stop-opacity="0.26275"/><stop offset="1" stop-color="#0022ff" stop-opacity="0.60784"/></linearGradient><linearGradient x1="382.51877" y1="19.39163" x2="424.02722" y2="19.39163" gradientUnits="userSpaceOnUse" id="color-2"><stop offset="0" stop-color="#0022ff" stop-opacity="0.26275"/><stop offset="1" stop-color="#0022ff" stop-opacity="0.60784"/></linearGradient><linearGradient x1="381.01727" y1="87.70995" x2="457.06025" y2="87.70995" gradientUnits="userSpaceOnUse" id="color-3"><stop offset="0" stop-color="#0022ff" stop-opacity="0.26275"/><stop offset="1" stop-color="#0022ff" stop-opacity="0.60784"/></linearGradient><linearGradient x1="300.42014" y1="229.86864" x2="300.42014" y2="305.91162" gradientUnits="userSpaceOnUse" id="color-4"><stop offset="0" stop-color="#0022ff" stop-opacity="0.26275"/><stop offset="1" stop-color="#0022ff" stop-opacity="0.60784"/></linearGradient><linearGradient x1="415.87629" y1="198.20677" x2="415.87629" y2="380.94745" gradientUnits="userSpaceOnUse" id="color-5"><stop offset="0" stop-color="#0022ff" stop-opacity="0.26275"/><stop offset="1" stop-color="#0022ff" stop-opacity="0.60784"/></linearGradient><linearGradient x1="14.67174" y1="226.25426" x2="14.67174" y2="397.4548" gradientUnits="userSpaceOnUse" id="color-6"><stop offset="0" stop-color="#0022ff" stop-opacity="0.26275"/><stop offset="1" stop-color="#0022ff" stop-opacity="0.60784"/></linearGradient><linearGradient x1="483.86712" y1="129.71917" x2="483.86712" y2="295.51985" gradientUnits="userSpaceOnUse" id="color-7"><stop offset="0" stop-color="#e5ff00" stop-opacity="0.39608"/><stop offset="1" stop-color="#d9f00a" stop-opacity="0.6549"/></linearGradient><linearGradient x1="63.83392" y1="226.66418" x2="63.83392" y2="342.45135" gradientUnits="userSpaceOnUse" id="color-8"><stop offset="0" stop-color="#e5ff00" stop-opacity="0.39608"/><stop offset="1" stop-color="#d9f00a" stop-opacity="0.6549"/></linearGradient><linearGradient x1="75.09518" y1="88.52604" x2="75.09518" y2="157.76667" gradientUnits="userSpaceOnUse" id="color-9"><stop offset="0" stop-color="#e5ff00" stop-opacity="0.39608"/><stop offset="1" stop-color="#d9f00a" stop-opacity="0.6549"/></linearGradient><linearGradient x1="115.63572" y1="160.59811" x2="115.63572" y2="211.82072" gradientUnits="userSpaceOnUse" id="color-10"><stop offset="0" stop-color="#e5ff00" stop-opacity="0.39608"/><stop offset="1" stop-color="#d9f00a" stop-opacity="0.6549"/></linearGradient><radialGradient cx="-41.90228" cy="78.71425" r="0.62098" gradientUnits="userSpaceOnUse" id="color-11"><stop offset="0" stop-color="#daf010"/><stop offset="1" stop-color="#daf010" stop-opacity="0"/></radialGradient><linearGradient x1="-12.33557" y1="55.73809" x2="-12.33557" y2="201.66755" gradientUnits="userSpaceOnUse" id="color-12"><stop offset="0" stop-color="#e5ff00" stop-opacity="0.39608"/><stop offset="1" stop-color="#d9f00a" stop-opacity="0.6549"/></linearGradient></defs><g transform="translate(85.30031,1.36259)"><g data-paper-data="{&quot;isPaintingLayer&quot;:true}" fill-rule="nonzero" stroke="none" stroke-width="0" stroke-linecap="butt" stroke-linejoin="miter" stroke-miterlimit="10" stroke-dasharray="" stroke-dashoffset="0" style="mix-blend-mode: normal"><path d="M429.06532,116.98923c0,-41.31547 33.49281,-74.80827 74.80827,-74.80827c41.31547,0 74.80828,33.49281 74.80828,74.80827c0,41.31547 -33.49281,74.80827 -74.80827,74.80827c-41.31547,0 -74.80827,-33.49281 -74.80827,-74.80827z" fill="url(#color-1)"/><path d="M382.51877,19.39163c0,-11.46224 9.29198,-20.75422 20.75422,-20.75422c11.46224,0 20.75422,9.29198 20.75422,20.75422c0,11.46224 -9.29198,20.75422 -20.75422,20.75422c-11.46224,0 -20.75422,-9.29198 -20.75422,-20.75422z" fill="url(#color-2)"/><path d="M381.01727,87.70995c0,-20.99869 17.0228,-38.02149 38.02149,-38.02149c20.99869,0 38.02149,17.0228 38.02149,38.02149c0,20.99869 -17.0228,38.02149 -38.02149,38.02149c-20.99869,0 -38.02149,-17.0228 -38.02149,-38.02149z" fill="url(#color-3)"/><path d="M262.39865,267.89013c0,-20.99869 17.0228,-38.02149 38.02149,-38.02149c20.99869,0 38.02149,17.0228 38.02149,38.02149c0,20.99869 -17.0228,38.02149 -38.02149,38.02149c-20.99869,0 -38.02149,-17.0228 -38.02149,-38.02149z" fill="url(#color-4)"/><path d="M324.50595,289.57711c0,-50.46244 40.90789,-91.37034 91.37034,-91.37034c50.46245,0 91.37034,40.90789 91.37034,91.37034c0,50.46245 -40.90789,91.37034 -91.37034,91.37034c-50.46244,0 -91.37034,-40.90789 -91.37034,-91.37034z" fill="url(#color-5)"/><path d="M-70.92854,311.85453c0,-47.27572 38.32455,-85.60027 85.60027,-85.60027c47.27573,0 85.60028,38.32455 85.60028,85.60027c0,47.27573 -38.32455,85.60027 -85.60027,85.60027c-47.27572,0 -85.60027,-38.32454 -85.60027,-85.60027z" fill="url(#color-6)"/><path d="M400.96678,212.6195c0,-45.78459 37.11575,-82.90033 82.90033,-82.90033c45.78459,0 82.90034,37.11574 82.90034,82.90034c0,45.78459 -37.11575,82.90034 -82.90034,82.90034c-45.78459,0 -82.90033,-37.11575 -82.90033,-82.90034z" fill="url(#color-7)"/><path d="M5.94034,284.55777c0,-31.97375 25.91984,-57.89359 57.89359,-57.89359c31.97375,0 57.89358,25.91984 57.89358,57.89359c0,31.97375 -25.91984,57.89358 -57.89358,57.89358c-31.97375,0 -57.89359,-25.91984 -57.89359,-57.89358z" fill="url(#color-8)"/><path d="M40.47487,123.14636c0,-19.12027 15.50004,-34.62031 34.62031,-34.62031c19.12027,0 34.62031,15.50004 34.62031,34.62031c0,19.12027 -15.50004,34.62031 -34.62031,34.62031c-19.12027,0 -34.62031,-15.50004 -34.62031,-34.62031z" fill="url(#color-9)"/><path d="M90.02442,186.20942c0,-14.14473 11.46657,-25.6113 25.6113,-25.6113c14.14473,0 25.6113,11.46657 25.6113,25.6113c0,14.14473 -11.46657,25.6113 -25.6113,25.6113c-14.14473,0 -25.6113,-11.46657 -25.6113,-25.6113z" fill="url(#color-10)"/><path d="M-42.52323,78.71425c0,-0.34296 0.27802,-0.62098 0.62098,-0.62098c0.34296,0 0.62098,0.27802 0.62098,0.62098c0,0.34296 -0.27802,0.62099 -0.62098,0.62099c-0.34296,0 -0.62098,-0.27802 -0.62098,-0.62099z" fill="url(#color-11)"/><path d="M-85.30031,128.70281c0,-40.29731 32.66743,-72.96473 72.96474,-72.96473c40.29731,0 72.96473,32.66742 72.96473,72.96473c0,40.29731 -32.66742,72.96473 -72.96473,72.96473c-40.29731,0 -72.96473,-32.66742 -72.96473,-72.96473z" fill="url(#color-12)"/></g></g></svg>