<svg version="1.1" xmlns="http://www.w3.org/2000/svg" xmlns:xlink="http://www.w3.org/1999/xlink" width="355" height="61.65563" viewBox="0,0,355,61.65563"><defs><radialGradient cx="237.12238" cy="120.70417" r="177.5" gradientUnits="userSpaceOnUse" id="color-1"><stop offset="0" stop-color="#1a1a1a"/><stop offset="1" stop-color="#1a1a1a" stop-opacity="0"/></radialGradient></defs><g transform="translate(-59.62238,-89.87635)"><g data-paper-data="{&quot;isPaintingLayer&quot;:true}" fill-rule="nonzero" stroke-linejoin="miter" stroke-miterlimit="10" stroke-dasharray="" stroke-dashoffset="0" style="mix-blend-mode: normal"><path d="M59.62238,151.53198v-61.65563h355v61.65563z" fill="url(#color-1)" stroke="#ffffff" stroke-width="0" stroke-linecap="butt"/><text transform="translate(176.01571,135.62906) scale(1.01113,1.01113)" font-size="40" xml:space="preserve" fill="#ffffff" fill-rule="nonzero" stroke="#ffffff" stroke-width="2" stroke-linecap="butt" stroke-linejoin="miter" stroke-miterlimit="10" stroke-dasharray="" stroke-dashoffset="0" font-family="Sans Serif" font-weight="normal" text-anchor="start" style="mix-blend-mode: normal"><tspan x="0" dy="0">あと    分</tspan></text><path d="M272.09939,137.79126v-32.20654h-3.78719c-1.43975,0 -2.52476,-0.42775 -3.25505,-1.28325c-0.73031,-0.87637 -1.09547,-1.91966 -1.09547,-3.12988c0,-1.16848 0.38603,-2.19092 1.15808,-3.06729c0.79289,-0.89725 1.85705,-1.34587 3.19246,-1.34587h9.10797c1.33543,0 2.3787,0.42775 3.12988,1.28328c0.77204,0.83463 1.15808,1.91964 1.15808,3.25505v36.49448c0,1.58581 -0.44862,2.81687 -1.34583,3.69324c-0.87637,0.8555 -2.024,1.28325 -3.4429,1.28325c-1.39801,0 -2.55607,-0.43819 -3.47417,-1.31456c-0.89723,-0.89723 -1.34583,-2.11786 -1.34583,-3.66193z" fill="#ffffff" stroke="none" stroke-width="0.40889" stroke-linecap="butt"/><path d="M349.63146,123.85999v-18.62698c0,-1.00857 0.32305,-1.81227 0.96917,-2.4111c0.64611,-0.59883 1.48135,-0.89825 2.50566,-0.89825c0.9928,0 1.82015,0.30728 2.48202,0.92187c0.66188,0.61459 0.9928,1.41043 0.9928,2.38748v18.62698c0,0.99279 -0.33092,1.78862 -0.9928,2.38748c-0.66188,0.59883 -1.4892,0.89825 -2.48202,0.89825c-1.02432,0 -1.85955,-0.29942 -2.50566,-0.89825c-0.64611,-0.59886 -0.96917,-1.39467 -0.96917,-2.38748zM353.10631,137.57017c-1.04009,0 -1.93046,-0.37034 -2.67112,-1.11101c-0.74067,-0.74067 -1.11101,-1.63106 -1.11101,-2.67115c0,-1.04007 0.37034,-1.93044 1.11101,-2.67111c0.74067,-0.74067 1.63103,-1.11101 2.67112,-1.11101c1.04009,0 1.93046,0.37034 2.67112,1.11101c0.74067,0.74067 1.11101,1.63105 1.11101,2.67111c0,1.04009 -0.37034,1.93047 -1.11101,2.67115c-0.74067,0.74067 -1.63103,1.11101 -2.67112,1.11101z" fill="#ffffff" stroke="none" stroke-width="0.40889" stroke-linecap="butt"/><g fill="none" stroke="#ffffff"><path d="M121.60455,122.83805c0,-10.90898 8.84345,-19.75243 19.75243,-19.75243c10.90898,0 19.75243,8.84345 19.75243,19.75243c0,10.90898 -8.84345,19.75243 -19.75243,19.75243c-10.90898,0 -19.75243,-8.84345 -19.75243,-19.75243z" stroke-width="5.5" stroke-linecap="butt"/><path d="M149.58716,99.20921h-16.46035" stroke-width="7" stroke-linecap="round"/><path d="M152.67348,123.18098h-11.3165v-11.86852" stroke-width="4.5" stroke-linecap="round"/></g></g></g></svg>