<svg version="1.1" xmlns="http://www.w3.org/2000/svg" xmlns:xlink="http://www.w3.org/1999/xlink" width="95.33334" height="95.66666" viewBox="0,0,95.33334,95.66666"><g transform="translate(-192.33333,-132.16667)"><g data-paper-data="{&quot;isPaintingLayer&quot;:true}" fill-rule="nonzero" stroke-linecap="butt" stroke-linejoin="miter" stroke-miterlimit="10" stroke-dasharray="" stroke-dashoffset="0" style="mix-blend-mode: normal"><path d="M283,180c0,23.74824 -19.25176,43 -43,43c-23.74824,0 -43,-19.25176 -43,-43c0,-23.74824 19.25176,-43 43,-43c23.74824,0 43,19.25176 43,43z" fill="#000000" stroke="none" stroke-width="0"/><path d="M286.66667,180c0,25.86534 -20.89338,46.83333 -46.66667,46.83333c-25.77329,0 -46.66667,-20.968 -46.66667,-46.83333c0,-25.86534 20.89338,-46.83333 46.66667,-46.83333c25.77329,0 46.66667,20.968 46.66667,46.83333z" fill="none" stroke="#000000" stroke-width="2"/><path d="M247.16667,181.43333c0,0.36819 -0.59695,0.66667 -1.33333,0.66667c-0.73638,0 -1.33333,-0.29848 -1.33333,-0.66667c0,-0.36819 0.59695,-0.66667 1.33333,-0.66667c0.73638,0 1.33333,0.29848 1.33333,0.66667z" fill="none" stroke="#000000" stroke-width="2"/></g></g></svg>