<svg version="1.1" xmlns="http://www.w3.org/2000/svg" xmlns:xlink="http://www.w3.org/1999/xlink" width="121.06309" height="65.59774" viewBox="0,0,121.06309,65.59774"><defs><radialGradient cx="240.00003" cy="179.99999" r="32.79887" gradientUnits="userSpaceOnUse" id="color-1"><stop offset="0" stop-color="#000000"/><stop offset="1" stop-color="#000000" stop-opacity="0"/></radialGradient><linearGradient x1="216.06464" y1="180" x2="263.93532" y2="180" gradientUnits="userSpaceOnUse" id="color-2"><stop offset="0" stop-color="#eb0000"/><stop offset="1" stop-color="#ff7979"/></linearGradient><linearGradient x1="209.85743" y1="173.71089" x2="209.85743" y2="188.72244" gradientUnits="userSpaceOnUse" id="color-3"><stop offset="0" stop-color="#af0000"/><stop offset="1" stop-color="#ff6d6d"/></linearGradient><linearGradient x1="186.54864" y1="178.03156" x2="187.0433" y2="194.89091" gradientUnits="userSpaceOnUse" id="color-4"><stop offset="0" stop-color="#ff0000"/><stop offset="1" stop-color="#ffd1d1"/></linearGradient><linearGradient x1="186.99006" y1="181.34898" x2="186.58164" y2="167.42892" gradientUnits="userSpaceOnUse" id="color-5"><stop offset="0" stop-color="#ff3535"/><stop offset="1" stop-color="#920000"/></linearGradient></defs><g transform="translate(-151.73581,-147.20113)"><g data-paper-data="{&quot;isPaintingLayer&quot;:true}" fill-rule="nonzero" stroke-linejoin="miter" stroke-miterlimit="10" stroke-dasharray="" stroke-dashoffset="0" style="mix-blend-mode: normal"><path d="M240.00003,212.79887c-18.11432,0 -32.79887,-14.68456 -32.79887,-32.79887c0,-18.11432 14.68456,-32.79887 32.79887,-32.79887c18.11432,0 32.79887,14.68456 32.79887,32.79887c0,18.11432 -14.68456,32.79887 -32.79887,32.79887z" fill="url(#color-1)" stroke="#000000" stroke-width="0" stroke-linecap="butt"/><path d="M216.06464,180c0,-13.21912 10.71622,-23.93534 23.93534,-23.93534c13.21912,0 23.93534,10.71622 23.93534,23.93534c0,13.21912 -10.71622,23.93534 -23.93534,23.93534c-13.21912,0 -23.93534,-10.71622 -23.93534,-23.93534z" fill="url(#color-2)" stroke="#000000" stroke-width="0" stroke-linecap="butt"/><path d="M248.04911,189.0581c-0.0317,-2.31081 1.75842,-4.21314 3.99835,-4.24895c2.23994,-0.03581 4.08144,1.80845 4.11315,4.11927c0.0317,2.31081 -1.75842,4.21314 -3.99836,4.24895c-2.23993,0.03581 -4.08143,-1.80846 -4.11314,-4.11927z" fill="#ffffff" stroke="#910000" stroke-width="0" stroke-linecap="butt"/><path d="M247.93797,170.67808c-0.0317,-2.31081 1.75843,-4.21315 3.99835,-4.24896c2.23993,-0.03581 4.08144,1.80844 4.11314,4.11927c0.0317,2.31081 -1.75842,4.21315 -3.99836,4.24896c-2.23993,0.03581 -4.08143,-1.80846 -4.11314,-4.11927z" fill="#ffffff" stroke="#910000" stroke-width="0" stroke-linecap="butt"/><path d="M189.49228,188.72244v-15.01155l39.44211,3.3359c0,0 1.25312,2.47014 1.28758,3.72803c0.03045,1.11139 -1.09135,3.43435 -1.09135,3.43435z" fill="url(#color-3)" stroke="#000000" stroke-width="0" stroke-linecap="butt"/><path d="M189.01118,183.97398l-0.18591,-6.33802l17.3787,0.43871c0,0 12.59089,0.2027 15.77953,0.74276c1.78985,0.30314 1.35777,1.39685 1.36401,1.81747c0.00574,0.38717 0.55946,0.87464 -0.81444,1.18553c-2.77769,0.62856 -16.25092,1.53366 -16.25092,1.53366z" fill="none" stroke="#910000" stroke-width="0" stroke-linecap="butt"/><path d="M194.88859,183.91482v-6.47557l32.18162,2.06041c0,0 0.78492,0.16352 0.78492,1.07926c0,0.91574 -0.88303,1.17738 -0.88303,1.17738z" fill="#410000" stroke="#000000" stroke-width="0" stroke-linecap="butt"/><path d="M185.87724,175.99752c6.66662,-0.19559 12.99761,-0.04538 13.1342,4.6102c0.08227,2.80383 -1.91942,6.37669 -5.29525,8.47404c-2.22953,1.38515 -3.82631,1.95122 -6.47794,2.02901c-2.53718,0.07445 -5.83961,-0.11533 -7.9563,-1.20305c-0.32281,-0.16588 -3.99237,-0.98162 -6.98836,-2.49648c-0.659,-0.3332 -2.14785,-1.22685 -3.53586,-2.36716c-1.84995,-1.51979 -3.83184,-3.28054 -6.44054,-2.82884c-4.52244,0.78308 -10.58138,7.65872 -10.58138,7.65872c0,0 0.26978,-2.80687 0.73956,-4.89455c0.30825,-1.36982 0.9083,-2.92096 0.90435,-3.05579c-0.13661,-4.65559 25.83091,-5.73049 32.49754,-5.92608z" data-paper-data="{&quot;index&quot;:null}" fill="url(#color-4)" stroke="none" stroke-width="0" stroke-linecap="butt"/><path d="M198.66925,179.36889c0.11278,3.84393 -6.95259,1.49411 -13.09178,1.67425c-4.75974,0.13965 -9.74278,-0.21039 -9.74278,-0.21039c0,0 -1.63299,0.37334 -1.53806,-0.29225c0.0737,-0.51668 -20.75688,0.86701 -20.58862,0.50729c0.17551,-0.37526 0.86157,-3.21995 2.31985,-5.02839c1.53076,-1.89831 3.29707,-3.30814 6.12165,-3.81645c2.82458,-0.50831 4.21625,0.49983 8.47905,1.18888c3.60732,0.58309 7.32625,0.10795 7.32625,0.10795c0,0 4.90151,-1.68633 9.42966,-2.1681c3.67818,-0.39134 11.17201,4.19327 11.28478,8.0372z" fill="url(#color-5)" stroke="none" stroke-width="0" stroke-linecap="butt"/><path d="M258.08717,166.04727v28.15892" fill="none" stroke="#ffffff" stroke-width="1.5" stroke-linecap="round"/></g></g></svg>