<svg version="1.1" xmlns="http://www.w3.org/2000/svg" xmlns:xlink="http://www.w3.org/1999/xlink" width="37.6" height="43.6" viewBox="0,0,37.6,43.6"><g transform="translate(-221.2,-158.2)"><g data-paper-data="{&quot;isPaintingLayer&quot;:true}" fill-rule="nonzero" stroke="none" stroke-linecap="butt" stroke-linejoin="miter" stroke-miterlimit="10" stroke-dasharray="" stroke-dashoffset="0" style="mix-blend-mode: normal"><path d="M221.2,201.8v-43.6h37.6v43.6z" fill="none" stroke-width="0"/><path d="M232.76089,190.53334l10.41132,-19.74492h-10.67567c-1.03029,0 -1.80301,-0.27791 -2.31815,-0.83372c-0.50159,-0.55581 -0.75239,-1.23363 -0.75239,-2.03345c0,-0.81339 0.24401,-1.49121 0.73204,-2.03345c0.48803,-0.55583 1.26753,-0.83374 2.33849,-0.83374h15.08828c0.97606,0 1.71488,0.33213 2.21648,0.99639c0.51514,0.66428 0.77271,1.32855 0.77271,1.99281c0,0.37958 -0.08812,0.78626 -0.26435,1.22006c-0.16262,0.42025 -0.39308,0.92861 -0.69138,1.5251l-10.32997,21.00566c-0.46092,0.92184 -0.82695,1.57933 -1.09809,1.97247c-0.25756,0.39312 -0.57613,0.69136 -0.95571,0.89472c-0.37959,0.18978 -0.86085,0.28467 -1.44377,0.28467c-1.04384,0 -1.88434,-0.3118 -2.52149,-0.93539c-0.62359,-0.63715 -0.93539,-1.3082 -0.93539,-2.01313c0,-0.42025 0.14234,-0.90828 0.42703,-1.46409z" fill="#ff0000" stroke-width="0.40889"/></g></g></svg>