<svg version="1.1" xmlns="http://www.w3.org/2000/svg" xmlns:xlink="http://www.w3.org/1999/xlink" width="527.51652" height="450.99171" viewBox="0,0,527.51652,450.99171"><defs><linearGradient x1="240.00003" y1="-2.97366" x2="240.00003" y2="363.61402" gradientUnits="userSpaceOnUse" id="color-1"><stop offset="0" stop-color="#000000"/><stop offset="1" stop-color="#ff0000"/></linearGradient><linearGradient x1="147.93039" y1="-24.14972" x2="113.196" y2="324.84591" gradientUnits="userSpaceOnUse" id="color-2"><stop offset="0" stop-color="#ffffff" stop-opacity="0.23529"/><stop offset="1" stop-color="#ffffff" stop-opacity="0"/></linearGradient><linearGradient x1="104.36421" y1="-32.23462" x2="45.07659" y2="313.51277" gradientUnits="userSpaceOnUse" id="color-3"><stop offset="0" stop-color="#ffffff" stop-opacity="0.23529"/><stop offset="1" stop-color="#ffffff" stop-opacity="0"/></linearGradient><linearGradient x1="320.15347" y1="-26.31629" x2="354.88786" y2="322.67934" gradientUnits="userSpaceOnUse" id="color-4"><stop offset="0" stop-color="#ffffff" stop-opacity="0.23529"/><stop offset="1" stop-color="#ffffff" stop-opacity="0"/></linearGradient><linearGradient x1="363.71965" y1="-34.40119" x2="423.00727" y2="311.3462" gradientUnits="userSpaceOnUse" id="color-5"><stop offset="0" stop-color="#ffffff" stop-opacity="0.23529"/><stop offset="1" stop-color="#ffffff" stop-opacity="0"/></linearGradient><radialGradient cx="233.24325" cy="90.73474" r="259.75976" gradientUnits="userSpaceOnUse" id="color-6"><stop offset="0" stop-color="#ffffff" stop-opacity="0"/><stop offset="1" stop-color="#ffffff" stop-opacity="0.57255"/></radialGradient><linearGradient x1="-19.75976" y1="180.00001" x2="499.75976" y2="180.00001" gradientUnits="userSpaceOnUse" id="color-7"><stop offset="0" stop-color="#ffffff" stop-opacity="0.23529"/><stop offset="1" stop-color="#ffffff" stop-opacity="0"/></linearGradient><linearGradient x1="240" y1="126.6967" x2="240" y2="278.34835" gradientUnits="userSpaceOnUse" id="color-8"><stop offset="0" stop-color="#ffffff" stop-opacity="0.50196"/><stop offset="1" stop-color="#ffffff" stop-opacity="0"/></linearGradient><linearGradient x1="125.88589" y1="180.82483" x2="125.88589" y2="332.47648" gradientUnits="userSpaceOnUse" id="color-9"><stop offset="0" stop-color="#ffffff" stop-opacity="0.50196"/><stop offset="1" stop-color="#ffffff" stop-opacity="0"/></linearGradient><linearGradient x1="240" y1="-24.95495" x2="240" y2="126.6967" gradientUnits="userSpaceOnUse" id="color-10"><stop offset="0" stop-color="#ffffff" stop-opacity="0.50196"/><stop offset="1" stop-color="#ffffff" stop-opacity="0"/></linearGradient><linearGradient x1="351.8506" y1="186.00601" x2="351.8506" y2="337.65766" gradientUnits="userSpaceOnUse" id="color-11"><stop offset="0" stop-color="#ffffff" stop-opacity="0.50196"/><stop offset="1" stop-color="#ffffff" stop-opacity="0"/></linearGradient><linearGradient x1="240" y1="248.31832" x2="240" y2="399.96997" gradientUnits="userSpaceOnUse" id="color-12"><stop offset="0" stop-color="#ffffff" stop-opacity="0"/><stop offset="1" stop-color="#ffffff" stop-opacity="0.50196"/></linearGradient><linearGradient x1="36.54655" y1="-20.37638" x2="36.54655" y2="382.02603" gradientUnits="userSpaceOnUse" id="color-13"><stop offset="0" stop-color="#ffffff" stop-opacity="0"/><stop offset="1" stop-color="#ffffff" stop-opacity="0.67843"/></linearGradient><linearGradient x1="36.54655" y1="-20.37638" x2="36.54655" y2="382.02603" gradientUnits="userSpaceOnUse" id="color-14"><stop offset="0" stop-color="#ffffff" stop-opacity="0.50196"/><stop offset="1" stop-color="#ffffff" stop-opacity="0"/></linearGradient><linearGradient x1="452.14908" y1="-28.1879" x2="452.14908" y2="374.21451" gradientUnits="userSpaceOnUse" id="color-15"><stop offset="0" stop-color="#ffffff" stop-opacity="0"/><stop offset="1" stop-color="#ffffff" stop-opacity="0.67843"/></linearGradient><linearGradient x1="452.14908" y1="-28.1879" x2="452.14908" y2="374.21451" gradientUnits="userSpaceOnUse" id="color-16"><stop offset="0" stop-color="#ffffff" stop-opacity="0.50196"/><stop offset="1" stop-color="#ffffff" stop-opacity="0"/></linearGradient></defs><g transform="translate(26.51651,52.52321)"><g data-paper-data="{&quot;isPaintingLayer&quot;:true}" fill-rule="nonzero" stroke-linecap="butt" stroke-linejoin="miter" stroke-miterlimit="10" stroke-dasharray="" stroke-dashoffset="0" style="mix-blend-mode: normal"><path d="M-20.99999,363.61402v-366.58768c0,0 167.26493,-49.54955 248.23724,-49.54955c91.6916,0 273.76276,49.54955 273.76276,49.54955v366.58768z" fill="url(#color-1)" stroke="none" stroke-width="0"/><path d="M222.82845,-0.16534c0,0 -111.06724,56.38595 -131.97476,123.95435c-49.54943,160.13261 -5.35422,274.6795 -5.35422,274.6795l-86.63419,-52.13782l-6.7491,-345.34612z" data-paper-data="{&quot;index&quot;:null}" fill-opacity="0.21176" fill="#360000" stroke="none" stroke-width="0"/><path d="M487.88384,-2.78402l-6.7491,345.34612l-95.64319,52.13783c0,0 44.19522,-114.54688 -5.35422,-274.6795c-34.14329,-110.34341 -131.97476,-123.95435 -131.97476,-123.95435z" data-paper-data="{&quot;index&quot;:null}" fill-opacity="0.21176" fill="#360000" stroke="none" stroke-width="0"/><path d="M88.00685,322.97431l34.73439,-348.99563l50.37831,3.74321l-64.76442,348.99563z" fill="url(#color-2)" stroke="none" stroke-width="0"/><path d="M37.71205,312.04935l59.28762,-345.74738l19.23358,2.92684z" fill="url(#color-3)" stroke="none" stroke-width="0"/><path d="M358.22722,324.55094l-63.26292,-348.99563l50.37831,-3.74321l34.7344,348.99563z" data-paper-data="{&quot;index&quot;:null}" fill="url(#color-4)" stroke="none" stroke-width="0"/><path d="M351.8506,-32.93777l19.23358,-2.92684l59.28762,345.74738z" data-paper-data="{&quot;index&quot;:null}" fill="url(#color-5)" stroke="none" stroke-width="0"/><path d="M-26.51651,117.76176v-54.05405c0,0 168.19118,-12.01201 253.75375,-12.01201c87.56431,0 265.76577,12.01201 265.76577,12.01201v54.05406c0,0 -178.20146,12.01201 -265.76577,12.01201c-85.56257,0 -253.75375,-12.01201 -253.75375,-12.01201z" fill="url(#color-6)" stroke="#ffffff" stroke-width="0"/><path d="M-19.75976,207.02703v-54.05406c0,0 179.07187,22.52252 266.51652,22.52252c85.69308,0 253.003,-22.52252 253.003,-22.52252v54.05406c0,0 -167.83621,-25.52553 -253.003,-25.52553c-87.91884,0 -266.51652,25.52553 -266.51652,25.52553z" fill="url(#color-7)" stroke="#ffffff" stroke-width="0"/><path d="M164.17418,202.52253c0,-41.87744 33.94838,-75.82583 75.82583,-75.82583c41.87745,0 75.82583,33.94839 75.82583,75.82583c0,41.87744 -33.94838,75.82582 -75.82583,75.82582c-41.87744,0 -75.82583,-33.94838 -75.82583,-75.82582z" fill="none" stroke="url(#color-8)" stroke-width="15"/><path d="M50.06007,256.65065c0,-41.87744 33.94838,-75.82582 75.82583,-75.82582c41.87745,0 75.82582,33.94838 75.82582,75.82582c0,41.87745 -33.94838,75.82583 -75.82582,75.82583c-41.87745,0 -75.82583,-33.94838 -75.82583,-75.82583z" fill="none" stroke="url(#color-9)" stroke-width="15"/><path d="M164.17418,50.87087c0,-41.87744 33.94838,-75.82582 75.82583,-75.82582c41.87745,0 75.82583,33.94838 75.82583,75.82582c0,41.87744 -33.94838,75.82583 -75.82583,75.82583c-41.87744,0 -75.82583,-33.94838 -75.82583,-75.82583z" fill="none" stroke="url(#color-10)" stroke-width="15"/><path d="M276.02477,261.83183c0,-41.87744 33.94838,-75.82583 75.82583,-75.82583c41.87745,0 75.82583,33.94838 75.82583,75.82583c0,41.87745 -33.94838,75.82583 -75.82583,75.82583c-41.87745,0 -75.82583,-33.94838 -75.82583,-75.82583z" fill="none" stroke="url(#color-11)" stroke-width="15"/><path d="M164.17418,324.14414c0,-41.87745 33.94838,-75.82583 75.82583,-75.82583c41.87745,0 75.82583,33.94838 75.82583,75.82583c0,41.87745 -33.94838,42.7928 -75.82583,42.7928c-41.87744,0 -75.82583,-0.91535 -75.82583,-42.7928z" fill="none" stroke="url(#color-12)" stroke-width="15"/><path d="M-8.49849,382.02603v-402.4024h90.09009c0,0 27.02703,140.40356 27.02703,204.20421c0,69.79456 -27.02703,198.1982 -27.02703,198.1982z" fill="url(#color-13)" stroke="url(#color-14)" stroke-width="0"/><path d="M407.10404,374.21451c0,0 -27.02703,-128.40364 -27.02703,-198.1982c0,-63.80064 27.02703,-204.2042 27.02703,-204.2042h90.09009v402.40241z" data-paper-data="{&quot;index&quot;:null}" fill="url(#color-15)" stroke="url(#color-16)" stroke-width="0"/></g></g></svg>