<svg version="1.1" xmlns="http://www.w3.org/2000/svg" xmlns:xlink="http://www.w3.org/1999/xlink" width="73.05344" height="73.05344" viewBox="0,0,73.05344,73.05344"><defs><radialGradient cx="240.03112" cy="180.00001" r="36.52672" gradientUnits="userSpaceOnUse" id="color-1"><stop offset="0" stop-color="#000000"/><stop offset="1" stop-color="#000000" stop-opacity="0"/></radialGradient><linearGradient x1="220.63261" y1="180.00294" x2="264.76308" y2="180.00294" gradientUnits="userSpaceOnUse" id="color-2"><stop offset="0" stop-color="#eb0000"/><stop offset="1" stop-color="#ff5454"/></linearGradient><linearGradient x1="217.25778" y1="179.34992" x2="264.62886" y2="179.34992" gradientUnits="userSpaceOnUse" id="color-3"><stop offset="0" stop-color="#eb0000"/><stop offset="1" stop-color="#ff5454"/></linearGradient><linearGradient x1="232.32807" y1="180.16188" x2="260.9608" y2="180.16188" gradientUnits="userSpaceOnUse" id="color-4"><stop offset="0" stop-color="#ff0000"/><stop offset="1" stop-color="#ffffff"/></linearGradient><linearGradient x1="251.99028" y1="180.0631" x2="213.80392" y2="179.89047" gradientUnits="userSpaceOnUse" id="color-5"><stop offset="0" stop-color="#f32121"/><stop offset="1" stop-color="#780000"/></linearGradient><linearGradient x1="220.30032" y1="179.81169" x2="229.66039" y2="179.81169" gradientUnits="userSpaceOnUse" id="color-6"><stop offset="0" stop-color="#981515"/><stop offset="1" stop-color="#ff242f"/></linearGradient><linearGradient x1="212.99781" y1="171.11066" x2="224.55534" y2="177.19358" gradientUnits="userSpaceOnUse" id="color-7"><stop offset="0" stop-color="#df0914"/><stop offset="1" stop-color="#c81c21"/></linearGradient><linearGradient x1="213.02724" y1="188.61593" x2="224.40844" y2="182.20916" gradientUnits="userSpaceOnUse" id="color-8"><stop offset="0" stop-color="#df0914"/><stop offset="1" stop-color="#c81c21"/></linearGradient><linearGradient x1="253.83472" y1="184.57753" x2="259.82122" y2="184.57753" gradientUnits="userSpaceOnUse" id="color-9"><stop offset="0" stop-color="#000000"/><stop offset="1" stop-color="#000000"/></linearGradient><linearGradient x1="253.83472" y1="174.28554" x2="259.82122" y2="174.28554" gradientUnits="userSpaceOnUse" id="color-10"><stop offset="0" stop-color="#000000"/><stop offset="1" stop-color="#000000"/></linearGradient></defs><g transform="translate(-203.50439,-143.47329)"><g data-paper-data="{&quot;isPaintingLayer&quot;:true}" fill-rule="nonzero" stroke-width="0" stroke-linecap="butt" stroke-linejoin="miter" stroke-miterlimit="10" stroke-dasharray="" stroke-dashoffset="0" style="mix-blend-mode: normal"><path d="M203.50439,180.00001c0,-20.17315 16.35357,-36.52672 36.52672,-36.52672c20.17315,0 36.52672,16.35357 36.52672,36.52672c0,20.17315 -16.35357,36.52672 -36.52672,36.52672c-20.17315,0 -36.52672,-16.35357 -36.52672,-36.52672z" fill="url(#color-1)" stroke="#000000"/><path d="M237.55937,205.20546l-0.19193,-50.40503l27.39566,3.38289v43.63925z" fill="url(#color-2)" stroke="none"/><path d="M217.25778,179.34992c0,-13.08116 10.60438,-23.68554 23.68554,-23.68554c13.08116,0 23.68554,10.60438 23.68554,23.68554c0,13.08116 -10.60438,23.68554 -23.68554,23.68554c-13.08116,0 -23.68554,-10.60438 -23.68554,-23.68554z" fill="url(#color-3)" stroke="#000000"/><path d="M243.31048,200.14017l-0.12453,-39.95658l17.77484,2.68165v34.59328z" fill="url(#color-4)" stroke="none"/><path d="M237.42879,154.79456l0.1838,50.40539l-22.37565,-3.49004l0.14773,-43.63892z" fill="url(#color-5)" stroke="none"/><g stroke="none"><path d="M229.66039,179.81169c0,4.50822 -2.09532,8.16286 -4.68004,8.16286c-2.58471,0 -4.68004,-3.65463 -4.68004,-8.16286c0,-4.50822 2.09532,-8.16286 4.68004,-8.16286c2.58471,0 4.68004,3.65463 4.68004,8.16286z" fill="url(#color-6)"/><path d="M212.13607,172.74798l1.7235,-3.27463l11.55754,6.08292l-1.7235,3.27463z" fill="url(#color-7)"/><path d="M213.93488,190.22826l-1.81526,-3.22468l11.38121,-6.40677l1.81525,3.22467z" fill="url(#color-8)"/><path d="M215.72911,170.66929c0,2.10383 -1.70549,3.80934 -3.80934,3.80934c-2.10383,0 -3.80934,-1.70549 -3.80934,-3.80934c0,-2.10383 1.70549,-3.80934 3.80934,-3.80934c2.10383,0 3.80934,1.70549 3.80934,3.80934z" fill="#ff424b"/><path d="M216.54108,188.89536c0,2.10383 -1.70549,3.80934 -3.80934,3.80934c-2.10383,0 -3.80934,-1.7055 -3.80934,-3.80934c0,-2.10383 1.70549,-3.80934 3.80934,-3.80934c2.10383,0 3.80934,1.7055 3.80934,3.80934z" fill="#ff424b"/></g><path d="M259.82122,187.67409h-5.98649v-6.19314h5.98649z" fill="url(#color-9)" stroke="none"/><path d="M259.82122,177.38212h-5.98649v-6.19314h5.98649z" fill="url(#color-10)" stroke="none"/></g></g></svg>