<svg version="1.1" xmlns="http://www.w3.org/2000/svg" xmlns:xlink="http://www.w3.org/1999/xlink" width="177.72944" height="180.90485" viewBox="0,0,177.72944,180.90485"><defs><radialGradient cx="383.12028" cy="212.20258" r="26.05926" gradientUnits="userSpaceOnUse" id="color-1"><stop offset="0" stop-color="#000000" stop-opacity="0.30588"/><stop offset="1" stop-color="#000000" stop-opacity="0"/></radialGradient><linearGradient x1="357.67032" y1="206.6002" x2="408.57021" y2="217.80494" gradientUnits="userSpaceOnUse" id="color-2"><stop offset="0" stop-color="#ff5454"/><stop offset="1" stop-color="#eb0000"/></linearGradient><radialGradient cx="342.22957" cy="202.76951" r="26.05927" gradientUnits="userSpaceOnUse" id="color-3"><stop offset="0" stop-color="#000000" stop-opacity="0.30588"/><stop offset="1" stop-color="#000000" stop-opacity="0"/></radialGradient><linearGradient x1="316.7796" y1="197.16715" x2="367.67947" y2="208.37189" gradientUnits="userSpaceOnUse" id="color-4"><stop offset="0" stop-color="#ff5454"/><stop offset="1" stop-color="#eb0000"/></linearGradient><radialGradient cx="303.45669" cy="181.46243" r="23.93565" gradientUnits="userSpaceOnUse" id="color-5"><stop offset="0" stop-color="#000000" stop-opacity="0.63137"/><stop offset="1" stop-color="#000000" stop-opacity="0"/></radialGradient><linearGradient x1="280.0807" y1="176.31661" x2="326.83268" y2="186.60825" gradientUnits="userSpaceOnUse" id="color-6"><stop offset="0" stop-color="#ff5454"/><stop offset="1" stop-color="#eb0000"/></linearGradient><linearGradient x1="292.48953" y1="170.01649" x2="287.82385" y2="191.21133" gradientUnits="userSpaceOnUse" id="color-7"><stop offset="0" stop-color="#eb0000"/><stop offset="1" stop-color="#ff5454"/></linearGradient><linearGradient x1="318.78954" y1="198.30319" x2="408.88362" y2="218.13586" gradientUnits="userSpaceOnUse" id="color-8"><stop offset="0" stop-color="#333333"/><stop offset="1" stop-color="#cacaca"/></linearGradient><linearGradient x1="410.41418" y1="231.04522" x2="312.48434" y2="209.48766" gradientUnits="userSpaceOnUse" id="color-9"><stop offset="0" stop-color="#ff4c4c"/><stop offset="1" stop-color="#ec0000"/></linearGradient><linearGradient x1="410.91589" y1="225.73151" x2="314.00794" y2="204.39888" gradientUnits="userSpaceOnUse" id="color-10"><stop offset="0" stop-color="#e8e8e8"/><stop offset="1" stop-color="#9e9e9e"/></linearGradient><linearGradient x1="373.61822" y1="195.52428" x2="357.71926" y2="192.0244" gradientUnits="userSpaceOnUse" id="color-11"><stop offset="0" stop-color="#929292"/><stop offset="1" stop-color="#000000"/></linearGradient><linearGradient x1="319.71939" y1="186.83452" x2="282.55731" y2="178.6539" gradientUnits="userSpaceOnUse" id="color-12"><stop offset="0" stop-color="#929292"/><stop offset="1" stop-color="#000000"/></linearGradient><linearGradient x1="317.53828" y1="175.95694" x2="312.87259" y2="197.15179" gradientUnits="userSpaceOnUse" id="color-13"><stop offset="0" stop-color="#eb0000"/><stop offset="1" stop-color="#ff5454"/></linearGradient><linearGradient x1="319.36488" y1="224.24199" x2="319.36488" y2="57.36255" gradientUnits="userSpaceOnUse" id="color-14"><stop offset="0" stop-color="#ff0000" stop-opacity="0.28235"/><stop offset="1" stop-color="#ffffff"/></linearGradient></defs><g transform="translate(-233.60308,-57.36255)"><g data-paper-data="{&quot;isPaintingLayer&quot;:true}" fill-rule="nonzero" stroke-linejoin="miter" stroke-miterlimit="10" stroke-dasharray="" stroke-dashoffset="0" style="mix-blend-mode: normal"><path d="M388.72264,186.75266c14.05559,3.09411 22.94166,16.99672 19.84756,31.0523c-3.09411,14.0556 -16.9967,22.94167 -31.05229,19.84757c-14.0556,-3.09411 -22.94167,-16.99671 -19.84757,-31.05229c3.09412,-14.0556 16.9967,-22.94166 31.0523,-19.84757z" data-paper-data="{&quot;index&quot;:null}" fill="url(#color-1)" stroke="url(#color-2)" stroke-width="0" stroke-linecap="butt"/><path d="M347.83192,177.31961c14.0556,3.09412 22.94167,16.99673 19.84757,31.05231c-3.09411,14.05559 -16.99671,22.94166 -31.0523,19.84756c-14.0556,-3.09411 -22.94167,-16.99671 -19.84757,-31.05229c3.09412,-14.0556 16.99671,-22.94167 31.0523,-19.84757z" data-paper-data="{&quot;index&quot;:null}" fill="url(#color-3)" stroke="url(#color-4)" stroke-width="0" stroke-linecap="butt"/><path d="M326.83266,186.60828c-2.84195,12.91019 -15.6116,21.07212 -28.52179,18.23016c-12.91018,-2.84195 -21.07209,-15.61162 -18.23014,-28.5218c2.84195,-12.91019 15.6116,-21.07212 28.52179,-18.23016c12.91018,2.84195 21.07209,15.61162 18.23014,28.5218z" data-paper-data="{&quot;index&quot;:null}" fill="url(#color-5)" stroke="url(#color-6)" stroke-width="0" stroke-linecap="butt"/><path d="M300.75412,182.94675c-1.2884,5.8528 -7.07747,9.55299 -12.93026,8.26459c-5.8528,-1.2884 -9.55299,-7.07747 -8.26459,-12.93026c1.2884,-5.8528 7.07747,-9.55299 12.93026,-8.26459c5.8528,1.2884 9.55299,7.07747 8.26459,12.93026z" data-paper-data="{&quot;index&quot;:null}" fill="url(#color-7)" stroke="#000000" stroke-width="0" stroke-linecap="butt"/><g data-paper-data="{&quot;index&quot;:null}"><path d="M317.67848,203.35049l4.86164,-7.66139l84.73888,18.91841l0.49355,8.57564z" data-paper-data="{&quot;index&quot;:null}" fill="url(#color-8)" stroke="none" stroke-width="0" stroke-linecap="butt"/><path d="M411.16325,227.64239l-0.84587,3.84256l-3.46798,2.34332l-92.29846,-20.31792l-2.16341,-3.58299l0.84587,-3.84256z" data-paper-data="{&quot;index&quot;:null}" fill="url(#color-9)" stroke="none" stroke-width="0" stroke-linecap="butt"/><path d="M411.33251,223.83876l-0.8333,3.78545l-96.90793,-21.33261l0.8333,-3.78545z" data-paper-data="{&quot;index&quot;:null}" fill="url(#color-10)" stroke="none" stroke-width="0" stroke-linecap="butt"/><path d="M327.02708,196.94142c0,0 14.10733,-4.8323 38.0071,0.42881c25.70811,5.6592 37.44988,16.18175 37.44988,16.18175" data-paper-data="{&quot;index&quot;:null}" fill="none" stroke-opacity="0.53333" stroke="#000000" stroke-width="2" stroke-linecap="round"/><path d="M381.86164,202.66206l-18.54962,2.53145l-16.33221,-9.94549" data-paper-data="{&quot;index&quot;:null}" fill="none" stroke-opacity="0.53333" stroke="#000000" stroke-width="2" stroke-linecap="round"/><path d="M403.40815,230.87899l-43.17818,-9.50493" data-paper-data="{&quot;index&quot;:null}" fill="none" stroke-opacity="0.34902" stroke="#ffffff" stroke-width="4.5" stroke-linecap="round"/><path d="M374.26183,225.45974l25.94562,5.71148" data-paper-data="{&quot;index&quot;:null}" fill="none" stroke-opacity="0.34902" stroke="#ffffff" stroke-width="2.5" stroke-linecap="round"/><path d="M356.94148,195.55749l3.88708,-4.43619l10.09458,2.22215l1.91731,5.71393z" fill="url(#color-11)" stroke="none" stroke-width="0" stroke-linecap="butt"/><path d="M320.95016,199.80593c0,0 -17.01998,-1.09739 -30.26747,-8.09374c-13.24748,-6.99634 -11.83019,-14.13915 -11.83019,-14.13915l49.98601,10.98855l-2.08566,8.27156l10.46279,-6.42999c0,0 4.13892,-6.52027 15.2102,-4.42282c10.21534,1.93529 13.19766,6.1965 13.19766,6.1965" fill="none" stroke-opacity="0.51765" stroke="#000000" stroke-width="2" stroke-linecap="round"/><path d="M280.74944,185.66455c0,0 -2.40968,-5.35424 -1.82953,-7.77156c0.45438,-1.89327 5.02624,-5.5482 5.02624,-5.5482l36.38433,11.71369l-1.27875,6.86254z" fill="url(#color-12)" stroke="none" stroke-width="0" stroke-linecap="butt"/></g><path d="M317.53828,175.95693c5.8528,1.2884 9.553,7.07748 8.26459,12.93026c-1.2884,5.85281 -7.07748,9.55301 -12.93026,8.2646c-5.8528,-1.2884 -9.55299,-7.07748 -8.26459,-12.93027c1.2884,-5.85279 7.07749,-9.55299 12.93027,-8.26458z" data-paper-data="{&quot;index&quot;:null}" fill="url(#color-13)" stroke="#000000" stroke-width="0" stroke-linecap="butt"/><path d="M398.64469,224.24198l-6.64024,-25.47269c0,0 -15.98699,12.16436 -19.80201,6.17683c-9.30735,-14.60752 -16.50639,-35.03305 -16.50639,-35.03305l-12.99615,24.07908c0,0 -1.84249,-7.25251 -6.54252,-16.69645c-5.02652,-10.09997 -8.80477,-12.72094 -8.80477,-12.72094c0,0 -5.75106,30.72538 -8.27122,21.8343c-2.13595,-7.53564 4.21183,-30.30157 -10.76078,-53.50429c-14.97259,-23.20272 -34.97972,-27.0313 -34.97972,-27.0313l7.30525,-3.77579l-18.50569,-5.37383c0,0 3.62644,-5.85373 6.44955,-7.73184c3.29366,-2.19115 12.11923,-4.62127 12.11923,-4.62127c0,0 -7.44887,-3.05839 -17.56667,-4.56551c-8.25348,-1.22942 -30.5495,-1.25744 -29.50392,-2.75312c7.10578,-10.16467 23.6475,-15.20714 35.30534,-17.91006c14.24053,-3.30173 77.62744,-7.7081 116.05274,44.81429c35.08082,47.95091 13.64796,120.28565 13.64796,120.28565z" data-paper-data="{&quot;index&quot;:null}" fill="url(#color-14)" stroke="none" stroke-width="0" stroke-linecap="butt"/></g></g></svg>