<svg version="1.1" xmlns="http://www.w3.org/2000/svg" xmlns:xlink="http://www.w3.org/1999/xlink" width="672.67267" height="498.73873" viewBox="0,0,672.67267,498.73873"><defs><linearGradient x1="234.74476" y1="-11.44144" x2="234.74476" y2="236.24324" gradientUnits="userSpaceOnUse" id="color-1"><stop offset="0" stop-color="#74edff"/><stop offset="1" stop-color="#dcfaff"/></linearGradient><radialGradient cx="23.52203" cy="66.73358" r="34" gradientUnits="userSpaceOnUse" id="color-2"><stop offset="0" stop-color="#ffffff"/><stop offset="1" stop-color="#ffffff" stop-opacity="0"/></radialGradient><radialGradient cx="23.52203" cy="66.73358" r="59.99524" gradientUnits="userSpaceOnUse" id="color-3"><stop offset="0" stop-color="#f6ffc9"/><stop offset="1" stop-color="#f6ffc9" stop-opacity="0"/></radialGradient><radialGradient cx="23.52203" cy="66.73358" r="34" gradientUnits="userSpaceOnUse" id="color-4"><stop offset="0" stop-color="#ffffff"/><stop offset="1" stop-color="#ffffff" stop-opacity="0"/></radialGradient><radialGradient cx="24.98359" cy="67.72797" r="121.19216" gradientUnits="userSpaceOnUse" id="color-5"><stop offset="0" stop-color="#ffffff"/><stop offset="1" stop-color="#ffffff" stop-opacity="0.27451"/></radialGradient><radialGradient cx="198.74043" cy="17.70638" r="33.16309" gradientUnits="userSpaceOnUse" id="color-6"><stop offset="0" stop-color="#ffffff" stop-opacity="0.6549"/><stop offset="1" stop-color="#ffffff" stop-opacity="0"/></radialGradient><radialGradient cx="220.87788" cy="6.63765" r="33.16309" gradientUnits="userSpaceOnUse" id="color-7"><stop offset="0" stop-color="#ffffff" stop-opacity="0.6549"/><stop offset="1" stop-color="#ffffff" stop-opacity="0"/></radialGradient><radialGradient cx="231.53665" cy="17.70638" r="33.16309" gradientUnits="userSpaceOnUse" id="color-8"><stop offset="0" stop-color="#ffffff" stop-opacity="0.6549"/><stop offset="1" stop-color="#ffffff" stop-opacity="0"/></radialGradient><radialGradient cx="262.47393" cy="34.77928" r="41.09019" gradientUnits="userSpaceOnUse" id="color-9"><stop offset="0" stop-color="#ffffff" stop-opacity="0.6549"/><stop offset="1" stop-color="#ffffff" stop-opacity="0"/></radialGradient><radialGradient cx="289.90297" cy="21.06476" r="41.09019" gradientUnits="userSpaceOnUse" id="color-10"><stop offset="0" stop-color="#ffffff" stop-opacity="0.6549"/><stop offset="1" stop-color="#ffffff" stop-opacity="0"/></radialGradient><radialGradient cx="303.10955" cy="34.77928" r="41.09019" gradientUnits="userSpaceOnUse" id="color-11"><stop offset="0" stop-color="#ffffff" stop-opacity="0.6549"/><stop offset="1" stop-color="#ffffff" stop-opacity="0"/></radialGradient><radialGradient cx="419.74044" cy="64.70638" r="33.16309" gradientUnits="userSpaceOnUse" id="color-12"><stop offset="0" stop-color="#ffffff" stop-opacity="0.6549"/><stop offset="1" stop-color="#ffffff" stop-opacity="0"/></radialGradient><radialGradient cx="441.87788" cy="53.63766" r="33.16309" gradientUnits="userSpaceOnUse" id="color-13"><stop offset="0" stop-color="#ffffff" stop-opacity="0.6549"/><stop offset="1" stop-color="#ffffff" stop-opacity="0"/></radialGradient><radialGradient cx="452.53666" cy="64.70638" r="33.16309" gradientUnits="userSpaceOnUse" id="color-14"><stop offset="0" stop-color="#ffffff" stop-opacity="0.6549"/><stop offset="1" stop-color="#ffffff" stop-opacity="0"/></radialGradient><radialGradient cx="465.89106" cy="-11.44425" r="28.81371" gradientUnits="userSpaceOnUse" id="color-15"><stop offset="0" stop-color="#ffffff" stop-opacity="0.6549"/><stop offset="1" stop-color="#ffffff" stop-opacity="0"/></radialGradient><radialGradient cx="485.12516" cy="-21.0613" r="28.81372" gradientUnits="userSpaceOnUse" id="color-16"><stop offset="0" stop-color="#ffffff" stop-opacity="0.6549"/><stop offset="1" stop-color="#ffffff" stop-opacity="0"/></radialGradient><radialGradient cx="494.38603" cy="-11.44425" r="28.81371" gradientUnits="userSpaceOnUse" id="color-17"><stop offset="0" stop-color="#ffffff" stop-opacity="0.6549"/><stop offset="1" stop-color="#ffffff" stop-opacity="0"/></radialGradient><radialGradient cx="93.43306" cy="-10.65227" r="25.02174" gradientUnits="userSpaceOnUse" id="color-18"><stop offset="0" stop-color="#ffffff" stop-opacity="0.6549"/><stop offset="1" stop-color="#ffffff" stop-opacity="0"/></radialGradient><radialGradient cx="110.13589" cy="-19.00369" r="25.02174" gradientUnits="userSpaceOnUse" id="color-19"><stop offset="0" stop-color="#ffffff" stop-opacity="0.6549"/><stop offset="1" stop-color="#ffffff" stop-opacity="0"/></radialGradient><radialGradient cx="118.178" cy="-10.65227" r="25.02174" gradientUnits="userSpaceOnUse" id="color-20"><stop offset="0" stop-color="#ffffff" stop-opacity="0.6549"/><stop offset="1" stop-color="#ffffff" stop-opacity="0"/></radialGradient></defs><g transform="translate(101.59159,65.49549)"><g data-paper-data="{&quot;isPaintingLayer&quot;:true}" fill-rule="nonzero" stroke="none" stroke-width="0" stroke-linecap="butt" stroke-linejoin="miter" stroke-miterlimit="10" stroke-dasharray="" stroke-dashoffset="0" style="mix-blend-mode: normal"><path d="M-101.59159,433.24324v-498.73873h672.67267v498.73873z" fill="url(#color-1)"/><path d="M-9.87907,73.08705c-3.50892,-18.44692 8.60071,-36.24564 27.04763,-39.75457c18.44692,-3.50892 36.24564,8.60071 39.75457,27.04763c3.50892,18.44692 -8.60071,36.24564 -27.04763,39.75457c-18.44692,3.50892 -36.24564,-8.60071 -39.75457,-27.04763z" fill="url(#color-2)"/><path d="M-35.41642,77.94469c-6.19173,-32.5508 15.17654,-63.95784 47.72734,-70.14957c32.5508,-6.19173 63.95783,15.17654 70.14957,47.72734c6.19173,32.5508 -15.17652,63.95784 -47.72732,70.14957c-32.5508,6.19173 -63.95784,-15.17654 -70.14957,-47.72734z" fill="url(#color-3)"/><path d="M-9.87907,73.08705c-3.50892,-18.44692 8.60071,-36.24564 27.04763,-39.75457c18.44692,-3.50892 36.24564,8.60071 39.75457,27.04763c3.50892,18.44692 -8.60071,36.24564 -27.04763,39.75457c-18.44692,3.50892 -36.24564,-8.60071 -39.75457,-27.04763z" fill="url(#color-4)"/><path d="M21.33523,73.87366l-115.46593,-28.49332l119.17297,15.51915l119.05561,29.17614z" data-paper-data="{&quot;index&quot;:null}" fill="url(#color-5)"/><g><path d="M165.57735,17.70638c0,-18.31547 14.84762,-33.16309 33.16309,-33.16309c18.31547,0 33.16309,14.84762 33.16309,33.16309c0,18.31547 -14.84762,33.16309 -33.16309,33.16309c-18.31547,0 -33.16309,-14.84762 -33.16309,-33.16309z" fill="url(#color-6)"/><path d="M187.7148,6.63765c0,-18.31547 14.84762,-33.16308 33.16308,-33.16308c18.31547,0 33.16309,14.84762 33.16309,33.16308c0,18.31547 -14.84762,33.16309 -33.16309,33.16309c-18.31547,0 -33.16308,-14.84762 -33.16308,-33.16309z" fill="url(#color-7)"/><path d="M198.37357,17.70638c0,-18.31547 14.84762,-33.16308 33.16308,-33.16308c18.31547,0 33.16309,14.84762 33.16309,33.16308c0,18.31547 -14.84762,33.16309 -33.16309,33.16309c-18.31547,0 -33.16308,-14.84762 -33.16308,-33.16309z" fill="url(#color-8)"/></g><g><path d="M221.38374,34.77928c0,-22.69348 18.3967,-41.09019 41.09019,-41.09019c22.69348,0 41.09019,18.3967 41.09019,41.09019c0,22.69348 -18.3967,41.09019 -41.09019,41.09019c-22.69348,0 -41.09019,-18.3967 -41.09019,-41.09019z" fill="url(#color-9)"/><path d="M248.81279,21.06476c0,-22.69349 18.39669,-41.09019 41.09018,-41.09019c22.69349,0 41.09019,18.3967 41.09019,41.09019c0,22.69349 -18.3967,41.09019 -41.09019,41.09019c-22.69349,0 -41.09018,-18.3967 -41.09018,-41.09019z" fill="url(#color-10)"/><path d="M262.01937,34.77928c0,-22.69349 18.3967,-41.09019 41.09019,-41.09019c22.69349,0 41.09019,18.3967 41.09019,41.09019c0,22.69349 -18.3967,41.09019 -41.09019,41.09019c-22.69349,0 -41.09019,-18.3967 -41.09019,-41.09019z" fill="url(#color-11)"/></g><g><path d="M386.57735,64.70638c0,-18.31546 14.84762,-33.16308 33.16308,-33.16308c18.31547,0 33.16309,14.84762 33.16309,33.16308c0,18.31547 -14.84762,33.16308 -33.16309,33.16308c-18.31547,0 -33.16308,-14.84762 -33.16308,-33.16308z" fill="url(#color-12)"/><path d="M408.7148,53.63766c0,-18.31547 14.84761,-33.16309 33.16308,-33.16309c18.31547,0 33.16309,14.84761 33.16309,33.16309c0,18.31547 -14.84762,33.16308 -33.16309,33.16308c-18.31547,0 -33.16308,-14.84761 -33.16308,-33.16308z" fill="url(#color-13)"/><path d="M419.37357,64.70638c0,-18.31547 14.84762,-33.16308 33.16309,-33.16308c18.31547,0 33.16309,14.84761 33.16309,33.16308c0,18.31547 -14.84762,33.16308 -33.16309,33.16308c-18.31547,0 -33.16309,-14.84761 -33.16309,-33.16308z" fill="url(#color-14)"/></g><g><path d="M437.07735,-11.44425c0,-15.91337 12.90034,-28.81371 28.81371,-28.81371c15.91337,0 28.81371,12.90034 28.81371,28.81371c0,15.91337 -12.90034,28.81371 -28.81371,28.81371c-15.91337,0 -28.81371,-12.90034 -28.81371,-28.81371z" fill="url(#color-15)"/><path d="M456.31145,-21.0613c0,-15.91338 12.90033,-28.81371 28.81371,-28.81371c15.91338,0 28.81372,12.90034 28.81372,28.81371c0,15.91338 -12.90034,28.81371 -28.81372,28.81371c-15.91338,0 -28.81371,-12.90034 -28.81371,-28.81371z" fill="url(#color-16)"/><path d="M465.57231,-11.44425c0,-15.91338 12.90034,-28.81371 28.81371,-28.81371c15.91338,0 28.81371,12.90034 28.81371,28.81371c0,15.91338 -12.90034,28.81371 -28.81371,28.81371c-15.91338,0 -28.81371,-12.90034 -28.81371,-28.81371z" fill="url(#color-17)"/></g><g><path d="M68.41132,-10.65227c0,-13.81912 11.20261,-25.02174 25.02174,-25.02174c13.81912,0 25.02174,11.20261 25.02174,25.02174c0,13.81912 -11.20261,25.02174 -25.02174,25.02174c-13.81912,0 -25.02174,-11.20261 -25.02174,-25.02174z" fill="url(#color-18)"/><path d="M85.11416,-19.00369c0,-13.81913 11.20261,-25.02174 25.02174,-25.02174c13.81913,0 25.02174,11.20261 25.02174,25.02174c0,13.81913 -11.20261,25.02174 -25.02174,25.02174c-13.81913,0 -25.02174,-11.20261 -25.02174,-25.02174z" fill="url(#color-19)"/><path d="M93.15626,-10.65227c0,-13.81913 11.20261,-25.02174 25.02174,-25.02174c13.81913,0 25.02174,11.20261 25.02174,25.02174c0,13.81913 -11.20261,25.02174 -25.02174,25.02174c-13.81913,0 -25.02174,-11.20261 -25.02174,-25.02174z" fill="url(#color-20)"/></g></g></g></svg>