<svg version="1.1" xmlns="http://www.w3.org/2000/svg" xmlns:xlink="http://www.w3.org/1999/xlink" width="70.02076" height="155.36732" viewBox="0,0,70.02076,155.36732"><defs><radialGradient cx="271.32642" cy="173.47203" r="17.48859" gradientUnits="userSpaceOnUse" id="color-1"><stop offset="0" stop-color="#000000" stop-opacity="0.63137"/><stop offset="1" stop-color="#000000" stop-opacity="0"/></radialGradient><linearGradient x1="271.32641" y1="155.98342" x2="271.32641" y2="190.96063" gradientUnits="userSpaceOnUse" id="color-2"><stop offset="0" stop-color="#ff5454"/><stop offset="1" stop-color="#eb0000"/></linearGradient><linearGradient x1="263.34765" y1="163.19288" x2="285.04994" y2="163.19287" gradientUnits="userSpaceOnUse" id="color-3"><stop offset="0" stop-color="#eb0000"/><stop offset="1" stop-color="#ff5454"/></linearGradient><radialGradient cx="282.48285" cy="208.52182" r="20.90193" gradientUnits="userSpaceOnUse" id="color-4"><stop offset="0" stop-color="#000000" stop-opacity="0.63137"/><stop offset="1" stop-color="#000000" stop-opacity="0"/></radialGradient><linearGradient x1="282.48285" y1="187.61987" x2="282.48285" y2="229.42374" gradientUnits="userSpaceOnUse" id="color-5"><stop offset="0" stop-color="#ff5454"/><stop offset="1" stop-color="#eb0000"/></linearGradient><radialGradient cx="285.90243" cy="272.69867" r="35.01038" gradientUnits="userSpaceOnUse" id="color-6"><stop offset="0" stop-color="#000000" stop-opacity="0.63137"/><stop offset="1" stop-color="#000000" stop-opacity="0"/></radialGradient><linearGradient x1="285.90243" y1="237.68833" x2="285.90243" y2="307.70908" gradientUnits="userSpaceOnUse" id="color-7"><stop offset="0" stop-color="#ff5454"/><stop offset="1" stop-color="#eb0000"/></linearGradient><linearGradient x1="269.91206" y1="193.86472" x2="284.83521" y2="189.41885" gradientUnits="userSpaceOnUse" id="color-8"><stop offset="0" stop-color="#000000"/><stop offset="1" stop-color="#929292"/></linearGradient><linearGradient x1="269.91206" y1="193.86472" x2="284.83521" y2="189.41885" gradientUnits="userSpaceOnUse" id="color-9"><stop offset="0" stop-color="#929292" stop-opacity="0"/><stop offset="1" stop-color="#929292"/></linearGradient><linearGradient x1="284.97131" y1="234.12523" x2="284.97131" y2="273.41391" gradientUnits="userSpaceOnUse" id="color-10"><stop offset="0" stop-color="#ffffff"/><stop offset="1" stop-color="#a6a6a6"/></linearGradient><linearGradient x1="300.69282" y1="245.4228" x2="266.14091" y2="298.65446" gradientUnits="userSpaceOnUse" id="color-11"><stop offset="0" stop-color="#f20000"/><stop offset="1" stop-color="#ff7979"/></linearGradient><linearGradient x1="290.39499" y1="220.88461" x2="283.65651" y2="222.96184" gradientUnits="userSpaceOnUse" id="color-12"><stop offset="0" stop-color="#c6c6c6"/><stop offset="1" stop-color="#6b6b6b"/></linearGradient><linearGradient x1="289.32984" y1="211.98699" x2="282.80336" y2="222.04186" gradientUnits="userSpaceOnUse" id="color-13"><stop offset="0" stop-color="#ff5454"/><stop offset="1" stop-color="#ce0000"/></linearGradient><linearGradient x1="283.92898" y1="281.02245" x2="270.48544" y2="301.73398" gradientUnits="userSpaceOnUse" id="color-14"><stop offset="0" stop-color="#ffadad" stop-opacity="0"/><stop offset="1" stop-color="#ffadad"/></linearGradient><linearGradient x1="283.92898" y1="281.02245" x2="270.48544" y2="301.73398" gradientUnits="userSpaceOnUse" id="color-15"><stop offset="0" stop-color="#ab0000"/><stop offset="1" stop-color="#ff5454"/></linearGradient><linearGradient x1="284.32046" y1="275.4264" x2="270.8769" y2="296.13793" gradientUnits="userSpaceOnUse" id="color-16"><stop offset="0" stop-color="#ff6b6b" stop-opacity="0"/><stop offset="1" stop-color="#ff6b6b"/></linearGradient><linearGradient x1="284.32046" y1="275.4264" x2="270.8769" y2="296.13793" gradientUnits="userSpaceOnUse" id="color-17"><stop offset="0" stop-color="#ab0000"/><stop offset="1" stop-color="#ff5454"/></linearGradient><linearGradient x1="280.5838" y1="298.89552" x2="276.64414" y2="291.53135" gradientUnits="userSpaceOnUse" id="color-18"><stop offset="0" stop-color="#ffffff" stop-opacity="0.5207"/><stop offset="1" stop-color="#ffffff" stop-opacity="0"/></linearGradient><linearGradient x1="287.01869" y1="290.71709" x2="270.20929" y2="299.7098" gradientUnits="userSpaceOnUse" id="color-19"><stop offset="0" stop-color="#ab0000"/><stop offset="1" stop-color="#ff5454"/></linearGradient><linearGradient x1="275.89163" y1="207.30485" x2="289.42386" y2="207.30485" gradientUnits="userSpaceOnUse" id="color-20"><stop offset="0" stop-color="#000000"/><stop offset="1" stop-color="#929292"/></linearGradient><linearGradient x1="282.37462" y1="227.69079" x2="295.90683" y2="227.69081" gradientUnits="userSpaceOnUse" id="color-21"><stop offset="0" stop-color="#000000"/><stop offset="1" stop-color="#929292"/></linearGradient><linearGradient x1="262.24721" y1="196.06491" x2="283.94953" y2="196.06491" gradientUnits="userSpaceOnUse" id="color-22"><stop offset="0" stop-color="#eb0000"/><stop offset="1" stop-color="#ff5454"/></linearGradient><linearGradient x1="297.25402" y1="243.62861" x2="297.25402" y2="268.91432" gradientUnits="userSpaceOnUse" id="color-23"><stop offset="0" stop-color="#e6e6e6"/><stop offset="1" stop-color="#e6e6e6" stop-opacity="0"/></linearGradient></defs><g transform="translate(-250.89203,-152.34173)"><g data-paper-data="{&quot;isPaintingLayer&quot;:true}" fill-rule="nonzero" stroke-linejoin="miter" stroke-miterlimit="10" stroke-dasharray="" stroke-dashoffset="0" style="mix-blend-mode: normal"><path d="M253.83781,173.47203c0,-9.65869 7.82992,-17.48859 17.4886,-17.48859c9.65868,0 17.48859,7.82992 17.48859,17.48859c0,9.65869 -7.82991,17.4886 -17.48859,17.4886c-9.65868,0 -17.4886,-7.82992 -17.4886,-17.4886z" fill="url(#color-1)" stroke="url(#color-2)" stroke-width="0" stroke-linecap="butt"/><path d="M263.34765,163.19288c0,-5.99293 4.85823,-10.85115 10.85115,-10.85115c5.99293,0 10.85115,4.85823 10.85115,10.85115c0,5.99293 -4.85823,10.85115 -10.85115,10.85115c-5.99293,0 -10.85115,-4.85823 -10.85115,-10.85115z" fill="url(#color-3)" stroke="#000000" stroke-width="0" stroke-linecap="butt"/><path d="M261.58093,208.52181c0,-11.54382 9.35812,-20.90193 20.90193,-20.90193c11.54381,0 20.90193,9.35812 20.90193,20.90193c0,11.54382 -9.35812,20.90193 -20.90193,20.90193c-11.54381,0 -20.90193,-9.35812 -20.90193,-20.90193z" fill="url(#color-4)" stroke="url(#color-5)" stroke-width="0" stroke-linecap="butt"/><path d="M250.89203,272.69867c0,-19.3357 15.67469,-35.01038 35.01038,-35.01038c19.33568,0 35.01038,15.67469 35.01038,35.01038c0,19.3357 -15.67469,35.01038 -35.01038,35.01038c-19.33568,0 -35.01038,-15.67469 -35.01038,-35.01038z" fill="url(#color-6)" stroke="url(#color-7)" stroke-width="0" stroke-linecap="butt"/><g><path d="M276.63705,199.60258l-15.53732,-35.31769c0,0 -1.68173,-7.66568 5.41631,-9.73743c6.96237,-2.03216 9.50685,5.29158 9.50685,5.29158l7.15683,37.6122z" fill="url(#color-8)" stroke="url(#color-9)" stroke-width="0" stroke-linecap="butt"/><path d="M294.1174,234.12525c0,0 4.11719,4.95566 5.79604,7.73589c1.26121,2.08859 3.05706,5.88071 3.05706,5.88071l-16.17308,22.36689l-19.82532,3.30518c0,0 13.79712,-13.87453 16.97848,-20.1414c3.49432,-6.88335 4.26543,-17.70031 4.26543,-17.70031z" fill="url(#color-10)" stroke="#ffffff" stroke-width="0" stroke-linecap="butt"/><path d="M262.82982,269.2292c1.08429,-2.07682 8.56002,0.72249 11.28876,-1.01935c14.77166,-9.42918 18.14319,-24.07478 26.57424,-22.78707c4.2404,0.64766 9.71345,23.24166 0.1722,37.94118c-9.54125,14.69952 -37.16098,26.5174 -34.72411,15.29049c4.06696,-18.73693 -7.56,-21.28703 -3.31109,-29.42524z" fill="url(#color-11)" stroke="#ffffff" stroke-width="0" stroke-linecap="butt"/><path d="M292.82861,215.21522l1.79,19.37091l-6.73845,2.07721l-9.01003,-16.89993l-2.88241,-22.47696l6.63896,-1.96472z" fill="url(#color-12)" stroke="#ffffff" stroke-width="0" stroke-linecap="butt"/><path d="M277.77594,218.964l15.66475,-4.0285" fill="none" stroke="url(#color-13)" stroke-width="7.5" stroke-linecap="round"/><path d="M266.62471,299.01162c2.59751,-7.58223 -1.20125,-7.15309 2.51109,-12.87243c0.60802,-0.93673 2.68523,9.07829 3.6799,8.49729c5.07843,-2.96635 13.02044,-12.37613 16.74805,-9.95659c4.45772,2.89344 -0.27624,5.76116 -3.98858,11.48049c-3.71234,5.71933 -21.40729,10.02279 -18.95045,2.85123z" fill="url(#color-14)" stroke="url(#color-15)" stroke-width="0" stroke-linecap="butt"/><path d="M269.72805,296.90742c-0.46479,-4.29462 -3.91314,-10.64496 -0.20081,-16.36429c0.60802,-0.93673 2.68523,9.07829 3.6799,8.4973c5.07843,-2.96635 13.02043,-12.37613 16.74805,-9.95659c4.45772,2.89344 -0.27624,5.76116 -3.98858,11.48049c-3.71234,5.71933 -15.9678,8.84504 -16.23856,6.34309z" fill="url(#color-16)" stroke="url(#color-17)" stroke-width="0" stroke-linecap="butt"/><path d="M267.45476,300.95221c-0.25405,-0.47488 -1.09529,-7.49468 -0.05882,-9.00211c3.40194,-4.94776 14.38391,-8.24066 17.94174,-10.14402c3.32503,-1.77882 11.80542,-2.98667 16.5535,-4.75039c1.88032,-0.69846 -3.80502,8.56369 -5.88487,11.48639c-1.33717,1.87906 -9.96582,8.61555 -14.60762,11.09881c-2.52739,1.3521 -6.11388,2.22344 -9.03247,2.40844c-2.44169,0.15477 -4.41592,-0.17081 -4.91147,-1.09712z" fill="url(#color-18)" stroke="url(#color-19)" stroke-width="0" stroke-linecap="butt"/><path d="M275.89162,208.97319l13.53222,-3.70746" fill="none" stroke="url(#color-20)" stroke-width="3.5" stroke-linecap="round"/><path d="M282.37462,229.35911l13.53222,-3.70746" fill="none" stroke="url(#color-21)" stroke-width="3.5" stroke-linecap="round"/></g><path d="M262.24721,196.06491c0,-5.99292 4.85823,-10.85116 10.85115,-10.85116c5.99293,0 10.85116,4.85823 10.85116,10.85116c0,5.99292 -4.85823,10.85115 -10.85116,10.85115c-5.99292,0 -10.85115,-4.85823 -10.85115,-10.85115z" fill="url(#color-22)" stroke="#000000" stroke-width="0" stroke-linecap="butt"/><path d="M287.82547,266.34286l7.9313,-17.44697l-10.97152,13.23506l9.58371,-15.89272l6.88507,-1.89537c0,0 1.35891,2.25446 1.85053,3.35263c0.43816,0.97876 0.9573,2.91949 0.9573,2.91949l0.7636,18.29931l-2.85715,-17.85714l-2.85042,18.1429l0.56471,-18.71431l-7,18.14283l4.62452,-18.79646z" fill="url(#color-23)" stroke="#000000" stroke-width="0" stroke-linecap="butt"/></g></g></svg>