<svg version="1.1" xmlns="http://www.w3.org/2000/svg" xmlns:xlink="http://www.w3.org/1999/xlink" width="118.80744" height="121.78747" viewBox="0,0,118.80744,121.78747"><defs><linearGradient x1="24.53745" y1="133.14714" x2="55.66239" y2="133.14714" gradientUnits="userSpaceOnUse" id="color-1"><stop offset="0" stop-color="#695600"/><stop offset="1" stop-color="#efd252"/></linearGradient><linearGradient x1="50.9598" y1="138.88188" x2="74.48429" y2="138.88188" gradientUnits="userSpaceOnUse" id="color-2"><stop offset="0" stop-color="#695600"/><stop offset="1" stop-color="#efd252"/></linearGradient><linearGradient x1="70.61392" y1="103.31471" x2="96.69335" y2="103.31471" gradientUnits="userSpaceOnUse" id="color-3"><stop offset="0" stop-color="#695600"/><stop offset="1" stop-color="#efd252"/></linearGradient><linearGradient x1="18.73842" y1="48.78591" x2="6.70665" y2="92.99947" gradientUnits="userSpaceOnUse" id="color-4"><stop offset="0" stop-color="#ffe366"/><stop offset="1" stop-color="#ffd92e"/></linearGradient><linearGradient x1="26.2854" y1="57.4963" x2="17.33618" y2="90.38242" gradientUnits="userSpaceOnUse" id="color-5"><stop offset="0" stop-color="#ffe570"/><stop offset="1" stop-color="#ffdc42"/></linearGradient><linearGradient x1="32.79845" y1="64.77831" x2="26.50817" y2="87.89347" gradientUnits="userSpaceOnUse" id="color-6"><stop offset="0" stop-color="#ffe882"/><stop offset="1" stop-color="#ffe054"/></linearGradient><linearGradient x1="45.1215" y1="70.85533" x2="39.18321" y2="100.56835" gradientUnits="userSpaceOnUse" id="color-7"><stop offset="0" stop-color="#ffffff"/><stop offset="1" stop-color="#313131"/></linearGradient><linearGradient x1="52.07305" y1="76.5293" x2="49.00507" y2="110.29957" gradientUnits="userSpaceOnUse" id="color-8"><stop offset="0" stop-color="#808080"/><stop offset="1" stop-color="#000000"/></linearGradient><linearGradient x1="41.08208" y1="105.38154" x2="76.62018" y2="108.61012" gradientUnits="userSpaceOnUse" id="color-9"><stop offset="0" stop-color="#695600"/><stop offset="1" stop-color="#ffe15c"/></linearGradient><linearGradient x1="58.98623" y1="104.12992" x2="56.95512" y2="126.48677" gradientUnits="userSpaceOnUse" id="color-10"><stop offset="0" stop-color="#555555"/><stop offset="1" stop-color="#2d2d2d"/></linearGradient><linearGradient x1="93.36427" y1="110.44672" x2="89.08884" y2="118.81601" gradientUnits="userSpaceOnUse" id="color-11"><stop offset="0" stop-color="#ffe261"/><stop offset="1" stop-color="#d1ab00"/></linearGradient><linearGradient x1="103.03899" y1="108.25837" x2="93.56372" y2="126.80652" gradientUnits="userSpaceOnUse" id="color-12"><stop offset="0" stop-color="#ffdc40"/><stop offset="1" stop-color="#ebc72a"/></linearGradient><linearGradient x1="43.4056" y1="104.64569" x2="65.07198" y2="104.64569" gradientUnits="userSpaceOnUse" id="color-13"><stop offset="0" stop-color="#544500"/><stop offset="1" stop-color="#ffe057"/></linearGradient><linearGradient x1="94.21005" y1="84.45787" x2="46.43141" y2="80.11725" gradientUnits="userSpaceOnUse" id="color-14"><stop offset="0" stop-color="#ffd92e"/><stop offset="1" stop-color="#000000"/></linearGradient><linearGradient x1="50.93952" y1="31.68942" x2="45.60442" y2="90.41466" gradientUnits="userSpaceOnUse" id="color-15"><stop offset="0" stop-color="#ffda36"/><stop offset="1" stop-color="#4a3c00"/></linearGradient><linearGradient x1="51.67138" y1="27.34516" x2="45.37651" y2="96.63469" gradientUnits="userSpaceOnUse" id="color-16"><stop offset="0" stop-color="#ffffff"/><stop offset="1" stop-color="#a9a9a9"/></linearGradient><linearGradient x1="116.61725" y1="70.43018" x2="71.6853" y2="66.34815" gradientUnits="userSpaceOnUse" id="color-17"><stop offset="0" stop-color="#ffda36"/><stop offset="1" stop-color="#4a3c00"/></linearGradient><linearGradient x1="96.20646" y1="38.67213" x2="89.91161" y2="107.96163" gradientUnits="userSpaceOnUse" id="color-18"><stop offset="0" stop-color="#ffffff"/><stop offset="1" stop-color="#a9a9a9"/></linearGradient><linearGradient x1="52.97933" y1="39.67516" x2="49.79961" y2="74.67543" gradientUnits="userSpaceOnUse" id="color-19"><stop offset="0" stop-color="#ffe261"/><stop offset="1" stop-color="#c29e00"/></linearGradient><linearGradient x1="52.97933" y1="39.67516" x2="49.79961" y2="74.67543" gradientUnits="userSpaceOnUse" id="color-20"><stop offset="0" stop-color="#ffffff"/><stop offset="1" stop-color="#a9a9a9"/></linearGradient><linearGradient x1="95.25324" y1="59.72255" x2="92.07351" y2="94.72286" gradientUnits="userSpaceOnUse" id="color-21"><stop offset="0" stop-color="#ffe261"/><stop offset="1" stop-color="#d1ab00"/></linearGradient><linearGradient x1="95.25324" y1="59.72255" x2="92.07351" y2="94.72286" gradientUnits="userSpaceOnUse" id="color-22"><stop offset="0" stop-color="#ffffff"/><stop offset="1" stop-color="#a9a9a9"/></linearGradient></defs><g transform="translate(2.25,-33)"><g data-paper-data="{&quot;isPaintingLayer&quot;:true}" fill-rule="nonzero" stroke-linejoin="miter" stroke-miterlimit="10" stroke-dasharray="" stroke-dashoffset="0" style="mix-blend-mode: normal"><path d="M24.53745,139.21762l7.81531,-10.6451l13.72256,-11.39864l9.58707,1.98727l-15.82756,19.45753l1.83864,5.50463l-3.90499,4.99709z" fill="url(#color-1)" stroke="none" stroke-width="0" stroke-linecap="butt"/><path d="M62.0184,134.66507l-1.59967,-8.9536l10.34944,-2.73519l3.71612,14.63342l-8.17532,7.88135l0.93751,7.48575l-4.53639,1.81067l-11.75029,-8.80737z" fill="url(#color-2)" stroke="none" stroke-width="0" stroke-linecap="butt"/><path d="M70.61392,101.71284l1.37074,-7.95464l3.36508,-0.98114l20.90097,11.6075c0,0 2.72371,9.88329 -5.34168,9.45422c-5.09921,-0.27127 -7.1065,-5.22043 -7.1065,-5.22043c0,0 -2.47013,-3.35797 -4.54257,-4.80055c-2.01763,-1.40443 -8.64604,-2.10495 -8.64604,-2.10495z" fill="url(#color-3)" stroke="none" stroke-width="0" stroke-linecap="butt"/><g fill="none" stroke-width="4.5" stroke-linecap="butt"><path d="M4.01073,60.96139c3.87367,-8.3524 9.78563,-13.52036 14.72771,-12.17549c6.18977,1.6844 8.51417,12.94744 5.19168,25.15668c-3.32247,12.20924 -11.03367,20.74131 -17.22344,19.05687c-5.32464,-1.44898 -7.78889,-9.98611 -6.25875,-20.11625c0.24862,-1.64594 0.60268,-3.33393 1.06706,-5.0404z" stroke="url(#color-4)"/><path d="M13.47458,71.67085c2.47127,-9.08125 8.20685,-15.4274 12.81082,-14.17455c4.60397,1.25287 6.33287,9.63033 3.8616,18.71158c-2.47127,9.08125 -8.20686,15.4274 -12.81083,14.17455c-4.60397,-1.25288 -6.33285,-9.63031 -3.86161,-18.71158z" stroke="url(#color-5)"/><path d="M23.79392,74.74139c1.73701,-6.38307 5.76849,-10.84372 9.00454,-9.96308c3.23604,0.88063 4.45126,6.76902 2.71426,13.1521c-1.73701,6.38307 -5.76848,10.84368 -9.00453,9.96306c-3.23604,-0.88063 -4.45127,-6.76901 -2.71425,-13.15208z" stroke="url(#color-6)"/></g><path d="M33.76759,94.61826l5.00284,-25.03225l12.70292,2.53876l-5.00283,25.03225c0,0 -1.04256,4.3995 -7.09802,3.43815c-6.80362,-1.08012 -5.60491,-5.97691 -5.60491,-5.97691z" fill="url(#color-7)" stroke="none" stroke-width="0" stroke-linecap="butt"/><path d="M40.72582,100.36567l8.88064,-28.26876l13.47042,5.43207l-3.0852,33.96001l-17.2025,-5.03145z" fill="url(#color-8)" stroke="none" stroke-width="0" stroke-linecap="butt"/><path d="M39.87562,118.66132l17.83769,-35.06545l17.74983,5.52397c0,0 -0.06975,9.97059 -0.1078,15.40933c-0.0428,6.11901 -0.55011,24.05827 -0.55011,24.05827l-11.94114,2.06955z" fill="url(#color-9)" stroke="none" stroke-width="0" stroke-linecap="butt"/><path d="M86.68294,111.27449c0,0 -5.26832,-1.33696 -10.96229,0.02971c-13.79874,3.31202 -19.57237,12.30944 -33.71776,13.44236c-8.18803,0.65579 -14.22836,-2.22646 -12.13249,-10.02354c2.26483,-8.4257 12.20768,-12.1292 12.20768,-12.1292" fill="none" stroke="url(#color-10)" stroke-width="5.5" stroke-linecap="round"/><path d="M83.4609,112.80352c0,0 -0.85698,-1.61307 0.21946,-3.09561c0.74354,-1.02408 2.24842,-1.48282 2.24842,-1.48282c0,0 11.29375,-1.01986 15.35709,-0.42267c1.28691,0.18913 2.87673,1.88563 2.87673,1.88563l-9.34991,17.18606c0,0 -1.95653,-0.155 -3.05267,-1.17736c-2.16956,-2.02353 -8.29911,-12.89322 -8.29911,-12.89322z" fill="url(#color-11)" stroke="none" stroke-width="0" stroke-linecap="butt"/><path d="M104.97414,120.94122c-2.61652,5.12193 -7.72514,7.74793 -11.41044,5.86532c-3.68528,-1.88263 -4.55169,-7.56094 -1.93518,-12.68287c2.61652,-5.12193 7.72514,-7.74791 11.41044,-5.86528c3.68528,1.88263 4.55169,7.56092 1.93518,12.68284z" fill="url(#color-12)" stroke="none" stroke-width="0" stroke-linecap="butt"/><path d="M101.98619,119.53185c-1.69689,3.32172 -4.79412,5.13503 -6.91784,4.05014c-2.12373,-1.08491 -2.46973,-4.65717 -0.77285,-7.9789c1.69689,-3.32172 4.79411,-5.13503 6.91785,-4.05013c2.12374,1.08491 2.46974,4.65717 0.77286,7.97889z" fill="#73631d" stroke="none" stroke-width="0" stroke-linecap="butt"/><path d="M62.19718,98.15567l-7.31648,6.11375l2.16171,2.87328c0,0 3.17245,0.32057 5.30127,1.74733c3.82727,2.56512 4.26918,8.73697 -2.87297,8.81816c-2.48158,0.0282 -5.20625,-0.94597 -6.71549,-2.36181c-5.15657,-4.83755 -13.19557,-12.30869 -7.24761,-16.13151c2.69731,-1.73357 10.91489,-7.01507 10.91489,-7.01507c0,0 3.88083,-1.9247 6.28064,1.02353c1.45979,1.79341 -0.50599,4.93232 -0.50599,4.93232z" fill="url(#color-13)" stroke="none" stroke-width="0" stroke-linecap="butt"/><g stroke-width="0" stroke-linecap="butt"><path d="M71.57382,68.49449c13.1937,1.19862 23.32828,8.34567 22.63624,15.96336c-0.69205,7.61769 -11.94869,12.82138 -25.1424,11.62275c-13.1937,-1.19863 -23.3283,-8.34568 -22.63624,-15.96338c0.69205,-7.61769 11.9487,-12.82136 25.14239,-11.62273z" fill="url(#color-14)" stroke="#000000"/><path d="M32.57369,86.64948c-5.47683,-4.08321 -8.18039,-8.0431 -9.272,-11.74939c-1.53113,-5.19852 -1.91496,-10.39654 1.87109,-14.27407c5.17663,-5.3017 8.83955,-2.9349 8.83955,-2.9349c0,0 -2.21976,2.26205 -2.5995,4.5935c-1.30868,8.03518 11.08743,6.3394 10.25215,-1.52103c-0.55265,-5.20061 -2.06205,-13.0038 2.09194,-19.68101c3.09244,-4.97083 8.95867,-9.07076 17.81678,-7.87239c7.43579,1.00596 13.32745,7.45178 13.32745,7.45178l-23.06524,41.29972c0,0 -6.40898,14.27047 -19.26224,4.68779z" fill="url(#color-15)" stroke="url(#color-16)"/><path d="M74.40478,83.32144c-1.11204,-10.67907 -0.3043,-43.55798 -0.3043,-43.55798c0,0 9.05111,-6.2284 15.83057,-5.69924c6.77943,0.52915 13.17723,4.57484 16.0403,12.52058c1.15199,3.19702 0.88573,6.84181 0.02078,10.52449c-1.55218,6.60872 -5.03241,13.33943 -5.7044,17.82328c-0.2766,1.84549 0.02102,4.9052 3.88399,5.04487c2.45535,0.08875 4.44174,-1.91581 4.34593,-4.19373c-0.11328,-2.69308 -1.4798,-4.1773 -1.4798,-4.1773c0,0 3.28471,-0.13649 5.60328,1.79732c6.21741,5.18565 4.50078,16.12648 -1.42624,22.64419c-5.23922,5.76138 -13.95639,7.60958 -20.67081,5.58425c-4.17588,-1.25962 -7.6118,-3.8388 -9.76921,-5.79277c0,0 -5.51239,-4.28175 -6.37005,-12.51797z" data-paper-data="{&quot;index&quot;:null}" fill="url(#color-17)" stroke="url(#color-18)"/><path d="M41.6325,68.18265c2.46435,-1.59322 2.29672,-4.39191 1.69398,-7.69115c-2.15048,-11.77137 6.64781,-22.80244 18.5968,-22.16048c6.7348,0.36181 11.92658,3.2402 11.92658,3.2402l-2.58816,28.05635c0,0 -15.91238,12.88331 -35.36323,6.51689c-5.95809,-1.95012 -6.51588,-5.58805 -6.51588,-5.58805c0,0 5.93156,1.7111 12.24991,-2.37374z" fill="url(#color-19)" stroke="url(#color-20)"/><path d="M73.72458,93.05588c0,0 2.46764,0.57315 4.77432,-0.92363c3.76185,-2.44106 2.36534,-9.71843 -0.62971,-13.12572c-4.00828,-4.56003 -9.34749,-9.48909 -9.96191,-17.53089c-0.95331,-12.4773 5.69419,-20.18839 5.69419,-20.18839c0,0 15.06031,-7.05031 21.35701,8.0079c2.02679,4.84697 3.65085,12.55508 2.08402,22.35303c-1.18395,7.00236 -2.64496,15.55803 -6.54901,21.23677c-3.72502,5.41829 -9.81897,8.24045 -14.12493,3.66251c-1.59663,-1.69747 -2.64401,-3.49156 -2.64401,-3.49156z" fill="url(#color-21)" stroke="url(#color-22)"/><path d="M57.05863,83.58426l2.53652,-1.63817l0.59963,-3.60093l-6.01424,-6.04705l14.02982,7.60345l-1.52447,4.47353z" data-paper-data="{&quot;index&quot;:null}" fill="#ffffff" stroke="none"/></g></g></g></svg>