<svg version="1.1" xmlns="http://www.w3.org/2000/svg" xmlns:xlink="http://www.w3.org/1999/xlink" width="146.02313" height="146.02313" viewBox="0,0,146.02313,146.02313"><g transform="translate(-166.98843,-106.98843)"><g data-paper-data="{&quot;isPaintingLayer&quot;:true}" fill-opacity="0.44355" fill="#00ff0a" fill-rule="nonzero" stroke="#000000" stroke-width="3" stroke-linejoin="miter" stroke-miterlimit="10" stroke-dasharray="" stroke-dashoffset="0" style="mix-blend-mode: normal"><path d="M169.52984,167.90844c6.67799,-38.9196 43.64213,-65.05659 82.56173,-58.3786c38.9196,6.67799 65.05659,43.64213 58.3786,82.56173c-6.67799,38.9196 -43.64213,65.05659 -82.56173,58.3786c-38.9196,-6.67799 -65.05659,-43.64213 -58.3786,-82.56173z" stroke-linecap="butt"/><path d="M171.50103,168.24666l136.99794,23.50668" stroke-linecap="round"/><path d="M228.24666,248.49897l23.50668,-136.99794" stroke-linecap="round"/><path d="M183.25305,220.12522l113.4939,-80.25044" stroke-linecap="round"/><path d="M280.12522,236.74695l-80.25044,-113.4939" stroke-linecap="round"/><path d="M202.71908,238.65478l74.56183,-117.30956" stroke-linecap="round"/><path d="M298.65478,217.28092l-117.30956,-74.56183" stroke-linecap="round"/><path d="M255.1136,247.83678l-30.22721,-135.67356" stroke-linecap="round"/><path d="M307.83678,164.8864l-135.67356,30.22721" stroke-linecap="round"/></g></g></svg>