<svg version="1.1" xmlns="http://www.w3.org/2000/svg" xmlns:xlink="http://www.w3.org/1999/xlink" width="108.79698" height="148.14194" viewBox="0,0,108.79698,148.14194"><defs><linearGradient x1="290.44473" y1="129.74904" x2="304.18261" y2="157.33531" gradientUnits="userSpaceOnUse" id="color-1"><stop offset="0" stop-color="#ffffff"/><stop offset="1" stop-color="#dcd0e8"/></linearGradient><linearGradient x1="260.22817" y1="154.76526" x2="291.57173" y2="194.57684" gradientUnits="userSpaceOnUse" id="color-2"><stop offset="0" stop-color="#ffffff"/><stop offset="1" stop-color="#dcd0e8"/></linearGradient><linearGradient x1="307.41885" y1="159.35752" x2="277.05718" y2="212.43116" gradientUnits="userSpaceOnUse" id="color-3"><stop offset="0" stop-color="#ffffff"/><stop offset="1" stop-color="#dcd0e8"/></linearGradient><linearGradient x1="247.02038" y1="96.48112" x2="240.38715" y2="133.76754" gradientUnits="userSpaceOnUse" id="color-4"><stop offset="0" stop-color="#000000"/><stop offset="1" stop-color="#636363"/></linearGradient><linearGradient x1="252.11222" y1="136.2035" x2="281.60983" y2="210.51862" gradientUnits="userSpaceOnUse" id="color-5"><stop offset="0" stop-color="#f6f3f9"/><stop offset="1" stop-color="#f5ebff"/></linearGradient><linearGradient x1="308.35465" y1="123.42946" x2="274.70591" y2="103.55704" gradientUnits="userSpaceOnUse" id="color-6"><stop offset="0" stop-color="#ffffff"/><stop offset="1" stop-color="#e9e0f2"/></linearGradient><linearGradient x1="231.01661" y1="107.08866" x2="274.34587" y2="149.85847" gradientUnits="userSpaceOnUse" id="color-7"><stop offset="0" stop-color="#ffffff"/><stop offset="1" stop-color="#e9e0f2"/></linearGradient><linearGradient x1="201.58289" y1="193.7549" x2="271.89975" y2="193.7549" gradientUnits="userSpaceOnUse" id="color-8"><stop offset="0" stop-color="#ffffff"/><stop offset="1" stop-color="#eae2f1"/></linearGradient><linearGradient x1="230.32608" y1="201.90345" x2="287.91742" y2="201.90345" gradientUnits="userSpaceOnUse" id="color-9"><stop offset="0" stop-color="#ffffff"/><stop offset="1" stop-color="#f6f0fc"/></linearGradient><linearGradient x1="268.64779" y1="114.47143" x2="268.64779" y2="133.10437" gradientUnits="userSpaceOnUse" id="color-10"><stop offset="0" stop-color="#000000"/><stop offset="1" stop-color="#636363"/></linearGradient><linearGradient x1="252.63079" y1="133.80945" x2="252.63079" y2="138.10714" gradientUnits="userSpaceOnUse" id="color-11"><stop offset="0" stop-color="#ffffff"/><stop offset="1" stop-color="#000000"/></linearGradient><linearGradient x1="304.20508" y1="104.96138" x2="302.03451" y2="117.92296" gradientUnits="userSpaceOnUse" id="color-12"><stop offset="0" stop-color="#000000"/><stop offset="1" stop-color="#000000" stop-opacity="0"/></linearGradient><linearGradient x1="300.70285" y1="117.69996" x2="299.82627" y2="122.93446" gradientUnits="userSpaceOnUse" id="color-13"><stop offset="0" stop-color="#000000"/><stop offset="1" stop-color="#000000" stop-opacity="0"/></linearGradient><linearGradient x1="304.78925" y1="118.64054" x2="303.32828" y2="127.36468" gradientUnits="userSpaceOnUse" id="color-14"><stop offset="0" stop-color="#000000"/><stop offset="1" stop-color="#000000" stop-opacity="0"/></linearGradient><linearGradient x1="307.22309" y1="111.87306" x2="306.1378" y2="118.35386" gradientUnits="userSpaceOnUse" id="color-15"><stop offset="0" stop-color="#000000"/><stop offset="1" stop-color="#000000" stop-opacity="0"/></linearGradient></defs><g transform="translate(-207.26809,-94.1268)"><g data-paper-data="{&quot;isPaintingLayer&quot;:true}" fill-rule="nonzero" stroke-linejoin="miter" stroke-miterlimit="10" stroke-dasharray="" stroke-dashoffset="0" style="mix-blend-mode: normal"><path d="M282.71479,160.0433l-10.07225,-9.36514l19.23155,-7.3827l11.94141,-12.48285l11.36098,-13.59136l-1.92238,17.01237l-6.69885,16.12826l-10.2889,8.71289z" data-paper-data="{&quot;index&quot;:null}" fill="url(#color-1)" stroke="none" stroke-width="0" stroke-linecap="butt"/><path d="M262.80281,215.90427l-2.97831,-8.80885l8.87731,-17.20535l-10.44198,-11.97313l-0.3738,-10.67316l7.15122,-16.26469l15.53504,-10.25115l10.74869,2.18374l5.33958,4.61445l5.47077,11.59455l-4.15533,14.12346l-8.8528,6.90884l3.12682,12.12418l-18.29654,23.3127z" data-paper-data="{&quot;index&quot;:null}" fill="url(#color-2)" stroke="none" stroke-width="0" stroke-linecap="butt"/><path d="M295.45875,222.95809l-4.37971,-4.86011l4.3044,-17.08079l-24.40959,-22.1768l1.98938,-17.68082l13.08096,-10.28472l12.29039,3.28587l7.33811,5.59015l9.91651,13.42727l0.47587,15.51321l-4.81558,7.42438l2.52315,6.19093l-6.83011,16.31159z" data-paper-data="{&quot;index&quot;:null}" fill="url(#color-3)" stroke="none" stroke-width="0" stroke-linecap="butt"/><path d="M225.91001,131.19207l-5.1913,-16.14641l11.87813,-17.09566l23.70069,0.18152l11.62694,10.12585l-15.97523,22.80085z" data-paper-data="{&quot;index&quot;:null}" fill="url(#color-4)" stroke="none" stroke-width="0" stroke-linecap="butt"/><path d="M245.75323,171.37877l-0.57879,-24.5474l6.07441,-7.68175l26.72931,-6.01083l13.13696,10.68181l16.09941,15.49274l-0.62358,19.34954l-43.74458,7.13356z" data-paper-data="{&quot;index&quot;:null}" fill="url(#color-5)" stroke="none" stroke-width="0" stroke-linecap="butt"/><path d="M278.24895,127.06188l-4.01383,-22.70764l11.88809,-6.85336l18.52321,2.32618l6.88189,18.22863l-8.22289,12.55166z" data-paper-data="{&quot;index&quot;:null}" fill="url(#color-6)" stroke="none" stroke-width="0" stroke-linecap="butt"/><path d="M232.56551,148.57288l1.32429,-11.73661l-4.84941,-11.82045l0.14653,-12.77775l8.01663,-10.64383l21.71602,-7.46744l21.75379,3.29926l14.22967,20.62293l-2.41427,19.4038l4.83452,8.56503l-48.92152,14.51128l-10.93925,-4.61543z" data-paper-data="{&quot;index&quot;:null}" fill="url(#color-7)" stroke="none" stroke-width="0" stroke-linecap="butt"/><path d="M214.71227,207.50568l36.4566,-52.4746l20.73088,6.21644l-24.34878,62.03636l-22.38267,8.52598l-17.33852,-3.25815l-0.56169,-15.36853z" data-paper-data="{&quot;index&quot;:null}" fill="url(#color-8)" stroke="none" stroke-width="0" stroke-linecap="butt"/><path d="M265.48311,154.84968l22.43431,6.52221l-15.67097,72.55197l-16.84491,8.34488l-25.07546,-0.05795z" data-paper-data="{&quot;index&quot;:null}" fill="url(#color-9)" stroke="none" stroke-width="0" stroke-linecap="butt"/><path d="M264.42756,133.10437l-5.91402,-10.51446l9.26019,-8.11848l11.0083,3.96452l-1.58749,12.18528z" data-paper-data="{&quot;index&quot;:null}" fill="url(#color-10)" stroke="none" stroke-width="0" stroke-linecap="butt"/><path d="M250.4655,125.22659l-3.32223,3.49852l-4.99002,-0.3812l-0.79486,-5.94169l5.31701,-2.06334z" data-paper-data="{&quot;index&quot;:null}" fill="#000000" stroke="none" stroke-width="0" stroke-linecap="butt"/><path d="M261.06938,133.4513l2.5965,8.95352l-11.25149,2.50699l-10.38599,-2.50699l2.5965,-8.95352z" data-paper-data="{&quot;index&quot;:null}" fill="#000000" stroke="none" stroke-width="0" stroke-linecap="butt"/><path d="M245.49041,138.10714l0.8655,-4.29769h12.54974l-0.8655,4.29769z" fill="url(#color-11)" stroke="none" stroke-width="0" stroke-linecap="butt"/><path d="M251.12677,142.63722l0.50546,7.07651" fill="none" stroke="#000000" stroke-width="1.5" stroke-linecap="round"/><path d="M300.39783,111.75511l3.87383,-6.78258l1.65357,5.6582l-4.09048,7.2588z" data-paper-data="{&quot;index&quot;:null}" fill="url(#color-12)" stroke="none" stroke-width="0" stroke-linecap="butt"/><path d="M298.1617,122.6557l2.07508,-5.03379l1.25407,5.59129z" fill="url(#color-13)" stroke="none" stroke-width="0" stroke-linecap="butt"/><path d="M301.21453,126.49821l1.26813,-5.93767l2.07176,1.67271l2.43207,-3.22475l-1.3046,5.95807l-2.02069,2.45387z" fill="url(#color-14)" stroke="none" stroke-width="0" stroke-linecap="butt"/><path d="M304.40665,118.06396l3.61544,-6.05708l0.13907,4.89208z" fill="url(#color-15)" stroke="none" stroke-width="0" stroke-linecap="butt"/></g></g></svg>