<svg version="1.1" xmlns="http://www.w3.org/2000/svg" xmlns:xlink="http://www.w3.org/1999/xlink" width="80.13905" height="79.49276" viewBox="0,0,80.13905,79.49276"><defs><radialGradient cx="240.00004" cy="179.86296" r="33.87807" gradientUnits="userSpaceOnUse" id="color-1"><stop offset="0" stop-color="#710000" stop-opacity="0.49412"/><stop offset="1" stop-color="#710000" stop-opacity="0"/></radialGradient><radialGradient cx="240.00009" cy="180.00451" r="29.38335" gradientUnits="userSpaceOnUse" id="color-2"><stop offset="0" stop-color="#ffffff"/><stop offset="1" stop-color="#ffffff" stop-opacity="0"/></radialGradient></defs><g transform="translate(-199.93048,-140.25362)"><g data-paper-data="{&quot;isPaintingLayer&quot;:true}" fill-rule="nonzero" stroke-linecap="butt" stroke-linejoin="miter" stroke-miterlimit="10" stroke-dasharray="" stroke-dashoffset="0" style="mix-blend-mode: normal"><path d="M199.93048,219.74638v-79.49276h80.13905v79.49276z" fill="none" stroke="none" stroke-width="NaN"/><path d="M240.00004,213.74104c-18.71034,0 -33.87807,-15.16773 -33.87807,-33.87807c0,-18.71034 15.16773,-33.87807 33.87807,-33.87807c18.71034,0 33.87807,15.16773 33.87807,33.87807c0,18.71034 -15.16773,33.87807 -33.87807,33.87807z" fill="url(#color-1)" stroke="#000000" stroke-width="0"/><g fill="url(#color-2)" stroke="#000000" stroke-width="0"><path d="M210.61672,180.00451c0,-16.22797 13.15538,-29.38335 29.38335,-29.38335c16.22797,0 29.38335,13.15538 29.38335,29.38335c0,16.22797 -13.15538,29.38335 -29.38335,29.38335c-16.22797,0 -29.38335,-13.15538 -29.38335,-29.38335z"/><path d="M210.61672,180.00451c0,-16.22797 13.15538,-29.38335 29.38335,-29.38335c16.22797,0 29.38335,13.15538 29.38335,29.38335c0,16.22797 -13.15538,29.38335 -29.38335,29.38335c-16.22797,0 -29.38335,-13.15538 -29.38335,-29.38335z"/></g><path d="M243.73352,183.84203h-4.44983c-0.70907,0 -1.18661,-0.25325 -1.43261,-0.75973c-0.24602,-0.52095 -0.54991,-1.46881 -0.91168,-2.84354c-0.33284,-1.12874 -0.75249,-2.00423 -1.25899,-2.62649c-0.52095,-0.62226 -1.36027,-0.93338 -2.51795,-0.93338c-0.96956,0 -1.7727,0.36901 -2.40942,1.10704c-0.65119,0.73802 -0.97677,1.59904 -0.97677,2.58307c0,0.82485 0.20259,1.54116 0.60777,2.14894c0.40519,0.60778 0.96956,1.2228 1.69311,1.84505c0.70907,0.60778 1.23727,1.13597 1.58455,1.58458c0.34731,0.43413 0.52097,0.96232 0.52097,1.58457c0,0.7959 -0.28941,1.4471 -0.86824,1.95358c-0.59333,0.50648 -1.37477,0.75973 -2.34432,0.75973c-1.09979,0 -2.11276,-0.31112 -3.03891,-0.93338c-0.92614,-0.62225 -1.70757,-1.43986 -2.34429,-2.45283c-0.65119,-1.01297 -1.13596,-2.09829 -1.45433,-3.25597c-0.33284,-1.15768 -0.49924,-2.23577 -0.49924,-3.23427c0,-1.92464 0.38348,-3.6901 1.15043,-5.29637c0.76697,-1.62075 1.88125,-2.90867 3.34281,-3.86375c1.44709,-0.96956 3.12573,-1.45433 5.03589,-1.45433c2.35877,0 4.29065,0.68013 5.79564,2.0404c1.50499,1.36027 2.56137,3.2415 3.16915,5.64368h1.60627c0.8972,0 1.63523,0.30389 2.21407,0.91167c0.56435,0.59331 0.84653,1.35303 0.84653,2.27918c0,0.96956 -0.28217,1.75098 -0.84653,2.3443c-0.57884,0.57884 -1.31687,0.86826 -2.21407,0.86826zM256.36668,180.62948c0,0.95508 -0.34007,1.7727 -1.02021,2.45283c-0.68013,0.68013 -1.49775,1.02021 -2.45282,1.02021c-0.95509,0 -1.77271,-0.34007 -2.45285,-1.02021c-0.68012,-0.68013 -1.02019,-1.49775 -1.02019,-2.45283c0,-0.96956 0.34006,-1.78717 1.02019,-2.45283c0.68013,-0.66567 1.49776,-0.9985 2.45285,-0.9985c0.95507,0 1.77268,0.33284 2.45282,0.9985c0.68013,0.66566 1.02021,1.48327 1.02021,2.45283z" fill="#550000" stroke="none" stroke-width="0.40889"/></g></g></svg>