<svg version="1.1" xmlns="http://www.w3.org/2000/svg" xmlns:xlink="http://www.w3.org/1999/xlink" width="180.60538" height="171.09796" viewBox="0,0,180.60538,171.09796"><g transform="translate(-142.13073,-99.20879)"><g data-paper-data="{&quot;isPaintingLayer&quot;:true}" fill-opacity="0.74902" fill="#ff0000" fill-rule="nonzero" stroke="none" stroke-width="0" stroke-linecap="butt" stroke-linejoin="miter" stroke-miterlimit="10" stroke-dasharray="" stroke-dashoffset="0" style="mix-blend-mode: normal"><path d="M239.52904,196.99437l-11.3088,-11.3088l11.3088,-11.3088l11.3088,11.3088z"/><path d="M250.29065,132.37902l6.12472,6.12471l-6.12472,6.12472l-6.12472,-6.12472z" data-paper-data="{&quot;index&quot;:null}"/><path d="M204.22407,181.70814l-4.54695,-4.54695l4.54695,-4.54695l4.54695,4.54695z"/><path d="M271.62783,170.43977l-1.59659,-6.229l6.229,-1.59659l1.59659,6.229z"/><path d="M224.12023,213.63228l-3.25766,-1.02029l1.02029,-3.25767l3.25767,1.02029z"/><path d="M268.11275,210.38178l-2.70771,2.07887l-2.07887,-2.70771l2.70771,-2.07887z"/><path d="M201.87453,208.5884l-11.76074,-1.0599l1.0599,-11.76074l11.76074,1.0599z"/><path d="M319.04368,191.7207l-7.52699,-5.87404l3.69243,-11.9742l7.52699,5.87404z"/><path d="M146.38237,137.8944l-4.25164,-4.25164l4.25164,-4.25164l4.25164,4.25164z"/><path d="M224.32601,270.30675l-6.6093,-6.6093l6.6093,-6.6093l6.6093,6.6093z"/><path d="M309.28112,245.03536l-7.52685,2.58061l-2.58061,-7.52685l7.52687,-2.58061z"/><path d="M205.44213,130.45104l-6.73995,-10.63433l10.63433,-6.73995l6.73996,10.63433z"/><path d="M308.7241,131.68285l-8.47757,-2.65515l2.65514,-8.47757l8.47757,2.65514z"/><path d="M243.83663,99.20879l4.73525,1.48306l-1.48306,4.73525l-4.73525,-1.48306z" data-paper-data="{&quot;index&quot;:null}"/><path d="M300.27274,213.3264l-4.92069,0.63934l-0.63935,-4.92069l4.92069,-0.63935z"/><path d="M163.03694,195.34865l-4.96164,-0.06379l0.06379,-4.96164l4.96164,0.06379z"/><path d="M301.57979,150.46638l-4.96164,-0.06379l0.06379,-4.96164l4.96165,0.06379z"/><path d="M221.44548,159.55205l-3.41342,-0.04389l0.04388,-3.41342l3.41342,0.04389z"/><path d="M262.55271,190.45704l-3.41343,-0.04388l0.04388,-3.41342l3.41342,0.04388z"/></g></g></svg>