<svg version="1.1" xmlns="http://www.w3.org/2000/svg" xmlns:xlink="http://www.w3.org/1999/xlink" width="238.90079" height="258.86371" viewBox="0,0,238.90079,258.86371"><defs><radialGradient cx="76.45813" cy="-21.10878" r="23.72303" gradientUnits="userSpaceOnUse" id="color-1"><stop offset="0" stop-color="#000000" stop-opacity="0.30196"/><stop offset="1" stop-color="#000000" stop-opacity="0"/></radialGradient><radialGradient cx="76.45813" cy="59.40574" r="23.72303" gradientUnits="userSpaceOnUse" id="color-2"><stop offset="0" stop-color="#000000" stop-opacity="0.30196"/><stop offset="1" stop-color="#000000" stop-opacity="0"/></radialGradient><linearGradient x1="-2.80629" y1="163.4192" x2="236.09449" y2="163.4192" gradientUnits="userSpaceOnUse" id="color-3"><stop offset="0" stop-color="#000000"/><stop offset="1" stop-color="#000000" stop-opacity="0.64706"/></linearGradient></defs><g transform="translate(2.8063,44.83181)"><g data-paper-data="{&quot;isPaintingLayer&quot;:true}" fill-rule="nonzero" stroke-linejoin="miter" stroke-miterlimit="10" stroke-dasharray="" stroke-dashoffset="0" style="mix-blend-mode: normal"><path d="M52.7351,-21.10878c0,-13.10187 10.62116,-23.72303 23.72303,-23.72303c13.10187,0 23.72303,10.62116 23.72303,23.72303c0,13.10187 -10.62116,23.72303 -23.72303,23.72303c-13.10187,0 -23.72303,-10.62116 -23.72303,-23.72303z" fill="url(#color-1)" stroke="none" stroke-width="0" stroke-linecap="butt"/><path d="M52.7351,59.40574c0,-13.10187 10.62116,-23.72303 23.72303,-23.72303c13.10187,0 23.72303,10.62116 23.72303,23.72303c0,13.10187 -10.62116,23.72303 -23.72303,23.72303c-13.10187,0 -23.72303,-10.62116 -23.72303,-23.72303z" fill="url(#color-2)" stroke="none" stroke-width="0" stroke-linecap="butt"/><path d="M-0.43435,211.66274c-2.66144,-2.62498 -2.36183,-7.87277 -2.36183,-7.87277v-81.77746c0,0 0.03701,-4.60457 2.62425,-7.08549c2.58725,-2.48092 6.95427,-2.09941 6.95427,-2.09941h192.79281c0,0 3.31291,-0.26945 5.96755,2.0994c2.65464,2.36885 3.14911,6.03579 3.14911,6.03579l0.49644,64.86835l26.90624,-13.91259l-27.0825,42.106h-201.44235c0,0 -5.34255,0.26316 -8.00399,-2.36182z" fill="url(#color-3)" stroke="none" stroke-width="0" stroke-linecap="butt"/><text transform="translate(2.40079,129.22568) scale(0.37525,0.37525)" font-size="40" xml:space="preserve" fill="#ffffff" fill-rule="nonzero" stroke="none" stroke-width="1" stroke-linecap="butt" stroke-linejoin="miter" stroke-miterlimit="10" stroke-dasharray="" stroke-dashoffset="0" font-family="Sans Serif" font-weight="normal" text-anchor="start" style="mix-blend-mode: normal"><tspan x="0" dy="0">スキン, ブキ, スペシャルは</tspan><tspan x="0" dy="48px">ここで変えられるぞ！</tspan><tspan x="0" dy="48px">列を左右にドラッグして</tspan><tspan x="0" dy="48px">好きなものに変えてみて</tspan></text><text transform="translate(3.03757,204.81513) scale(0.21975,0.21975)" font-size="40" xml:space="preserve" fill="#ffffff" fill-rule="nonzero" stroke="none" stroke-width="1" stroke-linecap="butt" stroke-linejoin="miter" stroke-miterlimit="10" stroke-dasharray="" stroke-dashoffset="0" font-family="Sans Serif" font-weight="normal" text-anchor="start" style="mix-blend-mode: normal"><tspan x="0" dy="0">(ここをクリックして進む)</tspan></text><text transform="translate(32.34913,165.33048) scale(0.37525,0.37525)" font-size="40" xml:space="preserve" fill="#ff0000" fill-rule="nonzero" stroke="none" stroke-width="1" stroke-linecap="butt" stroke-linejoin="miter" stroke-miterlimit="10" stroke-dasharray="" stroke-dashoffset="0" font-family="Sans Serif" font-weight="normal" text-anchor="start" style="mix-blend-mode: normal"><tspan x="0" dy="0">左右にドラッグして</tspan></text><g data-paper-data="{&quot;index&quot;:null}" fill="none" stroke="#ffffff" stroke-width="6" stroke-linecap="round"><path d="M91.31498,59.40574l-14.61722,-12.38775"/><path d="M76.69776,71.79349l14.61722,-12.38775" data-paper-data="{&quot;index&quot;:null}"/><path d="M47.22369,59.40574h44.09129"/></g><g data-paper-data="{&quot;index&quot;:null}" fill="none" stroke="#ffffff" stroke-width="6" stroke-linecap="round"><path d="M76.69776,-33.995l14.61722,12.38775"/><path d="M76.69776,-9.21949l14.61722,-12.38775" data-paper-data="{&quot;index&quot;:null}"/><path d="M47.22369,-21.60724h44.09129"/></g></g></g></svg>