<svg version="1.1" xmlns="http://www.w3.org/2000/svg" xmlns:xlink="http://www.w3.org/1999/xlink" width="100.08367" height="99.77405" viewBox="0,0,100.08367,99.77405"><defs><radialGradient cx="202.73154" cy="179.8177" r="18.2162" gradientUnits="userSpaceOnUse" id="color-1"><stop offset="0" stop-color="#000000" stop-opacity="0.52549"/><stop offset="1" stop-color="#000000" stop-opacity="0"/></radialGradient><radialGradient cx="240.00001" cy="180.00001" r="32.79887" gradientUnits="userSpaceOnUse" id="color-2"><stop offset="0" stop-color="#000000"/><stop offset="1" stop-color="#000000" stop-opacity="0"/></radialGradient><linearGradient x1="238.4" y1="161.27579" x2="255.9" y2="161.27579" gradientUnits="userSpaceOnUse" id="color-3"><stop offset="0" stop-color="#ff8080"/><stop offset="1" stop-color="#ffffff"/></linearGradient><linearGradient x1="238.4" y1="198.17262" x2="255.9" y2="198.17262" gradientUnits="userSpaceOnUse" id="color-4"><stop offset="0" stop-color="#ff8080"/><stop offset="1" stop-color="#ffffff"/></linearGradient><linearGradient x1="247.15" y1="166.27579" x2="264.65" y2="166.27579" gradientUnits="userSpaceOnUse" id="color-5"><stop offset="0" stop-color="#ff8080"/><stop offset="1" stop-color="#ffffff"/></linearGradient><linearGradient x1="247.15" y1="193.17262" x2="264.65" y2="193.17262" gradientUnits="userSpaceOnUse" id="color-6"><stop offset="0" stop-color="#ff8080"/><stop offset="1" stop-color="#ffffff"/></linearGradient><linearGradient x1="250.58419" y1="179.42262" x2="268.08419" y2="179.42262" gradientUnits="userSpaceOnUse" id="color-7"><stop offset="0" stop-color="#ff8080"/><stop offset="1" stop-color="#ffffff"/></linearGradient><linearGradient x1="216.06467" y1="180.00004" x2="263.93535" y2="180.00004" gradientUnits="userSpaceOnUse" id="color-8"><stop offset="0" stop-color="#e80000"/><stop offset="1" stop-color="#ffc8c8"/></linearGradient><linearGradient x1="222.77805" y1="209.35664" x2="241.43987" y2="209.35664" gradientUnits="userSpaceOnUse" id="color-9"><stop offset="0" stop-color="#800000"/><stop offset="1" stop-color="#ff0000" stop-opacity="0.50196"/></linearGradient><linearGradient x1="191.90707" y1="176.49687" x2="230.90707" y2="176.49687" gradientUnits="userSpaceOnUse" id="color-10"><stop offset="0" stop-color="#ff0000"/><stop offset="1" stop-color="#800000"/></linearGradient><linearGradient x1="182.9" y1="179.40079" x2="205.15" y2="179.40079" gradientUnits="userSpaceOnUse" id="color-11"><stop offset="0" stop-color="#ffffff"/><stop offset="1" stop-color="#ff8080"/></linearGradient><linearGradient x1="207.65707" y1="157.14291" x2="245.24212" y2="157.14291" gradientUnits="userSpaceOnUse" id="color-12"><stop offset="0" stop-color="#800000"/><stop offset="1" stop-color="#ff0000" stop-opacity="0.50196"/></linearGradient><linearGradient x1="216.06467" y1="180.00004" x2="263.93535" y2="180.00004" gradientUnits="userSpaceOnUse" id="color-13"><stop offset="0" stop-color="#800000"/><stop offset="1" stop-color="#ff0000" stop-opacity="0.28235"/></linearGradient></defs><g transform="translate(-182.9,-129.86297)"><g data-paper-data="{&quot;isPaintingLayer&quot;:true}" fill-rule="nonzero" stroke-linejoin="miter" stroke-miterlimit="10" stroke-dasharray="" stroke-dashoffset="0" style="mix-blend-mode: normal"><path d="M202.73154,161.6015c10.06052,0 18.2162,8.15568 18.2162,18.2162c0,10.06052 -8.15568,18.21618 -18.2162,18.21618c-10.06052,0 -18.2162,-8.15566 -18.2162,-18.21618c0,-10.06052 8.15566,-18.2162 18.2162,-18.2162z" data-paper-data="{&quot;index&quot;:null}" fill="url(#color-1)" stroke="#000000" stroke-width="0" stroke-linecap="butt"/><path d="M282.98367,129.86298v99.77405h-85.96734v-99.77405z" data-paper-data="{&quot;index&quot;:null}" fill="none" stroke="none" stroke-width="NaN" stroke-linecap="butt"/><path d="M207.20113,180.00001c0,-18.11432 14.68456,-32.79887 32.79887,-32.79887c18.11432,0 32.79887,14.68456 32.79887,32.79887c0,18.11432 -14.68456,32.79887 -32.79887,32.79887c-18.11432,0 -32.79887,-14.68456 -32.79887,-32.79887z" fill="url(#color-2)" stroke="#000000" stroke-width="0" stroke-linecap="butt"/><path d="M238.4,161.27579c0,-4.83249 3.91751,-8.75 8.75,-8.75c4.83249,0 8.75,3.91751 8.75,8.75c0,4.83249 -3.91751,8.75 -8.75,8.75c-4.83249,0 -8.75,-3.91751 -8.75,-8.75z" fill="url(#color-3)" stroke="#000000" stroke-width="0" stroke-linecap="butt"/><path d="M247.15,189.42262c4.83249,0 8.75,3.91751 8.75,8.75c0,4.83249 -3.91751,8.75 -8.75,8.75c-4.83249,0 -8.75,-3.91751 -8.75,-8.75c0,-4.83249 3.91751,-8.75 8.75,-8.75z" data-paper-data="{&quot;index&quot;:null}" fill="url(#color-4)" stroke="#000000" stroke-width="0" stroke-linecap="butt"/><path d="M247.15,166.27579c0,-4.83249 3.91751,-8.75 8.75,-8.75c4.83249,0 8.75,3.91751 8.75,8.75c0,4.83249 -3.91751,8.75 -8.75,8.75c-4.83249,0 -8.75,-3.91751 -8.75,-8.75z" fill="url(#color-5)" stroke="#000000" stroke-width="0" stroke-linecap="butt"/><path d="M255.9,184.42262c4.83249,0 8.75,3.91751 8.75,8.75c0,4.83249 -3.91751,8.75 -8.75,8.75c-4.83249,0 -8.75,-3.91751 -8.75,-8.75c0,-4.83249 3.91751,-8.75 8.75,-8.75z" data-paper-data="{&quot;index&quot;:null}" fill="url(#color-6)" stroke="#000000" stroke-width="0" stroke-linecap="butt"/><path d="M250.58419,179.42262c0,-4.83249 3.91751,-8.75 8.75,-8.75c4.83249,0 8.75,3.91751 8.75,8.75c0,4.83249 -3.91751,8.75 -8.75,8.75c-4.83249,0 -8.75,-3.91751 -8.75,-8.75z" fill="url(#color-7)" stroke="#000000" stroke-width="0" stroke-linecap="butt"/><path d="M216.06467,180.00004c0,-13.21912 10.71622,-23.93534 23.93534,-23.93534c13.21912,0 23.93534,10.71622 23.93534,23.93534c0,13.21912 -10.71622,23.93534 -23.93534,23.93534c-13.21912,0 -23.93534,-10.71622 -23.93534,-23.93534z" fill="url(#color-8)" stroke="#000000" stroke-width="0" stroke-linecap="butt"/><path d="M239.2791,193.90719c3.59589,1.2075 2.51819,9.55358 -1.8589,17.62994c-4.37708,8.07636 -11.52128,13.41605 -11.52128,13.41605c0,0 -5.87767,-9.71246 -1.50058,-17.78882c4.37709,-8.07636 11.28487,-14.46468 14.88076,-13.25718z" data-paper-data="{&quot;index&quot;:null}" fill="url(#color-9)" stroke="none" stroke-width="0" stroke-linecap="butt"/><path d="M224.90707,177.99687c0,0 -2.48045,18 -13.25,18c-11.22027,0 -15.28618,-10.92017 -15.28618,-10.92017l-12.96382,7.67017c0,0 3.71867,-22.33136 19.25,-26.25c11.99151,-3.02552 22.25,11.5 22.25,11.5z" fill="url(#color-10)" stroke="#000000" stroke-width="0" stroke-linecap="butt"/><path d="M182.9,193.52579c0,0 2.66401,-13.14207 7.5,-19.25c5.73192,-7.2395 14.5,-8.5 14.5,-8.5l-6.09451,8.53688l7.18912,5.32908l-5.80104,11.79894l-4.29357,-5.9149z" fill="url(#color-11)" stroke="#000000" stroke-width="0" stroke-linecap="butt"/><path d="M244.89953,164.45629c-2.01105,2.63892 -12.36721,0.65799 -21.93303,-3.85883c-9.56584,-4.51682 -15.30943,-10.81734 -15.30943,-10.81734c0,0 13.02626,-3.25588 22.59208,1.26094c9.56582,4.51681 16.66142,10.77631 14.65037,13.41523z" data-paper-data="{&quot;index&quot;:null}" fill="url(#color-12)" stroke="none" stroke-width="0" stroke-linecap="butt"/><path d="M216.06467,180.00004c0,-13.21912 10.71622,-23.93534 23.93534,-23.93534c13.21912,0 23.93534,10.71622 23.93534,23.93534c0,13.21912 -10.71622,23.93534 -23.93534,23.93534c-13.21912,0 -23.93534,-10.71622 -23.93534,-23.93534z" fill="url(#color-13)" stroke="#000000" stroke-width="0" stroke-linecap="butt"/><path d="M246.16386,188.17262c0,-2.44128 1.97905,-4.42033 4.42033,-4.42033c2.44128,0 4.42033,1.97905 4.42033,4.42033c0,2.44128 -1.97905,4.42033 -4.42033,4.42033c-2.44128,0 -4.42033,-1.97905 -4.42033,-4.42033z" fill="#000000" stroke="#000000" stroke-width="0" stroke-linecap="butt"/><path d="M246.21309,171.82744c0,-2.44128 1.97905,-4.42033 4.42033,-4.42033c2.44128,0 4.42033,1.97905 4.42033,4.42033c0,2.44128 -1.97905,4.42033 -4.42033,4.42033c-2.44128,0 -4.42033,-1.97905 -4.42033,-4.42033z" fill="#000000" stroke="#000000" stroke-width="0" stroke-linecap="butt"/><path d="M256.8,176.90002v5" fill="none" stroke="#000000" stroke-width="1.5" stroke-linecap="round"/></g></g></svg>