<svg version="1.1" xmlns="http://www.w3.org/2000/svg" xmlns:xlink="http://www.w3.org/1999/xlink" width="302.88673" height="207.88491" viewBox="0,0,302.88673,207.88491"><defs><radialGradient cx="317.96329" cy="224.57705" r="54.83203" gradientUnits="userSpaceOnUse" id="color-1"><stop offset="0" stop-color="#ffffff"/><stop offset="1" stop-color="#ffffff" stop-opacity="0"/></radialGradient><radialGradient cx="240" cy="180" r="103.94246" gradientUnits="userSpaceOnUse" id="color-2"><stop offset="0" stop-color="#ffffff"/><stop offset="1" stop-color="#ffffff" stop-opacity="0"/></radialGradient><radialGradient cx="144.20263" cy="139.73659" r="54.83203" gradientUnits="userSpaceOnUse" id="color-3"><stop offset="0" stop-color="#ffffff"/><stop offset="1" stop-color="#ffffff" stop-opacity="0"/></radialGradient><linearGradient x1="298.2005" y1="197.56237" x2="298.2005" y2="257.16242" gradientUnits="userSpaceOnUse" id="color-4"><stop offset="0" stop-color="#00b3ff"/><stop offset="1" stop-color="#00b3ff" stop-opacity="0.50196"/></linearGradient><linearGradient x1="338.97333" y1="235.21681" x2="338.97333" y2="257.1624" gradientUnits="userSpaceOnUse" id="color-5"><stop offset="0" stop-color="#00b3ff"/><stop offset="1" stop-color="#00b3ff" stop-opacity="0.50196"/></linearGradient><linearGradient x1="347.76334" y1="188.48384" x2="347.76334" y2="228.00945" gradientUnits="userSpaceOnUse" id="color-6"><stop offset="0" stop-color="#00b3ff"/><stop offset="1" stop-color="#00b3ff" stop-opacity="0.50196"/></linearGradient><linearGradient x1="276.02925" y1="245.41267" x2="276.02925" y2="260.67026" gradientUnits="userSpaceOnUse" id="color-7"><stop offset="0" stop-color="#00b3ff"/><stop offset="1" stop-color="#00b3ff" stop-opacity="0.50196"/></linearGradient><linearGradient x1="164.18881" y1="102.70244" x2="164.18881" y2="162.30246" gradientUnits="userSpaceOnUse" id="color-8"><stop offset="0" stop-color="#ff0000"/><stop offset="1" stop-color="#ff0000" stop-opacity="0.50196"/></linearGradient><linearGradient x1="134.38879" y1="125.09927" x2="134.38879" y2="147.04485" gradientUnits="userSpaceOnUse" id="color-9"><stop offset="0" stop-color="#ff0000"/><stop offset="1" stop-color="#ff0000" stop-opacity="0.50196"/></linearGradient><linearGradient x1="139.66536" y1="140.82716" x2="139.66536" y2="180.35276" gradientUnits="userSpaceOnUse" id="color-10"><stop offset="0" stop-color="#ff0000"/><stop offset="1" stop-color="#ff0000" stop-opacity="0.50196"/></linearGradient><linearGradient x1="108.42759" y1="117.24487" x2="108.42759" y2="132.50247" gradientUnits="userSpaceOnUse" id="color-11"><stop offset="0" stop-color="#ff0000"/><stop offset="1" stop-color="#ff0000" stop-opacity="0.50196"/></linearGradient><radialGradient cx="238.21146" cy="171.40698" r="150.21894" gradientUnits="userSpaceOnUse" id="color-12"><stop offset="0" stop-color="#1a1a1a"/><stop offset="1" stop-color="#1a1a1a" stop-opacity="0"/></radialGradient><radialGradient cx="242.56015" cy="210.2779" r="133.44076" gradientUnits="userSpaceOnUse" id="color-13"><stop offset="0" stop-color="#1a1a1a"/><stop offset="1" stop-color="#1a1a1a" stop-opacity="0"/></radialGradient></defs><g transform="translate(-86.7681,-76.05754)"><g data-paper-data="{&quot;isPaintingLayer&quot;:true}" fill-rule="nonzero" stroke-linecap="butt" stroke-linejoin="miter" stroke-miterlimit="10" stroke-dasharray="" stroke-dashoffset="0" style="mix-blend-mode: normal"><path d="M263.13126,224.57705c0,-30.28289 24.54913,-54.83203 54.83203,-54.83203c30.28289,0 54.83203,24.54914 54.83203,54.83203c0,30.28289 -24.54914,54.83203 -54.83203,54.83203c-30.28289,0 -54.83203,-24.54914 -54.83203,-54.83203z" fill="url(#color-1)" stroke="#ffffff" stroke-width="0"/><path d="M136.05755,180c0,-57.40583 46.53662,-103.94245 103.94246,-103.94245c57.40584,0 103.94246,46.53662 103.94246,103.94246c0,57.40584 -46.53662,103.94246 -103.94245,103.94246c-57.40583,0 -103.94245,-46.53662 -103.94245,-103.94245z" fill="url(#color-2)" stroke="#ffffff" stroke-width="0"/><path d="M89.37061,139.73659c0,-30.28289 24.54913,-54.83203 54.83203,-54.83203c30.28289,0 54.83203,24.54913 54.83203,54.83203c0,30.28289 -24.54914,54.83203 -54.83203,54.83203c-30.28289,0 -54.83203,-24.54914 -54.83203,-54.83203z" fill="url(#color-3)" stroke="#ffffff" stroke-width="0"/><g stroke="#000000" stroke-width="0"><path d="M298.2005,197.56237c16.45809,0 29.80002,13.34192 29.80002,29.80002c0,16.45809 -13.34192,29.80002 -29.80002,29.80002c-16.45809,0 -29.80002,-13.34192 -29.80002,-29.80002c0,-16.45809 13.34192,-29.80002 29.80002,-29.80002z" fill="url(#color-4)"/><path d="M338.97333,235.21681c6.06011,0 10.9728,4.91269 10.9728,10.9728c0,6.06011 -4.91269,10.9728 -10.9728,10.9728c-6.06011,0 -10.9728,-4.91269 -10.9728,-10.9728c0,-6.06011 4.91269,-10.9728 10.9728,-10.9728z" fill="url(#color-5)"/><path d="M347.76334,188.48384c10.91469,0 19.7628,8.84811 19.7628,19.7628c0,10.91469 -8.84811,19.7628 -19.7628,19.7628c-10.91469,0 -19.7628,-8.84811 -19.7628,-19.7628c0,-10.91469 8.84811,-19.7628 19.7628,-19.7628z" fill="url(#color-6)"/><path d="M276.02925,245.41267c4.21327,0 7.6288,3.41553 7.6288,7.6288c0,4.21327 -3.41553,7.6288 -7.6288,7.6288c-4.21327,0 -7.6288,-3.41553 -7.6288,-7.6288c0,-4.21327 3.41553,-7.6288 7.6288,-7.6288z" fill="url(#color-7)"/></g><g stroke="#000000" stroke-width="0"><path d="M134.38879,132.50246c0,-16.45809 13.34192,-29.80002 29.80002,-29.80002c16.45809,0 29.80002,13.34192 29.80002,29.80002c0,16.45809 -13.34192,29.80002 -29.80002,29.80002c-16.45809,0 -29.80002,-13.34192 -29.80002,-29.80002z" fill="url(#color-8)"/><path d="M123.41599,136.07205c0,-6.06011 4.91269,-10.9728 10.9728,-10.9728c6.06011,0 10.9728,4.91269 10.9728,10.9728c0,6.06011 -4.91269,10.9728 -10.9728,10.9728c-6.06011,0 -10.9728,-4.91269 -10.9728,-10.9728z" fill="url(#color-9)"/><path d="M119.90256,160.58995c0,-10.91469 8.84811,-19.7628 19.7628,-19.7628c10.91469,0 19.7628,8.84811 19.7628,19.7628c0,10.91469 -8.84811,19.7628 -19.7628,19.7628c-10.91469,0 -19.7628,-8.84811 -19.7628,-19.7628z" fill="url(#color-10)"/><path d="M100.79878,124.87367c0,-4.21327 3.41553,-7.6288 7.6288,-7.6288c4.21327,0 7.6288,3.41553 7.6288,7.6288c0,4.21327 -3.41553,7.6288 -7.6288,7.6288c-4.21327,0 -7.6288,-3.41553 -7.6288,-7.6288z" fill="url(#color-11)"/></g><path d="M90.73033,206.12889l-3.96223,-39.32626l298.92449,-30.11752l3.96224,39.32626z" data-paper-data="{&quot;index&quot;:null}" fill="url(#color-12)" stroke="#ffffff" stroke-width="0"/><text transform="translate(108.00303,185.5441) scale(0.95602,0.95602)" font-size="40" xml:space="preserve" fill="#000000" fill-rule="nonzero" stroke="#000000" stroke-width="2" stroke-linecap="butt" stroke-linejoin="miter" stroke-miterlimit="10" stroke-dasharray="" stroke-dashoffset="0" font-family="Sans Serif" font-weight="normal" text-anchor="start" style="mix-blend-mode: normal"><tspan x="0" dy="0">ナワバリバトル</tspan></text><text transform="translate(104.33147,183.0964) scale(0.95602,0.95602)" font-size="40" xml:space="preserve" fill="#ffffff" fill-rule="nonzero" stroke="#ffffff" stroke-width="2" stroke-linecap="butt" stroke-linejoin="miter" stroke-miterlimit="10" stroke-dasharray="" stroke-dashoffset="0" font-family="Sans Serif" font-weight="normal" text-anchor="start" style="mix-blend-mode: normal"><tspan x="0" dy="0">ナワバリバトル</tspan></text><path d="M110.86607,234.31937l-2.149,-21.32931l265.53717,-26.75364l2.149,21.32931z" data-paper-data="{&quot;index&quot;:null}" fill="url(#color-13)" stroke="#ffffff" stroke-width="0"/><text transform="translate(127.45983,216.23717) scale(0.40613,0.40613)" font-size="40" xml:space="preserve" fill="#000000" fill-rule="nonzero" stroke="#000000" stroke-width="2" stroke-linecap="butt" stroke-linejoin="miter" stroke-miterlimit="10" stroke-dasharray="" stroke-dashoffset="0" font-family="Sans Serif" font-weight="normal" text-anchor="start" style="mix-blend-mode: normal"><tspan x="0" dy="0">たくさんナワバリを確保しろ！</tspan></text><text transform="translate(126.13305,214.29445) scale(0.40613,0.40613)" font-size="40" xml:space="preserve" fill="#ffffff" fill-rule="nonzero" stroke="#ffffff" stroke-width="2" stroke-linecap="butt" stroke-linejoin="miter" stroke-miterlimit="10" stroke-dasharray="" stroke-dashoffset="0" font-family="Sans Serif" font-weight="normal" text-anchor="start" style="mix-blend-mode: normal"><tspan x="0" dy="0">たくさんナワバリを確保しろ！</tspan></text></g></g></svg>