<svg version="1.1" xmlns="http://www.w3.org/2000/svg" xmlns:xlink="http://www.w3.org/1999/xlink" width="73.56697" height="73.56697" viewBox="0,0,73.56697,73.56697"><defs><radialGradient cx="240.00003" cy="180.00001" r="36.7832" gradientUnits="userSpaceOnUse" id="color-1"><stop offset="0" stop-color="#000000"/><stop offset="1" stop-color="#000000" stop-opacity="0"/></radialGradient><linearGradient x1="205.22563" y1="165.78559" x2="230.5298" y2="165.78559" gradientUnits="userSpaceOnUse" id="color-2"><stop offset="0" stop-color="#d60000"/><stop offset="1" stop-color="#000000"/></linearGradient><linearGradient x1="215.87241" y1="179.7393" x2="265.24601" y2="179.7393" gradientUnits="userSpaceOnUse" id="color-3"><stop offset="0" stop-color="#d60000"/><stop offset="1" stop-color="#000000"/></linearGradient><linearGradient x1="239.78212" y1="179.69285" x2="249.82618" y2="179.69285" gradientUnits="userSpaceOnUse" id="color-4"><stop offset="0" stop-color="#000000"/><stop offset="1" stop-color="#ff1900"/></linearGradient><linearGradient x1="244.80556" y1="160.43273" x2="244.80556" y2="199.3106" gradientUnits="userSpaceOnUse" id="color-5"><stop offset="0" stop-color="#ffffff"/><stop offset="1" stop-color="#966868"/></linearGradient></defs><g transform="translate(-203.21652,-143.21652)"><g data-paper-data="{&quot;isPaintingLayer&quot;:true}" fill-rule="nonzero" stroke-width="0" stroke-linecap="butt" stroke-linejoin="miter" stroke-miterlimit="10" stroke-dasharray="" stroke-dashoffset="0" style="mix-blend-mode: normal"><path d="M203.23123,178.96999c0.56886,-20.30684 17.49197,-36.30762 37.79879,-35.73876c20.30684,0.56886 36.30762,17.49197 35.73876,37.79879c-0.56887,20.30684 -17.49197,36.30762 -37.79879,35.73876c-20.30684,-0.56886 -36.30762,-17.49197 -35.73876,-37.79879z" fill="url(#color-1)" stroke="#000000"/><path d="M219.04697,168.72178l-13.23462,-5.11993l-0.03056,-4.09101l24.62328,-0.42329z" fill="url(#color-2)" stroke="none"/><path d="M215.87845,180.27978c-0.29851,-13.63081 10.50947,-24.92274 24.14028,-25.22125c13.63081,-0.29851 24.92274,10.50947 25.22125,24.14028c0.29851,13.63081 -10.50947,24.92274 -24.14028,25.22125c-13.63081,0.29851 -24.92274,-10.50947 -25.22125,-24.14028z" fill="url(#color-3)" stroke="#000000"/><path d="M240.92103,204.05727c0,0 -1.03498,-17.57311 -1.12795,-25.03115c-0.09258,-7.42604 0.43225,-23.51463 0.43225,-23.51463l8.34631,1.66877c0,0 1.21668,14.11618 1.25359,21.51758c0.03735,7.48738 -1.03078,23.15175 -1.03078,23.15175z" fill="url(#color-4)" stroke="none"/><path d="M244.93863,199.30379c-0.89218,0.05318 -2.71609,-0.22255 -2.71609,-0.22255c0,0 -0.63403,-13.31317 -0.71595,-19.67061c-0.08157,-6.33015 0.22546,-18.52067 0.22546,-18.52067c0,0 1.61287,-0.22428 2.52331,-0.42121c0.91044,-0.19694 2.97509,0.47793 2.97509,0.47793c0,0 0.84079,11.90831 0.88562,18.21728c0.04535,6.38226 -0.61507,19.73082 -0.61507,19.73082z" fill="url(#color-5)" stroke="none"/></g></g></svg>