<svg version="1.1" xmlns="http://www.w3.org/2000/svg" xmlns:xlink="http://www.w3.org/1999/xlink" width="79.49276" height="80.13905" viewBox="0,0,79.49276,80.13905"><defs><radialGradient cx="240.15531" cy="180.15526" r="32.79887" gradientUnits="userSpaceOnUse" id="color-1"><stop offset="0" stop-color="#000000"/><stop offset="1" stop-color="#000000" stop-opacity="0"/></radialGradient><linearGradient x1="250.6471" y1="149.73798" x2="250.6471" y2="210.26206" gradientUnits="userSpaceOnUse" id="color-2"><stop offset="0" stop-color="#ff7979"/><stop offset="1" stop-color="#ff1f1f"/></linearGradient><linearGradient x1="239.27384" y1="180.44365" x2="208.8507" y2="180.44364" gradientUnits="userSpaceOnUse" id="color-3"><stop offset="0" stop-color="#ff1f1f"/><stop offset="1" stop-color="#ff0000"/></linearGradient><radialGradient cx="233.77873" cy="179.07944" r="28.92462" gradientUnits="userSpaceOnUse" id="color-4"><stop offset="0" stop-color="#ffffff" stop-opacity="0.34902"/><stop offset="1" stop-color="#ffffff" stop-opacity="0.69412"/></radialGradient><radialGradient cx="224.07362" cy="179.87798" r="27.19913" gradientUnits="userSpaceOnUse" id="color-5"><stop offset="0" stop-color="#ffffff" stop-opacity="0"/><stop offset="1" stop-color="#ffffff" stop-opacity="0.69412"/></radialGradient><linearGradient x1="211.16234" y1="170.03933" x2="226.80921" y2="170.03933" gradientUnits="userSpaceOnUse" id="color-6"><stop offset="0" stop-color="#ffffff"/><stop offset="1" stop-color="#ffffff" stop-opacity="0"/></linearGradient><linearGradient x1="227.91801" y1="165.23263" x2="227.91801" y2="183.58371" gradientUnits="userSpaceOnUse" id="color-7"><stop offset="0" stop-color="#ffffff"/><stop offset="1" stop-color="#ffffff" stop-opacity="0"/></linearGradient><linearGradient x1="220.69534" y1="188.82969" x2="236.74747" y2="188.82969" gradientUnits="userSpaceOnUse" id="color-8"><stop offset="0" stop-color="#ffffff" stop-opacity="0"/><stop offset="1" stop-color="#ffffff"/></linearGradient><linearGradient x1="216.25532" y1="175.38166" x2="216.25532" y2="195.19399" gradientUnits="userSpaceOnUse" id="color-9"><stop offset="0" stop-color="#ffffff" stop-opacity="0"/><stop offset="1" stop-color="#ffffff"/></linearGradient></defs><g transform="translate(-200.25362,-139.93049)"><g data-paper-data="{&quot;isPaintingLayer&quot;:true}" fill-rule="nonzero" stroke-linejoin="miter" stroke-miterlimit="10" stroke-dasharray="" stroke-dashoffset="0" style="mix-blend-mode: normal"><path d="M279.74638,220.06955h-79.49276v-80.13905h79.49276z" fill="none" stroke="none" stroke-width="NaN" stroke-linecap="butt"/><path d="M240.15531,212.95414c-18.11432,0 -32.79887,-14.68456 -32.79887,-32.79887c0,-18.11432 14.68456,-32.79887 32.79887,-32.79887c18.11432,0 32.79887,14.68456 32.79887,32.79887c0,18.11432 -14.68456,32.79887 -32.79887,32.79887z" fill="url(#color-1)" stroke="#000000" stroke-width="0" stroke-linecap="butt"/><path d="M261.92181,196.77574l-22.25301,13.48633l-0.29642,-60.52408l22.54942,15.61575z" fill="url(#color-2)" stroke="#000000" stroke-width="0" stroke-linecap="butt"/><path d="M246.16392,190.67262c0,-2.44128 1.97905,-4.42033 4.42033,-4.42033c2.44128,0 4.42033,1.97905 4.42033,4.42033c0,2.44128 -1.97905,4.42033 -4.42033,4.42033c-2.44128,0 -4.42033,-1.97905 -4.42033,-4.42033z" fill="#000000" stroke="#000000" stroke-width="0" stroke-linecap="butt"/><path d="M246.21315,169.32744c0,-2.44128 1.97905,-4.42033 4.42033,-4.42033c2.44128,0 4.42033,1.97905 4.42033,4.42033c0,2.44128 -1.97905,4.42033 -4.42033,4.42033c-2.44128,0 -4.42033,-1.97905 -4.42033,-4.42033z" fill="#000000" stroke="#000000" stroke-width="0" stroke-linecap="butt"/><path d="M205.65659,160.03018l34.43867,-10.2922l-0.41072,60.52408l-34.20542,-10.46965z" data-paper-data="{&quot;index&quot;:null}" fill="url(#color-3)" stroke="#000000" stroke-width="0" stroke-linecap="butt"/><path d="M204.85411,182.80593v-6.92061l35.21258,-4.43629l22.63666,6.56571v3.72648l-22.27735,4.96865z" fill="url(#color-4)" stroke="none" stroke-width="0" stroke-linecap="butt"/><path d="M257.23932,168.72228v22.27848" fill="none" stroke="#000000" stroke-width="2" stroke-linecap="round"/><path d="M219.8324,204.6799v-49.60385l8.48244,-2.39721v54.39827z" fill="url(#color-5)" stroke="none" stroke-width="0" stroke-linecap="butt"/><path d="M226.16956,167.17735c2.3683,5.24408 -2.60218,12.60703 -2.60218,12.60703c0,0 -8.81024,-1.13939 -11.17854,-6.38348c-2.3683,-5.24408 -1.20326,-10.88844 2.60218,-12.60703c3.80544,-1.71859 8.81024,1.13939 11.17854,6.38348z" fill="url(#color-6)" stroke="none" stroke-width="0" stroke-linecap="butt"/><path d="M233.76151,179.03638c-3.16403,4.80605 -12.0438,4.54481 -12.0438,4.54481c0,0 -3.74986,-8.05339 -0.58583,-12.85944c3.16403,-4.80605 8.55623,-6.84083 12.0438,-4.54481c3.48758,2.29602 3.74986,8.05339 0.58583,12.85944z" fill="url(#color-7)" stroke="none" stroke-width="0" stroke-linecap="butt"/><path d="M221.88314,192.43387c-3.08132,-4.8595 0.80582,-12.84753 0.80582,-12.84753c0,0 8.88294,-0.10924 11.96426,4.75025c3.08132,4.8595 2.72055,10.61153 -0.80581,12.84754c-3.52636,2.236 -8.88295,0.10924 -11.96426,-4.75025z" fill="url(#color-8)" stroke="none" stroke-width="0" stroke-linecap="butt"/><path d="M209.4357,182.37145c2.07571,-5.36662 10.80977,-6.98979 10.80977,-6.98979c0,0 5.36868,7.07784 3.29297,12.44447c-2.07571,5.36662 -6.91541,8.49607 -10.80978,6.9898c-3.89436,-1.50627 -5.36868,-7.07785 -3.29297,-12.44447z" fill="url(#color-9)" stroke="none" stroke-width="0" stroke-linecap="butt"/></g></g></svg>