<svg version="1.1" xmlns="http://www.w3.org/2000/svg" xmlns:xlink="http://www.w3.org/1999/xlink" width="204.67746" height="111.03447" viewBox="0,0,204.67746,111.03447"><g transform="translate(-35.15382,-112.80651)"><g data-paper-data="{&quot;isPaintingLayer&quot;:true}" fill-rule="nonzero" stroke-linecap="butt" stroke-linejoin="miter" stroke-miterlimit="10" stroke-dasharray="" stroke-dashoffset="0" style="mix-blend-mode: normal"><path d="M37.52577,221.47182c-2.66144,-2.62498 -2.36183,-7.87277 -2.36183,-7.87277v-91.58653c0,0 0.03701,-4.60457 2.62425,-7.08549c2.58725,-2.48092 6.95427,-2.09941 6.95427,-2.09941h168.84565c0,0 3.31291,-0.26945 5.96755,2.0994c2.65464,2.36885 3.14911,6.03579 3.14911,6.03579l0.49644,64.86835l16.63007,-5.50482l-16.33923,43.5073h-177.96229c0,0 -5.34255,0.26316 -8.00399,-2.36182z" fill-opacity="0.50196" fill="#000000" stroke="none" stroke-width="0"/><text transform="translate(39.92671,129.22568) scale(0.37525,0.37525)" font-size="40" xml:space="preserve" fill="#ffffff" fill-rule="nonzero" stroke="none" stroke-width="1" stroke-linecap="butt" stroke-linejoin="miter" stroke-miterlimit="10" stroke-dasharray="" stroke-dashoffset="0" font-family="Sans Serif" font-weight="normal" text-anchor="start" style="mix-blend-mode: normal"><tspan x="0" dy="0">ラパンだよ！</tspan><tspan x="0" dy="46.150000000000006px">このゲームを作った人</tspan><tspan x="0" dy="46.150000000000006px">じゃないけどね...</tspan><tspan x="0" dy="46.150000000000006px"> </tspan><tspan x="0" dy="46.150000000000006px">なんでも知ってるよ！</tspan><tspan x="0" dy="46.150000000000006px">　　　　　　を教えるよ</tspan></text><text transform="translate(39.76005,129.39234) scale(0.37525,0.37525)" font-size="40" xml:space="preserve" fill="#ff4eff" fill-rule="nonzero" stroke="#ff4eff" stroke-width="2" stroke-linecap="butt" stroke-linejoin="miter" stroke-miterlimit="10" stroke-dasharray="" stroke-dashoffset="0" font-family="Sans Serif" font-weight="normal" text-anchor="start" style="mix-blend-mode: normal"><tspan x="0" dy="0">ラパン</tspan></text><text transform="translate(39.76005,215.89234) scale(0.37525,0.37525)" font-size="40" xml:space="preserve" fill="#ff7d00" fill-rule="nonzero" stroke="#ff7d00" stroke-width="2" stroke-linecap="butt" stroke-linejoin="miter" stroke-miterlimit="10" stroke-dasharray="" stroke-dashoffset="0" font-family="Sans Serif" font-weight="normal" text-anchor="start" style="mix-blend-mode: normal"><tspan x="0" dy="0">プレイの仕方</tspan></text></g></g></svg>