<svg version="1.1" xmlns="http://www.w3.org/2000/svg" xmlns:xlink="http://www.w3.org/1999/xlink" width="635.36519" height="96.0961" viewBox="0,0,635.36519,96.0961"><defs><linearGradient x1="240.12715" y1="302.80851" x2="240.12715" y2="352.19149" gradientUnits="userSpaceOnUse" id="color-1"><stop offset="0" stop-color="#ff4d4d"/><stop offset="1" stop-color="#ff0000"/></linearGradient><linearGradient x1="240.29348" y1="321.40265" x2="240.29348" y2="351.85814" gradientUnits="userSpaceOnUse" id="color-2"><stop offset="0" stop-color="#ff0a0a"/><stop offset="1" stop-color="#b30000"/></linearGradient></defs><g transform="translate(77.55545,-267.08708)"><g data-paper-data="{&quot;isPaintingLayer&quot;:true}" fill-rule="nonzero" stroke="#000000" stroke-width="0" stroke-linecap="butt" stroke-linejoin="miter" stroke-miterlimit="10" stroke-dasharray="" stroke-dashoffset="0" style="mix-blend-mode: normal"><path d="M-77.55545,363.18318v-96.0961h635.36519v96.0961z" fill="none"/><path d="M480.14683,302.80851c0,0 -1.66334,6.51116 -1.66334,12.208c0,4.58638 1.99601,8.39186 1.99601,12c0,8.36209 0,25.17498 0,25.17498h-480.37204c0,0 0.998,-6.69828 0.998,-13.17498c0,-9.40119 -2.32867,-14.26548 -2.32867,-23.66667c0,-6.60134 1.33068,-12.54133 1.33068,-12.54133z" data-paper-data="{&quot;index&quot;:null}" fill="url(#color-1)"/><path d="M480.31317,326.95968c0,0 1.66334,8.14416 1.66334,12.39017c0,4.04359 -1.66334,12.50828 -1.66334,12.50828h-480.03937c0,0 0.998,-8.91841 0.998,-13.17495c0,-4.20908 -0.998,-12.2235 -0.998,-12.2235c0,0 13.70117,3.44891 52.71197,3.26429c13.10076,-0.062 39.53372,-6.16905 55.22456,-6.08431c13.14764,0.07101 26.71219,6.50157 41.09134,6.39717c21.43224,-0.1556 43.33697,-7.84858 66.19349,-7.85563c13.34242,-0.00411 35.02703,5.45788 48.23376,5.41256c25.79827,-0.08853 49.56311,-6.22526 72.5275,-6.19097c20.98904,0.03134 41.81109,8.65368 58.03306,8.55674c18.7395,-0.11199 43.6237,-7.3177 52.24294,-7.3177c8.61924,0 33.78076,4.31785 33.78076,4.31785z" data-paper-data="{&quot;index&quot;:null}" fill="url(#color-2)"/></g></g></svg>