<svg version="1.1" xmlns="http://www.w3.org/2000/svg" xmlns:xlink="http://www.w3.org/1999/xlink" width="62.05479" height="62.05479" viewBox="0,0,62.05479,62.05479"><defs><radialGradient cx="258.2322" cy="183.51656" r="31.01901" gradientUnits="userSpaceOnUse" id="color-1"><stop offset="0" stop-color="#000000" stop-opacity="0.63137"/><stop offset="1" stop-color="#000000" stop-opacity="0"/></radialGradient><linearGradient x1="248.62427" y1="213.01004" x2="267.84014" y2="154.02302" gradientUnits="userSpaceOnUse" id="color-2"><stop offset="0" stop-color="#ff5454"/><stop offset="1" stop-color="#eb0000"/></linearGradient><linearGradient x1="258.55847" y1="159.15208" x2="248.83497" y2="207.39409" gradientUnits="userSpaceOnUse" id="color-3"><stop offset="0" stop-color="#929292"/><stop offset="1" stop-color="#000000"/></linearGradient><linearGradient x1="241.1285" y1="182.18498" x2="262.15875" y2="185.80406" gradientUnits="userSpaceOnUse" id="color-4"><stop offset="0" stop-color="#c40000"/><stop offset="1" stop-color="#ff4141"/></linearGradient><linearGradient x1="274.86273" y1="159.93037" x2="263.95333" y2="214.05602" gradientUnits="userSpaceOnUse" id="color-5"><stop offset="0" stop-color="#929292"/><stop offset="1" stop-color="#000000"/></linearGradient><linearGradient x1="266.86434" y1="186.38678" x2="280.53719" y2="189.01928" gradientUnits="userSpaceOnUse" id="color-6"><stop offset="0" stop-color="#da0000"/><stop offset="1" stop-color="#ff4343"/></linearGradient><linearGradient x1="265.66234" y1="185.03995" x2="274.79349" y2="186.8804" gradientUnits="userSpaceOnUse" id="color-7"><stop offset="0" stop-color="#000000" stop-opacity="0.38824"/><stop offset="1" stop-color="#000000" stop-opacity="0"/></linearGradient><linearGradient x1="273.98595" y1="190.90068" x2="279.45297" y2="192.25469" gradientUnits="userSpaceOnUse" id="color-8"><stop offset="0" stop-color="#ffffff" stop-opacity="0"/><stop offset="1" stop-color="#ffffff" stop-opacity="0.80784"/></linearGradient><linearGradient x1="240.94721" y1="168.09639" x2="256.27061" y2="177.88973" gradientUnits="userSpaceOnUse" id="color-9"><stop offset="0" stop-color="#eb0000"/><stop offset="1" stop-color="#ff5454"/></linearGradient><linearGradient x1="237.7364" y1="189.24159" x2="253.05982" y2="199.03495" gradientUnits="userSpaceOnUse" id="color-10"><stop offset="0" stop-color="#eb0000"/><stop offset="1" stop-color="#ff5454"/></linearGradient></defs><g transform="translate(-227.20479,-152.48917)"><g data-paper-data="{&quot;isPaintingLayer&quot;:true}" fill-rule="nonzero" stroke-width="0" stroke-linecap="butt" stroke-linejoin="miter" stroke-miterlimit="10" stroke-dasharray="" stroke-dashoffset="0" style="mix-blend-mode: normal"><path d="M267.84012,154.02305c16.28881,5.30631 25.19189,22.81261 19.88558,39.10144c-5.30632,16.28882 -22.81263,25.19189 -39.10144,19.88558c-16.28881,-5.30631 -25.19189,-22.81262 -19.88558,-39.10144c5.30631,-16.28881 22.81263,-25.19189 39.10144,-19.88558z" data-paper-data="{&quot;index&quot;:null}" fill="url(#color-1)" stroke="url(#color-2)"/><g stroke="none"><path d="M275.03696,162.47342l-9.30452,48.32648l-27.15396,-11.34002c0,0 -4.59654,-5.17282 -2.16419,-17.67866c2.14216,-11.01368 8.88159,-17.21069 8.88159,-17.21069z" data-paper-data="{&quot;index&quot;:null}" fill="url(#color-3)"/><path d="M242.75217,205.08456l-3.29003,-13.21641l4.11739,-21.89784l7.98545,-8.60948l13.64249,6.72736l-0.94476,4.68736l-11.25691,-4.03674l-5.25467,8.28082l-2.37931,11.73209l1.77598,10.11413l11.43279,-0.09191l-0.98421,4.88301z" fill="url(#color-4)"/><path d="M264.17691,214.10085c-6.62525,-1.27253 -9.654,-14.4406 -6.76496,-29.41175c2.88907,-14.97114 10.60193,-26.07607 17.22717,-24.80356c6.62525,1.27253 9.654,14.44062 6.76495,29.41175c-2.88907,14.97114 -10.60193,26.07606 -17.22717,24.80355z" data-paper-data="{&quot;index&quot;:null}" fill="url(#color-5)"/><path d="M269.59315,209.03739c-3.77565,-0.72695 -4.99739,-10.86797 -2.72883,-22.65061c2.26857,-11.78264 7.16837,-20.74506 10.94404,-20.01813c3.77565,0.72695 4.99738,10.86796 2.72883,22.65061c-2.26857,11.78264 -7.16838,20.74506 -10.94403,20.01812z" data-paper-data="{&quot;index&quot;:null}" fill="url(#color-6)"/><path d="M265.19068,208.33848l0.26354,-17.79849l3.45757,-13.67207c0,0 2.524,-6.54897 4.61618,-8.67083c3.11882,-3.16305 5.3846,-1.89282 5.3846,-1.89282l-8.76299,43.61638z" fill="url(#color-7)"/><path d="M279.81126,192.47187c-1.72569,6.96774 -4.49326,12.55196 -6.00293,12.17806c-1.50967,-0.37391 -1.54808,-6.78152 0.17761,-13.74925c1.72569,-6.96774 5.04705,-13.19617 6.55674,-12.82225c1.50967,0.37391 0.99427,7.42572 -0.73142,14.39346z" fill="url(#color-8)"/></g><path d="M240.94721,168.09639c2.70437,-4.23144 8.32694,-5.46939 12.55837,-2.76503c4.23144,2.70436 5.46939,8.32694 2.76503,12.55837c-2.70437,4.23144 -8.32694,5.46939 -12.55837,2.76503c-4.23144,-2.70436 -5.46938,-8.32695 -2.76503,-12.55837z" fill="url(#color-9)" stroke="#000000"/><path d="M237.7364,189.24159c2.70436,-4.23144 8.32694,-5.4694 12.55837,-2.76503c4.23144,2.70436 5.4694,8.32694 2.76503,12.55838c-2.70436,4.23144 -8.32694,5.46939 -12.55838,2.76503c-4.23144,-2.70436 -5.46939,-8.32694 -2.76503,-12.55837z" fill="url(#color-10)" stroke="#000000"/></g></g></svg>