<svg version="1.1" xmlns="http://www.w3.org/2000/svg" xmlns:xlink="http://www.w3.org/1999/xlink" width="98.70657" height="169.18286" viewBox="0,0,98.70657,169.18286"><defs><linearGradient x1="240.00001" y1="142.99982" x2="240.00001" y2="217.00021" gradientUnits="userSpaceOnUse" id="color-1"><stop offset="0" stop-color="#000000" stop-opacity="0.43529"/><stop offset="1" stop-color="#000000" stop-opacity="0.74902"/></linearGradient><linearGradient x1="235.34322" y1="48.38164" x2="235.34322" y2="138.42137" gradientUnits="userSpaceOnUse" id="color-2"><stop offset="0" stop-color="#ffffff" stop-opacity="0.72549"/><stop offset="1" stop-color="#ffffff"/></linearGradient></defs><g transform="translate(-190.64672,-47.81735)"><g data-paper-data="{&quot;isPaintingLayer&quot;:true}" fill-rule="nonzero" stroke-linejoin="miter" stroke-miterlimit="10" stroke-dasharray="" stroke-dashoffset="0" style="mix-blend-mode: normal"><path d="M194.5803,212.82078c-3.53371,-3.53337 -3.93358,-8.62388 -3.93358,-8.62388v-48.38701c0,0 0.46075,-5.27926 3.99503,-8.81504c3.53428,-3.53579 8.80958,-3.99503 8.80958,-3.99503h73.09734c0,0 4.89104,0.23199 8.44081,3.74919c3.54977,3.51721 4.36381,8.93797 4.36381,8.93797v48.66356c0,0 -0.63465,5.28017 -4.17943,8.71609c-3.54478,3.43592 -8.87102,3.93358 -8.87102,3.93358h-72.85149c0,0 -5.33733,-0.64608 -8.87104,-4.17943z" fill="url(#color-1)" stroke="none" stroke-width="0" stroke-linecap="butt"/><path d="M218.35063,161.45726h44.74887" fill="none" stroke="#ffffff" stroke-width="5" stroke-linecap="round"/><path d="M229.85752,172.60497l-13.58201,-11.52888l13.38798,-11.3642" fill="none" stroke="#ffffff" stroke-width="5" stroke-linecap="round"/><text transform="translate(201.041,188.94544) scale(0.38989,0.38989)" font-size="40" xml:space="preserve" fill="#ffffff" fill-rule="nonzero" stroke="none" stroke-width="1" stroke-linecap="butt" stroke-linejoin="miter" stroke-miterlimit="10" stroke-dasharray="" stroke-dashoffset="0" font-family="Sans Serif" font-weight="normal" text-anchor="start" style="mix-blend-mode: normal"><tspan x="0" dy="0">メニューに</tspan></text><text transform="translate(218.18233,210.05945) scale(0.57059,0.57059)" font-size="40" xml:space="preserve" fill="#ffffff" fill-rule="nonzero" stroke="none" stroke-width="1" stroke-linecap="butt" stroke-linejoin="miter" stroke-miterlimit="10" stroke-dasharray="" stroke-dashoffset="0" font-family="Sans Serif" font-weight="normal" text-anchor="start" style="mix-blend-mode: normal"><tspan x="0" dy="0">戻る</tspan></text><path d="M264.02421,94.46216h-24.64046l3.68888,43.95921l-12.29628,-43.95921h-23.69187l-5.99464,-4.25351l-0.13054,-38.13485l4.91632,-3.69216h58.93519l4.91632,3.97956v38.12877z" fill="url(#color-2)" stroke="none" stroke-width="0" stroke-linecap="butt"/><text transform="translate(203.73401,67.49899) scale(0.31921,0.44731)" font-size="40" xml:space="preserve" fill="#000000" fill-rule="nonzero" stroke="#000000" stroke-width="2" stroke-linecap="butt" stroke-linejoin="miter" stroke-miterlimit="10" stroke-dasharray="" stroke-dashoffset="0" font-family="Sans Serif" font-weight="normal" text-anchor="start" style="mix-blend-mode: normal"><tspan x="0" dy="0">オンライン</tspan><tspan x="0" dy="46.150000000000006px">バトルへ！</tspan></text></g></g></svg>