<svg version="1.1" xmlns="http://www.w3.org/2000/svg" xmlns:xlink="http://www.w3.org/1999/xlink" width="174.55365" height="140.61925" viewBox="0,0,174.55365,140.61925"><defs><linearGradient x1="345.56698" y1="191.4896" x2="338.2651" y2="252.90001" gradientUnits="userSpaceOnUse" id="color-1"><stop offset="0" stop-color="#dcd0e8"/><stop offset="1" stop-color="#ffffff"/></linearGradient><linearGradient x1="386.39638" y1="167.99871" x2="390.19011" y2="236.69561" gradientUnits="userSpaceOnUse" id="color-2"><stop offset="0" stop-color="#ffffff"/><stop offset="1" stop-color="#dcd0e8"/></linearGradient><linearGradient x1="419.47035" y1="168.52757" x2="443.23429" y2="213.21081" gradientUnits="userSpaceOnUse" id="color-3"><stop offset="0" stop-color="#dcd0e8"/><stop offset="1" stop-color="#ffffff"/></linearGradient><linearGradient x1="348.4061" y1="236.54884" x2="450.05506" y2="188.97943" gradientUnits="userSpaceOnUse" id="color-4"><stop offset="0" stop-color="#f6f3f9"/><stop offset="1" stop-color="#e7def0"/></linearGradient><linearGradient x1="389.54339" y1="162.9251" x2="412.14831" y2="178.54043" gradientUnits="userSpaceOnUse" id="color-5"><stop offset="0" stop-color="#636363"/><stop offset="1" stop-color="#000000"/></linearGradient><linearGradient x1="386.97248" y1="206.93656" x2="440.35561" y2="210.48098" gradientUnits="userSpaceOnUse" id="color-6"><stop offset="0" stop-color="#ffffff"/><stop offset="1" stop-color="#dcd0e8"/></linearGradient><linearGradient x1="339.33287" y1="230.1942" x2="370.77487" y2="217.93053" gradientUnits="userSpaceOnUse" id="color-7"><stop offset="0" stop-color="#ffffff"/><stop offset="1" stop-color="#eae2f1"/></linearGradient><linearGradient x1="312.04959" y1="110.37431" x2="314.6696" y2="144.39242" gradientUnits="userSpaceOnUse" id="color-8"><stop offset="0" stop-color="#000000"/><stop offset="1" stop-color="#636363"/></linearGradient><linearGradient x1="306.15275" y1="127.62368" x2="353.96085" y2="168.59416" gradientUnits="userSpaceOnUse" id="color-9"><stop offset="0" stop-color="#ffffff"/><stop offset="1" stop-color="#e9e0f2"/></linearGradient><linearGradient x1="308.17444" y1="149.70878" x2="308.52377" y2="154.24453" gradientUnits="userSpaceOnUse" id="color-10"><stop offset="0" stop-color="#ffffff"/><stop offset="1" stop-color="#000000"/></linearGradient><linearGradient x1="331.83119" y1="131.99291" x2="333.26203" y2="150.57083" gradientUnits="userSpaceOnUse" id="color-11"><stop offset="0" stop-color="#000000"/><stop offset="1" stop-color="#636363"/></linearGradient><linearGradient x1="358.17992" y1="111.97862" x2="360.735" y2="145.15371" gradientUnits="userSpaceOnUse" id="color-12"><stop offset="0" stop-color="#ffffff"/><stop offset="1" stop-color="#dcd0e8"/></linearGradient><linearGradient x1="364.67964" y1="117.34724" x2="365.68882" y2="130.45049" gradientUnits="userSpaceOnUse" id="color-13"><stop offset="0" stop-color="#000000"/><stop offset="1" stop-color="#000000" stop-opacity="0"/></linearGradient><linearGradient x1="363.16897" y1="130.64459" x2="363.57653" y2="135.93629" gradientUnits="userSpaceOnUse" id="color-14"><stop offset="0" stop-color="#000000"/><stop offset="1" stop-color="#000000" stop-opacity="0"/></linearGradient><linearGradient x1="370.99994" y1="130.29494" x2="371.67922" y2="139.11444" gradientUnits="userSpaceOnUse" id="color-15"><stop offset="0" stop-color="#000000"/><stop offset="1" stop-color="#000000" stop-opacity="0"/></linearGradient><linearGradient x1="372.85041" y1="123.05496" x2="373.355" y2="129.6066" gradientUnits="userSpaceOnUse" id="color-16"><stop offset="0" stop-color="#000000"/><stop offset="1" stop-color="#000000" stop-opacity="0"/></linearGradient></defs><g transform="translate(-295.06586,-110.23305)"><g data-paper-data="{&quot;isPaintingLayer&quot;:true}" fill-rule="nonzero" stroke-linejoin="miter" stroke-miterlimit="10" stroke-dasharray="" stroke-dashoffset="0" style="mix-blend-mode: normal"><path d="M323.39825,246.03778l-1.62445,-8.3788l4.19748,-9.6085l2.97415,-54.44632l16.41738,6.89352l4.09756,57.34746l-6.85717,9.72356z" fill="url(#color-1)" stroke="none" stroke-width="0" stroke-linecap="butt"/><path d="M381.22283,246.61168l-5.16224,-5.23339l2.16071,-6.25735l5.46479,-16.80415l-17.59188,-6.2438l-4.77588,-12.92583l2.58633,-19.05835l16.19786,-9.52105l22.1399,4.15769l12.3326,18.27039l0.37891,16.71941l-5.83101,8.00717l2.93276,6.66978l-19.36819,15.76523z" fill="url(#color-2)" stroke="none" stroke-width="0" stroke-linecap="butt"/><path d="M436.47407,185.37492l16.2868,0.93918l16.85864,-2.37989l-16.1629,14.33446l-17.05435,5.09468l-21.38837,-4.57033l-5.76334,-9.22634l4.90758,-11.29018z" data-paper-data="{&quot;index&quot;:null}" fill="url(#color-3)" stroke="none" stroke-width="0" stroke-linecap="butt"/><path d="M380.78896,221.17263l-43.54633,-24.45211l-12.31268,-25.67788l36.40339,-24.82693l35.00666,22.15985l25.42503,13.65251l14.84704,25.64036l-30.96076,14.90064z" fill="url(#color-4)" stroke="none" stroke-width="0" stroke-linecap="butt"/><path d="M395.12851,181.34646l-9.94401,-19.96014l15.98912,7.72378l11.44203,8.03456z" fill="url(#color-5)" stroke="none" stroke-width="0" stroke-linecap="butt"/><path d="M403.63522,250.19888l-4.46751,-5.51441l2.92602,-5.60933l4.99018,-15.77248l-16.67331,-7.92921l-3.12251,-12.67826l4.94858,-17.5563l17.41656,-9.10052l21.29094,8.60123l9.95182,18.57962l-1.71421,15.7144l-6.78628,6.81582l2.07595,6.59734l-19.48372,14.53538z" fill="url(#color-6)" stroke="none" stroke-width="0" stroke-linecap="butt"/><path d="M378.96223,249.36728l-27.57925,1.48503l-7.03333,-4.55438l5.03683,-13.68691l-16.43658,-52.46067l20.04015,0.71819l27.69914,61.33528z" fill="url(#color-7)" stroke="none" stroke-width="0" stroke-linecap="butt"/><path d="M304.46687,145.17821l-9.27854,-11.79274l5.02062,-22.09923l18.50983,-0.57759l12.43671,5.79856l-2.0331,22.96985z" fill="url(#color-8)" stroke="none" stroke-width="0" stroke-linecap="butt"/><path d="M302.32302,175.76104l-7.25716,-13.47936l2.25376,-11.99032l10.09043,-3.5479l-2.51022,-13.46046l6.80183,-12.1343l20.77799,-10.1722l22.33228,4.45653l15.11136,15.07766l-5.09578,25.40326l-9.58808,9.18106l-16.23809,10.95371l-16.71753,2.66407z" fill="url(#color-9)" stroke="none" stroke-width="0" stroke-linecap="butt"/><path d="M315.51593,148.76313l2.99565,9.27481l-9.62368,3.40275l-9.27528,-1.94717l1.54008,-9.62415z" data-paper-data="{&quot;index&quot;:null}" fill="#000000" stroke="none" stroke-width="0" stroke-linecap="butt"/><path d="M302.28714,154.72489l0.40662,-4.59397l10.96139,-0.84423l-0.40662,4.59397z" fill="url(#color-10)" stroke="none" stroke-width="0" stroke-linecap="butt"/><path d="M329.05426,150.89493l-6.70397,-10.02927l8.60942,-8.80561l11.28024,3.10748l-0.64708,12.2712z" data-paper-data="{&quot;index&quot;:null}" fill="url(#color-11)" stroke="none" stroke-width="0" stroke-linecap="butt"/><path d="M317.3539,141.54744l-3.04377,3.74331l-5.00455,0.00311l-1.24879,-5.86311l5.14286,-2.46555z" data-paper-data="{&quot;index&quot;:null}" fill="#000000" stroke="none" stroke-width="0" stroke-linecap="butt"/><path d="M346.32998,142.46096l-5.52647,-22.38763l11.40213,-7.63458l20.91923,-2.2057l6.56212,20.95365l-8.11927,13.13269z" data-paper-data="{&quot;index&quot;:null}" fill="url(#color-12)" stroke="none" stroke-width="0" stroke-linecap="butt"/><path d="M308.71324,159.17282l1.04737,7.0168" fill="none" stroke="#000000" stroke-width="1.5" stroke-linecap="round"/><path d="M360.32874,125.03329l4.4769,-7.69575l5.19528,4.92297l-4.69007,8.21913z" data-paper-data="{&quot;index&quot;:null}" fill="url(#color-13)" stroke="none" stroke-width="0" stroke-linecap="butt"/><path d="M360.42671,136.17888l1.86033,-5.46638l4.43934,4.98119z" fill="url(#color-14)" stroke="none" stroke-width="0" stroke-linecap="butt"/><path d="M367.48263,138.9307l0.0382,-6.08647l4.4294,0.97028l3.2075,-3.83979l-0.097,6.11724l-2.75153,2.97399z" fill="url(#color-15)" stroke="none" stroke-width="0" stroke-linecap="butt"/><path d="M370.07917,129.85888l4.28313,-6.92038l2.13264,4.65189z" fill="url(#color-16)" stroke="none" stroke-width="0" stroke-linecap="butt"/></g></g></svg>