<svg version="1.1" xmlns="http://www.w3.org/2000/svg" xmlns:xlink="http://www.w3.org/1999/xlink" width="447.5" height="269.79124" viewBox="0,0,447.5,269.79124"><defs><radialGradient cx="47.93449" cy="95.8679" r="4.65768" gradientUnits="userSpaceOnUse" id="color-1"><stop offset="0" stop-color="#ff0000"/><stop offset="1" stop-color="#d4d4d4"/></radialGradient><linearGradient x1="88.13601" y1="95.77949" x2="97.45138" y2="95.77949" gradientUnits="userSpaceOnUse" id="color-2"><stop offset="0" stop-color="#ff0000"/><stop offset="1" stop-color="#d4d4d4"/></linearGradient></defs><g transform="translate(-22.57494,-13.31709)"><g data-paper-data="{&quot;isPaintingLayer&quot;:true}" fill-rule="nonzero" stroke-linecap="butt" stroke-linejoin="miter" stroke-miterlimit="10" stroke-dasharray="" stroke-dashoffset="0" style="mix-blend-mode: normal"><path d="M126.44109,70.80453v-15.09514h15.09514v15.09514z" fill="#d4d4d4" stroke="#000000" stroke-width="1.5"/><path d="M160.41652,71.2053v-15.09514h15.09514v15.09514z" fill="#0098da" stroke="#000000" stroke-width="1.5"/><path d="M143.37401,70.97942v-15.09514h15.09514v15.09514z" fill="#ff0000" stroke="#000000" stroke-width="1.5"/><text transform="translate(36.66018,35.06709) scale(0.5,0.5)" font-size="40" xml:space="preserve" fill="#010101" fill-rule="nonzero" stroke="none" stroke-width="1" stroke-linecap="butt" stroke-linejoin="miter" stroke-miterlimit="10" stroke-dasharray="" stroke-dashoffset="0" font-family="Sans Serif" font-weight="normal" text-anchor="start" style="mix-blend-mode: normal"><tspan x="0" dy="0">Splatter effect costumes</tspan></text><path d="M43.2768,89.96817v-9.31536h9.31536v9.31536z" fill="#d4d4d4" stroke="#000000" stroke-width="0.75"/><path d="M32.30537,100.73259v-9.31536h9.31536v9.31536z" fill="#d4d4d4" stroke="#000000" stroke-width="0.75"/><path d="M43.2768,100.52558v-9.31536h9.31536v9.31536z" fill="url(#color-1)" stroke="#000000" stroke-width="1.5"/><path d="M52.55656,102.09137v9.31536h-9.31536v-9.31536z" data-paper-data="{&quot;index&quot;:null}" fill="#d4d4d4" stroke="#000000" stroke-width="0.75"/><path d="M63.52799,91.32695v9.31536h-9.31536v-9.31536z" data-paper-data="{&quot;index&quot;:null}" fill="#d4d4d4" stroke="#000000" stroke-width="0.75"/><path d="M77.16457,90.08676v-9.31536h9.31537v9.31537z" fill="#d4d4d4" stroke="#000000" stroke-width="0.75"/><path d="M88.13601,89.87975v-9.31536h9.31537v9.31537z" fill="#d4d4d4" stroke="#000000" stroke-width="0.75"/><path d="M77.16457,100.64417v-9.31536h9.31537v9.31537z" fill="#ff0000" stroke="#000000" stroke-width="0.75"/><path d="M88.13601,100.43717v-9.31536h9.31537v9.31537z" fill="url(#color-2)" stroke="#000000" stroke-width="1.5"/><path d="M108.3872,101.79596v9.31537h-9.31537v-9.31536z" data-paper-data="{&quot;index&quot;:null}" fill="#d4d4d4" stroke="#000000" stroke-width="0.75"/><path d="M97.41576,102.00295v9.31537h-9.31536v-9.31536z" data-paper-data="{&quot;index&quot;:null}" fill="#d4d4d4" stroke="#000000" stroke-width="0.75"/><path d="M108.3872,91.23854v9.31536h-9.31537v-9.31536z" data-paper-data="{&quot;index&quot;:null}" fill="#d4d4d4" stroke="#000000" stroke-width="0.75"/><path d="M99.01727,90.29388v-9.31537h9.31536v9.31537z" data-paper-data="{&quot;index&quot;:null}" fill="#d4d4d4" stroke="#000000" stroke-width="0.75"/><path d="M86.42538,102.00307v9.31537h-9.31536v-9.31536z" data-paper-data="{&quot;index&quot;:null}" fill="#d4d4d4" stroke="#000000" stroke-width="0.75"/><path d="M51.01018,182.46727v-16.33479h16.33479v16.33479z" fill="#ff0000" stroke="#000000" stroke-width="0"/><path d="M34.75424,198.3602v-16.33478h16.33478v16.33478z" fill="#ff0000" stroke="#000000" stroke-width="0"/><path d="M51.01018,198.22667v-16.33479h16.33479v16.33479z" fill="#d4d4d4" stroke="#000000" stroke-width="0"/><path d="M67.28255,197.9895v16.33479h-16.33479v-16.33479z" data-paper-data="{&quot;index&quot;:null}" fill="#ff0000" stroke="#000000" stroke-width="0"/><path d="M83.53849,181.8671v16.33479h-16.33478v-16.33479z" data-paper-data="{&quot;index&quot;:null}" fill="#ff0000" stroke="#000000" stroke-width="0"/><path d="M75.69543,130.62424c0,0 -2.04197,-5.26343 -0.4212,-6.48484c1.43094,-1.07836 7.44021,-0.61664 7.44021,-0.61664c0,0 0.5494,-3.10892 3.1914,-3.10892c2.2592,0 3.74371,4.95874 3.74371,4.95874c0,0 2.63615,-0.00214 3.2588,0.14221c1.93769,0.44921 3.2079,2.55156 3.2079,5.10946c0,2.52408 -5.18681,5.46906 -5.18681,5.46906c0,0 0.97802,2.56292 0.47197,3.21995c-2.5106,3.25965 -5.18336,1.36412 -7.22558,1.36412c-2.5867,0 -3.18233,-4.91413 -3.18233,-4.91413c0,0 -0.81581,3.79066 -4.78812,0.94298c-4.6743,-3.35091 -0.50993,-6.08199 -0.50993,-6.08199z" fill="#ff0000" stroke="#000000" stroke-width="0"/><path d="M101.77232,134.84427v-10.3733c0,0 0.15587,-1.63024 0.89251,-2.2296c0.95342,-0.77575 2.03572,-0.97294 2.03572,-0.97294h10.46984c0,0 1.44587,-0.03911 2.14647,0.88623c0.67409,0.89033 0.79024,2.27011 0.79024,2.27011v10.23469c0,0 -0.2267,1.51433 -0.79082,2.09752c-0.851,0.87978 -2.14175,0.84624 -2.14175,0.84624h-10.2809c0,0 -1.31114,0.03242 -2.07786,-0.65953c-0.99512,-0.89808 -1.04346,-2.09942 -1.04346,-2.09942z" fill="#ff0000" stroke="#000000" stroke-width="0"/><path d="M50.70295,189.40413c0,-4.47403 3.62691,-8.10093 8.10094,-8.10093c4.47402,0 8.10093,3.62691 8.10093,8.10093c0,4.47403 -3.62691,8.10094 -8.10093,8.10094c-4.47402,0 -8.10094,-3.62691 -8.10094,-8.10094z" fill="#ff0000" stroke="#000000" stroke-width="0"/><g stroke="#000000" stroke-width="0"><path d="M50.27899,140.35825v-16.33479h16.33479v16.33479z" fill="#d4d4d4"/><path d="M50.31269,132.18567c0,-4.47403 3.62691,-8.10093 8.10094,-8.10093c4.47402,0 8.10094,3.62691 8.10094,8.10093c0,4.47403 -3.62691,8.10094 -8.10094,8.10094c-4.47402,0 -8.10094,-3.62691 -8.10094,-8.10094z" fill="#ff0000"/><path d="M50.2646,132.04172v-8.01176h16.28765v8.01176z" fill="#ff0000"/></g><path d="M104.54663,182.70295v-16.33479h16.33479v16.33479z" fill="#ff0000" stroke="#000000" stroke-width="0"/><path d="M88.29068,198.59591v-16.33478h16.33479v16.33478z" fill="#ff0000" stroke="#000000" stroke-width="0"/><path d="M104.54663,198.46235v-16.33479h16.33479v16.33479z" fill="#d4d4d4" stroke="#000000" stroke-width="0"/><path d="M120.81899,198.22521v16.33479h-16.33479v-16.33479z" data-paper-data="{&quot;index&quot;:null}" fill="#ff0000" stroke="#000000" stroke-width="0"/><path d="M137.07494,182.10281v16.33479h-16.33479v-16.33479z" data-paper-data="{&quot;index&quot;:null}" fill="#d4d4d4" stroke="#000000" stroke-width="0"/><path d="M104.23939,189.63982c0,-4.47403 3.62692,-8.10093 8.10094,-8.10093c4.47402,0 8.10093,3.62691 8.10093,8.10093c0,4.47403 -3.62691,8.10094 -8.10093,8.10094c-4.47402,0 -8.10094,-3.62691 -8.10094,-8.10094z" fill="#ff0000" stroke="#000000" stroke-width="0"/><path d="M52.01018,237.96728v-16.33479h16.33479v16.33479z" fill="#d4d4d4" stroke="#000000" stroke-width="0"/><path d="M35.75424,253.8602v-16.33478h16.33478v16.33478z" fill="#ff0000" stroke="#000000" stroke-width="0"/><path d="M52.01018,253.72667v-16.33479h16.33479v16.33479z" fill="#d4d4d4" stroke="#000000" stroke-width="0"/><path d="M68.28255,253.4895v16.33479h-16.33479v-16.33479z" data-paper-data="{&quot;index&quot;:null}" fill="#ff0000" stroke="#000000" stroke-width="0"/><path d="M84.53849,237.36713v16.33479h-16.33478v-16.33479z" data-paper-data="{&quot;index&quot;:null}" fill="#ff0000" stroke="#000000" stroke-width="0"/><path d="M51.70295,244.90413c0,-4.47403 3.62692,-8.10093 8.10094,-8.10093c4.47402,0 8.10093,3.62691 8.10093,8.10093c0,4.47403 -3.62691,8.10094 -8.10093,8.10094c-4.47403,0 -8.10094,-3.62691 -8.10094,-8.10094z" fill="#ff0000" stroke="#000000" stroke-width="0"/><path d="M105.54663,238.20295v-16.33479h16.33479v16.33479z" fill="#d4d4d4" stroke="#000000" stroke-width="0"/><path d="M89.29069,254.09591v-16.33479h16.33479v16.33479z" fill="#ff0000" stroke="#000000" stroke-width="0"/><path d="M105.54663,253.96235v-16.33479h16.33479v16.33479z" fill="#d4d4d4" stroke="#000000" stroke-width="0"/><path d="M121.819,253.72521v16.33479h-16.33479v-16.33479z" data-paper-data="{&quot;index&quot;:null}" fill="#ff0000" stroke="#000000" stroke-width="0"/><path d="M138.07494,237.60281v16.33479h-16.33478v-16.33479z" data-paper-data="{&quot;index&quot;:null}" fill="#d4d4d4" stroke="#000000" stroke-width="0"/><path d="M105.2394,245.13982c0,-4.47403 3.62691,-8.10093 8.10094,-8.10093c4.47402,0 8.10094,3.62691 8.10094,8.10093c0,4.47403 -3.62691,8.10094 -8.10094,8.10094c-4.47402,0 -8.10094,-3.62691 -8.10094,-8.10094z" fill="#ff0000" stroke="#000000" stroke-width="0"/><path d="M160.51018,178.96728v-16.33479h16.33479v16.33479z" fill="#ff0000" stroke="#000000" stroke-width="0"/><path d="M144.25424,194.8602v-16.33478h16.33479v16.33478z" fill="#d4d4d4" stroke="#000000" stroke-width="0"/><path d="M160.51018,194.72667v-16.33479h16.33479v16.33479z" fill="#d4d4d4" stroke="#000000" stroke-width="0"/><path d="M176.78255,194.4895v16.33479h-16.33479v-16.33479z" data-paper-data="{&quot;index&quot;:null}" fill="#ff0000" stroke="#000000" stroke-width="0"/><path d="M193.03849,178.36713v16.33479h-16.33478v-16.33479z" data-paper-data="{&quot;index&quot;:null}" fill="#ff0000" stroke="#000000" stroke-width="0"/><path d="M160.20295,185.90413c0,-4.47403 3.62691,-8.10093 8.10094,-8.10093c4.47402,0 8.10093,3.62691 8.10093,8.10093c0,4.47403 -3.62691,8.10094 -8.10093,8.10094c-4.47402,0 -8.10094,-3.62691 -8.10094,-8.10094z" fill="#ff0000" stroke="#000000" stroke-width="0"/><path d="M214.04663,179.20295v-16.33479h16.33479v16.33479z" fill="#ff0000" stroke="#000000" stroke-width="0"/><path d="M197.79069,195.09591v-16.33479h16.33479v16.33479z" fill="#d4d4d4" stroke="#000000" stroke-width="0"/><path d="M214.04663,194.96235v-16.33479h16.33479v16.33479z" fill="#d4d4d4" stroke="#000000" stroke-width="0"/><path d="M230.319,194.72521v16.33479h-16.33479v-16.33479z" data-paper-data="{&quot;index&quot;:null}" fill="#ff0000" stroke="#000000" stroke-width="0"/><path d="M246.57494,178.60281v16.33479h-16.33478v-16.33479z" data-paper-data="{&quot;index&quot;:null}" fill="#d4d4d4" stroke="#000000" stroke-width="0"/><path d="M213.7394,186.13982c0,-4.47403 3.62691,-8.10093 8.10094,-8.10093c4.47402,0 8.10093,3.62691 8.10093,8.10093c0,4.47403 -3.62691,8.10094 -8.10093,8.10094c-4.47402,0 -8.10094,-3.62691 -8.10094,-8.10094z" fill="#ff0000" stroke="#000000" stroke-width="0"/><path d="M161.51018,234.46728v-16.33479h16.33479v16.33479z" fill="#d4d4d4" stroke="#000000" stroke-width="0"/><path d="M145.25424,250.3602v-16.33478h16.33479v16.33478z" fill="#d4d4d4" stroke="#000000" stroke-width="0"/><path d="M161.51018,250.22667v-16.33479h16.33479v16.33479z" fill="#d4d4d4" stroke="#000000" stroke-width="0"/><path d="M177.78255,249.9895v16.33479h-16.33479v-16.33479z" data-paper-data="{&quot;index&quot;:null}" fill="#ff0000" stroke="#000000" stroke-width="0"/><path d="M194.03849,233.86713v16.33479h-16.33478v-16.33479z" data-paper-data="{&quot;index&quot;:null}" fill="#ff0000" stroke="#000000" stroke-width="0"/><path d="M161.20295,241.40413c0,-4.47403 3.62691,-8.10093 8.10094,-8.10093c4.47403,0 8.10093,3.62691 8.10093,8.10093c0,4.47403 -3.62691,8.10094 -8.10093,8.10094c-4.47402,0 -8.10094,-3.62691 -8.10094,-8.10094z" fill="#ff0000" stroke="#000000" stroke-width="0"/><path d="M215.04663,234.70295v-16.33479h16.33479v16.33479z" fill="#d4d4d4" stroke="#000000" stroke-width="0"/><path d="M198.79069,250.59591v-16.33479h16.33479v16.33479z" fill="#d4d4d4" stroke="#000000" stroke-width="0"/><path d="M215.04663,250.46235v-16.33479h16.33479v16.33479z" fill="#d4d4d4" stroke="#000000" stroke-width="0"/><path d="M231.319,250.22521v16.33479h-16.33479v-16.33479z" data-paper-data="{&quot;index&quot;:null}" fill="#ff0000" stroke="#000000" stroke-width="0"/><path d="M247.57494,234.10281v16.33479h-16.33478v-16.33479z" data-paper-data="{&quot;index&quot;:null}" fill="#d4d4d4" stroke="#000000" stroke-width="0"/><path d="M214.7394,241.63982c0,-4.47403 3.62691,-8.10093 8.10094,-8.10093c4.47402,0 8.10093,3.62691 8.10093,8.10093c0,4.47403 -3.62691,8.10094 -8.10093,8.10094c-4.47402,0 -8.10094,-3.62691 -8.10094,-8.10094z" fill="#ff0000" stroke="#000000" stroke-width="0"/><path d="M273.51018,179.96728v-16.33479h16.33479v16.33479z" fill="#ff0000" stroke="#000000" stroke-width="0"/><path d="M257.25424,195.8602v-16.33478h16.33479v16.33478z" fill="#ff0000" stroke="#000000" stroke-width="0"/><path d="M273.51018,195.72667v-16.33479h16.33479v16.33479z" fill="#d4d4d4" stroke="#000000" stroke-width="0"/><path d="M289.78255,195.4895v16.33479h-16.33479v-16.33479z" data-paper-data="{&quot;index&quot;:null}" fill="#d4d4d4" stroke="#000000" stroke-width="0"/><path d="M306.03849,179.36713v16.33479h-16.33479v-16.33479z" data-paper-data="{&quot;index&quot;:null}" fill="#ff0000" stroke="#000000" stroke-width="0"/><path d="M273.20295,186.90413c0,-4.47403 3.62691,-8.10093 8.10094,-8.10093c4.47402,0 8.10093,3.62691 8.10093,8.10093c0,4.47403 -3.62691,8.10094 -8.10093,8.10094c-4.47403,0 -8.10094,-3.62691 -8.10094,-8.10094z" fill="#ff0000" stroke="#000000" stroke-width="0"/><path d="M327.04663,180.20295v-16.33479h16.33479v16.33479z" fill="#ff0000" stroke="#000000" stroke-width="0"/><path d="M310.79069,196.09591v-16.33479h16.33479v16.33479z" fill="#ff0000" stroke="#000000" stroke-width="0"/><path d="M327.04663,195.96235v-16.33479h16.33479v16.33479z" fill="#d4d4d4" stroke="#000000" stroke-width="0"/><path d="M343.319,195.72521v16.33479h-16.33479v-16.33479z" data-paper-data="{&quot;index&quot;:null}" fill="#d4d4d4" stroke="#000000" stroke-width="0"/><path d="M359.57494,179.60281v16.33479h-16.33478v-16.33479z" data-paper-data="{&quot;index&quot;:null}" fill="#d4d4d4" stroke="#000000" stroke-width="0"/><path d="M326.7394,187.13982c0,-4.47403 3.62691,-8.10093 8.10094,-8.10093c4.47402,0 8.10094,3.62691 8.10094,8.10093c0,4.47403 -3.62691,8.10094 -8.10094,8.10094c-4.47402,0 -8.10094,-3.62691 -8.10094,-8.10094z" fill="#ff0000" stroke="#000000" stroke-width="0"/><path d="M274.51018,235.46728v-16.33479h16.33479v16.33479z" fill="#d4d4d4" stroke="#000000" stroke-width="0"/><path d="M258.25424,251.3602v-16.33478h16.33479v16.33478z" fill="#ff0000" stroke="#000000" stroke-width="0"/><path d="M274.51018,251.22667v-16.33479h16.33479v16.33479z" fill="#d4d4d4" stroke="#000000" stroke-width="0"/><path d="M290.78255,250.9895v16.33479h-16.33479v-16.33479z" data-paper-data="{&quot;index&quot;:null}" fill="#d4d4d4" stroke="#000000" stroke-width="0"/><path d="M307.03849,234.86713v16.33479h-16.33479v-16.33479z" data-paper-data="{&quot;index&quot;:null}" fill="#ff0000" stroke="#000000" stroke-width="0"/><path d="M274.20295,242.40413c0,-4.47403 3.62691,-8.10093 8.10094,-8.10093c4.47402,0 8.10093,3.62691 8.10093,8.10093c0,4.47403 -3.62691,8.10094 -8.10093,8.10094c-4.47403,0 -8.10094,-3.62691 -8.10094,-8.10094z" fill="#ff0000" stroke="#000000" stroke-width="0"/><path d="M328.04663,235.70295v-16.33479h16.33479v16.33479z" fill="#d4d4d4" stroke="#000000" stroke-width="0"/><path d="M311.79069,251.59591v-16.33479h16.33479v16.33479z" fill="#ff0000" stroke="#000000" stroke-width="0"/><path d="M328.04663,251.46235v-16.33479h16.33479v16.33479z" fill="#d4d4d4" stroke="#000000" stroke-width="0"/><path d="M344.319,251.22521v16.33479h-16.33479v-16.33479z" data-paper-data="{&quot;index&quot;:null}" fill="#d4d4d4" stroke="#000000" stroke-width="0"/><path d="M360.57494,235.10281v16.33479h-16.33478v-16.33479z" data-paper-data="{&quot;index&quot;:null}" fill="#d4d4d4" stroke="#000000" stroke-width="0"/><path d="M327.7394,242.63982c0,-4.47403 3.62691,-8.10093 8.10094,-8.10093c4.47402,0 8.10094,3.62691 8.10094,8.10093c0,4.47403 -3.62691,8.10094 -8.10094,8.10094c-4.47402,0 -8.10094,-3.62691 -8.10094,-8.10094z" fill="#ff0000" stroke="#000000" stroke-width="0"/><path d="M383.01018,176.46728v-16.33479h16.33479v16.33479z" fill="#ff0000" stroke="#000000" stroke-width="0"/><path d="M366.75424,192.3602v-16.33478h16.33479v16.33478z" fill="#d4d4d4" stroke="#000000" stroke-width="0"/><path d="M383.01018,192.22667v-16.33479h16.33479v16.33479z" fill="#d4d4d4" stroke="#000000" stroke-width="0"/><path d="M399.28255,191.9895v16.33479h-16.33479v-16.33479z" data-paper-data="{&quot;index&quot;:null}" fill="#d4d4d4" stroke="#000000" stroke-width="0"/><path d="M415.53849,175.86713v16.33479h-16.33479v-16.33479z" data-paper-data="{&quot;index&quot;:null}" fill="#ff0000" stroke="#000000" stroke-width="0"/><path d="M382.70295,183.40413c0,-4.47403 3.62691,-8.10093 8.10094,-8.10093c4.47402,0 8.10093,3.62691 8.10093,8.10093c0,4.47403 -3.62691,8.10094 -8.10093,8.10094c-4.47403,0 -8.10094,-3.62691 -8.10094,-8.10094z" fill="#ff0000" stroke="#000000" stroke-width="0"/><path d="M436.54663,176.70295v-16.33479h16.33479v16.33479z" fill="#ff0000" stroke="#000000" stroke-width="0"/><path d="M420.29069,192.59591v-16.33479h16.33479v16.33479z" fill="#d4d4d4" stroke="#000000" stroke-width="0"/><path d="M436.54663,192.46235v-16.33479h16.33479v16.33479z" fill="#d4d4d4" stroke="#000000" stroke-width="0"/><path d="M452.819,192.22521v16.33479h-16.33479v-16.33479z" data-paper-data="{&quot;index&quot;:null}" fill="#d4d4d4" stroke="#000000" stroke-width="0"/><path d="M469.07494,176.10281v16.33479h-16.33479v-16.33479z" data-paper-data="{&quot;index&quot;:null}" fill="#d4d4d4" stroke="#000000" stroke-width="0"/><path d="M436.2394,183.63982c0,-4.47403 3.62691,-8.10093 8.10094,-8.10093c4.47403,0 8.10094,3.62691 8.10094,8.10093c0,4.47403 -3.62691,8.10094 -8.10094,8.10094c-4.47402,0 -8.10094,-3.62691 -8.10094,-8.10094z" fill="#ff0000" stroke="#000000" stroke-width="0"/><path d="M384.01018,231.96728v-16.33479h16.33479v16.33479z" fill="#d4d4d4" stroke="#000000" stroke-width="0"/><path d="M367.75424,247.8602v-16.33478h16.33479v16.33478z" fill="#d4d4d4" stroke="#000000" stroke-width="0"/><path d="M384.01018,247.72667v-16.33479h16.33479v16.33479z" fill="#d4d4d4" stroke="#000000" stroke-width="0"/><path d="M400.28255,247.4895v16.33479h-16.33479v-16.33479z" data-paper-data="{&quot;index&quot;:null}" fill="#d4d4d4" stroke="#000000" stroke-width="0"/><path d="M416.53849,231.36713v16.33479h-16.33479v-16.33479z" data-paper-data="{&quot;index&quot;:null}" fill="#ff0000" stroke="#000000" stroke-width="0"/><path d="M383.70295,238.90413c0,-4.47403 3.62691,-8.10093 8.10094,-8.10093c4.47402,0 8.10093,3.62691 8.10093,8.10093c0,4.47403 -3.62691,8.10094 -8.10093,8.10094c-4.47403,0 -8.10094,-3.62691 -8.10094,-8.10094z" fill="#ff0000" stroke="#000000" stroke-width="0"/><path d="M437.54663,232.20295v-16.33479h16.33479v16.33479z" fill="#d4d4d4" stroke="#000000" stroke-width="0"/><path d="M421.29069,248.09591v-16.33479h16.33479v16.33479z" fill="#d4d4d4" stroke="#000000" stroke-width="0"/><path d="M437.54663,247.96235v-16.33479h16.33479v16.33479z" fill="#d4d4d4" stroke="#000000" stroke-width="0"/><path d="M453.819,247.72521v16.33479h-16.33479v-16.33479z" data-paper-data="{&quot;index&quot;:null}" fill="#d4d4d4" stroke="#000000" stroke-width="0"/><path d="M470.07494,231.60281v16.33479h-16.33479v-16.33479z" data-paper-data="{&quot;index&quot;:null}" fill="#d4d4d4" stroke="#000000" stroke-width="0"/><path d="M437.2394,239.13982c0,-4.47403 3.62691,-8.10093 8.10094,-8.10093c4.47403,0 8.10094,3.62691 8.10094,8.10093c0,4.47403 -3.62691,8.10094 -8.10094,8.10094c-4.47402,0 -8.10094,-3.62691 -8.10094,-8.10094z" fill="#ff0000" stroke="#000000" stroke-width="0"/><path d="M312.07494,186.35832c0,20.29646 -64.69486,36.75 -144.5,36.75c-79.80514,0 -144.5,-16.45354 -144.5,-36.75c0,-20.29646 64.69486,-36.75 144.5,-36.75c79.80514,0 144.5,16.45354 144.5,36.75z" fill="none" stroke="#000000" stroke-width="1"/><path d="M58.82494,282.60834c-16.70661,0 -30.25,-14.7746 -30.25,-33c0,-18.2254 13.54339,-33 30.25,-33c16.70661,0 30.25,14.7746 30.25,33c0,18.2254 -13.54339,33 -30.25,33z" fill="none" stroke="#000000" stroke-width="1"/><path d="M282.82494,277.60832c-16.70661,0 -30.25,-14.7746 -30.25,-33c0,-18.2254 13.54339,-33 30.25,-33c16.70661,0 30.25,14.7746 30.25,33c0,18.2254 -13.54339,33 -30.25,33z" fill="none" stroke="#000000" stroke-width="1"/></g></g></svg>