<svg version="1.1" xmlns="http://www.w3.org/2000/svg" xmlns:xlink="http://www.w3.org/1999/xlink" width="635.36519" height="96.0961" viewBox="0,0,635.36519,96.0961"><defs><linearGradient x1="239.87286" y1="302.8085" x2="239.87286" y2="352.19148" gradientUnits="userSpaceOnUse" id="color-1"><stop offset="0" stop-color="#ff0000"/><stop offset="1" stop-color="#b30000"/></linearGradient><linearGradient x1="239.87286" y1="302.8085" x2="239.87286" y2="352.19148" gradientUnits="userSpaceOnUse" id="color-2"><stop offset="0" stop-color="#ff0000"/><stop offset="1" stop-color="#ff0000" stop-opacity="0"/></linearGradient><linearGradient x1="240.03919" y1="303.14185" x2="240.03919" y2="333.59734" gradientUnits="userSpaceOnUse" id="color-3"><stop offset="0" stop-color="#ff5f5f"/><stop offset="1" stop-color="#ff0000"/></linearGradient></defs><g transform="translate(77.80974,-267.08708)"><g data-paper-data="{&quot;isPaintingLayer&quot;:true}" fill-rule="nonzero" stroke="#000000" stroke-width="0" stroke-linecap="butt" stroke-linejoin="miter" stroke-miterlimit="10" stroke-dasharray="" stroke-dashoffset="0" style="mix-blend-mode: normal"><path d="M-77.80974,363.18318v-96.0961h635.36519v96.0961z" fill="none"/><path d="M-0.14683,352.19148c0,0 -1.33067,-6.36035 -1.33067,-13.5083c0,-3.74144 0.66534,-8.18268 0.66534,-11c0,-3.3905 2.66134,-7.52146 2.66134,-12c0,-6.43321 -1.99601,-12.87468 -1.99601,-12.87468h480.37204c0,0 0,16.61388 0,24.87468c0,3.32154 -1.66334,7.64032 -1.66334,12c0,6.40286 1.33067,12.5083 1.33067,12.5083z" data-paper-data="{&quot;index&quot;:null}" fill="url(#color-1)"/><path d="M-0.14683,352.19148c0,0 -0.998,-7.58024 -0.998,-11.5083c0,-4.12101 0.33267,-12.66667 0.33267,-12.66667c0,0 2.32868,-9.06809 2.32868,-13.33333c0,-4.13328 -1.66334,-11.87468 -1.66334,-11.87468h480.37204c0,0 0,16.61388 0,24.87468c0,3.32154 -2.32868,8.30699 -2.32868,12.66667c0,6.40286 1.99601,11.84163 1.99601,11.84163z" data-paper-data="{&quot;index&quot;:null}" fill="url(#color-2)"/><path d="M446.27812,332.35816c-8.61924,0 -33.50344,-7.20571 -52.24294,-7.3177c-16.22197,-0.09694 -37.04402,8.5254 -58.03306,8.55674c-22.9644,0.03429 -46.72923,-6.10244 -72.5275,-6.19097c-13.20673,-0.04532 -34.89134,5.41667 -48.23376,5.41256c-22.85652,-0.00705 -44.76125,-7.70003 -66.19349,-7.85563c-14.37916,-0.1044 -27.9437,6.32616 -41.09134,6.39717c-15.69084,0.08474 -42.12379,-6.02231 -55.22456,-6.08431c-39.01079,-0.18462 -53.3773,3.26429 -53.3773,3.26429c0,0 1.99601,-8.32036 1.99601,-12.5238c0,-4.26191 -1.33067,-12.87465 -1.33067,-12.87465h480.03937c0,0 1.33067,8.15838 1.33067,12.20799c0,4.24103 -1.33067,12.69046 -1.33067,12.69046c0,0 -25.16152,4.31785 -33.78076,4.31785z" data-paper-data="{&quot;index&quot;:null}" fill="url(#color-3)"/></g></g></svg>