<svg version="1.1" xmlns="http://www.w3.org/2000/svg" xmlns:xlink="http://www.w3.org/1999/xlink" width="37.6" height="43.6" viewBox="0,0,37.6,43.6"><g transform="translate(-221.20007,-158.2)"><g data-paper-data="{&quot;isPaintingLayer&quot;:true}" fill-rule="nonzero" stroke="none" stroke-linecap="butt" stroke-linejoin="miter" stroke-miterlimit="10" stroke-dasharray="" stroke-dashoffset="0" style="mix-blend-mode: normal"><path d="M221.20008,201.8v-43.6h37.6v43.6z" fill="none" stroke-width="0"/><path d="M231.13225,191.55108v-25.64193c0,-0.98962 0.27112,-1.78945 0.81337,-2.3995c0.55581,-0.62359 1.28108,-0.93539 2.17581,-0.93539c0.58292,0 1.09807,0.14234 1.54544,0.42703c0.4609,0.27112 0.82014,0.66425 1.07772,1.17939c0.25758,0.50159 0.38637,1.07775 0.38637,1.72846v13.99021l6.56808,-6.36473c0.92184,-0.86762 1.83012,-1.30143 2.72483,-1.30143c0.7185,0 1.32176,0.27791 1.80979,0.83374c0.48803,0.55581 0.73204,1.1794 0.73204,1.87077c0,0.86761 -0.39314,1.66066 -1.17942,2.37916l-5.32768,4.75829l7.03579,8.23553c0.50158,0.56936 0.75236,1.23362 0.75236,1.99279c0,0.79982 -0.27791,1.47764 -0.83372,2.03345c-0.54225,0.54226 -1.20651,0.8134 -1.99279,0.8134c-0.51514,0 -0.98961,-0.14912 -1.42342,-0.44737c-0.43379,-0.28469 -0.92182,-0.75238 -1.46409,-1.40308l-7.32046,-9.02858h-0.08123v7.2798c0,0.65072 -0.12879,1.23364 -0.38637,1.74878c-0.25758,0.50159 -0.61682,0.89472 -1.07772,1.17939c-0.46092,0.27114 -0.97607,0.40671 -1.54544,0.40671c-0.89473,0 -1.62,-0.30502 -2.17581,-0.91507c-0.54225,-0.62359 -0.81337,-1.4302 -0.81337,-2.41982z" fill="#ff0000" stroke-width="0.40889"/></g></g></svg>