<svg version="1.1" xmlns="http://www.w3.org/2000/svg" xmlns:xlink="http://www.w3.org/1999/xlink" width="448.34624" height="433.88961" viewBox="0,0,448.34624,433.88961"><defs><linearGradient x1="305.70451" y1="107.05125" x2="305.70451" y2="257.70823" gradientUnits="userSpaceOnUse" id="color-1"><stop offset="0" stop-color="#ff4a68"/><stop offset="1" stop-color="#af0037"/></linearGradient><linearGradient x1="352.81209" y1="178.71651" x2="352.81209" y2="381.75811" gradientUnits="userSpaceOnUse" id="color-2"><stop offset="0" stop-color="#ff4a68"/><stop offset="1" stop-color="#b10023"/></linearGradient><linearGradient x1="297.4037" y1="107.05125" x2="297.4037" y2="248.08606" gradientUnits="userSpaceOnUse" id="color-3"><stop offset="0" stop-color="#ffccd5"/><stop offset="1" stop-color="#ff8195"/></linearGradient><linearGradient x1="354.32648" y1="180.71651" x2="354.32648" y2="383.03973" gradientUnits="userSpaceOnUse" id="color-4"><stop offset="0" stop-color="#ff788e"/><stop offset="1" stop-color="#ff4a68"/></linearGradient><linearGradient x1="387.42972" y1="178.7165" x2="387.42972" y2="381.03973" gradientUnits="userSpaceOnUse" id="color-5"><stop offset="0" stop-color="#ff4a68"/><stop offset="1" stop-color="#ff002b"/></linearGradient><linearGradient x1="327.6135" y1="254.2869" x2="327.6135" y2="395.21307" gradientUnits="userSpaceOnUse" id="color-6"><stop offset="0" stop-color="#ffccd5"/><stop offset="1" stop-color="#ff8195"/></linearGradient><linearGradient x1="329.8596" y1="198.6446" x2="329.8596" y2="244.29836" gradientUnits="userSpaceOnUse" id="color-7"><stop offset="0" stop-color="#ffccd5"/><stop offset="1" stop-color="#ff8195"/></linearGradient><linearGradient x1="406.16835" y1="73.62305" x2="406.16835" y2="208.58703" gradientUnits="userSpaceOnUse" id="color-8"><stop offset="0" stop-color="#ff4a68"/><stop offset="1" stop-color="#da002c"/></linearGradient><linearGradient x1="405.7055" y1="75.37305" x2="405.7055" y2="205.83703" gradientUnits="userSpaceOnUse" id="color-9"><stop offset="0" stop-color="#ff788e"/><stop offset="1" stop-color="#ff4a68"/></linearGradient><linearGradient x1="372.80618" y1="75.44104" x2="372.80618" y2="179.72027" gradientUnits="userSpaceOnUse" id="color-10"><stop offset="0" stop-color="#ffccd5"/><stop offset="1" stop-color="#ff8195"/></linearGradient><linearGradient x1="429.23255" y1="77.23954" x2="429.23255" y2="205.83703" gradientUnits="userSpaceOnUse" id="color-11"><stop offset="0" stop-color="#ff4a68"/><stop offset="1" stop-color="#ff002b"/></linearGradient><linearGradient x1="397.919" y1="169.39139" x2="397.919" y2="204.85059" gradientUnits="userSpaceOnUse" id="color-12"><stop offset="0" stop-color="#000000"/><stop offset="1" stop-color="#000000"/></linearGradient><linearGradient x1="450.77364" y1="79.22804" x2="450.77364" y2="317.39499" gradientUnits="userSpaceOnUse" id="color-13"><stop offset="0" stop-color="#fe4967"/><stop offset="1" stop-color="#b70025"/></linearGradient><linearGradient x1="450.87483" y1="78.72804" x2="450.87483" y2="314.93084" gradientUnits="userSpaceOnUse" id="color-14"><stop offset="0" stop-color="#ff4a68"/><stop offset="1" stop-color="#af0037"/></linearGradient><linearGradient x1="408.4637" y1="172.88833" x2="408.4637" y2="203.45821" gradientUnits="userSpaceOnUse" id="color-15"><stop offset="0" stop-color="#b90025"/><stop offset="1" stop-color="#ff788e"/></linearGradient><linearGradient x1="333.53888" y1="123.53882" x2="333.53888" y2="381.35617" gradientUnits="userSpaceOnUse" id="color-16"><stop offset="0" stop-color="#7e7e7e"/><stop offset="1" stop-color="#000000"/></linearGradient><linearGradient x1="333.44423" y1="125.55397" x2="333.44423" y2="378.00533" gradientUnits="userSpaceOnUse" id="color-17"><stop offset="0" stop-color="#acacac"/><stop offset="1" stop-color="#6d6d6d"/></linearGradient><linearGradient x1="270.05688" y1="231.57908" x2="270.05688" y2="276.92762" gradientUnits="userSpaceOnUse" id="color-18"><stop offset="0" stop-color="#ffccd5"/><stop offset="1" stop-color="#ff8195"/></linearGradient><linearGradient x1="210.27721" y1="114.80157" x2="210.27721" y2="263.74042" gradientUnits="userSpaceOnUse" id="color-19"><stop offset="0" stop-color="#ff788e"/><stop offset="1" stop-color="#c20027"/></linearGradient><linearGradient x1="210.64751" y1="116.36701" x2="210.64751" y2="261.6445" gradientUnits="userSpaceOnUse" id="color-20"><stop offset="0" stop-color="#ff788e"/><stop offset="1" stop-color="#ff4a68"/></linearGradient><linearGradient x1="214.40792" y1="131.18073" x2="214.40792" y2="258.71402" gradientUnits="userSpaceOnUse" id="color-21"><stop offset="0" stop-color="#ff4a68"/><stop offset="1" stop-color="#e80027"/></linearGradient><linearGradient x1="382.105" y1="308.69687" x2="382.105" y2="327.77122" gradientUnits="userSpaceOnUse" id="color-22"><stop offset="0" stop-color="#ffccd5"/><stop offset="1" stop-color="#ff8195"/></linearGradient><linearGradient x1="204.27046" y1="117.04555" x2="204.27046" y2="196.34099" gradientUnits="userSpaceOnUse" id="color-23"><stop offset="0" stop-color="#ffccd5"/><stop offset="1" stop-color="#ffccd5" stop-opacity="0"/></linearGradient><radialGradient cx="379.88282" cy="27.2847" r="189.93994" gradientUnits="userSpaceOnUse" id="color-24"><stop offset="0" stop-color="#ffffff" stop-opacity="0.63922"/><stop offset="1" stop-color="#ffffff" stop-opacity="0"/></radialGradient><radialGradient cx="387.39644" cy="28.2847" r="125.50742" gradientUnits="userSpaceOnUse" id="color-25"><stop offset="0" stop-color="#ffffff" stop-opacity="0.61569"/><stop offset="1" stop-color="#ffffff" stop-opacity="0"/></radialGradient><radialGradient cx="389.43484" cy="30.30741" r="40.5" gradientUnits="userSpaceOnUse" id="color-26"><stop offset="0" stop-color="#ffffff" stop-opacity="0.75294"/><stop offset="1" stop-color="#ffffff" stop-opacity="0"/></radialGradient><linearGradient x1="285.91578" y1="25.042" x2="285.91578" y2="198.87383" gradientUnits="userSpaceOnUse" id="color-27"><stop offset="0" stop-color="#ffffff" stop-opacity="0.41961"/><stop offset="1" stop-color="#ffffff" stop-opacity="0"/></linearGradient></defs><g transform="translate(-118.58851,32.09987)"><g data-paper-data="{&quot;isPaintingLayer&quot;:true}" fill-rule="nonzero" stroke-linejoin="miter" stroke-miterlimit="10" stroke-dasharray="" stroke-dashoffset="0" style="mix-blend-mode: normal"><g><g><path d="M237.70551,248.40804c0,0 -1.53402,-55.67674 80.27047,-68.44869c19.90573,-3.10784 25.11784,-23.76863 28.79258,-41.328c3.99716,-19.10004 4.53421,-36.08009 4.53421,-36.08009l22.40266,44.80531c0,0 -6.05684,33.0693 -17.83851,58.46191c-11.4326,24.64027 -28.40914,42.01067 -40.57557,49.37225c-23.12212,13.99055 -77.58583,-6.78269 -77.58583,-6.78269z" fill="#c80028" stroke="none" stroke-width="0" stroke-linecap="butt"/><path d="M240.20547,246.55125c0,0 -1.47221,-52.47368 77.03617,-64.73102c39.88354,-6.22693 32.46383,-74.76898 32.46383,-74.76898l21.5,43c0,0 -5.33294,29.33758 -16.6399,53.70707c-10.97196,23.64745 -27.74431,42.23737 -39.42053,49.30233c-22.19047,13.42684 -74.93956,-6.50939 -74.93956,-6.50939z" fill="url(#color-1)" stroke="none" stroke-width="0" stroke-linecap="butt"/><path d="M391.81764,196.71651l-1.5,-18h44v21.5c0,0 19.26395,7.49304 16.17503,8.36596c-1.38331,0.39092 -2.10691,49.33503 -4.12849,49.82481c-0.1361,0.03297 -8.81768,73.31879 -11.72017,76.32141c-0.21899,0.22654 -0.45778,63.93507 -1.64558,65.42962c-0.58635,0.73777 -45.1729,0.14939 -49.1276,-0.31067c-3.09693,-0.36028 -5.97822,-54.0146 -7.55601,-53.99209c-0.8183,0.01168 -26.53222,49.60616 -28.99805,49.64006c-27.02974,0.37155 -57.30165,-1.90865 -57.8446,-1.96896c-2.00416,-0.22262 45.04349,-70.57076 43.15705,-70.8596c-0.04207,-0.00644 27.72194,-64.1601 27.54444,-64.18174c-0.32719,-0.0399 -18.31348,15.8107 -26.39716,18.2095c-3.25581,0.96614 -12.91049,3.09429 -27.44184,2.72114c-4.11441,-0.10565 -15.37103,0.36855 -23.65646,-1.16269c-10.73788,-1.98447 -18.52417,-6.24993 -20.40506,-8.25831c-3.90002,-4.16438 -7.90331,-10.11203 -7.44037,-16.42536c0.59202,-8.07369 20.56919,-17.39066 20.25571,-17.42798c-1.79201,-0.21334 52.51936,1.48651 52.74399,1.4219c7.63361,-2.19601 38.28804,-35.34622 38.44343,-35.47687c7.71079,-6.48301 25.54176,-5.37013 25.54176,-5.37013z" fill="url(#color-2)" stroke="#000000" stroke-width="0" stroke-linecap="butt"/><path d="M240.70547,246.55125c0,0 -1.47221,-52.47368 77.03617,-64.73102c39.88354,-6.22693 32.46383,-74.76898 32.46383,-74.76898l3.8984,7.7968c-0.18189,5.31105 -1.25633,10.68916 -1.5234,15.96301c-0.54984,10.85781 -2.0974,21.49729 -5.52415,31.85572c-2.32405,7.02521 -8.26015,13.13001 -12.54692,19.0634c-1.80437,2.49747 -2.99689,4.69547 -5.35252,6.85253c-4.72992,4.33119 -11.94158,6.44814 -17.82362,8.60331c-10.7744,3.94772 -22.22501,6.35623 -32.91507,10.6284c-14.55168,5.81543 -26.00983,20.85282 -31.48509,34.92866c-0.65972,1.69602 -1.2869,3.48776 -1.86109,5.34298c-2.76398,-0.92912 -4.36654,-1.5348 -4.36654,-1.5348z" fill="url(#color-3)" stroke="none" stroke-width="0" stroke-linecap="butt"/><path d="M392.81764,198.71651l-1.5,-18h44v21.5c0,0 19.26395,7.49304 16.17503,8.36596c-1.38331,0.39092 -8.60691,47.83503 -10.62849,48.32481c-0.1361,0.03297 -5.31768,72.81879 -8.22017,75.82141c-0.21899,0.22654 -0.45778,65.43507 -1.64558,66.92962c-0.58635,0.73777 -41.6729,-1.85061 -45.6276,-2.31067c-3.09693,-0.36028 -5.97822,-58.5146 -7.55601,-58.49209c-0.8183,0.01168 -31.03222,55.10616 -33.49805,55.14006c-27.02974,0.37155 -53.30165,-0.40865 -53.8446,-0.46896c-2.00416,-0.22262 45.04349,-70.57076 43.15705,-70.8596c-0.04207,-0.00644 31.22194,-71.6601 31.04444,-71.68174c-0.32719,-0.0399 -24.31348,19.3107 -32.39716,21.7095c-6.77993,2.01191 -76.30221,-9.91777 -75.44373,-21.62522c0.59202,-8.07369 19.56919,-14.89066 19.25571,-14.92798c-1.79201,-0.21334 52.51936,1.48651 52.74399,1.4219c7.63361,-2.19601 38.28804,-35.34622 38.44343,-35.47687c7.71079,-6.48301 25.54176,-5.37013 25.54176,-5.37013z" fill="url(#color-4)" stroke="#000000" stroke-width="0" stroke-linecap="butt"/><path d="M435.31764,178.71651l-2,22.83334c0,0 19.59729,7.49304 16.50836,8.36596c-1.38331,0.39092 -6.94024,46.5017 -8.96182,46.99147c-0.1361,0.03297 -5.31768,72.81879 -8.22017,75.82141c-0.21899,0.22654 -0.45778,65.43507 -1.64558,66.92962c-0.58635,0.73777 -41.6729,-1.85061 -45.6276,-2.31067c-2.10562,-0.24496 -4.38042,-37.28886 -5.79678,-48.96824c-0.66681,-5.49856 -1.25419,-9.53105 -1.75923,-9.52384c-0.8183,0.01168 -31.03222,55.10616 -33.49805,55.14006c-9.87876,0.13579 -19.65631,0.11774 -28.11357,0.03722c2.72344,-6.61176 15.26306,-27.65118 18.46468,-34.0251c1.86221,-3.70737 3.37798,-7.54496 5.13293,-11.26198c2.99245,-6.33806 8.89063,-11.41265 14.41036,-15.41036c1.28793,-0.49221 2.67783,-0.77341 3.86379,-1.47665c0.70488,-0.41797 0.94814,-1.416 1.66968,-1.80451c0.54931,-0.29577 1.26117,0.04026 1.86889,-0.1008c1.65856,-0.38497 3.11882,-1.50091 4.80595,-1.73033c1.75205,-0.23825 3.5972,0.19037 5.29602,-0.29996c1.53884,-0.44416 2.67124,-1.80498 4.14769,-2.42577c1.26693,-0.53269 2.73755,-0.45675 4,-1c1.22027,-0.52511 2.15888,-1.56968 3.34798,-2.16199c2.68871,-1.33927 5.56644,-2.41707 7.94638,-4.24974c4.13043,-3.18063 6.76962,-7.19241 8.8989,-11.90659c1.55633,-3.44567 1.71751,-8.0379 3.619,-11.18576c0.9269,-1.53447 2.37896,-2.73541 3.17158,-4.34335c0.73886,-1.49888 0.7266,-3.27758 1.34947,-4.82825c0.83346,-2.07493 2.2575,-3.89081 3,-6c1.05987,-3.0107 1.58501,-6.18373 2.37752,-9.27559c1.64352,-8.19915 4.6585,-16.83177 5.19496,-25.20851c0.52302,-8.16688 0.45596,-16.36102 1.0384,-24.53223c0.23361,-3.27746 -28.57671,-15.19617 -28.42726,-18.43909c0.34758,-7.54144 29.47773,-6.36681 29.43752,-14.01405c-0.01686,-3.20847 0.2135,-6.4325 0.09996,-9.63573z" fill="url(#color-5)" stroke="#000000" stroke-width="0" stroke-linecap="butt"/><path d="M290.97211,395.02665c-2.00416,-0.22262 45.04349,-70.57076 43.15705,-70.8596c-0.03405,-0.00522 22.44889,-51.96572 30.15798,-69.86446c0.58083,-0.80314 -7.45612,29.49331 -8.20639,31.48111c-2.278,6.03546 -3.78833,12.49524 -6.31306,18.43919c-10.34339,24.3514 -32.82739,62.84771 -47.93117,84.54192c-1.50813,2.16618 -3.0445,4.31203 -4.59389,6.44826c-3.82542,-0.09204 -6.11422,-0.16906 -6.27053,-0.18642z" fill="url(#color-6)" stroke="#000000" stroke-width="0" stroke-linecap="butt"/><path d="M276.42172,238.14161c-1.79201,-0.21334 52.51935,1.48651 52.74399,1.4219c7.63361,-2.19601 38.28805,-35.34622 38.44343,-35.47687c5.62421,-4.72868 16.63254,-5.41621 22.17851,-5.44204c-17.16259,11.96424 -32.10597,27.17127 -47.59769,41.06415c-1.89459,1.69905 -5.30782,1.29101 -7.60608,2.06928c-4.18858,1.41839 -10.63085,3.02711 -15.08035,2.36809c-2.19195,-0.32465 -5.31617,-1.28583 -7.51787,-1.21545c-5.10777,0.16327 -10.19993,-1.1909 -15.30975,-1.45121c-8.98892,-0.45792 -17.79607,0.41387 -26.7444,-0.38316c3.64465,-1.83642 6.61582,-2.93973 6.49022,-2.95469z" fill="url(#color-7)" stroke="#000000" stroke-width="0" stroke-linecap="butt"/><path d="M475.31949,141.10503c0,37.26927 -30.96002,67.48199 -69.15114,67.48199c-38.19112,0 -69.15115,-30.21271 -69.15115,-67.48199c0,-22.72162 11.50743,-42.82042 29.14524,-55.04914c0.37893,-0.26272 -6.08864,-6.52207 -5.6772,-6.70534c8.73774,-3.89211 35.45089,-5.7275 45.68311,-5.7275c38.19112,0 69.15114,30.21271 69.15114,67.48198z" fill="url(#color-8)" stroke="none" stroke-width="0" stroke-linecap="butt"/><path d="M472.55097,140.60503c0,36.02663 -29.92774,65.23199 -66.84548,65.23199c-36.91774,0 -66.84549,-29.20535 -66.84549,-65.23199c0,-22.82353 12.01137,-42.90938 30.20197,-54.56616c0.87709,-0.56206 -7.33999,-6.0396 -6.32627,-6.29341c12.28803,-3.07652 30.56783,-4.37241 42.9698,-4.37241c36.91774,0 66.84549,29.20535 66.84549,65.23198z" fill="url(#color-9)" stroke="none" stroke-width="0" stroke-linecap="butt"/><path d="M338.85997,140.60503c0,-22.82353 12.01137,-42.90938 30.20197,-54.56616c0.87709,-0.56206 -7.33999,-6.0396 -6.32627,-6.29341c4.37261,-1.09477 13.78648,-3.46405 23.13023,-4.1297c8.14326,-0.58013 16.23326,0.49441 20.88649,0.20914c-3.31134,2.16176 -21.07697,12.45607 -24.21892,14.65584c-17.04763,11.93552 -32.67713,23.35154 -35.86528,44.49887c-2.24346,14.88112 0.11844,30.36951 5.53755,44.74065c-8.38048,-10.89825 -13.34576,-24.44089 -13.34576,-39.11523z" fill="url(#color-10)" stroke="none" stroke-width="0" stroke-linecap="butt"/><path d="M472.55097,140.60503c0,36.02663 -29.92774,65.23199 -66.84548,65.23199c-6.89033,0 -13.53717,-1.01735 -19.79138,-2.90653c8.00446,-5.40914 15.19893,-11.82494 22.60992,-18.59561c5.63535,-5.14846 10.75873,-10.53206 14.67303,-17.21716c14.96021,-25.55004 16.32255,-54.24151 3.7027,-80.82857c-1.5189,-3.19997 -3.28341,-6.20598 -5.2529,-9.04962c29.22081,6.97675 50.90412,32.70003 50.90412,63.3655z" fill="url(#color-11)" stroke="none" stroke-width="0" stroke-linecap="butt"/><path d="M363.09349,175.33495c0,0 5.97234,-0.68651 9.07437,-0.72399c0.26121,-0.00315 3.87629,4.04654 3.96004,4.04498c0.34688,-0.00647 0.93246,-4.49009 1.1245,-4.49408c10.18642,-0.2119 20.83641,-0.18304 27.29536,-1.23044c0.69528,-0.11275 3.69223,4.59233 4.10611,4.52521c0.21948,-0.03559 3.52103,-5.74852 3.74847,-5.78541c4.40532,-0.71437 12.698,-2.01734 12.698,-2.01734c0,0 19.26265,32.81971 -21.74121,33.23342c-25.90235,-0.31344 -40.26565,-27.55233 -40.26565,-27.55233z" fill="url(#color-12)" stroke="none" stroke-width="0" stroke-linecap="butt"/><path d="M439.7935,132.16376l-61,8.33334l-35,-17.33334" fill="none" stroke="#ff4a68" stroke-width="5.5" stroke-linecap="round"/><path d="M347.12684,158.83041l-2.66667,-35.66667l34,18c0,0 54.09514,-7.80841 54.07516,-7.59668c-0.16238,1.72128 -8.45706,34.99852 -9.475,35.44508c-1.83614,0.80549 -37.95418,-8.38823 -38.07652,-8.36771c-1.52178,0.25528 -2.8538,-16.85706 -3.94432,-16.6773c-2.04951,0.33783 -4.91265,-0.47006 -4.91265,-0.47006c0,0 -8.84887,15.78437 -9.17433,15.92244c-0.52783,0.22393 -19.82567,-0.5891 -19.82567,-0.5891z" fill="#000000" stroke="none" stroke-width="0" stroke-linecap="butt"/><path d="M387.12684,154.83041v-7.33334l12.33333,-1.66666l-2.66666,13.66666z" fill="#ffffff" stroke="none" stroke-width="0" stroke-linecap="butt"/><path d="M348.7935,156.16376l-0.08334,-25.33333l14.41667,9.33333l-3.33334,15.33334z" fill="#ffffff" stroke="none" stroke-width="0" stroke-linecap="butt"/><path d="M364.59349,177.88479c0,0 2.91259,0.00182 7.21789,-0.05021c0.31051,-0.00375 4.50348,4.13188 4.78216,4.12668c0.30381,-0.00567 1.25462,-4.22458 1.42281,-4.22808c8.92175,-0.18559 20.0012,-0.59824 25.65826,-1.5156c0.60896,-0.09875 5.56942,5.044 5.93192,4.98521c0.19223,-0.03117 3.37583,-6.49457 3.57504,-6.52688c3.85839,-0.62568 10.24566,-1.62091 10.24566,-1.62091c0,0 17.30906,30.20479 -18.60405,30.56714c-24.87612,0.30937 -40.22969,-25.73734 -40.22969,-25.73734z" fill="#8a001c" stroke="none" stroke-width="0" stroke-linecap="butt"/><path d="M377.19962,340.08824c0,0 -16.19993,-28.49665 -13.41237,-27.93465c3.06545,0.61802 33.06813,-12.25439 34.79594,-12.76341c3.3118,-0.97568 41.61644,-76.30194 41.61644,-76.30194l13.5,71.5c0,0 -44.56661,56.35826 -51.55409,58.19571c-1.20288,0.31631 -24.94591,-12.69571 -24.94591,-12.69571z" fill="#cf183b" stroke="#000000" stroke-width="0" stroke-linecap="butt"/><path d="M378.19962,335.08824c0,0 -14.19993,-22.49665 -11.41237,-21.93465c3.06545,0.61802 32.56813,-12.75439 34.29594,-13.26341c3.3118,-0.97568 44.11644,-81.30194 44.11644,-81.30194l11,71.5c0,0 -46.06661,55.85826 -53.05409,57.69571c-1.20288,0.31631 -24.94591,-12.69571 -24.94591,-12.69571z" fill="#ff788e" stroke="#000000" stroke-width="0" stroke-linecap="butt"/><path d="M413.42166,278.29562c5.63633,-29.81532 22.75069,-65.2161 39.82454,-103.11442c6.4833,-14.3908 3.74504,-30.90286 3.86342,-38.9641c0.36212,-24.65853 -16.64061,-50.02023 -16.64061,-50.02023l-11.7249,-6.96883c0,0 25.98431,2.58791 39.86221,30.96463c0.0874,0.1787 5.98445,12.99226 9.47497,34.95837c4.38909,27.62086 6.91021,69.32568 11.14931,114.20689c4.53599,48.02463 -69.1568,58.03706 -69.1568,58.03706c0,0 -11.81628,-11.78185 -6.65214,-39.09937z" fill="url(#color-13)" stroke="none" stroke-width="0" stroke-linecap="butt"/><path d="M421.87127,314.93083c0,0 -28.22029,-10.41304 24.37374,-118.39437c2.75687,-5.66015 8.1079,-17.52416 11.8963,-30.55321c1.16823,-4.01777 1.12168,-18.27947 -3.29003,-31.12564c-7.99562,-23.28191 -23.47532,-48.76824 -23.47532,-48.76824l-4.25045,-7.36132c0,0 13.00578,2.41644 25.25801,13.4199c5.93885,5.33355 15.05436,19.02866 15.67938,19.33057c0.59762,0.28868 5.33871,12.7757 8.09567,31.3208c3.95747,26.62049 6.65464,67.13769 11.07559,113.94425c4.4707,47.33337 -65.36287,58.18728 -65.36287,58.18728z" fill="url(#color-14)" stroke="none" stroke-width="0" stroke-linecap="butt"/><path d="M421.87127,314.93083c0,0 -28.22029,-10.41304 24.37374,-118.39437c1.12817,-2.31626 2.69077,-5.67145 4.40294,-9.72024c-0.52783,5.5259 -3.10975,10.1573 -5.15865,15.17254c-4.02847,9.86077 -8.16446,19.83933 -11.67184,29.92796c-6.11019,17.57534 -6.57666,37.23451 -3.33813,55.25474c1.71177,9.52488 7.26506,15.61927 13.47109,21.74865c-12.13941,4.46583 -22.07913,6.01072 -22.07913,6.01072z" fill="#ff788e" stroke="none" stroke-width="0" stroke-linecap="butt"/><path d="M409.60654,179.30165c0.19223,-0.03117 3.37583,-6.49457 3.57504,-6.52688c3.85839,-0.62568 10.24566,-1.62091 10.24566,-1.62091c0,0 17.30906,30.20479 -18.60405,30.56714c-4.91772,0.06116 -10.79663,-0.9077 -14.925,-2.50172c0.72975,-3.09219 1.67924,-6.4832 2.78819,-8.95093c2.55225,-5.67949 6.8653,-12.27007 11.70145,-16.20342c1.67837,1.4899 4.97634,5.27603 5.21872,5.23672z" fill="#000000" stroke="none" stroke-width="0" stroke-linecap="butt"/><path d="M412.23098,174.50924c3.85839,-0.62568 10.24566,-1.62091 10.24566,-1.62091c0,0 17.30906,30.20479 -18.60405,30.56714c-4.91772,0.06116 -9.46329,-0.9077 -13.59167,-2.50171c0.72974,-3.09219 2.01257,-6.14987 3.12152,-8.6176c2.55225,-5.67949 6.19864,-11.1034 11.03478,-15.03676c1.67837,1.4899 3.97634,3.77602 4.21872,3.73671z" fill="url(#color-15)" stroke="none" stroke-width="0" stroke-linecap="butt"/><path d="M404.64711,378.35201c0,0 -147.05231,-147.70312 -160.91074,-161.45799c-2.04926,-2.03394 -3.969,-6.03547 -1.4787,-8.34375c11.73656,-10.87874 47.54547,-44.2656 60.83933,-56.58782c1.37463,-1.27416 1.3775,-3.48677 -1.43413,-5.50856c-3.70761,-2.66608 -5.98697,-4.74271 -10.88004,-8.15733c-1.26754,-0.88456 -6.35838,-2.47758 -9.00965,-0.52524c-6.38272,4.70008 -18.87288,14.94576 -20.46896,15.42892c-1.31241,0.39729 -9.51999,-9.51323 -9.37925,-9.64368c1.81688,-1.68408 15.21798,-11.79166 22.87628,-16.99758c3.18349,-2.16406 8.27507,-4.10049 11.00443,-2.32516c7.18026,4.67048 23.82057,15.13335 31.40256,20.49838c3.15439,2.23205 2.74173,9.70829 -0.539,12.7754c-13.46696,12.59007 -49.00925,42.78651 -59.27324,52.51394c-1.90041,1.80106 0.94975,3.36933 1.95221,4.38714c23.81985,24.18461 165.99494,146.80643 165.99494,146.80643c0,0 3.17095,9.26653 -4.43111,16.92683c-7.05333,7.10737 -16.26493,0.21008 -16.26493,0.21008z" fill="url(#color-16)" stroke="#000000" stroke-width="0" stroke-linecap="butt"/><path d="M405.92369,375.45886c0,0 -147.50907,-146.40686 -161.3675,-160.16174c-2.04926,-2.03394 -2.07145,-4.85254 0.41885,-7.16083c11.73656,-10.87874 46.42498,-43.03179 59.71884,-55.354c1.37463,-1.27416 1.83425,-4.78302 -0.97737,-6.80481c-3.70761,-2.66608 -9.18077,-6.38238 -14.07384,-9.79701c-1.26754,-0.88456 -5.7883,-1.41953 -8.43957,0.5328c-6.38272,4.70008 -17.02622,13.11065 -18.6223,13.59381c-1.31241,0.39729 -8.44227,-6.73341 -8.30154,-6.86385c1.81688,-1.68408 15.12431,-10.79605 22.78262,-16.00198c3.18349,-2.16406 7.12337,-2.53481 9.85272,-0.75947c7.18026,4.67048 21.25929,13.88799 28.84128,19.25301c3.15439,2.23205 3.05393,6.38961 -0.2268,9.45671c-13.46696,12.59007 -48.40795,43.51268 -58.67194,53.24011c-1.90041,1.80106 -1.49821,4.47826 -0.49576,5.49607c23.81985,24.18461 163.14862,145.03204 163.14862,145.03204c0,0 8.83409,7.79046 1.23203,15.45076c-7.05333,7.10737 -14.81835,0.84838 -14.81835,0.84838z" fill="url(#color-17)" stroke="#000000" stroke-width="0" stroke-linecap="butt"/><path d="M405.92369,375.45886c0,0 -147.50907,-146.40686 -161.3675,-160.16174c-1.54345,-1.53191 -2.187,-4.25895 -1.22325,-6.12781c0.67965,0.58735 34.11829,-32.08459 34.81136,-31.51129c0.42893,0.35481 -31.64043,34.7078 -31.20919,35.06005c2.90722,2.37468 5.84222,4.71561 8.4729,7.35307c6.87754,6.89526 14.69952,13.70123 22.41054,19.68434c3.17314,2.4621 66.41346,62.0916 79.00369,76.10962c2.67131,2.97425 6.47884,5.0128 9.03745,8.12394c4.45152,5.41283 16.96935,16.9901 17.8368,17.92827c4.73133,5.1171 33.26631,30.9614 36.30226,33.39154c-6.84439,5.97829 -14.07507,0.15001 -14.07507,0.15001z" fill="#5b5b5b" stroke="#000000" stroke-width="0" stroke-linecap="butt"/><path d="M282.79258,274.86122c0,0 -10.17416,2.31495 -14.12477,-1.88257c-5.0906,-5.40876 -12.97523,-21.91743 -12.97523,-21.91743c0,0 6.48635,-30.81724 30.02308,-17.71538c19.61813,10.92054 19.02521,20.92862 13.56559,36.1962c-0.52584,1.47047 1.91134,8.61919 1.91134,8.61919z" fill="#e83454" stroke="none" stroke-width="0" stroke-linecap="butt"/><path d="M304.29258,277.91122c0,0 -22.40434,1.26734 -34.94078,-5.04275c-14.85566,-7.47746 -12.75922,-19.95725 -12.75922,-19.95725c0,0 6.13651,-30.5766 28.82307,-18.51538c15.22518,8.0944 17.82521,19.32862 12.36559,34.5962c-0.52584,1.47047 6.51134,8.91919 6.51134,8.91919z" fill="#ff788e" stroke="none" stroke-width="0" stroke-linecap="butt"/><path d="M269.35186,272.86847c-14.85566,-7.47746 -12.75922,-19.95725 -12.75922,-19.95725c0,0 4.71335,-23.48539 21.14995,-21.17177c-6.57342,5.0085 -11.03603,11.61903 -9.03889,21.10053c0.63596,3.01925 1.63906,6.57748 2.87711,9.51829c2.45708,5.8365 6.76799,10.80598 12.04189,14.56936c-5.06043,-0.75322 -10.18876,-2.00448 -14.27084,-4.05915z" fill="url(#color-18)" stroke="none" stroke-width="0" stroke-linecap="butt"/><path d="M367.78297,311.36949l26.66666,33.33333l15.66667,1.33333c0,0 -16.34261,4.41168 -22.87226,11.42045c-0.08321,0.08932 -5.03359,2.34814 -8.41902,2.0691c-6.0021,-0.49472 -12.08607,-3.96568 -13.07993,-5.97305c-3.05952,-5.89118 -8.57964,-16.82106 -7.51117,-25.16811c1.27982,-9.99808 9.54903,-17.01506 9.54903,-17.01506z" fill="#cf183b" stroke="none" stroke-width="0" stroke-linecap="butt"/><path d="M369.11628,312.36949c0,0 7.98746,-3.09912 9.69369,-2.85753c5.45171,0.77193 27.97298,8.19086 27.97298,8.19086v27.66667c0,0 -16.34261,5.07833 -22.87226,12.08711c-0.58112,0.62376 -14.0479,0.30849 -18.83227,-8.90395c-13.26094,-25.53429 4.03786,-36.18316 4.03786,-36.18316z" fill="#ff788e" stroke="none" stroke-width="0" stroke-linecap="butt"/><path d="M360.11628,330.36949c0,0 5.29925,9.37171 16.54203,11.88981c7.73375,1.73217 21.44079,-2.23717 25.42481,-4.81802c6.15136,-3.98485 18.69983,-20.07179 18.69983,-20.07179l15,-3c0,0 -26.836,31.12155 -27.94027,31.7224c-0.71666,0.38995 -10.76946,-0.23744 -23.40812,10.78354c-0.2859,0.2493 -5.63197,1.36604 -9.01801,0.26213c-1.31431,-0.42849 -7.50087,-2.76729 -9.48158,-5.8983c-5.00272,-7.90805 -5.81869,-20.86977 -5.81869,-20.86977z" fill="#ff4a68" stroke="none" stroke-width="0" stroke-linecap="butt"/></g><path d="M195.56762,251.19599c0,0 -44.82726,31.50286 -68.94236,-5.33716c-23.65571,-36.13823 12.44236,-61.16283 12.44236,-61.16283l111.5,-64.5c0,0 18.58833,-9.13247 35.46607,-3.63232c22.59675,7.36387 14.53393,35.63232 14.53393,35.63232z" fill="url(#color-19)" stroke="none" stroke-width="0" stroke-linecap="butt"/><path d="M194.56762,247.69599c0,0 -41.82726,33.50286 -65.94236,-3.33716c-23.65571,-36.13823 11.94236,-58.16283 11.94236,-58.16283c0,0 35.19935,-20.47962 53.22789,-30.96895c18.61909,-10.83292 56.77211,-33.03105 56.77211,-33.03105c0,0 17.08833,-9.63247 33.96607,-4.13232c22.59675,7.36387 15.03393,33.13232 15.03393,33.13232z" fill="url(#color-20)" stroke="none" stroke-width="0" stroke-linecap="butt"/><path d="M195.06762,248.02932c0,0 -11.84884,7.84479 -20.15731,10.83255c-1.94817,0.13911 -12.56369,3.22477 -14.51507,3.16745c-10.17008,-0.29877 -15.54026,-2.08315 -22.81485,-8.79603c-7.2746,-6.71288 -9.3792,-14.86268 -10.7696,-19.12407c-1.3904,-4.26138 1.00885,-21.33311 11.52815,-24.39633c5.22905,-1.52271 7.93268,-1.66312 14.01799,-1.51691c5.13172,0.1233 17.13985,4.32338 21.00701,7.47224c7.00724,5.70568 5.47062,15.33897 9.81132,14.4234c3.71443,-1.6454 23.48125,-16.30521 30.46343,-22.82457c1.64734,-1.53815 3.24261,-3.59923 5.16706,-4.96081c9.70828,-6.86875 19.69318,-13.64692 28.44131,-21.64756c3.79618,-3.47181 8.51892,-5.65167 12.19146,-9.19146c1.0587,-1.02043 3.00338,-1.51202 4.17611,-2.45074c8.53283,-6.83018 18.62131,-13.21115 25.52407,-21.74944c2.54086,-3.14289 4.23026,-5.66015 5.54179,-8.13165c0.47175,-0.64697 0.91896,-1.30188 1.33141,-1.96728c0.94203,-1.51977 1.79476,-3.61673 2.48697,-5.98738c3.65148,9.5116 0.56876,20.01525 0.56876,20.01525z" fill="url(#color-21)" stroke="none" stroke-width="0" stroke-linecap="butt"/><path d="M172.8562,243.55985c-5.1752,8.21526 -18.19473,9.31623 -29.07995,2.4591c-10.88521,-6.85713 -15.51409,-19.07573 -10.3389,-27.29098c5.1752,-8.21526 18.19473,-9.31623 29.07994,-2.45909c10.88521,6.85714 15.5141,19.07572 10.3389,27.29098z" fill="#292929" stroke="none" stroke-width="0" stroke-linecap="butt"/><path d="M170.04475,242.33816c-4.5965,7.29662 -16.16019,8.27448 -25.82821,2.18412c-9.66802,-6.09036 -13.7793,-16.94267 -9.1828,-24.23929c4.5965,-7.29662 16.16018,-8.27448 25.82821,-2.18411c9.66803,6.09036 13.7793,16.94267 9.1828,24.23928z" fill="#5b5b5b" stroke="none" stroke-width="0" stroke-linecap="butt"/><path d="M380.68259,326.71819c-8.09408,2.32844 -15.67679,0.66632 -16.93643,-3.71245c-1.25965,-4.37877 4.28076,-9.81603 12.37485,-12.14447c8.09409,-2.32844 23.17679,-3.66632 24.43643,0.71245c1.25964,4.37877 -11.78076,12.81603 -19.87485,15.14447z" fill="url(#color-22)" stroke="#ff4a68" stroke-width="0" stroke-linecap="butt"/><path d="M273.10222,117.22458c4.5678,0.57763 -21.37348,20.57482 -50.14978,40.55836c-28.77629,19.98354 -43.2649,35.25991 -64.0789,38.39689c-4.74125,0.71457 -9.39954,-1.14886 -14.84975,-1.65451c-3.34339,-0.31019 -7.19268,1.13795 -10.92926,0.32959c-7.82706,-1.69329 36.79736,-23.56363 77.81644,-48.8917c40.76555,-25.17152 54.24639,-29.74333 62.19125,-28.73864z" fill="url(#color-23)" stroke="#ff4a68" stroke-width="0" stroke-linecap="butt"/></g><g stroke="none" stroke-width="0" stroke-linecap="butt"><path d="M566.93247,60.29347c-0.5044,2.85824 -84.65831,-9.60324 -187.96302,-27.83349c-103.30471,-18.23024 -186.64083,-35.32583 -186.13644,-38.18407c0.50439,-2.85824 84.6583,9.60324 187.96302,27.83349c103.30471,18.23025 186.64084,35.32583 186.13645,38.18407z" fill="url(#color-24)"/><path d="M497.46569,-32.02164c0.92152,1.68193 -47.61117,30.04546 -108.40079,63.35173c-60.78962,33.30627 -110.81638,58.94286 -111.7379,57.26093c-0.92152,-1.68193 47.61117,-30.04546 108.40079,-63.35172c60.78962,-33.30627 110.81638,-58.94286 111.73789,-57.26093z" fill="url(#color-25)"/><path d="M428.43484,30.30741c0,22.36753 -17.46089,40.5 -39,40.5c-21.53911,0 -39,-18.13247 -39,-40.5c0,-22.36753 17.46089,-40.5 39,-40.5c21.53911,0 39,18.13247 39,40.5z" fill="url(#color-26)"/><path d="M402.36077,28.3074c0,8.00813 -6.25143,14.5 -13.96296,14.5c-7.71153,0 -13.96296,-6.49187 -13.96296,-14.5c0,-8.00813 6.25143,-14.5 13.96296,-14.5c7.71153,0 13.96296,6.49187 13.96296,14.5z" fill="#ffffff"/><path d="M184.46909,198.37683l202.89339,-173.33483l-16.54805,173.83183z" fill="url(#color-27)"/></g><path d="M138.905,225.58574c3.5914,-4.55464 11.53704,-4.7977 17.7471,-0.5429c6.21006,4.2548 8.33289,11.39626 4.74149,15.9509c-3.5914,4.55464 -11.53704,4.7977 -17.7471,0.5429c-6.21006,-4.2548 -8.33289,-11.39626 -4.74149,-15.9509z" fill="#919191" stroke="#ffffff" stroke-width="0" stroke-linecap="butt"/></g></g></svg>