<svg version="1.1" xmlns="http://www.w3.org/2000/svg" xmlns:xlink="http://www.w3.org/1999/xlink" width="132.54994" height="222.29812" viewBox="0,0,132.54994,222.29812"><defs><radialGradient cx="368.48164" cy="96.0509" r="26.05926" gradientUnits="userSpaceOnUse" id="color-1"><stop offset="0" stop-color="#000000" stop-opacity="0.30588"/><stop offset="1" stop-color="#000000" stop-opacity="0"/></radialGradient><linearGradient x1="348.50488" y1="112.78457" x2="388.45836" y2="79.31723" gradientUnits="userSpaceOnUse" id="color-2"><stop offset="0" stop-color="#ff5454"/><stop offset="1" stop-color="#eb0000"/></linearGradient><radialGradient cx="336.58435" cy="123.31985" r="26.05927" gradientUnits="userSpaceOnUse" id="color-3"><stop offset="0" stop-color="#000000" stop-opacity="0.30588"/><stop offset="1" stop-color="#000000" stop-opacity="0"/></radialGradient><linearGradient x1="316.60758" y1="140.05353" x2="356.56106" y2="106.58619" gradientUnits="userSpaceOnUse" id="color-4"><stop offset="0" stop-color="#ff5454"/><stop offset="1" stop-color="#eb0000"/></linearGradient><radialGradient cx="312.05456" cy="160.13857" r="23.93565" gradientUnits="userSpaceOnUse" id="color-5"><stop offset="0" stop-color="#000000" stop-opacity="0.63137"/><stop offset="1" stop-color="#000000" stop-opacity="0"/></radialGradient><linearGradient x1="293.70574" y1="175.50859" x2="330.40337" y2="144.76854" gradientUnits="userSpaceOnUse" id="color-6"><stop offset="0" stop-color="#ff5454"/><stop offset="1" stop-color="#eb0000"/></linearGradient><linearGradient x1="307.6215" y1="175.35816" x2="293.68561" y2="158.72143" gradientUnits="userSpaceOnUse" id="color-7"><stop offset="0" stop-color="#eb0000"/><stop offset="1" stop-color="#ff5454"/></linearGradient><linearGradient x1="317.86461" y1="138.11697" x2="388.58328" y2="78.8789" gradientUnits="userSpaceOnUse" id="color-8"><stop offset="0" stop-color="#333333"/><stop offset="1" stop-color="#cacaca"/></linearGradient><linearGradient x1="383.97219" y1="66.72438" x2="307.10292" y2="131.11456" gradientUnits="userSpaceOnUse" id="color-9"><stop offset="0" stop-color="#ff4c4c"/><stop offset="1" stop-color="#ec0000"/></linearGradient><linearGradient x1="386.8737" y1="71.20417" x2="310.80656" y2="134.92245" gradientUnits="userSpaceOnUse" id="color-10"><stop offset="0" stop-color="#e8e8e8"/><stop offset="1" stop-color="#9e9e9e"/></linearGradient><linearGradient x1="367.76671" y1="115.23276" x2="355.28694" y2="125.68653" gradientUnits="userSpaceOnUse" id="color-11"><stop offset="0" stop-color="#929292"/><stop offset="1" stop-color="#000000"/></linearGradient><linearGradient x1="323.99132" y1="147.85651" x2="294.82122" y2="172.29109" gradientUnits="userSpaceOnUse" id="color-12"><stop offset="0" stop-color="#929292"/><stop offset="1" stop-color="#000000"/></linearGradient><linearGradient x1="327.08619" y1="158.51018" x2="313.15028" y2="141.87344" gradientUnits="userSpaceOnUse" id="color-13"><stop offset="0" stop-color="#eb0000"/><stop offset="1" stop-color="#ff5454"/></linearGradient><linearGradient x1="306.08722" y1="115.0048" x2="383.23867" y2="262.97911" gradientUnits="userSpaceOnUse" id="color-14"><stop offset="0" stop-color="#ff0000" stop-opacity="0.28235"/><stop offset="1" stop-color="#ffffff"/></linearGradient></defs><g transform="translate(-288.11834,-65.90467)"><g data-paper-data="{&quot;isPaintingLayer&quot;:true}" fill-rule="nonzero" stroke-linejoin="miter" stroke-miterlimit="10" stroke-dasharray="" stroke-dashoffset="0" style="mix-blend-mode: normal"><path d="M385.21529,116.0276c-11.03284,9.24174 -27.46864,7.78976 -36.71041,-3.24306c-9.24174,-11.03282 -7.78976,-27.46864 3.24307,-36.7104c11.03283,-9.24174 27.46864,-7.78976 36.7104,3.24307c9.24174,11.03282 7.78977,27.46865 -3.24305,36.7104z" fill="url(#color-1)" stroke="url(#color-2)" stroke-width="0" stroke-linecap="butt"/><path d="M353.318,143.29657c-11.03283,9.24174 -27.46864,7.78976 -36.71041,-3.24306c-9.24174,-11.03282 -7.78976,-27.46864 3.24307,-36.7104c11.03283,-9.24174 27.46865,-7.78977 36.7104,3.24305c9.24174,11.03282 7.78977,27.46865 -3.24306,36.71041z" fill="url(#color-3)" stroke="url(#color-4)" stroke-width="0" stroke-linecap="butt"/><path d="M327.42458,178.48733c-10.13375,8.48863 -25.23019,7.15497 -33.71881,-2.97878c-8.48861,-10.13375 -7.15499,-25.2302 2.97876,-33.71881c10.13375,-8.48863 25.23019,-7.15497 33.71881,2.97878c8.48861,10.13375 7.15499,25.2302 -2.97876,33.71881z" fill="url(#color-5)" stroke="url(#color-6)" stroke-width="0" stroke-linecap="butt"/><path d="M307.6215,175.35816c-4.5941,3.8483 -11.43801,3.24368 -15.28631,-1.35043c-3.8483,-4.5941 -3.24368,-11.43801 1.35043,-15.28631c4.5941,-3.8483 11.43801,-3.24368 15.28631,1.35043c3.8483,4.5941 3.24368,11.43801 -1.35043,15.28631z" fill="url(#color-7)" stroke="#000000" stroke-width="0" stroke-linecap="butt"/><g><path d="M385.26462,74.91707l3.52704,7.83232l-66.39281,55.95157l-7.85289,-4.54583z" data-paper-data="{&quot;index&quot;:null}" fill="url(#color-8)" stroke="none" stroke-width="0" stroke-linecap="butt"/><path d="M309.34033,133.7856l-2.52653,-3.01619l0.26184,-4.17727l72.44898,-60.68747l4.15847,0.47454l2.52653,3.01619z" data-paper-data="{&quot;index&quot;:null}" fill="url(#color-9)" stroke="none" stroke-width="0" stroke-linecap="butt"/><path d="M312.05103,136.40814l-2.48898,-2.97136l76.06715,-63.71826l2.48898,2.97136z" data-paper-data="{&quot;index&quot;:null}" fill="url(#color-10)" stroke="none" stroke-width="0" stroke-linecap="butt"/><path d="M385.02793,85.90212c0,0 -5.54682,14.75893 -25.72621,31.66236c-18.75995,15.71441 -33.50318,17.95162 -33.50318,17.95162" data-paper-data="{&quot;index&quot;:null}" fill="none" stroke-opacity="0.53333" stroke="#000000" stroke-width="2" stroke-linecap="round"/><path d="M344.27379,127.79314l9.88401,-16.36949l17.61854,-6.33116" data-paper-data="{&quot;index&quot;:null}" fill="none" stroke-opacity="0.53333" stroke="#000000" stroke-width="2" stroke-linecap="round"/><path d="M377.8367,70.11079l-33.89239,28.39023" data-paper-data="{&quot;index&quot;:null}" fill="none" stroke-opacity="0.34902" stroke="#ffffff" stroke-width="4.5" stroke-linecap="round"/><path d="M354.49771,88.39101l20.36582,-17.05959" data-paper-data="{&quot;index&quot;:null}" fill="none" stroke-opacity="0.34902" stroke="#ffffff" stroke-width="2.5" stroke-linecap="round"/><path d="M365.44364,112.45948l0.94155,5.95303l-7.92366,6.63732l-5.49766,-2.13656z" fill="url(#color-11)" stroke="none" stroke-width="0" stroke-linecap="butt"/><path d="M362.22528,121.89708c0,0 -0.67443,5.15726 -8.83779,11.59605c-8.84737,6.9783 -15.53185,3.11018 -15.53185,3.11018l-12.25021,-0.86442l5.67348,6.37027l-39.24308,32.85316c0,0 -4.55898,-5.67839 3.9532,-18.0067c8.51219,-12.32832 23.0967,-21.17004 23.0967,-21.17004" fill="none" stroke-opacity="0.51765" stroke="#000000" stroke-width="2" stroke-linecap="round"/><path d="M321.51001,144.54162l4.30656,5.49392l-26.84704,27.20784c0,0 -5.74367,-1.12722 -7.02187,-2.59594c-1.632,-1.87526 -1.97067,-7.73698 -1.97067,-7.73698z" fill="url(#color-12)" stroke="none" stroke-width="0" stroke-linecap="butt"/></g><path d="M327.08619,158.51018c-4.59409,3.8483 -11.43802,3.24368 -15.28632,-1.35041c-3.8483,-4.5941 -3.24368,-11.43802 1.35042,-15.28632c4.59409,-3.8483 11.43801,-3.24368 15.28632,1.35044c3.8483,4.59409 3.24368,11.43801 -1.35043,15.28631z" fill="url(#color-13)" stroke="#000000" stroke-width="0" stroke-linecap="butt"/><path d="M376.1125,78.49472c0,0 52.37263,54.26993 43.55548,112.94414c-9.65774,64.26802 -67.68249,89.55187 -81.78714,93.18225c-11.54661,2.97198 -28.4886,6.11856 -39.46421,0.37777c-1.61501,-0.84473 18.06538,-11.13737 24.78703,-16.02842c8.23994,-5.99584 13.40535,-12.13813 13.40535,-12.13813c0,0 -8.91883,1.90955 -12.84102,1.48342c-3.36184,-0.36525 -9.27125,-3.88577 -9.27125,-3.88577l13.86105,-13.28732l-8.19811,0.01618c0,0 15.90163,-12.60857 18.39938,-40.07795c2.49777,-27.46938 -13.63413,-44.73296 -15.23138,-52.39857c-1.88454,-9.04443 17.4001,15.5517 17.4001,15.5517c0,0 2.12549,-4.06402 1.89584,-15.33462c-0.21473,-10.53854 -1.94028,-17.81795 -1.94028,-17.81795l22.61128,15.36625c0,0 -3.08442,-21.42692 -1.61687,-38.66585c0.60154,-7.06612 20.34613,-3.64217 20.34613,-3.64217l-5.91139,-25.64496z" data-paper-data="{&quot;index&quot;:null}" fill="url(#color-14)" stroke="none" stroke-width="0" stroke-linecap="butt"/></g></g></svg>