<svg version="1.1" xmlns="http://www.w3.org/2000/svg" xmlns:xlink="http://www.w3.org/1999/xlink" width="366.92406" height="313.25999" viewBox="0,0,366.92406,313.25999"><defs><radialGradient cx="-3.24761" cy="257.6699" r="55.98966" gradientUnits="userSpaceOnUse" id="color-1"><stop offset="0" stop-color="#02ff00" stop-opacity="0.67059"/><stop offset="1" stop-color="#02ff00" stop-opacity="0.27451"/></radialGradient><radialGradient cx="134.50571" cy="126.42586" r="22.75" gradientUnits="userSpaceOnUse" id="color-2"><stop offset="0" stop-color="#02ff00" stop-opacity="0.67059"/><stop offset="1" stop-color="#02ff00" stop-opacity="0.27451"/></radialGradient><linearGradient x1="159.46482" y1="134.625" x2="296.96479" y2="134.625" gradientUnits="userSpaceOnUse" id="color-3"><stop offset="0" stop-color="#1cff1c" stop-opacity="0.64706"/><stop offset="1" stop-color="#29ff29" stop-opacity="0.17255"/></linearGradient><radialGradient cx="165.00007" cy="155" r="28" gradientUnits="userSpaceOnUse" id="color-4"><stop offset="0" stop-color="#1cff1c" stop-opacity="0.63137"/><stop offset="1" stop-color="#1cff1c" stop-opacity="0"/></radialGradient><radialGradient cx="156.50008" cy="166.5" r="28" gradientUnits="userSpaceOnUse" id="color-5"><stop offset="0" stop-color="#1cff1c" stop-opacity="0.63137"/><stop offset="1" stop-color="#1cff1c" stop-opacity="0"/></radialGradient><radialGradient cx="164.92395" cy="182.03422" r="28" gradientUnits="userSpaceOnUse" id="color-6"><stop offset="0" stop-color="#02ff00" stop-opacity="0.67059"/><stop offset="1" stop-color="#02ff00" stop-opacity="0.27451"/></radialGradient><radialGradient cx="167.30038" cy="134.5057" r="16.75" gradientUnits="userSpaceOnUse" id="color-7"><stop offset="0" stop-color="#02ff00" stop-opacity="0.67059"/><stop offset="1" stop-color="#02ff00" stop-opacity="0.27451"/></radialGradient><radialGradient cx="222.43346" cy="145.91255" r="33.5" gradientUnits="userSpaceOnUse" id="color-8"><stop offset="0" stop-color="#02ff00" stop-opacity="0.67059"/><stop offset="1" stop-color="#02ff00" stop-opacity="0.27451"/></radialGradient><radialGradient cx="201.52091" cy="108.36502" r="17.75" gradientUnits="userSpaceOnUse" id="color-9"><stop offset="0" stop-color="#02ff00" stop-opacity="0.67059"/><stop offset="1" stop-color="#02ff00" stop-opacity="0.27451"/></radialGradient><radialGradient cx="167.30038" cy="108.36502" r="9.75" gradientUnits="userSpaceOnUse" id="color-10"><stop offset="0" stop-color="#02ff00" stop-opacity="0.67059"/><stop offset="1" stop-color="#02ff00" stop-opacity="0.27451"/></radialGradient><radialGradient cx="110.16672" cy="127.00018" r="4.5" gradientUnits="userSpaceOnUse" id="color-11"><stop offset="0" stop-color="#02ff00" stop-opacity="0.67059"/><stop offset="1" stop-color="#02ff00" stop-opacity="0.27451"/></radialGradient><radialGradient cx="189.66674" cy="86.00018" r="4.5" gradientUnits="userSpaceOnUse" id="color-12"><stop offset="0" stop-color="#02ff00" stop-opacity="0.67059"/><stop offset="1" stop-color="#02ff00" stop-opacity="0.27451"/></radialGradient><radialGradient cx="83.41951" cy="169.20479" r="38.75" gradientUnits="userSpaceOnUse" id="color-13"><stop offset="0" stop-color="#000000" stop-opacity="0.34902"/><stop offset="1" stop-color="#000000" stop-opacity="0"/></radialGradient><radialGradient cx="120.91953" cy="250.70479" r="79.75" gradientUnits="userSpaceOnUse" id="color-14"><stop offset="0" stop-color="#000000" stop-opacity="0.34902"/><stop offset="1" stop-color="#000000" stop-opacity="0"/></radialGradient><linearGradient x1="111.79776" y1="252.63729" x2="138.60665" y2="229.64569" gradientUnits="userSpaceOnUse" id="color-15"><stop offset="0" stop-color="#ff94c8"/><stop offset="1" stop-color="#ff0077"/></linearGradient><linearGradient x1="68.24392" y1="262.1854" x2="143.26599" y2="262.1854" gradientUnits="userSpaceOnUse" id="color-16"><stop offset="0" stop-color="#ff88bf"/><stop offset="1" stop-color="#ff0077"/></linearGradient><linearGradient x1="94.04149" y1="215.36669" x2="142.57182" y2="205.33055" gradientUnits="userSpaceOnUse" id="color-17"><stop offset="0" stop-color="#ff94c8"/><stop offset="1" stop-color="#ff0077"/></linearGradient><linearGradient x1="53.17085" y1="179.2411" x2="111.7298" y2="159.74678" gradientUnits="userSpaceOnUse" id="color-18"><stop offset="0" stop-color="#ff94c8"/><stop offset="1" stop-color="#ff0077"/></linearGradient><linearGradient x1="72.8431" y1="139.9007" x2="86.36782" y2="180.73425" gradientUnits="userSpaceOnUse" id="color-19"><stop offset="0" stop-color="#ffffff"/><stop offset="1" stop-color="#e6e6e6"/></linearGradient><linearGradient x1="59.30889" y1="173.2715" x2="73.79849" y2="170.27504" gradientUnits="userSpaceOnUse" id="color-20"><stop offset="0" stop-color="#ff94c8"/><stop offset="1" stop-color="#ff0077"/></linearGradient><linearGradient x1="93.6861" y1="153.84706" x2="96.6826" y2="168.33675" gradientUnits="userSpaceOnUse" id="color-21"><stop offset="0" stop-color="#ffffff"/><stop offset="1" stop-color="#e6e6e6"/></linearGradient><linearGradient x1="62.7115" y1="189.18495" x2="103.54878" y2="189.18495" gradientUnits="userSpaceOnUse" id="color-22"><stop offset="0" stop-color="#ff9cca"/><stop offset="1" stop-color="#ffffff"/></linearGradient><linearGradient x1="62.7115" y1="189.08476" x2="100.4442" y2="189.08476" gradientUnits="userSpaceOnUse" id="color-23"><stop offset="0" stop-color="#ff0379"/><stop offset="1" stop-color="#ff0379" stop-opacity="0"/></linearGradient><linearGradient x1="93.17098" y1="219.00479" x2="117.69115" y2="219.00479" gradientUnits="userSpaceOnUse" id="color-24"><stop offset="0" stop-color="#ff94c8"/><stop offset="1" stop-color="#ff0077"/></linearGradient><linearGradient x1="107.23652" y1="227.84296" x2="286.63606" y2="227.84296" gradientUnits="userSpaceOnUse" id="color-25"><stop offset="0" stop-color="#ffffff"/><stop offset="1" stop-color="#ff69af"/></linearGradient><linearGradient x1="215.84756" y1="261.10245" x2="260.01989" y2="261.10245" gradientUnits="userSpaceOnUse" id="color-26"><stop offset="0" stop-color="#ffffff" stop-opacity="0"/><stop offset="1" stop-color="#ffffff"/></linearGradient><linearGradient x1="168.97513" y1="229.66818" x2="280.77812" y2="229.66818" gradientUnits="userSpaceOnUse" id="color-27"><stop offset="0" stop-color="#ffffff" stop-opacity="0"/><stop offset="1" stop-color="#ffffff"/></linearGradient><linearGradient x1="179.90048" y1="208.90996" x2="283.32734" y2="208.90996" gradientUnits="userSpaceOnUse" id="color-28"><stop offset="0" stop-color="#ffffff" stop-opacity="0"/><stop offset="1" stop-color="#ffffff"/></linearGradient><linearGradient x1="192.2826" y1="194.06967" x2="278.95721" y2="194.06967" gradientUnits="userSpaceOnUse" id="color-29"><stop offset="0" stop-color="#ffffff" stop-opacity="0"/><stop offset="1" stop-color="#ffffff"/></linearGradient><linearGradient x1="107.05194" y1="233.64321" x2="190.0294" y2="193.03731" gradientUnits="userSpaceOnUse" id="color-30"><stop offset="0" stop-color="#171717"/><stop offset="1" stop-color="#d4d4d4"/></linearGradient><linearGradient x1="90.211" y1="199.23826" x2="90.211" y2="218.68587" gradientUnits="userSpaceOnUse" id="color-31"><stop offset="0" stop-color="#ff94c8"/><stop offset="1" stop-color="#ff0077"/></linearGradient><linearGradient x1="120.7799" y1="283.24262" x2="191.53631" y2="265.08709" gradientUnits="userSpaceOnUse" id="color-32"><stop offset="0" stop-color="#ef006f"/><stop offset="1" stop-color="#ff94e7"/></linearGradient><linearGradient x1="70.66669" y1="266.66668" x2="114.48442" y2="266.66668" gradientUnits="userSpaceOnUse" id="color-33"><stop offset="0" stop-color="#ffffff"/><stop offset="1" stop-color="#ffffff" stop-opacity="0"/></linearGradient><linearGradient x1="142.57919" y1="259.95518" x2="216.92072" y2="259.95518" gradientUnits="userSpaceOnUse" id="color-34"><stop offset="0" stop-color="#ffffff" stop-opacity="0"/><stop offset="1" stop-color="#ffffff"/></linearGradient><radialGradient cx="50.95882" cy="289.00523" r="45.85819" gradientUnits="userSpaceOnUse" id="color-35"><stop offset="0" stop-color="#02ff00" stop-opacity="0.67059"/><stop offset="1" stop-color="#02ff00" stop-opacity="0.27451"/></radialGradient><radialGradient cx="62.87892" cy="316.6987" r="45.85819" gradientUnits="userSpaceOnUse" id="color-36"><stop offset="0" stop-color="#02ff00" stop-opacity="0.67059"/><stop offset="1" stop-color="#02ff00" stop-opacity="0.27451"/></radialGradient></defs><g transform="translate(43.45924,-63.05299)"><g data-paper-data="{&quot;isPaintingLayer&quot;:true}" fill-rule="nonzero" stroke-linejoin="miter" stroke-miterlimit="10" stroke-dasharray="" stroke-dashoffset="0" style="mix-blend-mode: normal"><path d="M12.53042,218.47547c30.92224,0 55.98966,25.06742 55.98966,55.98966c0,30.92224 -25.06742,55.98966 -55.98966,55.98966c-30.92224,0 -55.98966,-25.06742 -55.98966,-55.98966c0,-30.92224 25.06742,-55.98966 55.98966,-55.98966z" fill="url(#color-1)" stroke="none" stroke-width="0" stroke-linecap="butt"/><g stroke="none" stroke-width="0" stroke-linecap="butt"><path d="M140.91672,110.50018c12.56448,0 22.75,10.18552 22.75,22.75c0,12.56448 -10.18552,22.75 -22.75,22.75c-12.56448,0 -22.75,-10.18552 -22.75,-22.75c0,-12.56448 10.18552,-22.75 22.75,-22.75z" fill="url(#color-2)"/><path d="M162.96482,163.5c0,0 0.59813,-69.17282 54,-94c60.10583,-27.94394 106.5,44 106.5,44c0,0 -38.49604,-37.39222 -92,-30.5c-53.50396,6.89222 -68.5,80.5 -68.5,80.5z" fill="url(#color-3)"/><path d="M137.00007,155c0,-15.46397 12.53603,-28 28,-28c15.46397,0 28,12.53603 28,28c0,15.46397 -12.53603,28 -28,28c-15.46397,0 -28,-12.53603 -28,-28z" fill="url(#color-4)"/><path d="M128.50008,166.5c0,-15.46398 12.53602,-28 28,-28c15.46398,0 28,12.53602 28,28c0,15.46398 -12.53602,28 -28,28c-15.46398,0 -28,-12.53602 -28,-28z" fill="url(#color-5)"/><path d="M143.00008,171.00003c0,-15.46398 12.53602,-28 28,-28c15.46398,0 28,12.53602 28,28c0,15.46398 -12.53602,28 -28,28c-15.46398,0 -28,-12.53602 -28,-28z" fill="url(#color-6)"/><path d="M159.41672,119.00018c9.25077,0 16.75,7.49923 16.75,16.75c0,9.25077 -7.49923,16.75 -16.75,16.75c-9.25077,0 -16.75,-7.49923 -16.75,-16.75c0,-9.25077 7.49923,-16.75 16.75,-16.75z" fill="url(#color-7)"/><path d="M202.16674,105.50018c18.50154,0 33.5,14.99846 33.5,33.5c0,18.50154 -14.99846,33.5 -33.5,33.5c-18.50154,0 -33.5,-14.99846 -33.5,-33.5c0,-18.50154 14.99846,-33.5 33.5,-33.5z" fill="url(#color-8)"/><path d="M193.41674,96.00018c9.80306,0 17.75,7.94695 17.75,17.75c0,9.80306 -7.94694,17.75 -17.75,17.75c-9.80305,0 -17.75,-7.94695 -17.75,-17.75c0,-9.80305 7.94695,-17.75 17.75,-17.75z" fill="url(#color-9)"/><path d="M162.91672,92.00018c5.38477,0 9.75,4.36522 9.75,9.75c0,5.38478 -4.36523,9.75 -9.75,9.75c-5.38477,0 -9.75,-4.36522 -9.75,-9.75c0,-5.38478 4.36523,-9.75 9.75,-9.75z" fill="url(#color-10)"/><path d="M110.16672,122.50018c2.48528,0 4.5,2.01472 4.5,4.5c0,2.48528 -2.01472,4.5 -4.5,4.5c-2.48528,0 -4.5,-2.01472 -4.5,-4.5c0,-2.48528 2.01472,-4.5 4.5,-4.5z" fill="url(#color-11)"/><path d="M189.66674,81.50018c2.48528,0 4.5,2.01472 4.5,4.5c0,2.48528 -2.01472,4.5 -4.5,4.5c-2.48528,0 -4.5,-2.01472 -4.5,-4.5c0,-2.48528 2.01472,-4.5 4.5,-4.5z" fill="url(#color-12)"/></g><path d="M44.66953,169.20479c0,-21.40104 17.34896,-38.75 38.75,-38.75c21.40103,0 38.75,17.34896 38.75,38.75c0,21.40104 -17.34897,38.75 -38.75,38.75c-21.40103,0 -38.75,-17.34896 -38.75,-38.75z" fill="url(#color-13)" stroke="none" stroke-width="NaN" stroke-linecap="butt"/><path d="M41.16951,250.70479c0,-44.04471 35.70529,-79.75 79.75,-79.75c44.04471,0 79.75,35.70529 79.75,79.75c0,44.04471 -35.70529,79.75 -79.75,79.75c-44.04471,0 -79.75,-35.70529 -79.75,-79.75z" fill="url(#color-14)" stroke="none" stroke-width="NaN" stroke-linecap="butt"/><g><path d="M126.74448,257.5193l-20.0854,-15.5299l-0.0312,-13.77663l28.23127,-9.66829l-4.4789,18.15078l17.93213,9.75424l2.99685,14.02636l-12.78485,12.93898l-9.38496,-3.33688z" fill="url(#color-15)" stroke="none" stroke-width="0" stroke-linecap="butt"/><path d="M87.65411,311.90272l-19.41017,-11.76712l0.8115,-17.4934l14.83842,-2.96965l40.58389,-53.21603l20.68688,-3.25576l-38.72755,88.41922z" data-paper-data="{&quot;index&quot;:null}" fill="url(#color-16)" stroke="none" stroke-width="0" stroke-linecap="butt"/><path d="M107.5403,232.60015l-9.23183,-26.32009l-17.34407,-16.61656l25.30697,-2.65042l15.91401,10.5511l13.2686,18.95377z" fill="url(#color-17)" stroke="none" stroke-width="0" stroke-linecap="butt"/><path d="M53.17085,179.2411c-5.38319,-16.17061 3.36173,-33.64341 19.53235,-39.02661c16.17061,-5.38319 33.64341,3.36173 39.02661,19.53235c5.38319,16.17061 -3.36173,33.64341 -19.53235,39.02661c-16.17061,5.38319 -33.64341,-3.36173 -39.02661,-19.53235z" fill="url(#color-18)" stroke="none" stroke-width="0" stroke-linecap="butt"/><path d="M51.98178,175.84165c-2.69205,-8.12778 -1.72746,-29.87882 21.65804,-36.15183c29.37833,-7.88054 37.99031,19.6731 37.99031,19.6731c0,0 -7.6487,-15.51624 -20.75481,-11.82509c-14.11553,3.97543 -9.25843,17.84806 -9.08239,18.37956c2.69205,8.12778 -1.71019,16.91989 -9.83269,19.63774c-8.1225,2.71784 -17.28641,-1.58569 -19.97846,-9.71347z" fill="url(#color-19)" stroke="none" stroke-width="0" stroke-linecap="butt"/><path d="M59.30889,173.2715c-0.82745,-4.0012 1.74537,-7.9156 5.74657,-8.74306c4.0012,-0.82745 7.9156,1.74537 8.74306,5.74657c0.82745,4.0012 -1.74537,7.9156 -5.74657,8.74306c-4.0012,0.82745 -7.9156,-1.74537 -8.74306,-5.74657z" fill="url(#color-20)" stroke="none" stroke-width="0" stroke-linecap="butt"/><path d="M87.93954,162.59015c-0.82745,-4.0012 1.74537,-7.9156 5.74657,-8.74307c4.0012,-0.82745 7.9156,1.74538 8.74307,5.74658c0.82745,4.0012 -1.74538,7.9156 -5.74658,8.74306c-4.0012,0.82745 -7.9156,-1.74537 -8.74306,-5.74657z" fill="url(#color-21)" stroke="none" stroke-width="0" stroke-linecap="butt"/><path d="M66.2141,190.08386l-10.50784,-14.8065l27.70248,-5.73155l2.86577,10.03021z" fill="#000000" stroke="none" stroke-width="0" stroke-linecap="butt"/><path d="M76.52083,181.44824l-5.86639,-7.36327l9.66794,-1.62396l3.27299,6.9192z" fill="#ffffff" stroke="none" stroke-width="0" stroke-linecap="butt"/><path d="M87.4686,178.14314l-1.91052,-8.24849l26.2696,-17.06585l-1.91052,20.65075z" fill="#000000" stroke="none" stroke-width="0" stroke-linecap="butt"/><path d="M93.3643,175.40794l-2.26874,-7.28384l8.31377,-4.78748l1.52992,9.67199z" fill="#ffffff" stroke="none" stroke-width="0" stroke-linecap="butt"/><path d="M77.51796,198.36276c-9.87998,-2.36392 -14.8065,-9.07495 -14.8065,-9.07495l34.15048,-9.7914c0,0 0.20239,2.8288 0.65499,3.69919c0.55945,1.07586 2.4496,2.27117 2.4496,2.27117c0,0 -12.56859,15.2599 -22.44856,12.89598z" fill="url(#color-22)" stroke="url(#color-23)" stroke-width="1" stroke-linecap="butt"/><path d="M93.42742,221.48717c-1.37098,-6.62942 2.89183,-13.11502 9.52127,-14.486c6.62942,-1.37097 13.11502,2.89183 14.48601,9.52126c1.37098,6.62942 -2.89183,13.11503 -9.52126,14.48601c-6.62942,1.37097 -13.11503,-2.89184 -14.48601,-9.52127z" fill="url(#color-24)" stroke="none" stroke-width="0" stroke-linecap="butt"/><path d="M110.33466,222.15631c0,0 70.83256,-11.49378 78.59507,-35.4024c7.53751,-33.87334 -81.69321,-35.3064 -81.69321,-35.3064c0,0 184.67003,-3.76637 179.28398,65.51718c-3.53453,45.46651 -79.49865,87.30996 -79.49865,87.30996z" fill="url(#color-25)" stroke="none" stroke-width="0" stroke-linecap="butt"/><path d="M260.01989,258.34728c0,0 -5.18312,6.67953 -8.88655,9.60328c-3.11287,2.45753 -11.87166,6.78478 -11.87166,6.78478l-11.07052,-8.1155l-12.3436,-19.15029z" fill="url(#color-26)" stroke="#000000" stroke-width="0" stroke-linecap="butt"/><path d="M161.32735,217.7413l119.45075,10.01493c0,0 -0.5053,3.1924 -2.39518,5.78484c-3.95986,5.43195 -7.80184,5.50471 -7.80184,5.50471z" fill="url(#color-27)" stroke="#000000" stroke-width="0" stroke-linecap="butt"/><path d="M180.26466,206.81594l101.60597,-0.54627l1.45671,5.82686z" fill="url(#color-28)" stroke="#000000" stroke-width="0" stroke-linecap="butt"/><path d="M192.2826,195.16221l82.30448,-3.09552l4.37015,4.00597z" fill="url(#color-29)" stroke="#000000" stroke-width="0" stroke-linecap="butt"/><path d="M115.92733,223.19947c0,0 39.22436,-3.96954 67.78432,6.64189c30.96846,11.5063 35.6099,23.63783 36.68001,28.73169c1.42731,6.79413 -0.88593,15.2648 -0.88593,15.2648" fill="none" stroke="#000000" stroke-width="2" stroke-linecap="round"/><path d="M75.64336,213.01738c0,0 -2.4614,-6.18972 -1.13466,-7.06228c1.34034,-0.8815 6.27055,-2.33963 6.27055,-2.33963l26.74097,10.14671l4.6648,7.18639l99.14596,19.89556c0,0 7.39878,15.73129 9.42673,24.0511c1.75297,7.19176 -4.33173,26.79944 -4.33173,26.79944l-12.98996,17.75145l-2.87094,-60.61865l-92.15703,-25.65039l-4.88081,-4.64538z" fill="url(#color-30)" stroke="none" stroke-width="0" stroke-linecap="butt"/><path d="M80.69055,210.93092c-1.08736,-5.25798 2.2936,-10.40189 7.55158,-11.48925c5.25798,-1.08736 10.4019,2.29359 11.48926,7.55157c1.08736,5.25799 -2.2936,10.40189 -7.55158,11.48925c-5.25798,1.08736 -10.4019,-2.29359 -11.48926,-7.55157z" fill="url(#color-31)" stroke="none" stroke-width="0" stroke-linecap="butt"/><path d="M114.10801,241.36122l-6.32509,-18.67652l96.16264,27.42045c0,0 5.11201,16.28194 5.67498,24.73263c0.83421,12.52214 -7.33548,34.35996 -7.33548,34.35996z" fill="url(#color-32)" stroke="none" stroke-width="0" stroke-linecap="butt"/><path d="M116.9622,227.08418l83.74429,24.93223c0,0 4.57449,16.48987 4.73825,25.96031c0.18708,10.81966 -5.47644,26.70679 -5.47644,26.70679c0,0 0.67628,-21.03318 -0.96949,-27.46933c-0.60494,-2.36574 -13.19983,-11.36161 -13.19983,-11.36161l-1.95934,12.8204l-4.86293,-17.30235l-22.32488,-11.7485l37.78065,9.65938l-43.58656,-18.11496l1.60934,14.98691l-9.42225,-18.23402z" fill-opacity="0.57255" fill="#ffffff" stroke="none" stroke-width="0" stroke-linecap="butt"/><path d="M70.84906,283.51294l14.15096,-2.1796l28.33333,-37.66667l1.15106,2.9049l-26.4844,42.42843l-17.52765,-1.43451z" fill="url(#color-33)" stroke="none" stroke-width="0" stroke-linecap="butt"/><path d="M148.82919,234.08334l-6.25,-6.25l23.5,9l-2.55612,-5.09032l16.14449,8.28306l11.91811,3.92469l-7.72507,-8.24329l20.23129,10.74041l-4.30325,-6.87131l12.29054,4.75675l-3.9235,4.73834l1.82332,26.50491l-5.14981,-25.49325z" fill="url(#color-34)" stroke="#000000" stroke-width="0" stroke-linecap="butt"/></g><path d="M63.88178,256.90313c25.32679,0 45.85819,20.53141 45.85819,45.85819c0,25.32679 -20.5314,45.85819 -45.85819,45.85819c-25.32678,0 -45.85819,-20.5314 -45.85819,-45.85819c0,-25.32679 20.5314,-45.85819 45.85819,-45.85819z" fill="url(#color-35)" stroke="none" stroke-width="0" stroke-linecap="butt"/><path d="M75.80188,284.5966c25.32679,0 45.85819,20.53141 45.85819,45.85819c0,25.32679 -20.5314,45.85819 -45.85819,45.85819c-25.32679,0 -45.85819,-20.5314 -45.85819,-45.85819c0,-25.32679 20.5314,-45.85819 45.85819,-45.85819z" fill="url(#color-36)" stroke="none" stroke-width="0" stroke-linecap="butt"/></g></g></svg>