<svg version="1.1" xmlns="http://www.w3.org/2000/svg" xmlns:xlink="http://www.w3.org/1999/xlink" width="85.86416" height="85.1717" viewBox="0,0,85.86416,85.1717"><defs><radialGradient cx="237.47427" cy="180" r="35.14201" gradientUnits="userSpaceOnUse" id="color-1"><stop offset="0" stop-color="#000000"/><stop offset="1" stop-color="#000000" stop-opacity="0"/></radialGradient><linearGradient x1="213.11818" y1="179.00772" x2="265.79938" y2="179.00772" gradientUnits="userSpaceOnUse" id="color-2"><stop offset="0" stop-color="#ff644a"/><stop offset="1" stop-color="#db0000"/></linearGradient><linearGradient x1="213.11818" y1="179.00772" x2="265.79938" y2="179.00772" gradientUnits="userSpaceOnUse" id="color-3"><stop offset="0" stop-color="#c30000"/><stop offset="1" stop-color="#ff7777"/></linearGradient><linearGradient x1="265.80305" y1="179.00772" x2="213.12186" y2="179.00772" gradientUnits="userSpaceOnUse" id="color-4"><stop offset="0" stop-color="#c30000"/><stop offset="1" stop-color="#ff7777"/></linearGradient><linearGradient x1="216.0085" y1="159.71404" x2="262.37517" y2="159.71404" gradientUnits="userSpaceOnUse" id="color-5"><stop offset="0" stop-color="#ff7777"/><stop offset="1" stop-color="#c30000"/></linearGradient><linearGradient x1="216.0085" y1="199.40535" x2="262.37517" y2="199.40535" gradientUnits="userSpaceOnUse" id="color-6"><stop offset="0" stop-color="#ff7777"/><stop offset="1" stop-color="#c30000"/></linearGradient><linearGradient x1="196.06634" y1="181.6186" x2="220.29688" y2="181.6186" gradientUnits="userSpaceOnUse" id="color-7"><stop offset="0" stop-color="#ff0000"/><stop offset="1" stop-color="#000000"/></linearGradient></defs><g transform="translate(-194.54218,-137.41415)"><g data-paper-data="{&quot;isPaintingLayer&quot;:true}" fill-rule="nonzero" stroke-linecap="butt" stroke-linejoin="miter" stroke-miterlimit="10" stroke-dasharray="" stroke-dashoffset="0" style="mix-blend-mode: normal"><path d="M194.54218,222.58585v-85.1717h85.86416v85.1717z" fill="none" stroke="none" stroke-width="NaN"/><path d="M202.33225,180c0,-19.4084 15.73362,-35.14201 35.14201,-35.14201c19.4084,0 35.14201,15.73362 35.14201,35.14201c0,19.4084 -15.73362,35.14201 -35.14201,35.14201c-19.4084,0 -35.14201,-15.73362 -35.14201,-35.14201z" fill="url(#color-1)" stroke="#000000" stroke-width="0"/><path d="M265.79938,179.00772c0,17.4869 -10.74,32.56492 -25.28751,32.56492c-14.54751,0 -27.39369,-15.07801 -27.39369,-32.56492c0,-17.4869 11.40286,-31.30201 25.95037,-31.30201c14.54751,0 26.73083,13.81511 26.73083,31.30201z" fill="url(#color-2)" stroke="#ffffff" stroke-width="0"/><path d="M265.79938,179.00772c0,17.4869 -10.74,32.56492 -25.28751,32.56492c-14.54751,0 -27.39369,-15.07801 -27.39369,-32.56492c0,-17.4869 11.40286,-31.30201 25.95037,-31.30201c14.54751,0 26.73083,13.81511 26.73083,31.30201z" fill="url(#color-3)" stroke="#ffffff" stroke-width="0"/><path d="M239.67227,169.35551c14.54751,0 25.70907,-2.77724 26.13078,9.6522c0.43409,12.79427 -11.76368,10.55428 -26.3112,10.55428c-14.54751,0 -26.60411,-3.35373 -26.37,-10.55428c0.21524,-4.31594 12.00291,-9.6522 26.55042,-9.6522z" data-paper-data="{&quot;index&quot;:null}" fill="url(#color-4)" stroke="#ffffff" stroke-width="0"/><path d="M240.15711,153.71811c15.07545,0 22.21805,10.72895 22.21805,10.72895c0,0 -8.63831,-3.15501 -23.71376,-3.15501c-15.07545,0 -22.65291,4.41791 -22.65291,4.41791c0,0 9.07317,-11.99185 24.14862,-11.99185z" data-paper-data="{&quot;index&quot;:null}" fill="url(#color-5)" stroke="#ffffff" stroke-width="0"/><path d="M216.0085,193.40942c0,0 7.57747,4.4179 22.65291,4.4179c15.07545,0 23.71376,-3.155 23.71376,-3.155c0,0 -7.14261,10.72895 -22.21805,10.72895c-15.07545,0 -24.14862,-11.99185 -24.14862,-11.99185z" data-paper-data="{&quot;index&quot;:null}" fill="url(#color-6)" stroke="#ffffff" stroke-width="0"/><g fill="url(#color-7)" stroke="#000000" stroke-width="0"><path d="M219.73528,179.1525l-8.49374,5.87353l1.4624,7.1874l-5.42498,-7.2821l7.51255,-6.83762l-3.93923,-0.84365l-8.14488,7.95762l10.73087,11.59826l-13.27387,-1.20531l-4.09807,-16.97726l10.73673,-12.1921l7.95452,3.70565l-4.77613,-10.6943l7.31204,-4.75375l-2.77704,7.73817l5.78044,10.15098z"/></g><path d="M252.97861,188.89426l-6.29355,-8.74405l6.29355,-8.74405z" fill="#000000" stroke="none" stroke-width="0"/><path d="M249.92151,173.15087l-11.94214,-11.83561l9.36479,-4.25817z" data-paper-data="{&quot;index&quot;:null}" fill="#000000" stroke="none" stroke-width="0"/><path d="M247.76334,203.24334l-9.57957,-4.619l12.15691,-11.47478z" data-paper-data="{&quot;index&quot;:null}" fill="#000000" stroke="none" stroke-width="0"/><path d="M253.58109,199.61412l2.70623,-16.41777l4.47618,-3.96913l-4.65659,-4.8712l-2.88664,-15.5157l5.36519,1.50351l-0.96216,6.54293l4.07953,3.70527l-0.1201,15.4074l-3.48076,3.61455l0.82581,7.34754z" fill="#000000" stroke="none" stroke-width="0"/></g></g></svg>