<svg version="1.1" xmlns="http://www.w3.org/2000/svg" xmlns:xlink="http://www.w3.org/1999/xlink" width="37.6" height="43.6" viewBox="0,0,37.6,43.6"><g transform="translate(-221.2,-158.2)"><g data-paper-data="{&quot;isPaintingLayer&quot;:true}" fill-rule="nonzero" stroke="none" stroke-linecap="butt" stroke-linejoin="miter" stroke-miterlimit="10" stroke-dasharray="" stroke-dashoffset="0" style="mix-blend-mode: normal"><path d="M221.2,201.8v-43.6h37.6v43.6z" fill="none" stroke-width="0"/><path d="M240.00003,195.3323c-2.07412,0 -3.91101,-0.46769 -5.51067,-1.40308c-1.5861,-0.94895 -2.80618,-2.20969 -3.66022,-3.78224c-0.85406,-1.57254 -1.28109,-3.28743 -1.28109,-5.14468c0,-1.93855 0.54904,-4.12113 1.64711,-6.54773c1.11162,-2.4266 2.49437,-4.7583 4.14826,-6.99511c1.66743,-2.25037 3.26031,-4.08048 4.77863,-5.49035c0.1898,-0.20334 0.63038,-0.53547 1.32175,-0.99639c0.3118,-0.20334 0.73204,-0.30501 1.26075,-0.30501c0.37958,0 0.79982,0.14912 1.26075,0.44737c0.47447,0.29823 0.87438,0.69136 1.19974,1.17939c0.32536,0.48803 0.48804,0.9625 0.48804,1.42342c0,0.42025 -0.29146,0.98962 -0.87438,1.70812c-0.42025,0.51514 -1.35564,1.57253 -2.80619,3.17218c-1.43698,1.59967 -2.41304,2.75874 -2.92818,3.47722l0.08123,0.08123c0.74561,-0.32536 1.61999,-0.48804 2.62316,-0.48804c1.2472,0 2.39949,0.25757 3.45688,0.77271c1.07097,0.50159 1.99281,1.17942 2.76552,2.03348c0.77272,0.85404 1.37597,1.84366 1.80977,2.96884c0.44737,1.12518 0.67106,2.31137 0.67106,3.55855c0,1.80301 -0.44737,3.49757 -1.3421,5.08367c-0.89471,1.5861 -2.14868,2.8604 -3.76189,3.8229c-1.59967,0.94895 -3.38234,1.42342 -5.34802,1.42342zM240.00003,180.67105c-0.77272,0 -1.46409,0.18979 -2.07412,0.56936c-0.59648,0.37958 -1.06418,0.90828 -1.40311,1.5861c-0.32534,0.66426 -0.48801,1.38953 -0.48801,2.17579c0,1.20653 0.35924,2.23004 1.07772,3.07054c0.73204,0.8405 1.69455,1.26075 2.88751,1.26075c1.16586,0 2.1148,-0.41347 2.84685,-1.2404c0.73204,-0.8405 1.09807,-1.87079 1.09807,-3.09088c0,-0.75915 -0.14912,-1.46408 -0.44735,-2.11478c-0.29825,-0.66426 -0.73883,-1.19975 -1.32175,-1.60645c-0.58292,-0.40669 -1.30819,-0.61003 -2.17581,-0.61003z" fill="#ff0000" stroke-width="0.40889"/></g></g></svg>