<svg version="1.1" xmlns="http://www.w3.org/2000/svg" xmlns:xlink="http://www.w3.org/1999/xlink" width="80.13905" height="79.49276" viewBox="0,0,80.13905,79.49276"><defs><radialGradient cx="240.00004" cy="180" r="32.79887" gradientUnits="userSpaceOnUse" id="color-1"><stop offset="0" stop-color="#000000"/><stop offset="1" stop-color="#000000" stop-opacity="0"/></radialGradient><linearGradient x1="240.00006" y1="156.06466" x2="240.00006" y2="203.93534" gradientUnits="userSpaceOnUse" id="color-2"><stop offset="0" stop-color="#ffffff"/><stop offset="1" stop-color="#ffa0a0"/></linearGradient><linearGradient x1="206.2594" y1="185.57942" x2="230.35326" y2="183.09813" gradientUnits="userSpaceOnUse" id="color-3"><stop offset="0" stop-color="#717171"/><stop offset="1" stop-color="#000000"/></linearGradient><linearGradient x1="226.52233" y1="154.38029" x2="226.52233" y2="205.26423" gradientUnits="userSpaceOnUse" id="color-4"><stop offset="0" stop-color="#fe445e"/><stop offset="1" stop-color="#e10000"/></linearGradient><linearGradient x1="233.31725" y1="180.21414" x2="245.33544" y2="180.21414" gradientUnits="userSpaceOnUse" id="color-5"><stop offset="0" stop-color="#464646"/><stop offset="1" stop-color="#000000"/></linearGradient><linearGradient x1="216.81319" y1="178.64616" x2="249.53688" y2="178.64616" gradientUnits="userSpaceOnUse" id="color-6"><stop offset="0" stop-color="#ff8194"/><stop offset="1" stop-color="#e10000"/></linearGradient></defs><g transform="translate(-199.93051,-140.25362)"><g data-paper-data="{&quot;isPaintingLayer&quot;:true}" fill-rule="nonzero" stroke-linejoin="miter" stroke-miterlimit="10" stroke-dasharray="" stroke-dashoffset="0" style="mix-blend-mode: normal"><path d="M199.93052,219.74638v-79.49276h80.13905v79.49276z" fill="none" stroke="none" stroke-width="NaN" stroke-linecap="butt"/><path d="M207.20116,180c0,-18.11432 14.68456,-32.79887 32.79887,-32.79887c18.11432,0 32.79887,14.68456 32.79887,32.79887c0,18.11432 -14.68456,32.79887 -32.79887,32.79887c-18.11432,0 -32.79887,-14.68456 -32.79887,-32.79887z" fill="url(#color-1)" stroke="#000000" stroke-width="0" stroke-linecap="butt"/><path d="M216.06472,180c0,-13.21912 10.71622,-23.93534 23.93534,-23.93534c13.21912,0 23.93534,10.71622 23.93534,23.93534c0,13.21912 -10.71622,23.93534 -23.93534,23.93534c-13.21912,0 -23.93534,-10.71622 -23.93534,-23.93534z" fill="url(#color-2)" stroke="#000000" stroke-width="0" stroke-linecap="butt"/><path d="M246.16395,190.6726c0,-2.44128 1.97905,-4.42033 4.42033,-4.42033c2.44128,0 4.42033,1.97905 4.42033,4.42033c0,2.44128 -1.97905,4.42033 -4.42033,4.42033c-2.44128,0 -4.42033,-1.97905 -4.42033,-4.42033z" fill="#000000" stroke="#000000" stroke-width="0" stroke-linecap="butt"/><path d="M246.2132,169.32741c0,-2.44128 1.97905,-4.42033 4.42033,-4.42033c2.44128,0 4.42033,1.97905 4.42033,4.42033c0,2.44128 -1.97905,4.42033 -4.42033,4.42033c-2.44128,0 -4.42033,-1.97905 -4.42033,-4.42033z" fill="#000000" stroke="#000000" stroke-width="0" stroke-linecap="butt"/><path d="M257.19196,184.58452v-9.16903" fill="none" stroke="#000000" stroke-width="2" stroke-linecap="round"/><path d="M207.1332,194.06417l-5.72742,-12.39744l3.69643,-7.32386l24.26746,-13.05773l2.82565,39.69976z" fill="url(#color-3)" stroke="none" stroke-width="0" stroke-linecap="butt"/><path d="M225.18185,202.21668c-3.96161,-4.33593 -10.36543,-6.68986 -10.72393,-24.03639c-0.0357,-1.72726 0.16116,-3.923 0.16116,-3.923l-4.32875,-2.2089c0,0 -0.32065,-4.48509 0.36217,-6.42115c0.77011,-2.18356 4.02821,-6.02728 4.02821,-6.02728l4.72059,2.88252c0,0 2.62347,-2.41973 4.48628,-3.7162c9.69783,-6.74945 16.82547,-3.69791 16.82547,-3.69791l-0.73958,49.92173c0,0 -10.83002,1.56251 -14.79163,-2.77343z" fill="url(#color-4)" stroke="none" stroke-width="0" stroke-linecap="butt"/><path d="M233.31725,206.28437c0,0 3.43441,-15.50401 3.43441,-28.01353c0,-11.5101 -3.43441,-24.12695 -3.43441,-24.12695h8.50518c0,0 3.36435,11.54828 3.51301,23.91942c0.1456,12.11662 -3.51301,28.22106 -3.51301,28.22106z" fill="url(#color-5)" stroke="#000000" stroke-width="0" stroke-linecap="butt"/><path d="M236.48213,154.77217c0,0 2.92434,8.71651 3.19761,22.50678c0.29163,14.71736 -3.40315,28.37715 -3.40315,28.37715" fill="none" stroke="#ff0000" stroke-width="1" stroke-linecap="round"/><path d="M240.33088,154.77217c0,0 3.00858,11.49506 3.19761,22.50678c0.17606,10.25586 -3.40315,28.37715 -3.40315,28.37715" fill="none" stroke="#ff0000" stroke-width="1" stroke-linecap="round"/><g fill-opacity="0.46275" fill="#ffffff" stroke="none" stroke-width="0" stroke-linecap="butt"><path d="M224.75921,200.98619l1.34591,-3.31659l3.96426,-0.36279l-1.47298,4.37801z"/><path d="M227.06719,196.2382l1.34591,-3.31659l3.02882,-0.47478l-1.04821,3.47186z"/><path d="M228.72331,191.65142l1.34591,-3.31659l1.61153,-0.52483l-0.53813,3.17404z"/></g><path d="M228.76787,191.23727c0,0 -21.82164,-11.68283 -6.50022,-23.16352c11.19263,-8.3869 27.26923,12.07113 27.26923,12.07113l-0.79271,5.21995l-2.42898,-4.17965c0,0 -8.61867,-0.2721 -14.28223,3.99844c-1.61311,1.21634 -3.26508,6.05365 -3.26508,6.05365z" fill="url(#color-6)" stroke="none" stroke-width="0" stroke-linecap="butt"/><g data-paper-data="{&quot;index&quot;:null}" fill-opacity="0.46275" fill="#ffffff" stroke="none" stroke-width="0" stroke-linecap="butt"><path d="M239.53958,171.2217l-0.96512,2.06421l-2.84268,0.26015l1.05624,-3.76745z"/><path d="M237.88458,174.31233l-0.96512,2.37825l-2.1719,0.34045l0.75165,-2.48959z"/></g><g stroke="none" stroke-width="0" stroke-linecap="butt"><path d="M232.91902,172.73488c1.18097,3.02724 -1.07082,6.73326 -5.02953,8.27761c-3.95871,1.54435 -8.12525,0.34223 -9.30623,-2.68501c-1.18097,-3.02724 1.07082,-6.73326 5.02954,-8.27762c3.95871,-1.54435 8.12525,-0.34223 9.30622,2.68501z" fill="#ffffff"/><path d="M230.35362,172.63441c0.76309,1.95607 -0.84583,4.41077 -3.59365,5.48274c-2.74781,1.07197 -5.59396,0.35526 -6.35706,-1.60081c-0.76309,-1.95607 0.84583,-4.41078 3.59365,-5.48274c2.74781,-1.07197 5.59396,-0.35525 6.35706,1.60082z" fill="#ff0026"/><path d="M226.12115,178.39886c-1.80265,0.70325 -3.6764,0.21618 -4.18513,-1.08785c-0.50873,-1.30405 0.5402,-2.93127 2.34286,-3.63452c1.80265,-0.70325 3.6764,-0.21618 4.18512,1.08786c0.50873,1.30405 -0.5402,2.93127 -2.34285,3.63452z" fill="#ffffff"/></g><g stroke="none" stroke-width="0" stroke-linecap="butt"><path d="M246.18207,178.06425c-0.76695,1.53928 -3.02047,1.97407 -5.03337,0.97113c-2.0129,-1.00294 -3.02294,-3.06381 -2.25599,-4.60309c0.76695,-1.53928 3.02047,-1.97407 5.03337,-0.97113c2.0129,1.00294 3.02295,3.06382 2.25599,4.60309z" fill="#ffffff"/><path d="M245.34497,176.95135c-0.49557,0.99461 -2.02996,1.23656 -3.42715,0.5404c-1.39719,-0.69616 -2.1281,-2.0668 -1.63253,-3.06141c0.49557,-0.99461 2.02995,-1.23656 3.42714,-0.5404c1.39719,0.69616 2.1281,2.0668 1.63253,3.06141z" fill="#ff0026"/><path d="M241.54467,177.41288c-0.9166,-0.4567 -1.39183,-1.36446 -1.06145,-2.02753c0.33038,-0.66307 1.34126,-0.83037 2.25786,-0.37367c0.9166,0.4567 1.39183,1.36446 1.06145,2.02753c-0.33038,0.66307 -1.34126,0.83037 -2.25786,0.37367z" fill="#ffffff"/></g></g></g></svg>