<svg version="1.1" xmlns="http://www.w3.org/2000/svg" xmlns:xlink="http://www.w3.org/1999/xlink" width="80.23269" height="67.99819" viewBox="0,0,80.23269,67.99819"><defs><radialGradient cx="240" cy="180.00003" r="33.99909" gradientUnits="userSpaceOnUse" id="color-1"><stop offset="0" stop-color="#000000"/><stop offset="1" stop-color="#000000" stop-opacity="0"/></radialGradient><linearGradient x1="239.7018" y1="156.1756" x2="239.7018" y2="203.82441" gradientUnits="userSpaceOnUse" id="color-2"><stop offset="0" stop-color="#ff4c4c"/><stop offset="1" stop-color="#bb0000"/></linearGradient><linearGradient x1="229.07042" y1="157.25358" x2="229.07042" y2="203.53678" gradientUnits="userSpaceOnUse" id="color-3"><stop offset="0" stop-color="#9d0000"/><stop offset="1" stop-color="#480000"/></linearGradient><linearGradient x1="223.32172" y1="157.342" x2="223.32172" y2="203.62521" gradientUnits="userSpaceOnUse" id="color-4"><stop offset="0" stop-color="#ff0000"/><stop offset="1" stop-color="#9e0000"/></linearGradient><linearGradient x1="210.61181" y1="161.72536" x2="210.61181" y2="199.56948" gradientUnits="userSpaceOnUse" id="color-5"><stop offset="0" stop-color="#b50000"/><stop offset="1" stop-color="#2c0000"/></linearGradient><linearGradient x1="215.0444" y1="162.79437" x2="215.0444" y2="198.02209" gradientUnits="userSpaceOnUse" id="color-6"><stop offset="0" stop-color="#ff0000"/><stop offset="1" stop-color="#9d0000"/></linearGradient><linearGradient x1="198.16129" y1="161.72536" x2="198.16129" y2="199.56948" gradientUnits="userSpaceOnUse" id="color-7"><stop offset="0" stop-color="#6b0000"/><stop offset="1" stop-color="#2c0000"/></linearGradient></defs><g transform="translate(-193.7664,-146.00093)"><g data-paper-data="{&quot;isPaintingLayer&quot;:true}" fill-rule="nonzero" stroke-linejoin="miter" stroke-miterlimit="10" stroke-dasharray="" stroke-dashoffset="0" style="mix-blend-mode: normal"><path d="M240,213.99913c-18.77718,0 -33.99909,-15.22192 -33.99909,-33.9991c0,-18.77718 15.22191,-33.99909 33.99909,-33.99909c18.77718,0 33.99909,15.22191 33.99909,33.99909c0,18.77718 -15.22191,33.9991 -33.99909,33.9991z" fill="url(#color-1)" stroke="none" stroke-width="0" stroke-linecap="butt"/><path d="M239.7018,156.1756c13.71947,0 24.8413,10.66655 24.8413,23.8244c0,13.15785 -11.12183,23.8244 -24.8413,23.8244c-13.71947,0 -24.8413,-10.66655 -24.8413,-23.8244c0,-13.15785 11.12183,-23.8244 24.8413,-23.8244z" fill="url(#color-2)" stroke="none" stroke-width="0" stroke-linecap="butt"/><path d="M249.49028,194.457c-1.80409,0 -3.2666,-1.46251 -3.2666,-3.2666c0,-1.80409 1.46251,-3.2666 3.2666,-3.2666c1.80409,0 3.2666,1.46251 3.2666,3.2666c0,1.80409 -1.46251,3.2666 -3.2666,3.2666z" fill="#000000" stroke="none" stroke-width="0.5" stroke-linecap="butt"/><path d="M247.74404,163.83342c3.41117,0 6.17647,2.9002 6.17647,6.47776c0,3.57757 -2.7653,6.47776 -6.17647,6.47776c-3.41117,0 -6.17647,-2.9002 -6.17647,-6.47776c0,-3.57756 2.7653,-6.47776 6.17647,-6.47776z" fill="#ffffff" stroke="none" stroke-width="0" stroke-linecap="butt"/><path d="M249.2332,173.47243c-1.80409,0 -3.2666,-1.46251 -3.2666,-3.2666c0,-1.80409 1.46251,-3.2666 3.2666,-3.2666c1.80409,0 3.2666,1.46251 3.2666,3.2666c0,1.80409 -1.46251,3.2666 -3.2666,3.2666z" fill="#000000" stroke="none" stroke-width="0.5" stroke-linecap="butt"/><path d="M257.51602,167.62988c0.39729,0 1.59432,-1.09424 2.77991,-2.14034c0.5823,-0.51379 0.87294,-2.24643 1.05495,-3.87368c0.19475,-1.74105 -1.38529,-4.74884 -1.21505,-4.62671c0.32804,0.23532 2.34395,3.36092 2.59745,5.4254c0.30223,2.46123 0.44532,5.38618 0.17613,6.78117c-0.46236,2.39605 -1.06101,4.87839 -1.06101,5.93806c0,3.22482 -1.00052,5.56157 -3.50719,5.56157c-2.50666,0 -4.5387,-2.61423 -4.5387,-5.83905c0,-3.22482 1.20683,-7.22642 3.71349,-7.22642z" fill="#000000" stroke="#000000" stroke-width="0" stroke-linecap="butt"/><path d="M258.0078,179.58252c2.54,0 3.98018,3.35012 3.98018,6.79814c0,1.17498 0.53478,3.3844 0.89279,5.43307c0.15837,0.90626 0.08016,2.59608 -0.11747,4.24468c-0.24899,2.07695 -1.51272,6.03081 -1.90648,6.32774c-0.26363,0.1988 0.29215,-3.91808 -0.20833,-5.71379c-0.26816,-0.96215 -0.60265,-1.81554 -1.03811,-2.13682c-0.78809,-0.58143 -1.49569,-1.07925 -1.80885,-1.07925c-2.54,0 -4.39278,-4.18255 -4.39278,-7.63057c0,-3.44802 2.05908,-6.24319 4.59908,-6.24319z" fill="#000000" stroke="#000000" stroke-width="0" stroke-linecap="butt"/><path d="M224.24892,161.39063l3.04516,-2.32709l4.31397,-1.80996l-1.77634,3.36135l2.03011,3.61991l-2.53763,4.39561l3.29892,4.13705l-3.29892,8.01553l4.31397,6.98127l-4.06021,5.94701l4.31397,9.82548l-4.56773,-1.55139l-4.56773,-3.10279z" fill="url(#color-3)" stroke="#9d0000" stroke-width="0" stroke-linecap="round"/><path d="M221.46712,157.342c0,0 3.76882,14.52898 3.70849,24.12871c-0.05542,8.81821 -3.41568,22.15449 -3.41568,22.15449" fill="none" stroke="url(#color-4)" stroke-width="5" stroke-linecap="round"/><path d="M198.16129,199.56948l0.55372,-37.84411l21.64692,1.42509c0,0 2.7004,11.25995 2.7004,16.62931c0,5.99403 -2.43236,17.66753 -2.43236,17.66753" fill="url(#color-5)" stroke="#6a0000" stroke-width="0" stroke-linecap="round"/><path d="M216.49704,197.73055l-5.14268,0.29154c0,0 2.47712,-12.79472 2.47712,-18.72824c0,-5.59475 -2.47712,-16.49948 -2.47712,-16.49948l5.14268,0.19437c0,0 2.2374,10.45231 2.2374,15.91639c0,6.02854 -2.2374,18.82543 -2.2374,18.82543z" fill="url(#color-6)" stroke="#a10000" stroke-width="0" stroke-linecap="butt"/><path d="M202.55618,180.64743c0,10.45036 -1.96766,18.92205 -4.39489,18.92205c-2.42723,0 -4.39489,-8.47169 -4.39489,-18.92205c0,-10.45036 1.96766,-18.92205 4.39489,-18.92205c2.42723,0 4.39489,8.47169 4.39489,18.92205z" fill="url(#color-7)" stroke="#a10000" stroke-width="0" stroke-linecap="butt"/></g></g></svg>