<svg version="1.1" xmlns="http://www.w3.org/2000/svg" xmlns:xlink="http://www.w3.org/1999/xlink" width="88.42581" height="88.42581" viewBox="0,0,88.42581,88.42581"><defs><radialGradient cx="239.99999" cy="181.33333" r="40.69521" gradientUnits="userSpaceOnUse" id="color-1"><stop offset="0" stop-color="#0073ff" stop-opacity="0.74902"/><stop offset="1" stop-color="#0073ff" stop-opacity="0"/></radialGradient><linearGradient x1="208.58119" y1="178.08298" x2="274.13043" y2="178.08298" gradientUnits="userSpaceOnUse" id="color-2"><stop offset="0" stop-color="#ff7519"/><stop offset="1" stop-color="#ffab19"/></linearGradient><linearGradient x1="220.79412" y1="192.51181" x2="274.76084" y2="192.51181" gradientUnits="userSpaceOnUse" id="color-3"><stop offset="0" stop-color="#e0e0e0"/><stop offset="1" stop-color="#ffffff"/></linearGradient><linearGradient x1="234.19297" y1="194.79364" x2="259.1926" y2="194.79364" gradientUnits="userSpaceOnUse" id="color-4"><stop offset="0" stop-color="#000000"/><stop offset="1" stop-color="#717171"/></linearGradient><linearGradient x1="248.34824" y1="180.409" x2="248.34824" y2="186.27716" gradientUnits="userSpaceOnUse" id="color-5"><stop offset="0" stop-color="#696969"/><stop offset="1" stop-color="#001026"/></linearGradient><linearGradient x1="247.80824" y1="172.31653" x2="262.4862" y2="172.31653" gradientUnits="userSpaceOnUse" id="color-6"><stop offset="0" stop-color="#d0d0d0"/><stop offset="1" stop-color="#ffffff"/></linearGradient><linearGradient x1="222.4198" y1="175.40702" x2="237.63488" y2="175.40702" gradientUnits="userSpaceOnUse" id="color-7"><stop offset="0" stop-color="#d0d0d0"/><stop offset="1" stop-color="#ffffff"/></linearGradient></defs><g transform="translate(-195.78711,-135.7871)"><g data-paper-data="{&quot;isPaintingLayer&quot;:true}" stroke-miterlimit="10" stroke-dasharray="" stroke-dashoffset="0" style="mix-blend-mode: normal"><path d="M199.3048,181.33333c0,-22.47533 18.21985,-40.69519 40.69519,-40.69519c22.47533,0 40.69521,18.21985 40.69521,40.69519c0,22.47533 -18.21986,40.69519 -40.69521,40.69519c-22.47533,0 -40.69519,-18.21985 -40.69519,-40.69519z" fill="url(#color-1)" fill-rule="nonzero" stroke="none" stroke-width="0" stroke-linecap="butt" stroke-linejoin="miter"/><path d="M195.78711,224.21291v-88.42581h88.42581v88.42581z" fill="none" fill-rule="nonzero" stroke="none" stroke-width="0" stroke-linecap="butt" stroke-linejoin="miter"/><g fill-rule="evenodd"><path d="M250.54722,149.03743c0.3,-0.2 0.8,-0.1 0.9,0.3l2.6,10.7c0,0 6.4,4.7 8.3,8c3.2,5.5 3.3,10 3.3,10c0,0 6.1415,2.4195 7.3415,8.1195c1.2,5.7 -2.24149,16.1805 -21.04149,19.8805c-18.8,3.7 -33.9,-1.4 -41,-12.8c-7.1,-11.4 4.1,-25 3.5,-24.2l-2.1,-17.9c-0.1,-0.4 0.4,-0.7 0.8,-0.5l12.1,7.9c0,0 4.5,-1.7 9.2,-1.9c2.8,-0.2 5.2,0 7.5,0.4z" fill="url(#color-2)" stroke="none" stroke-width="0" stroke-linecap="butt" stroke-linejoin="miter"/><path d="M266.37796,178.44373c4.28884,0.91451 6.51249,2.62269 7.72845,8.39848c1.21596,5.77579 -3.16861,15.41399 -22.01593,19.06186c-24.52178,5.06649 -39.73928,-12.89973 -29.3856,-20.26593c6.78909,-4.83016 18.442,-1.62127 26.95369,-2.22925c7.29574,-0.50665 12.06171,-5.95832 16.7194,-4.96515z" fill="url(#color-3)" stroke="none" stroke-width="1" stroke-linecap="butt" stroke-linejoin="miter"/><path d="M234.24001,189.44197c0,-0.36547 0.4,-0.63957 0.8,-0.5482c1.9,0.63957 7.3,2.10144 13.3,2.46691c5.4,0.2741 8.6,0 10.1,-0.2741c0.5,-0.09136 0.9,0.36547 0.7,0.82231c-0.9,2.46691 -4.7,9.31944 -15.2,8.77124c-9.1,-0.91367 -10,-6.76117 -9.7,-11.23815z" fill="url(#color-4)" stroke="none" stroke-width="0" stroke-linecap="round" stroke-linejoin="round"/><path d="M248.4597,180.409c2.36469,0 4.84199,0.22521 4.9546,1.01344c0.1126,1.57646 -1.57646,4.72939 -3.37813,4.84199c-2.02688,0.22521 -6.75627,-2.5899 -6.75627,-4.39158c-0.1126,-1.35125 2.92772,-1.46386 5.17981,-1.46386z" fill="url(#color-5)" stroke="none" stroke-width="0" stroke-linecap="round" stroke-linejoin="round"/><path d="M260.24722,169.03743c2.9,4.5 3,9.6 0.2,11.4c-2.8,1.8 -7.4,-0.3 -10.4,-4.8c-2.9,-4.5 -3,-9.6 -0.2,-11.4c2.8,-1.9 7.5,0.3 10.4,4.8z" fill="url(#color-6)" stroke="#001026" stroke-width="0" stroke-linecap="round" stroke-linejoin="round"/><path d="M235.44722,171.83743c3,4.4 2.8,9.8 0.1,11.7c-3.3,1.9 -7.7,0.5 -10.7,-3.9c-3.1,-4.4 -3.3,-10.1 -0.2,-12.3c3.1,-2.3 7.8,0.1 10.8,4.5z" fill="url(#color-7)" stroke="#001026" stroke-width="0" stroke-linecap="round" stroke-linejoin="round"/><path d="M258.82453,173.7914c0,1.40744 -1.02359,2.55897 -2.30308,2.55897c-1.27948,0 -2.30307,-1.15153 -2.30307,-2.55897c0,-1.40744 1.02358,-2.55897 2.30307,-2.55897c1.27948,0 2.30308,1.15153 2.30308,2.55897" fill="#001026" stroke="none" stroke-width="1" stroke-linecap="butt" stroke-linejoin="miter"/><path d="M234.63349,177.02265c0,1.40744 -1.02359,2.55897 -2.30308,2.55897c-1.27948,0 -2.30307,-1.15153 -2.30307,-2.55897c0,-1.40744 1.02358,-2.55897 2.30307,-2.55897c1.27948,0.12795 2.30308,1.15153 2.30308,2.55897" fill="#001026" stroke="none" stroke-width="1" stroke-linecap="butt" stroke-linejoin="miter"/></g></g></g></svg>