<svg version="1.1" xmlns="http://www.w3.org/2000/svg" xmlns:xlink="http://www.w3.org/1999/xlink" width="37.6" height="45.5112" viewBox="0,0,37.6,45.5112"><g transform="translate(-221.20008,-158.2)"><g data-paper-data="{&quot;isPaintingLayer&quot;:true}" fill-rule="nonzero" stroke="none" stroke-linecap="butt" stroke-linejoin="miter" stroke-miterlimit="10" stroke-dasharray="" stroke-dashoffset="0" style="mix-blend-mode: normal"><path d="M221.20009,201.8v-43.6h37.6v43.6z" fill="none" stroke-width="0"/><path d="M237.44502,200.39665v-24.82856c0,-0.98962 0.27112,-1.78945 0.81337,-2.39947c0.55581,-0.62361 1.28108,-0.93541 2.17581,-0.93541c0.58292,0 1.09806,0.14234 1.54541,0.42703c0.46092,0.27114 0.82017,0.66428 1.07775,1.17942c0.25756,0.50159 0.38634,1.07774 0.38634,1.72844v24.82856c0,0.62359 -0.12878,1.19296 -0.38634,1.70809c-0.25758,0.51516 -0.61683,0.90829 -1.07775,1.17942c-0.46092,0.28469 -0.97606,0.42703 -1.54541,0.42703c-0.89473,0 -1.62,-0.30502 -2.17581,-0.91507c-0.54225,-0.59648 -0.81337,-1.39631 -0.81337,-2.39947zM240.4342,163.24531c0.59648,0 1.15229,0.1559 1.66743,0.46769c0.51514,0.3118 0.92861,0.72527 1.2404,1.24043c0.3118,0.50158 0.46769,1.03028 0.46769,1.5861c0,0.93539 -0.33213,1.74877 -0.99639,2.44014c-0.6507,0.67783 -1.44374,1.01674 -2.37913,1.01674c-0.88117,0 -1.66744,-0.35247 -2.35881,-1.0574c-0.67783,-0.70493 -1.01674,-1.50476 -1.01674,-2.39947c0,-0.85406 0.33891,-1.61322 1.01674,-2.27748c0.69137,-0.67783 1.47764,-1.01674 2.35881,-1.01674z" fill="#ff0000" stroke-width="0.40889"/></g></g></svg>