<svg version="1.1" xmlns="http://www.w3.org/2000/svg" xmlns:xlink="http://www.w3.org/1999/xlink" width="37.6" height="43.6" viewBox="0,0,37.6,43.6"><g transform="translate(-221.2,-158.2)"><g data-paper-data="{&quot;isPaintingLayer&quot;:true}" fill-rule="nonzero" stroke="none" stroke-linecap="butt" stroke-linejoin="miter" stroke-miterlimit="10" stroke-dasharray="" stroke-dashoffset="0" style="mix-blend-mode: normal"><path d="M221.2,201.8v-43.6h37.6v43.6z" fill="none" stroke-width="0"/><path d="M227.25021,190.90952l8.37786,-22.65275c0.39314,-1.04384 0.97606,-1.87756 1.74878,-2.50116c0.78627,-0.63715 1.68777,-0.95573 2.7045,-0.95573c1.07096,0 1.98601,0.3118 2.74517,0.93539c0.77272,0.62359 1.34209,1.46409 1.70811,2.52149l8.17451,22.65275c0.2169,0.59648 0.32536,1.11163 0.32536,1.54543c0,0.5287 -0.13556,1.00318 -0.40669,1.42342c-0.25757,0.42025 -0.60326,0.7456 -1.03707,0.97607c-0.4338,0.23045 -0.90828,0.34568 -1.42342,0.34568c-1.54543,0 -2.56216,-0.71849 -3.05019,-2.15546l-1.24041,-3.92458h-11.57039l-1.26075,3.88391c-0.46092,1.46409 -1.45731,2.19613 -2.98919,2.19613c-0.85405,0 -1.5861,-0.2779 -2.19614,-0.83371c-0.59648,-0.56937 -0.89472,-1.26075 -0.89472,-2.07413c0,-0.39313 0.09489,-0.85405 0.28468,-1.38275zM240.04068,171.30697l-3.94491,12.07876h7.91016l-3.88391,-12.07876z" fill="#ff0000" stroke-width="0.40889"/></g></g></svg>