<svg version="1.1" xmlns="http://www.w3.org/2000/svg" xmlns:xlink="http://www.w3.org/1999/xlink" width="58.36052" height="58.36052" viewBox="0,0,58.36052,58.36052"><defs><radialGradient cx="240.00003" cy="180.00001" r="29.18026" gradientUnits="userSpaceOnUse" id="color-1"><stop offset="0" stop-color="#ffffff"/><stop offset="1" stop-color="#ffffff" stop-opacity="0"/></radialGradient><radialGradient cx="240.00006" cy="180.00001" r="16.31554" gradientUnits="userSpaceOnUse" id="color-2"><stop offset="0" stop-color="#737373"/><stop offset="1" stop-color="#737373" stop-opacity="0"/></radialGradient><radialGradient cx="240.00001" cy="180.00001" r="20.29029" gradientUnits="userSpaceOnUse" id="color-3"><stop offset="0" stop-color="#ff0000" stop-opacity="0.50196"/><stop offset="1" stop-color="#ff0000" stop-opacity="0"/></radialGradient><linearGradient x1="244.18887" y1="165.99993" x2="235.68508" y2="192.78769" gradientUnits="userSpaceOnUse" id="color-4"><stop offset="0" stop-color="#ff3d3d"/><stop offset="1" stop-color="#e50000"/></linearGradient><linearGradient x1="247.00425" y1="163.42534" x2="244.70589" y2="170.66539" gradientUnits="userSpaceOnUse" id="color-5"><stop offset="0" stop-color="#ff0000"/><stop offset="1" stop-color="#b50000"/></linearGradient><linearGradient x1="239.64443" y1="180.89396" x2="239.10757" y2="182.58509" gradientUnits="userSpaceOnUse" id="color-6"><stop offset="0" stop-color="#ffffff" stop-opacity="0.42353"/><stop offset="1" stop-color="#ffffff" stop-opacity="0"/></linearGradient><linearGradient x1="240.97969" y1="174.30548" x2="240.3551" y2="176.27301" gradientUnits="userSpaceOnUse" id="color-7"><stop offset="0" stop-color="#ffffff" stop-opacity="0.56078"/><stop offset="1" stop-color="#ffffff" stop-opacity="0"/></linearGradient><linearGradient x1="242.74335" y1="169.84928" x2="242.34072" y2="171.11763" gradientUnits="userSpaceOnUse" id="color-8"><stop offset="0" stop-color="#ffffff" stop-opacity="0.56078"/><stop offset="1" stop-color="#ffffff" stop-opacity="0"/></linearGradient><linearGradient x1="238.37468" y1="186.35978" x2="237.97204" y2="187.62813" gradientUnits="userSpaceOnUse" id="color-9"><stop offset="0" stop-color="#ffffff" stop-opacity="0.42353"/><stop offset="1" stop-color="#ffffff" stop-opacity="0"/></linearGradient><linearGradient x1="243.92898" y1="184.25635" x2="243.21952" y2="186.49122" gradientUnits="userSpaceOnUse" id="color-10"><stop offset="0" stop-color="#ffffff" stop-opacity="0.6"/><stop offset="1" stop-color="#ffffff" stop-opacity="0"/></linearGradient><linearGradient x1="235.73419" y1="175.61938" x2="234.82759" y2="178.47524" gradientUnits="userSpaceOnUse" id="color-11"><stop offset="0" stop-color="#ffffff" stop-opacity="0.6"/><stop offset="1" stop-color="#ffffff" stop-opacity="0"/></linearGradient><linearGradient x1="247.01748" y1="168.8465" x2="246.61424" y2="170.11674" gradientUnits="userSpaceOnUse" id="color-12"><stop offset="0" stop-color="#ffffff" stop-opacity="0.6"/><stop offset="1" stop-color="#ffffff" stop-opacity="0"/></linearGradient><linearGradient x1="246.14983" y1="171.94617" x2="245.2439" y2="174.79994" gradientUnits="userSpaceOnUse" id="color-13"><stop offset="0" stop-color="#ffffff"/><stop offset="1" stop-color="#ffffff" stop-opacity="0.40392"/></linearGradient><linearGradient x1="249.97156" y1="162.10642" x2="248.42811" y2="166.96841" gradientUnits="userSpaceOnUse" id="color-14"><stop offset="0" stop-color="#ffffff"/><stop offset="1" stop-color="#ffffff" stop-opacity="0"/></linearGradient></defs><g transform="translate(-210.81976,-150.81975)"><g data-paper-data="{&quot;isPaintingLayer&quot;:true}" fill-rule="nonzero" stroke-linejoin="miter" stroke-miterlimit="10" stroke-dasharray="" stroke-dashoffset="0" style="mix-blend-mode: normal"><path d="M210.81977,180.00001c0,-16.11582 13.06445,-29.18026 29.18026,-29.18026c16.11582,0 29.18026,13.06445 29.18026,29.18026c0,16.11582 -13.06445,29.18026 -29.18026,29.18026c-16.11582,0 -29.18026,-13.06445 -29.18026,-29.18026z" data-paper-data="{&quot;index&quot;:null}" fill="url(#color-1)" stroke="#f83535" stroke-width="0" stroke-linecap="butt"/><path d="M223.68448,180.00001c0,-9.01082 7.30472,-16.31555 16.31554,-16.31555c9.01082,0 16.31555,7.30472 16.31555,16.31555c0,9.01082 -7.30473,16.31555 -16.31555,16.31555c-9.01082,0 -16.31554,-7.30472 -16.31554,-16.31555z" data-paper-data="{&quot;index&quot;:null}" fill="url(#color-2)" stroke="none" stroke-width="0" stroke-linecap="butt"/><g><path d="M220.66079,173.86076c3.39061,-10.68076 14.79772,-16.59059 25.47847,-13.19998c10.68076,3.39061 16.59059,14.79773 13.19998,25.47847c-3.39061,10.68076 -14.79773,16.59059 -25.47847,13.19998c-10.68076,-3.39061 -16.59058,-14.79773 -13.19997,-25.47847z" fill="url(#color-3)" stroke="#ff0000" stroke-width="0" stroke-linecap="butt"/><g><path d="M228.19258,175.66554c2.34826,-7.39724 13.17415,-10.56151 15.99629,-9.66562c3.24493,1.0301 9.84075,9.72491 7.49249,17.12214c-2.34826,7.39724 -8.55712,9.70024 -15.04336,7.64118c-6.48625,-2.05906 -10.79367,-7.70048 -8.44542,-15.09772z" fill="url(#color-4)" stroke="#000000" stroke-width="0" stroke-linecap="butt"/><path d="M241.41705,168.06688c0,0 -1.03531,-1.36494 -0.79832,-1.90567c0.22135,-0.50507 3.12679,-1.21049 3.12679,-1.21049l0.26875,-2.81013c0,0 3.9687,-1.12603 4.96686,-0.55933c1.19917,0.68083 4.82932,6.83883 4.05973,7.79711c-1.5043,1.8731 -3.78836,-2.66079 -5.91417,-1.5417c-0.53444,0.28135 -1.28034,0.67401 -1.28034,0.67401z" fill="url(#color-5)" stroke="#000000" stroke-width="0" stroke-linecap="butt"/><path d="M228.56004,179.16044c0,0 4.39909,0.02064 11.00606,1.84298c3.4173,0.94256 10.60278,3.3879 10.60278,3.3879" fill="none" stroke="url(#color-6)" stroke-width="2" stroke-linecap="round"/><path d="M230.04979,173.00158c0,0 6.84677,0.36701 10.2203,1.15909c3.64361,0.8555 10.89361,3.79833 10.89361,3.79833" fill="none" stroke="url(#color-7)" stroke-width="2" stroke-linecap="round"/><path d="M235.67173,168.85257c0,0 4.45526,0.41927 6.65434,1.02323c2.32433,0.63838 6.93675,2.70954 6.93675,2.70954" fill="none" stroke="url(#color-8)" stroke-width="2" stroke-linecap="round"/><path d="M230.04822,185.10116c0,0 5.2434,0.50494 7.92403,1.18216c2.7046,0.68328 8.23227,2.89954 8.23227,2.89954" fill="none" stroke="url(#color-9)" stroke-width="2" stroke-linecap="round"/><path d="M241.68913,184.718c0.21258,-0.6111 1.22892,-0.81289 2.27005,-0.45071c1.04113,0.36219 1.7128,1.15119 1.50022,1.76228c-0.21258,0.6111 -1.22893,0.81289 -2.27006,0.4507c-1.04113,-0.36219 -1.71279,-1.15118 -1.50022,-1.76228z" fill="url(#color-10)" stroke="none" stroke-width="0" stroke-linecap="butt"/><path d="M234.86718,178.48607c-1.35377,-0.38929 -2.26599,-1.34901 -2.0375,-2.14362c0.22849,-0.79461 1.51117,-1.12319 2.86494,-0.7339c1.35377,0.38929 2.26599,1.34901 2.0375,2.14362c-0.22849,0.79461 -1.51117,1.12319 -2.86493,0.7339z" data-paper-data="{&quot;index&quot;:null}" fill="url(#color-11)" stroke="none" stroke-width="0" stroke-linecap="butt"/><path d="M246.6309,170.12193c-0.90268,-0.29264 -1.55164,-0.81655 -1.44949,-1.17018c0.10215,-0.35363 0.91673,-0.40309 1.81941,-0.11045c0.90269,0.29264 1.55165,0.81655 1.4495,1.17018c-0.10215,0.35363 -0.91673,0.40309 -1.81941,0.11045z" data-paper-data="{&quot;index&quot;:null}" fill="url(#color-12)" stroke="none" stroke-width="0" stroke-linecap="butt"/><path d="M248.28641,174.1951c-0.25017,0.78805 -1.61234,1.05884 -3.04251,0.60484c-1.43016,-0.45401 -2.38674,-1.46089 -2.13657,-2.24894c0.25017,-0.78805 1.61234,-1.05884 3.0425,-0.60484c1.43016,0.45401 2.38674,1.46089 2.13658,2.24894z" fill="url(#color-13)" stroke-opacity="0.56078" stroke="#ffffff" stroke-width="0" stroke-linecap="butt"/><path d="M252.70877,168.32731c0,0 -1.22919,-1.55367 -3.44602,-3.07184c-2.1223,-1.45343 -4.17582,-2.60543 -4.17582,-2.60543l4.1045,-0.44854z" fill="url(#color-14)" stroke="none" stroke-width="0" stroke-linecap="butt"/></g></g></g></g></svg>