<svg version="1.1" xmlns="http://www.w3.org/2000/svg" xmlns:xlink="http://www.w3.org/1999/xlink" width="65.59774" height="70.29555" viewBox="0,0,65.59774,70.29555"><defs><radialGradient cx="240.0611" cy="180.04897" r="32.79887" gradientUnits="userSpaceOnUse" id="color-1"><stop offset="0" stop-color="#000000"/><stop offset="1" stop-color="#000000" stop-opacity="0"/></radialGradient><linearGradient x1="238.87542" y1="154.687" x2="238.87542" y2="203.95716" gradientUnits="userSpaceOnUse" id="color-2"><stop offset="0" stop-color="#ff0000"/><stop offset="1" stop-color="#9b0000"/></linearGradient><radialGradient cx="243.77601" cy="178.72865" r="22.62931" gradientUnits="userSpaceOnUse" id="color-3"><stop offset="0" stop-color="#ffe0e0"/><stop offset="1" stop-color="#ff3b3b"/></radialGradient><linearGradient x1="243.95149" y1="185.24172" x2="253.50887" y2="184.54567" gradientUnits="userSpaceOnUse" id="color-4"><stop offset="0" stop-color="#ff8080"/><stop offset="1" stop-color="#ff0000"/></linearGradient><linearGradient x1="242.97445" y1="172.92954" x2="252.98314" y2="172.20063" gradientUnits="userSpaceOnUse" id="color-5"><stop offset="0" stop-color="#ff8080"/><stop offset="1" stop-color="#ff0000"/></linearGradient><linearGradient x1="219.41379" y1="165.7409" x2="228.67366" y2="169.61546" gradientUnits="userSpaceOnUse" id="color-6"><stop offset="0" stop-color="#ffffff"/><stop offset="1" stop-color="#ffffff" stop-opacity="0"/></linearGradient><linearGradient x1="223.30107" y1="170.98262" x2="235.36726" y2="172.15795" gradientUnits="userSpaceOnUse" id="color-7"><stop offset="0" stop-color="#ff6565"/><stop offset="1" stop-color="#ff8080"/></linearGradient><linearGradient x1="231.44325" y1="168.88032" x2="231.16387" y2="171.7485" gradientUnits="userSpaceOnUse" id="color-8"><stop offset="0" stop-color="#820000"/><stop offset="1" stop-color="#820000" stop-opacity="0"/></linearGradient><linearGradient x1="225.87255" y1="171.2331" x2="225.59316" y2="174.10129" gradientUnits="userSpaceOnUse" id="color-9"><stop offset="0" stop-color="#ffffff" stop-opacity="0"/><stop offset="1" stop-color="#ffffff"/></linearGradient><linearGradient x1="227.27132" y1="160.92438" x2="237.60999" y2="167.25573" gradientUnits="userSpaceOnUse" id="color-10"><stop offset="0" stop-color="#ff6565"/><stop offset="1" stop-color="#ff8080"/></linearGradient><linearGradient x1="235.5134" y1="162.59259" x2="234.00841" y2="165.05013" gradientUnits="userSpaceOnUse" id="color-11"><stop offset="0" stop-color="#820000"/><stop offset="1" stop-color="#820000" stop-opacity="0"/></linearGradient><linearGradient x1="229.47465" y1="162.27368" x2="227.96965" y2="164.73124" gradientUnits="userSpaceOnUse" id="color-12"><stop offset="0" stop-color="#ffffff" stop-opacity="0"/><stop offset="1" stop-color="#ffffff"/></linearGradient><linearGradient x1="224.72666" y1="190.55748" x2="236.49524" y2="187.64634" gradientUnits="userSpaceOnUse" id="color-13"><stop offset="0" stop-color="#ff6565"/><stop offset="1" stop-color="#ff8080"/></linearGradient><linearGradient x1="233.08753" y1="191.4579" x2="232.39553" y2="188.66047" gradientUnits="userSpaceOnUse" id="color-14"><stop offset="0" stop-color="#820000"/><stop offset="1" stop-color="#820000" stop-opacity="0"/></linearGradient><linearGradient x1="227.23472" y1="189.93707" x2="226.54272" y2="187.13963" gradientUnits="userSpaceOnUse" id="color-15"><stop offset="0" stop-color="#ffffff" stop-opacity="0"/><stop offset="1" stop-color="#ffffff"/></linearGradient><linearGradient x1="229.67061" y1="198.59237" x2="238.98288" y2="190.82988" gradientUnits="userSpaceOnUse" id="color-16"><stop offset="0" stop-color="#ff6565"/><stop offset="1" stop-color="#ff8080"/></linearGradient><linearGradient x1="237.58403" y1="195.74759" x2="235.73884" y2="193.53403" gradientUnits="userSpaceOnUse" id="color-17"><stop offset="0" stop-color="#820000"/><stop offset="1" stop-color="#820000" stop-opacity="0"/></linearGradient><linearGradient x1="231.6552" y1="196.93807" x2="229.81001" y2="194.72449" gradientUnits="userSpaceOnUse" id="color-18"><stop offset="0" stop-color="#ffffff" stop-opacity="0"/><stop offset="1" stop-color="#ffffff"/></linearGradient><linearGradient x1="216.44353" y1="150.92649" x2="225.15708" y2="155.04908" gradientUnits="userSpaceOnUse" id="color-19"><stop offset="0" stop-color="#e65b5b"/><stop offset="1" stop-color="#ff9a9a"/></linearGradient><linearGradient x1="216.8596" y1="159.13019" x2="219.95751" y2="152.58245" gradientUnits="userSpaceOnUse" id="color-20"><stop offset="0" stop-color="#810000" stop-opacity="0"/><stop offset="1" stop-color="#810000"/></linearGradient><linearGradient x1="218.7779" y1="155.07572" x2="221.94035" y2="148.39151" gradientUnits="userSpaceOnUse" id="color-21"><stop offset="0" stop-color="#810000"/><stop offset="1" stop-color="#810000" stop-opacity="0"/></linearGradient><linearGradient x1="213.31948" y1="150.80131" x2="225.15427" y2="156.40066" gradientUnits="userSpaceOnUse" id="color-22"><stop offset="0" stop-color="#cc3d3d"/><stop offset="1" stop-color="#cc5252"/></linearGradient><linearGradient x1="213.31948" y1="150.80131" x2="219.53041" y2="153.73984" gradientUnits="userSpaceOnUse" id="color-23"><stop offset="0" stop-color="#000000"/><stop offset="1" stop-color="#000000" stop-opacity="0"/></linearGradient><linearGradient x1="213.04628" y1="150.91079" x2="226.97099" y2="157.49893" gradientUnits="userSpaceOnUse" id="color-24"><stop offset="0" stop-color="#ff0000"/><stop offset="1" stop-color="#cc5252"/></linearGradient><linearGradient x1="213.04628" y1="150.9108" x2="226.97099" y2="157.49894" gradientUnits="userSpaceOnUse" id="color-25"><stop offset="0" stop-color="#ff8080"/><stop offset="1" stop-color="#ff8080" stop-opacity="0"/></linearGradient><linearGradient x1="213.04628" y1="150.91079" x2="226.97099" y2="157.49893" gradientUnits="userSpaceOnUse" id="color-26"><stop offset="0" stop-color="#800000" stop-opacity="0"/><stop offset="1" stop-color="#800000"/></linearGradient><linearGradient x1="212.47403" y1="150.35953" x2="215.15635" y2="151.62861" gradientUnits="userSpaceOnUse" id="color-27"><stop offset="0" stop-color="#cc3d3d"/><stop offset="1" stop-color="#cc5252"/></linearGradient><linearGradient x1="211.77065" y1="150.0924" x2="214.87535" y2="151.5613" gradientUnits="userSpaceOnUse" id="color-28"><stop offset="0" stop-color="#ff9a9a"/><stop offset="1" stop-color="#e65b5b"/></linearGradient><linearGradient x1="216.96817" y1="209.16419" x2="225.68444" y2="205.04734" gradientUnits="userSpaceOnUse" id="color-29"><stop offset="0" stop-color="#e65b5b"/><stop offset="1" stop-color="#ff9a9a"/></linearGradient><linearGradient x1="217.38969" y1="200.96076" x2="220.48323" y2="207.51053" gradientUnits="userSpaceOnUse" id="color-30"><stop offset="0" stop-color="#810000" stop-opacity="0"/><stop offset="1" stop-color="#810000"/></linearGradient><linearGradient x1="219.30528" y1="205.01649" x2="222.4633" y2="211.7028" gradientUnits="userSpaceOnUse" id="color-31"><stop offset="0" stop-color="#810000"/><stop offset="1" stop-color="#810000" stop-opacity="0"/></linearGradient><linearGradient x1="213.84403" y1="209.28729" x2="225.68253" y2="203.69578" gradientUnits="userSpaceOnUse" id="color-32"><stop offset="0" stop-color="#cc3d3d"/><stop offset="1" stop-color="#cc5252"/></linearGradient><linearGradient x1="213.84403" y1="209.28729" x2="220.05689" y2="206.35286" gradientUnits="userSpaceOnUse" id="color-33"><stop offset="0" stop-color="#000000"/><stop offset="1" stop-color="#000000" stop-opacity="0"/></linearGradient><linearGradient x1="213.5709" y1="209.1776" x2="227.49998" y2="202.59871" gradientUnits="userSpaceOnUse" id="color-34"><stop offset="0" stop-color="#ff0000"/><stop offset="1" stop-color="#cc5252"/></linearGradient><linearGradient x1="213.5709" y1="209.1776" x2="227.49998" y2="202.59871" gradientUnits="userSpaceOnUse" id="color-35"><stop offset="0" stop-color="#ff8080"/><stop offset="1" stop-color="#ff8080" stop-opacity="0"/></linearGradient><linearGradient x1="213.5709" y1="209.1776" x2="227.49998" y2="202.59871" gradientUnits="userSpaceOnUse" id="color-36"><stop offset="0" stop-color="#800000" stop-opacity="0"/><stop offset="1" stop-color="#800000"/></linearGradient><linearGradient x1="212.99827" y1="209.72852" x2="215.68146" y2="208.46121" gradientUnits="userSpaceOnUse" id="color-37"><stop offset="0" stop-color="#cc3d3d"/><stop offset="1" stop-color="#cc5252"/></linearGradient><linearGradient x1="212.29474" y1="209.99518" x2="215.4004" y2="208.52832" gradientUnits="userSpaceOnUse" id="color-38"><stop offset="0" stop-color="#ff9a9a"/><stop offset="1" stop-color="#e65b5b"/></linearGradient></defs><g transform="translate(-207.26222,-144.9012)"><g data-paper-data="{&quot;isPaintingLayer&quot;:true}" fill-rule="nonzero" stroke-width="0" stroke-linecap="butt" stroke-linejoin="miter" stroke-miterlimit="10" stroke-dasharray="" stroke-dashoffset="0" style="mix-blend-mode: normal"><path d="M240.0611,212.84785c-18.11432,0 -32.79887,-14.68456 -32.79887,-32.79887c0,-18.11432 14.68456,-32.79887 32.79887,-32.79887c18.11432,0 32.79887,14.68456 32.79887,32.79887c0,18.11432 -14.68456,32.79887 -32.79887,32.79887z" fill="url(#color-1)" stroke="#000000"/><path d="M240.33352,203.91321c-13.58129,0.8053 -25.24393,-9.55174 -26.04921,-23.13304c-0.8053,-13.58129 9.55174,-25.24393 23.13303,-26.04921c13.58129,-0.8053 25.24394,9.55174 26.04921,23.13304c0.80529,13.58129 -9.55174,25.24394 -23.13304,26.04921z" fill="url(#color-2)" stroke="#000000"/><path d="M263.43474,177.40776c0.90851,12.47481 -6.4596,23.17786 -16.45714,23.90596c-9.99754,0.7281 -21.97255,-7.59997 -22.88106,-20.07478c-0.90851,-12.47481 9.59353,-24.37238 19.59106,-25.10048c9.99754,-0.7281 18.83863,8.79449 19.74715,21.26929z" fill="url(#color-3)" stroke="none"/><path d="M257.99079,177.87763l-5.47918,13.70435l-9.58412,0.59333l4.81077,-13.551l-7.04375,-12.68767l9.72602,-0.63194z" fill="#000000" stroke="none"/><path d="M246.44288,181.75406c0,0 6.94203,0.6812 7.07277,2.88601c0.13074,2.20483 -2.976,3.47907 -6.88778,3.71101c-0.85802,0.05088 -2.45082,-0.01235 -2.45082,-0.01235z" fill="url(#color-4)" stroke="none"/><path d="M242.74967,169.84311c0,0 1.89904,-0.35479 2.96216,-0.41782c3.9118,-0.23194 7.14732,0.66624 7.27806,2.87105c0.13074,2.20481 -6.88778,3.71101 -6.88778,3.71101z" fill="url(#color-5)" stroke="none"/><path d="M235.58764,156.65051c0.45739,1.51355 -6.61501,4.52117 -11.56156,9.57761c-4.75018,4.85569 -7.36088,11.80213 -7.95937,11.57466c-0.9596,-0.3647 -0.4005,-6.8187 3.3215,-12.13647c3.245,-4.63631 9.52884,-8.19536 11.14337,-8.84987c2.83346,-1.14864 4.88397,-0.73538 5.05605,-0.16594z" data-paper-data="{&quot;index&quot;:null}" fill="url(#color-6)" stroke="none"/><g stroke="none"><path d="M234.77384,172.10015l-7.49932,2.16494l-3.38004,-3.22465l3.93881,-2.51175z" fill="url(#color-7)"/><path d="M234.77384,172.10015l-6.92323,-0.67437l-0.01733,-2.89709z" fill="url(#color-8)"/><path d="M227.85061,171.42578l-0.57609,2.83929l-3.38004,-3.22465z" fill="url(#color-9)"/></g><g stroke="none"><path d="M237.10153,166.94437l-7.69126,-1.33087l-1.63051,-4.37772l4.64051,-0.53739z" fill="url(#color-10)"/><path d="M237.10153,166.94437l-5.93203,-3.63274l1.25076,-2.61325z" fill="url(#color-11)"/><path d="M231.16951,163.3116l-1.75923,2.30187l-1.63051,-4.37772z" fill="url(#color-12)"/></g><g data-paper-data="{&quot;index&quot;:null}" stroke="none"><path d="M229.56661,192.32888l-4.26117,-1.91455l2.87716,-3.68034l7.73386,1.05552z" fill="url(#color-13)"/><path d="M229.56661,192.32888l-0.40261,-2.86904l6.75246,-1.67035z" fill="url(#color-14)"/><path d="M225.30545,190.41432l2.87716,-3.68034l0.98139,2.72587z" fill="url(#color-15)"/></g><g data-paper-data="{&quot;index&quot;:null}" stroke="none"><path d="M234.79799,198.06998l-4.6694,0.14063l0.97903,-4.56776l7.41726,-2.43119z" fill="url(#color-16)"/><path d="M234.79799,198.06998l-1.61619,-2.40444l5.3431,-4.45389z" fill="url(#color-17)"/><path d="M230.12859,198.2106l0.97903,-4.56776l2.07416,2.0227z" fill="url(#color-18)"/></g><g stroke="none"><path d="M228.97832,145.79506c0.80289,0.37987 -2.03282,2.11544 -3.41735,4.74382c-1.08057,2.05134 -0.66443,5.06089 -0.95769,5.6807c-0.24578,0.51949 -2.55431,2.33134 -3.45824,4.60118c-1.15133,2.89108 -0.9908,6.2658 -1.88168,5.84431c-2.40617,-1.13842 -6.46634,-12.40462 -4.81816,-15.88819c1.64816,-3.48358 12.12695,-6.1202 14.53312,-4.98178z" fill="url(#color-19)"/><path d="M224.60331,156.21957c-0.24578,0.51949 -2.55432,2.33134 -3.45825,4.60118c-0.64835,1.62807 -7.41986,-8.52205 -6.69984,-10.04389c0.69461,-1.46812 10.45134,4.82291 10.15808,5.44272z" fill="url(#color-20)"/><path d="M225.56098,150.53886c-1.08057,2.05134 -0.66444,5.06088 -0.95767,5.68069c-0.24578,0.51949 -11.80627,-1.95916 -10.15808,-5.44272c0.6003,-1.2688 11.99601,-1.90901 11.11577,-0.23794z" fill="url(#color-21)"/><path d="M220.03679,151.91031c3.26808,1.54623 5.6612,3.34115 5.1175,4.49037c-0.54373,1.14921 -3.44922,0.43722 -6.71731,-1.109c-3.26808,-1.54623 -6.26678,-2.06122 -5.11748,-4.49036c1.14928,-2.42913 3.44923,-0.43724 6.71731,1.10899z" fill="url(#color-22)"/><path d="M220.03679,151.91031c0.39979,0.18915 -1.21695,3.56252 -1.59983,3.38136c-3.26808,-1.54623 -6.26678,-2.06122 -5.11748,-4.49036c1.14928,-2.42913 3.44922,-0.43723 6.71731,1.10899z" fill="url(#color-23)"/><path d="M229.62224,145.62222c0.75526,3.62082 -12.08463,2.27115 -14.07263,6.47297c-1.988,4.20183 6.5233,14.60464 3.76875,15.71003c-2.33828,0.93833 -8.72945,-12.91465 -6.74145,-17.11648c1.988,-4.20183 16.5924,-7.2379 17.04532,-5.06651z" fill="url(#color-24)"/><path d="M213.64909,151.68915c-0.62049,-0.40001 -1.134,-0.86978 -1.07218,-1.00043c1.34485,-2.84246 8.46335,-5.15145 13.0687,-5.67573c0.47897,-0.05453 4.1461,-0.01502 2.05236,0.90481c-1.33659,0.58718 -8.10216,1.86701 -9.51748,2.62373c-2.56656,1.3723 -4.40816,3.22705 -4.53139,3.14759z" fill="url(#color-25)"/><path d="M215.54962,152.09519c-1.988,4.20183 6.5233,14.60464 3.76876,15.71003c-0.55997,0.2247 -4.5102,-8.15459 -5.0802,-10.90746c-0.77837,-3.75922 -0.00791,-5.9356 0.3607,-5.76456c0.61729,0.28638 1.0994,0.64779 0.95072,0.962z" fill="url(#color-26)"/><g><path d="M214.75431,149.00914c0.74072,0.35045 0.92071,1.52322 0.40205,2.61947c-0.51865,1.09624 -1.53959,1.70084 -2.28029,1.35038c-0.74072,-0.35045 -0.92072,-1.52322 -0.40206,-2.61947c0.51865,-1.09624 1.53959,-1.70084 2.28031,-1.35038z" fill="url(#color-27)"/><path d="M212.71384,152.11435c-0.85732,-0.40563 -2.2258,-1.72034 -1.87459,-2.46265c0.3512,-0.7423 2.23558,-0.51801 3.09292,-0.11239c0.85732,0.40563 -0.36099,2.98067 -1.21832,2.57504z" fill="url(#color-28)"/></g></g><g data-paper-data="{&quot;index&quot;:null}" stroke="none"><path d="M214.96974,209.31249c-1.64586,-3.48465 2.42176,-14.74817 4.82869,-15.88499c0.89116,-0.42092 0.72838,2.95372 1.87781,5.84555c0.90243,2.27044 3.20975,4.08382 3.45518,4.60347c0.29284,0.62 -0.12528,3.62926 0.95391,5.68131c1.38279,2.6293 4.21733,4.36675 3.41421,4.74608c-2.40692,1.13683 -12.88396,-1.50675 -14.52982,-4.99141z" fill="url(#color-29)"/><path d="M225.13144,203.87652c0.29284,0.62001 -9.46807,6.90457 -10.16171,5.43598c-0.71901,-1.52231 6.05923,-11.66795 6.7065,-10.03946c0.90244,2.27044 3.20976,4.08382 3.4552,4.60347z" fill="url(#color-30)"/><path d="M226.08535,209.55783c0.87915,1.67165 -10.51616,1.02387 -11.11562,-0.24532c-1.64586,-3.48465 9.91625,-5.95563 10.1617,-5.43598c0.29284,0.62 -0.12528,3.62926 0.95391,5.68131z" fill="url(#color-31)"/><path d="M213.84403,209.28729c-1.14767,-2.4299 1.85135,-2.94291 5.12047,-4.48696c3.26912,-1.54404 6.17508,-2.25412 6.71803,-1.10454c0.54297,1.14957 -1.85136,2.94291 -5.12047,4.48698c-3.26912,1.54404 -5.57037,3.53442 -6.71804,1.10454z" fill="url(#color-32)"/><path d="M213.84403,209.28729c-1.14767,-2.4299 1.85135,-2.94291 5.12047,-4.48696c0.38298,-0.18089 1.99749,3.19354 1.59758,3.38243c-3.26912,1.54404 -5.57037,3.53442 -6.71804,1.10454z" fill="url(#color-33)"/><path d="M213.10138,209.39936c-1.98523,-4.20315 4.41516,-18.05189 6.7528,-17.11201c2.75381,1.10722 -5.76439,11.50437 -3.77918,15.70753c1.98523,4.20315 14.82599,2.86199 14.06834,6.48231c-0.45437,2.17108 -15.05675,-0.87468 -17.04197,-5.07782z" fill="url(#color-34)"/><path d="M218.70352,211.55027c1.41481,0.75766 8.17956,2.04198 9.51574,2.63005c2.09314,0.92121 -1.57401,0.95829 -2.05296,0.90344c-4.605,-0.52733 -11.72197,-2.84102 -13.06494,-5.6844c-0.06173,-0.13067 0.45208,-0.6001 1.07285,-0.99972c0.12327,-0.07936 1.96362,1.77662 4.5293,3.1506z" fill="url(#color-35)"/><path d="M216.075,207.99489c0.14846,0.3143 -0.3339,0.67541 -0.95136,0.96136c-0.36872,0.17076 -1.13773,-2.00609 -0.35687,-5.7648c0.57182,-2.75248 4.52759,-11.12916 5.08742,-10.90409c2.75381,1.10722 -5.76439,11.50437 -3.77918,15.70753z" fill="url(#color-36)"/><g><path d="M212.99828,209.72851c-0.51794,-1.09659 -0.33715,-2.26926 0.40379,-2.61921c0.74095,-0.34995 1.76146,0.25531 2.2794,1.3519c0.51794,1.09659 0.33715,2.26925 -0.40378,2.6192c-0.74095,0.34995 -1.76147,-0.2553 -2.27942,-1.35189z" fill="url(#color-37)"/><path d="M213.23927,207.97383c0.85761,-0.40506 2.07421,2.17078 1.21662,2.57585c-0.85761,0.40506 -2.74213,0.62809 -3.09284,-0.11443c-0.35071,-0.74254 1.01864,-2.05635 1.87623,-2.46142z" fill="url(#color-38)"/></g></g></g></g></svg>