<svg version="1.1" xmlns="http://www.w3.org/2000/svg" xmlns:xlink="http://www.w3.org/1999/xlink" width="37.6" height="43.6" viewBox="0,0,37.6,43.6"><g transform="translate(-221.20006,-158.2)"><g data-paper-data="{&quot;isPaintingLayer&quot;:true}" fill-rule="nonzero" stroke="none" stroke-linecap="butt" stroke-linejoin="miter" stroke-miterlimit="10" stroke-dasharray="" stroke-dashoffset="0" style="mix-blend-mode: normal"><path d="M221.20006,201.8v-43.6h37.6v43.6z" fill="none" stroke-width="0"/><path d="M235.56706,177.37684h8.86588c0.75917,0.05415 1.3421,0.3185 1.74878,0.79305c0.42025,0.47447 0.63037,1.09806 0.63037,1.87077c0,0.7185 -0.21012,1.31498 -0.63037,1.78945c-0.40669,0.47448 -0.98961,0.73883 -1.74878,0.79305h-8.86588c-0.75915,-0.05415 -1.34885,-0.31172 -1.7691,-0.77271c-0.4067,-0.47448 -0.61005,-1.07775 -0.61005,-1.80979c0,-0.75915 0.20335,-1.37597 0.61005,-1.85045c0.42025,-0.48803 1.00995,-0.75915 1.7691,-0.81337z" fill="#ff0000" stroke-width="0.40889"/></g></g></svg>