<svg version="1.1" xmlns="http://www.w3.org/2000/svg" xmlns:xlink="http://www.w3.org/1999/xlink" width="480.66667" height="360" viewBox="0,0,480.66667,360"><defs><radialGradient cx="240.00005" cy="180" r="240.33333" gradientUnits="userSpaceOnUse" id="color-1"><stop offset="0" stop-color="#6b6b6b"/><stop offset="1" stop-color="#0d0d0d"/></radialGradient></defs><g transform="translate(0.33333,0)"><g data-paper-data="{&quot;isPaintingLayer&quot;:true}" fill-rule="nonzero" stroke-linejoin="miter" stroke-miterlimit="10" stroke-dasharray="" stroke-dashoffset="0" style="mix-blend-mode: normal"><path d="M-0.33332,360v-360h480.66667v360z" fill="url(#color-1)" stroke="#000000" stroke-width="0" stroke-linecap="butt"/><path d="M141.84569,102.82923c0,0 22.55537,21.7861 -1.89816,34.20314c-13.27242,6.73948 -29.83637,2.86164 -37.59822,-23.52842c-6.02001,-20.46785 11.22817,-50.31413 44.60944,-48.4427c19.78106,1.10898 65.62888,45.20043 31.14667,89.69231c-12.71253,16.4028 -50.67801,42.09301 -91.49273,6.38348c-27.65366,-24.19469 -42.14164,-89.26056 16.79627,-124.91503c95.79163,-57.94911 151.653,90.11216 109.22915,138.51135c-38.88219,44.35871 -103.57686,63.41121 -154.92967,10.71713c-69.26133,-71.07035 -11.3699,-147.80868 -11.3699,-147.80868" fill="none" stroke-opacity="0.27059" stroke="#ababab" stroke-width="17.5" stroke-linecap="round"/><path d="M338.15434,257.17078c0,0 -22.55537,-21.7861 1.89816,-34.20314c13.27242,-6.73948 29.83636,-2.86164 37.59821,23.52842c6.02002,20.46785 -11.22817,50.31415 -44.60944,48.44271c-19.78107,-1.10897 -65.62889,-45.20042 -31.14668,-89.69231c12.71253,-16.40279 50.67802,-42.09301 91.49273,-6.38348c27.65366,24.19468 42.14164,89.26055 -16.79627,124.91502c-95.79163,57.94912 -151.65299,-90.11215 -109.22915,-138.51135c38.8822,-44.35871 103.57686,-63.41121 154.92967,-10.71713c69.26133,71.07035 11.3699,147.80868 11.3699,147.80868" data-paper-data="{&quot;index&quot;:null}" fill="none" stroke-opacity="0.27059" stroke="#ababab" stroke-width="17.5" stroke-linecap="round"/><path d="M297.12153,22.65179c0,0 32.76172,4.58633 33.20194,38.7356c0.32639,25.31948 -20.05321,36.42635 -40.30962,35.09366c-22.1015,-1.45408 -44.53805,-51.078 -7.12573,-60.28686c23.01876,-5.66595 35.32672,13.69323 34.48499,26.31036c-1.24233,18.62193 -16.73274,21.60908 -23.81786,20.71107c-19.21809,-2.43582 -18.79069,-24.32226 -14.24689,-29.40578c7.66782,-8.57863 19.12811,-5.51292 22.64394,0.93281c4.53311,8.31076 1.44599,13.2852 -3.42384,14.87497c-8.97234,2.92904 -8.78514,-7.86131 -8.78514,-7.86131" data-paper-data="{&quot;index&quot;:null}" fill="none" stroke-opacity="0.27059" stroke="#ababab" stroke-width="5" stroke-linecap="round"/><path d="M397.04515,76.30431c0,0 -6.32521,-17.02653 9.55585,-17.38866c8.61962,-0.19655 16.29979,5.97642 13.74567,21.70325c-1.98095,12.19756 -18.46301,23.46704 -35.42911,14.13094c-10.05377,-5.53238 -22.95913,-40.04119 6.19134,-54.64452c10.74688,-5.3838 37.00869,-9.29499 49.38416,19.57573c8.38489,19.56111 -0.34065,57.17216 -40.05121,61.0361c-64.54147,6.28004 -56.64279,-85.03856 -22.36609,-99.69406c31.4152,-13.43202 69.97532,-7.18343 83.60179,33.1969c18.3785,54.46236 -31.07288,80.04603 -31.07288,80.04603" data-paper-data="{&quot;index&quot;:null}" fill="none" stroke-opacity="0.40392" stroke="#ababab" stroke-width="10" stroke-linecap="round"/><path d="M253.48522,108.73351c0,0 13.29588,-10.03042 25.60971,1.96998c9.12991,8.89752 5.82883,20.10668 -1.85688,26.84351c-8.38577,7.35046 -34.03924,-2.32822 -23.99883,-18.92532c6.17758,-10.21173 17.45106,-7.70151 21.6431,-2.91016c6.18712,7.07166 1.73597,13.64966 -1.10602,15.85226c-7.70878,5.97448 -15.34817,-1.96923 -15.54032,-5.39655c-0.32425,-5.78372 4.84699,-8.77219 8.3933,-7.72915c4.57241,1.34484 5.24429,4.21475 4.0766,6.51436c-2.15141,4.23688 -5.92612,0.32888 -5.92612,0.32888" data-paper-data="{&quot;index&quot;:null}" fill="none" stroke-opacity="0.40392" stroke="#ababab" stroke-width="3" stroke-linecap="round"/><path d="M182.8785,337.34821c0,0 -32.76173,-4.58634 -33.20195,-38.7356c-0.32639,-25.31948 20.05322,-36.42636 40.30963,-35.09366c22.1015,1.45408 44.53805,51.078 7.12573,60.28686c-23.01875,5.66595 -35.32673,-13.69322 -34.485,-26.31035c1.24233,-18.62193 16.73275,-21.60908 23.81787,-20.71107c19.2181,2.43582 18.79069,24.32225 14.24689,29.40578c-7.66782,8.57863 -19.12811,5.51292 -22.64395,-0.93281c-4.53312,-8.31076 -1.44599,-13.2852 3.42384,-14.87497c8.97233,-2.92904 8.78514,7.86131 8.78514,7.86131" data-paper-data="{&quot;index&quot;:null}" fill="none" stroke-opacity="0.27059" stroke="#ababab" stroke-width="5" stroke-linecap="round"/><path d="M82.95487,283.69569c0,0 6.3252,17.02653 -9.55586,17.38866c-8.61962,0.19656 -16.29979,-5.97641 -13.74566,-21.70324c1.98095,-12.19756 18.46301,-23.46704 35.42911,-14.13094c10.05377,5.53238 22.95913,40.04119 -6.19134,54.64452c-10.74688,5.3838 -37.00869,9.29499 -49.38416,-19.57574c-8.38488,-19.56111 0.34065,-57.17216 40.05121,-61.03609c64.54147,-6.28004 56.64279,85.03856 22.36609,99.69406c-31.41519,13.43202 -69.97532,7.18343 -83.6018,-33.1969c-18.37851,-54.46235 31.07288,-80.04602 31.07288,-80.04602" data-paper-data="{&quot;index&quot;:null}" fill="none" stroke-opacity="0.40392" stroke="#ababab" stroke-width="10" stroke-linecap="round"/><path d="M226.51481,251.2665c0,0 -13.29588,10.03041 -25.60971,-1.96998c-9.12991,-8.89752 -5.82882,-20.10668 1.85688,-26.84351c8.38576,-7.35046 34.03924,2.32822 23.99883,18.92532c-6.17759,10.21174 -17.45106,7.70151 -21.64309,2.91016c-6.18712,-7.07166 -1.73597,-13.64966 1.10602,-15.85226c7.70878,-5.97447 15.34817,1.96923 15.54031,5.39655c0.32425,5.78373 -4.84699,8.77219 -8.3933,7.72915c-4.57241,-1.34484 -5.2443,-4.21475 -4.07659,-6.51436c2.15141,-4.23688 5.92613,-0.32888 5.92613,-0.32888" data-paper-data="{&quot;index&quot;:null}" fill="none" stroke-opacity="0.40392" stroke="#ababab" stroke-width="3" stroke-linecap="round"/></g></g></svg>